{
  "header": {
    "keySignatures": [],
    "meta": [],
    "name": "",
    "ppq": 384,
    "tempos": [
      {
        "bpm": 114.00125401379415,
        "ticks": 0
      }
    ],
    "timeSignatures": [
      {
        "ticks": 0,
        "timeSignature": [
          4,
          4
        ],
        "measures": 0
      }
    ]
  },
  "tracks": [
    {
      "channel": 0,
      "controlChanges": {
        "1": [
          {
            "number": 1,
            "ticks": 4640,
            "time": 6.359579166666666,
            "value": 0
          }
        ],
        "7": [
          {
            "number": 7,
            "ticks": 1932,
            "time": 2.6479971874999997,
            "value": 0.8267716535433071
          }
        ],
        "10": [
          {
            "number": 10,
            "ticks": 1932,
            "time": 2.6479971874999997,
            "value": 0.5039370078740157
          }
        ],
        "11": [
          {
            "number": 11,
            "ticks": 1932,
            "time": 2.6479971874999997,
            "value": 1
          }
        ],
        "91": [
          {
            "number": 91,
            "ticks": 1936,
            "time": 2.653479583333333,
            "value": 0.3937007874015748
          }
        ],
        "93": [
          {
            "number": 93,
            "ticks": 1936,
            "time": 2.653479583333333,
            "value": 0.23622047244094488
          }
        ]
      },
      "pitchBends": [
        {
          "ticks": 4640,
          "time": 6.359579166666666,
          "value": 0
        }
      ],
      "instrument": {
        "family": "piano",
        "number": 5,
        "name": "electric piano 2"
      },
      "name": "E.PIANO 2",
      "notes": [
        {
          "duration": 0.5975811458333338,
          "durationTicks": 436,
          "midi": 65,
          "name": "F4",
          "ticks": 4636,
          "time": 6.3540967708333325,
          "velocity": 0.6614173228346457
        },
        {
          "duration": 0.5646867708333332,
          "durationTicks": 412,
          "midi": 54,
          "name": "F#3",
          "ticks": 4640,
          "time": 6.359579166666666,
          "velocity": 0.47244094488188976
        },
        {
          "duration": 0.5427571875000003,
          "durationTicks": 396,
          "midi": 61,
          "name": "C#4",
          "ticks": 4640,
          "time": 6.359579166666666,
          "velocity": 0.47244094488188976
        },
        {
          "duration": 0.6359579166666673,
          "durationTicks": 464,
          "midi": 58,
          "name": "A#3",
          "ticks": 4648,
          "time": 6.370543958333332,
          "velocity": 0.47244094488188976
        },
        {
          "duration": 1.1293735416666664,
          "durationTicks": 824,
          "midi": 63,
          "name": "D#4",
          "ticks": 5192,
          "time": 7.1161497916666665,
          "velocity": 0.5590551181102362
        },
        {
          "duration": 1.1567855208333322,
          "durationTicks": 844,
          "midi": 58,
          "name": "A#3",
          "ticks": 5204,
          "time": 7.132596979166666,
          "velocity": 0.4015748031496063
        },
        {
          "duration": 1.1019615625000005,
          "durationTicks": 804,
          "midi": 56,
          "name": "G#3",
          "ticks": 5204,
          "time": 7.132596979166666,
          "velocity": 0.4566929133858268
        },
        {
          "duration": 1.0855143749999998,
          "durationTicks": 792,
          "midi": 60,
          "name": "C4",
          "ticks": 5204,
          "time": 7.132596979166666,
          "velocity": 0.4881889763779528
        },
        {
          "duration": 0.6907818750000008,
          "durationTicks": 504,
          "midi": 63,
          "name": "D#4",
          "ticks": 6132,
          "time": 8.404512812499998,
          "velocity": 0.5905511811023622
        },
        {
          "duration": 0.6414403124999986,
          "durationTicks": 468,
          "midi": 56,
          "name": "G#3",
          "ticks": 6140,
          "time": 8.415477604166666,
          "velocity": 0.4881889763779528
        },
        {
          "duration": 0.685299479166666,
          "durationTicks": 500,
          "midi": 60,
          "name": "C4",
          "ticks": 6140,
          "time": 8.415477604166666,
          "velocity": 0.5354330708661418
        },
        {
          "duration": 1.1074439583333309,
          "durationTicks": 808,
          "midi": 61,
          "name": "C#4",
          "ticks": 6724,
          "time": 9.215907395833334,
          "velocity": 0.5590551181102362
        },
        {
          "duration": 1.0361728124999985,
          "durationTicks": 756,
          "midi": 56,
          "name": "G#3",
          "ticks": 6732,
          "time": 9.2268721875,
          "velocity": 0.5354330708661418
        },
        {
          "duration": 1.0306904166666655,
          "durationTicks": 752,
          "midi": 53,
          "name": "F3",
          "ticks": 6732,
          "time": 9.2268721875,
          "velocity": 0.4881889763779528
        },
        {
          "duration": 0.5756515625000009,
          "durationTicks": 420,
          "midi": 65,
          "name": "F4",
          "ticks": 7692,
          "time": 10.542647187499998,
          "velocity": 0.7007874015748031
        },
        {
          "duration": 0.6578875000000011,
          "durationTicks": 480,
          "midi": 58,
          "name": "A#3",
          "ticks": 7692,
          "time": 10.542647187499998,
          "velocity": 0.5590551181102362
        },
        {
          "duration": 0.5701691666666662,
          "durationTicks": 416,
          "midi": 54,
          "name": "F#3",
          "ticks": 7692,
          "time": 10.542647187499998,
          "velocity": 0.5590551181102362
        },
        {
          "duration": 0.5208276041666657,
          "durationTicks": 380,
          "midi": 61,
          "name": "C#4",
          "ticks": 7692,
          "time": 10.542647187499998,
          "velocity": 0.5354330708661418
        },
        {
          "duration": 1.1348559374999994,
          "durationTicks": 828,
          "midi": 63,
          "name": "D#4",
          "ticks": 8256,
          "time": 11.315665,
          "velocity": 0.5905511811023622
        },
        {
          "duration": 1.1458207291666653,
          "durationTicks": 836,
          "midi": 56,
          "name": "G#3",
          "ticks": 8256,
          "time": 11.315665,
          "velocity": 0.5590551181102362
        },
        {
          "duration": 1.173232708333332,
          "durationTicks": 856,
          "midi": 60,
          "name": "C4",
          "ticks": 8260,
          "time": 11.321147395833332,
          "velocity": 0.5354330708661418
        },
        {
          "duration": 1.173232708333332,
          "durationTicks": 856,
          "midi": 58,
          "name": "A#3",
          "ticks": 8260,
          "time": 11.321147395833332,
          "velocity": 0.5354330708661418
        },
        {
          "duration": 0.6907818750000008,
          "durationTicks": 504,
          "midi": 63,
          "name": "D#4",
          "ticks": 9208,
          "time": 12.620475208333332,
          "velocity": 0.5590551181102362
        },
        {
          "duration": 0.6030635416666676,
          "durationTicks": 440,
          "midi": 56,
          "name": "G#3",
          "ticks": 9212,
          "time": 12.625957604166665,
          "velocity": 0.5590551181102362
        },
        {
          "duration": 0.6359579166666673,
          "durationTicks": 464,
          "midi": 60,
          "name": "C4",
          "ticks": 9216,
          "time": 12.631439999999998,
          "velocity": 0.5590551181102362
        },
        {
          "duration": 1.0909967708333337,
          "durationTicks": 796,
          "midi": 61,
          "name": "C#4",
          "ticks": 9800,
          "time": 13.431869791666665,
          "velocity": 0.5590551181102362
        },
        {
          "duration": 1.0032784374999988,
          "durationTicks": 732,
          "midi": 56,
          "name": "G#3",
          "ticks": 9800,
          "time": 13.431869791666665,
          "velocity": 0.5905511811023622
        },
        {
          "duration": 1.0142432291666648,
          "durationTicks": 740,
          "midi": 53,
          "name": "F3",
          "ticks": 9808,
          "time": 13.442834583333333,
          "velocity": 0.5354330708661418
        },
        {
          "duration": 0.6578874999999993,
          "durationTicks": 480,
          "midi": 65,
          "name": "F4",
          "ticks": 10740,
          "time": 14.720232812499999,
          "velocity": 0.6614173228346457
        },
        {
          "duration": 0.7127114583333327,
          "durationTicks": 520,
          "midi": 58,
          "name": "A#3",
          "ticks": 10748,
          "time": 14.731197604166665,
          "velocity": 0.5590551181102362
        },
        {
          "duration": 0.6030635416666676,
          "durationTicks": 440,
          "midi": 61,
          "name": "C#4",
          "ticks": 10748,
          "time": 14.731197604166665,
          "velocity": 0.5354330708661418
        },
        {
          "duration": 0.6140283333333336,
          "durationTicks": 448,
          "midi": 54,
          "name": "F#3",
          "ticks": 10752,
          "time": 14.736679999999998,
          "velocity": 0.4881889763779528
        },
        {
          "duration": 1.1074439583333326,
          "durationTicks": 808,
          "midi": 63,
          "name": "D#4",
          "ticks": 11336,
          "time": 15.537109791666664,
          "velocity": 0.5590551181102362
        },
        {
          "duration": 1.1567855208333349,
          "durationTicks": 844,
          "midi": 58,
          "name": "A#3",
          "ticks": 11340,
          "time": 15.542592187499999,
          "velocity": 0.3779527559055118
        },
        {
          "duration": 1.1129263541666674,
          "durationTicks": 812,
          "midi": 56,
          "name": "G#3",
          "ticks": 11340,
          "time": 15.542592187499999,
          "velocity": 0.5590551181102362
        },
        {
          "duration": 1.1019615625000014,
          "durationTicks": 804,
          "midi": 60,
          "name": "C4",
          "ticks": 11348,
          "time": 15.553556979166665,
          "velocity": 0.47244094488188976
        },
        {
          "duration": 0.690781874999999,
          "durationTicks": 504,
          "midi": 63,
          "name": "D#4",
          "ticks": 12288,
          "time": 16.84192,
          "velocity": 0.5590551181102362
        },
        {
          "duration": 0.6304755208333326,
          "durationTicks": 460,
          "midi": 56,
          "name": "G#3",
          "ticks": 12288,
          "time": 16.84192,
          "velocity": 0.5590551181102362
        },
        {
          "duration": 0.635957916666662,
          "durationTicks": 464,
          "midi": 60,
          "name": "C4",
          "ticks": 12296,
          "time": 16.852884791666668,
          "velocity": 0.5590551181102362
        },
        {
          "duration": 1.1238911458333334,
          "durationTicks": 820,
          "midi": 61,
          "name": "C#4",
          "ticks": 12868,
          "time": 17.63686739583333,
          "velocity": 0.5905511811023622
        },
        {
          "duration": 1.0361728124999985,
          "durationTicks": 756,
          "midi": 53,
          "name": "F3",
          "ticks": 12872,
          "time": 17.642349791666668,
          "velocity": 0.5354330708661418
        },
        {
          "duration": 1.036172812500002,
          "durationTicks": 756,
          "midi": 56,
          "name": "G#3",
          "ticks": 12876,
          "time": 17.647832187499997,
          "velocity": 0.5590551181102362
        },
        {
          "duration": 0.6304755208333326,
          "durationTicks": 460,
          "midi": 65,
          "name": "F4",
          "ticks": 13824,
          "time": 18.947159999999997,
          "velocity": 0.6614173228346457
        },
        {
          "duration": 0.5975811458333347,
          "durationTicks": 436,
          "midi": 61,
          "name": "C#4",
          "ticks": 13828,
          "time": 18.95264239583333,
          "velocity": 0.4881889763779528
        },
        {
          "duration": 0.6578875000000011,
          "durationTicks": 480,
          "midi": 58,
          "name": "A#3",
          "ticks": 13832,
          "time": 18.958124791666666,
          "velocity": 0.5354330708661418
        },
        {
          "duration": 0.619510729166663,
          "durationTicks": 452,
          "midi": 54,
          "name": "F#3",
          "ticks": 13832,
          "time": 18.958124791666666,
          "velocity": 0.47244094488188976
        },
        {
          "duration": 0.8607361458333322,
          "durationTicks": 628,
          "midi": 63,
          "name": "D#4",
          "ticks": 14412,
          "time": 19.7530721875,
          "velocity": 0.5905511811023622
        },
        {
          "duration": 0.8113945833333389,
          "durationTicks": 592,
          "midi": 56,
          "name": "G#3",
          "ticks": 14416,
          "time": 19.75855458333333,
          "velocity": 0.4881889763779528
        },
        {
          "duration": 0.7894649999999999,
          "durationTicks": 576,
          "midi": 60,
          "name": "C4",
          "ticks": 14420,
          "time": 19.764036979166665,
          "velocity": 0.4881889763779528
        },
        {
          "duration": 0.7839826041666669,
          "durationTicks": 572,
          "midi": 58,
          "name": "A#3",
          "ticks": 14424,
          "time": 19.769519374999998,
          "velocity": 0.47244094488188976
        },
        {
          "duration": 0.47696843750000184,
          "durationTicks": 348,
          "midi": 63,
          "name": "D#4",
          "ticks": 15168,
          "time": 20.789244999999998,
          "velocity": 0.5905511811023622
        },
        {
          "duration": 0.47148604166666885,
          "durationTicks": 344,
          "midi": 60,
          "name": "C4",
          "ticks": 15168,
          "time": 20.789244999999998,
          "velocity": 0.5905511811023622
        },
        {
          "duration": 0.40569729166666946,
          "durationTicks": 296,
          "midi": 56,
          "name": "G#3",
          "ticks": 15168,
          "time": 20.789244999999998,
          "velocity": 0.5354330708661418
        },
        {
          "duration": 0.15350708333333074,
          "durationTicks": 112,
          "midi": 61,
          "name": "C#4",
          "ticks": 15548,
          "time": 21.310072604166667,
          "velocity": 0.5590551181102362
        },
        {
          "duration": 0.15350708333333074,
          "durationTicks": 112,
          "midi": 65,
          "name": "F4",
          "ticks": 15548,
          "time": 21.310072604166667,
          "velocity": 0.7007874015748031
        },
        {
          "duration": 0.11513031249999983,
          "durationTicks": 84,
          "midi": 56,
          "name": "G#3",
          "ticks": 15552,
          "time": 21.315554999999996,
          "velocity": 0.6614173228346457
        },
        {
          "duration": 1.3925285416666675,
          "durationTicks": 1016,
          "midi": 61,
          "name": "C#4",
          "ticks": 15744,
          "time": 21.578709999999997,
          "velocity": 0.4881889763779528
        },
        {
          "duration": 1.3596341666666696,
          "durationTicks": 992,
          "midi": 56,
          "name": "G#3",
          "ticks": 15744,
          "time": 21.578709999999997,
          "velocity": 0.5590551181102362
        },
        {
          "duration": 1.3760813541666685,
          "durationTicks": 1004,
          "midi": 65,
          "name": "F4",
          "ticks": 15744,
          "time": 21.578709999999997,
          "velocity": 0.5905511811023622
        },
        {
          "duration": 1.8969089583333343,
          "durationTicks": 1384,
          "midi": 61,
          "name": "C#4",
          "ticks": 16892,
          "time": 23.152157604166664,
          "velocity": 0.4881889763779528
        },
        {
          "duration": 1.9188385416666662,
          "durationTicks": 1400,
          "midi": 54,
          "name": "F#3",
          "ticks": 16892,
          "time": 23.152157604166664,
          "velocity": 0.5354330708661418
        },
        {
          "duration": 1.9901096875000022,
          "durationTicks": 1452,
          "midi": 58,
          "name": "A#3",
          "ticks": 16892,
          "time": 23.152157604166664,
          "velocity": 0.5354330708661418
        },
        {
          "duration": 1.9023913541666637,
          "durationTicks": 1388,
          "midi": 65,
          "name": "F4",
          "ticks": 16892,
          "time": 23.152157604166664,
          "velocity": 0.7401574803149606
        },
        {
          "duration": 1.9133561458333332,
          "durationTicks": 1396,
          "midi": 63,
          "name": "D#4",
          "ticks": 18412,
          "time": 25.23546802083333,
          "velocity": 0.5590551181102362
        },
        {
          "duration": 1.9298033333333358,
          "durationTicks": 1408,
          "midi": 58,
          "name": "A#3",
          "ticks": 18412,
          "time": 25.23546802083333,
          "velocity": 0.4015748031496063
        },
        {
          "duration": 1.9133561458333332,
          "durationTicks": 1396,
          "midi": 56,
          "name": "G#3",
          "ticks": 18416,
          "time": 25.240950416666664,
          "velocity": 0.4881889763779528
        },
        {
          "duration": 1.8694969791666622,
          "durationTicks": 1364,
          "midi": 60,
          "name": "C4",
          "ticks": 18428,
          "time": 25.257397604166666,
          "velocity": 0.47244094488188976
        },
        {
          "duration": 2.0284864583333366,
          "durationTicks": 1480,
          "midi": 54,
          "name": "F#3",
          "ticks": 19960,
          "time": 27.357155208333328,
          "velocity": 0.47244094488188976
        },
        {
          "duration": 2.0230040625,
          "durationTicks": 1476,
          "midi": 65,
          "name": "F4",
          "ticks": 19960,
          "time": 27.357155208333328,
          "velocity": 0.7007874015748031
        },
        {
          "duration": 2.0230040625,
          "durationTicks": 1476,
          "midi": 61,
          "name": "C#4",
          "ticks": 19964,
          "time": 27.362637604166665,
          "velocity": 0.5590551181102362
        },
        {
          "duration": 2.0175216666666635,
          "durationTicks": 1472,
          "midi": 58,
          "name": "A#3",
          "ticks": 19964,
          "time": 27.362637604166665,
          "velocity": 0.5590551181102362
        },
        {
          "duration": 1.9023913541666637,
          "durationTicks": 1388,
          "midi": 65,
          "name": "F4",
          "ticks": 23040,
          "time": 31.578599999999998,
          "velocity": 0.7007874015748031
        },
        {
          "duration": 2.033968854166666,
          "durationTicks": 1484,
          "midi": 58,
          "name": "A#3",
          "ticks": 23044,
          "time": 31.584082395833327,
          "velocity": 0.5590551181102362
        },
        {
          "duration": 1.8640145833333328,
          "durationTicks": 1360,
          "midi": 61,
          "name": "C#4",
          "ticks": 23048,
          "time": 31.589564791666664,
          "velocity": 0.5354330708661418
        },
        {
          "duration": 1.8969089583333307,
          "durationTicks": 1384,
          "midi": 54,
          "name": "F#3",
          "ticks": 23048,
          "time": 31.589564791666664,
          "velocity": 0.5590551181102362
        },
        {
          "duration": 1.8694969791666693,
          "durationTicks": 1364,
          "midi": 58,
          "name": "A#3",
          "ticks": 24584,
          "time": 33.69480479166666,
          "velocity": 0.33070866141732286
        },
        {
          "duration": 1.8530497916666633,
          "durationTicks": 1352,
          "midi": 60,
          "name": "C4",
          "ticks": 24588,
          "time": 33.700287187499995,
          "velocity": 0.5354330708661418
        },
        {
          "duration": 1.8530497916666633,
          "durationTicks": 1352,
          "midi": 56,
          "name": "G#3",
          "ticks": 24588,
          "time": 33.700287187499995,
          "velocity": 0.5354330708661418
        },
        {
          "duration": 1.8859441666666612,
          "durationTicks": 1376,
          "midi": 63,
          "name": "D#4",
          "ticks": 24592,
          "time": 33.705769583333336,
          "velocity": 0.5590551181102362
        },
        {
          "duration": 2.094275208333336,
          "durationTicks": 1528,
          "midi": 54,
          "name": "F#3",
          "ticks": 26112,
          "time": 35.78908,
          "velocity": 0.4566929133858268
        },
        {
          "duration": 2.094275208333336,
          "durationTicks": 1528,
          "midi": 65,
          "name": "F4",
          "ticks": 26112,
          "time": 35.78908,
          "velocity": 0.6141732283464567
        },
        {
          "duration": 2.088792812500003,
          "durationTicks": 1524,
          "midi": 61,
          "name": "C#4",
          "ticks": 26116,
          "time": 35.79456239583333,
          "velocity": 0.4881889763779528
        },
        {
          "duration": 2.083310416666663,
          "durationTicks": 1520,
          "midi": 58,
          "name": "A#3",
          "ticks": 26116,
          "time": 35.79456239583333,
          "velocity": 0.5590551181102362
        },
        {
          "duration": 0.652405104166661,
          "durationTicks": 476,
          "midi": 65,
          "name": "F4",
          "ticks": 35328,
          "time": 48.420519999999996,
          "velocity": 0.6141732283464567
        },
        {
          "duration": 0.6304755208333361,
          "durationTicks": 460,
          "midi": 54,
          "name": "F#3",
          "ticks": 35328,
          "time": 48.420519999999996,
          "velocity": 0.47244094488188976
        },
        {
          "duration": 0.7346410416666629,
          "durationTicks": 536,
          "midi": 58,
          "name": "A#3",
          "ticks": 35328,
          "time": 48.420519999999996,
          "velocity": 0.4881889763779528
        },
        {
          "duration": 0.6578875000000011,
          "durationTicks": 480,
          "midi": 61,
          "name": "C#4",
          "ticks": 35328,
          "time": 48.420519999999996,
          "velocity": 0.4881889763779528
        },
        {
          "duration": 1.1732327083333374,
          "durationTicks": 856,
          "midi": 58,
          "name": "A#3",
          "ticks": 35916,
          "time": 49.226432187499995,
          "velocity": 0.3779527559055118
        },
        {
          "duration": 1.1348559374999994,
          "durationTicks": 828,
          "midi": 56,
          "name": "G#3",
          "ticks": 35920,
          "time": 49.23191458333333,
          "velocity": 0.47244094488188976
        },
        {
          "duration": 1.1567855208333313,
          "durationTicks": 844,
          "midi": 63,
          "name": "D#4",
          "ticks": 35924,
          "time": 49.23739697916666,
          "velocity": 0.5905511811023622
        },
        {
          "duration": 1.1074439583333344,
          "durationTicks": 808,
          "midi": 60,
          "name": "C4",
          "ticks": 35924,
          "time": 49.23739697916666,
          "velocity": 0.4015748031496063
        },
        {
          "duration": 0.6743346875,
          "durationTicks": 492,
          "midi": 63,
          "name": "D#4",
          "ticks": 36876,
          "time": 50.5422071875,
          "velocity": 0.5354330708661418
        },
        {
          "duration": 0.6140283333333372,
          "durationTicks": 448,
          "midi": 56,
          "name": "G#3",
          "ticks": 36884,
          "time": 50.553171979166656,
          "velocity": 0.4881889763779528
        },
        {
          "duration": 0.6469227083333351,
          "durationTicks": 472,
          "midi": 60,
          "name": "C4",
          "ticks": 36884,
          "time": 50.553171979166656,
          "velocity": 0.5118110236220472
        },
        {
          "duration": 1.0800319791666624,
          "durationTicks": 788,
          "midi": 61,
          "name": "C#4",
          "ticks": 37440,
          "time": 51.315225,
          "velocity": 0.5590551181102362
        },
        {
          "duration": 1.0306904166666655,
          "durationTicks": 752,
          "midi": 56,
          "name": "G#3",
          "ticks": 37444,
          "time": 51.32070739583333,
          "velocity": 0.5354330708661418
        },
        {
          "duration": 0.9923136458333346,
          "durationTicks": 724,
          "midi": 53,
          "name": "F3",
          "ticks": 37448,
          "time": 51.32618979166666,
          "velocity": 0.4881889763779528
        },
        {
          "duration": 0.6030635416666641,
          "durationTicks": 440,
          "midi": 65,
          "name": "F4",
          "ticks": 38412,
          "time": 52.64744718749999,
          "velocity": 0.6614173228346457
        },
        {
          "duration": 0.6688522916666599,
          "durationTicks": 488,
          "midi": 58,
          "name": "A#3",
          "ticks": 38416,
          "time": 52.65292958333333,
          "velocity": 0.5354330708661418
        },
        {
          "duration": 0.6085459374999971,
          "durationTicks": 444,
          "midi": 54,
          "name": "F#3",
          "ticks": 38416,
          "time": 52.65292958333333,
          "velocity": 0.5354330708661418
        },
        {
          "duration": 0.5646867708333261,
          "durationTicks": 412,
          "midi": 61,
          "name": "C#4",
          "ticks": 38416,
          "time": 52.65292958333333,
          "velocity": 0.4881889763779528
        },
        {
          "duration": 1.1567855208333384,
          "durationTicks": 844,
          "midi": 63,
          "name": "D#4",
          "ticks": 38984,
          "time": 53.43142979166666,
          "velocity": 0.5905511811023622
        },
        {
          "duration": 1.0416552083333386,
          "durationTicks": 760,
          "midi": 56,
          "name": "G#3",
          "ticks": 38988,
          "time": 53.43691218749999,
          "velocity": 0.5354330708661418
        },
        {
          "duration": 1.0306904166666655,
          "durationTicks": 752,
          "midi": 60,
          "name": "C4",
          "ticks": 38988,
          "time": 53.43691218749999,
          "velocity": 0.5118110236220472
        },
        {
          "duration": 1.0526200000000046,
          "durationTicks": 768,
          "midi": 58,
          "name": "A#3",
          "ticks": 39000,
          "time": 53.45335937499999,
          "velocity": 0.4881889763779528
        },
        {
          "duration": 0.49341562500000435,
          "durationTicks": 360,
          "midi": 63,
          "name": "D#4",
          "ticks": 39928,
          "time": 54.72527520833333,
          "velocity": 0.5590551181102362
        },
        {
          "duration": 0.3892501041666776,
          "durationTicks": 284,
          "midi": 56,
          "name": "G#3",
          "ticks": 39932,
          "time": 54.730757604166655,
          "velocity": 0.5354330708661418
        },
        {
          "duration": 0.49889802083333734,
          "durationTicks": 364,
          "midi": 60,
          "name": "C4",
          "ticks": 39936,
          "time": 54.736239999999995,
          "velocity": 0.5354330708661418
        },
        {
          "duration": 1.2390214583333332,
          "durationTicks": 904,
          "midi": 56,
          "name": "G#3",
          "ticks": 40344,
          "time": 55.295444374999995,
          "velocity": 0.5354330708661418
        },
        {
          "duration": 1.2609510416666652,
          "durationTicks": 920,
          "midi": 65,
          "name": "F4",
          "ticks": 40344,
          "time": 55.295444374999995,
          "velocity": 0.5905511811023622
        },
        {
          "duration": 1.2664334374999981,
          "durationTicks": 924,
          "midi": 61,
          "name": "C#4",
          "ticks": 40344,
          "time": 55.295444374999995,
          "velocity": 0.4881889763779528
        },
        {
          "duration": 0.624993124999996,
          "durationTicks": 456,
          "midi": 54,
          "name": "F#3",
          "ticks": 41452,
          "time": 56.81406802083333,
          "velocity": 0.4881889763779528
        },
        {
          "duration": 0.624993124999996,
          "durationTicks": 456,
          "midi": 65,
          "name": "F4",
          "ticks": 41452,
          "time": 56.81406802083333,
          "velocity": 0.6614173228346457
        },
        {
          "duration": 0.7236762499999969,
          "durationTicks": 528,
          "midi": 58,
          "name": "A#3",
          "ticks": 41456,
          "time": 56.81955041666666,
          "velocity": 0.5590551181102362
        },
        {
          "duration": 0.5701691666666733,
          "durationTicks": 416,
          "midi": 61,
          "name": "C#4",
          "ticks": 41456,
          "time": 56.81955041666666,
          "velocity": 0.5590551181102362
        },
        {
          "duration": 1.1567855208333313,
          "durationTicks": 844,
          "midi": 58,
          "name": "A#3",
          "ticks": 42048,
          "time": 57.630945,
          "velocity": 0.3700787401574803
        },
        {
          "duration": 1.1019615625000014,
          "durationTicks": 804,
          "midi": 63,
          "name": "D#4",
          "ticks": 42052,
          "time": 57.63642739583333,
          "velocity": 0.5590551181102362
        },
        {
          "duration": 1.0909967708333355,
          "durationTicks": 796,
          "midi": 56,
          "name": "G#3",
          "ticks": 42056,
          "time": 57.641909791666656,
          "velocity": 0.4881889763779528
        },
        {
          "duration": 1.0142432291666594,
          "durationTicks": 740,
          "midi": 60,
          "name": "C4",
          "ticks": 42060,
          "time": 57.647392187499996,
          "velocity": 0.47244094488188976
        },
        {
          "duration": 0.668852291666667,
          "durationTicks": 488,
          "midi": 63,
          "name": "D#4",
          "ticks": 43004,
          "time": 58.94123760416666,
          "velocity": 0.4881889763779528
        },
        {
          "duration": 0.630475520833329,
          "durationTicks": 460,
          "midi": 56,
          "name": "G#3",
          "ticks": 43012,
          "time": 58.95220239583333,
          "velocity": 0.47244094488188976
        },
        {
          "duration": 0.646922708333328,
          "durationTicks": 472,
          "midi": 60,
          "name": "C4",
          "ticks": 43012,
          "time": 58.95220239583333,
          "velocity": 0.4881889763779528
        },
        {
          "duration": 1.0581023958333233,
          "durationTicks": 772,
          "midi": 61,
          "name": "C#4",
          "ticks": 43588,
          "time": 59.74166739583333,
          "velocity": 0.5905511811023622
        },
        {
          "duration": 0.9813488541666686,
          "durationTicks": 716,
          "midi": 56,
          "name": "G#3",
          "ticks": 43592,
          "time": 59.74714979166666,
          "velocity": 0.5590551181102362
        },
        {
          "duration": 0.9758664583333356,
          "durationTicks": 712,
          "midi": 53,
          "name": "F3",
          "ticks": 43592,
          "time": 59.74714979166666,
          "velocity": 0.47244094488188976
        },
        {
          "duration": 0.624993124999996,
          "durationTicks": 456,
          "midi": 65,
          "name": "F4",
          "ticks": 44552,
          "time": 61.06292479166666,
          "velocity": 0.6141732283464567
        },
        {
          "duration": 0.5975811458333382,
          "durationTicks": 436,
          "midi": 54,
          "name": "F#3",
          "ticks": 44556,
          "time": 61.06840718749999,
          "velocity": 0.47244094488188976
        },
        {
          "duration": 0.690781874999999,
          "durationTicks": 504,
          "midi": 58,
          "name": "A#3",
          "ticks": 44556,
          "time": 61.06840718749999,
          "velocity": 0.5354330708661418
        },
        {
          "duration": 0.6030635416666641,
          "durationTicks": 440,
          "midi": 61,
          "name": "C#4",
          "ticks": 44560,
          "time": 61.073889583333326,
          "velocity": 0.4881889763779528
        },
        {
          "duration": 1.0855143749999954,
          "durationTicks": 792,
          "midi": 63,
          "name": "D#4",
          "ticks": 45128,
          "time": 61.85238979166666,
          "velocity": 0.5354330708661418
        },
        {
          "duration": 1.0635847916666634,
          "durationTicks": 776,
          "midi": 58,
          "name": "A#3",
          "ticks": 45132,
          "time": 61.85787218749999,
          "velocity": 0.47244094488188976
        },
        {
          "duration": 1.0142432291666665,
          "durationTicks": 740,
          "midi": 60,
          "name": "C4",
          "ticks": 45136,
          "time": 61.863354583333326,
          "velocity": 0.4251968503937008
        },
        {
          "duration": 0.9813488541666686,
          "durationTicks": 716,
          "midi": 56,
          "name": "G#3",
          "ticks": 45144,
          "time": 61.87431937499999,
          "velocity": 0.4566929133858268
        },
        {
          "duration": 0.36183812500000556,
          "durationTicks": 264,
          "midi": 56,
          "name": "G#3",
          "ticks": 46068,
          "time": 63.14075281249999,
          "velocity": 0.4881889763779528
        },
        {
          "duration": 0.45503885416666634,
          "durationTicks": 332,
          "midi": 63,
          "name": "D#4",
          "ticks": 46068,
          "time": 63.14075281249999,
          "velocity": 0.5354330708661418
        },
        {
          "duration": 0.44955645833332625,
          "durationTicks": 328,
          "midi": 60,
          "name": "C4",
          "ticks": 46072,
          "time": 63.14623520833333,
          "velocity": 0.5590551181102362
        },
        {
          "duration": 1.4473524999999938,
          "durationTicks": 1056,
          "midi": 56,
          "name": "G#3",
          "ticks": 46460,
          "time": 63.67802760416666,
          "velocity": 0.5354330708661418
        },
        {
          "duration": 1.458317291666667,
          "durationTicks": 1064,
          "midi": 65,
          "name": "F4",
          "ticks": 46464,
          "time": 63.68350999999999,
          "velocity": 0.5905511811023622
        },
        {
          "duration": 1.4363877083333207,
          "durationTicks": 1048,
          "midi": 61,
          "name": "C#4",
          "ticks": 46468,
          "time": 63.68899239583333,
          "velocity": 0.5354330708661418
        },
        {
          "duration": 1.8694969791666551,
          "durationTicks": 1364,
          "midi": 65,
          "name": "F4",
          "ticks": 47616,
          "time": 65.26244,
          "velocity": 0.7007874015748031
        },
        {
          "duration": 1.8804617708333353,
          "durationTicks": 1372,
          "midi": 54,
          "name": "F#3",
          "ticks": 47616,
          "time": 65.26244,
          "velocity": 0.4881889763779528
        },
        {
          "duration": 1.8420849999999973,
          "durationTicks": 1344,
          "midi": 61,
          "name": "C#4",
          "ticks": 47616,
          "time": 65.26244,
          "velocity": 0.4881889763779528
        },
        {
          "duration": 1.9078737499999932,
          "durationTicks": 1392,
          "midi": 58,
          "name": "A#3",
          "ticks": 47616,
          "time": 65.26244,
          "velocity": 0.4881889763779528
        },
        {
          "duration": 1.8969089583333272,
          "durationTicks": 1384,
          "midi": 63,
          "name": "D#4",
          "ticks": 49132,
          "time": 67.34026802083334,
          "velocity": 0.5354330708661418
        },
        {
          "duration": 1.8859441666666612,
          "durationTicks": 1376,
          "midi": 58,
          "name": "A#3",
          "ticks": 49144,
          "time": 67.35671520833333,
          "velocity": 0.4015748031496063
        },
        {
          "duration": 1.8640145833333435,
          "durationTicks": 1360,
          "midi": 56,
          "name": "G#3",
          "ticks": 49148,
          "time": 67.36219760416665,
          "velocity": 0.4566929133858268
        },
        {
          "duration": 1.8694969791666693,
          "durationTicks": 1364,
          "midi": 60,
          "name": "C4",
          "ticks": 49148,
          "time": 67.36219760416665,
          "velocity": 0.47244094488188976
        },
        {
          "duration": 1.979144895833329,
          "durationTicks": 1444,
          "midi": 65,
          "name": "F4",
          "ticks": 50684,
          "time": 69.46743760416666,
          "velocity": 0.7007874015748031
        },
        {
          "duration": 1.9846272916666834,
          "durationTicks": 1448,
          "midi": 61,
          "name": "C#4",
          "ticks": 50688,
          "time": 69.47291999999999,
          "velocity": 0.4881889763779528
        },
        {
          "duration": 1.9736625000000032,
          "durationTicks": 1440,
          "midi": 58,
          "name": "A#3",
          "ticks": 50688,
          "time": 69.47291999999999,
          "velocity": 0.47244094488188976
        },
        {
          "duration": 1.9846272916666834,
          "durationTicks": 1448,
          "midi": 54,
          "name": "F#3",
          "ticks": 50688,
          "time": 69.47291999999999,
          "velocity": 0.4251968503937008
        },
        {
          "duration": 1.8256378124999912,
          "durationTicks": 1332,
          "midi": 65,
          "name": "F4",
          "ticks": 53772,
          "time": 73.6998471875,
          "velocity": 0.6141732283464567
        },
        {
          "duration": 1.8201554166666654,
          "durationTicks": 1328,
          "midi": 54,
          "name": "F#3",
          "ticks": 53776,
          "time": 73.70532958333332,
          "velocity": 0.4251968503937008
        },
        {
          "duration": 1.8530497916666633,
          "durationTicks": 1352,
          "midi": 58,
          "name": "A#3",
          "ticks": 53776,
          "time": 73.70532958333332,
          "velocity": 0.4881889763779528
        },
        {
          "duration": 1.8201554166666511,
          "durationTicks": 1328,
          "midi": 61,
          "name": "C#4",
          "ticks": 53780,
          "time": 73.71081197916666,
          "velocity": 0.47244094488188976
        },
        {
          "duration": 1.8859441666666754,
          "durationTicks": 1376,
          "midi": 63,
          "name": "D#4",
          "ticks": 55288,
          "time": 75.77767520833332,
          "velocity": 0.5590551181102362
        },
        {
          "duration": 1.8694969791666836,
          "durationTicks": 1364,
          "midi": 56,
          "name": "G#3",
          "ticks": 55296,
          "time": 75.78863999999999,
          "velocity": 0.4251968503937008
        },
        {
          "duration": 1.8420849999999973,
          "durationTicks": 1344,
          "midi": 60,
          "name": "C4",
          "ticks": 55304,
          "time": 75.79960479166667,
          "velocity": 0.4881889763779528
        },
        {
          "duration": 1.8749793749999952,
          "durationTicks": 1368,
          "midi": 58,
          "name": "A#3",
          "ticks": 55304,
          "time": 75.79960479166667,
          "velocity": 0.47244094488188976
        },
        {
          "duration": 1.8694969791666693,
          "durationTicks": 1364,
          "midi": 65,
          "name": "F4",
          "ticks": 56832,
          "time": 77.89388,
          "velocity": 0.6614173228346457
        },
        {
          "duration": 1.8530497916666633,
          "durationTicks": 1352,
          "midi": 54,
          "name": "F#3",
          "ticks": 56832,
          "time": 77.89388,
          "velocity": 0.4881889763779528
        },
        {
          "duration": 1.8530497916666633,
          "durationTicks": 1352,
          "midi": 58,
          "name": "A#3",
          "ticks": 56832,
          "time": 77.89388,
          "velocity": 0.5590551181102362
        },
        {
          "duration": 1.8585321875000034,
          "durationTicks": 1356,
          "midi": 61,
          "name": "C#4",
          "ticks": 56840,
          "time": 77.90484479166666,
          "velocity": 0.4881889763779528
        },
        {
          "duration": 0.6085459374999971,
          "durationTicks": 444,
          "midi": 65,
          "name": "F4",
          "ticks": 66048,
          "time": 90.52532,
          "velocity": 0.6141732283464567
        },
        {
          "duration": 0.6085459374999971,
          "durationTicks": 444,
          "midi": 54,
          "name": "F#3",
          "ticks": 66048,
          "time": 90.52532,
          "velocity": 0.4566929133858268
        },
        {
          "duration": 0.641440312499995,
          "durationTicks": 468,
          "midi": 58,
          "name": "A#3",
          "ticks": 66048,
          "time": 90.52532,
          "velocity": 0.4881889763779528
        },
        {
          "duration": 0.5866163541666651,
          "durationTicks": 428,
          "midi": 61,
          "name": "C#4",
          "ticks": 66048,
          "time": 90.52532,
          "velocity": 0.4881889763779528
        },
        {
          "duration": 1.1567855208333384,
          "durationTicks": 844,
          "midi": 63,
          "name": "D#4",
          "ticks": 66616,
          "time": 91.30382020833332,
          "velocity": 0.5354330708661418
        },
        {
          "duration": 1.1732327083333303,
          "durationTicks": 856,
          "midi": 58,
          "name": "A#3",
          "ticks": 66624,
          "time": 91.31478499999999,
          "velocity": 0.41732283464566927
        },
        {
          "duration": 1.1293735416666806,
          "durationTicks": 824,
          "midi": 56,
          "name": "G#3",
          "ticks": 66624,
          "time": 91.31478499999999,
          "velocity": 0.4566929133858268
        },
        {
          "duration": 1.1074439583333486,
          "durationTicks": 808,
          "midi": 60,
          "name": "C4",
          "ticks": 66640,
          "time": 91.33671458333332,
          "velocity": 0.41732283464566927
        },
        {
          "duration": 0.6140283333333514,
          "durationTicks": 448,
          "midi": 63,
          "name": "D#4",
          "ticks": 67588,
          "time": 92.63604239583331,
          "velocity": 0.5590551181102362
        },
        {
          "duration": 0.5701691666666733,
          "durationTicks": 416,
          "midi": 56,
          "name": "G#3",
          "ticks": 67596,
          "time": 92.6470071875,
          "velocity": 0.47244094488188976
        },
        {
          "duration": 0.5975811458333311,
          "durationTicks": 436,
          "midi": 60,
          "name": "C4",
          "ticks": 67604,
          "time": 92.65797197916666,
          "velocity": 0.5354330708661418
        },
        {
          "duration": 1.1567855208333242,
          "durationTicks": 844,
          "midi": 61,
          "name": "C#4",
          "ticks": 68144,
          "time": 93.39809541666666,
          "velocity": 0.5590551181102362
        },
        {
          "duration": 1.0526200000000046,
          "durationTicks": 768,
          "midi": 56,
          "name": "G#3",
          "ticks": 68152,
          "time": 93.40906020833332,
          "velocity": 0.4881889763779528
        },
        {
          "duration": 1.0855143750000025,
          "durationTicks": 792,
          "midi": 53,
          "name": "F3",
          "ticks": 68152,
          "time": 93.40906020833332,
          "velocity": 0.47244094488188976
        },
        {
          "duration": 0.5701691666666591,
          "durationTicks": 416,
          "midi": 65,
          "name": "F4",
          "ticks": 69144,
          "time": 94.768694375,
          "velocity": 0.6614173228346457
        },
        {
          "duration": 0.641440312499995,
          "durationTicks": 468,
          "midi": 58,
          "name": "A#3",
          "ticks": 69148,
          "time": 94.77417677083332,
          "velocity": 0.5354330708661418
        },
        {
          "duration": 0.5592043749999931,
          "durationTicks": 408,
          "midi": 54,
          "name": "F#3",
          "ticks": 69148,
          "time": 94.77417677083332,
          "velocity": 0.4881889763779528
        },
        {
          "duration": 0.5646867708333332,
          "durationTicks": 412,
          "midi": 61,
          "name": "C#4",
          "ticks": 69152,
          "time": 94.77965916666666,
          "velocity": 0.5354330708661418
        },
        {
          "duration": 1.0032784375000006,
          "durationTicks": 732,
          "midi": 58,
          "name": "A#3",
          "ticks": 69684,
          "time": 95.50881781249998,
          "velocity": 0.41732283464566927
        },
        {
          "duration": 1.1238911458333405,
          "durationTicks": 820,
          "midi": 63,
          "name": "D#4",
          "ticks": 69688,
          "time": 95.51430020833332,
          "velocity": 0.5590551181102362
        },
        {
          "duration": 1.0855143749999883,
          "durationTicks": 792,
          "midi": 56,
          "name": "G#3",
          "ticks": 69688,
          "time": 95.51430020833332,
          "velocity": 0.5354330708661418
        },
        {
          "duration": 0.9758664583333285,
          "durationTicks": 712,
          "midi": 60,
          "name": "C4",
          "ticks": 69696,
          "time": 95.52526499999999,
          "velocity": 0.4881889763779528
        },
        {
          "duration": 0.49341562499999725,
          "durationTicks": 360,
          "midi": 63,
          "name": "D#4",
          "ticks": 70644,
          "time": 96.82459281249999,
          "velocity": 0.4881889763779528
        },
        {
          "duration": 0.40021489583332936,
          "durationTicks": 292,
          "midi": 56,
          "name": "G#3",
          "ticks": 70644,
          "time": 96.82459281249999,
          "velocity": 0.5354330708661418
        },
        {
          "duration": 0.4714860416666511,
          "durationTicks": 344,
          "midi": 60,
          "name": "C4",
          "ticks": 70652,
          "time": 96.83555760416667,
          "velocity": 0.5354330708661418
        },
        {
          "duration": 1.2499862500000063,
          "durationTicks": 912,
          "midi": 56,
          "name": "G#3",
          "ticks": 71044,
          "time": 97.37283239583331,
          "velocity": 0.5590551181102362
        },
        {
          "duration": 1.27739822916665,
          "durationTicks": 932,
          "midi": 61,
          "name": "C#4",
          "ticks": 71048,
          "time": 97.37831479166667,
          "velocity": 0.5354330708661418
        },
        {
          "duration": 1.255468645833318,
          "durationTicks": 916,
          "midi": 65,
          "name": "F4",
          "ticks": 71048,
          "time": 97.37831479166667,
          "velocity": 0.6614173228346457
        },
        {
          "duration": 0.5975811458333311,
          "durationTicks": 436,
          "midi": 65,
          "name": "F4",
          "ticks": 72168,
          "time": 98.91338562499999,
          "velocity": 0.6614173228346457
        },
        {
          "duration": 0.7017466666666792,
          "durationTicks": 512,
          "midi": 58,
          "name": "A#3",
          "ticks": 72172,
          "time": 98.91886802083332,
          "velocity": 0.5590551181102362
        },
        {
          "duration": 0.5920987500000052,
          "durationTicks": 432,
          "midi": 54,
          "name": "F#3",
          "ticks": 72176,
          "time": 98.92435041666666,
          "velocity": 0.4881889763779528
        },
        {
          "duration": 0.5482395833333271,
          "durationTicks": 400,
          "midi": 61,
          "name": "C#4",
          "ticks": 72176,
          "time": 98.92435041666666,
          "velocity": 0.5354330708661418
        },
        {
          "duration": 1.1129263541666745,
          "durationTicks": 812,
          "midi": 63,
          "name": "D#4",
          "ticks": 72760,
          "time": 99.72478020833331,
          "velocity": 0.5590551181102362
        },
        {
          "duration": 1.1458207291666724,
          "durationTicks": 836,
          "midi": 58,
          "name": "A#3",
          "ticks": 72760,
          "time": 99.72478020833331,
          "velocity": 0.3779527559055118
        },
        {
          "duration": 1.1184087500000004,
          "durationTicks": 816,
          "midi": 56,
          "name": "G#3",
          "ticks": 72764,
          "time": 99.73026260416665,
          "velocity": 0.4881889763779528
        },
        {
          "duration": 1.1019615625000085,
          "durationTicks": 804,
          "midi": 60,
          "name": "C4",
          "ticks": 72764,
          "time": 99.73026260416665,
          "velocity": 0.5118110236220472
        },
        {
          "duration": 0.7072290624999908,
          "durationTicks": 516,
          "midi": 63,
          "name": "D#4",
          "ticks": 73712,
          "time": 101.02959041666666,
          "velocity": 0.4881889763779528
        },
        {
          "duration": 0.6633698958333412,
          "durationTicks": 484,
          "midi": 60,
          "name": "C4",
          "ticks": 73720,
          "time": 101.04055520833332,
          "velocity": 0.5118110236220472
        },
        {
          "duration": 0.6524051041666752,
          "durationTicks": 476,
          "midi": 56,
          "name": "G#3",
          "ticks": 73720,
          "time": 101.04055520833332,
          "velocity": 0.47244094488188976
        },
        {
          "duration": 1.1074439583333344,
          "durationTicks": 808,
          "midi": 61,
          "name": "C#4",
          "ticks": 74304,
          "time": 101.84098499999999,
          "velocity": 0.5905511811023622
        },
        {
          "duration": 1.0087608333333264,
          "durationTicks": 736,
          "midi": 56,
          "name": "G#3",
          "ticks": 74304,
          "time": 101.84098499999999,
          "velocity": 0.5354330708661418
        },
        {
          "duration": 1.0252080208333325,
          "durationTicks": 748,
          "midi": 53,
          "name": "F3",
          "ticks": 74312,
          "time": 101.85194979166666,
          "velocity": 0.5118110236220472
        },
        {
          "duration": 0.6140283333333372,
          "durationTicks": 448,
          "midi": 65,
          "name": "F4",
          "ticks": 75272,
          "time": 103.16772479166666,
          "velocity": 0.6141732283464567
        },
        {
          "duration": 0.6469227083333351,
          "durationTicks": 472,
          "midi": 61,
          "name": "C#4",
          "ticks": 75272,
          "time": 103.16772479166666,
          "velocity": 0.4881889763779528
        },
        {
          "duration": 0.6085459374999971,
          "durationTicks": 444,
          "midi": 54,
          "name": "F#3",
          "ticks": 75272,
          "time": 103.16772479166666,
          "velocity": 0.4881889763779528
        },
        {
          "duration": 0.6743346875000071,
          "durationTicks": 492,
          "midi": 58,
          "name": "A#3",
          "ticks": 75272,
          "time": 103.16772479166666,
          "velocity": 0.4881889763779528
        },
        {
          "duration": 1.1184087500000004,
          "durationTicks": 816,
          "midi": 63,
          "name": "D#4",
          "ticks": 75852,
          "time": 103.96267218749999,
          "velocity": 0.5590551181102362
        },
        {
          "duration": 1.0306904166666726,
          "durationTicks": 752,
          "midi": 60,
          "name": "C4",
          "ticks": 75852,
          "time": 103.96267218749999,
          "velocity": 0.5354330708661418
        },
        {
          "duration": 1.0581023958333304,
          "durationTicks": 772,
          "midi": 56,
          "name": "G#3",
          "ticks": 75852,
          "time": 103.96267218749999,
          "velocity": 0.5354330708661418
        },
        {
          "duration": 1.0197256250000066,
          "durationTicks": 744,
          "midi": 58,
          "name": "A#3",
          "ticks": 75864,
          "time": 103.97911937499998,
          "velocity": 0.4566929133858268
        },
        {
          "duration": 0.4714860416666511,
          "durationTicks": 344,
          "midi": 63,
          "name": "D#4",
          "ticks": 76796,
          "time": 105.25651760416666,
          "velocity": 0.5354330708661418
        },
        {
          "duration": 0.3837677083333375,
          "durationTicks": 280,
          "midi": 56,
          "name": "G#3",
          "ticks": 76800,
          "time": 105.26199999999999,
          "velocity": 0.5590551181102362
        },
        {
          "duration": 0.4605212499999993,
          "durationTicks": 336,
          "midi": 60,
          "name": "C4",
          "ticks": 76800,
          "time": 105.26199999999999,
          "velocity": 0.5590551181102362
        },
        {
          "duration": 1.293845416666656,
          "durationTicks": 944,
          "midi": 56,
          "name": "G#3",
          "ticks": 77192,
          "time": 105.79927479166666,
          "velocity": 0.5354330708661418
        },
        {
          "duration": 1.28836302083333,
          "durationTicks": 940,
          "midi": 65,
          "name": "F4",
          "ticks": 77196,
          "time": 105.80475718749999,
          "velocity": 0.6614173228346457
        },
        {
          "duration": 1.2664334374999981,
          "durationTicks": 924,
          "midi": 61,
          "name": "C#4",
          "ticks": 77200,
          "time": 105.81023958333331,
          "velocity": 0.5590551181102362
        },
        {
          "duration": 0.6249931249999889,
          "durationTicks": 456,
          "midi": 65,
          "name": "F4",
          "ticks": 78356,
          "time": 107.39465197916667,
          "velocity": 0.6614173228346457
        },
        {
          "duration": 0.6195107291666488,
          "durationTicks": 452,
          "midi": 54,
          "name": "F#3",
          "ticks": 78356,
          "time": 107.39465197916667,
          "velocity": 0.4881889763779528
        },
        {
          "duration": 0.5756515624999992,
          "durationTicks": 420,
          "midi": 61,
          "name": "C#4",
          "ticks": 78356,
          "time": 107.39465197916667,
          "velocity": 0.4881889763779528
        },
        {
          "duration": 0.6962642708333249,
          "durationTicks": 508,
          "midi": 58,
          "name": "A#3",
          "ticks": 78356,
          "time": 107.39465197916667,
          "velocity": 0.5905511811023622
        },
        {
          "duration": 1.0471376041666502,
          "durationTicks": 764,
          "midi": 63,
          "name": "D#4",
          "ticks": 78932,
          "time": 108.18411697916666,
          "velocity": 0.5354330708661418
        },
        {
          "duration": 1.1348559375000065,
          "durationTicks": 828,
          "midi": 58,
          "name": "A#3",
          "ticks": 78936,
          "time": 108.18959937499999,
          "velocity": 0.3700787401574803
        },
        {
          "duration": 1.0909967708333284,
          "durationTicks": 796,
          "midi": 60,
          "name": "C4",
          "ticks": 78936,
          "time": 108.18959937499999,
          "velocity": 0.4881889763779528
        },
        {
          "duration": 1.0800319791666766,
          "durationTicks": 788,
          "midi": 56,
          "name": "G#3",
          "ticks": 78940,
          "time": 108.19508177083331,
          "velocity": 0.47244094488188976
        },
        {
          "duration": 0.7017466666666508,
          "durationTicks": 512,
          "midi": 63,
          "name": "D#4",
          "ticks": 79844,
          "time": 109.43410322916667,
          "velocity": 0.5590551181102362
        },
        {
          "duration": 0.6633698958333412,
          "durationTicks": 484,
          "midi": 60,
          "name": "C4",
          "ticks": 79852,
          "time": 109.44506802083332,
          "velocity": 0.5118110236220472
        },
        {
          "duration": 0.6469227083333351,
          "durationTicks": 472,
          "midi": 56,
          "name": "G#3",
          "ticks": 79852,
          "time": 109.44506802083332,
          "velocity": 0.5354330708661418
        },
        {
          "duration": 1.1293735416666664,
          "durationTicks": 824,
          "midi": 61,
          "name": "C#4",
          "ticks": 80440,
          "time": 110.25098020833332,
          "velocity": 0.5590551181102362
        },
        {
          "duration": 1.0690671874999964,
          "durationTicks": 780,
          "midi": 53,
          "name": "F3",
          "ticks": 80444,
          "time": 110.25646260416666,
          "velocity": 0.5118110236220472
        },
        {
          "duration": 1.0361728124999985,
          "durationTicks": 756,
          "midi": 56,
          "name": "G#3",
          "ticks": 80444,
          "time": 110.25646260416666,
          "velocity": 0.5354330708661418
        },
        {
          "duration": 0.6195107291666773,
          "durationTicks": 452,
          "midi": 65,
          "name": "F4",
          "ticks": 81408,
          "time": 111.57771999999999,
          "velocity": 0.6614173228346457
        },
        {
          "duration": 0.6195107291666488,
          "durationTicks": 452,
          "midi": 54,
          "name": "F#3",
          "ticks": 81416,
          "time": 111.58868479166667,
          "velocity": 0.4881889763779528
        },
        {
          "duration": 0.630475520833329,
          "durationTicks": 460,
          "midi": 61,
          "name": "C#4",
          "ticks": 81416,
          "time": 111.58868479166667,
          "velocity": 0.4881889763779528
        },
        {
          "duration": 0.6798170833333188,
          "durationTicks": 496,
          "midi": 58,
          "name": "A#3",
          "ticks": 81420,
          "time": 111.59416718749999,
          "velocity": 0.5590551181102362
        },
        {
          "duration": 1.0635847916666705,
          "durationTicks": 776,
          "midi": 58,
          "name": "A#3",
          "ticks": 81984,
          "time": 112.36718499999999,
          "velocity": 0.3779527559055118
        },
        {
          "duration": 1.0690671874999964,
          "durationTicks": 780,
          "midi": 56,
          "name": "G#3",
          "ticks": 81984,
          "time": 112.36718499999999,
          "velocity": 0.5354330708661418
        },
        {
          "duration": 1.0252080208333183,
          "durationTicks": 748,
          "midi": 60,
          "name": "C4",
          "ticks": 81984,
          "time": 112.36718499999999,
          "velocity": 0.5118110236220472
        },
        {
          "duration": 1.1403383333333181,
          "durationTicks": 832,
          "midi": 63,
          "name": "D#4",
          "ticks": 81984,
          "time": 112.36718499999999,
          "velocity": 0.5590551181102362
        },
        {
          "duration": 0.4714860416666653,
          "durationTicks": 344,
          "midi": 63,
          "name": "D#4",
          "ticks": 82944,
          "time": 113.68296,
          "velocity": 0.5354330708661418
        },
        {
          "duration": 0.40569729166666946,
          "durationTicks": 296,
          "midi": 56,
          "name": "G#3",
          "ticks": 82944,
          "time": 113.68296,
          "velocity": 0.4881889763779528
        },
        {
          "duration": 0.44955645833333335,
          "durationTicks": 328,
          "midi": 60,
          "name": "C4",
          "ticks": 82952,
          "time": 113.69392479166666,
          "velocity": 0.5118110236220472
        },
        {
          "duration": 1.2116094791666825,
          "durationTicks": 884,
          "midi": 56,
          "name": "G#3",
          "ticks": 83340,
          "time": 114.22571718749998,
          "velocity": 0.5354330708661418
        },
        {
          "duration": 1.2116094791666683,
          "durationTicks": 884,
          "midi": 61,
          "name": "C#4",
          "ticks": 83344,
          "time": 114.23119958333332,
          "velocity": 0.4881889763779528
        },
        {
          "duration": 1.2170918749999942,
          "durationTicks": 888,
          "midi": 65,
          "name": "F4",
          "ticks": 83344,
          "time": 114.23119958333332,
          "velocity": 0.5905511811023622
        },
        {
          "duration": 0.630475520833329,
          "durationTicks": 460,
          "midi": 65,
          "name": "F4",
          "ticks": 84452,
          "time": 115.74982322916667,
          "velocity": 0.5905511811023622
        },
        {
          "duration": 0.614028333333323,
          "durationTicks": 448,
          "midi": 61,
          "name": "C#4",
          "ticks": 84452,
          "time": 115.74982322916667,
          "velocity": 0.5354330708661418
        },
        {
          "duration": 0.630475520833329,
          "durationTicks": 460,
          "midi": 54,
          "name": "F#3",
          "ticks": 84452,
          "time": 115.74982322916667,
          "velocity": 0.4881889763779528
        },
        {
          "duration": 0.7346410416666487,
          "durationTicks": 536,
          "midi": 58,
          "name": "A#3",
          "ticks": 84452,
          "time": 115.74982322916667,
          "velocity": 0.5905511811023622
        },
        {
          "duration": 1.0909967708333426,
          "durationTicks": 796,
          "midi": 63,
          "name": "D#4",
          "ticks": 85048,
          "time": 116.56670020833332,
          "velocity": 0.5590551181102362
        },
        {
          "duration": 1.0745495833333365,
          "durationTicks": 784,
          "midi": 56,
          "name": "G#3",
          "ticks": 85048,
          "time": 116.56670020833332,
          "velocity": 0.4881889763779528
        },
        {
          "duration": 1.1238911458333405,
          "durationTicks": 820,
          "midi": 58,
          "name": "A#3",
          "ticks": 85048,
          "time": 116.56670020833332,
          "velocity": 0.4251968503937008
        },
        {
          "duration": 1.0361728124999985,
          "durationTicks": 756,
          "midi": 60,
          "name": "C4",
          "ticks": 85060,
          "time": 116.58314739583332,
          "velocity": 0.4566929133858268
        },
        {
          "duration": 0.6852994791666731,
          "durationTicks": 500,
          "midi": 63,
          "name": "D#4",
          "ticks": 86008,
          "time": 117.88247520833332,
          "velocity": 0.5354330708661418
        },
        {
          "duration": 0.630475520833329,
          "durationTicks": 460,
          "midi": 56,
          "name": "G#3",
          "ticks": 86012,
          "time": 117.88795760416666,
          "velocity": 0.5590551181102362
        },
        {
          "duration": 0.6469227083333351,
          "durationTicks": 472,
          "midi": 60,
          "name": "C4",
          "ticks": 86016,
          "time": 117.89343999999998,
          "velocity": 0.5590551181102362
        },
        {
          "duration": 1.0855143750000025,
          "durationTicks": 792,
          "midi": 61,
          "name": "C#4",
          "ticks": 86592,
          "time": 118.68290499999999,
          "velocity": 0.5354330708661418
        },
        {
          "duration": 0.9923136458333488,
          "durationTicks": 724,
          "midi": 56,
          "name": "G#3",
          "ticks": 86596,
          "time": 118.68838739583332,
          "velocity": 0.5590551181102362
        },
        {
          "duration": 1.0142432291666523,
          "durationTicks": 740,
          "midi": 53,
          "name": "F3",
          "ticks": 86600,
          "time": 118.69386979166666,
          "velocity": 0.5118110236220472
        },
        {
          "duration": 0.5701691666666591,
          "durationTicks": 416,
          "midi": 65,
          "name": "F4",
          "ticks": 87560,
          "time": 120.00964479166666,
          "velocity": 0.6614173228346457
        },
        {
          "duration": 0.6085459374999971,
          "durationTicks": 444,
          "midi": 61,
          "name": "C#4",
          "ticks": 87560,
          "time": 120.00964479166666,
          "velocity": 0.47244094488188976
        },
        {
          "duration": 0.679817083333333,
          "durationTicks": 496,
          "midi": 58,
          "name": "A#3",
          "ticks": 87560,
          "time": 120.00964479166666,
          "velocity": 0.5590551181102362
        },
        {
          "duration": 0.5866163541666509,
          "durationTicks": 428,
          "midi": 54,
          "name": "F#3",
          "ticks": 87560,
          "time": 120.00964479166666,
          "velocity": 0.5354330708661418
        },
        {
          "duration": 1.0909967708333284,
          "durationTicks": 796,
          "midi": 58,
          "name": "A#3",
          "ticks": 88116,
          "time": 120.7716978125,
          "velocity": 0.4015748031496063
        },
        {
          "duration": 1.1458207291666724,
          "durationTicks": 836,
          "midi": 63,
          "name": "D#4",
          "ticks": 88120,
          "time": 120.77718020833332,
          "velocity": 0.5590551181102362
        },
        {
          "duration": 1.1458207291666582,
          "durationTicks": 836,
          "midi": 56,
          "name": "G#3",
          "ticks": 88124,
          "time": 120.78266260416666,
          "velocity": 0.5354330708661418
        },
        {
          "duration": 1.0471376041666787,
          "durationTicks": 764,
          "midi": 60,
          "name": "C4",
          "ticks": 88132,
          "time": 120.79362739583331,
          "velocity": 0.47244094488188976
        },
        {
          "duration": 0.4276268750000014,
          "durationTicks": 312,
          "midi": 63,
          "name": "D#4",
          "ticks": 89088,
          "time": 122.10391999999999,
          "velocity": 0.5354330708661418
        },
        {
          "duration": 0.36183812500000556,
          "durationTicks": 264,
          "midi": 56,
          "name": "G#3",
          "ticks": 89088,
          "time": 122.10391999999999,
          "velocity": 0.5590551181102362
        },
        {
          "duration": 0.4276268750000014,
          "durationTicks": 312,
          "midi": 60,
          "name": "C4",
          "ticks": 89096,
          "time": 122.11488479166665,
          "velocity": 0.5590551181102362
        },
        {
          "duration": 1.1238911458333263,
          "durationTicks": 820,
          "midi": 56,
          "name": "G#3",
          "ticks": 89484,
          "time": 122.64667718749999,
          "velocity": 0.5354330708661418
        },
        {
          "duration": 1.1184087500000004,
          "durationTicks": 816,
          "midi": 65,
          "name": "F4",
          "ticks": 89488,
          "time": 122.65215958333332,
          "velocity": 0.6614173228346457
        },
        {
          "duration": 1.0964791666666684,
          "durationTicks": 800,
          "midi": 61,
          "name": "C#4",
          "ticks": 89488,
          "time": 122.65215958333332,
          "velocity": 0.5590551181102362
        },
        {
          "duration": 0.690781874999999,
          "durationTicks": 504,
          "midi": 58,
          "name": "A#3",
          "ticks": 121344,
          "time": 166.31395999999998,
          "velocity": 0.4881889763779528
        },
        {
          "duration": 0.6359579166666549,
          "durationTicks": 464,
          "midi": 54,
          "name": "F#3",
          "ticks": 121344,
          "time": 166.31395999999998,
          "velocity": 0.4881889763779528
        },
        {
          "duration": 0.6249931250000031,
          "durationTicks": 456,
          "midi": 65,
          "name": "F4",
          "ticks": 121344,
          "time": 166.31395999999998,
          "velocity": 0.6141732283464567
        },
        {
          "duration": 0.6578875000000153,
          "durationTicks": 480,
          "midi": 61,
          "name": "C#4",
          "ticks": 121344,
          "time": 166.31395999999998,
          "velocity": 0.5354330708661418
        },
        {
          "duration": 1.1348559375000207,
          "durationTicks": 828,
          "midi": 58,
          "name": "A#3",
          "ticks": 121924,
          "time": 167.1089073958333,
          "velocity": 0.4251968503937008
        },
        {
          "duration": 1.1348559375000207,
          "durationTicks": 828,
          "midi": 63,
          "name": "D#4",
          "ticks": 121924,
          "time": 167.1089073958333,
          "velocity": 0.5905511811023622
        },
        {
          "duration": 1.1129263541666319,
          "durationTicks": 812,
          "midi": 56,
          "name": "G#3",
          "ticks": 121932,
          "time": 167.1198721875,
          "velocity": 0.5590551181102362
        },
        {
          "duration": 1.107443958333306,
          "durationTicks": 808,
          "midi": 60,
          "name": "C4",
          "ticks": 121936,
          "time": 167.12535458333332,
          "velocity": 0.4881889763779528
        },
        {
          "duration": 0.652405104166661,
          "durationTicks": 476,
          "midi": 63,
          "name": "D#4",
          "ticks": 122880,
          "time": 168.4192,
          "velocity": 0.5590551181102362
        },
        {
          "duration": 0.592098749999991,
          "durationTicks": 432,
          "midi": 56,
          "name": "G#3",
          "ticks": 122892,
          "time": 168.4356471875,
          "velocity": 0.5354330708661418
        },
        {
          "duration": 0.6195107291666488,
          "durationTicks": 452,
          "midi": 60,
          "name": "C4",
          "ticks": 122892,
          "time": 168.4356471875,
          "velocity": 0.5354330708661418
        },
        {
          "duration": 1.1622679166666785,
          "durationTicks": 848,
          "midi": 61,
          "name": "C#4",
          "ticks": 123440,
          "time": 169.18673541666664,
          "velocity": 0.5590551181102362
        },
        {
          "duration": 1.0909967708333284,
          "durationTicks": 796,
          "midi": 56,
          "name": "G#3",
          "ticks": 123444,
          "time": 169.1922178125,
          "velocity": 0.5354330708661418
        },
        {
          "duration": 1.0964791666666542,
          "durationTicks": 800,
          "midi": 53,
          "name": "F3",
          "ticks": 123448,
          "time": 169.19770020833332,
          "velocity": 0.5118110236220472
        },
        {
          "duration": 0.6852994791666447,
          "durationTicks": 500,
          "midi": 58,
          "name": "A#3",
          "ticks": 124452,
          "time": 170.5737815625,
          "velocity": 0.5354330708661418
        },
        {
          "duration": 0.592098749999991,
          "durationTicks": 432,
          "midi": 65,
          "name": "F4",
          "ticks": 124452,
          "time": 170.5737815625,
          "velocity": 0.6614173228346457
        },
        {
          "duration": 0.5975811458333169,
          "durationTicks": 436,
          "midi": 54,
          "name": "F#3",
          "ticks": 124456,
          "time": 170.5792639583333,
          "velocity": 0.4881889763779528
        },
        {
          "duration": 0.5317923958333495,
          "durationTicks": 388,
          "midi": 61,
          "name": "C#4",
          "ticks": 124460,
          "time": 170.58474635416664,
          "velocity": 0.4881889763779528
        },
        {
          "duration": 1.1238911458333405,
          "durationTicks": 820,
          "midi": 63,
          "name": "D#4",
          "ticks": 125000,
          "time": 171.32486979166663,
          "velocity": 0.5590551181102362
        },
        {
          "duration": 0.9758664583333427,
          "durationTicks": 712,
          "midi": 60,
          "name": "C4",
          "ticks": 125004,
          "time": 171.33035218749998,
          "velocity": 0.5118110236220472
        },
        {
          "duration": 1.0306904166666584,
          "durationTicks": 752,
          "midi": 56,
          "name": "G#3",
          "ticks": 125004,
          "time": 171.33035218749998,
          "velocity": 0.47244094488188976
        },
        {
          "duration": 1.0142432291666523,
          "durationTicks": 740,
          "midi": 58,
          "name": "A#3",
          "ticks": 125016,
          "time": 171.346799375,
          "velocity": 0.47244094488188976
        },
        {
          "duration": 0.48793322916665716,
          "durationTicks": 356,
          "midi": 63,
          "name": "D#4",
          "ticks": 125952,
          "time": 172.62967999999998,
          "velocity": 0.5590551181102362
        },
        {
          "duration": 0.3837677083333517,
          "durationTicks": 280,
          "midi": 56,
          "name": "G#3",
          "ticks": 125952,
          "time": 172.62967999999998,
          "velocity": 0.5354330708661418
        },
        {
          "duration": 0.46600364583335363,
          "durationTicks": 340,
          "midi": 60,
          "name": "C4",
          "ticks": 125952,
          "time": 172.62967999999998,
          "velocity": 0.5354330708661418
        },
        {
          "duration": 1.2061270833333424,
          "durationTicks": 880,
          "midi": 56,
          "name": "G#3",
          "ticks": 126356,
          "time": 173.18340197916663,
          "velocity": 0.5590551181102362
        },
        {
          "duration": 1.2335390625000002,
          "durationTicks": 900,
          "midi": 65,
          "name": "F4",
          "ticks": 126356,
          "time": 173.18340197916663,
          "velocity": 0.6141732283464567
        },
        {
          "duration": 1.2006446875000165,
          "durationTicks": 876,
          "midi": 61,
          "name": "C#4",
          "ticks": 126356,
          "time": 173.18340197916663,
          "velocity": 0.5354330708661418
        },
        {
          "duration": 0.6249931250000031,
          "durationTicks": 456,
          "midi": 65,
          "name": "F4",
          "ticks": 127468,
          "time": 174.70750802083333,
          "velocity": 0.6141732283464567
        },
        {
          "duration": 0.5866163541666936,
          "durationTicks": 428,
          "midi": 61,
          "name": "C#4",
          "ticks": 127472,
          "time": 174.71299041666663,
          "velocity": 0.5354330708661418
        },
        {
          "duration": 0.6195107291667057,
          "durationTicks": 452,
          "midi": 54,
          "name": "F#3",
          "ticks": 127472,
          "time": 174.71299041666663,
          "velocity": 0.4881889763779528
        },
        {
          "duration": 0.6962642708333533,
          "durationTicks": 508,
          "midi": 58,
          "name": "A#3",
          "ticks": 127476,
          "time": 174.71847281249998,
          "velocity": 0.5590551181102362
        },
        {
          "duration": 1.1348559374999923,
          "durationTicks": 828,
          "midi": 58,
          "name": "A#3",
          "ticks": 128052,
          "time": 175.5079378125,
          "velocity": 0.47244094488188976
        },
        {
          "duration": 1.1019615624999801,
          "durationTicks": 804,
          "midi": 63,
          "name": "D#4",
          "ticks": 128052,
          "time": 175.5079378125,
          "velocity": 0.5905511811023622
        },
        {
          "duration": 1.0909967708333284,
          "durationTicks": 796,
          "midi": 56,
          "name": "G#3",
          "ticks": 128060,
          "time": 175.51890260416664,
          "velocity": 0.5354330708661418
        },
        {
          "duration": 1.0635847916666705,
          "durationTicks": 776,
          "midi": 60,
          "name": "C4",
          "ticks": 128060,
          "time": 175.51890260416664,
          "velocity": 0.5354330708661418
        },
        {
          "duration": 0.690781874999999,
          "durationTicks": 504,
          "midi": 63,
          "name": "D#4",
          "ticks": 129012,
          "time": 176.8237128125,
          "velocity": 0.5354330708661418
        },
        {
          "duration": 0.6359579166666549,
          "durationTicks": 464,
          "midi": 56,
          "name": "G#3",
          "ticks": 129012,
          "time": 176.8237128125,
          "velocity": 0.5905511811023622
        },
        {
          "duration": 0.652405104166661,
          "durationTicks": 476,
          "midi": 60,
          "name": "C4",
          "ticks": 129016,
          "time": 176.82919520833332,
          "velocity": 0.5905511811023622
        },
        {
          "duration": 1.1238911458333405,
          "durationTicks": 820,
          "midi": 61,
          "name": "C#4",
          "ticks": 129584,
          "time": 177.60769541666664,
          "velocity": 0.5905511811023622
        },
        {
          "duration": 1.0471376041666645,
          "durationTicks": 764,
          "midi": 53,
          "name": "F3",
          "ticks": 129592,
          "time": 177.61866020833332,
          "velocity": 0.4881889763779528
        },
        {
          "duration": 1.0306904166666868,
          "durationTicks": 752,
          "midi": 56,
          "name": "G#3",
          "ticks": 129596,
          "time": 177.62414260416665,
          "velocity": 0.4881889763779528
        },
        {
          "duration": 0.6414403125000092,
          "durationTicks": 468,
          "midi": 58,
          "name": "A#3",
          "ticks": 130568,
          "time": 178.95636479166663,
          "velocity": 0.5354330708661418
        },
        {
          "duration": 0.6249931250000031,
          "durationTicks": 456,
          "midi": 65,
          "name": "F4",
          "ticks": 130568,
          "time": 178.95636479166663,
          "velocity": 0.6141732283464567
        },
        {
          "duration": 0.6085459374999971,
          "durationTicks": 444,
          "midi": 61,
          "name": "C#4",
          "ticks": 130568,
          "time": 178.95636479166663,
          "velocity": 0.5354330708661418
        },
        {
          "duration": 0.6195107291667057,
          "durationTicks": 452,
          "midi": 54,
          "name": "F#3",
          "ticks": 130568,
          "time": 178.95636479166663,
          "velocity": 0.4881889763779528
        },
        {
          "duration": 1.1293735416666664,
          "durationTicks": 824,
          "midi": 63,
          "name": "D#4",
          "ticks": 131140,
          "time": 179.7403473958333,
          "velocity": 0.5590551181102362
        },
        {
          "duration": 1.0361728124999843,
          "durationTicks": 756,
          "midi": 56,
          "name": "G#3",
          "ticks": 131148,
          "time": 179.7513121875,
          "velocity": 0.5590551181102362
        },
        {
          "duration": 0.9977960416666463,
          "durationTicks": 728,
          "midi": 60,
          "name": "C4",
          "ticks": 131148,
          "time": 179.7513121875,
          "velocity": 0.4881889763779528
        },
        {
          "duration": 1.0361728125000127,
          "durationTicks": 756,
          "midi": 58,
          "name": "A#3",
          "ticks": 131152,
          "time": 179.75679458333332,
          "velocity": 0.4566929133858268
        },
        {
          "duration": 0.48793322916665716,
          "durationTicks": 356,
          "midi": 63,
          "name": "D#4",
          "ticks": 132084,
          "time": 181.03419281249998,
          "velocity": 0.5354330708661418
        },
        {
          "duration": 0.4002148958333578,
          "durationTicks": 292,
          "midi": 56,
          "name": "G#3",
          "ticks": 132092,
          "time": 181.04515760416663,
          "velocity": 0.4881889763779528
        },
        {
          "duration": 0.46600364583335363,
          "durationTicks": 340,
          "midi": 60,
          "name": "C4",
          "ticks": 132092,
          "time": 181.04515760416663,
          "velocity": 0.5118110236220472
        },
        {
          "duration": 1.2554686458333322,
          "durationTicks": 916,
          "midi": 56,
          "name": "G#3",
          "ticks": 132496,
          "time": 181.59887958333331,
          "velocity": 0.5354330708661418
        },
        {
          "duration": 1.2609510416666865,
          "durationTicks": 920,
          "midi": 65,
          "name": "F4",
          "ticks": 132500,
          "time": 181.60436197916664,
          "velocity": 0.6614173228346457
        },
        {
          "duration": 1.266433437499984,
          "durationTicks": 924,
          "midi": 61,
          "name": "C#4",
          "ticks": 132500,
          "time": 181.60436197916664,
          "velocity": 0.5354330708661418
        },
        {
          "duration": 0.592098749999991,
          "durationTicks": 432,
          "midi": 65,
          "name": "F4",
          "ticks": 133648,
          "time": 183.17780958333333,
          "velocity": 0.6614173228346457
        },
        {
          "duration": 0.6852994791666447,
          "durationTicks": 500,
          "midi": 58,
          "name": "A#3",
          "ticks": 133648,
          "time": 183.17780958333333,
          "velocity": 0.5905511811023622
        },
        {
          "duration": 0.5646867708333048,
          "durationTicks": 412,
          "midi": 61,
          "name": "C#4",
          "ticks": 133648,
          "time": 183.17780958333333,
          "velocity": 0.5354330708661418
        },
        {
          "duration": 0.5811339583333108,
          "durationTicks": 424,
          "midi": 54,
          "name": "F#3",
          "ticks": 133648,
          "time": 183.17780958333333,
          "velocity": 0.4881889763779528
        },
        {
          "duration": 1.1129263541666603,
          "durationTicks": 812,
          "midi": 63,
          "name": "D#4",
          "ticks": 134208,
          "time": 183.94534499999997,
          "velocity": 0.5354330708661418
        },
        {
          "duration": 1.0745495833333223,
          "durationTicks": 784,
          "midi": 56,
          "name": "G#3",
          "ticks": 134212,
          "time": 183.95082739583333,
          "velocity": 0.47244094488188976
        },
        {
          "duration": 1.123891145833312,
          "durationTicks": 820,
          "midi": 58,
          "name": "A#3",
          "ticks": 134212,
          "time": 183.95082739583333,
          "velocity": 0.4566929133858268
        },
        {
          "duration": 1.107443958333306,
          "durationTicks": 808,
          "midi": 60,
          "name": "C4",
          "ticks": 134212,
          "time": 183.95082739583333,
          "velocity": 0.47244094488188976
        },
        {
          "duration": 0.751088229166669,
          "durationTicks": 548,
          "midi": 63,
          "name": "D#4",
          "ticks": 135148,
          "time": 185.23370802083332,
          "velocity": 0.5590551181102362
        },
        {
          "duration": 0.6798170833333472,
          "durationTicks": 496,
          "midi": 56,
          "name": "G#3",
          "ticks": 135156,
          "time": 185.24467281249997,
          "velocity": 0.4881889763779528
        },
        {
          "duration": 0.7072290625000051,
          "durationTicks": 516,
          "midi": 60,
          "name": "C4",
          "ticks": 135156,
          "time": 185.24467281249997,
          "velocity": 0.5590551181102362
        },
        {
          "duration": 1.0526199999999903,
          "durationTicks": 768,
          "midi": 56,
          "name": "G#3",
          "ticks": 135756,
          "time": 186.0670321875,
          "velocity": 0.5354330708661418
        },
        {
          "duration": 1.1074439583333344,
          "durationTicks": 808,
          "midi": 61,
          "name": "C#4",
          "ticks": 135756,
          "time": 186.0670321875,
          "velocity": 0.5590551181102362
        },
        {
          "duration": 1.0526200000000188,
          "durationTicks": 768,
          "midi": 53,
          "name": "F3",
          "ticks": 135760,
          "time": 186.07251458333332,
          "velocity": 0.5905511811023622
        },
        {
          "duration": 0.6249931250000031,
          "durationTicks": 456,
          "midi": 65,
          "name": "F4",
          "ticks": 136700,
          "time": 187.36087760416663,
          "velocity": 0.6614173228346457
        },
        {
          "duration": 0.690781874999999,
          "durationTicks": 504,
          "midi": 58,
          "name": "A#3",
          "ticks": 136704,
          "time": 187.36636,
          "velocity": 0.5905511811023622
        },
        {
          "duration": 0.6030635416666428,
          "durationTicks": 440,
          "midi": 54,
          "name": "F#3",
          "ticks": 136704,
          "time": 187.36636,
          "velocity": 0.5354330708661418
        },
        {
          "duration": 0.5592043750000073,
          "durationTicks": 408,
          "midi": 61,
          "name": "C#4",
          "ticks": 136704,
          "time": 187.36636,
          "velocity": 0.5354330708661418
        },
        {
          "duration": 1.0361728125000127,
          "durationTicks": 756,
          "midi": 60,
          "name": "C4",
          "ticks": 137284,
          "time": 188.16130739583332,
          "velocity": 0.5354330708661418
        },
        {
          "duration": 1.1622679166666785,
          "durationTicks": 848,
          "midi": 63,
          "name": "D#4",
          "ticks": 137288,
          "time": 188.16678979166664,
          "velocity": 0.5354330708661418
        },
        {
          "duration": 1.0690671874999964,
          "durationTicks": 780,
          "midi": 58,
          "name": "A#3",
          "ticks": 137288,
          "time": 188.16678979166664,
          "velocity": 0.3779527559055118
        },
        {
          "duration": 1.0800319791666482,
          "durationTicks": 788,
          "midi": 56,
          "name": "G#3",
          "ticks": 137296,
          "time": 188.17775458333332,
          "velocity": 0.4251968503937008
        },
        {
          "duration": 0.48245083333330285,
          "durationTicks": 352,
          "midi": 63,
          "name": "D#4",
          "ticks": 138244,
          "time": 189.47708239583332,
          "velocity": 0.5590551181102362
        },
        {
          "duration": 0.3947325000000035,
          "durationTicks": 288,
          "midi": 56,
          "name": "G#3",
          "ticks": 138248,
          "time": 189.48256479166665,
          "velocity": 0.5590551181102362
        },
        {
          "duration": 0.4714860416666511,
          "durationTicks": 344,
          "midi": 60,
          "name": "C4",
          "ticks": 138256,
          "time": 189.49352958333333,
          "velocity": 0.5905511811023622
        },
        {
          "duration": 1.2773982291666641,
          "durationTicks": 932,
          "midi": 65,
          "name": "F4",
          "ticks": 138644,
          "time": 190.02532197916665,
          "velocity": 0.6614173228346457
        },
        {
          "duration": 1.2719158333333382,
          "durationTicks": 928,
          "midi": 56,
          "name": "G#3",
          "ticks": 138648,
          "time": 190.03080437499997,
          "velocity": 0.4881889763779528
        },
        {
          "duration": 1.2719158333333098,
          "durationTicks": 928,
          "midi": 61,
          "name": "C#4",
          "ticks": 138652,
          "time": 190.03628677083333,
          "velocity": 0.4881889763779528
        },
        {
          "duration": 0.6469227083333351,
          "durationTicks": 472,
          "midi": 65,
          "name": "F4",
          "ticks": 139752,
          "time": 191.543945625,
          "velocity": 0.6141732283464567
        },
        {
          "duration": 0.6414403125000092,
          "durationTicks": 468,
          "midi": 61,
          "name": "C#4",
          "ticks": 139756,
          "time": 191.54942802083332,
          "velocity": 0.4881889763779528
        },
        {
          "duration": 0.7236762500000111,
          "durationTicks": 528,
          "midi": 58,
          "name": "A#3",
          "ticks": 139756,
          "time": 191.54942802083332,
          "velocity": 0.5905511811023622
        },
        {
          "duration": 0.630475520833329,
          "durationTicks": 460,
          "midi": 54,
          "name": "F#3",
          "ticks": 139760,
          "time": 191.55491041666664,
          "velocity": 0.4881889763779528
        },
        {
          "duration": 1.1293735416666948,
          "durationTicks": 824,
          "midi": 58,
          "name": "A#3",
          "ticks": 140348,
          "time": 192.36082260416663,
          "velocity": 0.47244094488188976
        },
        {
          "duration": 1.1019615625000085,
          "durationTicks": 804,
          "midi": 63,
          "name": "D#4",
          "ticks": 140352,
          "time": 192.36630499999998,
          "velocity": 0.5354330708661418
        },
        {
          "duration": 1.1129263541666603,
          "durationTicks": 812,
          "midi": 56,
          "name": "G#3",
          "ticks": 140352,
          "time": 192.36630499999998,
          "velocity": 0.5354330708661418
        },
        {
          "duration": 1.1184087499999862,
          "durationTicks": 816,
          "midi": 60,
          "name": "C4",
          "ticks": 140364,
          "time": 192.3827521875,
          "velocity": 0.4409448818897638
        },
        {
          "duration": 0.6743346875000213,
          "durationTicks": 492,
          "midi": 63,
          "name": "D#4",
          "ticks": 141296,
          "time": 193.66015041666662,
          "velocity": 0.4881889763779528
        },
        {
          "duration": 0.6359579166666549,
          "durationTicks": 464,
          "midi": 56,
          "name": "G#3",
          "ticks": 141300,
          "time": 193.66563281249998,
          "velocity": 0.5354330708661418
        },
        {
          "duration": 0.6962642708332965,
          "durationTicks": 508,
          "midi": 60,
          "name": "C4",
          "ticks": 141304,
          "time": 193.67111520833333,
          "velocity": 0.5118110236220472
        },
        {
          "duration": 1.0909967708333284,
          "durationTicks": 796,
          "midi": 61,
          "name": "C#4",
          "ticks": 141888,
          "time": 194.471545,
          "velocity": 0.5590551181102362
        },
        {
          "duration": 1.0581023958333162,
          "durationTicks": 772,
          "midi": 53,
          "name": "F3",
          "ticks": 141892,
          "time": 194.47702739583332,
          "velocity": 0.5354330708661418
        },
        {
          "duration": 1.0361728125000127,
          "durationTicks": 756,
          "midi": 56,
          "name": "G#3",
          "ticks": 141892,
          "time": 194.47702739583332,
          "velocity": 0.5905511811023622
        },
        {
          "duration": 0.7072290625000051,
          "durationTicks": 516,
          "midi": 58,
          "name": "A#3",
          "ticks": 142840,
          "time": 195.7763552083333,
          "velocity": 0.5590551181102362
        },
        {
          "duration": 0.630475520833329,
          "durationTicks": 460,
          "midi": 65,
          "name": "F4",
          "ticks": 142844,
          "time": 195.78183760416664,
          "velocity": 0.6141732283464567
        },
        {
          "duration": 0.6195107291666773,
          "durationTicks": 452,
          "midi": 54,
          "name": "F#3",
          "ticks": 142844,
          "time": 195.78183760416664,
          "velocity": 0.5354330708661418
        },
        {
          "duration": 0.5811339583333393,
          "durationTicks": 424,
          "midi": 61,
          "name": "C#4",
          "ticks": 142844,
          "time": 195.78183760416664,
          "velocity": 0.5590551181102362
        },
        {
          "duration": 1.0087608333333264,
          "durationTicks": 736,
          "midi": 58,
          "name": "A#3",
          "ticks": 143416,
          "time": 196.56582020833332,
          "velocity": 0.4015748031496063
        },
        {
          "duration": 1.0306904166666584,
          "durationTicks": 752,
          "midi": 56,
          "name": "G#3",
          "ticks": 143416,
          "time": 196.56582020833332,
          "velocity": 0.4881889763779528
        },
        {
          "duration": 1.1129263541666603,
          "durationTicks": 812,
          "midi": 63,
          "name": "D#4",
          "ticks": 143416,
          "time": 196.56582020833332,
          "velocity": 0.5590551181102362
        },
        {
          "duration": 0.9868312499999945,
          "durationTicks": 720,
          "midi": 60,
          "name": "C4",
          "ticks": 143424,
          "time": 196.57678499999997,
          "velocity": 0.4881889763779528
        },
        {
          "duration": 0.3837677083333233,
          "durationTicks": 280,
          "midi": 56,
          "name": "G#3",
          "ticks": 144380,
          "time": 197.88707760416665,
          "velocity": 0.5354330708661418
        },
        {
          "duration": 0.4605212499999993,
          "durationTicks": 336,
          "midi": 63,
          "name": "D#4",
          "ticks": 144384,
          "time": 197.89255999999997,
          "velocity": 0.4881889763779528
        },
        {
          "duration": 0.4605212499999993,
          "durationTicks": 336,
          "midi": 60,
          "name": "C4",
          "ticks": 144384,
          "time": 197.89255999999997,
          "velocity": 0.5590551181102362
        },
        {
          "duration": 1.2719158333333667,
          "durationTicks": 928,
          "midi": 65,
          "name": "F4",
          "ticks": 144776,
          "time": 198.42983479166662,
          "velocity": 0.7007874015748031
        },
        {
          "duration": 1.244503854166652,
          "durationTicks": 908,
          "midi": 56,
          "name": "G#3",
          "ticks": 144784,
          "time": 198.44079958333333,
          "velocity": 0.5354330708661418
        },
        {
          "duration": 1.2390214583333545,
          "durationTicks": 904,
          "midi": 61,
          "name": "C#4",
          "ticks": 144788,
          "time": 198.44628197916663,
          "velocity": 0.4881889763779528
        },
        {
          "duration": 0.6085459374999971,
          "durationTicks": 444,
          "midi": 65,
          "name": "F4",
          "ticks": 145912,
          "time": 199.98683520833333,
          "velocity": 0.7007874015748031
        },
        {
          "duration": 0.6030635416666996,
          "durationTicks": 440,
          "midi": 54,
          "name": "F#3",
          "ticks": 145916,
          "time": 199.99231760416663,
          "velocity": 0.4881889763779528
        },
        {
          "duration": 0.6030635416666428,
          "durationTicks": 440,
          "midi": 61,
          "name": "C#4",
          "ticks": 145920,
          "time": 199.99779999999998,
          "velocity": 0.4881889763779528
        },
        {
          "duration": 0.7017466666666508,
          "durationTicks": 512,
          "midi": 58,
          "name": "A#3",
          "ticks": 145920,
          "time": 199.99779999999998,
          "velocity": 0.5354330708661418
        },
        {
          "duration": 1.1348559374999923,
          "durationTicks": 828,
          "midi": 63,
          "name": "D#4",
          "ticks": 146512,
          "time": 200.80919458333332,
          "velocity": 0.5590551181102362
        },
        {
          "duration": 1.1074439583333344,
          "durationTicks": 808,
          "midi": 56,
          "name": "G#3",
          "ticks": 146516,
          "time": 200.81467697916665,
          "velocity": 0.5275590551181102
        },
        {
          "duration": 1.1238911458333405,
          "durationTicks": 820,
          "midi": 60,
          "name": "C4",
          "ticks": 146520,
          "time": 200.82015937499997,
          "velocity": 0.48031496062992124
        },
        {
          "duration": 1.1348559375000207,
          "durationTicks": 828,
          "midi": 58,
          "name": "A#3",
          "ticks": 146528,
          "time": 200.83112416666663,
          "velocity": 0.3937007874015748
        },
        {
          "duration": 0.6852994791666731,
          "durationTicks": 500,
          "midi": 63,
          "name": "D#4",
          "ticks": 147456,
          "time": 202.10303999999996,
          "velocity": 0.4645669291338583
        },
        {
          "duration": 0.5866163541666651,
          "durationTicks": 428,
          "midi": 56,
          "name": "G#3",
          "ticks": 147468,
          "time": 202.11948718749997,
          "velocity": 0.4015748031496063
        },
        {
          "duration": 0.6414403125000092,
          "durationTicks": 468,
          "midi": 60,
          "name": "C4",
          "ticks": 147468,
          "time": 202.11948718749997,
          "velocity": 0.4409448818897638
        },
        {
          "duration": 1.1184087499999862,
          "durationTicks": 816,
          "midi": 61,
          "name": "C#4",
          "ticks": 148016,
          "time": 202.87057541666664,
          "velocity": 0.44881889763779526
        },
        {
          "duration": 1.0471376041666645,
          "durationTicks": 764,
          "midi": 53,
          "name": "F3",
          "ticks": 148024,
          "time": 202.88154020833332,
          "velocity": 0.4094488188976378
        },
        {
          "duration": 1.0306904166666584,
          "durationTicks": 752,
          "midi": 56,
          "name": "G#3",
          "ticks": 148024,
          "time": 202.88154020833332,
          "velocity": 0.4251968503937008
        },
        {
          "duration": 0.6743346874999929,
          "durationTicks": 492,
          "midi": 58,
          "name": "A#3",
          "ticks": 148984,
          "time": 204.19731520833332,
          "velocity": 0.3464566929133858
        },
        {
          "duration": 0.630475520833329,
          "durationTicks": 460,
          "midi": 54,
          "name": "F#3",
          "ticks": 148988,
          "time": 204.20279760416665,
          "velocity": 0.30708661417322836
        },
        {
          "duration": 0.614028333333323,
          "durationTicks": 448,
          "midi": 65,
          "name": "F4",
          "ticks": 148988,
          "time": 204.20279760416665,
          "velocity": 0.4015748031496063
        },
        {
          "duration": 0.6578874999999869,
          "durationTicks": 480,
          "midi": 61,
          "name": "C#4",
          "ticks": 148988,
          "time": 204.20279760416665,
          "velocity": 0.3464566929133858
        },
        {
          "duration": 1.1567855208333526,
          "durationTicks": 844,
          "midi": 63,
          "name": "D#4",
          "ticks": 149564,
          "time": 204.99226260416663,
          "velocity": 0.3228346456692913
        },
        {
          "duration": 1.063584791666642,
          "durationTicks": 776,
          "midi": 56,
          "name": "G#3",
          "ticks": 149568,
          "time": 204.99774499999998,
          "velocity": 0.2755905511811024
        },
        {
          "duration": 1.0855143750000025,
          "durationTicks": 792,
          "midi": 58,
          "name": "A#3",
          "ticks": 149568,
          "time": 204.99774499999998,
          "velocity": 0.2047244094488189
        },
        {
          "duration": 1.0581023958333446,
          "durationTicks": 772,
          "midi": 60,
          "name": "C4",
          "ticks": 149568,
          "time": 204.99774499999998,
          "velocity": 0.29133858267716534
        },
        {
          "duration": 0.49889802083333734,
          "durationTicks": 364,
          "midi": 63,
          "name": "D#4",
          "ticks": 150524,
          "time": 206.30803760416663,
          "velocity": 0.2204724409448819
        },
        {
          "duration": 0.4385916666666958,
          "durationTicks": 320,
          "midi": 56,
          "name": "G#3",
          "ticks": 150524,
          "time": 206.30803760416663,
          "velocity": 0.25984251968503935
        },
        {
          "duration": 0.4769684375000054,
          "durationTicks": 348,
          "midi": 60,
          "name": "C4",
          "ticks": 150532,
          "time": 206.3190023958333,
          "velocity": 0.25984251968503935
        },
        {
          "duration": 1.2719158333333098,
          "durationTicks": 928,
          "midi": 65,
          "name": "F4",
          "ticks": 150940,
          "time": 206.87820677083332,
          "velocity": 0.29133858267716534
        },
        {
          "duration": 1.2664334375000124,
          "durationTicks": 924,
          "midi": 56,
          "name": "G#3",
          "ticks": 150948,
          "time": 206.88917156249997,
          "velocity": 0.2204724409448819
        },
        {
          "duration": 1.2773982291666641,
          "durationTicks": 932,
          "midi": 61,
          "name": "C#4",
          "ticks": 150948,
          "time": 206.88917156249997,
          "velocity": 0.2204724409448819
        },
        {
          "duration": 0.6469227083333351,
          "durationTicks": 472,
          "midi": 65,
          "name": "F4",
          "ticks": 152064,
          "time": 208.41876,
          "velocity": 0.16535433070866143
        },
        {
          "duration": 0.7072290625000051,
          "durationTicks": 516,
          "midi": 58,
          "name": "A#3",
          "ticks": 152076,
          "time": 208.43520718749997,
          "velocity": 0.14173228346456693
        },
        {
          "duration": 0.614028333333323,
          "durationTicks": 448,
          "midi": 54,
          "name": "F#3",
          "ticks": 152080,
          "time": 208.44068958333332,
          "velocity": 0.11811023622047244
        },
        {
          "duration": 0.6249931250000031,
          "durationTicks": 456,
          "midi": 61,
          "name": "C#4",
          "ticks": 152080,
          "time": 208.44068958333332,
          "velocity": 0.12598425196850394
        },
        {
          "duration": 1.1403383333332897,
          "durationTicks": 832,
          "midi": 63,
          "name": "D#4",
          "ticks": 152656,
          "time": 209.23015458333333,
          "velocity": 0.13385826771653545
        },
        {
          "duration": 1.1184087500000146,
          "durationTicks": 816,
          "midi": 56,
          "name": "G#3",
          "ticks": 152660,
          "time": 209.23563697916663,
          "velocity": 0.06299212598425197
        },
        {
          "duration": 1.1567855208333526,
          "durationTicks": 844,
          "midi": 58,
          "name": "A#3",
          "ticks": 152660,
          "time": 209.23563697916663,
          "velocity": 0.11023622047244094
        },
        {
          "duration": 1.1019615625000085,
          "durationTicks": 804,
          "midi": 60,
          "name": "C4",
          "ticks": 152660,
          "time": 209.23563697916663,
          "velocity": 0.10236220472440945
        },
        {
          "duration": 0.6743346874999929,
          "durationTicks": 492,
          "midi": 63,
          "name": "D#4",
          "ticks": 153616,
          "time": 210.54592958333333,
          "velocity": 0.047244094488188976
        },
        {
          "duration": 0.592098749999991,
          "durationTicks": 432,
          "midi": 56,
          "name": "G#3",
          "ticks": 153620,
          "time": 210.55141197916663,
          "velocity": 0.047244094488188976
        },
        {
          "duration": 0.6578875000000153,
          "durationTicks": 480,
          "midi": 60,
          "name": "C4",
          "ticks": 153620,
          "time": 210.55141197916663,
          "velocity": 0.06299212598425197
        },
        {
          "duration": 1.1074439583333344,
          "durationTicks": 808,
          "midi": 61,
          "name": "C#4",
          "ticks": 154176,
          "time": 211.31346499999998,
          "velocity": 0.023622047244094488
        },
        {
          "duration": 1.0471376041666645,
          "durationTicks": 764,
          "midi": 53,
          "name": "F3",
          "ticks": 154176,
          "time": 211.31346499999998,
          "velocity": 0.015748031496062992
        },
        {
          "duration": 1.0197256250000066,
          "durationTicks": 744,
          "midi": 56,
          "name": "G#3",
          "ticks": 154184,
          "time": 211.32442979166663,
          "velocity": 0.015748031496062992
        },
        {
          "duration": 0.5975811458333169,
          "durationTicks": 436,
          "midi": 65,
          "name": "F4",
          "ticks": 155152,
          "time": 212.6511695833333,
          "velocity": 0.007874015748031496
        },
        {
          "duration": 0.630475520833329,
          "durationTicks": 460,
          "midi": 61,
          "name": "C#4",
          "ticks": 155152,
          "time": 212.6511695833333,
          "velocity": 0.007874015748031496
        },
        {
          "duration": 0.668852291666667,
          "durationTicks": 488,
          "midi": 58,
          "name": "A#3",
          "ticks": 155152,
          "time": 212.6511695833333,
          "velocity": 0.007874015748031496
        },
        {
          "duration": 0.5756515625000134,
          "durationTicks": 420,
          "midi": 54,
          "name": "F#3",
          "ticks": 155160,
          "time": 212.66213437499997,
          "velocity": 0.007874015748031496
        },
        {
          "duration": 1.0690671874999964,
          "durationTicks": 780,
          "midi": 58,
          "name": "A#3",
          "ticks": 155708,
          "time": 213.41322260416663,
          "velocity": 0.007874015748031496
        },
        {
          "duration": 1.0909967708333568,
          "durationTicks": 796,
          "midi": 56,
          "name": "G#3",
          "ticks": 155708,
          "time": 213.41322260416663,
          "velocity": 0.007874015748031496
        },
        {
          "duration": 1.1184087499999862,
          "durationTicks": 816,
          "midi": 63,
          "name": "D#4",
          "ticks": 155712,
          "time": 213.418705,
          "velocity": 0.007874015748031496
        },
        {
          "duration": 0.9977960416666747,
          "durationTicks": 728,
          "midi": 60,
          "name": "C4",
          "ticks": 155720,
          "time": 213.42966979166664,
          "velocity": 0.007874015748031496
        }
      ],
      "endOfTrackTicks": 158208
    },
    {
      "channel": 1,
      "controlChanges": {
        "1": [
          {
            "number": 1,
            "ticks": 4612,
            "time": 6.321202395833333,
            "value": 0
          }
        ],
        "7": [
          {
            "number": 7,
            "ticks": 1952,
            "time": 2.6754091666666664,
            "value": 0.7086614173228346
          }
        ],
        "10": [
          {
            "number": 10,
            "ticks": 1952,
            "time": 2.6754091666666664,
            "value": 0.5039370078740157
          }
        ],
        "11": [
          {
            "number": 11,
            "ticks": 1952,
            "time": 2.6754091666666664,
            "value": 1
          }
        ],
        "91": [
          {
            "number": 91,
            "ticks": 1956,
            "time": 2.6808915625,
            "value": 0.03937007874015748
          }
        ],
        "93": [
          {
            "number": 93,
            "ticks": 1956,
            "time": 2.6808915625,
            "value": 0
          }
        ]
      },
      "pitchBends": [
        {
          "ticks": 4612,
          "time": 6.321202395833333,
          "value": 0
        }
      ],
      "instrument": {
        "family": "bass",
        "number": 39,
        "name": "synth bass 2"
      },
      "name": "SYN BASS 2",
      "notes": [
        {
          "duration": 0.11513031250000072,
          "durationTicks": 84,
          "midi": 27,
          "name": "D#1",
          "ticks": 4608,
          "time": 6.315719999999999,
          "velocity": 0.8267716535433071
        },
        {
          "duration": 0.09320072916666611,
          "durationTicks": 68,
          "midi": 27,
          "name": "D#1",
          "ticks": 4796,
          "time": 6.573392604166666,
          "velocity": 0.8976377952755905
        },
        {
          "duration": 0.10416552083333297,
          "durationTicks": 76,
          "midi": 27,
          "name": "D#1",
          "ticks": 4896,
          "time": 6.7104525,
          "velocity": 0.8267716535433071
        },
        {
          "duration": 0.09320072916666611,
          "durationTicks": 68,
          "midi": 36,
          "name": "C2",
          "ticks": 5084,
          "time": 6.968125104166666,
          "velocity": 0.8503937007874016
        },
        {
          "duration": 0.09868312499999998,
          "durationTicks": 72,
          "midi": 34,
          "name": "A#1",
          "ticks": 5180,
          "time": 7.099702604166667,
          "velocity": 0.8976377952755905
        },
        {
          "duration": 0.12061270833333282,
          "durationTicks": 88,
          "midi": 32,
          "name": "G#1",
          "ticks": 5372,
          "time": 7.362857604166666,
          "velocity": 0.8267716535433071
        },
        {
          "duration": 0.14254229166666565,
          "durationTicks": 104,
          "midi": 32,
          "name": "G#1",
          "ticks": 5564,
          "time": 7.626012604166666,
          "velocity": 0.937007874015748
        },
        {
          "duration": 0.11513031249999983,
          "durationTicks": 84,
          "midi": 27,
          "name": "D#1",
          "ticks": 5948,
          "time": 8.152322604166667,
          "velocity": 0.7716535433070866
        },
        {
          "duration": 0.07675354166666715,
          "durationTicks": 56,
          "midi": 32,
          "name": "G#1",
          "ticks": 6048,
          "time": 8.289382499999999,
          "velocity": 0.7716535433070866
        },
        {
          "duration": 0.1206127083333346,
          "durationTicks": 88,
          "midi": 29,
          "name": "F1",
          "ticks": 6144,
          "time": 8.42096,
          "velocity": 0.8976377952755905
        },
        {
          "duration": 0.08223593750000013,
          "durationTicks": 60,
          "midi": 29,
          "name": "F1",
          "ticks": 6332,
          "time": 8.678632604166665,
          "velocity": 0.8503937007874016
        },
        {
          "duration": 0.1206127083333346,
          "durationTicks": 88,
          "midi": 29,
          "name": "F1",
          "ticks": 6428,
          "time": 8.810210104166664,
          "velocity": 0.8503937007874016
        },
        {
          "duration": 0.10964791666666507,
          "durationTicks": 80,
          "midi": 36,
          "name": "C2",
          "ticks": 6628,
          "time": 9.084329895833333,
          "velocity": 0.8503937007874016
        },
        {
          "duration": 0.1315774999999988,
          "durationTicks": 96,
          "midi": 34,
          "name": "A#1",
          "ticks": 6724,
          "time": 9.215907395833334,
          "velocity": 0.8976377952755905
        },
        {
          "duration": 0.07127114583333238,
          "durationTicks": 52,
          "midi": 34,
          "name": "A#1",
          "ticks": 7108,
          "time": 9.742217395833332,
          "velocity": 0.8267716535433071
        },
        {
          "duration": 0.07127114583333238,
          "durationTicks": 52,
          "midi": 34,
          "name": "A#1",
          "ticks": 7204,
          "time": 9.873794895833333,
          "velocity": 0.8976377952755905
        },
        {
          "duration": 0.08223593750000013,
          "durationTicks": 60,
          "midi": 34,
          "name": "A#1",
          "ticks": 7300,
          "time": 10.005372395833334,
          "velocity": 0.937007874015748
        },
        {
          "duration": 0.09868312500000087,
          "durationTicks": 72,
          "midi": 36,
          "name": "C2",
          "ticks": 7396,
          "time": 10.136949895833332,
          "velocity": 0.8503937007874016
        },
        {
          "duration": 0.07675354166666537,
          "durationTicks": 56,
          "midi": 34,
          "name": "A#1",
          "ticks": 7588,
          "time": 10.400104895833334,
          "velocity": 0.8267716535433071
        },
        {
          "duration": 0.10964791666666684,
          "durationTicks": 80,
          "midi": 27,
          "name": "D#1",
          "ticks": 7684,
          "time": 10.531682395833332,
          "velocity": 0.8267716535433071
        },
        {
          "duration": 0.08223593749999836,
          "durationTicks": 60,
          "midi": 27,
          "name": "D#1",
          "ticks": 7868,
          "time": 10.783872604166666,
          "velocity": 0.8267716535433071
        },
        {
          "duration": 0.12061270833333282,
          "durationTicks": 88,
          "midi": 27,
          "name": "D#1",
          "ticks": 7972,
          "time": 10.926414895833332,
          "velocity": 0.7952755905511811
        },
        {
          "duration": 0.08771833333333134,
          "durationTicks": 64,
          "midi": 36,
          "name": "C2",
          "ticks": 8164,
          "time": 11.189569895833333,
          "velocity": 0.8267716535433071
        },
        {
          "duration": 0.12061270833333282,
          "durationTicks": 88,
          "midi": 34,
          "name": "A#1",
          "ticks": 8260,
          "time": 11.321147395833332,
          "velocity": 0.8976377952755905
        },
        {
          "duration": 0.13705989583333356,
          "durationTicks": 100,
          "midi": 32,
          "name": "G#1",
          "ticks": 8448,
          "time": 11.578819999999999,
          "velocity": 0.8976377952755905
        },
        {
          "duration": 0.11513031249999983,
          "durationTicks": 84,
          "midi": 32,
          "name": "G#1",
          "ticks": 8644,
          "time": 11.847457395833333,
          "velocity": 0.8267716535433071
        },
        {
          "duration": 0.06030635416666641,
          "durationTicks": 44,
          "midi": 32,
          "name": "G#1",
          "ticks": 9024,
          "time": 12.368284999999998,
          "velocity": 0.7952755905511811
        },
        {
          "duration": 0.07675354166666892,
          "durationTicks": 56,
          "midi": 32,
          "name": "G#1",
          "ticks": 9116,
          "time": 12.494380104166664,
          "velocity": 0.8976377952755905
        },
        {
          "duration": 0.10416552083333563,
          "durationTicks": 76,
          "midi": 29,
          "name": "F1",
          "ticks": 9216,
          "time": 12.631439999999998,
          "velocity": 0.8976377952755905
        },
        {
          "duration": 0.07675354166666892,
          "durationTicks": 56,
          "midi": 29,
          "name": "F1",
          "ticks": 9404,
          "time": 12.889112604166664,
          "velocity": 0.937007874015748
        },
        {
          "duration": 0.12061270833333282,
          "durationTicks": 88,
          "midi": 29,
          "name": "F1",
          "ticks": 9504,
          "time": 13.0261725,
          "velocity": 0.937007874015748
        },
        {
          "duration": 0.07675354166666715,
          "durationTicks": 56,
          "midi": 36,
          "name": "C2",
          "ticks": 9700,
          "time": 13.294809895833332,
          "velocity": 0.8503937007874016
        },
        {
          "duration": 0.13705989583333178,
          "durationTicks": 100,
          "midi": 34,
          "name": "A#1",
          "ticks": 9796,
          "time": 13.426387395833332,
          "velocity": 0.937007874015748
        },
        {
          "duration": 0.11513031249999983,
          "durationTicks": 84,
          "midi": 32,
          "name": "G#1",
          "ticks": 10180,
          "time": 13.952697395833333,
          "velocity": 0.8976377952755905
        },
        {
          "duration": 0.0657887499999994,
          "durationTicks": 48,
          "midi": 32,
          "name": "G#1",
          "ticks": 10372,
          "time": 14.215852395833332,
          "velocity": 0.8267716535433071
        },
        {
          "duration": 0.10964791666666507,
          "durationTicks": 80,
          "midi": 32,
          "name": "G#1",
          "ticks": 10468,
          "time": 14.347429895833333,
          "velocity": 0.8976377952755905
        },
        {
          "duration": 0.11513031249999983,
          "durationTicks": 84,
          "midi": 37,
          "name": "C#2",
          "ticks": 10652,
          "time": 14.599620104166664,
          "velocity": 0.7952755905511811
        },
        {
          "duration": 0.11513031249999983,
          "durationTicks": 84,
          "midi": 27,
          "name": "D#1",
          "ticks": 10752,
          "time": 14.736679999999998,
          "velocity": 0.8267716535433071
        },
        {
          "duration": 0.09320072916666788,
          "durationTicks": 68,
          "midi": 27,
          "name": "D#1",
          "ticks": 10940,
          "time": 14.994352604166664,
          "velocity": 0.8976377952755905
        },
        {
          "duration": 0.10416552083333386,
          "durationTicks": 76,
          "midi": 27,
          "name": "D#1",
          "ticks": 11040,
          "time": 15.131412499999998,
          "velocity": 0.8267716535433071
        },
        {
          "duration": 0.09320072916666788,
          "durationTicks": 68,
          "midi": 36,
          "name": "C2",
          "ticks": 11228,
          "time": 15.389085104166664,
          "velocity": 0.8503937007874016
        },
        {
          "duration": 0.0986831249999991,
          "durationTicks": 72,
          "midi": 34,
          "name": "A#1",
          "ticks": 11324,
          "time": 15.520662604166665,
          "velocity": 0.8976377952755905
        },
        {
          "duration": 0.1206127083333346,
          "durationTicks": 88,
          "midi": 32,
          "name": "G#1",
          "ticks": 11516,
          "time": 15.783817604166664,
          "velocity": 0.8267716535433071
        },
        {
          "duration": 0.14254229166666832,
          "durationTicks": 104,
          "midi": 32,
          "name": "G#1",
          "ticks": 11708,
          "time": 16.046972604166665,
          "velocity": 0.937007874015748
        },
        {
          "duration": 0.11513031249999983,
          "durationTicks": 84,
          "midi": 27,
          "name": "D#1",
          "ticks": 12092,
          "time": 16.573282604166664,
          "velocity": 0.7716535433070866
        },
        {
          "duration": 0.07675354166666537,
          "durationTicks": 56,
          "midi": 32,
          "name": "G#1",
          "ticks": 12192,
          "time": 16.7103425,
          "velocity": 0.7716535433070866
        },
        {
          "duration": 0.12061270833333282,
          "durationTicks": 88,
          "midi": 29,
          "name": "F1",
          "ticks": 12288,
          "time": 16.84192,
          "velocity": 0.8976377952755905
        },
        {
          "duration": 0.08223593749999836,
          "durationTicks": 60,
          "midi": 29,
          "name": "F1",
          "ticks": 12476,
          "time": 17.099592604166666,
          "velocity": 0.8503937007874016
        },
        {
          "duration": 0.12061270833333282,
          "durationTicks": 88,
          "midi": 29,
          "name": "F1",
          "ticks": 12572,
          "time": 17.231170104166665,
          "velocity": 0.8503937007874016
        },
        {
          "duration": 0.1096479166666704,
          "durationTicks": 80,
          "midi": 36,
          "name": "C2",
          "ticks": 12772,
          "time": 17.50528989583333,
          "velocity": 0.8503937007874016
        },
        {
          "duration": 0.1315774999999988,
          "durationTicks": 96,
          "midi": 34,
          "name": "A#1",
          "ticks": 12868,
          "time": 17.63686739583333,
          "velocity": 0.8976377952755905
        },
        {
          "duration": 0.07127114583333594,
          "durationTicks": 52,
          "midi": 34,
          "name": "A#1",
          "ticks": 13252,
          "time": 18.16317739583333,
          "velocity": 0.8267716535433071
        },
        {
          "duration": 0.07127114583333594,
          "durationTicks": 52,
          "midi": 34,
          "name": "A#1",
          "ticks": 13348,
          "time": 18.29475489583333,
          "velocity": 0.8976377952755905
        },
        {
          "duration": 0.08223593749999836,
          "durationTicks": 60,
          "midi": 34,
          "name": "A#1",
          "ticks": 13444,
          "time": 18.42633239583333,
          "velocity": 0.937007874015748
        },
        {
          "duration": 0.09868312500000087,
          "durationTicks": 72,
          "midi": 36,
          "name": "C2",
          "ticks": 13540,
          "time": 18.55790989583333,
          "velocity": 0.8503937007874016
        },
        {
          "duration": 0.07675354166666537,
          "durationTicks": 56,
          "midi": 34,
          "name": "A#1",
          "ticks": 13732,
          "time": 18.82106489583333,
          "velocity": 0.8267716535433071
        },
        {
          "duration": 0.10964791666666684,
          "durationTicks": 80,
          "midi": 27,
          "name": "D#1",
          "ticks": 13828,
          "time": 18.95264239583333,
          "velocity": 0.8267716535433071
        },
        {
          "duration": 0.08223593750000191,
          "durationTicks": 60,
          "midi": 27,
          "name": "D#1",
          "ticks": 14012,
          "time": 19.204832604166665,
          "velocity": 0.8267716535433071
        },
        {
          "duration": 0.12061270833333637,
          "durationTicks": 88,
          "midi": 27,
          "name": "D#1",
          "ticks": 14116,
          "time": 19.34737489583333,
          "velocity": 0.7952755905511811
        },
        {
          "duration": 0.0877183333333349,
          "durationTicks": 64,
          "midi": 36,
          "name": "C2",
          "ticks": 14308,
          "time": 19.61052989583333,
          "velocity": 0.8267716535433071
        },
        {
          "duration": 0.12061270833333637,
          "durationTicks": 88,
          "midi": 34,
          "name": "A#1",
          "ticks": 14404,
          "time": 19.74210739583333,
          "velocity": 0.8976377952755905
        },
        {
          "duration": 0.13705989583333178,
          "durationTicks": 100,
          "midi": 32,
          "name": "G#1",
          "ticks": 14592,
          "time": 19.999779999999998,
          "velocity": 0.8976377952755905
        },
        {
          "duration": 0.11513031250000338,
          "durationTicks": 84,
          "midi": 32,
          "name": "G#1",
          "ticks": 14788,
          "time": 20.26841739583333,
          "velocity": 0.8267716535433071
        },
        {
          "duration": 0.06030635416666641,
          "durationTicks": 44,
          "midi": 32,
          "name": "G#1",
          "ticks": 15168,
          "time": 20.789244999999998,
          "velocity": 0.7952755905511811
        },
        {
          "duration": 0.07675354166666182,
          "durationTicks": 56,
          "midi": 32,
          "name": "G#1",
          "ticks": 15260,
          "time": 20.915340104166667,
          "velocity": 0.8976377952755905
        },
        {
          "duration": 0.1041655208333303,
          "durationTicks": 76,
          "midi": 29,
          "name": "F1",
          "ticks": 15360,
          "time": 21.0524,
          "velocity": 0.8976377952755905
        },
        {
          "duration": 0.07675354166666182,
          "durationTicks": 56,
          "midi": 29,
          "name": "F1",
          "ticks": 15548,
          "time": 21.310072604166667,
          "velocity": 0.937007874015748
        },
        {
          "duration": 0.12061270833333282,
          "durationTicks": 88,
          "midi": 29,
          "name": "F1",
          "ticks": 15648,
          "time": 21.4471325,
          "velocity": 0.937007874015748
        },
        {
          "duration": 0.07675354166666892,
          "durationTicks": 56,
          "midi": 36,
          "name": "C2",
          "ticks": 15844,
          "time": 21.71576989583333,
          "velocity": 0.8503937007874016
        },
        {
          "duration": 0.13705989583333533,
          "durationTicks": 100,
          "midi": 34,
          "name": "A#1",
          "ticks": 15940,
          "time": 21.84734739583333,
          "velocity": 0.937007874015748
        },
        {
          "duration": 0.11513031249999983,
          "durationTicks": 84,
          "midi": 32,
          "name": "G#1",
          "ticks": 16324,
          "time": 22.37365739583333,
          "velocity": 0.8976377952755905
        },
        {
          "duration": 0.0657887499999994,
          "durationTicks": 48,
          "midi": 32,
          "name": "G#1",
          "ticks": 16516,
          "time": 22.63681239583333,
          "velocity": 0.8267716535433071
        },
        {
          "duration": 0.10964791666666684,
          "durationTicks": 80,
          "midi": 32,
          "name": "G#1",
          "ticks": 16612,
          "time": 22.76838989583333,
          "velocity": 0.8976377952755905
        },
        {
          "duration": 0.11513031249999983,
          "durationTicks": 84,
          "midi": 37,
          "name": "C#2",
          "ticks": 16796,
          "time": 23.020580104166665,
          "velocity": 0.7952755905511811
        },
        {
          "duration": 0.08223593750000191,
          "durationTicks": 60,
          "midi": 34,
          "name": "A#1",
          "ticks": 16896,
          "time": 23.157639999999997,
          "velocity": 0.8976377952755905
        },
        {
          "duration": 0.06030635416666641,
          "durationTicks": 44,
          "midi": 34,
          "name": "A#1",
          "ticks": 17092,
          "time": 23.42627739583333,
          "velocity": 0.8976377952755905
        },
        {
          "duration": 0.08771833333333134,
          "durationTicks": 64,
          "midi": 34,
          "name": "A#1",
          "ticks": 17184,
          "time": 23.552372499999997,
          "velocity": 0.937007874015748
        },
        {
          "duration": 0.07127114583333594,
          "durationTicks": 52,
          "midi": 37,
          "name": "C#2",
          "ticks": 17380,
          "time": 23.82100989583333,
          "velocity": 0.8976377952755905
        },
        {
          "duration": 0.08771833333333134,
          "durationTicks": 64,
          "midi": 36,
          "name": "C2",
          "ticks": 17472,
          "time": 23.947104999999997,
          "velocity": 0.8976377952755905
        },
        {
          "duration": 0.09868312500000087,
          "durationTicks": 72,
          "midi": 32,
          "name": "G#1",
          "ticks": 17660,
          "time": 24.204777604166665,
          "velocity": 0.8976377952755905
        },
        {
          "duration": 0.11513031249999983,
          "durationTicks": 84,
          "midi": 34,
          "name": "A#1",
          "ticks": 17852,
          "time": 24.467932604166666,
          "velocity": 0.8267716535433071
        },
        {
          "duration": 0.07675354166666537,
          "durationTicks": 56,
          "midi": 29,
          "name": "F1",
          "ticks": 18236,
          "time": 24.994242604166665,
          "velocity": 0.8503937007874016
        },
        {
          "duration": 0.10416552083333386,
          "durationTicks": 76,
          "midi": 34,
          "name": "A#1",
          "ticks": 18332,
          "time": 25.125820104166664,
          "velocity": 0.8267716535433071
        },
        {
          "duration": 0.06030635416666641,
          "durationTicks": 44,
          "midi": 32,
          "name": "G#1",
          "ticks": 18628,
          "time": 25.53151739583333,
          "velocity": 0.8267716535433071
        },
        {
          "duration": 0.10416552083333741,
          "durationTicks": 76,
          "midi": 34,
          "name": "A#1",
          "ticks": 18724,
          "time": 25.66309489583333,
          "velocity": 0.8976377952755905
        },
        {
          "duration": 0.0657887499999994,
          "durationTicks": 48,
          "midi": 37,
          "name": "C#2",
          "ticks": 18916,
          "time": 25.92624989583333,
          "velocity": 0.8976377952755905
        },
        {
          "duration": 0.12061270833333637,
          "durationTicks": 88,
          "midi": 36,
          "name": "C2",
          "ticks": 19012,
          "time": 26.05782739583333,
          "velocity": 0.937007874015748
        },
        {
          "duration": 0.08223593750000191,
          "durationTicks": 60,
          "midi": 29,
          "name": "F1",
          "ticks": 19776,
          "time": 27.104964999999996,
          "velocity": 0.8976377952755905
        },
        {
          "duration": 0.1096479166666704,
          "durationTicks": 80,
          "midi": 34,
          "name": "A#1",
          "ticks": 19876,
          "time": 27.242024895833328,
          "velocity": 0.937007874015748
        },
        {
          "duration": 0.07675354166666892,
          "durationTicks": 56,
          "midi": 32,
          "name": "G#1",
          "ticks": 20164,
          "time": 27.636757395833328,
          "velocity": 0.8976377952755905
        },
        {
          "duration": 0.10964791666666684,
          "durationTicks": 80,
          "midi": 34,
          "name": "A#1",
          "ticks": 20260,
          "time": 27.76833489583333,
          "velocity": 0.8976377952755905
        },
        {
          "duration": 0.07127114583333594,
          "durationTicks": 52,
          "midi": 37,
          "name": "C#2",
          "ticks": 20452,
          "time": 28.031489895833328,
          "velocity": 0.8267716535433071
        },
        {
          "duration": 0.0877183333333349,
          "durationTicks": 64,
          "midi": 36,
          "name": "C2",
          "ticks": 20548,
          "time": 28.16306739583333,
          "velocity": 0.937007874015748
        },
        {
          "duration": 0.1096479166666704,
          "durationTicks": 80,
          "midi": 32,
          "name": "G#1",
          "ticks": 20740,
          "time": 28.426222395833328,
          "velocity": 0.8976377952755905
        },
        {
          "duration": 0.10964791666666684,
          "durationTicks": 80,
          "midi": 34,
          "name": "A#1",
          "ticks": 20932,
          "time": 28.68937739583333,
          "velocity": 0.8976377952755905
        },
        {
          "duration": 0.07127114583333594,
          "durationTicks": 52,
          "midi": 34,
          "name": "A#1",
          "ticks": 21316,
          "time": 29.215687395833328,
          "velocity": 0.8267716535433071
        },
        {
          "duration": 0.07675354166666892,
          "durationTicks": 56,
          "midi": 34,
          "name": "A#1",
          "ticks": 21408,
          "time": 29.341782499999997,
          "velocity": 0.8976377952755905
        },
        {
          "duration": 0.10964791666666684,
          "durationTicks": 80,
          "midi": 27,
          "name": "D#1",
          "ticks": 21508,
          "time": 29.47884239583333,
          "velocity": 0.8267716535433071
        },
        {
          "duration": 0.08223593749999836,
          "durationTicks": 60,
          "midi": 27,
          "name": "D#1",
          "ticks": 21700,
          "time": 29.74199739583333,
          "velocity": 0.8267716535433071
        },
        {
          "duration": 0.12609510416666936,
          "durationTicks": 92,
          "midi": 27,
          "name": "D#1",
          "ticks": 21796,
          "time": 29.87357489583333,
          "velocity": 0.8976377952755905
        },
        {
          "duration": 0.07675354166666537,
          "durationTicks": 56,
          "midi": 27,
          "name": "D#1",
          "ticks": 21988,
          "time": 30.13672989583333,
          "velocity": 0.7952755905511811
        },
        {
          "duration": 0.09320072916666788,
          "durationTicks": 68,
          "midi": 32,
          "name": "G#1",
          "ticks": 22084,
          "time": 30.26830739583333,
          "velocity": 0.937007874015748
        },
        {
          "duration": 0.06030635416666996,
          "durationTicks": 44,
          "midi": 32,
          "name": "G#1",
          "ticks": 22468,
          "time": 30.794617395833328,
          "velocity": 0.7952755905511811
        },
        {
          "duration": 0.09868312499999732,
          "durationTicks": 72,
          "midi": 32,
          "name": "G#1",
          "ticks": 22564,
          "time": 30.92619489583333,
          "velocity": 0.8976377952755905
        },
        {
          "duration": 0.07127114583333594,
          "durationTicks": 52,
          "midi": 29,
          "name": "F1",
          "ticks": 22852,
          "time": 31.32092739583333,
          "velocity": 0.8976377952755905
        },
        {
          "duration": 0.07127114583333594,
          "durationTicks": 52,
          "midi": 32,
          "name": "G#1",
          "ticks": 22948,
          "time": 31.45250489583333,
          "velocity": 0.9763779527559056
        },
        {
          "duration": 0.08223593749999836,
          "durationTicks": 60,
          "midi": 34,
          "name": "A#1",
          "ticks": 23040,
          "time": 31.578599999999998,
          "velocity": 0.8976377952755905
        },
        {
          "duration": 0.06030635416666641,
          "durationTicks": 44,
          "midi": 34,
          "name": "A#1",
          "ticks": 23236,
          "time": 31.84723739583333,
          "velocity": 0.8976377952755905
        },
        {
          "duration": 0.08771833333332779,
          "durationTicks": 64,
          "midi": 34,
          "name": "A#1",
          "ticks": 23328,
          "time": 31.973332499999998,
          "velocity": 0.937007874015748
        },
        {
          "duration": 0.07127114583333594,
          "durationTicks": 52,
          "midi": 37,
          "name": "C#2",
          "ticks": 23524,
          "time": 32.24196989583333,
          "velocity": 0.8976377952755905
        },
        {
          "duration": 0.0877183333333349,
          "durationTicks": 64,
          "midi": 36,
          "name": "C2",
          "ticks": 23616,
          "time": 32.368064999999994,
          "velocity": 0.8976377952755905
        },
        {
          "duration": 0.09868312500000087,
          "durationTicks": 72,
          "midi": 32,
          "name": "G#1",
          "ticks": 23804,
          "time": 32.625737604166666,
          "velocity": 0.8976377952755905
        },
        {
          "duration": 0.11513031249999983,
          "durationTicks": 84,
          "midi": 34,
          "name": "A#1",
          "ticks": 23996,
          "time": 32.888892604166664,
          "velocity": 0.8267716535433071
        },
        {
          "duration": 0.07675354166666182,
          "durationTicks": 56,
          "midi": 29,
          "name": "F1",
          "ticks": 24380,
          "time": 33.415202604166666,
          "velocity": 0.8503937007874016
        },
        {
          "duration": 0.10416552083333386,
          "durationTicks": 76,
          "midi": 34,
          "name": "A#1",
          "ticks": 24476,
          "time": 33.546780104166665,
          "velocity": 0.8267716535433071
        },
        {
          "duration": 0.06030635416666286,
          "durationTicks": 44,
          "midi": 32,
          "name": "G#1",
          "ticks": 24772,
          "time": 33.952477395833334,
          "velocity": 0.8267716535433071
        },
        {
          "duration": 0.10416552083332675,
          "durationTicks": 76,
          "midi": 34,
          "name": "A#1",
          "ticks": 24868,
          "time": 34.08405489583333,
          "velocity": 0.8976377952755905
        },
        {
          "duration": 0.06578875000000295,
          "durationTicks": 48,
          "midi": 37,
          "name": "C#2",
          "ticks": 25060,
          "time": 34.34720989583333,
          "velocity": 0.8976377952755905
        },
        {
          "duration": 0.12061270833333282,
          "durationTicks": 88,
          "midi": 36,
          "name": "C2",
          "ticks": 25156,
          "time": 34.47878739583333,
          "velocity": 0.937007874015748
        },
        {
          "duration": 0.08223593750000191,
          "durationTicks": 60,
          "midi": 29,
          "name": "F1",
          "ticks": 25920,
          "time": 35.525924999999994,
          "velocity": 0.8976377952755905
        },
        {
          "duration": 0.10964791666666684,
          "durationTicks": 80,
          "midi": 34,
          "name": "A#1",
          "ticks": 26020,
          "time": 35.66298489583333,
          "velocity": 0.937007874015748
        },
        {
          "duration": 0.07675354166666892,
          "durationTicks": 56,
          "midi": 32,
          "name": "G#1",
          "ticks": 26308,
          "time": 36.05771739583333,
          "velocity": 0.8976377952755905
        },
        {
          "duration": 0.10964791666665974,
          "durationTicks": 80,
          "midi": 34,
          "name": "A#1",
          "ticks": 26404,
          "time": 36.189294895833335,
          "velocity": 0.8976377952755905
        },
        {
          "duration": 0.07127114583332883,
          "durationTicks": 52,
          "midi": 37,
          "name": "C#2",
          "ticks": 26596,
          "time": 36.45244989583333,
          "velocity": 0.8267716535433071
        },
        {
          "duration": 0.08771833333332779,
          "durationTicks": 64,
          "midi": 36,
          "name": "C2",
          "ticks": 26692,
          "time": 36.58402739583333,
          "velocity": 0.937007874015748
        },
        {
          "duration": 0.10964791666666684,
          "durationTicks": 80,
          "midi": 32,
          "name": "G#1",
          "ticks": 26884,
          "time": 36.84718239583333,
          "velocity": 0.8976377952755905
        },
        {
          "duration": 0.10964791666665974,
          "durationTicks": 80,
          "midi": 34,
          "name": "A#1",
          "ticks": 27076,
          "time": 37.110337395833334,
          "velocity": 0.8976377952755905
        },
        {
          "duration": 0.07127114583332883,
          "durationTicks": 52,
          "midi": 34,
          "name": "A#1",
          "ticks": 27460,
          "time": 37.63664739583333,
          "velocity": 0.8267716535433071
        },
        {
          "duration": 0.07675354166666892,
          "durationTicks": 56,
          "midi": 34,
          "name": "A#1",
          "ticks": 27552,
          "time": 37.762742499999995,
          "velocity": 0.8976377952755905
        },
        {
          "duration": 0.10964791666665974,
          "durationTicks": 80,
          "midi": 27,
          "name": "D#1",
          "ticks": 27652,
          "time": 37.89980239583333,
          "velocity": 0.8267716535433071
        },
        {
          "duration": 0.08223593750000191,
          "durationTicks": 60,
          "midi": 27,
          "name": "D#1",
          "ticks": 27844,
          "time": 38.16295739583333,
          "velocity": 0.8267716535433071
        },
        {
          "duration": 0.1260951041666658,
          "durationTicks": 92,
          "midi": 27,
          "name": "D#1",
          "ticks": 27940,
          "time": 38.29453489583333,
          "velocity": 0.8976377952755905
        },
        {
          "duration": 0.07675354166666182,
          "durationTicks": 56,
          "midi": 27,
          "name": "D#1",
          "ticks": 28132,
          "time": 38.557689895833335,
          "velocity": 0.7952755905511811
        },
        {
          "duration": 0.09320072916666078,
          "durationTicks": 68,
          "midi": 32,
          "name": "G#1",
          "ticks": 28228,
          "time": 38.68926739583333,
          "velocity": 0.937007874015748
        },
        {
          "duration": 0.06030635416666996,
          "durationTicks": 44,
          "midi": 32,
          "name": "G#1",
          "ticks": 28612,
          "time": 39.21557739583333,
          "velocity": 0.7952755905511811
        },
        {
          "duration": 0.09868312499999377,
          "durationTicks": 72,
          "midi": 32,
          "name": "G#1",
          "ticks": 28708,
          "time": 39.347154895833334,
          "velocity": 0.8976377952755905
        },
        {
          "duration": 0.07127114583332883,
          "durationTicks": 52,
          "midi": 29,
          "name": "F1",
          "ticks": 28996,
          "time": 39.74188739583333,
          "velocity": 0.8976377952755905
        },
        {
          "duration": 0.07127114583332883,
          "durationTicks": 52,
          "midi": 32,
          "name": "G#1",
          "ticks": 29092,
          "time": 39.87346489583333,
          "velocity": 0.9763779527559056
        },
        {
          "duration": 0.08223593750000191,
          "durationTicks": 60,
          "midi": 34,
          "name": "A#1",
          "ticks": 29184,
          "time": 39.999559999999995,
          "velocity": 0.8976377952755905
        },
        {
          "duration": 0.06030635416666286,
          "durationTicks": 44,
          "midi": 34,
          "name": "A#1",
          "ticks": 29380,
          "time": 40.26819739583333,
          "velocity": 0.8976377952755905
        },
        {
          "duration": 0.0877183333333349,
          "durationTicks": 64,
          "midi": 34,
          "name": "A#1",
          "ticks": 29472,
          "time": 40.3942925,
          "velocity": 0.937007874015748
        },
        {
          "duration": 0.07127114583332883,
          "durationTicks": 52,
          "midi": 37,
          "name": "C#2",
          "ticks": 29668,
          "time": 40.66292989583333,
          "velocity": 0.8976377952755905
        },
        {
          "duration": 0.0877183333333349,
          "durationTicks": 64,
          "midi": 36,
          "name": "C2",
          "ticks": 29760,
          "time": 40.789024999999995,
          "velocity": 0.8976377952755905
        },
        {
          "duration": 0.09868312500000087,
          "durationTicks": 72,
          "midi": 32,
          "name": "G#1",
          "ticks": 29948,
          "time": 41.04669760416666,
          "velocity": 0.8976377952755905
        },
        {
          "duration": 0.11513031249999983,
          "durationTicks": 84,
          "midi": 34,
          "name": "A#1",
          "ticks": 30140,
          "time": 41.30985260416666,
          "velocity": 0.8267716535433071
        },
        {
          "duration": 0.07675354166666892,
          "durationTicks": 56,
          "midi": 29,
          "name": "F1",
          "ticks": 30524,
          "time": 41.83616260416666,
          "velocity": 0.8503937007874016
        },
        {
          "duration": 0.10416552083333386,
          "durationTicks": 76,
          "midi": 34,
          "name": "A#1",
          "ticks": 30620,
          "time": 41.96774010416666,
          "velocity": 0.8267716535433071
        },
        {
          "duration": 0.06030635416666996,
          "durationTicks": 44,
          "midi": 32,
          "name": "G#1",
          "ticks": 30916,
          "time": 42.37343739583333,
          "velocity": 0.8267716535433071
        },
        {
          "duration": 0.10416552083332675,
          "durationTicks": 76,
          "midi": 34,
          "name": "A#1",
          "ticks": 31012,
          "time": 42.505014895833334,
          "velocity": 0.8976377952755905
        },
        {
          "duration": 0.06578875000000295,
          "durationTicks": 48,
          "midi": 37,
          "name": "C#2",
          "ticks": 31204,
          "time": 42.76816989583333,
          "velocity": 0.8976377952755905
        },
        {
          "duration": 0.12061270833333282,
          "durationTicks": 88,
          "midi": 36,
          "name": "C2",
          "ticks": 31300,
          "time": 42.89974739583333,
          "velocity": 0.937007874015748
        },
        {
          "duration": 0.08223593750000191,
          "durationTicks": 60,
          "midi": 29,
          "name": "F1",
          "ticks": 32064,
          "time": 43.946884999999995,
          "velocity": 0.8976377952755905
        },
        {
          "duration": 0.10964791666665974,
          "durationTicks": 80,
          "midi": 34,
          "name": "A#1",
          "ticks": 32164,
          "time": 44.08394489583333,
          "velocity": 0.937007874015748
        },
        {
          "duration": 0.07675354166666892,
          "durationTicks": 56,
          "midi": 32,
          "name": "G#1",
          "ticks": 32452,
          "time": 44.47867739583333,
          "velocity": 0.8976377952755905
        },
        {
          "duration": 0.10964791666666684,
          "durationTicks": 80,
          "midi": 34,
          "name": "A#1",
          "ticks": 32548,
          "time": 44.61025489583333,
          "velocity": 0.8976377952755905
        },
        {
          "duration": 0.07127114583332883,
          "durationTicks": 52,
          "midi": 37,
          "name": "C#2",
          "ticks": 32740,
          "time": 44.87340989583333,
          "velocity": 0.8267716535433071
        },
        {
          "duration": 0.08771833333332779,
          "durationTicks": 64,
          "midi": 36,
          "name": "C2",
          "ticks": 32836,
          "time": 45.00498739583333,
          "velocity": 0.937007874015748
        },
        {
          "duration": 0.10964791666666684,
          "durationTicks": 80,
          "midi": 32,
          "name": "G#1",
          "ticks": 33028,
          "time": 45.26814239583333,
          "velocity": 0.8976377952755905
        },
        {
          "duration": 0.10964791666665974,
          "durationTicks": 80,
          "midi": 34,
          "name": "A#1",
          "ticks": 33220,
          "time": 45.531297395833334,
          "velocity": 0.8976377952755905
        },
        {
          "duration": 0.07127114583333594,
          "durationTicks": 52,
          "midi": 32,
          "name": "G#1",
          "ticks": 33600,
          "time": 46.052125,
          "velocity": 0.8267716535433071
        },
        {
          "duration": 0.07675354166666182,
          "durationTicks": 56,
          "midi": 34,
          "name": "A#1",
          "ticks": 33696,
          "time": 46.183702499999995,
          "velocity": 0.8976377952755905
        },
        {
          "duration": 0.10964791666666684,
          "durationTicks": 80,
          "midi": 34,
          "name": "A#1",
          "ticks": 33792,
          "time": 46.315279999999994,
          "velocity": 0.8267716535433071
        },
        {
          "duration": 0.08223593750000191,
          "durationTicks": 60,
          "midi": 32,
          "name": "G#1",
          "ticks": 33984,
          "time": 46.57843499999999,
          "velocity": 0.8267716535433071
        },
        {
          "duration": 0.1260951041666587,
          "durationTicks": 92,
          "midi": 34,
          "name": "A#1",
          "ticks": 34080,
          "time": 46.7100125,
          "velocity": 0.8976377952755905
        },
        {
          "duration": 0.07675354166666182,
          "durationTicks": 56,
          "midi": 37,
          "name": "C#2",
          "ticks": 34272,
          "time": 46.973167499999995,
          "velocity": 0.7952755905511811
        },
        {
          "duration": 0.09320072916666788,
          "durationTicks": 68,
          "midi": 36,
          "name": "C2",
          "ticks": 34368,
          "time": 47.104744999999994,
          "velocity": 0.937007874015748
        },
        {
          "duration": 0.07127114583333594,
          "durationTicks": 52,
          "midi": 32,
          "name": "G#1",
          "ticks": 35136,
          "time": 48.15736499999999,
          "velocity": 0.8976377952755905
        },
        {
          "duration": 0.07127114583333594,
          "durationTicks": 52,
          "midi": 34,
          "name": "A#1",
          "ticks": 35232,
          "time": 48.2889425,
          "velocity": 0.9763779527559056
        },
        {
          "duration": 0.11513031249999983,
          "durationTicks": 84,
          "midi": 27,
          "name": "D#1",
          "ticks": 35328,
          "time": 48.420519999999996,
          "velocity": 0.8267716535433071
        },
        {
          "duration": 0.09320072916666788,
          "durationTicks": 68,
          "midi": 27,
          "name": "D#1",
          "ticks": 35516,
          "time": 48.67819260416666,
          "velocity": 0.8976377952755905
        },
        {
          "duration": 0.10416552083334096,
          "durationTicks": 76,
          "midi": 27,
          "name": "D#1",
          "ticks": 35616,
          "time": 48.81525249999999,
          "velocity": 0.8267716535433071
        },
        {
          "duration": 0.09320072916667499,
          "durationTicks": 68,
          "midi": 36,
          "name": "C2",
          "ticks": 35804,
          "time": 49.07292510416666,
          "velocity": 0.8503937007874016
        },
        {
          "duration": 0.09868312500000087,
          "durationTicks": 72,
          "midi": 34,
          "name": "A#1",
          "ticks": 35900,
          "time": 49.204502604166656,
          "velocity": 0.8976377952755905
        },
        {
          "duration": 0.12061270833333282,
          "durationTicks": 88,
          "midi": 32,
          "name": "G#1",
          "ticks": 36092,
          "time": 49.46765760416666,
          "velocity": 0.8267716535433071
        },
        {
          "duration": 0.14254229166667187,
          "durationTicks": 104,
          "midi": 32,
          "name": "G#1",
          "ticks": 36284,
          "time": 49.73081260416666,
          "velocity": 0.937007874015748
        },
        {
          "duration": 0.11513031249999983,
          "durationTicks": 84,
          "midi": 27,
          "name": "D#1",
          "ticks": 36668,
          "time": 50.25712260416666,
          "velocity": 0.7716535433070866
        },
        {
          "duration": 0.07675354166666892,
          "durationTicks": 56,
          "midi": 32,
          "name": "G#1",
          "ticks": 36768,
          "time": 50.39418249999999,
          "velocity": 0.7716535433070866
        },
        {
          "duration": 0.12061270833333992,
          "durationTicks": 88,
          "midi": 29,
          "name": "F1",
          "ticks": 36864,
          "time": 50.52575999999999,
          "velocity": 0.8976377952755905
        },
        {
          "duration": 0.08223593750000191,
          "durationTicks": 60,
          "midi": 29,
          "name": "F1",
          "ticks": 37052,
          "time": 50.783432604166656,
          "velocity": 0.8503937007874016
        },
        {
          "duration": 0.12061270833333282,
          "durationTicks": 88,
          "midi": 29,
          "name": "F1",
          "ticks": 37148,
          "time": 50.91501010416666,
          "velocity": 0.8503937007874016
        },
        {
          "duration": 0.10964791666665974,
          "durationTicks": 80,
          "midi": 36,
          "name": "C2",
          "ticks": 37348,
          "time": 51.18912989583333,
          "velocity": 0.8503937007874016
        },
        {
          "duration": 0.1315774999999988,
          "durationTicks": 96,
          "midi": 34,
          "name": "A#1",
          "ticks": 37444,
          "time": 51.32070739583333,
          "velocity": 0.8976377952755905
        },
        {
          "duration": 0.07127114583332883,
          "durationTicks": 52,
          "midi": 34,
          "name": "A#1",
          "ticks": 37828,
          "time": 51.84701739583333,
          "velocity": 0.8267716535433071
        },
        {
          "duration": 0.07127114583332883,
          "durationTicks": 52,
          "midi": 34,
          "name": "A#1",
          "ticks": 37924,
          "time": 51.97859489583333,
          "velocity": 0.8976377952755905
        },
        {
          "duration": 0.08223593750000191,
          "durationTicks": 60,
          "midi": 34,
          "name": "A#1",
          "ticks": 38020,
          "time": 52.11017239583333,
          "velocity": 0.937007874015748
        },
        {
          "duration": 0.09868312500000087,
          "durationTicks": 72,
          "midi": 36,
          "name": "C2",
          "ticks": 38116,
          "time": 52.24174989583333,
          "velocity": 0.8503937007874016
        },
        {
          "duration": 0.07675354166666892,
          "durationTicks": 56,
          "midi": 34,
          "name": "A#1",
          "ticks": 38308,
          "time": 52.50490489583333,
          "velocity": 0.8267716535433071
        },
        {
          "duration": 0.10964791666665974,
          "durationTicks": 80,
          "midi": 27,
          "name": "D#1",
          "ticks": 38404,
          "time": 52.63648239583333,
          "velocity": 0.8267716535433071
        },
        {
          "duration": 0.08223593750000191,
          "durationTicks": 60,
          "midi": 27,
          "name": "D#1",
          "ticks": 38588,
          "time": 52.88867260416666,
          "velocity": 0.8267716535433071
        },
        {
          "duration": 0.12061270833332571,
          "durationTicks": 88,
          "midi": 27,
          "name": "D#1",
          "ticks": 38692,
          "time": 53.03121489583333,
          "velocity": 0.7952755905511811
        },
        {
          "duration": 0.0877183333333349,
          "durationTicks": 64,
          "midi": 36,
          "name": "C2",
          "ticks": 38884,
          "time": 53.29436989583333,
          "velocity": 0.8267716535433071
        },
        {
          "duration": 0.12061270833332571,
          "durationTicks": 88,
          "midi": 34,
          "name": "A#1",
          "ticks": 38980,
          "time": 53.42594739583333,
          "velocity": 0.8976377952755905
        },
        {
          "duration": 0.13705989583333178,
          "durationTicks": 100,
          "midi": 32,
          "name": "G#1",
          "ticks": 39168,
          "time": 53.68362,
          "velocity": 0.8976377952755905
        },
        {
          "duration": 0.11513031249999983,
          "durationTicks": 84,
          "midi": 32,
          "name": "G#1",
          "ticks": 39364,
          "time": 53.95225739583333,
          "velocity": 0.8267716535433071
        },
        {
          "duration": 0.06030635416666286,
          "durationTicks": 44,
          "midi": 32,
          "name": "G#1",
          "ticks": 39744,
          "time": 54.473085,
          "velocity": 0.7952755905511811
        },
        {
          "duration": 0.07675354166667603,
          "durationTicks": 56,
          "midi": 32,
          "name": "G#1",
          "ticks": 39836,
          "time": 54.599180104166656,
          "velocity": 0.8976377952755905
        },
        {
          "duration": 0.10416552083333386,
          "durationTicks": 76,
          "midi": 29,
          "name": "F1",
          "ticks": 39936,
          "time": 54.736239999999995,
          "velocity": 0.8976377952755905
        },
        {
          "duration": 0.07675354166666892,
          "durationTicks": 56,
          "midi": 29,
          "name": "F1",
          "ticks": 40124,
          "time": 54.99391260416666,
          "velocity": 0.937007874015748
        },
        {
          "duration": 0.12061270833333992,
          "durationTicks": 88,
          "midi": 29,
          "name": "F1",
          "ticks": 40224,
          "time": 55.13097249999999,
          "velocity": 0.937007874015748
        },
        {
          "duration": 0.07675354166666182,
          "durationTicks": 56,
          "midi": 36,
          "name": "C2",
          "ticks": 40420,
          "time": 55.39960989583333,
          "velocity": 0.8503937007874016
        },
        {
          "duration": 0.13705989583333178,
          "durationTicks": 100,
          "midi": 34,
          "name": "A#1",
          "ticks": 40516,
          "time": 55.53118739583333,
          "velocity": 0.937007874015748
        },
        {
          "duration": 0.11513031249999983,
          "durationTicks": 84,
          "midi": 32,
          "name": "G#1",
          "ticks": 40900,
          "time": 56.05749739583333,
          "velocity": 0.8976377952755905
        },
        {
          "duration": 0.06578875000000295,
          "durationTicks": 48,
          "midi": 32,
          "name": "G#1",
          "ticks": 41092,
          "time": 56.32065239583333,
          "velocity": 0.8267716535433071
        },
        {
          "duration": 0.10964791666666684,
          "durationTicks": 80,
          "midi": 32,
          "name": "G#1",
          "ticks": 41188,
          "time": 56.45222989583333,
          "velocity": 0.8976377952755905
        },
        {
          "duration": 0.11513031249999983,
          "durationTicks": 84,
          "midi": 37,
          "name": "C#2",
          "ticks": 41372,
          "time": 56.70442010416666,
          "velocity": 0.7952755905511811
        },
        {
          "duration": 0.11513031249999983,
          "durationTicks": 84,
          "midi": 27,
          "name": "D#1",
          "ticks": 41472,
          "time": 56.84148,
          "velocity": 0.8267716535433071
        },
        {
          "duration": 0.09320072916667499,
          "durationTicks": 68,
          "midi": 27,
          "name": "D#1",
          "ticks": 41660,
          "time": 57.099152604166655,
          "velocity": 0.8976377952755905
        },
        {
          "duration": 0.10416552083333386,
          "durationTicks": 76,
          "midi": 27,
          "name": "D#1",
          "ticks": 41760,
          "time": 57.23621249999999,
          "velocity": 0.8267716535433071
        },
        {
          "duration": 0.09320072916667499,
          "durationTicks": 68,
          "midi": 36,
          "name": "C2",
          "ticks": 41948,
          "time": 57.49388510416666,
          "velocity": 0.8503937007874016
        },
        {
          "duration": 0.09868312500000087,
          "durationTicks": 72,
          "midi": 34,
          "name": "A#1",
          "ticks": 42044,
          "time": 57.62546260416666,
          "velocity": 0.8976377952755905
        },
        {
          "duration": 0.12061270833333282,
          "durationTicks": 88,
          "midi": 32,
          "name": "G#1",
          "ticks": 42236,
          "time": 57.88861760416666,
          "velocity": 0.8267716535433071
        },
        {
          "duration": 0.14254229166667187,
          "durationTicks": 104,
          "midi": 32,
          "name": "G#1",
          "ticks": 42428,
          "time": 58.15177260416666,
          "velocity": 0.937007874015748
        },
        {
          "duration": 0.11513031249999983,
          "durationTicks": 84,
          "midi": 27,
          "name": "D#1",
          "ticks": 42812,
          "time": 58.67808260416666,
          "velocity": 0.7716535433070866
        },
        {
          "duration": 0.07675354166666182,
          "durationTicks": 56,
          "midi": 32,
          "name": "G#1",
          "ticks": 42912,
          "time": 58.81514249999999,
          "velocity": 0.7716535433070866
        },
        {
          "duration": 0.12061270833333992,
          "durationTicks": 88,
          "midi": 29,
          "name": "F1",
          "ticks": 43008,
          "time": 58.94671999999999,
          "velocity": 0.8976377952755905
        },
        {
          "duration": 0.08223593750000191,
          "durationTicks": 60,
          "midi": 29,
          "name": "F1",
          "ticks": 43196,
          "time": 59.20439260416666,
          "velocity": 0.8503937007874016
        },
        {
          "duration": 0.12061270833333992,
          "durationTicks": 88,
          "midi": 29,
          "name": "F1",
          "ticks": 43292,
          "time": 59.335970104166655,
          "velocity": 0.8503937007874016
        },
        {
          "duration": 0.10964791666666684,
          "durationTicks": 80,
          "midi": 36,
          "name": "C2",
          "ticks": 43492,
          "time": 59.610089895833326,
          "velocity": 0.8503937007874016
        },
        {
          "duration": 0.1315774999999988,
          "durationTicks": 96,
          "midi": 34,
          "name": "A#1",
          "ticks": 43588,
          "time": 59.74166739583333,
          "velocity": 0.8976377952755905
        },
        {
          "duration": 0.07127114583332883,
          "durationTicks": 52,
          "midi": 34,
          "name": "A#1",
          "ticks": 43972,
          "time": 60.26797739583333,
          "velocity": 0.8267716535433071
        },
        {
          "duration": 0.07127114583332883,
          "durationTicks": 52,
          "midi": 34,
          "name": "A#1",
          "ticks": 44068,
          "time": 60.399554895833326,
          "velocity": 0.8976377952755905
        },
        {
          "duration": 0.0822359374999948,
          "durationTicks": 60,
          "midi": 34,
          "name": "A#1",
          "ticks": 44164,
          "time": 60.53113239583333,
          "velocity": 0.937007874015748
        },
        {
          "duration": 0.09868312500000087,
          "durationTicks": 72,
          "midi": 36,
          "name": "C2",
          "ticks": 44260,
          "time": 60.66270989583333,
          "velocity": 0.8503937007874016
        },
        {
          "duration": 0.07675354166666182,
          "durationTicks": 56,
          "midi": 34,
          "name": "A#1",
          "ticks": 44452,
          "time": 60.92586489583333,
          "velocity": 0.8267716535433071
        },
        {
          "duration": 0.10964791666666684,
          "durationTicks": 80,
          "midi": 27,
          "name": "D#1",
          "ticks": 44548,
          "time": 61.05744239583333,
          "velocity": 0.8267716535433071
        },
        {
          "duration": 0.08223593750000191,
          "durationTicks": 60,
          "midi": 27,
          "name": "D#1",
          "ticks": 44732,
          "time": 61.30963260416666,
          "velocity": 0.8267716535433071
        },
        {
          "duration": 0.12061270833332571,
          "durationTicks": 88,
          "midi": 27,
          "name": "D#1",
          "ticks": 44836,
          "time": 61.45217489583333,
          "velocity": 0.7952755905511811
        },
        {
          "duration": 0.08771833333332779,
          "durationTicks": 64,
          "midi": 36,
          "name": "C2",
          "ticks": 45028,
          "time": 61.71532989583333,
          "velocity": 0.8267716535433071
        },
        {
          "duration": 0.12061270833333282,
          "durationTicks": 88,
          "midi": 34,
          "name": "A#1",
          "ticks": 45124,
          "time": 61.84690739583333,
          "velocity": 0.8976377952755905
        },
        {
          "duration": 0.13705989583333889,
          "durationTicks": 100,
          "midi": 32,
          "name": "G#1",
          "ticks": 45312,
          "time": 62.10457999999999,
          "velocity": 0.8976377952755905
        },
        {
          "duration": 0.11513031249999983,
          "durationTicks": 84,
          "midi": 32,
          "name": "G#1",
          "ticks": 45508,
          "time": 62.37321739583333,
          "velocity": 0.8267716535433071
        },
        {
          "duration": 0.06030635416666286,
          "durationTicks": 44,
          "midi": 32,
          "name": "G#1",
          "ticks": 45888,
          "time": 62.89404499999999,
          "velocity": 0.7952755905511811
        },
        {
          "duration": 0.07675354166666892,
          "durationTicks": 56,
          "midi": 32,
          "name": "G#1",
          "ticks": 45980,
          "time": 63.02014010416666,
          "velocity": 0.8976377952755905
        },
        {
          "duration": 0.10416552083333386,
          "durationTicks": 76,
          "midi": 29,
          "name": "F1",
          "ticks": 46080,
          "time": 63.157199999999996,
          "velocity": 0.8976377952755905
        },
        {
          "duration": 0.07675354166666892,
          "durationTicks": 56,
          "midi": 29,
          "name": "F1",
          "ticks": 46268,
          "time": 63.41487260416666,
          "velocity": 0.937007874015748
        },
        {
          "duration": 0.12061270833333992,
          "durationTicks": 88,
          "midi": 29,
          "name": "F1",
          "ticks": 46368,
          "time": 63.55193249999999,
          "velocity": 0.937007874015748
        },
        {
          "duration": 0.07675354166666182,
          "durationTicks": 56,
          "midi": 36,
          "name": "C2",
          "ticks": 46564,
          "time": 63.82056989583333,
          "velocity": 0.8503937007874016
        },
        {
          "duration": 0.13705989583332467,
          "durationTicks": 100,
          "midi": 34,
          "name": "A#1",
          "ticks": 46660,
          "time": 63.95214739583333,
          "velocity": 0.937007874015748
        },
        {
          "duration": 0.11513031249999983,
          "durationTicks": 84,
          "midi": 32,
          "name": "G#1",
          "ticks": 47044,
          "time": 64.47845739583333,
          "velocity": 0.8976377952755905
        },
        {
          "duration": 0.06578874999999584,
          "durationTicks": 48,
          "midi": 32,
          "name": "G#1",
          "ticks": 47236,
          "time": 64.74161239583333,
          "velocity": 0.8267716535433071
        },
        {
          "duration": 0.10964791666665974,
          "durationTicks": 80,
          "midi": 32,
          "name": "G#1",
          "ticks": 47332,
          "time": 64.87318989583333,
          "velocity": 0.8976377952755905
        },
        {
          "duration": 0.11513031249999983,
          "durationTicks": 84,
          "midi": 37,
          "name": "C#2",
          "ticks": 47516,
          "time": 65.12538010416665,
          "velocity": 0.7952755905511811
        },
        {
          "duration": 0.08223593750000191,
          "durationTicks": 60,
          "midi": 34,
          "name": "A#1",
          "ticks": 47616,
          "time": 65.26244,
          "velocity": 0.8976377952755905
        },
        {
          "duration": 0.06030635416665575,
          "durationTicks": 44,
          "midi": 34,
          "name": "A#1",
          "ticks": 47812,
          "time": 65.53107739583334,
          "velocity": 0.8976377952755905
        },
        {
          "duration": 0.087718333333342,
          "durationTicks": 64,
          "midi": 34,
          "name": "A#1",
          "ticks": 47904,
          "time": 65.65717249999999,
          "velocity": 0.937007874015748
        },
        {
          "duration": 0.07127114583333594,
          "durationTicks": 52,
          "midi": 37,
          "name": "C#2",
          "ticks": 48100,
          "time": 65.92580989583332,
          "velocity": 0.8976377952755905
        },
        {
          "duration": 0.087718333333342,
          "durationTicks": 64,
          "midi": 36,
          "name": "C2",
          "ticks": 48192,
          "time": 66.05190499999999,
          "velocity": 0.8976377952755905
        },
        {
          "duration": 0.09868312499999377,
          "durationTicks": 72,
          "midi": 32,
          "name": "G#1",
          "ticks": 48380,
          "time": 66.30957760416666,
          "velocity": 0.8976377952755905
        },
        {
          "duration": 0.11513031249999983,
          "durationTicks": 84,
          "midi": 34,
          "name": "A#1",
          "ticks": 48572,
          "time": 66.57273260416666,
          "velocity": 0.8267716535433071
        },
        {
          "duration": 0.07675354166667603,
          "durationTicks": 56,
          "midi": 29,
          "name": "F1",
          "ticks": 48956,
          "time": 67.09904260416666,
          "velocity": 0.8503937007874016
        },
        {
          "duration": 0.10416552083333386,
          "durationTicks": 76,
          "midi": 34,
          "name": "A#1",
          "ticks": 49052,
          "time": 67.23062010416666,
          "velocity": 0.8267716535433071
        },
        {
          "duration": 0.06030635416666996,
          "durationTicks": 44,
          "midi": 32,
          "name": "G#1",
          "ticks": 49348,
          "time": 67.63631739583332,
          "velocity": 0.8267716535433071
        },
        {
          "duration": 0.10416552083334807,
          "durationTicks": 76,
          "midi": 34,
          "name": "A#1",
          "ticks": 49444,
          "time": 67.76789489583332,
          "velocity": 0.8976377952755905
        },
        {
          "duration": 0.06578874999999584,
          "durationTicks": 48,
          "midi": 37,
          "name": "C#2",
          "ticks": 49636,
          "time": 68.03104989583332,
          "velocity": 0.8976377952755905
        },
        {
          "duration": 0.12061270833333992,
          "durationTicks": 88,
          "midi": 36,
          "name": "C2",
          "ticks": 49732,
          "time": 68.16262739583333,
          "velocity": 0.937007874015748
        },
        {
          "duration": 0.08223593750000191,
          "durationTicks": 60,
          "midi": 29,
          "name": "F1",
          "ticks": 50496,
          "time": 69.20976499999999,
          "velocity": 0.8976377952755905
        },
        {
          "duration": 0.10964791666667395,
          "durationTicks": 80,
          "midi": 34,
          "name": "A#1",
          "ticks": 50596,
          "time": 69.34682489583332,
          "velocity": 0.937007874015748
        },
        {
          "duration": 0.07675354166666182,
          "durationTicks": 56,
          "midi": 32,
          "name": "G#1",
          "ticks": 50884,
          "time": 69.74155739583333,
          "velocity": 0.8976377952755905
        },
        {
          "duration": 0.10964791666667395,
          "durationTicks": 80,
          "midi": 34,
          "name": "A#1",
          "ticks": 50980,
          "time": 69.87313489583332,
          "velocity": 0.8976377952755905
        },
        {
          "duration": 0.07127114583335015,
          "durationTicks": 52,
          "midi": 37,
          "name": "C#2",
          "ticks": 51172,
          "time": 70.13628989583331,
          "velocity": 0.8267716535433071
        },
        {
          "duration": 0.087718333333342,
          "durationTicks": 64,
          "midi": 36,
          "name": "C2",
          "ticks": 51268,
          "time": 70.26786739583332,
          "velocity": 0.937007874015748
        },
        {
          "duration": 0.10964791666667395,
          "durationTicks": 80,
          "midi": 32,
          "name": "G#1",
          "ticks": 51460,
          "time": 70.53102239583332,
          "velocity": 0.8976377952755905
        },
        {
          "duration": 0.10964791666667395,
          "durationTicks": 80,
          "midi": 34,
          "name": "A#1",
          "ticks": 51652,
          "time": 70.79417739583332,
          "velocity": 0.8976377952755905
        },
        {
          "duration": 0.07127114583333594,
          "durationTicks": 52,
          "midi": 34,
          "name": "A#1",
          "ticks": 52036,
          "time": 71.32048739583333,
          "velocity": 0.8267716535433071
        },
        {
          "duration": 0.07675354166667603,
          "durationTicks": 56,
          "midi": 34,
          "name": "A#1",
          "ticks": 52128,
          "time": 71.44658249999999,
          "velocity": 0.8976377952755905
        },
        {
          "duration": 0.10964791666667395,
          "durationTicks": 80,
          "midi": 27,
          "name": "D#1",
          "ticks": 52228,
          "time": 71.58364239583332,
          "velocity": 0.8267716535433071
        },
        {
          "duration": 0.08223593750000191,
          "durationTicks": 60,
          "midi": 27,
          "name": "D#1",
          "ticks": 52420,
          "time": 71.84679739583332,
          "velocity": 0.8267716535433071
        },
        {
          "duration": 0.1260951041666658,
          "durationTicks": 92,
          "midi": 27,
          "name": "D#1",
          "ticks": 52516,
          "time": 71.97837489583333,
          "velocity": 0.8976377952755905
        },
        {
          "duration": 0.07675354166666182,
          "durationTicks": 56,
          "midi": 27,
          "name": "D#1",
          "ticks": 52708,
          "time": 72.24152989583332,
          "velocity": 0.7952755905511811
        },
        {
          "duration": 0.0932007291666821,
          "durationTicks": 68,
          "midi": 32,
          "name": "G#1",
          "ticks": 52804,
          "time": 72.37310739583332,
          "velocity": 0.937007874015748
        },
        {
          "duration": 0.06030635416666996,
          "durationTicks": 44,
          "midi": 32,
          "name": "G#1",
          "ticks": 53188,
          "time": 72.89941739583332,
          "velocity": 0.7952755905511811
        },
        {
          "duration": 0.09868312500000798,
          "durationTicks": 72,
          "midi": 32,
          "name": "G#1",
          "ticks": 53284,
          "time": 73.03099489583332,
          "velocity": 0.8976377952755905
        },
        {
          "duration": 0.07127114583335015,
          "durationTicks": 52,
          "midi": 29,
          "name": "F1",
          "ticks": 53572,
          "time": 73.42572739583332,
          "velocity": 0.8976377952755905
        },
        {
          "duration": 0.07127114583333594,
          "durationTicks": 52,
          "midi": 32,
          "name": "G#1",
          "ticks": 53668,
          "time": 73.55730489583333,
          "velocity": 0.9763779527559056
        },
        {
          "duration": 0.08223593750000191,
          "durationTicks": 60,
          "midi": 34,
          "name": "A#1",
          "ticks": 53760,
          "time": 73.68339999999999,
          "velocity": 0.8976377952755905
        },
        {
          "duration": 0.06030635416666996,
          "durationTicks": 44,
          "midi": 34,
          "name": "A#1",
          "ticks": 53956,
          "time": 73.95203739583332,
          "velocity": 0.8976377952755905
        },
        {
          "duration": 0.08771833333332779,
          "durationTicks": 64,
          "midi": 34,
          "name": "A#1",
          "ticks": 54048,
          "time": 74.0781325,
          "velocity": 0.937007874015748
        },
        {
          "duration": 0.07127114583335015,
          "durationTicks": 52,
          "midi": 37,
          "name": "C#2",
          "ticks": 54244,
          "time": 74.34676989583332,
          "velocity": 0.8976377952755905
        },
        {
          "duration": 0.08771833333332779,
          "durationTicks": 64,
          "midi": 36,
          "name": "C2",
          "ticks": 54336,
          "time": 74.472865,
          "velocity": 0.8976377952755905
        },
        {
          "duration": 0.09868312499999377,
          "durationTicks": 72,
          "midi": 32,
          "name": "G#1",
          "ticks": 54524,
          "time": 74.73053760416667,
          "velocity": 0.8976377952755905
        },
        {
          "duration": 0.11513031249999983,
          "durationTicks": 84,
          "midi": 34,
          "name": "A#1",
          "ticks": 54716,
          "time": 74.99369260416667,
          "velocity": 0.8267716535433071
        },
        {
          "duration": 0.07675354166666182,
          "durationTicks": 56,
          "midi": 29,
          "name": "F1",
          "ticks": 55100,
          "time": 75.52000260416666,
          "velocity": 0.8503937007874016
        },
        {
          "duration": 0.10416552083331965,
          "durationTicks": 76,
          "midi": 34,
          "name": "A#1",
          "ticks": 55196,
          "time": 75.65158010416667,
          "velocity": 0.8267716535433071
        },
        {
          "duration": 0.06030635416666996,
          "durationTicks": 44,
          "midi": 32,
          "name": "G#1",
          "ticks": 55492,
          "time": 76.05727739583332,
          "velocity": 0.8267716535433071
        },
        {
          "duration": 0.10416552083334807,
          "durationTicks": 76,
          "midi": 34,
          "name": "A#1",
          "ticks": 55588,
          "time": 76.18885489583332,
          "velocity": 0.8976377952755905
        },
        {
          "duration": 0.06578875000001005,
          "durationTicks": 48,
          "midi": 37,
          "name": "C#2",
          "ticks": 55780,
          "time": 76.45200989583331,
          "velocity": 0.8976377952755905
        },
        {
          "duration": 0.12061270833333992,
          "durationTicks": 88,
          "midi": 36,
          "name": "C2",
          "ticks": 55876,
          "time": 76.58358739583332,
          "velocity": 0.937007874015748
        },
        {
          "duration": 0.0822359374999877,
          "durationTicks": 60,
          "midi": 29,
          "name": "F1",
          "ticks": 56640,
          "time": 77.630725,
          "velocity": 0.8976377952755905
        },
        {
          "duration": 0.10964791666667395,
          "durationTicks": 80,
          "midi": 34,
          "name": "A#1",
          "ticks": 56740,
          "time": 77.76778489583332,
          "velocity": 0.937007874015748
        },
        {
          "duration": 0.07675354166667603,
          "durationTicks": 56,
          "midi": 32,
          "name": "G#1",
          "ticks": 57028,
          "time": 78.16251739583332,
          "velocity": 0.8976377952755905
        },
        {
          "duration": 0.10964791666665974,
          "durationTicks": 80,
          "midi": 34,
          "name": "A#1",
          "ticks": 57124,
          "time": 78.29409489583333,
          "velocity": 0.8976377952755905
        },
        {
          "duration": 0.07127114583333594,
          "durationTicks": 52,
          "midi": 37,
          "name": "C#2",
          "ticks": 57316,
          "time": 78.55724989583332,
          "velocity": 0.8267716535433071
        },
        {
          "duration": 0.087718333333342,
          "durationTicks": 64,
          "midi": 36,
          "name": "C2",
          "ticks": 57412,
          "time": 78.68882739583331,
          "velocity": 0.937007874015748
        },
        {
          "duration": 0.10964791666665974,
          "durationTicks": 80,
          "midi": 32,
          "name": "G#1",
          "ticks": 57604,
          "time": 78.95198239583333,
          "velocity": 0.8976377952755905
        },
        {
          "duration": 0.10964791666667395,
          "durationTicks": 80,
          "midi": 34,
          "name": "A#1",
          "ticks": 57796,
          "time": 79.21513739583332,
          "velocity": 0.8976377952755905
        },
        {
          "duration": 0.07127114583335015,
          "durationTicks": 52,
          "midi": 34,
          "name": "A#1",
          "ticks": 58180,
          "time": 79.74144739583332,
          "velocity": 0.8267716535433071
        },
        {
          "duration": 0.07675354166667603,
          "durationTicks": 56,
          "midi": 34,
          "name": "A#1",
          "ticks": 58272,
          "time": 79.86754249999998,
          "velocity": 0.8976377952755905
        },
        {
          "duration": 0.10964791666667395,
          "durationTicks": 80,
          "midi": 27,
          "name": "D#1",
          "ticks": 58372,
          "time": 80.00460239583332,
          "velocity": 0.8267716535433071
        },
        {
          "duration": 0.08223593750000191,
          "durationTicks": 60,
          "midi": 27,
          "name": "D#1",
          "ticks": 58564,
          "time": 80.26775739583331,
          "velocity": 0.8267716535433071
        },
        {
          "duration": 0.1260951041666658,
          "durationTicks": 92,
          "midi": 27,
          "name": "D#1",
          "ticks": 58660,
          "time": 80.39933489583332,
          "velocity": 0.8976377952755905
        },
        {
          "duration": 0.07675354166667603,
          "durationTicks": 56,
          "midi": 27,
          "name": "D#1",
          "ticks": 58852,
          "time": 80.66248989583332,
          "velocity": 0.7952755905511811
        },
        {
          "duration": 0.09320072916666788,
          "durationTicks": 68,
          "midi": 32,
          "name": "G#1",
          "ticks": 58948,
          "time": 80.79406739583332,
          "velocity": 0.937007874015748
        },
        {
          "duration": 0.06030635416666996,
          "durationTicks": 44,
          "midi": 32,
          "name": "G#1",
          "ticks": 59332,
          "time": 81.32037739583332,
          "velocity": 0.7952755905511811
        },
        {
          "duration": 0.09868312499999377,
          "durationTicks": 72,
          "midi": 32,
          "name": "G#1",
          "ticks": 59428,
          "time": 81.45195489583332,
          "velocity": 0.8976377952755905
        },
        {
          "duration": 0.07127114583335015,
          "durationTicks": 52,
          "midi": 29,
          "name": "F1",
          "ticks": 59716,
          "time": 81.84668739583331,
          "velocity": 0.8976377952755905
        },
        {
          "duration": 0.07127114583335015,
          "durationTicks": 52,
          "midi": 32,
          "name": "G#1",
          "ticks": 59812,
          "time": 81.97826489583332,
          "velocity": 0.9763779527559056
        },
        {
          "duration": 0.08223593750000191,
          "durationTicks": 60,
          "midi": 34,
          "name": "A#1",
          "ticks": 59904,
          "time": 82.10435999999999,
          "velocity": 0.8976377952755905
        },
        {
          "duration": 0.06030635416666996,
          "durationTicks": 44,
          "midi": 34,
          "name": "A#1",
          "ticks": 60100,
          "time": 82.37299739583332,
          "velocity": 0.8976377952755905
        },
        {
          "duration": 0.08771833333332779,
          "durationTicks": 64,
          "midi": 34,
          "name": "A#1",
          "ticks": 60192,
          "time": 82.49909249999999,
          "velocity": 0.937007874015748
        },
        {
          "duration": 0.07127114583335015,
          "durationTicks": 52,
          "midi": 37,
          "name": "C#2",
          "ticks": 60388,
          "time": 82.76772989583331,
          "velocity": 0.8976377952755905
        },
        {
          "duration": 0.08771833333332779,
          "durationTicks": 64,
          "midi": 36,
          "name": "C2",
          "ticks": 60480,
          "time": 82.89382499999999,
          "velocity": 0.8976377952755905
        },
        {
          "duration": 0.09868312499999377,
          "durationTicks": 72,
          "midi": 32,
          "name": "G#1",
          "ticks": 60668,
          "time": 83.15149760416666,
          "velocity": 0.8976377952755905
        },
        {
          "duration": 0.11513031249999983,
          "durationTicks": 84,
          "midi": 34,
          "name": "A#1",
          "ticks": 60860,
          "time": 83.41465260416666,
          "velocity": 0.8267716535433071
        },
        {
          "duration": 0.07675354166666182,
          "durationTicks": 56,
          "midi": 29,
          "name": "F1",
          "ticks": 61244,
          "time": 83.94096260416666,
          "velocity": 0.8503937007874016
        },
        {
          "duration": 0.10416552083333386,
          "durationTicks": 76,
          "midi": 34,
          "name": "A#1",
          "ticks": 61340,
          "time": 84.07254010416666,
          "velocity": 0.8267716535433071
        },
        {
          "duration": 0.06030635416666996,
          "durationTicks": 44,
          "midi": 32,
          "name": "G#1",
          "ticks": 61636,
          "time": 84.47823739583332,
          "velocity": 0.8267716535433071
        },
        {
          "duration": 0.10416552083333386,
          "durationTicks": 76,
          "midi": 34,
          "name": "A#1",
          "ticks": 61732,
          "time": 84.60981489583332,
          "velocity": 0.8976377952755905
        },
        {
          "duration": 0.06578874999999584,
          "durationTicks": 48,
          "midi": 37,
          "name": "C#2",
          "ticks": 61924,
          "time": 84.87296989583332,
          "velocity": 0.8976377952755905
        },
        {
          "duration": 0.12061270833335413,
          "durationTicks": 88,
          "midi": 36,
          "name": "C2",
          "ticks": 62020,
          "time": 85.00454739583331,
          "velocity": 0.937007874015748
        },
        {
          "duration": 0.08223593750000191,
          "durationTicks": 60,
          "midi": 29,
          "name": "F1",
          "ticks": 62784,
          "time": 86.05168499999999,
          "velocity": 0.8976377952755905
        },
        {
          "duration": 0.10964791666667395,
          "durationTicks": 80,
          "midi": 34,
          "name": "A#1",
          "ticks": 62884,
          "time": 86.18874489583332,
          "velocity": 0.937007874015748
        },
        {
          "duration": 0.07675354166667603,
          "durationTicks": 56,
          "midi": 32,
          "name": "G#1",
          "ticks": 63172,
          "time": 86.58347739583331,
          "velocity": 0.8976377952755905
        },
        {
          "duration": 0.10964791666667395,
          "durationTicks": 80,
          "midi": 34,
          "name": "A#1",
          "ticks": 63268,
          "time": 86.71505489583332,
          "velocity": 0.8976377952755905
        },
        {
          "duration": 0.07127114583335015,
          "durationTicks": 52,
          "midi": 37,
          "name": "C#2",
          "ticks": 63460,
          "time": 86.97820989583332,
          "velocity": 0.8267716535433071
        },
        {
          "duration": 0.087718333333342,
          "durationTicks": 64,
          "midi": 36,
          "name": "C2",
          "ticks": 63556,
          "time": 87.10978739583332,
          "velocity": 0.937007874015748
        },
        {
          "duration": 0.10964791666667395,
          "durationTicks": 80,
          "midi": 32,
          "name": "G#1",
          "ticks": 63748,
          "time": 87.37294239583332,
          "velocity": 0.8976377952755905
        },
        {
          "duration": 0.10964791666667395,
          "durationTicks": 80,
          "midi": 34,
          "name": "A#1",
          "ticks": 63940,
          "time": 87.63609739583332,
          "velocity": 0.8976377952755905
        },
        {
          "duration": 0.07127114583333594,
          "durationTicks": 52,
          "midi": 32,
          "name": "G#1",
          "ticks": 64320,
          "time": 88.15692499999999,
          "velocity": 0.8267716535433071
        },
        {
          "duration": 0.07675354166667603,
          "durationTicks": 56,
          "midi": 34,
          "name": "A#1",
          "ticks": 64416,
          "time": 88.28850249999999,
          "velocity": 0.8976377952755905
        },
        {
          "duration": 0.10964791666667395,
          "durationTicks": 80,
          "midi": 34,
          "name": "A#1",
          "ticks": 64512,
          "time": 88.42007999999998,
          "velocity": 0.8267716535433071
        },
        {
          "duration": 0.0822359374999877,
          "durationTicks": 60,
          "midi": 32,
          "name": "G#1",
          "ticks": 64704,
          "time": 88.683235,
          "velocity": 0.8267716535433071
        },
        {
          "duration": 0.12609510416668002,
          "durationTicks": 92,
          "midi": 34,
          "name": "A#1",
          "ticks": 64800,
          "time": 88.81481249999999,
          "velocity": 0.8976377952755905
        },
        {
          "duration": 0.07675354166667603,
          "durationTicks": 56,
          "midi": 37,
          "name": "C#2",
          "ticks": 64992,
          "time": 89.07796749999999,
          "velocity": 0.7952755905511811
        },
        {
          "duration": 0.09320072916666788,
          "durationTicks": 68,
          "midi": 36,
          "name": "C2",
          "ticks": 65088,
          "time": 89.20954499999999,
          "velocity": 0.937007874015748
        },
        {
          "duration": 0.07127114583332173,
          "durationTicks": 52,
          "midi": 32,
          "name": "G#1",
          "ticks": 65856,
          "time": 90.262165,
          "velocity": 0.8976377952755905
        },
        {
          "duration": 0.07127114583333594,
          "durationTicks": 52,
          "midi": 34,
          "name": "A#1",
          "ticks": 65952,
          "time": 90.39374249999999,
          "velocity": 0.9763779527559056
        },
        {
          "duration": 0.11513031249999983,
          "durationTicks": 84,
          "midi": 27,
          "name": "D#1",
          "ticks": 66048,
          "time": 90.52532,
          "velocity": 0.8267716535433071
        },
        {
          "duration": 0.09320072916665367,
          "durationTicks": 68,
          "midi": 27,
          "name": "D#1",
          "ticks": 66236,
          "time": 90.78299260416667,
          "velocity": 0.8976377952755905
        },
        {
          "duration": 0.10416552083331965,
          "durationTicks": 76,
          "midi": 27,
          "name": "D#1",
          "ticks": 66336,
          "time": 90.9200525,
          "velocity": 0.8267716535433071
        },
        {
          "duration": 0.09320072916665367,
          "durationTicks": 68,
          "midi": 36,
          "name": "C2",
          "ticks": 66524,
          "time": 91.17772510416667,
          "velocity": 0.8503937007874016
        },
        {
          "duration": 0.09868312500000798,
          "durationTicks": 72,
          "midi": 34,
          "name": "A#1",
          "ticks": 66620,
          "time": 91.30930260416666,
          "velocity": 0.8976377952755905
        },
        {
          "duration": 0.12061270833332571,
          "durationTicks": 88,
          "midi": 32,
          "name": "G#1",
          "ticks": 66812,
          "time": 91.57245760416666,
          "velocity": 0.8267716535433071
        },
        {
          "duration": 0.14254229166665766,
          "durationTicks": 104,
          "midi": 32,
          "name": "G#1",
          "ticks": 67004,
          "time": 91.83561260416666,
          "velocity": 0.937007874015748
        },
        {
          "duration": 0.11513031249999983,
          "durationTicks": 84,
          "midi": 27,
          "name": "D#1",
          "ticks": 67388,
          "time": 92.36192260416666,
          "velocity": 0.7716535433070866
        },
        {
          "duration": 0.07675354166666182,
          "durationTicks": 56,
          "midi": 32,
          "name": "G#1",
          "ticks": 67488,
          "time": 92.4989825,
          "velocity": 0.7716535433070866
        },
        {
          "duration": 0.12061270833332571,
          "durationTicks": 88,
          "midi": 29,
          "name": "F1",
          "ticks": 67584,
          "time": 92.63055999999999,
          "velocity": 0.8976377952755905
        },
        {
          "duration": 0.08223593750000191,
          "durationTicks": 60,
          "midi": 29,
          "name": "F1",
          "ticks": 67772,
          "time": 92.88823260416666,
          "velocity": 0.8503937007874016
        },
        {
          "duration": 0.12061270833332571,
          "durationTicks": 88,
          "midi": 29,
          "name": "F1",
          "ticks": 67868,
          "time": 93.01981010416667,
          "velocity": 0.8503937007874016
        },
        {
          "duration": 0.10964791666667395,
          "durationTicks": 80,
          "midi": 36,
          "name": "C2",
          "ticks": 68068,
          "time": 93.29392989583332,
          "velocity": 0.8503937007874016
        },
        {
          "duration": 0.1315774999999917,
          "durationTicks": 96,
          "midi": 34,
          "name": "A#1",
          "ticks": 68164,
          "time": 93.42550739583332,
          "velocity": 0.8976377952755905
        },
        {
          "duration": 0.07127114583335015,
          "durationTicks": 52,
          "midi": 34,
          "name": "A#1",
          "ticks": 68548,
          "time": 93.95181739583332,
          "velocity": 0.8267716535433071
        },
        {
          "duration": 0.07127114583333594,
          "durationTicks": 52,
          "midi": 34,
          "name": "A#1",
          "ticks": 68644,
          "time": 94.08339489583332,
          "velocity": 0.8976377952755905
        },
        {
          "duration": 0.08223593750000191,
          "durationTicks": 60,
          "midi": 34,
          "name": "A#1",
          "ticks": 68740,
          "time": 94.21497239583331,
          "velocity": 0.937007874015748
        },
        {
          "duration": 0.09868312499999377,
          "durationTicks": 72,
          "midi": 36,
          "name": "C2",
          "ticks": 68836,
          "time": 94.34654989583332,
          "velocity": 0.8503937007874016
        },
        {
          "duration": 0.07675354166667603,
          "durationTicks": 56,
          "midi": 34,
          "name": "A#1",
          "ticks": 69028,
          "time": 94.60970489583332,
          "velocity": 0.8267716535433071
        },
        {
          "duration": 0.10964791666665974,
          "durationTicks": 80,
          "midi": 27,
          "name": "D#1",
          "ticks": 69124,
          "time": 94.74128239583332,
          "velocity": 0.8267716535433071
        },
        {
          "duration": 0.08223593750000191,
          "durationTicks": 60,
          "midi": 27,
          "name": "D#1",
          "ticks": 69308,
          "time": 94.99347260416666,
          "velocity": 0.8267716535433071
        },
        {
          "duration": 0.12061270833335413,
          "durationTicks": 88,
          "midi": 27,
          "name": "D#1",
          "ticks": 69412,
          "time": 95.13601489583331,
          "velocity": 0.7952755905511811
        },
        {
          "duration": 0.087718333333342,
          "durationTicks": 64,
          "midi": 36,
          "name": "C2",
          "ticks": 69604,
          "time": 95.39916989583332,
          "velocity": 0.8267716535433071
        },
        {
          "duration": 0.12061270833333992,
          "durationTicks": 88,
          "midi": 34,
          "name": "A#1",
          "ticks": 69700,
          "time": 95.53074739583332,
          "velocity": 0.8976377952755905
        },
        {
          "duration": 0.13705989583333178,
          "durationTicks": 100,
          "midi": 32,
          "name": "G#1",
          "ticks": 69888,
          "time": 95.78841999999999,
          "velocity": 0.8976377952755905
        },
        {
          "duration": 0.11513031249999983,
          "durationTicks": 84,
          "midi": 32,
          "name": "G#1",
          "ticks": 70084,
          "time": 96.05705739583331,
          "velocity": 0.8267716535433071
        },
        {
          "duration": 0.06030635416666996,
          "durationTicks": 44,
          "midi": 32,
          "name": "G#1",
          "ticks": 70464,
          "time": 96.577885,
          "velocity": 0.7952755905511811
        },
        {
          "duration": 0.07675354166666182,
          "durationTicks": 56,
          "midi": 32,
          "name": "G#1",
          "ticks": 70556,
          "time": 96.70398010416666,
          "velocity": 0.8976377952755905
        },
        {
          "duration": 0.10416552083331965,
          "durationTicks": 76,
          "midi": 29,
          "name": "F1",
          "ticks": 70656,
          "time": 96.84103999999999,
          "velocity": 0.8976377952755905
        },
        {
          "duration": 0.0767535416666476,
          "durationTicks": 56,
          "midi": 29,
          "name": "F1",
          "ticks": 70844,
          "time": 97.09871260416666,
          "velocity": 0.937007874015748
        },
        {
          "duration": 0.12061270833332571,
          "durationTicks": 88,
          "midi": 29,
          "name": "F1",
          "ticks": 70944,
          "time": 97.2357725,
          "velocity": 0.937007874015748
        },
        {
          "duration": 0.07675354166667603,
          "durationTicks": 56,
          "midi": 36,
          "name": "C2",
          "ticks": 71140,
          "time": 97.50440989583332,
          "velocity": 0.8503937007874016
        },
        {
          "duration": 0.137059895833346,
          "durationTicks": 100,
          "midi": 34,
          "name": "A#1",
          "ticks": 71236,
          "time": 97.63598739583331,
          "velocity": 0.937007874015748
        },
        {
          "duration": 0.11513031249999983,
          "durationTicks": 84,
          "midi": 32,
          "name": "G#1",
          "ticks": 71620,
          "time": 98.16229739583332,
          "velocity": 0.8976377952755905
        },
        {
          "duration": 0.06578874999999584,
          "durationTicks": 48,
          "midi": 32,
          "name": "G#1",
          "ticks": 71812,
          "time": 98.42545239583332,
          "velocity": 0.8267716535433071
        },
        {
          "duration": 0.10964791666665974,
          "durationTicks": 80,
          "midi": 32,
          "name": "G#1",
          "ticks": 71908,
          "time": 98.55702989583332,
          "velocity": 0.8976377952755905
        },
        {
          "duration": 0.11513031249999983,
          "durationTicks": 84,
          "midi": 37,
          "name": "C#2",
          "ticks": 72092,
          "time": 98.80922010416666,
          "velocity": 0.7952755905511811
        },
        {
          "duration": 0.11513031249999983,
          "durationTicks": 84,
          "midi": 27,
          "name": "D#1",
          "ticks": 72192,
          "time": 98.94627999999999,
          "velocity": 0.8267716535433071
        },
        {
          "duration": 0.09320072916665367,
          "durationTicks": 68,
          "midi": 27,
          "name": "D#1",
          "ticks": 72380,
          "time": 99.20395260416666,
          "velocity": 0.8976377952755905
        },
        {
          "duration": 0.10416552083333386,
          "durationTicks": 76,
          "midi": 27,
          "name": "D#1",
          "ticks": 72480,
          "time": 99.34101249999999,
          "velocity": 0.8267716535433071
        },
        {
          "duration": 0.09320072916665367,
          "durationTicks": 68,
          "midi": 36,
          "name": "C2",
          "ticks": 72668,
          "time": 99.59868510416666,
          "velocity": 0.8503937007874016
        },
        {
          "duration": 0.09868312500000798,
          "durationTicks": 72,
          "midi": 34,
          "name": "A#1",
          "ticks": 72764,
          "time": 99.73026260416665,
          "velocity": 0.8976377952755905
        },
        {
          "duration": 0.12061270833332571,
          "durationTicks": 88,
          "midi": 32,
          "name": "G#1",
          "ticks": 72956,
          "time": 99.99341760416667,
          "velocity": 0.8267716535433071
        },
        {
          "duration": 0.14254229166665766,
          "durationTicks": 104,
          "midi": 32,
          "name": "G#1",
          "ticks": 73148,
          "time": 100.25657260416666,
          "velocity": 0.937007874015748
        },
        {
          "duration": 0.11513031249999983,
          "durationTicks": 84,
          "midi": 27,
          "name": "D#1",
          "ticks": 73532,
          "time": 100.78288260416666,
          "velocity": 0.7716535433070866
        },
        {
          "duration": 0.07675354166667603,
          "durationTicks": 56,
          "midi": 32,
          "name": "G#1",
          "ticks": 73632,
          "time": 100.91994249999999,
          "velocity": 0.7716535433070866
        },
        {
          "duration": 0.12061270833333992,
          "durationTicks": 88,
          "midi": 29,
          "name": "F1",
          "ticks": 73728,
          "time": 101.05151999999998,
          "velocity": 0.8976377952755905
        },
        {
          "duration": 0.08223593750000191,
          "durationTicks": 60,
          "midi": 29,
          "name": "F1",
          "ticks": 73916,
          "time": 101.30919260416665,
          "velocity": 0.8503937007874016
        },
        {
          "duration": 0.12061270833332571,
          "durationTicks": 88,
          "midi": 29,
          "name": "F1",
          "ticks": 74012,
          "time": 101.44077010416666,
          "velocity": 0.8503937007874016
        },
        {
          "duration": 0.10964791666665974,
          "durationTicks": 80,
          "midi": 36,
          "name": "C2",
          "ticks": 74212,
          "time": 101.71488989583332,
          "velocity": 0.8503937007874016
        },
        {
          "duration": 0.1315775000000059,
          "durationTicks": 96,
          "midi": 34,
          "name": "A#1",
          "ticks": 74308,
          "time": 101.84646739583332,
          "velocity": 0.8976377952755905
        },
        {
          "duration": 0.07127114583333594,
          "durationTicks": 52,
          "midi": 34,
          "name": "A#1",
          "ticks": 74692,
          "time": 102.37277739583332,
          "velocity": 0.8267716535433071
        },
        {
          "duration": 0.07127114583335015,
          "durationTicks": 52,
          "midi": 34,
          "name": "A#1",
          "ticks": 74788,
          "time": 102.50435489583332,
          "velocity": 0.8976377952755905
        },
        {
          "duration": 0.08223593750000191,
          "durationTicks": 60,
          "midi": 34,
          "name": "A#1",
          "ticks": 74884,
          "time": 102.63593239583332,
          "velocity": 0.937007874015748
        },
        {
          "duration": 0.09868312500000798,
          "durationTicks": 72,
          "midi": 36,
          "name": "C2",
          "ticks": 74980,
          "time": 102.76750989583331,
          "velocity": 0.8503937007874016
        },
        {
          "duration": 0.07675354166667603,
          "durationTicks": 56,
          "midi": 34,
          "name": "A#1",
          "ticks": 75172,
          "time": 103.03066489583331,
          "velocity": 0.8267716535433071
        },
        {
          "duration": 0.10964791666667395,
          "durationTicks": 80,
          "midi": 27,
          "name": "D#1",
          "ticks": 75268,
          "time": 103.16224239583332,
          "velocity": 0.8267716535433071
        },
        {
          "duration": 0.08223593750000191,
          "durationTicks": 60,
          "midi": 27,
          "name": "D#1",
          "ticks": 75452,
          "time": 103.41443260416666,
          "velocity": 0.8267716535433071
        },
        {
          "duration": 0.12061270833333992,
          "durationTicks": 88,
          "midi": 27,
          "name": "D#1",
          "ticks": 75556,
          "time": 103.55697489583332,
          "velocity": 0.7952755905511811
        },
        {
          "duration": 0.087718333333342,
          "durationTicks": 64,
          "midi": 36,
          "name": "C2",
          "ticks": 75748,
          "time": 103.82012989583332,
          "velocity": 0.8267716535433071
        },
        {
          "duration": 0.12061270833333992,
          "durationTicks": 88,
          "midi": 34,
          "name": "A#1",
          "ticks": 75844,
          "time": 103.95170739583332,
          "velocity": 0.8976377952755905
        },
        {
          "duration": 0.13705989583331757,
          "durationTicks": 100,
          "midi": 32,
          "name": "G#1",
          "ticks": 76032,
          "time": 104.20938,
          "velocity": 0.8976377952755905
        },
        {
          "duration": 0.11513031249999983,
          "durationTicks": 84,
          "midi": 32,
          "name": "G#1",
          "ticks": 76228,
          "time": 104.47801739583332,
          "velocity": 0.8267716535433071
        },
        {
          "duration": 0.06030635416666996,
          "durationTicks": 44,
          "midi": 32,
          "name": "G#1",
          "ticks": 76608,
          "time": 104.99884499999999,
          "velocity": 0.7952755905511811
        },
        {
          "duration": 0.07675354166666182,
          "durationTicks": 56,
          "midi": 32,
          "name": "G#1",
          "ticks": 76700,
          "time": 105.12494010416665,
          "velocity": 0.8976377952755905
        },
        {
          "duration": 0.10416552083333386,
          "durationTicks": 76,
          "midi": 29,
          "name": "F1",
          "ticks": 76800,
          "time": 105.26199999999999,
          "velocity": 0.8976377952755905
        },
        {
          "duration": 0.07675354166666182,
          "durationTicks": 56,
          "midi": 29,
          "name": "F1",
          "ticks": 76988,
          "time": 105.51967260416666,
          "velocity": 0.937007874015748
        },
        {
          "duration": 0.12061270833332571,
          "durationTicks": 88,
          "midi": 29,
          "name": "F1",
          "ticks": 77088,
          "time": 105.65673249999999,
          "velocity": 0.937007874015748
        },
        {
          "duration": 0.07675354166667603,
          "durationTicks": 56,
          "midi": 36,
          "name": "C2",
          "ticks": 77284,
          "time": 105.92536989583331,
          "velocity": 0.8503937007874016
        },
        {
          "duration": 0.137059895833346,
          "durationTicks": 100,
          "midi": 34,
          "name": "A#1",
          "ticks": 77380,
          "time": 106.05694739583332,
          "velocity": 0.937007874015748
        },
        {
          "duration": 0.11513031249999983,
          "durationTicks": 84,
          "midi": 32,
          "name": "G#1",
          "ticks": 77764,
          "time": 106.58325739583331,
          "velocity": 0.8976377952755905
        },
        {
          "duration": 0.06578875000001005,
          "durationTicks": 48,
          "midi": 32,
          "name": "G#1",
          "ticks": 77956,
          "time": 106.84641239583331,
          "velocity": 0.8267716535433071
        },
        {
          "duration": 0.10964791666667395,
          "durationTicks": 80,
          "midi": 32,
          "name": "G#1",
          "ticks": 78052,
          "time": 106.97798989583332,
          "velocity": 0.8976377952755905
        },
        {
          "duration": 0.11513031249999983,
          "durationTicks": 84,
          "midi": 37,
          "name": "C#2",
          "ticks": 78236,
          "time": 107.23018010416666,
          "velocity": 0.7952755905511811
        },
        {
          "duration": 0.11513031249999983,
          "durationTicks": 84,
          "midi": 27,
          "name": "D#1",
          "ticks": 78336,
          "time": 107.36724,
          "velocity": 0.8267716535433071
        },
        {
          "duration": 0.09320072916665367,
          "durationTicks": 68,
          "midi": 27,
          "name": "D#1",
          "ticks": 78524,
          "time": 107.62491260416667,
          "velocity": 0.8976377952755905
        },
        {
          "duration": 0.10416552083333386,
          "durationTicks": 76,
          "midi": 27,
          "name": "D#1",
          "ticks": 78624,
          "time": 107.76197249999998,
          "velocity": 0.8267716535433071
        },
        {
          "duration": 0.09320072916665367,
          "durationTicks": 68,
          "midi": 36,
          "name": "C2",
          "ticks": 78812,
          "time": 108.01964510416666,
          "velocity": 0.8503937007874016
        },
        {
          "duration": 0.09868312499999377,
          "durationTicks": 72,
          "midi": 34,
          "name": "A#1",
          "ticks": 78908,
          "time": 108.15122260416666,
          "velocity": 0.8976377952755905
        },
        {
          "duration": 0.12061270833332571,
          "durationTicks": 88,
          "midi": 32,
          "name": "G#1",
          "ticks": 79100,
          "time": 108.41437760416666,
          "velocity": 0.8267716535433071
        },
        {
          "duration": 0.14254229166665766,
          "durationTicks": 104,
          "midi": 32,
          "name": "G#1",
          "ticks": 79292,
          "time": 108.67753260416666,
          "velocity": 0.937007874015748
        },
        {
          "duration": 0.11513031249999983,
          "durationTicks": 84,
          "midi": 27,
          "name": "D#1",
          "ticks": 79676,
          "time": 109.20384260416667,
          "velocity": 0.7716535433070866
        },
        {
          "duration": 0.07675354166667603,
          "durationTicks": 56,
          "midi": 32,
          "name": "G#1",
          "ticks": 79776,
          "time": 109.34090249999998,
          "velocity": 0.7716535433070866
        },
        {
          "duration": 0.12061270833332571,
          "durationTicks": 88,
          "midi": 29,
          "name": "F1",
          "ticks": 79872,
          "time": 109.47247999999999,
          "velocity": 0.8976377952755905
        },
        {
          "duration": 0.08223593750000191,
          "durationTicks": 60,
          "midi": 29,
          "name": "F1",
          "ticks": 80060,
          "time": 109.73015260416666,
          "velocity": 0.8503937007874016
        },
        {
          "duration": 0.12061270833333992,
          "durationTicks": 88,
          "midi": 29,
          "name": "F1",
          "ticks": 80156,
          "time": 109.86173010416665,
          "velocity": 0.8503937007874016
        },
        {
          "duration": 0.10964791666667395,
          "durationTicks": 80,
          "midi": 36,
          "name": "C2",
          "ticks": 80356,
          "time": 110.13584989583332,
          "velocity": 0.8503937007874016
        },
        {
          "duration": 0.1315774999999917,
          "durationTicks": 96,
          "midi": 34,
          "name": "A#1",
          "ticks": 80452,
          "time": 110.26742739583332,
          "velocity": 0.8976377952755905
        },
        {
          "duration": 0.07127114583333594,
          "durationTicks": 52,
          "midi": 34,
          "name": "A#1",
          "ticks": 80836,
          "time": 110.79373739583332,
          "velocity": 0.8267716535433071
        },
        {
          "duration": 0.07127114583335015,
          "durationTicks": 52,
          "midi": 34,
          "name": "A#1",
          "ticks": 80932,
          "time": 110.92531489583331,
          "velocity": 0.8976377952755905
        },
        {
          "duration": 0.08223593750000191,
          "durationTicks": 60,
          "midi": 34,
          "name": "A#1",
          "ticks": 81028,
          "time": 111.05689239583332,
          "velocity": 0.937007874015748
        },
        {
          "duration": 0.09868312499999377,
          "durationTicks": 72,
          "midi": 36,
          "name": "C2",
          "ticks": 81124,
          "time": 111.18846989583332,
          "velocity": 0.8503937007874016
        },
        {
          "duration": 0.07675354166666182,
          "durationTicks": 56,
          "midi": 34,
          "name": "A#1",
          "ticks": 81316,
          "time": 111.45162489583332,
          "velocity": 0.8267716535433071
        },
        {
          "duration": 0.10964791666667395,
          "durationTicks": 80,
          "midi": 27,
          "name": "D#1",
          "ticks": 81412,
          "time": 111.58320239583331,
          "velocity": 0.8267716535433071
        },
        {
          "duration": 0.08223593750000191,
          "durationTicks": 60,
          "midi": 27,
          "name": "D#1",
          "ticks": 81596,
          "time": 111.83539260416666,
          "velocity": 0.8267716535433071
        },
        {
          "duration": 0.12061270833333992,
          "durationTicks": 88,
          "midi": 27,
          "name": "D#1",
          "ticks": 81700,
          "time": 111.97793489583331,
          "velocity": 0.7952755905511811
        },
        {
          "duration": 0.087718333333342,
          "durationTicks": 64,
          "midi": 36,
          "name": "C2",
          "ticks": 81892,
          "time": 112.24108989583331,
          "velocity": 0.8267716535433071
        },
        {
          "duration": 0.12061270833333992,
          "durationTicks": 88,
          "midi": 34,
          "name": "A#1",
          "ticks": 81988,
          "time": 112.37266739583332,
          "velocity": 0.8976377952755905
        },
        {
          "duration": 0.13705989583333178,
          "durationTicks": 100,
          "midi": 32,
          "name": "G#1",
          "ticks": 82176,
          "time": 112.63033999999999,
          "velocity": 0.8976377952755905
        },
        {
          "duration": 0.11513031249999983,
          "durationTicks": 84,
          "midi": 32,
          "name": "G#1",
          "ticks": 82372,
          "time": 112.89897739583331,
          "velocity": 0.8267716535433071
        },
        {
          "duration": 0.06030635416668417,
          "durationTicks": 44,
          "midi": 32,
          "name": "G#1",
          "ticks": 82752,
          "time": 113.41980499999998,
          "velocity": 0.7952755905511811
        },
        {
          "duration": 0.0767535416666476,
          "durationTicks": 56,
          "midi": 32,
          "name": "G#1",
          "ticks": 82844,
          "time": 113.54590010416666,
          "velocity": 0.8976377952755905
        },
        {
          "duration": 0.10416552083331965,
          "durationTicks": 76,
          "midi": 29,
          "name": "F1",
          "ticks": 82944,
          "time": 113.68296,
          "velocity": 0.8976377952755905
        },
        {
          "duration": 0.0767535416666476,
          "durationTicks": 56,
          "midi": 29,
          "name": "F1",
          "ticks": 83132,
          "time": 113.94063260416667,
          "velocity": 0.937007874015748
        },
        {
          "duration": 0.12061270833332571,
          "durationTicks": 88,
          "midi": 29,
          "name": "F1",
          "ticks": 83232,
          "time": 114.07769249999998,
          "velocity": 0.937007874015748
        },
        {
          "duration": 0.07675354166666182,
          "durationTicks": 56,
          "midi": 36,
          "name": "C2",
          "ticks": 83428,
          "time": 114.34632989583332,
          "velocity": 0.8503937007874016
        },
        {
          "duration": 0.137059895833346,
          "durationTicks": 100,
          "midi": 34,
          "name": "A#1",
          "ticks": 83524,
          "time": 114.47790739583331,
          "velocity": 0.937007874015748
        },
        {
          "duration": 0.11513031249999983,
          "durationTicks": 84,
          "midi": 32,
          "name": "G#1",
          "ticks": 83908,
          "time": 115.00421739583332,
          "velocity": 0.8976377952755905
        },
        {
          "duration": 0.06578874999999584,
          "durationTicks": 48,
          "midi": 32,
          "name": "G#1",
          "ticks": 84100,
          "time": 115.26737239583332,
          "velocity": 0.8267716535433071
        },
        {
          "duration": 0.10964791666667395,
          "durationTicks": 80,
          "midi": 32,
          "name": "G#1",
          "ticks": 84196,
          "time": 115.39894989583331,
          "velocity": 0.8976377952755905
        },
        {
          "duration": 0.11513031249999983,
          "durationTicks": 84,
          "midi": 37,
          "name": "C#2",
          "ticks": 84380,
          "time": 115.65114010416666,
          "velocity": 0.7952755905511811
        },
        {
          "duration": 0.11513031249999983,
          "durationTicks": 84,
          "midi": 27,
          "name": "D#1",
          "ticks": 84480,
          "time": 115.78819999999999,
          "velocity": 0.8267716535433071
        },
        {
          "duration": 0.09320072916665367,
          "durationTicks": 68,
          "midi": 27,
          "name": "D#1",
          "ticks": 84668,
          "time": 116.04587260416666,
          "velocity": 0.8976377952755905
        },
        {
          "duration": 0.10416552083331965,
          "durationTicks": 76,
          "midi": 27,
          "name": "D#1",
          "ticks": 84768,
          "time": 116.18293249999999,
          "velocity": 0.8267716535433071
        },
        {
          "duration": 0.09320072916665367,
          "durationTicks": 68,
          "midi": 36,
          "name": "C2",
          "ticks": 84956,
          "time": 116.44060510416666,
          "velocity": 0.8503937007874016
        },
        {
          "duration": 0.09868312500000798,
          "durationTicks": 72,
          "midi": 34,
          "name": "A#1",
          "ticks": 85052,
          "time": 116.57218260416666,
          "velocity": 0.8976377952755905
        },
        {
          "duration": 0.12061270833333992,
          "durationTicks": 88,
          "midi": 32,
          "name": "G#1",
          "ticks": 85244,
          "time": 116.83533760416665,
          "velocity": 0.8267716535433071
        },
        {
          "duration": 0.14254229166665766,
          "durationTicks": 104,
          "midi": 32,
          "name": "G#1",
          "ticks": 85436,
          "time": 117.09849260416667,
          "velocity": 0.937007874015748
        },
        {
          "duration": 0.11513031249999983,
          "durationTicks": 84,
          "midi": 27,
          "name": "D#1",
          "ticks": 85820,
          "time": 117.62480260416666,
          "velocity": 0.7716535433070866
        },
        {
          "duration": 0.07675354166666182,
          "durationTicks": 56,
          "midi": 32,
          "name": "G#1",
          "ticks": 85920,
          "time": 117.76186249999999,
          "velocity": 0.7716535433070866
        },
        {
          "duration": 0.12061270833332571,
          "durationTicks": 88,
          "midi": 29,
          "name": "F1",
          "ticks": 86016,
          "time": 117.89343999999998,
          "velocity": 0.8976377952755905
        },
        {
          "duration": 0.08223593750000191,
          "durationTicks": 60,
          "midi": 29,
          "name": "F1",
          "ticks": 86204,
          "time": 118.15111260416666,
          "velocity": 0.8503937007874016
        },
        {
          "duration": 0.12061270833332571,
          "durationTicks": 88,
          "midi": 29,
          "name": "F1",
          "ticks": 86300,
          "time": 118.28269010416666,
          "velocity": 0.8503937007874016
        },
        {
          "duration": 0.10964791666667395,
          "durationTicks": 80,
          "midi": 36,
          "name": "C2",
          "ticks": 86500,
          "time": 118.55680989583331,
          "velocity": 0.8503937007874016
        },
        {
          "duration": 0.1315775000000059,
          "durationTicks": 96,
          "midi": 34,
          "name": "A#1",
          "ticks": 86596,
          "time": 118.68838739583332,
          "velocity": 0.8976377952755905
        },
        {
          "duration": 0.07127114583335015,
          "durationTicks": 52,
          "midi": 34,
          "name": "A#1",
          "ticks": 86980,
          "time": 119.21469739583331,
          "velocity": 0.8267716535433071
        },
        {
          "duration": 0.07127114583333594,
          "durationTicks": 52,
          "midi": 34,
          "name": "A#1",
          "ticks": 87076,
          "time": 119.34627489583332,
          "velocity": 0.8976377952755905
        },
        {
          "duration": 0.08223593750000191,
          "durationTicks": 60,
          "midi": 34,
          "name": "A#1",
          "ticks": 87172,
          "time": 119.47785239583331,
          "velocity": 0.937007874015748
        },
        {
          "duration": 0.09868312499999377,
          "durationTicks": 72,
          "midi": 36,
          "name": "C2",
          "ticks": 87268,
          "time": 119.60942989583332,
          "velocity": 0.8503937007874016
        },
        {
          "duration": 0.07675354166667603,
          "durationTicks": 56,
          "midi": 34,
          "name": "A#1",
          "ticks": 87460,
          "time": 119.87258489583331,
          "velocity": 0.8267716535433071
        },
        {
          "duration": 0.10964791666667395,
          "durationTicks": 80,
          "midi": 27,
          "name": "D#1",
          "ticks": 87556,
          "time": 120.00416239583332,
          "velocity": 0.8267716535433071
        },
        {
          "duration": 0.0822359374999877,
          "durationTicks": 60,
          "midi": 27,
          "name": "D#1",
          "ticks": 87740,
          "time": 120.25635260416666,
          "velocity": 0.8267716535433071
        },
        {
          "duration": 0.12061270833333992,
          "durationTicks": 88,
          "midi": 27,
          "name": "D#1",
          "ticks": 87844,
          "time": 120.39889489583332,
          "velocity": 0.7952755905511811
        },
        {
          "duration": 0.087718333333342,
          "durationTicks": 64,
          "midi": 36,
          "name": "C2",
          "ticks": 88036,
          "time": 120.66204989583332,
          "velocity": 0.8267716535433071
        },
        {
          "duration": 0.12061270833335413,
          "durationTicks": 88,
          "midi": 34,
          "name": "A#1",
          "ticks": 88132,
          "time": 120.79362739583331,
          "velocity": 0.8976377952755905
        },
        {
          "duration": 0.13705989583333178,
          "durationTicks": 100,
          "midi": 32,
          "name": "G#1",
          "ticks": 88320,
          "time": 121.05129999999998,
          "velocity": 0.8976377952755905
        },
        {
          "duration": 0.11513031249999983,
          "durationTicks": 84,
          "midi": 32,
          "name": "G#1",
          "ticks": 88516,
          "time": 121.31993739583332,
          "velocity": 0.8267716535433071
        },
        {
          "duration": 0.06030635416666996,
          "durationTicks": 44,
          "midi": 32,
          "name": "G#1",
          "ticks": 88896,
          "time": 121.84076499999999,
          "velocity": 0.7952755905511811
        },
        {
          "duration": 0.07675354166666182,
          "durationTicks": 56,
          "midi": 32,
          "name": "G#1",
          "ticks": 88988,
          "time": 121.96686010416666,
          "velocity": 0.8976377952755905
        },
        {
          "duration": 0.10416552083333386,
          "durationTicks": 76,
          "midi": 29,
          "name": "F1",
          "ticks": 89088,
          "time": 122.10391999999999,
          "velocity": 0.8976377952755905
        },
        {
          "duration": 0.07675354166666182,
          "durationTicks": 56,
          "midi": 29,
          "name": "F1",
          "ticks": 89276,
          "time": 122.36159260416666,
          "velocity": 0.937007874015748
        },
        {
          "duration": 0.12061270833332571,
          "durationTicks": 88,
          "midi": 29,
          "name": "F1",
          "ticks": 89376,
          "time": 122.49865249999999,
          "velocity": 0.937007874015748
        },
        {
          "duration": 0.07675354166667603,
          "durationTicks": 56,
          "midi": 36,
          "name": "C2",
          "ticks": 89572,
          "time": 122.76728989583331,
          "velocity": 0.8503937007874016
        },
        {
          "duration": 0.13705989583333178,
          "durationTicks": 100,
          "midi": 34,
          "name": "A#1",
          "ticks": 89668,
          "time": 122.89886739583332,
          "velocity": 0.937007874015748
        },
        {
          "duration": 0.11513031249999983,
          "durationTicks": 84,
          "midi": 32,
          "name": "G#1",
          "ticks": 90052,
          "time": 123.42517739583332,
          "velocity": 0.8976377952755905
        },
        {
          "duration": 0.06578874999999584,
          "durationTicks": 48,
          "midi": 32,
          "name": "G#1",
          "ticks": 90244,
          "time": 123.68833239583331,
          "velocity": 0.8267716535433071
        },
        {
          "duration": 0.10964791666667395,
          "durationTicks": 80,
          "midi": 32,
          "name": "G#1",
          "ticks": 90340,
          "time": 123.81990989583332,
          "velocity": 0.8976377952755905
        },
        {
          "duration": 0.11513031249999983,
          "durationTicks": 84,
          "midi": 37,
          "name": "C#2",
          "ticks": 90524,
          "time": 124.07210010416667,
          "velocity": 0.7952755905511811
        },
        {
          "duration": 0.12609510416668002,
          "durationTicks": 92,
          "midi": 39,
          "name": "D#2",
          "ticks": 90628,
          "time": 124.21464239583331,
          "velocity": 0.937007874015748
        },
        {
          "duration": 0.06578875000001005,
          "durationTicks": 48,
          "midi": 37,
          "name": "C#2",
          "ticks": 90816,
          "time": 124.47231499999998,
          "velocity": 0.8267716535433071
        },
        {
          "duration": 0.09868312500000798,
          "durationTicks": 72,
          "midi": 39,
          "name": "D#2",
          "ticks": 90916,
          "time": 124.60937489583331,
          "velocity": 0.937007874015748
        },
        {
          "duration": 0.08223593750000191,
          "durationTicks": 60,
          "midi": 42,
          "name": "F#2",
          "ticks": 91100,
          "time": 124.86156510416666,
          "velocity": 0.8976377952755905
        },
        {
          "duration": 0.10416552083331965,
          "durationTicks": 76,
          "midi": 41,
          "name": "F2",
          "ticks": 91196,
          "time": 124.99314260416666,
          "velocity": 0.937007874015748
        },
        {
          "duration": 0.1315774999999917,
          "durationTicks": 96,
          "midi": 37,
          "name": "C#2",
          "ticks": 91388,
          "time": 125.25629760416666,
          "velocity": 0.8976377952755905
        },
        {
          "duration": 0.13705989583333178,
          "durationTicks": 100,
          "midi": 39,
          "name": "D#2",
          "ticks": 91580,
          "time": 125.51945260416666,
          "velocity": 0.8976377952755905
        },
        {
          "duration": 0.09868312500000798,
          "durationTicks": 72,
          "midi": 29,
          "name": "F1",
          "ticks": 91964,
          "time": 126.04576260416665,
          "velocity": 0.8503937007874016
        },
        {
          "duration": 0.08223593750000191,
          "durationTicks": 60,
          "midi": 32,
          "name": "G#1",
          "ticks": 92064,
          "time": 126.18282249999999,
          "velocity": 0.8976377952755905
        },
        {
          "duration": 0.09868312499999377,
          "durationTicks": 72,
          "midi": 34,
          "name": "A#1",
          "ticks": 92164,
          "time": 126.31988239583332,
          "velocity": 0.937007874015748
        },
        {
          "duration": 0.08771833333332779,
          "durationTicks": 64,
          "midi": 32,
          "name": "G#1",
          "ticks": 92352,
          "time": 126.57755499999999,
          "velocity": 0.8267716535433071
        },
        {
          "duration": 0.10964791666665974,
          "durationTicks": 80,
          "midi": 34,
          "name": "A#1",
          "ticks": 92452,
          "time": 126.71461489583332,
          "velocity": 0.937007874015748
        },
        {
          "duration": 0.07675354166666182,
          "durationTicks": 56,
          "midi": 37,
          "name": "C#2",
          "ticks": 92644,
          "time": 126.97776989583332,
          "velocity": 0.8267716535433071
        },
        {
          "duration": 0.14254229166667187,
          "durationTicks": 104,
          "midi": 36,
          "name": "C2",
          "ticks": 92740,
          "time": 127.10934739583331,
          "velocity": 0.9763779527559056
        },
        {
          "duration": 0.08771833333332779,
          "durationTicks": 64,
          "midi": 34,
          "name": "A#1",
          "ticks": 93500,
          "time": 128.15100260416665,
          "velocity": 0.8976377952755905
        },
        {
          "duration": 0.10964791666663132,
          "durationTicks": 80,
          "midi": 37,
          "name": "C#2",
          "ticks": 93596,
          "time": 128.28258010416667,
          "velocity": 0.8976377952755905
        },
        {
          "duration": 0.1260951041666658,
          "durationTicks": 92,
          "midi": 39,
          "name": "D#2",
          "ticks": 93700,
          "time": 128.4251223958333,
          "velocity": 0.937007874015748
        },
        {
          "duration": 0.06578874999999584,
          "durationTicks": 48,
          "midi": 37,
          "name": "C#2",
          "ticks": 93888,
          "time": 128.682795,
          "velocity": 0.8267716535433071
        },
        {
          "duration": 0.09868312500000798,
          "durationTicks": 72,
          "midi": 39,
          "name": "D#2",
          "ticks": 93988,
          "time": 128.81985489583332,
          "velocity": 0.937007874015748
        },
        {
          "duration": 0.08223593750000191,
          "durationTicks": 60,
          "midi": 42,
          "name": "F#2",
          "ticks": 94172,
          "time": 129.07204510416665,
          "velocity": 0.8976377952755905
        },
        {
          "duration": 0.10416552083330544,
          "durationTicks": 76,
          "midi": 41,
          "name": "F2",
          "ticks": 94268,
          "time": 129.20362260416667,
          "velocity": 0.937007874015748
        },
        {
          "duration": 0.1315775000000201,
          "durationTicks": 96,
          "midi": 37,
          "name": "C#2",
          "ticks": 94460,
          "time": 129.46677760416665,
          "velocity": 0.8976377952755905
        },
        {
          "duration": 0.13705989583331757,
          "durationTicks": 100,
          "midi": 39,
          "name": "D#2",
          "ticks": 94652,
          "time": 129.72993260416666,
          "velocity": 0.8976377952755905
        },
        {
          "duration": 0.09868312500000798,
          "durationTicks": 72,
          "midi": 29,
          "name": "F1",
          "ticks": 95036,
          "time": 130.25624260416666,
          "velocity": 0.8503937007874016
        },
        {
          "duration": 0.08223593750000191,
          "durationTicks": 60,
          "midi": 32,
          "name": "G#1",
          "ticks": 95136,
          "time": 130.39330249999998,
          "velocity": 0.8976377952755905
        },
        {
          "duration": 0.09868312499997955,
          "durationTicks": 72,
          "midi": 34,
          "name": "A#1",
          "ticks": 95236,
          "time": 130.53036239583332,
          "velocity": 0.937007874015748
        },
        {
          "duration": 0.08771833333332779,
          "durationTicks": 64,
          "midi": 32,
          "name": "G#1",
          "ticks": 95424,
          "time": 130.78803499999998,
          "velocity": 0.8267716535433071
        },
        {
          "duration": 0.10964791666665974,
          "durationTicks": 80,
          "midi": 34,
          "name": "A#1",
          "ticks": 95524,
          "time": 130.92509489583333,
          "velocity": 0.937007874015748
        },
        {
          "duration": 0.07675354166667603,
          "durationTicks": 56,
          "midi": 37,
          "name": "C#2",
          "ticks": 95716,
          "time": 131.1882498958333,
          "velocity": 0.8267716535433071
        },
        {
          "duration": 0.14254229166667187,
          "durationTicks": 104,
          "midi": 36,
          "name": "C2",
          "ticks": 95812,
          "time": 131.3198273958333,
          "velocity": 0.9763779527559056
        },
        {
          "duration": 0.08771833333332779,
          "durationTicks": 64,
          "midi": 34,
          "name": "A#1",
          "ticks": 96572,
          "time": 132.36148260416667,
          "velocity": 0.8976377952755905
        },
        {
          "duration": 0.10964791666665974,
          "durationTicks": 80,
          "midi": 37,
          "name": "C#2",
          "ticks": 96668,
          "time": 132.49306010416666,
          "velocity": 0.8976377952755905
        },
        {
          "duration": 0.12609510416669423,
          "durationTicks": 92,
          "midi": 39,
          "name": "D#2",
          "ticks": 96772,
          "time": 132.6356023958333,
          "velocity": 0.937007874015748
        },
        {
          "duration": 0.06578874999999584,
          "durationTicks": 48,
          "midi": 37,
          "name": "C#2",
          "ticks": 96960,
          "time": 132.893275,
          "velocity": 0.8267716535433071
        },
        {
          "duration": 0.09868312500000798,
          "durationTicks": 72,
          "midi": 39,
          "name": "D#2",
          "ticks": 97060,
          "time": 133.0303348958333,
          "velocity": 0.937007874015748
        },
        {
          "duration": 0.08223593750000191,
          "durationTicks": 60,
          "midi": 42,
          "name": "F#2",
          "ticks": 97244,
          "time": 133.28252510416667,
          "velocity": 0.8976377952755905
        },
        {
          "duration": 0.10416552083333386,
          "durationTicks": 76,
          "midi": 41,
          "name": "F2",
          "ticks": 97340,
          "time": 133.41410260416666,
          "velocity": 0.937007874015748
        },
        {
          "duration": 0.1315774999999917,
          "durationTicks": 96,
          "midi": 37,
          "name": "C#2",
          "ticks": 97532,
          "time": 133.67725760416667,
          "velocity": 0.8976377952755905
        },
        {
          "duration": 0.137059895833346,
          "durationTicks": 100,
          "midi": 39,
          "name": "D#2",
          "ticks": 97724,
          "time": 133.94041260416665,
          "velocity": 0.8976377952755905
        },
        {
          "duration": 0.09868312500000798,
          "durationTicks": 72,
          "midi": 29,
          "name": "F1",
          "ticks": 98108,
          "time": 134.46672260416665,
          "velocity": 0.8503937007874016
        },
        {
          "duration": 0.08223593750000191,
          "durationTicks": 60,
          "midi": 32,
          "name": "G#1",
          "ticks": 98208,
          "time": 134.6037825,
          "velocity": 0.8976377952755905
        },
        {
          "duration": 0.09868312499997955,
          "durationTicks": 72,
          "midi": 34,
          "name": "A#1",
          "ticks": 98308,
          "time": 134.74084239583334,
          "velocity": 0.937007874015748
        },
        {
          "duration": 0.08771833333332779,
          "durationTicks": 64,
          "midi": 32,
          "name": "G#1",
          "ticks": 98496,
          "time": 134.998515,
          "velocity": 0.8267716535433071
        },
        {
          "duration": 0.10964791666665974,
          "durationTicks": 80,
          "midi": 34,
          "name": "A#1",
          "ticks": 98596,
          "time": 135.13557489583332,
          "velocity": 0.937007874015748
        },
        {
          "duration": 0.0767535416666476,
          "durationTicks": 56,
          "midi": 37,
          "name": "C#2",
          "ticks": 98788,
          "time": 135.39872989583333,
          "velocity": 0.8267716535433071
        },
        {
          "duration": 0.14254229166667187,
          "durationTicks": 104,
          "midi": 36,
          "name": "C2",
          "ticks": 98884,
          "time": 135.53030739583332,
          "velocity": 0.9763779527559056
        },
        {
          "duration": 0.08771833333335621,
          "durationTicks": 64,
          "midi": 34,
          "name": "A#1",
          "ticks": 99644,
          "time": 136.57196260416663,
          "velocity": 0.8976377952755905
        },
        {
          "duration": 0.10964791666668816,
          "durationTicks": 80,
          "midi": 37,
          "name": "C#2",
          "ticks": 99740,
          "time": 136.70354010416665,
          "velocity": 0.8976377952755905
        },
        {
          "duration": 0.1260951041666658,
          "durationTicks": 92,
          "midi": 39,
          "name": "D#2",
          "ticks": 99844,
          "time": 136.84608239583332,
          "velocity": 0.937007874015748
        },
        {
          "duration": 0.06578874999999584,
          "durationTicks": 48,
          "midi": 37,
          "name": "C#2",
          "ticks": 100032,
          "time": 137.10375499999998,
          "velocity": 0.8267716535433071
        },
        {
          "duration": 0.09868312500000798,
          "durationTicks": 72,
          "midi": 39,
          "name": "D#2",
          "ticks": 100132,
          "time": 137.24081489583332,
          "velocity": 0.937007874015748
        },
        {
          "duration": 0.08223593749997349,
          "durationTicks": 60,
          "midi": 42,
          "name": "F#2",
          "ticks": 100316,
          "time": 137.49300510416666,
          "velocity": 0.8976377952755905
        },
        {
          "duration": 0.10416552083333386,
          "durationTicks": 76,
          "midi": 41,
          "name": "F2",
          "ticks": 100412,
          "time": 137.62458260416665,
          "velocity": 0.937007874015748
        },
        {
          "duration": 0.1315775000000201,
          "durationTicks": 96,
          "midi": 37,
          "name": "C#2",
          "ticks": 100604,
          "time": 137.88773760416663,
          "velocity": 0.8976377952755905
        },
        {
          "duration": 0.137059895833346,
          "durationTicks": 100,
          "midi": 39,
          "name": "D#2",
          "ticks": 100796,
          "time": 138.15089260416664,
          "velocity": 0.8976377952755905
        },
        {
          "duration": 0.09868312500000798,
          "durationTicks": 72,
          "midi": 29,
          "name": "F1",
          "ticks": 101180,
          "time": 138.67720260416664,
          "velocity": 0.8503937007874016
        },
        {
          "duration": 0.08223593750000191,
          "durationTicks": 60,
          "midi": 32,
          "name": "G#1",
          "ticks": 101280,
          "time": 138.81426249999998,
          "velocity": 0.8976377952755905
        },
        {
          "duration": 0.09868312500000798,
          "durationTicks": 72,
          "midi": 34,
          "name": "A#1",
          "ticks": 101380,
          "time": 138.95132239583333,
          "velocity": 0.937007874015748
        },
        {
          "duration": 0.08771833333332779,
          "durationTicks": 64,
          "midi": 32,
          "name": "G#1",
          "ticks": 101568,
          "time": 139.208995,
          "velocity": 0.8267716535433071
        },
        {
          "duration": 0.10964791666665974,
          "durationTicks": 80,
          "midi": 34,
          "name": "A#1",
          "ticks": 101668,
          "time": 139.34605489583333,
          "velocity": 0.937007874015748
        },
        {
          "duration": 0.07675354166667603,
          "durationTicks": 56,
          "midi": 37,
          "name": "C#2",
          "ticks": 101860,
          "time": 139.60920989583332,
          "velocity": 0.8267716535433071
        },
        {
          "duration": 0.14254229166664345,
          "durationTicks": 104,
          "midi": 36,
          "name": "C2",
          "ticks": 101956,
          "time": 139.74078739583334,
          "velocity": 0.9763779527559056
        },
        {
          "duration": 0.08771833333332779,
          "durationTicks": 64,
          "midi": 34,
          "name": "A#1",
          "ticks": 102716,
          "time": 140.78244260416665,
          "velocity": 0.8976377952755905
        },
        {
          "duration": 0.10964791666668816,
          "durationTicks": 80,
          "midi": 37,
          "name": "C#2",
          "ticks": 102812,
          "time": 140.91402010416664,
          "velocity": 0.8976377952755905
        },
        {
          "duration": 0.08223593750000191,
          "durationTicks": 60,
          "midi": 34,
          "name": "A#1",
          "ticks": 115200,
          "time": 157.89299999999997,
          "velocity": 0.8976377952755905
        },
        {
          "duration": 0.06030635416664154,
          "durationTicks": 44,
          "midi": 34,
          "name": "A#1",
          "ticks": 115396,
          "time": 158.16163739583334,
          "velocity": 0.8976377952755905
        },
        {
          "duration": 0.08771833333335621,
          "durationTicks": 64,
          "midi": 34,
          "name": "A#1",
          "ticks": 115488,
          "time": 158.28773249999998,
          "velocity": 0.937007874015748
        },
        {
          "duration": 0.07127114583332173,
          "durationTicks": 52,
          "midi": 37,
          "name": "C#2",
          "ticks": 115684,
          "time": 158.5563698958333,
          "velocity": 0.8976377952755905
        },
        {
          "duration": 0.08771833333335621,
          "durationTicks": 64,
          "midi": 36,
          "name": "C2",
          "ticks": 115776,
          "time": 158.68246499999998,
          "velocity": 0.8976377952755905
        },
        {
          "duration": 0.09868312500000798,
          "durationTicks": 72,
          "midi": 32,
          "name": "G#1",
          "ticks": 115964,
          "time": 158.94013760416664,
          "velocity": 0.8976377952755905
        },
        {
          "duration": 0.11513031249998562,
          "durationTicks": 84,
          "midi": 34,
          "name": "A#1",
          "ticks": 116156,
          "time": 159.20329260416665,
          "velocity": 0.8267716535433071
        },
        {
          "duration": 0.07675354166667603,
          "durationTicks": 56,
          "midi": 29,
          "name": "F1",
          "ticks": 116540,
          "time": 159.72960260416664,
          "velocity": 0.8503937007874016
        },
        {
          "duration": 0.10416552083333386,
          "durationTicks": 76,
          "midi": 34,
          "name": "A#1",
          "ticks": 116636,
          "time": 159.86118010416664,
          "velocity": 0.8267716535433071
        },
        {
          "duration": 0.06030635416666996,
          "durationTicks": 44,
          "midi": 32,
          "name": "G#1",
          "ticks": 116932,
          "time": 160.26687739583332,
          "velocity": 0.8267716535433071
        },
        {
          "duration": 0.10416552083330544,
          "durationTicks": 76,
          "midi": 34,
          "name": "A#1",
          "ticks": 117028,
          "time": 160.39845489583334,
          "velocity": 0.8976377952755905
        },
        {
          "duration": 0.06578874999999584,
          "durationTicks": 48,
          "midi": 37,
          "name": "C#2",
          "ticks": 117220,
          "time": 160.66160989583332,
          "velocity": 0.8976377952755905
        },
        {
          "duration": 0.1206127083333115,
          "durationTicks": 88,
          "midi": 36,
          "name": "C2",
          "ticks": 117316,
          "time": 160.79318739583331,
          "velocity": 0.937007874015748
        },
        {
          "duration": 0.08223593750000191,
          "durationTicks": 60,
          "midi": 29,
          "name": "F1",
          "ticks": 118080,
          "time": 161.84032499999998,
          "velocity": 0.8976377952755905
        },
        {
          "duration": 0.10964791666665974,
          "durationTicks": 80,
          "midi": 34,
          "name": "A#1",
          "ticks": 118180,
          "time": 161.97738489583332,
          "velocity": 0.937007874015748
        },
        {
          "duration": 0.0767535416666476,
          "durationTicks": 56,
          "midi": 32,
          "name": "G#1",
          "ticks": 118468,
          "time": 162.37211739583333,
          "velocity": 0.8976377952755905
        },
        {
          "duration": 0.10964791666665974,
          "durationTicks": 80,
          "midi": 34,
          "name": "A#1",
          "ticks": 118564,
          "time": 162.50369489583332,
          "velocity": 0.8976377952755905
        },
        {
          "duration": 0.07127114583332173,
          "durationTicks": 52,
          "midi": 37,
          "name": "C#2",
          "ticks": 118756,
          "time": 162.76684989583333,
          "velocity": 0.8267716535433071
        },
        {
          "duration": 0.08771833333332779,
          "durationTicks": 64,
          "midi": 36,
          "name": "C2",
          "ticks": 118852,
          "time": 162.89842739583332,
          "velocity": 0.937007874015748
        },
        {
          "duration": 0.10964791666665974,
          "durationTicks": 80,
          "midi": 32,
          "name": "G#1",
          "ticks": 119044,
          "time": 163.16158239583334,
          "velocity": 0.8976377952755905
        },
        {
          "duration": 0.10964791666665974,
          "durationTicks": 80,
          "midi": 34,
          "name": "A#1",
          "ticks": 119236,
          "time": 163.42473739583332,
          "velocity": 0.8976377952755905
        },
        {
          "duration": 0.07127114583335015,
          "durationTicks": 52,
          "midi": 32,
          "name": "G#1",
          "ticks": 119616,
          "time": 163.945565,
          "velocity": 0.8267716535433071
        },
        {
          "duration": 0.0767535416666476,
          "durationTicks": 56,
          "midi": 34,
          "name": "A#1",
          "ticks": 119712,
          "time": 164.07714249999998,
          "velocity": 0.8976377952755905
        },
        {
          "duration": 0.10964791666665974,
          "durationTicks": 80,
          "midi": 34,
          "name": "A#1",
          "ticks": 119808,
          "time": 164.20871999999997,
          "velocity": 0.8267716535433071
        },
        {
          "duration": 0.08223593750000191,
          "durationTicks": 60,
          "midi": 32,
          "name": "G#1",
          "ticks": 120000,
          "time": 164.47187499999998,
          "velocity": 0.8267716535433071
        },
        {
          "duration": 0.1260951041666658,
          "durationTicks": 92,
          "midi": 34,
          "name": "A#1",
          "ticks": 120096,
          "time": 164.60345249999997,
          "velocity": 0.8976377952755905
        },
        {
          "duration": 0.0767535416666476,
          "durationTicks": 56,
          "midi": 37,
          "name": "C#2",
          "ticks": 120288,
          "time": 164.8666075,
          "velocity": 0.7952755905511811
        },
        {
          "duration": 0.09320072916665367,
          "durationTicks": 68,
          "midi": 36,
          "name": "C2",
          "ticks": 120384,
          "time": 164.99818499999998,
          "velocity": 0.937007874015748
        },
        {
          "duration": 0.07127114583335015,
          "durationTicks": 52,
          "midi": 32,
          "name": "G#1",
          "ticks": 121152,
          "time": 166.05080499999997,
          "velocity": 0.8976377952755905
        },
        {
          "duration": 0.07127114583335015,
          "durationTicks": 52,
          "midi": 34,
          "name": "A#1",
          "ticks": 121248,
          "time": 166.1823825,
          "velocity": 0.9763779527559056
        },
        {
          "duration": 0.11513031250001404,
          "durationTicks": 84,
          "midi": 27,
          "name": "D#1",
          "ticks": 121344,
          "time": 166.31395999999998,
          "velocity": 0.8267716535433071
        },
        {
          "duration": 0.0932007291666821,
          "durationTicks": 68,
          "midi": 27,
          "name": "D#1",
          "ticks": 121532,
          "time": 166.57163260416664,
          "velocity": 0.8976377952755905
        },
        {
          "duration": 0.10416552083333386,
          "durationTicks": 76,
          "midi": 27,
          "name": "D#1",
          "ticks": 121632,
          "time": 166.70869249999998,
          "velocity": 0.8267716535433071
        },
        {
          "duration": 0.0932007291666821,
          "durationTicks": 68,
          "midi": 36,
          "name": "C2",
          "ticks": 121820,
          "time": 166.96636510416664,
          "velocity": 0.8503937007874016
        },
        {
          "duration": 0.09868312500000798,
          "durationTicks": 72,
          "midi": 34,
          "name": "A#1",
          "ticks": 121916,
          "time": 167.09794260416663,
          "velocity": 0.8976377952755905
        },
        {
          "duration": 0.12061270833333992,
          "durationTicks": 88,
          "midi": 32,
          "name": "G#1",
          "ticks": 122108,
          "time": 167.36109760416664,
          "velocity": 0.8267716535433071
        },
        {
          "duration": 0.1425422916667003,
          "durationTicks": 104,
          "midi": 32,
          "name": "G#1",
          "ticks": 122300,
          "time": 167.62425260416663,
          "velocity": 0.937007874015748
        },
        {
          "duration": 0.11513031249998562,
          "durationTicks": 84,
          "midi": 27,
          "name": "D#1",
          "ticks": 122684,
          "time": 168.15056260416665,
          "velocity": 0.7716535433070866
        },
        {
          "duration": 0.07675354166667603,
          "durationTicks": 56,
          "midi": 32,
          "name": "G#1",
          "ticks": 122784,
          "time": 168.28762249999997,
          "velocity": 0.7716535433070866
        },
        {
          "duration": 0.12061270833333992,
          "durationTicks": 88,
          "midi": 29,
          "name": "F1",
          "ticks": 122880,
          "time": 168.4192,
          "velocity": 0.8976377952755905
        },
        {
          "duration": 0.08223593750000191,
          "durationTicks": 60,
          "midi": 29,
          "name": "F1",
          "ticks": 123068,
          "time": 168.67687260416665,
          "velocity": 0.8503937007874016
        },
        {
          "duration": 0.12061270833333992,
          "durationTicks": 88,
          "midi": 29,
          "name": "F1",
          "ticks": 123164,
          "time": 168.80845010416664,
          "velocity": 0.8503937007874016
        },
        {
          "duration": 0.10964791666665974,
          "durationTicks": 80,
          "midi": 36,
          "name": "C2",
          "ticks": 123364,
          "time": 169.08256989583333,
          "velocity": 0.8503937007874016
        },
        {
          "duration": 0.1315774999999917,
          "durationTicks": 96,
          "midi": 34,
          "name": "A#1",
          "ticks": 123460,
          "time": 169.21414739583332,
          "velocity": 0.8976377952755905
        },
        {
          "duration": 0.07127114583332173,
          "durationTicks": 52,
          "midi": 34,
          "name": "A#1",
          "ticks": 123844,
          "time": 169.74045739583332,
          "velocity": 0.8267716535433071
        },
        {
          "duration": 0.0712711458332933,
          "durationTicks": 52,
          "midi": 34,
          "name": "A#1",
          "ticks": 123940,
          "time": 169.87203489583334,
          "velocity": 0.8976377952755905
        },
        {
          "duration": 0.08223593750000191,
          "durationTicks": 60,
          "midi": 34,
          "name": "A#1",
          "ticks": 124036,
          "time": 170.00361239583333,
          "velocity": 0.937007874015748
        },
        {
          "duration": 0.09868312500000798,
          "durationTicks": 72,
          "midi": 36,
          "name": "C2",
          "ticks": 124132,
          "time": 170.13518989583332,
          "velocity": 0.8503937007874016
        },
        {
          "duration": 0.0767535416666476,
          "durationTicks": 56,
          "midi": 34,
          "name": "A#1",
          "ticks": 124324,
          "time": 170.39834489583333,
          "velocity": 0.8267716535433071
        },
        {
          "duration": 0.10964791666665974,
          "durationTicks": 80,
          "midi": 27,
          "name": "D#1",
          "ticks": 124420,
          "time": 170.52992239583332,
          "velocity": 0.8267716535433071
        },
        {
          "duration": 0.08223593750000191,
          "durationTicks": 60,
          "midi": 27,
          "name": "D#1",
          "ticks": 124604,
          "time": 170.78211260416663,
          "velocity": 0.8267716535433071
        },
        {
          "duration": 0.1206127083333115,
          "durationTicks": 88,
          "midi": 27,
          "name": "D#1",
          "ticks": 124708,
          "time": 170.92465489583333,
          "velocity": 0.7952755905511811
        },
        {
          "duration": 0.08771833333332779,
          "durationTicks": 64,
          "midi": 36,
          "name": "C2",
          "ticks": 124900,
          "time": 171.1878098958333,
          "velocity": 0.8267716535433071
        },
        {
          "duration": 0.1206127083333115,
          "durationTicks": 88,
          "midi": 34,
          "name": "A#1",
          "ticks": 124996,
          "time": 171.31938739583333,
          "velocity": 0.8976377952755905
        },
        {
          "duration": 0.137059895833346,
          "durationTicks": 100,
          "midi": 32,
          "name": "G#1",
          "ticks": 125184,
          "time": 171.57706,
          "velocity": 0.8976377952755905
        },
        {
          "duration": 0.11513031249998562,
          "durationTicks": 84,
          "midi": 32,
          "name": "G#1",
          "ticks": 125380,
          "time": 171.84569739583333,
          "velocity": 0.8267716535433071
        },
        {
          "duration": 0.06030635416664154,
          "durationTicks": 44,
          "midi": 32,
          "name": "G#1",
          "ticks": 125760,
          "time": 172.366525,
          "velocity": 0.7952755905511811
        },
        {
          "duration": 0.07675354166670445,
          "durationTicks": 56,
          "midi": 32,
          "name": "G#1",
          "ticks": 125852,
          "time": 172.49262010416663,
          "velocity": 0.8976377952755905
        },
        {
          "duration": 0.10416552083333386,
          "durationTicks": 76,
          "midi": 29,
          "name": "F1",
          "ticks": 125952,
          "time": 172.62967999999998,
          "velocity": 0.8976377952755905
        },
        {
          "duration": 0.07675354166667603,
          "durationTicks": 56,
          "midi": 29,
          "name": "F1",
          "ticks": 126140,
          "time": 172.88735260416664,
          "velocity": 0.937007874015748
        },
        {
          "duration": 0.12061270833333992,
          "durationTicks": 88,
          "midi": 29,
          "name": "F1",
          "ticks": 126240,
          "time": 173.02441249999998,
          "velocity": 0.937007874015748
        },
        {
          "duration": 0.0767535416666476,
          "durationTicks": 56,
          "midi": 36,
          "name": "C2",
          "ticks": 126436,
          "time": 173.29304989583332,
          "velocity": 0.8503937007874016
        },
        {
          "duration": 0.13705989583331757,
          "durationTicks": 100,
          "midi": 34,
          "name": "A#1",
          "ticks": 126532,
          "time": 173.4246273958333,
          "velocity": 0.937007874015748
        },
        {
          "duration": 0.11513031249998562,
          "durationTicks": 84,
          "midi": 32,
          "name": "G#1",
          "ticks": 126916,
          "time": 173.95093739583334,
          "velocity": 0.8976377952755905
        },
        {
          "duration": 0.06578874999999584,
          "durationTicks": 48,
          "midi": 32,
          "name": "G#1",
          "ticks": 127108,
          "time": 174.21409239583332,
          "velocity": 0.8267716535433071
        },
        {
          "duration": 0.10964791666663132,
          "durationTicks": 80,
          "midi": 32,
          "name": "G#1",
          "ticks": 127204,
          "time": 174.34566989583334,
          "velocity": 0.8976377952755905
        },
        {
          "duration": 0.11513031249998562,
          "durationTicks": 84,
          "midi": 37,
          "name": "C#2",
          "ticks": 127388,
          "time": 174.59786010416664,
          "velocity": 0.7952755905511811
        },
        {
          "duration": 0.11513031249998562,
          "durationTicks": 84,
          "midi": 27,
          "name": "D#1",
          "ticks": 127488,
          "time": 174.73492,
          "velocity": 0.8267716535433071
        },
        {
          "duration": 0.0932007291666821,
          "durationTicks": 68,
          "midi": 27,
          "name": "D#1",
          "ticks": 127676,
          "time": 174.99259260416665,
          "velocity": 0.8976377952755905
        },
        {
          "duration": 0.10416552083333386,
          "durationTicks": 76,
          "midi": 27,
          "name": "D#1",
          "ticks": 127776,
          "time": 175.1296525,
          "velocity": 0.8267716535433071
        },
        {
          "duration": 0.0932007291666821,
          "durationTicks": 68,
          "midi": 36,
          "name": "C2",
          "ticks": 127964,
          "time": 175.38732510416665,
          "velocity": 0.8503937007874016
        },
        {
          "duration": 0.09868312500000798,
          "durationTicks": 72,
          "midi": 34,
          "name": "A#1",
          "ticks": 128060,
          "time": 175.51890260416664,
          "velocity": 0.8976377952755905
        },
        {
          "duration": 0.12061270833336835,
          "durationTicks": 88,
          "midi": 32,
          "name": "G#1",
          "ticks": 128252,
          "time": 175.78205760416662,
          "velocity": 0.8267716535433071
        },
        {
          "duration": 0.1425422916667003,
          "durationTicks": 104,
          "midi": 32,
          "name": "G#1",
          "ticks": 128444,
          "time": 176.04521260416664,
          "velocity": 0.937007874015748
        },
        {
          "duration": 0.11513031250001404,
          "durationTicks": 84,
          "midi": 27,
          "name": "D#1",
          "ticks": 128828,
          "time": 176.57152260416663,
          "velocity": 0.7716535433070866
        },
        {
          "duration": 0.0767535416666476,
          "durationTicks": 56,
          "midi": 32,
          "name": "G#1",
          "ticks": 128928,
          "time": 176.70858249999998,
          "velocity": 0.7716535433070866
        },
        {
          "duration": 0.12061270833336835,
          "durationTicks": 88,
          "midi": 29,
          "name": "F1",
          "ticks": 129024,
          "time": 176.84015999999997,
          "velocity": 0.8976377952755905
        },
        {
          "duration": 0.08223593750000191,
          "durationTicks": 60,
          "midi": 29,
          "name": "F1",
          "ticks": 129212,
          "time": 177.09783260416663,
          "velocity": 0.8503937007874016
        },
        {
          "duration": 0.12061270833333992,
          "durationTicks": 88,
          "midi": 29,
          "name": "F1",
          "ticks": 129308,
          "time": 177.22941010416665,
          "velocity": 0.8503937007874016
        },
        {
          "duration": 0.10964791666663132,
          "durationTicks": 80,
          "midi": 36,
          "name": "C2",
          "ticks": 129508,
          "time": 177.50352989583334,
          "velocity": 0.8503937007874016
        },
        {
          "duration": 0.1315774999999917,
          "durationTicks": 96,
          "midi": 34,
          "name": "A#1",
          "ticks": 129604,
          "time": 177.63510739583333,
          "velocity": 0.8976377952755905
        },
        {
          "duration": 0.07127114583332173,
          "durationTicks": 52,
          "midi": 34,
          "name": "A#1",
          "ticks": 129988,
          "time": 178.16141739583333,
          "velocity": 0.8267716535433071
        },
        {
          "duration": 0.07127114583332173,
          "durationTicks": 52,
          "midi": 34,
          "name": "A#1",
          "ticks": 130084,
          "time": 178.29299489583332,
          "velocity": 0.8976377952755905
        },
        {
          "duration": 0.08223593749997349,
          "durationTicks": 60,
          "midi": 34,
          "name": "A#1",
          "ticks": 130180,
          "time": 178.42457239583334,
          "velocity": 0.937007874015748
        },
        {
          "duration": 0.09868312500000798,
          "durationTicks": 72,
          "midi": 36,
          "name": "C2",
          "ticks": 130276,
          "time": 178.55614989583333,
          "velocity": 0.8503937007874016
        },
        {
          "duration": 0.07675354166667603,
          "durationTicks": 56,
          "midi": 34,
          "name": "A#1",
          "ticks": 130468,
          "time": 178.8193048958333,
          "velocity": 0.8267716535433071
        },
        {
          "duration": 0.10964791666665974,
          "durationTicks": 80,
          "midi": 27,
          "name": "D#1",
          "ticks": 130564,
          "time": 178.95088239583333,
          "velocity": 0.8267716535433071
        },
        {
          "duration": 0.08223593750000191,
          "durationTicks": 60,
          "midi": 27,
          "name": "D#1",
          "ticks": 130748,
          "time": 179.20307260416664,
          "velocity": 0.8267716535433071
        },
        {
          "duration": 0.1206127083333115,
          "durationTicks": 88,
          "midi": 27,
          "name": "D#1",
          "ticks": 130852,
          "time": 179.34561489583334,
          "velocity": 0.7952755905511811
        },
        {
          "duration": 0.08771833333332779,
          "durationTicks": 64,
          "midi": 36,
          "name": "C2",
          "ticks": 131044,
          "time": 179.60876989583332,
          "velocity": 0.8267716535433071
        },
        {
          "duration": 0.12061270833333992,
          "durationTicks": 88,
          "midi": 34,
          "name": "A#1",
          "ticks": 131140,
          "time": 179.7403473958333,
          "velocity": 0.8976377952755905
        },
        {
          "duration": 0.137059895833346,
          "durationTicks": 100,
          "midi": 32,
          "name": "G#1",
          "ticks": 131328,
          "time": 179.99801999999997,
          "velocity": 0.8976377952755905
        },
        {
          "duration": 0.11513031249998562,
          "durationTicks": 84,
          "midi": 32,
          "name": "G#1",
          "ticks": 131524,
          "time": 180.26665739583333,
          "velocity": 0.8267716535433071
        },
        {
          "duration": 0.06030635416666996,
          "durationTicks": 44,
          "midi": 32,
          "name": "G#1",
          "ticks": 131904,
          "time": 180.78748499999998,
          "velocity": 0.7952755905511811
        },
        {
          "duration": 0.07675354166667603,
          "durationTicks": 56,
          "midi": 32,
          "name": "G#1",
          "ticks": 131996,
          "time": 180.91358010416664,
          "velocity": 0.8976377952755905
        },
        {
          "duration": 0.10416552083333386,
          "durationTicks": 76,
          "midi": 29,
          "name": "F1",
          "ticks": 132096,
          "time": 181.05064,
          "velocity": 0.8976377952755905
        },
        {
          "duration": 0.07675354166667603,
          "durationTicks": 56,
          "midi": 29,
          "name": "F1",
          "ticks": 132284,
          "time": 181.30831260416664,
          "velocity": 0.937007874015748
        },
        {
          "duration": 0.12061270833333992,
          "durationTicks": 88,
          "midi": 29,
          "name": "F1",
          "ticks": 132384,
          "time": 181.4453725,
          "velocity": 0.937007874015748
        },
        {
          "duration": 0.0767535416666476,
          "durationTicks": 56,
          "midi": 36,
          "name": "C2",
          "ticks": 132580,
          "time": 181.71400989583333,
          "velocity": 0.8503937007874016
        },
        {
          "duration": 0.13705989583331757,
          "durationTicks": 100,
          "midi": 34,
          "name": "A#1",
          "ticks": 132676,
          "time": 181.84558739583332,
          "velocity": 0.937007874015748
        },
        {
          "duration": 0.11513031250001404,
          "durationTicks": 84,
          "midi": 32,
          "name": "G#1",
          "ticks": 133060,
          "time": 182.37189739583332,
          "velocity": 0.8976377952755905
        },
        {
          "duration": 0.06578874999999584,
          "durationTicks": 48,
          "midi": 32,
          "name": "G#1",
          "ticks": 133252,
          "time": 182.63505239583333,
          "velocity": 0.8267716535433071
        },
        {
          "duration": 0.10964791666665974,
          "durationTicks": 80,
          "midi": 32,
          "name": "G#1",
          "ticks": 133348,
          "time": 182.76662989583332,
          "velocity": 0.8976377952755905
        },
        {
          "duration": 0.11513031249998562,
          "durationTicks": 84,
          "midi": 37,
          "name": "C#2",
          "ticks": 133532,
          "time": 183.01882010416665,
          "velocity": 0.7952755905511811
        },
        {
          "duration": 0.11513031250001404,
          "durationTicks": 84,
          "midi": 27,
          "name": "D#1",
          "ticks": 133632,
          "time": 183.15587999999997,
          "velocity": 0.8267716535433071
        },
        {
          "duration": 0.09320072916671052,
          "durationTicks": 68,
          "midi": 27,
          "name": "D#1",
          "ticks": 133820,
          "time": 183.41355260416663,
          "velocity": 0.8976377952755905
        },
        {
          "duration": 0.10416552083336228,
          "durationTicks": 76,
          "midi": 27,
          "name": "D#1",
          "ticks": 133920,
          "time": 183.55061249999997,
          "velocity": 0.8267716535433071
        },
        {
          "duration": 0.0932007291666821,
          "durationTicks": 68,
          "midi": 36,
          "name": "C2",
          "ticks": 134108,
          "time": 183.80828510416663,
          "velocity": 0.8503937007874016
        },
        {
          "duration": 0.09868312499997955,
          "durationTicks": 72,
          "midi": 34,
          "name": "A#1",
          "ticks": 134204,
          "time": 183.93986260416665,
          "velocity": 0.8976377952755905
        },
        {
          "duration": 0.12061270833333992,
          "durationTicks": 88,
          "midi": 32,
          "name": "G#1",
          "ticks": 134396,
          "time": 184.20301760416663,
          "velocity": 0.8267716535433071
        },
        {
          "duration": 0.14254229166667187,
          "durationTicks": 104,
          "midi": 32,
          "name": "G#1",
          "ticks": 134588,
          "time": 184.46617260416664,
          "velocity": 0.937007874015748
        },
        {
          "duration": 0.11513031249998562,
          "durationTicks": 84,
          "midi": 27,
          "name": "D#1",
          "ticks": 134972,
          "time": 184.99248260416664,
          "velocity": 0.7716535433070866
        },
        {
          "duration": 0.0767535416666476,
          "durationTicks": 56,
          "midi": 32,
          "name": "G#1",
          "ticks": 135072,
          "time": 185.12954249999999,
          "velocity": 0.7716535433070866
        },
        {
          "duration": 0.12061270833333992,
          "durationTicks": 88,
          "midi": 29,
          "name": "F1",
          "ticks": 135168,
          "time": 185.26111999999998,
          "velocity": 0.8976377952755905
        },
        {
          "duration": 0.08223593750000191,
          "durationTicks": 60,
          "midi": 29,
          "name": "F1",
          "ticks": 135356,
          "time": 185.51879260416663,
          "velocity": 0.8503937007874016
        },
        {
          "duration": 0.12061270833336835,
          "durationTicks": 88,
          "midi": 29,
          "name": "F1",
          "ticks": 135452,
          "time": 185.65037010416663,
          "velocity": 0.8503937007874016
        },
        {
          "duration": 0.10964791666665974,
          "durationTicks": 80,
          "midi": 36,
          "name": "C2",
          "ticks": 135652,
          "time": 185.92448989583332,
          "velocity": 0.8503937007874016
        },
        {
          "duration": 0.1315775000000201,
          "durationTicks": 96,
          "midi": 34,
          "name": "A#1",
          "ticks": 135748,
          "time": 186.0560673958333,
          "velocity": 0.8976377952755905
        },
        {
          "duration": 0.0712711458332933,
          "durationTicks": 52,
          "midi": 34,
          "name": "A#1",
          "ticks": 136132,
          "time": 186.58237739583333,
          "velocity": 0.8267716535433071
        },
        {
          "duration": 0.07127114583332173,
          "durationTicks": 52,
          "midi": 34,
          "name": "A#1",
          "ticks": 136228,
          "time": 186.71395489583333,
          "velocity": 0.8976377952755905
        },
        {
          "duration": 0.08223593750000191,
          "durationTicks": 60,
          "midi": 34,
          "name": "A#1",
          "ticks": 136324,
          "time": 186.84553239583332,
          "velocity": 0.937007874015748
        },
        {
          "duration": 0.09868312499997955,
          "durationTicks": 72,
          "midi": 36,
          "name": "C2",
          "ticks": 136420,
          "time": 186.97710989583334,
          "velocity": 0.8503937007874016
        },
        {
          "duration": 0.0767535416666476,
          "durationTicks": 56,
          "midi": 34,
          "name": "A#1",
          "ticks": 136612,
          "time": 187.24026489583332,
          "velocity": 0.8267716535433071
        },
        {
          "duration": 0.10964791666665974,
          "durationTicks": 80,
          "midi": 27,
          "name": "D#1",
          "ticks": 136708,
          "time": 187.3718423958333,
          "velocity": 0.8267716535433071
        },
        {
          "duration": 0.08223593750000191,
          "durationTicks": 60,
          "midi": 27,
          "name": "D#1",
          "ticks": 136892,
          "time": 187.62403260416664,
          "velocity": 0.8267716535433071
        },
        {
          "duration": 0.1206127083333115,
          "durationTicks": 88,
          "midi": 27,
          "name": "D#1",
          "ticks": 136996,
          "time": 187.76657489583332,
          "velocity": 0.7952755905511811
        },
        {
          "duration": 0.08771833333329937,
          "durationTicks": 64,
          "midi": 36,
          "name": "C2",
          "ticks": 137188,
          "time": 188.02972989583333,
          "velocity": 0.8267716535433071
        },
        {
          "duration": 0.1206127083333115,
          "durationTicks": 88,
          "midi": 34,
          "name": "A#1",
          "ticks": 137284,
          "time": 188.16130739583332,
          "velocity": 0.8976377952755905
        },
        {
          "duration": 0.137059895833346,
          "durationTicks": 100,
          "midi": 32,
          "name": "G#1",
          "ticks": 137472,
          "time": 188.41897999999998,
          "velocity": 0.8976377952755905
        },
        {
          "duration": 0.11513031250001404,
          "durationTicks": 84,
          "midi": 32,
          "name": "G#1",
          "ticks": 137668,
          "time": 188.6876173958333,
          "velocity": 0.8267716535433071
        },
        {
          "duration": 0.06030635416664154,
          "durationTicks": 44,
          "midi": 32,
          "name": "G#1",
          "ticks": 138048,
          "time": 189.20844499999998,
          "velocity": 0.7952755905511811
        },
        {
          "duration": 0.07675354166667603,
          "durationTicks": 56,
          "midi": 32,
          "name": "G#1",
          "ticks": 138140,
          "time": 189.33454010416665,
          "velocity": 0.8976377952755905
        },
        {
          "duration": 0.10416552083336228,
          "durationTicks": 76,
          "midi": 29,
          "name": "F1",
          "ticks": 138240,
          "time": 189.47159999999997,
          "velocity": 0.8976377952755905
        },
        {
          "duration": 0.07675354166670445,
          "durationTicks": 56,
          "midi": 29,
          "name": "F1",
          "ticks": 138428,
          "time": 189.72927260416662,
          "velocity": 0.937007874015748
        },
        {
          "duration": 0.12061270833333992,
          "durationTicks": 88,
          "midi": 29,
          "name": "F1",
          "ticks": 138528,
          "time": 189.86633249999997,
          "velocity": 0.937007874015748
        },
        {
          "duration": 0.0767535416666476,
          "durationTicks": 56,
          "midi": 36,
          "name": "C2",
          "ticks": 138724,
          "time": 190.13496989583334,
          "velocity": 0.8503937007874016
        },
        {
          "duration": 0.13705989583331757,
          "durationTicks": 100,
          "midi": 34,
          "name": "A#1",
          "ticks": 138820,
          "time": 190.26654739583333,
          "velocity": 0.937007874015748
        },
        {
          "duration": 0.11513031250001404,
          "durationTicks": 84,
          "midi": 32,
          "name": "G#1",
          "ticks": 139204,
          "time": 190.79285739583332,
          "velocity": 0.8976377952755905
        },
        {
          "duration": 0.06578874999999584,
          "durationTicks": 48,
          "midi": 32,
          "name": "G#1",
          "ticks": 139396,
          "time": 191.05601239583333,
          "velocity": 0.8267716535433071
        },
        {
          "duration": 0.10964791666665974,
          "durationTicks": 80,
          "midi": 32,
          "name": "G#1",
          "ticks": 139492,
          "time": 191.18758989583333,
          "velocity": 0.8976377952755905
        },
        {
          "duration": 0.11513031250001404,
          "durationTicks": 84,
          "midi": 37,
          "name": "C#2",
          "ticks": 139676,
          "time": 191.43978010416663,
          "velocity": 0.7952755905511811
        },
        {
          "duration": 0.11513031250001404,
          "durationTicks": 84,
          "midi": 27,
          "name": "D#1",
          "ticks": 139776,
          "time": 191.57683999999998,
          "velocity": 0.8267716535433071
        },
        {
          "duration": 0.0932007291666821,
          "durationTicks": 68,
          "midi": 27,
          "name": "D#1",
          "ticks": 139964,
          "time": 191.83451260416663,
          "velocity": 0.8976377952755905
        },
        {
          "duration": 0.10416552083333386,
          "durationTicks": 76,
          "midi": 27,
          "name": "D#1",
          "ticks": 140064,
          "time": 191.97157249999998,
          "velocity": 0.8267716535433071
        },
        {
          "duration": 0.0932007291666821,
          "durationTicks": 68,
          "midi": 36,
          "name": "C2",
          "ticks": 140252,
          "time": 192.22924510416664,
          "velocity": 0.8503937007874016
        },
        {
          "duration": 0.09868312500000798,
          "durationTicks": 72,
          "midi": 34,
          "name": "A#1",
          "ticks": 140348,
          "time": 192.36082260416663,
          "velocity": 0.8976377952755905
        },
        {
          "duration": 0.12061270833333992,
          "durationTicks": 88,
          "midi": 32,
          "name": "G#1",
          "ticks": 140540,
          "time": 192.62397760416664,
          "velocity": 0.8267716535433071
        },
        {
          "duration": 0.1425422916667003,
          "durationTicks": 104,
          "midi": 32,
          "name": "G#1",
          "ticks": 140732,
          "time": 192.88713260416662,
          "velocity": 0.937007874015748
        },
        {
          "duration": 0.11513031249998562,
          "durationTicks": 84,
          "midi": 27,
          "name": "D#1",
          "ticks": 141116,
          "time": 193.41344260416665,
          "velocity": 0.7716535433070866
        },
        {
          "duration": 0.0767535416666476,
          "durationTicks": 56,
          "midi": 32,
          "name": "G#1",
          "ticks": 141216,
          "time": 193.5505025,
          "velocity": 0.7716535433070866
        },
        {
          "duration": 0.12061270833333992,
          "durationTicks": 88,
          "midi": 29,
          "name": "F1",
          "ticks": 141312,
          "time": 193.68207999999998,
          "velocity": 0.8976377952755905
        },
        {
          "duration": 0.08223593750000191,
          "durationTicks": 60,
          "midi": 29,
          "name": "F1",
          "ticks": 141500,
          "time": 193.93975260416664,
          "velocity": 0.8503937007874016
        },
        {
          "duration": 0.12061270833333992,
          "durationTicks": 88,
          "midi": 29,
          "name": "F1",
          "ticks": 141596,
          "time": 194.07133010416663,
          "velocity": 0.8503937007874016
        },
        {
          "duration": 0.10964791666665974,
          "durationTicks": 80,
          "midi": 36,
          "name": "C2",
          "ticks": 141796,
          "time": 194.34544989583333,
          "velocity": 0.8503937007874016
        },
        {
          "duration": 0.1315774999999917,
          "durationTicks": 96,
          "midi": 34,
          "name": "A#1",
          "ticks": 141892,
          "time": 194.47702739583332,
          "velocity": 0.8976377952755905
        },
        {
          "duration": 0.07127114583332173,
          "durationTicks": 52,
          "midi": 34,
          "name": "A#1",
          "ticks": 142276,
          "time": 195.0033373958333,
          "velocity": 0.8267716535433071
        },
        {
          "duration": 0.0712711458332933,
          "durationTicks": 52,
          "midi": 34,
          "name": "A#1",
          "ticks": 142372,
          "time": 195.13491489583333,
          "velocity": 0.8976377952755905
        },
        {
          "duration": 0.08223593750000191,
          "durationTicks": 60,
          "midi": 34,
          "name": "A#1",
          "ticks": 142468,
          "time": 195.26649239583332,
          "velocity": 0.937007874015748
        },
        {
          "duration": 0.09868312500000798,
          "durationTicks": 72,
          "midi": 36,
          "name": "C2",
          "ticks": 142564,
          "time": 195.39806989583332,
          "velocity": 0.8503937007874016
        },
        {
          "duration": 0.0767535416666476,
          "durationTicks": 56,
          "midi": 34,
          "name": "A#1",
          "ticks": 142756,
          "time": 195.66122489583333,
          "velocity": 0.8267716535433071
        },
        {
          "duration": 0.10964791666665974,
          "durationTicks": 80,
          "midi": 27,
          "name": "D#1",
          "ticks": 142852,
          "time": 195.79280239583332,
          "velocity": 0.8267716535433071
        },
        {
          "duration": 0.08223593750000191,
          "durationTicks": 60,
          "midi": 27,
          "name": "D#1",
          "ticks": 143036,
          "time": 196.04499260416662,
          "velocity": 0.8267716535433071
        },
        {
          "duration": 0.1206127083333115,
          "durationTicks": 88,
          "midi": 27,
          "name": "D#1",
          "ticks": 143140,
          "time": 196.18753489583332,
          "velocity": 0.7952755905511811
        },
        {
          "duration": 0.08771833333329937,
          "durationTicks": 64,
          "midi": 36,
          "name": "C2",
          "ticks": 143332,
          "time": 196.45068989583334,
          "velocity": 0.8267716535433071
        },
        {
          "duration": 0.1206127083333115,
          "durationTicks": 88,
          "midi": 34,
          "name": "A#1",
          "ticks": 143428,
          "time": 196.58226739583333,
          "velocity": 0.8976377952755905
        },
        {
          "duration": 0.137059895833346,
          "durationTicks": 100,
          "midi": 32,
          "name": "G#1",
          "ticks": 143616,
          "time": 196.83993999999998,
          "velocity": 0.8976377952755905
        },
        {
          "duration": 0.11513031250001404,
          "durationTicks": 84,
          "midi": 32,
          "name": "G#1",
          "ticks": 143812,
          "time": 197.10857739583332,
          "velocity": 0.8267716535433071
        },
        {
          "duration": 0.06030635416664154,
          "durationTicks": 44,
          "midi": 32,
          "name": "G#1",
          "ticks": 144192,
          "time": 197.629405,
          "velocity": 0.7952755905511811
        },
        {
          "duration": 0.07675354166670445,
          "durationTicks": 56,
          "midi": 32,
          "name": "G#1",
          "ticks": 144284,
          "time": 197.75550010416663,
          "velocity": 0.8976377952755905
        },
        {
          "duration": 0.10416552083333386,
          "durationTicks": 76,
          "midi": 29,
          "name": "F1",
          "ticks": 144384,
          "time": 197.89255999999997,
          "velocity": 0.8976377952755905
        },
        {
          "duration": 0.07675354166667603,
          "durationTicks": 56,
          "midi": 29,
          "name": "F1",
          "ticks": 144572,
          "time": 198.15023260416663,
          "velocity": 0.937007874015748
        },
        {
          "duration": 0.12061270833333992,
          "durationTicks": 88,
          "midi": 29,
          "name": "F1",
          "ticks": 144672,
          "time": 198.28729249999998,
          "velocity": 0.937007874015748
        },
        {
          "duration": 0.07675354166667603,
          "durationTicks": 56,
          "midi": 36,
          "name": "C2",
          "ticks": 144868,
          "time": 198.55592989583332,
          "velocity": 0.8503937007874016
        },
        {
          "duration": 0.13705989583328915,
          "durationTicks": 100,
          "midi": 34,
          "name": "A#1",
          "ticks": 144964,
          "time": 198.68750739583334,
          "velocity": 0.937007874015748
        },
        {
          "duration": 0.11513031249998562,
          "durationTicks": 84,
          "midi": 32,
          "name": "G#1",
          "ticks": 145348,
          "time": 199.21381739583333,
          "velocity": 0.8976377952755905
        },
        {
          "duration": 0.06578874999999584,
          "durationTicks": 48,
          "midi": 32,
          "name": "G#1",
          "ticks": 145540,
          "time": 199.47697239583331,
          "velocity": 0.8267716535433071
        },
        {
          "duration": 0.10964791666663132,
          "durationTicks": 80,
          "midi": 32,
          "name": "G#1",
          "ticks": 145636,
          "time": 199.60854989583333,
          "velocity": 0.8976377952755905
        },
        {
          "duration": 0.11513031249998562,
          "durationTicks": 84,
          "midi": 37,
          "name": "C#2",
          "ticks": 145820,
          "time": 199.86074010416664,
          "velocity": 0.7952755905511811
        },
        {
          "duration": 0.11513031249998562,
          "durationTicks": 84,
          "midi": 27,
          "name": "D#1",
          "ticks": 145920,
          "time": 199.99779999999998,
          "velocity": 0.8267716535433071
        },
        {
          "duration": 0.0932007291666821,
          "durationTicks": 68,
          "midi": 27,
          "name": "D#1",
          "ticks": 146108,
          "time": 200.25547260416664,
          "velocity": 0.8976377952755905
        },
        {
          "duration": 0.10416552083333386,
          "durationTicks": 76,
          "midi": 27,
          "name": "D#1",
          "ticks": 146208,
          "time": 200.3925325,
          "velocity": 0.8188976377952756
        },
        {
          "duration": 0.0932007291666821,
          "durationTicks": 68,
          "midi": 36,
          "name": "C2",
          "ticks": 146396,
          "time": 200.65020510416664,
          "velocity": 0.8267716535433071
        },
        {
          "duration": 0.09868312500000798,
          "durationTicks": 72,
          "midi": 34,
          "name": "A#1",
          "ticks": 146492,
          "time": 200.78178260416664,
          "velocity": 0.8582677165354331
        },
        {
          "duration": 0.12061270833333992,
          "durationTicks": 88,
          "midi": 32,
          "name": "G#1",
          "ticks": 146684,
          "time": 201.04493760416665,
          "velocity": 0.7795275590551181
        },
        {
          "duration": 0.1425422916667003,
          "durationTicks": 104,
          "midi": 32,
          "name": "G#1",
          "ticks": 146876,
          "time": 201.30809260416663,
          "velocity": 0.8740157480314961
        },
        {
          "duration": 0.11513031250001404,
          "durationTicks": 84,
          "midi": 27,
          "name": "D#1",
          "ticks": 147260,
          "time": 201.83440260416663,
          "velocity": 0.6929133858267716
        },
        {
          "duration": 0.07675354166667603,
          "durationTicks": 56,
          "midi": 32,
          "name": "G#1",
          "ticks": 147360,
          "time": 201.97146249999997,
          "velocity": 0.6850393700787402
        },
        {
          "duration": 0.12061270833336835,
          "durationTicks": 88,
          "midi": 29,
          "name": "F1",
          "ticks": 147456,
          "time": 202.10303999999996,
          "velocity": 0.7874015748031497
        },
        {
          "duration": 0.08223593750000191,
          "durationTicks": 60,
          "midi": 29,
          "name": "F1",
          "ticks": 147644,
          "time": 202.36071260416662,
          "velocity": 0.7322834645669292
        },
        {
          "duration": 0.12061270833333992,
          "durationTicks": 88,
          "midi": 29,
          "name": "F1",
          "ticks": 147740,
          "time": 202.49229010416664,
          "velocity": 0.7322834645669292
        },
        {
          "duration": 0.10964791666663132,
          "durationTicks": 80,
          "midi": 36,
          "name": "C2",
          "ticks": 147940,
          "time": 202.76640989583333,
          "velocity": 0.7165354330708661
        },
        {
          "duration": 0.1315774999999917,
          "durationTicks": 96,
          "midi": 34,
          "name": "A#1",
          "ticks": 148036,
          "time": 202.89798739583333,
          "velocity": 0.7480314960629921
        },
        {
          "duration": 0.07127114583332173,
          "durationTicks": 52,
          "midi": 34,
          "name": "A#1",
          "ticks": 148420,
          "time": 203.42429739583332,
          "velocity": 0.6614173228346457
        },
        {
          "duration": 0.07127114583332173,
          "durationTicks": 52,
          "midi": 34,
          "name": "A#1",
          "ticks": 148516,
          "time": 203.5558748958333,
          "velocity": 0.7086614173228346
        },
        {
          "duration": 0.08223593750000191,
          "durationTicks": 60,
          "midi": 34,
          "name": "A#1",
          "ticks": 148612,
          "time": 203.68745239583333,
          "velocity": 0.7244094488188977
        },
        {
          "duration": 0.09868312500000798,
          "durationTicks": 72,
          "midi": 36,
          "name": "C2",
          "ticks": 148708,
          "time": 203.81902989583332,
          "velocity": 0.6614173228346457
        },
        {
          "duration": 0.07675354166667603,
          "durationTicks": 56,
          "midi": 34,
          "name": "A#1",
          "ticks": 148900,
          "time": 204.0821848958333,
          "velocity": 0.6299212598425197
        },
        {
          "duration": 0.10964791666665974,
          "durationTicks": 80,
          "midi": 27,
          "name": "D#1",
          "ticks": 148996,
          "time": 204.21376239583333,
          "velocity": 0.6220472440944882
        },
        {
          "duration": 0.08223593750000191,
          "durationTicks": 60,
          "midi": 27,
          "name": "D#1",
          "ticks": 149180,
          "time": 204.46595260416663,
          "velocity": 0.6062992125984252
        },
        {
          "duration": 0.1206127083333115,
          "durationTicks": 88,
          "midi": 27,
          "name": "D#1",
          "ticks": 149284,
          "time": 204.60849489583333,
          "velocity": 0.5748031496062992
        },
        {
          "duration": 0.08771833333332779,
          "durationTicks": 64,
          "midi": 36,
          "name": "C2",
          "ticks": 149476,
          "time": 204.87164989583331,
          "velocity": 0.5826771653543307
        },
        {
          "duration": 0.1206127083333115,
          "durationTicks": 88,
          "midi": 34,
          "name": "A#1",
          "ticks": 149572,
          "time": 205.00322739583333,
          "velocity": 0.6299212598425197
        },
        {
          "duration": 0.13705989583331757,
          "durationTicks": 100,
          "midi": 32,
          "name": "G#1",
          "ticks": 149760,
          "time": 205.2609,
          "velocity": 0.6141732283464567
        },
        {
          "duration": 0.11513031249998562,
          "durationTicks": 84,
          "midi": 32,
          "name": "G#1",
          "ticks": 149956,
          "time": 205.52953739583333,
          "velocity": 0.5511811023622047
        },
        {
          "duration": 0.06030635416666996,
          "durationTicks": 44,
          "midi": 32,
          "name": "G#1",
          "ticks": 150336,
          "time": 206.05036499999997,
          "velocity": 0.5039370078740157
        },
        {
          "duration": 0.07675354166667603,
          "durationTicks": 56,
          "midi": 32,
          "name": "G#1",
          "ticks": 150428,
          "time": 206.17646010416664,
          "velocity": 0.5669291338582677
        },
        {
          "duration": 0.10416552083333386,
          "durationTicks": 76,
          "midi": 29,
          "name": "F1",
          "ticks": 150528,
          "time": 206.31351999999998,
          "velocity": 0.5590551181102362
        },
        {
          "duration": 0.07675354166667603,
          "durationTicks": 56,
          "midi": 29,
          "name": "F1",
          "ticks": 150716,
          "time": 206.57119260416664,
          "velocity": 0.5669291338582677
        },
        {
          "duration": 0.12061270833333992,
          "durationTicks": 88,
          "midi": 29,
          "name": "F1",
          "ticks": 150816,
          "time": 206.7082525,
          "velocity": 0.5590551181102362
        },
        {
          "duration": 0.0767535416666476,
          "durationTicks": 56,
          "midi": 36,
          "name": "C2",
          "ticks": 151012,
          "time": 206.97688989583332,
          "velocity": 0.4881889763779528
        },
        {
          "duration": 0.13705989583331757,
          "durationTicks": 100,
          "midi": 34,
          "name": "A#1",
          "ticks": 151108,
          "time": 207.10846739583332,
          "velocity": 0.5275590551181102
        },
        {
          "duration": 0.11513031250001404,
          "durationTicks": 84,
          "midi": 32,
          "name": "G#1",
          "ticks": 151492,
          "time": 207.6347773958333,
          "velocity": 0.4881889763779528
        },
        {
          "duration": 0.06578874999999584,
          "durationTicks": 48,
          "midi": 32,
          "name": "G#1",
          "ticks": 151684,
          "time": 207.89793239583332,
          "velocity": 0.4330708661417323
        },
        {
          "duration": 0.10964791666665974,
          "durationTicks": 80,
          "midi": 32,
          "name": "G#1",
          "ticks": 151780,
          "time": 208.0295098958333,
          "velocity": 0.4566929133858268
        },
        {
          "duration": 0.11513031249998562,
          "durationTicks": 84,
          "midi": 37,
          "name": "C#2",
          "ticks": 151964,
          "time": 208.28170010416665,
          "velocity": 0.3937007874015748
        },
        {
          "duration": 0.11513031249998562,
          "durationTicks": 84,
          "midi": 27,
          "name": "D#1",
          "ticks": 152064,
          "time": 208.41876,
          "velocity": 0.4015748031496063
        },
        {
          "duration": 0.09320072916671052,
          "durationTicks": 68,
          "midi": 27,
          "name": "D#1",
          "ticks": 152252,
          "time": 208.67643260416662,
          "velocity": 0.4251968503937008
        },
        {
          "duration": 0.10416552083336228,
          "durationTicks": 76,
          "midi": 27,
          "name": "D#1",
          "ticks": 152352,
          "time": 208.81349249999997,
          "velocity": 0.3858267716535433
        },
        {
          "duration": 0.09320072916671052,
          "durationTicks": 68,
          "midi": 36,
          "name": "C2",
          "ticks": 152540,
          "time": 209.07116510416662,
          "velocity": 0.3858267716535433
        },
        {
          "duration": 0.09868312499997955,
          "durationTicks": 72,
          "midi": 34,
          "name": "A#1",
          "ticks": 152636,
          "time": 209.20274260416664,
          "velocity": 0.3937007874015748
        },
        {
          "duration": 0.12061270833333992,
          "durationTicks": 88,
          "midi": 32,
          "name": "G#1",
          "ticks": 152828,
          "time": 209.46589760416663,
          "velocity": 0.3543307086614173
        },
        {
          "duration": 0.14254229166667187,
          "durationTicks": 104,
          "midi": 32,
          "name": "G#1",
          "ticks": 153020,
          "time": 209.72905260416664,
          "velocity": 0.3779527559055118
        },
        {
          "duration": 0.11513031249998562,
          "durationTicks": 84,
          "midi": 27,
          "name": "D#1",
          "ticks": 153404,
          "time": 210.25536260416663,
          "velocity": 0.2992125984251969
        },
        {
          "duration": 0.0767535416666476,
          "durationTicks": 56,
          "midi": 32,
          "name": "G#1",
          "ticks": 153504,
          "time": 210.39242249999998,
          "velocity": 0.29133858267716534
        },
        {
          "duration": 0.12061270833333992,
          "durationTicks": 88,
          "midi": 29,
          "name": "F1",
          "ticks": 153600,
          "time": 210.52399999999997,
          "velocity": 0.3228346456692913
        },
        {
          "duration": 0.08223593750000191,
          "durationTicks": 60,
          "midi": 29,
          "name": "F1",
          "ticks": 153788,
          "time": 210.78167260416663,
          "velocity": 0.29133858267716534
        },
        {
          "duration": 0.12061270833336835,
          "durationTicks": 88,
          "midi": 29,
          "name": "F1",
          "ticks": 153884,
          "time": 210.91325010416662,
          "velocity": 0.28346456692913385
        },
        {
          "duration": 0.10964791666665974,
          "durationTicks": 80,
          "midi": 36,
          "name": "C2",
          "ticks": 154084,
          "time": 211.1873698958333,
          "velocity": 0.2755905511811024
        },
        {
          "duration": 0.1315774999999917,
          "durationTicks": 96,
          "midi": 34,
          "name": "A#1",
          "ticks": 154180,
          "time": 211.31894739583333,
          "velocity": 0.28346456692913385
        },
        {
          "duration": 0.0712711458332933,
          "durationTicks": 52,
          "midi": 34,
          "name": "A#1",
          "ticks": 154564,
          "time": 211.84525739583333,
          "velocity": 0.2283464566929134
        },
        {
          "duration": 0.07127114583332173,
          "durationTicks": 52,
          "midi": 34,
          "name": "A#1",
          "ticks": 154660,
          "time": 211.97683489583332,
          "velocity": 0.23622047244094488
        },
        {
          "duration": 0.08223593750000191,
          "durationTicks": 60,
          "midi": 34,
          "name": "A#1",
          "ticks": 154756,
          "time": 212.1084123958333,
          "velocity": 0.23622047244094488
        },
        {
          "duration": 0.09868312499997955,
          "durationTicks": 72,
          "midi": 36,
          "name": "C2",
          "ticks": 154852,
          "time": 212.23998989583333,
          "velocity": 0.2125984251968504
        },
        {
          "duration": 0.0767535416666476,
          "durationTicks": 56,
          "midi": 34,
          "name": "A#1",
          "ticks": 155044,
          "time": 212.50314489583332,
          "velocity": 0.2047244094488189
        },
        {
          "duration": 0.10964791666665974,
          "durationTicks": 80,
          "midi": 27,
          "name": "D#1",
          "ticks": 155140,
          "time": 212.6347223958333,
          "velocity": 0.1968503937007874
        },
        {
          "duration": 0.08223593750000191,
          "durationTicks": 60,
          "midi": 27,
          "name": "D#1",
          "ticks": 155324,
          "time": 212.88691260416664,
          "velocity": 0.18110236220472442
        },
        {
          "duration": 0.1206127083333115,
          "durationTicks": 88,
          "midi": 27,
          "name": "D#1",
          "ticks": 155428,
          "time": 213.0294548958333,
          "velocity": 0.16535433070866143
        },
        {
          "duration": 0.08771833333329937,
          "durationTicks": 64,
          "midi": 36,
          "name": "C2",
          "ticks": 155620,
          "time": 213.29260989583332,
          "velocity": 0.15748031496062992
        },
        {
          "duration": 0.1206127083333115,
          "durationTicks": 88,
          "midi": 34,
          "name": "A#1",
          "ticks": 155716,
          "time": 213.42418739583331,
          "velocity": 0.15748031496062992
        },
        {
          "duration": 0.137059895833346,
          "durationTicks": 100,
          "midi": 32,
          "name": "G#1",
          "ticks": 155904,
          "time": 213.68185999999997,
          "velocity": 0.14960629921259844
        },
        {
          "duration": 0.11513031250001404,
          "durationTicks": 84,
          "midi": 32,
          "name": "G#1",
          "ticks": 156100,
          "time": 213.9504973958333,
          "velocity": 0.12598425196850394
        },
        {
          "duration": 0.06030635416664154,
          "durationTicks": 44,
          "midi": 32,
          "name": "G#1",
          "ticks": 156480,
          "time": 214.47132499999998,
          "velocity": 0.09448818897637795
        },
        {
          "duration": 0.06578874999999584,
          "durationTicks": 48,
          "midi": 32,
          "name": "G#1",
          "ticks": 156572,
          "time": 214.59742010416664,
          "velocity": 0.007874015748031496
        }
      ],
      "endOfTrackTicks": 158208
    },
    {
      "channel": 2,
      "controlChanges": {
        "1": [
          {
            "number": 1,
            "ticks": 90632,
            "time": 124.22012479166666,
            "value": 0
          }
        ],
        "7": [
          {
            "number": 7,
            "ticks": 1972,
            "time": 2.702821145833333,
            "value": 0.8267716535433071
          }
        ],
        "10": [
          {
            "number": 10,
            "ticks": 1972,
            "time": 2.702821145833333,
            "value": 0.7874015748031497
          }
        ],
        "11": [
          {
            "number": 11,
            "ticks": 1972,
            "time": 2.702821145833333,
            "value": 1
          }
        ],
        "91": [
          {
            "number": 91,
            "ticks": 1976,
            "time": 2.708303541666666,
            "value": 0.47244094488188976
          }
        ],
        "93": [
          {
            "number": 93,
            "ticks": 1976,
            "time": 2.708303541666666,
            "value": 0.4409448818897638
          }
        ]
      },
      "pitchBends": [
        {
          "ticks": 90628,
          "time": 124.21464239583331,
          "value": 0
        },
        {
          "ticks": 91000,
          "time": 124.72450520833331,
          "value": -0.015625
        },
        {
          "ticks": 91008,
          "time": 124.73546999999999,
          "value": 0
        },
        {
          "ticks": 91212,
          "time": 125.01507218749998,
          "value": 0.00390625
        },
        {
          "ticks": 91224,
          "time": 125.03151937499999,
          "value": 0
        },
        {
          "ticks": 91772,
          "time": 125.78260760416666,
          "value": -0.0234375
        },
        {
          "ticks": 91968,
          "time": 126.05124499999998,
          "value": 0
        },
        {
          "ticks": 94072,
          "time": 128.9349852083333,
          "value": -0.015625
        },
        {
          "ticks": 94080,
          "time": 128.94594999999998,
          "value": 0
        },
        {
          "ticks": 94284,
          "time": 129.2255521875,
          "value": 0.00390625
        },
        {
          "ticks": 94296,
          "time": 129.24199937499998,
          "value": 0
        },
        {
          "ticks": 94844,
          "time": 129.99308760416665,
          "value": -0.0234375
        },
        {
          "ticks": 95040,
          "time": 130.26172499999998,
          "value": 0
        },
        {
          "ticks": 97144,
          "time": 133.14546520833332,
          "value": -0.015625
        },
        {
          "ticks": 97152,
          "time": 133.15642999999997,
          "value": 0
        },
        {
          "ticks": 97356,
          "time": 133.4360321875,
          "value": 0.00390625
        },
        {
          "ticks": 97368,
          "time": 133.452479375,
          "value": 0
        },
        {
          "ticks": 97916,
          "time": 134.20356760416666,
          "value": -0.0234375
        },
        {
          "ticks": 98112,
          "time": 134.47220499999997,
          "value": 0
        },
        {
          "ticks": 100216,
          "time": 137.35594520833334,
          "value": -0.015625
        },
        {
          "ticks": 100224,
          "time": 137.36691,
          "value": 0
        },
        {
          "ticks": 100428,
          "time": 137.64651218749998,
          "value": 0.00390625
        },
        {
          "ticks": 100440,
          "time": 137.66295937499999,
          "value": 0
        },
        {
          "ticks": 100988,
          "time": 138.41404760416665,
          "value": -0.0234375
        },
        {
          "ticks": 101184,
          "time": 138.682685,
          "value": 0
        }
      ],
      "instrument": {
        "family": "guitar",
        "number": 27,
        "name": "electric guitar (clean)"
      },
      "name": "CLEAN GTR",
      "notes": [
        {
          "duration": 0.3837677083333517,
          "durationTicks": 280,
          "midi": 61,
          "name": "C#4",
          "ticks": 90628,
          "time": 124.21464239583331,
          "velocity": 0.5354330708661418
        },
        {
          "duration": 0.3892501041666776,
          "durationTicks": 284,
          "midi": 65,
          "name": "F4",
          "ticks": 90628,
          "time": 124.21464239583331,
          "velocity": 0.5748031496062992
        },
        {
          "duration": 0.3892501041666776,
          "durationTicks": 284,
          "midi": 70,
          "name": "A#4",
          "ticks": 90628,
          "time": 124.21464239583331,
          "velocity": 0.5905511811023622
        },
        {
          "duration": 0.04385916666667811,
          "durationTicks": 32,
          "midi": 58,
          "name": "A#3",
          "ticks": 90912,
          "time": 124.60389249999999,
          "velocity": 0.4409448818897638
        },
        {
          "duration": 0.04934156250000399,
          "durationTicks": 36,
          "midi": 66,
          "name": "F#4",
          "ticks": 90916,
          "time": 124.60937489583331,
          "velocity": 0.5826771653543307
        },
        {
          "duration": 0.038376770833352225,
          "durationTicks": 28,
          "midi": 70,
          "name": "A#4",
          "ticks": 90916,
          "time": 124.60937489583331,
          "velocity": 0.5984251968503937
        },
        {
          "duration": 0.08771833333332779,
          "durationTicks": 64,
          "midi": 58,
          "name": "A#3",
          "ticks": 91208,
          "time": 125.00958979166666,
          "velocity": 0.47244094488188976
        },
        {
          "duration": 0.07127114583333594,
          "durationTicks": 52,
          "midi": 66,
          "name": "F#4",
          "ticks": 91212,
          "time": 125.01507218749998,
          "velocity": 0.47244094488188976
        },
        {
          "duration": 0.07127114583333594,
          "durationTicks": 52,
          "midi": 70,
          "name": "A#4",
          "ticks": 91212,
          "time": 125.01507218749998,
          "velocity": 0.47244094488188976
        },
        {
          "duration": 0.35635572916666547,
          "durationTicks": 260,
          "midi": 61,
          "name": "C#4",
          "ticks": 91404,
          "time": 125.2782271875,
          "velocity": 0.5905511811023622
        },
        {
          "duration": 0.35635572916666547,
          "durationTicks": 260,
          "midi": 65,
          "name": "F4",
          "ticks": 91404,
          "time": 125.2782271875,
          "velocity": 0.6141732283464567
        },
        {
          "duration": 0.3344261458333335,
          "durationTicks": 244,
          "midi": 70,
          "name": "A#4",
          "ticks": 91408,
          "time": 125.28370958333332,
          "velocity": 0.5984251968503937
        },
        {
          "duration": 0.04934156249998978,
          "durationTicks": 36,
          "midi": 70,
          "name": "A#4",
          "ticks": 91676,
          "time": 125.65103010416667,
          "velocity": 0.5905511811023622
        },
        {
          "duration": 0.0383767708333238,
          "durationTicks": 28,
          "midi": 58,
          "name": "A#3",
          "ticks": 91680,
          "time": 125.65651249999999,
          "velocity": 0.6141732283464567
        },
        {
          "duration": 0.038376770833338014,
          "durationTicks": 28,
          "midi": 66,
          "name": "F#4",
          "ticks": 91684,
          "time": 125.66199489583332,
          "velocity": 0.6141732283464567
        },
        {
          "duration": 0.0822359374999877,
          "durationTicks": 60,
          "midi": 58,
          "name": "A#3",
          "ticks": 91972,
          "time": 126.05672739583332,
          "velocity": 0.48031496062992124
        },
        {
          "duration": 0.087718333333342,
          "durationTicks": 64,
          "midi": 66,
          "name": "F#4",
          "ticks": 91972,
          "time": 126.05672739583332,
          "velocity": 0.5984251968503937
        },
        {
          "duration": 0.07127114583332173,
          "durationTicks": 52,
          "midi": 70,
          "name": "A#4",
          "ticks": 91976,
          "time": 126.06220979166666,
          "velocity": 0.48031496062992124
        },
        {
          "duration": 0.3837677083333517,
          "durationTicks": 280,
          "midi": 61,
          "name": "C#4",
          "ticks": 93700,
          "time": 128.4251223958333,
          "velocity": 0.5354330708661418
        },
        {
          "duration": 0.3892501041666776,
          "durationTicks": 284,
          "midi": 65,
          "name": "F4",
          "ticks": 93700,
          "time": 128.4251223958333,
          "velocity": 0.5748031496062992
        },
        {
          "duration": 0.3892501041666776,
          "durationTicks": 284,
          "midi": 70,
          "name": "A#4",
          "ticks": 93700,
          "time": 128.4251223958333,
          "velocity": 0.5905511811023622
        },
        {
          "duration": 0.043859166666663896,
          "durationTicks": 32,
          "midi": 58,
          "name": "A#3",
          "ticks": 93984,
          "time": 128.8143725,
          "velocity": 0.4409448818897638
        },
        {
          "duration": 0.04934156249998978,
          "durationTicks": 36,
          "midi": 66,
          "name": "F#4",
          "ticks": 93988,
          "time": 128.81985489583332,
          "velocity": 0.5826771653543307
        },
        {
          "duration": 0.038376770833338014,
          "durationTicks": 28,
          "midi": 70,
          "name": "A#4",
          "ticks": 93988,
          "time": 128.81985489583332,
          "velocity": 0.5984251968503937
        },
        {
          "duration": 0.08771833333332779,
          "durationTicks": 64,
          "midi": 58,
          "name": "A#3",
          "ticks": 94280,
          "time": 129.22006979166665,
          "velocity": 0.4566929133858268
        },
        {
          "duration": 0.07127114583332173,
          "durationTicks": 52,
          "midi": 66,
          "name": "F#4",
          "ticks": 94284,
          "time": 129.2255521875,
          "velocity": 0.4566929133858268
        },
        {
          "duration": 0.07127114583332173,
          "durationTicks": 52,
          "midi": 70,
          "name": "A#4",
          "ticks": 94284,
          "time": 129.2255521875,
          "velocity": 0.4566929133858268
        },
        {
          "duration": 0.35635572916666547,
          "durationTicks": 260,
          "midi": 61,
          "name": "C#4",
          "ticks": 94476,
          "time": 129.48870718749998,
          "velocity": 0.5905511811023622
        },
        {
          "duration": 0.35635572916666547,
          "durationTicks": 260,
          "midi": 65,
          "name": "F4",
          "ticks": 94476,
          "time": 129.48870718749998,
          "velocity": 0.6141732283464567
        },
        {
          "duration": 0.33442614583336194,
          "durationTicks": 244,
          "midi": 70,
          "name": "A#4",
          "ticks": 94480,
          "time": 129.4941895833333,
          "velocity": 0.5984251968503937
        },
        {
          "duration": 0.04934156249998978,
          "durationTicks": 36,
          "midi": 70,
          "name": "A#4",
          "ticks": 94748,
          "time": 129.86151010416665,
          "velocity": 0.5905511811023622
        },
        {
          "duration": 0.038376770833338014,
          "durationTicks": 28,
          "midi": 58,
          "name": "A#3",
          "ticks": 94752,
          "time": 129.86699249999998,
          "velocity": 0.6141732283464567
        },
        {
          "duration": 0.038376770833338014,
          "durationTicks": 28,
          "midi": 66,
          "name": "F#4",
          "ticks": 94756,
          "time": 129.8724748958333,
          "velocity": 0.6141732283464567
        },
        {
          "duration": 0.08223593750000191,
          "durationTicks": 60,
          "midi": 58,
          "name": "A#3",
          "ticks": 95044,
          "time": 130.2672073958333,
          "velocity": 0.48031496062992124
        },
        {
          "duration": 0.08771833333335621,
          "durationTicks": 64,
          "midi": 66,
          "name": "F#4",
          "ticks": 95044,
          "time": 130.2672073958333,
          "velocity": 0.5984251968503937
        },
        {
          "duration": 0.07127114583332173,
          "durationTicks": 52,
          "midi": 70,
          "name": "A#4",
          "ticks": 95048,
          "time": 130.27268979166666,
          "velocity": 0.48031496062992124
        },
        {
          "duration": 0.3837677083333517,
          "durationTicks": 280,
          "midi": 61,
          "name": "C#4",
          "ticks": 96772,
          "time": 132.6356023958333,
          "velocity": 0.5354330708661418
        },
        {
          "duration": 0.3892501041666776,
          "durationTicks": 284,
          "midi": 65,
          "name": "F4",
          "ticks": 96772,
          "time": 132.6356023958333,
          "velocity": 0.5748031496062992
        },
        {
          "duration": 0.3892501041666776,
          "durationTicks": 284,
          "midi": 70,
          "name": "A#4",
          "ticks": 96772,
          "time": 132.6356023958333,
          "velocity": 0.5905511811023622
        },
        {
          "duration": 0.043859166666663896,
          "durationTicks": 32,
          "midi": 58,
          "name": "A#3",
          "ticks": 97056,
          "time": 133.02485249999998,
          "velocity": 0.4409448818897638
        },
        {
          "duration": 0.0493415625000182,
          "durationTicks": 36,
          "midi": 66,
          "name": "F#4",
          "ticks": 97060,
          "time": 133.0303348958333,
          "velocity": 0.5826771653543307
        },
        {
          "duration": 0.038376770833338014,
          "durationTicks": 28,
          "midi": 70,
          "name": "A#4",
          "ticks": 97060,
          "time": 133.0303348958333,
          "velocity": 0.5984251968503937
        },
        {
          "duration": 0.08771833333332779,
          "durationTicks": 64,
          "midi": 58,
          "name": "A#3",
          "ticks": 97352,
          "time": 133.43054979166666,
          "velocity": 0.4645669291338583
        },
        {
          "duration": 0.07127114583332173,
          "durationTicks": 52,
          "midi": 66,
          "name": "F#4",
          "ticks": 97356,
          "time": 133.4360321875,
          "velocity": 0.4645669291338583
        },
        {
          "duration": 0.07127114583332173,
          "durationTicks": 52,
          "midi": 70,
          "name": "A#4",
          "ticks": 97356,
          "time": 133.4360321875,
          "velocity": 0.4645669291338583
        },
        {
          "duration": 0.3563557291666939,
          "durationTicks": 260,
          "midi": 61,
          "name": "C#4",
          "ticks": 97548,
          "time": 133.69918718749997,
          "velocity": 0.5905511811023622
        },
        {
          "duration": 0.3563557291666939,
          "durationTicks": 260,
          "midi": 65,
          "name": "F4",
          "ticks": 97548,
          "time": 133.69918718749997,
          "velocity": 0.6141732283464567
        },
        {
          "duration": 0.3344261458333335,
          "durationTicks": 244,
          "midi": 70,
          "name": "A#4",
          "ticks": 97552,
          "time": 133.70466958333333,
          "velocity": 0.5984251968503937
        },
        {
          "duration": 0.0493415625000182,
          "durationTicks": 36,
          "midi": 70,
          "name": "A#4",
          "ticks": 97820,
          "time": 134.07199010416664,
          "velocity": 0.5905511811023622
        },
        {
          "duration": 0.03837677083330959,
          "durationTicks": 28,
          "midi": 58,
          "name": "A#3",
          "ticks": 97824,
          "time": 134.0774725,
          "velocity": 0.6141732283464567
        },
        {
          "duration": 0.038376770833338014,
          "durationTicks": 28,
          "midi": 66,
          "name": "F#4",
          "ticks": 97828,
          "time": 134.08295489583332,
          "velocity": 0.6141732283464567
        },
        {
          "duration": 0.08223593749997349,
          "durationTicks": 60,
          "midi": 58,
          "name": "A#3",
          "ticks": 98116,
          "time": 134.47768739583333,
          "velocity": 0.48031496062992124
        },
        {
          "duration": 0.08771833333332779,
          "durationTicks": 64,
          "midi": 66,
          "name": "F#4",
          "ticks": 98116,
          "time": 134.47768739583333,
          "velocity": 0.5984251968503937
        },
        {
          "duration": 0.07127114583332173,
          "durationTicks": 52,
          "midi": 70,
          "name": "A#4",
          "ticks": 98120,
          "time": 134.48316979166665,
          "velocity": 0.48031496062992124
        },
        {
          "duration": 0.3837677083333233,
          "durationTicks": 280,
          "midi": 61,
          "name": "C#4",
          "ticks": 99844,
          "time": 136.84608239583332,
          "velocity": 0.5354330708661418
        },
        {
          "duration": 0.3892501041666776,
          "durationTicks": 284,
          "midi": 65,
          "name": "F4",
          "ticks": 99844,
          "time": 136.84608239583332,
          "velocity": 0.5748031496062992
        },
        {
          "duration": 0.3892501041666776,
          "durationTicks": 284,
          "midi": 70,
          "name": "A#4",
          "ticks": 99844,
          "time": 136.84608239583332,
          "velocity": 0.5905511811023622
        },
        {
          "duration": 0.043859166666635474,
          "durationTicks": 32,
          "midi": 58,
          "name": "A#3",
          "ticks": 100128,
          "time": 137.2353325,
          "velocity": 0.4409448818897638
        },
        {
          "duration": 0.0493415625000182,
          "durationTicks": 36,
          "midi": 66,
          "name": "F#4",
          "ticks": 100132,
          "time": 137.24081489583332,
          "velocity": 0.5826771653543307
        },
        {
          "duration": 0.03837677083330959,
          "durationTicks": 28,
          "midi": 70,
          "name": "A#4",
          "ticks": 100132,
          "time": 137.24081489583332,
          "velocity": 0.5984251968503937
        },
        {
          "duration": 0.08771833333332779,
          "durationTicks": 64,
          "midi": 58,
          "name": "A#3",
          "ticks": 100424,
          "time": 137.64102979166665,
          "velocity": 0.4566929133858268
        },
        {
          "duration": 0.07127114583335015,
          "durationTicks": 52,
          "midi": 66,
          "name": "F#4",
          "ticks": 100428,
          "time": 137.64651218749998,
          "velocity": 0.4566929133858268
        },
        {
          "duration": 0.07127114583335015,
          "durationTicks": 52,
          "midi": 70,
          "name": "A#4",
          "ticks": 100428,
          "time": 137.64651218749998,
          "velocity": 0.4566929133858268
        },
        {
          "duration": 0.35635572916663705,
          "durationTicks": 260,
          "midi": 61,
          "name": "C#4",
          "ticks": 100620,
          "time": 137.9096671875,
          "velocity": 0.5905511811023622
        },
        {
          "duration": 0.35635572916663705,
          "durationTicks": 260,
          "midi": 65,
          "name": "F4",
          "ticks": 100620,
          "time": 137.9096671875,
          "velocity": 0.6141732283464567
        },
        {
          "duration": 0.3344261458333335,
          "durationTicks": 244,
          "midi": 70,
          "name": "A#4",
          "ticks": 100624,
          "time": 137.91514958333332,
          "velocity": 0.5984251968503937
        },
        {
          "duration": 0.0493415625000182,
          "durationTicks": 36,
          "midi": 70,
          "name": "A#4",
          "ticks": 100892,
          "time": 138.28247010416663,
          "velocity": 0.5905511811023622
        },
        {
          "duration": 0.038376770833338014,
          "durationTicks": 28,
          "midi": 58,
          "name": "A#3",
          "ticks": 100896,
          "time": 138.2879525,
          "velocity": 0.6141732283464567
        },
        {
          "duration": 0.038376770833338014,
          "durationTicks": 28,
          "midi": 66,
          "name": "F#4",
          "ticks": 100900,
          "time": 138.29343489583331,
          "velocity": 0.6141732283464567
        },
        {
          "duration": 0.08223593750000191,
          "durationTicks": 60,
          "midi": 58,
          "name": "A#3",
          "ticks": 101188,
          "time": 138.68816739583332,
          "velocity": 0.48031496062992124
        },
        {
          "duration": 0.08771833333332779,
          "durationTicks": 64,
          "midi": 66,
          "name": "F#4",
          "ticks": 101188,
          "time": 138.68816739583332,
          "velocity": 0.5984251968503937
        },
        {
          "duration": 0.07127114583335015,
          "durationTicks": 52,
          "midi": 70,
          "name": "A#4",
          "ticks": 101192,
          "time": 138.69364979166664,
          "velocity": 0.48031496062992124
        }
      ],
      "endOfTrackTicks": 158208
    },
    {
      "channel": 3,
      "controlChanges": {
        "1": [
          {
            "number": 1,
            "ticks": 17288,
            "time": 23.694914791666665,
            "value": 0
          }
        ],
        "7": [
          {
            "number": 7,
            "ticks": 1992,
            "time": 2.730233125,
            "value": 0.7874015748031497
          }
        ],
        "10": [
          {
            "number": 10,
            "ticks": 1992,
            "time": 2.730233125,
            "value": 0.3937007874015748
          }
        ],
        "11": [
          {
            "number": 11,
            "ticks": 1992,
            "time": 2.730233125,
            "value": 1
          }
        ],
        "91": [
          {
            "number": 91,
            "ticks": 1996,
            "time": 2.7357155208333332,
            "value": 0.3543307086614173
          }
        ],
        "93": [
          {
            "number": 93,
            "ticks": 1996,
            "time": 2.7357155208333332,
            "value": 0
          }
        ]
      },
      "pitchBends": [
        {
          "ticks": 17288,
          "time": 23.694914791666665,
          "value": 0
        }
      ],
      "instrument": {
        "family": "pipe",
        "number": 73,
        "name": "flute"
      },
      "name": "MELODY",
      "notes": [
        {
          "duration": 0.2357430208333362,
          "durationTicks": 172,
          "midi": 58,
          "name": "A#3",
          "ticks": 17284,
          "time": 23.68943239583333,
          "velocity": 0.7244094488188977
        },
        {
          "duration": 0.2521902083333316,
          "durationTicks": 184,
          "midi": 60,
          "name": "C4",
          "ticks": 17460,
          "time": 23.930657812499998,
          "velocity": 0.6141732283464567
        },
        {
          "duration": 0.19188385416666165,
          "durationTicks": 140,
          "midi": 61,
          "name": "C#4",
          "ticks": 17648,
          "time": 24.188330416666666,
          "velocity": 0.6850393700787402
        },
        {
          "duration": 0.26315500000000114,
          "durationTicks": 192,
          "midi": 61,
          "name": "C#4",
          "ticks": 17848,
          "time": 24.46245020833333,
          "velocity": 0.6850393700787402
        },
        {
          "duration": 0.2741197916666671,
          "durationTicks": 200,
          "midi": 63,
          "name": "D#4",
          "ticks": 18044,
          "time": 24.731087604166664,
          "velocity": 0.6141732283464567
        },
        {
          "duration": 0.35635572916666547,
          "durationTicks": 260,
          "midi": 60,
          "name": "C4",
          "ticks": 18248,
          "time": 25.010689791666664,
          "velocity": 0.6850393700787402
        },
        {
          "duration": 0.1699542708333297,
          "durationTicks": 124,
          "midi": 58,
          "name": "A#3",
          "ticks": 18512,
          "time": 25.372527916666666,
          "velocity": 0.6141732283464567
        },
        {
          "duration": 1.3157750000000021,
          "durationTicks": 960,
          "midi": 56,
          "name": "G#3",
          "ticks": 18640,
          "time": 25.54796458333333,
          "velocity": 0.5118110236220472
        },
        {
          "duration": 0.1973662499999982,
          "durationTicks": 144,
          "midi": 58,
          "name": "A#3",
          "ticks": 20144,
          "time": 27.609345416666667,
          "velocity": 0.5826771653543307
        },
        {
          "duration": 0.25767260416666815,
          "durationTicks": 188,
          "midi": 58,
          "name": "A#3",
          "ticks": 20340,
          "time": 27.877982812499997,
          "velocity": 0.6850393700787402
        },
        {
          "duration": 0.2686373958333306,
          "durationTicks": 196,
          "midi": 60,
          "name": "C4",
          "ticks": 20532,
          "time": 28.1411378125,
          "velocity": 0.6141732283464567
        },
        {
          "duration": 0.2576726041666646,
          "durationTicks": 188,
          "midi": 61,
          "name": "C#4",
          "ticks": 20732,
          "time": 28.415257604166666,
          "velocity": 0.7244094488188977
        },
        {
          "duration": 0.37280291666666443,
          "durationTicks": 272,
          "midi": 58,
          "name": "A#3",
          "ticks": 20924,
          "time": 28.678412604166663,
          "velocity": 0.6850393700787402
        },
        {
          "duration": 0.2521902083333316,
          "durationTicks": 184,
          "midi": 56,
          "name": "G#3",
          "ticks": 21308,
          "time": 29.204722604166665,
          "velocity": 0.6850393700787402
        },
        {
          "duration": 0.41666208333333543,
          "durationTicks": 304,
          "midi": 68,
          "name": "G#4",
          "ticks": 21496,
          "time": 29.46239520833333,
          "velocity": 0.7637795275590551
        },
        {
          "duration": 0.25767260416666815,
          "durationTicks": 188,
          "midi": 68,
          "name": "G#4",
          "ticks": 21888,
          "time": 29.99967,
          "velocity": 0.7637795275590551
        },
        {
          "duration": 1.3048102083333326,
          "durationTicks": 952,
          "midi": 63,
          "name": "D#4",
          "ticks": 22080,
          "time": 30.262824999999996,
          "velocity": 0.6141732283464567
        },
        {
          "duration": 0.18091906249999568,
          "durationTicks": 132,
          "midi": 58,
          "name": "A#3",
          "ticks": 23228,
          "time": 31.836272604166666,
          "velocity": 0.6850393700787402
        },
        {
          "duration": 0.2576726041666646,
          "durationTicks": 188,
          "midi": 58,
          "name": "A#3",
          "ticks": 23428,
          "time": 32.11039239583333,
          "velocity": 0.6141732283464567
        },
        {
          "duration": 0.2631550000000047,
          "durationTicks": 192,
          "midi": 60,
          "name": "C4",
          "ticks": 23620,
          "time": 32.37354739583333,
          "velocity": 0.6850393700787402
        },
        {
          "duration": 0.27411979166666356,
          "durationTicks": 200,
          "midi": 61,
          "name": "C#4",
          "ticks": 23816,
          "time": 32.642184791666665,
          "velocity": 0.6850393700787402
        },
        {
          "duration": 0.2521902083333316,
          "durationTicks": 184,
          "midi": 58,
          "name": "A#3",
          "ticks": 24020,
          "time": 32.92178697916666,
          "velocity": 0.6850393700787402
        },
        {
          "duration": 0.2576726041666717,
          "durationTicks": 188,
          "midi": 61,
          "name": "C#4",
          "ticks": 24208,
          "time": 33.179459583333326,
          "velocity": 0.6850393700787402
        },
        {
          "duration": 0.2686373958333306,
          "durationTicks": 196,
          "midi": 63,
          "name": "D#4",
          "ticks": 24400,
          "time": 33.44261458333333,
          "velocity": 0.6850393700787402
        },
        {
          "duration": 0.2521902083333245,
          "durationTicks": 184,
          "midi": 60,
          "name": "C4",
          "ticks": 24784,
          "time": 33.96892458333333,
          "velocity": 0.6850393700787402
        },
        {
          "duration": 0.2686373958333377,
          "durationTicks": 196,
          "midi": 58,
          "name": "A#3",
          "ticks": 24972,
          "time": 34.2265971875,
          "velocity": 0.6141732283464567
        },
        {
          "duration": 0.11513031249999983,
          "durationTicks": 84,
          "midi": 60,
          "name": "C4",
          "ticks": 25172,
          "time": 34.50071697916666,
          "velocity": 0.6141732283464567
        },
        {
          "duration": 0.1315774999999988,
          "durationTicks": 96,
          "midi": 58,
          "name": "A#3",
          "ticks": 25260,
          "time": 34.621329687499994,
          "velocity": 0.5826771653543307
        },
        {
          "duration": 0.8607361458333287,
          "durationTicks": 628,
          "midi": 56,
          "name": "G#3",
          "ticks": 25360,
          "time": 34.75838958333333,
          "velocity": 0.6141732283464567
        },
        {
          "duration": 0.18091906249999568,
          "durationTicks": 132,
          "midi": 58,
          "name": "A#3",
          "ticks": 26300,
          "time": 36.04675260416666,
          "velocity": 0.6850393700787402
        },
        {
          "duration": 0.2521902083333387,
          "durationTicks": 184,
          "midi": 58,
          "name": "A#3",
          "ticks": 26496,
          "time": 36.315389999999994,
          "velocity": 0.6141732283464567
        },
        {
          "duration": 0.2631550000000047,
          "durationTicks": 192,
          "midi": 60,
          "name": "C4",
          "ticks": 26684,
          "time": 36.57306260416666,
          "velocity": 0.6377952755905512
        },
        {
          "duration": 0.16447187499999671,
          "durationTicks": 120,
          "midi": 61,
          "name": "C#4",
          "ticks": 26880,
          "time": 36.841699999999996,
          "velocity": 0.6141732283464567
        },
        {
          "duration": 0.2686373958333377,
          "durationTicks": 196,
          "midi": 58,
          "name": "A#3",
          "ticks": 27072,
          "time": 37.10485499999999,
          "velocity": 0.6850393700787402
        },
        {
          "duration": 0.29056697916667673,
          "durationTicks": 212,
          "midi": 56,
          "name": "G#3",
          "ticks": 27272,
          "time": 37.37897479166666,
          "velocity": 0.7244094488188977
        },
        {
          "duration": 0.20284864583333473,
          "durationTicks": 148,
          "midi": 63,
          "name": "D#4",
          "ticks": 27636,
          "time": 37.877872812499994,
          "velocity": 0.7244094488188977
        },
        {
          "duration": 0.14802468749999775,
          "durationTicks": 108,
          "midi": 63,
          "name": "D#4",
          "ticks": 27840,
          "time": 38.157475,
          "velocity": 0.6850393700787402
        },
        {
          "duration": 0.2686373958333306,
          "durationTicks": 196,
          "midi": 63,
          "name": "D#4",
          "ticks": 28024,
          "time": 38.40966520833333,
          "velocity": 0.6850393700787402
        },
        {
          "duration": 0.2686373958333377,
          "durationTicks": 196,
          "midi": 65,
          "name": "F4",
          "ticks": 28224,
          "time": 38.68378499999999,
          "velocity": 0.7244094488188977
        },
        {
          "duration": 0.5427571875000012,
          "durationTicks": 396,
          "midi": 63,
          "name": "D#4",
          "ticks": 28424,
          "time": 38.95790479166666,
          "velocity": 0.6850393700787402
        },
        {
          "duration": 1.293845416666663,
          "durationTicks": 944,
          "midi": 61,
          "name": "C#4",
          "ticks": 29196,
          "time": 40.016007187499994,
          "velocity": 0.6850393700787402
        },
        {
          "duration": 0.2576726041666646,
          "durationTicks": 188,
          "midi": 63,
          "name": "D#4",
          "ticks": 30144,
          "time": 41.315335,
          "velocity": 0.6141732283464567
        },
        {
          "duration": 0.2521902083333387,
          "durationTicks": 184,
          "midi": 65,
          "name": "F4",
          "ticks": 30336,
          "time": 41.578489999999995,
          "velocity": 0.7244094488188977
        },
        {
          "duration": 0.24122541666667274,
          "durationTicks": 176,
          "midi": 61,
          "name": "C#4",
          "ticks": 30524,
          "time": 41.83616260416666,
          "velocity": 0.6141732283464567
        },
        {
          "duration": 0.2192958333333408,
          "durationTicks": 160,
          "midi": 63,
          "name": "D#4",
          "ticks": 30704,
          "time": 42.08287041666666,
          "velocity": 0.6850393700787402
        },
        {
          "duration": 0.15898947916666373,
          "durationTicks": 116,
          "midi": 63,
          "name": "D#4",
          "ticks": 30912,
          "time": 42.367954999999995,
          "velocity": 0.7244094488188977
        },
        {
          "duration": 0.27411979166666356,
          "durationTicks": 200,
          "midi": 63,
          "name": "D#4",
          "ticks": 31084,
          "time": 42.603698020833335,
          "velocity": 0.7244094488188977
        },
        {
          "duration": 0.24670781249999862,
          "durationTicks": 180,
          "midi": 65,
          "name": "F4",
          "ticks": 31288,
          "time": 42.88330020833333,
          "velocity": 0.7244094488188977
        },
        {
          "duration": 0.24122541666666564,
          "durationTicks": 176,
          "midi": 63,
          "name": "D#4",
          "ticks": 31472,
          "time": 43.13549041666666,
          "velocity": 0.6850393700787402
        },
        {
          "duration": 0.24122541666667274,
          "durationTicks": 176,
          "midi": 56,
          "name": "G#3",
          "ticks": 31652,
          "time": 43.38219822916666,
          "velocity": 0.6141732283464567
        },
        {
          "duration": 0.7949473958333328,
          "durationTicks": 580,
          "midi": 56,
          "name": "G#3",
          "ticks": 31876,
          "time": 43.68921239583333,
          "velocity": 0.7637795275590551
        },
        {
          "duration": 0.2576726041666717,
          "durationTicks": 188,
          "midi": 58,
          "name": "A#3",
          "ticks": 33020,
          "time": 45.25717760416666,
          "velocity": 0.7244094488188977
        },
        {
          "duration": 0.2576726041666717,
          "durationTicks": 188,
          "midi": 60,
          "name": "C4",
          "ticks": 33212,
          "time": 45.52033260416666,
          "velocity": 0.6850393700787402
        },
        {
          "duration": 0.2521902083333387,
          "durationTicks": 184,
          "midi": 61,
          "name": "C#4",
          "ticks": 33404,
          "time": 45.78348760416666,
          "velocity": 0.6850393700787402
        },
        {
          "duration": 0.2521902083333316,
          "durationTicks": 184,
          "midi": 58,
          "name": "A#3",
          "ticks": 33592,
          "time": 46.04116020833333,
          "velocity": 0.7637795275590551
        },
        {
          "duration": 0.27411979166667066,
          "durationTicks": 200,
          "midi": 63,
          "name": "D#4",
          "ticks": 33980,
          "time": 46.57295260416666,
          "velocity": 0.7244094488188977
        },
        {
          "duration": 0.24122541666666564,
          "durationTicks": 176,
          "midi": 65,
          "name": "F4",
          "ticks": 34184,
          "time": 46.85255479166666,
          "velocity": 0.7637795275590551
        },
        {
          "duration": 0.5153452083333363,
          "durationTicks": 376,
          "midi": 63,
          "name": "D#4",
          "ticks": 34364,
          "time": 47.09926260416666,
          "velocity": 0.7244094488188977
        },
        {
          "duration": 0.1260951041666658,
          "durationTicks": 92,
          "midi": 56,
          "name": "G#3",
          "ticks": 34944,
          "time": 47.894209999999994,
          "velocity": 0.6850393700787402
        },
        {
          "duration": 0.10964791666666684,
          "durationTicks": 80,
          "midi": 58,
          "name": "A#3",
          "ticks": 35040,
          "time": 48.02578749999999,
          "velocity": 0.6850393700787402
        },
        {
          "duration": 0.10416552083334096,
          "durationTicks": 76,
          "midi": 61,
          "name": "C#4",
          "ticks": 35124,
          "time": 48.14091781249999,
          "velocity": 0.6141732283464567
        },
        {
          "duration": 0.1260951041666729,
          "durationTicks": 92,
          "midi": 58,
          "name": "A#3",
          "ticks": 35204,
          "time": 48.25056572916666,
          "velocity": 0.6141732283464567
        },
        {
          "duration": 0.28508458333333664,
          "durationTicks": 208,
          "midi": 65,
          "name": "F4",
          "ticks": 35312,
          "time": 48.39859041666666,
          "velocity": 0.8110236220472441
        },
        {
          "duration": 0.36183812499999846,
          "durationTicks": 264,
          "midi": 65,
          "name": "F4",
          "ticks": 35636,
          "time": 48.84266447916666,
          "velocity": 0.8110236220472441
        },
        {
          "duration": 0.5427571875000012,
          "durationTicks": 396,
          "midi": 63,
          "name": "D#4",
          "ticks": 35904,
          "time": 49.209984999999996,
          "velocity": 0.7244094488188977
        },
        {
          "duration": 0.09320072916666078,
          "durationTicks": 68,
          "midi": 56,
          "name": "G#3",
          "ticks": 36480,
          "time": 49.999449999999996,
          "velocity": 0.6850393700787402
        },
        {
          "duration": 0.12061270833333282,
          "durationTicks": 88,
          "midi": 58,
          "name": "A#3",
          "ticks": 36552,
          "time": 50.098133125,
          "velocity": 0.6141732283464567
        },
        {
          "duration": 0.1260951041666729,
          "durationTicks": 92,
          "midi": 60,
          "name": "C4",
          "ticks": 36644,
          "time": 50.224228229166656,
          "velocity": 0.6377952755905512
        },
        {
          "duration": 0.1315774999999988,
          "durationTicks": 96,
          "midi": 58,
          "name": "A#3",
          "ticks": 36740,
          "time": 50.35580572916666,
          "velocity": 0.6141732283464567
        },
        {
          "duration": 0.3453909374999995,
          "durationTicks": 252,
          "midi": 63,
          "name": "D#4",
          "ticks": 36856,
          "time": 50.51479520833333,
          "velocity": 0.7244094488188977
        },
        {
          "duration": 0.36183812499999846,
          "durationTicks": 264,
          "midi": 63,
          "name": "D#4",
          "ticks": 37184,
          "time": 50.96435166666666,
          "velocity": 0.6850393700787402
        },
        {
          "duration": 0.3070141666666615,
          "durationTicks": 224,
          "midi": 61,
          "name": "C#4",
          "ticks": 37452,
          "time": 51.3316721875,
          "velocity": 0.6850393700787402
        },
        {
          "duration": 0.1260951041666658,
          "durationTicks": 92,
          "midi": 60,
          "name": "C4",
          "ticks": 37680,
          "time": 51.64416874999999,
          "velocity": 0.5590551181102362
        },
        {
          "duration": 0.2905669791666625,
          "durationTicks": 212,
          "midi": 58,
          "name": "A#3",
          "ticks": 37776,
          "time": 51.77574625,
          "velocity": 0.6141732283464567
        },
        {
          "duration": 0.12061270833332571,
          "durationTicks": 88,
          "midi": 56,
          "name": "G#3",
          "ticks": 38032,
          "time": 52.12661958333333,
          "velocity": 0.6850393700787402
        },
        {
          "duration": 0.14254229166666477,
          "durationTicks": 104,
          "midi": 58,
          "name": "A#3",
          "ticks": 38124,
          "time": 52.252714687499996,
          "velocity": 0.5826771653543307
        },
        {
          "duration": 0.10416552083332675,
          "durationTicks": 76,
          "midi": 60,
          "name": "C4",
          "ticks": 38236,
          "time": 52.40622177083333,
          "velocity": 0.5826771653543307
        },
        {
          "duration": 0.11513031249999983,
          "durationTicks": 84,
          "midi": 58,
          "name": "A#3",
          "ticks": 38316,
          "time": 52.51586968749999,
          "velocity": 0.6141732283464567
        },
        {
          "duration": 0.4769684375000054,
          "durationTicks": 348,
          "midi": 61,
          "name": "C#4",
          "ticks": 38412,
          "time": 52.64744718749999,
          "velocity": 0.6850393700787402
        },
        {
          "duration": 0.27411979166666356,
          "durationTicks": 200,
          "midi": 63,
          "name": "D#4",
          "ticks": 38764,
          "time": 53.12989802083333,
          "velocity": 0.6141732283464567
        },
        {
          "duration": 0.24670781250000573,
          "durationTicks": 180,
          "midi": 60,
          "name": "C4",
          "ticks": 38968,
          "time": 53.40950020833333,
          "velocity": 0.6850393700787402
        },
        {
          "duration": 0.2576726041666717,
          "durationTicks": 188,
          "midi": 58,
          "name": "A#3",
          "ticks": 39152,
          "time": 53.66169041666666,
          "velocity": 0.5826771653543307
        },
        {
          "duration": 0.3015317708333356,
          "durationTicks": 220,
          "midi": 56,
          "name": "G#3",
          "ticks": 39344,
          "time": 53.924845416666656,
          "velocity": 0.6141732283464567
        },
        {
          "duration": 0.2631549999999976,
          "durationTicks": 192,
          "midi": 56,
          "name": "G#3",
          "ticks": 39728,
          "time": 54.45115541666666,
          "velocity": 0.6141732283464567
        },
        {
          "duration": 0.40021489583333647,
          "durationTicks": 292,
          "midi": 63,
          "name": "D#4",
          "ticks": 39924,
          "time": 54.719792812499996,
          "velocity": 0.6850393700787402
        },
        {
          "duration": 0.5372747916666611,
          "durationTicks": 392,
          "midi": 61,
          "name": "C#4",
          "ticks": 40312,
          "time": 55.25158520833333,
          "velocity": 0.6850393700787402
        },
        {
          "duration": 0.09320072916666788,
          "durationTicks": 68,
          "midi": 56,
          "name": "G#3",
          "ticks": 41100,
          "time": 56.331617187499994,
          "velocity": 0.6850393700787402
        },
        {
          "duration": 0.10416552083333386,
          "durationTicks": 76,
          "midi": 58,
          "name": "A#3",
          "ticks": 41172,
          "time": 56.430300312499995,
          "velocity": 0.6141732283464567
        },
        {
          "duration": 0.09868312499999377,
          "durationTicks": 72,
          "midi": 61,
          "name": "C#4",
          "ticks": 41252,
          "time": 56.53994822916666,
          "velocity": 0.6141732283464567
        },
        {
          "duration": 0.1315774999999988,
          "durationTicks": 96,
          "midi": 58,
          "name": "A#3",
          "ticks": 41328,
          "time": 56.644113749999995,
          "velocity": 0.6141732283464567
        },
        {
          "duration": 0.31797895833333456,
          "durationTicks": 232,
          "midi": 65,
          "name": "F4",
          "ticks": 41444,
          "time": 56.80310322916666,
          "velocity": 0.8110236220472441
        },
        {
          "duration": 0.35635572916666547,
          "durationTicks": 260,
          "midi": 65,
          "name": "F4",
          "ticks": 41764,
          "time": 57.24169489583333,
          "velocity": 0.8110236220472441
        },
        {
          "duration": 0.5646867708333261,
          "durationTicks": 412,
          "midi": 63,
          "name": "D#4",
          "ticks": 42028,
          "time": 57.60353302083333,
          "velocity": 0.7244094488188977
        },
        {
          "duration": 0.09868312500000087,
          "durationTicks": 72,
          "midi": 56,
          "name": "G#3",
          "ticks": 42604,
          "time": 58.39299802083333,
          "velocity": 0.6850393700787402
        },
        {
          "duration": 0.10964791666667395,
          "durationTicks": 80,
          "midi": 58,
          "name": "A#3",
          "ticks": 42680,
          "time": 58.49716354166666,
          "velocity": 0.6141732283464567
        },
        {
          "duration": 0.1315774999999988,
          "durationTicks": 96,
          "midi": 60,
          "name": "C4",
          "ticks": 42764,
          "time": 58.61229385416666,
          "velocity": 0.5826771653543307
        },
        {
          "duration": 0.14802468750000486,
          "durationTicks": 108,
          "midi": 58,
          "name": "A#3",
          "ticks": 42864,
          "time": 58.74935374999999,
          "velocity": 0.6850393700787402
        },
        {
          "duration": 0.4769684374999983,
          "durationTicks": 348,
          "midi": 68,
          "name": "G#4",
          "ticks": 43000,
          "time": 58.93575520833333,
          "velocity": 0.7244094488188977
        },
        {
          "duration": 0.27411979166666356,
          "durationTicks": 200,
          "midi": 60,
          "name": "C4",
          "ticks": 43372,
          "time": 59.44561802083333,
          "velocity": 0.6377952755905512
        },
        {
          "duration": 0.24670781249999862,
          "durationTicks": 180,
          "midi": 61,
          "name": "C#4",
          "ticks": 43576,
          "time": 59.72522020833333,
          "velocity": 0.6850393700787402
        },
        {
          "duration": 0.12061270833333282,
          "durationTicks": 88,
          "midi": 60,
          "name": "C4",
          "ticks": 43760,
          "time": 59.97741041666666,
          "velocity": 0.3858267716535433
        },
        {
          "duration": 0.2631549999999976,
          "durationTicks": 192,
          "midi": 58,
          "name": "A#3",
          "ticks": 43852,
          "time": 60.10350552083333,
          "velocity": 0.6850393700787402
        },
        {
          "duration": 0.10964791666666684,
          "durationTicks": 80,
          "midi": 56,
          "name": "G#3",
          "ticks": 44128,
          "time": 60.48179083333333,
          "velocity": 0.6850393700787402
        },
        {
          "duration": 0.13705989583333178,
          "durationTicks": 100,
          "midi": 58,
          "name": "A#3",
          "ticks": 44212,
          "time": 60.59692114583333,
          "velocity": 0.6141732283464567
        },
        {
          "duration": 0.1315774999999988,
          "durationTicks": 96,
          "midi": 60,
          "name": "C4",
          "ticks": 44324,
          "time": 60.75042822916666,
          "velocity": 0.5826771653543307
        },
        {
          "duration": 0.16447187500000382,
          "durationTicks": 120,
          "midi": 58,
          "name": "A#3",
          "ticks": 44424,
          "time": 60.88748812499999,
          "velocity": 0.6850393700787402
        },
        {
          "duration": 0.5208276041666622,
          "durationTicks": 380,
          "midi": 61,
          "name": "C#4",
          "ticks": 44556,
          "time": 61.06840718749999,
          "velocity": 0.7244094488188977
        },
        {
          "duration": 0.24122541666666564,
          "durationTicks": 176,
          "midi": 63,
          "name": "D#4",
          "ticks": 44940,
          "time": 61.594717187499995,
          "velocity": 0.6141732283464567
        },
        {
          "duration": 0.44407406250000037,
          "durationTicks": 324,
          "midi": 60,
          "name": "C4",
          "ticks": 45120,
          "time": 61.841424999999994,
          "velocity": 0.6377952755905512
        },
        {
          "duration": 0.13705989583333178,
          "durationTicks": 100,
          "midi": 58,
          "name": "A#3",
          "ticks": 45448,
          "time": 62.29098145833333,
          "velocity": 0.5590551181102362
        },
        {
          "duration": 0.27411979166666356,
          "durationTicks": 200,
          "midi": 56,
          "name": "G#3",
          "ticks": 45552,
          "time": 62.43352374999999,
          "velocity": 0.6141732283464567
        },
        {
          "duration": 0.24122541666667274,
          "durationTicks": 176,
          "midi": 56,
          "name": "G#3",
          "ticks": 45884,
          "time": 62.88856260416666,
          "velocity": 0.7244094488188977
        },
        {
          "duration": 0.2631550000000047,
          "durationTicks": 192,
          "midi": 63,
          "name": "D#4",
          "ticks": 46068,
          "time": 63.14075281249999,
          "velocity": 0.7244094488188977
        },
        {
          "duration": 0.23026062499999966,
          "durationTicks": 168,
          "midi": 61,
          "name": "C#4",
          "ticks": 46264,
          "time": 63.40939020833333,
          "velocity": 0.6062992125984252
        },
        {
          "duration": 0.6140283333333443,
          "durationTicks": 448,
          "midi": 61,
          "name": "C#4",
          "ticks": 46464,
          "time": 63.68350999999999,
          "velocity": 0.6850393700787402
        },
        {
          "duration": 0.15350708333333785,
          "durationTicks": 112,
          "midi": 61,
          "name": "C#4",
          "ticks": 47804,
          "time": 65.52011260416666,
          "velocity": 0.6850393700787402
        },
        {
          "duration": 0.24670781249999152,
          "durationTicks": 180,
          "midi": 61,
          "name": "C#4",
          "ticks": 48008,
          "time": 65.79971479166666,
          "velocity": 0.7637795275590551
        },
        {
          "duration": 0.2521902083333316,
          "durationTicks": 184,
          "midi": 58,
          "name": "A#3",
          "ticks": 48192,
          "time": 66.05190499999999,
          "velocity": 0.6850393700787402
        },
        {
          "duration": 0.3015317708333356,
          "durationTicks": 220,
          "midi": 61,
          "name": "C#4",
          "ticks": 48380,
          "time": 66.30957760416666,
          "velocity": 0.7244094488188977
        },
        {
          "duration": 0.4276268750000014,
          "durationTicks": 312,
          "midi": 63,
          "name": "D#4",
          "ticks": 48604,
          "time": 66.61659177083332,
          "velocity": 0.7244094488188977
        },
        {
          "duration": 0.2576726041666717,
          "durationTicks": 188,
          "midi": 60,
          "name": "C4",
          "ticks": 49336,
          "time": 67.61987020833332,
          "velocity": 0.6850393700787402
        },
        {
          "duration": 0.2686373958333377,
          "durationTicks": 196,
          "midi": 58,
          "name": "A#3",
          "ticks": 49528,
          "time": 67.88302520833332,
          "velocity": 0.6850393700787402
        },
        {
          "duration": 0.09320072916666788,
          "durationTicks": 68,
          "midi": 60,
          "name": "C4",
          "ticks": 49728,
          "time": 68.157145,
          "velocity": 0.6377952755905512
        },
        {
          "duration": 0.1699542708333297,
          "durationTicks": 124,
          "midi": 58,
          "name": "A#3",
          "ticks": 49800,
          "time": 68.255828125,
          "velocity": 0.5118110236220472
        },
        {
          "duration": 0.9429720833333306,
          "durationTicks": 688,
          "midi": 56,
          "name": "G#3",
          "ticks": 49928,
          "time": 68.43126479166666,
          "velocity": 0.6141732283464567
        },
        {
          "duration": 0.15898947916666373,
          "durationTicks": 116,
          "midi": 58,
          "name": "A#3",
          "ticks": 50880,
          "time": 69.736075,
          "velocity": 0.6850393700787402
        },
        {
          "duration": 0.2576726041666433,
          "durationTicks": 188,
          "midi": 58,
          "name": "A#3",
          "ticks": 51068,
          "time": 69.99374760416667,
          "velocity": 0.5826771653543307
        },
        {
          "duration": 0.2576726041666575,
          "durationTicks": 188,
          "midi": 60,
          "name": "C4",
          "ticks": 51260,
          "time": 70.25690260416667,
          "velocity": 0.6377952755905512
        },
        {
          "duration": 0.2576726041666575,
          "durationTicks": 188,
          "midi": 61,
          "name": "C#4",
          "ticks": 51452,
          "time": 70.52005760416667,
          "velocity": 0.6850393700787402
        },
        {
          "duration": 0.2521902083333316,
          "durationTicks": 184,
          "midi": 58,
          "name": "A#3",
          "ticks": 51648,
          "time": 70.78869499999999,
          "velocity": 0.6141732283464567
        },
        {
          "duration": 0.36732052083333144,
          "durationTicks": 268,
          "midi": 56,
          "name": "G#3",
          "ticks": 51836,
          "time": 71.04636760416666,
          "velocity": 0.7244094488188977
        },
        {
          "duration": 0.18640145833333577,
          "durationTicks": 136,
          "midi": 68,
          "name": "G#4",
          "ticks": 52428,
          "time": 71.85776218749999,
          "velocity": 0.7637795275590551
        },
        {
          "duration": 0.27411979166666356,
          "durationTicks": 200,
          "midi": 68,
          "name": "G#4",
          "ticks": 52616,
          "time": 72.11543479166666,
          "velocity": 0.7637795275590551
        },
        {
          "duration": 0.4824508333333313,
          "durationTicks": 352,
          "midi": 63,
          "name": "D#4",
          "ticks": 52820,
          "time": 72.39503697916666,
          "velocity": 0.7244094488188977
        },
        {
          "duration": 0.2521902083333458,
          "durationTicks": 184,
          "midi": 65,
          "name": "F4",
          "ticks": 53188,
          "time": 72.89941739583332,
          "velocity": 0.7244094488188977
        },
        {
          "duration": 0.24122541666666564,
          "durationTicks": 176,
          "midi": 63,
          "name": "D#4",
          "ticks": 53376,
          "time": 73.15709,
          "velocity": 0.6850393700787402
        },
        {
          "duration": 0.3563557291666797,
          "durationTicks": 260,
          "midi": 61,
          "name": "C#4",
          "ticks": 53556,
          "time": 73.40379781249999,
          "velocity": 0.6850393700787402
        },
        {
          "duration": 0.15350708333333785,
          "durationTicks": 112,
          "midi": 61,
          "name": "C#4",
          "ticks": 53936,
          "time": 73.92462541666666,
          "velocity": 0.6850393700787402
        },
        {
          "duration": 0.2631550000000118,
          "durationTicks": 192,
          "midi": 61,
          "name": "C#4",
          "ticks": 54124,
          "time": 74.18229802083331,
          "velocity": 0.6850393700787402
        },
        {
          "duration": 0.2576726041666575,
          "durationTicks": 188,
          "midi": 58,
          "name": "A#3",
          "ticks": 54320,
          "time": 74.45093541666667,
          "velocity": 0.6850393700787402
        },
        {
          "duration": 0.2576726041666717,
          "durationTicks": 188,
          "midi": 61,
          "name": "C#4",
          "ticks": 54516,
          "time": 74.71957281249999,
          "velocity": 0.6850393700787402
        },
        {
          "duration": 0.24122541666665143,
          "durationTicks": 176,
          "midi": 58,
          "name": "A#3",
          "ticks": 54716,
          "time": 74.99369260416667,
          "velocity": 0.5826771653543307
        },
        {
          "duration": 0.28508458333332953,
          "durationTicks": 208,
          "midi": 61,
          "name": "C#4",
          "ticks": 54896,
          "time": 75.24040041666666,
          "velocity": 0.7244094488188977
        },
        {
          "duration": 0.2576726041666717,
          "durationTicks": 188,
          "midi": 63,
          "name": "D#4",
          "ticks": 55108,
          "time": 75.53096739583331,
          "velocity": 0.6850393700787402
        },
        {
          "duration": 0.2576726041666717,
          "durationTicks": 188,
          "midi": 60,
          "name": "C4",
          "ticks": 55492,
          "time": 76.05727739583332,
          "velocity": 0.6850393700787402
        },
        {
          "duration": 0.2686373958333377,
          "durationTicks": 196,
          "midi": 58,
          "name": "A#3",
          "ticks": 55684,
          "time": 76.32043239583332,
          "velocity": 0.6141732283464567
        },
        {
          "duration": 0.11513031249999983,
          "durationTicks": 84,
          "midi": 60,
          "name": "C4",
          "ticks": 55884,
          "time": 76.59455218749999,
          "velocity": 0.6141732283464567
        },
        {
          "duration": 0.15350708333333785,
          "durationTicks": 112,
          "midi": 58,
          "name": "A#3",
          "ticks": 55972,
          "time": 76.71516489583333,
          "velocity": 0.5826771653543307
        },
        {
          "duration": 0.6140283333333372,
          "durationTicks": 448,
          "midi": 56,
          "name": "G#3",
          "ticks": 56088,
          "time": 76.87415437499999,
          "velocity": 0.6141732283464567
        },
        {
          "duration": 0.13705989583333178,
          "durationTicks": 100,
          "midi": 58,
          "name": "A#3",
          "ticks": 57032,
          "time": 78.16799979166666,
          "velocity": 0.7244094488188977
        },
        {
          "duration": 0.2521902083333316,
          "durationTicks": 184,
          "midi": 58,
          "name": "A#3",
          "ticks": 57224,
          "time": 78.43115479166666,
          "velocity": 0.7244094488188977
        },
        {
          "duration": 0.2631550000000118,
          "durationTicks": 192,
          "midi": 60,
          "name": "C4",
          "ticks": 57412,
          "time": 78.68882739583331,
          "velocity": 0.6850393700787402
        },
        {
          "duration": 0.24670781249999152,
          "durationTicks": 180,
          "midi": 61,
          "name": "C#4",
          "ticks": 57608,
          "time": 78.95746479166667,
          "velocity": 0.6141732283464567
        },
        {
          "duration": 0.2521902083333174,
          "durationTicks": 184,
          "midi": 58,
          "name": "A#3",
          "ticks": 57792,
          "time": 79.209655,
          "velocity": 0.6850393700787402
        },
        {
          "duration": 0.515345208333315,
          "durationTicks": 376,
          "midi": 56,
          "name": "G#3",
          "ticks": 57980,
          "time": 79.46732760416667,
          "velocity": 0.7244094488188977
        },
        {
          "duration": 0.2686373958333377,
          "durationTicks": 196,
          "midi": 63,
          "name": "D#4",
          "ticks": 58576,
          "time": 80.28420458333332,
          "velocity": 0.7244094488188977
        },
        {
          "duration": 0.20284864583332762,
          "durationTicks": 148,
          "midi": 65,
          "name": "F4",
          "ticks": 58776,
          "time": 80.558324375,
          "velocity": 0.7244094488188977
        },
        {
          "duration": 0.4824508333333313,
          "durationTicks": 352,
          "midi": 65,
          "name": "F4",
          "ticks": 58980,
          "time": 80.83792656249999,
          "velocity": 0.8110236220472441
        },
        {
          "duration": 0.603063541666657,
          "durationTicks": 440,
          "midi": 63,
          "name": "D#4",
          "ticks": 59336,
          "time": 81.32585979166666,
          "velocity": 0.6850393700787402
        },
        {
          "duration": 1.2664334374999981,
          "durationTicks": 924,
          "midi": 61,
          "name": "C#4",
          "ticks": 59924,
          "time": 82.13177197916666,
          "velocity": 0.6141732283464567
        },
        {
          "duration": 0.27411979166666356,
          "durationTicks": 200,
          "midi": 63,
          "name": "D#4",
          "ticks": 60852,
          "time": 83.4036878125,
          "velocity": 0.5826771653543307
        },
        {
          "duration": 0.2521902083333316,
          "durationTicks": 184,
          "midi": 65,
          "name": "F4",
          "ticks": 61056,
          "time": 83.68328999999999,
          "velocity": 0.7637795275590551
        },
        {
          "duration": 0.45503885416665923,
          "durationTicks": 332,
          "midi": 63,
          "name": "D#4",
          "ticks": 61244,
          "time": 83.94096260416666,
          "velocity": 0.7244094488188977
        },
        {
          "duration": 0.19736625000000174,
          "durationTicks": 144,
          "midi": 63,
          "name": "D#4",
          "ticks": 61616,
          "time": 84.45082541666666,
          "velocity": 0.6850393700787402
        },
        {
          "duration": 0.27411979166666356,
          "durationTicks": 200,
          "midi": 63,
          "name": "D#4",
          "ticks": 61816,
          "time": 84.72494520833332,
          "velocity": 0.7244094488188977
        },
        {
          "duration": 0.23574302083335397,
          "durationTicks": 172,
          "midi": 65,
          "name": "F4",
          "ticks": 62020,
          "time": 85.00454739583331,
          "velocity": 0.6850393700787402
        },
        {
          "duration": 0.2521902083333316,
          "durationTicks": 184,
          "midi": 63,
          "name": "D#4",
          "ticks": 62196,
          "time": 85.2457728125,
          "velocity": 0.6850393700787402
        },
        {
          "duration": 0.2138134374999936,
          "durationTicks": 156,
          "midi": 56,
          "name": "G#3",
          "ticks": 62384,
          "time": 85.50344541666666,
          "velocity": 0.5826771653543307
        },
        {
          "duration": 0.8168769791666648,
          "durationTicks": 596,
          "midi": 56,
          "name": "G#3",
          "ticks": 62596,
          "time": 85.79401239583332,
          "velocity": 0.7637795275590551
        },
        {
          "duration": 0.23026062499999966,
          "durationTicks": 168,
          "midi": 56,
          "name": "G#3",
          "ticks": 63548,
          "time": 87.09882260416666,
          "velocity": 0.6850393700787402
        },
        {
          "duration": 0.23574302083332555,
          "durationTicks": 172,
          "midi": 58,
          "name": "A#3",
          "ticks": 63744,
          "time": 87.36746,
          "velocity": 0.7244094488188977
        },
        {
          "duration": 0.28508458333332953,
          "durationTicks": 208,
          "midi": 60,
          "name": "C4",
          "ticks": 63920,
          "time": 87.60868541666666,
          "velocity": 0.6377952755905512
        },
        {
          "duration": 0.24670781250000573,
          "durationTicks": 180,
          "midi": 61,
          "name": "C#4",
          "ticks": 64132,
          "time": 87.89925239583332,
          "velocity": 0.6850393700787402
        },
        {
          "duration": 0.27411979166666356,
          "durationTicks": 200,
          "midi": 58,
          "name": "A#3",
          "ticks": 64316,
          "time": 88.15144260416666,
          "velocity": 0.7637795275590551
        },
        {
          "duration": 0.26863739583332347,
          "durationTicks": 196,
          "midi": 63,
          "name": "D#4",
          "ticks": 64712,
          "time": 88.69419979166666,
          "velocity": 0.6850393700787402
        },
        {
          "duration": 0.24122541666666564,
          "durationTicks": 176,
          "midi": 65,
          "name": "F4",
          "ticks": 64912,
          "time": 88.96831958333333,
          "velocity": 0.7244094488188977
        },
        {
          "duration": 0.45503885416667345,
          "durationTicks": 332,
          "midi": 63,
          "name": "D#4",
          "ticks": 65092,
          "time": 89.21502739583332,
          "velocity": 0.6850393700787402
        },
        {
          "duration": 0.12609510416668002,
          "durationTicks": 92,
          "midi": 56,
          "name": "G#3",
          "ticks": 65664,
          "time": 89.99900999999998,
          "velocity": 0.6850393700787402
        },
        {
          "duration": 0.10964791666667395,
          "durationTicks": 80,
          "midi": 58,
          "name": "A#3",
          "ticks": 65760,
          "time": 90.13058749999999,
          "velocity": 0.6850393700787402
        },
        {
          "duration": 0.10416552083333386,
          "durationTicks": 76,
          "midi": 61,
          "name": "C#4",
          "ticks": 65844,
          "time": 90.24571781249999,
          "velocity": 0.6141732283464567
        },
        {
          "duration": 0.1260951041666516,
          "durationTicks": 92,
          "midi": 58,
          "name": "A#3",
          "ticks": 65924,
          "time": 90.35536572916666,
          "velocity": 0.6141732283464567
        },
        {
          "duration": 0.28508458333332953,
          "durationTicks": 208,
          "midi": 65,
          "name": "F4",
          "ticks": 66032,
          "time": 90.50339041666666,
          "velocity": 0.8110236220472441
        },
        {
          "duration": 0.36183812499999135,
          "durationTicks": 264,
          "midi": 65,
          "name": "F4",
          "ticks": 66356,
          "time": 90.94746447916667,
          "velocity": 0.8110236220472441
        },
        {
          "duration": 0.5427571875000012,
          "durationTicks": 396,
          "midi": 63,
          "name": "D#4",
          "ticks": 66624,
          "time": 91.31478499999999,
          "velocity": 0.7244094488188977
        },
        {
          "duration": 0.09320072916666788,
          "durationTicks": 68,
          "midi": 56,
          "name": "G#3",
          "ticks": 67200,
          "time": 92.10425,
          "velocity": 0.6850393700787402
        },
        {
          "duration": 0.12061270833332571,
          "durationTicks": 88,
          "midi": 58,
          "name": "A#3",
          "ticks": 67272,
          "time": 92.20293312499999,
          "velocity": 0.6141732283464567
        },
        {
          "duration": 0.1260951041666516,
          "durationTicks": 92,
          "midi": 60,
          "name": "C4",
          "ticks": 67364,
          "time": 92.32902822916667,
          "velocity": 0.6377952755905512
        },
        {
          "duration": 0.1315775000000059,
          "durationTicks": 96,
          "midi": 58,
          "name": "A#3",
          "ticks": 67460,
          "time": 92.46060572916666,
          "velocity": 0.6141732283464567
        },
        {
          "duration": 0.3453909374999995,
          "durationTicks": 252,
          "midi": 63,
          "name": "D#4",
          "ticks": 67576,
          "time": 92.61959520833332,
          "velocity": 0.7244094488188977
        },
        {
          "duration": 0.36183812500000556,
          "durationTicks": 264,
          "midi": 63,
          "name": "D#4",
          "ticks": 67904,
          "time": 93.06915166666666,
          "velocity": 0.6850393700787402
        },
        {
          "duration": 0.3070141666666757,
          "durationTicks": 224,
          "midi": 61,
          "name": "C#4",
          "ticks": 68172,
          "time": 93.43647218749999,
          "velocity": 0.6850393700787402
        },
        {
          "duration": 0.1260951041666658,
          "durationTicks": 92,
          "midi": 60,
          "name": "C4",
          "ticks": 68400,
          "time": 93.74896874999999,
          "velocity": 0.5590551181102362
        },
        {
          "duration": 0.2905669791666696,
          "durationTicks": 212,
          "midi": 58,
          "name": "A#3",
          "ticks": 68496,
          "time": 93.88054625,
          "velocity": 0.6141732283464567
        },
        {
          "duration": 0.12061270833333992,
          "durationTicks": 88,
          "midi": 56,
          "name": "G#3",
          "ticks": 68752,
          "time": 94.23141958333332,
          "velocity": 0.6850393700787402
        },
        {
          "duration": 0.14254229166667187,
          "durationTicks": 104,
          "midi": 58,
          "name": "A#3",
          "ticks": 68844,
          "time": 94.35751468749999,
          "velocity": 0.5826771653543307
        },
        {
          "duration": 0.10416552083333386,
          "durationTicks": 76,
          "midi": 60,
          "name": "C4",
          "ticks": 68956,
          "time": 94.51102177083332,
          "velocity": 0.5826771653543307
        },
        {
          "duration": 0.11513031249999983,
          "durationTicks": 84,
          "midi": 58,
          "name": "A#3",
          "ticks": 69036,
          "time": 94.62066968749998,
          "velocity": 0.6141732283464567
        },
        {
          "duration": 0.4769684375000054,
          "durationTicks": 348,
          "midi": 61,
          "name": "C#4",
          "ticks": 69132,
          "time": 94.75224718749999,
          "velocity": 0.6850393700787402
        },
        {
          "duration": 0.27411979166666356,
          "durationTicks": 200,
          "midi": 63,
          "name": "D#4",
          "ticks": 69484,
          "time": 95.23469802083332,
          "velocity": 0.6141732283464567
        },
        {
          "duration": 0.24670781249999152,
          "durationTicks": 180,
          "midi": 60,
          "name": "C4",
          "ticks": 69688,
          "time": 95.51430020833332,
          "velocity": 0.6850393700787402
        },
        {
          "duration": 0.2576726041666575,
          "durationTicks": 188,
          "midi": 58,
          "name": "A#3",
          "ticks": 69872,
          "time": 95.76649041666666,
          "velocity": 0.5826771653543307
        },
        {
          "duration": 0.3015317708333214,
          "durationTicks": 220,
          "midi": 56,
          "name": "G#3",
          "ticks": 70064,
          "time": 96.02964541666667,
          "velocity": 0.6141732283464567
        },
        {
          "duration": 0.2631549999999976,
          "durationTicks": 192,
          "midi": 56,
          "name": "G#3",
          "ticks": 70448,
          "time": 96.55595541666666,
          "velocity": 0.6141732283464567
        },
        {
          "duration": 0.40021489583332936,
          "durationTicks": 292,
          "midi": 63,
          "name": "D#4",
          "ticks": 70644,
          "time": 96.82459281249999,
          "velocity": 0.6850393700787402
        },
        {
          "duration": 0.5372747916666611,
          "durationTicks": 392,
          "midi": 61,
          "name": "C#4",
          "ticks": 71032,
          "time": 97.35638520833332,
          "velocity": 0.6850393700787402
        },
        {
          "duration": 0.0932007291666821,
          "durationTicks": 68,
          "midi": 56,
          "name": "G#3",
          "ticks": 71820,
          "time": 98.43641718749998,
          "velocity": 0.6850393700787402
        },
        {
          "duration": 0.10416552083331965,
          "durationTicks": 76,
          "midi": 58,
          "name": "A#3",
          "ticks": 71892,
          "time": 98.53510031249999,
          "velocity": 0.6141732283464567
        },
        {
          "duration": 0.09868312499999377,
          "durationTicks": 72,
          "midi": 61,
          "name": "C#4",
          "ticks": 71972,
          "time": 98.64474822916667,
          "velocity": 0.6141732283464567
        },
        {
          "duration": 0.1315775000000059,
          "durationTicks": 96,
          "midi": 58,
          "name": "A#3",
          "ticks": 72048,
          "time": 98.74891374999999,
          "velocity": 0.6141732283464567
        },
        {
          "duration": 0.31797895833332745,
          "durationTicks": 232,
          "midi": 65,
          "name": "F4",
          "ticks": 72164,
          "time": 98.90790322916666,
          "velocity": 0.8110236220472441
        },
        {
          "duration": 0.3563557291666797,
          "durationTicks": 260,
          "midi": 65,
          "name": "F4",
          "ticks": 72484,
          "time": 99.34649489583332,
          "velocity": 0.8110236220472441
        },
        {
          "duration": 0.5646867708333332,
          "durationTicks": 412,
          "midi": 63,
          "name": "D#4",
          "ticks": 72748,
          "time": 99.70833302083332,
          "velocity": 0.7244094488188977
        },
        {
          "duration": 0.09868312500000798,
          "durationTicks": 72,
          "midi": 56,
          "name": "G#3",
          "ticks": 73324,
          "time": 100.49779802083332,
          "velocity": 0.6850393700787402
        },
        {
          "duration": 0.10964791666665974,
          "durationTicks": 80,
          "midi": 58,
          "name": "A#3",
          "ticks": 73400,
          "time": 100.60196354166666,
          "velocity": 0.6141732283464567
        },
        {
          "duration": 0.1315774999999917,
          "durationTicks": 96,
          "midi": 60,
          "name": "C4",
          "ticks": 73484,
          "time": 100.71709385416666,
          "velocity": 0.5826771653543307
        },
        {
          "duration": 0.14802468749999775,
          "durationTicks": 108,
          "midi": 58,
          "name": "A#3",
          "ticks": 73584,
          "time": 100.85415375,
          "velocity": 0.6850393700787402
        },
        {
          "duration": 0.4769684375000054,
          "durationTicks": 348,
          "midi": 68,
          "name": "G#4",
          "ticks": 73720,
          "time": 101.04055520833332,
          "velocity": 0.7244094488188977
        },
        {
          "duration": 0.27411979166666356,
          "durationTicks": 200,
          "midi": 60,
          "name": "C4",
          "ticks": 74092,
          "time": 101.55041802083332,
          "velocity": 0.6377952755905512
        },
        {
          "duration": 0.24670781249999152,
          "durationTicks": 180,
          "midi": 61,
          "name": "C#4",
          "ticks": 74296,
          "time": 101.83002020833332,
          "velocity": 0.6850393700787402
        },
        {
          "duration": 0.12061270833333992,
          "durationTicks": 88,
          "midi": 60,
          "name": "C4",
          "ticks": 74480,
          "time": 102.08221041666665,
          "velocity": 0.3858267716535433
        },
        {
          "duration": 0.2631549999999976,
          "durationTicks": 192,
          "midi": 58,
          "name": "A#3",
          "ticks": 74572,
          "time": 102.20830552083332,
          "velocity": 0.6850393700787402
        },
        {
          "duration": 0.10964791666667395,
          "durationTicks": 80,
          "midi": 56,
          "name": "G#3",
          "ticks": 74848,
          "time": 102.58659083333332,
          "velocity": 0.6850393700787402
        },
        {
          "duration": 0.137059895833346,
          "durationTicks": 100,
          "midi": 58,
          "name": "A#3",
          "ticks": 74932,
          "time": 102.70172114583332,
          "velocity": 0.6141732283464567
        },
        {
          "duration": 0.1315775000000059,
          "durationTicks": 96,
          "midi": 60,
          "name": "C4",
          "ticks": 75044,
          "time": 102.85522822916666,
          "velocity": 0.5826771653543307
        },
        {
          "duration": 0.16447187500000382,
          "durationTicks": 120,
          "midi": 58,
          "name": "A#3",
          "ticks": 75144,
          "time": 102.99228812499999,
          "velocity": 0.6850393700787402
        },
        {
          "duration": 0.5208276041666835,
          "durationTicks": 380,
          "midi": 61,
          "name": "C#4",
          "ticks": 75276,
          "time": 103.17320718749998,
          "velocity": 0.7244094488188977
        },
        {
          "duration": 0.24122541666666564,
          "durationTicks": 176,
          "midi": 63,
          "name": "D#4",
          "ticks": 75660,
          "time": 103.69951718749999,
          "velocity": 0.6141732283464567
        },
        {
          "duration": 0.44407406250000747,
          "durationTicks": 324,
          "midi": 60,
          "name": "C4",
          "ticks": 75840,
          "time": 103.94622499999998,
          "velocity": 0.6377952755905512
        },
        {
          "duration": 0.137059895833346,
          "durationTicks": 100,
          "midi": 58,
          "name": "A#3",
          "ticks": 76168,
          "time": 104.39578145833332,
          "velocity": 0.5590551181102362
        },
        {
          "duration": 0.27411979166667777,
          "durationTicks": 200,
          "midi": 56,
          "name": "G#3",
          "ticks": 76272,
          "time": 104.53832374999999,
          "velocity": 0.6141732283464567
        },
        {
          "duration": 0.24122541666665143,
          "durationTicks": 176,
          "midi": 56,
          "name": "G#3",
          "ticks": 76604,
          "time": 104.99336260416666,
          "velocity": 0.7244094488188977
        },
        {
          "duration": 0.2631549999999976,
          "durationTicks": 192,
          "midi": 63,
          "name": "D#4",
          "ticks": 76788,
          "time": 105.2455528125,
          "velocity": 0.7244094488188977
        },
        {
          "duration": 0.23026062499999966,
          "durationTicks": 168,
          "midi": 61,
          "name": "C#4",
          "ticks": 76984,
          "time": 105.51419020833332,
          "velocity": 0.6062992125984252
        },
        {
          "duration": 0.614028333333323,
          "durationTicks": 448,
          "midi": 61,
          "name": "C#4",
          "ticks": 77184,
          "time": 105.78831,
          "velocity": 0.6850393700787402
        },
        {
          "duration": 0.12609510416668002,
          "durationTicks": 92,
          "midi": 56,
          "name": "G#3",
          "ticks": 77952,
          "time": 106.84092999999999,
          "velocity": 0.6850393700787402
        },
        {
          "duration": 0.10964791666667395,
          "durationTicks": 80,
          "midi": 58,
          "name": "A#3",
          "ticks": 78048,
          "time": 106.97250749999999,
          "velocity": 0.6850393700787402
        },
        {
          "duration": 0.10416552083331965,
          "durationTicks": 76,
          "midi": 61,
          "name": "C#4",
          "ticks": 78132,
          "time": 107.08763781249999,
          "velocity": 0.6141732283464567
        },
        {
          "duration": 0.1260951041666516,
          "durationTicks": 92,
          "midi": 58,
          "name": "A#3",
          "ticks": 78212,
          "time": 107.19728572916667,
          "velocity": 0.6141732283464567
        },
        {
          "duration": 0.28508458333332953,
          "durationTicks": 208,
          "midi": 65,
          "name": "F4",
          "ticks": 78320,
          "time": 107.34531041666666,
          "velocity": 0.8110236220472441
        },
        {
          "duration": 0.36183812500000556,
          "durationTicks": 264,
          "midi": 65,
          "name": "F4",
          "ticks": 78644,
          "time": 107.78938447916666,
          "velocity": 0.8110236220472441
        },
        {
          "duration": 0.5427571875000012,
          "durationTicks": 396,
          "midi": 63,
          "name": "D#4",
          "ticks": 78912,
          "time": 108.15670499999999,
          "velocity": 0.7244094488188977
        },
        {
          "duration": 0.09320072916666788,
          "durationTicks": 68,
          "midi": 56,
          "name": "G#3",
          "ticks": 79488,
          "time": 108.94617,
          "velocity": 0.6850393700787402
        },
        {
          "duration": 0.12061270833332571,
          "durationTicks": 88,
          "midi": 58,
          "name": "A#3",
          "ticks": 79560,
          "time": 109.04485312499999,
          "velocity": 0.6141732283464567
        },
        {
          "duration": 0.1260951041666658,
          "durationTicks": 92,
          "midi": 60,
          "name": "C4",
          "ticks": 79652,
          "time": 109.17094822916665,
          "velocity": 0.6377952755905512
        },
        {
          "duration": 0.1315775000000059,
          "durationTicks": 96,
          "midi": 58,
          "name": "A#3",
          "ticks": 79748,
          "time": 109.30252572916666,
          "velocity": 0.6141732283464567
        },
        {
          "duration": 0.3453909375000137,
          "durationTicks": 252,
          "midi": 63,
          "name": "D#4",
          "ticks": 79864,
          "time": 109.46151520833331,
          "velocity": 0.7244094488188977
        },
        {
          "duration": 0.36183812500000556,
          "durationTicks": 264,
          "midi": 63,
          "name": "D#4",
          "ticks": 80192,
          "time": 109.91107166666666,
          "velocity": 0.6850393700787402
        },
        {
          "duration": 0.3070141666666757,
          "durationTicks": 224,
          "midi": 61,
          "name": "C#4",
          "ticks": 80460,
          "time": 110.27839218749999,
          "velocity": 0.6850393700787402
        },
        {
          "duration": 0.1260951041666658,
          "durationTicks": 92,
          "midi": 60,
          "name": "C4",
          "ticks": 80688,
          "time": 110.59088874999999,
          "velocity": 0.5590551181102362
        },
        {
          "duration": 0.29056697916668384,
          "durationTicks": 212,
          "midi": 58,
          "name": "A#3",
          "ticks": 80784,
          "time": 110.72246624999998,
          "velocity": 0.6141732283464567
        },
        {
          "duration": 0.12061270833333992,
          "durationTicks": 88,
          "midi": 56,
          "name": "G#3",
          "ticks": 81040,
          "time": 111.07333958333332,
          "velocity": 0.6850393700787402
        },
        {
          "duration": 0.14254229166667187,
          "durationTicks": 104,
          "midi": 58,
          "name": "A#3",
          "ticks": 81132,
          "time": 111.19943468749999,
          "velocity": 0.5826771653543307
        },
        {
          "duration": 0.10416552083334807,
          "durationTicks": 76,
          "midi": 60,
          "name": "C4",
          "ticks": 81244,
          "time": 111.35294177083331,
          "velocity": 0.5826771653543307
        },
        {
          "duration": 0.11513031249999983,
          "durationTicks": 84,
          "midi": 58,
          "name": "A#3",
          "ticks": 81324,
          "time": 111.46258968749999,
          "velocity": 0.6141732283464567
        },
        {
          "duration": 0.4769684374999912,
          "durationTicks": 348,
          "midi": 61,
          "name": "C#4",
          "ticks": 81420,
          "time": 111.59416718749999,
          "velocity": 0.6850393700787402
        },
        {
          "duration": 0.27411979166666356,
          "durationTicks": 200,
          "midi": 63,
          "name": "D#4",
          "ticks": 81772,
          "time": 112.07661802083332,
          "velocity": 0.6141732283464567
        },
        {
          "duration": 0.24670781250000573,
          "durationTicks": 180,
          "midi": 60,
          "name": "C4",
          "ticks": 81976,
          "time": 112.35622020833331,
          "velocity": 0.6850393700787402
        },
        {
          "duration": 0.2576726041666575,
          "durationTicks": 188,
          "midi": 58,
          "name": "A#3",
          "ticks": 82160,
          "time": 112.60841041666666,
          "velocity": 0.5826771653543307
        },
        {
          "duration": 0.3015317708333356,
          "durationTicks": 220,
          "midi": 56,
          "name": "G#3",
          "ticks": 82352,
          "time": 112.87156541666666,
          "velocity": 0.6141732283464567
        },
        {
          "duration": 0.2631549999999976,
          "durationTicks": 192,
          "midi": 56,
          "name": "G#3",
          "ticks": 82736,
          "time": 113.39787541666666,
          "velocity": 0.6141732283464567
        },
        {
          "duration": 0.40021489583332936,
          "durationTicks": 292,
          "midi": 63,
          "name": "D#4",
          "ticks": 82932,
          "time": 113.66651281249999,
          "velocity": 0.6850393700787402
        },
        {
          "duration": 0.5372747916666754,
          "durationTicks": 392,
          "midi": 61,
          "name": "C#4",
          "ticks": 83320,
          "time": 114.19830520833331,
          "velocity": 0.6850393700787402
        },
        {
          "duration": 0.09320072916666788,
          "durationTicks": 68,
          "midi": 56,
          "name": "G#3",
          "ticks": 84108,
          "time": 115.27833718749999,
          "velocity": 0.6850393700787402
        },
        {
          "duration": 0.10416552083331965,
          "durationTicks": 76,
          "midi": 58,
          "name": "A#3",
          "ticks": 84180,
          "time": 115.3770203125,
          "velocity": 0.6141732283464567
        },
        {
          "duration": 0.09868312500000798,
          "durationTicks": 72,
          "midi": 61,
          "name": "C#4",
          "ticks": 84260,
          "time": 115.48666822916665,
          "velocity": 0.6141732283464567
        },
        {
          "duration": 0.1315775000000059,
          "durationTicks": 96,
          "midi": 58,
          "name": "A#3",
          "ticks": 84336,
          "time": 115.59083374999999,
          "velocity": 0.6141732283464567
        },
        {
          "duration": 0.31797895833332745,
          "durationTicks": 232,
          "midi": 65,
          "name": "F4",
          "ticks": 84452,
          "time": 115.74982322916667,
          "velocity": 0.8110236220472441
        },
        {
          "duration": 0.35635572916666547,
          "durationTicks": 260,
          "midi": 65,
          "name": "F4",
          "ticks": 84772,
          "time": 116.18841489583332,
          "velocity": 0.8110236220472441
        },
        {
          "duration": 0.5646867708333474,
          "durationTicks": 412,
          "midi": 63,
          "name": "D#4",
          "ticks": 85036,
          "time": 116.55025302083331,
          "velocity": 0.7244094488188977
        },
        {
          "duration": 0.09868312499999377,
          "durationTicks": 72,
          "midi": 56,
          "name": "G#3",
          "ticks": 85612,
          "time": 117.33971802083332,
          "velocity": 0.6850393700787402
        },
        {
          "duration": 0.10964791666664553,
          "durationTicks": 80,
          "midi": 58,
          "name": "A#3",
          "ticks": 85688,
          "time": 117.44388354166666,
          "velocity": 0.6141732283464567
        },
        {
          "duration": 0.1315774999999917,
          "durationTicks": 96,
          "midi": 60,
          "name": "C4",
          "ticks": 85772,
          "time": 117.55901385416666,
          "velocity": 0.5826771653543307
        },
        {
          "duration": 0.14802468750001196,
          "durationTicks": 108,
          "midi": 58,
          "name": "A#3",
          "ticks": 85872,
          "time": 117.69607374999998,
          "velocity": 0.6850393700787402
        },
        {
          "duration": 0.4769684374999912,
          "durationTicks": 348,
          "midi": 68,
          "name": "G#4",
          "ticks": 86008,
          "time": 117.88247520833332,
          "velocity": 0.7244094488188977
        },
        {
          "duration": 0.27411979166666356,
          "durationTicks": 200,
          "midi": 60,
          "name": "C4",
          "ticks": 86380,
          "time": 118.39233802083332,
          "velocity": 0.6377952755905512
        },
        {
          "duration": 0.24670781250000573,
          "durationTicks": 180,
          "midi": 61,
          "name": "C#4",
          "ticks": 86584,
          "time": 118.67194020833331,
          "velocity": 0.6850393700787402
        },
        {
          "duration": 0.12061270833332571,
          "durationTicks": 88,
          "midi": 60,
          "name": "C4",
          "ticks": 86768,
          "time": 118.92413041666666,
          "velocity": 0.3858267716535433
        },
        {
          "duration": 0.2631549999999976,
          "durationTicks": 192,
          "midi": 58,
          "name": "A#3",
          "ticks": 86860,
          "time": 119.05022552083332,
          "velocity": 0.6850393700787402
        },
        {
          "duration": 0.10964791666667395,
          "durationTicks": 80,
          "midi": 56,
          "name": "G#3",
          "ticks": 87136,
          "time": 119.42851083333332,
          "velocity": 0.6850393700787402
        },
        {
          "duration": 0.137059895833346,
          "durationTicks": 100,
          "midi": 58,
          "name": "A#3",
          "ticks": 87220,
          "time": 119.54364114583332,
          "velocity": 0.6141732283464567
        },
        {
          "duration": 0.1315775000000059,
          "durationTicks": 96,
          "midi": 60,
          "name": "C4",
          "ticks": 87332,
          "time": 119.69714822916666,
          "velocity": 0.5826771653543307
        },
        {
          "duration": 0.16447187500000382,
          "durationTicks": 120,
          "midi": 58,
          "name": "A#3",
          "ticks": 87432,
          "time": 119.83420812499999,
          "velocity": 0.6850393700787402
        },
        {
          "duration": 0.5208276041666693,
          "durationTicks": 380,
          "midi": 61,
          "name": "C#4",
          "ticks": 87564,
          "time": 120.01512718749998,
          "velocity": 0.7244094488188977
        },
        {
          "duration": 0.24122541666666564,
          "durationTicks": 176,
          "midi": 63,
          "name": "D#4",
          "ticks": 87948,
          "time": 120.5414371875,
          "velocity": 0.6141732283464567
        },
        {
          "duration": 0.44407406250000747,
          "durationTicks": 324,
          "midi": 60,
          "name": "C4",
          "ticks": 88128,
          "time": 120.78814499999999,
          "velocity": 0.6377952755905512
        },
        {
          "duration": 0.137059895833346,
          "durationTicks": 100,
          "midi": 58,
          "name": "A#3",
          "ticks": 88456,
          "time": 121.23770145833332,
          "velocity": 0.5590551181102362
        },
        {
          "duration": 0.27411979166666356,
          "durationTicks": 200,
          "midi": 56,
          "name": "G#3",
          "ticks": 88560,
          "time": 121.38024374999999,
          "velocity": 0.6141732283464567
        },
        {
          "duration": 0.24122541666665143,
          "durationTicks": 176,
          "midi": 56,
          "name": "G#3",
          "ticks": 88892,
          "time": 121.83528260416666,
          "velocity": 0.7244094488188977
        },
        {
          "duration": 0.2631550000000118,
          "durationTicks": 192,
          "midi": 63,
          "name": "D#4",
          "ticks": 89076,
          "time": 122.08747281249998,
          "velocity": 0.7244094488188977
        },
        {
          "duration": 0.23026062499999966,
          "durationTicks": 168,
          "midi": 61,
          "name": "C#4",
          "ticks": 89272,
          "time": 122.35611020833332,
          "velocity": 0.6062992125984252
        },
        {
          "duration": 0.6140283333333372,
          "durationTicks": 448,
          "midi": 61,
          "name": "C#4",
          "ticks": 89472,
          "time": 122.63022999999998,
          "velocity": 0.6850393700787402
        },
        {
          "duration": 0.0932007291666821,
          "durationTicks": 68,
          "midi": 56,
          "name": "G#3",
          "ticks": 96960,
          "time": 132.893275,
          "velocity": 0.6850393700787402
        },
        {
          "duration": 0.1315774999999917,
          "durationTicks": 96,
          "midi": 58,
          "name": "A#3",
          "ticks": 97032,
          "time": 132.991958125,
          "velocity": 0.6141732283464567
        },
        {
          "duration": 0.12061270833333992,
          "durationTicks": 88,
          "midi": 61,
          "name": "C#4",
          "ticks": 97132,
          "time": 133.1290180208333,
          "velocity": 0.5826771653543307
        },
        {
          "duration": 0.14802468749999775,
          "durationTicks": 108,
          "midi": 58,
          "name": "A#3",
          "ticks": 97224,
          "time": 133.25511312499998,
          "velocity": 0.6850393700787402
        },
        {
          "duration": 0.19188385416666165,
          "durationTicks": 140,
          "midi": 65,
          "name": "F4",
          "ticks": 97340,
          "time": 133.41410260416666,
          "velocity": 0.7637795275590551
        },
        {
          "duration": 0.1260951041666658,
          "durationTicks": 92,
          "midi": 56,
          "name": "G#3",
          "ticks": 97524,
          "time": 133.6662928125,
          "velocity": 0.6141732283464567
        },
        {
          "duration": 0.1260951041666658,
          "durationTicks": 92,
          "midi": 58,
          "name": "A#3",
          "ticks": 97620,
          "time": 133.79787031249998,
          "velocity": 0.6141732283464567
        },
        {
          "duration": 0.10964791666668816,
          "durationTicks": 80,
          "midi": 61,
          "name": "C#4",
          "ticks": 97716,
          "time": 133.92944781249997,
          "velocity": 0.6850393700787402
        },
        {
          "duration": 0.12061270833333992,
          "durationTicks": 88,
          "midi": 58,
          "name": "A#3",
          "ticks": 97800,
          "time": 134.044578125,
          "velocity": 0.7244094488188977
        },
        {
          "duration": 0.3015317708333214,
          "durationTicks": 220,
          "midi": 65,
          "name": "F4",
          "ticks": 97892,
          "time": 134.17067322916665,
          "velocity": 0.8110236220472441
        },
        {
          "duration": 0.10416552083336228,
          "durationTicks": 76,
          "midi": 56,
          "name": "G#3",
          "ticks": 100020,
          "time": 137.08730781249997,
          "velocity": 0.6850393700787402
        },
        {
          "duration": 0.12061270833333992,
          "durationTicks": 88,
          "midi": 58,
          "name": "A#3",
          "ticks": 100100,
          "time": 137.19695572916663,
          "velocity": 0.6850393700787402
        },
        {
          "duration": 0.10416552083330544,
          "durationTicks": 76,
          "midi": 61,
          "name": "C#4",
          "ticks": 100192,
          "time": 137.32305083333333,
          "velocity": 0.6850393700787402
        },
        {
          "duration": 0.14254229166664345,
          "durationTicks": 104,
          "midi": 58,
          "name": "A#3",
          "ticks": 100272,
          "time": 137.43269875,
          "velocity": 0.6141732283464567
        },
        {
          "duration": 0.2028486458333134,
          "durationTicks": 148,
          "midi": 65,
          "name": "F4",
          "ticks": 100384,
          "time": 137.58620583333334,
          "velocity": 0.7244094488188977
        },
        {
          "duration": 0.12061270833333992,
          "durationTicks": 88,
          "midi": 56,
          "name": "G#3",
          "ticks": 100596,
          "time": 137.87677281249998,
          "velocity": 0.7244094488188977
        },
        {
          "duration": 0.137059895833346,
          "durationTicks": 100,
          "midi": 58,
          "name": "A#3",
          "ticks": 100688,
          "time": 138.00286791666664,
          "velocity": 0.6141732283464567
        },
        {
          "duration": 0.10416552083333386,
          "durationTicks": 76,
          "midi": 61,
          "name": "C#4",
          "ticks": 100792,
          "time": 138.14541020833332,
          "velocity": 0.6141732283464567
        },
        {
          "duration": 0.1315775000000201,
          "durationTicks": 96,
          "midi": 58,
          "name": "A#3",
          "ticks": 100872,
          "time": 138.25505812499998,
          "velocity": 0.6141732283464567
        },
        {
          "duration": 0.31797895833332745,
          "durationTicks": 232,
          "midi": 65,
          "name": "F4",
          "ticks": 100976,
          "time": 138.39760041666665,
          "velocity": 0.8110236220472441
        },
        {
          "duration": 0.15350708333335206,
          "durationTicks": 112,
          "midi": 61,
          "name": "C#4",
          "ticks": 103092,
          "time": 141.2977878125,
          "velocity": 0.6141732283464567
        },
        {
          "duration": 0.25219020833336003,
          "durationTicks": 184,
          "midi": 61,
          "name": "C#4",
          "ticks": 103284,
          "time": 141.56094281249997,
          "velocity": 0.6850393700787402
        },
        {
          "duration": 0.2686373958333661,
          "durationTicks": 196,
          "midi": 58,
          "name": "A#3",
          "ticks": 103472,
          "time": 141.81861541666663,
          "velocity": 0.6850393700787402
        },
        {
          "duration": 0.2521902083333316,
          "durationTicks": 184,
          "midi": 61,
          "name": "C#4",
          "ticks": 103672,
          "time": 142.09273520833332,
          "velocity": 0.6850393700787402
        },
        {
          "duration": 0.3837677083333517,
          "durationTicks": 280,
          "midi": 63,
          "name": "D#4",
          "ticks": 103860,
          "time": 142.35040781249998,
          "velocity": 0.6850393700787402
        },
        {
          "duration": 0.2576726041666575,
          "durationTicks": 188,
          "midi": 60,
          "name": "C4",
          "ticks": 104628,
          "time": 143.40302781249997,
          "velocity": 0.6377952755905512
        },
        {
          "duration": 0.2686373958333377,
          "durationTicks": 196,
          "midi": 58,
          "name": "A#3",
          "ticks": 104820,
          "time": 143.66618281249998,
          "velocity": 0.6141732283464567
        },
        {
          "duration": 0.1260951041666658,
          "durationTicks": 92,
          "midi": 60,
          "name": "C4",
          "ticks": 105024,
          "time": 143.94578499999997,
          "velocity": 0.5826771653543307
        },
        {
          "duration": 0.137059895833346,
          "durationTicks": 100,
          "midi": 58,
          "name": "A#3",
          "ticks": 105120,
          "time": 144.0773625,
          "velocity": 0.5590551181102362
        },
        {
          "duration": 0.9484544791666849,
          "durationTicks": 692,
          "midi": 56,
          "name": "G#3",
          "ticks": 105224,
          "time": 144.21990479166664,
          "velocity": 0.5826771653543307
        },
        {
          "duration": 0.15898947916667794,
          "durationTicks": 116,
          "midi": 58,
          "name": "A#3",
          "ticks": 106148,
          "time": 145.48633822916665,
          "velocity": 0.6850393700787402
        },
        {
          "duration": 0.2631550000000118,
          "durationTicks": 192,
          "midi": 58,
          "name": "A#3",
          "ticks": 106352,
          "time": 145.76594041666664,
          "velocity": 0.7244094488188977
        },
        {
          "duration": 0.2686373958333661,
          "durationTicks": 196,
          "midi": 60,
          "name": "C4",
          "ticks": 106548,
          "time": 146.03457781249998,
          "velocity": 0.6377952755905512
        },
        {
          "duration": 0.24670781250000573,
          "durationTicks": 180,
          "midi": 61,
          "name": "C#4",
          "ticks": 106748,
          "time": 146.30869760416664,
          "velocity": 0.6141732283464567
        },
        {
          "duration": 0.2631550000000118,
          "durationTicks": 192,
          "midi": 58,
          "name": "A#3",
          "ticks": 106932,
          "time": 146.56088781249997,
          "velocity": 0.6850393700787402
        },
        {
          "duration": 0.3782853124999974,
          "durationTicks": 276,
          "midi": 56,
          "name": "G#3",
          "ticks": 107132,
          "time": 146.83500760416663,
          "velocity": 0.6850393700787402
        },
        {
          "duration": 0.2028486458333134,
          "durationTicks": 148,
          "midi": 68,
          "name": "G#4",
          "ticks": 107704,
          "time": 147.61899020833332,
          "velocity": 0.7244094488188977
        },
        {
          "duration": 0.274119791666692,
          "durationTicks": 200,
          "midi": 68,
          "name": "G#4",
          "ticks": 107912,
          "time": 147.90407479166663,
          "velocity": 0.7244094488188977
        },
        {
          "duration": 0.3837677083333233,
          "durationTicks": 280,
          "midi": 63,
          "name": "D#4",
          "ticks": 108116,
          "time": 148.18367697916665,
          "velocity": 0.6850393700787402
        },
        {
          "duration": 0.24670781250000573,
          "durationTicks": 180,
          "midi": 65,
          "name": "F4",
          "ticks": 108488,
          "time": 148.69353979166664,
          "velocity": 0.7637795275590551
        },
        {
          "duration": 0.2467078124999773,
          "durationTicks": 180,
          "midi": 63,
          "name": "D#4",
          "ticks": 108672,
          "time": 148.94573,
          "velocity": 0.6141732283464567
        },
        {
          "duration": 0.3453909374999853,
          "durationTicks": 252,
          "midi": 61,
          "name": "C#4",
          "ticks": 108856,
          "time": 149.19792020833333,
          "velocity": 0.6141732283464567
        },
        {
          "duration": 0.1644718749999754,
          "durationTicks": 120,
          "midi": 61,
          "name": "C#4",
          "ticks": 109236,
          "time": 149.7187478125,
          "velocity": 0.6141732283464567
        },
        {
          "duration": 0.24122541666665143,
          "durationTicks": 176,
          "midi": 61,
          "name": "C#4",
          "ticks": 109428,
          "time": 149.98190281249998,
          "velocity": 0.6141732283464567
        },
        {
          "duration": 0.2576726041666575,
          "durationTicks": 188,
          "midi": 58,
          "name": "A#3",
          "ticks": 109612,
          "time": 150.2340930208333,
          "velocity": 0.6141732283464567
        },
        {
          "duration": 0.2576726041666575,
          "durationTicks": 188,
          "midi": 61,
          "name": "C#4",
          "ticks": 109804,
          "time": 150.49724802083333,
          "velocity": 0.6850393700787402
        },
        {
          "duration": 0.2686373958333377,
          "durationTicks": 196,
          "midi": 58,
          "name": "A#3",
          "ticks": 110000,
          "time": 150.76588541666663,
          "velocity": 0.6850393700787402
        },
        {
          "duration": 0.2850845833333153,
          "durationTicks": 208,
          "midi": 61,
          "name": "C#4",
          "ticks": 110200,
          "time": 151.04000520833333,
          "velocity": 0.6850393700787402
        },
        {
          "duration": 0.27411979166663514,
          "durationTicks": 200,
          "midi": 63,
          "name": "D#4",
          "ticks": 110412,
          "time": 151.3305721875,
          "velocity": 0.6850393700787402
        },
        {
          "duration": 0.25219020833336003,
          "durationTicks": 184,
          "midi": 60,
          "name": "C4",
          "ticks": 110792,
          "time": 151.85139979166664,
          "velocity": 0.6850393700787402
        },
        {
          "duration": 0.2521902083333316,
          "durationTicks": 184,
          "midi": 58,
          "name": "A#3",
          "ticks": 110980,
          "time": 152.10907239583332,
          "velocity": 0.6141732283464567
        },
        {
          "duration": 0.10964791666665974,
          "durationTicks": 80,
          "midi": 60,
          "name": "C4",
          "ticks": 111168,
          "time": 152.36674499999998,
          "velocity": 0.5826771653543307
        },
        {
          "duration": 0.12061270833333992,
          "durationTicks": 88,
          "midi": 58,
          "name": "A#3",
          "ticks": 111252,
          "time": 152.4818753125,
          "velocity": 0.5826771653543307
        },
        {
          "duration": 0.6030635416666996,
          "durationTicks": 440,
          "midi": 56,
          "name": "G#3",
          "ticks": 111344,
          "time": 152.60797041666663,
          "velocity": 0.6141732283464567
        },
        {
          "duration": 0.15898947916664952,
          "durationTicks": 116,
          "midi": 58,
          "name": "A#3",
          "ticks": 112308,
          "time": 153.9292278125,
          "velocity": 0.6850393700787402
        },
        {
          "duration": 0.26863739583330926,
          "durationTicks": 196,
          "midi": 58,
          "name": "A#3",
          "ticks": 112492,
          "time": 154.18141802083332,
          "velocity": 0.6141732283464567
        },
        {
          "duration": 0.2686373958333377,
          "durationTicks": 196,
          "midi": 60,
          "name": "C4",
          "ticks": 112692,
          "time": 154.45553781249998,
          "velocity": 0.6141732283464567
        },
        {
          "duration": 0.2521902083333316,
          "durationTicks": 184,
          "midi": 61,
          "name": "C#4",
          "ticks": 112892,
          "time": 154.72965760416665,
          "velocity": 0.6141732283464567
        },
        {
          "duration": 0.2631549999999834,
          "durationTicks": 192,
          "midi": 58,
          "name": "A#3",
          "ticks": 113080,
          "time": 154.98733020833333,
          "velocity": 0.6850393700787402
        },
        {
          "duration": 0.3892501041666776,
          "durationTicks": 284,
          "midi": 56,
          "name": "G#3",
          "ticks": 113276,
          "time": 155.25596760416664,
          "velocity": 0.7244094488188977
        },
        {
          "duration": 0.28508458333334374,
          "durationTicks": 208,
          "midi": 63,
          "name": "D#4",
          "ticks": 113864,
          "time": 156.06187979166663,
          "velocity": 0.6141732283464567
        },
        {
          "duration": 0.1809190625000099,
          "durationTicks": 132,
          "midi": 65,
          "name": "F4",
          "ticks": 114076,
          "time": 156.35244677083332,
          "velocity": 0.7244094488188977
        },
        {
          "duration": 0.48793322916665716,
          "durationTicks": 356,
          "midi": 65,
          "name": "F4",
          "ticks": 114268,
          "time": 156.61560177083334,
          "velocity": 0.7637795275590551
        },
        {
          "duration": 0.5427571875000012,
          "durationTicks": 396,
          "midi": 63,
          "name": "D#4",
          "ticks": 114628,
          "time": 157.10901739583332,
          "velocity": 0.7244094488188977
        },
        {
          "duration": 1.2938454166666702,
          "durationTicks": 944,
          "midi": 61,
          "name": "C#4",
          "ticks": 115204,
          "time": 157.89848239583333,
          "velocity": 0.6850393700787402
        },
        {
          "duration": 0.2631550000000118,
          "durationTicks": 192,
          "midi": 63,
          "name": "D#4",
          "ticks": 116152,
          "time": 159.19781020833332,
          "velocity": 0.6850393700787402
        },
        {
          "duration": 0.2576726041666859,
          "durationTicks": 188,
          "midi": 65,
          "name": "F4",
          "ticks": 116348,
          "time": 159.46644760416663,
          "velocity": 0.7244094488188977
        },
        {
          "duration": 0.2576726041666859,
          "durationTicks": 188,
          "midi": 61,
          "name": "C#4",
          "ticks": 116540,
          "time": 159.72960260416664,
          "velocity": 0.6141732283464567
        },
        {
          "duration": 0.20833104166669614,
          "durationTicks": 152,
          "midi": 63,
          "name": "D#4",
          "ticks": 116732,
          "time": 159.99275760416663,
          "velocity": 0.6141732283464567
        },
        {
          "duration": 0.14802468749999775,
          "durationTicks": 108,
          "midi": 63,
          "name": "D#4",
          "ticks": 116936,
          "time": 160.27235979166664,
          "velocity": 0.7244094488188977
        },
        {
          "duration": 0.2631550000000118,
          "durationTicks": 192,
          "midi": 63,
          "name": "D#4",
          "ticks": 117108,
          "time": 160.50810281249997,
          "velocity": 0.7244094488188977
        },
        {
          "duration": 0.2467078124999773,
          "durationTicks": 180,
          "midi": 65,
          "name": "F4",
          "ticks": 117304,
          "time": 160.77674020833334,
          "velocity": 0.6850393700787402
        },
        {
          "duration": 0.24670781250000573,
          "durationTicks": 180,
          "midi": 63,
          "name": "D#4",
          "ticks": 117488,
          "time": 161.02893041666664,
          "velocity": 0.6850393700787402
        },
        {
          "duration": 0.2192958333333479,
          "durationTicks": 160,
          "midi": 56,
          "name": "G#3",
          "ticks": 117672,
          "time": 161.28112062499997,
          "velocity": 0.6141732283464567
        },
        {
          "duration": 0.5208276041666409,
          "durationTicks": 380,
          "midi": 56,
          "name": "G#3",
          "ticks": 117888,
          "time": 161.57717,
          "velocity": 0.7637795275590551
        },
        {
          "duration": 0.24670781250000573,
          "durationTicks": 180,
          "midi": 58,
          "name": "A#3",
          "ticks": 119040,
          "time": 163.15609999999998,
          "velocity": 0.7244094488188977
        },
        {
          "duration": 0.2631550000000118,
          "durationTicks": 192,
          "midi": 60,
          "name": "C4",
          "ticks": 119224,
          "time": 163.4082902083333,
          "velocity": 0.6377952755905512
        },
        {
          "duration": 0.2576726041666859,
          "durationTicks": 188,
          "midi": 61,
          "name": "C#4",
          "ticks": 119420,
          "time": 163.67692760416665,
          "velocity": 0.6850393700787402
        },
        {
          "duration": 0.2686373958333377,
          "durationTicks": 196,
          "midi": 58,
          "name": "A#3",
          "ticks": 119612,
          "time": 163.94008260416663,
          "velocity": 0.7637795275590551
        },
        {
          "duration": 0.2631549999999834,
          "durationTicks": 192,
          "midi": 63,
          "name": "D#4",
          "ticks": 120012,
          "time": 164.4883221875,
          "velocity": 0.6850393700787402
        },
        {
          "duration": 0.23574302083332555,
          "durationTicks": 172,
          "midi": 65,
          "name": "F4",
          "ticks": 120208,
          "time": 164.75695958333333,
          "velocity": 0.7244094488188977
        },
        {
          "duration": 0.4824508333333597,
          "durationTicks": 352,
          "midi": 63,
          "name": "D#4",
          "ticks": 120384,
          "time": 164.99818499999998,
          "velocity": 0.6850393700787402
        },
        {
          "duration": 0.1260951041666658,
          "durationTicks": 92,
          "midi": 56,
          "name": "G#3",
          "ticks": 120960,
          "time": 165.78764999999999,
          "velocity": 0.6850393700787402
        },
        {
          "duration": 0.10964791666665974,
          "durationTicks": 80,
          "midi": 58,
          "name": "A#3",
          "ticks": 121056,
          "time": 165.91922749999998,
          "velocity": 0.6850393700787402
        },
        {
          "duration": 0.10416552083333386,
          "durationTicks": 76,
          "midi": 61,
          "name": "C#4",
          "ticks": 121140,
          "time": 166.0343578125,
          "velocity": 0.6141732283464567
        },
        {
          "duration": 0.1260951041666658,
          "durationTicks": 92,
          "midi": 58,
          "name": "A#3",
          "ticks": 121220,
          "time": 166.14400572916665,
          "velocity": 0.6141732283464567
        },
        {
          "duration": 0.28508458333334374,
          "durationTicks": 208,
          "midi": 65,
          "name": "F4",
          "ticks": 121328,
          "time": 166.29203041666665,
          "velocity": 0.8110236220472441
        },
        {
          "duration": 0.36183812499999135,
          "durationTicks": 264,
          "midi": 65,
          "name": "F4",
          "ticks": 121652,
          "time": 166.73610447916664,
          "velocity": 0.8110236220472441
        },
        {
          "duration": 0.5427571875000012,
          "durationTicks": 396,
          "midi": 63,
          "name": "D#4",
          "ticks": 121920,
          "time": 167.103425,
          "velocity": 0.7244094488188977
        },
        {
          "duration": 0.09320072916665367,
          "durationTicks": 68,
          "midi": 56,
          "name": "G#3",
          "ticks": 122496,
          "time": 167.89289,
          "velocity": 0.6850393700787402
        },
        {
          "duration": 0.12061270833333992,
          "durationTicks": 88,
          "midi": 58,
          "name": "A#3",
          "ticks": 122568,
          "time": 167.99157312499997,
          "velocity": 0.6141732283464567
        },
        {
          "duration": 0.12609510416669423,
          "durationTicks": 92,
          "midi": 60,
          "name": "C4",
          "ticks": 122660,
          "time": 168.11766822916664,
          "velocity": 0.6377952755905512
        },
        {
          "duration": 0.1315775000000201,
          "durationTicks": 96,
          "midi": 58,
          "name": "A#3",
          "ticks": 122756,
          "time": 168.24924572916663,
          "velocity": 0.6141732283464567
        },
        {
          "duration": 0.3453909374999853,
          "durationTicks": 252,
          "midi": 63,
          "name": "D#4",
          "ticks": 122872,
          "time": 168.40823520833334,
          "velocity": 0.7244094488188977
        },
        {
          "duration": 0.3618381250000198,
          "durationTicks": 264,
          "midi": 63,
          "name": "D#4",
          "ticks": 123200,
          "time": 168.85779166666663,
          "velocity": 0.6850393700787402
        },
        {
          "duration": 0.3070141666666757,
          "durationTicks": 224,
          "midi": 61,
          "name": "C#4",
          "ticks": 123468,
          "time": 169.22511218749997,
          "velocity": 0.6850393700787402
        },
        {
          "duration": 0.1260951041666658,
          "durationTicks": 92,
          "midi": 60,
          "name": "C4",
          "ticks": 123696,
          "time": 169.53760874999998,
          "velocity": 0.5590551181102362
        },
        {
          "duration": 0.2905669791666412,
          "durationTicks": 212,
          "midi": 58,
          "name": "A#3",
          "ticks": 123792,
          "time": 169.66918625,
          "velocity": 0.6141732283464567
        },
        {
          "duration": 0.1206127083333115,
          "durationTicks": 88,
          "midi": 56,
          "name": "G#3",
          "ticks": 124048,
          "time": 170.02005958333334,
          "velocity": 0.6850393700787402
        },
        {
          "duration": 0.14254229166667187,
          "durationTicks": 104,
          "midi": 58,
          "name": "A#3",
          "ticks": 124140,
          "time": 170.14615468749997,
          "velocity": 0.5826771653543307
        },
        {
          "duration": 0.10416552083330544,
          "durationTicks": 76,
          "midi": 60,
          "name": "C4",
          "ticks": 124252,
          "time": 170.29966177083332,
          "velocity": 0.5826771653543307
        },
        {
          "duration": 0.11513031249998562,
          "durationTicks": 84,
          "midi": 58,
          "name": "A#3",
          "ticks": 124332,
          "time": 170.40930968749998,
          "velocity": 0.6141732283464567
        },
        {
          "duration": 0.4769684375000054,
          "durationTicks": 348,
          "midi": 61,
          "name": "C#4",
          "ticks": 124428,
          "time": 170.54088718749998,
          "velocity": 0.6850393700787402
        },
        {
          "duration": 0.27411979166663514,
          "durationTicks": 200,
          "midi": 63,
          "name": "D#4",
          "ticks": 124780,
          "time": 171.02333802083334,
          "velocity": 0.6141732283464567
        },
        {
          "duration": 0.24670781250000573,
          "durationTicks": 180,
          "midi": 60,
          "name": "C4",
          "ticks": 124984,
          "time": 171.30294020833333,
          "velocity": 0.6850393700787402
        },
        {
          "duration": 0.2576726041666859,
          "durationTicks": 188,
          "midi": 58,
          "name": "A#3",
          "ticks": 125168,
          "time": 171.55513041666663,
          "velocity": 0.5826771653543307
        },
        {
          "duration": 0.3015317708333498,
          "durationTicks": 220,
          "midi": 56,
          "name": "G#3",
          "ticks": 125360,
          "time": 171.81828541666664,
          "velocity": 0.6141732283464567
        },
        {
          "duration": 0.2631550000000118,
          "durationTicks": 192,
          "midi": 56,
          "name": "G#3",
          "ticks": 125744,
          "time": 172.34459541666664,
          "velocity": 0.6141732283464567
        },
        {
          "duration": 0.4002148958333578,
          "durationTicks": 292,
          "midi": 63,
          "name": "D#4",
          "ticks": 125940,
          "time": 172.61323281249997,
          "velocity": 0.6850393700787402
        },
        {
          "duration": 0.5372747916666469,
          "durationTicks": 392,
          "midi": 61,
          "name": "C#4",
          "ticks": 126328,
          "time": 173.14502520833332,
          "velocity": 0.6850393700787402
        },
        {
          "duration": 0.09320072916665367,
          "durationTicks": 68,
          "midi": 56,
          "name": "G#3",
          "ticks": 127116,
          "time": 174.22505718749997,
          "velocity": 0.6850393700787402
        },
        {
          "duration": 0.10416552083333386,
          "durationTicks": 76,
          "midi": 58,
          "name": "A#3",
          "ticks": 127188,
          "time": 174.32374031249998,
          "velocity": 0.6141732283464567
        },
        {
          "duration": 0.09868312500000798,
          "durationTicks": 72,
          "midi": 61,
          "name": "C#4",
          "ticks": 127268,
          "time": 174.43338822916664,
          "velocity": 0.6141732283464567
        },
        {
          "duration": 0.1315775000000201,
          "durationTicks": 96,
          "midi": 58,
          "name": "A#3",
          "ticks": 127344,
          "time": 174.53755374999997,
          "velocity": 0.6141732283464567
        },
        {
          "duration": 0.31797895833332745,
          "durationTicks": 232,
          "midi": 65,
          "name": "F4",
          "ticks": 127460,
          "time": 174.69654322916665,
          "velocity": 0.8110236220472441
        },
        {
          "duration": 0.35635572916666547,
          "durationTicks": 260,
          "midi": 65,
          "name": "F4",
          "ticks": 127780,
          "time": 175.13513489583332,
          "velocity": 0.8110236220472441
        },
        {
          "duration": 0.5646867708333048,
          "durationTicks": 412,
          "midi": 63,
          "name": "D#4",
          "ticks": 128044,
          "time": 175.49697302083334,
          "velocity": 0.7244094488188977
        },
        {
          "duration": 0.09868312500000798,
          "durationTicks": 72,
          "midi": 56,
          "name": "G#3",
          "ticks": 128620,
          "time": 176.28643802083332,
          "velocity": 0.6850393700787402
        },
        {
          "duration": 0.10964791666668816,
          "durationTicks": 80,
          "midi": 58,
          "name": "A#3",
          "ticks": 128696,
          "time": 176.39060354166665,
          "velocity": 0.6141732283464567
        },
        {
          "duration": 0.1315774999999917,
          "durationTicks": 96,
          "midi": 60,
          "name": "C4",
          "ticks": 128780,
          "time": 176.50573385416664,
          "velocity": 0.5826771653543307
        },
        {
          "duration": 0.14802468749999775,
          "durationTicks": 108,
          "midi": 58,
          "name": "A#3",
          "ticks": 128880,
          "time": 176.64279374999998,
          "velocity": 0.6850393700787402
        },
        {
          "duration": 0.4769684375000054,
          "durationTicks": 348,
          "midi": 68,
          "name": "G#4",
          "ticks": 129016,
          "time": 176.82919520833332,
          "velocity": 0.7244094488188977
        },
        {
          "duration": 0.27411979166663514,
          "durationTicks": 200,
          "midi": 60,
          "name": "C4",
          "ticks": 129388,
          "time": 177.33905802083333,
          "velocity": 0.6377952755905512
        },
        {
          "duration": 0.24670781250000573,
          "durationTicks": 180,
          "midi": 61,
          "name": "C#4",
          "ticks": 129592,
          "time": 177.61866020833332,
          "velocity": 0.6850393700787402
        },
        {
          "duration": 0.12061270833333992,
          "durationTicks": 88,
          "midi": 60,
          "name": "C4",
          "ticks": 129776,
          "time": 177.87085041666663,
          "velocity": 0.3858267716535433
        },
        {
          "duration": 0.2631550000000118,
          "durationTicks": 192,
          "midi": 58,
          "name": "A#3",
          "ticks": 129868,
          "time": 177.99694552083332,
          "velocity": 0.6850393700787402
        },
        {
          "duration": 0.10964791666665974,
          "durationTicks": 80,
          "midi": 56,
          "name": "G#3",
          "ticks": 130144,
          "time": 178.37523083333332,
          "velocity": 0.6850393700787402
        },
        {
          "duration": 0.13705989583331757,
          "durationTicks": 100,
          "midi": 58,
          "name": "A#3",
          "ticks": 130228,
          "time": 178.49036114583333,
          "velocity": 0.6141732283464567
        },
        {
          "duration": 0.1315775000000201,
          "durationTicks": 96,
          "midi": 60,
          "name": "C4",
          "ticks": 130340,
          "time": 178.64386822916663,
          "velocity": 0.5826771653543307
        },
        {
          "duration": 0.16447187500000382,
          "durationTicks": 120,
          "midi": 58,
          "name": "A#3",
          "ticks": 130440,
          "time": 178.78092812499997,
          "velocity": 0.6850393700787402
        },
        {
          "duration": 0.5208276041666409,
          "durationTicks": 380,
          "midi": 61,
          "name": "C#4",
          "ticks": 130572,
          "time": 178.96184718749998,
          "velocity": 0.7244094488188977
        },
        {
          "duration": 0.24122541666665143,
          "durationTicks": 176,
          "midi": 63,
          "name": "D#4",
          "ticks": 130956,
          "time": 179.48815718749998,
          "velocity": 0.6141732283464567
        },
        {
          "duration": 0.44407406249999326,
          "durationTicks": 324,
          "midi": 60,
          "name": "C4",
          "ticks": 131136,
          "time": 179.73486499999999,
          "velocity": 0.6377952755905512
        },
        {
          "duration": 0.13705989583331757,
          "durationTicks": 100,
          "midi": 58,
          "name": "A#3",
          "ticks": 131464,
          "time": 180.18442145833333,
          "velocity": 0.5590551181102362
        },
        {
          "duration": 0.27411979166666356,
          "durationTicks": 200,
          "midi": 56,
          "name": "G#3",
          "ticks": 131568,
          "time": 180.32696374999998,
          "velocity": 0.6141732283464567
        },
        {
          "duration": 0.24122541666667985,
          "durationTicks": 176,
          "midi": 56,
          "name": "G#3",
          "ticks": 131900,
          "time": 180.78200260416665,
          "velocity": 0.7244094488188977
        },
        {
          "duration": 0.2631550000000118,
          "durationTicks": 192,
          "midi": 63,
          "name": "D#4",
          "ticks": 132084,
          "time": 181.03419281249998,
          "velocity": 0.7244094488188977
        },
        {
          "duration": 0.23026062499999966,
          "durationTicks": 168,
          "midi": 61,
          "name": "C#4",
          "ticks": 132280,
          "time": 181.30283020833332,
          "velocity": 0.6062992125984252
        },
        {
          "duration": 0.6140283333333514,
          "durationTicks": 448,
          "midi": 61,
          "name": "C#4",
          "ticks": 132480,
          "time": 181.57694999999998,
          "velocity": 0.6850393700787402
        },
        {
          "duration": 0.1260951041666658,
          "durationTicks": 92,
          "midi": 56,
          "name": "G#3",
          "ticks": 133248,
          "time": 182.62956999999997,
          "velocity": 0.6850393700787402
        },
        {
          "duration": 0.10964791666663132,
          "durationTicks": 80,
          "midi": 58,
          "name": "A#3",
          "ticks": 133344,
          "time": 182.7611475,
          "velocity": 0.6850393700787402
        },
        {
          "duration": 0.10416552083333386,
          "durationTicks": 76,
          "midi": 61,
          "name": "C#4",
          "ticks": 133428,
          "time": 182.87627781249998,
          "velocity": 0.6141732283464567
        },
        {
          "duration": 0.12609510416669423,
          "durationTicks": 92,
          "midi": 58,
          "name": "A#3",
          "ticks": 133508,
          "time": 182.98592572916664,
          "velocity": 0.6141732283464567
        },
        {
          "duration": 0.28508458333334374,
          "durationTicks": 208,
          "midi": 65,
          "name": "F4",
          "ticks": 133616,
          "time": 183.13395041666664,
          "velocity": 0.8110236220472441
        },
        {
          "duration": 0.3618381250000198,
          "durationTicks": 264,
          "midi": 65,
          "name": "F4",
          "ticks": 133940,
          "time": 183.57802447916663,
          "velocity": 0.8110236220472441
        },
        {
          "duration": 0.5427571875000012,
          "durationTicks": 396,
          "midi": 63,
          "name": "D#4",
          "ticks": 134208,
          "time": 183.94534499999997,
          "velocity": 0.7244094488188977
        },
        {
          "duration": 0.09320072916665367,
          "durationTicks": 68,
          "midi": 56,
          "name": "G#3",
          "ticks": 134784,
          "time": 184.73480999999998,
          "velocity": 0.6850393700787402
        },
        {
          "duration": 0.12061270833333992,
          "durationTicks": 88,
          "midi": 58,
          "name": "A#3",
          "ticks": 134856,
          "time": 184.833493125,
          "velocity": 0.6141732283464567
        },
        {
          "duration": 0.12609510416669423,
          "durationTicks": 92,
          "midi": 60,
          "name": "C4",
          "ticks": 134948,
          "time": 184.95958822916663,
          "velocity": 0.6377952755905512
        },
        {
          "duration": 0.1315774999999917,
          "durationTicks": 96,
          "midi": 58,
          "name": "A#3",
          "ticks": 135044,
          "time": 185.09116572916665,
          "velocity": 0.6141732283464567
        },
        {
          "duration": 0.3453909374999853,
          "durationTicks": 252,
          "midi": 63,
          "name": "D#4",
          "ticks": 135160,
          "time": 185.25015520833333,
          "velocity": 0.7244094488188977
        },
        {
          "duration": 0.36183812499999135,
          "durationTicks": 264,
          "midi": 63,
          "name": "D#4",
          "ticks": 135488,
          "time": 185.69971166666664,
          "velocity": 0.6850393700787402
        },
        {
          "duration": 0.30701416666664727,
          "durationTicks": 224,
          "midi": 61,
          "name": "C#4",
          "ticks": 135756,
          "time": 186.0670321875,
          "velocity": 0.6850393700787402
        },
        {
          "duration": 0.12609510416663738,
          "durationTicks": 92,
          "midi": 60,
          "name": "C4",
          "ticks": 135984,
          "time": 186.37952875,
          "velocity": 0.5590551181102362
        },
        {
          "duration": 0.2905669791666412,
          "durationTicks": 212,
          "midi": 58,
          "name": "A#3",
          "ticks": 136080,
          "time": 186.51110624999998,
          "velocity": 0.6141732283464567
        },
        {
          "duration": 0.1206127083333115,
          "durationTicks": 88,
          "midi": 56,
          "name": "G#3",
          "ticks": 136336,
          "time": 186.86197958333332,
          "velocity": 0.6850393700787402
        },
        {
          "duration": 0.14254229166664345,
          "durationTicks": 104,
          "midi": 58,
          "name": "A#3",
          "ticks": 136428,
          "time": 186.9880746875,
          "velocity": 0.5826771653543307
        },
        {
          "duration": 0.10416552083333386,
          "durationTicks": 76,
          "midi": 60,
          "name": "C4",
          "ticks": 136540,
          "time": 187.1415817708333,
          "velocity": 0.5826771653543307
        },
        {
          "duration": 0.11513031250001404,
          "durationTicks": 84,
          "midi": 58,
          "name": "A#3",
          "ticks": 136620,
          "time": 187.25122968749997,
          "velocity": 0.6141732283464567
        },
        {
          "duration": 0.47696843749997697,
          "durationTicks": 348,
          "midi": 61,
          "name": "C#4",
          "ticks": 136716,
          "time": 187.3828071875,
          "velocity": 0.6850393700787402
        },
        {
          "duration": 0.27411979166666356,
          "durationTicks": 200,
          "midi": 63,
          "name": "D#4",
          "ticks": 137068,
          "time": 187.86525802083332,
          "velocity": 0.6141732283464567
        },
        {
          "duration": 0.24670781250000573,
          "durationTicks": 180,
          "midi": 60,
          "name": "C4",
          "ticks": 137272,
          "time": 188.1448602083333,
          "velocity": 0.6850393700787402
        },
        {
          "duration": 0.2576726041666859,
          "durationTicks": 188,
          "midi": 58,
          "name": "A#3",
          "ticks": 137456,
          "time": 188.39705041666664,
          "velocity": 0.5826771653543307
        },
        {
          "duration": 0.3015317708333498,
          "durationTicks": 220,
          "midi": 56,
          "name": "G#3",
          "ticks": 137648,
          "time": 188.66020541666663,
          "velocity": 0.6141732283464567
        },
        {
          "duration": 0.2631550000000118,
          "durationTicks": 192,
          "midi": 56,
          "name": "G#3",
          "ticks": 138032,
          "time": 189.18651541666662,
          "velocity": 0.6141732283464567
        },
        {
          "duration": 0.40021489583332936,
          "durationTicks": 292,
          "midi": 63,
          "name": "D#4",
          "ticks": 138228,
          "time": 189.4551528125,
          "velocity": 0.6850393700787402
        },
        {
          "duration": 0.5372747916666754,
          "durationTicks": 392,
          "midi": 61,
          "name": "C#4",
          "ticks": 138616,
          "time": 189.9869452083333,
          "velocity": 0.6850393700787402
        },
        {
          "duration": 0.09320072916665367,
          "durationTicks": 68,
          "midi": 56,
          "name": "G#3",
          "ticks": 139404,
          "time": 191.0669771875,
          "velocity": 0.6850393700787402
        },
        {
          "duration": 0.10416552083336228,
          "durationTicks": 76,
          "midi": 58,
          "name": "A#3",
          "ticks": 139476,
          "time": 191.16566031249997,
          "velocity": 0.6141732283464567
        },
        {
          "duration": 0.09868312500000798,
          "durationTicks": 72,
          "midi": 61,
          "name": "C#4",
          "ticks": 139556,
          "time": 191.27530822916663,
          "velocity": 0.6141732283464567
        },
        {
          "duration": 0.1315774999999917,
          "durationTicks": 96,
          "midi": 58,
          "name": "A#3",
          "ticks": 139632,
          "time": 191.37947375,
          "velocity": 0.6141732283464567
        },
        {
          "duration": 0.3179789583333559,
          "durationTicks": 232,
          "midi": 65,
          "name": "F4",
          "ticks": 139748,
          "time": 191.53846322916664,
          "velocity": 0.8110236220472441
        },
        {
          "duration": 0.35635572916663705,
          "durationTicks": 260,
          "midi": 65,
          "name": "F4",
          "ticks": 140068,
          "time": 191.97705489583333,
          "velocity": 0.8110236220472441
        },
        {
          "duration": 0.5646867708333048,
          "durationTicks": 412,
          "midi": 63,
          "name": "D#4",
          "ticks": 140332,
          "time": 192.33889302083332,
          "velocity": 0.7244094488188977
        },
        {
          "duration": 0.09868312499997955,
          "durationTicks": 72,
          "midi": 56,
          "name": "G#3",
          "ticks": 140908,
          "time": 193.12835802083333,
          "velocity": 0.6850393700787402
        },
        {
          "duration": 0.10964791666668816,
          "durationTicks": 80,
          "midi": 58,
          "name": "A#3",
          "ticks": 140984,
          "time": 193.23252354166664,
          "velocity": 0.6141732283464567
        },
        {
          "duration": 0.1315775000000201,
          "durationTicks": 96,
          "midi": 60,
          "name": "C4",
          "ticks": 141068,
          "time": 193.34765385416662,
          "velocity": 0.5826771653543307
        },
        {
          "duration": 0.14802468749999775,
          "durationTicks": 108,
          "midi": 58,
          "name": "A#3",
          "ticks": 141168,
          "time": 193.48471374999997,
          "velocity": 0.6850393700787402
        },
        {
          "duration": 0.47696843749997697,
          "durationTicks": 348,
          "midi": 68,
          "name": "G#4",
          "ticks": 141304,
          "time": 193.67111520833333,
          "velocity": 0.7244094488188977
        },
        {
          "duration": 0.27411979166666356,
          "durationTicks": 200,
          "midi": 60,
          "name": "C4",
          "ticks": 141676,
          "time": 194.18097802083332,
          "velocity": 0.6377952755905512
        },
        {
          "duration": 0.24670781250000573,
          "durationTicks": 180,
          "midi": 61,
          "name": "C#4",
          "ticks": 141880,
          "time": 194.4605802083333,
          "velocity": 0.6850393700787402
        },
        {
          "duration": 0.12061270833333992,
          "durationTicks": 88,
          "midi": 60,
          "name": "C4",
          "ticks": 142064,
          "time": 194.71277041666664,
          "velocity": 0.3858267716535433
        },
        {
          "duration": 0.2631550000000118,
          "durationTicks": 192,
          "midi": 58,
          "name": "A#3",
          "ticks": 142156,
          "time": 194.8388655208333,
          "velocity": 0.6850393700787402
        },
        {
          "duration": 0.10964791666663132,
          "durationTicks": 80,
          "midi": 56,
          "name": "G#3",
          "ticks": 142432,
          "time": 195.21715083333333,
          "velocity": 0.6850393700787402
        },
        {
          "duration": 0.13705989583331757,
          "durationTicks": 100,
          "midi": 58,
          "name": "A#3",
          "ticks": 142516,
          "time": 195.33228114583332,
          "velocity": 0.6141732283464567
        },
        {
          "duration": 0.1315774999999917,
          "durationTicks": 96,
          "midi": 60,
          "name": "C4",
          "ticks": 142628,
          "time": 195.48578822916664,
          "velocity": 0.5826771653543307
        },
        {
          "duration": 0.1644718749999754,
          "durationTicks": 120,
          "midi": 58,
          "name": "A#3",
          "ticks": 142728,
          "time": 195.622848125,
          "velocity": 0.6850393700787402
        },
        {
          "duration": 0.5208276041666693,
          "durationTicks": 380,
          "midi": 61,
          "name": "C#4",
          "ticks": 142860,
          "time": 195.80376718749997,
          "velocity": 0.7244094488188977
        },
        {
          "duration": 0.24122541666667985,
          "durationTicks": 176,
          "midi": 63,
          "name": "D#4",
          "ticks": 143244,
          "time": 196.33007718749997,
          "velocity": 0.6141732283464567
        },
        {
          "duration": 0.44407406249999326,
          "durationTicks": 324,
          "midi": 60,
          "name": "C4",
          "ticks": 143424,
          "time": 196.57678499999997,
          "velocity": 0.6377952755905512
        },
        {
          "duration": 0.13705989583331757,
          "durationTicks": 100,
          "midi": 58,
          "name": "A#3",
          "ticks": 143752,
          "time": 197.02634145833332,
          "velocity": 0.5590551181102362
        },
        {
          "duration": 0.27411979166663514,
          "durationTicks": 200,
          "midi": 56,
          "name": "G#3",
          "ticks": 143856,
          "time": 197.16888375,
          "velocity": 0.6141732283464567
        },
        {
          "duration": 0.24122541666667985,
          "durationTicks": 176,
          "midi": 56,
          "name": "G#3",
          "ticks": 144188,
          "time": 197.62392260416664,
          "velocity": 0.7244094488188977
        },
        {
          "duration": 0.2631550000000118,
          "durationTicks": 192,
          "midi": 63,
          "name": "D#4",
          "ticks": 144372,
          "time": 197.87611281249997,
          "velocity": 0.7244094488188977
        },
        {
          "duration": 0.23026062499999966,
          "durationTicks": 168,
          "midi": 61,
          "name": "C#4",
          "ticks": 144568,
          "time": 198.14475020833333,
          "velocity": 0.6062992125984252
        },
        {
          "duration": 0.6140283333333514,
          "durationTicks": 448,
          "midi": 61,
          "name": "C#4",
          "ticks": 144768,
          "time": 198.41886999999997,
          "velocity": 0.6850393700787402
        },
        {
          "duration": 0.12609510416663738,
          "durationTicks": 92,
          "midi": 56,
          "name": "G#3",
          "ticks": 145536,
          "time": 199.47149,
          "velocity": 0.6850393700787402
        },
        {
          "duration": 0.10964791666665974,
          "durationTicks": 80,
          "midi": 58,
          "name": "A#3",
          "ticks": 145632,
          "time": 199.60306749999998,
          "velocity": 0.6850393700787402
        },
        {
          "duration": 0.10416552083336228,
          "durationTicks": 76,
          "midi": 61,
          "name": "C#4",
          "ticks": 145716,
          "time": 199.71819781249997,
          "velocity": 0.6141732283464567
        },
        {
          "duration": 0.12609510416669423,
          "durationTicks": 92,
          "midi": 58,
          "name": "A#3",
          "ticks": 145796,
          "time": 199.82784572916663,
          "velocity": 0.6141732283464567
        },
        {
          "duration": 0.28508458333334374,
          "durationTicks": 208,
          "midi": 65,
          "name": "F4",
          "ticks": 145904,
          "time": 199.97587041666662,
          "velocity": 0.8110236220472441
        },
        {
          "duration": 0.36183812499999135,
          "durationTicks": 264,
          "midi": 65,
          "name": "F4",
          "ticks": 146228,
          "time": 200.41994447916665,
          "velocity": 0.7952755905511811
        },
        {
          "duration": 0.5427571875000012,
          "durationTicks": 396,
          "midi": 63,
          "name": "D#4",
          "ticks": 146496,
          "time": 200.787265,
          "velocity": 0.6850393700787402
        },
        {
          "duration": 0.09320072916665367,
          "durationTicks": 68,
          "midi": 56,
          "name": "G#3",
          "ticks": 147072,
          "time": 201.57672999999997,
          "velocity": 0.6062992125984252
        },
        {
          "duration": 0.12061270833333992,
          "durationTicks": 88,
          "midi": 58,
          "name": "A#3",
          "ticks": 147144,
          "time": 201.67541312499998,
          "velocity": 0.5354330708661418
        },
        {
          "duration": 0.1260951041666658,
          "durationTicks": 92,
          "midi": 60,
          "name": "C4",
          "ticks": 147236,
          "time": 201.80150822916664,
          "velocity": 0.5433070866141733
        },
        {
          "duration": 0.1315774999999917,
          "durationTicks": 96,
          "midi": 58,
          "name": "A#3",
          "ticks": 147332,
          "time": 201.93308572916663,
          "velocity": 0.5196850393700787
        },
        {
          "duration": 0.3453909375000137,
          "durationTicks": 252,
          "midi": 63,
          "name": "D#4",
          "ticks": 147448,
          "time": 202.0920752083333,
          "velocity": 0.6062992125984252
        },
        {
          "duration": 0.36183812499999135,
          "durationTicks": 264,
          "midi": 63,
          "name": "D#4",
          "ticks": 147776,
          "time": 202.54163166666663,
          "velocity": 0.5433070866141733
        },
        {
          "duration": 0.30701416666664727,
          "durationTicks": 224,
          "midi": 61,
          "name": "C#4",
          "ticks": 148044,
          "time": 202.90895218749998,
          "velocity": 0.5275590551181102
        },
        {
          "duration": 0.1260951041666658,
          "durationTicks": 92,
          "midi": 60,
          "name": "C4",
          "ticks": 148272,
          "time": 203.22144874999998,
          "velocity": 0.4094488188976378
        },
        {
          "duration": 0.2905669791666696,
          "durationTicks": 212,
          "midi": 58,
          "name": "A#3",
          "ticks": 148368,
          "time": 203.35302624999997,
          "velocity": 0.44881889763779526
        },
        {
          "duration": 0.1206127083333115,
          "durationTicks": 88,
          "midi": 56,
          "name": "G#3",
          "ticks": 148624,
          "time": 203.7038995833333,
          "velocity": 0.48031496062992124
        },
        {
          "duration": 0.14254229166667187,
          "durationTicks": 104,
          "midi": 58,
          "name": "A#3",
          "ticks": 148716,
          "time": 203.82999468749998,
          "velocity": 0.3937007874015748
        },
        {
          "duration": 0.10416552083330544,
          "durationTicks": 76,
          "midi": 60,
          "name": "C4",
          "ticks": 148828,
          "time": 203.98350177083333,
          "velocity": 0.3858267716535433
        },
        {
          "duration": 0.11513031249998562,
          "durationTicks": 84,
          "midi": 58,
          "name": "A#3",
          "ticks": 148908,
          "time": 204.0931496875,
          "velocity": 0.4094488188976378
        },
        {
          "duration": 0.4769684375000054,
          "durationTicks": 348,
          "midi": 61,
          "name": "C#4",
          "ticks": 149004,
          "time": 204.22472718749998,
          "velocity": 0.4566929133858268
        },
        {
          "duration": 0.27411979166666356,
          "durationTicks": 200,
          "midi": 63,
          "name": "D#4",
          "ticks": 149356,
          "time": 204.7071780208333,
          "velocity": 0.3779527559055118
        },
        {
          "duration": 0.24670781250000573,
          "durationTicks": 180,
          "midi": 60,
          "name": "C4",
          "ticks": 149560,
          "time": 204.98678020833333,
          "velocity": 0.4094488188976378
        },
        {
          "duration": 0.2576726041666859,
          "durationTicks": 188,
          "midi": 58,
          "name": "A#3",
          "ticks": 149744,
          "time": 205.23897041666663,
          "velocity": 0.33070866141732286
        },
        {
          "duration": 0.3015317708333214,
          "durationTicks": 220,
          "midi": 56,
          "name": "G#3",
          "ticks": 149936,
          "time": 205.50212541666664,
          "velocity": 0.33070866141732286
        },
        {
          "duration": 0.2631549999999834,
          "durationTicks": 192,
          "midi": 56,
          "name": "G#3",
          "ticks": 150320,
          "time": 206.02843541666664,
          "velocity": 0.30708661417322836
        },
        {
          "duration": 0.4002148958333578,
          "durationTicks": 292,
          "midi": 63,
          "name": "D#4",
          "ticks": 150516,
          "time": 206.29707281249998,
          "velocity": 0.33858267716535434
        },
        {
          "duration": 0.5372747916666469,
          "durationTicks": 392,
          "midi": 61,
          "name": "C#4",
          "ticks": 150904,
          "time": 206.82886520833333,
          "velocity": 0.2992125984251969
        },
        {
          "duration": 0.09320072916665367,
          "durationTicks": 68,
          "midi": 56,
          "name": "G#3",
          "ticks": 151692,
          "time": 207.90889718749997,
          "velocity": 0.2440944881889764
        },
        {
          "duration": 0.10416552083333386,
          "durationTicks": 76,
          "midi": 58,
          "name": "A#3",
          "ticks": 151764,
          "time": 208.00758031249998,
          "velocity": 0.2047244094488189
        },
        {
          "duration": 0.09868312499997955,
          "durationTicks": 72,
          "midi": 61,
          "name": "C#4",
          "ticks": 151844,
          "time": 208.11722822916664,
          "velocity": 0.1968503937007874
        },
        {
          "duration": 0.1315774999999917,
          "durationTicks": 96,
          "midi": 58,
          "name": "A#3",
          "ticks": 151920,
          "time": 208.22139374999998,
          "velocity": 0.1968503937007874
        },
        {
          "duration": 0.3179789583333559,
          "durationTicks": 232,
          "midi": 65,
          "name": "F4",
          "ticks": 152036,
          "time": 208.38038322916663,
          "velocity": 0.2755905511811024
        },
        {
          "duration": 0.35635572916666547,
          "durationTicks": 260,
          "midi": 65,
          "name": "F4",
          "ticks": 152356,
          "time": 208.81897489583332,
          "velocity": 0.2440944881889764
        },
        {
          "duration": 0.5646867708333332,
          "durationTicks": 412,
          "midi": 63,
          "name": "D#4",
          "ticks": 152620,
          "time": 209.1808130208333,
          "velocity": 0.18110236220472442
        },
        {
          "duration": 0.09868312500000798,
          "durationTicks": 72,
          "midi": 56,
          "name": "G#3",
          "ticks": 153196,
          "time": 209.97027802083332,
          "velocity": 0.12598425196850394
        },
        {
          "duration": 0.10964791666668816,
          "durationTicks": 80,
          "midi": 58,
          "name": "A#3",
          "ticks": 153272,
          "time": 210.07444354166662,
          "velocity": 0.09448818897637795
        },
        {
          "duration": 0.1315774999999917,
          "durationTicks": 96,
          "midi": 60,
          "name": "C4",
          "ticks": 153356,
          "time": 210.18957385416664,
          "velocity": 0.07874015748031496
        },
        {
          "duration": 0.14802468749999775,
          "durationTicks": 108,
          "midi": 58,
          "name": "A#3",
          "ticks": 153456,
          "time": 210.32663374999998,
          "velocity": 0.10236220472440945
        },
        {
          "duration": 0.4769684375000054,
          "durationTicks": 348,
          "midi": 68,
          "name": "G#4",
          "ticks": 153592,
          "time": 210.51303520833332,
          "velocity": 0.10236220472440945
        },
        {
          "duration": 0.27411979166666356,
          "durationTicks": 200,
          "midi": 60,
          "name": "C4",
          "ticks": 153964,
          "time": 211.0228980208333,
          "velocity": 0.05511811023622047
        },
        {
          "duration": 0.24670781250000573,
          "durationTicks": 180,
          "midi": 61,
          "name": "C#4",
          "ticks": 154168,
          "time": 211.30250020833333,
          "velocity": 0.047244094488188976
        },
        {
          "duration": 0.12061270833333992,
          "durationTicks": 88,
          "midi": 60,
          "name": "C4",
          "ticks": 154352,
          "time": 211.55469041666663,
          "velocity": 0.007874015748031496
        },
        {
          "duration": 0.2631549999999834,
          "durationTicks": 192,
          "midi": 58,
          "name": "A#3",
          "ticks": 154444,
          "time": 211.68078552083333,
          "velocity": 0.023622047244094488
        },
        {
          "duration": 0.10964791666665974,
          "durationTicks": 80,
          "midi": 56,
          "name": "G#3",
          "ticks": 154720,
          "time": 212.05907083333332,
          "velocity": 0.007874015748031496
        },
        {
          "duration": 0.13705989583331757,
          "durationTicks": 100,
          "midi": 58,
          "name": "A#3",
          "ticks": 154804,
          "time": 212.1742011458333,
          "velocity": 0.007874015748031496
        },
        {
          "duration": 0.1315774999999917,
          "durationTicks": 96,
          "midi": 60,
          "name": "C4",
          "ticks": 154916,
          "time": 212.32770822916663,
          "velocity": 0.007874015748031496
        },
        {
          "duration": 0.16447187500000382,
          "durationTicks": 120,
          "midi": 58,
          "name": "A#3",
          "ticks": 155016,
          "time": 212.46476812499998,
          "velocity": 0.007874015748031496
        },
        {
          "duration": 0.5208276041666409,
          "durationTicks": 380,
          "midi": 61,
          "name": "C#4",
          "ticks": 155148,
          "time": 212.6456871875,
          "velocity": 0.007874015748031496
        },
        {
          "duration": 0.24122541666665143,
          "durationTicks": 176,
          "midi": 63,
          "name": "D#4",
          "ticks": 155532,
          "time": 213.17199718749998,
          "velocity": 0.007874015748031496
        },
        {
          "duration": 0.44407406249999326,
          "durationTicks": 324,
          "midi": 60,
          "name": "C4",
          "ticks": 155712,
          "time": 213.418705,
          "velocity": 0.007874015748031496
        },
        {
          "duration": 0.13705989583331757,
          "durationTicks": 100,
          "midi": 58,
          "name": "A#3",
          "ticks": 156040,
          "time": 213.8682614583333,
          "velocity": 0.007874015748031496
        },
        {
          "duration": 0.27411979166666356,
          "durationTicks": 200,
          "midi": 56,
          "name": "G#3",
          "ticks": 156144,
          "time": 214.01080374999998,
          "velocity": 0.007874015748031496
        },
        {
          "duration": 0.06578874999999584,
          "durationTicks": 48,
          "midi": 56,
          "name": "G#3",
          "ticks": 156476,
          "time": 214.46584260416662,
          "velocity": 0.007874015748031496
        }
      ],
      "endOfTrackTicks": 158208
    },
    {
      "channel": 4,
      "controlChanges": {
        "1": [
          {
            "number": 1,
            "ticks": 17288,
            "time": 23.694914791666665,
            "value": 0
          }
        ],
        "7": [
          {
            "number": 7,
            "ticks": 2012,
            "time": 2.757645104166666,
            "value": 0.6299212598425197
          }
        ],
        "10": [
          {
            "number": 10,
            "ticks": 2012,
            "time": 2.757645104166666,
            "value": 0.6141732283464567
          }
        ],
        "11": [
          {
            "number": 11,
            "ticks": 2012,
            "time": 2.757645104166666,
            "value": 1
          }
        ],
        "91": [
          {
            "number": 91,
            "ticks": 2016,
            "time": 2.7631274999999995,
            "value": 0.3543307086614173
          }
        ],
        "93": [
          {
            "number": 93,
            "ticks": 2016,
            "time": 2.7631274999999995,
            "value": 0
          }
        ]
      },
      "pitchBends": [
        {
          "ticks": 17288,
          "time": 23.694914791666665,
          "value": 0
        }
      ],
      "instrument": {
        "family": "pipe",
        "number": 72,
        "name": "piccolo"
      },
      "name": "PICCOLO",
      "notes": [
        {
          "duration": 0.2412254166666692,
          "durationTicks": 176,
          "midi": 58,
          "name": "A#3",
          "ticks": 17284,
          "time": 23.68943239583333,
          "velocity": 0.5669291338582677
        },
        {
          "duration": 0.25767260416666815,
          "durationTicks": 188,
          "midi": 60,
          "name": "C4",
          "ticks": 17460,
          "time": 23.930657812499998,
          "velocity": 0.4566929133858268
        },
        {
          "duration": 0.2686373958333306,
          "durationTicks": 196,
          "midi": 61,
          "name": "C#4",
          "ticks": 17648,
          "time": 24.188330416666666,
          "velocity": 0.5275590551181102
        },
        {
          "duration": 0.2686373958333341,
          "durationTicks": 196,
          "midi": 61,
          "name": "C#4",
          "ticks": 17848,
          "time": 24.46245020833333,
          "velocity": 0.5275590551181102
        },
        {
          "duration": 0.2741197916666671,
          "durationTicks": 200,
          "midi": 63,
          "name": "D#4",
          "ticks": 18044,
          "time": 24.731087604166664,
          "velocity": 0.4566929133858268
        },
        {
          "duration": 0.35635572916666547,
          "durationTicks": 260,
          "midi": 60,
          "name": "C4",
          "ticks": 18248,
          "time": 25.010689791666664,
          "velocity": 0.5275590551181102
        },
        {
          "duration": 0.1754366666666627,
          "durationTicks": 128,
          "midi": 58,
          "name": "A#3",
          "ticks": 18512,
          "time": 25.372527916666666,
          "velocity": 0.4566929133858268
        },
        {
          "duration": 2.039451249999999,
          "durationTicks": 1488,
          "midi": 56,
          "name": "G#3",
          "ticks": 18640,
          "time": 25.54796458333333,
          "velocity": 0.3543307086614173
        },
        {
          "duration": 0.2631549999999976,
          "durationTicks": 192,
          "midi": 58,
          "name": "A#3",
          "ticks": 20144,
          "time": 27.609345416666667,
          "velocity": 0.4251968503937008
        },
        {
          "duration": 0.26315500000000114,
          "durationTicks": 192,
          "midi": 58,
          "name": "A#3",
          "ticks": 20340,
          "time": 27.877982812499997,
          "velocity": 0.5275590551181102
        },
        {
          "duration": 0.2741197916666671,
          "durationTicks": 200,
          "midi": 60,
          "name": "C4",
          "ticks": 20532,
          "time": 28.1411378125,
          "velocity": 0.4566929133858268
        },
        {
          "duration": 0.2631549999999976,
          "durationTicks": 192,
          "midi": 61,
          "name": "C#4",
          "ticks": 20732,
          "time": 28.415257604166666,
          "velocity": 0.5669291338582677
        },
        {
          "duration": 0.5208276041666657,
          "durationTicks": 380,
          "midi": 58,
          "name": "A#3",
          "ticks": 20924,
          "time": 28.678412604166663,
          "velocity": 0.5275590551181102
        },
        {
          "duration": 0.2576726041666646,
          "durationTicks": 188,
          "midi": 56,
          "name": "G#3",
          "ticks": 21308,
          "time": 29.204722604166665,
          "velocity": 0.5275590551181102
        },
        {
          "duration": 0.5263099999999987,
          "durationTicks": 384,
          "midi": 68,
          "name": "G#4",
          "ticks": 21496,
          "time": 29.46239520833333,
          "velocity": 0.6062992125984252
        },
        {
          "duration": 0.2631549999999976,
          "durationTicks": 192,
          "midi": 68,
          "name": "G#4",
          "ticks": 21888,
          "time": 29.99967,
          "velocity": 0.6062992125984252
        },
        {
          "duration": 1.5570004166666678,
          "durationTicks": 1136,
          "midi": 63,
          "name": "D#4",
          "ticks": 22080,
          "time": 30.262824999999996,
          "velocity": 0.4566929133858268
        },
        {
          "duration": 0.2686373958333306,
          "durationTicks": 196,
          "midi": 58,
          "name": "A#3",
          "ticks": 23228,
          "time": 31.836272604166666,
          "velocity": 0.5275590551181102
        },
        {
          "duration": 0.2631549999999976,
          "durationTicks": 192,
          "midi": 58,
          "name": "A#3",
          "ticks": 23428,
          "time": 32.11039239583333,
          "velocity": 0.4566929133858268
        },
        {
          "duration": 0.2686373958333377,
          "durationTicks": 196,
          "midi": 60,
          "name": "C4",
          "ticks": 23620,
          "time": 32.37354739583333,
          "velocity": 0.5275590551181102
        },
        {
          "duration": 0.27411979166666356,
          "durationTicks": 200,
          "midi": 61,
          "name": "C#4",
          "ticks": 23816,
          "time": 32.642184791666665,
          "velocity": 0.5275590551181102
        },
        {
          "duration": 0.2576726041666646,
          "durationTicks": 188,
          "midi": 58,
          "name": "A#3",
          "ticks": 24020,
          "time": 32.92178697916666,
          "velocity": 0.5275590551181102
        },
        {
          "duration": 0.2631550000000047,
          "durationTicks": 192,
          "midi": 61,
          "name": "C#4",
          "ticks": 24208,
          "time": 33.179459583333326,
          "velocity": 0.5275590551181102
        },
        {
          "duration": 0.5208276041666622,
          "durationTicks": 380,
          "midi": 63,
          "name": "D#4",
          "ticks": 24400,
          "time": 33.44261458333333,
          "velocity": 0.5275590551181102
        },
        {
          "duration": 0.2576726041666646,
          "durationTicks": 188,
          "midi": 60,
          "name": "C4",
          "ticks": 24784,
          "time": 33.96892458333333,
          "velocity": 0.5275590551181102
        },
        {
          "duration": 0.27411979166666356,
          "durationTicks": 200,
          "midi": 58,
          "name": "A#3",
          "ticks": 24972,
          "time": 34.2265971875,
          "velocity": 0.4566929133858268
        },
        {
          "duration": 0.12061270833333282,
          "durationTicks": 88,
          "midi": 60,
          "name": "C4",
          "ticks": 25172,
          "time": 34.50071697916666,
          "velocity": 0.4566929133858268
        },
        {
          "duration": 0.13705989583333889,
          "durationTicks": 100,
          "midi": 58,
          "name": "A#3",
          "ticks": 25260,
          "time": 34.621329687499994,
          "velocity": 0.4251968503937008
        },
        {
          "duration": 1.2773982291666641,
          "durationTicks": 932,
          "midi": 56,
          "name": "G#3",
          "ticks": 25360,
          "time": 34.75838958333333,
          "velocity": 0.4566929133858268
        },
        {
          "duration": 0.2631549999999976,
          "durationTicks": 192,
          "midi": 58,
          "name": "A#3",
          "ticks": 26300,
          "time": 36.04675260416666,
          "velocity": 0.5275590551181102
        },
        {
          "duration": 0.2576726041666646,
          "durationTicks": 188,
          "midi": 58,
          "name": "A#3",
          "ticks": 26496,
          "time": 36.315389999999994,
          "velocity": 0.4566929133858268
        },
        {
          "duration": 0.2686373958333377,
          "durationTicks": 196,
          "midi": 60,
          "name": "C4",
          "ticks": 26684,
          "time": 36.57306260416666,
          "velocity": 0.48031496062992124
        },
        {
          "duration": 0.2631549999999976,
          "durationTicks": 192,
          "midi": 61,
          "name": "C#4",
          "ticks": 26880,
          "time": 36.841699999999996,
          "velocity": 0.4566929133858268
        },
        {
          "duration": 0.27411979166666356,
          "durationTicks": 200,
          "midi": 58,
          "name": "A#3",
          "ticks": 27072,
          "time": 37.10485499999999,
          "velocity": 0.5275590551181102
        },
        {
          "duration": 0.49341562500000435,
          "durationTicks": 360,
          "midi": 56,
          "name": "G#3",
          "ticks": 27272,
          "time": 37.37897479166666,
          "velocity": 0.5669291338582677
        },
        {
          "duration": 0.27411979166666356,
          "durationTicks": 200,
          "midi": 63,
          "name": "D#4",
          "ticks": 27636,
          "time": 37.877872812499994,
          "velocity": 0.5669291338582677
        },
        {
          "duration": 0.24670781249999862,
          "durationTicks": 180,
          "midi": 63,
          "name": "D#4",
          "ticks": 27840,
          "time": 38.157475,
          "velocity": 0.5275590551181102
        },
        {
          "duration": 0.27411979166666356,
          "durationTicks": 200,
          "midi": 63,
          "name": "D#4",
          "ticks": 28024,
          "time": 38.40966520833333,
          "velocity": 0.5275590551181102
        },
        {
          "duration": 0.27411979166666356,
          "durationTicks": 200,
          "midi": 65,
          "name": "F4",
          "ticks": 28224,
          "time": 38.68378499999999,
          "velocity": 0.5669291338582677
        },
        {
          "duration": 1.0471376041666716,
          "durationTicks": 764,
          "midi": 63,
          "name": "D#4",
          "ticks": 28424,
          "time": 38.95790479166666,
          "velocity": 0.5275590551181102
        },
        {
          "duration": 1.2883630208333372,
          "durationTicks": 940,
          "midi": 61,
          "name": "C#4",
          "ticks": 29196,
          "time": 40.016007187499994,
          "velocity": 0.5275590551181102
        },
        {
          "duration": 0.2631549999999976,
          "durationTicks": 192,
          "midi": 63,
          "name": "D#4",
          "ticks": 30144,
          "time": 41.315335,
          "velocity": 0.4566929133858268
        },
        {
          "duration": 0.2576726041666646,
          "durationTicks": 188,
          "midi": 65,
          "name": "F4",
          "ticks": 30336,
          "time": 41.578489999999995,
          "velocity": 0.5669291338582677
        },
        {
          "duration": 0.24670781249999862,
          "durationTicks": 180,
          "midi": 61,
          "name": "C#4",
          "ticks": 30524,
          "time": 41.83616260416666,
          "velocity": 0.4566929133858268
        },
        {
          "duration": 0.27411979166667066,
          "durationTicks": 200,
          "midi": 63,
          "name": "D#4",
          "ticks": 30704,
          "time": 42.08287041666666,
          "velocity": 0.5275590551181102
        },
        {
          "duration": 0.23026062499999966,
          "durationTicks": 168,
          "midi": 63,
          "name": "D#4",
          "ticks": 30912,
          "time": 42.367954999999995,
          "velocity": 0.5669291338582677
        },
        {
          "duration": 0.27411979166666356,
          "durationTicks": 200,
          "midi": 63,
          "name": "D#4",
          "ticks": 31084,
          "time": 42.603698020833335,
          "velocity": 0.5669291338582677
        },
        {
          "duration": 0.2521902083333316,
          "durationTicks": 184,
          "midi": 65,
          "name": "F4",
          "ticks": 31288,
          "time": 42.88330020833333,
          "velocity": 0.5669291338582677
        },
        {
          "duration": 0.24670781249999862,
          "durationTicks": 180,
          "midi": 63,
          "name": "D#4",
          "ticks": 31472,
          "time": 43.13549041666666,
          "velocity": 0.5275590551181102
        },
        {
          "duration": 0.2960493749999955,
          "durationTicks": 216,
          "midi": 56,
          "name": "G#3",
          "ticks": 31652,
          "time": 43.38219822916666,
          "velocity": 0.4566929133858268
        },
        {
          "duration": 1.5515180208333277,
          "durationTicks": 1132,
          "midi": 56,
          "name": "G#3",
          "ticks": 31876,
          "time": 43.68921239583333,
          "velocity": 0.6062992125984252
        },
        {
          "duration": 0.2631550000000047,
          "durationTicks": 192,
          "midi": 58,
          "name": "A#3",
          "ticks": 33020,
          "time": 45.25717760416666,
          "velocity": 0.5669291338582677
        },
        {
          "duration": 0.2631549999999976,
          "durationTicks": 192,
          "midi": 60,
          "name": "C4",
          "ticks": 33212,
          "time": 45.52033260416666,
          "velocity": 0.5275590551181102
        },
        {
          "duration": 0.2576726041666717,
          "durationTicks": 188,
          "midi": 61,
          "name": "C#4",
          "ticks": 33404,
          "time": 45.78348760416666,
          "velocity": 0.5275590551181102
        },
        {
          "duration": 0.5263100000000023,
          "durationTicks": 384,
          "midi": 58,
          "name": "A#3",
          "ticks": 33592,
          "time": 46.04116020833333,
          "velocity": 0.6062992125984252
        },
        {
          "duration": 0.27411979166667066,
          "durationTicks": 200,
          "midi": 63,
          "name": "D#4",
          "ticks": 33980,
          "time": 46.57295260416666,
          "velocity": 0.5669291338582677
        },
        {
          "duration": 0.24670781249999862,
          "durationTicks": 180,
          "midi": 65,
          "name": "F4",
          "ticks": 34184,
          "time": 46.85255479166666,
          "velocity": 0.6062992125984252
        },
        {
          "duration": 0.7894649999999999,
          "durationTicks": 576,
          "midi": 63,
          "name": "D#4",
          "ticks": 34364,
          "time": 47.09926260416666,
          "velocity": 0.5669291338582677
        },
        {
          "duration": 0.1315774999999988,
          "durationTicks": 96,
          "midi": 56,
          "name": "G#3",
          "ticks": 34944,
          "time": 47.894209999999994,
          "velocity": 0.5275590551181102
        },
        {
          "duration": 0.11513031249999983,
          "durationTicks": 84,
          "midi": 58,
          "name": "A#3",
          "ticks": 35040,
          "time": 48.02578749999999,
          "velocity": 0.5275590551181102
        },
        {
          "duration": 0.10964791666666684,
          "durationTicks": 80,
          "midi": 61,
          "name": "C#4",
          "ticks": 35124,
          "time": 48.14091781249999,
          "velocity": 0.4566929133858268
        },
        {
          "duration": 0.1699542708333368,
          "durationTicks": 124,
          "midi": 58,
          "name": "A#3",
          "ticks": 35204,
          "time": 48.25056572916666,
          "velocity": 0.4566929133858268
        },
        {
          "duration": 0.3837677083333375,
          "durationTicks": 280,
          "midi": 73,
          "name": "C#5",
          "ticks": 35328,
          "time": 48.420519999999996,
          "velocity": 0.5039370078740157
        },
        {
          "duration": 0.3837677083333375,
          "durationTicks": 280,
          "midi": 68,
          "name": "G#4",
          "ticks": 35328,
          "time": 48.420519999999996,
          "velocity": 0.5039370078740157
        },
        {
          "duration": 0.3837677083333375,
          "durationTicks": 280,
          "midi": 65,
          "name": "F4",
          "ticks": 35328,
          "time": 48.420519999999996,
          "velocity": 0.6535433070866141
        },
        {
          "duration": 0.3837677083333375,
          "durationTicks": 280,
          "midi": 61,
          "name": "C#4",
          "ticks": 35328,
          "time": 48.420519999999996,
          "velocity": 0.3779527559055118
        },
        {
          "duration": 0.3892501041666634,
          "durationTicks": 284,
          "midi": 61,
          "name": "C#4",
          "ticks": 35616,
          "time": 48.81525249999999,
          "velocity": 0.31496062992125984
        },
        {
          "duration": 0.3892501041666634,
          "durationTicks": 284,
          "midi": 73,
          "name": "C#5",
          "ticks": 35616,
          "time": 48.81525249999999,
          "velocity": 0.5433070866141733
        },
        {
          "duration": 0.3892501041666634,
          "durationTicks": 284,
          "midi": 65,
          "name": "F4",
          "ticks": 35616,
          "time": 48.81525249999999,
          "velocity": 0.6299212598425197
        },
        {
          "duration": 0.3837677083333375,
          "durationTicks": 280,
          "midi": 68,
          "name": "G#4",
          "ticks": 35616,
          "time": 48.81525249999999,
          "velocity": 0.5039370078740157
        },
        {
          "duration": 0.7839826041666598,
          "durationTicks": 572,
          "midi": 72,
          "name": "C5",
          "ticks": 35904,
          "time": 49.209984999999996,
          "velocity": 0.5433070866141733
        },
        {
          "duration": 0.7839826041666598,
          "durationTicks": 572,
          "midi": 68,
          "name": "G#4",
          "ticks": 35904,
          "time": 49.209984999999996,
          "velocity": 0.5039370078740157
        },
        {
          "duration": 0.7839826041666598,
          "durationTicks": 572,
          "midi": 63,
          "name": "D#4",
          "ticks": 35904,
          "time": 49.209984999999996,
          "velocity": 0.5433070866141733
        },
        {
          "duration": 0.7839826041666598,
          "durationTicks": 572,
          "midi": 60,
          "name": "C4",
          "ticks": 35904,
          "time": 49.209984999999996,
          "velocity": 0.3779527559055118
        },
        {
          "duration": 0.1315774999999988,
          "durationTicks": 96,
          "midi": 56,
          "name": "G#3",
          "ticks": 36480,
          "time": 49.999449999999996,
          "velocity": 0.5039370078740157
        },
        {
          "duration": 0.1315774999999988,
          "durationTicks": 96,
          "midi": 58,
          "name": "A#3",
          "ticks": 36576,
          "time": 50.131027499999995,
          "velocity": 0.4330708661417323
        },
        {
          "duration": 0.1315774999999988,
          "durationTicks": 96,
          "midi": 60,
          "name": "C4",
          "ticks": 36672,
          "time": 50.26260499999999,
          "velocity": 0.4566929133858268
        },
        {
          "duration": 0.1315774999999988,
          "durationTicks": 96,
          "midi": 58,
          "name": "A#3",
          "ticks": 36768,
          "time": 50.39418249999999,
          "velocity": 0.4330708661417323
        },
        {
          "duration": 0.3837677083333375,
          "durationTicks": 280,
          "midi": 72,
          "name": "C5",
          "ticks": 36864,
          "time": 50.52575999999999,
          "velocity": 0.5039370078740157
        },
        {
          "duration": 0.3837677083333375,
          "durationTicks": 280,
          "midi": 68,
          "name": "G#4",
          "ticks": 36864,
          "time": 50.52575999999999,
          "velocity": 0.5039370078740157
        },
        {
          "duration": 0.3837677083333375,
          "durationTicks": 280,
          "midi": 60,
          "name": "C4",
          "ticks": 36864,
          "time": 50.52575999999999,
          "velocity": 0.33070866141732286
        },
        {
          "duration": 0.3837677083333375,
          "durationTicks": 280,
          "midi": 63,
          "name": "D#4",
          "ticks": 36864,
          "time": 50.52575999999999,
          "velocity": 0.5433070866141733
        },
        {
          "duration": 0.3892501041666634,
          "durationTicks": 284,
          "midi": 63,
          "name": "D#4",
          "ticks": 37152,
          "time": 50.920492499999995,
          "velocity": 0.5039370078740157
        },
        {
          "duration": 0.3892501041666634,
          "durationTicks": 284,
          "midi": 60,
          "name": "C4",
          "ticks": 37152,
          "time": 50.920492499999995,
          "velocity": 0.25984251968503935
        },
        {
          "duration": 0.3892501041666634,
          "durationTicks": 284,
          "midi": 72,
          "name": "C5",
          "ticks": 37152,
          "time": 50.920492499999995,
          "velocity": 0.4566929133858268
        },
        {
          "duration": 0.3892501041666634,
          "durationTicks": 284,
          "midi": 68,
          "name": "G#4",
          "ticks": 37152,
          "time": 50.920492499999995,
          "velocity": 0.4330708661417323
        },
        {
          "duration": 0.3892501041666634,
          "durationTicks": 284,
          "midi": 61,
          "name": "C#4",
          "ticks": 37440,
          "time": 51.315225,
          "velocity": 0.5039370078740157
        },
        {
          "duration": 0.7839826041666598,
          "durationTicks": 572,
          "midi": 65,
          "name": "F4",
          "ticks": 37440,
          "time": 51.315225,
          "velocity": 0.5826771653543307
        },
        {
          "duration": 0.7839826041666598,
          "durationTicks": 572,
          "midi": 70,
          "name": "A#4",
          "ticks": 37440,
          "time": 51.315225,
          "velocity": 0.5433070866141733
        },
        {
          "duration": 0.1315774999999988,
          "durationTicks": 96,
          "midi": 60,
          "name": "C4",
          "ticks": 37728,
          "time": 51.709957499999994,
          "velocity": 0.3779527559055118
        },
        {
          "duration": 0.2631550000000047,
          "durationTicks": 192,
          "midi": 58,
          "name": "A#3",
          "ticks": 37824,
          "time": 51.84153499999999,
          "velocity": 0.4330708661417323
        },
        {
          "duration": 0.15898947916666373,
          "durationTicks": 116,
          "midi": 56,
          "name": "G#3",
          "ticks": 38020,
          "time": 52.11017239583333,
          "velocity": 0.5039370078740157
        },
        {
          "duration": 0.15350708333333074,
          "durationTicks": 112,
          "midi": 58,
          "name": "A#3",
          "ticks": 38140,
          "time": 52.27464427083333,
          "velocity": 0.4015748031496063
        },
        {
          "duration": 0.10964791666667395,
          "durationTicks": 80,
          "midi": 60,
          "name": "C4",
          "ticks": 38252,
          "time": 52.42815135416666,
          "velocity": 0.4015748031496063
        },
        {
          "duration": 0.1315774999999988,
          "durationTicks": 96,
          "midi": 58,
          "name": "A#3",
          "ticks": 38332,
          "time": 52.53779927083333,
          "velocity": 0.4330708661417323
        },
        {
          "duration": 0.4769684374999983,
          "durationTicks": 348,
          "midi": 61,
          "name": "C#4",
          "ticks": 38428,
          "time": 52.66937677083333,
          "velocity": 0.5039370078740157
        },
        {
          "duration": 0.27411979166667777,
          "durationTicks": 200,
          "midi": 63,
          "name": "D#4",
          "ticks": 38780,
          "time": 53.151827604166655,
          "velocity": 0.4330708661417323
        },
        {
          "duration": 0.2521902083333387,
          "durationTicks": 184,
          "midi": 60,
          "name": "C4",
          "ticks": 38984,
          "time": 53.43142979166666,
          "velocity": 0.5039370078740157
        },
        {
          "duration": 0.2631549999999976,
          "durationTicks": 192,
          "midi": 58,
          "name": "A#3",
          "ticks": 39168,
          "time": 53.68362,
          "velocity": 0.4015748031496063
        },
        {
          "duration": 0.5153452083333363,
          "durationTicks": 376,
          "midi": 56,
          "name": "G#3",
          "ticks": 39360,
          "time": 53.946774999999995,
          "velocity": 0.4330708661417323
        },
        {
          "duration": 0.2576726041666575,
          "durationTicks": 188,
          "midi": 63,
          "name": "D#4",
          "ticks": 39744,
          "time": 54.473085,
          "velocity": 0.4015748031496063
        },
        {
          "duration": 0.2576726041666575,
          "durationTicks": 188,
          "midi": 72,
          "name": "C5",
          "ticks": 39744,
          "time": 54.473085,
          "velocity": 0.5039370078740157
        },
        {
          "duration": 0.2631549999999976,
          "durationTicks": 192,
          "midi": 56,
          "name": "G#3",
          "ticks": 39744,
          "time": 54.473085,
          "velocity": 0.4330708661417323
        },
        {
          "duration": 0.2576726041666575,
          "durationTicks": 188,
          "midi": 60,
          "name": "C4",
          "ticks": 39744,
          "time": 54.473085,
          "velocity": 0.4566929133858268
        },
        {
          "duration": 0.5208276041666622,
          "durationTicks": 380,
          "midi": 63,
          "name": "D#4",
          "ticks": 39936,
          "time": 54.736239999999995,
          "velocity": 0.5039370078740157
        },
        {
          "duration": 0.5208276041666622,
          "durationTicks": 380,
          "midi": 60,
          "name": "C4",
          "ticks": 39936,
          "time": 54.736239999999995,
          "velocity": 0.5433070866141733
        },
        {
          "duration": 0.5208276041666622,
          "durationTicks": 380,
          "midi": 72,
          "name": "C5",
          "ticks": 39936,
          "time": 54.736239999999995,
          "velocity": 0.5433070866141733
        },
        {
          "duration": 1.0416552083333315,
          "durationTicks": 760,
          "midi": 68,
          "name": "G#4",
          "ticks": 40320,
          "time": 55.26255,
          "velocity": 0.5433070866141733
        },
        {
          "duration": 1.0416552083333315,
          "durationTicks": 760,
          "midi": 73,
          "name": "C#5",
          "ticks": 40320,
          "time": 55.26255,
          "velocity": 0.4330708661417323
        },
        {
          "duration": 1.0416552083333315,
          "durationTicks": 760,
          "midi": 65,
          "name": "F4",
          "ticks": 40320,
          "time": 55.26255,
          "velocity": 0.5433070866141733
        },
        {
          "duration": 1.0416552083333315,
          "durationTicks": 760,
          "midi": 61,
          "name": "C#4",
          "ticks": 40320,
          "time": 55.26255,
          "velocity": 0.5039370078740157
        },
        {
          "duration": 0.1315774999999988,
          "durationTicks": 96,
          "midi": 56,
          "name": "G#3",
          "ticks": 41088,
          "time": 56.315169999999995,
          "velocity": 0.5039370078740157
        },
        {
          "duration": 0.1315774999999988,
          "durationTicks": 96,
          "midi": 58,
          "name": "A#3",
          "ticks": 41184,
          "time": 56.446747499999994,
          "velocity": 0.4330708661417323
        },
        {
          "duration": 0.1315774999999988,
          "durationTicks": 96,
          "midi": 61,
          "name": "C#4",
          "ticks": 41280,
          "time": 56.57832499999999,
          "velocity": 0.4330708661417323
        },
        {
          "duration": 0.1315775000000059,
          "durationTicks": 96,
          "midi": 58,
          "name": "A#3",
          "ticks": 41376,
          "time": 56.70990249999999,
          "velocity": 0.4330708661417323
        },
        {
          "duration": 0.3837677083333304,
          "durationTicks": 280,
          "midi": 73,
          "name": "C#5",
          "ticks": 41472,
          "time": 56.84148,
          "velocity": 0.5039370078740157
        },
        {
          "duration": 0.3837677083333304,
          "durationTicks": 280,
          "midi": 68,
          "name": "G#4",
          "ticks": 41472,
          "time": 56.84148,
          "velocity": 0.5039370078740157
        },
        {
          "duration": 0.3837677083333304,
          "durationTicks": 280,
          "midi": 61,
          "name": "C#4",
          "ticks": 41472,
          "time": 56.84148,
          "velocity": 0.3779527559055118
        },
        {
          "duration": 0.3837677083333304,
          "durationTicks": 280,
          "midi": 65,
          "name": "F4",
          "ticks": 41472,
          "time": 56.84148,
          "velocity": 0.6299212598425197
        },
        {
          "duration": 0.3892501041666634,
          "durationTicks": 284,
          "midi": 61,
          "name": "C#4",
          "ticks": 41760,
          "time": 57.23621249999999,
          "velocity": 0.3779527559055118
        },
        {
          "duration": 0.3837677083333375,
          "durationTicks": 280,
          "midi": 68,
          "name": "G#4",
          "ticks": 41760,
          "time": 57.23621249999999,
          "velocity": 0.5039370078740157
        },
        {
          "duration": 0.3892501041666634,
          "durationTicks": 284,
          "midi": 73,
          "name": "C#5",
          "ticks": 41760,
          "time": 57.23621249999999,
          "velocity": 0.5039370078740157
        },
        {
          "duration": 0.3892501041666634,
          "durationTicks": 284,
          "midi": 65,
          "name": "F4",
          "ticks": 41760,
          "time": 57.23621249999999,
          "velocity": 0.6299212598425197
        },
        {
          "duration": 0.7839826041666598,
          "durationTicks": 572,
          "midi": 68,
          "name": "G#4",
          "ticks": 42048,
          "time": 57.630945,
          "velocity": 0.5433070866141733
        },
        {
          "duration": 0.7839826041666598,
          "durationTicks": 572,
          "midi": 60,
          "name": "C4",
          "ticks": 42048,
          "time": 57.630945,
          "velocity": 0.4566929133858268
        },
        {
          "duration": 0.7839826041666598,
          "durationTicks": 572,
          "midi": 63,
          "name": "D#4",
          "ticks": 42048,
          "time": 57.630945,
          "velocity": 0.5433070866141733
        },
        {
          "duration": 0.7839826041666598,
          "durationTicks": 572,
          "midi": 72,
          "name": "C5",
          "ticks": 42048,
          "time": 57.630945,
          "velocity": 0.5433070866141733
        },
        {
          "duration": 0.1315774999999988,
          "durationTicks": 96,
          "midi": 56,
          "name": "G#3",
          "ticks": 42624,
          "time": 58.42041,
          "velocity": 0.5039370078740157
        },
        {
          "duration": 0.1315774999999988,
          "durationTicks": 96,
          "midi": 58,
          "name": "A#3",
          "ticks": 42720,
          "time": 58.551987499999996,
          "velocity": 0.4330708661417323
        },
        {
          "duration": 0.1315774999999988,
          "durationTicks": 96,
          "midi": 60,
          "name": "C4",
          "ticks": 42816,
          "time": 58.683564999999994,
          "velocity": 0.4015748031496063
        },
        {
          "duration": 0.1315774999999988,
          "durationTicks": 96,
          "midi": 58,
          "name": "A#3",
          "ticks": 42912,
          "time": 58.81514249999999,
          "velocity": 0.5039370078740157
        },
        {
          "duration": 0.5153452083333363,
          "durationTicks": 376,
          "midi": 60,
          "name": "C4",
          "ticks": 43008,
          "time": 58.94671999999999,
          "velocity": 0.4330708661417323
        },
        {
          "duration": 0.5153452083333363,
          "durationTicks": 376,
          "midi": 63,
          "name": "D#4",
          "ticks": 43008,
          "time": 58.94671999999999,
          "velocity": 0.5433070866141733
        },
        {
          "duration": 0.5208276041666693,
          "durationTicks": 380,
          "midi": 68,
          "name": "G#4",
          "ticks": 43008,
          "time": 58.94671999999999,
          "velocity": 0.5433070866141733
        },
        {
          "duration": 0.5153452083333363,
          "durationTicks": 376,
          "midi": 72,
          "name": "C5",
          "ticks": 43008,
          "time": 58.94671999999999,
          "velocity": 0.5433070866141733
        },
        {
          "duration": 0.2631549999999976,
          "durationTicks": 192,
          "midi": 60,
          "name": "C4",
          "ticks": 43392,
          "time": 59.473029999999994,
          "velocity": 0.4566929133858268
        },
        {
          "duration": 0.2631549999999976,
          "durationTicks": 192,
          "midi": 72,
          "name": "C5",
          "ticks": 43392,
          "time": 59.473029999999994,
          "velocity": 0.5039370078740157
        },
        {
          "duration": 0.2631549999999976,
          "durationTicks": 192,
          "midi": 63,
          "name": "D#4",
          "ticks": 43392,
          "time": 59.473029999999994,
          "velocity": 0.5039370078740157
        },
        {
          "duration": 0.2631550000000047,
          "durationTicks": 192,
          "midi": 65,
          "name": "F4",
          "ticks": 43584,
          "time": 59.73618499999999,
          "velocity": 0.5039370078740157
        },
        {
          "duration": 0.2631550000000047,
          "durationTicks": 192,
          "midi": 73,
          "name": "C#5",
          "ticks": 43584,
          "time": 59.73618499999999,
          "velocity": 0.5039370078740157
        },
        {
          "duration": 0.2631550000000047,
          "durationTicks": 192,
          "midi": 61,
          "name": "C#4",
          "ticks": 43584,
          "time": 59.73618499999999,
          "velocity": 0.5039370078740157
        },
        {
          "duration": 0.1315774999999988,
          "durationTicks": 96,
          "midi": 60,
          "name": "C4",
          "ticks": 43776,
          "time": 59.99934,
          "velocity": 0.2047244094488189
        },
        {
          "duration": 0.1315774999999988,
          "durationTicks": 96,
          "midi": 72,
          "name": "C5",
          "ticks": 43776,
          "time": 59.99934,
          "velocity": 0.4015748031496063
        },
        {
          "duration": 0.1315774999999988,
          "durationTicks": 96,
          "midi": 63,
          "name": "D#4",
          "ticks": 43776,
          "time": 59.99934,
          "velocity": 0.4015748031496063
        },
        {
          "duration": 0.3892501041666634,
          "durationTicks": 284,
          "midi": 58,
          "name": "A#3",
          "ticks": 43872,
          "time": 60.130917499999995,
          "velocity": 0.5039370078740157
        },
        {
          "duration": 0.3892501041666634,
          "durationTicks": 284,
          "midi": 61,
          "name": "C#4",
          "ticks": 43872,
          "time": 60.130917499999995,
          "velocity": 0.4015748031496063
        },
        {
          "duration": 0.3892501041666634,
          "durationTicks": 284,
          "midi": 70,
          "name": "A#4",
          "ticks": 43872,
          "time": 60.130917499999995,
          "velocity": 0.4015748031496063
        },
        {
          "duration": 0.1315774999999988,
          "durationTicks": 96,
          "midi": 56,
          "name": "G#3",
          "ticks": 44160,
          "time": 60.52564999999999,
          "velocity": 0.5039370078740157
        },
        {
          "duration": 0.1315775000000059,
          "durationTicks": 96,
          "midi": 58,
          "name": "A#3",
          "ticks": 44256,
          "time": 60.65722749999999,
          "velocity": 0.4330708661417323
        },
        {
          "duration": 0.1315774999999988,
          "durationTicks": 96,
          "midi": 60,
          "name": "C4",
          "ticks": 44352,
          "time": 60.788804999999996,
          "velocity": 0.4015748031496063
        },
        {
          "duration": 0.1699542708333368,
          "durationTicks": 124,
          "midi": 58,
          "name": "A#3",
          "ticks": 44448,
          "time": 60.920382499999995,
          "velocity": 0.5039370078740157
        },
        {
          "duration": 0.5208276041666622,
          "durationTicks": 380,
          "midi": 61,
          "name": "C#4",
          "ticks": 44572,
          "time": 61.09033677083333,
          "velocity": 0.5433070866141733
        },
        {
          "duration": 0.24670781249999862,
          "durationTicks": 180,
          "midi": 63,
          "name": "D#4",
          "ticks": 44956,
          "time": 61.61664677083333,
          "velocity": 0.4330708661417323
        },
        {
          "duration": 0.44407406250000037,
          "durationTicks": 324,
          "midi": 60,
          "name": "C4",
          "ticks": 45136,
          "time": 61.863354583333326,
          "velocity": 0.4566929133858268
        },
        {
          "duration": 0.14254229166667187,
          "durationTicks": 104,
          "midi": 58,
          "name": "A#3",
          "ticks": 45464,
          "time": 62.31291104166666,
          "velocity": 0.3779527559055118
        },
        {
          "duration": 0.44407406250000037,
          "durationTicks": 324,
          "midi": 56,
          "name": "G#3",
          "ticks": 45568,
          "time": 62.45545333333333,
          "velocity": 0.4330708661417323
        },
        {
          "duration": 0.24670781250000573,
          "durationTicks": 180,
          "midi": 56,
          "name": "G#3",
          "ticks": 45900,
          "time": 62.91049218749999,
          "velocity": 0.5433070866141733
        },
        {
          "duration": 0.5208276041666622,
          "durationTicks": 380,
          "midi": 72,
          "name": "C5",
          "ticks": 46080,
          "time": 63.157199999999996,
          "velocity": 0.5433070866141733
        },
        {
          "duration": 0.5208276041666622,
          "durationTicks": 380,
          "midi": 63,
          "name": "D#4",
          "ticks": 46080,
          "time": 63.157199999999996,
          "velocity": 0.5433070866141733
        },
        {
          "duration": 0.5208276041666622,
          "durationTicks": 380,
          "midi": 60,
          "name": "C4",
          "ticks": 46080,
          "time": 63.157199999999996,
          "velocity": 0.4330708661417323
        },
        {
          "duration": 1.5624828125000008,
          "durationTicks": 1140,
          "midi": 65,
          "name": "F4",
          "ticks": 46464,
          "time": 63.68350999999999,
          "velocity": 0.5433070866141733
        },
        {
          "duration": 1.5624828125000008,
          "durationTicks": 1140,
          "midi": 73,
          "name": "C#5",
          "ticks": 46464,
          "time": 63.68350999999999,
          "velocity": 0.5039370078740157
        },
        {
          "duration": 1.5624828125000008,
          "durationTicks": 1140,
          "midi": 68,
          "name": "G#4",
          "ticks": 46464,
          "time": 63.68350999999999,
          "velocity": 0.5039370078740157
        },
        {
          "duration": 1.5624828125000008,
          "durationTicks": 1140,
          "midi": 61,
          "name": "C#4",
          "ticks": 46464,
          "time": 63.68350999999999,
          "velocity": 0.5039370078740157
        },
        {
          "duration": 0.27411979166667777,
          "durationTicks": 200,
          "midi": 61,
          "name": "C#4",
          "ticks": 47804,
          "time": 65.52011260416666,
          "velocity": 0.5275590551181102
        },
        {
          "duration": 0.2521902083333316,
          "durationTicks": 184,
          "midi": 61,
          "name": "C#4",
          "ticks": 48008,
          "time": 65.79971479166666,
          "velocity": 0.6062992125984252
        },
        {
          "duration": 0.2576726041666717,
          "durationTicks": 188,
          "midi": 58,
          "name": "A#3",
          "ticks": 48192,
          "time": 66.05190499999999,
          "velocity": 0.5275590551181102
        },
        {
          "duration": 0.3015317708333356,
          "durationTicks": 220,
          "midi": 61,
          "name": "C#4",
          "ticks": 48380,
          "time": 66.30957760416666,
          "velocity": 0.5669291338582677
        },
        {
          "duration": 0.9923136458333346,
          "durationTicks": 724,
          "midi": 63,
          "name": "D#4",
          "ticks": 48604,
          "time": 66.61659177083332,
          "velocity": 0.5669291338582677
        },
        {
          "duration": 0.2631549999999976,
          "durationTicks": 192,
          "midi": 60,
          "name": "C4",
          "ticks": 49336,
          "time": 67.61987020833332,
          "velocity": 0.5275590551181102
        },
        {
          "duration": 0.27411979166667777,
          "durationTicks": 200,
          "midi": 58,
          "name": "A#3",
          "ticks": 49528,
          "time": 67.88302520833332,
          "velocity": 0.5275590551181102
        },
        {
          "duration": 0.09868312499999377,
          "durationTicks": 72,
          "midi": 60,
          "name": "C4",
          "ticks": 49728,
          "time": 68.157145,
          "velocity": 0.48031496062992124
        },
        {
          "duration": 0.1754366666666698,
          "durationTicks": 128,
          "midi": 58,
          "name": "A#3",
          "ticks": 49800,
          "time": 68.255828125,
          "velocity": 0.3543307086614173
        },
        {
          "duration": 1.293845416666656,
          "durationTicks": 944,
          "midi": 56,
          "name": "G#3",
          "ticks": 49928,
          "time": 68.43126479166666,
          "velocity": 0.4566929133858268
        },
        {
          "duration": 0.2521902083333174,
          "durationTicks": 184,
          "midi": 58,
          "name": "A#3",
          "ticks": 50880,
          "time": 69.736075,
          "velocity": 0.5275590551181102
        },
        {
          "duration": 0.2631549999999976,
          "durationTicks": 192,
          "midi": 58,
          "name": "A#3",
          "ticks": 51068,
          "time": 69.99374760416667,
          "velocity": 0.4251968503937008
        },
        {
          "duration": 0.2631549999999976,
          "durationTicks": 192,
          "midi": 60,
          "name": "C4",
          "ticks": 51260,
          "time": 70.25690260416667,
          "velocity": 0.48031496062992124
        },
        {
          "duration": 0.26863739583332347,
          "durationTicks": 196,
          "midi": 61,
          "name": "C#4",
          "ticks": 51452,
          "time": 70.52005760416667,
          "velocity": 0.5275590551181102
        },
        {
          "duration": 0.2576726041666717,
          "durationTicks": 188,
          "midi": 58,
          "name": "A#3",
          "ticks": 51648,
          "time": 70.78869499999999,
          "velocity": 0.4566929133858268
        },
        {
          "duration": 0.8059121874999988,
          "durationTicks": 588,
          "midi": 56,
          "name": "G#3",
          "ticks": 51836,
          "time": 71.04636760416666,
          "velocity": 0.5669291338582677
        },
        {
          "duration": 0.2521902083333316,
          "durationTicks": 184,
          "midi": 68,
          "name": "G#4",
          "ticks": 52428,
          "time": 71.85776218749999,
          "velocity": 0.6062992125984252
        },
        {
          "duration": 0.27411979166666356,
          "durationTicks": 200,
          "midi": 68,
          "name": "G#4",
          "ticks": 52616,
          "time": 72.11543479166666,
          "velocity": 0.6062992125984252
        },
        {
          "duration": 0.49889802083333734,
          "durationTicks": 364,
          "midi": 63,
          "name": "D#4",
          "ticks": 52820,
          "time": 72.39503697916666,
          "velocity": 0.5669291338582677
        },
        {
          "duration": 0.2576726041666717,
          "durationTicks": 188,
          "midi": 65,
          "name": "F4",
          "ticks": 53188,
          "time": 72.89941739583332,
          "velocity": 0.5669291338582677
        },
        {
          "duration": 0.24670781249999152,
          "durationTicks": 180,
          "midi": 63,
          "name": "D#4",
          "ticks": 53376,
          "time": 73.15709,
          "velocity": 0.5275590551181102
        },
        {
          "duration": 0.5098628125000033,
          "durationTicks": 372,
          "midi": 61,
          "name": "C#4",
          "ticks": 53556,
          "time": 73.40379781249999,
          "velocity": 0.5275590551181102
        },
        {
          "duration": 0.2521902083333316,
          "durationTicks": 184,
          "midi": 61,
          "name": "C#4",
          "ticks": 53936,
          "time": 73.92462541666666,
          "velocity": 0.5275590551181102
        },
        {
          "duration": 0.2686373958333519,
          "durationTicks": 196,
          "midi": 61,
          "name": "C#4",
          "ticks": 54124,
          "time": 74.18229802083331,
          "velocity": 0.5275590551181102
        },
        {
          "duration": 0.26863739583332347,
          "durationTicks": 196,
          "midi": 58,
          "name": "A#3",
          "ticks": 54320,
          "time": 74.45093541666667,
          "velocity": 0.5275590551181102
        },
        {
          "duration": 0.27411979166667777,
          "durationTicks": 200,
          "midi": 61,
          "name": "C#4",
          "ticks": 54516,
          "time": 74.71957281249999,
          "velocity": 0.5275590551181102
        },
        {
          "duration": 0.24670781249999152,
          "durationTicks": 180,
          "midi": 58,
          "name": "A#3",
          "ticks": 54716,
          "time": 74.99369260416667,
          "velocity": 0.4251968503937008
        },
        {
          "duration": 0.28508458333332953,
          "durationTicks": 208,
          "midi": 61,
          "name": "C#4",
          "ticks": 54896,
          "time": 75.24040041666666,
          "velocity": 0.5669291338582677
        },
        {
          "duration": 0.5208276041666835,
          "durationTicks": 380,
          "midi": 63,
          "name": "D#4",
          "ticks": 55108,
          "time": 75.53096739583331,
          "velocity": 0.5275590551181102
        },
        {
          "duration": 0.2631549999999976,
          "durationTicks": 192,
          "midi": 60,
          "name": "C4",
          "ticks": 55492,
          "time": 76.05727739583332,
          "velocity": 0.5275590551181102
        },
        {
          "duration": 0.27411979166666356,
          "durationTicks": 200,
          "midi": 58,
          "name": "A#3",
          "ticks": 55684,
          "time": 76.32043239583332,
          "velocity": 0.4566929133858268
        },
        {
          "duration": 0.12061270833333992,
          "durationTicks": 88,
          "midi": 60,
          "name": "C4",
          "ticks": 55884,
          "time": 76.59455218749999,
          "velocity": 0.4566929133858268
        },
        {
          "duration": 0.15898947916666373,
          "durationTicks": 116,
          "midi": 58,
          "name": "A#3",
          "ticks": 55972,
          "time": 76.71516489583333,
          "velocity": 0.4251968503937008
        },
        {
          "duration": 1.2828806250000042,
          "durationTicks": 936,
          "midi": 56,
          "name": "G#3",
          "ticks": 56088,
          "time": 76.87415437499999,
          "velocity": 0.4566929133858268
        },
        {
          "duration": 0.2576726041666575,
          "durationTicks": 188,
          "midi": 58,
          "name": "A#3",
          "ticks": 57032,
          "time": 78.16799979166666,
          "velocity": 0.5669291338582677
        },
        {
          "duration": 0.2576726041666575,
          "durationTicks": 188,
          "midi": 58,
          "name": "A#3",
          "ticks": 57224,
          "time": 78.43115479166666,
          "velocity": 0.5669291338582677
        },
        {
          "duration": 0.2686373958333519,
          "durationTicks": 196,
          "midi": 60,
          "name": "C4",
          "ticks": 57412,
          "time": 78.68882739583331,
          "velocity": 0.5275590551181102
        },
        {
          "duration": 0.2521902083333316,
          "durationTicks": 184,
          "midi": 61,
          "name": "C#4",
          "ticks": 57608,
          "time": 78.95746479166667,
          "velocity": 0.4566929133858268
        },
        {
          "duration": 0.2576726041666717,
          "durationTicks": 188,
          "midi": 58,
          "name": "A#3",
          "ticks": 57792,
          "time": 79.209655,
          "velocity": 0.5275590551181102
        },
        {
          "duration": 0.8113945833333247,
          "durationTicks": 592,
          "midi": 56,
          "name": "G#3",
          "ticks": 57980,
          "time": 79.46732760416667,
          "velocity": 0.5669291338582677
        },
        {
          "duration": 0.27411979166667777,
          "durationTicks": 200,
          "midi": 63,
          "name": "D#4",
          "ticks": 58576,
          "time": 80.28420458333332,
          "velocity": 0.5669291338582677
        },
        {
          "duration": 0.27411979166666356,
          "durationTicks": 200,
          "midi": 65,
          "name": "F4",
          "ticks": 58776,
          "time": 80.558324375,
          "velocity": 0.5669291338582677
        },
        {
          "duration": 0.4824508333333313,
          "durationTicks": 352,
          "midi": 65,
          "name": "F4",
          "ticks": 58980,
          "time": 80.83792656249999,
          "velocity": 0.6535433070866141
        },
        {
          "duration": 0.8004297916666587,
          "durationTicks": 584,
          "midi": 63,
          "name": "D#4",
          "ticks": 59336,
          "time": 81.32585979166666,
          "velocity": 0.5275590551181102
        },
        {
          "duration": 1.260951041666658,
          "durationTicks": 920,
          "midi": 61,
          "name": "C#4",
          "ticks": 59924,
          "time": 82.13177197916666,
          "velocity": 0.4566929133858268
        },
        {
          "duration": 0.27411979166666356,
          "durationTicks": 200,
          "midi": 63,
          "name": "D#4",
          "ticks": 60852,
          "time": 83.4036878125,
          "velocity": 0.4251968503937008
        },
        {
          "duration": 0.2576726041666717,
          "durationTicks": 188,
          "midi": 65,
          "name": "F4",
          "ticks": 61056,
          "time": 83.68328999999999,
          "velocity": 0.6062992125984252
        },
        {
          "duration": 0.49889802083333734,
          "durationTicks": 364,
          "midi": 63,
          "name": "D#4",
          "ticks": 61244,
          "time": 83.94096260416666,
          "velocity": 0.5669291338582677
        },
        {
          "duration": 0.2686373958333377,
          "durationTicks": 196,
          "midi": 63,
          "name": "D#4",
          "ticks": 61616,
          "time": 84.45082541666666,
          "velocity": 0.5275590551181102
        },
        {
          "duration": 0.27411979166666356,
          "durationTicks": 200,
          "midi": 63,
          "name": "D#4",
          "ticks": 61816,
          "time": 84.72494520833332,
          "velocity": 0.5669291338582677
        },
        {
          "duration": 0.24122541666667985,
          "durationTicks": 176,
          "midi": 65,
          "name": "F4",
          "ticks": 62020,
          "time": 85.00454739583331,
          "velocity": 0.5275590551181102
        },
        {
          "duration": 0.2576726041666717,
          "durationTicks": 188,
          "midi": 63,
          "name": "D#4",
          "ticks": 62196,
          "time": 85.2457728125,
          "velocity": 0.5275590551181102
        },
        {
          "duration": 0.27960218750000365,
          "durationTicks": 204,
          "midi": 56,
          "name": "G#3",
          "ticks": 62384,
          "time": 85.50344541666666,
          "velocity": 0.4251968503937008
        },
        {
          "duration": 1.2883630208333443,
          "durationTicks": 940,
          "midi": 56,
          "name": "G#3",
          "ticks": 62596,
          "time": 85.79401239583332,
          "velocity": 0.6062992125984252
        },
        {
          "duration": 0.2686373958333377,
          "durationTicks": 196,
          "midi": 56,
          "name": "G#3",
          "ticks": 63548,
          "time": 87.09882260416666,
          "velocity": 0.5275590551181102
        },
        {
          "duration": 0.24122541666666564,
          "durationTicks": 176,
          "midi": 58,
          "name": "A#3",
          "ticks": 63744,
          "time": 87.36746,
          "velocity": 0.5669291338582677
        },
        {
          "duration": 0.28508458333332953,
          "durationTicks": 208,
          "midi": 60,
          "name": "C4",
          "ticks": 63920,
          "time": 87.60868541666666,
          "velocity": 0.48031496062992124
        },
        {
          "duration": 0.2521902083333458,
          "durationTicks": 184,
          "midi": 61,
          "name": "C#4",
          "ticks": 64132,
          "time": 87.89925239583332,
          "velocity": 0.5275590551181102
        },
        {
          "duration": 0.5372747916666611,
          "durationTicks": 392,
          "midi": 58,
          "name": "A#3",
          "ticks": 64316,
          "time": 88.15144260416666,
          "velocity": 0.6062992125984252
        },
        {
          "duration": 0.27411979166666356,
          "durationTicks": 200,
          "midi": 63,
          "name": "D#4",
          "ticks": 64712,
          "time": 88.69419979166666,
          "velocity": 0.5275590551181102
        },
        {
          "duration": 0.24670781249999152,
          "durationTicks": 180,
          "midi": 65,
          "name": "F4",
          "ticks": 64912,
          "time": 88.96831958333333,
          "velocity": 0.5669291338582677
        },
        {
          "duration": 0.778500208333341,
          "durationTicks": 568,
          "midi": 63,
          "name": "D#4",
          "ticks": 65092,
          "time": 89.21502739583332,
          "velocity": 0.5275590551181102
        },
        {
          "duration": 0.1315775000000059,
          "durationTicks": 96,
          "midi": 56,
          "name": "G#3",
          "ticks": 65664,
          "time": 89.99900999999998,
          "velocity": 0.5275590551181102
        },
        {
          "duration": 0.11513031249999983,
          "durationTicks": 84,
          "midi": 58,
          "name": "A#3",
          "ticks": 65760,
          "time": 90.13058749999999,
          "velocity": 0.5275590551181102
        },
        {
          "duration": 0.10964791666667395,
          "durationTicks": 80,
          "midi": 61,
          "name": "C#4",
          "ticks": 65844,
          "time": 90.24571781249999,
          "velocity": 0.4566929133858268
        },
        {
          "duration": 0.1699542708333297,
          "durationTicks": 124,
          "midi": 58,
          "name": "A#3",
          "ticks": 65924,
          "time": 90.35536572916666,
          "velocity": 0.4566929133858268
        },
        {
          "duration": 0.3837677083333233,
          "durationTicks": 280,
          "midi": 73,
          "name": "C#5",
          "ticks": 66048,
          "time": 90.52532,
          "velocity": 0.5039370078740157
        },
        {
          "duration": 0.3837677083333233,
          "durationTicks": 280,
          "midi": 68,
          "name": "G#4",
          "ticks": 66048,
          "time": 90.52532,
          "velocity": 0.5039370078740157
        },
        {
          "duration": 0.3837677083333233,
          "durationTicks": 280,
          "midi": 65,
          "name": "F4",
          "ticks": 66048,
          "time": 90.52532,
          "velocity": 0.6535433070866141
        },
        {
          "duration": 0.3837677083333233,
          "durationTicks": 280,
          "midi": 61,
          "name": "C#4",
          "ticks": 66048,
          "time": 90.52532,
          "velocity": 0.3779527559055118
        },
        {
          "duration": 0.3892501041666634,
          "durationTicks": 284,
          "midi": 61,
          "name": "C#4",
          "ticks": 66336,
          "time": 90.9200525,
          "velocity": 0.31496062992125984
        },
        {
          "duration": 0.3892501041666634,
          "durationTicks": 284,
          "midi": 73,
          "name": "C#5",
          "ticks": 66336,
          "time": 90.9200525,
          "velocity": 0.5433070866141733
        },
        {
          "duration": 0.3892501041666634,
          "durationTicks": 284,
          "midi": 65,
          "name": "F4",
          "ticks": 66336,
          "time": 90.9200525,
          "velocity": 0.6299212598425197
        },
        {
          "duration": 0.3837677083333233,
          "durationTicks": 280,
          "midi": 68,
          "name": "G#4",
          "ticks": 66336,
          "time": 90.9200525,
          "velocity": 0.5039370078740157
        },
        {
          "duration": 0.7839826041666811,
          "durationTicks": 572,
          "midi": 72,
          "name": "C5",
          "ticks": 66624,
          "time": 91.31478499999999,
          "velocity": 0.5433070866141733
        },
        {
          "duration": 0.7839826041666811,
          "durationTicks": 572,
          "midi": 68,
          "name": "G#4",
          "ticks": 66624,
          "time": 91.31478499999999,
          "velocity": 0.5039370078740157
        },
        {
          "duration": 0.7839826041666811,
          "durationTicks": 572,
          "midi": 63,
          "name": "D#4",
          "ticks": 66624,
          "time": 91.31478499999999,
          "velocity": 0.5433070866141733
        },
        {
          "duration": 0.7839826041666811,
          "durationTicks": 572,
          "midi": 60,
          "name": "C4",
          "ticks": 66624,
          "time": 91.31478499999999,
          "velocity": 0.3779527559055118
        },
        {
          "duration": 0.1315774999999917,
          "durationTicks": 96,
          "midi": 56,
          "name": "G#3",
          "ticks": 67200,
          "time": 92.10425,
          "velocity": 0.5039370078740157
        },
        {
          "duration": 0.1315775000000059,
          "durationTicks": 96,
          "midi": 58,
          "name": "A#3",
          "ticks": 67296,
          "time": 92.23582749999998,
          "velocity": 0.4330708661417323
        },
        {
          "duration": 0.1315775000000059,
          "durationTicks": 96,
          "midi": 60,
          "name": "C4",
          "ticks": 67392,
          "time": 92.36740499999999,
          "velocity": 0.4566929133858268
        },
        {
          "duration": 0.1315774999999917,
          "durationTicks": 96,
          "midi": 58,
          "name": "A#3",
          "ticks": 67488,
          "time": 92.4989825,
          "velocity": 0.4330708661417323
        },
        {
          "duration": 0.3837677083333233,
          "durationTicks": 280,
          "midi": 72,
          "name": "C5",
          "ticks": 67584,
          "time": 92.63055999999999,
          "velocity": 0.5039370078740157
        },
        {
          "duration": 0.3837677083333233,
          "durationTicks": 280,
          "midi": 68,
          "name": "G#4",
          "ticks": 67584,
          "time": 92.63055999999999,
          "velocity": 0.5039370078740157
        },
        {
          "duration": 0.3837677083333233,
          "durationTicks": 280,
          "midi": 60,
          "name": "C4",
          "ticks": 67584,
          "time": 92.63055999999999,
          "velocity": 0.33070866141732286
        },
        {
          "duration": 0.3837677083333233,
          "durationTicks": 280,
          "midi": 63,
          "name": "D#4",
          "ticks": 67584,
          "time": 92.63055999999999,
          "velocity": 0.5433070866141733
        },
        {
          "duration": 0.3892501041666634,
          "durationTicks": 284,
          "midi": 63,
          "name": "D#4",
          "ticks": 67872,
          "time": 93.02529249999999,
          "velocity": 0.5039370078740157
        },
        {
          "duration": 0.3892501041666634,
          "durationTicks": 284,
          "midi": 60,
          "name": "C4",
          "ticks": 67872,
          "time": 93.02529249999999,
          "velocity": 0.25984251968503935
        },
        {
          "duration": 0.3892501041666634,
          "durationTicks": 284,
          "midi": 72,
          "name": "C5",
          "ticks": 67872,
          "time": 93.02529249999999,
          "velocity": 0.4566929133858268
        },
        {
          "duration": 0.3892501041666634,
          "durationTicks": 284,
          "midi": 68,
          "name": "G#4",
          "ticks": 67872,
          "time": 93.02529249999999,
          "velocity": 0.4330708661417323
        },
        {
          "duration": 0.7839826041666669,
          "durationTicks": 572,
          "midi": 65,
          "name": "F4",
          "ticks": 68160,
          "time": 93.420025,
          "velocity": 0.5826771653543307
        },
        {
          "duration": 0.7839826041666669,
          "durationTicks": 572,
          "midi": 70,
          "name": "A#4",
          "ticks": 68160,
          "time": 93.420025,
          "velocity": 0.5433070866141733
        },
        {
          "duration": 0.3892501041666634,
          "durationTicks": 284,
          "midi": 61,
          "name": "C#4",
          "ticks": 68160,
          "time": 93.420025,
          "velocity": 0.5039370078740157
        },
        {
          "duration": 0.1315775000000059,
          "durationTicks": 96,
          "midi": 60,
          "name": "C4",
          "ticks": 68448,
          "time": 93.81475749999998,
          "velocity": 0.3779527559055118
        },
        {
          "duration": 0.2631549999999976,
          "durationTicks": 192,
          "midi": 58,
          "name": "A#3",
          "ticks": 68544,
          "time": 93.94633499999999,
          "velocity": 0.4330708661417323
        },
        {
          "duration": 0.15898947916667794,
          "durationTicks": 116,
          "midi": 56,
          "name": "G#3",
          "ticks": 68740,
          "time": 94.21497239583331,
          "velocity": 0.5039370078740157
        },
        {
          "duration": 0.15350708333333785,
          "durationTicks": 112,
          "midi": 58,
          "name": "A#3",
          "ticks": 68860,
          "time": 94.37944427083332,
          "velocity": 0.4015748031496063
        },
        {
          "duration": 0.10964791666665974,
          "durationTicks": 80,
          "midi": 60,
          "name": "C4",
          "ticks": 68972,
          "time": 94.53295135416666,
          "velocity": 0.4015748031496063
        },
        {
          "duration": 0.1315775000000059,
          "durationTicks": 96,
          "midi": 58,
          "name": "A#3",
          "ticks": 69052,
          "time": 94.64259927083332,
          "velocity": 0.4330708661417323
        },
        {
          "duration": 0.4769684374999912,
          "durationTicks": 348,
          "midi": 61,
          "name": "C#4",
          "ticks": 69148,
          "time": 94.77417677083332,
          "velocity": 0.5039370078740157
        },
        {
          "duration": 0.27411979166664935,
          "durationTicks": 200,
          "midi": 63,
          "name": "D#4",
          "ticks": 69500,
          "time": 95.25662760416667,
          "velocity": 0.4330708661417323
        },
        {
          "duration": 0.2521902083333316,
          "durationTicks": 184,
          "midi": 60,
          "name": "C4",
          "ticks": 69704,
          "time": 95.53622979166666,
          "velocity": 0.5039370078740157
        },
        {
          "duration": 0.2631549999999976,
          "durationTicks": 192,
          "midi": 58,
          "name": "A#3",
          "ticks": 69888,
          "time": 95.78841999999999,
          "velocity": 0.4015748031496063
        },
        {
          "duration": 0.5153452083333292,
          "durationTicks": 376,
          "midi": 56,
          "name": "G#3",
          "ticks": 70080,
          "time": 96.05157499999999,
          "velocity": 0.4330708661417323
        },
        {
          "duration": 0.2576726041666717,
          "durationTicks": 188,
          "midi": 63,
          "name": "D#4",
          "ticks": 70464,
          "time": 96.577885,
          "velocity": 0.4015748031496063
        },
        {
          "duration": 0.2576726041666717,
          "durationTicks": 188,
          "midi": 72,
          "name": "C5",
          "ticks": 70464,
          "time": 96.577885,
          "velocity": 0.5039370078740157
        },
        {
          "duration": 0.2631549999999976,
          "durationTicks": 192,
          "midi": 56,
          "name": "G#3",
          "ticks": 70464,
          "time": 96.577885,
          "velocity": 0.4330708661417323
        },
        {
          "duration": 0.2576726041666717,
          "durationTicks": 188,
          "midi": 60,
          "name": "C4",
          "ticks": 70464,
          "time": 96.577885,
          "velocity": 0.4566929133858268
        },
        {
          "duration": 0.5208276041666693,
          "durationTicks": 380,
          "midi": 63,
          "name": "D#4",
          "ticks": 70656,
          "time": 96.84103999999999,
          "velocity": 0.5039370078740157
        },
        {
          "duration": 0.5208276041666693,
          "durationTicks": 380,
          "midi": 60,
          "name": "C4",
          "ticks": 70656,
          "time": 96.84103999999999,
          "velocity": 0.5433070866141733
        },
        {
          "duration": 0.5208276041666693,
          "durationTicks": 380,
          "midi": 72,
          "name": "C5",
          "ticks": 70656,
          "time": 96.84103999999999,
          "velocity": 0.5433070866141733
        },
        {
          "duration": 1.0416552083333244,
          "durationTicks": 760,
          "midi": 68,
          "name": "G#4",
          "ticks": 71040,
          "time": 97.36734999999999,
          "velocity": 0.5433070866141733
        },
        {
          "duration": 1.0416552083333244,
          "durationTicks": 760,
          "midi": 73,
          "name": "C#5",
          "ticks": 71040,
          "time": 97.36734999999999,
          "velocity": 0.4330708661417323
        },
        {
          "duration": 1.0416552083333244,
          "durationTicks": 760,
          "midi": 65,
          "name": "F4",
          "ticks": 71040,
          "time": 97.36734999999999,
          "velocity": 0.5433070866141733
        },
        {
          "duration": 1.0416552083333244,
          "durationTicks": 760,
          "midi": 61,
          "name": "C#4",
          "ticks": 71040,
          "time": 97.36734999999999,
          "velocity": 0.5039370078740157
        },
        {
          "duration": 0.1315774999999917,
          "durationTicks": 96,
          "midi": 56,
          "name": "G#3",
          "ticks": 71808,
          "time": 98.41996999999999,
          "velocity": 0.5039370078740157
        },
        {
          "duration": 0.1315775000000059,
          "durationTicks": 96,
          "midi": 58,
          "name": "A#3",
          "ticks": 71904,
          "time": 98.55154749999998,
          "velocity": 0.4330708661417323
        },
        {
          "duration": 0.1315775000000059,
          "durationTicks": 96,
          "midi": 61,
          "name": "C#4",
          "ticks": 72000,
          "time": 98.68312499999999,
          "velocity": 0.4330708661417323
        },
        {
          "duration": 0.1315774999999917,
          "durationTicks": 96,
          "midi": 58,
          "name": "A#3",
          "ticks": 72096,
          "time": 98.8147025,
          "velocity": 0.4330708661417323
        },
        {
          "duration": 0.3837677083333375,
          "durationTicks": 280,
          "midi": 73,
          "name": "C#5",
          "ticks": 72192,
          "time": 98.94627999999999,
          "velocity": 0.5039370078740157
        },
        {
          "duration": 0.3837677083333375,
          "durationTicks": 280,
          "midi": 68,
          "name": "G#4",
          "ticks": 72192,
          "time": 98.94627999999999,
          "velocity": 0.5039370078740157
        },
        {
          "duration": 0.3837677083333375,
          "durationTicks": 280,
          "midi": 61,
          "name": "C#4",
          "ticks": 72192,
          "time": 98.94627999999999,
          "velocity": 0.3779527559055118
        },
        {
          "duration": 0.3837677083333375,
          "durationTicks": 280,
          "midi": 65,
          "name": "F4",
          "ticks": 72192,
          "time": 98.94627999999999,
          "velocity": 0.6299212598425197
        },
        {
          "duration": 0.3892501041666634,
          "durationTicks": 284,
          "midi": 61,
          "name": "C#4",
          "ticks": 72480,
          "time": 99.34101249999999,
          "velocity": 0.3779527559055118
        },
        {
          "duration": 0.3837677083333233,
          "durationTicks": 280,
          "midi": 68,
          "name": "G#4",
          "ticks": 72480,
          "time": 99.34101249999999,
          "velocity": 0.5039370078740157
        },
        {
          "duration": 0.3892501041666634,
          "durationTicks": 284,
          "midi": 73,
          "name": "C#5",
          "ticks": 72480,
          "time": 99.34101249999999,
          "velocity": 0.5039370078740157
        },
        {
          "duration": 0.3892501041666634,
          "durationTicks": 284,
          "midi": 65,
          "name": "F4",
          "ticks": 72480,
          "time": 99.34101249999999,
          "velocity": 0.6299212598425197
        },
        {
          "duration": 0.7839826041666669,
          "durationTicks": 572,
          "midi": 68,
          "name": "G#4",
          "ticks": 72768,
          "time": 99.735745,
          "velocity": 0.5433070866141733
        },
        {
          "duration": 0.7839826041666669,
          "durationTicks": 572,
          "midi": 60,
          "name": "C4",
          "ticks": 72768,
          "time": 99.735745,
          "velocity": 0.4566929133858268
        },
        {
          "duration": 0.7839826041666669,
          "durationTicks": 572,
          "midi": 63,
          "name": "D#4",
          "ticks": 72768,
          "time": 99.735745,
          "velocity": 0.5433070866141733
        },
        {
          "duration": 0.7839826041666669,
          "durationTicks": 572,
          "midi": 72,
          "name": "C5",
          "ticks": 72768,
          "time": 99.735745,
          "velocity": 0.5433070866141733
        },
        {
          "duration": 0.1315775000000059,
          "durationTicks": 96,
          "midi": 56,
          "name": "G#3",
          "ticks": 73344,
          "time": 100.52520999999999,
          "velocity": 0.5039370078740157
        },
        {
          "duration": 0.1315774999999917,
          "durationTicks": 96,
          "midi": 58,
          "name": "A#3",
          "ticks": 73440,
          "time": 100.6567875,
          "velocity": 0.4330708661417323
        },
        {
          "duration": 0.1315775000000059,
          "durationTicks": 96,
          "midi": 60,
          "name": "C4",
          "ticks": 73536,
          "time": 100.78836499999998,
          "velocity": 0.4015748031496063
        },
        {
          "duration": 0.1315774999999917,
          "durationTicks": 96,
          "midi": 58,
          "name": "A#3",
          "ticks": 73632,
          "time": 100.91994249999999,
          "velocity": 0.5039370078740157
        },
        {
          "duration": 0.5153452083333292,
          "durationTicks": 376,
          "midi": 60,
          "name": "C4",
          "ticks": 73728,
          "time": 101.05151999999998,
          "velocity": 0.4330708661417323
        },
        {
          "duration": 0.5153452083333292,
          "durationTicks": 376,
          "midi": 63,
          "name": "D#4",
          "ticks": 73728,
          "time": 101.05151999999998,
          "velocity": 0.5433070866141733
        },
        {
          "duration": 0.5208276041666835,
          "durationTicks": 380,
          "midi": 68,
          "name": "G#4",
          "ticks": 73728,
          "time": 101.05151999999998,
          "velocity": 0.5433070866141733
        },
        {
          "duration": 0.5153452083333292,
          "durationTicks": 376,
          "midi": 72,
          "name": "C5",
          "ticks": 73728,
          "time": 101.05151999999998,
          "velocity": 0.5433070866141733
        },
        {
          "duration": 0.2631549999999976,
          "durationTicks": 192,
          "midi": 60,
          "name": "C4",
          "ticks": 74112,
          "time": 101.57782999999999,
          "velocity": 0.4566929133858268
        },
        {
          "duration": 0.2631549999999976,
          "durationTicks": 192,
          "midi": 72,
          "name": "C5",
          "ticks": 74112,
          "time": 101.57782999999999,
          "velocity": 0.5039370078740157
        },
        {
          "duration": 0.2631549999999976,
          "durationTicks": 192,
          "midi": 63,
          "name": "D#4",
          "ticks": 74112,
          "time": 101.57782999999999,
          "velocity": 0.5039370078740157
        },
        {
          "duration": 0.2631549999999976,
          "durationTicks": 192,
          "midi": 65,
          "name": "F4",
          "ticks": 74304,
          "time": 101.84098499999999,
          "velocity": 0.5039370078740157
        },
        {
          "duration": 0.2631549999999976,
          "durationTicks": 192,
          "midi": 73,
          "name": "C#5",
          "ticks": 74304,
          "time": 101.84098499999999,
          "velocity": 0.5039370078740157
        },
        {
          "duration": 0.2631549999999976,
          "durationTicks": 192,
          "midi": 61,
          "name": "C#4",
          "ticks": 74304,
          "time": 101.84098499999999,
          "velocity": 0.5039370078740157
        },
        {
          "duration": 0.1315775000000059,
          "durationTicks": 96,
          "midi": 60,
          "name": "C4",
          "ticks": 74496,
          "time": 102.10413999999999,
          "velocity": 0.2047244094488189
        },
        {
          "duration": 0.1315775000000059,
          "durationTicks": 96,
          "midi": 72,
          "name": "C5",
          "ticks": 74496,
          "time": 102.10413999999999,
          "velocity": 0.4015748031496063
        },
        {
          "duration": 0.1315775000000059,
          "durationTicks": 96,
          "midi": 63,
          "name": "D#4",
          "ticks": 74496,
          "time": 102.10413999999999,
          "velocity": 0.4015748031496063
        },
        {
          "duration": 0.3892501041666634,
          "durationTicks": 284,
          "midi": 58,
          "name": "A#3",
          "ticks": 74592,
          "time": 102.23571749999999,
          "velocity": 0.5039370078740157
        },
        {
          "duration": 0.3892501041666634,
          "durationTicks": 284,
          "midi": 61,
          "name": "C#4",
          "ticks": 74592,
          "time": 102.23571749999999,
          "velocity": 0.4015748031496063
        },
        {
          "duration": 0.3892501041666634,
          "durationTicks": 284,
          "midi": 70,
          "name": "A#4",
          "ticks": 74592,
          "time": 102.23571749999999,
          "velocity": 0.4015748031496063
        },
        {
          "duration": 0.1315774999999917,
          "durationTicks": 96,
          "midi": 56,
          "name": "G#3",
          "ticks": 74880,
          "time": 102.63045,
          "velocity": 0.5039370078740157
        },
        {
          "duration": 0.1315775000000059,
          "durationTicks": 96,
          "midi": 58,
          "name": "A#3",
          "ticks": 74976,
          "time": 102.76202749999999,
          "velocity": 0.4330708661417323
        },
        {
          "duration": 0.1315774999999917,
          "durationTicks": 96,
          "midi": 60,
          "name": "C4",
          "ticks": 75072,
          "time": 102.893605,
          "velocity": 0.4015748031496063
        },
        {
          "duration": 0.1699542708333297,
          "durationTicks": 124,
          "midi": 58,
          "name": "A#3",
          "ticks": 75168,
          "time": 103.02518249999999,
          "velocity": 0.5039370078740157
        },
        {
          "duration": 0.5208276041666693,
          "durationTicks": 380,
          "midi": 61,
          "name": "C#4",
          "ticks": 75292,
          "time": 103.19513677083332,
          "velocity": 0.5433070866141733
        },
        {
          "duration": 0.24670781250000573,
          "durationTicks": 180,
          "midi": 63,
          "name": "D#4",
          "ticks": 75676,
          "time": 103.72144677083331,
          "velocity": 0.4330708661417323
        },
        {
          "duration": 0.44407406250000747,
          "durationTicks": 324,
          "midi": 60,
          "name": "C4",
          "ticks": 75856,
          "time": 103.96815458333332,
          "velocity": 0.4566929133858268
        },
        {
          "duration": 0.14254229166665766,
          "durationTicks": 104,
          "midi": 58,
          "name": "A#3",
          "ticks": 76184,
          "time": 104.41771104166666,
          "velocity": 0.3779527559055118
        },
        {
          "duration": 0.44407406249999326,
          "durationTicks": 324,
          "midi": 56,
          "name": "G#3",
          "ticks": 76288,
          "time": 104.56025333333332,
          "velocity": 0.4330708661417323
        },
        {
          "duration": 0.24670781249999152,
          "durationTicks": 180,
          "midi": 56,
          "name": "G#3",
          "ticks": 76620,
          "time": 105.0152921875,
          "velocity": 0.5433070866141733
        },
        {
          "duration": 0.5208276041666693,
          "durationTicks": 380,
          "midi": 72,
          "name": "C5",
          "ticks": 76800,
          "time": 105.26199999999999,
          "velocity": 0.5433070866141733
        },
        {
          "duration": 0.5208276041666693,
          "durationTicks": 380,
          "midi": 63,
          "name": "D#4",
          "ticks": 76800,
          "time": 105.26199999999999,
          "velocity": 0.5433070866141733
        },
        {
          "duration": 0.5208276041666693,
          "durationTicks": 380,
          "midi": 60,
          "name": "C4",
          "ticks": 76800,
          "time": 105.26199999999999,
          "velocity": 0.4330708661417323
        },
        {
          "duration": 1.0416552083333244,
          "durationTicks": 760,
          "midi": 65,
          "name": "F4",
          "ticks": 77184,
          "time": 105.78831,
          "velocity": 0.5433070866141733
        },
        {
          "duration": 1.0416552083333244,
          "durationTicks": 760,
          "midi": 73,
          "name": "C#5",
          "ticks": 77184,
          "time": 105.78831,
          "velocity": 0.5039370078740157
        },
        {
          "duration": 1.0416552083333244,
          "durationTicks": 760,
          "midi": 68,
          "name": "G#4",
          "ticks": 77184,
          "time": 105.78831,
          "velocity": 0.5039370078740157
        },
        {
          "duration": 1.0416552083333244,
          "durationTicks": 760,
          "midi": 61,
          "name": "C#4",
          "ticks": 77184,
          "time": 105.78831,
          "velocity": 0.5039370078740157
        },
        {
          "duration": 0.1315775000000059,
          "durationTicks": 96,
          "midi": 56,
          "name": "G#3",
          "ticks": 77952,
          "time": 106.84092999999999,
          "velocity": 0.5039370078740157
        },
        {
          "duration": 0.1315774999999917,
          "durationTicks": 96,
          "midi": 58,
          "name": "A#3",
          "ticks": 78048,
          "time": 106.97250749999999,
          "velocity": 0.5039370078740157
        },
        {
          "duration": 0.1315775000000059,
          "durationTicks": 96,
          "midi": 61,
          "name": "C#4",
          "ticks": 78144,
          "time": 107.10408499999998,
          "velocity": 0.4330708661417323
        },
        {
          "duration": 0.1315775000000059,
          "durationTicks": 96,
          "midi": 58,
          "name": "A#3",
          "ticks": 78240,
          "time": 107.23566249999999,
          "velocity": 0.4330708661417323
        },
        {
          "duration": 0.3837677083333233,
          "durationTicks": 280,
          "midi": 73,
          "name": "C#5",
          "ticks": 78336,
          "time": 107.36724,
          "velocity": 0.5039370078740157
        },
        {
          "duration": 0.3837677083333233,
          "durationTicks": 280,
          "midi": 68,
          "name": "G#4",
          "ticks": 78336,
          "time": 107.36724,
          "velocity": 0.5039370078740157
        },
        {
          "duration": 0.3837677083333233,
          "durationTicks": 280,
          "midi": 65,
          "name": "F4",
          "ticks": 78336,
          "time": 107.36724,
          "velocity": 0.6299212598425197
        },
        {
          "duration": 0.3837677083333233,
          "durationTicks": 280,
          "midi": 61,
          "name": "C#4",
          "ticks": 78336,
          "time": 107.36724,
          "velocity": 0.3779527559055118
        },
        {
          "duration": 0.3892501041666776,
          "durationTicks": 284,
          "midi": 61,
          "name": "C#4",
          "ticks": 78624,
          "time": 107.76197249999998,
          "velocity": 0.31496062992125984
        },
        {
          "duration": 0.3892501041666776,
          "durationTicks": 284,
          "midi": 65,
          "name": "F4",
          "ticks": 78624,
          "time": 107.76197249999998,
          "velocity": 0.6299212598425197
        },
        {
          "duration": 0.3837677083333375,
          "durationTicks": 280,
          "midi": 68,
          "name": "G#4",
          "ticks": 78624,
          "time": 107.76197249999998,
          "velocity": 0.5039370078740157
        },
        {
          "duration": 0.3892501041666776,
          "durationTicks": 284,
          "midi": 73,
          "name": "C#5",
          "ticks": 78624,
          "time": 107.76197249999998,
          "velocity": 0.5433070866141733
        },
        {
          "duration": 0.7839826041666669,
          "durationTicks": 572,
          "midi": 72,
          "name": "C5",
          "ticks": 78912,
          "time": 108.15670499999999,
          "velocity": 0.5433070866141733
        },
        {
          "duration": 0.7839826041666669,
          "durationTicks": 572,
          "midi": 68,
          "name": "G#4",
          "ticks": 78912,
          "time": 108.15670499999999,
          "velocity": 0.5039370078740157
        },
        {
          "duration": 0.7839826041666669,
          "durationTicks": 572,
          "midi": 63,
          "name": "D#4",
          "ticks": 78912,
          "time": 108.15670499999999,
          "velocity": 0.5433070866141733
        },
        {
          "duration": 0.7839826041666669,
          "durationTicks": 572,
          "midi": 60,
          "name": "C4",
          "ticks": 78912,
          "time": 108.15670499999999,
          "velocity": 0.3779527559055118
        },
        {
          "duration": 0.1315774999999917,
          "durationTicks": 96,
          "midi": 56,
          "name": "G#3",
          "ticks": 79488,
          "time": 108.94617,
          "velocity": 0.5039370078740157
        },
        {
          "duration": 0.1315775000000059,
          "durationTicks": 96,
          "midi": 58,
          "name": "A#3",
          "ticks": 79584,
          "time": 109.07774749999999,
          "velocity": 0.4330708661417323
        },
        {
          "duration": 0.1315774999999917,
          "durationTicks": 96,
          "midi": 60,
          "name": "C4",
          "ticks": 79680,
          "time": 109.20932499999999,
          "velocity": 0.4566929133858268
        },
        {
          "duration": 0.1315775000000059,
          "durationTicks": 96,
          "midi": 58,
          "name": "A#3",
          "ticks": 79776,
          "time": 109.34090249999998,
          "velocity": 0.4330708661417323
        },
        {
          "duration": 0.3837677083333233,
          "durationTicks": 280,
          "midi": 60,
          "name": "C4",
          "ticks": 79872,
          "time": 109.47247999999999,
          "velocity": 0.33070866141732286
        },
        {
          "duration": 0.3837677083333233,
          "durationTicks": 280,
          "midi": 72,
          "name": "C5",
          "ticks": 79872,
          "time": 109.47247999999999,
          "velocity": 0.5039370078740157
        },
        {
          "duration": 0.3837677083333233,
          "durationTicks": 280,
          "midi": 68,
          "name": "G#4",
          "ticks": 79872,
          "time": 109.47247999999999,
          "velocity": 0.5039370078740157
        },
        {
          "duration": 0.3837677083333233,
          "durationTicks": 280,
          "midi": 63,
          "name": "D#4",
          "ticks": 79872,
          "time": 109.47247999999999,
          "velocity": 0.5433070866141733
        },
        {
          "duration": 0.3892501041666634,
          "durationTicks": 284,
          "midi": 63,
          "name": "D#4",
          "ticks": 80160,
          "time": 109.8672125,
          "velocity": 0.5039370078740157
        },
        {
          "duration": 0.3892501041666634,
          "durationTicks": 284,
          "midi": 60,
          "name": "C4",
          "ticks": 80160,
          "time": 109.8672125,
          "velocity": 0.25984251968503935
        },
        {
          "duration": 0.3892501041666634,
          "durationTicks": 284,
          "midi": 72,
          "name": "C5",
          "ticks": 80160,
          "time": 109.8672125,
          "velocity": 0.4566929133858268
        },
        {
          "duration": 0.3892501041666634,
          "durationTicks": 284,
          "midi": 68,
          "name": "G#4",
          "ticks": 80160,
          "time": 109.8672125,
          "velocity": 0.4330708661417323
        },
        {
          "duration": 0.7839826041666811,
          "durationTicks": 572,
          "midi": 65,
          "name": "F4",
          "ticks": 80448,
          "time": 110.26194499999998,
          "velocity": 0.5826771653543307
        },
        {
          "duration": 0.7839826041666811,
          "durationTicks": 572,
          "midi": 70,
          "name": "A#4",
          "ticks": 80448,
          "time": 110.26194499999998,
          "velocity": 0.5433070866141733
        },
        {
          "duration": 0.3892501041666776,
          "durationTicks": 284,
          "midi": 61,
          "name": "C#4",
          "ticks": 80448,
          "time": 110.26194499999998,
          "velocity": 0.5039370078740157
        },
        {
          "duration": 0.1315775000000059,
          "durationTicks": 96,
          "midi": 60,
          "name": "C4",
          "ticks": 80736,
          "time": 110.65667749999999,
          "velocity": 0.3779527559055118
        },
        {
          "duration": 0.2631549999999976,
          "durationTicks": 192,
          "midi": 58,
          "name": "A#3",
          "ticks": 80832,
          "time": 110.78825499999999,
          "velocity": 0.4330708661417323
        },
        {
          "duration": 0.15350708333333785,
          "durationTicks": 112,
          "midi": 56,
          "name": "G#3",
          "ticks": 81036,
          "time": 111.06785718749998,
          "velocity": 0.5039370078740157
        },
        {
          "duration": 0.15350708333333785,
          "durationTicks": 112,
          "midi": 58,
          "name": "A#3",
          "ticks": 81148,
          "time": 111.22136427083332,
          "velocity": 0.4015748031496063
        },
        {
          "duration": 0.10964791666665974,
          "durationTicks": 80,
          "midi": 60,
          "name": "C4",
          "ticks": 81260,
          "time": 111.37487135416666,
          "velocity": 0.4015748031496063
        },
        {
          "duration": 0.1315775000000059,
          "durationTicks": 96,
          "midi": 58,
          "name": "A#3",
          "ticks": 81340,
          "time": 111.48451927083332,
          "velocity": 0.4330708661417323
        },
        {
          "duration": 0.4769684374999912,
          "durationTicks": 348,
          "midi": 61,
          "name": "C#4",
          "ticks": 81436,
          "time": 111.61609677083332,
          "velocity": 0.5039370078740157
        },
        {
          "duration": 0.27411979166666356,
          "durationTicks": 200,
          "midi": 63,
          "name": "D#4",
          "ticks": 81788,
          "time": 112.09854760416665,
          "velocity": 0.4330708661417323
        },
        {
          "duration": 0.2521902083333316,
          "durationTicks": 184,
          "midi": 60,
          "name": "C4",
          "ticks": 81992,
          "time": 112.37814979166666,
          "velocity": 0.5039370078740157
        },
        {
          "duration": 0.2631549999999976,
          "durationTicks": 192,
          "midi": 58,
          "name": "A#3",
          "ticks": 82176,
          "time": 112.63033999999999,
          "velocity": 0.4015748031496063
        },
        {
          "duration": 0.5153452083333292,
          "durationTicks": 376,
          "midi": 56,
          "name": "G#3",
          "ticks": 82368,
          "time": 112.89349499999999,
          "velocity": 0.4330708661417323
        },
        {
          "duration": 0.2576726041666717,
          "durationTicks": 188,
          "midi": 63,
          "name": "D#4",
          "ticks": 82752,
          "time": 113.41980499999998,
          "velocity": 0.4015748031496063
        },
        {
          "duration": 0.2631550000000118,
          "durationTicks": 192,
          "midi": 56,
          "name": "G#3",
          "ticks": 82752,
          "time": 113.41980499999998,
          "velocity": 0.4330708661417323
        },
        {
          "duration": 0.2576726041666717,
          "durationTicks": 188,
          "midi": 72,
          "name": "C5",
          "ticks": 82752,
          "time": 113.41980499999998,
          "velocity": 0.5039370078740157
        },
        {
          "duration": 0.2576726041666717,
          "durationTicks": 188,
          "midi": 60,
          "name": "C4",
          "ticks": 82752,
          "time": 113.41980499999998,
          "velocity": 0.4566929133858268
        },
        {
          "duration": 0.5208276041666693,
          "durationTicks": 380,
          "midi": 72,
          "name": "C5",
          "ticks": 82944,
          "time": 113.68296,
          "velocity": 0.5433070866141733
        },
        {
          "duration": 0.5208276041666693,
          "durationTicks": 380,
          "midi": 63,
          "name": "D#4",
          "ticks": 82944,
          "time": 113.68296,
          "velocity": 0.5039370078740157
        },
        {
          "duration": 0.5208276041666693,
          "durationTicks": 380,
          "midi": 60,
          "name": "C4",
          "ticks": 82944,
          "time": 113.68296,
          "velocity": 0.5433070866141733
        },
        {
          "duration": 1.0416552083333244,
          "durationTicks": 760,
          "midi": 73,
          "name": "C#5",
          "ticks": 83328,
          "time": 114.20926999999999,
          "velocity": 0.4330708661417323
        },
        {
          "duration": 1.0416552083333244,
          "durationTicks": 760,
          "midi": 68,
          "name": "G#4",
          "ticks": 83328,
          "time": 114.20926999999999,
          "velocity": 0.5433070866141733
        },
        {
          "duration": 1.0416552083333244,
          "durationTicks": 760,
          "midi": 65,
          "name": "F4",
          "ticks": 83328,
          "time": 114.20926999999999,
          "velocity": 0.5433070866141733
        },
        {
          "duration": 1.0416552083333244,
          "durationTicks": 760,
          "midi": 61,
          "name": "C#4",
          "ticks": 83328,
          "time": 114.20926999999999,
          "velocity": 0.5039370078740157
        },
        {
          "duration": 0.1315774999999917,
          "durationTicks": 96,
          "midi": 56,
          "name": "G#3",
          "ticks": 84096,
          "time": 115.26189,
          "velocity": 0.5039370078740157
        },
        {
          "duration": 0.1315775000000059,
          "durationTicks": 96,
          "midi": 58,
          "name": "A#3",
          "ticks": 84192,
          "time": 115.39346749999999,
          "velocity": 0.4330708661417323
        },
        {
          "duration": 0.1315774999999917,
          "durationTicks": 96,
          "midi": 61,
          "name": "C#4",
          "ticks": 84288,
          "time": 115.52504499999999,
          "velocity": 0.4330708661417323
        },
        {
          "duration": 0.1315775000000059,
          "durationTicks": 96,
          "midi": 58,
          "name": "A#3",
          "ticks": 84384,
          "time": 115.65662249999998,
          "velocity": 0.4330708661417323
        },
        {
          "duration": 0.3837677083333233,
          "durationTicks": 280,
          "midi": 73,
          "name": "C#5",
          "ticks": 84480,
          "time": 115.78819999999999,
          "velocity": 0.5039370078740157
        },
        {
          "duration": 0.3837677083333233,
          "durationTicks": 280,
          "midi": 61,
          "name": "C#4",
          "ticks": 84480,
          "time": 115.78819999999999,
          "velocity": 0.3779527559055118
        },
        {
          "duration": 0.3837677083333233,
          "durationTicks": 280,
          "midi": 68,
          "name": "G#4",
          "ticks": 84480,
          "time": 115.78819999999999,
          "velocity": 0.5039370078740157
        },
        {
          "duration": 0.3837677083333233,
          "durationTicks": 280,
          "midi": 65,
          "name": "F4",
          "ticks": 84480,
          "time": 115.78819999999999,
          "velocity": 0.6299212598425197
        },
        {
          "duration": 0.3837677083333233,
          "durationTicks": 280,
          "midi": 68,
          "name": "G#4",
          "ticks": 84768,
          "time": 116.18293249999999,
          "velocity": 0.5039370078740157
        },
        {
          "duration": 0.3892501041666634,
          "durationTicks": 284,
          "midi": 61,
          "name": "C#4",
          "ticks": 84768,
          "time": 116.18293249999999,
          "velocity": 0.3779527559055118
        },
        {
          "duration": 0.3892501041666634,
          "durationTicks": 284,
          "midi": 73,
          "name": "C#5",
          "ticks": 84768,
          "time": 116.18293249999999,
          "velocity": 0.5039370078740157
        },
        {
          "duration": 0.3892501041666634,
          "durationTicks": 284,
          "midi": 65,
          "name": "F4",
          "ticks": 84768,
          "time": 116.18293249999999,
          "velocity": 0.6299212598425197
        },
        {
          "duration": 0.7839826041666811,
          "durationTicks": 572,
          "midi": 68,
          "name": "G#4",
          "ticks": 85056,
          "time": 116.57766499999998,
          "velocity": 0.5433070866141733
        },
        {
          "duration": 0.7839826041666811,
          "durationTicks": 572,
          "midi": 60,
          "name": "C4",
          "ticks": 85056,
          "time": 116.57766499999998,
          "velocity": 0.4566929133858268
        },
        {
          "duration": 0.7839826041666811,
          "durationTicks": 572,
          "midi": 63,
          "name": "D#4",
          "ticks": 85056,
          "time": 116.57766499999998,
          "velocity": 0.5433070866141733
        },
        {
          "duration": 0.7839826041666811,
          "durationTicks": 572,
          "midi": 72,
          "name": "C5",
          "ticks": 85056,
          "time": 116.57766499999998,
          "velocity": 0.5433070866141733
        },
        {
          "duration": 0.1315774999999917,
          "durationTicks": 96,
          "midi": 56,
          "name": "G#3",
          "ticks": 85632,
          "time": 117.36712999999999,
          "velocity": 0.5039370078740157
        },
        {
          "duration": 0.1315775000000059,
          "durationTicks": 96,
          "midi": 58,
          "name": "A#3",
          "ticks": 85728,
          "time": 117.49870749999998,
          "velocity": 0.4330708661417323
        },
        {
          "duration": 0.1315775000000059,
          "durationTicks": 96,
          "midi": 60,
          "name": "C4",
          "ticks": 85824,
          "time": 117.63028499999999,
          "velocity": 0.4015748031496063
        },
        {
          "duration": 0.1315774999999917,
          "durationTicks": 96,
          "midi": 58,
          "name": "A#3",
          "ticks": 85920,
          "time": 117.76186249999999,
          "velocity": 0.5039370078740157
        },
        {
          "duration": 0.5153452083333292,
          "durationTicks": 376,
          "midi": 60,
          "name": "C4",
          "ticks": 86016,
          "time": 117.89343999999998,
          "velocity": 0.4330708661417323
        },
        {
          "duration": 0.5153452083333292,
          "durationTicks": 376,
          "midi": 63,
          "name": "D#4",
          "ticks": 86016,
          "time": 117.89343999999998,
          "velocity": 0.5433070866141733
        },
        {
          "duration": 0.5208276041666693,
          "durationTicks": 380,
          "midi": 68,
          "name": "G#4",
          "ticks": 86016,
          "time": 117.89343999999998,
          "velocity": 0.5433070866141733
        },
        {
          "duration": 0.5153452083333292,
          "durationTicks": 376,
          "midi": 72,
          "name": "C5",
          "ticks": 86016,
          "time": 117.89343999999998,
          "velocity": 0.5433070866141733
        },
        {
          "duration": 0.2631549999999976,
          "durationTicks": 192,
          "midi": 60,
          "name": "C4",
          "ticks": 86400,
          "time": 118.41975,
          "velocity": 0.4566929133858268
        },
        {
          "duration": 0.2631549999999976,
          "durationTicks": 192,
          "midi": 72,
          "name": "C5",
          "ticks": 86400,
          "time": 118.41975,
          "velocity": 0.5039370078740157
        },
        {
          "duration": 0.2631549999999976,
          "durationTicks": 192,
          "midi": 63,
          "name": "D#4",
          "ticks": 86400,
          "time": 118.41975,
          "velocity": 0.5039370078740157
        },
        {
          "duration": 0.2631549999999976,
          "durationTicks": 192,
          "midi": 65,
          "name": "F4",
          "ticks": 86592,
          "time": 118.68290499999999,
          "velocity": 0.5039370078740157
        },
        {
          "duration": 0.2631549999999976,
          "durationTicks": 192,
          "midi": 73,
          "name": "C#5",
          "ticks": 86592,
          "time": 118.68290499999999,
          "velocity": 0.5039370078740157
        },
        {
          "duration": 0.2631549999999976,
          "durationTicks": 192,
          "midi": 61,
          "name": "C#4",
          "ticks": 86592,
          "time": 118.68290499999999,
          "velocity": 0.5039370078740157
        },
        {
          "duration": 0.1315775000000059,
          "durationTicks": 96,
          "midi": 60,
          "name": "C4",
          "ticks": 86784,
          "time": 118.94605999999999,
          "velocity": 0.2047244094488189
        },
        {
          "duration": 0.1315775000000059,
          "durationTicks": 96,
          "midi": 72,
          "name": "C5",
          "ticks": 86784,
          "time": 118.94605999999999,
          "velocity": 0.4015748031496063
        },
        {
          "duration": 0.1315775000000059,
          "durationTicks": 96,
          "midi": 63,
          "name": "D#4",
          "ticks": 86784,
          "time": 118.94605999999999,
          "velocity": 0.4015748031496063
        },
        {
          "duration": 0.3892501041666634,
          "durationTicks": 284,
          "midi": 58,
          "name": "A#3",
          "ticks": 86880,
          "time": 119.0776375,
          "velocity": 0.5039370078740157
        },
        {
          "duration": 0.3892501041666634,
          "durationTicks": 284,
          "midi": 61,
          "name": "C#4",
          "ticks": 86880,
          "time": 119.0776375,
          "velocity": 0.4015748031496063
        },
        {
          "duration": 0.3892501041666634,
          "durationTicks": 284,
          "midi": 70,
          "name": "A#4",
          "ticks": 86880,
          "time": 119.0776375,
          "velocity": 0.4015748031496063
        },
        {
          "duration": 0.1315775000000059,
          "durationTicks": 96,
          "midi": 56,
          "name": "G#3",
          "ticks": 87168,
          "time": 119.47236999999998,
          "velocity": 0.5039370078740157
        },
        {
          "duration": 0.15350708333332364,
          "durationTicks": 112,
          "midi": 58,
          "name": "A#3",
          "ticks": 87236,
          "time": 119.56557072916667,
          "velocity": 0.4330708661417323
        },
        {
          "duration": 0.13705989583333178,
          "durationTicks": 100,
          "midi": 60,
          "name": "C4",
          "ticks": 87348,
          "time": 119.71907781249999,
          "velocity": 0.4015748031496063
        },
        {
          "duration": 0.18091906249999568,
          "durationTicks": 132,
          "midi": 58,
          "name": "A#3",
          "ticks": 87448,
          "time": 119.85613770833332,
          "velocity": 0.5039370078740157
        },
        {
          "duration": 0.5208276041666693,
          "durationTicks": 380,
          "midi": 61,
          "name": "C#4",
          "ticks": 87580,
          "time": 120.03705677083332,
          "velocity": 0.5433070866141733
        },
        {
          "duration": 0.24670781250000573,
          "durationTicks": 180,
          "midi": 63,
          "name": "D#4",
          "ticks": 87964,
          "time": 120.56336677083331,
          "velocity": 0.4330708661417323
        },
        {
          "duration": 0.44407406249999326,
          "durationTicks": 324,
          "midi": 60,
          "name": "C4",
          "ticks": 88144,
          "time": 120.81007458333332,
          "velocity": 0.4566929133858268
        },
        {
          "duration": 0.14254229166664345,
          "durationTicks": 104,
          "midi": 58,
          "name": "A#3",
          "ticks": 88472,
          "time": 121.25963104166667,
          "velocity": 0.3779527559055118
        },
        {
          "duration": 0.44407406250000747,
          "durationTicks": 324,
          "midi": 56,
          "name": "G#3",
          "ticks": 88576,
          "time": 121.40217333333331,
          "velocity": 0.4330708661417323
        },
        {
          "duration": 0.24122541666667985,
          "durationTicks": 176,
          "midi": 56,
          "name": "G#3",
          "ticks": 88908,
          "time": 121.85721218749998,
          "velocity": 0.5433070866141733
        },
        {
          "duration": 0.5208276041666693,
          "durationTicks": 380,
          "midi": 60,
          "name": "C4",
          "ticks": 89088,
          "time": 122.10391999999999,
          "velocity": 0.4330708661417323
        },
        {
          "duration": 0.5208276041666693,
          "durationTicks": 380,
          "midi": 63,
          "name": "D#4",
          "ticks": 89088,
          "time": 122.10391999999999,
          "velocity": 0.5433070866141733
        },
        {
          "duration": 0.5208276041666693,
          "durationTicks": 380,
          "midi": 72,
          "name": "C5",
          "ticks": 89088,
          "time": 122.10391999999999,
          "velocity": 0.5433070866141733
        },
        {
          "duration": 1.5624828125000079,
          "durationTicks": 1140,
          "midi": 65,
          "name": "F4",
          "ticks": 89472,
          "time": 122.63022999999998,
          "velocity": 0.5433070866141733
        },
        {
          "duration": 1.5624828125000079,
          "durationTicks": 1140,
          "midi": 73,
          "name": "C#5",
          "ticks": 89472,
          "time": 122.63022999999998,
          "velocity": 0.5039370078740157
        },
        {
          "duration": 1.5624828125000079,
          "durationTicks": 1140,
          "midi": 68,
          "name": "G#4",
          "ticks": 89472,
          "time": 122.63022999999998,
          "velocity": 0.5039370078740157
        },
        {
          "duration": 1.5624828125000079,
          "durationTicks": 1140,
          "midi": 61,
          "name": "C#4",
          "ticks": 89472,
          "time": 122.63022999999998,
          "velocity": 0.5039370078740157
        },
        {
          "duration": 0.3837677083333233,
          "durationTicks": 280,
          "midi": 73,
          "name": "C#5",
          "ticks": 92160,
          "time": 126.31439999999999,
          "velocity": 0.5039370078740157
        },
        {
          "duration": 0.3837677083333233,
          "durationTicks": 280,
          "midi": 68,
          "name": "G#4",
          "ticks": 92160,
          "time": 126.31439999999999,
          "velocity": 0.33858267716535434
        },
        {
          "duration": 0.3837677083333233,
          "durationTicks": 280,
          "midi": 70,
          "name": "A#4",
          "ticks": 92160,
          "time": 126.31439999999999,
          "velocity": 0.4251968503937008
        },
        {
          "duration": 0.3837677083333233,
          "durationTicks": 280,
          "midi": 65,
          "name": "F4",
          "ticks": 92160,
          "time": 126.31439999999999,
          "velocity": 0.33858267716535434
        },
        {
          "duration": 0.3892501041666776,
          "durationTicks": 284,
          "midi": 70,
          "name": "A#4",
          "ticks": 92448,
          "time": 126.70913249999998,
          "velocity": 0.3858267716535433
        },
        {
          "duration": 0.3892501041666776,
          "durationTicks": 284,
          "midi": 73,
          "name": "C#5",
          "ticks": 92448,
          "time": 126.70913249999998,
          "velocity": 0.5039370078740157
        },
        {
          "duration": 0.3892501041666776,
          "durationTicks": 284,
          "midi": 65,
          "name": "F4",
          "ticks": 92448,
          "time": 126.70913249999998,
          "velocity": 0.3464566929133858
        },
        {
          "duration": 0.3837677083333375,
          "durationTicks": 280,
          "midi": 68,
          "name": "G#4",
          "ticks": 92448,
          "time": 126.70913249999998,
          "velocity": 0.33858267716535434
        },
        {
          "duration": 0.7346410416666771,
          "durationTicks": 536,
          "midi": 68,
          "name": "G#4",
          "ticks": 92736,
          "time": 127.10386499999998,
          "velocity": 0.3858267716535433
        },
        {
          "duration": 0.7346410416666771,
          "durationTicks": 536,
          "midi": 72,
          "name": "C5",
          "ticks": 92736,
          "time": 127.10386499999998,
          "velocity": 0.4330708661417323
        },
        {
          "duration": 0.7346410416666771,
          "durationTicks": 536,
          "midi": 63,
          "name": "D#4",
          "ticks": 92736,
          "time": 127.10386499999998,
          "velocity": 0.3464566929133858
        },
        {
          "duration": 0.3837677083333233,
          "durationTicks": 280,
          "midi": 73,
          "name": "C#5",
          "ticks": 95232,
          "time": 130.52488,
          "velocity": 0.5039370078740157
        },
        {
          "duration": 0.3837677083333233,
          "durationTicks": 280,
          "midi": 68,
          "name": "G#4",
          "ticks": 95232,
          "time": 130.52488,
          "velocity": 0.33858267716535434
        },
        {
          "duration": 0.3837677083333233,
          "durationTicks": 280,
          "midi": 70,
          "name": "A#4",
          "ticks": 95232,
          "time": 130.52488,
          "velocity": 0.4251968503937008
        },
        {
          "duration": 0.3837677083333233,
          "durationTicks": 280,
          "midi": 65,
          "name": "F4",
          "ticks": 95232,
          "time": 130.52488,
          "velocity": 0.33858267716535434
        },
        {
          "duration": 0.3892501041666492,
          "durationTicks": 284,
          "midi": 70,
          "name": "A#4",
          "ticks": 95520,
          "time": 130.9196125,
          "velocity": 0.3858267716535433
        },
        {
          "duration": 0.3892501041666492,
          "durationTicks": 284,
          "midi": 73,
          "name": "C#5",
          "ticks": 95520,
          "time": 130.9196125,
          "velocity": 0.5039370078740157
        },
        {
          "duration": 0.3892501041666492,
          "durationTicks": 284,
          "midi": 65,
          "name": "F4",
          "ticks": 95520,
          "time": 130.9196125,
          "velocity": 0.3464566929133858
        },
        {
          "duration": 0.3837677083333233,
          "durationTicks": 280,
          "midi": 68,
          "name": "G#4",
          "ticks": 95520,
          "time": 130.9196125,
          "velocity": 0.33858267716535434
        },
        {
          "duration": 0.7346410416666913,
          "durationTicks": 536,
          "midi": 68,
          "name": "G#4",
          "ticks": 95808,
          "time": 131.31434499999997,
          "velocity": 0.3858267716535433
        },
        {
          "duration": 0.7346410416666913,
          "durationTicks": 536,
          "midi": 72,
          "name": "C5",
          "ticks": 95808,
          "time": 131.31434499999997,
          "velocity": 0.4330708661417323
        },
        {
          "duration": 0.7346410416666913,
          "durationTicks": 536,
          "midi": 63,
          "name": "D#4",
          "ticks": 95808,
          "time": 131.31434499999997,
          "velocity": 0.3464566929133858
        },
        {
          "duration": 0.09868312500000798,
          "durationTicks": 72,
          "midi": 56,
          "name": "G#3",
          "ticks": 96976,
          "time": 132.91520458333332,
          "velocity": 0.5039370078740157
        },
        {
          "duration": 0.13705989583331757,
          "durationTicks": 100,
          "midi": 58,
          "name": "A#3",
          "ticks": 97048,
          "time": 133.01388770833333,
          "velocity": 0.4330708661417323
        },
        {
          "duration": 0.1260951041666658,
          "durationTicks": 92,
          "midi": 61,
          "name": "C#4",
          "ticks": 97148,
          "time": 133.15094760416665,
          "velocity": 0.4015748031496063
        },
        {
          "duration": 0.15898947916667794,
          "durationTicks": 116,
          "midi": 58,
          "name": "A#3",
          "ticks": 97240,
          "time": 133.2770427083333,
          "velocity": 0.5039370078740157
        },
        {
          "duration": 0.2521902083333316,
          "durationTicks": 184,
          "midi": 65,
          "name": "F4",
          "ticks": 97356,
          "time": 133.4360321875,
          "velocity": 0.5826771653543307
        },
        {
          "duration": 0.1315774999999917,
          "durationTicks": 96,
          "midi": 56,
          "name": "G#3",
          "ticks": 97540,
          "time": 133.68822239583332,
          "velocity": 0.4330708661417323
        },
        {
          "duration": 0.1315774999999917,
          "durationTicks": 96,
          "midi": 58,
          "name": "A#3",
          "ticks": 97636,
          "time": 133.8197998958333,
          "velocity": 0.4330708661417323
        },
        {
          "duration": 0.11513031250001404,
          "durationTicks": 84,
          "midi": 61,
          "name": "C#4",
          "ticks": 97732,
          "time": 133.9513773958333,
          "velocity": 0.5039370078740157
        },
        {
          "duration": 0.1260951041666658,
          "durationTicks": 92,
          "midi": 58,
          "name": "A#3",
          "ticks": 97816,
          "time": 134.06650770833332,
          "velocity": 0.5433070866141733
        },
        {
          "duration": 0.531792395833321,
          "durationTicks": 388,
          "midi": 65,
          "name": "F4",
          "ticks": 97908,
          "time": 134.19260281249998,
          "velocity": 0.6299212598425197
        },
        {
          "duration": 0.3837677083333517,
          "durationTicks": 280,
          "midi": 73,
          "name": "C#5",
          "ticks": 98304,
          "time": 134.73536,
          "velocity": 0.5039370078740157
        },
        {
          "duration": 0.3837677083333517,
          "durationTicks": 280,
          "midi": 68,
          "name": "G#4",
          "ticks": 98304,
          "time": 134.73536,
          "velocity": 0.33858267716535434
        },
        {
          "duration": 0.3837677083333517,
          "durationTicks": 280,
          "midi": 70,
          "name": "A#4",
          "ticks": 98304,
          "time": 134.73536,
          "velocity": 0.4251968503937008
        },
        {
          "duration": 0.3837677083333517,
          "durationTicks": 280,
          "midi": 65,
          "name": "F4",
          "ticks": 98304,
          "time": 134.73536,
          "velocity": 0.33858267716535434
        },
        {
          "duration": 0.3837677083333517,
          "durationTicks": 280,
          "midi": 68,
          "name": "G#4",
          "ticks": 98592,
          "time": 135.1300925,
          "velocity": 0.33858267716535434
        },
        {
          "duration": 0.3892501041666492,
          "durationTicks": 284,
          "midi": 73,
          "name": "C#5",
          "ticks": 98592,
          "time": 135.1300925,
          "velocity": 0.5039370078740157
        },
        {
          "duration": 0.3892501041666492,
          "durationTicks": 284,
          "midi": 65,
          "name": "F4",
          "ticks": 98592,
          "time": 135.1300925,
          "velocity": 0.3464566929133858
        },
        {
          "duration": 0.3892501041666492,
          "durationTicks": 284,
          "midi": 70,
          "name": "A#4",
          "ticks": 98592,
          "time": 135.1300925,
          "velocity": 0.3858267716535433
        },
        {
          "duration": 0.7346410416666629,
          "durationTicks": 536,
          "midi": 68,
          "name": "G#4",
          "ticks": 98880,
          "time": 135.524825,
          "velocity": 0.3858267716535433
        },
        {
          "duration": 0.7346410416666629,
          "durationTicks": 536,
          "midi": 72,
          "name": "C5",
          "ticks": 98880,
          "time": 135.524825,
          "velocity": 0.4330708661417323
        },
        {
          "duration": 0.7346410416666629,
          "durationTicks": 536,
          "midi": 63,
          "name": "D#4",
          "ticks": 98880,
          "time": 135.524825,
          "velocity": 0.3464566929133858
        },
        {
          "duration": 0.09868312499997955,
          "durationTicks": 72,
          "midi": 56,
          "name": "G#3",
          "ticks": 100048,
          "time": 137.12568458333334,
          "velocity": 0.5039370078740157
        },
        {
          "duration": 0.13705989583331757,
          "durationTicks": 100,
          "midi": 58,
          "name": "A#3",
          "ticks": 100120,
          "time": 137.22436770833332,
          "velocity": 0.4330708661417323
        },
        {
          "duration": 0.12609510416669423,
          "durationTicks": 92,
          "midi": 61,
          "name": "C#4",
          "ticks": 100220,
          "time": 137.36142760416664,
          "velocity": 0.4015748031496063
        },
        {
          "duration": 0.15898947916664952,
          "durationTicks": 116,
          "midi": 58,
          "name": "A#3",
          "ticks": 100312,
          "time": 137.48752270833333,
          "velocity": 0.5039370078740157
        },
        {
          "duration": 0.25219020833336003,
          "durationTicks": 184,
          "midi": 65,
          "name": "F4",
          "ticks": 100428,
          "time": 137.64651218749998,
          "velocity": 0.5826771653543307
        },
        {
          "duration": 0.1315774999999917,
          "durationTicks": 96,
          "midi": 56,
          "name": "G#3",
          "ticks": 100612,
          "time": 137.89870239583334,
          "velocity": 0.4330708661417323
        },
        {
          "duration": 0.1315774999999917,
          "durationTicks": 96,
          "midi": 58,
          "name": "A#3",
          "ticks": 100708,
          "time": 138.03027989583333,
          "velocity": 0.4330708661417323
        },
        {
          "duration": 0.11513031250001404,
          "durationTicks": 84,
          "midi": 61,
          "name": "C#4",
          "ticks": 100804,
          "time": 138.16185739583332,
          "velocity": 0.5039370078740157
        },
        {
          "duration": 0.12609510416663738,
          "durationTicks": 92,
          "midi": 58,
          "name": "A#3",
          "ticks": 100888,
          "time": 138.27698770833334,
          "velocity": 0.5433070866141733
        },
        {
          "duration": 0.5317923958333495,
          "durationTicks": 388,
          "midi": 65,
          "name": "F4",
          "ticks": 100980,
          "time": 138.40308281249997,
          "velocity": 0.6299212598425197
        },
        {
          "duration": 0.3837677083333517,
          "durationTicks": 280,
          "midi": 65,
          "name": "F4",
          "ticks": 101376,
          "time": 138.94583999999998,
          "velocity": 0.33858267716535434
        },
        {
          "duration": 0.3837677083333517,
          "durationTicks": 280,
          "midi": 73,
          "name": "C#5",
          "ticks": 101376,
          "time": 138.94583999999998,
          "velocity": 0.5039370078740157
        },
        {
          "duration": 0.3837677083333517,
          "durationTicks": 280,
          "midi": 68,
          "name": "G#4",
          "ticks": 101376,
          "time": 138.94583999999998,
          "velocity": 0.33858267716535434
        },
        {
          "duration": 0.3837677083333517,
          "durationTicks": 280,
          "midi": 70,
          "name": "A#4",
          "ticks": 101376,
          "time": 138.94583999999998,
          "velocity": 0.4251968503937008
        },
        {
          "duration": 0.3892501041666492,
          "durationTicks": 284,
          "midi": 70,
          "name": "A#4",
          "ticks": 101664,
          "time": 139.34057249999998,
          "velocity": 0.3858267716535433
        },
        {
          "duration": 0.3892501041666492,
          "durationTicks": 284,
          "midi": 73,
          "name": "C#5",
          "ticks": 101664,
          "time": 139.34057249999998,
          "velocity": 0.5039370078740157
        },
        {
          "duration": 0.3892501041666492,
          "durationTicks": 284,
          "midi": 65,
          "name": "F4",
          "ticks": 101664,
          "time": 139.34057249999998,
          "velocity": 0.3464566929133858
        },
        {
          "duration": 0.3837677083333517,
          "durationTicks": 280,
          "midi": 68,
          "name": "G#4",
          "ticks": 101664,
          "time": 139.34057249999998,
          "velocity": 0.33858267716535434
        },
        {
          "duration": 1.3048102083333504,
          "durationTicks": 952,
          "midi": 68,
          "name": "G#4",
          "ticks": 101952,
          "time": 139.73530499999998,
          "velocity": 0.3858267716535433
        },
        {
          "duration": 1.3048102083333504,
          "durationTicks": 952,
          "midi": 72,
          "name": "C5",
          "ticks": 101952,
          "time": 139.73530499999998,
          "velocity": 0.4330708661417323
        },
        {
          "duration": 1.3048102083333504,
          "durationTicks": 952,
          "midi": 63,
          "name": "D#4",
          "ticks": 101952,
          "time": 139.73530499999998,
          "velocity": 0.3464566929133858
        },
        {
          "duration": 0.2576726041666575,
          "durationTicks": 188,
          "midi": 61,
          "name": "C#4",
          "ticks": 103092,
          "time": 141.2977878125,
          "velocity": 0.4566929133858268
        },
        {
          "duration": 0.2576726041666575,
          "durationTicks": 188,
          "midi": 61,
          "name": "C#4",
          "ticks": 103284,
          "time": 141.56094281249997,
          "velocity": 0.5275590551181102
        },
        {
          "duration": 0.274119791666692,
          "durationTicks": 200,
          "midi": 58,
          "name": "A#3",
          "ticks": 103472,
          "time": 141.81861541666663,
          "velocity": 0.5275590551181102
        },
        {
          "duration": 0.2576726041666575,
          "durationTicks": 188,
          "midi": 61,
          "name": "C#4",
          "ticks": 103672,
          "time": 142.09273520833332,
          "velocity": 0.5275590551181102
        },
        {
          "duration": 1.0416552083333386,
          "durationTicks": 760,
          "midi": 63,
          "name": "D#4",
          "ticks": 103860,
          "time": 142.35040781249998,
          "velocity": 0.5275590551181102
        },
        {
          "duration": 0.2631550000000118,
          "durationTicks": 192,
          "midi": 60,
          "name": "C4",
          "ticks": 104628,
          "time": 143.40302781249997,
          "velocity": 0.48031496062992124
        },
        {
          "duration": 0.27411979166666356,
          "durationTicks": 200,
          "midi": 58,
          "name": "A#3",
          "ticks": 104820,
          "time": 143.66618281249998,
          "velocity": 0.4566929133858268
        },
        {
          "duration": 0.1315775000000201,
          "durationTicks": 96,
          "midi": 60,
          "name": "C4",
          "ticks": 105024,
          "time": 143.94578499999997,
          "velocity": 0.4251968503937008
        },
        {
          "duration": 0.14254229166664345,
          "durationTicks": 104,
          "midi": 58,
          "name": "A#3",
          "ticks": 105120,
          "time": 144.0773625,
          "velocity": 0.4015748031496063
        },
        {
          "duration": 1.2554686458333606,
          "durationTicks": 916,
          "midi": 56,
          "name": "G#3",
          "ticks": 105224,
          "time": 144.21990479166664,
          "velocity": 0.4251968503937008
        },
        {
          "duration": 0.274119791666692,
          "durationTicks": 200,
          "midi": 58,
          "name": "A#3",
          "ticks": 106148,
          "time": 145.48633822916665,
          "velocity": 0.5275590551181102
        },
        {
          "duration": 0.2686373958333377,
          "durationTicks": 196,
          "midi": 58,
          "name": "A#3",
          "ticks": 106352,
          "time": 145.76594041666664,
          "velocity": 0.5669291338582677
        },
        {
          "duration": 0.27411979166666356,
          "durationTicks": 200,
          "midi": 60,
          "name": "C4",
          "ticks": 106548,
          "time": 146.03457781249998,
          "velocity": 0.48031496062992124
        },
        {
          "duration": 0.2521902083333316,
          "durationTicks": 184,
          "midi": 61,
          "name": "C#4",
          "ticks": 106748,
          "time": 146.30869760416664,
          "velocity": 0.4566929133858268
        },
        {
          "duration": 0.27411979166666356,
          "durationTicks": 200,
          "midi": 58,
          "name": "A#3",
          "ticks": 106932,
          "time": 146.56088781249997,
          "velocity": 0.5275590551181102
        },
        {
          "duration": 0.7785002083333552,
          "durationTicks": 568,
          "midi": 56,
          "name": "G#3",
          "ticks": 107132,
          "time": 146.83500760416663,
          "velocity": 0.5275590551181102
        },
        {
          "duration": 0.27411979166666356,
          "durationTicks": 200,
          "midi": 68,
          "name": "G#4",
          "ticks": 107704,
          "time": 147.61899020833332,
          "velocity": 0.5669291338582677
        },
        {
          "duration": 0.274119791666692,
          "durationTicks": 200,
          "midi": 68,
          "name": "G#4",
          "ticks": 107912,
          "time": 147.90407479166663,
          "velocity": 0.5669291338582677
        },
        {
          "duration": 0.5043804166666916,
          "durationTicks": 368,
          "midi": 63,
          "name": "D#4",
          "ticks": 108116,
          "time": 148.18367697916665,
          "velocity": 0.5275590551181102
        },
        {
          "duration": 0.25219020833336003,
          "durationTicks": 184,
          "midi": 65,
          "name": "F4",
          "ticks": 108488,
          "time": 148.69353979166664,
          "velocity": 0.6062992125984252
        },
        {
          "duration": 0.2521902083333316,
          "durationTicks": 184,
          "midi": 63,
          "name": "D#4",
          "ticks": 108672,
          "time": 148.94573,
          "velocity": 0.4566929133858268
        },
        {
          "duration": 0.5098628124999891,
          "durationTicks": 372,
          "midi": 61,
          "name": "C#4",
          "ticks": 108856,
          "time": 149.19792020833333,
          "velocity": 0.4566929133858268
        },
        {
          "duration": 0.25767260416662907,
          "durationTicks": 188,
          "midi": 61,
          "name": "C#4",
          "ticks": 109236,
          "time": 149.7187478125,
          "velocity": 0.4566929133858268
        },
        {
          "duration": 0.2521902083333316,
          "durationTicks": 184,
          "midi": 61,
          "name": "C#4",
          "ticks": 109428,
          "time": 149.98190281249998,
          "velocity": 0.4566929133858268
        },
        {
          "duration": 0.2631550000000118,
          "durationTicks": 192,
          "midi": 58,
          "name": "A#3",
          "ticks": 109612,
          "time": 150.2340930208333,
          "velocity": 0.4566929133858268
        },
        {
          "duration": 0.26863739583330926,
          "durationTicks": 196,
          "midi": 61,
          "name": "C#4",
          "ticks": 109804,
          "time": 150.49724802083333,
          "velocity": 0.5275590551181102
        },
        {
          "duration": 0.274119791666692,
          "durationTicks": 200,
          "midi": 58,
          "name": "A#3",
          "ticks": 110000,
          "time": 150.76588541666663,
          "velocity": 0.5275590551181102
        },
        {
          "duration": 0.2850845833333153,
          "durationTicks": 208,
          "midi": 61,
          "name": "C#4",
          "ticks": 110200,
          "time": 151.04000520833333,
          "velocity": 0.5275590551181102
        },
        {
          "duration": 0.5153452083333434,
          "durationTicks": 376,
          "midi": 63,
          "name": "D#4",
          "ticks": 110412,
          "time": 151.3305721875,
          "velocity": 0.5275590551181102
        },
        {
          "duration": 0.2576726041666859,
          "durationTicks": 188,
          "midi": 60,
          "name": "C4",
          "ticks": 110792,
          "time": 151.85139979166664,
          "velocity": 0.5275590551181102
        },
        {
          "duration": 0.2576726041666575,
          "durationTicks": 188,
          "midi": 58,
          "name": "A#3",
          "ticks": 110980,
          "time": 152.10907239583332,
          "velocity": 0.4566929133858268
        },
        {
          "duration": 0.11513031250001404,
          "durationTicks": 84,
          "midi": 60,
          "name": "C4",
          "ticks": 111168,
          "time": 152.36674499999998,
          "velocity": 0.4251968503937008
        },
        {
          "duration": 0.12609510416663738,
          "durationTicks": 92,
          "midi": 58,
          "name": "A#3",
          "ticks": 111252,
          "time": 152.4818753125,
          "velocity": 0.4251968503937008
        },
        {
          "duration": 1.3102926041667047,
          "durationTicks": 956,
          "midi": 56,
          "name": "G#3",
          "ticks": 111344,
          "time": 152.60797041666663,
          "velocity": 0.4566929133858268
        },
        {
          "duration": 0.24670781250000573,
          "durationTicks": 180,
          "midi": 58,
          "name": "A#3",
          "ticks": 112308,
          "time": 153.9292278125,
          "velocity": 0.5275590551181102
        },
        {
          "duration": 0.27411979166666356,
          "durationTicks": 200,
          "midi": 58,
          "name": "A#3",
          "ticks": 112492,
          "time": 154.18141802083332,
          "velocity": 0.4566929133858268
        },
        {
          "duration": 0.27411979166666356,
          "durationTicks": 200,
          "midi": 60,
          "name": "C4",
          "ticks": 112692,
          "time": 154.45553781249998,
          "velocity": 0.4566929133858268
        },
        {
          "duration": 0.2576726041666859,
          "durationTicks": 188,
          "midi": 61,
          "name": "C#4",
          "ticks": 112892,
          "time": 154.72965760416665,
          "velocity": 0.4566929133858268
        },
        {
          "duration": 0.26863739583330926,
          "durationTicks": 196,
          "midi": 58,
          "name": "A#3",
          "ticks": 113080,
          "time": 154.98733020833333,
          "velocity": 0.5275590551181102
        },
        {
          "duration": 0.8004297916666872,
          "durationTicks": 584,
          "midi": 56,
          "name": "G#3",
          "ticks": 113276,
          "time": 155.25596760416664,
          "velocity": 0.5669291338582677
        },
        {
          "duration": 0.28508458333334374,
          "durationTicks": 208,
          "midi": 63,
          "name": "D#4",
          "ticks": 113864,
          "time": 156.06187979166663,
          "velocity": 0.4566929133858268
        },
        {
          "duration": 0.2576726041666575,
          "durationTicks": 188,
          "midi": 65,
          "name": "F4",
          "ticks": 114076,
          "time": 156.35244677083332,
          "velocity": 0.5669291338582677
        },
        {
          "duration": 0.48793322916665716,
          "durationTicks": 356,
          "midi": 65,
          "name": "F4",
          "ticks": 114268,
          "time": 156.61560177083334,
          "velocity": 0.6062992125984252
        },
        {
          "duration": 0.7839826041666527,
          "durationTicks": 572,
          "midi": 63,
          "name": "D#4",
          "ticks": 114628,
          "time": 157.10901739583332,
          "velocity": 0.5669291338582677
        },
        {
          "duration": 1.2883630208333159,
          "durationTicks": 940,
          "midi": 61,
          "name": "C#4",
          "ticks": 115204,
          "time": 157.89848239583333,
          "velocity": 0.5275590551181102
        },
        {
          "duration": 0.26863739583330926,
          "durationTicks": 196,
          "midi": 63,
          "name": "D#4",
          "ticks": 116152,
          "time": 159.19781020833332,
          "velocity": 0.5275590551181102
        },
        {
          "duration": 0.2631550000000118,
          "durationTicks": 192,
          "midi": 65,
          "name": "F4",
          "ticks": 116348,
          "time": 159.46644760416663,
          "velocity": 0.5669291338582677
        },
        {
          "duration": 0.2631549999999834,
          "durationTicks": 192,
          "midi": 61,
          "name": "C#4",
          "ticks": 116540,
          "time": 159.72960260416664,
          "velocity": 0.4566929133858268
        },
        {
          "duration": 0.274119791666692,
          "durationTicks": 200,
          "midi": 63,
          "name": "D#4",
          "ticks": 116732,
          "time": 159.99275760416663,
          "velocity": 0.4566929133858268
        },
        {
          "duration": 0.23026062499999966,
          "durationTicks": 168,
          "midi": 63,
          "name": "D#4",
          "ticks": 116936,
          "time": 160.27235979166664,
          "velocity": 0.5669291338582677
        },
        {
          "duration": 0.2686373958333661,
          "durationTicks": 196,
          "midi": 63,
          "name": "D#4",
          "ticks": 117108,
          "time": 160.50810281249997,
          "velocity": 0.5669291338582677
        },
        {
          "duration": 0.2521902083333032,
          "durationTicks": 184,
          "midi": 65,
          "name": "F4",
          "ticks": 117304,
          "time": 160.77674020833334,
          "velocity": 0.5275590551181102
        },
        {
          "duration": 0.2521902083333316,
          "durationTicks": 184,
          "midi": 63,
          "name": "D#4",
          "ticks": 117488,
          "time": 161.02893041666664,
          "velocity": 0.5275590551181102
        },
        {
          "duration": 0.28508458333334374,
          "durationTicks": 208,
          "midi": 56,
          "name": "G#3",
          "ticks": 117672,
          "time": 161.28112062499997,
          "velocity": 0.4566929133858268
        },
        {
          "duration": 1.5624828124999794,
          "durationTicks": 1140,
          "midi": 56,
          "name": "G#3",
          "ticks": 117888,
          "time": 161.57717,
          "velocity": 0.6062992125984252
        },
        {
          "duration": 0.2521902083333316,
          "durationTicks": 184,
          "midi": 58,
          "name": "A#3",
          "ticks": 119040,
          "time": 163.15609999999998,
          "velocity": 0.5669291338582677
        },
        {
          "duration": 0.2686373958333377,
          "durationTicks": 196,
          "midi": 60,
          "name": "C4",
          "ticks": 119224,
          "time": 163.4082902083333,
          "velocity": 0.48031496062992124
        },
        {
          "duration": 0.2631549999999834,
          "durationTicks": 192,
          "midi": 61,
          "name": "C#4",
          "ticks": 119420,
          "time": 163.67692760416665,
          "velocity": 0.5275590551181102
        },
        {
          "duration": 0.5427571875000012,
          "durationTicks": 396,
          "midi": 58,
          "name": "A#3",
          "ticks": 119612,
          "time": 163.94008260416663,
          "velocity": 0.6062992125984252
        },
        {
          "duration": 0.2686373958333377,
          "durationTicks": 196,
          "midi": 63,
          "name": "D#4",
          "ticks": 120012,
          "time": 164.4883221875,
          "velocity": 0.5275590551181102
        },
        {
          "duration": 0.24122541666665143,
          "durationTicks": 176,
          "midi": 65,
          "name": "F4",
          "ticks": 120208,
          "time": 164.75695958333333,
          "velocity": 0.5669291338582677
        },
        {
          "duration": 0.7839826041666527,
          "durationTicks": 572,
          "midi": 63,
          "name": "D#4",
          "ticks": 120384,
          "time": 164.99818499999998,
          "velocity": 0.5275590551181102
        },
        {
          "duration": 0.1315774999999917,
          "durationTicks": 96,
          "midi": 56,
          "name": "G#3",
          "ticks": 120960,
          "time": 165.78764999999999,
          "velocity": 0.5275590551181102
        },
        {
          "duration": 0.11513031250001404,
          "durationTicks": 84,
          "midi": 58,
          "name": "A#3",
          "ticks": 121056,
          "time": 165.91922749999998,
          "velocity": 0.5275590551181102
        },
        {
          "duration": 0.10964791666665974,
          "durationTicks": 80,
          "midi": 61,
          "name": "C#4",
          "ticks": 121140,
          "time": 166.0343578125,
          "velocity": 0.4566929133858268
        },
        {
          "duration": 0.1699542708333297,
          "durationTicks": 124,
          "midi": 58,
          "name": "A#3",
          "ticks": 121220,
          "time": 166.14400572916665,
          "velocity": 0.4566929133858268
        },
        {
          "duration": 0.3837677083333517,
          "durationTicks": 280,
          "midi": 73,
          "name": "C#5",
          "ticks": 121344,
          "time": 166.31395999999998,
          "velocity": 0.5039370078740157
        },
        {
          "duration": 0.3837677083333517,
          "durationTicks": 280,
          "midi": 68,
          "name": "G#4",
          "ticks": 121344,
          "time": 166.31395999999998,
          "velocity": 0.5039370078740157
        },
        {
          "duration": 0.3837677083333517,
          "durationTicks": 280,
          "midi": 65,
          "name": "F4",
          "ticks": 121344,
          "time": 166.31395999999998,
          "velocity": 0.6535433070866141
        },
        {
          "duration": 0.3837677083333517,
          "durationTicks": 280,
          "midi": 61,
          "name": "C#4",
          "ticks": 121344,
          "time": 166.31395999999998,
          "velocity": 0.3779527559055118
        },
        {
          "duration": 0.3892501041666492,
          "durationTicks": 284,
          "midi": 61,
          "name": "C#4",
          "ticks": 121632,
          "time": 166.70869249999998,
          "velocity": 0.31496062992125984
        },
        {
          "duration": 0.3892501041666492,
          "durationTicks": 284,
          "midi": 73,
          "name": "C#5",
          "ticks": 121632,
          "time": 166.70869249999998,
          "velocity": 0.5433070866141733
        },
        {
          "duration": 0.3892501041666492,
          "durationTicks": 284,
          "midi": 65,
          "name": "F4",
          "ticks": 121632,
          "time": 166.70869249999998,
          "velocity": 0.6299212598425197
        },
        {
          "duration": 0.3837677083333517,
          "durationTicks": 280,
          "midi": 68,
          "name": "G#4",
          "ticks": 121632,
          "time": 166.70869249999998,
          "velocity": 0.5039370078740157
        },
        {
          "duration": 0.7839826041666527,
          "durationTicks": 572,
          "midi": 72,
          "name": "C5",
          "ticks": 121920,
          "time": 167.103425,
          "velocity": 0.5433070866141733
        },
        {
          "duration": 0.7839826041666527,
          "durationTicks": 572,
          "midi": 68,
          "name": "G#4",
          "ticks": 121920,
          "time": 167.103425,
          "velocity": 0.5039370078740157
        },
        {
          "duration": 0.7839826041666527,
          "durationTicks": 572,
          "midi": 63,
          "name": "D#4",
          "ticks": 121920,
          "time": 167.103425,
          "velocity": 0.5433070866141733
        },
        {
          "duration": 0.7839826041666527,
          "durationTicks": 572,
          "midi": 60,
          "name": "C4",
          "ticks": 121920,
          "time": 167.103425,
          "velocity": 0.3779527559055118
        },
        {
          "duration": 0.1315774999999917,
          "durationTicks": 96,
          "midi": 56,
          "name": "G#3",
          "ticks": 122496,
          "time": 167.89289,
          "velocity": 0.5039370078740157
        },
        {
          "duration": 0.1315774999999917,
          "durationTicks": 96,
          "midi": 58,
          "name": "A#3",
          "ticks": 122592,
          "time": 168.0244675,
          "velocity": 0.4330708661417323
        },
        {
          "duration": 0.1315774999999917,
          "durationTicks": 96,
          "midi": 60,
          "name": "C4",
          "ticks": 122688,
          "time": 168.15604499999998,
          "velocity": 0.4566929133858268
        },
        {
          "duration": 0.1315775000000201,
          "durationTicks": 96,
          "midi": 58,
          "name": "A#3",
          "ticks": 122784,
          "time": 168.28762249999997,
          "velocity": 0.4330708661417323
        },
        {
          "duration": 0.3837677083333233,
          "durationTicks": 280,
          "midi": 72,
          "name": "C5",
          "ticks": 122880,
          "time": 168.4192,
          "velocity": 0.5039370078740157
        },
        {
          "duration": 0.3837677083333233,
          "durationTicks": 280,
          "midi": 68,
          "name": "G#4",
          "ticks": 122880,
          "time": 168.4192,
          "velocity": 0.5039370078740157
        },
        {
          "duration": 0.3837677083333233,
          "durationTicks": 280,
          "midi": 60,
          "name": "C4",
          "ticks": 122880,
          "time": 168.4192,
          "velocity": 0.33070866141732286
        },
        {
          "duration": 0.3837677083333233,
          "durationTicks": 280,
          "midi": 63,
          "name": "D#4",
          "ticks": 122880,
          "time": 168.4192,
          "velocity": 0.5433070866141733
        },
        {
          "duration": 0.3892501041666492,
          "durationTicks": 284,
          "midi": 63,
          "name": "D#4",
          "ticks": 123168,
          "time": 168.8139325,
          "velocity": 0.5039370078740157
        },
        {
          "duration": 0.3892501041666492,
          "durationTicks": 284,
          "midi": 60,
          "name": "C4",
          "ticks": 123168,
          "time": 168.8139325,
          "velocity": 0.25984251968503935
        },
        {
          "duration": 0.3892501041666492,
          "durationTicks": 284,
          "midi": 72,
          "name": "C5",
          "ticks": 123168,
          "time": 168.8139325,
          "velocity": 0.4566929133858268
        },
        {
          "duration": 0.3892501041666492,
          "durationTicks": 284,
          "midi": 68,
          "name": "G#4",
          "ticks": 123168,
          "time": 168.8139325,
          "velocity": 0.4330708661417323
        },
        {
          "duration": 0.7839826041666527,
          "durationTicks": 572,
          "midi": 65,
          "name": "F4",
          "ticks": 123456,
          "time": 169.208665,
          "velocity": 0.5826771653543307
        },
        {
          "duration": 0.7839826041666527,
          "durationTicks": 572,
          "midi": 70,
          "name": "A#4",
          "ticks": 123456,
          "time": 169.208665,
          "velocity": 0.5433070866141733
        },
        {
          "duration": 0.3892501041666492,
          "durationTicks": 284,
          "midi": 61,
          "name": "C#4",
          "ticks": 123456,
          "time": 169.208665,
          "velocity": 0.5039370078740157
        },
        {
          "duration": 0.1315775000000201,
          "durationTicks": 96,
          "midi": 60,
          "name": "C4",
          "ticks": 123744,
          "time": 169.60339749999997,
          "velocity": 0.3779527559055118
        },
        {
          "duration": 0.2631549999999834,
          "durationTicks": 192,
          "midi": 58,
          "name": "A#3",
          "ticks": 123840,
          "time": 169.734975,
          "velocity": 0.4330708661417323
        },
        {
          "duration": 0.15898947916664952,
          "durationTicks": 116,
          "midi": 56,
          "name": "G#3",
          "ticks": 124036,
          "time": 170.00361239583333,
          "velocity": 0.5039370078740157
        },
        {
          "duration": 0.1535070833332952,
          "durationTicks": 112,
          "midi": 58,
          "name": "A#3",
          "ticks": 124156,
          "time": 170.16808427083333,
          "velocity": 0.4015748031496063
        },
        {
          "duration": 0.10964791666668816,
          "durationTicks": 80,
          "midi": 60,
          "name": "C4",
          "ticks": 124268,
          "time": 170.32159135416663,
          "velocity": 0.4015748031496063
        },
        {
          "duration": 0.1315775000000201,
          "durationTicks": 96,
          "midi": 58,
          "name": "A#3",
          "ticks": 124348,
          "time": 170.43123927083332,
          "velocity": 0.4330708661417323
        },
        {
          "duration": 0.47696843749997697,
          "durationTicks": 348,
          "midi": 61,
          "name": "C#4",
          "ticks": 124444,
          "time": 170.56281677083334,
          "velocity": 0.5039370078740157
        },
        {
          "duration": 0.274119791666692,
          "durationTicks": 200,
          "midi": 63,
          "name": "D#4",
          "ticks": 124796,
          "time": 171.04526760416664,
          "velocity": 0.4330708661417323
        },
        {
          "duration": 0.25219020833336003,
          "durationTicks": 184,
          "midi": 60,
          "name": "C4",
          "ticks": 125000,
          "time": 171.32486979166663,
          "velocity": 0.5039370078740157
        },
        {
          "duration": 0.2631549999999834,
          "durationTicks": 192,
          "midi": 58,
          "name": "A#3",
          "ticks": 125184,
          "time": 171.57706,
          "velocity": 0.4015748031496063
        },
        {
          "duration": 0.5153452083333434,
          "durationTicks": 376,
          "midi": 56,
          "name": "G#3",
          "ticks": 125376,
          "time": 171.84021499999997,
          "velocity": 0.4330708661417323
        },
        {
          "duration": 0.25767260416662907,
          "durationTicks": 188,
          "midi": 63,
          "name": "D#4",
          "ticks": 125760,
          "time": 172.366525,
          "velocity": 0.4015748031496063
        },
        {
          "duration": 0.25767260416662907,
          "durationTicks": 188,
          "midi": 72,
          "name": "C5",
          "ticks": 125760,
          "time": 172.366525,
          "velocity": 0.5039370078740157
        },
        {
          "duration": 0.2631549999999834,
          "durationTicks": 192,
          "midi": 56,
          "name": "G#3",
          "ticks": 125760,
          "time": 172.366525,
          "velocity": 0.4330708661417323
        },
        {
          "duration": 0.25767260416662907,
          "durationTicks": 188,
          "midi": 60,
          "name": "C4",
          "ticks": 125760,
          "time": 172.366525,
          "velocity": 0.4566929133858268
        },
        {
          "duration": 0.5208276041666693,
          "durationTicks": 380,
          "midi": 63,
          "name": "D#4",
          "ticks": 125952,
          "time": 172.62967999999998,
          "velocity": 0.5039370078740157
        },
        {
          "duration": 0.5208276041666693,
          "durationTicks": 380,
          "midi": 60,
          "name": "C4",
          "ticks": 125952,
          "time": 172.62967999999998,
          "velocity": 0.5433070866141733
        },
        {
          "duration": 0.5208276041666693,
          "durationTicks": 380,
          "midi": 72,
          "name": "C5",
          "ticks": 125952,
          "time": 172.62967999999998,
          "velocity": 0.5433070866141733
        },
        {
          "duration": 1.0416552083333386,
          "durationTicks": 760,
          "midi": 68,
          "name": "G#4",
          "ticks": 126336,
          "time": 173.15598999999997,
          "velocity": 0.5433070866141733
        },
        {
          "duration": 1.0416552083333386,
          "durationTicks": 760,
          "midi": 73,
          "name": "C#5",
          "ticks": 126336,
          "time": 173.15598999999997,
          "velocity": 0.4330708661417323
        },
        {
          "duration": 1.0416552083333386,
          "durationTicks": 760,
          "midi": 65,
          "name": "F4",
          "ticks": 126336,
          "time": 173.15598999999997,
          "velocity": 0.5433070866141733
        },
        {
          "duration": 1.0416552083333386,
          "durationTicks": 760,
          "midi": 61,
          "name": "C#4",
          "ticks": 126336,
          "time": 173.15598999999997,
          "velocity": 0.5039370078740157
        },
        {
          "duration": 0.1315774999999917,
          "durationTicks": 96,
          "midi": 56,
          "name": "G#3",
          "ticks": 127104,
          "time": 174.20861,
          "velocity": 0.5039370078740157
        },
        {
          "duration": 0.1315774999999917,
          "durationTicks": 96,
          "midi": 58,
          "name": "A#3",
          "ticks": 127200,
          "time": 174.34018749999998,
          "velocity": 0.4330708661417323
        },
        {
          "duration": 0.1315774999999917,
          "durationTicks": 96,
          "midi": 61,
          "name": "C#4",
          "ticks": 127296,
          "time": 174.47176499999998,
          "velocity": 0.4330708661417323
        },
        {
          "duration": 0.1315775000000201,
          "durationTicks": 96,
          "midi": 58,
          "name": "A#3",
          "ticks": 127392,
          "time": 174.60334249999997,
          "velocity": 0.4330708661417323
        },
        {
          "duration": 0.3837677083333233,
          "durationTicks": 280,
          "midi": 73,
          "name": "C#5",
          "ticks": 127488,
          "time": 174.73492,
          "velocity": 0.5039370078740157
        },
        {
          "duration": 0.3837677083333233,
          "durationTicks": 280,
          "midi": 68,
          "name": "G#4",
          "ticks": 127488,
          "time": 174.73492,
          "velocity": 0.5039370078740157
        },
        {
          "duration": 0.3837677083333233,
          "durationTicks": 280,
          "midi": 61,
          "name": "C#4",
          "ticks": 127488,
          "time": 174.73492,
          "velocity": 0.3779527559055118
        },
        {
          "duration": 0.3837677083333233,
          "durationTicks": 280,
          "midi": 65,
          "name": "F4",
          "ticks": 127488,
          "time": 174.73492,
          "velocity": 0.6299212598425197
        },
        {
          "duration": 0.3892501041666492,
          "durationTicks": 284,
          "midi": 61,
          "name": "C#4",
          "ticks": 127776,
          "time": 175.1296525,
          "velocity": 0.3779527559055118
        },
        {
          "duration": 0.3837677083333233,
          "durationTicks": 280,
          "midi": 68,
          "name": "G#4",
          "ticks": 127776,
          "time": 175.1296525,
          "velocity": 0.5039370078740157
        },
        {
          "duration": 0.3892501041666492,
          "durationTicks": 284,
          "midi": 73,
          "name": "C#5",
          "ticks": 127776,
          "time": 175.1296525,
          "velocity": 0.5039370078740157
        },
        {
          "duration": 0.3892501041666492,
          "durationTicks": 284,
          "midi": 65,
          "name": "F4",
          "ticks": 127776,
          "time": 175.1296525,
          "velocity": 0.6299212598425197
        },
        {
          "duration": 0.7839826041666527,
          "durationTicks": 572,
          "midi": 68,
          "name": "G#4",
          "ticks": 128064,
          "time": 175.524385,
          "velocity": 0.5433070866141733
        },
        {
          "duration": 0.7839826041666527,
          "durationTicks": 572,
          "midi": 60,
          "name": "C4",
          "ticks": 128064,
          "time": 175.524385,
          "velocity": 0.4566929133858268
        },
        {
          "duration": 0.7839826041666527,
          "durationTicks": 572,
          "midi": 63,
          "name": "D#4",
          "ticks": 128064,
          "time": 175.524385,
          "velocity": 0.5433070866141733
        },
        {
          "duration": 0.7839826041666527,
          "durationTicks": 572,
          "midi": 72,
          "name": "C5",
          "ticks": 128064,
          "time": 175.524385,
          "velocity": 0.5433070866141733
        },
        {
          "duration": 0.1315775000000201,
          "durationTicks": 96,
          "midi": 56,
          "name": "G#3",
          "ticks": 128640,
          "time": 176.31384999999997,
          "velocity": 0.5039370078740157
        },
        {
          "duration": 0.1315774999999917,
          "durationTicks": 96,
          "midi": 58,
          "name": "A#3",
          "ticks": 128736,
          "time": 176.4454275,
          "velocity": 0.4330708661417323
        },
        {
          "duration": 0.1315774999999917,
          "durationTicks": 96,
          "midi": 60,
          "name": "C4",
          "ticks": 128832,
          "time": 176.57700499999999,
          "velocity": 0.4015748031496063
        },
        {
          "duration": 0.1315774999999917,
          "durationTicks": 96,
          "midi": 58,
          "name": "A#3",
          "ticks": 128928,
          "time": 176.70858249999998,
          "velocity": 0.5039370078740157
        },
        {
          "duration": 0.5153452083333434,
          "durationTicks": 376,
          "midi": 60,
          "name": "C4",
          "ticks": 129024,
          "time": 176.84015999999997,
          "velocity": 0.4330708661417323
        },
        {
          "duration": 0.5153452083333434,
          "durationTicks": 376,
          "midi": 63,
          "name": "D#4",
          "ticks": 129024,
          "time": 176.84015999999997,
          "velocity": 0.5433070866141733
        },
        {
          "duration": 0.5208276041666693,
          "durationTicks": 380,
          "midi": 68,
          "name": "G#4",
          "ticks": 129024,
          "time": 176.84015999999997,
          "velocity": 0.5433070866141733
        },
        {
          "duration": 0.5153452083333434,
          "durationTicks": 376,
          "midi": 72,
          "name": "C5",
          "ticks": 129024,
          "time": 176.84015999999997,
          "velocity": 0.5433070866141733
        },
        {
          "duration": 0.2631549999999834,
          "durationTicks": 192,
          "midi": 60,
          "name": "C4",
          "ticks": 129408,
          "time": 177.36647,
          "velocity": 0.4566929133858268
        },
        {
          "duration": 0.2631549999999834,
          "durationTicks": 192,
          "midi": 72,
          "name": "C5",
          "ticks": 129408,
          "time": 177.36647,
          "velocity": 0.5039370078740157
        },
        {
          "duration": 0.2631549999999834,
          "durationTicks": 192,
          "midi": 63,
          "name": "D#4",
          "ticks": 129408,
          "time": 177.36647,
          "velocity": 0.5039370078740157
        },
        {
          "duration": 0.2631550000000118,
          "durationTicks": 192,
          "midi": 65,
          "name": "F4",
          "ticks": 129600,
          "time": 177.62962499999998,
          "velocity": 0.5039370078740157
        },
        {
          "duration": 0.2631550000000118,
          "durationTicks": 192,
          "midi": 73,
          "name": "C#5",
          "ticks": 129600,
          "time": 177.62962499999998,
          "velocity": 0.5039370078740157
        },
        {
          "duration": 0.2631550000000118,
          "durationTicks": 192,
          "midi": 61,
          "name": "C#4",
          "ticks": 129600,
          "time": 177.62962499999998,
          "velocity": 0.5039370078740157
        },
        {
          "duration": 0.1315774999999917,
          "durationTicks": 96,
          "midi": 60,
          "name": "C4",
          "ticks": 129792,
          "time": 177.89278,
          "velocity": 0.2047244094488189
        },
        {
          "duration": 0.1315774999999917,
          "durationTicks": 96,
          "midi": 72,
          "name": "C5",
          "ticks": 129792,
          "time": 177.89278,
          "velocity": 0.4015748031496063
        },
        {
          "duration": 0.1315774999999917,
          "durationTicks": 96,
          "midi": 63,
          "name": "D#4",
          "ticks": 129792,
          "time": 177.89278,
          "velocity": 0.4015748031496063
        },
        {
          "duration": 0.3892501041666492,
          "durationTicks": 284,
          "midi": 58,
          "name": "A#3",
          "ticks": 129888,
          "time": 178.02435749999998,
          "velocity": 0.5039370078740157
        },
        {
          "duration": 0.3892501041666492,
          "durationTicks": 284,
          "midi": 61,
          "name": "C#4",
          "ticks": 129888,
          "time": 178.02435749999998,
          "velocity": 0.4015748031496063
        },
        {
          "duration": 0.3892501041666492,
          "durationTicks": 284,
          "midi": 70,
          "name": "A#4",
          "ticks": 129888,
          "time": 178.02435749999998,
          "velocity": 0.4015748031496063
        },
        {
          "duration": 0.1315774999999917,
          "durationTicks": 96,
          "midi": 56,
          "name": "G#3",
          "ticks": 130176,
          "time": 178.41908999999998,
          "velocity": 0.5039370078740157
        },
        {
          "duration": 0.1315775000000201,
          "durationTicks": 96,
          "midi": 58,
          "name": "A#3",
          "ticks": 130272,
          "time": 178.55066749999997,
          "velocity": 0.4330708661417323
        },
        {
          "duration": 0.1315774999999917,
          "durationTicks": 96,
          "midi": 60,
          "name": "C4",
          "ticks": 130368,
          "time": 178.682245,
          "velocity": 0.4015748031496063
        },
        {
          "duration": 0.1699542708333297,
          "durationTicks": 124,
          "midi": 58,
          "name": "A#3",
          "ticks": 130464,
          "time": 178.8138225,
          "velocity": 0.5039370078740157
        },
        {
          "duration": 0.5208276041666693,
          "durationTicks": 380,
          "midi": 61,
          "name": "C#4",
          "ticks": 130588,
          "time": 178.98377677083332,
          "velocity": 0.5433070866141733
        },
        {
          "duration": 0.24670781250000573,
          "durationTicks": 180,
          "midi": 63,
          "name": "D#4",
          "ticks": 130972,
          "time": 179.5100867708333,
          "velocity": 0.4330708661417323
        },
        {
          "duration": 0.44407406249999326,
          "durationTicks": 324,
          "midi": 60,
          "name": "C4",
          "ticks": 131152,
          "time": 179.75679458333332,
          "velocity": 0.4566929133858268
        },
        {
          "duration": 0.1425422916667003,
          "durationTicks": 104,
          "midi": 58,
          "name": "A#3",
          "ticks": 131480,
          "time": 180.20635104166664,
          "velocity": 0.3779527559055118
        },
        {
          "duration": 0.44407406249999326,
          "durationTicks": 324,
          "midi": 56,
          "name": "G#3",
          "ticks": 131584,
          "time": 180.34889333333334,
          "velocity": 0.4330708661417323
        },
        {
          "duration": 0.24670781250000573,
          "durationTicks": 180,
          "midi": 56,
          "name": "G#3",
          "ticks": 131916,
          "time": 180.80393218749998,
          "velocity": 0.5433070866141733
        },
        {
          "duration": 0.5208276041666409,
          "durationTicks": 380,
          "midi": 72,
          "name": "C5",
          "ticks": 132096,
          "time": 181.05064,
          "velocity": 0.5433070866141733
        },
        {
          "duration": 0.5208276041666409,
          "durationTicks": 380,
          "midi": 63,
          "name": "D#4",
          "ticks": 132096,
          "time": 181.05064,
          "velocity": 0.5433070866141733
        },
        {
          "duration": 0.5208276041666409,
          "durationTicks": 380,
          "midi": 60,
          "name": "C4",
          "ticks": 132096,
          "time": 181.05064,
          "velocity": 0.4330708661417323
        },
        {
          "duration": 1.0416552083333386,
          "durationTicks": 760,
          "midi": 65,
          "name": "F4",
          "ticks": 132480,
          "time": 181.57694999999998,
          "velocity": 0.5433070866141733
        },
        {
          "duration": 1.0416552083333386,
          "durationTicks": 760,
          "midi": 73,
          "name": "C#5",
          "ticks": 132480,
          "time": 181.57694999999998,
          "velocity": 0.5039370078740157
        },
        {
          "duration": 1.0416552083333386,
          "durationTicks": 760,
          "midi": 68,
          "name": "G#4",
          "ticks": 132480,
          "time": 181.57694999999998,
          "velocity": 0.5039370078740157
        },
        {
          "duration": 1.0416552083333386,
          "durationTicks": 760,
          "midi": 61,
          "name": "C#4",
          "ticks": 132480,
          "time": 181.57694999999998,
          "velocity": 0.5039370078740157
        },
        {
          "duration": 0.1315775000000201,
          "durationTicks": 96,
          "midi": 56,
          "name": "G#3",
          "ticks": 133248,
          "time": 182.62956999999997,
          "velocity": 0.5039370078740157
        },
        {
          "duration": 0.1315774999999917,
          "durationTicks": 96,
          "midi": 58,
          "name": "A#3",
          "ticks": 133344,
          "time": 182.7611475,
          "velocity": 0.5039370078740157
        },
        {
          "duration": 0.1315774999999917,
          "durationTicks": 96,
          "midi": 61,
          "name": "C#4",
          "ticks": 133440,
          "time": 182.89272499999998,
          "velocity": 0.4330708661417323
        },
        {
          "duration": 0.1315774999999917,
          "durationTicks": 96,
          "midi": 58,
          "name": "A#3",
          "ticks": 133536,
          "time": 183.02430249999998,
          "velocity": 0.4330708661417323
        },
        {
          "duration": 0.3837677083333517,
          "durationTicks": 280,
          "midi": 73,
          "name": "C#5",
          "ticks": 133632,
          "time": 183.15587999999997,
          "velocity": 0.5039370078740157
        },
        {
          "duration": 0.3837677083333517,
          "durationTicks": 280,
          "midi": 68,
          "name": "G#4",
          "ticks": 133632,
          "time": 183.15587999999997,
          "velocity": 0.5039370078740157
        },
        {
          "duration": 0.3837677083333517,
          "durationTicks": 280,
          "midi": 65,
          "name": "F4",
          "ticks": 133632,
          "time": 183.15587999999997,
          "velocity": 0.6535433070866141
        },
        {
          "duration": 0.3837677083333517,
          "durationTicks": 280,
          "midi": 61,
          "name": "C#4",
          "ticks": 133632,
          "time": 183.15587999999997,
          "velocity": 0.3779527559055118
        },
        {
          "duration": 0.3892501041666776,
          "durationTicks": 284,
          "midi": 61,
          "name": "C#4",
          "ticks": 133920,
          "time": 183.55061249999997,
          "velocity": 0.31496062992125984
        },
        {
          "duration": 0.3892501041666776,
          "durationTicks": 284,
          "midi": 73,
          "name": "C#5",
          "ticks": 133920,
          "time": 183.55061249999997,
          "velocity": 0.5433070866141733
        },
        {
          "duration": 0.3892501041666776,
          "durationTicks": 284,
          "midi": 65,
          "name": "F4",
          "ticks": 133920,
          "time": 183.55061249999997,
          "velocity": 0.6299212598425197
        },
        {
          "duration": 0.3837677083333517,
          "durationTicks": 280,
          "midi": 68,
          "name": "G#4",
          "ticks": 133920,
          "time": 183.55061249999997,
          "velocity": 0.5039370078740157
        },
        {
          "duration": 0.7839826041666527,
          "durationTicks": 572,
          "midi": 72,
          "name": "C5",
          "ticks": 134208,
          "time": 183.94534499999997,
          "velocity": 0.5433070866141733
        },
        {
          "duration": 0.7839826041666527,
          "durationTicks": 572,
          "midi": 68,
          "name": "G#4",
          "ticks": 134208,
          "time": 183.94534499999997,
          "velocity": 0.5039370078740157
        },
        {
          "duration": 0.7839826041666527,
          "durationTicks": 572,
          "midi": 63,
          "name": "D#4",
          "ticks": 134208,
          "time": 183.94534499999997,
          "velocity": 0.5433070866141733
        },
        {
          "duration": 0.7839826041666527,
          "durationTicks": 572,
          "midi": 60,
          "name": "C4",
          "ticks": 134208,
          "time": 183.94534499999997,
          "velocity": 0.3779527559055118
        },
        {
          "duration": 0.1315774999999917,
          "durationTicks": 96,
          "midi": 56,
          "name": "G#3",
          "ticks": 134784,
          "time": 184.73480999999998,
          "velocity": 0.5039370078740157
        },
        {
          "duration": 0.1315775000000201,
          "durationTicks": 96,
          "midi": 58,
          "name": "A#3",
          "ticks": 134880,
          "time": 184.86638749999997,
          "velocity": 0.4330708661417323
        },
        {
          "duration": 0.1315774999999917,
          "durationTicks": 96,
          "midi": 60,
          "name": "C4",
          "ticks": 134976,
          "time": 184.997965,
          "velocity": 0.4566929133858268
        },
        {
          "duration": 0.1315774999999917,
          "durationTicks": 96,
          "midi": 58,
          "name": "A#3",
          "ticks": 135072,
          "time": 185.12954249999999,
          "velocity": 0.4330708661417323
        },
        {
          "duration": 0.3837677083333517,
          "durationTicks": 280,
          "midi": 72,
          "name": "C5",
          "ticks": 135168,
          "time": 185.26111999999998,
          "velocity": 0.5039370078740157
        },
        {
          "duration": 0.3837677083333517,
          "durationTicks": 280,
          "midi": 68,
          "name": "G#4",
          "ticks": 135168,
          "time": 185.26111999999998,
          "velocity": 0.5039370078740157
        },
        {
          "duration": 0.3837677083333517,
          "durationTicks": 280,
          "midi": 60,
          "name": "C4",
          "ticks": 135168,
          "time": 185.26111999999998,
          "velocity": 0.33070866141732286
        },
        {
          "duration": 0.3837677083333517,
          "durationTicks": 280,
          "midi": 63,
          "name": "D#4",
          "ticks": 135168,
          "time": 185.26111999999998,
          "velocity": 0.5433070866141733
        },
        {
          "duration": 0.3892501041666492,
          "durationTicks": 284,
          "midi": 63,
          "name": "D#4",
          "ticks": 135456,
          "time": 185.65585249999998,
          "velocity": 0.5039370078740157
        },
        {
          "duration": 0.3892501041666492,
          "durationTicks": 284,
          "midi": 60,
          "name": "C4",
          "ticks": 135456,
          "time": 185.65585249999998,
          "velocity": 0.25984251968503935
        },
        {
          "duration": 0.3892501041666492,
          "durationTicks": 284,
          "midi": 72,
          "name": "C5",
          "ticks": 135456,
          "time": 185.65585249999998,
          "velocity": 0.4566929133858268
        },
        {
          "duration": 0.3892501041666492,
          "durationTicks": 284,
          "midi": 68,
          "name": "G#4",
          "ticks": 135456,
          "time": 185.65585249999998,
          "velocity": 0.4330708661417323
        },
        {
          "duration": 0.7839826041666527,
          "durationTicks": 572,
          "midi": 65,
          "name": "F4",
          "ticks": 135744,
          "time": 186.05058499999998,
          "velocity": 0.5826771653543307
        },
        {
          "duration": 0.7839826041666527,
          "durationTicks": 572,
          "midi": 70,
          "name": "A#4",
          "ticks": 135744,
          "time": 186.05058499999998,
          "velocity": 0.5433070866141733
        },
        {
          "duration": 0.3892501041666492,
          "durationTicks": 284,
          "midi": 61,
          "name": "C#4",
          "ticks": 135744,
          "time": 186.05058499999998,
          "velocity": 0.5039370078740157
        },
        {
          "duration": 0.1315774999999917,
          "durationTicks": 96,
          "midi": 60,
          "name": "C4",
          "ticks": 136032,
          "time": 186.4453175,
          "velocity": 0.3779527559055118
        },
        {
          "duration": 0.2631550000000118,
          "durationTicks": 192,
          "midi": 58,
          "name": "A#3",
          "ticks": 136128,
          "time": 186.57689499999998,
          "velocity": 0.4330708661417323
        },
        {
          "duration": 0.15898947916664952,
          "durationTicks": 116,
          "midi": 56,
          "name": "G#3",
          "ticks": 136324,
          "time": 186.84553239583332,
          "velocity": 0.5039370078740157
        },
        {
          "duration": 0.15350708333332364,
          "durationTicks": 112,
          "midi": 58,
          "name": "A#3",
          "ticks": 136444,
          "time": 187.01000427083332,
          "velocity": 0.4015748031496063
        },
        {
          "duration": 0.10964791666668816,
          "durationTicks": 80,
          "midi": 60,
          "name": "C4",
          "ticks": 136556,
          "time": 187.16351135416664,
          "velocity": 0.4015748031496063
        },
        {
          "duration": 0.1315774999999917,
          "durationTicks": 96,
          "midi": 58,
          "name": "A#3",
          "ticks": 136636,
          "time": 187.27315927083333,
          "velocity": 0.4330708661417323
        },
        {
          "duration": 0.4769684375000054,
          "durationTicks": 348,
          "midi": 61,
          "name": "C#4",
          "ticks": 136732,
          "time": 187.40473677083332,
          "velocity": 0.5039370078740157
        },
        {
          "duration": 0.274119791666692,
          "durationTicks": 200,
          "midi": 63,
          "name": "D#4",
          "ticks": 137084,
          "time": 187.88718760416663,
          "velocity": 0.4330708661417323
        },
        {
          "duration": 0.2521902083333316,
          "durationTicks": 184,
          "midi": 60,
          "name": "C4",
          "ticks": 137288,
          "time": 188.16678979166664,
          "velocity": 0.5039370078740157
        },
        {
          "duration": 0.2631550000000118,
          "durationTicks": 192,
          "midi": 58,
          "name": "A#3",
          "ticks": 137472,
          "time": 188.41897999999998,
          "velocity": 0.4015748031496063
        },
        {
          "duration": 0.5153452083333434,
          "durationTicks": 376,
          "midi": 56,
          "name": "G#3",
          "ticks": 137664,
          "time": 188.682135,
          "velocity": 0.4330708661417323
        },
        {
          "duration": 0.2576726041666575,
          "durationTicks": 188,
          "midi": 63,
          "name": "D#4",
          "ticks": 138048,
          "time": 189.20844499999998,
          "velocity": 0.4015748031496063
        },
        {
          "duration": 0.2576726041666575,
          "durationTicks": 188,
          "midi": 72,
          "name": "C5",
          "ticks": 138048,
          "time": 189.20844499999998,
          "velocity": 0.5039370078740157
        },
        {
          "duration": 0.2631549999999834,
          "durationTicks": 192,
          "midi": 56,
          "name": "G#3",
          "ticks": 138048,
          "time": 189.20844499999998,
          "velocity": 0.4330708661417323
        },
        {
          "duration": 0.2576726041666575,
          "durationTicks": 188,
          "midi": 60,
          "name": "C4",
          "ticks": 138048,
          "time": 189.20844499999998,
          "velocity": 0.4566929133858268
        },
        {
          "duration": 0.5208276041666693,
          "durationTicks": 380,
          "midi": 63,
          "name": "D#4",
          "ticks": 138240,
          "time": 189.47159999999997,
          "velocity": 0.5039370078740157
        },
        {
          "duration": 0.5208276041666693,
          "durationTicks": 380,
          "midi": 60,
          "name": "C4",
          "ticks": 138240,
          "time": 189.47159999999997,
          "velocity": 0.5433070866141733
        },
        {
          "duration": 0.5208276041666693,
          "durationTicks": 380,
          "midi": 72,
          "name": "C5",
          "ticks": 138240,
          "time": 189.47159999999997,
          "velocity": 0.5433070866141733
        },
        {
          "duration": 1.0416552083333386,
          "durationTicks": 760,
          "midi": 68,
          "name": "G#4",
          "ticks": 138624,
          "time": 189.99791,
          "velocity": 0.5433070866141733
        },
        {
          "duration": 1.0416552083333386,
          "durationTicks": 760,
          "midi": 73,
          "name": "C#5",
          "ticks": 138624,
          "time": 189.99791,
          "velocity": 0.4330708661417323
        },
        {
          "duration": 1.0416552083333386,
          "durationTicks": 760,
          "midi": 65,
          "name": "F4",
          "ticks": 138624,
          "time": 189.99791,
          "velocity": 0.5433070866141733
        },
        {
          "duration": 1.0416552083333386,
          "durationTicks": 760,
          "midi": 61,
          "name": "C#4",
          "ticks": 138624,
          "time": 189.99791,
          "velocity": 0.5039370078740157
        },
        {
          "duration": 0.1315774999999917,
          "durationTicks": 96,
          "midi": 56,
          "name": "G#3",
          "ticks": 139392,
          "time": 191.05052999999998,
          "velocity": 0.5039370078740157
        },
        {
          "duration": 0.1315775000000201,
          "durationTicks": 96,
          "midi": 58,
          "name": "A#3",
          "ticks": 139488,
          "time": 191.18210749999997,
          "velocity": 0.4330708661417323
        },
        {
          "duration": 0.1315774999999917,
          "durationTicks": 96,
          "midi": 61,
          "name": "C#4",
          "ticks": 139584,
          "time": 191.313685,
          "velocity": 0.4330708661417323
        },
        {
          "duration": 0.1315774999999917,
          "durationTicks": 96,
          "midi": 58,
          "name": "A#3",
          "ticks": 139680,
          "time": 191.44526249999998,
          "velocity": 0.4330708661417323
        },
        {
          "duration": 0.3837677083333517,
          "durationTicks": 280,
          "midi": 73,
          "name": "C#5",
          "ticks": 139776,
          "time": 191.57683999999998,
          "velocity": 0.5039370078740157
        },
        {
          "duration": 0.3837677083333517,
          "durationTicks": 280,
          "midi": 68,
          "name": "G#4",
          "ticks": 139776,
          "time": 191.57683999999998,
          "velocity": 0.5039370078740157
        },
        {
          "duration": 0.3837677083333517,
          "durationTicks": 280,
          "midi": 61,
          "name": "C#4",
          "ticks": 139776,
          "time": 191.57683999999998,
          "velocity": 0.3779527559055118
        },
        {
          "duration": 0.3837677083333517,
          "durationTicks": 280,
          "midi": 65,
          "name": "F4",
          "ticks": 139776,
          "time": 191.57683999999998,
          "velocity": 0.6299212598425197
        },
        {
          "duration": 0.3892501041666492,
          "durationTicks": 284,
          "midi": 61,
          "name": "C#4",
          "ticks": 140064,
          "time": 191.97157249999998,
          "velocity": 0.3779527559055118
        },
        {
          "duration": 0.3837677083333517,
          "durationTicks": 280,
          "midi": 68,
          "name": "G#4",
          "ticks": 140064,
          "time": 191.97157249999998,
          "velocity": 0.5039370078740157
        },
        {
          "duration": 0.3892501041666492,
          "durationTicks": 284,
          "midi": 73,
          "name": "C#5",
          "ticks": 140064,
          "time": 191.97157249999998,
          "velocity": 0.5039370078740157
        },
        {
          "duration": 0.3892501041666492,
          "durationTicks": 284,
          "midi": 65,
          "name": "F4",
          "ticks": 140064,
          "time": 191.97157249999998,
          "velocity": 0.6299212598425197
        },
        {
          "duration": 0.7839826041666527,
          "durationTicks": 572,
          "midi": 68,
          "name": "G#4",
          "ticks": 140352,
          "time": 192.36630499999998,
          "velocity": 0.5433070866141733
        },
        {
          "duration": 0.7839826041666527,
          "durationTicks": 572,
          "midi": 60,
          "name": "C4",
          "ticks": 140352,
          "time": 192.36630499999998,
          "velocity": 0.4566929133858268
        },
        {
          "duration": 0.7839826041666527,
          "durationTicks": 572,
          "midi": 63,
          "name": "D#4",
          "ticks": 140352,
          "time": 192.36630499999998,
          "velocity": 0.5433070866141733
        },
        {
          "duration": 0.7839826041666527,
          "durationTicks": 572,
          "midi": 72,
          "name": "C5",
          "ticks": 140352,
          "time": 192.36630499999998,
          "velocity": 0.5433070866141733
        },
        {
          "duration": 0.1315774999999917,
          "durationTicks": 96,
          "midi": 56,
          "name": "G#3",
          "ticks": 140928,
          "time": 193.15577,
          "velocity": 0.5039370078740157
        },
        {
          "duration": 0.1315774999999917,
          "durationTicks": 96,
          "midi": 58,
          "name": "A#3",
          "ticks": 141024,
          "time": 193.28734749999998,
          "velocity": 0.4330708661417323
        },
        {
          "duration": 0.1315775000000201,
          "durationTicks": 96,
          "midi": 60,
          "name": "C4",
          "ticks": 141120,
          "time": 193.41892499999997,
          "velocity": 0.4015748031496063
        },
        {
          "duration": 0.1315774999999917,
          "durationTicks": 96,
          "midi": 58,
          "name": "A#3",
          "ticks": 141216,
          "time": 193.5505025,
          "velocity": 0.5039370078740157
        },
        {
          "duration": 0.5153452083333434,
          "durationTicks": 376,
          "midi": 60,
          "name": "C4",
          "ticks": 141312,
          "time": 193.68207999999998,
          "velocity": 0.4330708661417323
        },
        {
          "duration": 0.5153452083333434,
          "durationTicks": 376,
          "midi": 63,
          "name": "D#4",
          "ticks": 141312,
          "time": 193.68207999999998,
          "velocity": 0.5433070866141733
        },
        {
          "duration": 0.5208276041666409,
          "durationTicks": 380,
          "midi": 68,
          "name": "G#4",
          "ticks": 141312,
          "time": 193.68207999999998,
          "velocity": 0.5433070866141733
        },
        {
          "duration": 0.5153452083333434,
          "durationTicks": 376,
          "midi": 72,
          "name": "C5",
          "ticks": 141312,
          "time": 193.68207999999998,
          "velocity": 0.5433070866141733
        },
        {
          "duration": 0.2631550000000118,
          "durationTicks": 192,
          "midi": 60,
          "name": "C4",
          "ticks": 141696,
          "time": 194.20838999999998,
          "velocity": 0.4566929133858268
        },
        {
          "duration": 0.2631550000000118,
          "durationTicks": 192,
          "midi": 72,
          "name": "C5",
          "ticks": 141696,
          "time": 194.20838999999998,
          "velocity": 0.5039370078740157
        },
        {
          "duration": 0.2631550000000118,
          "durationTicks": 192,
          "midi": 63,
          "name": "D#4",
          "ticks": 141696,
          "time": 194.20838999999998,
          "velocity": 0.5039370078740157
        },
        {
          "duration": 0.2631549999999834,
          "durationTicks": 192,
          "midi": 65,
          "name": "F4",
          "ticks": 141888,
          "time": 194.471545,
          "velocity": 0.5039370078740157
        },
        {
          "duration": 0.2631549999999834,
          "durationTicks": 192,
          "midi": 73,
          "name": "C#5",
          "ticks": 141888,
          "time": 194.471545,
          "velocity": 0.5039370078740157
        },
        {
          "duration": 0.2631549999999834,
          "durationTicks": 192,
          "midi": 61,
          "name": "C#4",
          "ticks": 141888,
          "time": 194.471545,
          "velocity": 0.5039370078740157
        },
        {
          "duration": 0.1315774999999917,
          "durationTicks": 96,
          "midi": 60,
          "name": "C4",
          "ticks": 142080,
          "time": 194.73469999999998,
          "velocity": 0.2047244094488189
        },
        {
          "duration": 0.1315774999999917,
          "durationTicks": 96,
          "midi": 72,
          "name": "C5",
          "ticks": 142080,
          "time": 194.73469999999998,
          "velocity": 0.4015748031496063
        },
        {
          "duration": 0.1315774999999917,
          "durationTicks": 96,
          "midi": 63,
          "name": "D#4",
          "ticks": 142080,
          "time": 194.73469999999998,
          "velocity": 0.4015748031496063
        },
        {
          "duration": 0.3892501041666776,
          "durationTicks": 284,
          "midi": 58,
          "name": "A#3",
          "ticks": 142176,
          "time": 194.86627749999997,
          "velocity": 0.5039370078740157
        },
        {
          "duration": 0.3892501041666776,
          "durationTicks": 284,
          "midi": 61,
          "name": "C#4",
          "ticks": 142176,
          "time": 194.86627749999997,
          "velocity": 0.4015748031496063
        },
        {
          "duration": 0.3892501041666776,
          "durationTicks": 284,
          "midi": 70,
          "name": "A#4",
          "ticks": 142176,
          "time": 194.86627749999997,
          "velocity": 0.4015748031496063
        },
        {
          "duration": 0.1315775000000201,
          "durationTicks": 96,
          "midi": 56,
          "name": "G#3",
          "ticks": 142464,
          "time": 195.26100999999997,
          "velocity": 0.5039370078740157
        },
        {
          "duration": 0.1315774999999917,
          "durationTicks": 96,
          "midi": 58,
          "name": "A#3",
          "ticks": 142560,
          "time": 195.3925875,
          "velocity": 0.4330708661417323
        },
        {
          "duration": 0.1315774999999917,
          "durationTicks": 96,
          "midi": 60,
          "name": "C4",
          "ticks": 142656,
          "time": 195.52416499999998,
          "velocity": 0.4015748031496063
        },
        {
          "duration": 0.16995427083335812,
          "durationTicks": 124,
          "midi": 58,
          "name": "A#3",
          "ticks": 142752,
          "time": 195.65574249999997,
          "velocity": 0.5039370078740157
        },
        {
          "duration": 0.5208276041666409,
          "durationTicks": 380,
          "midi": 61,
          "name": "C#4",
          "ticks": 142876,
          "time": 195.82569677083333,
          "velocity": 0.5433070866141733
        },
        {
          "duration": 0.24670781250000573,
          "durationTicks": 180,
          "midi": 63,
          "name": "D#4",
          "ticks": 143260,
          "time": 196.35200677083333,
          "velocity": 0.4330708661417323
        },
        {
          "duration": 0.44407406249999326,
          "durationTicks": 324,
          "midi": 60,
          "name": "C4",
          "ticks": 143440,
          "time": 196.59871458333333,
          "velocity": 0.4566929133858268
        },
        {
          "duration": 0.1425422916667003,
          "durationTicks": 104,
          "midi": 58,
          "name": "A#3",
          "ticks": 143768,
          "time": 197.04827104166662,
          "velocity": 0.3779527559055118
        },
        {
          "duration": 0.44407406249999326,
          "durationTicks": 324,
          "midi": 56,
          "name": "G#3",
          "ticks": 143872,
          "time": 197.19081333333332,
          "velocity": 0.4330708661417323
        },
        {
          "duration": 0.24670781250000573,
          "durationTicks": 180,
          "midi": 56,
          "name": "G#3",
          "ticks": 144204,
          "time": 197.64585218749997,
          "velocity": 0.5433070866141733
        },
        {
          "duration": 0.5208276041666693,
          "durationTicks": 380,
          "midi": 72,
          "name": "C5",
          "ticks": 144384,
          "time": 197.89255999999997,
          "velocity": 0.5433070866141733
        },
        {
          "duration": 0.5208276041666693,
          "durationTicks": 380,
          "midi": 63,
          "name": "D#4",
          "ticks": 144384,
          "time": 197.89255999999997,
          "velocity": 0.5433070866141733
        },
        {
          "duration": 0.5208276041666693,
          "durationTicks": 380,
          "midi": 60,
          "name": "C4",
          "ticks": 144384,
          "time": 197.89255999999997,
          "velocity": 0.4330708661417323
        },
        {
          "duration": 1.0416552083333386,
          "durationTicks": 760,
          "midi": 65,
          "name": "F4",
          "ticks": 144768,
          "time": 198.41886999999997,
          "velocity": 0.5433070866141733
        },
        {
          "duration": 1.0416552083333386,
          "durationTicks": 760,
          "midi": 73,
          "name": "C#5",
          "ticks": 144768,
          "time": 198.41886999999997,
          "velocity": 0.5039370078740157
        },
        {
          "duration": 1.0416552083333386,
          "durationTicks": 760,
          "midi": 68,
          "name": "G#4",
          "ticks": 144768,
          "time": 198.41886999999997,
          "velocity": 0.5039370078740157
        },
        {
          "duration": 1.0416552083333386,
          "durationTicks": 760,
          "midi": 61,
          "name": "C#4",
          "ticks": 144768,
          "time": 198.41886999999997,
          "velocity": 0.5039370078740157
        },
        {
          "duration": 0.1315774999999917,
          "durationTicks": 96,
          "midi": 56,
          "name": "G#3",
          "ticks": 145536,
          "time": 199.47149,
          "velocity": 0.5039370078740157
        },
        {
          "duration": 0.1315774999999917,
          "durationTicks": 96,
          "midi": 58,
          "name": "A#3",
          "ticks": 145632,
          "time": 199.60306749999998,
          "velocity": 0.5039370078740157
        },
        {
          "duration": 0.1315775000000201,
          "durationTicks": 96,
          "midi": 61,
          "name": "C#4",
          "ticks": 145728,
          "time": 199.73464499999997,
          "velocity": 0.4330708661417323
        },
        {
          "duration": 0.1315774999999917,
          "durationTicks": 96,
          "midi": 58,
          "name": "A#3",
          "ticks": 145824,
          "time": 199.8662225,
          "velocity": 0.4330708661417323
        },
        {
          "duration": 0.3837677083333517,
          "durationTicks": 280,
          "midi": 73,
          "name": "C#5",
          "ticks": 145920,
          "time": 199.99779999999998,
          "velocity": 0.5039370078740157
        },
        {
          "duration": 0.3837677083333517,
          "durationTicks": 280,
          "midi": 68,
          "name": "G#4",
          "ticks": 145920,
          "time": 199.99779999999998,
          "velocity": 0.5039370078740157
        },
        {
          "duration": 0.3837677083333517,
          "durationTicks": 280,
          "midi": 65,
          "name": "F4",
          "ticks": 145920,
          "time": 199.99779999999998,
          "velocity": 0.6535433070866141
        },
        {
          "duration": 0.3837677083333517,
          "durationTicks": 280,
          "midi": 61,
          "name": "C#4",
          "ticks": 145920,
          "time": 199.99779999999998,
          "velocity": 0.3779527559055118
        },
        {
          "duration": 0.3892501041666492,
          "durationTicks": 284,
          "midi": 61,
          "name": "C#4",
          "ticks": 146208,
          "time": 200.3925325,
          "velocity": 0.31496062992125984
        },
        {
          "duration": 0.3892501041666492,
          "durationTicks": 284,
          "midi": 73,
          "name": "C#5",
          "ticks": 146208,
          "time": 200.3925325,
          "velocity": 0.5433070866141733
        },
        {
          "duration": 0.3892501041666492,
          "durationTicks": 284,
          "midi": 65,
          "name": "F4",
          "ticks": 146208,
          "time": 200.3925325,
          "velocity": 0.6299212598425197
        },
        {
          "duration": 0.3837677083333233,
          "durationTicks": 280,
          "midi": 68,
          "name": "G#4",
          "ticks": 146208,
          "time": 200.3925325,
          "velocity": 0.5039370078740157
        },
        {
          "duration": 0.7839826041666527,
          "durationTicks": 572,
          "midi": 72,
          "name": "C5",
          "ticks": 146496,
          "time": 200.787265,
          "velocity": 0.5433070866141733
        },
        {
          "duration": 0.7839826041666527,
          "durationTicks": 572,
          "midi": 68,
          "name": "G#4",
          "ticks": 146496,
          "time": 200.787265,
          "velocity": 0.5039370078740157
        },
        {
          "duration": 0.7839826041666527,
          "durationTicks": 572,
          "midi": 63,
          "name": "D#4",
          "ticks": 146496,
          "time": 200.787265,
          "velocity": 0.5433070866141733
        },
        {
          "duration": 0.7839826041666527,
          "durationTicks": 572,
          "midi": 60,
          "name": "C4",
          "ticks": 146496,
          "time": 200.787265,
          "velocity": 0.3779527559055118
        },
        {
          "duration": 0.1315775000000201,
          "durationTicks": 96,
          "midi": 56,
          "name": "G#3",
          "ticks": 147072,
          "time": 201.57672999999997,
          "velocity": 0.5039370078740157
        },
        {
          "duration": 0.1315774999999917,
          "durationTicks": 96,
          "midi": 58,
          "name": "A#3",
          "ticks": 147168,
          "time": 201.7083075,
          "velocity": 0.4330708661417323
        },
        {
          "duration": 0.1315774999999917,
          "durationTicks": 96,
          "midi": 60,
          "name": "C4",
          "ticks": 147264,
          "time": 201.83988499999998,
          "velocity": 0.4566929133858268
        },
        {
          "duration": 0.1315774999999917,
          "durationTicks": 96,
          "midi": 58,
          "name": "A#3",
          "ticks": 147360,
          "time": 201.97146249999997,
          "velocity": 0.4330708661417323
        },
        {
          "duration": 0.3837677083333517,
          "durationTicks": 280,
          "midi": 72,
          "name": "C5",
          "ticks": 147456,
          "time": 202.10303999999996,
          "velocity": 0.5039370078740157
        },
        {
          "duration": 0.3837677083333517,
          "durationTicks": 280,
          "midi": 68,
          "name": "G#4",
          "ticks": 147456,
          "time": 202.10303999999996,
          "velocity": 0.5039370078740157
        },
        {
          "duration": 0.3837677083333517,
          "durationTicks": 280,
          "midi": 60,
          "name": "C4",
          "ticks": 147456,
          "time": 202.10303999999996,
          "velocity": 0.33070866141732286
        },
        {
          "duration": 0.3837677083333517,
          "durationTicks": 280,
          "midi": 63,
          "name": "D#4",
          "ticks": 147456,
          "time": 202.10303999999996,
          "velocity": 0.5433070866141733
        },
        {
          "duration": 0.3892501041666776,
          "durationTicks": 284,
          "midi": 63,
          "name": "D#4",
          "ticks": 147744,
          "time": 202.49777249999997,
          "velocity": 0.48031496062992124
        },
        {
          "duration": 0.3892501041666776,
          "durationTicks": 284,
          "midi": 60,
          "name": "C4",
          "ticks": 147744,
          "time": 202.49777249999997,
          "velocity": 0.2440944881889764
        },
        {
          "duration": 0.3892501041666776,
          "durationTicks": 284,
          "midi": 72,
          "name": "C5",
          "ticks": 147744,
          "time": 202.49777249999997,
          "velocity": 0.4409448818897638
        },
        {
          "duration": 0.3892501041666776,
          "durationTicks": 284,
          "midi": 68,
          "name": "G#4",
          "ticks": 147744,
          "time": 202.49777249999997,
          "velocity": 0.41732283464566927
        },
        {
          "duration": 0.7839826041666527,
          "durationTicks": 572,
          "midi": 65,
          "name": "F4",
          "ticks": 148032,
          "time": 202.89250499999997,
          "velocity": 0.5354330708661418
        },
        {
          "duration": 0.7839826041666527,
          "durationTicks": 572,
          "midi": 70,
          "name": "A#4",
          "ticks": 148032,
          "time": 202.89250499999997,
          "velocity": 0.49606299212598426
        },
        {
          "duration": 0.3892501041666776,
          "durationTicks": 284,
          "midi": 61,
          "name": "C#4",
          "ticks": 148032,
          "time": 202.89250499999997,
          "velocity": 0.4566929133858268
        },
        {
          "duration": 0.1315774999999917,
          "durationTicks": 96,
          "midi": 60,
          "name": "C4",
          "ticks": 148320,
          "time": 203.28723749999997,
          "velocity": 0.31496062992125984
        },
        {
          "duration": 0.2631550000000118,
          "durationTicks": 192,
          "midi": 58,
          "name": "A#3",
          "ticks": 148416,
          "time": 203.41881499999997,
          "velocity": 0.36220472440944884
        },
        {
          "duration": 0.15898947916664952,
          "durationTicks": 116,
          "midi": 56,
          "name": "G#3",
          "ticks": 148612,
          "time": 203.68745239583333,
          "velocity": 0.4094488188976378
        },
        {
          "duration": 0.15350708333332364,
          "durationTicks": 112,
          "midi": 58,
          "name": "A#3",
          "ticks": 148732,
          "time": 203.8519242708333,
          "velocity": 0.31496062992125984
        },
        {
          "duration": 0.10964791666668816,
          "durationTicks": 80,
          "midi": 60,
          "name": "C4",
          "ticks": 148844,
          "time": 204.00543135416663,
          "velocity": 0.30708661417322836
        },
        {
          "duration": 0.1315774999999917,
          "durationTicks": 96,
          "midi": 58,
          "name": "A#3",
          "ticks": 148924,
          "time": 204.11507927083332,
          "velocity": 0.3228346456692913
        },
        {
          "duration": 0.4769684375000054,
          "durationTicks": 348,
          "midi": 61,
          "name": "C#4",
          "ticks": 149020,
          "time": 204.2466567708333,
          "velocity": 0.3779527559055118
        },
        {
          "duration": 0.274119791666692,
          "durationTicks": 200,
          "midi": 63,
          "name": "D#4",
          "ticks": 149372,
          "time": 204.72910760416664,
          "velocity": 0.28346456692913385
        },
        {
          "duration": 0.25219020833336003,
          "durationTicks": 184,
          "midi": 60,
          "name": "C4",
          "ticks": 149576,
          "time": 205.00870979166663,
          "velocity": 0.33070866141732286
        },
        {
          "duration": 0.2631549999999834,
          "durationTicks": 192,
          "midi": 58,
          "name": "A#3",
          "ticks": 149760,
          "time": 205.2609,
          "velocity": 0.23622047244094488
        },
        {
          "duration": 0.5153452083333434,
          "durationTicks": 376,
          "midi": 56,
          "name": "G#3",
          "ticks": 149952,
          "time": 205.52405499999998,
          "velocity": 0.2440944881889764
        },
        {
          "duration": 0.2576726041666575,
          "durationTicks": 188,
          "midi": 63,
          "name": "D#4",
          "ticks": 150336,
          "time": 206.05036499999997,
          "velocity": 0.18110236220472442
        },
        {
          "duration": 0.2576726041666575,
          "durationTicks": 188,
          "midi": 72,
          "name": "C5",
          "ticks": 150336,
          "time": 206.05036499999997,
          "velocity": 0.25196850393700787
        },
        {
          "duration": 0.2631550000000118,
          "durationTicks": 192,
          "midi": 56,
          "name": "G#3",
          "ticks": 150336,
          "time": 206.05036499999997,
          "velocity": 0.2047244094488189
        },
        {
          "duration": 0.2576726041666575,
          "durationTicks": 188,
          "midi": 60,
          "name": "C4",
          "ticks": 150336,
          "time": 206.05036499999997,
          "velocity": 0.2204724409448819
        },
        {
          "duration": 0.5208276041666409,
          "durationTicks": 380,
          "midi": 63,
          "name": "D#4",
          "ticks": 150528,
          "time": 206.31351999999998,
          "velocity": 0.23622047244094488
        },
        {
          "duration": 0.5208276041666409,
          "durationTicks": 380,
          "midi": 60,
          "name": "C4",
          "ticks": 150528,
          "time": 206.31351999999998,
          "velocity": 0.2677165354330709
        },
        {
          "duration": 0.5208276041666409,
          "durationTicks": 380,
          "midi": 72,
          "name": "C5",
          "ticks": 150528,
          "time": 206.31351999999998,
          "velocity": 0.2677165354330709
        },
        {
          "duration": 1.0416552083333386,
          "durationTicks": 760,
          "midi": 68,
          "name": "G#4",
          "ticks": 150912,
          "time": 206.83982999999998,
          "velocity": 0.2283464566929134
        },
        {
          "duration": 1.0416552083333386,
          "durationTicks": 760,
          "midi": 73,
          "name": "C#5",
          "ticks": 150912,
          "time": 206.83982999999998,
          "velocity": 0.15748031496062992
        },
        {
          "duration": 1.0416552083333386,
          "durationTicks": 760,
          "midi": 65,
          "name": "F4",
          "ticks": 150912,
          "time": 206.83982999999998,
          "velocity": 0.2283464566929134
        },
        {
          "duration": 1.0416552083333386,
          "durationTicks": 760,
          "midi": 61,
          "name": "C#4",
          "ticks": 150912,
          "time": 206.83982999999998,
          "velocity": 0.2047244094488189
        },
        {
          "duration": 0.1315775000000201,
          "durationTicks": 96,
          "midi": 56,
          "name": "G#3",
          "ticks": 151680,
          "time": 207.89244999999997,
          "velocity": 0.14173228346456693
        },
        {
          "duration": 0.1315774999999917,
          "durationTicks": 96,
          "midi": 58,
          "name": "A#3",
          "ticks": 151776,
          "time": 208.0240275,
          "velocity": 0.09448818897637795
        },
        {
          "duration": 0.1315774999999917,
          "durationTicks": 96,
          "midi": 61,
          "name": "C#4",
          "ticks": 151872,
          "time": 208.15560499999998,
          "velocity": 0.08661417322834646
        },
        {
          "duration": 0.1315775000000201,
          "durationTicks": 96,
          "midi": 58,
          "name": "A#3",
          "ticks": 151968,
          "time": 208.28718249999997,
          "velocity": 0.07874015748031496
        },
        {
          "duration": 0.3837677083333233,
          "durationTicks": 280,
          "midi": 73,
          "name": "C#5",
          "ticks": 152064,
          "time": 208.41876,
          "velocity": 0.11023622047244094
        },
        {
          "duration": 0.3837677083333233,
          "durationTicks": 280,
          "midi": 68,
          "name": "G#4",
          "ticks": 152064,
          "time": 208.41876,
          "velocity": 0.11023622047244094
        },
        {
          "duration": 0.3837677083333233,
          "durationTicks": 280,
          "midi": 61,
          "name": "C#4",
          "ticks": 152064,
          "time": 208.41876,
          "velocity": 0.03937007874015748
        },
        {
          "duration": 0.3837677083333233,
          "durationTicks": 280,
          "midi": 65,
          "name": "F4",
          "ticks": 152064,
          "time": 208.41876,
          "velocity": 0.1732283464566929
        },
        {
          "duration": 0.3892501041666776,
          "durationTicks": 284,
          "midi": 61,
          "name": "C#4",
          "ticks": 152352,
          "time": 208.81349249999997,
          "velocity": 0.023622047244094488
        },
        {
          "duration": 0.3837677083333517,
          "durationTicks": 280,
          "midi": 68,
          "name": "G#4",
          "ticks": 152352,
          "time": 208.81349249999997,
          "velocity": 0.07874015748031496
        },
        {
          "duration": 0.3892501041666776,
          "durationTicks": 284,
          "midi": 73,
          "name": "C#5",
          "ticks": 152352,
          "time": 208.81349249999997,
          "velocity": 0.07874015748031496
        },
        {
          "duration": 0.3892501041666776,
          "durationTicks": 284,
          "midi": 65,
          "name": "F4",
          "ticks": 152352,
          "time": 208.81349249999997,
          "velocity": 0.14173228346456693
        },
        {
          "duration": 0.7839826041666527,
          "durationTicks": 572,
          "midi": 68,
          "name": "G#4",
          "ticks": 152640,
          "time": 209.20822499999997,
          "velocity": 0.07874015748031496
        },
        {
          "duration": 0.7839826041666527,
          "durationTicks": 572,
          "midi": 60,
          "name": "C4",
          "ticks": 152640,
          "time": 209.20822499999997,
          "velocity": 0.03937007874015748
        },
        {
          "duration": 0.7839826041666527,
          "durationTicks": 572,
          "midi": 63,
          "name": "D#4",
          "ticks": 152640,
          "time": 209.20822499999997,
          "velocity": 0.07874015748031496
        },
        {
          "duration": 0.7839826041666527,
          "durationTicks": 572,
          "midi": 72,
          "name": "C5",
          "ticks": 152640,
          "time": 209.20822499999997,
          "velocity": 0.07874015748031496
        },
        {
          "duration": 0.1315774999999917,
          "durationTicks": 96,
          "midi": 56,
          "name": "G#3",
          "ticks": 153216,
          "time": 209.99768999999998,
          "velocity": 0.007874015748031496
        },
        {
          "duration": 0.1315775000000201,
          "durationTicks": 96,
          "midi": 58,
          "name": "A#3",
          "ticks": 153312,
          "time": 210.12926749999997,
          "velocity": 0.007874015748031496
        },
        {
          "duration": 0.1315774999999917,
          "durationTicks": 96,
          "midi": 60,
          "name": "C4",
          "ticks": 153408,
          "time": 210.260845,
          "velocity": 0.007874015748031496
        },
        {
          "duration": 0.1315774999999917,
          "durationTicks": 96,
          "midi": 58,
          "name": "A#3",
          "ticks": 153504,
          "time": 210.39242249999998,
          "velocity": 0.007874015748031496
        },
        {
          "duration": 0.5153452083333434,
          "durationTicks": 376,
          "midi": 60,
          "name": "C4",
          "ticks": 153600,
          "time": 210.52399999999997,
          "velocity": 0.007874015748031496
        },
        {
          "duration": 0.5153452083333434,
          "durationTicks": 376,
          "midi": 63,
          "name": "D#4",
          "ticks": 153600,
          "time": 210.52399999999997,
          "velocity": 0.007874015748031496
        },
        {
          "duration": 0.5208276041666693,
          "durationTicks": 380,
          "midi": 68,
          "name": "G#4",
          "ticks": 153600,
          "time": 210.52399999999997,
          "velocity": 0.007874015748031496
        },
        {
          "duration": 0.5153452083333434,
          "durationTicks": 376,
          "midi": 72,
          "name": "C5",
          "ticks": 153600,
          "time": 210.52399999999997,
          "velocity": 0.007874015748031496
        },
        {
          "duration": 0.2631550000000118,
          "durationTicks": 192,
          "midi": 60,
          "name": "C4",
          "ticks": 153984,
          "time": 211.05030999999997,
          "velocity": 0.007874015748031496
        },
        {
          "duration": 0.2631550000000118,
          "durationTicks": 192,
          "midi": 72,
          "name": "C5",
          "ticks": 153984,
          "time": 211.05030999999997,
          "velocity": 0.007874015748031496
        },
        {
          "duration": 0.2631550000000118,
          "durationTicks": 192,
          "midi": 63,
          "name": "D#4",
          "ticks": 153984,
          "time": 211.05030999999997,
          "velocity": 0.007874015748031496
        },
        {
          "duration": 0.2631550000000118,
          "durationTicks": 192,
          "midi": 65,
          "name": "F4",
          "ticks": 154176,
          "time": 211.31346499999998,
          "velocity": 0.007874015748031496
        },
        {
          "duration": 0.2631550000000118,
          "durationTicks": 192,
          "midi": 73,
          "name": "C#5",
          "ticks": 154176,
          "time": 211.31346499999998,
          "velocity": 0.007874015748031496
        },
        {
          "duration": 0.2631550000000118,
          "durationTicks": 192,
          "midi": 61,
          "name": "C#4",
          "ticks": 154176,
          "time": 211.31346499999998,
          "velocity": 0.007874015748031496
        },
        {
          "duration": 0.1315774999999917,
          "durationTicks": 96,
          "midi": 60,
          "name": "C4",
          "ticks": 154368,
          "time": 211.57662,
          "velocity": 0.007874015748031496
        },
        {
          "duration": 0.1315774999999917,
          "durationTicks": 96,
          "midi": 72,
          "name": "C5",
          "ticks": 154368,
          "time": 211.57662,
          "velocity": 0.007874015748031496
        },
        {
          "duration": 0.1315774999999917,
          "durationTicks": 96,
          "midi": 63,
          "name": "D#4",
          "ticks": 154368,
          "time": 211.57662,
          "velocity": 0.007874015748031496
        },
        {
          "duration": 0.3892501041666492,
          "durationTicks": 284,
          "midi": 58,
          "name": "A#3",
          "ticks": 154464,
          "time": 211.70819749999998,
          "velocity": 0.007874015748031496
        },
        {
          "duration": 0.3892501041666492,
          "durationTicks": 284,
          "midi": 61,
          "name": "C#4",
          "ticks": 154464,
          "time": 211.70819749999998,
          "velocity": 0.007874015748031496
        },
        {
          "duration": 0.3892501041666492,
          "durationTicks": 284,
          "midi": 70,
          "name": "A#4",
          "ticks": 154464,
          "time": 211.70819749999998,
          "velocity": 0.007874015748031496
        },
        {
          "duration": 0.1315774999999917,
          "durationTicks": 96,
          "midi": 56,
          "name": "G#3",
          "ticks": 154752,
          "time": 212.10293,
          "velocity": 0.007874015748031496
        },
        {
          "duration": 0.1315774999999917,
          "durationTicks": 96,
          "midi": 58,
          "name": "A#3",
          "ticks": 154848,
          "time": 212.23450749999998,
          "velocity": 0.007874015748031496
        },
        {
          "duration": 0.1315775000000201,
          "durationTicks": 96,
          "midi": 60,
          "name": "C4",
          "ticks": 154944,
          "time": 212.36608499999997,
          "velocity": 0.007874015748031496
        },
        {
          "duration": 0.1699542708333297,
          "durationTicks": 124,
          "midi": 58,
          "name": "A#3",
          "ticks": 155040,
          "time": 212.4976625,
          "velocity": 0.007874015748031496
        },
        {
          "duration": 0.5208276041666693,
          "durationTicks": 380,
          "midi": 61,
          "name": "C#4",
          "ticks": 155164,
          "time": 212.66761677083332,
          "velocity": 0.007874015748031496
        },
        {
          "duration": 0.24670781250000573,
          "durationTicks": 180,
          "midi": 63,
          "name": "D#4",
          "ticks": 155548,
          "time": 213.19392677083331,
          "velocity": 0.007874015748031496
        },
        {
          "duration": 0.44407406249999326,
          "durationTicks": 324,
          "midi": 60,
          "name": "C4",
          "ticks": 155728,
          "time": 213.44063458333332,
          "velocity": 0.007874015748031496
        },
        {
          "duration": 0.14254229166667187,
          "durationTicks": 104,
          "midi": 58,
          "name": "A#3",
          "ticks": 156056,
          "time": 213.89019104166664,
          "velocity": 0.007874015748031496
        },
        {
          "duration": 0.4440740625000217,
          "durationTicks": 324,
          "midi": 56,
          "name": "G#3",
          "ticks": 156160,
          "time": 214.0327333333333,
          "velocity": 0.007874015748031496
        },
        {
          "duration": 0.08771833333332779,
          "durationTicks": 64,
          "midi": 56,
          "name": "G#3",
          "ticks": 156492,
          "time": 214.48777218749998,
          "velocity": 0.007874015748031496
        }
      ],
      "endOfTrackTicks": 158208
    },
    {
      "channel": 5,
      "controlChanges": {
        "1": [
          {
            "number": 1,
            "ticks": 3556,
            "time": 4.873849895833333,
            "value": 0
          }
        ],
        "7": [
          {
            "number": 7,
            "ticks": 2032,
            "time": 2.7850570833333332,
            "value": 0.7480314960629921
          }
        ],
        "10": [
          {
            "number": 10,
            "ticks": 2032,
            "time": 2.7850570833333332,
            "value": 0.07874015748031496
          }
        ],
        "11": [
          {
            "number": 11,
            "ticks": 2032,
            "time": 2.7850570833333332,
            "value": 1
          }
        ],
        "91": [
          {
            "number": 91,
            "ticks": 2036,
            "time": 2.7905394791666662,
            "value": 0.4330708661417323
          }
        ],
        "93": [
          {
            "number": 93,
            "ticks": 2036,
            "time": 2.7905394791666662,
            "value": 0.31496062992125984
          }
        ]
      },
      "pitchBends": [
        {
          "ticks": 3556,
          "time": 4.873849895833333,
          "value": 0
        }
      ],
      "instrument": {
        "family": "percussive",
        "number": 118,
        "name": "synth drum"
      },
      "name": "SYNTH DRUM",
      "notes": [
        {
          "duration": 0.0657887499999994,
          "durationTicks": 48,
          "midi": 72,
          "name": "C5",
          "ticks": 3552,
          "time": 4.8683675,
          "velocity": 0.8503937007874016
        },
        {
          "duration": 0.06578875000000028,
          "durationTicks": 48,
          "midi": 69,
          "name": "A4",
          "ticks": 3936,
          "time": 5.394677499999999,
          "velocity": 0.937007874015748
        },
        {
          "duration": 0.06578875000000028,
          "durationTicks": 48,
          "midi": 69,
          "name": "A4",
          "ticks": 4032,
          "time": 5.526254999999999,
          "velocity": 0.8976377952755905
        },
        {
          "duration": 0.04385916666666745,
          "durationTicks": 32,
          "midi": 62,
          "name": "D4",
          "ticks": 4320,
          "time": 5.920987499999999,
          "velocity": 0.937007874015748
        },
        {
          "duration": 0.06030635416666641,
          "durationTicks": 44,
          "midi": 62,
          "name": "D4",
          "ticks": 4416,
          "time": 6.0525649999999995,
          "velocity": 0.9763779527559056
        },
        {
          "duration": 0.07127114583333327,
          "durationTicks": 52,
          "midi": 59,
          "name": "B3",
          "ticks": 4512,
          "time": 6.184142499999999,
          "velocity": 1
        },
        {
          "duration": 0.05482395833333342,
          "durationTicks": 40,
          "midi": 59,
          "name": "B3",
          "ticks": 4608,
          "time": 6.315719999999999,
          "velocity": 0.9763779527559056
        },
        {
          "duration": 0.07127114583333238,
          "durationTicks": 52,
          "midi": 59,
          "name": "B3",
          "ticks": 16416,
          "time": 22.499752499999996,
          "velocity": 0.9763779527559056
        },
        {
          "duration": 0.0822359374999948,
          "durationTicks": 60,
          "midi": 67,
          "name": "G4",
          "ticks": 28416,
          "time": 38.94694,
          "velocity": 0.9763779527559056
        },
        {
          "duration": 0.0877183333333349,
          "durationTicks": 64,
          "midi": 67,
          "name": "G4",
          "ticks": 28512,
          "time": 39.0785175,
          "velocity": 0.9763779527559056
        },
        {
          "duration": 0.11513031249999983,
          "durationTicks": 84,
          "midi": 59,
          "name": "B3",
          "ticks": 28704,
          "time": 39.341672499999994,
          "velocity": 1
        },
        {
          "duration": 0.07675354166666182,
          "durationTicks": 56,
          "midi": 65,
          "name": "F4",
          "ticks": 34368,
          "time": 47.104744999999994,
          "velocity": 1
        },
        {
          "duration": 0.06578874999999584,
          "durationTicks": 48,
          "midi": 65,
          "name": "F4",
          "ticks": 34656,
          "time": 47.4994775,
          "velocity": 0.8267716535433071
        },
        {
          "duration": 0.0877183333333349,
          "durationTicks": 64,
          "midi": 65,
          "name": "F4",
          "ticks": 34752,
          "time": 47.631054999999996,
          "velocity": 1
        },
        {
          "duration": 0.06578875000000295,
          "durationTicks": 48,
          "midi": 62,
          "name": "D4",
          "ticks": 35040,
          "time": 48.02578749999999,
          "velocity": 0.937007874015748
        },
        {
          "duration": 0.07127114583333594,
          "durationTicks": 52,
          "midi": 62,
          "name": "D4",
          "ticks": 35136,
          "time": 48.15736499999999,
          "velocity": 0.937007874015748
        },
        {
          "duration": 0.07675354166666182,
          "durationTicks": 56,
          "midi": 59,
          "name": "B3",
          "ticks": 35232,
          "time": 48.2889425,
          "velocity": 1
        },
        {
          "duration": 0.06030635416666996,
          "durationTicks": 44,
          "midi": 65,
          "name": "F4",
          "ticks": 46848,
          "time": 64.20982,
          "velocity": 0.9763779527559056
        },
        {
          "duration": 0.0822359374999877,
          "durationTicks": 60,
          "midi": 65,
          "name": "F4",
          "ticks": 46944,
          "time": 64.3413975,
          "velocity": 1
        },
        {
          "duration": 0.08223593750000191,
          "durationTicks": 60,
          "midi": 69,
          "name": "A4",
          "ticks": 59136,
          "time": 81.05174,
          "velocity": 1
        },
        {
          "duration": 0.0932007291666821,
          "durationTicks": 68,
          "midi": 69,
          "name": "A4",
          "ticks": 59232,
          "time": 81.18331749999999,
          "velocity": 1
        },
        {
          "duration": 0.04385916666667811,
          "durationTicks": 32,
          "midi": 65,
          "name": "F4",
          "ticks": 59424,
          "time": 81.44647249999998,
          "velocity": 0.8976377952755905
        },
        {
          "duration": 0.08223593750000191,
          "durationTicks": 60,
          "midi": 65,
          "name": "F4",
          "ticks": 59520,
          "time": 81.57804999999999,
          "velocity": 0.9763779527559056
        },
        {
          "duration": 0.08771833333332779,
          "durationTicks": 64,
          "midi": 62,
          "name": "D4",
          "ticks": 59616,
          "time": 81.7096275,
          "velocity": 0.937007874015748
        },
        {
          "duration": 0.11513031249999983,
          "durationTicks": 84,
          "midi": 72,
          "name": "C5",
          "ticks": 65280,
          "time": 89.47269999999999,
          "velocity": 0.937007874015748
        },
        {
          "duration": 0.14802468750001196,
          "durationTicks": 108,
          "midi": 64,
          "name": "E4",
          "ticks": 65664,
          "time": 89.99900999999998,
          "velocity": 0.937007874015748
        },
        {
          "duration": 0.11513031249999983,
          "durationTicks": 84,
          "midi": 71,
          "name": "B4",
          "ticks": 71424,
          "time": 97.89365999999998,
          "velocity": 0.9763779527559056
        },
        {
          "duration": 0.16447187500000382,
          "durationTicks": 120,
          "midi": 64,
          "name": "E4",
          "ticks": 71712,
          "time": 98.28839249999999,
          "velocity": 0.937007874015748
        },
        {
          "duration": 0.06030635416666996,
          "durationTicks": 44,
          "midi": 65,
          "name": "F4",
          "ticks": 77376,
          "time": 106.051465,
          "velocity": 0.8976377952755905
        },
        {
          "duration": 0.08223593750000191,
          "durationTicks": 60,
          "midi": 65,
          "name": "F4",
          "ticks": 77472,
          "time": 106.18304249999998,
          "velocity": 0.9763779527559056
        },
        {
          "duration": 0.06030635416666996,
          "durationTicks": 44,
          "midi": 65,
          "name": "F4",
          "ticks": 77952,
          "time": 106.84092999999999,
          "velocity": 0.9763779527559056
        },
        {
          "duration": 0.08771833333332779,
          "durationTicks": 64,
          "midi": 65,
          "name": "F4",
          "ticks": 78048,
          "time": 106.97250749999999,
          "velocity": 0.937007874015748
        },
        {
          "duration": 0.0822359374999877,
          "durationTicks": 60,
          "midi": 59,
          "name": "B3",
          "ticks": 78336,
          "time": 107.36724,
          "velocity": 1
        },
        {
          "duration": 0.06578874999999584,
          "durationTicks": 48,
          "midi": 62,
          "name": "D4",
          "ticks": 84000,
          "time": 115.13031249999999,
          "velocity": 0.9763779527559056
        },
        {
          "duration": 0.05482395833332987,
          "durationTicks": 40,
          "midi": 69,
          "name": "A4",
          "ticks": 89664,
          "time": 122.89338499999998,
          "velocity": 0.8503937007874016
        },
        {
          "duration": 0.09320072916666788,
          "durationTicks": 68,
          "midi": 69,
          "name": "A4",
          "ticks": 89760,
          "time": 123.02496249999999,
          "velocity": 0.937007874015748
        },
        {
          "duration": 0.0932007291666821,
          "durationTicks": 68,
          "midi": 65,
          "name": "F4",
          "ticks": 90144,
          "time": 123.55127249999998,
          "velocity": 1
        },
        {
          "duration": 0.10416552083333386,
          "durationTicks": 76,
          "midi": 62,
          "name": "D4",
          "ticks": 90432,
          "time": 123.94600499999999,
          "velocity": 1
        },
        {
          "duration": 0.10964791666665974,
          "durationTicks": 80,
          "midi": 69,
          "name": "A4",
          "ticks": 101472,
          "time": 139.0774175,
          "velocity": 0.9763779527559056
        },
        {
          "duration": 0.10416552083333386,
          "durationTicks": 76,
          "midi": 64,
          "name": "E4",
          "ticks": 101760,
          "time": 139.47215,
          "velocity": 0.9763779527559056
        },
        {
          "duration": 0.08223593750000191,
          "durationTicks": 60,
          "midi": 60,
          "name": "C4",
          "ticks": 102240,
          "time": 140.1300375,
          "velocity": 0.937007874015748
        },
        {
          "duration": 0.12061270833333992,
          "durationTicks": 88,
          "midi": 55,
          "name": "G3",
          "ticks": 102624,
          "time": 140.65634749999998,
          "velocity": 0.9763779527559056
        },
        {
          "duration": 0.06578874999999584,
          "durationTicks": 48,
          "midi": 67,
          "name": "G4",
          "ticks": 114720,
          "time": 157.23511249999999,
          "velocity": 0.8503937007874016
        },
        {
          "duration": 0.07127114583335015,
          "durationTicks": 52,
          "midi": 72,
          "name": "C5",
          "ticks": 120384,
          "time": 164.99818499999998,
          "velocity": 0.9763779527559056
        },
        {
          "duration": 0.06030635416664154,
          "durationTicks": 44,
          "midi": 65,
          "name": "F4",
          "ticks": 120864,
          "time": 165.6560725,
          "velocity": 0.937007874015748
        },
        {
          "duration": 0.06578874999999584,
          "durationTicks": 48,
          "midi": 65,
          "name": "F4",
          "ticks": 120960,
          "time": 165.78764999999999,
          "velocity": 0.8976377952755905
        },
        {
          "duration": 0.10964791666665974,
          "durationTicks": 80,
          "midi": 69,
          "name": "A4",
          "ticks": 126720,
          "time": 173.68229999999997,
          "velocity": 1
        },
        {
          "duration": 0.08223593750000191,
          "durationTicks": 60,
          "midi": 59,
          "name": "B3",
          "ticks": 127008,
          "time": 174.07703249999997,
          "velocity": 1
        },
        {
          "duration": 0.08223593750000191,
          "durationTicks": 60,
          "midi": 62,
          "name": "D4",
          "ticks": 132288,
          "time": 181.31379499999997,
          "velocity": 0.9763779527559056
        },
        {
          "duration": 0.08223593749997349,
          "durationTicks": 60,
          "midi": 65,
          "name": "F4",
          "ticks": 132672,
          "time": 181.840105,
          "velocity": 0.9763779527559056
        },
        {
          "duration": 0.06578874999999584,
          "durationTicks": 48,
          "midi": 59,
          "name": "B3",
          "ticks": 133152,
          "time": 182.49799249999998,
          "velocity": 0.8503937007874016
        },
        {
          "duration": 0.08223593750000191,
          "durationTicks": 60,
          "midi": 59,
          "name": "B3",
          "ticks": 133248,
          "time": 182.62956999999997,
          "velocity": 1
        },
        {
          "duration": 0.06578874999999584,
          "durationTicks": 48,
          "midi": 59,
          "name": "B3",
          "ticks": 139296,
          "time": 190.9189525,
          "velocity": 1
        },
        {
          "duration": 0.09868312500000798,
          "durationTicks": 72,
          "midi": 69,
          "name": "A4",
          "ticks": 144960,
          "time": 198.68202499999998,
          "velocity": 0.937007874015748
        },
        {
          "duration": 0.06030635416666996,
          "durationTicks": 44,
          "midi": 59,
          "name": "B3",
          "ticks": 145344,
          "time": 199.20833499999998,
          "velocity": 0.8503937007874016
        },
        {
          "duration": 0.08223593750000191,
          "durationTicks": 60,
          "midi": 59,
          "name": "B3",
          "ticks": 145440,
          "time": 199.33991249999997,
          "velocity": 0.9763779527559056
        },
        {
          "duration": 0.0767535416666476,
          "durationTicks": 56,
          "midi": 59,
          "name": "B3",
          "ticks": 151584,
          "time": 207.76087249999998,
          "velocity": 0.5354330708661418
        }
      ],
      "endOfTrackTicks": 158208
    },
    {
      "channel": 6,
      "controlChanges": {
        "1": [
          {
            "number": 1,
            "ticks": 3652,
            "time": 5.005427395833332,
            "value": 0
          }
        ],
        "7": [
          {
            "number": 7,
            "ticks": 2052,
            "time": 2.8124690624999995,
            "value": 0.7480314960629921
          }
        ],
        "10": [
          {
            "number": 10,
            "ticks": 2052,
            "time": 2.8124690624999995,
            "value": 0.9291338582677166
          }
        ],
        "11": [
          {
            "number": 11,
            "ticks": 2052,
            "time": 2.8124690624999995,
            "value": 1
          }
        ],
        "91": [
          {
            "number": 91,
            "ticks": 2056,
            "time": 2.8179514583333334,
            "value": 0.47244094488188976
          }
        ],
        "93": [
          {
            "number": 93,
            "ticks": 2056,
            "time": 2.8179514583333334,
            "value": 0.31496062992125984
          }
        ]
      },
      "pitchBends": [
        {
          "ticks": 3652,
          "time": 5.005427395833332,
          "value": 0
        }
      ],
      "instrument": {
        "family": "percussive",
        "number": 118,
        "name": "synth drum"
      },
      "name": "SYNTH DRUM",
      "notes": [
        {
          "duration": 0.07127114583333327,
          "durationTicks": 52,
          "midi": 72,
          "name": "C5",
          "ticks": 3648,
          "time": 4.999944999999999,
          "velocity": 0.9763779527559056
        },
        {
          "duration": 0.06030635416666641,
          "durationTicks": 44,
          "midi": 65,
          "name": "F4",
          "ticks": 4128,
          "time": 5.6578325,
          "velocity": 0.937007874015748
        },
        {
          "duration": 0.06578875000000028,
          "durationTicks": 48,
          "midi": 65,
          "name": "F4",
          "ticks": 4224,
          "time": 5.789409999999999,
          "velocity": 0.8976377952755905
        },
        {
          "duration": 0.07127114583333238,
          "durationTicks": 52,
          "midi": 67,
          "name": "G4",
          "ticks": 16128,
          "time": 22.105019999999996,
          "velocity": 0.9763779527559056
        },
        {
          "duration": 0.08223593749999836,
          "durationTicks": 60,
          "midi": 67,
          "name": "G4",
          "ticks": 16224,
          "time": 22.2365975,
          "velocity": 0.9763779527559056
        },
        {
          "duration": 0.06578875000000295,
          "durationTicks": 48,
          "midi": 72,
          "name": "C5",
          "ticks": 34464,
          "time": 47.23632249999999,
          "velocity": 0.8976377952755905
        },
        {
          "duration": 0.087718333333342,
          "durationTicks": 64,
          "midi": 72,
          "name": "C5",
          "ticks": 34560,
          "time": 47.36789999999999,
          "velocity": 0.937007874015748
        },
        {
          "duration": 0.06030635416666286,
          "durationTicks": 44,
          "midi": 64,
          "name": "E4",
          "ticks": 34848,
          "time": 47.762632499999995,
          "velocity": 0.8503937007874016
        },
        {
          "duration": 0.07675354166666182,
          "durationTicks": 56,
          "midi": 64,
          "name": "E4",
          "ticks": 34944,
          "time": 47.894209999999994,
          "velocity": 0.937007874015748
        },
        {
          "duration": 0.06578874999999584,
          "durationTicks": 48,
          "midi": 59,
          "name": "B3",
          "ticks": 47136,
          "time": 64.6045525,
          "velocity": 1
        },
        {
          "duration": 0.05482395833332987,
          "durationTicks": 40,
          "midi": 67,
          "name": "G4",
          "ticks": 59328,
          "time": 81.31489499999999,
          "velocity": 1
        },
        {
          "duration": 0.10416552083333386,
          "durationTicks": 76,
          "midi": 67,
          "name": "G4",
          "ticks": 65472,
          "time": 89.73585499999999,
          "velocity": 0.937007874015748
        },
        {
          "duration": 0.10416552083333386,
          "durationTicks": 76,
          "midi": 59,
          "name": "B3",
          "ticks": 65760,
          "time": 90.13058749999999,
          "velocity": 0.937007874015748
        },
        {
          "duration": 0.07127114583333594,
          "durationTicks": 52,
          "midi": 67,
          "name": "G4",
          "ticks": 71520,
          "time": 98.02523749999999,
          "velocity": 0.9763779527559056
        },
        {
          "duration": 0.06030635416668417,
          "durationTicks": 44,
          "midi": 69,
          "name": "A4",
          "ticks": 77664,
          "time": 106.44619749999998,
          "velocity": 0.937007874015748
        },
        {
          "duration": 0.06578875000001005,
          "durationTicks": 48,
          "midi": 62,
          "name": "D4",
          "ticks": 78144,
          "time": 107.10408499999998,
          "velocity": 0.937007874015748
        },
        {
          "duration": 0.06578875000001005,
          "durationTicks": 48,
          "midi": 67,
          "name": "G4",
          "ticks": 83712,
          "time": 114.73557999999998,
          "velocity": 0.9763779527559056
        },
        {
          "duration": 0.06030635416666996,
          "durationTicks": 44,
          "midi": 67,
          "name": "G4",
          "ticks": 83808,
          "time": 114.86715749999999,
          "velocity": 0.937007874015748
        },
        {
          "duration": 0.05482395833332987,
          "durationTicks": 40,
          "midi": 65,
          "name": "F4",
          "ticks": 89952,
          "time": 123.28811749999998,
          "velocity": 0.937007874015748
        },
        {
          "duration": 0.12609510416663738,
          "durationTicks": 92,
          "midi": 71,
          "name": "B4",
          "ticks": 101184,
          "time": 138.682685,
          "velocity": 0.937007874015748
        },
        {
          "duration": 0.08223593750000191,
          "durationTicks": 60,
          "midi": 62,
          "name": "D4",
          "ticks": 102048,
          "time": 139.86688249999997,
          "velocity": 0.937007874015748
        },
        {
          "duration": 0.08223593749997349,
          "durationTicks": 60,
          "midi": 59,
          "name": "B3",
          "ticks": 102432,
          "time": 140.3931925,
          "velocity": 0.9763779527559056
        },
        {
          "duration": 0.08223593750000191,
          "durationTicks": 60,
          "midi": 59,
          "name": "B3",
          "ticks": 102528,
          "time": 140.52477,
          "velocity": 0.9763779527559056
        },
        {
          "duration": 0.08223593750000191,
          "durationTicks": 60,
          "midi": 71,
          "name": "B4",
          "ticks": 114528,
          "time": 156.97195749999997,
          "velocity": 0.9763779527559056
        },
        {
          "duration": 0.05482395833331566,
          "durationTicks": 40,
          "midi": 62,
          "name": "D4",
          "ticks": 114912,
          "time": 157.4982675,
          "velocity": 0.905511811023622
        },
        {
          "duration": 0.0767535416666476,
          "durationTicks": 56,
          "midi": 62,
          "name": "D4",
          "ticks": 115008,
          "time": 157.629845,
          "velocity": 1
        },
        {
          "duration": 0.06578874999999584,
          "durationTicks": 48,
          "midi": 72,
          "name": "C5",
          "ticks": 120288,
          "time": 164.8666075,
          "velocity": 0.8503937007874016
        },
        {
          "duration": 0.06578874999999584,
          "durationTicks": 48,
          "midi": 69,
          "name": "A4",
          "ticks": 120672,
          "time": 165.39291749999998,
          "velocity": 0.937007874015748
        },
        {
          "duration": 0.06578874999999584,
          "durationTicks": 48,
          "midi": 69,
          "name": "A4",
          "ticks": 120768,
          "time": 165.52449499999997,
          "velocity": 0.8976377952755905
        },
        {
          "duration": 0.043859166666663896,
          "durationTicks": 32,
          "midi": 62,
          "name": "D4",
          "ticks": 121056,
          "time": 165.91922749999998,
          "velocity": 0.937007874015748
        },
        {
          "duration": 0.06030635416666996,
          "durationTicks": 44,
          "midi": 62,
          "name": "D4",
          "ticks": 121152,
          "time": 166.05080499999997,
          "velocity": 0.9763779527559056
        },
        {
          "duration": 0.07127114583335015,
          "durationTicks": 52,
          "midi": 59,
          "name": "B3",
          "ticks": 121248,
          "time": 166.1823825,
          "velocity": 1
        },
        {
          "duration": 0.06578874999999584,
          "durationTicks": 48,
          "midi": 69,
          "name": "A4",
          "ticks": 126816,
          "time": 173.8138775,
          "velocity": 1
        },
        {
          "duration": 0.06578874999999584,
          "durationTicks": 48,
          "midi": 65,
          "name": "F4",
          "ticks": 139008,
          "time": 190.52421999999999,
          "velocity": 0.9763779527559056
        },
        {
          "duration": 0.06578874999999584,
          "durationTicks": 48,
          "midi": 65,
          "name": "F4",
          "ticks": 139104,
          "time": 190.65579749999998,
          "velocity": 0.937007874015748
        },
        {
          "duration": 0.07127114583335015,
          "durationTicks": 52,
          "midi": 69,
          "name": "A4",
          "ticks": 151296,
          "time": 207.36613999999997,
          "velocity": 0.5354330708661418
        },
        {
          "duration": 0.08771833333335621,
          "durationTicks": 64,
          "midi": 69,
          "name": "A4",
          "ticks": 151392,
          "time": 207.49771749999996,
          "velocity": 0.49606299212598426
        }
      ],
      "endOfTrackTicks": 158208
    },
    {
      "channel": 7,
      "controlChanges": {
        "1": [
          {
            "number": 1,
            "ticks": 21508,
            "time": 29.47884239583333,
            "value": 0
          },
          {
            "number": 1,
            "ticks": 32608,
            "time": 44.69249083333333,
            "value": 0.031496062992125984
          },
          {
            "number": 1,
            "ticks": 32620,
            "time": 44.70893802083333,
            "value": 0.03937007874015748
          },
          {
            "number": 1,
            "ticks": 32632,
            "time": 44.72538520833333,
            "value": 0.047244094488188976
          },
          {
            "number": 1,
            "ticks": 32648,
            "time": 44.74731479166666,
            "value": 0.06299212598425197
          },
          {
            "number": 1,
            "ticks": 32664,
            "time": 44.76924437499999,
            "value": 0.08661417322834646
          },
          {
            "number": 1,
            "ticks": 32676,
            "time": 44.7856915625,
            "value": 0.10236220472440945
          },
          {
            "number": 1,
            "ticks": 32692,
            "time": 44.80762114583333,
            "value": 0.12598425196850394
          },
          {
            "number": 1,
            "ticks": 32704,
            "time": 44.82406833333333,
            "value": 0.14960629921259844
          },
          {
            "number": 1,
            "ticks": 32720,
            "time": 44.84599791666666,
            "value": 0.16535433070866143
          },
          {
            "number": 1,
            "ticks": 32732,
            "time": 44.86244510416666,
            "value": 0.1889763779527559
          },
          {
            "number": 1,
            "ticks": 32748,
            "time": 44.88437468749999,
            "value": 0.2125984251968504
          },
          {
            "number": 1,
            "ticks": 32760,
            "time": 44.900821875,
            "value": 0.23622047244094488
          },
          {
            "number": 1,
            "ticks": 32776,
            "time": 44.92275145833333,
            "value": 0.25984251968503935
          },
          {
            "number": 1,
            "ticks": 32788,
            "time": 44.93919864583333,
            "value": 0.2755905511811024
          },
          {
            "number": 1,
            "ticks": 32804,
            "time": 44.96112822916666,
            "value": 0.2992125984251969
          },
          {
            "number": 1,
            "ticks": 32816,
            "time": 44.97757541666666,
            "value": 0.33070866141732286
          },
          {
            "number": 1,
            "ticks": 32828,
            "time": 44.99402260416666,
            "value": 0.3464566929133858
          },
          {
            "number": 1,
            "ticks": 32844,
            "time": 45.0159521875,
            "value": 0.3700787401574803
          },
          {
            "number": 1,
            "ticks": 32856,
            "time": 45.032399375,
            "value": 0.3858267716535433
          },
          {
            "number": 1,
            "ticks": 32872,
            "time": 45.05432895833333,
            "value": 0.4094488188976378
          },
          {
            "number": 1,
            "ticks": 32884,
            "time": 45.07077614583333,
            "value": 0.4330708661417323
          },
          {
            "number": 1,
            "ticks": 32900,
            "time": 45.09270572916666,
            "value": 0.44881889763779526
          },
          {
            "number": 1,
            "ticks": 32912,
            "time": 45.10915291666666,
            "value": 0.47244094488188976
          },
          {
            "number": 1,
            "ticks": 32928,
            "time": 45.1310825,
            "value": 0.4881889763779528
          },
          {
            "number": 1,
            "ticks": 32940,
            "time": 45.1475296875,
            "value": 0.5118110236220472
          },
          {
            "number": 1,
            "ticks": 32956,
            "time": 45.16945927083333,
            "value": 0.5275590551181102
          },
          {
            "number": 1,
            "ticks": 32972,
            "time": 45.19138885416666,
            "value": 0.5511811023622047
          },
          {
            "number": 1,
            "ticks": 32980,
            "time": 45.202353645833334,
            "value": 0.5748031496062992
          },
          {
            "number": 1,
            "ticks": 32996,
            "time": 45.22428322916666,
            "value": 0.5905511811023622
          },
          {
            "number": 1,
            "ticks": 33012,
            "time": 45.2462128125,
            "value": 0.6062992125984252
          },
          {
            "number": 1,
            "ticks": 33024,
            "time": 45.26266,
            "value": 0.6299212598425197
          },
          {
            "number": 1,
            "ticks": 33040,
            "time": 45.28458958333333,
            "value": 0.6456692913385826
          },
          {
            "number": 1,
            "ticks": 33052,
            "time": 45.30103677083333,
            "value": 0.6614173228346457
          },
          {
            "number": 1,
            "ticks": 33068,
            "time": 45.32296635416666,
            "value": 0.6771653543307087
          },
          {
            "number": 1,
            "ticks": 33080,
            "time": 45.33941354166666,
            "value": 0.7007874015748031
          },
          {
            "number": 1,
            "ticks": 33096,
            "time": 45.361343125,
            "value": 0.7086614173228346
          },
          {
            "number": 1,
            "ticks": 33108,
            "time": 45.3777903125,
            "value": 0.7244094488188977
          },
          {
            "number": 1,
            "ticks": 33124,
            "time": 45.39971989583333,
            "value": 0.7401574803149606
          },
          {
            "number": 1,
            "ticks": 33136,
            "time": 45.41616708333333,
            "value": 0.7559055118110236
          },
          {
            "number": 1,
            "ticks": 33152,
            "time": 45.43809666666666,
            "value": 0.7637795275590551
          },
          {
            "number": 1,
            "ticks": 33164,
            "time": 45.45454385416666,
            "value": 0.7795275590551181
          },
          {
            "number": 1,
            "ticks": 33180,
            "time": 45.4764734375,
            "value": 0.7952755905511811
          },
          {
            "number": 1,
            "ticks": 33192,
            "time": 45.492920625,
            "value": 0.8110236220472441
          },
          {
            "number": 1,
            "ticks": 33208,
            "time": 45.51485020833333,
            "value": 0.8267716535433071
          },
          {
            "number": 1,
            "ticks": 33220,
            "time": 45.531297395833334,
            "value": 0.84251968503937
          },
          {
            "number": 1,
            "ticks": 33236,
            "time": 45.55322697916666,
            "value": 0.8661417322834646
          },
          {
            "number": 1,
            "ticks": 33248,
            "time": 45.56967416666666,
            "value": 0.8818897637795275
          },
          {
            "number": 1,
            "ticks": 33260,
            "time": 45.58612135416666,
            "value": 0.8976377952755905
          },
          {
            "number": 1,
            "ticks": 33276,
            "time": 45.608050937499996,
            "value": 0.9133858267716536
          },
          {
            "number": 1,
            "ticks": 33288,
            "time": 45.624498124999995,
            "value": 0.937007874015748
          },
          {
            "number": 1,
            "ticks": 33304,
            "time": 45.646427708333334,
            "value": 0.952755905511811
          },
          {
            "number": 1,
            "ticks": 33316,
            "time": 45.66287489583333,
            "value": 0.984251968503937
          },
          {
            "number": 1,
            "ticks": 33332,
            "time": 45.68480447916666,
            "value": 1
          },
          {
            "number": 1,
            "ticks": 33540,
            "time": 45.969889062499995,
            "value": 0.9448818897637795
          },
          {
            "number": 1,
            "ticks": 33552,
            "time": 45.986336249999994,
            "value": 0.8976377952755905
          },
          {
            "number": 1,
            "ticks": 33568,
            "time": 46.00826583333333,
            "value": 0.84251968503937
          },
          {
            "number": 1,
            "ticks": 33580,
            "time": 46.02471302083333,
            "value": 0.7795275590551181
          },
          {
            "number": 1,
            "ticks": 33592,
            "time": 46.04116020833333,
            "value": 0.7007874015748031
          },
          {
            "number": 1,
            "ticks": 33608,
            "time": 46.06308979166666,
            "value": 0.5905511811023622
          },
          {
            "number": 1,
            "ticks": 33624,
            "time": 46.085019374999995,
            "value": 0.4566929133858268
          },
          {
            "number": 1,
            "ticks": 33636,
            "time": 46.10146656249999,
            "value": 0.31496062992125984
          },
          {
            "number": 1,
            "ticks": 33652,
            "time": 46.12339614583333,
            "value": 0.1968503937007874
          },
          {
            "number": 1,
            "ticks": 33664,
            "time": 46.13984333333333,
            "value": 0.06299212598425197
          },
          {
            "number": 1,
            "ticks": 33680,
            "time": 46.161772916666656,
            "value": 0.023622047244094488
          },
          {
            "number": 1,
            "ticks": 63240,
            "time": 86.676678125,
            "value": 0.031496062992125984
          },
          {
            "number": 1,
            "ticks": 63252,
            "time": 86.69312531249999,
            "value": 0.03937007874015748
          },
          {
            "number": 1,
            "ticks": 63264,
            "time": 86.7095725,
            "value": 0.05511811023622047
          },
          {
            "number": 1,
            "ticks": 63280,
            "time": 86.73150208333333,
            "value": 0.07086614173228346
          },
          {
            "number": 1,
            "ticks": 63292,
            "time": 86.74794927083332,
            "value": 0.10236220472440945
          },
          {
            "number": 1,
            "ticks": 63308,
            "time": 86.76987885416666,
            "value": 0.12598425196850394
          },
          {
            "number": 1,
            "ticks": 63320,
            "time": 86.78632604166667,
            "value": 0.15748031496062992
          },
          {
            "number": 1,
            "ticks": 63336,
            "time": 86.80825562499999,
            "value": 0.1889763779527559
          },
          {
            "number": 1,
            "ticks": 63348,
            "time": 86.82470281249999,
            "value": 0.2125984251968504
          },
          {
            "number": 1,
            "ticks": 63364,
            "time": 86.84663239583332,
            "value": 0.23622047244094488
          },
          {
            "number": 1,
            "ticks": 63376,
            "time": 86.86307958333332,
            "value": 0.25984251968503935
          },
          {
            "number": 1,
            "ticks": 63392,
            "time": 86.88500916666666,
            "value": 0.28346456692913385
          },
          {
            "number": 1,
            "ticks": 63408,
            "time": 86.90693875,
            "value": 0.2992125984251969
          },
          {
            "number": 1,
            "ticks": 63416,
            "time": 86.91790354166666,
            "value": 0.31496062992125984
          },
          {
            "number": 1,
            "ticks": 63432,
            "time": 86.93983312499999,
            "value": 0.33070866141732286
          },
          {
            "number": 1,
            "ticks": 63448,
            "time": 86.96176270833332,
            "value": 0.3543307086614173
          },
          {
            "number": 1,
            "ticks": 63460,
            "time": 86.97820989583332,
            "value": 0.3700787401574803
          },
          {
            "number": 1,
            "ticks": 63476,
            "time": 87.00013947916666,
            "value": 0.3937007874015748
          },
          {
            "number": 1,
            "ticks": 63488,
            "time": 87.01658666666667,
            "value": 0.41732283464566927
          },
          {
            "number": 1,
            "ticks": 63504,
            "time": 87.03851624999999,
            "value": 0.4330708661417323
          },
          {
            "number": 1,
            "ticks": 63516,
            "time": 87.05496343749999,
            "value": 0.4566929133858268
          },
          {
            "number": 1,
            "ticks": 63532,
            "time": 87.07689302083332,
            "value": 0.47244094488188976
          },
          {
            "number": 1,
            "ticks": 63544,
            "time": 87.09334020833332,
            "value": 0.49606299212598426
          },
          {
            "number": 1,
            "ticks": 63560,
            "time": 87.11526979166666,
            "value": 0.5118110236220472
          },
          {
            "number": 1,
            "ticks": 63572,
            "time": 87.13171697916667,
            "value": 0.5275590551181102
          },
          {
            "number": 1,
            "ticks": 63588,
            "time": 87.15364656249999,
            "value": 0.5354330708661418
          },
          {
            "number": 1,
            "ticks": 63600,
            "time": 87.17009374999999,
            "value": 0.5511811023622047
          },
          {
            "number": 1,
            "ticks": 63616,
            "time": 87.19202333333332,
            "value": 0.5669291338582677
          },
          {
            "number": 1,
            "ticks": 63628,
            "time": 87.20847052083332,
            "value": 0.5826771653543307
          },
          {
            "number": 1,
            "ticks": 63644,
            "time": 87.23040010416666,
            "value": 0.5905511811023622
          },
          {
            "number": 1,
            "ticks": 63656,
            "time": 87.24684729166667,
            "value": 0.5984251968503937
          },
          {
            "number": 1,
            "ticks": 63672,
            "time": 87.26877687499999,
            "value": 0.6141732283464567
          },
          {
            "number": 1,
            "ticks": 63684,
            "time": 87.28522406249999,
            "value": 0.6220472440944882
          },
          {
            "number": 1,
            "ticks": 63696,
            "time": 87.30167124999998,
            "value": 0.6299212598425197
          },
          {
            "number": 1,
            "ticks": 63712,
            "time": 87.32360083333332,
            "value": 0.6456692913385826
          },
          {
            "number": 1,
            "ticks": 63724,
            "time": 87.34004802083332,
            "value": 0.6614173228346457
          },
          {
            "number": 1,
            "ticks": 63740,
            "time": 87.36197760416667,
            "value": 0.6692913385826772
          },
          {
            "number": 1,
            "ticks": 63752,
            "time": 87.37842479166666,
            "value": 0.6850393700787402
          },
          {
            "number": 1,
            "ticks": 63768,
            "time": 87.40035437499999,
            "value": 0.7007874015748031
          },
          {
            "number": 1,
            "ticks": 63780,
            "time": 87.41680156249998,
            "value": 0.7086614173228346
          },
          {
            "number": 1,
            "ticks": 63796,
            "time": 87.43873114583332,
            "value": 0.7244094488188977
          },
          {
            "number": 1,
            "ticks": 63808,
            "time": 87.45517833333332,
            "value": 0.7480314960629921
          },
          {
            "number": 1,
            "ticks": 63824,
            "time": 87.47710791666667,
            "value": 0.7637795275590551
          },
          {
            "number": 1,
            "ticks": 63836,
            "time": 87.49355510416666,
            "value": 0.7874015748031497
          },
          {
            "number": 1,
            "ticks": 63848,
            "time": 87.51000229166667,
            "value": 0.8110236220472441
          },
          {
            "number": 1,
            "ticks": 63864,
            "time": 87.53193187499998,
            "value": 0.8346456692913385
          },
          {
            "number": 1,
            "ticks": 63876,
            "time": 87.54837906249999,
            "value": 0.8503937007874016
          },
          {
            "number": 1,
            "ticks": 63892,
            "time": 87.57030864583332,
            "value": 0.8740157480314961
          },
          {
            "number": 1,
            "ticks": 63908,
            "time": 87.59223822916667,
            "value": 0.905511811023622
          },
          {
            "number": 1,
            "ticks": 63920,
            "time": 87.60868541666666,
            "value": 0.9291338582677166
          },
          {
            "number": 1,
            "ticks": 63936,
            "time": 87.63061499999999,
            "value": 0.9448818897637795
          },
          {
            "number": 1,
            "ticks": 63948,
            "time": 87.6470621875,
            "value": 0.984251968503937
          },
          {
            "number": 1,
            "ticks": 63964,
            "time": 87.66899177083332,
            "value": 1
          },
          {
            "number": 1,
            "ticks": 64212,
            "time": 88.00890031249999,
            "value": 0.9763779527559056
          },
          {
            "number": 1,
            "ticks": 64224,
            "time": 88.0253475,
            "value": 0.9291338582677166
          },
          {
            "number": 1,
            "ticks": 64240,
            "time": 88.04727708333331,
            "value": 0.8818897637795275
          },
          {
            "number": 1,
            "ticks": 64252,
            "time": 88.06372427083332,
            "value": 0.8346456692913385
          },
          {
            "number": 1,
            "ticks": 64268,
            "time": 88.08565385416667,
            "value": 0.7795275590551181
          },
          {
            "number": 1,
            "ticks": 64280,
            "time": 88.10210104166666,
            "value": 0.7165354330708661
          },
          {
            "number": 1,
            "ticks": 64296,
            "time": 88.12403062499999,
            "value": 0.6535433070866141
          },
          {
            "number": 1,
            "ticks": 64308,
            "time": 88.1404778125,
            "value": 0.5748031496062992
          },
          {
            "number": 1,
            "ticks": 64324,
            "time": 88.16240739583331,
            "value": 0.47244094488188976
          },
          {
            "number": 1,
            "ticks": 64336,
            "time": 88.17885458333332,
            "value": 0.36220472440944884
          },
          {
            "number": 1,
            "ticks": 64352,
            "time": 88.20078416666666,
            "value": 0.2440944881889764
          },
          {
            "number": 1,
            "ticks": 64368,
            "time": 88.22271375,
            "value": 0.12598425196850394
          },
          {
            "number": 1,
            "ticks": 64384,
            "time": 88.24464333333331,
            "value": 0.031496062992125984
          },
          {
            "number": 1,
            "ticks": 64392,
            "time": 88.255608125,
            "value": 0.023622047244094488
          },
          {
            "number": 1,
            "ticks": 115948,
            "time": 158.91820802083333,
            "value": 0.031496062992125984
          },
          {
            "number": 1,
            "ticks": 115976,
            "time": 158.95658479166664,
            "value": 0.03937007874015748
          },
          {
            "number": 1,
            "ticks": 115984,
            "time": 158.96754958333332,
            "value": 0.047244094488188976
          },
          {
            "number": 1,
            "ticks": 116004,
            "time": 158.99496156249998,
            "value": 0.05511811023622047
          },
          {
            "number": 1,
            "ticks": 116016,
            "time": 159.01140875,
            "value": 0.07086614173228346
          },
          {
            "number": 1,
            "ticks": 116028,
            "time": 159.0278559375,
            "value": 0.07874015748031496
          },
          {
            "number": 1,
            "ticks": 116044,
            "time": 159.04978552083332,
            "value": 0.08661417322834646
          },
          {
            "number": 1,
            "ticks": 116056,
            "time": 159.06623270833333,
            "value": 0.10236220472440945
          },
          {
            "number": 1,
            "ticks": 116072,
            "time": 159.08816229166663,
            "value": 0.11023622047244094
          },
          {
            "number": 1,
            "ticks": 116084,
            "time": 159.10460947916664,
            "value": 0.12598425196850394
          },
          {
            "number": 1,
            "ticks": 116100,
            "time": 159.12653906249997,
            "value": 0.14960629921259844
          },
          {
            "number": 1,
            "ticks": 116112,
            "time": 159.14298624999998,
            "value": 0.16535433070866143
          },
          {
            "number": 1,
            "ticks": 116128,
            "time": 159.16491583333334,
            "value": 0.1889763779527559
          },
          {
            "number": 1,
            "ticks": 116140,
            "time": 159.18136302083332,
            "value": 0.2047244094488189
          },
          {
            "number": 1,
            "ticks": 116156,
            "time": 159.20329260416665,
            "value": 0.2204724409448819
          },
          {
            "number": 1,
            "ticks": 116168,
            "time": 159.21973979166663,
            "value": 0.2440944881889764
          },
          {
            "number": 1,
            "ticks": 116184,
            "time": 159.241669375,
            "value": 0.25984251968503935
          },
          {
            "number": 1,
            "ticks": 116196,
            "time": 159.2581165625,
            "value": 0.28346456692913385
          },
          {
            "number": 1,
            "ticks": 116212,
            "time": 159.28004614583332,
            "value": 0.30708661417322836
          },
          {
            "number": 1,
            "ticks": 116224,
            "time": 159.29649333333333,
            "value": 0.33070866141732286
          },
          {
            "number": 1,
            "ticks": 116236,
            "time": 159.31294052083334,
            "value": 0.3543307086614173
          },
          {
            "number": 1,
            "ticks": 116252,
            "time": 159.33487010416664,
            "value": 0.3779527559055118
          },
          {
            "number": 1,
            "ticks": 116268,
            "time": 159.35679968749997,
            "value": 0.3937007874015748
          },
          {
            "number": 1,
            "ticks": 116280,
            "time": 159.37324687499998,
            "value": 0.41732283464566927
          },
          {
            "number": 1,
            "ticks": 116292,
            "time": 159.38969406249998,
            "value": 0.4409448818897638
          },
          {
            "number": 1,
            "ticks": 116308,
            "time": 159.41162364583332,
            "value": 0.4645669291338583
          },
          {
            "number": 1,
            "ticks": 116320,
            "time": 159.42807083333332,
            "value": 0.4881889763779528
          },
          {
            "number": 1,
            "ticks": 116336,
            "time": 159.45000041666663,
            "value": 0.5118110236220472
          },
          {
            "number": 1,
            "ticks": 116352,
            "time": 159.47193,
            "value": 0.5354330708661418
          },
          {
            "number": 1,
            "ticks": 116364,
            "time": 159.4883771875,
            "value": 0.5590551181102362
          },
          {
            "number": 1,
            "ticks": 116380,
            "time": 159.51030677083332,
            "value": 0.5826771653543307
          },
          {
            "number": 1,
            "ticks": 116392,
            "time": 159.52675395833333,
            "value": 0.5984251968503937
          },
          {
            "number": 1,
            "ticks": 116408,
            "time": 159.54868354166663,
            "value": 0.6220472440944882
          },
          {
            "number": 1,
            "ticks": 116420,
            "time": 159.56513072916664,
            "value": 0.6456692913385826
          },
          {
            "number": 1,
            "ticks": 116432,
            "time": 159.58157791666665,
            "value": 0.6692913385826772
          },
          {
            "number": 1,
            "ticks": 116448,
            "time": 159.60350749999998,
            "value": 0.7007874015748031
          },
          {
            "number": 1,
            "ticks": 116460,
            "time": 159.61995468749998,
            "value": 0.7322834645669292
          },
          {
            "number": 1,
            "ticks": 116476,
            "time": 159.64188427083332,
            "value": 0.7716535433070866
          },
          {
            "number": 1,
            "ticks": 116488,
            "time": 159.65833145833332,
            "value": 0.8031496062992126
          },
          {
            "number": 1,
            "ticks": 116504,
            "time": 159.68026104166665,
            "value": 0.84251968503937
          },
          {
            "number": 1,
            "ticks": 116516,
            "time": 159.69670822916663,
            "value": 0.8818897637795275
          },
          {
            "number": 1,
            "ticks": 116532,
            "time": 159.7186378125,
            "value": 0.8976377952755905
          },
          {
            "number": 1,
            "ticks": 116544,
            "time": 159.73508499999997,
            "value": 0.905511811023622
          },
          {
            "number": 1,
            "ticks": 116560,
            "time": 159.75701458333333,
            "value": 0.889763779527559
          },
          {
            "number": 1,
            "ticks": 116572,
            "time": 159.77346177083334,
            "value": 0.8346456692913385
          },
          {
            "number": 1,
            "ticks": 116588,
            "time": 159.79539135416664,
            "value": 0.7322834645669292
          },
          {
            "number": 1,
            "ticks": 116604,
            "time": 159.81732093749997,
            "value": 0.5984251968503937
          },
          {
            "number": 1,
            "ticks": 116616,
            "time": 159.83376812499998,
            "value": 0.4409448818897638
          },
          {
            "number": 1,
            "ticks": 116632,
            "time": 159.85569770833334,
            "value": 0.28346456692913385
          },
          {
            "number": 1,
            "ticks": 116644,
            "time": 159.87214489583332,
            "value": 0.13385826771653545
          },
          {
            "number": 1,
            "ticks": 116660,
            "time": 159.89407447916665,
            "value": 0.031496062992125984
          },
          {
            "number": 1,
            "ticks": 116672,
            "time": 159.91052166666665,
            "value": 0.023622047244094488
          },
          {
            "number": 1,
            "ticks": 117228,
            "time": 160.67257468749997,
            "value": 0.03937007874015748
          },
          {
            "number": 1,
            "ticks": 117240,
            "time": 160.68902187499998,
            "value": 0.047244094488188976
          },
          {
            "number": 1,
            "ticks": 117256,
            "time": 160.7109514583333,
            "value": 0.05511811023622047
          },
          {
            "number": 1,
            "ticks": 117268,
            "time": 160.72739864583332,
            "value": 0.07086614173228346
          },
          {
            "number": 1,
            "ticks": 117284,
            "time": 160.74932822916665,
            "value": 0.09448818897637795
          },
          {
            "number": 1,
            "ticks": 117296,
            "time": 160.76577541666663,
            "value": 0.11023622047244094
          },
          {
            "number": 1,
            "ticks": 117312,
            "time": 160.787705,
            "value": 0.12598425196850394
          },
          {
            "number": 1,
            "ticks": 117324,
            "time": 160.8041521875,
            "value": 0.13385826771653545
          },
          {
            "number": 1,
            "ticks": 117340,
            "time": 160.82608177083333,
            "value": 0.14960629921259844
          },
          {
            "number": 1,
            "ticks": 117352,
            "time": 160.84252895833333,
            "value": 0.15748031496062992
          },
          {
            "number": 1,
            "ticks": 117364,
            "time": 160.85897614583334,
            "value": 0.1732283464566929
          },
          {
            "number": 1,
            "ticks": 117380,
            "time": 160.88090572916664,
            "value": 0.18110236220472442
          },
          {
            "number": 1,
            "ticks": 117396,
            "time": 160.90283531249997,
            "value": 0.1889763779527559
          },
          {
            "number": 1,
            "ticks": 117412,
            "time": 160.92476489583333,
            "value": 0.2047244094488189
          },
          {
            "number": 1,
            "ticks": 117420,
            "time": 160.9357296875,
            "value": 0.2204724409448819
          },
          {
            "number": 1,
            "ticks": 117436,
            "time": 160.95765927083332,
            "value": 0.2283464566929134
          },
          {
            "number": 1,
            "ticks": 117448,
            "time": 160.97410645833332,
            "value": 0.2440944881889764
          },
          {
            "number": 1,
            "ticks": 117464,
            "time": 160.99603604166663,
            "value": 0.25196850393700787
          },
          {
            "number": 1,
            "ticks": 117476,
            "time": 161.01248322916663,
            "value": 0.2677165354330709
          },
          {
            "number": 1,
            "ticks": 117492,
            "time": 161.0344128125,
            "value": 0.2755905511811024
          },
          {
            "number": 1,
            "ticks": 117504,
            "time": 161.05085999999997,
            "value": 0.28346456692913385
          },
          {
            "number": 1,
            "ticks": 117520,
            "time": 161.07278958333333,
            "value": 0.2992125984251969
          },
          {
            "number": 1,
            "ticks": 117536,
            "time": 161.09471916666664,
            "value": 0.30708661417322836
          },
          {
            "number": 1,
            "ticks": 117548,
            "time": 161.11116635416664,
            "value": 0.3228346456692913
          },
          {
            "number": 1,
            "ticks": 117560,
            "time": 161.12761354166665,
            "value": 0.33070866141732286
          },
          {
            "number": 1,
            "ticks": 117588,
            "time": 161.16599031249999,
            "value": 0.33858267716535434
          },
          {
            "number": 1,
            "ticks": 117604,
            "time": 161.18791989583332,
            "value": 0.3464566929133858
          },
          {
            "number": 1,
            "ticks": 117616,
            "time": 161.20436708333332,
            "value": 0.3543307086614173
          },
          {
            "number": 1,
            "ticks": 117632,
            "time": 161.22629666666663,
            "value": 0.36220472440944884
          },
          {
            "number": 1,
            "ticks": 117644,
            "time": 161.24274385416663,
            "value": 0.3700787401574803
          },
          {
            "number": 1,
            "ticks": 117660,
            "time": 161.2646734375,
            "value": 0.3858267716535433
          },
          {
            "number": 1,
            "ticks": 117672,
            "time": 161.28112062499997,
            "value": 0.3937007874015748
          },
          {
            "number": 1,
            "ticks": 117688,
            "time": 161.30305020833333,
            "value": 0.4094488188976378
          },
          {
            "number": 1,
            "ticks": 117700,
            "time": 161.31949739583334,
            "value": 0.4251968503937008
          },
          {
            "number": 1,
            "ticks": 117716,
            "time": 161.34142697916664,
            "value": 0.44881889763779526
          },
          {
            "number": 1,
            "ticks": 117728,
            "time": 161.35787416666665,
            "value": 0.4645669291338583
          },
          {
            "number": 1,
            "ticks": 117744,
            "time": 161.37980374999998,
            "value": 0.48031496062992124
          },
          {
            "number": 1,
            "ticks": 117756,
            "time": 161.39625093749999,
            "value": 0.5039370078740157
          },
          {
            "number": 1,
            "ticks": 117772,
            "time": 161.41818052083332,
            "value": 0.5196850393700787
          },
          {
            "number": 1,
            "ticks": 117784,
            "time": 161.43462770833332,
            "value": 0.5354330708661418
          },
          {
            "number": 1,
            "ticks": 117800,
            "time": 161.45655729166663,
            "value": 0.5590551181102362
          },
          {
            "number": 1,
            "ticks": 117812,
            "time": 161.47300447916663,
            "value": 0.5826771653543307
          },
          {
            "number": 1,
            "ticks": 117824,
            "time": 161.48945166666664,
            "value": 0.6062992125984252
          },
          {
            "number": 1,
            "ticks": 117840,
            "time": 161.51138124999997,
            "value": 0.6299212598425197
          },
          {
            "number": 1,
            "ticks": 117852,
            "time": 161.52782843749998,
            "value": 0.6456692913385826
          },
          {
            "number": 1,
            "ticks": 117868,
            "time": 161.54975802083334,
            "value": 0.6692913385826772
          },
          {
            "number": 1,
            "ticks": 117880,
            "time": 161.56620520833332,
            "value": 0.6850393700787402
          },
          {
            "number": 1,
            "ticks": 117896,
            "time": 161.58813479166665,
            "value": 0.7086614173228346
          },
          {
            "number": 1,
            "ticks": 117908,
            "time": 161.60458197916665,
            "value": 0.7322834645669292
          },
          {
            "number": 1,
            "ticks": 117924,
            "time": 161.62651156249999,
            "value": 0.7559055118110236
          },
          {
            "number": 1,
            "ticks": 117940,
            "time": 161.64844114583332,
            "value": 0.7716535433070866
          },
          {
            "number": 1,
            "ticks": 117952,
            "time": 161.66488833333332,
            "value": 0.7795275590551181
          },
          {
            "number": 1,
            "ticks": 117964,
            "time": 161.68133552083333,
            "value": 0.7716535433070866
          },
          {
            "number": 1,
            "ticks": 117980,
            "time": 161.70326510416663,
            "value": 0.7480314960629921
          },
          {
            "number": 1,
            "ticks": 117992,
            "time": 161.71971229166664,
            "value": 0.7086614173228346
          },
          {
            "number": 1,
            "ticks": 118008,
            "time": 161.74164187499997,
            "value": 0.6535433070866141
          },
          {
            "number": 1,
            "ticks": 118020,
            "time": 161.75808906249998,
            "value": 0.5984251968503937
          },
          {
            "number": 1,
            "ticks": 118036,
            "time": 161.78001864583334,
            "value": 0.5354330708661418
          },
          {
            "number": 1,
            "ticks": 118048,
            "time": 161.79646583333331,
            "value": 0.47244094488188976
          },
          {
            "number": 1,
            "ticks": 118064,
            "time": 161.81839541666665,
            "value": 0.4094488188976378
          },
          {
            "number": 1,
            "ticks": 118076,
            "time": 161.83484260416665,
            "value": 0.33858267716535434
          },
          {
            "number": 1,
            "ticks": 118092,
            "time": 161.85677218749998,
            "value": 0.25984251968503935
          },
          {
            "number": 1,
            "ticks": 118104,
            "time": 161.873219375,
            "value": 0.15748031496062992
          },
          {
            "number": 1,
            "ticks": 118116,
            "time": 161.8896665625,
            "value": 0.05511811023622047
          },
          {
            "number": 1,
            "ticks": 118136,
            "time": 161.91707854166663,
            "value": 0.023622047244094488
          },
          {
            "number": 1,
            "ticks": 118716,
            "time": 162.7120259375,
            "value": 0.031496062992125984
          },
          {
            "number": 1,
            "ticks": 118756,
            "time": 162.76684989583333,
            "value": 0.03937007874015748
          },
          {
            "number": 1,
            "ticks": 118772,
            "time": 162.78877947916664,
            "value": 0.047244094488188976
          },
          {
            "number": 1,
            "ticks": 118800,
            "time": 162.82715624999997,
            "value": 0.06299212598425197
          },
          {
            "number": 1,
            "ticks": 118812,
            "time": 162.84360343749998,
            "value": 0.07086614173228346
          },
          {
            "number": 1,
            "ticks": 118828,
            "time": 162.86553302083334,
            "value": 0.07874015748031496
          },
          {
            "number": 1,
            "ticks": 118840,
            "time": 162.88198020833332,
            "value": 0.08661417322834646
          },
          {
            "number": 1,
            "ticks": 118856,
            "time": 162.90390979166665,
            "value": 0.09448818897637795
          },
          {
            "number": 1,
            "ticks": 118884,
            "time": 162.9422865625,
            "value": 0.10236220472440945
          },
          {
            "number": 1,
            "ticks": 118896,
            "time": 162.95873375,
            "value": 0.11023622047244094
          },
          {
            "number": 1,
            "ticks": 118912,
            "time": 162.98066333333333,
            "value": 0.12598425196850394
          },
          {
            "number": 1,
            "ticks": 118928,
            "time": 163.00259291666663,
            "value": 0.13385826771653545
          },
          {
            "number": 1,
            "ticks": 118936,
            "time": 163.01355770833334,
            "value": 0.14960629921259844
          },
          {
            "number": 1,
            "ticks": 118952,
            "time": 163.03548729166664,
            "value": 0.15748031496062992
          },
          {
            "number": 1,
            "ticks": 118964,
            "time": 163.05193447916665,
            "value": 0.1732283464566929
          },
          {
            "number": 1,
            "ticks": 118980,
            "time": 163.07386406249998,
            "value": 0.1889763779527559
          },
          {
            "number": 1,
            "ticks": 118996,
            "time": 163.09579364583334,
            "value": 0.2047244094488189
          },
          {
            "number": 1,
            "ticks": 119008,
            "time": 163.11224083333332,
            "value": 0.2204724409448819
          },
          {
            "number": 1,
            "ticks": 119024,
            "time": 163.13417041666665,
            "value": 0.23622047244094488
          },
          {
            "number": 1,
            "ticks": 119036,
            "time": 163.15061760416663,
            "value": 0.25984251968503935
          },
          {
            "number": 1,
            "ticks": 119052,
            "time": 163.1725471875,
            "value": 0.2755905511811024
          },
          {
            "number": 1,
            "ticks": 119064,
            "time": 163.188994375,
            "value": 0.29133858267716534
          },
          {
            "number": 1,
            "ticks": 119080,
            "time": 163.21092395833332,
            "value": 0.2992125984251969
          },
          {
            "number": 1,
            "ticks": 119096,
            "time": 163.23285354166663,
            "value": 0.31496062992125984
          },
          {
            "number": 1,
            "ticks": 119108,
            "time": 163.24930072916663,
            "value": 0.33070866141732286
          },
          {
            "number": 1,
            "ticks": 119120,
            "time": 163.26574791666664,
            "value": 0.33858267716535434
          },
          {
            "number": 1,
            "ticks": 119136,
            "time": 163.28767749999997,
            "value": 0.3543307086614173
          },
          {
            "number": 1,
            "ticks": 119148,
            "time": 163.30412468749998,
            "value": 0.36220472440944884
          },
          {
            "number": 1,
            "ticks": 119164,
            "time": 163.32605427083334,
            "value": 0.3700787401574803
          },
          {
            "number": 1,
            "ticks": 119176,
            "time": 163.34250145833332,
            "value": 0.3858267716535433
          },
          {
            "number": 1,
            "ticks": 119192,
            "time": 163.36443104166665,
            "value": 0.4015748031496063
          },
          {
            "number": 1,
            "ticks": 119204,
            "time": 163.38087822916663,
            "value": 0.4094488188976378
          },
          {
            "number": 1,
            "ticks": 119220,
            "time": 163.4028078125,
            "value": 0.4251968503937008
          },
          {
            "number": 1,
            "ticks": 119236,
            "time": 163.42473739583332,
            "value": 0.4330708661417323
          },
          {
            "number": 1,
            "ticks": 119244,
            "time": 163.43570218749997,
            "value": 0.4409448818897638
          },
          {
            "number": 1,
            "ticks": 119260,
            "time": 163.45763177083333,
            "value": 0.4566929133858268
          },
          {
            "number": 1,
            "ticks": 119272,
            "time": 163.47407895833334,
            "value": 0.4645669291338583
          },
          {
            "number": 1,
            "ticks": 119288,
            "time": 163.49600854166664,
            "value": 0.48031496062992124
          },
          {
            "number": 1,
            "ticks": 119300,
            "time": 163.51245572916665,
            "value": 0.49606299212598426
          },
          {
            "number": 1,
            "ticks": 119316,
            "time": 163.53438531249998,
            "value": 0.5118110236220472
          },
          {
            "number": 1,
            "ticks": 119328,
            "time": 163.55083249999998,
            "value": 0.5275590551181102
          },
          {
            "number": 1,
            "ticks": 119344,
            "time": 163.57276208333332,
            "value": 0.5433070866141733
          },
          {
            "number": 1,
            "ticks": 119360,
            "time": 163.59469166666665,
            "value": 0.5748031496062992
          },
          {
            "number": 1,
            "ticks": 119372,
            "time": 163.61113885416663,
            "value": 0.5905511811023622
          },
          {
            "number": 1,
            "ticks": 119384,
            "time": 163.62758604166663,
            "value": 0.6220472440944882
          },
          {
            "number": 1,
            "ticks": 119396,
            "time": 163.64403322916664,
            "value": 0.6535433070866141
          },
          {
            "number": 1,
            "ticks": 119412,
            "time": 163.66596281249997,
            "value": 0.6771653543307087
          },
          {
            "number": 1,
            "ticks": 119424,
            "time": 163.68240999999998,
            "value": 0.7086614173228346
          },
          {
            "number": 1,
            "ticks": 119440,
            "time": 163.70433958333334,
            "value": 0.7401574803149606
          },
          {
            "number": 1,
            "ticks": 119456,
            "time": 163.72626916666664,
            "value": 0.7637795275590551
          },
          {
            "number": 1,
            "ticks": 119468,
            "time": 163.74271635416665,
            "value": 0.7874015748031497
          },
          {
            "number": 1,
            "ticks": 119484,
            "time": 163.76464593749998,
            "value": 0.8110236220472441
          },
          {
            "number": 1,
            "ticks": 119500,
            "time": 163.78657552083334,
            "value": 0.8267716535433071
          },
          {
            "number": 1,
            "ticks": 119512,
            "time": 163.80302270833332,
            "value": 0.84251968503937
          },
          {
            "number": 1,
            "ticks": 119524,
            "time": 163.81946989583332,
            "value": 0.8503937007874016
          },
          {
            "number": 1,
            "ticks": 119568,
            "time": 163.87977625,
            "value": 0.8188976377952756
          },
          {
            "number": 1,
            "ticks": 119580,
            "time": 163.89622343749997,
            "value": 0.7795275590551181
          },
          {
            "number": 1,
            "ticks": 119596,
            "time": 163.91815302083333,
            "value": 0.7086614173228346
          },
          {
            "number": 1,
            "ticks": 119608,
            "time": 163.93460020833334,
            "value": 0.6220472440944882
          },
          {
            "number": 1,
            "ticks": 119624,
            "time": 163.95652979166664,
            "value": 0.5275590551181102
          },
          {
            "number": 1,
            "ticks": 119636,
            "time": 163.97297697916665,
            "value": 0.4251968503937008
          },
          {
            "number": 1,
            "ticks": 119652,
            "time": 163.99490656249998,
            "value": 0.3228346456692913
          },
          {
            "number": 1,
            "ticks": 119668,
            "time": 164.01683614583334,
            "value": 0.2204724409448819
          },
          {
            "number": 1,
            "ticks": 119676,
            "time": 164.0278009375,
            "value": 0.10236220472440945
          },
          {
            "number": 1,
            "ticks": 119692,
            "time": 164.04973052083332,
            "value": 0.023622047244094488
          },
          {
            "number": 1,
            "ticks": 120496,
            "time": 165.15169208333333,
            "value": 0
          }
        ],
        "7": [
          {
            "number": 7,
            "ticks": 2072,
            "time": 2.839881041666666,
            "value": 0.5511811023622047
          }
        ],
        "10": [
          {
            "number": 10,
            "ticks": 2072,
            "time": 2.839881041666666,
            "value": 0.5039370078740157
          }
        ],
        "11": [
          {
            "number": 11,
            "ticks": 2072,
            "time": 2.839881041666666,
            "value": 1
          }
        ],
        "91": [
          {
            "number": 91,
            "ticks": 2076,
            "time": 2.8453634374999996,
            "value": 0.47244094488188976
          }
        ],
        "93": [
          {
            "number": 93,
            "ticks": 2076,
            "time": 2.8453634374999996,
            "value": 0.47244094488188976
          }
        ]
      },
      "pitchBends": [
        {
          "ticks": 21508,
          "time": 29.47884239583333,
          "value": 0
        }
      ],
      "instrument": {
        "family": "synth lead",
        "number": 81,
        "name": "lead 2 (sawtooth)"
      },
      "name": "SAW WAVE",
      "notes": [
        {
          "duration": 0.6414403125000021,
          "durationTicks": 468,
          "midi": 58,
          "name": "A#3",
          "ticks": 21504,
          "time": 29.473359999999996,
          "velocity": 0.7559055118110236
        },
        {
          "duration": 0.5866163541666687,
          "durationTicks": 428,
          "midi": 65,
          "name": "F4",
          "ticks": 21504,
          "time": 29.473359999999996,
          "velocity": 0.7952755905511811
        },
        {
          "duration": 0.5866163541666687,
          "durationTicks": 428,
          "midi": 61,
          "name": "C#4",
          "ticks": 21504,
          "time": 29.473359999999996,
          "velocity": 0.6850393700787402
        },
        {
          "duration": 0.6304755208333326,
          "durationTicks": 460,
          "midi": 54,
          "name": "F#3",
          "ticks": 21504,
          "time": 29.473359999999996,
          "velocity": 0.7559055118110236
        },
        {
          "duration": 1.1622679166666678,
          "durationTicks": 848,
          "midi": 53,
          "name": "F3",
          "ticks": 22096,
          "time": 30.284754583333328,
          "velocity": 0.7952755905511811
        },
        {
          "duration": 1.1403383333333323,
          "durationTicks": 832,
          "midi": 56,
          "name": "G#3",
          "ticks": 22100,
          "time": 30.290236979166664,
          "velocity": 0.7952755905511811
        },
        {
          "duration": 1.1458207291666653,
          "durationTicks": 836,
          "midi": 63,
          "name": "D#4",
          "ticks": 22100,
          "time": 30.290236979166664,
          "velocity": 0.7952755905511811
        },
        {
          "duration": 1.1403383333333323,
          "durationTicks": 832,
          "midi": 60,
          "name": "C4",
          "ticks": 22100,
          "time": 30.290236979166664,
          "velocity": 0.8346456692913385
        },
        {
          "duration": 0.5482395833333342,
          "durationTicks": 400,
          "midi": 65,
          "name": "F4",
          "ticks": 27668,
          "time": 37.92173197916666,
          "velocity": 0.8346456692913385
        },
        {
          "duration": 0.5482395833333342,
          "durationTicks": 400,
          "midi": 61,
          "name": "C#4",
          "ticks": 27668,
          "time": 37.92173197916666,
          "velocity": 0.6535433070866141
        },
        {
          "duration": 0.5756515624999992,
          "durationTicks": 420,
          "midi": 54,
          "name": "F#3",
          "ticks": 27672,
          "time": 37.927214375,
          "velocity": 0.7559055118110236
        },
        {
          "duration": 0.5646867708333332,
          "durationTicks": 412,
          "midi": 58,
          "name": "A#3",
          "ticks": 27672,
          "time": 37.927214375,
          "velocity": 0.7559055118110236
        },
        {
          "duration": 1.0855143750000025,
          "durationTicks": 792,
          "midi": 63,
          "name": "D#4",
          "ticks": 28200,
          "time": 38.650890624999995,
          "velocity": 0.6850393700787402
        },
        {
          "duration": 1.0855143750000025,
          "durationTicks": 792,
          "midi": 56,
          "name": "G#3",
          "ticks": 28200,
          "time": 38.650890624999995,
          "velocity": 0.7952755905511811
        },
        {
          "duration": 1.0855143750000025,
          "durationTicks": 792,
          "midi": 60,
          "name": "C4",
          "ticks": 28200,
          "time": 38.650890624999995,
          "velocity": 0.7086614173228346
        },
        {
          "duration": 1.0855143750000025,
          "durationTicks": 792,
          "midi": 53,
          "name": "F3",
          "ticks": 28200,
          "time": 38.650890624999995,
          "velocity": 0.7952755905511811
        },
        {
          "duration": 2.006556875000001,
          "durationTicks": 1464,
          "midi": 70,
          "name": "A#4",
          "ticks": 29184,
          "time": 39.999559999999995,
          "velocity": 0.7559055118110236
        },
        {
          "duration": 1.9955920833333352,
          "durationTicks": 1456,
          "midi": 66,
          "name": "F#4",
          "ticks": 29184,
          "time": 39.999559999999995,
          "velocity": 0.7559055118110236
        },
        {
          "duration": 1.984627291666662,
          "durationTicks": 1448,
          "midi": 61,
          "name": "C#4",
          "ticks": 29184,
          "time": 39.999559999999995,
          "velocity": 0.7559055118110236
        },
        {
          "duration": 1.9352857291666723,
          "durationTicks": 1412,
          "midi": 68,
          "name": "G#4",
          "ticks": 30728,
          "time": 42.115764791666656,
          "velocity": 0.7559055118110236
        },
        {
          "duration": 1.8640145833333364,
          "durationTicks": 1360,
          "midi": 60,
          "name": "C4",
          "ticks": 30728,
          "time": 42.115764791666656,
          "velocity": 0.7559055118110236
        },
        {
          "duration": 1.9243209375000063,
          "durationTicks": 1404,
          "midi": 63,
          "name": "D#4",
          "ticks": 30728,
          "time": 42.115764791666656,
          "velocity": 0.7559055118110236
        },
        {
          "duration": 1.8804617708333353,
          "durationTicks": 1372,
          "midi": 61,
          "name": "C#4",
          "ticks": 32252,
          "time": 44.20455760416666,
          "velocity": 0.7559055118110236
        },
        {
          "duration": 1.8859441666666683,
          "durationTicks": 1376,
          "midi": 70,
          "name": "A#4",
          "ticks": 32252,
          "time": 44.20455760416666,
          "velocity": 0.7559055118110236
        },
        {
          "duration": 1.8859441666666612,
          "durationTicks": 1376,
          "midi": 66,
          "name": "F#4",
          "ticks": 32260,
          "time": 44.21552239583333,
          "velocity": 0.7952755905511811
        },
        {
          "duration": 0.1260951041666729,
          "durationTicks": 92,
          "midi": 70,
          "name": "A#4",
          "ticks": 33788,
          "time": 46.30979760416666,
          "velocity": 0.8346456692913385
        },
        {
          "duration": 0.09320072916666788,
          "durationTicks": 68,
          "midi": 61,
          "name": "C#4",
          "ticks": 33788,
          "time": 46.30979760416666,
          "velocity": 0.8346456692913385
        },
        {
          "duration": 0.10964791666666684,
          "durationTicks": 80,
          "midi": 66,
          "name": "F#4",
          "ticks": 33788,
          "time": 46.30979760416666,
          "velocity": 0.8346456692913385
        },
        {
          "duration": 0.1315774999999988,
          "durationTicks": 96,
          "midi": 61,
          "name": "C#4",
          "ticks": 34072,
          "time": 46.69904770833333,
          "velocity": 0.8346456692913385
        },
        {
          "duration": 0.16447187499999671,
          "durationTicks": 120,
          "midi": 70,
          "name": "A#4",
          "ticks": 34072,
          "time": 46.69904770833333,
          "velocity": 0.8346456692913385
        },
        {
          "duration": 0.13705989583332467,
          "durationTicks": 100,
          "midi": 66,
          "name": "F#4",
          "ticks": 34072,
          "time": 46.69904770833333,
          "velocity": 0.9133858267716536
        },
        {
          "duration": 0.19736624999999464,
          "durationTicks": 144,
          "midi": 72,
          "name": "C5",
          "ticks": 34372,
          "time": 47.110227395833334,
          "velocity": 0.8818897637795275
        },
        {
          "duration": 0.19736624999999464,
          "durationTicks": 144,
          "midi": 63,
          "name": "D#4",
          "ticks": 34372,
          "time": 47.110227395833334,
          "velocity": 0.7952755905511811
        },
        {
          "duration": 0.19736625000000174,
          "durationTicks": 144,
          "midi": 68,
          "name": "G#4",
          "ticks": 34380,
          "time": 47.12119218749999,
          "velocity": 0.7952755905511811
        },
        {
          "duration": 0.6359579166666549,
          "durationTicks": 464,
          "midi": 65,
          "name": "F4",
          "ticks": 52232,
          "time": 71.58912479166666,
          "velocity": 0.7952755905511811
        },
        {
          "duration": 0.6578875000000011,
          "durationTicks": 480,
          "midi": 54,
          "name": "F#3",
          "ticks": 52236,
          "time": 71.59460718749999,
          "velocity": 0.6535433070866141
        },
        {
          "duration": 0.663369895833327,
          "durationTicks": 484,
          "midi": 58,
          "name": "A#3",
          "ticks": 52236,
          "time": 71.59460718749999,
          "velocity": 0.6535433070866141
        },
        {
          "duration": 0.6249931250000031,
          "durationTicks": 456,
          "midi": 61,
          "name": "C#4",
          "ticks": 52236,
          "time": 71.59460718749999,
          "velocity": 0.6535433070866141
        },
        {
          "duration": 1.0800319791666482,
          "durationTicks": 788,
          "midi": 60,
          "name": "C4",
          "ticks": 52832,
          "time": 72.41148416666667,
          "velocity": 0.7086614173228346
        },
        {
          "duration": 1.0745495833333223,
          "durationTicks": 784,
          "midi": 53,
          "name": "F3",
          "ticks": 52836,
          "time": 72.4169665625,
          "velocity": 0.7559055118110236
        },
        {
          "duration": 1.0745495833333223,
          "durationTicks": 784,
          "midi": 63,
          "name": "D#4",
          "ticks": 52836,
          "time": 72.4169665625,
          "velocity": 0.7559055118110236
        },
        {
          "duration": 1.0745495833333223,
          "durationTicks": 784,
          "midi": 56,
          "name": "G#3",
          "ticks": 52836,
          "time": 72.4169665625,
          "velocity": 0.7952755905511811
        },
        {
          "duration": 0.5153452083333292,
          "durationTicks": 376,
          "midi": 65,
          "name": "F4",
          "ticks": 58388,
          "time": 80.02653197916666,
          "velocity": 0.7559055118110236
        },
        {
          "duration": 0.5427571875000012,
          "durationTicks": 396,
          "midi": 58,
          "name": "A#3",
          "ticks": 58388,
          "time": 80.02653197916666,
          "velocity": 0.7559055118110236
        },
        {
          "duration": 0.5153452083333292,
          "durationTicks": 376,
          "midi": 61,
          "name": "C#4",
          "ticks": 58388,
          "time": 80.02653197916666,
          "velocity": 0.6850393700787402
        },
        {
          "duration": 0.553721979166653,
          "durationTicks": 404,
          "midi": 54,
          "name": "F#3",
          "ticks": 58388,
          "time": 80.02653197916666,
          "velocity": 0.6850393700787402
        },
        {
          "duration": 1.0361728124999985,
          "durationTicks": 756,
          "midi": 56,
          "name": "G#3",
          "ticks": 58932,
          "time": 80.77213781249999,
          "velocity": 0.7559055118110236
        },
        {
          "duration": 1.0690671874999964,
          "durationTicks": 780,
          "midi": 63,
          "name": "D#4",
          "ticks": 58932,
          "time": 80.77213781249999,
          "velocity": 0.7559055118110236
        },
        {
          "duration": 0.9923136458333488,
          "durationTicks": 724,
          "midi": 53,
          "name": "F3",
          "ticks": 58936,
          "time": 80.77762020833332,
          "velocity": 0.7559055118110236
        },
        {
          "duration": 1.0471376041666787,
          "durationTicks": 764,
          "midi": 60,
          "name": "C4",
          "ticks": 58936,
          "time": 80.77762020833332,
          "velocity": 0.7559055118110236
        },
        {
          "duration": 1.9736625000000032,
          "durationTicks": 1440,
          "midi": 70,
          "name": "A#4",
          "ticks": 59900,
          "time": 82.09887760416666,
          "velocity": 0.7952755905511811
        },
        {
          "duration": 1.929803333333325,
          "durationTicks": 1408,
          "midi": 61,
          "name": "C#4",
          "ticks": 59900,
          "time": 82.09887760416666,
          "velocity": 0.7952755905511811
        },
        {
          "duration": 1.9626977083333372,
          "durationTicks": 1432,
          "midi": 66,
          "name": "F#4",
          "ticks": 59904,
          "time": 82.10435999999999,
          "velocity": 0.7559055118110236
        },
        {
          "duration": 1.9517329166666713,
          "durationTicks": 1424,
          "midi": 68,
          "name": "G#4",
          "ticks": 61420,
          "time": 84.18218802083332,
          "velocity": 0.7952755905511811
        },
        {
          "duration": 1.8969089583333272,
          "durationTicks": 1384,
          "midi": 60,
          "name": "C4",
          "ticks": 61424,
          "time": 84.18767041666666,
          "velocity": 0.7952755905511811
        },
        {
          "duration": 1.9462505208333312,
          "durationTicks": 1420,
          "midi": 63,
          "name": "D#4",
          "ticks": 61424,
          "time": 84.18767041666666,
          "velocity": 0.7559055118110236
        },
        {
          "duration": 1.8749793749999952,
          "durationTicks": 1368,
          "midi": 70,
          "name": "A#4",
          "ticks": 62964,
          "time": 86.2983928125,
          "velocity": 0.7952755905511811
        },
        {
          "duration": 1.8420849999999973,
          "durationTicks": 1344,
          "midi": 66,
          "name": "F#4",
          "ticks": 62968,
          "time": 86.30387520833332,
          "velocity": 0.7952755905511811
        },
        {
          "duration": 1.8146730208333253,
          "durationTicks": 1324,
          "midi": 61,
          "name": "C#4",
          "ticks": 62972,
          "time": 86.30935760416666,
          "velocity": 0.6850393700787402
        },
        {
          "duration": 0.1699542708333297,
          "durationTicks": 124,
          "midi": 70,
          "name": "A#4",
          "ticks": 64508,
          "time": 88.41459760416666,
          "velocity": 0.8346456692913385
        },
        {
          "duration": 0.1699542708333297,
          "durationTicks": 124,
          "midi": 61,
          "name": "C#4",
          "ticks": 64512,
          "time": 88.42007999999998,
          "velocity": 0.7952755905511811
        },
        {
          "duration": 0.1699542708333297,
          "durationTicks": 124,
          "midi": 66,
          "name": "F#4",
          "ticks": 64512,
          "time": 88.42007999999998,
          "velocity": 0.7952755905511811
        },
        {
          "duration": 0.1754366666666698,
          "durationTicks": 128,
          "midi": 70,
          "name": "A#4",
          "ticks": 64800,
          "time": 88.81481249999999,
          "velocity": 0.7952755905511811
        },
        {
          "duration": 0.137059895833346,
          "durationTicks": 100,
          "midi": 61,
          "name": "C#4",
          "ticks": 64804,
          "time": 88.82029489583331,
          "velocity": 0.7559055118110236
        },
        {
          "duration": 0.1809190625000099,
          "durationTicks": 132,
          "midi": 66,
          "name": "F#4",
          "ticks": 64804,
          "time": 88.82029489583331,
          "velocity": 0.8346456692913385
        },
        {
          "duration": 0.2576726041666717,
          "durationTicks": 188,
          "midi": 72,
          "name": "C5",
          "ticks": 65088,
          "time": 89.20954499999999,
          "velocity": 0.7952755905511811
        },
        {
          "duration": 0.23026062499999966,
          "durationTicks": 168,
          "midi": 63,
          "name": "D#4",
          "ticks": 65088,
          "time": 89.20954499999999,
          "velocity": 0.7559055118110236
        },
        {
          "duration": 0.2576726041666717,
          "durationTicks": 188,
          "midi": 68,
          "name": "G#4",
          "ticks": 65088,
          "time": 89.20954499999999,
          "velocity": 0.8346456692913385
        },
        {
          "duration": 0.5263099999999952,
          "durationTicks": 384,
          "midi": 65,
          "name": "F4",
          "ticks": 107540,
          "time": 147.39421197916664,
          "velocity": 0.8346456692913385
        },
        {
          "duration": 0.5482395833333271,
          "durationTicks": 400,
          "midi": 54,
          "name": "F#3",
          "ticks": 107544,
          "time": 147.399694375,
          "velocity": 0.6850393700787402
        },
        {
          "duration": 0.531792395833321,
          "durationTicks": 388,
          "midi": 58,
          "name": "A#3",
          "ticks": 107544,
          "time": 147.399694375,
          "velocity": 0.7559055118110236
        },
        {
          "duration": 0.5263099999999952,
          "durationTicks": 384,
          "midi": 61,
          "name": "C#4",
          "ticks": 107544,
          "time": 147.399694375,
          "velocity": 0.6850393700787402
        },
        {
          "duration": 1.0142432291666807,
          "durationTicks": 740,
          "midi": 63,
          "name": "D#4",
          "ticks": 108100,
          "time": 148.16174739583332,
          "velocity": 0.6850393700787402
        },
        {
          "duration": 1.0032784375000006,
          "durationTicks": 732,
          "midi": 53,
          "name": "F3",
          "ticks": 108104,
          "time": 148.16722979166664,
          "velocity": 0.7086614173228346
        },
        {
          "duration": 1.0032784375000006,
          "durationTicks": 732,
          "midi": 56,
          "name": "G#3",
          "ticks": 108104,
          "time": 148.16722979166664,
          "velocity": 0.6850393700787402
        },
        {
          "duration": 1.0087608333333549,
          "durationTicks": 736,
          "midi": 60,
          "name": "C4",
          "ticks": 108104,
          "time": 148.16722979166664,
          "velocity": 0.7952755905511811
        },
        {
          "duration": 0.5317923958333495,
          "durationTicks": 388,
          "midi": 61,
          "name": "C#4",
          "ticks": 113672,
          "time": 155.79872479166664,
          "velocity": 0.6850393700787402
        },
        {
          "duration": 0.5317923958333495,
          "durationTicks": 388,
          "midi": 65,
          "name": "F4",
          "ticks": 113672,
          "time": 155.79872479166664,
          "velocity": 0.7952755905511811
        },
        {
          "duration": 0.5482395833333271,
          "durationTicks": 400,
          "midi": 54,
          "name": "F#3",
          "ticks": 113672,
          "time": 155.79872479166664,
          "velocity": 0.6850393700787402
        },
        {
          "duration": 0.5372747916666469,
          "durationTicks": 392,
          "midi": 58,
          "name": "A#3",
          "ticks": 113676,
          "time": 155.8042071875,
          "velocity": 0.7952755905511811
        },
        {
          "duration": 1.0526200000000188,
          "durationTicks": 768,
          "midi": 63,
          "name": "D#4",
          "ticks": 114240,
          "time": 156.57722499999997,
          "velocity": 0.7559055118110236
        },
        {
          "duration": 1.0416552083333386,
          "durationTicks": 760,
          "midi": 56,
          "name": "G#3",
          "ticks": 114248,
          "time": 156.58818979166665,
          "velocity": 0.7559055118110236
        },
        {
          "duration": 1.0361728124999843,
          "durationTicks": 756,
          "midi": 53,
          "name": "F3",
          "ticks": 114248,
          "time": 156.58818979166665,
          "velocity": 0.7086614173228346
        },
        {
          "duration": 1.0361728125000127,
          "durationTicks": 756,
          "midi": 60,
          "name": "C4",
          "ticks": 114252,
          "time": 156.59367218749998,
          "velocity": 0.7952755905511811
        },
        {
          "duration": 1.8969089583333414,
          "durationTicks": 1384,
          "midi": 70,
          "name": "A#4",
          "ticks": 115200,
          "time": 157.89299999999997,
          "velocity": 0.7559055118110236
        },
        {
          "duration": 1.8914265625000155,
          "durationTicks": 1380,
          "midi": 61,
          "name": "C#4",
          "ticks": 115200,
          "time": 157.89299999999997,
          "velocity": 0.5826771653543307
        },
        {
          "duration": 1.8859441666666612,
          "durationTicks": 1376,
          "midi": 66,
          "name": "F#4",
          "ticks": 115200,
          "time": 157.89299999999997,
          "velocity": 0.5826771653543307
        },
        {
          "duration": 1.9188385416666733,
          "durationTicks": 1400,
          "midi": 68,
          "name": "G#4",
          "ticks": 116724,
          "time": 159.98179281249998,
          "velocity": 0.7559055118110236
        },
        {
          "duration": 1.8749793750000094,
          "durationTicks": 1368,
          "midi": 60,
          "name": "C4",
          "ticks": 116728,
          "time": 159.98727520833333,
          "velocity": 0.7559055118110236
        },
        {
          "duration": 1.918838541666645,
          "durationTicks": 1400,
          "midi": 63,
          "name": "D#4",
          "ticks": 116728,
          "time": 159.98727520833333,
          "velocity": 0.7559055118110236
        },
        {
          "duration": 1.9078737500000216,
          "durationTicks": 1392,
          "midi": 70,
          "name": "A#4",
          "ticks": 118276,
          "time": 162.10896239583332,
          "velocity": 0.8346456692913385
        },
        {
          "duration": 1.9078737500000216,
          "durationTicks": 1392,
          "midi": 66,
          "name": "F#4",
          "ticks": 118276,
          "time": 162.10896239583332,
          "velocity": 0.8346456692913385
        },
        {
          "duration": 1.891426562499987,
          "durationTicks": 1380,
          "midi": 61,
          "name": "C#4",
          "ticks": 118280,
          "time": 162.11444479166664,
          "velocity": 0.8346456692913385
        },
        {
          "duration": 0.10416552083333386,
          "durationTicks": 76,
          "midi": 70,
          "name": "A#4",
          "ticks": 119804,
          "time": 164.20323760416665,
          "velocity": 0.9133858267716536
        },
        {
          "duration": 0.06578875000002427,
          "durationTicks": 48,
          "midi": 61,
          "name": "C#4",
          "ticks": 119808,
          "time": 164.20871999999997,
          "velocity": 0.8346456692913385
        },
        {
          "duration": 0.07675354166667603,
          "durationTicks": 56,
          "midi": 66,
          "name": "F#4",
          "ticks": 119808,
          "time": 164.20871999999997,
          "velocity": 0.8346456692913385
        },
        {
          "duration": 0.1206127083333115,
          "durationTicks": 88,
          "midi": 70,
          "name": "A#4",
          "ticks": 120100,
          "time": 164.60893489583333,
          "velocity": 0.8346456692913385
        },
        {
          "duration": 0.10416552083336228,
          "durationTicks": 76,
          "midi": 66,
          "name": "F#4",
          "ticks": 120104,
          "time": 164.61441729166663,
          "velocity": 0.8346456692913385
        },
        {
          "duration": 0.09320072916671052,
          "durationTicks": 68,
          "midi": 61,
          "name": "C#4",
          "ticks": 120104,
          "time": 164.61441729166663,
          "velocity": 0.8346456692913385
        },
        {
          "duration": 0.12061270833333992,
          "durationTicks": 88,
          "midi": 63,
          "name": "D#4",
          "ticks": 120372,
          "time": 164.98173781249997,
          "velocity": 0.8346456692913385
        },
        {
          "duration": 0.15350708333332364,
          "durationTicks": 112,
          "midi": 68,
          "name": "G#4",
          "ticks": 120376,
          "time": 164.98722020833333,
          "velocity": 0.8346456692913385
        },
        {
          "duration": 0.16447187500000382,
          "durationTicks": 120,
          "midi": 72,
          "name": "C5",
          "ticks": 120376,
          "time": 164.98722020833333,
          "velocity": 0.9133858267716536
        }
      ],
      "endOfTrackTicks": 158208
    },
    {
      "channel": 8,
      "controlChanges": {
        "1": [
          {
            "number": 1,
            "ticks": 10756,
            "time": 14.742162395833333,
            "value": 0
          }
        ],
        "7": [
          {
            "number": 7,
            "ticks": 2092,
            "time": 2.8672930208333334,
            "value": 0.6299212598425197
          }
        ],
        "10": [
          {
            "number": 10,
            "ticks": 2092,
            "time": 2.8672930208333334,
            "value": 0.5039370078740157
          }
        ],
        "11": [
          {
            "number": 11,
            "ticks": 2092,
            "time": 2.8672930208333334,
            "value": 1
          }
        ],
        "91": [
          {
            "number": 91,
            "ticks": 2096,
            "time": 2.8727754166666664,
            "value": 0.47244094488188976
          }
        ],
        "93": [
          {
            "number": 93,
            "ticks": 2096,
            "time": 2.8727754166666664,
            "value": 0
          }
        ]
      },
      "pitchBends": [
        {
          "ticks": 10756,
          "time": 14.742162395833333,
          "value": 0
        }
      ],
      "instrument": {
        "family": "reed",
        "number": 64,
        "name": "soprano sax"
      },
      "name": "SOPRAN SAX",
      "notes": [
        {
          "duration": 1.831120208333333,
          "durationTicks": 1336,
          "midi": 68,
          "name": "G#4",
          "ticks": 10752,
          "time": 14.736679999999998,
          "velocity": 0.6929133858267716
        },
        {
          "duration": 0.10964791666666684,
          "durationTicks": 80,
          "midi": 65,
          "name": "F4",
          "ticks": 12092,
          "time": 16.573282604166664,
          "velocity": 0.6456692913385826
        },
        {
          "duration": 0.14254229166666832,
          "durationTicks": 104,
          "midi": 63,
          "name": "D#4",
          "ticks": 12176,
          "time": 16.688412916666664,
          "velocity": 0.6141732283464567
        },
        {
          "duration": 1.9736624999999997,
          "durationTicks": 1440,
          "midi": 65,
          "name": "F4",
          "ticks": 12284,
          "time": 16.836437604166665,
          "velocity": 0.6771653543307087
        },
        {
          "duration": 1.7872610416666674,
          "durationTicks": 1304,
          "midi": 68,
          "name": "G#4",
          "ticks": 35352,
          "time": 48.453414374999994,
          "velocity": 0.8188976377952756
        },
        {
          "duration": 0.09868312500000087,
          "durationTicks": 72,
          "midi": 65,
          "name": "F4",
          "ticks": 36668,
          "time": 50.25712260416666,
          "velocity": 0.7480314960629921
        },
        {
          "duration": 0.12061270833333282,
          "durationTicks": 88,
          "midi": 63,
          "name": "D#4",
          "ticks": 36744,
          "time": 50.361288124999994,
          "velocity": 0.6929133858267716
        },
        {
          "duration": 2.094275208333336,
          "durationTicks": 1528,
          "midi": 65,
          "name": "F4",
          "ticks": 36836,
          "time": 50.48738322916666,
          "velocity": 0.7165354330708661
        },
        {
          "duration": 0.8004297916666658,
          "durationTicks": 584,
          "midi": 61,
          "name": "C#4",
          "ticks": 38368,
          "time": 52.58714083333333,
          "velocity": 0.7165354330708661
        },
        {
          "duration": 1.2993278125000032,
          "durationTicks": 948,
          "midi": 63,
          "name": "D#4",
          "ticks": 38956,
          "time": 53.39305302083333,
          "velocity": 0.6929133858267716
        },
        {
          "duration": 1.8091906249999994,
          "durationTicks": 1320,
          "midi": 68,
          "name": "G#4",
          "ticks": 41488,
          "time": 56.86340958333333,
          "velocity": 0.7480314960629921
        },
        {
          "duration": 0.09320072916666788,
          "durationTicks": 68,
          "midi": 65,
          "name": "F4",
          "ticks": 42824,
          "time": 58.69452979166666,
          "velocity": 0.7165354330708661
        },
        {
          "duration": 0.16447187499999671,
          "durationTicks": 120,
          "midi": 63,
          "name": "D#4",
          "ticks": 42896,
          "time": 58.79321291666666,
          "velocity": 0.6929133858267716
        },
        {
          "duration": 2.066863229166671,
          "durationTicks": 1508,
          "midi": 65,
          "name": "F4",
          "ticks": 43028,
          "time": 58.97413197916666,
          "velocity": 0.7716535433070866
        },
        {
          "duration": 0.7127114583333238,
          "durationTicks": 520,
          "midi": 61,
          "name": "C#4",
          "ticks": 44584,
          "time": 61.10678395833333,
          "velocity": 0.6929133858267716
        },
        {
          "duration": 1.2170918750000013,
          "durationTicks": 888,
          "midi": 63,
          "name": "D#4",
          "ticks": 45104,
          "time": 61.819495416666655,
          "velocity": 0.7165354330708661
        },
        {
          "duration": 1.7872610416666674,
          "durationTicks": 1304,
          "midi": 68,
          "name": "G#4",
          "ticks": 66072,
          "time": 90.55821437499999,
          "velocity": 0.8188976377952756
        },
        {
          "duration": 0.09868312499999377,
          "durationTicks": 72,
          "midi": 65,
          "name": "F4",
          "ticks": 67388,
          "time": 92.36192260416666,
          "velocity": 0.7480314960629921
        },
        {
          "duration": 0.12061270833333992,
          "durationTicks": 88,
          "midi": 63,
          "name": "D#4",
          "ticks": 67464,
          "time": 92.46608812499998,
          "velocity": 0.6929133858267716
        },
        {
          "duration": 2.094275208333329,
          "durationTicks": 1528,
          "midi": 65,
          "name": "F4",
          "ticks": 67556,
          "time": 92.59218322916666,
          "velocity": 0.7165354330708661
        },
        {
          "duration": 0.8004297916666729,
          "durationTicks": 584,
          "midi": 61,
          "name": "C#4",
          "ticks": 69088,
          "time": 94.69194083333332,
          "velocity": 0.7165354330708661
        },
        {
          "duration": 1.299327812499996,
          "durationTicks": 948,
          "midi": 63,
          "name": "D#4",
          "ticks": 69676,
          "time": 95.49785302083332,
          "velocity": 0.6929133858267716
        },
        {
          "duration": 1.8091906249999994,
          "durationTicks": 1320,
          "midi": 68,
          "name": "G#4",
          "ticks": 72208,
          "time": 98.96820958333332,
          "velocity": 0.7480314960629921
        },
        {
          "duration": 0.09320072916665367,
          "durationTicks": 68,
          "midi": 65,
          "name": "F4",
          "ticks": 73544,
          "time": 100.79932979166666,
          "velocity": 0.7165354330708661
        },
        {
          "duration": 0.16447187500000382,
          "durationTicks": 120,
          "midi": 63,
          "name": "D#4",
          "ticks": 73616,
          "time": 100.89801291666666,
          "velocity": 0.6929133858267716
        },
        {
          "duration": 2.066863229166657,
          "durationTicks": 1508,
          "midi": 65,
          "name": "F4",
          "ticks": 73748,
          "time": 101.07893197916665,
          "velocity": 0.7716535433070866
        },
        {
          "duration": 0.7127114583333451,
          "durationTicks": 520,
          "midi": 61,
          "name": "C#4",
          "ticks": 75304,
          "time": 103.21158395833332,
          "velocity": 0.6929133858267716
        },
        {
          "duration": 1.2170918749999942,
          "durationTicks": 888,
          "midi": 63,
          "name": "D#4",
          "ticks": 75824,
          "time": 103.92429541666667,
          "velocity": 0.7165354330708661
        },
        {
          "duration": 1.7872610416666674,
          "durationTicks": 1304,
          "midi": 68,
          "name": "G#4",
          "ticks": 78360,
          "time": 107.400134375,
          "velocity": 0.8188976377952756
        },
        {
          "duration": 0.09868312499999377,
          "durationTicks": 72,
          "midi": 65,
          "name": "F4",
          "ticks": 79676,
          "time": 109.20384260416667,
          "velocity": 0.7480314960629921
        },
        {
          "duration": 0.12061270833332571,
          "durationTicks": 88,
          "midi": 63,
          "name": "D#4",
          "ticks": 79752,
          "time": 109.30800812499999,
          "velocity": 0.6929133858267716
        },
        {
          "duration": 2.0942752083333147,
          "durationTicks": 1528,
          "midi": 65,
          "name": "F4",
          "ticks": 79844,
          "time": 109.43410322916667,
          "velocity": 0.7165354330708661
        },
        {
          "duration": 0.8004297916666729,
          "durationTicks": 584,
          "midi": 61,
          "name": "C#4",
          "ticks": 81376,
          "time": 111.53386083333332,
          "velocity": 0.7165354330708661
        },
        {
          "duration": 1.299327812499996,
          "durationTicks": 948,
          "midi": 63,
          "name": "D#4",
          "ticks": 81964,
          "time": 112.33977302083332,
          "velocity": 0.6929133858267716
        },
        {
          "duration": 1.8091906249999994,
          "durationTicks": 1320,
          "midi": 68,
          "name": "G#4",
          "ticks": 84496,
          "time": 115.81012958333332,
          "velocity": 0.7480314960629921
        },
        {
          "duration": 0.09320072916666788,
          "durationTicks": 68,
          "midi": 65,
          "name": "F4",
          "ticks": 85832,
          "time": 117.64124979166665,
          "velocity": 0.7165354330708661
        },
        {
          "duration": 0.16447187500000382,
          "durationTicks": 120,
          "midi": 63,
          "name": "D#4",
          "ticks": 85904,
          "time": 117.73993291666666,
          "velocity": 0.6929133858267716
        },
        {
          "duration": 2.066863229166657,
          "durationTicks": 1508,
          "midi": 65,
          "name": "F4",
          "ticks": 86036,
          "time": 117.92085197916666,
          "velocity": 0.7716535433070866
        },
        {
          "duration": 0.7127114583333451,
          "durationTicks": 520,
          "midi": 61,
          "name": "C#4",
          "ticks": 87592,
          "time": 120.05350395833331,
          "velocity": 0.6929133858267716
        },
        {
          "duration": 1.2170918750000084,
          "durationTicks": 888,
          "midi": 63,
          "name": "D#4",
          "ticks": 88112,
          "time": 120.76621541666665,
          "velocity": 0.7165354330708661
        },
        {
          "duration": 0.49889802083335155,
          "durationTicks": 364,
          "midi": 56,
          "name": "G#3",
          "ticks": 90268,
          "time": 123.72122677083331,
          "velocity": 0.8188976377952756
        },
        {
          "duration": 1.8366026041666572,
          "durationTicks": 1340,
          "midi": 68,
          "name": "G#4",
          "ticks": 90620,
          "time": 124.20367760416666,
          "velocity": 0.7480314960629921
        },
        {
          "duration": 0.1260951041666658,
          "durationTicks": 92,
          "midi": 65,
          "name": "F4",
          "ticks": 91964,
          "time": 126.04576260416665,
          "velocity": 0.7165354330708661
        },
        {
          "duration": 0.1260951041666516,
          "durationTicks": 92,
          "midi": 63,
          "name": "D#4",
          "ticks": 92060,
          "time": 126.17734010416666,
          "velocity": 0.6141732283464567
        },
        {
          "duration": 0.3124965625000016,
          "durationTicks": 228,
          "midi": 73,
          "name": "C#5",
          "ticks": 92156,
          "time": 126.30891760416665,
          "velocity": 0.8188976377952756
        },
        {
          "duration": 0.2686373958333377,
          "durationTicks": 196,
          "midi": 65,
          "name": "F4",
          "ticks": 92156,
          "time": 126.30891760416665,
          "velocity": 0.6220472440944882
        },
        {
          "duration": 0.22477822916667378,
          "durationTicks": 164,
          "midi": 68,
          "name": "G#4",
          "ticks": 92164,
          "time": 126.31988239583332,
          "velocity": 0.6535433070866141
        },
        {
          "duration": 0.2631549999999976,
          "durationTicks": 192,
          "midi": 70,
          "name": "A#4",
          "ticks": 92164,
          "time": 126.31988239583332,
          "velocity": 0.7401574803149606
        },
        {
          "duration": 0.3344261458333335,
          "durationTicks": 244,
          "midi": 70,
          "name": "A#4",
          "ticks": 92452,
          "time": 126.71461489583332,
          "velocity": 0.7007874015748031
        },
        {
          "duration": 0.3892501041666634,
          "durationTicks": 284,
          "midi": 65,
          "name": "F4",
          "ticks": 92452,
          "time": 126.71461489583332,
          "velocity": 0.6614173228346457
        },
        {
          "duration": 0.36183812499999135,
          "durationTicks": 264,
          "midi": 73,
          "name": "C#5",
          "ticks": 92456,
          "time": 126.72009729166666,
          "velocity": 0.8188976377952756
        },
        {
          "duration": 0.2905669791666554,
          "durationTicks": 212,
          "midi": 68,
          "name": "G#4",
          "ticks": 92456,
          "time": 126.72009729166666,
          "velocity": 0.6535433070866141
        },
        {
          "duration": 0.3892501041666492,
          "durationTicks": 284,
          "midi": 68,
          "name": "G#4",
          "ticks": 92732,
          "time": 127.09838260416666,
          "velocity": 0.7007874015748031
        },
        {
          "duration": 0.3124965625000016,
          "durationTicks": 228,
          "midi": 72,
          "name": "C5",
          "ticks": 92740,
          "time": 127.10934739583331,
          "velocity": 0.7480314960629921
        },
        {
          "duration": 0.3892501041666776,
          "durationTicks": 284,
          "midi": 63,
          "name": "D#4",
          "ticks": 92740,
          "time": 127.10934739583331,
          "velocity": 0.6614173228346457
        },
        {
          "duration": 0.5592043749999931,
          "durationTicks": 408,
          "midi": 56,
          "name": "G#3",
          "ticks": 93308,
          "time": 127.88784760416665,
          "velocity": 0.8188976377952756
        },
        {
          "duration": 1.8366026041666714,
          "durationTicks": 1340,
          "midi": 68,
          "name": "G#4",
          "ticks": 93700,
          "time": 128.4251223958333,
          "velocity": 0.7480314960629921
        },
        {
          "duration": 0.11513031250001404,
          "durationTicks": 84,
          "midi": 65,
          "name": "F4",
          "ticks": 95044,
          "time": 130.2672073958333,
          "velocity": 0.6929133858267716
        },
        {
          "duration": 0.1315775000000201,
          "durationTicks": 96,
          "midi": 63,
          "name": "D#4",
          "ticks": 95140,
          "time": 130.3987848958333,
          "velocity": 0.5826771653543307
        },
        {
          "duration": 0.24122541666665143,
          "durationTicks": 176,
          "midi": 68,
          "name": "G#4",
          "ticks": 95232,
          "time": 130.52488,
          "velocity": 0.6535433070866141
        },
        {
          "duration": 0.2576726041666575,
          "durationTicks": 188,
          "midi": 73,
          "name": "C#5",
          "ticks": 95236,
          "time": 130.53036239583332,
          "velocity": 0.7480314960629921
        },
        {
          "duration": 0.23026062499999966,
          "durationTicks": 168,
          "midi": 70,
          "name": "A#4",
          "ticks": 95236,
          "time": 130.53036239583332,
          "velocity": 0.7007874015748031
        },
        {
          "duration": 0.24670781250000573,
          "durationTicks": 180,
          "midi": 65,
          "name": "F4",
          "ticks": 95236,
          "time": 130.53036239583332,
          "velocity": 0.6614173228346457
        },
        {
          "duration": 0.37280291666667154,
          "durationTicks": 272,
          "midi": 73,
          "name": "C#5",
          "ticks": 95528,
          "time": 130.93057729166665,
          "velocity": 0.8582677165354331
        },
        {
          "duration": 0.3618381250000198,
          "durationTicks": 264,
          "midi": 70,
          "name": "A#4",
          "ticks": 95528,
          "time": 130.93057729166665,
          "velocity": 0.7401574803149606
        },
        {
          "duration": 0.3399085416666594,
          "durationTicks": 248,
          "midi": 68,
          "name": "G#4",
          "ticks": 95528,
          "time": 130.93057729166665,
          "velocity": 0.6535433070866141
        },
        {
          "duration": 0.3892501041666492,
          "durationTicks": 284,
          "midi": 65,
          "name": "F4",
          "ticks": 95528,
          "time": 130.93057729166665,
          "velocity": 0.7007874015748031
        },
        {
          "duration": 0.29604937500002393,
          "durationTicks": 216,
          "midi": 72,
          "name": "C5",
          "ticks": 95812,
          "time": 131.3198273958333,
          "velocity": 0.7480314960629921
        },
        {
          "duration": 0.2631550000000118,
          "durationTicks": 192,
          "midi": 68,
          "name": "G#4",
          "ticks": 95812,
          "time": 131.3198273958333,
          "velocity": 0.7007874015748031
        },
        {
          "duration": 0.3837677083333233,
          "durationTicks": 280,
          "midi": 63,
          "name": "D#4",
          "ticks": 95816,
          "time": 131.32530979166665,
          "velocity": 0.5511811023622047
        },
        {
          "duration": 0.5153452083333434,
          "durationTicks": 376,
          "midi": 56,
          "name": "G#3",
          "ticks": 96388,
          "time": 132.1092923958333,
          "velocity": 0.7480314960629921
        },
        {
          "duration": 1.814673020833368,
          "durationTicks": 1324,
          "midi": 68,
          "name": "G#4",
          "ticks": 96772,
          "time": 132.6356023958333,
          "velocity": 0.7480314960629921
        },
        {
          "duration": 0.11513031250001404,
          "durationTicks": 84,
          "midi": 65,
          "name": "F4",
          "ticks": 98108,
          "time": 134.46672260416665,
          "velocity": 0.6929133858267716
        },
        {
          "duration": 0.1315774999999917,
          "durationTicks": 96,
          "midi": 63,
          "name": "D#4",
          "ticks": 98204,
          "time": 134.59830010416667,
          "velocity": 0.6299212598425197
        },
        {
          "duration": 0.23574302083332555,
          "durationTicks": 172,
          "midi": 73,
          "name": "C#5",
          "ticks": 98300,
          "time": 134.72987760416666,
          "velocity": 0.8188976377952756
        },
        {
          "duration": 0.22477822916667378,
          "durationTicks": 164,
          "midi": 65,
          "name": "F4",
          "ticks": 98300,
          "time": 134.72987760416666,
          "velocity": 0.6614173228346457
        },
        {
          "duration": 0.24670781250000573,
          "durationTicks": 180,
          "midi": 70,
          "name": "A#4",
          "ticks": 98304,
          "time": 134.73536,
          "velocity": 0.7401574803149606
        },
        {
          "duration": 0.2138134374999936,
          "durationTicks": 156,
          "midi": 68,
          "name": "G#4",
          "ticks": 98308,
          "time": 134.74084239583334,
          "velocity": 0.6535433070866141
        },
        {
          "duration": 0.32346135416668176,
          "durationTicks": 236,
          "midi": 70,
          "name": "A#4",
          "ticks": 98596,
          "time": 135.13557489583332,
          "velocity": 0.7401574803149606
        },
        {
          "duration": 0.3892501041666776,
          "durationTicks": 284,
          "midi": 65,
          "name": "F4",
          "ticks": 98596,
          "time": 135.13557489583332,
          "velocity": 0.6614173228346457
        },
        {
          "duration": 0.3837677083333517,
          "durationTicks": 280,
          "midi": 73,
          "name": "C#5",
          "ticks": 98600,
          "time": 135.14105729166664,
          "velocity": 0.8188976377952756
        },
        {
          "duration": 0.274119791666692,
          "durationTicks": 200,
          "midi": 68,
          "name": "G#4",
          "ticks": 98600,
          "time": 135.14105729166664,
          "velocity": 0.6535433070866141
        },
        {
          "duration": 0.3289437499999792,
          "durationTicks": 240,
          "midi": 68,
          "name": "G#4",
          "ticks": 98880,
          "time": 135.524825,
          "velocity": 0.7007874015748031
        },
        {
          "duration": 0.2576726041666575,
          "durationTicks": 188,
          "midi": 72,
          "name": "C5",
          "ticks": 98884,
          "time": 135.53030739583332,
          "velocity": 0.8582677165354331
        },
        {
          "duration": 0.2631550000000118,
          "durationTicks": 192,
          "midi": 63,
          "name": "D#4",
          "ticks": 98884,
          "time": 135.53030739583332,
          "velocity": 0.5511811023622047
        },
        {
          "duration": 0.5317923958333495,
          "durationTicks": 388,
          "midi": 56,
          "name": "G#3",
          "ticks": 99452,
          "time": 136.30880760416665,
          "velocity": 0.8188976377952756
        },
        {
          "duration": 1.8585321875000034,
          "durationTicks": 1356,
          "midi": 68,
          "name": "G#4",
          "ticks": 99836,
          "time": 136.83511760416664,
          "velocity": 0.7480314960629921
        },
        {
          "duration": 0.11513031249998562,
          "durationTicks": 84,
          "midi": 65,
          "name": "F4",
          "ticks": 101184,
          "time": 138.682685,
          "velocity": 0.7165354330708661
        },
        {
          "duration": 0.12061270833336835,
          "durationTicks": 88,
          "midi": 63,
          "name": "D#4",
          "ticks": 101276,
          "time": 138.80878010416663,
          "velocity": 0.5590551181102362
        },
        {
          "duration": 0.24670781250000573,
          "durationTicks": 180,
          "midi": 70,
          "name": "A#4",
          "ticks": 101372,
          "time": 138.94035760416665,
          "velocity": 0.7401574803149606
        },
        {
          "duration": 0.23026062499999966,
          "durationTicks": 168,
          "midi": 65,
          "name": "F4",
          "ticks": 101372,
          "time": 138.94035760416665,
          "velocity": 0.6220472440944882
        },
        {
          "duration": 0.28508458333334374,
          "durationTicks": 208,
          "midi": 73,
          "name": "C#5",
          "ticks": 101372,
          "time": 138.94035760416665,
          "velocity": 0.8188976377952756
        },
        {
          "duration": 0.2138134374999936,
          "durationTicks": 156,
          "midi": 68,
          "name": "G#4",
          "ticks": 101380,
          "time": 138.95132239583333,
          "velocity": 0.6535433070866141
        },
        {
          "duration": 0.3837677083333517,
          "durationTicks": 280,
          "midi": 73,
          "name": "C#5",
          "ticks": 101664,
          "time": 139.34057249999998,
          "velocity": 0.8188976377952756
        },
        {
          "duration": 0.3015317708333214,
          "durationTicks": 220,
          "midi": 70,
          "name": "A#4",
          "ticks": 101668,
          "time": 139.34605489583333,
          "velocity": 0.7007874015748031
        },
        {
          "duration": 0.31797895833329903,
          "durationTicks": 232,
          "midi": 65,
          "name": "F4",
          "ticks": 101668,
          "time": 139.34605489583333,
          "velocity": 0.6614173228346457
        },
        {
          "duration": 0.2686373958333661,
          "durationTicks": 196,
          "midi": 68,
          "name": "G#4",
          "ticks": 101672,
          "time": 139.35153729166663,
          "velocity": 0.6535433070866141
        },
        {
          "duration": 0.36732052083331723,
          "durationTicks": 268,
          "midi": 68,
          "name": "G#4",
          "ticks": 101944,
          "time": 139.72434020833333,
          "velocity": 0.6299212598425197
        },
        {
          "duration": 0.40021489583330094,
          "durationTicks": 292,
          "midi": 63,
          "name": "D#4",
          "ticks": 101944,
          "time": 139.72434020833333,
          "velocity": 0.5511811023622047
        },
        {
          "duration": 0.3289437499999792,
          "durationTicks": 240,
          "midi": 72,
          "name": "C5",
          "ticks": 101956,
          "time": 139.74078739583334,
          "velocity": 0.7716535433070866
        },
        {
          "duration": 1.7872610416666532,
          "durationTicks": 1304,
          "midi": 68,
          "name": "G#4",
          "ticks": 133656,
          "time": 183.18877437499998,
          "velocity": 0.8188976377952756
        },
        {
          "duration": 0.09868312500000798,
          "durationTicks": 72,
          "midi": 65,
          "name": "F4",
          "ticks": 134972,
          "time": 184.99248260416664,
          "velocity": 0.7480314960629921
        },
        {
          "duration": 0.12061270833333992,
          "durationTicks": 88,
          "midi": 63,
          "name": "D#4",
          "ticks": 135048,
          "time": 185.09664812499997,
          "velocity": 0.6929133858267716
        },
        {
          "duration": 2.094275208333329,
          "durationTicks": 1528,
          "midi": 65,
          "name": "F4",
          "ticks": 135140,
          "time": 185.22274322916664,
          "velocity": 0.7165354330708661
        },
        {
          "duration": 0.8004297916666587,
          "durationTicks": 584,
          "midi": 61,
          "name": "C#4",
          "ticks": 136672,
          "time": 187.32250083333332,
          "velocity": 0.7165354330708661
        },
        {
          "duration": 1.299327812499996,
          "durationTicks": 948,
          "midi": 63,
          "name": "D#4",
          "ticks": 137260,
          "time": 188.12841302083334,
          "velocity": 0.6929133858267716
        },
        {
          "duration": 1.8091906249999852,
          "durationTicks": 1320,
          "midi": 68,
          "name": "G#4",
          "ticks": 139792,
          "time": 191.59876958333334,
          "velocity": 0.7480314960629921
        },
        {
          "duration": 0.09320072916671052,
          "durationTicks": 68,
          "midi": 65,
          "name": "F4",
          "ticks": 141128,
          "time": 193.42988979166662,
          "velocity": 0.7165354330708661
        },
        {
          "duration": 0.16447187500000382,
          "durationTicks": 120,
          "midi": 63,
          "name": "D#4",
          "ticks": 141200,
          "time": 193.52857291666663,
          "velocity": 0.6929133858267716
        },
        {
          "duration": 2.066863229166671,
          "durationTicks": 1508,
          "midi": 65,
          "name": "F4",
          "ticks": 141332,
          "time": 193.70949197916664,
          "velocity": 0.7716535433070866
        },
        {
          "duration": 0.7127114583333309,
          "durationTicks": 520,
          "midi": 61,
          "name": "C#4",
          "ticks": 142888,
          "time": 195.8421439583333,
          "velocity": 0.6929133858267716
        },
        {
          "duration": 1.2170918749999942,
          "durationTicks": 888,
          "midi": 63,
          "name": "D#4",
          "ticks": 143408,
          "time": 196.55485541666664,
          "velocity": 0.7165354330708661
        },
        {
          "duration": 1.7872610416666816,
          "durationTicks": 1304,
          "midi": 68,
          "name": "G#4",
          "ticks": 145944,
          "time": 200.03069437499997,
          "velocity": 0.8188976377952756
        },
        {
          "duration": 0.09868312500000798,
          "durationTicks": 72,
          "midi": 65,
          "name": "F4",
          "ticks": 147260,
          "time": 201.83440260416663,
          "velocity": 0.6614173228346457
        },
        {
          "duration": 0.12061270833333992,
          "durationTicks": 88,
          "midi": 63,
          "name": "D#4",
          "ticks": 147336,
          "time": 201.938568125,
          "velocity": 0.6062992125984252
        },
        {
          "duration": 2.0942752083333573,
          "durationTicks": 1528,
          "midi": 65,
          "name": "F4",
          "ticks": 147428,
          "time": 202.06466322916663,
          "velocity": 0.6220472440944882
        },
        {
          "duration": 0.8004297916666587,
          "durationTicks": 584,
          "midi": 61,
          "name": "C#4",
          "ticks": 148960,
          "time": 204.1644208333333,
          "velocity": 0.5196850393700787
        },
        {
          "duration": 1.299327812499996,
          "durationTicks": 948,
          "midi": 63,
          "name": "D#4",
          "ticks": 149548,
          "time": 204.97033302083332,
          "velocity": 0.4645669291338583
        },
        {
          "duration": 1.8091906249999852,
          "durationTicks": 1320,
          "midi": 68,
          "name": "G#4",
          "ticks": 152080,
          "time": 208.44068958333332,
          "velocity": 0.3228346456692913
        },
        {
          "duration": 0.0932007291666821,
          "durationTicks": 68,
          "midi": 65,
          "name": "F4",
          "ticks": 153416,
          "time": 210.27180979166664,
          "velocity": 0.2283464566929134
        },
        {
          "duration": 0.16447187500000382,
          "durationTicks": 120,
          "midi": 63,
          "name": "D#4",
          "ticks": 153488,
          "time": 210.37049291666662,
          "velocity": 0.2125984251968504
        },
        {
          "duration": 2.0668632291666995,
          "durationTicks": 1508,
          "midi": 65,
          "name": "F4",
          "ticks": 153620,
          "time": 210.55141197916663,
          "velocity": 0.2283464566929134
        },
        {
          "duration": 0.7127114583333025,
          "durationTicks": 520,
          "midi": 61,
          "name": "C#4",
          "ticks": 155176,
          "time": 212.68406395833333,
          "velocity": 0.10236220472440945
        },
        {
          "duration": 1.2170918749999942,
          "durationTicks": 888,
          "midi": 63,
          "name": "D#4",
          "ticks": 155696,
          "time": 213.39677541666663,
          "velocity": 0.07874015748031496
        }
      ],
      "endOfTrackTicks": 158208
    },
    {
      "channel": 9,
      "controlChanges": {
        "1": [
          {
            "number": 1,
            "ticks": 4612,
            "time": 6.321202395833333,
            "value": 0
          }
        ],
        "7": [
          {
            "number": 7,
            "ticks": 2112,
            "time": 2.8947049999999996,
            "value": 0.8267716535433071
          }
        ],
        "11": [
          {
            "number": 11,
            "ticks": 2112,
            "time": 2.8947049999999996,
            "value": 1
          }
        ],
        "91": [
          {
            "number": 91,
            "ticks": 2116,
            "time": 2.900187395833333,
            "value": 0.36220472440944884
          }
        ],
        "93": [
          {
            "number": 93,
            "ticks": 2116,
            "time": 2.900187395833333,
            "value": 0
          }
        ]
      },
      "pitchBends": [
        {
          "ticks": 4612,
          "time": 6.321202395833333,
          "value": 0
        }
      ],
      "instrument": {
        "family": "drums",
        "number": 0,
        "name": "standard kit"
      },
      "name": "DRUMS",
      "notes": [
        {
          "duration": 0.005482395833333875,
          "durationTicks": 4,
          "midi": 35,
          "name": "B1",
          "ticks": 4608,
          "time": 6.315719999999999,
          "velocity": 0.8661417322834646
        },
        {
          "duration": 0.005482395833333875,
          "durationTicks": 4,
          "midi": 69,
          "name": "A4",
          "ticks": 4608,
          "time": 6.315719999999999,
          "velocity": 0.5826771653543307
        },
        {
          "duration": 0.005482395833333875,
          "durationTicks": 4,
          "midi": 60,
          "name": "C4",
          "ticks": 4608,
          "time": 6.315719999999999,
          "velocity": 0.4251968503937008
        },
        {
          "duration": 0.005482395833333875,
          "durationTicks": 4,
          "midi": 44,
          "name": "G#2",
          "ticks": 4612,
          "time": 6.321202395833333,
          "velocity": 0.5984251968503937
        },
        {
          "duration": 0.005482395833332987,
          "durationTicks": 4,
          "midi": 69,
          "name": "A4",
          "ticks": 4700,
          "time": 6.4418151041666665,
          "velocity": 0.2204724409448819
        },
        {
          "duration": 0.005482395833332987,
          "durationTicks": 4,
          "midi": 69,
          "name": "A4",
          "ticks": 4784,
          "time": 6.556945416666666,
          "velocity": 0.8031496062992126
        },
        {
          "duration": 0.005482395833333875,
          "durationTicks": 4,
          "midi": 46,
          "name": "A#2",
          "ticks": 4804,
          "time": 6.584357395833332,
          "velocity": 0.49606299212598426
        },
        {
          "duration": 0.005482395833332987,
          "durationTicks": 4,
          "midi": 69,
          "name": "A4",
          "ticks": 4880,
          "time": 6.688522916666666,
          "velocity": 0.8031496062992126
        },
        {
          "duration": 0.005482395833332987,
          "durationTicks": 4,
          "midi": 60,
          "name": "C4",
          "ticks": 4896,
          "time": 6.7104525,
          "velocity": 0.4251968503937008
        },
        {
          "duration": 0.005482395833332987,
          "durationTicks": 4,
          "midi": 35,
          "name": "B1",
          "ticks": 4992,
          "time": 6.842029999999999,
          "velocity": 0.8976377952755905
        },
        {
          "duration": 0.005482395833333875,
          "durationTicks": 4,
          "midi": 40,
          "name": "E2",
          "ticks": 4996,
          "time": 6.847512395833332,
          "velocity": 0.8661417322834646
        },
        {
          "duration": 0.005482395833333875,
          "durationTicks": 4,
          "midi": 44,
          "name": "G#2",
          "ticks": 4996,
          "time": 6.847512395833332,
          "velocity": 0.47244094488188976
        },
        {
          "duration": 0.005482395833332987,
          "durationTicks": 4,
          "midi": 39,
          "name": "D#2",
          "ticks": 5000,
          "time": 6.852994791666666,
          "velocity": 0.7480314960629921
        },
        {
          "duration": 0.005482395833332987,
          "durationTicks": 4,
          "midi": 60,
          "name": "C4",
          "ticks": 5088,
          "time": 6.973607499999999,
          "velocity": 0.33858267716535434
        },
        {
          "duration": 0.005482395833332987,
          "durationTicks": 4,
          "midi": 70,
          "name": "A#4",
          "ticks": 5184,
          "time": 7.105185,
          "velocity": 0.6377952755905512
        },
        {
          "duration": 0.005482395833332987,
          "durationTicks": 4,
          "midi": 63,
          "name": "D#4",
          "ticks": 5184,
          "time": 7.105185,
          "velocity": 0.3858267716535433
        },
        {
          "duration": 0.005482395833332987,
          "durationTicks": 4,
          "midi": 70,
          "name": "A#4",
          "ticks": 5280,
          "time": 7.236762499999999,
          "velocity": 0.7795275590551181
        },
        {
          "duration": 0.005482395833332987,
          "durationTicks": 4,
          "midi": 35,
          "name": "B1",
          "ticks": 5376,
          "time": 7.368339999999999,
          "velocity": 0.8661417322834646
        },
        {
          "duration": 0.005482395833332987,
          "durationTicks": 4,
          "midi": 60,
          "name": "C4",
          "ticks": 5376,
          "time": 7.368339999999999,
          "velocity": 0.4251968503937008
        },
        {
          "duration": 0.005482395833332987,
          "durationTicks": 4,
          "midi": 70,
          "name": "A#4",
          "ticks": 5568,
          "time": 7.631494999999999,
          "velocity": 0.7795275590551181
        },
        {
          "duration": 0.005482395833333875,
          "durationTicks": 4,
          "midi": 46,
          "name": "A#2",
          "ticks": 5572,
          "time": 7.636977395833332,
          "velocity": 0.5275590551181102
        },
        {
          "duration": 0.005482395833332987,
          "durationTicks": 4,
          "midi": 60,
          "name": "C4",
          "ticks": 5664,
          "time": 7.763072499999999,
          "velocity": 0.33858267716535434
        },
        {
          "duration": 0.005482395833332987,
          "durationTicks": 4,
          "midi": 35,
          "name": "B1",
          "ticks": 5760,
          "time": 7.8946499999999995,
          "velocity": 0.8976377952755905
        },
        {
          "duration": 0.005482395833333875,
          "durationTicks": 4,
          "midi": 40,
          "name": "E2",
          "ticks": 5764,
          "time": 7.9001323958333325,
          "velocity": 0.8661417322834646
        },
        {
          "duration": 0.005482395833333875,
          "durationTicks": 4,
          "midi": 44,
          "name": "G#2",
          "ticks": 5764,
          "time": 7.9001323958333325,
          "velocity": 0.5275590551181102
        },
        {
          "duration": 0.005482395833332987,
          "durationTicks": 4,
          "midi": 39,
          "name": "D#2",
          "ticks": 5768,
          "time": 7.905614791666666,
          "velocity": 0.7480314960629921
        },
        {
          "duration": 0.005482395833332987,
          "durationTicks": 4,
          "midi": 60,
          "name": "C4",
          "ticks": 5856,
          "time": 8.0262275,
          "velocity": 0.3858267716535433
        },
        {
          "duration": 0.005482395833332987,
          "durationTicks": 4,
          "midi": 70,
          "name": "A#4",
          "ticks": 5952,
          "time": 8.157805,
          "velocity": 0.7795275590551181
        },
        {
          "duration": 0.005482395833332987,
          "durationTicks": 4,
          "midi": 63,
          "name": "D#4",
          "ticks": 5952,
          "time": 8.157805,
          "velocity": 0.4251968503937008
        },
        {
          "duration": 0.005482395833332987,
          "durationTicks": 4,
          "midi": 46,
          "name": "A#2",
          "ticks": 5956,
          "time": 8.163287395833333,
          "velocity": 0.49606299212598426
        },
        {
          "duration": 0.005482395833334763,
          "durationTicks": 4,
          "midi": 35,
          "name": "B1",
          "ticks": 6144,
          "time": 8.42096,
          "velocity": 0.8661417322834646
        },
        {
          "duration": 0.005482395833334763,
          "durationTicks": 4,
          "midi": 60,
          "name": "C4",
          "ticks": 6144,
          "time": 8.42096,
          "velocity": 0.4251968503937008
        },
        {
          "duration": 0.005482395833331211,
          "durationTicks": 4,
          "midi": 44,
          "name": "G#2",
          "ticks": 6148,
          "time": 8.426442395833334,
          "velocity": 0.49606299212598426
        },
        {
          "duration": 0.005482395833334763,
          "durationTicks": 4,
          "midi": 70,
          "name": "A#4",
          "ticks": 6336,
          "time": 8.684114999999998,
          "velocity": 0.6692913385826772
        },
        {
          "duration": 0.005482395833331211,
          "durationTicks": 4,
          "midi": 46,
          "name": "A#2",
          "ticks": 6340,
          "time": 8.689597395833333,
          "velocity": 0.47244094488188976
        },
        {
          "duration": 0.005482395833334763,
          "durationTicks": 4,
          "midi": 60,
          "name": "C4",
          "ticks": 6432,
          "time": 8.815692499999999,
          "velocity": 0.25984251968503935
        },
        {
          "duration": 0.005482395833332987,
          "durationTicks": 4,
          "midi": 35,
          "name": "B1",
          "ticks": 6528,
          "time": 8.94727,
          "velocity": 0.8661417322834646
        },
        {
          "duration": 0.005482395833332987,
          "durationTicks": 4,
          "midi": 40,
          "name": "E2",
          "ticks": 6532,
          "time": 8.952752395833333,
          "velocity": 0.8661417322834646
        },
        {
          "duration": 0.005482395833332987,
          "durationTicks": 4,
          "midi": 44,
          "name": "G#2",
          "ticks": 6532,
          "time": 8.952752395833333,
          "velocity": 0.49606299212598426
        },
        {
          "duration": 0.005482395833332987,
          "durationTicks": 4,
          "midi": 39,
          "name": "D#2",
          "ticks": 6536,
          "time": 8.958234791666666,
          "velocity": 0.7480314960629921
        },
        {
          "duration": 0.005482395833334763,
          "durationTicks": 4,
          "midi": 60,
          "name": "C4",
          "ticks": 6624,
          "time": 9.078847499999998,
          "velocity": 0.28346456692913385
        },
        {
          "duration": 0.005482395833334763,
          "durationTicks": 4,
          "midi": 70,
          "name": "A#4",
          "ticks": 6720,
          "time": 9.210424999999999,
          "velocity": 0.6141732283464567
        },
        {
          "duration": 0.005482395833334763,
          "durationTicks": 4,
          "midi": 63,
          "name": "D#4",
          "ticks": 6720,
          "time": 9.210424999999999,
          "velocity": 0.3858267716535433
        },
        {
          "duration": 0.005482395833331211,
          "durationTicks": 4,
          "midi": 46,
          "name": "A#2",
          "ticks": 6724,
          "time": 9.215907395833334,
          "velocity": 0.4251968503937008
        },
        {
          "duration": 0.005482395833332987,
          "durationTicks": 4,
          "midi": 70,
          "name": "A#4",
          "ticks": 6816,
          "time": 9.3420025,
          "velocity": 0.7401574803149606
        },
        {
          "duration": 0.005482395833334763,
          "durationTicks": 4,
          "midi": 35,
          "name": "B1",
          "ticks": 6912,
          "time": 9.473579999999998,
          "velocity": 0.8661417322834646
        },
        {
          "duration": 0.005482395833334763,
          "durationTicks": 4,
          "midi": 60,
          "name": "C4",
          "ticks": 6912,
          "time": 9.473579999999998,
          "velocity": 0.4251968503937008
        },
        {
          "duration": 0.005482395833331211,
          "durationTicks": 4,
          "midi": 44,
          "name": "G#2",
          "ticks": 6916,
          "time": 9.479062395833333,
          "velocity": 0.49606299212598426
        },
        {
          "duration": 0.005482395833332987,
          "durationTicks": 4,
          "midi": 70,
          "name": "A#4",
          "ticks": 7104,
          "time": 9.736735,
          "velocity": 0.7401574803149606
        },
        {
          "duration": 0.005482395833332987,
          "durationTicks": 4,
          "midi": 46,
          "name": "A#2",
          "ticks": 7108,
          "time": 9.742217395833332,
          "velocity": 0.4251968503937008
        },
        {
          "duration": 0.005482395833334763,
          "durationTicks": 4,
          "midi": 60,
          "name": "C4",
          "ticks": 7200,
          "time": 9.868312499999998,
          "velocity": 0.33858267716535434
        },
        {
          "duration": 0.005482395833334763,
          "durationTicks": 4,
          "midi": 35,
          "name": "B1",
          "ticks": 7296,
          "time": 9.999889999999999,
          "velocity": 0.8976377952755905
        },
        {
          "duration": 0.005482395833331211,
          "durationTicks": 4,
          "midi": 40,
          "name": "E2",
          "ticks": 7300,
          "time": 10.005372395833334,
          "velocity": 0.8661417322834646
        },
        {
          "duration": 0.005482395833331211,
          "durationTicks": 4,
          "midi": 44,
          "name": "G#2",
          "ticks": 7300,
          "time": 10.005372395833334,
          "velocity": 0.49606299212598426
        },
        {
          "duration": 0.005482395833334763,
          "durationTicks": 4,
          "midi": 39,
          "name": "D#2",
          "ticks": 7304,
          "time": 10.010854791666665,
          "velocity": 0.7480314960629921
        },
        {
          "duration": 0.005482395833332987,
          "durationTicks": 4,
          "midi": 60,
          "name": "C4",
          "ticks": 7392,
          "time": 10.1314675,
          "velocity": 0.31496062992125984
        },
        {
          "duration": 0.005482395833334763,
          "durationTicks": 4,
          "midi": 70,
          "name": "A#4",
          "ticks": 7488,
          "time": 10.263044999999998,
          "velocity": 0.6377952755905512
        },
        {
          "duration": 0.005482395833334763,
          "durationTicks": 4,
          "midi": 63,
          "name": "D#4",
          "ticks": 7488,
          "time": 10.263044999999998,
          "velocity": 0.3858267716535433
        },
        {
          "duration": 0.005482395833331211,
          "durationTicks": 4,
          "midi": 46,
          "name": "A#2",
          "ticks": 7492,
          "time": 10.268527395833333,
          "velocity": 0.47244094488188976
        },
        {
          "duration": 0.005482395833334763,
          "durationTicks": 4,
          "midi": 70,
          "name": "A#4",
          "ticks": 7584,
          "time": 10.394622499999999,
          "velocity": 0.7401574803149606
        },
        {
          "duration": 0.005482395833332987,
          "durationTicks": 4,
          "midi": 35,
          "name": "B1",
          "ticks": 7680,
          "time": 10.5262,
          "velocity": 0.8976377952755905
        },
        {
          "duration": 0.005482395833332987,
          "durationTicks": 4,
          "midi": 69,
          "name": "A4",
          "ticks": 7680,
          "time": 10.5262,
          "velocity": 0.5826771653543307
        },
        {
          "duration": 0.005482395833332987,
          "durationTicks": 4,
          "midi": 60,
          "name": "C4",
          "ticks": 7680,
          "time": 10.5262,
          "velocity": 0.4251968503937008
        },
        {
          "duration": 0.005482395833332987,
          "durationTicks": 4,
          "midi": 44,
          "name": "G#2",
          "ticks": 7684,
          "time": 10.531682395833332,
          "velocity": 0.49606299212598426
        },
        {
          "duration": 0.005482395833332987,
          "durationTicks": 4,
          "midi": 69,
          "name": "A4",
          "ticks": 7772,
          "time": 10.652295104166665,
          "velocity": 0.2204724409448819
        },
        {
          "duration": 0.005482395833334763,
          "durationTicks": 4,
          "midi": 69,
          "name": "A4",
          "ticks": 7856,
          "time": 10.767425416666665,
          "velocity": 0.8031496062992126
        },
        {
          "duration": 0.005482395833334763,
          "durationTicks": 4,
          "midi": 70,
          "name": "A#4",
          "ticks": 7872,
          "time": 10.789354999999999,
          "velocity": 0.7401574803149606
        },
        {
          "duration": 0.005482395833331211,
          "durationTicks": 4,
          "midi": 46,
          "name": "A#2",
          "ticks": 7876,
          "time": 10.794837395833333,
          "velocity": 0.5275590551181102
        },
        {
          "duration": 0.005482395833332987,
          "durationTicks": 4,
          "midi": 69,
          "name": "A4",
          "ticks": 7952,
          "time": 10.899002916666666,
          "velocity": 0.8031496062992126
        },
        {
          "duration": 0.005482395833332987,
          "durationTicks": 4,
          "midi": 60,
          "name": "C4",
          "ticks": 7968,
          "time": 10.9209325,
          "velocity": 0.33858267716535434
        },
        {
          "duration": 0.005482395833334763,
          "durationTicks": 4,
          "midi": 35,
          "name": "B1",
          "ticks": 8064,
          "time": 11.052509999999998,
          "velocity": 0.8976377952755905
        },
        {
          "duration": 0.005482395833331211,
          "durationTicks": 4,
          "midi": 40,
          "name": "E2",
          "ticks": 8068,
          "time": 11.057992395833333,
          "velocity": 0.8976377952755905
        },
        {
          "duration": 0.005482395833331211,
          "durationTicks": 4,
          "midi": 44,
          "name": "G#2",
          "ticks": 8068,
          "time": 11.057992395833333,
          "velocity": 0.5984251968503937
        },
        {
          "duration": 0.005482395833334763,
          "durationTicks": 4,
          "midi": 39,
          "name": "D#2",
          "ticks": 8072,
          "time": 11.063474791666664,
          "velocity": 0.7795275590551181
        },
        {
          "duration": 0.005482395833334763,
          "durationTicks": 4,
          "midi": 60,
          "name": "C4",
          "ticks": 8160,
          "time": 11.184087499999999,
          "velocity": 0.31496062992125984
        },
        {
          "duration": 0.005482395833332987,
          "durationTicks": 4,
          "midi": 70,
          "name": "A#4",
          "ticks": 8256,
          "time": 11.315665,
          "velocity": 0.5669291338582677
        },
        {
          "duration": 0.005482395833332987,
          "durationTicks": 4,
          "midi": 63,
          "name": "D#4",
          "ticks": 8256,
          "time": 11.315665,
          "velocity": 0.31496062992125984
        },
        {
          "duration": 0.005482395833334763,
          "durationTicks": 4,
          "midi": 70,
          "name": "A#4",
          "ticks": 8352,
          "time": 11.447242499999998,
          "velocity": 0.6692913385826772
        },
        {
          "duration": 0.005482395833334763,
          "durationTicks": 4,
          "midi": 35,
          "name": "B1",
          "ticks": 8448,
          "time": 11.578819999999999,
          "velocity": 0.8661417322834646
        },
        {
          "duration": 0.005482395833334763,
          "durationTicks": 4,
          "midi": 60,
          "name": "C4",
          "ticks": 8448,
          "time": 11.578819999999999,
          "velocity": 0.4251968503937008
        },
        {
          "duration": 0.005482395833334763,
          "durationTicks": 4,
          "midi": 70,
          "name": "A#4",
          "ticks": 8640,
          "time": 11.841974999999998,
          "velocity": 0.7401574803149606
        },
        {
          "duration": 0.005482395833332987,
          "durationTicks": 4,
          "midi": 46,
          "name": "A#2",
          "ticks": 8644,
          "time": 11.847457395833333,
          "velocity": 0.49606299212598426
        },
        {
          "duration": 0.005482395833334763,
          "durationTicks": 4,
          "midi": 60,
          "name": "C4",
          "ticks": 8736,
          "time": 11.973552499999998,
          "velocity": 0.31496062992125984
        },
        {
          "duration": 0.005482395833332987,
          "durationTicks": 4,
          "midi": 35,
          "name": "B1",
          "ticks": 8832,
          "time": 12.105129999999999,
          "velocity": 0.8976377952755905
        },
        {
          "duration": 0.005482395833332987,
          "durationTicks": 4,
          "midi": 40,
          "name": "E2",
          "ticks": 8836,
          "time": 12.110612395833332,
          "velocity": 0.8976377952755905
        },
        {
          "duration": 0.005482395833332987,
          "durationTicks": 4,
          "midi": 44,
          "name": "G#2",
          "ticks": 8836,
          "time": 12.110612395833332,
          "velocity": 0.49606299212598426
        },
        {
          "duration": 0.005482395833332987,
          "durationTicks": 4,
          "midi": 39,
          "name": "D#2",
          "ticks": 8840,
          "time": 12.116094791666665,
          "velocity": 0.7795275590551181
        },
        {
          "duration": 0.005482395833334763,
          "durationTicks": 4,
          "midi": 60,
          "name": "C4",
          "ticks": 8928,
          "time": 12.236707499999998,
          "velocity": 0.33858267716535434
        },
        {
          "duration": 0.005482395833334763,
          "durationTicks": 4,
          "midi": 70,
          "name": "A#4",
          "ticks": 9024,
          "time": 12.368284999999998,
          "velocity": 0.7401574803149606
        },
        {
          "duration": 0.005482395833334763,
          "durationTicks": 4,
          "midi": 63,
          "name": "D#4",
          "ticks": 9024,
          "time": 12.368284999999998,
          "velocity": 0.4251968503937008
        },
        {
          "duration": 0.005482395833331211,
          "durationTicks": 4,
          "midi": 46,
          "name": "A#2",
          "ticks": 9028,
          "time": 12.373767395833333,
          "velocity": 0.49606299212598426
        },
        {
          "duration": 0.005482395833334763,
          "durationTicks": 4,
          "midi": 35,
          "name": "B1",
          "ticks": 9216,
          "time": 12.631439999999998,
          "velocity": 0.8976377952755905
        },
        {
          "duration": 0.005482395833334763,
          "durationTicks": 4,
          "midi": 60,
          "name": "C4",
          "ticks": 9216,
          "time": 12.631439999999998,
          "velocity": 0.3858267716535433
        },
        {
          "duration": 0.005482395833332987,
          "durationTicks": 4,
          "midi": 44,
          "name": "G#2",
          "ticks": 9220,
          "time": 12.636922395833333,
          "velocity": 0.5275590551181102
        },
        {
          "duration": 0.005482395833332987,
          "durationTicks": 4,
          "midi": 70,
          "name": "A#4",
          "ticks": 9408,
          "time": 12.894594999999999,
          "velocity": 0.7795275590551181
        },
        {
          "duration": 0.005482395833332987,
          "durationTicks": 4,
          "midi": 46,
          "name": "A#2",
          "ticks": 9412,
          "time": 12.900077395833332,
          "velocity": 0.49606299212598426
        },
        {
          "duration": 0.005482395833332987,
          "durationTicks": 4,
          "midi": 60,
          "name": "C4",
          "ticks": 9504,
          "time": 13.0261725,
          "velocity": 0.31496062992125984
        },
        {
          "duration": 0.005482395833334763,
          "durationTicks": 4,
          "midi": 35,
          "name": "B1",
          "ticks": 9600,
          "time": 13.157749999999998,
          "velocity": 0.8661417322834646
        },
        {
          "duration": 0.005482395833331211,
          "durationTicks": 4,
          "midi": 40,
          "name": "E2",
          "ticks": 9604,
          "time": 13.163232395833333,
          "velocity": 0.8976377952755905
        },
        {
          "duration": 0.005482395833331211,
          "durationTicks": 4,
          "midi": 44,
          "name": "G#2",
          "ticks": 9604,
          "time": 13.163232395833333,
          "velocity": 0.49606299212598426
        },
        {
          "duration": 0.005482395833334763,
          "durationTicks": 4,
          "midi": 39,
          "name": "D#2",
          "ticks": 9608,
          "time": 13.168714791666664,
          "velocity": 0.7795275590551181
        },
        {
          "duration": 0.005482395833332987,
          "durationTicks": 4,
          "midi": 60,
          "name": "C4",
          "ticks": 9696,
          "time": 13.289327499999999,
          "velocity": 0.33858267716535434
        },
        {
          "duration": 0.005482395833332987,
          "durationTicks": 4,
          "midi": 70,
          "name": "A#4",
          "ticks": 9792,
          "time": 13.420905,
          "velocity": 0.6141732283464567
        },
        {
          "duration": 0.005482395833332987,
          "durationTicks": 4,
          "midi": 63,
          "name": "D#4",
          "ticks": 9792,
          "time": 13.420905,
          "velocity": 0.31496062992125984
        },
        {
          "duration": 0.005482395833332987,
          "durationTicks": 4,
          "midi": 46,
          "name": "A#2",
          "ticks": 9796,
          "time": 13.426387395833332,
          "velocity": 0.49606299212598426
        },
        {
          "duration": 0.005482395833334763,
          "durationTicks": 4,
          "midi": 70,
          "name": "A#4",
          "ticks": 9888,
          "time": 13.552482499999998,
          "velocity": 0.6692913385826772
        },
        {
          "duration": 0.005482395833332987,
          "durationTicks": 4,
          "midi": 35,
          "name": "B1",
          "ticks": 9984,
          "time": 13.684059999999999,
          "velocity": 0.8976377952755905
        },
        {
          "duration": 0.005482395833332987,
          "durationTicks": 4,
          "midi": 60,
          "name": "C4",
          "ticks": 9984,
          "time": 13.684059999999999,
          "velocity": 0.3858267716535433
        },
        {
          "duration": 0.005482395833332987,
          "durationTicks": 4,
          "midi": 44,
          "name": "G#2",
          "ticks": 9988,
          "time": 13.689542395833332,
          "velocity": 0.49606299212598426
        },
        {
          "duration": 0.005482395833334763,
          "durationTicks": 4,
          "midi": 70,
          "name": "A#4",
          "ticks": 10176,
          "time": 13.947214999999998,
          "velocity": 0.7795275590551181
        },
        {
          "duration": 0.005482395833331211,
          "durationTicks": 4,
          "midi": 46,
          "name": "A#2",
          "ticks": 10180,
          "time": 13.952697395833333,
          "velocity": 0.49606299212598426
        },
        {
          "duration": 0.005482395833332987,
          "durationTicks": 4,
          "midi": 60,
          "name": "C4",
          "ticks": 10272,
          "time": 14.078792499999999,
          "velocity": 0.31496062992125984
        },
        {
          "duration": 0.005482395833332987,
          "durationTicks": 4,
          "midi": 35,
          "name": "B1",
          "ticks": 10368,
          "time": 14.21037,
          "velocity": 0.8976377952755905
        },
        {
          "duration": 0.005482395833332987,
          "durationTicks": 4,
          "midi": 40,
          "name": "E2",
          "ticks": 10372,
          "time": 14.215852395833332,
          "velocity": 0.8976377952755905
        },
        {
          "duration": 0.005482395833332987,
          "durationTicks": 4,
          "midi": 44,
          "name": "G#2",
          "ticks": 10372,
          "time": 14.215852395833332,
          "velocity": 0.5275590551181102
        },
        {
          "duration": 0.005482395833332987,
          "durationTicks": 4,
          "midi": 39,
          "name": "D#2",
          "ticks": 10376,
          "time": 14.221334791666665,
          "velocity": 0.7795275590551181
        },
        {
          "duration": 0.005482395833334763,
          "durationTicks": 4,
          "midi": 60,
          "name": "C4",
          "ticks": 10464,
          "time": 14.341947499999998,
          "velocity": 0.31496062992125984
        },
        {
          "duration": 0.005482395833332987,
          "durationTicks": 4,
          "midi": 70,
          "name": "A#4",
          "ticks": 10560,
          "time": 14.473524999999999,
          "velocity": 0.6377952755905512
        },
        {
          "duration": 0.005482395833332987,
          "durationTicks": 4,
          "midi": 63,
          "name": "D#4",
          "ticks": 10560,
          "time": 14.473524999999999,
          "velocity": 0.3858267716535433
        },
        {
          "duration": 0.005482395833332987,
          "durationTicks": 4,
          "midi": 46,
          "name": "A#2",
          "ticks": 10564,
          "time": 14.479007395833332,
          "velocity": 0.5275590551181102
        },
        {
          "duration": 0.005482395833332987,
          "durationTicks": 4,
          "midi": 70,
          "name": "A#4",
          "ticks": 10656,
          "time": 14.6051025,
          "velocity": 0.7795275590551181
        },
        {
          "duration": 0.005482395833334763,
          "durationTicks": 4,
          "midi": 35,
          "name": "B1",
          "ticks": 10752,
          "time": 14.736679999999998,
          "velocity": 0.8661417322834646
        },
        {
          "duration": 0.005482395833334763,
          "durationTicks": 4,
          "midi": 69,
          "name": "A4",
          "ticks": 10752,
          "time": 14.736679999999998,
          "velocity": 0.5826771653543307
        },
        {
          "duration": 0.005482395833334763,
          "durationTicks": 4,
          "midi": 60,
          "name": "C4",
          "ticks": 10752,
          "time": 14.736679999999998,
          "velocity": 0.4251968503937008
        },
        {
          "duration": 0.005482395833331211,
          "durationTicks": 4,
          "midi": 44,
          "name": "G#2",
          "ticks": 10756,
          "time": 14.742162395833333,
          "velocity": 0.5984251968503937
        },
        {
          "duration": 0.005482395833334763,
          "durationTicks": 4,
          "midi": 69,
          "name": "A4",
          "ticks": 10844,
          "time": 14.862775104166664,
          "velocity": 0.2204724409448819
        },
        {
          "duration": 0.005482395833334763,
          "durationTicks": 4,
          "midi": 69,
          "name": "A4",
          "ticks": 10928,
          "time": 14.977905416666664,
          "velocity": 0.8031496062992126
        },
        {
          "duration": 0.005482395833332987,
          "durationTicks": 4,
          "midi": 70,
          "name": "A#4",
          "ticks": 10944,
          "time": 14.999835,
          "velocity": 0.7795275590551181
        },
        {
          "duration": 0.005482395833332987,
          "durationTicks": 4,
          "midi": 46,
          "name": "A#2",
          "ticks": 10948,
          "time": 15.005317395833332,
          "velocity": 0.49606299212598426
        },
        {
          "duration": 0.005482395833334763,
          "durationTicks": 4,
          "midi": 69,
          "name": "A4",
          "ticks": 11024,
          "time": 15.109482916666664,
          "velocity": 0.8031496062992126
        },
        {
          "duration": 0.005482395833334763,
          "durationTicks": 4,
          "midi": 60,
          "name": "C4",
          "ticks": 11040,
          "time": 15.131412499999998,
          "velocity": 0.4251968503937008
        },
        {
          "duration": 0.005482395833332987,
          "durationTicks": 4,
          "midi": 35,
          "name": "B1",
          "ticks": 11136,
          "time": 15.262989999999999,
          "velocity": 0.8976377952755905
        },
        {
          "duration": 0.005482395833332987,
          "durationTicks": 4,
          "midi": 40,
          "name": "E2",
          "ticks": 11140,
          "time": 15.268472395833331,
          "velocity": 0.8661417322834646
        },
        {
          "duration": 0.005482395833332987,
          "durationTicks": 4,
          "midi": 44,
          "name": "G#2",
          "ticks": 11140,
          "time": 15.268472395833331,
          "velocity": 0.47244094488188976
        },
        {
          "duration": 0.005482395833334763,
          "durationTicks": 4,
          "midi": 39,
          "name": "D#2",
          "ticks": 11144,
          "time": 15.273954791666664,
          "velocity": 0.7480314960629921
        },
        {
          "duration": 0.005482395833332987,
          "durationTicks": 4,
          "midi": 60,
          "name": "C4",
          "ticks": 11232,
          "time": 15.394567499999999,
          "velocity": 0.33858267716535434
        },
        {
          "duration": 0.005482395833334763,
          "durationTicks": 4,
          "midi": 70,
          "name": "A#4",
          "ticks": 11328,
          "time": 15.526144999999998,
          "velocity": 0.6377952755905512
        },
        {
          "duration": 0.005482395833334763,
          "durationTicks": 4,
          "midi": 63,
          "name": "D#4",
          "ticks": 11328,
          "time": 15.526144999999998,
          "velocity": 0.3858267716535433
        },
        {
          "duration": 0.005482395833332987,
          "durationTicks": 4,
          "midi": 70,
          "name": "A#4",
          "ticks": 11424,
          "time": 15.657722499999998,
          "velocity": 0.7795275590551181
        },
        {
          "duration": 0.005482395833332987,
          "durationTicks": 4,
          "midi": 35,
          "name": "B1",
          "ticks": 11520,
          "time": 15.789299999999999,
          "velocity": 0.8661417322834646
        },
        {
          "duration": 0.005482395833332987,
          "durationTicks": 4,
          "midi": 60,
          "name": "C4",
          "ticks": 11520,
          "time": 15.789299999999999,
          "velocity": 0.4251968503937008
        },
        {
          "duration": 0.005482395833332987,
          "durationTicks": 4,
          "midi": 70,
          "name": "A#4",
          "ticks": 11712,
          "time": 16.052455,
          "velocity": 0.7401574803149606
        },
        {
          "duration": 0.005482395833332987,
          "durationTicks": 4,
          "midi": 46,
          "name": "A#2",
          "ticks": 11716,
          "time": 16.05793739583333,
          "velocity": 0.5275590551181102
        },
        {
          "duration": 0.00548239583333654,
          "durationTicks": 4,
          "midi": 60,
          "name": "C4",
          "ticks": 11808,
          "time": 16.184032499999997,
          "velocity": 0.33858267716535434
        },
        {
          "duration": 0.005482395833332987,
          "durationTicks": 4,
          "midi": 35,
          "name": "B1",
          "ticks": 11904,
          "time": 16.31561,
          "velocity": 0.8976377952755905
        },
        {
          "duration": 0.005482395833332987,
          "durationTicks": 4,
          "midi": 40,
          "name": "E2",
          "ticks": 11908,
          "time": 16.321092395833332,
          "velocity": 0.8661417322834646
        },
        {
          "duration": 0.005482395833332987,
          "durationTicks": 4,
          "midi": 44,
          "name": "G#2",
          "ticks": 11908,
          "time": 16.321092395833332,
          "velocity": 0.5275590551181102
        },
        {
          "duration": 0.005482395833332987,
          "durationTicks": 4,
          "midi": 39,
          "name": "D#2",
          "ticks": 11912,
          "time": 16.326574791666665,
          "velocity": 0.7480314960629921
        },
        {
          "duration": 0.005482395833332987,
          "durationTicks": 4,
          "midi": 60,
          "name": "C4",
          "ticks": 12000,
          "time": 16.4471875,
          "velocity": 0.3858267716535433
        },
        {
          "duration": 0.00548239583333654,
          "durationTicks": 4,
          "midi": 70,
          "name": "A#4",
          "ticks": 12096,
          "time": 16.578764999999997,
          "velocity": 0.7401574803149606
        },
        {
          "duration": 0.00548239583333654,
          "durationTicks": 4,
          "midi": 63,
          "name": "D#4",
          "ticks": 12096,
          "time": 16.578764999999997,
          "velocity": 0.4251968503937008
        },
        {
          "duration": 0.005482395833329434,
          "durationTicks": 4,
          "midi": 46,
          "name": "A#2",
          "ticks": 12100,
          "time": 16.584247395833334,
          "velocity": 0.49606299212598426
        },
        {
          "duration": 0.005482395833332987,
          "durationTicks": 4,
          "midi": 35,
          "name": "B1",
          "ticks": 12288,
          "time": 16.84192,
          "velocity": 0.8661417322834646
        },
        {
          "duration": 0.005482395833332987,
          "durationTicks": 4,
          "midi": 60,
          "name": "C4",
          "ticks": 12288,
          "time": 16.84192,
          "velocity": 0.4251968503937008
        },
        {
          "duration": 0.00548239583333654,
          "durationTicks": 4,
          "midi": 44,
          "name": "G#2",
          "ticks": 12292,
          "time": 16.84740239583333,
          "velocity": 0.49606299212598426
        },
        {
          "duration": 0.005482395833329434,
          "durationTicks": 4,
          "midi": 70,
          "name": "A#4",
          "ticks": 12480,
          "time": 17.105075,
          "velocity": 0.7401574803149606
        },
        {
          "duration": 0.00548239583333654,
          "durationTicks": 4,
          "midi": 46,
          "name": "A#2",
          "ticks": 12484,
          "time": 17.11055739583333,
          "velocity": 0.47244094488188976
        },
        {
          "duration": 0.005482395833332987,
          "durationTicks": 4,
          "midi": 60,
          "name": "C4",
          "ticks": 12576,
          "time": 17.236652499999998,
          "velocity": 0.25984251968503935
        },
        {
          "duration": 0.005482395833332987,
          "durationTicks": 4,
          "midi": 35,
          "name": "B1",
          "ticks": 12672,
          "time": 17.368229999999997,
          "velocity": 0.8661417322834646
        },
        {
          "duration": 0.00548239583333654,
          "durationTicks": 4,
          "midi": 40,
          "name": "E2",
          "ticks": 12676,
          "time": 17.37371239583333,
          "velocity": 0.8661417322834646
        },
        {
          "duration": 0.00548239583333654,
          "durationTicks": 4,
          "midi": 44,
          "name": "G#2",
          "ticks": 12676,
          "time": 17.37371239583333,
          "velocity": 0.49606299212598426
        },
        {
          "duration": 0.005482395833332987,
          "durationTicks": 4,
          "midi": 39,
          "name": "D#2",
          "ticks": 12680,
          "time": 17.379194791666666,
          "velocity": 0.7480314960629921
        },
        {
          "duration": 0.005482395833329434,
          "durationTicks": 4,
          "midi": 60,
          "name": "C4",
          "ticks": 12768,
          "time": 17.4998075,
          "velocity": 0.28346456692913385
        },
        {
          "duration": 0.005482395833332987,
          "durationTicks": 4,
          "midi": 70,
          "name": "A#4",
          "ticks": 12864,
          "time": 17.631384999999998,
          "velocity": 0.6141732283464567
        },
        {
          "duration": 0.005482395833332987,
          "durationTicks": 4,
          "midi": 63,
          "name": "D#4",
          "ticks": 12864,
          "time": 17.631384999999998,
          "velocity": 0.3858267716535433
        },
        {
          "duration": 0.00548239583333654,
          "durationTicks": 4,
          "midi": 46,
          "name": "A#2",
          "ticks": 12868,
          "time": 17.63686739583333,
          "velocity": 0.4251968503937008
        },
        {
          "duration": 0.005482395833332987,
          "durationTicks": 4,
          "midi": 70,
          "name": "A#4",
          "ticks": 12960,
          "time": 17.762962499999997,
          "velocity": 0.7401574803149606
        },
        {
          "duration": 0.005482395833329434,
          "durationTicks": 4,
          "midi": 35,
          "name": "B1",
          "ticks": 13056,
          "time": 17.89454,
          "velocity": 0.8661417322834646
        },
        {
          "duration": 0.005482395833329434,
          "durationTicks": 4,
          "midi": 60,
          "name": "C4",
          "ticks": 13056,
          "time": 17.89454,
          "velocity": 0.4251968503937008
        },
        {
          "duration": 0.00548239583333654,
          "durationTicks": 4,
          "midi": 44,
          "name": "G#2",
          "ticks": 13060,
          "time": 17.90002239583333,
          "velocity": 0.49606299212598426
        },
        {
          "duration": 0.005482395833332987,
          "durationTicks": 4,
          "midi": 70,
          "name": "A#4",
          "ticks": 13248,
          "time": 18.157694999999997,
          "velocity": 0.7401574803149606
        },
        {
          "duration": 0.00548239583333654,
          "durationTicks": 4,
          "midi": 46,
          "name": "A#2",
          "ticks": 13252,
          "time": 18.16317739583333,
          "velocity": 0.4251968503937008
        },
        {
          "duration": 0.005482395833329434,
          "durationTicks": 4,
          "midi": 60,
          "name": "C4",
          "ticks": 13344,
          "time": 18.2892725,
          "velocity": 0.33858267716535434
        },
        {
          "duration": 0.005482395833332987,
          "durationTicks": 4,
          "midi": 35,
          "name": "B1",
          "ticks": 13440,
          "time": 18.420849999999998,
          "velocity": 0.8976377952755905
        },
        {
          "duration": 0.00548239583333654,
          "durationTicks": 4,
          "midi": 40,
          "name": "E2",
          "ticks": 13444,
          "time": 18.42633239583333,
          "velocity": 0.8661417322834646
        },
        {
          "duration": 0.00548239583333654,
          "durationTicks": 4,
          "midi": 44,
          "name": "G#2",
          "ticks": 13444,
          "time": 18.42633239583333,
          "velocity": 0.49606299212598426
        },
        {
          "duration": 0.005482395833329434,
          "durationTicks": 4,
          "midi": 39,
          "name": "D#2",
          "ticks": 13448,
          "time": 18.431814791666667,
          "velocity": 0.7480314960629921
        },
        {
          "duration": 0.005482395833332987,
          "durationTicks": 4,
          "midi": 60,
          "name": "C4",
          "ticks": 13536,
          "time": 18.552427499999997,
          "velocity": 0.31496062992125984
        },
        {
          "duration": 0.005482395833329434,
          "durationTicks": 4,
          "midi": 70,
          "name": "A#4",
          "ticks": 13632,
          "time": 18.684005,
          "velocity": 0.6141732283464567
        },
        {
          "duration": 0.005482395833329434,
          "durationTicks": 4,
          "midi": 63,
          "name": "D#4",
          "ticks": 13632,
          "time": 18.684005,
          "velocity": 0.3858267716535433
        },
        {
          "duration": 0.00548239583333654,
          "durationTicks": 4,
          "midi": 46,
          "name": "A#2",
          "ticks": 13636,
          "time": 18.68948739583333,
          "velocity": 0.47244094488188976
        },
        {
          "duration": 0.005482395833332987,
          "durationTicks": 4,
          "midi": 70,
          "name": "A#4",
          "ticks": 13728,
          "time": 18.815582499999998,
          "velocity": 0.7795275590551181
        },
        {
          "duration": 0.005482395833332987,
          "durationTicks": 4,
          "midi": 35,
          "name": "B1",
          "ticks": 13824,
          "time": 18.947159999999997,
          "velocity": 0.8976377952755905
        },
        {
          "duration": 0.005482395833332987,
          "durationTicks": 4,
          "midi": 69,
          "name": "A4",
          "ticks": 13824,
          "time": 18.947159999999997,
          "velocity": 0.5826771653543307
        },
        {
          "duration": 0.005482395833332987,
          "durationTicks": 4,
          "midi": 60,
          "name": "C4",
          "ticks": 13824,
          "time": 18.947159999999997,
          "velocity": 0.4251968503937008
        },
        {
          "duration": 0.00548239583333654,
          "durationTicks": 4,
          "midi": 44,
          "name": "G#2",
          "ticks": 13828,
          "time": 18.95264239583333,
          "velocity": 0.49606299212598426
        },
        {
          "duration": 0.005482395833332987,
          "durationTicks": 4,
          "midi": 69,
          "name": "A4",
          "ticks": 13916,
          "time": 19.073255104166666,
          "velocity": 0.2204724409448819
        },
        {
          "duration": 0.005482395833332987,
          "durationTicks": 4,
          "midi": 69,
          "name": "A4",
          "ticks": 14000,
          "time": 19.188385416666666,
          "velocity": 0.8031496062992126
        },
        {
          "duration": 0.005482395833332987,
          "durationTicks": 4,
          "midi": 70,
          "name": "A#4",
          "ticks": 14016,
          "time": 19.210314999999998,
          "velocity": 0.7401574803149606
        },
        {
          "duration": 0.00548239583333654,
          "durationTicks": 4,
          "midi": 46,
          "name": "A#2",
          "ticks": 14020,
          "time": 19.21579739583333,
          "velocity": 0.5275590551181102
        },
        {
          "duration": 0.005482395833332987,
          "durationTicks": 4,
          "midi": 69,
          "name": "A4",
          "ticks": 14096,
          "time": 19.319962916666665,
          "velocity": 0.8031496062992126
        },
        {
          "duration": 0.005482395833332987,
          "durationTicks": 4,
          "midi": 60,
          "name": "C4",
          "ticks": 14112,
          "time": 19.341892499999997,
          "velocity": 0.33858267716535434
        },
        {
          "duration": 0.005482395833329434,
          "durationTicks": 4,
          "midi": 35,
          "name": "B1",
          "ticks": 14208,
          "time": 19.47347,
          "velocity": 0.8976377952755905
        },
        {
          "duration": 0.00548239583333654,
          "durationTicks": 4,
          "midi": 40,
          "name": "E2",
          "ticks": 14212,
          "time": 19.47895239583333,
          "velocity": 0.8976377952755905
        },
        {
          "duration": 0.00548239583333654,
          "durationTicks": 4,
          "midi": 44,
          "name": "G#2",
          "ticks": 14212,
          "time": 19.47895239583333,
          "velocity": 0.5984251968503937
        },
        {
          "duration": 0.005482395833332987,
          "durationTicks": 4,
          "midi": 39,
          "name": "D#2",
          "ticks": 14216,
          "time": 19.484434791666665,
          "velocity": 0.7795275590551181
        },
        {
          "duration": 0.005482395833332987,
          "durationTicks": 4,
          "midi": 60,
          "name": "C4",
          "ticks": 14304,
          "time": 19.605047499999998,
          "velocity": 0.31496062992125984
        },
        {
          "duration": 0.005482395833332987,
          "durationTicks": 4,
          "midi": 70,
          "name": "A#4",
          "ticks": 14400,
          "time": 19.736624999999997,
          "velocity": 0.5669291338582677
        },
        {
          "duration": 0.005482395833332987,
          "durationTicks": 4,
          "midi": 63,
          "name": "D#4",
          "ticks": 14400,
          "time": 19.736624999999997,
          "velocity": 0.31496062992125984
        },
        {
          "duration": 0.005482395833329434,
          "durationTicks": 4,
          "midi": 70,
          "name": "A#4",
          "ticks": 14496,
          "time": 19.8682025,
          "velocity": 0.6692913385826772
        },
        {
          "duration": 0.005482395833332987,
          "durationTicks": 4,
          "midi": 35,
          "name": "B1",
          "ticks": 14592,
          "time": 19.999779999999998,
          "velocity": 0.8661417322834646
        },
        {
          "duration": 0.005482395833332987,
          "durationTicks": 4,
          "midi": 60,
          "name": "C4",
          "ticks": 14592,
          "time": 19.999779999999998,
          "velocity": 0.4251968503937008
        },
        {
          "duration": 0.005482395833329434,
          "durationTicks": 4,
          "midi": 70,
          "name": "A#4",
          "ticks": 14784,
          "time": 20.262935,
          "velocity": 0.7401574803149606
        },
        {
          "duration": 0.00548239583333654,
          "durationTicks": 4,
          "midi": 46,
          "name": "A#2",
          "ticks": 14788,
          "time": 20.26841739583333,
          "velocity": 0.49606299212598426
        },
        {
          "duration": 0.005482395833332987,
          "durationTicks": 4,
          "midi": 60,
          "name": "C4",
          "ticks": 14880,
          "time": 20.394512499999998,
          "velocity": 0.31496062992125984
        },
        {
          "duration": 0.005482395833332987,
          "durationTicks": 4,
          "midi": 35,
          "name": "B1",
          "ticks": 14976,
          "time": 20.526089999999996,
          "velocity": 0.8976377952755905
        },
        {
          "duration": 0.00548239583333654,
          "durationTicks": 4,
          "midi": 40,
          "name": "E2",
          "ticks": 14980,
          "time": 20.53157239583333,
          "velocity": 0.8976377952755905
        },
        {
          "duration": 0.00548239583333654,
          "durationTicks": 4,
          "midi": 44,
          "name": "G#2",
          "ticks": 14980,
          "time": 20.53157239583333,
          "velocity": 0.49606299212598426
        },
        {
          "duration": 0.005482395833332987,
          "durationTicks": 4,
          "midi": 39,
          "name": "D#2",
          "ticks": 14984,
          "time": 20.537054791666666,
          "velocity": 0.7795275590551181
        },
        {
          "duration": 0.005482395833329434,
          "durationTicks": 4,
          "midi": 60,
          "name": "C4",
          "ticks": 15072,
          "time": 20.6576675,
          "velocity": 0.33858267716535434
        },
        {
          "duration": 0.005482395833332987,
          "durationTicks": 4,
          "midi": 70,
          "name": "A#4",
          "ticks": 15168,
          "time": 20.789244999999998,
          "velocity": 0.7401574803149606
        },
        {
          "duration": 0.005482395833332987,
          "durationTicks": 4,
          "midi": 63,
          "name": "D#4",
          "ticks": 15168,
          "time": 20.789244999999998,
          "velocity": 0.4251968503937008
        },
        {
          "duration": 0.00548239583333654,
          "durationTicks": 4,
          "midi": 46,
          "name": "A#2",
          "ticks": 15172,
          "time": 20.79472739583333,
          "velocity": 0.49606299212598426
        },
        {
          "duration": 0.005482395833329434,
          "durationTicks": 4,
          "midi": 35,
          "name": "B1",
          "ticks": 15360,
          "time": 21.0524,
          "velocity": 0.8976377952755905
        },
        {
          "duration": 0.005482395833329434,
          "durationTicks": 4,
          "midi": 60,
          "name": "C4",
          "ticks": 15360,
          "time": 21.0524,
          "velocity": 0.3858267716535433
        },
        {
          "duration": 0.00548239583333654,
          "durationTicks": 4,
          "midi": 44,
          "name": "G#2",
          "ticks": 15364,
          "time": 21.057882395833328,
          "velocity": 0.5275590551181102
        },
        {
          "duration": 0.005482395833332987,
          "durationTicks": 4,
          "midi": 70,
          "name": "A#4",
          "ticks": 15552,
          "time": 21.315554999999996,
          "velocity": 0.7795275590551181
        },
        {
          "duration": 0.00548239583333654,
          "durationTicks": 4,
          "midi": 46,
          "name": "A#2",
          "ticks": 15556,
          "time": 21.32103739583333,
          "velocity": 0.49606299212598426
        },
        {
          "duration": 0.005482395833332987,
          "durationTicks": 4,
          "midi": 60,
          "name": "C4",
          "ticks": 15648,
          "time": 21.4471325,
          "velocity": 0.31496062992125984
        },
        {
          "duration": 0.005482395833332987,
          "durationTicks": 4,
          "midi": 35,
          "name": "B1",
          "ticks": 15744,
          "time": 21.578709999999997,
          "velocity": 0.8661417322834646
        },
        {
          "duration": 0.00548239583333654,
          "durationTicks": 4,
          "midi": 40,
          "name": "E2",
          "ticks": 15748,
          "time": 21.58419239583333,
          "velocity": 0.8976377952755905
        },
        {
          "duration": 0.00548239583333654,
          "durationTicks": 4,
          "midi": 44,
          "name": "G#2",
          "ticks": 15748,
          "time": 21.58419239583333,
          "velocity": 0.49606299212598426
        },
        {
          "duration": 0.005482395833329434,
          "durationTicks": 4,
          "midi": 39,
          "name": "D#2",
          "ticks": 15752,
          "time": 21.589674791666667,
          "velocity": 0.7795275590551181
        },
        {
          "duration": 0.005482395833332987,
          "durationTicks": 4,
          "midi": 60,
          "name": "C4",
          "ticks": 15840,
          "time": 21.710287499999996,
          "velocity": 0.33858267716535434
        },
        {
          "duration": 0.005482395833332987,
          "durationTicks": 4,
          "midi": 70,
          "name": "A#4",
          "ticks": 15936,
          "time": 21.841865,
          "velocity": 0.6141732283464567
        },
        {
          "duration": 0.005482395833332987,
          "durationTicks": 4,
          "midi": 63,
          "name": "D#4",
          "ticks": 15936,
          "time": 21.841865,
          "velocity": 0.31496062992125984
        },
        {
          "duration": 0.005482395833332987,
          "durationTicks": 4,
          "midi": 46,
          "name": "A#2",
          "ticks": 15940,
          "time": 21.84734739583333,
          "velocity": 0.49606299212598426
        },
        {
          "duration": 0.005482395833332987,
          "durationTicks": 4,
          "midi": 70,
          "name": "A#4",
          "ticks": 16032,
          "time": 21.973442499999997,
          "velocity": 0.6692913385826772
        },
        {
          "duration": 0.005482395833332987,
          "durationTicks": 4,
          "midi": 35,
          "name": "B1",
          "ticks": 16128,
          "time": 22.105019999999996,
          "velocity": 0.8976377952755905
        },
        {
          "duration": 0.005482395833332987,
          "durationTicks": 4,
          "midi": 60,
          "name": "C4",
          "ticks": 16128,
          "time": 22.105019999999996,
          "velocity": 0.3858267716535433
        },
        {
          "duration": 0.00548239583333654,
          "durationTicks": 4,
          "midi": 40,
          "name": "E2",
          "ticks": 16132,
          "time": 22.11050239583333,
          "velocity": 0.8661417322834646
        },
        {
          "duration": 0.00548239583333654,
          "durationTicks": 4,
          "midi": 44,
          "name": "G#2",
          "ticks": 16132,
          "time": 22.11050239583333,
          "velocity": 0.49606299212598426
        },
        {
          "duration": 0.005482395833332987,
          "durationTicks": 4,
          "midi": 39,
          "name": "D#2",
          "ticks": 16136,
          "time": 22.115984791666666,
          "velocity": 0.7480314960629921
        },
        {
          "duration": 0.005482395833332987,
          "durationTicks": 4,
          "midi": 70,
          "name": "A#4",
          "ticks": 16320,
          "time": 22.368174999999997,
          "velocity": 0.7795275590551181
        },
        {
          "duration": 0.00548239583333654,
          "durationTicks": 4,
          "midi": 46,
          "name": "A#2",
          "ticks": 16324,
          "time": 22.37365739583333,
          "velocity": 0.49606299212598426
        },
        {
          "duration": 0.005482395833332987,
          "durationTicks": 4,
          "midi": 60,
          "name": "C4",
          "ticks": 16416,
          "time": 22.499752499999996,
          "velocity": 0.31496062992125984
        },
        {
          "duration": 0.005482395833332987,
          "durationTicks": 4,
          "midi": 35,
          "name": "B1",
          "ticks": 16512,
          "time": 22.63133,
          "velocity": 0.8976377952755905
        },
        {
          "duration": 0.005482395833332987,
          "durationTicks": 4,
          "midi": 40,
          "name": "E2",
          "ticks": 16516,
          "time": 22.63681239583333,
          "velocity": 0.8976377952755905
        },
        {
          "duration": 0.005482395833332987,
          "durationTicks": 4,
          "midi": 44,
          "name": "G#2",
          "ticks": 16516,
          "time": 22.63681239583333,
          "velocity": 0.5275590551181102
        },
        {
          "duration": 0.005482395833332987,
          "durationTicks": 4,
          "midi": 39,
          "name": "D#2",
          "ticks": 16520,
          "time": 22.642294791666664,
          "velocity": 0.7795275590551181
        },
        {
          "duration": 0.005482395833332987,
          "durationTicks": 4,
          "midi": 60,
          "name": "C4",
          "ticks": 16608,
          "time": 22.762907499999997,
          "velocity": 0.31496062992125984
        },
        {
          "duration": 0.00548239583333654,
          "durationTicks": 4,
          "midi": 40,
          "name": "E2",
          "ticks": 16612,
          "time": 22.76838989583333,
          "velocity": 0.8661417322834646
        },
        {
          "duration": 0.005482395833329434,
          "durationTicks": 4,
          "midi": 39,
          "name": "D#2",
          "ticks": 16616,
          "time": 22.773872291666667,
          "velocity": 0.7480314960629921
        },
        {
          "duration": 0.005482395833332987,
          "durationTicks": 4,
          "midi": 70,
          "name": "A#4",
          "ticks": 16704,
          "time": 22.894484999999996,
          "velocity": 0.6377952755905512
        },
        {
          "duration": 0.005482395833332987,
          "durationTicks": 4,
          "midi": 63,
          "name": "D#4",
          "ticks": 16704,
          "time": 22.894484999999996,
          "velocity": 0.3858267716535433
        },
        {
          "duration": 0.00548239583333654,
          "durationTicks": 4,
          "midi": 46,
          "name": "A#2",
          "ticks": 16708,
          "time": 22.89996739583333,
          "velocity": 0.5275590551181102
        },
        {
          "duration": 0.005482395833332987,
          "durationTicks": 4,
          "midi": 70,
          "name": "A#4",
          "ticks": 16800,
          "time": 23.0260625,
          "velocity": 0.7795275590551181
        },
        {
          "duration": 0.005482395833332987,
          "durationTicks": 4,
          "midi": 35,
          "name": "B1",
          "ticks": 16896,
          "time": 23.157639999999997,
          "velocity": 0.8661417322834646
        },
        {
          "duration": 0.005482395833332987,
          "durationTicks": 4,
          "midi": 69,
          "name": "A4",
          "ticks": 16896,
          "time": 23.157639999999997,
          "velocity": 0.5826771653543307
        },
        {
          "duration": 0.005482395833332987,
          "durationTicks": 4,
          "midi": 60,
          "name": "C4",
          "ticks": 16896,
          "time": 23.157639999999997,
          "velocity": 0.4251968503937008
        },
        {
          "duration": 0.00548239583333654,
          "durationTicks": 4,
          "midi": 44,
          "name": "G#2",
          "ticks": 16900,
          "time": 23.16312239583333,
          "velocity": 0.5984251968503937
        },
        {
          "duration": 0.005482395833329434,
          "durationTicks": 4,
          "midi": 69,
          "name": "A4",
          "ticks": 16988,
          "time": 23.283735104166666,
          "velocity": 0.2204724409448819
        },
        {
          "duration": 0.005482395833332987,
          "durationTicks": 4,
          "midi": 69,
          "name": "A4",
          "ticks": 17072,
          "time": 23.398865416666666,
          "velocity": 0.8031496062992126
        },
        {
          "duration": 0.005482395833332987,
          "durationTicks": 4,
          "midi": 70,
          "name": "A#4",
          "ticks": 17088,
          "time": 23.420795,
          "velocity": 0.7795275590551181
        },
        {
          "duration": 0.005482395833332987,
          "durationTicks": 4,
          "midi": 46,
          "name": "A#2",
          "ticks": 17092,
          "time": 23.42627739583333,
          "velocity": 0.49606299212598426
        },
        {
          "duration": 0.005482395833332987,
          "durationTicks": 4,
          "midi": 69,
          "name": "A4",
          "ticks": 17168,
          "time": 23.530442916666665,
          "velocity": 0.8031496062992126
        },
        {
          "duration": 0.005482395833332987,
          "durationTicks": 4,
          "midi": 60,
          "name": "C4",
          "ticks": 17184,
          "time": 23.552372499999997,
          "velocity": 0.4251968503937008
        },
        {
          "duration": 0.005482395833332987,
          "durationTicks": 4,
          "midi": 35,
          "name": "B1",
          "ticks": 17280,
          "time": 23.683949999999996,
          "velocity": 0.8976377952755905
        },
        {
          "duration": 0.00548239583333654,
          "durationTicks": 4,
          "midi": 40,
          "name": "E2",
          "ticks": 17284,
          "time": 23.68943239583333,
          "velocity": 0.8661417322834646
        },
        {
          "duration": 0.00548239583333654,
          "durationTicks": 4,
          "midi": 44,
          "name": "G#2",
          "ticks": 17284,
          "time": 23.68943239583333,
          "velocity": 0.47244094488188976
        },
        {
          "duration": 0.005482395833332987,
          "durationTicks": 4,
          "midi": 39,
          "name": "D#2",
          "ticks": 17288,
          "time": 23.694914791666665,
          "velocity": 0.7480314960629921
        },
        {
          "duration": 0.005482395833332987,
          "durationTicks": 4,
          "midi": 60,
          "name": "C4",
          "ticks": 17376,
          "time": 23.815527499999998,
          "velocity": 0.33858267716535434
        },
        {
          "duration": 0.005482395833332987,
          "durationTicks": 4,
          "midi": 70,
          "name": "A#4",
          "ticks": 17472,
          "time": 23.947104999999997,
          "velocity": 0.6377952755905512
        },
        {
          "duration": 0.005482395833332987,
          "durationTicks": 4,
          "midi": 63,
          "name": "D#4",
          "ticks": 17472,
          "time": 23.947104999999997,
          "velocity": 0.3858267716535433
        },
        {
          "duration": 0.005482395833332987,
          "durationTicks": 4,
          "midi": 70,
          "name": "A#4",
          "ticks": 17568,
          "time": 24.078682499999996,
          "velocity": 0.7795275590551181
        },
        {
          "duration": 0.005482395833332987,
          "durationTicks": 4,
          "midi": 35,
          "name": "B1",
          "ticks": 17664,
          "time": 24.210259999999998,
          "velocity": 0.8661417322834646
        },
        {
          "duration": 0.005482395833332987,
          "durationTicks": 4,
          "midi": 60,
          "name": "C4",
          "ticks": 17664,
          "time": 24.210259999999998,
          "velocity": 0.4251968503937008
        },
        {
          "duration": 0.005482395833332987,
          "durationTicks": 4,
          "midi": 70,
          "name": "A#4",
          "ticks": 17856,
          "time": 24.473414999999996,
          "velocity": 0.7401574803149606
        },
        {
          "duration": 0.00548239583333654,
          "durationTicks": 4,
          "midi": 46,
          "name": "A#2",
          "ticks": 17860,
          "time": 24.47889739583333,
          "velocity": 0.5275590551181102
        },
        {
          "duration": 0.005482395833332987,
          "durationTicks": 4,
          "midi": 60,
          "name": "C4",
          "ticks": 17952,
          "time": 24.604992499999998,
          "velocity": 0.33858267716535434
        },
        {
          "duration": 0.005482395833332987,
          "durationTicks": 4,
          "midi": 35,
          "name": "B1",
          "ticks": 18048,
          "time": 24.736569999999997,
          "velocity": 0.8976377952755905
        },
        {
          "duration": 0.00548239583333654,
          "durationTicks": 4,
          "midi": 40,
          "name": "E2",
          "ticks": 18052,
          "time": 24.74205239583333,
          "velocity": 0.8661417322834646
        },
        {
          "duration": 0.00548239583333654,
          "durationTicks": 4,
          "midi": 44,
          "name": "G#2",
          "ticks": 18052,
          "time": 24.74205239583333,
          "velocity": 0.5275590551181102
        },
        {
          "duration": 0.005482395833329434,
          "durationTicks": 4,
          "midi": 39,
          "name": "D#2",
          "ticks": 18056,
          "time": 24.747534791666666,
          "velocity": 0.7480314960629921
        },
        {
          "duration": 0.005482395833332987,
          "durationTicks": 4,
          "midi": 60,
          "name": "C4",
          "ticks": 18144,
          "time": 24.868147499999996,
          "velocity": 0.3858267716535433
        },
        {
          "duration": 0.005482395833332987,
          "durationTicks": 4,
          "midi": 70,
          "name": "A#4",
          "ticks": 18240,
          "time": 24.999724999999998,
          "velocity": 0.7401574803149606
        },
        {
          "duration": 0.005482395833332987,
          "durationTicks": 4,
          "midi": 63,
          "name": "D#4",
          "ticks": 18240,
          "time": 24.999724999999998,
          "velocity": 0.4251968503937008
        },
        {
          "duration": 0.005482395833332987,
          "durationTicks": 4,
          "midi": 46,
          "name": "A#2",
          "ticks": 18244,
          "time": 25.00520739583333,
          "velocity": 0.49606299212598426
        },
        {
          "duration": 0.005482395833332987,
          "durationTicks": 4,
          "midi": 35,
          "name": "B1",
          "ticks": 18432,
          "time": 25.262879999999996,
          "velocity": 0.8661417322834646
        },
        {
          "duration": 0.005482395833332987,
          "durationTicks": 4,
          "midi": 60,
          "name": "C4",
          "ticks": 18432,
          "time": 25.262879999999996,
          "velocity": 0.4251968503937008
        },
        {
          "duration": 0.00548239583333654,
          "durationTicks": 4,
          "midi": 44,
          "name": "G#2",
          "ticks": 18436,
          "time": 25.26836239583333,
          "velocity": 0.49606299212598426
        },
        {
          "duration": 0.005482395833332987,
          "durationTicks": 4,
          "midi": 70,
          "name": "A#4",
          "ticks": 18624,
          "time": 25.526034999999997,
          "velocity": 0.7401574803149606
        },
        {
          "duration": 0.00548239583333654,
          "durationTicks": 4,
          "midi": 46,
          "name": "A#2",
          "ticks": 18628,
          "time": 25.53151739583333,
          "velocity": 0.47244094488188976
        },
        {
          "duration": 0.005482395833329434,
          "durationTicks": 4,
          "midi": 60,
          "name": "C4",
          "ticks": 18720,
          "time": 25.6576125,
          "velocity": 0.25984251968503935
        },
        {
          "duration": 0.005482395833332987,
          "durationTicks": 4,
          "midi": 35,
          "name": "B1",
          "ticks": 18816,
          "time": 25.789189999999998,
          "velocity": 0.8661417322834646
        },
        {
          "duration": 0.005482395833332987,
          "durationTicks": 4,
          "midi": 40,
          "name": "E2",
          "ticks": 18820,
          "time": 25.79467239583333,
          "velocity": 0.8661417322834646
        },
        {
          "duration": 0.005482395833332987,
          "durationTicks": 4,
          "midi": 44,
          "name": "G#2",
          "ticks": 18820,
          "time": 25.79467239583333,
          "velocity": 0.49606299212598426
        },
        {
          "duration": 0.005482395833332987,
          "durationTicks": 4,
          "midi": 39,
          "name": "D#2",
          "ticks": 18824,
          "time": 25.800154791666664,
          "velocity": 0.7480314960629921
        },
        {
          "duration": 0.005482395833332987,
          "durationTicks": 4,
          "midi": 60,
          "name": "C4",
          "ticks": 18912,
          "time": 25.920767499999997,
          "velocity": 0.28346456692913385
        },
        {
          "duration": 0.005482395833329434,
          "durationTicks": 4,
          "midi": 70,
          "name": "A#4",
          "ticks": 19008,
          "time": 26.052345,
          "velocity": 0.6141732283464567
        },
        {
          "duration": 0.005482395833329434,
          "durationTicks": 4,
          "midi": 63,
          "name": "D#4",
          "ticks": 19008,
          "time": 26.052345,
          "velocity": 0.3858267716535433
        },
        {
          "duration": 0.00548239583333654,
          "durationTicks": 4,
          "midi": 46,
          "name": "A#2",
          "ticks": 19012,
          "time": 26.05782739583333,
          "velocity": 0.4251968503937008
        },
        {
          "duration": 0.005482395833332987,
          "durationTicks": 4,
          "midi": 70,
          "name": "A#4",
          "ticks": 19104,
          "time": 26.183922499999998,
          "velocity": 0.7401574803149606
        },
        {
          "duration": 0.005482395833332987,
          "durationTicks": 4,
          "midi": 35,
          "name": "B1",
          "ticks": 19200,
          "time": 26.315499999999997,
          "velocity": 0.8661417322834646
        },
        {
          "duration": 0.005482395833332987,
          "durationTicks": 4,
          "midi": 60,
          "name": "C4",
          "ticks": 19200,
          "time": 26.315499999999997,
          "velocity": 0.4251968503937008
        },
        {
          "duration": 0.00548239583333654,
          "durationTicks": 4,
          "midi": 44,
          "name": "G#2",
          "ticks": 19204,
          "time": 26.32098239583333,
          "velocity": 0.49606299212598426
        },
        {
          "duration": 0.005482395833332987,
          "durationTicks": 4,
          "midi": 70,
          "name": "A#4",
          "ticks": 19392,
          "time": 26.578654999999998,
          "velocity": 0.7401574803149606
        },
        {
          "duration": 0.005482395833332987,
          "durationTicks": 4,
          "midi": 46,
          "name": "A#2",
          "ticks": 19396,
          "time": 26.58413739583333,
          "velocity": 0.4251968503937008
        },
        {
          "duration": 0.005482395833332987,
          "durationTicks": 4,
          "midi": 60,
          "name": "C4",
          "ticks": 19488,
          "time": 26.710232499999996,
          "velocity": 0.33858267716535434
        },
        {
          "duration": 0.005482395833329434,
          "durationTicks": 4,
          "midi": 35,
          "name": "B1",
          "ticks": 19584,
          "time": 26.84181,
          "velocity": 0.8976377952755905
        },
        {
          "duration": 0.00548239583333654,
          "durationTicks": 4,
          "midi": 40,
          "name": "E2",
          "ticks": 19588,
          "time": 26.84729239583333,
          "velocity": 0.8661417322834646
        },
        {
          "duration": 0.00548239583333654,
          "durationTicks": 4,
          "midi": 44,
          "name": "G#2",
          "ticks": 19588,
          "time": 26.84729239583333,
          "velocity": 0.49606299212598426
        },
        {
          "duration": 0.005482395833332987,
          "durationTicks": 4,
          "midi": 39,
          "name": "D#2",
          "ticks": 19592,
          "time": 26.852774791666665,
          "velocity": 0.7480314960629921
        },
        {
          "duration": 0.005482395833332987,
          "durationTicks": 4,
          "midi": 60,
          "name": "C4",
          "ticks": 19680,
          "time": 26.973387499999998,
          "velocity": 0.31496062992125984
        },
        {
          "duration": 0.005482395833332987,
          "durationTicks": 4,
          "midi": 70,
          "name": "A#4",
          "ticks": 19776,
          "time": 27.104964999999996,
          "velocity": 0.6141732283464567
        },
        {
          "duration": 0.005482395833332987,
          "durationTicks": 4,
          "midi": 63,
          "name": "D#4",
          "ticks": 19776,
          "time": 27.104964999999996,
          "velocity": 0.3858267716535433
        },
        {
          "duration": 0.00548239583333654,
          "durationTicks": 4,
          "midi": 46,
          "name": "A#2",
          "ticks": 19780,
          "time": 27.11044739583333,
          "velocity": 0.47244094488188976
        },
        {
          "duration": 0.005482395833329434,
          "durationTicks": 4,
          "midi": 70,
          "name": "A#4",
          "ticks": 19872,
          "time": 27.2365425,
          "velocity": 0.7795275590551181
        },
        {
          "duration": 0.005482395833332987,
          "durationTicks": 4,
          "midi": 35,
          "name": "B1",
          "ticks": 19968,
          "time": 27.368119999999998,
          "velocity": 0.8976377952755905
        },
        {
          "duration": 0.005482395833332987,
          "durationTicks": 4,
          "midi": 69,
          "name": "A4",
          "ticks": 19968,
          "time": 27.368119999999998,
          "velocity": 0.5826771653543307
        },
        {
          "duration": 0.005482395833332987,
          "durationTicks": 4,
          "midi": 60,
          "name": "C4",
          "ticks": 19968,
          "time": 27.368119999999998,
          "velocity": 0.4251968503937008
        },
        {
          "duration": 0.005482395833332987,
          "durationTicks": 4,
          "midi": 44,
          "name": "G#2",
          "ticks": 19972,
          "time": 27.37360239583333,
          "velocity": 0.49606299212598426
        },
        {
          "duration": 0.005482395833332987,
          "durationTicks": 4,
          "midi": 69,
          "name": "A4",
          "ticks": 20060,
          "time": 27.494215104166663,
          "velocity": 0.2204724409448819
        },
        {
          "duration": 0.005482395833329434,
          "durationTicks": 4,
          "midi": 69,
          "name": "A4",
          "ticks": 20144,
          "time": 27.609345416666667,
          "velocity": 0.8031496062992126
        },
        {
          "duration": 0.005482395833329434,
          "durationTicks": 4,
          "midi": 70,
          "name": "A#4",
          "ticks": 20160,
          "time": 27.631275,
          "velocity": 0.7401574803149606
        },
        {
          "duration": 0.00548239583333654,
          "durationTicks": 4,
          "midi": 46,
          "name": "A#2",
          "ticks": 20164,
          "time": 27.636757395833328,
          "velocity": 0.5275590551181102
        },
        {
          "duration": 0.005482395833332987,
          "durationTicks": 4,
          "midi": 69,
          "name": "A4",
          "ticks": 20240,
          "time": 27.740922916666666,
          "velocity": 0.8031496062992126
        },
        {
          "duration": 0.005482395833332987,
          "durationTicks": 4,
          "midi": 60,
          "name": "C4",
          "ticks": 20256,
          "time": 27.762852499999997,
          "velocity": 0.33858267716535434
        },
        {
          "duration": 0.005482395833332987,
          "durationTicks": 4,
          "midi": 35,
          "name": "B1",
          "ticks": 20352,
          "time": 27.894429999999996,
          "velocity": 0.8976377952755905
        },
        {
          "duration": 0.00548239583333654,
          "durationTicks": 4,
          "midi": 40,
          "name": "E2",
          "ticks": 20356,
          "time": 27.89991239583333,
          "velocity": 0.8976377952755905
        },
        {
          "duration": 0.00548239583333654,
          "durationTicks": 4,
          "midi": 44,
          "name": "G#2",
          "ticks": 20356,
          "time": 27.89991239583333,
          "velocity": 0.5984251968503937
        },
        {
          "duration": 0.005482395833332987,
          "durationTicks": 4,
          "midi": 39,
          "name": "D#2",
          "ticks": 20360,
          "time": 27.905394791666666,
          "velocity": 0.7795275590551181
        },
        {
          "duration": 0.005482395833329434,
          "durationTicks": 4,
          "midi": 60,
          "name": "C4",
          "ticks": 20448,
          "time": 28.0260075,
          "velocity": 0.31496062992125984
        },
        {
          "duration": 0.005482395833332987,
          "durationTicks": 4,
          "midi": 70,
          "name": "A#4",
          "ticks": 20544,
          "time": 28.157584999999997,
          "velocity": 0.5669291338582677
        },
        {
          "duration": 0.005482395833332987,
          "durationTicks": 4,
          "midi": 63,
          "name": "D#4",
          "ticks": 20544,
          "time": 28.157584999999997,
          "velocity": 0.31496062992125984
        },
        {
          "duration": 0.005482395833332987,
          "durationTicks": 4,
          "midi": 70,
          "name": "A#4",
          "ticks": 20640,
          "time": 28.289162499999996,
          "velocity": 0.6692913385826772
        },
        {
          "duration": 0.005482395833329434,
          "durationTicks": 4,
          "midi": 35,
          "name": "B1",
          "ticks": 20736,
          "time": 28.42074,
          "velocity": 0.8661417322834646
        },
        {
          "duration": 0.005482395833329434,
          "durationTicks": 4,
          "midi": 60,
          "name": "C4",
          "ticks": 20736,
          "time": 28.42074,
          "velocity": 0.4251968503937008
        },
        {
          "duration": 0.005482395833332987,
          "durationTicks": 4,
          "midi": 70,
          "name": "A#4",
          "ticks": 20928,
          "time": 28.683894999999996,
          "velocity": 0.7401574803149606
        },
        {
          "duration": 0.00548239583333654,
          "durationTicks": 4,
          "midi": 46,
          "name": "A#2",
          "ticks": 20932,
          "time": 28.68937739583333,
          "velocity": 0.49606299212598426
        },
        {
          "duration": 0.005482395833329434,
          "durationTicks": 4,
          "midi": 60,
          "name": "C4",
          "ticks": 21024,
          "time": 28.8154725,
          "velocity": 0.31496062992125984
        },
        {
          "duration": 0.005482395833332987,
          "durationTicks": 4,
          "midi": 35,
          "name": "B1",
          "ticks": 21120,
          "time": 28.947049999999997,
          "velocity": 0.8976377952755905
        },
        {
          "duration": 0.005482395833332987,
          "durationTicks": 4,
          "midi": 40,
          "name": "E2",
          "ticks": 21124,
          "time": 28.95253239583333,
          "velocity": 0.8976377952755905
        },
        {
          "duration": 0.005482395833332987,
          "durationTicks": 4,
          "midi": 44,
          "name": "G#2",
          "ticks": 21124,
          "time": 28.95253239583333,
          "velocity": 0.49606299212598426
        },
        {
          "duration": 0.005482395833332987,
          "durationTicks": 4,
          "midi": 39,
          "name": "D#2",
          "ticks": 21128,
          "time": 28.958014791666663,
          "velocity": 0.7795275590551181
        },
        {
          "duration": 0.005482395833332987,
          "durationTicks": 4,
          "midi": 60,
          "name": "C4",
          "ticks": 21216,
          "time": 29.078627499999996,
          "velocity": 0.33858267716535434
        },
        {
          "duration": 0.005482395833329434,
          "durationTicks": 4,
          "midi": 70,
          "name": "A#4",
          "ticks": 21312,
          "time": 29.210205,
          "velocity": 0.7401574803149606
        },
        {
          "duration": 0.005482395833329434,
          "durationTicks": 4,
          "midi": 63,
          "name": "D#4",
          "ticks": 21312,
          "time": 29.210205,
          "velocity": 0.4251968503937008
        },
        {
          "duration": 0.00548239583333654,
          "durationTicks": 4,
          "midi": 46,
          "name": "A#2",
          "ticks": 21316,
          "time": 29.215687395833328,
          "velocity": 0.49606299212598426
        },
        {
          "duration": 0.005482395833332987,
          "durationTicks": 4,
          "midi": 35,
          "name": "B1",
          "ticks": 21504,
          "time": 29.473359999999996,
          "velocity": 0.8976377952755905
        },
        {
          "duration": 0.005482395833332987,
          "durationTicks": 4,
          "midi": 60,
          "name": "C4",
          "ticks": 21504,
          "time": 29.473359999999996,
          "velocity": 0.3858267716535433
        },
        {
          "duration": 0.00548239583333654,
          "durationTicks": 4,
          "midi": 44,
          "name": "G#2",
          "ticks": 21508,
          "time": 29.47884239583333,
          "velocity": 0.5275590551181102
        },
        {
          "duration": 0.005482395833332987,
          "durationTicks": 4,
          "midi": 70,
          "name": "A#4",
          "ticks": 21696,
          "time": 29.736514999999997,
          "velocity": 0.7795275590551181
        },
        {
          "duration": 0.005482395833332987,
          "durationTicks": 4,
          "midi": 46,
          "name": "A#2",
          "ticks": 21700,
          "time": 29.74199739583333,
          "velocity": 0.49606299212598426
        },
        {
          "duration": 0.005482395833332987,
          "durationTicks": 4,
          "midi": 60,
          "name": "C4",
          "ticks": 21792,
          "time": 29.868092499999996,
          "velocity": 0.31496062992125984
        },
        {
          "duration": 0.005482395833329434,
          "durationTicks": 4,
          "midi": 35,
          "name": "B1",
          "ticks": 21888,
          "time": 29.99967,
          "velocity": 0.8661417322834646
        },
        {
          "duration": 0.00548239583333654,
          "durationTicks": 4,
          "midi": 40,
          "name": "E2",
          "ticks": 21892,
          "time": 30.005152395833328,
          "velocity": 0.8976377952755905
        },
        {
          "duration": 0.00548239583333654,
          "durationTicks": 4,
          "midi": 44,
          "name": "G#2",
          "ticks": 21892,
          "time": 30.005152395833328,
          "velocity": 0.49606299212598426
        },
        {
          "duration": 0.005482395833332987,
          "durationTicks": 4,
          "midi": 39,
          "name": "D#2",
          "ticks": 21896,
          "time": 30.010634791666664,
          "velocity": 0.7795275590551181
        },
        {
          "duration": 0.005482395833332987,
          "durationTicks": 4,
          "midi": 60,
          "name": "C4",
          "ticks": 21984,
          "time": 30.131247499999997,
          "velocity": 0.33858267716535434
        },
        {
          "duration": 0.005482395833332987,
          "durationTicks": 4,
          "midi": 70,
          "name": "A#4",
          "ticks": 22080,
          "time": 30.262824999999996,
          "velocity": 0.6141732283464567
        },
        {
          "duration": 0.005482395833332987,
          "durationTicks": 4,
          "midi": 63,
          "name": "D#4",
          "ticks": 22080,
          "time": 30.262824999999996,
          "velocity": 0.31496062992125984
        },
        {
          "duration": 0.00548239583333654,
          "durationTicks": 4,
          "midi": 46,
          "name": "A#2",
          "ticks": 22084,
          "time": 30.26830739583333,
          "velocity": 0.49606299212598426
        },
        {
          "duration": 0.005482395833329434,
          "durationTicks": 4,
          "midi": 70,
          "name": "A#4",
          "ticks": 22176,
          "time": 30.394402499999998,
          "velocity": 0.6692913385826772
        },
        {
          "duration": 0.005482395833332987,
          "durationTicks": 4,
          "midi": 35,
          "name": "B1",
          "ticks": 22272,
          "time": 30.525979999999997,
          "velocity": 0.8976377952755905
        },
        {
          "duration": 0.005482395833332987,
          "durationTicks": 4,
          "midi": 60,
          "name": "C4",
          "ticks": 22272,
          "time": 30.525979999999997,
          "velocity": 0.3858267716535433
        },
        {
          "duration": 0.005482395833332987,
          "durationTicks": 4,
          "midi": 44,
          "name": "G#2",
          "ticks": 22276,
          "time": 30.53146239583333,
          "velocity": 0.49606299212598426
        },
        {
          "duration": 0.005482395833329434,
          "durationTicks": 4,
          "midi": 70,
          "name": "A#4",
          "ticks": 22464,
          "time": 30.789134999999998,
          "velocity": 0.7795275590551181
        },
        {
          "duration": 0.00548239583333654,
          "durationTicks": 4,
          "midi": 46,
          "name": "A#2",
          "ticks": 22468,
          "time": 30.794617395833328,
          "velocity": 0.49606299212598426
        },
        {
          "duration": 0.005482395833332987,
          "durationTicks": 4,
          "midi": 60,
          "name": "C4",
          "ticks": 22560,
          "time": 30.920712499999997,
          "velocity": 0.31496062992125984
        },
        {
          "duration": 0.005482395833332987,
          "durationTicks": 4,
          "midi": 35,
          "name": "B1",
          "ticks": 22656,
          "time": 31.052289999999996,
          "velocity": 0.8976377952755905
        },
        {
          "duration": 0.00548239583333654,
          "durationTicks": 4,
          "midi": 40,
          "name": "E2",
          "ticks": 22660,
          "time": 31.05777239583333,
          "velocity": 0.8976377952755905
        },
        {
          "duration": 0.00548239583333654,
          "durationTicks": 4,
          "midi": 44,
          "name": "G#2",
          "ticks": 22660,
          "time": 31.05777239583333,
          "velocity": 0.5275590551181102
        },
        {
          "duration": 0.005482395833332987,
          "durationTicks": 4,
          "midi": 39,
          "name": "D#2",
          "ticks": 22664,
          "time": 31.063254791666665,
          "velocity": 0.7795275590551181
        },
        {
          "duration": 0.005482395833329434,
          "durationTicks": 4,
          "midi": 60,
          "name": "C4",
          "ticks": 22752,
          "time": 31.183867499999998,
          "velocity": 0.31496062992125984
        },
        {
          "duration": 0.005482395833332987,
          "durationTicks": 4,
          "midi": 70,
          "name": "A#4",
          "ticks": 22848,
          "time": 31.315444999999997,
          "velocity": 0.6377952755905512
        },
        {
          "duration": 0.005482395833332987,
          "durationTicks": 4,
          "midi": 63,
          "name": "D#4",
          "ticks": 22848,
          "time": 31.315444999999997,
          "velocity": 0.3858267716535433
        },
        {
          "duration": 0.005482395833332987,
          "durationTicks": 4,
          "midi": 46,
          "name": "A#2",
          "ticks": 22852,
          "time": 31.32092739583333,
          "velocity": 0.5275590551181102
        },
        {
          "duration": 0.005482395833332987,
          "durationTicks": 4,
          "midi": 70,
          "name": "A#4",
          "ticks": 22944,
          "time": 31.447022499999996,
          "velocity": 0.7795275590551181
        },
        {
          "duration": 0.005482395833329434,
          "durationTicks": 4,
          "midi": 35,
          "name": "B1",
          "ticks": 23040,
          "time": 31.578599999999998,
          "velocity": 0.8661417322834646
        },
        {
          "duration": 0.005482395833329434,
          "durationTicks": 4,
          "midi": 69,
          "name": "A4",
          "ticks": 23040,
          "time": 31.578599999999998,
          "velocity": 0.5826771653543307
        },
        {
          "duration": 0.005482395833329434,
          "durationTicks": 4,
          "midi": 60,
          "name": "C4",
          "ticks": 23040,
          "time": 31.578599999999998,
          "velocity": 0.4251968503937008
        },
        {
          "duration": 0.00548239583333654,
          "durationTicks": 4,
          "midi": 44,
          "name": "G#2",
          "ticks": 23044,
          "time": 31.584082395833327,
          "velocity": 0.5984251968503937
        },
        {
          "duration": 0.005482395833332987,
          "durationTicks": 4,
          "midi": 69,
          "name": "A4",
          "ticks": 23132,
          "time": 31.704695104166664,
          "velocity": 0.2204724409448819
        },
        {
          "duration": 0.005482395833332987,
          "durationTicks": 4,
          "midi": 69,
          "name": "A4",
          "ticks": 23216,
          "time": 31.819825416666664,
          "velocity": 0.8031496062992126
        },
        {
          "duration": 0.005482395833332987,
          "durationTicks": 4,
          "midi": 70,
          "name": "A#4",
          "ticks": 23232,
          "time": 31.841754999999996,
          "velocity": 0.7795275590551181
        },
        {
          "duration": 0.00548239583333654,
          "durationTicks": 4,
          "midi": 46,
          "name": "A#2",
          "ticks": 23236,
          "time": 31.84723739583333,
          "velocity": 0.49606299212598426
        },
        {
          "duration": 0.005482395833329434,
          "durationTicks": 4,
          "midi": 69,
          "name": "A4",
          "ticks": 23312,
          "time": 31.951402916666666,
          "velocity": 0.8031496062992126
        },
        {
          "duration": 0.005482395833329434,
          "durationTicks": 4,
          "midi": 60,
          "name": "C4",
          "ticks": 23328,
          "time": 31.973332499999998,
          "velocity": 0.4251968503937008
        },
        {
          "duration": 0.005482395833332987,
          "durationTicks": 4,
          "midi": 35,
          "name": "B1",
          "ticks": 23424,
          "time": 32.10491,
          "velocity": 0.8976377952755905
        },
        {
          "duration": 0.005482395833332987,
          "durationTicks": 4,
          "midi": 40,
          "name": "E2",
          "ticks": 23428,
          "time": 32.11039239583333,
          "velocity": 0.8661417322834646
        },
        {
          "duration": 0.005482395833332987,
          "durationTicks": 4,
          "midi": 44,
          "name": "G#2",
          "ticks": 23428,
          "time": 32.11039239583333,
          "velocity": 0.47244094488188976
        },
        {
          "duration": 0.005482395833332987,
          "durationTicks": 4,
          "midi": 39,
          "name": "D#2",
          "ticks": 23432,
          "time": 32.11587479166666,
          "velocity": 0.7480314960629921
        },
        {
          "duration": 0.005482395833332987,
          "durationTicks": 4,
          "midi": 60,
          "name": "C4",
          "ticks": 23520,
          "time": 32.236487499999996,
          "velocity": 0.33858267716535434
        },
        {
          "duration": 0.005482395833332987,
          "durationTicks": 4,
          "midi": 70,
          "name": "A#4",
          "ticks": 23616,
          "time": 32.368064999999994,
          "velocity": 0.6377952755905512
        },
        {
          "duration": 0.005482395833332987,
          "durationTicks": 4,
          "midi": 63,
          "name": "D#4",
          "ticks": 23616,
          "time": 32.368064999999994,
          "velocity": 0.3858267716535433
        },
        {
          "duration": 0.005482395833332987,
          "durationTicks": 4,
          "midi": 70,
          "name": "A#4",
          "ticks": 23712,
          "time": 32.49964249999999,
          "velocity": 0.7795275590551181
        },
        {
          "duration": 0.005482395833332987,
          "durationTicks": 4,
          "midi": 35,
          "name": "B1",
          "ticks": 23808,
          "time": 32.63122,
          "velocity": 0.8661417322834646
        },
        {
          "duration": 0.005482395833332987,
          "durationTicks": 4,
          "midi": 60,
          "name": "C4",
          "ticks": 23808,
          "time": 32.63122,
          "velocity": 0.4251968503937008
        },
        {
          "duration": 0.005482395833332987,
          "durationTicks": 4,
          "midi": 70,
          "name": "A#4",
          "ticks": 24000,
          "time": 32.894375,
          "velocity": 0.7401574803149606
        },
        {
          "duration": 0.005482395833332987,
          "durationTicks": 4,
          "midi": 46,
          "name": "A#2",
          "ticks": 24004,
          "time": 32.89985739583333,
          "velocity": 0.5275590551181102
        },
        {
          "duration": 0.005482395833332987,
          "durationTicks": 4,
          "midi": 60,
          "name": "C4",
          "ticks": 24096,
          "time": 33.025952499999995,
          "velocity": 0.33858267716535434
        },
        {
          "duration": 0.005482395833332987,
          "durationTicks": 4,
          "midi": 35,
          "name": "B1",
          "ticks": 24192,
          "time": 33.157529999999994,
          "velocity": 0.8976377952755905
        },
        {
          "duration": 0.005482395833340092,
          "durationTicks": 4,
          "midi": 40,
          "name": "E2",
          "ticks": 24196,
          "time": 33.16301239583333,
          "velocity": 0.8661417322834646
        },
        {
          "duration": 0.005482395833340092,
          "durationTicks": 4,
          "midi": 44,
          "name": "G#2",
          "ticks": 24196,
          "time": 33.16301239583333,
          "velocity": 0.5275590551181102
        },
        {
          "duration": 0.0054823958333258815,
          "durationTicks": 4,
          "midi": 39,
          "name": "D#2",
          "ticks": 24200,
          "time": 33.16849479166667,
          "velocity": 0.7480314960629921
        },
        {
          "duration": 0.005482395833332987,
          "durationTicks": 4,
          "midi": 60,
          "name": "C4",
          "ticks": 24288,
          "time": 33.28910749999999,
          "velocity": 0.3858267716535433
        },
        {
          "duration": 0.005482395833332987,
          "durationTicks": 4,
          "midi": 70,
          "name": "A#4",
          "ticks": 24384,
          "time": 33.420685,
          "velocity": 0.7401574803149606
        },
        {
          "duration": 0.005482395833332987,
          "durationTicks": 4,
          "midi": 63,
          "name": "D#4",
          "ticks": 24384,
          "time": 33.420685,
          "velocity": 0.4251968503937008
        },
        {
          "duration": 0.005482395833332987,
          "durationTicks": 4,
          "midi": 46,
          "name": "A#2",
          "ticks": 24388,
          "time": 33.42616739583333,
          "velocity": 0.49606299212598426
        },
        {
          "duration": 0.005482395833332987,
          "durationTicks": 4,
          "midi": 35,
          "name": "B1",
          "ticks": 24576,
          "time": 33.68384,
          "velocity": 0.8661417322834646
        },
        {
          "duration": 0.005482395833332987,
          "durationTicks": 4,
          "midi": 60,
          "name": "C4",
          "ticks": 24576,
          "time": 33.68384,
          "velocity": 0.4251968503937008
        },
        {
          "duration": 0.005482395833332987,
          "durationTicks": 4,
          "midi": 44,
          "name": "G#2",
          "ticks": 24580,
          "time": 33.68932239583333,
          "velocity": 0.49606299212598426
        },
        {
          "duration": 0.005482395833340092,
          "durationTicks": 4,
          "midi": 70,
          "name": "A#4",
          "ticks": 24768,
          "time": 33.946994999999994,
          "velocity": 0.7401574803149606
        },
        {
          "duration": 0.0054823958333258815,
          "durationTicks": 4,
          "midi": 46,
          "name": "A#2",
          "ticks": 24772,
          "time": 33.952477395833334,
          "velocity": 0.47244094488188976
        },
        {
          "duration": 0.005482395833332987,
          "durationTicks": 4,
          "midi": 60,
          "name": "C4",
          "ticks": 24864,
          "time": 34.0785725,
          "velocity": 0.25984251968503935
        },
        {
          "duration": 0.005482395833332987,
          "durationTicks": 4,
          "midi": 35,
          "name": "B1",
          "ticks": 24960,
          "time": 34.21015,
          "velocity": 0.8661417322834646
        },
        {
          "duration": 0.0054823958333258815,
          "durationTicks": 4,
          "midi": 40,
          "name": "E2",
          "ticks": 24964,
          "time": 34.21563239583333,
          "velocity": 0.8661417322834646
        },
        {
          "duration": 0.0054823958333258815,
          "durationTicks": 4,
          "midi": 44,
          "name": "G#2",
          "ticks": 24964,
          "time": 34.21563239583333,
          "velocity": 0.49606299212598426
        },
        {
          "duration": 0.005482395833340092,
          "durationTicks": 4,
          "midi": 39,
          "name": "D#2",
          "ticks": 24968,
          "time": 34.22111479166666,
          "velocity": 0.7480314960629921
        },
        {
          "duration": 0.005482395833332987,
          "durationTicks": 4,
          "midi": 60,
          "name": "C4",
          "ticks": 25056,
          "time": 34.3417275,
          "velocity": 0.28346456692913385
        },
        {
          "duration": 0.005482395833332987,
          "durationTicks": 4,
          "midi": 70,
          "name": "A#4",
          "ticks": 25152,
          "time": 34.473304999999996,
          "velocity": 0.6141732283464567
        },
        {
          "duration": 0.005482395833332987,
          "durationTicks": 4,
          "midi": 63,
          "name": "D#4",
          "ticks": 25152,
          "time": 34.473304999999996,
          "velocity": 0.3858267716535433
        },
        {
          "duration": 0.005482395833332987,
          "durationTicks": 4,
          "midi": 46,
          "name": "A#2",
          "ticks": 25156,
          "time": 34.47878739583333,
          "velocity": 0.4251968503937008
        },
        {
          "duration": 0.005482395833340092,
          "durationTicks": 4,
          "midi": 70,
          "name": "A#4",
          "ticks": 25248,
          "time": 34.604882499999995,
          "velocity": 0.7401574803149606
        },
        {
          "duration": 0.005482395833340092,
          "durationTicks": 4,
          "midi": 35,
          "name": "B1",
          "ticks": 25344,
          "time": 34.736459999999994,
          "velocity": 0.8661417322834646
        },
        {
          "duration": 0.005482395833340092,
          "durationTicks": 4,
          "midi": 60,
          "name": "C4",
          "ticks": 25344,
          "time": 34.736459999999994,
          "velocity": 0.4251968503937008
        },
        {
          "duration": 0.0054823958333258815,
          "durationTicks": 4,
          "midi": 44,
          "name": "G#2",
          "ticks": 25348,
          "time": 34.741942395833334,
          "velocity": 0.49606299212598426
        },
        {
          "duration": 0.005482395833332987,
          "durationTicks": 4,
          "midi": 70,
          "name": "A#4",
          "ticks": 25536,
          "time": 34.999615,
          "velocity": 0.7401574803149606
        },
        {
          "duration": 0.0054823958333258815,
          "durationTicks": 4,
          "midi": 46,
          "name": "A#2",
          "ticks": 25540,
          "time": 35.00509739583333,
          "velocity": 0.4251968503937008
        },
        {
          "duration": 0.005482395833332987,
          "durationTicks": 4,
          "midi": 60,
          "name": "C4",
          "ticks": 25632,
          "time": 35.1311925,
          "velocity": 0.33858267716535434
        },
        {
          "duration": 0.005482395833332987,
          "durationTicks": 4,
          "midi": 35,
          "name": "B1",
          "ticks": 25728,
          "time": 35.262769999999996,
          "velocity": 0.8976377952755905
        },
        {
          "duration": 0.005482395833332987,
          "durationTicks": 4,
          "midi": 40,
          "name": "E2",
          "ticks": 25732,
          "time": 35.26825239583333,
          "velocity": 0.8661417322834646
        },
        {
          "duration": 0.005482395833332987,
          "durationTicks": 4,
          "midi": 44,
          "name": "G#2",
          "ticks": 25732,
          "time": 35.26825239583333,
          "velocity": 0.49606299212598426
        },
        {
          "duration": 0.005482395833332987,
          "durationTicks": 4,
          "midi": 39,
          "name": "D#2",
          "ticks": 25736,
          "time": 35.27373479166666,
          "velocity": 0.7480314960629921
        },
        {
          "duration": 0.005482395833340092,
          "durationTicks": 4,
          "midi": 60,
          "name": "C4",
          "ticks": 25824,
          "time": 35.394347499999995,
          "velocity": 0.31496062992125984
        },
        {
          "duration": 0.005482395833340092,
          "durationTicks": 4,
          "midi": 70,
          "name": "A#4",
          "ticks": 25920,
          "time": 35.525924999999994,
          "velocity": 0.6141732283464567
        },
        {
          "duration": 0.005482395833340092,
          "durationTicks": 4,
          "midi": 63,
          "name": "D#4",
          "ticks": 25920,
          "time": 35.525924999999994,
          "velocity": 0.3858267716535433
        },
        {
          "duration": 0.0054823958333258815,
          "durationTicks": 4,
          "midi": 46,
          "name": "A#2",
          "ticks": 25924,
          "time": 35.531407395833334,
          "velocity": 0.47244094488188976
        },
        {
          "duration": 0.005482395833332987,
          "durationTicks": 4,
          "midi": 70,
          "name": "A#4",
          "ticks": 26016,
          "time": 35.6575025,
          "velocity": 0.7795275590551181
        },
        {
          "duration": 0.005482395833332987,
          "durationTicks": 4,
          "midi": 35,
          "name": "B1",
          "ticks": 26112,
          "time": 35.78908,
          "velocity": 0.8976377952755905
        },
        {
          "duration": 0.005482395833332987,
          "durationTicks": 4,
          "midi": 69,
          "name": "A4",
          "ticks": 26112,
          "time": 35.78908,
          "velocity": 0.5826771653543307
        },
        {
          "duration": 0.005482395833332987,
          "durationTicks": 4,
          "midi": 60,
          "name": "C4",
          "ticks": 26112,
          "time": 35.78908,
          "velocity": 0.4251968503937008
        },
        {
          "duration": 0.0054823958333258815,
          "durationTicks": 4,
          "midi": 44,
          "name": "G#2",
          "ticks": 26116,
          "time": 35.79456239583333,
          "velocity": 0.49606299212598426
        },
        {
          "duration": 0.005482395833340092,
          "durationTicks": 4,
          "midi": 69,
          "name": "A4",
          "ticks": 26204,
          "time": 35.91517510416666,
          "velocity": 0.2204724409448819
        },
        {
          "duration": 0.005482395833340092,
          "durationTicks": 4,
          "midi": 69,
          "name": "A4",
          "ticks": 26288,
          "time": 36.03030541666666,
          "velocity": 0.8031496062992126
        },
        {
          "duration": 0.005482395833332987,
          "durationTicks": 4,
          "midi": 70,
          "name": "A#4",
          "ticks": 26304,
          "time": 36.052234999999996,
          "velocity": 0.7401574803149606
        },
        {
          "duration": 0.005482395833332987,
          "durationTicks": 4,
          "midi": 46,
          "name": "A#2",
          "ticks": 26308,
          "time": 36.05771739583333,
          "velocity": 0.5275590551181102
        },
        {
          "duration": 0.005482395833332987,
          "durationTicks": 4,
          "midi": 69,
          "name": "A4",
          "ticks": 26384,
          "time": 36.16188291666666,
          "velocity": 0.8031496062992126
        },
        {
          "duration": 0.005482395833340092,
          "durationTicks": 4,
          "midi": 60,
          "name": "C4",
          "ticks": 26400,
          "time": 36.183812499999995,
          "velocity": 0.33858267716535434
        },
        {
          "duration": 0.005482395833340092,
          "durationTicks": 4,
          "midi": 35,
          "name": "B1",
          "ticks": 26496,
          "time": 36.315389999999994,
          "velocity": 0.8976377952755905
        },
        {
          "duration": 0.0054823958333258815,
          "durationTicks": 4,
          "midi": 40,
          "name": "E2",
          "ticks": 26500,
          "time": 36.320872395833334,
          "velocity": 0.8976377952755905
        },
        {
          "duration": 0.0054823958333258815,
          "durationTicks": 4,
          "midi": 44,
          "name": "G#2",
          "ticks": 26500,
          "time": 36.320872395833334,
          "velocity": 0.5984251968503937
        },
        {
          "duration": 0.005482395833340092,
          "durationTicks": 4,
          "midi": 39,
          "name": "D#2",
          "ticks": 26504,
          "time": 36.32635479166666,
          "velocity": 0.7795275590551181
        },
        {
          "duration": 0.005482395833332987,
          "durationTicks": 4,
          "midi": 60,
          "name": "C4",
          "ticks": 26592,
          "time": 36.4469675,
          "velocity": 0.31496062992125984
        },
        {
          "duration": 0.005482395833332987,
          "durationTicks": 4,
          "midi": 70,
          "name": "A#4",
          "ticks": 26688,
          "time": 36.578545,
          "velocity": 0.5669291338582677
        },
        {
          "duration": 0.005482395833332987,
          "durationTicks": 4,
          "midi": 63,
          "name": "D#4",
          "ticks": 26688,
          "time": 36.578545,
          "velocity": 0.31496062992125984
        },
        {
          "duration": 0.005482395833332987,
          "durationTicks": 4,
          "midi": 70,
          "name": "A#4",
          "ticks": 26784,
          "time": 36.7101225,
          "velocity": 0.6692913385826772
        },
        {
          "duration": 0.005482395833332987,
          "durationTicks": 4,
          "midi": 35,
          "name": "B1",
          "ticks": 26880,
          "time": 36.841699999999996,
          "velocity": 0.8661417322834646
        },
        {
          "duration": 0.005482395833332987,
          "durationTicks": 4,
          "midi": 60,
          "name": "C4",
          "ticks": 26880,
          "time": 36.841699999999996,
          "velocity": 0.4251968503937008
        },
        {
          "duration": 0.005482395833340092,
          "durationTicks": 4,
          "midi": 70,
          "name": "A#4",
          "ticks": 27072,
          "time": 37.10485499999999,
          "velocity": 0.7401574803149606
        },
        {
          "duration": 0.0054823958333258815,
          "durationTicks": 4,
          "midi": 46,
          "name": "A#2",
          "ticks": 27076,
          "time": 37.110337395833334,
          "velocity": 0.49606299212598426
        },
        {
          "duration": 0.005482395833332987,
          "durationTicks": 4,
          "midi": 60,
          "name": "C4",
          "ticks": 27168,
          "time": 37.2364325,
          "velocity": 0.31496062992125984
        },
        {
          "duration": 0.005482395833332987,
          "durationTicks": 4,
          "midi": 35,
          "name": "B1",
          "ticks": 27264,
          "time": 37.36801,
          "velocity": 0.8976377952755905
        },
        {
          "duration": 0.0054823958333258815,
          "durationTicks": 4,
          "midi": 40,
          "name": "E2",
          "ticks": 27268,
          "time": 37.37349239583333,
          "velocity": 0.8976377952755905
        },
        {
          "duration": 0.0054823958333258815,
          "durationTicks": 4,
          "midi": 44,
          "name": "G#2",
          "ticks": 27268,
          "time": 37.37349239583333,
          "velocity": 0.49606299212598426
        },
        {
          "duration": 0.005482395833340092,
          "durationTicks": 4,
          "midi": 39,
          "name": "D#2",
          "ticks": 27272,
          "time": 37.37897479166666,
          "velocity": 0.7795275590551181
        },
        {
          "duration": 0.005482395833332987,
          "durationTicks": 4,
          "midi": 60,
          "name": "C4",
          "ticks": 27360,
          "time": 37.4995875,
          "velocity": 0.33858267716535434
        },
        {
          "duration": 0.005482395833332987,
          "durationTicks": 4,
          "midi": 70,
          "name": "A#4",
          "ticks": 27456,
          "time": 37.631164999999996,
          "velocity": 0.7401574803149606
        },
        {
          "duration": 0.005482395833332987,
          "durationTicks": 4,
          "midi": 63,
          "name": "D#4",
          "ticks": 27456,
          "time": 37.631164999999996,
          "velocity": 0.4251968503937008
        },
        {
          "duration": 0.005482395833332987,
          "durationTicks": 4,
          "midi": 46,
          "name": "A#2",
          "ticks": 27460,
          "time": 37.63664739583333,
          "velocity": 0.49606299212598426
        },
        {
          "duration": 0.005482395833340092,
          "durationTicks": 4,
          "midi": 35,
          "name": "B1",
          "ticks": 27648,
          "time": 37.89431999999999,
          "velocity": 0.8976377952755905
        },
        {
          "duration": 0.005482395833340092,
          "durationTicks": 4,
          "midi": 60,
          "name": "C4",
          "ticks": 27648,
          "time": 37.89431999999999,
          "velocity": 0.3858267716535433
        },
        {
          "duration": 0.0054823958333258815,
          "durationTicks": 4,
          "midi": 44,
          "name": "G#2",
          "ticks": 27652,
          "time": 37.89980239583333,
          "velocity": 0.5275590551181102
        },
        {
          "duration": 0.005482395833332987,
          "durationTicks": 4,
          "midi": 70,
          "name": "A#4",
          "ticks": 27840,
          "time": 38.157475,
          "velocity": 0.7795275590551181
        },
        {
          "duration": 0.0054823958333258815,
          "durationTicks": 4,
          "midi": 46,
          "name": "A#2",
          "ticks": 27844,
          "time": 38.16295739583333,
          "velocity": 0.49606299212598426
        },
        {
          "duration": 0.005482395833332987,
          "durationTicks": 4,
          "midi": 60,
          "name": "C4",
          "ticks": 27936,
          "time": 38.2890525,
          "velocity": 0.31496062992125984
        },
        {
          "duration": 0.005482395833332987,
          "durationTicks": 4,
          "midi": 35,
          "name": "B1",
          "ticks": 28032,
          "time": 38.420629999999996,
          "velocity": 0.8661417322834646
        },
        {
          "duration": 0.005482395833332987,
          "durationTicks": 4,
          "midi": 40,
          "name": "E2",
          "ticks": 28036,
          "time": 38.42611239583333,
          "velocity": 0.8976377952755905
        },
        {
          "duration": 0.005482395833332987,
          "durationTicks": 4,
          "midi": 44,
          "name": "G#2",
          "ticks": 28036,
          "time": 38.42611239583333,
          "velocity": 0.49606299212598426
        },
        {
          "duration": 0.005482395833332987,
          "durationTicks": 4,
          "midi": 39,
          "name": "D#2",
          "ticks": 28040,
          "time": 38.43159479166666,
          "velocity": 0.7795275590551181
        },
        {
          "duration": 0.005482395833340092,
          "durationTicks": 4,
          "midi": 60,
          "name": "C4",
          "ticks": 28128,
          "time": 38.552207499999994,
          "velocity": 0.33858267716535434
        },
        {
          "duration": 0.005482395833340092,
          "durationTicks": 4,
          "midi": 70,
          "name": "A#4",
          "ticks": 28224,
          "time": 38.68378499999999,
          "velocity": 0.6141732283464567
        },
        {
          "duration": 0.005482395833340092,
          "durationTicks": 4,
          "midi": 63,
          "name": "D#4",
          "ticks": 28224,
          "time": 38.68378499999999,
          "velocity": 0.31496062992125984
        },
        {
          "duration": 0.0054823958333258815,
          "durationTicks": 4,
          "midi": 46,
          "name": "A#2",
          "ticks": 28228,
          "time": 38.68926739583333,
          "velocity": 0.49606299212598426
        },
        {
          "duration": 0.005482395833332987,
          "durationTicks": 4,
          "midi": 70,
          "name": "A#4",
          "ticks": 28320,
          "time": 38.8153625,
          "velocity": 0.6692913385826772
        },
        {
          "duration": 0.005482395833332987,
          "durationTicks": 4,
          "midi": 35,
          "name": "B1",
          "ticks": 28416,
          "time": 38.94694,
          "velocity": 0.8976377952755905
        },
        {
          "duration": 0.005482395833332987,
          "durationTicks": 4,
          "midi": 60,
          "name": "C4",
          "ticks": 28416,
          "time": 38.94694,
          "velocity": 0.3858267716535433
        },
        {
          "duration": 0.0054823958333258815,
          "durationTicks": 4,
          "midi": 44,
          "name": "G#2",
          "ticks": 28420,
          "time": 38.95242239583333,
          "velocity": 0.49606299212598426
        },
        {
          "duration": 0.005482395833332987,
          "durationTicks": 4,
          "midi": 70,
          "name": "A#4",
          "ticks": 28608,
          "time": 39.210094999999995,
          "velocity": 0.7795275590551181
        },
        {
          "duration": 0.005482395833332987,
          "durationTicks": 4,
          "midi": 46,
          "name": "A#2",
          "ticks": 28612,
          "time": 39.21557739583333,
          "velocity": 0.49606299212598426
        },
        {
          "duration": 0.005482395833340092,
          "durationTicks": 4,
          "midi": 60,
          "name": "C4",
          "ticks": 28704,
          "time": 39.341672499999994,
          "velocity": 0.31496062992125984
        },
        {
          "duration": 0.005482395833340092,
          "durationTicks": 4,
          "midi": 35,
          "name": "B1",
          "ticks": 28800,
          "time": 39.47324999999999,
          "velocity": 0.8976377952755905
        },
        {
          "duration": 0.0054823958333258815,
          "durationTicks": 4,
          "midi": 40,
          "name": "E2",
          "ticks": 28804,
          "time": 39.47873239583333,
          "velocity": 0.8976377952755905
        },
        {
          "duration": 0.0054823958333258815,
          "durationTicks": 4,
          "midi": 44,
          "name": "G#2",
          "ticks": 28804,
          "time": 39.47873239583333,
          "velocity": 0.5275590551181102
        },
        {
          "duration": 0.005482395833340092,
          "durationTicks": 4,
          "midi": 39,
          "name": "D#2",
          "ticks": 28808,
          "time": 39.48421479166666,
          "velocity": 0.7795275590551181
        },
        {
          "duration": 0.005482395833332987,
          "durationTicks": 4,
          "midi": 60,
          "name": "C4",
          "ticks": 28896,
          "time": 39.6048275,
          "velocity": 0.31496062992125984
        },
        {
          "duration": 0.005482395833332987,
          "durationTicks": 4,
          "midi": 70,
          "name": "A#4",
          "ticks": 28992,
          "time": 39.736405,
          "velocity": 0.6377952755905512
        },
        {
          "duration": 0.005482395833332987,
          "durationTicks": 4,
          "midi": 63,
          "name": "D#4",
          "ticks": 28992,
          "time": 39.736405,
          "velocity": 0.3858267716535433
        },
        {
          "duration": 0.0054823958333258815,
          "durationTicks": 4,
          "midi": 46,
          "name": "A#2",
          "ticks": 28996,
          "time": 39.74188739583333,
          "velocity": 0.5275590551181102
        },
        {
          "duration": 0.005482395833332987,
          "durationTicks": 4,
          "midi": 70,
          "name": "A#4",
          "ticks": 29088,
          "time": 39.8679825,
          "velocity": 0.7795275590551181
        },
        {
          "duration": 0.005482395833332987,
          "durationTicks": 4,
          "midi": 35,
          "name": "B1",
          "ticks": 29184,
          "time": 39.999559999999995,
          "velocity": 0.8661417322834646
        },
        {
          "duration": 0.005482395833332987,
          "durationTicks": 4,
          "midi": 69,
          "name": "A4",
          "ticks": 29184,
          "time": 39.999559999999995,
          "velocity": 0.5826771653543307
        },
        {
          "duration": 0.005482395833332987,
          "durationTicks": 4,
          "midi": 60,
          "name": "C4",
          "ticks": 29184,
          "time": 39.999559999999995,
          "velocity": 0.4251968503937008
        },
        {
          "duration": 0.005482395833332987,
          "durationTicks": 4,
          "midi": 44,
          "name": "G#2",
          "ticks": 29188,
          "time": 40.00504239583333,
          "velocity": 0.5984251968503937
        },
        {
          "duration": 0.005482395833332987,
          "durationTicks": 4,
          "midi": 69,
          "name": "A4",
          "ticks": 29276,
          "time": 40.12565510416666,
          "velocity": 0.2204724409448819
        },
        {
          "duration": 0.005482395833332987,
          "durationTicks": 4,
          "midi": 69,
          "name": "A4",
          "ticks": 29360,
          "time": 40.24078541666666,
          "velocity": 0.8031496062992126
        },
        {
          "duration": 0.005482395833340092,
          "durationTicks": 4,
          "midi": 70,
          "name": "A#4",
          "ticks": 29376,
          "time": 40.26271499999999,
          "velocity": 0.7795275590551181
        },
        {
          "duration": 0.0054823958333258815,
          "durationTicks": 4,
          "midi": 46,
          "name": "A#2",
          "ticks": 29380,
          "time": 40.26819739583333,
          "velocity": 0.49606299212598426
        },
        {
          "duration": 0.005482395833332987,
          "durationTicks": 4,
          "midi": 69,
          "name": "A4",
          "ticks": 29456,
          "time": 40.37236291666666,
          "velocity": 0.8031496062992126
        },
        {
          "duration": 0.005482395833332987,
          "durationTicks": 4,
          "midi": 60,
          "name": "C4",
          "ticks": 29472,
          "time": 40.3942925,
          "velocity": 0.4251968503937008
        },
        {
          "duration": 0.005482395833332987,
          "durationTicks": 4,
          "midi": 35,
          "name": "B1",
          "ticks": 29568,
          "time": 40.52587,
          "velocity": 0.8976377952755905
        },
        {
          "duration": 0.0054823958333258815,
          "durationTicks": 4,
          "midi": 40,
          "name": "E2",
          "ticks": 29572,
          "time": 40.53135239583333,
          "velocity": 0.8661417322834646
        },
        {
          "duration": 0.0054823958333258815,
          "durationTicks": 4,
          "midi": 44,
          "name": "G#2",
          "ticks": 29572,
          "time": 40.53135239583333,
          "velocity": 0.47244094488188976
        },
        {
          "duration": 0.005482395833340092,
          "durationTicks": 4,
          "midi": 39,
          "name": "D#2",
          "ticks": 29576,
          "time": 40.53683479166666,
          "velocity": 0.7480314960629921
        },
        {
          "duration": 0.005482395833332987,
          "durationTicks": 4,
          "midi": 60,
          "name": "C4",
          "ticks": 29664,
          "time": 40.657447499999996,
          "velocity": 0.33858267716535434
        },
        {
          "duration": 0.005482395833332987,
          "durationTicks": 4,
          "midi": 70,
          "name": "A#4",
          "ticks": 29760,
          "time": 40.789024999999995,
          "velocity": 0.6377952755905512
        },
        {
          "duration": 0.005482395833332987,
          "durationTicks": 4,
          "midi": 63,
          "name": "D#4",
          "ticks": 29760,
          "time": 40.789024999999995,
          "velocity": 0.3858267716535433
        },
        {
          "duration": 0.005482395833340092,
          "durationTicks": 4,
          "midi": 70,
          "name": "A#4",
          "ticks": 29856,
          "time": 40.920602499999994,
          "velocity": 0.7795275590551181
        },
        {
          "duration": 0.005482395833340092,
          "durationTicks": 4,
          "midi": 35,
          "name": "B1",
          "ticks": 29952,
          "time": 41.05217999999999,
          "velocity": 0.8661417322834646
        },
        {
          "duration": 0.005482395833340092,
          "durationTicks": 4,
          "midi": 60,
          "name": "C4",
          "ticks": 29952,
          "time": 41.05217999999999,
          "velocity": 0.4251968503937008
        },
        {
          "duration": 0.005482395833332987,
          "durationTicks": 4,
          "midi": 70,
          "name": "A#4",
          "ticks": 30144,
          "time": 41.315335,
          "velocity": 0.7401574803149606
        },
        {
          "duration": 0.0054823958333258815,
          "durationTicks": 4,
          "midi": 46,
          "name": "A#2",
          "ticks": 30148,
          "time": 41.32081739583333,
          "velocity": 0.5275590551181102
        },
        {
          "duration": 0.005482395833332987,
          "durationTicks": 4,
          "midi": 60,
          "name": "C4",
          "ticks": 30240,
          "time": 41.446912499999996,
          "velocity": 0.33858267716535434
        },
        {
          "duration": 0.005482395833332987,
          "durationTicks": 4,
          "midi": 35,
          "name": "B1",
          "ticks": 30336,
          "time": 41.578489999999995,
          "velocity": 0.8976377952755905
        },
        {
          "duration": 0.005482395833332987,
          "durationTicks": 4,
          "midi": 40,
          "name": "E2",
          "ticks": 30340,
          "time": 41.58397239583333,
          "velocity": 0.8661417322834646
        },
        {
          "duration": 0.005482395833332987,
          "durationTicks": 4,
          "midi": 44,
          "name": "G#2",
          "ticks": 30340,
          "time": 41.58397239583333,
          "velocity": 0.5275590551181102
        },
        {
          "duration": 0.005482395833332987,
          "durationTicks": 4,
          "midi": 39,
          "name": "D#2",
          "ticks": 30344,
          "time": 41.58945479166666,
          "velocity": 0.7480314960629921
        },
        {
          "duration": 0.005482395833340092,
          "durationTicks": 4,
          "midi": 60,
          "name": "C4",
          "ticks": 30432,
          "time": 41.710067499999994,
          "velocity": 0.3858267716535433
        },
        {
          "duration": 0.005482395833340092,
          "durationTicks": 4,
          "midi": 70,
          "name": "A#4",
          "ticks": 30528,
          "time": 41.84164499999999,
          "velocity": 0.7401574803149606
        },
        {
          "duration": 0.005482395833340092,
          "durationTicks": 4,
          "midi": 63,
          "name": "D#4",
          "ticks": 30528,
          "time": 41.84164499999999,
          "velocity": 0.4251968503937008
        },
        {
          "duration": 0.0054823958333258815,
          "durationTicks": 4,
          "midi": 46,
          "name": "A#2",
          "ticks": 30532,
          "time": 41.84712739583333,
          "velocity": 0.49606299212598426
        },
        {
          "duration": 0.005482395833332987,
          "durationTicks": 4,
          "midi": 35,
          "name": "B1",
          "ticks": 30720,
          "time": 42.1048,
          "velocity": 0.8661417322834646
        },
        {
          "duration": 0.005482395833332987,
          "durationTicks": 4,
          "midi": 60,
          "name": "C4",
          "ticks": 30720,
          "time": 42.1048,
          "velocity": 0.4251968503937008
        },
        {
          "duration": 0.0054823958333258815,
          "durationTicks": 4,
          "midi": 44,
          "name": "G#2",
          "ticks": 30724,
          "time": 42.11028239583333,
          "velocity": 0.49606299212598426
        },
        {
          "duration": 0.005482395833332987,
          "durationTicks": 4,
          "midi": 70,
          "name": "A#4",
          "ticks": 30912,
          "time": 42.367954999999995,
          "velocity": 0.7401574803149606
        },
        {
          "duration": 0.005482395833332987,
          "durationTicks": 4,
          "midi": 46,
          "name": "A#2",
          "ticks": 30916,
          "time": 42.37343739583333,
          "velocity": 0.47244094488188976
        },
        {
          "duration": 0.005482395833340092,
          "durationTicks": 4,
          "midi": 60,
          "name": "C4",
          "ticks": 31008,
          "time": 42.499532499999994,
          "velocity": 0.25984251968503935
        },
        {
          "duration": 0.005482395833340092,
          "durationTicks": 4,
          "midi": 35,
          "name": "B1",
          "ticks": 31104,
          "time": 42.63110999999999,
          "velocity": 0.8661417322834646
        },
        {
          "duration": 0.0054823958333258815,
          "durationTicks": 4,
          "midi": 40,
          "name": "E2",
          "ticks": 31108,
          "time": 42.63659239583333,
          "velocity": 0.8661417322834646
        },
        {
          "duration": 0.0054823958333258815,
          "durationTicks": 4,
          "midi": 44,
          "name": "G#2",
          "ticks": 31108,
          "time": 42.63659239583333,
          "velocity": 0.49606299212598426
        },
        {
          "duration": 0.005482395833340092,
          "durationTicks": 4,
          "midi": 39,
          "name": "D#2",
          "ticks": 31112,
          "time": 42.64207479166666,
          "velocity": 0.7480314960629921
        },
        {
          "duration": 0.005482395833332987,
          "durationTicks": 4,
          "midi": 60,
          "name": "C4",
          "ticks": 31200,
          "time": 42.7626875,
          "velocity": 0.28346456692913385
        },
        {
          "duration": 0.005482395833332987,
          "durationTicks": 4,
          "midi": 70,
          "name": "A#4",
          "ticks": 31296,
          "time": 42.894265,
          "velocity": 0.6141732283464567
        },
        {
          "duration": 0.005482395833332987,
          "durationTicks": 4,
          "midi": 63,
          "name": "D#4",
          "ticks": 31296,
          "time": 42.894265,
          "velocity": 0.3858267716535433
        },
        {
          "duration": 0.005482395833332987,
          "durationTicks": 4,
          "midi": 46,
          "name": "A#2",
          "ticks": 31300,
          "time": 42.89974739583333,
          "velocity": 0.4251968503937008
        },
        {
          "duration": 0.005482395833332987,
          "durationTicks": 4,
          "midi": 70,
          "name": "A#4",
          "ticks": 31392,
          "time": 43.025842499999996,
          "velocity": 0.7401574803149606
        },
        {
          "duration": 0.005482395833332987,
          "durationTicks": 4,
          "midi": 35,
          "name": "B1",
          "ticks": 31488,
          "time": 43.157419999999995,
          "velocity": 0.8661417322834646
        },
        {
          "duration": 0.005482395833332987,
          "durationTicks": 4,
          "midi": 60,
          "name": "C4",
          "ticks": 31488,
          "time": 43.157419999999995,
          "velocity": 0.4251968503937008
        },
        {
          "duration": 0.005482395833332987,
          "durationTicks": 4,
          "midi": 44,
          "name": "G#2",
          "ticks": 31492,
          "time": 43.16290239583333,
          "velocity": 0.49606299212598426
        },
        {
          "duration": 0.005482395833340092,
          "durationTicks": 4,
          "midi": 70,
          "name": "A#4",
          "ticks": 31680,
          "time": 43.42057499999999,
          "velocity": 0.7401574803149606
        },
        {
          "duration": 0.0054823958333258815,
          "durationTicks": 4,
          "midi": 46,
          "name": "A#2",
          "ticks": 31684,
          "time": 43.42605739583333,
          "velocity": 0.4251968503937008
        },
        {
          "duration": 0.005482395833332987,
          "durationTicks": 4,
          "midi": 60,
          "name": "C4",
          "ticks": 31776,
          "time": 43.5521525,
          "velocity": 0.33858267716535434
        },
        {
          "duration": 0.005482395833332987,
          "durationTicks": 4,
          "midi": 35,
          "name": "B1",
          "ticks": 31872,
          "time": 43.68373,
          "velocity": 0.8976377952755905
        },
        {
          "duration": 0.005482395833332987,
          "durationTicks": 4,
          "midi": 40,
          "name": "E2",
          "ticks": 31876,
          "time": 43.68921239583333,
          "velocity": 0.8661417322834646
        },
        {
          "duration": 0.005482395833332987,
          "durationTicks": 4,
          "midi": 44,
          "name": "G#2",
          "ticks": 31876,
          "time": 43.68921239583333,
          "velocity": 0.49606299212598426
        },
        {
          "duration": 0.005482395833332987,
          "durationTicks": 4,
          "midi": 39,
          "name": "D#2",
          "ticks": 31880,
          "time": 43.69469479166666,
          "velocity": 0.7480314960629921
        },
        {
          "duration": 0.005482395833332987,
          "durationTicks": 4,
          "midi": 60,
          "name": "C4",
          "ticks": 31968,
          "time": 43.815307499999996,
          "velocity": 0.31496062992125984
        },
        {
          "duration": 0.005482395833340092,
          "durationTicks": 4,
          "midi": 70,
          "name": "A#4",
          "ticks": 32064,
          "time": 43.946884999999995,
          "velocity": 0.6141732283464567
        },
        {
          "duration": 0.005482395833340092,
          "durationTicks": 4,
          "midi": 63,
          "name": "D#4",
          "ticks": 32064,
          "time": 43.946884999999995,
          "velocity": 0.3858267716535433
        },
        {
          "duration": 0.0054823958333258815,
          "durationTicks": 4,
          "midi": 46,
          "name": "A#2",
          "ticks": 32068,
          "time": 43.952367395833335,
          "velocity": 0.47244094488188976
        },
        {
          "duration": 0.005482395833340092,
          "durationTicks": 4,
          "midi": 70,
          "name": "A#4",
          "ticks": 32160,
          "time": 44.07846249999999,
          "velocity": 0.7795275590551181
        },
        {
          "duration": 0.005482395833340092,
          "durationTicks": 4,
          "midi": 35,
          "name": "B1",
          "ticks": 32256,
          "time": 44.21003999999999,
          "velocity": 0.8976377952755905
        },
        {
          "duration": 0.005482395833340092,
          "durationTicks": 4,
          "midi": 69,
          "name": "A4",
          "ticks": 32256,
          "time": 44.21003999999999,
          "velocity": 0.5826771653543307
        },
        {
          "duration": 0.005482395833340092,
          "durationTicks": 4,
          "midi": 60,
          "name": "C4",
          "ticks": 32256,
          "time": 44.21003999999999,
          "velocity": 0.4251968503937008
        },
        {
          "duration": 0.0054823958333258815,
          "durationTicks": 4,
          "midi": 44,
          "name": "G#2",
          "ticks": 32260,
          "time": 44.21552239583333,
          "velocity": 0.49606299212598426
        },
        {
          "duration": 0.005482395833340092,
          "durationTicks": 4,
          "midi": 69,
          "name": "A4",
          "ticks": 32348,
          "time": 44.33613510416666,
          "velocity": 0.2204724409448819
        },
        {
          "duration": 0.005482395833340092,
          "durationTicks": 4,
          "midi": 69,
          "name": "A4",
          "ticks": 32432,
          "time": 44.45126541666666,
          "velocity": 0.8031496062992126
        },
        {
          "duration": 0.005482395833332987,
          "durationTicks": 4,
          "midi": 70,
          "name": "A#4",
          "ticks": 32448,
          "time": 44.473195,
          "velocity": 0.7401574803149606
        },
        {
          "duration": 0.005482395833332987,
          "durationTicks": 4,
          "midi": 46,
          "name": "A#2",
          "ticks": 32452,
          "time": 44.47867739583333,
          "velocity": 0.5275590551181102
        },
        {
          "duration": 0.005482395833340092,
          "durationTicks": 4,
          "midi": 69,
          "name": "A4",
          "ticks": 32528,
          "time": 44.58284291666666,
          "velocity": 0.8031496062992126
        },
        {
          "duration": 0.005482395833332987,
          "durationTicks": 4,
          "midi": 60,
          "name": "C4",
          "ticks": 32544,
          "time": 44.604772499999996,
          "velocity": 0.33858267716535434
        },
        {
          "duration": 0.005482395833340092,
          "durationTicks": 4,
          "midi": 35,
          "name": "B1",
          "ticks": 32640,
          "time": 44.736349999999995,
          "velocity": 0.8976377952755905
        },
        {
          "duration": 0.0054823958333258815,
          "durationTicks": 4,
          "midi": 40,
          "name": "E2",
          "ticks": 32644,
          "time": 44.741832395833335,
          "velocity": 0.8976377952755905
        },
        {
          "duration": 0.0054823958333258815,
          "durationTicks": 4,
          "midi": 44,
          "name": "G#2",
          "ticks": 32644,
          "time": 44.741832395833335,
          "velocity": 0.5984251968503937
        },
        {
          "duration": 0.005482395833332987,
          "durationTicks": 4,
          "midi": 39,
          "name": "D#2",
          "ticks": 32648,
          "time": 44.74731479166666,
          "velocity": 0.7795275590551181
        },
        {
          "duration": 0.005482395833340092,
          "durationTicks": 4,
          "midi": 60,
          "name": "C4",
          "ticks": 32736,
          "time": 44.86792749999999,
          "velocity": 0.31496062992125984
        },
        {
          "duration": 0.005482395833340092,
          "durationTicks": 4,
          "midi": 70,
          "name": "A#4",
          "ticks": 32832,
          "time": 44.99950499999999,
          "velocity": 0.5669291338582677
        },
        {
          "duration": 0.005482395833340092,
          "durationTicks": 4,
          "midi": 63,
          "name": "D#4",
          "ticks": 32832,
          "time": 44.99950499999999,
          "velocity": 0.31496062992125984
        },
        {
          "duration": 0.005482395833332987,
          "durationTicks": 4,
          "midi": 70,
          "name": "A#4",
          "ticks": 32928,
          "time": 45.1310825,
          "velocity": 0.6692913385826772
        },
        {
          "duration": 0.005482395833332987,
          "durationTicks": 4,
          "midi": 35,
          "name": "B1",
          "ticks": 33024,
          "time": 45.26266,
          "velocity": 0.8661417322834646
        },
        {
          "duration": 0.005482395833332987,
          "durationTicks": 4,
          "midi": 60,
          "name": "C4",
          "ticks": 33024,
          "time": 45.26266,
          "velocity": 0.4251968503937008
        },
        {
          "duration": 0.005482395833340092,
          "durationTicks": 4,
          "midi": 70,
          "name": "A#4",
          "ticks": 33216,
          "time": 45.525814999999994,
          "velocity": 0.7401574803149606
        },
        {
          "duration": 0.0054823958333258815,
          "durationTicks": 4,
          "midi": 46,
          "name": "A#2",
          "ticks": 33220,
          "time": 45.531297395833334,
          "velocity": 0.49606299212598426
        },
        {
          "duration": 0.005482395833340092,
          "durationTicks": 4,
          "midi": 60,
          "name": "C4",
          "ticks": 33312,
          "time": 45.65739249999999,
          "velocity": 0.31496062992125984
        },
        {
          "duration": 0.005482395833340092,
          "durationTicks": 4,
          "midi": 35,
          "name": "B1",
          "ticks": 33408,
          "time": 45.78896999999999,
          "velocity": 0.8976377952755905
        },
        {
          "duration": 0.0054823958333258815,
          "durationTicks": 4,
          "midi": 40,
          "name": "E2",
          "ticks": 33412,
          "time": 45.79445239583333,
          "velocity": 0.8976377952755905
        },
        {
          "duration": 0.0054823958333258815,
          "durationTicks": 4,
          "midi": 44,
          "name": "G#2",
          "ticks": 33412,
          "time": 45.79445239583333,
          "velocity": 0.49606299212598426
        },
        {
          "duration": 0.005482395833340092,
          "durationTicks": 4,
          "midi": 39,
          "name": "D#2",
          "ticks": 33416,
          "time": 45.79993479166666,
          "velocity": 0.7795275590551181
        },
        {
          "duration": 0.005482395833332987,
          "durationTicks": 4,
          "midi": 60,
          "name": "C4",
          "ticks": 33504,
          "time": 45.9205475,
          "velocity": 0.33858267716535434
        },
        {
          "duration": 0.005482395833332987,
          "durationTicks": 4,
          "midi": 70,
          "name": "A#4",
          "ticks": 33600,
          "time": 46.052125,
          "velocity": 0.7401574803149606
        },
        {
          "duration": 0.005482395833332987,
          "durationTicks": 4,
          "midi": 63,
          "name": "D#4",
          "ticks": 33600,
          "time": 46.052125,
          "velocity": 0.4251968503937008
        },
        {
          "duration": 0.005482395833332987,
          "durationTicks": 4,
          "midi": 46,
          "name": "A#2",
          "ticks": 33604,
          "time": 46.05760739583333,
          "velocity": 0.49606299212598426
        },
        {
          "duration": 0.005482395833340092,
          "durationTicks": 4,
          "midi": 35,
          "name": "B1",
          "ticks": 33792,
          "time": 46.315279999999994,
          "velocity": 0.8976377952755905
        },
        {
          "duration": 0.005482395833340092,
          "durationTicks": 4,
          "midi": 60,
          "name": "C4",
          "ticks": 33792,
          "time": 46.315279999999994,
          "velocity": 0.3858267716535433
        },
        {
          "duration": 0.0054823958333258815,
          "durationTicks": 4,
          "midi": 44,
          "name": "G#2",
          "ticks": 33796,
          "time": 46.320762395833334,
          "velocity": 0.5275590551181102
        },
        {
          "duration": 0.005482395833340092,
          "durationTicks": 4,
          "midi": 70,
          "name": "A#4",
          "ticks": 33984,
          "time": 46.57843499999999,
          "velocity": 0.7795275590551181
        },
        {
          "duration": 0.0054823958333258815,
          "durationTicks": 4,
          "midi": 46,
          "name": "A#2",
          "ticks": 33988,
          "time": 46.58391739583333,
          "velocity": 0.49606299212598426
        },
        {
          "duration": 0.005482395833332987,
          "durationTicks": 4,
          "midi": 60,
          "name": "C4",
          "ticks": 34080,
          "time": 46.7100125,
          "velocity": 0.31496062992125984
        },
        {
          "duration": 0.005482395833332987,
          "durationTicks": 4,
          "midi": 35,
          "name": "B1",
          "ticks": 34176,
          "time": 46.84159,
          "velocity": 0.8661417322834646
        },
        {
          "duration": 0.005482395833332987,
          "durationTicks": 4,
          "midi": 40,
          "name": "E2",
          "ticks": 34180,
          "time": 46.84707239583333,
          "velocity": 0.8976377952755905
        },
        {
          "duration": 0.005482395833332987,
          "durationTicks": 4,
          "midi": 44,
          "name": "G#2",
          "ticks": 34180,
          "time": 46.84707239583333,
          "velocity": 0.49606299212598426
        },
        {
          "duration": 0.005482395833332987,
          "durationTicks": 4,
          "midi": 39,
          "name": "D#2",
          "ticks": 34184,
          "time": 46.85255479166666,
          "velocity": 0.7795275590551181
        },
        {
          "duration": 0.005482395833332987,
          "durationTicks": 4,
          "midi": 60,
          "name": "C4",
          "ticks": 34272,
          "time": 46.973167499999995,
          "velocity": 0.33858267716535434
        },
        {
          "duration": 0.005482395833340092,
          "durationTicks": 4,
          "midi": 70,
          "name": "A#4",
          "ticks": 34368,
          "time": 47.104744999999994,
          "velocity": 0.6141732283464567
        },
        {
          "duration": 0.005482395833340092,
          "durationTicks": 4,
          "midi": 63,
          "name": "D#4",
          "ticks": 34368,
          "time": 47.104744999999994,
          "velocity": 0.31496062992125984
        },
        {
          "duration": 0.0054823958333258815,
          "durationTicks": 4,
          "midi": 46,
          "name": "A#2",
          "ticks": 34372,
          "time": 47.110227395833334,
          "velocity": 0.49606299212598426
        },
        {
          "duration": 0.005482395833340092,
          "durationTicks": 4,
          "midi": 70,
          "name": "A#4",
          "ticks": 34464,
          "time": 47.23632249999999,
          "velocity": 0.6692913385826772
        },
        {
          "duration": 0.005482395833340092,
          "durationTicks": 4,
          "midi": 35,
          "name": "B1",
          "ticks": 34560,
          "time": 47.36789999999999,
          "velocity": 0.8976377952755905
        },
        {
          "duration": 0.005482395833340092,
          "durationTicks": 4,
          "midi": 60,
          "name": "C4",
          "ticks": 34560,
          "time": 47.36789999999999,
          "velocity": 0.3858267716535433
        },
        {
          "duration": 0.0054823958333258815,
          "durationTicks": 4,
          "midi": 44,
          "name": "G#2",
          "ticks": 34564,
          "time": 47.37338239583333,
          "velocity": 0.49606299212598426
        },
        {
          "duration": 0.0054823958333258815,
          "durationTicks": 4,
          "midi": 40,
          "name": "E2",
          "ticks": 34660,
          "time": 47.50495989583333,
          "velocity": 0.8661417322834646
        },
        {
          "duration": 0.005482395833340092,
          "durationTicks": 4,
          "midi": 39,
          "name": "D#2",
          "ticks": 34664,
          "time": 47.510442291666656,
          "velocity": 0.7480314960629921
        },
        {
          "duration": 0.005482395833332987,
          "durationTicks": 4,
          "midi": 70,
          "name": "A#4",
          "ticks": 34752,
          "time": 47.631054999999996,
          "velocity": 0.7795275590551181
        },
        {
          "duration": 0.005482395833332987,
          "durationTicks": 4,
          "midi": 46,
          "name": "A#2",
          "ticks": 34756,
          "time": 47.63653739583333,
          "velocity": 0.49606299212598426
        },
        {
          "duration": 0.005482395833332987,
          "durationTicks": 4,
          "midi": 60,
          "name": "C4",
          "ticks": 34848,
          "time": 47.762632499999995,
          "velocity": 0.31496062992125984
        },
        {
          "duration": 0.005482395833340092,
          "durationTicks": 4,
          "midi": 35,
          "name": "B1",
          "ticks": 34944,
          "time": 47.894209999999994,
          "velocity": 0.8976377952755905
        },
        {
          "duration": 0.0054823958333258815,
          "durationTicks": 4,
          "midi": 40,
          "name": "E2",
          "ticks": 34948,
          "time": 47.899692395833334,
          "velocity": 0.8976377952755905
        },
        {
          "duration": 0.0054823958333258815,
          "durationTicks": 4,
          "midi": 44,
          "name": "G#2",
          "ticks": 34948,
          "time": 47.899692395833334,
          "velocity": 0.5275590551181102
        },
        {
          "duration": 0.005482395833332987,
          "durationTicks": 4,
          "midi": 39,
          "name": "D#2",
          "ticks": 34952,
          "time": 47.90517479166666,
          "velocity": 0.7795275590551181
        },
        {
          "duration": 0.005482395833340092,
          "durationTicks": 4,
          "midi": 60,
          "name": "C4",
          "ticks": 35040,
          "time": 48.02578749999999,
          "velocity": 0.31496062992125984
        },
        {
          "duration": 0.005482395833340092,
          "durationTicks": 4,
          "midi": 70,
          "name": "A#4",
          "ticks": 35136,
          "time": 48.15736499999999,
          "velocity": 0.6377952755905512
        },
        {
          "duration": 0.005482395833340092,
          "durationTicks": 4,
          "midi": 63,
          "name": "D#4",
          "ticks": 35136,
          "time": 48.15736499999999,
          "velocity": 0.3858267716535433
        },
        {
          "duration": 0.0054823958333258815,
          "durationTicks": 4,
          "midi": 46,
          "name": "A#2",
          "ticks": 35140,
          "time": 48.16284739583333,
          "velocity": 0.5275590551181102
        },
        {
          "duration": 0.005482395833332987,
          "durationTicks": 4,
          "midi": 70,
          "name": "A#4",
          "ticks": 35232,
          "time": 48.2889425,
          "velocity": 0.7795275590551181
        },
        {
          "duration": 0.0054823958333258815,
          "durationTicks": 4,
          "midi": 40,
          "name": "E2",
          "ticks": 35236,
          "time": 48.29442489583333,
          "velocity": 0.8661417322834646
        },
        {
          "duration": 0.005482395833340092,
          "durationTicks": 4,
          "midi": 39,
          "name": "D#2",
          "ticks": 35240,
          "time": 48.299907291666656,
          "velocity": 0.7480314960629921
        },
        {
          "duration": 0.005482395833332987,
          "durationTicks": 4,
          "midi": 35,
          "name": "B1",
          "ticks": 35328,
          "time": 48.420519999999996,
          "velocity": 0.8661417322834646
        },
        {
          "duration": 0.005482395833332987,
          "durationTicks": 4,
          "midi": 69,
          "name": "A4",
          "ticks": 35328,
          "time": 48.420519999999996,
          "velocity": 0.5826771653543307
        },
        {
          "duration": 0.005482395833332987,
          "durationTicks": 4,
          "midi": 60,
          "name": "C4",
          "ticks": 35328,
          "time": 48.420519999999996,
          "velocity": 0.4251968503937008
        },
        {
          "duration": 0.005482395833332987,
          "durationTicks": 4,
          "midi": 44,
          "name": "G#2",
          "ticks": 35332,
          "time": 48.42600239583333,
          "velocity": 0.5984251968503937
        },
        {
          "duration": 0.005482395833332987,
          "durationTicks": 4,
          "midi": 69,
          "name": "A4",
          "ticks": 35420,
          "time": 48.54661510416666,
          "velocity": 0.2204724409448819
        },
        {
          "duration": 0.005482395833332987,
          "durationTicks": 4,
          "midi": 69,
          "name": "A4",
          "ticks": 35504,
          "time": 48.66174541666666,
          "velocity": 0.8031496062992126
        },
        {
          "duration": 0.005482395833340092,
          "durationTicks": 4,
          "midi": 70,
          "name": "A#4",
          "ticks": 35520,
          "time": 48.683674999999994,
          "velocity": 0.7795275590551181
        },
        {
          "duration": 0.0054823958333258815,
          "durationTicks": 4,
          "midi": 46,
          "name": "A#2",
          "ticks": 35524,
          "time": 48.689157395833334,
          "velocity": 0.49606299212598426
        },
        {
          "duration": 0.005482395833332987,
          "durationTicks": 4,
          "midi": 69,
          "name": "A4",
          "ticks": 35600,
          "time": 48.79332291666666,
          "velocity": 0.8031496062992126
        },
        {
          "duration": 0.005482395833340092,
          "durationTicks": 4,
          "midi": 60,
          "name": "C4",
          "ticks": 35616,
          "time": 48.81525249999999,
          "velocity": 0.4251968503937008
        },
        {
          "duration": 0.005482395833340092,
          "durationTicks": 4,
          "midi": 35,
          "name": "B1",
          "ticks": 35712,
          "time": 48.94682999999999,
          "velocity": 0.8976377952755905
        },
        {
          "duration": 0.0054823958333258815,
          "durationTicks": 4,
          "midi": 40,
          "name": "E2",
          "ticks": 35716,
          "time": 48.95231239583333,
          "velocity": 0.8661417322834646
        },
        {
          "duration": 0.0054823958333258815,
          "durationTicks": 4,
          "midi": 44,
          "name": "G#2",
          "ticks": 35716,
          "time": 48.95231239583333,
          "velocity": 0.47244094488188976
        },
        {
          "duration": 0.005482395833340092,
          "durationTicks": 4,
          "midi": 39,
          "name": "D#2",
          "ticks": 35720,
          "time": 48.95779479166666,
          "velocity": 0.7480314960629921
        },
        {
          "duration": 0.005482395833332987,
          "durationTicks": 4,
          "midi": 60,
          "name": "C4",
          "ticks": 35808,
          "time": 49.0784075,
          "velocity": 0.33858267716535434
        },
        {
          "duration": 0.005482395833332987,
          "durationTicks": 4,
          "midi": 63,
          "name": "D#4",
          "ticks": 35892,
          "time": 49.1935378125,
          "velocity": 0.3858267716535433
        },
        {
          "duration": 0.0054823958333258815,
          "durationTicks": 4,
          "midi": 70,
          "name": "A#4",
          "ticks": 35896,
          "time": 49.19902020833333,
          "velocity": 0.6377952755905512
        },
        {
          "duration": 0.005482395833332987,
          "durationTicks": 4,
          "midi": 70,
          "name": "A#4",
          "ticks": 36000,
          "time": 49.341562499999995,
          "velocity": 0.7795275590551181
        },
        {
          "duration": 0.005482395833340092,
          "durationTicks": 4,
          "midi": 35,
          "name": "B1",
          "ticks": 36096,
          "time": 49.473139999999994,
          "velocity": 0.8661417322834646
        },
        {
          "duration": 0.005482395833340092,
          "durationTicks": 4,
          "midi": 60,
          "name": "C4",
          "ticks": 36096,
          "time": 49.473139999999994,
          "velocity": 0.4251968503937008
        },
        {
          "duration": 0.005482395833332987,
          "durationTicks": 4,
          "midi": 46,
          "name": "A#2",
          "ticks": 36284,
          "time": 49.73081260416666,
          "velocity": 0.5275590551181102
        },
        {
          "duration": 0.005482395833340092,
          "durationTicks": 4,
          "midi": 70,
          "name": "A#4",
          "ticks": 36288,
          "time": 49.73629499999999,
          "velocity": 0.7401574803149606
        },
        {
          "duration": 0.005482395833332987,
          "durationTicks": 4,
          "midi": 60,
          "name": "C4",
          "ticks": 36384,
          "time": 49.8678725,
          "velocity": 0.33858267716535434
        },
        {
          "duration": 0.005482395833332987,
          "durationTicks": 4,
          "midi": 35,
          "name": "B1",
          "ticks": 36480,
          "time": 49.999449999999996,
          "velocity": 0.8976377952755905
        },
        {
          "duration": 0.005482395833332987,
          "durationTicks": 4,
          "midi": 40,
          "name": "E2",
          "ticks": 36484,
          "time": 50.00493239583333,
          "velocity": 0.8661417322834646
        },
        {
          "duration": 0.005482395833332987,
          "durationTicks": 4,
          "midi": 44,
          "name": "G#2",
          "ticks": 36484,
          "time": 50.00493239583333,
          "velocity": 0.5275590551181102
        },
        {
          "duration": 0.005482395833332987,
          "durationTicks": 4,
          "midi": 39,
          "name": "D#2",
          "ticks": 36488,
          "time": 50.01041479166666,
          "velocity": 0.7480314960629921
        },
        {
          "duration": 0.005482395833332987,
          "durationTicks": 4,
          "midi": 60,
          "name": "C4",
          "ticks": 36576,
          "time": 50.131027499999995,
          "velocity": 0.3858267716535433
        },
        {
          "duration": 0.005482395833340092,
          "durationTicks": 4,
          "midi": 70,
          "name": "A#4",
          "ticks": 36672,
          "time": 50.26260499999999,
          "velocity": 0.7401574803149606
        },
        {
          "duration": 0.005482395833340092,
          "durationTicks": 4,
          "midi": 63,
          "name": "D#4",
          "ticks": 36672,
          "time": 50.26260499999999,
          "velocity": 0.4251968503937008
        },
        {
          "duration": 0.0054823958333258815,
          "durationTicks": 4,
          "midi": 46,
          "name": "A#2",
          "ticks": 36676,
          "time": 50.268087395833334,
          "velocity": 0.49606299212598426
        },
        {
          "duration": 0.005482395833340092,
          "durationTicks": 4,
          "midi": 35,
          "name": "B1",
          "ticks": 36864,
          "time": 50.52575999999999,
          "velocity": 0.8661417322834646
        },
        {
          "duration": 0.005482395833340092,
          "durationTicks": 4,
          "midi": 60,
          "name": "C4",
          "ticks": 36864,
          "time": 50.52575999999999,
          "velocity": 0.4251968503937008
        },
        {
          "duration": 0.0054823958333258815,
          "durationTicks": 4,
          "midi": 44,
          "name": "G#2",
          "ticks": 36868,
          "time": 50.53124239583333,
          "velocity": 0.49606299212598426
        },
        {
          "duration": 0.005482395833332987,
          "durationTicks": 4,
          "midi": 70,
          "name": "A#4",
          "ticks": 37056,
          "time": 50.788914999999996,
          "velocity": 0.7401574803149606
        },
        {
          "duration": 0.005482395833332987,
          "durationTicks": 4,
          "midi": 46,
          "name": "A#2",
          "ticks": 37060,
          "time": 50.79439739583333,
          "velocity": 0.47244094488188976
        },
        {
          "duration": 0.005482395833332987,
          "durationTicks": 4,
          "midi": 60,
          "name": "C4",
          "ticks": 37152,
          "time": 50.920492499999995,
          "velocity": 0.25984251968503935
        },
        {
          "duration": 0.005482395833340092,
          "durationTicks": 4,
          "midi": 35,
          "name": "B1",
          "ticks": 37248,
          "time": 51.05206999999999,
          "velocity": 0.8661417322834646
        },
        {
          "duration": 0.0054823958333258815,
          "durationTicks": 4,
          "midi": 40,
          "name": "E2",
          "ticks": 37252,
          "time": 51.05755239583333,
          "velocity": 0.8661417322834646
        },
        {
          "duration": 0.0054823958333258815,
          "durationTicks": 4,
          "midi": 44,
          "name": "G#2",
          "ticks": 37252,
          "time": 51.05755239583333,
          "velocity": 0.49606299212598426
        },
        {
          "duration": 0.005482395833332987,
          "durationTicks": 4,
          "midi": 39,
          "name": "D#2",
          "ticks": 37256,
          "time": 51.06303479166666,
          "velocity": 0.7480314960629921
        },
        {
          "duration": 0.005482395833340092,
          "durationTicks": 4,
          "midi": 60,
          "name": "C4",
          "ticks": 37344,
          "time": 51.18364749999999,
          "velocity": 0.28346456692913385
        },
        {
          "duration": 0.005482395833332987,
          "durationTicks": 4,
          "midi": 70,
          "name": "A#4",
          "ticks": 37440,
          "time": 51.315225,
          "velocity": 0.6141732283464567
        },
        {
          "duration": 0.005482395833332987,
          "durationTicks": 4,
          "midi": 63,
          "name": "D#4",
          "ticks": 37440,
          "time": 51.315225,
          "velocity": 0.3858267716535433
        },
        {
          "duration": 0.0054823958333258815,
          "durationTicks": 4,
          "midi": 46,
          "name": "A#2",
          "ticks": 37444,
          "time": 51.32070739583333,
          "velocity": 0.4251968503937008
        },
        {
          "duration": 0.005482395833332987,
          "durationTicks": 4,
          "midi": 70,
          "name": "A#4",
          "ticks": 37536,
          "time": 51.4468025,
          "velocity": 0.7401574803149606
        },
        {
          "duration": 0.005482395833332987,
          "durationTicks": 4,
          "midi": 35,
          "name": "B1",
          "ticks": 37632,
          "time": 51.578379999999996,
          "velocity": 0.8661417322834646
        },
        {
          "duration": 0.005482395833332987,
          "durationTicks": 4,
          "midi": 60,
          "name": "C4",
          "ticks": 37632,
          "time": 51.578379999999996,
          "velocity": 0.4251968503937008
        },
        {
          "duration": 0.005482395833332987,
          "durationTicks": 4,
          "midi": 44,
          "name": "G#2",
          "ticks": 37636,
          "time": 51.58386239583333,
          "velocity": 0.49606299212598426
        },
        {
          "duration": 0.005482395833340092,
          "durationTicks": 4,
          "midi": 70,
          "name": "A#4",
          "ticks": 37824,
          "time": 51.84153499999999,
          "velocity": 0.7401574803149606
        },
        {
          "duration": 0.0054823958333258815,
          "durationTicks": 4,
          "midi": 46,
          "name": "A#2",
          "ticks": 37828,
          "time": 51.84701739583333,
          "velocity": 0.4251968503937008
        },
        {
          "duration": 0.005482395833340092,
          "durationTicks": 4,
          "midi": 60,
          "name": "C4",
          "ticks": 37920,
          "time": 51.97311249999999,
          "velocity": 0.33858267716535434
        },
        {
          "duration": 0.005482395833332987,
          "durationTicks": 4,
          "midi": 35,
          "name": "B1",
          "ticks": 38016,
          "time": 52.10469,
          "velocity": 0.8976377952755905
        },
        {
          "duration": 0.0054823958333258815,
          "durationTicks": 4,
          "midi": 40,
          "name": "E2",
          "ticks": 38020,
          "time": 52.11017239583333,
          "velocity": 0.8661417322834646
        },
        {
          "duration": 0.0054823958333258815,
          "durationTicks": 4,
          "midi": 44,
          "name": "G#2",
          "ticks": 38020,
          "time": 52.11017239583333,
          "velocity": 0.49606299212598426
        },
        {
          "duration": 0.005482395833340092,
          "durationTicks": 4,
          "midi": 39,
          "name": "D#2",
          "ticks": 38024,
          "time": 52.11565479166666,
          "velocity": 0.7480314960629921
        },
        {
          "duration": 0.005482395833332987,
          "durationTicks": 4,
          "midi": 60,
          "name": "C4",
          "ticks": 38112,
          "time": 52.2362675,
          "velocity": 0.31496062992125984
        },
        {
          "duration": 0.005482395833332987,
          "durationTicks": 4,
          "midi": 70,
          "name": "A#4",
          "ticks": 38208,
          "time": 52.367844999999996,
          "velocity": 0.6141732283464567
        },
        {
          "duration": 0.005482395833332987,
          "durationTicks": 4,
          "midi": 63,
          "name": "D#4",
          "ticks": 38208,
          "time": 52.367844999999996,
          "velocity": 0.3858267716535433
        },
        {
          "duration": 0.005482395833332987,
          "durationTicks": 4,
          "midi": 46,
          "name": "A#2",
          "ticks": 38212,
          "time": 52.37332739583333,
          "velocity": 0.47244094488188976
        },
        {
          "duration": 0.005482395833332987,
          "durationTicks": 4,
          "midi": 70,
          "name": "A#4",
          "ticks": 38304,
          "time": 52.499422499999994,
          "velocity": 0.7795275590551181
        },
        {
          "duration": 0.005482395833340092,
          "durationTicks": 4,
          "midi": 35,
          "name": "B1",
          "ticks": 38400,
          "time": 52.63099999999999,
          "velocity": 0.8976377952755905
        },
        {
          "duration": 0.005482395833340092,
          "durationTicks": 4,
          "midi": 69,
          "name": "A4",
          "ticks": 38400,
          "time": 52.63099999999999,
          "velocity": 0.5826771653543307
        },
        {
          "duration": 0.005482395833340092,
          "durationTicks": 4,
          "midi": 60,
          "name": "C4",
          "ticks": 38400,
          "time": 52.63099999999999,
          "velocity": 0.4251968503937008
        },
        {
          "duration": 0.0054823958333258815,
          "durationTicks": 4,
          "midi": 44,
          "name": "G#2",
          "ticks": 38404,
          "time": 52.63648239583333,
          "velocity": 0.49606299212598426
        },
        {
          "duration": 0.005482395833332987,
          "durationTicks": 4,
          "midi": 69,
          "name": "A4",
          "ticks": 38492,
          "time": 52.75709510416666,
          "velocity": 0.2204724409448819
        },
        {
          "duration": 0.005482395833332987,
          "durationTicks": 4,
          "midi": 69,
          "name": "A4",
          "ticks": 38576,
          "time": 52.87222541666666,
          "velocity": 0.8031496062992126
        },
        {
          "duration": 0.005482395833332987,
          "durationTicks": 4,
          "midi": 70,
          "name": "A#4",
          "ticks": 38592,
          "time": 52.894155,
          "velocity": 0.7401574803149606
        },
        {
          "duration": 0.0054823958333258815,
          "durationTicks": 4,
          "midi": 46,
          "name": "A#2",
          "ticks": 38596,
          "time": 52.89963739583333,
          "velocity": 0.5275590551181102
        },
        {
          "duration": 0.005482395833340092,
          "durationTicks": 4,
          "midi": 69,
          "name": "A4",
          "ticks": 38672,
          "time": 53.00380291666666,
          "velocity": 0.8031496062992126
        },
        {
          "duration": 0.005482395833332987,
          "durationTicks": 4,
          "midi": 60,
          "name": "C4",
          "ticks": 38688,
          "time": 53.0257325,
          "velocity": 0.33858267716535434
        },
        {
          "duration": 0.005482395833332987,
          "durationTicks": 4,
          "midi": 35,
          "name": "B1",
          "ticks": 38784,
          "time": 53.157309999999995,
          "velocity": 0.8976377952755905
        },
        {
          "duration": 0.005482395833332987,
          "durationTicks": 4,
          "midi": 40,
          "name": "E2",
          "ticks": 38788,
          "time": 53.16279239583333,
          "velocity": 0.8976377952755905
        },
        {
          "duration": 0.005482395833332987,
          "durationTicks": 4,
          "midi": 44,
          "name": "G#2",
          "ticks": 38788,
          "time": 53.16279239583333,
          "velocity": 0.5984251968503937
        },
        {
          "duration": 0.005482395833332987,
          "durationTicks": 4,
          "midi": 39,
          "name": "D#2",
          "ticks": 38792,
          "time": 53.16827479166666,
          "velocity": 0.7795275590551181
        },
        {
          "duration": 0.005482395833332987,
          "durationTicks": 4,
          "midi": 60,
          "name": "C4",
          "ticks": 38880,
          "time": 53.288887499999994,
          "velocity": 0.31496062992125984
        },
        {
          "duration": 0.005482395833340092,
          "durationTicks": 4,
          "midi": 70,
          "name": "A#4",
          "ticks": 38976,
          "time": 53.42046499999999,
          "velocity": 0.5669291338582677
        },
        {
          "duration": 0.005482395833340092,
          "durationTicks": 4,
          "midi": 63,
          "name": "D#4",
          "ticks": 38976,
          "time": 53.42046499999999,
          "velocity": 0.31496062992125984
        },
        {
          "duration": 0.005482395833340092,
          "durationTicks": 4,
          "midi": 70,
          "name": "A#4",
          "ticks": 39072,
          "time": 53.55204249999999,
          "velocity": 0.6692913385826772
        },
        {
          "duration": 0.005482395833332987,
          "durationTicks": 4,
          "midi": 35,
          "name": "B1",
          "ticks": 39168,
          "time": 53.68362,
          "velocity": 0.8661417322834646
        },
        {
          "duration": 0.005482395833332987,
          "durationTicks": 4,
          "midi": 60,
          "name": "C4",
          "ticks": 39168,
          "time": 53.68362,
          "velocity": 0.4251968503937008
        },
        {
          "duration": 0.005482395833332987,
          "durationTicks": 4,
          "midi": 70,
          "name": "A#4",
          "ticks": 39360,
          "time": 53.946774999999995,
          "velocity": 0.7401574803149606
        },
        {
          "duration": 0.005482395833332987,
          "durationTicks": 4,
          "midi": 46,
          "name": "A#2",
          "ticks": 39364,
          "time": 53.95225739583333,
          "velocity": 0.49606299212598426
        },
        {
          "duration": 0.005482395833332987,
          "durationTicks": 4,
          "midi": 60,
          "name": "C4",
          "ticks": 39456,
          "time": 54.078352499999994,
          "velocity": 0.31496062992125984
        },
        {
          "duration": 0.005482395833340092,
          "durationTicks": 4,
          "midi": 35,
          "name": "B1",
          "ticks": 39552,
          "time": 54.20992999999999,
          "velocity": 0.8976377952755905
        },
        {
          "duration": 0.0054823958333258815,
          "durationTicks": 4,
          "midi": 40,
          "name": "E2",
          "ticks": 39556,
          "time": 54.21541239583333,
          "velocity": 0.8976377952755905
        },
        {
          "duration": 0.0054823958333258815,
          "durationTicks": 4,
          "midi": 44,
          "name": "G#2",
          "ticks": 39556,
          "time": 54.21541239583333,
          "velocity": 0.49606299212598426
        },
        {
          "duration": 0.005482395833332987,
          "durationTicks": 4,
          "midi": 39,
          "name": "D#2",
          "ticks": 39560,
          "time": 54.22089479166666,
          "velocity": 0.7795275590551181
        },
        {
          "duration": 0.005482395833340092,
          "durationTicks": 4,
          "midi": 60,
          "name": "C4",
          "ticks": 39648,
          "time": 54.34150749999999,
          "velocity": 0.33858267716535434
        },
        {
          "duration": 0.005482395833332987,
          "durationTicks": 4,
          "midi": 70,
          "name": "A#4",
          "ticks": 39744,
          "time": 54.473085,
          "velocity": 0.7401574803149606
        },
        {
          "duration": 0.005482395833332987,
          "durationTicks": 4,
          "midi": 63,
          "name": "D#4",
          "ticks": 39744,
          "time": 54.473085,
          "velocity": 0.4251968503937008
        },
        {
          "duration": 0.0054823958333258815,
          "durationTicks": 4,
          "midi": 46,
          "name": "A#2",
          "ticks": 39748,
          "time": 54.47856739583333,
          "velocity": 0.49606299212598426
        },
        {
          "duration": 0.005482395833332987,
          "durationTicks": 4,
          "midi": 35,
          "name": "B1",
          "ticks": 39936,
          "time": 54.736239999999995,
          "velocity": 0.8976377952755905
        },
        {
          "duration": 0.005482395833332987,
          "durationTicks": 4,
          "midi": 60,
          "name": "C4",
          "ticks": 39936,
          "time": 54.736239999999995,
          "velocity": 0.3858267716535433
        },
        {
          "duration": 0.005482395833332987,
          "durationTicks": 4,
          "midi": 44,
          "name": "G#2",
          "ticks": 39940,
          "time": 54.74172239583333,
          "velocity": 0.5275590551181102
        },
        {
          "duration": 0.005482395833340092,
          "durationTicks": 4,
          "midi": 70,
          "name": "A#4",
          "ticks": 40128,
          "time": 54.99939499999999,
          "velocity": 0.7795275590551181
        },
        {
          "duration": 0.0054823958333258815,
          "durationTicks": 4,
          "midi": 46,
          "name": "A#2",
          "ticks": 40132,
          "time": 55.00487739583333,
          "velocity": 0.49606299212598426
        },
        {
          "duration": 0.005482395833340092,
          "durationTicks": 4,
          "midi": 60,
          "name": "C4",
          "ticks": 40224,
          "time": 55.13097249999999,
          "velocity": 0.31496062992125984
        },
        {
          "duration": 0.005482395833332987,
          "durationTicks": 4,
          "midi": 35,
          "name": "B1",
          "ticks": 40320,
          "time": 55.26255,
          "velocity": 0.8661417322834646
        },
        {
          "duration": 0.0054823958333258815,
          "durationTicks": 4,
          "midi": 40,
          "name": "E2",
          "ticks": 40324,
          "time": 55.26803239583333,
          "velocity": 0.8976377952755905
        },
        {
          "duration": 0.0054823958333258815,
          "durationTicks": 4,
          "midi": 44,
          "name": "G#2",
          "ticks": 40324,
          "time": 55.26803239583333,
          "velocity": 0.49606299212598426
        },
        {
          "duration": 0.005482395833340092,
          "durationTicks": 4,
          "midi": 39,
          "name": "D#2",
          "ticks": 40328,
          "time": 55.273514791666656,
          "velocity": 0.7795275590551181
        },
        {
          "duration": 0.005482395833332987,
          "durationTicks": 4,
          "midi": 60,
          "name": "C4",
          "ticks": 40416,
          "time": 55.394127499999996,
          "velocity": 0.33858267716535434
        },
        {
          "duration": 0.005482395833332987,
          "durationTicks": 4,
          "midi": 70,
          "name": "A#4",
          "ticks": 40512,
          "time": 55.525704999999995,
          "velocity": 0.6141732283464567
        },
        {
          "duration": 0.005482395833332987,
          "durationTicks": 4,
          "midi": 63,
          "name": "D#4",
          "ticks": 40512,
          "time": 55.525704999999995,
          "velocity": 0.31496062992125984
        },
        {
          "duration": 0.005482395833332987,
          "durationTicks": 4,
          "midi": 46,
          "name": "A#2",
          "ticks": 40516,
          "time": 55.53118739583333,
          "velocity": 0.49606299212598426
        },
        {
          "duration": 0.005482395833332987,
          "durationTicks": 4,
          "midi": 70,
          "name": "A#4",
          "ticks": 40608,
          "time": 55.657282499999994,
          "velocity": 0.6692913385826772
        },
        {
          "duration": 0.005482395833340092,
          "durationTicks": 4,
          "midi": 35,
          "name": "B1",
          "ticks": 40704,
          "time": 55.78885999999999,
          "velocity": 0.8976377952755905
        },
        {
          "duration": 0.005482395833340092,
          "durationTicks": 4,
          "midi": 60,
          "name": "C4",
          "ticks": 40704,
          "time": 55.78885999999999,
          "velocity": 0.3858267716535433
        },
        {
          "duration": 0.0054823958333258815,
          "durationTicks": 4,
          "midi": 44,
          "name": "G#2",
          "ticks": 40708,
          "time": 55.79434239583333,
          "velocity": 0.49606299212598426
        },
        {
          "duration": 0.005482395833332987,
          "durationTicks": 4,
          "midi": 70,
          "name": "A#4",
          "ticks": 40896,
          "time": 56.052015,
          "velocity": 0.7795275590551181
        },
        {
          "duration": 0.0054823958333258815,
          "durationTicks": 4,
          "midi": 46,
          "name": "A#2",
          "ticks": 40900,
          "time": 56.05749739583333,
          "velocity": 0.49606299212598426
        },
        {
          "duration": 0.005482395833332987,
          "durationTicks": 4,
          "midi": 60,
          "name": "C4",
          "ticks": 40992,
          "time": 56.183592499999996,
          "velocity": 0.31496062992125984
        },
        {
          "duration": 0.005482395833332987,
          "durationTicks": 4,
          "midi": 35,
          "name": "B1",
          "ticks": 41088,
          "time": 56.315169999999995,
          "velocity": 0.8976377952755905
        },
        {
          "duration": 0.005482395833332987,
          "durationTicks": 4,
          "midi": 40,
          "name": "E2",
          "ticks": 41092,
          "time": 56.32065239583333,
          "velocity": 0.8976377952755905
        },
        {
          "duration": 0.005482395833332987,
          "durationTicks": 4,
          "midi": 44,
          "name": "G#2",
          "ticks": 41092,
          "time": 56.32065239583333,
          "velocity": 0.5275590551181102
        },
        {
          "duration": 0.005482395833332987,
          "durationTicks": 4,
          "midi": 39,
          "name": "D#2",
          "ticks": 41096,
          "time": 56.32613479166666,
          "velocity": 0.7795275590551181
        },
        {
          "duration": 0.005482395833332987,
          "durationTicks": 4,
          "midi": 60,
          "name": "C4",
          "ticks": 41184,
          "time": 56.446747499999994,
          "velocity": 0.31496062992125984
        },
        {
          "duration": 0.005482395833340092,
          "durationTicks": 4,
          "midi": 70,
          "name": "A#4",
          "ticks": 41280,
          "time": 56.57832499999999,
          "velocity": 0.6377952755905512
        },
        {
          "duration": 0.005482395833340092,
          "durationTicks": 4,
          "midi": 63,
          "name": "D#4",
          "ticks": 41280,
          "time": 56.57832499999999,
          "velocity": 0.3858267716535433
        },
        {
          "duration": 0.0054823958333258815,
          "durationTicks": 4,
          "midi": 46,
          "name": "A#2",
          "ticks": 41284,
          "time": 56.58380739583333,
          "velocity": 0.5275590551181102
        },
        {
          "duration": 0.005482395833340092,
          "durationTicks": 4,
          "midi": 70,
          "name": "A#4",
          "ticks": 41376,
          "time": 56.70990249999999,
          "velocity": 0.7795275590551181
        },
        {
          "duration": 0.005482395833332987,
          "durationTicks": 4,
          "midi": 35,
          "name": "B1",
          "ticks": 41472,
          "time": 56.84148,
          "velocity": 0.8661417322834646
        },
        {
          "duration": 0.005482395833332987,
          "durationTicks": 4,
          "midi": 69,
          "name": "A4",
          "ticks": 41472,
          "time": 56.84148,
          "velocity": 0.5826771653543307
        },
        {
          "duration": 0.005482395833332987,
          "durationTicks": 4,
          "midi": 60,
          "name": "C4",
          "ticks": 41472,
          "time": 56.84148,
          "velocity": 0.4251968503937008
        },
        {
          "duration": 0.0054823958333258815,
          "durationTicks": 4,
          "midi": 44,
          "name": "G#2",
          "ticks": 41476,
          "time": 56.84696239583333,
          "velocity": 0.5984251968503937
        },
        {
          "duration": 0.005482395833340092,
          "durationTicks": 4,
          "midi": 69,
          "name": "A4",
          "ticks": 41564,
          "time": 56.967575104166656,
          "velocity": 0.2204724409448819
        },
        {
          "duration": 0.005482395833340092,
          "durationTicks": 4,
          "midi": 69,
          "name": "A4",
          "ticks": 41648,
          "time": 57.082705416666656,
          "velocity": 0.8031496062992126
        },
        {
          "duration": 0.005482395833332987,
          "durationTicks": 4,
          "midi": 70,
          "name": "A#4",
          "ticks": 41664,
          "time": 57.104634999999995,
          "velocity": 0.7795275590551181
        },
        {
          "duration": 0.005482395833332987,
          "durationTicks": 4,
          "midi": 46,
          "name": "A#2",
          "ticks": 41668,
          "time": 57.11011739583333,
          "velocity": 0.49606299212598426
        },
        {
          "duration": 0.005482395833332987,
          "durationTicks": 4,
          "midi": 69,
          "name": "A4",
          "ticks": 41744,
          "time": 57.21428291666666,
          "velocity": 0.8031496062992126
        },
        {
          "duration": 0.005482395833332987,
          "durationTicks": 4,
          "midi": 60,
          "name": "C4",
          "ticks": 41760,
          "time": 57.23621249999999,
          "velocity": 0.4251968503937008
        },
        {
          "duration": 0.005482395833340092,
          "durationTicks": 4,
          "midi": 35,
          "name": "B1",
          "ticks": 41856,
          "time": 57.36778999999999,
          "velocity": 0.8976377952755905
        },
        {
          "duration": 0.0054823958333258815,
          "durationTicks": 4,
          "midi": 40,
          "name": "E2",
          "ticks": 41860,
          "time": 57.37327239583333,
          "velocity": 0.8661417322834646
        },
        {
          "duration": 0.0054823958333258815,
          "durationTicks": 4,
          "midi": 44,
          "name": "G#2",
          "ticks": 41860,
          "time": 57.37327239583333,
          "velocity": 0.47244094488188976
        },
        {
          "duration": 0.005482395833332987,
          "durationTicks": 4,
          "midi": 39,
          "name": "D#2",
          "ticks": 41864,
          "time": 57.37875479166666,
          "velocity": 0.7480314960629921
        },
        {
          "duration": 0.005482395833340092,
          "durationTicks": 4,
          "midi": 60,
          "name": "C4",
          "ticks": 41952,
          "time": 57.49936749999999,
          "velocity": 0.33858267716535434
        },
        {
          "duration": 0.005482395833332987,
          "durationTicks": 4,
          "midi": 70,
          "name": "A#4",
          "ticks": 42048,
          "time": 57.630945,
          "velocity": 0.6377952755905512
        },
        {
          "duration": 0.005482395833332987,
          "durationTicks": 4,
          "midi": 63,
          "name": "D#4",
          "ticks": 42048,
          "time": 57.630945,
          "velocity": 0.3858267716535433
        },
        {
          "duration": 0.005482395833332987,
          "durationTicks": 4,
          "midi": 70,
          "name": "A#4",
          "ticks": 42144,
          "time": 57.762522499999996,
          "velocity": 0.7795275590551181
        },
        {
          "duration": 0.005482395833332987,
          "durationTicks": 4,
          "midi": 35,
          "name": "B1",
          "ticks": 42240,
          "time": 57.894099999999995,
          "velocity": 0.8661417322834646
        },
        {
          "duration": 0.005482395833332987,
          "durationTicks": 4,
          "midi": 60,
          "name": "C4",
          "ticks": 42240,
          "time": 57.894099999999995,
          "velocity": 0.4251968503937008
        },
        {
          "duration": 0.005482395833340092,
          "durationTicks": 4,
          "midi": 70,
          "name": "A#4",
          "ticks": 42432,
          "time": 58.15725499999999,
          "velocity": 0.7401574803149606
        },
        {
          "duration": 0.0054823958333258815,
          "durationTicks": 4,
          "midi": 46,
          "name": "A#2",
          "ticks": 42436,
          "time": 58.16273739583333,
          "velocity": 0.5275590551181102
        },
        {
          "duration": 0.005482395833340092,
          "durationTicks": 4,
          "midi": 60,
          "name": "C4",
          "ticks": 42528,
          "time": 58.28883249999999,
          "velocity": 0.33858267716535434
        },
        {
          "duration": 0.005482395833332987,
          "durationTicks": 4,
          "midi": 35,
          "name": "B1",
          "ticks": 42624,
          "time": 58.42041,
          "velocity": 0.8976377952755905
        },
        {
          "duration": 0.0054823958333258815,
          "durationTicks": 4,
          "midi": 40,
          "name": "E2",
          "ticks": 42628,
          "time": 58.42589239583333,
          "velocity": 0.8661417322834646
        },
        {
          "duration": 0.0054823958333258815,
          "durationTicks": 4,
          "midi": 44,
          "name": "G#2",
          "ticks": 42628,
          "time": 58.42589239583333,
          "velocity": 0.5275590551181102
        },
        {
          "duration": 0.005482395833340092,
          "durationTicks": 4,
          "midi": 39,
          "name": "D#2",
          "ticks": 42632,
          "time": 58.431374791666656,
          "velocity": 0.7480314960629921
        },
        {
          "duration": 0.005482395833332987,
          "durationTicks": 4,
          "midi": 60,
          "name": "C4",
          "ticks": 42720,
          "time": 58.551987499999996,
          "velocity": 0.3858267716535433
        },
        {
          "duration": 0.005482395833332987,
          "durationTicks": 4,
          "midi": 70,
          "name": "A#4",
          "ticks": 42816,
          "time": 58.683564999999994,
          "velocity": 0.7401574803149606
        },
        {
          "duration": 0.005482395833332987,
          "durationTicks": 4,
          "midi": 63,
          "name": "D#4",
          "ticks": 42816,
          "time": 58.683564999999994,
          "velocity": 0.4251968503937008
        },
        {
          "duration": 0.005482395833332987,
          "durationTicks": 4,
          "midi": 46,
          "name": "A#2",
          "ticks": 42820,
          "time": 58.68904739583333,
          "velocity": 0.49606299212598426
        },
        {
          "duration": 0.005482395833340092,
          "durationTicks": 4,
          "midi": 35,
          "name": "B1",
          "ticks": 43008,
          "time": 58.94671999999999,
          "velocity": 0.8661417322834646
        },
        {
          "duration": 0.005482395833340092,
          "durationTicks": 4,
          "midi": 60,
          "name": "C4",
          "ticks": 43008,
          "time": 58.94671999999999,
          "velocity": 0.4251968503937008
        },
        {
          "duration": 0.0054823958333258815,
          "durationTicks": 4,
          "midi": 44,
          "name": "G#2",
          "ticks": 43012,
          "time": 58.95220239583333,
          "velocity": 0.49606299212598426
        },
        {
          "duration": 0.005482395833332987,
          "durationTicks": 4,
          "midi": 70,
          "name": "A#4",
          "ticks": 43200,
          "time": 59.209875,
          "velocity": 0.7401574803149606
        },
        {
          "duration": 0.0054823958333258815,
          "durationTicks": 4,
          "midi": 46,
          "name": "A#2",
          "ticks": 43204,
          "time": 59.21535739583333,
          "velocity": 0.47244094488188976
        },
        {
          "duration": 0.005482395833332987,
          "durationTicks": 4,
          "midi": 60,
          "name": "C4",
          "ticks": 43296,
          "time": 59.341452499999995,
          "velocity": 0.25984251968503935
        },
        {
          "duration": 0.005482395833332987,
          "durationTicks": 4,
          "midi": 35,
          "name": "B1",
          "ticks": 43392,
          "time": 59.473029999999994,
          "velocity": 0.8661417322834646
        },
        {
          "duration": 0.005482395833332987,
          "durationTicks": 4,
          "midi": 40,
          "name": "E2",
          "ticks": 43396,
          "time": 59.47851239583333,
          "velocity": 0.8661417322834646
        },
        {
          "duration": 0.005482395833332987,
          "durationTicks": 4,
          "midi": 44,
          "name": "G#2",
          "ticks": 43396,
          "time": 59.47851239583333,
          "velocity": 0.49606299212598426
        },
        {
          "duration": 0.005482395833332987,
          "durationTicks": 4,
          "midi": 39,
          "name": "D#2",
          "ticks": 43400,
          "time": 59.48399479166666,
          "velocity": 0.7480314960629921
        },
        {
          "duration": 0.005482395833332987,
          "durationTicks": 4,
          "midi": 60,
          "name": "C4",
          "ticks": 43488,
          "time": 59.60460749999999,
          "velocity": 0.28346456692913385
        },
        {
          "duration": 0.005482395833340092,
          "durationTicks": 4,
          "midi": 70,
          "name": "A#4",
          "ticks": 43584,
          "time": 59.73618499999999,
          "velocity": 0.6141732283464567
        },
        {
          "duration": 0.005482395833340092,
          "durationTicks": 4,
          "midi": 63,
          "name": "D#4",
          "ticks": 43584,
          "time": 59.73618499999999,
          "velocity": 0.3858267716535433
        },
        {
          "duration": 0.0054823958333258815,
          "durationTicks": 4,
          "midi": 46,
          "name": "A#2",
          "ticks": 43588,
          "time": 59.74166739583333,
          "velocity": 0.4251968503937008
        },
        {
          "duration": 0.005482395833340092,
          "durationTicks": 4,
          "midi": 70,
          "name": "A#4",
          "ticks": 43680,
          "time": 59.86776249999999,
          "velocity": 0.7401574803149606
        },
        {
          "duration": 0.005482395833332987,
          "durationTicks": 4,
          "midi": 35,
          "name": "B1",
          "ticks": 43776,
          "time": 59.99934,
          "velocity": 0.8661417322834646
        },
        {
          "duration": 0.005482395833332987,
          "durationTicks": 4,
          "midi": 60,
          "name": "C4",
          "ticks": 43776,
          "time": 59.99934,
          "velocity": 0.4251968503937008
        },
        {
          "duration": 0.0054823958333258815,
          "durationTicks": 4,
          "midi": 44,
          "name": "G#2",
          "ticks": 43780,
          "time": 60.00482239583333,
          "velocity": 0.49606299212598426
        },
        {
          "duration": 0.005482395833332987,
          "durationTicks": 4,
          "midi": 70,
          "name": "A#4",
          "ticks": 43968,
          "time": 60.262494999999994,
          "velocity": 0.7401574803149606
        },
        {
          "duration": 0.005482395833332987,
          "durationTicks": 4,
          "midi": 46,
          "name": "A#2",
          "ticks": 43972,
          "time": 60.26797739583333,
          "velocity": 0.4251968503937008
        },
        {
          "duration": 0.005482395833332987,
          "durationTicks": 4,
          "midi": 60,
          "name": "C4",
          "ticks": 44064,
          "time": 60.39407249999999,
          "velocity": 0.33858267716535434
        },
        {
          "duration": 0.005482395833340092,
          "durationTicks": 4,
          "midi": 35,
          "name": "B1",
          "ticks": 44160,
          "time": 60.52564999999999,
          "velocity": 0.8976377952755905
        },
        {
          "duration": 0.0054823958333258815,
          "durationTicks": 4,
          "midi": 40,
          "name": "E2",
          "ticks": 44164,
          "time": 60.53113239583333,
          "velocity": 0.8661417322834646
        },
        {
          "duration": 0.0054823958333258815,
          "durationTicks": 4,
          "midi": 44,
          "name": "G#2",
          "ticks": 44164,
          "time": 60.53113239583333,
          "velocity": 0.49606299212598426
        },
        {
          "duration": 0.005482395833332987,
          "durationTicks": 4,
          "midi": 39,
          "name": "D#2",
          "ticks": 44168,
          "time": 60.53661479166666,
          "velocity": 0.7480314960629921
        },
        {
          "duration": 0.005482395833340092,
          "durationTicks": 4,
          "midi": 60,
          "name": "C4",
          "ticks": 44256,
          "time": 60.65722749999999,
          "velocity": 0.31496062992125984
        },
        {
          "duration": 0.005482395833332987,
          "durationTicks": 4,
          "midi": 70,
          "name": "A#4",
          "ticks": 44352,
          "time": 60.788804999999996,
          "velocity": 0.6141732283464567
        },
        {
          "duration": 0.005482395833332987,
          "durationTicks": 4,
          "midi": 63,
          "name": "D#4",
          "ticks": 44352,
          "time": 60.788804999999996,
          "velocity": 0.3858267716535433
        },
        {
          "duration": 0.0054823958333258815,
          "durationTicks": 4,
          "midi": 46,
          "name": "A#2",
          "ticks": 44356,
          "time": 60.79428739583333,
          "velocity": 0.47244094488188976
        },
        {
          "duration": 0.005482395833332987,
          "durationTicks": 4,
          "midi": 70,
          "name": "A#4",
          "ticks": 44448,
          "time": 60.920382499999995,
          "velocity": 0.7795275590551181
        },
        {
          "duration": 0.005482395833332987,
          "durationTicks": 4,
          "midi": 35,
          "name": "B1",
          "ticks": 44544,
          "time": 61.051959999999994,
          "velocity": 0.8976377952755905
        },
        {
          "duration": 0.005482395833332987,
          "durationTicks": 4,
          "midi": 69,
          "name": "A4",
          "ticks": 44544,
          "time": 61.051959999999994,
          "velocity": 0.5826771653543307
        },
        {
          "duration": 0.005482395833332987,
          "durationTicks": 4,
          "midi": 60,
          "name": "C4",
          "ticks": 44544,
          "time": 61.051959999999994,
          "velocity": 0.4251968503937008
        },
        {
          "duration": 0.005482395833332987,
          "durationTicks": 4,
          "midi": 44,
          "name": "G#2",
          "ticks": 44548,
          "time": 61.05744239583333,
          "velocity": 0.49606299212598426
        },
        {
          "duration": 0.005482395833332987,
          "durationTicks": 4,
          "midi": 69,
          "name": "A4",
          "ticks": 44636,
          "time": 61.17805510416666,
          "velocity": 0.2204724409448819
        },
        {
          "duration": 0.005482395833332987,
          "durationTicks": 4,
          "midi": 69,
          "name": "A4",
          "ticks": 44720,
          "time": 61.29318541666666,
          "velocity": 0.8031496062992126
        },
        {
          "duration": 0.005482395833340092,
          "durationTicks": 4,
          "midi": 70,
          "name": "A#4",
          "ticks": 44736,
          "time": 61.31511499999999,
          "velocity": 0.7401574803149606
        },
        {
          "duration": 0.0054823958333258815,
          "durationTicks": 4,
          "midi": 46,
          "name": "A#2",
          "ticks": 44740,
          "time": 61.32059739583333,
          "velocity": 0.5275590551181102
        },
        {
          "duration": 0.005482395833332987,
          "durationTicks": 4,
          "midi": 69,
          "name": "A4",
          "ticks": 44816,
          "time": 61.42476291666666,
          "velocity": 0.8031496062992126
        },
        {
          "duration": 0.005482395833340092,
          "durationTicks": 4,
          "midi": 60,
          "name": "C4",
          "ticks": 44832,
          "time": 61.44669249999999,
          "velocity": 0.33858267716535434
        },
        {
          "duration": 0.005482395833332987,
          "durationTicks": 4,
          "midi": 35,
          "name": "B1",
          "ticks": 44928,
          "time": 61.578269999999996,
          "velocity": 0.8976377952755905
        },
        {
          "duration": 0.0054823958333258815,
          "durationTicks": 4,
          "midi": 40,
          "name": "E2",
          "ticks": 44932,
          "time": 61.58375239583333,
          "velocity": 0.8976377952755905
        },
        {
          "duration": 0.0054823958333258815,
          "durationTicks": 4,
          "midi": 44,
          "name": "G#2",
          "ticks": 44932,
          "time": 61.58375239583333,
          "velocity": 0.5984251968503937
        },
        {
          "duration": 0.005482395833340092,
          "durationTicks": 4,
          "midi": 39,
          "name": "D#2",
          "ticks": 44936,
          "time": 61.589234791666655,
          "velocity": 0.7795275590551181
        },
        {
          "duration": 0.005482395833332987,
          "durationTicks": 4,
          "midi": 60,
          "name": "C4",
          "ticks": 45024,
          "time": 61.709847499999995,
          "velocity": 0.31496062992125984
        },
        {
          "duration": 0.005482395833332987,
          "durationTicks": 4,
          "midi": 70,
          "name": "A#4",
          "ticks": 45120,
          "time": 61.841424999999994,
          "velocity": 0.5669291338582677
        },
        {
          "duration": 0.005482395833332987,
          "durationTicks": 4,
          "midi": 63,
          "name": "D#4",
          "ticks": 45120,
          "time": 61.841424999999994,
          "velocity": 0.31496062992125984
        },
        {
          "duration": 0.005482395833340092,
          "durationTicks": 4,
          "midi": 70,
          "name": "A#4",
          "ticks": 45216,
          "time": 61.97300249999999,
          "velocity": 0.6692913385826772
        },
        {
          "duration": 0.005482395833340092,
          "durationTicks": 4,
          "midi": 35,
          "name": "B1",
          "ticks": 45312,
          "time": 62.10457999999999,
          "velocity": 0.8661417322834646
        },
        {
          "duration": 0.005482395833340092,
          "durationTicks": 4,
          "midi": 60,
          "name": "C4",
          "ticks": 45312,
          "time": 62.10457999999999,
          "velocity": 0.4251968503937008
        },
        {
          "duration": 0.005482395833332987,
          "durationTicks": 4,
          "midi": 70,
          "name": "A#4",
          "ticks": 45504,
          "time": 62.367734999999996,
          "velocity": 0.7401574803149606
        },
        {
          "duration": 0.0054823958333258815,
          "durationTicks": 4,
          "midi": 46,
          "name": "A#2",
          "ticks": 45508,
          "time": 62.37321739583333,
          "velocity": 0.49606299212598426
        },
        {
          "duration": 0.005482395833332987,
          "durationTicks": 4,
          "midi": 60,
          "name": "C4",
          "ticks": 45600,
          "time": 62.499312499999995,
          "velocity": 0.31496062992125984
        },
        {
          "duration": 0.005482395833332987,
          "durationTicks": 4,
          "midi": 35,
          "name": "B1",
          "ticks": 45696,
          "time": 62.630889999999994,
          "velocity": 0.8976377952755905
        },
        {
          "duration": 0.005482395833332987,
          "durationTicks": 4,
          "midi": 40,
          "name": "E2",
          "ticks": 45700,
          "time": 62.63637239583333,
          "velocity": 0.8976377952755905
        },
        {
          "duration": 0.005482395833332987,
          "durationTicks": 4,
          "midi": 44,
          "name": "G#2",
          "ticks": 45700,
          "time": 62.63637239583333,
          "velocity": 0.49606299212598426
        },
        {
          "duration": 0.005482395833332987,
          "durationTicks": 4,
          "midi": 39,
          "name": "D#2",
          "ticks": 45704,
          "time": 62.64185479166666,
          "velocity": 0.7795275590551181
        },
        {
          "duration": 0.005482395833340092,
          "durationTicks": 4,
          "midi": 60,
          "name": "C4",
          "ticks": 45792,
          "time": 62.76246749999999,
          "velocity": 0.33858267716535434
        },
        {
          "duration": 0.005482395833340092,
          "durationTicks": 4,
          "midi": 70,
          "name": "A#4",
          "ticks": 45888,
          "time": 62.89404499999999,
          "velocity": 0.7401574803149606
        },
        {
          "duration": 0.005482395833340092,
          "durationTicks": 4,
          "midi": 63,
          "name": "D#4",
          "ticks": 45888,
          "time": 62.89404499999999,
          "velocity": 0.4251968503937008
        },
        {
          "duration": 0.0054823958333258815,
          "durationTicks": 4,
          "midi": 46,
          "name": "A#2",
          "ticks": 45892,
          "time": 62.89952739583333,
          "velocity": 0.49606299212598426
        },
        {
          "duration": 0.005482395833332987,
          "durationTicks": 4,
          "midi": 35,
          "name": "B1",
          "ticks": 46080,
          "time": 63.157199999999996,
          "velocity": 0.8976377952755905
        },
        {
          "duration": 0.005482395833332987,
          "durationTicks": 4,
          "midi": 60,
          "name": "C4",
          "ticks": 46080,
          "time": 63.157199999999996,
          "velocity": 0.3858267716535433
        },
        {
          "duration": 0.0054823958333258815,
          "durationTicks": 4,
          "midi": 44,
          "name": "G#2",
          "ticks": 46084,
          "time": 63.16268239583333,
          "velocity": 0.5275590551181102
        },
        {
          "duration": 0.005482395833332987,
          "durationTicks": 4,
          "midi": 70,
          "name": "A#4",
          "ticks": 46272,
          "time": 63.420354999999994,
          "velocity": 0.7795275590551181
        },
        {
          "duration": 0.005482395833332987,
          "durationTicks": 4,
          "midi": 46,
          "name": "A#2",
          "ticks": 46276,
          "time": 63.42583739583333,
          "velocity": 0.49606299212598426
        },
        {
          "duration": 0.005482395833340092,
          "durationTicks": 4,
          "midi": 60,
          "name": "C4",
          "ticks": 46368,
          "time": 63.55193249999999,
          "velocity": 0.31496062992125984
        },
        {
          "duration": 0.005482395833340092,
          "durationTicks": 4,
          "midi": 35,
          "name": "B1",
          "ticks": 46464,
          "time": 63.68350999999999,
          "velocity": 0.8661417322834646
        },
        {
          "duration": 0.0054823958333258815,
          "durationTicks": 4,
          "midi": 40,
          "name": "E2",
          "ticks": 46468,
          "time": 63.68899239583333,
          "velocity": 0.8976377952755905
        },
        {
          "duration": 0.0054823958333258815,
          "durationTicks": 4,
          "midi": 44,
          "name": "G#2",
          "ticks": 46468,
          "time": 63.68899239583333,
          "velocity": 0.49606299212598426
        },
        {
          "duration": 0.005482395833332987,
          "durationTicks": 4,
          "midi": 39,
          "name": "D#2",
          "ticks": 46472,
          "time": 63.69447479166666,
          "velocity": 0.7795275590551181
        },
        {
          "duration": 0.005482395833340092,
          "durationTicks": 4,
          "midi": 60,
          "name": "C4",
          "ticks": 46560,
          "time": 63.81508749999999,
          "velocity": 0.33858267716535434
        },
        {
          "duration": 0.005482395833332987,
          "durationTicks": 4,
          "midi": 70,
          "name": "A#4",
          "ticks": 46656,
          "time": 63.946664999999996,
          "velocity": 0.6141732283464567
        },
        {
          "duration": 0.005482395833332987,
          "durationTicks": 4,
          "midi": 63,
          "name": "D#4",
          "ticks": 46656,
          "time": 63.946664999999996,
          "velocity": 0.31496062992125984
        },
        {
          "duration": 0.0054823958333258815,
          "durationTicks": 4,
          "midi": 46,
          "name": "A#2",
          "ticks": 46660,
          "time": 63.95214739583333,
          "velocity": 0.49606299212598426
        },
        {
          "duration": 0.005482395833340092,
          "durationTicks": 4,
          "midi": 70,
          "name": "A#4",
          "ticks": 46752,
          "time": 64.07824249999999,
          "velocity": 0.6692913385826772
        },
        {
          "duration": 0.005482395833340092,
          "durationTicks": 4,
          "midi": 35,
          "name": "B1",
          "ticks": 46848,
          "time": 64.20982,
          "velocity": 0.8976377952755905
        },
        {
          "duration": 0.005482395833340092,
          "durationTicks": 4,
          "midi": 60,
          "name": "C4",
          "ticks": 46848,
          "time": 64.20982,
          "velocity": 0.3858267716535433
        },
        {
          "duration": 0.0054823958333258815,
          "durationTicks": 4,
          "midi": 40,
          "name": "E2",
          "ticks": 46852,
          "time": 64.21530239583333,
          "velocity": 0.8661417322834646
        },
        {
          "duration": 0.0054823958333258815,
          "durationTicks": 4,
          "midi": 44,
          "name": "G#2",
          "ticks": 46852,
          "time": 64.21530239583333,
          "velocity": 0.49606299212598426
        },
        {
          "duration": 0.005482395833340092,
          "durationTicks": 4,
          "midi": 39,
          "name": "D#2",
          "ticks": 46856,
          "time": 64.22078479166666,
          "velocity": 0.7480314960629921
        },
        {
          "duration": 0.005482395833340092,
          "durationTicks": 4,
          "midi": 70,
          "name": "A#4",
          "ticks": 47040,
          "time": 64.47297499999999,
          "velocity": 0.7795275590551181
        },
        {
          "duration": 0.0054823958333258815,
          "durationTicks": 4,
          "midi": 46,
          "name": "A#2",
          "ticks": 47044,
          "time": 64.47845739583333,
          "velocity": 0.49606299212598426
        },
        {
          "duration": 0.0054823958333258815,
          "durationTicks": 4,
          "midi": 60,
          "name": "C4",
          "ticks": 47136,
          "time": 64.6045525,
          "velocity": 0.31496062992125984
        },
        {
          "duration": 0.005482395833340092,
          "durationTicks": 4,
          "midi": 35,
          "name": "B1",
          "ticks": 47232,
          "time": 64.73612999999999,
          "velocity": 0.8976377952755905
        },
        {
          "duration": 0.0054823958333258815,
          "durationTicks": 4,
          "midi": 40,
          "name": "E2",
          "ticks": 47236,
          "time": 64.74161239583333,
          "velocity": 0.8976377952755905
        },
        {
          "duration": 0.0054823958333258815,
          "durationTicks": 4,
          "midi": 44,
          "name": "G#2",
          "ticks": 47236,
          "time": 64.74161239583333,
          "velocity": 0.5275590551181102
        },
        {
          "duration": 0.005482395833340092,
          "durationTicks": 4,
          "midi": 39,
          "name": "D#2",
          "ticks": 47240,
          "time": 64.74709479166665,
          "velocity": 0.7795275590551181
        },
        {
          "duration": 0.005482395833340092,
          "durationTicks": 4,
          "midi": 60,
          "name": "C4",
          "ticks": 47328,
          "time": 64.8677075,
          "velocity": 0.31496062992125984
        },
        {
          "duration": 0.0054823958333258815,
          "durationTicks": 4,
          "midi": 40,
          "name": "E2",
          "ticks": 47332,
          "time": 64.87318989583333,
          "velocity": 0.8976377952755905
        },
        {
          "duration": 0.0054823958333258815,
          "durationTicks": 4,
          "midi": 39,
          "name": "D#2",
          "ticks": 47336,
          "time": 64.87867229166666,
          "velocity": 0.7795275590551181
        },
        {
          "duration": 0.005482395833340092,
          "durationTicks": 4,
          "midi": 70,
          "name": "A#4",
          "ticks": 47424,
          "time": 64.99928499999999,
          "velocity": 0.6377952755905512
        },
        {
          "duration": 0.005482395833340092,
          "durationTicks": 4,
          "midi": 63,
          "name": "D#4",
          "ticks": 47424,
          "time": 64.99928499999999,
          "velocity": 0.3858267716535433
        },
        {
          "duration": 0.0054823958333258815,
          "durationTicks": 4,
          "midi": 46,
          "name": "A#2",
          "ticks": 47428,
          "time": 65.00476739583333,
          "velocity": 0.5275590551181102
        },
        {
          "duration": 0.005482395833340092,
          "durationTicks": 4,
          "midi": 70,
          "name": "A#4",
          "ticks": 47520,
          "time": 65.13086249999999,
          "velocity": 0.7795275590551181
        },
        {
          "duration": 0.0054823958333258815,
          "durationTicks": 4,
          "midi": 35,
          "name": "B1",
          "ticks": 47616,
          "time": 65.26244,
          "velocity": 0.8661417322834646
        },
        {
          "duration": 0.0054823958333258815,
          "durationTicks": 4,
          "midi": 69,
          "name": "A4",
          "ticks": 47616,
          "time": 65.26244,
          "velocity": 0.5826771653543307
        },
        {
          "duration": 0.0054823958333258815,
          "durationTicks": 4,
          "midi": 60,
          "name": "C4",
          "ticks": 47616,
          "time": 65.26244,
          "velocity": 0.4251968503937008
        },
        {
          "duration": 0.005482395833340092,
          "durationTicks": 4,
          "midi": 44,
          "name": "G#2",
          "ticks": 47620,
          "time": 65.26792239583332,
          "velocity": 0.5984251968503937
        },
        {
          "duration": 0.0054823958333258815,
          "durationTicks": 4,
          "midi": 69,
          "name": "A4",
          "ticks": 47708,
          "time": 65.38853510416666,
          "velocity": 0.2204724409448819
        },
        {
          "duration": 0.0054823958333258815,
          "durationTicks": 4,
          "midi": 69,
          "name": "A4",
          "ticks": 47792,
          "time": 65.50366541666666,
          "velocity": 0.8031496062992126
        },
        {
          "duration": 0.005482395833340092,
          "durationTicks": 4,
          "midi": 70,
          "name": "A#4",
          "ticks": 47808,
          "time": 65.525595,
          "velocity": 0.7795275590551181
        },
        {
          "duration": 0.0054823958333258815,
          "durationTicks": 4,
          "midi": 46,
          "name": "A#2",
          "ticks": 47812,
          "time": 65.53107739583334,
          "velocity": 0.49606299212598426
        },
        {
          "duration": 0.005482395833340092,
          "durationTicks": 4,
          "midi": 69,
          "name": "A4",
          "ticks": 47888,
          "time": 65.63524291666666,
          "velocity": 0.8031496062992126
        },
        {
          "duration": 0.005482395833340092,
          "durationTicks": 4,
          "midi": 60,
          "name": "C4",
          "ticks": 47904,
          "time": 65.65717249999999,
          "velocity": 0.4251968503937008
        },
        {
          "duration": 0.005482395833340092,
          "durationTicks": 4,
          "midi": 35,
          "name": "B1",
          "ticks": 48000,
          "time": 65.78875,
          "velocity": 0.8976377952755905
        },
        {
          "duration": 0.0054823958333258815,
          "durationTicks": 4,
          "midi": 40,
          "name": "E2",
          "ticks": 48004,
          "time": 65.79423239583333,
          "velocity": 0.8661417322834646
        },
        {
          "duration": 0.0054823958333258815,
          "durationTicks": 4,
          "midi": 44,
          "name": "G#2",
          "ticks": 48004,
          "time": 65.79423239583333,
          "velocity": 0.47244094488188976
        },
        {
          "duration": 0.005482395833340092,
          "durationTicks": 4,
          "midi": 39,
          "name": "D#2",
          "ticks": 48008,
          "time": 65.79971479166666,
          "velocity": 0.7480314960629921
        },
        {
          "duration": 0.0054823958333258815,
          "durationTicks": 4,
          "midi": 60,
          "name": "C4",
          "ticks": 48096,
          "time": 65.9203275,
          "velocity": 0.33858267716535434
        },
        {
          "duration": 0.005482395833340092,
          "durationTicks": 4,
          "midi": 70,
          "name": "A#4",
          "ticks": 48192,
          "time": 66.05190499999999,
          "velocity": 0.6377952755905512
        },
        {
          "duration": 0.005482395833340092,
          "durationTicks": 4,
          "midi": 63,
          "name": "D#4",
          "ticks": 48192,
          "time": 66.05190499999999,
          "velocity": 0.3858267716535433
        },
        {
          "duration": 0.0054823958333258815,
          "durationTicks": 4,
          "midi": 70,
          "name": "A#4",
          "ticks": 48288,
          "time": 66.1834825,
          "velocity": 0.7795275590551181
        },
        {
          "duration": 0.005482395833340092,
          "durationTicks": 4,
          "midi": 35,
          "name": "B1",
          "ticks": 48384,
          "time": 66.31505999999999,
          "velocity": 0.8661417322834646
        },
        {
          "duration": 0.005482395833340092,
          "durationTicks": 4,
          "midi": 60,
          "name": "C4",
          "ticks": 48384,
          "time": 66.31505999999999,
          "velocity": 0.4251968503937008
        },
        {
          "duration": 0.005482395833340092,
          "durationTicks": 4,
          "midi": 70,
          "name": "A#4",
          "ticks": 48576,
          "time": 66.57821499999999,
          "velocity": 0.7401574803149606
        },
        {
          "duration": 0.0054823958333258815,
          "durationTicks": 4,
          "midi": 46,
          "name": "A#2",
          "ticks": 48580,
          "time": 66.58369739583333,
          "velocity": 0.5275590551181102
        },
        {
          "duration": 0.005482395833340092,
          "durationTicks": 4,
          "midi": 60,
          "name": "C4",
          "ticks": 48672,
          "time": 66.70979249999999,
          "velocity": 0.33858267716535434
        },
        {
          "duration": 0.0054823958333258815,
          "durationTicks": 4,
          "midi": 35,
          "name": "B1",
          "ticks": 48768,
          "time": 66.84137,
          "velocity": 0.8976377952755905
        },
        {
          "duration": 0.005482395833340092,
          "durationTicks": 4,
          "midi": 40,
          "name": "E2",
          "ticks": 48772,
          "time": 66.84685239583332,
          "velocity": 0.8661417322834646
        },
        {
          "duration": 0.005482395833340092,
          "durationTicks": 4,
          "midi": 44,
          "name": "G#2",
          "ticks": 48772,
          "time": 66.84685239583332,
          "velocity": 0.5275590551181102
        },
        {
          "duration": 0.0054823958333258815,
          "durationTicks": 4,
          "midi": 39,
          "name": "D#2",
          "ticks": 48776,
          "time": 66.85233479166666,
          "velocity": 0.7480314960629921
        },
        {
          "duration": 0.005482395833340092,
          "durationTicks": 4,
          "midi": 60,
          "name": "C4",
          "ticks": 48864,
          "time": 66.97294749999999,
          "velocity": 0.3858267716535433
        },
        {
          "duration": 0.005482395833340092,
          "durationTicks": 4,
          "midi": 70,
          "name": "A#4",
          "ticks": 48960,
          "time": 67.104525,
          "velocity": 0.7401574803149606
        },
        {
          "duration": 0.005482395833340092,
          "durationTicks": 4,
          "midi": 63,
          "name": "D#4",
          "ticks": 48960,
          "time": 67.104525,
          "velocity": 0.4251968503937008
        },
        {
          "duration": 0.0054823958333258815,
          "durationTicks": 4,
          "midi": 46,
          "name": "A#2",
          "ticks": 48964,
          "time": 67.11000739583334,
          "velocity": 0.49606299212598426
        },
        {
          "duration": 0.0054823958333258815,
          "durationTicks": 4,
          "midi": 35,
          "name": "B1",
          "ticks": 49152,
          "time": 67.36768,
          "velocity": 0.8661417322834646
        },
        {
          "duration": 0.0054823958333258815,
          "durationTicks": 4,
          "midi": 60,
          "name": "C4",
          "ticks": 49152,
          "time": 67.36768,
          "velocity": 0.4251968503937008
        },
        {
          "duration": 0.005482395833340092,
          "durationTicks": 4,
          "midi": 44,
          "name": "G#2",
          "ticks": 49156,
          "time": 67.37316239583332,
          "velocity": 0.49606299212598426
        },
        {
          "duration": 0.0054823958333258815,
          "durationTicks": 4,
          "midi": 70,
          "name": "A#4",
          "ticks": 49344,
          "time": 67.63083499999999,
          "velocity": 0.7401574803149606
        },
        {
          "duration": 0.005482395833354303,
          "durationTicks": 4,
          "midi": 46,
          "name": "A#2",
          "ticks": 49348,
          "time": 67.63631739583332,
          "velocity": 0.47244094488188976
        },
        {
          "duration": 0.0054823958333258815,
          "durationTicks": 4,
          "midi": 60,
          "name": "C4",
          "ticks": 49440,
          "time": 67.7624125,
          "velocity": 0.25984251968503935
        },
        {
          "duration": 0.005482395833340092,
          "durationTicks": 4,
          "midi": 35,
          "name": "B1",
          "ticks": 49536,
          "time": 67.89398999999999,
          "velocity": 0.8661417322834646
        },
        {
          "duration": 0.005482395833340092,
          "durationTicks": 4,
          "midi": 40,
          "name": "E2",
          "ticks": 49540,
          "time": 67.89947239583333,
          "velocity": 0.8661417322834646
        },
        {
          "duration": 0.005482395833340092,
          "durationTicks": 4,
          "midi": 44,
          "name": "G#2",
          "ticks": 49540,
          "time": 67.89947239583333,
          "velocity": 0.49606299212598426
        },
        {
          "duration": 0.0054823958333258815,
          "durationTicks": 4,
          "midi": 39,
          "name": "D#2",
          "ticks": 49544,
          "time": 67.90495479166667,
          "velocity": 0.7480314960629921
        },
        {
          "duration": 0.0054823958333258815,
          "durationTicks": 4,
          "midi": 60,
          "name": "C4",
          "ticks": 49632,
          "time": 68.0255675,
          "velocity": 0.28346456692913385
        },
        {
          "duration": 0.0054823958333258815,
          "durationTicks": 4,
          "midi": 70,
          "name": "A#4",
          "ticks": 49728,
          "time": 68.157145,
          "velocity": 0.6141732283464567
        },
        {
          "duration": 0.0054823958333258815,
          "durationTicks": 4,
          "midi": 63,
          "name": "D#4",
          "ticks": 49728,
          "time": 68.157145,
          "velocity": 0.3858267716535433
        },
        {
          "duration": 0.005482395833340092,
          "durationTicks": 4,
          "midi": 46,
          "name": "A#2",
          "ticks": 49732,
          "time": 68.16262739583333,
          "velocity": 0.4251968503937008
        },
        {
          "duration": 0.0054823958333258815,
          "durationTicks": 4,
          "midi": 70,
          "name": "A#4",
          "ticks": 49824,
          "time": 68.28872249999999,
          "velocity": 0.7401574803149606
        },
        {
          "duration": 0.0054823958333258815,
          "durationTicks": 4,
          "midi": 35,
          "name": "B1",
          "ticks": 49920,
          "time": 68.4203,
          "velocity": 0.8661417322834646
        },
        {
          "duration": 0.0054823958333258815,
          "durationTicks": 4,
          "midi": 60,
          "name": "C4",
          "ticks": 49920,
          "time": 68.4203,
          "velocity": 0.4251968503937008
        },
        {
          "duration": 0.005482395833340092,
          "durationTicks": 4,
          "midi": 44,
          "name": "G#2",
          "ticks": 49924,
          "time": 68.42578239583332,
          "velocity": 0.49606299212598426
        },
        {
          "duration": 0.0054823958333258815,
          "durationTicks": 4,
          "midi": 70,
          "name": "A#4",
          "ticks": 50112,
          "time": 68.683455,
          "velocity": 0.7401574803149606
        },
        {
          "duration": 0.005482395833340092,
          "durationTicks": 4,
          "midi": 46,
          "name": "A#2",
          "ticks": 50116,
          "time": 68.68893739583332,
          "velocity": 0.4251968503937008
        },
        {
          "duration": 0.005482395833340092,
          "durationTicks": 4,
          "midi": 60,
          "name": "C4",
          "ticks": 50208,
          "time": 68.81503249999999,
          "velocity": 0.33858267716535434
        },
        {
          "duration": 0.0054823958333258815,
          "durationTicks": 4,
          "midi": 35,
          "name": "B1",
          "ticks": 50304,
          "time": 68.94660999999999,
          "velocity": 0.8976377952755905
        },
        {
          "duration": 0.005482395833340092,
          "durationTicks": 4,
          "midi": 40,
          "name": "E2",
          "ticks": 50308,
          "time": 68.95209239583332,
          "velocity": 0.8661417322834646
        },
        {
          "duration": 0.005482395833340092,
          "durationTicks": 4,
          "midi": 44,
          "name": "G#2",
          "ticks": 50308,
          "time": 68.95209239583332,
          "velocity": 0.49606299212598426
        },
        {
          "duration": 0.005482395833340092,
          "durationTicks": 4,
          "midi": 39,
          "name": "D#2",
          "ticks": 50312,
          "time": 68.95757479166666,
          "velocity": 0.7480314960629921
        },
        {
          "duration": 0.0054823958333258815,
          "durationTicks": 4,
          "midi": 60,
          "name": "C4",
          "ticks": 50400,
          "time": 69.0781875,
          "velocity": 0.31496062992125984
        },
        {
          "duration": 0.0054823958333258815,
          "durationTicks": 4,
          "midi": 70,
          "name": "A#4",
          "ticks": 50496,
          "time": 69.20976499999999,
          "velocity": 0.6141732283464567
        },
        {
          "duration": 0.0054823958333258815,
          "durationTicks": 4,
          "midi": 63,
          "name": "D#4",
          "ticks": 50496,
          "time": 69.20976499999999,
          "velocity": 0.3858267716535433
        },
        {
          "duration": 0.005482395833354303,
          "durationTicks": 4,
          "midi": 46,
          "name": "A#2",
          "ticks": 50500,
          "time": 69.21524739583332,
          "velocity": 0.47244094488188976
        },
        {
          "duration": 0.0054823958333258815,
          "durationTicks": 4,
          "midi": 70,
          "name": "A#4",
          "ticks": 50592,
          "time": 69.3413425,
          "velocity": 0.7795275590551181
        },
        {
          "duration": 0.005482395833340092,
          "durationTicks": 4,
          "midi": 35,
          "name": "B1",
          "ticks": 50688,
          "time": 69.47291999999999,
          "velocity": 0.8976377952755905
        },
        {
          "duration": 0.005482395833340092,
          "durationTicks": 4,
          "midi": 69,
          "name": "A4",
          "ticks": 50688,
          "time": 69.47291999999999,
          "velocity": 0.5826771653543307
        },
        {
          "duration": 0.005482395833340092,
          "durationTicks": 4,
          "midi": 60,
          "name": "C4",
          "ticks": 50688,
          "time": 69.47291999999999,
          "velocity": 0.4251968503937008
        },
        {
          "duration": 0.005482395833340092,
          "durationTicks": 4,
          "midi": 44,
          "name": "G#2",
          "ticks": 50692,
          "time": 69.47840239583333,
          "velocity": 0.49606299212598426
        },
        {
          "duration": 0.0054823958333258815,
          "durationTicks": 4,
          "midi": 69,
          "name": "A4",
          "ticks": 50780,
          "time": 69.59901510416667,
          "velocity": 0.2204724409448819
        },
        {
          "duration": 0.0054823958333258815,
          "durationTicks": 4,
          "midi": 69,
          "name": "A4",
          "ticks": 50864,
          "time": 69.71414541666667,
          "velocity": 0.8031496062992126
        },
        {
          "duration": 0.0054823958333258815,
          "durationTicks": 4,
          "midi": 70,
          "name": "A#4",
          "ticks": 50880,
          "time": 69.736075,
          "velocity": 0.7401574803149606
        },
        {
          "duration": 0.005482395833340092,
          "durationTicks": 4,
          "midi": 46,
          "name": "A#2",
          "ticks": 50884,
          "time": 69.74155739583333,
          "velocity": 0.5275590551181102
        },
        {
          "duration": 0.005482395833340092,
          "durationTicks": 4,
          "midi": 69,
          "name": "A4",
          "ticks": 50960,
          "time": 69.84572291666666,
          "velocity": 0.8031496062992126
        },
        {
          "duration": 0.0054823958333258815,
          "durationTicks": 4,
          "midi": 60,
          "name": "C4",
          "ticks": 50976,
          "time": 69.86765249999999,
          "velocity": 0.33858267716535434
        },
        {
          "duration": 0.0054823958333258815,
          "durationTicks": 4,
          "midi": 35,
          "name": "B1",
          "ticks": 51072,
          "time": 69.99923,
          "velocity": 0.8976377952755905
        },
        {
          "duration": 0.005482395833340092,
          "durationTicks": 4,
          "midi": 40,
          "name": "E2",
          "ticks": 51076,
          "time": 70.00471239583332,
          "velocity": 0.8976377952755905
        },
        {
          "duration": 0.005482395833340092,
          "durationTicks": 4,
          "midi": 44,
          "name": "G#2",
          "ticks": 51076,
          "time": 70.00471239583332,
          "velocity": 0.5984251968503937
        },
        {
          "duration": 0.0054823958333258815,
          "durationTicks": 4,
          "midi": 39,
          "name": "D#2",
          "ticks": 51080,
          "time": 70.01019479166666,
          "velocity": 0.7795275590551181
        },
        {
          "duration": 0.0054823958333258815,
          "durationTicks": 4,
          "midi": 60,
          "name": "C4",
          "ticks": 51168,
          "time": 70.13080749999999,
          "velocity": 0.31496062992125984
        },
        {
          "duration": 0.0054823958333258815,
          "durationTicks": 4,
          "midi": 70,
          "name": "A#4",
          "ticks": 51264,
          "time": 70.262385,
          "velocity": 0.5669291338582677
        },
        {
          "duration": 0.0054823958333258815,
          "durationTicks": 4,
          "midi": 63,
          "name": "D#4",
          "ticks": 51264,
          "time": 70.262385,
          "velocity": 0.31496062992125984
        },
        {
          "duration": 0.005482395833340092,
          "durationTicks": 4,
          "midi": 70,
          "name": "A#4",
          "ticks": 51360,
          "time": 70.39396249999999,
          "velocity": 0.6692913385826772
        },
        {
          "duration": 0.0054823958333258815,
          "durationTicks": 4,
          "midi": 35,
          "name": "B1",
          "ticks": 51456,
          "time": 70.52553999999999,
          "velocity": 0.8661417322834646
        },
        {
          "duration": 0.0054823958333258815,
          "durationTicks": 4,
          "midi": 60,
          "name": "C4",
          "ticks": 51456,
          "time": 70.52553999999999,
          "velocity": 0.4251968503937008
        },
        {
          "duration": 0.0054823958333258815,
          "durationTicks": 4,
          "midi": 70,
          "name": "A#4",
          "ticks": 51648,
          "time": 70.78869499999999,
          "velocity": 0.7401574803149606
        },
        {
          "duration": 0.005482395833354303,
          "durationTicks": 4,
          "midi": 46,
          "name": "A#2",
          "ticks": 51652,
          "time": 70.79417739583332,
          "velocity": 0.49606299212598426
        },
        {
          "duration": 0.0054823958333258815,
          "durationTicks": 4,
          "midi": 60,
          "name": "C4",
          "ticks": 51744,
          "time": 70.9202725,
          "velocity": 0.31496062992125984
        },
        {
          "duration": 0.005482395833340092,
          "durationTicks": 4,
          "midi": 35,
          "name": "B1",
          "ticks": 51840,
          "time": 71.05184999999999,
          "velocity": 0.8976377952755905
        },
        {
          "duration": 0.005482395833340092,
          "durationTicks": 4,
          "midi": 40,
          "name": "E2",
          "ticks": 51844,
          "time": 71.05733239583333,
          "velocity": 0.8976377952755905
        },
        {
          "duration": 0.005482395833340092,
          "durationTicks": 4,
          "midi": 44,
          "name": "G#2",
          "ticks": 51844,
          "time": 71.05733239583333,
          "velocity": 0.49606299212598426
        },
        {
          "duration": 0.0054823958333258815,
          "durationTicks": 4,
          "midi": 39,
          "name": "D#2",
          "ticks": 51848,
          "time": 71.06281479166667,
          "velocity": 0.7795275590551181
        },
        {
          "duration": 0.0054823958333258815,
          "durationTicks": 4,
          "midi": 60,
          "name": "C4",
          "ticks": 51936,
          "time": 71.1834275,
          "velocity": 0.33858267716535434
        },
        {
          "duration": 0.0054823958333258815,
          "durationTicks": 4,
          "midi": 70,
          "name": "A#4",
          "ticks": 52032,
          "time": 71.315005,
          "velocity": 0.7401574803149606
        },
        {
          "duration": 0.0054823958333258815,
          "durationTicks": 4,
          "midi": 63,
          "name": "D#4",
          "ticks": 52032,
          "time": 71.315005,
          "velocity": 0.4251968503937008
        },
        {
          "duration": 0.005482395833340092,
          "durationTicks": 4,
          "midi": 46,
          "name": "A#2",
          "ticks": 52036,
          "time": 71.32048739583333,
          "velocity": 0.49606299212598426
        },
        {
          "duration": 0.0054823958333258815,
          "durationTicks": 4,
          "midi": 35,
          "name": "B1",
          "ticks": 52224,
          "time": 71.57816,
          "velocity": 0.8976377952755905
        },
        {
          "duration": 0.0054823958333258815,
          "durationTicks": 4,
          "midi": 60,
          "name": "C4",
          "ticks": 52224,
          "time": 71.57816,
          "velocity": 0.3858267716535433
        },
        {
          "duration": 0.005482395833340092,
          "durationTicks": 4,
          "midi": 44,
          "name": "G#2",
          "ticks": 52228,
          "time": 71.58364239583332,
          "velocity": 0.5275590551181102
        },
        {
          "duration": 0.0054823958333258815,
          "durationTicks": 4,
          "midi": 70,
          "name": "A#4",
          "ticks": 52416,
          "time": 71.841315,
          "velocity": 0.7795275590551181
        },
        {
          "duration": 0.005482395833340092,
          "durationTicks": 4,
          "midi": 46,
          "name": "A#2",
          "ticks": 52420,
          "time": 71.84679739583332,
          "velocity": 0.49606299212598426
        },
        {
          "duration": 0.005482395833340092,
          "durationTicks": 4,
          "midi": 60,
          "name": "C4",
          "ticks": 52512,
          "time": 71.97289249999999,
          "velocity": 0.31496062992125984
        },
        {
          "duration": 0.0054823958333258815,
          "durationTicks": 4,
          "midi": 35,
          "name": "B1",
          "ticks": 52608,
          "time": 72.10446999999999,
          "velocity": 0.8661417322834646
        },
        {
          "duration": 0.005482395833340092,
          "durationTicks": 4,
          "midi": 40,
          "name": "E2",
          "ticks": 52612,
          "time": 72.10995239583332,
          "velocity": 0.8976377952755905
        },
        {
          "duration": 0.005482395833340092,
          "durationTicks": 4,
          "midi": 44,
          "name": "G#2",
          "ticks": 52612,
          "time": 72.10995239583332,
          "velocity": 0.49606299212598426
        },
        {
          "duration": 0.005482395833340092,
          "durationTicks": 4,
          "midi": 39,
          "name": "D#2",
          "ticks": 52616,
          "time": 72.11543479166666,
          "velocity": 0.7795275590551181
        },
        {
          "duration": 0.0054823958333258815,
          "durationTicks": 4,
          "midi": 60,
          "name": "C4",
          "ticks": 52704,
          "time": 72.2360475,
          "velocity": 0.33858267716535434
        },
        {
          "duration": 0.0054823958333258815,
          "durationTicks": 4,
          "midi": 70,
          "name": "A#4",
          "ticks": 52800,
          "time": 72.36762499999999,
          "velocity": 0.6141732283464567
        },
        {
          "duration": 0.0054823958333258815,
          "durationTicks": 4,
          "midi": 63,
          "name": "D#4",
          "ticks": 52800,
          "time": 72.36762499999999,
          "velocity": 0.31496062992125984
        },
        {
          "duration": 0.005482395833354303,
          "durationTicks": 4,
          "midi": 46,
          "name": "A#2",
          "ticks": 52804,
          "time": 72.37310739583332,
          "velocity": 0.49606299212598426
        },
        {
          "duration": 0.0054823958333258815,
          "durationTicks": 4,
          "midi": 70,
          "name": "A#4",
          "ticks": 52896,
          "time": 72.4992025,
          "velocity": 0.6692913385826772
        },
        {
          "duration": 0.005482395833340092,
          "durationTicks": 4,
          "midi": 35,
          "name": "B1",
          "ticks": 52992,
          "time": 72.63077999999999,
          "velocity": 0.8976377952755905
        },
        {
          "duration": 0.005482395833340092,
          "durationTicks": 4,
          "midi": 60,
          "name": "C4",
          "ticks": 52992,
          "time": 72.63077999999999,
          "velocity": 0.3858267716535433
        },
        {
          "duration": 0.005482395833340092,
          "durationTicks": 4,
          "midi": 44,
          "name": "G#2",
          "ticks": 52996,
          "time": 72.63626239583333,
          "velocity": 0.49606299212598426
        },
        {
          "duration": 0.0054823958333258815,
          "durationTicks": 4,
          "midi": 70,
          "name": "A#4",
          "ticks": 53184,
          "time": 72.893935,
          "velocity": 0.7795275590551181
        },
        {
          "duration": 0.005482395833340092,
          "durationTicks": 4,
          "midi": 46,
          "name": "A#2",
          "ticks": 53188,
          "time": 72.89941739583332,
          "velocity": 0.49606299212598426
        },
        {
          "duration": 0.0054823958333258815,
          "durationTicks": 4,
          "midi": 60,
          "name": "C4",
          "ticks": 53280,
          "time": 73.02551249999999,
          "velocity": 0.31496062992125984
        },
        {
          "duration": 0.0054823958333258815,
          "durationTicks": 4,
          "midi": 35,
          "name": "B1",
          "ticks": 53376,
          "time": 73.15709,
          "velocity": 0.8976377952755905
        },
        {
          "duration": 0.005482395833340092,
          "durationTicks": 4,
          "midi": 40,
          "name": "E2",
          "ticks": 53380,
          "time": 73.16257239583332,
          "velocity": 0.8976377952755905
        },
        {
          "duration": 0.005482395833340092,
          "durationTicks": 4,
          "midi": 44,
          "name": "G#2",
          "ticks": 53380,
          "time": 73.16257239583332,
          "velocity": 0.5275590551181102
        },
        {
          "duration": 0.0054823958333258815,
          "durationTicks": 4,
          "midi": 39,
          "name": "D#2",
          "ticks": 53384,
          "time": 73.16805479166666,
          "velocity": 0.7795275590551181
        },
        {
          "duration": 0.0054823958333258815,
          "durationTicks": 4,
          "midi": 60,
          "name": "C4",
          "ticks": 53472,
          "time": 73.28866749999999,
          "velocity": 0.31496062992125984
        },
        {
          "duration": 0.0054823958333258815,
          "durationTicks": 4,
          "midi": 70,
          "name": "A#4",
          "ticks": 53568,
          "time": 73.420245,
          "velocity": 0.6377952755905512
        },
        {
          "duration": 0.0054823958333258815,
          "durationTicks": 4,
          "midi": 63,
          "name": "D#4",
          "ticks": 53568,
          "time": 73.420245,
          "velocity": 0.3858267716535433
        },
        {
          "duration": 0.005482395833340092,
          "durationTicks": 4,
          "midi": 46,
          "name": "A#2",
          "ticks": 53572,
          "time": 73.42572739583332,
          "velocity": 0.5275590551181102
        },
        {
          "duration": 0.005482395833340092,
          "durationTicks": 4,
          "midi": 70,
          "name": "A#4",
          "ticks": 53664,
          "time": 73.55182249999999,
          "velocity": 0.7795275590551181
        },
        {
          "duration": 0.0054823958333258815,
          "durationTicks": 4,
          "midi": 35,
          "name": "B1",
          "ticks": 53760,
          "time": 73.68339999999999,
          "velocity": 0.8661417322834646
        },
        {
          "duration": 0.0054823958333258815,
          "durationTicks": 4,
          "midi": 69,
          "name": "A4",
          "ticks": 53760,
          "time": 73.68339999999999,
          "velocity": 0.5826771653543307
        },
        {
          "duration": 0.0054823958333258815,
          "durationTicks": 4,
          "midi": 60,
          "name": "C4",
          "ticks": 53760,
          "time": 73.68339999999999,
          "velocity": 0.4251968503937008
        },
        {
          "duration": 0.005482395833340092,
          "durationTicks": 4,
          "midi": 44,
          "name": "G#2",
          "ticks": 53764,
          "time": 73.68888239583332,
          "velocity": 0.5984251968503937
        },
        {
          "duration": 0.005482395833340092,
          "durationTicks": 4,
          "midi": 69,
          "name": "A4",
          "ticks": 53852,
          "time": 73.80949510416666,
          "velocity": 0.2204724409448819
        },
        {
          "duration": 0.005482395833340092,
          "durationTicks": 4,
          "midi": 69,
          "name": "A4",
          "ticks": 53936,
          "time": 73.92462541666666,
          "velocity": 0.8031496062992126
        },
        {
          "duration": 0.0054823958333258815,
          "durationTicks": 4,
          "midi": 70,
          "name": "A#4",
          "ticks": 53952,
          "time": 73.94655499999999,
          "velocity": 0.7795275590551181
        },
        {
          "duration": 0.005482395833354303,
          "durationTicks": 4,
          "midi": 46,
          "name": "A#2",
          "ticks": 53956,
          "time": 73.95203739583332,
          "velocity": 0.49606299212598426
        },
        {
          "duration": 0.0054823958333258815,
          "durationTicks": 4,
          "midi": 69,
          "name": "A4",
          "ticks": 54032,
          "time": 74.05620291666666,
          "velocity": 0.8031496062992126
        },
        {
          "duration": 0.0054823958333258815,
          "durationTicks": 4,
          "midi": 60,
          "name": "C4",
          "ticks": 54048,
          "time": 74.0781325,
          "velocity": 0.4251968503937008
        },
        {
          "duration": 0.005482395833340092,
          "durationTicks": 4,
          "midi": 35,
          "name": "B1",
          "ticks": 54144,
          "time": 74.20970999999999,
          "velocity": 0.8976377952755905
        },
        {
          "duration": 0.005482395833340092,
          "durationTicks": 4,
          "midi": 40,
          "name": "E2",
          "ticks": 54148,
          "time": 74.21519239583333,
          "velocity": 0.8661417322834646
        },
        {
          "duration": 0.005482395833340092,
          "durationTicks": 4,
          "midi": 44,
          "name": "G#2",
          "ticks": 54148,
          "time": 74.21519239583333,
          "velocity": 0.47244094488188976
        },
        {
          "duration": 0.0054823958333258815,
          "durationTicks": 4,
          "midi": 39,
          "name": "D#2",
          "ticks": 54152,
          "time": 74.22067479166667,
          "velocity": 0.7480314960629921
        },
        {
          "duration": 0.0054823958333258815,
          "durationTicks": 4,
          "midi": 60,
          "name": "C4",
          "ticks": 54240,
          "time": 74.34128749999999,
          "velocity": 0.33858267716535434
        },
        {
          "duration": 0.0054823958333258815,
          "durationTicks": 4,
          "midi": 70,
          "name": "A#4",
          "ticks": 54336,
          "time": 74.472865,
          "velocity": 0.6377952755905512
        },
        {
          "duration": 0.0054823958333258815,
          "durationTicks": 4,
          "midi": 63,
          "name": "D#4",
          "ticks": 54336,
          "time": 74.472865,
          "velocity": 0.3858267716535433
        },
        {
          "duration": 0.0054823958333258815,
          "durationTicks": 4,
          "midi": 70,
          "name": "A#4",
          "ticks": 54432,
          "time": 74.60444249999999,
          "velocity": 0.7795275590551181
        },
        {
          "duration": 0.0054823958333258815,
          "durationTicks": 4,
          "midi": 35,
          "name": "B1",
          "ticks": 54528,
          "time": 74.73602,
          "velocity": 0.8661417322834646
        },
        {
          "duration": 0.0054823958333258815,
          "durationTicks": 4,
          "midi": 60,
          "name": "C4",
          "ticks": 54528,
          "time": 74.73602,
          "velocity": 0.4251968503937008
        },
        {
          "duration": 0.0054823958333258815,
          "durationTicks": 4,
          "midi": 70,
          "name": "A#4",
          "ticks": 54720,
          "time": 74.999175,
          "velocity": 0.7401574803149606
        },
        {
          "duration": 0.005482395833340092,
          "durationTicks": 4,
          "midi": 46,
          "name": "A#2",
          "ticks": 54724,
          "time": 75.00465739583332,
          "velocity": 0.5275590551181102
        },
        {
          "duration": 0.005482395833340092,
          "durationTicks": 4,
          "midi": 60,
          "name": "C4",
          "ticks": 54816,
          "time": 75.13075249999999,
          "velocity": 0.33858267716535434
        },
        {
          "duration": 0.0054823958333258815,
          "durationTicks": 4,
          "midi": 35,
          "name": "B1",
          "ticks": 54912,
          "time": 75.26232999999999,
          "velocity": 0.8976377952755905
        },
        {
          "duration": 0.005482395833340092,
          "durationTicks": 4,
          "midi": 40,
          "name": "E2",
          "ticks": 54916,
          "time": 75.26781239583332,
          "velocity": 0.8661417322834646
        },
        {
          "duration": 0.005482395833340092,
          "durationTicks": 4,
          "midi": 44,
          "name": "G#2",
          "ticks": 54916,
          "time": 75.26781239583332,
          "velocity": 0.5275590551181102
        },
        {
          "duration": 0.005482395833340092,
          "durationTicks": 4,
          "midi": 39,
          "name": "D#2",
          "ticks": 54920,
          "time": 75.27329479166666,
          "velocity": 0.7480314960629921
        },
        {
          "duration": 0.0054823958333258815,
          "durationTicks": 4,
          "midi": 60,
          "name": "C4",
          "ticks": 55008,
          "time": 75.3939075,
          "velocity": 0.3858267716535433
        },
        {
          "duration": 0.0054823958333258815,
          "durationTicks": 4,
          "midi": 70,
          "name": "A#4",
          "ticks": 55104,
          "time": 75.52548499999999,
          "velocity": 0.7401574803149606
        },
        {
          "duration": 0.0054823958333258815,
          "durationTicks": 4,
          "midi": 63,
          "name": "D#4",
          "ticks": 55104,
          "time": 75.52548499999999,
          "velocity": 0.4251968503937008
        },
        {
          "duration": 0.005482395833354303,
          "durationTicks": 4,
          "midi": 46,
          "name": "A#2",
          "ticks": 55108,
          "time": 75.53096739583331,
          "velocity": 0.49606299212598426
        },
        {
          "duration": 0.005482395833340092,
          "durationTicks": 4,
          "midi": 35,
          "name": "B1",
          "ticks": 55296,
          "time": 75.78863999999999,
          "velocity": 0.8661417322834646
        },
        {
          "duration": 0.005482395833340092,
          "durationTicks": 4,
          "midi": 60,
          "name": "C4",
          "ticks": 55296,
          "time": 75.78863999999999,
          "velocity": 0.4251968503937008
        },
        {
          "duration": 0.005482395833340092,
          "durationTicks": 4,
          "midi": 44,
          "name": "G#2",
          "ticks": 55300,
          "time": 75.79412239583333,
          "velocity": 0.49606299212598426
        },
        {
          "duration": 0.0054823958333258815,
          "durationTicks": 4,
          "midi": 70,
          "name": "A#4",
          "ticks": 55488,
          "time": 76.051795,
          "velocity": 0.7401574803149606
        },
        {
          "duration": 0.005482395833340092,
          "durationTicks": 4,
          "midi": 46,
          "name": "A#2",
          "ticks": 55492,
          "time": 76.05727739583332,
          "velocity": 0.47244094488188976
        },
        {
          "duration": 0.0054823958333258815,
          "durationTicks": 4,
          "midi": 60,
          "name": "C4",
          "ticks": 55584,
          "time": 76.18337249999999,
          "velocity": 0.25984251968503935
        },
        {
          "duration": 0.0054823958333258815,
          "durationTicks": 4,
          "midi": 35,
          "name": "B1",
          "ticks": 55680,
          "time": 76.31495,
          "velocity": 0.8661417322834646
        },
        {
          "duration": 0.005482395833340092,
          "durationTicks": 4,
          "midi": 40,
          "name": "E2",
          "ticks": 55684,
          "time": 76.32043239583332,
          "velocity": 0.8661417322834646
        },
        {
          "duration": 0.005482395833340092,
          "durationTicks": 4,
          "midi": 44,
          "name": "G#2",
          "ticks": 55684,
          "time": 76.32043239583332,
          "velocity": 0.49606299212598426
        },
        {
          "duration": 0.0054823958333258815,
          "durationTicks": 4,
          "midi": 39,
          "name": "D#2",
          "ticks": 55688,
          "time": 76.32591479166666,
          "velocity": 0.7480314960629921
        },
        {
          "duration": 0.0054823958333258815,
          "durationTicks": 4,
          "midi": 60,
          "name": "C4",
          "ticks": 55776,
          "time": 76.44652749999999,
          "velocity": 0.28346456692913385
        },
        {
          "duration": 0.0054823958333258815,
          "durationTicks": 4,
          "midi": 70,
          "name": "A#4",
          "ticks": 55872,
          "time": 76.578105,
          "velocity": 0.6141732283464567
        },
        {
          "duration": 0.0054823958333258815,
          "durationTicks": 4,
          "midi": 63,
          "name": "D#4",
          "ticks": 55872,
          "time": 76.578105,
          "velocity": 0.3858267716535433
        },
        {
          "duration": 0.005482395833340092,
          "durationTicks": 4,
          "midi": 46,
          "name": "A#2",
          "ticks": 55876,
          "time": 76.58358739583332,
          "velocity": 0.4251968503937008
        },
        {
          "duration": 0.005482395833340092,
          "durationTicks": 4,
          "midi": 70,
          "name": "A#4",
          "ticks": 55968,
          "time": 76.70968249999999,
          "velocity": 0.7401574803149606
        },
        {
          "duration": 0.0054823958333258815,
          "durationTicks": 4,
          "midi": 35,
          "name": "B1",
          "ticks": 56064,
          "time": 76.84125999999999,
          "velocity": 0.8661417322834646
        },
        {
          "duration": 0.0054823958333258815,
          "durationTicks": 4,
          "midi": 60,
          "name": "C4",
          "ticks": 56064,
          "time": 76.84125999999999,
          "velocity": 0.4251968503937008
        },
        {
          "duration": 0.005482395833340092,
          "durationTicks": 4,
          "midi": 44,
          "name": "G#2",
          "ticks": 56068,
          "time": 76.84674239583332,
          "velocity": 0.49606299212598426
        },
        {
          "duration": 0.0054823958333258815,
          "durationTicks": 4,
          "midi": 70,
          "name": "A#4",
          "ticks": 56256,
          "time": 77.10441499999999,
          "velocity": 0.7401574803149606
        },
        {
          "duration": 0.005482395833354303,
          "durationTicks": 4,
          "midi": 46,
          "name": "A#2",
          "ticks": 56260,
          "time": 77.10989739583331,
          "velocity": 0.4251968503937008
        },
        {
          "duration": 0.0054823958333258815,
          "durationTicks": 4,
          "midi": 60,
          "name": "C4",
          "ticks": 56352,
          "time": 77.2359925,
          "velocity": 0.33858267716535434
        },
        {
          "duration": 0.005482395833340092,
          "durationTicks": 4,
          "midi": 35,
          "name": "B1",
          "ticks": 56448,
          "time": 77.36756999999999,
          "velocity": 0.8976377952755905
        },
        {
          "duration": 0.005482395833340092,
          "durationTicks": 4,
          "midi": 40,
          "name": "E2",
          "ticks": 56452,
          "time": 77.37305239583333,
          "velocity": 0.8661417322834646
        },
        {
          "duration": 0.005482395833340092,
          "durationTicks": 4,
          "midi": 44,
          "name": "G#2",
          "ticks": 56452,
          "time": 77.37305239583333,
          "velocity": 0.49606299212598426
        },
        {
          "duration": 0.0054823958333258815,
          "durationTicks": 4,
          "midi": 39,
          "name": "D#2",
          "ticks": 56456,
          "time": 77.37853479166667,
          "velocity": 0.7480314960629921
        },
        {
          "duration": 0.0054823958333258815,
          "durationTicks": 4,
          "midi": 60,
          "name": "C4",
          "ticks": 56544,
          "time": 77.49914749999999,
          "velocity": 0.31496062992125984
        },
        {
          "duration": 0.0054823958333258815,
          "durationTicks": 4,
          "midi": 70,
          "name": "A#4",
          "ticks": 56640,
          "time": 77.630725,
          "velocity": 0.6141732283464567
        },
        {
          "duration": 0.0054823958333258815,
          "durationTicks": 4,
          "midi": 63,
          "name": "D#4",
          "ticks": 56640,
          "time": 77.630725,
          "velocity": 0.3858267716535433
        },
        {
          "duration": 0.005482395833340092,
          "durationTicks": 4,
          "midi": 46,
          "name": "A#2",
          "ticks": 56644,
          "time": 77.63620739583332,
          "velocity": 0.47244094488188976
        },
        {
          "duration": 0.0054823958333258815,
          "durationTicks": 4,
          "midi": 70,
          "name": "A#4",
          "ticks": 56736,
          "time": 77.76230249999999,
          "velocity": 0.7795275590551181
        },
        {
          "duration": 0.0054823958333258815,
          "durationTicks": 4,
          "midi": 35,
          "name": "B1",
          "ticks": 56832,
          "time": 77.89388,
          "velocity": 0.8976377952755905
        },
        {
          "duration": 0.0054823958333258815,
          "durationTicks": 4,
          "midi": 69,
          "name": "A4",
          "ticks": 56832,
          "time": 77.89388,
          "velocity": 0.5826771653543307
        },
        {
          "duration": 0.0054823958333258815,
          "durationTicks": 4,
          "midi": 60,
          "name": "C4",
          "ticks": 56832,
          "time": 77.89388,
          "velocity": 0.4251968503937008
        },
        {
          "duration": 0.005482395833340092,
          "durationTicks": 4,
          "midi": 44,
          "name": "G#2",
          "ticks": 56836,
          "time": 77.89936239583332,
          "velocity": 0.49606299212598426
        },
        {
          "duration": 0.0054823958333258815,
          "durationTicks": 4,
          "midi": 69,
          "name": "A4",
          "ticks": 56924,
          "time": 78.01997510416666,
          "velocity": 0.2204724409448819
        },
        {
          "duration": 0.0054823958333258815,
          "durationTicks": 4,
          "midi": 69,
          "name": "A4",
          "ticks": 57008,
          "time": 78.13510541666666,
          "velocity": 0.8031496062992126
        },
        {
          "duration": 0.0054823958333258815,
          "durationTicks": 4,
          "midi": 70,
          "name": "A#4",
          "ticks": 57024,
          "time": 78.157035,
          "velocity": 0.7401574803149606
        },
        {
          "duration": 0.005482395833340092,
          "durationTicks": 4,
          "midi": 46,
          "name": "A#2",
          "ticks": 57028,
          "time": 78.16251739583332,
          "velocity": 0.5275590551181102
        },
        {
          "duration": 0.0054823958333258815,
          "durationTicks": 4,
          "midi": 69,
          "name": "A4",
          "ticks": 57104,
          "time": 78.26668291666667,
          "velocity": 0.8031496062992126
        },
        {
          "duration": 0.005482395833340092,
          "durationTicks": 4,
          "midi": 60,
          "name": "C4",
          "ticks": 57120,
          "time": 78.28861249999999,
          "velocity": 0.33858267716535434
        },
        {
          "duration": 0.0054823958333258815,
          "durationTicks": 4,
          "midi": 35,
          "name": "B1",
          "ticks": 57216,
          "time": 78.42018999999999,
          "velocity": 0.8976377952755905
        },
        {
          "duration": 0.005482395833340092,
          "durationTicks": 4,
          "midi": 40,
          "name": "E2",
          "ticks": 57220,
          "time": 78.42567239583332,
          "velocity": 0.8976377952755905
        },
        {
          "duration": 0.005482395833340092,
          "durationTicks": 4,
          "midi": 44,
          "name": "G#2",
          "ticks": 57220,
          "time": 78.42567239583332,
          "velocity": 0.5984251968503937
        },
        {
          "duration": 0.005482395833340092,
          "durationTicks": 4,
          "midi": 39,
          "name": "D#2",
          "ticks": 57224,
          "time": 78.43115479166666,
          "velocity": 0.7795275590551181
        },
        {
          "duration": 0.0054823958333258815,
          "durationTicks": 4,
          "midi": 60,
          "name": "C4",
          "ticks": 57312,
          "time": 78.5517675,
          "velocity": 0.31496062992125984
        },
        {
          "duration": 0.0054823958333258815,
          "durationTicks": 4,
          "midi": 70,
          "name": "A#4",
          "ticks": 57408,
          "time": 78.68334499999999,
          "velocity": 0.5669291338582677
        },
        {
          "duration": 0.0054823958333258815,
          "durationTicks": 4,
          "midi": 63,
          "name": "D#4",
          "ticks": 57408,
          "time": 78.68334499999999,
          "velocity": 0.31496062992125984
        },
        {
          "duration": 0.0054823958333258815,
          "durationTicks": 4,
          "midi": 70,
          "name": "A#4",
          "ticks": 57504,
          "time": 78.8149225,
          "velocity": 0.6692913385826772
        },
        {
          "duration": 0.005482395833340092,
          "durationTicks": 4,
          "midi": 35,
          "name": "B1",
          "ticks": 57600,
          "time": 78.94649999999999,
          "velocity": 0.8661417322834646
        },
        {
          "duration": 0.005482395833340092,
          "durationTicks": 4,
          "midi": 60,
          "name": "C4",
          "ticks": 57600,
          "time": 78.94649999999999,
          "velocity": 0.4251968503937008
        },
        {
          "duration": 0.0054823958333258815,
          "durationTicks": 4,
          "midi": 70,
          "name": "A#4",
          "ticks": 57792,
          "time": 79.209655,
          "velocity": 0.7401574803149606
        },
        {
          "duration": 0.005482395833340092,
          "durationTicks": 4,
          "midi": 46,
          "name": "A#2",
          "ticks": 57796,
          "time": 79.21513739583332,
          "velocity": 0.49606299212598426
        },
        {
          "duration": 0.0054823958333258815,
          "durationTicks": 4,
          "midi": 60,
          "name": "C4",
          "ticks": 57888,
          "time": 79.34123249999999,
          "velocity": 0.31496062992125984
        },
        {
          "duration": 0.0054823958333258815,
          "durationTicks": 4,
          "midi": 35,
          "name": "B1",
          "ticks": 57984,
          "time": 79.47281,
          "velocity": 0.8976377952755905
        },
        {
          "duration": 0.005482395833340092,
          "durationTicks": 4,
          "midi": 40,
          "name": "E2",
          "ticks": 57988,
          "time": 79.47829239583332,
          "velocity": 0.8976377952755905
        },
        {
          "duration": 0.005482395833340092,
          "durationTicks": 4,
          "midi": 44,
          "name": "G#2",
          "ticks": 57988,
          "time": 79.47829239583332,
          "velocity": 0.49606299212598426
        },
        {
          "duration": 0.0054823958333258815,
          "durationTicks": 4,
          "midi": 39,
          "name": "D#2",
          "ticks": 57992,
          "time": 79.48377479166666,
          "velocity": 0.7795275590551181
        },
        {
          "duration": 0.0054823958333258815,
          "durationTicks": 4,
          "midi": 60,
          "name": "C4",
          "ticks": 58080,
          "time": 79.60438749999999,
          "velocity": 0.33858267716535434
        },
        {
          "duration": 0.0054823958333258815,
          "durationTicks": 4,
          "midi": 70,
          "name": "A#4",
          "ticks": 58176,
          "time": 79.735965,
          "velocity": 0.7401574803149606
        },
        {
          "duration": 0.0054823958333258815,
          "durationTicks": 4,
          "midi": 63,
          "name": "D#4",
          "ticks": 58176,
          "time": 79.735965,
          "velocity": 0.4251968503937008
        },
        {
          "duration": 0.005482395833340092,
          "durationTicks": 4,
          "midi": 46,
          "name": "A#2",
          "ticks": 58180,
          "time": 79.74144739583332,
          "velocity": 0.49606299212598426
        },
        {
          "duration": 0.0054823958333258815,
          "durationTicks": 4,
          "midi": 35,
          "name": "B1",
          "ticks": 58368,
          "time": 79.99911999999999,
          "velocity": 0.8976377952755905
        },
        {
          "duration": 0.0054823958333258815,
          "durationTicks": 4,
          "midi": 60,
          "name": "C4",
          "ticks": 58368,
          "time": 79.99911999999999,
          "velocity": 0.3858267716535433
        },
        {
          "duration": 0.005482395833340092,
          "durationTicks": 4,
          "midi": 44,
          "name": "G#2",
          "ticks": 58372,
          "time": 80.00460239583332,
          "velocity": 0.5275590551181102
        },
        {
          "duration": 0.0054823958333258815,
          "durationTicks": 4,
          "midi": 70,
          "name": "A#4",
          "ticks": 58560,
          "time": 80.26227499999999,
          "velocity": 0.7795275590551181
        },
        {
          "duration": 0.005482395833354303,
          "durationTicks": 4,
          "midi": 46,
          "name": "A#2",
          "ticks": 58564,
          "time": 80.26775739583331,
          "velocity": 0.49606299212598426
        },
        {
          "duration": 0.0054823958333258815,
          "durationTicks": 4,
          "midi": 60,
          "name": "C4",
          "ticks": 58656,
          "time": 80.3938525,
          "velocity": 0.31496062992125984
        },
        {
          "duration": 0.005482395833340092,
          "durationTicks": 4,
          "midi": 35,
          "name": "B1",
          "ticks": 58752,
          "time": 80.52542999999999,
          "velocity": 0.8661417322834646
        },
        {
          "duration": 0.005482395833340092,
          "durationTicks": 4,
          "midi": 40,
          "name": "E2",
          "ticks": 58756,
          "time": 80.53091239583333,
          "velocity": 0.8976377952755905
        },
        {
          "duration": 0.005482395833340092,
          "durationTicks": 4,
          "midi": 44,
          "name": "G#2",
          "ticks": 58756,
          "time": 80.53091239583333,
          "velocity": 0.49606299212598426
        },
        {
          "duration": 0.0054823958333258815,
          "durationTicks": 4,
          "midi": 39,
          "name": "D#2",
          "ticks": 58760,
          "time": 80.53639479166667,
          "velocity": 0.7795275590551181
        },
        {
          "duration": 0.0054823958333258815,
          "durationTicks": 4,
          "midi": 60,
          "name": "C4",
          "ticks": 58848,
          "time": 80.65700749999999,
          "velocity": 0.33858267716535434
        },
        {
          "duration": 0.0054823958333258815,
          "durationTicks": 4,
          "midi": 70,
          "name": "A#4",
          "ticks": 58944,
          "time": 80.788585,
          "velocity": 0.6141732283464567
        },
        {
          "duration": 0.0054823958333258815,
          "durationTicks": 4,
          "midi": 63,
          "name": "D#4",
          "ticks": 58944,
          "time": 80.788585,
          "velocity": 0.31496062992125984
        },
        {
          "duration": 0.005482395833340092,
          "durationTicks": 4,
          "midi": 46,
          "name": "A#2",
          "ticks": 58948,
          "time": 80.79406739583332,
          "velocity": 0.49606299212598426
        },
        {
          "duration": 0.0054823958333258815,
          "durationTicks": 4,
          "midi": 70,
          "name": "A#4",
          "ticks": 59040,
          "time": 80.92016249999999,
          "velocity": 0.6692913385826772
        },
        {
          "duration": 0.0054823958333258815,
          "durationTicks": 4,
          "midi": 35,
          "name": "B1",
          "ticks": 59136,
          "time": 81.05174,
          "velocity": 0.8976377952755905
        },
        {
          "duration": 0.0054823958333258815,
          "durationTicks": 4,
          "midi": 60,
          "name": "C4",
          "ticks": 59136,
          "time": 81.05174,
          "velocity": 0.3858267716535433
        },
        {
          "duration": 0.005482395833340092,
          "durationTicks": 4,
          "midi": 44,
          "name": "G#2",
          "ticks": 59140,
          "time": 81.05722239583332,
          "velocity": 0.49606299212598426
        },
        {
          "duration": 0.0054823958333258815,
          "durationTicks": 4,
          "midi": 70,
          "name": "A#4",
          "ticks": 59328,
          "time": 81.31489499999999,
          "velocity": 0.7795275590551181
        },
        {
          "duration": 0.005482395833340092,
          "durationTicks": 4,
          "midi": 46,
          "name": "A#2",
          "ticks": 59332,
          "time": 81.32037739583332,
          "velocity": 0.49606299212598426
        },
        {
          "duration": 0.005482395833340092,
          "durationTicks": 4,
          "midi": 60,
          "name": "C4",
          "ticks": 59424,
          "time": 81.44647249999998,
          "velocity": 0.31496062992125984
        },
        {
          "duration": 0.0054823958333258815,
          "durationTicks": 4,
          "midi": 35,
          "name": "B1",
          "ticks": 59520,
          "time": 81.57804999999999,
          "velocity": 0.8976377952755905
        },
        {
          "duration": 0.005482395833340092,
          "durationTicks": 4,
          "midi": 40,
          "name": "E2",
          "ticks": 59524,
          "time": 81.58353239583332,
          "velocity": 0.8976377952755905
        },
        {
          "duration": 0.005482395833340092,
          "durationTicks": 4,
          "midi": 44,
          "name": "G#2",
          "ticks": 59524,
          "time": 81.58353239583332,
          "velocity": 0.5275590551181102
        },
        {
          "duration": 0.005482395833340092,
          "durationTicks": 4,
          "midi": 39,
          "name": "D#2",
          "ticks": 59528,
          "time": 81.58901479166666,
          "velocity": 0.7795275590551181
        },
        {
          "duration": 0.0054823958333258815,
          "durationTicks": 4,
          "midi": 60,
          "name": "C4",
          "ticks": 59616,
          "time": 81.7096275,
          "velocity": 0.31496062992125984
        },
        {
          "duration": 0.0054823958333258815,
          "durationTicks": 4,
          "midi": 70,
          "name": "A#4",
          "ticks": 59712,
          "time": 81.84120499999999,
          "velocity": 0.6377952755905512
        },
        {
          "duration": 0.0054823958333258815,
          "durationTicks": 4,
          "midi": 63,
          "name": "D#4",
          "ticks": 59712,
          "time": 81.84120499999999,
          "velocity": 0.3858267716535433
        },
        {
          "duration": 0.005482395833354303,
          "durationTicks": 4,
          "midi": 46,
          "name": "A#2",
          "ticks": 59716,
          "time": 81.84668739583331,
          "velocity": 0.5275590551181102
        },
        {
          "duration": 0.0054823958333258815,
          "durationTicks": 4,
          "midi": 70,
          "name": "A#4",
          "ticks": 59808,
          "time": 81.9727825,
          "velocity": 0.7795275590551181
        },
        {
          "duration": 0.005482395833340092,
          "durationTicks": 4,
          "midi": 35,
          "name": "B1",
          "ticks": 59904,
          "time": 82.10435999999999,
          "velocity": 0.8661417322834646
        },
        {
          "duration": 0.005482395833340092,
          "durationTicks": 4,
          "midi": 69,
          "name": "A4",
          "ticks": 59904,
          "time": 82.10435999999999,
          "velocity": 0.5826771653543307
        },
        {
          "duration": 0.005482395833340092,
          "durationTicks": 4,
          "midi": 60,
          "name": "C4",
          "ticks": 59904,
          "time": 82.10435999999999,
          "velocity": 0.4251968503937008
        },
        {
          "duration": 0.005482395833340092,
          "durationTicks": 4,
          "midi": 44,
          "name": "G#2",
          "ticks": 59908,
          "time": 82.10984239583333,
          "velocity": 0.5984251968503937
        },
        {
          "duration": 0.0054823958333258815,
          "durationTicks": 4,
          "midi": 69,
          "name": "A4",
          "ticks": 59996,
          "time": 82.23045510416667,
          "velocity": 0.2204724409448819
        },
        {
          "duration": 0.0054823958333258815,
          "durationTicks": 4,
          "midi": 69,
          "name": "A4",
          "ticks": 60080,
          "time": 82.34558541666667,
          "velocity": 0.8031496062992126
        },
        {
          "duration": 0.0054823958333258815,
          "durationTicks": 4,
          "midi": 70,
          "name": "A#4",
          "ticks": 60096,
          "time": 82.367515,
          "velocity": 0.7795275590551181
        },
        {
          "duration": 0.005482395833340092,
          "durationTicks": 4,
          "midi": 46,
          "name": "A#2",
          "ticks": 60100,
          "time": 82.37299739583332,
          "velocity": 0.49606299212598426
        },
        {
          "duration": 0.005482395833340092,
          "durationTicks": 4,
          "midi": 69,
          "name": "A4",
          "ticks": 60176,
          "time": 82.47716291666666,
          "velocity": 0.8031496062992126
        },
        {
          "duration": 0.0054823958333258815,
          "durationTicks": 4,
          "midi": 60,
          "name": "C4",
          "ticks": 60192,
          "time": 82.49909249999999,
          "velocity": 0.4251968503937008
        },
        {
          "duration": 0.0054823958333258815,
          "durationTicks": 4,
          "midi": 35,
          "name": "B1",
          "ticks": 60288,
          "time": 82.63067,
          "velocity": 0.8976377952755905
        },
        {
          "duration": 0.005482395833340092,
          "durationTicks": 4,
          "midi": 40,
          "name": "E2",
          "ticks": 60292,
          "time": 82.63615239583332,
          "velocity": 0.8661417322834646
        },
        {
          "duration": 0.005482395833340092,
          "durationTicks": 4,
          "midi": 44,
          "name": "G#2",
          "ticks": 60292,
          "time": 82.63615239583332,
          "velocity": 0.47244094488188976
        },
        {
          "duration": 0.0054823958333258815,
          "durationTicks": 4,
          "midi": 39,
          "name": "D#2",
          "ticks": 60296,
          "time": 82.64163479166666,
          "velocity": 0.7480314960629921
        },
        {
          "duration": 0.0054823958333258815,
          "durationTicks": 4,
          "midi": 60,
          "name": "C4",
          "ticks": 60384,
          "time": 82.76224749999999,
          "velocity": 0.33858267716535434
        },
        {
          "duration": 0.0054823958333258815,
          "durationTicks": 4,
          "midi": 70,
          "name": "A#4",
          "ticks": 60480,
          "time": 82.89382499999999,
          "velocity": 0.6377952755905512
        },
        {
          "duration": 0.0054823958333258815,
          "durationTicks": 4,
          "midi": 63,
          "name": "D#4",
          "ticks": 60480,
          "time": 82.89382499999999,
          "velocity": 0.3858267716535433
        },
        {
          "duration": 0.005482395833340092,
          "durationTicks": 4,
          "midi": 70,
          "name": "A#4",
          "ticks": 60576,
          "time": 83.02540249999998,
          "velocity": 0.7795275590551181
        },
        {
          "duration": 0.0054823958333258815,
          "durationTicks": 4,
          "midi": 35,
          "name": "B1",
          "ticks": 60672,
          "time": 83.15697999999999,
          "velocity": 0.8661417322834646
        },
        {
          "duration": 0.0054823958333258815,
          "durationTicks": 4,
          "midi": 60,
          "name": "C4",
          "ticks": 60672,
          "time": 83.15697999999999,
          "velocity": 0.4251968503937008
        },
        {
          "duration": 0.0054823958333258815,
          "durationTicks": 4,
          "midi": 70,
          "name": "A#4",
          "ticks": 60864,
          "time": 83.42013499999999,
          "velocity": 0.7401574803149606
        },
        {
          "duration": 0.005482395833354303,
          "durationTicks": 4,
          "midi": 46,
          "name": "A#2",
          "ticks": 60868,
          "time": 83.42561739583331,
          "velocity": 0.5275590551181102
        },
        {
          "duration": 0.0054823958333258815,
          "durationTicks": 4,
          "midi": 60,
          "name": "C4",
          "ticks": 60960,
          "time": 83.5517125,
          "velocity": 0.33858267716535434
        },
        {
          "duration": 0.005482395833340092,
          "durationTicks": 4,
          "midi": 35,
          "name": "B1",
          "ticks": 61056,
          "time": 83.68328999999999,
          "velocity": 0.8976377952755905
        },
        {
          "duration": 0.005482395833340092,
          "durationTicks": 4,
          "midi": 40,
          "name": "E2",
          "ticks": 61060,
          "time": 83.68877239583333,
          "velocity": 0.8661417322834646
        },
        {
          "duration": 0.005482395833340092,
          "durationTicks": 4,
          "midi": 44,
          "name": "G#2",
          "ticks": 61060,
          "time": 83.68877239583333,
          "velocity": 0.5275590551181102
        },
        {
          "duration": 0.0054823958333258815,
          "durationTicks": 4,
          "midi": 39,
          "name": "D#2",
          "ticks": 61064,
          "time": 83.69425479166667,
          "velocity": 0.7480314960629921
        },
        {
          "duration": 0.0054823958333258815,
          "durationTicks": 4,
          "midi": 60,
          "name": "C4",
          "ticks": 61152,
          "time": 83.81486749999999,
          "velocity": 0.3858267716535433
        },
        {
          "duration": 0.0054823958333258815,
          "durationTicks": 4,
          "midi": 70,
          "name": "A#4",
          "ticks": 61248,
          "time": 83.946445,
          "velocity": 0.7401574803149606
        },
        {
          "duration": 0.0054823958333258815,
          "durationTicks": 4,
          "midi": 63,
          "name": "D#4",
          "ticks": 61248,
          "time": 83.946445,
          "velocity": 0.4251968503937008
        },
        {
          "duration": 0.005482395833340092,
          "durationTicks": 4,
          "midi": 46,
          "name": "A#2",
          "ticks": 61252,
          "time": 83.95192739583332,
          "velocity": 0.49606299212598426
        },
        {
          "duration": 0.0054823958333258815,
          "durationTicks": 4,
          "midi": 35,
          "name": "B1",
          "ticks": 61440,
          "time": 84.2096,
          "velocity": 0.8661417322834646
        },
        {
          "duration": 0.0054823958333258815,
          "durationTicks": 4,
          "midi": 60,
          "name": "C4",
          "ticks": 61440,
          "time": 84.2096,
          "velocity": 0.4251968503937008
        },
        {
          "duration": 0.005482395833340092,
          "durationTicks": 4,
          "midi": 44,
          "name": "G#2",
          "ticks": 61444,
          "time": 84.21508239583332,
          "velocity": 0.49606299212598426
        },
        {
          "duration": 0.0054823958333258815,
          "durationTicks": 4,
          "midi": 70,
          "name": "A#4",
          "ticks": 61632,
          "time": 84.47275499999999,
          "velocity": 0.7401574803149606
        },
        {
          "duration": 0.005482395833340092,
          "durationTicks": 4,
          "midi": 46,
          "name": "A#2",
          "ticks": 61636,
          "time": 84.47823739583332,
          "velocity": 0.47244094488188976
        },
        {
          "duration": 0.0054823958333258815,
          "durationTicks": 4,
          "midi": 60,
          "name": "C4",
          "ticks": 61728,
          "time": 84.6043325,
          "velocity": 0.25984251968503935
        },
        {
          "duration": 0.0054823958333258815,
          "durationTicks": 4,
          "midi": 35,
          "name": "B1",
          "ticks": 61824,
          "time": 84.73590999999999,
          "velocity": 0.8661417322834646
        },
        {
          "duration": 0.005482395833340092,
          "durationTicks": 4,
          "midi": 40,
          "name": "E2",
          "ticks": 61828,
          "time": 84.74139239583332,
          "velocity": 0.8661417322834646
        },
        {
          "duration": 0.005482395833340092,
          "durationTicks": 4,
          "midi": 44,
          "name": "G#2",
          "ticks": 61828,
          "time": 84.74139239583332,
          "velocity": 0.49606299212598426
        },
        {
          "duration": 0.005482395833340092,
          "durationTicks": 4,
          "midi": 39,
          "name": "D#2",
          "ticks": 61832,
          "time": 84.74687479166666,
          "velocity": 0.7480314960629921
        },
        {
          "duration": 0.0054823958333258815,
          "durationTicks": 4,
          "midi": 60,
          "name": "C4",
          "ticks": 61920,
          "time": 84.8674875,
          "velocity": 0.28346456692913385
        },
        {
          "duration": 0.0054823958333258815,
          "durationTicks": 4,
          "midi": 70,
          "name": "A#4",
          "ticks": 62016,
          "time": 84.99906499999999,
          "velocity": 0.6141732283464567
        },
        {
          "duration": 0.0054823958333258815,
          "durationTicks": 4,
          "midi": 63,
          "name": "D#4",
          "ticks": 62016,
          "time": 84.99906499999999,
          "velocity": 0.3858267716535433
        },
        {
          "duration": 0.005482395833354303,
          "durationTicks": 4,
          "midi": 46,
          "name": "A#2",
          "ticks": 62020,
          "time": 85.00454739583331,
          "velocity": 0.4251968503937008
        },
        {
          "duration": 0.0054823958333258815,
          "durationTicks": 4,
          "midi": 70,
          "name": "A#4",
          "ticks": 62112,
          "time": 85.1306425,
          "velocity": 0.7401574803149606
        },
        {
          "duration": 0.005482395833340092,
          "durationTicks": 4,
          "midi": 35,
          "name": "B1",
          "ticks": 62208,
          "time": 85.26221999999999,
          "velocity": 0.8661417322834646
        },
        {
          "duration": 0.005482395833340092,
          "durationTicks": 4,
          "midi": 60,
          "name": "C4",
          "ticks": 62208,
          "time": 85.26221999999999,
          "velocity": 0.4251968503937008
        },
        {
          "duration": 0.005482395833340092,
          "durationTicks": 4,
          "midi": 44,
          "name": "G#2",
          "ticks": 62212,
          "time": 85.26770239583333,
          "velocity": 0.49606299212598426
        },
        {
          "duration": 0.0054823958333258815,
          "durationTicks": 4,
          "midi": 70,
          "name": "A#4",
          "ticks": 62400,
          "time": 85.525375,
          "velocity": 0.7401574803149606
        },
        {
          "duration": 0.005482395833340092,
          "durationTicks": 4,
          "midi": 46,
          "name": "A#2",
          "ticks": 62404,
          "time": 85.53085739583332,
          "velocity": 0.4251968503937008
        },
        {
          "duration": 0.0054823958333258815,
          "durationTicks": 4,
          "midi": 60,
          "name": "C4",
          "ticks": 62496,
          "time": 85.65695249999999,
          "velocity": 0.33858267716535434
        },
        {
          "duration": 0.0054823958333258815,
          "durationTicks": 4,
          "midi": 35,
          "name": "B1",
          "ticks": 62592,
          "time": 85.78853,
          "velocity": 0.8976377952755905
        },
        {
          "duration": 0.005482395833340092,
          "durationTicks": 4,
          "midi": 40,
          "name": "E2",
          "ticks": 62596,
          "time": 85.79401239583332,
          "velocity": 0.8661417322834646
        },
        {
          "duration": 0.005482395833340092,
          "durationTicks": 4,
          "midi": 44,
          "name": "G#2",
          "ticks": 62596,
          "time": 85.79401239583332,
          "velocity": 0.49606299212598426
        },
        {
          "duration": 0.0054823958333258815,
          "durationTicks": 4,
          "midi": 39,
          "name": "D#2",
          "ticks": 62600,
          "time": 85.79949479166666,
          "velocity": 0.7480314960629921
        },
        {
          "duration": 0.005482395833340092,
          "durationTicks": 4,
          "midi": 60,
          "name": "C4",
          "ticks": 62688,
          "time": 85.92010749999999,
          "velocity": 0.31496062992125984
        },
        {
          "duration": 0.0054823958333258815,
          "durationTicks": 4,
          "midi": 70,
          "name": "A#4",
          "ticks": 62784,
          "time": 86.05168499999999,
          "velocity": 0.6141732283464567
        },
        {
          "duration": 0.0054823958333258815,
          "durationTicks": 4,
          "midi": 63,
          "name": "D#4",
          "ticks": 62784,
          "time": 86.05168499999999,
          "velocity": 0.3858267716535433
        },
        {
          "duration": 0.005482395833340092,
          "durationTicks": 4,
          "midi": 46,
          "name": "A#2",
          "ticks": 62788,
          "time": 86.05716739583332,
          "velocity": 0.47244094488188976
        },
        {
          "duration": 0.0054823958333258815,
          "durationTicks": 4,
          "midi": 70,
          "name": "A#4",
          "ticks": 62880,
          "time": 86.1832625,
          "velocity": 0.7795275590551181
        },
        {
          "duration": 0.0054823958333258815,
          "durationTicks": 4,
          "midi": 35,
          "name": "B1",
          "ticks": 62976,
          "time": 86.31483999999999,
          "velocity": 0.8976377952755905
        },
        {
          "duration": 0.0054823958333258815,
          "durationTicks": 4,
          "midi": 69,
          "name": "A4",
          "ticks": 62976,
          "time": 86.31483999999999,
          "velocity": 0.5826771653543307
        },
        {
          "duration": 0.0054823958333258815,
          "durationTicks": 4,
          "midi": 60,
          "name": "C4",
          "ticks": 62976,
          "time": 86.31483999999999,
          "velocity": 0.4251968503937008
        },
        {
          "duration": 0.005482395833340092,
          "durationTicks": 4,
          "midi": 44,
          "name": "G#2",
          "ticks": 62980,
          "time": 86.32032239583332,
          "velocity": 0.49606299212598426
        },
        {
          "duration": 0.0054823958333258815,
          "durationTicks": 4,
          "midi": 69,
          "name": "A4",
          "ticks": 63068,
          "time": 86.44093510416667,
          "velocity": 0.2204724409448819
        },
        {
          "duration": 0.0054823958333258815,
          "durationTicks": 4,
          "midi": 69,
          "name": "A4",
          "ticks": 63152,
          "time": 86.55606541666667,
          "velocity": 0.8031496062992126
        },
        {
          "duration": 0.0054823958333258815,
          "durationTicks": 4,
          "midi": 70,
          "name": "A#4",
          "ticks": 63168,
          "time": 86.57799499999999,
          "velocity": 0.7401574803149606
        },
        {
          "duration": 0.005482395833354303,
          "durationTicks": 4,
          "midi": 46,
          "name": "A#2",
          "ticks": 63172,
          "time": 86.58347739583331,
          "velocity": 0.5275590551181102
        },
        {
          "duration": 0.0054823958333258815,
          "durationTicks": 4,
          "midi": 69,
          "name": "A4",
          "ticks": 63248,
          "time": 86.68764291666666,
          "velocity": 0.8031496062992126
        },
        {
          "duration": 0.0054823958333258815,
          "durationTicks": 4,
          "midi": 60,
          "name": "C4",
          "ticks": 63264,
          "time": 86.7095725,
          "velocity": 0.33858267716535434
        },
        {
          "duration": 0.005482395833340092,
          "durationTicks": 4,
          "midi": 35,
          "name": "B1",
          "ticks": 63360,
          "time": 86.84114999999998,
          "velocity": 0.8976377952755905
        },
        {
          "duration": 0.005482395833340092,
          "durationTicks": 4,
          "midi": 40,
          "name": "E2",
          "ticks": 63364,
          "time": 86.84663239583332,
          "velocity": 0.8976377952755905
        },
        {
          "duration": 0.005482395833340092,
          "durationTicks": 4,
          "midi": 44,
          "name": "G#2",
          "ticks": 63364,
          "time": 86.84663239583332,
          "velocity": 0.5984251968503937
        },
        {
          "duration": 0.0054823958333258815,
          "durationTicks": 4,
          "midi": 39,
          "name": "D#2",
          "ticks": 63368,
          "time": 86.85211479166666,
          "velocity": 0.7795275590551181
        },
        {
          "duration": 0.0054823958333258815,
          "durationTicks": 4,
          "midi": 60,
          "name": "C4",
          "ticks": 63456,
          "time": 86.97272749999999,
          "velocity": 0.31496062992125984
        },
        {
          "duration": 0.0054823958333258815,
          "durationTicks": 4,
          "midi": 70,
          "name": "A#4",
          "ticks": 63552,
          "time": 87.104305,
          "velocity": 0.5669291338582677
        },
        {
          "duration": 0.0054823958333258815,
          "durationTicks": 4,
          "midi": 63,
          "name": "D#4",
          "ticks": 63552,
          "time": 87.104305,
          "velocity": 0.31496062992125984
        },
        {
          "duration": 0.0054823958333258815,
          "durationTicks": 4,
          "midi": 70,
          "name": "A#4",
          "ticks": 63648,
          "time": 87.23588249999999,
          "velocity": 0.6692913385826772
        },
        {
          "duration": 0.0054823958333258815,
          "durationTicks": 4,
          "midi": 35,
          "name": "B1",
          "ticks": 63744,
          "time": 87.36746,
          "velocity": 0.8661417322834646
        },
        {
          "duration": 0.0054823958333258815,
          "durationTicks": 4,
          "midi": 60,
          "name": "C4",
          "ticks": 63744,
          "time": 87.36746,
          "velocity": 0.4251968503937008
        },
        {
          "duration": 0.0054823958333258815,
          "durationTicks": 4,
          "midi": 70,
          "name": "A#4",
          "ticks": 63936,
          "time": 87.63061499999999,
          "velocity": 0.7401574803149606
        },
        {
          "duration": 0.005482395833340092,
          "durationTicks": 4,
          "midi": 46,
          "name": "A#2",
          "ticks": 63940,
          "time": 87.63609739583332,
          "velocity": 0.49606299212598426
        },
        {
          "duration": 0.0054823958333258815,
          "durationTicks": 4,
          "midi": 60,
          "name": "C4",
          "ticks": 64032,
          "time": 87.7621925,
          "velocity": 0.31496062992125984
        },
        {
          "duration": 0.0054823958333258815,
          "durationTicks": 4,
          "midi": 35,
          "name": "B1",
          "ticks": 64128,
          "time": 87.89376999999999,
          "velocity": 0.8976377952755905
        },
        {
          "duration": 0.005482395833354303,
          "durationTicks": 4,
          "midi": 40,
          "name": "E2",
          "ticks": 64132,
          "time": 87.89925239583332,
          "velocity": 0.8976377952755905
        },
        {
          "duration": 0.005482395833354303,
          "durationTicks": 4,
          "midi": 44,
          "name": "G#2",
          "ticks": 64132,
          "time": 87.89925239583332,
          "velocity": 0.49606299212598426
        },
        {
          "duration": 0.0054823958333258815,
          "durationTicks": 4,
          "midi": 39,
          "name": "D#2",
          "ticks": 64136,
          "time": 87.90473479166667,
          "velocity": 0.7795275590551181
        },
        {
          "duration": 0.0054823958333258815,
          "durationTicks": 4,
          "midi": 60,
          "name": "C4",
          "ticks": 64224,
          "time": 88.0253475,
          "velocity": 0.33858267716535434
        },
        {
          "duration": 0.0054823958333258815,
          "durationTicks": 4,
          "midi": 70,
          "name": "A#4",
          "ticks": 64320,
          "time": 88.15692499999999,
          "velocity": 0.7401574803149606
        },
        {
          "duration": 0.0054823958333258815,
          "durationTicks": 4,
          "midi": 63,
          "name": "D#4",
          "ticks": 64320,
          "time": 88.15692499999999,
          "velocity": 0.4251968503937008
        },
        {
          "duration": 0.005482395833354303,
          "durationTicks": 4,
          "midi": 46,
          "name": "A#2",
          "ticks": 64324,
          "time": 88.16240739583331,
          "velocity": 0.49606299212598426
        },
        {
          "duration": 0.005482395833340092,
          "durationTicks": 4,
          "midi": 35,
          "name": "B1",
          "ticks": 64512,
          "time": 88.42007999999998,
          "velocity": 0.8976377952755905
        },
        {
          "duration": 0.005482395833340092,
          "durationTicks": 4,
          "midi": 60,
          "name": "C4",
          "ticks": 64512,
          "time": 88.42007999999998,
          "velocity": 0.3858267716535433
        },
        {
          "duration": 0.005482395833340092,
          "durationTicks": 4,
          "midi": 44,
          "name": "G#2",
          "ticks": 64516,
          "time": 88.42556239583332,
          "velocity": 0.5275590551181102
        },
        {
          "duration": 0.0054823958333258815,
          "durationTicks": 4,
          "midi": 70,
          "name": "A#4",
          "ticks": 64704,
          "time": 88.683235,
          "velocity": 0.7795275590551181
        },
        {
          "duration": 0.005482395833340092,
          "durationTicks": 4,
          "midi": 46,
          "name": "A#2",
          "ticks": 64708,
          "time": 88.68871739583332,
          "velocity": 0.49606299212598426
        },
        {
          "duration": 0.0054823958333258815,
          "durationTicks": 4,
          "midi": 60,
          "name": "C4",
          "ticks": 64800,
          "time": 88.81481249999999,
          "velocity": 0.31496062992125984
        },
        {
          "duration": 0.0054823958333258815,
          "durationTicks": 4,
          "midi": 35,
          "name": "B1",
          "ticks": 64896,
          "time": 88.94639,
          "velocity": 0.8661417322834646
        },
        {
          "duration": 0.005482395833340092,
          "durationTicks": 4,
          "midi": 40,
          "name": "E2",
          "ticks": 64900,
          "time": 88.95187239583332,
          "velocity": 0.8976377952755905
        },
        {
          "duration": 0.005482395833340092,
          "durationTicks": 4,
          "midi": 44,
          "name": "G#2",
          "ticks": 64900,
          "time": 88.95187239583332,
          "velocity": 0.49606299212598426
        },
        {
          "duration": 0.0054823958333258815,
          "durationTicks": 4,
          "midi": 39,
          "name": "D#2",
          "ticks": 64904,
          "time": 88.95735479166666,
          "velocity": 0.7795275590551181
        },
        {
          "duration": 0.005482395833340092,
          "durationTicks": 4,
          "midi": 60,
          "name": "C4",
          "ticks": 64992,
          "time": 89.07796749999999,
          "velocity": 0.33858267716535434
        },
        {
          "duration": 0.0054823958333258815,
          "durationTicks": 4,
          "midi": 70,
          "name": "A#4",
          "ticks": 65088,
          "time": 89.20954499999999,
          "velocity": 0.6141732283464567
        },
        {
          "duration": 0.0054823958333258815,
          "durationTicks": 4,
          "midi": 63,
          "name": "D#4",
          "ticks": 65088,
          "time": 89.20954499999999,
          "velocity": 0.31496062992125984
        },
        {
          "duration": 0.005482395833340092,
          "durationTicks": 4,
          "midi": 46,
          "name": "A#2",
          "ticks": 65092,
          "time": 89.21502739583332,
          "velocity": 0.49606299212598426
        },
        {
          "duration": 0.0054823958333258815,
          "durationTicks": 4,
          "midi": 70,
          "name": "A#4",
          "ticks": 65184,
          "time": 89.3411225,
          "velocity": 0.6692913385826772
        },
        {
          "duration": 0.0054823958333258815,
          "durationTicks": 4,
          "midi": 35,
          "name": "B1",
          "ticks": 65280,
          "time": 89.47269999999999,
          "velocity": 0.8976377952755905
        },
        {
          "duration": 0.0054823958333258815,
          "durationTicks": 4,
          "midi": 60,
          "name": "C4",
          "ticks": 65280,
          "time": 89.47269999999999,
          "velocity": 0.3858267716535433
        },
        {
          "duration": 0.005482395833354303,
          "durationTicks": 4,
          "midi": 44,
          "name": "G#2",
          "ticks": 65284,
          "time": 89.47818239583331,
          "velocity": 0.49606299212598426
        },
        {
          "duration": 0.005482395833340092,
          "durationTicks": 4,
          "midi": 40,
          "name": "E2",
          "ticks": 65380,
          "time": 89.60975989583332,
          "velocity": 0.8976377952755905
        },
        {
          "duration": 0.0054823958333258815,
          "durationTicks": 4,
          "midi": 39,
          "name": "D#2",
          "ticks": 65384,
          "time": 89.61524229166666,
          "velocity": 0.7795275590551181
        },
        {
          "duration": 0.0054823958333258815,
          "durationTicks": 4,
          "midi": 70,
          "name": "A#4",
          "ticks": 65472,
          "time": 89.73585499999999,
          "velocity": 0.7795275590551181
        },
        {
          "duration": 0.005482395833354303,
          "durationTicks": 4,
          "midi": 46,
          "name": "A#2",
          "ticks": 65476,
          "time": 89.74133739583331,
          "velocity": 0.49606299212598426
        },
        {
          "duration": 0.0054823958333258815,
          "durationTicks": 4,
          "midi": 60,
          "name": "C4",
          "ticks": 65568,
          "time": 89.86743249999999,
          "velocity": 0.31496062992125984
        },
        {
          "duration": 0.005482395833340092,
          "durationTicks": 4,
          "midi": 35,
          "name": "B1",
          "ticks": 65664,
          "time": 89.99900999999998,
          "velocity": 0.8976377952755905
        },
        {
          "duration": 0.005482395833340092,
          "durationTicks": 4,
          "midi": 40,
          "name": "E2",
          "ticks": 65668,
          "time": 90.00449239583332,
          "velocity": 0.8976377952755905
        },
        {
          "duration": 0.005482395833340092,
          "durationTicks": 4,
          "midi": 44,
          "name": "G#2",
          "ticks": 65668,
          "time": 90.00449239583332,
          "velocity": 0.5275590551181102
        },
        {
          "duration": 0.0054823958333258815,
          "durationTicks": 4,
          "midi": 39,
          "name": "D#2",
          "ticks": 65672,
          "time": 90.00997479166666,
          "velocity": 0.7795275590551181
        },
        {
          "duration": 0.0054823958333258815,
          "durationTicks": 4,
          "midi": 60,
          "name": "C4",
          "ticks": 65760,
          "time": 90.13058749999999,
          "velocity": 0.31496062992125984
        },
        {
          "duration": 0.0054823958333258815,
          "durationTicks": 4,
          "midi": 70,
          "name": "A#4",
          "ticks": 65856,
          "time": 90.262165,
          "velocity": 0.6377952755905512
        },
        {
          "duration": 0.0054823958333258815,
          "durationTicks": 4,
          "midi": 63,
          "name": "D#4",
          "ticks": 65856,
          "time": 90.262165,
          "velocity": 0.3858267716535433
        },
        {
          "duration": 0.005482395833340092,
          "durationTicks": 4,
          "midi": 46,
          "name": "A#2",
          "ticks": 65860,
          "time": 90.26764739583332,
          "velocity": 0.5275590551181102
        },
        {
          "duration": 0.0054823958333258815,
          "durationTicks": 4,
          "midi": 70,
          "name": "A#4",
          "ticks": 65952,
          "time": 90.39374249999999,
          "velocity": 0.7795275590551181
        },
        {
          "duration": 0.005482395833354303,
          "durationTicks": 4,
          "midi": 40,
          "name": "E2",
          "ticks": 65956,
          "time": 90.39922489583331,
          "velocity": 0.8661417322834646
        },
        {
          "duration": 0.0054823958333258815,
          "durationTicks": 4,
          "midi": 39,
          "name": "D#2",
          "ticks": 65960,
          "time": 90.40470729166667,
          "velocity": 0.7480314960629921
        },
        {
          "duration": 0.0054823958333258815,
          "durationTicks": 4,
          "midi": 35,
          "name": "B1",
          "ticks": 66048,
          "time": 90.52532,
          "velocity": 0.8661417322834646
        },
        {
          "duration": 0.0054823958333258815,
          "durationTicks": 4,
          "midi": 69,
          "name": "A4",
          "ticks": 66048,
          "time": 90.52532,
          "velocity": 0.5826771653543307
        },
        {
          "duration": 0.0054823958333258815,
          "durationTicks": 4,
          "midi": 60,
          "name": "C4",
          "ticks": 66048,
          "time": 90.52532,
          "velocity": 0.4251968503937008
        },
        {
          "duration": 0.005482395833340092,
          "durationTicks": 4,
          "midi": 44,
          "name": "G#2",
          "ticks": 66052,
          "time": 90.53080239583332,
          "velocity": 0.5984251968503937
        },
        {
          "duration": 0.0054823958333258815,
          "durationTicks": 4,
          "midi": 69,
          "name": "A4",
          "ticks": 66140,
          "time": 90.65141510416666,
          "velocity": 0.2204724409448819
        },
        {
          "duration": 0.0054823958333258815,
          "durationTicks": 4,
          "midi": 69,
          "name": "A4",
          "ticks": 66224,
          "time": 90.76654541666666,
          "velocity": 0.8031496062992126
        },
        {
          "duration": 0.0054823958333258815,
          "durationTicks": 4,
          "midi": 70,
          "name": "A#4",
          "ticks": 66240,
          "time": 90.78847499999999,
          "velocity": 0.7795275590551181
        },
        {
          "duration": 0.005482395833340092,
          "durationTicks": 4,
          "midi": 46,
          "name": "A#2",
          "ticks": 66244,
          "time": 90.79395739583332,
          "velocity": 0.49606299212598426
        },
        {
          "duration": 0.0054823958333258815,
          "durationTicks": 4,
          "midi": 69,
          "name": "A4",
          "ticks": 66320,
          "time": 90.89812291666667,
          "velocity": 0.8031496062992126
        },
        {
          "duration": 0.0054823958333258815,
          "durationTicks": 4,
          "midi": 60,
          "name": "C4",
          "ticks": 66336,
          "time": 90.9200525,
          "velocity": 0.4251968503937008
        },
        {
          "duration": 0.0054823958333258815,
          "durationTicks": 4,
          "midi": 35,
          "name": "B1",
          "ticks": 66432,
          "time": 91.05162999999999,
          "velocity": 0.8976377952755905
        },
        {
          "duration": 0.005482395833354303,
          "durationTicks": 4,
          "midi": 40,
          "name": "E2",
          "ticks": 66436,
          "time": 91.05711239583331,
          "velocity": 0.8661417322834646
        },
        {
          "duration": 0.005482395833354303,
          "durationTicks": 4,
          "midi": 44,
          "name": "G#2",
          "ticks": 66436,
          "time": 91.05711239583331,
          "velocity": 0.47244094488188976
        },
        {
          "duration": 0.0054823958333258815,
          "durationTicks": 4,
          "midi": 39,
          "name": "D#2",
          "ticks": 66440,
          "time": 91.06259479166667,
          "velocity": 0.7480314960629921
        },
        {
          "duration": 0.0054823958333258815,
          "durationTicks": 4,
          "midi": 60,
          "name": "C4",
          "ticks": 66528,
          "time": 91.1832075,
          "velocity": 0.33858267716535434
        },
        {
          "duration": 0.0054823958333258815,
          "durationTicks": 4,
          "midi": 70,
          "name": "A#4",
          "ticks": 66624,
          "time": 91.31478499999999,
          "velocity": 0.6377952755905512
        },
        {
          "duration": 0.0054823958333258815,
          "durationTicks": 4,
          "midi": 63,
          "name": "D#4",
          "ticks": 66624,
          "time": 91.31478499999999,
          "velocity": 0.3858267716535433
        },
        {
          "duration": 0.0054823958333258815,
          "durationTicks": 4,
          "midi": 70,
          "name": "A#4",
          "ticks": 66720,
          "time": 91.44636249999999,
          "velocity": 0.7795275590551181
        },
        {
          "duration": 0.005482395833340092,
          "durationTicks": 4,
          "midi": 35,
          "name": "B1",
          "ticks": 66816,
          "time": 91.57793999999998,
          "velocity": 0.8661417322834646
        },
        {
          "duration": 0.005482395833340092,
          "durationTicks": 4,
          "midi": 60,
          "name": "C4",
          "ticks": 66816,
          "time": 91.57793999999998,
          "velocity": 0.4251968503937008
        },
        {
          "duration": 0.0054823958333258815,
          "durationTicks": 4,
          "midi": 70,
          "name": "A#4",
          "ticks": 67008,
          "time": 91.841095,
          "velocity": 0.7401574803149606
        },
        {
          "duration": 0.005482395833340092,
          "durationTicks": 4,
          "midi": 46,
          "name": "A#2",
          "ticks": 67012,
          "time": 91.84657739583332,
          "velocity": 0.5275590551181102
        },
        {
          "duration": 0.0054823958333258815,
          "durationTicks": 4,
          "midi": 60,
          "name": "C4",
          "ticks": 67104,
          "time": 91.97267249999999,
          "velocity": 0.33858267716535434
        },
        {
          "duration": 0.0054823958333258815,
          "durationTicks": 4,
          "midi": 35,
          "name": "B1",
          "ticks": 67200,
          "time": 92.10425,
          "velocity": 0.8976377952755905
        },
        {
          "duration": 0.005482395833340092,
          "durationTicks": 4,
          "midi": 40,
          "name": "E2",
          "ticks": 67204,
          "time": 92.10973239583332,
          "velocity": 0.8661417322834646
        },
        {
          "duration": 0.005482395833340092,
          "durationTicks": 4,
          "midi": 44,
          "name": "G#2",
          "ticks": 67204,
          "time": 92.10973239583332,
          "velocity": 0.5275590551181102
        },
        {
          "duration": 0.0054823958333258815,
          "durationTicks": 4,
          "midi": 39,
          "name": "D#2",
          "ticks": 67208,
          "time": 92.11521479166666,
          "velocity": 0.7480314960629921
        },
        {
          "duration": 0.005482395833340092,
          "durationTicks": 4,
          "midi": 60,
          "name": "C4",
          "ticks": 67296,
          "time": 92.23582749999998,
          "velocity": 0.3858267716535433
        },
        {
          "duration": 0.0054823958333258815,
          "durationTicks": 4,
          "midi": 70,
          "name": "A#4",
          "ticks": 67392,
          "time": 92.36740499999999,
          "velocity": 0.7401574803149606
        },
        {
          "duration": 0.0054823958333258815,
          "durationTicks": 4,
          "midi": 63,
          "name": "D#4",
          "ticks": 67392,
          "time": 92.36740499999999,
          "velocity": 0.4251968503937008
        },
        {
          "duration": 0.005482395833340092,
          "durationTicks": 4,
          "midi": 46,
          "name": "A#2",
          "ticks": 67396,
          "time": 92.37288739583332,
          "velocity": 0.49606299212598426
        },
        {
          "duration": 0.0054823958333258815,
          "durationTicks": 4,
          "midi": 35,
          "name": "B1",
          "ticks": 67584,
          "time": 92.63055999999999,
          "velocity": 0.8661417322834646
        },
        {
          "duration": 0.0054823958333258815,
          "durationTicks": 4,
          "midi": 60,
          "name": "C4",
          "ticks": 67584,
          "time": 92.63055999999999,
          "velocity": 0.4251968503937008
        },
        {
          "duration": 0.005482395833354303,
          "durationTicks": 4,
          "midi": 44,
          "name": "G#2",
          "ticks": 67588,
          "time": 92.63604239583331,
          "velocity": 0.49606299212598426
        },
        {
          "duration": 0.0054823958333258815,
          "durationTicks": 4,
          "midi": 70,
          "name": "A#4",
          "ticks": 67776,
          "time": 92.89371499999999,
          "velocity": 0.7401574803149606
        },
        {
          "duration": 0.005482395833354303,
          "durationTicks": 4,
          "midi": 46,
          "name": "A#2",
          "ticks": 67780,
          "time": 92.89919739583331,
          "velocity": 0.47244094488188976
        },
        {
          "duration": 0.0054823958333258815,
          "durationTicks": 4,
          "midi": 60,
          "name": "C4",
          "ticks": 67872,
          "time": 93.02529249999999,
          "velocity": 0.25984251968503935
        },
        {
          "duration": 0.005482395833340092,
          "durationTicks": 4,
          "midi": 35,
          "name": "B1",
          "ticks": 67968,
          "time": 93.15686999999998,
          "velocity": 0.8661417322834646
        },
        {
          "duration": 0.005482395833340092,
          "durationTicks": 4,
          "midi": 40,
          "name": "E2",
          "ticks": 67972,
          "time": 93.16235239583332,
          "velocity": 0.8661417322834646
        },
        {
          "duration": 0.005482395833340092,
          "durationTicks": 4,
          "midi": 44,
          "name": "G#2",
          "ticks": 67972,
          "time": 93.16235239583332,
          "velocity": 0.49606299212598426
        },
        {
          "duration": 0.0054823958333258815,
          "durationTicks": 4,
          "midi": 39,
          "name": "D#2",
          "ticks": 67976,
          "time": 93.16783479166666,
          "velocity": 0.7480314960629921
        },
        {
          "duration": 0.0054823958333258815,
          "durationTicks": 4,
          "midi": 60,
          "name": "C4",
          "ticks": 68064,
          "time": 93.28844749999999,
          "velocity": 0.28346456692913385
        },
        {
          "duration": 0.0054823958333258815,
          "durationTicks": 4,
          "midi": 70,
          "name": "A#4",
          "ticks": 68160,
          "time": 93.420025,
          "velocity": 0.6141732283464567
        },
        {
          "duration": 0.0054823958333258815,
          "durationTicks": 4,
          "midi": 63,
          "name": "D#4",
          "ticks": 68160,
          "time": 93.420025,
          "velocity": 0.3858267716535433
        },
        {
          "duration": 0.005482395833340092,
          "durationTicks": 4,
          "midi": 46,
          "name": "A#2",
          "ticks": 68164,
          "time": 93.42550739583332,
          "velocity": 0.4251968503937008
        },
        {
          "duration": 0.0054823958333258815,
          "durationTicks": 4,
          "midi": 70,
          "name": "A#4",
          "ticks": 68256,
          "time": 93.55160249999999,
          "velocity": 0.7401574803149606
        },
        {
          "duration": 0.0054823958333258815,
          "durationTicks": 4,
          "midi": 35,
          "name": "B1",
          "ticks": 68352,
          "time": 93.68318,
          "velocity": 0.8661417322834646
        },
        {
          "duration": 0.0054823958333258815,
          "durationTicks": 4,
          "midi": 60,
          "name": "C4",
          "ticks": 68352,
          "time": 93.68318,
          "velocity": 0.4251968503937008
        },
        {
          "duration": 0.005482395833340092,
          "durationTicks": 4,
          "midi": 44,
          "name": "G#2",
          "ticks": 68356,
          "time": 93.68866239583332,
          "velocity": 0.49606299212598426
        },
        {
          "duration": 0.0054823958333258815,
          "durationTicks": 4,
          "midi": 70,
          "name": "A#4",
          "ticks": 68544,
          "time": 93.94633499999999,
          "velocity": 0.7401574803149606
        },
        {
          "duration": 0.005482395833340092,
          "durationTicks": 4,
          "midi": 46,
          "name": "A#2",
          "ticks": 68548,
          "time": 93.95181739583332,
          "velocity": 0.4251968503937008
        },
        {
          "duration": 0.0054823958333258815,
          "durationTicks": 4,
          "midi": 60,
          "name": "C4",
          "ticks": 68640,
          "time": 94.0779125,
          "velocity": 0.33858267716535434
        },
        {
          "duration": 0.0054823958333258815,
          "durationTicks": 4,
          "midi": 35,
          "name": "B1",
          "ticks": 68736,
          "time": 94.20948999999999,
          "velocity": 0.8976377952755905
        },
        {
          "duration": 0.005482395833354303,
          "durationTicks": 4,
          "midi": 40,
          "name": "E2",
          "ticks": 68740,
          "time": 94.21497239583331,
          "velocity": 0.8661417322834646
        },
        {
          "duration": 0.005482395833354303,
          "durationTicks": 4,
          "midi": 44,
          "name": "G#2",
          "ticks": 68740,
          "time": 94.21497239583331,
          "velocity": 0.49606299212598426
        },
        {
          "duration": 0.0054823958333258815,
          "durationTicks": 4,
          "midi": 39,
          "name": "D#2",
          "ticks": 68744,
          "time": 94.22045479166667,
          "velocity": 0.7480314960629921
        },
        {
          "duration": 0.0054823958333258815,
          "durationTicks": 4,
          "midi": 60,
          "name": "C4",
          "ticks": 68832,
          "time": 94.3410675,
          "velocity": 0.31496062992125984
        },
        {
          "duration": 0.0054823958333258815,
          "durationTicks": 4,
          "midi": 70,
          "name": "A#4",
          "ticks": 68928,
          "time": 94.47264499999999,
          "velocity": 0.6141732283464567
        },
        {
          "duration": 0.0054823958333258815,
          "durationTicks": 4,
          "midi": 63,
          "name": "D#4",
          "ticks": 68928,
          "time": 94.47264499999999,
          "velocity": 0.3858267716535433
        },
        {
          "duration": 0.005482395833354303,
          "durationTicks": 4,
          "midi": 46,
          "name": "A#2",
          "ticks": 68932,
          "time": 94.47812739583331,
          "velocity": 0.47244094488188976
        },
        {
          "duration": 0.0054823958333258815,
          "durationTicks": 4,
          "midi": 70,
          "name": "A#4",
          "ticks": 69024,
          "time": 94.60422249999999,
          "velocity": 0.7795275590551181
        },
        {
          "duration": 0.005482395833340092,
          "durationTicks": 4,
          "midi": 35,
          "name": "B1",
          "ticks": 69120,
          "time": 94.73579999999998,
          "velocity": 0.8976377952755905
        },
        {
          "duration": 0.005482395833340092,
          "durationTicks": 4,
          "midi": 69,
          "name": "A4",
          "ticks": 69120,
          "time": 94.73579999999998,
          "velocity": 0.5826771653543307
        },
        {
          "duration": 0.005482395833340092,
          "durationTicks": 4,
          "midi": 60,
          "name": "C4",
          "ticks": 69120,
          "time": 94.73579999999998,
          "velocity": 0.4251968503937008
        },
        {
          "duration": 0.005482395833340092,
          "durationTicks": 4,
          "midi": 44,
          "name": "G#2",
          "ticks": 69124,
          "time": 94.74128239583332,
          "velocity": 0.49606299212598426
        },
        {
          "duration": 0.0054823958333258815,
          "durationTicks": 4,
          "midi": 69,
          "name": "A4",
          "ticks": 69212,
          "time": 94.86189510416666,
          "velocity": 0.2204724409448819
        },
        {
          "duration": 0.0054823958333258815,
          "durationTicks": 4,
          "midi": 69,
          "name": "A4",
          "ticks": 69296,
          "time": 94.97702541666666,
          "velocity": 0.8031496062992126
        },
        {
          "duration": 0.0054823958333258815,
          "durationTicks": 4,
          "midi": 70,
          "name": "A#4",
          "ticks": 69312,
          "time": 94.998955,
          "velocity": 0.7401574803149606
        },
        {
          "duration": 0.005482395833340092,
          "durationTicks": 4,
          "midi": 46,
          "name": "A#2",
          "ticks": 69316,
          "time": 95.00443739583332,
          "velocity": 0.5275590551181102
        },
        {
          "duration": 0.005482395833340092,
          "durationTicks": 4,
          "midi": 69,
          "name": "A4",
          "ticks": 69392,
          "time": 95.10860291666665,
          "velocity": 0.8031496062992126
        },
        {
          "duration": 0.0054823958333258815,
          "durationTicks": 4,
          "midi": 60,
          "name": "C4",
          "ticks": 69408,
          "time": 95.13053249999999,
          "velocity": 0.33858267716535434
        },
        {
          "duration": 0.0054823958333258815,
          "durationTicks": 4,
          "midi": 35,
          "name": "B1",
          "ticks": 69504,
          "time": 95.26210999999999,
          "velocity": 0.8976377952755905
        },
        {
          "duration": 0.005482395833340092,
          "durationTicks": 4,
          "midi": 40,
          "name": "E2",
          "ticks": 69508,
          "time": 95.26759239583332,
          "velocity": 0.8976377952755905
        },
        {
          "duration": 0.005482395833340092,
          "durationTicks": 4,
          "midi": 44,
          "name": "G#2",
          "ticks": 69508,
          "time": 95.26759239583332,
          "velocity": 0.5984251968503937
        },
        {
          "duration": 0.0054823958333258815,
          "durationTicks": 4,
          "midi": 39,
          "name": "D#2",
          "ticks": 69512,
          "time": 95.27307479166666,
          "velocity": 0.7795275590551181
        },
        {
          "duration": 0.005482395833340092,
          "durationTicks": 4,
          "midi": 60,
          "name": "C4",
          "ticks": 69600,
          "time": 95.39368749999998,
          "velocity": 0.31496062992125984
        },
        {
          "duration": 0.0054823958333258815,
          "durationTicks": 4,
          "midi": 70,
          "name": "A#4",
          "ticks": 69696,
          "time": 95.52526499999999,
          "velocity": 0.5669291338582677
        },
        {
          "duration": 0.0054823958333258815,
          "durationTicks": 4,
          "midi": 63,
          "name": "D#4",
          "ticks": 69696,
          "time": 95.52526499999999,
          "velocity": 0.31496062992125984
        },
        {
          "duration": 0.0054823958333258815,
          "durationTicks": 4,
          "midi": 70,
          "name": "A#4",
          "ticks": 69792,
          "time": 95.6568425,
          "velocity": 0.6692913385826772
        },
        {
          "duration": 0.0054823958333258815,
          "durationTicks": 4,
          "midi": 35,
          "name": "B1",
          "ticks": 69888,
          "time": 95.78841999999999,
          "velocity": 0.8661417322834646
        },
        {
          "duration": 0.0054823958333258815,
          "durationTicks": 4,
          "midi": 60,
          "name": "C4",
          "ticks": 69888,
          "time": 95.78841999999999,
          "velocity": 0.4251968503937008
        },
        {
          "duration": 0.0054823958333258815,
          "durationTicks": 4,
          "midi": 70,
          "name": "A#4",
          "ticks": 70080,
          "time": 96.05157499999999,
          "velocity": 0.7401574803149606
        },
        {
          "duration": 0.005482395833354303,
          "durationTicks": 4,
          "midi": 46,
          "name": "A#2",
          "ticks": 70084,
          "time": 96.05705739583331,
          "velocity": 0.49606299212598426
        },
        {
          "duration": 0.0054823958333258815,
          "durationTicks": 4,
          "midi": 60,
          "name": "C4",
          "ticks": 70176,
          "time": 96.18315249999999,
          "velocity": 0.31496062992125984
        },
        {
          "duration": 0.005482395833340092,
          "durationTicks": 4,
          "midi": 35,
          "name": "B1",
          "ticks": 70272,
          "time": 96.31472999999998,
          "velocity": 0.8976377952755905
        },
        {
          "duration": 0.005482395833340092,
          "durationTicks": 4,
          "midi": 40,
          "name": "E2",
          "ticks": 70276,
          "time": 96.32021239583332,
          "velocity": 0.8976377952755905
        },
        {
          "duration": 0.005482395833340092,
          "durationTicks": 4,
          "midi": 44,
          "name": "G#2",
          "ticks": 70276,
          "time": 96.32021239583332,
          "velocity": 0.49606299212598426
        },
        {
          "duration": 0.0054823958333258815,
          "durationTicks": 4,
          "midi": 39,
          "name": "D#2",
          "ticks": 70280,
          "time": 96.32569479166666,
          "velocity": 0.7795275590551181
        },
        {
          "duration": 0.0054823958333258815,
          "durationTicks": 4,
          "midi": 60,
          "name": "C4",
          "ticks": 70368,
          "time": 96.44630749999999,
          "velocity": 0.33858267716535434
        },
        {
          "duration": 0.0054823958333258815,
          "durationTicks": 4,
          "midi": 70,
          "name": "A#4",
          "ticks": 70464,
          "time": 96.577885,
          "velocity": 0.7401574803149606
        },
        {
          "duration": 0.0054823958333258815,
          "durationTicks": 4,
          "midi": 63,
          "name": "D#4",
          "ticks": 70464,
          "time": 96.577885,
          "velocity": 0.4251968503937008
        },
        {
          "duration": 0.005482395833340092,
          "durationTicks": 4,
          "midi": 46,
          "name": "A#2",
          "ticks": 70468,
          "time": 96.58336739583332,
          "velocity": 0.49606299212598426
        },
        {
          "duration": 0.0054823958333258815,
          "durationTicks": 4,
          "midi": 35,
          "name": "B1",
          "ticks": 70656,
          "time": 96.84103999999999,
          "velocity": 0.8976377952755905
        },
        {
          "duration": 0.0054823958333258815,
          "durationTicks": 4,
          "midi": 60,
          "name": "C4",
          "ticks": 70656,
          "time": 96.84103999999999,
          "velocity": 0.3858267716535433
        },
        {
          "duration": 0.005482395833340092,
          "durationTicks": 4,
          "midi": 44,
          "name": "G#2",
          "ticks": 70660,
          "time": 96.84652239583332,
          "velocity": 0.5275590551181102
        },
        {
          "duration": 0.0054823958333258815,
          "durationTicks": 4,
          "midi": 70,
          "name": "A#4",
          "ticks": 70848,
          "time": 97.10419499999999,
          "velocity": 0.7795275590551181
        },
        {
          "duration": 0.005482395833340092,
          "durationTicks": 4,
          "midi": 46,
          "name": "A#2",
          "ticks": 70852,
          "time": 97.10967739583332,
          "velocity": 0.49606299212598426
        },
        {
          "duration": 0.0054823958333258815,
          "durationTicks": 4,
          "midi": 60,
          "name": "C4",
          "ticks": 70944,
          "time": 97.2357725,
          "velocity": 0.31496062992125984
        },
        {
          "duration": 0.0054823958333258815,
          "durationTicks": 4,
          "midi": 35,
          "name": "B1",
          "ticks": 71040,
          "time": 97.36734999999999,
          "velocity": 0.8661417322834646
        },
        {
          "duration": 0.005482395833354303,
          "durationTicks": 4,
          "midi": 40,
          "name": "E2",
          "ticks": 71044,
          "time": 97.37283239583331,
          "velocity": 0.8976377952755905
        },
        {
          "duration": 0.005482395833354303,
          "durationTicks": 4,
          "midi": 44,
          "name": "G#2",
          "ticks": 71044,
          "time": 97.37283239583331,
          "velocity": 0.49606299212598426
        },
        {
          "duration": 0.0054823958333258815,
          "durationTicks": 4,
          "midi": 39,
          "name": "D#2",
          "ticks": 71048,
          "time": 97.37831479166667,
          "velocity": 0.7795275590551181
        },
        {
          "duration": 0.0054823958333258815,
          "durationTicks": 4,
          "midi": 60,
          "name": "C4",
          "ticks": 71136,
          "time": 97.4989275,
          "velocity": 0.33858267716535434
        },
        {
          "duration": 0.0054823958333258815,
          "durationTicks": 4,
          "midi": 70,
          "name": "A#4",
          "ticks": 71232,
          "time": 97.63050499999999,
          "velocity": 0.6141732283464567
        },
        {
          "duration": 0.0054823958333258815,
          "durationTicks": 4,
          "midi": 63,
          "name": "D#4",
          "ticks": 71232,
          "time": 97.63050499999999,
          "velocity": 0.31496062992125984
        },
        {
          "duration": 0.005482395833354303,
          "durationTicks": 4,
          "midi": 46,
          "name": "A#2",
          "ticks": 71236,
          "time": 97.63598739583331,
          "velocity": 0.49606299212598426
        },
        {
          "duration": 0.0054823958333258815,
          "durationTicks": 4,
          "midi": 70,
          "name": "A#4",
          "ticks": 71328,
          "time": 97.76208249999999,
          "velocity": 0.6692913385826772
        },
        {
          "duration": 0.005482395833340092,
          "durationTicks": 4,
          "midi": 35,
          "name": "B1",
          "ticks": 71424,
          "time": 97.89365999999998,
          "velocity": 0.8976377952755905
        },
        {
          "duration": 0.005482395833340092,
          "durationTicks": 4,
          "midi": 60,
          "name": "C4",
          "ticks": 71424,
          "time": 97.89365999999998,
          "velocity": 0.3858267716535433
        },
        {
          "duration": 0.005482395833340092,
          "durationTicks": 4,
          "midi": 44,
          "name": "G#2",
          "ticks": 71428,
          "time": 97.89914239583332,
          "velocity": 0.49606299212598426
        },
        {
          "duration": 0.0054823958333258815,
          "durationTicks": 4,
          "midi": 70,
          "name": "A#4",
          "ticks": 71616,
          "time": 98.156815,
          "velocity": 0.7795275590551181
        },
        {
          "duration": 0.005482395833340092,
          "durationTicks": 4,
          "midi": 46,
          "name": "A#2",
          "ticks": 71620,
          "time": 98.16229739583332,
          "velocity": 0.49606299212598426
        },
        {
          "duration": 0.0054823958333258815,
          "durationTicks": 4,
          "midi": 60,
          "name": "C4",
          "ticks": 71712,
          "time": 98.28839249999999,
          "velocity": 0.31496062992125984
        },
        {
          "duration": 0.0054823958333258815,
          "durationTicks": 4,
          "midi": 35,
          "name": "B1",
          "ticks": 71808,
          "time": 98.41996999999999,
          "velocity": 0.8976377952755905
        },
        {
          "duration": 0.005482395833340092,
          "durationTicks": 4,
          "midi": 40,
          "name": "E2",
          "ticks": 71812,
          "time": 98.42545239583332,
          "velocity": 0.8976377952755905
        },
        {
          "duration": 0.005482395833340092,
          "durationTicks": 4,
          "midi": 44,
          "name": "G#2",
          "ticks": 71812,
          "time": 98.42545239583332,
          "velocity": 0.5275590551181102
        },
        {
          "duration": 0.0054823958333258815,
          "durationTicks": 4,
          "midi": 39,
          "name": "D#2",
          "ticks": 71816,
          "time": 98.43093479166666,
          "velocity": 0.7795275590551181
        },
        {
          "duration": 0.005482395833340092,
          "durationTicks": 4,
          "midi": 60,
          "name": "C4",
          "ticks": 71904,
          "time": 98.55154749999998,
          "velocity": 0.31496062992125984
        },
        {
          "duration": 0.0054823958333258815,
          "durationTicks": 4,
          "midi": 70,
          "name": "A#4",
          "ticks": 72000,
          "time": 98.68312499999999,
          "velocity": 0.6377952755905512
        },
        {
          "duration": 0.0054823958333258815,
          "durationTicks": 4,
          "midi": 63,
          "name": "D#4",
          "ticks": 72000,
          "time": 98.68312499999999,
          "velocity": 0.3858267716535433
        },
        {
          "duration": 0.005482395833340092,
          "durationTicks": 4,
          "midi": 46,
          "name": "A#2",
          "ticks": 72004,
          "time": 98.68860739583332,
          "velocity": 0.5275590551181102
        },
        {
          "duration": 0.0054823958333258815,
          "durationTicks": 4,
          "midi": 70,
          "name": "A#4",
          "ticks": 72096,
          "time": 98.8147025,
          "velocity": 0.7795275590551181
        },
        {
          "duration": 0.0054823958333258815,
          "durationTicks": 4,
          "midi": 35,
          "name": "B1",
          "ticks": 72192,
          "time": 98.94627999999999,
          "velocity": 0.8661417322834646
        },
        {
          "duration": 0.0054823958333258815,
          "durationTicks": 4,
          "midi": 69,
          "name": "A4",
          "ticks": 72192,
          "time": 98.94627999999999,
          "velocity": 0.5826771653543307
        },
        {
          "duration": 0.0054823958333258815,
          "durationTicks": 4,
          "midi": 60,
          "name": "C4",
          "ticks": 72192,
          "time": 98.94627999999999,
          "velocity": 0.4251968503937008
        },
        {
          "duration": 0.005482395833354303,
          "durationTicks": 4,
          "midi": 44,
          "name": "G#2",
          "ticks": 72196,
          "time": 98.95176239583331,
          "velocity": 0.5984251968503937
        },
        {
          "duration": 0.0054823958333258815,
          "durationTicks": 4,
          "midi": 69,
          "name": "A4",
          "ticks": 72284,
          "time": 99.07237510416667,
          "velocity": 0.2204724409448819
        },
        {
          "duration": 0.0054823958333258815,
          "durationTicks": 4,
          "midi": 69,
          "name": "A4",
          "ticks": 72368,
          "time": 99.18750541666667,
          "velocity": 0.8031496062992126
        },
        {
          "duration": 0.0054823958333258815,
          "durationTicks": 4,
          "midi": 70,
          "name": "A#4",
          "ticks": 72384,
          "time": 99.20943499999998,
          "velocity": 0.7795275590551181
        },
        {
          "duration": 0.005482395833354303,
          "durationTicks": 4,
          "midi": 46,
          "name": "A#2",
          "ticks": 72388,
          "time": 99.21491739583331,
          "velocity": 0.49606299212598426
        },
        {
          "duration": 0.0054823958333258815,
          "durationTicks": 4,
          "midi": 69,
          "name": "A4",
          "ticks": 72464,
          "time": 99.31908291666666,
          "velocity": 0.8031496062992126
        },
        {
          "duration": 0.0054823958333258815,
          "durationTicks": 4,
          "midi": 60,
          "name": "C4",
          "ticks": 72480,
          "time": 99.34101249999999,
          "velocity": 0.4251968503937008
        },
        {
          "duration": 0.005482395833340092,
          "durationTicks": 4,
          "midi": 35,
          "name": "B1",
          "ticks": 72576,
          "time": 99.47258999999998,
          "velocity": 0.8976377952755905
        },
        {
          "duration": 0.005482395833340092,
          "durationTicks": 4,
          "midi": 40,
          "name": "E2",
          "ticks": 72580,
          "time": 99.47807239583332,
          "velocity": 0.8661417322834646
        },
        {
          "duration": 0.005482395833340092,
          "durationTicks": 4,
          "midi": 44,
          "name": "G#2",
          "ticks": 72580,
          "time": 99.47807239583332,
          "velocity": 0.47244094488188976
        },
        {
          "duration": 0.0054823958333258815,
          "durationTicks": 4,
          "midi": 39,
          "name": "D#2",
          "ticks": 72584,
          "time": 99.48355479166666,
          "velocity": 0.7480314960629921
        },
        {
          "duration": 0.0054823958333258815,
          "durationTicks": 4,
          "midi": 60,
          "name": "C4",
          "ticks": 72672,
          "time": 99.60416749999999,
          "velocity": 0.33858267716535434
        },
        {
          "duration": 0.0054823958333258815,
          "durationTicks": 4,
          "midi": 70,
          "name": "A#4",
          "ticks": 72768,
          "time": 99.735745,
          "velocity": 0.6377952755905512
        },
        {
          "duration": 0.0054823958333258815,
          "durationTicks": 4,
          "midi": 63,
          "name": "D#4",
          "ticks": 72768,
          "time": 99.735745,
          "velocity": 0.3858267716535433
        },
        {
          "duration": 0.0054823958333258815,
          "durationTicks": 4,
          "midi": 70,
          "name": "A#4",
          "ticks": 72864,
          "time": 99.86732249999999,
          "velocity": 0.7795275590551181
        },
        {
          "duration": 0.0054823958333258815,
          "durationTicks": 4,
          "midi": 35,
          "name": "B1",
          "ticks": 72960,
          "time": 99.99889999999999,
          "velocity": 0.8661417322834646
        },
        {
          "duration": 0.0054823958333258815,
          "durationTicks": 4,
          "midi": 60,
          "name": "C4",
          "ticks": 72960,
          "time": 99.99889999999999,
          "velocity": 0.4251968503937008
        },
        {
          "duration": 0.0054823958333258815,
          "durationTicks": 4,
          "midi": 70,
          "name": "A#4",
          "ticks": 73152,
          "time": 100.26205499999999,
          "velocity": 0.7401574803149606
        },
        {
          "duration": 0.005482395833340092,
          "durationTicks": 4,
          "midi": 46,
          "name": "A#2",
          "ticks": 73156,
          "time": 100.26753739583332,
          "velocity": 0.5275590551181102
        },
        {
          "duration": 0.0054823958333258815,
          "durationTicks": 4,
          "midi": 60,
          "name": "C4",
          "ticks": 73248,
          "time": 100.3936325,
          "velocity": 0.33858267716535434
        },
        {
          "duration": 0.0054823958333258815,
          "durationTicks": 4,
          "midi": 35,
          "name": "B1",
          "ticks": 73344,
          "time": 100.52520999999999,
          "velocity": 0.8976377952755905
        },
        {
          "duration": 0.005482395833354303,
          "durationTicks": 4,
          "midi": 40,
          "name": "E2",
          "ticks": 73348,
          "time": 100.53069239583331,
          "velocity": 0.8661417322834646
        },
        {
          "duration": 0.005482395833354303,
          "durationTicks": 4,
          "midi": 44,
          "name": "G#2",
          "ticks": 73348,
          "time": 100.53069239583331,
          "velocity": 0.5275590551181102
        },
        {
          "duration": 0.0054823958333258815,
          "durationTicks": 4,
          "midi": 39,
          "name": "D#2",
          "ticks": 73352,
          "time": 100.53617479166667,
          "velocity": 0.7480314960629921
        },
        {
          "duration": 0.0054823958333258815,
          "durationTicks": 4,
          "midi": 60,
          "name": "C4",
          "ticks": 73440,
          "time": 100.6567875,
          "velocity": 0.3858267716535433
        },
        {
          "duration": 0.005482395833340092,
          "durationTicks": 4,
          "midi": 70,
          "name": "A#4",
          "ticks": 73536,
          "time": 100.78836499999998,
          "velocity": 0.7401574803149606
        },
        {
          "duration": 0.005482395833340092,
          "durationTicks": 4,
          "midi": 63,
          "name": "D#4",
          "ticks": 73536,
          "time": 100.78836499999998,
          "velocity": 0.4251968503937008
        },
        {
          "duration": 0.005482395833340092,
          "durationTicks": 4,
          "midi": 46,
          "name": "A#2",
          "ticks": 73540,
          "time": 100.79384739583332,
          "velocity": 0.49606299212598426
        },
        {
          "duration": 0.005482395833340092,
          "durationTicks": 4,
          "midi": 35,
          "name": "B1",
          "ticks": 73728,
          "time": 101.05151999999998,
          "velocity": 0.8661417322834646
        },
        {
          "duration": 0.005482395833340092,
          "durationTicks": 4,
          "midi": 60,
          "name": "C4",
          "ticks": 73728,
          "time": 101.05151999999998,
          "velocity": 0.4251968503937008
        },
        {
          "duration": 0.005482395833340092,
          "durationTicks": 4,
          "midi": 44,
          "name": "G#2",
          "ticks": 73732,
          "time": 101.05700239583332,
          "velocity": 0.49606299212598426
        },
        {
          "duration": 0.0054823958333258815,
          "durationTicks": 4,
          "midi": 70,
          "name": "A#4",
          "ticks": 73920,
          "time": 101.314675,
          "velocity": 0.7401574803149606
        },
        {
          "duration": 0.005482395833340092,
          "durationTicks": 4,
          "midi": 46,
          "name": "A#2",
          "ticks": 73924,
          "time": 101.32015739583332,
          "velocity": 0.47244094488188976
        },
        {
          "duration": 0.0054823958333258815,
          "durationTicks": 4,
          "midi": 60,
          "name": "C4",
          "ticks": 74016,
          "time": 101.44625249999999,
          "velocity": 0.25984251968503935
        },
        {
          "duration": 0.0054823958333258815,
          "durationTicks": 4,
          "midi": 35,
          "name": "B1",
          "ticks": 74112,
          "time": 101.57782999999999,
          "velocity": 0.8661417322834646
        },
        {
          "duration": 0.005482395833340092,
          "durationTicks": 4,
          "midi": 40,
          "name": "E2",
          "ticks": 74116,
          "time": 101.58331239583332,
          "velocity": 0.8661417322834646
        },
        {
          "duration": 0.005482395833340092,
          "durationTicks": 4,
          "midi": 44,
          "name": "G#2",
          "ticks": 74116,
          "time": 101.58331239583332,
          "velocity": 0.49606299212598426
        },
        {
          "duration": 0.0054823958333258815,
          "durationTicks": 4,
          "midi": 39,
          "name": "D#2",
          "ticks": 74120,
          "time": 101.58879479166666,
          "velocity": 0.7480314960629921
        },
        {
          "duration": 0.005482395833340092,
          "durationTicks": 4,
          "midi": 60,
          "name": "C4",
          "ticks": 74208,
          "time": 101.70940749999998,
          "velocity": 0.28346456692913385
        },
        {
          "duration": 0.0054823958333258815,
          "durationTicks": 4,
          "midi": 70,
          "name": "A#4",
          "ticks": 74304,
          "time": 101.84098499999999,
          "velocity": 0.6141732283464567
        },
        {
          "duration": 0.0054823958333258815,
          "durationTicks": 4,
          "midi": 63,
          "name": "D#4",
          "ticks": 74304,
          "time": 101.84098499999999,
          "velocity": 0.3858267716535433
        },
        {
          "duration": 0.005482395833340092,
          "durationTicks": 4,
          "midi": 46,
          "name": "A#2",
          "ticks": 74308,
          "time": 101.84646739583332,
          "velocity": 0.4251968503937008
        },
        {
          "duration": 0.0054823958333258815,
          "durationTicks": 4,
          "midi": 70,
          "name": "A#4",
          "ticks": 74400,
          "time": 101.9725625,
          "velocity": 0.7401574803149606
        },
        {
          "duration": 0.0054823958333258815,
          "durationTicks": 4,
          "midi": 35,
          "name": "B1",
          "ticks": 74496,
          "time": 102.10413999999999,
          "velocity": 0.8661417322834646
        },
        {
          "duration": 0.0054823958333258815,
          "durationTicks": 4,
          "midi": 60,
          "name": "C4",
          "ticks": 74496,
          "time": 102.10413999999999,
          "velocity": 0.4251968503937008
        },
        {
          "duration": 0.005482395833354303,
          "durationTicks": 4,
          "midi": 44,
          "name": "G#2",
          "ticks": 74500,
          "time": 102.10962239583331,
          "velocity": 0.49606299212598426
        },
        {
          "duration": 0.005482395833340092,
          "durationTicks": 4,
          "midi": 70,
          "name": "A#4",
          "ticks": 74688,
          "time": 102.36729499999998,
          "velocity": 0.7401574803149606
        },
        {
          "duration": 0.005482395833340092,
          "durationTicks": 4,
          "midi": 46,
          "name": "A#2",
          "ticks": 74692,
          "time": 102.37277739583332,
          "velocity": 0.4251968503937008
        },
        {
          "duration": 0.0054823958333258815,
          "durationTicks": 4,
          "midi": 60,
          "name": "C4",
          "ticks": 74784,
          "time": 102.49887249999999,
          "velocity": 0.33858267716535434
        },
        {
          "duration": 0.0054823958333258815,
          "durationTicks": 4,
          "midi": 35,
          "name": "B1",
          "ticks": 74880,
          "time": 102.63045,
          "velocity": 0.8976377952755905
        },
        {
          "duration": 0.005482395833340092,
          "durationTicks": 4,
          "midi": 40,
          "name": "E2",
          "ticks": 74884,
          "time": 102.63593239583332,
          "velocity": 0.8661417322834646
        },
        {
          "duration": 0.005482395833340092,
          "durationTicks": 4,
          "midi": 44,
          "name": "G#2",
          "ticks": 74884,
          "time": 102.63593239583332,
          "velocity": 0.49606299212598426
        },
        {
          "duration": 0.0054823958333258815,
          "durationTicks": 4,
          "midi": 39,
          "name": "D#2",
          "ticks": 74888,
          "time": 102.64141479166666,
          "velocity": 0.7480314960629921
        },
        {
          "duration": 0.0054823958333258815,
          "durationTicks": 4,
          "midi": 60,
          "name": "C4",
          "ticks": 74976,
          "time": 102.76202749999999,
          "velocity": 0.31496062992125984
        },
        {
          "duration": 0.0054823958333258815,
          "durationTicks": 4,
          "midi": 70,
          "name": "A#4",
          "ticks": 75072,
          "time": 102.893605,
          "velocity": 0.6141732283464567
        },
        {
          "duration": 0.0054823958333258815,
          "durationTicks": 4,
          "midi": 63,
          "name": "D#4",
          "ticks": 75072,
          "time": 102.893605,
          "velocity": 0.3858267716535433
        },
        {
          "duration": 0.005482395833340092,
          "durationTicks": 4,
          "midi": 46,
          "name": "A#2",
          "ticks": 75076,
          "time": 102.89908739583332,
          "velocity": 0.47244094488188976
        },
        {
          "duration": 0.0054823958333258815,
          "durationTicks": 4,
          "midi": 70,
          "name": "A#4",
          "ticks": 75168,
          "time": 103.02518249999999,
          "velocity": 0.7795275590551181
        },
        {
          "duration": 0.0054823958333258815,
          "durationTicks": 4,
          "midi": 35,
          "name": "B1",
          "ticks": 75264,
          "time": 103.15675999999999,
          "velocity": 0.8976377952755905
        },
        {
          "duration": 0.0054823958333258815,
          "durationTicks": 4,
          "midi": 69,
          "name": "A4",
          "ticks": 75264,
          "time": 103.15675999999999,
          "velocity": 0.5826771653543307
        },
        {
          "duration": 0.0054823958333258815,
          "durationTicks": 4,
          "midi": 60,
          "name": "C4",
          "ticks": 75264,
          "time": 103.15675999999999,
          "velocity": 0.4251968503937008
        },
        {
          "duration": 0.005482395833340092,
          "durationTicks": 4,
          "midi": 44,
          "name": "G#2",
          "ticks": 75268,
          "time": 103.16224239583332,
          "velocity": 0.49606299212598426
        },
        {
          "duration": 0.0054823958333258815,
          "durationTicks": 4,
          "midi": 69,
          "name": "A4",
          "ticks": 75356,
          "time": 103.28285510416666,
          "velocity": 0.2204724409448819
        },
        {
          "duration": 0.0054823958333258815,
          "durationTicks": 4,
          "midi": 69,
          "name": "A4",
          "ticks": 75440,
          "time": 103.39798541666666,
          "velocity": 0.8031496062992126
        },
        {
          "duration": 0.0054823958333258815,
          "durationTicks": 4,
          "midi": 70,
          "name": "A#4",
          "ticks": 75456,
          "time": 103.41991499999999,
          "velocity": 0.7401574803149606
        },
        {
          "duration": 0.005482395833340092,
          "durationTicks": 4,
          "midi": 46,
          "name": "A#2",
          "ticks": 75460,
          "time": 103.42539739583331,
          "velocity": 0.5275590551181102
        },
        {
          "duration": 0.0054823958333258815,
          "durationTicks": 4,
          "midi": 69,
          "name": "A4",
          "ticks": 75536,
          "time": 103.52956291666666,
          "velocity": 0.8031496062992126
        },
        {
          "duration": 0.0054823958333258815,
          "durationTicks": 4,
          "midi": 60,
          "name": "C4",
          "ticks": 75552,
          "time": 103.5514925,
          "velocity": 0.33858267716535434
        },
        {
          "duration": 0.0054823958333258815,
          "durationTicks": 4,
          "midi": 35,
          "name": "B1",
          "ticks": 75648,
          "time": 103.68306999999999,
          "velocity": 0.8976377952755905
        },
        {
          "duration": 0.005482395833354303,
          "durationTicks": 4,
          "midi": 40,
          "name": "E2",
          "ticks": 75652,
          "time": 103.68855239583331,
          "velocity": 0.8976377952755905
        },
        {
          "duration": 0.005482395833354303,
          "durationTicks": 4,
          "midi": 44,
          "name": "G#2",
          "ticks": 75652,
          "time": 103.68855239583331,
          "velocity": 0.5984251968503937
        },
        {
          "duration": 0.0054823958333258815,
          "durationTicks": 4,
          "midi": 39,
          "name": "D#2",
          "ticks": 75656,
          "time": 103.69403479166667,
          "velocity": 0.7795275590551181
        },
        {
          "duration": 0.0054823958333258815,
          "durationTicks": 4,
          "midi": 60,
          "name": "C4",
          "ticks": 75744,
          "time": 103.81464749999999,
          "velocity": 0.31496062992125984
        },
        {
          "duration": 0.005482395833340092,
          "durationTicks": 4,
          "midi": 70,
          "name": "A#4",
          "ticks": 75840,
          "time": 103.94622499999998,
          "velocity": 0.5669291338582677
        },
        {
          "duration": 0.005482395833340092,
          "durationTicks": 4,
          "midi": 63,
          "name": "D#4",
          "ticks": 75840,
          "time": 103.94622499999998,
          "velocity": 0.31496062992125984
        },
        {
          "duration": 0.0054823958333258815,
          "durationTicks": 4,
          "midi": 70,
          "name": "A#4",
          "ticks": 75936,
          "time": 104.07780249999999,
          "velocity": 0.6692913385826772
        },
        {
          "duration": 0.0054823958333258815,
          "durationTicks": 4,
          "midi": 35,
          "name": "B1",
          "ticks": 76032,
          "time": 104.20938,
          "velocity": 0.8661417322834646
        },
        {
          "duration": 0.0054823958333258815,
          "durationTicks": 4,
          "midi": 60,
          "name": "C4",
          "ticks": 76032,
          "time": 104.20938,
          "velocity": 0.4251968503937008
        },
        {
          "duration": 0.0054823958333258815,
          "durationTicks": 4,
          "midi": 70,
          "name": "A#4",
          "ticks": 76224,
          "time": 104.472535,
          "velocity": 0.7401574803149606
        },
        {
          "duration": 0.005482395833340092,
          "durationTicks": 4,
          "midi": 46,
          "name": "A#2",
          "ticks": 76228,
          "time": 104.47801739583332,
          "velocity": 0.49606299212598426
        },
        {
          "duration": 0.0054823958333258815,
          "durationTicks": 4,
          "midi": 60,
          "name": "C4",
          "ticks": 76320,
          "time": 104.60411249999999,
          "velocity": 0.31496062992125984
        },
        {
          "duration": 0.0054823958333258815,
          "durationTicks": 4,
          "midi": 35,
          "name": "B1",
          "ticks": 76416,
          "time": 104.73568999999999,
          "velocity": 0.8976377952755905
        },
        {
          "duration": 0.005482395833340092,
          "durationTicks": 4,
          "midi": 40,
          "name": "E2",
          "ticks": 76420,
          "time": 104.74117239583332,
          "velocity": 0.8976377952755905
        },
        {
          "duration": 0.005482395833340092,
          "durationTicks": 4,
          "midi": 44,
          "name": "G#2",
          "ticks": 76420,
          "time": 104.74117239583332,
          "velocity": 0.49606299212598426
        },
        {
          "duration": 0.0054823958333258815,
          "durationTicks": 4,
          "midi": 39,
          "name": "D#2",
          "ticks": 76424,
          "time": 104.74665479166666,
          "velocity": 0.7795275590551181
        },
        {
          "duration": 0.005482395833340092,
          "durationTicks": 4,
          "midi": 60,
          "name": "C4",
          "ticks": 76512,
          "time": 104.86726749999998,
          "velocity": 0.33858267716535434
        },
        {
          "duration": 0.0054823958333258815,
          "durationTicks": 4,
          "midi": 70,
          "name": "A#4",
          "ticks": 76608,
          "time": 104.99884499999999,
          "velocity": 0.7401574803149606
        },
        {
          "duration": 0.0054823958333258815,
          "durationTicks": 4,
          "midi": 63,
          "name": "D#4",
          "ticks": 76608,
          "time": 104.99884499999999,
          "velocity": 0.4251968503937008
        },
        {
          "duration": 0.005482395833340092,
          "durationTicks": 4,
          "midi": 46,
          "name": "A#2",
          "ticks": 76612,
          "time": 105.00432739583331,
          "velocity": 0.49606299212598426
        },
        {
          "duration": 0.0054823958333258815,
          "durationTicks": 4,
          "midi": 35,
          "name": "B1",
          "ticks": 76800,
          "time": 105.26199999999999,
          "velocity": 0.8976377952755905
        },
        {
          "duration": 0.0054823958333258815,
          "durationTicks": 4,
          "midi": 60,
          "name": "C4",
          "ticks": 76800,
          "time": 105.26199999999999,
          "velocity": 0.3858267716535433
        },
        {
          "duration": 0.005482395833354303,
          "durationTicks": 4,
          "midi": 44,
          "name": "G#2",
          "ticks": 76804,
          "time": 105.26748239583331,
          "velocity": 0.5275590551181102
        },
        {
          "duration": 0.005482395833340092,
          "durationTicks": 4,
          "midi": 70,
          "name": "A#4",
          "ticks": 76992,
          "time": 105.52515499999998,
          "velocity": 0.7795275590551181
        },
        {
          "duration": 0.005482395833340092,
          "durationTicks": 4,
          "midi": 46,
          "name": "A#2",
          "ticks": 76996,
          "time": 105.53063739583332,
          "velocity": 0.49606299212598426
        },
        {
          "duration": 0.0054823958333258815,
          "durationTicks": 4,
          "midi": 60,
          "name": "C4",
          "ticks": 77088,
          "time": 105.65673249999999,
          "velocity": 0.31496062992125984
        },
        {
          "duration": 0.0054823958333258815,
          "durationTicks": 4,
          "midi": 35,
          "name": "B1",
          "ticks": 77184,
          "time": 105.78831,
          "velocity": 0.8661417322834646
        },
        {
          "duration": 0.005482395833340092,
          "durationTicks": 4,
          "midi": 40,
          "name": "E2",
          "ticks": 77188,
          "time": 105.79379239583332,
          "velocity": 0.8976377952755905
        },
        {
          "duration": 0.005482395833340092,
          "durationTicks": 4,
          "midi": 44,
          "name": "G#2",
          "ticks": 77188,
          "time": 105.79379239583332,
          "velocity": 0.49606299212598426
        },
        {
          "duration": 0.0054823958333258815,
          "durationTicks": 4,
          "midi": 39,
          "name": "D#2",
          "ticks": 77192,
          "time": 105.79927479166666,
          "velocity": 0.7795275590551181
        },
        {
          "duration": 0.0054823958333258815,
          "durationTicks": 4,
          "midi": 60,
          "name": "C4",
          "ticks": 77280,
          "time": 105.91988749999999,
          "velocity": 0.33858267716535434
        },
        {
          "duration": 0.0054823958333258815,
          "durationTicks": 4,
          "midi": 70,
          "name": "A#4",
          "ticks": 77376,
          "time": 106.051465,
          "velocity": 0.6141732283464567
        },
        {
          "duration": 0.0054823958333258815,
          "durationTicks": 4,
          "midi": 63,
          "name": "D#4",
          "ticks": 77376,
          "time": 106.051465,
          "velocity": 0.31496062992125984
        },
        {
          "duration": 0.005482395833340092,
          "durationTicks": 4,
          "midi": 46,
          "name": "A#2",
          "ticks": 77380,
          "time": 106.05694739583332,
          "velocity": 0.49606299212598426
        },
        {
          "duration": 0.0054823958333258815,
          "durationTicks": 4,
          "midi": 70,
          "name": "A#4",
          "ticks": 77472,
          "time": 106.18304249999998,
          "velocity": 0.6692913385826772
        },
        {
          "duration": 0.0054823958333258815,
          "durationTicks": 4,
          "midi": 35,
          "name": "B1",
          "ticks": 77568,
          "time": 106.31461999999999,
          "velocity": 0.8976377952755905
        },
        {
          "duration": 0.0054823958333258815,
          "durationTicks": 4,
          "midi": 60,
          "name": "C4",
          "ticks": 77568,
          "time": 106.31461999999999,
          "velocity": 0.3858267716535433
        },
        {
          "duration": 0.005482395833340092,
          "durationTicks": 4,
          "midi": 44,
          "name": "G#2",
          "ticks": 77572,
          "time": 106.32010239583332,
          "velocity": 0.49606299212598426
        },
        {
          "duration": 0.0054823958333258815,
          "durationTicks": 4,
          "midi": 70,
          "name": "A#4",
          "ticks": 77760,
          "time": 106.57777499999999,
          "velocity": 0.7795275590551181
        },
        {
          "duration": 0.005482395833340092,
          "durationTicks": 4,
          "midi": 46,
          "name": "A#2",
          "ticks": 77764,
          "time": 106.58325739583331,
          "velocity": 0.49606299212598426
        },
        {
          "duration": 0.0054823958333258815,
          "durationTicks": 4,
          "midi": 60,
          "name": "C4",
          "ticks": 77856,
          "time": 106.7093525,
          "velocity": 0.31496062992125984
        },
        {
          "duration": 0.0054823958333258815,
          "durationTicks": 4,
          "midi": 35,
          "name": "B1",
          "ticks": 77952,
          "time": 106.84092999999999,
          "velocity": 0.8976377952755905
        },
        {
          "duration": 0.005482395833354303,
          "durationTicks": 4,
          "midi": 40,
          "name": "E2",
          "ticks": 77956,
          "time": 106.84641239583331,
          "velocity": 0.8976377952755905
        },
        {
          "duration": 0.005482395833354303,
          "durationTicks": 4,
          "midi": 44,
          "name": "G#2",
          "ticks": 77956,
          "time": 106.84641239583331,
          "velocity": 0.5275590551181102
        },
        {
          "duration": 0.0054823958333258815,
          "durationTicks": 4,
          "midi": 39,
          "name": "D#2",
          "ticks": 77960,
          "time": 106.85189479166667,
          "velocity": 0.7795275590551181
        },
        {
          "duration": 0.0054823958333258815,
          "durationTicks": 4,
          "midi": 60,
          "name": "C4",
          "ticks": 78048,
          "time": 106.97250749999999,
          "velocity": 0.31496062992125984
        },
        {
          "duration": 0.005482395833340092,
          "durationTicks": 4,
          "midi": 70,
          "name": "A#4",
          "ticks": 78144,
          "time": 107.10408499999998,
          "velocity": 0.6377952755905512
        },
        {
          "duration": 0.005482395833340092,
          "durationTicks": 4,
          "midi": 63,
          "name": "D#4",
          "ticks": 78144,
          "time": 107.10408499999998,
          "velocity": 0.3858267716535433
        },
        {
          "duration": 0.005482395833340092,
          "durationTicks": 4,
          "midi": 46,
          "name": "A#2",
          "ticks": 78148,
          "time": 107.10956739583332,
          "velocity": 0.5275590551181102
        },
        {
          "duration": 0.0054823958333258815,
          "durationTicks": 4,
          "midi": 70,
          "name": "A#4",
          "ticks": 78240,
          "time": 107.23566249999999,
          "velocity": 0.7795275590551181
        },
        {
          "duration": 0.0054823958333258815,
          "durationTicks": 4,
          "midi": 35,
          "name": "B1",
          "ticks": 78336,
          "time": 107.36724,
          "velocity": 0.8661417322834646
        },
        {
          "duration": 0.0054823958333258815,
          "durationTicks": 4,
          "midi": 69,
          "name": "A4",
          "ticks": 78336,
          "time": 107.36724,
          "velocity": 0.5826771653543307
        },
        {
          "duration": 0.0054823958333258815,
          "durationTicks": 4,
          "midi": 60,
          "name": "C4",
          "ticks": 78336,
          "time": 107.36724,
          "velocity": 0.4251968503937008
        },
        {
          "duration": 0.005482395833340092,
          "durationTicks": 4,
          "midi": 44,
          "name": "G#2",
          "ticks": 78340,
          "time": 107.37272239583332,
          "velocity": 0.5984251968503937
        },
        {
          "duration": 0.0054823958333258815,
          "durationTicks": 4,
          "midi": 69,
          "name": "A4",
          "ticks": 78428,
          "time": 107.49333510416666,
          "velocity": 0.2204724409448819
        },
        {
          "duration": 0.0054823958333258815,
          "durationTicks": 4,
          "midi": 69,
          "name": "A4",
          "ticks": 78512,
          "time": 107.60846541666666,
          "velocity": 0.8031496062992126
        },
        {
          "duration": 0.0054823958333258815,
          "durationTicks": 4,
          "midi": 70,
          "name": "A#4",
          "ticks": 78528,
          "time": 107.630395,
          "velocity": 0.7795275590551181
        },
        {
          "duration": 0.005482395833340092,
          "durationTicks": 4,
          "midi": 46,
          "name": "A#2",
          "ticks": 78532,
          "time": 107.63587739583332,
          "velocity": 0.49606299212598426
        },
        {
          "duration": 0.0054823958333258815,
          "durationTicks": 4,
          "midi": 69,
          "name": "A4",
          "ticks": 78608,
          "time": 107.74004291666667,
          "velocity": 0.8031496062992126
        },
        {
          "duration": 0.0054823958333258815,
          "durationTicks": 4,
          "midi": 60,
          "name": "C4",
          "ticks": 78624,
          "time": 107.76197249999998,
          "velocity": 0.4251968503937008
        },
        {
          "duration": 0.0054823958333258815,
          "durationTicks": 4,
          "midi": 35,
          "name": "B1",
          "ticks": 78720,
          "time": 107.89354999999999,
          "velocity": 0.8976377952755905
        },
        {
          "duration": 0.005482395833340092,
          "durationTicks": 4,
          "midi": 40,
          "name": "E2",
          "ticks": 78724,
          "time": 107.89903239583332,
          "velocity": 0.8661417322834646
        },
        {
          "duration": 0.005482395833340092,
          "durationTicks": 4,
          "midi": 44,
          "name": "G#2",
          "ticks": 78724,
          "time": 107.89903239583332,
          "velocity": 0.47244094488188976
        },
        {
          "duration": 0.0054823958333258815,
          "durationTicks": 4,
          "midi": 39,
          "name": "D#2",
          "ticks": 78728,
          "time": 107.90451479166666,
          "velocity": 0.7480314960629921
        },
        {
          "duration": 0.005482395833340092,
          "durationTicks": 4,
          "midi": 60,
          "name": "C4",
          "ticks": 78816,
          "time": 108.02512749999998,
          "velocity": 0.33858267716535434
        },
        {
          "duration": 0.0054823958333258815,
          "durationTicks": 4,
          "midi": 70,
          "name": "A#4",
          "ticks": 78912,
          "time": 108.15670499999999,
          "velocity": 0.6377952755905512
        },
        {
          "duration": 0.0054823958333258815,
          "durationTicks": 4,
          "midi": 63,
          "name": "D#4",
          "ticks": 78912,
          "time": 108.15670499999999,
          "velocity": 0.3858267716535433
        },
        {
          "duration": 0.0054823958333258815,
          "durationTicks": 4,
          "midi": 70,
          "name": "A#4",
          "ticks": 79008,
          "time": 108.2882825,
          "velocity": 0.7795275590551181
        },
        {
          "duration": 0.0054823958333258815,
          "durationTicks": 4,
          "midi": 35,
          "name": "B1",
          "ticks": 79104,
          "time": 108.41985999999999,
          "velocity": 0.8661417322834646
        },
        {
          "duration": 0.0054823958333258815,
          "durationTicks": 4,
          "midi": 60,
          "name": "C4",
          "ticks": 79104,
          "time": 108.41985999999999,
          "velocity": 0.4251968503937008
        },
        {
          "duration": 0.005482395833340092,
          "durationTicks": 4,
          "midi": 70,
          "name": "A#4",
          "ticks": 79296,
          "time": 108.68301499999998,
          "velocity": 0.7401574803149606
        },
        {
          "duration": 0.005482395833340092,
          "durationTicks": 4,
          "midi": 46,
          "name": "A#2",
          "ticks": 79300,
          "time": 108.68849739583332,
          "velocity": 0.5275590551181102
        },
        {
          "duration": 0.0054823958333258815,
          "durationTicks": 4,
          "midi": 60,
          "name": "C4",
          "ticks": 79392,
          "time": 108.81459249999999,
          "velocity": 0.33858267716535434
        },
        {
          "duration": 0.0054823958333258815,
          "durationTicks": 4,
          "midi": 35,
          "name": "B1",
          "ticks": 79488,
          "time": 108.94617,
          "velocity": 0.8976377952755905
        },
        {
          "duration": 0.005482395833340092,
          "durationTicks": 4,
          "midi": 40,
          "name": "E2",
          "ticks": 79492,
          "time": 108.95165239583332,
          "velocity": 0.8661417322834646
        },
        {
          "duration": 0.005482395833340092,
          "durationTicks": 4,
          "midi": 44,
          "name": "G#2",
          "ticks": 79492,
          "time": 108.95165239583332,
          "velocity": 0.5275590551181102
        },
        {
          "duration": 0.0054823958333258815,
          "durationTicks": 4,
          "midi": 39,
          "name": "D#2",
          "ticks": 79496,
          "time": 108.95713479166666,
          "velocity": 0.7480314960629921
        },
        {
          "duration": 0.0054823958333258815,
          "durationTicks": 4,
          "midi": 60,
          "name": "C4",
          "ticks": 79584,
          "time": 109.07774749999999,
          "velocity": 0.3858267716535433
        },
        {
          "duration": 0.0054823958333258815,
          "durationTicks": 4,
          "midi": 70,
          "name": "A#4",
          "ticks": 79680,
          "time": 109.20932499999999,
          "velocity": 0.7401574803149606
        },
        {
          "duration": 0.0054823958333258815,
          "durationTicks": 4,
          "midi": 63,
          "name": "D#4",
          "ticks": 79680,
          "time": 109.20932499999999,
          "velocity": 0.4251968503937008
        },
        {
          "duration": 0.005482395833340092,
          "durationTicks": 4,
          "midi": 46,
          "name": "A#2",
          "ticks": 79684,
          "time": 109.21480739583332,
          "velocity": 0.49606299212598426
        },
        {
          "duration": 0.0054823958333258815,
          "durationTicks": 4,
          "midi": 35,
          "name": "B1",
          "ticks": 79872,
          "time": 109.47247999999999,
          "velocity": 0.8661417322834646
        },
        {
          "duration": 0.0054823958333258815,
          "durationTicks": 4,
          "midi": 60,
          "name": "C4",
          "ticks": 79872,
          "time": 109.47247999999999,
          "velocity": 0.4251968503937008
        },
        {
          "duration": 0.005482395833340092,
          "durationTicks": 4,
          "midi": 44,
          "name": "G#2",
          "ticks": 79876,
          "time": 109.47796239583332,
          "velocity": 0.49606299212598426
        },
        {
          "duration": 0.0054823958333258815,
          "durationTicks": 4,
          "midi": 70,
          "name": "A#4",
          "ticks": 80064,
          "time": 109.73563499999999,
          "velocity": 0.7401574803149606
        },
        {
          "duration": 0.005482395833340092,
          "durationTicks": 4,
          "midi": 46,
          "name": "A#2",
          "ticks": 80068,
          "time": 109.74111739583331,
          "velocity": 0.47244094488188976
        },
        {
          "duration": 0.0054823958333258815,
          "durationTicks": 4,
          "midi": 60,
          "name": "C4",
          "ticks": 80160,
          "time": 109.8672125,
          "velocity": 0.25984251968503935
        },
        {
          "duration": 0.0054823958333258815,
          "durationTicks": 4,
          "midi": 35,
          "name": "B1",
          "ticks": 80256,
          "time": 109.99878999999999,
          "velocity": 0.8661417322834646
        },
        {
          "duration": 0.005482395833354303,
          "durationTicks": 4,
          "midi": 40,
          "name": "E2",
          "ticks": 80260,
          "time": 110.00427239583331,
          "velocity": 0.8661417322834646
        },
        {
          "duration": 0.005482395833354303,
          "durationTicks": 4,
          "midi": 44,
          "name": "G#2",
          "ticks": 80260,
          "time": 110.00427239583331,
          "velocity": 0.49606299212598426
        },
        {
          "duration": 0.0054823958333258815,
          "durationTicks": 4,
          "midi": 39,
          "name": "D#2",
          "ticks": 80264,
          "time": 110.00975479166667,
          "velocity": 0.7480314960629921
        },
        {
          "duration": 0.0054823958333258815,
          "durationTicks": 4,
          "midi": 60,
          "name": "C4",
          "ticks": 80352,
          "time": 110.13036749999999,
          "velocity": 0.28346456692913385
        },
        {
          "duration": 0.005482395833340092,
          "durationTicks": 4,
          "midi": 70,
          "name": "A#4",
          "ticks": 80448,
          "time": 110.26194499999998,
          "velocity": 0.6141732283464567
        },
        {
          "duration": 0.005482395833340092,
          "durationTicks": 4,
          "midi": 63,
          "name": "D#4",
          "ticks": 80448,
          "time": 110.26194499999998,
          "velocity": 0.3858267716535433
        },
        {
          "duration": 0.005482395833340092,
          "durationTicks": 4,
          "midi": 46,
          "name": "A#2",
          "ticks": 80452,
          "time": 110.26742739583332,
          "velocity": 0.4251968503937008
        },
        {
          "duration": 0.0054823958333258815,
          "durationTicks": 4,
          "midi": 70,
          "name": "A#4",
          "ticks": 80544,
          "time": 110.39352249999999,
          "velocity": 0.7401574803149606
        },
        {
          "duration": 0.0054823958333258815,
          "durationTicks": 4,
          "midi": 35,
          "name": "B1",
          "ticks": 80640,
          "time": 110.5251,
          "velocity": 0.8661417322834646
        },
        {
          "duration": 0.0054823958333258815,
          "durationTicks": 4,
          "midi": 60,
          "name": "C4",
          "ticks": 80640,
          "time": 110.5251,
          "velocity": 0.4251968503937008
        },
        {
          "duration": 0.005482395833340092,
          "durationTicks": 4,
          "midi": 44,
          "name": "G#2",
          "ticks": 80644,
          "time": 110.53058239583332,
          "velocity": 0.49606299212598426
        },
        {
          "duration": 0.0054823958333258815,
          "durationTicks": 4,
          "midi": 70,
          "name": "A#4",
          "ticks": 80832,
          "time": 110.78825499999999,
          "velocity": 0.7401574803149606
        },
        {
          "duration": 0.005482395833340092,
          "durationTicks": 4,
          "midi": 46,
          "name": "A#2",
          "ticks": 80836,
          "time": 110.79373739583332,
          "velocity": 0.4251968503937008
        },
        {
          "duration": 0.0054823958333258815,
          "durationTicks": 4,
          "midi": 60,
          "name": "C4",
          "ticks": 80928,
          "time": 110.91983249999998,
          "velocity": 0.33858267716535434
        },
        {
          "duration": 0.0054823958333258815,
          "durationTicks": 4,
          "midi": 35,
          "name": "B1",
          "ticks": 81024,
          "time": 111.05140999999999,
          "velocity": 0.8976377952755905
        },
        {
          "duration": 0.005482395833340092,
          "durationTicks": 4,
          "midi": 40,
          "name": "E2",
          "ticks": 81028,
          "time": 111.05689239583332,
          "velocity": 0.8661417322834646
        },
        {
          "duration": 0.005482395833340092,
          "durationTicks": 4,
          "midi": 44,
          "name": "G#2",
          "ticks": 81028,
          "time": 111.05689239583332,
          "velocity": 0.49606299212598426
        },
        {
          "duration": 0.0054823958333258815,
          "durationTicks": 4,
          "midi": 39,
          "name": "D#2",
          "ticks": 81032,
          "time": 111.06237479166666,
          "velocity": 0.7480314960629921
        },
        {
          "duration": 0.005482395833340092,
          "durationTicks": 4,
          "midi": 60,
          "name": "C4",
          "ticks": 81120,
          "time": 111.18298749999998,
          "velocity": 0.31496062992125984
        },
        {
          "duration": 0.0054823958333258815,
          "durationTicks": 4,
          "midi": 70,
          "name": "A#4",
          "ticks": 81216,
          "time": 111.31456499999999,
          "velocity": 0.6141732283464567
        },
        {
          "duration": 0.0054823958333258815,
          "durationTicks": 4,
          "midi": 63,
          "name": "D#4",
          "ticks": 81216,
          "time": 111.31456499999999,
          "velocity": 0.3858267716535433
        },
        {
          "duration": 0.005482395833340092,
          "durationTicks": 4,
          "midi": 46,
          "name": "A#2",
          "ticks": 81220,
          "time": 111.32004739583331,
          "velocity": 0.47244094488188976
        },
        {
          "duration": 0.0054823958333258815,
          "durationTicks": 4,
          "midi": 70,
          "name": "A#4",
          "ticks": 81312,
          "time": 111.4461425,
          "velocity": 0.7795275590551181
        },
        {
          "duration": 0.0054823958333258815,
          "durationTicks": 4,
          "midi": 35,
          "name": "B1",
          "ticks": 81408,
          "time": 111.57771999999999,
          "velocity": 0.8976377952755905
        },
        {
          "duration": 0.0054823958333258815,
          "durationTicks": 4,
          "midi": 69,
          "name": "A4",
          "ticks": 81408,
          "time": 111.57771999999999,
          "velocity": 0.5826771653543307
        },
        {
          "duration": 0.0054823958333258815,
          "durationTicks": 4,
          "midi": 60,
          "name": "C4",
          "ticks": 81408,
          "time": 111.57771999999999,
          "velocity": 0.4251968503937008
        },
        {
          "duration": 0.005482395833354303,
          "durationTicks": 4,
          "midi": 44,
          "name": "G#2",
          "ticks": 81412,
          "time": 111.58320239583331,
          "velocity": 0.49606299212598426
        },
        {
          "duration": 0.0054823958333258815,
          "durationTicks": 4,
          "midi": 69,
          "name": "A4",
          "ticks": 81500,
          "time": 111.70381510416667,
          "velocity": 0.2204724409448819
        },
        {
          "duration": 0.0054823958333258815,
          "durationTicks": 4,
          "midi": 69,
          "name": "A4",
          "ticks": 81584,
          "time": 111.81894541666666,
          "velocity": 0.8031496062992126
        },
        {
          "duration": 0.005482395833340092,
          "durationTicks": 4,
          "midi": 70,
          "name": "A#4",
          "ticks": 81600,
          "time": 111.84087499999998,
          "velocity": 0.7401574803149606
        },
        {
          "duration": 0.005482395833340092,
          "durationTicks": 4,
          "midi": 46,
          "name": "A#2",
          "ticks": 81604,
          "time": 111.84635739583332,
          "velocity": 0.5275590551181102
        },
        {
          "duration": 0.0054823958333258815,
          "durationTicks": 4,
          "midi": 69,
          "name": "A4",
          "ticks": 81680,
          "time": 111.95052291666666,
          "velocity": 0.8031496062992126
        },
        {
          "duration": 0.0054823958333258815,
          "durationTicks": 4,
          "midi": 60,
          "name": "C4",
          "ticks": 81696,
          "time": 111.97245249999999,
          "velocity": 0.33858267716535434
        },
        {
          "duration": 0.0054823958333258815,
          "durationTicks": 4,
          "midi": 35,
          "name": "B1",
          "ticks": 81792,
          "time": 112.10403,
          "velocity": 0.8976377952755905
        },
        {
          "duration": 0.005482395833340092,
          "durationTicks": 4,
          "midi": 40,
          "name": "E2",
          "ticks": 81796,
          "time": 112.10951239583332,
          "velocity": 0.8976377952755905
        },
        {
          "duration": 0.005482395833340092,
          "durationTicks": 4,
          "midi": 44,
          "name": "G#2",
          "ticks": 81796,
          "time": 112.10951239583332,
          "velocity": 0.5984251968503937
        },
        {
          "duration": 0.0054823958333258815,
          "durationTicks": 4,
          "midi": 39,
          "name": "D#2",
          "ticks": 81800,
          "time": 112.11499479166666,
          "velocity": 0.7795275590551181
        },
        {
          "duration": 0.0054823958333258815,
          "durationTicks": 4,
          "midi": 60,
          "name": "C4",
          "ticks": 81888,
          "time": 112.23560749999999,
          "velocity": 0.31496062992125984
        },
        {
          "duration": 0.0054823958333258815,
          "durationTicks": 4,
          "midi": 70,
          "name": "A#4",
          "ticks": 81984,
          "time": 112.36718499999999,
          "velocity": 0.5669291338582677
        },
        {
          "duration": 0.0054823958333258815,
          "durationTicks": 4,
          "midi": 63,
          "name": "D#4",
          "ticks": 81984,
          "time": 112.36718499999999,
          "velocity": 0.31496062992125984
        },
        {
          "duration": 0.0054823958333258815,
          "durationTicks": 4,
          "midi": 70,
          "name": "A#4",
          "ticks": 82080,
          "time": 112.49876249999998,
          "velocity": 0.6692913385826772
        },
        {
          "duration": 0.0054823958333258815,
          "durationTicks": 4,
          "midi": 35,
          "name": "B1",
          "ticks": 82176,
          "time": 112.63033999999999,
          "velocity": 0.8661417322834646
        },
        {
          "duration": 0.0054823958333258815,
          "durationTicks": 4,
          "midi": 60,
          "name": "C4",
          "ticks": 82176,
          "time": 112.63033999999999,
          "velocity": 0.4251968503937008
        },
        {
          "duration": 0.0054823958333258815,
          "durationTicks": 4,
          "midi": 70,
          "name": "A#4",
          "ticks": 82368,
          "time": 112.89349499999999,
          "velocity": 0.7401574803149606
        },
        {
          "duration": 0.005482395833340092,
          "durationTicks": 4,
          "midi": 46,
          "name": "A#2",
          "ticks": 82372,
          "time": 112.89897739583331,
          "velocity": 0.49606299212598426
        },
        {
          "duration": 0.0054823958333258815,
          "durationTicks": 4,
          "midi": 60,
          "name": "C4",
          "ticks": 82464,
          "time": 113.0250725,
          "velocity": 0.31496062992125984
        },
        {
          "duration": 0.0054823958333258815,
          "durationTicks": 4,
          "midi": 35,
          "name": "B1",
          "ticks": 82560,
          "time": 113.15664999999998,
          "velocity": 0.8976377952755905
        },
        {
          "duration": 0.005482395833354303,
          "durationTicks": 4,
          "midi": 40,
          "name": "E2",
          "ticks": 82564,
          "time": 113.16213239583331,
          "velocity": 0.8976377952755905
        },
        {
          "duration": 0.005482395833354303,
          "durationTicks": 4,
          "midi": 44,
          "name": "G#2",
          "ticks": 82564,
          "time": 113.16213239583331,
          "velocity": 0.49606299212598426
        },
        {
          "duration": 0.0054823958333258815,
          "durationTicks": 4,
          "midi": 39,
          "name": "D#2",
          "ticks": 82568,
          "time": 113.16761479166667,
          "velocity": 0.7795275590551181
        },
        {
          "duration": 0.0054823958333258815,
          "durationTicks": 4,
          "midi": 60,
          "name": "C4",
          "ticks": 82656,
          "time": 113.28822749999999,
          "velocity": 0.33858267716535434
        },
        {
          "duration": 0.005482395833340092,
          "durationTicks": 4,
          "midi": 70,
          "name": "A#4",
          "ticks": 82752,
          "time": 113.41980499999998,
          "velocity": 0.7401574803149606
        },
        {
          "duration": 0.005482395833340092,
          "durationTicks": 4,
          "midi": 63,
          "name": "D#4",
          "ticks": 82752,
          "time": 113.41980499999998,
          "velocity": 0.4251968503937008
        },
        {
          "duration": 0.005482395833340092,
          "durationTicks": 4,
          "midi": 46,
          "name": "A#2",
          "ticks": 82756,
          "time": 113.42528739583332,
          "velocity": 0.49606299212598426
        },
        {
          "duration": 0.0054823958333258815,
          "durationTicks": 4,
          "midi": 35,
          "name": "B1",
          "ticks": 82944,
          "time": 113.68296,
          "velocity": 0.8976377952755905
        },
        {
          "duration": 0.0054823958333258815,
          "durationTicks": 4,
          "midi": 60,
          "name": "C4",
          "ticks": 82944,
          "time": 113.68296,
          "velocity": 0.3858267716535433
        },
        {
          "duration": 0.005482395833340092,
          "durationTicks": 4,
          "midi": 44,
          "name": "G#2",
          "ticks": 82948,
          "time": 113.68844239583332,
          "velocity": 0.5275590551181102
        },
        {
          "duration": 0.0054823958333258815,
          "durationTicks": 4,
          "midi": 70,
          "name": "A#4",
          "ticks": 83136,
          "time": 113.94611499999999,
          "velocity": 0.7795275590551181
        },
        {
          "duration": 0.005482395833340092,
          "durationTicks": 4,
          "midi": 46,
          "name": "A#2",
          "ticks": 83140,
          "time": 113.95159739583332,
          "velocity": 0.49606299212598426
        },
        {
          "duration": 0.0054823958333258815,
          "durationTicks": 4,
          "midi": 60,
          "name": "C4",
          "ticks": 83232,
          "time": 114.07769249999998,
          "velocity": 0.31496062992125984
        },
        {
          "duration": 0.0054823958333258815,
          "durationTicks": 4,
          "midi": 35,
          "name": "B1",
          "ticks": 83328,
          "time": 114.20926999999999,
          "velocity": 0.8661417322834646
        },
        {
          "duration": 0.005482395833340092,
          "durationTicks": 4,
          "midi": 40,
          "name": "E2",
          "ticks": 83332,
          "time": 114.21475239583332,
          "velocity": 0.8976377952755905
        },
        {
          "duration": 0.005482395833340092,
          "durationTicks": 4,
          "midi": 44,
          "name": "G#2",
          "ticks": 83332,
          "time": 114.21475239583332,
          "velocity": 0.49606299212598426
        },
        {
          "duration": 0.0054823958333258815,
          "durationTicks": 4,
          "midi": 39,
          "name": "D#2",
          "ticks": 83336,
          "time": 114.22023479166666,
          "velocity": 0.7795275590551181
        },
        {
          "duration": 0.005482395833340092,
          "durationTicks": 4,
          "midi": 60,
          "name": "C4",
          "ticks": 83424,
          "time": 114.34084749999998,
          "velocity": 0.33858267716535434
        },
        {
          "duration": 0.0054823958333258815,
          "durationTicks": 4,
          "midi": 70,
          "name": "A#4",
          "ticks": 83520,
          "time": 114.47242499999999,
          "velocity": 0.6141732283464567
        },
        {
          "duration": 0.0054823958333258815,
          "durationTicks": 4,
          "midi": 63,
          "name": "D#4",
          "ticks": 83520,
          "time": 114.47242499999999,
          "velocity": 0.31496062992125984
        },
        {
          "duration": 0.005482395833340092,
          "durationTicks": 4,
          "midi": 46,
          "name": "A#2",
          "ticks": 83524,
          "time": 114.47790739583331,
          "velocity": 0.49606299212598426
        },
        {
          "duration": 0.0054823958333258815,
          "durationTicks": 4,
          "midi": 70,
          "name": "A#4",
          "ticks": 83616,
          "time": 114.60400249999999,
          "velocity": 0.6692913385826772
        },
        {
          "duration": 0.0054823958333258815,
          "durationTicks": 4,
          "midi": 35,
          "name": "B1",
          "ticks": 83712,
          "time": 114.73557999999998,
          "velocity": 0.8976377952755905
        },
        {
          "duration": 0.0054823958333258815,
          "durationTicks": 4,
          "midi": 60,
          "name": "C4",
          "ticks": 83712,
          "time": 114.73557999999998,
          "velocity": 0.3858267716535433
        },
        {
          "duration": 0.005482395833354303,
          "durationTicks": 4,
          "midi": 44,
          "name": "G#2",
          "ticks": 83716,
          "time": 114.74106239583331,
          "velocity": 0.49606299212598426
        },
        {
          "duration": 0.005482395833340092,
          "durationTicks": 4,
          "midi": 70,
          "name": "A#4",
          "ticks": 83904,
          "time": 114.99873499999998,
          "velocity": 0.7795275590551181
        },
        {
          "duration": 0.005482395833340092,
          "durationTicks": 4,
          "midi": 46,
          "name": "A#2",
          "ticks": 83908,
          "time": 115.00421739583332,
          "velocity": 0.49606299212598426
        },
        {
          "duration": 0.0054823958333258815,
          "durationTicks": 4,
          "midi": 60,
          "name": "C4",
          "ticks": 84000,
          "time": 115.13031249999999,
          "velocity": 0.31496062992125984
        },
        {
          "duration": 0.0054823958333258815,
          "durationTicks": 4,
          "midi": 35,
          "name": "B1",
          "ticks": 84096,
          "time": 115.26189,
          "velocity": 0.8976377952755905
        },
        {
          "duration": 0.005482395833340092,
          "durationTicks": 4,
          "midi": 40,
          "name": "E2",
          "ticks": 84100,
          "time": 115.26737239583332,
          "velocity": 0.8976377952755905
        },
        {
          "duration": 0.005482395833340092,
          "durationTicks": 4,
          "midi": 44,
          "name": "G#2",
          "ticks": 84100,
          "time": 115.26737239583332,
          "velocity": 0.5275590551181102
        },
        {
          "duration": 0.0054823958333258815,
          "durationTicks": 4,
          "midi": 39,
          "name": "D#2",
          "ticks": 84104,
          "time": 115.27285479166666,
          "velocity": 0.7795275590551181
        },
        {
          "duration": 0.0054823958333258815,
          "durationTicks": 4,
          "midi": 60,
          "name": "C4",
          "ticks": 84192,
          "time": 115.39346749999999,
          "velocity": 0.31496062992125984
        },
        {
          "duration": 0.0054823958333258815,
          "durationTicks": 4,
          "midi": 70,
          "name": "A#4",
          "ticks": 84288,
          "time": 115.52504499999999,
          "velocity": 0.6377952755905512
        },
        {
          "duration": 0.0054823958333258815,
          "durationTicks": 4,
          "midi": 63,
          "name": "D#4",
          "ticks": 84288,
          "time": 115.52504499999999,
          "velocity": 0.3858267716535433
        },
        {
          "duration": 0.005482395833340092,
          "durationTicks": 4,
          "midi": 46,
          "name": "A#2",
          "ticks": 84292,
          "time": 115.53052739583332,
          "velocity": 0.5275590551181102
        },
        {
          "duration": 0.0054823958333258815,
          "durationTicks": 4,
          "midi": 70,
          "name": "A#4",
          "ticks": 84384,
          "time": 115.65662249999998,
          "velocity": 0.7795275590551181
        },
        {
          "duration": 0.0054823958333258815,
          "durationTicks": 4,
          "midi": 35,
          "name": "B1",
          "ticks": 84480,
          "time": 115.78819999999999,
          "velocity": 0.8661417322834646
        },
        {
          "duration": 0.0054823958333258815,
          "durationTicks": 4,
          "midi": 69,
          "name": "A4",
          "ticks": 84480,
          "time": 115.78819999999999,
          "velocity": 0.5826771653543307
        },
        {
          "duration": 0.0054823958333258815,
          "durationTicks": 4,
          "midi": 60,
          "name": "C4",
          "ticks": 84480,
          "time": 115.78819999999999,
          "velocity": 0.4251968503937008
        },
        {
          "duration": 0.005482395833340092,
          "durationTicks": 4,
          "midi": 44,
          "name": "G#2",
          "ticks": 84484,
          "time": 115.79368239583332,
          "velocity": 0.5984251968503937
        },
        {
          "duration": 0.0054823958333258815,
          "durationTicks": 4,
          "midi": 69,
          "name": "A4",
          "ticks": 84572,
          "time": 115.91429510416665,
          "velocity": 0.2204724409448819
        },
        {
          "duration": 0.005482395833340092,
          "durationTicks": 4,
          "midi": 69,
          "name": "A4",
          "ticks": 84656,
          "time": 116.02942541666665,
          "velocity": 0.8031496062992126
        },
        {
          "duration": 0.0054823958333258815,
          "durationTicks": 4,
          "midi": 70,
          "name": "A#4",
          "ticks": 84672,
          "time": 116.05135499999999,
          "velocity": 0.7795275590551181
        },
        {
          "duration": 0.005482395833340092,
          "durationTicks": 4,
          "midi": 46,
          "name": "A#2",
          "ticks": 84676,
          "time": 116.05683739583331,
          "velocity": 0.49606299212598426
        },
        {
          "duration": 0.0054823958333258815,
          "durationTicks": 4,
          "midi": 69,
          "name": "A4",
          "ticks": 84752,
          "time": 116.16100291666666,
          "velocity": 0.8031496062992126
        },
        {
          "duration": 0.0054823958333258815,
          "durationTicks": 4,
          "midi": 60,
          "name": "C4",
          "ticks": 84768,
          "time": 116.18293249999999,
          "velocity": 0.4251968503937008
        },
        {
          "duration": 0.0054823958333258815,
          "durationTicks": 4,
          "midi": 35,
          "name": "B1",
          "ticks": 84864,
          "time": 116.31450999999998,
          "velocity": 0.8976377952755905
        },
        {
          "duration": 0.005482395833354303,
          "durationTicks": 4,
          "midi": 40,
          "name": "E2",
          "ticks": 84868,
          "time": 116.31999239583331,
          "velocity": 0.8661417322834646
        },
        {
          "duration": 0.005482395833354303,
          "durationTicks": 4,
          "midi": 44,
          "name": "G#2",
          "ticks": 84868,
          "time": 116.31999239583331,
          "velocity": 0.47244094488188976
        },
        {
          "duration": 0.0054823958333258815,
          "durationTicks": 4,
          "midi": 39,
          "name": "D#2",
          "ticks": 84872,
          "time": 116.32547479166666,
          "velocity": 0.7480314960629921
        },
        {
          "duration": 0.0054823958333258815,
          "durationTicks": 4,
          "midi": 60,
          "name": "C4",
          "ticks": 84960,
          "time": 116.44608749999999,
          "velocity": 0.33858267716535434
        },
        {
          "duration": 0.005482395833340092,
          "durationTicks": 4,
          "midi": 70,
          "name": "A#4",
          "ticks": 85056,
          "time": 116.57766499999998,
          "velocity": 0.6377952755905512
        },
        {
          "duration": 0.005482395833340092,
          "durationTicks": 4,
          "midi": 63,
          "name": "D#4",
          "ticks": 85056,
          "time": 116.57766499999998,
          "velocity": 0.3858267716535433
        },
        {
          "duration": 0.0054823958333258815,
          "durationTicks": 4,
          "midi": 70,
          "name": "A#4",
          "ticks": 85152,
          "time": 116.70924249999999,
          "velocity": 0.7795275590551181
        },
        {
          "duration": 0.0054823958333258815,
          "durationTicks": 4,
          "midi": 35,
          "name": "B1",
          "ticks": 85248,
          "time": 116.84082,
          "velocity": 0.8661417322834646
        },
        {
          "duration": 0.0054823958333258815,
          "durationTicks": 4,
          "midi": 60,
          "name": "C4",
          "ticks": 85248,
          "time": 116.84082,
          "velocity": 0.4251968503937008
        },
        {
          "duration": 0.0054823958333258815,
          "durationTicks": 4,
          "midi": 70,
          "name": "A#4",
          "ticks": 85440,
          "time": 117.10397499999999,
          "velocity": 0.7401574803149606
        },
        {
          "duration": 0.005482395833340092,
          "durationTicks": 4,
          "midi": 46,
          "name": "A#2",
          "ticks": 85444,
          "time": 117.10945739583332,
          "velocity": 0.5275590551181102
        },
        {
          "duration": 0.005482395833340092,
          "durationTicks": 4,
          "midi": 60,
          "name": "C4",
          "ticks": 85536,
          "time": 117.23555249999998,
          "velocity": 0.33858267716535434
        },
        {
          "duration": 0.0054823958333258815,
          "durationTicks": 4,
          "midi": 35,
          "name": "B1",
          "ticks": 85632,
          "time": 117.36712999999999,
          "velocity": 0.8976377952755905
        },
        {
          "duration": 0.005482395833340092,
          "durationTicks": 4,
          "midi": 40,
          "name": "E2",
          "ticks": 85636,
          "time": 117.37261239583331,
          "velocity": 0.8661417322834646
        },
        {
          "duration": 0.005482395833340092,
          "durationTicks": 4,
          "midi": 44,
          "name": "G#2",
          "ticks": 85636,
          "time": 117.37261239583331,
          "velocity": 0.5275590551181102
        },
        {
          "duration": 0.0054823958333258815,
          "durationTicks": 4,
          "midi": 39,
          "name": "D#2",
          "ticks": 85640,
          "time": 117.37809479166665,
          "velocity": 0.7480314960629921
        },
        {
          "duration": 0.005482395833340092,
          "durationTicks": 4,
          "midi": 60,
          "name": "C4",
          "ticks": 85728,
          "time": 117.49870749999998,
          "velocity": 0.3858267716535433
        },
        {
          "duration": 0.0054823958333258815,
          "durationTicks": 4,
          "midi": 70,
          "name": "A#4",
          "ticks": 85824,
          "time": 117.63028499999999,
          "velocity": 0.7401574803149606
        },
        {
          "duration": 0.0054823958333258815,
          "durationTicks": 4,
          "midi": 63,
          "name": "D#4",
          "ticks": 85824,
          "time": 117.63028499999999,
          "velocity": 0.4251968503937008
        },
        {
          "duration": 0.005482395833340092,
          "durationTicks": 4,
          "midi": 46,
          "name": "A#2",
          "ticks": 85828,
          "time": 117.63576739583331,
          "velocity": 0.49606299212598426
        },
        {
          "duration": 0.0054823958333258815,
          "durationTicks": 4,
          "midi": 35,
          "name": "B1",
          "ticks": 86016,
          "time": 117.89343999999998,
          "velocity": 0.8661417322834646
        },
        {
          "duration": 0.0054823958333258815,
          "durationTicks": 4,
          "midi": 60,
          "name": "C4",
          "ticks": 86016,
          "time": 117.89343999999998,
          "velocity": 0.4251968503937008
        },
        {
          "duration": 0.005482395833354303,
          "durationTicks": 4,
          "midi": 44,
          "name": "G#2",
          "ticks": 86020,
          "time": 117.89892239583331,
          "velocity": 0.49606299212598426
        },
        {
          "duration": 0.005482395833340092,
          "durationTicks": 4,
          "midi": 70,
          "name": "A#4",
          "ticks": 86208,
          "time": 118.15659499999998,
          "velocity": 0.7401574803149606
        },
        {
          "duration": 0.005482395833340092,
          "durationTicks": 4,
          "midi": 46,
          "name": "A#2",
          "ticks": 86212,
          "time": 118.16207739583332,
          "velocity": 0.47244094488188976
        },
        {
          "duration": 0.0054823958333258815,
          "durationTicks": 4,
          "midi": 60,
          "name": "C4",
          "ticks": 86304,
          "time": 118.28817249999999,
          "velocity": 0.25984251968503935
        },
        {
          "duration": 0.0054823958333258815,
          "durationTicks": 4,
          "midi": 35,
          "name": "B1",
          "ticks": 86400,
          "time": 118.41975,
          "velocity": 0.8661417322834646
        },
        {
          "duration": 0.005482395833340092,
          "durationTicks": 4,
          "midi": 40,
          "name": "E2",
          "ticks": 86404,
          "time": 118.42523239583332,
          "velocity": 0.8661417322834646
        },
        {
          "duration": 0.005482395833340092,
          "durationTicks": 4,
          "midi": 44,
          "name": "G#2",
          "ticks": 86404,
          "time": 118.42523239583332,
          "velocity": 0.49606299212598426
        },
        {
          "duration": 0.0054823958333258815,
          "durationTicks": 4,
          "midi": 39,
          "name": "D#2",
          "ticks": 86408,
          "time": 118.43071479166666,
          "velocity": 0.7480314960629921
        },
        {
          "duration": 0.0054823958333258815,
          "durationTicks": 4,
          "midi": 60,
          "name": "C4",
          "ticks": 86496,
          "time": 118.55132749999999,
          "velocity": 0.28346456692913385
        },
        {
          "duration": 0.0054823958333258815,
          "durationTicks": 4,
          "midi": 70,
          "name": "A#4",
          "ticks": 86592,
          "time": 118.68290499999999,
          "velocity": 0.6141732283464567
        },
        {
          "duration": 0.0054823958333258815,
          "durationTicks": 4,
          "midi": 63,
          "name": "D#4",
          "ticks": 86592,
          "time": 118.68290499999999,
          "velocity": 0.3858267716535433
        },
        {
          "duration": 0.005482395833340092,
          "durationTicks": 4,
          "midi": 46,
          "name": "A#2",
          "ticks": 86596,
          "time": 118.68838739583332,
          "velocity": 0.4251968503937008
        },
        {
          "duration": 0.005482395833340092,
          "durationTicks": 4,
          "midi": 70,
          "name": "A#4",
          "ticks": 86688,
          "time": 118.81448249999998,
          "velocity": 0.7401574803149606
        },
        {
          "duration": 0.0054823958333258815,
          "durationTicks": 4,
          "midi": 35,
          "name": "B1",
          "ticks": 86784,
          "time": 118.94605999999999,
          "velocity": 0.8661417322834646
        },
        {
          "duration": 0.0054823958333258815,
          "durationTicks": 4,
          "midi": 60,
          "name": "C4",
          "ticks": 86784,
          "time": 118.94605999999999,
          "velocity": 0.4251968503937008
        },
        {
          "duration": 0.005482395833340092,
          "durationTicks": 4,
          "midi": 44,
          "name": "G#2",
          "ticks": 86788,
          "time": 118.95154239583331,
          "velocity": 0.49606299212598426
        },
        {
          "duration": 0.0054823958333258815,
          "durationTicks": 4,
          "midi": 70,
          "name": "A#4",
          "ticks": 86976,
          "time": 119.20921499999999,
          "velocity": 0.7401574803149606
        },
        {
          "duration": 0.005482395833340092,
          "durationTicks": 4,
          "midi": 46,
          "name": "A#2",
          "ticks": 86980,
          "time": 119.21469739583331,
          "velocity": 0.4251968503937008
        },
        {
          "duration": 0.0054823958333258815,
          "durationTicks": 4,
          "midi": 60,
          "name": "C4",
          "ticks": 87072,
          "time": 119.34079249999999,
          "velocity": 0.33858267716535434
        },
        {
          "duration": 0.0054823958333258815,
          "durationTicks": 4,
          "midi": 35,
          "name": "B1",
          "ticks": 87168,
          "time": 119.47236999999998,
          "velocity": 0.8976377952755905
        },
        {
          "duration": 0.005482395833354303,
          "durationTicks": 4,
          "midi": 40,
          "name": "E2",
          "ticks": 87172,
          "time": 119.47785239583331,
          "velocity": 0.8661417322834646
        },
        {
          "duration": 0.005482395833354303,
          "durationTicks": 4,
          "midi": 44,
          "name": "G#2",
          "ticks": 87172,
          "time": 119.47785239583331,
          "velocity": 0.49606299212598426
        },
        {
          "duration": 0.0054823958333258815,
          "durationTicks": 4,
          "midi": 39,
          "name": "D#2",
          "ticks": 87176,
          "time": 119.48333479166666,
          "velocity": 0.7480314960629921
        },
        {
          "duration": 0.0054823958333258815,
          "durationTicks": 4,
          "midi": 60,
          "name": "C4",
          "ticks": 87264,
          "time": 119.60394749999999,
          "velocity": 0.31496062992125984
        },
        {
          "duration": 0.005482395833340092,
          "durationTicks": 4,
          "midi": 70,
          "name": "A#4",
          "ticks": 87360,
          "time": 119.73552499999998,
          "velocity": 0.6141732283464567
        },
        {
          "duration": 0.005482395833340092,
          "durationTicks": 4,
          "midi": 63,
          "name": "D#4",
          "ticks": 87360,
          "time": 119.73552499999998,
          "velocity": 0.3858267716535433
        },
        {
          "duration": 0.005482395833340092,
          "durationTicks": 4,
          "midi": 46,
          "name": "A#2",
          "ticks": 87364,
          "time": 119.74100739583332,
          "velocity": 0.47244094488188976
        },
        {
          "duration": 0.0054823958333258815,
          "durationTicks": 4,
          "midi": 70,
          "name": "A#4",
          "ticks": 87456,
          "time": 119.86710249999999,
          "velocity": 0.7795275590551181
        },
        {
          "duration": 0.0054823958333258815,
          "durationTicks": 4,
          "midi": 35,
          "name": "B1",
          "ticks": 87552,
          "time": 119.99868,
          "velocity": 0.8976377952755905
        },
        {
          "duration": 0.0054823958333258815,
          "durationTicks": 4,
          "midi": 69,
          "name": "A4",
          "ticks": 87552,
          "time": 119.99868,
          "velocity": 0.5826771653543307
        },
        {
          "duration": 0.0054823958333258815,
          "durationTicks": 4,
          "midi": 60,
          "name": "C4",
          "ticks": 87552,
          "time": 119.99868,
          "velocity": 0.4251968503937008
        },
        {
          "duration": 0.005482395833340092,
          "durationTicks": 4,
          "midi": 44,
          "name": "G#2",
          "ticks": 87556,
          "time": 120.00416239583332,
          "velocity": 0.49606299212598426
        },
        {
          "duration": 0.0054823958333258815,
          "durationTicks": 4,
          "midi": 69,
          "name": "A4",
          "ticks": 87644,
          "time": 120.12477510416666,
          "velocity": 0.2204724409448819
        },
        {
          "duration": 0.0054823958333258815,
          "durationTicks": 4,
          "midi": 69,
          "name": "A4",
          "ticks": 87728,
          "time": 120.23990541666666,
          "velocity": 0.8031496062992126
        },
        {
          "duration": 0.0054823958333258815,
          "durationTicks": 4,
          "midi": 70,
          "name": "A#4",
          "ticks": 87744,
          "time": 120.26183499999999,
          "velocity": 0.7401574803149606
        },
        {
          "duration": 0.005482395833340092,
          "durationTicks": 4,
          "midi": 46,
          "name": "A#2",
          "ticks": 87748,
          "time": 120.26731739583332,
          "velocity": 0.5275590551181102
        },
        {
          "duration": 0.0054823958333258815,
          "durationTicks": 4,
          "midi": 69,
          "name": "A4",
          "ticks": 87824,
          "time": 120.37148291666666,
          "velocity": 0.8031496062992126
        },
        {
          "duration": 0.005482395833340092,
          "durationTicks": 4,
          "midi": 60,
          "name": "C4",
          "ticks": 87840,
          "time": 120.39341249999998,
          "velocity": 0.33858267716535434
        },
        {
          "duration": 0.0054823958333258815,
          "durationTicks": 4,
          "midi": 35,
          "name": "B1",
          "ticks": 87936,
          "time": 120.52498999999999,
          "velocity": 0.8976377952755905
        },
        {
          "duration": 0.005482395833340092,
          "durationTicks": 4,
          "midi": 40,
          "name": "E2",
          "ticks": 87940,
          "time": 120.53047239583331,
          "velocity": 0.8976377952755905
        },
        {
          "duration": 0.005482395833340092,
          "durationTicks": 4,
          "midi": 44,
          "name": "G#2",
          "ticks": 87940,
          "time": 120.53047239583331,
          "velocity": 0.5984251968503937
        },
        {
          "duration": 0.005482395833340092,
          "durationTicks": 4,
          "midi": 39,
          "name": "D#2",
          "ticks": 87944,
          "time": 120.53595479166665,
          "velocity": 0.7795275590551181
        },
        {
          "duration": 0.0054823958333258815,
          "durationTicks": 4,
          "midi": 60,
          "name": "C4",
          "ticks": 88032,
          "time": 120.6565675,
          "velocity": 0.31496062992125984
        },
        {
          "duration": 0.0054823958333258815,
          "durationTicks": 4,
          "midi": 70,
          "name": "A#4",
          "ticks": 88128,
          "time": 120.78814499999999,
          "velocity": 0.5669291338582677
        },
        {
          "duration": 0.0054823958333258815,
          "durationTicks": 4,
          "midi": 63,
          "name": "D#4",
          "ticks": 88128,
          "time": 120.78814499999999,
          "velocity": 0.31496062992125984
        },
        {
          "duration": 0.0054823958333258815,
          "durationTicks": 4,
          "midi": 70,
          "name": "A#4",
          "ticks": 88224,
          "time": 120.91972249999999,
          "velocity": 0.6692913385826772
        },
        {
          "duration": 0.0054823958333258815,
          "durationTicks": 4,
          "midi": 35,
          "name": "B1",
          "ticks": 88320,
          "time": 121.05129999999998,
          "velocity": 0.8661417322834646
        },
        {
          "duration": 0.0054823958333258815,
          "durationTicks": 4,
          "midi": 60,
          "name": "C4",
          "ticks": 88320,
          "time": 121.05129999999998,
          "velocity": 0.4251968503937008
        },
        {
          "duration": 0.005482395833340092,
          "durationTicks": 4,
          "midi": 70,
          "name": "A#4",
          "ticks": 88512,
          "time": 121.31445499999998,
          "velocity": 0.7401574803149606
        },
        {
          "duration": 0.005482395833340092,
          "durationTicks": 4,
          "midi": 46,
          "name": "A#2",
          "ticks": 88516,
          "time": 121.31993739583332,
          "velocity": 0.49606299212598426
        },
        {
          "duration": 0.0054823958333258815,
          "durationTicks": 4,
          "midi": 60,
          "name": "C4",
          "ticks": 88608,
          "time": 121.44603249999999,
          "velocity": 0.31496062992125984
        },
        {
          "duration": 0.0054823958333258815,
          "durationTicks": 4,
          "midi": 35,
          "name": "B1",
          "ticks": 88704,
          "time": 121.57760999999999,
          "velocity": 0.8976377952755905
        },
        {
          "duration": 0.005482395833340092,
          "durationTicks": 4,
          "midi": 40,
          "name": "E2",
          "ticks": 88708,
          "time": 121.58309239583332,
          "velocity": 0.8976377952755905
        },
        {
          "duration": 0.005482395833340092,
          "durationTicks": 4,
          "midi": 44,
          "name": "G#2",
          "ticks": 88708,
          "time": 121.58309239583332,
          "velocity": 0.49606299212598426
        },
        {
          "duration": 0.0054823958333258815,
          "durationTicks": 4,
          "midi": 39,
          "name": "D#2",
          "ticks": 88712,
          "time": 121.58857479166666,
          "velocity": 0.7795275590551181
        },
        {
          "duration": 0.0054823958333258815,
          "durationTicks": 4,
          "midi": 60,
          "name": "C4",
          "ticks": 88800,
          "time": 121.70918749999998,
          "velocity": 0.33858267716535434
        },
        {
          "duration": 0.0054823958333258815,
          "durationTicks": 4,
          "midi": 70,
          "name": "A#4",
          "ticks": 88896,
          "time": 121.84076499999999,
          "velocity": 0.7401574803149606
        },
        {
          "duration": 0.0054823958333258815,
          "durationTicks": 4,
          "midi": 63,
          "name": "D#4",
          "ticks": 88896,
          "time": 121.84076499999999,
          "velocity": 0.4251968503937008
        },
        {
          "duration": 0.005482395833340092,
          "durationTicks": 4,
          "midi": 46,
          "name": "A#2",
          "ticks": 88900,
          "time": 121.84624739583332,
          "velocity": 0.49606299212598426
        },
        {
          "duration": 0.0054823958333258815,
          "durationTicks": 4,
          "midi": 35,
          "name": "B1",
          "ticks": 89088,
          "time": 122.10391999999999,
          "velocity": 0.8976377952755905
        },
        {
          "duration": 0.0054823958333258815,
          "durationTicks": 4,
          "midi": 60,
          "name": "C4",
          "ticks": 89088,
          "time": 122.10391999999999,
          "velocity": 0.3858267716535433
        },
        {
          "duration": 0.005482395833340092,
          "durationTicks": 4,
          "midi": 44,
          "name": "G#2",
          "ticks": 89092,
          "time": 122.10940239583331,
          "velocity": 0.5275590551181102
        },
        {
          "duration": 0.0054823958333258815,
          "durationTicks": 4,
          "midi": 70,
          "name": "A#4",
          "ticks": 89280,
          "time": 122.36707499999999,
          "velocity": 0.7795275590551181
        },
        {
          "duration": 0.005482395833354303,
          "durationTicks": 4,
          "midi": 46,
          "name": "A#2",
          "ticks": 89284,
          "time": 122.37255739583331,
          "velocity": 0.49606299212598426
        },
        {
          "duration": 0.0054823958333258815,
          "durationTicks": 4,
          "midi": 60,
          "name": "C4",
          "ticks": 89376,
          "time": 122.49865249999999,
          "velocity": 0.31496062992125984
        },
        {
          "duration": 0.0054823958333258815,
          "durationTicks": 4,
          "midi": 35,
          "name": "B1",
          "ticks": 89472,
          "time": 122.63022999999998,
          "velocity": 0.8661417322834646
        },
        {
          "duration": 0.005482395833354303,
          "durationTicks": 4,
          "midi": 40,
          "name": "E2",
          "ticks": 89476,
          "time": 122.63571239583331,
          "velocity": 0.8976377952755905
        },
        {
          "duration": 0.005482395833354303,
          "durationTicks": 4,
          "midi": 44,
          "name": "G#2",
          "ticks": 89476,
          "time": 122.63571239583331,
          "velocity": 0.49606299212598426
        },
        {
          "duration": 0.0054823958333258815,
          "durationTicks": 4,
          "midi": 39,
          "name": "D#2",
          "ticks": 89480,
          "time": 122.64119479166666,
          "velocity": 0.7795275590551181
        },
        {
          "duration": 0.0054823958333258815,
          "durationTicks": 4,
          "midi": 60,
          "name": "C4",
          "ticks": 89568,
          "time": 122.76180749999999,
          "velocity": 0.33858267716535434
        },
        {
          "duration": 0.005482395833340092,
          "durationTicks": 4,
          "midi": 70,
          "name": "A#4",
          "ticks": 89664,
          "time": 122.89338499999998,
          "velocity": 0.6141732283464567
        },
        {
          "duration": 0.005482395833340092,
          "durationTicks": 4,
          "midi": 63,
          "name": "D#4",
          "ticks": 89664,
          "time": 122.89338499999998,
          "velocity": 0.31496062992125984
        },
        {
          "duration": 0.005482395833340092,
          "durationTicks": 4,
          "midi": 46,
          "name": "A#2",
          "ticks": 89668,
          "time": 122.89886739583332,
          "velocity": 0.49606299212598426
        },
        {
          "duration": 0.0054823958333258815,
          "durationTicks": 4,
          "midi": 70,
          "name": "A#4",
          "ticks": 89760,
          "time": 123.02496249999999,
          "velocity": 0.6692913385826772
        },
        {
          "duration": 0.0054823958333258815,
          "durationTicks": 4,
          "midi": 35,
          "name": "B1",
          "ticks": 89856,
          "time": 123.15653999999999,
          "velocity": 0.8976377952755905
        },
        {
          "duration": 0.0054823958333258815,
          "durationTicks": 4,
          "midi": 60,
          "name": "C4",
          "ticks": 89856,
          "time": 123.15653999999999,
          "velocity": 0.3858267716535433
        },
        {
          "duration": 0.005482395833340092,
          "durationTicks": 4,
          "midi": 40,
          "name": "E2",
          "ticks": 89860,
          "time": 123.16202239583332,
          "velocity": 0.8976377952755905
        },
        {
          "duration": 0.005482395833340092,
          "durationTicks": 4,
          "midi": 44,
          "name": "G#2",
          "ticks": 89860,
          "time": 123.16202239583332,
          "velocity": 0.49606299212598426
        },
        {
          "duration": 0.0054823958333258815,
          "durationTicks": 4,
          "midi": 39,
          "name": "D#2",
          "ticks": 89864,
          "time": 123.16750479166666,
          "velocity": 0.7795275590551181
        },
        {
          "duration": 0.0054823958333258815,
          "durationTicks": 4,
          "midi": 70,
          "name": "A#4",
          "ticks": 90048,
          "time": 123.41969499999999,
          "velocity": 0.7795275590551181
        },
        {
          "duration": 0.005482395833340092,
          "durationTicks": 4,
          "midi": 46,
          "name": "A#2",
          "ticks": 90052,
          "time": 123.42517739583332,
          "velocity": 0.49606299212598426
        },
        {
          "duration": 0.005482395833340092,
          "durationTicks": 4,
          "midi": 60,
          "name": "C4",
          "ticks": 90144,
          "time": 123.55127249999998,
          "velocity": 0.31496062992125984
        },
        {
          "duration": 0.0054823958333258815,
          "durationTicks": 4,
          "midi": 35,
          "name": "B1",
          "ticks": 90240,
          "time": 123.68284999999999,
          "velocity": 0.8976377952755905
        },
        {
          "duration": 0.005482395833340092,
          "durationTicks": 4,
          "midi": 40,
          "name": "E2",
          "ticks": 90244,
          "time": 123.68833239583331,
          "velocity": 0.8976377952755905
        },
        {
          "duration": 0.005482395833340092,
          "durationTicks": 4,
          "midi": 44,
          "name": "G#2",
          "ticks": 90244,
          "time": 123.68833239583331,
          "velocity": 0.5275590551181102
        },
        {
          "duration": 0.005482395833340092,
          "durationTicks": 4,
          "midi": 39,
          "name": "D#2",
          "ticks": 90248,
          "time": 123.69381479166665,
          "velocity": 0.7795275590551181
        },
        {
          "duration": 0.0054823958333258815,
          "durationTicks": 4,
          "midi": 60,
          "name": "C4",
          "ticks": 90336,
          "time": 123.8144275,
          "velocity": 0.31496062992125984
        },
        {
          "duration": 0.005482395833340092,
          "durationTicks": 4,
          "midi": 40,
          "name": "E2",
          "ticks": 90340,
          "time": 123.81990989583332,
          "velocity": 0.8976377952755905
        },
        {
          "duration": 0.0054823958333258815,
          "durationTicks": 4,
          "midi": 39,
          "name": "D#2",
          "ticks": 90344,
          "time": 123.82539229166666,
          "velocity": 0.7795275590551181
        },
        {
          "duration": 0.0054823958333258815,
          "durationTicks": 4,
          "midi": 70,
          "name": "A#4",
          "ticks": 90432,
          "time": 123.94600499999999,
          "velocity": 0.6377952755905512
        },
        {
          "duration": 0.0054823958333258815,
          "durationTicks": 4,
          "midi": 63,
          "name": "D#4",
          "ticks": 90432,
          "time": 123.94600499999999,
          "velocity": 0.3858267716535433
        },
        {
          "duration": 0.005482395833354303,
          "durationTicks": 4,
          "midi": 46,
          "name": "A#2",
          "ticks": 90436,
          "time": 123.95148739583331,
          "velocity": 0.5275590551181102
        },
        {
          "duration": 0.0054823958333258815,
          "durationTicks": 4,
          "midi": 70,
          "name": "A#4",
          "ticks": 90528,
          "time": 124.07758249999999,
          "velocity": 0.7795275590551181
        },
        {
          "duration": 0.0054823958333258815,
          "durationTicks": 4,
          "midi": 35,
          "name": "B1",
          "ticks": 90624,
          "time": 124.20915999999998,
          "velocity": 0.8661417322834646
        },
        {
          "duration": 0.0054823958333258815,
          "durationTicks": 4,
          "midi": 69,
          "name": "A4",
          "ticks": 90624,
          "time": 124.20915999999998,
          "velocity": 0.5826771653543307
        },
        {
          "duration": 0.0054823958333258815,
          "durationTicks": 4,
          "midi": 60,
          "name": "C4",
          "ticks": 90624,
          "time": 124.20915999999998,
          "velocity": 0.4251968503937008
        },
        {
          "duration": 0.005482395833354303,
          "durationTicks": 4,
          "midi": 44,
          "name": "G#2",
          "ticks": 90628,
          "time": 124.21464239583331,
          "velocity": 0.5984251968503937
        },
        {
          "duration": 0.0054823958333258815,
          "durationTicks": 4,
          "midi": 69,
          "name": "A4",
          "ticks": 90716,
          "time": 124.33525510416666,
          "velocity": 0.2204724409448819
        },
        {
          "duration": 0.0054823958333258815,
          "durationTicks": 4,
          "midi": 69,
          "name": "A4",
          "ticks": 90800,
          "time": 124.45038541666666,
          "velocity": 0.8031496062992126
        },
        {
          "duration": 0.005482395833340092,
          "durationTicks": 4,
          "midi": 70,
          "name": "A#4",
          "ticks": 90816,
          "time": 124.47231499999998,
          "velocity": 0.7795275590551181
        },
        {
          "duration": 0.005482395833340092,
          "durationTicks": 4,
          "midi": 46,
          "name": "A#2",
          "ticks": 90820,
          "time": 124.47779739583332,
          "velocity": 0.49606299212598426
        },
        {
          "duration": 0.0054823958333258815,
          "durationTicks": 4,
          "midi": 69,
          "name": "A4",
          "ticks": 90896,
          "time": 124.58196291666665,
          "velocity": 0.8031496062992126
        },
        {
          "duration": 0.0054823958333258815,
          "durationTicks": 4,
          "midi": 60,
          "name": "C4",
          "ticks": 90912,
          "time": 124.60389249999999,
          "velocity": 0.4251968503937008
        },
        {
          "duration": 0.0054823958333258815,
          "durationTicks": 4,
          "midi": 35,
          "name": "B1",
          "ticks": 91008,
          "time": 124.73546999999999,
          "velocity": 0.8976377952755905
        },
        {
          "duration": 0.005482395833340092,
          "durationTicks": 4,
          "midi": 40,
          "name": "E2",
          "ticks": 91012,
          "time": 124.74095239583332,
          "velocity": 0.8661417322834646
        },
        {
          "duration": 0.005482395833340092,
          "durationTicks": 4,
          "midi": 44,
          "name": "G#2",
          "ticks": 91012,
          "time": 124.74095239583332,
          "velocity": 0.47244094488188976
        },
        {
          "duration": 0.0054823958333258815,
          "durationTicks": 4,
          "midi": 39,
          "name": "D#2",
          "ticks": 91016,
          "time": 124.74643479166666,
          "velocity": 0.7480314960629921
        },
        {
          "duration": 0.0054823958333258815,
          "durationTicks": 4,
          "midi": 60,
          "name": "C4",
          "ticks": 91104,
          "time": 124.86704749999998,
          "velocity": 0.33858267716535434
        },
        {
          "duration": 0.0054823958333258815,
          "durationTicks": 4,
          "midi": 70,
          "name": "A#4",
          "ticks": 91200,
          "time": 124.99862499999999,
          "velocity": 0.6377952755905512
        },
        {
          "duration": 0.0054823958333258815,
          "durationTicks": 4,
          "midi": 63,
          "name": "D#4",
          "ticks": 91200,
          "time": 124.99862499999999,
          "velocity": 0.3858267716535433
        },
        {
          "duration": 0.005482395833340092,
          "durationTicks": 4,
          "midi": 70,
          "name": "A#4",
          "ticks": 91296,
          "time": 125.13020249999998,
          "velocity": 0.7795275590551181
        },
        {
          "duration": 0.0054823958333258815,
          "durationTicks": 4,
          "midi": 35,
          "name": "B1",
          "ticks": 91392,
          "time": 125.26177999999999,
          "velocity": 0.8661417322834646
        },
        {
          "duration": 0.0054823958333258815,
          "durationTicks": 4,
          "midi": 60,
          "name": "C4",
          "ticks": 91392,
          "time": 125.26177999999999,
          "velocity": 0.4251968503937008
        },
        {
          "duration": 0.0054823958333258815,
          "durationTicks": 4,
          "midi": 70,
          "name": "A#4",
          "ticks": 91584,
          "time": 125.52493499999999,
          "velocity": 0.7401574803149606
        },
        {
          "duration": 0.005482395833354303,
          "durationTicks": 4,
          "midi": 46,
          "name": "A#2",
          "ticks": 91588,
          "time": 125.53041739583331,
          "velocity": 0.5275590551181102
        },
        {
          "duration": 0.0054823958333258815,
          "durationTicks": 4,
          "midi": 60,
          "name": "C4",
          "ticks": 91680,
          "time": 125.65651249999999,
          "velocity": 0.33858267716535434
        },
        {
          "duration": 0.0054823958333258815,
          "durationTicks": 4,
          "midi": 35,
          "name": "B1",
          "ticks": 91776,
          "time": 125.78808999999998,
          "velocity": 0.8976377952755905
        },
        {
          "duration": 0.005482395833354303,
          "durationTicks": 4,
          "midi": 40,
          "name": "E2",
          "ticks": 91780,
          "time": 125.79357239583331,
          "velocity": 0.8661417322834646
        },
        {
          "duration": 0.005482395833354303,
          "durationTicks": 4,
          "midi": 44,
          "name": "G#2",
          "ticks": 91780,
          "time": 125.79357239583331,
          "velocity": 0.5275590551181102
        },
        {
          "duration": 0.0054823958333258815,
          "durationTicks": 4,
          "midi": 39,
          "name": "D#2",
          "ticks": 91784,
          "time": 125.79905479166666,
          "velocity": 0.7480314960629921
        },
        {
          "duration": 0.0054823958333258815,
          "durationTicks": 4,
          "midi": 60,
          "name": "C4",
          "ticks": 91872,
          "time": 125.91966749999999,
          "velocity": 0.3858267716535433
        },
        {
          "duration": 0.005482395833340092,
          "durationTicks": 4,
          "midi": 70,
          "name": "A#4",
          "ticks": 91968,
          "time": 126.05124499999998,
          "velocity": 0.7401574803149606
        },
        {
          "duration": 0.005482395833340092,
          "durationTicks": 4,
          "midi": 63,
          "name": "D#4",
          "ticks": 91968,
          "time": 126.05124499999998,
          "velocity": 0.4251968503937008
        },
        {
          "duration": 0.005482395833340092,
          "durationTicks": 4,
          "midi": 46,
          "name": "A#2",
          "ticks": 91972,
          "time": 126.05672739583332,
          "velocity": 0.49606299212598426
        },
        {
          "duration": 0.0054823958333258815,
          "durationTicks": 4,
          "midi": 35,
          "name": "B1",
          "ticks": 92160,
          "time": 126.31439999999999,
          "velocity": 0.8661417322834646
        },
        {
          "duration": 0.0054823958333258815,
          "durationTicks": 4,
          "midi": 60,
          "name": "C4",
          "ticks": 92160,
          "time": 126.31439999999999,
          "velocity": 0.4251968503937008
        },
        {
          "duration": 0.005482395833340092,
          "durationTicks": 4,
          "midi": 44,
          "name": "G#2",
          "ticks": 92164,
          "time": 126.31988239583332,
          "velocity": 0.49606299212598426
        },
        {
          "duration": 0.0054823958333258815,
          "durationTicks": 4,
          "midi": 70,
          "name": "A#4",
          "ticks": 92352,
          "time": 126.57755499999999,
          "velocity": 0.7401574803149606
        },
        {
          "duration": 0.005482395833340092,
          "durationTicks": 4,
          "midi": 46,
          "name": "A#2",
          "ticks": 92356,
          "time": 126.58303739583332,
          "velocity": 0.47244094488188976
        },
        {
          "duration": 0.005482395833340092,
          "durationTicks": 4,
          "midi": 60,
          "name": "C4",
          "ticks": 92448,
          "time": 126.70913249999998,
          "velocity": 0.25984251968503935
        },
        {
          "duration": 0.0054823958333258815,
          "durationTicks": 4,
          "midi": 35,
          "name": "B1",
          "ticks": 92544,
          "time": 126.84070999999999,
          "velocity": 0.8661417322834646
        },
        {
          "duration": 0.005482395833340092,
          "durationTicks": 4,
          "midi": 40,
          "name": "E2",
          "ticks": 92548,
          "time": 126.84619239583331,
          "velocity": 0.8661417322834646
        },
        {
          "duration": 0.005482395833340092,
          "durationTicks": 4,
          "midi": 44,
          "name": "G#2",
          "ticks": 92548,
          "time": 126.84619239583331,
          "velocity": 0.49606299212598426
        },
        {
          "duration": 0.005482395833340092,
          "durationTicks": 4,
          "midi": 39,
          "name": "D#2",
          "ticks": 92552,
          "time": 126.85167479166665,
          "velocity": 0.7480314960629921
        },
        {
          "duration": 0.0054823958333258815,
          "durationTicks": 4,
          "midi": 60,
          "name": "C4",
          "ticks": 92640,
          "time": 126.9722875,
          "velocity": 0.28346456692913385
        },
        {
          "duration": 0.0054823958333258815,
          "durationTicks": 4,
          "midi": 70,
          "name": "A#4",
          "ticks": 92736,
          "time": 127.10386499999998,
          "velocity": 0.6141732283464567
        },
        {
          "duration": 0.0054823958333258815,
          "durationTicks": 4,
          "midi": 63,
          "name": "D#4",
          "ticks": 92736,
          "time": 127.10386499999998,
          "velocity": 0.3858267716535433
        },
        {
          "duration": 0.005482395833354303,
          "durationTicks": 4,
          "midi": 46,
          "name": "A#2",
          "ticks": 92740,
          "time": 127.10934739583331,
          "velocity": 0.4251968503937008
        },
        {
          "duration": 0.0054823958333258815,
          "durationTicks": 4,
          "midi": 70,
          "name": "A#4",
          "ticks": 92832,
          "time": 127.23544249999999,
          "velocity": 0.7401574803149606
        },
        {
          "duration": 0.0054823958333258815,
          "durationTicks": 4,
          "midi": 35,
          "name": "B1",
          "ticks": 92928,
          "time": 127.36701999999998,
          "velocity": 0.8661417322834646
        },
        {
          "duration": 0.0054823958333258815,
          "durationTicks": 4,
          "midi": 60,
          "name": "C4",
          "ticks": 92928,
          "time": 127.36701999999998,
          "velocity": 0.4251968503937008
        },
        {
          "duration": 0.005482395833354303,
          "durationTicks": 4,
          "midi": 44,
          "name": "G#2",
          "ticks": 92932,
          "time": 127.37250239583331,
          "velocity": 0.49606299212598426
        },
        {
          "duration": 0.005482395833340092,
          "durationTicks": 4,
          "midi": 70,
          "name": "A#4",
          "ticks": 93120,
          "time": 127.63017499999998,
          "velocity": 0.7401574803149606
        },
        {
          "duration": 0.005482395833340092,
          "durationTicks": 4,
          "midi": 46,
          "name": "A#2",
          "ticks": 93124,
          "time": 127.63565739583332,
          "velocity": 0.4251968503937008
        },
        {
          "duration": 0.0054823958333258815,
          "durationTicks": 4,
          "midi": 60,
          "name": "C4",
          "ticks": 93216,
          "time": 127.76175249999999,
          "velocity": 0.33858267716535434
        },
        {
          "duration": 0.0054823958333258815,
          "durationTicks": 4,
          "midi": 35,
          "name": "B1",
          "ticks": 93312,
          "time": 127.89332999999999,
          "velocity": 0.8976377952755905
        },
        {
          "duration": 0.005482395833340092,
          "durationTicks": 4,
          "midi": 40,
          "name": "E2",
          "ticks": 93316,
          "time": 127.89881239583332,
          "velocity": 0.8661417322834646
        },
        {
          "duration": 0.005482395833340092,
          "durationTicks": 4,
          "midi": 44,
          "name": "G#2",
          "ticks": 93316,
          "time": 127.89881239583332,
          "velocity": 0.49606299212598426
        },
        {
          "duration": 0.0054823958333258815,
          "durationTicks": 4,
          "midi": 39,
          "name": "D#2",
          "ticks": 93320,
          "time": 127.90429479166666,
          "velocity": 0.7480314960629921
        },
        {
          "duration": 0.0054823958333258815,
          "durationTicks": 4,
          "midi": 60,
          "name": "C4",
          "ticks": 93408,
          "time": 128.02490749999998,
          "velocity": 0.31496062992125984
        },
        {
          "duration": 0.0054823958333258815,
          "durationTicks": 4,
          "midi": 70,
          "name": "A#4",
          "ticks": 93504,
          "time": 128.15648499999998,
          "velocity": 0.6141732283464567
        },
        {
          "duration": 0.0054823958333258815,
          "durationTicks": 4,
          "midi": 63,
          "name": "D#4",
          "ticks": 93504,
          "time": 128.15648499999998,
          "velocity": 0.3858267716535433
        },
        {
          "duration": 0.005482395833354303,
          "durationTicks": 4,
          "midi": 46,
          "name": "A#2",
          "ticks": 93508,
          "time": 128.1619673958333,
          "velocity": 0.47244094488188976
        },
        {
          "duration": 0.0054823958333258815,
          "durationTicks": 4,
          "midi": 70,
          "name": "A#4",
          "ticks": 93600,
          "time": 128.2880625,
          "velocity": 0.7795275590551181
        },
        {
          "duration": 0.0054823958333258815,
          "durationTicks": 4,
          "midi": 35,
          "name": "B1",
          "ticks": 93696,
          "time": 128.41964,
          "velocity": 0.8976377952755905
        },
        {
          "duration": 0.0054823958333258815,
          "durationTicks": 4,
          "midi": 69,
          "name": "A4",
          "ticks": 93696,
          "time": 128.41964,
          "velocity": 0.5826771653543307
        },
        {
          "duration": 0.0054823958333258815,
          "durationTicks": 4,
          "midi": 60,
          "name": "C4",
          "ticks": 93696,
          "time": 128.41964,
          "velocity": 0.4251968503937008
        },
        {
          "duration": 0.005482395833354303,
          "durationTicks": 4,
          "midi": 44,
          "name": "G#2",
          "ticks": 93700,
          "time": 128.4251223958333,
          "velocity": 0.49606299212598426
        },
        {
          "duration": 0.0054823958333258815,
          "durationTicks": 4,
          "midi": 69,
          "name": "A4",
          "ticks": 93788,
          "time": 128.54573510416665,
          "velocity": 0.2204724409448819
        },
        {
          "duration": 0.0054823958333258815,
          "durationTicks": 4,
          "midi": 69,
          "name": "A4",
          "ticks": 93872,
          "time": 128.66086541666667,
          "velocity": 0.8031496062992126
        },
        {
          "duration": 0.0054823958333258815,
          "durationTicks": 4,
          "midi": 70,
          "name": "A#4",
          "ticks": 93888,
          "time": 128.682795,
          "velocity": 0.7401574803149606
        },
        {
          "duration": 0.0054823958333258815,
          "durationTicks": 4,
          "midi": 46,
          "name": "A#2",
          "ticks": 93892,
          "time": 128.68827739583332,
          "velocity": 0.5275590551181102
        },
        {
          "duration": 0.0054823958333258815,
          "durationTicks": 4,
          "midi": 69,
          "name": "A4",
          "ticks": 93968,
          "time": 128.79244291666666,
          "velocity": 0.8031496062992126
        },
        {
          "duration": 0.0054823958333258815,
          "durationTicks": 4,
          "midi": 60,
          "name": "C4",
          "ticks": 93984,
          "time": 128.8143725,
          "velocity": 0.33858267716535434
        },
        {
          "duration": 0.0054823958333258815,
          "durationTicks": 4,
          "midi": 35,
          "name": "B1",
          "ticks": 94080,
          "time": 128.94594999999998,
          "velocity": 0.8976377952755905
        },
        {
          "duration": 0.005482395833354303,
          "durationTicks": 4,
          "midi": 40,
          "name": "E2",
          "ticks": 94084,
          "time": 128.9514323958333,
          "velocity": 0.8976377952755905
        },
        {
          "duration": 0.005482395833354303,
          "durationTicks": 4,
          "midi": 44,
          "name": "G#2",
          "ticks": 94084,
          "time": 128.9514323958333,
          "velocity": 0.5984251968503937
        },
        {
          "duration": 0.0054823958333258815,
          "durationTicks": 4,
          "midi": 39,
          "name": "D#2",
          "ticks": 94088,
          "time": 128.95691479166666,
          "velocity": 0.7795275590551181
        },
        {
          "duration": 0.005482395833354303,
          "durationTicks": 4,
          "midi": 60,
          "name": "C4",
          "ticks": 94176,
          "time": 129.07752749999997,
          "velocity": 0.31496062992125984
        },
        {
          "duration": 0.0054823958333258815,
          "durationTicks": 4,
          "midi": 70,
          "name": "A#4",
          "ticks": 94272,
          "time": 129.209105,
          "velocity": 0.5669291338582677
        },
        {
          "duration": 0.0054823958333258815,
          "durationTicks": 4,
          "midi": 63,
          "name": "D#4",
          "ticks": 94272,
          "time": 129.209105,
          "velocity": 0.31496062992125984
        },
        {
          "duration": 0.0054823958333258815,
          "durationTicks": 4,
          "midi": 70,
          "name": "A#4",
          "ticks": 94368,
          "time": 129.34068249999999,
          "velocity": 0.6692913385826772
        },
        {
          "duration": 0.0054823958333258815,
          "durationTicks": 4,
          "midi": 35,
          "name": "B1",
          "ticks": 94464,
          "time": 129.47225999999998,
          "velocity": 0.8661417322834646
        },
        {
          "duration": 0.0054823958333258815,
          "durationTicks": 4,
          "midi": 60,
          "name": "C4",
          "ticks": 94464,
          "time": 129.47225999999998,
          "velocity": 0.4251968503937008
        },
        {
          "duration": 0.0054823958333258815,
          "durationTicks": 4,
          "midi": 70,
          "name": "A#4",
          "ticks": 94656,
          "time": 129.735415,
          "velocity": 0.7401574803149606
        },
        {
          "duration": 0.005482395833354303,
          "durationTicks": 4,
          "midi": 46,
          "name": "A#2",
          "ticks": 94660,
          "time": 129.74089739583331,
          "velocity": 0.49606299212598426
        },
        {
          "duration": 0.0054823958333258815,
          "durationTicks": 4,
          "midi": 60,
          "name": "C4",
          "ticks": 94752,
          "time": 129.86699249999998,
          "velocity": 0.31496062992125984
        },
        {
          "duration": 0.005482395833354303,
          "durationTicks": 4,
          "midi": 35,
          "name": "B1",
          "ticks": 94848,
          "time": 129.99856999999997,
          "velocity": 0.8976377952755905
        },
        {
          "duration": 0.0054823958333258815,
          "durationTicks": 4,
          "midi": 40,
          "name": "E2",
          "ticks": 94852,
          "time": 130.00405239583333,
          "velocity": 0.8976377952755905
        },
        {
          "duration": 0.0054823958333258815,
          "durationTicks": 4,
          "midi": 44,
          "name": "G#2",
          "ticks": 94852,
          "time": 130.00405239583333,
          "velocity": 0.49606299212598426
        },
        {
          "duration": 0.0054823958333258815,
          "durationTicks": 4,
          "midi": 39,
          "name": "D#2",
          "ticks": 94856,
          "time": 130.00953479166665,
          "velocity": 0.7795275590551181
        },
        {
          "duration": 0.0054823958333258815,
          "durationTicks": 4,
          "midi": 60,
          "name": "C4",
          "ticks": 94944,
          "time": 130.1301475,
          "velocity": 0.33858267716535434
        },
        {
          "duration": 0.0054823958333258815,
          "durationTicks": 4,
          "midi": 70,
          "name": "A#4",
          "ticks": 95040,
          "time": 130.26172499999998,
          "velocity": 0.7401574803149606
        },
        {
          "duration": 0.0054823958333258815,
          "durationTicks": 4,
          "midi": 63,
          "name": "D#4",
          "ticks": 95040,
          "time": 130.26172499999998,
          "velocity": 0.4251968503937008
        },
        {
          "duration": 0.005482395833354303,
          "durationTicks": 4,
          "midi": 46,
          "name": "A#2",
          "ticks": 95044,
          "time": 130.2672073958333,
          "velocity": 0.49606299212598426
        },
        {
          "duration": 0.0054823958333258815,
          "durationTicks": 4,
          "midi": 35,
          "name": "B1",
          "ticks": 95232,
          "time": 130.52488,
          "velocity": 0.8976377952755905
        },
        {
          "duration": 0.0054823958333258815,
          "durationTicks": 4,
          "midi": 60,
          "name": "C4",
          "ticks": 95232,
          "time": 130.52488,
          "velocity": 0.3858267716535433
        },
        {
          "duration": 0.0054823958333258815,
          "durationTicks": 4,
          "midi": 44,
          "name": "G#2",
          "ticks": 95236,
          "time": 130.53036239583332,
          "velocity": 0.5275590551181102
        },
        {
          "duration": 0.0054823958333258815,
          "durationTicks": 4,
          "midi": 70,
          "name": "A#4",
          "ticks": 95424,
          "time": 130.78803499999998,
          "velocity": 0.7795275590551181
        },
        {
          "duration": 0.005482395833354303,
          "durationTicks": 4,
          "midi": 46,
          "name": "A#2",
          "ticks": 95428,
          "time": 130.7935173958333,
          "velocity": 0.49606299212598426
        },
        {
          "duration": 0.0054823958333258815,
          "durationTicks": 4,
          "midi": 60,
          "name": "C4",
          "ticks": 95520,
          "time": 130.9196125,
          "velocity": 0.31496062992125984
        },
        {
          "duration": 0.0054823958333258815,
          "durationTicks": 4,
          "midi": 35,
          "name": "B1",
          "ticks": 95616,
          "time": 131.05119,
          "velocity": 0.8661417322834646
        },
        {
          "duration": 0.005482395833354303,
          "durationTicks": 4,
          "midi": 40,
          "name": "E2",
          "ticks": 95620,
          "time": 131.05667239583332,
          "velocity": 0.8976377952755905
        },
        {
          "duration": 0.005482395833354303,
          "durationTicks": 4,
          "midi": 44,
          "name": "G#2",
          "ticks": 95620,
          "time": 131.05667239583332,
          "velocity": 0.49606299212598426
        },
        {
          "duration": 0.0054823958333258815,
          "durationTicks": 4,
          "midi": 39,
          "name": "D#2",
          "ticks": 95624,
          "time": 131.06215479166667,
          "velocity": 0.7795275590551181
        },
        {
          "duration": 0.0054823958333258815,
          "durationTicks": 4,
          "midi": 60,
          "name": "C4",
          "ticks": 95712,
          "time": 131.18276749999998,
          "velocity": 0.33858267716535434
        },
        {
          "duration": 0.0054823958333258815,
          "durationTicks": 4,
          "midi": 70,
          "name": "A#4",
          "ticks": 95808,
          "time": 131.31434499999997,
          "velocity": 0.6141732283464567
        },
        {
          "duration": 0.0054823958333258815,
          "durationTicks": 4,
          "midi": 63,
          "name": "D#4",
          "ticks": 95808,
          "time": 131.31434499999997,
          "velocity": 0.31496062992125984
        },
        {
          "duration": 0.005482395833354303,
          "durationTicks": 4,
          "midi": 46,
          "name": "A#2",
          "ticks": 95812,
          "time": 131.3198273958333,
          "velocity": 0.49606299212598426
        },
        {
          "duration": 0.0054823958333258815,
          "durationTicks": 4,
          "midi": 70,
          "name": "A#4",
          "ticks": 95904,
          "time": 131.4459225,
          "velocity": 0.6692913385826772
        },
        {
          "duration": 0.0054823958333258815,
          "durationTicks": 4,
          "midi": 35,
          "name": "B1",
          "ticks": 96000,
          "time": 131.5775,
          "velocity": 0.8976377952755905
        },
        {
          "duration": 0.0054823958333258815,
          "durationTicks": 4,
          "midi": 60,
          "name": "C4",
          "ticks": 96000,
          "time": 131.5775,
          "velocity": 0.3858267716535433
        },
        {
          "duration": 0.005482395833354303,
          "durationTicks": 4,
          "midi": 44,
          "name": "G#2",
          "ticks": 96004,
          "time": 131.5829823958333,
          "velocity": 0.49606299212598426
        },
        {
          "duration": 0.0054823958333258815,
          "durationTicks": 4,
          "midi": 70,
          "name": "A#4",
          "ticks": 96192,
          "time": 131.840655,
          "velocity": 0.7795275590551181
        },
        {
          "duration": 0.0054823958333258815,
          "durationTicks": 4,
          "midi": 46,
          "name": "A#2",
          "ticks": 96196,
          "time": 131.84613739583332,
          "velocity": 0.49606299212598426
        },
        {
          "duration": 0.0054823958333258815,
          "durationTicks": 4,
          "midi": 60,
          "name": "C4",
          "ticks": 96288,
          "time": 131.9722325,
          "velocity": 0.31496062992125984
        },
        {
          "duration": 0.0054823958333258815,
          "durationTicks": 4,
          "midi": 35,
          "name": "B1",
          "ticks": 96384,
          "time": 132.10380999999998,
          "velocity": 0.8976377952755905
        },
        {
          "duration": 0.005482395833354303,
          "durationTicks": 4,
          "midi": 40,
          "name": "E2",
          "ticks": 96388,
          "time": 132.1092923958333,
          "velocity": 0.8976377952755905
        },
        {
          "duration": 0.005482395833354303,
          "durationTicks": 4,
          "midi": 44,
          "name": "G#2",
          "ticks": 96388,
          "time": 132.1092923958333,
          "velocity": 0.5275590551181102
        },
        {
          "duration": 0.0054823958333258815,
          "durationTicks": 4,
          "midi": 39,
          "name": "D#2",
          "ticks": 96392,
          "time": 132.11477479166666,
          "velocity": 0.7795275590551181
        },
        {
          "duration": 0.005482395833354303,
          "durationTicks": 4,
          "midi": 60,
          "name": "C4",
          "ticks": 96480,
          "time": 132.23538749999997,
          "velocity": 0.31496062992125984
        },
        {
          "duration": 0.0054823958333258815,
          "durationTicks": 4,
          "midi": 70,
          "name": "A#4",
          "ticks": 96576,
          "time": 132.366965,
          "velocity": 0.6377952755905512
        },
        {
          "duration": 0.0054823958333258815,
          "durationTicks": 4,
          "midi": 63,
          "name": "D#4",
          "ticks": 96576,
          "time": 132.366965,
          "velocity": 0.3858267716535433
        },
        {
          "duration": 0.0054823958333258815,
          "durationTicks": 4,
          "midi": 46,
          "name": "A#2",
          "ticks": 96580,
          "time": 132.37244739583332,
          "velocity": 0.5275590551181102
        },
        {
          "duration": 0.0054823958333258815,
          "durationTicks": 4,
          "midi": 70,
          "name": "A#4",
          "ticks": 96672,
          "time": 132.49854249999999,
          "velocity": 0.7795275590551181
        },
        {
          "duration": 0.0054823958333258815,
          "durationTicks": 4,
          "midi": 35,
          "name": "B1",
          "ticks": 96768,
          "time": 132.63011999999998,
          "velocity": 0.8661417322834646
        },
        {
          "duration": 0.0054823958333258815,
          "durationTicks": 4,
          "midi": 69,
          "name": "A4",
          "ticks": 96768,
          "time": 132.63011999999998,
          "velocity": 0.5826771653543307
        },
        {
          "duration": 0.0054823958333258815,
          "durationTicks": 4,
          "midi": 60,
          "name": "C4",
          "ticks": 96768,
          "time": 132.63011999999998,
          "velocity": 0.4251968503937008
        },
        {
          "duration": 0.005482395833354303,
          "durationTicks": 4,
          "midi": 44,
          "name": "G#2",
          "ticks": 96772,
          "time": 132.6356023958333,
          "velocity": 0.5984251968503937
        },
        {
          "duration": 0.0054823958333258815,
          "durationTicks": 4,
          "midi": 69,
          "name": "A4",
          "ticks": 96860,
          "time": 132.75621510416667,
          "velocity": 0.2204724409448819
        },
        {
          "duration": 0.0054823958333258815,
          "durationTicks": 4,
          "midi": 69,
          "name": "A4",
          "ticks": 96944,
          "time": 132.87134541666666,
          "velocity": 0.8031496062992126
        },
        {
          "duration": 0.0054823958333258815,
          "durationTicks": 4,
          "midi": 70,
          "name": "A#4",
          "ticks": 96960,
          "time": 132.893275,
          "velocity": 0.7795275590551181
        },
        {
          "duration": 0.005482395833354303,
          "durationTicks": 4,
          "midi": 46,
          "name": "A#2",
          "ticks": 96964,
          "time": 132.89875739583331,
          "velocity": 0.49606299212598426
        },
        {
          "duration": 0.0054823958333258815,
          "durationTicks": 4,
          "midi": 69,
          "name": "A4",
          "ticks": 97040,
          "time": 133.00292291666665,
          "velocity": 0.8031496062992126
        },
        {
          "duration": 0.0054823958333258815,
          "durationTicks": 4,
          "midi": 60,
          "name": "C4",
          "ticks": 97056,
          "time": 133.02485249999998,
          "velocity": 0.4251968503937008
        },
        {
          "duration": 0.005482395833354303,
          "durationTicks": 4,
          "midi": 35,
          "name": "B1",
          "ticks": 97152,
          "time": 133.15642999999997,
          "velocity": 0.8976377952755905
        },
        {
          "duration": 0.0054823958333258815,
          "durationTicks": 4,
          "midi": 40,
          "name": "E2",
          "ticks": 97156,
          "time": 133.16191239583333,
          "velocity": 0.8661417322834646
        },
        {
          "duration": 0.0054823958333258815,
          "durationTicks": 4,
          "midi": 44,
          "name": "G#2",
          "ticks": 97156,
          "time": 133.16191239583333,
          "velocity": 0.47244094488188976
        },
        {
          "duration": 0.0054823958333258815,
          "durationTicks": 4,
          "midi": 39,
          "name": "D#2",
          "ticks": 97160,
          "time": 133.16739479166665,
          "velocity": 0.7480314960629921
        },
        {
          "duration": 0.0054823958333258815,
          "durationTicks": 4,
          "midi": 60,
          "name": "C4",
          "ticks": 97248,
          "time": 133.2880075,
          "velocity": 0.33858267716535434
        },
        {
          "duration": 0.0054823958333258815,
          "durationTicks": 4,
          "midi": 70,
          "name": "A#4",
          "ticks": 97344,
          "time": 133.41958499999998,
          "velocity": 0.6377952755905512
        },
        {
          "duration": 0.0054823958333258815,
          "durationTicks": 4,
          "midi": 63,
          "name": "D#4",
          "ticks": 97344,
          "time": 133.41958499999998,
          "velocity": 0.3858267716535433
        },
        {
          "duration": 0.0054823958333258815,
          "durationTicks": 4,
          "midi": 70,
          "name": "A#4",
          "ticks": 97440,
          "time": 133.55116249999998,
          "velocity": 0.7795275590551181
        },
        {
          "duration": 0.0054823958333258815,
          "durationTicks": 4,
          "midi": 35,
          "name": "B1",
          "ticks": 97536,
          "time": 133.68274,
          "velocity": 0.8661417322834646
        },
        {
          "duration": 0.0054823958333258815,
          "durationTicks": 4,
          "midi": 60,
          "name": "C4",
          "ticks": 97536,
          "time": 133.68274,
          "velocity": 0.4251968503937008
        },
        {
          "duration": 0.0054823958333258815,
          "durationTicks": 4,
          "midi": 70,
          "name": "A#4",
          "ticks": 97728,
          "time": 133.94589499999998,
          "velocity": 0.7401574803149606
        },
        {
          "duration": 0.005482395833354303,
          "durationTicks": 4,
          "midi": 46,
          "name": "A#2",
          "ticks": 97732,
          "time": 133.9513773958333,
          "velocity": 0.5275590551181102
        },
        {
          "duration": 0.0054823958333258815,
          "durationTicks": 4,
          "midi": 60,
          "name": "C4",
          "ticks": 97824,
          "time": 134.0774725,
          "velocity": 0.33858267716535434
        },
        {
          "duration": 0.0054823958333258815,
          "durationTicks": 4,
          "midi": 35,
          "name": "B1",
          "ticks": 97920,
          "time": 134.20905,
          "velocity": 0.8976377952755905
        },
        {
          "duration": 0.005482395833354303,
          "durationTicks": 4,
          "midi": 40,
          "name": "E2",
          "ticks": 97924,
          "time": 134.21453239583332,
          "velocity": 0.8661417322834646
        },
        {
          "duration": 0.005482395833354303,
          "durationTicks": 4,
          "midi": 44,
          "name": "G#2",
          "ticks": 97924,
          "time": 134.21453239583332,
          "velocity": 0.5275590551181102
        },
        {
          "duration": 0.0054823958333258815,
          "durationTicks": 4,
          "midi": 39,
          "name": "D#2",
          "ticks": 97928,
          "time": 134.22001479166667,
          "velocity": 0.7480314960629921
        },
        {
          "duration": 0.0054823958333258815,
          "durationTicks": 4,
          "midi": 60,
          "name": "C4",
          "ticks": 98016,
          "time": 134.34062749999998,
          "velocity": 0.3858267716535433
        },
        {
          "duration": 0.005482395833354303,
          "durationTicks": 4,
          "midi": 70,
          "name": "A#4",
          "ticks": 98112,
          "time": 134.47220499999997,
          "velocity": 0.7401574803149606
        },
        {
          "duration": 0.005482395833354303,
          "durationTicks": 4,
          "midi": 63,
          "name": "D#4",
          "ticks": 98112,
          "time": 134.47220499999997,
          "velocity": 0.4251968503937008
        },
        {
          "duration": 0.0054823958333258815,
          "durationTicks": 4,
          "midi": 46,
          "name": "A#2",
          "ticks": 98116,
          "time": 134.47768739583333,
          "velocity": 0.49606299212598426
        },
        {
          "duration": 0.005482395833354303,
          "durationTicks": 4,
          "midi": 35,
          "name": "B1",
          "ticks": 98304,
          "time": 134.73536,
          "velocity": 0.8661417322834646
        },
        {
          "duration": 0.005482395833354303,
          "durationTicks": 4,
          "midi": 60,
          "name": "C4",
          "ticks": 98304,
          "time": 134.73536,
          "velocity": 0.4251968503937008
        },
        {
          "duration": 0.00548239583329746,
          "durationTicks": 4,
          "midi": 44,
          "name": "G#2",
          "ticks": 98308,
          "time": 134.74084239583334,
          "velocity": 0.49606299212598426
        },
        {
          "duration": 0.0054823958333258815,
          "durationTicks": 4,
          "midi": 70,
          "name": "A#4",
          "ticks": 98496,
          "time": 134.998515,
          "velocity": 0.7401574803149606
        },
        {
          "duration": 0.0054823958333258815,
          "durationTicks": 4,
          "midi": 46,
          "name": "A#2",
          "ticks": 98500,
          "time": 135.00399739583332,
          "velocity": 0.47244094488188976
        },
        {
          "duration": 0.0054823958333258815,
          "durationTicks": 4,
          "midi": 60,
          "name": "C4",
          "ticks": 98592,
          "time": 135.1300925,
          "velocity": 0.25984251968503935
        },
        {
          "duration": 0.005482395833354303,
          "durationTicks": 4,
          "midi": 35,
          "name": "B1",
          "ticks": 98688,
          "time": 135.26166999999998,
          "velocity": 0.8661417322834646
        },
        {
          "duration": 0.00548239583329746,
          "durationTicks": 4,
          "midi": 40,
          "name": "E2",
          "ticks": 98692,
          "time": 135.26715239583334,
          "velocity": 0.8661417322834646
        },
        {
          "duration": 0.00548239583329746,
          "durationTicks": 4,
          "midi": 44,
          "name": "G#2",
          "ticks": 98692,
          "time": 135.26715239583334,
          "velocity": 0.49606299212598426
        },
        {
          "duration": 0.005482395833354303,
          "durationTicks": 4,
          "midi": 39,
          "name": "D#2",
          "ticks": 98696,
          "time": 135.27263479166663,
          "velocity": 0.7480314960629921
        },
        {
          "duration": 0.005482395833354303,
          "durationTicks": 4,
          "midi": 60,
          "name": "C4",
          "ticks": 98784,
          "time": 135.39324749999997,
          "velocity": 0.28346456692913385
        },
        {
          "duration": 0.0054823958333258815,
          "durationTicks": 4,
          "midi": 70,
          "name": "A#4",
          "ticks": 98880,
          "time": 135.524825,
          "velocity": 0.6141732283464567
        },
        {
          "duration": 0.0054823958333258815,
          "durationTicks": 4,
          "midi": 63,
          "name": "D#4",
          "ticks": 98880,
          "time": 135.524825,
          "velocity": 0.3858267716535433
        },
        {
          "duration": 0.0054823958333258815,
          "durationTicks": 4,
          "midi": 46,
          "name": "A#2",
          "ticks": 98884,
          "time": 135.53030739583332,
          "velocity": 0.4251968503937008
        },
        {
          "duration": 0.005482395833354303,
          "durationTicks": 4,
          "midi": 70,
          "name": "A#4",
          "ticks": 98976,
          "time": 135.65640249999998,
          "velocity": 0.7401574803149606
        },
        {
          "duration": 0.005482395833354303,
          "durationTicks": 4,
          "midi": 35,
          "name": "B1",
          "ticks": 99072,
          "time": 135.78797999999998,
          "velocity": 0.8661417322834646
        },
        {
          "duration": 0.005482395833354303,
          "durationTicks": 4,
          "midi": 60,
          "name": "C4",
          "ticks": 99072,
          "time": 135.78797999999998,
          "velocity": 0.4251968503937008
        },
        {
          "duration": 0.0054823958333258815,
          "durationTicks": 4,
          "midi": 44,
          "name": "G#2",
          "ticks": 99076,
          "time": 135.79346239583333,
          "velocity": 0.49606299212598426
        },
        {
          "duration": 0.005482395833354303,
          "durationTicks": 4,
          "midi": 70,
          "name": "A#4",
          "ticks": 99264,
          "time": 136.051135,
          "velocity": 0.7401574803149606
        },
        {
          "duration": 0.00548239583329746,
          "durationTicks": 4,
          "midi": 46,
          "name": "A#2",
          "ticks": 99268,
          "time": 136.05661739583334,
          "velocity": 0.4251968503937008
        },
        {
          "duration": 0.005482395833354303,
          "durationTicks": 4,
          "midi": 60,
          "name": "C4",
          "ticks": 99360,
          "time": 136.18271249999998,
          "velocity": 0.33858267716535434
        },
        {
          "duration": 0.0054823958333258815,
          "durationTicks": 4,
          "midi": 35,
          "name": "B1",
          "ticks": 99456,
          "time": 136.31429,
          "velocity": 0.8976377952755905
        },
        {
          "duration": 0.0054823958333258815,
          "durationTicks": 4,
          "midi": 40,
          "name": "E2",
          "ticks": 99460,
          "time": 136.31977239583333,
          "velocity": 0.8661417322834646
        },
        {
          "duration": 0.0054823958333258815,
          "durationTicks": 4,
          "midi": 44,
          "name": "G#2",
          "ticks": 99460,
          "time": 136.31977239583333,
          "velocity": 0.49606299212598426
        },
        {
          "duration": 0.0054823958333258815,
          "durationTicks": 4,
          "midi": 39,
          "name": "D#2",
          "ticks": 99464,
          "time": 136.32525479166665,
          "velocity": 0.7480314960629921
        },
        {
          "duration": 0.0054823958333258815,
          "durationTicks": 4,
          "midi": 60,
          "name": "C4",
          "ticks": 99552,
          "time": 136.4458675,
          "velocity": 0.31496062992125984
        },
        {
          "duration": 0.005482395833354303,
          "durationTicks": 4,
          "midi": 70,
          "name": "A#4",
          "ticks": 99648,
          "time": 136.57744499999998,
          "velocity": 0.6141732283464567
        },
        {
          "duration": 0.005482395833354303,
          "durationTicks": 4,
          "midi": 63,
          "name": "D#4",
          "ticks": 99648,
          "time": 136.57744499999998,
          "velocity": 0.3858267716535433
        },
        {
          "duration": 0.00548239583329746,
          "durationTicks": 4,
          "midi": 46,
          "name": "A#2",
          "ticks": 99652,
          "time": 136.58292739583334,
          "velocity": 0.47244094488188976
        },
        {
          "duration": 0.005482395833354303,
          "durationTicks": 4,
          "midi": 70,
          "name": "A#4",
          "ticks": 99744,
          "time": 136.70902249999997,
          "velocity": 0.7795275590551181
        },
        {
          "duration": 0.0054823958333258815,
          "durationTicks": 4,
          "midi": 35,
          "name": "B1",
          "ticks": 99840,
          "time": 136.8406,
          "velocity": 0.8976377952755905
        },
        {
          "duration": 0.0054823958333258815,
          "durationTicks": 4,
          "midi": 69,
          "name": "A4",
          "ticks": 99840,
          "time": 136.8406,
          "velocity": 0.5826771653543307
        },
        {
          "duration": 0.0054823958333258815,
          "durationTicks": 4,
          "midi": 60,
          "name": "C4",
          "ticks": 99840,
          "time": 136.8406,
          "velocity": 0.4251968503937008
        },
        {
          "duration": 0.0054823958333258815,
          "durationTicks": 4,
          "midi": 44,
          "name": "G#2",
          "ticks": 99844,
          "time": 136.84608239583332,
          "velocity": 0.49606299212598426
        },
        {
          "duration": 0.005482395833354303,
          "durationTicks": 4,
          "midi": 69,
          "name": "A4",
          "ticks": 99932,
          "time": 136.96669510416663,
          "velocity": 0.2204724409448819
        },
        {
          "duration": 0.0054823958333258815,
          "durationTicks": 4,
          "midi": 69,
          "name": "A4",
          "ticks": 100016,
          "time": 137.08182541666665,
          "velocity": 0.8031496062992126
        },
        {
          "duration": 0.005482395833354303,
          "durationTicks": 4,
          "midi": 70,
          "name": "A#4",
          "ticks": 100032,
          "time": 137.10375499999998,
          "velocity": 0.7401574803149606
        },
        {
          "duration": 0.00548239583329746,
          "durationTicks": 4,
          "midi": 46,
          "name": "A#2",
          "ticks": 100036,
          "time": 137.10923739583333,
          "velocity": 0.5275590551181102
        },
        {
          "duration": 0.005482395833354303,
          "durationTicks": 4,
          "midi": 69,
          "name": "A4",
          "ticks": 100112,
          "time": 137.21340291666664,
          "velocity": 0.8031496062992126
        },
        {
          "duration": 0.0054823958333258815,
          "durationTicks": 4,
          "midi": 60,
          "name": "C4",
          "ticks": 100128,
          "time": 137.2353325,
          "velocity": 0.33858267716535434
        },
        {
          "duration": 0.0054823958333258815,
          "durationTicks": 4,
          "midi": 35,
          "name": "B1",
          "ticks": 100224,
          "time": 137.36691,
          "velocity": 0.8976377952755905
        },
        {
          "duration": 0.0054823958333258815,
          "durationTicks": 4,
          "midi": 40,
          "name": "E2",
          "ticks": 100228,
          "time": 137.37239239583332,
          "velocity": 0.8976377952755905
        },
        {
          "duration": 0.0054823958333258815,
          "durationTicks": 4,
          "midi": 44,
          "name": "G#2",
          "ticks": 100228,
          "time": 137.37239239583332,
          "velocity": 0.5984251968503937
        },
        {
          "duration": 0.005482395833354303,
          "durationTicks": 4,
          "midi": 39,
          "name": "D#2",
          "ticks": 100232,
          "time": 137.37787479166664,
          "velocity": 0.7795275590551181
        },
        {
          "duration": 0.005482395833354303,
          "durationTicks": 4,
          "midi": 60,
          "name": "C4",
          "ticks": 100320,
          "time": 137.49848749999998,
          "velocity": 0.31496062992125984
        },
        {
          "duration": 0.005482395833354303,
          "durationTicks": 4,
          "midi": 70,
          "name": "A#4",
          "ticks": 100416,
          "time": 137.63006499999997,
          "velocity": 0.5669291338582677
        },
        {
          "duration": 0.005482395833354303,
          "durationTicks": 4,
          "midi": 63,
          "name": "D#4",
          "ticks": 100416,
          "time": 137.63006499999997,
          "velocity": 0.31496062992125984
        },
        {
          "duration": 0.0054823958333258815,
          "durationTicks": 4,
          "midi": 70,
          "name": "A#4",
          "ticks": 100512,
          "time": 137.7616425,
          "velocity": 0.6692913385826772
        },
        {
          "duration": 0.005482395833354303,
          "durationTicks": 4,
          "midi": 35,
          "name": "B1",
          "ticks": 100608,
          "time": 137.89321999999999,
          "velocity": 0.8661417322834646
        },
        {
          "duration": 0.005482395833354303,
          "durationTicks": 4,
          "midi": 60,
          "name": "C4",
          "ticks": 100608,
          "time": 137.89321999999999,
          "velocity": 0.4251968503937008
        },
        {
          "duration": 0.0054823958333258815,
          "durationTicks": 4,
          "midi": 70,
          "name": "A#4",
          "ticks": 100800,
          "time": 138.156375,
          "velocity": 0.7401574803149606
        },
        {
          "duration": 0.0054823958333258815,
          "durationTicks": 4,
          "midi": 46,
          "name": "A#2",
          "ticks": 100804,
          "time": 138.16185739583332,
          "velocity": 0.49606299212598426
        },
        {
          "duration": 0.0054823958333258815,
          "durationTicks": 4,
          "midi": 60,
          "name": "C4",
          "ticks": 100896,
          "time": 138.2879525,
          "velocity": 0.31496062992125984
        },
        {
          "duration": 0.005482395833354303,
          "durationTicks": 4,
          "midi": 35,
          "name": "B1",
          "ticks": 100992,
          "time": 138.41952999999998,
          "velocity": 0.8976377952755905
        },
        {
          "duration": 0.00548239583329746,
          "durationTicks": 4,
          "midi": 40,
          "name": "E2",
          "ticks": 100996,
          "time": 138.42501239583333,
          "velocity": 0.8976377952755905
        },
        {
          "duration": 0.00548239583329746,
          "durationTicks": 4,
          "midi": 44,
          "name": "G#2",
          "ticks": 100996,
          "time": 138.42501239583333,
          "velocity": 0.49606299212598426
        },
        {
          "duration": 0.005482395833354303,
          "durationTicks": 4,
          "midi": 39,
          "name": "D#2",
          "ticks": 101000,
          "time": 138.43049479166663,
          "velocity": 0.7795275590551181
        },
        {
          "duration": 0.005482395833354303,
          "durationTicks": 4,
          "midi": 60,
          "name": "C4",
          "ticks": 101088,
          "time": 138.55110749999997,
          "velocity": 0.33858267716535434
        },
        {
          "duration": 0.0054823958333258815,
          "durationTicks": 4,
          "midi": 70,
          "name": "A#4",
          "ticks": 101184,
          "time": 138.682685,
          "velocity": 0.7401574803149606
        },
        {
          "duration": 0.0054823958333258815,
          "durationTicks": 4,
          "midi": 63,
          "name": "D#4",
          "ticks": 101184,
          "time": 138.682685,
          "velocity": 0.4251968503937008
        },
        {
          "duration": 0.0054823958333258815,
          "durationTicks": 4,
          "midi": 46,
          "name": "A#2",
          "ticks": 101188,
          "time": 138.68816739583332,
          "velocity": 0.49606299212598426
        },
        {
          "duration": 0.005482395833354303,
          "durationTicks": 4,
          "midi": 35,
          "name": "B1",
          "ticks": 101376,
          "time": 138.94583999999998,
          "velocity": 0.8976377952755905
        },
        {
          "duration": 0.005482395833354303,
          "durationTicks": 4,
          "midi": 60,
          "name": "C4",
          "ticks": 101376,
          "time": 138.94583999999998,
          "velocity": 0.3858267716535433
        },
        {
          "duration": 0.0054823958333258815,
          "durationTicks": 4,
          "midi": 44,
          "name": "G#2",
          "ticks": 101380,
          "time": 138.95132239583333,
          "velocity": 0.5275590551181102
        },
        {
          "duration": 0.005482395833354303,
          "durationTicks": 4,
          "midi": 70,
          "name": "A#4",
          "ticks": 101568,
          "time": 139.208995,
          "velocity": 0.7795275590551181
        },
        {
          "duration": 0.00548239583329746,
          "durationTicks": 4,
          "midi": 46,
          "name": "A#2",
          "ticks": 101572,
          "time": 139.21447739583334,
          "velocity": 0.49606299212598426
        },
        {
          "duration": 0.005482395833354303,
          "durationTicks": 4,
          "midi": 60,
          "name": "C4",
          "ticks": 101664,
          "time": 139.34057249999998,
          "velocity": 0.31496062992125984
        },
        {
          "duration": 0.0054823958333258815,
          "durationTicks": 4,
          "midi": 35,
          "name": "B1",
          "ticks": 101760,
          "time": 139.47215,
          "velocity": 0.8661417322834646
        },
        {
          "duration": 0.0054823958333258815,
          "durationTicks": 4,
          "midi": 40,
          "name": "E2",
          "ticks": 101764,
          "time": 139.47763239583333,
          "velocity": 0.8976377952755905
        },
        {
          "duration": 0.0054823958333258815,
          "durationTicks": 4,
          "midi": 44,
          "name": "G#2",
          "ticks": 101764,
          "time": 139.47763239583333,
          "velocity": 0.49606299212598426
        },
        {
          "duration": 0.0054823958333258815,
          "durationTicks": 4,
          "midi": 39,
          "name": "D#2",
          "ticks": 101768,
          "time": 139.48311479166665,
          "velocity": 0.7795275590551181
        },
        {
          "duration": 0.0054823958333258815,
          "durationTicks": 4,
          "midi": 60,
          "name": "C4",
          "ticks": 101856,
          "time": 139.6037275,
          "velocity": 0.33858267716535434
        },
        {
          "duration": 0.005482395833354303,
          "durationTicks": 4,
          "midi": 70,
          "name": "A#4",
          "ticks": 101952,
          "time": 139.73530499999998,
          "velocity": 0.6141732283464567
        },
        {
          "duration": 0.005482395833354303,
          "durationTicks": 4,
          "midi": 63,
          "name": "D#4",
          "ticks": 101952,
          "time": 139.73530499999998,
          "velocity": 0.31496062992125984
        },
        {
          "duration": 0.00548239583329746,
          "durationTicks": 4,
          "midi": 46,
          "name": "A#2",
          "ticks": 101956,
          "time": 139.74078739583334,
          "velocity": 0.49606299212598426
        },
        {
          "duration": 0.005482395833354303,
          "durationTicks": 4,
          "midi": 70,
          "name": "A#4",
          "ticks": 102048,
          "time": 139.86688249999997,
          "velocity": 0.6692913385826772
        },
        {
          "duration": 0.0054823958333258815,
          "durationTicks": 4,
          "midi": 35,
          "name": "B1",
          "ticks": 102144,
          "time": 139.99846,
          "velocity": 0.8976377952755905
        },
        {
          "duration": 0.0054823958333258815,
          "durationTicks": 4,
          "midi": 60,
          "name": "C4",
          "ticks": 102144,
          "time": 139.99846,
          "velocity": 0.3858267716535433
        },
        {
          "duration": 0.0054823958333258815,
          "durationTicks": 4,
          "midi": 40,
          "name": "E2",
          "ticks": 102148,
          "time": 140.00394239583332,
          "velocity": 0.8661417322834646
        },
        {
          "duration": 0.0054823958333258815,
          "durationTicks": 4,
          "midi": 44,
          "name": "G#2",
          "ticks": 102148,
          "time": 140.00394239583332,
          "velocity": 0.49606299212598426
        },
        {
          "duration": 0.0054823958333258815,
          "durationTicks": 4,
          "midi": 39,
          "name": "D#2",
          "ticks": 102152,
          "time": 140.00942479166665,
          "velocity": 0.7480314960629921
        },
        {
          "duration": 0.00548239583329746,
          "durationTicks": 4,
          "midi": 40,
          "name": "E2",
          "ticks": 102244,
          "time": 140.13551989583334,
          "velocity": 0.7795275590551181
        },
        {
          "duration": 0.005482395833354303,
          "durationTicks": 4,
          "midi": 39,
          "name": "D#2",
          "ticks": 102248,
          "time": 140.14100229166664,
          "velocity": 0.6614173228346457
        },
        {
          "duration": 0.005482395833354303,
          "durationTicks": 4,
          "midi": 70,
          "name": "A#4",
          "ticks": 102336,
          "time": 140.26161499999998,
          "velocity": 0.7795275590551181
        },
        {
          "duration": 0.00548239583329746,
          "durationTicks": 4,
          "midi": 40,
          "name": "E2",
          "ticks": 102340,
          "time": 140.26709739583333,
          "velocity": 0.7401574803149606
        },
        {
          "duration": 0.00548239583329746,
          "durationTicks": 4,
          "midi": 46,
          "name": "A#2",
          "ticks": 102340,
          "time": 140.26709739583333,
          "velocity": 0.49606299212598426
        },
        {
          "duration": 0.005482395833354303,
          "durationTicks": 4,
          "midi": 39,
          "name": "D#2",
          "ticks": 102344,
          "time": 140.27257979166663,
          "velocity": 0.6220472440944882
        },
        {
          "duration": 0.0054823958333258815,
          "durationTicks": 4,
          "midi": 60,
          "name": "C4",
          "ticks": 102432,
          "time": 140.3931925,
          "velocity": 0.31496062992125984
        },
        {
          "duration": 0.0054823958333258815,
          "durationTicks": 4,
          "midi": 40,
          "name": "E2",
          "ticks": 102436,
          "time": 140.39867489583332,
          "velocity": 0.8188976377952756
        },
        {
          "duration": 0.0054823958333258815,
          "durationTicks": 4,
          "midi": 39,
          "name": "D#2",
          "ticks": 102440,
          "time": 140.40415729166665,
          "velocity": 0.7007874015748031
        },
        {
          "duration": 0.0054823958333258815,
          "durationTicks": 4,
          "midi": 35,
          "name": "B1",
          "ticks": 102528,
          "time": 140.52477,
          "velocity": 0.8976377952755905
        },
        {
          "duration": 0.0054823958333258815,
          "durationTicks": 4,
          "midi": 44,
          "name": "G#2",
          "ticks": 102532,
          "time": 140.53025239583332,
          "velocity": 0.5275590551181102
        },
        {
          "duration": 0.005482395833354303,
          "durationTicks": 4,
          "midi": 60,
          "name": "C4",
          "ticks": 102624,
          "time": 140.65634749999998,
          "velocity": 0.31496062992125984
        },
        {
          "duration": 0.005482395833354303,
          "durationTicks": 4,
          "midi": 70,
          "name": "A#4",
          "ticks": 102720,
          "time": 140.78792499999997,
          "velocity": 0.6377952755905512
        },
        {
          "duration": 0.005482395833354303,
          "durationTicks": 4,
          "midi": 63,
          "name": "D#4",
          "ticks": 102720,
          "time": 140.78792499999997,
          "velocity": 0.3858267716535433
        },
        {
          "duration": 0.0054823958333258815,
          "durationTicks": 4,
          "midi": 46,
          "name": "A#2",
          "ticks": 102724,
          "time": 140.79340739583333,
          "velocity": 0.5275590551181102
        },
        {
          "duration": 0.0054823958333258815,
          "durationTicks": 4,
          "midi": 70,
          "name": "A#4",
          "ticks": 102816,
          "time": 140.9195025,
          "velocity": 0.7795275590551181
        },
        {
          "duration": 0.005482395833354303,
          "durationTicks": 4,
          "midi": 35,
          "name": "B1",
          "ticks": 102912,
          "time": 141.05107999999998,
          "velocity": 0.8661417322834646
        },
        {
          "duration": 0.005482395833354303,
          "durationTicks": 4,
          "midi": 69,
          "name": "A4",
          "ticks": 102912,
          "time": 141.05107999999998,
          "velocity": 0.5826771653543307
        },
        {
          "duration": 0.005482395833354303,
          "durationTicks": 4,
          "midi": 60,
          "name": "C4",
          "ticks": 102912,
          "time": 141.05107999999998,
          "velocity": 0.4251968503937008
        },
        {
          "duration": 0.00548239583329746,
          "durationTicks": 4,
          "midi": 44,
          "name": "G#2",
          "ticks": 102916,
          "time": 141.05656239583334,
          "velocity": 0.5984251968503937
        },
        {
          "duration": 0.0054823958333258815,
          "durationTicks": 4,
          "midi": 69,
          "name": "A4",
          "ticks": 103004,
          "time": 141.17717510416665,
          "velocity": 0.2204724409448819
        },
        {
          "duration": 0.005482395833354303,
          "durationTicks": 4,
          "midi": 69,
          "name": "A4",
          "ticks": 103088,
          "time": 141.29230541666664,
          "velocity": 0.8031496062992126
        },
        {
          "duration": 0.0054823958333258815,
          "durationTicks": 4,
          "midi": 70,
          "name": "A#4",
          "ticks": 103104,
          "time": 141.314235,
          "velocity": 0.7795275590551181
        },
        {
          "duration": 0.0054823958333258815,
          "durationTicks": 4,
          "midi": 46,
          "name": "A#2",
          "ticks": 103108,
          "time": 141.31971739583332,
          "velocity": 0.49606299212598426
        },
        {
          "duration": 0.005482395833354303,
          "durationTicks": 4,
          "midi": 69,
          "name": "A4",
          "ticks": 103184,
          "time": 141.42388291666663,
          "velocity": 0.8031496062992126
        },
        {
          "duration": 0.005482395833354303,
          "durationTicks": 4,
          "midi": 60,
          "name": "C4",
          "ticks": 103200,
          "time": 141.4458125,
          "velocity": 0.4251968503937008
        },
        {
          "duration": 0.005482395833354303,
          "durationTicks": 4,
          "midi": 35,
          "name": "B1",
          "ticks": 103296,
          "time": 141.57738999999998,
          "velocity": 0.8976377952755905
        },
        {
          "duration": 0.00548239583329746,
          "durationTicks": 4,
          "midi": 40,
          "name": "E2",
          "ticks": 103300,
          "time": 141.58287239583333,
          "velocity": 0.8661417322834646
        },
        {
          "duration": 0.00548239583329746,
          "durationTicks": 4,
          "midi": 44,
          "name": "G#2",
          "ticks": 103300,
          "time": 141.58287239583333,
          "velocity": 0.47244094488188976
        },
        {
          "duration": 0.005482395833354303,
          "durationTicks": 4,
          "midi": 39,
          "name": "D#2",
          "ticks": 103304,
          "time": 141.58835479166663,
          "velocity": 0.7480314960629921
        },
        {
          "duration": 0.005482395833354303,
          "durationTicks": 4,
          "midi": 60,
          "name": "C4",
          "ticks": 103392,
          "time": 141.70896749999997,
          "velocity": 0.33858267716535434
        },
        {
          "duration": 0.0054823958333258815,
          "durationTicks": 4,
          "midi": 70,
          "name": "A#4",
          "ticks": 103488,
          "time": 141.840545,
          "velocity": 0.6377952755905512
        },
        {
          "duration": 0.0054823958333258815,
          "durationTicks": 4,
          "midi": 63,
          "name": "D#4",
          "ticks": 103488,
          "time": 141.840545,
          "velocity": 0.3858267716535433
        },
        {
          "duration": 0.005482395833354303,
          "durationTicks": 4,
          "midi": 70,
          "name": "A#4",
          "ticks": 103584,
          "time": 141.97212249999998,
          "velocity": 0.7795275590551181
        },
        {
          "duration": 0.005482395833354303,
          "durationTicks": 4,
          "midi": 35,
          "name": "B1",
          "ticks": 103680,
          "time": 142.10369999999998,
          "velocity": 0.8661417322834646
        },
        {
          "duration": 0.005482395833354303,
          "durationTicks": 4,
          "midi": 60,
          "name": "C4",
          "ticks": 103680,
          "time": 142.10369999999998,
          "velocity": 0.4251968503937008
        },
        {
          "duration": 0.005482395833354303,
          "durationTicks": 4,
          "midi": 70,
          "name": "A#4",
          "ticks": 103872,
          "time": 142.366855,
          "velocity": 0.7401574803149606
        },
        {
          "duration": 0.00548239583329746,
          "durationTicks": 4,
          "midi": 46,
          "name": "A#2",
          "ticks": 103876,
          "time": 142.37233739583334,
          "velocity": 0.5275590551181102
        },
        {
          "duration": 0.005482395833354303,
          "durationTicks": 4,
          "midi": 60,
          "name": "C4",
          "ticks": 103968,
          "time": 142.49843249999998,
          "velocity": 0.33858267716535434
        },
        {
          "duration": 0.0054823958333258815,
          "durationTicks": 4,
          "midi": 35,
          "name": "B1",
          "ticks": 104064,
          "time": 142.63001,
          "velocity": 0.8976377952755905
        },
        {
          "duration": 0.0054823958333258815,
          "durationTicks": 4,
          "midi": 40,
          "name": "E2",
          "ticks": 104068,
          "time": 142.63549239583332,
          "velocity": 0.8661417322834646
        },
        {
          "duration": 0.0054823958333258815,
          "durationTicks": 4,
          "midi": 44,
          "name": "G#2",
          "ticks": 104068,
          "time": 142.63549239583332,
          "velocity": 0.5275590551181102
        },
        {
          "duration": 0.0054823958333258815,
          "durationTicks": 4,
          "midi": 39,
          "name": "D#2",
          "ticks": 104072,
          "time": 142.64097479166665,
          "velocity": 0.7480314960629921
        },
        {
          "duration": 0.0054823958333258815,
          "durationTicks": 4,
          "midi": 60,
          "name": "C4",
          "ticks": 104160,
          "time": 142.7615875,
          "velocity": 0.3858267716535433
        },
        {
          "duration": 0.005482395833354303,
          "durationTicks": 4,
          "midi": 70,
          "name": "A#4",
          "ticks": 104256,
          "time": 142.89316499999998,
          "velocity": 0.7401574803149606
        },
        {
          "duration": 0.005482395833354303,
          "durationTicks": 4,
          "midi": 63,
          "name": "D#4",
          "ticks": 104256,
          "time": 142.89316499999998,
          "velocity": 0.4251968503937008
        },
        {
          "duration": 0.00548239583329746,
          "durationTicks": 4,
          "midi": 46,
          "name": "A#2",
          "ticks": 104260,
          "time": 142.89864739583334,
          "velocity": 0.49606299212598426
        },
        {
          "duration": 0.0054823958333258815,
          "durationTicks": 4,
          "midi": 35,
          "name": "B1",
          "ticks": 104448,
          "time": 143.15632,
          "velocity": 0.8661417322834646
        },
        {
          "duration": 0.0054823958333258815,
          "durationTicks": 4,
          "midi": 60,
          "name": "C4",
          "ticks": 104448,
          "time": 143.15632,
          "velocity": 0.4251968503937008
        },
        {
          "duration": 0.0054823958333258815,
          "durationTicks": 4,
          "midi": 44,
          "name": "G#2",
          "ticks": 104452,
          "time": 143.16180239583332,
          "velocity": 0.49606299212598426
        },
        {
          "duration": 0.005482395833354303,
          "durationTicks": 4,
          "midi": 70,
          "name": "A#4",
          "ticks": 104640,
          "time": 143.41947499999998,
          "velocity": 0.7401574803149606
        },
        {
          "duration": 0.00548239583329746,
          "durationTicks": 4,
          "midi": 46,
          "name": "A#2",
          "ticks": 104644,
          "time": 143.42495739583333,
          "velocity": 0.47244094488188976
        },
        {
          "duration": 0.0054823958333258815,
          "durationTicks": 4,
          "midi": 60,
          "name": "C4",
          "ticks": 104736,
          "time": 143.5510525,
          "velocity": 0.25984251968503935
        },
        {
          "duration": 0.0054823958333258815,
          "durationTicks": 4,
          "midi": 35,
          "name": "B1",
          "ticks": 104832,
          "time": 143.68263,
          "velocity": 0.8661417322834646
        },
        {
          "duration": 0.0054823958333258815,
          "durationTicks": 4,
          "midi": 40,
          "name": "E2",
          "ticks": 104836,
          "time": 143.68811239583331,
          "velocity": 0.8661417322834646
        },
        {
          "duration": 0.0054823958333258815,
          "durationTicks": 4,
          "midi": 44,
          "name": "G#2",
          "ticks": 104836,
          "time": 143.68811239583331,
          "velocity": 0.49606299212598426
        },
        {
          "duration": 0.005482395833354303,
          "durationTicks": 4,
          "midi": 39,
          "name": "D#2",
          "ticks": 104840,
          "time": 143.69359479166664,
          "velocity": 0.7480314960629921
        },
        {
          "duration": 0.005482395833354303,
          "durationTicks": 4,
          "midi": 60,
          "name": "C4",
          "ticks": 104928,
          "time": 143.81420749999998,
          "velocity": 0.28346456692913385
        },
        {
          "duration": 0.005482395833354303,
          "durationTicks": 4,
          "midi": 70,
          "name": "A#4",
          "ticks": 105024,
          "time": 143.94578499999997,
          "velocity": 0.6141732283464567
        },
        {
          "duration": 0.005482395833354303,
          "durationTicks": 4,
          "midi": 63,
          "name": "D#4",
          "ticks": 105024,
          "time": 143.94578499999997,
          "velocity": 0.3858267716535433
        },
        {
          "duration": 0.0054823958333258815,
          "durationTicks": 4,
          "midi": 46,
          "name": "A#2",
          "ticks": 105028,
          "time": 143.95126739583333,
          "velocity": 0.4251968503937008
        },
        {
          "duration": 0.0054823958333258815,
          "durationTicks": 4,
          "midi": 70,
          "name": "A#4",
          "ticks": 105120,
          "time": 144.0773625,
          "velocity": 0.7401574803149606
        },
        {
          "duration": 0.005482395833354303,
          "durationTicks": 4,
          "midi": 35,
          "name": "B1",
          "ticks": 105216,
          "time": 144.20893999999998,
          "velocity": 0.8661417322834646
        },
        {
          "duration": 0.005482395833354303,
          "durationTicks": 4,
          "midi": 60,
          "name": "C4",
          "ticks": 105216,
          "time": 144.20893999999998,
          "velocity": 0.4251968503937008
        },
        {
          "duration": 0.00548239583329746,
          "durationTicks": 4,
          "midi": 44,
          "name": "G#2",
          "ticks": 105220,
          "time": 144.21442239583334,
          "velocity": 0.49606299212598426
        },
        {
          "duration": 0.0054823958333258815,
          "durationTicks": 4,
          "midi": 70,
          "name": "A#4",
          "ticks": 105408,
          "time": 144.472095,
          "velocity": 0.7401574803149606
        },
        {
          "duration": 0.0054823958333258815,
          "durationTicks": 4,
          "midi": 46,
          "name": "A#2",
          "ticks": 105412,
          "time": 144.47757739583332,
          "velocity": 0.4251968503937008
        },
        {
          "duration": 0.005482395833354303,
          "durationTicks": 4,
          "midi": 60,
          "name": "C4",
          "ticks": 105504,
          "time": 144.6036725,
          "velocity": 0.33858267716535434
        },
        {
          "duration": 0.005482395833354303,
          "durationTicks": 4,
          "midi": 35,
          "name": "B1",
          "ticks": 105600,
          "time": 144.73524999999998,
          "velocity": 0.8976377952755905
        },
        {
          "duration": 0.00548239583329746,
          "durationTicks": 4,
          "midi": 40,
          "name": "E2",
          "ticks": 105604,
          "time": 144.74073239583333,
          "velocity": 0.8661417322834646
        },
        {
          "duration": 0.00548239583329746,
          "durationTicks": 4,
          "midi": 44,
          "name": "G#2",
          "ticks": 105604,
          "time": 144.74073239583333,
          "velocity": 0.49606299212598426
        },
        {
          "duration": 0.005482395833354303,
          "durationTicks": 4,
          "midi": 39,
          "name": "D#2",
          "ticks": 105608,
          "time": 144.74621479166663,
          "velocity": 0.7480314960629921
        },
        {
          "duration": 0.005482395833354303,
          "durationTicks": 4,
          "midi": 60,
          "name": "C4",
          "ticks": 105696,
          "time": 144.86682749999997,
          "velocity": 0.31496062992125984
        },
        {
          "duration": 0.0054823958333258815,
          "durationTicks": 4,
          "midi": 70,
          "name": "A#4",
          "ticks": 105792,
          "time": 144.998405,
          "velocity": 0.6141732283464567
        },
        {
          "duration": 0.0054823958333258815,
          "durationTicks": 4,
          "midi": 63,
          "name": "D#4",
          "ticks": 105792,
          "time": 144.998405,
          "velocity": 0.3858267716535433
        },
        {
          "duration": 0.0054823958333258815,
          "durationTicks": 4,
          "midi": 46,
          "name": "A#2",
          "ticks": 105796,
          "time": 145.00388739583332,
          "velocity": 0.47244094488188976
        },
        {
          "duration": 0.005482395833354303,
          "durationTicks": 4,
          "midi": 70,
          "name": "A#4",
          "ticks": 105888,
          "time": 145.12998249999998,
          "velocity": 0.7795275590551181
        },
        {
          "duration": 0.005482395833354303,
          "durationTicks": 4,
          "midi": 35,
          "name": "B1",
          "ticks": 105984,
          "time": 145.26155999999997,
          "velocity": 0.8976377952755905
        },
        {
          "duration": 0.005482395833354303,
          "durationTicks": 4,
          "midi": 69,
          "name": "A4",
          "ticks": 105984,
          "time": 145.26155999999997,
          "velocity": 0.5826771653543307
        },
        {
          "duration": 0.005482395833354303,
          "durationTicks": 4,
          "midi": 60,
          "name": "C4",
          "ticks": 105984,
          "time": 145.26155999999997,
          "velocity": 0.4251968503937008
        },
        {
          "duration": 0.0054823958333258815,
          "durationTicks": 4,
          "midi": 44,
          "name": "G#2",
          "ticks": 105988,
          "time": 145.26704239583333,
          "velocity": 0.49606299212598426
        },
        {
          "duration": 0.005482395833354303,
          "durationTicks": 4,
          "midi": 69,
          "name": "A4",
          "ticks": 106076,
          "time": 145.38765510416664,
          "velocity": 0.2204724409448819
        },
        {
          "duration": 0.0054823958333258815,
          "durationTicks": 4,
          "midi": 69,
          "name": "A4",
          "ticks": 106160,
          "time": 145.50278541666665,
          "velocity": 0.8031496062992126
        },
        {
          "duration": 0.005482395833354303,
          "durationTicks": 4,
          "midi": 70,
          "name": "A#4",
          "ticks": 106176,
          "time": 145.524715,
          "velocity": 0.7401574803149606
        },
        {
          "duration": 0.00548239583329746,
          "durationTicks": 4,
          "midi": 46,
          "name": "A#2",
          "ticks": 106180,
          "time": 145.53019739583334,
          "velocity": 0.5275590551181102
        },
        {
          "duration": 0.0054823958333258815,
          "durationTicks": 4,
          "midi": 69,
          "name": "A4",
          "ticks": 106256,
          "time": 145.63436291666665,
          "velocity": 0.8031496062992126
        },
        {
          "duration": 0.005482395833354303,
          "durationTicks": 4,
          "midi": 60,
          "name": "C4",
          "ticks": 106272,
          "time": 145.65629249999998,
          "velocity": 0.33858267716535434
        },
        {
          "duration": 0.0054823958333258815,
          "durationTicks": 4,
          "midi": 35,
          "name": "B1",
          "ticks": 106368,
          "time": 145.78787,
          "velocity": 0.8976377952755905
        },
        {
          "duration": 0.0054823958333258815,
          "durationTicks": 4,
          "midi": 40,
          "name": "E2",
          "ticks": 106372,
          "time": 145.79335239583332,
          "velocity": 0.8976377952755905
        },
        {
          "duration": 0.0054823958333258815,
          "durationTicks": 4,
          "midi": 44,
          "name": "G#2",
          "ticks": 106372,
          "time": 145.79335239583332,
          "velocity": 0.5984251968503937
        },
        {
          "duration": 0.0054823958333258815,
          "durationTicks": 4,
          "midi": 39,
          "name": "D#2",
          "ticks": 106376,
          "time": 145.79883479166665,
          "velocity": 0.7795275590551181
        },
        {
          "duration": 0.0054823958333258815,
          "durationTicks": 4,
          "midi": 60,
          "name": "C4",
          "ticks": 106464,
          "time": 145.9194475,
          "velocity": 0.31496062992125984
        },
        {
          "duration": 0.005482395833354303,
          "durationTicks": 4,
          "midi": 70,
          "name": "A#4",
          "ticks": 106560,
          "time": 146.05102499999998,
          "velocity": 0.5669291338582677
        },
        {
          "duration": 0.005482395833354303,
          "durationTicks": 4,
          "midi": 63,
          "name": "D#4",
          "ticks": 106560,
          "time": 146.05102499999998,
          "velocity": 0.31496062992125984
        },
        {
          "duration": 0.005482395833354303,
          "durationTicks": 4,
          "midi": 70,
          "name": "A#4",
          "ticks": 106656,
          "time": 146.18260249999997,
          "velocity": 0.6692913385826772
        },
        {
          "duration": 0.0054823958333258815,
          "durationTicks": 4,
          "midi": 35,
          "name": "B1",
          "ticks": 106752,
          "time": 146.31418,
          "velocity": 0.8661417322834646
        },
        {
          "duration": 0.0054823958333258815,
          "durationTicks": 4,
          "midi": 60,
          "name": "C4",
          "ticks": 106752,
          "time": 146.31418,
          "velocity": 0.4251968503937008
        },
        {
          "duration": 0.005482395833354303,
          "durationTicks": 4,
          "midi": 70,
          "name": "A#4",
          "ticks": 106944,
          "time": 146.57733499999998,
          "velocity": 0.7401574803149606
        },
        {
          "duration": 0.00548239583329746,
          "durationTicks": 4,
          "midi": 46,
          "name": "A#2",
          "ticks": 106948,
          "time": 146.58281739583333,
          "velocity": 0.49606299212598426
        },
        {
          "duration": 0.0054823958333258815,
          "durationTicks": 4,
          "midi": 60,
          "name": "C4",
          "ticks": 107040,
          "time": 146.7089125,
          "velocity": 0.31496062992125984
        },
        {
          "duration": 0.0054823958333258815,
          "durationTicks": 4,
          "midi": 35,
          "name": "B1",
          "ticks": 107136,
          "time": 146.84049,
          "velocity": 0.8976377952755905
        },
        {
          "duration": 0.0054823958333258815,
          "durationTicks": 4,
          "midi": 40,
          "name": "E2",
          "ticks": 107140,
          "time": 146.84597239583331,
          "velocity": 0.8976377952755905
        },
        {
          "duration": 0.0054823958333258815,
          "durationTicks": 4,
          "midi": 44,
          "name": "G#2",
          "ticks": 107140,
          "time": 146.84597239583331,
          "velocity": 0.49606299212598426
        },
        {
          "duration": 0.005482395833354303,
          "durationTicks": 4,
          "midi": 39,
          "name": "D#2",
          "ticks": 107144,
          "time": 146.85145479166664,
          "velocity": 0.7795275590551181
        },
        {
          "duration": 0.005482395833354303,
          "durationTicks": 4,
          "midi": 60,
          "name": "C4",
          "ticks": 107232,
          "time": 146.97206749999998,
          "velocity": 0.33858267716535434
        },
        {
          "duration": 0.005482395833354303,
          "durationTicks": 4,
          "midi": 70,
          "name": "A#4",
          "ticks": 107328,
          "time": 147.10364499999997,
          "velocity": 0.7401574803149606
        },
        {
          "duration": 0.005482395833354303,
          "durationTicks": 4,
          "midi": 63,
          "name": "D#4",
          "ticks": 107328,
          "time": 147.10364499999997,
          "velocity": 0.4251968503937008
        },
        {
          "duration": 0.0054823958333258815,
          "durationTicks": 4,
          "midi": 46,
          "name": "A#2",
          "ticks": 107332,
          "time": 147.10912739583333,
          "velocity": 0.49606299212598426
        },
        {
          "duration": 0.005482395833354303,
          "durationTicks": 4,
          "midi": 35,
          "name": "B1",
          "ticks": 107520,
          "time": 147.36679999999998,
          "velocity": 0.8976377952755905
        },
        {
          "duration": 0.005482395833354303,
          "durationTicks": 4,
          "midi": 60,
          "name": "C4",
          "ticks": 107520,
          "time": 147.36679999999998,
          "velocity": 0.3858267716535433
        },
        {
          "duration": 0.00548239583329746,
          "durationTicks": 4,
          "midi": 44,
          "name": "G#2",
          "ticks": 107524,
          "time": 147.37228239583334,
          "velocity": 0.5275590551181102
        },
        {
          "duration": 0.0054823958333258815,
          "durationTicks": 4,
          "midi": 70,
          "name": "A#4",
          "ticks": 107712,
          "time": 147.629955,
          "velocity": 0.7795275590551181
        },
        {
          "duration": 0.0054823958333258815,
          "durationTicks": 4,
          "midi": 46,
          "name": "A#2",
          "ticks": 107716,
          "time": 147.63543739583332,
          "velocity": 0.49606299212598426
        },
        {
          "duration": 0.005482395833354303,
          "durationTicks": 4,
          "midi": 60,
          "name": "C4",
          "ticks": 107808,
          "time": 147.7615325,
          "velocity": 0.31496062992125984
        },
        {
          "duration": 0.005482395833354303,
          "durationTicks": 4,
          "midi": 35,
          "name": "B1",
          "ticks": 107904,
          "time": 147.89310999999998,
          "velocity": 0.8661417322834646
        },
        {
          "duration": 0.00548239583329746,
          "durationTicks": 4,
          "midi": 40,
          "name": "E2",
          "ticks": 107908,
          "time": 147.89859239583333,
          "velocity": 0.8976377952755905
        },
        {
          "duration": 0.00548239583329746,
          "durationTicks": 4,
          "midi": 44,
          "name": "G#2",
          "ticks": 107908,
          "time": 147.89859239583333,
          "velocity": 0.49606299212598426
        },
        {
          "duration": 0.005482395833354303,
          "durationTicks": 4,
          "midi": 39,
          "name": "D#2",
          "ticks": 107912,
          "time": 147.90407479166663,
          "velocity": 0.7795275590551181
        },
        {
          "duration": 0.005482395833354303,
          "durationTicks": 4,
          "midi": 60,
          "name": "C4",
          "ticks": 108000,
          "time": 148.02468749999997,
          "velocity": 0.33858267716535434
        },
        {
          "duration": 0.0054823958333258815,
          "durationTicks": 4,
          "midi": 70,
          "name": "A#4",
          "ticks": 108096,
          "time": 148.156265,
          "velocity": 0.6141732283464567
        },
        {
          "duration": 0.0054823958333258815,
          "durationTicks": 4,
          "midi": 63,
          "name": "D#4",
          "ticks": 108096,
          "time": 148.156265,
          "velocity": 0.31496062992125984
        },
        {
          "duration": 0.0054823958333258815,
          "durationTicks": 4,
          "midi": 46,
          "name": "A#2",
          "ticks": 108100,
          "time": 148.16174739583332,
          "velocity": 0.49606299212598426
        },
        {
          "duration": 0.005482395833354303,
          "durationTicks": 4,
          "midi": 70,
          "name": "A#4",
          "ticks": 108192,
          "time": 148.28784249999998,
          "velocity": 0.6692913385826772
        },
        {
          "duration": 0.005482395833354303,
          "durationTicks": 4,
          "midi": 35,
          "name": "B1",
          "ticks": 108288,
          "time": 148.41941999999997,
          "velocity": 0.8976377952755905
        },
        {
          "duration": 0.005482395833354303,
          "durationTicks": 4,
          "midi": 60,
          "name": "C4",
          "ticks": 108288,
          "time": 148.41941999999997,
          "velocity": 0.3858267716535433
        },
        {
          "duration": 0.0054823958333258815,
          "durationTicks": 4,
          "midi": 44,
          "name": "G#2",
          "ticks": 108292,
          "time": 148.42490239583333,
          "velocity": 0.49606299212598426
        },
        {
          "duration": 0.005482395833354303,
          "durationTicks": 4,
          "midi": 70,
          "name": "A#4",
          "ticks": 108480,
          "time": 148.68257499999999,
          "velocity": 0.7795275590551181
        },
        {
          "duration": 0.00548239583329746,
          "durationTicks": 4,
          "midi": 46,
          "name": "A#2",
          "ticks": 108484,
          "time": 148.68805739583334,
          "velocity": 0.49606299212598426
        },
        {
          "duration": 0.005482395833354303,
          "durationTicks": 4,
          "midi": 60,
          "name": "C4",
          "ticks": 108576,
          "time": 148.81415249999998,
          "velocity": 0.31496062992125984
        },
        {
          "duration": 0.0054823958333258815,
          "durationTicks": 4,
          "midi": 35,
          "name": "B1",
          "ticks": 108672,
          "time": 148.94573,
          "velocity": 0.8976377952755905
        },
        {
          "duration": 0.0054823958333258815,
          "durationTicks": 4,
          "midi": 40,
          "name": "E2",
          "ticks": 108676,
          "time": 148.95121239583332,
          "velocity": 0.8976377952755905
        },
        {
          "duration": 0.0054823958333258815,
          "durationTicks": 4,
          "midi": 44,
          "name": "G#2",
          "ticks": 108676,
          "time": 148.95121239583332,
          "velocity": 0.5275590551181102
        },
        {
          "duration": 0.0054823958333258815,
          "durationTicks": 4,
          "midi": 39,
          "name": "D#2",
          "ticks": 108680,
          "time": 148.95669479166665,
          "velocity": 0.7795275590551181
        },
        {
          "duration": 0.0054823958333258815,
          "durationTicks": 4,
          "midi": 60,
          "name": "C4",
          "ticks": 108768,
          "time": 149.0773075,
          "velocity": 0.31496062992125984
        },
        {
          "duration": 0.005482395833354303,
          "durationTicks": 4,
          "midi": 70,
          "name": "A#4",
          "ticks": 108864,
          "time": 149.20888499999998,
          "velocity": 0.6377952755905512
        },
        {
          "duration": 0.005482395833354303,
          "durationTicks": 4,
          "midi": 63,
          "name": "D#4",
          "ticks": 108864,
          "time": 149.20888499999998,
          "velocity": 0.3858267716535433
        },
        {
          "duration": 0.00548239583329746,
          "durationTicks": 4,
          "midi": 46,
          "name": "A#2",
          "ticks": 108868,
          "time": 149.21436739583334,
          "velocity": 0.5275590551181102
        },
        {
          "duration": 0.005482395833354303,
          "durationTicks": 4,
          "midi": 70,
          "name": "A#4",
          "ticks": 108960,
          "time": 149.34046249999997,
          "velocity": 0.7795275590551181
        },
        {
          "duration": 0.0054823958333258815,
          "durationTicks": 4,
          "midi": 35,
          "name": "B1",
          "ticks": 109056,
          "time": 149.47204,
          "velocity": 0.8661417322834646
        },
        {
          "duration": 0.0054823958333258815,
          "durationTicks": 4,
          "midi": 69,
          "name": "A4",
          "ticks": 109056,
          "time": 149.47204,
          "velocity": 0.5826771653543307
        },
        {
          "duration": 0.0054823958333258815,
          "durationTicks": 4,
          "midi": 60,
          "name": "C4",
          "ticks": 109056,
          "time": 149.47204,
          "velocity": 0.4251968503937008
        },
        {
          "duration": 0.0054823958333258815,
          "durationTicks": 4,
          "midi": 44,
          "name": "G#2",
          "ticks": 109060,
          "time": 149.47752239583332,
          "velocity": 0.5984251968503937
        },
        {
          "duration": 0.005482395833354303,
          "durationTicks": 4,
          "midi": 69,
          "name": "A4",
          "ticks": 109148,
          "time": 149.59813510416663,
          "velocity": 0.2204724409448819
        },
        {
          "duration": 0.005482395833354303,
          "durationTicks": 4,
          "midi": 69,
          "name": "A4",
          "ticks": 109232,
          "time": 149.71326541666664,
          "velocity": 0.8031496062992126
        },
        {
          "duration": 0.005482395833354303,
          "durationTicks": 4,
          "midi": 70,
          "name": "A#4",
          "ticks": 109248,
          "time": 149.73519499999998,
          "velocity": 0.7795275590551181
        },
        {
          "duration": 0.00548239583329746,
          "durationTicks": 4,
          "midi": 46,
          "name": "A#2",
          "ticks": 109252,
          "time": 149.74067739583333,
          "velocity": 0.49606299212598426
        },
        {
          "duration": 0.005482395833354303,
          "durationTicks": 4,
          "midi": 69,
          "name": "A4",
          "ticks": 109328,
          "time": 149.84484291666664,
          "velocity": 0.8031496062992126
        },
        {
          "duration": 0.0054823958333258815,
          "durationTicks": 4,
          "midi": 60,
          "name": "C4",
          "ticks": 109344,
          "time": 149.8667725,
          "velocity": 0.4251968503937008
        },
        {
          "duration": 0.0054823958333258815,
          "durationTicks": 4,
          "midi": 35,
          "name": "B1",
          "ticks": 109440,
          "time": 149.99835,
          "velocity": 0.8976377952755905
        },
        {
          "duration": 0.0054823958333258815,
          "durationTicks": 4,
          "midi": 40,
          "name": "E2",
          "ticks": 109444,
          "time": 150.0038323958333,
          "velocity": 0.8661417322834646
        },
        {
          "duration": 0.0054823958333258815,
          "durationTicks": 4,
          "midi": 44,
          "name": "G#2",
          "ticks": 109444,
          "time": 150.0038323958333,
          "velocity": 0.47244094488188976
        },
        {
          "duration": 0.005482395833354303,
          "durationTicks": 4,
          "midi": 39,
          "name": "D#2",
          "ticks": 109448,
          "time": 150.00931479166664,
          "velocity": 0.7480314960629921
        },
        {
          "duration": 0.005482395833354303,
          "durationTicks": 4,
          "midi": 60,
          "name": "C4",
          "ticks": 109536,
          "time": 150.12992749999998,
          "velocity": 0.33858267716535434
        },
        {
          "duration": 0.005482395833354303,
          "durationTicks": 4,
          "midi": 70,
          "name": "A#4",
          "ticks": 109632,
          "time": 150.26150499999997,
          "velocity": 0.6377952755905512
        },
        {
          "duration": 0.005482395833354303,
          "durationTicks": 4,
          "midi": 63,
          "name": "D#4",
          "ticks": 109632,
          "time": 150.26150499999997,
          "velocity": 0.3858267716535433
        },
        {
          "duration": 0.0054823958333258815,
          "durationTicks": 4,
          "midi": 70,
          "name": "A#4",
          "ticks": 109728,
          "time": 150.3930825,
          "velocity": 0.7795275590551181
        },
        {
          "duration": 0.005482395833354303,
          "durationTicks": 4,
          "midi": 35,
          "name": "B1",
          "ticks": 109824,
          "time": 150.52465999999998,
          "velocity": 0.8661417322834646
        },
        {
          "duration": 0.005482395833354303,
          "durationTicks": 4,
          "midi": 60,
          "name": "C4",
          "ticks": 109824,
          "time": 150.52465999999998,
          "velocity": 0.4251968503937008
        },
        {
          "duration": 0.0054823958333258815,
          "durationTicks": 4,
          "midi": 70,
          "name": "A#4",
          "ticks": 110016,
          "time": 150.787815,
          "velocity": 0.7401574803149606
        },
        {
          "duration": 0.0054823958333258815,
          "durationTicks": 4,
          "midi": 46,
          "name": "A#2",
          "ticks": 110020,
          "time": 150.79329739583332,
          "velocity": 0.5275590551181102
        },
        {
          "duration": 0.005482395833354303,
          "durationTicks": 4,
          "midi": 60,
          "name": "C4",
          "ticks": 110112,
          "time": 150.9193925,
          "velocity": 0.33858267716535434
        },
        {
          "duration": 0.005482395833354303,
          "durationTicks": 4,
          "midi": 35,
          "name": "B1",
          "ticks": 110208,
          "time": 151.05096999999998,
          "velocity": 0.8976377952755905
        },
        {
          "duration": 0.00548239583329746,
          "durationTicks": 4,
          "midi": 40,
          "name": "E2",
          "ticks": 110212,
          "time": 151.05645239583333,
          "velocity": 0.8661417322834646
        },
        {
          "duration": 0.00548239583329746,
          "durationTicks": 4,
          "midi": 44,
          "name": "G#2",
          "ticks": 110212,
          "time": 151.05645239583333,
          "velocity": 0.5275590551181102
        },
        {
          "duration": 0.005482395833354303,
          "durationTicks": 4,
          "midi": 39,
          "name": "D#2",
          "ticks": 110216,
          "time": 151.06193479166663,
          "velocity": 0.7480314960629921
        },
        {
          "duration": 0.005482395833354303,
          "durationTicks": 4,
          "midi": 60,
          "name": "C4",
          "ticks": 110304,
          "time": 151.18254749999997,
          "velocity": 0.3858267716535433
        },
        {
          "duration": 0.0054823958333258815,
          "durationTicks": 4,
          "midi": 70,
          "name": "A#4",
          "ticks": 110400,
          "time": 151.314125,
          "velocity": 0.7401574803149606
        },
        {
          "duration": 0.0054823958333258815,
          "durationTicks": 4,
          "midi": 63,
          "name": "D#4",
          "ticks": 110400,
          "time": 151.314125,
          "velocity": 0.4251968503937008
        },
        {
          "duration": 0.0054823958333258815,
          "durationTicks": 4,
          "midi": 46,
          "name": "A#2",
          "ticks": 110404,
          "time": 151.31960739583332,
          "velocity": 0.49606299212598426
        },
        {
          "duration": 0.005482395833354303,
          "durationTicks": 4,
          "midi": 35,
          "name": "B1",
          "ticks": 110592,
          "time": 151.57727999999997,
          "velocity": 0.8661417322834646
        },
        {
          "duration": 0.005482395833354303,
          "durationTicks": 4,
          "midi": 60,
          "name": "C4",
          "ticks": 110592,
          "time": 151.57727999999997,
          "velocity": 0.4251968503937008
        },
        {
          "duration": 0.0054823958333258815,
          "durationTicks": 4,
          "midi": 44,
          "name": "G#2",
          "ticks": 110596,
          "time": 151.58276239583333,
          "velocity": 0.49606299212598426
        },
        {
          "duration": 0.005482395833354303,
          "durationTicks": 4,
          "midi": 70,
          "name": "A#4",
          "ticks": 110784,
          "time": 151.84043499999999,
          "velocity": 0.7401574803149606
        },
        {
          "duration": 0.00548239583329746,
          "durationTicks": 4,
          "midi": 46,
          "name": "A#2",
          "ticks": 110788,
          "time": 151.84591739583334,
          "velocity": 0.47244094488188976
        },
        {
          "duration": 0.005482395833354303,
          "durationTicks": 4,
          "midi": 60,
          "name": "C4",
          "ticks": 110880,
          "time": 151.97201249999998,
          "velocity": 0.25984251968503935
        },
        {
          "duration": 0.0054823958333258815,
          "durationTicks": 4,
          "midi": 35,
          "name": "B1",
          "ticks": 110976,
          "time": 152.10359,
          "velocity": 0.8661417322834646
        },
        {
          "duration": 0.0054823958333258815,
          "durationTicks": 4,
          "midi": 40,
          "name": "E2",
          "ticks": 110980,
          "time": 152.10907239583332,
          "velocity": 0.8661417322834646
        },
        {
          "duration": 0.0054823958333258815,
          "durationTicks": 4,
          "midi": 44,
          "name": "G#2",
          "ticks": 110980,
          "time": 152.10907239583332,
          "velocity": 0.49606299212598426
        },
        {
          "duration": 0.0054823958333258815,
          "durationTicks": 4,
          "midi": 39,
          "name": "D#2",
          "ticks": 110984,
          "time": 152.11455479166665,
          "velocity": 0.7480314960629921
        },
        {
          "duration": 0.0054823958333258815,
          "durationTicks": 4,
          "midi": 60,
          "name": "C4",
          "ticks": 111072,
          "time": 152.2351675,
          "velocity": 0.28346456692913385
        },
        {
          "duration": 0.005482395833354303,
          "durationTicks": 4,
          "midi": 70,
          "name": "A#4",
          "ticks": 111168,
          "time": 152.36674499999998,
          "velocity": 0.6141732283464567
        },
        {
          "duration": 0.005482395833354303,
          "durationTicks": 4,
          "midi": 63,
          "name": "D#4",
          "ticks": 111168,
          "time": 152.36674499999998,
          "velocity": 0.3858267716535433
        },
        {
          "duration": 0.00548239583329746,
          "durationTicks": 4,
          "midi": 46,
          "name": "A#2",
          "ticks": 111172,
          "time": 152.37222739583333,
          "velocity": 0.4251968503937008
        },
        {
          "duration": 0.005482395833354303,
          "durationTicks": 4,
          "midi": 70,
          "name": "A#4",
          "ticks": 111264,
          "time": 152.49832249999997,
          "velocity": 0.7401574803149606
        },
        {
          "duration": 0.0054823958333258815,
          "durationTicks": 4,
          "midi": 35,
          "name": "B1",
          "ticks": 111360,
          "time": 152.6299,
          "velocity": 0.8661417322834646
        },
        {
          "duration": 0.0054823958333258815,
          "durationTicks": 4,
          "midi": 60,
          "name": "C4",
          "ticks": 111360,
          "time": 152.6299,
          "velocity": 0.4251968503937008
        },
        {
          "duration": 0.0054823958333258815,
          "durationTicks": 4,
          "midi": 44,
          "name": "G#2",
          "ticks": 111364,
          "time": 152.63538239583332,
          "velocity": 0.49606299212598426
        },
        {
          "duration": 0.005482395833354303,
          "durationTicks": 4,
          "midi": 70,
          "name": "A#4",
          "ticks": 111552,
          "time": 152.89305499999998,
          "velocity": 0.7401574803149606
        },
        {
          "duration": 0.00548239583329746,
          "durationTicks": 4,
          "midi": 46,
          "name": "A#2",
          "ticks": 111556,
          "time": 152.89853739583333,
          "velocity": 0.4251968503937008
        },
        {
          "duration": 0.0054823958333258815,
          "durationTicks": 4,
          "midi": 60,
          "name": "C4",
          "ticks": 111648,
          "time": 153.0246325,
          "velocity": 0.33858267716535434
        },
        {
          "duration": 0.0054823958333258815,
          "durationTicks": 4,
          "midi": 35,
          "name": "B1",
          "ticks": 111744,
          "time": 153.15621,
          "velocity": 0.8976377952755905
        },
        {
          "duration": 0.0054823958333258815,
          "durationTicks": 4,
          "midi": 40,
          "name": "E2",
          "ticks": 111748,
          "time": 153.1616923958333,
          "velocity": 0.8661417322834646
        },
        {
          "duration": 0.0054823958333258815,
          "durationTicks": 4,
          "midi": 44,
          "name": "G#2",
          "ticks": 111748,
          "time": 153.1616923958333,
          "velocity": 0.49606299212598426
        },
        {
          "duration": 0.005482395833354303,
          "durationTicks": 4,
          "midi": 39,
          "name": "D#2",
          "ticks": 111752,
          "time": 153.16717479166664,
          "velocity": 0.7480314960629921
        },
        {
          "duration": 0.005482395833354303,
          "durationTicks": 4,
          "midi": 60,
          "name": "C4",
          "ticks": 111840,
          "time": 153.28778749999998,
          "velocity": 0.31496062992125984
        },
        {
          "duration": 0.005482395833354303,
          "durationTicks": 4,
          "midi": 70,
          "name": "A#4",
          "ticks": 111936,
          "time": 153.41936499999997,
          "velocity": 0.6141732283464567
        },
        {
          "duration": 0.005482395833354303,
          "durationTicks": 4,
          "midi": 63,
          "name": "D#4",
          "ticks": 111936,
          "time": 153.41936499999997,
          "velocity": 0.3858267716535433
        },
        {
          "duration": 0.0054823958333258815,
          "durationTicks": 4,
          "midi": 46,
          "name": "A#2",
          "ticks": 111940,
          "time": 153.42484739583332,
          "velocity": 0.47244094488188976
        },
        {
          "duration": 0.0054823958333258815,
          "durationTicks": 4,
          "midi": 70,
          "name": "A#4",
          "ticks": 112032,
          "time": 153.5509425,
          "velocity": 0.7795275590551181
        },
        {
          "duration": 0.005482395833354303,
          "durationTicks": 4,
          "midi": 35,
          "name": "B1",
          "ticks": 112128,
          "time": 153.68251999999998,
          "velocity": 0.8976377952755905
        },
        {
          "duration": 0.005482395833354303,
          "durationTicks": 4,
          "midi": 69,
          "name": "A4",
          "ticks": 112128,
          "time": 153.68251999999998,
          "velocity": 0.5826771653543307
        },
        {
          "duration": 0.005482395833354303,
          "durationTicks": 4,
          "midi": 60,
          "name": "C4",
          "ticks": 112128,
          "time": 153.68251999999998,
          "velocity": 0.4251968503937008
        },
        {
          "duration": 0.00548239583329746,
          "durationTicks": 4,
          "midi": 44,
          "name": "G#2",
          "ticks": 112132,
          "time": 153.68800239583334,
          "velocity": 0.49606299212598426
        },
        {
          "duration": 0.0054823958333258815,
          "durationTicks": 4,
          "midi": 69,
          "name": "A4",
          "ticks": 112220,
          "time": 153.80861510416665,
          "velocity": 0.2204724409448819
        },
        {
          "duration": 0.005482395833354303,
          "durationTicks": 4,
          "midi": 69,
          "name": "A4",
          "ticks": 112304,
          "time": 153.92374541666663,
          "velocity": 0.8031496062992126
        },
        {
          "duration": 0.0054823958333258815,
          "durationTicks": 4,
          "midi": 70,
          "name": "A#4",
          "ticks": 112320,
          "time": 153.945675,
          "velocity": 0.7401574803149606
        },
        {
          "duration": 0.0054823958333258815,
          "durationTicks": 4,
          "midi": 46,
          "name": "A#2",
          "ticks": 112324,
          "time": 153.95115739583332,
          "velocity": 0.5275590551181102
        },
        {
          "duration": 0.0054823958333258815,
          "durationTicks": 4,
          "midi": 69,
          "name": "A4",
          "ticks": 112400,
          "time": 154.05532291666665,
          "velocity": 0.8031496062992126
        },
        {
          "duration": 0.005482395833354303,
          "durationTicks": 4,
          "midi": 60,
          "name": "C4",
          "ticks": 112416,
          "time": 154.0772525,
          "velocity": 0.33858267716535434
        },
        {
          "duration": 0.005482395833354303,
          "durationTicks": 4,
          "midi": 35,
          "name": "B1",
          "ticks": 112512,
          "time": 154.20882999999998,
          "velocity": 0.8976377952755905
        },
        {
          "duration": 0.00548239583329746,
          "durationTicks": 4,
          "midi": 40,
          "name": "E2",
          "ticks": 112516,
          "time": 154.21431239583333,
          "velocity": 0.8976377952755905
        },
        {
          "duration": 0.00548239583329746,
          "durationTicks": 4,
          "midi": 44,
          "name": "G#2",
          "ticks": 112516,
          "time": 154.21431239583333,
          "velocity": 0.5984251968503937
        },
        {
          "duration": 0.005482395833354303,
          "durationTicks": 4,
          "midi": 39,
          "name": "D#2",
          "ticks": 112520,
          "time": 154.21979479166663,
          "velocity": 0.7795275590551181
        },
        {
          "duration": 0.0054823958333258815,
          "durationTicks": 4,
          "midi": 60,
          "name": "C4",
          "ticks": 112608,
          "time": 154.3404075,
          "velocity": 0.31496062992125984
        },
        {
          "duration": 0.0054823958333258815,
          "durationTicks": 4,
          "midi": 70,
          "name": "A#4",
          "ticks": 112704,
          "time": 154.471985,
          "velocity": 0.5669291338582677
        },
        {
          "duration": 0.0054823958333258815,
          "durationTicks": 4,
          "midi": 63,
          "name": "D#4",
          "ticks": 112704,
          "time": 154.471985,
          "velocity": 0.31496062992125984
        },
        {
          "duration": 0.005482395833354303,
          "durationTicks": 4,
          "midi": 70,
          "name": "A#4",
          "ticks": 112800,
          "time": 154.60356249999998,
          "velocity": 0.6692913385826772
        },
        {
          "duration": 0.005482395833354303,
          "durationTicks": 4,
          "midi": 35,
          "name": "B1",
          "ticks": 112896,
          "time": 154.73513999999997,
          "velocity": 0.8661417322834646
        },
        {
          "duration": 0.005482395833354303,
          "durationTicks": 4,
          "midi": 60,
          "name": "C4",
          "ticks": 112896,
          "time": 154.73513999999997,
          "velocity": 0.4251968503937008
        },
        {
          "duration": 0.005482395833354303,
          "durationTicks": 4,
          "midi": 70,
          "name": "A#4",
          "ticks": 113088,
          "time": 154.99829499999998,
          "velocity": 0.7401574803149606
        },
        {
          "duration": 0.00548239583329746,
          "durationTicks": 4,
          "midi": 46,
          "name": "A#2",
          "ticks": 113092,
          "time": 155.00377739583334,
          "velocity": 0.49606299212598426
        },
        {
          "duration": 0.005482395833354303,
          "durationTicks": 4,
          "midi": 60,
          "name": "C4",
          "ticks": 113184,
          "time": 155.12987249999998,
          "velocity": 0.31496062992125984
        },
        {
          "duration": 0.0054823958333258815,
          "durationTicks": 4,
          "midi": 35,
          "name": "B1",
          "ticks": 113280,
          "time": 155.26145,
          "velocity": 0.8976377952755905
        },
        {
          "duration": 0.0054823958333258815,
          "durationTicks": 4,
          "midi": 40,
          "name": "E2",
          "ticks": 113284,
          "time": 155.26693239583332,
          "velocity": 0.8976377952755905
        },
        {
          "duration": 0.0054823958333258815,
          "durationTicks": 4,
          "midi": 44,
          "name": "G#2",
          "ticks": 113284,
          "time": 155.26693239583332,
          "velocity": 0.49606299212598426
        },
        {
          "duration": 0.0054823958333258815,
          "durationTicks": 4,
          "midi": 39,
          "name": "D#2",
          "ticks": 113288,
          "time": 155.27241479166665,
          "velocity": 0.7795275590551181
        },
        {
          "duration": 0.0054823958333258815,
          "durationTicks": 4,
          "midi": 60,
          "name": "C4",
          "ticks": 113376,
          "time": 155.3930275,
          "velocity": 0.33858267716535434
        },
        {
          "duration": 0.005482395833354303,
          "durationTicks": 4,
          "midi": 70,
          "name": "A#4",
          "ticks": 113472,
          "time": 155.52460499999998,
          "velocity": 0.7401574803149606
        },
        {
          "duration": 0.005482395833354303,
          "durationTicks": 4,
          "midi": 63,
          "name": "D#4",
          "ticks": 113472,
          "time": 155.52460499999998,
          "velocity": 0.4251968503937008
        },
        {
          "duration": 0.00548239583329746,
          "durationTicks": 4,
          "midi": 46,
          "name": "A#2",
          "ticks": 113476,
          "time": 155.53008739583333,
          "velocity": 0.49606299212598426
        },
        {
          "duration": 0.0054823958333258815,
          "durationTicks": 4,
          "midi": 35,
          "name": "B1",
          "ticks": 113664,
          "time": 155.78776,
          "velocity": 0.8976377952755905
        },
        {
          "duration": 0.0054823958333258815,
          "durationTicks": 4,
          "midi": 60,
          "name": "C4",
          "ticks": 113664,
          "time": 155.78776,
          "velocity": 0.3858267716535433
        },
        {
          "duration": 0.0054823958333258815,
          "durationTicks": 4,
          "midi": 44,
          "name": "G#2",
          "ticks": 113668,
          "time": 155.79324239583332,
          "velocity": 0.5275590551181102
        },
        {
          "duration": 0.005482395833354303,
          "durationTicks": 4,
          "midi": 70,
          "name": "A#4",
          "ticks": 113856,
          "time": 156.05091499999997,
          "velocity": 0.7795275590551181
        },
        {
          "duration": 0.00548239583329746,
          "durationTicks": 4,
          "midi": 46,
          "name": "A#2",
          "ticks": 113860,
          "time": 156.05639739583333,
          "velocity": 0.49606299212598426
        },
        {
          "duration": 0.0054823958333258815,
          "durationTicks": 4,
          "midi": 60,
          "name": "C4",
          "ticks": 113952,
          "time": 156.1824925,
          "velocity": 0.31496062992125984
        },
        {
          "duration": 0.0054823958333258815,
          "durationTicks": 4,
          "midi": 35,
          "name": "B1",
          "ticks": 114048,
          "time": 156.31407,
          "velocity": 0.8661417322834646
        },
        {
          "duration": 0.0054823958333258815,
          "durationTicks": 4,
          "midi": 40,
          "name": "E2",
          "ticks": 114052,
          "time": 156.3195523958333,
          "velocity": 0.8976377952755905
        },
        {
          "duration": 0.0054823958333258815,
          "durationTicks": 4,
          "midi": 44,
          "name": "G#2",
          "ticks": 114052,
          "time": 156.3195523958333,
          "velocity": 0.49606299212598426
        },
        {
          "duration": 0.005482395833354303,
          "durationTicks": 4,
          "midi": 39,
          "name": "D#2",
          "ticks": 114056,
          "time": 156.32503479166664,
          "velocity": 0.7795275590551181
        },
        {
          "duration": 0.005482395833354303,
          "durationTicks": 4,
          "midi": 60,
          "name": "C4",
          "ticks": 114144,
          "time": 156.44564749999998,
          "velocity": 0.33858267716535434
        },
        {
          "duration": 0.005482395833354303,
          "durationTicks": 4,
          "midi": 70,
          "name": "A#4",
          "ticks": 114240,
          "time": 156.57722499999997,
          "velocity": 0.6141732283464567
        },
        {
          "duration": 0.005482395833354303,
          "durationTicks": 4,
          "midi": 63,
          "name": "D#4",
          "ticks": 114240,
          "time": 156.57722499999997,
          "velocity": 0.31496062992125984
        },
        {
          "duration": 0.0054823958333258815,
          "durationTicks": 4,
          "midi": 46,
          "name": "A#2",
          "ticks": 114244,
          "time": 156.58270739583332,
          "velocity": 0.49606299212598426
        },
        {
          "duration": 0.0054823958333258815,
          "durationTicks": 4,
          "midi": 70,
          "name": "A#4",
          "ticks": 114336,
          "time": 156.7088025,
          "velocity": 0.6692913385826772
        },
        {
          "duration": 0.005482395833354303,
          "durationTicks": 4,
          "midi": 35,
          "name": "B1",
          "ticks": 114432,
          "time": 156.84037999999998,
          "velocity": 0.8976377952755905
        },
        {
          "duration": 0.005482395833354303,
          "durationTicks": 4,
          "midi": 60,
          "name": "C4",
          "ticks": 114432,
          "time": 156.84037999999998,
          "velocity": 0.3858267716535433
        },
        {
          "duration": 0.00548239583329746,
          "durationTicks": 4,
          "midi": 44,
          "name": "G#2",
          "ticks": 114436,
          "time": 156.84586239583334,
          "velocity": 0.49606299212598426
        },
        {
          "duration": 0.0054823958333258815,
          "durationTicks": 4,
          "midi": 70,
          "name": "A#4",
          "ticks": 114624,
          "time": 157.103535,
          "velocity": 0.7795275590551181
        },
        {
          "duration": 0.0054823958333258815,
          "durationTicks": 4,
          "midi": 46,
          "name": "A#2",
          "ticks": 114628,
          "time": 157.10901739583332,
          "velocity": 0.49606299212598426
        },
        {
          "duration": 0.005482395833354303,
          "durationTicks": 4,
          "midi": 60,
          "name": "C4",
          "ticks": 114720,
          "time": 157.23511249999999,
          "velocity": 0.31496062992125984
        },
        {
          "duration": 0.005482395833354303,
          "durationTicks": 4,
          "midi": 35,
          "name": "B1",
          "ticks": 114816,
          "time": 157.36668999999998,
          "velocity": 0.8976377952755905
        },
        {
          "duration": 0.00548239583329746,
          "durationTicks": 4,
          "midi": 40,
          "name": "E2",
          "ticks": 114820,
          "time": 157.37217239583333,
          "velocity": 0.8976377952755905
        },
        {
          "duration": 0.00548239583329746,
          "durationTicks": 4,
          "midi": 44,
          "name": "G#2",
          "ticks": 114820,
          "time": 157.37217239583333,
          "velocity": 0.5275590551181102
        },
        {
          "duration": 0.005482395833354303,
          "durationTicks": 4,
          "midi": 39,
          "name": "D#2",
          "ticks": 114824,
          "time": 157.37765479166663,
          "velocity": 0.7795275590551181
        },
        {
          "duration": 0.0054823958333258815,
          "durationTicks": 4,
          "midi": 60,
          "name": "C4",
          "ticks": 114912,
          "time": 157.4982675,
          "velocity": 0.31496062992125984
        },
        {
          "duration": 0.0054823958333258815,
          "durationTicks": 4,
          "midi": 70,
          "name": "A#4",
          "ticks": 115008,
          "time": 157.629845,
          "velocity": 0.6377952755905512
        },
        {
          "duration": 0.0054823958333258815,
          "durationTicks": 4,
          "midi": 63,
          "name": "D#4",
          "ticks": 115008,
          "time": 157.629845,
          "velocity": 0.3858267716535433
        },
        {
          "duration": 0.0054823958333258815,
          "durationTicks": 4,
          "midi": 46,
          "name": "A#2",
          "ticks": 115012,
          "time": 157.63532739583331,
          "velocity": 0.5275590551181102
        },
        {
          "duration": 0.005482395833354303,
          "durationTicks": 4,
          "midi": 70,
          "name": "A#4",
          "ticks": 115104,
          "time": 157.76142249999998,
          "velocity": 0.7795275590551181
        },
        {
          "duration": 0.005482395833354303,
          "durationTicks": 4,
          "midi": 35,
          "name": "B1",
          "ticks": 115200,
          "time": 157.89299999999997,
          "velocity": 0.8661417322834646
        },
        {
          "duration": 0.005482395833354303,
          "durationTicks": 4,
          "midi": 69,
          "name": "A4",
          "ticks": 115200,
          "time": 157.89299999999997,
          "velocity": 0.5826771653543307
        },
        {
          "duration": 0.005482395833354303,
          "durationTicks": 4,
          "midi": 60,
          "name": "C4",
          "ticks": 115200,
          "time": 157.89299999999997,
          "velocity": 0.4251968503937008
        },
        {
          "duration": 0.0054823958333258815,
          "durationTicks": 4,
          "midi": 44,
          "name": "G#2",
          "ticks": 115204,
          "time": 157.89848239583333,
          "velocity": 0.5984251968503937
        },
        {
          "duration": 0.005482395833354303,
          "durationTicks": 4,
          "midi": 69,
          "name": "A4",
          "ticks": 115292,
          "time": 158.01909510416664,
          "velocity": 0.2204724409448819
        },
        {
          "duration": 0.0054823958333258815,
          "durationTicks": 4,
          "midi": 69,
          "name": "A4",
          "ticks": 115376,
          "time": 158.13422541666665,
          "velocity": 0.8031496062992126
        },
        {
          "duration": 0.005482395833354303,
          "durationTicks": 4,
          "midi": 70,
          "name": "A#4",
          "ticks": 115392,
          "time": 158.15615499999998,
          "velocity": 0.7795275590551181
        },
        {
          "duration": 0.00548239583329746,
          "durationTicks": 4,
          "midi": 46,
          "name": "A#2",
          "ticks": 115396,
          "time": 158.16163739583334,
          "velocity": 0.49606299212598426
        },
        {
          "duration": 0.0054823958333258815,
          "durationTicks": 4,
          "midi": 69,
          "name": "A4",
          "ticks": 115472,
          "time": 158.26580291666664,
          "velocity": 0.8031496062992126
        },
        {
          "duration": 0.005482395833354303,
          "durationTicks": 4,
          "midi": 60,
          "name": "C4",
          "ticks": 115488,
          "time": 158.28773249999998,
          "velocity": 0.4251968503937008
        },
        {
          "duration": 0.0054823958333258815,
          "durationTicks": 4,
          "midi": 35,
          "name": "B1",
          "ticks": 115584,
          "time": 158.41931,
          "velocity": 0.8976377952755905
        },
        {
          "duration": 0.0054823958333258815,
          "durationTicks": 4,
          "midi": 40,
          "name": "E2",
          "ticks": 115588,
          "time": 158.42479239583332,
          "velocity": 0.8661417322834646
        },
        {
          "duration": 0.0054823958333258815,
          "durationTicks": 4,
          "midi": 44,
          "name": "G#2",
          "ticks": 115588,
          "time": 158.42479239583332,
          "velocity": 0.47244094488188976
        },
        {
          "duration": 0.0054823958333258815,
          "durationTicks": 4,
          "midi": 39,
          "name": "D#2",
          "ticks": 115592,
          "time": 158.43027479166665,
          "velocity": 0.7480314960629921
        },
        {
          "duration": 0.0054823958333258815,
          "durationTicks": 4,
          "midi": 60,
          "name": "C4",
          "ticks": 115680,
          "time": 158.5508875,
          "velocity": 0.33858267716535434
        },
        {
          "duration": 0.005482395833354303,
          "durationTicks": 4,
          "midi": 70,
          "name": "A#4",
          "ticks": 115776,
          "time": 158.68246499999998,
          "velocity": 0.6377952755905512
        },
        {
          "duration": 0.005482395833354303,
          "durationTicks": 4,
          "midi": 63,
          "name": "D#4",
          "ticks": 115776,
          "time": 158.68246499999998,
          "velocity": 0.3858267716535433
        },
        {
          "duration": 0.005482395833354303,
          "durationTicks": 4,
          "midi": 70,
          "name": "A#4",
          "ticks": 115872,
          "time": 158.81404249999997,
          "velocity": 0.7795275590551181
        },
        {
          "duration": 0.0054823958333258815,
          "durationTicks": 4,
          "midi": 35,
          "name": "B1",
          "ticks": 115968,
          "time": 158.94562,
          "velocity": 0.8661417322834646
        },
        {
          "duration": 0.0054823958333258815,
          "durationTicks": 4,
          "midi": 60,
          "name": "C4",
          "ticks": 115968,
          "time": 158.94562,
          "velocity": 0.4251968503937008
        },
        {
          "duration": 0.005482395833354303,
          "durationTicks": 4,
          "midi": 70,
          "name": "A#4",
          "ticks": 116160,
          "time": 159.20877499999997,
          "velocity": 0.7401574803149606
        },
        {
          "duration": 0.00548239583329746,
          "durationTicks": 4,
          "midi": 46,
          "name": "A#2",
          "ticks": 116164,
          "time": 159.21425739583333,
          "velocity": 0.5275590551181102
        },
        {
          "duration": 0.0054823958333258815,
          "durationTicks": 4,
          "midi": 60,
          "name": "C4",
          "ticks": 116256,
          "time": 159.3403525,
          "velocity": 0.33858267716535434
        },
        {
          "duration": 0.005482395833354303,
          "durationTicks": 4,
          "midi": 35,
          "name": "B1",
          "ticks": 116352,
          "time": 159.47193,
          "velocity": 0.8976377952755905
        },
        {
          "duration": 0.00548239583329746,
          "durationTicks": 4,
          "midi": 40,
          "name": "E2",
          "ticks": 116356,
          "time": 159.47741239583334,
          "velocity": 0.8661417322834646
        },
        {
          "duration": 0.00548239583329746,
          "durationTicks": 4,
          "midi": 44,
          "name": "G#2",
          "ticks": 116356,
          "time": 159.47741239583334,
          "velocity": 0.5275590551181102
        },
        {
          "duration": 0.005482395833354303,
          "durationTicks": 4,
          "midi": 39,
          "name": "D#2",
          "ticks": 116360,
          "time": 159.48289479166664,
          "velocity": 0.7480314960629921
        },
        {
          "duration": 0.005482395833354303,
          "durationTicks": 4,
          "midi": 60,
          "name": "C4",
          "ticks": 116448,
          "time": 159.60350749999998,
          "velocity": 0.3858267716535433
        },
        {
          "duration": 0.005482395833354303,
          "durationTicks": 4,
          "midi": 70,
          "name": "A#4",
          "ticks": 116544,
          "time": 159.73508499999997,
          "velocity": 0.7401574803149606
        },
        {
          "duration": 0.005482395833354303,
          "durationTicks": 4,
          "midi": 63,
          "name": "D#4",
          "ticks": 116544,
          "time": 159.73508499999997,
          "velocity": 0.4251968503937008
        },
        {
          "duration": 0.0054823958333258815,
          "durationTicks": 4,
          "midi": 46,
          "name": "A#2",
          "ticks": 116548,
          "time": 159.74056739583332,
          "velocity": 0.49606299212598426
        },
        {
          "duration": 0.005482395833354303,
          "durationTicks": 4,
          "midi": 35,
          "name": "B1",
          "ticks": 116736,
          "time": 159.99823999999998,
          "velocity": 0.8661417322834646
        },
        {
          "duration": 0.005482395833354303,
          "durationTicks": 4,
          "midi": 60,
          "name": "C4",
          "ticks": 116736,
          "time": 159.99823999999998,
          "velocity": 0.4251968503937008
        },
        {
          "duration": 0.00548239583329746,
          "durationTicks": 4,
          "midi": 44,
          "name": "G#2",
          "ticks": 116740,
          "time": 160.00372239583334,
          "velocity": 0.49606299212598426
        },
        {
          "duration": 0.0054823958333258815,
          "durationTicks": 4,
          "midi": 70,
          "name": "A#4",
          "ticks": 116928,
          "time": 160.261395,
          "velocity": 0.7401574803149606
        },
        {
          "duration": 0.0054823958333258815,
          "durationTicks": 4,
          "midi": 46,
          "name": "A#2",
          "ticks": 116932,
          "time": 160.26687739583332,
          "velocity": 0.47244094488188976
        },
        {
          "duration": 0.005482395833354303,
          "durationTicks": 4,
          "midi": 60,
          "name": "C4",
          "ticks": 117024,
          "time": 160.39297249999998,
          "velocity": 0.25984251968503935
        },
        {
          "duration": 0.005482395833354303,
          "durationTicks": 4,
          "midi": 35,
          "name": "B1",
          "ticks": 117120,
          "time": 160.52454999999998,
          "velocity": 0.8661417322834646
        },
        {
          "duration": 0.00548239583329746,
          "durationTicks": 4,
          "midi": 40,
          "name": "E2",
          "ticks": 117124,
          "time": 160.53003239583333,
          "velocity": 0.8661417322834646
        },
        {
          "duration": 0.00548239583329746,
          "durationTicks": 4,
          "midi": 44,
          "name": "G#2",
          "ticks": 117124,
          "time": 160.53003239583333,
          "velocity": 0.49606299212598426
        },
        {
          "duration": 0.005482395833354303,
          "durationTicks": 4,
          "midi": 39,
          "name": "D#2",
          "ticks": 117128,
          "time": 160.53551479166663,
          "velocity": 0.7480314960629921
        },
        {
          "duration": 0.0054823958333258815,
          "durationTicks": 4,
          "midi": 60,
          "name": "C4",
          "ticks": 117216,
          "time": 160.6561275,
          "velocity": 0.28346456692913385
        },
        {
          "duration": 0.0054823958333258815,
          "durationTicks": 4,
          "midi": 70,
          "name": "A#4",
          "ticks": 117312,
          "time": 160.787705,
          "velocity": 0.6141732283464567
        },
        {
          "duration": 0.0054823958333258815,
          "durationTicks": 4,
          "midi": 63,
          "name": "D#4",
          "ticks": 117312,
          "time": 160.787705,
          "velocity": 0.3858267716535433
        },
        {
          "duration": 0.0054823958333258815,
          "durationTicks": 4,
          "midi": 46,
          "name": "A#2",
          "ticks": 117316,
          "time": 160.79318739583331,
          "velocity": 0.4251968503937008
        },
        {
          "duration": 0.005482395833354303,
          "durationTicks": 4,
          "midi": 70,
          "name": "A#4",
          "ticks": 117408,
          "time": 160.91928249999998,
          "velocity": 0.7401574803149606
        },
        {
          "duration": 0.005482395833354303,
          "durationTicks": 4,
          "midi": 35,
          "name": "B1",
          "ticks": 117504,
          "time": 161.05085999999997,
          "velocity": 0.8661417322834646
        },
        {
          "duration": 0.005482395833354303,
          "durationTicks": 4,
          "midi": 60,
          "name": "C4",
          "ticks": 117504,
          "time": 161.05085999999997,
          "velocity": 0.4251968503937008
        },
        {
          "duration": 0.0054823958333258815,
          "durationTicks": 4,
          "midi": 44,
          "name": "G#2",
          "ticks": 117508,
          "time": 161.05634239583333,
          "velocity": 0.49606299212598426
        },
        {
          "duration": 0.005482395833354303,
          "durationTicks": 4,
          "midi": 70,
          "name": "A#4",
          "ticks": 117696,
          "time": 161.31401499999998,
          "velocity": 0.7401574803149606
        },
        {
          "duration": 0.00548239583329746,
          "durationTicks": 4,
          "midi": 46,
          "name": "A#2",
          "ticks": 117700,
          "time": 161.31949739583334,
          "velocity": 0.4251968503937008
        },
        {
          "duration": 0.005482395833354303,
          "durationTicks": 4,
          "midi": 60,
          "name": "C4",
          "ticks": 117792,
          "time": 161.44559249999998,
          "velocity": 0.33858267716535434
        },
        {
          "duration": 0.0054823958333258815,
          "durationTicks": 4,
          "midi": 35,
          "name": "B1",
          "ticks": 117888,
          "time": 161.57717,
          "velocity": 0.8976377952755905
        },
        {
          "duration": 0.0054823958333258815,
          "durationTicks": 4,
          "midi": 40,
          "name": "E2",
          "ticks": 117892,
          "time": 161.58265239583332,
          "velocity": 0.8661417322834646
        },
        {
          "duration": 0.0054823958333258815,
          "durationTicks": 4,
          "midi": 44,
          "name": "G#2",
          "ticks": 117892,
          "time": 161.58265239583332,
          "velocity": 0.49606299212598426
        },
        {
          "duration": 0.0054823958333258815,
          "durationTicks": 4,
          "midi": 39,
          "name": "D#2",
          "ticks": 117896,
          "time": 161.58813479166665,
          "velocity": 0.7480314960629921
        },
        {
          "duration": 0.0054823958333258815,
          "durationTicks": 4,
          "midi": 60,
          "name": "C4",
          "ticks": 117984,
          "time": 161.7087475,
          "velocity": 0.31496062992125984
        },
        {
          "duration": 0.005482395833354303,
          "durationTicks": 4,
          "midi": 70,
          "name": "A#4",
          "ticks": 118080,
          "time": 161.84032499999998,
          "velocity": 0.6141732283464567
        },
        {
          "duration": 0.005482395833354303,
          "durationTicks": 4,
          "midi": 63,
          "name": "D#4",
          "ticks": 118080,
          "time": 161.84032499999998,
          "velocity": 0.3858267716535433
        },
        {
          "duration": 0.00548239583329746,
          "durationTicks": 4,
          "midi": 46,
          "name": "A#2",
          "ticks": 118084,
          "time": 161.84580739583333,
          "velocity": 0.47244094488188976
        },
        {
          "duration": 0.005482395833354303,
          "durationTicks": 4,
          "midi": 70,
          "name": "A#4",
          "ticks": 118176,
          "time": 161.97190249999997,
          "velocity": 0.7795275590551181
        },
        {
          "duration": 0.0054823958333258815,
          "durationTicks": 4,
          "midi": 35,
          "name": "B1",
          "ticks": 118272,
          "time": 162.10348,
          "velocity": 0.8976377952755905
        },
        {
          "duration": 0.0054823958333258815,
          "durationTicks": 4,
          "midi": 69,
          "name": "A4",
          "ticks": 118272,
          "time": 162.10348,
          "velocity": 0.5826771653543307
        },
        {
          "duration": 0.0054823958333258815,
          "durationTicks": 4,
          "midi": 60,
          "name": "C4",
          "ticks": 118272,
          "time": 162.10348,
          "velocity": 0.4251968503937008
        },
        {
          "duration": 0.0054823958333258815,
          "durationTicks": 4,
          "midi": 44,
          "name": "G#2",
          "ticks": 118276,
          "time": 162.10896239583332,
          "velocity": 0.49606299212598426
        },
        {
          "duration": 0.005482395833354303,
          "durationTicks": 4,
          "midi": 69,
          "name": "A4",
          "ticks": 118364,
          "time": 162.22957510416663,
          "velocity": 0.2204724409448819
        },
        {
          "duration": 0.005482395833354303,
          "durationTicks": 4,
          "midi": 69,
          "name": "A4",
          "ticks": 118448,
          "time": 162.34470541666664,
          "velocity": 0.8031496062992126
        },
        {
          "duration": 0.005482395833354303,
          "durationTicks": 4,
          "midi": 70,
          "name": "A#4",
          "ticks": 118464,
          "time": 162.36663499999997,
          "velocity": 0.7401574803149606
        },
        {
          "duration": 0.00548239583329746,
          "durationTicks": 4,
          "midi": 46,
          "name": "A#2",
          "ticks": 118468,
          "time": 162.37211739583333,
          "velocity": 0.5275590551181102
        },
        {
          "duration": 0.005482395833354303,
          "durationTicks": 4,
          "midi": 69,
          "name": "A4",
          "ticks": 118544,
          "time": 162.47628291666663,
          "velocity": 0.8031496062992126
        },
        {
          "duration": 0.0054823958333258815,
          "durationTicks": 4,
          "midi": 60,
          "name": "C4",
          "ticks": 118560,
          "time": 162.4982125,
          "velocity": 0.33858267716535434
        },
        {
          "duration": 0.005482395833354303,
          "durationTicks": 4,
          "midi": 35,
          "name": "B1",
          "ticks": 118656,
          "time": 162.62978999999999,
          "velocity": 0.8976377952755905
        },
        {
          "duration": 0.00548239583329746,
          "durationTicks": 4,
          "midi": 40,
          "name": "E2",
          "ticks": 118660,
          "time": 162.63527239583334,
          "velocity": 0.8976377952755905
        },
        {
          "duration": 0.00548239583329746,
          "durationTicks": 4,
          "midi": 44,
          "name": "G#2",
          "ticks": 118660,
          "time": 162.63527239583334,
          "velocity": 0.5984251968503937
        },
        {
          "duration": 0.005482395833354303,
          "durationTicks": 4,
          "midi": 39,
          "name": "D#2",
          "ticks": 118664,
          "time": 162.64075479166664,
          "velocity": 0.7795275590551181
        },
        {
          "duration": 0.005482395833354303,
          "durationTicks": 4,
          "midi": 60,
          "name": "C4",
          "ticks": 118752,
          "time": 162.76136749999998,
          "velocity": 0.31496062992125984
        },
        {
          "duration": 0.005482395833354303,
          "durationTicks": 4,
          "midi": 70,
          "name": "A#4",
          "ticks": 118848,
          "time": 162.89294499999997,
          "velocity": 0.5669291338582677
        },
        {
          "duration": 0.005482395833354303,
          "durationTicks": 4,
          "midi": 63,
          "name": "D#4",
          "ticks": 118848,
          "time": 162.89294499999997,
          "velocity": 0.31496062992125984
        },
        {
          "duration": 0.0054823958333258815,
          "durationTicks": 4,
          "midi": 70,
          "name": "A#4",
          "ticks": 118944,
          "time": 163.0245225,
          "velocity": 0.6692913385826772
        },
        {
          "duration": 0.005482395833354303,
          "durationTicks": 4,
          "midi": 35,
          "name": "B1",
          "ticks": 119040,
          "time": 163.15609999999998,
          "velocity": 0.8661417322834646
        },
        {
          "duration": 0.005482395833354303,
          "durationTicks": 4,
          "midi": 60,
          "name": "C4",
          "ticks": 119040,
          "time": 163.15609999999998,
          "velocity": 0.4251968503937008
        },
        {
          "duration": 0.0054823958333258815,
          "durationTicks": 4,
          "midi": 70,
          "name": "A#4",
          "ticks": 119232,
          "time": 163.419255,
          "velocity": 0.7401574803149606
        },
        {
          "duration": 0.0054823958333258815,
          "durationTicks": 4,
          "midi": 46,
          "name": "A#2",
          "ticks": 119236,
          "time": 163.42473739583332,
          "velocity": 0.49606299212598426
        },
        {
          "duration": 0.005482395833354303,
          "durationTicks": 4,
          "midi": 60,
          "name": "C4",
          "ticks": 119328,
          "time": 163.55083249999998,
          "velocity": 0.31496062992125984
        },
        {
          "duration": 0.005482395833354303,
          "durationTicks": 4,
          "midi": 35,
          "name": "B1",
          "ticks": 119424,
          "time": 163.68240999999998,
          "velocity": 0.8976377952755905
        },
        {
          "duration": 0.00548239583329746,
          "durationTicks": 4,
          "midi": 40,
          "name": "E2",
          "ticks": 119428,
          "time": 163.68789239583333,
          "velocity": 0.8976377952755905
        },
        {
          "duration": 0.00548239583329746,
          "durationTicks": 4,
          "midi": 44,
          "name": "G#2",
          "ticks": 119428,
          "time": 163.68789239583333,
          "velocity": 0.49606299212598426
        },
        {
          "duration": 0.005482395833354303,
          "durationTicks": 4,
          "midi": 39,
          "name": "D#2",
          "ticks": 119432,
          "time": 163.69337479166663,
          "velocity": 0.7795275590551181
        },
        {
          "duration": 0.0054823958333258815,
          "durationTicks": 4,
          "midi": 60,
          "name": "C4",
          "ticks": 119520,
          "time": 163.8139875,
          "velocity": 0.33858267716535434
        },
        {
          "duration": 0.0054823958333258815,
          "durationTicks": 4,
          "midi": 70,
          "name": "A#4",
          "ticks": 119616,
          "time": 163.945565,
          "velocity": 0.7401574803149606
        },
        {
          "duration": 0.0054823958333258815,
          "durationTicks": 4,
          "midi": 63,
          "name": "D#4",
          "ticks": 119616,
          "time": 163.945565,
          "velocity": 0.4251968503937008
        },
        {
          "duration": 0.0054823958333258815,
          "durationTicks": 4,
          "midi": 46,
          "name": "A#2",
          "ticks": 119620,
          "time": 163.9510473958333,
          "velocity": 0.49606299212598426
        },
        {
          "duration": 0.005482395833354303,
          "durationTicks": 4,
          "midi": 35,
          "name": "B1",
          "ticks": 119808,
          "time": 164.20871999999997,
          "velocity": 0.8976377952755905
        },
        {
          "duration": 0.005482395833354303,
          "durationTicks": 4,
          "midi": 60,
          "name": "C4",
          "ticks": 119808,
          "time": 164.20871999999997,
          "velocity": 0.3858267716535433
        },
        {
          "duration": 0.0054823958333258815,
          "durationTicks": 4,
          "midi": 44,
          "name": "G#2",
          "ticks": 119812,
          "time": 164.21420239583333,
          "velocity": 0.5275590551181102
        },
        {
          "duration": 0.005482395833354303,
          "durationTicks": 4,
          "midi": 70,
          "name": "A#4",
          "ticks": 120000,
          "time": 164.47187499999998,
          "velocity": 0.7795275590551181
        },
        {
          "duration": 0.00548239583329746,
          "durationTicks": 4,
          "midi": 46,
          "name": "A#2",
          "ticks": 120004,
          "time": 164.47735739583334,
          "velocity": 0.49606299212598426
        },
        {
          "duration": 0.005482395833354303,
          "durationTicks": 4,
          "midi": 60,
          "name": "C4",
          "ticks": 120096,
          "time": 164.60345249999997,
          "velocity": 0.31496062992125984
        },
        {
          "duration": 0.0054823958333258815,
          "durationTicks": 4,
          "midi": 35,
          "name": "B1",
          "ticks": 120192,
          "time": 164.73503,
          "velocity": 0.8661417322834646
        },
        {
          "duration": 0.0054823958333258815,
          "durationTicks": 4,
          "midi": 40,
          "name": "E2",
          "ticks": 120196,
          "time": 164.74051239583332,
          "velocity": 0.8976377952755905
        },
        {
          "duration": 0.0054823958333258815,
          "durationTicks": 4,
          "midi": 44,
          "name": "G#2",
          "ticks": 120196,
          "time": 164.74051239583332,
          "velocity": 0.49606299212598426
        },
        {
          "duration": 0.0054823958333258815,
          "durationTicks": 4,
          "midi": 39,
          "name": "D#2",
          "ticks": 120200,
          "time": 164.74599479166665,
          "velocity": 0.7795275590551181
        },
        {
          "duration": 0.0054823958333258815,
          "durationTicks": 4,
          "midi": 60,
          "name": "C4",
          "ticks": 120288,
          "time": 164.8666075,
          "velocity": 0.33858267716535434
        },
        {
          "duration": 0.005482395833354303,
          "durationTicks": 4,
          "midi": 70,
          "name": "A#4",
          "ticks": 120384,
          "time": 164.99818499999998,
          "velocity": 0.6141732283464567
        },
        {
          "duration": 0.005482395833354303,
          "durationTicks": 4,
          "midi": 63,
          "name": "D#4",
          "ticks": 120384,
          "time": 164.99818499999998,
          "velocity": 0.31496062992125984
        },
        {
          "duration": 0.00548239583329746,
          "durationTicks": 4,
          "midi": 46,
          "name": "A#2",
          "ticks": 120388,
          "time": 165.00366739583333,
          "velocity": 0.49606299212598426
        },
        {
          "duration": 0.005482395833354303,
          "durationTicks": 4,
          "midi": 70,
          "name": "A#4",
          "ticks": 120480,
          "time": 165.12976249999997,
          "velocity": 0.6692913385826772
        },
        {
          "duration": 0.0054823958333258815,
          "durationTicks": 4,
          "midi": 35,
          "name": "B1",
          "ticks": 120576,
          "time": 165.26134,
          "velocity": 0.8976377952755905
        },
        {
          "duration": 0.0054823958333258815,
          "durationTicks": 4,
          "midi": 60,
          "name": "C4",
          "ticks": 120576,
          "time": 165.26134,
          "velocity": 0.3858267716535433
        },
        {
          "duration": 0.0054823958333258815,
          "durationTicks": 4,
          "midi": 44,
          "name": "G#2",
          "ticks": 120580,
          "time": 165.26682239583332,
          "velocity": 0.49606299212598426
        },
        {
          "duration": 0.00548239583329746,
          "durationTicks": 4,
          "midi": 40,
          "name": "E2",
          "ticks": 120676,
          "time": 165.39839989583334,
          "velocity": 0.8661417322834646
        },
        {
          "duration": 0.005482395833354303,
          "durationTicks": 4,
          "midi": 39,
          "name": "D#2",
          "ticks": 120680,
          "time": 165.40388229166663,
          "velocity": 0.7480314960629921
        },
        {
          "duration": 0.005482395833354303,
          "durationTicks": 4,
          "midi": 70,
          "name": "A#4",
          "ticks": 120768,
          "time": 165.52449499999997,
          "velocity": 0.7795275590551181
        },
        {
          "duration": 0.00548239583329746,
          "durationTicks": 4,
          "midi": 46,
          "name": "A#2",
          "ticks": 120772,
          "time": 165.52997739583333,
          "velocity": 0.49606299212598426
        },
        {
          "duration": 0.0054823958333258815,
          "durationTicks": 4,
          "midi": 60,
          "name": "C4",
          "ticks": 120864,
          "time": 165.6560725,
          "velocity": 0.31496062992125984
        },
        {
          "duration": 0.005482395833354303,
          "durationTicks": 4,
          "midi": 35,
          "name": "B1",
          "ticks": 120960,
          "time": 165.78764999999999,
          "velocity": 0.8976377952755905
        },
        {
          "duration": 0.00548239583329746,
          "durationTicks": 4,
          "midi": 40,
          "name": "E2",
          "ticks": 120964,
          "time": 165.79313239583334,
          "velocity": 0.8976377952755905
        },
        {
          "duration": 0.00548239583329746,
          "durationTicks": 4,
          "midi": 44,
          "name": "G#2",
          "ticks": 120964,
          "time": 165.79313239583334,
          "velocity": 0.5275590551181102
        },
        {
          "duration": 0.005482395833354303,
          "durationTicks": 4,
          "midi": 39,
          "name": "D#2",
          "ticks": 120968,
          "time": 165.79861479166664,
          "velocity": 0.7795275590551181
        },
        {
          "duration": 0.005482395833354303,
          "durationTicks": 4,
          "midi": 60,
          "name": "C4",
          "ticks": 121056,
          "time": 165.91922749999998,
          "velocity": 0.31496062992125984
        },
        {
          "duration": 0.005482395833354303,
          "durationTicks": 4,
          "midi": 70,
          "name": "A#4",
          "ticks": 121152,
          "time": 166.05080499999997,
          "velocity": 0.6377952755905512
        },
        {
          "duration": 0.005482395833354303,
          "durationTicks": 4,
          "midi": 63,
          "name": "D#4",
          "ticks": 121152,
          "time": 166.05080499999997,
          "velocity": 0.3858267716535433
        },
        {
          "duration": 0.0054823958333258815,
          "durationTicks": 4,
          "midi": 46,
          "name": "A#2",
          "ticks": 121156,
          "time": 166.05628739583332,
          "velocity": 0.5275590551181102
        },
        {
          "duration": 0.0054823958333258815,
          "durationTicks": 4,
          "midi": 70,
          "name": "A#4",
          "ticks": 121248,
          "time": 166.1823825,
          "velocity": 0.7795275590551181
        },
        {
          "duration": 0.0054823958333258815,
          "durationTicks": 4,
          "midi": 40,
          "name": "E2",
          "ticks": 121252,
          "time": 166.18786489583331,
          "velocity": 0.8661417322834646
        },
        {
          "duration": 0.005482395833354303,
          "durationTicks": 4,
          "midi": 39,
          "name": "D#2",
          "ticks": 121256,
          "time": 166.19334729166664,
          "velocity": 0.7480314960629921
        },
        {
          "duration": 0.005482395833354303,
          "durationTicks": 4,
          "midi": 35,
          "name": "B1",
          "ticks": 121344,
          "time": 166.31395999999998,
          "velocity": 0.8661417322834646
        },
        {
          "duration": 0.005482395833354303,
          "durationTicks": 4,
          "midi": 69,
          "name": "A4",
          "ticks": 121344,
          "time": 166.31395999999998,
          "velocity": 0.5826771653543307
        },
        {
          "duration": 0.005482395833354303,
          "durationTicks": 4,
          "midi": 60,
          "name": "C4",
          "ticks": 121344,
          "time": 166.31395999999998,
          "velocity": 0.4251968503937008
        },
        {
          "duration": 0.00548239583329746,
          "durationTicks": 4,
          "midi": 44,
          "name": "G#2",
          "ticks": 121348,
          "time": 166.31944239583333,
          "velocity": 0.5984251968503937
        },
        {
          "duration": 0.0054823958333258815,
          "durationTicks": 4,
          "midi": 69,
          "name": "A4",
          "ticks": 121436,
          "time": 166.44005510416665,
          "velocity": 0.2204724409448819
        },
        {
          "duration": 0.005482395833354303,
          "durationTicks": 4,
          "midi": 69,
          "name": "A4",
          "ticks": 121520,
          "time": 166.55518541666663,
          "velocity": 0.8031496062992126
        },
        {
          "duration": 0.0054823958333258815,
          "durationTicks": 4,
          "midi": 70,
          "name": "A#4",
          "ticks": 121536,
          "time": 166.577115,
          "velocity": 0.7795275590551181
        },
        {
          "duration": 0.0054823958333258815,
          "durationTicks": 4,
          "midi": 46,
          "name": "A#2",
          "ticks": 121540,
          "time": 166.58259739583332,
          "velocity": 0.49606299212598426
        },
        {
          "duration": 0.0054823958333258815,
          "durationTicks": 4,
          "midi": 69,
          "name": "A4",
          "ticks": 121616,
          "time": 166.68676291666665,
          "velocity": 0.8031496062992126
        },
        {
          "duration": 0.005482395833354303,
          "durationTicks": 4,
          "midi": 60,
          "name": "C4",
          "ticks": 121632,
          "time": 166.70869249999998,
          "velocity": 0.4251968503937008
        },
        {
          "duration": 0.005482395833354303,
          "durationTicks": 4,
          "midi": 35,
          "name": "B1",
          "ticks": 121728,
          "time": 166.84026999999998,
          "velocity": 0.8976377952755905
        },
        {
          "duration": 0.00548239583329746,
          "durationTicks": 4,
          "midi": 40,
          "name": "E2",
          "ticks": 121732,
          "time": 166.84575239583333,
          "velocity": 0.8661417322834646
        },
        {
          "duration": 0.00548239583329746,
          "durationTicks": 4,
          "midi": 44,
          "name": "G#2",
          "ticks": 121732,
          "time": 166.84575239583333,
          "velocity": 0.47244094488188976
        },
        {
          "duration": 0.005482395833354303,
          "durationTicks": 4,
          "midi": 39,
          "name": "D#2",
          "ticks": 121736,
          "time": 166.85123479166663,
          "velocity": 0.7480314960629921
        },
        {
          "duration": 0.0054823958333258815,
          "durationTicks": 4,
          "midi": 60,
          "name": "C4",
          "ticks": 121824,
          "time": 166.9718475,
          "velocity": 0.33858267716535434
        },
        {
          "duration": 0.0054823958333258815,
          "durationTicks": 4,
          "midi": 70,
          "name": "A#4",
          "ticks": 121920,
          "time": 167.103425,
          "velocity": 0.6377952755905512
        },
        {
          "duration": 0.0054823958333258815,
          "durationTicks": 4,
          "midi": 63,
          "name": "D#4",
          "ticks": 121920,
          "time": 167.103425,
          "velocity": 0.3858267716535433
        },
        {
          "duration": 0.005482395833354303,
          "durationTicks": 4,
          "midi": 70,
          "name": "A#4",
          "ticks": 122016,
          "time": 167.23500249999998,
          "velocity": 0.7795275590551181
        },
        {
          "duration": 0.005482395833354303,
          "durationTicks": 4,
          "midi": 35,
          "name": "B1",
          "ticks": 122112,
          "time": 167.36657999999997,
          "velocity": 0.8661417322834646
        },
        {
          "duration": 0.005482395833354303,
          "durationTicks": 4,
          "midi": 60,
          "name": "C4",
          "ticks": 122112,
          "time": 167.36657999999997,
          "velocity": 0.4251968503937008
        },
        {
          "duration": 0.005482395833354303,
          "durationTicks": 4,
          "midi": 70,
          "name": "A#4",
          "ticks": 122304,
          "time": 167.62973499999998,
          "velocity": 0.7401574803149606
        },
        {
          "duration": 0.00548239583329746,
          "durationTicks": 4,
          "midi": 46,
          "name": "A#2",
          "ticks": 122308,
          "time": 167.63521739583334,
          "velocity": 0.5275590551181102
        },
        {
          "duration": 0.005482395833354303,
          "durationTicks": 4,
          "midi": 60,
          "name": "C4",
          "ticks": 122400,
          "time": 167.76131249999997,
          "velocity": 0.33858267716535434
        },
        {
          "duration": 0.0054823958333258815,
          "durationTicks": 4,
          "midi": 35,
          "name": "B1",
          "ticks": 122496,
          "time": 167.89289,
          "velocity": 0.8976377952755905
        },
        {
          "duration": 0.0054823958333258815,
          "durationTicks": 4,
          "midi": 40,
          "name": "E2",
          "ticks": 122500,
          "time": 167.89837239583332,
          "velocity": 0.8661417322834646
        },
        {
          "duration": 0.0054823958333258815,
          "durationTicks": 4,
          "midi": 44,
          "name": "G#2",
          "ticks": 122500,
          "time": 167.89837239583332,
          "velocity": 0.5275590551181102
        },
        {
          "duration": 0.0054823958333258815,
          "durationTicks": 4,
          "midi": 39,
          "name": "D#2",
          "ticks": 122504,
          "time": 167.90385479166665,
          "velocity": 0.7480314960629921
        },
        {
          "duration": 0.0054823958333258815,
          "durationTicks": 4,
          "midi": 60,
          "name": "C4",
          "ticks": 122592,
          "time": 168.0244675,
          "velocity": 0.3858267716535433
        },
        {
          "duration": 0.005482395833354303,
          "durationTicks": 4,
          "midi": 70,
          "name": "A#4",
          "ticks": 122688,
          "time": 168.15604499999998,
          "velocity": 0.7401574803149606
        },
        {
          "duration": 0.005482395833354303,
          "durationTicks": 4,
          "midi": 63,
          "name": "D#4",
          "ticks": 122688,
          "time": 168.15604499999998,
          "velocity": 0.4251968503937008
        },
        {
          "duration": 0.00548239583329746,
          "durationTicks": 4,
          "midi": 46,
          "name": "A#2",
          "ticks": 122692,
          "time": 168.16152739583333,
          "velocity": 0.49606299212598426
        },
        {
          "duration": 0.0054823958333258815,
          "durationTicks": 4,
          "midi": 35,
          "name": "B1",
          "ticks": 122880,
          "time": 168.4192,
          "velocity": 0.8661417322834646
        },
        {
          "duration": 0.0054823958333258815,
          "durationTicks": 4,
          "midi": 60,
          "name": "C4",
          "ticks": 122880,
          "time": 168.4192,
          "velocity": 0.4251968503937008
        },
        {
          "duration": 0.0054823958333258815,
          "durationTicks": 4,
          "midi": 44,
          "name": "G#2",
          "ticks": 122884,
          "time": 168.42468239583332,
          "velocity": 0.49606299212598426
        },
        {
          "duration": 0.005482395833354303,
          "durationTicks": 4,
          "midi": 70,
          "name": "A#4",
          "ticks": 123072,
          "time": 168.68235499999997,
          "velocity": 0.7401574803149606
        },
        {
          "duration": 0.0054823958333258815,
          "durationTicks": 4,
          "midi": 46,
          "name": "A#2",
          "ticks": 123076,
          "time": 168.68783739583333,
          "velocity": 0.47244094488188976
        },
        {
          "duration": 0.0054823958333258815,
          "durationTicks": 4,
          "midi": 60,
          "name": "C4",
          "ticks": 123168,
          "time": 168.8139325,
          "velocity": 0.25984251968503935
        },
        {
          "duration": 0.005482395833354303,
          "durationTicks": 4,
          "midi": 35,
          "name": "B1",
          "ticks": 123264,
          "time": 168.94550999999998,
          "velocity": 0.8661417322834646
        },
        {
          "duration": 0.00548239583329746,
          "durationTicks": 4,
          "midi": 40,
          "name": "E2",
          "ticks": 123268,
          "time": 168.95099239583334,
          "velocity": 0.8661417322834646
        },
        {
          "duration": 0.00548239583329746,
          "durationTicks": 4,
          "midi": 44,
          "name": "G#2",
          "ticks": 123268,
          "time": 168.95099239583334,
          "velocity": 0.49606299212598426
        },
        {
          "duration": 0.005482395833354303,
          "durationTicks": 4,
          "midi": 39,
          "name": "D#2",
          "ticks": 123272,
          "time": 168.95647479166664,
          "velocity": 0.7480314960629921
        },
        {
          "duration": 0.005482395833354303,
          "durationTicks": 4,
          "midi": 60,
          "name": "C4",
          "ticks": 123360,
          "time": 169.07708749999998,
          "velocity": 0.28346456692913385
        },
        {
          "duration": 0.0054823958333258815,
          "durationTicks": 4,
          "midi": 70,
          "name": "A#4",
          "ticks": 123456,
          "time": 169.208665,
          "velocity": 0.6141732283464567
        },
        {
          "duration": 0.0054823958333258815,
          "durationTicks": 4,
          "midi": 63,
          "name": "D#4",
          "ticks": 123456,
          "time": 169.208665,
          "velocity": 0.3858267716535433
        },
        {
          "duration": 0.0054823958333258815,
          "durationTicks": 4,
          "midi": 46,
          "name": "A#2",
          "ticks": 123460,
          "time": 169.21414739583332,
          "velocity": 0.4251968503937008
        },
        {
          "duration": 0.0054823958333258815,
          "durationTicks": 4,
          "midi": 70,
          "name": "A#4",
          "ticks": 123552,
          "time": 169.3402425,
          "velocity": 0.7401574803149606
        },
        {
          "duration": 0.005482395833354303,
          "durationTicks": 4,
          "midi": 35,
          "name": "B1",
          "ticks": 123648,
          "time": 169.47181999999998,
          "velocity": 0.8661417322834646
        },
        {
          "duration": 0.005482395833354303,
          "durationTicks": 4,
          "midi": 60,
          "name": "C4",
          "ticks": 123648,
          "time": 169.47181999999998,
          "velocity": 0.4251968503937008
        },
        {
          "duration": 0.00548239583329746,
          "durationTicks": 4,
          "midi": 44,
          "name": "G#2",
          "ticks": 123652,
          "time": 169.47730239583333,
          "velocity": 0.49606299212598426
        },
        {
          "duration": 0.0054823958333258815,
          "durationTicks": 4,
          "midi": 70,
          "name": "A#4",
          "ticks": 123840,
          "time": 169.734975,
          "velocity": 0.7401574803149606
        },
        {
          "duration": 0.0054823958333258815,
          "durationTicks": 4,
          "midi": 46,
          "name": "A#2",
          "ticks": 123844,
          "time": 169.74045739583332,
          "velocity": 0.4251968503937008
        },
        {
          "duration": 0.005482395833354303,
          "durationTicks": 4,
          "midi": 60,
          "name": "C4",
          "ticks": 123936,
          "time": 169.86655249999998,
          "velocity": 0.33858267716535434
        },
        {
          "duration": 0.005482395833354303,
          "durationTicks": 4,
          "midi": 35,
          "name": "B1",
          "ticks": 124032,
          "time": 169.99812999999997,
          "velocity": 0.8976377952755905
        },
        {
          "duration": 0.00548239583329746,
          "durationTicks": 4,
          "midi": 40,
          "name": "E2",
          "ticks": 124036,
          "time": 170.00361239583333,
          "velocity": 0.8661417322834646
        },
        {
          "duration": 0.00548239583329746,
          "durationTicks": 4,
          "midi": 44,
          "name": "G#2",
          "ticks": 124036,
          "time": 170.00361239583333,
          "velocity": 0.49606299212598426
        },
        {
          "duration": 0.005482395833354303,
          "durationTicks": 4,
          "midi": 39,
          "name": "D#2",
          "ticks": 124040,
          "time": 170.00909479166663,
          "velocity": 0.7480314960629921
        },
        {
          "duration": 0.0054823958333258815,
          "durationTicks": 4,
          "midi": 60,
          "name": "C4",
          "ticks": 124128,
          "time": 170.1297075,
          "velocity": 0.31496062992125984
        },
        {
          "duration": 0.0054823958333258815,
          "durationTicks": 4,
          "midi": 70,
          "name": "A#4",
          "ticks": 124224,
          "time": 170.261285,
          "velocity": 0.6141732283464567
        },
        {
          "duration": 0.0054823958333258815,
          "durationTicks": 4,
          "midi": 63,
          "name": "D#4",
          "ticks": 124224,
          "time": 170.261285,
          "velocity": 0.3858267716535433
        },
        {
          "duration": 0.0054823958333258815,
          "durationTicks": 4,
          "midi": 46,
          "name": "A#2",
          "ticks": 124228,
          "time": 170.2667673958333,
          "velocity": 0.47244094488188976
        },
        {
          "duration": 0.005482395833354303,
          "durationTicks": 4,
          "midi": 70,
          "name": "A#4",
          "ticks": 124320,
          "time": 170.39286249999998,
          "velocity": 0.7795275590551181
        },
        {
          "duration": 0.005482395833354303,
          "durationTicks": 4,
          "midi": 35,
          "name": "B1",
          "ticks": 124416,
          "time": 170.52443999999997,
          "velocity": 0.8976377952755905
        },
        {
          "duration": 0.005482395833354303,
          "durationTicks": 4,
          "midi": 69,
          "name": "A4",
          "ticks": 124416,
          "time": 170.52443999999997,
          "velocity": 0.5826771653543307
        },
        {
          "duration": 0.005482395833354303,
          "durationTicks": 4,
          "midi": 60,
          "name": "C4",
          "ticks": 124416,
          "time": 170.52443999999997,
          "velocity": 0.4251968503937008
        },
        {
          "duration": 0.0054823958333258815,
          "durationTicks": 4,
          "midi": 44,
          "name": "G#2",
          "ticks": 124420,
          "time": 170.52992239583332,
          "velocity": 0.49606299212598426
        },
        {
          "duration": 0.005482395833354303,
          "durationTicks": 4,
          "midi": 69,
          "name": "A4",
          "ticks": 124508,
          "time": 170.65053510416664,
          "velocity": 0.2204724409448819
        },
        {
          "duration": 0.0054823958333258815,
          "durationTicks": 4,
          "midi": 69,
          "name": "A4",
          "ticks": 124592,
          "time": 170.76566541666665,
          "velocity": 0.8031496062992126
        },
        {
          "duration": 0.005482395833354303,
          "durationTicks": 4,
          "midi": 70,
          "name": "A#4",
          "ticks": 124608,
          "time": 170.78759499999998,
          "velocity": 0.7401574803149606
        },
        {
          "duration": 0.00548239583329746,
          "durationTicks": 4,
          "midi": 46,
          "name": "A#2",
          "ticks": 124612,
          "time": 170.79307739583334,
          "velocity": 0.5275590551181102
        },
        {
          "duration": 0.005482395833354303,
          "durationTicks": 4,
          "midi": 69,
          "name": "A4",
          "ticks": 124688,
          "time": 170.89724291666664,
          "velocity": 0.8031496062992126
        },
        {
          "duration": 0.005482395833354303,
          "durationTicks": 4,
          "midi": 60,
          "name": "C4",
          "ticks": 124704,
          "time": 170.91917249999997,
          "velocity": 0.33858267716535434
        },
        {
          "duration": 0.0054823958333258815,
          "durationTicks": 4,
          "midi": 35,
          "name": "B1",
          "ticks": 124800,
          "time": 171.05075,
          "velocity": 0.8976377952755905
        },
        {
          "duration": 0.0054823958333258815,
          "durationTicks": 4,
          "midi": 40,
          "name": "E2",
          "ticks": 124804,
          "time": 171.05623239583332,
          "velocity": 0.8976377952755905
        },
        {
          "duration": 0.0054823958333258815,
          "durationTicks": 4,
          "midi": 44,
          "name": "G#2",
          "ticks": 124804,
          "time": 171.05623239583332,
          "velocity": 0.5984251968503937
        },
        {
          "duration": 0.0054823958333258815,
          "durationTicks": 4,
          "midi": 39,
          "name": "D#2",
          "ticks": 124808,
          "time": 171.06171479166665,
          "velocity": 0.7795275590551181
        },
        {
          "duration": 0.0054823958333258815,
          "durationTicks": 4,
          "midi": 60,
          "name": "C4",
          "ticks": 124896,
          "time": 171.18232749999999,
          "velocity": 0.31496062992125984
        },
        {
          "duration": 0.005482395833354303,
          "durationTicks": 4,
          "midi": 70,
          "name": "A#4",
          "ticks": 124992,
          "time": 171.31390499999998,
          "velocity": 0.5669291338582677
        },
        {
          "duration": 0.005482395833354303,
          "durationTicks": 4,
          "midi": 63,
          "name": "D#4",
          "ticks": 124992,
          "time": 171.31390499999998,
          "velocity": 0.31496062992125984
        },
        {
          "duration": 0.005482395833354303,
          "durationTicks": 4,
          "midi": 70,
          "name": "A#4",
          "ticks": 125088,
          "time": 171.44548249999997,
          "velocity": 0.6692913385826772
        },
        {
          "duration": 0.0054823958333258815,
          "durationTicks": 4,
          "midi": 35,
          "name": "B1",
          "ticks": 125184,
          "time": 171.57706,
          "velocity": 0.8661417322834646
        },
        {
          "duration": 0.0054823958333258815,
          "durationTicks": 4,
          "midi": 60,
          "name": "C4",
          "ticks": 125184,
          "time": 171.57706,
          "velocity": 0.4251968503937008
        },
        {
          "duration": 0.005482395833354303,
          "durationTicks": 4,
          "midi": 70,
          "name": "A#4",
          "ticks": 125376,
          "time": 171.84021499999997,
          "velocity": 0.7401574803149606
        },
        {
          "duration": 0.0054823958333258815,
          "durationTicks": 4,
          "midi": 46,
          "name": "A#2",
          "ticks": 125380,
          "time": 171.84569739583333,
          "velocity": 0.49606299212598426
        },
        {
          "duration": 0.0054823958333258815,
          "durationTicks": 4,
          "midi": 60,
          "name": "C4",
          "ticks": 125472,
          "time": 171.9717925,
          "velocity": 0.31496062992125984
        },
        {
          "duration": 0.005482395833354303,
          "durationTicks": 4,
          "midi": 35,
          "name": "B1",
          "ticks": 125568,
          "time": 172.10336999999998,
          "velocity": 0.8976377952755905
        },
        {
          "duration": 0.00548239583329746,
          "durationTicks": 4,
          "midi": 40,
          "name": "E2",
          "ticks": 125572,
          "time": 172.10885239583334,
          "velocity": 0.8976377952755905
        },
        {
          "duration": 0.00548239583329746,
          "durationTicks": 4,
          "midi": 44,
          "name": "G#2",
          "ticks": 125572,
          "time": 172.10885239583334,
          "velocity": 0.49606299212598426
        },
        {
          "duration": 0.005482395833354303,
          "durationTicks": 4,
          "midi": 39,
          "name": "D#2",
          "ticks": 125576,
          "time": 172.11433479166664,
          "velocity": 0.7795275590551181
        },
        {
          "duration": 0.005482395833354303,
          "durationTicks": 4,
          "midi": 60,
          "name": "C4",
          "ticks": 125664,
          "time": 172.23494749999998,
          "velocity": 0.33858267716535434
        },
        {
          "duration": 0.0054823958333258815,
          "durationTicks": 4,
          "midi": 70,
          "name": "A#4",
          "ticks": 125760,
          "time": 172.366525,
          "velocity": 0.7401574803149606
        },
        {
          "duration": 0.0054823958333258815,
          "durationTicks": 4,
          "midi": 63,
          "name": "D#4",
          "ticks": 125760,
          "time": 172.366525,
          "velocity": 0.4251968503937008
        },
        {
          "duration": 0.0054823958333258815,
          "durationTicks": 4,
          "midi": 46,
          "name": "A#2",
          "ticks": 125764,
          "time": 172.37200739583332,
          "velocity": 0.49606299212598426
        },
        {
          "duration": 0.005482395833354303,
          "durationTicks": 4,
          "midi": 35,
          "name": "B1",
          "ticks": 125952,
          "time": 172.62967999999998,
          "velocity": 0.8976377952755905
        },
        {
          "duration": 0.005482395833354303,
          "durationTicks": 4,
          "midi": 60,
          "name": "C4",
          "ticks": 125952,
          "time": 172.62967999999998,
          "velocity": 0.3858267716535433
        },
        {
          "duration": 0.00548239583329746,
          "durationTicks": 4,
          "midi": 44,
          "name": "G#2",
          "ticks": 125956,
          "time": 172.63516239583333,
          "velocity": 0.5275590551181102
        },
        {
          "duration": 0.0054823958333258815,
          "durationTicks": 4,
          "midi": 70,
          "name": "A#4",
          "ticks": 126144,
          "time": 172.892835,
          "velocity": 0.7795275590551181
        },
        {
          "duration": 0.0054823958333258815,
          "durationTicks": 4,
          "midi": 46,
          "name": "A#2",
          "ticks": 126148,
          "time": 172.89831739583332,
          "velocity": 0.49606299212598426
        },
        {
          "duration": 0.005482395833354303,
          "durationTicks": 4,
          "midi": 60,
          "name": "C4",
          "ticks": 126240,
          "time": 173.02441249999998,
          "velocity": 0.31496062992125984
        },
        {
          "duration": 0.005482395833354303,
          "durationTicks": 4,
          "midi": 35,
          "name": "B1",
          "ticks": 126336,
          "time": 173.15598999999997,
          "velocity": 0.8661417322834646
        },
        {
          "duration": 0.00548239583329746,
          "durationTicks": 4,
          "midi": 40,
          "name": "E2",
          "ticks": 126340,
          "time": 173.16147239583333,
          "velocity": 0.8976377952755905
        },
        {
          "duration": 0.00548239583329746,
          "durationTicks": 4,
          "midi": 44,
          "name": "G#2",
          "ticks": 126340,
          "time": 173.16147239583333,
          "velocity": 0.49606299212598426
        },
        {
          "duration": 0.005482395833354303,
          "durationTicks": 4,
          "midi": 39,
          "name": "D#2",
          "ticks": 126344,
          "time": 173.16695479166663,
          "velocity": 0.7795275590551181
        },
        {
          "duration": 0.0054823958333258815,
          "durationTicks": 4,
          "midi": 60,
          "name": "C4",
          "ticks": 126432,
          "time": 173.2875675,
          "velocity": 0.33858267716535434
        },
        {
          "duration": 0.0054823958333258815,
          "durationTicks": 4,
          "midi": 70,
          "name": "A#4",
          "ticks": 126528,
          "time": 173.419145,
          "velocity": 0.6141732283464567
        },
        {
          "duration": 0.0054823958333258815,
          "durationTicks": 4,
          "midi": 63,
          "name": "D#4",
          "ticks": 126528,
          "time": 173.419145,
          "velocity": 0.31496062992125984
        },
        {
          "duration": 0.0054823958333258815,
          "durationTicks": 4,
          "midi": 46,
          "name": "A#2",
          "ticks": 126532,
          "time": 173.4246273958333,
          "velocity": 0.49606299212598426
        },
        {
          "duration": 0.005482395833354303,
          "durationTicks": 4,
          "midi": 70,
          "name": "A#4",
          "ticks": 126624,
          "time": 173.55072249999998,
          "velocity": 0.6692913385826772
        },
        {
          "duration": 0.005482395833354303,
          "durationTicks": 4,
          "midi": 35,
          "name": "B1",
          "ticks": 126720,
          "time": 173.68229999999997,
          "velocity": 0.8976377952755905
        },
        {
          "duration": 0.005482395833354303,
          "durationTicks": 4,
          "midi": 60,
          "name": "C4",
          "ticks": 126720,
          "time": 173.68229999999997,
          "velocity": 0.3858267716535433
        },
        {
          "duration": 0.0054823958333258815,
          "durationTicks": 4,
          "midi": 44,
          "name": "G#2",
          "ticks": 126724,
          "time": 173.68778239583332,
          "velocity": 0.49606299212598426
        },
        {
          "duration": 0.005482395833354303,
          "durationTicks": 4,
          "midi": 70,
          "name": "A#4",
          "ticks": 126912,
          "time": 173.94545499999998,
          "velocity": 0.7795275590551181
        },
        {
          "duration": 0.00548239583329746,
          "durationTicks": 4,
          "midi": 46,
          "name": "A#2",
          "ticks": 126916,
          "time": 173.95093739583334,
          "velocity": 0.49606299212598426
        },
        {
          "duration": 0.005482395833354303,
          "durationTicks": 4,
          "midi": 60,
          "name": "C4",
          "ticks": 127008,
          "time": 174.07703249999997,
          "velocity": 0.31496062992125984
        },
        {
          "duration": 0.0054823958333258815,
          "durationTicks": 4,
          "midi": 35,
          "name": "B1",
          "ticks": 127104,
          "time": 174.20861,
          "velocity": 0.8976377952755905
        },
        {
          "duration": 0.0054823958333258815,
          "durationTicks": 4,
          "midi": 40,
          "name": "E2",
          "ticks": 127108,
          "time": 174.21409239583332,
          "velocity": 0.8976377952755905
        },
        {
          "duration": 0.0054823958333258815,
          "durationTicks": 4,
          "midi": 44,
          "name": "G#2",
          "ticks": 127108,
          "time": 174.21409239583332,
          "velocity": 0.5275590551181102
        },
        {
          "duration": 0.0054823958333258815,
          "durationTicks": 4,
          "midi": 39,
          "name": "D#2",
          "ticks": 127112,
          "time": 174.21957479166664,
          "velocity": 0.7795275590551181
        },
        {
          "duration": 0.005482395833354303,
          "durationTicks": 4,
          "midi": 60,
          "name": "C4",
          "ticks": 127200,
          "time": 174.34018749999998,
          "velocity": 0.31496062992125984
        },
        {
          "duration": 0.005482395833354303,
          "durationTicks": 4,
          "midi": 70,
          "name": "A#4",
          "ticks": 127296,
          "time": 174.47176499999998,
          "velocity": 0.6377952755905512
        },
        {
          "duration": 0.005482395833354303,
          "durationTicks": 4,
          "midi": 63,
          "name": "D#4",
          "ticks": 127296,
          "time": 174.47176499999998,
          "velocity": 0.3858267716535433
        },
        {
          "duration": 0.00548239583329746,
          "durationTicks": 4,
          "midi": 46,
          "name": "A#2",
          "ticks": 127300,
          "time": 174.47724739583333,
          "velocity": 0.5275590551181102
        },
        {
          "duration": 0.005482395833354303,
          "durationTicks": 4,
          "midi": 70,
          "name": "A#4",
          "ticks": 127392,
          "time": 174.60334249999997,
          "velocity": 0.7795275590551181
        },
        {
          "duration": 0.0054823958333258815,
          "durationTicks": 4,
          "midi": 35,
          "name": "B1",
          "ticks": 127488,
          "time": 174.73492,
          "velocity": 0.8661417322834646
        },
        {
          "duration": 0.0054823958333258815,
          "durationTicks": 4,
          "midi": 69,
          "name": "A4",
          "ticks": 127488,
          "time": 174.73492,
          "velocity": 0.5826771653543307
        },
        {
          "duration": 0.0054823958333258815,
          "durationTicks": 4,
          "midi": 60,
          "name": "C4",
          "ticks": 127488,
          "time": 174.73492,
          "velocity": 0.4251968503937008
        },
        {
          "duration": 0.0054823958333258815,
          "durationTicks": 4,
          "midi": 44,
          "name": "G#2",
          "ticks": 127492,
          "time": 174.7404023958333,
          "velocity": 0.5984251968503937
        },
        {
          "duration": 0.005482395833354303,
          "durationTicks": 4,
          "midi": 69,
          "name": "A4",
          "ticks": 127580,
          "time": 174.86101510416663,
          "velocity": 0.2204724409448819
        },
        {
          "duration": 0.005482395833354303,
          "durationTicks": 4,
          "midi": 69,
          "name": "A4",
          "ticks": 127664,
          "time": 174.97614541666664,
          "velocity": 0.8031496062992126
        },
        {
          "duration": 0.005482395833354303,
          "durationTicks": 4,
          "midi": 70,
          "name": "A#4",
          "ticks": 127680,
          "time": 174.99807499999997,
          "velocity": 0.7795275590551181
        },
        {
          "duration": 0.0054823958333258815,
          "durationTicks": 4,
          "midi": 46,
          "name": "A#2",
          "ticks": 127684,
          "time": 175.00355739583333,
          "velocity": 0.49606299212598426
        },
        {
          "duration": 0.005482395833354303,
          "durationTicks": 4,
          "midi": 69,
          "name": "A4",
          "ticks": 127760,
          "time": 175.10772291666663,
          "velocity": 0.8031496062992126
        },
        {
          "duration": 0.0054823958333258815,
          "durationTicks": 4,
          "midi": 60,
          "name": "C4",
          "ticks": 127776,
          "time": 175.1296525,
          "velocity": 0.4251968503937008
        },
        {
          "duration": 0.005482395833354303,
          "durationTicks": 4,
          "midi": 35,
          "name": "B1",
          "ticks": 127872,
          "time": 175.26122999999998,
          "velocity": 0.8976377952755905
        },
        {
          "duration": 0.00548239583329746,
          "durationTicks": 4,
          "midi": 40,
          "name": "E2",
          "ticks": 127876,
          "time": 175.26671239583334,
          "velocity": 0.8661417322834646
        },
        {
          "duration": 0.00548239583329746,
          "durationTicks": 4,
          "midi": 44,
          "name": "G#2",
          "ticks": 127876,
          "time": 175.26671239583334,
          "velocity": 0.47244094488188976
        },
        {
          "duration": 0.005482395833354303,
          "durationTicks": 4,
          "midi": 39,
          "name": "D#2",
          "ticks": 127880,
          "time": 175.27219479166664,
          "velocity": 0.7480314960629921
        },
        {
          "duration": 0.005482395833354303,
          "durationTicks": 4,
          "midi": 60,
          "name": "C4",
          "ticks": 127968,
          "time": 175.39280749999998,
          "velocity": 0.33858267716535434
        },
        {
          "duration": 0.0054823958333258815,
          "durationTicks": 4,
          "midi": 70,
          "name": "A#4",
          "ticks": 128064,
          "time": 175.524385,
          "velocity": 0.6377952755905512
        },
        {
          "duration": 0.0054823958333258815,
          "durationTicks": 4,
          "midi": 63,
          "name": "D#4",
          "ticks": 128064,
          "time": 175.524385,
          "velocity": 0.3858267716535433
        },
        {
          "duration": 0.0054823958333258815,
          "durationTicks": 4,
          "midi": 70,
          "name": "A#4",
          "ticks": 128160,
          "time": 175.6559625,
          "velocity": 0.7795275590551181
        },
        {
          "duration": 0.005482395833354303,
          "durationTicks": 4,
          "midi": 35,
          "name": "B1",
          "ticks": 128256,
          "time": 175.78753999999998,
          "velocity": 0.8661417322834646
        },
        {
          "duration": 0.005482395833354303,
          "durationTicks": 4,
          "midi": 60,
          "name": "C4",
          "ticks": 128256,
          "time": 175.78753999999998,
          "velocity": 0.4251968503937008
        },
        {
          "duration": 0.0054823958333258815,
          "durationTicks": 4,
          "midi": 70,
          "name": "A#4",
          "ticks": 128448,
          "time": 176.050695,
          "velocity": 0.7401574803149606
        },
        {
          "duration": 0.0054823958333258815,
          "durationTicks": 4,
          "midi": 46,
          "name": "A#2",
          "ticks": 128452,
          "time": 176.05617739583332,
          "velocity": 0.5275590551181102
        },
        {
          "duration": 0.005482395833354303,
          "durationTicks": 4,
          "midi": 60,
          "name": "C4",
          "ticks": 128544,
          "time": 176.18227249999998,
          "velocity": 0.33858267716535434
        },
        {
          "duration": 0.005482395833354303,
          "durationTicks": 4,
          "midi": 35,
          "name": "B1",
          "ticks": 128640,
          "time": 176.31384999999997,
          "velocity": 0.8976377952755905
        },
        {
          "duration": 0.00548239583329746,
          "durationTicks": 4,
          "midi": 40,
          "name": "E2",
          "ticks": 128644,
          "time": 176.31933239583333,
          "velocity": 0.8661417322834646
        },
        {
          "duration": 0.00548239583329746,
          "durationTicks": 4,
          "midi": 44,
          "name": "G#2",
          "ticks": 128644,
          "time": 176.31933239583333,
          "velocity": 0.5275590551181102
        },
        {
          "duration": 0.005482395833354303,
          "durationTicks": 4,
          "midi": 39,
          "name": "D#2",
          "ticks": 128648,
          "time": 176.32481479166663,
          "velocity": 0.7480314960629921
        },
        {
          "duration": 0.0054823958333258815,
          "durationTicks": 4,
          "midi": 60,
          "name": "C4",
          "ticks": 128736,
          "time": 176.4454275,
          "velocity": 0.3858267716535433
        },
        {
          "duration": 0.0054823958333258815,
          "durationTicks": 4,
          "midi": 70,
          "name": "A#4",
          "ticks": 128832,
          "time": 176.57700499999999,
          "velocity": 0.7401574803149606
        },
        {
          "duration": 0.0054823958333258815,
          "durationTicks": 4,
          "midi": 63,
          "name": "D#4",
          "ticks": 128832,
          "time": 176.57700499999999,
          "velocity": 0.4251968503937008
        },
        {
          "duration": 0.0054823958333258815,
          "durationTicks": 4,
          "midi": 46,
          "name": "A#2",
          "ticks": 128836,
          "time": 176.5824873958333,
          "velocity": 0.49606299212598426
        },
        {
          "duration": 0.005482395833354303,
          "durationTicks": 4,
          "midi": 35,
          "name": "B1",
          "ticks": 129024,
          "time": 176.84015999999997,
          "velocity": 0.8661417322834646
        },
        {
          "duration": 0.005482395833354303,
          "durationTicks": 4,
          "midi": 60,
          "name": "C4",
          "ticks": 129024,
          "time": 176.84015999999997,
          "velocity": 0.4251968503937008
        },
        {
          "duration": 0.0054823958333258815,
          "durationTicks": 4,
          "midi": 44,
          "name": "G#2",
          "ticks": 129028,
          "time": 176.84564239583332,
          "velocity": 0.49606299212598426
        },
        {
          "duration": 0.005482395833354303,
          "durationTicks": 4,
          "midi": 70,
          "name": "A#4",
          "ticks": 129216,
          "time": 177.10331499999998,
          "velocity": 0.7401574803149606
        },
        {
          "duration": 0.00548239583329746,
          "durationTicks": 4,
          "midi": 46,
          "name": "A#2",
          "ticks": 129220,
          "time": 177.10879739583334,
          "velocity": 0.47244094488188976
        },
        {
          "duration": 0.005482395833354303,
          "durationTicks": 4,
          "midi": 60,
          "name": "C4",
          "ticks": 129312,
          "time": 177.23489249999997,
          "velocity": 0.25984251968503935
        },
        {
          "duration": 0.0054823958333258815,
          "durationTicks": 4,
          "midi": 35,
          "name": "B1",
          "ticks": 129408,
          "time": 177.36647,
          "velocity": 0.8661417322834646
        },
        {
          "duration": 0.0054823958333258815,
          "durationTicks": 4,
          "midi": 40,
          "name": "E2",
          "ticks": 129412,
          "time": 177.37195239583332,
          "velocity": 0.8661417322834646
        },
        {
          "duration": 0.0054823958333258815,
          "durationTicks": 4,
          "midi": 44,
          "name": "G#2",
          "ticks": 129412,
          "time": 177.37195239583332,
          "velocity": 0.49606299212598426
        },
        {
          "duration": 0.0054823958333258815,
          "durationTicks": 4,
          "midi": 39,
          "name": "D#2",
          "ticks": 129416,
          "time": 177.37743479166664,
          "velocity": 0.7480314960629921
        },
        {
          "duration": 0.005482395833354303,
          "durationTicks": 4,
          "midi": 60,
          "name": "C4",
          "ticks": 129504,
          "time": 177.49804749999998,
          "velocity": 0.28346456692913385
        },
        {
          "duration": 0.005482395833354303,
          "durationTicks": 4,
          "midi": 70,
          "name": "A#4",
          "ticks": 129600,
          "time": 177.62962499999998,
          "velocity": 0.6141732283464567
        },
        {
          "duration": 0.005482395833354303,
          "durationTicks": 4,
          "midi": 63,
          "name": "D#4",
          "ticks": 129600,
          "time": 177.62962499999998,
          "velocity": 0.3858267716535433
        },
        {
          "duration": 0.00548239583329746,
          "durationTicks": 4,
          "midi": 46,
          "name": "A#2",
          "ticks": 129604,
          "time": 177.63510739583333,
          "velocity": 0.4251968503937008
        },
        {
          "duration": 0.005482395833354303,
          "durationTicks": 4,
          "midi": 70,
          "name": "A#4",
          "ticks": 129696,
          "time": 177.76120249999997,
          "velocity": 0.7401574803149606
        },
        {
          "duration": 0.0054823958333258815,
          "durationTicks": 4,
          "midi": 35,
          "name": "B1",
          "ticks": 129792,
          "time": 177.89278,
          "velocity": 0.8661417322834646
        },
        {
          "duration": 0.0054823958333258815,
          "durationTicks": 4,
          "midi": 60,
          "name": "C4",
          "ticks": 129792,
          "time": 177.89278,
          "velocity": 0.4251968503937008
        },
        {
          "duration": 0.0054823958333258815,
          "durationTicks": 4,
          "midi": 44,
          "name": "G#2",
          "ticks": 129796,
          "time": 177.8982623958333,
          "velocity": 0.49606299212598426
        },
        {
          "duration": 0.005482395833354303,
          "durationTicks": 4,
          "midi": 70,
          "name": "A#4",
          "ticks": 129984,
          "time": 178.15593499999997,
          "velocity": 0.7401574803149606
        },
        {
          "duration": 0.0054823958333258815,
          "durationTicks": 4,
          "midi": 46,
          "name": "A#2",
          "ticks": 129988,
          "time": 178.16141739583333,
          "velocity": 0.4251968503937008
        },
        {
          "duration": 0.0054823958333258815,
          "durationTicks": 4,
          "midi": 60,
          "name": "C4",
          "ticks": 130080,
          "time": 178.2875125,
          "velocity": 0.33858267716535434
        },
        {
          "duration": 0.005482395833354303,
          "durationTicks": 4,
          "midi": 35,
          "name": "B1",
          "ticks": 130176,
          "time": 178.41908999999998,
          "velocity": 0.8976377952755905
        },
        {
          "duration": 0.00548239583329746,
          "durationTicks": 4,
          "midi": 40,
          "name": "E2",
          "ticks": 130180,
          "time": 178.42457239583334,
          "velocity": 0.8661417322834646
        },
        {
          "duration": 0.00548239583329746,
          "durationTicks": 4,
          "midi": 44,
          "name": "G#2",
          "ticks": 130180,
          "time": 178.42457239583334,
          "velocity": 0.49606299212598426
        },
        {
          "duration": 0.005482395833354303,
          "durationTicks": 4,
          "midi": 39,
          "name": "D#2",
          "ticks": 130184,
          "time": 178.43005479166663,
          "velocity": 0.7480314960629921
        },
        {
          "duration": 0.005482395833354303,
          "durationTicks": 4,
          "midi": 60,
          "name": "C4",
          "ticks": 130272,
          "time": 178.55066749999997,
          "velocity": 0.31496062992125984
        },
        {
          "duration": 0.0054823958333258815,
          "durationTicks": 4,
          "midi": 70,
          "name": "A#4",
          "ticks": 130368,
          "time": 178.682245,
          "velocity": 0.6141732283464567
        },
        {
          "duration": 0.0054823958333258815,
          "durationTicks": 4,
          "midi": 63,
          "name": "D#4",
          "ticks": 130368,
          "time": 178.682245,
          "velocity": 0.3858267716535433
        },
        {
          "duration": 0.0054823958333258815,
          "durationTicks": 4,
          "midi": 46,
          "name": "A#2",
          "ticks": 130372,
          "time": 178.68772739583332,
          "velocity": 0.47244094488188976
        },
        {
          "duration": 0.0054823958333258815,
          "durationTicks": 4,
          "midi": 70,
          "name": "A#4",
          "ticks": 130464,
          "time": 178.8138225,
          "velocity": 0.7795275590551181
        },
        {
          "duration": 0.005482395833354303,
          "durationTicks": 4,
          "midi": 35,
          "name": "B1",
          "ticks": 130560,
          "time": 178.94539999999998,
          "velocity": 0.8976377952755905
        },
        {
          "duration": 0.005482395833354303,
          "durationTicks": 4,
          "midi": 69,
          "name": "A4",
          "ticks": 130560,
          "time": 178.94539999999998,
          "velocity": 0.5826771653543307
        },
        {
          "duration": 0.005482395833354303,
          "durationTicks": 4,
          "midi": 60,
          "name": "C4",
          "ticks": 130560,
          "time": 178.94539999999998,
          "velocity": 0.4251968503937008
        },
        {
          "duration": 0.00548239583329746,
          "durationTicks": 4,
          "midi": 44,
          "name": "G#2",
          "ticks": 130564,
          "time": 178.95088239583333,
          "velocity": 0.49606299212598426
        },
        {
          "duration": 0.0054823958333258815,
          "durationTicks": 4,
          "midi": 69,
          "name": "A4",
          "ticks": 130652,
          "time": 179.07149510416664,
          "velocity": 0.2204724409448819
        },
        {
          "duration": 0.005482395833354303,
          "durationTicks": 4,
          "midi": 69,
          "name": "A4",
          "ticks": 130736,
          "time": 179.18662541666663,
          "velocity": 0.8031496062992126
        },
        {
          "duration": 0.0054823958333258815,
          "durationTicks": 4,
          "midi": 70,
          "name": "A#4",
          "ticks": 130752,
          "time": 179.208555,
          "velocity": 0.7401574803149606
        },
        {
          "duration": 0.0054823958333258815,
          "durationTicks": 4,
          "midi": 46,
          "name": "A#2",
          "ticks": 130756,
          "time": 179.21403739583332,
          "velocity": 0.5275590551181102
        },
        {
          "duration": 0.0054823958333258815,
          "durationTicks": 4,
          "midi": 69,
          "name": "A4",
          "ticks": 130832,
          "time": 179.31820291666665,
          "velocity": 0.8031496062992126
        },
        {
          "duration": 0.005482395833354303,
          "durationTicks": 4,
          "midi": 60,
          "name": "C4",
          "ticks": 130848,
          "time": 179.34013249999998,
          "velocity": 0.33858267716535434
        },
        {
          "duration": 0.005482395833354303,
          "durationTicks": 4,
          "midi": 35,
          "name": "B1",
          "ticks": 130944,
          "time": 179.47170999999997,
          "velocity": 0.8976377952755905
        },
        {
          "duration": 0.00548239583329746,
          "durationTicks": 4,
          "midi": 40,
          "name": "E2",
          "ticks": 130948,
          "time": 179.47719239583333,
          "velocity": 0.8976377952755905
        },
        {
          "duration": 0.00548239583329746,
          "durationTicks": 4,
          "midi": 44,
          "name": "G#2",
          "ticks": 130948,
          "time": 179.47719239583333,
          "velocity": 0.5984251968503937
        },
        {
          "duration": 0.005482395833354303,
          "durationTicks": 4,
          "midi": 39,
          "name": "D#2",
          "ticks": 130952,
          "time": 179.48267479166662,
          "velocity": 0.7795275590551181
        },
        {
          "duration": 0.0054823958333258815,
          "durationTicks": 4,
          "midi": 60,
          "name": "C4",
          "ticks": 131040,
          "time": 179.6032875,
          "velocity": 0.31496062992125984
        },
        {
          "duration": 0.0054823958333258815,
          "durationTicks": 4,
          "midi": 70,
          "name": "A#4",
          "ticks": 131136,
          "time": 179.73486499999999,
          "velocity": 0.5669291338582677
        },
        {
          "duration": 0.0054823958333258815,
          "durationTicks": 4,
          "midi": 63,
          "name": "D#4",
          "ticks": 131136,
          "time": 179.73486499999999,
          "velocity": 0.31496062992125984
        },
        {
          "duration": 0.005482395833354303,
          "durationTicks": 4,
          "midi": 70,
          "name": "A#4",
          "ticks": 131232,
          "time": 179.86644249999998,
          "velocity": 0.6692913385826772
        },
        {
          "duration": 0.005482395833354303,
          "durationTicks": 4,
          "midi": 35,
          "name": "B1",
          "ticks": 131328,
          "time": 179.99801999999997,
          "velocity": 0.8661417322834646
        },
        {
          "duration": 0.005482395833354303,
          "durationTicks": 4,
          "midi": 60,
          "name": "C4",
          "ticks": 131328,
          "time": 179.99801999999997,
          "velocity": 0.4251968503937008
        },
        {
          "duration": 0.005482395833354303,
          "durationTicks": 4,
          "midi": 70,
          "name": "A#4",
          "ticks": 131520,
          "time": 180.26117499999998,
          "velocity": 0.7401574803149606
        },
        {
          "duration": 0.00548239583329746,
          "durationTicks": 4,
          "midi": 46,
          "name": "A#2",
          "ticks": 131524,
          "time": 180.26665739583333,
          "velocity": 0.49606299212598426
        },
        {
          "duration": 0.005482395833354303,
          "durationTicks": 4,
          "midi": 60,
          "name": "C4",
          "ticks": 131616,
          "time": 180.39275249999997,
          "velocity": 0.31496062992125984
        },
        {
          "duration": 0.0054823958333258815,
          "durationTicks": 4,
          "midi": 35,
          "name": "B1",
          "ticks": 131712,
          "time": 180.52433,
          "velocity": 0.8976377952755905
        },
        {
          "duration": 0.0054823958333258815,
          "durationTicks": 4,
          "midi": 40,
          "name": "E2",
          "ticks": 131716,
          "time": 180.52981239583332,
          "velocity": 0.8976377952755905
        },
        {
          "duration": 0.0054823958333258815,
          "durationTicks": 4,
          "midi": 44,
          "name": "G#2",
          "ticks": 131716,
          "time": 180.52981239583332,
          "velocity": 0.49606299212598426
        },
        {
          "duration": 0.0054823958333258815,
          "durationTicks": 4,
          "midi": 39,
          "name": "D#2",
          "ticks": 131720,
          "time": 180.53529479166664,
          "velocity": 0.7795275590551181
        },
        {
          "duration": 0.005482395833354303,
          "durationTicks": 4,
          "midi": 60,
          "name": "C4",
          "ticks": 131808,
          "time": 180.65590749999998,
          "velocity": 0.33858267716535434
        },
        {
          "duration": 0.005482395833354303,
          "durationTicks": 4,
          "midi": 70,
          "name": "A#4",
          "ticks": 131904,
          "time": 180.78748499999998,
          "velocity": 0.7401574803149606
        },
        {
          "duration": 0.005482395833354303,
          "durationTicks": 4,
          "midi": 63,
          "name": "D#4",
          "ticks": 131904,
          "time": 180.78748499999998,
          "velocity": 0.4251968503937008
        },
        {
          "duration": 0.00548239583329746,
          "durationTicks": 4,
          "midi": 46,
          "name": "A#2",
          "ticks": 131908,
          "time": 180.79296739583333,
          "velocity": 0.49606299212598426
        },
        {
          "duration": 0.0054823958333258815,
          "durationTicks": 4,
          "midi": 35,
          "name": "B1",
          "ticks": 132096,
          "time": 181.05064,
          "velocity": 0.8976377952755905
        },
        {
          "duration": 0.0054823958333258815,
          "durationTicks": 4,
          "midi": 60,
          "name": "C4",
          "ticks": 132096,
          "time": 181.05064,
          "velocity": 0.3858267716535433
        },
        {
          "duration": 0.0054823958333258815,
          "durationTicks": 4,
          "midi": 44,
          "name": "G#2",
          "ticks": 132100,
          "time": 181.0561223958333,
          "velocity": 0.5275590551181102
        },
        {
          "duration": 0.005482395833354303,
          "durationTicks": 4,
          "midi": 70,
          "name": "A#4",
          "ticks": 132288,
          "time": 181.31379499999997,
          "velocity": 0.7795275590551181
        },
        {
          "duration": 0.0054823958333258815,
          "durationTicks": 4,
          "midi": 46,
          "name": "A#2",
          "ticks": 132292,
          "time": 181.31927739583332,
          "velocity": 0.49606299212598426
        },
        {
          "duration": 0.0054823958333258815,
          "durationTicks": 4,
          "midi": 60,
          "name": "C4",
          "ticks": 132384,
          "time": 181.4453725,
          "velocity": 0.31496062992125984
        },
        {
          "duration": 0.005482395833354303,
          "durationTicks": 4,
          "midi": 35,
          "name": "B1",
          "ticks": 132480,
          "time": 181.57694999999998,
          "velocity": 0.8661417322834646
        },
        {
          "duration": 0.00548239583329746,
          "durationTicks": 4,
          "midi": 40,
          "name": "E2",
          "ticks": 132484,
          "time": 181.58243239583334,
          "velocity": 0.8976377952755905
        },
        {
          "duration": 0.00548239583329746,
          "durationTicks": 4,
          "midi": 44,
          "name": "G#2",
          "ticks": 132484,
          "time": 181.58243239583334,
          "velocity": 0.49606299212598426
        },
        {
          "duration": 0.005482395833354303,
          "durationTicks": 4,
          "midi": 39,
          "name": "D#2",
          "ticks": 132488,
          "time": 181.58791479166663,
          "velocity": 0.7795275590551181
        },
        {
          "duration": 0.005482395833354303,
          "durationTicks": 4,
          "midi": 60,
          "name": "C4",
          "ticks": 132576,
          "time": 181.70852749999997,
          "velocity": 0.33858267716535434
        },
        {
          "duration": 0.0054823958333258815,
          "durationTicks": 4,
          "midi": 70,
          "name": "A#4",
          "ticks": 132672,
          "time": 181.840105,
          "velocity": 0.6141732283464567
        },
        {
          "duration": 0.0054823958333258815,
          "durationTicks": 4,
          "midi": 63,
          "name": "D#4",
          "ticks": 132672,
          "time": 181.840105,
          "velocity": 0.31496062992125984
        },
        {
          "duration": 0.0054823958333258815,
          "durationTicks": 4,
          "midi": 46,
          "name": "A#2",
          "ticks": 132676,
          "time": 181.84558739583332,
          "velocity": 0.49606299212598426
        },
        {
          "duration": 0.0054823958333258815,
          "durationTicks": 4,
          "midi": 70,
          "name": "A#4",
          "ticks": 132768,
          "time": 181.9716825,
          "velocity": 0.6692913385826772
        },
        {
          "duration": 0.005482395833354303,
          "durationTicks": 4,
          "midi": 35,
          "name": "B1",
          "ticks": 132864,
          "time": 182.10325999999998,
          "velocity": 0.8976377952755905
        },
        {
          "duration": 0.005482395833354303,
          "durationTicks": 4,
          "midi": 60,
          "name": "C4",
          "ticks": 132864,
          "time": 182.10325999999998,
          "velocity": 0.3858267716535433
        },
        {
          "duration": 0.00548239583329746,
          "durationTicks": 4,
          "midi": 44,
          "name": "G#2",
          "ticks": 132868,
          "time": 182.10874239583333,
          "velocity": 0.49606299212598426
        },
        {
          "duration": 0.0054823958333258815,
          "durationTicks": 4,
          "midi": 70,
          "name": "A#4",
          "ticks": 133056,
          "time": 182.366415,
          "velocity": 0.7795275590551181
        },
        {
          "duration": 0.0054823958333258815,
          "durationTicks": 4,
          "midi": 46,
          "name": "A#2",
          "ticks": 133060,
          "time": 182.37189739583332,
          "velocity": 0.49606299212598426
        },
        {
          "duration": 0.005482395833354303,
          "durationTicks": 4,
          "midi": 60,
          "name": "C4",
          "ticks": 133152,
          "time": 182.49799249999998,
          "velocity": 0.31496062992125984
        },
        {
          "duration": 0.005482395833354303,
          "durationTicks": 4,
          "midi": 35,
          "name": "B1",
          "ticks": 133248,
          "time": 182.62956999999997,
          "velocity": 0.8976377952755905
        },
        {
          "duration": 0.00548239583329746,
          "durationTicks": 4,
          "midi": 40,
          "name": "E2",
          "ticks": 133252,
          "time": 182.63505239583333,
          "velocity": 0.8976377952755905
        },
        {
          "duration": 0.00548239583329746,
          "durationTicks": 4,
          "midi": 44,
          "name": "G#2",
          "ticks": 133252,
          "time": 182.63505239583333,
          "velocity": 0.5275590551181102
        },
        {
          "duration": 0.005482395833354303,
          "durationTicks": 4,
          "midi": 39,
          "name": "D#2",
          "ticks": 133256,
          "time": 182.64053479166662,
          "velocity": 0.7795275590551181
        },
        {
          "duration": 0.0054823958333258815,
          "durationTicks": 4,
          "midi": 60,
          "name": "C4",
          "ticks": 133344,
          "time": 182.7611475,
          "velocity": 0.31496062992125984
        },
        {
          "duration": 0.0054823958333258815,
          "durationTicks": 4,
          "midi": 40,
          "name": "E2",
          "ticks": 133348,
          "time": 182.76662989583332,
          "velocity": 0.8661417322834646
        },
        {
          "duration": 0.0054823958333258815,
          "durationTicks": 4,
          "midi": 39,
          "name": "D#2",
          "ticks": 133352,
          "time": 182.77211229166664,
          "velocity": 0.7480314960629921
        },
        {
          "duration": 0.0054823958333258815,
          "durationTicks": 4,
          "midi": 70,
          "name": "A#4",
          "ticks": 133440,
          "time": 182.89272499999998,
          "velocity": 0.6377952755905512
        },
        {
          "duration": 0.0054823958333258815,
          "durationTicks": 4,
          "midi": 63,
          "name": "D#4",
          "ticks": 133440,
          "time": 182.89272499999998,
          "velocity": 0.3858267716535433
        },
        {
          "duration": 0.0054823958333258815,
          "durationTicks": 4,
          "midi": 46,
          "name": "A#2",
          "ticks": 133444,
          "time": 182.8982073958333,
          "velocity": 0.5275590551181102
        },
        {
          "duration": 0.005482395833354303,
          "durationTicks": 4,
          "midi": 70,
          "name": "A#4",
          "ticks": 133536,
          "time": 183.02430249999998,
          "velocity": 0.7795275590551181
        },
        {
          "duration": 0.005482395833354303,
          "durationTicks": 4,
          "midi": 35,
          "name": "B1",
          "ticks": 133632,
          "time": 183.15587999999997,
          "velocity": 0.8661417322834646
        },
        {
          "duration": 0.005482395833354303,
          "durationTicks": 4,
          "midi": 69,
          "name": "A4",
          "ticks": 133632,
          "time": 183.15587999999997,
          "velocity": 0.5826771653543307
        },
        {
          "duration": 0.005482395833354303,
          "durationTicks": 4,
          "midi": 60,
          "name": "C4",
          "ticks": 133632,
          "time": 183.15587999999997,
          "velocity": 0.4251968503937008
        },
        {
          "duration": 0.0054823958333258815,
          "durationTicks": 4,
          "midi": 44,
          "name": "G#2",
          "ticks": 133636,
          "time": 183.16136239583332,
          "velocity": 0.5984251968503937
        },
        {
          "duration": 0.005482395833354303,
          "durationTicks": 4,
          "midi": 69,
          "name": "A4",
          "ticks": 133724,
          "time": 183.28197510416663,
          "velocity": 0.2204724409448819
        },
        {
          "duration": 0.0054823958333258815,
          "durationTicks": 4,
          "midi": 69,
          "name": "A4",
          "ticks": 133808,
          "time": 183.39710541666665,
          "velocity": 0.8031496062992126
        },
        {
          "duration": 0.005482395833354303,
          "durationTicks": 4,
          "midi": 70,
          "name": "A#4",
          "ticks": 133824,
          "time": 183.41903499999998,
          "velocity": 0.7795275590551181
        },
        {
          "duration": 0.00548239583329746,
          "durationTicks": 4,
          "midi": 46,
          "name": "A#2",
          "ticks": 133828,
          "time": 183.42451739583333,
          "velocity": 0.49606299212598426
        },
        {
          "duration": 0.005482395833354303,
          "durationTicks": 4,
          "midi": 69,
          "name": "A4",
          "ticks": 133904,
          "time": 183.52868291666664,
          "velocity": 0.8031496062992126
        },
        {
          "duration": 0.005482395833354303,
          "durationTicks": 4,
          "midi": 60,
          "name": "C4",
          "ticks": 133920,
          "time": 183.55061249999997,
          "velocity": 0.4251968503937008
        },
        {
          "duration": 0.0054823958333258815,
          "durationTicks": 4,
          "midi": 35,
          "name": "B1",
          "ticks": 134016,
          "time": 183.68219,
          "velocity": 0.8976377952755905
        },
        {
          "duration": 0.0054823958333258815,
          "durationTicks": 4,
          "midi": 40,
          "name": "E2",
          "ticks": 134020,
          "time": 183.68767239583332,
          "velocity": 0.8661417322834646
        },
        {
          "duration": 0.0054823958333258815,
          "durationTicks": 4,
          "midi": 44,
          "name": "G#2",
          "ticks": 134020,
          "time": 183.68767239583332,
          "velocity": 0.47244094488188976
        },
        {
          "duration": 0.0054823958333258815,
          "durationTicks": 4,
          "midi": 39,
          "name": "D#2",
          "ticks": 134024,
          "time": 183.69315479166664,
          "velocity": 0.7480314960629921
        },
        {
          "duration": 0.005482395833354303,
          "durationTicks": 4,
          "midi": 60,
          "name": "C4",
          "ticks": 134112,
          "time": 183.81376749999998,
          "velocity": 0.33858267716535434
        },
        {
          "duration": 0.005482395833354303,
          "durationTicks": 4,
          "midi": 70,
          "name": "A#4",
          "ticks": 134208,
          "time": 183.94534499999997,
          "velocity": 0.6377952755905512
        },
        {
          "duration": 0.005482395833354303,
          "durationTicks": 4,
          "midi": 63,
          "name": "D#4",
          "ticks": 134208,
          "time": 183.94534499999997,
          "velocity": 0.3858267716535433
        },
        {
          "duration": 0.005482395833354303,
          "durationTicks": 4,
          "midi": 70,
          "name": "A#4",
          "ticks": 134304,
          "time": 184.07692249999997,
          "velocity": 0.7795275590551181
        },
        {
          "duration": 0.0054823958333258815,
          "durationTicks": 4,
          "midi": 35,
          "name": "B1",
          "ticks": 134400,
          "time": 184.2085,
          "velocity": 0.8661417322834646
        },
        {
          "duration": 0.0054823958333258815,
          "durationTicks": 4,
          "midi": 60,
          "name": "C4",
          "ticks": 134400,
          "time": 184.2085,
          "velocity": 0.4251968503937008
        },
        {
          "duration": 0.005482395833354303,
          "durationTicks": 4,
          "midi": 70,
          "name": "A#4",
          "ticks": 134592,
          "time": 184.47165499999997,
          "velocity": 0.7401574803149606
        },
        {
          "duration": 0.0054823958333258815,
          "durationTicks": 4,
          "midi": 46,
          "name": "A#2",
          "ticks": 134596,
          "time": 184.47713739583332,
          "velocity": 0.5275590551181102
        },
        {
          "duration": 0.0054823958333258815,
          "durationTicks": 4,
          "midi": 60,
          "name": "C4",
          "ticks": 134688,
          "time": 184.6032325,
          "velocity": 0.33858267716535434
        },
        {
          "duration": 0.005482395833354303,
          "durationTicks": 4,
          "midi": 35,
          "name": "B1",
          "ticks": 134784,
          "time": 184.73480999999998,
          "velocity": 0.8976377952755905
        },
        {
          "duration": 0.00548239583329746,
          "durationTicks": 4,
          "midi": 40,
          "name": "E2",
          "ticks": 134788,
          "time": 184.74029239583334,
          "velocity": 0.8661417322834646
        },
        {
          "duration": 0.00548239583329746,
          "durationTicks": 4,
          "midi": 44,
          "name": "G#2",
          "ticks": 134788,
          "time": 184.74029239583334,
          "velocity": 0.5275590551181102
        },
        {
          "duration": 0.005482395833354303,
          "durationTicks": 4,
          "midi": 39,
          "name": "D#2",
          "ticks": 134792,
          "time": 184.74577479166663,
          "velocity": 0.7480314960629921
        },
        {
          "duration": 0.005482395833354303,
          "durationTicks": 4,
          "midi": 60,
          "name": "C4",
          "ticks": 134880,
          "time": 184.86638749999997,
          "velocity": 0.3858267716535433
        },
        {
          "duration": 0.0054823958333258815,
          "durationTicks": 4,
          "midi": 70,
          "name": "A#4",
          "ticks": 134976,
          "time": 184.997965,
          "velocity": 0.7401574803149606
        },
        {
          "duration": 0.0054823958333258815,
          "durationTicks": 4,
          "midi": 63,
          "name": "D#4",
          "ticks": 134976,
          "time": 184.997965,
          "velocity": 0.4251968503937008
        },
        {
          "duration": 0.0054823958333258815,
          "durationTicks": 4,
          "midi": 46,
          "name": "A#2",
          "ticks": 134980,
          "time": 185.00344739583332,
          "velocity": 0.49606299212598426
        },
        {
          "duration": 0.005482395833354303,
          "durationTicks": 4,
          "midi": 35,
          "name": "B1",
          "ticks": 135168,
          "time": 185.26111999999998,
          "velocity": 0.8661417322834646
        },
        {
          "duration": 0.005482395833354303,
          "durationTicks": 4,
          "midi": 60,
          "name": "C4",
          "ticks": 135168,
          "time": 185.26111999999998,
          "velocity": 0.4251968503937008
        },
        {
          "duration": 0.00548239583329746,
          "durationTicks": 4,
          "midi": 44,
          "name": "G#2",
          "ticks": 135172,
          "time": 185.26660239583333,
          "velocity": 0.49606299212598426
        },
        {
          "duration": 0.0054823958333258815,
          "durationTicks": 4,
          "midi": 70,
          "name": "A#4",
          "ticks": 135360,
          "time": 185.524275,
          "velocity": 0.7401574803149606
        },
        {
          "duration": 0.0054823958333258815,
          "durationTicks": 4,
          "midi": 46,
          "name": "A#2",
          "ticks": 135364,
          "time": 185.52975739583331,
          "velocity": 0.47244094488188976
        },
        {
          "duration": 0.005482395833354303,
          "durationTicks": 4,
          "midi": 60,
          "name": "C4",
          "ticks": 135456,
          "time": 185.65585249999998,
          "velocity": 0.25984251968503935
        },
        {
          "duration": 0.005482395833354303,
          "durationTicks": 4,
          "midi": 35,
          "name": "B1",
          "ticks": 135552,
          "time": 185.78742999999997,
          "velocity": 0.8661417322834646
        },
        {
          "duration": 0.00548239583329746,
          "durationTicks": 4,
          "midi": 40,
          "name": "E2",
          "ticks": 135556,
          "time": 185.79291239583333,
          "velocity": 0.8661417322834646
        },
        {
          "duration": 0.00548239583329746,
          "durationTicks": 4,
          "midi": 44,
          "name": "G#2",
          "ticks": 135556,
          "time": 185.79291239583333,
          "velocity": 0.49606299212598426
        },
        {
          "duration": 0.005482395833354303,
          "durationTicks": 4,
          "midi": 39,
          "name": "D#2",
          "ticks": 135560,
          "time": 185.79839479166662,
          "velocity": 0.7480314960629921
        },
        {
          "duration": 0.0054823958333258815,
          "durationTicks": 4,
          "midi": 60,
          "name": "C4",
          "ticks": 135648,
          "time": 185.9190075,
          "velocity": 0.28346456692913385
        },
        {
          "duration": 0.0054823958333258815,
          "durationTicks": 4,
          "midi": 70,
          "name": "A#4",
          "ticks": 135744,
          "time": 186.05058499999998,
          "velocity": 0.6141732283464567
        },
        {
          "duration": 0.0054823958333258815,
          "durationTicks": 4,
          "midi": 63,
          "name": "D#4",
          "ticks": 135744,
          "time": 186.05058499999998,
          "velocity": 0.3858267716535433
        },
        {
          "duration": 0.0054823958333258815,
          "durationTicks": 4,
          "midi": 46,
          "name": "A#2",
          "ticks": 135748,
          "time": 186.0560673958333,
          "velocity": 0.4251968503937008
        },
        {
          "duration": 0.005482395833354303,
          "durationTicks": 4,
          "midi": 70,
          "name": "A#4",
          "ticks": 135840,
          "time": 186.18216249999998,
          "velocity": 0.7401574803149606
        },
        {
          "duration": 0.005482395833354303,
          "durationTicks": 4,
          "midi": 35,
          "name": "B1",
          "ticks": 135936,
          "time": 186.31373999999997,
          "velocity": 0.8661417322834646
        },
        {
          "duration": 0.005482395833354303,
          "durationTicks": 4,
          "midi": 60,
          "name": "C4",
          "ticks": 135936,
          "time": 186.31373999999997,
          "velocity": 0.4251968503937008
        },
        {
          "duration": 0.0054823958333258815,
          "durationTicks": 4,
          "midi": 44,
          "name": "G#2",
          "ticks": 135940,
          "time": 186.31922239583332,
          "velocity": 0.49606299212598426
        },
        {
          "duration": 0.005482395833354303,
          "durationTicks": 4,
          "midi": 70,
          "name": "A#4",
          "ticks": 136128,
          "time": 186.57689499999998,
          "velocity": 0.7401574803149606
        },
        {
          "duration": 0.00548239583329746,
          "durationTicks": 4,
          "midi": 46,
          "name": "A#2",
          "ticks": 136132,
          "time": 186.58237739583333,
          "velocity": 0.4251968503937008
        },
        {
          "duration": 0.005482395833354303,
          "durationTicks": 4,
          "midi": 60,
          "name": "C4",
          "ticks": 136224,
          "time": 186.70847249999997,
          "velocity": 0.33858267716535434
        },
        {
          "duration": 0.0054823958333258815,
          "durationTicks": 4,
          "midi": 35,
          "name": "B1",
          "ticks": 136320,
          "time": 186.84005,
          "velocity": 0.8976377952755905
        },
        {
          "duration": 0.0054823958333258815,
          "durationTicks": 4,
          "midi": 40,
          "name": "E2",
          "ticks": 136324,
          "time": 186.84553239583332,
          "velocity": 0.8661417322834646
        },
        {
          "duration": 0.0054823958333258815,
          "durationTicks": 4,
          "midi": 44,
          "name": "G#2",
          "ticks": 136324,
          "time": 186.84553239583332,
          "velocity": 0.49606299212598426
        },
        {
          "duration": 0.0054823958333258815,
          "durationTicks": 4,
          "midi": 39,
          "name": "D#2",
          "ticks": 136328,
          "time": 186.85101479166664,
          "velocity": 0.7480314960629921
        },
        {
          "duration": 0.005482395833354303,
          "durationTicks": 4,
          "midi": 60,
          "name": "C4",
          "ticks": 136416,
          "time": 186.97162749999998,
          "velocity": 0.31496062992125984
        },
        {
          "duration": 0.005482395833354303,
          "durationTicks": 4,
          "midi": 70,
          "name": "A#4",
          "ticks": 136512,
          "time": 187.10320499999997,
          "velocity": 0.6141732283464567
        },
        {
          "duration": 0.005482395833354303,
          "durationTicks": 4,
          "midi": 63,
          "name": "D#4",
          "ticks": 136512,
          "time": 187.10320499999997,
          "velocity": 0.3858267716535433
        },
        {
          "duration": 0.00548239583329746,
          "durationTicks": 4,
          "midi": 46,
          "name": "A#2",
          "ticks": 136516,
          "time": 187.10868739583333,
          "velocity": 0.47244094488188976
        },
        {
          "duration": 0.0054823958333258815,
          "durationTicks": 4,
          "midi": 70,
          "name": "A#4",
          "ticks": 136608,
          "time": 187.2347825,
          "velocity": 0.7795275590551181
        },
        {
          "duration": 0.0054823958333258815,
          "durationTicks": 4,
          "midi": 35,
          "name": "B1",
          "ticks": 136704,
          "time": 187.36636,
          "velocity": 0.8976377952755905
        },
        {
          "duration": 0.0054823958333258815,
          "durationTicks": 4,
          "midi": 69,
          "name": "A4",
          "ticks": 136704,
          "time": 187.36636,
          "velocity": 0.5826771653543307
        },
        {
          "duration": 0.0054823958333258815,
          "durationTicks": 4,
          "midi": 60,
          "name": "C4",
          "ticks": 136704,
          "time": 187.36636,
          "velocity": 0.4251968503937008
        },
        {
          "duration": 0.0054823958333258815,
          "durationTicks": 4,
          "midi": 44,
          "name": "G#2",
          "ticks": 136708,
          "time": 187.3718423958333,
          "velocity": 0.49606299212598426
        },
        {
          "duration": 0.005482395833354303,
          "durationTicks": 4,
          "midi": 69,
          "name": "A4",
          "ticks": 136796,
          "time": 187.49245510416662,
          "velocity": 0.2204724409448819
        },
        {
          "duration": 0.005482395833354303,
          "durationTicks": 4,
          "midi": 69,
          "name": "A4",
          "ticks": 136880,
          "time": 187.60758541666664,
          "velocity": 0.8031496062992126
        },
        {
          "duration": 0.005482395833354303,
          "durationTicks": 4,
          "midi": 70,
          "name": "A#4",
          "ticks": 136896,
          "time": 187.62951499999997,
          "velocity": 0.7401574803149606
        },
        {
          "duration": 0.0054823958333258815,
          "durationTicks": 4,
          "midi": 46,
          "name": "A#2",
          "ticks": 136900,
          "time": 187.63499739583332,
          "velocity": 0.5275590551181102
        },
        {
          "duration": 0.005482395833354303,
          "durationTicks": 4,
          "midi": 69,
          "name": "A4",
          "ticks": 136976,
          "time": 187.73916291666663,
          "velocity": 0.8031496062992126
        },
        {
          "duration": 0.0054823958333258815,
          "durationTicks": 4,
          "midi": 60,
          "name": "C4",
          "ticks": 136992,
          "time": 187.7610925,
          "velocity": 0.33858267716535434
        },
        {
          "duration": 0.005482395833354303,
          "durationTicks": 4,
          "midi": 35,
          "name": "B1",
          "ticks": 137088,
          "time": 187.89266999999998,
          "velocity": 0.8976377952755905
        },
        {
          "duration": 0.00548239583329746,
          "durationTicks": 4,
          "midi": 40,
          "name": "E2",
          "ticks": 137092,
          "time": 187.89815239583334,
          "velocity": 0.8976377952755905
        },
        {
          "duration": 0.00548239583329746,
          "durationTicks": 4,
          "midi": 44,
          "name": "G#2",
          "ticks": 137092,
          "time": 187.89815239583334,
          "velocity": 0.5984251968503937
        },
        {
          "duration": 0.005482395833354303,
          "durationTicks": 4,
          "midi": 39,
          "name": "D#2",
          "ticks": 137096,
          "time": 187.90363479166663,
          "velocity": 0.7795275590551181
        },
        {
          "duration": 0.005482395833354303,
          "durationTicks": 4,
          "midi": 60,
          "name": "C4",
          "ticks": 137184,
          "time": 188.02424749999997,
          "velocity": 0.31496062992125984
        },
        {
          "duration": 0.0054823958333258815,
          "durationTicks": 4,
          "midi": 70,
          "name": "A#4",
          "ticks": 137280,
          "time": 188.155825,
          "velocity": 0.5669291338582677
        },
        {
          "duration": 0.0054823958333258815,
          "durationTicks": 4,
          "midi": 63,
          "name": "D#4",
          "ticks": 137280,
          "time": 188.155825,
          "velocity": 0.31496062992125984
        },
        {
          "duration": 0.0054823958333258815,
          "durationTicks": 4,
          "midi": 70,
          "name": "A#4",
          "ticks": 137376,
          "time": 188.28740249999998,
          "velocity": 0.6692913385826772
        },
        {
          "duration": 0.005482395833354303,
          "durationTicks": 4,
          "midi": 35,
          "name": "B1",
          "ticks": 137472,
          "time": 188.41897999999998,
          "velocity": 0.8661417322834646
        },
        {
          "duration": 0.005482395833354303,
          "durationTicks": 4,
          "midi": 60,
          "name": "C4",
          "ticks": 137472,
          "time": 188.41897999999998,
          "velocity": 0.4251968503937008
        },
        {
          "duration": 0.0054823958333258815,
          "durationTicks": 4,
          "midi": 70,
          "name": "A#4",
          "ticks": 137664,
          "time": 188.682135,
          "velocity": 0.7401574803149606
        },
        {
          "duration": 0.0054823958333258815,
          "durationTicks": 4,
          "midi": 46,
          "name": "A#2",
          "ticks": 137668,
          "time": 188.6876173958333,
          "velocity": 0.49606299212598426
        },
        {
          "duration": 0.005482395833354303,
          "durationTicks": 4,
          "midi": 60,
          "name": "C4",
          "ticks": 137760,
          "time": 188.81371249999998,
          "velocity": 0.31496062992125984
        },
        {
          "duration": 0.005482395833354303,
          "durationTicks": 4,
          "midi": 35,
          "name": "B1",
          "ticks": 137856,
          "time": 188.94528999999997,
          "velocity": 0.8976377952755905
        },
        {
          "duration": 0.00548239583329746,
          "durationTicks": 4,
          "midi": 40,
          "name": "E2",
          "ticks": 137860,
          "time": 188.95077239583333,
          "velocity": 0.8976377952755905
        },
        {
          "duration": 0.00548239583329746,
          "durationTicks": 4,
          "midi": 44,
          "name": "G#2",
          "ticks": 137860,
          "time": 188.95077239583333,
          "velocity": 0.49606299212598426
        },
        {
          "duration": 0.005482395833354303,
          "durationTicks": 4,
          "midi": 39,
          "name": "D#2",
          "ticks": 137864,
          "time": 188.95625479166662,
          "velocity": 0.7795275590551181
        },
        {
          "duration": 0.0054823958333258815,
          "durationTicks": 4,
          "midi": 60,
          "name": "C4",
          "ticks": 137952,
          "time": 189.0768675,
          "velocity": 0.33858267716535434
        },
        {
          "duration": 0.0054823958333258815,
          "durationTicks": 4,
          "midi": 70,
          "name": "A#4",
          "ticks": 138048,
          "time": 189.20844499999998,
          "velocity": 0.7401574803149606
        },
        {
          "duration": 0.0054823958333258815,
          "durationTicks": 4,
          "midi": 63,
          "name": "D#4",
          "ticks": 138048,
          "time": 189.20844499999998,
          "velocity": 0.4251968503937008
        },
        {
          "duration": 0.0054823958333258815,
          "durationTicks": 4,
          "midi": 46,
          "name": "A#2",
          "ticks": 138052,
          "time": 189.2139273958333,
          "velocity": 0.49606299212598426
        },
        {
          "duration": 0.005482395833354303,
          "durationTicks": 4,
          "midi": 35,
          "name": "B1",
          "ticks": 138240,
          "time": 189.47159999999997,
          "velocity": 0.8976377952755905
        },
        {
          "duration": 0.005482395833354303,
          "durationTicks": 4,
          "midi": 60,
          "name": "C4",
          "ticks": 138240,
          "time": 189.47159999999997,
          "velocity": 0.3858267716535433
        },
        {
          "duration": 0.0054823958333258815,
          "durationTicks": 4,
          "midi": 44,
          "name": "G#2",
          "ticks": 138244,
          "time": 189.47708239583332,
          "velocity": 0.5275590551181102
        },
        {
          "duration": 0.005482395833354303,
          "durationTicks": 4,
          "midi": 70,
          "name": "A#4",
          "ticks": 138432,
          "time": 189.73475499999998,
          "velocity": 0.7795275590551181
        },
        {
          "duration": 0.00548239583329746,
          "durationTicks": 4,
          "midi": 46,
          "name": "A#2",
          "ticks": 138436,
          "time": 189.74023739583333,
          "velocity": 0.49606299212598426
        },
        {
          "duration": 0.005482395833354303,
          "durationTicks": 4,
          "midi": 60,
          "name": "C4",
          "ticks": 138528,
          "time": 189.86633249999997,
          "velocity": 0.31496062992125984
        },
        {
          "duration": 0.0054823958333258815,
          "durationTicks": 4,
          "midi": 35,
          "name": "B1",
          "ticks": 138624,
          "time": 189.99791,
          "velocity": 0.8661417322834646
        },
        {
          "duration": 0.0054823958333258815,
          "durationTicks": 4,
          "midi": 40,
          "name": "E2",
          "ticks": 138628,
          "time": 190.00339239583332,
          "velocity": 0.8976377952755905
        },
        {
          "duration": 0.0054823958333258815,
          "durationTicks": 4,
          "midi": 44,
          "name": "G#2",
          "ticks": 138628,
          "time": 190.00339239583332,
          "velocity": 0.49606299212598426
        },
        {
          "duration": 0.0054823958333258815,
          "durationTicks": 4,
          "midi": 39,
          "name": "D#2",
          "ticks": 138632,
          "time": 190.00887479166664,
          "velocity": 0.7795275590551181
        },
        {
          "duration": 0.005482395833354303,
          "durationTicks": 4,
          "midi": 60,
          "name": "C4",
          "ticks": 138720,
          "time": 190.12948749999998,
          "velocity": 0.33858267716535434
        },
        {
          "duration": 0.005482395833354303,
          "durationTicks": 4,
          "midi": 70,
          "name": "A#4",
          "ticks": 138816,
          "time": 190.26106499999997,
          "velocity": 0.6141732283464567
        },
        {
          "duration": 0.005482395833354303,
          "durationTicks": 4,
          "midi": 63,
          "name": "D#4",
          "ticks": 138816,
          "time": 190.26106499999997,
          "velocity": 0.31496062992125984
        },
        {
          "duration": 0.00548239583329746,
          "durationTicks": 4,
          "midi": 46,
          "name": "A#2",
          "ticks": 138820,
          "time": 190.26654739583333,
          "velocity": 0.49606299212598426
        },
        {
          "duration": 0.0054823958333258815,
          "durationTicks": 4,
          "midi": 70,
          "name": "A#4",
          "ticks": 138912,
          "time": 190.3926425,
          "velocity": 0.6692913385826772
        },
        {
          "duration": 0.0054823958333258815,
          "durationTicks": 4,
          "midi": 35,
          "name": "B1",
          "ticks": 139008,
          "time": 190.52421999999999,
          "velocity": 0.8976377952755905
        },
        {
          "duration": 0.0054823958333258815,
          "durationTicks": 4,
          "midi": 60,
          "name": "C4",
          "ticks": 139008,
          "time": 190.52421999999999,
          "velocity": 0.3858267716535433
        },
        {
          "duration": 0.0054823958333258815,
          "durationTicks": 4,
          "midi": 44,
          "name": "G#2",
          "ticks": 139012,
          "time": 190.5297023958333,
          "velocity": 0.49606299212598426
        },
        {
          "duration": 0.005482395833354303,
          "durationTicks": 4,
          "midi": 70,
          "name": "A#4",
          "ticks": 139200,
          "time": 190.78737499999997,
          "velocity": 0.7795275590551181
        },
        {
          "duration": 0.0054823958333258815,
          "durationTicks": 4,
          "midi": 46,
          "name": "A#2",
          "ticks": 139204,
          "time": 190.79285739583332,
          "velocity": 0.49606299212598426
        },
        {
          "duration": 0.0054823958333258815,
          "durationTicks": 4,
          "midi": 60,
          "name": "C4",
          "ticks": 139296,
          "time": 190.9189525,
          "velocity": 0.31496062992125984
        },
        {
          "duration": 0.005482395833354303,
          "durationTicks": 4,
          "midi": 35,
          "name": "B1",
          "ticks": 139392,
          "time": 191.05052999999998,
          "velocity": 0.8976377952755905
        },
        {
          "duration": 0.00548239583329746,
          "durationTicks": 4,
          "midi": 40,
          "name": "E2",
          "ticks": 139396,
          "time": 191.05601239583333,
          "velocity": 0.8976377952755905
        },
        {
          "duration": 0.00548239583329746,
          "durationTicks": 4,
          "midi": 44,
          "name": "G#2",
          "ticks": 139396,
          "time": 191.05601239583333,
          "velocity": 0.5275590551181102
        },
        {
          "duration": 0.005482395833354303,
          "durationTicks": 4,
          "midi": 39,
          "name": "D#2",
          "ticks": 139400,
          "time": 191.06149479166663,
          "velocity": 0.7795275590551181
        },
        {
          "duration": 0.005482395833354303,
          "durationTicks": 4,
          "midi": 60,
          "name": "C4",
          "ticks": 139488,
          "time": 191.18210749999997,
          "velocity": 0.31496062992125984
        },
        {
          "duration": 0.0054823958333258815,
          "durationTicks": 4,
          "midi": 70,
          "name": "A#4",
          "ticks": 139584,
          "time": 191.313685,
          "velocity": 0.6377952755905512
        },
        {
          "duration": 0.0054823958333258815,
          "durationTicks": 4,
          "midi": 63,
          "name": "D#4",
          "ticks": 139584,
          "time": 191.313685,
          "velocity": 0.3858267716535433
        },
        {
          "duration": 0.0054823958333258815,
          "durationTicks": 4,
          "midi": 46,
          "name": "A#2",
          "ticks": 139588,
          "time": 191.31916739583332,
          "velocity": 0.5275590551181102
        },
        {
          "duration": 0.0054823958333258815,
          "durationTicks": 4,
          "midi": 70,
          "name": "A#4",
          "ticks": 139680,
          "time": 191.44526249999998,
          "velocity": 0.7795275590551181
        },
        {
          "duration": 0.005482395833354303,
          "durationTicks": 4,
          "midi": 35,
          "name": "B1",
          "ticks": 139776,
          "time": 191.57683999999998,
          "velocity": 0.8661417322834646
        },
        {
          "duration": 0.005482395833354303,
          "durationTicks": 4,
          "midi": 69,
          "name": "A4",
          "ticks": 139776,
          "time": 191.57683999999998,
          "velocity": 0.5826771653543307
        },
        {
          "duration": 0.005482395833354303,
          "durationTicks": 4,
          "midi": 60,
          "name": "C4",
          "ticks": 139776,
          "time": 191.57683999999998,
          "velocity": 0.4251968503937008
        },
        {
          "duration": 0.00548239583329746,
          "durationTicks": 4,
          "midi": 44,
          "name": "G#2",
          "ticks": 139780,
          "time": 191.58232239583333,
          "velocity": 0.5984251968503937
        },
        {
          "duration": 0.0054823958333258815,
          "durationTicks": 4,
          "midi": 69,
          "name": "A4",
          "ticks": 139868,
          "time": 191.70293510416664,
          "velocity": 0.2204724409448819
        },
        {
          "duration": 0.005482395833354303,
          "durationTicks": 4,
          "midi": 69,
          "name": "A4",
          "ticks": 139952,
          "time": 191.81806541666663,
          "velocity": 0.8031496062992126
        },
        {
          "duration": 0.0054823958333258815,
          "durationTicks": 4,
          "midi": 70,
          "name": "A#4",
          "ticks": 139968,
          "time": 191.839995,
          "velocity": 0.7795275590551181
        },
        {
          "duration": 0.0054823958333258815,
          "durationTicks": 4,
          "midi": 46,
          "name": "A#2",
          "ticks": 139972,
          "time": 191.8454773958333,
          "velocity": 0.49606299212598426
        },
        {
          "duration": 0.0054823958333258815,
          "durationTicks": 4,
          "midi": 69,
          "name": "A4",
          "ticks": 140048,
          "time": 191.94964291666665,
          "velocity": 0.8031496062992126
        },
        {
          "duration": 0.005482395833354303,
          "durationTicks": 4,
          "midi": 60,
          "name": "C4",
          "ticks": 140064,
          "time": 191.97157249999998,
          "velocity": 0.4251968503937008
        },
        {
          "duration": 0.005482395833354303,
          "durationTicks": 4,
          "midi": 35,
          "name": "B1",
          "ticks": 140160,
          "time": 192.10314999999997,
          "velocity": 0.8976377952755905
        },
        {
          "duration": 0.00548239583329746,
          "durationTicks": 4,
          "midi": 40,
          "name": "E2",
          "ticks": 140164,
          "time": 192.10863239583333,
          "velocity": 0.8661417322834646
        },
        {
          "duration": 0.00548239583329746,
          "durationTicks": 4,
          "midi": 44,
          "name": "G#2",
          "ticks": 140164,
          "time": 192.10863239583333,
          "velocity": 0.47244094488188976
        },
        {
          "duration": 0.005482395833354303,
          "durationTicks": 4,
          "midi": 39,
          "name": "D#2",
          "ticks": 140168,
          "time": 192.11411479166662,
          "velocity": 0.7480314960629921
        },
        {
          "duration": 0.0054823958333258815,
          "durationTicks": 4,
          "midi": 60,
          "name": "C4",
          "ticks": 140256,
          "time": 192.2347275,
          "velocity": 0.33858267716535434
        },
        {
          "duration": 0.005482395833354303,
          "durationTicks": 4,
          "midi": 70,
          "name": "A#4",
          "ticks": 140352,
          "time": 192.36630499999998,
          "velocity": 0.6377952755905512
        },
        {
          "duration": 0.005482395833354303,
          "durationTicks": 4,
          "midi": 63,
          "name": "D#4",
          "ticks": 140352,
          "time": 192.36630499999998,
          "velocity": 0.3858267716535433
        },
        {
          "duration": 0.005482395833354303,
          "durationTicks": 4,
          "midi": 70,
          "name": "A#4",
          "ticks": 140448,
          "time": 192.49788249999997,
          "velocity": 0.7795275590551181
        },
        {
          "duration": 0.005482395833354303,
          "durationTicks": 4,
          "midi": 35,
          "name": "B1",
          "ticks": 140544,
          "time": 192.62945999999997,
          "velocity": 0.8661417322834646
        },
        {
          "duration": 0.005482395833354303,
          "durationTicks": 4,
          "midi": 60,
          "name": "C4",
          "ticks": 140544,
          "time": 192.62945999999997,
          "velocity": 0.4251968503937008
        },
        {
          "duration": 0.005482395833354303,
          "durationTicks": 4,
          "midi": 70,
          "name": "A#4",
          "ticks": 140736,
          "time": 192.89261499999998,
          "velocity": 0.7401574803149606
        },
        {
          "duration": 0.00548239583329746,
          "durationTicks": 4,
          "midi": 46,
          "name": "A#2",
          "ticks": 140740,
          "time": 192.89809739583333,
          "velocity": 0.5275590551181102
        },
        {
          "duration": 0.005482395833354303,
          "durationTicks": 4,
          "midi": 60,
          "name": "C4",
          "ticks": 140832,
          "time": 193.02419249999997,
          "velocity": 0.33858267716535434
        },
        {
          "duration": 0.0054823958333258815,
          "durationTicks": 4,
          "midi": 35,
          "name": "B1",
          "ticks": 140928,
          "time": 193.15577,
          "velocity": 0.8976377952755905
        },
        {
          "duration": 0.0054823958333258815,
          "durationTicks": 4,
          "midi": 40,
          "name": "E2",
          "ticks": 140932,
          "time": 193.16125239583332,
          "velocity": 0.8661417322834646
        },
        {
          "duration": 0.0054823958333258815,
          "durationTicks": 4,
          "midi": 44,
          "name": "G#2",
          "ticks": 140932,
          "time": 193.16125239583332,
          "velocity": 0.5275590551181102
        },
        {
          "duration": 0.0054823958333258815,
          "durationTicks": 4,
          "midi": 39,
          "name": "D#2",
          "ticks": 140936,
          "time": 193.16673479166664,
          "velocity": 0.7480314960629921
        },
        {
          "duration": 0.005482395833354303,
          "durationTicks": 4,
          "midi": 60,
          "name": "C4",
          "ticks": 141024,
          "time": 193.28734749999998,
          "velocity": 0.3858267716535433
        },
        {
          "duration": 0.005482395833354303,
          "durationTicks": 4,
          "midi": 70,
          "name": "A#4",
          "ticks": 141120,
          "time": 193.41892499999997,
          "velocity": 0.7401574803149606
        },
        {
          "duration": 0.005482395833354303,
          "durationTicks": 4,
          "midi": 63,
          "name": "D#4",
          "ticks": 141120,
          "time": 193.41892499999997,
          "velocity": 0.4251968503937008
        },
        {
          "duration": 0.00548239583329746,
          "durationTicks": 4,
          "midi": 46,
          "name": "A#2",
          "ticks": 141124,
          "time": 193.42440739583333,
          "velocity": 0.49606299212598426
        },
        {
          "duration": 0.0054823958333258815,
          "durationTicks": 4,
          "midi": 35,
          "name": "B1",
          "ticks": 141312,
          "time": 193.68207999999998,
          "velocity": 0.8661417322834646
        },
        {
          "duration": 0.0054823958333258815,
          "durationTicks": 4,
          "midi": 60,
          "name": "C4",
          "ticks": 141312,
          "time": 193.68207999999998,
          "velocity": 0.4251968503937008
        },
        {
          "duration": 0.0054823958333258815,
          "durationTicks": 4,
          "midi": 44,
          "name": "G#2",
          "ticks": 141316,
          "time": 193.6875623958333,
          "velocity": 0.49606299212598426
        },
        {
          "duration": 0.005482395833354303,
          "durationTicks": 4,
          "midi": 70,
          "name": "A#4",
          "ticks": 141504,
          "time": 193.94523499999997,
          "velocity": 0.7401574803149606
        },
        {
          "duration": 0.0054823958333258815,
          "durationTicks": 4,
          "midi": 46,
          "name": "A#2",
          "ticks": 141508,
          "time": 193.95071739583332,
          "velocity": 0.47244094488188976
        },
        {
          "duration": 0.0054823958333258815,
          "durationTicks": 4,
          "midi": 60,
          "name": "C4",
          "ticks": 141600,
          "time": 194.0768125,
          "velocity": 0.25984251968503935
        },
        {
          "duration": 0.005482395833354303,
          "durationTicks": 4,
          "midi": 35,
          "name": "B1",
          "ticks": 141696,
          "time": 194.20838999999998,
          "velocity": 0.8661417322834646
        },
        {
          "duration": 0.00548239583329746,
          "durationTicks": 4,
          "midi": 40,
          "name": "E2",
          "ticks": 141700,
          "time": 194.21387239583333,
          "velocity": 0.8661417322834646
        },
        {
          "duration": 0.00548239583329746,
          "durationTicks": 4,
          "midi": 44,
          "name": "G#2",
          "ticks": 141700,
          "time": 194.21387239583333,
          "velocity": 0.49606299212598426
        },
        {
          "duration": 0.005482395833354303,
          "durationTicks": 4,
          "midi": 39,
          "name": "D#2",
          "ticks": 141704,
          "time": 194.21935479166663,
          "velocity": 0.7480314960629921
        },
        {
          "duration": 0.005482395833354303,
          "durationTicks": 4,
          "midi": 60,
          "name": "C4",
          "ticks": 141792,
          "time": 194.33996749999997,
          "velocity": 0.28346456692913385
        },
        {
          "duration": 0.0054823958333258815,
          "durationTicks": 4,
          "midi": 70,
          "name": "A#4",
          "ticks": 141888,
          "time": 194.471545,
          "velocity": 0.6141732283464567
        },
        {
          "duration": 0.0054823958333258815,
          "durationTicks": 4,
          "midi": 63,
          "name": "D#4",
          "ticks": 141888,
          "time": 194.471545,
          "velocity": 0.3858267716535433
        },
        {
          "duration": 0.0054823958333258815,
          "durationTicks": 4,
          "midi": 46,
          "name": "A#2",
          "ticks": 141892,
          "time": 194.47702739583332,
          "velocity": 0.4251968503937008
        },
        {
          "duration": 0.0054823958333258815,
          "durationTicks": 4,
          "midi": 70,
          "name": "A#4",
          "ticks": 141984,
          "time": 194.60312249999998,
          "velocity": 0.7401574803149606
        },
        {
          "duration": 0.005482395833354303,
          "durationTicks": 4,
          "midi": 35,
          "name": "B1",
          "ticks": 142080,
          "time": 194.73469999999998,
          "velocity": 0.8661417322834646
        },
        {
          "duration": 0.005482395833354303,
          "durationTicks": 4,
          "midi": 60,
          "name": "C4",
          "ticks": 142080,
          "time": 194.73469999999998,
          "velocity": 0.4251968503937008
        },
        {
          "duration": 0.00548239583329746,
          "durationTicks": 4,
          "midi": 44,
          "name": "G#2",
          "ticks": 142084,
          "time": 194.74018239583333,
          "velocity": 0.49606299212598426
        },
        {
          "duration": 0.0054823958333258815,
          "durationTicks": 4,
          "midi": 70,
          "name": "A#4",
          "ticks": 142272,
          "time": 194.997855,
          "velocity": 0.7401574803149606
        },
        {
          "duration": 0.0054823958333258815,
          "durationTicks": 4,
          "midi": 46,
          "name": "A#2",
          "ticks": 142276,
          "time": 195.0033373958333,
          "velocity": 0.4251968503937008
        },
        {
          "duration": 0.005482395833354303,
          "durationTicks": 4,
          "midi": 60,
          "name": "C4",
          "ticks": 142368,
          "time": 195.12943249999998,
          "velocity": 0.33858267716535434
        },
        {
          "duration": 0.005482395833354303,
          "durationTicks": 4,
          "midi": 35,
          "name": "B1",
          "ticks": 142464,
          "time": 195.26100999999997,
          "velocity": 0.8976377952755905
        },
        {
          "duration": 0.00548239583329746,
          "durationTicks": 4,
          "midi": 40,
          "name": "E2",
          "ticks": 142468,
          "time": 195.26649239583332,
          "velocity": 0.8661417322834646
        },
        {
          "duration": 0.00548239583329746,
          "durationTicks": 4,
          "midi": 44,
          "name": "G#2",
          "ticks": 142468,
          "time": 195.26649239583332,
          "velocity": 0.49606299212598426
        },
        {
          "duration": 0.005482395833354303,
          "durationTicks": 4,
          "midi": 39,
          "name": "D#2",
          "ticks": 142472,
          "time": 195.27197479166662,
          "velocity": 0.7480314960629921
        },
        {
          "duration": 0.0054823958333258815,
          "durationTicks": 4,
          "midi": 60,
          "name": "C4",
          "ticks": 142560,
          "time": 195.3925875,
          "velocity": 0.31496062992125984
        },
        {
          "duration": 0.005482395833354303,
          "durationTicks": 4,
          "midi": 70,
          "name": "A#4",
          "ticks": 142656,
          "time": 195.52416499999998,
          "velocity": 0.6141732283464567
        },
        {
          "duration": 0.005482395833354303,
          "durationTicks": 4,
          "midi": 63,
          "name": "D#4",
          "ticks": 142656,
          "time": 195.52416499999998,
          "velocity": 0.3858267716535433
        },
        {
          "duration": 0.00548239583329746,
          "durationTicks": 4,
          "midi": 46,
          "name": "A#2",
          "ticks": 142660,
          "time": 195.52964739583334,
          "velocity": 0.47244094488188976
        },
        {
          "duration": 0.005482395833354303,
          "durationTicks": 4,
          "midi": 70,
          "name": "A#4",
          "ticks": 142752,
          "time": 195.65574249999997,
          "velocity": 0.7795275590551181
        },
        {
          "duration": 0.005482395833354303,
          "durationTicks": 4,
          "midi": 35,
          "name": "B1",
          "ticks": 142848,
          "time": 195.78731999999997,
          "velocity": 0.8976377952755905
        },
        {
          "duration": 0.005482395833354303,
          "durationTicks": 4,
          "midi": 69,
          "name": "A4",
          "ticks": 142848,
          "time": 195.78731999999997,
          "velocity": 0.5826771653543307
        },
        {
          "duration": 0.005482395833354303,
          "durationTicks": 4,
          "midi": 60,
          "name": "C4",
          "ticks": 142848,
          "time": 195.78731999999997,
          "velocity": 0.4251968503937008
        },
        {
          "duration": 0.0054823958333258815,
          "durationTicks": 4,
          "midi": 44,
          "name": "G#2",
          "ticks": 142852,
          "time": 195.79280239583332,
          "velocity": 0.49606299212598426
        },
        {
          "duration": 0.005482395833354303,
          "durationTicks": 4,
          "midi": 69,
          "name": "A4",
          "ticks": 142940,
          "time": 195.91341510416663,
          "velocity": 0.2204724409448819
        },
        {
          "duration": 0.0054823958333258815,
          "durationTicks": 4,
          "midi": 69,
          "name": "A4",
          "ticks": 143024,
          "time": 196.02854541666665,
          "velocity": 0.8031496062992126
        },
        {
          "duration": 0.005482395833354303,
          "durationTicks": 4,
          "midi": 70,
          "name": "A#4",
          "ticks": 143040,
          "time": 196.05047499999998,
          "velocity": 0.7401574803149606
        },
        {
          "duration": 0.00548239583329746,
          "durationTicks": 4,
          "midi": 46,
          "name": "A#2",
          "ticks": 143044,
          "time": 196.05595739583333,
          "velocity": 0.5275590551181102
        },
        {
          "duration": 0.005482395833354303,
          "durationTicks": 4,
          "midi": 69,
          "name": "A4",
          "ticks": 143120,
          "time": 196.16012291666664,
          "velocity": 0.8031496062992126
        },
        {
          "duration": 0.005482395833354303,
          "durationTicks": 4,
          "midi": 60,
          "name": "C4",
          "ticks": 143136,
          "time": 196.18205249999997,
          "velocity": 0.33858267716535434
        },
        {
          "duration": 0.0054823958333258815,
          "durationTicks": 4,
          "midi": 35,
          "name": "B1",
          "ticks": 143232,
          "time": 196.31363,
          "velocity": 0.8976377952755905
        },
        {
          "duration": 0.0054823958333258815,
          "durationTicks": 4,
          "midi": 40,
          "name": "E2",
          "ticks": 143236,
          "time": 196.31911239583332,
          "velocity": 0.8976377952755905
        },
        {
          "duration": 0.0054823958333258815,
          "durationTicks": 4,
          "midi": 44,
          "name": "G#2",
          "ticks": 143236,
          "time": 196.31911239583332,
          "velocity": 0.5984251968503937
        },
        {
          "duration": 0.0054823958333258815,
          "durationTicks": 4,
          "midi": 39,
          "name": "D#2",
          "ticks": 143240,
          "time": 196.32459479166664,
          "velocity": 0.7795275590551181
        },
        {
          "duration": 0.005482395833354303,
          "durationTicks": 4,
          "midi": 60,
          "name": "C4",
          "ticks": 143328,
          "time": 196.44520749999998,
          "velocity": 0.31496062992125984
        },
        {
          "duration": 0.005482395833354303,
          "durationTicks": 4,
          "midi": 70,
          "name": "A#4",
          "ticks": 143424,
          "time": 196.57678499999997,
          "velocity": 0.5669291338582677
        },
        {
          "duration": 0.005482395833354303,
          "durationTicks": 4,
          "midi": 63,
          "name": "D#4",
          "ticks": 143424,
          "time": 196.57678499999997,
          "velocity": 0.31496062992125984
        },
        {
          "duration": 0.0054823958333258815,
          "durationTicks": 4,
          "midi": 70,
          "name": "A#4",
          "ticks": 143520,
          "time": 196.7083625,
          "velocity": 0.6692913385826772
        },
        {
          "duration": 0.0054823958333258815,
          "durationTicks": 4,
          "midi": 35,
          "name": "B1",
          "ticks": 143616,
          "time": 196.83993999999998,
          "velocity": 0.8661417322834646
        },
        {
          "duration": 0.0054823958333258815,
          "durationTicks": 4,
          "midi": 60,
          "name": "C4",
          "ticks": 143616,
          "time": 196.83993999999998,
          "velocity": 0.4251968503937008
        },
        {
          "duration": 0.005482395833354303,
          "durationTicks": 4,
          "midi": 70,
          "name": "A#4",
          "ticks": 143808,
          "time": 197.10309499999997,
          "velocity": 0.7401574803149606
        },
        {
          "duration": 0.0054823958333258815,
          "durationTicks": 4,
          "midi": 46,
          "name": "A#2",
          "ticks": 143812,
          "time": 197.10857739583332,
          "velocity": 0.49606299212598426
        },
        {
          "duration": 0.0054823958333258815,
          "durationTicks": 4,
          "midi": 60,
          "name": "C4",
          "ticks": 143904,
          "time": 197.2346725,
          "velocity": 0.31496062992125984
        },
        {
          "duration": 0.005482395833354303,
          "durationTicks": 4,
          "midi": 35,
          "name": "B1",
          "ticks": 144000,
          "time": 197.36624999999998,
          "velocity": 0.8976377952755905
        },
        {
          "duration": 0.00548239583329746,
          "durationTicks": 4,
          "midi": 40,
          "name": "E2",
          "ticks": 144004,
          "time": 197.37173239583333,
          "velocity": 0.8976377952755905
        },
        {
          "duration": 0.00548239583329746,
          "durationTicks": 4,
          "midi": 44,
          "name": "G#2",
          "ticks": 144004,
          "time": 197.37173239583333,
          "velocity": 0.49606299212598426
        },
        {
          "duration": 0.005482395833354303,
          "durationTicks": 4,
          "midi": 39,
          "name": "D#2",
          "ticks": 144008,
          "time": 197.37721479166663,
          "velocity": 0.7795275590551181
        },
        {
          "duration": 0.005482395833354303,
          "durationTicks": 4,
          "midi": 60,
          "name": "C4",
          "ticks": 144096,
          "time": 197.49782749999997,
          "velocity": 0.33858267716535434
        },
        {
          "duration": 0.0054823958333258815,
          "durationTicks": 4,
          "midi": 70,
          "name": "A#4",
          "ticks": 144192,
          "time": 197.629405,
          "velocity": 0.7401574803149606
        },
        {
          "duration": 0.0054823958333258815,
          "durationTicks": 4,
          "midi": 63,
          "name": "D#4",
          "ticks": 144192,
          "time": 197.629405,
          "velocity": 0.4251968503937008
        },
        {
          "duration": 0.0054823958333258815,
          "durationTicks": 4,
          "midi": 46,
          "name": "A#2",
          "ticks": 144196,
          "time": 197.63488739583332,
          "velocity": 0.49606299212598426
        },
        {
          "duration": 0.005482395833354303,
          "durationTicks": 4,
          "midi": 35,
          "name": "B1",
          "ticks": 144384,
          "time": 197.89255999999997,
          "velocity": 0.8976377952755905
        },
        {
          "duration": 0.005482395833354303,
          "durationTicks": 4,
          "midi": 60,
          "name": "C4",
          "ticks": 144384,
          "time": 197.89255999999997,
          "velocity": 0.3858267716535433
        },
        {
          "duration": 0.00548239583329746,
          "durationTicks": 4,
          "midi": 44,
          "name": "G#2",
          "ticks": 144388,
          "time": 197.89804239583333,
          "velocity": 0.5275590551181102
        },
        {
          "duration": 0.0054823958333258815,
          "durationTicks": 4,
          "midi": 70,
          "name": "A#4",
          "ticks": 144576,
          "time": 198.155715,
          "velocity": 0.7795275590551181
        },
        {
          "duration": 0.0054823958333258815,
          "durationTicks": 4,
          "midi": 46,
          "name": "A#2",
          "ticks": 144580,
          "time": 198.1611973958333,
          "velocity": 0.49606299212598426
        },
        {
          "duration": 0.005482395833354303,
          "durationTicks": 4,
          "midi": 60,
          "name": "C4",
          "ticks": 144672,
          "time": 198.28729249999998,
          "velocity": 0.31496062992125984
        },
        {
          "duration": 0.005482395833354303,
          "durationTicks": 4,
          "midi": 35,
          "name": "B1",
          "ticks": 144768,
          "time": 198.41886999999997,
          "velocity": 0.8661417322834646
        },
        {
          "duration": 0.00548239583329746,
          "durationTicks": 4,
          "midi": 40,
          "name": "E2",
          "ticks": 144772,
          "time": 198.42435239583332,
          "velocity": 0.8976377952755905
        },
        {
          "duration": 0.00548239583329746,
          "durationTicks": 4,
          "midi": 44,
          "name": "G#2",
          "ticks": 144772,
          "time": 198.42435239583332,
          "velocity": 0.49606299212598426
        },
        {
          "duration": 0.005482395833354303,
          "durationTicks": 4,
          "midi": 39,
          "name": "D#2",
          "ticks": 144776,
          "time": 198.42983479166662,
          "velocity": 0.7795275590551181
        },
        {
          "duration": 0.0054823958333258815,
          "durationTicks": 4,
          "midi": 60,
          "name": "C4",
          "ticks": 144864,
          "time": 198.5504475,
          "velocity": 0.33858267716535434
        },
        {
          "duration": 0.005482395833354303,
          "durationTicks": 4,
          "midi": 70,
          "name": "A#4",
          "ticks": 144960,
          "time": 198.68202499999998,
          "velocity": 0.6141732283464567
        },
        {
          "duration": 0.005482395833354303,
          "durationTicks": 4,
          "midi": 63,
          "name": "D#4",
          "ticks": 144960,
          "time": 198.68202499999998,
          "velocity": 0.31496062992125984
        },
        {
          "duration": 0.00548239583329746,
          "durationTicks": 4,
          "midi": 46,
          "name": "A#2",
          "ticks": 144964,
          "time": 198.68750739583334,
          "velocity": 0.49606299212598426
        },
        {
          "duration": 0.005482395833354303,
          "durationTicks": 4,
          "midi": 70,
          "name": "A#4",
          "ticks": 145056,
          "time": 198.81360249999997,
          "velocity": 0.6692913385826772
        },
        {
          "duration": 0.005482395833354303,
          "durationTicks": 4,
          "midi": 35,
          "name": "B1",
          "ticks": 145152,
          "time": 198.94517999999997,
          "velocity": 0.8976377952755905
        },
        {
          "duration": 0.005482395833354303,
          "durationTicks": 4,
          "midi": 60,
          "name": "C4",
          "ticks": 145152,
          "time": 198.94517999999997,
          "velocity": 0.3858267716535433
        },
        {
          "duration": 0.0054823958333258815,
          "durationTicks": 4,
          "midi": 44,
          "name": "G#2",
          "ticks": 145156,
          "time": 198.95066239583332,
          "velocity": 0.49606299212598426
        },
        {
          "duration": 0.005482395833354303,
          "durationTicks": 4,
          "midi": 70,
          "name": "A#4",
          "ticks": 145344,
          "time": 199.20833499999998,
          "velocity": 0.7795275590551181
        },
        {
          "duration": 0.00548239583329746,
          "durationTicks": 4,
          "midi": 46,
          "name": "A#2",
          "ticks": 145348,
          "time": 199.21381739583333,
          "velocity": 0.49606299212598426
        },
        {
          "duration": 0.005482395833354303,
          "durationTicks": 4,
          "midi": 60,
          "name": "C4",
          "ticks": 145440,
          "time": 199.33991249999997,
          "velocity": 0.31496062992125984
        },
        {
          "duration": 0.0054823958333258815,
          "durationTicks": 4,
          "midi": 35,
          "name": "B1",
          "ticks": 145536,
          "time": 199.47149,
          "velocity": 0.8976377952755905
        },
        {
          "duration": 0.0054823958333258815,
          "durationTicks": 4,
          "midi": 40,
          "name": "E2",
          "ticks": 145540,
          "time": 199.47697239583331,
          "velocity": 0.8976377952755905
        },
        {
          "duration": 0.0054823958333258815,
          "durationTicks": 4,
          "midi": 44,
          "name": "G#2",
          "ticks": 145540,
          "time": 199.47697239583331,
          "velocity": 0.5275590551181102
        },
        {
          "duration": 0.0054823958333258815,
          "durationTicks": 4,
          "midi": 39,
          "name": "D#2",
          "ticks": 145544,
          "time": 199.48245479166664,
          "velocity": 0.7795275590551181
        },
        {
          "duration": 0.005482395833354303,
          "durationTicks": 4,
          "midi": 60,
          "name": "C4",
          "ticks": 145632,
          "time": 199.60306749999998,
          "velocity": 0.31496062992125984
        },
        {
          "duration": 0.00548239583329746,
          "durationTicks": 4,
          "midi": 40,
          "name": "E2",
          "ticks": 145636,
          "time": 199.60854989583333,
          "velocity": 0.8976377952755905
        },
        {
          "duration": 0.005482395833354303,
          "durationTicks": 4,
          "midi": 39,
          "name": "D#2",
          "ticks": 145640,
          "time": 199.61403229166663,
          "velocity": 0.7795275590551181
        },
        {
          "duration": 0.005482395833354303,
          "durationTicks": 4,
          "midi": 70,
          "name": "A#4",
          "ticks": 145728,
          "time": 199.73464499999997,
          "velocity": 0.6377952755905512
        },
        {
          "duration": 0.005482395833354303,
          "durationTicks": 4,
          "midi": 63,
          "name": "D#4",
          "ticks": 145728,
          "time": 199.73464499999997,
          "velocity": 0.3858267716535433
        },
        {
          "duration": 0.00548239583329746,
          "durationTicks": 4,
          "midi": 46,
          "name": "A#2",
          "ticks": 145732,
          "time": 199.74012739583333,
          "velocity": 0.5275590551181102
        },
        {
          "duration": 0.0054823958333258815,
          "durationTicks": 4,
          "midi": 70,
          "name": "A#4",
          "ticks": 145824,
          "time": 199.8662225,
          "velocity": 0.7795275590551181
        },
        {
          "duration": 0.0054823958333258815,
          "durationTicks": 4,
          "midi": 35,
          "name": "B1",
          "ticks": 145920,
          "time": 199.99779999999998,
          "velocity": 0.8661417322834646
        },
        {
          "duration": 0.0054823958333258815,
          "durationTicks": 4,
          "midi": 69,
          "name": "A4",
          "ticks": 145920,
          "time": 199.99779999999998,
          "velocity": 0.5826771653543307
        },
        {
          "duration": 0.0054823958333258815,
          "durationTicks": 4,
          "midi": 60,
          "name": "C4",
          "ticks": 145920,
          "time": 199.99779999999998,
          "velocity": 0.4251968503937008
        },
        {
          "duration": 0.0054823958333258815,
          "durationTicks": 4,
          "midi": 44,
          "name": "G#2",
          "ticks": 145924,
          "time": 200.0032823958333,
          "velocity": 0.5984251968503937
        },
        {
          "duration": 0.0054823958333258815,
          "durationTicks": 4,
          "midi": 69,
          "name": "A4",
          "ticks": 146012,
          "time": 200.12389510416665,
          "velocity": 0.2204724409448819
        },
        {
          "duration": 0.005482395833354303,
          "durationTicks": 4,
          "midi": 69,
          "name": "A4",
          "ticks": 146096,
          "time": 200.23902541666664,
          "velocity": 0.8031496062992126
        },
        {
          "duration": 0.005482395833354303,
          "durationTicks": 4,
          "midi": 70,
          "name": "A#4",
          "ticks": 146112,
          "time": 200.26095499999997,
          "velocity": 0.7795275590551181
        },
        {
          "duration": 0.0054823958333258815,
          "durationTicks": 4,
          "midi": 46,
          "name": "A#2",
          "ticks": 146116,
          "time": 200.26643739583332,
          "velocity": 0.49606299212598426
        },
        {
          "duration": 0.005482395833354303,
          "durationTicks": 4,
          "midi": 69,
          "name": "A4",
          "ticks": 146192,
          "time": 200.37060291666663,
          "velocity": 0.7874015748031497
        },
        {
          "duration": 0.0054823958333258815,
          "durationTicks": 4,
          "midi": 60,
          "name": "C4",
          "ticks": 146208,
          "time": 200.3925325,
          "velocity": 0.41732283464566927
        },
        {
          "duration": 0.005482395833354303,
          "durationTicks": 4,
          "midi": 35,
          "name": "B1",
          "ticks": 146304,
          "time": 200.52410999999998,
          "velocity": 0.8740157480314961
        },
        {
          "duration": 0.00548239583329746,
          "durationTicks": 4,
          "midi": 40,
          "name": "E2",
          "ticks": 146308,
          "time": 200.52959239583333,
          "velocity": 0.84251968503937
        },
        {
          "duration": 0.00548239583329746,
          "durationTicks": 4,
          "midi": 44,
          "name": "G#2",
          "ticks": 146308,
          "time": 200.52959239583333,
          "velocity": 0.4566929133858268
        },
        {
          "duration": 0.005482395833354303,
          "durationTicks": 4,
          "midi": 39,
          "name": "D#2",
          "ticks": 146312,
          "time": 200.53507479166663,
          "velocity": 0.7244094488188977
        },
        {
          "duration": 0.005482395833354303,
          "durationTicks": 4,
          "midi": 60,
          "name": "C4",
          "ticks": 146400,
          "time": 200.65568749999997,
          "velocity": 0.3228346456692913
        },
        {
          "duration": 0.0054823958333258815,
          "durationTicks": 4,
          "midi": 70,
          "name": "A#4",
          "ticks": 146496,
          "time": 200.787265,
          "velocity": 0.6062992125984252
        },
        {
          "duration": 0.0054823958333258815,
          "durationTicks": 4,
          "midi": 63,
          "name": "D#4",
          "ticks": 146496,
          "time": 200.787265,
          "velocity": 0.36220472440944884
        },
        {
          "duration": 0.0054823958333258815,
          "durationTicks": 4,
          "midi": 70,
          "name": "A#4",
          "ticks": 146592,
          "time": 200.91884249999998,
          "velocity": 0.7322834645669292
        },
        {
          "duration": 0.005482395833354303,
          "durationTicks": 4,
          "midi": 35,
          "name": "B1",
          "ticks": 146688,
          "time": 201.05041999999997,
          "velocity": 0.8031496062992126
        },
        {
          "duration": 0.005482395833354303,
          "durationTicks": 4,
          "midi": 60,
          "name": "C4",
          "ticks": 146688,
          "time": 201.05041999999997,
          "velocity": 0.3937007874015748
        },
        {
          "duration": 0.0054823958333258815,
          "durationTicks": 4,
          "midi": 70,
          "name": "A#4",
          "ticks": 146880,
          "time": 201.313575,
          "velocity": 0.6771653543307087
        },
        {
          "duration": 0.0054823958333258815,
          "durationTicks": 4,
          "midi": 46,
          "name": "A#2",
          "ticks": 146884,
          "time": 201.3190573958333,
          "velocity": 0.48031496062992124
        },
        {
          "duration": 0.005482395833354303,
          "durationTicks": 4,
          "midi": 60,
          "name": "C4",
          "ticks": 146976,
          "time": 201.44515249999998,
          "velocity": 0.2992125984251969
        },
        {
          "duration": 0.005482395833354303,
          "durationTicks": 4,
          "midi": 35,
          "name": "B1",
          "ticks": 147072,
          "time": 201.57672999999997,
          "velocity": 0.8031496062992126
        },
        {
          "duration": 0.0054823958333258815,
          "durationTicks": 4,
          "midi": 40,
          "name": "E2",
          "ticks": 147076,
          "time": 201.58221239583332,
          "velocity": 0.7795275590551181
        },
        {
          "duration": 0.0054823958333258815,
          "durationTicks": 4,
          "midi": 44,
          "name": "G#2",
          "ticks": 147076,
          "time": 201.58221239583332,
          "velocity": 0.47244094488188976
        },
        {
          "duration": 0.0054823958333258815,
          "durationTicks": 4,
          "midi": 39,
          "name": "D#2",
          "ticks": 147080,
          "time": 201.58769479166665,
          "velocity": 0.6692913385826772
        },
        {
          "duration": 0.0054823958333258815,
          "durationTicks": 4,
          "midi": 60,
          "name": "C4",
          "ticks": 147168,
          "time": 201.7083075,
          "velocity": 0.33858267716535434
        },
        {
          "duration": 0.005482395833354303,
          "durationTicks": 4,
          "midi": 70,
          "name": "A#4",
          "ticks": 147264,
          "time": 201.83988499999998,
          "velocity": 0.6456692913385826
        },
        {
          "duration": 0.005482395833354303,
          "durationTicks": 4,
          "midi": 63,
          "name": "D#4",
          "ticks": 147264,
          "time": 201.83988499999998,
          "velocity": 0.36220472440944884
        },
        {
          "duration": 0.00548239583329746,
          "durationTicks": 4,
          "midi": 46,
          "name": "A#2",
          "ticks": 147268,
          "time": 201.84536739583334,
          "velocity": 0.4251968503937008
        },
        {
          "duration": 0.005482395833354303,
          "durationTicks": 4,
          "midi": 35,
          "name": "B1",
          "ticks": 147456,
          "time": 202.10303999999996,
          "velocity": 0.7401574803149606
        },
        {
          "duration": 0.005482395833354303,
          "durationTicks": 4,
          "midi": 60,
          "name": "C4",
          "ticks": 147456,
          "time": 202.10303999999996,
          "velocity": 0.3543307086614173
        },
        {
          "duration": 0.0054823958333258815,
          "durationTicks": 4,
          "midi": 44,
          "name": "G#2",
          "ticks": 147460,
          "time": 202.10852239583332,
          "velocity": 0.41732283464566927
        },
        {
          "duration": 0.005482395833354303,
          "durationTicks": 4,
          "midi": 70,
          "name": "A#4",
          "ticks": 147648,
          "time": 202.36619499999998,
          "velocity": 0.6141732283464567
        },
        {
          "duration": 0.00548239583329746,
          "durationTicks": 4,
          "midi": 46,
          "name": "A#2",
          "ticks": 147652,
          "time": 202.37167739583333,
          "velocity": 0.3858267716535433
        },
        {
          "duration": 0.005482395833354303,
          "durationTicks": 4,
          "midi": 60,
          "name": "C4",
          "ticks": 147744,
          "time": 202.49777249999997,
          "velocity": 0.2047244094488189
        },
        {
          "duration": 0.0054823958333258815,
          "durationTicks": 4,
          "midi": 35,
          "name": "B1",
          "ticks": 147840,
          "time": 202.62935,
          "velocity": 0.7086614173228346
        },
        {
          "duration": 0.0054823958333258815,
          "durationTicks": 4,
          "midi": 40,
          "name": "E2",
          "ticks": 147844,
          "time": 202.6348323958333,
          "velocity": 0.7086614173228346
        },
        {
          "duration": 0.0054823958333258815,
          "durationTicks": 4,
          "midi": 44,
          "name": "G#2",
          "ticks": 147844,
          "time": 202.6348323958333,
          "velocity": 0.4015748031496063
        },
        {
          "duration": 0.0054823958333258815,
          "durationTicks": 4,
          "midi": 39,
          "name": "D#2",
          "ticks": 147848,
          "time": 202.64031479166664,
          "velocity": 0.6141732283464567
        },
        {
          "duration": 0.005482395833354303,
          "durationTicks": 4,
          "midi": 60,
          "name": "C4",
          "ticks": 147936,
          "time": 202.76092749999998,
          "velocity": 0.2204724409448819
        },
        {
          "duration": 0.005482395833354303,
          "durationTicks": 4,
          "midi": 70,
          "name": "A#4",
          "ticks": 148032,
          "time": 202.89250499999997,
          "velocity": 0.4881889763779528
        },
        {
          "duration": 0.005482395833354303,
          "durationTicks": 4,
          "midi": 63,
          "name": "D#4",
          "ticks": 148032,
          "time": 202.89250499999997,
          "velocity": 0.2992125984251969
        },
        {
          "duration": 0.00548239583329746,
          "durationTicks": 4,
          "midi": 46,
          "name": "A#2",
          "ticks": 148036,
          "time": 202.89798739583333,
          "velocity": 0.33070866141732286
        },
        {
          "duration": 0.0054823958333258815,
          "durationTicks": 4,
          "midi": 70,
          "name": "A#4",
          "ticks": 148128,
          "time": 203.0240825,
          "velocity": 0.5826771653543307
        },
        {
          "duration": 0.0054823958333258815,
          "durationTicks": 4,
          "midi": 35,
          "name": "B1",
          "ticks": 148224,
          "time": 203.15565999999998,
          "velocity": 0.6771653543307087
        },
        {
          "duration": 0.0054823958333258815,
          "durationTicks": 4,
          "midi": 60,
          "name": "C4",
          "ticks": 148224,
          "time": 203.15565999999998,
          "velocity": 0.3228346456692913
        },
        {
          "duration": 0.0054823958333258815,
          "durationTicks": 4,
          "midi": 44,
          "name": "G#2",
          "ticks": 148228,
          "time": 203.1611423958333,
          "velocity": 0.3779527559055118
        },
        {
          "duration": 0.005482395833354303,
          "durationTicks": 4,
          "midi": 70,
          "name": "A#4",
          "ticks": 148416,
          "time": 203.41881499999997,
          "velocity": 0.5590551181102362
        },
        {
          "duration": 0.0054823958333258815,
          "durationTicks": 4,
          "midi": 46,
          "name": "A#2",
          "ticks": 148420,
          "time": 203.42429739583332,
          "velocity": 0.30708661417322836
        },
        {
          "duration": 0.0054823958333258815,
          "durationTicks": 4,
          "midi": 60,
          "name": "C4",
          "ticks": 148512,
          "time": 203.5503925,
          "velocity": 0.23622047244094488
        },
        {
          "duration": 0.005482395833354303,
          "durationTicks": 4,
          "midi": 35,
          "name": "B1",
          "ticks": 148608,
          "time": 203.68196999999998,
          "velocity": 0.6614173228346457
        },
        {
          "duration": 0.00548239583329746,
          "durationTicks": 4,
          "midi": 40,
          "name": "E2",
          "ticks": 148612,
          "time": 203.68745239583333,
          "velocity": 0.6377952755905512
        },
        {
          "duration": 0.00548239583329746,
          "durationTicks": 4,
          "midi": 44,
          "name": "G#2",
          "ticks": 148612,
          "time": 203.68745239583333,
          "velocity": 0.3543307086614173
        },
        {
          "duration": 0.005482395833354303,
          "durationTicks": 4,
          "midi": 39,
          "name": "D#2",
          "ticks": 148616,
          "time": 203.69293479166663,
          "velocity": 0.5433070866141733
        },
        {
          "duration": 0.005482395833354303,
          "durationTicks": 4,
          "midi": 60,
          "name": "C4",
          "ticks": 148704,
          "time": 203.81354749999997,
          "velocity": 0.2204724409448819
        },
        {
          "duration": 0.0054823958333258815,
          "durationTicks": 4,
          "midi": 70,
          "name": "A#4",
          "ticks": 148800,
          "time": 203.945125,
          "velocity": 0.4409448818897638
        },
        {
          "duration": 0.0054823958333258815,
          "durationTicks": 4,
          "midi": 63,
          "name": "D#4",
          "ticks": 148800,
          "time": 203.945125,
          "velocity": 0.2677165354330709
        },
        {
          "duration": 0.0054823958333258815,
          "durationTicks": 4,
          "midi": 46,
          "name": "A#2",
          "ticks": 148804,
          "time": 203.95060739583332,
          "velocity": 0.33070866141732286
        },
        {
          "duration": 0.0054823958333258815,
          "durationTicks": 4,
          "midi": 70,
          "name": "A#4",
          "ticks": 148896,
          "time": 204.07670249999998,
          "velocity": 0.5511811023622047
        },
        {
          "duration": 0.005482395833354303,
          "durationTicks": 4,
          "midi": 35,
          "name": "B1",
          "ticks": 148992,
          "time": 204.20827999999997,
          "velocity": 0.6299212598425197
        },
        {
          "duration": 0.005482395833354303,
          "durationTicks": 4,
          "midi": 69,
          "name": "A4",
          "ticks": 148992,
          "time": 204.20827999999997,
          "velocity": 0.4015748031496063
        },
        {
          "duration": 0.005482395833354303,
          "durationTicks": 4,
          "midi": 60,
          "name": "C4",
          "ticks": 148992,
          "time": 204.20827999999997,
          "velocity": 0.28346456692913385
        },
        {
          "duration": 0.00548239583329746,
          "durationTicks": 4,
          "midi": 44,
          "name": "G#2",
          "ticks": 148996,
          "time": 204.21376239583333,
          "velocity": 0.33858267716535434
        },
        {
          "duration": 0.0054823958333258815,
          "durationTicks": 4,
          "midi": 69,
          "name": "A4",
          "ticks": 149084,
          "time": 204.33437510416664,
          "velocity": 0.13385826771653545
        },
        {
          "duration": 0.005482395833354303,
          "durationTicks": 4,
          "midi": 69,
          "name": "A4",
          "ticks": 149168,
          "time": 204.44950541666663,
          "velocity": 0.5433070866141733
        },
        {
          "duration": 0.0054823958333258815,
          "durationTicks": 4,
          "midi": 70,
          "name": "A#4",
          "ticks": 149184,
          "time": 204.47143499999999,
          "velocity": 0.49606299212598426
        },
        {
          "duration": 0.0054823958333258815,
          "durationTicks": 4,
          "midi": 46,
          "name": "A#2",
          "ticks": 149188,
          "time": 204.4769173958333,
          "velocity": 0.3464566929133858
        },
        {
          "duration": 0.0054823958333258815,
          "durationTicks": 4,
          "midi": 69,
          "name": "A4",
          "ticks": 149264,
          "time": 204.58108291666665,
          "velocity": 0.5354330708661418
        },
        {
          "duration": 0.005482395833354303,
          "durationTicks": 4,
          "midi": 60,
          "name": "C4",
          "ticks": 149280,
          "time": 204.60301249999998,
          "velocity": 0.2125984251968504
        },
        {
          "duration": 0.005482395833354303,
          "durationTicks": 4,
          "midi": 35,
          "name": "B1",
          "ticks": 149376,
          "time": 204.73458999999997,
          "velocity": 0.5905511811023622
        },
        {
          "duration": 0.0054823958333258815,
          "durationTicks": 4,
          "midi": 40,
          "name": "E2",
          "ticks": 149380,
          "time": 204.74007239583332,
          "velocity": 0.5905511811023622
        },
        {
          "duration": 0.0054823958333258815,
          "durationTicks": 4,
          "midi": 44,
          "name": "G#2",
          "ticks": 149380,
          "time": 204.74007239583332,
          "velocity": 0.3858267716535433
        },
        {
          "duration": 0.0054823958333258815,
          "durationTicks": 4,
          "midi": 39,
          "name": "D#2",
          "ticks": 149384,
          "time": 204.74555479166665,
          "velocity": 0.5118110236220472
        },
        {
          "duration": 0.0054823958333258815,
          "durationTicks": 4,
          "midi": 60,
          "name": "C4",
          "ticks": 149472,
          "time": 204.8661675,
          "velocity": 0.1889763779527559
        },
        {
          "duration": 0.005482395833354303,
          "durationTicks": 4,
          "midi": 70,
          "name": "A#4",
          "ticks": 149568,
          "time": 204.99774499999998,
          "velocity": 0.3543307086614173
        },
        {
          "duration": 0.005482395833354303,
          "durationTicks": 4,
          "midi": 63,
          "name": "D#4",
          "ticks": 149568,
          "time": 204.99774499999998,
          "velocity": 0.1889763779527559
        },
        {
          "duration": 0.005482395833354303,
          "durationTicks": 4,
          "midi": 70,
          "name": "A#4",
          "ticks": 149664,
          "time": 205.12932249999997,
          "velocity": 0.41732283464566927
        },
        {
          "duration": 0.0054823958333258815,
          "durationTicks": 4,
          "midi": 35,
          "name": "B1",
          "ticks": 149760,
          "time": 205.2609,
          "velocity": 0.5433070866141733
        },
        {
          "duration": 0.0054823958333258815,
          "durationTicks": 4,
          "midi": 60,
          "name": "C4",
          "ticks": 149760,
          "time": 205.2609,
          "velocity": 0.25196850393700787
        },
        {
          "duration": 0.005482395833354303,
          "durationTicks": 4,
          "midi": 70,
          "name": "A#4",
          "ticks": 149952,
          "time": 205.52405499999998,
          "velocity": 0.4409448818897638
        },
        {
          "duration": 0.00548239583329746,
          "durationTicks": 4,
          "midi": 46,
          "name": "A#2",
          "ticks": 149956,
          "time": 205.52953739583333,
          "velocity": 0.28346456692913385
        },
        {
          "duration": 0.005482395833354303,
          "durationTicks": 4,
          "midi": 60,
          "name": "C4",
          "ticks": 150048,
          "time": 205.65563249999997,
          "velocity": 0.16535433070866143
        },
        {
          "duration": 0.0054823958333258815,
          "durationTicks": 4,
          "midi": 35,
          "name": "B1",
          "ticks": 150144,
          "time": 205.78721,
          "velocity": 0.5196850393700787
        },
        {
          "duration": 0.0054823958333258815,
          "durationTicks": 4,
          "midi": 40,
          "name": "E2",
          "ticks": 150148,
          "time": 205.7926923958333,
          "velocity": 0.5196850393700787
        },
        {
          "duration": 0.0054823958333258815,
          "durationTicks": 4,
          "midi": 44,
          "name": "G#2",
          "ticks": 150148,
          "time": 205.7926923958333,
          "velocity": 0.2755905511811024
        },
        {
          "duration": 0.0054823958333258815,
          "durationTicks": 4,
          "midi": 39,
          "name": "D#2",
          "ticks": 150152,
          "time": 205.79817479166664,
          "velocity": 0.44881889763779526
        },
        {
          "duration": 0.005482395833354303,
          "durationTicks": 4,
          "midi": 60,
          "name": "C4",
          "ticks": 150240,
          "time": 205.91878749999998,
          "velocity": 0.1732283464566929
        },
        {
          "duration": 0.005482395833354303,
          "durationTicks": 4,
          "midi": 70,
          "name": "A#4",
          "ticks": 150336,
          "time": 206.05036499999997,
          "velocity": 0.4094488188976378
        },
        {
          "duration": 0.005482395833354303,
          "durationTicks": 4,
          "midi": 63,
          "name": "D#4",
          "ticks": 150336,
          "time": 206.05036499999997,
          "velocity": 0.2204724409448819
        },
        {
          "duration": 0.00548239583329746,
          "durationTicks": 4,
          "midi": 46,
          "name": "A#2",
          "ticks": 150340,
          "time": 206.05584739583333,
          "velocity": 0.25984251968503935
        },
        {
          "duration": 0.0054823958333258815,
          "durationTicks": 4,
          "midi": 35,
          "name": "B1",
          "ticks": 150528,
          "time": 206.31351999999998,
          "velocity": 0.49606299212598426
        },
        {
          "duration": 0.0054823958333258815,
          "durationTicks": 4,
          "midi": 60,
          "name": "C4",
          "ticks": 150528,
          "time": 206.31351999999998,
          "velocity": 0.1889763779527559
        },
        {
          "duration": 0.0054823958333258815,
          "durationTicks": 4,
          "midi": 44,
          "name": "G#2",
          "ticks": 150532,
          "time": 206.3190023958333,
          "velocity": 0.2755905511811024
        },
        {
          "duration": 0.005482395833354303,
          "durationTicks": 4,
          "midi": 70,
          "name": "A#4",
          "ticks": 150720,
          "time": 206.57667499999997,
          "velocity": 0.4094488188976378
        },
        {
          "duration": 0.0054823958333258815,
          "durationTicks": 4,
          "midi": 46,
          "name": "A#2",
          "ticks": 150724,
          "time": 206.58215739583332,
          "velocity": 0.2440944881889764
        },
        {
          "duration": 0.0054823958333258815,
          "durationTicks": 4,
          "midi": 60,
          "name": "C4",
          "ticks": 150816,
          "time": 206.7082525,
          "velocity": 0.14173228346456693
        },
        {
          "duration": 0.005482395833354303,
          "durationTicks": 4,
          "midi": 35,
          "name": "B1",
          "ticks": 150912,
          "time": 206.83982999999998,
          "velocity": 0.4409448818897638
        },
        {
          "duration": 0.00548239583329746,
          "durationTicks": 4,
          "midi": 40,
          "name": "E2",
          "ticks": 150916,
          "time": 206.84531239583333,
          "velocity": 0.4566929133858268
        },
        {
          "duration": 0.00548239583329746,
          "durationTicks": 4,
          "midi": 44,
          "name": "G#2",
          "ticks": 150916,
          "time": 206.84531239583333,
          "velocity": 0.23622047244094488
        },
        {
          "duration": 0.005482395833354303,
          "durationTicks": 4,
          "midi": 39,
          "name": "D#2",
          "ticks": 150920,
          "time": 206.85079479166663,
          "velocity": 0.3858267716535433
        },
        {
          "duration": 0.005482395833354303,
          "durationTicks": 4,
          "midi": 60,
          "name": "C4",
          "ticks": 151008,
          "time": 206.97140749999997,
          "velocity": 0.14173228346456693
        },
        {
          "duration": 0.0054823958333258815,
          "durationTicks": 4,
          "midi": 70,
          "name": "A#4",
          "ticks": 151104,
          "time": 207.102985,
          "velocity": 0.28346456692913385
        },
        {
          "duration": 0.0054823958333258815,
          "durationTicks": 4,
          "midi": 63,
          "name": "D#4",
          "ticks": 151104,
          "time": 207.102985,
          "velocity": 0.12598425196850394
        },
        {
          "duration": 0.0054823958333258815,
          "durationTicks": 4,
          "midi": 46,
          "name": "A#2",
          "ticks": 151108,
          "time": 207.10846739583332,
          "velocity": 0.2204724409448819
        },
        {
          "duration": 0.005482395833354303,
          "durationTicks": 4,
          "midi": 70,
          "name": "A#4",
          "ticks": 151200,
          "time": 207.23456249999998,
          "velocity": 0.30708661417322836
        },
        {
          "duration": 0.005482395833354303,
          "durationTicks": 4,
          "midi": 35,
          "name": "B1",
          "ticks": 151296,
          "time": 207.36613999999997,
          "velocity": 0.41732283464566927
        },
        {
          "duration": 0.005482395833354303,
          "durationTicks": 4,
          "midi": 60,
          "name": "C4",
          "ticks": 151296,
          "time": 207.36613999999997,
          "velocity": 0.15748031496062992
        },
        {
          "duration": 0.00548239583329746,
          "durationTicks": 4,
          "midi": 44,
          "name": "G#2",
          "ticks": 151300,
          "time": 207.37162239583333,
          "velocity": 0.2125984251968504
        },
        {
          "duration": 0.0054823958333258815,
          "durationTicks": 4,
          "midi": 70,
          "name": "A#4",
          "ticks": 151488,
          "time": 207.62929499999998,
          "velocity": 0.3464566929133858
        },
        {
          "duration": 0.0054823958333258815,
          "durationTicks": 4,
          "midi": 46,
          "name": "A#2",
          "ticks": 151492,
          "time": 207.6347773958333,
          "velocity": 0.2047244094488189
        },
        {
          "duration": 0.005482395833354303,
          "durationTicks": 4,
          "midi": 60,
          "name": "C4",
          "ticks": 151584,
          "time": 207.76087249999998,
          "velocity": 0.11023622047244094
        },
        {
          "duration": 0.005482395833354303,
          "durationTicks": 4,
          "midi": 35,
          "name": "B1",
          "ticks": 151680,
          "time": 207.89244999999997,
          "velocity": 0.3858267716535433
        },
        {
          "duration": 0.0054823958333258815,
          "durationTicks": 4,
          "midi": 40,
          "name": "E2",
          "ticks": 151684,
          "time": 207.89793239583332,
          "velocity": 0.3858267716535433
        },
        {
          "duration": 0.0054823958333258815,
          "durationTicks": 4,
          "midi": 44,
          "name": "G#2",
          "ticks": 151684,
          "time": 207.89793239583332,
          "velocity": 0.2047244094488189
        },
        {
          "duration": 0.0054823958333258815,
          "durationTicks": 4,
          "midi": 39,
          "name": "D#2",
          "ticks": 151688,
          "time": 207.90341479166665,
          "velocity": 0.33070866141732286
        },
        {
          "duration": 0.0054823958333258815,
          "durationTicks": 4,
          "midi": 60,
          "name": "C4",
          "ticks": 151776,
          "time": 208.0240275,
          "velocity": 0.10236220472440945
        },
        {
          "duration": 0.005482395833354303,
          "durationTicks": 4,
          "midi": 70,
          "name": "A#4",
          "ticks": 151872,
          "time": 208.15560499999998,
          "velocity": 0.2440944881889764
        },
        {
          "duration": 0.005482395833354303,
          "durationTicks": 4,
          "midi": 63,
          "name": "D#4",
          "ticks": 151872,
          "time": 208.15560499999998,
          "velocity": 0.13385826771653545
        },
        {
          "duration": 0.00548239583329746,
          "durationTicks": 4,
          "midi": 46,
          "name": "A#2",
          "ticks": 151876,
          "time": 208.16108739583333,
          "velocity": 0.1968503937007874
        },
        {
          "duration": 0.005482395833354303,
          "durationTicks": 4,
          "midi": 70,
          "name": "A#4",
          "ticks": 151968,
          "time": 208.28718249999997,
          "velocity": 0.30708661417322836
        },
        {
          "duration": 0.0054823958333258815,
          "durationTicks": 4,
          "midi": 35,
          "name": "B1",
          "ticks": 152064,
          "time": 208.41876,
          "velocity": 0.33070866141732286
        },
        {
          "duration": 0.0054823958333258815,
          "durationTicks": 4,
          "midi": 69,
          "name": "A4",
          "ticks": 152064,
          "time": 208.41876,
          "velocity": 0.2047244094488189
        },
        {
          "duration": 0.0054823958333258815,
          "durationTicks": 4,
          "midi": 60,
          "name": "C4",
          "ticks": 152064,
          "time": 208.41876,
          "velocity": 0.14173228346456693
        },
        {
          "duration": 0.0054823958333258815,
          "durationTicks": 4,
          "midi": 44,
          "name": "G#2",
          "ticks": 152068,
          "time": 208.42424239583332,
          "velocity": 0.2125984251968504
        },
        {
          "duration": 0.005482395833354303,
          "durationTicks": 4,
          "midi": 69,
          "name": "A4",
          "ticks": 152156,
          "time": 208.54485510416663,
          "velocity": 0.047244094488188976
        },
        {
          "duration": 0.0054823958333258815,
          "durationTicks": 4,
          "midi": 69,
          "name": "A4",
          "ticks": 152240,
          "time": 208.65998541666664,
          "velocity": 0.2992125984251969
        },
        {
          "duration": 0.005482395833354303,
          "durationTicks": 4,
          "midi": 70,
          "name": "A#4",
          "ticks": 152256,
          "time": 208.68191499999998,
          "velocity": 0.28346456692913385
        },
        {
          "duration": 0.00548239583329746,
          "durationTicks": 4,
          "midi": 46,
          "name": "A#2",
          "ticks": 152260,
          "time": 208.68739739583333,
          "velocity": 0.16535433070866143
        },
        {
          "duration": 0.005482395833354303,
          "durationTicks": 4,
          "midi": 69,
          "name": "A4",
          "ticks": 152336,
          "time": 208.79156291666663,
          "velocity": 0.29133858267716534
        },
        {
          "duration": 0.005482395833354303,
          "durationTicks": 4,
          "midi": 60,
          "name": "C4",
          "ticks": 152352,
          "time": 208.81349249999997,
          "velocity": 0.12598425196850394
        },
        {
          "duration": 0.0054823958333258815,
          "durationTicks": 4,
          "midi": 35,
          "name": "B1",
          "ticks": 152448,
          "time": 208.94507,
          "velocity": 0.31496062992125984
        },
        {
          "duration": 0.0054823958333258815,
          "durationTicks": 4,
          "midi": 40,
          "name": "E2",
          "ticks": 152452,
          "time": 208.9505523958333,
          "velocity": 0.30708661417322836
        },
        {
          "duration": 0.0054823958333258815,
          "durationTicks": 4,
          "midi": 44,
          "name": "G#2",
          "ticks": 152452,
          "time": 208.9505523958333,
          "velocity": 0.14173228346456693
        },
        {
          "duration": 0.0054823958333258815,
          "durationTicks": 4,
          "midi": 39,
          "name": "D#2",
          "ticks": 152456,
          "time": 208.95603479166664,
          "velocity": 0.25984251968503935
        },
        {
          "duration": 0.005482395833354303,
          "durationTicks": 4,
          "midi": 60,
          "name": "C4",
          "ticks": 152544,
          "time": 209.07664749999998,
          "velocity": 0.08661417322834646
        },
        {
          "duration": 0.005482395833354303,
          "durationTicks": 4,
          "midi": 70,
          "name": "A#4",
          "ticks": 152640,
          "time": 209.20822499999997,
          "velocity": 0.1968503937007874
        },
        {
          "duration": 0.005482395833354303,
          "durationTicks": 4,
          "midi": 63,
          "name": "D#4",
          "ticks": 152640,
          "time": 209.20822499999997,
          "velocity": 0.10236220472440945
        },
        {
          "duration": 0.0054823958333258815,
          "durationTicks": 4,
          "midi": 70,
          "name": "A#4",
          "ticks": 152736,
          "time": 209.3398025,
          "velocity": 0.2440944881889764
        },
        {
          "duration": 0.0054823958333258815,
          "durationTicks": 4,
          "midi": 35,
          "name": "B1",
          "ticks": 152832,
          "time": 209.47137999999998,
          "velocity": 0.2677165354330709
        },
        {
          "duration": 0.0054823958333258815,
          "durationTicks": 4,
          "midi": 60,
          "name": "C4",
          "ticks": 152832,
          "time": 209.47137999999998,
          "velocity": 0.10236220472440945
        },
        {
          "duration": 0.005482395833354303,
          "durationTicks": 4,
          "midi": 70,
          "name": "A#4",
          "ticks": 153024,
          "time": 209.73453499999997,
          "velocity": 0.2047244094488189
        },
        {
          "duration": 0.0054823958333258815,
          "durationTicks": 4,
          "midi": 46,
          "name": "A#2",
          "ticks": 153028,
          "time": 209.74001739583332,
          "velocity": 0.12598425196850394
        },
        {
          "duration": 0.0054823958333258815,
          "durationTicks": 4,
          "midi": 60,
          "name": "C4",
          "ticks": 153120,
          "time": 209.86611249999999,
          "velocity": 0.06299212598425197
        },
        {
          "duration": 0.005482395833354303,
          "durationTicks": 4,
          "midi": 35,
          "name": "B1",
          "ticks": 153216,
          "time": 209.99768999999998,
          "velocity": 0.25196850393700787
        },
        {
          "duration": 0.00548239583329746,
          "durationTicks": 4,
          "midi": 40,
          "name": "E2",
          "ticks": 153220,
          "time": 210.00317239583333,
          "velocity": 0.23622047244094488
        },
        {
          "duration": 0.00548239583329746,
          "durationTicks": 4,
          "midi": 44,
          "name": "G#2",
          "ticks": 153220,
          "time": 210.00317239583333,
          "velocity": 0.12598425196850394
        },
        {
          "duration": 0.005482395833354303,
          "durationTicks": 4,
          "midi": 39,
          "name": "D#2",
          "ticks": 153224,
          "time": 210.00865479166663,
          "velocity": 0.1968503937007874
        },
        {
          "duration": 0.005482395833354303,
          "durationTicks": 4,
          "midi": 60,
          "name": "C4",
          "ticks": 153312,
          "time": 210.12926749999997,
          "velocity": 0.07086614173228346
        },
        {
          "duration": 0.0054823958333258815,
          "durationTicks": 4,
          "midi": 70,
          "name": "A#4",
          "ticks": 153408,
          "time": 210.260845,
          "velocity": 0.18110236220472442
        },
        {
          "duration": 0.0054823958333258815,
          "durationTicks": 4,
          "midi": 63,
          "name": "D#4",
          "ticks": 153408,
          "time": 210.260845,
          "velocity": 0.07874015748031496
        },
        {
          "duration": 0.0054823958333258815,
          "durationTicks": 4,
          "midi": 46,
          "name": "A#2",
          "ticks": 153412,
          "time": 210.26632739583331,
          "velocity": 0.10236220472440945
        },
        {
          "duration": 0.005482395833354303,
          "durationTicks": 4,
          "midi": 35,
          "name": "B1",
          "ticks": 153600,
          "time": 210.52399999999997,
          "velocity": 0.2047244094488189
        },
        {
          "duration": 0.005482395833354303,
          "durationTicks": 4,
          "midi": 60,
          "name": "C4",
          "ticks": 153600,
          "time": 210.52399999999997,
          "velocity": 0.07086614173228346
        },
        {
          "duration": 0.00548239583329746,
          "durationTicks": 4,
          "midi": 44,
          "name": "G#2",
          "ticks": 153604,
          "time": 210.52948239583333,
          "velocity": 0.08661417322834646
        },
        {
          "duration": 0.0054823958333258815,
          "durationTicks": 4,
          "midi": 70,
          "name": "A#4",
          "ticks": 153792,
          "time": 210.78715499999998,
          "velocity": 0.14960629921259844
        },
        {
          "duration": 0.0054823958333258815,
          "durationTicks": 4,
          "midi": 46,
          "name": "A#2",
          "ticks": 153796,
          "time": 210.7926373958333,
          "velocity": 0.07086614173228346
        },
        {
          "duration": 0.005482395833354303,
          "durationTicks": 4,
          "midi": 60,
          "name": "C4",
          "ticks": 153888,
          "time": 210.91873249999998,
          "velocity": 0.007874015748031496
        },
        {
          "duration": 0.005482395833354303,
          "durationTicks": 4,
          "midi": 35,
          "name": "B1",
          "ticks": 153984,
          "time": 211.05030999999997,
          "velocity": 0.16535433070866143
        },
        {
          "duration": 0.0054823958333258815,
          "durationTicks": 4,
          "midi": 40,
          "name": "E2",
          "ticks": 153988,
          "time": 211.05579239583332,
          "velocity": 0.16535433070866143
        },
        {
          "duration": 0.0054823958333258815,
          "durationTicks": 4,
          "midi": 44,
          "name": "G#2",
          "ticks": 153988,
          "time": 211.05579239583332,
          "velocity": 0.06299212598425197
        },
        {
          "duration": 0.0054823958333258815,
          "durationTicks": 4,
          "midi": 39,
          "name": "D#2",
          "ticks": 153992,
          "time": 211.06127479166665,
          "velocity": 0.13385826771653545
        },
        {
          "duration": 0.0054823958333258815,
          "durationTicks": 4,
          "midi": 60,
          "name": "C4",
          "ticks": 154080,
          "time": 211.1818875,
          "velocity": 0.007874015748031496
        },
        {
          "duration": 0.005482395833354303,
          "durationTicks": 4,
          "midi": 70,
          "name": "A#4",
          "ticks": 154176,
          "time": 211.31346499999998,
          "velocity": 0.09448818897637795
        },
        {
          "duration": 0.005482395833354303,
          "durationTicks": 4,
          "midi": 63,
          "name": "D#4",
          "ticks": 154176,
          "time": 211.31346499999998,
          "velocity": 0.031496062992125984
        },
        {
          "duration": 0.00548239583329746,
          "durationTicks": 4,
          "midi": 46,
          "name": "A#2",
          "ticks": 154180,
          "time": 211.31894739583333,
          "velocity": 0.047244094488188976
        },
        {
          "duration": 0.005482395833354303,
          "durationTicks": 4,
          "midi": 70,
          "name": "A#4",
          "ticks": 154272,
          "time": 211.44504249999997,
          "velocity": 0.11023622047244094
        },
        {
          "duration": 0.0054823958333258815,
          "durationTicks": 4,
          "midi": 35,
          "name": "B1",
          "ticks": 154368,
          "time": 211.57662,
          "velocity": 0.13385826771653545
        },
        {
          "duration": 0.0054823958333258815,
          "durationTicks": 4,
          "midi": 60,
          "name": "C4",
          "ticks": 154368,
          "time": 211.57662,
          "velocity": 0.031496062992125984
        },
        {
          "duration": 0.0054823958333258815,
          "durationTicks": 4,
          "midi": 44,
          "name": "G#2",
          "ticks": 154372,
          "time": 211.58210239583332,
          "velocity": 0.047244094488188976
        },
        {
          "duration": 0.005482395833354303,
          "durationTicks": 4,
          "midi": 70,
          "name": "A#4",
          "ticks": 154560,
          "time": 211.83977499999997,
          "velocity": 0.08661417322834646
        },
        {
          "duration": 0.00548239583329746,
          "durationTicks": 4,
          "midi": 46,
          "name": "A#2",
          "ticks": 154564,
          "time": 211.84525739583333,
          "velocity": 0.023622047244094488
        },
        {
          "duration": 0.005482395833354303,
          "durationTicks": 4,
          "midi": 60,
          "name": "C4",
          "ticks": 154656,
          "time": 211.97135249999997,
          "velocity": 0.007874015748031496
        },
        {
          "duration": 0.0054823958333258815,
          "durationTicks": 4,
          "midi": 35,
          "name": "B1",
          "ticks": 154752,
          "time": 212.10293,
          "velocity": 0.10236220472440945
        },
        {
          "duration": 0.0054823958333258815,
          "durationTicks": 4,
          "midi": 40,
          "name": "E2",
          "ticks": 154756,
          "time": 212.1084123958333,
          "velocity": 0.09448818897637795
        },
        {
          "duration": 0.0054823958333258815,
          "durationTicks": 4,
          "midi": 44,
          "name": "G#2",
          "ticks": 154756,
          "time": 212.1084123958333,
          "velocity": 0.023622047244094488
        },
        {
          "duration": 0.0054823958333258815,
          "durationTicks": 4,
          "midi": 39,
          "name": "D#2",
          "ticks": 154760,
          "time": 212.11389479166664,
          "velocity": 0.07086614173228346
        },
        {
          "duration": 0.005482395833354303,
          "durationTicks": 4,
          "midi": 60,
          "name": "C4",
          "ticks": 154848,
          "time": 212.23450749999998,
          "velocity": 0.007874015748031496
        },
        {
          "duration": 0.005482395833354303,
          "durationTicks": 4,
          "midi": 70,
          "name": "A#4",
          "ticks": 154944,
          "time": 212.36608499999997,
          "velocity": 0.03937007874015748
        },
        {
          "duration": 0.005482395833354303,
          "durationTicks": 4,
          "midi": 63,
          "name": "D#4",
          "ticks": 154944,
          "time": 212.36608499999997,
          "velocity": 0.007874015748031496
        },
        {
          "duration": 0.00548239583329746,
          "durationTicks": 4,
          "midi": 46,
          "name": "A#2",
          "ticks": 154948,
          "time": 212.37156739583332,
          "velocity": 0.015748031496062992
        },
        {
          "duration": 0.0054823958333258815,
          "durationTicks": 4,
          "midi": 70,
          "name": "A#4",
          "ticks": 155040,
          "time": 212.4976625,
          "velocity": 0.06299212598425197
        },
        {
          "duration": 0.0054823958333258815,
          "durationTicks": 4,
          "midi": 35,
          "name": "B1",
          "ticks": 155136,
          "time": 212.62923999999998,
          "velocity": 0.07086614173228346
        },
        {
          "duration": 0.0054823958333258815,
          "durationTicks": 4,
          "midi": 69,
          "name": "A4",
          "ticks": 155136,
          "time": 212.62923999999998,
          "velocity": 0.023622047244094488
        },
        {
          "duration": 0.0054823958333258815,
          "durationTicks": 4,
          "midi": 60,
          "name": "C4",
          "ticks": 155136,
          "time": 212.62923999999998,
          "velocity": 0.007874015748031496
        },
        {
          "duration": 0.0054823958333258815,
          "durationTicks": 4,
          "midi": 44,
          "name": "G#2",
          "ticks": 155140,
          "time": 212.6347223958333,
          "velocity": 0.007874015748031496
        },
        {
          "duration": 0.0054823958333258815,
          "durationTicks": 4,
          "midi": 69,
          "name": "A4",
          "ticks": 155228,
          "time": 212.75533510416665,
          "velocity": 0.007874015748031496
        },
        {
          "duration": 0.005482395833354303,
          "durationTicks": 4,
          "midi": 69,
          "name": "A4",
          "ticks": 155312,
          "time": 212.87046541666663,
          "velocity": 0.03937007874015748
        },
        {
          "duration": 0.005482395833354303,
          "durationTicks": 4,
          "midi": 70,
          "name": "A#4",
          "ticks": 155328,
          "time": 212.89239499999996,
          "velocity": 0.031496062992125984
        },
        {
          "duration": 0.0054823958333258815,
          "durationTicks": 4,
          "midi": 46,
          "name": "A#2",
          "ticks": 155332,
          "time": 212.89787739583332,
          "velocity": 0.007874015748031496
        },
        {
          "duration": 0.005482395833354303,
          "durationTicks": 4,
          "midi": 69,
          "name": "A4",
          "ticks": 155408,
          "time": 213.00204291666662,
          "velocity": 0.031496062992125984
        },
        {
          "duration": 0.0054823958333258815,
          "durationTicks": 4,
          "midi": 60,
          "name": "C4",
          "ticks": 155424,
          "time": 213.02397249999999,
          "velocity": 0.007874015748031496
        },
        {
          "duration": 0.005482395833354303,
          "durationTicks": 4,
          "midi": 35,
          "name": "B1",
          "ticks": 155520,
          "time": 213.15554999999998,
          "velocity": 0.031496062992125984
        },
        {
          "duration": 0.00548239583329746,
          "durationTicks": 4,
          "midi": 40,
          "name": "E2",
          "ticks": 155524,
          "time": 213.16103239583333,
          "velocity": 0.031496062992125984
        },
        {
          "duration": 0.00548239583329746,
          "durationTicks": 4,
          "midi": 44,
          "name": "G#2",
          "ticks": 155524,
          "time": 213.16103239583333,
          "velocity": 0.007874015748031496
        },
        {
          "duration": 0.005482395833354303,
          "durationTicks": 4,
          "midi": 39,
          "name": "D#2",
          "ticks": 155528,
          "time": 213.16651479166663,
          "velocity": 0.023622047244094488
        },
        {
          "duration": 0.005482395833354303,
          "durationTicks": 4,
          "midi": 60,
          "name": "C4",
          "ticks": 155616,
          "time": 213.28712749999997,
          "velocity": 0.007874015748031496
        },
        {
          "duration": 0.0054823958333258815,
          "durationTicks": 4,
          "midi": 70,
          "name": "A#4",
          "ticks": 155712,
          "time": 213.418705,
          "velocity": 0.007874015748031496
        },
        {
          "duration": 0.0054823958333258815,
          "durationTicks": 4,
          "midi": 63,
          "name": "D#4",
          "ticks": 155712,
          "time": 213.418705,
          "velocity": 0.007874015748031496
        },
        {
          "duration": 0.005482395833354303,
          "durationTicks": 4,
          "midi": 70,
          "name": "A#4",
          "ticks": 155808,
          "time": 213.55028249999998,
          "velocity": 0.007874015748031496
        },
        {
          "duration": 0.005482395833354303,
          "durationTicks": 4,
          "midi": 35,
          "name": "B1",
          "ticks": 155904,
          "time": 213.68185999999997,
          "velocity": 0.007874015748031496
        },
        {
          "duration": 0.005482395833354303,
          "durationTicks": 4,
          "midi": 60,
          "name": "C4",
          "ticks": 155904,
          "time": 213.68185999999997,
          "velocity": 0.007874015748031496
        },
        {
          "duration": 0.0054823958333258815,
          "durationTicks": 4,
          "midi": 70,
          "name": "A#4",
          "ticks": 156096,
          "time": 213.94501499999998,
          "velocity": 0.007874015748031496
        },
        {
          "duration": 0.0054823958333258815,
          "durationTicks": 4,
          "midi": 46,
          "name": "A#2",
          "ticks": 156100,
          "time": 213.9504973958333,
          "velocity": 0.007874015748031496
        },
        {
          "duration": 0.005482395833354303,
          "durationTicks": 4,
          "midi": 60,
          "name": "C4",
          "ticks": 156192,
          "time": 214.07659249999998,
          "velocity": 0.007874015748031496
        },
        {
          "duration": 0.005482395833354303,
          "durationTicks": 4,
          "midi": 35,
          "name": "B1",
          "ticks": 156288,
          "time": 214.20816999999997,
          "velocity": 0.007874015748031496
        },
        {
          "duration": 0.0054823958333258815,
          "durationTicks": 4,
          "midi": 40,
          "name": "E2",
          "ticks": 156292,
          "time": 214.21365239583332,
          "velocity": 0.007874015748031496
        },
        {
          "duration": 0.0054823958333258815,
          "durationTicks": 4,
          "midi": 44,
          "name": "G#2",
          "ticks": 156292,
          "time": 214.21365239583332,
          "velocity": 0.007874015748031496
        },
        {
          "duration": 0.0054823958333258815,
          "durationTicks": 4,
          "midi": 39,
          "name": "D#2",
          "ticks": 156296,
          "time": 214.21913479166665,
          "velocity": 0.007874015748031496
        },
        {
          "duration": 0.0054823958333258815,
          "durationTicks": 4,
          "midi": 60,
          "name": "C4",
          "ticks": 156384,
          "time": 214.3397475,
          "velocity": 0.007874015748031496
        },
        {
          "duration": 0.005482395833354303,
          "durationTicks": 4,
          "midi": 70,
          "name": "A#4",
          "ticks": 156480,
          "time": 214.47132499999998,
          "velocity": 0.007874015748031496
        },
        {
          "duration": 0.005482395833354303,
          "durationTicks": 4,
          "midi": 63,
          "name": "D#4",
          "ticks": 156480,
          "time": 214.47132499999998,
          "velocity": 0.007874015748031496
        },
        {
          "duration": 0.00548239583329746,
          "durationTicks": 4,
          "midi": 46,
          "name": "A#2",
          "ticks": 156484,
          "time": 214.47680739583333,
          "velocity": 0.007874015748031496
        }
      ],
      "endOfTrackTicks": 158208
    },
    {
      "channel": 10,
      "controlChanges": {
        "1": [
          {
            "number": 1,
            "ticks": 4624,
            "time": 6.337649583333333,
            "value": 0
          }
        ],
        "7": [
          {
            "number": 7,
            "ticks": 2132,
            "time": 2.9221169791666664,
            "value": 0.8267716535433071
          }
        ],
        "10": [
          {
            "number": 10,
            "ticks": 2132,
            "time": 2.9221169791666664,
            "value": 0.5039370078740157
          }
        ],
        "11": [
          {
            "number": 11,
            "ticks": 2132,
            "time": 2.9221169791666664,
            "value": 1
          }
        ],
        "91": [
          {
            "number": 91,
            "ticks": 2136,
            "time": 2.927599375,
            "value": 0.47244094488188976
          }
        ],
        "93": [
          {
            "number": 93,
            "ticks": 2136,
            "time": 2.927599375,
            "value": 0
          }
        ]
      },
      "pitchBends": [
        {
          "ticks": 4624,
          "time": 6.337649583333333,
          "value": 0
        }
      ],
      "instrument": {
        "family": "ensemble",
        "number": 48,
        "name": "string ensemble 1"
      },
      "name": "STRINGS",
      "notes": [
        {
          "duration": 0.7510882291666663,
          "durationTicks": 548,
          "midi": 85,
          "name": "C#6",
          "ticks": 4620,
          "time": 6.3321671875,
          "velocity": 0.5354330708661418
        },
        {
          "duration": 0.7510882291666663,
          "durationTicks": 548,
          "midi": 73,
          "name": "C#5",
          "ticks": 4620,
          "time": 6.3321671875,
          "velocity": 0.5354330708661418
        },
        {
          "duration": 0.7730178125,
          "durationTicks": 564,
          "midi": 87,
          "name": "D#6",
          "ticks": 5172,
          "time": 7.088737812499999,
          "velocity": 0.5354330708661418
        },
        {
          "duration": 0.7730178125,
          "durationTicks": 564,
          "midi": 75,
          "name": "D#5",
          "ticks": 5172,
          "time": 7.088737812499999,
          "velocity": 0.5354330708661418
        },
        {
          "duration": 0.4988980208333338,
          "durationTicks": 364,
          "midi": 80,
          "name": "G#5",
          "ticks": 5740,
          "time": 7.867238020833332,
          "velocity": 0.4330708661417323
        },
        {
          "duration": 0.4988980208333338,
          "durationTicks": 364,
          "midi": 68,
          "name": "G#4",
          "ticks": 5740,
          "time": 7.867238020833332,
          "velocity": 0.44881889763779526
        },
        {
          "duration": 0.8388065625000003,
          "durationTicks": 612,
          "midi": 87,
          "name": "D#6",
          "ticks": 6108,
          "time": 8.371618437499999,
          "velocity": 0.5354330708661418
        },
        {
          "duration": 0.8388065625000003,
          "durationTicks": 612,
          "midi": 75,
          "name": "D#5",
          "ticks": 6108,
          "time": 8.371618437499999,
          "velocity": 0.5354330708661418
        },
        {
          "duration": 0.6578874999999993,
          "durationTicks": 480,
          "midi": 89,
          "name": "F6",
          "ticks": 6724,
          "time": 9.215907395833334,
          "velocity": 0.6614173228346457
        },
        {
          "duration": 0.6578874999999993,
          "durationTicks": 480,
          "midi": 77,
          "name": "F5",
          "ticks": 6724,
          "time": 9.215907395833334,
          "velocity": 0.6614173228346457
        },
        {
          "duration": 0.11513031250000161,
          "durationTicks": 84,
          "midi": 92,
          "name": "G#6",
          "ticks": 7276,
          "time": 9.972478020833332,
          "velocity": 0.5590551181102362
        },
        {
          "duration": 0.11513031250000161,
          "durationTicks": 84,
          "midi": 80,
          "name": "G#5",
          "ticks": 7276,
          "time": 9.972478020833332,
          "velocity": 0.5590551181102362
        },
        {
          "duration": 0.10964791666666862,
          "durationTicks": 80,
          "midi": 90,
          "name": "F#6",
          "ticks": 7364,
          "time": 10.093090729166665,
          "velocity": 0.5590551181102362
        },
        {
          "duration": 0.10964791666666862,
          "durationTicks": 80,
          "midi": 78,
          "name": "F#5",
          "ticks": 7364,
          "time": 10.093090729166665,
          "velocity": 0.5590551181102362
        },
        {
          "duration": 0.09320072916666611,
          "durationTicks": 68,
          "midi": 89,
          "name": "F6",
          "ticks": 7452,
          "time": 10.2137034375,
          "velocity": 0.6141732283464567
        },
        {
          "duration": 0.09320072916666611,
          "durationTicks": 68,
          "midi": 77,
          "name": "F5",
          "ticks": 7452,
          "time": 10.2137034375,
          "velocity": 0.6141732283464567
        },
        {
          "duration": 0.9374896874999994,
          "durationTicks": 684,
          "midi": 85,
          "name": "C#6",
          "ticks": 7560,
          "time": 10.361728124999999,
          "velocity": 0.5905511811023622
        },
        {
          "duration": 0.9374896874999994,
          "durationTicks": 684,
          "midi": 73,
          "name": "C#5",
          "ticks": 7560,
          "time": 10.361728124999999,
          "velocity": 0.5905511811023622
        },
        {
          "duration": 0.7894649999999999,
          "durationTicks": 576,
          "midi": 87,
          "name": "D#6",
          "ticks": 8248,
          "time": 11.304700208333333,
          "velocity": 0.5590551181102362
        },
        {
          "duration": 0.7894649999999999,
          "durationTicks": 576,
          "midi": 75,
          "name": "D#5",
          "ticks": 8248,
          "time": 11.304700208333333,
          "velocity": 0.5590551181102362
        },
        {
          "duration": 1.535070833333334,
          "durationTicks": 1120,
          "midi": 80,
          "name": "G#5",
          "ticks": 8828,
          "time": 12.099647604166664,
          "velocity": 0.3543307086614173
        },
        {
          "duration": 1.535070833333334,
          "durationTicks": 1120,
          "midi": 68,
          "name": "G#4",
          "ticks": 8828,
          "time": 12.099647604166664,
          "velocity": 0.3464566929133858
        },
        {
          "duration": 0.11513031249999983,
          "durationTicks": 84,
          "midi": 92,
          "name": "G#6",
          "ticks": 10368,
          "time": 14.21037,
          "velocity": 0.5905511811023622
        },
        {
          "duration": 0.11513031249999983,
          "durationTicks": 84,
          "midi": 80,
          "name": "G#5",
          "ticks": 10368,
          "time": 14.21037,
          "velocity": 0.5905511811023622
        },
        {
          "duration": 0.12061270833333282,
          "durationTicks": 88,
          "midi": 90,
          "name": "F#6",
          "ticks": 10456,
          "time": 14.330982708333332,
          "velocity": 0.5590551181102362
        },
        {
          "duration": 0.12061270833333282,
          "durationTicks": 88,
          "midi": 78,
          "name": "F#5",
          "ticks": 10456,
          "time": 14.330982708333332,
          "velocity": 0.5590551181102362
        },
        {
          "duration": 0.10964791666666684,
          "durationTicks": 80,
          "midi": 89,
          "name": "F6",
          "ticks": 10548,
          "time": 14.457077812499998,
          "velocity": 0.6614173228346457
        },
        {
          "duration": 0.10964791666666684,
          "durationTicks": 80,
          "midi": 77,
          "name": "F5",
          "ticks": 10548,
          "time": 14.457077812499998,
          "velocity": 0.6614173228346457
        },
        {
          "duration": 0.9045953124999997,
          "durationTicks": 660,
          "midi": 85,
          "name": "C#6",
          "ticks": 10656,
          "time": 14.6051025,
          "velocity": 0.5905511811023622
        },
        {
          "duration": 0.9045953124999997,
          "durationTicks": 660,
          "midi": 73,
          "name": "C#5",
          "ticks": 10656,
          "time": 14.6051025,
          "velocity": 0.5905511811023622
        },
        {
          "duration": 0.7675354166666661,
          "durationTicks": 560,
          "midi": 87,
          "name": "D#6",
          "ticks": 11320,
          "time": 15.515180208333332,
          "velocity": 0.5590551181102362
        },
        {
          "duration": 0.7675354166666661,
          "durationTicks": 560,
          "midi": 75,
          "name": "D#5",
          "ticks": 11320,
          "time": 15.515180208333332,
          "velocity": 0.5590551181102362
        },
        {
          "duration": 0.5372747916666682,
          "durationTicks": 392,
          "midi": 80,
          "name": "G#5",
          "ticks": 11884,
          "time": 16.28819802083333,
          "velocity": 0.4330708661417323
        },
        {
          "duration": 0.5372747916666682,
          "durationTicks": 392,
          "midi": 68,
          "name": "G#4",
          "ticks": 11884,
          "time": 16.28819802083333,
          "velocity": 0.4409448818897638
        },
        {
          "duration": 0.7949473958333328,
          "durationTicks": 580,
          "midi": 87,
          "name": "D#6",
          "ticks": 12280,
          "time": 16.830955208333332,
          "velocity": 0.5354330708661418
        },
        {
          "duration": 0.7949473958333328,
          "durationTicks": 580,
          "midi": 75,
          "name": "D#5",
          "ticks": 12280,
          "time": 16.830955208333332,
          "velocity": 0.5354330708661418
        },
        {
          "duration": 0.7456058333333324,
          "durationTicks": 544,
          "midi": 89,
          "name": "F6",
          "ticks": 12864,
          "time": 17.631384999999998,
          "velocity": 0.5905511811023622
        },
        {
          "duration": 0.7456058333333324,
          "durationTicks": 544,
          "midi": 77,
          "name": "F5",
          "ticks": 12864,
          "time": 17.631384999999998,
          "velocity": 0.5905511811023622
        },
        {
          "duration": 0.10416552083333741,
          "durationTicks": 76,
          "midi": 92,
          "name": "G#6",
          "ticks": 13456,
          "time": 18.44277958333333,
          "velocity": 0.5354330708661418
        },
        {
          "duration": 0.10416552083333741,
          "durationTicks": 76,
          "midi": 80,
          "name": "G#5",
          "ticks": 13456,
          "time": 18.44277958333333,
          "velocity": 0.5354330708661418
        },
        {
          "duration": 0.1096479166666704,
          "durationTicks": 80,
          "midi": 90,
          "name": "F#6",
          "ticks": 13536,
          "time": 18.552427499999997,
          "velocity": 0.4881889763779528
        },
        {
          "duration": 0.1096479166666704,
          "durationTicks": 80,
          "midi": 78,
          "name": "F#5",
          "ticks": 13536,
          "time": 18.552427499999997,
          "velocity": 0.4881889763779528
        },
        {
          "duration": 0.09868312500000087,
          "durationTicks": 72,
          "midi": 89,
          "name": "F6",
          "ticks": 13624,
          "time": 18.67304020833333,
          "velocity": 0.5354330708661418
        },
        {
          "duration": 0.09868312500000087,
          "durationTicks": 72,
          "midi": 77,
          "name": "F5",
          "ticks": 13624,
          "time": 18.67304020833333,
          "velocity": 0.5354330708661418
        },
        {
          "duration": 0.8771833333333348,
          "durationTicks": 640,
          "midi": 85,
          "name": "C#6",
          "ticks": 13732,
          "time": 18.82106489583333,
          "velocity": 0.4881889763779528
        },
        {
          "duration": 0.8771833333333348,
          "durationTicks": 640,
          "midi": 73,
          "name": "C#5",
          "ticks": 13732,
          "time": 18.82106489583333,
          "velocity": 0.4881889763779528
        },
        {
          "duration": 0.7894649999999999,
          "durationTicks": 576,
          "midi": 87,
          "name": "D#6",
          "ticks": 14376,
          "time": 19.703730625,
          "velocity": 0.5590551181102362
        },
        {
          "duration": 0.7894649999999999,
          "durationTicks": 576,
          "midi": 75,
          "name": "D#5",
          "ticks": 14376,
          "time": 19.703730625,
          "velocity": 0.5590551181102362
        },
        {
          "duration": 1.9626977083333337,
          "durationTicks": 1432,
          "midi": 80,
          "name": "G#5",
          "ticks": 14956,
          "time": 20.49867802083333,
          "velocity": 0.33858267716535434
        },
        {
          "duration": 1.9626977083333337,
          "durationTicks": 1432,
          "midi": 68,
          "name": "G#4",
          "ticks": 14956,
          "time": 20.49867802083333,
          "velocity": 0.3464566929133858
        },
        {
          "duration": 0.7510882291666618,
          "durationTicks": 548,
          "midi": 85,
          "name": "C#6",
          "ticks": 35340,
          "time": 48.436967187499995,
          "velocity": 0.5354330708661418
        },
        {
          "duration": 0.7510882291666618,
          "durationTicks": 548,
          "midi": 73,
          "name": "C#5",
          "ticks": 35340,
          "time": 48.436967187499995,
          "velocity": 0.5354330708661418
        },
        {
          "duration": 0.7730178125000009,
          "durationTicks": 564,
          "midi": 87,
          "name": "D#6",
          "ticks": 35892,
          "time": 49.1935378125,
          "velocity": 0.5354330708661418
        },
        {
          "duration": 0.7730178125000009,
          "durationTicks": 564,
          "midi": 75,
          "name": "D#5",
          "ticks": 35892,
          "time": 49.1935378125,
          "velocity": 0.5354330708661418
        },
        {
          "duration": 0.49889802083333024,
          "durationTicks": 364,
          "midi": 80,
          "name": "G#5",
          "ticks": 36460,
          "time": 49.97203802083333,
          "velocity": 0.4330708661417323
        },
        {
          "duration": 0.49889802083333024,
          "durationTicks": 364,
          "midi": 68,
          "name": "G#4",
          "ticks": 36460,
          "time": 49.97203802083333,
          "velocity": 0.44881889763779526
        },
        {
          "duration": 0.8388065625000038,
          "durationTicks": 612,
          "midi": 87,
          "name": "D#6",
          "ticks": 36828,
          "time": 50.476418437499994,
          "velocity": 0.5354330708661418
        },
        {
          "duration": 0.8388065625000038,
          "durationTicks": 612,
          "midi": 75,
          "name": "D#5",
          "ticks": 36828,
          "time": 50.476418437499994,
          "velocity": 0.5354330708661418
        },
        {
          "duration": 0.6578875000000011,
          "durationTicks": 480,
          "midi": 89,
          "name": "F6",
          "ticks": 37444,
          "time": 51.32070739583333,
          "velocity": 0.6614173228346457
        },
        {
          "duration": 0.6578875000000011,
          "durationTicks": 480,
          "midi": 77,
          "name": "F5",
          "ticks": 37444,
          "time": 51.32070739583333,
          "velocity": 0.6614173228346457
        },
        {
          "duration": 0.11513031249999983,
          "durationTicks": 84,
          "midi": 92,
          "name": "G#6",
          "ticks": 37996,
          "time": 52.07727802083333,
          "velocity": 0.5590551181102362
        },
        {
          "duration": 0.11513031249999983,
          "durationTicks": 84,
          "midi": 80,
          "name": "G#5",
          "ticks": 37996,
          "time": 52.07727802083333,
          "velocity": 0.5590551181102362
        },
        {
          "duration": 0.10964791666667395,
          "durationTicks": 80,
          "midi": 90,
          "name": "F#6",
          "ticks": 38084,
          "time": 52.19789072916666,
          "velocity": 0.5590551181102362
        },
        {
          "duration": 0.10964791666667395,
          "durationTicks": 80,
          "midi": 78,
          "name": "F#5",
          "ticks": 38084,
          "time": 52.19789072916666,
          "velocity": 0.5590551181102362
        },
        {
          "duration": 0.09320072916666788,
          "durationTicks": 68,
          "midi": 89,
          "name": "F6",
          "ticks": 38172,
          "time": 52.31850343749999,
          "velocity": 0.6141732283464567
        },
        {
          "duration": 0.09320072916666788,
          "durationTicks": 68,
          "midi": 77,
          "name": "F5",
          "ticks": 38172,
          "time": 52.31850343749999,
          "velocity": 0.6141732283464567
        },
        {
          "duration": 0.9374896874999976,
          "durationTicks": 684,
          "midi": 85,
          "name": "C#6",
          "ticks": 38280,
          "time": 52.466528124999996,
          "velocity": 0.5905511811023622
        },
        {
          "duration": 0.9374896874999976,
          "durationTicks": 684,
          "midi": 73,
          "name": "C#5",
          "ticks": 38280,
          "time": 52.466528124999996,
          "velocity": 0.5905511811023622
        },
        {
          "duration": 0.7894649999999999,
          "durationTicks": 576,
          "midi": 87,
          "name": "D#6",
          "ticks": 38968,
          "time": 53.40950020833333,
          "velocity": 0.5590551181102362
        },
        {
          "duration": 0.7894649999999999,
          "durationTicks": 576,
          "midi": 75,
          "name": "D#5",
          "ticks": 38968,
          "time": 53.40950020833333,
          "velocity": 0.5590551181102362
        },
        {
          "duration": 1.5350708333333358,
          "durationTicks": 1120,
          "midi": 80,
          "name": "G#5",
          "ticks": 39548,
          "time": 54.20444760416666,
          "velocity": 0.3543307086614173
        },
        {
          "duration": 1.5350708333333358,
          "durationTicks": 1120,
          "midi": 68,
          "name": "G#4",
          "ticks": 39548,
          "time": 54.20444760416666,
          "velocity": 0.3464566929133858
        },
        {
          "duration": 0.11513031249999983,
          "durationTicks": 84,
          "midi": 92,
          "name": "G#6",
          "ticks": 41088,
          "time": 56.315169999999995,
          "velocity": 0.5905511811023622
        },
        {
          "duration": 0.11513031249999983,
          "durationTicks": 84,
          "midi": 80,
          "name": "G#5",
          "ticks": 41088,
          "time": 56.315169999999995,
          "velocity": 0.5905511811023622
        },
        {
          "duration": 0.12061270833333282,
          "durationTicks": 88,
          "midi": 90,
          "name": "F#6",
          "ticks": 41176,
          "time": 56.43578270833333,
          "velocity": 0.5590551181102362
        },
        {
          "duration": 0.12061270833333282,
          "durationTicks": 88,
          "midi": 78,
          "name": "F#5",
          "ticks": 41176,
          "time": 56.43578270833333,
          "velocity": 0.5590551181102362
        },
        {
          "duration": 0.10964791666666684,
          "durationTicks": 80,
          "midi": 89,
          "name": "F6",
          "ticks": 41268,
          "time": 56.56187781249999,
          "velocity": 0.6614173228346457
        },
        {
          "duration": 0.10964791666666684,
          "durationTicks": 80,
          "midi": 77,
          "name": "F5",
          "ticks": 41268,
          "time": 56.56187781249999,
          "velocity": 0.6614173228346457
        },
        {
          "duration": 0.9045953124999997,
          "durationTicks": 660,
          "midi": 85,
          "name": "C#6",
          "ticks": 41376,
          "time": 56.70990249999999,
          "velocity": 0.5905511811023622
        },
        {
          "duration": 0.9045953124999997,
          "durationTicks": 660,
          "midi": 73,
          "name": "C#5",
          "ticks": 41376,
          "time": 56.70990249999999,
          "velocity": 0.5905511811023622
        },
        {
          "duration": 0.7675354166666608,
          "durationTicks": 560,
          "midi": 87,
          "name": "D#6",
          "ticks": 42040,
          "time": 57.61998020833333,
          "velocity": 0.5590551181102362
        },
        {
          "duration": 0.7675354166666608,
          "durationTicks": 560,
          "midi": 75,
          "name": "D#5",
          "ticks": 42040,
          "time": 57.61998020833333,
          "velocity": 0.5590551181102362
        },
        {
          "duration": 0.5372747916666611,
          "durationTicks": 392,
          "midi": 80,
          "name": "G#5",
          "ticks": 42604,
          "time": 58.39299802083333,
          "velocity": 0.4330708661417323
        },
        {
          "duration": 0.5372747916666611,
          "durationTicks": 392,
          "midi": 68,
          "name": "G#4",
          "ticks": 42604,
          "time": 58.39299802083333,
          "velocity": 0.4409448818897638
        },
        {
          "duration": 0.7949473958333257,
          "durationTicks": 580,
          "midi": 87,
          "name": "D#6",
          "ticks": 43000,
          "time": 58.93575520833333,
          "velocity": 0.5354330708661418
        },
        {
          "duration": 0.7949473958333257,
          "durationTicks": 580,
          "midi": 75,
          "name": "D#5",
          "ticks": 43000,
          "time": 58.93575520833333,
          "velocity": 0.5354330708661418
        },
        {
          "duration": 0.745605833333336,
          "durationTicks": 544,
          "midi": 89,
          "name": "F6",
          "ticks": 43584,
          "time": 59.73618499999999,
          "velocity": 0.5905511811023622
        },
        {
          "duration": 0.745605833333336,
          "durationTicks": 544,
          "midi": 77,
          "name": "F5",
          "ticks": 43584,
          "time": 59.73618499999999,
          "velocity": 0.5905511811023622
        },
        {
          "duration": 0.10416552083332675,
          "durationTicks": 76,
          "midi": 92,
          "name": "G#6",
          "ticks": 44176,
          "time": 60.54757958333333,
          "velocity": 0.5354330708661418
        },
        {
          "duration": 0.10416552083332675,
          "durationTicks": 76,
          "midi": 80,
          "name": "G#5",
          "ticks": 44176,
          "time": 60.54757958333333,
          "velocity": 0.5354330708661418
        },
        {
          "duration": 0.10964791666666684,
          "durationTicks": 80,
          "midi": 90,
          "name": "F#6",
          "ticks": 44256,
          "time": 60.65722749999999,
          "velocity": 0.4881889763779528
        },
        {
          "duration": 0.10964791666666684,
          "durationTicks": 80,
          "midi": 78,
          "name": "F#5",
          "ticks": 44256,
          "time": 60.65722749999999,
          "velocity": 0.4881889763779528
        },
        {
          "duration": 0.09868312500000087,
          "durationTicks": 72,
          "midi": 89,
          "name": "F6",
          "ticks": 44344,
          "time": 60.77784020833333,
          "velocity": 0.5354330708661418
        },
        {
          "duration": 0.09868312500000087,
          "durationTicks": 72,
          "midi": 77,
          "name": "F5",
          "ticks": 44344,
          "time": 60.77784020833333,
          "velocity": 0.5354330708661418
        },
        {
          "duration": 0.8771833333333277,
          "durationTicks": 640,
          "midi": 85,
          "name": "C#6",
          "ticks": 44452,
          "time": 60.92586489583333,
          "velocity": 0.4881889763779528
        },
        {
          "duration": 0.8771833333333277,
          "durationTicks": 640,
          "midi": 73,
          "name": "C#5",
          "ticks": 44452,
          "time": 60.92586489583333,
          "velocity": 0.4881889763779528
        },
        {
          "duration": 0.7894649999999999,
          "durationTicks": 576,
          "midi": 87,
          "name": "D#6",
          "ticks": 45096,
          "time": 61.808530624999996,
          "velocity": 0.5590551181102362
        },
        {
          "duration": 0.7894649999999999,
          "durationTicks": 576,
          "midi": 75,
          "name": "D#5",
          "ticks": 45096,
          "time": 61.808530624999996,
          "velocity": 0.5590551181102362
        },
        {
          "duration": 1.9626977083333301,
          "durationTicks": 1432,
          "midi": 80,
          "name": "G#5",
          "ticks": 45676,
          "time": 62.60347802083333,
          "velocity": 0.33858267716535434
        },
        {
          "duration": 1.9626977083333301,
          "durationTicks": 1432,
          "midi": 68,
          "name": "G#4",
          "ticks": 45676,
          "time": 62.60347802083333,
          "velocity": 0.3464566929133858
        },
        {
          "duration": 0.7510882291666832,
          "durationTicks": 548,
          "midi": 85,
          "name": "C#6",
          "ticks": 66060,
          "time": 90.54176718749999,
          "velocity": 0.5354330708661418
        },
        {
          "duration": 0.7510882291666832,
          "durationTicks": 548,
          "midi": 73,
          "name": "C#5",
          "ticks": 66060,
          "time": 90.54176718749999,
          "velocity": 0.5354330708661418
        },
        {
          "duration": 0.7730178125000009,
          "durationTicks": 564,
          "midi": 87,
          "name": "D#6",
          "ticks": 66612,
          "time": 91.2983378125,
          "velocity": 0.5354330708661418
        },
        {
          "duration": 0.7730178125000009,
          "durationTicks": 564,
          "midi": 75,
          "name": "D#5",
          "ticks": 66612,
          "time": 91.2983378125,
          "velocity": 0.5354330708661418
        },
        {
          "duration": 0.49889802083333734,
          "durationTicks": 364,
          "midi": 80,
          "name": "G#5",
          "ticks": 67180,
          "time": 92.07683802083332,
          "velocity": 0.4330708661417323
        },
        {
          "duration": 0.49889802083333734,
          "durationTicks": 364,
          "midi": 68,
          "name": "G#4",
          "ticks": 67180,
          "time": 92.07683802083332,
          "velocity": 0.44881889763779526
        },
        {
          "duration": 0.838806562500011,
          "durationTicks": 612,
          "midi": 87,
          "name": "D#6",
          "ticks": 67548,
          "time": 92.58121843749998,
          "velocity": 0.5354330708661418
        },
        {
          "duration": 0.838806562500011,
          "durationTicks": 612,
          "midi": 75,
          "name": "D#5",
          "ticks": 67548,
          "time": 92.58121843749998,
          "velocity": 0.5354330708661418
        },
        {
          "duration": 0.6578875000000011,
          "durationTicks": 480,
          "midi": 89,
          "name": "F6",
          "ticks": 68164,
          "time": 93.42550739583332,
          "velocity": 0.6614173228346457
        },
        {
          "duration": 0.6578875000000011,
          "durationTicks": 480,
          "midi": 77,
          "name": "F5",
          "ticks": 68164,
          "time": 93.42550739583332,
          "velocity": 0.6614173228346457
        },
        {
          "duration": 0.11513031249999983,
          "durationTicks": 84,
          "midi": 92,
          "name": "G#6",
          "ticks": 68716,
          "time": 94.18207802083332,
          "velocity": 0.5590551181102362
        },
        {
          "duration": 0.11513031249999983,
          "durationTicks": 84,
          "midi": 80,
          "name": "G#5",
          "ticks": 68716,
          "time": 94.18207802083332,
          "velocity": 0.5590551181102362
        },
        {
          "duration": 0.10964791666665974,
          "durationTicks": 80,
          "midi": 90,
          "name": "F#6",
          "ticks": 68804,
          "time": 94.30269072916666,
          "velocity": 0.5590551181102362
        },
        {
          "duration": 0.10964791666665974,
          "durationTicks": 80,
          "midi": 78,
          "name": "F#5",
          "ticks": 68804,
          "time": 94.30269072916666,
          "velocity": 0.5590551181102362
        },
        {
          "duration": 0.09320072916666788,
          "durationTicks": 68,
          "midi": 89,
          "name": "F6",
          "ticks": 68892,
          "time": 94.4233034375,
          "velocity": 0.6141732283464567
        },
        {
          "duration": 0.09320072916666788,
          "durationTicks": 68,
          "midi": 77,
          "name": "F5",
          "ticks": 68892,
          "time": 94.4233034375,
          "velocity": 0.6141732283464567
        },
        {
          "duration": 0.9374896874999905,
          "durationTicks": 684,
          "midi": 85,
          "name": "C#6",
          "ticks": 69000,
          "time": 94.571328125,
          "velocity": 0.5905511811023622
        },
        {
          "duration": 0.9374896874999905,
          "durationTicks": 684,
          "midi": 73,
          "name": "C#5",
          "ticks": 69000,
          "time": 94.571328125,
          "velocity": 0.5905511811023622
        },
        {
          "duration": 0.7894649999999928,
          "durationTicks": 576,
          "midi": 87,
          "name": "D#6",
          "ticks": 69688,
          "time": 95.51430020833332,
          "velocity": 0.5590551181102362
        },
        {
          "duration": 0.7894649999999928,
          "durationTicks": 576,
          "midi": 75,
          "name": "D#5",
          "ticks": 69688,
          "time": 95.51430020833332,
          "velocity": 0.5590551181102362
        },
        {
          "duration": 1.5350708333333358,
          "durationTicks": 1120,
          "midi": 80,
          "name": "G#5",
          "ticks": 70268,
          "time": 96.30924760416666,
          "velocity": 0.3543307086614173
        },
        {
          "duration": 1.5350708333333358,
          "durationTicks": 1120,
          "midi": 68,
          "name": "G#4",
          "ticks": 70268,
          "time": 96.30924760416666,
          "velocity": 0.3464566929133858
        },
        {
          "duration": 0.11513031249999983,
          "durationTicks": 84,
          "midi": 92,
          "name": "G#6",
          "ticks": 71808,
          "time": 98.41996999999999,
          "velocity": 0.5905511811023622
        },
        {
          "duration": 0.11513031249999983,
          "durationTicks": 84,
          "midi": 80,
          "name": "G#5",
          "ticks": 71808,
          "time": 98.41996999999999,
          "velocity": 0.5905511811023622
        },
        {
          "duration": 0.12061270833333992,
          "durationTicks": 88,
          "midi": 90,
          "name": "F#6",
          "ticks": 71896,
          "time": 98.54058270833332,
          "velocity": 0.5590551181102362
        },
        {
          "duration": 0.12061270833333992,
          "durationTicks": 88,
          "midi": 78,
          "name": "F#5",
          "ticks": 71896,
          "time": 98.54058270833332,
          "velocity": 0.5590551181102362
        },
        {
          "duration": 0.10964791666667395,
          "durationTicks": 80,
          "midi": 89,
          "name": "F6",
          "ticks": 71988,
          "time": 98.66667781249998,
          "velocity": 0.6614173228346457
        },
        {
          "duration": 0.10964791666667395,
          "durationTicks": 80,
          "midi": 77,
          "name": "F5",
          "ticks": 71988,
          "time": 98.66667781249998,
          "velocity": 0.6614173228346457
        },
        {
          "duration": 0.9045953124999926,
          "durationTicks": 660,
          "midi": 85,
          "name": "C#6",
          "ticks": 72096,
          "time": 98.8147025,
          "velocity": 0.5905511811023622
        },
        {
          "duration": 0.9045953124999926,
          "durationTicks": 660,
          "midi": 73,
          "name": "C#5",
          "ticks": 72096,
          "time": 98.8147025,
          "velocity": 0.5905511811023622
        },
        {
          "duration": 0.767535416666675,
          "durationTicks": 560,
          "midi": 87,
          "name": "D#6",
          "ticks": 72760,
          "time": 99.72478020833331,
          "velocity": 0.5590551181102362
        },
        {
          "duration": 0.767535416666675,
          "durationTicks": 560,
          "midi": 75,
          "name": "D#5",
          "ticks": 72760,
          "time": 99.72478020833331,
          "velocity": 0.5590551181102362
        },
        {
          "duration": 0.5372747916666754,
          "durationTicks": 392,
          "midi": 80,
          "name": "G#5",
          "ticks": 73324,
          "time": 100.49779802083332,
          "velocity": 0.4330708661417323
        },
        {
          "duration": 0.5372747916666754,
          "durationTicks": 392,
          "midi": 68,
          "name": "G#4",
          "ticks": 73324,
          "time": 100.49779802083332,
          "velocity": 0.4409448818897638
        },
        {
          "duration": 0.7949473958333471,
          "durationTicks": 580,
          "midi": 87,
          "name": "D#6",
          "ticks": 73720,
          "time": 101.04055520833332,
          "velocity": 0.5354330708661418
        },
        {
          "duration": 0.7949473958333471,
          "durationTicks": 580,
          "midi": 75,
          "name": "D#5",
          "ticks": 73720,
          "time": 101.04055520833332,
          "velocity": 0.5354330708661418
        },
        {
          "duration": 0.7456058333333289,
          "durationTicks": 544,
          "midi": 89,
          "name": "F6",
          "ticks": 74304,
          "time": 101.84098499999999,
          "velocity": 0.5905511811023622
        },
        {
          "duration": 0.7456058333333289,
          "durationTicks": 544,
          "midi": 77,
          "name": "F5",
          "ticks": 74304,
          "time": 101.84098499999999,
          "velocity": 0.5905511811023622
        },
        {
          "duration": 0.10416552083334807,
          "durationTicks": 76,
          "midi": 92,
          "name": "G#6",
          "ticks": 74896,
          "time": 102.65237958333331,
          "velocity": 0.5354330708661418
        },
        {
          "duration": 0.10416552083334807,
          "durationTicks": 76,
          "midi": 80,
          "name": "G#5",
          "ticks": 74896,
          "time": 102.65237958333331,
          "velocity": 0.5354330708661418
        },
        {
          "duration": 0.10964791666667395,
          "durationTicks": 80,
          "midi": 90,
          "name": "F#6",
          "ticks": 74976,
          "time": 102.76202749999999,
          "velocity": 0.4881889763779528
        },
        {
          "duration": 0.10964791666667395,
          "durationTicks": 80,
          "midi": 78,
          "name": "F#5",
          "ticks": 74976,
          "time": 102.76202749999999,
          "velocity": 0.4881889763779528
        },
        {
          "duration": 0.09868312500000798,
          "durationTicks": 72,
          "midi": 89,
          "name": "F6",
          "ticks": 75064,
          "time": 102.88264020833331,
          "velocity": 0.5354330708661418
        },
        {
          "duration": 0.09868312500000798,
          "durationTicks": 72,
          "midi": 77,
          "name": "F5",
          "ticks": 75064,
          "time": 102.88264020833331,
          "velocity": 0.5354330708661418
        },
        {
          "duration": 0.877183333333349,
          "durationTicks": 640,
          "midi": 85,
          "name": "C#6",
          "ticks": 75172,
          "time": 103.03066489583331,
          "velocity": 0.4881889763779528
        },
        {
          "duration": 0.877183333333349,
          "durationTicks": 640,
          "midi": 73,
          "name": "C#5",
          "ticks": 75172,
          "time": 103.03066489583331,
          "velocity": 0.4881889763779528
        },
        {
          "duration": 0.789465000000007,
          "durationTicks": 576,
          "midi": 87,
          "name": "D#6",
          "ticks": 75816,
          "time": 103.91333062499999,
          "velocity": 0.5590551181102362
        },
        {
          "duration": 0.789465000000007,
          "durationTicks": 576,
          "midi": 75,
          "name": "D#5",
          "ticks": 75816,
          "time": 103.91333062499999,
          "velocity": 0.5590551181102362
        },
        {
          "duration": 1.9626977083333372,
          "durationTicks": 1432,
          "midi": 80,
          "name": "G#5",
          "ticks": 76396,
          "time": 104.70827802083332,
          "velocity": 0.33858267716535434
        },
        {
          "duration": 1.9626977083333372,
          "durationTicks": 1432,
          "midi": 68,
          "name": "G#4",
          "ticks": 76396,
          "time": 104.70827802083332,
          "velocity": 0.3464566929133858
        },
        {
          "duration": 0.751088229166669,
          "durationTicks": 548,
          "midi": 85,
          "name": "C#6",
          "ticks": 78348,
          "time": 107.38368718749999,
          "velocity": 0.5354330708661418
        },
        {
          "duration": 0.751088229166669,
          "durationTicks": 548,
          "midi": 73,
          "name": "C#5",
          "ticks": 78348,
          "time": 107.38368718749999,
          "velocity": 0.5354330708661418
        },
        {
          "duration": 0.7730178125000009,
          "durationTicks": 564,
          "midi": 87,
          "name": "D#6",
          "ticks": 78900,
          "time": 108.14025781249998,
          "velocity": 0.5354330708661418
        },
        {
          "duration": 0.7730178125000009,
          "durationTicks": 564,
          "midi": 75,
          "name": "D#5",
          "ticks": 78900,
          "time": 108.14025781249998,
          "velocity": 0.5354330708661418
        },
        {
          "duration": 0.49889802083333734,
          "durationTicks": 364,
          "midi": 80,
          "name": "G#5",
          "ticks": 79468,
          "time": 108.91875802083332,
          "velocity": 0.4330708661417323
        },
        {
          "duration": 0.49889802083333734,
          "durationTicks": 364,
          "midi": 68,
          "name": "G#4",
          "ticks": 79468,
          "time": 108.91875802083332,
          "velocity": 0.44881889763779526
        },
        {
          "duration": 0.8388065624999967,
          "durationTicks": 612,
          "midi": 87,
          "name": "D#6",
          "ticks": 79836,
          "time": 109.42313843749999,
          "velocity": 0.5354330708661418
        },
        {
          "duration": 0.8388065624999967,
          "durationTicks": 612,
          "midi": 75,
          "name": "D#5",
          "ticks": 79836,
          "time": 109.42313843749999,
          "velocity": 0.5354330708661418
        },
        {
          "duration": 0.6578874999999869,
          "durationTicks": 480,
          "midi": 89,
          "name": "F6",
          "ticks": 80452,
          "time": 110.26742739583332,
          "velocity": 0.6614173228346457
        },
        {
          "duration": 0.6578874999999869,
          "durationTicks": 480,
          "midi": 77,
          "name": "F5",
          "ticks": 80452,
          "time": 110.26742739583332,
          "velocity": 0.6614173228346457
        },
        {
          "duration": 0.11513031249999983,
          "durationTicks": 84,
          "midi": 92,
          "name": "G#6",
          "ticks": 81004,
          "time": 111.02399802083332,
          "velocity": 0.5590551181102362
        },
        {
          "duration": 0.11513031249999983,
          "durationTicks": 84,
          "midi": 80,
          "name": "G#5",
          "ticks": 81004,
          "time": 111.02399802083332,
          "velocity": 0.5590551181102362
        },
        {
          "duration": 0.10964791666665974,
          "durationTicks": 80,
          "midi": 90,
          "name": "F#6",
          "ticks": 81092,
          "time": 111.14461072916666,
          "velocity": 0.5590551181102362
        },
        {
          "duration": 0.10964791666665974,
          "durationTicks": 80,
          "midi": 78,
          "name": "F#5",
          "ticks": 81092,
          "time": 111.14461072916666,
          "velocity": 0.5590551181102362
        },
        {
          "duration": 0.0932007291666821,
          "durationTicks": 68,
          "midi": 89,
          "name": "F6",
          "ticks": 81180,
          "time": 111.26522343749998,
          "velocity": 0.6141732283464567
        },
        {
          "duration": 0.0932007291666821,
          "durationTicks": 68,
          "midi": 77,
          "name": "F5",
          "ticks": 81180,
          "time": 111.26522343749998,
          "velocity": 0.6141732283464567
        },
        {
          "duration": 0.9374896875000047,
          "durationTicks": 684,
          "midi": 85,
          "name": "C#6",
          "ticks": 81288,
          "time": 111.41324812499998,
          "velocity": 0.5905511811023622
        },
        {
          "duration": 0.9374896875000047,
          "durationTicks": 684,
          "midi": 73,
          "name": "C#5",
          "ticks": 81288,
          "time": 111.41324812499998,
          "velocity": 0.5905511811023622
        },
        {
          "duration": 0.789465000000007,
          "durationTicks": 576,
          "midi": 87,
          "name": "D#6",
          "ticks": 81976,
          "time": 112.35622020833331,
          "velocity": 0.5590551181102362
        },
        {
          "duration": 0.789465000000007,
          "durationTicks": 576,
          "midi": 75,
          "name": "D#5",
          "ticks": 81976,
          "time": 112.35622020833331,
          "velocity": 0.5590551181102362
        },
        {
          "duration": 1.5350708333333358,
          "durationTicks": 1120,
          "midi": 80,
          "name": "G#5",
          "ticks": 82556,
          "time": 113.15116760416666,
          "velocity": 0.3543307086614173
        },
        {
          "duration": 1.5350708333333358,
          "durationTicks": 1120,
          "midi": 68,
          "name": "G#4",
          "ticks": 82556,
          "time": 113.15116760416666,
          "velocity": 0.3464566929133858
        },
        {
          "duration": 0.11513031249999983,
          "durationTicks": 84,
          "midi": 92,
          "name": "G#6",
          "ticks": 84096,
          "time": 115.26189,
          "velocity": 0.5905511811023622
        },
        {
          "duration": 0.11513031249999983,
          "durationTicks": 84,
          "midi": 80,
          "name": "G#5",
          "ticks": 84096,
          "time": 115.26189,
          "velocity": 0.5905511811023622
        },
        {
          "duration": 0.12061270833333992,
          "durationTicks": 88,
          "midi": 90,
          "name": "F#6",
          "ticks": 84184,
          "time": 115.38250270833332,
          "velocity": 0.5590551181102362
        },
        {
          "duration": 0.12061270833333992,
          "durationTicks": 88,
          "midi": 78,
          "name": "F#5",
          "ticks": 84184,
          "time": 115.38250270833332,
          "velocity": 0.5590551181102362
        },
        {
          "duration": 0.10964791666667395,
          "durationTicks": 80,
          "midi": 89,
          "name": "F6",
          "ticks": 84276,
          "time": 115.50859781249999,
          "velocity": 0.6614173228346457
        },
        {
          "duration": 0.10964791666667395,
          "durationTicks": 80,
          "midi": 77,
          "name": "F5",
          "ticks": 84276,
          "time": 115.50859781249999,
          "velocity": 0.6614173228346457
        },
        {
          "duration": 0.9045953125000068,
          "durationTicks": 660,
          "midi": 85,
          "name": "C#6",
          "ticks": 84384,
          "time": 115.65662249999998,
          "velocity": 0.5905511811023622
        },
        {
          "duration": 0.9045953125000068,
          "durationTicks": 660,
          "midi": 73,
          "name": "C#5",
          "ticks": 84384,
          "time": 115.65662249999998,
          "velocity": 0.5905511811023622
        },
        {
          "duration": 0.767535416666675,
          "durationTicks": 560,
          "midi": 87,
          "name": "D#6",
          "ticks": 85048,
          "time": 116.56670020833332,
          "velocity": 0.5590551181102362
        },
        {
          "duration": 0.767535416666675,
          "durationTicks": 560,
          "midi": 75,
          "name": "D#5",
          "ticks": 85048,
          "time": 116.56670020833332,
          "velocity": 0.5590551181102362
        },
        {
          "duration": 0.5372747916666754,
          "durationTicks": 392,
          "midi": 80,
          "name": "G#5",
          "ticks": 85612,
          "time": 117.33971802083332,
          "velocity": 0.4330708661417323
        },
        {
          "duration": 0.5372747916666754,
          "durationTicks": 392,
          "midi": 68,
          "name": "G#4",
          "ticks": 85612,
          "time": 117.33971802083332,
          "velocity": 0.4409448818897638
        },
        {
          "duration": 0.7949473958333471,
          "durationTicks": 580,
          "midi": 87,
          "name": "D#6",
          "ticks": 86008,
          "time": 117.88247520833332,
          "velocity": 0.5354330708661418
        },
        {
          "duration": 0.7949473958333471,
          "durationTicks": 580,
          "midi": 75,
          "name": "D#5",
          "ticks": 86008,
          "time": 117.88247520833332,
          "velocity": 0.5354330708661418
        },
        {
          "duration": 0.7456058333333289,
          "durationTicks": 544,
          "midi": 89,
          "name": "F6",
          "ticks": 86592,
          "time": 118.68290499999999,
          "velocity": 0.5905511811023622
        },
        {
          "duration": 0.7456058333333289,
          "durationTicks": 544,
          "midi": 77,
          "name": "F5",
          "ticks": 86592,
          "time": 118.68290499999999,
          "velocity": 0.5905511811023622
        },
        {
          "duration": 0.10416552083334807,
          "durationTicks": 76,
          "midi": 92,
          "name": "G#6",
          "ticks": 87184,
          "time": 119.49429958333332,
          "velocity": 0.5354330708661418
        },
        {
          "duration": 0.10416552083334807,
          "durationTicks": 76,
          "midi": 80,
          "name": "G#5",
          "ticks": 87184,
          "time": 119.49429958333332,
          "velocity": 0.5354330708661418
        },
        {
          "duration": 0.10964791666667395,
          "durationTicks": 80,
          "midi": 90,
          "name": "F#6",
          "ticks": 87264,
          "time": 119.60394749999999,
          "velocity": 0.4881889763779528
        },
        {
          "duration": 0.10964791666667395,
          "durationTicks": 80,
          "midi": 78,
          "name": "F#5",
          "ticks": 87264,
          "time": 119.60394749999999,
          "velocity": 0.4881889763779528
        },
        {
          "duration": 0.09868312499999377,
          "durationTicks": 72,
          "midi": 89,
          "name": "F6",
          "ticks": 87352,
          "time": 119.72456020833332,
          "velocity": 0.5354330708661418
        },
        {
          "duration": 0.09868312499999377,
          "durationTicks": 72,
          "midi": 77,
          "name": "F5",
          "ticks": 87352,
          "time": 119.72456020833332,
          "velocity": 0.5354330708661418
        },
        {
          "duration": 0.877183333333349,
          "durationTicks": 640,
          "midi": 85,
          "name": "C#6",
          "ticks": 87460,
          "time": 119.87258489583331,
          "velocity": 0.4881889763779528
        },
        {
          "duration": 0.877183333333349,
          "durationTicks": 640,
          "midi": 73,
          "name": "C#5",
          "ticks": 87460,
          "time": 119.87258489583331,
          "velocity": 0.4881889763779528
        },
        {
          "duration": 0.7894649999999928,
          "durationTicks": 576,
          "midi": 87,
          "name": "D#6",
          "ticks": 88104,
          "time": 120.75525062499999,
          "velocity": 0.5590551181102362
        },
        {
          "duration": 0.7894649999999928,
          "durationTicks": 576,
          "midi": 75,
          "name": "D#5",
          "ticks": 88104,
          "time": 120.75525062499999,
          "velocity": 0.5590551181102362
        },
        {
          "duration": 1.9626977083333372,
          "durationTicks": 1432,
          "midi": 80,
          "name": "G#5",
          "ticks": 88684,
          "time": 121.55019802083332,
          "velocity": 0.33858267716535434
        },
        {
          "duration": 1.9626977083333372,
          "durationTicks": 1432,
          "midi": 68,
          "name": "G#4",
          "ticks": 88684,
          "time": 121.55019802083332,
          "velocity": 0.3464566929133858
        },
        {
          "duration": 1.8311202083333171,
          "durationTicks": 1336,
          "midi": 85,
          "name": "C#6",
          "ticks": 115208,
          "time": 157.90396479166665,
          "velocity": 0.3937007874015748
        },
        {
          "duration": 1.8311202083333171,
          "durationTicks": 1336,
          "midi": 73,
          "name": "C#5",
          "ticks": 115208,
          "time": 157.90396479166665,
          "velocity": 0.3779527559055118
        },
        {
          "duration": 1.3212573958332996,
          "durationTicks": 964,
          "midi": 87,
          "name": "D#6",
          "ticks": 116524,
          "time": 159.70767302083334,
          "velocity": 0.4094488188976378
        },
        {
          "duration": 1.3157750000000021,
          "durationTicks": 960,
          "midi": 75,
          "name": "D#5",
          "ticks": 116536,
          "time": 159.72412020833332,
          "velocity": 0.3464566929133858
        },
        {
          "duration": 1.0800319791666766,
          "durationTicks": 788,
          "midi": 89,
          "name": "F6",
          "ticks": 117484,
          "time": 161.0234480208333,
          "velocity": 0.5118110236220472
        },
        {
          "duration": 1.0690671874999964,
          "durationTicks": 780,
          "midi": 77,
          "name": "F5",
          "ticks": 117492,
          "time": 161.0344128125,
          "velocity": 0.48031496062992124
        },
        {
          "duration": 1.8749793750000094,
          "durationTicks": 1368,
          "midi": 82,
          "name": "A#5",
          "ticks": 118268,
          "time": 162.09799760416664,
          "velocity": 0.3937007874015748
        },
        {
          "duration": 1.8859441666666896,
          "durationTicks": 1376,
          "midi": 70,
          "name": "A#4",
          "ticks": 118268,
          "time": 162.09799760416664,
          "velocity": 0.3779527559055118
        },
        {
          "duration": 0.7510882291666405,
          "durationTicks": 548,
          "midi": 85,
          "name": "C#6",
          "ticks": 121356,
          "time": 166.3304071875,
          "velocity": 0.5354330708661418
        },
        {
          "duration": 0.7510882291666405,
          "durationTicks": 548,
          "midi": 73,
          "name": "C#5",
          "ticks": 121356,
          "time": 166.3304071875,
          "velocity": 0.5354330708661418
        },
        {
          "duration": 0.7730178125000009,
          "durationTicks": 564,
          "midi": 87,
          "name": "D#6",
          "ticks": 121908,
          "time": 167.08697781249998,
          "velocity": 0.5354330708661418
        },
        {
          "duration": 0.7730178125000009,
          "durationTicks": 564,
          "midi": 75,
          "name": "D#5",
          "ticks": 121908,
          "time": 167.08697781249998,
          "velocity": 0.5354330708661418
        },
        {
          "duration": 0.4988980208333089,
          "durationTicks": 364,
          "midi": 80,
          "name": "G#5",
          "ticks": 122476,
          "time": 167.86547802083334,
          "velocity": 0.4330708661417323
        },
        {
          "duration": 0.4988980208333089,
          "durationTicks": 364,
          "midi": 68,
          "name": "G#4",
          "ticks": 122476,
          "time": 167.86547802083334,
          "velocity": 0.44881889763779526
        },
        {
          "duration": 0.8388065625000252,
          "durationTicks": 612,
          "midi": 87,
          "name": "D#6",
          "ticks": 122844,
          "time": 168.36985843749997,
          "velocity": 0.5354330708661418
        },
        {
          "duration": 0.8388065625000252,
          "durationTicks": 612,
          "midi": 75,
          "name": "D#5",
          "ticks": 122844,
          "time": 168.36985843749997,
          "velocity": 0.5354330708661418
        },
        {
          "duration": 0.6578875000000153,
          "durationTicks": 480,
          "midi": 89,
          "name": "F6",
          "ticks": 123460,
          "time": 169.21414739583332,
          "velocity": 0.6614173228346457
        },
        {
          "duration": 0.6578875000000153,
          "durationTicks": 480,
          "midi": 77,
          "name": "F5",
          "ticks": 123460,
          "time": 169.21414739583332,
          "velocity": 0.6614173228346457
        },
        {
          "duration": 0.11513031250001404,
          "durationTicks": 84,
          "midi": 92,
          "name": "G#6",
          "ticks": 124012,
          "time": 169.97071802083332,
          "velocity": 0.5590551181102362
        },
        {
          "duration": 0.11513031250001404,
          "durationTicks": 84,
          "midi": 80,
          "name": "G#5",
          "ticks": 124012,
          "time": 169.97071802083332,
          "velocity": 0.5590551181102362
        },
        {
          "duration": 0.10964791666668816,
          "durationTicks": 80,
          "midi": 90,
          "name": "F#6",
          "ticks": 124100,
          "time": 170.09133072916663,
          "velocity": 0.5590551181102362
        },
        {
          "duration": 0.10964791666668816,
          "durationTicks": 80,
          "midi": 78,
          "name": "F#5",
          "ticks": 124100,
          "time": 170.09133072916663,
          "velocity": 0.5590551181102362
        },
        {
          "duration": 0.0932007291666821,
          "durationTicks": 68,
          "midi": 89,
          "name": "F6",
          "ticks": 124188,
          "time": 170.21194343749997,
          "velocity": 0.6141732283464567
        },
        {
          "duration": 0.0932007291666821,
          "durationTicks": 68,
          "midi": 77,
          "name": "F5",
          "ticks": 124188,
          "time": 170.21194343749997,
          "velocity": 0.6141732283464567
        },
        {
          "duration": 0.9374896874999763,
          "durationTicks": 684,
          "midi": 85,
          "name": "C#6",
          "ticks": 124296,
          "time": 170.359968125,
          "velocity": 0.5905511811023622
        },
        {
          "duration": 0.9374896874999763,
          "durationTicks": 684,
          "midi": 73,
          "name": "C#5",
          "ticks": 124296,
          "time": 170.359968125,
          "velocity": 0.5905511811023622
        },
        {
          "duration": 0.789465000000007,
          "durationTicks": 576,
          "midi": 87,
          "name": "D#6",
          "ticks": 124984,
          "time": 171.30294020833333,
          "velocity": 0.5590551181102362
        },
        {
          "duration": 0.789465000000007,
          "durationTicks": 576,
          "midi": 75,
          "name": "D#5",
          "ticks": 124984,
          "time": 171.30294020833333,
          "velocity": 0.5590551181102362
        },
        {
          "duration": 1.53507083333335,
          "durationTicks": 1120,
          "midi": 80,
          "name": "G#5",
          "ticks": 125564,
          "time": 172.09788760416663,
          "velocity": 0.3543307086614173
        },
        {
          "duration": 1.53507083333335,
          "durationTicks": 1120,
          "midi": 68,
          "name": "G#4",
          "ticks": 125564,
          "time": 172.09788760416663,
          "velocity": 0.3464566929133858
        },
        {
          "duration": 0.11513031249998562,
          "durationTicks": 84,
          "midi": 92,
          "name": "G#6",
          "ticks": 127104,
          "time": 174.20861,
          "velocity": 0.5905511811023622
        },
        {
          "duration": 0.11513031249998562,
          "durationTicks": 84,
          "midi": 80,
          "name": "G#5",
          "ticks": 127104,
          "time": 174.20861,
          "velocity": 0.5905511811023622
        },
        {
          "duration": 0.1206127083333115,
          "durationTicks": 88,
          "midi": 90,
          "name": "F#6",
          "ticks": 127192,
          "time": 174.32922270833333,
          "velocity": 0.5590551181102362
        },
        {
          "duration": 0.1206127083333115,
          "durationTicks": 88,
          "midi": 78,
          "name": "F#5",
          "ticks": 127192,
          "time": 174.32922270833333,
          "velocity": 0.5590551181102362
        },
        {
          "duration": 0.10964791666665974,
          "durationTicks": 80,
          "midi": 89,
          "name": "F6",
          "ticks": 127284,
          "time": 174.45531781249997,
          "velocity": 0.6614173228346457
        },
        {
          "duration": 0.10964791666665974,
          "durationTicks": 80,
          "midi": 77,
          "name": "F5",
          "ticks": 127284,
          "time": 174.45531781249997,
          "velocity": 0.6614173228346457
        },
        {
          "duration": 0.904595312500021,
          "durationTicks": 660,
          "midi": 85,
          "name": "C#6",
          "ticks": 127392,
          "time": 174.60334249999997,
          "velocity": 0.5905511811023622
        },
        {
          "duration": 0.904595312500021,
          "durationTicks": 660,
          "midi": 73,
          "name": "C#5",
          "ticks": 127392,
          "time": 174.60334249999997,
          "velocity": 0.5905511811023622
        },
        {
          "duration": 0.767535416666675,
          "durationTicks": 560,
          "midi": 87,
          "name": "D#6",
          "ticks": 128056,
          "time": 175.51342020833332,
          "velocity": 0.5590551181102362
        },
        {
          "duration": 0.767535416666675,
          "durationTicks": 560,
          "midi": 75,
          "name": "D#5",
          "ticks": 128056,
          "time": 175.51342020833332,
          "velocity": 0.5590551181102362
        },
        {
          "duration": 0.5372747916666754,
          "durationTicks": 392,
          "midi": 80,
          "name": "G#5",
          "ticks": 128620,
          "time": 176.28643802083332,
          "velocity": 0.4330708661417323
        },
        {
          "duration": 0.5372747916666754,
          "durationTicks": 392,
          "midi": 68,
          "name": "G#4",
          "ticks": 128620,
          "time": 176.28643802083332,
          "velocity": 0.4409448818897638
        },
        {
          "duration": 0.7949473958333328,
          "durationTicks": 580,
          "midi": 87,
          "name": "D#6",
          "ticks": 129016,
          "time": 176.82919520833332,
          "velocity": 0.5354330708661418
        },
        {
          "duration": 0.7949473958333328,
          "durationTicks": 580,
          "midi": 75,
          "name": "D#5",
          "ticks": 129016,
          "time": 176.82919520833332,
          "velocity": 0.5354330708661418
        },
        {
          "duration": 0.7456058333333431,
          "durationTicks": 544,
          "midi": 89,
          "name": "F6",
          "ticks": 129600,
          "time": 177.62962499999998,
          "velocity": 0.5905511811023622
        },
        {
          "duration": 0.7456058333333431,
          "durationTicks": 544,
          "midi": 77,
          "name": "F5",
          "ticks": 129600,
          "time": 177.62962499999998,
          "velocity": 0.5905511811023622
        },
        {
          "duration": 0.10416552083333386,
          "durationTicks": 76,
          "midi": 92,
          "name": "G#6",
          "ticks": 130192,
          "time": 178.44101958333331,
          "velocity": 0.5354330708661418
        },
        {
          "duration": 0.10416552083333386,
          "durationTicks": 76,
          "midi": 80,
          "name": "G#5",
          "ticks": 130192,
          "time": 178.44101958333331,
          "velocity": 0.5354330708661418
        },
        {
          "duration": 0.10964791666665974,
          "durationTicks": 80,
          "midi": 90,
          "name": "F#6",
          "ticks": 130272,
          "time": 178.55066749999997,
          "velocity": 0.4881889763779528
        },
        {
          "duration": 0.10964791666665974,
          "durationTicks": 80,
          "midi": 78,
          "name": "F#5",
          "ticks": 130272,
          "time": 178.55066749999997,
          "velocity": 0.4881889763779528
        },
        {
          "duration": 0.09868312500000798,
          "durationTicks": 72,
          "midi": 89,
          "name": "F6",
          "ticks": 130360,
          "time": 178.67128020833331,
          "velocity": 0.5354330708661418
        },
        {
          "duration": 0.09868312500000798,
          "durationTicks": 72,
          "midi": 77,
          "name": "F5",
          "ticks": 130360,
          "time": 178.67128020833331,
          "velocity": 0.5354330708661418
        },
        {
          "duration": 0.8771833333333348,
          "durationTicks": 640,
          "midi": 85,
          "name": "C#6",
          "ticks": 130468,
          "time": 178.8193048958333,
          "velocity": 0.4881889763779528
        },
        {
          "duration": 0.8771833333333348,
          "durationTicks": 640,
          "midi": 73,
          "name": "C#5",
          "ticks": 130468,
          "time": 178.8193048958333,
          "velocity": 0.4881889763779528
        },
        {
          "duration": 0.789465000000007,
          "durationTicks": 576,
          "midi": 87,
          "name": "D#6",
          "ticks": 131112,
          "time": 179.70197062499997,
          "velocity": 0.5590551181102362
        },
        {
          "duration": 0.789465000000007,
          "durationTicks": 576,
          "midi": 75,
          "name": "D#5",
          "ticks": 131112,
          "time": 179.70197062499997,
          "velocity": 0.5590551181102362
        },
        {
          "duration": 1.9626977083333088,
          "durationTicks": 1432,
          "midi": 80,
          "name": "G#5",
          "ticks": 131692,
          "time": 180.49691802083333,
          "velocity": 0.33858267716535434
        },
        {
          "duration": 1.9626977083333088,
          "durationTicks": 1432,
          "midi": 68,
          "name": "G#4",
          "ticks": 131692,
          "time": 180.49691802083333,
          "velocity": 0.3464566929133858
        },
        {
          "duration": 0.751088229166669,
          "durationTicks": 548,
          "midi": 85,
          "name": "C#6",
          "ticks": 133644,
          "time": 183.17232718749997,
          "velocity": 0.5354330708661418
        },
        {
          "duration": 0.751088229166669,
          "durationTicks": 548,
          "midi": 73,
          "name": "C#5",
          "ticks": 133644,
          "time": 183.17232718749997,
          "velocity": 0.5354330708661418
        },
        {
          "duration": 0.7730178125000009,
          "durationTicks": 564,
          "midi": 87,
          "name": "D#6",
          "ticks": 134196,
          "time": 183.92889781249997,
          "velocity": 0.5354330708661418
        },
        {
          "duration": 0.7730178125000009,
          "durationTicks": 564,
          "midi": 75,
          "name": "D#5",
          "ticks": 134196,
          "time": 183.92889781249997,
          "velocity": 0.5354330708661418
        },
        {
          "duration": 0.4988980208333089,
          "durationTicks": 364,
          "midi": 80,
          "name": "G#5",
          "ticks": 134764,
          "time": 184.70739802083332,
          "velocity": 0.4330708661417323
        },
        {
          "duration": 0.4988980208333089,
          "durationTicks": 364,
          "midi": 68,
          "name": "G#4",
          "ticks": 134764,
          "time": 184.70739802083332,
          "velocity": 0.44881889763779526
        },
        {
          "duration": 0.8388065624999967,
          "durationTicks": 612,
          "midi": 87,
          "name": "D#6",
          "ticks": 135132,
          "time": 185.2117784375,
          "velocity": 0.5354330708661418
        },
        {
          "duration": 0.8388065624999967,
          "durationTicks": 612,
          "midi": 75,
          "name": "D#5",
          "ticks": 135132,
          "time": 185.2117784375,
          "velocity": 0.5354330708661418
        },
        {
          "duration": 0.6578875000000153,
          "durationTicks": 480,
          "midi": 89,
          "name": "F6",
          "ticks": 135748,
          "time": 186.0560673958333,
          "velocity": 0.6614173228346457
        },
        {
          "duration": 0.6578875000000153,
          "durationTicks": 480,
          "midi": 77,
          "name": "F5",
          "ticks": 135748,
          "time": 186.0560673958333,
          "velocity": 0.6614173228346457
        },
        {
          "duration": 0.11513031249998562,
          "durationTicks": 84,
          "midi": 92,
          "name": "G#6",
          "ticks": 136300,
          "time": 186.81263802083333,
          "velocity": 0.5590551181102362
        },
        {
          "duration": 0.11513031249998562,
          "durationTicks": 84,
          "midi": 80,
          "name": "G#5",
          "ticks": 136300,
          "time": 186.81263802083333,
          "velocity": 0.5590551181102362
        },
        {
          "duration": 0.10964791666668816,
          "durationTicks": 80,
          "midi": 90,
          "name": "F#6",
          "ticks": 136388,
          "time": 186.93325072916664,
          "velocity": 0.5590551181102362
        },
        {
          "duration": 0.10964791666668816,
          "durationTicks": 80,
          "midi": 78,
          "name": "F#5",
          "ticks": 136388,
          "time": 186.93325072916664,
          "velocity": 0.5590551181102362
        },
        {
          "duration": 0.09320072916665367,
          "durationTicks": 68,
          "midi": 89,
          "name": "F6",
          "ticks": 136476,
          "time": 187.05386343749998,
          "velocity": 0.6141732283464567
        },
        {
          "duration": 0.09320072916665367,
          "durationTicks": 68,
          "midi": 77,
          "name": "F5",
          "ticks": 136476,
          "time": 187.05386343749998,
          "velocity": 0.6141732283464567
        },
        {
          "duration": 0.9374896875000047,
          "durationTicks": 684,
          "midi": 85,
          "name": "C#6",
          "ticks": 136584,
          "time": 187.20188812499998,
          "velocity": 0.5905511811023622
        },
        {
          "duration": 0.9374896875000047,
          "durationTicks": 684,
          "midi": 73,
          "name": "C#5",
          "ticks": 136584,
          "time": 187.20188812499998,
          "velocity": 0.5905511811023622
        },
        {
          "duration": 0.789465000000007,
          "durationTicks": 576,
          "midi": 87,
          "name": "D#6",
          "ticks": 137272,
          "time": 188.1448602083333,
          "velocity": 0.5590551181102362
        },
        {
          "duration": 0.789465000000007,
          "durationTicks": 576,
          "midi": 75,
          "name": "D#5",
          "ticks": 137272,
          "time": 188.1448602083333,
          "velocity": 0.5590551181102362
        },
        {
          "duration": 1.5350708333333216,
          "durationTicks": 1120,
          "midi": 80,
          "name": "G#5",
          "ticks": 137852,
          "time": 188.93980760416665,
          "velocity": 0.3543307086614173
        },
        {
          "duration": 1.5350708333333216,
          "durationTicks": 1120,
          "midi": 68,
          "name": "G#4",
          "ticks": 137852,
          "time": 188.93980760416665,
          "velocity": 0.3464566929133858
        },
        {
          "duration": 0.11513031249998562,
          "durationTicks": 84,
          "midi": 92,
          "name": "G#6",
          "ticks": 139392,
          "time": 191.05052999999998,
          "velocity": 0.5905511811023622
        },
        {
          "duration": 0.11513031249998562,
          "durationTicks": 84,
          "midi": 80,
          "name": "G#5",
          "ticks": 139392,
          "time": 191.05052999999998,
          "velocity": 0.5905511811023622
        },
        {
          "duration": 0.1206127083333115,
          "durationTicks": 88,
          "midi": 90,
          "name": "F#6",
          "ticks": 139480,
          "time": 191.17114270833332,
          "velocity": 0.5590551181102362
        },
        {
          "duration": 0.1206127083333115,
          "durationTicks": 88,
          "midi": 78,
          "name": "F#5",
          "ticks": 139480,
          "time": 191.17114270833332,
          "velocity": 0.5590551181102362
        },
        {
          "duration": 0.10964791666665974,
          "durationTicks": 80,
          "midi": 89,
          "name": "F6",
          "ticks": 139572,
          "time": 191.2972378125,
          "velocity": 0.6614173228346457
        },
        {
          "duration": 0.10964791666665974,
          "durationTicks": 80,
          "midi": 77,
          "name": "F5",
          "ticks": 139572,
          "time": 191.2972378125,
          "velocity": 0.6614173228346457
        },
        {
          "duration": 0.9045953124999926,
          "durationTicks": 660,
          "midi": 85,
          "name": "C#6",
          "ticks": 139680,
          "time": 191.44526249999998,
          "velocity": 0.5905511811023622
        },
        {
          "duration": 0.9045953124999926,
          "durationTicks": 660,
          "midi": 73,
          "name": "C#5",
          "ticks": 139680,
          "time": 191.44526249999998,
          "velocity": 0.5905511811023622
        },
        {
          "duration": 0.7675354166666466,
          "durationTicks": 560,
          "midi": 87,
          "name": "D#6",
          "ticks": 140344,
          "time": 192.35534020833333,
          "velocity": 0.5590551181102362
        },
        {
          "duration": 0.7675354166666466,
          "durationTicks": 560,
          "midi": 75,
          "name": "D#5",
          "ticks": 140344,
          "time": 192.35534020833333,
          "velocity": 0.5590551181102362
        },
        {
          "duration": 0.5372747916666469,
          "durationTicks": 392,
          "midi": 80,
          "name": "G#5",
          "ticks": 140908,
          "time": 193.12835802083333,
          "velocity": 0.4330708661417323
        },
        {
          "duration": 0.5372747916666469,
          "durationTicks": 392,
          "midi": 68,
          "name": "G#4",
          "ticks": 140908,
          "time": 193.12835802083333,
          "velocity": 0.4409448818897638
        },
        {
          "duration": 0.7949473958333044,
          "durationTicks": 580,
          "midi": 87,
          "name": "D#6",
          "ticks": 141304,
          "time": 193.67111520833333,
          "velocity": 0.5354330708661418
        },
        {
          "duration": 0.7949473958333044,
          "durationTicks": 580,
          "midi": 75,
          "name": "D#5",
          "ticks": 141304,
          "time": 193.67111520833333,
          "velocity": 0.5354330708661418
        },
        {
          "duration": 0.7456058333333431,
          "durationTicks": 544,
          "midi": 89,
          "name": "F6",
          "ticks": 141888,
          "time": 194.471545,
          "velocity": 0.5905511811023622
        },
        {
          "duration": 0.7456058333333431,
          "durationTicks": 544,
          "midi": 77,
          "name": "F5",
          "ticks": 141888,
          "time": 194.471545,
          "velocity": 0.5905511811023622
        },
        {
          "duration": 0.10416552083330544,
          "durationTicks": 76,
          "midi": 92,
          "name": "G#6",
          "ticks": 142480,
          "time": 195.28293958333333,
          "velocity": 0.5354330708661418
        },
        {
          "duration": 0.10416552083330544,
          "durationTicks": 76,
          "midi": 80,
          "name": "G#5",
          "ticks": 142480,
          "time": 195.28293958333333,
          "velocity": 0.5354330708661418
        },
        {
          "duration": 0.10964791666665974,
          "durationTicks": 80,
          "midi": 90,
          "name": "F#6",
          "ticks": 142560,
          "time": 195.3925875,
          "velocity": 0.4881889763779528
        },
        {
          "duration": 0.10964791666665974,
          "durationTicks": 80,
          "midi": 78,
          "name": "F#5",
          "ticks": 142560,
          "time": 195.3925875,
          "velocity": 0.4881889763779528
        },
        {
          "duration": 0.09868312499997955,
          "durationTicks": 72,
          "midi": 89,
          "name": "F6",
          "ticks": 142648,
          "time": 195.51320020833333,
          "velocity": 0.5354330708661418
        },
        {
          "duration": 0.09868312499997955,
          "durationTicks": 72,
          "midi": 77,
          "name": "F5",
          "ticks": 142648,
          "time": 195.51320020833333,
          "velocity": 0.5354330708661418
        },
        {
          "duration": 0.8771833333333063,
          "durationTicks": 640,
          "midi": 85,
          "name": "C#6",
          "ticks": 142756,
          "time": 195.66122489583333,
          "velocity": 0.4881889763779528
        },
        {
          "duration": 0.8771833333333063,
          "durationTicks": 640,
          "midi": 73,
          "name": "C#5",
          "ticks": 142756,
          "time": 195.66122489583333,
          "velocity": 0.4881889763779528
        },
        {
          "duration": 0.7894649999999785,
          "durationTicks": 576,
          "midi": 87,
          "name": "D#6",
          "ticks": 143400,
          "time": 196.543890625,
          "velocity": 0.5590551181102362
        },
        {
          "duration": 0.7894649999999785,
          "durationTicks": 576,
          "midi": 75,
          "name": "D#5",
          "ticks": 143400,
          "time": 196.543890625,
          "velocity": 0.5590551181102362
        },
        {
          "duration": 1.9626977083333088,
          "durationTicks": 1432,
          "midi": 80,
          "name": "G#5",
          "ticks": 143980,
          "time": 197.33883802083332,
          "velocity": 0.33858267716535434
        },
        {
          "duration": 1.9626977083333088,
          "durationTicks": 1432,
          "midi": 68,
          "name": "G#4",
          "ticks": 143980,
          "time": 197.33883802083332,
          "velocity": 0.3464566929133858
        },
        {
          "duration": 0.7510882291666405,
          "durationTicks": 548,
          "midi": 85,
          "name": "C#6",
          "ticks": 145932,
          "time": 200.0142471875,
          "velocity": 0.5354330708661418
        },
        {
          "duration": 0.7510882291666405,
          "durationTicks": 548,
          "midi": 73,
          "name": "C#5",
          "ticks": 145932,
          "time": 200.0142471875,
          "velocity": 0.5354330708661418
        },
        {
          "duration": 0.7730178125000009,
          "durationTicks": 564,
          "midi": 87,
          "name": "D#6",
          "ticks": 146484,
          "time": 200.77081781249998,
          "velocity": 0.5039370078740157
        },
        {
          "duration": 0.7730178125000009,
          "durationTicks": 564,
          "midi": 75,
          "name": "D#5",
          "ticks": 146484,
          "time": 200.77081781249998,
          "velocity": 0.5039370078740157
        },
        {
          "duration": 0.49889802083333734,
          "durationTicks": 364,
          "midi": 80,
          "name": "G#5",
          "ticks": 147052,
          "time": 201.5493180208333,
          "velocity": 0.3779527559055118
        },
        {
          "duration": 0.49889802083333734,
          "durationTicks": 364,
          "midi": 68,
          "name": "G#4",
          "ticks": 147052,
          "time": 201.5493180208333,
          "velocity": 0.3937007874015748
        },
        {
          "duration": 0.8388065624999967,
          "durationTicks": 612,
          "midi": 87,
          "name": "D#6",
          "ticks": 147420,
          "time": 202.05369843749997,
          "velocity": 0.44881889763779526
        },
        {
          "duration": 0.8388065624999967,
          "durationTicks": 612,
          "midi": 75,
          "name": "D#5",
          "ticks": 147420,
          "time": 202.05369843749997,
          "velocity": 0.44881889763779526
        },
        {
          "duration": 0.6578874999999869,
          "durationTicks": 480,
          "midi": 89,
          "name": "F6",
          "ticks": 148036,
          "time": 202.89798739583333,
          "velocity": 0.5118110236220472
        },
        {
          "duration": 0.6578874999999869,
          "durationTicks": 480,
          "midi": 77,
          "name": "F5",
          "ticks": 148036,
          "time": 202.89798739583333,
          "velocity": 0.5118110236220472
        },
        {
          "duration": 0.11513031250001404,
          "durationTicks": 84,
          "midi": 92,
          "name": "G#6",
          "ticks": 148588,
          "time": 203.65455802083332,
          "velocity": 0.3937007874015748
        },
        {
          "duration": 0.11513031250001404,
          "durationTicks": 84,
          "midi": 80,
          "name": "G#5",
          "ticks": 148588,
          "time": 203.65455802083332,
          "velocity": 0.3937007874015748
        },
        {
          "duration": 0.10964791666668816,
          "durationTicks": 80,
          "midi": 90,
          "name": "F#6",
          "ticks": 148676,
          "time": 203.77517072916663,
          "velocity": 0.3858267716535433
        },
        {
          "duration": 0.10964791666668816,
          "durationTicks": 80,
          "midi": 78,
          "name": "F#5",
          "ticks": 148676,
          "time": 203.77517072916663,
          "velocity": 0.3858267716535433
        },
        {
          "duration": 0.09320072916665367,
          "durationTicks": 68,
          "midi": 89,
          "name": "F6",
          "ticks": 148764,
          "time": 203.89578343749997,
          "velocity": 0.41732283464566927
        },
        {
          "duration": 0.09320072916665367,
          "durationTicks": 68,
          "midi": 77,
          "name": "F5",
          "ticks": 148764,
          "time": 203.89578343749997,
          "velocity": 0.41732283464566927
        },
        {
          "duration": 0.9374896875000047,
          "durationTicks": 684,
          "midi": 85,
          "name": "C#6",
          "ticks": 148872,
          "time": 204.04380812499997,
          "velocity": 0.3937007874015748
        },
        {
          "duration": 0.9374896875000047,
          "durationTicks": 684,
          "midi": 73,
          "name": "C#5",
          "ticks": 148872,
          "time": 204.04380812499997,
          "velocity": 0.3937007874015748
        },
        {
          "duration": 0.789465000000007,
          "durationTicks": 576,
          "midi": 87,
          "name": "D#6",
          "ticks": 149560,
          "time": 204.98678020833333,
          "velocity": 0.3228346456692913
        },
        {
          "duration": 0.789465000000007,
          "durationTicks": 576,
          "midi": 75,
          "name": "D#5",
          "ticks": 149560,
          "time": 204.98678020833333,
          "velocity": 0.3228346456692913
        },
        {
          "duration": 1.53507083333335,
          "durationTicks": 1120,
          "midi": 80,
          "name": "G#5",
          "ticks": 150140,
          "time": 205.78172760416663,
          "velocity": 0.15748031496062992
        },
        {
          "duration": 1.53507083333335,
          "durationTicks": 1120,
          "midi": 68,
          "name": "G#4",
          "ticks": 150140,
          "time": 205.78172760416663,
          "velocity": 0.14960629921259844
        },
        {
          "duration": 0.11513031250001404,
          "durationTicks": 84,
          "midi": 92,
          "name": "G#6",
          "ticks": 151680,
          "time": 207.89244999999997,
          "velocity": 0.1968503937007874
        },
        {
          "duration": 0.11513031250001404,
          "durationTicks": 84,
          "midi": 80,
          "name": "G#5",
          "ticks": 151680,
          "time": 207.89244999999997,
          "velocity": 0.1968503937007874
        },
        {
          "duration": 0.12061270833333992,
          "durationTicks": 88,
          "midi": 90,
          "name": "F#6",
          "ticks": 151768,
          "time": 208.0130627083333,
          "velocity": 0.1732283464566929
        },
        {
          "duration": 0.12061270833333992,
          "durationTicks": 88,
          "midi": 78,
          "name": "F#5",
          "ticks": 151768,
          "time": 208.0130627083333,
          "velocity": 0.1732283464566929
        },
        {
          "duration": 0.10964791666665974,
          "durationTicks": 80,
          "midi": 89,
          "name": "F6",
          "ticks": 151860,
          "time": 208.13915781249997,
          "velocity": 0.2125984251968504
        },
        {
          "duration": 0.10964791666665974,
          "durationTicks": 80,
          "midi": 77,
          "name": "F5",
          "ticks": 151860,
          "time": 208.13915781249997,
          "velocity": 0.2125984251968504
        },
        {
          "duration": 0.9045953124999926,
          "durationTicks": 660,
          "midi": 85,
          "name": "C#6",
          "ticks": 151968,
          "time": 208.28718249999997,
          "velocity": 0.1732283464566929
        },
        {
          "duration": 0.9045953124999926,
          "durationTicks": 660,
          "midi": 73,
          "name": "C#5",
          "ticks": 151968,
          "time": 208.28718249999997,
          "velocity": 0.1732283464566929
        },
        {
          "duration": 0.7675354166666466,
          "durationTicks": 560,
          "midi": 87,
          "name": "D#6",
          "ticks": 152632,
          "time": 209.19726020833332,
          "velocity": 0.11811023622047244
        },
        {
          "duration": 0.7675354166666466,
          "durationTicks": 560,
          "midi": 75,
          "name": "D#5",
          "ticks": 152632,
          "time": 209.19726020833332,
          "velocity": 0.11811023622047244
        },
        {
          "duration": 0.5372747916666469,
          "durationTicks": 392,
          "midi": 80,
          "name": "G#5",
          "ticks": 153196,
          "time": 209.97027802083332,
          "velocity": 0.03937007874015748
        },
        {
          "duration": 0.5372747916666469,
          "durationTicks": 392,
          "midi": 68,
          "name": "G#4",
          "ticks": 153196,
          "time": 209.97027802083332,
          "velocity": 0.03937007874015748
        },
        {
          "duration": 0.7949473958333044,
          "durationTicks": 580,
          "midi": 87,
          "name": "D#6",
          "ticks": 153592,
          "time": 210.51303520833332,
          "velocity": 0.047244094488188976
        },
        {
          "duration": 0.7949473958333044,
          "durationTicks": 580,
          "midi": 75,
          "name": "D#5",
          "ticks": 153592,
          "time": 210.51303520833332,
          "velocity": 0.047244094488188976
        },
        {
          "duration": 0.7456058333333431,
          "durationTicks": 544,
          "midi": 89,
          "name": "F6",
          "ticks": 154176,
          "time": 211.31346499999998,
          "velocity": 0.023622047244094488
        },
        {
          "duration": 0.7456058333333431,
          "durationTicks": 544,
          "midi": 77,
          "name": "F5",
          "ticks": 154176,
          "time": 211.31346499999998,
          "velocity": 0.023622047244094488
        },
        {
          "duration": 0.10416552083330544,
          "durationTicks": 76,
          "midi": 92,
          "name": "G#6",
          "ticks": 154768,
          "time": 212.12485958333332,
          "velocity": 0.007874015748031496
        },
        {
          "duration": 0.10416552083330544,
          "durationTicks": 76,
          "midi": 80,
          "name": "G#5",
          "ticks": 154768,
          "time": 212.12485958333332,
          "velocity": 0.007874015748031496
        },
        {
          "duration": 0.10964791666665974,
          "durationTicks": 80,
          "midi": 90,
          "name": "F#6",
          "ticks": 154848,
          "time": 212.23450749999998,
          "velocity": 0.007874015748031496
        },
        {
          "duration": 0.10964791666665974,
          "durationTicks": 80,
          "midi": 78,
          "name": "F#5",
          "ticks": 154848,
          "time": 212.23450749999998,
          "velocity": 0.007874015748031496
        },
        {
          "duration": 0.09868312500000798,
          "durationTicks": 72,
          "midi": 89,
          "name": "F6",
          "ticks": 154936,
          "time": 212.35512020833332,
          "velocity": 0.007874015748031496
        },
        {
          "duration": 0.09868312500000798,
          "durationTicks": 72,
          "midi": 77,
          "name": "F5",
          "ticks": 154936,
          "time": 212.35512020833332,
          "velocity": 0.007874015748031496
        },
        {
          "duration": 0.8771833333333063,
          "durationTicks": 640,
          "midi": 85,
          "name": "C#6",
          "ticks": 155044,
          "time": 212.50314489583332,
          "velocity": 0.007874015748031496
        },
        {
          "duration": 0.8771833333333063,
          "durationTicks": 640,
          "midi": 73,
          "name": "C#5",
          "ticks": 155044,
          "time": 212.50314489583332,
          "velocity": 0.007874015748031496
        },
        {
          "duration": 0.8113945833333389,
          "durationTicks": 592,
          "midi": 87,
          "name": "D#6",
          "ticks": 155688,
          "time": 213.38581062499998,
          "velocity": 0.007874015748031496
        },
        {
          "duration": 0.8113945833333389,
          "durationTicks": 592,
          "midi": 75,
          "name": "D#5",
          "ticks": 155688,
          "time": 213.38581062499998,
          "velocity": 0.007874015748031496
        }
      ],
      "endOfTrackTicks": 158208
    },
    {
      "channel": 11,
      "controlChanges": {
        "1": [
          {
            "number": 1,
            "ticks": 10184,
            "time": 13.958179791666664,
            "value": 0
          }
        ],
        "7": [
          {
            "number": 7,
            "ticks": 2152,
            "time": 2.949528958333333,
            "value": 0.5905511811023622
          }
        ],
        "10": [
          {
            "number": 10,
            "ticks": 2152,
            "time": 2.949528958333333,
            "value": 0.31496062992125984
          }
        ],
        "11": [
          {
            "number": 11,
            "ticks": 2152,
            "time": 2.949528958333333,
            "value": 1
          }
        ],
        "91": [
          {
            "number": 91,
            "ticks": 2156,
            "time": 2.955011354166666,
            "value": 0.5196850393700787
          }
        ],
        "93": [
          {
            "number": 93,
            "ticks": 2156,
            "time": 2.955011354166666,
            "value": 0
          }
        ]
      },
      "pitchBends": [
        {
          "ticks": 10184,
          "time": 13.958179791666664,
          "value": 0
        }
      ],
      "instrument": {
        "family": "brass",
        "number": 56,
        "name": "trumpet"
      },
      "name": "TRUMPET",
      "notes": [
        {
          "duration": 0.07127114583333238,
          "durationTicks": 52,
          "midi": 80,
          "name": "G#5",
          "ticks": 10180,
          "time": 13.952697395833333,
          "velocity": 0.8188976377952756
        },
        {
          "duration": 0.07675354166666537,
          "durationTicks": 56,
          "midi": 68,
          "name": "G#4",
          "ticks": 10180,
          "time": 13.952697395833333,
          "velocity": 0.6614173228346457
        },
        {
          "duration": 0.07675354166666715,
          "durationTicks": 56,
          "midi": 80,
          "name": "G#5",
          "ticks": 10276,
          "time": 14.084274895833332,
          "velocity": 0.8188976377952756
        },
        {
          "duration": 0.08771833333333312,
          "durationTicks": 64,
          "midi": 68,
          "name": "G#4",
          "ticks": 10276,
          "time": 14.084274895833332,
          "velocity": 0.6614173228346457
        },
        {
          "duration": 0.06030635416666641,
          "durationTicks": 44,
          "midi": 82,
          "name": "A#5",
          "ticks": 10372,
          "time": 14.215852395833332,
          "velocity": 0.8188976377952756
        },
        {
          "duration": 0.0657887499999994,
          "durationTicks": 48,
          "midi": 70,
          "name": "A#4",
          "ticks": 10372,
          "time": 14.215852395833332,
          "velocity": 0.6614173228346457
        },
        {
          "duration": 0.07675354166666537,
          "durationTicks": 56,
          "midi": 85,
          "name": "C#6",
          "ticks": 10468,
          "time": 14.347429895833333,
          "velocity": 0.7480314960629921
        },
        {
          "duration": 0.08771833333333134,
          "durationTicks": 64,
          "midi": 73,
          "name": "C#5",
          "ticks": 10468,
          "time": 14.347429895833333,
          "velocity": 0.5590551181102362
        },
        {
          "duration": 0.06578875000000117,
          "durationTicks": 48,
          "midi": 82,
          "name": "A#5",
          "ticks": 10556,
          "time": 14.468042604166664,
          "velocity": 0.8582677165354331
        },
        {
          "duration": 0.07675354166666537,
          "durationTicks": 56,
          "midi": 70,
          "name": "A#4",
          "ticks": 10560,
          "time": 14.473524999999999,
          "velocity": 0.6614173228346457
        },
        {
          "duration": 0.10964791666666507,
          "durationTicks": 80,
          "midi": 85,
          "name": "C#6",
          "ticks": 10656,
          "time": 14.6051025,
          "velocity": 0.8188976377952756
        },
        {
          "duration": 0.14254229166666654,
          "durationTicks": 104,
          "midi": 73,
          "name": "C#5",
          "ticks": 10660,
          "time": 14.610584895833332,
          "velocity": 0.6614173228346457
        },
        {
          "duration": 0.06030635416666996,
          "durationTicks": 44,
          "midi": 85,
          "name": "C#6",
          "ticks": 16128,
          "time": 22.105019999999996,
          "velocity": 0.7480314960629921
        },
        {
          "duration": 0.049341562500000435,
          "durationTicks": 36,
          "midi": 80,
          "name": "G#5",
          "ticks": 16128,
          "time": 22.105019999999996,
          "velocity": 0.8188976377952756
        },
        {
          "duration": 0.043859166666671,
          "durationTicks": 32,
          "midi": 73,
          "name": "C#5",
          "ticks": 16128,
          "time": 22.105019999999996,
          "velocity": 0.7480314960629921
        },
        {
          "duration": 0.07675354166666537,
          "durationTicks": 56,
          "midi": 85,
          "name": "C#6",
          "ticks": 16220,
          "time": 22.231115104166665,
          "velocity": 0.7480314960629921
        },
        {
          "duration": 0.049341562500000435,
          "durationTicks": 36,
          "midi": 80,
          "name": "G#5",
          "ticks": 16224,
          "time": 22.2365975,
          "velocity": 0.7480314960629921
        },
        {
          "duration": 0.04385916666666745,
          "durationTicks": 32,
          "midi": 73,
          "name": "C#5",
          "ticks": 16224,
          "time": 22.2365975,
          "velocity": 0.6456692913385826
        },
        {
          "duration": 0.049341562500000435,
          "durationTicks": 36,
          "midi": 73,
          "name": "C#5",
          "ticks": 16420,
          "time": 22.50523489583333,
          "velocity": 0.4409448818897638
        },
        {
          "duration": 0.06030635416666996,
          "durationTicks": 44,
          "midi": 80,
          "name": "G#5",
          "ticks": 16420,
          "time": 22.50523489583333,
          "velocity": 0.4409448818897638
        },
        {
          "duration": 0.0657887499999994,
          "durationTicks": 48,
          "midi": 85,
          "name": "C#6",
          "ticks": 16420,
          "time": 22.50523489583333,
          "velocity": 0.4409448818897638
        },
        {
          "duration": 0.0657887499999994,
          "durationTicks": 48,
          "midi": 85,
          "name": "C#6",
          "ticks": 16512,
          "time": 22.63133,
          "velocity": 0.8188976377952756
        },
        {
          "duration": 0.05482395833332987,
          "durationTicks": 40,
          "midi": 80,
          "name": "G#5",
          "ticks": 16512,
          "time": 22.63133,
          "velocity": 0.8188976377952756
        },
        {
          "duration": 0.049341562500000435,
          "durationTicks": 36,
          "midi": 73,
          "name": "C#5",
          "ticks": 16512,
          "time": 22.63133,
          "velocity": 0.8582677165354331
        },
        {
          "duration": 0.07127114583333238,
          "durationTicks": 52,
          "midi": 85,
          "name": "C#6",
          "ticks": 16604,
          "time": 22.757425104166664,
          "velocity": 0.7480314960629921
        },
        {
          "duration": 0.04385916666666745,
          "durationTicks": 32,
          "midi": 73,
          "name": "C#5",
          "ticks": 16612,
          "time": 22.76838989583333,
          "velocity": 0.7165354330708661
        },
        {
          "duration": 0.04385916666666745,
          "durationTicks": 32,
          "midi": 80,
          "name": "G#5",
          "ticks": 16612,
          "time": 22.76838989583333,
          "velocity": 0.8188976377952756
        },
        {
          "duration": 0.06030635416666996,
          "durationTicks": 44,
          "midi": 73,
          "name": "C#5",
          "ticks": 16708,
          "time": 22.89996739583333,
          "velocity": 0.41732283464566927
        },
        {
          "duration": 0.0657887499999994,
          "durationTicks": 48,
          "midi": 85,
          "name": "C#6",
          "ticks": 16708,
          "time": 22.89996739583333,
          "velocity": 0.41732283464566927
        },
        {
          "duration": 0.04385916666666745,
          "durationTicks": 32,
          "midi": 80,
          "name": "G#5",
          "ticks": 16708,
          "time": 22.89996739583333,
          "velocity": 0.41732283464566927
        },
        {
          "duration": 0.08771833333333134,
          "durationTicks": 64,
          "midi": 85,
          "name": "C#6",
          "ticks": 16800,
          "time": 23.0260625,
          "velocity": 0.8582677165354331
        },
        {
          "duration": 0.06030635416666641,
          "durationTicks": 44,
          "midi": 80,
          "name": "G#5",
          "ticks": 16800,
          "time": 23.0260625,
          "velocity": 0.8976377952755905
        },
        {
          "duration": 0.04934156249999688,
          "durationTicks": 36,
          "midi": 73,
          "name": "C#5",
          "ticks": 16804,
          "time": 23.03154489583333,
          "velocity": 0.8582677165354331
        },
        {
          "duration": 2.3958069791666645,
          "durationTicks": 1748,
          "midi": 80,
          "name": "G#5",
          "ticks": 26112,
          "time": 35.78908,
          "velocity": 0.7480314960629921
        },
        {
          "duration": 2.3848421874999985,
          "durationTicks": 1740,
          "midi": 68,
          "name": "G#4",
          "ticks": 26112,
          "time": 35.78908,
          "velocity": 0.7165354330708661
        },
        {
          "duration": 0.5537219791666743,
          "durationTicks": 404,
          "midi": 77,
          "name": "F5",
          "ticks": 27836,
          "time": 38.15199260416666,
          "velocity": 0.8582677165354331
        },
        {
          "duration": 0.5537219791666672,
          "durationTicks": 404,
          "midi": 65,
          "name": "F4",
          "ticks": 27844,
          "time": 38.16295739583333,
          "velocity": 0.7716535433070866
        },
        {
          "duration": 0.5372747916666754,
          "durationTicks": 392,
          "midi": 75,
          "name": "D#5",
          "ticks": 28232,
          "time": 38.69474979166666,
          "velocity": 0.7165354330708661
        },
        {
          "duration": 0.5263100000000023,
          "durationTicks": 384,
          "midi": 63,
          "name": "D#4",
          "ticks": 28244,
          "time": 38.71119697916666,
          "velocity": 0.7165354330708661
        },
        {
          "duration": 0.5592043750000002,
          "durationTicks": 408,
          "midi": 73,
          "name": "C#5",
          "ticks": 28604,
          "time": 39.20461260416666,
          "velocity": 0.7480314960629921
        },
        {
          "duration": 0.5592043750000002,
          "durationTicks": 408,
          "midi": 61,
          "name": "C#4",
          "ticks": 28608,
          "time": 39.210094999999995,
          "velocity": 0.7165354330708661
        },
        {
          "duration": 2.154581562499999,
          "durationTicks": 1572,
          "midi": 70,
          "name": "A#4",
          "ticks": 29004,
          "time": 39.7528521875,
          "velocity": 0.8188976377952756
        },
        {
          "duration": 2.160063958333332,
          "durationTicks": 1576,
          "midi": 58,
          "name": "A#3",
          "ticks": 29012,
          "time": 39.76381697916666,
          "velocity": 0.7165354330708661
        },
        {
          "duration": 0.07127114583332883,
          "durationTicks": 52,
          "midi": 80,
          "name": "G#5",
          "ticks": 34756,
          "time": 47.63653739583333,
          "velocity": 0.8188976377952756
        },
        {
          "duration": 0.07675354166666892,
          "durationTicks": 56,
          "midi": 68,
          "name": "G#4",
          "ticks": 34756,
          "time": 47.63653739583333,
          "velocity": 0.6614173228346457
        },
        {
          "duration": 0.07675354166666892,
          "durationTicks": 56,
          "midi": 80,
          "name": "G#5",
          "ticks": 34852,
          "time": 47.76811489583333,
          "velocity": 0.8188976377952756
        },
        {
          "duration": 0.08771833333332779,
          "durationTicks": 64,
          "midi": 68,
          "name": "G#4",
          "ticks": 34852,
          "time": 47.76811489583333,
          "velocity": 0.6614173228346457
        },
        {
          "duration": 0.06030635416666286,
          "durationTicks": 44,
          "midi": 82,
          "name": "A#5",
          "ticks": 34948,
          "time": 47.899692395833334,
          "velocity": 0.8188976377952756
        },
        {
          "duration": 0.06578874999999584,
          "durationTicks": 48,
          "midi": 70,
          "name": "A#4",
          "ticks": 34948,
          "time": 47.899692395833334,
          "velocity": 0.6614173228346457
        },
        {
          "duration": 0.07675354166666182,
          "durationTicks": 56,
          "midi": 85,
          "name": "C#6",
          "ticks": 35044,
          "time": 48.03126989583333,
          "velocity": 0.7480314960629921
        },
        {
          "duration": 0.08771833333332779,
          "durationTicks": 64,
          "midi": 73,
          "name": "C#5",
          "ticks": 35044,
          "time": 48.03126989583333,
          "velocity": 0.5590551181102362
        },
        {
          "duration": 0.06578875000000295,
          "durationTicks": 48,
          "midi": 82,
          "name": "A#5",
          "ticks": 35132,
          "time": 48.15188260416666,
          "velocity": 0.8582677165354331
        },
        {
          "duration": 0.07675354166666892,
          "durationTicks": 56,
          "midi": 70,
          "name": "A#4",
          "ticks": 35136,
          "time": 48.15736499999999,
          "velocity": 0.6614173228346457
        },
        {
          "duration": 0.10964791666665974,
          "durationTicks": 80,
          "midi": 85,
          "name": "C#6",
          "ticks": 35232,
          "time": 48.2889425,
          "velocity": 0.8188976377952756
        },
        {
          "duration": 0.14254229166666477,
          "durationTicks": 104,
          "midi": 73,
          "name": "C#5",
          "ticks": 35236,
          "time": 48.29442489583333,
          "velocity": 0.6614173228346457
        },
        {
          "duration": 0.07127114583332883,
          "durationTicks": 52,
          "midi": 80,
          "name": "G#5",
          "ticks": 40900,
          "time": 56.05749739583333,
          "velocity": 0.8188976377952756
        },
        {
          "duration": 0.07675354166666182,
          "durationTicks": 56,
          "midi": 68,
          "name": "G#4",
          "ticks": 40900,
          "time": 56.05749739583333,
          "velocity": 0.6614173228346457
        },
        {
          "duration": 0.07675354166666182,
          "durationTicks": 56,
          "midi": 80,
          "name": "G#5",
          "ticks": 40996,
          "time": 56.18907489583333,
          "velocity": 0.8188976377952756
        },
        {
          "duration": 0.08771833333332779,
          "durationTicks": 64,
          "midi": 68,
          "name": "G#4",
          "ticks": 40996,
          "time": 56.18907489583333,
          "velocity": 0.6614173228346457
        },
        {
          "duration": 0.06030635416666286,
          "durationTicks": 44,
          "midi": 82,
          "name": "A#5",
          "ticks": 41092,
          "time": 56.32065239583333,
          "velocity": 0.8188976377952756
        },
        {
          "duration": 0.06578875000000295,
          "durationTicks": 48,
          "midi": 70,
          "name": "A#4",
          "ticks": 41092,
          "time": 56.32065239583333,
          "velocity": 0.6614173228346457
        },
        {
          "duration": 0.07675354166666892,
          "durationTicks": 56,
          "midi": 85,
          "name": "C#6",
          "ticks": 41188,
          "time": 56.45222989583333,
          "velocity": 0.7480314960629921
        },
        {
          "duration": 0.0877183333333349,
          "durationTicks": 64,
          "midi": 73,
          "name": "C#5",
          "ticks": 41188,
          "time": 56.45222989583333,
          "velocity": 0.5590551181102362
        },
        {
          "duration": 0.06578874999999584,
          "durationTicks": 48,
          "midi": 82,
          "name": "A#5",
          "ticks": 41276,
          "time": 56.57284260416666,
          "velocity": 0.8582677165354331
        },
        {
          "duration": 0.07675354166666892,
          "durationTicks": 56,
          "midi": 70,
          "name": "A#4",
          "ticks": 41280,
          "time": 56.57832499999999,
          "velocity": 0.6614173228346457
        },
        {
          "duration": 0.10964791666666684,
          "durationTicks": 80,
          "midi": 85,
          "name": "C#6",
          "ticks": 41376,
          "time": 56.70990249999999,
          "velocity": 0.8188976377952756
        },
        {
          "duration": 0.14254229166666477,
          "durationTicks": 104,
          "midi": 73,
          "name": "C#5",
          "ticks": 41380,
          "time": 56.71538489583333,
          "velocity": 0.6614173228346457
        },
        {
          "duration": 0.06030635416666996,
          "durationTicks": 44,
          "midi": 85,
          "name": "C#6",
          "ticks": 46848,
          "time": 64.20982,
          "velocity": 0.7480314960629921
        },
        {
          "duration": 0.04934156250000399,
          "durationTicks": 36,
          "midi": 80,
          "name": "G#5",
          "ticks": 46848,
          "time": 64.20982,
          "velocity": 0.8188976377952756
        },
        {
          "duration": 0.043859166666663896,
          "durationTicks": 32,
          "midi": 73,
          "name": "C#5",
          "ticks": 46848,
          "time": 64.20982,
          "velocity": 0.7480314960629921
        },
        {
          "duration": 0.07675354166667603,
          "durationTicks": 56,
          "midi": 85,
          "name": "C#6",
          "ticks": 46940,
          "time": 64.33591510416666,
          "velocity": 0.7480314960629921
        },
        {
          "duration": 0.04934156249998978,
          "durationTicks": 36,
          "midi": 80,
          "name": "G#5",
          "ticks": 46944,
          "time": 64.3413975,
          "velocity": 0.7480314960629921
        },
        {
          "duration": 0.043859166666663896,
          "durationTicks": 32,
          "midi": 73,
          "name": "C#5",
          "ticks": 46944,
          "time": 64.3413975,
          "velocity": 0.6456692913385826
        },
        {
          "duration": 0.04934156250000399,
          "durationTicks": 36,
          "midi": 73,
          "name": "C#5",
          "ticks": 47140,
          "time": 64.61003489583332,
          "velocity": 0.4409448818897638
        },
        {
          "duration": 0.06030635416666996,
          "durationTicks": 44,
          "midi": 80,
          "name": "G#5",
          "ticks": 47140,
          "time": 64.61003489583332,
          "velocity": 0.4409448818897638
        },
        {
          "duration": 0.06578875000001005,
          "durationTicks": 48,
          "midi": 85,
          "name": "C#6",
          "ticks": 47140,
          "time": 64.61003489583332,
          "velocity": 0.4409448818897638
        },
        {
          "duration": 0.06578875000001005,
          "durationTicks": 48,
          "midi": 85,
          "name": "C#6",
          "ticks": 47232,
          "time": 64.73612999999999,
          "velocity": 0.8188976377952756
        },
        {
          "duration": 0.05482395833334408,
          "durationTicks": 40,
          "midi": 80,
          "name": "G#5",
          "ticks": 47232,
          "time": 64.73612999999999,
          "velocity": 0.8188976377952756
        },
        {
          "duration": 0.04934156250000399,
          "durationTicks": 36,
          "midi": 73,
          "name": "C#5",
          "ticks": 47232,
          "time": 64.73612999999999,
          "velocity": 0.8582677165354331
        },
        {
          "duration": 0.07127114583333594,
          "durationTicks": 52,
          "midi": 85,
          "name": "C#6",
          "ticks": 47324,
          "time": 64.86222510416665,
          "velocity": 0.7480314960629921
        },
        {
          "duration": 0.043859166666663896,
          "durationTicks": 32,
          "midi": 73,
          "name": "C#5",
          "ticks": 47332,
          "time": 64.87318989583333,
          "velocity": 0.7165354330708661
        },
        {
          "duration": 0.043859166666663896,
          "durationTicks": 32,
          "midi": 80,
          "name": "G#5",
          "ticks": 47332,
          "time": 64.87318989583333,
          "velocity": 0.8188976377952756
        },
        {
          "duration": 0.06030635416666996,
          "durationTicks": 44,
          "midi": 73,
          "name": "C#5",
          "ticks": 47428,
          "time": 65.00476739583333,
          "velocity": 0.41732283464566927
        },
        {
          "duration": 0.06578874999999584,
          "durationTicks": 48,
          "midi": 85,
          "name": "C#6",
          "ticks": 47428,
          "time": 65.00476739583333,
          "velocity": 0.41732283464566927
        },
        {
          "duration": 0.043859166666663896,
          "durationTicks": 32,
          "midi": 80,
          "name": "G#5",
          "ticks": 47428,
          "time": 65.00476739583333,
          "velocity": 0.41732283464566927
        },
        {
          "duration": 0.087718333333342,
          "durationTicks": 64,
          "midi": 85,
          "name": "C#6",
          "ticks": 47520,
          "time": 65.13086249999999,
          "velocity": 0.8582677165354331
        },
        {
          "duration": 0.06030635416666996,
          "durationTicks": 44,
          "midi": 80,
          "name": "G#5",
          "ticks": 47520,
          "time": 65.13086249999999,
          "velocity": 0.8976377952755905
        },
        {
          "duration": 0.04934156249998978,
          "durationTicks": 36,
          "midi": 73,
          "name": "C#5",
          "ticks": 47524,
          "time": 65.13634489583333,
          "velocity": 0.8582677165354331
        },
        {
          "duration": 0.07127114583332173,
          "durationTicks": 52,
          "midi": 85,
          "name": "C#6",
          "ticks": 47812,
          "time": 65.53107739583334,
          "velocity": 0.6535433070866141
        },
        {
          "duration": 0.06030635416665575,
          "durationTicks": 44,
          "midi": 80,
          "name": "G#5",
          "ticks": 47812,
          "time": 65.53107739583334,
          "velocity": 0.6535433070866141
        },
        {
          "duration": 0.06030635416665575,
          "durationTicks": 44,
          "midi": 73,
          "name": "C#5",
          "ticks": 47812,
          "time": 65.53107739583334,
          "velocity": 0.6535433070866141
        },
        {
          "duration": 2.3135710416666626,
          "durationTicks": 1688,
          "midi": 80,
          "name": "G#5",
          "ticks": 56840,
          "time": 77.90484479166666,
          "velocity": 0.8582677165354331
        },
        {
          "duration": 2.313571041666677,
          "durationTicks": 1688,
          "midi": 68,
          "name": "G#4",
          "ticks": 56848,
          "time": 77.91580958333331,
          "velocity": 0.6929133858267716
        },
        {
          "duration": 0.49889802083333734,
          "durationTicks": 364,
          "midi": 77,
          "name": "F5",
          "ticks": 58576,
          "time": 80.28420458333332,
          "velocity": 0.8582677165354331
        },
        {
          "duration": 0.4660036458333394,
          "durationTicks": 340,
          "midi": 65,
          "name": "F4",
          "ticks": 58584,
          "time": 80.29516937499999,
          "velocity": 0.8188976377952756
        },
        {
          "duration": 0.49889802083332313,
          "durationTicks": 364,
          "midi": 75,
          "name": "D#5",
          "ticks": 58964,
          "time": 80.81599697916667,
          "velocity": 0.7480314960629921
        },
        {
          "duration": 0.4605212499999993,
          "durationTicks": 336,
          "midi": 63,
          "name": "D#4",
          "ticks": 58972,
          "time": 80.82696177083332,
          "velocity": 0.7480314960629921
        },
        {
          "duration": 0.531792395833321,
          "durationTicks": 388,
          "midi": 73,
          "name": "C#5",
          "ticks": 59348,
          "time": 81.34230697916666,
          "velocity": 0.8188976377952756
        },
        {
          "duration": 0.5208276041666693,
          "durationTicks": 380,
          "midi": 61,
          "name": "C#4",
          "ticks": 59364,
          "time": 81.3642365625,
          "velocity": 0.7480314960629921
        },
        {
          "duration": 2.116204791666661,
          "durationTicks": 1544,
          "midi": 70,
          "name": "A#4",
          "ticks": 59732,
          "time": 81.86861697916666,
          "velocity": 0.8582677165354331
        },
        {
          "duration": 2.1162047916666467,
          "durationTicks": 1544,
          "midi": 58,
          "name": "A#3",
          "ticks": 59744,
          "time": 81.88506416666667,
          "velocity": 0.8188976377952756
        },
        {
          "duration": 0.07127114583335015,
          "durationTicks": 52,
          "midi": 80,
          "name": "G#5",
          "ticks": 65476,
          "time": 89.74133739583331,
          "velocity": 0.8188976377952756
        },
        {
          "duration": 0.07675354166667603,
          "durationTicks": 56,
          "midi": 68,
          "name": "G#4",
          "ticks": 65476,
          "time": 89.74133739583331,
          "velocity": 0.6614173228346457
        },
        {
          "duration": 0.07675354166667603,
          "durationTicks": 56,
          "midi": 80,
          "name": "G#5",
          "ticks": 65572,
          "time": 89.87291489583332,
          "velocity": 0.8188976377952756
        },
        {
          "duration": 0.087718333333342,
          "durationTicks": 64,
          "midi": 68,
          "name": "G#4",
          "ticks": 65572,
          "time": 89.87291489583332,
          "velocity": 0.6614173228346457
        },
        {
          "duration": 0.06030635416666996,
          "durationTicks": 44,
          "midi": 82,
          "name": "A#5",
          "ticks": 65668,
          "time": 90.00449239583332,
          "velocity": 0.8188976377952756
        },
        {
          "duration": 0.06578874999999584,
          "durationTicks": 48,
          "midi": 70,
          "name": "A#4",
          "ticks": 65668,
          "time": 90.00449239583332,
          "velocity": 0.6614173228346457
        },
        {
          "duration": 0.07675354166667603,
          "durationTicks": 56,
          "midi": 85,
          "name": "C#6",
          "ticks": 65764,
          "time": 90.13606989583332,
          "velocity": 0.7480314960629921
        },
        {
          "duration": 0.087718333333342,
          "durationTicks": 64,
          "midi": 73,
          "name": "C#5",
          "ticks": 65764,
          "time": 90.13606989583332,
          "velocity": 0.5590551181102362
        },
        {
          "duration": 0.06578875000001005,
          "durationTicks": 48,
          "midi": 82,
          "name": "A#5",
          "ticks": 65852,
          "time": 90.25668260416666,
          "velocity": 0.8582677165354331
        },
        {
          "duration": 0.07675354166666182,
          "durationTicks": 56,
          "midi": 70,
          "name": "A#4",
          "ticks": 65856,
          "time": 90.262165,
          "velocity": 0.6614173228346457
        },
        {
          "duration": 0.10964791666667395,
          "durationTicks": 80,
          "midi": 85,
          "name": "C#6",
          "ticks": 65952,
          "time": 90.39374249999999,
          "velocity": 0.8188976377952756
        },
        {
          "duration": 0.14254229166667187,
          "durationTicks": 104,
          "midi": 73,
          "name": "C#5",
          "ticks": 65956,
          "time": 90.39922489583331,
          "velocity": 0.6614173228346457
        },
        {
          "duration": 0.07127114583333594,
          "durationTicks": 52,
          "midi": 80,
          "name": "G#5",
          "ticks": 71620,
          "time": 98.16229739583332,
          "velocity": 0.8188976377952756
        },
        {
          "duration": 0.07675354166667603,
          "durationTicks": 56,
          "midi": 68,
          "name": "G#4",
          "ticks": 71620,
          "time": 98.16229739583332,
          "velocity": 0.6614173228346457
        },
        {
          "duration": 0.07675354166667603,
          "durationTicks": 56,
          "midi": 80,
          "name": "G#5",
          "ticks": 71716,
          "time": 98.29387489583331,
          "velocity": 0.8188976377952756
        },
        {
          "duration": 0.08771833333335621,
          "durationTicks": 64,
          "midi": 68,
          "name": "G#4",
          "ticks": 71716,
          "time": 98.29387489583331,
          "velocity": 0.6614173228346457
        },
        {
          "duration": 0.06030635416666996,
          "durationTicks": 44,
          "midi": 82,
          "name": "A#5",
          "ticks": 71812,
          "time": 98.42545239583332,
          "velocity": 0.8188976377952756
        },
        {
          "duration": 0.06578874999999584,
          "durationTicks": 48,
          "midi": 70,
          "name": "A#4",
          "ticks": 71812,
          "time": 98.42545239583332,
          "velocity": 0.6614173228346457
        },
        {
          "duration": 0.07675354166666182,
          "durationTicks": 56,
          "midi": 85,
          "name": "C#6",
          "ticks": 71908,
          "time": 98.55702989583332,
          "velocity": 0.7480314960629921
        },
        {
          "duration": 0.087718333333342,
          "durationTicks": 64,
          "midi": 73,
          "name": "C#5",
          "ticks": 71908,
          "time": 98.55702989583332,
          "velocity": 0.5590551181102362
        },
        {
          "duration": 0.06578874999999584,
          "durationTicks": 48,
          "midi": 82,
          "name": "A#5",
          "ticks": 71996,
          "time": 98.67764260416666,
          "velocity": 0.8582677165354331
        },
        {
          "duration": 0.07675354166667603,
          "durationTicks": 56,
          "midi": 70,
          "name": "A#4",
          "ticks": 72000,
          "time": 98.68312499999999,
          "velocity": 0.6614173228346457
        },
        {
          "duration": 0.10964791666665974,
          "durationTicks": 80,
          "midi": 85,
          "name": "C#6",
          "ticks": 72096,
          "time": 98.8147025,
          "velocity": 0.8188976377952756
        },
        {
          "duration": 0.14254229166667187,
          "durationTicks": 104,
          "midi": 73,
          "name": "C#5",
          "ticks": 72100,
          "time": 98.82018489583332,
          "velocity": 0.6614173228346457
        },
        {
          "duration": 0.06030635416666996,
          "durationTicks": 44,
          "midi": 85,
          "name": "C#6",
          "ticks": 77568,
          "time": 106.31461999999999,
          "velocity": 0.7480314960629921
        },
        {
          "duration": 0.04934156250000399,
          "durationTicks": 36,
          "midi": 80,
          "name": "G#5",
          "ticks": 77568,
          "time": 106.31461999999999,
          "velocity": 0.8188976377952756
        },
        {
          "duration": 0.043859166666663896,
          "durationTicks": 32,
          "midi": 73,
          "name": "C#5",
          "ticks": 77568,
          "time": 106.31461999999999,
          "velocity": 0.7480314960629921
        },
        {
          "duration": 0.07675354166666182,
          "durationTicks": 56,
          "midi": 85,
          "name": "C#6",
          "ticks": 77660,
          "time": 106.44071510416666,
          "velocity": 0.7480314960629921
        },
        {
          "duration": 0.04934156250000399,
          "durationTicks": 36,
          "midi": 80,
          "name": "G#5",
          "ticks": 77664,
          "time": 106.44619749999998,
          "velocity": 0.7480314960629921
        },
        {
          "duration": 0.04385916666667811,
          "durationTicks": 32,
          "midi": 73,
          "name": "C#5",
          "ticks": 77664,
          "time": 106.44619749999998,
          "velocity": 0.6456692913385826
        },
        {
          "duration": 0.04934156250000399,
          "durationTicks": 36,
          "midi": 73,
          "name": "C#5",
          "ticks": 77860,
          "time": 106.71483489583332,
          "velocity": 0.4409448818897638
        },
        {
          "duration": 0.06030635416666996,
          "durationTicks": 44,
          "midi": 80,
          "name": "G#5",
          "ticks": 77860,
          "time": 106.71483489583332,
          "velocity": 0.4409448818897638
        },
        {
          "duration": 0.06578874999999584,
          "durationTicks": 48,
          "midi": 85,
          "name": "C#6",
          "ticks": 77860,
          "time": 106.71483489583332,
          "velocity": 0.4409448818897638
        },
        {
          "duration": 0.06578874999999584,
          "durationTicks": 48,
          "midi": 85,
          "name": "C#6",
          "ticks": 77952,
          "time": 106.84092999999999,
          "velocity": 0.8188976377952756
        },
        {
          "duration": 0.05482395833332987,
          "durationTicks": 40,
          "midi": 80,
          "name": "G#5",
          "ticks": 77952,
          "time": 106.84092999999999,
          "velocity": 0.8188976377952756
        },
        {
          "duration": 0.04934156250000399,
          "durationTicks": 36,
          "midi": 73,
          "name": "C#5",
          "ticks": 77952,
          "time": 106.84092999999999,
          "velocity": 0.8582677165354331
        },
        {
          "duration": 0.07127114583332173,
          "durationTicks": 52,
          "midi": 85,
          "name": "C#6",
          "ticks": 78044,
          "time": 106.96702510416667,
          "velocity": 0.7480314960629921
        },
        {
          "duration": 0.043859166666663896,
          "durationTicks": 32,
          "midi": 73,
          "name": "C#5",
          "ticks": 78052,
          "time": 106.97798989583332,
          "velocity": 0.7165354330708661
        },
        {
          "duration": 0.043859166666663896,
          "durationTicks": 32,
          "midi": 80,
          "name": "G#5",
          "ticks": 78052,
          "time": 106.97798989583332,
          "velocity": 0.8188976377952756
        },
        {
          "duration": 0.06030635416666996,
          "durationTicks": 44,
          "midi": 73,
          "name": "C#5",
          "ticks": 78148,
          "time": 107.10956739583332,
          "velocity": 0.41732283464566927
        },
        {
          "duration": 0.06578874999999584,
          "durationTicks": 48,
          "midi": 85,
          "name": "C#6",
          "ticks": 78148,
          "time": 107.10956739583332,
          "velocity": 0.41732283464566927
        },
        {
          "duration": 0.043859166666663896,
          "durationTicks": 32,
          "midi": 80,
          "name": "G#5",
          "ticks": 78148,
          "time": 107.10956739583332,
          "velocity": 0.41732283464566927
        },
        {
          "duration": 0.07127114583333594,
          "durationTicks": 52,
          "midi": 80,
          "name": "G#5",
          "ticks": 83908,
          "time": 115.00421739583332,
          "velocity": 0.8188976377952756
        },
        {
          "duration": 0.07675354166666182,
          "durationTicks": 56,
          "midi": 68,
          "name": "G#4",
          "ticks": 83908,
          "time": 115.00421739583332,
          "velocity": 0.6614173228346457
        },
        {
          "duration": 0.07675354166667603,
          "durationTicks": 56,
          "midi": 80,
          "name": "G#5",
          "ticks": 84004,
          "time": 115.13579489583331,
          "velocity": 0.8188976377952756
        },
        {
          "duration": 0.087718333333342,
          "durationTicks": 64,
          "midi": 68,
          "name": "G#4",
          "ticks": 84004,
          "time": 115.13579489583331,
          "velocity": 0.6614173228346457
        },
        {
          "duration": 0.06030635416666996,
          "durationTicks": 44,
          "midi": 82,
          "name": "A#5",
          "ticks": 84100,
          "time": 115.26737239583332,
          "velocity": 0.8188976377952756
        },
        {
          "duration": 0.06578874999999584,
          "durationTicks": 48,
          "midi": 70,
          "name": "A#4",
          "ticks": 84100,
          "time": 115.26737239583332,
          "velocity": 0.6614173228346457
        },
        {
          "duration": 0.07675354166667603,
          "durationTicks": 56,
          "midi": 85,
          "name": "C#6",
          "ticks": 84196,
          "time": 115.39894989583331,
          "velocity": 0.7480314960629921
        },
        {
          "duration": 0.087718333333342,
          "durationTicks": 64,
          "midi": 73,
          "name": "C#5",
          "ticks": 84196,
          "time": 115.39894989583331,
          "velocity": 0.5590551181102362
        },
        {
          "duration": 0.06578874999999584,
          "durationTicks": 48,
          "midi": 82,
          "name": "A#5",
          "ticks": 84284,
          "time": 115.51956260416667,
          "velocity": 0.8582677165354331
        },
        {
          "duration": 0.07675354166666182,
          "durationTicks": 56,
          "midi": 70,
          "name": "A#4",
          "ticks": 84288,
          "time": 115.52504499999999,
          "velocity": 0.6614173228346457
        },
        {
          "duration": 0.10964791666667395,
          "durationTicks": 80,
          "midi": 85,
          "name": "C#6",
          "ticks": 84384,
          "time": 115.65662249999998,
          "velocity": 0.8188976377952756
        },
        {
          "duration": 0.14254229166667187,
          "durationTicks": 104,
          "midi": 73,
          "name": "C#5",
          "ticks": 84388,
          "time": 115.66210489583331,
          "velocity": 0.6614173228346457
        },
        {
          "duration": 0.06030635416666996,
          "durationTicks": 44,
          "midi": 85,
          "name": "C#6",
          "ticks": 89856,
          "time": 123.15653999999999,
          "velocity": 0.7480314960629921
        },
        {
          "duration": 0.04934156249998978,
          "durationTicks": 36,
          "midi": 80,
          "name": "G#5",
          "ticks": 89856,
          "time": 123.15653999999999,
          "velocity": 0.8188976377952756
        },
        {
          "duration": 0.043859166666663896,
          "durationTicks": 32,
          "midi": 73,
          "name": "C#5",
          "ticks": 89856,
          "time": 123.15653999999999,
          "velocity": 0.7480314960629921
        },
        {
          "duration": 0.07675354166666182,
          "durationTicks": 56,
          "midi": 85,
          "name": "C#6",
          "ticks": 89948,
          "time": 123.28263510416666,
          "velocity": 0.7480314960629921
        },
        {
          "duration": 0.04934156250000399,
          "durationTicks": 36,
          "midi": 80,
          "name": "G#5",
          "ticks": 89952,
          "time": 123.28811749999998,
          "velocity": 0.7480314960629921
        },
        {
          "duration": 0.04385916666667811,
          "durationTicks": 32,
          "midi": 73,
          "name": "C#5",
          "ticks": 89952,
          "time": 123.28811749999998,
          "velocity": 0.6456692913385826
        },
        {
          "duration": 0.04934156249998978,
          "durationTicks": 36,
          "midi": 73,
          "name": "C#5",
          "ticks": 90148,
          "time": 123.55675489583332,
          "velocity": 0.4409448818897638
        },
        {
          "duration": 0.06030635416666996,
          "durationTicks": 44,
          "midi": 80,
          "name": "G#5",
          "ticks": 90148,
          "time": 123.55675489583332,
          "velocity": 0.4409448818897638
        },
        {
          "duration": 0.06578874999999584,
          "durationTicks": 48,
          "midi": 85,
          "name": "C#6",
          "ticks": 90148,
          "time": 123.55675489583332,
          "velocity": 0.4409448818897638
        },
        {
          "duration": 0.06578874999999584,
          "durationTicks": 48,
          "midi": 85,
          "name": "C#6",
          "ticks": 90240,
          "time": 123.68284999999999,
          "velocity": 0.8188976377952756
        },
        {
          "duration": 0.05482395833332987,
          "durationTicks": 40,
          "midi": 80,
          "name": "G#5",
          "ticks": 90240,
          "time": 123.68284999999999,
          "velocity": 0.8188976377952756
        },
        {
          "duration": 0.04934156250000399,
          "durationTicks": 36,
          "midi": 73,
          "name": "C#5",
          "ticks": 90240,
          "time": 123.68284999999999,
          "velocity": 0.8582677165354331
        },
        {
          "duration": 0.07127114583333594,
          "durationTicks": 52,
          "midi": 85,
          "name": "C#6",
          "ticks": 90332,
          "time": 123.80894510416665,
          "velocity": 0.7480314960629921
        },
        {
          "duration": 0.043859166666663896,
          "durationTicks": 32,
          "midi": 73,
          "name": "C#5",
          "ticks": 90340,
          "time": 123.81990989583332,
          "velocity": 0.7165354330708661
        },
        {
          "duration": 0.043859166666663896,
          "durationTicks": 32,
          "midi": 80,
          "name": "G#5",
          "ticks": 90340,
          "time": 123.81990989583332,
          "velocity": 0.8188976377952756
        },
        {
          "duration": 0.06030635416666996,
          "durationTicks": 44,
          "midi": 73,
          "name": "C#5",
          "ticks": 90436,
          "time": 123.95148739583331,
          "velocity": 0.41732283464566927
        },
        {
          "duration": 0.06578875000001005,
          "durationTicks": 48,
          "midi": 85,
          "name": "C#6",
          "ticks": 90436,
          "time": 123.95148739583331,
          "velocity": 0.41732283464566927
        },
        {
          "duration": 0.04385916666667811,
          "durationTicks": 32,
          "midi": 80,
          "name": "G#5",
          "ticks": 90436,
          "time": 123.95148739583331,
          "velocity": 0.41732283464566927
        },
        {
          "duration": 0.07127114583332173,
          "durationTicks": 52,
          "midi": 80,
          "name": "G#5",
          "ticks": 120772,
          "time": 165.52997739583333,
          "velocity": 0.8188976377952756
        },
        {
          "duration": 0.0767535416666476,
          "durationTicks": 56,
          "midi": 68,
          "name": "G#4",
          "ticks": 120772,
          "time": 165.52997739583333,
          "velocity": 0.6614173228346457
        },
        {
          "duration": 0.07675354166667603,
          "durationTicks": 56,
          "midi": 80,
          "name": "G#5",
          "ticks": 120868,
          "time": 165.66155489583332,
          "velocity": 0.8188976377952756
        },
        {
          "duration": 0.08771833333332779,
          "durationTicks": 64,
          "midi": 68,
          "name": "G#4",
          "ticks": 120868,
          "time": 165.66155489583332,
          "velocity": 0.6614173228346457
        },
        {
          "duration": 0.06030635416664154,
          "durationTicks": 44,
          "midi": 82,
          "name": "A#5",
          "ticks": 120964,
          "time": 165.79313239583334,
          "velocity": 0.8188976377952756
        },
        {
          "duration": 0.06578874999999584,
          "durationTicks": 48,
          "midi": 70,
          "name": "A#4",
          "ticks": 120964,
          "time": 165.79313239583334,
          "velocity": 0.6614173228346457
        },
        {
          "duration": 0.0767535416666476,
          "durationTicks": 56,
          "midi": 85,
          "name": "C#6",
          "ticks": 121060,
          "time": 165.92470989583333,
          "velocity": 0.7480314960629921
        },
        {
          "duration": 0.08771833333329937,
          "durationTicks": 64,
          "midi": 73,
          "name": "C#5",
          "ticks": 121060,
          "time": 165.92470989583333,
          "velocity": 0.5590551181102362
        },
        {
          "duration": 0.06578874999999584,
          "durationTicks": 48,
          "midi": 82,
          "name": "A#5",
          "ticks": 121148,
          "time": 166.04532260416664,
          "velocity": 0.8582677165354331
        },
        {
          "duration": 0.07675354166667603,
          "durationTicks": 56,
          "midi": 70,
          "name": "A#4",
          "ticks": 121152,
          "time": 166.05080499999997,
          "velocity": 0.6614173228346457
        },
        {
          "duration": 0.10964791666665974,
          "durationTicks": 80,
          "midi": 85,
          "name": "C#6",
          "ticks": 121248,
          "time": 166.1823825,
          "velocity": 0.8188976377952756
        },
        {
          "duration": 0.14254229166667187,
          "durationTicks": 104,
          "midi": 73,
          "name": "C#5",
          "ticks": 121252,
          "time": 166.18786489583331,
          "velocity": 0.6614173228346457
        },
        {
          "duration": 0.0712711458332933,
          "durationTicks": 52,
          "midi": 80,
          "name": "G#5",
          "ticks": 126916,
          "time": 173.95093739583334,
          "velocity": 0.8188976377952756
        },
        {
          "duration": 0.0767535416666476,
          "durationTicks": 56,
          "midi": 68,
          "name": "G#4",
          "ticks": 126916,
          "time": 173.95093739583334,
          "velocity": 0.6614173228346457
        },
        {
          "duration": 0.0767535416666476,
          "durationTicks": 56,
          "midi": 80,
          "name": "G#5",
          "ticks": 127012,
          "time": 174.08251489583333,
          "velocity": 0.8188976377952756
        },
        {
          "duration": 0.08771833333329937,
          "durationTicks": 64,
          "midi": 68,
          "name": "G#4",
          "ticks": 127012,
          "time": 174.08251489583333,
          "velocity": 0.6614173228346457
        },
        {
          "duration": 0.06030635416666996,
          "durationTicks": 44,
          "midi": 82,
          "name": "A#5",
          "ticks": 127108,
          "time": 174.21409239583332,
          "velocity": 0.8188976377952756
        },
        {
          "duration": 0.06578874999999584,
          "durationTicks": 48,
          "midi": 70,
          "name": "A#4",
          "ticks": 127108,
          "time": 174.21409239583332,
          "velocity": 0.6614173228346457
        },
        {
          "duration": 0.0767535416666476,
          "durationTicks": 56,
          "midi": 85,
          "name": "C#6",
          "ticks": 127204,
          "time": 174.34566989583334,
          "velocity": 0.7480314960629921
        },
        {
          "duration": 0.08771833333329937,
          "durationTicks": 64,
          "midi": 73,
          "name": "C#5",
          "ticks": 127204,
          "time": 174.34566989583334,
          "velocity": 0.5590551181102362
        },
        {
          "duration": 0.06578874999999584,
          "durationTicks": 48,
          "midi": 82,
          "name": "A#5",
          "ticks": 127292,
          "time": 174.46628260416665,
          "velocity": 0.8582677165354331
        },
        {
          "duration": 0.07675354166667603,
          "durationTicks": 56,
          "midi": 70,
          "name": "A#4",
          "ticks": 127296,
          "time": 174.47176499999998,
          "velocity": 0.6614173228346457
        },
        {
          "duration": 0.10964791666665974,
          "durationTicks": 80,
          "midi": 85,
          "name": "C#6",
          "ticks": 127392,
          "time": 174.60334249999997,
          "velocity": 0.8188976377952756
        },
        {
          "duration": 0.14254229166667187,
          "durationTicks": 104,
          "midi": 73,
          "name": "C#5",
          "ticks": 127396,
          "time": 174.60882489583332,
          "velocity": 0.6614173228346457
        },
        {
          "duration": 0.06030635416666996,
          "durationTicks": 44,
          "midi": 85,
          "name": "C#6",
          "ticks": 132864,
          "time": 182.10325999999998,
          "velocity": 0.7480314960629921
        },
        {
          "duration": 0.04934156249998978,
          "durationTicks": 36,
          "midi": 80,
          "name": "G#5",
          "ticks": 132864,
          "time": 182.10325999999998,
          "velocity": 0.8188976377952756
        },
        {
          "duration": 0.043859166666663896,
          "durationTicks": 32,
          "midi": 73,
          "name": "C#5",
          "ticks": 132864,
          "time": 182.10325999999998,
          "velocity": 0.7480314960629921
        },
        {
          "duration": 0.07675354166667603,
          "durationTicks": 56,
          "midi": 85,
          "name": "C#6",
          "ticks": 132956,
          "time": 182.22935510416664,
          "velocity": 0.7480314960629921
        },
        {
          "duration": 0.0493415625000182,
          "durationTicks": 36,
          "midi": 80,
          "name": "G#5",
          "ticks": 132960,
          "time": 182.23483749999997,
          "velocity": 0.7480314960629921
        },
        {
          "duration": 0.043859166666663896,
          "durationTicks": 32,
          "midi": 73,
          "name": "C#5",
          "ticks": 132960,
          "time": 182.23483749999997,
          "velocity": 0.6456692913385826
        },
        {
          "duration": 0.04934156249998978,
          "durationTicks": 36,
          "midi": 73,
          "name": "C#5",
          "ticks": 133156,
          "time": 182.50347489583334,
          "velocity": 0.4409448818897638
        },
        {
          "duration": 0.06030635416664154,
          "durationTicks": 44,
          "midi": 80,
          "name": "G#5",
          "ticks": 133156,
          "time": 182.50347489583334,
          "velocity": 0.4409448818897638
        },
        {
          "duration": 0.06578874999999584,
          "durationTicks": 48,
          "midi": 85,
          "name": "C#6",
          "ticks": 133156,
          "time": 182.50347489583334,
          "velocity": 0.4409448818897638
        },
        {
          "duration": 0.06578874999999584,
          "durationTicks": 48,
          "midi": 85,
          "name": "C#6",
          "ticks": 133248,
          "time": 182.62956999999997,
          "velocity": 0.8188976377952756
        },
        {
          "duration": 0.05482395833334408,
          "durationTicks": 40,
          "midi": 80,
          "name": "G#5",
          "ticks": 133248,
          "time": 182.62956999999997,
          "velocity": 0.8188976377952756
        },
        {
          "duration": 0.0493415625000182,
          "durationTicks": 36,
          "midi": 73,
          "name": "C#5",
          "ticks": 133248,
          "time": 182.62956999999997,
          "velocity": 0.8582677165354331
        },
        {
          "duration": 0.07127114583335015,
          "durationTicks": 52,
          "midi": 85,
          "name": "C#6",
          "ticks": 133340,
          "time": 182.75566510416664,
          "velocity": 0.7480314960629921
        },
        {
          "duration": 0.043859166666663896,
          "durationTicks": 32,
          "midi": 73,
          "name": "C#5",
          "ticks": 133348,
          "time": 182.76662989583332,
          "velocity": 0.7165354330708661
        },
        {
          "duration": 0.043859166666663896,
          "durationTicks": 32,
          "midi": 80,
          "name": "G#5",
          "ticks": 133348,
          "time": 182.76662989583332,
          "velocity": 0.8188976377952756
        },
        {
          "duration": 0.06030635416666996,
          "durationTicks": 44,
          "midi": 73,
          "name": "C#5",
          "ticks": 133444,
          "time": 182.8982073958333,
          "velocity": 0.41732283464566927
        },
        {
          "duration": 0.06578875000002427,
          "durationTicks": 48,
          "midi": 85,
          "name": "C#6",
          "ticks": 133444,
          "time": 182.8982073958333,
          "velocity": 0.41732283464566927
        },
        {
          "duration": 0.043859166666663896,
          "durationTicks": 32,
          "midi": 80,
          "name": "G#5",
          "ticks": 133444,
          "time": 182.8982073958333,
          "velocity": 0.41732283464566927
        },
        {
          "duration": 0.07127114583332173,
          "durationTicks": 52,
          "midi": 80,
          "name": "G#5",
          "ticks": 139204,
          "time": 190.79285739583332,
          "velocity": 0.8188976377952756
        },
        {
          "duration": 0.0767535416666476,
          "durationTicks": 56,
          "midi": 68,
          "name": "G#4",
          "ticks": 139204,
          "time": 190.79285739583332,
          "velocity": 0.6614173228346457
        },
        {
          "duration": 0.07675354166667603,
          "durationTicks": 56,
          "midi": 80,
          "name": "G#5",
          "ticks": 139300,
          "time": 190.92443489583331,
          "velocity": 0.8188976377952756
        },
        {
          "duration": 0.08771833333332779,
          "durationTicks": 64,
          "midi": 68,
          "name": "G#4",
          "ticks": 139300,
          "time": 190.92443489583331,
          "velocity": 0.6614173228346457
        },
        {
          "duration": 0.06030635416664154,
          "durationTicks": 44,
          "midi": 82,
          "name": "A#5",
          "ticks": 139396,
          "time": 191.05601239583333,
          "velocity": 0.8188976377952756
        },
        {
          "duration": 0.06578874999999584,
          "durationTicks": 48,
          "midi": 70,
          "name": "A#4",
          "ticks": 139396,
          "time": 191.05601239583333,
          "velocity": 0.6614173228346457
        },
        {
          "duration": 0.0767535416666476,
          "durationTicks": 56,
          "midi": 85,
          "name": "C#6",
          "ticks": 139492,
          "time": 191.18758989583333,
          "velocity": 0.7480314960629921
        },
        {
          "duration": 0.08771833333329937,
          "durationTicks": 64,
          "midi": 73,
          "name": "C#5",
          "ticks": 139492,
          "time": 191.18758989583333,
          "velocity": 0.5590551181102362
        },
        {
          "duration": 0.06578874999999584,
          "durationTicks": 48,
          "midi": 82,
          "name": "A#5",
          "ticks": 139580,
          "time": 191.30820260416664,
          "velocity": 0.8582677165354331
        },
        {
          "duration": 0.0767535416666476,
          "durationTicks": 56,
          "midi": 70,
          "name": "A#4",
          "ticks": 139584,
          "time": 191.313685,
          "velocity": 0.6614173228346457
        },
        {
          "duration": 0.10964791666665974,
          "durationTicks": 80,
          "midi": 85,
          "name": "C#6",
          "ticks": 139680,
          "time": 191.44526249999998,
          "velocity": 0.8188976377952756
        },
        {
          "duration": 0.14254229166667187,
          "durationTicks": 104,
          "midi": 73,
          "name": "C#5",
          "ticks": 139684,
          "time": 191.4507448958333,
          "velocity": 0.6614173228346457
        },
        {
          "duration": 0.06030635416666996,
          "durationTicks": 44,
          "midi": 85,
          "name": "C#6",
          "ticks": 145152,
          "time": 198.94517999999997,
          "velocity": 0.7480314960629921
        },
        {
          "duration": 0.0493415625000182,
          "durationTicks": 36,
          "midi": 80,
          "name": "G#5",
          "ticks": 145152,
          "time": 198.94517999999997,
          "velocity": 0.8188976377952756
        },
        {
          "duration": 0.043859166666663896,
          "durationTicks": 32,
          "midi": 73,
          "name": "C#5",
          "ticks": 145152,
          "time": 198.94517999999997,
          "velocity": 0.7480314960629921
        },
        {
          "duration": 0.07675354166670445,
          "durationTicks": 56,
          "midi": 85,
          "name": "C#6",
          "ticks": 145244,
          "time": 199.07127510416663,
          "velocity": 0.7480314960629921
        },
        {
          "duration": 0.04934156249998978,
          "durationTicks": 36,
          "midi": 80,
          "name": "G#5",
          "ticks": 145248,
          "time": 199.07675749999999,
          "velocity": 0.7480314960629921
        },
        {
          "duration": 0.043859166666663896,
          "durationTicks": 32,
          "midi": 73,
          "name": "C#5",
          "ticks": 145248,
          "time": 199.07675749999999,
          "velocity": 0.6456692913385826
        },
        {
          "duration": 0.04934156249998978,
          "durationTicks": 36,
          "midi": 73,
          "name": "C#5",
          "ticks": 145444,
          "time": 199.34539489583332,
          "velocity": 0.4409448818897638
        },
        {
          "duration": 0.06030635416666996,
          "durationTicks": 44,
          "midi": 80,
          "name": "G#5",
          "ticks": 145444,
          "time": 199.34539489583332,
          "velocity": 0.4409448818897638
        },
        {
          "duration": 0.06578874999999584,
          "durationTicks": 48,
          "midi": 85,
          "name": "C#6",
          "ticks": 145444,
          "time": 199.34539489583332,
          "velocity": 0.4409448818897638
        },
        {
          "duration": 0.06578874999999584,
          "durationTicks": 48,
          "midi": 85,
          "name": "C#6",
          "ticks": 145536,
          "time": 199.47149,
          "velocity": 0.8188976377952756
        },
        {
          "duration": 0.05482395833334408,
          "durationTicks": 40,
          "midi": 80,
          "name": "G#5",
          "ticks": 145536,
          "time": 199.47149,
          "velocity": 0.8188976377952756
        },
        {
          "duration": 0.04934156249998978,
          "durationTicks": 36,
          "midi": 73,
          "name": "C#5",
          "ticks": 145536,
          "time": 199.47149,
          "velocity": 0.8582677165354331
        },
        {
          "duration": 0.07127114583335015,
          "durationTicks": 52,
          "midi": 85,
          "name": "C#6",
          "ticks": 145628,
          "time": 199.59758510416663,
          "velocity": 0.7480314960629921
        },
        {
          "duration": 0.043859166666635474,
          "durationTicks": 32,
          "midi": 73,
          "name": "C#5",
          "ticks": 145636,
          "time": 199.60854989583333,
          "velocity": 0.7165354330708661
        },
        {
          "duration": 0.043859166666635474,
          "durationTicks": 32,
          "midi": 80,
          "name": "G#5",
          "ticks": 145636,
          "time": 199.60854989583333,
          "velocity": 0.8188976377952756
        },
        {
          "duration": 0.06030635416664154,
          "durationTicks": 44,
          "midi": 73,
          "name": "C#5",
          "ticks": 145732,
          "time": 199.74012739583333,
          "velocity": 0.41732283464566927
        },
        {
          "duration": 0.06578874999999584,
          "durationTicks": 48,
          "midi": 85,
          "name": "C#6",
          "ticks": 145732,
          "time": 199.74012739583333,
          "velocity": 0.41732283464566927
        },
        {
          "duration": 0.043859166666663896,
          "durationTicks": 32,
          "midi": 80,
          "name": "G#5",
          "ticks": 145732,
          "time": 199.74012739583333,
          "velocity": 0.41732283464566927
        },
        {
          "duration": 0.07127114583332173,
          "durationTicks": 52,
          "midi": 80,
          "name": "G#5",
          "ticks": 151492,
          "time": 207.6347773958333,
          "velocity": 0.4094488188976378
        },
        {
          "duration": 0.07675354166667603,
          "durationTicks": 56,
          "midi": 68,
          "name": "G#4",
          "ticks": 151492,
          "time": 207.6347773958333,
          "velocity": 0.33070866141732286
        },
        {
          "duration": 0.0767535416666476,
          "durationTicks": 56,
          "midi": 80,
          "name": "G#5",
          "ticks": 151588,
          "time": 207.76635489583333,
          "velocity": 0.3937007874015748
        },
        {
          "duration": 0.08771833333329937,
          "durationTicks": 64,
          "midi": 68,
          "name": "G#4",
          "ticks": 151588,
          "time": 207.76635489583333,
          "velocity": 0.3228346456692913
        },
        {
          "duration": 0.06030635416664154,
          "durationTicks": 44,
          "midi": 82,
          "name": "A#5",
          "ticks": 151684,
          "time": 207.89793239583332,
          "velocity": 0.3858267716535433
        },
        {
          "duration": 0.06578874999999584,
          "durationTicks": 48,
          "midi": 70,
          "name": "A#4",
          "ticks": 151684,
          "time": 207.89793239583332,
          "velocity": 0.31496062992125984
        },
        {
          "duration": 0.07675354166667603,
          "durationTicks": 56,
          "midi": 85,
          "name": "C#6",
          "ticks": 151780,
          "time": 208.0295098958333,
          "velocity": 0.3464566929133858
        },
        {
          "duration": 0.08771833333332779,
          "durationTicks": 64,
          "midi": 73,
          "name": "C#5",
          "ticks": 151780,
          "time": 208.0295098958333,
          "velocity": 0.25984251968503935
        },
        {
          "duration": 0.06578874999999584,
          "durationTicks": 48,
          "midi": 82,
          "name": "A#5",
          "ticks": 151868,
          "time": 208.15012260416663,
          "velocity": 0.3937007874015748
        },
        {
          "duration": 0.0767535416666476,
          "durationTicks": 56,
          "midi": 70,
          "name": "A#4",
          "ticks": 151872,
          "time": 208.15560499999998,
          "velocity": 0.2992125984251969
        },
        {
          "duration": 0.10964791666665974,
          "durationTicks": 80,
          "midi": 85,
          "name": "C#6",
          "ticks": 151968,
          "time": 208.28718249999997,
          "velocity": 0.36220472440944884
        },
        {
          "duration": 0.14254229166664345,
          "durationTicks": 104,
          "midi": 73,
          "name": "C#5",
          "ticks": 151972,
          "time": 208.29266489583333,
          "velocity": 0.29133858267716534
        }
      ],
      "endOfTrackTicks": 158208
    },
    {
      "channel": 12,
      "controlChanges": {
        "1": [
          {
            "number": 1,
            "ticks": 10192,
            "time": 13.969144583333332,
            "value": 0
          }
        ],
        "7": [
          {
            "number": 7,
            "ticks": 2172,
            "time": 2.9769409374999998,
            "value": 0.7086614173228346
          }
        ],
        "10": [
          {
            "number": 10,
            "ticks": 2172,
            "time": 2.9769409374999998,
            "value": 0.6929133858267716
          }
        ],
        "11": [
          {
            "number": 11,
            "ticks": 2172,
            "time": 2.9769409374999998,
            "value": 1
          }
        ],
        "91": [
          {
            "number": 91,
            "ticks": 2176,
            "time": 2.982423333333333,
            "value": 0.47244094488188976
          }
        ],
        "93": [
          {
            "number": 93,
            "ticks": 2176,
            "time": 2.982423333333333,
            "value": 0
          }
        ]
      },
      "pitchBends": [
        {
          "ticks": 10192,
          "time": 13.969144583333332,
          "value": 0
        }
      ],
      "instrument": {
        "family": "brass",
        "number": 61,
        "name": "brass section"
      },
      "name": "BRASS 1",
      "notes": [
        {
          "duration": 0.07127114583333416,
          "durationTicks": 52,
          "midi": 80,
          "name": "G#5",
          "ticks": 10188,
          "time": 13.963662187499999,
          "velocity": 0.8188976377952756
        },
        {
          "duration": 0.07675354166666537,
          "durationTicks": 56,
          "midi": 68,
          "name": "G#4",
          "ticks": 10188,
          "time": 13.963662187499999,
          "velocity": 0.6614173228346457
        },
        {
          "duration": 0.07675354166666715,
          "durationTicks": 56,
          "midi": 80,
          "name": "G#5",
          "ticks": 10284,
          "time": 14.095239687499998,
          "velocity": 0.8188976377952756
        },
        {
          "duration": 0.0877183333333349,
          "durationTicks": 64,
          "midi": 68,
          "name": "G#4",
          "ticks": 10284,
          "time": 14.095239687499998,
          "velocity": 0.6614173228346457
        },
        {
          "duration": 0.06030635416666641,
          "durationTicks": 44,
          "midi": 82,
          "name": "A#5",
          "ticks": 10380,
          "time": 14.226817187499998,
          "velocity": 0.8188976377952756
        },
        {
          "duration": 0.0657887499999994,
          "durationTicks": 48,
          "midi": 70,
          "name": "A#4",
          "ticks": 10380,
          "time": 14.226817187499998,
          "velocity": 0.6614173228346457
        },
        {
          "duration": 0.07675354166666537,
          "durationTicks": 56,
          "midi": 85,
          "name": "C#6",
          "ticks": 10476,
          "time": 14.358394687499999,
          "velocity": 0.7480314960629921
        },
        {
          "duration": 0.08771833333333312,
          "durationTicks": 64,
          "midi": 73,
          "name": "C#5",
          "ticks": 10476,
          "time": 14.358394687499999,
          "velocity": 0.5590551181102362
        },
        {
          "duration": 0.06578875000000117,
          "durationTicks": 48,
          "midi": 82,
          "name": "A#5",
          "ticks": 10564,
          "time": 14.479007395833332,
          "velocity": 0.8582677165354331
        },
        {
          "duration": 0.07675354166666715,
          "durationTicks": 56,
          "midi": 70,
          "name": "A#4",
          "ticks": 10568,
          "time": 14.484489791666665,
          "velocity": 0.6614173228346457
        },
        {
          "duration": 0.10964791666666684,
          "durationTicks": 80,
          "midi": 85,
          "name": "C#6",
          "ticks": 10664,
          "time": 14.616067291666665,
          "velocity": 0.8188976377952756
        },
        {
          "duration": 0.14254229166666654,
          "durationTicks": 104,
          "midi": 73,
          "name": "C#5",
          "ticks": 10668,
          "time": 14.621549687499998,
          "velocity": 0.6614173228346457
        },
        {
          "duration": 0.06030635416666286,
          "durationTicks": 44,
          "midi": 85,
          "name": "C#6",
          "ticks": 16136,
          "time": 22.115984791666666,
          "velocity": 0.7480314960629921
        },
        {
          "duration": 0.049341562500000435,
          "durationTicks": 36,
          "midi": 80,
          "name": "G#5",
          "ticks": 16136,
          "time": 22.115984791666666,
          "velocity": 0.8188976377952756
        },
        {
          "duration": 0.043859166666663896,
          "durationTicks": 32,
          "midi": 73,
          "name": "C#5",
          "ticks": 16136,
          "time": 22.115984791666666,
          "velocity": 0.7480314960629921
        },
        {
          "duration": 0.07675354166666537,
          "durationTicks": 56,
          "midi": 85,
          "name": "C#6",
          "ticks": 16228,
          "time": 22.24207989583333,
          "velocity": 0.7480314960629921
        },
        {
          "duration": 0.049341562500000435,
          "durationTicks": 36,
          "midi": 80,
          "name": "G#5",
          "ticks": 16232,
          "time": 22.247562291666664,
          "velocity": 0.7480314960629921
        },
        {
          "duration": 0.043859166666663896,
          "durationTicks": 32,
          "midi": 73,
          "name": "C#5",
          "ticks": 16232,
          "time": 22.247562291666664,
          "velocity": 0.6456692913385826
        },
        {
          "duration": 0.049341562500000435,
          "durationTicks": 36,
          "midi": 73,
          "name": "C#5",
          "ticks": 16428,
          "time": 22.5161996875,
          "velocity": 0.4409448818897638
        },
        {
          "duration": 0.06030635416666641,
          "durationTicks": 44,
          "midi": 80,
          "name": "G#5",
          "ticks": 16428,
          "time": 22.5161996875,
          "velocity": 0.4409448818897638
        },
        {
          "duration": 0.0657887499999994,
          "durationTicks": 48,
          "midi": 85,
          "name": "C#6",
          "ticks": 16428,
          "time": 22.5161996875,
          "velocity": 0.4409448818897638
        },
        {
          "duration": 0.0657887499999994,
          "durationTicks": 48,
          "midi": 85,
          "name": "C#6",
          "ticks": 16520,
          "time": 22.642294791666664,
          "velocity": 0.8188976377952756
        },
        {
          "duration": 0.05482395833333342,
          "durationTicks": 40,
          "midi": 80,
          "name": "G#5",
          "ticks": 16520,
          "time": 22.642294791666664,
          "velocity": 0.8188976377952756
        },
        {
          "duration": 0.049341562500000435,
          "durationTicks": 36,
          "midi": 73,
          "name": "C#5",
          "ticks": 16520,
          "time": 22.642294791666664,
          "velocity": 0.8582677165354331
        },
        {
          "duration": 0.07127114583333594,
          "durationTicks": 52,
          "midi": 85,
          "name": "C#6",
          "ticks": 16612,
          "time": 22.76838989583333,
          "velocity": 0.7480314960629921
        },
        {
          "duration": 0.043859166666671,
          "durationTicks": 32,
          "midi": 73,
          "name": "C#5",
          "ticks": 16620,
          "time": 22.779354687499996,
          "velocity": 0.7165354330708661
        },
        {
          "duration": 0.043859166666671,
          "durationTicks": 32,
          "midi": 80,
          "name": "G#5",
          "ticks": 16620,
          "time": 22.779354687499996,
          "velocity": 0.8188976377952756
        },
        {
          "duration": 0.06030635416666641,
          "durationTicks": 44,
          "midi": 73,
          "name": "C#5",
          "ticks": 16716,
          "time": 22.9109321875,
          "velocity": 0.41732283464566927
        },
        {
          "duration": 0.0657887499999994,
          "durationTicks": 48,
          "midi": 85,
          "name": "C#6",
          "ticks": 16716,
          "time": 22.9109321875,
          "velocity": 0.41732283464566927
        },
        {
          "duration": 0.04385916666666745,
          "durationTicks": 32,
          "midi": 80,
          "name": "G#5",
          "ticks": 16716,
          "time": 22.9109321875,
          "velocity": 0.41732283464566927
        },
        {
          "duration": 0.0877183333333349,
          "durationTicks": 64,
          "midi": 85,
          "name": "C#6",
          "ticks": 16808,
          "time": 23.037027291666664,
          "velocity": 0.8582677165354331
        },
        {
          "duration": 0.06030635416666641,
          "durationTicks": 44,
          "midi": 80,
          "name": "G#5",
          "ticks": 16808,
          "time": 23.037027291666664,
          "velocity": 0.8976377952755905
        },
        {
          "duration": 0.049341562500000435,
          "durationTicks": 36,
          "midi": 73,
          "name": "C#5",
          "ticks": 16812,
          "time": 23.042509687499997,
          "velocity": 0.8582677165354331
        },
        {
          "duration": 2.3958069791666716,
          "durationTicks": 1748,
          "midi": 80,
          "name": "G#5",
          "ticks": 26120,
          "time": 35.80004479166666,
          "velocity": 0.7480314960629921
        },
        {
          "duration": 2.3848421875000057,
          "durationTicks": 1740,
          "midi": 68,
          "name": "G#4",
          "ticks": 26120,
          "time": 35.80004479166666,
          "velocity": 0.7165354330708661
        },
        {
          "duration": 0.5537219791666672,
          "durationTicks": 404,
          "midi": 77,
          "name": "F5",
          "ticks": 27844,
          "time": 38.16295739583333,
          "velocity": 0.8582677165354331
        },
        {
          "duration": 0.5537219791666601,
          "durationTicks": 404,
          "midi": 65,
          "name": "F4",
          "ticks": 27852,
          "time": 38.1739221875,
          "velocity": 0.7716535433070866
        },
        {
          "duration": 0.5372747916666611,
          "durationTicks": 392,
          "midi": 75,
          "name": "D#5",
          "ticks": 28240,
          "time": 38.70571458333333,
          "velocity": 0.7165354330708661
        },
        {
          "duration": 0.5263100000000023,
          "durationTicks": 384,
          "midi": 63,
          "name": "D#4",
          "ticks": 28252,
          "time": 38.72216177083333,
          "velocity": 0.7165354330708661
        },
        {
          "duration": 0.5592043750000002,
          "durationTicks": 408,
          "midi": 73,
          "name": "C#5",
          "ticks": 28612,
          "time": 39.21557739583333,
          "velocity": 0.7480314960629921
        },
        {
          "duration": 0.5592043750000002,
          "durationTicks": 408,
          "midi": 61,
          "name": "C#4",
          "ticks": 28616,
          "time": 39.22105979166666,
          "velocity": 0.7165354330708661
        },
        {
          "duration": 2.154581562499999,
          "durationTicks": 1572,
          "midi": 70,
          "name": "A#4",
          "ticks": 29012,
          "time": 39.76381697916666,
          "velocity": 0.8188976377952756
        },
        {
          "duration": 2.160063958333332,
          "durationTicks": 1576,
          "midi": 58,
          "name": "A#3",
          "ticks": 29020,
          "time": 39.77478177083333,
          "velocity": 0.7165354330708661
        },
        {
          "duration": 0.07127114583333594,
          "durationTicks": 52,
          "midi": 80,
          "name": "G#5",
          "ticks": 34764,
          "time": 47.647502187499995,
          "velocity": 0.8188976377952756
        },
        {
          "duration": 0.07675354166666182,
          "durationTicks": 56,
          "midi": 68,
          "name": "G#4",
          "ticks": 34764,
          "time": 47.647502187499995,
          "velocity": 0.6614173228346457
        },
        {
          "duration": 0.07675354166666182,
          "durationTicks": 56,
          "midi": 80,
          "name": "G#5",
          "ticks": 34860,
          "time": 47.779079687499994,
          "velocity": 0.8188976377952756
        },
        {
          "duration": 0.0877183333333349,
          "durationTicks": 64,
          "midi": 68,
          "name": "G#4",
          "ticks": 34860,
          "time": 47.779079687499994,
          "velocity": 0.6614173228346457
        },
        {
          "duration": 0.06030635416666286,
          "durationTicks": 44,
          "midi": 82,
          "name": "A#5",
          "ticks": 34956,
          "time": 47.91065718749999,
          "velocity": 0.8188976377952756
        },
        {
          "duration": 0.06578875000000295,
          "durationTicks": 48,
          "midi": 70,
          "name": "A#4",
          "ticks": 34956,
          "time": 47.91065718749999,
          "velocity": 0.6614173228346457
        },
        {
          "duration": 0.07675354166666892,
          "durationTicks": 56,
          "midi": 85,
          "name": "C#6",
          "ticks": 35052,
          "time": 48.04223468749999,
          "velocity": 0.7480314960629921
        },
        {
          "duration": 0.087718333333342,
          "durationTicks": 64,
          "midi": 73,
          "name": "C#5",
          "ticks": 35052,
          "time": 48.04223468749999,
          "velocity": 0.5590551181102362
        },
        {
          "duration": 0.06578874999999584,
          "durationTicks": 48,
          "midi": 82,
          "name": "A#5",
          "ticks": 35140,
          "time": 48.16284739583333,
          "velocity": 0.8582677165354331
        },
        {
          "duration": 0.07675354166667603,
          "durationTicks": 56,
          "midi": 70,
          "name": "A#4",
          "ticks": 35144,
          "time": 48.16832979166666,
          "velocity": 0.6614173228346457
        },
        {
          "duration": 0.10964791666667395,
          "durationTicks": 80,
          "midi": 85,
          "name": "C#6",
          "ticks": 35240,
          "time": 48.299907291666656,
          "velocity": 0.8188976377952756
        },
        {
          "duration": 0.14254229166666477,
          "durationTicks": 104,
          "midi": 73,
          "name": "C#5",
          "ticks": 35244,
          "time": 48.305389687499996,
          "velocity": 0.6614173228346457
        },
        {
          "duration": 0.07127114583333594,
          "durationTicks": 52,
          "midi": 80,
          "name": "G#5",
          "ticks": 40908,
          "time": 56.068462187499996,
          "velocity": 0.8188976377952756
        },
        {
          "duration": 0.07675354166666182,
          "durationTicks": 56,
          "midi": 80,
          "name": "G#5",
          "ticks": 41004,
          "time": 56.200039687499995,
          "velocity": 0.8188976377952756
        },
        {
          "duration": 0.06030635416666286,
          "durationTicks": 44,
          "midi": 82,
          "name": "A#5",
          "ticks": 41100,
          "time": 56.331617187499994,
          "velocity": 0.8188976377952756
        },
        {
          "duration": 0.07675354166666892,
          "durationTicks": 56,
          "midi": 85,
          "name": "C#6",
          "ticks": 41196,
          "time": 56.46319468749999,
          "velocity": 0.7480314960629921
        },
        {
          "duration": 0.06578874999999584,
          "durationTicks": 48,
          "midi": 82,
          "name": "A#5",
          "ticks": 41284,
          "time": 56.58380739583333,
          "velocity": 0.8582677165354331
        },
        {
          "duration": 0.10964791666667395,
          "durationTicks": 80,
          "midi": 85,
          "name": "C#6",
          "ticks": 41384,
          "time": 56.72086729166666,
          "velocity": 0.8188976377952756
        },
        {
          "duration": 0.06030635416666996,
          "durationTicks": 44,
          "midi": 85,
          "name": "C#6",
          "ticks": 46856,
          "time": 64.22078479166666,
          "velocity": 0.7480314960629921
        },
        {
          "duration": 0.04934156250000399,
          "durationTicks": 36,
          "midi": 80,
          "name": "G#5",
          "ticks": 46856,
          "time": 64.22078479166666,
          "velocity": 0.8188976377952756
        },
        {
          "duration": 0.043859166666663896,
          "durationTicks": 32,
          "midi": 73,
          "name": "C#5",
          "ticks": 46856,
          "time": 64.22078479166666,
          "velocity": 0.7480314960629921
        },
        {
          "duration": 0.07675354166666182,
          "durationTicks": 56,
          "midi": 85,
          "name": "C#6",
          "ticks": 46948,
          "time": 64.34687989583333,
          "velocity": 0.7480314960629921
        },
        {
          "duration": 0.04934156250000399,
          "durationTicks": 36,
          "midi": 80,
          "name": "G#5",
          "ticks": 46952,
          "time": 64.35236229166665,
          "velocity": 0.7480314960629921
        },
        {
          "duration": 0.04385916666667811,
          "durationTicks": 32,
          "midi": 73,
          "name": "C#5",
          "ticks": 46952,
          "time": 64.35236229166665,
          "velocity": 0.6456692913385826
        },
        {
          "duration": 0.04934156250000399,
          "durationTicks": 36,
          "midi": 73,
          "name": "C#5",
          "ticks": 47148,
          "time": 64.62099968749999,
          "velocity": 0.4409448818897638
        },
        {
          "duration": 0.06030635416666996,
          "durationTicks": 44,
          "midi": 80,
          "name": "G#5",
          "ticks": 47148,
          "time": 64.62099968749999,
          "velocity": 0.4409448818897638
        },
        {
          "duration": 0.06578875000001005,
          "durationTicks": 48,
          "midi": 85,
          "name": "C#6",
          "ticks": 47148,
          "time": 64.62099968749999,
          "velocity": 0.4409448818897638
        },
        {
          "duration": 0.06578874999999584,
          "durationTicks": 48,
          "midi": 85,
          "name": "C#6",
          "ticks": 47240,
          "time": 64.74709479166665,
          "velocity": 0.8188976377952756
        },
        {
          "duration": 0.05482395833334408,
          "durationTicks": 40,
          "midi": 80,
          "name": "G#5",
          "ticks": 47240,
          "time": 64.74709479166665,
          "velocity": 0.8188976377952756
        },
        {
          "duration": 0.04934156250000399,
          "durationTicks": 36,
          "midi": 73,
          "name": "C#5",
          "ticks": 47240,
          "time": 64.74709479166665,
          "velocity": 0.8582677165354331
        },
        {
          "duration": 0.07127114583332173,
          "durationTicks": 52,
          "midi": 85,
          "name": "C#6",
          "ticks": 47332,
          "time": 64.87318989583333,
          "velocity": 0.7480314960629921
        },
        {
          "duration": 0.043859166666663896,
          "durationTicks": 32,
          "midi": 73,
          "name": "C#5",
          "ticks": 47340,
          "time": 64.88415468749999,
          "velocity": 0.7165354330708661
        },
        {
          "duration": 0.043859166666663896,
          "durationTicks": 32,
          "midi": 80,
          "name": "G#5",
          "ticks": 47340,
          "time": 64.88415468749999,
          "velocity": 0.8188976377952756
        },
        {
          "duration": 0.06030635416666996,
          "durationTicks": 44,
          "midi": 73,
          "name": "C#5",
          "ticks": 47436,
          "time": 65.01573218749999,
          "velocity": 0.41732283464566927
        },
        {
          "duration": 0.06578874999999584,
          "durationTicks": 48,
          "midi": 85,
          "name": "C#6",
          "ticks": 47436,
          "time": 65.01573218749999,
          "velocity": 0.41732283464566927
        },
        {
          "duration": 0.043859166666663896,
          "durationTicks": 32,
          "midi": 80,
          "name": "G#5",
          "ticks": 47436,
          "time": 65.01573218749999,
          "velocity": 0.41732283464566927
        },
        {
          "duration": 0.087718333333342,
          "durationTicks": 64,
          "midi": 85,
          "name": "C#6",
          "ticks": 47528,
          "time": 65.14182729166666,
          "velocity": 0.8582677165354331
        },
        {
          "duration": 0.06030635416666996,
          "durationTicks": 44,
          "midi": 80,
          "name": "G#5",
          "ticks": 47528,
          "time": 65.14182729166666,
          "velocity": 0.8976377952755905
        },
        {
          "duration": 0.04934156249998978,
          "durationTicks": 36,
          "midi": 73,
          "name": "C#5",
          "ticks": 47532,
          "time": 65.1473096875,
          "velocity": 0.8582677165354331
        },
        {
          "duration": 0.07127114583333594,
          "durationTicks": 52,
          "midi": 85,
          "name": "C#6",
          "ticks": 47820,
          "time": 65.54204218749999,
          "velocity": 0.6535433070866141
        },
        {
          "duration": 0.06030635416666996,
          "durationTicks": 44,
          "midi": 80,
          "name": "G#5",
          "ticks": 47820,
          "time": 65.54204218749999,
          "velocity": 0.6535433070866141
        },
        {
          "duration": 0.06030635416666996,
          "durationTicks": 44,
          "midi": 73,
          "name": "C#5",
          "ticks": 47820,
          "time": 65.54204218749999,
          "velocity": 0.6535433070866141
        },
        {
          "duration": 2.313571041666677,
          "durationTicks": 1688,
          "midi": 80,
          "name": "G#5",
          "ticks": 56848,
          "time": 77.91580958333331,
          "velocity": 0.8582677165354331
        },
        {
          "duration": 2.3135710416666626,
          "durationTicks": 1688,
          "midi": 68,
          "name": "G#4",
          "ticks": 56856,
          "time": 77.926774375,
          "velocity": 0.6929133858267716
        },
        {
          "duration": 0.49889802083333734,
          "durationTicks": 364,
          "midi": 77,
          "name": "F5",
          "ticks": 58584,
          "time": 80.29516937499999,
          "velocity": 0.8582677165354331
        },
        {
          "duration": 0.4660036458333252,
          "durationTicks": 340,
          "midi": 65,
          "name": "F4",
          "ticks": 58592,
          "time": 80.30613416666667,
          "velocity": 0.8188976377952756
        },
        {
          "duration": 0.49889802083333734,
          "durationTicks": 364,
          "midi": 75,
          "name": "D#5",
          "ticks": 58972,
          "time": 80.82696177083332,
          "velocity": 0.7480314960629921
        },
        {
          "duration": 0.4605212499999993,
          "durationTicks": 336,
          "midi": 63,
          "name": "D#4",
          "ticks": 58980,
          "time": 80.83792656249999,
          "velocity": 0.7480314960629921
        },
        {
          "duration": 0.5317923958333495,
          "durationTicks": 388,
          "midi": 73,
          "name": "C#5",
          "ticks": 59356,
          "time": 81.35327177083332,
          "velocity": 0.8188976377952756
        },
        {
          "duration": 0.5208276041666551,
          "durationTicks": 380,
          "midi": 61,
          "name": "C#4",
          "ticks": 59372,
          "time": 81.37520135416666,
          "velocity": 0.7480314960629921
        },
        {
          "duration": 2.116204791666661,
          "durationTicks": 1544,
          "midi": 70,
          "name": "A#4",
          "ticks": 59740,
          "time": 81.87958177083333,
          "velocity": 0.8582677165354331
        },
        {
          "duration": 2.116204791666675,
          "durationTicks": 1544,
          "midi": 58,
          "name": "A#3",
          "ticks": 59752,
          "time": 81.89602895833332,
          "velocity": 0.8188976377952756
        },
        {
          "duration": 0.07127114583332173,
          "durationTicks": 52,
          "midi": 80,
          "name": "G#5",
          "ticks": 65484,
          "time": 89.75230218749999,
          "velocity": 0.8188976377952756
        },
        {
          "duration": 0.07675354166667603,
          "durationTicks": 56,
          "midi": 68,
          "name": "G#4",
          "ticks": 65484,
          "time": 89.75230218749999,
          "velocity": 0.6614173228346457
        },
        {
          "duration": 0.07675354166667603,
          "durationTicks": 56,
          "midi": 80,
          "name": "G#5",
          "ticks": 65580,
          "time": 89.88387968749998,
          "velocity": 0.8188976377952756
        },
        {
          "duration": 0.08771833333332779,
          "durationTicks": 64,
          "midi": 68,
          "name": "G#4",
          "ticks": 65580,
          "time": 89.88387968749998,
          "velocity": 0.6614173228346457
        },
        {
          "duration": 0.06030635416666996,
          "durationTicks": 44,
          "midi": 82,
          "name": "A#5",
          "ticks": 65676,
          "time": 90.01545718749999,
          "velocity": 0.8188976377952756
        },
        {
          "duration": 0.06578874999999584,
          "durationTicks": 48,
          "midi": 70,
          "name": "A#4",
          "ticks": 65676,
          "time": 90.01545718749999,
          "velocity": 0.6614173228346457
        },
        {
          "duration": 0.07675354166666182,
          "durationTicks": 56,
          "midi": 85,
          "name": "C#6",
          "ticks": 65772,
          "time": 90.1470346875,
          "velocity": 0.7480314960629921
        },
        {
          "duration": 0.08771833333332779,
          "durationTicks": 64,
          "midi": 73,
          "name": "C#5",
          "ticks": 65772,
          "time": 90.1470346875,
          "velocity": 0.5590551181102362
        },
        {
          "duration": 0.06578874999999584,
          "durationTicks": 48,
          "midi": 82,
          "name": "A#5",
          "ticks": 65860,
          "time": 90.26764739583332,
          "velocity": 0.8582677165354331
        },
        {
          "duration": 0.07675354166666182,
          "durationTicks": 56,
          "midi": 70,
          "name": "A#4",
          "ticks": 65864,
          "time": 90.27312979166666,
          "velocity": 0.6614173228346457
        },
        {
          "duration": 0.10964791666664553,
          "durationTicks": 80,
          "midi": 85,
          "name": "C#6",
          "ticks": 65960,
          "time": 90.40470729166667,
          "velocity": 0.8188976377952756
        },
        {
          "duration": 0.14254229166667187,
          "durationTicks": 104,
          "midi": 73,
          "name": "C#5",
          "ticks": 65964,
          "time": 90.4101896875,
          "velocity": 0.6614173228346457
        },
        {
          "duration": 0.07127114583333594,
          "durationTicks": 52,
          "midi": 80,
          "name": "G#5",
          "ticks": 71628,
          "time": 98.17326218749999,
          "velocity": 0.8188976377952756
        },
        {
          "duration": 0.07675354166667603,
          "durationTicks": 56,
          "midi": 68,
          "name": "G#4",
          "ticks": 71628,
          "time": 98.17326218749999,
          "velocity": 0.6614173228346457
        },
        {
          "duration": 0.07675354166667603,
          "durationTicks": 56,
          "midi": 80,
          "name": "G#5",
          "ticks": 71724,
          "time": 98.30483968749999,
          "velocity": 0.8188976377952756
        },
        {
          "duration": 0.08771833333332779,
          "durationTicks": 64,
          "midi": 68,
          "name": "G#4",
          "ticks": 71724,
          "time": 98.30483968749999,
          "velocity": 0.6614173228346457
        },
        {
          "duration": 0.06030635416668417,
          "durationTicks": 44,
          "midi": 82,
          "name": "A#5",
          "ticks": 71820,
          "time": 98.43641718749998,
          "velocity": 0.8188976377952756
        },
        {
          "duration": 0.06578875000001005,
          "durationTicks": 48,
          "midi": 70,
          "name": "A#4",
          "ticks": 71820,
          "time": 98.43641718749998,
          "velocity": 0.6614173228346457
        },
        {
          "duration": 0.07675354166667603,
          "durationTicks": 56,
          "midi": 85,
          "name": "C#6",
          "ticks": 71916,
          "time": 98.56799468749999,
          "velocity": 0.7480314960629921
        },
        {
          "duration": 0.08771833333332779,
          "durationTicks": 64,
          "midi": 73,
          "name": "C#5",
          "ticks": 71916,
          "time": 98.56799468749999,
          "velocity": 0.5590551181102362
        },
        {
          "duration": 0.06578874999999584,
          "durationTicks": 48,
          "midi": 82,
          "name": "A#5",
          "ticks": 72004,
          "time": 98.68860739583332,
          "velocity": 0.8582677165354331
        },
        {
          "duration": 0.07675354166666182,
          "durationTicks": 56,
          "midi": 70,
          "name": "A#4",
          "ticks": 72008,
          "time": 98.69408979166666,
          "velocity": 0.6614173228346457
        },
        {
          "duration": 0.10964791666665974,
          "durationTicks": 80,
          "midi": 85,
          "name": "C#6",
          "ticks": 72104,
          "time": 98.82566729166666,
          "velocity": 0.8188976377952756
        },
        {
          "duration": 0.14254229166667187,
          "durationTicks": 104,
          "midi": 73,
          "name": "C#5",
          "ticks": 72108,
          "time": 98.83114968749999,
          "velocity": 0.6614173228346457
        },
        {
          "duration": 0.06030635416665575,
          "durationTicks": 44,
          "midi": 85,
          "name": "C#6",
          "ticks": 77576,
          "time": 106.32558479166666,
          "velocity": 0.7480314960629921
        },
        {
          "duration": 0.04934156250000399,
          "durationTicks": 36,
          "midi": 80,
          "name": "G#5",
          "ticks": 77576,
          "time": 106.32558479166666,
          "velocity": 0.8188976377952756
        },
        {
          "duration": 0.043859166666663896,
          "durationTicks": 32,
          "midi": 73,
          "name": "C#5",
          "ticks": 77576,
          "time": 106.32558479166666,
          "velocity": 0.7480314960629921
        },
        {
          "duration": 0.07675354166666182,
          "durationTicks": 56,
          "midi": 85,
          "name": "C#6",
          "ticks": 77668,
          "time": 106.45167989583332,
          "velocity": 0.7480314960629921
        },
        {
          "duration": 0.04934156250000399,
          "durationTicks": 36,
          "midi": 80,
          "name": "G#5",
          "ticks": 77672,
          "time": 106.45716229166666,
          "velocity": 0.7480314960629921
        },
        {
          "duration": 0.043859166666649685,
          "durationTicks": 32,
          "midi": 73,
          "name": "C#5",
          "ticks": 77672,
          "time": 106.45716229166666,
          "velocity": 0.6456692913385826
        },
        {
          "duration": 0.04934156250000399,
          "durationTicks": 36,
          "midi": 73,
          "name": "C#5",
          "ticks": 77868,
          "time": 106.72579968749999,
          "velocity": 0.4409448818897638
        },
        {
          "duration": 0.06030635416666996,
          "durationTicks": 44,
          "midi": 80,
          "name": "G#5",
          "ticks": 77868,
          "time": 106.72579968749999,
          "velocity": 0.4409448818897638
        },
        {
          "duration": 0.06578874999999584,
          "durationTicks": 48,
          "midi": 85,
          "name": "C#6",
          "ticks": 77868,
          "time": 106.72579968749999,
          "velocity": 0.4409448818897638
        },
        {
          "duration": 0.06578874999999584,
          "durationTicks": 48,
          "midi": 85,
          "name": "C#6",
          "ticks": 77960,
          "time": 106.85189479166667,
          "velocity": 0.8188976377952756
        },
        {
          "duration": 0.05482395833331566,
          "durationTicks": 40,
          "midi": 80,
          "name": "G#5",
          "ticks": 77960,
          "time": 106.85189479166667,
          "velocity": 0.8188976377952756
        },
        {
          "duration": 0.04934156249998978,
          "durationTicks": 36,
          "midi": 73,
          "name": "C#5",
          "ticks": 77960,
          "time": 106.85189479166667,
          "velocity": 0.8582677165354331
        },
        {
          "duration": 0.07127114583333594,
          "durationTicks": 52,
          "midi": 85,
          "name": "C#6",
          "ticks": 78052,
          "time": 106.97798989583332,
          "velocity": 0.7480314960629921
        },
        {
          "duration": 0.04385916666667811,
          "durationTicks": 32,
          "midi": 73,
          "name": "C#5",
          "ticks": 78060,
          "time": 106.98895468749998,
          "velocity": 0.7165354330708661
        },
        {
          "duration": 0.04385916666667811,
          "durationTicks": 32,
          "midi": 80,
          "name": "G#5",
          "ticks": 78060,
          "time": 106.98895468749998,
          "velocity": 0.8188976377952756
        },
        {
          "duration": 0.06030635416666996,
          "durationTicks": 44,
          "midi": 73,
          "name": "C#5",
          "ticks": 78156,
          "time": 107.12053218749999,
          "velocity": 0.41732283464566927
        },
        {
          "duration": 0.06578874999999584,
          "durationTicks": 48,
          "midi": 85,
          "name": "C#6",
          "ticks": 78156,
          "time": 107.12053218749999,
          "velocity": 0.41732283464566927
        },
        {
          "duration": 0.043859166666663896,
          "durationTicks": 32,
          "midi": 80,
          "name": "G#5",
          "ticks": 78156,
          "time": 107.12053218749999,
          "velocity": 0.41732283464566927
        },
        {
          "duration": 0.07127114583332173,
          "durationTicks": 52,
          "midi": 80,
          "name": "G#5",
          "ticks": 83916,
          "time": 115.01518218749999,
          "velocity": 0.8188976377952756
        },
        {
          "duration": 0.07675354166667603,
          "durationTicks": 56,
          "midi": 68,
          "name": "G#4",
          "ticks": 83916,
          "time": 115.01518218749999,
          "velocity": 0.6614173228346457
        },
        {
          "duration": 0.07675354166666182,
          "durationTicks": 56,
          "midi": 80,
          "name": "G#5",
          "ticks": 84012,
          "time": 115.1467596875,
          "velocity": 0.8188976377952756
        },
        {
          "duration": 0.08771833333332779,
          "durationTicks": 64,
          "midi": 68,
          "name": "G#4",
          "ticks": 84012,
          "time": 115.1467596875,
          "velocity": 0.6614173228346457
        },
        {
          "duration": 0.06030635416666996,
          "durationTicks": 44,
          "midi": 82,
          "name": "A#5",
          "ticks": 84108,
          "time": 115.27833718749999,
          "velocity": 0.8188976377952756
        },
        {
          "duration": 0.06578874999999584,
          "durationTicks": 48,
          "midi": 70,
          "name": "A#4",
          "ticks": 84108,
          "time": 115.27833718749999,
          "velocity": 0.6614173228346457
        },
        {
          "duration": 0.07675354166666182,
          "durationTicks": 56,
          "midi": 85,
          "name": "C#6",
          "ticks": 84204,
          "time": 115.40991468749999,
          "velocity": 0.7480314960629921
        },
        {
          "duration": 0.08771833333332779,
          "durationTicks": 64,
          "midi": 73,
          "name": "C#5",
          "ticks": 84204,
          "time": 115.40991468749999,
          "velocity": 0.5590551181102362
        },
        {
          "duration": 0.06578874999999584,
          "durationTicks": 48,
          "midi": 82,
          "name": "A#5",
          "ticks": 84292,
          "time": 115.53052739583332,
          "velocity": 0.8582677165354331
        },
        {
          "duration": 0.07675354166666182,
          "durationTicks": 56,
          "midi": 70,
          "name": "A#4",
          "ticks": 84296,
          "time": 115.53600979166666,
          "velocity": 0.6614173228346457
        },
        {
          "duration": 0.10964791666665974,
          "durationTicks": 80,
          "midi": 85,
          "name": "C#6",
          "ticks": 84392,
          "time": 115.66758729166666,
          "velocity": 0.8188976377952756
        },
        {
          "duration": 0.14254229166667187,
          "durationTicks": 104,
          "midi": 73,
          "name": "C#5",
          "ticks": 84396,
          "time": 115.67306968749999,
          "velocity": 0.6614173228346457
        },
        {
          "duration": 0.06030635416665575,
          "durationTicks": 44,
          "midi": 85,
          "name": "C#6",
          "ticks": 89864,
          "time": 123.16750479166666,
          "velocity": 0.7480314960629921
        },
        {
          "duration": 0.04934156250000399,
          "durationTicks": 36,
          "midi": 80,
          "name": "G#5",
          "ticks": 89864,
          "time": 123.16750479166666,
          "velocity": 0.8188976377952756
        },
        {
          "duration": 0.043859166666663896,
          "durationTicks": 32,
          "midi": 73,
          "name": "C#5",
          "ticks": 89864,
          "time": 123.16750479166666,
          "velocity": 0.7480314960629921
        },
        {
          "duration": 0.07675354166667603,
          "durationTicks": 56,
          "midi": 85,
          "name": "C#6",
          "ticks": 89956,
          "time": 123.29359989583331,
          "velocity": 0.7480314960629921
        },
        {
          "duration": 0.04934156249998978,
          "durationTicks": 36,
          "midi": 80,
          "name": "G#5",
          "ticks": 89960,
          "time": 123.29908229166666,
          "velocity": 0.7480314960629921
        },
        {
          "duration": 0.043859166666649685,
          "durationTicks": 32,
          "midi": 73,
          "name": "C#5",
          "ticks": 89960,
          "time": 123.29908229166666,
          "velocity": 0.6456692913385826
        },
        {
          "duration": 0.04934156250000399,
          "durationTicks": 36,
          "midi": 73,
          "name": "C#5",
          "ticks": 90156,
          "time": 123.56771968749999,
          "velocity": 0.4409448818897638
        },
        {
          "duration": 0.06030635416666996,
          "durationTicks": 44,
          "midi": 80,
          "name": "G#5",
          "ticks": 90156,
          "time": 123.56771968749999,
          "velocity": 0.4409448818897638
        },
        {
          "duration": 0.06578874999999584,
          "durationTicks": 48,
          "midi": 85,
          "name": "C#6",
          "ticks": 90156,
          "time": 123.56771968749999,
          "velocity": 0.4409448818897638
        },
        {
          "duration": 0.06578875000001005,
          "durationTicks": 48,
          "midi": 85,
          "name": "C#6",
          "ticks": 90248,
          "time": 123.69381479166665,
          "velocity": 0.8188976377952756
        },
        {
          "duration": 0.05482395833332987,
          "durationTicks": 40,
          "midi": 80,
          "name": "G#5",
          "ticks": 90248,
          "time": 123.69381479166665,
          "velocity": 0.8188976377952756
        },
        {
          "duration": 0.04934156250000399,
          "durationTicks": 36,
          "midi": 73,
          "name": "C#5",
          "ticks": 90248,
          "time": 123.69381479166665,
          "velocity": 0.8582677165354331
        },
        {
          "duration": 0.07127114583333594,
          "durationTicks": 52,
          "midi": 85,
          "name": "C#6",
          "ticks": 90340,
          "time": 123.81990989583332,
          "velocity": 0.7480314960629921
        },
        {
          "duration": 0.04385916666667811,
          "durationTicks": 32,
          "midi": 73,
          "name": "C#5",
          "ticks": 90348,
          "time": 123.83087468749999,
          "velocity": 0.7165354330708661
        },
        {
          "duration": 0.04385916666667811,
          "durationTicks": 32,
          "midi": 80,
          "name": "G#5",
          "ticks": 90348,
          "time": 123.83087468749999,
          "velocity": 0.8188976377952756
        },
        {
          "duration": 0.06030635416666996,
          "durationTicks": 44,
          "midi": 73,
          "name": "C#5",
          "ticks": 90444,
          "time": 123.96245218749999,
          "velocity": 0.41732283464566927
        },
        {
          "duration": 0.06578874999999584,
          "durationTicks": 48,
          "midi": 85,
          "name": "C#6",
          "ticks": 90444,
          "time": 123.96245218749999,
          "velocity": 0.41732283464566927
        },
        {
          "duration": 0.043859166666663896,
          "durationTicks": 32,
          "midi": 80,
          "name": "G#5",
          "ticks": 90444,
          "time": 123.96245218749999,
          "velocity": 0.41732283464566927
        },
        {
          "duration": 0.07127114583335015,
          "durationTicks": 52,
          "midi": 80,
          "name": "G#5",
          "ticks": 120780,
          "time": 165.54094218749998,
          "velocity": 0.8188976377952756
        },
        {
          "duration": 0.0767535416666476,
          "durationTicks": 56,
          "midi": 68,
          "name": "G#4",
          "ticks": 120780,
          "time": 165.54094218749998,
          "velocity": 0.6614173228346457
        },
        {
          "duration": 0.07675354166667603,
          "durationTicks": 56,
          "midi": 80,
          "name": "G#5",
          "ticks": 120876,
          "time": 165.67251968749997,
          "velocity": 0.8188976377952756
        },
        {
          "duration": 0.08771833333335621,
          "durationTicks": 64,
          "midi": 68,
          "name": "G#4",
          "ticks": 120876,
          "time": 165.67251968749997,
          "velocity": 0.6614173228346457
        },
        {
          "duration": 0.06030635416664154,
          "durationTicks": 44,
          "midi": 82,
          "name": "A#5",
          "ticks": 120972,
          "time": 165.8040971875,
          "velocity": 0.8188976377952756
        },
        {
          "duration": 0.06578874999999584,
          "durationTicks": 48,
          "midi": 70,
          "name": "A#4",
          "ticks": 120972,
          "time": 165.8040971875,
          "velocity": 0.6614173228346457
        },
        {
          "duration": 0.0767535416666476,
          "durationTicks": 56,
          "midi": 85,
          "name": "C#6",
          "ticks": 121068,
          "time": 165.93567468749998,
          "velocity": 0.7480314960629921
        },
        {
          "duration": 0.08771833333335621,
          "durationTicks": 64,
          "midi": 73,
          "name": "C#5",
          "ticks": 121068,
          "time": 165.93567468749998,
          "velocity": 0.5590551181102362
        },
        {
          "duration": 0.06578874999999584,
          "durationTicks": 48,
          "midi": 82,
          "name": "A#5",
          "ticks": 121156,
          "time": 166.05628739583332,
          "velocity": 0.8582677165354331
        },
        {
          "duration": 0.07675354166667603,
          "durationTicks": 56,
          "midi": 70,
          "name": "A#4",
          "ticks": 121160,
          "time": 166.06176979166665,
          "velocity": 0.6614173228346457
        },
        {
          "duration": 0.10964791666668816,
          "durationTicks": 80,
          "midi": 85,
          "name": "C#6",
          "ticks": 121256,
          "time": 166.19334729166664,
          "velocity": 0.8188976377952756
        },
        {
          "duration": 0.14254229166664345,
          "durationTicks": 104,
          "midi": 73,
          "name": "C#5",
          "ticks": 121260,
          "time": 166.1988296875,
          "velocity": 0.6614173228346457
        },
        {
          "duration": 0.07127114583335015,
          "durationTicks": 52,
          "midi": 80,
          "name": "G#5",
          "ticks": 126924,
          "time": 173.9619021875,
          "velocity": 0.8188976377952756
        },
        {
          "duration": 0.0767535416666476,
          "durationTicks": 56,
          "midi": 68,
          "name": "G#4",
          "ticks": 126924,
          "time": 173.9619021875,
          "velocity": 0.6614173228346457
        },
        {
          "duration": 0.0767535416666476,
          "durationTicks": 56,
          "midi": 80,
          "name": "G#5",
          "ticks": 127020,
          "time": 174.09347968749998,
          "velocity": 0.8188976377952756
        },
        {
          "duration": 0.08771833333335621,
          "durationTicks": 64,
          "midi": 68,
          "name": "G#4",
          "ticks": 127020,
          "time": 174.09347968749998,
          "velocity": 0.6614173228346457
        },
        {
          "duration": 0.06030635416666996,
          "durationTicks": 44,
          "midi": 82,
          "name": "A#5",
          "ticks": 127116,
          "time": 174.22505718749997,
          "velocity": 0.8188976377952756
        },
        {
          "duration": 0.06578875000002427,
          "durationTicks": 48,
          "midi": 70,
          "name": "A#4",
          "ticks": 127116,
          "time": 174.22505718749997,
          "velocity": 0.6614173228346457
        },
        {
          "duration": 0.0767535416666476,
          "durationTicks": 56,
          "midi": 85,
          "name": "C#6",
          "ticks": 127212,
          "time": 174.3566346875,
          "velocity": 0.7480314960629921
        },
        {
          "duration": 0.08771833333332779,
          "durationTicks": 64,
          "midi": 73,
          "name": "C#5",
          "ticks": 127212,
          "time": 174.3566346875,
          "velocity": 0.5590551181102362
        },
        {
          "duration": 0.06578874999999584,
          "durationTicks": 48,
          "midi": 82,
          "name": "A#5",
          "ticks": 127300,
          "time": 174.47724739583333,
          "velocity": 0.8582677165354331
        },
        {
          "duration": 0.07675354166670445,
          "durationTicks": 56,
          "midi": 70,
          "name": "A#4",
          "ticks": 127304,
          "time": 174.48272979166663,
          "velocity": 0.6614173228346457
        },
        {
          "duration": 0.10964791666668816,
          "durationTicks": 80,
          "midi": 85,
          "name": "C#6",
          "ticks": 127400,
          "time": 174.61430729166665,
          "velocity": 0.8188976377952756
        },
        {
          "duration": 0.14254229166667187,
          "durationTicks": 104,
          "midi": 73,
          "name": "C#5",
          "ticks": 127404,
          "time": 174.61978968749997,
          "velocity": 0.6614173228346457
        },
        {
          "duration": 0.060306354166698384,
          "durationTicks": 44,
          "midi": 85,
          "name": "C#6",
          "ticks": 132872,
          "time": 182.11422479166663,
          "velocity": 0.7480314960629921
        },
        {
          "duration": 0.0493415625000182,
          "durationTicks": 36,
          "midi": 80,
          "name": "G#5",
          "ticks": 132872,
          "time": 182.11422479166663,
          "velocity": 0.8188976377952756
        },
        {
          "duration": 0.04385916666669232,
          "durationTicks": 32,
          "midi": 73,
          "name": "C#5",
          "ticks": 132872,
          "time": 182.11422479166663,
          "velocity": 0.7480314960629921
        },
        {
          "duration": 0.0767535416666476,
          "durationTicks": 56,
          "midi": 85,
          "name": "C#6",
          "ticks": 132964,
          "time": 182.24031989583332,
          "velocity": 0.7480314960629921
        },
        {
          "duration": 0.04934156249998978,
          "durationTicks": 36,
          "midi": 80,
          "name": "G#5",
          "ticks": 132968,
          "time": 182.24580229166665,
          "velocity": 0.7480314960629921
        },
        {
          "duration": 0.043859166666663896,
          "durationTicks": 32,
          "midi": 73,
          "name": "C#5",
          "ticks": 132968,
          "time": 182.24580229166665,
          "velocity": 0.6456692913385826
        },
        {
          "duration": 0.04934156249998978,
          "durationTicks": 36,
          "midi": 73,
          "name": "C#5",
          "ticks": 133164,
          "time": 182.5144396875,
          "velocity": 0.4409448818897638
        },
        {
          "duration": 0.06030635416664154,
          "durationTicks": 44,
          "midi": 80,
          "name": "G#5",
          "ticks": 133164,
          "time": 182.5144396875,
          "velocity": 0.4409448818897638
        },
        {
          "duration": 0.06578874999999584,
          "durationTicks": 48,
          "midi": 85,
          "name": "C#6",
          "ticks": 133164,
          "time": 182.5144396875,
          "velocity": 0.4409448818897638
        },
        {
          "duration": 0.06578875000002427,
          "durationTicks": 48,
          "midi": 85,
          "name": "C#6",
          "ticks": 133256,
          "time": 182.64053479166662,
          "velocity": 0.8188976377952756
        },
        {
          "duration": 0.05482395833334408,
          "durationTicks": 40,
          "midi": 80,
          "name": "G#5",
          "ticks": 133256,
          "time": 182.64053479166662,
          "velocity": 0.8188976377952756
        },
        {
          "duration": 0.0493415625000182,
          "durationTicks": 36,
          "midi": 73,
          "name": "C#5",
          "ticks": 133256,
          "time": 182.64053479166662,
          "velocity": 0.8582677165354331
        },
        {
          "duration": 0.07127114583332173,
          "durationTicks": 52,
          "midi": 85,
          "name": "C#6",
          "ticks": 133348,
          "time": 182.76662989583332,
          "velocity": 0.7480314960629921
        },
        {
          "duration": 0.043859166666663896,
          "durationTicks": 32,
          "midi": 73,
          "name": "C#5",
          "ticks": 133356,
          "time": 182.77759468749997,
          "velocity": 0.7165354330708661
        },
        {
          "duration": 0.043859166666663896,
          "durationTicks": 32,
          "midi": 80,
          "name": "G#5",
          "ticks": 133356,
          "time": 182.77759468749997,
          "velocity": 0.8188976377952756
        },
        {
          "duration": 0.06030635416664154,
          "durationTicks": 44,
          "midi": 73,
          "name": "C#5",
          "ticks": 133452,
          "time": 182.9091721875,
          "velocity": 0.41732283464566927
        },
        {
          "duration": 0.06578874999999584,
          "durationTicks": 48,
          "midi": 85,
          "name": "C#6",
          "ticks": 133452,
          "time": 182.9091721875,
          "velocity": 0.41732283464566927
        },
        {
          "duration": 0.043859166666635474,
          "durationTicks": 32,
          "midi": 80,
          "name": "G#5",
          "ticks": 133452,
          "time": 182.9091721875,
          "velocity": 0.41732283464566927
        },
        {
          "duration": 0.07127114583335015,
          "durationTicks": 52,
          "midi": 80,
          "name": "G#5",
          "ticks": 139212,
          "time": 190.80382218749997,
          "velocity": 0.8188976377952756
        },
        {
          "duration": 0.0767535416666476,
          "durationTicks": 56,
          "midi": 68,
          "name": "G#4",
          "ticks": 139212,
          "time": 190.80382218749997,
          "velocity": 0.6614173228346457
        },
        {
          "duration": 0.07675354166667603,
          "durationTicks": 56,
          "midi": 80,
          "name": "G#5",
          "ticks": 139308,
          "time": 190.93539968749997,
          "velocity": 0.8188976377952756
        },
        {
          "duration": 0.08771833333335621,
          "durationTicks": 64,
          "midi": 68,
          "name": "G#4",
          "ticks": 139308,
          "time": 190.93539968749997,
          "velocity": 0.6614173228346457
        },
        {
          "duration": 0.06030635416664154,
          "durationTicks": 44,
          "midi": 82,
          "name": "A#5",
          "ticks": 139404,
          "time": 191.0669771875,
          "velocity": 0.8188976377952756
        },
        {
          "duration": 0.06578874999999584,
          "durationTicks": 48,
          "midi": 70,
          "name": "A#4",
          "ticks": 139404,
          "time": 191.0669771875,
          "velocity": 0.6614173228346457
        },
        {
          "duration": 0.0767535416666476,
          "durationTicks": 56,
          "midi": 85,
          "name": "C#6",
          "ticks": 139500,
          "time": 191.19855468749998,
          "velocity": 0.7480314960629921
        },
        {
          "duration": 0.08771833333335621,
          "durationTicks": 64,
          "midi": 73,
          "name": "C#5",
          "ticks": 139500,
          "time": 191.19855468749998,
          "velocity": 0.5590551181102362
        },
        {
          "duration": 0.06578874999999584,
          "durationTicks": 48,
          "midi": 82,
          "name": "A#5",
          "ticks": 139588,
          "time": 191.31916739583332,
          "velocity": 0.8582677165354331
        },
        {
          "duration": 0.07675354166667603,
          "durationTicks": 56,
          "midi": 70,
          "name": "A#4",
          "ticks": 139592,
          "time": 191.32464979166664,
          "velocity": 0.6614173228346457
        },
        {
          "duration": 0.10964791666668816,
          "durationTicks": 80,
          "midi": 85,
          "name": "C#6",
          "ticks": 139688,
          "time": 191.45622729166664,
          "velocity": 0.8188976377952756
        },
        {
          "duration": 0.14254229166664345,
          "durationTicks": 104,
          "midi": 73,
          "name": "C#5",
          "ticks": 139692,
          "time": 191.4617096875,
          "velocity": 0.6614173228346457
        },
        {
          "duration": 0.06030635416666996,
          "durationTicks": 44,
          "midi": 85,
          "name": "C#6",
          "ticks": 145160,
          "time": 198.95614479166665,
          "velocity": 0.7480314960629921
        },
        {
          "duration": 0.04934156249998978,
          "durationTicks": 36,
          "midi": 80,
          "name": "G#5",
          "ticks": 145160,
          "time": 198.95614479166665,
          "velocity": 0.8188976377952756
        },
        {
          "duration": 0.043859166666663896,
          "durationTicks": 32,
          "midi": 73,
          "name": "C#5",
          "ticks": 145160,
          "time": 198.95614479166665,
          "velocity": 0.7480314960629921
        },
        {
          "duration": 0.07675354166667603,
          "durationTicks": 56,
          "midi": 85,
          "name": "C#6",
          "ticks": 145252,
          "time": 199.0822398958333,
          "velocity": 0.7480314960629921
        },
        {
          "duration": 0.04934156249998978,
          "durationTicks": 36,
          "midi": 80,
          "name": "G#5",
          "ticks": 145256,
          "time": 199.08772229166664,
          "velocity": 0.7480314960629921
        },
        {
          "duration": 0.04385916666669232,
          "durationTicks": 32,
          "midi": 73,
          "name": "C#5",
          "ticks": 145256,
          "time": 199.08772229166664,
          "velocity": 0.6456692913385826
        },
        {
          "duration": 0.0493415625000182,
          "durationTicks": 36,
          "midi": 73,
          "name": "C#5",
          "ticks": 145452,
          "time": 199.35635968749997,
          "velocity": 0.4409448818897638
        },
        {
          "duration": 0.06030635416666996,
          "durationTicks": 44,
          "midi": 80,
          "name": "G#5",
          "ticks": 145452,
          "time": 199.35635968749997,
          "velocity": 0.4409448818897638
        },
        {
          "duration": 0.06578874999999584,
          "durationTicks": 48,
          "midi": 85,
          "name": "C#6",
          "ticks": 145452,
          "time": 199.35635968749997,
          "velocity": 0.4409448818897638
        },
        {
          "duration": 0.06578874999999584,
          "durationTicks": 48,
          "midi": 85,
          "name": "C#6",
          "ticks": 145544,
          "time": 199.48245479166664,
          "velocity": 0.8188976377952756
        },
        {
          "duration": 0.05482395833334408,
          "durationTicks": 40,
          "midi": 80,
          "name": "G#5",
          "ticks": 145544,
          "time": 199.48245479166664,
          "velocity": 0.8188976377952756
        },
        {
          "duration": 0.04934156249998978,
          "durationTicks": 36,
          "midi": 73,
          "name": "C#5",
          "ticks": 145544,
          "time": 199.48245479166664,
          "velocity": 0.8582677165354331
        },
        {
          "duration": 0.0712711458332933,
          "durationTicks": 52,
          "midi": 85,
          "name": "C#6",
          "ticks": 145636,
          "time": 199.60854989583333,
          "velocity": 0.7480314960629921
        },
        {
          "duration": 0.043859166666635474,
          "durationTicks": 32,
          "midi": 73,
          "name": "C#5",
          "ticks": 145644,
          "time": 199.6195146875,
          "velocity": 0.7165354330708661
        },
        {
          "duration": 0.043859166666635474,
          "durationTicks": 32,
          "midi": 80,
          "name": "G#5",
          "ticks": 145644,
          "time": 199.6195146875,
          "velocity": 0.8188976377952756
        },
        {
          "duration": 0.06030635416666996,
          "durationTicks": 44,
          "midi": 73,
          "name": "C#5",
          "ticks": 145740,
          "time": 199.75109218749998,
          "velocity": 0.41732283464566927
        },
        {
          "duration": 0.06578874999999584,
          "durationTicks": 48,
          "midi": 85,
          "name": "C#6",
          "ticks": 145740,
          "time": 199.75109218749998,
          "velocity": 0.41732283464566927
        },
        {
          "duration": 0.043859166666663896,
          "durationTicks": 32,
          "midi": 80,
          "name": "G#5",
          "ticks": 145740,
          "time": 199.75109218749998,
          "velocity": 0.41732283464566927
        },
        {
          "duration": 0.07127114583332173,
          "durationTicks": 52,
          "midi": 80,
          "name": "G#5",
          "ticks": 151500,
          "time": 207.6457421875,
          "velocity": 0.4094488188976378
        },
        {
          "duration": 0.0767535416666476,
          "durationTicks": 56,
          "midi": 68,
          "name": "G#4",
          "ticks": 151500,
          "time": 207.6457421875,
          "velocity": 0.33070866141732286
        },
        {
          "duration": 0.0767535416666476,
          "durationTicks": 56,
          "midi": 80,
          "name": "G#5",
          "ticks": 151596,
          "time": 207.77731968749998,
          "velocity": 0.3937007874015748
        },
        {
          "duration": 0.08771833333332779,
          "durationTicks": 64,
          "midi": 68,
          "name": "G#4",
          "ticks": 151596,
          "time": 207.77731968749998,
          "velocity": 0.3228346456692913
        },
        {
          "duration": 0.06030635416666996,
          "durationTicks": 44,
          "midi": 82,
          "name": "A#5",
          "ticks": 151692,
          "time": 207.90889718749997,
          "velocity": 0.3858267716535433
        },
        {
          "duration": 0.06578874999999584,
          "durationTicks": 48,
          "midi": 70,
          "name": "A#4",
          "ticks": 151692,
          "time": 207.90889718749997,
          "velocity": 0.31496062992125984
        },
        {
          "duration": 0.07675354166667603,
          "durationTicks": 56,
          "midi": 85,
          "name": "C#6",
          "ticks": 151788,
          "time": 208.04047468749997,
          "velocity": 0.3464566929133858
        },
        {
          "duration": 0.08771833333335621,
          "durationTicks": 64,
          "midi": 73,
          "name": "C#5",
          "ticks": 151788,
          "time": 208.04047468749997,
          "velocity": 0.25984251968503935
        },
        {
          "duration": 0.06578874999999584,
          "durationTicks": 48,
          "midi": 82,
          "name": "A#5",
          "ticks": 151876,
          "time": 208.16108739583333,
          "velocity": 0.3937007874015748
        },
        {
          "duration": 0.07675354166667603,
          "durationTicks": 56,
          "midi": 70,
          "name": "A#4",
          "ticks": 151880,
          "time": 208.16656979166663,
          "velocity": 0.2992125984251969
        },
        {
          "duration": 0.10964791666668816,
          "durationTicks": 80,
          "midi": 85,
          "name": "C#6",
          "ticks": 151976,
          "time": 208.29814729166662,
          "velocity": 0.36220472440944884
        },
        {
          "duration": 0.14254229166664345,
          "durationTicks": 104,
          "midi": 73,
          "name": "C#5",
          "ticks": 151980,
          "time": 208.30362968749998,
          "velocity": 0.29133858267716534
        }
      ],
      "endOfTrackTicks": 158208
    },
    {
      "channel": 13,
      "controlChanges": {
        "1": [
          {
            "number": 1,
            "ticks": 4732,
            "time": 6.485674270833332,
            "value": 0
          }
        ],
        "7": [
          {
            "number": 7,
            "ticks": 2192,
            "time": 3.004352916666666,
            "value": 0.31496062992125984
          }
        ],
        "10": [
          {
            "number": 10,
            "ticks": 2192,
            "time": 3.004352916666666,
            "value": 0.5039370078740157
          }
        ],
        "11": [
          {
            "number": 11,
            "ticks": 2192,
            "time": 3.004352916666666,
            "value": 1
          }
        ],
        "91": [
          {
            "number": 91,
            "ticks": 2196,
            "time": 3.0098353124999995,
            "value": 0.47244094488188976
          }
        ],
        "93": [
          {
            "number": 93,
            "ticks": 2196,
            "time": 3.0098353124999995,
            "value": 0
          }
        ]
      },
      "pitchBends": [
        {
          "ticks": 4732,
          "time": 6.485674270833332,
          "value": 0
        }
      ],
      "instrument": {
        "family": "pipe",
        "number": 78,
        "name": "whistle"
      },
      "name": "WHISTLE",
      "notes": [
        {
          "duration": 0.6469227083333333,
          "durationTicks": 472,
          "midi": 77,
          "name": "F5",
          "ticks": 4728,
          "time": 6.480191874999999,
          "velocity": 0.6929133858267716
        },
        {
          "duration": 0.6578875000000002,
          "durationTicks": 480,
          "midi": 73,
          "name": "C#5",
          "ticks": 4732,
          "time": 6.485674270833332,
          "velocity": 0.5826771653543307
        },
        {
          "duration": 0.6524051041666672,
          "durationTicks": 476,
          "midi": 66,
          "name": "F#4",
          "ticks": 4732,
          "time": 6.485674270833332,
          "velocity": 0.5748031496062992
        },
        {
          "duration": 0.6852994791666669,
          "durationTicks": 500,
          "midi": 70,
          "name": "A#4",
          "ticks": 4732,
          "time": 6.485674270833332,
          "velocity": 0.6141732283464567
        },
        {
          "duration": 0.8717009375,
          "durationTicks": 636,
          "midi": 75,
          "name": "D#5",
          "ticks": 5364,
          "time": 7.351892812499999,
          "velocity": 0.5826771653543307
        },
        {
          "duration": 0.9100777083333345,
          "durationTicks": 664,
          "midi": 70,
          "name": "A#4",
          "ticks": 5368,
          "time": 7.357375208333332,
          "velocity": 0.49606299212598426
        },
        {
          "duration": 0.8991129166666658,
          "durationTicks": 656,
          "midi": 68,
          "name": "G#4",
          "ticks": 5372,
          "time": 7.362857604166666,
          "velocity": 0.6141732283464567
        },
        {
          "duration": 0.8991129166666676,
          "durationTicks": 656,
          "midi": 72,
          "name": "C5",
          "ticks": 5376,
          "time": 7.368339999999999,
          "velocity": 0.6299212598425197
        },
        {
          "duration": 0.7620530208333332,
          "durationTicks": 556,
          "midi": 75,
          "name": "D#5",
          "ticks": 6244,
          "time": 8.558019895833333,
          "velocity": 0.6141732283464567
        },
        {
          "duration": 0.7730178124999991,
          "durationTicks": 564,
          "midi": 68,
          "name": "G#4",
          "ticks": 6248,
          "time": 8.563502291666666,
          "velocity": 0.6299212598425197
        },
        {
          "duration": 0.7510882291666672,
          "durationTicks": 548,
          "midi": 65,
          "name": "F4",
          "ticks": 6248,
          "time": 8.563502291666666,
          "velocity": 0.6456692913385826
        },
        {
          "duration": 0.6578875000000011,
          "durationTicks": 480,
          "midi": 72,
          "name": "C5",
          "ticks": 6252,
          "time": 8.568984687499999,
          "velocity": 0.6929133858267716
        },
        {
          "duration": 0.9484544791666671,
          "durationTicks": 692,
          "midi": 73,
          "name": "C#5",
          "ticks": 6904,
          "time": 9.462615208333332,
          "velocity": 0.6299212598425197
        },
        {
          "duration": 0.8333241666666673,
          "durationTicks": 608,
          "midi": 68,
          "name": "G#4",
          "ticks": 6912,
          "time": 9.473579999999998,
          "velocity": 0.4881889763779528
        },
        {
          "duration": 0.8059121875000006,
          "durationTicks": 588,
          "midi": 65,
          "name": "F4",
          "ticks": 6912,
          "time": 9.473579999999998,
          "velocity": 0.6692913385826772
        },
        {
          "duration": 0.882665729166666,
          "durationTicks": 644,
          "midi": 70,
          "name": "A#4",
          "ticks": 6912,
          "time": 9.473579999999998,
          "velocity": 0.6929133858267716
        },
        {
          "duration": 0.6578874999999993,
          "durationTicks": 480,
          "midi": 77,
          "name": "F5",
          "ticks": 7772,
          "time": 10.652295104166665,
          "velocity": 0.7165354330708661
        },
        {
          "duration": 0.6414403125000003,
          "durationTicks": 468,
          "midi": 66,
          "name": "F#4",
          "ticks": 7772,
          "time": 10.652295104166665,
          "velocity": 0.6299212598425197
        },
        {
          "duration": 0.6852994791666678,
          "durationTicks": 500,
          "midi": 73,
          "name": "C#5",
          "ticks": 7772,
          "time": 10.652295104166665,
          "velocity": 0.6141732283464567
        },
        {
          "duration": 0.679817083333333,
          "durationTicks": 496,
          "midi": 70,
          "name": "A#4",
          "ticks": 7772,
          "time": 10.652295104166665,
          "velocity": 0.6299212598425197
        },
        {
          "duration": 0.9155601041666674,
          "durationTicks": 668,
          "midi": 68,
          "name": "G#4",
          "ticks": 8408,
          "time": 11.523996041666665,
          "velocity": 0.5748031496062992
        },
        {
          "duration": 0.9868312499999998,
          "durationTicks": 720,
          "midi": 75,
          "name": "D#5",
          "ticks": 8412,
          "time": 11.529478437499998,
          "velocity": 0.5748031496062992
        },
        {
          "duration": 0.8991129166666649,
          "durationTicks": 656,
          "midi": 72,
          "name": "C5",
          "ticks": 8416,
          "time": 11.534960833333333,
          "velocity": 0.6456692913385826
        },
        {
          "duration": 0.9210425000000004,
          "durationTicks": 672,
          "midi": 70,
          "name": "A#4",
          "ticks": 8420,
          "time": 11.540443229166664,
          "velocity": 0.6141732283464567
        },
        {
          "duration": 0.4056972916666659,
          "durationTicks": 296,
          "midi": 68,
          "name": "G#4",
          "ticks": 9316,
          "time": 12.768499895833333,
          "velocity": 0.6141732283464567
        },
        {
          "duration": 0.493415624999999,
          "durationTicks": 360,
          "midi": 75,
          "name": "D#5",
          "ticks": 9316,
          "time": 12.768499895833333,
          "velocity": 0.6299212598425197
        },
        {
          "duration": 0.493415624999999,
          "durationTicks": 360,
          "midi": 72,
          "name": "C5",
          "ticks": 9324,
          "time": 12.779464687499999,
          "velocity": 0.7480314960629921
        },
        {
          "duration": 0.19736624999999997,
          "durationTicks": 144,
          "midi": 68,
          "name": "G#4",
          "ticks": 9728,
          "time": 13.333186666666665,
          "velocity": 0.5826771653543307
        },
        {
          "duration": 0.23026062499999966,
          "durationTicks": 168,
          "midi": 73,
          "name": "C#5",
          "ticks": 9728,
          "time": 13.333186666666665,
          "velocity": 0.5826771653543307
        },
        {
          "duration": 0.21381343749999893,
          "durationTicks": 156,
          "midi": 77,
          "name": "F5",
          "ticks": 9732,
          "time": 13.3386690625,
          "velocity": 0.6692913385826772
        },
        {
          "duration": 0.7017466666666685,
          "durationTicks": 512,
          "midi": 77,
          "name": "F5",
          "ticks": 9992,
          "time": 13.695024791666665,
          "velocity": 0.6929133858267716
        },
        {
          "duration": 0.6798170833333348,
          "durationTicks": 496,
          "midi": 73,
          "name": "C#5",
          "ticks": 9996,
          "time": 13.700507187499998,
          "velocity": 0.5826771653543307
        },
        {
          "duration": 0.6524051041666663,
          "durationTicks": 476,
          "midi": 68,
          "name": "G#4",
          "ticks": 10000,
          "time": 13.705989583333333,
          "velocity": 0.6299212598425197
        },
        {
          "duration": 0.6304755208333326,
          "durationTicks": 460,
          "midi": 73,
          "name": "C#5",
          "ticks": 10804,
          "time": 14.807951145833332,
          "velocity": 0.5748031496062992
        },
        {
          "duration": 0.6578874999999993,
          "durationTicks": 480,
          "midi": 77,
          "name": "F5",
          "ticks": 10804,
          "time": 14.807951145833332,
          "velocity": 0.6692913385826772
        },
        {
          "duration": 0.6852994791666678,
          "durationTicks": 500,
          "midi": 66,
          "name": "F#4",
          "ticks": 10808,
          "time": 14.813433541666665,
          "velocity": 0.6141732283464567
        },
        {
          "duration": 0.685299479166666,
          "durationTicks": 500,
          "midi": 70,
          "name": "A#4",
          "ticks": 10812,
          "time": 14.818915937499998,
          "velocity": 0.6141732283464567
        },
        {
          "duration": 0.8991129166666667,
          "durationTicks": 656,
          "midi": 68,
          "name": "G#4",
          "ticks": 11472,
          "time": 15.723511249999998,
          "velocity": 0.5826771653543307
        },
        {
          "duration": 0.8662185416666652,
          "durationTicks": 632,
          "midi": 75,
          "name": "D#5",
          "ticks": 11472,
          "time": 15.723511249999998,
          "velocity": 0.6456692913385826
        },
        {
          "duration": 0.8662185416666688,
          "durationTicks": 632,
          "midi": 72,
          "name": "C5",
          "ticks": 11480,
          "time": 15.734476041666664,
          "velocity": 0.5748031496062992
        },
        {
          "duration": 0.8662185416666688,
          "durationTicks": 632,
          "midi": 70,
          "name": "A#4",
          "ticks": 11480,
          "time": 15.734476041666664,
          "velocity": 0.5826771653543307
        },
        {
          "duration": 0.7565706250000019,
          "durationTicks": 552,
          "midi": 68,
          "name": "G#4",
          "ticks": 12388,
          "time": 16.97897989583333,
          "velocity": 0.5826771653543307
        },
        {
          "duration": 0.729158645833337,
          "durationTicks": 532,
          "midi": 75,
          "name": "D#5",
          "ticks": 12388,
          "time": 16.97897989583333,
          "velocity": 0.6141732283464567
        },
        {
          "duration": 0.7675354166666679,
          "durationTicks": 560,
          "midi": 65,
          "name": "F4",
          "ticks": 12388,
          "time": 16.97897989583333,
          "velocity": 0.5826771653543307
        },
        {
          "duration": 0.7072290625000015,
          "durationTicks": 516,
          "midi": 72,
          "name": "C5",
          "ticks": 12388,
          "time": 16.97897989583333,
          "velocity": 0.6456692913385826
        },
        {
          "duration": 0.8333241666666673,
          "durationTicks": 608,
          "midi": 65,
          "name": "F4",
          "ticks": 13048,
          "time": 17.88357520833333,
          "velocity": 0.6299212598425197
        },
        {
          "duration": 0.8552537499999993,
          "durationTicks": 624,
          "midi": 68,
          "name": "G#4",
          "ticks": 13048,
          "time": 17.88357520833333,
          "velocity": 0.5590551181102362
        },
        {
          "duration": 0.8826657291666642,
          "durationTicks": 644,
          "midi": 73,
          "name": "C#5",
          "ticks": 13052,
          "time": 17.889057604166666,
          "velocity": 0.6141732283464567
        },
        {
          "duration": 0.8662185416666652,
          "durationTicks": 632,
          "midi": 70,
          "name": "A#4",
          "ticks": 13056,
          "time": 17.89454,
          "velocity": 0.6299212598425197
        },
        {
          "duration": 0.6085459375000006,
          "durationTicks": 444,
          "midi": 73,
          "name": "C#5",
          "ticks": 13924,
          "time": 19.08421989583333,
          "velocity": 0.5748031496062992
        },
        {
          "duration": 0.6249931249999996,
          "durationTicks": 456,
          "midi": 70,
          "name": "A#4",
          "ticks": 13928,
          "time": 19.089702291666665,
          "velocity": 0.6299212598425197
        },
        {
          "duration": 0.6249931249999996,
          "durationTicks": 456,
          "midi": 77,
          "name": "F5",
          "ticks": 13932,
          "time": 19.095184687499998,
          "velocity": 0.7480314960629921
        },
        {
          "duration": 0.5975811458333311,
          "durationTicks": 436,
          "midi": 66,
          "name": "F#4",
          "ticks": 13932,
          "time": 19.095184687499998,
          "velocity": 0.6456692913385826
        },
        {
          "duration": 0.8333241666666673,
          "durationTicks": 608,
          "midi": 68,
          "name": "G#4",
          "ticks": 14544,
          "time": 19.93399125,
          "velocity": 0.6141732283464567
        },
        {
          "duration": 0.8826657291666642,
          "durationTicks": 644,
          "midi": 70,
          "name": "A#4",
          "ticks": 14552,
          "time": 19.944956041666664,
          "velocity": 0.6299212598425197
        },
        {
          "duration": 0.8278417708333343,
          "durationTicks": 604,
          "midi": 72,
          "name": "C5",
          "ticks": 14552,
          "time": 19.944956041666664,
          "velocity": 0.6456692913385826
        },
        {
          "duration": 0.8662185416666652,
          "durationTicks": 632,
          "midi": 75,
          "name": "D#5",
          "ticks": 14552,
          "time": 19.944956041666664,
          "velocity": 0.6141732283464567
        },
        {
          "duration": 0.22477822916667023,
          "durationTicks": 164,
          "midi": 77,
          "name": "F5",
          "ticks": 15436,
          "time": 21.15656552083333,
          "velocity": 0.7480314960629921
        },
        {
          "duration": 0.22477822916667023,
          "durationTicks": 164,
          "midi": 73,
          "name": "C#5",
          "ticks": 15436,
          "time": 21.15656552083333,
          "velocity": 0.6456692913385826
        },
        {
          "duration": 0.20833104166666416,
          "durationTicks": 152,
          "midi": 68,
          "name": "G#4",
          "ticks": 15440,
          "time": 21.162047916666666,
          "velocity": 0.6456692913385826
        },
        {
          "duration": 0.43310927083333084,
          "durationTicks": 316,
          "midi": 77,
          "name": "F5",
          "ticks": 15752,
          "time": 21.589674791666667,
          "velocity": 0.7165354330708661
        },
        {
          "duration": 0.43859166666667093,
          "durationTicks": 320,
          "midi": 68,
          "name": "G#4",
          "ticks": 15756,
          "time": 21.595157187499996,
          "velocity": 0.6929133858267716
        },
        {
          "duration": 0.44407406250000037,
          "durationTicks": 324,
          "midi": 73,
          "name": "C#5",
          "ticks": 15756,
          "time": 21.595157187499996,
          "velocity": 0.6299212598425197
        },
        {
          "duration": 1.7982258333333299,
          "durationTicks": 1312,
          "midi": 77,
          "name": "F5",
          "ticks": 17036,
          "time": 23.349523854166666,
          "velocity": 0.6456692913385826
        },
        {
          "duration": 1.7982258333333299,
          "durationTicks": 1312,
          "midi": 66,
          "name": "F#4",
          "ticks": 17036,
          "time": 23.349523854166666,
          "velocity": 0.5590551181102362
        },
        {
          "duration": 1.776296249999998,
          "durationTicks": 1296,
          "midi": 73,
          "name": "C#5",
          "ticks": 17036,
          "time": 23.349523854166666,
          "velocity": 0.5590551181102362
        },
        {
          "duration": 1.8311202083333313,
          "durationTicks": 1336,
          "midi": 70,
          "name": "A#4",
          "ticks": 17040,
          "time": 23.35500625,
          "velocity": 0.6299212598425197
        },
        {
          "duration": 1.8804617708333318,
          "durationTicks": 1372,
          "midi": 75,
          "name": "D#5",
          "ticks": 18540,
          "time": 25.410904687499997,
          "velocity": 0.5748031496062992
        },
        {
          "duration": 1.8585321874999998,
          "durationTicks": 1356,
          "midi": 68,
          "name": "G#4",
          "ticks": 18540,
          "time": 25.410904687499997,
          "velocity": 0.5354330708661418
        },
        {
          "duration": 1.8366026041666643,
          "durationTicks": 1340,
          "midi": 70,
          "name": "A#4",
          "ticks": 18548,
          "time": 25.421869479166666,
          "velocity": 0.6141732283464567
        },
        {
          "duration": 1.8201554166666654,
          "durationTicks": 1328,
          "midi": 72,
          "name": "C5",
          "ticks": 18560,
          "time": 25.438316666666665,
          "velocity": 0.6299212598425197
        },
        {
          "duration": 1.9352857291666616,
          "durationTicks": 1412,
          "midi": 73,
          "name": "C#5",
          "ticks": 20108,
          "time": 27.560003854166666,
          "velocity": 0.5748031496062992
        },
        {
          "duration": 1.9243209374999992,
          "durationTicks": 1404,
          "midi": 77,
          "name": "F5",
          "ticks": 20108,
          "time": 27.560003854166666,
          "velocity": 0.6692913385826772
        },
        {
          "duration": 1.9243209374999992,
          "durationTicks": 1404,
          "midi": 70,
          "name": "A#4",
          "ticks": 20108,
          "time": 27.560003854166666,
          "velocity": 0.6141732283464567
        },
        {
          "duration": 1.9243209374999992,
          "durationTicks": 1404,
          "midi": 66,
          "name": "F#4",
          "ticks": 20108,
          "time": 27.560003854166666,
          "velocity": 0.5748031496062992
        },
        {
          "duration": 1.8420849999999973,
          "durationTicks": 1344,
          "midi": 77,
          "name": "F5",
          "ticks": 23184,
          "time": 31.775966249999996,
          "velocity": 0.6692913385826772
        },
        {
          "duration": 1.8420849999999973,
          "durationTicks": 1344,
          "midi": 66,
          "name": "F#4",
          "ticks": 23184,
          "time": 31.775966249999996,
          "velocity": 0.5590551181102362
        },
        {
          "duration": 1.8530497916666597,
          "durationTicks": 1352,
          "midi": 70,
          "name": "A#4",
          "ticks": 23192,
          "time": 31.786931041666666,
          "velocity": 0.5748031496062992
        },
        {
          "duration": 1.8311202083333278,
          "durationTicks": 1336,
          "midi": 73,
          "name": "C#5",
          "ticks": 23192,
          "time": 31.786931041666666,
          "velocity": 0.5748031496062992
        },
        {
          "duration": 1.8530497916666633,
          "durationTicks": 1352,
          "midi": 75,
          "name": "D#5",
          "ticks": 24724,
          "time": 33.88668864583333,
          "velocity": 0.6141732283464567
        },
        {
          "duration": 1.8091906250000065,
          "durationTicks": 1320,
          "midi": 68,
          "name": "G#4",
          "ticks": 24728,
          "time": 33.89217104166666,
          "velocity": 0.49606299212598426
        },
        {
          "duration": 1.7927434375000004,
          "durationTicks": 1308,
          "midi": 72,
          "name": "C5",
          "ticks": 24732,
          "time": 33.8976534375,
          "velocity": 0.6141732283464567
        },
        {
          "duration": 1.8037082291666664,
          "durationTicks": 1316,
          "midi": 70,
          "name": "A#4",
          "ticks": 24736,
          "time": 33.90313583333333,
          "velocity": 0.6141732283464567
        },
        {
          "duration": 1.9078737500000003,
          "durationTicks": 1392,
          "midi": 77,
          "name": "F5",
          "ticks": 26264,
          "time": 35.99741104166666,
          "velocity": 0.6141732283464567
        },
        {
          "duration": 1.9188385416666733,
          "durationTicks": 1400,
          "midi": 66,
          "name": "F#4",
          "ticks": 26264,
          "time": 35.99741104166666,
          "velocity": 0.5748031496062992
        },
        {
          "duration": 1.9188385416666733,
          "durationTicks": 1400,
          "midi": 73,
          "name": "C#5",
          "ticks": 26264,
          "time": 35.99741104166666,
          "velocity": 0.5826771653543307
        },
        {
          "duration": 1.9078737500000003,
          "durationTicks": 1392,
          "midi": 70,
          "name": "A#4",
          "ticks": 26264,
          "time": 35.99741104166666,
          "velocity": 0.5826771653543307
        },
        {
          "duration": 0.6743346875,
          "durationTicks": 492,
          "midi": 77,
          "name": "F5",
          "ticks": 35472,
          "time": 48.61788625,
          "velocity": 0.6929133858267716
        },
        {
          "duration": 0.6743346875,
          "durationTicks": 492,
          "midi": 73,
          "name": "C#5",
          "ticks": 35472,
          "time": 48.61788625,
          "velocity": 0.6141732283464567
        },
        {
          "duration": 0.6688522916666741,
          "durationTicks": 488,
          "midi": 66,
          "name": "F#4",
          "ticks": 35480,
          "time": 48.62885104166666,
          "velocity": 0.6141732283464567
        },
        {
          "duration": 1.7708138541666756,
          "durationTicks": 1292,
          "midi": 70,
          "name": "A#4",
          "ticks": 35480,
          "time": 48.62885104166666,
          "velocity": 0.6456692913385826
        },
        {
          "duration": 0.9374896875000047,
          "durationTicks": 684,
          "midi": 75,
          "name": "D#5",
          "ticks": 36120,
          "time": 49.50603437499999,
          "velocity": 0.6141732283464567
        },
        {
          "duration": 0.9045953124999997,
          "durationTicks": 660,
          "midi": 68,
          "name": "G#4",
          "ticks": 36124,
          "time": 49.51151677083333,
          "velocity": 0.5748031496062992
        },
        {
          "duration": 0.9265248958333316,
          "durationTicks": 676,
          "midi": 72,
          "name": "C5",
          "ticks": 36132,
          "time": 49.5224815625,
          "velocity": 0.6456692913385826
        },
        {
          "duration": 0.7730178124999938,
          "durationTicks": 564,
          "midi": 75,
          "name": "D#5",
          "ticks": 36980,
          "time": 50.68474947916666,
          "velocity": 0.6299212598425197
        },
        {
          "duration": 0.7894649999999999,
          "durationTicks": 576,
          "midi": 65,
          "name": "F4",
          "ticks": 36984,
          "time": 50.690231874999995,
          "velocity": 0.6456692913385826
        },
        {
          "duration": 0.7839826041666669,
          "durationTicks": 572,
          "midi": 68,
          "name": "G#4",
          "ticks": 36984,
          "time": 50.690231874999995,
          "velocity": 0.6299212598425197
        },
        {
          "duration": 0.696264270833332,
          "durationTicks": 508,
          "midi": 72,
          "name": "C5",
          "ticks": 36988,
          "time": 50.69571427083333,
          "velocity": 0.6929133858267716
        },
        {
          "duration": 0.8771833333333348,
          "durationTicks": 640,
          "midi": 68,
          "name": "G#4",
          "ticks": 37652,
          "time": 51.60579197916666,
          "velocity": 0.49606299212598426
        },
        {
          "duration": 0.8826657291666677,
          "durationTicks": 644,
          "midi": 73,
          "name": "C#5",
          "ticks": 37656,
          "time": 51.611274374999994,
          "velocity": 0.6456692913385826
        },
        {
          "duration": 0.7894649999999999,
          "durationTicks": 576,
          "midi": 65,
          "name": "F4",
          "ticks": 37660,
          "time": 51.616756770833334,
          "velocity": 0.7480314960629921
        },
        {
          "duration": 0.8717009375000018,
          "durationTicks": 636,
          "midi": 70,
          "name": "A#4",
          "ticks": 37664,
          "time": 51.62223916666666,
          "velocity": 0.6929133858267716
        },
        {
          "duration": 0.679817083333333,
          "durationTicks": 496,
          "midi": 77,
          "name": "F5",
          "ticks": 38508,
          "time": 52.7790246875,
          "velocity": 0.7165354330708661
        },
        {
          "duration": 0.663369895833327,
          "durationTicks": 484,
          "midi": 66,
          "name": "F#4",
          "ticks": 38512,
          "time": 52.78450708333333,
          "velocity": 0.6614173228346457
        },
        {
          "duration": 1.7434018750000035,
          "durationTicks": 1272,
          "midi": 70,
          "name": "A#4",
          "ticks": 38516,
          "time": 52.78998947916666,
          "velocity": 0.6692913385826772
        },
        {
          "duration": 0.6140283333333372,
          "durationTicks": 448,
          "midi": 73,
          "name": "C#5",
          "ticks": 38516,
          "time": 52.78998947916666,
          "velocity": 0.6141732283464567
        },
        {
          "duration": 0.9758664583333356,
          "durationTicks": 712,
          "midi": 75,
          "name": "D#5",
          "ticks": 39156,
          "time": 53.66717281249999,
          "velocity": 0.5433070866141733
        },
        {
          "duration": 0.8771833333333419,
          "durationTicks": 640,
          "midi": 68,
          "name": "G#4",
          "ticks": 39156,
          "time": 53.66717281249999,
          "velocity": 0.5984251968503937
        },
        {
          "duration": 0.8168769791666719,
          "durationTicks": 596,
          "midi": 72,
          "name": "C5",
          "ticks": 39164,
          "time": 53.67813760416666,
          "velocity": 0.6220472440944882
        },
        {
          "duration": 0.4605212499999993,
          "durationTicks": 336,
          "midi": 75,
          "name": "D#5",
          "ticks": 40032,
          "time": 54.867817499999994,
          "velocity": 0.6220472440944882
        },
        {
          "duration": 0.3947325000000035,
          "durationTicks": 288,
          "midi": 68,
          "name": "G#4",
          "ticks": 40032,
          "time": 54.867817499999994,
          "velocity": 0.6220472440944882
        },
        {
          "duration": 0.44955645833333335,
          "durationTicks": 328,
          "midi": 72,
          "name": "C5",
          "ticks": 40032,
          "time": 54.867817499999994,
          "velocity": 0.6929133858267716
        },
        {
          "duration": 1.0471376041666645,
          "durationTicks": 764,
          "midi": 77,
          "name": "F5",
          "ticks": 40444,
          "time": 55.43250427083333,
          "velocity": 0.7165354330708661
        },
        {
          "duration": 1.0032784375000006,
          "durationTicks": 732,
          "midi": 68,
          "name": "G#4",
          "ticks": 40448,
          "time": 55.43798666666666,
          "velocity": 0.6141732283464567
        },
        {
          "duration": 0.9977960416666676,
          "durationTicks": 728,
          "midi": 73,
          "name": "C#5",
          "ticks": 40448,
          "time": 55.43798666666666,
          "velocity": 0.6141732283464567
        },
        {
          "duration": 0.6195107291666702,
          "durationTicks": 452,
          "midi": 77,
          "name": "F5",
          "ticks": 41512,
          "time": 56.89630395833333,
          "velocity": 0.6929133858267716
        },
        {
          "duration": 0.6030635416666641,
          "durationTicks": 440,
          "midi": 73,
          "name": "C#5",
          "ticks": 41512,
          "time": 56.89630395833333,
          "velocity": 0.5748031496062992
        },
        {
          "duration": 0.6030635416666641,
          "durationTicks": 440,
          "midi": 66,
          "name": "F#4",
          "ticks": 41512,
          "time": 56.89630395833333,
          "velocity": 0.5748031496062992
        },
        {
          "duration": 0.614028333333323,
          "durationTicks": 448,
          "midi": 70,
          "name": "A#4",
          "ticks": 41524,
          "time": 56.91275114583333,
          "velocity": 0.6299212598425197
        },
        {
          "duration": 0.9813488541666615,
          "durationTicks": 716,
          "midi": 75,
          "name": "D#5",
          "ticks": 42156,
          "time": 57.778969687499995,
          "velocity": 0.6141732283464567
        },
        {
          "duration": 0.9868312499999945,
          "durationTicks": 720,
          "midi": 68,
          "name": "G#4",
          "ticks": 42164,
          "time": 57.78993447916666,
          "velocity": 0.5748031496062992
        },
        {
          "duration": 0.9649016666666625,
          "durationTicks": 704,
          "midi": 72,
          "name": "C5",
          "ticks": 42168,
          "time": 57.795416874999994,
          "velocity": 0.6456692913385826
        },
        {
          "duration": 0.9100777083333327,
          "durationTicks": 664,
          "midi": 70,
          "name": "A#4",
          "ticks": 42172,
          "time": 57.80089927083333,
          "velocity": 0.6456692913385826
        },
        {
          "duration": 0.7127114583333238,
          "durationTicks": 520,
          "midi": 68,
          "name": "G#4",
          "ticks": 43108,
          "time": 59.08377989583333,
          "velocity": 0.6141732283464567
        },
        {
          "duration": 0.7346410416666629,
          "durationTicks": 536,
          "midi": 65,
          "name": "F4",
          "ticks": 43108,
          "time": 59.08377989583333,
          "velocity": 0.6141732283464567
        },
        {
          "duration": 0.7236762499999969,
          "durationTicks": 528,
          "midi": 75,
          "name": "D#5",
          "ticks": 43108,
          "time": 59.08377989583333,
          "velocity": 0.6299212598425197
        },
        {
          "duration": 0.7017466666666721,
          "durationTicks": 512,
          "midi": 72,
          "name": "C5",
          "ticks": 43112,
          "time": 59.08926229166666,
          "velocity": 0.6929133858267716
        },
        {
          "duration": 0.9320072916666717,
          "durationTicks": 680,
          "midi": 73,
          "name": "C#5",
          "ticks": 43772,
          "time": 59.99385760416666,
          "velocity": 0.6929133858267716
        },
        {
          "duration": 0.8881481249999936,
          "durationTicks": 648,
          "midi": 68,
          "name": "G#4",
          "ticks": 43776,
          "time": 59.99934,
          "velocity": 0.6141732283464567
        },
        {
          "duration": 0.8278417708333379,
          "durationTicks": 604,
          "midi": 65,
          "name": "F4",
          "ticks": 43784,
          "time": 60.010304791666655,
          "velocity": 0.6692913385826772
        },
        {
          "duration": 0.9100777083333327,
          "durationTicks": 664,
          "midi": 70,
          "name": "A#4",
          "ticks": 43788,
          "time": 60.015787187499996,
          "velocity": 0.6299212598425197
        },
        {
          "duration": 0.652405104166661,
          "durationTicks": 476,
          "midi": 77,
          "name": "F5",
          "ticks": 44668,
          "time": 61.22191427083333,
          "velocity": 0.7480314960629921
        },
        {
          "duration": 0.6030635416666641,
          "durationTicks": 440,
          "midi": 73,
          "name": "C#5",
          "ticks": 44668,
          "time": 61.22191427083333,
          "velocity": 0.5826771653543307
        },
        {
          "duration": 0.619510729166663,
          "durationTicks": 452,
          "midi": 66,
          "name": "F#4",
          "ticks": 44668,
          "time": 61.22191427083333,
          "velocity": 0.6299212598425197
        },
        {
          "duration": 0.740123437500003,
          "durationTicks": 540,
          "midi": 70,
          "name": "A#4",
          "ticks": 44672,
          "time": 61.22739666666666,
          "velocity": 0.6299212598425197
        },
        {
          "duration": 0.9594192708333367,
          "durationTicks": 700,
          "midi": 75,
          "name": "D#5",
          "ticks": 45300,
          "time": 62.08813281249999,
          "velocity": 0.6299212598425197
        },
        {
          "duration": 0.9045953124999997,
          "durationTicks": 660,
          "midi": 68,
          "name": "G#4",
          "ticks": 45304,
          "time": 62.09361520833333,
          "velocity": 0.6141732283464567
        },
        {
          "duration": 0.8113945833333389,
          "durationTicks": 592,
          "midi": 72,
          "name": "C5",
          "ticks": 45312,
          "time": 62.10457999999999,
          "velocity": 0.6456692913385826
        },
        {
          "duration": 0.8223593750000049,
          "durationTicks": 600,
          "midi": 70,
          "name": "A#4",
          "ticks": 45312,
          "time": 62.10457999999999,
          "velocity": 0.5748031496062992
        },
        {
          "duration": 0.4824508333333384,
          "durationTicks": 352,
          "midi": 68,
          "name": "G#4",
          "ticks": 46172,
          "time": 63.283295104166655,
          "velocity": 0.6141732283464567
        },
        {
          "duration": 0.5098628124999962,
          "durationTicks": 372,
          "midi": 72,
          "name": "C5",
          "ticks": 46176,
          "time": 63.288777499999995,
          "velocity": 0.6929133858267716
        },
        {
          "duration": 0.5537219791666601,
          "durationTicks": 404,
          "midi": 75,
          "name": "D#5",
          "ticks": 46176,
          "time": 63.288777499999995,
          "velocity": 0.6456692913385826
        },
        {
          "duration": 0.9813488541666615,
          "durationTicks": 716,
          "midi": 68,
          "name": "G#4",
          "ticks": 46636,
          "time": 63.91925302083333,
          "velocity": 0.5826771653543307
        },
        {
          "duration": 0.9429720833333235,
          "durationTicks": 688,
          "midi": 77,
          "name": "F5",
          "ticks": 46636,
          "time": 63.91925302083333,
          "velocity": 0.7165354330708661
        },
        {
          "duration": 0.9210424999999915,
          "durationTicks": 672,
          "midi": 73,
          "name": "C#5",
          "ticks": 46636,
          "time": 63.91925302083333,
          "velocity": 0.6456692913385826
        },
        {
          "duration": 1.7543666666666695,
          "durationTicks": 1280,
          "midi": 77,
          "name": "F5",
          "ticks": 47772,
          "time": 65.47625343749999,
          "velocity": 0.6692913385826772
        },
        {
          "duration": 1.7488842708333436,
          "durationTicks": 1276,
          "midi": 66,
          "name": "F#4",
          "ticks": 47772,
          "time": 65.47625343749999,
          "velocity": 0.5826771653543307
        },
        {
          "duration": 1.7159898958333315,
          "durationTicks": 1252,
          "midi": 73,
          "name": "C#5",
          "ticks": 47776,
          "time": 65.48173583333333,
          "velocity": 0.5826771653543307
        },
        {
          "duration": 1.7598490624999954,
          "durationTicks": 1284,
          "midi": 70,
          "name": "A#4",
          "ticks": 47776,
          "time": 65.48173583333333,
          "velocity": 0.6299212598425197
        },
        {
          "duration": 1.9023913541666673,
          "durationTicks": 1388,
          "midi": 75,
          "name": "D#5",
          "ticks": 49244,
          "time": 67.49377510416666,
          "velocity": 0.6141732283464567
        },
        {
          "duration": 1.8694969791666693,
          "durationTicks": 1364,
          "midi": 68,
          "name": "G#4",
          "ticks": 49244,
          "time": 67.49377510416666,
          "velocity": 0.5748031496062992
        },
        {
          "duration": 1.8475673958333232,
          "durationTicks": 1348,
          "midi": 70,
          "name": "A#4",
          "ticks": 49256,
          "time": 67.51022229166666,
          "velocity": 0.6929133858267716
        },
        {
          "duration": 1.8201554166666511,
          "durationTicks": 1328,
          "midi": 72,
          "name": "C5",
          "ticks": 49256,
          "time": 67.51022229166666,
          "velocity": 0.6456692913385826
        },
        {
          "duration": 1.8914265625000013,
          "durationTicks": 1380,
          "midi": 77,
          "name": "F5",
          "ticks": 50808,
          "time": 69.63739187499999,
          "velocity": 0.6692913385826772
        },
        {
          "duration": 1.8640145833333435,
          "durationTicks": 1360,
          "midi": 66,
          "name": "F#4",
          "ticks": 50812,
          "time": 69.64287427083332,
          "velocity": 0.5826771653543307
        },
        {
          "duration": 1.8694969791666693,
          "durationTicks": 1364,
          "midi": 73,
          "name": "C#5",
          "ticks": 50816,
          "time": 69.64835666666666,
          "velocity": 0.5826771653543307
        },
        {
          "duration": 1.8530497916666633,
          "durationTicks": 1352,
          "midi": 70,
          "name": "A#4",
          "ticks": 50816,
          "time": 69.64835666666666,
          "velocity": 0.6456692913385826
        },
        {
          "duration": 1.8640145833333435,
          "durationTicks": 1360,
          "midi": 66,
          "name": "F#4",
          "ticks": 53884,
          "time": 73.85335427083332,
          "velocity": 0.5275590551181102
        },
        {
          "duration": 1.9298033333333393,
          "durationTicks": 1408,
          "midi": 70,
          "name": "A#4",
          "ticks": 53884,
          "time": 73.85335427083332,
          "velocity": 0.5748031496062992
        },
        {
          "duration": 1.8749793749999952,
          "durationTicks": 1368,
          "midi": 77,
          "name": "F5",
          "ticks": 53884,
          "time": 73.85335427083332,
          "velocity": 0.6692913385826772
        },
        {
          "duration": 1.8640145833333435,
          "durationTicks": 1360,
          "midi": 73,
          "name": "C#5",
          "ticks": 53884,
          "time": 73.85335427083332,
          "velocity": 0.5748031496062992
        },
        {
          "duration": 1.8914265625000013,
          "durationTicks": 1380,
          "midi": 75,
          "name": "D#5",
          "ticks": 55432,
          "time": 75.97504145833332,
          "velocity": 0.6141732283464567
        },
        {
          "duration": 1.8530497916666775,
          "durationTicks": 1352,
          "midi": 68,
          "name": "G#4",
          "ticks": 55440,
          "time": 75.98600624999999,
          "velocity": 0.5590551181102362
        },
        {
          "duration": 1.8256378124999912,
          "durationTicks": 1332,
          "midi": 70,
          "name": "A#4",
          "ticks": 55448,
          "time": 75.99697104166667,
          "velocity": 0.5590551181102362
        },
        {
          "duration": 1.7927434374999933,
          "durationTicks": 1308,
          "midi": 72,
          "name": "C5",
          "ticks": 55456,
          "time": 76.00793583333332,
          "velocity": 0.6141732283464567
        },
        {
          "duration": 1.8969089583333272,
          "durationTicks": 1384,
          "midi": 77,
          "name": "F5",
          "ticks": 57008,
          "time": 78.13510541666666,
          "velocity": 0.6692913385826772
        },
        {
          "duration": 1.8969089583333272,
          "durationTicks": 1384,
          "midi": 73,
          "name": "C#5",
          "ticks": 57008,
          "time": 78.13510541666666,
          "velocity": 0.5590551181102362
        },
        {
          "duration": 1.8804617708333211,
          "durationTicks": 1372,
          "midi": 66,
          "name": "F#4",
          "ticks": 57020,
          "time": 78.15155260416667,
          "velocity": 0.5590551181102362
        },
        {
          "duration": 1.8694969791666693,
          "durationTicks": 1364,
          "midi": 70,
          "name": "A#4",
          "ticks": 57028,
          "time": 78.16251739583332,
          "velocity": 0.5748031496062992
        },
        {
          "duration": 0.6743346874999929,
          "durationTicks": 492,
          "midi": 77,
          "name": "F5",
          "ticks": 66192,
          "time": 90.72268625,
          "velocity": 0.6929133858267716
        },
        {
          "duration": 0.6743346874999929,
          "durationTicks": 492,
          "midi": 73,
          "name": "C#5",
          "ticks": 66192,
          "time": 90.72268625,
          "velocity": 0.6141732283464567
        },
        {
          "duration": 0.6688522916666528,
          "durationTicks": 488,
          "midi": 66,
          "name": "F#4",
          "ticks": 66200,
          "time": 90.73365104166666,
          "velocity": 0.6141732283464567
        },
        {
          "duration": 1.7708138541666614,
          "durationTicks": 1292,
          "midi": 70,
          "name": "A#4",
          "ticks": 66200,
          "time": 90.73365104166666,
          "velocity": 0.6456692913385826
        },
        {
          "duration": 0.9374896874999905,
          "durationTicks": 684,
          "midi": 75,
          "name": "D#5",
          "ticks": 66840,
          "time": 91.610834375,
          "velocity": 0.6141732283464567
        },
        {
          "duration": 0.9045953124999926,
          "durationTicks": 660,
          "midi": 68,
          "name": "G#4",
          "ticks": 66844,
          "time": 91.61631677083332,
          "velocity": 0.5748031496062992
        },
        {
          "duration": 0.9265248958333245,
          "durationTicks": 676,
          "midi": 72,
          "name": "C5",
          "ticks": 66852,
          "time": 91.62728156249999,
          "velocity": 0.6456692913385826
        },
        {
          "duration": 0.7730178125000009,
          "durationTicks": 564,
          "midi": 75,
          "name": "D#5",
          "ticks": 67700,
          "time": 92.78954947916667,
          "velocity": 0.6299212598425197
        },
        {
          "duration": 0.7894649999999928,
          "durationTicks": 576,
          "midi": 65,
          "name": "F4",
          "ticks": 67704,
          "time": 92.79503187499999,
          "velocity": 0.6456692913385826
        },
        {
          "duration": 0.7839826041666669,
          "durationTicks": 572,
          "midi": 68,
          "name": "G#4",
          "ticks": 67704,
          "time": 92.79503187499999,
          "velocity": 0.6299212598425197
        },
        {
          "duration": 0.6962642708333391,
          "durationTicks": 508,
          "midi": 72,
          "name": "C5",
          "ticks": 67708,
          "time": 92.80051427083332,
          "velocity": 0.6929133858267716
        },
        {
          "duration": 0.8771833333333205,
          "durationTicks": 640,
          "midi": 68,
          "name": "G#4",
          "ticks": 68372,
          "time": 93.71059197916667,
          "velocity": 0.49606299212598426
        },
        {
          "duration": 0.8826657291666749,
          "durationTicks": 644,
          "midi": 73,
          "name": "C#5",
          "ticks": 68376,
          "time": 93.71607437499999,
          "velocity": 0.6456692913385826
        },
        {
          "duration": 0.789465000000007,
          "durationTicks": 576,
          "midi": 65,
          "name": "F4",
          "ticks": 68380,
          "time": 93.72155677083332,
          "velocity": 0.7480314960629921
        },
        {
          "duration": 0.8717009375000089,
          "durationTicks": 636,
          "midi": 70,
          "name": "A#4",
          "ticks": 68384,
          "time": 93.72703916666666,
          "velocity": 0.6929133858267716
        },
        {
          "duration": 0.6798170833333188,
          "durationTicks": 496,
          "midi": 77,
          "name": "F5",
          "ticks": 69228,
          "time": 94.8838246875,
          "velocity": 0.7165354330708661
        },
        {
          "duration": 0.6633698958333412,
          "durationTicks": 484,
          "midi": 66,
          "name": "F#4",
          "ticks": 69232,
          "time": 94.88930708333332,
          "velocity": 0.6929133858267716
        },
        {
          "duration": 1.7434018750000035,
          "durationTicks": 1272,
          "midi": 70,
          "name": "A#4",
          "ticks": 69236,
          "time": 94.89478947916666,
          "velocity": 0.6456692913385826
        },
        {
          "duration": 0.614028333333323,
          "durationTicks": 448,
          "midi": 73,
          "name": "C#5",
          "ticks": 69236,
          "time": 94.89478947916666,
          "velocity": 0.6456692913385826
        },
        {
          "duration": 0.9758664583333285,
          "durationTicks": 712,
          "midi": 75,
          "name": "D#5",
          "ticks": 69876,
          "time": 95.7719728125,
          "velocity": 0.5826771653543307
        },
        {
          "duration": 0.8771833333333205,
          "durationTicks": 640,
          "midi": 68,
          "name": "G#4",
          "ticks": 69876,
          "time": 95.7719728125,
          "velocity": 0.6141732283464567
        },
        {
          "duration": 0.8168769791666506,
          "durationTicks": 596,
          "midi": 72,
          "name": "C5",
          "ticks": 69884,
          "time": 95.78293760416666,
          "velocity": 0.6456692913385826
        },
        {
          "duration": 0.4605212499999993,
          "durationTicks": 336,
          "midi": 75,
          "name": "D#5",
          "ticks": 70752,
          "time": 96.97261749999998,
          "velocity": 0.5826771653543307
        },
        {
          "duration": 0.3947325000000035,
          "durationTicks": 288,
          "midi": 68,
          "name": "G#4",
          "ticks": 70752,
          "time": 96.97261749999998,
          "velocity": 0.6141732283464567
        },
        {
          "duration": 0.44955645833333335,
          "durationTicks": 328,
          "midi": 72,
          "name": "C5",
          "ticks": 70752,
          "time": 96.97261749999998,
          "velocity": 0.6929133858267716
        },
        {
          "duration": 1.0471376041666787,
          "durationTicks": 764,
          "midi": 77,
          "name": "F5",
          "ticks": 71164,
          "time": 97.53730427083332,
          "velocity": 0.7165354330708661
        },
        {
          "duration": 1.0032784375000006,
          "durationTicks": 732,
          "midi": 68,
          "name": "G#4",
          "ticks": 71168,
          "time": 97.54278666666666,
          "velocity": 0.6141732283464567
        },
        {
          "duration": 0.9977960416666605,
          "durationTicks": 728,
          "midi": 73,
          "name": "C#5",
          "ticks": 71168,
          "time": 97.54278666666666,
          "velocity": 0.6141732283464567
        },
        {
          "duration": 0.6195107291666773,
          "durationTicks": 452,
          "midi": 77,
          "name": "F5",
          "ticks": 72232,
          "time": 99.00110395833332,
          "velocity": 0.6929133858267716
        },
        {
          "duration": 0.6030635416666712,
          "durationTicks": 440,
          "midi": 73,
          "name": "C#5",
          "ticks": 72232,
          "time": 99.00110395833332,
          "velocity": 0.5748031496062992
        },
        {
          "duration": 0.6030635416666712,
          "durationTicks": 440,
          "midi": 66,
          "name": "F#4",
          "ticks": 72232,
          "time": 99.00110395833332,
          "velocity": 0.5748031496062992
        },
        {
          "duration": 0.6140283333333372,
          "durationTicks": 448,
          "midi": 70,
          "name": "A#4",
          "ticks": 72244,
          "time": 99.01755114583332,
          "velocity": 0.6299212598425197
        },
        {
          "duration": 0.9813488541666686,
          "durationTicks": 716,
          "midi": 75,
          "name": "D#5",
          "ticks": 72876,
          "time": 99.88376968749999,
          "velocity": 0.6141732283464567
        },
        {
          "duration": 0.9868312500000087,
          "durationTicks": 720,
          "midi": 68,
          "name": "G#4",
          "ticks": 72884,
          "time": 99.89473447916666,
          "velocity": 0.5748031496062992
        },
        {
          "duration": 0.9649016666666768,
          "durationTicks": 704,
          "midi": 72,
          "name": "C5",
          "ticks": 72888,
          "time": 99.90021687499998,
          "velocity": 0.6456692913385826
        },
        {
          "duration": 0.9100777083333327,
          "durationTicks": 664,
          "midi": 70,
          "name": "A#4",
          "ticks": 72892,
          "time": 99.90569927083332,
          "velocity": 0.6456692913385826
        },
        {
          "duration": 0.7127114583333451,
          "durationTicks": 520,
          "midi": 68,
          "name": "G#4",
          "ticks": 73828,
          "time": 101.18857989583331,
          "velocity": 0.6141732283464567
        },
        {
          "duration": 0.7346410416666771,
          "durationTicks": 536,
          "midi": 65,
          "name": "F4",
          "ticks": 73828,
          "time": 101.18857989583331,
          "velocity": 0.6141732283464567
        },
        {
          "duration": 0.7236762499999969,
          "durationTicks": 528,
          "midi": 75,
          "name": "D#5",
          "ticks": 73828,
          "time": 101.18857989583331,
          "velocity": 0.6299212598425197
        },
        {
          "duration": 0.701746666666665,
          "durationTicks": 512,
          "midi": 72,
          "name": "C5",
          "ticks": 73832,
          "time": 101.19406229166665,
          "velocity": 0.6929133858267716
        },
        {
          "duration": 0.9320072916666504,
          "durationTicks": 680,
          "midi": 73,
          "name": "C#5",
          "ticks": 74492,
          "time": 102.09865760416666,
          "velocity": 0.6929133858267716
        },
        {
          "duration": 0.8881481250000007,
          "durationTicks": 648,
          "midi": 68,
          "name": "G#4",
          "ticks": 74496,
          "time": 102.10413999999999,
          "velocity": 0.6141732283464567
        },
        {
          "duration": 0.8278417708333166,
          "durationTicks": 604,
          "midi": 65,
          "name": "F4",
          "ticks": 74504,
          "time": 102.11510479166667,
          "velocity": 0.6692913385826772
        },
        {
          "duration": 0.9100777083333185,
          "durationTicks": 664,
          "midi": 70,
          "name": "A#4",
          "ticks": 74508,
          "time": 102.12058718749999,
          "velocity": 0.6299212598425197
        },
        {
          "duration": 0.652405104166661,
          "durationTicks": 476,
          "midi": 77,
          "name": "F5",
          "ticks": 75388,
          "time": 103.32671427083332,
          "velocity": 0.7480314960629921
        },
        {
          "duration": 0.6030635416666712,
          "durationTicks": 440,
          "midi": 73,
          "name": "C#5",
          "ticks": 75388,
          "time": 103.32671427083332,
          "velocity": 0.5826771653543307
        },
        {
          "duration": 0.619510729166663,
          "durationTicks": 452,
          "midi": 66,
          "name": "F#4",
          "ticks": 75388,
          "time": 103.32671427083332,
          "velocity": 0.6299212598425197
        },
        {
          "duration": 0.740123437500003,
          "durationTicks": 540,
          "midi": 70,
          "name": "A#4",
          "ticks": 75392,
          "time": 103.33219666666666,
          "velocity": 0.6299212598425197
        },
        {
          "duration": 0.9594192708333225,
          "durationTicks": 700,
          "midi": 75,
          "name": "D#5",
          "ticks": 76020,
          "time": 104.19293281249999,
          "velocity": 0.6299212598425197
        },
        {
          "duration": 0.9045953125000068,
          "durationTicks": 660,
          "midi": 68,
          "name": "G#4",
          "ticks": 76024,
          "time": 104.19841520833332,
          "velocity": 0.6141732283464567
        },
        {
          "duration": 0.8113945833333247,
          "durationTicks": 592,
          "midi": 72,
          "name": "C5",
          "ticks": 76032,
          "time": 104.20938,
          "velocity": 0.6456692913385826
        },
        {
          "duration": 0.8223593749999907,
          "durationTicks": 600,
          "midi": 70,
          "name": "A#4",
          "ticks": 76032,
          "time": 104.20938,
          "velocity": 0.5748031496062992
        },
        {
          "duration": 0.48245083333331706,
          "durationTicks": 352,
          "midi": 68,
          "name": "G#4",
          "ticks": 76892,
          "time": 105.38809510416667,
          "velocity": 0.6141732283464567
        },
        {
          "duration": 0.5098628125000033,
          "durationTicks": 372,
          "midi": 72,
          "name": "C5",
          "ticks": 76896,
          "time": 105.39357749999999,
          "velocity": 0.6929133858267716
        },
        {
          "duration": 0.5537219791666672,
          "durationTicks": 404,
          "midi": 75,
          "name": "D#5",
          "ticks": 76896,
          "time": 105.39357749999999,
          "velocity": 0.6456692913385826
        },
        {
          "duration": 0.9813488541666686,
          "durationTicks": 716,
          "midi": 68,
          "name": "G#4",
          "ticks": 77356,
          "time": 106.02405302083332,
          "velocity": 0.5826771653543307
        },
        {
          "duration": 0.9429720833333448,
          "durationTicks": 688,
          "midi": 77,
          "name": "F5",
          "ticks": 77356,
          "time": 106.02405302083332,
          "velocity": 0.7165354330708661
        },
        {
          "duration": 0.9210424999999987,
          "durationTicks": 672,
          "midi": 73,
          "name": "C#5",
          "ticks": 77356,
          "time": 106.02405302083332,
          "velocity": 0.6456692913385826
        },
        {
          "duration": 0.6743346875000071,
          "durationTicks": 492,
          "midi": 77,
          "name": "F5",
          "ticks": 78480,
          "time": 107.56460624999998,
          "velocity": 0.6929133858267716
        },
        {
          "duration": 0.6743346875000071,
          "durationTicks": 492,
          "midi": 73,
          "name": "C#5",
          "ticks": 78480,
          "time": 107.56460624999998,
          "velocity": 0.6141732283464567
        },
        {
          "duration": 0.6688522916666528,
          "durationTicks": 488,
          "midi": 66,
          "name": "F#4",
          "ticks": 78488,
          "time": 107.57557104166666,
          "velocity": 0.6141732283464567
        },
        {
          "duration": 1.7708138541666472,
          "durationTicks": 1292,
          "midi": 70,
          "name": "A#4",
          "ticks": 78488,
          "time": 107.57557104166666,
          "velocity": 0.6456692913385826
        },
        {
          "duration": 0.9374896875000047,
          "durationTicks": 684,
          "midi": 75,
          "name": "D#5",
          "ticks": 79128,
          "time": 108.45275437499998,
          "velocity": 0.6141732283464567
        },
        {
          "duration": 0.9045953124999926,
          "durationTicks": 660,
          "midi": 68,
          "name": "G#4",
          "ticks": 79132,
          "time": 108.45823677083332,
          "velocity": 0.5748031496062992
        },
        {
          "duration": 0.9265248958333245,
          "durationTicks": 676,
          "midi": 72,
          "name": "C5",
          "ticks": 79140,
          "time": 108.46920156249999,
          "velocity": 0.6456692913385826
        },
        {
          "duration": 0.7730178125000009,
          "durationTicks": 564,
          "midi": 75,
          "name": "D#5",
          "ticks": 79988,
          "time": 109.63146947916665,
          "velocity": 0.6299212598425197
        },
        {
          "duration": 0.7894649999999928,
          "durationTicks": 576,
          "midi": 65,
          "name": "F4",
          "ticks": 79992,
          "time": 109.636951875,
          "velocity": 0.6456692913385826
        },
        {
          "duration": 0.7839826041666669,
          "durationTicks": 572,
          "midi": 68,
          "name": "G#4",
          "ticks": 79992,
          "time": 109.636951875,
          "velocity": 0.6299212598425197
        },
        {
          "duration": 0.6962642708333391,
          "durationTicks": 508,
          "midi": 72,
          "name": "C5",
          "ticks": 79996,
          "time": 109.64243427083332,
          "velocity": 0.6929133858267716
        },
        {
          "duration": 0.8771833333333205,
          "durationTicks": 640,
          "midi": 68,
          "name": "G#4",
          "ticks": 80660,
          "time": 110.55251197916667,
          "velocity": 0.49606299212598426
        },
        {
          "duration": 0.8826657291666606,
          "durationTicks": 644,
          "midi": 73,
          "name": "C#5",
          "ticks": 80664,
          "time": 110.55799437499999,
          "velocity": 0.6456692913385826
        },
        {
          "duration": 0.7894649999999928,
          "durationTicks": 576,
          "midi": 65,
          "name": "F4",
          "ticks": 80668,
          "time": 110.56347677083332,
          "velocity": 0.7480314960629921
        },
        {
          "duration": 0.8717009374999947,
          "durationTicks": 636,
          "midi": 70,
          "name": "A#4",
          "ticks": 80672,
          "time": 110.56895916666666,
          "velocity": 0.6929133858267716
        },
        {
          "duration": 0.679817083333333,
          "durationTicks": 496,
          "midi": 77,
          "name": "F5",
          "ticks": 81516,
          "time": 111.72574468749998,
          "velocity": 0.7165354330708661
        },
        {
          "duration": 0.6633698958333412,
          "durationTicks": 484,
          "midi": 66,
          "name": "F#4",
          "ticks": 81520,
          "time": 111.73122708333332,
          "velocity": 0.6929133858267716
        },
        {
          "duration": 1.7434018750000035,
          "durationTicks": 1272,
          "midi": 70,
          "name": "A#4",
          "ticks": 81524,
          "time": 111.73670947916666,
          "velocity": 0.6456692913385826
        },
        {
          "duration": 0.614028333333323,
          "durationTicks": 448,
          "midi": 73,
          "name": "C#5",
          "ticks": 81524,
          "time": 111.73670947916666,
          "velocity": 0.6456692913385826
        },
        {
          "duration": 0.9758664583333285,
          "durationTicks": 712,
          "midi": 75,
          "name": "D#5",
          "ticks": 82164,
          "time": 112.61389281249998,
          "velocity": 0.5826771653543307
        },
        {
          "duration": 0.8771833333333348,
          "durationTicks": 640,
          "midi": 68,
          "name": "G#4",
          "ticks": 82164,
          "time": 112.61389281249998,
          "velocity": 0.6141732283464567
        },
        {
          "duration": 0.8168769791666506,
          "durationTicks": 596,
          "midi": 72,
          "name": "C5",
          "ticks": 82172,
          "time": 112.62485760416666,
          "velocity": 0.6456692913385826
        },
        {
          "duration": 0.4605212499999993,
          "durationTicks": 336,
          "midi": 75,
          "name": "D#5",
          "ticks": 83040,
          "time": 113.81453749999999,
          "velocity": 0.5826771653543307
        },
        {
          "duration": 0.3947325000000035,
          "durationTicks": 288,
          "midi": 68,
          "name": "G#4",
          "ticks": 83040,
          "time": 113.81453749999999,
          "velocity": 0.6141732283464567
        },
        {
          "duration": 0.44955645833333335,
          "durationTicks": 328,
          "midi": 72,
          "name": "C5",
          "ticks": 83040,
          "time": 113.81453749999999,
          "velocity": 0.6929133858267716
        },
        {
          "duration": 1.0471376041666645,
          "durationTicks": 764,
          "midi": 77,
          "name": "F5",
          "ticks": 83452,
          "time": 114.37922427083332,
          "velocity": 0.7165354330708661
        },
        {
          "duration": 1.0032784375000006,
          "durationTicks": 732,
          "midi": 68,
          "name": "G#4",
          "ticks": 83456,
          "time": 114.38470666666666,
          "velocity": 0.6141732283464567
        },
        {
          "duration": 0.9977960416666605,
          "durationTicks": 728,
          "midi": 73,
          "name": "C#5",
          "ticks": 83456,
          "time": 114.38470666666666,
          "velocity": 0.6141732283464567
        },
        {
          "duration": 0.619510729166663,
          "durationTicks": 452,
          "midi": 77,
          "name": "F5",
          "ticks": 84520,
          "time": 115.84302395833332,
          "velocity": 0.6929133858267716
        },
        {
          "duration": 0.6030635416666712,
          "durationTicks": 440,
          "midi": 73,
          "name": "C#5",
          "ticks": 84520,
          "time": 115.84302395833332,
          "velocity": 0.5748031496062992
        },
        {
          "duration": 0.6030635416666712,
          "durationTicks": 440,
          "midi": 66,
          "name": "F#4",
          "ticks": 84520,
          "time": 115.84302395833332,
          "velocity": 0.5748031496062992
        },
        {
          "duration": 0.6140283333333514,
          "durationTicks": 448,
          "midi": 70,
          "name": "A#4",
          "ticks": 84532,
          "time": 115.85947114583331,
          "velocity": 0.6299212598425197
        },
        {
          "duration": 0.9813488541666686,
          "durationTicks": 716,
          "midi": 75,
          "name": "D#5",
          "ticks": 85164,
          "time": 116.7256896875,
          "velocity": 0.6141732283464567
        },
        {
          "duration": 0.9868312499999945,
          "durationTicks": 720,
          "midi": 68,
          "name": "G#4",
          "ticks": 85172,
          "time": 116.73665447916666,
          "velocity": 0.5748031496062992
        },
        {
          "duration": 0.9649016666666768,
          "durationTicks": 704,
          "midi": 72,
          "name": "C5",
          "ticks": 85176,
          "time": 116.74213687499999,
          "velocity": 0.6456692913385826
        },
        {
          "duration": 0.9100777083333469,
          "durationTicks": 664,
          "midi": 70,
          "name": "A#4",
          "ticks": 85180,
          "time": 116.74761927083331,
          "velocity": 0.6456692913385826
        },
        {
          "duration": 0.7127114583333451,
          "durationTicks": 520,
          "midi": 68,
          "name": "G#4",
          "ticks": 86116,
          "time": 118.03049989583332,
          "velocity": 0.6141732283464567
        },
        {
          "duration": 0.7346410416666771,
          "durationTicks": 536,
          "midi": 65,
          "name": "F4",
          "ticks": 86116,
          "time": 118.03049989583332,
          "velocity": 0.6141732283464567
        },
        {
          "duration": 0.7236762499999969,
          "durationTicks": 528,
          "midi": 75,
          "name": "D#5",
          "ticks": 86116,
          "time": 118.03049989583332,
          "velocity": 0.6299212598425197
        },
        {
          "duration": 0.701746666666665,
          "durationTicks": 512,
          "midi": 72,
          "name": "C5",
          "ticks": 86120,
          "time": 118.03598229166666,
          "velocity": 0.6929133858267716
        },
        {
          "duration": 0.9320072916666504,
          "durationTicks": 680,
          "midi": 73,
          "name": "C#5",
          "ticks": 86780,
          "time": 118.94057760416666,
          "velocity": 0.6929133858267716
        },
        {
          "duration": 0.8881481250000007,
          "durationTicks": 648,
          "midi": 68,
          "name": "G#4",
          "ticks": 86784,
          "time": 118.94605999999999,
          "velocity": 0.6141732283464567
        },
        {
          "duration": 0.8278417708333308,
          "durationTicks": 604,
          "midi": 65,
          "name": "F4",
          "ticks": 86792,
          "time": 118.95702479166665,
          "velocity": 0.6692913385826772
        },
        {
          "duration": 0.9100777083333327,
          "durationTicks": 664,
          "midi": 70,
          "name": "A#4",
          "ticks": 86796,
          "time": 118.96250718749998,
          "velocity": 0.6299212598425197
        },
        {
          "duration": 0.6524051041666752,
          "durationTicks": 476,
          "midi": 77,
          "name": "F5",
          "ticks": 87676,
          "time": 120.16863427083331,
          "velocity": 0.7480314960629921
        },
        {
          "duration": 0.6030635416666854,
          "durationTicks": 440,
          "midi": 73,
          "name": "C#5",
          "ticks": 87676,
          "time": 120.16863427083331,
          "velocity": 0.5826771653543307
        },
        {
          "duration": 0.6195107291666773,
          "durationTicks": 452,
          "midi": 66,
          "name": "F#4",
          "ticks": 87676,
          "time": 120.16863427083331,
          "velocity": 0.6299212598425197
        },
        {
          "duration": 0.740123437500003,
          "durationTicks": 540,
          "midi": 70,
          "name": "A#4",
          "ticks": 87680,
          "time": 120.17411666666666,
          "velocity": 0.6299212598425197
        },
        {
          "duration": 0.9594192708333225,
          "durationTicks": 700,
          "midi": 75,
          "name": "D#5",
          "ticks": 88308,
          "time": 121.03485281249999,
          "velocity": 0.6299212598425197
        },
        {
          "duration": 0.9045953124999926,
          "durationTicks": 660,
          "midi": 68,
          "name": "G#4",
          "ticks": 88312,
          "time": 121.04033520833332,
          "velocity": 0.6141732283464567
        },
        {
          "duration": 0.8113945833333389,
          "durationTicks": 592,
          "midi": 72,
          "name": "C5",
          "ticks": 88320,
          "time": 121.05129999999998,
          "velocity": 0.6456692913385826
        },
        {
          "duration": 0.8223593750000049,
          "durationTicks": 600,
          "midi": 70,
          "name": "A#4",
          "ticks": 88320,
          "time": 121.05129999999998,
          "velocity": 0.5748031496062992
        },
        {
          "duration": 0.4824508333333313,
          "durationTicks": 352,
          "midi": 68,
          "name": "G#4",
          "ticks": 89180,
          "time": 122.23001510416665,
          "velocity": 0.6141732283464567
        },
        {
          "duration": 0.5098628124999891,
          "durationTicks": 372,
          "midi": 72,
          "name": "C5",
          "ticks": 89184,
          "time": 122.2354975,
          "velocity": 0.6929133858267716
        },
        {
          "duration": 0.5537219791666672,
          "durationTicks": 404,
          "midi": 75,
          "name": "D#5",
          "ticks": 89184,
          "time": 122.2354975,
          "velocity": 0.6456692913385826
        },
        {
          "duration": 0.9813488541666828,
          "durationTicks": 716,
          "midi": 68,
          "name": "G#4",
          "ticks": 89644,
          "time": 122.86597302083331,
          "velocity": 0.5826771653543307
        },
        {
          "duration": 0.9429720833333448,
          "durationTicks": 688,
          "midi": 77,
          "name": "F5",
          "ticks": 89644,
          "time": 122.86597302083331,
          "velocity": 0.7165354330708661
        },
        {
          "duration": 0.9210425000000129,
          "durationTicks": 672,
          "midi": 73,
          "name": "C#5",
          "ticks": 89644,
          "time": 122.86597302083331,
          "velocity": 0.6456692913385826
        },
        {
          "duration": 0.6743346874999929,
          "durationTicks": 492,
          "midi": 77,
          "name": "F5",
          "ticks": 121488,
          "time": 166.51132625,
          "velocity": 0.6929133858267716
        },
        {
          "duration": 0.6743346874999929,
          "durationTicks": 492,
          "midi": 73,
          "name": "C#5",
          "ticks": 121488,
          "time": 166.51132625,
          "velocity": 0.6141732283464567
        },
        {
          "duration": 0.668852291666667,
          "durationTicks": 488,
          "midi": 66,
          "name": "F#4",
          "ticks": 121496,
          "time": 166.52229104166665,
          "velocity": 0.6141732283464567
        },
        {
          "duration": 1.7708138541666756,
          "durationTicks": 1292,
          "midi": 70,
          "name": "A#4",
          "ticks": 121496,
          "time": 166.52229104166665,
          "velocity": 0.6456692913385826
        },
        {
          "duration": 0.9374896875000047,
          "durationTicks": 684,
          "midi": 75,
          "name": "D#5",
          "ticks": 122136,
          "time": 167.39947437499998,
          "velocity": 0.6141732283464567
        },
        {
          "duration": 0.9045953124999926,
          "durationTicks": 660,
          "midi": 68,
          "name": "G#4",
          "ticks": 122140,
          "time": 167.40495677083334,
          "velocity": 0.5748031496062992
        },
        {
          "duration": 0.9265248958333245,
          "durationTicks": 676,
          "midi": 72,
          "name": "C5",
          "ticks": 122148,
          "time": 167.4159215625,
          "velocity": 0.6456692913385826
        },
        {
          "duration": 0.7730178125000009,
          "durationTicks": 564,
          "midi": 75,
          "name": "D#5",
          "ticks": 122996,
          "time": 168.57818947916664,
          "velocity": 0.6299212598425197
        },
        {
          "duration": 0.7894649999999785,
          "durationTicks": 576,
          "midi": 65,
          "name": "F4",
          "ticks": 123000,
          "time": 168.583671875,
          "velocity": 0.6456692913385826
        },
        {
          "duration": 0.7839826041666527,
          "durationTicks": 572,
          "midi": 68,
          "name": "G#4",
          "ticks": 123000,
          "time": 168.583671875,
          "velocity": 0.6299212598425197
        },
        {
          "duration": 0.6962642708333249,
          "durationTicks": 508,
          "midi": 72,
          "name": "C5",
          "ticks": 123004,
          "time": 168.58915427083332,
          "velocity": 0.6929133858267716
        },
        {
          "duration": 0.8771833333333348,
          "durationTicks": 640,
          "midi": 68,
          "name": "G#4",
          "ticks": 123668,
          "time": 169.49923197916664,
          "velocity": 0.49606299212598426
        },
        {
          "duration": 0.8826657291666606,
          "durationTicks": 644,
          "midi": 73,
          "name": "C#5",
          "ticks": 123672,
          "time": 169.504714375,
          "velocity": 0.6456692913385826
        },
        {
          "duration": 0.789465000000007,
          "durationTicks": 576,
          "midi": 65,
          "name": "F4",
          "ticks": 123676,
          "time": 169.51019677083332,
          "velocity": 0.7480314960629921
        },
        {
          "duration": 0.8717009375000089,
          "durationTicks": 636,
          "midi": 70,
          "name": "A#4",
          "ticks": 123680,
          "time": 169.51567916666664,
          "velocity": 0.6929133858267716
        },
        {
          "duration": 0.6798170833333188,
          "durationTicks": 496,
          "midi": 77,
          "name": "F5",
          "ticks": 124524,
          "time": 170.6724646875,
          "velocity": 0.7165354330708661
        },
        {
          "duration": 0.6633698958333127,
          "durationTicks": 484,
          "midi": 66,
          "name": "F#4",
          "ticks": 124528,
          "time": 170.67794708333332,
          "velocity": 0.6929133858267716
        },
        {
          "duration": 1.7434018749999893,
          "durationTicks": 1272,
          "midi": 70,
          "name": "A#4",
          "ticks": 124532,
          "time": 170.68342947916665,
          "velocity": 0.6456692913385826
        },
        {
          "duration": 0.614028333333323,
          "durationTicks": 448,
          "midi": 73,
          "name": "C#5",
          "ticks": 124532,
          "time": 170.68342947916665,
          "velocity": 0.6456692913385826
        },
        {
          "duration": 0.9758664583333427,
          "durationTicks": 712,
          "midi": 75,
          "name": "D#5",
          "ticks": 125172,
          "time": 171.56061281249998,
          "velocity": 0.5826771653543307
        },
        {
          "duration": 0.8771833333333348,
          "durationTicks": 640,
          "midi": 68,
          "name": "G#4",
          "ticks": 125172,
          "time": 171.56061281249998,
          "velocity": 0.6141732283464567
        },
        {
          "duration": 0.8168769791666932,
          "durationTicks": 596,
          "midi": 72,
          "name": "C5",
          "ticks": 125180,
          "time": 171.57157760416663,
          "velocity": 0.6456692913385826
        },
        {
          "duration": 0.4605212499999993,
          "durationTicks": 336,
          "midi": 75,
          "name": "D#5",
          "ticks": 126048,
          "time": 172.76125749999997,
          "velocity": 0.5826771653543307
        },
        {
          "duration": 0.3947325000000035,
          "durationTicks": 288,
          "midi": 68,
          "name": "G#4",
          "ticks": 126048,
          "time": 172.76125749999997,
          "velocity": 0.6141732283464567
        },
        {
          "duration": 0.44955645833334756,
          "durationTicks": 328,
          "midi": 72,
          "name": "C5",
          "ticks": 126048,
          "time": 172.76125749999997,
          "velocity": 0.6929133858267716
        },
        {
          "duration": 1.047137604166636,
          "durationTicks": 764,
          "midi": 77,
          "name": "F5",
          "ticks": 126460,
          "time": 173.32594427083333,
          "velocity": 0.7165354330708661
        },
        {
          "duration": 1.0032784375000006,
          "durationTicks": 732,
          "midi": 68,
          "name": "G#4",
          "ticks": 126464,
          "time": 173.33142666666663,
          "velocity": 0.6141732283464567
        },
        {
          "duration": 0.9977960416667031,
          "durationTicks": 728,
          "midi": 73,
          "name": "C#5",
          "ticks": 126464,
          "time": 173.33142666666663,
          "velocity": 0.6141732283464567
        },
        {
          "duration": 0.6195107291666488,
          "durationTicks": 452,
          "midi": 77,
          "name": "F5",
          "ticks": 127528,
          "time": 174.78974395833333,
          "velocity": 0.6929133858267716
        },
        {
          "duration": 0.6030635416666428,
          "durationTicks": 440,
          "midi": 73,
          "name": "C#5",
          "ticks": 127528,
          "time": 174.78974395833333,
          "velocity": 0.5748031496062992
        },
        {
          "duration": 0.6030635416666428,
          "durationTicks": 440,
          "midi": 66,
          "name": "F#4",
          "ticks": 127528,
          "time": 174.78974395833333,
          "velocity": 0.5748031496062992
        },
        {
          "duration": 0.6140283333332945,
          "durationTicks": 448,
          "midi": 70,
          "name": "A#4",
          "ticks": 127540,
          "time": 174.80619114583334,
          "velocity": 0.6299212598425197
        },
        {
          "duration": 0.9813488541666402,
          "durationTicks": 716,
          "midi": 75,
          "name": "D#5",
          "ticks": 128172,
          "time": 175.6724096875,
          "velocity": 0.6141732283464567
        },
        {
          "duration": 0.9868312499999945,
          "durationTicks": 720,
          "midi": 68,
          "name": "G#4",
          "ticks": 128180,
          "time": 175.68337447916664,
          "velocity": 0.5748031496062992
        },
        {
          "duration": 0.9649016666666625,
          "durationTicks": 704,
          "midi": 72,
          "name": "C5",
          "ticks": 128184,
          "time": 175.68885687499997,
          "velocity": 0.6456692913385826
        },
        {
          "duration": 0.9100777083333185,
          "durationTicks": 664,
          "midi": 70,
          "name": "A#4",
          "ticks": 128188,
          "time": 175.69433927083332,
          "velocity": 0.6456692913385826
        },
        {
          "duration": 0.7127114583333309,
          "durationTicks": 520,
          "midi": 68,
          "name": "G#4",
          "ticks": 129124,
          "time": 176.97721989583331,
          "velocity": 0.6141732283464567
        },
        {
          "duration": 0.7346410416666629,
          "durationTicks": 536,
          "midi": 65,
          "name": "F4",
          "ticks": 129124,
          "time": 176.97721989583331,
          "velocity": 0.6141732283464567
        },
        {
          "duration": 0.7236762500000111,
          "durationTicks": 528,
          "midi": 75,
          "name": "D#5",
          "ticks": 129124,
          "time": 176.97721989583331,
          "velocity": 0.6299212598425197
        },
        {
          "duration": 0.7017466666666792,
          "durationTicks": 512,
          "midi": 72,
          "name": "C5",
          "ticks": 129128,
          "time": 176.98270229166664,
          "velocity": 0.6929133858267716
        },
        {
          "duration": 0.9320072916666788,
          "durationTicks": 680,
          "midi": 73,
          "name": "C#5",
          "ticks": 129788,
          "time": 177.88729760416663,
          "velocity": 0.6929133858267716
        },
        {
          "duration": 0.8881481249999865,
          "durationTicks": 648,
          "midi": 68,
          "name": "G#4",
          "ticks": 129792,
          "time": 177.89278,
          "velocity": 0.6141732283464567
        },
        {
          "duration": 0.827841770833345,
          "durationTicks": 604,
          "midi": 65,
          "name": "F4",
          "ticks": 129800,
          "time": 177.90374479166664,
          "velocity": 0.6692913385826772
        },
        {
          "duration": 0.9100777083333185,
          "durationTicks": 664,
          "midi": 70,
          "name": "A#4",
          "ticks": 129804,
          "time": 177.9092271875,
          "velocity": 0.6299212598425197
        },
        {
          "duration": 0.6524051041666326,
          "durationTicks": 476,
          "midi": 77,
          "name": "F5",
          "ticks": 130684,
          "time": 179.11535427083334,
          "velocity": 0.7480314960629921
        },
        {
          "duration": 0.6030635416666428,
          "durationTicks": 440,
          "midi": 73,
          "name": "C#5",
          "ticks": 130684,
          "time": 179.11535427083334,
          "velocity": 0.5826771653543307
        },
        {
          "duration": 0.6195107291666488,
          "durationTicks": 452,
          "midi": 66,
          "name": "F#4",
          "ticks": 130684,
          "time": 179.11535427083334,
          "velocity": 0.6299212598425197
        },
        {
          "duration": 0.7401234375000172,
          "durationTicks": 540,
          "midi": 70,
          "name": "A#4",
          "ticks": 130688,
          "time": 179.12083666666663,
          "velocity": 0.6299212598425197
        },
        {
          "duration": 0.9594192708333367,
          "durationTicks": 700,
          "midi": 75,
          "name": "D#5",
          "ticks": 131316,
          "time": 179.9815728125,
          "velocity": 0.6299212598425197
        },
        {
          "duration": 0.904595312500021,
          "durationTicks": 660,
          "midi": 68,
          "name": "G#4",
          "ticks": 131320,
          "time": 179.98705520833332,
          "velocity": 0.6141732283464567
        },
        {
          "duration": 0.8113945833333673,
          "durationTicks": 592,
          "midi": 72,
          "name": "C5",
          "ticks": 131328,
          "time": 179.99801999999997,
          "velocity": 0.6456692913385826
        },
        {
          "duration": 0.8223593750000191,
          "durationTicks": 600,
          "midi": 70,
          "name": "A#4",
          "ticks": 131328,
          "time": 179.99801999999997,
          "velocity": 0.5748031496062992
        },
        {
          "duration": 0.4824508333333597,
          "durationTicks": 352,
          "midi": 68,
          "name": "G#4",
          "ticks": 132188,
          "time": 181.17673510416662,
          "velocity": 0.6141732283464567
        },
        {
          "duration": 0.5098628124999891,
          "durationTicks": 372,
          "midi": 72,
          "name": "C5",
          "ticks": 132192,
          "time": 181.18221749999998,
          "velocity": 0.6929133858267716
        },
        {
          "duration": 0.553721979166653,
          "durationTicks": 404,
          "midi": 75,
          "name": "D#5",
          "ticks": 132192,
          "time": 181.18221749999998,
          "velocity": 0.6456692913385826
        },
        {
          "duration": 0.9813488541666402,
          "durationTicks": 716,
          "midi": 68,
          "name": "G#4",
          "ticks": 132652,
          "time": 181.81269302083334,
          "velocity": 0.5826771653543307
        },
        {
          "duration": 0.9429720833333022,
          "durationTicks": 688,
          "midi": 77,
          "name": "F5",
          "ticks": 132652,
          "time": 181.81269302083334,
          "velocity": 0.7165354330708661
        },
        {
          "duration": 0.9210424999999987,
          "durationTicks": 672,
          "midi": 73,
          "name": "C#5",
          "ticks": 132652,
          "time": 181.81269302083334,
          "velocity": 0.6456692913385826
        },
        {
          "duration": 0.6743346874999929,
          "durationTicks": 492,
          "midi": 77,
          "name": "F5",
          "ticks": 133776,
          "time": 183.35324624999998,
          "velocity": 0.6929133858267716
        },
        {
          "duration": 0.6743346874999929,
          "durationTicks": 492,
          "midi": 73,
          "name": "C#5",
          "ticks": 133776,
          "time": 183.35324624999998,
          "velocity": 0.6141732283464567
        },
        {
          "duration": 0.6688522916666955,
          "durationTicks": 488,
          "midi": 66,
          "name": "F#4",
          "ticks": 133784,
          "time": 183.36421104166664,
          "velocity": 0.6141732283464567
        },
        {
          "duration": 1.7708138541666756,
          "durationTicks": 1292,
          "midi": 70,
          "name": "A#4",
          "ticks": 133784,
          "time": 183.36421104166664,
          "velocity": 0.6456692913385826
        },
        {
          "duration": 0.9374896875000047,
          "durationTicks": 684,
          "midi": 75,
          "name": "D#5",
          "ticks": 134424,
          "time": 184.24139437499997,
          "velocity": 0.6141732283464567
        },
        {
          "duration": 0.9045953124999926,
          "durationTicks": 660,
          "midi": 68,
          "name": "G#4",
          "ticks": 134428,
          "time": 184.24687677083332,
          "velocity": 0.5748031496062992
        },
        {
          "duration": 0.926524895833353,
          "durationTicks": 676,
          "midi": 72,
          "name": "C5",
          "ticks": 134436,
          "time": 184.25784156249998,
          "velocity": 0.6456692913385826
        },
        {
          "duration": 0.7730178125000009,
          "durationTicks": 564,
          "midi": 75,
          "name": "D#5",
          "ticks": 135284,
          "time": 185.42010947916663,
          "velocity": 0.6299212598425197
        },
        {
          "duration": 0.789465000000007,
          "durationTicks": 576,
          "midi": 65,
          "name": "F4",
          "ticks": 135288,
          "time": 185.42559187499998,
          "velocity": 0.6456692913385826
        },
        {
          "duration": 0.7839826041666527,
          "durationTicks": 572,
          "midi": 68,
          "name": "G#4",
          "ticks": 135288,
          "time": 185.42559187499998,
          "velocity": 0.6299212598425197
        },
        {
          "duration": 0.6962642708332965,
          "durationTicks": 508,
          "midi": 72,
          "name": "C5",
          "ticks": 135292,
          "time": 185.43107427083334,
          "velocity": 0.6929133858267716
        },
        {
          "duration": 0.8771833333333632,
          "durationTicks": 640,
          "midi": 68,
          "name": "G#4",
          "ticks": 135956,
          "time": 186.34115197916663,
          "velocity": 0.49606299212598426
        },
        {
          "duration": 0.8826657291666606,
          "durationTicks": 644,
          "midi": 73,
          "name": "C#5",
          "ticks": 135960,
          "time": 186.34663437499998,
          "velocity": 0.6456692913385826
        },
        {
          "duration": 0.7894649999999785,
          "durationTicks": 576,
          "midi": 65,
          "name": "F4",
          "ticks": 135964,
          "time": 186.35211677083333,
          "velocity": 0.7480314960629921
        },
        {
          "duration": 0.8717009375000089,
          "durationTicks": 636,
          "midi": 70,
          "name": "A#4",
          "ticks": 135968,
          "time": 186.35759916666663,
          "velocity": 0.6929133858267716
        },
        {
          "duration": 0.6798170833333472,
          "durationTicks": 496,
          "midi": 77,
          "name": "F5",
          "ticks": 136812,
          "time": 187.51438468749998,
          "velocity": 0.7165354330708661
        },
        {
          "duration": 0.6633698958333412,
          "durationTicks": 484,
          "midi": 66,
          "name": "F#4",
          "ticks": 136816,
          "time": 187.5198670833333,
          "velocity": 0.6929133858267716
        },
        {
          "duration": 1.7434018749999893,
          "durationTicks": 1272,
          "midi": 70,
          "name": "A#4",
          "ticks": 136820,
          "time": 187.52534947916664,
          "velocity": 0.6456692913385826
        },
        {
          "duration": 0.6140283333333514,
          "durationTicks": 448,
          "midi": 73,
          "name": "C#5",
          "ticks": 136820,
          "time": 187.52534947916664,
          "velocity": 0.6456692913385826
        },
        {
          "duration": 0.9758664583333427,
          "durationTicks": 712,
          "midi": 75,
          "name": "D#5",
          "ticks": 137460,
          "time": 188.40253281249997,
          "velocity": 0.5826771653543307
        },
        {
          "duration": 0.8771833333333632,
          "durationTicks": 640,
          "midi": 68,
          "name": "G#4",
          "ticks": 137460,
          "time": 188.40253281249997,
          "velocity": 0.6141732283464567
        },
        {
          "duration": 0.8168769791666648,
          "durationTicks": 596,
          "midi": 72,
          "name": "C5",
          "ticks": 137468,
          "time": 188.41349760416665,
          "velocity": 0.6456692913385826
        },
        {
          "duration": 0.4605212499999993,
          "durationTicks": 336,
          "midi": 75,
          "name": "D#5",
          "ticks": 138336,
          "time": 189.6031775,
          "velocity": 0.5826771653543307
        },
        {
          "duration": 0.3947325000000035,
          "durationTicks": 288,
          "midi": 68,
          "name": "G#4",
          "ticks": 138336,
          "time": 189.6031775,
          "velocity": 0.6141732283464567
        },
        {
          "duration": 0.44955645833334756,
          "durationTicks": 328,
          "midi": 72,
          "name": "C5",
          "ticks": 138336,
          "time": 189.6031775,
          "velocity": 0.6929133858267716
        },
        {
          "duration": 1.0471376041666645,
          "durationTicks": 764,
          "midi": 77,
          "name": "F5",
          "ticks": 138748,
          "time": 190.16786427083332,
          "velocity": 0.7165354330708661
        },
        {
          "duration": 1.0032784375000006,
          "durationTicks": 732,
          "midi": 68,
          "name": "G#4",
          "ticks": 138752,
          "time": 190.17334666666665,
          "velocity": 0.6141732283464567
        },
        {
          "duration": 0.9977960416666747,
          "durationTicks": 728,
          "midi": 73,
          "name": "C#5",
          "ticks": 138752,
          "time": 190.17334666666665,
          "velocity": 0.6141732283464567
        },
        {
          "duration": 0.6195107291666488,
          "durationTicks": 452,
          "midi": 77,
          "name": "F5",
          "ticks": 139816,
          "time": 191.63166395833332,
          "velocity": 0.6929133858267716
        },
        {
          "duration": 0.6030635416666712,
          "durationTicks": 440,
          "midi": 73,
          "name": "C#5",
          "ticks": 139816,
          "time": 191.63166395833332,
          "velocity": 0.5748031496062992
        },
        {
          "duration": 0.6030635416666712,
          "durationTicks": 440,
          "midi": 66,
          "name": "F#4",
          "ticks": 139816,
          "time": 191.63166395833332,
          "velocity": 0.5748031496062992
        },
        {
          "duration": 0.614028333333323,
          "durationTicks": 448,
          "midi": 70,
          "name": "A#4",
          "ticks": 139828,
          "time": 191.64811114583333,
          "velocity": 0.6299212598425197
        },
        {
          "duration": 0.9813488541666686,
          "durationTicks": 716,
          "midi": 75,
          "name": "D#5",
          "ticks": 140460,
          "time": 192.51432968749998,
          "velocity": 0.6141732283464567
        },
        {
          "duration": 0.9868312499999945,
          "durationTicks": 720,
          "midi": 68,
          "name": "G#4",
          "ticks": 140468,
          "time": 192.52529447916663,
          "velocity": 0.5748031496062992
        },
        {
          "duration": 0.9649016666666625,
          "durationTicks": 704,
          "midi": 72,
          "name": "C5",
          "ticks": 140472,
          "time": 192.530776875,
          "velocity": 0.6456692913385826
        },
        {
          "duration": 0.9100777083333185,
          "durationTicks": 664,
          "midi": 70,
          "name": "A#4",
          "ticks": 140476,
          "time": 192.5362592708333,
          "velocity": 0.6456692913385826
        },
        {
          "duration": 0.7127114583333025,
          "durationTicks": 520,
          "midi": 68,
          "name": "G#4",
          "ticks": 141412,
          "time": 193.81913989583333,
          "velocity": 0.6141732283464567
        },
        {
          "duration": 0.7346410416666345,
          "durationTicks": 536,
          "midi": 65,
          "name": "F4",
          "ticks": 141412,
          "time": 193.81913989583333,
          "velocity": 0.6141732283464567
        },
        {
          "duration": 0.7236762499999827,
          "durationTicks": 528,
          "midi": 75,
          "name": "D#5",
          "ticks": 141412,
          "time": 193.81913989583333,
          "velocity": 0.6299212598425197
        },
        {
          "duration": 0.7017466666667076,
          "durationTicks": 512,
          "midi": 72,
          "name": "C5",
          "ticks": 141416,
          "time": 193.82462229166663,
          "velocity": 0.6929133858267716
        },
        {
          "duration": 0.9320072916666788,
          "durationTicks": 680,
          "midi": 73,
          "name": "C#5",
          "ticks": 142076,
          "time": 194.72921760416665,
          "velocity": 0.6929133858267716
        },
        {
          "duration": 0.8881481250000149,
          "durationTicks": 648,
          "midi": 68,
          "name": "G#4",
          "ticks": 142080,
          "time": 194.73469999999998,
          "velocity": 0.6141732283464567
        },
        {
          "duration": 0.827841770833345,
          "durationTicks": 604,
          "midi": 65,
          "name": "F4",
          "ticks": 142088,
          "time": 194.74566479166663,
          "velocity": 0.6692913385826772
        },
        {
          "duration": 0.9100777083333469,
          "durationTicks": 664,
          "midi": 70,
          "name": "A#4",
          "ticks": 142092,
          "time": 194.75114718749998,
          "velocity": 0.6299212598425197
        },
        {
          "duration": 0.652405104166661,
          "durationTicks": 476,
          "midi": 77,
          "name": "F5",
          "ticks": 142972,
          "time": 195.95727427083332,
          "velocity": 0.7480314960629921
        },
        {
          "duration": 0.6030635416666428,
          "durationTicks": 440,
          "midi": 73,
          "name": "C#5",
          "ticks": 142972,
          "time": 195.95727427083332,
          "velocity": 0.5826771653543307
        },
        {
          "duration": 0.6195107291666488,
          "durationTicks": 452,
          "midi": 66,
          "name": "F#4",
          "ticks": 142972,
          "time": 195.95727427083332,
          "velocity": 0.6299212598425197
        },
        {
          "duration": 0.7401234374999888,
          "durationTicks": 540,
          "midi": 70,
          "name": "A#4",
          "ticks": 142976,
          "time": 195.96275666666665,
          "velocity": 0.6299212598425197
        },
        {
          "duration": 0.9594192708333367,
          "durationTicks": 700,
          "midi": 75,
          "name": "D#5",
          "ticks": 143604,
          "time": 196.82349281249998,
          "velocity": 0.6299212598425197
        },
        {
          "duration": 0.9045953124999926,
          "durationTicks": 660,
          "midi": 68,
          "name": "G#4",
          "ticks": 143608,
          "time": 196.82897520833333,
          "velocity": 0.6141732283464567
        },
        {
          "duration": 0.8113945833333389,
          "durationTicks": 592,
          "midi": 72,
          "name": "C5",
          "ticks": 143616,
          "time": 196.83993999999998,
          "velocity": 0.6456692913385826
        },
        {
          "duration": 0.8223593749999907,
          "durationTicks": 600,
          "midi": 70,
          "name": "A#4",
          "ticks": 143616,
          "time": 196.83993999999998,
          "velocity": 0.5748031496062992
        },
        {
          "duration": 0.4824508333333313,
          "durationTicks": 352,
          "midi": 68,
          "name": "G#4",
          "ticks": 144476,
          "time": 198.01865510416664,
          "velocity": 0.6141732283464567
        },
        {
          "duration": 0.5098628125000175,
          "durationTicks": 372,
          "midi": 72,
          "name": "C5",
          "ticks": 144480,
          "time": 198.02413749999997,
          "velocity": 0.6929133858267716
        },
        {
          "duration": 0.5537219791666814,
          "durationTicks": 404,
          "midi": 75,
          "name": "D#5",
          "ticks": 144480,
          "time": 198.02413749999997,
          "velocity": 0.6456692913385826
        },
        {
          "duration": 0.9813488541666686,
          "durationTicks": 716,
          "midi": 68,
          "name": "G#4",
          "ticks": 144940,
          "time": 198.65461302083332,
          "velocity": 0.5826771653543307
        },
        {
          "duration": 0.9429720833333022,
          "durationTicks": 688,
          "midi": 77,
          "name": "F5",
          "ticks": 144940,
          "time": 198.65461302083332,
          "velocity": 0.7165354330708661
        },
        {
          "duration": 0.9210424999999987,
          "durationTicks": 672,
          "midi": 73,
          "name": "C#5",
          "ticks": 144940,
          "time": 198.65461302083332,
          "velocity": 0.6456692913385826
        },
        {
          "duration": 0.6743346875000213,
          "durationTicks": 492,
          "midi": 77,
          "name": "F5",
          "ticks": 146064,
          "time": 200.19516624999997,
          "velocity": 0.6929133858267716
        },
        {
          "duration": 0.6743346875000213,
          "durationTicks": 492,
          "midi": 73,
          "name": "C#5",
          "ticks": 146064,
          "time": 200.19516624999997,
          "velocity": 0.6141732283464567
        },
        {
          "duration": 0.6688522916666955,
          "durationTicks": 488,
          "midi": 66,
          "name": "F#4",
          "ticks": 146072,
          "time": 200.20613104166662,
          "velocity": 0.6141732283464567
        },
        {
          "duration": 1.770813854166704,
          "durationTicks": 1292,
          "midi": 70,
          "name": "A#4",
          "ticks": 146072,
          "time": 200.20613104166662,
          "velocity": 0.6456692913385826
        },
        {
          "duration": 0.9374896875000047,
          "durationTicks": 684,
          "midi": 75,
          "name": "D#5",
          "ticks": 146712,
          "time": 201.083314375,
          "velocity": 0.5748031496062992
        },
        {
          "duration": 0.904595312500021,
          "durationTicks": 660,
          "midi": 68,
          "name": "G#4",
          "ticks": 146716,
          "time": 201.0887967708333,
          "velocity": 0.5354330708661418
        },
        {
          "duration": 0.9265248958333245,
          "durationTicks": 676,
          "midi": 72,
          "name": "C5",
          "ticks": 146724,
          "time": 201.0997615625,
          "velocity": 0.6062992125984252
        },
        {
          "duration": 0.7730178125000009,
          "durationTicks": 564,
          "midi": 75,
          "name": "D#5",
          "ticks": 147572,
          "time": 202.26202947916664,
          "velocity": 0.5354330708661418
        },
        {
          "duration": 0.789465000000007,
          "durationTicks": 576,
          "midi": 65,
          "name": "F4",
          "ticks": 147576,
          "time": 202.26751187499997,
          "velocity": 0.5511811023622047
        },
        {
          "duration": 0.7839826041666811,
          "durationTicks": 572,
          "midi": 68,
          "name": "G#4",
          "ticks": 147576,
          "time": 202.26751187499997,
          "velocity": 0.5354330708661418
        },
        {
          "duration": 0.6962642708333249,
          "durationTicks": 508,
          "midi": 72,
          "name": "C5",
          "ticks": 147580,
          "time": 202.27299427083332,
          "velocity": 0.5905511811023622
        },
        {
          "duration": 0.8771833333333348,
          "durationTicks": 640,
          "midi": 68,
          "name": "G#4",
          "ticks": 148244,
          "time": 203.18307197916664,
          "velocity": 0.3937007874015748
        },
        {
          "duration": 0.8826657291666606,
          "durationTicks": 644,
          "midi": 73,
          "name": "C#5",
          "ticks": 148248,
          "time": 203.18855437499997,
          "velocity": 0.5118110236220472
        },
        {
          "duration": 0.789465000000007,
          "durationTicks": 576,
          "midi": 65,
          "name": "F4",
          "ticks": 148252,
          "time": 203.19403677083332,
          "velocity": 0.5984251968503937
        },
        {
          "duration": 0.8717009374999805,
          "durationTicks": 636,
          "midi": 70,
          "name": "A#4",
          "ticks": 148256,
          "time": 203.19951916666665,
          "velocity": 0.5511811023622047
        },
        {
          "duration": 0.6798170833333472,
          "durationTicks": 496,
          "midi": 77,
          "name": "F5",
          "ticks": 149100,
          "time": 204.35630468749997,
          "velocity": 0.5118110236220472
        },
        {
          "duration": 0.6633698958333127,
          "durationTicks": 484,
          "midi": 66,
          "name": "F#4",
          "ticks": 149104,
          "time": 204.36178708333333,
          "velocity": 0.49606299212598426
        },
        {
          "duration": 1.7434018750000178,
          "durationTicks": 1272,
          "midi": 70,
          "name": "A#4",
          "ticks": 149108,
          "time": 204.36726947916662,
          "velocity": 0.4645669291338583
        },
        {
          "duration": 0.6140283333333514,
          "durationTicks": 448,
          "midi": 73,
          "name": "C#5",
          "ticks": 149108,
          "time": 204.36726947916662,
          "velocity": 0.4645669291338583
        },
        {
          "duration": 0.9758664583333427,
          "durationTicks": 712,
          "midi": 75,
          "name": "D#5",
          "ticks": 149748,
          "time": 205.2444528125,
          "velocity": 0.3779527559055118
        },
        {
          "duration": 0.8771833333333348,
          "durationTicks": 640,
          "midi": 68,
          "name": "G#4",
          "ticks": 149748,
          "time": 205.2444528125,
          "velocity": 0.4015748031496063
        },
        {
          "duration": 0.8168769791666932,
          "durationTicks": 596,
          "midi": 72,
          "name": "C5",
          "ticks": 149756,
          "time": 205.25541760416664,
          "velocity": 0.4251968503937008
        },
        {
          "duration": 0.4605212499999993,
          "durationTicks": 336,
          "midi": 75,
          "name": "D#5",
          "ticks": 150624,
          "time": 206.44509749999997,
          "velocity": 0.33070866141732286
        },
        {
          "duration": 0.3947325000000035,
          "durationTicks": 288,
          "midi": 68,
          "name": "G#4",
          "ticks": 150624,
          "time": 206.44509749999997,
          "velocity": 0.3543307086614173
        },
        {
          "duration": 0.44955645833334756,
          "durationTicks": 328,
          "midi": 72,
          "name": "C5",
          "ticks": 150624,
          "time": 206.44509749999997,
          "velocity": 0.4015748031496063
        },
        {
          "duration": 1.0471376041666645,
          "durationTicks": 764,
          "midi": 77,
          "name": "F5",
          "ticks": 151036,
          "time": 207.0097842708333,
          "velocity": 0.3858267716535433
        },
        {
          "duration": 1.0032784375000006,
          "durationTicks": 732,
          "midi": 68,
          "name": "G#4",
          "ticks": 151040,
          "time": 207.01526666666663,
          "velocity": 0.33070866141732286
        },
        {
          "duration": 0.9977960416666747,
          "durationTicks": 728,
          "midi": 73,
          "name": "C#5",
          "ticks": 151040,
          "time": 207.01526666666663,
          "velocity": 0.33070866141732286
        },
        {
          "duration": 0.6195107291666773,
          "durationTicks": 452,
          "midi": 77,
          "name": "F5",
          "ticks": 152104,
          "time": 208.4735839583333,
          "velocity": 0.2992125984251969
        },
        {
          "duration": 0.6030635416666712,
          "durationTicks": 440,
          "midi": 73,
          "name": "C#5",
          "ticks": 152104,
          "time": 208.4735839583333,
          "velocity": 0.25196850393700787
        },
        {
          "duration": 0.6030635416666712,
          "durationTicks": 440,
          "midi": 66,
          "name": "F#4",
          "ticks": 152104,
          "time": 208.4735839583333,
          "velocity": 0.25196850393700787
        },
        {
          "duration": 0.614028333333323,
          "durationTicks": 448,
          "midi": 70,
          "name": "A#4",
          "ticks": 152116,
          "time": 208.4900311458333,
          "velocity": 0.2755905511811024
        },
        {
          "duration": 0.9813488541666686,
          "durationTicks": 716,
          "midi": 75,
          "name": "D#5",
          "ticks": 152748,
          "time": 209.35624968749997,
          "velocity": 0.2283464566929134
        },
        {
          "duration": 0.9868312499999945,
          "durationTicks": 720,
          "midi": 68,
          "name": "G#4",
          "ticks": 152756,
          "time": 209.36721447916665,
          "velocity": 0.2125984251968504
        },
        {
          "duration": 0.9649016666666625,
          "durationTicks": 704,
          "midi": 72,
          "name": "C5",
          "ticks": 152760,
          "time": 209.37269687499997,
          "velocity": 0.2440944881889764
        },
        {
          "duration": 0.9100777083333185,
          "durationTicks": 664,
          "midi": 70,
          "name": "A#4",
          "ticks": 152764,
          "time": 209.37817927083333,
          "velocity": 0.2440944881889764
        },
        {
          "duration": 0.7127114583333025,
          "durationTicks": 520,
          "midi": 68,
          "name": "G#4",
          "ticks": 153700,
          "time": 210.66105989583332,
          "velocity": 0.1732283464566929
        },
        {
          "duration": 0.7346410416666629,
          "durationTicks": 536,
          "midi": 65,
          "name": "F4",
          "ticks": 153700,
          "time": 210.66105989583332,
          "velocity": 0.1732283464566929
        },
        {
          "duration": 0.7236762500000111,
          "durationTicks": 528,
          "midi": 75,
          "name": "D#5",
          "ticks": 153700,
          "time": 210.66105989583332,
          "velocity": 0.18110236220472442
        },
        {
          "duration": 0.7017466666666792,
          "durationTicks": 512,
          "midi": 72,
          "name": "C5",
          "ticks": 153704,
          "time": 210.66654229166664,
          "velocity": 0.1968503937007874
        },
        {
          "duration": 0.9320072916666788,
          "durationTicks": 680,
          "midi": 73,
          "name": "C#5",
          "ticks": 154364,
          "time": 211.57113760416664,
          "velocity": 0.15748031496062992
        },
        {
          "duration": 0.8881481249999865,
          "durationTicks": 648,
          "midi": 68,
          "name": "G#4",
          "ticks": 154368,
          "time": 211.57662,
          "velocity": 0.13385826771653545
        },
        {
          "duration": 0.827841770833345,
          "durationTicks": 604,
          "midi": 65,
          "name": "F4",
          "ticks": 154376,
          "time": 211.58758479166664,
          "velocity": 0.14960629921259844
        },
        {
          "duration": 0.9100777083333469,
          "durationTicks": 664,
          "midi": 70,
          "name": "A#4",
          "ticks": 154380,
          "time": 211.59306718749997,
          "velocity": 0.14173228346456693
        },
        {
          "duration": 0.652405104166661,
          "durationTicks": 476,
          "midi": 77,
          "name": "F5",
          "ticks": 155260,
          "time": 212.7991942708333,
          "velocity": 0.11023622047244094
        },
        {
          "duration": 0.6030635416666712,
          "durationTicks": 440,
          "midi": 73,
          "name": "C#5",
          "ticks": 155260,
          "time": 212.7991942708333,
          "velocity": 0.08661417322834646
        },
        {
          "duration": 0.6195107291666773,
          "durationTicks": 452,
          "midi": 66,
          "name": "F#4",
          "ticks": 155260,
          "time": 212.7991942708333,
          "velocity": 0.09448818897637795
        },
        {
          "duration": 0.7401234374999888,
          "durationTicks": 540,
          "midi": 70,
          "name": "A#4",
          "ticks": 155264,
          "time": 212.80467666666664,
          "velocity": 0.09448818897637795
        },
        {
          "duration": 0.9594192708333651,
          "durationTicks": 700,
          "midi": 75,
          "name": "D#5",
          "ticks": 155892,
          "time": 213.66541281249997,
          "velocity": 0.05511811023622047
        },
        {
          "duration": 0.9045953124999926,
          "durationTicks": 660,
          "midi": 68,
          "name": "G#4",
          "ticks": 155896,
          "time": 213.67089520833332,
          "velocity": 0.05511811023622047
        },
        {
          "duration": 0.8113945833333389,
          "durationTicks": 592,
          "midi": 72,
          "name": "C5",
          "ticks": 155904,
          "time": 213.68185999999997,
          "velocity": 0.05511811023622047
        },
        {
          "duration": 0.8223593750000191,
          "durationTicks": 600,
          "midi": 70,
          "name": "A#4",
          "ticks": 155904,
          "time": 213.68185999999997,
          "velocity": 0.047244094488188976
        }
      ],
      "endOfTrackTicks": 158208
    },
    {
      "channel": 14,
      "controlChanges": {
        "1": [
          {
            "number": 1,
            "ticks": 91588,
            "time": 125.53041739583331,
            "value": 0
          }
        ],
        "7": [
          {
            "number": 7,
            "ticks": 2212,
            "time": 3.031764895833333,
            "value": 0.6850393700787402
          }
        ],
        "10": [
          {
            "number": 10,
            "ticks": 2212,
            "time": 3.031764895833333,
            "value": 0.18110236220472442
          }
        ],
        "11": [
          {
            "number": 11,
            "ticks": 2212,
            "time": 3.031764895833333,
            "value": 1
          }
        ],
        "91": [
          {
            "number": 91,
            "ticks": 2216,
            "time": 3.037247291666666,
            "value": 0.6299212598425197
          }
        ],
        "93": [
          {
            "number": 93,
            "ticks": 2216,
            "time": 3.037247291666666,
            "value": 0
          }
        ]
      },
      "pitchBends": [
        {
          "ticks": 91588,
          "time": 125.53041739583331,
          "value": 0
        }
      ],
      "instrument": {
        "family": "guitar",
        "number": 28,
        "name": "electric guitar (muted)"
      },
      "name": "MUTED GTR",
      "notes": [
        {
          "duration": 0.04934156250000399,
          "durationTicks": 36,
          "midi": 41,
          "name": "F2",
          "ticks": 91584,
          "time": 125.52493499999999,
          "velocity": 0.7401574803149606
        },
        {
          "duration": 0.06578874999999584,
          "durationTicks": 48,
          "midi": 41,
          "name": "F2",
          "ticks": 91676,
          "time": 125.65103010416667,
          "velocity": 0.7401574803149606
        },
        {
          "duration": 0.09320072916665367,
          "durationTicks": 68,
          "midi": 41,
          "name": "F2",
          "ticks": 91772,
          "time": 125.78260760416666,
          "velocity": 0.5590551181102362
        },
        {
          "duration": 0.10964791666664553,
          "durationTicks": 80,
          "midi": 46,
          "name": "A#2",
          "ticks": 91868,
          "time": 125.91418510416666,
          "velocity": 0.84251968503937
        },
        {
          "duration": 0.10964791666667395,
          "durationTicks": 80,
          "midi": 46,
          "name": "A#2",
          "ticks": 92080,
          "time": 126.20475208333332,
          "velocity": 0.8031496062992126
        },
        {
          "duration": 0.06578875000001005,
          "durationTicks": 48,
          "midi": 46,
          "name": "A#2",
          "ticks": 93116,
          "time": 127.62469260416665,
          "velocity": 0.7244094488188977
        },
        {
          "duration": 0.05482395833334408,
          "durationTicks": 40,
          "midi": 46,
          "name": "A#2",
          "ticks": 93220,
          "time": 127.76723489583331,
          "velocity": 0.7244094488188977
        },
        {
          "duration": 0.09320072916666788,
          "durationTicks": 68,
          "midi": 46,
          "name": "A#2",
          "ticks": 93308,
          "time": 127.88784760416665,
          "velocity": 0.5748031496062992
        },
        {
          "duration": 0.10964791666668816,
          "durationTicks": 80,
          "midi": 51,
          "name": "D#3",
          "ticks": 93412,
          "time": 128.0303898958333,
          "velocity": 0.8188976377952756
        },
        {
          "duration": 0.0932007291666821,
          "durationTicks": 68,
          "midi": 51,
          "name": "D#3",
          "ticks": 93624,
          "time": 128.32095687499998,
          "velocity": 0.7795275590551181
        },
        {
          "duration": 0.04934156249998978,
          "durationTicks": 36,
          "midi": 41,
          "name": "F2",
          "ticks": 94656,
          "time": 129.735415,
          "velocity": 0.7401574803149606
        },
        {
          "duration": 0.06578874999999584,
          "durationTicks": 48,
          "midi": 41,
          "name": "F2",
          "ticks": 94748,
          "time": 129.86151010416665,
          "velocity": 0.7401574803149606
        },
        {
          "duration": 0.0932007291666821,
          "durationTicks": 68,
          "midi": 41,
          "name": "F2",
          "ticks": 94844,
          "time": 129.99308760416665,
          "velocity": 0.5590551181102362
        },
        {
          "duration": 0.10964791666665974,
          "durationTicks": 80,
          "midi": 46,
          "name": "A#2",
          "ticks": 94940,
          "time": 130.12466510416667,
          "velocity": 0.84251968503937
        },
        {
          "duration": 0.10964791666668816,
          "durationTicks": 80,
          "midi": 46,
          "name": "A#2",
          "ticks": 95152,
          "time": 130.4152320833333,
          "velocity": 0.8031496062992126
        },
        {
          "duration": 0.06578875000002427,
          "durationTicks": 48,
          "midi": 46,
          "name": "A#2",
          "ticks": 96188,
          "time": 131.83517260416664,
          "velocity": 0.7244094488188977
        },
        {
          "duration": 0.05482395833334408,
          "durationTicks": 40,
          "midi": 46,
          "name": "A#2",
          "ticks": 96292,
          "time": 131.97771489583332,
          "velocity": 0.7244094488188977
        },
        {
          "duration": 0.09320072916665367,
          "durationTicks": 68,
          "midi": 46,
          "name": "A#2",
          "ticks": 96380,
          "time": 132.09832760416666,
          "velocity": 0.5748031496062992
        },
        {
          "duration": 0.10964791666665974,
          "durationTicks": 80,
          "midi": 51,
          "name": "D#3",
          "ticks": 96484,
          "time": 132.24086989583333,
          "velocity": 0.8188976377952756
        },
        {
          "duration": 0.09320072916665367,
          "durationTicks": 68,
          "midi": 51,
          "name": "D#3",
          "ticks": 96696,
          "time": 132.531436875,
          "velocity": 0.7795275590551181
        },
        {
          "duration": 0.0493415625000182,
          "durationTicks": 36,
          "midi": 41,
          "name": "F2",
          "ticks": 97728,
          "time": 133.94589499999998,
          "velocity": 0.7401574803149606
        },
        {
          "duration": 0.06578875000002427,
          "durationTicks": 48,
          "midi": 41,
          "name": "F2",
          "ticks": 97820,
          "time": 134.07199010416664,
          "velocity": 0.7401574803149606
        },
        {
          "duration": 0.09320072916665367,
          "durationTicks": 68,
          "midi": 41,
          "name": "F2",
          "ticks": 97916,
          "time": 134.20356760416666,
          "velocity": 0.5590551181102362
        },
        {
          "duration": 0.10964791666665974,
          "durationTicks": 80,
          "midi": 46,
          "name": "A#2",
          "ticks": 98012,
          "time": 134.33514510416666,
          "velocity": 0.84251968503937
        },
        {
          "duration": 0.10964791666665974,
          "durationTicks": 80,
          "midi": 46,
          "name": "A#2",
          "ticks": 98224,
          "time": 134.62571208333333,
          "velocity": 0.8031496062992126
        },
        {
          "duration": 0.06578874999999584,
          "durationTicks": 48,
          "midi": 46,
          "name": "A#2",
          "ticks": 99260,
          "time": 136.04565260416663,
          "velocity": 0.7244094488188977
        },
        {
          "duration": 0.05482395833331566,
          "durationTicks": 40,
          "midi": 46,
          "name": "A#2",
          "ticks": 99364,
          "time": 136.18819489583333,
          "velocity": 0.7244094488188977
        },
        {
          "duration": 0.0932007291666821,
          "durationTicks": 68,
          "midi": 46,
          "name": "A#2",
          "ticks": 99452,
          "time": 136.30880760416665,
          "velocity": 0.5748031496062992
        },
        {
          "duration": 0.10964791666665974,
          "durationTicks": 80,
          "midi": 51,
          "name": "D#3",
          "ticks": 99556,
          "time": 136.45134989583332,
          "velocity": 0.8188976377952756
        },
        {
          "duration": 0.09320072916665367,
          "durationTicks": 68,
          "midi": 51,
          "name": "D#3",
          "ticks": 99768,
          "time": 136.741916875,
          "velocity": 0.7795275590551181
        },
        {
          "duration": 0.04934156249998978,
          "durationTicks": 36,
          "midi": 41,
          "name": "F2",
          "ticks": 100800,
          "time": 138.156375,
          "velocity": 0.7401574803149606
        },
        {
          "duration": 0.06578874999999584,
          "durationTicks": 48,
          "midi": 41,
          "name": "F2",
          "ticks": 100892,
          "time": 138.28247010416663,
          "velocity": 0.7401574803149606
        },
        {
          "duration": 0.0932007291666821,
          "durationTicks": 68,
          "midi": 41,
          "name": "F2",
          "ticks": 100988,
          "time": 138.41404760416665,
          "velocity": 0.5590551181102362
        },
        {
          "duration": 0.10964791666668816,
          "durationTicks": 80,
          "midi": 46,
          "name": "A#2",
          "ticks": 101084,
          "time": 138.54562510416665,
          "velocity": 0.84251968503937
        },
        {
          "duration": 0.10964791666665974,
          "durationTicks": 80,
          "midi": 46,
          "name": "A#2",
          "ticks": 101296,
          "time": 138.83619208333332,
          "velocity": 0.8031496062992126
        },
        {
          "duration": 0.06578874999999584,
          "durationTicks": 48,
          "midi": 46,
          "name": "A#2",
          "ticks": 102332,
          "time": 140.25613260416665,
          "velocity": 0.7244094488188977
        },
        {
          "duration": 0.05482395833331566,
          "durationTicks": 40,
          "midi": 46,
          "name": "A#2",
          "ticks": 102436,
          "time": 140.39867489583332,
          "velocity": 0.7244094488188977
        },
        {
          "duration": 0.0932007291666821,
          "durationTicks": 68,
          "midi": 46,
          "name": "A#2",
          "ticks": 102524,
          "time": 140.51928760416664,
          "velocity": 0.5748031496062992
        },
        {
          "duration": 0.10964791666665974,
          "durationTicks": 80,
          "midi": 51,
          "name": "D#3",
          "ticks": 102628,
          "time": 140.66182989583334,
          "velocity": 0.8188976377952756
        },
        {
          "duration": 0.08223593750000191,
          "durationTicks": 60,
          "midi": 56,
          "name": "G#3",
          "ticks": 115204,
          "time": 157.89848239583333,
          "velocity": 0.7559055118110236
        },
        {
          "duration": 0.10964791666663132,
          "durationTicks": 80,
          "midi": 56,
          "name": "G#3",
          "ticks": 115396,
          "time": 158.16163739583334,
          "velocity": 0.8661417322834646
        },
        {
          "duration": 0.08223593750000191,
          "durationTicks": 60,
          "midi": 56,
          "name": "G#3",
          "ticks": 115684,
          "time": 158.5563698958333,
          "velocity": 0.7874015748031497
        },
        {
          "duration": 0.09320072916665367,
          "durationTicks": 68,
          "midi": 56,
          "name": "G#3",
          "ticks": 115876,
          "time": 158.81952489583333,
          "velocity": 0.8661417322834646
        },
        {
          "duration": 0.07675354166667603,
          "durationTicks": 56,
          "midi": 56,
          "name": "G#3",
          "ticks": 116156,
          "time": 159.20329260416665,
          "velocity": 0.7874015748031497
        },
        {
          "duration": 0.08223593750000191,
          "durationTicks": 60,
          "midi": 56,
          "name": "G#3",
          "ticks": 116444,
          "time": 159.59802510416665,
          "velocity": 0.7874015748031497
        },
        {
          "duration": 0.08771833333335621,
          "durationTicks": 64,
          "midi": 56,
          "name": "G#3",
          "ticks": 116636,
          "time": 159.86118010416664,
          "velocity": 0.7874015748031497
        },
        {
          "duration": 0.08771833333335621,
          "durationTicks": 64,
          "midi": 56,
          "name": "G#3",
          "ticks": 116924,
          "time": 160.25591260416664,
          "velocity": 0.7874015748031497
        },
        {
          "duration": 0.07675354166667603,
          "durationTicks": 56,
          "midi": 56,
          "name": "G#3",
          "ticks": 117212,
          "time": 160.65064510416664,
          "velocity": 0.7874015748031497
        },
        {
          "duration": 0.09320072916665367,
          "durationTicks": 68,
          "midi": 56,
          "name": "G#3",
          "ticks": 117412,
          "time": 160.92476489583333,
          "velocity": 0.7874015748031497
        },
        {
          "duration": 0.08771833333329937,
          "durationTicks": 64,
          "midi": 56,
          "name": "G#3",
          "ticks": 117700,
          "time": 161.31949739583334,
          "velocity": 0.7874015748031497
        },
        {
          "duration": 0.08223593750000191,
          "durationTicks": 60,
          "midi": 56,
          "name": "G#3",
          "ticks": 117988,
          "time": 161.7142298958333,
          "velocity": 0.7559055118110236
        },
        {
          "duration": 0.09868312499997955,
          "durationTicks": 72,
          "midi": 56,
          "name": "G#3",
          "ticks": 118184,
          "time": 161.98286729166665,
          "velocity": 0.7874015748031497
        },
        {
          "duration": 0.08223593750000191,
          "durationTicks": 60,
          "midi": 56,
          "name": "G#3",
          "ticks": 118468,
          "time": 162.37211739583333,
          "velocity": 0.7874015748031497
        },
        {
          "duration": 0.0767535416666476,
          "durationTicks": 56,
          "midi": 56,
          "name": "G#3",
          "ticks": 118756,
          "time": 162.76684989583333,
          "velocity": 0.7874015748031497
        },
        {
          "duration": 0.0932007291666821,
          "durationTicks": 68,
          "midi": 56,
          "name": "G#3",
          "ticks": 118952,
          "time": 163.03548729166664,
          "velocity": 0.7874015748031497
        },
        {
          "duration": 0.08223593750000191,
          "durationTicks": 60,
          "midi": 56,
          "name": "G#3",
          "ticks": 119236,
          "time": 163.42473739583332,
          "velocity": 0.7559055118110236
        },
        {
          "duration": 0.07675354166667603,
          "durationTicks": 56,
          "midi": 56,
          "name": "G#3",
          "ticks": 119528,
          "time": 163.82495229166665,
          "velocity": 0.7874015748031497
        },
        {
          "duration": 0.0932007291666821,
          "durationTicks": 68,
          "midi": 56,
          "name": "G#3",
          "ticks": 119720,
          "time": 164.08810729166663,
          "velocity": 0.7322834645669292
        },
        {
          "duration": 0.08771833333329937,
          "durationTicks": 64,
          "midi": 56,
          "name": "G#3",
          "ticks": 120004,
          "time": 164.47735739583334,
          "velocity": 0.7874015748031497
        },
        {
          "duration": 0.07675354166667603,
          "durationTicks": 56,
          "midi": 56,
          "name": "G#3",
          "ticks": 120296,
          "time": 164.87757229166664,
          "velocity": 0.7874015748031497
        },
        {
          "duration": 0.0932007291666821,
          "durationTicks": 68,
          "midi": 56,
          "name": "G#3",
          "ticks": 120488,
          "time": 165.14072729166665,
          "velocity": 0.7874015748031497
        },
        {
          "duration": 0.09320072916665367,
          "durationTicks": 68,
          "midi": 56,
          "name": "G#3",
          "ticks": 120772,
          "time": 165.52997739583333,
          "velocity": 0.8661417322834646
        },
        {
          "duration": 0.07127114583332173,
          "durationTicks": 52,
          "midi": 56,
          "name": "G#3",
          "ticks": 121060,
          "time": 165.92470989583333,
          "velocity": 0.8661417322834646
        }
      ],
      "endOfTrackTicks": 158208
    },
    {
      "channel": 0,
      "controlChanges": {},
      "pitchBends": [],
      "instrument": {
        "family": "piano",
        "number": 0,
        "name": "acoustic grand piano"
      },
      "name": "GS/RESET",
      "notes": [],
      "endOfTrackTicks": 6144
    }
  ]
}
