{
  "header": {
    "keySignatures": [],
    "meta": [],
    "name": "",
    "ppq": 43,
    "tempos": [
      {
        "bpm": 120,
        "ticks": 0
      }
    ],
    "timeSignatures": []
  },
  "tracks": [
    {
      "channel": 0,
      "controlChanges": {},
      "pitchBends": [],
      "instrument": {
        "family": "piano",
        "number": 0,
        "name": "acoustic grand piano"
      },
      "name": "",
      "notes": [
        {
          "duration": 0.1511627906976744,
          "durationTicks": 13,
          "midi": 74,
          "name": "D5",
          "ticks": 0,
          "time": 0,
          "velocity": 0.5118110236220472
        },
        {
          "duration": 0.15116279069767444,
          "durationTicks": 13,
          "midi": 81,
          "name": "A5",
          "ticks": 1,
          "time": 0.011627906976744186,
          "velocity": 0.44881889763779526
        },
        {
          "duration": 0.09302325581395349,
          "durationTicks": 8,
          "midi": 83,
          "name": "B5",
          "ticks": 1,
          "time": 0.011627906976744186,
          "velocity": 0.15748031496062992
        },
        {
          "duration": 0.4534883720930233,
          "durationTicks": 39,
          "midi": 31,
          "name": "G1",
          "ticks": 2,
          "time": 0.023255813953488372,
          "velocity": 0.7086614173228346
        },
        {
          "duration": 0.03488372093023256,
          "durationTicks": 3,
          "midi": 55,
          "name": "G3",
          "ticks": 3,
          "time": 0.03488372093023256,
          "velocity": 0.25196850393700787
        },
        {
          "duration": 0.13953488372093023,
          "durationTicks": 12,
          "midi": 62,
          "name": "D4",
          "ticks": 3,
          "time": 0.03488372093023256,
          "velocity": 0.5590551181102362
        },
        {
          "duration": 0.08139534883720931,
          "durationTicks": 7,
          "midi": 90,
          "name": "F#6",
          "ticks": 4,
          "time": 0.046511627906976744,
          "velocity": 0.18110236220472442
        },
        {
          "duration": 0.0930232558139535,
          "durationTicks": 8,
          "midi": 96,
          "name": "C7",
          "ticks": 6,
          "time": 0.06976744186046512,
          "velocity": 0.25196850393700787
        },
        {
          "duration": 0.1627906976744186,
          "durationTicks": 14,
          "midi": 55,
          "name": "G3",
          "ticks": 7,
          "time": 0.08139534883720931,
          "velocity": 0.4330708661417323
        },
        {
          "duration": 0.08139534883720931,
          "durationTicks": 7,
          "midi": 69,
          "name": "A4",
          "ticks": 8,
          "time": 0.09302325581395349,
          "velocity": 0.15748031496062992
        },
        {
          "duration": 0.034883720930232565,
          "durationTicks": 3,
          "midi": 73,
          "name": "C#5",
          "ticks": 13,
          "time": 0.1511627906976744,
          "velocity": 0.3700787401574803
        },
        {
          "duration": 0.034883720930232565,
          "durationTicks": 3,
          "midi": 80,
          "name": "G#5",
          "ticks": 13,
          "time": 0.1511627906976744,
          "velocity": 0.07874015748031496
        },
        {
          "duration": 0.023255813953488358,
          "durationTicks": 2,
          "midi": 61,
          "name": "C#4",
          "ticks": 15,
          "time": 0.1744186046511628,
          "velocity": 0.5748031496062992
        },
        {
          "duration": 0.034883720930232565,
          "durationTicks": 3,
          "midi": 74,
          "name": "D5",
          "ticks": 16,
          "time": 0.18604651162790697,
          "velocity": 0.30708661417322836
        },
        {
          "duration": 0.023255813953488386,
          "durationTicks": 2,
          "midi": 62,
          "name": "D4",
          "ticks": 17,
          "time": 0.19767441860465115,
          "velocity": 0.4881889763779528
        },
        {
          "duration": 0.2558139534883721,
          "durationTicks": 22,
          "midi": 72,
          "name": "C5",
          "ticks": 17,
          "time": 0.19767441860465115,
          "velocity": 0.5984251968503937
        },
        {
          "duration": 0.034883720930232565,
          "durationTicks": 3,
          "midi": 93,
          "name": "A6",
          "ticks": 17,
          "time": 0.19767441860465115,
          "velocity": 0.16535433070866143
        },
        {
          "duration": 0.023255813953488358,
          "durationTicks": 2,
          "midi": 61,
          "name": "C#4",
          "ticks": 19,
          "time": 0.22093023255813954,
          "velocity": 0.5196850393700787
        },
        {
          "duration": 0.09302325581395349,
          "durationTicks": 8,
          "midi": 79,
          "name": "G5",
          "ticks": 19,
          "time": 0.22093023255813954,
          "velocity": 0.15748031496062992
        },
        {
          "duration": 0.12790697674418605,
          "durationTicks": 11,
          "midi": 83,
          "name": "B5",
          "ticks": 19,
          "time": 0.22093023255813954,
          "velocity": 0.14960629921259844
        },
        {
          "duration": 0.05813953488372095,
          "durationTicks": 5,
          "midi": 91,
          "name": "G6",
          "ticks": 20,
          "time": 0.23255813953488372,
          "velocity": 0.2204724409448819
        },
        {
          "duration": 0.20930232558139533,
          "durationTicks": 18,
          "midi": 60,
          "name": "C4",
          "ticks": 21,
          "time": 0.2441860465116279,
          "velocity": 0.3858267716535433
        },
        {
          "duration": 0.10465116279069764,
          "durationTicks": 9,
          "midi": 88,
          "name": "E6",
          "ticks": 22,
          "time": 0.2558139534883721,
          "velocity": 0.25984251968503935
        },
        {
          "duration": 0.034883720930232565,
          "durationTicks": 3,
          "midi": 74,
          "name": "D5",
          "ticks": 38,
          "time": 0.4418604651162791,
          "velocity": 0.5275590551181102
        },
        {
          "duration": 0.023255813953488413,
          "durationTicks": 2,
          "midi": 62,
          "name": "D4",
          "ticks": 39,
          "time": 0.45348837209302323,
          "velocity": 0.4251968503937008
        },
        {
          "duration": 0.16279069767441862,
          "durationTicks": 14,
          "midi": 81,
          "name": "A5",
          "ticks": 40,
          "time": 0.46511627906976744,
          "velocity": 0.47244094488188976
        },
        {
          "duration": 0.011627906976744151,
          "durationTicks": 1,
          "midi": 30,
          "name": "F#1",
          "ticks": 41,
          "time": 0.47674418604651164,
          "velocity": 0.6220472440944882
        },
        {
          "duration": 0.023255813953488358,
          "durationTicks": 2,
          "midi": 73,
          "name": "C#5",
          "ticks": 41,
          "time": 0.47674418604651164,
          "velocity": 0.5196850393700787
        },
        {
          "duration": 0.06976744186046513,
          "durationTicks": 6,
          "midi": 72,
          "name": "C5",
          "ticks": 43,
          "time": 0.5,
          "velocity": 0.13385826771653545
        },
        {
          "duration": 0.11627906976744184,
          "durationTicks": 10,
          "midi": 74,
          "name": "D5",
          "ticks": 43,
          "time": 0.5,
          "velocity": 0.5118110236220472
        },
        {
          "duration": 0.4418604651162791,
          "durationTicks": 38,
          "midi": 31,
          "name": "G1",
          "ticks": 46,
          "time": 0.5348837209302325,
          "velocity": 0.7244094488188977
        },
        {
          "duration": 0.2093023255813954,
          "durationTicks": 18,
          "midi": 55,
          "name": "G3",
          "ticks": 46,
          "time": 0.5348837209302325,
          "velocity": 0.4330708661417323
        },
        {
          "duration": 0.10465116279069775,
          "durationTicks": 9,
          "midi": 62,
          "name": "D4",
          "ticks": 46,
          "time": 0.5348837209302325,
          "velocity": 0.5118110236220472
        },
        {
          "duration": 0.08139534883720934,
          "durationTicks": 7,
          "midi": 90,
          "name": "F#6",
          "ticks": 47,
          "time": 0.5465116279069767,
          "velocity": 0.25196850393700787
        },
        {
          "duration": 0.023255813953488413,
          "durationTicks": 2,
          "midi": 75,
          "name": "D#5",
          "ticks": 52,
          "time": 0.6046511627906976,
          "velocity": 0.4251968503937008
        },
        {
          "duration": 0.2674418604651163,
          "durationTicks": 23,
          "midi": 82,
          "name": "A#5",
          "ticks": 54,
          "time": 0.627906976744186,
          "velocity": 0.5196850393700787
        },
        {
          "duration": 0.2674418604651163,
          "durationTicks": 23,
          "midi": 87,
          "name": "D#6",
          "ticks": 54,
          "time": 0.627906976744186,
          "velocity": 0.4409448818897638
        },
        {
          "duration": 0.2790697674418604,
          "durationTicks": 24,
          "midi": 91,
          "name": "G6",
          "ticks": 54,
          "time": 0.627906976744186,
          "velocity": 0.2755905511811024
        },
        {
          "duration": 0.2558139534883721,
          "durationTicks": 22,
          "midi": 75,
          "name": "D#5",
          "ticks": 55,
          "time": 0.6395348837209303,
          "velocity": 0.41732283464566927
        },
        {
          "duration": 0.08139534883720922,
          "durationTicks": 7,
          "midi": 62,
          "name": "D4",
          "ticks": 56,
          "time": 0.6511627906976745,
          "velocity": 0.5039370078740157
        },
        {
          "duration": 0.04651162790697683,
          "durationTicks": 4,
          "midi": 72,
          "name": "C5",
          "ticks": 57,
          "time": 0.6627906976744186,
          "velocity": 0.15748031496062992
        },
        {
          "duration": 0.18604651162790697,
          "durationTicks": 16,
          "midi": 97,
          "name": "C#7",
          "ticks": 58,
          "time": 0.6744186046511628,
          "velocity": 0.33858267716535434
        },
        {
          "duration": 0.023255813953488413,
          "durationTicks": 2,
          "midi": 53,
          "name": "F3",
          "ticks": 64,
          "time": 0.7441860465116279,
          "velocity": 0.25984251968503935
        },
        {
          "duration": 0.023255813953488413,
          "durationTicks": 2,
          "midi": 62,
          "name": "D4",
          "ticks": 64,
          "time": 0.7441860465116279,
          "velocity": 0.3700787401574803
        },
        {
          "duration": 0.2093023255813954,
          "durationTicks": 18,
          "midi": 67,
          "name": "G4",
          "ticks": 64,
          "time": 0.7441860465116279,
          "velocity": 0.23622047244094488
        },
        {
          "duration": 0.16279069767441856,
          "durationTicks": 14,
          "midi": 63,
          "name": "D#4",
          "ticks": 65,
          "time": 0.7558139534883721,
          "velocity": 0.4015748031496063
        },
        {
          "duration": 0.08139534883720922,
          "durationTicks": 7,
          "midi": 72,
          "name": "C5",
          "ticks": 66,
          "time": 0.7674418604651163,
          "velocity": 0.1889763779527559
        },
        {
          "duration": 0.05813953488372092,
          "durationTicks": 5,
          "midi": 96,
          "name": "C7",
          "ticks": 74,
          "time": 0.8604651162790697,
          "velocity": 0.36220472440944884
        },
        {
          "duration": 0.03488372093023251,
          "durationTicks": 3,
          "midi": 72,
          "name": "C5",
          "ticks": 75,
          "time": 0.872093023255814,
          "velocity": 0.11023622047244094
        },
        {
          "duration": 0.03488372093023251,
          "durationTicks": 3,
          "midi": 89,
          "name": "F6",
          "ticks": 75,
          "time": 0.872093023255814,
          "velocity": 0.1889763779527559
        },
        {
          "duration": 0.03488372093023251,
          "durationTicks": 3,
          "midi": 81,
          "name": "A5",
          "ticks": 76,
          "time": 0.8837209302325582,
          "velocity": 0.2992125984251969
        },
        {
          "duration": 0.06976744186046513,
          "durationTicks": 6,
          "midi": 86,
          "name": "D6",
          "ticks": 76,
          "time": 0.8837209302325582,
          "velocity": 0.29133858267716534
        },
        {
          "duration": 0.03488372093023251,
          "durationTicks": 3,
          "midi": 90,
          "name": "F#6",
          "ticks": 76,
          "time": 0.8837209302325582,
          "velocity": 0.2283464566929134
        },
        {
          "duration": 0.34883720930232553,
          "durationTicks": 30,
          "midi": 74,
          "name": "D5",
          "ticks": 77,
          "time": 0.8953488372093024,
          "velocity": 0.4330708661417323
        },
        {
          "duration": 0.058139534883721034,
          "durationTicks": 5,
          "midi": 82,
          "name": "A#5",
          "ticks": 78,
          "time": 0.9069767441860465,
          "velocity": 0.2047244094488189
        },
        {
          "duration": 0.06976744186046513,
          "durationTicks": 6,
          "midi": 87,
          "name": "D#6",
          "ticks": 78,
          "time": 0.9069767441860465,
          "velocity": 0.15748031496062992
        },
        {
          "duration": 0.04651162790697683,
          "durationTicks": 4,
          "midi": 62,
          "name": "D4",
          "ticks": 79,
          "time": 0.9186046511627907,
          "velocity": 0.18110236220472442
        },
        {
          "duration": 0.08139534883720934,
          "durationTicks": 7,
          "midi": 84,
          "name": "C6",
          "ticks": 79,
          "time": 0.9186046511627907,
          "velocity": 0.2204724409448819
        },
        {
          "duration": 0.08139534883720934,
          "durationTicks": 7,
          "midi": 97,
          "name": "C#7",
          "ticks": 79,
          "time": 0.9186046511627907,
          "velocity": 0.12598425196850394
        },
        {
          "duration": 0.06976744186046513,
          "durationTicks": 6,
          "midi": 83,
          "name": "B5",
          "ticks": 82,
          "time": 0.9534883720930233,
          "velocity": 0.33070866141732286
        },
        {
          "duration": 0.03488372093023251,
          "durationTicks": 3,
          "midi": 85,
          "name": "C#6",
          "ticks": 82,
          "time": 0.9534883720930233,
          "velocity": 0.1732283464566929
        },
        {
          "duration": 0.03488372093023251,
          "durationTicks": 3,
          "midi": 61,
          "name": "C#4",
          "ticks": 83,
          "time": 0.9651162790697675,
          "velocity": 0.2440944881889764
        },
        {
          "duration": 0.023255813953488302,
          "durationTicks": 2,
          "midi": 77,
          "name": "F5",
          "ticks": 83,
          "time": 0.9651162790697675,
          "velocity": 0.2283464566929134
        },
        {
          "duration": 0.023255813953488413,
          "durationTicks": 2,
          "midi": 30,
          "name": "F#1",
          "ticks": 84,
          "time": 0.9767441860465116,
          "velocity": 0.6850393700787402
        },
        {
          "duration": 0.03488372093023262,
          "durationTicks": 3,
          "midi": 70,
          "name": "A#4",
          "ticks": 84,
          "time": 0.9767441860465116,
          "velocity": 0.25984251968503935
        },
        {
          "duration": 0.03488372093023262,
          "durationTicks": 3,
          "midi": 78,
          "name": "F#5",
          "ticks": 85,
          "time": 0.9883720930232558,
          "velocity": 0.16535433070866143
        },
        {
          "duration": 0.19767441860465107,
          "durationTicks": 17,
          "midi": 62,
          "name": "D4",
          "ticks": 86,
          "time": 1,
          "velocity": 0.48031496062992124
        },
        {
          "duration": 0.13953488372093026,
          "durationTicks": 12,
          "midi": 70,
          "name": "A#4",
          "ticks": 88,
          "time": 1.0232558139534884,
          "velocity": 0.47244094488188976
        },
        {
          "duration": 0.11627906976744184,
          "durationTicks": 10,
          "midi": 77,
          "name": "F5",
          "ticks": 88,
          "time": 1.0232558139534884,
          "velocity": 0.23622047244094488
        },
        {
          "duration": 0.18604651162790686,
          "durationTicks": 16,
          "midi": 55,
          "name": "G3",
          "ticks": 89,
          "time": 1.0348837209302326,
          "velocity": 0.44881889763779526
        },
        {
          "duration": 0.43023255813953476,
          "durationTicks": 37,
          "midi": 31,
          "name": "G1",
          "ticks": 90,
          "time": 1.0465116279069768,
          "velocity": 0.7086614173228346
        },
        {
          "duration": 0.046511627906976605,
          "durationTicks": 4,
          "midi": 58,
          "name": "A#3",
          "ticks": 90,
          "time": 1.0465116279069768,
          "velocity": 0.2440944881889764
        },
        {
          "duration": 0.058139534883721034,
          "durationTicks": 5,
          "midi": 96,
          "name": "C7",
          "ticks": 92,
          "time": 1.069767441860465,
          "velocity": 0.11811023622047244
        },
        {
          "duration": 0.023255813953488413,
          "durationTicks": 2,
          "midi": 69,
          "name": "A4",
          "ticks": 100,
          "time": 1.1627906976744187,
          "velocity": 0.3700787401574803
        },
        {
          "duration": 0.02325581395348819,
          "durationTicks": 2,
          "midi": 71,
          "name": "B4",
          "ticks": 102,
          "time": 1.186046511627907,
          "velocity": 0.28346456692913385
        },
        {
          "duration": 0.023255813953488413,
          "durationTicks": 2,
          "midi": 62,
          "name": "D4",
          "ticks": 104,
          "time": 1.2093023255813953,
          "velocity": 0.4566929133858268
        },
        {
          "duration": 0.04651162790697683,
          "durationTicks": 4,
          "midi": 70,
          "name": "A#4",
          "ticks": 104,
          "time": 1.2093023255813953,
          "velocity": 0.48031496062992124
        },
        {
          "duration": 0.04651162790697683,
          "durationTicks": 4,
          "midi": 77,
          "name": "F5",
          "ticks": 104,
          "time": 1.2093023255813953,
          "velocity": 0.25196850393700787
        },
        {
          "duration": 0.11627906976744184,
          "durationTicks": 10,
          "midi": 87,
          "name": "D#6",
          "ticks": 104,
          "time": 1.2093023255813953,
          "velocity": 0.11023622047244094
        },
        {
          "duration": 0.03488372093023262,
          "durationTicks": 3,
          "midi": 58,
          "name": "A#3",
          "ticks": 105,
          "time": 1.2209302325581395,
          "velocity": 0.48031496062992124
        },
        {
          "duration": 0.06976744186046524,
          "durationTicks": 6,
          "midi": 102,
          "name": "F#7",
          "ticks": 105,
          "time": 1.2209302325581395,
          "velocity": 0.1968503937007874
        },
        {
          "duration": 0.023255813953488413,
          "durationTicks": 2,
          "midi": 53,
          "name": "F3",
          "ticks": 107,
          "time": 1.244186046511628,
          "velocity": 0.2755905511811024
        },
        {
          "duration": 0.023255813953488413,
          "durationTicks": 2,
          "midi": 69,
          "name": "A4",
          "ticks": 108,
          "time": 1.255813953488372,
          "velocity": 0.5511811023622047
        },
        {
          "duration": 0.03488372093023262,
          "durationTicks": 3,
          "midi": 82,
          "name": "A#5",
          "ticks": 108,
          "time": 1.255813953488372,
          "velocity": 0.08661417322834646
        },
        {
          "duration": 0.03488372093023262,
          "durationTicks": 3,
          "midi": 63,
          "name": "D#4",
          "ticks": 109,
          "time": 1.2674418604651163,
          "velocity": 0.15748031496062992
        },
        {
          "duration": 0.17441860465116266,
          "durationTicks": 15,
          "midi": 70,
          "name": "A#4",
          "ticks": 110,
          "time": 1.2790697674418605,
          "velocity": 0.4251968503937008
        },
        {
          "duration": 0.046511627906976605,
          "durationTicks": 4,
          "midi": 77,
          "name": "F5",
          "ticks": 110,
          "time": 1.2790697674418605,
          "velocity": 0.1968503937007874
        },
        {
          "duration": 0.046511627906976605,
          "durationTicks": 4,
          "midi": 58,
          "name": "A#3",
          "ticks": 111,
          "time": 1.2906976744186047,
          "velocity": 0.4881889763779528
        },
        {
          "duration": 0.18604651162790686,
          "durationTicks": 16,
          "midi": 74,
          "name": "D5",
          "ticks": 111,
          "time": 1.2906976744186047,
          "velocity": 0.1968503937007874
        },
        {
          "duration": 0.03488372093023262,
          "durationTicks": 3,
          "midi": 62,
          "name": "D4",
          "ticks": 115,
          "time": 1.3372093023255813,
          "velocity": 0.14960629921259844
        },
        {
          "duration": 0.023255813953488413,
          "durationTicks": 2,
          "midi": 58,
          "name": "A#3",
          "ticks": 116,
          "time": 1.3488372093023255,
          "velocity": 0.31496062992125984
        },
        {
          "duration": 0.04651162790697683,
          "durationTicks": 4,
          "midi": 62,
          "name": "D4",
          "ticks": 119,
          "time": 1.3837209302325582,
          "velocity": 0.13385826771653545
        },
        {
          "duration": 0.03488372093023262,
          "durationTicks": 3,
          "midi": 71,
          "name": "B4",
          "ticks": 126,
          "time": 1.4651162790697674,
          "velocity": 0.2047244094488189
        },
        {
          "duration": 0.011627906976744207,
          "durationTicks": 1,
          "midi": 30,
          "name": "F#1",
          "ticks": 127,
          "time": 1.4767441860465116,
          "velocity": 0.6299212598425197
        },
        {
          "duration": 0.058139534883721034,
          "durationTicks": 5,
          "midi": 60,
          "name": "C4",
          "ticks": 127,
          "time": 1.4767441860465116,
          "velocity": 0.4251968503937008
        },
        {
          "duration": 0.15116279069767447,
          "durationTicks": 13,
          "midi": 81,
          "name": "A5",
          "ticks": 127,
          "time": 1.4767441860465116,
          "velocity": 0.4330708661417323
        },
        {
          "duration": 0.13953488372093026,
          "durationTicks": 12,
          "midi": 69,
          "name": "A4",
          "ticks": 128,
          "time": 1.4883720930232558,
          "velocity": 0.41732283464566927
        },
        {
          "duration": 0.4651162790697674,
          "durationTicks": 40,
          "midi": 34,
          "name": "A#1",
          "ticks": 131,
          "time": 1.5232558139534884,
          "velocity": 0.7007874015748031
        },
        {
          "duration": 0.023255813953488413,
          "durationTicks": 2,
          "midi": 70,
          "name": "A#4",
          "ticks": 132,
          "time": 1.5348837209302326,
          "velocity": 0.31496062992125984
        },
        {
          "duration": 0.0348837209302324,
          "durationTicks": 3,
          "midi": 58,
          "name": "A#3",
          "ticks": 133,
          "time": 1.5465116279069768,
          "velocity": 0.3543307086614173
        },
        {
          "duration": 0.03488372093023262,
          "durationTicks": 3,
          "midi": 71,
          "name": "B4",
          "ticks": 135,
          "time": 1.569767441860465,
          "velocity": 0.25196850393700787
        },
        {
          "duration": 0.03488372093023262,
          "durationTicks": 3,
          "midi": 62,
          "name": "D4",
          "ticks": 136,
          "time": 1.5813953488372092,
          "velocity": 0.33858267716535434
        },
        {
          "duration": 0.2325581395348837,
          "durationTicks": 20,
          "midi": 77,
          "name": "F5",
          "ticks": 137,
          "time": 1.5930232558139534,
          "velocity": 0.5826771653543307
        },
        {
          "duration": 0.058139534883721034,
          "durationTicks": 5,
          "midi": 58,
          "name": "A#3",
          "ticks": 139,
          "time": 1.6162790697674418,
          "velocity": 0.3858267716535433
        },
        {
          "duration": 0.13953488372093026,
          "durationTicks": 12,
          "midi": 65,
          "name": "F4",
          "ticks": 139,
          "time": 1.6162790697674418,
          "velocity": 0.4566929133858268
        },
        {
          "duration": 0.40697674418604657,
          "durationTicks": 35,
          "midi": 74,
          "name": "D5",
          "ticks": 139,
          "time": 1.6162790697674418,
          "velocity": 0.6377952755905512
        },
        {
          "duration": 0.06976744186046524,
          "durationTicks": 6,
          "midi": 96,
          "name": "C7",
          "ticks": 139,
          "time": 1.6162790697674418,
          "velocity": 0.08661417322834646
        },
        {
          "duration": 0.18604651162790686,
          "durationTicks": 16,
          "midi": 70,
          "name": "A#4",
          "ticks": 144,
          "time": 1.6744186046511629,
          "velocity": 0.5118110236220472
        },
        {
          "duration": 0.09302325581395365,
          "durationTicks": 8,
          "midi": 81,
          "name": "A5",
          "ticks": 146,
          "time": 1.697674418604651,
          "velocity": 0.08661417322834646
        },
        {
          "duration": 0.03488372093023262,
          "durationTicks": 3,
          "midi": 58,
          "name": "A#3",
          "ticks": 147,
          "time": 1.7093023255813953,
          "velocity": 0.3700787401574803
        },
        {
          "duration": 0.023255813953488413,
          "durationTicks": 2,
          "midi": 57,
          "name": "A3",
          "ticks": 150,
          "time": 1.744186046511628,
          "velocity": 0.4330708661417323
        },
        {
          "duration": 0.058139534883721034,
          "durationTicks": 5,
          "midi": 62,
          "name": "D4",
          "ticks": 150,
          "time": 1.744186046511628,
          "velocity": 0.4251968503937008
        },
        {
          "duration": 0.03488372093023262,
          "durationTicks": 3,
          "midi": 78,
          "name": "F#5",
          "ticks": 150,
          "time": 1.744186046511628,
          "velocity": 0.15748031496062992
        },
        {
          "duration": 0.03488372093023262,
          "durationTicks": 3,
          "midi": 102,
          "name": "F#7",
          "ticks": 150,
          "time": 1.744186046511628,
          "velocity": 0.10236220472440945
        },
        {
          "duration": 0.03488372093023262,
          "durationTicks": 3,
          "midi": 93,
          "name": "A6",
          "ticks": 151,
          "time": 1.755813953488372,
          "velocity": 0.10236220472440945
        },
        {
          "duration": 0.023255813953488413,
          "durationTicks": 2,
          "midi": 58,
          "name": "A#3",
          "ticks": 152,
          "time": 1.7674418604651163,
          "velocity": 0.4094488188976378
        },
        {
          "duration": 0.08139534883720922,
          "durationTicks": 7,
          "midi": 55,
          "name": "G3",
          "ticks": 154,
          "time": 1.7906976744186047,
          "velocity": 0.4645669291338583
        },
        {
          "duration": 0.04651162790697683,
          "durationTicks": 4,
          "midi": 62,
          "name": "D4",
          "ticks": 156,
          "time": 1.813953488372093,
          "velocity": 0.44881889763779526
        },
        {
          "duration": 0.16279069767441867,
          "durationTicks": 14,
          "midi": 69,
          "name": "A4",
          "ticks": 159,
          "time": 1.8488372093023255,
          "velocity": 0.6535433070866141
        },
        {
          "duration": 0.10465116279069764,
          "durationTicks": 9,
          "midi": 57,
          "name": "A3",
          "ticks": 162,
          "time": 1.8837209302325582,
          "velocity": 0.48031496062992124
        },
        {
          "duration": 0.03488372093023262,
          "durationTicks": 3,
          "midi": 64,
          "name": "E4",
          "ticks": 162,
          "time": 1.8837209302325582,
          "velocity": 0.1889763779527559
        },
        {
          "duration": 0.05813953488372081,
          "durationTicks": 5,
          "midi": 65,
          "name": "F4",
          "ticks": 165,
          "time": 1.9186046511627908,
          "velocity": 0.13385826771653545
        },
        {
          "duration": 0.046511627906976605,
          "durationTicks": 4,
          "midi": 72,
          "name": "C5",
          "ticks": 165,
          "time": 1.9186046511627908,
          "velocity": 0.14173228346456693
        },
        {
          "duration": 0.023255813953488413,
          "durationTicks": 2,
          "midi": 47,
          "name": "B2",
          "ticks": 168,
          "time": 1.9534883720930232,
          "velocity": 0.4330708661417323
        },
        {
          "duration": 0.06976744186046524,
          "durationTicks": 6,
          "midi": 77,
          "name": "F5",
          "ticks": 170,
          "time": 1.9767441860465116,
          "velocity": 0.09448818897637795
        },
        {
          "duration": 0.023255813953488413,
          "durationTicks": 2,
          "midi": 60,
          "name": "C4",
          "ticks": 173,
          "time": 2.011627906976744,
          "velocity": 0.25196850393700787
        },
        {
          "duration": 0.4534883720930232,
          "durationTicks": 39,
          "midi": 38,
          "name": "D2",
          "ticks": 174,
          "time": 2.0232558139534884,
          "velocity": 0.7007874015748031
        },
        {
          "duration": 0.09302325581395365,
          "durationTicks": 8,
          "midi": 69,
          "name": "A4",
          "ticks": 174,
          "time": 2.0232558139534884,
          "velocity": 0.4015748031496063
        },
        {
          "duration": 0.03488372093023262,
          "durationTicks": 3,
          "midi": 60,
          "name": "C4",
          "ticks": 176,
          "time": 2.046511627906977,
          "velocity": 0.25984251968503935
        },
        {
          "duration": 0.04651162790697683,
          "durationTicks": 4,
          "midi": 57,
          "name": "A3",
          "ticks": 178,
          "time": 2.0697674418604652,
          "velocity": 0.33070866141732286
        },
        {
          "duration": 0.03488372093023262,
          "durationTicks": 3,
          "midi": 76,
          "name": "E5",
          "ticks": 178,
          "time": 2.0697674418604652,
          "velocity": 0.08661417322834646
        },
        {
          "duration": 0.04651162790697638,
          "durationTicks": 4,
          "midi": 60,
          "name": "C4",
          "ticks": 180,
          "time": 2.0930232558139537,
          "velocity": 0.2677165354330709
        },
        {
          "duration": 0.0697674418604648,
          "durationTicks": 6,
          "midi": 70,
          "name": "A#4",
          "ticks": 182,
          "time": 2.116279069767442,
          "velocity": 0.14173228346456693
        },
        {
          "duration": 0.03488372093023262,
          "durationTicks": 3,
          "midi": 100,
          "name": "E7",
          "ticks": 187,
          "time": 2.1744186046511627,
          "velocity": 0.2204724409448819
        },
        {
          "duration": 0.023255813953488413,
          "durationTicks": 2,
          "midi": 69,
          "name": "A4",
          "ticks": 188,
          "time": 2.186046511627907,
          "velocity": 0.36220472440944884
        },
        {
          "duration": 0.04651162790697683,
          "durationTicks": 4,
          "midi": 72,
          "name": "C5",
          "ticks": 188,
          "time": 2.186046511627907,
          "velocity": 0.4251968503937008
        },
        {
          "duration": 0.04651162790697683,
          "durationTicks": 4,
          "midi": 77,
          "name": "F5",
          "ticks": 188,
          "time": 2.186046511627907,
          "velocity": 0.48031496062992124
        },
        {
          "duration": 0.03488372093023262,
          "durationTicks": 3,
          "midi": 58,
          "name": "A#3",
          "ticks": 189,
          "time": 2.197674418604651,
          "velocity": 0.41732283464566927
        },
        {
          "duration": 0.023255813953488413,
          "durationTicks": 2,
          "midi": 82,
          "name": "A#5",
          "ticks": 189,
          "time": 2.197674418604651,
          "velocity": 0.31496062992125984
        },
        {
          "duration": 0.17441860465116266,
          "durationTicks": 15,
          "midi": 85,
          "name": "C#6",
          "ticks": 190,
          "time": 2.2093023255813953,
          "velocity": 0.5275590551181102
        },
        {
          "duration": 0.2790697674418605,
          "durationTicks": 24,
          "midi": 69,
          "name": "A4",
          "ticks": 191,
          "time": 2.2209302325581395,
          "velocity": 0.6535433070866141
        },
        {
          "duration": 0.08139534883720945,
          "durationTicks": 7,
          "midi": 74,
          "name": "D5",
          "ticks": 191,
          "time": 2.2209302325581395,
          "velocity": 0.2125984251968504
        },
        {
          "duration": 0.11627906976744207,
          "durationTicks": 10,
          "midi": 88,
          "name": "E6",
          "ticks": 191,
          "time": 2.2209302325581395,
          "velocity": 0.28346456692913385
        },
        {
          "duration": 0.12790697674418627,
          "durationTicks": 11,
          "midi": 95,
          "name": "B6",
          "ticks": 191,
          "time": 2.2209302325581395,
          "velocity": 0.2440944881889764
        },
        {
          "duration": 0.22093023255813948,
          "durationTicks": 19,
          "midi": 76,
          "name": "E5",
          "ticks": 192,
          "time": 2.2325581395348837,
          "velocity": 0.4330708661417323
        },
        {
          "duration": 0.058139534883721034,
          "durationTicks": 5,
          "midi": 78,
          "name": "F#5",
          "ticks": 192,
          "time": 2.2325581395348837,
          "velocity": 0.2677165354330709
        },
        {
          "duration": 0.03488372093023262,
          "durationTicks": 3,
          "midi": 89,
          "name": "F6",
          "ticks": 192,
          "time": 2.2325581395348837,
          "velocity": 0.07086614173228346
        },
        {
          "duration": 0.10465116279069786,
          "durationTicks": 9,
          "midi": 91,
          "name": "G6",
          "ticks": 192,
          "time": 2.2325581395348837,
          "velocity": 0.14173228346456693
        },
        {
          "duration": 0.058139534883721034,
          "durationTicks": 5,
          "midi": 62,
          "name": "D4",
          "ticks": 193,
          "time": 2.244186046511628,
          "velocity": 0.2125984251968504
        },
        {
          "duration": 0.03488372093023262,
          "durationTicks": 3,
          "midi": 79,
          "name": "G5",
          "ticks": 193,
          "time": 2.244186046511628,
          "velocity": 0.14960629921259844
        },
        {
          "duration": 0.2906976744186047,
          "durationTicks": 25,
          "midi": 57,
          "name": "A3",
          "ticks": 194,
          "time": 2.255813953488372,
          "velocity": 0.5039370078740157
        },
        {
          "duration": 0.03488372093023262,
          "durationTicks": 3,
          "midi": 72,
          "name": "C5",
          "ticks": 201,
          "time": 2.3372093023255816,
          "velocity": 0.14960629921259844
        },
        {
          "duration": 0.05813953488372059,
          "durationTicks": 5,
          "midi": 78,
          "name": "F#5",
          "ticks": 201,
          "time": 2.3372093023255816,
          "velocity": 0.10236220472440945
        },
        {
          "duration": 0.04651162790697638,
          "durationTicks": 4,
          "midi": 99,
          "name": "D#7",
          "ticks": 201,
          "time": 2.3372093023255816,
          "velocity": 0.09448818897637795
        },
        {
          "duration": 0.03488372093023262,
          "durationTicks": 3,
          "midi": 65,
          "name": "F4",
          "ticks": 212,
          "time": 2.4651162790697674,
          "velocity": 0.14173228346456693
        },
        {
          "duration": 0.023255813953488413,
          "durationTicks": 2,
          "midi": 37,
          "name": "C#2",
          "ticks": 213,
          "time": 2.4767441860465116,
          "velocity": 0.6141732283464567
        },
        {
          "duration": 0.12790697674418627,
          "durationTicks": 11,
          "midi": 70,
          "name": "A#4",
          "ticks": 214,
          "time": 2.488372093023256,
          "velocity": 0.5590551181102362
        },
        {
          "duration": 0.4534883720930232,
          "durationTicks": 39,
          "midi": 38,
          "name": "D2",
          "ticks": 217,
          "time": 2.5232558139534884,
          "velocity": 0.7086614173228346
        },
        {
          "duration": 0.03488372093023262,
          "durationTicks": 3,
          "midi": 85,
          "name": "C#6",
          "ticks": 217,
          "time": 2.5232558139534884,
          "velocity": 0.07874015748031496
        },
        {
          "duration": 0.10465116279069742,
          "durationTicks": 9,
          "midi": 77,
          "name": "F5",
          "ticks": 218,
          "time": 2.5348837209302326,
          "velocity": 0.36220472440944884
        },
        {
          "duration": 0.081395348837209,
          "durationTicks": 7,
          "midi": 58,
          "name": "A#3",
          "ticks": 219,
          "time": 2.546511627906977,
          "velocity": 0.4409448818897638
        },
        {
          "duration": 0.13953488372093004,
          "durationTicks": 12,
          "midi": 69,
          "name": "A4",
          "ticks": 225,
          "time": 2.616279069767442,
          "velocity": 0.6299212598425197
        },
        {
          "duration": 0.10465116279069786,
          "durationTicks": 9,
          "midi": 57,
          "name": "A3",
          "ticks": 226,
          "time": 2.627906976744186,
          "velocity": 0.47244094488188976
        },
        {
          "duration": 0.08139534883720945,
          "durationTicks": 7,
          "midi": 76,
          "name": "E5",
          "ticks": 226,
          "time": 2.627906976744186,
          "velocity": 0.08661417322834646
        },
        {
          "duration": 0.03488372093023262,
          "durationTicks": 3,
          "midi": 66,
          "name": "F#4",
          "ticks": 230,
          "time": 2.6744186046511627,
          "velocity": 0.08661417322834646
        },
        {
          "duration": 0.023255813953488413,
          "durationTicks": 2,
          "midi": 71,
          "name": "B4",
          "ticks": 234,
          "time": 2.7209302325581395,
          "velocity": 0.28346456692913385
        },
        {
          "duration": 0.023255813953488413,
          "durationTicks": 2,
          "midi": 72,
          "name": "C5",
          "ticks": 235,
          "time": 2.7325581395348837,
          "velocity": 0.25196850393700787
        },
        {
          "duration": 0.03488372093023262,
          "durationTicks": 3,
          "midi": 58,
          "name": "A#3",
          "ticks": 236,
          "time": 2.744186046511628,
          "velocity": 0.3779527559055118
        },
        {
          "duration": 0.011627906976744207,
          "durationTicks": 1,
          "midi": 70,
          "name": "A#4",
          "ticks": 237,
          "time": 2.755813953488372,
          "velocity": 0.5275590551181102
        },
        {
          "duration": 0.13953488372093004,
          "durationTicks": 12,
          "midi": 76,
          "name": "E5",
          "ticks": 237,
          "time": 2.755813953488372,
          "velocity": 0.29133858267716534
        },
        {
          "duration": 0.023255813953488413,
          "durationTicks": 2,
          "midi": 69,
          "name": "A4",
          "ticks": 238,
          "time": 2.7674418604651163,
          "velocity": 0.5511811023622047
        },
        {
          "duration": 0.058139534883721034,
          "durationTicks": 5,
          "midi": 85,
          "name": "C#6",
          "ticks": 238,
          "time": 2.7674418604651163,
          "velocity": 0.13385826771653545
        },
        {
          "duration": 0.17441860465116266,
          "durationTicks": 15,
          "midi": 74,
          "name": "D5",
          "ticks": 239,
          "time": 2.7790697674418605,
          "velocity": 0.15748031496062992
        },
        {
          "duration": 0.011627906976744207,
          "durationTicks": 1,
          "midi": 68,
          "name": "G#4",
          "ticks": 240,
          "time": 2.7906976744186047,
          "velocity": 0.5354330708661418
        },
        {
          "duration": 0.15116279069767424,
          "durationTicks": 13,
          "midi": 69,
          "name": "A4",
          "ticks": 241,
          "time": 2.802325581395349,
          "velocity": 0.5433070866141733
        },
        {
          "duration": 0.12790697674418583,
          "durationTicks": 11,
          "midi": 57,
          "name": "A3",
          "ticks": 243,
          "time": 2.8255813953488373,
          "velocity": 0.36220472440944884
        },
        {
          "duration": 0.04651162790697683,
          "durationTicks": 4,
          "midi": 67,
          "name": "G4",
          "ticks": 248,
          "time": 2.883720930232558,
          "velocity": 0.2047244094488189
        },
        {
          "duration": 0.04651162790697683,
          "durationTicks": 4,
          "midi": 101,
          "name": "F7",
          "ticks": 248,
          "time": 2.883720930232558,
          "velocity": 0.08661417322834646
        },
        {
          "duration": 0.058139534883721034,
          "durationTicks": 5,
          "midi": 79,
          "name": "G5",
          "ticks": 252,
          "time": 2.9302325581395348,
          "velocity": 0.09448818897637795
        },
        {
          "duration": 0.04651162790697683,
          "durationTicks": 4,
          "midi": 67,
          "name": "G4",
          "ticks": 253,
          "time": 2.941860465116279,
          "velocity": 0.2283464566929134
        },
        {
          "duration": 0.011627906976744207,
          "durationTicks": 1,
          "midi": 39,
          "name": "D#2",
          "ticks": 256,
          "time": 2.9767441860465116,
          "velocity": 0.6377952755905512
        },
        {
          "duration": 0.6395348837209305,
          "durationTicks": 55,
          "midi": 70,
          "name": "A#4",
          "ticks": 256,
          "time": 2.9767441860465116,
          "velocity": 0.6299212598425197
        },
        {
          "duration": 0.04651162790697683,
          "durationTicks": 4,
          "midi": 75,
          "name": "D#5",
          "ticks": 257,
          "time": 2.988372093023256,
          "velocity": 0.11023622047244094
        },
        {
          "duration": 0.03488372093023262,
          "durationTicks": 3,
          "midi": 58,
          "name": "A#3",
          "ticks": 259,
          "time": 3.011627906976744,
          "velocity": 0.2677165354330709
        },
        {
          "duration": 0.12790697674418583,
          "durationTicks": 11,
          "midi": 79,
          "name": "G5",
          "ticks": 259,
          "time": 3.011627906976744,
          "velocity": 0.3543307086614173
        },
        {
          "duration": 0.17441860465116266,
          "durationTicks": 15,
          "midi": 83,
          "name": "B5",
          "ticks": 259,
          "time": 3.011627906976744,
          "velocity": 0.5039370078740157
        },
        {
          "duration": 0.22093023255813948,
          "durationTicks": 19,
          "midi": 51,
          "name": "D#3",
          "ticks": 260,
          "time": 3.0232558139534884,
          "velocity": 0.41732283464566927
        },
        {
          "duration": 0.12790697674418583,
          "durationTicks": 11,
          "midi": 74,
          "name": "D5",
          "ticks": 260,
          "time": 3.0232558139534884,
          "velocity": 0.28346456692913385
        },
        {
          "duration": 0.058139534883721034,
          "durationTicks": 5,
          "midi": 96,
          "name": "C7",
          "ticks": 260,
          "time": 3.0232558139534884,
          "velocity": 0.25984251968503935
        },
        {
          "duration": 0.06976744186046524,
          "durationTicks": 6,
          "midi": 67,
          "name": "G4",
          "ticks": 262,
          "time": 3.046511627906977,
          "velocity": 0.2677165354330709
        },
        {
          "duration": 0.04651162790697683,
          "durationTicks": 4,
          "midi": 58,
          "name": "A#3",
          "ticks": 263,
          "time": 3.058139534883721,
          "velocity": 0.3779527559055118
        },
        {
          "duration": 0.09302325581395321,
          "durationTicks": 8,
          "midi": 93,
          "name": "A6",
          "ticks": 263,
          "time": 3.058139534883721,
          "velocity": 0.15748031496062992
        },
        {
          "duration": 0.081395348837209,
          "durationTicks": 7,
          "midi": 89,
          "name": "F6",
          "ticks": 264,
          "time": 3.0697674418604652,
          "velocity": 0.16535433070866143
        },
        {
          "duration": 0.09302325581395321,
          "durationTicks": 8,
          "midi": 97,
          "name": "C#7",
          "ticks": 265,
          "time": 3.0813953488372094,
          "velocity": 0.2677165354330709
        },
        {
          "duration": 0.11627906976744162,
          "durationTicks": 10,
          "midi": 58,
          "name": "A#3",
          "ticks": 268,
          "time": 3.116279069767442,
          "velocity": 0.4881889763779528
        },
        {
          "duration": 0.023255813953488413,
          "durationTicks": 2,
          "midi": 80,
          "name": "G#5",
          "ticks": 270,
          "time": 3.13953488372093,
          "velocity": 0.23622047244094488
        },
        {
          "duration": 0.023255813953488413,
          "durationTicks": 2,
          "midi": 59,
          "name": "B3",
          "ticks": 279,
          "time": 3.244186046511628,
          "velocity": 0.4015748031496063
        },
        {
          "duration": 0.2441860465116279,
          "durationTicks": 21,
          "midi": 74,
          "name": "D5",
          "ticks": 279,
          "time": 3.244186046511628,
          "velocity": 0.41732283464566927
        },
        {
          "duration": 0.03488372093023262,
          "durationTicks": 3,
          "midi": 81,
          "name": "A5",
          "ticks": 279,
          "time": 3.244186046511628,
          "velocity": 0.33070866141732286
        },
        {
          "duration": 0.18604651162790686,
          "durationTicks": 16,
          "midi": 83,
          "name": "B5",
          "ticks": 279,
          "time": 3.244186046511628,
          "velocity": 0.5196850393700787
        },
        {
          "duration": 0.13953488372093004,
          "durationTicks": 12,
          "midi": 89,
          "name": "F6",
          "ticks": 279,
          "time": 3.244186046511628,
          "velocity": 0.1889763779527559
        },
        {
          "duration": 0.08139534883720945,
          "durationTicks": 7,
          "midi": 96,
          "name": "C7",
          "ticks": 279,
          "time": 3.244186046511628,
          "velocity": 0.1732283464566929
        },
        {
          "duration": 0.12790697674418583,
          "durationTicks": 11,
          "midi": 79,
          "name": "G5",
          "ticks": 280,
          "time": 3.255813953488372,
          "velocity": 0.4566929133858268
        },
        {
          "duration": 0.03488372093023262,
          "durationTicks": 3,
          "midi": 97,
          "name": "C#7",
          "ticks": 280,
          "time": 3.255813953488372,
          "velocity": 0.14960629921259844
        },
        {
          "duration": 0.03488372093023262,
          "durationTicks": 3,
          "midi": 58,
          "name": "A#3",
          "ticks": 281,
          "time": 3.2674418604651163,
          "velocity": 0.4409448818897638
        },
        {
          "duration": 0.10465116279069786,
          "durationTicks": 9,
          "midi": 67,
          "name": "G4",
          "ticks": 281,
          "time": 3.2674418604651163,
          "velocity": 0.3779527559055118
        },
        {
          "duration": 0.17441860465116266,
          "durationTicks": 15,
          "midi": 58,
          "name": "A#3",
          "ticks": 285,
          "time": 3.313953488372093,
          "velocity": 0.49606299212598426
        },
        {
          "duration": 0.04651162790697683,
          "durationTicks": 4,
          "midi": 93,
          "name": "A6",
          "ticks": 286,
          "time": 3.3255813953488373,
          "velocity": 0.23622047244094488
        },
        {
          "duration": 0.0697674418604648,
          "durationTicks": 6,
          "midi": 97,
          "name": "C#7",
          "ticks": 286,
          "time": 3.3255813953488373,
          "velocity": 0.2204724409448819
        },
        {
          "duration": 0.15116279069767424,
          "durationTicks": 13,
          "midi": 51,
          "name": "D#3",
          "ticks": 287,
          "time": 3.3372093023255816,
          "velocity": 0.4251968503937008
        },
        {
          "duration": 0.04651162790697638,
          "durationTicks": 4,
          "midi": 81,
          "name": "A5",
          "ticks": 289,
          "time": 3.36046511627907,
          "velocity": 0.25196850393700787
        },
        {
          "duration": 0.034883720930232176,
          "durationTicks": 3,
          "midi": 96,
          "name": "C7",
          "ticks": 289,
          "time": 3.36046511627907,
          "velocity": 0.12598425196850394
        },
        {
          "duration": 0.02325581395348797,
          "durationTicks": 2,
          "midi": 66,
          "name": "F#4",
          "ticks": 290,
          "time": 3.372093023255814,
          "velocity": 0.2677165354330709
        },
        {
          "duration": 0.058139534883721034,
          "durationTicks": 5,
          "midi": 67,
          "name": "G4",
          "ticks": 293,
          "time": 3.4069767441860463,
          "velocity": 0.14173228346456693
        },
        {
          "duration": 0.03488372093023262,
          "durationTicks": 3,
          "midi": 50,
          "name": "D3",
          "ticks": 300,
          "time": 3.488372093023256,
          "velocity": 0.29133858267716534
        },
        {
          "duration": 0.15116279069767424,
          "durationTicks": 13,
          "midi": 79,
          "name": "G5",
          "ticks": 301,
          "time": 3.5,
          "velocity": 0.3779527559055118
        },
        {
          "duration": 0.2325581395348837,
          "durationTicks": 20,
          "midi": 83,
          "name": "B5",
          "ticks": 301,
          "time": 3.5,
          "velocity": 0.4330708661417323
        },
        {
          "duration": 0.09302325581395365,
          "durationTicks": 8,
          "midi": 67,
          "name": "G4",
          "ticks": 302,
          "time": 3.511627906976744,
          "velocity": 0.29133858267716534
        },
        {
          "duration": 0.10465116279069786,
          "durationTicks": 9,
          "midi": 74,
          "name": "D5",
          "ticks": 302,
          "time": 3.511627906976744,
          "velocity": 0.2755905511811024
        },
        {
          "duration": 0.03488372093023262,
          "durationTicks": 3,
          "midi": 51,
          "name": "D#3",
          "ticks": 303,
          "time": 3.5232558139534884,
          "velocity": 0.1968503937007874
        },
        {
          "duration": 0.22093023255813948,
          "durationTicks": 19,
          "midi": 58,
          "name": "A#3",
          "ticks": 304,
          "time": 3.5348837209302326,
          "velocity": 0.44881889763779526
        },
        {
          "duration": 0.03488372093023262,
          "durationTicks": 3,
          "midi": 76,
          "name": "E5",
          "ticks": 305,
          "time": 3.546511627906977,
          "velocity": 0.08661417322834646
        },
        {
          "duration": 0.09302325581395321,
          "durationTicks": 8,
          "midi": 81,
          "name": "A5",
          "ticks": 305,
          "time": 3.546511627906977,
          "velocity": 0.2047244094488189
        },
        {
          "duration": 0.04651162790697683,
          "durationTicks": 4,
          "midi": 50,
          "name": "D3",
          "ticks": 306,
          "time": 3.558139534883721,
          "velocity": 0.2677165354330709
        },
        {
          "duration": 0.16279069767441845,
          "durationTicks": 14,
          "midi": 89,
          "name": "F6",
          "ticks": 306,
          "time": 3.558139534883721,
          "velocity": 0.1732283464566929
        },
        {
          "duration": 0.04651162790697638,
          "durationTicks": 4,
          "midi": 97,
          "name": "C#7",
          "ticks": 309,
          "time": 3.5930232558139537,
          "velocity": 0.16535433070866143
        },
        {
          "duration": 0.02325581395348797,
          "durationTicks": 2,
          "midi": 50,
          "name": "D3",
          "ticks": 311,
          "time": 3.616279069767442,
          "velocity": 0.33070866141732286
        },
        {
          "duration": 0.02325581395348797,
          "durationTicks": 2,
          "midi": 69,
          "name": "A4",
          "ticks": 311,
          "time": 3.616279069767442,
          "velocity": 0.5196850393700787
        },
        {
          "duration": 0.11627906976744207,
          "durationTicks": 10,
          "midi": 70,
          "name": "A#4",
          "ticks": 312,
          "time": 3.627906976744186,
          "velocity": 0.5905511811023622
        },
        {
          "duration": 0.058139534883721034,
          "durationTicks": 5,
          "midi": 85,
          "name": "C#6",
          "ticks": 312,
          "time": 3.627906976744186,
          "velocity": 0.08661417322834646
        },
        {
          "duration": 0.10465116279069786,
          "durationTicks": 9,
          "midi": 51,
          "name": "D#3",
          "ticks": 313,
          "time": 3.63953488372093,
          "velocity": 0.3700787401574803
        },
        {
          "duration": 0.08139534883720945,
          "durationTicks": 7,
          "midi": 67,
          "name": "G4",
          "ticks": 313,
          "time": 3.63953488372093,
          "velocity": 0.2440944881889764
        },
        {
          "duration": 0.2906976744186047,
          "durationTicks": 25,
          "midi": 74,
          "name": "D5",
          "ticks": 313,
          "time": 3.63953488372093,
          "velocity": 0.48031496062992124
        },
        {
          "duration": 0.058139534883721034,
          "durationTicks": 5,
          "midi": 62,
          "name": "D4",
          "ticks": 315,
          "time": 3.6627906976744184,
          "velocity": 0.11811023622047244
        },
        {
          "duration": 0.19767441860465107,
          "durationTicks": 17,
          "midi": 79,
          "name": "G5",
          "ticks": 318,
          "time": 3.697674418604651,
          "velocity": 0.4881889763779528
        },
        {
          "duration": 0.2558139534883721,
          "durationTicks": 22,
          "midi": 69,
          "name": "A4",
          "ticks": 321,
          "time": 3.7325581395348837,
          "velocity": 0.6377952755905512
        },
        {
          "duration": 0.03488372093023262,
          "durationTicks": 3,
          "midi": 94,
          "name": "A#6",
          "ticks": 321,
          "time": 3.7325581395348837,
          "velocity": 0.1889763779527559
        },
        {
          "duration": 0.15116279069767424,
          "durationTicks": 13,
          "midi": 95,
          "name": "B6",
          "ticks": 321,
          "time": 3.7325581395348837,
          "velocity": 0.1968503937007874
        },
        {
          "duration": 0.17441860465116266,
          "durationTicks": 15,
          "midi": 83,
          "name": "B5",
          "ticks": 322,
          "time": 3.744186046511628,
          "velocity": 0.48031496062992124
        },
        {
          "duration": 0.03488372093023262,
          "durationTicks": 3,
          "midi": 96,
          "name": "C7",
          "ticks": 322,
          "time": 3.744186046511628,
          "velocity": 0.14173228346456693
        },
        {
          "duration": 0.058139534883721034,
          "durationTicks": 5,
          "midi": 57,
          "name": "A3",
          "ticks": 323,
          "time": 3.755813953488372,
          "velocity": 0.5196850393700787
        },
        {
          "duration": 0.06976744186046524,
          "durationTicks": 6,
          "midi": 89,
          "name": "F6",
          "ticks": 323,
          "time": 3.755813953488372,
          "velocity": 0.13385826771653545
        },
        {
          "duration": 0.023255813953488413,
          "durationTicks": 2,
          "midi": 50,
          "name": "D3",
          "ticks": 324,
          "time": 3.7674418604651163,
          "velocity": 0.2992125984251969
        },
        {
          "duration": 0.03488372093023262,
          "durationTicks": 3,
          "midi": 96,
          "name": "C7",
          "ticks": 326,
          "time": 3.7906976744186047,
          "velocity": 0.16535433070866143
        },
        {
          "duration": 0.023255813953488413,
          "durationTicks": 2,
          "midi": 56,
          "name": "G#3",
          "ticks": 328,
          "time": 3.813953488372093,
          "velocity": 0.49606299212598426
        },
        {
          "duration": 0.0697674418604648,
          "durationTicks": 6,
          "midi": 97,
          "name": "C#7",
          "ticks": 329,
          "time": 3.8255813953488373,
          "velocity": 0.2283464566929134
        },
        {
          "duration": 0.12790697674418583,
          "durationTicks": 11,
          "midi": 50,
          "name": "D3",
          "ticks": 330,
          "time": 3.8372093023255816,
          "velocity": 0.41732283464566927
        },
        {
          "duration": 0.023255813953488413,
          "durationTicks": 2,
          "midi": 57,
          "name": "A3",
          "ticks": 330,
          "time": 3.8372093023255816,
          "velocity": 0.47244094488188976
        },
        {
          "duration": 0.02325581395348797,
          "durationTicks": 2,
          "midi": 56,
          "name": "G#3",
          "ticks": 332,
          "time": 3.86046511627907,
          "velocity": 0.49606299212598426
        },
        {
          "duration": 0.09302325581395365,
          "durationTicks": 8,
          "midi": 57,
          "name": "A3",
          "ticks": 334,
          "time": 3.883720930232558,
          "velocity": 0.47244094488188976
        },
        {
          "duration": 0.03488372093023262,
          "durationTicks": 3,
          "midi": 72,
          "name": "C5",
          "ticks": 335,
          "time": 3.895348837209302,
          "velocity": 0.2283464566929134
        },
        {
          "duration": 0.023255813953488413,
          "durationTicks": 2,
          "midi": 19,
          "name": "G0",
          "ticks": 342,
          "time": 3.9767441860465116,
          "velocity": 0.29133858267716534
        },
        {
          "duration": 0.011627906976744207,
          "durationTicks": 1,
          "midi": 50,
          "name": "D3",
          "ticks": 342,
          "time": 3.9767441860465116,
          "velocity": 0.5905511811023622
        },
        {
          "duration": 0.03488372093023262,
          "durationTicks": 3,
          "midi": 84,
          "name": "C6",
          "ticks": 342,
          "time": 3.9767441860465116,
          "velocity": 0.1968503937007874
        },
        {
          "duration": 0.011627906976744207,
          "durationTicks": 1,
          "midi": 49,
          "name": "C#3",
          "ticks": 343,
          "time": 3.988372093023256,
          "velocity": 0.7086614173228346
        },
        {
          "duration": 0.023255813953488413,
          "durationTicks": 2,
          "midi": 65,
          "name": "F4",
          "ticks": 343,
          "time": 3.988372093023256,
          "velocity": 0.44881889763779526
        },
        {
          "duration": 0.058139534883721034,
          "durationTicks": 5,
          "midi": 71,
          "name": "B4",
          "ticks": 343,
          "time": 3.988372093023256,
          "velocity": 0.41732283464566927
        },
        {
          "duration": 0.04651162790697683,
          "durationTicks": 4,
          "midi": 76,
          "name": "E5",
          "ticks": 343,
          "time": 3.988372093023256,
          "velocity": 0.3464566929133858
        },
        {
          "duration": 0.06976744186046524,
          "durationTicks": 6,
          "midi": 81,
          "name": "A5",
          "ticks": 343,
          "time": 3.988372093023256,
          "velocity": 0.2440944881889764
        },
        {
          "duration": 0.22093023255813993,
          "durationTicks": 19,
          "midi": 86,
          "name": "D6",
          "ticks": 343,
          "time": 3.988372093023256,
          "velocity": 0.25196850393700787
        },
        {
          "duration": 0.011627906976744207,
          "durationTicks": 1,
          "midi": 45,
          "name": "A2",
          "ticks": 344,
          "time": 4,
          "velocity": 0.7322834645669292
        },
        {
          "duration": 0.24418604651162834,
          "durationTicks": 21,
          "midi": 79,
          "name": "G5",
          "ticks": 344,
          "time": 4,
          "velocity": 0.2755905511811024
        },
        {
          "duration": 0.011627906976744207,
          "durationTicks": 1,
          "midi": 37,
          "name": "C#2",
          "ticks": 345,
          "time": 4.011627906976744,
          "velocity": 0.7401574803149606
        },
        {
          "duration": 0.24418604651162745,
          "durationTicks": 21,
          "midi": 74,
          "name": "D5",
          "ticks": 345,
          "time": 4.011627906976744,
          "velocity": 0.3858267716535433
        },
        {
          "duration": 0.011627906976744207,
          "durationTicks": 1,
          "midi": 36,
          "name": "C2",
          "ticks": 346,
          "time": 4.023255813953488,
          "velocity": 0.7559055118110236
        },
        {
          "duration": 0.023255813953488413,
          "durationTicks": 2,
          "midi": 56,
          "name": "G#3",
          "ticks": 346,
          "time": 4.023255813953488,
          "velocity": 0.3228346456692913
        },
        {
          "duration": 0.44186046511627897,
          "durationTicks": 38,
          "midi": 67,
          "name": "G4",
          "ticks": 346,
          "time": 4.023255813953488,
          "velocity": 0.41732283464566927
        },
        {
          "duration": 0.13953488372093048,
          "durationTicks": 12,
          "midi": 82,
          "name": "A#5",
          "ticks": 346,
          "time": 4.023255813953488,
          "velocity": 0.2283464566929134
        },
        {
          "duration": 0.011627906976744207,
          "durationTicks": 1,
          "midi": 35,
          "name": "B1",
          "ticks": 347,
          "time": 4.034883720930233,
          "velocity": 0.7244094488188977
        },
        {
          "duration": 0.03488372093023262,
          "durationTicks": 3,
          "midi": 62,
          "name": "D4",
          "ticks": 347,
          "time": 4.034883720930233,
          "velocity": 0.41732283464566927
        },
        {
          "duration": 0.1511627906976747,
          "durationTicks": 13,
          "midi": 91,
          "name": "G6",
          "ticks": 347,
          "time": 4.034883720930233,
          "velocity": 0.33858267716535434
        },
        {
          "duration": 0.011627906976744207,
          "durationTicks": 1,
          "midi": 32,
          "name": "G#1",
          "ticks": 348,
          "time": 4.046511627906977,
          "velocity": 0.6850393700787402
        },
        {
          "duration": 0.23255813953488325,
          "durationTicks": 20,
          "midi": 55,
          "name": "G3",
          "ticks": 348,
          "time": 4.046511627906977,
          "velocity": 0.48031496062992124
        },
        {
          "duration": 0.011627906976744207,
          "durationTicks": 1,
          "midi": 24,
          "name": "C1",
          "ticks": 349,
          "time": 4.058139534883721,
          "velocity": 0.5905511811023622
        },
        {
          "duration": 0.3720930232558137,
          "durationTicks": 32,
          "midi": 95,
          "name": "B6",
          "ticks": 349,
          "time": 4.058139534883721,
          "velocity": 0.25196850393700787
        },
        {
          "duration": 0.011627906976744207,
          "durationTicks": 1,
          "midi": 19,
          "name": "G0",
          "ticks": 350,
          "time": 4.069767441860465,
          "velocity": 0.5354330708661418
        },
        {
          "duration": 0.03488372093023262,
          "durationTicks": 3,
          "midi": 63,
          "name": "D#4",
          "ticks": 350,
          "time": 4.069767441860465,
          "velocity": 0.48031496062992124
        },
        {
          "duration": 0.011627906976744207,
          "durationTicks": 1,
          "midi": 30,
          "name": "F#1",
          "ticks": 351,
          "time": 4.0813953488372094,
          "velocity": 0.5826771653543307
        },
        {
          "duration": 0.058139534883721034,
          "durationTicks": 5,
          "midi": 31,
          "name": "G1",
          "ticks": 352,
          "time": 4.093023255813954,
          "velocity": 0.6614173228346457
        },
        {
          "duration": 0.08139534883720945,
          "durationTicks": 7,
          "midi": 62,
          "name": "D4",
          "ticks": 353,
          "time": 4.104651162790698,
          "velocity": 0.5118110236220472
        },
        {
          "duration": 0.06976744186046524,
          "durationTicks": 6,
          "midi": 71,
          "name": "B4",
          "ticks": 353,
          "time": 4.104651162790698,
          "velocity": 0.14960629921259844
        },
        {
          "duration": 0.10465116279069786,
          "durationTicks": 9,
          "midi": 89,
          "name": "F6",
          "ticks": 355,
          "time": 4.127906976744186,
          "velocity": 0.16535433070866143
        },
        {
          "duration": 0.011627906976744207,
          "durationTicks": 1,
          "midi": 30,
          "name": "F#1",
          "ticks": 357,
          "time": 4.151162790697675,
          "velocity": 0.6771653543307087
        },
        {
          "duration": 0.3139534883720927,
          "durationTicks": 27,
          "midi": 31,
          "name": "G1",
          "ticks": 358,
          "time": 4.162790697674419,
          "velocity": 0.7165354330708661
        },
        {
          "duration": 0.04651162790697683,
          "durationTicks": 4,
          "midi": 62,
          "name": "D4",
          "ticks": 361,
          "time": 4.1976744186046515,
          "velocity": 0.5118110236220472
        },
        {
          "duration": 0.08139534883720856,
          "durationTicks": 7,
          "midi": 81,
          "name": "A5",
          "ticks": 363,
          "time": 4.22093023255814,
          "velocity": 0.2047244094488189
        },
        {
          "duration": 0.4534883720930232,
          "durationTicks": 39,
          "midi": 91,
          "name": "G6",
          "ticks": 363,
          "time": 4.22093023255814,
          "velocity": 0.3228346456692913
        },
        {
          "duration": 0.1395348837209296,
          "durationTicks": 12,
          "midi": 102,
          "name": "F#7",
          "ticks": 363,
          "time": 4.22093023255814,
          "velocity": 0.2047244094488189
        },
        {
          "duration": 0.7906976744186043,
          "durationTicks": 68,
          "midi": 98,
          "name": "D7",
          "ticks": 364,
          "time": 4.232558139534884,
          "velocity": 0.3543307086614173
        },
        {
          "duration": 0.03488372093023262,
          "durationTicks": 3,
          "midi": 101,
          "name": "F7",
          "ticks": 366,
          "time": 4.255813953488372,
          "velocity": 0.14173228346456693
        },
        {
          "duration": 0.19767441860465151,
          "durationTicks": 17,
          "midi": 62,
          "name": "D4",
          "ticks": 367,
          "time": 4.267441860465116,
          "velocity": 0.2125984251968504
        },
        {
          "duration": 0.06976744186046524,
          "durationTicks": 6,
          "midi": 71,
          "name": "B4",
          "ticks": 368,
          "time": 4.27906976744186,
          "velocity": 0.2440944881889764
        },
        {
          "duration": 0.27906976744186096,
          "durationTicks": 24,
          "midi": 86,
          "name": "D6",
          "ticks": 369,
          "time": 4.290697674418604,
          "velocity": 0.2047244094488189
        },
        {
          "duration": 0.058139534883721034,
          "durationTicks": 5,
          "midi": 93,
          "name": "A6",
          "ticks": 370,
          "time": 4.3023255813953485,
          "velocity": 0.1889763779527559
        },
        {
          "duration": 0.03488372093023262,
          "durationTicks": 3,
          "midi": 55,
          "name": "G3",
          "ticks": 371,
          "time": 4.313953488372093,
          "velocity": 0.10236220472440945
        },
        {
          "duration": 0.1511627906976747,
          "durationTicks": 13,
          "midi": 74,
          "name": "D5",
          "ticks": 372,
          "time": 4.325581395348837,
          "velocity": 0.29133858267716534
        },
        {
          "duration": 0.04651162790697683,
          "durationTicks": 4,
          "midi": 55,
          "name": "G3",
          "ticks": 375,
          "time": 4.3604651162790695,
          "velocity": 0.2440944881889764
        },
        {
          "duration": 0.03488372093023262,
          "durationTicks": 3,
          "midi": 89,
          "name": "F6",
          "ticks": 378,
          "time": 4.395348837209302,
          "velocity": 0.08661417322834646
        },
        {
          "duration": 0.04651162790697683,
          "durationTicks": 4,
          "midi": 55,
          "name": "G3",
          "ticks": 380,
          "time": 4.4186046511627906,
          "velocity": 0.2047244094488189
        },
        {
          "duration": 0.023255813953488413,
          "durationTicks": 2,
          "midi": 30,
          "name": "F#1",
          "ticks": 385,
          "time": 4.476744186046512,
          "velocity": 0.6377952755905512
        },
        {
          "duration": 0.011627906976744207,
          "durationTicks": 1,
          "midi": 52,
          "name": "E3",
          "ticks": 385,
          "time": 4.476744186046512,
          "velocity": 0.5196850393700787
        },
        {
          "duration": 0.04651162790697683,
          "durationTicks": 4,
          "midi": 71,
          "name": "B4",
          "ticks": 385,
          "time": 4.476744186046512,
          "velocity": 0.4015748031496063
        },
        {
          "duration": 0.04651162790697683,
          "durationTicks": 4,
          "midi": 76,
          "name": "E5",
          "ticks": 385,
          "time": 4.476744186046512,
          "velocity": 0.2677165354330709
        },
        {
          "duration": 0.011627906976744207,
          "durationTicks": 1,
          "midi": 50,
          "name": "D3",
          "ticks": 386,
          "time": 4.488372093023256,
          "velocity": 0.6692913385826772
        },
        {
          "duration": 0.03488372093023262,
          "durationTicks": 3,
          "midi": 65,
          "name": "F4",
          "ticks": 386,
          "time": 4.488372093023256,
          "velocity": 0.4409448818897638
        },
        {
          "duration": 0.058139534883721034,
          "durationTicks": 5,
          "midi": 84,
          "name": "C6",
          "ticks": 386,
          "time": 4.488372093023256,
          "velocity": 0.14960629921259844
        },
        {
          "duration": 0.058139534883721034,
          "durationTicks": 5,
          "midi": 93,
          "name": "A6",
          "ticks": 386,
          "time": 4.488372093023256,
          "velocity": 0.16535433070866143
        },
        {
          "duration": 0.06976744186046524,
          "durationTicks": 6,
          "midi": 95,
          "name": "B6",
          "ticks": 386,
          "time": 4.488372093023256,
          "velocity": 0.2047244094488189
        },
        {
          "duration": 0.12790697674418627,
          "durationTicks": 11,
          "midi": 97,
          "name": "C#7",
          "ticks": 386,
          "time": 4.488372093023256,
          "velocity": 0.2283464566929134
        },
        {
          "duration": 0.011627906976744207,
          "durationTicks": 1,
          "midi": 45,
          "name": "A2",
          "ticks": 387,
          "time": 4.5,
          "velocity": 0.7086614173228346
        },
        {
          "duration": 0.058139534883721034,
          "durationTicks": 5,
          "midi": 78,
          "name": "F#5",
          "ticks": 387,
          "time": 4.5,
          "velocity": 0.2677165354330709
        },
        {
          "duration": 0.011627906976744207,
          "durationTicks": 1,
          "midi": 37,
          "name": "C#2",
          "ticks": 388,
          "time": 4.511627906976744,
          "velocity": 0.7086614173228346
        },
        {
          "duration": 0.1860465116279073,
          "durationTicks": 16,
          "midi": 74,
          "name": "D5",
          "ticks": 388,
          "time": 4.511627906976744,
          "velocity": 0.3937007874015748
        },
        {
          "duration": 0.011627906976744207,
          "durationTicks": 1,
          "midi": 36,
          "name": "C2",
          "ticks": 389,
          "time": 4.523255813953488,
          "velocity": 0.7480314960629921
        },
        {
          "duration": 0.03488372093023262,
          "durationTicks": 3,
          "midi": 55,
          "name": "G3",
          "ticks": 389,
          "time": 4.523255813953488,
          "velocity": 0.3779527559055118
        },
        {
          "duration": 0.011627906976744207,
          "durationTicks": 1,
          "midi": 35,
          "name": "B1",
          "ticks": 390,
          "time": 4.534883720930233,
          "velocity": 0.7401574803149606
        },
        {
          "duration": 0.06976744186046524,
          "durationTicks": 6,
          "midi": 62,
          "name": "D4",
          "ticks": 390,
          "time": 4.534883720930233,
          "velocity": 0.2677165354330709
        },
        {
          "duration": 0.058139534883721034,
          "durationTicks": 5,
          "midi": 71,
          "name": "B4",
          "ticks": 390,
          "time": 4.534883720930233,
          "velocity": 0.14960629921259844
        },
        {
          "duration": 0.03488372093023262,
          "durationTicks": 3,
          "midi": 77,
          "name": "F5",
          "ticks": 390,
          "time": 4.534883720930233,
          "velocity": 0.1968503937007874
        },
        {
          "duration": 0.011627906976744207,
          "durationTicks": 1,
          "midi": 32,
          "name": "G#1",
          "ticks": 391,
          "time": 4.546511627906977,
          "velocity": 0.7322834645669292
        },
        {
          "duration": 0.4651162790697674,
          "durationTicks": 40,
          "midi": 79,
          "name": "G5",
          "ticks": 391,
          "time": 4.546511627906977,
          "velocity": 0.3779527559055118
        },
        {
          "duration": 0.011627906976744207,
          "durationTicks": 1,
          "midi": 30,
          "name": "F#1",
          "ticks": 392,
          "time": 4.558139534883721,
          "velocity": 0.6692913385826772
        },
        {
          "duration": 0.023255813953488413,
          "durationTicks": 2,
          "midi": 56,
          "name": "G#3",
          "ticks": 392,
          "time": 4.558139534883721,
          "velocity": 0.2755905511811024
        },
        {
          "duration": 0.22093023255813904,
          "durationTicks": 19,
          "midi": 67,
          "name": "G4",
          "ticks": 392,
          "time": 4.558139534883721,
          "velocity": 0.4251968503937008
        },
        {
          "duration": 0.023255813953488413,
          "durationTicks": 2,
          "midi": 32,
          "name": "G#1",
          "ticks": 393,
          "time": 4.569767441860465,
          "velocity": 0.5669291338582677
        },
        {
          "duration": 0.03488372093023262,
          "durationTicks": 3,
          "midi": 101,
          "name": "F7",
          "ticks": 393,
          "time": 4.569767441860465,
          "velocity": 0.1732283464566929
        },
        {
          "duration": 0.058139534883721034,
          "durationTicks": 5,
          "midi": 55,
          "name": "G3",
          "ticks": 394,
          "time": 4.5813953488372094,
          "velocity": 0.3858267716535433
        },
        {
          "duration": 0.38372093023255793,
          "durationTicks": 33,
          "midi": 31,
          "name": "G1",
          "ticks": 395,
          "time": 4.593023255813954,
          "velocity": 0.7086614173228346
        },
        {
          "duration": 0.04651162790697683,
          "durationTicks": 4,
          "midi": 77,
          "name": "F5",
          "ticks": 395,
          "time": 4.593023255813954,
          "velocity": 0.11023622047244094
        },
        {
          "duration": 0.03488372093023262,
          "durationTicks": 3,
          "midi": 78,
          "name": "F#5",
          "ticks": 395,
          "time": 4.593023255813954,
          "velocity": 0.1968503937007874
        },
        {
          "duration": 0.04651162790697683,
          "durationTicks": 4,
          "midi": 95,
          "name": "B6",
          "ticks": 395,
          "time": 4.593023255813954,
          "velocity": 0.1732283464566929
        },
        {
          "duration": 0.08139534883720945,
          "durationTicks": 7,
          "midi": 97,
          "name": "C#7",
          "ticks": 398,
          "time": 4.627906976744186,
          "velocity": 0.10236220472440945
        },
        {
          "duration": 0.09302325581395365,
          "durationTicks": 8,
          "midi": 55,
          "name": "G3",
          "ticks": 400,
          "time": 4.651162790697675,
          "velocity": 0.49606299212598426
        },
        {
          "duration": 0.04651162790697683,
          "durationTicks": 4,
          "midi": 62,
          "name": "D4",
          "ticks": 403,
          "time": 4.686046511627907,
          "velocity": 0.14960629921259844
        },
        {
          "duration": 0.26744186046511587,
          "durationTicks": 23,
          "midi": 74,
          "name": "D5",
          "ticks": 405,
          "time": 4.709302325581396,
          "velocity": 0.3779527559055118
        },
        {
          "duration": 0.04651162790697594,
          "durationTicks": 4,
          "midi": 81,
          "name": "A5",
          "ticks": 406,
          "time": 4.72093023255814,
          "velocity": 0.1889763779527559
        },
        {
          "duration": 0.04651162790697594,
          "durationTicks": 4,
          "midi": 101,
          "name": "F7",
          "ticks": 408,
          "time": 4.744186046511628,
          "velocity": 0.09448818897637795
        },
        {
          "duration": 0.22093023255813993,
          "durationTicks": 19,
          "midi": 62,
          "name": "D4",
          "ticks": 409,
          "time": 4.755813953488372,
          "velocity": 0.2440944881889764
        },
        {
          "duration": 0.04651162790697683,
          "durationTicks": 4,
          "midi": 83,
          "name": "B5",
          "ticks": 409,
          "time": 4.755813953488372,
          "velocity": 0.18110236220472442
        },
        {
          "duration": 0.03488372093023262,
          "durationTicks": 3,
          "midi": 89,
          "name": "F6",
          "ticks": 409,
          "time": 4.755813953488372,
          "velocity": 0.07086614173228346
        },
        {
          "duration": 0.03488372093023262,
          "durationTicks": 3,
          "midi": 96,
          "name": "C7",
          "ticks": 409,
          "time": 4.755813953488372,
          "velocity": 0.12598425196850394
        },
        {
          "duration": 0.06976744186046524,
          "durationTicks": 6,
          "midi": 102,
          "name": "F#7",
          "ticks": 409,
          "time": 4.755813953488372,
          "velocity": 0.1732283464566929
        },
        {
          "duration": 0.03488372093023262,
          "durationTicks": 3,
          "midi": 55,
          "name": "G3",
          "ticks": 411,
          "time": 4.77906976744186,
          "velocity": 0.30708661417322836
        },
        {
          "duration": 0.06976744186046524,
          "durationTicks": 6,
          "midi": 71,
          "name": "B4",
          "ticks": 411,
          "time": 4.77906976744186,
          "velocity": 0.12598425196850394
        },
        {
          "duration": 0.12790697674418627,
          "durationTicks": 11,
          "midi": 93,
          "name": "A6",
          "ticks": 411,
          "time": 4.77906976744186,
          "velocity": 0.23622047244094488
        },
        {
          "duration": 0.1860465116279073,
          "durationTicks": 16,
          "midi": 67,
          "name": "G4",
          "ticks": 413,
          "time": 4.8023255813953485,
          "velocity": 0.36220472440944884
        },
        {
          "duration": 0.03488372093023262,
          "durationTicks": 3,
          "midi": 101,
          "name": "F7",
          "ticks": 414,
          "time": 4.813953488372093,
          "velocity": 0.14173228346456693
        },
        {
          "duration": 0.058139534883721034,
          "durationTicks": 5,
          "midi": 95,
          "name": "B6",
          "ticks": 415,
          "time": 4.825581395348837,
          "velocity": 0.10236220472440945
        },
        {
          "duration": 0.08139534883720945,
          "durationTicks": 7,
          "midi": 95,
          "name": "B6",
          "ticks": 424,
          "time": 4.930232558139535,
          "velocity": 0.11023622047244094
        },
        {
          "duration": 0.023255813953488413,
          "durationTicks": 2,
          "midi": 69,
          "name": "A4",
          "ticks": 427,
          "time": 4.965116279069767,
          "velocity": 0.28346456692913385
        },
        {
          "duration": 0.03488372093023262,
          "durationTicks": 3,
          "midi": 92,
          "name": "G#6",
          "ticks": 427,
          "time": 4.965116279069767,
          "velocity": 0.08661417322834646
        },
        {
          "duration": 0.12790697674418627,
          "durationTicks": 11,
          "midi": 97,
          "name": "C#7",
          "ticks": 427,
          "time": 4.965116279069767,
          "velocity": 0.2283464566929134
        },
        {
          "duration": 0.1744186046511631,
          "durationTicks": 15,
          "midi": 102,
          "name": "F#7",
          "ticks": 427,
          "time": 4.965116279069767,
          "velocity": 0.16535433070866143
        },
        {
          "duration": 0.011627906976744207,
          "durationTicks": 1,
          "midi": 30,
          "name": "F#1",
          "ticks": 428,
          "time": 4.976744186046512,
          "velocity": 0.6456692913385826
        },
        {
          "duration": 0.011627906976744207,
          "durationTicks": 1,
          "midi": 44,
          "name": "G#2",
          "ticks": 428,
          "time": 4.976744186046512,
          "velocity": 0.5354330708661418
        },
        {
          "duration": 0.058139534883721034,
          "durationTicks": 5,
          "midi": 65,
          "name": "F4",
          "ticks": 428,
          "time": 4.976744186046512,
          "velocity": 0.4409448818897638
        },
        {
          "duration": 0.023255813953488413,
          "durationTicks": 2,
          "midi": 73,
          "name": "C#5",
          "ticks": 428,
          "time": 4.976744186046512,
          "velocity": 0.33070866141732286
        },
        {
          "duration": 0.023255813953488413,
          "durationTicks": 2,
          "midi": 76,
          "name": "E5",
          "ticks": 428,
          "time": 4.976744186046512,
          "velocity": 0.3228346456692913
        },
        {
          "duration": 0.058139534883721034,
          "durationTicks": 5,
          "midi": 83,
          "name": "B5",
          "ticks": 428,
          "time": 4.976744186046512,
          "velocity": 0.2677165354330709
        },
        {
          "duration": 0.04651162790697683,
          "durationTicks": 4,
          "midi": 93,
          "name": "A6",
          "ticks": 428,
          "time": 4.976744186046512,
          "velocity": 0.18110236220472442
        },
        {
          "duration": 0.011627906976744207,
          "durationTicks": 1,
          "midi": 34,
          "name": "A#1",
          "ticks": 429,
          "time": 4.988372093023256,
          "velocity": 0.5196850393700787
        },
        {
          "duration": 0.011627906976744207,
          "durationTicks": 1,
          "midi": 48,
          "name": "C3",
          "ticks": 429,
          "time": 4.988372093023256,
          "velocity": 0.7007874015748031
        },
        {
          "duration": 0.023255813953488413,
          "durationTicks": 2,
          "midi": 75,
          "name": "D#5",
          "ticks": 429,
          "time": 4.988372093023256,
          "velocity": 0.25984251968503935
        },
        {
          "duration": 0.04651162790697683,
          "durationTicks": 4,
          "midi": 81,
          "name": "A5",
          "ticks": 429,
          "time": 4.988372093023256,
          "velocity": 0.2047244094488189
        },
        {
          "duration": 0.011627906976744207,
          "durationTicks": 1,
          "midi": 46,
          "name": "A#2",
          "ticks": 430,
          "time": 5,
          "velocity": 0.7086614173228346
        },
        {
          "duration": 0.023255813953488413,
          "durationTicks": 2,
          "midi": 69,
          "name": "A4",
          "ticks": 430,
          "time": 5,
          "velocity": 0.29133858267716534
        },
        {
          "duration": 0.4883720930232558,
          "durationTicks": 42,
          "midi": 74,
          "name": "D5",
          "ticks": 430,
          "time": 5,
          "velocity": 0.4251968503937008
        },
        {
          "duration": 0.011627906976744207,
          "durationTicks": 1,
          "midi": 41,
          "name": "F2",
          "ticks": 431,
          "time": 5.011627906976744,
          "velocity": 0.7322834645669292
        },
        {
          "duration": 0.011627906976744207,
          "durationTicks": 1,
          "midi": 36,
          "name": "C2",
          "ticks": 432,
          "time": 5.023255813953488,
          "velocity": 0.7480314960629921
        },
        {
          "duration": 0.04651162790697683,
          "durationTicks": 4,
          "midi": 71,
          "name": "B4",
          "ticks": 432,
          "time": 5.023255813953488,
          "velocity": 0.1968503937007874
        },
        {
          "duration": 0.011627906976744207,
          "durationTicks": 1,
          "midi": 35,
          "name": "B1",
          "ticks": 433,
          "time": 5.034883720930233,
          "velocity": 0.7322834645669292
        },
        {
          "duration": 0.03488372093023262,
          "durationTicks": 3,
          "midi": 67,
          "name": "G4",
          "ticks": 433,
          "time": 5.034883720930233,
          "velocity": 0.18110236220472442
        },
        {
          "duration": 0.058139534883721034,
          "durationTicks": 5,
          "midi": 78,
          "name": "F#5",
          "ticks": 433,
          "time": 5.034883720930233,
          "velocity": 0.23622047244094488
        },
        {
          "duration": 0.011627906976744207,
          "durationTicks": 1,
          "midi": 32,
          "name": "G#1",
          "ticks": 434,
          "time": 5.046511627906977,
          "velocity": 0.6850393700787402
        },
        {
          "duration": 0.3139534883720927,
          "durationTicks": 27,
          "midi": 84,
          "name": "C6",
          "ticks": 434,
          "time": 5.046511627906977,
          "velocity": 0.31496062992125984
        },
        {
          "duration": 0.011627906976744207,
          "durationTicks": 1,
          "midi": 23,
          "name": "B0",
          "ticks": 435,
          "time": 5.058139534883721,
          "velocity": 0.5984251968503937
        },
        {
          "duration": 0.023255813953488413,
          "durationTicks": 2,
          "midi": 53,
          "name": "F3",
          "ticks": 435,
          "time": 5.058139534883721,
          "velocity": 0.33858267716535434
        },
        {
          "duration": 0.09302325581395365,
          "durationTicks": 8,
          "midi": 82,
          "name": "A#5",
          "ticks": 435,
          "time": 5.058139534883721,
          "velocity": 0.1732283464566929
        },
        {
          "duration": 0.03488372093023262,
          "durationTicks": 3,
          "midi": 88,
          "name": "E6",
          "ticks": 435,
          "time": 5.058139534883721,
          "velocity": 0.07874015748031496
        },
        {
          "duration": 0.03488372093023262,
          "durationTicks": 3,
          "midi": 93,
          "name": "A6",
          "ticks": 435,
          "time": 5.058139534883721,
          "velocity": 0.11023622047244094
        },
        {
          "duration": 0.011627906976744207,
          "durationTicks": 1,
          "midi": 19,
          "name": "G0",
          "ticks": 436,
          "time": 5.069767441860465,
          "velocity": 0.5511811023622047
        },
        {
          "duration": 0.04651162790697683,
          "durationTicks": 4,
          "midi": 68,
          "name": "G#4",
          "ticks": 436,
          "time": 5.069767441860465,
          "velocity": 0.1732283464566929
        },
        {
          "duration": 0.011627906976744207,
          "durationTicks": 1,
          "midi": 29,
          "name": "F1",
          "ticks": 437,
          "time": 5.0813953488372094,
          "velocity": 0.5826771653543307
        },
        {
          "duration": 0.023255813953488413,
          "durationTicks": 2,
          "midi": 62,
          "name": "D4",
          "ticks": 437,
          "time": 5.0813953488372094,
          "velocity": 0.29133858267716534
        },
        {
          "duration": 0.08139534883720945,
          "durationTicks": 7,
          "midi": 79,
          "name": "G5",
          "ticks": 437,
          "time": 5.0813953488372094,
          "velocity": 0.2755905511811024
        },
        {
          "duration": 0.38372093023255793,
          "durationTicks": 33,
          "midi": 31,
          "name": "G1",
          "ticks": 438,
          "time": 5.093023255813954,
          "velocity": 0.7086614173228346
        },
        {
          "duration": 0.04651162790697683,
          "durationTicks": 4,
          "midi": 44,
          "name": "G#2",
          "ticks": 438,
          "time": 5.093023255813954,
          "velocity": 0.5039370078740157
        },
        {
          "duration": 0.12790697674418627,
          "durationTicks": 11,
          "midi": 55,
          "name": "G3",
          "ticks": 439,
          "time": 5.104651162790698,
          "velocity": 0.4566929133858268
        },
        {
          "duration": 0.023255813953488413,
          "durationTicks": 2,
          "midi": 62,
          "name": "D4",
          "ticks": 440,
          "time": 5.116279069767442,
          "velocity": 0.4251968503937008
        },
        {
          "duration": 0.058139534883721034,
          "durationTicks": 5,
          "midi": 81,
          "name": "A5",
          "ticks": 440,
          "time": 5.116279069767442,
          "velocity": 0.10236220472440945
        },
        {
          "duration": 0.023255813953488413,
          "durationTicks": 2,
          "midi": 62,
          "name": "D4",
          "ticks": 443,
          "time": 5.151162790697675,
          "velocity": 0.4015748031496063
        },
        {
          "duration": 0.03488372093023262,
          "durationTicks": 3,
          "midi": 72,
          "name": "C5",
          "ticks": 444,
          "time": 5.162790697674419,
          "velocity": 0.2440944881889764
        },
        {
          "duration": 0.1395348837209296,
          "durationTicks": 12,
          "midi": 88,
          "name": "E6",
          "ticks": 444,
          "time": 5.162790697674419,
          "velocity": 0.2047244094488189
        },
        {
          "duration": 0.023255813953488413,
          "durationTicks": 2,
          "midi": 61,
          "name": "C#4",
          "ticks": 445,
          "time": 5.174418604651163,
          "velocity": 0.4645669291338583
        },
        {
          "duration": 0.011627906976744207,
          "durationTicks": 1,
          "midi": 44,
          "name": "G#2",
          "ticks": 447,
          "time": 5.1976744186046515,
          "velocity": 0.5196850393700787
        },
        {
          "duration": 0.04651162790697683,
          "durationTicks": 4,
          "midi": 62,
          "name": "D4",
          "ticks": 447,
          "time": 5.1976744186046515,
          "velocity": 0.4566929133858268
        },
        {
          "duration": 0.1511627906976738,
          "durationTicks": 13,
          "midi": 102,
          "name": "F#7",
          "ticks": 449,
          "time": 5.22093023255814,
          "velocity": 0.25196850393700787
        },
        {
          "duration": 0.03488372093023173,
          "durationTicks": 3,
          "midi": 70,
          "name": "A#4",
          "ticks": 450,
          "time": 5.232558139534884,
          "velocity": 0.08661417322834646
        },
        {
          "duration": 0.03488372093023173,
          "durationTicks": 3,
          "midi": 72,
          "name": "C5",
          "ticks": 450,
          "time": 5.232558139534884,
          "velocity": 0.18110236220472442
        },
        {
          "duration": 0.12790697674418539,
          "durationTicks": 11,
          "midi": 81,
          "name": "A5",
          "ticks": 450,
          "time": 5.232558139534884,
          "velocity": 0.2755905511811024
        },
        {
          "duration": 0.4883720930232558,
          "durationTicks": 42,
          "midi": 93,
          "name": "A6",
          "ticks": 450,
          "time": 5.232558139534884,
          "velocity": 0.2992125984251969
        },
        {
          "duration": 0.023255813953487525,
          "durationTicks": 2,
          "midi": 51,
          "name": "D#3",
          "ticks": 451,
          "time": 5.244186046511628,
          "velocity": 0.2677165354330709
        },
        {
          "duration": 0.04651162790697594,
          "durationTicks": 4,
          "midi": 60,
          "name": "C4",
          "ticks": 451,
          "time": 5.244186046511628,
          "velocity": 0.3543307086614173
        },
        {
          "duration": 0.04651162790697594,
          "durationTicks": 4,
          "midi": 77,
          "name": "F5",
          "ticks": 451,
          "time": 5.244186046511628,
          "velocity": 0.11023622047244094
        },
        {
          "duration": 0.03488372093023262,
          "durationTicks": 3,
          "midi": 83,
          "name": "B5",
          "ticks": 452,
          "time": 5.255813953488372,
          "velocity": 0.14173228346456693
        },
        {
          "duration": 0.11627906976744207,
          "durationTicks": 10,
          "midi": 91,
          "name": "G6",
          "ticks": 452,
          "time": 5.255813953488372,
          "velocity": 0.07086614173228346
        },
        {
          "duration": 0.03488372093023262,
          "durationTicks": 3,
          "midi": 87,
          "name": "D#6",
          "ticks": 453,
          "time": 5.267441860465116,
          "velocity": 0.16535433070866143
        },
        {
          "duration": 0.04651162790697683,
          "durationTicks": 4,
          "midi": 55,
          "name": "G3",
          "ticks": 454,
          "time": 5.27906976744186,
          "velocity": 0.2125984251968504
        },
        {
          "duration": 0.06976744186046524,
          "durationTicks": 6,
          "midi": 90,
          "name": "F#6",
          "ticks": 454,
          "time": 5.27906976744186,
          "velocity": 0.11811023622047244
        },
        {
          "duration": 0.11627906976744207,
          "durationTicks": 10,
          "midi": 72,
          "name": "C5",
          "ticks": 455,
          "time": 5.290697674418604,
          "velocity": 0.2677165354330709
        },
        {
          "duration": 0.023255813953488413,
          "durationTicks": 2,
          "midi": 60,
          "name": "C4",
          "ticks": 457,
          "time": 5.313953488372093,
          "velocity": 0.2283464566929134
        },
        {
          "duration": 0.03488372093023262,
          "durationTicks": 3,
          "midi": 67,
          "name": "G4",
          "ticks": 458,
          "time": 5.325581395348837,
          "velocity": 0.18110236220472442
        },
        {
          "duration": 0.03488372093023262,
          "durationTicks": 3,
          "midi": 85,
          "name": "C#6",
          "ticks": 459,
          "time": 5.337209302325581,
          "velocity": 0.15748031496062992
        },
        {
          "duration": 0.03488372093023262,
          "durationTicks": 3,
          "midi": 96,
          "name": "C7",
          "ticks": 461,
          "time": 5.3604651162790695,
          "velocity": 0.12598425196850394
        },
        {
          "duration": 0.058139534883721034,
          "durationTicks": 5,
          "midi": 60,
          "name": "C4",
          "ticks": 462,
          "time": 5.372093023255814,
          "velocity": 0.2440944881889764
        },
        {
          "duration": 0.04651162790697683,
          "durationTicks": 4,
          "midi": 81,
          "name": "A5",
          "ticks": 462,
          "time": 5.372093023255814,
          "velocity": 0.09448818897637795
        },
        {
          "duration": 0.058139534883721034,
          "durationTicks": 5,
          "midi": 78,
          "name": "F#5",
          "ticks": 463,
          "time": 5.383720930232558,
          "velocity": 0.09448818897637795
        },
        {
          "duration": 0.03488372093023262,
          "durationTicks": 3,
          "midi": 83,
          "name": "B5",
          "ticks": 465,
          "time": 5.406976744186046,
          "velocity": 0.09448818897637795
        },
        {
          "duration": 0.058139534883721034,
          "durationTicks": 5,
          "midi": 90,
          "name": "F#6",
          "ticks": 465,
          "time": 5.406976744186046,
          "velocity": 0.11811023622047244
        },
        {
          "duration": 0.023255813953488413,
          "durationTicks": 2,
          "midi": 63,
          "name": "D#4",
          "ticks": 466,
          "time": 5.4186046511627906,
          "velocity": 0.25984251968503935
        },
        {
          "duration": 0.058139534883721034,
          "durationTicks": 5,
          "midi": 77,
          "name": "F5",
          "ticks": 466,
          "time": 5.4186046511627906,
          "velocity": 0.12598425196850394
        },
        {
          "duration": 0.08139534883720945,
          "durationTicks": 7,
          "midi": 81,
          "name": "A5",
          "ticks": 467,
          "time": 5.430232558139535,
          "velocity": 0.2047244094488189
        },
        {
          "duration": 0.03488372093023262,
          "durationTicks": 3,
          "midi": 97,
          "name": "C#7",
          "ticks": 467,
          "time": 5.430232558139535,
          "velocity": 0.2204724409448819
        },
        {
          "duration": 0.08139534883720945,
          "durationTicks": 7,
          "midi": 102,
          "name": "F#7",
          "ticks": 467,
          "time": 5.430232558139535,
          "velocity": 0.15748031496062992
        },
        {
          "duration": 0.023255813953488413,
          "durationTicks": 2,
          "midi": 85,
          "name": "C#6",
          "ticks": 469,
          "time": 5.453488372093023,
          "velocity": 0.2440944881889764
        },
        {
          "duration": 0.023255813953488413,
          "durationTicks": 2,
          "midi": 59,
          "name": "B3",
          "ticks": 470,
          "time": 5.465116279069767,
          "velocity": 0.4251968503937008
        },
        {
          "duration": 0.023255813953488413,
          "durationTicks": 2,
          "midi": 70,
          "name": "A#4",
          "ticks": 470,
          "time": 5.465116279069767,
          "velocity": 0.2677165354330709
        },
        {
          "duration": 0.03488372093023262,
          "durationTicks": 3,
          "midi": 72,
          "name": "C5",
          "ticks": 470,
          "time": 5.465116279069767,
          "velocity": 0.36220472440944884
        },
        {
          "duration": 0.27906976744186096,
          "durationTicks": 24,
          "midi": 83,
          "name": "B5",
          "ticks": 470,
          "time": 5.465116279069767,
          "velocity": 0.30708661417322836
        },
        {
          "duration": 0.011627906976744207,
          "durationTicks": 1,
          "midi": 30,
          "name": "F#1",
          "ticks": 471,
          "time": 5.476744186046512,
          "velocity": 0.6692913385826772
        },
        {
          "duration": 0.011627906976744207,
          "durationTicks": 1,
          "midi": 29,
          "name": "F1",
          "ticks": 472,
          "time": 5.488372093023256,
          "velocity": 0.5511811023622047
        },
        {
          "duration": 0.011627906976744207,
          "durationTicks": 1,
          "midi": 50,
          "name": "D3",
          "ticks": 472,
          "time": 5.488372093023256,
          "velocity": 0.6456692913385826
        },
        {
          "duration": 0.023255813953488413,
          "durationTicks": 2,
          "midi": 65,
          "name": "F4",
          "ticks": 472,
          "time": 5.488372093023256,
          "velocity": 0.44881889763779526
        },
        {
          "duration": 0.03488372093023262,
          "durationTicks": 3,
          "midi": 69,
          "name": "A4",
          "ticks": 472,
          "time": 5.488372093023256,
          "velocity": 0.3700787401574803
        },
        {
          "duration": 0.011627906976744207,
          "durationTicks": 1,
          "midi": 45,
          "name": "A2",
          "ticks": 473,
          "time": 5.5,
          "velocity": 0.7007874015748031
        },
        {
          "duration": 0.058139534883721034,
          "durationTicks": 5,
          "midi": 62,
          "name": "D4",
          "ticks": 473,
          "time": 5.5,
          "velocity": 0.3779527559055118
        },
        {
          "duration": 0.09302325581395365,
          "durationTicks": 8,
          "midi": 71,
          "name": "B4",
          "ticks": 473,
          "time": 5.5,
          "velocity": 0.33070866141732286
        },
        {
          "duration": 0.03488372093023262,
          "durationTicks": 3,
          "midi": 100,
          "name": "E7",
          "ticks": 473,
          "time": 5.5,
          "velocity": 0.13385826771653545
        },
        {
          "duration": 0.011627906976744207,
          "durationTicks": 1,
          "midi": 41,
          "name": "F2",
          "ticks": 474,
          "time": 5.511627906976744,
          "velocity": 0.7086614173228346
        },
        {
          "duration": 0.4767441860465116,
          "durationTicks": 41,
          "midi": 74,
          "name": "D5",
          "ticks": 474,
          "time": 5.511627906976744,
          "velocity": 0.5826771653543307
        },
        {
          "duration": 0.058139534883721034,
          "durationTicks": 5,
          "midi": 88,
          "name": "E6",
          "ticks": 474,
          "time": 5.511627906976744,
          "velocity": 0.14173228346456693
        },
        {
          "duration": 0.011627906976744207,
          "durationTicks": 1,
          "midi": 37,
          "name": "C#2",
          "ticks": 475,
          "time": 5.523255813953488,
          "velocity": 0.7401574803149606
        },
        {
          "duration": 0.09302325581395365,
          "durationTicks": 8,
          "midi": 55,
          "name": "G3",
          "ticks": 475,
          "time": 5.523255813953488,
          "velocity": 0.4094488188976378
        },
        {
          "duration": 0.08139534883720945,
          "durationTicks": 7,
          "midi": 79,
          "name": "G5",
          "ticks": 475,
          "time": 5.523255813953488,
          "velocity": 0.1968503937007874
        },
        {
          "duration": 0.13953488372093048,
          "durationTicks": 12,
          "midi": 81,
          "name": "A5",
          "ticks": 475,
          "time": 5.523255813953488,
          "velocity": 0.4094488188976378
        },
        {
          "duration": 0.1860465116279073,
          "durationTicks": 16,
          "midi": 90,
          "name": "F#6",
          "ticks": 475,
          "time": 5.523255813953488,
          "velocity": 0.1732283464566929
        },
        {
          "duration": 0.10465116279069786,
          "durationTicks": 9,
          "midi": 97,
          "name": "C#7",
          "ticks": 475,
          "time": 5.523255813953488,
          "velocity": 0.12598425196850394
        },
        {
          "duration": 0.058139534883721034,
          "durationTicks": 5,
          "midi": 101,
          "name": "F7",
          "ticks": 475,
          "time": 5.523255813953488,
          "velocity": 0.1889763779527559
        },
        {
          "duration": 0.011627906976744207,
          "durationTicks": 1,
          "midi": 35,
          "name": "B1",
          "ticks": 476,
          "time": 5.534883720930233,
          "velocity": 0.7322834645669292
        },
        {
          "duration": 0.011627906976744207,
          "durationTicks": 1,
          "midi": 33,
          "name": "A1",
          "ticks": 477,
          "time": 5.546511627906977,
          "velocity": 0.7007874015748031
        },
        {
          "duration": 0.04651162790697683,
          "durationTicks": 4,
          "midi": 60,
          "name": "C4",
          "ticks": 477,
          "time": 5.546511627906977,
          "velocity": 0.36220472440944884
        },
        {
          "duration": 0.03488372093023262,
          "durationTicks": 3,
          "midi": 94,
          "name": "A#6",
          "ticks": 477,
          "time": 5.546511627906977,
          "velocity": 0.08661417322834646
        },
        {
          "duration": 0.03488372093023262,
          "durationTicks": 3,
          "midi": 96,
          "name": "C7",
          "ticks": 477,
          "time": 5.546511627906977,
          "velocity": 0.07086614173228346
        },
        {
          "duration": 0.011627906976744207,
          "durationTicks": 1,
          "midi": 31,
          "name": "G1",
          "ticks": 478,
          "time": 5.558139534883721,
          "velocity": 0.6220472440944882
        },
        {
          "duration": 0.058139534883721034,
          "durationTicks": 5,
          "midi": 69,
          "name": "A4",
          "ticks": 478,
          "time": 5.558139534883721,
          "velocity": 0.3937007874015748
        },
        {
          "duration": 0.011627906976744207,
          "durationTicks": 1,
          "midi": 34,
          "name": "A#1",
          "ticks": 479,
          "time": 5.569767441860465,
          "velocity": 0.5511811023622047
        },
        {
          "duration": 0.011627906976744207,
          "durationTicks": 1,
          "midi": 35,
          "name": "B1",
          "ticks": 480,
          "time": 5.5813953488372094,
          "velocity": 0.5826771653543307
        },
        {
          "duration": 0.058139534883721034,
          "durationTicks": 5,
          "midi": 87,
          "name": "D#6",
          "ticks": 480,
          "time": 5.5813953488372094,
          "velocity": 0.2204724409448819
        },
        {
          "duration": 0.40697674418604635,
          "durationTicks": 35,
          "midi": 34,
          "name": "A#1",
          "ticks": 481,
          "time": 5.593023255813954,
          "velocity": 0.7007874015748031
        },
        {
          "duration": 0.023255813953488413,
          "durationTicks": 2,
          "midi": 62,
          "name": "D4",
          "ticks": 481,
          "time": 5.593023255813954,
          "velocity": 0.3464566929133858
        },
        {
          "duration": 0.18604651162790642,
          "durationTicks": 16,
          "midi": 77,
          "name": "F5",
          "ticks": 482,
          "time": 5.604651162790698,
          "velocity": 0.5748031496062992
        },
        {
          "duration": 0.11627906976744207,
          "durationTicks": 10,
          "midi": 65,
          "name": "F4",
          "ticks": 484,
          "time": 5.627906976744186,
          "velocity": 0.4330708661417323
        },
        {
          "duration": 0.023255813953488413,
          "durationTicks": 2,
          "midi": 78,
          "name": "F#5",
          "ticks": 484,
          "time": 5.627906976744186,
          "velocity": 0.25984251968503935
        },
        {
          "duration": 0.11627906976744207,
          "durationTicks": 10,
          "midi": 79,
          "name": "G5",
          "ticks": 484,
          "time": 5.627906976744186,
          "velocity": 0.2283464566929134
        },
        {
          "duration": 0.06976744186046524,
          "durationTicks": 6,
          "midi": 96,
          "name": "C7",
          "ticks": 485,
          "time": 5.6395348837209305,
          "velocity": 0.16535433070866143
        },
        {
          "duration": 0.023255813953488413,
          "durationTicks": 2,
          "midi": 60,
          "name": "C4",
          "ticks": 486,
          "time": 5.651162790697675,
          "velocity": 0.3700787401574803
        },
        {
          "duration": 0.11627906976744118,
          "durationTicks": 10,
          "midi": 99,
          "name": "D#7",
          "ticks": 486,
          "time": 5.651162790697675,
          "velocity": 0.2440944881889764
        },
        {
          "duration": 0.09302325581395277,
          "durationTicks": 8,
          "midi": 71,
          "name": "B4",
          "ticks": 487,
          "time": 5.662790697674419,
          "velocity": 0.3858267716535433
        },
        {
          "duration": 0.023255813953488413,
          "durationTicks": 2,
          "midi": 57,
          "name": "A3",
          "ticks": 489,
          "time": 5.686046511627907,
          "velocity": 0.3779527559055118
        },
        {
          "duration": 0.023255813953488413,
          "durationTicks": 2,
          "midi": 87,
          "name": "D#6",
          "ticks": 490,
          "time": 5.6976744186046515,
          "velocity": 0.2283464566929134
        },
        {
          "duration": 0.04651162790697594,
          "durationTicks": 4,
          "midi": 58,
          "name": "A#3",
          "ticks": 491,
          "time": 5.709302325581396,
          "velocity": 0.41732283464566927
        },
        {
          "duration": 0.058139534883720145,
          "durationTicks": 5,
          "midi": 96,
          "name": "C7",
          "ticks": 492,
          "time": 5.72093023255814,
          "velocity": 0.13385826771653545
        },
        {
          "duration": 0.03488372093023173,
          "durationTicks": 3,
          "midi": 80,
          "name": "G#5",
          "ticks": 493,
          "time": 5.732558139534884,
          "velocity": 0.16535433070866143
        },
        {
          "duration": 0.04651162790697594,
          "durationTicks": 4,
          "midi": 90,
          "name": "F#6",
          "ticks": 493,
          "time": 5.732558139534884,
          "velocity": 0.14173228346456693
        },
        {
          "duration": 0.023255813953487525,
          "durationTicks": 2,
          "midi": 66,
          "name": "F#4",
          "ticks": 494,
          "time": 5.744186046511628,
          "velocity": 0.2677165354330709
        },
        {
          "duration": 0.18604651162790642,
          "durationTicks": 16,
          "midi": 81,
          "name": "A5",
          "ticks": 494,
          "time": 5.744186046511628,
          "velocity": 0.2204724409448819
        },
        {
          "duration": 0.03488372093023173,
          "durationTicks": 3,
          "midi": 97,
          "name": "C#7",
          "ticks": 494,
          "time": 5.744186046511628,
          "velocity": 0.08661417322834646
        },
        {
          "duration": 0.058139534883721034,
          "durationTicks": 5,
          "midi": 55,
          "name": "G3",
          "ticks": 495,
          "time": 5.755813953488372,
          "velocity": 0.3937007874015748
        },
        {
          "duration": 0.06976744186046524,
          "durationTicks": 6,
          "midi": 62,
          "name": "D4",
          "ticks": 495,
          "time": 5.755813953488372,
          "velocity": 0.4094488188976378
        },
        {
          "duration": 0.023255813953488413,
          "durationTicks": 2,
          "midi": 72,
          "name": "C5",
          "ticks": 495,
          "time": 5.755813953488372,
          "velocity": 0.33858267716535434
        },
        {
          "duration": 0.5697674418604652,
          "durationTicks": 49,
          "midi": 79,
          "name": "G5",
          "ticks": 495,
          "time": 5.755813953488372,
          "velocity": 0.3464566929133858
        },
        {
          "duration": 0.26744186046511675,
          "durationTicks": 23,
          "midi": 91,
          "name": "G6",
          "ticks": 497,
          "time": 5.77906976744186,
          "velocity": 0.3464566929133858
        },
        {
          "duration": 0.04651162790697683,
          "durationTicks": 4,
          "midi": 69,
          "name": "A4",
          "ticks": 498,
          "time": 5.790697674418604,
          "velocity": 0.2125984251968504
        },
        {
          "duration": 0.023255813953488413,
          "durationTicks": 2,
          "midi": 72,
          "name": "C5",
          "ticks": 499,
          "time": 5.8023255813953485,
          "velocity": 0.2992125984251969
        },
        {
          "duration": 0.03488372093023262,
          "durationTicks": 3,
          "midi": 77,
          "name": "F5",
          "ticks": 499,
          "time": 5.8023255813953485,
          "velocity": 0.14173228346456693
        },
        {
          "duration": 0.04651162790697683,
          "durationTicks": 4,
          "midi": 83,
          "name": "B5",
          "ticks": 500,
          "time": 5.813953488372093,
          "velocity": 0.14960629921259844
        },
        {
          "duration": 0.03488372093023262,
          "durationTicks": 3,
          "midi": 84,
          "name": "C6",
          "ticks": 501,
          "time": 5.825581395348837,
          "velocity": 0.12598425196850394
        },
        {
          "duration": 0.023255813953488413,
          "durationTicks": 2,
          "midi": 62,
          "name": "D4",
          "ticks": 502,
          "time": 5.837209302325581,
          "velocity": 0.3779527559055118
        },
        {
          "duration": 0.09302325581395365,
          "durationTicks": 8,
          "midi": 95,
          "name": "B6",
          "ticks": 503,
          "time": 5.848837209302325,
          "velocity": 0.2047244094488189
        },
        {
          "duration": 0.023255813953488413,
          "durationTicks": 2,
          "midi": 57,
          "name": "A3",
          "ticks": 505,
          "time": 5.872093023255814,
          "velocity": 0.4094488188976378
        },
        {
          "duration": 0.11627906976744207,
          "durationTicks": 10,
          "midi": 69,
          "name": "A4",
          "ticks": 505,
          "time": 5.872093023255814,
          "velocity": 0.6220472440944882
        },
        {
          "duration": 0.04651162790697683,
          "durationTicks": 4,
          "midi": 57,
          "name": "A3",
          "ticks": 508,
          "time": 5.906976744186046,
          "velocity": 0.31496062992125984
        },
        {
          "duration": 0.08139534883720945,
          "durationTicks": 7,
          "midi": 85,
          "name": "C#6",
          "ticks": 508,
          "time": 5.906976744186046,
          "velocity": 0.12598425196850394
        },
        {
          "duration": 0.06976744186046524,
          "durationTicks": 6,
          "midi": 88,
          "name": "E6",
          "ticks": 508,
          "time": 5.906976744186046,
          "velocity": 0.11023622047244094
        },
        {
          "duration": 0.03488372093023262,
          "durationTicks": 3,
          "midi": 71,
          "name": "B4",
          "ticks": 509,
          "time": 5.9186046511627906,
          "velocity": 0.28346456692913385
        },
        {
          "duration": 0.023255813953488413,
          "durationTicks": 2,
          "midi": 62,
          "name": "D4",
          "ticks": 513,
          "time": 5.965116279069767,
          "velocity": 0.3937007874015748
        },
        {
          "duration": 0.03488372093023262,
          "durationTicks": 3,
          "midi": 65,
          "name": "F4",
          "ticks": 514,
          "time": 5.976744186046512,
          "velocity": 0.3779527559055118
        },
        {
          "duration": 0.23255813953488413,
          "durationTicks": 20,
          "midi": 76,
          "name": "E5",
          "ticks": 514,
          "time": 5.976744186046512,
          "velocity": 0.36220472440944884
        },
        {
          "duration": 0.03488372093023262,
          "durationTicks": 3,
          "midi": 82,
          "name": "A#5",
          "ticks": 514,
          "time": 5.976744186046512,
          "velocity": 0.25196850393700787
        },
        {
          "duration": 0.06976744186046524,
          "durationTicks": 6,
          "midi": 84,
          "name": "C6",
          "ticks": 514,
          "time": 5.976744186046512,
          "velocity": 0.1968503937007874
        },
        {
          "duration": 0.3372093023255811,
          "durationTicks": 29,
          "midi": 95,
          "name": "B6",
          "ticks": 514,
          "time": 5.976744186046512,
          "velocity": 0.2047244094488189
        },
        {
          "duration": 0.011627906976744207,
          "durationTicks": 1,
          "midi": 48,
          "name": "C3",
          "ticks": 515,
          "time": 5.988372093023256,
          "velocity": 0.6535433070866141
        },
        {
          "duration": 0.023255813953488413,
          "durationTicks": 2,
          "midi": 70,
          "name": "A#4",
          "ticks": 515,
          "time": 5.988372093023256,
          "velocity": 0.4094488188976378
        },
        {
          "duration": 0.011627906976744207,
          "durationTicks": 1,
          "midi": 46,
          "name": "A#2",
          "ticks": 516,
          "time": 6,
          "velocity": 0.7165354330708661
        },
        {
          "duration": 0.03488372093023262,
          "durationTicks": 3,
          "midi": 71,
          "name": "B4",
          "ticks": 516,
          "time": 6,
          "velocity": 0.33070866141732286
        },
        {
          "duration": 0.06976744186046524,
          "durationTicks": 6,
          "midi": 85,
          "name": "C#6",
          "ticks": 516,
          "time": 6,
          "velocity": 0.14960629921259844
        },
        {
          "duration": 0.38372093023255793,
          "durationTicks": 33,
          "midi": 102,
          "name": "F#7",
          "ticks": 516,
          "time": 6,
          "velocity": 0.25196850393700787
        },
        {
          "duration": 0.011627906976744207,
          "durationTicks": 1,
          "midi": 41,
          "name": "F2",
          "ticks": 517,
          "time": 6.011627906976744,
          "velocity": 0.7244094488188977
        },
        {
          "duration": 0.03488372093023262,
          "durationTicks": 3,
          "midi": 69,
          "name": "A4",
          "ticks": 517,
          "time": 6.011627906976744,
          "velocity": 0.36220472440944884
        },
        {
          "duration": 0.12790697674418627,
          "durationTicks": 11,
          "midi": 74,
          "name": "D5",
          "ticks": 517,
          "time": 6.011627906976744,
          "velocity": 0.1889763779527559
        },
        {
          "duration": 0.4767441860465116,
          "durationTicks": 41,
          "midi": 90,
          "name": "F#6",
          "ticks": 517,
          "time": 6.011627906976744,
          "velocity": 0.3858267716535433
        },
        {
          "duration": 0.011627906976744207,
          "durationTicks": 1,
          "midi": 36,
          "name": "C2",
          "ticks": 518,
          "time": 6.023255813953488,
          "velocity": 0.7637795275590551
        },
        {
          "duration": 0.011627906976744207,
          "durationTicks": 1,
          "midi": 35,
          "name": "B1",
          "ticks": 519,
          "time": 6.034883720930233,
          "velocity": 0.7559055118110236
        },
        {
          "duration": 0.023255813953488413,
          "durationTicks": 2,
          "midi": 54,
          "name": "F#3",
          "ticks": 519,
          "time": 6.034883720930233,
          "velocity": 0.23622047244094488
        },
        {
          "duration": 0.058139534883721034,
          "durationTicks": 5,
          "midi": 67,
          "name": "G4",
          "ticks": 519,
          "time": 6.034883720930233,
          "velocity": 0.3228346456692913
        },
        {
          "duration": 0.011627906976744207,
          "durationTicks": 1,
          "midi": 34,
          "name": "A#1",
          "ticks": 520,
          "time": 6.046511627906977,
          "velocity": 0.7165354330708661
        },
        {
          "duration": 0.011627906976744207,
          "durationTicks": 1,
          "midi": 30,
          "name": "F#1",
          "ticks": 521,
          "time": 6.058139534883721,
          "velocity": 0.5984251968503937
        },
        {
          "duration": 0.03488372093023262,
          "durationTicks": 3,
          "midi": 55,
          "name": "G3",
          "ticks": 521,
          "time": 6.058139534883721,
          "velocity": 0.2204724409448819
        },
        {
          "duration": 0.011627906976744207,
          "durationTicks": 1,
          "midi": 39,
          "name": "D#2",
          "ticks": 523,
          "time": 6.0813953488372094,
          "velocity": 0.5354330708661418
        },
        {
          "duration": 0.12790697674418627,
          "durationTicks": 11,
          "midi": 85,
          "name": "C#6",
          "ticks": 523,
          "time": 6.0813953488372094,
          "velocity": 0.1889763779527559
        },
        {
          "duration": 0.023255813953488413,
          "durationTicks": 2,
          "midi": 38,
          "name": "D2",
          "ticks": 524,
          "time": 6.093023255813954,
          "velocity": 0.6377952755905512
        },
        {
          "duration": 0.04651162790697683,
          "durationTicks": 4,
          "midi": 57,
          "name": "A3",
          "ticks": 524,
          "time": 6.093023255813954,
          "velocity": 0.29133858267716534
        },
        {
          "duration": 0.023255813953488413,
          "durationTicks": 2,
          "midi": 66,
          "name": "F#4",
          "ticks": 525,
          "time": 6.104651162790698,
          "velocity": 0.2677165354330709
        },
        {
          "duration": 0.011627906976744207,
          "durationTicks": 1,
          "midi": 37,
          "name": "C#2",
          "ticks": 526,
          "time": 6.116279069767442,
          "velocity": 0.6614173228346457
        },
        {
          "duration": 0.023255813953488413,
          "durationTicks": 2,
          "midi": 50,
          "name": "D3",
          "ticks": 526,
          "time": 6.116279069767442,
          "velocity": 0.4094488188976378
        },
        {
          "duration": 0.011627906976744207,
          "durationTicks": 1,
          "midi": 38,
          "name": "D2",
          "ticks": 527,
          "time": 6.127906976744186,
          "velocity": 0.6535433070866141
        },
        {
          "duration": 0.011627906976744207,
          "durationTicks": 1,
          "midi": 39,
          "name": "D#2",
          "ticks": 528,
          "time": 6.1395348837209305,
          "velocity": 0.6692913385826772
        },
        {
          "duration": 0.023255813953488413,
          "durationTicks": 2,
          "midi": 56,
          "name": "G#3",
          "ticks": 528,
          "time": 6.1395348837209305,
          "velocity": 0.2440944881889764
        },
        {
          "duration": 0.023255813953488413,
          "durationTicks": 2,
          "midi": 67,
          "name": "G4",
          "ticks": 528,
          "time": 6.1395348837209305,
          "velocity": 0.2992125984251969
        },
        {
          "duration": 0.3372093023255811,
          "durationTicks": 29,
          "midi": 38,
          "name": "D2",
          "ticks": 529,
          "time": 6.151162790697675,
          "velocity": 0.7007874015748031
        },
        {
          "duration": 0.06976744186046524,
          "durationTicks": 6,
          "midi": 86,
          "name": "D6",
          "ticks": 529,
          "time": 6.151162790697675,
          "velocity": 0.14960629921259844
        },
        {
          "duration": 0.03488372093023262,
          "durationTicks": 3,
          "midi": 101,
          "name": "F7",
          "ticks": 529,
          "time": 6.151162790697675,
          "velocity": 0.08661417322834646
        },
        {
          "duration": 0.08139534883720945,
          "durationTicks": 7,
          "midi": 57,
          "name": "A3",
          "ticks": 530,
          "time": 6.162790697674419,
          "velocity": 0.15748031496062992
        },
        {
          "duration": 0.023255813953488413,
          "durationTicks": 2,
          "midi": 68,
          "name": "G#4",
          "ticks": 530,
          "time": 6.162790697674419,
          "velocity": 0.25984251968503935
        },
        {
          "duration": 0.3139534883720927,
          "durationTicks": 27,
          "midi": 74,
          "name": "D5",
          "ticks": 530,
          "time": 6.162790697674419,
          "velocity": 0.25984251968503935
        },
        {
          "duration": 0.1744186046511622,
          "durationTicks": 15,
          "midi": 97,
          "name": "C#7",
          "ticks": 531,
          "time": 6.174418604651163,
          "velocity": 0.2283464566929134
        },
        {
          "duration": 0.023255813953488413,
          "durationTicks": 2,
          "midi": 67,
          "name": "G4",
          "ticks": 532,
          "time": 6.186046511627907,
          "velocity": 0.33858267716535434
        },
        {
          "duration": 0.04651162790697683,
          "durationTicks": 4,
          "midi": 83,
          "name": "B5",
          "ticks": 533,
          "time": 6.1976744186046515,
          "velocity": 0.07086614173228346
        },
        {
          "duration": 0.1744186046511622,
          "durationTicks": 15,
          "midi": 85,
          "name": "C#6",
          "ticks": 535,
          "time": 6.22093023255814,
          "velocity": 0.1968503937007874
        },
        {
          "duration": 0.1395348837209296,
          "durationTicks": 12,
          "midi": 89,
          "name": "F6",
          "ticks": 535,
          "time": 6.22093023255814,
          "velocity": 0.11811023622047244
        },
        {
          "duration": 0.5348837209302317,
          "durationTicks": 46,
          "midi": 69,
          "name": "A4",
          "ticks": 536,
          "time": 6.232558139534884,
          "velocity": 0.6062992125984252
        },
        {
          "duration": 0.058139534883720145,
          "durationTicks": 5,
          "midi": 76,
          "name": "E5",
          "ticks": 536,
          "time": 6.232558139534884,
          "velocity": 0.1889763779527559
        },
        {
          "duration": 0.11627906976744118,
          "durationTicks": 10,
          "midi": 98,
          "name": "D7",
          "ticks": 536,
          "time": 6.232558139534884,
          "velocity": 0.18110236220472442
        },
        {
          "duration": 0.04651162790697594,
          "durationTicks": 4,
          "midi": 64,
          "name": "E4",
          "ticks": 537,
          "time": 6.244186046511628,
          "velocity": 0.1732283464566929
        },
        {
          "duration": 0.058139534883720145,
          "durationTicks": 5,
          "midi": 94,
          "name": "A#6",
          "ticks": 537,
          "time": 6.244186046511628,
          "velocity": 0.07874015748031496
        },
        {
          "duration": 0.04651162790697683,
          "durationTicks": 4,
          "midi": 56,
          "name": "G#3",
          "ticks": 538,
          "time": 6.255813953488372,
          "velocity": 0.3543307086614173
        },
        {
          "duration": 0.03488372093023262,
          "durationTicks": 3,
          "midi": 99,
          "name": "D#7",
          "ticks": 538,
          "time": 6.255813953488372,
          "velocity": 0.07874015748031496
        },
        {
          "duration": 0.04651162790697683,
          "durationTicks": 4,
          "midi": 84,
          "name": "C6",
          "ticks": 539,
          "time": 6.267441860465116,
          "velocity": 0.14173228346456693
        },
        {
          "duration": 0.04651162790697683,
          "durationTicks": 4,
          "midi": 66,
          "name": "F#4",
          "ticks": 540,
          "time": 6.27906976744186,
          "velocity": 0.2992125984251969
        },
        {
          "duration": 0.08139534883720945,
          "durationTicks": 7,
          "midi": 78,
          "name": "F#5",
          "ticks": 540,
          "time": 6.27906976744186,
          "velocity": 0.3464566929133858
        },
        {
          "duration": 0.25581395348837255,
          "durationTicks": 22,
          "midi": 83,
          "name": "B5",
          "ticks": 540,
          "time": 6.27906976744186,
          "velocity": 0.2125984251968504
        },
        {
          "duration": 0.03488372093023262,
          "durationTicks": 3,
          "midi": 57,
          "name": "A3",
          "ticks": 542,
          "time": 6.3023255813953485,
          "velocity": 0.4566929133858268
        },
        {
          "duration": 0.337209302325582,
          "durationTicks": 29,
          "midi": 91,
          "name": "G6",
          "ticks": 544,
          "time": 6.325581395348837,
          "velocity": 0.30708661417322836
        },
        {
          "duration": 0.09302325581395365,
          "durationTicks": 8,
          "midi": 94,
          "name": "A#6",
          "ticks": 544,
          "time": 6.325581395348837,
          "velocity": 0.18110236220472442
        },
        {
          "duration": 0.1511627906976747,
          "durationTicks": 13,
          "midi": 79,
          "name": "G5",
          "ticks": 545,
          "time": 6.337209302325581,
          "velocity": 0.36220472440944884
        },
        {
          "duration": 0.11627906976744207,
          "durationTicks": 10,
          "midi": 57,
          "name": "A3",
          "ticks": 546,
          "time": 6.348837209302325,
          "velocity": 0.47244094488188976
        },
        {
          "duration": 0.03488372093023262,
          "durationTicks": 3,
          "midi": 93,
          "name": "A6",
          "ticks": 546,
          "time": 6.348837209302325,
          "velocity": 0.10236220472440945
        },
        {
          "duration": 0.058139534883721034,
          "durationTicks": 5,
          "midi": 99,
          "name": "D#7",
          "ticks": 546,
          "time": 6.348837209302325,
          "velocity": 0.14960629921259844
        },
        {
          "duration": 0.03488372093023262,
          "durationTicks": 3,
          "midi": 78,
          "name": "F#5",
          "ticks": 550,
          "time": 6.395348837209302,
          "velocity": 0.15748031496062992
        },
        {
          "duration": 0.058139534883721034,
          "durationTicks": 5,
          "midi": 97,
          "name": "C#7",
          "ticks": 551,
          "time": 6.406976744186046,
          "velocity": 0.1732283464566929
        },
        {
          "duration": 0.03488372093023262,
          "durationTicks": 3,
          "midi": 64,
          "name": "E4",
          "ticks": 552,
          "time": 6.4186046511627906,
          "velocity": 0.10236220472440945
        },
        {
          "duration": 0.03488372093023262,
          "durationTicks": 3,
          "midi": 85,
          "name": "C#6",
          "ticks": 552,
          "time": 6.4186046511627906,
          "velocity": 0.12598425196850394
        },
        {
          "duration": 0.1627906976744189,
          "durationTicks": 14,
          "midi": 98,
          "name": "D7",
          "ticks": 553,
          "time": 6.430232558139535,
          "velocity": 0.2283464566929134
        },
        {
          "duration": 0.023255813953488413,
          "durationTicks": 2,
          "midi": 49,
          "name": "C#3",
          "ticks": 557,
          "time": 6.476744186046512,
          "velocity": 0.6456692913385826
        },
        {
          "duration": 0.011627906976744207,
          "durationTicks": 1,
          "midi": 57,
          "name": "A3",
          "ticks": 557,
          "time": 6.476744186046512,
          "velocity": 0.5118110236220472
        },
        {
          "duration": 0.03488372093023262,
          "durationTicks": 3,
          "midi": 73,
          "name": "C#5",
          "ticks": 557,
          "time": 6.476744186046512,
          "velocity": 0.31496062992125984
        },
        {
          "duration": 0.08139534883720945,
          "durationTicks": 7,
          "midi": 76,
          "name": "E5",
          "ticks": 557,
          "time": 6.476744186046512,
          "velocity": 0.25984251968503935
        },
        {
          "duration": 0.011627906976744207,
          "durationTicks": 1,
          "midi": 40,
          "name": "E2",
          "ticks": 558,
          "time": 6.488372093023256,
          "velocity": 0.5905511811023622
        },
        {
          "duration": 0.011627906976744207,
          "durationTicks": 1,
          "midi": 44,
          "name": "G#2",
          "ticks": 559,
          "time": 6.5,
          "velocity": 0.7007874015748031
        },
        {
          "duration": 0.03488372093023262,
          "durationTicks": 3,
          "midi": 55,
          "name": "G3",
          "ticks": 559,
          "time": 6.5,
          "velocity": 0.5354330708661418
        },
        {
          "duration": 0.04651162790697683,
          "durationTicks": 4,
          "midi": 79,
          "name": "G5",
          "ticks": 559,
          "time": 6.5,
          "velocity": 0.1889763779527559
        },
        {
          "duration": 0.03488372093023262,
          "durationTicks": 3,
          "midi": 84,
          "name": "C6",
          "ticks": 559,
          "time": 6.5,
          "velocity": 0.1889763779527559
        },
        {
          "duration": 0.11627906976744207,
          "durationTicks": 10,
          "midi": 97,
          "name": "C#7",
          "ticks": 559,
          "time": 6.5,
          "velocity": 0.2047244094488189
        },
        {
          "duration": 0.3255813953488369,
          "durationTicks": 28,
          "midi": 102,
          "name": "F#7",
          "ticks": 559,
          "time": 6.5,
          "velocity": 0.3464566929133858
        },
        {
          "duration": 0.011627906976744207,
          "durationTicks": 1,
          "midi": 41,
          "name": "F2",
          "ticks": 560,
          "time": 6.511627906976744,
          "velocity": 0.7165354330708661
        },
        {
          "duration": 0.023255813953488413,
          "durationTicks": 2,
          "midi": 66,
          "name": "F#4",
          "ticks": 560,
          "time": 6.511627906976744,
          "velocity": 0.3228346456692913
        },
        {
          "duration": 0.22093023255813993,
          "durationTicks": 19,
          "midi": 90,
          "name": "F#6",
          "ticks": 560,
          "time": 6.511627906976744,
          "velocity": 0.3858267716535433
        },
        {
          "duration": 0.011627906976744207,
          "durationTicks": 1,
          "midi": 37,
          "name": "C#2",
          "ticks": 561,
          "time": 6.523255813953488,
          "velocity": 0.7401574803149606
        },
        {
          "duration": 0.011627906976744207,
          "durationTicks": 1,
          "midi": 35,
          "name": "B1",
          "ticks": 562,
          "time": 6.534883720930233,
          "velocity": 0.7244094488188977
        },
        {
          "duration": 0.023255813953488413,
          "durationTicks": 2,
          "midi": 54,
          "name": "F#3",
          "ticks": 562,
          "time": 6.534883720930233,
          "velocity": 0.29133858267716534
        },
        {
          "duration": 0.1627906976744189,
          "durationTicks": 14,
          "midi": 96,
          "name": "C7",
          "ticks": 562,
          "time": 6.534883720930233,
          "velocity": 0.10236220472440945
        },
        {
          "duration": 0.011627906976744207,
          "durationTicks": 1,
          "midi": 33,
          "name": "A1",
          "ticks": 563,
          "time": 6.546511627906977,
          "velocity": 0.7086614173228346
        },
        {
          "duration": 0.44186046511627897,
          "durationTicks": 38,
          "midi": 74,
          "name": "D5",
          "ticks": 563,
          "time": 6.546511627906977,
          "velocity": 0.4015748031496063
        },
        {
          "duration": 0.03488372093023262,
          "durationTicks": 3,
          "midi": 94,
          "name": "A#6",
          "ticks": 563,
          "time": 6.546511627906977,
          "velocity": 0.08661417322834646
        },
        {
          "duration": 0.011627906976744207,
          "durationTicks": 1,
          "midi": 30,
          "name": "F#1",
          "ticks": 564,
          "time": 6.558139534883721,
          "velocity": 0.6614173228346457
        },
        {
          "duration": 0.13953488372093048,
          "durationTicks": 12,
          "midi": 83,
          "name": "B5",
          "ticks": 564,
          "time": 6.558139534883721,
          "velocity": 0.1968503937007874
        },
        {
          "duration": 0.011627906976744207,
          "durationTicks": 1,
          "midi": 36,
          "name": "C2",
          "ticks": 565,
          "time": 6.569767441860465,
          "velocity": 0.5511811023622047
        },
        {
          "duration": 0.011627906976744207,
          "durationTicks": 1,
          "midi": 39,
          "name": "D#2",
          "ticks": 566,
          "time": 6.5813953488372094,
          "velocity": 0.5590551181102362
        },
        {
          "duration": 0.023255813953488413,
          "durationTicks": 2,
          "midi": 50,
          "name": "D3",
          "ticks": 566,
          "time": 6.5813953488372094,
          "velocity": 0.25984251968503935
        },
        {
          "duration": 0.39534883720930214,
          "durationTicks": 34,
          "midi": 38,
          "name": "D2",
          "ticks": 567,
          "time": 6.593023255813954,
          "velocity": 0.6929133858267716
        },
        {
          "duration": 0.03488372093023262,
          "durationTicks": 3,
          "midi": 55,
          "name": "G3",
          "ticks": 567,
          "time": 6.593023255813954,
          "velocity": 0.30708661417322836
        },
        {
          "duration": 0.03488372093023262,
          "durationTicks": 3,
          "midi": 79,
          "name": "G5",
          "ticks": 567,
          "time": 6.593023255813954,
          "velocity": 0.1889763779527559
        },
        {
          "duration": 0.08139534883720945,
          "durationTicks": 7,
          "midi": 57,
          "name": "A3",
          "ticks": 569,
          "time": 6.616279069767442,
          "velocity": 0.4409448818897638
        },
        {
          "duration": 0.08139534883720945,
          "durationTicks": 7,
          "midi": 79,
          "name": "G5",
          "ticks": 571,
          "time": 6.6395348837209305,
          "velocity": 0.25196850393700787
        },
        {
          "duration": 0.058139534883721034,
          "durationTicks": 5,
          "midi": 93,
          "name": "A6",
          "ticks": 572,
          "time": 6.651162790697675,
          "velocity": 0.08661417322834646
        },
        {
          "duration": 0.06976744186046524,
          "durationTicks": 6,
          "midi": 97,
          "name": "C#7",
          "ticks": 572,
          "time": 6.651162790697675,
          "velocity": 0.25984251968503935
        },
        {
          "duration": 0.04651162790697683,
          "durationTicks": 4,
          "midi": 66,
          "name": "F#4",
          "ticks": 573,
          "time": 6.662790697674419,
          "velocity": 0.2047244094488189
        },
        {
          "duration": 0.10465116279069697,
          "durationTicks": 9,
          "midi": 78,
          "name": "F#5",
          "ticks": 575,
          "time": 6.686046511627907,
          "velocity": 0.3464566929133858
        },
        {
          "duration": 0.03488372093023262,
          "durationTicks": 3,
          "midi": 57,
          "name": "A3",
          "ticks": 577,
          "time": 6.709302325581396,
          "velocity": 0.4015748031496063
        },
        {
          "duration": 0.08139534883720856,
          "durationTicks": 7,
          "midi": 84,
          "name": "C6",
          "ticks": 578,
          "time": 6.72093023255814,
          "velocity": 0.23622047244094488
        },
        {
          "duration": 0.06976744186046435,
          "durationTicks": 6,
          "midi": 91,
          "name": "G6",
          "ticks": 578,
          "time": 6.72093023255814,
          "velocity": 0.12598425196850394
        },
        {
          "duration": 0.04651162790697594,
          "durationTicks": 4,
          "midi": 98,
          "name": "D7",
          "ticks": 578,
          "time": 6.72093023255814,
          "velocity": 0.2047244094488189
        },
        {
          "duration": 0.09302325581395277,
          "durationTicks": 8,
          "midi": 103,
          "name": "G7",
          "ticks": 578,
          "time": 6.72093023255814,
          "velocity": 0.25196850393700787
        },
        {
          "duration": 0.04651162790697683,
          "durationTicks": 4,
          "midi": 95,
          "name": "B6",
          "ticks": 581,
          "time": 6.755813953488372,
          "velocity": 0.13385826771653545
        },
        {
          "duration": 0.023255813953488413,
          "durationTicks": 2,
          "midi": 57,
          "name": "A3",
          "ticks": 582,
          "time": 6.767441860465116,
          "velocity": 0.2677165354330709
        },
        {
          "duration": 0.1511627906976747,
          "durationTicks": 13,
          "midi": 93,
          "name": "A6",
          "ticks": 582,
          "time": 6.767441860465116,
          "velocity": 0.2047244094488189
        },
        {
          "duration": 0.11627906976744207,
          "durationTicks": 10,
          "midi": 69,
          "name": "A4",
          "ticks": 583,
          "time": 6.77906976744186,
          "velocity": 0.3543307086614173
        },
        {
          "duration": 0.1744186046511631,
          "durationTicks": 15,
          "midi": 79,
          "name": "G5",
          "ticks": 584,
          "time": 6.790697674418604,
          "velocity": 0.2125984251968504
        },
        {
          "duration": 0.20930232558139572,
          "durationTicks": 18,
          "midi": 91,
          "name": "G6",
          "ticks": 586,
          "time": 6.813953488372093,
          "velocity": 0.28346456692913385
        },
        {
          "duration": 0.04651162790697683,
          "durationTicks": 4,
          "midi": 78,
          "name": "F#5",
          "ticks": 588,
          "time": 6.837209302325581,
          "velocity": 0.16535433070866143
        },
        {
          "duration": 0.03488372093023262,
          "durationTicks": 3,
          "midi": 84,
          "name": "C6",
          "ticks": 588,
          "time": 6.837209302325581,
          "velocity": 0.09448818897637795
        },
        {
          "duration": 0.19767441860465151,
          "durationTicks": 17,
          "midi": 103,
          "name": "G7",
          "ticks": 589,
          "time": 6.848837209302325,
          "velocity": 0.29133858267716534
        },
        {
          "duration": 0.04651162790697683,
          "durationTicks": 4,
          "midi": 96,
          "name": "C7",
          "ticks": 592,
          "time": 6.883720930232558,
          "velocity": 0.09448818897637795
        },
        {
          "duration": 0.04651162790697683,
          "durationTicks": 4,
          "midi": 57,
          "name": "A3",
          "ticks": 594,
          "time": 6.906976744186046,
          "velocity": 0.1732283464566929
        },
        {
          "duration": 0.03488372093023262,
          "durationTicks": 3,
          "midi": 98,
          "name": "D7",
          "ticks": 594,
          "time": 6.906976744186046,
          "velocity": 0.12598425196850394
        },
        {
          "duration": 0.03488372093023262,
          "durationTicks": 3,
          "midi": 90,
          "name": "F#6",
          "ticks": 597,
          "time": 6.941860465116279,
          "velocity": 0.14173228346456693
        },
        {
          "duration": 0.04651162790697683,
          "durationTicks": 4,
          "midi": 80,
          "name": "G#5",
          "ticks": 599,
          "time": 6.965116279069767,
          "velocity": 0.25196850393700787
        },
        {
          "duration": 0.10465116279069786,
          "durationTicks": 9,
          "midi": 96,
          "name": "C7",
          "ticks": 599,
          "time": 6.965116279069767,
          "velocity": 0.1968503937007874
        },
        {
          "duration": 0.058139534883721034,
          "durationTicks": 5,
          "midi": 98,
          "name": "D7",
          "ticks": 599,
          "time": 6.965116279069767,
          "velocity": 0.1968503937007874
        },
        {
          "duration": 0.06976744186046524,
          "durationTicks": 6,
          "midi": 69,
          "name": "A4",
          "ticks": 600,
          "time": 6.976744186046512,
          "velocity": 0.4251968503937008
        },
        {
          "duration": 0.03488372093023262,
          "durationTicks": 3,
          "midi": 83,
          "name": "B5",
          "ticks": 600,
          "time": 6.976744186046512,
          "velocity": 0.2047244094488189
        },
        {
          "duration": 0.06976744186046524,
          "durationTicks": 6,
          "midi": 84,
          "name": "C6",
          "ticks": 600,
          "time": 6.976744186046512,
          "velocity": 0.2677165354330709
        },
        {
          "duration": 0.011627906976744207,
          "durationTicks": 1,
          "midi": 36,
          "name": "C2",
          "ticks": 601,
          "time": 6.988372093023256,
          "velocity": 0.5826771653543307
        },
        {
          "duration": 0.011627906976744207,
          "durationTicks": 1,
          "midi": 40,
          "name": "E2",
          "ticks": 601,
          "time": 6.988372093023256,
          "velocity": 0.6141732283464567
        },
        {
          "duration": 0.011627906976744207,
          "durationTicks": 1,
          "midi": 52,
          "name": "E3",
          "ticks": 601,
          "time": 6.988372093023256,
          "velocity": 0.6141732283464567
        },
        {
          "duration": 0.023255813953488413,
          "durationTicks": 2,
          "midi": 65,
          "name": "F4",
          "ticks": 601,
          "time": 6.988372093023256,
          "velocity": 0.4251968503937008
        },
        {
          "duration": 0.03488372093023262,
          "durationTicks": 3,
          "midi": 85,
          "name": "C#6",
          "ticks": 601,
          "time": 6.988372093023256,
          "velocity": 0.1968503937007874
        },
        {
          "duration": 0.11627906976744207,
          "durationTicks": 10,
          "midi": 97,
          "name": "C#7",
          "ticks": 601,
          "time": 6.988372093023256,
          "velocity": 0.2204724409448819
        },
        {
          "duration": 0.3604651162790695,
          "durationTicks": 31,
          "midi": 102,
          "name": "F#7",
          "ticks": 601,
          "time": 6.988372093023256,
          "velocity": 0.29133858267716534
        },
        {
          "duration": 0.011627906976744207,
          "durationTicks": 1,
          "midi": 45,
          "name": "A2",
          "ticks": 602,
          "time": 7,
          "velocity": 0.7086614173228346
        },
        {
          "duration": 0.03488372093023262,
          "durationTicks": 3,
          "midi": 88,
          "name": "E6",
          "ticks": 602,
          "time": 7,
          "velocity": 0.14173228346456693
        },
        {
          "duration": 0.011627906976744207,
          "durationTicks": 1,
          "midi": 41,
          "name": "F2",
          "ticks": 603,
          "time": 7.011627906976744,
          "velocity": 0.7322834645669292
        },
        {
          "duration": 0.03488372093023262,
          "durationTicks": 3,
          "midi": 64,
          "name": "E4",
          "ticks": 603,
          "time": 7.011627906976744,
          "velocity": 0.3228346456692913
        },
        {
          "duration": 0.4767441860465116,
          "durationTicks": 41,
          "midi": 74,
          "name": "D5",
          "ticks": 603,
          "time": 7.011627906976744,
          "velocity": 0.4094488188976378
        },
        {
          "duration": 0.23255813953488413,
          "durationTicks": 20,
          "midi": 90,
          "name": "F#6",
          "ticks": 603,
          "time": 7.011627906976744,
          "velocity": 0.33858267716535434
        },
        {
          "duration": 0.011627906976744207,
          "durationTicks": 1,
          "midi": 37,
          "name": "C#2",
          "ticks": 604,
          "time": 7.023255813953488,
          "velocity": 0.7637795275590551
        },
        {
          "duration": 0.03488372093023262,
          "durationTicks": 3,
          "midi": 55,
          "name": "G3",
          "ticks": 604,
          "time": 7.023255813953488,
          "velocity": 0.4015748031496063
        },
        {
          "duration": 0.03488372093023262,
          "durationTicks": 3,
          "midi": 61,
          "name": "C#4",
          "ticks": 604,
          "time": 7.023255813953488,
          "velocity": 0.2047244094488189
        },
        {
          "duration": 0.011627906976744207,
          "durationTicks": 1,
          "midi": 36,
          "name": "C2",
          "ticks": 605,
          "time": 7.034883720930233,
          "velocity": 0.7559055118110236
        },
        {
          "duration": 0.011627906976744207,
          "durationTicks": 1,
          "midi": 33,
          "name": "A1",
          "ticks": 606,
          "time": 7.046511627906977,
          "velocity": 0.7322834645669292
        },
        {
          "duration": 0.3255813953488369,
          "durationTicks": 28,
          "midi": 70,
          "name": "A#4",
          "ticks": 606,
          "time": 7.046511627906977,
          "velocity": 0.5511811023622047
        },
        {
          "duration": 0.011627906976744207,
          "durationTicks": 1,
          "midi": 29,
          "name": "F1",
          "ticks": 607,
          "time": 7.058139534883721,
          "velocity": 0.6929133858267716
        },
        {
          "duration": 0.023255813953488413,
          "durationTicks": 2,
          "midi": 58,
          "name": "A#3",
          "ticks": 607,
          "time": 7.058139534883721,
          "velocity": 0.2992125984251969
        },
        {
          "duration": 0.04651162790697683,
          "durationTicks": 4,
          "midi": 62,
          "name": "D4",
          "ticks": 607,
          "time": 7.058139534883721,
          "velocity": 0.12598425196850394
        },
        {
          "duration": 0.04651162790697683,
          "durationTicks": 4,
          "midi": 98,
          "name": "D7",
          "ticks": 607,
          "time": 7.058139534883721,
          "velocity": 0.14960629921259844
        },
        {
          "duration": 0.011627906976744207,
          "durationTicks": 1,
          "midi": 26,
          "name": "D1",
          "ticks": 608,
          "time": 7.069767441860465,
          "velocity": 0.5984251968503937
        },
        {
          "duration": 0.04651162790697683,
          "durationTicks": 4,
          "midi": 54,
          "name": "F#3",
          "ticks": 608,
          "time": 7.069767441860465,
          "velocity": 0.3858267716535433
        },
        {
          "duration": 0.1511627906976747,
          "durationTicks": 13,
          "midi": 78,
          "name": "F#5",
          "ticks": 608,
          "time": 7.069767441860465,
          "velocity": 0.23622047244094488
        },
        {
          "duration": 0.011627906976744207,
          "durationTicks": 1,
          "midi": 25,
          "name": "C#1",
          "ticks": 609,
          "time": 7.0813953488372094,
          "velocity": 0.5669291338582677
        },
        {
          "duration": 0.12790697674418627,
          "durationTicks": 11,
          "midi": 27,
          "name": "D#1",
          "ticks": 610,
          "time": 7.093023255813954,
          "velocity": 0.6929133858267716
        },
        {
          "duration": 0.06976744186046524,
          "durationTicks": 6,
          "midi": 58,
          "name": "A#3",
          "ticks": 612,
          "time": 7.116279069767442,
          "velocity": 0.41732283464566927
        },
        {
          "duration": 0.03488372093023262,
          "durationTicks": 3,
          "midi": 64,
          "name": "E4",
          "ticks": 612,
          "time": 7.116279069767442,
          "velocity": 0.18110236220472442
        },
        {
          "duration": 0.10465116279069786,
          "durationTicks": 9,
          "midi": 84,
          "name": "C6",
          "ticks": 612,
          "time": 7.116279069767442,
          "velocity": 0.2204724409448819
        },
        {
          "duration": 0.04651162790697683,
          "durationTicks": 4,
          "midi": 79,
          "name": "G5",
          "ticks": 613,
          "time": 7.127906976744186,
          "velocity": 0.16535433070866143
        },
        {
          "duration": 0.04651162790697683,
          "durationTicks": 4,
          "midi": 51,
          "name": "D#3",
          "ticks": 615,
          "time": 7.151162790697675,
          "velocity": 0.3937007874015748
        },
        {
          "duration": 0.06976744186046524,
          "durationTicks": 6,
          "midi": 97,
          "name": "C#7",
          "ticks": 615,
          "time": 7.151162790697675,
          "velocity": 0.14960629921259844
        },
        {
          "duration": 0.03488372093023262,
          "durationTicks": 3,
          "midi": 67,
          "name": "G4",
          "ticks": 616,
          "time": 7.162790697674419,
          "velocity": 0.15748031496062992
        },
        {
          "duration": 0.023255813953488413,
          "durationTicks": 2,
          "midi": 45,
          "name": "A2",
          "ticks": 617,
          "time": 7.174418604651163,
          "velocity": 0.4015748031496063
        },
        {
          "duration": 0.023255813953488413,
          "durationTicks": 2,
          "midi": 58,
          "name": "A#3",
          "ticks": 619,
          "time": 7.1976744186046515,
          "velocity": 0.3937007874015748
        },
        {
          "duration": 0.03488372093023262,
          "durationTicks": 3,
          "midi": 51,
          "name": "D#3",
          "ticks": 620,
          "time": 7.209302325581396,
          "velocity": 0.41732283464566927
        },
        {
          "duration": 0.023255813953488413,
          "durationTicks": 2,
          "midi": 60,
          "name": "C4",
          "ticks": 620,
          "time": 7.209302325581396,
          "velocity": 0.3779527559055118
        },
        {
          "duration": 0.011627906976744207,
          "durationTicks": 1,
          "midi": 28,
          "name": "E1",
          "ticks": 621,
          "time": 7.22093023255814,
          "velocity": 0.7007874015748031
        },
        {
          "duration": 0.06976744186046435,
          "durationTicks": 6,
          "midi": 103,
          "name": "G7",
          "ticks": 621,
          "time": 7.22093023255814,
          "velocity": 0.11023622047244094
        },
        {
          "duration": 0.25581395348837166,
          "durationTicks": 22,
          "midi": 27,
          "name": "D#1",
          "ticks": 622,
          "time": 7.232558139534884,
          "velocity": 0.7086614173228346
        },
        {
          "duration": 0.04651162790697594,
          "durationTicks": 4,
          "midi": 78,
          "name": "F#5",
          "ticks": 622,
          "time": 7.232558139534884,
          "velocity": 0.2204724409448819
        },
        {
          "duration": 0.3255813953488369,
          "durationTicks": 28,
          "midi": 88,
          "name": "E6",
          "ticks": 622,
          "time": 7.232558139534884,
          "velocity": 0.29133858267716534
        },
        {
          "duration": 0.1395348837209296,
          "durationTicks": 12,
          "midi": 60,
          "name": "C4",
          "ticks": 623,
          "time": 7.244186046511628,
          "velocity": 0.4409448818897638
        },
        {
          "duration": 0.023255813953487525,
          "durationTicks": 2,
          "midi": 66,
          "name": "F#4",
          "ticks": 623,
          "time": 7.244186046511628,
          "velocity": 0.25196850393700787
        },
        {
          "duration": 0.08139534883720856,
          "durationTicks": 7,
          "midi": 93,
          "name": "A6",
          "ticks": 623,
          "time": 7.244186046511628,
          "velocity": 0.2204724409448819
        },
        {
          "duration": 0.058139534883720145,
          "durationTicks": 5,
          "midi": 95,
          "name": "B6",
          "ticks": 623,
          "time": 7.244186046511628,
          "velocity": 0.07086614173228346
        },
        {
          "duration": 0.11627906976744118,
          "durationTicks": 10,
          "midi": 98,
          "name": "D7",
          "ticks": 623,
          "time": 7.244186046511628,
          "velocity": 0.25984251968503935
        },
        {
          "duration": 0.13953488372093048,
          "durationTicks": 12,
          "midi": 79,
          "name": "G5",
          "ticks": 625,
          "time": 7.267441860465116,
          "velocity": 0.23622047244094488
        },
        {
          "duration": 0.023255813953488413,
          "durationTicks": 2,
          "midi": 51,
          "name": "D#3",
          "ticks": 626,
          "time": 7.27906976744186,
          "velocity": 0.30708661417322836
        },
        {
          "duration": 0.08139534883720945,
          "durationTicks": 7,
          "midi": 94,
          "name": "A#6",
          "ticks": 627,
          "time": 7.290697674418604,
          "velocity": 0.14173228346456693
        },
        {
          "duration": 0.04651162790697683,
          "durationTicks": 4,
          "midi": 67,
          "name": "G4",
          "ticks": 628,
          "time": 7.3023255813953485,
          "velocity": 0.12598425196850394
        },
        {
          "duration": 0.023255813953488413,
          "durationTicks": 2,
          "midi": 50,
          "name": "D3",
          "ticks": 630,
          "time": 7.325581395348837,
          "velocity": 0.29133858267716534
        },
        {
          "duration": 0.24418604651162834,
          "durationTicks": 21,
          "midi": 95,
          "name": "B6",
          "ticks": 630,
          "time": 7.325581395348837,
          "velocity": 0.2677165354330709
        },
        {
          "duration": 0.1511627906976747,
          "durationTicks": 13,
          "midi": 51,
          "name": "D#3",
          "ticks": 632,
          "time": 7.348837209302325,
          "velocity": 0.6377952755905512
        },
        {
          "duration": 0.04651162790697683,
          "durationTicks": 4,
          "midi": 101,
          "name": "F7",
          "ticks": 632,
          "time": 7.348837209302325,
          "velocity": 0.2204724409448819
        },
        {
          "duration": 0.08139534883720945,
          "durationTicks": 7,
          "midi": 76,
          "name": "E5",
          "ticks": 633,
          "time": 7.3604651162790695,
          "velocity": 0.18110236220472442
        },
        {
          "duration": 0.08139534883720945,
          "durationTicks": 7,
          "midi": 81,
          "name": "A5",
          "ticks": 633,
          "time": 7.3604651162790695,
          "velocity": 0.11023622047244094
        },
        {
          "duration": 0.04651162790697683,
          "durationTicks": 4,
          "midi": 90,
          "name": "F#6",
          "ticks": 633,
          "time": 7.3604651162790695,
          "velocity": 0.11811023622047244
        },
        {
          "duration": 0.03488372093023262,
          "durationTicks": 3,
          "midi": 69,
          "name": "A4",
          "ticks": 634,
          "time": 7.372093023255814,
          "velocity": 0.23622047244094488
        },
        {
          "duration": 0.03488372093023262,
          "durationTicks": 3,
          "midi": 58,
          "name": "A#3",
          "ticks": 635,
          "time": 7.383720930232558,
          "velocity": 0.2047244094488189
        },
        {
          "duration": 0.03488372093023262,
          "durationTicks": 3,
          "midi": 67,
          "name": "G4",
          "ticks": 636,
          "time": 7.395348837209302,
          "velocity": 0.13385826771653545
        },
        {
          "duration": 0.1511627906976747,
          "durationTicks": 13,
          "midi": 100,
          "name": "E7",
          "ticks": 636,
          "time": 7.395348837209302,
          "velocity": 0.2992125984251969
        },
        {
          "duration": 0.023255813953488413,
          "durationTicks": 2,
          "midi": 61,
          "name": "C#4",
          "ticks": 637,
          "time": 7.406976744186046,
          "velocity": 0.23622047244094488
        },
        {
          "duration": 0.03488372093023262,
          "durationTicks": 3,
          "midi": 83,
          "name": "B5",
          "ticks": 640,
          "time": 7.441860465116279,
          "velocity": 0.1968503937007874
        },
        {
          "duration": 0.058139534883721034,
          "durationTicks": 5,
          "midi": 93,
          "name": "A6",
          "ticks": 641,
          "time": 7.453488372093023,
          "velocity": 0.1889763779527559
        },
        {
          "duration": 0.023255813953488413,
          "durationTicks": 2,
          "midi": 71,
          "name": "B4",
          "ticks": 643,
          "time": 7.476744186046512,
          "velocity": 0.41732283464566927
        },
        {
          "duration": 0.03488372093023262,
          "durationTicks": 3,
          "midi": 78,
          "name": "F#5",
          "ticks": 643,
          "time": 7.476744186046512,
          "velocity": 0.2440944881889764
        },
        {
          "duration": 0.03488372093023262,
          "durationTicks": 3,
          "midi": 80,
          "name": "G#5",
          "ticks": 643,
          "time": 7.476744186046512,
          "velocity": 0.1889763779527559
        },
        {
          "duration": 0.03488372093023262,
          "durationTicks": 3,
          "midi": 82,
          "name": "A#5",
          "ticks": 643,
          "time": 7.476744186046512,
          "velocity": 0.16535433070866143
        },
        {
          "duration": 0.3023255813953485,
          "durationTicks": 26,
          "midi": 98,
          "name": "D7",
          "ticks": 643,
          "time": 7.476744186046512,
          "velocity": 0.33858267716535434
        },
        {
          "duration": 0.011627906976744207,
          "durationTicks": 1,
          "midi": 28,
          "name": "E1",
          "ticks": 644,
          "time": 7.488372093023256,
          "velocity": 0.5748031496062992
        },
        {
          "duration": 0.023255813953488413,
          "durationTicks": 2,
          "midi": 65,
          "name": "F4",
          "ticks": 644,
          "time": 7.488372093023256,
          "velocity": 0.47244094488188976
        },
        {
          "duration": 0.06976744186046524,
          "durationTicks": 6,
          "midi": 81,
          "name": "A5",
          "ticks": 644,
          "time": 7.488372093023256,
          "velocity": 0.2440944881889764
        },
        {
          "duration": 0.058139534883721034,
          "durationTicks": 5,
          "midi": 84,
          "name": "C6",
          "ticks": 644,
          "time": 7.488372093023256,
          "velocity": 0.16535433070866143
        },
        {
          "duration": 0.011627906976744207,
          "durationTicks": 1,
          "midi": 45,
          "name": "A2",
          "ticks": 645,
          "time": 7.5,
          "velocity": 0.7007874015748031
        },
        {
          "duration": 0.023255813953488413,
          "durationTicks": 2,
          "midi": 70,
          "name": "A#4",
          "ticks": 645,
          "time": 7.5,
          "velocity": 0.3937007874015748
        },
        {
          "duration": 0.023255813953488413,
          "durationTicks": 2,
          "midi": 72,
          "name": "C5",
          "ticks": 645,
          "time": 7.5,
          "velocity": 0.33858267716535434
        },
        {
          "duration": 0.06976744186046524,
          "durationTicks": 6,
          "midi": 102,
          "name": "F#7",
          "ticks": 645,
          "time": 7.5,
          "velocity": 0.11811023622047244
        },
        {
          "duration": 0.011627906976744207,
          "durationTicks": 1,
          "midi": 42,
          "name": "F#2",
          "ticks": 646,
          "time": 7.511627906976744,
          "velocity": 0.7165354330708661
        },
        {
          "duration": 0.03488372093023262,
          "durationTicks": 3,
          "midi": 58,
          "name": "A#3",
          "ticks": 646,
          "time": 7.511627906976744,
          "velocity": 0.3700787401574803
        },
        {
          "duration": 0.06976744186046524,
          "durationTicks": 6,
          "midi": 64,
          "name": "E4",
          "ticks": 646,
          "time": 7.511627906976744,
          "velocity": 0.3779527559055118
        },
        {
          "duration": 0.11627906976744207,
          "durationTicks": 10,
          "midi": 71,
          "name": "B4",
          "ticks": 646,
          "time": 7.511627906976744,
          "velocity": 0.4251968503937008
        },
        {
          "duration": 0.03488372093023262,
          "durationTicks": 3,
          "midi": 74,
          "name": "D5",
          "ticks": 646,
          "time": 7.511627906976744,
          "velocity": 0.2204724409448819
        },
        {
          "duration": 0.04651162790697683,
          "durationTicks": 4,
          "midi": 91,
          "name": "G6",
          "ticks": 646,
          "time": 7.511627906976744,
          "velocity": 0.14960629921259844
        },
        {
          "duration": 0.011627906976744207,
          "durationTicks": 1,
          "midi": 37,
          "name": "C#2",
          "ticks": 647,
          "time": 7.523255813953488,
          "velocity": 0.7401574803149606
        },
        {
          "duration": 0.011627906976744207,
          "durationTicks": 1,
          "midi": 36,
          "name": "C2",
          "ticks": 648,
          "time": 7.534883720930233,
          "velocity": 0.7322834645669292
        },
        {
          "duration": 0.023255813953488413,
          "durationTicks": 2,
          "midi": 55,
          "name": "G3",
          "ticks": 648,
          "time": 7.534883720930233,
          "velocity": 0.2440944881889764
        },
        {
          "duration": 0.03488372093023262,
          "durationTicks": 3,
          "midi": 94,
          "name": "A#6",
          "ticks": 648,
          "time": 7.534883720930233,
          "velocity": 0.09448818897637795
        },
        {
          "duration": 0.011627906976744207,
          "durationTicks": 1,
          "midi": 35,
          "name": "B1",
          "ticks": 649,
          "time": 7.546511627906977,
          "velocity": 0.6929133858267716
        },
        {
          "duration": 0.023255813953488413,
          "durationTicks": 2,
          "midi": 59,
          "name": "B3",
          "ticks": 649,
          "time": 7.546511627906977,
          "velocity": 0.2992125984251969
        },
        {
          "duration": 0.10465116279069786,
          "durationTicks": 9,
          "midi": 79,
          "name": "G5",
          "ticks": 649,
          "time": 7.546511627906977,
          "velocity": 0.25196850393700787
        },
        {
          "duration": 0.023255813953488413,
          "durationTicks": 2,
          "midi": 31,
          "name": "G1",
          "ticks": 650,
          "time": 7.558139534883721,
          "velocity": 0.6299212598425197
        },
        {
          "duration": 0.10465116279069786,
          "durationTicks": 9,
          "midi": 60,
          "name": "C4",
          "ticks": 651,
          "time": 7.569767441860465,
          "velocity": 0.33070866141732286
        },
        {
          "duration": 0.058139534883721034,
          "durationTicks": 5,
          "midi": 84,
          "name": "C6",
          "ticks": 651,
          "time": 7.569767441860465,
          "velocity": 0.1968503937007874
        },
        {
          "duration": 0.011627906976744207,
          "durationTicks": 1,
          "midi": 30,
          "name": "F#1",
          "ticks": 652,
          "time": 7.5813953488372094,
          "velocity": 0.5433070866141733
        },
        {
          "duration": 0.03488372093023262,
          "durationTicks": 3,
          "midi": 51,
          "name": "D#3",
          "ticks": 652,
          "time": 7.5813953488372094,
          "velocity": 0.3228346456692913
        },
        {
          "duration": 0.011627906976744207,
          "durationTicks": 1,
          "midi": 27,
          "name": "D#1",
          "ticks": 653,
          "time": 7.593023255813954,
          "velocity": 0.5984251968503937
        },
        {
          "duration": 0.03488372093023262,
          "durationTicks": 3,
          "midi": 95,
          "name": "B6",
          "ticks": 653,
          "time": 7.593023255813954,
          "velocity": 0.11811023622047244
        },
        {
          "duration": 0.023255813953488413,
          "durationTicks": 2,
          "midi": 28,
          "name": "E1",
          "ticks": 654,
          "time": 7.604651162790698,
          "velocity": 0.6456692913385826
        },
        {
          "duration": 0.03488372093023262,
          "durationTicks": 3,
          "midi": 69,
          "name": "A4",
          "ticks": 654,
          "time": 7.604651162790698,
          "velocity": 0.5196850393700787
        },
        {
          "duration": 0.023255813953488413,
          "durationTicks": 2,
          "midi": 49,
          "name": "C#3",
          "ticks": 655,
          "time": 7.616279069767442,
          "velocity": 0.2677165354330709
        },
        {
          "duration": 0.3139534883720927,
          "durationTicks": 27,
          "midi": 74,
          "name": "D5",
          "ticks": 655,
          "time": 7.616279069767442,
          "velocity": 0.4094488188976378
        },
        {
          "duration": 0.023255813953488413,
          "durationTicks": 2,
          "midi": 27,
          "name": "D#1",
          "ticks": 656,
          "time": 7.627906976744186,
          "velocity": 0.6614173228346457
        },
        {
          "duration": 0.03488372093023262,
          "durationTicks": 3,
          "midi": 76,
          "name": "E5",
          "ticks": 656,
          "time": 7.627906976744186,
          "velocity": 0.11023622047244094
        },
        {
          "duration": 0.04651162790697683,
          "durationTicks": 4,
          "midi": 83,
          "name": "B5",
          "ticks": 656,
          "time": 7.627906976744186,
          "velocity": 0.2125984251968504
        },
        {
          "duration": 0.04651162790697683,
          "durationTicks": 4,
          "midi": 87,
          "name": "D#6",
          "ticks": 656,
          "time": 7.627906976744186,
          "velocity": 0.11811023622047244
        },
        {
          "duration": 0.10465116279069786,
          "durationTicks": 9,
          "midi": 51,
          "name": "D#3",
          "ticks": 657,
          "time": 7.6395348837209305,
          "velocity": 0.3858267716535433
        },
        {
          "duration": 0.10465116279069786,
          "durationTicks": 9,
          "midi": 70,
          "name": "A#4",
          "ticks": 657,
          "time": 7.6395348837209305,
          "velocity": 0.49606299212598426
        },
        {
          "duration": 0.011627906976744207,
          "durationTicks": 1,
          "midi": 26,
          "name": "D1",
          "ticks": 658,
          "time": 7.651162790697675,
          "velocity": 0.6614173228346457
        },
        {
          "duration": 0.023255813953488413,
          "durationTicks": 2,
          "midi": 67,
          "name": "G4",
          "ticks": 658,
          "time": 7.651162790697675,
          "velocity": 0.2992125984251969
        },
        {
          "duration": 0.08139534883720945,
          "durationTicks": 7,
          "midi": 78,
          "name": "F#5",
          "ticks": 658,
          "time": 7.651162790697675,
          "velocity": 0.18110236220472442
        },
        {
          "duration": 0.06976744186046524,
          "durationTicks": 6,
          "midi": 27,
          "name": "D#1",
          "ticks": 659,
          "time": 7.662790697674419,
          "velocity": 0.7086614173228346
        },
        {
          "duration": 0.09302325581395277,
          "durationTicks": 8,
          "midi": 99,
          "name": "D#7",
          "ticks": 659,
          "time": 7.662790697674419,
          "velocity": 0.15748031496062992
        },
        {
          "duration": 0.023255813953488413,
          "durationTicks": 2,
          "midi": 59,
          "name": "B3",
          "ticks": 660,
          "time": 7.674418604651163,
          "velocity": 0.28346456692913385
        },
        {
          "duration": 0.08139534883720856,
          "durationTicks": 7,
          "midi": 95,
          "name": "B6",
          "ticks": 660,
          "time": 7.674418604651163,
          "velocity": 0.1732283464566929
        },
        {
          "duration": 0.03488372093023262,
          "durationTicks": 3,
          "midi": 96,
          "name": "C7",
          "ticks": 660,
          "time": 7.674418604651163,
          "velocity": 0.14173228346456693
        },
        {
          "duration": 0.06976744186046435,
          "durationTicks": 6,
          "midi": 72,
          "name": "C5",
          "ticks": 661,
          "time": 7.686046511627907,
          "velocity": 0.36220472440944884
        },
        {
          "duration": 0.058139534883721034,
          "durationTicks": 5,
          "midi": 83,
          "name": "B5",
          "ticks": 661,
          "time": 7.686046511627907,
          "velocity": 0.23622047244094488
        },
        {
          "duration": 0.04651162790697683,
          "durationTicks": 4,
          "midi": 93,
          "name": "A6",
          "ticks": 662,
          "time": 7.6976744186046515,
          "velocity": 0.2047244094488189
        },
        {
          "duration": 0.03488372093023262,
          "durationTicks": 3,
          "midi": 67,
          "name": "G4",
          "ticks": 663,
          "time": 7.709302325581396,
          "velocity": 0.2283464566929134
        },
        {
          "duration": 0.058139534883720145,
          "durationTicks": 5,
          "midi": 81,
          "name": "A5",
          "ticks": 663,
          "time": 7.709302325581396,
          "velocity": 0.16535433070866143
        },
        {
          "duration": 0.03488372093023173,
          "durationTicks": 3,
          "midi": 58,
          "name": "A#3",
          "ticks": 664,
          "time": 7.72093023255814,
          "velocity": 0.2125984251968504
        },
        {
          "duration": 0.011627906976744207,
          "durationTicks": 1,
          "midi": 26,
          "name": "D1",
          "ticks": 665,
          "time": 7.732558139534884,
          "velocity": 0.7007874015748031
        },
        {
          "duration": 0.03488372093023173,
          "durationTicks": 3,
          "midi": 64,
          "name": "E4",
          "ticks": 665,
          "time": 7.732558139534884,
          "velocity": 0.2755905511811024
        },
        {
          "duration": 0.011627906976743319,
          "durationTicks": 1,
          "midi": 24,
          "name": "C1",
          "ticks": 666,
          "time": 7.744186046511628,
          "velocity": 0.6692913385826772
        },
        {
          "duration": 0.1395348837209296,
          "durationTicks": 12,
          "midi": 79,
          "name": "G5",
          "ticks": 666,
          "time": 7.744186046511628,
          "velocity": 0.13385826771653545
        },
        {
          "duration": 0.40697674418604546,
          "durationTicks": 35,
          "midi": 84,
          "name": "C6",
          "ticks": 666,
          "time": 7.744186046511628,
          "velocity": 0.47244094488188976
        },
        {
          "duration": 0.011627906976744207,
          "durationTicks": 1,
          "midi": 23,
          "name": "B0",
          "ticks": 667,
          "time": 7.755813953488372,
          "velocity": 0.6456692913385826
        },
        {
          "duration": 0.25581395348837166,
          "durationTicks": 22,
          "midi": 69,
          "name": "A4",
          "ticks": 667,
          "time": 7.755813953488372,
          "velocity": 0.5275590551181102
        },
        {
          "duration": 0.023255813953488413,
          "durationTicks": 2,
          "midi": 71,
          "name": "B4",
          "ticks": 667,
          "time": 7.755813953488372,
          "velocity": 0.2755905511811024
        },
        {
          "duration": 0.10465116279069786,
          "durationTicks": 9,
          "midi": 100,
          "name": "E7",
          "ticks": 667,
          "time": 7.755813953488372,
          "velocity": 0.15748031496062992
        },
        {
          "duration": 0.1511627906976747,
          "durationTicks": 13,
          "midi": 103,
          "name": "G7",
          "ticks": 667,
          "time": 7.755813953488372,
          "velocity": 0.2125984251968504
        },
        {
          "duration": 0.011627906976744207,
          "durationTicks": 1,
          "midi": 24,
          "name": "C1",
          "ticks": 668,
          "time": 7.767441860465116,
          "velocity": 0.6535433070866141
        },
        {
          "duration": 0.1511627906976747,
          "durationTicks": 13,
          "midi": 57,
          "name": "A3",
          "ticks": 668,
          "time": 7.767441860465116,
          "velocity": 0.3779527559055118
        },
        {
          "duration": 0.023255813953488413,
          "durationTicks": 2,
          "midi": 26,
          "name": "D1",
          "ticks": 669,
          "time": 7.77906976744186,
          "velocity": 0.6692913385826772
        },
        {
          "duration": 0.023255813953488413,
          "durationTicks": 2,
          "midi": 50,
          "name": "D3",
          "ticks": 669,
          "time": 7.77906976744186,
          "velocity": 0.23622047244094488
        },
        {
          "duration": 0.10465116279069786,
          "durationTicks": 9,
          "midi": 93,
          "name": "A6",
          "ticks": 670,
          "time": 7.790697674418604,
          "velocity": 0.15748031496062992
        },
        {
          "duration": 0.03488372093023262,
          "durationTicks": 3,
          "midi": 95,
          "name": "B6",
          "ticks": 670,
          "time": 7.790697674418604,
          "velocity": 0.08661417322834646
        },
        {
          "duration": 0.011627906976744207,
          "durationTicks": 1,
          "midi": 27,
          "name": "D#1",
          "ticks": 671,
          "time": 7.8023255813953485,
          "velocity": 0.6614173228346457
        },
        {
          "duration": 0.058139534883721034,
          "durationTicks": 5,
          "midi": 26,
          "name": "D1",
          "ticks": 672,
          "time": 7.813953488372093,
          "velocity": 0.6929133858267716
        },
        {
          "duration": 0.19767441860465063,
          "durationTicks": 17,
          "midi": 76,
          "name": "E5",
          "ticks": 672,
          "time": 7.813953488372093,
          "velocity": 0.31496062992125984
        },
        {
          "duration": 0.03488372093023262,
          "durationTicks": 3,
          "midi": 50,
          "name": "D3",
          "ticks": 673,
          "time": 7.825581395348837,
          "velocity": 0.2992125984251969
        },
        {
          "duration": 0.1627906976744189,
          "durationTicks": 14,
          "midi": 72,
          "name": "C5",
          "ticks": 674,
          "time": 7.837209302325581,
          "velocity": 0.3937007874015748
        },
        {
          "duration": 0.011627906976744207,
          "durationTicks": 1,
          "midi": 25,
          "name": "C#1",
          "ticks": 677,
          "time": 7.872093023255814,
          "velocity": 0.6929133858267716
        },
        {
          "duration": 0.10465116279069786,
          "durationTicks": 9,
          "midi": 50,
          "name": "D3",
          "ticks": 677,
          "time": 7.872093023255814,
          "velocity": 0.3779527559055118
        },
        {
          "duration": 0.10465116279069786,
          "durationTicks": 9,
          "midi": 26,
          "name": "D1",
          "ticks": 678,
          "time": 7.883720930232558,
          "velocity": 0.6929133858267716
        },
        {
          "duration": 0.04651162790697683,
          "durationTicks": 4,
          "midi": 95,
          "name": "B6",
          "ticks": 678,
          "time": 7.883720930232558,
          "velocity": 0.11023622047244094
        },
        {
          "duration": 0.09302325581395365,
          "durationTicks": 8,
          "midi": 101,
          "name": "F7",
          "ticks": 682,
          "time": 7.930232558139535,
          "velocity": 0.2204724409448819
        },
        {
          "duration": 0.023255813953488413,
          "durationTicks": 2,
          "midi": 66,
          "name": "F#4",
          "ticks": 686,
          "time": 7.976744186046512,
          "velocity": 0.3858267716535433
        },
        {
          "duration": 0.023255813953488413,
          "durationTicks": 2,
          "midi": 74,
          "name": "D5",
          "ticks": 686,
          "time": 7.976744186046512,
          "velocity": 0.23622047244094488
        },
        {
          "duration": 1.7325581395348841,
          "durationTicks": 149,
          "midi": 86,
          "name": "D6",
          "ticks": 686,
          "time": 7.976744186046512,
          "velocity": 0.4015748031496063
        },
        {
          "duration": 0.011627906976744207,
          "durationTicks": 1,
          "midi": 28,
          "name": "E1",
          "ticks": 687,
          "time": 7.988372093023256,
          "velocity": 0.6062992125984252
        },
        {
          "duration": 0.011627906976744207,
          "durationTicks": 1,
          "midi": 50,
          "name": "D3",
          "ticks": 687,
          "time": 7.988372093023256,
          "velocity": 0.6299212598425197
        },
        {
          "duration": 0.25581395348837166,
          "durationTicks": 22,
          "midi": 79,
          "name": "G5",
          "ticks": 687,
          "time": 7.988372093023256,
          "velocity": 0.2992125984251969
        },
        {
          "duration": 0.011627906976743319,
          "durationTicks": 1,
          "midi": 48,
          "name": "C3",
          "ticks": 688,
          "time": 8,
          "velocity": 0.7007874015748031
        },
        {
          "duration": 0.023255813953488413,
          "durationTicks": 2,
          "midi": 65,
          "name": "F4",
          "ticks": 688,
          "time": 8,
          "velocity": 0.4645669291338583
        },
        {
          "duration": 0.011627906976745095,
          "durationTicks": 1,
          "midi": 41,
          "name": "F2",
          "ticks": 689,
          "time": 8.011627906976743,
          "velocity": 0.7244094488188977
        },
        {
          "duration": 0.46511627906976827,
          "durationTicks": 40,
          "midi": 74,
          "name": "D5",
          "ticks": 689,
          "time": 8.011627906976743,
          "velocity": 0.41732283464566927
        },
        {
          "duration": 0.011627906976743319,
          "durationTicks": 1,
          "midi": 37,
          "name": "C#2",
          "ticks": 690,
          "time": 8.023255813953488,
          "velocity": 0.7559055118110236
        },
        {
          "duration": 0.03488372093023173,
          "durationTicks": 3,
          "midi": 67,
          "name": "G4",
          "ticks": 690,
          "time": 8.023255813953488,
          "velocity": 0.2755905511811024
        },
        {
          "duration": 0.011627906976745095,
          "durationTicks": 1,
          "midi": 36,
          "name": "C2",
          "ticks": 691,
          "time": 8.034883720930232,
          "velocity": 0.7401574803149606
        },
        {
          "duration": 0.011627906976743319,
          "durationTicks": 1,
          "midi": 35,
          "name": "B1",
          "ticks": 692,
          "time": 8.046511627906977,
          "velocity": 0.6771653543307087
        },
        {
          "duration": 0.011627906976745095,
          "durationTicks": 1,
          "midi": 30,
          "name": "F#1",
          "ticks": 693,
          "time": 8.05813953488372,
          "velocity": 0.5984251968503937
        },
        {
          "duration": 0.06976744186046524,
          "durationTicks": 6,
          "midi": 69,
          "name": "A4",
          "ticks": 693,
          "time": 8.05813953488372,
          "velocity": 0.2125984251968504
        },
        {
          "duration": 0.011627906976743319,
          "durationTicks": 1,
          "midi": 23,
          "name": "B0",
          "ticks": 694,
          "time": 8.069767441860465,
          "velocity": 0.5275590551181102
        },
        {
          "duration": 0.1744186046511622,
          "durationTicks": 15,
          "midi": 62,
          "name": "D4",
          "ticks": 694,
          "time": 8.069767441860465,
          "velocity": 0.41732283464566927
        },
        {
          "duration": 0.1511627906976738,
          "durationTicks": 13,
          "midi": 95,
          "name": "B6",
          "ticks": 694,
          "time": 8.069767441860465,
          "velocity": 0.2125984251968504
        },
        {
          "duration": 0.011627906976745095,
          "durationTicks": 1,
          "midi": 27,
          "name": "D#1",
          "ticks": 695,
          "time": 8.081395348837209,
          "velocity": 0.5590551181102362
        },
        {
          "duration": 0.011627906976743319,
          "durationTicks": 1,
          "midi": 30,
          "name": "F#1",
          "ticks": 696,
          "time": 8.093023255813954,
          "velocity": 0.5669291338582677
        },
        {
          "duration": 0.3837209302325597,
          "durationTicks": 33,
          "midi": 31,
          "name": "G1",
          "ticks": 697,
          "time": 8.104651162790697,
          "velocity": 0.7086614173228346
        },
        {
          "duration": 0.1627906976744189,
          "durationTicks": 14,
          "midi": 55,
          "name": "G3",
          "ticks": 697,
          "time": 8.104651162790697,
          "velocity": 0.4251968503937008
        },
        {
          "duration": 0.03488372093023173,
          "durationTicks": 3,
          "midi": 72,
          "name": "C5",
          "ticks": 700,
          "time": 8.13953488372093,
          "velocity": 0.12598425196850394
        },
        {
          "duration": 0.1627906976744189,
          "durationTicks": 14,
          "midi": 93,
          "name": "A6",
          "ticks": 700,
          "time": 8.13953488372093,
          "velocity": 0.2992125984251969
        },
        {
          "duration": 0.023255813953488413,
          "durationTicks": 2,
          "midi": 44,
          "name": "G#2",
          "ticks": 701,
          "time": 8.151162790697674,
          "velocity": 0.3858267716535433
        },
        {
          "duration": 0.04651162790697683,
          "durationTicks": 4,
          "midi": 84,
          "name": "C6",
          "ticks": 703,
          "time": 8.174418604651162,
          "velocity": 0.23622047244094488
        },
        {
          "duration": 0.10465116279069875,
          "durationTicks": 9,
          "midi": 81,
          "name": "A5",
          "ticks": 707,
          "time": 8.220930232558139,
          "velocity": 0.2992125984251969
        },
        {
          "duration": 0.10465116279069875,
          "durationTicks": 9,
          "midi": 102,
          "name": "F#7",
          "ticks": 707,
          "time": 8.220930232558139,
          "velocity": 0.14173228346456693
        },
        {
          "duration": 0.1627906976744189,
          "durationTicks": 14,
          "midi": 83,
          "name": "B5",
          "ticks": 708,
          "time": 8.232558139534884,
          "velocity": 0.16535433070866143
        },
        {
          "duration": 0.08139534883721034,
          "durationTicks": 7,
          "midi": 96,
          "name": "C7",
          "ticks": 709,
          "time": 8.244186046511627,
          "velocity": 0.13385826771653545
        },
        {
          "duration": 0.06976744186046524,
          "durationTicks": 6,
          "midi": 62,
          "name": "D4",
          "ticks": 710,
          "time": 8.255813953488373,
          "velocity": 0.15748031496062992
        },
        {
          "duration": 0.1744186046511622,
          "durationTicks": 15,
          "midi": 79,
          "name": "G5",
          "ticks": 710,
          "time": 8.255813953488373,
          "velocity": 0.25984251968503935
        },
        {
          "duration": 0.05813953488372192,
          "durationTicks": 5,
          "midi": 55,
          "name": "G3",
          "ticks": 717,
          "time": 8.337209302325581,
          "velocity": 0.2755905511811024
        },
        {
          "duration": 0.023255813953488413,
          "durationTicks": 2,
          "midi": 56,
          "name": "G#3",
          "ticks": 722,
          "time": 8.395348837209303,
          "velocity": 0.2677165354330709
        },
        {
          "duration": 0.04651162790697683,
          "durationTicks": 4,
          "midi": 67,
          "name": "G4",
          "ticks": 723,
          "time": 8.406976744186046,
          "velocity": 0.15748031496062992
        },
        {
          "duration": 0.04651162790697683,
          "durationTicks": 4,
          "midi": 95,
          "name": "B6",
          "ticks": 723,
          "time": 8.406976744186046,
          "velocity": 0.07086614173228346
        },
        {
          "duration": 0.023255813953488413,
          "durationTicks": 2,
          "midi": 55,
          "name": "G3",
          "ticks": 724,
          "time": 8.418604651162791,
          "velocity": 0.2992125984251969
        },
        {
          "duration": 0.09302325581395188,
          "durationTicks": 8,
          "midi": 103,
          "name": "G7",
          "ticks": 724,
          "time": 8.418604651162791,
          "velocity": 0.25196850393700787
        },
        {
          "duration": 0.023255813953488413,
          "durationTicks": 2,
          "midi": 56,
          "name": "G#3",
          "ticks": 726,
          "time": 8.44186046511628,
          "velocity": 0.2677165354330709
        },
        {
          "duration": 0.10465116279069697,
          "durationTicks": 9,
          "midi": 91,
          "name": "G6",
          "ticks": 726,
          "time": 8.44186046511628,
          "velocity": 0.15748031496062992
        },
        {
          "duration": 0.03488372093023351,
          "durationTicks": 3,
          "midi": 83,
          "name": "B5",
          "ticks": 727,
          "time": 8.453488372093023,
          "velocity": 0.11023622047244094
        },
        {
          "duration": 0.09302325581395365,
          "durationTicks": 8,
          "midi": 89,
          "name": "F6",
          "ticks": 727,
          "time": 8.453488372093023,
          "velocity": 0.13385826771653545
        },
        {
          "duration": 0.04651162790697683,
          "durationTicks": 4,
          "midi": 93,
          "name": "A6",
          "ticks": 727,
          "time": 8.453488372093023,
          "velocity": 0.14960629921259844
        },
        {
          "duration": 0.1511627906976738,
          "durationTicks": 13,
          "midi": 97,
          "name": "C#7",
          "ticks": 727,
          "time": 8.453488372093023,
          "velocity": 0.2125984251968504
        },
        {
          "duration": 0.023255813953488413,
          "durationTicks": 2,
          "midi": 55,
          "name": "G3",
          "ticks": 728,
          "time": 8.465116279069768,
          "velocity": 0.4566929133858268
        },
        {
          "duration": 0.10465116279069697,
          "durationTicks": 9,
          "midi": 90,
          "name": "F#6",
          "ticks": 728,
          "time": 8.465116279069768,
          "velocity": 0.2125984251968504
        },
        {
          "duration": 0.058139534883720145,
          "durationTicks": 5,
          "midi": 65,
          "name": "F4",
          "ticks": 729,
          "time": 8.476744186046512,
          "velocity": 0.4881889763779528
        },
        {
          "duration": 0.023255813953488413,
          "durationTicks": 2,
          "midi": 70,
          "name": "A#4",
          "ticks": 729,
          "time": 8.476744186046512,
          "velocity": 0.3700787401574803
        },
        {
          "duration": 0.058139534883720145,
          "durationTicks": 5,
          "midi": 102,
          "name": "F#7",
          "ticks": 729,
          "time": 8.476744186046512,
          "velocity": 0.28346456692913385
        },
        {
          "duration": 0.011627906976743319,
          "durationTicks": 1,
          "midi": 34,
          "name": "A#1",
          "ticks": 730,
          "time": 8.488372093023257,
          "velocity": 0.5748031496062992
        },
        {
          "duration": 0.011627906976743319,
          "durationTicks": 1,
          "midi": 54,
          "name": "F#3",
          "ticks": 730,
          "time": 8.488372093023257,
          "velocity": 0.6062992125984252
        },
        {
          "duration": 0.04651162790697505,
          "durationTicks": 4,
          "midi": 85,
          "name": "C#6",
          "ticks": 730,
          "time": 8.488372093023257,
          "velocity": 0.15748031496062992
        },
        {
          "duration": 0.058139534883720145,
          "durationTicks": 5,
          "midi": 88,
          "name": "E6",
          "ticks": 730,
          "time": 8.488372093023257,
          "velocity": 0.14173228346456693
        },
        {
          "duration": 0.08139534883720856,
          "durationTicks": 7,
          "midi": 95,
          "name": "B6",
          "ticks": 730,
          "time": 8.488372093023257,
          "velocity": 0.15748031496062992
        },
        {
          "duration": 0.011627906976743319,
          "durationTicks": 1,
          "midi": 48,
          "name": "C3",
          "ticks": 731,
          "time": 8.5,
          "velocity": 0.6929133858267716
        },
        {
          "duration": 0.023255813953488413,
          "durationTicks": 2,
          "midi": 58,
          "name": "A#3",
          "ticks": 731,
          "time": 8.5,
          "velocity": 0.48031496062992124
        },
        {
          "duration": 0.023255813953488413,
          "durationTicks": 2,
          "midi": 69,
          "name": "A4",
          "ticks": 731,
          "time": 8.5,
          "velocity": 0.3700787401574803
        },
        {
          "duration": 0.03488372093023173,
          "durationTicks": 3,
          "midi": 71,
          "name": "B4",
          "ticks": 731,
          "time": 8.5,
          "velocity": 0.36220472440944884
        },
        {
          "duration": 0.06976744186046524,
          "durationTicks": 6,
          "midi": 78,
          "name": "F#5",
          "ticks": 731,
          "time": 8.5,
          "velocity": 0.31496062992125984
        },
        {
          "duration": 0.011627906976745095,
          "durationTicks": 1,
          "midi": 43,
          "name": "G2",
          "ticks": 732,
          "time": 8.511627906976743,
          "velocity": 0.7007874015748031
        },
        {
          "duration": 0.22093023255814082,
          "durationTicks": 19,
          "midi": 74,
          "name": "D5",
          "ticks": 732,
          "time": 8.511627906976743,
          "velocity": 0.41732283464566927
        },
        {
          "duration": 0.011627906976743319,
          "durationTicks": 1,
          "midi": 37,
          "name": "C#2",
          "ticks": 733,
          "time": 8.523255813953488,
          "velocity": 0.7480314960629921
        },
        {
          "duration": 0.10465116279069697,
          "durationTicks": 9,
          "midi": 96,
          "name": "C7",
          "ticks": 733,
          "time": 8.523255813953488,
          "velocity": 0.15748031496062992
        },
        {
          "duration": 0.011627906976745095,
          "durationTicks": 1,
          "midi": 36,
          "name": "C2",
          "ticks": 734,
          "time": 8.534883720930232,
          "velocity": 0.7559055118110236
        },
        {
          "duration": 0.31395348837209447,
          "durationTicks": 27,
          "midi": 62,
          "name": "D4",
          "ticks": 734,
          "time": 8.534883720930232,
          "velocity": 0.33070866141732286
        },
        {
          "duration": 0.011627906976743319,
          "durationTicks": 1,
          "midi": 34,
          "name": "A#1",
          "ticks": 735,
          "time": 8.546511627906977,
          "velocity": 0.7244094488188977
        },
        {
          "duration": 0.011627906976745095,
          "durationTicks": 1,
          "midi": 31,
          "name": "G1",
          "ticks": 736,
          "time": 8.55813953488372,
          "velocity": 0.7007874015748031
        },
        {
          "duration": 0.174418604651164,
          "durationTicks": 15,
          "midi": 79,
          "name": "G5",
          "ticks": 736,
          "time": 8.55813953488372,
          "velocity": 0.1889763779527559
        },
        {
          "duration": 0.011627906976743319,
          "durationTicks": 1,
          "midi": 30,
          "name": "F#1",
          "ticks": 737,
          "time": 8.569767441860465,
          "velocity": 0.5826771653543307
        },
        {
          "duration": 0.011627906976745095,
          "durationTicks": 1,
          "midi": 32,
          "name": "G#1",
          "ticks": 738,
          "time": 8.581395348837209,
          "velocity": 0.5354330708661418
        },
        {
          "duration": 0.39534883720930303,
          "durationTicks": 34,
          "midi": 31,
          "name": "G1",
          "ticks": 739,
          "time": 8.593023255813954,
          "velocity": 0.7086614173228346
        },
        {
          "duration": 0.1627906976744189,
          "durationTicks": 14,
          "midi": 55,
          "name": "G3",
          "ticks": 739,
          "time": 8.593023255813954,
          "velocity": 0.47244094488188976
        },
        {
          "duration": 0.04651162790697683,
          "durationTicks": 4,
          "midi": 89,
          "name": "F6",
          "ticks": 741,
          "time": 8.616279069767442,
          "velocity": 0.09448818897637795
        },
        {
          "duration": 0.10465116279069697,
          "durationTicks": 9,
          "midi": 81,
          "name": "A5",
          "ticks": 749,
          "time": 8.709302325581396,
          "velocity": 0.2755905511811024
        },
        {
          "duration": 0.04651162790697683,
          "durationTicks": 4,
          "midi": 83,
          "name": "B5",
          "ticks": 749,
          "time": 8.709302325581396,
          "velocity": 0.13385826771653545
        },
        {
          "duration": 0.1511627906976738,
          "durationTicks": 13,
          "midi": 93,
          "name": "A6",
          "ticks": 749,
          "time": 8.709302325581396,
          "velocity": 0.3228346456692913
        },
        {
          "duration": 0.06976744186046524,
          "durationTicks": 6,
          "midi": 89,
          "name": "F6",
          "ticks": 750,
          "time": 8.720930232558139,
          "velocity": 0.08661417322834646
        },
        {
          "duration": 0.03488372093023173,
          "durationTicks": 3,
          "midi": 73,
          "name": "C#5",
          "ticks": 751,
          "time": 8.732558139534884,
          "velocity": 0.2283464566929134
        },
        {
          "duration": 0.06976744186046524,
          "durationTicks": 6,
          "midi": 96,
          "name": "C7",
          "ticks": 752,
          "time": 8.744186046511627,
          "velocity": 0.07086614173228346
        },
        {
          "duration": 0.174418604651164,
          "durationTicks": 15,
          "midi": 97,
          "name": "C#7",
          "ticks": 752,
          "time": 8.744186046511627,
          "velocity": 0.11811023622047244
        },
        {
          "duration": 0.1627906976744189,
          "durationTicks": 14,
          "midi": 102,
          "name": "F#7",
          "ticks": 753,
          "time": 8.755813953488373,
          "velocity": 0.2755905511811024
        },
        {
          "duration": 0.023255813953488413,
          "durationTicks": 2,
          "midi": 67,
          "name": "G4",
          "ticks": 755,
          "time": 8.779069767441861,
          "velocity": 0.2283464566929134
        },
        {
          "duration": 0.10465116279069875,
          "durationTicks": 9,
          "midi": 55,
          "name": "G3",
          "ticks": 756,
          "time": 8.790697674418604,
          "velocity": 0.29133858267716534
        },
        {
          "duration": 0.05813953488372192,
          "durationTicks": 5,
          "midi": 78,
          "name": "F#5",
          "ticks": 756,
          "time": 8.790697674418604,
          "velocity": 0.14960629921259844
        },
        {
          "duration": 0.1860465116279073,
          "durationTicks": 16,
          "midi": 74,
          "name": "D5",
          "ticks": 757,
          "time": 8.80232558139535,
          "velocity": 0.4015748031496063
        },
        {
          "duration": 0.03488372093023173,
          "durationTicks": 3,
          "midi": 83,
          "name": "B5",
          "ticks": 757,
          "time": 8.80232558139535,
          "velocity": 0.14173228346456693
        },
        {
          "duration": 0.12790697674418716,
          "durationTicks": 11,
          "midi": 67,
          "name": "G4",
          "ticks": 758,
          "time": 8.813953488372093,
          "velocity": 0.2992125984251969
        },
        {
          "duration": 0.09302325581395365,
          "durationTicks": 8,
          "midi": 79,
          "name": "G5",
          "ticks": 761,
          "time": 8.848837209302326,
          "velocity": 0.3464566929133858
        },
        {
          "duration": 0.03488372093023173,
          "durationTicks": 3,
          "midi": 103,
          "name": "G7",
          "ticks": 761,
          "time": 8.848837209302326,
          "velocity": 0.15748031496062992
        },
        {
          "duration": 0.19767441860465063,
          "durationTicks": 17,
          "midi": 81,
          "name": "A5",
          "ticks": 763,
          "time": 8.872093023255815,
          "velocity": 0.33858267716535434
        },
        {
          "duration": 0.10465116279069875,
          "durationTicks": 9,
          "midi": 62,
          "name": "D4",
          "ticks": 764,
          "time": 8.883720930232558,
          "velocity": 0.29133858267716534
        },
        {
          "duration": 0.03488372093023351,
          "durationTicks": 3,
          "midi": 55,
          "name": "G3",
          "ticks": 766,
          "time": 8.906976744186046,
          "velocity": 0.11023622047244094
        },
        {
          "duration": 0.03488372093023351,
          "durationTicks": 3,
          "midi": 55,
          "name": "G3",
          "ticks": 770,
          "time": 8.953488372093023,
          "velocity": 0.3700787401574803
        },
        {
          "duration": 0.1627906976744189,
          "durationTicks": 14,
          "midi": 78,
          "name": "F#5",
          "ticks": 770,
          "time": 8.953488372093023,
          "velocity": 0.31496062992125984
        },
        {
          "duration": 0.023255813953488413,
          "durationTicks": 2,
          "midi": 69,
          "name": "A4",
          "ticks": 772,
          "time": 8.976744186046512,
          "velocity": 0.36220472440944884
        },
        {
          "duration": 0.023255813953488413,
          "durationTicks": 2,
          "midi": 80,
          "name": "G#5",
          "ticks": 772,
          "time": 8.976744186046512,
          "velocity": 0.25196850393700787
        },
        {
          "duration": 0.04651162790697683,
          "durationTicks": 4,
          "midi": 83,
          "name": "B5",
          "ticks": 772,
          "time": 8.976744186046512,
          "velocity": 0.23622047244094488
        },
        {
          "duration": 0.011627906976743319,
          "durationTicks": 1,
          "midi": 30,
          "name": "F#1",
          "ticks": 773,
          "time": 8.988372093023257,
          "velocity": 0.5826771653543307
        },
        {
          "duration": 0.011627906976743319,
          "durationTicks": 1,
          "midi": 51,
          "name": "D#3",
          "ticks": 773,
          "time": 8.988372093023257,
          "velocity": 0.6220472440944882
        },
        {
          "duration": 0.04651162790697505,
          "durationTicks": 4,
          "midi": 65,
          "name": "F4",
          "ticks": 773,
          "time": 8.988372093023257,
          "velocity": 0.47244094488188976
        },
        {
          "duration": 0.023255813953486637,
          "durationTicks": 2,
          "midi": 72,
          "name": "C5",
          "ticks": 773,
          "time": 8.988372093023257,
          "velocity": 0.33070866141732286
        },
        {
          "duration": 0.03488372093023173,
          "durationTicks": 3,
          "midi": 89,
          "name": "F6",
          "ticks": 773,
          "time": 8.988372093023257,
          "velocity": 0.16535433070866143
        },
        {
          "duration": 0.04651162790697505,
          "durationTicks": 4,
          "midi": 97,
          "name": "C#7",
          "ticks": 773,
          "time": 8.988372093023257,
          "velocity": 0.16535433070866143
        },
        {
          "duration": 0.011627906976743319,
          "durationTicks": 1,
          "midi": 48,
          "name": "C3",
          "ticks": 774,
          "time": 9,
          "velocity": 0.7244094488188977
        },
        {
          "duration": 0.023255813953488413,
          "durationTicks": 2,
          "midi": 79,
          "name": "G5",
          "ticks": 774,
          "time": 9,
          "velocity": 0.2440944881889764
        },
        {
          "duration": 0.011627906976745095,
          "durationTicks": 1,
          "midi": 42,
          "name": "F#2",
          "ticks": 775,
          "time": 9.011627906976743,
          "velocity": 0.7322834645669292
        },
        {
          "duration": 0.03488372093023351,
          "durationTicks": 3,
          "midi": 71,
          "name": "B4",
          "ticks": 775,
          "time": 9.011627906976743,
          "velocity": 0.2283464566929134
        },
        {
          "duration": 0.023255813953488413,
          "durationTicks": 2,
          "midi": 73,
          "name": "C#5",
          "ticks": 775,
          "time": 9.011627906976743,
          "velocity": 0.2283464566929134
        },
        {
          "duration": 0.011627906976743319,
          "durationTicks": 1,
          "midi": 37,
          "name": "C#2",
          "ticks": 776,
          "time": 9.023255813953488,
          "velocity": 0.7480314960629921
        },
        {
          "duration": 0.023255813953488413,
          "durationTicks": 2,
          "midi": 56,
          "name": "G#3",
          "ticks": 776,
          "time": 9.023255813953488,
          "velocity": 0.33070866141732286
        },
        {
          "duration": 0.023255813953488413,
          "durationTicks": 2,
          "midi": 61,
          "name": "C#4",
          "ticks": 776,
          "time": 9.023255813953488,
          "velocity": 0.2677165354330709
        },
        {
          "duration": 0.011627906976745095,
          "durationTicks": 1,
          "midi": 36,
          "name": "C2",
          "ticks": 777,
          "time": 9.034883720930232,
          "velocity": 0.7401574803149606
        },
        {
          "duration": 0.45348837209302495,
          "durationTicks": 39,
          "midi": 74,
          "name": "D5",
          "ticks": 777,
          "time": 9.034883720930232,
          "velocity": 0.44881889763779526
        },
        {
          "duration": 0.011627906976743319,
          "durationTicks": 1,
          "midi": 34,
          "name": "A#1",
          "ticks": 778,
          "time": 9.046511627906977,
          "velocity": 0.6771653543307087
        },
        {
          "duration": 0.023255813953488413,
          "durationTicks": 2,
          "midi": 55,
          "name": "G3",
          "ticks": 778,
          "time": 9.046511627906977,
          "velocity": 0.23622047244094488
        },
        {
          "duration": 0.09302325581395365,
          "durationTicks": 8,
          "midi": 62,
          "name": "D4",
          "ticks": 778,
          "time": 9.046511627906977,
          "velocity": 0.36220472440944884
        },
        {
          "duration": 0.011627906976745095,
          "durationTicks": 1,
          "midi": 30,
          "name": "F#1",
          "ticks": 779,
          "time": 9.05813953488372,
          "velocity": 0.6692913385826772
        },
        {
          "duration": 0.011627906976743319,
          "durationTicks": 1,
          "midi": 23,
          "name": "B0",
          "ticks": 780,
          "time": 9.069767441860465,
          "velocity": 0.5826771653543307
        },
        {
          "duration": 0.03488372093023173,
          "durationTicks": 3,
          "midi": 47,
          "name": "B2",
          "ticks": 780,
          "time": 9.069767441860465,
          "velocity": 0.3464566929133858
        },
        {
          "duration": 0.011627906976745095,
          "durationTicks": 1,
          "midi": 22,
          "name": "A#0",
          "ticks": 781,
          "time": 9.081395348837209,
          "velocity": 0.5118110236220472
        },
        {
          "duration": 0.03488372093023351,
          "durationTicks": 3,
          "midi": 82,
          "name": "A#5",
          "ticks": 781,
          "time": 9.081395348837209,
          "velocity": 0.16535433070866143
        },
        {
          "duration": 0.011627906976743319,
          "durationTicks": 1,
          "midi": 29,
          "name": "F1",
          "ticks": 782,
          "time": 9.093023255813954,
          "velocity": 0.5748031496062992
        },
        {
          "duration": 0.058139534883720145,
          "durationTicks": 5,
          "midi": 93,
          "name": "A6",
          "ticks": 782,
          "time": 9.093023255813954,
          "velocity": 0.09448818897637795
        },
        {
          "duration": 0.058139534883720145,
          "durationTicks": 5,
          "midi": 97,
          "name": "C#7",
          "ticks": 782,
          "time": 9.093023255813954,
          "velocity": 0.08661417322834646
        },
        {
          "duration": 0.011627906976745095,
          "durationTicks": 1,
          "midi": 31,
          "name": "G1",
          "ticks": 783,
          "time": 9.104651162790697,
          "velocity": 0.6377952755905512
        },
        {
          "duration": 0.08139534883721034,
          "durationTicks": 7,
          "midi": 79,
          "name": "G5",
          "ticks": 783,
          "time": 9.104651162790697,
          "velocity": 0.15748031496062992
        },
        {
          "duration": 0.08139534883721034,
          "durationTicks": 7,
          "midi": 81,
          "name": "A5",
          "ticks": 783,
          "time": 9.104651162790697,
          "velocity": 0.1732283464566929
        },
        {
          "duration": 0.023255813953488413,
          "durationTicks": 2,
          "midi": 32,
          "name": "G#1",
          "ticks": 784,
          "time": 9.116279069767442,
          "velocity": 0.6614173228346457
        },
        {
          "duration": 0.12790697674418539,
          "durationTicks": 11,
          "midi": 55,
          "name": "G3",
          "ticks": 784,
          "time": 9.116279069767442,
          "velocity": 0.4566929133858268
        },
        {
          "duration": 0.011627906976743319,
          "durationTicks": 1,
          "midi": 31,
          "name": "G1",
          "ticks": 786,
          "time": 9.13953488372093,
          "velocity": 0.6535433070866141
        },
        {
          "duration": 0.10465116279069697,
          "durationTicks": 9,
          "midi": 84,
          "name": "C6",
          "ticks": 786,
          "time": 9.13953488372093,
          "velocity": 0.1968503937007874
        },
        {
          "duration": 0.023255813953488413,
          "durationTicks": 2,
          "midi": 30,
          "name": "F#1",
          "ticks": 787,
          "time": 9.151162790697674,
          "velocity": 0.6771653543307087
        },
        {
          "duration": 0.023255813953488413,
          "durationTicks": 2,
          "midi": 62,
          "name": "D4",
          "ticks": 787,
          "time": 9.151162790697674,
          "velocity": 0.3937007874015748
        },
        {
          "duration": 0.058139534883720145,
          "durationTicks": 5,
          "midi": 88,
          "name": "E6",
          "ticks": 788,
          "time": 9.162790697674419,
          "velocity": 0.11811023622047244
        },
        {
          "duration": 0.31395348837209447,
          "durationTicks": 27,
          "midi": 31,
          "name": "G1",
          "ticks": 789,
          "time": 9.174418604651162,
          "velocity": 0.7086614173228346
        },
        {
          "duration": 0.023255813953488413,
          "durationTicks": 2,
          "midi": 62,
          "name": "D4",
          "ticks": 790,
          "time": 9.186046511627907,
          "velocity": 0.3937007874015748
        },
        {
          "duration": 0.11627906976744207,
          "durationTicks": 10,
          "midi": 93,
          "name": "A6",
          "ticks": 791,
          "time": 9.19767441860465,
          "velocity": 0.2204724409448819
        },
        {
          "duration": 0.023255813953488413,
          "durationTicks": 2,
          "midi": 61,
          "name": "C#4",
          "ticks": 792,
          "time": 9.209302325581396,
          "velocity": 0.4566929133858268
        },
        {
          "duration": 0.058139534883720145,
          "durationTicks": 5,
          "midi": 102,
          "name": "F#7",
          "ticks": 792,
          "time": 9.209302325581396,
          "velocity": 0.16535433070866143
        },
        {
          "duration": 0.08139534883721034,
          "durationTicks": 7,
          "midi": 72,
          "name": "C5",
          "ticks": 793,
          "time": 9.220930232558139,
          "velocity": 0.25984251968503935
        },
        {
          "duration": 0.06976744186046524,
          "durationTicks": 6,
          "midi": 81,
          "name": "A5",
          "ticks": 794,
          "time": 9.232558139534884,
          "velocity": 0.2125984251968504
        },
        {
          "duration": 0.023255813953488413,
          "durationTicks": 2,
          "midi": 54,
          "name": "F#3",
          "ticks": 795,
          "time": 9.244186046511627,
          "velocity": 0.3464566929133858
        },
        {
          "duration": 0.023255813953488413,
          "durationTicks": 2,
          "midi": 61,
          "name": "C#4",
          "ticks": 795,
          "time": 9.244186046511627,
          "velocity": 0.36220472440944884
        },
        {
          "duration": 0.03488372093023351,
          "durationTicks": 3,
          "midi": 65,
          "name": "F4",
          "ticks": 795,
          "time": 9.244186046511627,
          "velocity": 0.23622047244094488
        },
        {
          "duration": 0.05813953488372192,
          "durationTicks": 5,
          "midi": 78,
          "name": "F#5",
          "ticks": 795,
          "time": 9.244186046511627,
          "velocity": 0.12598425196850394
        },
        {
          "duration": 0.09302325581395365,
          "durationTicks": 8,
          "midi": 91,
          "name": "G6",
          "ticks": 795,
          "time": 9.244186046511627,
          "velocity": 0.12598425196850394
        },
        {
          "duration": 0.03488372093023351,
          "durationTicks": 3,
          "midi": 62,
          "name": "D4",
          "ticks": 797,
          "time": 9.267441860465116,
          "velocity": 0.2992125984251969
        },
        {
          "duration": 0.04651162790697683,
          "durationTicks": 4,
          "midi": 79,
          "name": "G5",
          "ticks": 798,
          "time": 9.279069767441861,
          "velocity": 0.14960629921259844
        },
        {
          "duration": 0.03488372093023173,
          "durationTicks": 3,
          "midi": 83,
          "name": "B5",
          "ticks": 798,
          "time": 9.279069767441861,
          "velocity": 0.12598425196850394
        },
        {
          "duration": 0.08139534883721034,
          "durationTicks": 7,
          "midi": 60,
          "name": "C4",
          "ticks": 801,
          "time": 9.313953488372093,
          "velocity": 0.44881889763779526
        },
        {
          "duration": 0.04651162790697683,
          "durationTicks": 4,
          "midi": 84,
          "name": "C6",
          "ticks": 801,
          "time": 9.313953488372093,
          "velocity": 0.1732283464566929
        },
        {
          "duration": 0.04651162790697683,
          "durationTicks": 4,
          "midi": 88,
          "name": "E6",
          "ticks": 802,
          "time": 9.325581395348838,
          "velocity": 0.11023622047244094
        },
        {
          "duration": 0.20930232558139394,
          "durationTicks": 18,
          "midi": 93,
          "name": "A6",
          "ticks": 804,
          "time": 9.348837209302326,
          "velocity": 0.2440944881889764
        },
        {
          "duration": 0.1395348837209287,
          "durationTicks": 12,
          "midi": 84,
          "name": "C6",
          "ticks": 806,
          "time": 9.372093023255815,
          "velocity": 0.2047244094488189
        },
        {
          "duration": 0.05813953488372192,
          "durationTicks": 5,
          "midi": 60,
          "name": "C4",
          "ticks": 809,
          "time": 9.406976744186046,
          "velocity": 0.3464566929133858
        },
        {
          "duration": 0.05813953488372192,
          "durationTicks": 5,
          "midi": 67,
          "name": "G4",
          "ticks": 809,
          "time": 9.406976744186046,
          "velocity": 0.15748031496062992
        },
        {
          "duration": 0.08139534883721034,
          "durationTicks": 7,
          "midi": 71,
          "name": "B4",
          "ticks": 809,
          "time": 9.406976744186046,
          "velocity": 0.30708661417322836
        },
        {
          "duration": 0.11627906976744207,
          "durationTicks": 10,
          "midi": 77,
          "name": "F5",
          "ticks": 809,
          "time": 9.406976744186046,
          "velocity": 0.1968503937007874
        },
        {
          "duration": 0.03488372093023351,
          "durationTicks": 3,
          "midi": 81,
          "name": "A5",
          "ticks": 811,
          "time": 9.430232558139535,
          "velocity": 0.16535433070866143
        },
        {
          "duration": 0.03488372093023173,
          "durationTicks": 3,
          "midi": 80,
          "name": "G#5",
          "ticks": 814,
          "time": 9.465116279069768,
          "velocity": 0.2047244094488189
        },
        {
          "duration": 0.04651162790697683,
          "durationTicks": 4,
          "midi": 72,
          "name": "C5",
          "ticks": 815,
          "time": 9.476744186046512,
          "velocity": 0.3464566929133858
        },
        {
          "duration": 0.1744186046511622,
          "durationTicks": 15,
          "midi": 81,
          "name": "A5",
          "ticks": 815,
          "time": 9.476744186046512,
          "velocity": 0.3858267716535433
        },
        {
          "duration": 0.011627906976743319,
          "durationTicks": 1,
          "midi": 30,
          "name": "F#1",
          "ticks": 816,
          "time": 9.488372093023257,
          "velocity": 0.6141732283464567
        },
        {
          "duration": 0.011627906976743319,
          "durationTicks": 1,
          "midi": 53,
          "name": "F3",
          "ticks": 816,
          "time": 9.488372093023257,
          "velocity": 0.5748031496062992
        },
        {
          "duration": 0.023255813953486637,
          "durationTicks": 2,
          "midi": 70,
          "name": "A#4",
          "ticks": 816,
          "time": 9.488372093023257,
          "velocity": 0.3464566929133858
        },
        {
          "duration": 0.1511627906976738,
          "durationTicks": 13,
          "midi": 91,
          "name": "G6",
          "ticks": 816,
          "time": 9.488372093023257,
          "velocity": 0.23622047244094488
        },
        {
          "duration": 0.11627906976744029,
          "durationTicks": 10,
          "midi": 95,
          "name": "B6",
          "ticks": 816,
          "time": 9.488372093023257,
          "velocity": 0.15748031496062992
        },
        {
          "duration": 0.04651162790697505,
          "durationTicks": 4,
          "midi": 100,
          "name": "E7",
          "ticks": 816,
          "time": 9.488372093023257,
          "velocity": 0.14960629921259844
        },
        {
          "duration": 0.011627906976743319,
          "durationTicks": 1,
          "midi": 48,
          "name": "C3",
          "ticks": 817,
          "time": 9.5,
          "velocity": 0.6929133858267716
        },
        {
          "duration": 0.023255813953488413,
          "durationTicks": 2,
          "midi": 65,
          "name": "F4",
          "ticks": 817,
          "time": 9.5,
          "velocity": 0.4645669291338583
        },
        {
          "duration": 0.06976744186046524,
          "durationTicks": 6,
          "midi": 83,
          "name": "B5",
          "ticks": 817,
          "time": 9.5,
          "velocity": 0.23622047244094488
        },
        {
          "duration": 0.058139534883720145,
          "durationTicks": 5,
          "midi": 88,
          "name": "E6",
          "ticks": 817,
          "time": 9.5,
          "velocity": 0.2283464566929134
        },
        {
          "duration": 0.04651162790697683,
          "durationTicks": 4,
          "midi": 90,
          "name": "F#6",
          "ticks": 817,
          "time": 9.5,
          "velocity": 0.16535433070866143
        },
        {
          "duration": 0.011627906976745095,
          "durationTicks": 1,
          "midi": 43,
          "name": "G2",
          "ticks": 818,
          "time": 9.511627906976743,
          "velocity": 0.7165354330708661
        },
        {
          "duration": 0.023255813953488413,
          "durationTicks": 2,
          "midi": 58,
          "name": "A#3",
          "ticks": 818,
          "time": 9.511627906976743,
          "velocity": 0.3464566929133858
        },
        {
          "duration": 0.23255813953488413,
          "durationTicks": 20,
          "midi": 71,
          "name": "B4",
          "ticks": 818,
          "time": 9.511627906976743,
          "velocity": 0.3937007874015748
        },
        {
          "duration": 0.011627906976743319,
          "durationTicks": 1,
          "midi": 37,
          "name": "C#2",
          "ticks": 819,
          "time": 9.523255813953488,
          "velocity": 0.7559055118110236
        },
        {
          "duration": 0.023255813953488413,
          "durationTicks": 2,
          "midi": 66,
          "name": "F#4",
          "ticks": 819,
          "time": 9.523255813953488,
          "velocity": 0.23622047244094488
        },
        {
          "duration": 0.03488372093023173,
          "durationTicks": 3,
          "midi": 101,
          "name": "F7",
          "ticks": 819,
          "time": 9.523255813953488,
          "velocity": 0.11811023622047244
        },
        {
          "duration": 0.011627906976745095,
          "durationTicks": 1,
          "midi": 36,
          "name": "C2",
          "ticks": 820,
          "time": 9.534883720930232,
          "velocity": 0.7637795275590551
        },
        {
          "duration": 0.04651162790697683,
          "durationTicks": 4,
          "midi": 67,
          "name": "G4",
          "ticks": 820,
          "time": 9.534883720930232,
          "velocity": 0.30708661417322836
        },
        {
          "duration": 0.03488372093023351,
          "durationTicks": 3,
          "midi": 75,
          "name": "D#5",
          "ticks": 820,
          "time": 9.534883720930232,
          "velocity": 0.16535433070866143
        },
        {
          "duration": 0.03488372093023351,
          "durationTicks": 3,
          "midi": 94,
          "name": "A#6",
          "ticks": 820,
          "time": 9.534883720930232,
          "velocity": 0.07086614173228346
        },
        {
          "duration": 0.011627906976743319,
          "durationTicks": 1,
          "midi": 35,
          "name": "B1",
          "ticks": 821,
          "time": 9.546511627906977,
          "velocity": 0.7322834645669292
        },
        {
          "duration": 0.023255813953488413,
          "durationTicks": 2,
          "midi": 60,
          "name": "C4",
          "ticks": 821,
          "time": 9.546511627906977,
          "velocity": 0.25196850393700787
        },
        {
          "duration": 0.011627906976745095,
          "durationTicks": 1,
          "midi": 32,
          "name": "G#1",
          "ticks": 822,
          "time": 9.55813953488372,
          "velocity": 0.6771653543307087
        },
        {
          "duration": 0.04651162790697683,
          "durationTicks": 4,
          "midi": 62,
          "name": "D4",
          "ticks": 822,
          "time": 9.55813953488372,
          "velocity": 0.25984251968503935
        },
        {
          "duration": 0.011627906976743319,
          "durationTicks": 1,
          "midi": 34,
          "name": "A#1",
          "ticks": 823,
          "time": 9.569767441860465,
          "velocity": 0.5669291338582677
        },
        {
          "duration": 0.06976744186046524,
          "durationTicks": 6,
          "midi": 69,
          "name": "A4",
          "ticks": 823,
          "time": 9.569767441860465,
          "velocity": 0.3858267716535433
        },
        {
          "duration": 0.011627906976745095,
          "durationTicks": 1,
          "midi": 35,
          "name": "B1",
          "ticks": 824,
          "time": 9.581395348837209,
          "velocity": 0.5275590551181102
        },
        {
          "duration": 0.023255813953488413,
          "durationTicks": 2,
          "midi": 58,
          "name": "A#3",
          "ticks": 824,
          "time": 9.581395348837209,
          "velocity": 0.25196850393700787
        },
        {
          "duration": 0.03488372093023351,
          "durationTicks": 3,
          "midi": 90,
          "name": "F#6",
          "ticks": 824,
          "time": 9.581395348837209,
          "velocity": 0.1889763779527559
        },
        {
          "duration": 0.40697674418604635,
          "durationTicks": 35,
          "midi": 34,
          "name": "A#1",
          "ticks": 825,
          "time": 9.593023255813954,
          "velocity": 0.7165354330708661
        },
        {
          "duration": 0.03488372093023173,
          "durationTicks": 3,
          "midi": 84,
          "name": "C6",
          "ticks": 825,
          "time": 9.593023255813954,
          "velocity": 0.07874015748031496
        },
        {
          "duration": 0.023255813953488413,
          "durationTicks": 2,
          "midi": 60,
          "name": "C4",
          "ticks": 826,
          "time": 9.604651162790697,
          "velocity": 0.36220472440944884
        },
        {
          "duration": 0.10465116279069875,
          "durationTicks": 9,
          "midi": 99,
          "name": "D#7",
          "ticks": 826,
          "time": 9.604651162790697,
          "velocity": 0.11811023622047244
        },
        {
          "duration": 0.1511627906976738,
          "durationTicks": 13,
          "midi": 65,
          "name": "F4",
          "ticks": 827,
          "time": 9.616279069767442,
          "velocity": 0.4409448818897638
        },
        {
          "duration": 0.12790697674418539,
          "durationTicks": 11,
          "midi": 77,
          "name": "F5",
          "ticks": 827,
          "time": 9.616279069767442,
          "velocity": 0.5905511811023622
        },
        {
          "duration": 0.058139534883720145,
          "durationTicks": 5,
          "midi": 96,
          "name": "C7",
          "ticks": 827,
          "time": 9.616279069767442,
          "velocity": 0.16535433070866143
        },
        {
          "duration": 0.023255813953488413,
          "durationTicks": 2,
          "midi": 60,
          "name": "C4",
          "ticks": 829,
          "time": 9.63953488372093,
          "velocity": 0.3700787401574803
        },
        {
          "duration": 0.09302325581395365,
          "durationTicks": 8,
          "midi": 74,
          "name": "D5",
          "ticks": 830,
          "time": 9.651162790697674,
          "velocity": 0.3464566929133858
        },
        {
          "duration": 0.03488372093023351,
          "durationTicks": 3,
          "midi": 90,
          "name": "F#6",
          "ticks": 830,
          "time": 9.651162790697674,
          "velocity": 0.11811023622047244
        },
        {
          "duration": 0.023255813953488413,
          "durationTicks": 2,
          "midi": 59,
          "name": "B3",
          "ticks": 831,
          "time": 9.662790697674419,
          "velocity": 0.36220472440944884
        },
        {
          "duration": 0.04651162790697683,
          "durationTicks": 4,
          "midi": 93,
          "name": "A6",
          "ticks": 832,
          "time": 9.674418604651162,
          "velocity": 0.14960629921259844
        },
        {
          "duration": 0.04651162790697683,
          "durationTicks": 4,
          "midi": 58,
          "name": "A#3",
          "ticks": 834,
          "time": 9.69767441860465,
          "velocity": 0.4645669291338583
        },
        {
          "duration": 0.08139534883720856,
          "durationTicks": 7,
          "midi": 81,
          "name": "A5",
          "ticks": 837,
          "time": 9.732558139534884,
          "velocity": 0.25196850393700787
        },
        {
          "duration": 0.03488372093023173,
          "durationTicks": 3,
          "midi": 99,
          "name": "D#7",
          "ticks": 837,
          "time": 9.732558139534884,
          "velocity": 0.09448818897637795
        },
        {
          "duration": 0.023255813953488413,
          "durationTicks": 2,
          "midi": 57,
          "name": "A3",
          "ticks": 838,
          "time": 9.744186046511627,
          "velocity": 0.4330708661417323
        },
        {
          "duration": 0.27906976744186096,
          "durationTicks": 24,
          "midi": 76,
          "name": "E5",
          "ticks": 838,
          "time": 9.744186046511627,
          "velocity": 0.3937007874015748
        },
        {
          "duration": 0.09302325581395365,
          "durationTicks": 8,
          "midi": 84,
          "name": "C6",
          "ticks": 838,
          "time": 9.744186046511627,
          "velocity": 0.2440944881889764
        },
        {
          "duration": 0.25581395348837255,
          "durationTicks": 22,
          "midi": 93,
          "name": "A6",
          "ticks": 838,
          "time": 9.744186046511627,
          "velocity": 0.25984251968503935
        },
        {
          "duration": 0.023255813953488413,
          "durationTicks": 2,
          "midi": 71,
          "name": "B4",
          "ticks": 839,
          "time": 9.755813953488373,
          "velocity": 0.3700787401574803
        },
        {
          "duration": 0.26744186046511587,
          "durationTicks": 23,
          "midi": 74,
          "name": "D5",
          "ticks": 839,
          "time": 9.755813953488373,
          "velocity": 0.5669291338582677
        },
        {
          "duration": 0.03488372093023173,
          "durationTicks": 3,
          "midi": 100,
          "name": "E7",
          "ticks": 839,
          "time": 9.755813953488373,
          "velocity": 0.13385826771653545
        },
        {
          "duration": 0.08139534883721034,
          "durationTicks": 7,
          "midi": 55,
          "name": "G3",
          "ticks": 840,
          "time": 9.767441860465116,
          "velocity": 0.4094488188976378
        },
        {
          "duration": 0.023255813953488413,
          "durationTicks": 2,
          "midi": 62,
          "name": "D4",
          "ticks": 840,
          "time": 9.767441860465116,
          "velocity": 0.2992125984251969
        },
        {
          "duration": 0.24418604651162745,
          "durationTicks": 21,
          "midi": 69,
          "name": "A4",
          "ticks": 840,
          "time": 9.767441860465116,
          "velocity": 0.6220472440944882
        },
        {
          "duration": 0.03488372093023173,
          "durationTicks": 3,
          "midi": 79,
          "name": "G5",
          "ticks": 841,
          "time": 9.779069767441861,
          "velocity": 0.07086614173228346
        },
        {
          "duration": 0.06976744186046524,
          "durationTicks": 6,
          "midi": 62,
          "name": "D4",
          "ticks": 843,
          "time": 9.80232558139535,
          "velocity": 0.4409448818897638
        },
        {
          "duration": 0.058139534883720145,
          "durationTicks": 5,
          "midi": 72,
          "name": "C5",
          "ticks": 843,
          "time": 9.80232558139535,
          "velocity": 0.2440944881889764
        },
        {
          "duration": 0.11627906976744207,
          "durationTicks": 10,
          "midi": 83,
          "name": "B5",
          "ticks": 843,
          "time": 9.80232558139535,
          "velocity": 0.12598425196850394
        },
        {
          "duration": 0.05813953488372192,
          "durationTicks": 5,
          "midi": 95,
          "name": "B6",
          "ticks": 844,
          "time": 9.813953488372093,
          "velocity": 0.12598425196850394
        },
        {
          "duration": 0.03488372093023173,
          "durationTicks": 3,
          "midi": 91,
          "name": "G6",
          "ticks": 845,
          "time": 9.825581395348838,
          "velocity": 0.07086614173228346
        },
        {
          "duration": 0.03488372093023173,
          "durationTicks": 3,
          "midi": 97,
          "name": "C#7",
          "ticks": 847,
          "time": 9.848837209302326,
          "velocity": 0.08661417322834646
        },
        {
          "duration": 0.023255813953488413,
          "durationTicks": 2,
          "midi": 56,
          "name": "G#3",
          "ticks": 849,
          "time": 9.872093023255815,
          "velocity": 0.3543307086614173
        },
        {
          "duration": 0.05813953488372192,
          "durationTicks": 5,
          "midi": 62,
          "name": "D4",
          "ticks": 850,
          "time": 9.883720930232558,
          "velocity": 0.2755905511811024
        },
        {
          "duration": 0.058139534883720145,
          "durationTicks": 5,
          "midi": 57,
          "name": "A3",
          "ticks": 851,
          "time": 9.895348837209303,
          "velocity": 0.28346456692913385
        },
        {
          "duration": 0.058139534883720145,
          "durationTicks": 5,
          "midi": 100,
          "name": "E7",
          "ticks": 851,
          "time": 9.895348837209303,
          "velocity": 0.10236220472440945
        },
        {
          "duration": 0.04651162790697683,
          "durationTicks": 4,
          "midi": 72,
          "name": "C5",
          "ticks": 852,
          "time": 9.906976744186046,
          "velocity": 0.11023622047244094
        },
        {
          "duration": 0.04651162790697683,
          "durationTicks": 4,
          "midi": 95,
          "name": "B6",
          "ticks": 852,
          "time": 9.906976744186046,
          "velocity": 0.13385826771653545
        },
        {
          "duration": 0.04651162790697683,
          "durationTicks": 4,
          "midi": 97,
          "name": "C#7",
          "ticks": 853,
          "time": 9.918604651162791,
          "velocity": 0.07086614173228346
        },
        {
          "duration": 0.10465116279069697,
          "durationTicks": 9,
          "midi": 98,
          "name": "D7",
          "ticks": 853,
          "time": 9.918604651162791,
          "velocity": 0.1889763779527559
        },
        {
          "duration": 0.058139534883720145,
          "durationTicks": 5,
          "midi": 99,
          "name": "D#7",
          "ticks": 853,
          "time": 9.918604651162791,
          "velocity": 0.09448818897637795
        },
        {
          "duration": 0.05813953488372192,
          "durationTicks": 5,
          "midi": 85,
          "name": "C#6",
          "ticks": 854,
          "time": 9.930232558139535,
          "velocity": 0.11023622047244094
        },
        {
          "duration": 0.03488372093023351,
          "durationTicks": 3,
          "midi": 91,
          "name": "G6",
          "ticks": 854,
          "time": 9.930232558139535,
          "velocity": 0.12598425196850394
        },
        {
          "duration": 0.06976744186046346,
          "durationTicks": 6,
          "midi": 65,
          "name": "F4",
          "ticks": 855,
          "time": 9.94186046511628,
          "velocity": 0.36220472440944884
        },
        {
          "duration": 0.03488372093023173,
          "durationTicks": 3,
          "midi": 57,
          "name": "A3",
          "ticks": 857,
          "time": 9.965116279069768,
          "velocity": 0.5118110236220472
        },
        {
          "duration": 0.04651162790697505,
          "durationTicks": 4,
          "midi": 79,
          "name": "G5",
          "ticks": 857,
          "time": 9.965116279069768,
          "velocity": 0.2283464566929134
        },
        {
          "duration": 0.04651162790697683,
          "durationTicks": 4,
          "midi": 72,
          "name": "C5",
          "ticks": 858,
          "time": 9.976744186046512,
          "velocity": 0.36220472440944884
        },
        {
          "duration": 0.03488372093023173,
          "durationTicks": 3,
          "midi": 83,
          "name": "B5",
          "ticks": 858,
          "time": 9.976744186046512,
          "velocity": 0.2047244094488189
        },
        {
          "duration": 0.011627906976743319,
          "durationTicks": 1,
          "midi": 36,
          "name": "C2",
          "ticks": 860,
          "time": 10,
          "velocity": 0.5118110236220472
        },
        {
          "duration": 0.023255813953488413,
          "durationTicks": 2,
          "midi": 48,
          "name": "C3",
          "ticks": 860,
          "time": 10,
          "velocity": 0.7086614173228346
        },
        {
          "duration": 0.023255813953488413,
          "durationTicks": 2,
          "midi": 66,
          "name": "F#4",
          "ticks": 861,
          "time": 10.011627906976743,
          "velocity": 0.36220472440944884
        },
        {
          "duration": 0.023255813953488413,
          "durationTicks": 2,
          "midi": 70,
          "name": "A#4",
          "ticks": 861,
          "time": 10.011627906976743,
          "velocity": 0.30708661417322836
        }
      ],
      "endOfTrackTicks": 863
    }
  ]
}
