{
  "header": {
    "keySignatures": [],
    "meta": [],
    "name": "",
    "ppq": 384,
    "tempos": [
      {
        "bpm": 120,
        "ticks": 0
      }
    ],
    "timeSignatures": [
      {
        "ticks": 0,
        "timeSignature": [
          4,
          4
        ],
        "measures": 0
      }
    ]
  },
  "tracks": [
    {
      "channel": 0,
      "controlChanges": {
        "7": [
          {
            "number": 7,
            "ticks": 1536,
            "time": 2,
            "value": 1
          }
        ],
        "10": [
          {
            "number": 10,
            "ticks": 1536,
            "time": 2,
            "value": 0.5196850393700787
          }
        ]
      },
      "pitchBends": [],
      "instrument": {
        "family": "piano",
        "number": 0,
        "name": "acoustic grand piano"
      },
      "name": "MUTE GTR",
      "notes": [],
      "endOfTrackTicks": 162462
    },
    {
      "channel": 0,
      "controlChanges": {},
      "pitchBends": [
        {
          "ticks": 162270,
          "time": 211.2890625,
          "value": 0
        }
      ],
      "instrument": {
        "family": "guitar",
        "number": 28,
        "name": "electric guitar (muted)"
      },
      "name": "",
      "notes": [
        {
          "duration": 0.0572916666666643,
          "durationTicks": 44,
          "midi": 57,
          "name": "A3",
          "ticks": 16646,
          "time": 21.674479166666668,
          "velocity": 0.8818897637795275
        },
        {
          "duration": 0.0625,
          "durationTicks": 48,
          "midi": 57,
          "name": "A3",
          "ticks": 16744,
          "time": 21.802083333333332,
          "velocity": 0.8740157480314961
        },
        {
          "duration": 0.0546875,
          "durationTicks": 42,
          "midi": 57,
          "name": "A3",
          "ticks": 16844,
          "time": 21.932291666666668,
          "velocity": 0.8818897637795275
        },
        {
          "duration": 0.0807291666666643,
          "durationTicks": 62,
          "midi": 57,
          "name": "A3",
          "ticks": 16946,
          "time": 22.065104166666668,
          "velocity": 0.8818897637795275
        },
        {
          "duration": 0.1484375,
          "durationTicks": 114,
          "midi": 55,
          "name": "G3",
          "ticks": 17044,
          "time": 22.192708333333332,
          "velocity": 0.8582677165354331
        },
        {
          "duration": 0.09895833333333215,
          "durationTicks": 76,
          "midi": 57,
          "name": "A3",
          "ticks": 17144,
          "time": 22.322916666666668,
          "velocity": 0.8740157480314961
        },
        {
          "duration": 0.1666666666666643,
          "durationTicks": 128,
          "midi": 59,
          "name": "B3",
          "ticks": 17246,
          "time": 22.455729166666668,
          "velocity": 0.889763779527559
        },
        {
          "duration": 0.11979166666666785,
          "durationTicks": 92,
          "midi": 59,
          "name": "B3",
          "ticks": 17446,
          "time": 22.716145833333332,
          "velocity": 0.8740157480314961
        },
        {
          "duration": 0.05729166666666785,
          "durationTicks": 44,
          "midi": 57,
          "name": "A3",
          "ticks": 17736,
          "time": 23.09375,
          "velocity": 0.889763779527559
        },
        {
          "duration": 0.08854166666666785,
          "durationTicks": 68,
          "midi": 57,
          "name": "A3",
          "ticks": 17836,
          "time": 23.223958333333332,
          "velocity": 0.889763779527559
        },
        {
          "duration": 0.08333333333333215,
          "durationTicks": 64,
          "midi": 59,
          "name": "B3",
          "ticks": 17934,
          "time": 23.3515625,
          "velocity": 0.905511811023622
        },
        {
          "duration": 0.1588541666666643,
          "durationTicks": 122,
          "midi": 60,
          "name": "C4",
          "ticks": 18038,
          "time": 23.486979166666668,
          "velocity": 0.8818897637795275
        },
        {
          "duration": 0.15625,
          "durationTicks": 120,
          "midi": 60,
          "name": "C4",
          "ticks": 18234,
          "time": 23.7421875,
          "velocity": 0.8818897637795275
        },
        {
          "duration": 0.09375,
          "durationTicks": 72,
          "midi": 59,
          "name": "B3",
          "ticks": 18628,
          "time": 24.255208333333332,
          "velocity": 0.905511811023622
        },
        {
          "duration": 0.1848958333333357,
          "durationTicks": 142,
          "midi": 60,
          "name": "C4",
          "ticks": 18724,
          "time": 24.380208333333332,
          "velocity": 0.8267716535433071
        },
        {
          "duration": 0.234375,
          "durationTicks": 180,
          "midi": 59,
          "name": "B3",
          "ticks": 18826,
          "time": 24.513020833333332,
          "velocity": 0.905511811023622
        },
        {
          "duration": 0.22395833333333215,
          "durationTicks": 172,
          "midi": 55,
          "name": "G3",
          "ticks": 19022,
          "time": 24.768229166666668,
          "velocity": 0.84251968503937
        },
        {
          "duration": 0.05729166666666785,
          "durationTicks": 44,
          "midi": 57,
          "name": "A3",
          "ticks": 19818,
          "time": 25.8046875,
          "velocity": 0.905511811023622
        },
        {
          "duration": 0.06770833333333215,
          "durationTicks": 52,
          "midi": 57,
          "name": "A3",
          "ticks": 19914,
          "time": 25.9296875,
          "velocity": 0.8976377952755905
        },
        {
          "duration": 0.05208333333333215,
          "durationTicks": 40,
          "midi": 57,
          "name": "A3",
          "ticks": 20016,
          "time": 26.0625,
          "velocity": 0.8818897637795275
        },
        {
          "duration": 0.09114583333333215,
          "durationTicks": 70,
          "midi": 57,
          "name": "A3",
          "ticks": 20112,
          "time": 26.1875,
          "velocity": 0.889763779527559
        },
        {
          "duration": 0.11979166666666785,
          "durationTicks": 92,
          "midi": 55,
          "name": "G3",
          "ticks": 20212,
          "time": 26.317708333333332,
          "velocity": 0.8818897637795275
        },
        {
          "duration": 0.14583333333333215,
          "durationTicks": 112,
          "midi": 57,
          "name": "A3",
          "ticks": 20310,
          "time": 26.4453125,
          "velocity": 0.8818897637795275
        },
        {
          "duration": 0.1640625,
          "durationTicks": 126,
          "midi": 59,
          "name": "B3",
          "ticks": 20414,
          "time": 26.580729166666668,
          "velocity": 0.8976377952755905
        },
        {
          "duration": 0.1145833333333357,
          "durationTicks": 88,
          "midi": 59,
          "name": "B3",
          "ticks": 20608,
          "time": 26.833333333333332,
          "velocity": 0.905511811023622
        },
        {
          "duration": 0.05729166666666785,
          "durationTicks": 44,
          "midi": 57,
          "name": "A3",
          "ticks": 20904,
          "time": 27.21875,
          "velocity": 0.889763779527559
        },
        {
          "duration": 0.09635416666666785,
          "durationTicks": 74,
          "midi": 57,
          "name": "A3",
          "ticks": 21006,
          "time": 27.3515625,
          "velocity": 0.8818897637795275
        },
        {
          "duration": 0.09114583333333215,
          "durationTicks": 70,
          "midi": 59,
          "name": "B3",
          "ticks": 21104,
          "time": 27.479166666666668,
          "velocity": 0.889763779527559
        },
        {
          "duration": 0.15625,
          "durationTicks": 120,
          "midi": 60,
          "name": "C4",
          "ticks": 21202,
          "time": 27.606770833333332,
          "velocity": 0.905511811023622
        },
        {
          "duration": 0.1223958333333357,
          "durationTicks": 94,
          "midi": 60,
          "name": "C4",
          "ticks": 21400,
          "time": 27.864583333333332,
          "velocity": 0.8818897637795275
        },
        {
          "duration": 0.125,
          "durationTicks": 96,
          "midi": 59,
          "name": "B3",
          "ticks": 21802,
          "time": 28.388020833333332,
          "velocity": 0.8818897637795275
        },
        {
          "duration": 0.1588541666666643,
          "durationTicks": 122,
          "midi": 60,
          "name": "C4",
          "ticks": 21896,
          "time": 28.510416666666668,
          "velocity": 0.8267716535433071
        },
        {
          "duration": 0.23697916666666785,
          "durationTicks": 182,
          "midi": 59,
          "name": "B3",
          "ticks": 21996,
          "time": 28.640625,
          "velocity": 0.8740157480314961
        },
        {
          "duration": 0.1875,
          "durationTicks": 144,
          "midi": 55,
          "name": "G3",
          "ticks": 22194,
          "time": 28.8984375,
          "velocity": 0.8661417322834646
        },
        {
          "duration": 0.06510416666666785,
          "durationTicks": 50,
          "midi": 57,
          "name": "A3",
          "ticks": 22986,
          "time": 29.9296875,
          "velocity": 0.905511811023622
        },
        {
          "duration": 0.0625,
          "durationTicks": 48,
          "midi": 57,
          "name": "A3",
          "ticks": 23084,
          "time": 30.057291666666668,
          "velocity": 0.8818897637795275
        },
        {
          "duration": 0.0416666666666643,
          "durationTicks": 32,
          "midi": 57,
          "name": "A3",
          "ticks": 23186,
          "time": 30.190104166666668,
          "velocity": 0.8503937007874016
        },
        {
          "duration": 0.0859375,
          "durationTicks": 66,
          "midi": 57,
          "name": "A3",
          "ticks": 23280,
          "time": 30.3125,
          "velocity": 0.8740157480314961
        },
        {
          "duration": 0.12239583333333215,
          "durationTicks": 94,
          "midi": 55,
          "name": "G3",
          "ticks": 23382,
          "time": 30.4453125,
          "velocity": 0.8976377952755905
        },
        {
          "duration": 0.17447916666666785,
          "durationTicks": 134,
          "midi": 57,
          "name": "A3",
          "ticks": 23478,
          "time": 30.5703125,
          "velocity": 0.8503937007874016
        },
        {
          "duration": 0.1848958333333357,
          "durationTicks": 142,
          "midi": 59,
          "name": "B3",
          "ticks": 23578,
          "time": 30.700520833333332,
          "velocity": 0.8976377952755905
        },
        {
          "duration": 0.109375,
          "durationTicks": 84,
          "midi": 59,
          "name": "B3",
          "ticks": 23778,
          "time": 30.9609375,
          "velocity": 0.905511811023622
        },
        {
          "duration": 0.1380208333333357,
          "durationTicks": 106,
          "midi": 57,
          "name": "A3",
          "ticks": 24172,
          "time": 31.473958333333332,
          "velocity": 0.905511811023622
        },
        {
          "duration": 0.10677083333333215,
          "durationTicks": 82,
          "midi": 59,
          "name": "B3",
          "ticks": 24270,
          "time": 31.6015625,
          "velocity": 0.8818897637795275
        },
        {
          "duration": 0.1770833333333357,
          "durationTicks": 136,
          "midi": 60,
          "name": "C4",
          "ticks": 24370,
          "time": 31.731770833333332,
          "velocity": 0.9133858267716536
        },
        {
          "duration": 0.1223958333333357,
          "durationTicks": 94,
          "midi": 60,
          "name": "C4",
          "ticks": 24570,
          "time": 31.9921875,
          "velocity": 0.8818897637795275
        },
        {
          "duration": 0.109375,
          "durationTicks": 84,
          "midi": 59,
          "name": "B3",
          "ticks": 24962,
          "time": 32.502604166666664,
          "velocity": 0.8818897637795275
        },
        {
          "duration": 0.1953125,
          "durationTicks": 150,
          "midi": 60,
          "name": "C4",
          "ticks": 25062,
          "time": 32.6328125,
          "velocity": 0.7874015748031497
        },
        {
          "duration": 0.2317708333333357,
          "durationTicks": 178,
          "midi": 59,
          "name": "B3",
          "ticks": 25164,
          "time": 32.765625,
          "velocity": 0.8503937007874016
        },
        {
          "duration": 0.1510416666666643,
          "durationTicks": 116,
          "midi": 55,
          "name": "G3",
          "ticks": 25362,
          "time": 33.0234375,
          "velocity": 0.8740157480314961
        },
        {
          "duration": 0.0651041666666714,
          "durationTicks": 50,
          "midi": 57,
          "name": "A3",
          "ticks": 26150,
          "time": 34.049479166666664,
          "velocity": 0.8976377952755905
        },
        {
          "duration": 0.0651041666666643,
          "durationTicks": 50,
          "midi": 57,
          "name": "A3",
          "ticks": 26248,
          "time": 34.177083333333336,
          "velocity": 0.8661417322834646
        },
        {
          "duration": 0.0625,
          "durationTicks": 48,
          "midi": 57,
          "name": "A3",
          "ticks": 26350,
          "time": 34.309895833333336,
          "velocity": 0.8818897637795275
        },
        {
          "duration": 0.0885416666666643,
          "durationTicks": 68,
          "midi": 57,
          "name": "A3",
          "ticks": 26448,
          "time": 34.4375,
          "velocity": 0.8818897637795275
        },
        {
          "duration": 0.1041666666666714,
          "durationTicks": 80,
          "midi": 55,
          "name": "G3",
          "ticks": 26546,
          "time": 34.565104166666664,
          "velocity": 0.889763779527559
        },
        {
          "duration": 0.1510416666666643,
          "durationTicks": 116,
          "midi": 57,
          "name": "A3",
          "ticks": 26644,
          "time": 34.692708333333336,
          "velocity": 0.8582677165354331
        },
        {
          "duration": 0.1536458333333357,
          "durationTicks": 118,
          "midi": 59,
          "name": "B3",
          "ticks": 26744,
          "time": 34.822916666666664,
          "velocity": 0.889763779527559
        },
        {
          "duration": 0.1067708333333357,
          "durationTicks": 82,
          "midi": 59,
          "name": "B3",
          "ticks": 26942,
          "time": 35.080729166666664,
          "velocity": 0.8976377952755905
        },
        {
          "duration": 0.1354166666666643,
          "durationTicks": 104,
          "midi": 57,
          "name": "A3",
          "ticks": 27340,
          "time": 35.598958333333336,
          "velocity": 0.8976377952755905
        },
        {
          "duration": 0.1145833333333357,
          "durationTicks": 88,
          "midi": 59,
          "name": "B3",
          "ticks": 27438,
          "time": 35.7265625,
          "velocity": 0.889763779527559
        },
        {
          "duration": 0.140625,
          "durationTicks": 108,
          "midi": 60,
          "name": "C4",
          "ticks": 27540,
          "time": 35.859375,
          "velocity": 0.905511811023622
        },
        {
          "duration": 0.140625,
          "durationTicks": 108,
          "midi": 60,
          "name": "C4",
          "ticks": 27736,
          "time": 36.114583333333336,
          "velocity": 0.889763779527559
        },
        {
          "duration": 0.1197916666666714,
          "durationTicks": 92,
          "midi": 59,
          "name": "B3",
          "ticks": 28130,
          "time": 36.627604166666664,
          "velocity": 0.8976377952755905
        },
        {
          "duration": 0.1901041666666643,
          "durationTicks": 146,
          "midi": 60,
          "name": "C4",
          "ticks": 28228,
          "time": 36.755208333333336,
          "velocity": 0.8267716535433071
        },
        {
          "duration": 0.21875,
          "durationTicks": 168,
          "midi": 59,
          "name": "B3",
          "ticks": 28330,
          "time": 36.888020833333336,
          "velocity": 0.8976377952755905
        },
        {
          "duration": 0.2057291666666643,
          "durationTicks": 158,
          "midi": 55,
          "name": "G3",
          "ticks": 28528,
          "time": 37.145833333333336,
          "velocity": 0.8582677165354331
        },
        {
          "duration": 0.0651041666666714,
          "durationTicks": 50,
          "midi": 57,
          "name": "A3",
          "ticks": 29120,
          "time": 37.916666666666664,
          "velocity": 0.9133858267716536
        },
        {
          "duration": 0.0677083333333357,
          "durationTicks": 52,
          "midi": 57,
          "name": "A3",
          "ticks": 29220,
          "time": 38.046875,
          "velocity": 0.889763779527559
        },
        {
          "duration": 0.0703125,
          "durationTicks": 54,
          "midi": 57,
          "name": "A3",
          "ticks": 29318,
          "time": 38.174479166666664,
          "velocity": 0.8976377952755905
        },
        {
          "duration": 0.1432291666666714,
          "durationTicks": 110,
          "midi": 64,
          "name": "E4",
          "ticks": 29420,
          "time": 38.307291666666664,
          "velocity": 0.8818897637795275
        },
        {
          "duration": 0.2005208333333357,
          "durationTicks": 154,
          "midi": 62,
          "name": "D4",
          "ticks": 29520,
          "time": 38.4375,
          "velocity": 0.9133858267716536
        },
        {
          "duration": 0.1953125,
          "durationTicks": 150,
          "midi": 57,
          "name": "A3",
          "ticks": 29712,
          "time": 38.6875,
          "velocity": 0.8503937007874016
        },
        {
          "duration": 0.1067708333333357,
          "durationTicks": 82,
          "midi": 57,
          "name": "A3",
          "ticks": 30110,
          "time": 39.205729166666664,
          "velocity": 0.889763779527559
        },
        {
          "duration": 0.0546875,
          "durationTicks": 42,
          "midi": 57,
          "name": "A3",
          "ticks": 30306,
          "time": 39.4609375,
          "velocity": 0.8818897637795275
        },
        {
          "duration": 0.0755208333333286,
          "durationTicks": 58,
          "midi": 57,
          "name": "A3",
          "ticks": 30406,
          "time": 39.591145833333336,
          "velocity": 0.8976377952755905
        },
        {
          "duration": 0.078125,
          "durationTicks": 60,
          "midi": 57,
          "name": "A3",
          "ticks": 30508,
          "time": 39.723958333333336,
          "velocity": 0.889763779527559
        },
        {
          "duration": 0.1223958333333286,
          "durationTicks": 94,
          "midi": 64,
          "name": "E4",
          "ticks": 30604,
          "time": 39.848958333333336,
          "velocity": 0.8267716535433071
        },
        {
          "duration": 0.2239583333333357,
          "durationTicks": 172,
          "midi": 62,
          "name": "D4",
          "ticks": 30702,
          "time": 39.9765625,
          "velocity": 0.8976377952755905
        },
        {
          "duration": 0.109375,
          "durationTicks": 84,
          "midi": 57,
          "name": "A3",
          "ticks": 30902,
          "time": 40.236979166666664,
          "velocity": 0.8818897637795275
        },
        {
          "duration": 0.0364583333333357,
          "durationTicks": 28,
          "midi": 57,
          "name": "A3",
          "ticks": 31296,
          "time": 40.75,
          "velocity": 0.8661417322834646
        },
        {
          "duration": 0.09375,
          "durationTicks": 72,
          "midi": 57,
          "name": "A3",
          "ticks": 31394,
          "time": 40.877604166666664,
          "velocity": 0.889763779527559
        },
        {
          "duration": 0.2526041666666714,
          "durationTicks": 194,
          "midi": 59,
          "name": "B3",
          "ticks": 31496,
          "time": 41.010416666666664,
          "velocity": 0.905511811023622
        },
        {
          "duration": 0.057291666666671404,
          "durationTicks": 44,
          "midi": 55,
          "name": "G3",
          "ticks": 31694,
          "time": 41.268229166666664,
          "velocity": 0.889763779527559
        },
        {
          "duration": 0.0963541666666714,
          "durationTicks": 74,
          "midi": 55,
          "name": "G3",
          "ticks": 31892,
          "time": 41.526041666666664,
          "velocity": 0.905511811023622
        },
        {
          "duration": 0.0807291666666643,
          "durationTicks": 62,
          "midi": 57,
          "name": "A3",
          "ticks": 31990,
          "time": 41.653645833333336,
          "velocity": 0.905511811023622
        },
        {
          "duration": 0.0546875,
          "durationTicks": 42,
          "midi": 57,
          "name": "A3",
          "ticks": 32292,
          "time": 42.046875,
          "velocity": 0.905511811023622
        },
        {
          "duration": 0.0546875,
          "durationTicks": 42,
          "midi": 57,
          "name": "A3",
          "ticks": 32390,
          "time": 42.174479166666664,
          "velocity": 0.8976377952755905
        },
        {
          "duration": 0.1302083333333286,
          "durationTicks": 100,
          "midi": 57,
          "name": "A3",
          "ticks": 32488,
          "time": 42.302083333333336,
          "velocity": 0.905511811023622
        },
        {
          "duration": 0.1380208333333286,
          "durationTicks": 106,
          "midi": 64,
          "name": "E4",
          "ticks": 32590,
          "time": 42.434895833333336,
          "velocity": 0.889763779527559
        },
        {
          "duration": 0.2135416666666643,
          "durationTicks": 164,
          "midi": 62,
          "name": "D4",
          "ticks": 32688,
          "time": 42.5625,
          "velocity": 0.905511811023622
        },
        {
          "duration": 0.171875,
          "durationTicks": 132,
          "midi": 57,
          "name": "A3",
          "ticks": 32884,
          "time": 42.817708333333336,
          "velocity": 0.8976377952755905
        },
        {
          "duration": 0.0625,
          "durationTicks": 48,
          "midi": 57,
          "name": "A3",
          "ticks": 33282,
          "time": 43.3359375,
          "velocity": 0.905511811023622
        },
        {
          "duration": 0.0442708333333357,
          "durationTicks": 34,
          "midi": 57,
          "name": "A3",
          "ticks": 33476,
          "time": 43.588541666666664,
          "velocity": 0.8976377952755905
        },
        {
          "duration": 0.0546875,
          "durationTicks": 42,
          "midi": 57,
          "name": "A3",
          "ticks": 33574,
          "time": 43.716145833333336,
          "velocity": 0.889763779527559
        },
        {
          "duration": 0.140625,
          "durationTicks": 108,
          "midi": 57,
          "name": "A3",
          "ticks": 33670,
          "time": 43.841145833333336,
          "velocity": 0.8661417322834646
        },
        {
          "duration": 0.15625,
          "durationTicks": 120,
          "midi": 64,
          "name": "E4",
          "ticks": 33770,
          "time": 43.971354166666664,
          "velocity": 0.8582677165354331
        },
        {
          "duration": 0.2682291666666714,
          "durationTicks": 206,
          "midi": 62,
          "name": "D4",
          "ticks": 33872,
          "time": 44.104166666666664,
          "velocity": 0.8582677165354331
        },
        {
          "duration": 0.1510416666666714,
          "durationTicks": 116,
          "midi": 57,
          "name": "A3",
          "ticks": 34070,
          "time": 44.361979166666664,
          "velocity": 0.8740157480314961
        },
        {
          "duration": 0.052083333333328596,
          "durationTicks": 40,
          "midi": 57,
          "name": "A3",
          "ticks": 34468,
          "time": 44.880208333333336,
          "velocity": 0.8976377952755905
        },
        {
          "duration": 0.0677083333333286,
          "durationTicks": 52,
          "midi": 57,
          "name": "A3",
          "ticks": 34564,
          "time": 45.005208333333336,
          "velocity": 0.8818897637795275
        },
        {
          "duration": 0.2421875,
          "durationTicks": 186,
          "midi": 59,
          "name": "B3",
          "ticks": 34672,
          "time": 45.145833333333336,
          "velocity": 0.8740157480314961
        },
        {
          "duration": 0.1067708333333286,
          "durationTicks": 82,
          "midi": 55,
          "name": "G3",
          "ticks": 34864,
          "time": 45.395833333333336,
          "velocity": 0.8818897637795275
        },
        {
          "duration": 0.0807291666666714,
          "durationTicks": 62,
          "midi": 55,
          "name": "G3",
          "ticks": 35060,
          "time": 45.651041666666664,
          "velocity": 0.889763779527559
        },
        {
          "duration": 0.0703125,
          "durationTicks": 54,
          "midi": 59,
          "name": "B3",
          "ticks": 35160,
          "time": 45.78125,
          "velocity": 0.905511811023622
        },
        {
          "duration": 0.0598958333333357,
          "durationTicks": 46,
          "midi": 57,
          "name": "A3",
          "ticks": 35456,
          "time": 46.166666666666664,
          "velocity": 0.8976377952755905
        },
        {
          "duration": 0.0546875,
          "durationTicks": 42,
          "midi": 57,
          "name": "A3",
          "ticks": 35556,
          "time": 46.296875,
          "velocity": 0.889763779527559
        },
        {
          "duration": 0.0911458333333357,
          "durationTicks": 70,
          "midi": 57,
          "name": "A3",
          "ticks": 35652,
          "time": 46.421875,
          "velocity": 0.9133858267716536
        },
        {
          "duration": 0.1354166666666643,
          "durationTicks": 104,
          "midi": 64,
          "name": "E4",
          "ticks": 35754,
          "time": 46.5546875,
          "velocity": 0.889763779527559
        },
        {
          "duration": 0.234375,
          "durationTicks": 180,
          "midi": 62,
          "name": "D4",
          "ticks": 35854,
          "time": 46.684895833333336,
          "velocity": 0.889763779527559
        },
        {
          "duration": 0.0963541666666643,
          "durationTicks": 74,
          "midi": 57,
          "name": "A3",
          "ticks": 36048,
          "time": 46.9375,
          "velocity": 0.889763779527559
        },
        {
          "duration": 0.0807291666666643,
          "durationTicks": 62,
          "midi": 57,
          "name": "A3",
          "ticks": 36450,
          "time": 47.4609375,
          "velocity": 0.8818897637795275
        },
        {
          "duration": 0.0390625,
          "durationTicks": 30,
          "midi": 57,
          "name": "A3",
          "ticks": 36648,
          "time": 47.71875,
          "velocity": 0.889763779527559
        },
        {
          "duration": 0.052083333333328596,
          "durationTicks": 40,
          "midi": 57,
          "name": "A3",
          "ticks": 36742,
          "time": 47.841145833333336,
          "velocity": 0.905511811023622
        },
        {
          "duration": 0.0963541666666643,
          "durationTicks": 74,
          "midi": 57,
          "name": "A3",
          "ticks": 36840,
          "time": 47.96875,
          "velocity": 0.8818897637795275
        },
        {
          "duration": 0.1432291666666643,
          "durationTicks": 110,
          "midi": 64,
          "name": "E4",
          "ticks": 36940,
          "time": 48.098958333333336,
          "velocity": 0.8582677165354331
        },
        {
          "duration": 0.2317708333333357,
          "durationTicks": 178,
          "midi": 62,
          "name": "D4",
          "ticks": 37044,
          "time": 48.234375,
          "velocity": 0.8976377952755905
        },
        {
          "duration": 0.1510416666666714,
          "durationTicks": 116,
          "midi": 57,
          "name": "A3",
          "ticks": 37238,
          "time": 48.486979166666664,
          "velocity": 0.8818897637795275
        },
        {
          "duration": 0.036458333333328596,
          "durationTicks": 28,
          "midi": 57,
          "name": "A3",
          "ticks": 37636,
          "time": 49.005208333333336,
          "velocity": 0.8582677165354331
        },
        {
          "duration": 0.1510416666666643,
          "durationTicks": 116,
          "midi": 57,
          "name": "A3",
          "ticks": 37732,
          "time": 49.130208333333336,
          "velocity": 0.8740157480314961
        },
        {
          "duration": 0.2421875,
          "durationTicks": 186,
          "midi": 59,
          "name": "B3",
          "ticks": 37836,
          "time": 49.265625,
          "velocity": 0.889763779527559
        },
        {
          "duration": 0.0833333333333357,
          "durationTicks": 64,
          "midi": 55,
          "name": "G3",
          "ticks": 38030,
          "time": 49.518229166666664,
          "velocity": 0.8818897637795275
        },
        {
          "duration": 0.1432291666666643,
          "durationTicks": 110,
          "midi": 55,
          "name": "G3",
          "ticks": 38230,
          "time": 49.778645833333336,
          "velocity": 0.8740157480314961
        },
        {
          "duration": 0.125,
          "durationTicks": 96,
          "midi": 57,
          "name": "A3",
          "ticks": 38328,
          "time": 49.90625,
          "velocity": 0.889763779527559
        },
        {
          "duration": 0.0572916666666643,
          "durationTicks": 44,
          "midi": 57,
          "name": "A3",
          "ticks": 38626,
          "time": 50.294270833333336,
          "velocity": 0.8818897637795275
        },
        {
          "duration": 0.0546875,
          "durationTicks": 42,
          "midi": 57,
          "name": "A3",
          "ticks": 38726,
          "time": 50.424479166666664,
          "velocity": 0.8976377952755905
        },
        {
          "duration": 0.1432291666666714,
          "durationTicks": 110,
          "midi": 57,
          "name": "A3",
          "ticks": 38822,
          "time": 50.549479166666664,
          "velocity": 0.8976377952755905
        },
        {
          "duration": 0.1484375,
          "durationTicks": 114,
          "midi": 64,
          "name": "E4",
          "ticks": 38924,
          "time": 50.682291666666664,
          "velocity": 0.8818897637795275
        },
        {
          "duration": 0.234375,
          "durationTicks": 180,
          "midi": 62,
          "name": "D4",
          "ticks": 39026,
          "time": 50.815104166666664,
          "velocity": 0.889763779527559
        },
        {
          "duration": 0.1666666666666643,
          "durationTicks": 128,
          "midi": 57,
          "name": "A3",
          "ticks": 39222,
          "time": 51.0703125,
          "velocity": 0.8661417322834646
        },
        {
          "duration": 0.0885416666666643,
          "durationTicks": 68,
          "midi": 64,
          "name": "E4",
          "ticks": 39616,
          "time": 51.583333333333336,
          "velocity": 0.8818897637795275
        },
        {
          "duration": 0.0651041666666643,
          "durationTicks": 50,
          "midi": 64,
          "name": "E4",
          "ticks": 39816,
          "time": 51.84375,
          "velocity": 0.8976377952755905
        },
        {
          "duration": 0.0572916666666643,
          "durationTicks": 44,
          "midi": 64,
          "name": "E4",
          "ticks": 39912,
          "time": 51.96875,
          "velocity": 0.8818897637795275
        },
        {
          "duration": 0.0572916666666643,
          "durationTicks": 44,
          "midi": 64,
          "name": "E4",
          "ticks": 40012,
          "time": 52.098958333333336,
          "velocity": 0.889763779527559
        },
        {
          "duration": 0.1197916666666643,
          "durationTicks": 92,
          "midi": 64,
          "name": "E4",
          "ticks": 40110,
          "time": 52.2265625,
          "velocity": 0.8346456692913385
        },
        {
          "duration": 0.2708333333333357,
          "durationTicks": 208,
          "midi": 67,
          "name": "G4",
          "ticks": 40224,
          "time": 52.375,
          "velocity": 0.8661417322834646
        },
        {
          "duration": 0.1015625,
          "durationTicks": 78,
          "midi": 64,
          "name": "E4",
          "ticks": 40408,
          "time": 52.614583333333336,
          "velocity": 0.8976377952755905
        },
        {
          "duration": 0.1380208333333286,
          "durationTicks": 106,
          "midi": 65,
          "name": "F4",
          "ticks": 40804,
          "time": 53.130208333333336,
          "velocity": 0.9133858267716536
        },
        {
          "duration": 0.1302083333333357,
          "durationTicks": 100,
          "midi": 64,
          "name": "E4",
          "ticks": 40902,
          "time": 53.2578125,
          "velocity": 0.8976377952755905
        },
        {
          "duration": 0.2578125,
          "durationTicks": 198,
          "midi": 67,
          "name": "G4",
          "ticks": 41004,
          "time": 53.390625,
          "velocity": 0.889763779527559
        },
        {
          "duration": 0.2395833333333357,
          "durationTicks": 184,
          "midi": 64,
          "name": "E4",
          "ticks": 41202,
          "time": 53.6484375,
          "velocity": 0.8818897637795275
        },
        {
          "duration": 0.2369791666666643,
          "durationTicks": 182,
          "midi": 67,
          "name": "G4",
          "ticks": 41398,
          "time": 53.903645833333336,
          "velocity": 0.905511811023622
        },
        {
          "duration": 0.1380208333333357,
          "durationTicks": 106,
          "midi": 69,
          "name": "A4",
          "ticks": 41606,
          "time": 54.174479166666664,
          "velocity": 0.8976377952755905
        },
        {
          "duration": 0.0546875,
          "durationTicks": 42,
          "midi": 72,
          "name": "C5",
          "ticks": 42202,
          "time": 54.950520833333336,
          "velocity": 0.9133858267716536
        },
        {
          "duration": 0.0651041666666714,
          "durationTicks": 50,
          "midi": 72,
          "name": "C5",
          "ticks": 42296,
          "time": 55.072916666666664,
          "velocity": 0.8740157480314961
        },
        {
          "duration": 0.0625,
          "durationTicks": 48,
          "midi": 72,
          "name": "C5",
          "ticks": 42392,
          "time": 55.197916666666664,
          "velocity": 0.889763779527559
        },
        {
          "duration": 0.1536458333333286,
          "durationTicks": 118,
          "midi": 72,
          "name": "C5",
          "ticks": 42490,
          "time": 55.325520833333336,
          "velocity": 0.889763779527559
        },
        {
          "duration": 0.2552083333333357,
          "durationTicks": 196,
          "midi": 71,
          "name": "B4",
          "ticks": 42606,
          "time": 55.4765625,
          "velocity": 0.905511811023622
        },
        {
          "duration": 0.140625,
          "durationTicks": 108,
          "midi": 67,
          "name": "G4",
          "ticks": 42796,
          "time": 55.723958333333336,
          "velocity": 0.8740157480314961
        },
        {
          "duration": 0.1145833333333357,
          "durationTicks": 88,
          "midi": 69,
          "name": "A4",
          "ticks": 43184,
          "time": 56.229166666666664,
          "velocity": 0.905511811023622
        },
        {
          "duration": 0.1770833333333357,
          "durationTicks": 136,
          "midi": 71,
          "name": "B4",
          "ticks": 43284,
          "time": 56.359375,
          "velocity": 0.8740157480314961
        },
        {
          "duration": 0.2395833333333357,
          "durationTicks": 184,
          "midi": 69,
          "name": "A4",
          "ticks": 43398,
          "time": 56.5078125,
          "velocity": 0.905511811023622
        },
        {
          "duration": 0.1067708333333286,
          "durationTicks": 82,
          "midi": 65,
          "name": "F4",
          "ticks": 43588,
          "time": 56.755208333333336,
          "velocity": 0.8740157480314961
        },
        {
          "duration": 0.0651041666666643,
          "durationTicks": 50,
          "midi": 69,
          "name": "A4",
          "ticks": 43978,
          "time": 57.263020833333336,
          "velocity": 0.905511811023622
        },
        {
          "duration": 0.1458333333333357,
          "durationTicks": 112,
          "midi": 69,
          "name": "A4",
          "ticks": 44084,
          "time": 57.401041666666664,
          "velocity": 0.905511811023622
        },
        {
          "duration": 0.2317708333333357,
          "durationTicks": 178,
          "midi": 67,
          "name": "G4",
          "ticks": 44190,
          "time": 57.5390625,
          "velocity": 0.9133858267716536
        },
        {
          "duration": 0.0807291666666714,
          "durationTicks": 62,
          "midi": 64,
          "name": "E4",
          "ticks": 44378,
          "time": 57.783854166666664,
          "velocity": 0.9133858267716536
        },
        {
          "duration": 0.057291666666671404,
          "durationTicks": 44,
          "midi": 72,
          "name": "C5",
          "ticks": 45170,
          "time": 58.815104166666664,
          "velocity": 0.905511811023622
        },
        {
          "duration": 0.0703125,
          "durationTicks": 54,
          "midi": 72,
          "name": "C5",
          "ticks": 45264,
          "time": 58.9375,
          "velocity": 0.8818897637795275
        },
        {
          "duration": 0.1744791666666714,
          "durationTicks": 134,
          "midi": 72,
          "name": "C5",
          "ticks": 45368,
          "time": 59.072916666666664,
          "velocity": 0.8818897637795275
        },
        {
          "duration": 0.059895833333328596,
          "durationTicks": 46,
          "midi": 72,
          "name": "C5",
          "ticks": 45562,
          "time": 59.325520833333336,
          "velocity": 0.8976377952755905
        },
        {
          "duration": 0.078125,
          "durationTicks": 60,
          "midi": 72,
          "name": "C5",
          "ticks": 45664,
          "time": 59.458333333333336,
          "velocity": 0.889763779527559
        },
        {
          "duration": 0.2708333333333286,
          "durationTicks": 208,
          "midi": 71,
          "name": "B4",
          "ticks": 45766,
          "time": 59.591145833333336,
          "velocity": 0.905511811023622
        },
        {
          "duration": 0.1171875,
          "durationTicks": 90,
          "midi": 67,
          "name": "G4",
          "ticks": 45964,
          "time": 59.848958333333336,
          "velocity": 0.8661417322834646
        },
        {
          "duration": 0.1276041666666643,
          "durationTicks": 98,
          "midi": 72,
          "name": "C5",
          "ticks": 46354,
          "time": 60.356770833333336,
          "velocity": 0.8740157480314961
        },
        {
          "duration": 0.1510416666666643,
          "durationTicks": 116,
          "midi": 74,
          "name": "D5",
          "ticks": 46456,
          "time": 60.489583333333336,
          "velocity": 0.889763779527559
        },
        {
          "duration": 0.2395833333333286,
          "durationTicks": 184,
          "midi": 69,
          "name": "A4",
          "ticks": 46564,
          "time": 60.630208333333336,
          "velocity": 0.8740157480314961
        },
        {
          "duration": 0.2135416666666714,
          "durationTicks": 164,
          "midi": 65,
          "name": "F4",
          "ticks": 46754,
          "time": 60.877604166666664,
          "velocity": 0.889763779527559
        },
        {
          "duration": 0.0546875,
          "durationTicks": 42,
          "midi": 69,
          "name": "A4",
          "ticks": 47148,
          "time": 61.390625,
          "velocity": 0.8818897637795275
        },
        {
          "duration": 0.1354166666666643,
          "durationTicks": 104,
          "midi": 69,
          "name": "A4",
          "ticks": 47248,
          "time": 61.520833333333336,
          "velocity": 0.905511811023622
        },
        {
          "duration": 0.171875,
          "durationTicks": 132,
          "midi": 68,
          "name": "G#4",
          "ticks": 47352,
          "time": 61.65625,
          "velocity": 0.8818897637795275
        },
        {
          "duration": 0.2734375,
          "durationTicks": 210,
          "midi": 68,
          "name": "G#4",
          "ticks": 47552,
          "time": 61.916666666666664,
          "velocity": 0.8818897637795275
        },
        {
          "duration": 0.2395833333333357,
          "durationTicks": 184,
          "midi": 71,
          "name": "B4",
          "ticks": 47750,
          "time": 62.174479166666664,
          "velocity": 0.8818897637795275
        },
        {
          "duration": 0.1276041666666714,
          "durationTicks": 98,
          "midi": 72,
          "name": "C5",
          "ticks": 47960,
          "time": 62.447916666666664,
          "velocity": 0.8740157480314961
        },
        {
          "duration": 0.0677083333333357,
          "durationTicks": 52,
          "midi": 72,
          "name": "C5",
          "ticks": 48336,
          "time": 62.9375,
          "velocity": 0.8818897637795275
        },
        {
          "duration": 0.0651041666666643,
          "durationTicks": 50,
          "midi": 72,
          "name": "C5",
          "ticks": 48436,
          "time": 63.067708333333336,
          "velocity": 0.8740157480314961
        },
        {
          "duration": 0.0546875,
          "durationTicks": 42,
          "midi": 72,
          "name": "C5",
          "ticks": 48536,
          "time": 63.197916666666664,
          "velocity": 0.8582677165354331
        },
        {
          "duration": 0.0572916666666643,
          "durationTicks": 44,
          "midi": 72,
          "name": "C5",
          "ticks": 48634,
          "time": 63.325520833333336,
          "velocity": 0.8818897637795275
        },
        {
          "duration": 0.046875,
          "durationTicks": 36,
          "midi": 72,
          "name": "C5",
          "ticks": 48738,
          "time": 63.4609375,
          "velocity": 0.8740157480314961
        },
        {
          "duration": 0.0963541666666643,
          "durationTicks": 74,
          "midi": 72,
          "name": "C5",
          "ticks": 48832,
          "time": 63.583333333333336,
          "velocity": 0.8976377952755905
        },
        {
          "duration": 0.2291666666666643,
          "durationTicks": 176,
          "midi": 71,
          "name": "B4",
          "ticks": 48942,
          "time": 63.7265625,
          "velocity": 0.905511811023622
        },
        {
          "duration": 0.1093749999999929,
          "durationTicks": 84,
          "midi": 67,
          "name": "G4",
          "ticks": 49132,
          "time": 63.973958333333336,
          "velocity": 0.8582677165354331
        },
        {
          "duration": 0.0651041666666714,
          "durationTicks": 50,
          "midi": 69,
          "name": "A4",
          "ticks": 49426,
          "time": 64.35677083333333,
          "velocity": 0.8976377952755905
        },
        {
          "duration": 0.0729166666666714,
          "durationTicks": 56,
          "midi": 69,
          "name": "A4",
          "ticks": 49524,
          "time": 64.484375,
          "velocity": 0.8818897637795275
        },
        {
          "duration": 0.0755208333333286,
          "durationTicks": 58,
          "midi": 71,
          "name": "B4",
          "ticks": 49626,
          "time": 64.6171875,
          "velocity": 0.8818897637795275
        },
        {
          "duration": 0.2135416666666714,
          "durationTicks": 164,
          "midi": 69,
          "name": "A4",
          "ticks": 49746,
          "time": 64.7734375,
          "velocity": 0.905511811023622
        },
        {
          "duration": 0.1328125,
          "durationTicks": 102,
          "midi": 65,
          "name": "F4",
          "ticks": 49920,
          "time": 65,
          "velocity": 0.8267716535433071
        },
        {
          "duration": 0.052083333333328596,
          "durationTicks": 40,
          "midi": 69,
          "name": "A4",
          "ticks": 50316,
          "time": 65.515625,
          "velocity": 0.889763779527559
        },
        {
          "duration": 0.1484375,
          "durationTicks": 114,
          "midi": 69,
          "name": "A4",
          "ticks": 50416,
          "time": 65.64583333333333,
          "velocity": 0.8976377952755905
        },
        {
          "duration": 0.2473958333333286,
          "durationTicks": 190,
          "midi": 71,
          "name": "B4",
          "ticks": 50532,
          "time": 65.796875,
          "velocity": 0.905511811023622
        },
        {
          "duration": 0.1432291666666714,
          "durationTicks": 110,
          "midi": 67,
          "name": "G4",
          "ticks": 50716,
          "time": 66.03645833333333,
          "velocity": 0.8976377952755905
        },
        {
          "duration": 0.0625,
          "durationTicks": 48,
          "midi": 72,
          "name": "C5",
          "ticks": 51506,
          "time": 67.06510416666667,
          "velocity": 0.889763779527559
        },
        {
          "duration": 0.06770833333334281,
          "durationTicks": 52,
          "midi": 72,
          "name": "C5",
          "ticks": 51604,
          "time": 67.19270833333333,
          "velocity": 0.8818897637795275
        },
        {
          "duration": 0.057291666666671404,
          "durationTicks": 44,
          "midi": 72,
          "name": "C5",
          "ticks": 51708,
          "time": 67.328125,
          "velocity": 0.8582677165354331
        },
        {
          "duration": 0.0651041666666714,
          "durationTicks": 50,
          "midi": 72,
          "name": "C5",
          "ticks": 51808,
          "time": 67.45833333333333,
          "velocity": 0.8818897637795275
        },
        {
          "duration": 0.049479166666671404,
          "durationTicks": 38,
          "midi": 72,
          "name": "C5",
          "ticks": 51906,
          "time": 67.5859375,
          "velocity": 0.8818897637795275
        },
        {
          "duration": 0.09375,
          "durationTicks": 72,
          "midi": 72,
          "name": "C5",
          "ticks": 52004,
          "time": 67.71354166666667,
          "velocity": 0.8818897637795275
        },
        {
          "duration": 0.2317708333333428,
          "durationTicks": 178,
          "midi": 71,
          "name": "B4",
          "ticks": 52108,
          "time": 67.84895833333333,
          "velocity": 0.905511811023622
        },
        {
          "duration": 0.1484375,
          "durationTicks": 114,
          "midi": 67,
          "name": "G4",
          "ticks": 52296,
          "time": 68.09375,
          "velocity": 0.8661417322834646
        },
        {
          "duration": 0.1380208333333286,
          "durationTicks": 106,
          "midi": 69,
          "name": "A4",
          "ticks": 52698,
          "time": 68.6171875,
          "velocity": 0.8818897637795275
        },
        {
          "duration": 0.1432291666666572,
          "durationTicks": 110,
          "midi": 71,
          "name": "B4",
          "ticks": 52796,
          "time": 68.74479166666667,
          "velocity": 0.8818897637795275
        },
        {
          "duration": 0.2708333333333428,
          "durationTicks": 208,
          "midi": 69,
          "name": "A4",
          "ticks": 52912,
          "time": 68.89583333333333,
          "velocity": 0.8976377952755905
        },
        {
          "duration": 0.12239583333334281,
          "durationTicks": 94,
          "midi": 65,
          "name": "F4",
          "ticks": 53104,
          "time": 69.14583333333333,
          "velocity": 0.8582677165354331
        },
        {
          "duration": 0.046875,
          "durationTicks": 36,
          "midi": 69,
          "name": "A4",
          "ticks": 53490,
          "time": 69.6484375,
          "velocity": 0.8818897637795275
        },
        {
          "duration": 0.1015625,
          "durationTicks": 78,
          "midi": 69,
          "name": "A4",
          "ticks": 53592,
          "time": 69.78125,
          "velocity": 0.889763779527559
        },
        {
          "duration": 0.28125,
          "durationTicks": 216,
          "midi": 71,
          "name": "B4",
          "ticks": 53706,
          "time": 69.9296875,
          "velocity": 0.8818897637795275
        },
        {
          "duration": 0.1744791666666714,
          "durationTicks": 134,
          "midi": 68,
          "name": "G#4",
          "ticks": 53890,
          "time": 70.16927083333333,
          "velocity": 0.8582677165354331
        },
        {
          "duration": 0.0651041666666714,
          "durationTicks": 50,
          "midi": 57,
          "name": "A3",
          "ticks": 54484,
          "time": 70.94270833333333,
          "velocity": 0.8818897637795275
        },
        {
          "duration": 0.0546875,
          "durationTicks": 42,
          "midi": 57,
          "name": "A3",
          "ticks": 54582,
          "time": 71.0703125,
          "velocity": 0.8503937007874016
        },
        {
          "duration": 0.1380208333333428,
          "durationTicks": 106,
          "midi": 57,
          "name": "A3",
          "ticks": 54682,
          "time": 71.20052083333333,
          "velocity": 0.8976377952755905
        },
        {
          "duration": 0.15625,
          "durationTicks": 120,
          "midi": 64,
          "name": "E4",
          "ticks": 54780,
          "time": 71.328125,
          "velocity": 0.8818897637795275
        },
        {
          "duration": 0.2213541666666714,
          "durationTicks": 170,
          "midi": 62,
          "name": "D4",
          "ticks": 54886,
          "time": 71.46614583333333,
          "velocity": 0.889763779527559
        },
        {
          "duration": 0.1171875,
          "durationTicks": 90,
          "midi": 57,
          "name": "A3",
          "ticks": 55076,
          "time": 71.71354166666667,
          "velocity": 0.8818897637795275
        },
        {
          "duration": 0.0807291666666714,
          "durationTicks": 62,
          "midi": 57,
          "name": "A3",
          "ticks": 55474,
          "time": 72.23177083333333,
          "velocity": 0.8818897637795275
        },
        {
          "duration": 0.0546875,
          "durationTicks": 42,
          "midi": 57,
          "name": "A3",
          "ticks": 55676,
          "time": 72.49479166666667,
          "velocity": 0.889763779527559
        },
        {
          "duration": 0.049479166666671404,
          "durationTicks": 38,
          "midi": 57,
          "name": "A3",
          "ticks": 55768,
          "time": 72.61458333333333,
          "velocity": 0.8503937007874016
        },
        {
          "duration": 0.1458333333333286,
          "durationTicks": 112,
          "midi": 57,
          "name": "A3",
          "ticks": 55868,
          "time": 72.74479166666667,
          "velocity": 0.8818897637795275
        },
        {
          "duration": 0.1822916666666714,
          "durationTicks": 140,
          "midi": 64,
          "name": "E4",
          "ticks": 55966,
          "time": 72.87239583333333,
          "velocity": 0.8818897637795275
        },
        {
          "duration": 0.2265625,
          "durationTicks": 174,
          "midi": 62,
          "name": "D4",
          "ticks": 56068,
          "time": 73.00520833333333,
          "velocity": 0.905511811023622
        },
        {
          "duration": 0.1276041666666714,
          "durationTicks": 98,
          "midi": 57,
          "name": "A3",
          "ticks": 56266,
          "time": 73.26302083333333,
          "velocity": 0.8818897637795275
        },
        {
          "duration": 0.044270833333328596,
          "durationTicks": 34,
          "midi": 57,
          "name": "A3",
          "ticks": 56660,
          "time": 73.77604166666667,
          "velocity": 0.8740157480314961
        },
        {
          "duration": 0.171875,
          "durationTicks": 132,
          "midi": 57,
          "name": "A3",
          "ticks": 56756,
          "time": 73.90104166666667,
          "velocity": 0.8818897637795275
        },
        {
          "duration": 0.2630208333333286,
          "durationTicks": 202,
          "midi": 59,
          "name": "B3",
          "ticks": 56880,
          "time": 74.0625,
          "velocity": 0.8503937007874016
        },
        {
          "duration": 0.078125,
          "durationTicks": 60,
          "midi": 55,
          "name": "G3",
          "ticks": 57056,
          "time": 74.29166666666667,
          "velocity": 0.889763779527559
        },
        {
          "duration": 0.1458333333333286,
          "durationTicks": 112,
          "midi": 55,
          "name": "G3",
          "ticks": 57252,
          "time": 74.546875,
          "velocity": 0.8818897637795275
        },
        {
          "duration": 0.07291666666665719,
          "durationTicks": 56,
          "midi": 57,
          "name": "A3",
          "ticks": 57350,
          "time": 74.67447916666667,
          "velocity": 0.8976377952755905
        },
        {
          "duration": 0.0677083333333286,
          "durationTicks": 52,
          "midi": 57,
          "name": "A3",
          "ticks": 57650,
          "time": 75.06510416666667,
          "velocity": 0.8976377952755905
        },
        {
          "duration": 0.041666666666671404,
          "durationTicks": 32,
          "midi": 57,
          "name": "A3",
          "ticks": 57750,
          "time": 75.1953125,
          "velocity": 0.8740157480314961
        },
        {
          "duration": 0.0859375,
          "durationTicks": 66,
          "midi": 57,
          "name": "A3",
          "ticks": 57850,
          "time": 75.32552083333333,
          "velocity": 0.905511811023622
        },
        {
          "duration": 0.1458333333333286,
          "durationTicks": 112,
          "midi": 64,
          "name": "E4",
          "ticks": 57948,
          "time": 75.453125,
          "velocity": 0.889763779527559
        },
        {
          "duration": 0.2239583333333286,
          "durationTicks": 172,
          "midi": 62,
          "name": "D4",
          "ticks": 58052,
          "time": 75.58854166666667,
          "velocity": 0.905511811023622
        },
        {
          "duration": 0.1666666666666572,
          "durationTicks": 128,
          "midi": 57,
          "name": "A3",
          "ticks": 58244,
          "time": 75.83854166666667,
          "velocity": 0.8818897637795275
        },
        {
          "duration": 0.078125,
          "durationTicks": 60,
          "midi": 57,
          "name": "A3",
          "ticks": 58640,
          "time": 76.35416666666667,
          "velocity": 0.8818897637795275
        },
        {
          "duration": 0.033854166666671404,
          "durationTicks": 26,
          "midi": 57,
          "name": "A3",
          "ticks": 58842,
          "time": 76.6171875,
          "velocity": 0.8818897637795275
        },
        {
          "duration": 0.049479166666671404,
          "durationTicks": 38,
          "midi": 57,
          "name": "A3",
          "ticks": 58938,
          "time": 76.7421875,
          "velocity": 0.889763779527559
        },
        {
          "duration": 0.1484375,
          "durationTicks": 114,
          "midi": 57,
          "name": "A3",
          "ticks": 59036,
          "time": 76.86979166666667,
          "velocity": 0.8818897637795275
        },
        {
          "duration": 0.125,
          "durationTicks": 96,
          "midi": 64,
          "name": "E4",
          "ticks": 59136,
          "time": 77,
          "velocity": 0.8818897637795275
        },
        {
          "duration": 0.2421875,
          "durationTicks": 186,
          "midi": 62,
          "name": "D4",
          "ticks": 59236,
          "time": 77.13020833333333,
          "velocity": 0.8582677165354331
        },
        {
          "duration": 0.1015625,
          "durationTicks": 78,
          "midi": 57,
          "name": "A3",
          "ticks": 59432,
          "time": 77.38541666666667,
          "velocity": 0.8976377952755905
        },
        {
          "duration": 0.049479166666671404,
          "durationTicks": 38,
          "midi": 57,
          "name": "A3",
          "ticks": 59826,
          "time": 77.8984375,
          "velocity": 0.8818897637795275
        },
        {
          "duration": 0.0859375,
          "durationTicks": 66,
          "midi": 57,
          "name": "A3",
          "ticks": 59926,
          "time": 78.02864583333333,
          "velocity": 0.8818897637795275
        },
        {
          "duration": 0.2604166666666714,
          "durationTicks": 200,
          "midi": 59,
          "name": "B3",
          "ticks": 60046,
          "time": 78.18489583333333,
          "velocity": 0.8740157480314961
        },
        {
          "duration": 0.0963541666666714,
          "durationTicks": 74,
          "midi": 55,
          "name": "G3",
          "ticks": 60226,
          "time": 78.41927083333333,
          "velocity": 0.889763779527559
        },
        {
          "duration": 0.1067708333333286,
          "durationTicks": 82,
          "midi": 55,
          "name": "G3",
          "ticks": 60426,
          "time": 78.6796875,
          "velocity": 0.8976377952755905
        },
        {
          "duration": 0.0963541666666714,
          "durationTicks": 74,
          "midi": 57,
          "name": "A3",
          "ticks": 60522,
          "time": 78.8046875,
          "velocity": 0.905511811023622
        },
        {
          "duration": 0.059895833333328596,
          "durationTicks": 46,
          "midi": 57,
          "name": "A3",
          "ticks": 60818,
          "time": 79.19010416666667,
          "velocity": 0.905511811023622
        },
        {
          "duration": 0.0546875,
          "durationTicks": 42,
          "midi": 57,
          "name": "A3",
          "ticks": 60916,
          "time": 79.31770833333333,
          "velocity": 0.889763779527559
        },
        {
          "duration": 0.0885416666666714,
          "durationTicks": 68,
          "midi": 57,
          "name": "A3",
          "ticks": 61014,
          "time": 79.4453125,
          "velocity": 0.8976377952755905
        },
        {
          "duration": 0.15625,
          "durationTicks": 120,
          "midi": 64,
          "name": "E4",
          "ticks": 61112,
          "time": 79.57291666666667,
          "velocity": 0.8818897637795275
        },
        {
          "duration": 0.2239583333333286,
          "durationTicks": 172,
          "midi": 62,
          "name": "D4",
          "ticks": 61220,
          "time": 79.71354166666667,
          "velocity": 0.8976377952755905
        },
        {
          "duration": 0.0989583333333286,
          "durationTicks": 76,
          "midi": 57,
          "name": "A3",
          "ticks": 61412,
          "time": 79.96354166666667,
          "velocity": 0.889763779527559
        },
        {
          "duration": 0.0651041666666714,
          "durationTicks": 50,
          "midi": 57,
          "name": "A3",
          "ticks": 61810,
          "time": 80.48177083333333,
          "velocity": 0.8976377952755905
        },
        {
          "duration": 0.04166666666665719,
          "durationTicks": 32,
          "midi": 57,
          "name": "A3",
          "ticks": 62006,
          "time": 80.73697916666667,
          "velocity": 0.8976377952755905
        },
        {
          "duration": 0.03645833333334281,
          "durationTicks": 28,
          "midi": 57,
          "name": "A3",
          "ticks": 62104,
          "time": 80.86458333333333,
          "velocity": 0.8818897637795275
        },
        {
          "duration": 0.1458333333333286,
          "durationTicks": 112,
          "midi": 57,
          "name": "A3",
          "ticks": 62202,
          "time": 80.9921875,
          "velocity": 0.8818897637795275
        },
        {
          "duration": 0.1197916666666714,
          "durationTicks": 92,
          "midi": 64,
          "name": "E4",
          "ticks": 62302,
          "time": 81.12239583333333,
          "velocity": 0.8818897637795275
        },
        {
          "duration": 0.25,
          "durationTicks": 192,
          "midi": 62,
          "name": "D4",
          "ticks": 62400,
          "time": 81.25,
          "velocity": 0.8503937007874016
        },
        {
          "duration": 0.0729166666666714,
          "durationTicks": 56,
          "midi": 57,
          "name": "A3",
          "ticks": 62598,
          "time": 81.5078125,
          "velocity": 0.8976377952755905
        },
        {
          "duration": 0.0546875,
          "durationTicks": 42,
          "midi": 57,
          "name": "A3",
          "ticks": 62992,
          "time": 82.02083333333333,
          "velocity": 0.8740157480314961
        },
        {
          "duration": 0.08854166666665719,
          "durationTicks": 68,
          "midi": 57,
          "name": "A3",
          "ticks": 63092,
          "time": 82.15104166666667,
          "velocity": 0.8661417322834646
        },
        {
          "duration": 0.2083333333333286,
          "durationTicks": 160,
          "midi": 59,
          "name": "B3",
          "ticks": 63192,
          "time": 82.28125,
          "velocity": 0.8110236220472441
        },
        {
          "duration": 0.125,
          "durationTicks": 96,
          "midi": 55,
          "name": "G3",
          "ticks": 63388,
          "time": 82.53645833333333,
          "velocity": 0.8818897637795275
        },
        {
          "duration": 0.0963541666666714,
          "durationTicks": 74,
          "midi": 55,
          "name": "G3",
          "ticks": 63588,
          "time": 82.796875,
          "velocity": 0.8818897637795275
        },
        {
          "duration": 0.1067708333333286,
          "durationTicks": 82,
          "midi": 57,
          "name": "A3",
          "ticks": 63684,
          "time": 82.921875,
          "velocity": 0.905511811023622
        },
        {
          "duration": 0.2708333333333286,
          "durationTicks": 208,
          "midi": 64,
          "name": "E4",
          "ticks": 63998,
          "time": 83.33072916666667,
          "velocity": 0.905511811023622
        },
        {
          "duration": 0.1953125,
          "durationTicks": 150,
          "midi": 60,
          "name": "C4",
          "ticks": 64190,
          "time": 83.58072916666667,
          "velocity": 0.8503937007874016
        },
        {
          "duration": 0.171875,
          "durationTicks": 132,
          "midi": 62,
          "name": "D4",
          "ticks": 64390,
          "time": 83.84114583333333,
          "velocity": 0.905511811023622
        },
        {
          "duration": 0.1953125,
          "durationTicks": 150,
          "midi": 62,
          "name": "D4",
          "ticks": 64584,
          "time": 84.09375,
          "velocity": 0.905511811023622
        },
        {
          "duration": 0.2760416666666714,
          "durationTicks": 212,
          "midi": 64,
          "name": "E4",
          "ticks": 65176,
          "time": 84.86458333333333,
          "velocity": 0.905511811023622
        },
        {
          "duration": 0.1223958333333286,
          "durationTicks": 94,
          "midi": 60,
          "name": "C4",
          "ticks": 65376,
          "time": 85.125,
          "velocity": 0.8582677165354331
        },
        {
          "duration": 0.1614583333333428,
          "durationTicks": 124,
          "midi": 62,
          "name": "D4",
          "ticks": 65572,
          "time": 85.38020833333333,
          "velocity": 0.905511811023622
        },
        {
          "duration": 0.125,
          "durationTicks": 96,
          "midi": 62,
          "name": "D4",
          "ticks": 65770,
          "time": 85.63802083333333,
          "velocity": 0.8976377952755905
        },
        {
          "duration": 0.1354166666666714,
          "durationTicks": 104,
          "midi": 60,
          "name": "C4",
          "ticks": 66166,
          "time": 86.15364583333333,
          "velocity": 0.8976377952755905
        },
        {
          "duration": 0.1979166666666714,
          "durationTicks": 152,
          "midi": 64,
          "name": "E4",
          "ticks": 66366,
          "time": 86.4140625,
          "velocity": 0.905511811023622
        },
        {
          "duration": 0.15625,
          "durationTicks": 120,
          "midi": 62,
          "name": "D4",
          "ticks": 66764,
          "time": 86.93229166666667,
          "velocity": 0.905511811023622
        },
        {
          "duration": 0.1432291666666572,
          "durationTicks": 110,
          "midi": 60,
          "name": "C4",
          "ticks": 66860,
          "time": 87.05729166666667,
          "velocity": 0.8976377952755905
        },
        {
          "duration": 0.09375,
          "durationTicks": 72,
          "midi": 57,
          "name": "A3",
          "ticks": 66964,
          "time": 87.19270833333333,
          "velocity": 0.905511811023622
        },
        {
          "duration": 0.0625,
          "durationTicks": 48,
          "midi": 57,
          "name": "A3",
          "ticks": 73688,
          "time": 95.94791666666667,
          "velocity": 0.8976377952755905
        },
        {
          "duration": 0.0625,
          "durationTicks": 48,
          "midi": 57,
          "name": "A3",
          "ticks": 73786,
          "time": 96.07552083333333,
          "velocity": 0.8740157480314961
        },
        {
          "duration": 0.046875,
          "durationTicks": 36,
          "midi": 57,
          "name": "A3",
          "ticks": 73888,
          "time": 96.20833333333333,
          "velocity": 0.8582677165354331
        },
        {
          "duration": 0.0833333333333286,
          "durationTicks": 64,
          "midi": 57,
          "name": "A3",
          "ticks": 73982,
          "time": 96.33072916666667,
          "velocity": 0.8740157480314961
        },
        {
          "duration": 0.059895833333328596,
          "durationTicks": 46,
          "midi": 55,
          "name": "G3",
          "ticks": 74084,
          "time": 96.46354166666667,
          "velocity": 0.889763779527559
        },
        {
          "duration": 0.0807291666666714,
          "durationTicks": 62,
          "midi": 55,
          "name": "G3",
          "ticks": 74182,
          "time": 96.59114583333333,
          "velocity": 0.84251968503937
        },
        {
          "duration": 0.1927083333333286,
          "durationTicks": 148,
          "midi": 59,
          "name": "B3",
          "ticks": 74286,
          "time": 96.7265625,
          "velocity": 0.8976377952755905
        },
        {
          "duration": 0.08854166666665719,
          "durationTicks": 68,
          "midi": 59,
          "name": "B3",
          "ticks": 74480,
          "time": 96.97916666666667,
          "velocity": 0.8740157480314961
        },
        {
          "duration": 0.0989583333333286,
          "durationTicks": 76,
          "midi": 57,
          "name": "A3",
          "ticks": 74876,
          "time": 97.49479166666667,
          "velocity": 0.889763779527559
        },
        {
          "duration": 0.0963541666666714,
          "durationTicks": 74,
          "midi": 59,
          "name": "B3",
          "ticks": 74974,
          "time": 97.62239583333333,
          "velocity": 0.8818897637795275
        },
        {
          "duration": 0.1276041666666714,
          "durationTicks": 98,
          "midi": 60,
          "name": "C4",
          "ticks": 75076,
          "time": 97.75520833333333,
          "velocity": 0.8818897637795275
        },
        {
          "duration": 0.1015625,
          "durationTicks": 78,
          "midi": 60,
          "name": "C4",
          "ticks": 75272,
          "time": 98.01041666666667,
          "velocity": 0.8740157480314961
        },
        {
          "duration": 0.1015625,
          "durationTicks": 78,
          "midi": 59,
          "name": "B3",
          "ticks": 75666,
          "time": 98.5234375,
          "velocity": 0.889763779527559
        },
        {
          "duration": 0.1328125,
          "durationTicks": 102,
          "midi": 60,
          "name": "C4",
          "ticks": 75766,
          "time": 98.65364583333333,
          "velocity": 0.8267716535433071
        },
        {
          "duration": 0.2395833333333286,
          "durationTicks": 184,
          "midi": 59,
          "name": "B3",
          "ticks": 75870,
          "time": 98.7890625,
          "velocity": 0.8740157480314961
        },
        {
          "duration": 0.1796875,
          "durationTicks": 138,
          "midi": 55,
          "name": "G3",
          "ticks": 76062,
          "time": 99.0390625,
          "velocity": 0.8740157480314961
        },
        {
          "duration": 0.057291666666671404,
          "durationTicks": 44,
          "midi": 57,
          "name": "A3",
          "ticks": 76854,
          "time": 100.0703125,
          "velocity": 0.8976377952755905
        },
        {
          "duration": 0.0625,
          "durationTicks": 48,
          "midi": 57,
          "name": "A3",
          "ticks": 76954,
          "time": 100.20052083333333,
          "velocity": 0.8661417322834646
        },
        {
          "duration": 0.049479166666671404,
          "durationTicks": 38,
          "midi": 57,
          "name": "A3",
          "ticks": 77056,
          "time": 100.33333333333333,
          "velocity": 0.8661417322834646
        },
        {
          "duration": 0.0885416666666714,
          "durationTicks": 68,
          "midi": 57,
          "name": "A3",
          "ticks": 77152,
          "time": 100.45833333333333,
          "velocity": 0.8582677165354331
        },
        {
          "duration": 0.0807291666666714,
          "durationTicks": 62,
          "midi": 55,
          "name": "G3",
          "ticks": 77250,
          "time": 100.5859375,
          "velocity": 0.8503937007874016
        },
        {
          "duration": 0.08072916666665719,
          "durationTicks": 62,
          "midi": 57,
          "name": "A3",
          "ticks": 77348,
          "time": 100.71354166666667,
          "velocity": 0.8582677165354331
        },
        {
          "duration": 0.1510416666666714,
          "durationTicks": 116,
          "midi": 59,
          "name": "B3",
          "ticks": 77448,
          "time": 100.84375,
          "velocity": 0.8818897637795275
        },
        {
          "duration": 0.1041666666666714,
          "durationTicks": 80,
          "midi": 59,
          "name": "B3",
          "ticks": 77650,
          "time": 101.10677083333333,
          "velocity": 0.8503937007874016
        },
        {
          "duration": 0.10416666666665719,
          "durationTicks": 80,
          "midi": 57,
          "name": "A3",
          "ticks": 78044,
          "time": 101.61979166666667,
          "velocity": 0.8661417322834646
        },
        {
          "duration": 0.09114583333334281,
          "durationTicks": 70,
          "midi": 59,
          "name": "B3",
          "ticks": 78142,
          "time": 101.74739583333333,
          "velocity": 0.8818897637795275
        },
        {
          "duration": 0.1510416666666714,
          "durationTicks": 116,
          "midi": 60,
          "name": "C4",
          "ticks": 78244,
          "time": 101.88020833333333,
          "velocity": 0.889763779527559
        },
        {
          "duration": 0.09375,
          "durationTicks": 72,
          "midi": 60,
          "name": "C4",
          "ticks": 78438,
          "time": 102.1328125,
          "velocity": 0.8818897637795275
        },
        {
          "duration": 0.1510416666666714,
          "durationTicks": 116,
          "midi": 60,
          "name": "C4",
          "ticks": 78736,
          "time": 102.52083333333333,
          "velocity": 0.8976377952755905
        },
        {
          "duration": 0.1484375,
          "durationTicks": 114,
          "midi": 59,
          "name": "B3",
          "ticks": 78836,
          "time": 102.65104166666667,
          "velocity": 0.8740157480314961
        },
        {
          "duration": 0.09895833333334281,
          "durationTicks": 76,
          "midi": 60,
          "name": "C4",
          "ticks": 78934,
          "time": 102.77864583333333,
          "velocity": 0.8818897637795275
        },
        {
          "duration": 0.2109375,
          "durationTicks": 162,
          "midi": 62,
          "name": "D4",
          "ticks": 79034,
          "time": 102.90885416666667,
          "velocity": 0.8188976377952756
        },
        {
          "duration": 0.1510416666666572,
          "durationTicks": 116,
          "midi": 55,
          "name": "G3",
          "ticks": 79232,
          "time": 103.16666666666667,
          "velocity": 0.8582677165354331
        },
        {
          "duration": 0.04166666666665719,
          "durationTicks": 32,
          "midi": 57,
          "name": "A3",
          "ticks": 79826,
          "time": 103.94010416666667,
          "velocity": 0.8976377952755905
        },
        {
          "duration": 0.0390625,
          "durationTicks": 30,
          "midi": 57,
          "name": "A3",
          "ticks": 79924,
          "time": 104.06770833333333,
          "velocity": 0.8818897637795275
        },
        {
          "duration": 0.0859375,
          "durationTicks": 66,
          "midi": 57,
          "name": "A3",
          "ticks": 80024,
          "time": 104.19791666666667,
          "velocity": 0.8976377952755905
        },
        {
          "duration": 0.1614583333333428,
          "durationTicks": 124,
          "midi": 64,
          "name": "E4",
          "ticks": 80122,
          "time": 104.32552083333333,
          "velocity": 0.8661417322834646
        },
        {
          "duration": 0.2630208333333286,
          "durationTicks": 202,
          "midi": 62,
          "name": "D4",
          "ticks": 80222,
          "time": 104.45572916666667,
          "velocity": 0.889763779527559
        },
        {
          "duration": 0.1848958333333286,
          "durationTicks": 142,
          "midi": 57,
          "name": "A3",
          "ticks": 80418,
          "time": 104.7109375,
          "velocity": 0.8818897637795275
        },
        {
          "duration": 0.0963541666666714,
          "durationTicks": 74,
          "midi": 57,
          "name": "A3",
          "ticks": 80814,
          "time": 105.2265625,
          "velocity": 0.889763779527559
        },
        {
          "duration": 0.036458333333328596,
          "durationTicks": 28,
          "midi": 57,
          "name": "A3",
          "ticks": 81014,
          "time": 105.48697916666667,
          "velocity": 0.8976377952755905
        },
        {
          "duration": 0.057291666666671404,
          "durationTicks": 44,
          "midi": 57,
          "name": "A3",
          "ticks": 81112,
          "time": 105.61458333333333,
          "velocity": 0.8976377952755905
        },
        {
          "duration": 0.1302083333333286,
          "durationTicks": 100,
          "midi": 57,
          "name": "A3",
          "ticks": 81210,
          "time": 105.7421875,
          "velocity": 0.8503937007874016
        },
        {
          "duration": 0.1744791666666714,
          "durationTicks": 134,
          "midi": 64,
          "name": "E4",
          "ticks": 81306,
          "time": 105.8671875,
          "velocity": 0.8582677165354331
        },
        {
          "duration": 0.2317708333333286,
          "durationTicks": 178,
          "midi": 62,
          "name": "D4",
          "ticks": 81410,
          "time": 106.00260416666667,
          "velocity": 0.8818897637795275
        },
        {
          "duration": 0.1588541666666714,
          "durationTicks": 122,
          "midi": 57,
          "name": "A3",
          "ticks": 81606,
          "time": 106.2578125,
          "velocity": 0.889763779527559
        },
        {
          "duration": 0.05989583333334281,
          "durationTicks": 46,
          "midi": 57,
          "name": "A3",
          "ticks": 82000,
          "time": 106.77083333333333,
          "velocity": 0.8740157480314961
        },
        {
          "duration": 0.109375,
          "durationTicks": 84,
          "midi": 57,
          "name": "A3",
          "ticks": 82098,
          "time": 106.8984375,
          "velocity": 0.889763779527559
        },
        {
          "duration": 0.2265625,
          "durationTicks": 174,
          "midi": 59,
          "name": "B3",
          "ticks": 82200,
          "time": 107.03125,
          "velocity": 0.8976377952755905
        },
        {
          "duration": 0.0807291666666714,
          "durationTicks": 62,
          "midi": 55,
          "name": "G3",
          "ticks": 82398,
          "time": 107.2890625,
          "velocity": 0.8976377952755905
        },
        {
          "duration": 0.1015625,
          "durationTicks": 78,
          "midi": 55,
          "name": "G3",
          "ticks": 82598,
          "time": 107.54947916666667,
          "velocity": 0.8818897637795275
        },
        {
          "duration": 0.09635416666665719,
          "durationTicks": 74,
          "midi": 57,
          "name": "A3",
          "ticks": 82694,
          "time": 107.67447916666667,
          "velocity": 0.905511811023622
        },
        {
          "duration": 0.0546875,
          "durationTicks": 42,
          "midi": 57,
          "name": "A3",
          "ticks": 82990,
          "time": 108.05989583333333,
          "velocity": 0.8976377952755905
        },
        {
          "duration": 0.041666666666671404,
          "durationTicks": 32,
          "midi": 57,
          "name": "A3",
          "ticks": 83088,
          "time": 108.1875,
          "velocity": 0.8818897637795275
        },
        {
          "duration": 0.1302083333333286,
          "durationTicks": 100,
          "midi": 57,
          "name": "A3",
          "ticks": 83190,
          "time": 108.3203125,
          "velocity": 0.8818897637795275
        },
        {
          "duration": 0.1744791666666572,
          "durationTicks": 134,
          "midi": 64,
          "name": "E4",
          "ticks": 83288,
          "time": 108.44791666666667,
          "velocity": 0.8582677165354331
        },
        {
          "duration": 0.2447916666666714,
          "durationTicks": 188,
          "midi": 62,
          "name": "D4",
          "ticks": 83388,
          "time": 108.578125,
          "velocity": 0.8503937007874016
        },
        {
          "duration": 0.171875,
          "durationTicks": 132,
          "midi": 57,
          "name": "A3",
          "ticks": 83586,
          "time": 108.8359375,
          "velocity": 0.8818897637795275
        },
        {
          "duration": 0.0963541666666714,
          "durationTicks": 74,
          "midi": 57,
          "name": "A3",
          "ticks": 83982,
          "time": 109.3515625,
          "velocity": 0.8740157480314961
        },
        {
          "duration": 0.04166666666665719,
          "durationTicks": 32,
          "midi": 57,
          "name": "A3",
          "ticks": 84182,
          "time": 109.61197916666667,
          "velocity": 0.905511811023622
        },
        {
          "duration": 0.04947916666665719,
          "durationTicks": 38,
          "midi": 57,
          "name": "A3",
          "ticks": 84278,
          "time": 109.73697916666667,
          "velocity": 0.8976377952755905
        },
        {
          "duration": 0.1119791666666714,
          "durationTicks": 86,
          "midi": 57,
          "name": "A3",
          "ticks": 84378,
          "time": 109.8671875,
          "velocity": 0.889763779527559
        },
        {
          "duration": 0.1614583333333286,
          "durationTicks": 124,
          "midi": 64,
          "name": "E4",
          "ticks": 84476,
          "time": 109.99479166666667,
          "velocity": 0.8740157480314961
        },
        {
          "duration": 0.2317708333333286,
          "durationTicks": 178,
          "midi": 62,
          "name": "D4",
          "ticks": 84576,
          "time": 110.125,
          "velocity": 0.8740157480314961
        },
        {
          "duration": 0.1510416666666714,
          "durationTicks": 116,
          "midi": 57,
          "name": "A3",
          "ticks": 84774,
          "time": 110.3828125,
          "velocity": 0.8976377952755905
        },
        {
          "duration": 0.052083333333328596,
          "durationTicks": 40,
          "midi": 57,
          "name": "A3",
          "ticks": 85170,
          "time": 110.8984375,
          "velocity": 0.8740157480314961
        },
        {
          "duration": 0.0989583333333286,
          "durationTicks": 76,
          "midi": 57,
          "name": "A3",
          "ticks": 85266,
          "time": 111.0234375,
          "velocity": 0.8818897637795275
        },
        {
          "duration": 0.2161458333333286,
          "durationTicks": 166,
          "midi": 59,
          "name": "B3",
          "ticks": 85368,
          "time": 111.15625,
          "velocity": 0.8818897637795275
        },
        {
          "duration": 0.0859375,
          "durationTicks": 66,
          "midi": 55,
          "name": "G3",
          "ticks": 85566,
          "time": 111.4140625,
          "velocity": 0.889763779527559
        },
        {
          "duration": 0.0989583333333286,
          "durationTicks": 76,
          "midi": 55,
          "name": "G3",
          "ticks": 85764,
          "time": 111.671875,
          "velocity": 0.8976377952755905
        },
        {
          "duration": 0.0859375,
          "durationTicks": 66,
          "midi": 57,
          "name": "A3",
          "ticks": 85860,
          "time": 111.796875,
          "velocity": 0.8976377952755905
        },
        {
          "duration": 0.05208333333334281,
          "durationTicks": 40,
          "midi": 57,
          "name": "A3",
          "ticks": 86158,
          "time": 112.18489583333333,
          "velocity": 0.8976377952755905
        },
        {
          "duration": 0.046875,
          "durationTicks": 36,
          "midi": 57,
          "name": "A3",
          "ticks": 86260,
          "time": 112.31770833333333,
          "velocity": 0.889763779527559
        },
        {
          "duration": 0.0885416666666714,
          "durationTicks": 68,
          "midi": 57,
          "name": "A3",
          "ticks": 86358,
          "time": 112.4453125,
          "velocity": 0.8976377952755905
        },
        {
          "duration": 0.1640625,
          "durationTicks": 126,
          "midi": 64,
          "name": "E4",
          "ticks": 86456,
          "time": 112.57291666666667,
          "velocity": 0.889763779527559
        },
        {
          "duration": 0.21875,
          "durationTicks": 168,
          "midi": 62,
          "name": "D4",
          "ticks": 86562,
          "time": 112.7109375,
          "velocity": 0.889763779527559
        },
        {
          "duration": 0.0911458333333286,
          "durationTicks": 70,
          "midi": 57,
          "name": "A3",
          "ticks": 86754,
          "time": 112.9609375,
          "velocity": 0.8818897637795275
        },
        {
          "duration": 0.0677083333333286,
          "durationTicks": 52,
          "midi": 57,
          "name": "A3",
          "ticks": 87152,
          "time": 113.47916666666667,
          "velocity": 0.889763779527559
        },
        {
          "duration": 0.041666666666671404,
          "durationTicks": 32,
          "midi": 57,
          "name": "A3",
          "ticks": 87354,
          "time": 113.7421875,
          "velocity": 0.905511811023622
        },
        {
          "duration": 0.036458333333328596,
          "durationTicks": 28,
          "midi": 57,
          "name": "A3",
          "ticks": 87446,
          "time": 113.86197916666667,
          "velocity": 0.8740157480314961
        },
        {
          "duration": 0.0963541666666714,
          "durationTicks": 74,
          "midi": 57,
          "name": "A3",
          "ticks": 87546,
          "time": 113.9921875,
          "velocity": 0.8976377952755905
        },
        {
          "duration": 0.15625,
          "durationTicks": 120,
          "midi": 64,
          "name": "E4",
          "ticks": 87644,
          "time": 114.11979166666667,
          "velocity": 0.8740157480314961
        },
        {
          "duration": 0.2317708333333428,
          "durationTicks": 178,
          "midi": 62,
          "name": "D4",
          "ticks": 87748,
          "time": 114.25520833333333,
          "velocity": 0.8740157480314961
        },
        {
          "duration": 0.1171875,
          "durationTicks": 90,
          "midi": 57,
          "name": "A3",
          "ticks": 87938,
          "time": 114.50260416666667,
          "velocity": 0.8976377952755905
        },
        {
          "duration": 0.0546875,
          "durationTicks": 42,
          "midi": 57,
          "name": "A3",
          "ticks": 88338,
          "time": 115.0234375,
          "velocity": 0.905511811023622
        },
        {
          "duration": 0.0703125,
          "durationTicks": 54,
          "midi": 57,
          "name": "A3",
          "ticks": 88434,
          "time": 115.1484375,
          "velocity": 0.8740157480314961
        },
        {
          "duration": 0.2578125,
          "durationTicks": 198,
          "midi": 59,
          "name": "B3",
          "ticks": 88538,
          "time": 115.28385416666667,
          "velocity": 0.905511811023622
        },
        {
          "duration": 0.08854166666665719,
          "durationTicks": 68,
          "midi": 55,
          "name": "G3",
          "ticks": 88736,
          "time": 115.54166666666667,
          "velocity": 0.8740157480314961
        },
        {
          "duration": 0.1484375,
          "durationTicks": 114,
          "midi": 55,
          "name": "G3",
          "ticks": 88930,
          "time": 115.79427083333333,
          "velocity": 0.8818897637795275
        },
        {
          "duration": 0.0911458333333286,
          "durationTicks": 70,
          "midi": 57,
          "name": "A3",
          "ticks": 89028,
          "time": 115.921875,
          "velocity": 0.905511811023622
        },
        {
          "duration": 0.0625,
          "durationTicks": 48,
          "midi": 57,
          "name": "A3",
          "ticks": 89326,
          "time": 116.30989583333333,
          "velocity": 0.889763779527559
        },
        {
          "duration": 0.04947916666665719,
          "durationTicks": 38,
          "midi": 57,
          "name": "A3",
          "ticks": 89426,
          "time": 116.44010416666667,
          "velocity": 0.8818897637795275
        },
        {
          "duration": 0.0859375,
          "durationTicks": 66,
          "midi": 57,
          "name": "A3",
          "ticks": 89524,
          "time": 116.56770833333333,
          "velocity": 0.8740157480314961
        },
        {
          "duration": 0.1536458333333428,
          "durationTicks": 118,
          "midi": 64,
          "name": "E4",
          "ticks": 89626,
          "time": 116.70052083333333,
          "velocity": 0.889763779527559
        },
        {
          "duration": 0.2265625,
          "durationTicks": 174,
          "midi": 62,
          "name": "D4",
          "ticks": 89730,
          "time": 116.8359375,
          "velocity": 0.905511811023622
        },
        {
          "duration": 0.0859375,
          "durationTicks": 66,
          "midi": 57,
          "name": "A3",
          "ticks": 89922,
          "time": 117.0859375,
          "velocity": 0.8818897637795275
        },
        {
          "duration": 0.09375,
          "durationTicks": 72,
          "midi": 57,
          "name": "A3",
          "ticks": 90318,
          "time": 117.6015625,
          "velocity": 0.8976377952755905
        },
        {
          "duration": 0.0677083333333286,
          "durationTicks": 52,
          "midi": 64,
          "name": "E4",
          "ticks": 90516,
          "time": 117.859375,
          "velocity": 0.889763779527559
        },
        {
          "duration": 0.044270833333328596,
          "durationTicks": 34,
          "midi": 64,
          "name": "E4",
          "ticks": 90612,
          "time": 117.984375,
          "velocity": 0.8503937007874016
        },
        {
          "duration": 0.049479166666671404,
          "durationTicks": 38,
          "midi": 64,
          "name": "E4",
          "ticks": 90712,
          "time": 118.11458333333333,
          "velocity": 0.8740157480314961
        },
        {
          "duration": 0.078125,
          "durationTicks": 60,
          "midi": 64,
          "name": "E4",
          "ticks": 90810,
          "time": 118.2421875,
          "velocity": 0.905511811023622
        },
        {
          "duration": 0.21875,
          "durationTicks": 168,
          "midi": 67,
          "name": "G4",
          "ticks": 90916,
          "time": 118.38020833333333,
          "velocity": 0.905511811023622
        },
        {
          "duration": 0.08333333333334281,
          "durationTicks": 64,
          "midi": 64,
          "name": "E4",
          "ticks": 91108,
          "time": 118.63020833333333,
          "velocity": 0.8818897637795275
        },
        {
          "duration": 0.1197916666666714,
          "durationTicks": 92,
          "midi": 65,
          "name": "F4",
          "ticks": 91504,
          "time": 119.14583333333333,
          "velocity": 0.8976377952755905
        },
        {
          "duration": 0.1536458333333428,
          "durationTicks": 118,
          "midi": 64,
          "name": "E4",
          "ticks": 91600,
          "time": 119.27083333333333,
          "velocity": 0.8976377952755905
        },
        {
          "duration": 0.2369791666666714,
          "durationTicks": 182,
          "midi": 67,
          "name": "G4",
          "ticks": 91702,
          "time": 119.40364583333333,
          "velocity": 0.9133858267716536
        },
        {
          "duration": 0.1015625,
          "durationTicks": 78,
          "midi": 64,
          "name": "E4",
          "ticks": 91900,
          "time": 119.66145833333333,
          "velocity": 0.8818897637795275
        },
        {
          "duration": 0.2552083333333286,
          "durationTicks": 196,
          "midi": 67,
          "name": "G4",
          "ticks": 92096,
          "time": 119.91666666666667,
          "velocity": 0.905511811023622
        },
        {
          "duration": 0.10677083333334281,
          "durationTicks": 82,
          "midi": 69,
          "name": "A4",
          "ticks": 92302,
          "time": 120.18489583333333,
          "velocity": 0.889763779527559
        },
        {
          "duration": 0.059895833333328596,
          "durationTicks": 46,
          "midi": 72,
          "name": "C5",
          "ticks": 92892,
          "time": 120.953125,
          "velocity": 0.8818897637795275
        },
        {
          "duration": 0.0546875,
          "durationTicks": 42,
          "midi": 72,
          "name": "C5",
          "ticks": 92990,
          "time": 121.08072916666667,
          "velocity": 0.8661417322834646
        },
        {
          "duration": 0.0546875,
          "durationTicks": 42,
          "midi": 72,
          "name": "C5",
          "ticks": 93090,
          "time": 121.2109375,
          "velocity": 0.8582677165354331
        },
        {
          "duration": 0.0989583333333286,
          "durationTicks": 76,
          "midi": 72,
          "name": "C5",
          "ticks": 93188,
          "time": 121.33854166666667,
          "velocity": 0.8818897637795275
        },
        {
          "duration": 0.2369791666666714,
          "durationTicks": 182,
          "midi": 71,
          "name": "B4",
          "ticks": 93294,
          "time": 121.4765625,
          "velocity": 0.8976377952755905
        },
        {
          "duration": 0.1380208333333286,
          "durationTicks": 106,
          "midi": 67,
          "name": "G4",
          "ticks": 93488,
          "time": 121.72916666666667,
          "velocity": 0.8503937007874016
        },
        {
          "duration": 0.1145833333333286,
          "durationTicks": 88,
          "midi": 69,
          "name": "A4",
          "ticks": 93884,
          "time": 122.24479166666667,
          "velocity": 0.905511811023622
        },
        {
          "duration": 0.1666666666666714,
          "durationTicks": 128,
          "midi": 71,
          "name": "B4",
          "ticks": 93982,
          "time": 122.37239583333333,
          "velocity": 0.8740157480314961
        },
        {
          "duration": 0.2760416666666714,
          "durationTicks": 212,
          "midi": 69,
          "name": "A4",
          "ticks": 94086,
          "time": 122.5078125,
          "velocity": 0.8976377952755905
        },
        {
          "duration": 0.125,
          "durationTicks": 96,
          "midi": 65,
          "name": "F4",
          "ticks": 94286,
          "time": 122.76822916666667,
          "velocity": 0.8740157480314961
        },
        {
          "duration": 0.049479166666671404,
          "durationTicks": 38,
          "midi": 69,
          "name": "A4",
          "ticks": 94678,
          "time": 123.27864583333333,
          "velocity": 0.889763779527559
        },
        {
          "duration": 0.0989583333333286,
          "durationTicks": 76,
          "midi": 69,
          "name": "A4",
          "ticks": 94778,
          "time": 123.40885416666667,
          "velocity": 0.8976377952755905
        },
        {
          "duration": 0.2239583333333428,
          "durationTicks": 172,
          "midi": 71,
          "name": "B4",
          "ticks": 94882,
          "time": 123.54427083333333,
          "velocity": 0.8582677165354331
        },
        {
          "duration": 0.109375,
          "durationTicks": 84,
          "midi": 67,
          "name": "G4",
          "ticks": 95072,
          "time": 123.79166666666667,
          "velocity": 0.8818897637795275
        },
        {
          "duration": 0.0677083333333286,
          "durationTicks": 52,
          "midi": 72,
          "name": "C5",
          "ticks": 95862,
          "time": 124.8203125,
          "velocity": 0.8818897637795275
        },
        {
          "duration": 0.059895833333328596,
          "durationTicks": 46,
          "midi": 72,
          "name": "C5",
          "ticks": 95960,
          "time": 124.94791666666667,
          "velocity": 0.8503937007874016
        },
        {
          "duration": 0.1536458333333428,
          "durationTicks": 118,
          "midi": 72,
          "name": "C5",
          "ticks": 96070,
          "time": 125.09114583333333,
          "velocity": 0.905511811023622
        },
        {
          "duration": 0.052083333333328596,
          "durationTicks": 40,
          "midi": 72,
          "name": "C5",
          "ticks": 96260,
          "time": 125.33854166666667,
          "velocity": 0.889763779527559
        },
        {
          "duration": 0.078125,
          "durationTicks": 60,
          "midi": 72,
          "name": "C5",
          "ticks": 96360,
          "time": 125.46875,
          "velocity": 0.905511811023622
        },
        {
          "duration": 0.2708333333333428,
          "durationTicks": 208,
          "midi": 71,
          "name": "B4",
          "ticks": 96460,
          "time": 125.59895833333333,
          "velocity": 0.905511811023622
        },
        {
          "duration": 0.11979166666665719,
          "durationTicks": 92,
          "midi": 67,
          "name": "G4",
          "ticks": 96656,
          "time": 125.85416666666667,
          "velocity": 0.8818897637795275
        },
        {
          "duration": 0.1328125,
          "durationTicks": 102,
          "midi": 69,
          "name": "A4",
          "ticks": 97056,
          "time": 126.375,
          "velocity": 0.8976377952755905
        },
        {
          "duration": 0.1041666666666714,
          "durationTicks": 80,
          "midi": 71,
          "name": "B4",
          "ticks": 97152,
          "time": 126.5,
          "velocity": 0.8740157480314961
        },
        {
          "duration": 0.2682291666666572,
          "durationTicks": 206,
          "midi": 69,
          "name": "A4",
          "ticks": 97256,
          "time": 126.63541666666667,
          "velocity": 0.8818897637795275
        },
        {
          "duration": 0.1302083333333428,
          "durationTicks": 100,
          "midi": 65,
          "name": "F4",
          "ticks": 97450,
          "time": 126.88802083333333,
          "velocity": 0.8582677165354331
        },
        {
          "duration": 0.05208333333334281,
          "durationTicks": 40,
          "midi": 69,
          "name": "A4",
          "ticks": 97846,
          "time": 127.40364583333333,
          "velocity": 0.8976377952755905
        },
        {
          "duration": 0.1171875,
          "durationTicks": 90,
          "midi": 69,
          "name": "A4",
          "ticks": 97946,
          "time": 127.53385416666667,
          "velocity": 0.905511811023622
        },
        {
          "duration": 0.1328125,
          "durationTicks": 102,
          "midi": 68,
          "name": "G#4",
          "ticks": 98046,
          "time": 127.6640625,
          "velocity": 0.8740157480314961
        },
        {
          "duration": 0.2161458333333286,
          "durationTicks": 166,
          "midi": 68,
          "name": "G#4",
          "ticks": 98242,
          "time": 127.91927083333333,
          "velocity": 0.889763779527559
        },
        {
          "duration": 0.2447916666666572,
          "durationTicks": 188,
          "midi": 71,
          "name": "B4",
          "ticks": 98440,
          "time": 128.17708333333334,
          "velocity": 0.8818897637795275
        },
        {
          "duration": 0.1458333333333428,
          "durationTicks": 112,
          "midi": 72,
          "name": "C5",
          "ticks": 98642,
          "time": 128.44010416666666,
          "velocity": 0.8740157480314961
        },
        {
          "duration": 0.057291666666685614,
          "durationTicks": 44,
          "midi": 72,
          "name": "C5",
          "ticks": 99038,
          "time": 128.95572916666666,
          "velocity": 0.889763779527559
        },
        {
          "duration": 0.05989583333334281,
          "durationTicks": 46,
          "midi": 72,
          "name": "C5",
          "ticks": 99132,
          "time": 129.078125,
          "velocity": 0.84251968503937
        },
        {
          "duration": 0.06510416666665719,
          "durationTicks": 50,
          "midi": 72,
          "name": "C5",
          "ticks": 99238,
          "time": 129.21614583333334,
          "velocity": 0.8503937007874016
        },
        {
          "duration": 0.05989583333334281,
          "durationTicks": 46,
          "midi": 72,
          "name": "C5",
          "ticks": 99330,
          "time": 129.3359375,
          "velocity": 0.8582677165354331
        },
        {
          "duration": 0.06770833333331439,
          "durationTicks": 52,
          "midi": 72,
          "name": "C5",
          "ticks": 99430,
          "time": 129.46614583333334,
          "velocity": 0.889763779527559
        },
        {
          "duration": 0.09114583333334281,
          "durationTicks": 70,
          "midi": 72,
          "name": "C5",
          "ticks": 99528,
          "time": 129.59375,
          "velocity": 0.889763779527559
        },
        {
          "duration": 0.265625,
          "durationTicks": 204,
          "midi": 71,
          "name": "B4",
          "ticks": 99632,
          "time": 129.72916666666666,
          "velocity": 0.905511811023622
        },
        {
          "duration": 0.1171875,
          "durationTicks": 90,
          "midi": 67,
          "name": "G4",
          "ticks": 99826,
          "time": 129.98177083333334,
          "velocity": 0.8818897637795275
        },
        {
          "duration": 0.13802083333331439,
          "durationTicks": 106,
          "midi": 69,
          "name": "A4",
          "ticks": 100222,
          "time": 130.49739583333334,
          "velocity": 0.8740157480314961
        },
        {
          "duration": 0.15625,
          "durationTicks": 120,
          "midi": 71,
          "name": "B4",
          "ticks": 100322,
          "time": 130.62760416666666,
          "velocity": 0.8503937007874016
        },
        {
          "duration": 0.2682291666666856,
          "durationTicks": 206,
          "midi": 69,
          "name": "A4",
          "ticks": 100424,
          "time": 130.76041666666666,
          "velocity": 0.8976377952755905
        },
        {
          "duration": 0.12239583333334281,
          "durationTicks": 94,
          "midi": 65,
          "name": "F4",
          "ticks": 100622,
          "time": 131.01822916666666,
          "velocity": 0.8740157480314961
        },
        {
          "duration": 0.06770833333334281,
          "durationTicks": 52,
          "midi": 69,
          "name": "A4",
          "ticks": 101012,
          "time": 131.52604166666666,
          "velocity": 0.8976377952755905
        },
        {
          "duration": 0.10416666666668561,
          "durationTicks": 80,
          "midi": 69,
          "name": "A4",
          "ticks": 101114,
          "time": 131.65885416666666,
          "velocity": 0.889763779527559
        },
        {
          "duration": 0.2578125,
          "durationTicks": 198,
          "midi": 71,
          "name": "B4",
          "ticks": 101222,
          "time": 131.79947916666666,
          "velocity": 0.905511811023622
        },
        {
          "duration": 0.1015625,
          "durationTicks": 78,
          "midi": 67,
          "name": "G4",
          "ticks": 101414,
          "time": 132.04947916666666,
          "velocity": 0.889763779527559
        },
        {
          "duration": 0.06510416666665719,
          "durationTicks": 50,
          "midi": 72,
          "name": "C5",
          "ticks": 102208,
          "time": 133.08333333333334,
          "velocity": 0.8976377952755905
        },
        {
          "duration": 0.05989583333334281,
          "durationTicks": 46,
          "midi": 72,
          "name": "C5",
          "ticks": 102306,
          "time": 133.2109375,
          "velocity": 0.8582677165354331
        },
        {
          "duration": 0.06510416666668561,
          "durationTicks": 50,
          "midi": 72,
          "name": "C5",
          "ticks": 102404,
          "time": 133.33854166666666,
          "velocity": 0.8740157480314961
        },
        {
          "duration": 0.059895833333314386,
          "durationTicks": 46,
          "midi": 72,
          "name": "C5",
          "ticks": 102502,
          "time": 133.46614583333334,
          "velocity": 0.8503937007874016
        },
        {
          "duration": 0.05989583333334281,
          "durationTicks": 46,
          "midi": 72,
          "name": "C5",
          "ticks": 102602,
          "time": 133.59635416666666,
          "velocity": 0.8818897637795275
        },
        {
          "duration": 0.125,
          "durationTicks": 96,
          "midi": 72,
          "name": "C5",
          "ticks": 102700,
          "time": 133.72395833333334,
          "velocity": 0.889763779527559
        },
        {
          "duration": 0.28125,
          "durationTicks": 216,
          "midi": 71,
          "name": "B4",
          "ticks": 102808,
          "time": 133.86458333333334,
          "velocity": 0.8818897637795275
        },
        {
          "duration": 0.09635416666668561,
          "durationTicks": 74,
          "midi": 67,
          "name": "G4",
          "ticks": 103004,
          "time": 134.11979166666666,
          "velocity": 0.8818897637795275
        },
        {
          "duration": 0.1015625,
          "durationTicks": 78,
          "midi": 69,
          "name": "A4",
          "ticks": 103394,
          "time": 134.62760416666666,
          "velocity": 0.8976377952755905
        },
        {
          "duration": 0.1536458333333428,
          "durationTicks": 118,
          "midi": 71,
          "name": "B4",
          "ticks": 103494,
          "time": 134.7578125,
          "velocity": 0.8661417322834646
        },
        {
          "duration": 0.2708333333333144,
          "durationTicks": 208,
          "midi": 69,
          "name": "A4",
          "ticks": 103594,
          "time": 134.88802083333334,
          "velocity": 0.8740157480314961
        },
        {
          "duration": 0.10416666666668561,
          "durationTicks": 80,
          "midi": 65,
          "name": "F4",
          "ticks": 103790,
          "time": 135.14322916666666,
          "velocity": 0.8582677165354331
        },
        {
          "duration": 0.046875,
          "durationTicks": 36,
          "midi": 69,
          "name": "A4",
          "ticks": 104186,
          "time": 135.65885416666666,
          "velocity": 0.8976377952755905
        },
        {
          "duration": 0.10416666666665719,
          "durationTicks": 80,
          "midi": 69,
          "name": "A4",
          "ticks": 104286,
          "time": 135.7890625,
          "velocity": 0.8818897637795275
        },
        {
          "duration": 0.2942708333333428,
          "durationTicks": 226,
          "midi": 71,
          "name": "B4",
          "ticks": 104388,
          "time": 135.921875,
          "velocity": 0.8976377952755905
        },
        {
          "duration": 0.16927083333331439,
          "durationTicks": 130,
          "midi": 68,
          "name": "G#4",
          "ticks": 104590,
          "time": 136.18489583333334,
          "velocity": 0.889763779527559
        },
        {
          "duration": 0.0546875,
          "durationTicks": 42,
          "midi": 57,
          "name": "A3",
          "ticks": 105180,
          "time": 136.953125,
          "velocity": 0.8818897637795275
        },
        {
          "duration": 0.05208333333334281,
          "durationTicks": 40,
          "midi": 57,
          "name": "A3",
          "ticks": 105278,
          "time": 137.08072916666666,
          "velocity": 0.8976377952755905
        },
        {
          "duration": 0.140625,
          "durationTicks": 108,
          "midi": 57,
          "name": "A3",
          "ticks": 105378,
          "time": 137.2109375,
          "velocity": 0.8582677165354331
        },
        {
          "duration": 0.1510416666666572,
          "durationTicks": 116,
          "midi": 64,
          "name": "E4",
          "ticks": 105478,
          "time": 137.34114583333334,
          "velocity": 0.8661417322834646
        },
        {
          "duration": 0.22916666666668561,
          "durationTicks": 176,
          "midi": 62,
          "name": "D4",
          "ticks": 105578,
          "time": 137.47135416666666,
          "velocity": 0.8818897637795275
        },
        {
          "duration": 0.09635416666665719,
          "durationTicks": 74,
          "midi": 57,
          "name": "A3",
          "ticks": 105772,
          "time": 137.72395833333334,
          "velocity": 0.8740157480314961
        },
        {
          "duration": 0.06770833333334281,
          "durationTicks": 52,
          "midi": 57,
          "name": "A3",
          "ticks": 106172,
          "time": 138.24479166666666,
          "velocity": 0.8818897637795275
        },
        {
          "duration": 0.044270833333314386,
          "durationTicks": 34,
          "midi": 57,
          "name": "A3",
          "ticks": 106372,
          "time": 138.50520833333334,
          "velocity": 0.905511811023622
        },
        {
          "duration": 0.028645833333342807,
          "durationTicks": 22,
          "midi": 57,
          "name": "A3",
          "ticks": 106464,
          "time": 138.625,
          "velocity": 0.8818897637795275
        },
        {
          "duration": 0.140625,
          "durationTicks": 108,
          "midi": 57,
          "name": "A3",
          "ticks": 106564,
          "time": 138.75520833333334,
          "velocity": 0.905511811023622
        },
        {
          "duration": 0.1380208333333428,
          "durationTicks": 106,
          "midi": 64,
          "name": "E4",
          "ticks": 106662,
          "time": 138.8828125,
          "velocity": 0.8740157480314961
        },
        {
          "duration": 0.2526041666666856,
          "durationTicks": 194,
          "midi": 62,
          "name": "D4",
          "ticks": 106760,
          "time": 139.01041666666666,
          "velocity": 0.8818897637795275
        },
        {
          "duration": 0.0859375,
          "durationTicks": 66,
          "midi": 57,
          "name": "A3",
          "ticks": 106960,
          "time": 139.27083333333334,
          "velocity": 0.8976377952755905
        },
        {
          "duration": 0.04947916666665719,
          "durationTicks": 38,
          "midi": 57,
          "name": "A3",
          "ticks": 107356,
          "time": 139.78645833333334,
          "velocity": 0.8818897637795275
        },
        {
          "duration": 0.06770833333334281,
          "durationTicks": 52,
          "midi": 57,
          "name": "A3",
          "ticks": 107454,
          "time": 139.9140625,
          "velocity": 0.8582677165354331
        },
        {
          "duration": 0.265625,
          "durationTicks": 204,
          "midi": 59,
          "name": "B3",
          "ticks": 107566,
          "time": 140.05989583333334,
          "velocity": 0.8503937007874016
        },
        {
          "duration": 0.09114583333334281,
          "durationTicks": 70,
          "midi": 55,
          "name": "G3",
          "ticks": 107750,
          "time": 140.29947916666666,
          "velocity": 0.8818897637795275
        },
        {
          "duration": 0.09895833333331439,
          "durationTicks": 76,
          "midi": 55,
          "name": "G3",
          "ticks": 107950,
          "time": 140.55989583333334,
          "velocity": 0.8976377952755905
        },
        {
          "duration": 0.109375,
          "durationTicks": 84,
          "midi": 57,
          "name": "A3",
          "ticks": 108046,
          "time": 140.68489583333334,
          "velocity": 0.8976377952755905
        },
        {
          "duration": 0.2552083333333428,
          "durationTicks": 196,
          "midi": 64,
          "name": "E4",
          "ticks": 108350,
          "time": 141.08072916666666,
          "velocity": 0.8976377952755905
        },
        {
          "duration": 0.10416666666665719,
          "durationTicks": 80,
          "midi": 60,
          "name": "C4",
          "ticks": 108544,
          "time": 141.33333333333334,
          "velocity": 0.8503937007874016
        },
        {
          "duration": 0.234375,
          "durationTicks": 180,
          "midi": 64,
          "name": "E4",
          "ticks": 108744,
          "time": 141.59375,
          "velocity": 0.8818897637795275
        },
        {
          "duration": 0.14583333333331439,
          "durationTicks": 112,
          "midi": 62,
          "name": "D4",
          "ticks": 108940,
          "time": 141.84895833333334,
          "velocity": 0.84251968503937
        },
        {
          "duration": 0.09114583333334281,
          "durationTicks": 70,
          "midi": 60,
          "name": "C4",
          "ticks": 109038,
          "time": 141.9765625,
          "velocity": 0.8976377952755905
        },
        {
          "duration": 0.2890625,
          "durationTicks": 222,
          "midi": 64,
          "name": "E4",
          "ticks": 109532,
          "time": 142.61979166666666,
          "velocity": 0.8818897637795275
        },
        {
          "duration": 0.2395833333333428,
          "durationTicks": 184,
          "midi": 60,
          "name": "C4",
          "ticks": 109728,
          "time": 142.875,
          "velocity": 0.8740157480314961
        },
        {
          "duration": 0.1432291666666572,
          "durationTicks": 110,
          "midi": 62,
          "name": "D4",
          "ticks": 109930,
          "time": 143.13802083333334,
          "velocity": 0.889763779527559
        },
        {
          "duration": 0.11979166666665719,
          "durationTicks": 92,
          "midi": 62,
          "name": "D4",
          "ticks": 110128,
          "time": 143.39583333333334,
          "velocity": 0.8976377952755905
        },
        {
          "duration": 0.1432291666666572,
          "durationTicks": 110,
          "midi": 60,
          "name": "C4",
          "ticks": 110524,
          "time": 143.91145833333334,
          "velocity": 0.8503937007874016
        },
        {
          "duration": 0.2083333333333428,
          "durationTicks": 160,
          "midi": 64,
          "name": "E4",
          "ticks": 110720,
          "time": 144.16666666666666,
          "velocity": 0.8976377952755905
        },
        {
          "duration": 0.2708333333333144,
          "durationTicks": 208,
          "midi": 62,
          "name": "D4",
          "ticks": 111118,
          "time": 144.68489583333334,
          "velocity": 0.889763779527559
        },
        {
          "duration": 0.1432291666666572,
          "durationTicks": 110,
          "midi": 60,
          "name": "C4",
          "ticks": 111216,
          "time": 144.8125,
          "velocity": 0.8582677165354331
        },
        {
          "duration": 0.10677083333331439,
          "durationTicks": 82,
          "midi": 57,
          "name": "A3",
          "ticks": 111322,
          "time": 144.95052083333334,
          "velocity": 0.905511811023622
        },
        {
          "duration": 0.07291666666668561,
          "durationTicks": 56,
          "midi": 76,
          "name": "E5",
          "ticks": 123992,
          "time": 161.44791666666666,
          "velocity": 0.8976377952755905
        },
        {
          "duration": 0.0703125,
          "durationTicks": 54,
          "midi": 72,
          "name": "C5",
          "ticks": 137256,
          "time": 178.71875,
          "velocity": 0.8976377952755905
        },
        {
          "duration": 0.06510416666668561,
          "durationTicks": 50,
          "midi": 72,
          "name": "C5",
          "ticks": 137354,
          "time": 178.84635416666666,
          "velocity": 0.8582677165354331
        },
        {
          "duration": 0.0625,
          "durationTicks": 48,
          "midi": 72,
          "name": "C5",
          "ticks": 137456,
          "time": 178.97916666666666,
          "velocity": 0.8740157480314961
        },
        {
          "duration": 0.09375,
          "durationTicks": 72,
          "midi": 72,
          "name": "C5",
          "ticks": 137556,
          "time": 179.109375,
          "velocity": 0.8818897637795275
        },
        {
          "duration": 0.234375,
          "durationTicks": 180,
          "midi": 71,
          "name": "B4",
          "ticks": 137662,
          "time": 179.24739583333334,
          "velocity": 0.905511811023622
        },
        {
          "duration": 0.15625,
          "durationTicks": 120,
          "midi": 67,
          "name": "G4",
          "ticks": 137850,
          "time": 179.4921875,
          "velocity": 0.8110236220472441
        },
        {
          "duration": 0.13541666666668561,
          "durationTicks": 104,
          "midi": 69,
          "name": "A4",
          "ticks": 138248,
          "time": 180.01041666666666,
          "velocity": 0.8976377952755905
        },
        {
          "duration": 0.15625,
          "durationTicks": 120,
          "midi": 71,
          "name": "B4",
          "ticks": 138344,
          "time": 180.13541666666666,
          "velocity": 0.8818897637795275
        },
        {
          "duration": 0.2838541666666856,
          "durationTicks": 218,
          "midi": 69,
          "name": "A4",
          "ticks": 138446,
          "time": 180.26822916666666,
          "velocity": 0.8976377952755905
        },
        {
          "duration": 0.125,
          "durationTicks": 96,
          "midi": 65,
          "name": "F4",
          "ticks": 138650,
          "time": 180.53385416666666,
          "velocity": 0.8818897637795275
        },
        {
          "duration": 0.044270833333314386,
          "durationTicks": 34,
          "midi": 69,
          "name": "A4",
          "ticks": 139042,
          "time": 181.04427083333334,
          "velocity": 0.8976377952755905
        },
        {
          "duration": 0.10416666666665719,
          "durationTicks": 80,
          "midi": 69,
          "name": "A4",
          "ticks": 139138,
          "time": 181.16927083333334,
          "velocity": 0.889763779527559
        },
        {
          "duration": 0.2708333333333428,
          "durationTicks": 208,
          "midi": 71,
          "name": "B4",
          "ticks": 139242,
          "time": 181.3046875,
          "velocity": 0.8818897637795275
        },
        {
          "duration": 0.1015625,
          "durationTicks": 78,
          "midi": 67,
          "name": "G4",
          "ticks": 139438,
          "time": 181.55989583333334,
          "velocity": 0.889763779527559
        },
        {
          "duration": 0.0625,
          "durationTicks": 48,
          "midi": 72,
          "name": "C5",
          "ticks": 140226,
          "time": 182.5859375,
          "velocity": 0.889763779527559
        },
        {
          "duration": 0.07291666666668561,
          "durationTicks": 56,
          "midi": 72,
          "name": "C5",
          "ticks": 140324,
          "time": 182.71354166666666,
          "velocity": 0.8740157480314961
        },
        {
          "duration": 0.11197916666668561,
          "durationTicks": 86,
          "midi": 72,
          "name": "C5",
          "ticks": 140432,
          "time": 182.85416666666666,
          "velocity": 0.8818897637795275
        },
        {
          "duration": 0.05729166666665719,
          "durationTicks": 44,
          "midi": 72,
          "name": "C5",
          "ticks": 140628,
          "time": 183.109375,
          "velocity": 0.8976377952755905
        },
        {
          "duration": 0.09635416666665719,
          "durationTicks": 74,
          "midi": 72,
          "name": "C5",
          "ticks": 140724,
          "time": 183.234375,
          "velocity": 0.889763779527559
        },
        {
          "duration": 0.2682291666666572,
          "durationTicks": 206,
          "midi": 71,
          "name": "B4",
          "ticks": 140824,
          "time": 183.36458333333334,
          "velocity": 0.8818897637795275
        },
        {
          "duration": 0.1302083333333428,
          "durationTicks": 100,
          "midi": 67,
          "name": "G4",
          "ticks": 141020,
          "time": 183.61979166666666,
          "velocity": 0.8818897637795275
        },
        {
          "duration": 0.10677083333334281,
          "durationTicks": 82,
          "midi": 69,
          "name": "A4",
          "ticks": 141416,
          "time": 184.13541666666666,
          "velocity": 0.8818897637795275
        },
        {
          "duration": 0.15364583333331439,
          "durationTicks": 118,
          "midi": 71,
          "name": "B4",
          "ticks": 141514,
          "time": 184.26302083333334,
          "velocity": 0.8503937007874016
        },
        {
          "duration": 0.2708333333333428,
          "durationTicks": 208,
          "midi": 69,
          "name": "A4",
          "ticks": 141618,
          "time": 184.3984375,
          "velocity": 0.8976377952755905
        },
        {
          "duration": 0.13020833333331439,
          "durationTicks": 100,
          "midi": 65,
          "name": "F4",
          "ticks": 141814,
          "time": 184.65364583333334,
          "velocity": 0.8346456692913385
        },
        {
          "duration": 0.052083333333314386,
          "durationTicks": 40,
          "midi": 69,
          "name": "A4",
          "ticks": 142210,
          "time": 185.16927083333334,
          "velocity": 0.8976377952755905
        },
        {
          "duration": 0.05989583333334281,
          "durationTicks": 46,
          "midi": 69,
          "name": "A4",
          "ticks": 142308,
          "time": 185.296875,
          "velocity": 0.889763779527559
        },
        {
          "duration": 0.1822916666666572,
          "durationTicks": 140,
          "midi": 68,
          "name": "G#4",
          "ticks": 142408,
          "time": 185.42708333333334,
          "velocity": 0.905511811023622
        },
        {
          "duration": 0.1458333333333428,
          "durationTicks": 112,
          "midi": 68,
          "name": "G#4",
          "ticks": 142608,
          "time": 185.6875,
          "velocity": 0.8740157480314961
        },
        {
          "duration": 0.2395833333333428,
          "durationTicks": 184,
          "midi": 71,
          "name": "B4",
          "ticks": 142806,
          "time": 185.9453125,
          "velocity": 0.889763779527559
        },
        {
          "duration": 0.1276041666666572,
          "durationTicks": 98,
          "midi": 72,
          "name": "C5",
          "ticks": 143016,
          "time": 186.21875,
          "velocity": 0.8818897637795275
        },
        {
          "duration": 0.06510416666668561,
          "durationTicks": 50,
          "midi": 72,
          "name": "C5",
          "ticks": 143396,
          "time": 186.71354166666666,
          "velocity": 0.8818897637795275
        },
        {
          "duration": 0.06770833333331439,
          "durationTicks": 52,
          "midi": 72,
          "name": "C5",
          "ticks": 143494,
          "time": 186.84114583333334,
          "velocity": 0.8503937007874016
        },
        {
          "duration": 0.05989583333334281,
          "durationTicks": 46,
          "midi": 72,
          "name": "C5",
          "ticks": 143598,
          "time": 186.9765625,
          "velocity": 0.8503937007874016
        },
        {
          "duration": 0.059895833333314386,
          "durationTicks": 46,
          "midi": 72,
          "name": "C5",
          "ticks": 143692,
          "time": 187.09895833333334,
          "velocity": 0.8582677165354331
        },
        {
          "duration": 0.057291666666685614,
          "durationTicks": 44,
          "midi": 72,
          "name": "C5",
          "ticks": 143792,
          "time": 187.22916666666666,
          "velocity": 0.8661417322834646
        },
        {
          "duration": 0.09635416666665719,
          "durationTicks": 74,
          "midi": 72,
          "name": "C5",
          "ticks": 143892,
          "time": 187.359375,
          "velocity": 0.8818897637795275
        },
        {
          "duration": 0.2552083333333428,
          "durationTicks": 196,
          "midi": 71,
          "name": "B4",
          "ticks": 144006,
          "time": 187.5078125,
          "velocity": 0.8976377952755905
        },
        {
          "duration": 0.140625,
          "durationTicks": 108,
          "midi": 67,
          "name": "G4",
          "ticks": 144196,
          "time": 187.75520833333334,
          "velocity": 0.8740157480314961
        },
        {
          "duration": 0.09375,
          "durationTicks": 72,
          "midi": 69,
          "name": "A4",
          "ticks": 144592,
          "time": 188.27083333333334,
          "velocity": 0.8818897637795275
        },
        {
          "duration": 0.1484375,
          "durationTicks": 114,
          "midi": 71,
          "name": "B4",
          "ticks": 144684,
          "time": 188.390625,
          "velocity": 0.8267716535433071
        },
        {
          "duration": 0.2734375,
          "durationTicks": 210,
          "midi": 69,
          "name": "A4",
          "ticks": 144798,
          "time": 188.5390625,
          "velocity": 0.889763779527559
        },
        {
          "duration": 0.10677083333334281,
          "durationTicks": 82,
          "midi": 65,
          "name": "F4",
          "ticks": 144990,
          "time": 188.7890625,
          "velocity": 0.8740157480314961
        },
        {
          "duration": 0.04166666666665719,
          "durationTicks": 32,
          "midi": 69,
          "name": "A4",
          "ticks": 145380,
          "time": 189.296875,
          "velocity": 0.8740157480314961
        },
        {
          "duration": 0.09375,
          "durationTicks": 72,
          "midi": 69,
          "name": "A4",
          "ticks": 145478,
          "time": 189.42447916666666,
          "velocity": 0.8976377952755905
        },
        {
          "duration": 0.2630208333333428,
          "durationTicks": 202,
          "midi": 71,
          "name": "B4",
          "ticks": 145586,
          "time": 189.56510416666666,
          "velocity": 0.8976377952755905
        },
        {
          "duration": 0.09895833333331439,
          "durationTicks": 76,
          "midi": 67,
          "name": "G4",
          "ticks": 145780,
          "time": 189.81770833333334,
          "velocity": 0.8582677165354331
        },
        {
          "duration": 0.06770833333334281,
          "durationTicks": 52,
          "midi": 72,
          "name": "C5",
          "ticks": 146568,
          "time": 190.84375,
          "velocity": 0.8740157480314961
        },
        {
          "duration": 0.0625,
          "durationTicks": 48,
          "midi": 72,
          "name": "C5",
          "ticks": 146666,
          "time": 190.97135416666666,
          "velocity": 0.8503937007874016
        },
        {
          "duration": 0.04947916666665719,
          "durationTicks": 38,
          "midi": 72,
          "name": "C5",
          "ticks": 146772,
          "time": 191.109375,
          "velocity": 0.8503937007874016
        },
        {
          "duration": 0.05989583333334281,
          "durationTicks": 46,
          "midi": 72,
          "name": "C5",
          "ticks": 146864,
          "time": 191.22916666666666,
          "velocity": 0.8582677165354331
        },
        {
          "duration": 0.0703125,
          "durationTicks": 54,
          "midi": 72,
          "name": "C5",
          "ticks": 146962,
          "time": 191.35677083333334,
          "velocity": 0.8740157480314961
        },
        {
          "duration": 0.140625,
          "durationTicks": 108,
          "midi": 72,
          "name": "C5",
          "ticks": 147060,
          "time": 191.484375,
          "velocity": 0.8740157480314961
        },
        {
          "duration": 0.2395833333333428,
          "durationTicks": 184,
          "midi": 71,
          "name": "B4",
          "ticks": 147168,
          "time": 191.625,
          "velocity": 0.8818897637795275
        },
        {
          "duration": 0.1328125,
          "durationTicks": 102,
          "midi": 67,
          "name": "G4",
          "ticks": 147362,
          "time": 191.87760416666666,
          "velocity": 0.8661417322834646
        },
        {
          "duration": 0.09895833333334281,
          "durationTicks": 76,
          "midi": 69,
          "name": "A4",
          "ticks": 147756,
          "time": 192.390625,
          "velocity": 0.8818897637795275
        },
        {
          "duration": 0.1432291666666572,
          "durationTicks": 110,
          "midi": 71,
          "name": "B4",
          "ticks": 147852,
          "time": 192.515625,
          "velocity": 0.8503937007874016
        },
        {
          "duration": 0.2682291666666572,
          "durationTicks": 206,
          "midi": 69,
          "name": "A4",
          "ticks": 147958,
          "time": 192.65364583333334,
          "velocity": 0.8503937007874016
        },
        {
          "duration": 0.10677083333331439,
          "durationTicks": 82,
          "midi": 65,
          "name": "F4",
          "ticks": 148150,
          "time": 192.90364583333334,
          "velocity": 0.8661417322834646
        },
        {
          "duration": 0.052083333333314386,
          "durationTicks": 40,
          "midi": 69,
          "name": "A4",
          "ticks": 148546,
          "time": 193.41927083333334,
          "velocity": 0.889763779527559
        },
        {
          "duration": 0.09375,
          "durationTicks": 72,
          "midi": 69,
          "name": "A4",
          "ticks": 148646,
          "time": 193.54947916666666,
          "velocity": 0.889763779527559
        },
        {
          "duration": 0.28125,
          "durationTicks": 216,
          "midi": 68,
          "name": "G#4",
          "ticks": 148748,
          "time": 193.68229166666666,
          "velocity": 0.8661417322834646
        },
        {
          "duration": 0.22916666666668561,
          "durationTicks": 176,
          "midi": 69,
          "name": "A4",
          "ticks": 148946,
          "time": 193.94010416666666,
          "velocity": 0.905511811023622
        },
        {
          "duration": 0.2526041666666856,
          "durationTicks": 194,
          "midi": 71,
          "name": "B4",
          "ticks": 149144,
          "time": 194.19791666666666,
          "velocity": 0.8740157480314961
        },
        {
          "duration": 0.1484375,
          "durationTicks": 114,
          "midi": 72,
          "name": "C5",
          "ticks": 149348,
          "time": 194.46354166666666,
          "velocity": 0.8661417322834646
        },
        {
          "duration": 0.06770833333331439,
          "durationTicks": 52,
          "midi": 72,
          "name": "C5",
          "ticks": 149938,
          "time": 195.23177083333334,
          "velocity": 0.8976377952755905
        },
        {
          "duration": 0.0625,
          "durationTicks": 48,
          "midi": 72,
          "name": "C5",
          "ticks": 150038,
          "time": 195.36197916666666,
          "velocity": 0.8582677165354331
        },
        {
          "duration": 0.0625,
          "durationTicks": 48,
          "midi": 72,
          "name": "C5",
          "ticks": 150138,
          "time": 195.4921875,
          "velocity": 0.8740157480314961
        },
        {
          "duration": 0.09635416666665719,
          "durationTicks": 74,
          "midi": 72,
          "name": "C5",
          "ticks": 150234,
          "time": 195.6171875,
          "velocity": 0.8818897637795275
        },
        {
          "duration": 0.23177083333331439,
          "durationTicks": 178,
          "midi": 71,
          "name": "B4",
          "ticks": 150346,
          "time": 195.76302083333334,
          "velocity": 0.905511811023622
        },
        {
          "duration": 0.15625,
          "durationTicks": 120,
          "midi": 67,
          "name": "G4",
          "ticks": 150532,
          "time": 196.00520833333334,
          "velocity": 0.8110236220472441
        },
        {
          "duration": 0.13802083333331439,
          "durationTicks": 106,
          "midi": 69,
          "name": "A4",
          "ticks": 150928,
          "time": 196.52083333333334,
          "velocity": 0.8976377952755905
        },
        {
          "duration": 0.1588541666666572,
          "durationTicks": 122,
          "midi": 71,
          "name": "B4",
          "ticks": 151024,
          "time": 196.64583333333334,
          "velocity": 0.8818897637795275
        },
        {
          "duration": 0.28125,
          "durationTicks": 216,
          "midi": 69,
          "name": "A4",
          "ticks": 151128,
          "time": 196.78125,
          "velocity": 0.8976377952755905
        },
        {
          "duration": 0.125,
          "durationTicks": 96,
          "midi": 65,
          "name": "F4",
          "ticks": 151330,
          "time": 197.04427083333334,
          "velocity": 0.8818897637795275
        },
        {
          "duration": 0.04947916666665719,
          "durationTicks": 38,
          "midi": 69,
          "name": "A4",
          "ticks": 151720,
          "time": 197.55208333333334,
          "velocity": 0.8976377952755905
        },
        {
          "duration": 0.10677083333334281,
          "durationTicks": 82,
          "midi": 69,
          "name": "A4",
          "ticks": 151818,
          "time": 197.6796875,
          "velocity": 0.889763779527559
        },
        {
          "duration": 0.2708333333333428,
          "durationTicks": 208,
          "midi": 71,
          "name": "B4",
          "ticks": 151922,
          "time": 197.81510416666666,
          "velocity": 0.8818897637795275
        },
        {
          "duration": 0.09895833333331439,
          "durationTicks": 76,
          "midi": 67,
          "name": "G4",
          "ticks": 152122,
          "time": 198.07552083333334,
          "velocity": 0.889763779527559
        },
        {
          "duration": 0.0625,
          "durationTicks": 48,
          "midi": 72,
          "name": "C5",
          "ticks": 152908,
          "time": 199.09895833333334,
          "velocity": 0.889763779527559
        },
        {
          "duration": 0.07291666666665719,
          "durationTicks": 56,
          "midi": 72,
          "name": "C5",
          "ticks": 153004,
          "time": 199.22395833333334,
          "velocity": 0.8740157480314961
        },
        {
          "duration": 0.109375,
          "durationTicks": 84,
          "midi": 72,
          "name": "C5",
          "ticks": 153114,
          "time": 199.3671875,
          "velocity": 0.8818897637795275
        },
        {
          "duration": 0.05989583333334281,
          "durationTicks": 46,
          "midi": 72,
          "name": "C5",
          "ticks": 153306,
          "time": 199.6171875,
          "velocity": 0.8976377952755905
        },
        {
          "duration": 0.09895833333334281,
          "durationTicks": 76,
          "midi": 72,
          "name": "C5",
          "ticks": 153404,
          "time": 199.74479166666666,
          "velocity": 0.889763779527559
        },
        {
          "duration": 0.2708333333333428,
          "durationTicks": 208,
          "midi": 71,
          "name": "B4",
          "ticks": 153504,
          "time": 199.875,
          "velocity": 0.8818897637795275
        },
        {
          "duration": 0.1302083333333428,
          "durationTicks": 100,
          "midi": 67,
          "name": "G4",
          "ticks": 153702,
          "time": 200.1328125,
          "velocity": 0.8818897637795275
        },
        {
          "duration": 0.10677083333334281,
          "durationTicks": 82,
          "midi": 69,
          "name": "A4",
          "ticks": 154098,
          "time": 200.6484375,
          "velocity": 0.8818897637795275
        },
        {
          "duration": 0.1510416666666572,
          "durationTicks": 116,
          "midi": 71,
          "name": "B4",
          "ticks": 154198,
          "time": 200.77864583333334,
          "velocity": 0.8503937007874016
        },
        {
          "duration": 0.2630208333333144,
          "durationTicks": 202,
          "midi": 69,
          "name": "A4",
          "ticks": 154300,
          "time": 200.91145833333334,
          "velocity": 0.8976377952755905
        },
        {
          "duration": 0.1302083333333428,
          "durationTicks": 100,
          "midi": 65,
          "name": "F4",
          "ticks": 154496,
          "time": 201.16666666666666,
          "velocity": 0.8346456692913385
        },
        {
          "duration": 0.0546875,
          "durationTicks": 42,
          "midi": 69,
          "name": "A4",
          "ticks": 154892,
          "time": 201.68229166666666,
          "velocity": 0.8976377952755905
        },
        {
          "duration": 0.059895833333314386,
          "durationTicks": 46,
          "midi": 69,
          "name": "A4",
          "ticks": 154990,
          "time": 201.80989583333334,
          "velocity": 0.889763779527559
        },
        {
          "duration": 0.1796875,
          "durationTicks": 138,
          "midi": 68,
          "name": "G#4",
          "ticks": 155092,
          "time": 201.94270833333334,
          "velocity": 0.905511811023622
        },
        {
          "duration": 0.1458333333333428,
          "durationTicks": 112,
          "midi": 68,
          "name": "G#4",
          "ticks": 155292,
          "time": 202.203125,
          "velocity": 0.8740157480314961
        },
        {
          "duration": 0.23697916666668561,
          "durationTicks": 182,
          "midi": 71,
          "name": "B4",
          "ticks": 155492,
          "time": 202.46354166666666,
          "velocity": 0.889763779527559
        },
        {
          "duration": 0.13020833333331439,
          "durationTicks": 100,
          "midi": 72,
          "name": "C5",
          "ticks": 155698,
          "time": 202.73177083333334,
          "velocity": 0.8818897637795275
        },
        {
          "duration": 0.06770833333334281,
          "durationTicks": 52,
          "midi": 72,
          "name": "C5",
          "ticks": 156078,
          "time": 203.2265625,
          "velocity": 0.8818897637795275
        },
        {
          "duration": 0.06770833333334281,
          "durationTicks": 52,
          "midi": 72,
          "name": "C5",
          "ticks": 156176,
          "time": 203.35416666666666,
          "velocity": 0.8503937007874016
        },
        {
          "duration": 0.0625,
          "durationTicks": 48,
          "midi": 72,
          "name": "C5",
          "ticks": 156278,
          "time": 203.48697916666666,
          "velocity": 0.8503937007874016
        },
        {
          "duration": 0.0625,
          "durationTicks": 48,
          "midi": 72,
          "name": "C5",
          "ticks": 156374,
          "time": 203.61197916666666,
          "velocity": 0.8582677165354331
        },
        {
          "duration": 0.0625,
          "durationTicks": 48,
          "midi": 72,
          "name": "C5",
          "ticks": 156472,
          "time": 203.73958333333334,
          "velocity": 0.8661417322834646
        },
        {
          "duration": 0.09895833333331439,
          "durationTicks": 76,
          "midi": 72,
          "name": "C5",
          "ticks": 156574,
          "time": 203.87239583333334,
          "velocity": 0.8818897637795275
        },
        {
          "duration": 0.2578125,
          "durationTicks": 198,
          "midi": 71,
          "name": "B4",
          "ticks": 156684,
          "time": 204.015625,
          "velocity": 0.8976377952755905
        },
        {
          "duration": 0.14583333333331439,
          "durationTicks": 112,
          "midi": 67,
          "name": "G4",
          "ticks": 156874,
          "time": 204.26302083333334,
          "velocity": 0.8740157480314961
        },
        {
          "duration": 0.09635416666665719,
          "durationTicks": 74,
          "midi": 69,
          "name": "A4",
          "ticks": 157270,
          "time": 204.77864583333334,
          "velocity": 0.8818897637795275
        },
        {
          "duration": 0.14583333333331439,
          "durationTicks": 112,
          "midi": 71,
          "name": "B4",
          "ticks": 157366,
          "time": 204.90364583333334,
          "velocity": 0.8267716535433071
        },
        {
          "duration": 0.2760416666666856,
          "durationTicks": 212,
          "midi": 69,
          "name": "A4",
          "ticks": 157478,
          "time": 205.04947916666666,
          "velocity": 0.889763779527559
        },
        {
          "duration": 0.11197916666665719,
          "durationTicks": 86,
          "midi": 65,
          "name": "F4",
          "ticks": 157668,
          "time": 205.296875,
          "velocity": 0.8740157480314961
        },
        {
          "duration": 0.04166666666665719,
          "durationTicks": 32,
          "midi": 69,
          "name": "A4",
          "ticks": 158062,
          "time": 205.80989583333334,
          "velocity": 0.8740157480314961
        },
        {
          "duration": 0.09375,
          "durationTicks": 72,
          "midi": 69,
          "name": "A4",
          "ticks": 158160,
          "time": 205.9375,
          "velocity": 0.8976377952755905
        },
        {
          "duration": 0.2604166666666856,
          "durationTicks": 200,
          "midi": 71,
          "name": "B4",
          "ticks": 158270,
          "time": 206.08072916666666,
          "velocity": 0.8976377952755905
        },
        {
          "duration": 0.09635416666665719,
          "durationTicks": 74,
          "midi": 67,
          "name": "G4",
          "ticks": 158466,
          "time": 206.3359375,
          "velocity": 0.8582677165354331
        },
        {
          "duration": 0.06770833333331439,
          "durationTicks": 52,
          "midi": 72,
          "name": "C5",
          "ticks": 159250,
          "time": 207.35677083333334,
          "velocity": 0.8740157480314961
        },
        {
          "duration": 0.0625,
          "durationTicks": 48,
          "midi": 72,
          "name": "C5",
          "ticks": 159348,
          "time": 207.484375,
          "velocity": 0.8503937007874016
        },
        {
          "duration": 0.04947916666665719,
          "durationTicks": 38,
          "midi": 72,
          "name": "C5",
          "ticks": 159456,
          "time": 207.625,
          "velocity": 0.8503937007874016
        },
        {
          "duration": 0.06510416666665719,
          "durationTicks": 50,
          "midi": 72,
          "name": "C5",
          "ticks": 159544,
          "time": 207.73958333333334,
          "velocity": 0.8582677165354331
        },
        {
          "duration": 0.0703125,
          "durationTicks": 54,
          "midi": 72,
          "name": "C5",
          "ticks": 159646,
          "time": 207.87239583333334,
          "velocity": 0.8740157480314961
        },
        {
          "duration": 0.1536458333333428,
          "durationTicks": 118,
          "midi": 72,
          "name": "C5",
          "ticks": 159746,
          "time": 208.00260416666666,
          "velocity": 0.8740157480314961
        },
        {
          "duration": 0.23958333333331439,
          "durationTicks": 184,
          "midi": 71,
          "name": "B4",
          "ticks": 159850,
          "time": 208.13802083333334,
          "velocity": 0.8818897637795275
        },
        {
          "duration": 0.1328125,
          "durationTicks": 102,
          "midi": 67,
          "name": "G4",
          "ticks": 160044,
          "time": 208.390625,
          "velocity": 0.8661417322834646
        },
        {
          "duration": 0.09895833333331439,
          "durationTicks": 76,
          "midi": 69,
          "name": "A4",
          "ticks": 160438,
          "time": 208.90364583333334,
          "velocity": 0.8818897637795275
        },
        {
          "duration": 0.140625,
          "durationTicks": 108,
          "midi": 71,
          "name": "B4",
          "ticks": 160538,
          "time": 209.03385416666666,
          "velocity": 0.8503937007874016
        },
        {
          "duration": 0.2682291666666856,
          "durationTicks": 206,
          "midi": 69,
          "name": "A4",
          "ticks": 160640,
          "time": 209.16666666666666,
          "velocity": 0.8503937007874016
        },
        {
          "duration": 0.10416666666665719,
          "durationTicks": 80,
          "midi": 65,
          "name": "F4",
          "ticks": 160834,
          "time": 209.41927083333334,
          "velocity": 0.8661417322834646
        },
        {
          "duration": 0.046875,
          "durationTicks": 36,
          "midi": 69,
          "name": "A4",
          "ticks": 161232,
          "time": 209.9375,
          "velocity": 0.889763779527559
        },
        {
          "duration": 0.09114583333331439,
          "durationTicks": 70,
          "midi": 69,
          "name": "A4",
          "ticks": 161332,
          "time": 210.06770833333334,
          "velocity": 0.889763779527559
        },
        {
          "duration": 0.2838541666666572,
          "durationTicks": 218,
          "midi": 68,
          "name": "G#4",
          "ticks": 161430,
          "time": 210.1953125,
          "velocity": 0.8661417322834646
        },
        {
          "duration": 0.2239583333333428,
          "durationTicks": 172,
          "midi": 69,
          "name": "A4",
          "ticks": 161630,
          "time": 210.45572916666666,
          "velocity": 0.905511811023622
        },
        {
          "duration": 0.25,
          "durationTicks": 192,
          "midi": 71,
          "name": "B4",
          "ticks": 161826,
          "time": 210.7109375,
          "velocity": 0.8740157480314961
        },
        {
          "duration": 0.14322916666668561,
          "durationTicks": 110,
          "midi": 72,
          "name": "C5",
          "ticks": 162032,
          "time": 210.97916666666666,
          "velocity": 0.8661417322834646
        }
      ]
    },
    {
      "channel": 0,
      "controlChanges": {
        "7": [
          {
            "number": 7,
            "ticks": 1536,
            "time": 2,
            "value": 1
          }
        ],
        "10": [
          {
            "number": 10,
            "ticks": 1536,
            "time": 2,
            "value": 0.08661417322834646
          }
        ]
      },
      "pitchBends": [],
      "instrument": {
        "family": "bass",
        "number": 38,
        "name": "synth bass 1"
      },
      "name": "SYN BASS 2",
      "notes": [],
      "endOfTrackTicks": 162470
    },
    {
      "channel": 1,
      "controlChanges": {},
      "pitchBends": [
        {
          "ticks": 162278,
          "time": 211.29947916666666,
          "value": 0
        }
      ],
      "instrument": {
        "family": "bass",
        "number": 39,
        "name": "synth bass 2"
      },
      "name": "",
      "notes": [
        {
          "duration": 0.125,
          "durationTicks": 96,
          "midi": 33,
          "name": "A1",
          "ticks": 3584,
          "time": 4.666666666666667,
          "velocity": 0.952755905511811
        },
        {
          "duration": 0.09635416666666696,
          "durationTicks": 74,
          "midi": 33,
          "name": "A1",
          "ticks": 3982,
          "time": 5.184895833333333,
          "velocity": 0.9448818897637795
        },
        {
          "duration": 0.05989583333333304,
          "durationTicks": 46,
          "midi": 33,
          "name": "A1",
          "ticks": 4184,
          "time": 5.447916666666667,
          "velocity": 0.937007874015748
        },
        {
          "duration": 0.09635416666666607,
          "durationTicks": 74,
          "midi": 33,
          "name": "A1",
          "ticks": 4280,
          "time": 5.572916666666667,
          "velocity": 0.8188976377952756
        },
        {
          "duration": 0.14583333333333304,
          "durationTicks": 112,
          "midi": 31,
          "name": "G1",
          "ticks": 4382,
          "time": 5.705729166666667,
          "velocity": 0.9606299212598425
        },
        {
          "duration": 0.12760416666666696,
          "durationTicks": 98,
          "midi": 33,
          "name": "A1",
          "ticks": 4480,
          "time": 5.833333333333333,
          "velocity": 0.9606299212598425
        },
        {
          "duration": 0.234375,
          "durationTicks": 180,
          "midi": 35,
          "name": "B1",
          "ticks": 4578,
          "time": 5.9609375,
          "velocity": 0.8976377952755905
        },
        {
          "duration": 0.125,
          "durationTicks": 96,
          "midi": 35,
          "name": "B1",
          "ticks": 4776,
          "time": 6.21875,
          "velocity": 0.9448818897637795
        },
        {
          "duration": 0.15104166666666696,
          "durationTicks": 116,
          "midi": 33,
          "name": "A1",
          "ticks": 5170,
          "time": 6.731770833333333,
          "velocity": 0.9291338582677166
        },
        {
          "duration": 0.15364583333333304,
          "durationTicks": 118,
          "midi": 35,
          "name": "B1",
          "ticks": 5270,
          "time": 6.861979166666667,
          "velocity": 0.952755905511811
        },
        {
          "duration": 0.26171875,
          "durationTicks": 201,
          "midi": 36,
          "name": "C2",
          "ticks": 5368,
          "time": 6.989583333333333,
          "velocity": 0.9212598425196851
        },
        {
          "duration": 0.26041666666666696,
          "durationTicks": 200,
          "midi": 36,
          "name": "C2",
          "ticks": 5568,
          "time": 7.25,
          "velocity": 0.9291338582677166
        },
        {
          "duration": 0.13802083333333304,
          "durationTicks": 106,
          "midi": 35,
          "name": "B1",
          "ticks": 5958,
          "time": 7.7578125,
          "velocity": 0.952755905511811
        },
        {
          "duration": 0.13802083333333304,
          "durationTicks": 106,
          "midi": 36,
          "name": "C2",
          "ticks": 6062,
          "time": 7.893229166666667,
          "velocity": 0.9606299212598425
        },
        {
          "duration": 0.1015625,
          "durationTicks": 78,
          "midi": 35,
          "name": "B1",
          "ticks": 6164,
          "time": 8.026041666666666,
          "velocity": 0.984251968503937
        },
        {
          "duration": 0.09114583333333393,
          "durationTicks": 70,
          "midi": 35,
          "name": "B1",
          "ticks": 6260,
          "time": 8.151041666666666,
          "velocity": 0.937007874015748
        },
        {
          "duration": 0.3984375,
          "durationTicks": 306,
          "midi": 31,
          "name": "G1",
          "ticks": 6356,
          "time": 8.276041666666666,
          "velocity": 0.9921259842519685
        },
        {
          "duration": 0.11197916666666785,
          "durationTicks": 86,
          "midi": 33,
          "name": "A1",
          "ticks": 6752,
          "time": 8.791666666666666,
          "velocity": 0.952755905511811
        },
        {
          "duration": 0.08854166666666607,
          "durationTicks": 68,
          "midi": 33,
          "name": "A1",
          "ticks": 7152,
          "time": 9.3125,
          "velocity": 0.9448818897637795
        },
        {
          "duration": 0.0546875,
          "durationTicks": 42,
          "midi": 33,
          "name": "A1",
          "ticks": 7352,
          "time": 9.572916666666666,
          "velocity": 0.9448818897637795
        },
        {
          "duration": 0.10416666666666607,
          "durationTicks": 80,
          "midi": 33,
          "name": "A1",
          "ticks": 7446,
          "time": 9.6953125,
          "velocity": 0.8976377952755905
        },
        {
          "duration": 0.14583333333333393,
          "durationTicks": 112,
          "midi": 31,
          "name": "G1",
          "ticks": 7548,
          "time": 9.828125,
          "velocity": 0.9606299212598425
        },
        {
          "duration": 0.15104166666666785,
          "durationTicks": 116,
          "midi": 33,
          "name": "A1",
          "ticks": 7646,
          "time": 9.955729166666666,
          "velocity": 0.9606299212598425
        },
        {
          "duration": 0.2604166666666661,
          "durationTicks": 200,
          "midi": 35,
          "name": "B1",
          "ticks": 7746,
          "time": 10.0859375,
          "velocity": 0.9448818897637795
        },
        {
          "duration": 0.109375,
          "durationTicks": 84,
          "midi": 35,
          "name": "B1",
          "ticks": 7948,
          "time": 10.348958333333334,
          "velocity": 0.9448818897637795
        },
        {
          "duration": 0.14322916666666607,
          "durationTicks": 110,
          "midi": 33,
          "name": "A1",
          "ticks": 8338,
          "time": 10.856770833333334,
          "velocity": 0.9291338582677166
        },
        {
          "duration": 0.15885416666666607,
          "durationTicks": 122,
          "midi": 35,
          "name": "B1",
          "ticks": 8436,
          "time": 10.984375,
          "velocity": 0.968503937007874
        },
        {
          "duration": 0.22395833333333215,
          "durationTicks": 172,
          "midi": 36,
          "name": "C2",
          "ticks": 8536,
          "time": 11.114583333333334,
          "velocity": 0.9291338582677166
        },
        {
          "duration": 0.12760416666666785,
          "durationTicks": 98,
          "midi": 36,
          "name": "C2",
          "ticks": 8732,
          "time": 11.369791666666666,
          "velocity": 0.905511811023622
        },
        {
          "duration": 0.109375,
          "durationTicks": 84,
          "midi": 35,
          "name": "B1",
          "ticks": 9124,
          "time": 11.880208333333334,
          "velocity": 0.9448818897637795
        },
        {
          "duration": 0.15104166666666785,
          "durationTicks": 116,
          "midi": 36,
          "name": "C2",
          "ticks": 9224,
          "time": 12.010416666666666,
          "velocity": 0.937007874015748
        },
        {
          "duration": 0.125,
          "durationTicks": 96,
          "midi": 35,
          "name": "B1",
          "ticks": 9328,
          "time": 12.145833333333334,
          "velocity": 0.9606299212598425
        },
        {
          "duration": 0.08333333333333393,
          "durationTicks": 64,
          "midi": 35,
          "name": "B1",
          "ticks": 9426,
          "time": 12.2734375,
          "velocity": 0.9448818897637795
        },
        {
          "duration": 0.4375,
          "durationTicks": 336,
          "midi": 31,
          "name": "G1",
          "ticks": 9526,
          "time": 12.403645833333334,
          "velocity": 0.984251968503937
        },
        {
          "duration": 0.109375,
          "durationTicks": 84,
          "midi": 33,
          "name": "A1",
          "ticks": 9920,
          "time": 12.916666666666666,
          "velocity": 0.968503937007874
        },
        {
          "duration": 0.1015625,
          "durationTicks": 78,
          "midi": 33,
          "name": "A1",
          "ticks": 10316,
          "time": 13.432291666666666,
          "velocity": 0.9291338582677166
        },
        {
          "duration": 0.046875,
          "durationTicks": 36,
          "midi": 33,
          "name": "A1",
          "ticks": 10518,
          "time": 13.6953125,
          "velocity": 0.9291338582677166
        },
        {
          "duration": 0.09114583333333215,
          "durationTicks": 70,
          "midi": 33,
          "name": "A1",
          "ticks": 10612,
          "time": 13.817708333333334,
          "velocity": 0.8188976377952756
        },
        {
          "duration": 0.13020833333333393,
          "durationTicks": 100,
          "midi": 31,
          "name": "G1",
          "ticks": 10712,
          "time": 13.947916666666666,
          "velocity": 0.952755905511811
        },
        {
          "duration": 0.11458333333333393,
          "durationTicks": 88,
          "midi": 33,
          "name": "A1",
          "ticks": 10812,
          "time": 14.078125,
          "velocity": 0.968503937007874
        },
        {
          "duration": 0.24479166666666607,
          "durationTicks": 188,
          "midi": 35,
          "name": "B1",
          "ticks": 10908,
          "time": 14.203125,
          "velocity": 0.984251968503937
        },
        {
          "duration": 0.12239583333333215,
          "durationTicks": 94,
          "midi": 35,
          "name": "B1",
          "ticks": 11110,
          "time": 14.466145833333334,
          "velocity": 0.937007874015748
        },
        {
          "duration": 0.1484375,
          "durationTicks": 114,
          "midi": 33,
          "name": "A1",
          "ticks": 11500,
          "time": 14.973958333333334,
          "velocity": 0.8818897637795275
        },
        {
          "duration": 0.16145833333333393,
          "durationTicks": 124,
          "midi": 35,
          "name": "B1",
          "ticks": 11598,
          "time": 15.1015625,
          "velocity": 0.984251968503937
        },
        {
          "duration": 0.23958333333333393,
          "durationTicks": 184,
          "midi": 36,
          "name": "C2",
          "ticks": 11700,
          "time": 15.234375,
          "velocity": 0.9291338582677166
        },
        {
          "duration": 0.125,
          "durationTicks": 96,
          "midi": 36,
          "name": "C2",
          "ticks": 11900,
          "time": 15.494791666666666,
          "velocity": 0.9212598425196851
        },
        {
          "duration": 0.1223958333333357,
          "durationTicks": 94,
          "midi": 35,
          "name": "B1",
          "ticks": 12292,
          "time": 16.005208333333332,
          "velocity": 0.952755905511811
        },
        {
          "duration": 0.1302083333333357,
          "durationTicks": 100,
          "midi": 36,
          "name": "C2",
          "ticks": 12394,
          "time": 16.138020833333332,
          "velocity": 0.937007874015748
        },
        {
          "duration": 0.203125,
          "durationTicks": 156,
          "midi": 35,
          "name": "B1",
          "ticks": 12498,
          "time": 16.2734375,
          "velocity": 0.9763779527559056
        },
        {
          "duration": 0.5286458333333321,
          "durationTicks": 406,
          "midi": 31,
          "name": "G1",
          "ticks": 12690,
          "time": 16.5234375,
          "velocity": 0.9606299212598425
        },
        {
          "duration": 0.109375,
          "durationTicks": 84,
          "midi": 33,
          "name": "A1",
          "ticks": 13090,
          "time": 17.044270833333332,
          "velocity": 0.905511811023622
        },
        {
          "duration": 0.1015625,
          "durationTicks": 78,
          "midi": 33,
          "name": "A1",
          "ticks": 13486,
          "time": 17.559895833333332,
          "velocity": 0.905511811023622
        },
        {
          "duration": 0.04947916666666785,
          "durationTicks": 38,
          "midi": 33,
          "name": "A1",
          "ticks": 13686,
          "time": 17.8203125,
          "velocity": 0.937007874015748
        },
        {
          "duration": 0.08072916666666785,
          "durationTicks": 62,
          "midi": 33,
          "name": "A1",
          "ticks": 13780,
          "time": 17.942708333333332,
          "velocity": 0.8976377952755905
        },
        {
          "duration": 0.1302083333333357,
          "durationTicks": 100,
          "midi": 31,
          "name": "G1",
          "ticks": 13882,
          "time": 18.075520833333332,
          "velocity": 0.9291338582677166
        },
        {
          "duration": 0.1432291666666643,
          "durationTicks": 110,
          "midi": 33,
          "name": "A1",
          "ticks": 13982,
          "time": 18.205729166666668,
          "velocity": 0.952755905511811
        },
        {
          "duration": 0.25911458333333215,
          "durationTicks": 199,
          "midi": 35,
          "name": "B1",
          "ticks": 14082,
          "time": 18.3359375,
          "velocity": 0.8818897637795275
        },
        {
          "duration": 0.2578125,
          "durationTicks": 198,
          "midi": 35,
          "name": "B1",
          "ticks": 14280,
          "time": 18.59375,
          "velocity": 0.9212598425196851
        },
        {
          "duration": 0.11458333333333215,
          "durationTicks": 88,
          "midi": 33,
          "name": "A1",
          "ticks": 14670,
          "time": 19.1015625,
          "velocity": 0.905511811023622
        },
        {
          "duration": 0.1484375,
          "durationTicks": 114,
          "midi": 35,
          "name": "B1",
          "ticks": 14768,
          "time": 19.229166666666668,
          "velocity": 0.968503937007874
        },
        {
          "duration": 0.26171875,
          "durationTicks": 201,
          "midi": 36,
          "name": "C2",
          "ticks": 14870,
          "time": 19.361979166666668,
          "velocity": 0.9212598425196851
        },
        {
          "duration": 0.26041666666666785,
          "durationTicks": 200,
          "midi": 36,
          "name": "C2",
          "ticks": 15070,
          "time": 19.622395833333332,
          "velocity": 0.8976377952755905
        },
        {
          "duration": 0.10416666666666785,
          "durationTicks": 80,
          "midi": 35,
          "name": "B1",
          "ticks": 15462,
          "time": 20.1328125,
          "velocity": 0.937007874015748
        },
        {
          "duration": 0.125,
          "durationTicks": 96,
          "midi": 36,
          "name": "C2",
          "ticks": 15558,
          "time": 20.2578125,
          "velocity": 0.9291338582677166
        },
        {
          "duration": 0.23958333333333215,
          "durationTicks": 184,
          "midi": 35,
          "name": "B1",
          "ticks": 15662,
          "time": 20.393229166666668,
          "velocity": 0.952755905511811
        },
        {
          "duration": 0.484375,
          "durationTicks": 372,
          "midi": 31,
          "name": "G1",
          "ticks": 15860,
          "time": 20.651041666666668,
          "velocity": 0.984251968503937
        },
        {
          "duration": 0.1223958333333357,
          "durationTicks": 94,
          "midi": 33,
          "name": "A1",
          "ticks": 16258,
          "time": 21.169270833333332,
          "velocity": 0.968503937007874
        },
        {
          "duration": 0.08333333333333215,
          "durationTicks": 64,
          "midi": 33,
          "name": "A1",
          "ticks": 16650,
          "time": 21.6796875,
          "velocity": 0.9133858267716536
        },
        {
          "duration": 0.0546875,
          "durationTicks": 42,
          "midi": 33,
          "name": "A1",
          "ticks": 16852,
          "time": 21.942708333333332,
          "velocity": 0.952755905511811
        },
        {
          "duration": 0.078125,
          "durationTicks": 60,
          "midi": 33,
          "name": "A1",
          "ticks": 16948,
          "time": 22.067708333333332,
          "velocity": 0.905511811023622
        },
        {
          "duration": 0.12239583333333215,
          "durationTicks": 94,
          "midi": 31,
          "name": "G1",
          "ticks": 17046,
          "time": 22.1953125,
          "velocity": 0.9606299212598425
        },
        {
          "duration": 0.13541666666666785,
          "durationTicks": 104,
          "midi": 33,
          "name": "A1",
          "ticks": 17146,
          "time": 22.325520833333332,
          "velocity": 0.984251968503937
        },
        {
          "duration": 0.25260416666666785,
          "durationTicks": 194,
          "midi": 35,
          "name": "B1",
          "ticks": 17250,
          "time": 22.4609375,
          "velocity": 0.9606299212598425
        },
        {
          "duration": 0.11979166666666785,
          "durationTicks": 92,
          "midi": 35,
          "name": "B1",
          "ticks": 17446,
          "time": 22.716145833333332,
          "velocity": 0.9448818897637795
        },
        {
          "duration": 0.13020833333333215,
          "durationTicks": 100,
          "midi": 33,
          "name": "A1",
          "ticks": 17840,
          "time": 23.229166666666668,
          "velocity": 0.9212598425196851
        },
        {
          "duration": 0.1588541666666643,
          "durationTicks": 122,
          "midi": 35,
          "name": "B1",
          "ticks": 17936,
          "time": 23.354166666666668,
          "velocity": 0.9763779527559056
        },
        {
          "duration": 0.25390625,
          "durationTicks": 195,
          "midi": 36,
          "name": "C2",
          "ticks": 18042,
          "time": 23.4921875,
          "velocity": 0.937007874015748
        },
        {
          "duration": 0.2526041666666643,
          "durationTicks": 194,
          "midi": 36,
          "name": "C2",
          "ticks": 18236,
          "time": 23.744791666666668,
          "velocity": 0.9291338582677166
        },
        {
          "duration": 0.11458333333333215,
          "durationTicks": 88,
          "midi": 35,
          "name": "B1",
          "ticks": 18630,
          "time": 24.2578125,
          "velocity": 0.9763779527559056
        },
        {
          "duration": 0.15364583333333215,
          "durationTicks": 118,
          "midi": 36,
          "name": "C2",
          "ticks": 18728,
          "time": 24.385416666666668,
          "velocity": 0.937007874015748
        },
        {
          "duration": 0.203125,
          "durationTicks": 156,
          "midi": 35,
          "name": "B1",
          "ticks": 18832,
          "time": 24.520833333333332,
          "velocity": 0.905511811023622
        },
        {
          "duration": 0.43489583333333215,
          "durationTicks": 334,
          "midi": 31,
          "name": "G1",
          "ticks": 19028,
          "time": 24.776041666666668,
          "velocity": 0.9291338582677166
        },
        {
          "duration": 0.18489583333333215,
          "durationTicks": 142,
          "midi": 33,
          "name": "A1",
          "ticks": 19424,
          "time": 25.291666666666668,
          "velocity": 0.968503937007874
        },
        {
          "duration": 0.1015625,
          "durationTicks": 78,
          "midi": 33,
          "name": "A1",
          "ticks": 19820,
          "time": 25.807291666666668,
          "velocity": 0.905511811023622
        },
        {
          "duration": 0.05208333333333215,
          "durationTicks": 40,
          "midi": 33,
          "name": "A1",
          "ticks": 20018,
          "time": 26.065104166666668,
          "velocity": 0.937007874015748
        },
        {
          "duration": 0.078125,
          "durationTicks": 60,
          "midi": 33,
          "name": "A1",
          "ticks": 20114,
          "time": 26.190104166666668,
          "velocity": 0.8976377952755905
        },
        {
          "duration": 0.13020833333333215,
          "durationTicks": 100,
          "midi": 31,
          "name": "G1",
          "ticks": 20216,
          "time": 26.322916666666668,
          "velocity": 0.9291338582677166
        },
        {
          "duration": 0.140625,
          "durationTicks": 108,
          "midi": 33,
          "name": "A1",
          "ticks": 20318,
          "time": 26.455729166666668,
          "velocity": 0.952755905511811
        },
        {
          "duration": 0.2578125,
          "durationTicks": 198,
          "midi": 35,
          "name": "B1",
          "ticks": 20416,
          "time": 26.583333333333332,
          "velocity": 0.8818897637795275
        },
        {
          "duration": 0.11458333333333215,
          "durationTicks": 88,
          "midi": 35,
          "name": "B1",
          "ticks": 20616,
          "time": 26.84375,
          "velocity": 0.9212598425196851
        },
        {
          "duration": 0.11197916666666785,
          "durationTicks": 86,
          "midi": 33,
          "name": "A1",
          "ticks": 21006,
          "time": 27.3515625,
          "velocity": 0.905511811023622
        },
        {
          "duration": 0.14322916666666785,
          "durationTicks": 110,
          "midi": 35,
          "name": "B1",
          "ticks": 21106,
          "time": 27.481770833333332,
          "velocity": 0.968503937007874
        },
        {
          "duration": 0.25911458333333215,
          "durationTicks": 199,
          "midi": 36,
          "name": "C2",
          "ticks": 21206,
          "time": 27.611979166666668,
          "velocity": 0.9212598425196851
        },
        {
          "duration": 0.2578125,
          "durationTicks": 198,
          "midi": 36,
          "name": "C2",
          "ticks": 21404,
          "time": 27.869791666666668,
          "velocity": 0.8976377952755905
        },
        {
          "duration": 0.09635416666666785,
          "durationTicks": 74,
          "midi": 35,
          "name": "B1",
          "ticks": 21802,
          "time": 28.388020833333332,
          "velocity": 0.937007874015748
        },
        {
          "duration": 0.11979166666666785,
          "durationTicks": 92,
          "midi": 36,
          "name": "C2",
          "ticks": 21894,
          "time": 28.5078125,
          "velocity": 0.9291338582677166
        },
        {
          "duration": 0.23958333333333215,
          "durationTicks": 184,
          "midi": 35,
          "name": "B1",
          "ticks": 21998,
          "time": 28.643229166666668,
          "velocity": 0.952755905511811
        },
        {
          "duration": 0.48177083333333215,
          "durationTicks": 370,
          "midi": 31,
          "name": "G1",
          "ticks": 22196,
          "time": 28.901041666666668,
          "velocity": 0.984251968503937
        },
        {
          "duration": 0.13020833333333215,
          "durationTicks": 100,
          "midi": 33,
          "name": "A1",
          "ticks": 22586,
          "time": 29.408854166666668,
          "velocity": 0.968503937007874
        },
        {
          "duration": 0.0859375,
          "durationTicks": 66,
          "midi": 33,
          "name": "A1",
          "ticks": 22982,
          "time": 29.924479166666668,
          "velocity": 0.9133858267716536
        },
        {
          "duration": 0.0572916666666643,
          "durationTicks": 44,
          "midi": 33,
          "name": "A1",
          "ticks": 23186,
          "time": 30.190104166666668,
          "velocity": 0.952755905511811
        },
        {
          "duration": 0.0755208333333357,
          "durationTicks": 58,
          "midi": 33,
          "name": "A1",
          "ticks": 23284,
          "time": 30.317708333333332,
          "velocity": 0.905511811023622
        },
        {
          "duration": 0.11979166666666785,
          "durationTicks": 92,
          "midi": 31,
          "name": "G1",
          "ticks": 23380,
          "time": 30.442708333333332,
          "velocity": 0.9606299212598425
        },
        {
          "duration": 0.1328125,
          "durationTicks": 102,
          "midi": 33,
          "name": "A1",
          "ticks": 23480,
          "time": 30.572916666666668,
          "velocity": 0.984251968503937
        },
        {
          "duration": 0.2578125,
          "durationTicks": 198,
          "midi": 35,
          "name": "B1",
          "ticks": 23582,
          "time": 30.705729166666668,
          "velocity": 0.9606299212598425
        },
        {
          "duration": 0.1171875,
          "durationTicks": 90,
          "midi": 35,
          "name": "B1",
          "ticks": 23782,
          "time": 30.966145833333332,
          "velocity": 0.9448818897637795
        },
        {
          "duration": 0.1276041666666643,
          "durationTicks": 98,
          "midi": 33,
          "name": "A1",
          "ticks": 24176,
          "time": 31.479166666666668,
          "velocity": 0.9212598425196851
        },
        {
          "duration": 0.15625,
          "durationTicks": 120,
          "midi": 35,
          "name": "B1",
          "ticks": 24272,
          "time": 31.604166666666668,
          "velocity": 0.9763779527559056
        },
        {
          "duration": 0.25911458333333215,
          "durationTicks": 199,
          "midi": 36,
          "name": "C2",
          "ticks": 24374,
          "time": 31.736979166666668,
          "velocity": 0.937007874015748
        },
        {
          "duration": 0.25781249999999645,
          "durationTicks": 198,
          "midi": 36,
          "name": "C2",
          "ticks": 24572,
          "time": 31.994791666666668,
          "velocity": 0.9291338582677166
        },
        {
          "duration": 0.1145833333333286,
          "durationTicks": 88,
          "midi": 35,
          "name": "B1",
          "ticks": 24964,
          "time": 32.505208333333336,
          "velocity": 0.9763779527559056
        },
        {
          "duration": 0.1510416666666714,
          "durationTicks": 116,
          "midi": 36,
          "name": "C2",
          "ticks": 25064,
          "time": 32.635416666666664,
          "velocity": 0.937007874015748
        },
        {
          "duration": 0.2109375,
          "durationTicks": 162,
          "midi": 35,
          "name": "B1",
          "ticks": 25160,
          "time": 32.760416666666664,
          "velocity": 0.905511811023622
        },
        {
          "duration": 0.4348958333333357,
          "durationTicks": 334,
          "midi": 31,
          "name": "G1",
          "ticks": 25362,
          "time": 33.0234375,
          "velocity": 0.9291338582677166
        },
        {
          "duration": 0.2161458333333357,
          "durationTicks": 166,
          "midi": 33,
          "name": "A1",
          "ticks": 25760,
          "time": 33.541666666666664,
          "velocity": 0.968503937007874
        },
        {
          "duration": 0.1015625,
          "durationTicks": 78,
          "midi": 33,
          "name": "A1",
          "ticks": 26154,
          "time": 34.0546875,
          "velocity": 0.905511811023622
        },
        {
          "duration": 0.0494791666666643,
          "durationTicks": 38,
          "midi": 33,
          "name": "A1",
          "ticks": 26352,
          "time": 34.3125,
          "velocity": 0.937007874015748
        },
        {
          "duration": 0.0755208333333357,
          "durationTicks": 58,
          "midi": 33,
          "name": "A1",
          "ticks": 26450,
          "time": 34.440104166666664,
          "velocity": 0.8976377952755905
        },
        {
          "duration": 0.1328125,
          "durationTicks": 102,
          "midi": 31,
          "name": "G1",
          "ticks": 26548,
          "time": 34.567708333333336,
          "velocity": 0.9291338582677166
        },
        {
          "duration": 0.1432291666666643,
          "durationTicks": 110,
          "midi": 33,
          "name": "A1",
          "ticks": 26650,
          "time": 34.700520833333336,
          "velocity": 0.952755905511811
        },
        {
          "duration": 0.2591145833333357,
          "durationTicks": 199,
          "midi": 35,
          "name": "B1",
          "ticks": 26748,
          "time": 34.828125,
          "velocity": 0.8818897637795275
        },
        {
          "duration": 0.2578125,
          "durationTicks": 198,
          "midi": 35,
          "name": "B1",
          "ticks": 26946,
          "time": 35.0859375,
          "velocity": 0.9212598425196851
        },
        {
          "duration": 0.1145833333333357,
          "durationTicks": 88,
          "midi": 33,
          "name": "A1",
          "ticks": 27338,
          "time": 35.596354166666664,
          "velocity": 0.905511811023622
        },
        {
          "duration": 0.1484375,
          "durationTicks": 114,
          "midi": 35,
          "name": "B1",
          "ticks": 27436,
          "time": 35.723958333333336,
          "velocity": 0.968503937007874
        },
        {
          "duration": 0.2669270833333357,
          "durationTicks": 205,
          "midi": 36,
          "name": "C2",
          "ticks": 27536,
          "time": 35.854166666666664,
          "velocity": 0.9212598425196851
        },
        {
          "duration": 0.265625,
          "durationTicks": 204,
          "midi": 36,
          "name": "C2",
          "ticks": 27740,
          "time": 36.119791666666664,
          "velocity": 0.8976377952755905
        },
        {
          "duration": 0.1041666666666714,
          "durationTicks": 80,
          "midi": 35,
          "name": "B1",
          "ticks": 28130,
          "time": 36.627604166666664,
          "velocity": 0.937007874015748
        },
        {
          "duration": 0.1223958333333357,
          "durationTicks": 94,
          "midi": 36,
          "name": "C2",
          "ticks": 28226,
          "time": 36.752604166666664,
          "velocity": 0.9291338582677166
        },
        {
          "duration": 0.2421875,
          "durationTicks": 186,
          "midi": 35,
          "name": "B1",
          "ticks": 28328,
          "time": 36.885416666666664,
          "velocity": 0.952755905511811
        },
        {
          "duration": 0.4817708333333357,
          "durationTicks": 370,
          "midi": 31,
          "name": "G1",
          "ticks": 28530,
          "time": 37.1484375,
          "velocity": 0.984251968503937
        },
        {
          "duration": 0.25,
          "durationTicks": 192,
          "midi": 29,
          "name": "F1",
          "ticks": 28926,
          "time": 37.6640625,
          "velocity": 0.8188976377952756
        },
        {
          "duration": 0.2591145833333286,
          "durationTicks": 199,
          "midi": 29,
          "name": "F1",
          "ticks": 29320,
          "time": 38.177083333333336,
          "velocity": 0.8661417322834646
        },
        {
          "duration": 0.2578125,
          "durationTicks": 198,
          "midi": 29,
          "name": "F1",
          "ticks": 29518,
          "time": 38.434895833333336,
          "velocity": 0.8976377952755905
        },
        {
          "duration": 0.2786458333333357,
          "durationTicks": 214,
          "midi": 29,
          "name": "F1",
          "ticks": 29916,
          "time": 38.953125,
          "velocity": 0.7874015748031497
        },
        {
          "duration": 0.2838541666666643,
          "durationTicks": 218,
          "midi": 41,
          "name": "F2",
          "ticks": 30114,
          "time": 39.2109375,
          "velocity": 0.952755905511811
        },
        {
          "duration": 0.2578125,
          "durationTicks": 198,
          "midi": 29,
          "name": "F1",
          "ticks": 30312,
          "time": 39.46875,
          "velocity": 0.8346456692913385
        },
        {
          "duration": 0.2578125,
          "durationTicks": 198,
          "midi": 29,
          "name": "F1",
          "ticks": 30512,
          "time": 39.729166666666664,
          "velocity": 0.8976377952755905
        },
        {
          "duration": 0.3385416666666643,
          "durationTicks": 260,
          "midi": 29,
          "name": "F1",
          "ticks": 30712,
          "time": 39.989583333333336,
          "velocity": 0.8976377952755905
        },
        {
          "duration": 0.328125,
          "durationTicks": 252,
          "midi": 29,
          "name": "F1",
          "ticks": 31100,
          "time": 40.494791666666664,
          "velocity": 0.8976377952755905
        },
        {
          "duration": 0.5052083333333357,
          "durationTicks": 388,
          "midi": 31,
          "name": "G1",
          "ticks": 31502,
          "time": 41.018229166666664,
          "velocity": 0.905511811023622
        },
        {
          "duration": 0.3255208333333357,
          "durationTicks": 250,
          "midi": 31,
          "name": "G1",
          "ticks": 31896,
          "time": 41.53125,
          "velocity": 0.8346456692913385
        },
        {
          "duration": 0.2395833333333357,
          "durationTicks": 184,
          "midi": 29,
          "name": "F1",
          "ticks": 32090,
          "time": 41.783854166666664,
          "velocity": 0.8976377952755905
        },
        {
          "duration": 0.2734375,
          "durationTicks": 210,
          "midi": 41,
          "name": "F2",
          "ticks": 32492,
          "time": 42.307291666666664,
          "velocity": 0.9291338582677166
        },
        {
          "duration": 0.3177083333333357,
          "durationTicks": 244,
          "midi": 29,
          "name": "F1",
          "ticks": 32684,
          "time": 42.557291666666664,
          "velocity": 0.8188976377952756
        },
        {
          "duration": 0.2994791666666643,
          "durationTicks": 230,
          "midi": 29,
          "name": "F1",
          "ticks": 33082,
          "time": 43.075520833333336,
          "velocity": 0.8976377952755905
        },
        {
          "duration": 0.265625,
          "durationTicks": 204,
          "midi": 41,
          "name": "F2",
          "ticks": 33282,
          "time": 43.3359375,
          "velocity": 0.937007874015748
        },
        {
          "duration": 0.2565104166666643,
          "durationTicks": 197,
          "midi": 29,
          "name": "F1",
          "ticks": 33478,
          "time": 43.591145833333336,
          "velocity": 0.8661417322834646
        },
        {
          "duration": 0.2552083333333357,
          "durationTicks": 196,
          "midi": 29,
          "name": "F1",
          "ticks": 33674,
          "time": 43.846354166666664,
          "velocity": 0.8976377952755905
        },
        {
          "duration": 0.5091145833333286,
          "durationTicks": 391,
          "midi": 29,
          "name": "F1",
          "ticks": 33880,
          "time": 44.114583333333336,
          "velocity": 0.9212598425196851
        },
        {
          "duration": 0.5078125,
          "durationTicks": 390,
          "midi": 29,
          "name": "F1",
          "ticks": 34270,
          "time": 44.622395833333336,
          "velocity": 0.9448818897637795
        },
        {
          "duration": 0.5143229166666714,
          "durationTicks": 395,
          "midi": 31,
          "name": "G1",
          "ticks": 34670,
          "time": 45.143229166666664,
          "velocity": 0.8661417322834646
        },
        {
          "duration": 0.5130208333333357,
          "durationTicks": 394,
          "midi": 31,
          "name": "G1",
          "ticks": 35064,
          "time": 45.65625,
          "velocity": 0.905511811023622
        },
        {
          "duration": 0.2630208333333357,
          "durationTicks": 202,
          "midi": 29,
          "name": "F1",
          "ticks": 35256,
          "time": 45.90625,
          "velocity": 0.8503937007874016
        },
        {
          "duration": 0.2994791666666714,
          "durationTicks": 230,
          "midi": 41,
          "name": "F2",
          "ticks": 35654,
          "time": 46.424479166666664,
          "velocity": 0.9606299212598425
        },
        {
          "duration": 0.3645833333333286,
          "durationTicks": 280,
          "midi": 29,
          "name": "F1",
          "ticks": 35854,
          "time": 46.684895833333336,
          "velocity": 0.8661417322834646
        },
        {
          "duration": 0.2552083333333357,
          "durationTicks": 196,
          "midi": 29,
          "name": "F1",
          "ticks": 36252,
          "time": 47.203125,
          "velocity": 0.8818897637795275
        },
        {
          "duration": 0.2526041666666643,
          "durationTicks": 194,
          "midi": 29,
          "name": "F1",
          "ticks": 36450,
          "time": 47.4609375,
          "velocity": 0.8188976377952756
        },
        {
          "duration": 0.3489583333333357,
          "durationTicks": 268,
          "midi": 29,
          "name": "F1",
          "ticks": 36648,
          "time": 47.71875,
          "velocity": 0.8976377952755905
        },
        {
          "duration": 0.3098958333333357,
          "durationTicks": 238,
          "midi": 29,
          "name": "F1",
          "ticks": 37046,
          "time": 48.236979166666664,
          "velocity": 0.9212598425196851
        },
        {
          "duration": 0.3333333333333286,
          "durationTicks": 256,
          "midi": 29,
          "name": "F1",
          "ticks": 37438,
          "time": 48.747395833333336,
          "velocity": 0.9291338582677166
        },
        {
          "duration": 0.5169270833333286,
          "durationTicks": 397,
          "midi": 31,
          "name": "G1",
          "ticks": 37840,
          "time": 49.270833333333336,
          "velocity": 0.8976377952755905
        },
        {
          "duration": 0.515625,
          "durationTicks": 396,
          "midi": 31,
          "name": "G1",
          "ticks": 38236,
          "time": 49.786458333333336,
          "velocity": 0.8818897637795275
        },
        {
          "duration": 0.265625,
          "durationTicks": 204,
          "midi": 29,
          "name": "F1",
          "ticks": 38426,
          "time": 50.033854166666664,
          "velocity": 0.8188976377952756
        },
        {
          "duration": 0.3072916666666714,
          "durationTicks": 236,
          "midi": 41,
          "name": "F2",
          "ticks": 38828,
          "time": 50.557291666666664,
          "velocity": 0.9448818897637795
        },
        {
          "duration": 0.2552083333333357,
          "durationTicks": 196,
          "midi": 29,
          "name": "F1",
          "ticks": 39024,
          "time": 50.8125,
          "velocity": 0.8661417322834646
        },
        {
          "duration": 0.2591145833333357,
          "durationTicks": 199,
          "midi": 29,
          "name": "F1",
          "ticks": 39420,
          "time": 51.328125,
          "velocity": 0.905511811023622
        },
        {
          "duration": 0.2578125,
          "durationTicks": 198,
          "midi": 29,
          "name": "F1",
          "ticks": 39618,
          "time": 51.5859375,
          "velocity": 0.8188976377952756
        },
        {
          "duration": 0.2526041666666714,
          "durationTicks": 194,
          "midi": 29,
          "name": "F1",
          "ticks": 39818,
          "time": 51.846354166666664,
          "velocity": 0.8818897637795275
        },
        {
          "duration": 0.5247395833333286,
          "durationTicks": 403,
          "midi": 28,
          "name": "E1",
          "ticks": 40210,
          "time": 52.356770833333336,
          "velocity": 0.968503937007874
        },
        {
          "duration": 0.5234375,
          "durationTicks": 402,
          "midi": 28,
          "name": "E1",
          "ticks": 40612,
          "time": 52.880208333333336,
          "velocity": 0.937007874015748
        },
        {
          "duration": 0.203125,
          "durationTicks": 156,
          "midi": 28,
          "name": "E1",
          "ticks": 41006,
          "time": 53.393229166666664,
          "velocity": 0.937007874015748
        },
        {
          "duration": 0.2447916666666714,
          "durationTicks": 188,
          "midi": 28,
          "name": "E1",
          "ticks": 41204,
          "time": 53.651041666666664,
          "velocity": 0.9291338582677166
        },
        {
          "duration": 0.296875,
          "durationTicks": 228,
          "midi": 31,
          "name": "G1",
          "ticks": 41402,
          "time": 53.908854166666664,
          "velocity": 0.984251968503937
        },
        {
          "duration": 0.2447916666666714,
          "durationTicks": 188,
          "midi": 33,
          "name": "A1",
          "ticks": 41600,
          "time": 54.166666666666664,
          "velocity": 0.9133858267716536
        },
        {
          "duration": 0.09375,
          "durationTicks": 72,
          "midi": 33,
          "name": "A1",
          "ticks": 41994,
          "time": 54.6796875,
          "velocity": 0.9448818897637795
        },
        {
          "duration": 0.0546875,
          "durationTicks": 42,
          "midi": 33,
          "name": "A1",
          "ticks": 42200,
          "time": 54.947916666666664,
          "velocity": 0.937007874015748
        },
        {
          "duration": 0.0911458333333357,
          "durationTicks": 70,
          "midi": 33,
          "name": "A1",
          "ticks": 42294,
          "time": 55.0703125,
          "velocity": 0.8188976377952756
        },
        {
          "duration": 0.140625,
          "durationTicks": 108,
          "midi": 31,
          "name": "G1",
          "ticks": 42396,
          "time": 55.203125,
          "velocity": 0.9606299212598425
        },
        {
          "duration": 0.1354166666666643,
          "durationTicks": 104,
          "midi": 33,
          "name": "A1",
          "ticks": 42490,
          "time": 55.325520833333336,
          "velocity": 0.9606299212598425
        },
        {
          "duration": 0.2291666666666643,
          "durationTicks": 176,
          "midi": 35,
          "name": "B1",
          "ticks": 42594,
          "time": 55.4609375,
          "velocity": 0.8976377952755905
        },
        {
          "duration": 0.1223958333333357,
          "durationTicks": 94,
          "midi": 35,
          "name": "B1",
          "ticks": 42792,
          "time": 55.71875,
          "velocity": 0.9448818897637795
        },
        {
          "duration": 0.1458333333333286,
          "durationTicks": 112,
          "midi": 33,
          "name": "A1",
          "ticks": 43186,
          "time": 56.231770833333336,
          "velocity": 0.9291338582677166
        },
        {
          "duration": 0.1536458333333286,
          "durationTicks": 118,
          "midi": 35,
          "name": "B1",
          "ticks": 43288,
          "time": 56.364583333333336,
          "velocity": 0.952755905511811
        },
        {
          "duration": 0.26171875,
          "durationTicks": 201,
          "midi": 36,
          "name": "C2",
          "ticks": 43390,
          "time": 56.497395833333336,
          "velocity": 0.9212598425196851
        },
        {
          "duration": 0.2604166666666643,
          "durationTicks": 200,
          "midi": 36,
          "name": "C2",
          "ticks": 43590,
          "time": 56.7578125,
          "velocity": 0.9291338582677166
        },
        {
          "duration": 0.1432291666666643,
          "durationTicks": 110,
          "midi": 35,
          "name": "B1",
          "ticks": 43974,
          "time": 57.2578125,
          "velocity": 0.952755905511811
        },
        {
          "duration": 0.1432291666666643,
          "durationTicks": 110,
          "midi": 36,
          "name": "C2",
          "ticks": 44082,
          "time": 57.3984375,
          "velocity": 0.9606299212598425
        },
        {
          "duration": 0.0963541666666714,
          "durationTicks": 74,
          "midi": 35,
          "name": "B1",
          "ticks": 44186,
          "time": 57.533854166666664,
          "velocity": 0.984251968503937
        },
        {
          "duration": 0.0885416666666643,
          "durationTicks": 68,
          "midi": 35,
          "name": "B1",
          "ticks": 44278,
          "time": 57.653645833333336,
          "velocity": 0.937007874015748
        },
        {
          "duration": 0.3932291666666643,
          "durationTicks": 302,
          "midi": 31,
          "name": "G1",
          "ticks": 44376,
          "time": 57.78125,
          "velocity": 0.9921259842519685
        },
        {
          "duration": 0.1145833333333357,
          "durationTicks": 88,
          "midi": 33,
          "name": "A1",
          "ticks": 44768,
          "time": 58.291666666666664,
          "velocity": 0.952755905511811
        },
        {
          "duration": 0.0833333333333286,
          "durationTicks": 64,
          "midi": 33,
          "name": "A1",
          "ticks": 45172,
          "time": 58.817708333333336,
          "velocity": 0.9448818897637795
        },
        {
          "duration": 0.057291666666671404,
          "durationTicks": 44,
          "midi": 33,
          "name": "A1",
          "ticks": 45368,
          "time": 59.072916666666664,
          "velocity": 0.9448818897637795
        },
        {
          "duration": 0.0989583333333286,
          "durationTicks": 76,
          "midi": 33,
          "name": "A1",
          "ticks": 45466,
          "time": 59.200520833333336,
          "velocity": 0.8976377952755905
        },
        {
          "duration": 0.1458333333333357,
          "durationTicks": 112,
          "midi": 31,
          "name": "G1",
          "ticks": 45566,
          "time": 59.330729166666664,
          "velocity": 0.9606299212598425
        },
        {
          "duration": 0.140625,
          "durationTicks": 108,
          "midi": 33,
          "name": "A1",
          "ticks": 45672,
          "time": 59.46875,
          "velocity": 0.9606299212598425
        },
        {
          "duration": 0.25390625,
          "durationTicks": 195,
          "midi": 35,
          "name": "B1",
          "ticks": 45776,
          "time": 59.604166666666664,
          "velocity": 0.9448818897637795
        },
        {
          "duration": 0.2526041666666643,
          "durationTicks": 194,
          "midi": 35,
          "name": "B1",
          "ticks": 45970,
          "time": 59.856770833333336,
          "velocity": 0.9448818897637795
        },
        {
          "duration": 0.1432291666666643,
          "durationTicks": 110,
          "midi": 33,
          "name": "A1",
          "ticks": 46356,
          "time": 60.359375,
          "velocity": 0.9291338582677166
        },
        {
          "duration": 0.1510416666666714,
          "durationTicks": 116,
          "midi": 35,
          "name": "B1",
          "ticks": 46460,
          "time": 60.494791666666664,
          "velocity": 0.968503937007874
        },
        {
          "duration": 0.2161458333333357,
          "durationTicks": 166,
          "midi": 36,
          "name": "C2",
          "ticks": 46560,
          "time": 60.625,
          "velocity": 0.9291338582677166
        },
        {
          "duration": 0.1197916666666643,
          "durationTicks": 92,
          "midi": 36,
          "name": "C2",
          "ticks": 46756,
          "time": 60.880208333333336,
          "velocity": 0.905511811023622
        },
        {
          "duration": 0.1067708333333357,
          "durationTicks": 82,
          "midi": 35,
          "name": "B1",
          "ticks": 47144,
          "time": 61.385416666666664,
          "velocity": 0.9448818897637795
        },
        {
          "duration": 0.1588541666666643,
          "durationTicks": 122,
          "midi": 36,
          "name": "C2",
          "ticks": 47242,
          "time": 61.513020833333336,
          "velocity": 0.937007874015748
        },
        {
          "duration": 0.1197916666666714,
          "durationTicks": 92,
          "midi": 35,
          "name": "B1",
          "ticks": 47354,
          "time": 61.658854166666664,
          "velocity": 0.9606299212598425
        },
        {
          "duration": 0.0807291666666643,
          "durationTicks": 62,
          "midi": 35,
          "name": "B1",
          "ticks": 47448,
          "time": 61.78125,
          "velocity": 0.9448818897637795
        },
        {
          "duration": 0.4348958333333286,
          "durationTicks": 334,
          "midi": 31,
          "name": "G1",
          "ticks": 47548,
          "time": 61.911458333333336,
          "velocity": 0.984251968503937
        },
        {
          "duration": 0.0989583333333357,
          "durationTicks": 76,
          "midi": 33,
          "name": "A1",
          "ticks": 47946,
          "time": 62.4296875,
          "velocity": 0.968503937007874
        },
        {
          "duration": 0.0885416666666643,
          "durationTicks": 68,
          "midi": 33,
          "name": "A1",
          "ticks": 48340,
          "time": 62.942708333333336,
          "velocity": 0.9448818897637795
        },
        {
          "duration": 0.0546875,
          "durationTicks": 42,
          "midi": 33,
          "name": "A1",
          "ticks": 48542,
          "time": 63.205729166666664,
          "velocity": 0.937007874015748
        },
        {
          "duration": 0.0885416666666643,
          "durationTicks": 68,
          "midi": 33,
          "name": "A1",
          "ticks": 48636,
          "time": 63.328125,
          "velocity": 0.8188976377952756
        },
        {
          "duration": 0.1380208333333357,
          "durationTicks": 106,
          "midi": 31,
          "name": "G1",
          "ticks": 48740,
          "time": 63.463541666666664,
          "velocity": 0.9606299212598425
        },
        {
          "duration": 0.1302083333333357,
          "durationTicks": 100,
          "midi": 33,
          "name": "A1",
          "ticks": 48836,
          "time": 63.588541666666664,
          "velocity": 0.9606299212598425
        },
        {
          "duration": 0.2291666666666643,
          "durationTicks": 176,
          "midi": 35,
          "name": "B1",
          "ticks": 48936,
          "time": 63.71875,
          "velocity": 0.8976377952755905
        },
        {
          "duration": 0.1223958333333286,
          "durationTicks": 94,
          "midi": 35,
          "name": "B1",
          "ticks": 49134,
          "time": 63.9765625,
          "velocity": 0.9448818897637795
        },
        {
          "duration": 0.1458333333333428,
          "durationTicks": 112,
          "midi": 33,
          "name": "A1",
          "ticks": 49528,
          "time": 64.48958333333333,
          "velocity": 0.9291338582677166
        },
        {
          "duration": 0.1510416666666714,
          "durationTicks": 116,
          "midi": 35,
          "name": "B1",
          "ticks": 49630,
          "time": 64.62239583333333,
          "velocity": 0.952755905511811
        },
        {
          "duration": 0.25390625,
          "durationTicks": 195,
          "midi": 36,
          "name": "C2",
          "ticks": 49732,
          "time": 64.75520833333333,
          "velocity": 0.9212598425196851
        },
        {
          "duration": 0.2526041666666714,
          "durationTicks": 194,
          "midi": 36,
          "name": "C2",
          "ticks": 49926,
          "time": 65.0078125,
          "velocity": 0.9291338582677166
        },
        {
          "duration": 0.140625,
          "durationTicks": 108,
          "midi": 35,
          "name": "B1",
          "ticks": 50312,
          "time": 65.51041666666667,
          "velocity": 0.952755905511811
        },
        {
          "duration": 0.1458333333333286,
          "durationTicks": 112,
          "midi": 36,
          "name": "C2",
          "ticks": 50420,
          "time": 65.65104166666667,
          "velocity": 0.9606299212598425
        },
        {
          "duration": 0.09375,
          "durationTicks": 72,
          "midi": 35,
          "name": "B1",
          "ticks": 50526,
          "time": 65.7890625,
          "velocity": 0.984251968503937
        },
        {
          "duration": 0.0885416666666714,
          "durationTicks": 68,
          "midi": 35,
          "name": "B1",
          "ticks": 50616,
          "time": 65.90625,
          "velocity": 0.937007874015748
        },
        {
          "duration": 0.3932291666666714,
          "durationTicks": 302,
          "midi": 31,
          "name": "G1",
          "ticks": 50716,
          "time": 66.03645833333333,
          "velocity": 0.9921259842519685
        },
        {
          "duration": 0.11458333333334281,
          "durationTicks": 88,
          "midi": 33,
          "name": "A1",
          "ticks": 51106,
          "time": 66.54427083333333,
          "velocity": 0.952755905511811
        },
        {
          "duration": 0.0885416666666714,
          "durationTicks": 68,
          "midi": 33,
          "name": "A1",
          "ticks": 51508,
          "time": 67.06770833333333,
          "velocity": 0.9448818897637795
        },
        {
          "duration": 0.05729166666665719,
          "durationTicks": 44,
          "midi": 33,
          "name": "A1",
          "ticks": 51710,
          "time": 67.33072916666667,
          "velocity": 0.9448818897637795
        },
        {
          "duration": 0.0989583333333286,
          "durationTicks": 76,
          "midi": 33,
          "name": "A1",
          "ticks": 51806,
          "time": 67.45572916666667,
          "velocity": 0.8976377952755905
        },
        {
          "duration": 0.1432291666666714,
          "durationTicks": 110,
          "midi": 31,
          "name": "G1",
          "ticks": 51906,
          "time": 67.5859375,
          "velocity": 0.9606299212598425
        },
        {
          "duration": 0.1510416666666572,
          "durationTicks": 116,
          "midi": 33,
          "name": "A1",
          "ticks": 52004,
          "time": 67.71354166666667,
          "velocity": 0.9606299212598425
        },
        {
          "duration": 0.25,
          "durationTicks": 192,
          "midi": 35,
          "name": "B1",
          "ticks": 52112,
          "time": 67.85416666666667,
          "velocity": 0.9448818897637795
        },
        {
          "duration": 0.10677083333334281,
          "durationTicks": 82,
          "midi": 35,
          "name": "B1",
          "ticks": 52306,
          "time": 68.10677083333333,
          "velocity": 0.9448818897637795
        },
        {
          "duration": 0.140625,
          "durationTicks": 108,
          "midi": 33,
          "name": "A1",
          "ticks": 52700,
          "time": 68.61979166666667,
          "velocity": 0.9291338582677166
        },
        {
          "duration": 0.15625,
          "durationTicks": 120,
          "midi": 35,
          "name": "B1",
          "ticks": 52800,
          "time": 68.75,
          "velocity": 0.968503937007874
        },
        {
          "duration": 0.21875,
          "durationTicks": 168,
          "midi": 36,
          "name": "C2",
          "ticks": 52902,
          "time": 68.8828125,
          "velocity": 0.9291338582677166
        },
        {
          "duration": 0.1197916666666714,
          "durationTicks": 92,
          "midi": 36,
          "name": "C2",
          "ticks": 53100,
          "time": 69.140625,
          "velocity": 0.905511811023622
        },
        {
          "duration": 0.109375,
          "durationTicks": 84,
          "midi": 35,
          "name": "B1",
          "ticks": 53486,
          "time": 69.64322916666667,
          "velocity": 0.9448818897637795
        },
        {
          "duration": 0.15625,
          "durationTicks": 120,
          "midi": 36,
          "name": "C2",
          "ticks": 53588,
          "time": 69.77604166666667,
          "velocity": 0.937007874015748
        },
        {
          "duration": 0.11848958333334281,
          "durationTicks": 91,
          "midi": 35,
          "name": "B1",
          "ticks": 53698,
          "time": 69.91927083333333,
          "velocity": 0.9606299212598425
        },
        {
          "duration": 0.1171875,
          "durationTicks": 90,
          "midi": 35,
          "name": "B1",
          "ticks": 53788,
          "time": 70.03645833333333,
          "velocity": 0.9448818897637795
        },
        {
          "duration": 0.4322916666666572,
          "durationTicks": 332,
          "midi": 31,
          "name": "G1",
          "ticks": 53894,
          "time": 70.17447916666667,
          "velocity": 0.984251968503937
        },
        {
          "duration": 0.1510416666666714,
          "durationTicks": 116,
          "midi": 29,
          "name": "F1",
          "ticks": 54298,
          "time": 70.70052083333333,
          "velocity": 0.9606299212598425
        },
        {
          "duration": 0.2395833333333286,
          "durationTicks": 184,
          "midi": 29,
          "name": "F1",
          "ticks": 54680,
          "time": 71.19791666666667,
          "velocity": 0.8346456692913385
        },
        {
          "duration": 0.25,
          "durationTicks": 192,
          "midi": 29,
          "name": "F1",
          "ticks": 54884,
          "time": 71.46354166666667,
          "velocity": 0.905511811023622
        },
        {
          "duration": 0.2916666666666714,
          "durationTicks": 224,
          "midi": 29,
          "name": "F1",
          "ticks": 55276,
          "time": 71.97395833333333,
          "velocity": 0.8503937007874016
        },
        {
          "duration": 0.328125,
          "durationTicks": 252,
          "midi": 41,
          "name": "F2",
          "ticks": 55470,
          "time": 72.2265625,
          "velocity": 0.8346456692913385
        },
        {
          "duration": 0.2994791666666714,
          "durationTicks": 230,
          "midi": 29,
          "name": "F1",
          "ticks": 55674,
          "time": 72.4921875,
          "velocity": 0.8031496062992126
        },
        {
          "duration": 0.3098958333333428,
          "durationTicks": 238,
          "midi": 41,
          "name": "F2",
          "ticks": 55870,
          "time": 72.74739583333333,
          "velocity": 0.8661417322834646
        },
        {
          "duration": 0.296875,
          "durationTicks": 228,
          "midi": 29,
          "name": "F1",
          "ticks": 56064,
          "time": 73,
          "velocity": 0.8976377952755905
        },
        {
          "duration": 0.3463541666666572,
          "durationTicks": 266,
          "midi": 29,
          "name": "F1",
          "ticks": 56462,
          "time": 73.51822916666667,
          "velocity": 0.8346456692913385
        },
        {
          "duration": 0.5130208333333286,
          "durationTicks": 394,
          "midi": 31,
          "name": "G1",
          "ticks": 56862,
          "time": 74.0390625,
          "velocity": 0.937007874015748
        },
        {
          "duration": 0.3046875,
          "durationTicks": 234,
          "midi": 31,
          "name": "G1",
          "ticks": 57258,
          "time": 74.5546875,
          "velocity": 0.905511811023622
        },
        {
          "duration": 0.2239583333333286,
          "durationTicks": 172,
          "midi": 29,
          "name": "F1",
          "ticks": 57456,
          "time": 74.8125,
          "velocity": 0.9291338582677166
        },
        {
          "duration": 0.26171875,
          "durationTicks": 201,
          "midi": 29,
          "name": "F1",
          "ticks": 57850,
          "time": 75.32552083333333,
          "velocity": 0.8031496062992126
        },
        {
          "duration": 0.2604166666666714,
          "durationTicks": 200,
          "midi": 29,
          "name": "F1",
          "ticks": 58050,
          "time": 75.5859375,
          "velocity": 0.9212598425196851
        },
        {
          "duration": 0.3098958333333428,
          "durationTicks": 238,
          "midi": 29,
          "name": "F1",
          "ticks": 58444,
          "time": 76.09895833333333,
          "velocity": 0.7874015748031497
        },
        {
          "duration": 0.3020833333333286,
          "durationTicks": 232,
          "midi": 41,
          "name": "F2",
          "ticks": 58640,
          "time": 76.35416666666667,
          "velocity": 0.7874015748031497
        },
        {
          "duration": 0.3125,
          "durationTicks": 240,
          "midi": 29,
          "name": "F1",
          "ticks": 58840,
          "time": 76.61458333333333,
          "velocity": 0.8188976377952756
        },
        {
          "duration": 0.3020833333333286,
          "durationTicks": 232,
          "midi": 41,
          "name": "F2",
          "ticks": 59036,
          "time": 76.86979166666667,
          "velocity": 0.9212598425196851
        },
        {
          "duration": 0.3645833333333286,
          "durationTicks": 280,
          "midi": 29,
          "name": "F1",
          "ticks": 59234,
          "time": 77.12760416666667,
          "velocity": 0.8661417322834646
        },
        {
          "duration": 0.3385416666666572,
          "durationTicks": 260,
          "midi": 29,
          "name": "F1",
          "ticks": 59636,
          "time": 77.65104166666667,
          "velocity": 0.8976377952755905
        },
        {
          "duration": 0.5091145833333286,
          "durationTicks": 391,
          "midi": 31,
          "name": "G1",
          "ticks": 60030,
          "time": 78.1640625,
          "velocity": 0.8976377952755905
        },
        {
          "duration": 0.5078125,
          "durationTicks": 390,
          "midi": 31,
          "name": "G1",
          "ticks": 60420,
          "time": 78.671875,
          "velocity": 0.8503937007874016
        },
        {
          "duration": 0.2291666666666714,
          "durationTicks": 176,
          "midi": 29,
          "name": "F1",
          "ticks": 60634,
          "time": 78.95052083333333,
          "velocity": 0.9606299212598425
        },
        {
          "duration": 0.2643229166666572,
          "durationTicks": 203,
          "midi": 29,
          "name": "F1",
          "ticks": 61016,
          "time": 79.44791666666667,
          "velocity": 0.8503937007874016
        },
        {
          "duration": 0.2630208333333286,
          "durationTicks": 202,
          "midi": 29,
          "name": "F1",
          "ticks": 61218,
          "time": 79.7109375,
          "velocity": 0.905511811023622
        },
        {
          "duration": 0.3203125,
          "durationTicks": 246,
          "midi": 29,
          "name": "F1",
          "ticks": 61610,
          "time": 80.22135416666667,
          "velocity": 0.8031496062992126
        },
        {
          "duration": 0.2942708333333428,
          "durationTicks": 226,
          "midi": 41,
          "name": "F2",
          "ticks": 61810,
          "time": 80.48177083333333,
          "velocity": 0.9212598425196851
        },
        {
          "duration": 0.3255208333333286,
          "durationTicks": 250,
          "midi": 29,
          "name": "F1",
          "ticks": 62010,
          "time": 80.7421875,
          "velocity": 0.8976377952755905
        },
        {
          "duration": 0.3359375,
          "durationTicks": 258,
          "midi": 29,
          "name": "F1",
          "ticks": 62402,
          "time": 81.25260416666667,
          "velocity": 0.905511811023622
        },
        {
          "duration": 0.3697916666666714,
          "durationTicks": 284,
          "midi": 29,
          "name": "F1",
          "ticks": 62794,
          "time": 81.76302083333333,
          "velocity": 0.8661417322834646
        },
        {
          "duration": 0.4557291666666714,
          "durationTicks": 350,
          "midi": 31,
          "name": "G1",
          "ticks": 63204,
          "time": 82.296875,
          "velocity": 0.937007874015748
        },
        {
          "duration": 0.2526041666666572,
          "durationTicks": 194,
          "midi": 31,
          "name": "G1",
          "ticks": 63590,
          "time": 82.79947916666667,
          "velocity": 0.8818897637795275
        },
        {
          "duration": 0.2604166666666572,
          "durationTicks": 200,
          "midi": 29,
          "name": "F1",
          "ticks": 63800,
          "time": 83.07291666666667,
          "velocity": 0.9606299212598425
        },
        {
          "duration": 0.2942708333333428,
          "durationTicks": 226,
          "midi": 28,
          "name": "E1",
          "ticks": 64000,
          "time": 83.33333333333333,
          "velocity": 0.9291338582677166
        },
        {
          "duration": 0.2395833333333286,
          "durationTicks": 184,
          "midi": 28,
          "name": "E1",
          "ticks": 64778,
          "time": 84.34635416666667,
          "velocity": 0.937007874015748
        },
        {
          "duration": 0.2135416666666714,
          "durationTicks": 164,
          "midi": 28,
          "name": "E1",
          "ticks": 64986,
          "time": 84.6171875,
          "velocity": 0.9133858267716536
        },
        {
          "duration": 0.2604166666666714,
          "durationTicks": 200,
          "midi": 28,
          "name": "E1",
          "ticks": 65980,
          "time": 85.91145833333333,
          "velocity": 0.9763779527559056
        },
        {
          "duration": 0.2109375,
          "durationTicks": 162,
          "midi": 33,
          "name": "A1",
          "ticks": 66964,
          "time": 87.19270833333333,
          "velocity": 0.9921259842519685
        },
        {
          "duration": 0.09375,
          "durationTicks": 72,
          "midi": 33,
          "name": "A1",
          "ticks": 67356,
          "time": 87.703125,
          "velocity": 0.9448818897637795
        },
        {
          "duration": 0.010416666666671404,
          "durationTicks": 8,
          "midi": 33,
          "name": "A1",
          "ticks": 67456,
          "time": 87.83333333333333,
          "velocity": 0.7874015748031497
        },
        {
          "duration": 0.057291666666671404,
          "durationTicks": 44,
          "midi": 33,
          "name": "A1",
          "ticks": 67560,
          "time": 87.96875,
          "velocity": 0.937007874015748
        },
        {
          "duration": 0.09635416666665719,
          "durationTicks": 74,
          "midi": 33,
          "name": "A1",
          "ticks": 67652,
          "time": 88.08854166666667,
          "velocity": 0.8188976377952756
        },
        {
          "duration": 0.1458333333333286,
          "durationTicks": 112,
          "midi": 31,
          "name": "G1",
          "ticks": 67754,
          "time": 88.22135416666667,
          "velocity": 0.9606299212598425
        },
        {
          "duration": 0.1223958333333286,
          "durationTicks": 94,
          "midi": 33,
          "name": "A1",
          "ticks": 67854,
          "time": 88.3515625,
          "velocity": 0.9606299212598425
        },
        {
          "duration": 0.2369791666666714,
          "durationTicks": 182,
          "midi": 35,
          "name": "B1",
          "ticks": 67948,
          "time": 88.47395833333333,
          "velocity": 0.8976377952755905
        },
        {
          "duration": 0.125,
          "durationTicks": 96,
          "midi": 35,
          "name": "B1",
          "ticks": 68150,
          "time": 88.73697916666667,
          "velocity": 0.9448818897637795
        },
        {
          "duration": 0.1484375,
          "durationTicks": 114,
          "midi": 33,
          "name": "A1",
          "ticks": 68544,
          "time": 89.25,
          "velocity": 0.9291338582677166
        },
        {
          "duration": 0.1536458333333286,
          "durationTicks": 118,
          "midi": 35,
          "name": "B1",
          "ticks": 68642,
          "time": 89.37760416666667,
          "velocity": 0.952755905511811
        },
        {
          "duration": 0.2578125,
          "durationTicks": 198,
          "midi": 36,
          "name": "C2",
          "ticks": 68744,
          "time": 89.51041666666667,
          "velocity": 0.9212598425196851
        },
        {
          "duration": 0.1197916666666714,
          "durationTicks": 92,
          "midi": 36,
          "name": "C2",
          "ticks": 68944,
          "time": 89.77083333333333,
          "velocity": 0.9291338582677166
        },
        {
          "duration": 0.1432291666666714,
          "durationTicks": 110,
          "midi": 35,
          "name": "B1",
          "ticks": 69330,
          "time": 90.2734375,
          "velocity": 0.952755905511811
        },
        {
          "duration": 0.1380208333333286,
          "durationTicks": 106,
          "midi": 36,
          "name": "C2",
          "ticks": 69432,
          "time": 90.40625,
          "velocity": 0.9606299212598425
        },
        {
          "duration": 0.10416666666665719,
          "durationTicks": 80,
          "midi": 35,
          "name": "B1",
          "ticks": 69536,
          "time": 90.54166666666667,
          "velocity": 0.984251968503937
        },
        {
          "duration": 0.09375,
          "durationTicks": 72,
          "midi": 35,
          "name": "B1",
          "ticks": 69632,
          "time": 90.66666666666667,
          "velocity": 0.937007874015748
        },
        {
          "duration": 0.3984375,
          "durationTicks": 306,
          "midi": 31,
          "name": "G1",
          "ticks": 69728,
          "time": 90.79166666666667,
          "velocity": 0.9921259842519685
        },
        {
          "duration": 0.1171875,
          "durationTicks": 90,
          "midi": 33,
          "name": "A1",
          "ticks": 70122,
          "time": 91.3046875,
          "velocity": 0.952755905511811
        },
        {
          "duration": 0.08854166666665719,
          "durationTicks": 68,
          "midi": 33,
          "name": "A1",
          "ticks": 70526,
          "time": 91.83072916666667,
          "velocity": 0.9448818897637795
        },
        {
          "duration": 0.0026041666666571928,
          "durationTicks": 2,
          "midi": 33,
          "name": "A1",
          "ticks": 70622,
          "time": 91.95572916666667,
          "velocity": 0.8661417322834646
        },
        {
          "duration": 0.0546875,
          "durationTicks": 42,
          "midi": 33,
          "name": "A1",
          "ticks": 70726,
          "time": 92.09114583333333,
          "velocity": 0.9448818897637795
        },
        {
          "duration": 0.1067708333333286,
          "durationTicks": 82,
          "midi": 33,
          "name": "A1",
          "ticks": 70818,
          "time": 92.2109375,
          "velocity": 0.8976377952755905
        },
        {
          "duration": 0.1458333333333286,
          "durationTicks": 112,
          "midi": 31,
          "name": "G1",
          "ticks": 70920,
          "time": 92.34375,
          "velocity": 0.9606299212598425
        },
        {
          "duration": 0.1458333333333428,
          "durationTicks": 112,
          "midi": 33,
          "name": "A1",
          "ticks": 71020,
          "time": 92.47395833333333,
          "velocity": 0.9606299212598425
        },
        {
          "duration": 0.2578125,
          "durationTicks": 198,
          "midi": 35,
          "name": "B1",
          "ticks": 71122,
          "time": 92.60677083333333,
          "velocity": 0.9448818897637795
        },
        {
          "duration": 0.109375,
          "durationTicks": 84,
          "midi": 35,
          "name": "B1",
          "ticks": 71322,
          "time": 92.8671875,
          "velocity": 0.9448818897637795
        },
        {
          "duration": 0.1484375,
          "durationTicks": 114,
          "midi": 33,
          "name": "A1",
          "ticks": 71708,
          "time": 93.36979166666667,
          "velocity": 0.9291338582677166
        },
        {
          "duration": 0.1588541666666714,
          "durationTicks": 122,
          "midi": 35,
          "name": "B1",
          "ticks": 71808,
          "time": 93.5,
          "velocity": 0.968503937007874
        },
        {
          "duration": 0.2239583333333286,
          "durationTicks": 172,
          "midi": 36,
          "name": "C2",
          "ticks": 71910,
          "time": 93.6328125,
          "velocity": 0.9291338582677166
        },
        {
          "duration": 0.125,
          "durationTicks": 96,
          "midi": 36,
          "name": "C2",
          "ticks": 72112,
          "time": 93.89583333333333,
          "velocity": 0.905511811023622
        },
        {
          "duration": 0.1067708333333286,
          "durationTicks": 82,
          "midi": 35,
          "name": "B1",
          "ticks": 72498,
          "time": 94.3984375,
          "velocity": 0.9448818897637795
        },
        {
          "duration": 0.15625,
          "durationTicks": 120,
          "midi": 36,
          "name": "C2",
          "ticks": 72598,
          "time": 94.52864583333333,
          "velocity": 0.937007874015748
        },
        {
          "duration": 0.1184895833333286,
          "durationTicks": 91,
          "midi": 35,
          "name": "B1",
          "ticks": 72708,
          "time": 94.671875,
          "velocity": 0.9606299212598425
        },
        {
          "duration": 0.1171875,
          "durationTicks": 90,
          "midi": 35,
          "name": "B1",
          "ticks": 72798,
          "time": 94.7890625,
          "velocity": 0.9448818897637795
        },
        {
          "duration": 0.4375,
          "durationTicks": 336,
          "midi": 31,
          "name": "G1",
          "ticks": 72900,
          "time": 94.921875,
          "velocity": 0.984251968503937
        },
        {
          "duration": 0.109375,
          "durationTicks": 84,
          "midi": 33,
          "name": "A1",
          "ticks": 73292,
          "time": 95.43229166666667,
          "velocity": 0.968503937007874
        },
        {
          "duration": 0.09375,
          "durationTicks": 72,
          "midi": 33,
          "name": "A1",
          "ticks": 73690,
          "time": 95.95052083333333,
          "velocity": 0.9448818897637795
        },
        {
          "duration": 0.010416666666671404,
          "durationTicks": 8,
          "midi": 33,
          "name": "A1",
          "ticks": 73788,
          "time": 96.078125,
          "velocity": 0.7874015748031497
        },
        {
          "duration": 0.05729166666665719,
          "durationTicks": 44,
          "midi": 33,
          "name": "A1",
          "ticks": 73892,
          "time": 96.21354166666667,
          "velocity": 0.937007874015748
        },
        {
          "duration": 0.09375,
          "durationTicks": 72,
          "midi": 33,
          "name": "A1",
          "ticks": 73986,
          "time": 96.3359375,
          "velocity": 0.8188976377952756
        },
        {
          "duration": 0.1458333333333428,
          "durationTicks": 112,
          "midi": 31,
          "name": "G1",
          "ticks": 74086,
          "time": 96.46614583333333,
          "velocity": 0.9606299212598425
        },
        {
          "duration": 0.1276041666666714,
          "durationTicks": 98,
          "midi": 33,
          "name": "A1",
          "ticks": 74184,
          "time": 96.59375,
          "velocity": 0.9606299212598425
        },
        {
          "duration": 0.2317708333333428,
          "durationTicks": 178,
          "midi": 35,
          "name": "B1",
          "ticks": 74284,
          "time": 96.72395833333333,
          "velocity": 0.8976377952755905
        },
        {
          "duration": 0.11979166666665719,
          "durationTicks": 92,
          "midi": 35,
          "name": "B1",
          "ticks": 74486,
          "time": 96.98697916666667,
          "velocity": 0.9448818897637795
        },
        {
          "duration": 0.1510416666666572,
          "durationTicks": 116,
          "midi": 33,
          "name": "A1",
          "ticks": 74876,
          "time": 97.49479166666667,
          "velocity": 0.9291338582677166
        },
        {
          "duration": 0.1536458333333286,
          "durationTicks": 118,
          "midi": 35,
          "name": "B1",
          "ticks": 74976,
          "time": 97.625,
          "velocity": 0.952755905511811
        },
        {
          "duration": 0.2552083333333286,
          "durationTicks": 196,
          "midi": 36,
          "name": "C2",
          "ticks": 75078,
          "time": 97.7578125,
          "velocity": 0.9212598425196851
        },
        {
          "duration": 0.1197916666666714,
          "durationTicks": 92,
          "midi": 36,
          "name": "C2",
          "ticks": 75276,
          "time": 98.015625,
          "velocity": 0.9291338582677166
        },
        {
          "duration": 0.1380208333333428,
          "durationTicks": 106,
          "midi": 35,
          "name": "B1",
          "ticks": 75664,
          "time": 98.52083333333333,
          "velocity": 0.952755905511811
        },
        {
          "duration": 0.1380208333333286,
          "durationTicks": 106,
          "midi": 36,
          "name": "C2",
          "ticks": 75768,
          "time": 98.65625,
          "velocity": 0.9606299212598425
        },
        {
          "duration": 0.0989583333333286,
          "durationTicks": 76,
          "midi": 35,
          "name": "B1",
          "ticks": 75872,
          "time": 98.79166666666667,
          "velocity": 0.984251968503937
        },
        {
          "duration": 0.09114583333334281,
          "durationTicks": 70,
          "midi": 35,
          "name": "B1",
          "ticks": 75964,
          "time": 98.91145833333333,
          "velocity": 0.937007874015748
        },
        {
          "duration": 0.4010416666666714,
          "durationTicks": 308,
          "midi": 31,
          "name": "G1",
          "ticks": 76060,
          "time": 99.03645833333333,
          "velocity": 0.9921259842519685
        },
        {
          "duration": 0.11458333333334281,
          "durationTicks": 88,
          "midi": 33,
          "name": "A1",
          "ticks": 76456,
          "time": 99.55208333333333,
          "velocity": 0.952755905511811
        },
        {
          "duration": 0.0911458333333286,
          "durationTicks": 70,
          "midi": 33,
          "name": "A1",
          "ticks": 76856,
          "time": 100.07291666666667,
          "velocity": 0.9448818897637795
        },
        {
          "duration": 0.005208333333342807,
          "durationTicks": 4,
          "midi": 33,
          "name": "A1",
          "ticks": 76954,
          "time": 100.20052083333333,
          "velocity": 0.8661417322834646
        },
        {
          "duration": 0.052083333333328596,
          "durationTicks": 40,
          "midi": 33,
          "name": "A1",
          "ticks": 77060,
          "time": 100.33854166666667,
          "velocity": 0.9448818897637795
        },
        {
          "duration": 0.0989583333333286,
          "durationTicks": 76,
          "midi": 33,
          "name": "A1",
          "ticks": 77154,
          "time": 100.4609375,
          "velocity": 0.8976377952755905
        },
        {
          "duration": 0.1484375,
          "durationTicks": 114,
          "midi": 31,
          "name": "G1",
          "ticks": 77252,
          "time": 100.58854166666667,
          "velocity": 0.9606299212598425
        },
        {
          "duration": 0.1484375,
          "durationTicks": 114,
          "midi": 33,
          "name": "A1",
          "ticks": 77352,
          "time": 100.71875,
          "velocity": 0.9606299212598425
        },
        {
          "duration": 0.25390625,
          "durationTicks": 195,
          "midi": 35,
          "name": "B1",
          "ticks": 77456,
          "time": 100.85416666666667,
          "velocity": 0.9448818897637795
        },
        {
          "duration": 0.2526041666666714,
          "durationTicks": 194,
          "midi": 35,
          "name": "B1",
          "ticks": 77650,
          "time": 101.10677083333333,
          "velocity": 0.9448818897637795
        },
        {
          "duration": 0.1484375,
          "durationTicks": 114,
          "midi": 33,
          "name": "A1",
          "ticks": 78040,
          "time": 101.61458333333333,
          "velocity": 0.9291338582677166
        },
        {
          "duration": 0.1588541666666714,
          "durationTicks": 122,
          "midi": 35,
          "name": "B1",
          "ticks": 78142,
          "time": 101.74739583333333,
          "velocity": 0.968503937007874
        },
        {
          "duration": 0.2265625,
          "durationTicks": 174,
          "midi": 36,
          "name": "C2",
          "ticks": 78240,
          "time": 101.875,
          "velocity": 0.9291338582677166
        },
        {
          "duration": 0.125,
          "durationTicks": 96,
          "midi": 36,
          "name": "C2",
          "ticks": 78440,
          "time": 102.13541666666667,
          "velocity": 0.905511811023622
        },
        {
          "duration": 0.109375,
          "durationTicks": 84,
          "midi": 35,
          "name": "B1",
          "ticks": 78830,
          "time": 102.64322916666667,
          "velocity": 0.9448818897637795
        },
        {
          "duration": 0.1510416666666714,
          "durationTicks": 116,
          "midi": 36,
          "name": "C2",
          "ticks": 78930,
          "time": 102.7734375,
          "velocity": 0.937007874015748
        },
        {
          "duration": 0.1223958333333286,
          "durationTicks": 94,
          "midi": 35,
          "name": "B1",
          "ticks": 79038,
          "time": 102.9140625,
          "velocity": 0.9606299212598425
        },
        {
          "duration": 0.0833333333333286,
          "durationTicks": 64,
          "midi": 35,
          "name": "B1",
          "ticks": 79134,
          "time": 103.0390625,
          "velocity": 0.9448818897637795
        },
        {
          "duration": 0.4348958333333428,
          "durationTicks": 334,
          "midi": 31,
          "name": "G1",
          "ticks": 79234,
          "time": 103.16927083333333,
          "velocity": 0.984251968503937
        },
        {
          "duration": 0.1588541666666572,
          "durationTicks": 122,
          "midi": 29,
          "name": "F1",
          "ticks": 79634,
          "time": 103.69010416666667,
          "velocity": 0.9606299212598425
        },
        {
          "duration": 0.2421875,
          "durationTicks": 186,
          "midi": 29,
          "name": "F1",
          "ticks": 80020,
          "time": 104.19270833333333,
          "velocity": 0.8346456692913385
        },
        {
          "duration": 0.2473958333333286,
          "durationTicks": 190,
          "midi": 29,
          "name": "F1",
          "ticks": 80226,
          "time": 104.4609375,
          "velocity": 0.905511811023622
        },
        {
          "duration": 0.2942708333333286,
          "durationTicks": 226,
          "midi": 29,
          "name": "F1",
          "ticks": 80616,
          "time": 104.96875,
          "velocity": 0.8503937007874016
        },
        {
          "duration": 0.3307291666666572,
          "durationTicks": 254,
          "midi": 41,
          "name": "F2",
          "ticks": 80810,
          "time": 105.22135416666667,
          "velocity": 0.8346456692913385
        },
        {
          "duration": 0.3020833333333286,
          "durationTicks": 232,
          "midi": 29,
          "name": "F1",
          "ticks": 81014,
          "time": 105.48697916666667,
          "velocity": 0.8031496062992126
        },
        {
          "duration": 0.3072916666666572,
          "durationTicks": 236,
          "midi": 41,
          "name": "F2",
          "ticks": 81212,
          "time": 105.74479166666667,
          "velocity": 0.8661417322834646
        },
        {
          "duration": 0.2890625,
          "durationTicks": 222,
          "midi": 29,
          "name": "F1",
          "ticks": 81410,
          "time": 106.00260416666667,
          "velocity": 0.8976377952755905
        },
        {
          "duration": 0.3463541666666572,
          "durationTicks": 266,
          "midi": 29,
          "name": "F1",
          "ticks": 81806,
          "time": 106.51822916666667,
          "velocity": 0.8346456692913385
        },
        {
          "duration": 0.5078125,
          "durationTicks": 390,
          "midi": 31,
          "name": "G1",
          "ticks": 82202,
          "time": 107.03385416666667,
          "velocity": 0.937007874015748
        },
        {
          "duration": 0.3151041666666714,
          "durationTicks": 242,
          "midi": 31,
          "name": "G1",
          "ticks": 82594,
          "time": 107.54427083333333,
          "velocity": 0.905511811023622
        },
        {
          "duration": 0.2239583333333286,
          "durationTicks": 172,
          "midi": 29,
          "name": "F1",
          "ticks": 82800,
          "time": 107.8125,
          "velocity": 0.9291338582677166
        },
        {
          "duration": 0.2591145833333286,
          "durationTicks": 199,
          "midi": 29,
          "name": "F1",
          "ticks": 83192,
          "time": 108.32291666666667,
          "velocity": 0.8031496062992126
        },
        {
          "duration": 0.2578125,
          "durationTicks": 198,
          "midi": 29,
          "name": "F1",
          "ticks": 83390,
          "time": 108.58072916666667,
          "velocity": 0.9212598425196851
        },
        {
          "duration": 0.2643229166666714,
          "durationTicks": 203,
          "midi": 29,
          "name": "F1",
          "ticks": 83784,
          "time": 109.09375,
          "velocity": 0.7874015748031497
        },
        {
          "duration": 0.2630208333333428,
          "durationTicks": 202,
          "midi": 29,
          "name": "F1",
          "ticks": 83986,
          "time": 109.35677083333333,
          "velocity": 0.7874015748031497
        },
        {
          "duration": 0.25,
          "durationTicks": 192,
          "midi": 29,
          "name": "F1",
          "ticks": 84186,
          "time": 109.6171875,
          "velocity": 0.8110236220472441
        },
        {
          "duration": 0.2630208333333286,
          "durationTicks": 202,
          "midi": 29,
          "name": "F1",
          "ticks": 84380,
          "time": 109.86979166666667,
          "velocity": 0.9212598425196851
        },
        {
          "duration": 0.2552083333333286,
          "durationTicks": 196,
          "midi": 29,
          "name": "F1",
          "ticks": 84584,
          "time": 110.13541666666667,
          "velocity": 0.8661417322834646
        },
        {
          "duration": 0.34375,
          "durationTicks": 264,
          "midi": 29,
          "name": "F1",
          "ticks": 84974,
          "time": 110.64322916666667,
          "velocity": 0.8976377952755905
        },
        {
          "duration": 0.5052083333333428,
          "durationTicks": 388,
          "midi": 31,
          "name": "G1",
          "ticks": 85372,
          "time": 111.16145833333333,
          "velocity": 0.8976377952755905
        },
        {
          "duration": 0.2682291666666714,
          "durationTicks": 206,
          "midi": 31,
          "name": "G1",
          "ticks": 85764,
          "time": 111.671875,
          "velocity": 0.8503937007874016
        },
        {
          "duration": 0.2395833333333428,
          "durationTicks": 184,
          "midi": 29,
          "name": "F1",
          "ticks": 85966,
          "time": 111.93489583333333,
          "velocity": 0.9606299212598425
        },
        {
          "duration": 0.2669270833333428,
          "durationTicks": 205,
          "midi": 29,
          "name": "F1",
          "ticks": 86356,
          "time": 112.44270833333333,
          "velocity": 0.8503937007874016
        },
        {
          "duration": 0.265625,
          "durationTicks": 204,
          "midi": 29,
          "name": "F1",
          "ticks": 86560,
          "time": 112.70833333333333,
          "velocity": 0.905511811023622
        },
        {
          "duration": 0.2473958333333428,
          "durationTicks": 190,
          "midi": 29,
          "name": "F1",
          "ticks": 86950,
          "time": 113.21614583333333,
          "velocity": 0.8031496062992126
        },
        {
          "duration": 0.26171875,
          "durationTicks": 201,
          "midi": 29,
          "name": "F1",
          "ticks": 87150,
          "time": 113.4765625,
          "velocity": 0.9212598425196851
        },
        {
          "duration": 0.2604166666666572,
          "durationTicks": 200,
          "midi": 29,
          "name": "F1",
          "ticks": 87350,
          "time": 113.73697916666667,
          "velocity": 0.8976377952755905
        },
        {
          "duration": 0.2916666666666714,
          "durationTicks": 224,
          "midi": 29,
          "name": "F1",
          "ticks": 87744,
          "time": 114.25,
          "velocity": 0.905511811023622
        },
        {
          "duration": 0.2630208333333286,
          "durationTicks": 202,
          "midi": 29,
          "name": "F1",
          "ticks": 88142,
          "time": 114.76822916666667,
          "velocity": 0.8661417322834646
        },
        {
          "duration": 0.5143229166666714,
          "durationTicks": 395,
          "midi": 31,
          "name": "G1",
          "ticks": 88546,
          "time": 115.29427083333333,
          "velocity": 0.937007874015748
        },
        {
          "duration": 0.5130208333333286,
          "durationTicks": 394,
          "midi": 31,
          "name": "G1",
          "ticks": 88940,
          "time": 115.80729166666667,
          "velocity": 0.8818897637795275
        },
        {
          "duration": 0.2526041666666714,
          "durationTicks": 194,
          "midi": 29,
          "name": "F1",
          "ticks": 89136,
          "time": 116.0625,
          "velocity": 0.9606299212598425
        },
        {
          "duration": 0.2630208333333286,
          "durationTicks": 202,
          "midi": 29,
          "name": "F1",
          "ticks": 89526,
          "time": 116.5703125,
          "velocity": 0.9448818897637795
        },
        {
          "duration": 0.2473958333333286,
          "durationTicks": 190,
          "midi": 29,
          "name": "F1",
          "ticks": 89730,
          "time": 116.8359375,
          "velocity": 0.8661417322834646
        },
        {
          "duration": 0.26171875,
          "durationTicks": 201,
          "midi": 29,
          "name": "F1",
          "ticks": 90122,
          "time": 117.34635416666667,
          "velocity": 0.905511811023622
        },
        {
          "duration": 0.2565104166666714,
          "durationTicks": 197,
          "midi": 29,
          "name": "F1",
          "ticks": 90322,
          "time": 117.60677083333333,
          "velocity": 0.8188976377952756
        },
        {
          "duration": 0.005208333333328596,
          "durationTicks": 4,
          "midi": 29,
          "name": "F1",
          "ticks": 90518,
          "time": 117.86197916666667,
          "velocity": 0.8818897637795275
        },
        {
          "duration": 0.5234375,
          "durationTicks": 402,
          "midi": 28,
          "name": "E1",
          "ticks": 90910,
          "time": 118.37239583333333,
          "velocity": 0.968503937007874
        },
        {
          "duration": 0.2526041666666714,
          "durationTicks": 194,
          "midi": 28,
          "name": "E1",
          "ticks": 91314,
          "time": 118.8984375,
          "velocity": 0.937007874015748
        },
        {
          "duration": 0.2057291666666714,
          "durationTicks": 158,
          "midi": 28,
          "name": "E1",
          "ticks": 91704,
          "time": 119.40625,
          "velocity": 0.937007874015748
        },
        {
          "duration": 0.2447916666666714,
          "durationTicks": 188,
          "midi": 28,
          "name": "E1",
          "ticks": 91902,
          "time": 119.6640625,
          "velocity": 0.9291338582677166
        },
        {
          "duration": 0.2994791666666714,
          "durationTicks": 230,
          "midi": 31,
          "name": "G1",
          "ticks": 92100,
          "time": 119.921875,
          "velocity": 0.984251968503937
        },
        {
          "duration": 0.234375,
          "durationTicks": 180,
          "midi": 33,
          "name": "A1",
          "ticks": 92306,
          "time": 120.19010416666667,
          "velocity": 0.9133858267716536
        },
        {
          "duration": 0.140625,
          "durationTicks": 108,
          "midi": 33,
          "name": "A1",
          "ticks": 92696,
          "time": 120.69791666666667,
          "velocity": 0.9763779527559056
        },
        {
          "duration": 0.140625,
          "durationTicks": 108,
          "midi": 33,
          "name": "A1",
          "ticks": 92900,
          "time": 120.96354166666667,
          "velocity": 0.952755905511811
        },
        {
          "duration": 0.046875,
          "durationTicks": 36,
          "midi": 33,
          "name": "A1",
          "ticks": 93096,
          "time": 121.21875,
          "velocity": 0.8976377952755905
        },
        {
          "duration": 0.05989583333334281,
          "durationTicks": 46,
          "midi": 33,
          "name": "A1",
          "ticks": 93196,
          "time": 121.34895833333333,
          "velocity": 0.937007874015748
        },
        {
          "duration": 0.1770833333333286,
          "durationTicks": 136,
          "midi": 31,
          "name": "G1",
          "ticks": 93302,
          "time": 121.48697916666667,
          "velocity": 0.937007874015748
        },
        {
          "duration": 0.1432291666666714,
          "durationTicks": 110,
          "midi": 31,
          "name": "G1",
          "ticks": 93492,
          "time": 121.734375,
          "velocity": 0.937007874015748
        },
        {
          "duration": 0.0390625,
          "durationTicks": 30,
          "midi": 31,
          "name": "G1",
          "ticks": 93692,
          "time": 121.99479166666667,
          "velocity": 0.4330708661417323
        },
        {
          "duration": 0.07291666666665719,
          "durationTicks": 56,
          "midi": 31,
          "name": "G1",
          "ticks": 93884,
          "time": 122.24479166666667,
          "velocity": 0.9212598425196851
        },
        {
          "duration": 0.09375,
          "durationTicks": 72,
          "midi": 31,
          "name": "G1",
          "ticks": 93988,
          "time": 122.38020833333333,
          "velocity": 0.8661417322834646
        },
        {
          "duration": 0.2408854166666714,
          "durationTicks": 185,
          "midi": 29,
          "name": "F1",
          "ticks": 94098,
          "time": 122.5234375,
          "velocity": 0.9763779527559056
        },
        {
          "duration": 0.2395833333333428,
          "durationTicks": 184,
          "midi": 29,
          "name": "F1",
          "ticks": 94282,
          "time": 122.76302083333333,
          "velocity": 0.8818897637795275
        },
        {
          "duration": 0.0729166666666714,
          "durationTicks": 56,
          "midi": 29,
          "name": "F1",
          "ticks": 94672,
          "time": 123.27083333333333,
          "velocity": 0.9133858267716536
        },
        {
          "duration": 0.1119791666666714,
          "durationTicks": 86,
          "midi": 29,
          "name": "F1",
          "ticks": 94770,
          "time": 123.3984375,
          "velocity": 0.8976377952755905
        },
        {
          "duration": 0.2890625,
          "durationTicks": 222,
          "midi": 31,
          "name": "G1",
          "ticks": 94872,
          "time": 123.53125,
          "velocity": 0.984251968503937
        },
        {
          "duration": 0.28125,
          "durationTicks": 216,
          "midi": 28,
          "name": "E1",
          "ticks": 95074,
          "time": 123.79427083333333,
          "velocity": 0.968503937007874
        },
        {
          "duration": 0.2734375,
          "durationTicks": 210,
          "midi": 31,
          "name": "G1",
          "ticks": 95278,
          "time": 124.05989583333333,
          "velocity": 0.9763779527559056
        },
        {
          "duration": 0.1380208333333286,
          "durationTicks": 106,
          "midi": 33,
          "name": "A1",
          "ticks": 95480,
          "time": 124.32291666666667,
          "velocity": 0.952755905511811
        },
        {
          "duration": 0.0651041666666714,
          "durationTicks": 50,
          "midi": 33,
          "name": "A1",
          "ticks": 95868,
          "time": 124.828125,
          "velocity": 0.952755905511811
        },
        {
          "duration": 0.057291666666671404,
          "durationTicks": 44,
          "midi": 33,
          "name": "A1",
          "ticks": 95964,
          "time": 124.953125,
          "velocity": 0.9133858267716536
        },
        {
          "duration": 0.1354166666666714,
          "durationTicks": 104,
          "midi": 33,
          "name": "A1",
          "ticks": 96072,
          "time": 125.09375,
          "velocity": 0.9133858267716536
        },
        {
          "duration": 0.052083333333328596,
          "durationTicks": 40,
          "midi": 33,
          "name": "A1",
          "ticks": 96264,
          "time": 125.34375,
          "velocity": 0.9212598425196851
        },
        {
          "duration": 0.07552083333334281,
          "durationTicks": 58,
          "midi": 33,
          "name": "A1",
          "ticks": 96364,
          "time": 125.47395833333333,
          "velocity": 0.905511811023622
        },
        {
          "duration": 0.25390625,
          "durationTicks": 195,
          "midi": 31,
          "name": "G1",
          "ticks": 96464,
          "time": 125.60416666666667,
          "velocity": 0.952755905511811
        },
        {
          "duration": 0.2526041666666714,
          "durationTicks": 194,
          "midi": 31,
          "name": "G1",
          "ticks": 96658,
          "time": 125.85677083333333,
          "velocity": 0.9291338582677166
        },
        {
          "duration": 0.0546875,
          "durationTicks": 42,
          "midi": 31,
          "name": "G1",
          "ticks": 96858,
          "time": 126.1171875,
          "velocity": 0.5433070866141733
        },
        {
          "duration": 0.0677083333333286,
          "durationTicks": 52,
          "midi": 31,
          "name": "G1",
          "ticks": 97050,
          "time": 126.3671875,
          "velocity": 0.9448818897637795
        },
        {
          "duration": 0.078125,
          "durationTicks": 60,
          "midi": 31,
          "name": "G1",
          "ticks": 97152,
          "time": 126.5,
          "velocity": 0.9291338582677166
        },
        {
          "duration": 0.26171875,
          "durationTicks": 201,
          "midi": 29,
          "name": "F1",
          "ticks": 97254,
          "time": 126.6328125,
          "velocity": 0.9448818897637795
        },
        {
          "duration": 0.2604166666666572,
          "durationTicks": 200,
          "midi": 29,
          "name": "F1",
          "ticks": 97454,
          "time": 126.89322916666667,
          "velocity": 0.937007874015748
        },
        {
          "duration": 0.07552083333334281,
          "durationTicks": 58,
          "midi": 29,
          "name": "F1",
          "ticks": 97840,
          "time": 127.39583333333333,
          "velocity": 0.9212598425196851
        },
        {
          "duration": 0.08072916666665719,
          "durationTicks": 62,
          "midi": 29,
          "name": "F1",
          "ticks": 97946,
          "time": 127.53385416666667,
          "velocity": 0.905511811023622
        },
        {
          "duration": 0.109375,
          "durationTicks": 84,
          "midi": 28,
          "name": "E1",
          "ticks": 98056,
          "time": 127.67708333333333,
          "velocity": 0.984251968503937
        },
        {
          "duration": 0.265625,
          "durationTicks": 204,
          "midi": 28,
          "name": "E1",
          "ticks": 98244,
          "time": 127.921875,
          "velocity": 0.937007874015748
        },
        {
          "duration": 0.2604166666666572,
          "durationTicks": 200,
          "midi": 31,
          "name": "G1",
          "ticks": 98448,
          "time": 128.1875,
          "velocity": 0.9212598425196851
        },
        {
          "duration": 0.140625,
          "durationTicks": 108,
          "midi": 33,
          "name": "A1",
          "ticks": 98648,
          "time": 128.44791666666666,
          "velocity": 0.952755905511811
        },
        {
          "duration": 0.11197916666668561,
          "durationTicks": 86,
          "midi": 33,
          "name": "A1",
          "ticks": 99038,
          "time": 128.95572916666666,
          "velocity": 0.9291338582677166
        },
        {
          "duration": 0.1380208333333428,
          "durationTicks": 106,
          "midi": 33,
          "name": "A1",
          "ticks": 99240,
          "time": 129.21875,
          "velocity": 0.9606299212598425
        },
        {
          "duration": 0.05729166666665719,
          "durationTicks": 44,
          "midi": 33,
          "name": "A1",
          "ticks": 99436,
          "time": 129.47395833333334,
          "velocity": 0.9448818897637795
        },
        {
          "duration": 0.08072916666668561,
          "durationTicks": 62,
          "midi": 33,
          "name": "A1",
          "ticks": 99536,
          "time": 129.60416666666666,
          "velocity": 0.8661417322834646
        },
        {
          "duration": 0.24609375,
          "durationTicks": 189,
          "midi": 31,
          "name": "G1",
          "ticks": 99642,
          "time": 129.7421875,
          "velocity": 0.9606299212598425
        },
        {
          "duration": 0.24479166666668561,
          "durationTicks": 188,
          "midi": 31,
          "name": "G1",
          "ticks": 99830,
          "time": 129.98697916666666,
          "velocity": 0.9448818897637795
        },
        {
          "duration": 0.05208333333334281,
          "durationTicks": 40,
          "midi": 31,
          "name": "G1",
          "ticks": 100032,
          "time": 130.25,
          "velocity": 0.4645669291338583
        },
        {
          "duration": 0.06770833333334281,
          "durationTicks": 52,
          "midi": 31,
          "name": "G1",
          "ticks": 100224,
          "time": 130.5,
          "velocity": 0.952755905511811
        },
        {
          "duration": 0.09114583333334281,
          "durationTicks": 70,
          "midi": 31,
          "name": "G1",
          "ticks": 100326,
          "time": 130.6328125,
          "velocity": 0.8661417322834646
        },
        {
          "duration": 0.2604166666666572,
          "durationTicks": 200,
          "midi": 29,
          "name": "F1",
          "ticks": 100426,
          "time": 130.76302083333334,
          "velocity": 0.9606299212598425
        },
        {
          "duration": 0.1380208333333428,
          "durationTicks": 106,
          "midi": 29,
          "name": "F1",
          "ticks": 100628,
          "time": 131.02604166666666,
          "velocity": 0.937007874015748
        },
        {
          "duration": 0.078125,
          "durationTicks": 60,
          "midi": 29,
          "name": "F1",
          "ticks": 101010,
          "time": 131.5234375,
          "velocity": 0.9133858267716536
        },
        {
          "duration": 0.10677083333334281,
          "durationTicks": 82,
          "midi": 29,
          "name": "F1",
          "ticks": 101118,
          "time": 131.6640625,
          "velocity": 0.905511811023622
        },
        {
          "duration": 0.28125,
          "durationTicks": 216,
          "midi": 31,
          "name": "G1",
          "ticks": 101218,
          "time": 131.79427083333334,
          "velocity": 0.9763779527559056
        },
        {
          "duration": 0.265625,
          "durationTicks": 204,
          "midi": 28,
          "name": "E1",
          "ticks": 101416,
          "time": 132.05208333333334,
          "velocity": 0.9763779527559056
        },
        {
          "duration": 0.28125,
          "durationTicks": 216,
          "midi": 31,
          "name": "G1",
          "ticks": 101616,
          "time": 132.3125,
          "velocity": 0.9763779527559056
        },
        {
          "duration": 0.1614583333333428,
          "durationTicks": 124,
          "midi": 33,
          "name": "A1",
          "ticks": 101804,
          "time": 132.55729166666666,
          "velocity": 0.952755905511811
        },
        {
          "duration": 0.11979166666665719,
          "durationTicks": 92,
          "midi": 33,
          "name": "A1",
          "ticks": 102210,
          "time": 133.0859375,
          "velocity": 0.952755905511811
        },
        {
          "duration": 0.1380208333333428,
          "durationTicks": 106,
          "midi": 33,
          "name": "A1",
          "ticks": 102410,
          "time": 133.34635416666666,
          "velocity": 0.9606299212598425
        },
        {
          "duration": 0.07291666666665719,
          "durationTicks": 56,
          "midi": 33,
          "name": "A1",
          "ticks": 102604,
          "time": 133.59895833333334,
          "velocity": 0.9448818897637795
        },
        {
          "duration": 0.0859375,
          "durationTicks": 66,
          "midi": 33,
          "name": "A1",
          "ticks": 102704,
          "time": 133.72916666666666,
          "velocity": 0.8976377952755905
        },
        {
          "duration": 0.25,
          "durationTicks": 192,
          "midi": 31,
          "name": "G1",
          "ticks": 102812,
          "time": 133.86979166666666,
          "velocity": 0.937007874015748
        },
        {
          "duration": 0.1354166666666572,
          "durationTicks": 104,
          "midi": 31,
          "name": "G1",
          "ticks": 103008,
          "time": 134.125,
          "velocity": 0.9763779527559056
        },
        {
          "duration": 0.03125,
          "durationTicks": 24,
          "midi": 31,
          "name": "G1",
          "ticks": 103200,
          "time": 134.375,
          "velocity": 0.23622047244094488
        },
        {
          "duration": 0.07291666666665719,
          "durationTicks": 56,
          "midi": 31,
          "name": "G1",
          "ticks": 103398,
          "time": 134.6328125,
          "velocity": 0.9448818897637795
        },
        {
          "duration": 0.1354166666666572,
          "durationTicks": 104,
          "midi": 31,
          "name": "G1",
          "ticks": 103500,
          "time": 134.765625,
          "velocity": 0.8346456692913385
        },
        {
          "duration": 0.2526041666666856,
          "durationTicks": 194,
          "midi": 29,
          "name": "F1",
          "ticks": 103604,
          "time": 134.90104166666666,
          "velocity": 0.9606299212598425
        },
        {
          "duration": 0.140625,
          "durationTicks": 108,
          "midi": 29,
          "name": "F1",
          "ticks": 103800,
          "time": 135.15625,
          "velocity": 0.968503937007874
        },
        {
          "duration": 0.0703125,
          "durationTicks": 54,
          "midi": 29,
          "name": "F1",
          "ticks": 104188,
          "time": 135.66145833333334,
          "velocity": 0.8976377952755905
        },
        {
          "duration": 0.08854166666665719,
          "durationTicks": 68,
          "midi": 29,
          "name": "F1",
          "ticks": 104290,
          "time": 135.79427083333334,
          "velocity": 0.8346456692913385
        },
        {
          "duration": 0.13802083333331439,
          "durationTicks": 106,
          "midi": 28,
          "name": "E1",
          "ticks": 104392,
          "time": 135.92708333333334,
          "velocity": 0.9448818897637795
        },
        {
          "duration": 0.1328125,
          "durationTicks": 102,
          "midi": 28,
          "name": "E1",
          "ticks": 104594,
          "time": 136.19010416666666,
          "velocity": 0.9448818897637795
        },
        {
          "duration": 0.2760416666666856,
          "durationTicks": 212,
          "midi": 28,
          "name": "E1",
          "ticks": 104786,
          "time": 136.44010416666666,
          "velocity": 0.8661417322834646
        },
        {
          "duration": 0.2213541666666572,
          "durationTicks": 170,
          "midi": 29,
          "name": "F1",
          "ticks": 104988,
          "time": 136.703125,
          "velocity": 0.9763779527559056
        },
        {
          "duration": 0.2369791666666572,
          "durationTicks": 182,
          "midi": 29,
          "name": "F1",
          "ticks": 105378,
          "time": 137.2109375,
          "velocity": 0.8346456692913385
        },
        {
          "duration": 0.25,
          "durationTicks": 192,
          "midi": 29,
          "name": "F1",
          "ticks": 105578,
          "time": 137.47135416666666,
          "velocity": 0.905511811023622
        },
        {
          "duration": 0.2916666666666572,
          "durationTicks": 224,
          "midi": 29,
          "name": "F1",
          "ticks": 105972,
          "time": 137.984375,
          "velocity": 0.8503937007874016
        },
        {
          "duration": 0.3229166666666572,
          "durationTicks": 248,
          "midi": 41,
          "name": "F2",
          "ticks": 106170,
          "time": 138.2421875,
          "velocity": 0.8346456692913385
        },
        {
          "duration": 0.296875,
          "durationTicks": 228,
          "midi": 29,
          "name": "F1",
          "ticks": 106372,
          "time": 138.50520833333334,
          "velocity": 0.8031496062992126
        },
        {
          "duration": 0.3072916666666572,
          "durationTicks": 236,
          "midi": 41,
          "name": "F2",
          "ticks": 106566,
          "time": 138.7578125,
          "velocity": 0.8661417322834646
        },
        {
          "duration": 0.2890625,
          "durationTicks": 222,
          "midi": 29,
          "name": "F1",
          "ticks": 106764,
          "time": 139.015625,
          "velocity": 0.8976377952755905
        },
        {
          "duration": 0.3463541666666572,
          "durationTicks": 266,
          "midi": 29,
          "name": "F1",
          "ticks": 107160,
          "time": 139.53125,
          "velocity": 0.8346456692913385
        },
        {
          "duration": 0.51171875,
          "durationTicks": 393,
          "midi": 31,
          "name": "G1",
          "ticks": 107558,
          "time": 140.04947916666666,
          "velocity": 0.937007874015748
        },
        {
          "duration": 0.5104166666666572,
          "durationTicks": 392,
          "midi": 31,
          "name": "G1",
          "ticks": 107950,
          "time": 140.55989583333334,
          "velocity": 0.905511811023622
        },
        {
          "duration": 0.2239583333333428,
          "durationTicks": 172,
          "midi": 29,
          "name": "F1",
          "ticks": 108152,
          "time": 140.82291666666666,
          "velocity": 0.9291338582677166
        },
        {
          "duration": 0.2994791666666572,
          "durationTicks": 230,
          "midi": 28,
          "name": "E1",
          "ticks": 108352,
          "time": 141.08333333333334,
          "velocity": 0.9291338582677166
        },
        {
          "duration": 0.23177083333331439,
          "durationTicks": 178,
          "midi": 28,
          "name": "E1",
          "ticks": 109138,
          "time": 142.10677083333334,
          "velocity": 0.937007874015748
        },
        {
          "duration": 0.2161458333333428,
          "durationTicks": 166,
          "midi": 28,
          "name": "E1",
          "ticks": 109340,
          "time": 142.36979166666666,
          "velocity": 0.9133858267716536
        },
        {
          "duration": 0.265625,
          "durationTicks": 204,
          "midi": 28,
          "name": "E1",
          "ticks": 110332,
          "time": 143.66145833333334,
          "velocity": 0.9763779527559056
        },
        {
          "duration": 0.20833333333331439,
          "durationTicks": 160,
          "midi": 33,
          "name": "A1",
          "ticks": 111322,
          "time": 144.95052083333334,
          "velocity": 0.9921259842519685
        },
        {
          "duration": 0.09635416666668561,
          "durationTicks": 74,
          "midi": 33,
          "name": "A1",
          "ticks": 111710,
          "time": 145.45572916666666,
          "velocity": 0.9448818897637795
        },
        {
          "duration": 0.0078125,
          "durationTicks": 6,
          "midi": 33,
          "name": "A1",
          "ticks": 111812,
          "time": 145.58854166666666,
          "velocity": 0.7874015748031497
        },
        {
          "duration": 0.0625,
          "durationTicks": 48,
          "midi": 33,
          "name": "A1",
          "ticks": 111910,
          "time": 145.71614583333334,
          "velocity": 0.937007874015748
        },
        {
          "duration": 0.09635416666665719,
          "durationTicks": 74,
          "midi": 33,
          "name": "A1",
          "ticks": 112006,
          "time": 145.84114583333334,
          "velocity": 0.8188976377952756
        },
        {
          "duration": 0.14583333333331439,
          "durationTicks": 112,
          "midi": 31,
          "name": "G1",
          "ticks": 112108,
          "time": 145.97395833333334,
          "velocity": 0.9606299212598425
        },
        {
          "duration": 0.125,
          "durationTicks": 96,
          "midi": 33,
          "name": "A1",
          "ticks": 112206,
          "time": 146.1015625,
          "velocity": 0.9606299212598425
        },
        {
          "duration": 0.2369791666666572,
          "durationTicks": 182,
          "midi": 35,
          "name": "B1",
          "ticks": 112302,
          "time": 146.2265625,
          "velocity": 0.8976377952755905
        },
        {
          "duration": 0.12239583333334281,
          "durationTicks": 94,
          "midi": 35,
          "name": "B1",
          "ticks": 112506,
          "time": 146.4921875,
          "velocity": 0.9448818897637795
        },
        {
          "duration": 0.15104166666668561,
          "durationTicks": 116,
          "midi": 33,
          "name": "A1",
          "ticks": 112898,
          "time": 147.00260416666666,
          "velocity": 0.9291338582677166
        },
        {
          "duration": 0.1510416666666572,
          "durationTicks": 116,
          "midi": 35,
          "name": "B1",
          "ticks": 112998,
          "time": 147.1328125,
          "velocity": 0.952755905511811
        },
        {
          "duration": 0.2591145833333144,
          "durationTicks": 199,
          "midi": 36,
          "name": "C2",
          "ticks": 113098,
          "time": 147.26302083333334,
          "velocity": 0.9212598425196851
        },
        {
          "duration": 0.2578125,
          "durationTicks": 198,
          "midi": 36,
          "name": "C2",
          "ticks": 113296,
          "time": 147.52083333333334,
          "velocity": 0.9291338582677166
        },
        {
          "duration": 0.13802083333331439,
          "durationTicks": 106,
          "midi": 35,
          "name": "B1",
          "ticks": 113686,
          "time": 148.02864583333334,
          "velocity": 0.952755905511811
        },
        {
          "duration": 0.1380208333333428,
          "durationTicks": 106,
          "midi": 36,
          "name": "C2",
          "ticks": 113790,
          "time": 148.1640625,
          "velocity": 0.9606299212598425
        },
        {
          "duration": 0.1015625,
          "durationTicks": 78,
          "midi": 35,
          "name": "B1",
          "ticks": 113892,
          "time": 148.296875,
          "velocity": 0.984251968503937
        },
        {
          "duration": 0.09114583333334281,
          "durationTicks": 70,
          "midi": 35,
          "name": "B1",
          "ticks": 113988,
          "time": 148.421875,
          "velocity": 0.937007874015748
        },
        {
          "duration": 0.3984375,
          "durationTicks": 306,
          "midi": 31,
          "name": "G1",
          "ticks": 114084,
          "time": 148.546875,
          "velocity": 0.9921259842519685
        },
        {
          "duration": 0.11197916666665719,
          "durationTicks": 86,
          "midi": 33,
          "name": "A1",
          "ticks": 114480,
          "time": 149.0625,
          "velocity": 0.952755905511811
        },
        {
          "duration": 0.08854166666665719,
          "durationTicks": 68,
          "midi": 33,
          "name": "A1",
          "ticks": 114880,
          "time": 149.58333333333334,
          "velocity": 0.9448818897637795
        },
        {
          "duration": 0.0026041666666571928,
          "durationTicks": 2,
          "midi": 33,
          "name": "A1",
          "ticks": 114978,
          "time": 149.7109375,
          "velocity": 0.8661417322834646
        },
        {
          "duration": 0.05729166666665719,
          "durationTicks": 44,
          "midi": 33,
          "name": "A1",
          "ticks": 115078,
          "time": 149.84114583333334,
          "velocity": 0.9448818897637795
        },
        {
          "duration": 0.10416666666665719,
          "durationTicks": 80,
          "midi": 33,
          "name": "A1",
          "ticks": 115174,
          "time": 149.96614583333334,
          "velocity": 0.8976377952755905
        },
        {
          "duration": 0.14583333333331439,
          "durationTicks": 112,
          "midi": 31,
          "name": "G1",
          "ticks": 115276,
          "time": 150.09895833333334,
          "velocity": 0.9606299212598425
        },
        {
          "duration": 0.1484375,
          "durationTicks": 114,
          "midi": 33,
          "name": "A1",
          "ticks": 115374,
          "time": 150.2265625,
          "velocity": 0.9606299212598425
        },
        {
          "duration": 0.2604166666666572,
          "durationTicks": 200,
          "midi": 35,
          "name": "B1",
          "ticks": 115476,
          "time": 150.359375,
          "velocity": 0.9448818897637795
        },
        {
          "duration": 0.109375,
          "durationTicks": 84,
          "midi": 35,
          "name": "B1",
          "ticks": 115678,
          "time": 150.62239583333334,
          "velocity": 0.9448818897637795
        },
        {
          "duration": 0.1458333333333428,
          "durationTicks": 112,
          "midi": 33,
          "name": "A1",
          "ticks": 116066,
          "time": 151.12760416666666,
          "velocity": 0.9291338582677166
        },
        {
          "duration": 0.1588541666666572,
          "durationTicks": 122,
          "midi": 35,
          "name": "B1",
          "ticks": 116164,
          "time": 151.25520833333334,
          "velocity": 0.968503937007874
        },
        {
          "duration": 0.22395833333331439,
          "durationTicks": 172,
          "midi": 36,
          "name": "C2",
          "ticks": 116266,
          "time": 151.38802083333334,
          "velocity": 0.9291338582677166
        },
        {
          "duration": 0.12239583333334281,
          "durationTicks": 94,
          "midi": 36,
          "name": "C2",
          "ticks": 116472,
          "time": 151.65625,
          "velocity": 0.905511811023622
        },
        {
          "duration": 0.10677083333331439,
          "durationTicks": 82,
          "midi": 35,
          "name": "B1",
          "ticks": 116854,
          "time": 152.15364583333334,
          "velocity": 0.9448818897637795
        },
        {
          "duration": 0.15885416666668561,
          "durationTicks": 122,
          "midi": 36,
          "name": "C2",
          "ticks": 116954,
          "time": 152.28385416666666,
          "velocity": 0.937007874015748
        },
        {
          "duration": 0.11848958333334281,
          "durationTicks": 91,
          "midi": 35,
          "name": "B1",
          "ticks": 117066,
          "time": 152.4296875,
          "velocity": 0.9606299212598425
        },
        {
          "duration": 0.1171875,
          "durationTicks": 90,
          "midi": 35,
          "name": "B1",
          "ticks": 117156,
          "time": 152.546875,
          "velocity": 0.9448818897637795
        },
        {
          "duration": 0.4375,
          "durationTicks": 336,
          "midi": 31,
          "name": "G1",
          "ticks": 117256,
          "time": 152.67708333333334,
          "velocity": 0.984251968503937
        },
        {
          "duration": 0.09635416666665719,
          "durationTicks": 74,
          "midi": 33,
          "name": "A1",
          "ticks": 117660,
          "time": 153.203125,
          "velocity": 0.968503937007874
        },
        {
          "duration": 0.028645833333342807,
          "durationTicks": 22,
          "midi": 33,
          "name": "A1",
          "ticks": 118046,
          "time": 153.70572916666666,
          "velocity": 0.9448818897637795
        },
        {
          "duration": 0.028645833333342807,
          "durationTicks": 22,
          "midi": 33,
          "name": "A1",
          "ticks": 118148,
          "time": 153.83854166666666,
          "velocity": 0.7874015748031497
        },
        {
          "duration": 0.020833333333342807,
          "durationTicks": 16,
          "midi": 33,
          "name": "A1",
          "ticks": 118250,
          "time": 153.97135416666666,
          "velocity": 0.937007874015748
        },
        {
          "duration": 0.026041666666657193,
          "durationTicks": 20,
          "midi": 33,
          "name": "A1",
          "ticks": 118344,
          "time": 154.09375,
          "velocity": 0.8188976377952756
        },
        {
          "duration": 0.026041666666657193,
          "durationTicks": 20,
          "midi": 33,
          "name": "A1",
          "ticks": 118446,
          "time": 154.2265625,
          "velocity": 0.9606299212598425
        },
        {
          "duration": 0.0234375,
          "durationTicks": 18,
          "midi": 33,
          "name": "A1",
          "ticks": 118546,
          "time": 154.35677083333334,
          "velocity": 0.9606299212598425
        },
        {
          "duration": 0.026041666666685614,
          "durationTicks": 20,
          "midi": 36,
          "name": "C2",
          "ticks": 118640,
          "time": 154.47916666666666,
          "velocity": 0.9763779527559056
        },
        {
          "duration": 0.0234375,
          "durationTicks": 18,
          "midi": 33,
          "name": "A1",
          "ticks": 118842,
          "time": 154.7421875,
          "velocity": 0.9448818897637795
        },
        {
          "duration": 0.018229166666657193,
          "durationTicks": 14,
          "midi": 31,
          "name": "G1",
          "ticks": 119044,
          "time": 155.00520833333334,
          "velocity": 0.9291338582677166
        },
        {
          "duration": 0.026041666666657193,
          "durationTicks": 20,
          "midi": 33,
          "name": "A1",
          "ticks": 119238,
          "time": 155.2578125,
          "velocity": 0.952755905511811
        },
        {
          "duration": 0.0234375,
          "durationTicks": 18,
          "midi": 33,
          "name": "A1",
          "ticks": 119634,
          "time": 155.7734375,
          "velocity": 0.9448818897637795
        },
        {
          "duration": 0.026041666666685614,
          "durationTicks": 20,
          "midi": 33,
          "name": "A1",
          "ticks": 119732,
          "time": 155.90104166666666,
          "velocity": 0.7874015748031497
        },
        {
          "duration": 0.020833333333342807,
          "durationTicks": 16,
          "midi": 33,
          "name": "A1",
          "ticks": 119832,
          "time": 156.03125,
          "velocity": 0.937007874015748
        },
        {
          "duration": 0.028645833333314386,
          "durationTicks": 22,
          "midi": 33,
          "name": "A1",
          "ticks": 119926,
          "time": 156.15364583333334,
          "velocity": 0.8188976377952756
        },
        {
          "duration": 0.026041666666657193,
          "durationTicks": 20,
          "midi": 33,
          "name": "A1",
          "ticks": 120028,
          "time": 156.28645833333334,
          "velocity": 0.9606299212598425
        },
        {
          "duration": 0.0234375,
          "durationTicks": 18,
          "midi": 33,
          "name": "A1",
          "ticks": 120130,
          "time": 156.41927083333334,
          "velocity": 0.9606299212598425
        },
        {
          "duration": 0.026041666666657193,
          "durationTicks": 20,
          "midi": 36,
          "name": "C2",
          "ticks": 120222,
          "time": 156.5390625,
          "velocity": 0.9763779527559056
        },
        {
          "duration": 0.020833333333342807,
          "durationTicks": 16,
          "midi": 33,
          "name": "A1",
          "ticks": 120426,
          "time": 156.8046875,
          "velocity": 0.9448818897637795
        },
        {
          "duration": 0.018229166666657193,
          "durationTicks": 14,
          "midi": 31,
          "name": "G1",
          "ticks": 120628,
          "time": 157.06770833333334,
          "velocity": 0.9291338582677166
        },
        {
          "duration": 0.020833333333342807,
          "durationTicks": 16,
          "midi": 33,
          "name": "A1",
          "ticks": 120824,
          "time": 157.32291666666666,
          "velocity": 0.952755905511811
        },
        {
          "duration": 0.026041666666657193,
          "durationTicks": 20,
          "midi": 33,
          "name": "A1",
          "ticks": 121216,
          "time": 157.83333333333334,
          "velocity": 0.9448818897637795
        },
        {
          "duration": 0.028645833333342807,
          "durationTicks": 22,
          "midi": 33,
          "name": "A1",
          "ticks": 121314,
          "time": 157.9609375,
          "velocity": 0.7874015748031497
        },
        {
          "duration": 0.018229166666685614,
          "durationTicks": 14,
          "midi": 33,
          "name": "A1",
          "ticks": 121418,
          "time": 158.09635416666666,
          "velocity": 0.937007874015748
        },
        {
          "duration": 0.026041666666657193,
          "durationTicks": 20,
          "midi": 33,
          "name": "A1",
          "ticks": 121512,
          "time": 158.21875,
          "velocity": 0.8188976377952756
        },
        {
          "duration": 0.0234375,
          "durationTicks": 18,
          "midi": 33,
          "name": "A1",
          "ticks": 121616,
          "time": 158.35416666666666,
          "velocity": 0.9606299212598425
        },
        {
          "duration": 0.026041666666685614,
          "durationTicks": 20,
          "midi": 33,
          "name": "A1",
          "ticks": 121712,
          "time": 158.47916666666666,
          "velocity": 0.9606299212598425
        },
        {
          "duration": 0.028645833333342807,
          "durationTicks": 22,
          "midi": 36,
          "name": "C2",
          "ticks": 121806,
          "time": 158.6015625,
          "velocity": 0.9763779527559056
        },
        {
          "duration": 0.0234375,
          "durationTicks": 18,
          "midi": 33,
          "name": "A1",
          "ticks": 122010,
          "time": 158.8671875,
          "velocity": 0.9448818897637795
        },
        {
          "duration": 0.018229166666657193,
          "durationTicks": 14,
          "midi": 31,
          "name": "G1",
          "ticks": 122212,
          "time": 159.13020833333334,
          "velocity": 0.9291338582677166
        },
        {
          "duration": 0.0234375,
          "durationTicks": 18,
          "midi": 33,
          "name": "A1",
          "ticks": 122408,
          "time": 159.38541666666666,
          "velocity": 0.952755905511811
        },
        {
          "duration": 0.1588541666666572,
          "durationTicks": 122,
          "midi": 33,
          "name": "A1",
          "ticks": 123996,
          "time": 161.453125,
          "velocity": 0.9921259842519685
        },
        {
          "duration": 0.09635416666668561,
          "durationTicks": 74,
          "midi": 33,
          "name": "A1",
          "ticks": 124382,
          "time": 161.95572916666666,
          "velocity": 0.9448818897637795
        },
        {
          "duration": 0.010416666666657193,
          "durationTicks": 8,
          "midi": 33,
          "name": "A1",
          "ticks": 124482,
          "time": 162.0859375,
          "velocity": 0.7874015748031497
        },
        {
          "duration": 0.05989583333334281,
          "durationTicks": 46,
          "midi": 33,
          "name": "A1",
          "ticks": 124584,
          "time": 162.21875,
          "velocity": 0.937007874015748
        },
        {
          "duration": 0.09895833333334281,
          "durationTicks": 76,
          "midi": 33,
          "name": "A1",
          "ticks": 124676,
          "time": 162.33854166666666,
          "velocity": 0.8188976377952756
        },
        {
          "duration": 0.14583333333331439,
          "durationTicks": 112,
          "midi": 31,
          "name": "G1",
          "ticks": 124780,
          "time": 162.47395833333334,
          "velocity": 0.9606299212598425
        },
        {
          "duration": 0.12239583333334281,
          "durationTicks": 94,
          "midi": 33,
          "name": "A1",
          "ticks": 124880,
          "time": 162.60416666666666,
          "velocity": 0.9606299212598425
        },
        {
          "duration": 0.23697916666668561,
          "durationTicks": 182,
          "midi": 35,
          "name": "B1",
          "ticks": 124976,
          "time": 162.72916666666666,
          "velocity": 0.8976377952755905
        },
        {
          "duration": 0.1276041666666572,
          "durationTicks": 98,
          "midi": 35,
          "name": "B1",
          "ticks": 125176,
          "time": 162.98958333333334,
          "velocity": 0.9448818897637795
        },
        {
          "duration": 0.1484375,
          "durationTicks": 114,
          "midi": 33,
          "name": "A1",
          "ticks": 125572,
          "time": 163.50520833333334,
          "velocity": 0.9291338582677166
        },
        {
          "duration": 0.15104166666668561,
          "durationTicks": 116,
          "midi": 35,
          "name": "B1",
          "ticks": 125672,
          "time": 163.63541666666666,
          "velocity": 0.952755905511811
        },
        {
          "duration": 0.2578125,
          "durationTicks": 198,
          "midi": 36,
          "name": "C2",
          "ticks": 125768,
          "time": 163.76041666666666,
          "velocity": 0.9212598425196851
        },
        {
          "duration": 0.11979166666665719,
          "durationTicks": 92,
          "midi": 36,
          "name": "C2",
          "ticks": 125968,
          "time": 164.02083333333334,
          "velocity": 0.9291338582677166
        },
        {
          "duration": 0.140625,
          "durationTicks": 108,
          "midi": 35,
          "name": "B1",
          "ticks": 126358,
          "time": 164.52864583333334,
          "velocity": 0.952755905511811
        },
        {
          "duration": 0.140625,
          "durationTicks": 108,
          "midi": 36,
          "name": "C2",
          "ticks": 126462,
          "time": 164.6640625,
          "velocity": 0.9606299212598425
        },
        {
          "duration": 0.10677083333331439,
          "durationTicks": 82,
          "midi": 35,
          "name": "B1",
          "ticks": 126562,
          "time": 164.79427083333334,
          "velocity": 0.984251968503937
        },
        {
          "duration": 0.08854166666668561,
          "durationTicks": 68,
          "midi": 35,
          "name": "B1",
          "ticks": 126662,
          "time": 164.92447916666666,
          "velocity": 0.937007874015748
        },
        {
          "duration": 0.20833333333331439,
          "durationTicks": 160,
          "midi": 31,
          "name": "G1",
          "ticks": 126754,
          "time": 165.04427083333334,
          "velocity": 0.9921259842519685
        },
        {
          "duration": 0.1927083333333428,
          "durationTicks": 148,
          "midi": 31,
          "name": "G1",
          "ticks": 126962,
          "time": 165.31510416666666,
          "velocity": 0.937007874015748
        },
        {
          "duration": 0.1822916666666572,
          "durationTicks": 140,
          "midi": 33,
          "name": "A1",
          "ticks": 127152,
          "time": 165.5625,
          "velocity": 0.952755905511811
        },
        {
          "duration": 0.09114583333331439,
          "durationTicks": 70,
          "midi": 33,
          "name": "A1",
          "ticks": 127552,
          "time": 166.08333333333334,
          "velocity": 0.9448818897637795
        },
        {
          "duration": 0.0026041666666571928,
          "durationTicks": 2,
          "midi": 33,
          "name": "A1",
          "ticks": 127650,
          "time": 166.2109375,
          "velocity": 0.8661417322834646
        },
        {
          "duration": 0.0546875,
          "durationTicks": 42,
          "midi": 33,
          "name": "A1",
          "ticks": 127754,
          "time": 166.34635416666666,
          "velocity": 0.9448818897637795
        },
        {
          "duration": 0.10416666666665719,
          "durationTicks": 80,
          "midi": 33,
          "name": "A1",
          "ticks": 127846,
          "time": 166.46614583333334,
          "velocity": 0.8976377952755905
        },
        {
          "duration": 0.1432291666666572,
          "durationTicks": 110,
          "midi": 31,
          "name": "G1",
          "ticks": 127950,
          "time": 166.6015625,
          "velocity": 0.9606299212598425
        },
        {
          "duration": 0.1484375,
          "durationTicks": 114,
          "midi": 33,
          "name": "A1",
          "ticks": 128048,
          "time": 166.72916666666666,
          "velocity": 0.9606299212598425
        },
        {
          "duration": 0.2552083333333144,
          "durationTicks": 196,
          "midi": 35,
          "name": "B1",
          "ticks": 128152,
          "time": 166.86458333333334,
          "velocity": 0.9448818897637795
        },
        {
          "duration": 0.109375,
          "durationTicks": 84,
          "midi": 35,
          "name": "B1",
          "ticks": 128350,
          "time": 167.12239583333334,
          "velocity": 0.9448818897637795
        },
        {
          "duration": 0.140625,
          "durationTicks": 108,
          "midi": 33,
          "name": "A1",
          "ticks": 128742,
          "time": 167.6328125,
          "velocity": 0.9291338582677166
        },
        {
          "duration": 0.15364583333331439,
          "durationTicks": 118,
          "midi": 35,
          "name": "B1",
          "ticks": 128842,
          "time": 167.76302083333334,
          "velocity": 0.968503937007874
        },
        {
          "duration": 0.21875,
          "durationTicks": 168,
          "midi": 36,
          "name": "C2",
          "ticks": 128942,
          "time": 167.89322916666666,
          "velocity": 0.9291338582677166
        },
        {
          "duration": 0.1302083333333428,
          "durationTicks": 100,
          "midi": 36,
          "name": "C2",
          "ticks": 129132,
          "time": 168.140625,
          "velocity": 0.905511811023622
        },
        {
          "duration": 0.109375,
          "durationTicks": 84,
          "midi": 35,
          "name": "B1",
          "ticks": 129526,
          "time": 168.65364583333334,
          "velocity": 0.9448818897637795
        },
        {
          "duration": 0.1536458333333428,
          "durationTicks": 118,
          "midi": 36,
          "name": "C2",
          "ticks": 129626,
          "time": 168.78385416666666,
          "velocity": 0.937007874015748
        },
        {
          "duration": 0.12369791666668561,
          "durationTicks": 95,
          "midi": 35,
          "name": "B1",
          "ticks": 129734,
          "time": 168.92447916666666,
          "velocity": 0.9606299212598425
        },
        {
          "duration": 0.12239583333334281,
          "durationTicks": 94,
          "midi": 35,
          "name": "B1",
          "ticks": 129828,
          "time": 169.046875,
          "velocity": 0.9448818897637795
        },
        {
          "duration": 0.171875,
          "durationTicks": 132,
          "midi": 31,
          "name": "G1",
          "ticks": 129924,
          "time": 169.171875,
          "velocity": 0.984251968503937
        },
        {
          "duration": 0.2369791666666572,
          "durationTicks": 182,
          "midi": 31,
          "name": "G1",
          "ticks": 130126,
          "time": 169.43489583333334,
          "velocity": 0.937007874015748
        },
        {
          "duration": 0.1015625,
          "durationTicks": 78,
          "midi": 33,
          "name": "A1",
          "ticks": 130326,
          "time": 169.6953125,
          "velocity": 0.968503937007874
        },
        {
          "duration": 0.09114583333331439,
          "durationTicks": 70,
          "midi": 33,
          "name": "A1",
          "ticks": 130720,
          "time": 170.20833333333334,
          "velocity": 0.9448818897637795
        },
        {
          "duration": 0.010416666666657193,
          "durationTicks": 8,
          "midi": 33,
          "name": "A1",
          "ticks": 130818,
          "time": 170.3359375,
          "velocity": 0.7874015748031497
        },
        {
          "duration": 0.05989583333334281,
          "durationTicks": 46,
          "midi": 33,
          "name": "A1",
          "ticks": 130920,
          "time": 170.46875,
          "velocity": 0.937007874015748
        },
        {
          "duration": 0.09895833333334281,
          "durationTicks": 76,
          "midi": 33,
          "name": "A1",
          "ticks": 131012,
          "time": 170.58854166666666,
          "velocity": 0.8188976377952756
        },
        {
          "duration": 0.14583333333331439,
          "durationTicks": 112,
          "midi": 31,
          "name": "G1",
          "ticks": 131116,
          "time": 170.72395833333334,
          "velocity": 0.9606299212598425
        },
        {
          "duration": 0.125,
          "durationTicks": 96,
          "midi": 33,
          "name": "A1",
          "ticks": 131216,
          "time": 170.85416666666666,
          "velocity": 0.9606299212598425
        },
        {
          "duration": 0.23177083333331439,
          "durationTicks": 178,
          "midi": 35,
          "name": "B1",
          "ticks": 131314,
          "time": 170.98177083333334,
          "velocity": 0.8976377952755905
        },
        {
          "duration": 0.1276041666666572,
          "durationTicks": 98,
          "midi": 35,
          "name": "B1",
          "ticks": 131512,
          "time": 171.23958333333334,
          "velocity": 0.9448818897637795
        },
        {
          "duration": 0.1458333333333428,
          "durationTicks": 112,
          "midi": 33,
          "name": "A1",
          "ticks": 131910,
          "time": 171.7578125,
          "velocity": 0.9291338582677166
        },
        {
          "duration": 0.1484375,
          "durationTicks": 114,
          "midi": 35,
          "name": "B1",
          "ticks": 132008,
          "time": 171.88541666666666,
          "velocity": 0.952755905511811
        },
        {
          "duration": 0.2526041666666572,
          "durationTicks": 194,
          "midi": 36,
          "name": "C2",
          "ticks": 132108,
          "time": 172.015625,
          "velocity": 0.9212598425196851
        },
        {
          "duration": 0.11979166666665719,
          "durationTicks": 92,
          "midi": 36,
          "name": "C2",
          "ticks": 132304,
          "time": 172.27083333333334,
          "velocity": 0.9291338582677166
        },
        {
          "duration": 0.13802083333331439,
          "durationTicks": 106,
          "midi": 35,
          "name": "B1",
          "ticks": 132694,
          "time": 172.77864583333334,
          "velocity": 0.952755905511811
        },
        {
          "duration": 0.1354166666666572,
          "durationTicks": 104,
          "midi": 36,
          "name": "C2",
          "ticks": 132798,
          "time": 172.9140625,
          "velocity": 0.9606299212598425
        },
        {
          "duration": 0.10416666666665719,
          "durationTicks": 80,
          "midi": 35,
          "name": "B1",
          "ticks": 132898,
          "time": 173.04427083333334,
          "velocity": 0.984251968503937
        },
        {
          "duration": 0.09114583333334281,
          "durationTicks": 70,
          "midi": 35,
          "name": "B1",
          "ticks": 132996,
          "time": 173.171875,
          "velocity": 0.937007874015748
        },
        {
          "duration": 0.20833333333331439,
          "durationTicks": 160,
          "midi": 31,
          "name": "G1",
          "ticks": 133090,
          "time": 173.29427083333334,
          "velocity": 0.9921259842519685
        },
        {
          "duration": 0.1927083333333428,
          "durationTicks": 148,
          "midi": 31,
          "name": "G1",
          "ticks": 133298,
          "time": 173.56510416666666,
          "velocity": 0.937007874015748
        },
        {
          "duration": 0.18489583333331439,
          "durationTicks": 142,
          "midi": 33,
          "name": "A1",
          "ticks": 133486,
          "time": 173.80989583333334,
          "velocity": 0.952755905511811
        },
        {
          "duration": 0.09114583333334281,
          "durationTicks": 70,
          "midi": 33,
          "name": "A1",
          "ticks": 133886,
          "time": 174.33072916666666,
          "velocity": 0.9448818897637795
        },
        {
          "duration": 0.0026041666666571928,
          "durationTicks": 2,
          "midi": 33,
          "name": "A1",
          "ticks": 133984,
          "time": 174.45833333333334,
          "velocity": 0.8661417322834646
        },
        {
          "duration": 0.0625,
          "durationTicks": 48,
          "midi": 33,
          "name": "A1",
          "ticks": 134082,
          "time": 174.5859375,
          "velocity": 0.9448818897637795
        },
        {
          "duration": 0.10677083333334281,
          "durationTicks": 82,
          "midi": 33,
          "name": "A1",
          "ticks": 134180,
          "time": 174.71354166666666,
          "velocity": 0.8976377952755905
        },
        {
          "duration": 0.14583333333331439,
          "durationTicks": 112,
          "midi": 31,
          "name": "G1",
          "ticks": 134284,
          "time": 174.84895833333334,
          "velocity": 0.9606299212598425
        },
        {
          "duration": 0.1484375,
          "durationTicks": 114,
          "midi": 33,
          "name": "A1",
          "ticks": 134382,
          "time": 174.9765625,
          "velocity": 0.9606299212598425
        },
        {
          "duration": 0.2526041666666572,
          "durationTicks": 194,
          "midi": 35,
          "name": "B1",
          "ticks": 134488,
          "time": 175.11458333333334,
          "velocity": 0.9448818897637795
        },
        {
          "duration": 0.109375,
          "durationTicks": 84,
          "midi": 35,
          "name": "B1",
          "ticks": 134684,
          "time": 175.36979166666666,
          "velocity": 0.9448818897637795
        },
        {
          "duration": 0.14322916666668561,
          "durationTicks": 110,
          "midi": 33,
          "name": "A1",
          "ticks": 135074,
          "time": 175.87760416666666,
          "velocity": 0.9291338582677166
        },
        {
          "duration": 0.15104166666668561,
          "durationTicks": 116,
          "midi": 35,
          "name": "B1",
          "ticks": 135176,
          "time": 176.01041666666666,
          "velocity": 0.968503937007874
        },
        {
          "duration": 0.2239583333333428,
          "durationTicks": 172,
          "midi": 36,
          "name": "C2",
          "ticks": 135272,
          "time": 176.13541666666666,
          "velocity": 0.9291338582677166
        },
        {
          "duration": 0.125,
          "durationTicks": 96,
          "midi": 36,
          "name": "C2",
          "ticks": 135470,
          "time": 176.39322916666666,
          "velocity": 0.905511811023622
        },
        {
          "duration": 0.10677083333334281,
          "durationTicks": 82,
          "midi": 35,
          "name": "B1",
          "ticks": 135860,
          "time": 176.90104166666666,
          "velocity": 0.9448818897637795
        },
        {
          "duration": 0.1510416666666572,
          "durationTicks": 116,
          "midi": 36,
          "name": "C2",
          "ticks": 135960,
          "time": 177.03125,
          "velocity": 0.937007874015748
        },
        {
          "duration": 0.12369791666665719,
          "durationTicks": 95,
          "midi": 35,
          "name": "B1",
          "ticks": 136068,
          "time": 177.171875,
          "velocity": 0.9606299212598425
        },
        {
          "duration": 0.12239583333331439,
          "durationTicks": 94,
          "midi": 35,
          "name": "B1",
          "ticks": 136162,
          "time": 177.29427083333334,
          "velocity": 0.9448818897637795
        },
        {
          "duration": 0.16666666666668561,
          "durationTicks": 128,
          "midi": 31,
          "name": "G1",
          "ticks": 136262,
          "time": 177.42447916666666,
          "velocity": 0.984251968503937
        },
        {
          "duration": 0.22916666666668561,
          "durationTicks": 176,
          "midi": 31,
          "name": "G1",
          "ticks": 136466,
          "time": 177.69010416666666,
          "velocity": 0.937007874015748
        },
        {
          "duration": 0.09895833333334281,
          "durationTicks": 76,
          "midi": 33,
          "name": "A1",
          "ticks": 136664,
          "time": 177.94791666666666,
          "velocity": 0.968503937007874
        },
        {
          "duration": 0.13802083333331439,
          "durationTicks": 106,
          "midi": 33,
          "name": "A1",
          "ticks": 137062,
          "time": 178.46614583333334,
          "velocity": 0.9763779527559056
        },
        {
          "duration": 0.140625,
          "durationTicks": 108,
          "midi": 33,
          "name": "A1",
          "ticks": 137264,
          "time": 178.72916666666666,
          "velocity": 0.952755905511811
        },
        {
          "duration": 0.046875,
          "durationTicks": 36,
          "midi": 33,
          "name": "A1",
          "ticks": 137458,
          "time": 178.98177083333334,
          "velocity": 0.8976377952755905
        },
        {
          "duration": 0.0625,
          "durationTicks": 48,
          "midi": 33,
          "name": "A1",
          "ticks": 137556,
          "time": 179.109375,
          "velocity": 0.937007874015748
        },
        {
          "duration": 0.1770833333333428,
          "durationTicks": 136,
          "midi": 31,
          "name": "G1",
          "ticks": 137664,
          "time": 179.25,
          "velocity": 0.937007874015748
        },
        {
          "duration": 0.1458333333333428,
          "durationTicks": 112,
          "midi": 31,
          "name": "G1",
          "ticks": 137852,
          "time": 179.49479166666666,
          "velocity": 0.937007874015748
        },
        {
          "duration": 0.0390625,
          "durationTicks": 30,
          "midi": 31,
          "name": "G1",
          "ticks": 138054,
          "time": 179.7578125,
          "velocity": 0.4330708661417323
        },
        {
          "duration": 0.06510416666665719,
          "durationTicks": 50,
          "midi": 31,
          "name": "G1",
          "ticks": 138252,
          "time": 180.015625,
          "velocity": 0.9212598425196851
        },
        {
          "duration": 0.09375,
          "durationTicks": 72,
          "midi": 31,
          "name": "G1",
          "ticks": 138350,
          "time": 180.14322916666666,
          "velocity": 0.8661417322834646
        },
        {
          "duration": 0.2408854166666572,
          "durationTicks": 185,
          "midi": 29,
          "name": "F1",
          "ticks": 138462,
          "time": 180.2890625,
          "velocity": 0.9763779527559056
        },
        {
          "duration": 0.23958333333331439,
          "durationTicks": 184,
          "midi": 29,
          "name": "F1",
          "ticks": 138646,
          "time": 180.52864583333334,
          "velocity": 0.8818897637795275
        },
        {
          "duration": 0.07291666666668561,
          "durationTicks": 56,
          "midi": 29,
          "name": "F1",
          "ticks": 139034,
          "time": 181.03385416666666,
          "velocity": 0.9133858267716536
        },
        {
          "duration": 0.11458333333331439,
          "durationTicks": 88,
          "midi": 29,
          "name": "F1",
          "ticks": 139132,
          "time": 181.16145833333334,
          "velocity": 0.8976377952755905
        },
        {
          "duration": 0.2890625,
          "durationTicks": 222,
          "midi": 31,
          "name": "G1",
          "ticks": 139234,
          "time": 181.29427083333334,
          "velocity": 0.984251968503937
        },
        {
          "duration": 0.28125,
          "durationTicks": 216,
          "midi": 28,
          "name": "E1",
          "ticks": 139436,
          "time": 181.55729166666666,
          "velocity": 0.968503937007874
        },
        {
          "duration": 0.2786458333333428,
          "durationTicks": 214,
          "midi": 31,
          "name": "G1",
          "ticks": 139640,
          "time": 181.82291666666666,
          "velocity": 0.9763779527559056
        },
        {
          "duration": 0.1380208333333428,
          "durationTicks": 106,
          "midi": 33,
          "name": "A1",
          "ticks": 139844,
          "time": 182.08854166666666,
          "velocity": 0.952755905511811
        },
        {
          "duration": 0.0625,
          "durationTicks": 48,
          "midi": 33,
          "name": "A1",
          "ticks": 140234,
          "time": 182.59635416666666,
          "velocity": 0.952755905511811
        },
        {
          "duration": 0.052083333333314386,
          "durationTicks": 40,
          "midi": 33,
          "name": "A1",
          "ticks": 140332,
          "time": 182.72395833333334,
          "velocity": 0.9133858267716536
        },
        {
          "duration": 0.1354166666666572,
          "durationTicks": 104,
          "midi": 33,
          "name": "A1",
          "ticks": 140436,
          "time": 182.859375,
          "velocity": 0.9133858267716536
        },
        {
          "duration": 0.057291666666685614,
          "durationTicks": 44,
          "midi": 33,
          "name": "A1",
          "ticks": 140624,
          "time": 183.10416666666666,
          "velocity": 0.9212598425196851
        },
        {
          "duration": 0.08072916666668561,
          "durationTicks": 62,
          "midi": 33,
          "name": "A1",
          "ticks": 140726,
          "time": 183.23697916666666,
          "velocity": 0.905511811023622
        },
        {
          "duration": 0.2591145833333428,
          "durationTicks": 199,
          "midi": 31,
          "name": "G1",
          "ticks": 140828,
          "time": 183.36979166666666,
          "velocity": 0.952755905511811
        },
        {
          "duration": 0.2578125,
          "durationTicks": 198,
          "midi": 31,
          "name": "G1",
          "ticks": 141026,
          "time": 183.62760416666666,
          "velocity": 0.9291338582677166
        },
        {
          "duration": 0.05729166666665719,
          "durationTicks": 44,
          "midi": 31,
          "name": "G1",
          "ticks": 141220,
          "time": 183.88020833333334,
          "velocity": 0.5433070866141733
        },
        {
          "duration": 0.0625,
          "durationTicks": 48,
          "midi": 31,
          "name": "G1",
          "ticks": 141418,
          "time": 184.13802083333334,
          "velocity": 0.9448818897637795
        },
        {
          "duration": 0.078125,
          "durationTicks": 60,
          "midi": 31,
          "name": "G1",
          "ticks": 141516,
          "time": 184.265625,
          "velocity": 0.9291338582677166
        },
        {
          "duration": 0.2682291666666572,
          "durationTicks": 206,
          "midi": 29,
          "name": "F1",
          "ticks": 141610,
          "time": 184.38802083333334,
          "velocity": 0.9448818897637795
        },
        {
          "duration": 0.140625,
          "durationTicks": 108,
          "midi": 29,
          "name": "F1",
          "ticks": 141818,
          "time": 184.65885416666666,
          "velocity": 0.937007874015748
        },
        {
          "duration": 0.078125,
          "durationTicks": 60,
          "midi": 29,
          "name": "F1",
          "ticks": 142202,
          "time": 185.15885416666666,
          "velocity": 0.9212598425196851
        },
        {
          "duration": 0.08072916666665719,
          "durationTicks": 62,
          "midi": 29,
          "name": "F1",
          "ticks": 142312,
          "time": 185.30208333333334,
          "velocity": 0.905511811023622
        },
        {
          "duration": 0.109375,
          "durationTicks": 84,
          "midi": 28,
          "name": "E1",
          "ticks": 142418,
          "time": 185.44010416666666,
          "velocity": 0.984251968503937
        },
        {
          "duration": 0.2786458333333428,
          "durationTicks": 214,
          "midi": 28,
          "name": "E1",
          "ticks": 142602,
          "time": 185.6796875,
          "velocity": 0.937007874015748
        },
        {
          "duration": 0.28125,
          "durationTicks": 216,
          "midi": 31,
          "name": "G1",
          "ticks": 142812,
          "time": 185.953125,
          "velocity": 0.9212598425196851
        },
        {
          "duration": 0.125,
          "durationTicks": 96,
          "midi": 33,
          "name": "A1",
          "ticks": 143022,
          "time": 186.2265625,
          "velocity": 0.952755905511811
        },
        {
          "duration": 0.11197916666668561,
          "durationTicks": 86,
          "midi": 33,
          "name": "A1",
          "ticks": 143402,
          "time": 186.72135416666666,
          "velocity": 0.9291338582677166
        },
        {
          "duration": 0.1380208333333428,
          "durationTicks": 106,
          "midi": 33,
          "name": "A1",
          "ticks": 143604,
          "time": 186.984375,
          "velocity": 0.9606299212598425
        },
        {
          "duration": 0.06510416666665719,
          "durationTicks": 50,
          "midi": 33,
          "name": "A1",
          "ticks": 143794,
          "time": 187.23177083333334,
          "velocity": 0.9448818897637795
        },
        {
          "duration": 0.08333333333331439,
          "durationTicks": 64,
          "midi": 33,
          "name": "A1",
          "ticks": 143896,
          "time": 187.36458333333334,
          "velocity": 0.8661417322834646
        },
        {
          "duration": 0.2447916666666572,
          "durationTicks": 188,
          "midi": 31,
          "name": "G1",
          "ticks": 144006,
          "time": 187.5078125,
          "velocity": 0.9606299212598425
        },
        {
          "duration": 0.1432291666666572,
          "durationTicks": 110,
          "midi": 31,
          "name": "G1",
          "ticks": 144196,
          "time": 187.75520833333334,
          "velocity": 0.9448818897637795
        },
        {
          "duration": 0.05208333333334281,
          "durationTicks": 40,
          "midi": 31,
          "name": "G1",
          "ticks": 144396,
          "time": 188.015625,
          "velocity": 0.4645669291338583
        },
        {
          "duration": 0.06770833333334281,
          "durationTicks": 52,
          "midi": 31,
          "name": "G1",
          "ticks": 144588,
          "time": 188.265625,
          "velocity": 0.952755905511811
        },
        {
          "duration": 0.09375,
          "durationTicks": 72,
          "midi": 31,
          "name": "G1",
          "ticks": 144688,
          "time": 188.39583333333334,
          "velocity": 0.8661417322834646
        },
        {
          "duration": 0.2630208333333428,
          "durationTicks": 202,
          "midi": 29,
          "name": "F1",
          "ticks": 144792,
          "time": 188.53125,
          "velocity": 0.9606299212598425
        },
        {
          "duration": 0.1354166666666572,
          "durationTicks": 104,
          "midi": 29,
          "name": "F1",
          "ticks": 144996,
          "time": 188.796875,
          "velocity": 0.937007874015748
        },
        {
          "duration": 0.078125,
          "durationTicks": 60,
          "midi": 29,
          "name": "F1",
          "ticks": 145374,
          "time": 189.2890625,
          "velocity": 0.9133858267716536
        },
        {
          "duration": 0.11197916666668561,
          "durationTicks": 86,
          "midi": 29,
          "name": "F1",
          "ticks": 145478,
          "time": 189.42447916666666,
          "velocity": 0.905511811023622
        },
        {
          "duration": 0.2786458333333144,
          "durationTicks": 214,
          "midi": 31,
          "name": "G1",
          "ticks": 145582,
          "time": 189.55989583333334,
          "velocity": 0.9763779527559056
        },
        {
          "duration": 0.2682291666666572,
          "durationTicks": 206,
          "midi": 28,
          "name": "E1",
          "ticks": 145774,
          "time": 189.80989583333334,
          "velocity": 0.9763779527559056
        },
        {
          "duration": 0.2838541666666856,
          "durationTicks": 218,
          "midi": 31,
          "name": "G1",
          "ticks": 145976,
          "time": 190.07291666666666,
          "velocity": 0.9763779527559056
        },
        {
          "duration": 0.1614583333333428,
          "durationTicks": 124,
          "midi": 33,
          "name": "A1",
          "ticks": 146166,
          "time": 190.3203125,
          "velocity": 0.952755905511811
        },
        {
          "duration": 0.11979166666665719,
          "durationTicks": 92,
          "midi": 33,
          "name": "A1",
          "ticks": 146572,
          "time": 190.84895833333334,
          "velocity": 0.952755905511811
        },
        {
          "duration": 0.140625,
          "durationTicks": 108,
          "midi": 33,
          "name": "A1",
          "ticks": 146770,
          "time": 191.10677083333334,
          "velocity": 0.9606299212598425
        },
        {
          "duration": 0.07291666666665719,
          "durationTicks": 56,
          "midi": 33,
          "name": "A1",
          "ticks": 146964,
          "time": 191.359375,
          "velocity": 0.9448818897637795
        },
        {
          "duration": 0.08072916666668561,
          "durationTicks": 62,
          "midi": 33,
          "name": "A1",
          "ticks": 147068,
          "time": 191.49479166666666,
          "velocity": 0.8976377952755905
        },
        {
          "duration": 0.2552083333333428,
          "durationTicks": 196,
          "midi": 31,
          "name": "G1",
          "ticks": 147168,
          "time": 191.625,
          "velocity": 0.937007874015748
        },
        {
          "duration": 0.13541666666668561,
          "durationTicks": 104,
          "midi": 31,
          "name": "G1",
          "ticks": 147368,
          "time": 191.88541666666666,
          "velocity": 0.9763779527559056
        },
        {
          "duration": 0.026041666666685614,
          "durationTicks": 20,
          "midi": 31,
          "name": "G1",
          "ticks": 147566,
          "time": 192.14322916666666,
          "velocity": 0.23622047244094488
        },
        {
          "duration": 0.07291666666668561,
          "durationTicks": 56,
          "midi": 31,
          "name": "G1",
          "ticks": 147758,
          "time": 192.39322916666666,
          "velocity": 0.9448818897637795
        },
        {
          "duration": 0.1380208333333428,
          "durationTicks": 106,
          "midi": 31,
          "name": "G1",
          "ticks": 147860,
          "time": 192.52604166666666,
          "velocity": 0.8346456692913385
        },
        {
          "duration": 0.2513020833333428,
          "durationTicks": 193,
          "midi": 29,
          "name": "F1",
          "ticks": 147966,
          "time": 192.6640625,
          "velocity": 0.9606299212598425
        },
        {
          "duration": 0.25,
          "durationTicks": 192,
          "midi": 29,
          "name": "F1",
          "ticks": 148158,
          "time": 192.9140625,
          "velocity": 0.968503937007874
        },
        {
          "duration": 0.0703125,
          "durationTicks": 54,
          "midi": 29,
          "name": "F1",
          "ticks": 148548,
          "time": 193.421875,
          "velocity": 0.8976377952755905
        },
        {
          "duration": 0.09635416666668561,
          "durationTicks": 74,
          "midi": 29,
          "name": "F1",
          "ticks": 148646,
          "time": 193.54947916666666,
          "velocity": 0.8346456692913385
        },
        {
          "duration": 0.2447916666666572,
          "durationTicks": 188,
          "midi": 28,
          "name": "E1",
          "ticks": 148752,
          "time": 193.6875,
          "velocity": 0.9448818897637795
        },
        {
          "duration": 0.1640625,
          "durationTicks": 126,
          "midi": 28,
          "name": "E1",
          "ticks": 148954,
          "time": 193.95052083333334,
          "velocity": 0.9448818897637795
        },
        {
          "duration": 0.2786458333333428,
          "durationTicks": 214,
          "midi": 31,
          "name": "G1",
          "ticks": 149150,
          "time": 194.20572916666666,
          "velocity": 0.8661417322834646
        },
        {
          "duration": 0.1380208333333428,
          "durationTicks": 106,
          "midi": 33,
          "name": "A1",
          "ticks": 149352,
          "time": 194.46875,
          "velocity": 0.9763779527559056
        },
        {
          "duration": 0.140625,
          "durationTicks": 108,
          "midi": 33,
          "name": "A1",
          "ticks": 149740,
          "time": 194.97395833333334,
          "velocity": 0.9763779527559056
        },
        {
          "duration": 0.14322916666668561,
          "durationTicks": 110,
          "midi": 33,
          "name": "A1",
          "ticks": 149942,
          "time": 195.23697916666666,
          "velocity": 0.952755905511811
        },
        {
          "duration": 0.046875,
          "durationTicks": 36,
          "midi": 33,
          "name": "A1",
          "ticks": 150140,
          "time": 195.49479166666666,
          "velocity": 0.8976377952755905
        },
        {
          "duration": 0.0625,
          "durationTicks": 48,
          "midi": 33,
          "name": "A1",
          "ticks": 150238,
          "time": 195.62239583333334,
          "velocity": 0.937007874015748
        },
        {
          "duration": 0.22916666666668561,
          "durationTicks": 176,
          "midi": 31,
          "name": "G1",
          "ticks": 150350,
          "time": 195.76822916666666,
          "velocity": 0.937007874015748
        },
        {
          "duration": 0.1432291666666572,
          "durationTicks": 110,
          "midi": 31,
          "name": "G1",
          "ticks": 150534,
          "time": 196.0078125,
          "velocity": 0.937007874015748
        },
        {
          "duration": 0.036458333333314386,
          "durationTicks": 28,
          "midi": 31,
          "name": "G1",
          "ticks": 150736,
          "time": 196.27083333333334,
          "velocity": 0.4330708661417323
        },
        {
          "duration": 0.06770833333334281,
          "durationTicks": 52,
          "midi": 31,
          "name": "G1",
          "ticks": 150932,
          "time": 196.52604166666666,
          "velocity": 0.9212598425196851
        },
        {
          "duration": 0.09635416666668561,
          "durationTicks": 74,
          "midi": 31,
          "name": "G1",
          "ticks": 151028,
          "time": 196.65104166666666,
          "velocity": 0.8661417322834646
        },
        {
          "duration": 0.2395833333333428,
          "durationTicks": 184,
          "midi": 29,
          "name": "F1",
          "ticks": 151142,
          "time": 196.79947916666666,
          "velocity": 0.9763779527559056
        },
        {
          "duration": 0.140625,
          "durationTicks": 108,
          "midi": 29,
          "name": "F1",
          "ticks": 151330,
          "time": 197.04427083333334,
          "velocity": 0.8818897637795275
        },
        {
          "duration": 0.07291666666665719,
          "durationTicks": 56,
          "midi": 29,
          "name": "F1",
          "ticks": 151714,
          "time": 197.54427083333334,
          "velocity": 0.9133858267716536
        },
        {
          "duration": 0.11197916666668561,
          "durationTicks": 86,
          "midi": 29,
          "name": "F1",
          "ticks": 151814,
          "time": 197.67447916666666,
          "velocity": 0.8976377952755905
        },
        {
          "duration": 0.2864583333333428,
          "durationTicks": 220,
          "midi": 31,
          "name": "G1",
          "ticks": 151916,
          "time": 197.80729166666666,
          "velocity": 0.984251968503937
        },
        {
          "duration": 0.2786458333333428,
          "durationTicks": 214,
          "midi": 28,
          "name": "E1",
          "ticks": 152118,
          "time": 198.0703125,
          "velocity": 0.968503937007874
        },
        {
          "duration": 0.2864583333333428,
          "durationTicks": 220,
          "midi": 31,
          "name": "G1",
          "ticks": 152318,
          "time": 198.33072916666666,
          "velocity": 0.9763779527559056
        },
        {
          "duration": 0.1328125,
          "durationTicks": 102,
          "midi": 33,
          "name": "A1",
          "ticks": 152528,
          "time": 198.60416666666666,
          "velocity": 0.952755905511811
        },
        {
          "duration": 0.0625,
          "durationTicks": 48,
          "midi": 33,
          "name": "A1",
          "ticks": 152914,
          "time": 199.10677083333334,
          "velocity": 0.952755905511811
        },
        {
          "duration": 0.05989583333334281,
          "durationTicks": 46,
          "midi": 33,
          "name": "A1",
          "ticks": 153006,
          "time": 199.2265625,
          "velocity": 0.9133858267716536
        },
        {
          "duration": 0.13541666666668561,
          "durationTicks": 104,
          "midi": 33,
          "name": "A1",
          "ticks": 153116,
          "time": 199.36979166666666,
          "velocity": 0.9133858267716536
        },
        {
          "duration": 0.05729166666665719,
          "durationTicks": 44,
          "midi": 33,
          "name": "A1",
          "ticks": 153304,
          "time": 199.61458333333334,
          "velocity": 0.9212598425196851
        },
        {
          "duration": 0.08072916666665719,
          "durationTicks": 62,
          "midi": 33,
          "name": "A1",
          "ticks": 153406,
          "time": 199.74739583333334,
          "velocity": 0.905511811023622
        },
        {
          "duration": 0.2591145833333144,
          "durationTicks": 199,
          "midi": 31,
          "name": "G1",
          "ticks": 153508,
          "time": 199.88020833333334,
          "velocity": 0.952755905511811
        },
        {
          "duration": 0.2578125,
          "durationTicks": 198,
          "midi": 31,
          "name": "G1",
          "ticks": 153706,
          "time": 200.13802083333334,
          "velocity": 0.9291338582677166
        },
        {
          "duration": 0.057291666666685614,
          "durationTicks": 44,
          "midi": 31,
          "name": "G1",
          "ticks": 153902,
          "time": 200.39322916666666,
          "velocity": 0.5433070866141733
        },
        {
          "duration": 0.06510416666665719,
          "durationTicks": 50,
          "midi": 31,
          "name": "G1",
          "ticks": 154098,
          "time": 200.6484375,
          "velocity": 0.9448818897637795
        },
        {
          "duration": 0.078125,
          "durationTicks": 60,
          "midi": 31,
          "name": "G1",
          "ticks": 154200,
          "time": 200.78125,
          "velocity": 0.9291338582677166
        },
        {
          "duration": 0.26953125,
          "durationTicks": 207,
          "midi": 29,
          "name": "F1",
          "ticks": 154294,
          "time": 200.90364583333334,
          "velocity": 0.9448818897637795
        },
        {
          "duration": 0.2682291666666572,
          "durationTicks": 206,
          "midi": 29,
          "name": "F1",
          "ticks": 154500,
          "time": 201.171875,
          "velocity": 0.937007874015748
        },
        {
          "duration": 0.07291666666668561,
          "durationTicks": 56,
          "midi": 29,
          "name": "F1",
          "ticks": 154886,
          "time": 201.67447916666666,
          "velocity": 0.9212598425196851
        },
        {
          "duration": 0.078125,
          "durationTicks": 60,
          "midi": 29,
          "name": "F1",
          "ticks": 154994,
          "time": 201.81510416666666,
          "velocity": 0.905511811023622
        },
        {
          "duration": 0.11458333333334281,
          "durationTicks": 88,
          "midi": 28,
          "name": "E1",
          "ticks": 155102,
          "time": 201.95572916666666,
          "velocity": 0.984251968503937
        },
        {
          "duration": 0.2708333333333144,
          "durationTicks": 208,
          "midi": 28,
          "name": "E1",
          "ticks": 155290,
          "time": 202.20052083333334,
          "velocity": 0.937007874015748
        },
        {
          "duration": 0.28125,
          "durationTicks": 216,
          "midi": 31,
          "name": "G1",
          "ticks": 155496,
          "time": 202.46875,
          "velocity": 0.9212598425196851
        },
        {
          "duration": 0.1302083333333428,
          "durationTicks": 100,
          "midi": 33,
          "name": "A1",
          "ticks": 155702,
          "time": 202.73697916666666,
          "velocity": 0.952755905511811
        },
        {
          "duration": 0.1171875,
          "durationTicks": 90,
          "midi": 33,
          "name": "A1",
          "ticks": 156082,
          "time": 203.23177083333334,
          "velocity": 0.9291338582677166
        },
        {
          "duration": 0.1354166666666572,
          "durationTicks": 104,
          "midi": 33,
          "name": "A1",
          "ticks": 156288,
          "time": 203.5,
          "velocity": 0.9606299212598425
        },
        {
          "duration": 0.0625,
          "durationTicks": 48,
          "midi": 33,
          "name": "A1",
          "ticks": 156480,
          "time": 203.75,
          "velocity": 0.9448818897637795
        },
        {
          "duration": 0.08333333333331439,
          "durationTicks": 64,
          "midi": 33,
          "name": "A1",
          "ticks": 156580,
          "time": 203.88020833333334,
          "velocity": 0.8661417322834646
        },
        {
          "duration": 0.23958333333331439,
          "durationTicks": 184,
          "midi": 31,
          "name": "G1",
          "ticks": 156688,
          "time": 204.02083333333334,
          "velocity": 0.9606299212598425
        },
        {
          "duration": 0.14583333333331439,
          "durationTicks": 112,
          "midi": 31,
          "name": "G1",
          "ticks": 156874,
          "time": 204.26302083333334,
          "velocity": 0.9448818897637795
        },
        {
          "duration": 0.0546875,
          "durationTicks": 42,
          "midi": 31,
          "name": "G1",
          "ticks": 157076,
          "time": 204.52604166666666,
          "velocity": 0.4645669291338583
        },
        {
          "duration": 0.07291666666665719,
          "durationTicks": 56,
          "midi": 31,
          "name": "G1",
          "ticks": 157266,
          "time": 204.7734375,
          "velocity": 0.952755905511811
        },
        {
          "duration": 0.09375,
          "durationTicks": 72,
          "midi": 31,
          "name": "G1",
          "ticks": 157370,
          "time": 204.90885416666666,
          "velocity": 0.8661417322834646
        },
        {
          "duration": 0.2591145833333428,
          "durationTicks": 199,
          "midi": 29,
          "name": "F1",
          "ticks": 157470,
          "time": 205.0390625,
          "velocity": 0.9606299212598425
        },
        {
          "duration": 0.2578125,
          "durationTicks": 198,
          "midi": 29,
          "name": "F1",
          "ticks": 157668,
          "time": 205.296875,
          "velocity": 0.937007874015748
        },
        {
          "duration": 0.07552083333331439,
          "durationTicks": 58,
          "midi": 29,
          "name": "F1",
          "ticks": 158056,
          "time": 205.80208333333334,
          "velocity": 0.9133858267716536
        },
        {
          "duration": 0.10677083333331439,
          "durationTicks": 82,
          "midi": 29,
          "name": "F1",
          "ticks": 158164,
          "time": 205.94270833333334,
          "velocity": 0.905511811023622
        },
        {
          "duration": 0.2786458333333144,
          "durationTicks": 214,
          "midi": 31,
          "name": "G1",
          "ticks": 158266,
          "time": 206.07552083333334,
          "velocity": 0.9763779527559056
        },
        {
          "duration": 0.2630208333333428,
          "durationTicks": 202,
          "midi": 28,
          "name": "E1",
          "ticks": 158462,
          "time": 206.33072916666666,
          "velocity": 0.9763779527559056
        },
        {
          "duration": 0.28125,
          "durationTicks": 216,
          "midi": 31,
          "name": "G1",
          "ticks": 158660,
          "time": 206.58854166666666,
          "velocity": 0.9763779527559056
        },
        {
          "duration": 0.16145833333331439,
          "durationTicks": 124,
          "midi": 33,
          "name": "A1",
          "ticks": 158848,
          "time": 206.83333333333334,
          "velocity": 0.952755905511811
        },
        {
          "duration": 0.11979166666668561,
          "durationTicks": 92,
          "midi": 33,
          "name": "A1",
          "ticks": 159254,
          "time": 207.36197916666666,
          "velocity": 0.952755905511811
        },
        {
          "duration": 0.140625,
          "durationTicks": 108,
          "midi": 33,
          "name": "A1",
          "ticks": 159452,
          "time": 207.61979166666666,
          "velocity": 0.9606299212598425
        },
        {
          "duration": 0.07291666666665719,
          "durationTicks": 56,
          "midi": 33,
          "name": "A1",
          "ticks": 159648,
          "time": 207.875,
          "velocity": 0.9448818897637795
        },
        {
          "duration": 0.08072916666668561,
          "durationTicks": 62,
          "midi": 33,
          "name": "A1",
          "ticks": 159752,
          "time": 208.01041666666666,
          "velocity": 0.8976377952755905
        },
        {
          "duration": 0.2526041666666856,
          "durationTicks": 194,
          "midi": 31,
          "name": "G1",
          "ticks": 159854,
          "time": 208.14322916666666,
          "velocity": 0.937007874015748
        },
        {
          "duration": 0.1328125,
          "durationTicks": 102,
          "midi": 31,
          "name": "G1",
          "ticks": 160054,
          "time": 208.40364583333334,
          "velocity": 0.9763779527559056
        },
        {
          "duration": 0.026041666666657193,
          "durationTicks": 20,
          "midi": 31,
          "name": "G1",
          "ticks": 160248,
          "time": 208.65625,
          "velocity": 0.23622047244094488
        },
        {
          "duration": 0.07291666666665719,
          "durationTicks": 56,
          "midi": 31,
          "name": "G1",
          "ticks": 160440,
          "time": 208.90625,
          "velocity": 0.9448818897637795
        },
        {
          "duration": 0.13541666666668561,
          "durationTicks": 104,
          "midi": 31,
          "name": "G1",
          "ticks": 160544,
          "time": 209.04166666666666,
          "velocity": 0.8346456692913385
        },
        {
          "duration": 0.25390625,
          "durationTicks": 195,
          "midi": 29,
          "name": "F1",
          "ticks": 160650,
          "time": 209.1796875,
          "velocity": 0.9606299212598425
        },
        {
          "duration": 0.2526041666666856,
          "durationTicks": 194,
          "midi": 29,
          "name": "F1",
          "ticks": 160844,
          "time": 209.43229166666666,
          "velocity": 0.968503937007874
        },
        {
          "duration": 0.0625,
          "durationTicks": 48,
          "midi": 29,
          "name": "F1",
          "ticks": 161236,
          "time": 209.94270833333334,
          "velocity": 0.8976377952755905
        },
        {
          "duration": 0.0859375,
          "durationTicks": 66,
          "midi": 29,
          "name": "F1",
          "ticks": 161336,
          "time": 210.07291666666666,
          "velocity": 0.8346456692913385
        },
        {
          "duration": 0.140625,
          "durationTicks": 108,
          "midi": 28,
          "name": "E1",
          "ticks": 161432,
          "time": 210.19791666666666,
          "velocity": 0.9448818897637795
        },
        {
          "duration": 0.1328125,
          "durationTicks": 102,
          "midi": 28,
          "name": "E1",
          "ticks": 161636,
          "time": 210.46354166666666,
          "velocity": 0.9448818897637795
        },
        {
          "duration": 0.2786458333333144,
          "durationTicks": 214,
          "midi": 31,
          "name": "G1",
          "ticks": 161830,
          "time": 210.71614583333334,
          "velocity": 0.8661417322834646
        },
        {
          "duration": 0.21875,
          "durationTicks": 168,
          "midi": 33,
          "name": "A1",
          "ticks": 162034,
          "time": 210.98177083333334,
          "velocity": 0.9763779527559056
        }
      ]
    },
    {
      "channel": 0,
      "controlChanges": {
        "7": [
          {
            "number": 7,
            "ticks": 1536,
            "time": 2,
            "value": 1
          }
        ],
        "10": [
          {
            "number": 10,
            "ticks": 1536,
            "time": 2,
            "value": 0.8740157480314961
          }
        ]
      },
      "pitchBends": [],
      "instrument": {
        "family": "brass",
        "number": 62,
        "name": "synthbrass 1"
      },
      "name": "SYNBRASS 2",
      "notes": [],
      "endOfTrackTicks": 162480
    },
    {
      "channel": 2,
      "controlChanges": {},
      "pitchBends": [
        {
          "ticks": 162288,
          "time": 211.3125,
          "value": 0
        }
      ],
      "instrument": {
        "family": "brass",
        "number": 63,
        "name": "synthbrass 2"
      },
      "name": "",
      "notes": [
        {
          "duration": 0.026041666666666963,
          "durationTicks": 20,
          "midi": 33,
          "name": "A1",
          "ticks": 3594,
          "time": 4.6796875,
          "velocity": 1
        },
        {
          "duration": 0.1458333333333357,
          "durationTicks": 112,
          "midi": 62,
          "name": "D4",
          "ticks": 17254,
          "time": 22.466145833333332,
          "velocity": 0.5196850393700787
        },
        {
          "duration": 0.125,
          "durationTicks": 96,
          "midi": 59,
          "name": "B3",
          "ticks": 17254,
          "time": 22.466145833333332,
          "velocity": 0.4881889763779528
        },
        {
          "duration": 0.10416666666666785,
          "durationTicks": 80,
          "midi": 62,
          "name": "D4",
          "ticks": 17446,
          "time": 22.716145833333332,
          "velocity": 0.4409448818897638
        },
        {
          "duration": 0.08333333333333215,
          "durationTicks": 64,
          "midi": 59,
          "name": "B3",
          "ticks": 17450,
          "time": 22.721354166666668,
          "velocity": 0.4409448818897638
        },
        {
          "duration": 0.12239583333333215,
          "durationTicks": 94,
          "midi": 64,
          "name": "E4",
          "ticks": 18042,
          "time": 23.4921875,
          "velocity": 0.4881889763779528
        },
        {
          "duration": 0.1119791666666643,
          "durationTicks": 86,
          "midi": 60,
          "name": "C4",
          "ticks": 18044,
          "time": 23.494791666666668,
          "velocity": 0.4251968503937008
        },
        {
          "duration": 0.1119791666666643,
          "durationTicks": 86,
          "midi": 60,
          "name": "C4",
          "ticks": 18242,
          "time": 23.752604166666668,
          "velocity": 0.4566929133858268
        },
        {
          "duration": 0.09635416666666785,
          "durationTicks": 74,
          "midi": 64,
          "name": "E4",
          "ticks": 18244,
          "time": 23.755208333333332,
          "velocity": 0.4251968503937008
        },
        {
          "duration": 0.11458333333333215,
          "durationTicks": 88,
          "midi": 62,
          "name": "D4",
          "ticks": 18834,
          "time": 24.5234375,
          "velocity": 0.4409448818897638
        },
        {
          "duration": 0.1015625,
          "durationTicks": 78,
          "midi": 59,
          "name": "B3",
          "ticks": 18836,
          "time": 24.526041666666668,
          "velocity": 0.3937007874015748
        },
        {
          "duration": 0.11979166666666785,
          "durationTicks": 92,
          "midi": 62,
          "name": "D4",
          "ticks": 19032,
          "time": 24.78125,
          "velocity": 0.4566929133858268
        },
        {
          "duration": 0.1171875,
          "durationTicks": 90,
          "midi": 59,
          "name": "B3",
          "ticks": 19032,
          "time": 24.78125,
          "velocity": 0.47244094488188976
        },
        {
          "duration": 0.125,
          "durationTicks": 96,
          "midi": 60,
          "name": "C4",
          "ticks": 19426,
          "time": 25.294270833333332,
          "velocity": 0.4881889763779528
        },
        {
          "duration": 0.125,
          "durationTicks": 96,
          "midi": 57,
          "name": "A3",
          "ticks": 19426,
          "time": 25.294270833333332,
          "velocity": 0.4251968503937008
        },
        {
          "duration": 0.1328125,
          "durationTicks": 102,
          "midi": 59,
          "name": "B3",
          "ticks": 20416,
          "time": 26.583333333333332,
          "velocity": 0.47244094488188976
        },
        {
          "duration": 0.13541666666666785,
          "durationTicks": 104,
          "midi": 62,
          "name": "D4",
          "ticks": 20416,
          "time": 26.583333333333332,
          "velocity": 0.5039370078740157
        },
        {
          "duration": 0.1015625,
          "durationTicks": 78,
          "midi": 59,
          "name": "B3",
          "ticks": 20616,
          "time": 26.84375,
          "velocity": 0.47244094488188976
        },
        {
          "duration": 0.0963541666666643,
          "durationTicks": 74,
          "midi": 62,
          "name": "D4",
          "ticks": 20618,
          "time": 26.846354166666668,
          "velocity": 0.47244094488188976
        },
        {
          "duration": 0.1328125,
          "durationTicks": 102,
          "midi": 60,
          "name": "C4",
          "ticks": 21206,
          "time": 27.611979166666668,
          "velocity": 0.4881889763779528
        },
        {
          "duration": 0.11979166666666785,
          "durationTicks": 92,
          "midi": 64,
          "name": "E4",
          "ticks": 21208,
          "time": 27.614583333333332,
          "velocity": 0.5196850393700787
        },
        {
          "duration": 0.1015625,
          "durationTicks": 78,
          "midi": 60,
          "name": "C4",
          "ticks": 21408,
          "time": 27.875,
          "velocity": 0.4251968503937008
        },
        {
          "duration": 0.09635416666666785,
          "durationTicks": 74,
          "midi": 64,
          "name": "E4",
          "ticks": 21408,
          "time": 27.875,
          "velocity": 0.4409448818897638
        },
        {
          "duration": 0.1302083333333357,
          "durationTicks": 100,
          "midi": 62,
          "name": "D4",
          "ticks": 22000,
          "time": 28.645833333333332,
          "velocity": 0.47244094488188976
        },
        {
          "duration": 0.11197916666666785,
          "durationTicks": 86,
          "midi": 59,
          "name": "B3",
          "ticks": 22002,
          "time": 28.6484375,
          "velocity": 0.4094488188976378
        },
        {
          "duration": 0.12239583333333215,
          "durationTicks": 94,
          "midi": 59,
          "name": "B3",
          "ticks": 22196,
          "time": 28.901041666666668,
          "velocity": 0.4251968503937008
        },
        {
          "duration": 0.12239583333333215,
          "durationTicks": 94,
          "midi": 62,
          "name": "D4",
          "ticks": 22196,
          "time": 28.901041666666668,
          "velocity": 0.4251968503937008
        },
        {
          "duration": 0.09375,
          "durationTicks": 72,
          "midi": 57,
          "name": "A3",
          "ticks": 22592,
          "time": 29.416666666666668,
          "velocity": 0.5511811023622047
        },
        {
          "duration": 0.09375,
          "durationTicks": 72,
          "midi": 60,
          "name": "C4",
          "ticks": 22592,
          "time": 29.416666666666668,
          "velocity": 0.5511811023622047
        },
        {
          "duration": 0.1484375,
          "durationTicks": 114,
          "midi": 62,
          "name": "D4",
          "ticks": 23586,
          "time": 30.7109375,
          "velocity": 0.5196850393700787
        },
        {
          "duration": 0.13020833333333215,
          "durationTicks": 100,
          "midi": 59,
          "name": "B3",
          "ticks": 23586,
          "time": 30.7109375,
          "velocity": 0.4881889763779528
        },
        {
          "duration": 0.10416666666666785,
          "durationTicks": 80,
          "midi": 62,
          "name": "D4",
          "ticks": 23782,
          "time": 30.966145833333332,
          "velocity": 0.4409448818897638
        },
        {
          "duration": 0.08333333333333215,
          "durationTicks": 64,
          "midi": 59,
          "name": "B3",
          "ticks": 23786,
          "time": 30.971354166666668,
          "velocity": 0.4409448818897638
        },
        {
          "duration": 0.1197916666666643,
          "durationTicks": 92,
          "midi": 60,
          "name": "C4",
          "ticks": 24374,
          "time": 31.736979166666668,
          "velocity": 0.4251968503937008
        },
        {
          "duration": 0.1276041666666643,
          "durationTicks": 98,
          "midi": 64,
          "name": "E4",
          "ticks": 24374,
          "time": 31.736979166666668,
          "velocity": 0.4881889763779528
        },
        {
          "duration": 0.1145833333333357,
          "durationTicks": 88,
          "midi": 60,
          "name": "C4",
          "ticks": 24576,
          "time": 32,
          "velocity": 0.4566929133858268
        },
        {
          "duration": 0.0989583333333357,
          "durationTicks": 76,
          "midi": 64,
          "name": "E4",
          "ticks": 24576,
          "time": 32,
          "velocity": 0.4251968503937008
        },
        {
          "duration": 0.1171875,
          "durationTicks": 90,
          "midi": 62,
          "name": "D4",
          "ticks": 25168,
          "time": 32.770833333333336,
          "velocity": 0.4409448818897638
        },
        {
          "duration": 0.1041666666666643,
          "durationTicks": 80,
          "midi": 59,
          "name": "B3",
          "ticks": 25168,
          "time": 32.770833333333336,
          "velocity": 0.3937007874015748
        },
        {
          "duration": 0.1197916666666643,
          "durationTicks": 92,
          "midi": 62,
          "name": "D4",
          "ticks": 25368,
          "time": 33.03125,
          "velocity": 0.4566929133858268
        },
        {
          "duration": 0.1145833333333357,
          "durationTicks": 88,
          "midi": 59,
          "name": "B3",
          "ticks": 25368,
          "time": 33.03125,
          "velocity": 0.47244094488188976
        },
        {
          "duration": 0.1223958333333286,
          "durationTicks": 94,
          "midi": 57,
          "name": "A3",
          "ticks": 25762,
          "time": 33.544270833333336,
          "velocity": 0.4251968503937008
        },
        {
          "duration": 0.1223958333333286,
          "durationTicks": 94,
          "midi": 60,
          "name": "C4",
          "ticks": 25762,
          "time": 33.544270833333336,
          "velocity": 0.4881889763779528
        },
        {
          "duration": 0.1276041666666643,
          "durationTicks": 98,
          "midi": 62,
          "name": "D4",
          "ticks": 26748,
          "time": 34.828125,
          "velocity": 0.3937007874015748
        },
        {
          "duration": 0.1197916666666714,
          "durationTicks": 92,
          "midi": 59,
          "name": "B3",
          "ticks": 26750,
          "time": 34.830729166666664,
          "velocity": 0.4094488188976378
        },
        {
          "duration": 0.0989583333333286,
          "durationTicks": 76,
          "midi": 62,
          "name": "D4",
          "ticks": 26950,
          "time": 35.091145833333336,
          "velocity": 0.47244094488188976
        },
        {
          "duration": 0.1067708333333286,
          "durationTicks": 82,
          "midi": 59,
          "name": "B3",
          "ticks": 26950,
          "time": 35.091145833333336,
          "velocity": 0.47244094488188976
        },
        {
          "duration": 0.1145833333333357,
          "durationTicks": 88,
          "midi": 60,
          "name": "C4",
          "ticks": 27542,
          "time": 35.861979166666664,
          "velocity": 0.5354330708661418
        },
        {
          "duration": 0.109375,
          "durationTicks": 84,
          "midi": 64,
          "name": "E4",
          "ticks": 27544,
          "time": 35.864583333333336,
          "velocity": 0.5354330708661418
        },
        {
          "duration": 0.1015625,
          "durationTicks": 78,
          "midi": 64,
          "name": "E4",
          "ticks": 27744,
          "time": 36.125,
          "velocity": 0.5039370078740157
        },
        {
          "duration": 0.0885416666666643,
          "durationTicks": 68,
          "midi": 60,
          "name": "C4",
          "ticks": 27744,
          "time": 36.125,
          "velocity": 0.4881889763779528
        },
        {
          "duration": 0.1067708333333357,
          "durationTicks": 82,
          "midi": 62,
          "name": "D4",
          "ticks": 28334,
          "time": 36.893229166666664,
          "velocity": 0.5196850393700787
        },
        {
          "duration": 0.0989583333333286,
          "durationTicks": 76,
          "midi": 59,
          "name": "B3",
          "ticks": 28336,
          "time": 36.895833333333336,
          "velocity": 0.4881889763779528
        },
        {
          "duration": 0.0833333333333286,
          "durationTicks": 64,
          "midi": 59,
          "name": "B3",
          "ticks": 28534,
          "time": 37.153645833333336,
          "velocity": 0.5196850393700787
        },
        {
          "duration": 0.0755208333333286,
          "durationTicks": 58,
          "midi": 62,
          "name": "D4",
          "ticks": 28534,
          "time": 37.153645833333336,
          "velocity": 0.4881889763779528
        },
        {
          "duration": 0.0911458333333286,
          "durationTicks": 70,
          "midi": 57,
          "name": "A3",
          "ticks": 28936,
          "time": 37.677083333333336,
          "velocity": 0.5511811023622047
        },
        {
          "duration": 0.0885416666666643,
          "durationTicks": 68,
          "midi": 60,
          "name": "C4",
          "ticks": 28936,
          "time": 37.677083333333336,
          "velocity": 0.5984251968503937
        },
        {
          "duration": 0.1510416666666714,
          "durationTicks": 116,
          "midi": 62,
          "name": "D4",
          "ticks": 67956,
          "time": 88.484375,
          "velocity": 0.5196850393700787
        },
        {
          "duration": 0.1302083333333286,
          "durationTicks": 100,
          "midi": 59,
          "name": "B3",
          "ticks": 67956,
          "time": 88.484375,
          "velocity": 0.4881889763779528
        },
        {
          "duration": 0.1015625,
          "durationTicks": 78,
          "midi": 62,
          "name": "D4",
          "ticks": 68154,
          "time": 88.7421875,
          "velocity": 0.4409448818897638
        },
        {
          "duration": 0.0859375,
          "durationTicks": 66,
          "midi": 59,
          "name": "B3",
          "ticks": 68154,
          "time": 88.7421875,
          "velocity": 0.4409448818897638
        },
        {
          "duration": 0.1223958333333286,
          "durationTicks": 94,
          "midi": 64,
          "name": "E4",
          "ticks": 68748,
          "time": 89.515625,
          "velocity": 0.4881889763779528
        },
        {
          "duration": 0.1145833333333286,
          "durationTicks": 88,
          "midi": 60,
          "name": "C4",
          "ticks": 68748,
          "time": 89.515625,
          "velocity": 0.4251968503937008
        },
        {
          "duration": 0.1145833333333286,
          "durationTicks": 88,
          "midi": 60,
          "name": "C4",
          "ticks": 68948,
          "time": 89.77604166666667,
          "velocity": 0.4566929133858268
        },
        {
          "duration": 0.0989583333333286,
          "durationTicks": 76,
          "midi": 64,
          "name": "E4",
          "ticks": 68948,
          "time": 89.77604166666667,
          "velocity": 0.4251968503937008
        },
        {
          "duration": 0.10677083333334281,
          "durationTicks": 82,
          "midi": 59,
          "name": "B3",
          "ticks": 69538,
          "time": 90.54427083333333,
          "velocity": 0.3937007874015748
        },
        {
          "duration": 0.1171875,
          "durationTicks": 90,
          "midi": 62,
          "name": "D4",
          "ticks": 69538,
          "time": 90.54427083333333,
          "velocity": 0.4409448818897638
        },
        {
          "duration": 0.12239583333334281,
          "durationTicks": 94,
          "midi": 62,
          "name": "D4",
          "ticks": 69736,
          "time": 90.80208333333333,
          "velocity": 0.4566929133858268
        },
        {
          "duration": 0.1197916666666714,
          "durationTicks": 92,
          "midi": 59,
          "name": "B3",
          "ticks": 69736,
          "time": 90.80208333333333,
          "velocity": 0.47244094488188976
        },
        {
          "duration": 0.07552083333334281,
          "durationTicks": 58,
          "midi": 57,
          "name": "A3",
          "ticks": 70132,
          "time": 91.31770833333333,
          "velocity": 0.4251968503937008
        },
        {
          "duration": 0.0729166666666714,
          "durationTicks": 56,
          "midi": 60,
          "name": "C4",
          "ticks": 70132,
          "time": 91.31770833333333,
          "velocity": 0.4881889763779528
        },
        {
          "duration": 0.1328125,
          "durationTicks": 102,
          "midi": 62,
          "name": "D4",
          "ticks": 71122,
          "time": 92.60677083333333,
          "velocity": 0.5039370078740157
        },
        {
          "duration": 0.1276041666666714,
          "durationTicks": 98,
          "midi": 59,
          "name": "B3",
          "ticks": 71124,
          "time": 92.609375,
          "velocity": 0.47244094488188976
        },
        {
          "duration": 0.0989583333333286,
          "durationTicks": 76,
          "midi": 59,
          "name": "B3",
          "ticks": 71322,
          "time": 92.8671875,
          "velocity": 0.47244094488188976
        },
        {
          "duration": 0.0989583333333286,
          "durationTicks": 76,
          "midi": 62,
          "name": "D4",
          "ticks": 71322,
          "time": 92.8671875,
          "velocity": 0.47244094488188976
        },
        {
          "duration": 0.1302083333333428,
          "durationTicks": 100,
          "midi": 60,
          "name": "C4",
          "ticks": 71914,
          "time": 93.63802083333333,
          "velocity": 0.4881889763779528
        },
        {
          "duration": 0.1197916666666714,
          "durationTicks": 92,
          "midi": 64,
          "name": "E4",
          "ticks": 71914,
          "time": 93.63802083333333,
          "velocity": 0.5196850393700787
        },
        {
          "duration": 0.09375,
          "durationTicks": 72,
          "midi": 64,
          "name": "E4",
          "ticks": 72116,
          "time": 93.90104166666667,
          "velocity": 0.4409448818897638
        },
        {
          "duration": 0.09635416666665719,
          "durationTicks": 74,
          "midi": 60,
          "name": "C4",
          "ticks": 72116,
          "time": 93.90104166666667,
          "velocity": 0.4251968503937008
        },
        {
          "duration": 0.1197916666666714,
          "durationTicks": 92,
          "midi": 62,
          "name": "D4",
          "ticks": 72714,
          "time": 94.6796875,
          "velocity": 0.47244094488188976
        },
        {
          "duration": 0.1015625,
          "durationTicks": 78,
          "midi": 59,
          "name": "B3",
          "ticks": 72716,
          "time": 94.68229166666667,
          "velocity": 0.4094488188976378
        },
        {
          "duration": 0.125,
          "durationTicks": 96,
          "midi": 59,
          "name": "B3",
          "ticks": 72900,
          "time": 94.921875,
          "velocity": 0.4251968503937008
        },
        {
          "duration": 0.125,
          "durationTicks": 96,
          "midi": 62,
          "name": "D4",
          "ticks": 72900,
          "time": 94.921875,
          "velocity": 0.4251968503937008
        },
        {
          "duration": 0.0885416666666714,
          "durationTicks": 68,
          "midi": 60,
          "name": "C4",
          "ticks": 73302,
          "time": 95.4453125,
          "velocity": 0.5511811023622047
        },
        {
          "duration": 0.0833333333333286,
          "durationTicks": 64,
          "midi": 57,
          "name": "A3",
          "ticks": 73304,
          "time": 95.44791666666667,
          "velocity": 0.5511811023622047
        },
        {
          "duration": 0.1510416666666572,
          "durationTicks": 116,
          "midi": 62,
          "name": "D4",
          "ticks": 74288,
          "time": 96.72916666666667,
          "velocity": 0.5196850393700787
        },
        {
          "duration": 0.1302083333333428,
          "durationTicks": 100,
          "midi": 59,
          "name": "B3",
          "ticks": 74290,
          "time": 96.73177083333333,
          "velocity": 0.4881889763779528
        },
        {
          "duration": 0.1015625,
          "durationTicks": 78,
          "midi": 62,
          "name": "D4",
          "ticks": 74488,
          "time": 96.98958333333333,
          "velocity": 0.4409448818897638
        },
        {
          "duration": 0.0833333333333286,
          "durationTicks": 64,
          "midi": 59,
          "name": "B3",
          "ticks": 74490,
          "time": 96.9921875,
          "velocity": 0.4409448818897638
        },
        {
          "duration": 0.12239583333334281,
          "durationTicks": 94,
          "midi": 64,
          "name": "E4",
          "ticks": 75082,
          "time": 97.76302083333333,
          "velocity": 0.4881889763779528
        },
        {
          "duration": 0.11458333333334281,
          "durationTicks": 88,
          "midi": 60,
          "name": "C4",
          "ticks": 75082,
          "time": 97.76302083333333,
          "velocity": 0.4251968503937008
        },
        {
          "duration": 0.1171875,
          "durationTicks": 90,
          "midi": 60,
          "name": "C4",
          "ticks": 75278,
          "time": 98.01822916666667,
          "velocity": 0.4566929133858268
        },
        {
          "duration": 0.09895833333334281,
          "durationTicks": 76,
          "midi": 64,
          "name": "E4",
          "ticks": 75280,
          "time": 98.02083333333333,
          "velocity": 0.4251968503937008
        },
        {
          "duration": 0.1119791666666714,
          "durationTicks": 86,
          "midi": 62,
          "name": "D4",
          "ticks": 75876,
          "time": 98.796875,
          "velocity": 0.4409448818897638
        },
        {
          "duration": 0.0989583333333286,
          "durationTicks": 76,
          "midi": 59,
          "name": "B3",
          "ticks": 75876,
          "time": 98.796875,
          "velocity": 0.3937007874015748
        },
        {
          "duration": 0.1197916666666714,
          "durationTicks": 92,
          "midi": 59,
          "name": "B3",
          "ticks": 76068,
          "time": 99.046875,
          "velocity": 0.47244094488188976
        },
        {
          "duration": 0.125,
          "durationTicks": 96,
          "midi": 62,
          "name": "D4",
          "ticks": 76068,
          "time": 99.046875,
          "velocity": 0.4566929133858268
        },
        {
          "duration": 0.1223958333333286,
          "durationTicks": 94,
          "midi": 57,
          "name": "A3",
          "ticks": 76466,
          "time": 99.56510416666667,
          "velocity": 0.4251968503937008
        },
        {
          "duration": 0.1223958333333286,
          "durationTicks": 94,
          "midi": 60,
          "name": "C4",
          "ticks": 76466,
          "time": 99.56510416666667,
          "velocity": 0.4881889763779528
        },
        {
          "duration": 0.1223958333333286,
          "durationTicks": 94,
          "midi": 62,
          "name": "D4",
          "ticks": 77456,
          "time": 100.85416666666667,
          "velocity": 0.3937007874015748
        },
        {
          "duration": 0.1119791666666714,
          "durationTicks": 86,
          "midi": 59,
          "name": "B3",
          "ticks": 77458,
          "time": 100.85677083333333,
          "velocity": 0.4094488188976378
        },
        {
          "duration": 0.1067708333333286,
          "durationTicks": 82,
          "midi": 59,
          "name": "B3",
          "ticks": 77654,
          "time": 101.11197916666667,
          "velocity": 0.47244094488188976
        },
        {
          "duration": 0.0963541666666714,
          "durationTicks": 74,
          "midi": 62,
          "name": "D4",
          "ticks": 77656,
          "time": 101.11458333333333,
          "velocity": 0.47244094488188976
        },
        {
          "duration": 0.1145833333333286,
          "durationTicks": 88,
          "midi": 60,
          "name": "C4",
          "ticks": 78246,
          "time": 101.8828125,
          "velocity": 0.5354330708661418
        },
        {
          "duration": 0.1119791666666714,
          "durationTicks": 86,
          "midi": 64,
          "name": "E4",
          "ticks": 78246,
          "time": 101.8828125,
          "velocity": 0.5354330708661418
        },
        {
          "duration": 0.10416666666665719,
          "durationTicks": 80,
          "midi": 64,
          "name": "E4",
          "ticks": 78446,
          "time": 102.14322916666667,
          "velocity": 0.5039370078740157
        },
        {
          "duration": 0.08854166666665719,
          "durationTicks": 68,
          "midi": 60,
          "name": "C4",
          "ticks": 78446,
          "time": 102.14322916666667,
          "velocity": 0.4881889763779528
        },
        {
          "duration": 0.10416666666665719,
          "durationTicks": 80,
          "midi": 62,
          "name": "D4",
          "ticks": 79040,
          "time": 102.91666666666667,
          "velocity": 0.5196850393700787
        },
        {
          "duration": 0.1015625,
          "durationTicks": 78,
          "midi": 59,
          "name": "B3",
          "ticks": 79040,
          "time": 102.91666666666667,
          "velocity": 0.4881889763779528
        },
        {
          "duration": 0.0807291666666714,
          "durationTicks": 62,
          "midi": 62,
          "name": "D4",
          "ticks": 79234,
          "time": 103.16927083333333,
          "velocity": 0.4881889763779528
        },
        {
          "duration": 0.0885416666666714,
          "durationTicks": 68,
          "midi": 59,
          "name": "B3",
          "ticks": 79234,
          "time": 103.16927083333333,
          "velocity": 0.5196850393700787
        },
        {
          "duration": 0.1015625,
          "durationTicks": 78,
          "midi": 57,
          "name": "A3",
          "ticks": 79634,
          "time": 103.69010416666667,
          "velocity": 0.5511811023622047
        },
        {
          "duration": 0.09375,
          "durationTicks": 72,
          "midi": 60,
          "name": "C4",
          "ticks": 79636,
          "time": 103.69270833333333,
          "velocity": 0.5984251968503937
        },
        {
          "duration": 0.15625,
          "durationTicks": 120,
          "midi": 62,
          "name": "D4",
          "ticks": 112306,
          "time": 146.23177083333334,
          "velocity": 0.5196850393700787
        },
        {
          "duration": 0.1328125,
          "durationTicks": 102,
          "midi": 59,
          "name": "B3",
          "ticks": 112310,
          "time": 146.23697916666666,
          "velocity": 0.4881889763779528
        },
        {
          "duration": 0.10416666666668561,
          "durationTicks": 80,
          "midi": 62,
          "name": "D4",
          "ticks": 112508,
          "time": 146.49479166666666,
          "velocity": 0.4409448818897638
        },
        {
          "duration": 0.08333333333331439,
          "durationTicks": 64,
          "midi": 59,
          "name": "B3",
          "ticks": 112510,
          "time": 146.49739583333334,
          "velocity": 0.4409448818897638
        },
        {
          "duration": 0.125,
          "durationTicks": 96,
          "midi": 64,
          "name": "E4",
          "ticks": 113102,
          "time": 147.26822916666666,
          "velocity": 0.4881889763779528
        },
        {
          "duration": 0.1171875,
          "durationTicks": 90,
          "midi": 60,
          "name": "C4",
          "ticks": 113102,
          "time": 147.26822916666666,
          "velocity": 0.4251968503937008
        },
        {
          "duration": 0.11979166666665719,
          "durationTicks": 92,
          "midi": 60,
          "name": "C4",
          "ticks": 113298,
          "time": 147.5234375,
          "velocity": 0.4566929133858268
        },
        {
          "duration": 0.1015625,
          "durationTicks": 78,
          "midi": 64,
          "name": "E4",
          "ticks": 113300,
          "time": 147.52604166666666,
          "velocity": 0.4251968503937008
        },
        {
          "duration": 0.11458333333331439,
          "durationTicks": 88,
          "midi": 62,
          "name": "D4",
          "ticks": 113896,
          "time": 148.30208333333334,
          "velocity": 0.4409448818897638
        },
        {
          "duration": 0.1015625,
          "durationTicks": 78,
          "midi": 59,
          "name": "B3",
          "ticks": 113896,
          "time": 148.30208333333334,
          "velocity": 0.3937007874015748
        },
        {
          "duration": 0.125,
          "durationTicks": 96,
          "midi": 62,
          "name": "D4",
          "ticks": 114090,
          "time": 148.5546875,
          "velocity": 0.4566929133858268
        },
        {
          "duration": 0.1171875,
          "durationTicks": 90,
          "midi": 59,
          "name": "B3",
          "ticks": 114092,
          "time": 148.55729166666666,
          "velocity": 0.47244094488188976
        },
        {
          "duration": 0.1276041666666572,
          "durationTicks": 98,
          "midi": 60,
          "name": "C4",
          "ticks": 114484,
          "time": 149.06770833333334,
          "velocity": 0.4881889763779528
        },
        {
          "duration": 0.13020833333331439,
          "durationTicks": 100,
          "midi": 57,
          "name": "A3",
          "ticks": 114484,
          "time": 149.06770833333334,
          "velocity": 0.4251968503937008
        },
        {
          "duration": 0.1354166666666572,
          "durationTicks": 104,
          "midi": 62,
          "name": "D4",
          "ticks": 115476,
          "time": 150.359375,
          "velocity": 0.5039370078740157
        },
        {
          "duration": 0.1328125,
          "durationTicks": 102,
          "midi": 59,
          "name": "B3",
          "ticks": 115478,
          "time": 150.36197916666666,
          "velocity": 0.47244094488188976
        },
        {
          "duration": 0.09895833333331439,
          "durationTicks": 76,
          "midi": 59,
          "name": "B3",
          "ticks": 115678,
          "time": 150.62239583333334,
          "velocity": 0.47244094488188976
        },
        {
          "duration": 0.09375,
          "durationTicks": 72,
          "midi": 62,
          "name": "D4",
          "ticks": 115680,
          "time": 150.625,
          "velocity": 0.47244094488188976
        },
        {
          "duration": 0.1354166666666572,
          "durationTicks": 104,
          "midi": 60,
          "name": "C4",
          "ticks": 116266,
          "time": 151.38802083333334,
          "velocity": 0.4881889763779528
        },
        {
          "duration": 0.11979166666668561,
          "durationTicks": 92,
          "midi": 64,
          "name": "E4",
          "ticks": 116270,
          "time": 151.39322916666666,
          "velocity": 0.5196850393700787
        },
        {
          "duration": 0.08333333333331439,
          "durationTicks": 64,
          "midi": 60,
          "name": "C4",
          "ticks": 116482,
          "time": 151.66927083333334,
          "velocity": 0.4251968503937008
        },
        {
          "duration": 0.078125,
          "durationTicks": 60,
          "midi": 64,
          "name": "E4",
          "ticks": 116482,
          "time": 151.66927083333334,
          "velocity": 0.4409448818897638
        },
        {
          "duration": 0.1171875,
          "durationTicks": 90,
          "midi": 62,
          "name": "D4",
          "ticks": 117072,
          "time": 152.4375,
          "velocity": 0.47244094488188976
        },
        {
          "duration": 0.09895833333334281,
          "durationTicks": 76,
          "midi": 59,
          "name": "B3",
          "ticks": 117074,
          "time": 152.44010416666666,
          "velocity": 0.4094488188976378
        },
        {
          "duration": 0.125,
          "durationTicks": 96,
          "midi": 62,
          "name": "D4",
          "ticks": 117258,
          "time": 152.6796875,
          "velocity": 0.4251968503937008
        },
        {
          "duration": 0.11979166666668561,
          "durationTicks": 92,
          "midi": 59,
          "name": "B3",
          "ticks": 117260,
          "time": 152.68229166666666,
          "velocity": 0.4251968503937008
        },
        {
          "duration": 0.078125,
          "durationTicks": 60,
          "midi": 60,
          "name": "C4",
          "ticks": 117666,
          "time": 153.2109375,
          "velocity": 0.5511811023622047
        },
        {
          "duration": 0.078125,
          "durationTicks": 60,
          "midi": 57,
          "name": "A3",
          "ticks": 117666,
          "time": 153.2109375,
          "velocity": 0.5511811023622047
        },
        {
          "duration": 0.028645833333314386,
          "durationTicks": 22,
          "midi": 33,
          "name": "A1",
          "ticks": 118048,
          "time": 153.70833333333334,
          "velocity": 0.9448818897637795
        },
        {
          "duration": 0.028645833333342807,
          "durationTicks": 22,
          "midi": 33,
          "name": "A1",
          "ticks": 118148,
          "time": 153.83854166666666,
          "velocity": 0.7874015748031497
        },
        {
          "duration": 0.020833333333342807,
          "durationTicks": 16,
          "midi": 33,
          "name": "A1",
          "ticks": 118250,
          "time": 153.97135416666666,
          "velocity": 0.937007874015748
        },
        {
          "duration": 0.028645833333342807,
          "durationTicks": 22,
          "midi": 33,
          "name": "A1",
          "ticks": 118344,
          "time": 154.09375,
          "velocity": 0.8188976377952756
        },
        {
          "duration": 0.0234375,
          "durationTicks": 18,
          "midi": 33,
          "name": "A1",
          "ticks": 118448,
          "time": 154.22916666666666,
          "velocity": 0.9606299212598425
        },
        {
          "duration": 0.026041666666657193,
          "durationTicks": 20,
          "midi": 33,
          "name": "A1",
          "ticks": 118546,
          "time": 154.35677083333334,
          "velocity": 0.9606299212598425
        },
        {
          "duration": 0.0234375,
          "durationTicks": 18,
          "midi": 36,
          "name": "C2",
          "ticks": 118642,
          "time": 154.48177083333334,
          "velocity": 0.9763779527559056
        },
        {
          "duration": 0.0234375,
          "durationTicks": 18,
          "midi": 33,
          "name": "A1",
          "ticks": 118842,
          "time": 154.7421875,
          "velocity": 0.9448818897637795
        },
        {
          "duration": 0.018229166666657193,
          "durationTicks": 14,
          "midi": 31,
          "name": "G1",
          "ticks": 119046,
          "time": 155.0078125,
          "velocity": 0.9291338582677166
        },
        {
          "duration": 0.026041666666657193,
          "durationTicks": 20,
          "midi": 33,
          "name": "A1",
          "ticks": 119238,
          "time": 155.2578125,
          "velocity": 0.952755905511811
        },
        {
          "duration": 0.0234375,
          "durationTicks": 18,
          "midi": 33,
          "name": "A1",
          "ticks": 119634,
          "time": 155.7734375,
          "velocity": 0.9448818897637795
        },
        {
          "duration": 0.028645833333342807,
          "durationTicks": 22,
          "midi": 33,
          "name": "A1",
          "ticks": 119732,
          "time": 155.90104166666666,
          "velocity": 0.7874015748031497
        },
        {
          "duration": 0.0234375,
          "durationTicks": 18,
          "midi": 33,
          "name": "A1",
          "ticks": 119832,
          "time": 156.03125,
          "velocity": 0.937007874015748
        },
        {
          "duration": 0.028645833333342807,
          "durationTicks": 22,
          "midi": 33,
          "name": "A1",
          "ticks": 119928,
          "time": 156.15625,
          "velocity": 0.8188976377952756
        },
        {
          "duration": 0.026041666666657193,
          "durationTicks": 20,
          "midi": 33,
          "name": "A1",
          "ticks": 120030,
          "time": 156.2890625,
          "velocity": 0.9606299212598425
        },
        {
          "duration": 0.0234375,
          "durationTicks": 18,
          "midi": 33,
          "name": "A1",
          "ticks": 120130,
          "time": 156.41927083333334,
          "velocity": 0.9606299212598425
        },
        {
          "duration": 0.028645833333342807,
          "durationTicks": 22,
          "midi": 36,
          "name": "C2",
          "ticks": 120222,
          "time": 156.5390625,
          "velocity": 0.9763779527559056
        },
        {
          "duration": 0.020833333333342807,
          "durationTicks": 16,
          "midi": 33,
          "name": "A1",
          "ticks": 120428,
          "time": 156.80729166666666,
          "velocity": 0.9448818897637795
        },
        {
          "duration": 0.018229166666657193,
          "durationTicks": 14,
          "midi": 31,
          "name": "G1",
          "ticks": 120630,
          "time": 157.0703125,
          "velocity": 0.9291338582677166
        },
        {
          "duration": 0.0234375,
          "durationTicks": 18,
          "midi": 33,
          "name": "A1",
          "ticks": 120824,
          "time": 157.32291666666666,
          "velocity": 0.952755905511811
        },
        {
          "duration": 0.026041666666657193,
          "durationTicks": 20,
          "midi": 33,
          "name": "A1",
          "ticks": 121216,
          "time": 157.83333333333334,
          "velocity": 0.9448818897637795
        },
        {
          "duration": 0.028645833333342807,
          "durationTicks": 22,
          "midi": 33,
          "name": "A1",
          "ticks": 121316,
          "time": 157.96354166666666,
          "velocity": 0.7874015748031497
        },
        {
          "duration": 0.018229166666657193,
          "durationTicks": 14,
          "midi": 33,
          "name": "A1",
          "ticks": 121420,
          "time": 158.09895833333334,
          "velocity": 0.937007874015748
        },
        {
          "duration": 0.028645833333342807,
          "durationTicks": 22,
          "midi": 33,
          "name": "A1",
          "ticks": 121512,
          "time": 158.21875,
          "velocity": 0.8188976377952756
        },
        {
          "duration": 0.0234375,
          "durationTicks": 18,
          "midi": 33,
          "name": "A1",
          "ticks": 121616,
          "time": 158.35416666666666,
          "velocity": 0.9606299212598425
        },
        {
          "duration": 0.026041666666657193,
          "durationTicks": 20,
          "midi": 33,
          "name": "A1",
          "ticks": 121714,
          "time": 158.48177083333334,
          "velocity": 0.9606299212598425
        },
        {
          "duration": 0.026041666666685614,
          "durationTicks": 20,
          "midi": 36,
          "name": "C2",
          "ticks": 121808,
          "time": 158.60416666666666,
          "velocity": 0.9763779527559056
        },
        {
          "duration": 0.0234375,
          "durationTicks": 18,
          "midi": 33,
          "name": "A1",
          "ticks": 122010,
          "time": 158.8671875,
          "velocity": 0.9448818897637795
        },
        {
          "duration": 0.018229166666657193,
          "durationTicks": 14,
          "midi": 31,
          "name": "G1",
          "ticks": 122214,
          "time": 159.1328125,
          "velocity": 0.9291338582677166
        },
        {
          "duration": 0.020833333333314386,
          "durationTicks": 16,
          "midi": 33,
          "name": "A1",
          "ticks": 122410,
          "time": 159.38802083333334,
          "velocity": 0.952755905511811
        }
      ]
    },
    {
      "channel": 3,
      "controlChanges": {
        "7": [
          {
            "number": 7,
            "ticks": 1536,
            "time": 2,
            "value": 1
          }
        ],
        "10": [
          {
            "number": 10,
            "ticks": 1536,
            "time": 2,
            "value": 0.25984251968503935
          }
        ]
      },
      "pitchBends": [
        {
          "ticks": 162298,
          "time": 211.32552083333334,
          "value": 0
        }
      ],
      "instrument": {
        "family": "guitar",
        "number": 28,
        "name": "electric guitar (muted)"
      },
      "name": "MUTED GTR",
      "notes": [
        {
          "duration": 0.09895833333333393,
          "durationTicks": 76,
          "midi": 57,
          "name": "A3",
          "ticks": 3982,
          "time": 5.184895833333333,
          "velocity": 0.29133858267716534
        },
        {
          "duration": 0.059895833333333925,
          "durationTicks": 46,
          "midi": 57,
          "name": "A3",
          "ticks": 4186,
          "time": 5.450520833333333,
          "velocity": 0.28346456692913385
        },
        {
          "duration": 0.09375,
          "durationTicks": 72,
          "midi": 57,
          "name": "A3",
          "ticks": 4282,
          "time": 5.575520833333333,
          "velocity": 0.16535433070866143
        },
        {
          "duration": 0.14583333333333304,
          "durationTicks": 112,
          "midi": 55,
          "name": "G3",
          "ticks": 4382,
          "time": 5.705729166666667,
          "velocity": 0.30708661417322836
        },
        {
          "duration": 0.13020833333333393,
          "durationTicks": 100,
          "midi": 57,
          "name": "A3",
          "ticks": 4480,
          "time": 5.833333333333333,
          "velocity": 0.30708661417322836
        },
        {
          "duration": 0.23177083333333304,
          "durationTicks": 178,
          "midi": 59,
          "name": "B3",
          "ticks": 4580,
          "time": 5.963541666666667,
          "velocity": 0.2440944881889764
        },
        {
          "duration": 0.12239583333333304,
          "durationTicks": 94,
          "midi": 59,
          "name": "B3",
          "ticks": 4778,
          "time": 6.221354166666667,
          "velocity": 0.29133858267716534
        },
        {
          "duration": 0.15104166666666696,
          "durationTicks": 116,
          "midi": 57,
          "name": "A3",
          "ticks": 5172,
          "time": 6.734375,
          "velocity": 0.2755905511811024
        },
        {
          "duration": 0.15625,
          "durationTicks": 120,
          "midi": 59,
          "name": "B3",
          "ticks": 5270,
          "time": 6.861979166666667,
          "velocity": 0.2992125984251969
        },
        {
          "duration": 0.26041666666666696,
          "durationTicks": 200,
          "midi": 60,
          "name": "C4",
          "ticks": 5370,
          "time": 6.9921875,
          "velocity": 0.2677165354330709
        },
        {
          "duration": 0.1171875,
          "durationTicks": 90,
          "midi": 60,
          "name": "C4",
          "ticks": 5572,
          "time": 7.255208333333333,
          "velocity": 0.2755905511811024
        },
        {
          "duration": 0.13802083333333304,
          "durationTicks": 106,
          "midi": 59,
          "name": "B3",
          "ticks": 5960,
          "time": 7.760416666666667,
          "velocity": 0.2992125984251969
        },
        {
          "duration": 0.13802083333333304,
          "durationTicks": 106,
          "midi": 60,
          "name": "C4",
          "ticks": 6062,
          "time": 7.893229166666667,
          "velocity": 0.30708661417322836
        },
        {
          "duration": 0.10416666666666785,
          "durationTicks": 80,
          "midi": 59,
          "name": "B3",
          "ticks": 6164,
          "time": 8.026041666666666,
          "velocity": 0.33070866141732286
        },
        {
          "duration": 0.09114583333333393,
          "durationTicks": 70,
          "midi": 59,
          "name": "B3",
          "ticks": 6260,
          "time": 8.151041666666666,
          "velocity": 0.28346456692913385
        },
        {
          "duration": 0.39583333333333215,
          "durationTicks": 304,
          "midi": 55,
          "name": "G3",
          "ticks": 6358,
          "time": 8.278645833333334,
          "velocity": 0.33858267716535434
        },
        {
          "duration": 0.11197916666666607,
          "durationTicks": 86,
          "midi": 57,
          "name": "A3",
          "ticks": 6754,
          "time": 8.794270833333334,
          "velocity": 0.2992125984251969
        },
        {
          "duration": 0.08854166666666607,
          "durationTicks": 68,
          "midi": 57,
          "name": "A3",
          "ticks": 7152,
          "time": 9.3125,
          "velocity": 0.29133858267716534
        },
        {
          "duration": 0.05729166666666785,
          "durationTicks": 44,
          "midi": 57,
          "name": "A3",
          "ticks": 7352,
          "time": 9.572916666666666,
          "velocity": 0.29133858267716534
        },
        {
          "duration": 0.10416666666666607,
          "durationTicks": 80,
          "midi": 57,
          "name": "A3",
          "ticks": 7446,
          "time": 9.6953125,
          "velocity": 0.2440944881889764
        },
        {
          "duration": 0.14583333333333393,
          "durationTicks": 112,
          "midi": 55,
          "name": "G3",
          "ticks": 7548,
          "time": 9.828125,
          "velocity": 0.30708661417322836
        },
        {
          "duration": 0.15104166666666785,
          "durationTicks": 116,
          "midi": 57,
          "name": "A3",
          "ticks": 7646,
          "time": 9.955729166666666,
          "velocity": 0.30708661417322836
        },
        {
          "duration": 0.26041666666666785,
          "durationTicks": 200,
          "midi": 59,
          "name": "B3",
          "ticks": 7748,
          "time": 10.088541666666666,
          "velocity": 0.29133858267716534
        },
        {
          "duration": 0.109375,
          "durationTicks": 84,
          "midi": 59,
          "name": "B3",
          "ticks": 7950,
          "time": 10.3515625,
          "velocity": 0.29133858267716534
        },
        {
          "duration": 0.14583333333333215,
          "durationTicks": 112,
          "midi": 57,
          "name": "A3",
          "ticks": 8338,
          "time": 10.856770833333334,
          "velocity": 0.2755905511811024
        },
        {
          "duration": 0.16145833333333393,
          "durationTicks": 124,
          "midi": 59,
          "name": "B3",
          "ticks": 8436,
          "time": 10.984375,
          "velocity": 0.31496062992125984
        },
        {
          "duration": 0.2265625,
          "durationTicks": 174,
          "midi": 60,
          "name": "C4",
          "ticks": 8536,
          "time": 11.114583333333334,
          "velocity": 0.2755905511811024
        },
        {
          "duration": 0.12760416666666607,
          "durationTicks": 98,
          "midi": 60,
          "name": "C4",
          "ticks": 8734,
          "time": 11.372395833333334,
          "velocity": 0.25196850393700787
        },
        {
          "duration": 0.10677083333333393,
          "durationTicks": 82,
          "midi": 59,
          "name": "B3",
          "ticks": 9126,
          "time": 11.8828125,
          "velocity": 0.29133858267716534
        },
        {
          "duration": 0.15104166666666607,
          "durationTicks": 116,
          "midi": 60,
          "name": "C4",
          "ticks": 9226,
          "time": 12.013020833333334,
          "velocity": 0.28346456692913385
        },
        {
          "duration": 0.13151041666666607,
          "durationTicks": 101,
          "midi": 59,
          "name": "B3",
          "ticks": 9328,
          "time": 12.145833333333334,
          "velocity": 0.30708661417322836
        },
        {
          "duration": 0.13020833333333393,
          "durationTicks": 100,
          "midi": 59,
          "name": "B3",
          "ticks": 9428,
          "time": 12.276041666666666,
          "velocity": 0.29133858267716534
        },
        {
          "duration": 0.4375,
          "durationTicks": 336,
          "midi": 55,
          "name": "G3",
          "ticks": 9528,
          "time": 12.40625,
          "velocity": 0.33070866141732286
        },
        {
          "duration": 0.10677083333333215,
          "durationTicks": 82,
          "midi": 57,
          "name": "A3",
          "ticks": 9922,
          "time": 12.919270833333334,
          "velocity": 0.31496062992125984
        },
        {
          "duration": 0.10416666666666785,
          "durationTicks": 80,
          "midi": 57,
          "name": "A3",
          "ticks": 10316,
          "time": 13.432291666666666,
          "velocity": 0.2755905511811024
        },
        {
          "duration": 0.044270833333333925,
          "durationTicks": 34,
          "midi": 57,
          "name": "A3",
          "ticks": 10520,
          "time": 13.697916666666666,
          "velocity": 0.2755905511811024
        },
        {
          "duration": 0.08854166666666607,
          "durationTicks": 68,
          "midi": 57,
          "name": "A3",
          "ticks": 10614,
          "time": 13.8203125,
          "velocity": 0.16535433070866143
        },
        {
          "duration": 0.13020833333333393,
          "durationTicks": 100,
          "midi": 55,
          "name": "G3",
          "ticks": 10712,
          "time": 13.947916666666666,
          "velocity": 0.2992125984251969
        },
        {
          "duration": 0.11458333333333393,
          "durationTicks": 88,
          "midi": 57,
          "name": "A3",
          "ticks": 10812,
          "time": 14.078125,
          "velocity": 0.31496062992125984
        },
        {
          "duration": 0.24479166666666607,
          "durationTicks": 188,
          "midi": 59,
          "name": "B3",
          "ticks": 10908,
          "time": 14.203125,
          "velocity": 0.33070866141732286
        },
        {
          "duration": 0.125,
          "durationTicks": 96,
          "midi": 59,
          "name": "B3",
          "ticks": 11110,
          "time": 14.466145833333334,
          "velocity": 0.28346456692913385
        },
        {
          "duration": 0.15104166666666607,
          "durationTicks": 116,
          "midi": 57,
          "name": "A3",
          "ticks": 11500,
          "time": 14.973958333333334,
          "velocity": 0.2283464566929134
        },
        {
          "duration": 0.16145833333333393,
          "durationTicks": 124,
          "midi": 59,
          "name": "B3",
          "ticks": 11600,
          "time": 15.104166666666666,
          "velocity": 0.33070866141732286
        },
        {
          "duration": 0.23958333333333393,
          "durationTicks": 184,
          "midi": 60,
          "name": "C4",
          "ticks": 11700,
          "time": 15.234375,
          "velocity": 0.2755905511811024
        },
        {
          "duration": 0.12239583333333215,
          "durationTicks": 94,
          "midi": 60,
          "name": "C4",
          "ticks": 11902,
          "time": 15.497395833333334,
          "velocity": 0.2677165354330709
        },
        {
          "duration": 0.12239583333333215,
          "durationTicks": 94,
          "midi": 59,
          "name": "B3",
          "ticks": 12294,
          "time": 16.0078125,
          "velocity": 0.2992125984251969
        },
        {
          "duration": 0.12760416666666785,
          "durationTicks": 98,
          "midi": 60,
          "name": "C4",
          "ticks": 12396,
          "time": 16.140625,
          "velocity": 0.28346456692913385
        },
        {
          "duration": 0.20052083333333215,
          "durationTicks": 154,
          "midi": 59,
          "name": "B3",
          "ticks": 12500,
          "time": 16.276041666666668,
          "velocity": 0.3228346456692913
        },
        {
          "duration": 0.5286458333333321,
          "durationTicks": 406,
          "midi": 55,
          "name": "G3",
          "ticks": 12690,
          "time": 16.5234375,
          "velocity": 0.30708661417322836
        },
        {
          "duration": 0.10677083333333215,
          "durationTicks": 82,
          "midi": 57,
          "name": "A3",
          "ticks": 13092,
          "time": 17.046875,
          "velocity": 0.25196850393700787
        },
        {
          "duration": 0.1015625,
          "durationTicks": 78,
          "midi": 57,
          "name": "A3",
          "ticks": 13488,
          "time": 17.5625,
          "velocity": 0.25196850393700787
        },
        {
          "duration": 0.046875,
          "durationTicks": 36,
          "midi": 57,
          "name": "A3",
          "ticks": 13688,
          "time": 17.822916666666668,
          "velocity": 0.28346456692913385
        },
        {
          "duration": 0.078125,
          "durationTicks": 60,
          "midi": 57,
          "name": "A3",
          "ticks": 13782,
          "time": 17.9453125,
          "velocity": 0.2440944881889764
        },
        {
          "duration": 0.1328125,
          "durationTicks": 102,
          "midi": 55,
          "name": "G3",
          "ticks": 13884,
          "time": 18.078125,
          "velocity": 0.2755905511811024
        },
        {
          "duration": 0.13802083333333215,
          "durationTicks": 106,
          "midi": 57,
          "name": "A3",
          "ticks": 13986,
          "time": 18.2109375,
          "velocity": 0.2992125984251969
        },
        {
          "duration": 0.25911458333333215,
          "durationTicks": 199,
          "midi": 59,
          "name": "B3",
          "ticks": 14082,
          "time": 18.3359375,
          "velocity": 0.2283464566929134
        },
        {
          "duration": 0.2578125,
          "durationTicks": 198,
          "midi": 59,
          "name": "B3",
          "ticks": 14280,
          "time": 18.59375,
          "velocity": 0.2677165354330709
        },
        {
          "duration": 0.1171875,
          "durationTicks": 90,
          "midi": 57,
          "name": "A3",
          "ticks": 14670,
          "time": 19.1015625,
          "velocity": 0.25196850393700787
        },
        {
          "duration": 0.1484375,
          "durationTicks": 114,
          "midi": 59,
          "name": "B3",
          "ticks": 14770,
          "time": 19.231770833333332,
          "velocity": 0.31496062992125984
        },
        {
          "duration": 0.26171875,
          "durationTicks": 201,
          "midi": 60,
          "name": "C4",
          "ticks": 14872,
          "time": 19.364583333333332,
          "velocity": 0.2677165354330709
        },
        {
          "duration": 0.26041666666666785,
          "durationTicks": 200,
          "midi": 60,
          "name": "C4",
          "ticks": 15072,
          "time": 19.625,
          "velocity": 0.2440944881889764
        },
        {
          "duration": 0.1015625,
          "durationTicks": 78,
          "midi": 59,
          "name": "B3",
          "ticks": 15464,
          "time": 20.135416666666668,
          "velocity": 0.28346456692913385
        },
        {
          "duration": 0.125,
          "durationTicks": 96,
          "midi": 60,
          "name": "C4",
          "ticks": 15558,
          "time": 20.2578125,
          "velocity": 0.2755905511811024
        },
        {
          "duration": 0.2395833333333357,
          "durationTicks": 184,
          "midi": 59,
          "name": "B3",
          "ticks": 15664,
          "time": 20.395833333333332,
          "velocity": 0.2992125984251969
        },
        {
          "duration": 0.4869791666666643,
          "durationTicks": 374,
          "midi": 55,
          "name": "G3",
          "ticks": 15860,
          "time": 20.651041666666668,
          "velocity": 0.33070866141732286
        },
        {
          "duration": 0.125,
          "durationTicks": 96,
          "midi": 57,
          "name": "A3",
          "ticks": 16258,
          "time": 21.169270833333332,
          "velocity": 0.31496062992125984
        },
        {
          "duration": 0.03125,
          "durationTicks": 24,
          "midi": 45,
          "name": "A2",
          "ticks": 30310,
          "time": 39.466145833333336,
          "velocity": 0.6614173228346457
        },
        {
          "duration": 0.0677083333333357,
          "durationTicks": 52,
          "midi": 45,
          "name": "A2",
          "ticks": 30408,
          "time": 39.59375,
          "velocity": 0.6929133858267716
        },
        {
          "duration": 0.0677083333333286,
          "durationTicks": 52,
          "midi": 43,
          "name": "G2",
          "ticks": 30508,
          "time": 39.723958333333336,
          "velocity": 0.7086614173228346
        },
        {
          "duration": 0.0703125,
          "durationTicks": 54,
          "midi": 43,
          "name": "G2",
          "ticks": 30606,
          "time": 39.8515625,
          "velocity": 0.6456692913385826
        },
        {
          "duration": 0.0651041666666643,
          "durationTicks": 50,
          "midi": 45,
          "name": "A2",
          "ticks": 30712,
          "time": 39.989583333333336,
          "velocity": 0.6299212598425197
        },
        {
          "duration": 0.0703125,
          "durationTicks": 54,
          "midi": 43,
          "name": "G2",
          "ticks": 30906,
          "time": 40.2421875,
          "velocity": 0.7401574803149606
        },
        {
          "duration": 0.078125,
          "durationTicks": 60,
          "midi": 45,
          "name": "A2",
          "ticks": 31002,
          "time": 40.3671875,
          "velocity": 0.6929133858267716
        },
        {
          "duration": 0.1015625,
          "durationTicks": 78,
          "midi": 43,
          "name": "G2",
          "ticks": 31196,
          "time": 40.619791666666664,
          "velocity": 0.6456692913385826
        },
        {
          "duration": 0.078125,
          "durationTicks": 60,
          "midi": 45,
          "name": "A2",
          "ticks": 31300,
          "time": 40.755208333333336,
          "velocity": 0.7952755905511811
        },
        {
          "duration": 0.0520833333333357,
          "durationTicks": 40,
          "midi": 45,
          "name": "A2",
          "ticks": 33480,
          "time": 43.59375,
          "velocity": 0.7716535433070866
        },
        {
          "duration": 0.0807291666666643,
          "durationTicks": 62,
          "midi": 45,
          "name": "A2",
          "ticks": 33576,
          "time": 43.71875,
          "velocity": 0.7401574803149606
        },
        {
          "duration": 0.0755208333333286,
          "durationTicks": 58,
          "midi": 43,
          "name": "G2",
          "ticks": 33676,
          "time": 43.848958333333336,
          "velocity": 0.7401574803149606
        },
        {
          "duration": 0.0807291666666643,
          "durationTicks": 62,
          "midi": 43,
          "name": "G2",
          "ticks": 33772,
          "time": 43.973958333333336,
          "velocity": 0.6929133858267716
        },
        {
          "duration": 0.0833333333333357,
          "durationTicks": 64,
          "midi": 45,
          "name": "A2",
          "ticks": 33876,
          "time": 44.109375,
          "velocity": 0.7244094488188977
        },
        {
          "duration": 0.0885416666666643,
          "durationTicks": 68,
          "midi": 43,
          "name": "G2",
          "ticks": 34074,
          "time": 44.3671875,
          "velocity": 0.7401574803149606
        },
        {
          "duration": 0.09375,
          "durationTicks": 72,
          "midi": 45,
          "name": "A2",
          "ticks": 34170,
          "time": 44.4921875,
          "velocity": 0.6141732283464567
        },
        {
          "duration": 0.0963541666666643,
          "durationTicks": 74,
          "midi": 43,
          "name": "G2",
          "ticks": 34366,
          "time": 44.747395833333336,
          "velocity": 0.6771653543307087
        },
        {
          "duration": 0.057291666666671404,
          "durationTicks": 44,
          "midi": 45,
          "name": "A2",
          "ticks": 34466,
          "time": 44.877604166666664,
          "velocity": 0.7795275590551181
        },
        {
          "duration": 0.0729166666666643,
          "durationTicks": 56,
          "midi": 45,
          "name": "A2",
          "ticks": 34566,
          "time": 45.0078125,
          "velocity": 0.7086614173228346
        },
        {
          "duration": 0.078125,
          "durationTicks": 60,
          "midi": 47,
          "name": "B2",
          "ticks": 34670,
          "time": 45.143229166666664,
          "velocity": 0.8267716535433071
        },
        {
          "duration": 0.052083333333328596,
          "durationTicks": 40,
          "midi": 45,
          "name": "A2",
          "ticks": 36646,
          "time": 47.716145833333336,
          "velocity": 0.7559055118110236
        },
        {
          "duration": 0.0885416666666643,
          "durationTicks": 68,
          "midi": 45,
          "name": "A2",
          "ticks": 36742,
          "time": 47.841145833333336,
          "velocity": 0.7401574803149606
        },
        {
          "duration": 0.0546875,
          "durationTicks": 42,
          "midi": 43,
          "name": "G2",
          "ticks": 36842,
          "time": 47.971354166666664,
          "velocity": 0.7086614173228346
        },
        {
          "duration": 0.0911458333333357,
          "durationTicks": 70,
          "midi": 43,
          "name": "G2",
          "ticks": 36942,
          "time": 48.1015625,
          "velocity": 0.7165354330708661
        },
        {
          "duration": 0.0989583333333286,
          "durationTicks": 76,
          "midi": 45,
          "name": "A2",
          "ticks": 37042,
          "time": 48.231770833333336,
          "velocity": 0.8110236220472441
        },
        {
          "duration": 0.0755208333333286,
          "durationTicks": 58,
          "midi": 43,
          "name": "G2",
          "ticks": 37240,
          "time": 48.489583333333336,
          "velocity": 0.4015748031496063
        },
        {
          "duration": 0.0911458333333357,
          "durationTicks": 70,
          "midi": 45,
          "name": "A2",
          "ticks": 37338,
          "time": 48.6171875,
          "velocity": 0.7952755905511811
        },
        {
          "duration": 0.0911458333333357,
          "durationTicks": 70,
          "midi": 43,
          "name": "G2",
          "ticks": 37538,
          "time": 48.877604166666664,
          "velocity": 0.5669291338582677
        },
        {
          "duration": 0.0833333333333357,
          "durationTicks": 64,
          "midi": 45,
          "name": "A2",
          "ticks": 37638,
          "time": 49.0078125,
          "velocity": 0.7559055118110236
        },
        {
          "duration": 0.057291666666671404,
          "durationTicks": 44,
          "midi": 45,
          "name": "A2",
          "ticks": 39812,
          "time": 51.838541666666664,
          "velocity": 0.7559055118110236
        },
        {
          "duration": 0.0651041666666714,
          "durationTicks": 50,
          "midi": 45,
          "name": "A2",
          "ticks": 39908,
          "time": 51.963541666666664,
          "velocity": 0.6929133858267716
        },
        {
          "duration": 0.0625,
          "durationTicks": 48,
          "midi": 45,
          "name": "A2",
          "ticks": 40008,
          "time": 52.09375,
          "velocity": 0.6771653543307087
        },
        {
          "duration": 0.0755208333333286,
          "durationTicks": 58,
          "midi": 45,
          "name": "A2",
          "ticks": 40108,
          "time": 52.223958333333336,
          "velocity": 0.6929133858267716
        },
        {
          "duration": 0.0833333333333357,
          "durationTicks": 64,
          "midi": 44,
          "name": "G#2",
          "ticks": 40206,
          "time": 52.3515625,
          "velocity": 0.6456692913385826
        },
        {
          "duration": 0.0729166666666714,
          "durationTicks": 56,
          "midi": 44,
          "name": "G#2",
          "ticks": 40412,
          "time": 52.619791666666664,
          "velocity": 0.5826771653543307
        },
        {
          "duration": 0.0885416666666714,
          "durationTicks": 68,
          "midi": 47,
          "name": "B2",
          "ticks": 40508,
          "time": 52.744791666666664,
          "velocity": 0.6141732283464567
        },
        {
          "duration": 0.109375,
          "durationTicks": 84,
          "midi": 44,
          "name": "G#2",
          "ticks": 40704,
          "time": 53,
          "velocity": 0.5511811023622047
        },
        {
          "duration": 0.1119791666666643,
          "durationTicks": 86,
          "midi": 47,
          "name": "B2",
          "ticks": 40800,
          "time": 53.125,
          "velocity": 0.7795275590551181
        },
        {
          "duration": 0.046875,
          "durationTicks": 36,
          "midi": 45,
          "name": "A2",
          "ticks": 55676,
          "time": 72.49479166666667,
          "velocity": 0.8110236220472441
        },
        {
          "duration": 0.078125,
          "durationTicks": 60,
          "midi": 45,
          "name": "A2",
          "ticks": 55768,
          "time": 72.61458333333333,
          "velocity": 0.7716535433070866
        },
        {
          "duration": 0.0703125,
          "durationTicks": 54,
          "midi": 43,
          "name": "G2",
          "ticks": 55872,
          "time": 72.75,
          "velocity": 0.8110236220472441
        },
        {
          "duration": 0.0755208333333286,
          "durationTicks": 58,
          "midi": 43,
          "name": "G2",
          "ticks": 55968,
          "time": 72.875,
          "velocity": 0.7401574803149606
        },
        {
          "duration": 0.078125,
          "durationTicks": 60,
          "midi": 45,
          "name": "A2",
          "ticks": 56070,
          "time": 73.0078125,
          "velocity": 0.7952755905511811
        },
        {
          "duration": 0.0703125,
          "durationTicks": 54,
          "midi": 43,
          "name": "G2",
          "ticks": 56270,
          "time": 73.26822916666667,
          "velocity": 0.7952755905511811
        },
        {
          "duration": 0.0755208333333286,
          "durationTicks": 58,
          "midi": 45,
          "name": "A2",
          "ticks": 56364,
          "time": 73.390625,
          "velocity": 0.7874015748031497
        },
        {
          "duration": 0.08072916666665719,
          "durationTicks": 62,
          "midi": 43,
          "name": "G2",
          "ticks": 56558,
          "time": 73.64322916666667,
          "velocity": 0.8110236220472441
        },
        {
          "duration": 0.0651041666666714,
          "durationTicks": 50,
          "midi": 45,
          "name": "A2",
          "ticks": 56658,
          "time": 73.7734375,
          "velocity": 0.8110236220472441
        },
        {
          "duration": 0.0833333333333286,
          "durationTicks": 64,
          "midi": 45,
          "name": "A2",
          "ticks": 56754,
          "time": 73.8984375,
          "velocity": 0.7086614173228346
        },
        {
          "duration": 0.0859375,
          "durationTicks": 66,
          "midi": 47,
          "name": "B2",
          "ticks": 56864,
          "time": 74.04166666666667,
          "velocity": 0.8188976377952756
        },
        {
          "duration": 0.0546875,
          "durationTicks": 42,
          "midi": 45,
          "name": "A2",
          "ticks": 58840,
          "time": 76.61458333333333,
          "velocity": 0.8188976377952756
        },
        {
          "duration": 0.08333333333334281,
          "durationTicks": 64,
          "midi": 45,
          "name": "A2",
          "ticks": 58936,
          "time": 76.73958333333333,
          "velocity": 0.7401574803149606
        },
        {
          "duration": 0.0703125,
          "durationTicks": 54,
          "midi": 43,
          "name": "G2",
          "ticks": 59038,
          "time": 76.87239583333333,
          "velocity": 0.8110236220472441
        },
        {
          "duration": 0.0859375,
          "durationTicks": 66,
          "midi": 43,
          "name": "G2",
          "ticks": 59132,
          "time": 76.99479166666667,
          "velocity": 0.7244094488188977
        },
        {
          "duration": 0.078125,
          "durationTicks": 60,
          "midi": 45,
          "name": "A2",
          "ticks": 59240,
          "time": 77.13541666666667,
          "velocity": 0.7874015748031497
        },
        {
          "duration": 0.078125,
          "durationTicks": 60,
          "midi": 43,
          "name": "G2",
          "ticks": 59432,
          "time": 77.38541666666667,
          "velocity": 0.7952755905511811
        },
        {
          "duration": 0.07552083333334281,
          "durationTicks": 58,
          "midi": 45,
          "name": "A2",
          "ticks": 59530,
          "time": 77.51302083333333,
          "velocity": 0.7795275590551181
        },
        {
          "duration": 0.08333333333334281,
          "durationTicks": 64,
          "midi": 43,
          "name": "G2",
          "ticks": 59728,
          "time": 77.77083333333333,
          "velocity": 0.7795275590551181
        },
        {
          "duration": 0.05989583333334281,
          "durationTicks": 46,
          "midi": 45,
          "name": "A2",
          "ticks": 59830,
          "time": 77.90364583333333,
          "velocity": 0.7874015748031497
        },
        {
          "duration": 0.07552083333334281,
          "durationTicks": 58,
          "midi": 45,
          "name": "A2",
          "ticks": 59926,
          "time": 78.02864583333333,
          "velocity": 0.7401574803149606
        },
        {
          "duration": 0.0859375,
          "durationTicks": 66,
          "midi": 47,
          "name": "B2",
          "ticks": 60032,
          "time": 78.16666666666667,
          "velocity": 0.8188976377952756
        },
        {
          "duration": 0.049479166666671404,
          "durationTicks": 38,
          "midi": 45,
          "name": "A2",
          "ticks": 62010,
          "time": 80.7421875,
          "velocity": 0.8110236220472441
        },
        {
          "duration": 0.0859375,
          "durationTicks": 66,
          "midi": 45,
          "name": "A2",
          "ticks": 62104,
          "time": 80.86458333333333,
          "velocity": 0.7559055118110236
        },
        {
          "duration": 0.0677083333333286,
          "durationTicks": 52,
          "midi": 43,
          "name": "G2",
          "ticks": 62204,
          "time": 80.99479166666667,
          "velocity": 0.7795275590551181
        },
        {
          "duration": 0.0755208333333286,
          "durationTicks": 58,
          "midi": 43,
          "name": "G2",
          "ticks": 62304,
          "time": 81.125,
          "velocity": 0.6299212598425197
        },
        {
          "duration": 0.08333333333334281,
          "durationTicks": 64,
          "midi": 45,
          "name": "A2",
          "ticks": 62404,
          "time": 81.25520833333333,
          "velocity": 0.7874015748031497
        },
        {
          "duration": 0.08072916666665719,
          "durationTicks": 62,
          "midi": 43,
          "name": "G2",
          "ticks": 62600,
          "time": 81.51041666666667,
          "velocity": 0.7716535433070866
        },
        {
          "duration": 0.0911458333333286,
          "durationTicks": 70,
          "midi": 45,
          "name": "A2",
          "ticks": 62696,
          "time": 81.63541666666667,
          "velocity": 0.7716535433070866
        },
        {
          "duration": 0.078125,
          "durationTicks": 60,
          "midi": 43,
          "name": "G2",
          "ticks": 62896,
          "time": 81.89583333333333,
          "velocity": 0.8031496062992126
        },
        {
          "duration": 0.06510416666665719,
          "durationTicks": 50,
          "midi": 45,
          "name": "A2",
          "ticks": 62996,
          "time": 82.02604166666667,
          "velocity": 0.8188976377952756
        },
        {
          "duration": 0.078125,
          "durationTicks": 60,
          "midi": 45,
          "name": "A2",
          "ticks": 63094,
          "time": 82.15364583333333,
          "velocity": 0.7086614173228346
        },
        {
          "duration": 0.08333333333334281,
          "durationTicks": 64,
          "midi": 47,
          "name": "B2",
          "ticks": 63196,
          "time": 82.28645833333333,
          "velocity": 0.8267716535433071
        },
        {
          "duration": 0.03125,
          "durationTicks": 24,
          "midi": 45,
          "name": "A2",
          "ticks": 81014,
          "time": 105.48697916666667,
          "velocity": 0.6614173228346457
        },
        {
          "duration": 0.06770833333334281,
          "durationTicks": 52,
          "midi": 45,
          "name": "A2",
          "ticks": 81112,
          "time": 105.61458333333333,
          "velocity": 0.6929133858267716
        },
        {
          "duration": 0.0677083333333286,
          "durationTicks": 52,
          "midi": 43,
          "name": "G2",
          "ticks": 81212,
          "time": 105.74479166666667,
          "velocity": 0.7086614173228346
        },
        {
          "duration": 0.0651041666666714,
          "durationTicks": 50,
          "midi": 43,
          "name": "G2",
          "ticks": 81312,
          "time": 105.875,
          "velocity": 0.6456692913385826
        },
        {
          "duration": 0.0703125,
          "durationTicks": 54,
          "midi": 45,
          "name": "A2",
          "ticks": 81412,
          "time": 106.00520833333333,
          "velocity": 0.6299212598425197
        },
        {
          "duration": 0.06770833333334281,
          "durationTicks": 52,
          "midi": 43,
          "name": "G2",
          "ticks": 81610,
          "time": 106.26302083333333,
          "velocity": 0.7401574803149606
        },
        {
          "duration": 0.078125,
          "durationTicks": 60,
          "midi": 45,
          "name": "A2",
          "ticks": 81704,
          "time": 106.38541666666667,
          "velocity": 0.6929133858267716
        },
        {
          "duration": 0.0989583333333286,
          "durationTicks": 76,
          "midi": 43,
          "name": "G2",
          "ticks": 81900,
          "time": 106.640625,
          "velocity": 0.6456692913385826
        },
        {
          "duration": 0.0807291666666714,
          "durationTicks": 62,
          "midi": 45,
          "name": "A2",
          "ticks": 82000,
          "time": 106.77083333333333,
          "velocity": 0.7952755905511811
        },
        {
          "duration": 0.05989583333334281,
          "durationTicks": 46,
          "midi": 45,
          "name": "A2",
          "ticks": 84178,
          "time": 109.60677083333333,
          "velocity": 0.7716535433070866
        },
        {
          "duration": 0.0833333333333286,
          "durationTicks": 64,
          "midi": 45,
          "name": "A2",
          "ticks": 84276,
          "time": 109.734375,
          "velocity": 0.7401574803149606
        },
        {
          "duration": 0.0755208333333286,
          "durationTicks": 58,
          "midi": 43,
          "name": "G2",
          "ticks": 84380,
          "time": 109.86979166666667,
          "velocity": 0.7401574803149606
        },
        {
          "duration": 0.07552083333334281,
          "durationTicks": 58,
          "midi": 43,
          "name": "G2",
          "ticks": 84478,
          "time": 109.99739583333333,
          "velocity": 0.6929133858267716
        },
        {
          "duration": 0.0807291666666714,
          "durationTicks": 62,
          "midi": 45,
          "name": "A2",
          "ticks": 84580,
          "time": 110.13020833333333,
          "velocity": 0.7244094488188977
        },
        {
          "duration": 0.0885416666666714,
          "durationTicks": 68,
          "midi": 43,
          "name": "G2",
          "ticks": 84778,
          "time": 110.38802083333333,
          "velocity": 0.7401574803149606
        },
        {
          "duration": 0.0963541666666714,
          "durationTicks": 74,
          "midi": 45,
          "name": "A2",
          "ticks": 84870,
          "time": 110.5078125,
          "velocity": 0.6141732283464567
        },
        {
          "duration": 0.0963541666666714,
          "durationTicks": 74,
          "midi": 43,
          "name": "G2",
          "ticks": 85068,
          "time": 110.765625,
          "velocity": 0.6771653543307087
        },
        {
          "duration": 0.0546875,
          "durationTicks": 42,
          "midi": 45,
          "name": "A2",
          "ticks": 85170,
          "time": 110.8984375,
          "velocity": 0.7795275590551181
        },
        {
          "duration": 0.0755208333333286,
          "durationTicks": 58,
          "midi": 45,
          "name": "A2",
          "ticks": 85268,
          "time": 111.02604166666667,
          "velocity": 0.7086614173228346
        },
        {
          "duration": 0.078125,
          "durationTicks": 60,
          "midi": 47,
          "name": "B2",
          "ticks": 85374,
          "time": 111.1640625,
          "velocity": 0.8267716535433071
        },
        {
          "duration": 0.046875,
          "durationTicks": 36,
          "midi": 45,
          "name": "A2",
          "ticks": 87352,
          "time": 113.73958333333333,
          "velocity": 0.7559055118110236
        },
        {
          "duration": 0.08854166666665719,
          "durationTicks": 68,
          "midi": 45,
          "name": "A2",
          "ticks": 87446,
          "time": 113.86197916666667,
          "velocity": 0.7401574803149606
        },
        {
          "duration": 0.052083333333328596,
          "durationTicks": 40,
          "midi": 43,
          "name": "G2",
          "ticks": 87546,
          "time": 113.9921875,
          "velocity": 0.7086614173228346
        },
        {
          "duration": 0.0911458333333286,
          "durationTicks": 70,
          "midi": 43,
          "name": "G2",
          "ticks": 87644,
          "time": 114.11979166666667,
          "velocity": 0.7165354330708661
        },
        {
          "duration": 0.0989583333333286,
          "durationTicks": 76,
          "midi": 45,
          "name": "A2",
          "ticks": 87746,
          "time": 114.25260416666667,
          "velocity": 0.8110236220472441
        },
        {
          "duration": 0.0755208333333286,
          "durationTicks": 58,
          "midi": 43,
          "name": "G2",
          "ticks": 87942,
          "time": 114.5078125,
          "velocity": 0.4015748031496063
        },
        {
          "duration": 0.09375,
          "durationTicks": 72,
          "midi": 45,
          "name": "A2",
          "ticks": 88038,
          "time": 114.6328125,
          "velocity": 0.7952755905511811
        },
        {
          "duration": 0.09375,
          "durationTicks": 72,
          "midi": 43,
          "name": "G2",
          "ticks": 88238,
          "time": 114.89322916666667,
          "velocity": 0.5669291338582677
        },
        {
          "duration": 0.0833333333333286,
          "durationTicks": 64,
          "midi": 45,
          "name": "A2",
          "ticks": 88340,
          "time": 115.02604166666667,
          "velocity": 0.7559055118110236
        },
        {
          "duration": 0.05729166666665719,
          "durationTicks": 44,
          "midi": 45,
          "name": "A2",
          "ticks": 90512,
          "time": 117.85416666666667,
          "velocity": 0.7559055118110236
        },
        {
          "duration": 0.0651041666666714,
          "durationTicks": 50,
          "midi": 45,
          "name": "A2",
          "ticks": 90610,
          "time": 117.98177083333333,
          "velocity": 0.6929133858267716
        },
        {
          "duration": 0.0625,
          "durationTicks": 48,
          "midi": 45,
          "name": "A2",
          "ticks": 90708,
          "time": 118.109375,
          "velocity": 0.6771653543307087
        },
        {
          "duration": 0.078125,
          "durationTicks": 60,
          "midi": 45,
          "name": "A2",
          "ticks": 90808,
          "time": 118.23958333333333,
          "velocity": 0.6929133858267716
        },
        {
          "duration": 0.08072916666665719,
          "durationTicks": 62,
          "midi": 44,
          "name": "G#2",
          "ticks": 90908,
          "time": 118.36979166666667,
          "velocity": 0.6456692913385826
        },
        {
          "duration": 0.0703125,
          "durationTicks": 54,
          "midi": 44,
          "name": "G#2",
          "ticks": 91112,
          "time": 118.63541666666667,
          "velocity": 0.5826771653543307
        },
        {
          "duration": 0.0911458333333286,
          "durationTicks": 70,
          "midi": 47,
          "name": "B2",
          "ticks": 91206,
          "time": 118.7578125,
          "velocity": 0.6141732283464567
        },
        {
          "duration": 0.109375,
          "durationTicks": 84,
          "midi": 44,
          "name": "G#2",
          "ticks": 91404,
          "time": 119.015625,
          "velocity": 0.5511811023622047
        },
        {
          "duration": 0.1119791666666714,
          "durationTicks": 86,
          "midi": 47,
          "name": "B2",
          "ticks": 91500,
          "time": 119.140625,
          "velocity": 0.7795275590551181
        },
        {
          "duration": 0.046875,
          "durationTicks": 36,
          "midi": 45,
          "name": "A2",
          "ticks": 106372,
          "time": 138.50520833333334,
          "velocity": 0.8110236220472441
        },
        {
          "duration": 0.08072916666665719,
          "durationTicks": 62,
          "midi": 45,
          "name": "A2",
          "ticks": 106462,
          "time": 138.62239583333334,
          "velocity": 0.7716535433070866
        },
        {
          "duration": 0.0703125,
          "durationTicks": 54,
          "midi": 43,
          "name": "G2",
          "ticks": 106568,
          "time": 138.76041666666666,
          "velocity": 0.8110236220472441
        },
        {
          "duration": 0.07552083333331439,
          "durationTicks": 58,
          "midi": 43,
          "name": "G2",
          "ticks": 106666,
          "time": 138.88802083333334,
          "velocity": 0.7401574803149606
        },
        {
          "duration": 0.07552083333331439,
          "durationTicks": 58,
          "midi": 45,
          "name": "A2",
          "ticks": 106768,
          "time": 139.02083333333334,
          "velocity": 0.7952755905511811
        },
        {
          "duration": 0.07291666666668561,
          "durationTicks": 56,
          "midi": 43,
          "name": "G2",
          "ticks": 106964,
          "time": 139.27604166666666,
          "velocity": 0.7952755905511811
        },
        {
          "duration": 0.078125,
          "durationTicks": 60,
          "midi": 45,
          "name": "A2",
          "ticks": 107058,
          "time": 139.3984375,
          "velocity": 0.7874015748031497
        },
        {
          "duration": 0.08333333333331439,
          "durationTicks": 64,
          "midi": 43,
          "name": "G2",
          "ticks": 107254,
          "time": 139.65364583333334,
          "velocity": 0.8110236220472441
        },
        {
          "duration": 0.06770833333334281,
          "durationTicks": 52,
          "midi": 45,
          "name": "A2",
          "ticks": 107354,
          "time": 139.78385416666666,
          "velocity": 0.8110236220472441
        },
        {
          "duration": 0.08333333333334281,
          "durationTicks": 64,
          "midi": 45,
          "name": "A2",
          "ticks": 107450,
          "time": 139.90885416666666,
          "velocity": 0.7086614173228346
        },
        {
          "duration": 0.0859375,
          "durationTicks": 66,
          "midi": 47,
          "name": "B2",
          "ticks": 107560,
          "time": 140.05208333333334,
          "velocity": 0.8188976377952756
        },
        {
          "duration": 0.06510416666668561,
          "durationTicks": 50,
          "midi": 60,
          "name": "C4",
          "ticks": 123992,
          "time": 161.44791666666666,
          "velocity": 0.7165354330708661
        },
        {
          "duration": 0.1015625,
          "durationTicks": 78,
          "midi": 60,
          "name": "C4",
          "ticks": 124084,
          "time": 161.56770833333334,
          "velocity": 0.7165354330708661
        },
        {
          "duration": 0.2473958333333428,
          "durationTicks": 190,
          "midi": 48,
          "name": "C3",
          "ticks": 124086,
          "time": 161.5703125,
          "velocity": 0.5354330708661418
        },
        {
          "duration": 0.1302083333333428,
          "durationTicks": 100,
          "midi": 40,
          "name": "E2",
          "ticks": 124272,
          "time": 161.8125,
          "velocity": 0.2677165354330709
        },
        {
          "duration": 0.0859375,
          "durationTicks": 66,
          "midi": 60,
          "name": "C4",
          "ticks": 124282,
          "time": 161.82552083333334,
          "velocity": 0.7165354330708661
        },
        {
          "duration": 0.1354166666666572,
          "durationTicks": 104,
          "midi": 47,
          "name": "B2",
          "ticks": 124374,
          "time": 161.9453125,
          "velocity": 0.3779527559055118
        },
        {
          "duration": 0.09635416666665719,
          "durationTicks": 74,
          "midi": 59,
          "name": "B3",
          "ticks": 124384,
          "time": 161.95833333333334,
          "velocity": 0.7165354330708661
        },
        {
          "duration": 0.11979166666665719,
          "durationTicks": 92,
          "midi": 40,
          "name": "E2",
          "ticks": 124474,
          "time": 162.07552083333334,
          "velocity": 0.2125984251968504
        },
        {
          "duration": 0.11979166666668561,
          "durationTicks": 92,
          "midi": 45,
          "name": "A2",
          "ticks": 124574,
          "time": 162.20572916666666,
          "velocity": 0.31496062992125984
        },
        {
          "duration": 0.078125,
          "durationTicks": 60,
          "midi": 57,
          "name": "A3",
          "ticks": 124586,
          "time": 162.22135416666666,
          "velocity": 0.7165354330708661
        },
        {
          "duration": 0.12760416666668561,
          "durationTicks": 98,
          "midi": 40,
          "name": "E2",
          "ticks": 124670,
          "time": 162.33072916666666,
          "velocity": 0.2677165354330709
        },
        {
          "duration": 0.1380208333333428,
          "durationTicks": 106,
          "midi": 43,
          "name": "G2",
          "ticks": 124766,
          "time": 162.45572916666666,
          "velocity": 0.4094488188976378
        },
        {
          "duration": 0.0859375,
          "durationTicks": 66,
          "midi": 55,
          "name": "G3",
          "ticks": 124776,
          "time": 162.46875,
          "velocity": 0.7165354330708661
        },
        {
          "duration": 0.10416666666668561,
          "durationTicks": 80,
          "midi": 40,
          "name": "E2",
          "ticks": 124868,
          "time": 162.58854166666666,
          "velocity": 0.2125984251968504
        },
        {
          "duration": 0.06770833333331439,
          "durationTicks": 52,
          "midi": 52,
          "name": "E3",
          "ticks": 124876,
          "time": 162.59895833333334,
          "velocity": 0.7165354330708661
        },
        {
          "duration": 0.06770833333331439,
          "durationTicks": 52,
          "midi": 43,
          "name": "G2",
          "ticks": 124972,
          "time": 162.72395833333334,
          "velocity": 0.31496062992125984
        },
        {
          "duration": 0.06770833333334281,
          "durationTicks": 52,
          "midi": 60,
          "name": "C4",
          "ticks": 124982,
          "time": 162.73697916666666,
          "velocity": 0.7165354330708661
        },
        {
          "duration": 0.08072916666665719,
          "durationTicks": 62,
          "midi": 43,
          "name": "G2",
          "ticks": 125070,
          "time": 162.8515625,
          "velocity": 0.2992125984251969
        },
        {
          "duration": 0.10416666666665719,
          "durationTicks": 80,
          "midi": 60,
          "name": "C4",
          "ticks": 125074,
          "time": 162.85677083333334,
          "velocity": 0.6771653543307087
        },
        {
          "duration": 0.0703125,
          "durationTicks": 54,
          "midi": 45,
          "name": "A2",
          "ticks": 125258,
          "time": 163.09635416666666,
          "velocity": 0.4251968503937008
        },
        {
          "duration": 0.0703125,
          "durationTicks": 54,
          "midi": 57,
          "name": "A3",
          "ticks": 125276,
          "time": 163.11979166666666,
          "velocity": 0.7165354330708661
        },
        {
          "duration": 0.10677083333334281,
          "durationTicks": 82,
          "midi": 40,
          "name": "E2",
          "ticks": 125472,
          "time": 163.375,
          "velocity": 0.4094488188976378
        },
        {
          "duration": 0.07552083333334281,
          "durationTicks": 58,
          "midi": 60,
          "name": "C4",
          "ticks": 125568,
          "time": 163.5,
          "velocity": 0.7086614173228346
        },
        {
          "duration": 0.0625,
          "durationTicks": 48,
          "midi": 43,
          "name": "G2",
          "ticks": 125574,
          "time": 163.5078125,
          "velocity": 0.16535433070866143
        },
        {
          "duration": 0.2552083333333144,
          "durationTicks": 196,
          "midi": 48,
          "name": "C3",
          "ticks": 125662,
          "time": 163.62239583333334,
          "velocity": 0.4881889763779528
        },
        {
          "duration": 0.08854166666668561,
          "durationTicks": 68,
          "midi": 60,
          "name": "C4",
          "ticks": 125672,
          "time": 163.63541666666666,
          "velocity": 0.7165354330708661
        },
        {
          "duration": 0.11979166666668561,
          "durationTicks": 92,
          "midi": 40,
          "name": "E2",
          "ticks": 125858,
          "time": 163.87760416666666,
          "velocity": 0.2677165354330709
        },
        {
          "duration": 0.0859375,
          "durationTicks": 66,
          "midi": 60,
          "name": "C4",
          "ticks": 125866,
          "time": 163.88802083333334,
          "velocity": 0.7165354330708661
        },
        {
          "duration": 0.12239583333331439,
          "durationTicks": 94,
          "midi": 47,
          "name": "B2",
          "ticks": 125956,
          "time": 164.00520833333334,
          "velocity": 0.28346456692913385
        },
        {
          "duration": 0.08072916666665719,
          "durationTicks": 62,
          "midi": 59,
          "name": "B3",
          "ticks": 125968,
          "time": 164.02083333333334,
          "velocity": 0.7165354330708661
        },
        {
          "duration": 0.1328125,
          "durationTicks": 102,
          "midi": 40,
          "name": "E2",
          "ticks": 126050,
          "time": 164.12760416666666,
          "velocity": 0.2125984251968504
        },
        {
          "duration": 0.1510416666666572,
          "durationTicks": 116,
          "midi": 45,
          "name": "A2",
          "ticks": 126150,
          "time": 164.2578125,
          "velocity": 0.3779527559055118
        },
        {
          "duration": 0.08333333333334281,
          "durationTicks": 64,
          "midi": 57,
          "name": "A3",
          "ticks": 126170,
          "time": 164.28385416666666,
          "velocity": 0.7165354330708661
        },
        {
          "duration": 0.13020833333331439,
          "durationTicks": 100,
          "midi": 40,
          "name": "E2",
          "ticks": 126256,
          "time": 164.39583333333334,
          "velocity": 0.14960629921259844
        },
        {
          "duration": 0.1276041666666572,
          "durationTicks": 98,
          "midi": 43,
          "name": "G2",
          "ticks": 126360,
          "time": 164.53125,
          "velocity": 0.3937007874015748
        },
        {
          "duration": 0.08854166666668561,
          "durationTicks": 68,
          "midi": 55,
          "name": "G3",
          "ticks": 126362,
          "time": 164.53385416666666,
          "velocity": 0.7165354330708661
        },
        {
          "duration": 0.08854166666668561,
          "durationTicks": 68,
          "midi": 40,
          "name": "E2",
          "ticks": 126458,
          "time": 164.65885416666666,
          "velocity": 0.2677165354330709
        },
        {
          "duration": 0.06770833333331439,
          "durationTicks": 52,
          "midi": 52,
          "name": "E3",
          "ticks": 126466,
          "time": 164.66927083333334,
          "velocity": 0.7165354330708661
        },
        {
          "duration": 0.07552083333334281,
          "durationTicks": 58,
          "midi": 59,
          "name": "B3",
          "ticks": 126564,
          "time": 164.796875,
          "velocity": 0.7165354330708661
        },
        {
          "duration": 0.015625,
          "durationTicks": 12,
          "midi": 43,
          "name": "G2",
          "ticks": 126572,
          "time": 164.80729166666666,
          "velocity": 0.05511811023622047
        },
        {
          "duration": 0.09635416666665719,
          "durationTicks": 74,
          "midi": 59,
          "name": "B3",
          "ticks": 126658,
          "time": 164.91927083333334,
          "velocity": 0.6771653543307087
        },
        {
          "duration": 0.028645833333314386,
          "durationTicks": 22,
          "midi": 43,
          "name": "G2",
          "ticks": 126664,
          "time": 164.92708333333334,
          "velocity": 0.4094488188976378
        },
        {
          "duration": 0.0390625,
          "durationTicks": 30,
          "midi": 45,
          "name": "A2",
          "ticks": 126844,
          "time": 165.16145833333334,
          "velocity": 0.47244094488188976
        },
        {
          "duration": 0.08333333333334281,
          "durationTicks": 64,
          "midi": 57,
          "name": "A3",
          "ticks": 126854,
          "time": 165.17447916666666,
          "velocity": 0.7165354330708661
        },
        {
          "duration": 0.1302083333333428,
          "durationTicks": 100,
          "midi": 40,
          "name": "E2",
          "ticks": 127056,
          "time": 165.4375,
          "velocity": 0.3937007874015748
        },
        {
          "duration": 0.06510416666665719,
          "durationTicks": 50,
          "midi": 60,
          "name": "C4",
          "ticks": 127156,
          "time": 165.56770833333334,
          "velocity": 0.7165354330708661
        },
        {
          "duration": 0.1276041666666572,
          "durationTicks": 98,
          "midi": 43,
          "name": "G2",
          "ticks": 127158,
          "time": 165.5703125,
          "velocity": 0.2125984251968504
        },
        {
          "duration": 0.2526041666666856,
          "durationTicks": 194,
          "midi": 48,
          "name": "C3",
          "ticks": 127244,
          "time": 165.68229166666666,
          "velocity": 0.47244094488188976
        },
        {
          "duration": 0.09114583333334281,
          "durationTicks": 70,
          "midi": 60,
          "name": "C4",
          "ticks": 127254,
          "time": 165.6953125,
          "velocity": 0.7086614173228346
        },
        {
          "duration": 0.13020833333331439,
          "durationTicks": 100,
          "midi": 40,
          "name": "E2",
          "ticks": 127444,
          "time": 165.94270833333334,
          "velocity": 0.3464566929133858
        },
        {
          "duration": 0.07291666666665719,
          "durationTicks": 56,
          "midi": 60,
          "name": "C4",
          "ticks": 127452,
          "time": 165.953125,
          "velocity": 0.7165354330708661
        },
        {
          "duration": 0.1171875,
          "durationTicks": 90,
          "midi": 47,
          "name": "B2",
          "ticks": 127544,
          "time": 166.07291666666666,
          "velocity": 0.2677165354330709
        },
        {
          "duration": 0.078125,
          "durationTicks": 60,
          "midi": 59,
          "name": "B3",
          "ticks": 127552,
          "time": 166.08333333333334,
          "velocity": 0.7165354330708661
        },
        {
          "duration": 0.1328125,
          "durationTicks": 102,
          "midi": 40,
          "name": "E2",
          "ticks": 127634,
          "time": 166.19010416666666,
          "velocity": 0.25984251968503935
        },
        {
          "duration": 0.1380208333333428,
          "durationTicks": 106,
          "midi": 45,
          "name": "A2",
          "ticks": 127736,
          "time": 166.32291666666666,
          "velocity": 0.31496062992125984
        },
        {
          "duration": 0.0703125,
          "durationTicks": 54,
          "midi": 57,
          "name": "A3",
          "ticks": 127754,
          "time": 166.34635416666666,
          "velocity": 0.7165354330708661
        },
        {
          "duration": 0.13020833333331439,
          "durationTicks": 100,
          "midi": 40,
          "name": "E2",
          "ticks": 127840,
          "time": 166.45833333333334,
          "velocity": 0.25984251968503935
        },
        {
          "duration": 0.1328125,
          "durationTicks": 102,
          "midi": 43,
          "name": "G2",
          "ticks": 127936,
          "time": 166.58333333333334,
          "velocity": 0.4094488188976378
        },
        {
          "duration": 0.08333333333334281,
          "durationTicks": 64,
          "midi": 55,
          "name": "G3",
          "ticks": 127950,
          "time": 166.6015625,
          "velocity": 0.7165354330708661
        },
        {
          "duration": 0.09375,
          "durationTicks": 72,
          "midi": 40,
          "name": "E2",
          "ticks": 128036,
          "time": 166.71354166666666,
          "velocity": 0.33070866141732286
        },
        {
          "duration": 0.07552083333334281,
          "durationTicks": 58,
          "midi": 52,
          "name": "E3",
          "ticks": 128046,
          "time": 166.7265625,
          "velocity": 0.6929133858267716
        },
        {
          "duration": 0.0703125,
          "durationTicks": 54,
          "midi": 43,
          "name": "G2",
          "ticks": 128132,
          "time": 166.83854166666666,
          "velocity": 0.25984251968503935
        },
        {
          "duration": 0.07552083333334281,
          "durationTicks": 58,
          "midi": 60,
          "name": "C4",
          "ticks": 128150,
          "time": 166.86197916666666,
          "velocity": 0.7165354330708661
        },
        {
          "duration": 0.06510416666665719,
          "durationTicks": 50,
          "midi": 43,
          "name": "G2",
          "ticks": 128236,
          "time": 166.97395833333334,
          "velocity": 0.3464566929133858
        },
        {
          "duration": 0.10677083333334281,
          "durationTicks": 82,
          "midi": 60,
          "name": "C4",
          "ticks": 128246,
          "time": 166.98697916666666,
          "velocity": 0.7165354330708661
        },
        {
          "duration": 0.046875,
          "durationTicks": 36,
          "midi": 45,
          "name": "A2",
          "ticks": 128436,
          "time": 167.234375,
          "velocity": 0.3464566929133858
        },
        {
          "duration": 0.08072916666665719,
          "durationTicks": 62,
          "midi": 57,
          "name": "A3",
          "ticks": 128442,
          "time": 167.2421875,
          "velocity": 0.7165354330708661
        },
        {
          "duration": 0.1276041666666572,
          "durationTicks": 98,
          "midi": 40,
          "name": "E2",
          "ticks": 128632,
          "time": 167.48958333333334,
          "velocity": 0.28346456692913385
        },
        {
          "duration": 0.140625,
          "durationTicks": 108,
          "midi": 43,
          "name": "G2",
          "ticks": 128728,
          "time": 167.61458333333334,
          "velocity": 0.2677165354330709
        },
        {
          "duration": 0.08333333333334281,
          "durationTicks": 64,
          "midi": 60,
          "name": "C4",
          "ticks": 128736,
          "time": 167.625,
          "velocity": 0.7165354330708661
        },
        {
          "duration": 0.2760416666666572,
          "durationTicks": 212,
          "midi": 48,
          "name": "C3",
          "ticks": 128824,
          "time": 167.73958333333334,
          "velocity": 0.4566929133858268
        },
        {
          "duration": 0.08854166666665719,
          "durationTicks": 68,
          "midi": 60,
          "name": "C4",
          "ticks": 128844,
          "time": 167.765625,
          "velocity": 0.7165354330708661
        },
        {
          "duration": 0.14322916666668561,
          "durationTicks": 110,
          "midi": 40,
          "name": "E2",
          "ticks": 129032,
          "time": 168.01041666666666,
          "velocity": 0.2677165354330709
        },
        {
          "duration": 0.078125,
          "durationTicks": 60,
          "midi": 60,
          "name": "C4",
          "ticks": 129034,
          "time": 168.01302083333334,
          "velocity": 0.7165354330708661
        },
        {
          "duration": 0.12239583333334281,
          "durationTicks": 94,
          "midi": 47,
          "name": "B2",
          "ticks": 129126,
          "time": 168.1328125,
          "velocity": 0.33070866141732286
        },
        {
          "duration": 0.08333333333334281,
          "durationTicks": 64,
          "midi": 59,
          "name": "B3",
          "ticks": 129138,
          "time": 168.1484375,
          "velocity": 0.7165354330708661
        },
        {
          "duration": 0.1380208333333428,
          "durationTicks": 106,
          "midi": 40,
          "name": "E2",
          "ticks": 129222,
          "time": 168.2578125,
          "velocity": 0.28346456692913385
        },
        {
          "duration": 0.1432291666666572,
          "durationTicks": 110,
          "midi": 45,
          "name": "A2",
          "ticks": 129318,
          "time": 168.3828125,
          "velocity": 0.25984251968503935
        },
        {
          "duration": 0.08072916666668561,
          "durationTicks": 62,
          "midi": 57,
          "name": "A3",
          "ticks": 129332,
          "time": 168.40104166666666,
          "velocity": 0.7165354330708661
        },
        {
          "duration": 0.1380208333333428,
          "durationTicks": 106,
          "midi": 40,
          "name": "E2",
          "ticks": 129420,
          "time": 168.515625,
          "velocity": 0.2125984251968504
        },
        {
          "duration": 0.1354166666666572,
          "durationTicks": 104,
          "midi": 43,
          "name": "G2",
          "ticks": 129520,
          "time": 168.64583333333334,
          "velocity": 0.3937007874015748
        },
        {
          "duration": 0.0859375,
          "durationTicks": 66,
          "midi": 55,
          "name": "G3",
          "ticks": 129530,
          "time": 168.65885416666666,
          "velocity": 0.7165354330708661
        },
        {
          "duration": 0.07552083333331439,
          "durationTicks": 58,
          "midi": 40,
          "name": "E2",
          "ticks": 129622,
          "time": 168.77864583333334,
          "velocity": 0.3937007874015748
        },
        {
          "duration": 0.0703125,
          "durationTicks": 54,
          "midi": 52,
          "name": "E3",
          "ticks": 129630,
          "time": 168.7890625,
          "velocity": 0.7165354330708661
        },
        {
          "duration": 0.057291666666685614,
          "durationTicks": 44,
          "midi": 43,
          "name": "G2",
          "ticks": 129722,
          "time": 168.90885416666666,
          "velocity": 0.36220472440944884
        },
        {
          "duration": 0.06510416666668561,
          "durationTicks": 50,
          "midi": 59,
          "name": "B3",
          "ticks": 129734,
          "time": 168.92447916666666,
          "velocity": 0.7165354330708661
        },
        {
          "duration": 0.05989583333334281,
          "durationTicks": 46,
          "midi": 43,
          "name": "G2",
          "ticks": 129822,
          "time": 169.0390625,
          "velocity": 0.25984251968503935
        },
        {
          "duration": 0.09375,
          "durationTicks": 72,
          "midi": 59,
          "name": "B3",
          "ticks": 129828,
          "time": 169.046875,
          "velocity": 0.7165354330708661
        },
        {
          "duration": 0.06510416666665719,
          "durationTicks": 50,
          "midi": 45,
          "name": "A2",
          "ticks": 130012,
          "time": 169.28645833333334,
          "velocity": 0.47244094488188976
        },
        {
          "duration": 0.078125,
          "durationTicks": 60,
          "midi": 57,
          "name": "A3",
          "ticks": 130026,
          "time": 169.3046875,
          "velocity": 0.7165354330708661
        },
        {
          "duration": 0.1302083333333428,
          "durationTicks": 100,
          "midi": 40,
          "name": "E2",
          "ticks": 130128,
          "time": 169.4375,
          "velocity": 0.4645669291338583
        },
        {
          "duration": 0.1354166666666572,
          "durationTicks": 104,
          "midi": 43,
          "name": "G2",
          "ticks": 130228,
          "time": 169.56770833333334,
          "velocity": 0.4881889763779528
        },
        {
          "duration": 0.06510416666668561,
          "durationTicks": 50,
          "midi": 60,
          "name": "C4",
          "ticks": 130322,
          "time": 169.69010416666666,
          "velocity": 0.7165354330708661
        },
        {
          "duration": 0.12239583333331439,
          "durationTicks": 94,
          "midi": 45,
          "name": "A2",
          "ticks": 130330,
          "time": 169.70052083333334,
          "velocity": 0.5433070866141733
        },
        {
          "duration": 0.09895833333334281,
          "durationTicks": 76,
          "midi": 60,
          "name": "C4",
          "ticks": 130416,
          "time": 169.8125,
          "velocity": 0.7165354330708661
        },
        {
          "duration": 0.25,
          "durationTicks": 192,
          "midi": 48,
          "name": "C3",
          "ticks": 130420,
          "time": 169.81770833333334,
          "velocity": 0.5354330708661418
        },
        {
          "duration": 0.13802083333331439,
          "durationTicks": 106,
          "midi": 40,
          "name": "E2",
          "ticks": 130606,
          "time": 170.05989583333334,
          "velocity": 0.2677165354330709
        },
        {
          "duration": 0.08072916666665719,
          "durationTicks": 62,
          "midi": 60,
          "name": "C4",
          "ticks": 130618,
          "time": 170.07552083333334,
          "velocity": 0.7165354330708661
        },
        {
          "duration": 0.13020833333331439,
          "durationTicks": 100,
          "midi": 47,
          "name": "B2",
          "ticks": 130714,
          "time": 170.20052083333334,
          "velocity": 0.3779527559055118
        },
        {
          "duration": 0.07552083333334281,
          "durationTicks": 58,
          "midi": 59,
          "name": "B3",
          "ticks": 130722,
          "time": 170.2109375,
          "velocity": 0.7165354330708661
        },
        {
          "duration": 0.11979166666665719,
          "durationTicks": 92,
          "midi": 40,
          "name": "E2",
          "ticks": 130810,
          "time": 170.32552083333334,
          "velocity": 0.2125984251968504
        },
        {
          "duration": 0.11979166666668561,
          "durationTicks": 92,
          "midi": 45,
          "name": "A2",
          "ticks": 130910,
          "time": 170.45572916666666,
          "velocity": 0.31496062992125984
        },
        {
          "duration": 0.07291666666665719,
          "durationTicks": 56,
          "midi": 57,
          "name": "A3",
          "ticks": 130920,
          "time": 170.46875,
          "velocity": 0.7165354330708661
        },
        {
          "duration": 0.1302083333333428,
          "durationTicks": 100,
          "midi": 40,
          "name": "E2",
          "ticks": 131004,
          "time": 170.578125,
          "velocity": 0.2677165354330709
        },
        {
          "duration": 0.1380208333333428,
          "durationTicks": 106,
          "midi": 43,
          "name": "G2",
          "ticks": 131102,
          "time": 170.70572916666666,
          "velocity": 0.4094488188976378
        },
        {
          "duration": 0.0859375,
          "durationTicks": 66,
          "midi": 55,
          "name": "G3",
          "ticks": 131112,
          "time": 170.71875,
          "velocity": 0.7165354330708661
        },
        {
          "duration": 0.10416666666668561,
          "durationTicks": 80,
          "midi": 40,
          "name": "E2",
          "ticks": 131204,
          "time": 170.83854166666666,
          "velocity": 0.2125984251968504
        },
        {
          "duration": 0.07552083333331439,
          "durationTicks": 58,
          "midi": 52,
          "name": "E3",
          "ticks": 131212,
          "time": 170.84895833333334,
          "velocity": 0.6614173228346457
        },
        {
          "duration": 0.0703125,
          "durationTicks": 54,
          "midi": 43,
          "name": "G2",
          "ticks": 131306,
          "time": 170.97135416666666,
          "velocity": 0.31496062992125984
        },
        {
          "duration": 0.06770833333334281,
          "durationTicks": 52,
          "midi": 60,
          "name": "C4",
          "ticks": 131318,
          "time": 170.98697916666666,
          "velocity": 0.7165354330708661
        },
        {
          "duration": 0.078125,
          "durationTicks": 60,
          "midi": 43,
          "name": "G2",
          "ticks": 131406,
          "time": 171.1015625,
          "velocity": 0.2992125984251969
        },
        {
          "duration": 0.11197916666665719,
          "durationTicks": 86,
          "midi": 60,
          "name": "C4",
          "ticks": 131410,
          "time": 171.10677083333334,
          "velocity": 0.6141732283464567
        },
        {
          "duration": 0.07291666666665719,
          "durationTicks": 56,
          "midi": 45,
          "name": "A2",
          "ticks": 131592,
          "time": 171.34375,
          "velocity": 0.4251968503937008
        },
        {
          "duration": 0.06770833333334281,
          "durationTicks": 52,
          "midi": 57,
          "name": "A3",
          "ticks": 131610,
          "time": 171.3671875,
          "velocity": 0.7165354330708661
        },
        {
          "duration": 0.10677083333334281,
          "durationTicks": 82,
          "midi": 40,
          "name": "E2",
          "ticks": 131808,
          "time": 171.625,
          "velocity": 0.4094488188976378
        },
        {
          "duration": 0.0703125,
          "durationTicks": 54,
          "midi": 60,
          "name": "C4",
          "ticks": 131904,
          "time": 171.75,
          "velocity": 0.7165354330708661
        },
        {
          "duration": 0.0625,
          "durationTicks": 48,
          "midi": 43,
          "name": "G2",
          "ticks": 131910,
          "time": 171.7578125,
          "velocity": 0.16535433070866143
        },
        {
          "duration": 0.2578125,
          "durationTicks": 198,
          "midi": 48,
          "name": "C3",
          "ticks": 131996,
          "time": 171.86979166666666,
          "velocity": 0.4881889763779528
        },
        {
          "duration": 0.08854166666668561,
          "durationTicks": 68,
          "midi": 60,
          "name": "C4",
          "ticks": 132008,
          "time": 171.88541666666666,
          "velocity": 0.6771653543307087
        },
        {
          "duration": 0.11979166666665719,
          "durationTicks": 92,
          "midi": 40,
          "name": "E2",
          "ticks": 132192,
          "time": 172.125,
          "velocity": 0.2677165354330709
        },
        {
          "duration": 0.07552083333334281,
          "durationTicks": 58,
          "midi": 60,
          "name": "C4",
          "ticks": 132200,
          "time": 172.13541666666666,
          "velocity": 0.7165354330708661
        },
        {
          "duration": 0.12239583333334281,
          "durationTicks": 94,
          "midi": 47,
          "name": "B2",
          "ticks": 132290,
          "time": 172.25260416666666,
          "velocity": 0.28346456692913385
        },
        {
          "duration": 0.07552083333331439,
          "durationTicks": 58,
          "midi": 59,
          "name": "B3",
          "ticks": 132304,
          "time": 172.27083333333334,
          "velocity": 0.7165354330708661
        },
        {
          "duration": 0.1328125,
          "durationTicks": 102,
          "midi": 40,
          "name": "E2",
          "ticks": 132386,
          "time": 172.37760416666666,
          "velocity": 0.2125984251968504
        },
        {
          "duration": 0.1510416666666572,
          "durationTicks": 116,
          "midi": 45,
          "name": "A2",
          "ticks": 132486,
          "time": 172.5078125,
          "velocity": 0.3779527559055118
        },
        {
          "duration": 0.078125,
          "durationTicks": 60,
          "midi": 57,
          "name": "A3",
          "ticks": 132502,
          "time": 172.52864583333334,
          "velocity": 0.7165354330708661
        },
        {
          "duration": 0.1328125,
          "durationTicks": 102,
          "midi": 40,
          "name": "E2",
          "ticks": 132592,
          "time": 172.64583333333334,
          "velocity": 0.14960629921259844
        },
        {
          "duration": 0.1276041666666572,
          "durationTicks": 98,
          "midi": 43,
          "name": "G2",
          "ticks": 132696,
          "time": 172.78125,
          "velocity": 0.3937007874015748
        },
        {
          "duration": 0.07552083333331439,
          "durationTicks": 58,
          "midi": 55,
          "name": "G3",
          "ticks": 132700,
          "time": 172.78645833333334,
          "velocity": 0.6456692913385826
        },
        {
          "duration": 0.0859375,
          "durationTicks": 66,
          "midi": 40,
          "name": "E2",
          "ticks": 132794,
          "time": 172.90885416666666,
          "velocity": 0.2677165354330709
        },
        {
          "duration": 0.07291666666665719,
          "durationTicks": 56,
          "midi": 52,
          "name": "E3",
          "ticks": 132798,
          "time": 172.9140625,
          "velocity": 0.14960629921259844
        },
        {
          "duration": 0.0625,
          "durationTicks": 48,
          "midi": 59,
          "name": "B3",
          "ticks": 132896,
          "time": 173.04166666666666,
          "velocity": 0.7165354330708661
        },
        {
          "duration": 0.015625,
          "durationTicks": 12,
          "midi": 43,
          "name": "G2",
          "ticks": 132906,
          "time": 173.0546875,
          "velocity": 0.05511811023622047
        },
        {
          "duration": 0.08072916666665719,
          "durationTicks": 62,
          "midi": 59,
          "name": "B3",
          "ticks": 132996,
          "time": 173.171875,
          "velocity": 0.7165354330708661
        },
        {
          "duration": 0.03125,
          "durationTicks": 24,
          "midi": 43,
          "name": "G2",
          "ticks": 133000,
          "time": 173.17708333333334,
          "velocity": 0.4094488188976378
        },
        {
          "duration": 0.041666666666685614,
          "durationTicks": 32,
          "midi": 45,
          "name": "A2",
          "ticks": 133178,
          "time": 173.40885416666666,
          "velocity": 0.47244094488188976
        },
        {
          "duration": 0.0703125,
          "durationTicks": 54,
          "midi": 57,
          "name": "A3",
          "ticks": 133188,
          "time": 173.421875,
          "velocity": 0.7165354330708661
        },
        {
          "duration": 0.1328125,
          "durationTicks": 102,
          "midi": 40,
          "name": "E2",
          "ticks": 133390,
          "time": 173.68489583333334,
          "velocity": 0.3937007874015748
        },
        {
          "duration": 0.13020833333331439,
          "durationTicks": 100,
          "midi": 43,
          "name": "G2",
          "ticks": 133492,
          "time": 173.81770833333334,
          "velocity": 0.2125984251968504
        },
        {
          "duration": 0.059895833333314386,
          "durationTicks": 46,
          "midi": 60,
          "name": "C4",
          "ticks": 133492,
          "time": 173.81770833333334,
          "velocity": 0.7165354330708661
        },
        {
          "duration": 0.2526041666666572,
          "durationTicks": 194,
          "midi": 48,
          "name": "C3",
          "ticks": 133578,
          "time": 173.9296875,
          "velocity": 0.47244094488188976
        },
        {
          "duration": 0.09375,
          "durationTicks": 72,
          "midi": 60,
          "name": "C4",
          "ticks": 133588,
          "time": 173.94270833333334,
          "velocity": 0.7165354330708661
        },
        {
          "duration": 0.1302083333333428,
          "durationTicks": 100,
          "midi": 40,
          "name": "E2",
          "ticks": 133778,
          "time": 174.19010416666666,
          "velocity": 0.3464566929133858
        },
        {
          "duration": 0.078125,
          "durationTicks": 60,
          "midi": 60,
          "name": "C4",
          "ticks": 133786,
          "time": 174.20052083333334,
          "velocity": 0.7165354330708661
        },
        {
          "duration": 0.11458333333334281,
          "durationTicks": 88,
          "midi": 47,
          "name": "B2",
          "ticks": 133880,
          "time": 174.32291666666666,
          "velocity": 0.2677165354330709
        },
        {
          "duration": 0.078125,
          "durationTicks": 60,
          "midi": 59,
          "name": "B3",
          "ticks": 133886,
          "time": 174.33072916666666,
          "velocity": 0.7165354330708661
        },
        {
          "duration": 0.1354166666666572,
          "durationTicks": 104,
          "midi": 40,
          "name": "E2",
          "ticks": 133968,
          "time": 174.4375,
          "velocity": 0.25984251968503935
        },
        {
          "duration": 0.1432291666666572,
          "durationTicks": 110,
          "midi": 45,
          "name": "A2",
          "ticks": 134068,
          "time": 174.56770833333334,
          "velocity": 0.31496062992125984
        },
        {
          "duration": 0.08072916666665719,
          "durationTicks": 62,
          "midi": 57,
          "name": "A3",
          "ticks": 134082,
          "time": 174.5859375,
          "velocity": 0.7165354330708661
        },
        {
          "duration": 0.1328125,
          "durationTicks": 102,
          "midi": 40,
          "name": "E2",
          "ticks": 134174,
          "time": 174.70572916666666,
          "velocity": 0.25984251968503935
        },
        {
          "duration": 0.1328125,
          "durationTicks": 102,
          "midi": 43,
          "name": "G2",
          "ticks": 134270,
          "time": 174.83072916666666,
          "velocity": 0.4094488188976378
        },
        {
          "duration": 0.09375,
          "durationTicks": 72,
          "midi": 55,
          "name": "G3",
          "ticks": 134280,
          "time": 174.84375,
          "velocity": 0.7165354330708661
        },
        {
          "duration": 0.09635416666665719,
          "durationTicks": 74,
          "midi": 40,
          "name": "E2",
          "ticks": 134370,
          "time": 174.9609375,
          "velocity": 0.33070866141732286
        },
        {
          "duration": 0.08072916666668561,
          "durationTicks": 62,
          "midi": 52,
          "name": "E3",
          "ticks": 134378,
          "time": 174.97135416666666,
          "velocity": 0.7165354330708661
        },
        {
          "duration": 0.06510416666668561,
          "durationTicks": 50,
          "midi": 43,
          "name": "G2",
          "ticks": 134468,
          "time": 175.08854166666666,
          "velocity": 0.25984251968503935
        },
        {
          "duration": 0.06770833333334281,
          "durationTicks": 52,
          "midi": 60,
          "name": "C4",
          "ticks": 134486,
          "time": 175.11197916666666,
          "velocity": 0.7165354330708661
        },
        {
          "duration": 0.0625,
          "durationTicks": 48,
          "midi": 43,
          "name": "G2",
          "ticks": 134570,
          "time": 175.22135416666666,
          "velocity": 0.3464566929133858
        },
        {
          "duration": 0.09114583333334281,
          "durationTicks": 70,
          "midi": 60,
          "name": "C4",
          "ticks": 134582,
          "time": 175.23697916666666,
          "velocity": 0.6299212598425197
        },
        {
          "duration": 0.044270833333314386,
          "durationTicks": 34,
          "midi": 45,
          "name": "A2",
          "ticks": 134770,
          "time": 175.48177083333334,
          "velocity": 0.3464566929133858
        },
        {
          "duration": 0.06770833333331439,
          "durationTicks": 52,
          "midi": 57,
          "name": "A3",
          "ticks": 134776,
          "time": 175.48958333333334,
          "velocity": 0.7165354330708661
        },
        {
          "duration": 0.125,
          "durationTicks": 96,
          "midi": 40,
          "name": "E2",
          "ticks": 134966,
          "time": 175.73697916666666,
          "velocity": 0.28346456692913385
        },
        {
          "duration": 0.140625,
          "durationTicks": 108,
          "midi": 43,
          "name": "G2",
          "ticks": 135062,
          "time": 175.86197916666666,
          "velocity": 0.2677165354330709
        },
        {
          "duration": 0.06770833333331439,
          "durationTicks": 52,
          "midi": 60,
          "name": "C4",
          "ticks": 135076,
          "time": 175.88020833333334,
          "velocity": 0.7165354330708661
        },
        {
          "duration": 0.2760416666666856,
          "durationTicks": 212,
          "midi": 48,
          "name": "C3",
          "ticks": 135158,
          "time": 175.98697916666666,
          "velocity": 0.4566929133858268
        },
        {
          "duration": 0.09375,
          "durationTicks": 72,
          "midi": 60,
          "name": "C4",
          "ticks": 135176,
          "time": 176.01041666666666,
          "velocity": 0.7165354330708661
        },
        {
          "duration": 0.1432291666666572,
          "durationTicks": 110,
          "midi": 40,
          "name": "E2",
          "ticks": 135366,
          "time": 176.2578125,
          "velocity": 0.2677165354330709
        },
        {
          "duration": 0.06510416666665719,
          "durationTicks": 50,
          "midi": 60,
          "name": "C4",
          "ticks": 135372,
          "time": 176.265625,
          "velocity": 0.6929133858267716
        },
        {
          "duration": 0.11979166666665719,
          "durationTicks": 92,
          "midi": 47,
          "name": "B2",
          "ticks": 135462,
          "time": 176.3828125,
          "velocity": 0.33070866141732286
        },
        {
          "duration": 0.06510416666665719,
          "durationTicks": 50,
          "midi": 59,
          "name": "B3",
          "ticks": 135474,
          "time": 176.3984375,
          "velocity": 0.7165354330708661
        },
        {
          "duration": 0.1354166666666572,
          "durationTicks": 104,
          "midi": 40,
          "name": "E2",
          "ticks": 135556,
          "time": 176.50520833333334,
          "velocity": 0.28346456692913385
        },
        {
          "duration": 0.140625,
          "durationTicks": 108,
          "midi": 45,
          "name": "A2",
          "ticks": 135652,
          "time": 176.63020833333334,
          "velocity": 0.25984251968503935
        },
        {
          "duration": 0.0859375,
          "durationTicks": 66,
          "midi": 57,
          "name": "A3",
          "ticks": 135668,
          "time": 176.65104166666666,
          "velocity": 0.7165354330708661
        },
        {
          "duration": 0.1380208333333428,
          "durationTicks": 106,
          "midi": 40,
          "name": "E2",
          "ticks": 135752,
          "time": 176.76041666666666,
          "velocity": 0.2125984251968504
        },
        {
          "duration": 0.13541666666668561,
          "durationTicks": 104,
          "midi": 43,
          "name": "G2",
          "ticks": 135854,
          "time": 176.89322916666666,
          "velocity": 0.3937007874015748
        },
        {
          "duration": 0.08854166666665719,
          "durationTicks": 68,
          "midi": 55,
          "name": "G3",
          "ticks": 135864,
          "time": 176.90625,
          "velocity": 0.7165354330708661
        },
        {
          "duration": 0.08072916666665719,
          "durationTicks": 62,
          "midi": 40,
          "name": "E2",
          "ticks": 135954,
          "time": 177.0234375,
          "velocity": 0.3937007874015748
        },
        {
          "duration": 0.06510416666665719,
          "durationTicks": 50,
          "midi": 52,
          "name": "E3",
          "ticks": 135964,
          "time": 177.03645833333334,
          "velocity": 0.7165354330708661
        },
        {
          "duration": 0.05729166666665719,
          "durationTicks": 44,
          "midi": 43,
          "name": "G2",
          "ticks": 136056,
          "time": 177.15625,
          "velocity": 0.36220472440944884
        },
        {
          "duration": 0.0625,
          "durationTicks": 48,
          "midi": 59,
          "name": "B3",
          "ticks": 136068,
          "time": 177.171875,
          "velocity": 0.7165354330708661
        },
        {
          "duration": 0.059895833333314386,
          "durationTicks": 46,
          "midi": 43,
          "name": "G2",
          "ticks": 136156,
          "time": 177.28645833333334,
          "velocity": 0.25984251968503935
        },
        {
          "duration": 0.0859375,
          "durationTicks": 66,
          "midi": 59,
          "name": "B3",
          "ticks": 136166,
          "time": 177.29947916666666,
          "velocity": 0.7165354330708661
        },
        {
          "duration": 0.06510416666668561,
          "durationTicks": 50,
          "midi": 45,
          "name": "A2",
          "ticks": 136346,
          "time": 177.53385416666666,
          "velocity": 0.47244094488188976
        },
        {
          "duration": 0.07291666666665719,
          "durationTicks": 56,
          "midi": 57,
          "name": "A3",
          "ticks": 136356,
          "time": 177.546875,
          "velocity": 0.7165354330708661
        }
      ],
      "endOfTrackTicks": 162490
    },
    {
      "channel": 4,
      "controlChanges": {
        "7": [
          {
            "number": 7,
            "ticks": 1536,
            "time": 2,
            "value": 1
          }
        ],
        "10": [
          {
            "number": 10,
            "ticks": 1536,
            "time": 2,
            "value": 0.6929133858267716
          }
        ]
      },
      "pitchBends": [
        {
          "ticks": 162308,
          "time": 211.33854166666666,
          "value": 0
        }
      ],
      "instrument": {
        "family": "ensemble",
        "number": 49,
        "name": "string ensemble 2"
      },
      "name": "SLOWSTRING",
      "notes": [
        {
          "duration": 0.8098958333333286,
          "durationTicks": 622,
          "midi": 67,
          "name": "G4",
          "ticks": 34666,
          "time": 45.138020833333336,
          "velocity": 0.48031496062992124
        },
        {
          "duration": 3.3541666666666643,
          "durationTicks": 2576,
          "midi": 65,
          "name": "F4",
          "ticks": 35254,
          "time": 45.903645833333336,
          "velocity": 0.48031496062992124
        },
        {
          "duration": 0.8828125,
          "durationTicks": 678,
          "midi": 67,
          "name": "G4",
          "ticks": 37834,
          "time": 49.263020833333336,
          "velocity": 0.4645669291338583
        },
        {
          "duration": 2.3203125,
          "durationTicks": 1782,
          "midi": 65,
          "name": "F4",
          "ticks": 38432,
          "time": 50.041666666666664,
          "velocity": 0.4015748031496063
        },
        {
          "duration": 1.8515625,
          "durationTicks": 1422,
          "midi": 64,
          "name": "E4",
          "ticks": 40214,
          "time": 52.361979166666664,
          "velocity": 0.5118110236220472
        },
        {
          "duration": 1.3359375,
          "durationTicks": 1026,
          "midi": 72,
          "name": "C5",
          "ticks": 41592,
          "time": 54.15625,
          "velocity": 0.6062992125984252
        },
        {
          "duration": 1.0494791666666714,
          "durationTicks": 806,
          "midi": 71,
          "name": "B4",
          "ticks": 42596,
          "time": 55.463541666666664,
          "velocity": 0.5905511811023622
        },
        {
          "duration": 1.0729166666666643,
          "durationTicks": 824,
          "midi": 69,
          "name": "A4",
          "ticks": 43378,
          "time": 56.481770833333336,
          "velocity": 0.5118110236220472
        },
        {
          "duration": 0.8046875,
          "durationTicks": 618,
          "midi": 71,
          "name": "B4",
          "ticks": 44182,
          "time": 57.528645833333336,
          "velocity": 0.5590551181102362
        },
        {
          "duration": 1.265625,
          "durationTicks": 972,
          "midi": 72,
          "name": "C5",
          "ticks": 44778,
          "time": 58.3046875,
          "velocity": 0.5275590551181102
        },
        {
          "duration": 1.078125,
          "durationTicks": 828,
          "midi": 71,
          "name": "B4",
          "ticks": 45756,
          "time": 59.578125,
          "velocity": 0.5590551181102362
        },
        {
          "duration": 1.0572916666666643,
          "durationTicks": 812,
          "midi": 69,
          "name": "A4",
          "ticks": 46552,
          "time": 60.614583333333336,
          "velocity": 0.5748031496062992
        },
        {
          "duration": 0.8333333333333357,
          "durationTicks": 640,
          "midi": 68,
          "name": "G#4",
          "ticks": 47346,
          "time": 61.6484375,
          "velocity": 0.48031496062992124
        },
        {
          "duration": 1.3098958333333357,
          "durationTicks": 1006,
          "midi": 72,
          "name": "C5",
          "ticks": 47946,
          "time": 62.4296875,
          "velocity": 0.5748031496062992
        },
        {
          "duration": 1.046875,
          "durationTicks": 804,
          "midi": 71,
          "name": "B4",
          "ticks": 48942,
          "time": 63.7265625,
          "velocity": 0.6220472440944882
        },
        {
          "duration": 1.0546875,
          "durationTicks": 810,
          "midi": 69,
          "name": "A4",
          "ticks": 49732,
          "time": 64.75520833333333,
          "velocity": 0.6062992125984252
        },
        {
          "duration": 0.7916666666666714,
          "durationTicks": 608,
          "midi": 71,
          "name": "B4",
          "ticks": 50526,
          "time": 65.7890625,
          "velocity": 0.6535433070866141
        },
        {
          "duration": 1.2708333333333286,
          "durationTicks": 976,
          "midi": 72,
          "name": "C5",
          "ticks": 51120,
          "time": 66.5625,
          "velocity": 0.5275590551181102
        },
        {
          "duration": 1.0755208333333286,
          "durationTicks": 826,
          "midi": 71,
          "name": "B4",
          "ticks": 52098,
          "time": 67.8359375,
          "velocity": 0.5748031496062992
        },
        {
          "duration": 1.0494791666666572,
          "durationTicks": 806,
          "midi": 69,
          "name": "A4",
          "ticks": 52904,
          "time": 68.88541666666667,
          "velocity": 0.49606299212598426
        },
        {
          "duration": 0.8489583333333286,
          "durationTicks": 652,
          "midi": 68,
          "name": "G#4",
          "ticks": 53690,
          "time": 69.90885416666667,
          "velocity": 0.5118110236220472
        },
        {
          "duration": 3.2994791666666714,
          "durationTicks": 2534,
          "midi": 69,
          "name": "A4",
          "ticks": 54298,
          "time": 70.70052083333333,
          "velocity": 0.5590551181102362
        },
        {
          "duration": 0.7864583333333286,
          "durationTicks": 604,
          "midi": 71,
          "name": "B4",
          "ticks": 56856,
          "time": 74.03125,
          "velocity": 0.44881889763779526
        },
        {
          "duration": 3.3776041666666714,
          "durationTicks": 2594,
          "midi": 69,
          "name": "A4",
          "ticks": 57450,
          "time": 74.8046875,
          "velocity": 0.5590551181102362
        },
        {
          "duration": 0.796875,
          "durationTicks": 612,
          "midi": 71,
          "name": "B4",
          "ticks": 60034,
          "time": 78.16927083333333,
          "velocity": 0.49606299212598426
        },
        {
          "duration": 3.401041666666657,
          "durationTicks": 2612,
          "midi": 69,
          "name": "A4",
          "ticks": 60626,
          "time": 78.94010416666667,
          "velocity": 0.49606299212598426
        },
        {
          "duration": 0.796875,
          "durationTicks": 612,
          "midi": 71,
          "name": "B4",
          "ticks": 63198,
          "time": 82.2890625,
          "velocity": 0.5118110236220472
        },
        {
          "duration": 0.2786458333333286,
          "durationTicks": 214,
          "midi": 69,
          "name": "A4",
          "ticks": 63794,
          "time": 83.06510416666667,
          "velocity": 0.5433070866141733
        },
        {
          "duration": 0.1171875,
          "durationTicks": 90,
          "midi": 68,
          "name": "G#4",
          "ticks": 64002,
          "time": 83.3359375,
          "velocity": 0.5275590551181102
        },
        {
          "duration": 0.8203125,
          "durationTicks": 630,
          "midi": 67,
          "name": "G4",
          "ticks": 85362,
          "time": 111.1484375,
          "velocity": 0.48031496062992124
        },
        {
          "duration": 3.3541666666666714,
          "durationTicks": 2576,
          "midi": 65,
          "name": "F4",
          "ticks": 85956,
          "time": 111.921875,
          "velocity": 0.48031496062992124
        },
        {
          "duration": 0.8854166666666714,
          "durationTicks": 680,
          "midi": 67,
          "name": "G4",
          "ticks": 88536,
          "time": 115.28125,
          "velocity": 0.4645669291338583
        },
        {
          "duration": 2.3125,
          "durationTicks": 1776,
          "midi": 65,
          "name": "F4",
          "ticks": 89138,
          "time": 116.06510416666667,
          "velocity": 0.4015748031496063
        },
        {
          "duration": 1.8489583333333428,
          "durationTicks": 1420,
          "midi": 64,
          "name": "E4",
          "ticks": 90916,
          "time": 118.38020833333333,
          "velocity": 0.5118110236220472
        },
        {
          "duration": 1.3307291666666714,
          "durationTicks": 1022,
          "midi": 72,
          "name": "C5",
          "ticks": 92292,
          "time": 120.171875,
          "velocity": 0.6062992125984252
        },
        {
          "duration": 1.0572916666666572,
          "durationTicks": 812,
          "midi": 71,
          "name": "B4",
          "ticks": 93290,
          "time": 121.47135416666667,
          "velocity": 0.5905511811023622
        },
        {
          "duration": 1.0625,
          "durationTicks": 816,
          "midi": 69,
          "name": "A4",
          "ticks": 94082,
          "time": 122.50260416666667,
          "velocity": 0.5118110236220472
        },
        {
          "duration": 0.8072916666666714,
          "durationTicks": 620,
          "midi": 71,
          "name": "B4",
          "ticks": 94876,
          "time": 123.53645833333333,
          "velocity": 0.5590551181102362
        },
        {
          "duration": 1.265625,
          "durationTicks": 972,
          "midi": 72,
          "name": "C5",
          "ticks": 95474,
          "time": 124.31510416666667,
          "velocity": 0.5275590551181102
        },
        {
          "duration": 1.0755208333333286,
          "durationTicks": 826,
          "midi": 71,
          "name": "B4",
          "ticks": 96452,
          "time": 125.58854166666667,
          "velocity": 0.5590551181102362
        },
        {
          "duration": 1.0494791666666714,
          "durationTicks": 806,
          "midi": 69,
          "name": "A4",
          "ticks": 97254,
          "time": 126.6328125,
          "velocity": 0.5748031496062992
        },
        {
          "duration": 0.8359374999999858,
          "durationTicks": 642,
          "midi": 68,
          "name": "G#4",
          "ticks": 98042,
          "time": 127.65885416666667,
          "velocity": 0.48031496062992124
        },
        {
          "duration": 1.3072916666666856,
          "durationTicks": 1004,
          "midi": 72,
          "name": "C5",
          "ticks": 98648,
          "time": 128.44791666666666,
          "velocity": 0.5748031496062992
        },
        {
          "duration": 1.046875,
          "durationTicks": 804,
          "midi": 71,
          "name": "B4",
          "ticks": 99638,
          "time": 129.73697916666666,
          "velocity": 0.6220472440944882
        },
        {
          "duration": 1.0572916666666572,
          "durationTicks": 812,
          "midi": 69,
          "name": "A4",
          "ticks": 100428,
          "time": 130.765625,
          "velocity": 0.6062992125984252
        },
        {
          "duration": 0.7994791666666572,
          "durationTicks": 614,
          "midi": 71,
          "name": "B4",
          "ticks": 101218,
          "time": 131.79427083333334,
          "velocity": 0.6535433070866141
        },
        {
          "duration": 1.28125,
          "durationTicks": 984,
          "midi": 72,
          "name": "C5",
          "ticks": 101818,
          "time": 132.57552083333334,
          "velocity": 0.5275590551181102
        },
        {
          "duration": 1.0651041666666572,
          "durationTicks": 818,
          "midi": 71,
          "name": "B4",
          "ticks": 102802,
          "time": 133.85677083333334,
          "velocity": 0.5748031496062992
        },
        {
          "duration": 1.0494791666666572,
          "durationTicks": 806,
          "midi": 69,
          "name": "A4",
          "ticks": 103600,
          "time": 134.89583333333334,
          "velocity": 0.49606299212598426
        },
        {
          "duration": 0.8541666666666572,
          "durationTicks": 656,
          "midi": 68,
          "name": "G#4",
          "ticks": 104380,
          "time": 135.91145833333334,
          "velocity": 0.5118110236220472
        },
        {
          "duration": 3.291666666666657,
          "durationTicks": 2528,
          "midi": 69,
          "name": "A4",
          "ticks": 105000,
          "time": 136.71875,
          "velocity": 0.5590551181102362
        },
        {
          "duration": 0.7890625,
          "durationTicks": 606,
          "midi": 71,
          "name": "B4",
          "ticks": 107550,
          "time": 140.0390625,
          "velocity": 0.44881889763779526
        },
        {
          "duration": 0.2734375,
          "durationTicks": 210,
          "midi": 69,
          "name": "A4",
          "ticks": 108144,
          "time": 140.8125,
          "velocity": 0.5590551181102362
        },
        {
          "duration": 0.11979166666665719,
          "durationTicks": 92,
          "midi": 68,
          "name": "G#4",
          "ticks": 108354,
          "time": 141.0859375,
          "velocity": 0.5275590551181102
        },
        {
          "duration": 1.328125,
          "durationTicks": 1020,
          "midi": 72,
          "name": "C5",
          "ticks": 136656,
          "time": 177.9375,
          "velocity": 0.6062992125984252
        },
        {
          "duration": 1.0546875,
          "durationTicks": 810,
          "midi": 71,
          "name": "B4",
          "ticks": 137654,
          "time": 179.23697916666666,
          "velocity": 0.5905511811023622
        },
        {
          "duration": 1.0625,
          "durationTicks": 816,
          "midi": 69,
          "name": "A4",
          "ticks": 138444,
          "time": 180.265625,
          "velocity": 0.5118110236220472
        },
        {
          "duration": 0.8072916666666856,
          "durationTicks": 620,
          "midi": 71,
          "name": "B4",
          "ticks": 139238,
          "time": 181.29947916666666,
          "velocity": 0.5590551181102362
        },
        {
          "duration": 1.2630208333333428,
          "durationTicks": 970,
          "midi": 72,
          "name": "C5",
          "ticks": 139838,
          "time": 182.08072916666666,
          "velocity": 0.5275590551181102
        },
        {
          "duration": 1.0729166666666856,
          "durationTicks": 824,
          "midi": 71,
          "name": "B4",
          "ticks": 140816,
          "time": 183.35416666666666,
          "velocity": 0.5590551181102362
        },
        {
          "duration": 1.0494791666666572,
          "durationTicks": 806,
          "midi": 69,
          "name": "A4",
          "ticks": 141616,
          "time": 184.39583333333334,
          "velocity": 0.5748031496062992
        },
        {
          "duration": 0.828125,
          "durationTicks": 636,
          "midi": 68,
          "name": "G#4",
          "ticks": 142408,
          "time": 185.42708333333334,
          "velocity": 0.48031496062992124
        },
        {
          "duration": 1.3072916666666572,
          "durationTicks": 1004,
          "midi": 72,
          "name": "C5",
          "ticks": 143010,
          "time": 186.2109375,
          "velocity": 0.5748031496062992
        },
        {
          "duration": 1.0442708333333144,
          "durationTicks": 802,
          "midi": 71,
          "name": "B4",
          "ticks": 144004,
          "time": 187.50520833333334,
          "velocity": 0.6220472440944882
        },
        {
          "duration": 1.0520833333333428,
          "durationTicks": 808,
          "midi": 69,
          "name": "A4",
          "ticks": 144794,
          "time": 188.53385416666666,
          "velocity": 0.6062992125984252
        },
        {
          "duration": 0.7994791666666572,
          "durationTicks": 614,
          "midi": 71,
          "name": "B4",
          "ticks": 145582,
          "time": 189.55989583333334,
          "velocity": 0.6535433070866141
        },
        {
          "duration": 1.2734375,
          "durationTicks": 978,
          "midi": 72,
          "name": "C5",
          "ticks": 146180,
          "time": 190.33854166666666,
          "velocity": 0.5275590551181102
        },
        {
          "duration": 1.0625,
          "durationTicks": 816,
          "midi": 71,
          "name": "B4",
          "ticks": 147162,
          "time": 191.6171875,
          "velocity": 0.5748031496062992
        },
        {
          "duration": 1.0494791666666572,
          "durationTicks": 806,
          "midi": 69,
          "name": "A4",
          "ticks": 147960,
          "time": 192.65625,
          "velocity": 0.49606299212598426
        },
        {
          "duration": 0.7682291666666572,
          "durationTicks": 590,
          "midi": 68,
          "name": "G#4",
          "ticks": 148746,
          "time": 193.6796875,
          "velocity": 0.5118110236220472
        },
        {
          "duration": 1.2838541666666572,
          "durationTicks": 986,
          "midi": 72,
          "name": "C5",
          "ticks": 149364,
          "time": 194.484375,
          "velocity": 0.6062992125984252
        },
        {
          "duration": 1.0520833333333428,
          "durationTicks": 808,
          "midi": 71,
          "name": "B4",
          "ticks": 150336,
          "time": 195.75,
          "velocity": 0.5905511811023622
        },
        {
          "duration": 1.0677083333333144,
          "durationTicks": 820,
          "midi": 69,
          "name": "A4",
          "ticks": 151120,
          "time": 196.77083333333334,
          "velocity": 0.5118110236220472
        },
        {
          "duration": 0.8072916666666572,
          "durationTicks": 620,
          "midi": 71,
          "name": "B4",
          "ticks": 151920,
          "time": 197.8125,
          "velocity": 0.5590551181102362
        },
        {
          "duration": 1.2630208333333428,
          "durationTicks": 970,
          "midi": 72,
          "name": "C5",
          "ticks": 152520,
          "time": 198.59375,
          "velocity": 0.5275590551181102
        },
        {
          "duration": 1.078125,
          "durationTicks": 828,
          "midi": 71,
          "name": "B4",
          "ticks": 153496,
          "time": 199.86458333333334,
          "velocity": 0.5590551181102362
        },
        {
          "duration": 1.0520833333333428,
          "durationTicks": 808,
          "midi": 69,
          "name": "A4",
          "ticks": 154298,
          "time": 200.90885416666666,
          "velocity": 0.5748031496062992
        },
        {
          "duration": 0.8307291666666856,
          "durationTicks": 638,
          "midi": 68,
          "name": "G#4",
          "ticks": 155090,
          "time": 201.94010416666666,
          "velocity": 0.48031496062992124
        },
        {
          "duration": 1.3098958333333428,
          "durationTicks": 1006,
          "midi": 72,
          "name": "C5",
          "ticks": 155690,
          "time": 202.72135416666666,
          "velocity": 0.5748031496062992
        },
        {
          "duration": 1.0364583333333144,
          "durationTicks": 796,
          "midi": 71,
          "name": "B4",
          "ticks": 156682,
          "time": 204.01302083333334,
          "velocity": 0.6220472440944882
        },
        {
          "duration": 1.0546875,
          "durationTicks": 810,
          "midi": 69,
          "name": "A4",
          "ticks": 157474,
          "time": 205.04427083333334,
          "velocity": 0.6062992125984252
        },
        {
          "duration": 0.796875,
          "durationTicks": 612,
          "midi": 71,
          "name": "B4",
          "ticks": 158266,
          "time": 206.07552083333334,
          "velocity": 0.6535433070866141
        },
        {
          "duration": 1.2682291666666856,
          "durationTicks": 974,
          "midi": 72,
          "name": "C5",
          "ticks": 158864,
          "time": 206.85416666666666,
          "velocity": 0.5275590551181102
        },
        {
          "duration": 1.0703125,
          "durationTicks": 822,
          "midi": 71,
          "name": "B4",
          "ticks": 159840,
          "time": 208.125,
          "velocity": 0.5748031496062992
        },
        {
          "duration": 1.046875,
          "durationTicks": 804,
          "midi": 69,
          "name": "A4",
          "ticks": 160644,
          "time": 209.171875,
          "velocity": 0.49606299212598426
        },
        {
          "duration": 0.7786458333333428,
          "durationTicks": 598,
          "midi": 68,
          "name": "G#4",
          "ticks": 161426,
          "time": 210.19010416666666,
          "velocity": 0.5118110236220472
        },
        {
          "duration": 0.2291666666666572,
          "durationTicks": 176,
          "midi": 69,
          "name": "A4",
          "ticks": 162046,
          "time": 210.99739583333334,
          "velocity": 0.5511811023622047
        }
      ],
      "endOfTrackTicks": 162500
    },
    {
      "channel": 5,
      "controlChanges": {
        "7": [
          {
            "number": 7,
            "ticks": 1536,
            "time": 2,
            "value": 1
          }
        ],
        "10": [
          {
            "number": 10,
            "ticks": 1536,
            "time": 2,
            "value": 0.2677165354330709
          }
        ]
      },
      "pitchBends": [
        {
          "ticks": 162318,
          "time": 211.3515625,
          "value": 0
        }
      ],
      "instrument": {
        "family": "ensemble",
        "number": 53,
        "name": "voice oohs"
      },
      "name": "VOICE OOHS",
      "notes": [
        {
          "duration": 0.049479166666671404,
          "durationTicks": 38,
          "midi": 72,
          "name": "C5",
          "ticks": 42200,
          "time": 54.947916666666664,
          "velocity": 0.8031496062992126
        },
        {
          "duration": 0.0651041666666643,
          "durationTicks": 50,
          "midi": 64,
          "name": "E4",
          "ticks": 42202,
          "time": 54.950520833333336,
          "velocity": 0.7165354330708661
        },
        {
          "duration": 0.049479166666671404,
          "durationTicks": 38,
          "midi": 72,
          "name": "C5",
          "ticks": 42296,
          "time": 55.072916666666664,
          "velocity": 0.7637795275590551
        },
        {
          "duration": 0.0520833333333357,
          "durationTicks": 40,
          "midi": 64,
          "name": "E4",
          "ticks": 42300,
          "time": 55.078125,
          "velocity": 0.6929133858267716
        },
        {
          "duration": 0.049479166666671404,
          "durationTicks": 38,
          "midi": 64,
          "name": "E4",
          "ticks": 42392,
          "time": 55.197916666666664,
          "velocity": 0.6850393700787402
        },
        {
          "duration": 0.041666666666671404,
          "durationTicks": 32,
          "midi": 72,
          "name": "C5",
          "ticks": 42392,
          "time": 55.197916666666664,
          "velocity": 0.7795275590551181
        },
        {
          "duration": 0.1041666666666643,
          "durationTicks": 80,
          "midi": 64,
          "name": "E4",
          "ticks": 42490,
          "time": 55.325520833333336,
          "velocity": 0.6929133858267716
        },
        {
          "duration": 0.0885416666666643,
          "durationTicks": 68,
          "midi": 72,
          "name": "C5",
          "ticks": 42490,
          "time": 55.325520833333336,
          "velocity": 0.7795275590551181
        },
        {
          "duration": 0.25,
          "durationTicks": 192,
          "midi": 71,
          "name": "B4",
          "ticks": 42602,
          "time": 55.471354166666664,
          "velocity": 0.8031496062992126
        },
        {
          "duration": 0.2083333333333286,
          "durationTicks": 160,
          "midi": 62,
          "name": "D4",
          "ticks": 42604,
          "time": 55.473958333333336,
          "velocity": 0.7165354330708661
        },
        {
          "duration": 0.1822916666666643,
          "durationTicks": 140,
          "midi": 59,
          "name": "B3",
          "ticks": 42784,
          "time": 55.708333333333336,
          "velocity": 0.7086614173228346
        },
        {
          "duration": 0.1119791666666643,
          "durationTicks": 86,
          "midi": 67,
          "name": "G4",
          "ticks": 42796,
          "time": 55.723958333333336,
          "velocity": 0.7952755905511811
        },
        {
          "duration": 0.0989583333333286,
          "durationTicks": 76,
          "midi": 69,
          "name": "A4",
          "ticks": 43186,
          "time": 56.231770833333336,
          "velocity": 0.8031496062992126
        },
        {
          "duration": 0.0859375,
          "durationTicks": 66,
          "midi": 60,
          "name": "C4",
          "ticks": 43188,
          "time": 56.234375,
          "velocity": 0.7165354330708661
        },
        {
          "duration": 0.1692708333333286,
          "durationTicks": 130,
          "midi": 71,
          "name": "B4",
          "ticks": 43288,
          "time": 56.364583333333336,
          "velocity": 0.7480314960629921
        },
        {
          "duration": 0.15625,
          "durationTicks": 120,
          "midi": 62,
          "name": "D4",
          "ticks": 43290,
          "time": 56.3671875,
          "velocity": 0.7086614173228346
        },
        {
          "duration": 0.2682291666666643,
          "durationTicks": 206,
          "midi": 69,
          "name": "A4",
          "ticks": 43392,
          "time": 56.5,
          "velocity": 0.7795275590551181
        },
        {
          "duration": 0.265625,
          "durationTicks": 204,
          "midi": 60,
          "name": "C4",
          "ticks": 43392,
          "time": 56.5,
          "velocity": 0.6692913385826772
        },
        {
          "duration": 0.140625,
          "durationTicks": 108,
          "midi": 57,
          "name": "A3",
          "ticks": 43586,
          "time": 56.752604166666664,
          "velocity": 0.6692913385826772
        },
        {
          "duration": 0.1119791666666714,
          "durationTicks": 86,
          "midi": 65,
          "name": "F4",
          "ticks": 43592,
          "time": 56.760416666666664,
          "velocity": 0.7795275590551181
        },
        {
          "duration": 0.057291666666671404,
          "durationTicks": 44,
          "midi": 60,
          "name": "C4",
          "ticks": 43976,
          "time": 57.260416666666664,
          "velocity": 0.7165354330708661
        },
        {
          "duration": 0.0598958333333357,
          "durationTicks": 46,
          "midi": 69,
          "name": "A4",
          "ticks": 43980,
          "time": 57.265625,
          "velocity": 0.7952755905511811
        },
        {
          "duration": 0.1536458333333357,
          "durationTicks": 118,
          "midi": 60,
          "name": "C4",
          "ticks": 44078,
          "time": 57.393229166666664,
          "velocity": 0.7086614173228346
        },
        {
          "duration": 0.0885416666666714,
          "durationTicks": 68,
          "midi": 69,
          "name": "A4",
          "ticks": 44084,
          "time": 57.401041666666664,
          "velocity": 0.7874015748031497
        },
        {
          "duration": 0.2682291666666643,
          "durationTicks": 206,
          "midi": 67,
          "name": "G4",
          "ticks": 44188,
          "time": 57.536458333333336,
          "velocity": 0.7795275590551181
        },
        {
          "duration": 0.2447916666666643,
          "durationTicks": 188,
          "midi": 59,
          "name": "B3",
          "ticks": 44188,
          "time": 57.536458333333336,
          "velocity": 0.7007874015748031
        },
        {
          "duration": 0.1171875,
          "durationTicks": 90,
          "midi": 64,
          "name": "E4",
          "ticks": 44382,
          "time": 57.7890625,
          "velocity": 0.7559055118110236
        },
        {
          "duration": 0.1041666666666643,
          "durationTicks": 80,
          "midi": 55,
          "name": "G3",
          "ticks": 44382,
          "time": 57.7890625,
          "velocity": 0.7007874015748031
        },
        {
          "duration": 0.0651041666666643,
          "durationTicks": 50,
          "midi": 72,
          "name": "C5",
          "ticks": 45166,
          "time": 58.809895833333336,
          "velocity": 0.8031496062992126
        },
        {
          "duration": 0.0651041666666643,
          "durationTicks": 50,
          "midi": 64,
          "name": "E4",
          "ticks": 45168,
          "time": 58.8125,
          "velocity": 0.7165354330708661
        },
        {
          "duration": 0.0546875,
          "durationTicks": 42,
          "midi": 64,
          "name": "E4",
          "ticks": 45266,
          "time": 58.940104166666664,
          "velocity": 0.6929133858267716
        },
        {
          "duration": 0.057291666666671404,
          "durationTicks": 44,
          "midi": 72,
          "name": "C5",
          "ticks": 45266,
          "time": 58.940104166666664,
          "velocity": 0.7716535433070866
        },
        {
          "duration": 0.1536458333333357,
          "durationTicks": 118,
          "midi": 64,
          "name": "E4",
          "ticks": 45372,
          "time": 59.078125,
          "velocity": 0.7007874015748031
        },
        {
          "duration": 0.1328125,
          "durationTicks": 102,
          "midi": 72,
          "name": "C5",
          "ticks": 45372,
          "time": 59.078125,
          "velocity": 0.7952755905511811
        },
        {
          "duration": 0.0520833333333357,
          "durationTicks": 40,
          "midi": 64,
          "name": "E4",
          "ticks": 45566,
          "time": 59.330729166666664,
          "velocity": 0.7086614173228346
        },
        {
          "duration": 0.057291666666671404,
          "durationTicks": 44,
          "midi": 72,
          "name": "C5",
          "ticks": 45566,
          "time": 59.330729166666664,
          "velocity": 0.8031496062992126
        },
        {
          "duration": 0.1458333333333357,
          "durationTicks": 112,
          "midi": 64,
          "name": "E4",
          "ticks": 45666,
          "time": 59.4609375,
          "velocity": 0.6929133858267716
        },
        {
          "duration": 0.1484375,
          "durationTicks": 114,
          "midi": 72,
          "name": "C5",
          "ticks": 45666,
          "time": 59.4609375,
          "velocity": 0.7952755905511811
        },
        {
          "duration": 0.2708333333333357,
          "durationTicks": 208,
          "midi": 62,
          "name": "D4",
          "ticks": 45764,
          "time": 59.588541666666664,
          "velocity": 0.7086614173228346
        },
        {
          "duration": 0.265625,
          "durationTicks": 204,
          "midi": 71,
          "name": "B4",
          "ticks": 45770,
          "time": 59.596354166666664,
          "velocity": 0.7874015748031497
        },
        {
          "duration": 0.1848958333333286,
          "durationTicks": 142,
          "midi": 59,
          "name": "B3",
          "ticks": 45958,
          "time": 59.841145833333336,
          "velocity": 0.6929133858267716
        },
        {
          "duration": 0.1119791666666643,
          "durationTicks": 86,
          "midi": 67,
          "name": "G4",
          "ticks": 45958,
          "time": 59.841145833333336,
          "velocity": 0.7716535433070866
        },
        {
          "duration": 0.109375,
          "durationTicks": 84,
          "midi": 60,
          "name": "C4",
          "ticks": 46352,
          "time": 60.354166666666664,
          "velocity": 0.7165354330708661
        },
        {
          "duration": 0.1041666666666714,
          "durationTicks": 80,
          "midi": 72,
          "name": "C5",
          "ticks": 46358,
          "time": 60.361979166666664,
          "velocity": 0.7874015748031497
        },
        {
          "duration": 0.1640625,
          "durationTicks": 126,
          "midi": 62,
          "name": "D4",
          "ticks": 46456,
          "time": 60.489583333333336,
          "velocity": 0.7086614173228346
        },
        {
          "duration": 0.15625,
          "durationTicks": 120,
          "midi": 74,
          "name": "D5",
          "ticks": 46460,
          "time": 60.494791666666664,
          "velocity": 0.7952755905511811
        },
        {
          "duration": 0.296875,
          "durationTicks": 228,
          "midi": 60,
          "name": "C4",
          "ticks": 46558,
          "time": 60.622395833333336,
          "velocity": 0.7165354330708661
        },
        {
          "duration": 0.2109375,
          "durationTicks": 162,
          "midi": 69,
          "name": "A4",
          "ticks": 46566,
          "time": 60.6328125,
          "velocity": 0.7952755905511811
        },
        {
          "duration": 0.1067708333333357,
          "durationTicks": 82,
          "midi": 65,
          "name": "F4",
          "ticks": 46758,
          "time": 60.8828125,
          "velocity": 0.7952755905511811
        },
        {
          "duration": 0.1328125,
          "durationTicks": 102,
          "midi": 57,
          "name": "A3",
          "ticks": 46758,
          "time": 60.8828125,
          "velocity": 0.6614173228346457
        },
        {
          "duration": 0.0546875,
          "durationTicks": 42,
          "midi": 60,
          "name": "C4",
          "ticks": 47146,
          "time": 61.388020833333336,
          "velocity": 0.7165354330708661
        },
        {
          "duration": 0.0390625,
          "durationTicks": 30,
          "midi": 69,
          "name": "A4",
          "ticks": 47152,
          "time": 61.395833333333336,
          "velocity": 0.7952755905511811
        },
        {
          "duration": 0.0807291666666714,
          "durationTicks": 62,
          "midi": 69,
          "name": "A4",
          "ticks": 47252,
          "time": 61.526041666666664,
          "velocity": 0.8031496062992126
        },
        {
          "duration": 0.0755208333333357,
          "durationTicks": 58,
          "midi": 60,
          "name": "C4",
          "ticks": 47252,
          "time": 61.526041666666664,
          "velocity": 0.7165354330708661
        },
        {
          "duration": 0.1197916666666714,
          "durationTicks": 92,
          "midi": 68,
          "name": "G#4",
          "ticks": 47348,
          "time": 61.651041666666664,
          "velocity": 0.7637795275590551
        },
        {
          "duration": 0.1354166666666643,
          "durationTicks": 104,
          "midi": 59,
          "name": "B3",
          "ticks": 47356,
          "time": 61.661458333333336,
          "velocity": 0.7165354330708661
        },
        {
          "duration": 0.1822916666666643,
          "durationTicks": 140,
          "midi": 68,
          "name": "G#4",
          "ticks": 47550,
          "time": 61.9140625,
          "velocity": 0.7952755905511811
        },
        {
          "duration": 0.2447916666666643,
          "durationTicks": 188,
          "midi": 59,
          "name": "B3",
          "ticks": 47550,
          "time": 61.9140625,
          "velocity": 0.7165354330708661
        },
        {
          "duration": 0.21875,
          "durationTicks": 168,
          "midi": 71,
          "name": "B4",
          "ticks": 47748,
          "time": 62.171875,
          "velocity": 0.7716535433070866
        },
        {
          "duration": 0.1380208333333357,
          "durationTicks": 106,
          "midi": 64,
          "name": "E4",
          "ticks": 47754,
          "time": 62.1796875,
          "velocity": 0.6929133858267716
        },
        {
          "duration": 0.1458333333333357,
          "durationTicks": 112,
          "midi": 72,
          "name": "C5",
          "ticks": 47948,
          "time": 62.432291666666664,
          "velocity": 0.7874015748031497
        },
        {
          "duration": 0.1197916666666643,
          "durationTicks": 92,
          "midi": 64,
          "name": "E4",
          "ticks": 47950,
          "time": 62.434895833333336,
          "velocity": 0.6850393700787402
        },
        {
          "duration": 0.0625,
          "durationTicks": 48,
          "midi": 72,
          "name": "C5",
          "ticks": 48340,
          "time": 62.942708333333336,
          "velocity": 0.7952755905511811
        },
        {
          "duration": 0.0625,
          "durationTicks": 48,
          "midi": 64,
          "name": "E4",
          "ticks": 48344,
          "time": 62.947916666666664,
          "velocity": 0.7007874015748031
        },
        {
          "duration": 0.0598958333333357,
          "durationTicks": 46,
          "midi": 72,
          "name": "C5",
          "ticks": 48432,
          "time": 63.0625,
          "velocity": 0.7480314960629921
        },
        {
          "duration": 0.0677083333333286,
          "durationTicks": 52,
          "midi": 64,
          "name": "E4",
          "ticks": 48436,
          "time": 63.067708333333336,
          "velocity": 0.6929133858267716
        },
        {
          "duration": 0.057291666666671404,
          "durationTicks": 44,
          "midi": 72,
          "name": "C5",
          "ticks": 48542,
          "time": 63.205729166666664,
          "velocity": 0.7795275590551181
        },
        {
          "duration": 0.0546875,
          "durationTicks": 42,
          "midi": 64,
          "name": "E4",
          "ticks": 48544,
          "time": 63.208333333333336,
          "velocity": 0.6771653543307087
        },
        {
          "duration": 0.057291666666671404,
          "durationTicks": 44,
          "midi": 72,
          "name": "C5",
          "ticks": 48638,
          "time": 63.330729166666664,
          "velocity": 0.7952755905511811
        },
        {
          "duration": 0.0546875,
          "durationTicks": 42,
          "midi": 64,
          "name": "E4",
          "ticks": 48638,
          "time": 63.330729166666664,
          "velocity": 0.6929133858267716
        },
        {
          "duration": 0.0520833333333357,
          "durationTicks": 40,
          "midi": 64,
          "name": "E4",
          "ticks": 48734,
          "time": 63.455729166666664,
          "velocity": 0.7086614173228346
        },
        {
          "duration": 0.0651041666666714,
          "durationTicks": 50,
          "midi": 72,
          "name": "C5",
          "ticks": 48734,
          "time": 63.455729166666664,
          "velocity": 0.7952755905511811
        },
        {
          "duration": 0.0911458333333357,
          "durationTicks": 70,
          "midi": 72,
          "name": "C5",
          "ticks": 48830,
          "time": 63.580729166666664,
          "velocity": 0.7559055118110236
        },
        {
          "duration": 0.0885416666666714,
          "durationTicks": 68,
          "midi": 64,
          "name": "E4",
          "ticks": 48836,
          "time": 63.588541666666664,
          "velocity": 0.7086614173228346
        },
        {
          "duration": 0.2291666666666643,
          "durationTicks": 176,
          "midi": 62,
          "name": "D4",
          "ticks": 48942,
          "time": 63.7265625,
          "velocity": 0.7086614173228346
        },
        {
          "duration": 0.2239583333333357,
          "durationTicks": 172,
          "midi": 71,
          "name": "B4",
          "ticks": 48942,
          "time": 63.7265625,
          "velocity": 0.8031496062992126
        },
        {
          "duration": 0.1197916666666643,
          "durationTicks": 92,
          "midi": 67,
          "name": "G4",
          "ticks": 49136,
          "time": 63.979166666666664,
          "velocity": 0.7795275590551181
        },
        {
          "duration": 0.1197916666666643,
          "durationTicks": 92,
          "midi": 59,
          "name": "B3",
          "ticks": 49136,
          "time": 63.979166666666664,
          "velocity": 0.6929133858267716
        },
        {
          "duration": 0.059895833333328596,
          "durationTicks": 46,
          "midi": 69,
          "name": "A4",
          "ticks": 49424,
          "time": 64.35416666666667,
          "velocity": 0.8031496062992126
        },
        {
          "duration": 0.057291666666671404,
          "durationTicks": 44,
          "midi": 60,
          "name": "C4",
          "ticks": 49426,
          "time": 64.35677083333333,
          "velocity": 0.7165354330708661
        },
        {
          "duration": 0.0729166666666714,
          "durationTicks": 56,
          "midi": 60,
          "name": "C4",
          "ticks": 49528,
          "time": 64.48958333333333,
          "velocity": 0.6929133858267716
        },
        {
          "duration": 0.06770833333334281,
          "durationTicks": 52,
          "midi": 69,
          "name": "A4",
          "ticks": 49528,
          "time": 64.48958333333333,
          "velocity": 0.8031496062992126
        },
        {
          "duration": 0.1510416666666714,
          "durationTicks": 116,
          "midi": 71,
          "name": "B4",
          "ticks": 49630,
          "time": 64.62239583333333,
          "velocity": 0.8031496062992126
        },
        {
          "duration": 0.057291666666671404,
          "durationTicks": 44,
          "midi": 60,
          "name": "C4",
          "ticks": 49632,
          "time": 64.625,
          "velocity": 0.6377952755905512
        },
        {
          "duration": 0.140625,
          "durationTicks": 108,
          "midi": 62,
          "name": "D4",
          "ticks": 49634,
          "time": 64.62760416666667,
          "velocity": 0.6377952755905512
        },
        {
          "duration": 0.2213541666666714,
          "durationTicks": 170,
          "midi": 69,
          "name": "A4",
          "ticks": 49726,
          "time": 64.74739583333333,
          "velocity": 0.7952755905511811
        },
        {
          "duration": 0.203125,
          "durationTicks": 156,
          "midi": 60,
          "name": "C4",
          "ticks": 49732,
          "time": 64.75520833333333,
          "velocity": 0.7322834645669292
        },
        {
          "duration": 0.1822916666666572,
          "durationTicks": 140,
          "midi": 65,
          "name": "F4",
          "ticks": 49916,
          "time": 64.99479166666667,
          "velocity": 0.7874015748031497
        },
        {
          "duration": 0.1614583333333286,
          "durationTicks": 124,
          "midi": 57,
          "name": "A3",
          "ticks": 49926,
          "time": 65.0078125,
          "velocity": 0.7007874015748031
        },
        {
          "duration": 0.057291666666671404,
          "durationTicks": 44,
          "midi": 69,
          "name": "A4",
          "ticks": 50316,
          "time": 65.515625,
          "velocity": 0.8031496062992126
        },
        {
          "duration": 0.049479166666671404,
          "durationTicks": 38,
          "midi": 60,
          "name": "C4",
          "ticks": 50320,
          "time": 65.52083333333333,
          "velocity": 0.7165354330708661
        },
        {
          "duration": 0.0807291666666714,
          "durationTicks": 62,
          "midi": 60,
          "name": "C4",
          "ticks": 50416,
          "time": 65.64583333333333,
          "velocity": 0.7086614173228346
        },
        {
          "duration": 0.10416666666665719,
          "durationTicks": 80,
          "midi": 69,
          "name": "A4",
          "ticks": 50420,
          "time": 65.65104166666667,
          "velocity": 0.7952755905511811
        },
        {
          "duration": 0.2734375,
          "durationTicks": 210,
          "midi": 71,
          "name": "B4",
          "ticks": 50520,
          "time": 65.78125,
          "velocity": 0.7322834645669292
        },
        {
          "duration": 0.2630208333333286,
          "durationTicks": 202,
          "midi": 62,
          "name": "D4",
          "ticks": 50528,
          "time": 65.79166666666667,
          "velocity": 0.7007874015748031
        },
        {
          "duration": 0.1666666666666714,
          "durationTicks": 128,
          "midi": 67,
          "name": "G4",
          "ticks": 50718,
          "time": 66.0390625,
          "velocity": 0.8031496062992126
        },
        {
          "duration": 0.1041666666666714,
          "durationTicks": 80,
          "midi": 59,
          "name": "B3",
          "ticks": 50722,
          "time": 66.04427083333333,
          "velocity": 0.6929133858267716
        },
        {
          "duration": 0.0625,
          "durationTicks": 48,
          "midi": 72,
          "name": "C5",
          "ticks": 51506,
          "time": 67.06510416666667,
          "velocity": 0.8031496062992126
        },
        {
          "duration": 0.06770833333334281,
          "durationTicks": 52,
          "midi": 64,
          "name": "E4",
          "ticks": 51508,
          "time": 67.06770833333333,
          "velocity": 0.7165354330708661
        },
        {
          "duration": 0.057291666666671404,
          "durationTicks": 44,
          "midi": 64,
          "name": "E4",
          "ticks": 51604,
          "time": 67.19270833333333,
          "velocity": 0.6929133858267716
        },
        {
          "duration": 0.0546875,
          "durationTicks": 42,
          "midi": 72,
          "name": "C5",
          "ticks": 51604,
          "time": 67.19270833333333,
          "velocity": 0.7716535433070866
        },
        {
          "duration": 0.05208333333334281,
          "durationTicks": 40,
          "midi": 64,
          "name": "E4",
          "ticks": 51706,
          "time": 67.32552083333333,
          "velocity": 0.6929133858267716
        },
        {
          "duration": 0.046875,
          "durationTicks": 36,
          "midi": 72,
          "name": "C5",
          "ticks": 51712,
          "time": 67.33333333333333,
          "velocity": 0.7716535433070866
        },
        {
          "duration": 0.0546875,
          "durationTicks": 42,
          "midi": 64,
          "name": "E4",
          "ticks": 51800,
          "time": 67.44791666666667,
          "velocity": 0.7007874015748031
        },
        {
          "duration": 0.0677083333333286,
          "durationTicks": 52,
          "midi": 72,
          "name": "C5",
          "ticks": 51806,
          "time": 67.45572916666667,
          "velocity": 0.7952755905511811
        },
        {
          "duration": 0.04427083333334281,
          "durationTicks": 34,
          "midi": 64,
          "name": "E4",
          "ticks": 51898,
          "time": 67.57552083333333,
          "velocity": 0.7086614173228346
        },
        {
          "duration": 0.049479166666671404,
          "durationTicks": 38,
          "midi": 72,
          "name": "C5",
          "ticks": 51904,
          "time": 67.58333333333333,
          "velocity": 0.7795275590551181
        },
        {
          "duration": 0.0755208333333286,
          "durationTicks": 58,
          "midi": 64,
          "name": "E4",
          "ticks": 51998,
          "time": 67.70572916666667,
          "velocity": 0.6771653543307087
        },
        {
          "duration": 0.0833333333333286,
          "durationTicks": 64,
          "midi": 72,
          "name": "C5",
          "ticks": 51998,
          "time": 67.70572916666667,
          "velocity": 0.7795275590551181
        },
        {
          "duration": 0.2421875,
          "durationTicks": 186,
          "midi": 71,
          "name": "B4",
          "ticks": 52106,
          "time": 67.84635416666667,
          "velocity": 0.7795275590551181
        },
        {
          "duration": 0.2005208333333428,
          "durationTicks": 154,
          "midi": 62,
          "name": "D4",
          "ticks": 52108,
          "time": 67.84895833333333,
          "velocity": 0.7244094488188977
        },
        {
          "duration": 0.1614583333333428,
          "durationTicks": 124,
          "midi": 67,
          "name": "G4",
          "ticks": 52294,
          "time": 68.09114583333333,
          "velocity": 0.7716535433070866
        },
        {
          "duration": 0.1796875,
          "durationTicks": 138,
          "midi": 59,
          "name": "B3",
          "ticks": 52296,
          "time": 68.09375,
          "velocity": 0.6929133858267716
        },
        {
          "duration": 0.0989583333333286,
          "durationTicks": 76,
          "midi": 60,
          "name": "C4",
          "ticks": 52694,
          "time": 68.61197916666667,
          "velocity": 0.7244094488188977
        },
        {
          "duration": 0.0989583333333286,
          "durationTicks": 76,
          "midi": 69,
          "name": "A4",
          "ticks": 52700,
          "time": 68.61979166666667,
          "velocity": 0.8031496062992126
        },
        {
          "duration": 0.1692708333333428,
          "durationTicks": 130,
          "midi": 71,
          "name": "B4",
          "ticks": 52792,
          "time": 68.73958333333333,
          "velocity": 0.7480314960629921
        },
        {
          "duration": 0.1796875,
          "durationTicks": 138,
          "midi": 62,
          "name": "D4",
          "ticks": 52794,
          "time": 68.7421875,
          "velocity": 0.7086614173228346
        },
        {
          "duration": 0.2630208333333428,
          "durationTicks": 202,
          "midi": 69,
          "name": "A4",
          "ticks": 52906,
          "time": 68.88802083333333,
          "velocity": 0.8031496062992126
        },
        {
          "duration": 0.2630208333333428,
          "durationTicks": 202,
          "midi": 60,
          "name": "C4",
          "ticks": 52906,
          "time": 68.88802083333333,
          "velocity": 0.7086614173228346
        },
        {
          "duration": 0.1015625,
          "durationTicks": 78,
          "midi": 65,
          "name": "F4",
          "ticks": 53102,
          "time": 69.14322916666667,
          "velocity": 0.7559055118110236
        },
        {
          "duration": 0.1328125,
          "durationTicks": 102,
          "midi": 57,
          "name": "A3",
          "ticks": 53102,
          "time": 69.14322916666667,
          "velocity": 0.6929133858267716
        },
        {
          "duration": 0.057291666666671404,
          "durationTicks": 44,
          "midi": 69,
          "name": "A4",
          "ticks": 53488,
          "time": 69.64583333333333,
          "velocity": 0.8031496062992126
        },
        {
          "duration": 0.0625,
          "durationTicks": 48,
          "midi": 60,
          "name": "C4",
          "ticks": 53492,
          "time": 69.65104166666667,
          "velocity": 0.7165354330708661
        },
        {
          "duration": 0.10677083333334281,
          "durationTicks": 82,
          "midi": 69,
          "name": "A4",
          "ticks": 53590,
          "time": 69.77864583333333,
          "velocity": 0.7952755905511811
        },
        {
          "duration": 0.10416666666665719,
          "durationTicks": 80,
          "midi": 60,
          "name": "C4",
          "ticks": 53594,
          "time": 69.78385416666667,
          "velocity": 0.6929133858267716
        },
        {
          "duration": 0.2734375,
          "durationTicks": 210,
          "midi": 71,
          "name": "B4",
          "ticks": 53692,
          "time": 69.91145833333333,
          "velocity": 0.7244094488188977
        },
        {
          "duration": 0.21875,
          "durationTicks": 168,
          "midi": 62,
          "name": "D4",
          "ticks": 53704,
          "time": 69.92708333333333,
          "velocity": 0.7165354330708661
        },
        {
          "duration": 0.1614583333333428,
          "durationTicks": 124,
          "midi": 68,
          "name": "G#4",
          "ticks": 53884,
          "time": 70.16145833333333,
          "velocity": 0.7559055118110236
        },
        {
          "duration": 0.1197916666666714,
          "durationTicks": 92,
          "midi": 59,
          "name": "B3",
          "ticks": 53896,
          "time": 70.17708333333333,
          "velocity": 0.7086614173228346
        },
        {
          "duration": 0.059895833333328596,
          "durationTicks": 46,
          "midi": 64,
          "name": "E4",
          "ticks": 92898,
          "time": 120.9609375,
          "velocity": 0.7086614173228346
        },
        {
          "duration": 0.0625,
          "durationTicks": 48,
          "midi": 72,
          "name": "C5",
          "ticks": 92902,
          "time": 120.96614583333333,
          "velocity": 0.7874015748031497
        },
        {
          "duration": 0.057291666666671404,
          "durationTicks": 44,
          "midi": 64,
          "name": "E4",
          "ticks": 92992,
          "time": 121.08333333333333,
          "velocity": 0.6771653543307087
        },
        {
          "duration": 0.044270833333328596,
          "durationTicks": 34,
          "midi": 72,
          "name": "C5",
          "ticks": 92996,
          "time": 121.08854166666667,
          "velocity": 0.7244094488188977
        },
        {
          "duration": 0.05208333333334281,
          "durationTicks": 40,
          "midi": 72,
          "name": "C5",
          "ticks": 93094,
          "time": 121.21614583333333,
          "velocity": 0.7559055118110236
        },
        {
          "duration": 0.0390625,
          "durationTicks": 30,
          "midi": 64,
          "name": "E4",
          "ticks": 93094,
          "time": 121.21614583333333,
          "velocity": 0.6692913385826772
        },
        {
          "duration": 0.09375,
          "durationTicks": 72,
          "midi": 72,
          "name": "C5",
          "ticks": 93192,
          "time": 121.34375,
          "velocity": 0.7480314960629921
        },
        {
          "duration": 0.078125,
          "durationTicks": 60,
          "midi": 64,
          "name": "E4",
          "ticks": 93192,
          "time": 121.34375,
          "velocity": 0.7086614173228346
        },
        {
          "duration": 0.2213541666666714,
          "durationTicks": 170,
          "midi": 71,
          "name": "B4",
          "ticks": 93298,
          "time": 121.48177083333333,
          "velocity": 0.8031496062992126
        },
        {
          "duration": 0.2317708333333428,
          "durationTicks": 178,
          "midi": 62,
          "name": "D4",
          "ticks": 93298,
          "time": 121.48177083333333,
          "velocity": 0.7244094488188977
        },
        {
          "duration": 0.15625,
          "durationTicks": 120,
          "midi": 67,
          "name": "G4",
          "ticks": 93494,
          "time": 121.73697916666667,
          "velocity": 0.7795275590551181
        },
        {
          "duration": 0.125,
          "durationTicks": 96,
          "midi": 59,
          "name": "B3",
          "ticks": 93494,
          "time": 121.73697916666667,
          "velocity": 0.7007874015748031
        },
        {
          "duration": 0.0833333333333286,
          "durationTicks": 64,
          "midi": 60,
          "name": "C4",
          "ticks": 93884,
          "time": 122.24479166666667,
          "velocity": 0.7165354330708661
        },
        {
          "duration": 0.09375,
          "durationTicks": 72,
          "midi": 69,
          "name": "A4",
          "ticks": 93884,
          "time": 122.24479166666667,
          "velocity": 0.7874015748031497
        },
        {
          "duration": 0.1510416666666714,
          "durationTicks": 116,
          "midi": 62,
          "name": "D4",
          "ticks": 93984,
          "time": 122.375,
          "velocity": 0.6692913385826772
        },
        {
          "duration": 0.1510416666666714,
          "durationTicks": 116,
          "midi": 71,
          "name": "B4",
          "ticks": 93984,
          "time": 122.375,
          "velocity": 0.7244094488188977
        },
        {
          "duration": 0.2864583333333428,
          "durationTicks": 220,
          "midi": 60,
          "name": "C4",
          "ticks": 94084,
          "time": 122.50520833333333,
          "velocity": 0.7007874015748031
        },
        {
          "duration": 0.2734375,
          "durationTicks": 210,
          "midi": 69,
          "name": "A4",
          "ticks": 94084,
          "time": 122.50520833333333,
          "velocity": 0.7952755905511811
        },
        {
          "duration": 0.1354166666666572,
          "durationTicks": 104,
          "midi": 65,
          "name": "F4",
          "ticks": 94274,
          "time": 122.75260416666667,
          "velocity": 0.7559055118110236
        },
        {
          "duration": 0.1302083333333428,
          "durationTicks": 100,
          "midi": 57,
          "name": "A3",
          "ticks": 94282,
          "time": 122.76302083333333,
          "velocity": 0.6929133858267716
        },
        {
          "duration": 0.0729166666666714,
          "durationTicks": 56,
          "midi": 60,
          "name": "C4",
          "ticks": 94672,
          "time": 123.27083333333333,
          "velocity": 0.6929133858267716
        },
        {
          "duration": 0.05989583333334281,
          "durationTicks": 46,
          "midi": 69,
          "name": "A4",
          "ticks": 94672,
          "time": 123.27083333333333,
          "velocity": 0.8031496062992126
        },
        {
          "duration": 0.0833333333333286,
          "durationTicks": 64,
          "midi": 60,
          "name": "C4",
          "ticks": 94776,
          "time": 123.40625,
          "velocity": 0.6929133858267716
        },
        {
          "duration": 0.1536458333333286,
          "durationTicks": 118,
          "midi": 69,
          "name": "A4",
          "ticks": 94776,
          "time": 123.40625,
          "velocity": 0.7874015748031497
        },
        {
          "duration": 0.265625,
          "durationTicks": 204,
          "midi": 71,
          "name": "B4",
          "ticks": 94880,
          "time": 123.54166666666667,
          "velocity": 0.7559055118110236
        },
        {
          "duration": 0.2395833333333428,
          "durationTicks": 184,
          "midi": 62,
          "name": "D4",
          "ticks": 94882,
          "time": 123.54427083333333,
          "velocity": 0.7244094488188977
        },
        {
          "duration": 0.125,
          "durationTicks": 96,
          "midi": 59,
          "name": "B3",
          "ticks": 95074,
          "time": 123.79427083333333,
          "velocity": 0.6850393700787402
        },
        {
          "duration": 0.1171875,
          "durationTicks": 90,
          "midi": 67,
          "name": "G4",
          "ticks": 95074,
          "time": 123.79427083333333,
          "velocity": 0.7952755905511811
        },
        {
          "duration": 0.0651041666666714,
          "durationTicks": 50,
          "midi": 72,
          "name": "C5",
          "ticks": 95866,
          "time": 124.82552083333333,
          "velocity": 0.7952755905511811
        },
        {
          "duration": 0.0625,
          "durationTicks": 48,
          "midi": 64,
          "name": "E4",
          "ticks": 95868,
          "time": 124.828125,
          "velocity": 0.6929133858267716
        },
        {
          "duration": 0.0625,
          "durationTicks": 48,
          "midi": 72,
          "name": "C5",
          "ticks": 95962,
          "time": 124.95052083333333,
          "velocity": 0.7716535433070866
        },
        {
          "duration": 0.0677083333333286,
          "durationTicks": 52,
          "midi": 64,
          "name": "E4",
          "ticks": 95964,
          "time": 124.953125,
          "velocity": 0.6929133858267716
        },
        {
          "duration": 0.171875,
          "durationTicks": 132,
          "midi": 72,
          "name": "C5",
          "ticks": 96068,
          "time": 125.08854166666667,
          "velocity": 0.7795275590551181
        },
        {
          "duration": 0.1666666666666572,
          "durationTicks": 128,
          "midi": 64,
          "name": "E4",
          "ticks": 96068,
          "time": 125.08854166666667,
          "velocity": 0.6929133858267716
        },
        {
          "duration": 0.0546875,
          "durationTicks": 42,
          "midi": 72,
          "name": "C5",
          "ticks": 96264,
          "time": 125.34375,
          "velocity": 0.7874015748031497
        },
        {
          "duration": 0.046875,
          "durationTicks": 36,
          "midi": 64,
          "name": "E4",
          "ticks": 96264,
          "time": 125.34375,
          "velocity": 0.7165354330708661
        },
        {
          "duration": 0.1588541666666714,
          "durationTicks": 122,
          "midi": 72,
          "name": "C5",
          "ticks": 96364,
          "time": 125.47395833333333,
          "velocity": 0.7952755905511811
        },
        {
          "duration": 0.0703125,
          "durationTicks": 54,
          "midi": 64,
          "name": "E4",
          "ticks": 96364,
          "time": 125.47395833333333,
          "velocity": 0.7086614173228346
        },
        {
          "duration": 0.2317708333333428,
          "durationTicks": 178,
          "midi": 62,
          "name": "D4",
          "ticks": 96460,
          "time": 125.59895833333333,
          "velocity": 0.6929133858267716
        },
        {
          "duration": 0.2552083333333286,
          "durationTicks": 196,
          "midi": 71,
          "name": "B4",
          "ticks": 96470,
          "time": 125.61197916666667,
          "velocity": 0.8031496062992126
        },
        {
          "duration": 0.109375,
          "durationTicks": 84,
          "midi": 59,
          "name": "B3",
          "ticks": 96652,
          "time": 125.84895833333333,
          "velocity": 0.6692913385826772
        },
        {
          "duration": 0.1276041666666572,
          "durationTicks": 98,
          "midi": 67,
          "name": "G4",
          "ticks": 96662,
          "time": 125.86197916666667,
          "velocity": 0.7795275590551181
        },
        {
          "duration": 0.0989583333333286,
          "durationTicks": 76,
          "midi": 69,
          "name": "A4",
          "ticks": 97052,
          "time": 126.36979166666667,
          "velocity": 0.7874015748031497
        },
        {
          "duration": 0.06770833333334281,
          "durationTicks": 52,
          "midi": 60,
          "name": "C4",
          "ticks": 97054,
          "time": 126.37239583333333,
          "velocity": 0.7086614173228346
        },
        {
          "duration": 0.1536458333333286,
          "durationTicks": 118,
          "midi": 62,
          "name": "D4",
          "ticks": 97152,
          "time": 126.5,
          "velocity": 0.5748031496062992
        },
        {
          "duration": 0.1536458333333286,
          "durationTicks": 118,
          "midi": 71,
          "name": "B4",
          "ticks": 97152,
          "time": 126.5,
          "velocity": 0.7086614173228346
        },
        {
          "duration": 0.2994791666666714,
          "durationTicks": 230,
          "midi": 69,
          "name": "A4",
          "ticks": 97246,
          "time": 126.62239583333333,
          "velocity": 0.7874015748031497
        },
        {
          "duration": 0.2630208333333286,
          "durationTicks": 202,
          "midi": 60,
          "name": "C4",
          "ticks": 97260,
          "time": 126.640625,
          "velocity": 0.6771653543307087
        },
        {
          "duration": 0.1015625,
          "durationTicks": 78,
          "midi": 57,
          "name": "A3",
          "ticks": 97456,
          "time": 126.89583333333333,
          "velocity": 0.6929133858267716
        },
        {
          "duration": 0.125,
          "durationTicks": 96,
          "midi": 65,
          "name": "F4",
          "ticks": 97456,
          "time": 126.89583333333333,
          "velocity": 0.7559055118110236
        },
        {
          "duration": 0.05989583333334281,
          "durationTicks": 46,
          "midi": 69,
          "name": "A4",
          "ticks": 97840,
          "time": 127.39583333333333,
          "velocity": 0.8031496062992126
        },
        {
          "duration": 0.0625,
          "durationTicks": 48,
          "midi": 60,
          "name": "C4",
          "ticks": 97842,
          "time": 127.3984375,
          "velocity": 0.7165354330708661
        },
        {
          "duration": 0.1484375,
          "durationTicks": 114,
          "midi": 60,
          "name": "C4",
          "ticks": 97946,
          "time": 127.53385416666667,
          "velocity": 0.7165354330708661
        },
        {
          "duration": 0.1484375,
          "durationTicks": 114,
          "midi": 69,
          "name": "A4",
          "ticks": 97946,
          "time": 127.53385416666667,
          "velocity": 0.8031496062992126
        },
        {
          "duration": 0.171875,
          "durationTicks": 132,
          "midi": 68,
          "name": "G#4",
          "ticks": 98046,
          "time": 127.6640625,
          "velocity": 0.7637795275590551
        },
        {
          "duration": 0.1171875,
          "durationTicks": 90,
          "midi": 59,
          "name": "B3",
          "ticks": 98050,
          "time": 127.66927083333333,
          "velocity": 0.6929133858267716
        },
        {
          "duration": 0.2890625000000142,
          "durationTicks": 222,
          "midi": 59,
          "name": "B3",
          "ticks": 98236,
          "time": 127.91145833333333,
          "velocity": 0.7086614173228346
        },
        {
          "duration": 0.2630208333333286,
          "durationTicks": 202,
          "midi": 68,
          "name": "G#4",
          "ticks": 98246,
          "time": 127.92447916666667,
          "velocity": 0.7795275590551181
        },
        {
          "duration": 0.1328125,
          "durationTicks": 102,
          "midi": 64,
          "name": "E4",
          "ticks": 98446,
          "time": 128.18489583333334,
          "velocity": 0.6929133858267716
        },
        {
          "duration": 0.2265625,
          "durationTicks": 174,
          "midi": 71,
          "name": "B4",
          "ticks": 98446,
          "time": 128.18489583333334,
          "velocity": 0.7716535433070866
        },
        {
          "duration": 0.1432291666666572,
          "durationTicks": 110,
          "midi": 72,
          "name": "C5",
          "ticks": 98632,
          "time": 128.42708333333334,
          "velocity": 0.7559055118110236
        },
        {
          "duration": 0.10416666666668561,
          "durationTicks": 80,
          "midi": 64,
          "name": "E4",
          "ticks": 98648,
          "time": 128.44791666666666,
          "velocity": 0.6929133858267716
        },
        {
          "duration": 0.06510416666668561,
          "durationTicks": 50,
          "midi": 64,
          "name": "E4",
          "ticks": 99038,
          "time": 128.95572916666666,
          "velocity": 0.6929133858267716
        },
        {
          "duration": 0.0703125,
          "durationTicks": 54,
          "midi": 72,
          "name": "C5",
          "ticks": 99038,
          "time": 128.95572916666666,
          "velocity": 0.7874015748031497
        },
        {
          "duration": 0.05989583333334281,
          "durationTicks": 46,
          "midi": 64,
          "name": "E4",
          "ticks": 99134,
          "time": 129.08072916666666,
          "velocity": 0.6929133858267716
        },
        {
          "duration": 0.06770833333334281,
          "durationTicks": 52,
          "midi": 72,
          "name": "C5",
          "ticks": 99134,
          "time": 129.08072916666666,
          "velocity": 0.7795275590551181
        },
        {
          "duration": 0.06510416666665719,
          "durationTicks": 50,
          "midi": 72,
          "name": "C5",
          "ticks": 99240,
          "time": 129.21875,
          "velocity": 0.7716535433070866
        },
        {
          "duration": 0.05208333333334281,
          "durationTicks": 40,
          "midi": 64,
          "name": "E4",
          "ticks": 99242,
          "time": 129.22135416666666,
          "velocity": 0.6771653543307087
        },
        {
          "duration": 0.05729166666665719,
          "durationTicks": 44,
          "midi": 64,
          "name": "E4",
          "ticks": 99334,
          "time": 129.34114583333334,
          "velocity": 0.6771653543307087
        },
        {
          "duration": 0.05989583333334281,
          "durationTicks": 46,
          "midi": 72,
          "name": "C5",
          "ticks": 99336,
          "time": 129.34375,
          "velocity": 0.7795275590551181
        },
        {
          "duration": 0.05208333333334281,
          "durationTicks": 40,
          "midi": 64,
          "name": "E4",
          "ticks": 99432,
          "time": 129.46875,
          "velocity": 0.6929133858267716
        },
        {
          "duration": 0.04947916666665719,
          "durationTicks": 38,
          "midi": 72,
          "name": "C5",
          "ticks": 99436,
          "time": 129.47395833333334,
          "velocity": 0.7716535433070866
        },
        {
          "duration": 0.08072916666665719,
          "durationTicks": 62,
          "midi": 72,
          "name": "C5",
          "ticks": 99532,
          "time": 129.59895833333334,
          "velocity": 0.7716535433070866
        },
        {
          "duration": 0.09114583333331439,
          "durationTicks": 70,
          "midi": 64,
          "name": "E4",
          "ticks": 99532,
          "time": 129.59895833333334,
          "velocity": 0.7086614173228346
        },
        {
          "duration": 0.23697916666668561,
          "durationTicks": 182,
          "midi": 71,
          "name": "B4",
          "ticks": 99638,
          "time": 129.73697916666666,
          "velocity": 0.7952755905511811
        },
        {
          "duration": 0.19010416666668561,
          "durationTicks": 146,
          "midi": 62,
          "name": "D4",
          "ticks": 99644,
          "time": 129.74479166666666,
          "velocity": 0.6929133858267716
        },
        {
          "duration": 0.15625,
          "durationTicks": 120,
          "midi": 67,
          "name": "G4",
          "ticks": 99822,
          "time": 129.9765625,
          "velocity": 0.7716535433070866
        },
        {
          "duration": 0.10677083333331439,
          "durationTicks": 82,
          "midi": 59,
          "name": "B3",
          "ticks": 99832,
          "time": 129.98958333333334,
          "velocity": 0.6929133858267716
        },
        {
          "duration": 0.10416666666668561,
          "durationTicks": 80,
          "midi": 69,
          "name": "A4",
          "ticks": 100226,
          "time": 130.50260416666666,
          "velocity": 0.7874015748031497
        },
        {
          "duration": 0.09635416666665719,
          "durationTicks": 74,
          "midi": 60,
          "name": "C4",
          "ticks": 100228,
          "time": 130.50520833333334,
          "velocity": 0.7086614173228346
        },
        {
          "duration": 0.15625,
          "durationTicks": 120,
          "midi": 71,
          "name": "B4",
          "ticks": 100326,
          "time": 130.6328125,
          "velocity": 0.7874015748031497
        },
        {
          "duration": 0.1770833333333428,
          "durationTicks": 136,
          "midi": 62,
          "name": "D4",
          "ticks": 100326,
          "time": 130.6328125,
          "velocity": 0.7007874015748031
        },
        {
          "duration": 0.2604166666666572,
          "durationTicks": 200,
          "midi": 69,
          "name": "A4",
          "ticks": 100434,
          "time": 130.7734375,
          "velocity": 0.7874015748031497
        },
        {
          "duration": 0.22916666666668561,
          "durationTicks": 176,
          "midi": 60,
          "name": "C4",
          "ticks": 100436,
          "time": 130.77604166666666,
          "velocity": 0.7086614173228346
        },
        {
          "duration": 0.1276041666666572,
          "durationTicks": 98,
          "midi": 65,
          "name": "F4",
          "ticks": 100620,
          "time": 131.015625,
          "velocity": 0.7480314960629921
        },
        {
          "duration": 0.1015625,
          "durationTicks": 78,
          "midi": 57,
          "name": "A3",
          "ticks": 100622,
          "time": 131.01822916666666,
          "velocity": 0.6929133858267716
        },
        {
          "duration": 0.05729166666665719,
          "durationTicks": 44,
          "midi": 60,
          "name": "C4",
          "ticks": 101016,
          "time": 131.53125,
          "velocity": 0.7244094488188977
        },
        {
          "duration": 0.06770833333334281,
          "durationTicks": 52,
          "midi": 69,
          "name": "A4",
          "ticks": 101016,
          "time": 131.53125,
          "velocity": 0.8031496062992126
        },
        {
          "duration": 0.1536458333333428,
          "durationTicks": 118,
          "midi": 69,
          "name": "A4",
          "ticks": 101118,
          "time": 131.6640625,
          "velocity": 0.7952755905511811
        },
        {
          "duration": 0.09375,
          "durationTicks": 72,
          "midi": 60,
          "name": "C4",
          "ticks": 101120,
          "time": 131.66666666666666,
          "velocity": 0.7086614173228346
        },
        {
          "duration": 0.2604166666666572,
          "durationTicks": 200,
          "midi": 62,
          "name": "D4",
          "ticks": 101220,
          "time": 131.796875,
          "velocity": 0.7244094488188977
        },
        {
          "duration": 0.2682291666666856,
          "durationTicks": 206,
          "midi": 71,
          "name": "B4",
          "ticks": 101222,
          "time": 131.79947916666666,
          "velocity": 0.7559055118110236
        },
        {
          "duration": 0.1171875,
          "durationTicks": 90,
          "midi": 67,
          "name": "G4",
          "ticks": 101416,
          "time": 132.05208333333334,
          "velocity": 0.7952755905511811
        },
        {
          "duration": 0.1171875,
          "durationTicks": 90,
          "midi": 59,
          "name": "B3",
          "ticks": 101418,
          "time": 132.0546875,
          "velocity": 0.6929133858267716
        },
        {
          "duration": 0.06510416666665719,
          "durationTicks": 50,
          "midi": 64,
          "name": "E4",
          "ticks": 102202,
          "time": 133.07552083333334,
          "velocity": 0.7165354330708661
        },
        {
          "duration": 0.06770833333334281,
          "durationTicks": 52,
          "midi": 72,
          "name": "C5",
          "ticks": 102210,
          "time": 133.0859375,
          "velocity": 0.8031496062992126
        },
        {
          "duration": 0.052083333333314386,
          "durationTicks": 40,
          "midi": 72,
          "name": "C5",
          "ticks": 102304,
          "time": 133.20833333333334,
          "velocity": 0.7480314960629921
        },
        {
          "duration": 0.05989583333334281,
          "durationTicks": 46,
          "midi": 64,
          "name": "E4",
          "ticks": 102306,
          "time": 133.2109375,
          "velocity": 0.6929133858267716
        },
        {
          "duration": 0.0703125,
          "durationTicks": 54,
          "midi": 72,
          "name": "C5",
          "ticks": 102410,
          "time": 133.34635416666666,
          "velocity": 0.7952755905511811
        },
        {
          "duration": 0.046875,
          "durationTicks": 36,
          "midi": 64,
          "name": "E4",
          "ticks": 102412,
          "time": 133.34895833333334,
          "velocity": 0.6771653543307087
        },
        {
          "duration": 0.06770833333334281,
          "durationTicks": 52,
          "midi": 64,
          "name": "E4",
          "ticks": 102498,
          "time": 133.4609375,
          "velocity": 0.6929133858267716
        },
        {
          "duration": 0.06510416666668561,
          "durationTicks": 50,
          "midi": 72,
          "name": "C5",
          "ticks": 102506,
          "time": 133.47135416666666,
          "velocity": 0.7716535433070866
        },
        {
          "duration": 0.0625,
          "durationTicks": 48,
          "midi": 64,
          "name": "E4",
          "ticks": 102596,
          "time": 133.58854166666666,
          "velocity": 0.7086614173228346
        },
        {
          "duration": 0.04947916666665719,
          "durationTicks": 38,
          "midi": 72,
          "name": "C5",
          "ticks": 102604,
          "time": 133.59895833333334,
          "velocity": 0.7795275590551181
        },
        {
          "duration": 0.09375,
          "durationTicks": 72,
          "midi": 64,
          "name": "E4",
          "ticks": 102700,
          "time": 133.72395833333334,
          "velocity": 0.7086614173228346
        },
        {
          "duration": 0.0859375,
          "durationTicks": 66,
          "midi": 72,
          "name": "C5",
          "ticks": 102700,
          "time": 133.72395833333334,
          "velocity": 0.7795275590551181
        },
        {
          "duration": 0.2239583333333428,
          "durationTicks": 172,
          "midi": 71,
          "name": "B4",
          "ticks": 102812,
          "time": 133.86979166666666,
          "velocity": 0.8031496062992126
        },
        {
          "duration": 0.22395833333331439,
          "durationTicks": 172,
          "midi": 62,
          "name": "D4",
          "ticks": 102814,
          "time": 133.87239583333334,
          "velocity": 0.6929133858267716
        },
        {
          "duration": 0.171875,
          "durationTicks": 132,
          "midi": 67,
          "name": "G4",
          "ticks": 102994,
          "time": 134.10677083333334,
          "velocity": 0.7795275590551181
        },
        {
          "duration": 0.10416666666668561,
          "durationTicks": 80,
          "midi": 59,
          "name": "B3",
          "ticks": 103004,
          "time": 134.11979166666666,
          "velocity": 0.6692913385826772
        },
        {
          "duration": 0.09375,
          "durationTicks": 72,
          "midi": 69,
          "name": "A4",
          "ticks": 103398,
          "time": 134.6328125,
          "velocity": 0.8031496062992126
        },
        {
          "duration": 0.078125,
          "durationTicks": 60,
          "midi": 60,
          "name": "C4",
          "ticks": 103400,
          "time": 134.63541666666666,
          "velocity": 0.7165354330708661
        },
        {
          "duration": 0.2161458333333428,
          "durationTicks": 166,
          "midi": 62,
          "name": "D4",
          "ticks": 103488,
          "time": 134.75,
          "velocity": 0.6929133858267716
        },
        {
          "duration": 0.16145833333331439,
          "durationTicks": 124,
          "midi": 71,
          "name": "B4",
          "ticks": 103498,
          "time": 134.76302083333334,
          "velocity": 0.7559055118110236
        },
        {
          "duration": 0.2786458333333144,
          "durationTicks": 214,
          "midi": 69,
          "name": "A4",
          "ticks": 103600,
          "time": 134.89583333333334,
          "velocity": 0.7716535433070866
        },
        {
          "duration": 0.23177083333331439,
          "durationTicks": 178,
          "midi": 60,
          "name": "C4",
          "ticks": 103606,
          "time": 134.90364583333334,
          "velocity": 0.7086614173228346
        },
        {
          "duration": 0.1510416666666572,
          "durationTicks": 116,
          "midi": 65,
          "name": "F4",
          "ticks": 103794,
          "time": 135.1484375,
          "velocity": 0.7322834645669292
        },
        {
          "duration": 0.08854166666665719,
          "durationTicks": 68,
          "midi": 57,
          "name": "A3",
          "ticks": 103800,
          "time": 135.15625,
          "velocity": 0.6929133858267716
        },
        {
          "duration": 0.0546875,
          "durationTicks": 42,
          "midi": 69,
          "name": "A4",
          "ticks": 104190,
          "time": 135.6640625,
          "velocity": 0.8031496062992126
        },
        {
          "duration": 0.06510416666668561,
          "durationTicks": 50,
          "midi": 60,
          "name": "C4",
          "ticks": 104192,
          "time": 135.66666666666666,
          "velocity": 0.7086614173228346
        },
        {
          "duration": 0.09635416666665719,
          "durationTicks": 74,
          "midi": 69,
          "name": "A4",
          "ticks": 104290,
          "time": 135.79427083333334,
          "velocity": 0.7952755905511811
        },
        {
          "duration": 0.09375,
          "durationTicks": 72,
          "midi": 60,
          "name": "C4",
          "ticks": 104292,
          "time": 135.796875,
          "velocity": 0.6299212598425197
        },
        {
          "duration": 0.265625,
          "durationTicks": 204,
          "midi": 71,
          "name": "B4",
          "ticks": 104392,
          "time": 135.92708333333334,
          "velocity": 0.7795275590551181
        },
        {
          "duration": 0.2317708333333428,
          "durationTicks": 178,
          "midi": 62,
          "name": "D4",
          "ticks": 104400,
          "time": 135.9375,
          "velocity": 0.7086614173228346
        },
        {
          "duration": 0.109375,
          "durationTicks": 84,
          "midi": 68,
          "name": "G#4",
          "ticks": 104588,
          "time": 136.18229166666666,
          "velocity": 0.7795275590551181
        },
        {
          "duration": 0.08854166666665719,
          "durationTicks": 68,
          "midi": 59,
          "name": "B3",
          "ticks": 104590,
          "time": 136.18489583333334,
          "velocity": 0.7086614173228346
        },
        {
          "duration": 0.0703125,
          "durationTicks": 54,
          "midi": 64,
          "name": "E4",
          "ticks": 137260,
          "time": 178.72395833333334,
          "velocity": 0.7244094488188977
        },
        {
          "duration": 0.0625,
          "durationTicks": 48,
          "midi": 72,
          "name": "C5",
          "ticks": 137260,
          "time": 178.72395833333334,
          "velocity": 0.7952755905511811
        },
        {
          "duration": 0.05729166666665719,
          "durationTicks": 44,
          "midi": 72,
          "name": "C5",
          "ticks": 137352,
          "time": 178.84375,
          "velocity": 0.7795275590551181
        },
        {
          "duration": 0.0546875,
          "durationTicks": 42,
          "midi": 64,
          "name": "E4",
          "ticks": 137356,
          "time": 178.84895833333334,
          "velocity": 0.6929133858267716
        },
        {
          "duration": 0.06770833333331439,
          "durationTicks": 52,
          "midi": 72,
          "name": "C5",
          "ticks": 137452,
          "time": 178.97395833333334,
          "velocity": 0.7795275590551181
        },
        {
          "duration": 0.0390625,
          "durationTicks": 30,
          "midi": 64,
          "name": "E4",
          "ticks": 137460,
          "time": 178.984375,
          "velocity": 0.6692913385826772
        },
        {
          "duration": 0.10416666666665719,
          "durationTicks": 80,
          "midi": 64,
          "name": "E4",
          "ticks": 137554,
          "time": 179.10677083333334,
          "velocity": 0.6771653543307087
        },
        {
          "duration": 0.1588541666666572,
          "durationTicks": 122,
          "midi": 72,
          "name": "C5",
          "ticks": 137554,
          "time": 179.10677083333334,
          "velocity": 0.7480314960629921
        },
        {
          "duration": 0.2630208333333428,
          "durationTicks": 202,
          "midi": 71,
          "name": "B4",
          "ticks": 137658,
          "time": 179.2421875,
          "velocity": 0.7874015748031497
        },
        {
          "duration": 0.19791666666668561,
          "durationTicks": 152,
          "midi": 62,
          "name": "D4",
          "ticks": 137666,
          "time": 179.25260416666666,
          "velocity": 0.7165354330708661
        },
        {
          "duration": 0.13802083333331439,
          "durationTicks": 106,
          "midi": 67,
          "name": "G4",
          "ticks": 137854,
          "time": 179.49739583333334,
          "velocity": 0.7952755905511811
        },
        {
          "duration": 0.11979166666665719,
          "durationTicks": 92,
          "midi": 59,
          "name": "B3",
          "ticks": 137856,
          "time": 179.5,
          "velocity": 0.6771653543307087
        },
        {
          "duration": 0.08854166666665719,
          "durationTicks": 68,
          "midi": 60,
          "name": "C4",
          "ticks": 138246,
          "time": 180.0078125,
          "velocity": 0.7165354330708661
        },
        {
          "duration": 0.08333333333334281,
          "durationTicks": 64,
          "midi": 69,
          "name": "A4",
          "ticks": 138252,
          "time": 180.015625,
          "velocity": 0.8031496062992126
        },
        {
          "duration": 0.1510416666666572,
          "durationTicks": 116,
          "midi": 71,
          "name": "B4",
          "ticks": 138346,
          "time": 180.13802083333334,
          "velocity": 0.7322834645669292
        },
        {
          "duration": 0.1588541666666572,
          "durationTicks": 122,
          "midi": 62,
          "name": "D4",
          "ticks": 138348,
          "time": 180.140625,
          "velocity": 0.5905511811023622
        },
        {
          "duration": 0.2708333333333428,
          "durationTicks": 208,
          "midi": 60,
          "name": "C4",
          "ticks": 138446,
          "time": 180.26822916666666,
          "velocity": 0.7086614173228346
        },
        {
          "duration": 0.2630208333333428,
          "durationTicks": 202,
          "midi": 69,
          "name": "A4",
          "ticks": 138452,
          "time": 180.27604166666666,
          "velocity": 0.7952755905511811
        },
        {
          "duration": 0.1171875,
          "durationTicks": 90,
          "midi": 57,
          "name": "A3",
          "ticks": 138638,
          "time": 180.51822916666666,
          "velocity": 0.6692913385826772
        },
        {
          "duration": 0.10677083333334281,
          "durationTicks": 82,
          "midi": 65,
          "name": "F4",
          "ticks": 138648,
          "time": 180.53125,
          "velocity": 0.7716535433070866
        },
        {
          "duration": 0.05729166666665719,
          "durationTicks": 44,
          "midi": 69,
          "name": "A4",
          "ticks": 139036,
          "time": 181.03645833333334,
          "velocity": 0.8031496062992126
        },
        {
          "duration": 0.05729166666665719,
          "durationTicks": 44,
          "midi": 60,
          "name": "C4",
          "ticks": 139042,
          "time": 181.04427083333334,
          "velocity": 0.7244094488188977
        },
        {
          "duration": 0.08072916666665719,
          "durationTicks": 62,
          "midi": 69,
          "name": "A4",
          "ticks": 139140,
          "time": 181.171875,
          "velocity": 0.8031496062992126
        },
        {
          "duration": 0.09114583333334281,
          "durationTicks": 70,
          "midi": 60,
          "name": "C4",
          "ticks": 139142,
          "time": 181.17447916666666,
          "velocity": 0.7086614173228346
        },
        {
          "duration": 0.2942708333333144,
          "durationTicks": 226,
          "midi": 71,
          "name": "B4",
          "ticks": 139240,
          "time": 181.30208333333334,
          "velocity": 0.7795275590551181
        },
        {
          "duration": 0.2604166666666856,
          "durationTicks": 200,
          "midi": 62,
          "name": "D4",
          "ticks": 139244,
          "time": 181.30729166666666,
          "velocity": 0.7086614173228346
        },
        {
          "duration": 0.11458333333334281,
          "durationTicks": 88,
          "midi": 59,
          "name": "B3",
          "ticks": 139436,
          "time": 181.55729166666666,
          "velocity": 0.7007874015748031
        },
        {
          "duration": 0.12239583333334281,
          "durationTicks": 94,
          "midi": 67,
          "name": "G4",
          "ticks": 139436,
          "time": 181.55729166666666,
          "velocity": 0.7795275590551181
        },
        {
          "duration": 0.06770833333331439,
          "durationTicks": 52,
          "midi": 72,
          "name": "C5",
          "ticks": 140230,
          "time": 182.59114583333334,
          "velocity": 0.7952755905511811
        },
        {
          "duration": 0.05729166666665719,
          "durationTicks": 44,
          "midi": 64,
          "name": "E4",
          "ticks": 140232,
          "time": 182.59375,
          "velocity": 0.6929133858267716
        },
        {
          "duration": 0.052083333333314386,
          "durationTicks": 40,
          "midi": 72,
          "name": "C5",
          "ticks": 140326,
          "time": 182.71614583333334,
          "velocity": 0.7559055118110236
        },
        {
          "duration": 0.04166666666665719,
          "durationTicks": 32,
          "midi": 64,
          "name": "E4",
          "ticks": 140328,
          "time": 182.71875,
          "velocity": 0.6771653543307087
        },
        {
          "duration": 0.1744791666666572,
          "durationTicks": 134,
          "midi": 72,
          "name": "C5",
          "ticks": 140430,
          "time": 182.8515625,
          "velocity": 0.8031496062992126
        },
        {
          "duration": 0.1328125,
          "durationTicks": 102,
          "midi": 64,
          "name": "E4",
          "ticks": 140432,
          "time": 182.85416666666666,
          "velocity": 0.6929133858267716
        },
        {
          "duration": 0.059895833333314386,
          "durationTicks": 46,
          "midi": 72,
          "name": "C5",
          "ticks": 140626,
          "time": 183.10677083333334,
          "velocity": 0.7795275590551181
        },
        {
          "duration": 0.0546875,
          "durationTicks": 42,
          "midi": 64,
          "name": "E4",
          "ticks": 140626,
          "time": 183.10677083333334,
          "velocity": 0.7086614173228346
        },
        {
          "duration": 0.0703125,
          "durationTicks": 54,
          "midi": 64,
          "name": "E4",
          "ticks": 140726,
          "time": 183.23697916666666,
          "velocity": 0.6929133858267716
        },
        {
          "duration": 0.08072916666668561,
          "durationTicks": 62,
          "midi": 72,
          "name": "C5",
          "ticks": 140726,
          "time": 183.23697916666666,
          "velocity": 0.7874015748031497
        },
        {
          "duration": 0.2630208333333428,
          "durationTicks": 202,
          "midi": 71,
          "name": "B4",
          "ticks": 140828,
          "time": 183.36979166666666,
          "velocity": 0.8110236220472441
        },
        {
          "duration": 0.23177083333331439,
          "durationTicks": 178,
          "midi": 62,
          "name": "D4",
          "ticks": 140830,
          "time": 183.37239583333334,
          "velocity": 0.7165354330708661
        },
        {
          "duration": 0.1328125,
          "durationTicks": 102,
          "midi": 67,
          "name": "G4",
          "ticks": 141016,
          "time": 183.61458333333334,
          "velocity": 0.7716535433070866
        },
        {
          "duration": 0.125,
          "durationTicks": 96,
          "midi": 59,
          "name": "B3",
          "ticks": 141020,
          "time": 183.61979166666666,
          "velocity": 0.6771653543307087
        },
        {
          "duration": 0.09635416666665719,
          "durationTicks": 74,
          "midi": 60,
          "name": "C4",
          "ticks": 141418,
          "time": 184.13802083333334,
          "velocity": 0.7086614173228346
        },
        {
          "duration": 0.08854166666665719,
          "durationTicks": 68,
          "midi": 69,
          "name": "A4",
          "ticks": 141418,
          "time": 184.13802083333334,
          "velocity": 0.7795275590551181
        },
        {
          "duration": 0.1770833333333428,
          "durationTicks": 136,
          "midi": 71,
          "name": "B4",
          "ticks": 141510,
          "time": 184.2578125,
          "velocity": 0.7401574803149606
        },
        {
          "duration": 0.1640625,
          "durationTicks": 126,
          "midi": 62,
          "name": "D4",
          "ticks": 141518,
          "time": 184.26822916666666,
          "velocity": 0.6929133858267716
        },
        {
          "duration": 0.2682291666666572,
          "durationTicks": 206,
          "midi": 69,
          "name": "A4",
          "ticks": 141622,
          "time": 184.40364583333334,
          "velocity": 0.7874015748031497
        },
        {
          "duration": 0.2708333333333144,
          "durationTicks": 208,
          "midi": 60,
          "name": "C4",
          "ticks": 141622,
          "time": 184.40364583333334,
          "velocity": 0.6929133858267716
        },
        {
          "duration": 0.109375,
          "durationTicks": 84,
          "midi": 65,
          "name": "F4",
          "ticks": 141820,
          "time": 184.66145833333334,
          "velocity": 0.7559055118110236
        },
        {
          "duration": 0.109375,
          "durationTicks": 84,
          "midi": 57,
          "name": "A3",
          "ticks": 141820,
          "time": 184.66145833333334,
          "velocity": 0.6299212598425197
        },
        {
          "duration": 0.057291666666685614,
          "durationTicks": 44,
          "midi": 69,
          "name": "A4",
          "ticks": 142208,
          "time": 185.16666666666666,
          "velocity": 0.8031496062992126
        },
        {
          "duration": 0.052083333333314386,
          "durationTicks": 40,
          "midi": 60,
          "name": "C4",
          "ticks": 142210,
          "time": 185.16927083333334,
          "velocity": 0.7165354330708661
        },
        {
          "duration": 0.09375,
          "durationTicks": 72,
          "midi": 69,
          "name": "A4",
          "ticks": 142312,
          "time": 185.30208333333334,
          "velocity": 0.8031496062992126
        },
        {
          "duration": 0.11197916666665719,
          "durationTicks": 86,
          "midi": 60,
          "name": "C4",
          "ticks": 142314,
          "time": 185.3046875,
          "velocity": 0.7086614173228346
        },
        {
          "duration": 0.1510416666666572,
          "durationTicks": 116,
          "midi": 68,
          "name": "G#4",
          "ticks": 142410,
          "time": 185.4296875,
          "velocity": 0.7952755905511811
        },
        {
          "duration": 0.12239583333334281,
          "durationTicks": 94,
          "midi": 59,
          "name": "B3",
          "ticks": 142412,
          "time": 185.43229166666666,
          "velocity": 0.7165354330708661
        },
        {
          "duration": 0.23177083333331439,
          "durationTicks": 178,
          "midi": 59,
          "name": "B3",
          "ticks": 142606,
          "time": 185.68489583333334,
          "velocity": 0.7086614173228346
        },
        {
          "duration": 0.22395833333331439,
          "durationTicks": 172,
          "midi": 68,
          "name": "G#4",
          "ticks": 142606,
          "time": 185.68489583333334,
          "velocity": 0.7795275590551181
        },
        {
          "duration": 0.1770833333333428,
          "durationTicks": 136,
          "midi": 64,
          "name": "E4",
          "ticks": 142800,
          "time": 185.9375,
          "velocity": 0.6929133858267716
        },
        {
          "duration": 0.2526041666666572,
          "durationTicks": 194,
          "midi": 71,
          "name": "B4",
          "ticks": 142800,
          "time": 185.9375,
          "velocity": 0.7716535433070866
        },
        {
          "duration": 0.1015625,
          "durationTicks": 78,
          "midi": 72,
          "name": "C5",
          "ticks": 143012,
          "time": 186.21354166666666,
          "velocity": 0.7401574803149606
        },
        {
          "duration": 0.13541666666668561,
          "durationTicks": 104,
          "midi": 64,
          "name": "E4",
          "ticks": 143012,
          "time": 186.21354166666666,
          "velocity": 0.6771653543307087
        },
        {
          "duration": 0.06770833333331439,
          "durationTicks": 52,
          "midi": 64,
          "name": "E4",
          "ticks": 143398,
          "time": 186.71614583333334,
          "velocity": 0.7086614173228346
        },
        {
          "duration": 0.07552083333331439,
          "durationTicks": 58,
          "midi": 72,
          "name": "C5",
          "ticks": 143398,
          "time": 186.71614583333334,
          "velocity": 0.7874015748031497
        },
        {
          "duration": 0.0703125,
          "durationTicks": 54,
          "midi": 64,
          "name": "E4",
          "ticks": 143494,
          "time": 186.84114583333334,
          "velocity": 0.6771653543307087
        },
        {
          "duration": 0.0703125,
          "durationTicks": 54,
          "midi": 72,
          "name": "C5",
          "ticks": 143494,
          "time": 186.84114583333334,
          "velocity": 0.7716535433070866
        },
        {
          "duration": 0.059895833333314386,
          "durationTicks": 46,
          "midi": 72,
          "name": "C5",
          "ticks": 143602,
          "time": 186.98177083333334,
          "velocity": 0.7559055118110236
        },
        {
          "duration": 0.0546875,
          "durationTicks": 42,
          "midi": 64,
          "name": "E4",
          "ticks": 143604,
          "time": 186.984375,
          "velocity": 0.6771653543307087
        },
        {
          "duration": 0.06770833333334281,
          "durationTicks": 52,
          "midi": 72,
          "name": "C5",
          "ticks": 143696,
          "time": 187.10416666666666,
          "velocity": 0.7716535433070866
        },
        {
          "duration": 0.04947916666665719,
          "durationTicks": 38,
          "midi": 64,
          "name": "E4",
          "ticks": 143698,
          "time": 187.10677083333334,
          "velocity": 0.6771653543307087
        },
        {
          "duration": 0.0546875,
          "durationTicks": 42,
          "midi": 64,
          "name": "E4",
          "ticks": 143794,
          "time": 187.23177083333334,
          "velocity": 0.7086614173228346
        },
        {
          "duration": 0.06510416666665719,
          "durationTicks": 50,
          "midi": 72,
          "name": "C5",
          "ticks": 143794,
          "time": 187.23177083333334,
          "velocity": 0.7716535433070866
        },
        {
          "duration": 0.09114583333331439,
          "durationTicks": 70,
          "midi": 72,
          "name": "C5",
          "ticks": 143890,
          "time": 187.35677083333334,
          "velocity": 0.7795275590551181
        },
        {
          "duration": 0.06510416666665719,
          "durationTicks": 50,
          "midi": 64,
          "name": "E4",
          "ticks": 143896,
          "time": 187.36458333333334,
          "velocity": 0.6929133858267716
        },
        {
          "duration": 0.21875,
          "durationTicks": 168,
          "midi": 71,
          "name": "B4",
          "ticks": 144004,
          "time": 187.50520833333334,
          "velocity": 0.8031496062992126
        },
        {
          "duration": 0.1901041666666572,
          "durationTicks": 146,
          "midi": 62,
          "name": "D4",
          "ticks": 144006,
          "time": 187.5078125,
          "velocity": 0.6929133858267716
        },
        {
          "duration": 0.14583333333331439,
          "durationTicks": 112,
          "midi": 67,
          "name": "G4",
          "ticks": 144184,
          "time": 187.73958333333334,
          "velocity": 0.7480314960629921
        },
        {
          "duration": 0.125,
          "durationTicks": 96,
          "midi": 59,
          "name": "B3",
          "ticks": 144188,
          "time": 187.74479166666666,
          "velocity": 0.6692913385826772
        },
        {
          "duration": 0.08333333333334281,
          "durationTicks": 64,
          "midi": 69,
          "name": "A4",
          "ticks": 144590,
          "time": 188.26822916666666,
          "velocity": 0.7952755905511811
        },
        {
          "duration": 0.08072916666668561,
          "durationTicks": 62,
          "midi": 60,
          "name": "C4",
          "ticks": 144590,
          "time": 188.26822916666666,
          "velocity": 0.7086614173228346
        },
        {
          "duration": 0.15625,
          "durationTicks": 120,
          "midi": 71,
          "name": "B4",
          "ticks": 144690,
          "time": 188.3984375,
          "velocity": 0.7244094488188977
        },
        {
          "duration": 0.10677083333334281,
          "durationTicks": 82,
          "midi": 62,
          "name": "D4",
          "ticks": 144690,
          "time": 188.3984375,
          "velocity": 0.6614173228346457
        },
        {
          "duration": 0.25,
          "durationTicks": 192,
          "midi": 69,
          "name": "A4",
          "ticks": 144794,
          "time": 188.53385416666666,
          "velocity": 0.8110236220472441
        },
        {
          "duration": 0.2604166666666572,
          "durationTicks": 200,
          "midi": 60,
          "name": "C4",
          "ticks": 144796,
          "time": 188.53645833333334,
          "velocity": 0.6929133858267716
        },
        {
          "duration": 0.1015625,
          "durationTicks": 78,
          "midi": 65,
          "name": "F4",
          "ticks": 144988,
          "time": 188.78645833333334,
          "velocity": 0.7480314960629921
        },
        {
          "duration": 0.09114583333334281,
          "durationTicks": 70,
          "midi": 57,
          "name": "A3",
          "ticks": 144990,
          "time": 188.7890625,
          "velocity": 0.6692913385826772
        },
        {
          "duration": 0.0625,
          "durationTicks": 48,
          "midi": 60,
          "name": "C4",
          "ticks": 145376,
          "time": 189.29166666666666,
          "velocity": 0.7165354330708661
        },
        {
          "duration": 0.059895833333314386,
          "durationTicks": 46,
          "midi": 69,
          "name": "A4",
          "ticks": 145378,
          "time": 189.29427083333334,
          "velocity": 0.8031496062992126
        },
        {
          "duration": 0.11197916666665719,
          "durationTicks": 86,
          "midi": 60,
          "name": "C4",
          "ticks": 145480,
          "time": 189.42708333333334,
          "velocity": 0.7086614173228346
        },
        {
          "duration": 0.09895833333331439,
          "durationTicks": 76,
          "midi": 69,
          "name": "A4",
          "ticks": 145480,
          "time": 189.42708333333334,
          "velocity": 0.7952755905511811
        },
        {
          "duration": 0.28125,
          "durationTicks": 216,
          "midi": 71,
          "name": "B4",
          "ticks": 145578,
          "time": 189.5546875,
          "velocity": 0.7795275590551181
        },
        {
          "duration": 0.2604166666666572,
          "durationTicks": 200,
          "midi": 62,
          "name": "D4",
          "ticks": 145584,
          "time": 189.5625,
          "velocity": 0.7086614173228346
        },
        {
          "duration": 0.09895833333334281,
          "durationTicks": 76,
          "midi": 67,
          "name": "G4",
          "ticks": 145776,
          "time": 189.8125,
          "velocity": 0.8031496062992126
        },
        {
          "duration": 0.09375,
          "durationTicks": 72,
          "midi": 59,
          "name": "B3",
          "ticks": 145778,
          "time": 189.81510416666666,
          "velocity": 0.6929133858267716
        },
        {
          "duration": 0.08072916666665719,
          "durationTicks": 62,
          "midi": 72,
          "name": "C5",
          "ticks": 146562,
          "time": 190.8359375,
          "velocity": 0.8031496062992126
        },
        {
          "duration": 0.06770833333331439,
          "durationTicks": 52,
          "midi": 64,
          "name": "E4",
          "ticks": 146572,
          "time": 190.84895833333334,
          "velocity": 0.7086614173228346
        },
        {
          "duration": 0.0625,
          "durationTicks": 48,
          "midi": 72,
          "name": "C5",
          "ticks": 146666,
          "time": 190.97135416666666,
          "velocity": 0.7874015748031497
        },
        {
          "duration": 0.06770833333331439,
          "durationTicks": 52,
          "midi": 64,
          "name": "E4",
          "ticks": 146668,
          "time": 190.97395833333334,
          "velocity": 0.6771653543307087
        },
        {
          "duration": 0.0625,
          "durationTicks": 48,
          "midi": 72,
          "name": "C5",
          "ticks": 146768,
          "time": 191.10416666666666,
          "velocity": 0.7637795275590551
        },
        {
          "duration": 0.0546875,
          "durationTicks": 42,
          "midi": 64,
          "name": "E4",
          "ticks": 146772,
          "time": 191.109375,
          "velocity": 0.6771653543307087
        },
        {
          "duration": 0.059895833333314386,
          "durationTicks": 46,
          "midi": 72,
          "name": "C5",
          "ticks": 146866,
          "time": 191.23177083333334,
          "velocity": 0.7874015748031497
        },
        {
          "duration": 0.04947916666665719,
          "durationTicks": 38,
          "midi": 64,
          "name": "E4",
          "ticks": 146868,
          "time": 191.234375,
          "velocity": 0.6692913385826772
        },
        {
          "duration": 0.05989583333334281,
          "durationTicks": 46,
          "midi": 72,
          "name": "C5",
          "ticks": 146958,
          "time": 191.3515625,
          "velocity": 0.7795275590551181
        },
        {
          "duration": 0.05208333333334281,
          "durationTicks": 40,
          "midi": 64,
          "name": "E4",
          "ticks": 146966,
          "time": 191.36197916666666,
          "velocity": 0.6929133858267716
        },
        {
          "duration": 0.08854166666668561,
          "durationTicks": 68,
          "midi": 72,
          "name": "C5",
          "ticks": 147056,
          "time": 191.47916666666666,
          "velocity": 0.7874015748031497
        },
        {
          "duration": 0.0625,
          "durationTicks": 48,
          "midi": 64,
          "name": "E4",
          "ticks": 147066,
          "time": 191.4921875,
          "velocity": 0.6771653543307087
        },
        {
          "duration": 0.2291666666666572,
          "durationTicks": 176,
          "midi": 62,
          "name": "D4",
          "ticks": 147168,
          "time": 191.625,
          "velocity": 0.7007874015748031
        },
        {
          "duration": 0.2604166666666572,
          "durationTicks": 200,
          "midi": 71,
          "name": "B4",
          "ticks": 147168,
          "time": 191.625,
          "velocity": 0.8031496062992126
        },
        {
          "duration": 0.11458333333331439,
          "durationTicks": 88,
          "midi": 59,
          "name": "B3",
          "ticks": 147364,
          "time": 191.88020833333334,
          "velocity": 0.6456692913385826
        },
        {
          "duration": 0.12239583333331439,
          "durationTicks": 94,
          "midi": 67,
          "name": "G4",
          "ticks": 147364,
          "time": 191.88020833333334,
          "velocity": 0.7795275590551181
        },
        {
          "duration": 0.06770833333331439,
          "durationTicks": 52,
          "midi": 69,
          "name": "A4",
          "ticks": 147760,
          "time": 192.39583333333334,
          "velocity": 0.8031496062992126
        },
        {
          "duration": 0.07291666666665719,
          "durationTicks": 56,
          "midi": 60,
          "name": "C4",
          "ticks": 147760,
          "time": 192.39583333333334,
          "velocity": 0.7165354330708661
        },
        {
          "duration": 0.1614583333333428,
          "durationTicks": 124,
          "midi": 62,
          "name": "D4",
          "ticks": 147854,
          "time": 192.51822916666666,
          "velocity": 0.6377952755905512
        },
        {
          "duration": 0.1536458333333428,
          "durationTicks": 118,
          "midi": 71,
          "name": "B4",
          "ticks": 147854,
          "time": 192.51822916666666,
          "velocity": 0.6850393700787402
        },
        {
          "duration": 0.2786458333333428,
          "durationTicks": 214,
          "midi": 69,
          "name": "A4",
          "ticks": 147950,
          "time": 192.64322916666666,
          "velocity": 0.7874015748031497
        },
        {
          "duration": 0.2526041666666572,
          "durationTicks": 194,
          "midi": 60,
          "name": "C4",
          "ticks": 147952,
          "time": 192.64583333333334,
          "velocity": 0.7086614173228346
        },
        {
          "duration": 0.1015625,
          "durationTicks": 78,
          "midi": 57,
          "name": "A3",
          "ticks": 148154,
          "time": 192.90885416666666,
          "velocity": 0.6692913385826772
        },
        {
          "duration": 0.11197916666668561,
          "durationTicks": 86,
          "midi": 65,
          "name": "F4",
          "ticks": 148154,
          "time": 192.90885416666666,
          "velocity": 0.7874015748031497
        },
        {
          "duration": 0.0546875,
          "durationTicks": 42,
          "midi": 60,
          "name": "C4",
          "ticks": 148548,
          "time": 193.421875,
          "velocity": 0.7086614173228346
        },
        {
          "duration": 0.05729166666665719,
          "durationTicks": 44,
          "midi": 69,
          "name": "A4",
          "ticks": 148548,
          "time": 193.421875,
          "velocity": 0.8031496062992126
        },
        {
          "duration": 0.09375,
          "durationTicks": 72,
          "midi": 60,
          "name": "C4",
          "ticks": 148648,
          "time": 193.55208333333334,
          "velocity": 0.6929133858267716
        },
        {
          "duration": 0.1015625,
          "durationTicks": 78,
          "midi": 69,
          "name": "A4",
          "ticks": 148648,
          "time": 193.55208333333334,
          "velocity": 0.8031496062992126
        },
        {
          "duration": 0.2630208333333428,
          "durationTicks": 202,
          "midi": 68,
          "name": "G#4",
          "ticks": 148754,
          "time": 193.69010416666666,
          "velocity": 0.7716535433070866
        },
        {
          "duration": 0.12760416666668561,
          "durationTicks": 98,
          "midi": 59,
          "name": "B3",
          "ticks": 148754,
          "time": 193.69010416666666,
          "velocity": 0.6929133858267716
        },
        {
          "duration": 0.2161458333333428,
          "durationTicks": 166,
          "midi": 69,
          "name": "A4",
          "ticks": 148950,
          "time": 193.9453125,
          "velocity": 0.8031496062992126
        },
        {
          "duration": 0.2135416666666572,
          "durationTicks": 164,
          "midi": 59,
          "name": "B3",
          "ticks": 148950,
          "time": 193.9453125,
          "velocity": 0.6929133858267716
        },
        {
          "duration": 0.2890625,
          "durationTicks": 222,
          "midi": 71,
          "name": "B4",
          "ticks": 149150,
          "time": 194.20572916666666,
          "velocity": 0.7874015748031497
        },
        {
          "duration": 0.140625,
          "durationTicks": 108,
          "midi": 64,
          "name": "E4",
          "ticks": 149152,
          "time": 194.20833333333334,
          "velocity": 0.6771653543307087
        },
        {
          "duration": 0.1015625,
          "durationTicks": 78,
          "midi": 72,
          "name": "C5",
          "ticks": 149352,
          "time": 194.46875,
          "velocity": 0.7559055118110236
        },
        {
          "duration": 0.08854166666668561,
          "durationTicks": 68,
          "midi": 64,
          "name": "E4",
          "ticks": 149354,
          "time": 194.47135416666666,
          "velocity": 0.6929133858267716
        },
        {
          "duration": 0.07552083333331439,
          "durationTicks": 58,
          "midi": 64,
          "name": "E4",
          "ticks": 149938,
          "time": 195.23177083333334,
          "velocity": 0.7244094488188977
        },
        {
          "duration": 0.06510416666665719,
          "durationTicks": 50,
          "midi": 72,
          "name": "C5",
          "ticks": 149938,
          "time": 195.23177083333334,
          "velocity": 0.7952755905511811
        },
        {
          "duration": 0.057291666666685614,
          "durationTicks": 44,
          "midi": 72,
          "name": "C5",
          "ticks": 150032,
          "time": 195.35416666666666,
          "velocity": 0.7795275590551181
        },
        {
          "duration": 0.0546875,
          "durationTicks": 42,
          "midi": 64,
          "name": "E4",
          "ticks": 150038,
          "time": 195.36197916666666,
          "velocity": 0.6929133858267716
        },
        {
          "duration": 0.06510416666665719,
          "durationTicks": 50,
          "midi": 72,
          "name": "C5",
          "ticks": 150136,
          "time": 195.48958333333334,
          "velocity": 0.7795275590551181
        },
        {
          "duration": 0.0390625,
          "durationTicks": 30,
          "midi": 64,
          "name": "E4",
          "ticks": 150140,
          "time": 195.49479166666666,
          "velocity": 0.6692913385826772
        },
        {
          "duration": 0.10416666666665719,
          "durationTicks": 80,
          "midi": 64,
          "name": "E4",
          "ticks": 150234,
          "time": 195.6171875,
          "velocity": 0.6771653543307087
        },
        {
          "duration": 0.1614583333333428,
          "durationTicks": 124,
          "midi": 72,
          "name": "C5",
          "ticks": 150234,
          "time": 195.6171875,
          "velocity": 0.7480314960629921
        },
        {
          "duration": 0.2552083333333428,
          "durationTicks": 196,
          "midi": 71,
          "name": "B4",
          "ticks": 150342,
          "time": 195.7578125,
          "velocity": 0.7874015748031497
        },
        {
          "duration": 0.19270833333331439,
          "durationTicks": 148,
          "midi": 62,
          "name": "D4",
          "ticks": 150352,
          "time": 195.77083333333334,
          "velocity": 0.7165354330708661
        },
        {
          "duration": 0.125,
          "durationTicks": 96,
          "midi": 59,
          "name": "B3",
          "ticks": 150534,
          "time": 196.0078125,
          "velocity": 0.6771653543307087
        },
        {
          "duration": 0.140625,
          "durationTicks": 108,
          "midi": 67,
          "name": "G4",
          "ticks": 150534,
          "time": 196.0078125,
          "velocity": 0.7952755905511811
        },
        {
          "duration": 0.09375,
          "durationTicks": 72,
          "midi": 60,
          "name": "C4",
          "ticks": 150924,
          "time": 196.515625,
          "velocity": 0.7165354330708661
        },
        {
          "duration": 0.0859375,
          "durationTicks": 66,
          "midi": 69,
          "name": "A4",
          "ticks": 150932,
          "time": 196.52604166666666,
          "velocity": 0.8031496062992126
        },
        {
          "duration": 0.15625,
          "durationTicks": 120,
          "midi": 71,
          "name": "B4",
          "ticks": 151024,
          "time": 196.64583333333334,
          "velocity": 0.7322834645669292
        },
        {
          "duration": 0.1614583333333428,
          "durationTicks": 124,
          "midi": 62,
          "name": "D4",
          "ticks": 151028,
          "time": 196.65104166666666,
          "velocity": 0.5905511811023622
        },
        {
          "duration": 0.2708333333333144,
          "durationTicks": 208,
          "midi": 60,
          "name": "C4",
          "ticks": 151126,
          "time": 196.77864583333334,
          "velocity": 0.7086614173228346
        },
        {
          "duration": 0.2682291666666856,
          "durationTicks": 206,
          "midi": 69,
          "name": "A4",
          "ticks": 151130,
          "time": 196.78385416666666,
          "velocity": 0.7952755905511811
        },
        {
          "duration": 0.11979166666665719,
          "durationTicks": 92,
          "midi": 57,
          "name": "A3",
          "ticks": 151318,
          "time": 197.02864583333334,
          "velocity": 0.6692913385826772
        },
        {
          "duration": 0.10416666666665719,
          "durationTicks": 80,
          "midi": 65,
          "name": "F4",
          "ticks": 151330,
          "time": 197.04427083333334,
          "velocity": 0.7716535433070866
        },
        {
          "duration": 0.06770833333334281,
          "durationTicks": 52,
          "midi": 60,
          "name": "C4",
          "ticks": 151716,
          "time": 197.546875,
          "velocity": 0.7244094488188977
        },
        {
          "duration": 0.05729166666665719,
          "durationTicks": 44,
          "midi": 69,
          "name": "A4",
          "ticks": 151716,
          "time": 197.546875,
          "velocity": 0.8031496062992126
        },
        {
          "duration": 0.08072916666665719,
          "durationTicks": 62,
          "midi": 69,
          "name": "A4",
          "ticks": 151818,
          "time": 197.6796875,
          "velocity": 0.8031496062992126
        },
        {
          "duration": 0.09375,
          "durationTicks": 72,
          "midi": 60,
          "name": "C4",
          "ticks": 151820,
          "time": 197.68229166666666,
          "velocity": 0.7086614173228346
        },
        {
          "duration": 0.296875,
          "durationTicks": 228,
          "midi": 71,
          "name": "B4",
          "ticks": 151920,
          "time": 197.8125,
          "velocity": 0.7795275590551181
        },
        {
          "duration": 0.265625,
          "durationTicks": 204,
          "midi": 62,
          "name": "D4",
          "ticks": 151922,
          "time": 197.81510416666666,
          "velocity": 0.7086614173228346
        },
        {
          "duration": 0.11979166666668561,
          "durationTicks": 92,
          "midi": 67,
          "name": "G4",
          "ticks": 152120,
          "time": 198.07291666666666,
          "velocity": 0.7795275590551181
        },
        {
          "duration": 0.11197916666668561,
          "durationTicks": 86,
          "midi": 59,
          "name": "B3",
          "ticks": 152120,
          "time": 198.07291666666666,
          "velocity": 0.7007874015748031
        },
        {
          "duration": 0.06510416666668561,
          "durationTicks": 50,
          "midi": 72,
          "name": "C5",
          "ticks": 152912,
          "time": 199.10416666666666,
          "velocity": 0.7952755905511811
        },
        {
          "duration": 0.05989583333334281,
          "durationTicks": 46,
          "midi": 64,
          "name": "E4",
          "ticks": 152912,
          "time": 199.10416666666666,
          "velocity": 0.6929133858267716
        },
        {
          "duration": 0.046875,
          "durationTicks": 36,
          "midi": 64,
          "name": "E4",
          "ticks": 153006,
          "time": 199.2265625,
          "velocity": 0.6771653543307087
        },
        {
          "duration": 0.05208333333334281,
          "durationTicks": 40,
          "midi": 72,
          "name": "C5",
          "ticks": 153006,
          "time": 199.2265625,
          "velocity": 0.7559055118110236
        },
        {
          "duration": 0.171875,
          "durationTicks": 132,
          "midi": 72,
          "name": "C5",
          "ticks": 153112,
          "time": 199.36458333333334,
          "velocity": 0.8031496062992126
        },
        {
          "duration": 0.1328125,
          "durationTicks": 102,
          "midi": 64,
          "name": "E4",
          "ticks": 153112,
          "time": 199.36458333333334,
          "velocity": 0.6929133858267716
        },
        {
          "duration": 0.05729166666665719,
          "durationTicks": 44,
          "midi": 64,
          "name": "E4",
          "ticks": 153306,
          "time": 199.6171875,
          "velocity": 0.7086614173228346
        },
        {
          "duration": 0.0625,
          "durationTicks": 48,
          "midi": 72,
          "name": "C5",
          "ticks": 153306,
          "time": 199.6171875,
          "velocity": 0.7795275590551181
        },
        {
          "duration": 0.0703125,
          "durationTicks": 54,
          "midi": 64,
          "name": "E4",
          "ticks": 153408,
          "time": 199.75,
          "velocity": 0.6929133858267716
        },
        {
          "duration": 0.078125,
          "durationTicks": 60,
          "midi": 72,
          "name": "C5",
          "ticks": 153408,
          "time": 199.75,
          "velocity": 0.7874015748031497
        },
        {
          "duration": 0.2604166666666572,
          "durationTicks": 200,
          "midi": 71,
          "name": "B4",
          "ticks": 153510,
          "time": 199.8828125,
          "velocity": 0.8110236220472441
        },
        {
          "duration": 0.234375,
          "durationTicks": 180,
          "midi": 62,
          "name": "D4",
          "ticks": 153510,
          "time": 199.8828125,
          "velocity": 0.7165354330708661
        },
        {
          "duration": 0.1328125,
          "durationTicks": 102,
          "midi": 67,
          "name": "G4",
          "ticks": 153696,
          "time": 200.125,
          "velocity": 0.7716535433070866
        },
        {
          "duration": 0.1276041666666572,
          "durationTicks": 98,
          "midi": 59,
          "name": "B3",
          "ticks": 153700,
          "time": 200.13020833333334,
          "velocity": 0.6771653543307087
        },
        {
          "duration": 0.09635416666668561,
          "durationTicks": 74,
          "midi": 60,
          "name": "C4",
          "ticks": 154100,
          "time": 200.65104166666666,
          "velocity": 0.7086614173228346
        },
        {
          "duration": 0.09114583333334281,
          "durationTicks": 70,
          "midi": 69,
          "name": "A4",
          "ticks": 154100,
          "time": 200.65104166666666,
          "velocity": 0.7795275590551181
        },
        {
          "duration": 0.17708333333331439,
          "durationTicks": 136,
          "midi": 71,
          "name": "B4",
          "ticks": 154192,
          "time": 200.77083333333334,
          "velocity": 0.7401574803149606
        },
        {
          "duration": 0.1614583333333428,
          "durationTicks": 124,
          "midi": 62,
          "name": "D4",
          "ticks": 154202,
          "time": 200.78385416666666,
          "velocity": 0.6929133858267716
        },
        {
          "duration": 0.2682291666666856,
          "durationTicks": 206,
          "midi": 69,
          "name": "A4",
          "ticks": 154304,
          "time": 200.91666666666666,
          "velocity": 0.7874015748031497
        },
        {
          "duration": 0.2682291666666572,
          "durationTicks": 206,
          "midi": 60,
          "name": "C4",
          "ticks": 154306,
          "time": 200.91927083333334,
          "velocity": 0.6929133858267716
        },
        {
          "duration": 0.109375,
          "durationTicks": 84,
          "midi": 57,
          "name": "A3",
          "ticks": 154502,
          "time": 201.17447916666666,
          "velocity": 0.6299212598425197
        },
        {
          "duration": 0.109375,
          "durationTicks": 84,
          "midi": 65,
          "name": "F4",
          "ticks": 154502,
          "time": 201.17447916666666,
          "velocity": 0.7559055118110236
        },
        {
          "duration": 0.0546875,
          "durationTicks": 42,
          "midi": 60,
          "name": "C4",
          "ticks": 154892,
          "time": 201.68229166666666,
          "velocity": 0.7165354330708661
        },
        {
          "duration": 0.0546875,
          "durationTicks": 42,
          "midi": 69,
          "name": "A4",
          "ticks": 154892,
          "time": 201.68229166666666,
          "velocity": 0.8031496062992126
        },
        {
          "duration": 0.1171875,
          "durationTicks": 90,
          "midi": 60,
          "name": "C4",
          "ticks": 154994,
          "time": 201.81510416666666,
          "velocity": 0.7086614173228346
        },
        {
          "duration": 0.09114583333334281,
          "durationTicks": 70,
          "midi": 69,
          "name": "A4",
          "ticks": 154994,
          "time": 201.81510416666666,
          "velocity": 0.8031496062992126
        },
        {
          "duration": 0.1458333333333428,
          "durationTicks": 112,
          "midi": 68,
          "name": "G#4",
          "ticks": 155096,
          "time": 201.94791666666666,
          "velocity": 0.7952755905511811
        },
        {
          "duration": 0.12239583333331439,
          "durationTicks": 94,
          "midi": 59,
          "name": "B3",
          "ticks": 155098,
          "time": 201.95052083333334,
          "velocity": 0.7165354330708661
        },
        {
          "duration": 0.2213541666666572,
          "durationTicks": 170,
          "midi": 68,
          "name": "G#4",
          "ticks": 155292,
          "time": 202.203125,
          "velocity": 0.7795275590551181
        },
        {
          "duration": 0.2291666666666572,
          "durationTicks": 176,
          "midi": 59,
          "name": "B3",
          "ticks": 155292,
          "time": 202.203125,
          "velocity": 0.7086614173228346
        },
        {
          "duration": 0.2421875,
          "durationTicks": 186,
          "midi": 71,
          "name": "B4",
          "ticks": 155490,
          "time": 202.4609375,
          "velocity": 0.7716535433070866
        },
        {
          "duration": 0.1692708333333428,
          "durationTicks": 130,
          "midi": 64,
          "name": "E4",
          "ticks": 155490,
          "time": 202.4609375,
          "velocity": 0.6929133858267716
        },
        {
          "duration": 0.10677083333334281,
          "durationTicks": 82,
          "midi": 72,
          "name": "C5",
          "ticks": 155690,
          "time": 202.72135416666666,
          "velocity": 0.7401574803149606
        },
        {
          "duration": 0.140625,
          "durationTicks": 108,
          "midi": 64,
          "name": "E4",
          "ticks": 155692,
          "time": 202.72395833333334,
          "velocity": 0.6771653543307087
        },
        {
          "duration": 0.06510416666665719,
          "durationTicks": 50,
          "midi": 64,
          "name": "E4",
          "ticks": 156082,
          "time": 203.23177083333334,
          "velocity": 0.7086614173228346
        },
        {
          "duration": 0.07291666666665719,
          "durationTicks": 56,
          "midi": 72,
          "name": "C5",
          "ticks": 156082,
          "time": 203.23177083333334,
          "velocity": 0.7874015748031497
        },
        {
          "duration": 0.0703125,
          "durationTicks": 54,
          "midi": 64,
          "name": "E4",
          "ticks": 156178,
          "time": 203.35677083333334,
          "velocity": 0.6771653543307087
        },
        {
          "duration": 0.06770833333331439,
          "durationTicks": 52,
          "midi": 72,
          "name": "C5",
          "ticks": 156178,
          "time": 203.35677083333334,
          "velocity": 0.7716535433070866
        },
        {
          "duration": 0.05989583333334281,
          "durationTicks": 46,
          "midi": 72,
          "name": "C5",
          "ticks": 156284,
          "time": 203.49479166666666,
          "velocity": 0.7559055118110236
        },
        {
          "duration": 0.05989583333334281,
          "durationTicks": 46,
          "midi": 64,
          "name": "E4",
          "ticks": 156284,
          "time": 203.49479166666666,
          "velocity": 0.6771653543307087
        },
        {
          "duration": 0.07291666666665719,
          "durationTicks": 56,
          "midi": 72,
          "name": "C5",
          "ticks": 156376,
          "time": 203.61458333333334,
          "velocity": 0.7716535433070866
        },
        {
          "duration": 0.05208333333334281,
          "durationTicks": 40,
          "midi": 64,
          "name": "E4",
          "ticks": 156378,
          "time": 203.6171875,
          "velocity": 0.6771653543307087
        },
        {
          "duration": 0.0546875,
          "durationTicks": 42,
          "midi": 64,
          "name": "E4",
          "ticks": 156476,
          "time": 203.74479166666666,
          "velocity": 0.7086614173228346
        },
        {
          "duration": 0.06770833333334281,
          "durationTicks": 52,
          "midi": 72,
          "name": "C5",
          "ticks": 156476,
          "time": 203.74479166666666,
          "velocity": 0.7716535433070866
        },
        {
          "duration": 0.09635416666665719,
          "durationTicks": 74,
          "midi": 72,
          "name": "C5",
          "ticks": 156568,
          "time": 203.86458333333334,
          "velocity": 0.7795275590551181
        },
        {
          "duration": 0.06510416666668561,
          "durationTicks": 50,
          "midi": 64,
          "name": "E4",
          "ticks": 156578,
          "time": 203.87760416666666,
          "velocity": 0.6929133858267716
        },
        {
          "duration": 0.2213541666666572,
          "durationTicks": 170,
          "midi": 71,
          "name": "B4",
          "ticks": 156682,
          "time": 204.01302083333334,
          "velocity": 0.8031496062992126
        },
        {
          "duration": 0.1953125,
          "durationTicks": 150,
          "midi": 62,
          "name": "D4",
          "ticks": 156684,
          "time": 204.015625,
          "velocity": 0.6929133858267716
        },
        {
          "duration": 0.14322916666668561,
          "durationTicks": 110,
          "midi": 67,
          "name": "G4",
          "ticks": 156866,
          "time": 204.25260416666666,
          "velocity": 0.7480314960629921
        },
        {
          "duration": 0.12239583333334281,
          "durationTicks": 94,
          "midi": 59,
          "name": "B3",
          "ticks": 156870,
          "time": 204.2578125,
          "velocity": 0.6692913385826772
        },
        {
          "duration": 0.08854166666668561,
          "durationTicks": 68,
          "midi": 60,
          "name": "C4",
          "ticks": 157268,
          "time": 204.77604166666666,
          "velocity": 0.7086614173228346
        },
        {
          "duration": 0.08854166666668561,
          "durationTicks": 68,
          "midi": 69,
          "name": "A4",
          "ticks": 157268,
          "time": 204.77604166666666,
          "velocity": 0.7952755905511811
        },
        {
          "duration": 0.109375,
          "durationTicks": 84,
          "midi": 62,
          "name": "D4",
          "ticks": 157370,
          "time": 204.90885416666666,
          "velocity": 0.6614173228346457
        },
        {
          "duration": 0.15885416666668561,
          "durationTicks": 122,
          "midi": 71,
          "name": "B4",
          "ticks": 157370,
          "time": 204.90885416666666,
          "velocity": 0.7244094488188977
        },
        {
          "duration": 0.265625,
          "durationTicks": 204,
          "midi": 60,
          "name": "C4",
          "ticks": 157474,
          "time": 205.04427083333334,
          "velocity": 0.6929133858267716
        },
        {
          "duration": 0.2447916666666572,
          "durationTicks": 188,
          "midi": 69,
          "name": "A4",
          "ticks": 157474,
          "time": 205.04427083333334,
          "velocity": 0.8110236220472441
        },
        {
          "duration": 0.09895833333334281,
          "durationTicks": 76,
          "midi": 57,
          "name": "A3",
          "ticks": 157668,
          "time": 205.296875,
          "velocity": 0.6692913385826772
        },
        {
          "duration": 0.10677083333334281,
          "durationTicks": 82,
          "midi": 65,
          "name": "F4",
          "ticks": 157668,
          "time": 205.296875,
          "velocity": 0.7480314960629921
        },
        {
          "duration": 0.0625,
          "durationTicks": 48,
          "midi": 69,
          "name": "A4",
          "ticks": 158058,
          "time": 205.8046875,
          "velocity": 0.8031496062992126
        },
        {
          "duration": 0.06510416666665719,
          "durationTicks": 50,
          "midi": 60,
          "name": "C4",
          "ticks": 158058,
          "time": 205.8046875,
          "velocity": 0.7165354330708661
        },
        {
          "duration": 0.09375,
          "durationTicks": 72,
          "midi": 69,
          "name": "A4",
          "ticks": 158164,
          "time": 205.94270833333334,
          "velocity": 0.7952755905511811
        },
        {
          "duration": 0.10677083333334281,
          "durationTicks": 82,
          "midi": 60,
          "name": "C4",
          "ticks": 158166,
          "time": 205.9453125,
          "velocity": 0.7086614173228346
        },
        {
          "duration": 0.2838541666666572,
          "durationTicks": 218,
          "midi": 71,
          "name": "B4",
          "ticks": 158260,
          "time": 206.06770833333334,
          "velocity": 0.7795275590551181
        },
        {
          "duration": 0.2604166666666572,
          "durationTicks": 200,
          "midi": 62,
          "name": "D4",
          "ticks": 158268,
          "time": 206.078125,
          "velocity": 0.7086614173228346
        },
        {
          "duration": 0.09375,
          "durationTicks": 72,
          "midi": 67,
          "name": "G4",
          "ticks": 158464,
          "time": 206.33333333333334,
          "velocity": 0.8031496062992126
        },
        {
          "duration": 0.08854166666665719,
          "durationTicks": 68,
          "midi": 59,
          "name": "B3",
          "ticks": 158464,
          "time": 206.33333333333334,
          "velocity": 0.6929133858267716
        },
        {
          "duration": 0.08072916666665719,
          "durationTicks": 62,
          "midi": 72,
          "name": "C5",
          "ticks": 159244,
          "time": 207.34895833333334,
          "velocity": 0.8031496062992126
        },
        {
          "duration": 0.0625,
          "durationTicks": 48,
          "midi": 64,
          "name": "E4",
          "ticks": 159256,
          "time": 207.36458333333334,
          "velocity": 0.7086614173228346
        },
        {
          "duration": 0.0625,
          "durationTicks": 48,
          "midi": 72,
          "name": "C5",
          "ticks": 159348,
          "time": 207.484375,
          "velocity": 0.7874015748031497
        },
        {
          "duration": 0.06770833333334281,
          "durationTicks": 52,
          "midi": 64,
          "name": "E4",
          "ticks": 159350,
          "time": 207.48697916666666,
          "velocity": 0.6771653543307087
        },
        {
          "duration": 0.07291666666665719,
          "durationTicks": 56,
          "midi": 72,
          "name": "C5",
          "ticks": 159442,
          "time": 207.60677083333334,
          "velocity": 0.7637795275590551
        },
        {
          "duration": 0.05729166666665719,
          "durationTicks": 44,
          "midi": 64,
          "name": "E4",
          "ticks": 159454,
          "time": 207.62239583333334,
          "velocity": 0.6771653543307087
        },
        {
          "duration": 0.06510416666665719,
          "durationTicks": 50,
          "midi": 72,
          "name": "C5",
          "ticks": 159546,
          "time": 207.7421875,
          "velocity": 0.7874015748031497
        },
        {
          "duration": 0.0546875,
          "durationTicks": 42,
          "midi": 64,
          "name": "E4",
          "ticks": 159548,
          "time": 207.74479166666666,
          "velocity": 0.6692913385826772
        },
        {
          "duration": 0.059895833333314386,
          "durationTicks": 46,
          "midi": 72,
          "name": "C5",
          "ticks": 159640,
          "time": 207.86458333333334,
          "velocity": 0.7795275590551181
        },
        {
          "duration": 0.05208333333334281,
          "durationTicks": 40,
          "midi": 64,
          "name": "E4",
          "ticks": 159648,
          "time": 207.875,
          "velocity": 0.6929133858267716
        },
        {
          "duration": 0.08854166666668561,
          "durationTicks": 68,
          "midi": 72,
          "name": "C5",
          "ticks": 159740,
          "time": 207.99479166666666,
          "velocity": 0.7874015748031497
        },
        {
          "duration": 0.0625,
          "durationTicks": 48,
          "midi": 64,
          "name": "E4",
          "ticks": 159750,
          "time": 208.0078125,
          "velocity": 0.6771653543307087
        },
        {
          "duration": 0.2682291666666856,
          "durationTicks": 206,
          "midi": 71,
          "name": "B4",
          "ticks": 159848,
          "time": 208.13541666666666,
          "velocity": 0.8031496062992126
        },
        {
          "duration": 0.2265625,
          "durationTicks": 174,
          "midi": 62,
          "name": "D4",
          "ticks": 159854,
          "time": 208.14322916666666,
          "velocity": 0.7007874015748031
        },
        {
          "duration": 0.1171875,
          "durationTicks": 90,
          "midi": 67,
          "name": "G4",
          "ticks": 160050,
          "time": 208.3984375,
          "velocity": 0.7795275590551181
        },
        {
          "duration": 0.11197916666665719,
          "durationTicks": 86,
          "midi": 59,
          "name": "B3",
          "ticks": 160050,
          "time": 208.3984375,
          "velocity": 0.6456692913385826
        },
        {
          "duration": 0.0703125,
          "durationTicks": 54,
          "midi": 69,
          "name": "A4",
          "ticks": 160440,
          "time": 208.90625,
          "velocity": 0.8031496062992126
        },
        {
          "duration": 0.0703125,
          "durationTicks": 54,
          "midi": 60,
          "name": "C4",
          "ticks": 160444,
          "time": 208.91145833333334,
          "velocity": 0.7165354330708661
        },
        {
          "duration": 0.1484375,
          "durationTicks": 114,
          "midi": 71,
          "name": "B4",
          "ticks": 160540,
          "time": 209.03645833333334,
          "velocity": 0.6850393700787402
        },
        {
          "duration": 0.1536458333333428,
          "durationTicks": 118,
          "midi": 62,
          "name": "D4",
          "ticks": 160542,
          "time": 209.0390625,
          "velocity": 0.6377952755905512
        },
        {
          "duration": 0.2760416666666856,
          "durationTicks": 212,
          "midi": 69,
          "name": "A4",
          "ticks": 160634,
          "time": 209.15885416666666,
          "velocity": 0.7874015748031497
        },
        {
          "duration": 0.2473958333333428,
          "durationTicks": 190,
          "midi": 60,
          "name": "C4",
          "ticks": 160638,
          "time": 209.1640625,
          "velocity": 0.7086614173228346
        },
        {
          "duration": 0.109375,
          "durationTicks": 84,
          "midi": 65,
          "name": "F4",
          "ticks": 160840,
          "time": 209.42708333333334,
          "velocity": 0.7874015748031497
        },
        {
          "duration": 0.09635416666665719,
          "durationTicks": 74,
          "midi": 57,
          "name": "A3",
          "ticks": 160840,
          "time": 209.42708333333334,
          "velocity": 0.6692913385826772
        },
        {
          "duration": 0.046875,
          "durationTicks": 36,
          "midi": 69,
          "name": "A4",
          "ticks": 161238,
          "time": 209.9453125,
          "velocity": 0.8031496062992126
        },
        {
          "duration": 0.04427083333334281,
          "durationTicks": 34,
          "midi": 60,
          "name": "C4",
          "ticks": 161238,
          "time": 209.9453125,
          "velocity": 0.7086614173228346
        },
        {
          "duration": 0.09375,
          "durationTicks": 72,
          "midi": 69,
          "name": "A4",
          "ticks": 161336,
          "time": 210.07291666666666,
          "velocity": 0.8031496062992126
        },
        {
          "duration": 0.08333333333331439,
          "durationTicks": 64,
          "midi": 60,
          "name": "C4",
          "ticks": 161338,
          "time": 210.07552083333334,
          "velocity": 0.6929133858267716
        },
        {
          "duration": 0.2708333333333428,
          "durationTicks": 208,
          "midi": 68,
          "name": "G#4",
          "ticks": 161432,
          "time": 210.19791666666666,
          "velocity": 0.7716535433070866
        },
        {
          "duration": 0.13020833333331439,
          "durationTicks": 100,
          "midi": 59,
          "name": "B3",
          "ticks": 161434,
          "time": 210.20052083333334,
          "velocity": 0.6929133858267716
        },
        {
          "duration": 0.2161458333333428,
          "durationTicks": 166,
          "midi": 59,
          "name": "B3",
          "ticks": 161630,
          "time": 210.45572916666666,
          "velocity": 0.6929133858267716
        },
        {
          "duration": 0.21875,
          "durationTicks": 168,
          "midi": 69,
          "name": "A4",
          "ticks": 161630,
          "time": 210.45572916666666,
          "velocity": 0.8031496062992126
        },
        {
          "duration": 0.2916666666666572,
          "durationTicks": 224,
          "midi": 71,
          "name": "B4",
          "ticks": 161830,
          "time": 210.71614583333334,
          "velocity": 0.7874015748031497
        },
        {
          "duration": 0.140625,
          "durationTicks": 108,
          "midi": 64,
          "name": "E4",
          "ticks": 161832,
          "time": 210.71875,
          "velocity": 0.6771653543307087
        },
        {
          "duration": 0.1015625,
          "durationTicks": 78,
          "midi": 72,
          "name": "C5",
          "ticks": 162034,
          "time": 210.98177083333334,
          "velocity": 0.7559055118110236
        },
        {
          "duration": 0.08854166666665719,
          "durationTicks": 68,
          "midi": 64,
          "name": "E4",
          "ticks": 162036,
          "time": 210.984375,
          "velocity": 0.6929133858267716
        }
      ],
      "endOfTrackTicks": 162510
    },
    {
      "channel": 6,
      "controlChanges": {
        "7": [
          {
            "number": 7,
            "ticks": 1536,
            "time": 2,
            "value": 1
          }
        ],
        "10": [
          {
            "number": 10,
            "ticks": 1536,
            "time": 2,
            "value": 0.7086614173228346
          }
        ]
      },
      "pitchBends": [
        {
          "ticks": 162328,
          "time": 211.36458333333334,
          "value": 0
        }
      ],
      "instrument": {
        "family": "synth pad",
        "number": 90,
        "name": "pad 3 (polysynth)"
      },
      "name": "POLYSYNTH",
      "notes": [
        {
          "duration": 3.2552083333333357,
          "durationTicks": 2500,
          "midi": 48,
          "name": "C3",
          "ticks": 28928,
          "time": 37.666666666666664,
          "velocity": 0.7952755905511811
        },
        {
          "duration": 3.2578125,
          "durationTicks": 2502,
          "midi": 57,
          "name": "A3",
          "ticks": 28930,
          "time": 37.669270833333336,
          "velocity": 0.7480314960629921
        },
        {
          "duration": 3.3046875,
          "durationTicks": 2538,
          "midi": 53,
          "name": "F3",
          "ticks": 28930,
          "time": 37.669270833333336,
          "velocity": 0.7637795275590551
        },
        {
          "duration": 0.7473958333333357,
          "durationTicks": 574,
          "midi": 59,
          "name": "B3",
          "ticks": 31502,
          "time": 41.018229166666664,
          "velocity": 0.6062992125984252
        },
        {
          "duration": 0.7760416666666714,
          "durationTicks": 596,
          "midi": 55,
          "name": "G3",
          "ticks": 31502,
          "time": 41.018229166666664,
          "velocity": 0.7480314960629921
        },
        {
          "duration": 0.7265625,
          "durationTicks": 558,
          "midi": 50,
          "name": "D3",
          "ticks": 31504,
          "time": 41.020833333333336,
          "velocity": 0.7480314960629921
        },
        {
          "duration": 3.2526041666666643,
          "durationTicks": 2498,
          "midi": 53,
          "name": "F3",
          "ticks": 32100,
          "time": 41.796875,
          "velocity": 0.7480314960629921
        },
        {
          "duration": 3.1979166666666643,
          "durationTicks": 2456,
          "midi": 48,
          "name": "C3",
          "ticks": 32100,
          "time": 41.796875,
          "velocity": 0.8346456692913385
        },
        {
          "duration": 3.203125,
          "durationTicks": 2460,
          "midi": 57,
          "name": "A3",
          "ticks": 32102,
          "time": 41.799479166666664,
          "velocity": 0.7165354330708661
        },
        {
          "duration": 0.7447916666666643,
          "durationTicks": 572,
          "midi": 59,
          "name": "B3",
          "ticks": 34672,
          "time": 45.145833333333336,
          "velocity": 0.7795275590551181
        },
        {
          "duration": 0.7473958333333286,
          "durationTicks": 574,
          "midi": 55,
          "name": "G3",
          "ticks": 34672,
          "time": 45.145833333333336,
          "velocity": 0.8267716535433071
        },
        {
          "duration": 0.71875,
          "durationTicks": 552,
          "midi": 50,
          "name": "D3",
          "ticks": 34676,
          "time": 45.151041666666664,
          "velocity": 0.8188976377952756
        },
        {
          "duration": 3.1875,
          "durationTicks": 2448,
          "midi": 57,
          "name": "A3",
          "ticks": 35262,
          "time": 45.9140625,
          "velocity": 0.7322834645669292
        },
        {
          "duration": 3.1979166666666643,
          "durationTicks": 2456,
          "midi": 48,
          "name": "C3",
          "ticks": 35262,
          "time": 45.9140625,
          "velocity": 0.8267716535433071
        },
        {
          "duration": 3.2473958333333357,
          "durationTicks": 2494,
          "midi": 53,
          "name": "F3",
          "ticks": 35262,
          "time": 45.9140625,
          "velocity": 0.7322834645669292
        },
        {
          "duration": 0.7317708333333286,
          "durationTicks": 562,
          "midi": 59,
          "name": "B3",
          "ticks": 37834,
          "time": 49.263020833333336,
          "velocity": 0.7637795275590551
        },
        {
          "duration": 0.7369791666666643,
          "durationTicks": 566,
          "midi": 55,
          "name": "G3",
          "ticks": 37840,
          "time": 49.270833333333336,
          "velocity": 0.7637795275590551
        },
        {
          "duration": 0.7161458333333286,
          "durationTicks": 550,
          "midi": 50,
          "name": "D3",
          "ticks": 37840,
          "time": 49.270833333333336,
          "velocity": 0.7165354330708661
        },
        {
          "duration": 2.328125,
          "durationTicks": 1788,
          "midi": 53,
          "name": "F3",
          "ticks": 38432,
          "time": 50.041666666666664,
          "velocity": 0.7007874015748031
        },
        {
          "duration": 2.3229166666666643,
          "durationTicks": 1784,
          "midi": 48,
          "name": "C3",
          "ticks": 38434,
          "time": 50.044270833333336,
          "velocity": 0.7165354330708661
        },
        {
          "duration": 2.3203125,
          "durationTicks": 1782,
          "midi": 57,
          "name": "A3",
          "ticks": 38436,
          "time": 50.046875,
          "velocity": 0.7165354330708661
        },
        {
          "duration": 1.8046875,
          "durationTicks": 1386,
          "midi": 56,
          "name": "G#3",
          "ticks": 40220,
          "time": 52.369791666666664,
          "velocity": 0.7559055118110236
        },
        {
          "duration": 1.8046875,
          "durationTicks": 1386,
          "midi": 47,
          "name": "B2",
          "ticks": 40220,
          "time": 52.369791666666664,
          "velocity": 0.6850393700787402
        },
        {
          "duration": 1.8020833333333286,
          "durationTicks": 1384,
          "midi": 52,
          "name": "E3",
          "ticks": 40222,
          "time": 52.372395833333336,
          "velocity": 0.7244094488188977
        },
        {
          "duration": 1.234375,
          "durationTicks": 948,
          "midi": 64,
          "name": "E4",
          "ticks": 41602,
          "time": 54.169270833333336,
          "velocity": 0.6692913385826772
        },
        {
          "duration": 1.2369791666666643,
          "durationTicks": 950,
          "midi": 69,
          "name": "A4",
          "ticks": 41602,
          "time": 54.169270833333336,
          "velocity": 0.6692913385826772
        },
        {
          "duration": 1.2473958333333286,
          "durationTicks": 958,
          "midi": 72,
          "name": "C5",
          "ticks": 41602,
          "time": 54.169270833333336,
          "velocity": 0.6850393700787402
        },
        {
          "duration": 1.3046875,
          "durationTicks": 1002,
          "midi": 48,
          "name": "C3",
          "ticks": 41604,
          "time": 54.171875,
          "velocity": 0.5511811023622047
        },
        {
          "duration": 1.2604166666666714,
          "durationTicks": 968,
          "midi": 60,
          "name": "C4",
          "ticks": 41606,
          "time": 54.174479166666664,
          "velocity": 0.49606299212598426
        },
        {
          "duration": 1.0625,
          "durationTicks": 816,
          "midi": 47,
          "name": "B2",
          "ticks": 42598,
          "time": 55.466145833333336,
          "velocity": 0.5433070866141733
        },
        {
          "duration": 1.0520833333333286,
          "durationTicks": 808,
          "midi": 59,
          "name": "B3",
          "ticks": 42598,
          "time": 55.466145833333336,
          "velocity": 0.5275590551181102
        },
        {
          "duration": 1.0286458333333286,
          "durationTicks": 790,
          "midi": 67,
          "name": "G4",
          "ticks": 42604,
          "time": 55.473958333333336,
          "velocity": 0.6692913385826772
        },
        {
          "duration": 1.0286458333333286,
          "durationTicks": 790,
          "midi": 71,
          "name": "B4",
          "ticks": 42604,
          "time": 55.473958333333336,
          "velocity": 0.6692913385826772
        },
        {
          "duration": 1.0338541666666714,
          "durationTicks": 794,
          "midi": 62,
          "name": "D4",
          "ticks": 42608,
          "time": 55.479166666666664,
          "velocity": 0.6692913385826772
        },
        {
          "duration": 1.0703125,
          "durationTicks": 822,
          "midi": 45,
          "name": "A2",
          "ticks": 43376,
          "time": 56.479166666666664,
          "velocity": 0.5275590551181102
        },
        {
          "duration": 1.0859375,
          "durationTicks": 834,
          "midi": 57,
          "name": "A3",
          "ticks": 43378,
          "time": 56.481770833333336,
          "velocity": 0.5275590551181102
        },
        {
          "duration": 0.9583333333333286,
          "durationTicks": 736,
          "midi": 60,
          "name": "C4",
          "ticks": 43396,
          "time": 56.505208333333336,
          "velocity": 0.6692913385826772
        },
        {
          "duration": 0.9791666666666643,
          "durationTicks": 752,
          "midi": 65,
          "name": "F4",
          "ticks": 43396,
          "time": 56.505208333333336,
          "velocity": 0.6692913385826772
        },
        {
          "duration": 0.9895833333333286,
          "durationTicks": 760,
          "midi": 69,
          "name": "A4",
          "ticks": 43396,
          "time": 56.505208333333336,
          "velocity": 0.6771653543307087
        },
        {
          "duration": 0.84375,
          "durationTicks": 648,
          "midi": 47,
          "name": "B2",
          "ticks": 44170,
          "time": 57.513020833333336,
          "velocity": 0.5039370078740157
        },
        {
          "duration": 0.7916666666666643,
          "durationTicks": 608,
          "midi": 59,
          "name": "B3",
          "ticks": 44182,
          "time": 57.528645833333336,
          "velocity": 0.5354330708661418
        },
        {
          "duration": 0.7708333333333357,
          "durationTicks": 592,
          "midi": 62,
          "name": "D4",
          "ticks": 44192,
          "time": 57.541666666666664,
          "velocity": 0.6692913385826772
        },
        {
          "duration": 0.7708333333333286,
          "durationTicks": 592,
          "midi": 71,
          "name": "B4",
          "ticks": 44194,
          "time": 57.544270833333336,
          "velocity": 0.6850393700787402
        },
        {
          "duration": 0.7734375,
          "durationTicks": 594,
          "midi": 67,
          "name": "G4",
          "ticks": 44196,
          "time": 57.546875,
          "velocity": 0.6692913385826772
        },
        {
          "duration": 1.2994791666666714,
          "durationTicks": 998,
          "midi": 48,
          "name": "C3",
          "ticks": 44780,
          "time": 58.307291666666664,
          "velocity": 0.5590551181102362
        },
        {
          "duration": 1.2552083333333357,
          "durationTicks": 964,
          "midi": 60,
          "name": "C4",
          "ticks": 44780,
          "time": 58.307291666666664,
          "velocity": 0.5196850393700787
        },
        {
          "duration": 1.1536458333333357,
          "durationTicks": 886,
          "midi": 72,
          "name": "C5",
          "ticks": 44786,
          "time": 58.315104166666664,
          "velocity": 0.6850393700787402
        },
        {
          "duration": 1.15625,
          "durationTicks": 888,
          "midi": 69,
          "name": "A4",
          "ticks": 44786,
          "time": 58.315104166666664,
          "velocity": 0.6692913385826772
        },
        {
          "duration": 1.1536458333333286,
          "durationTicks": 886,
          "midi": 64,
          "name": "E4",
          "ticks": 44788,
          "time": 58.317708333333336,
          "velocity": 0.6614173228346457
        },
        {
          "duration": 1.0729166666666714,
          "durationTicks": 824,
          "midi": 47,
          "name": "B2",
          "ticks": 45758,
          "time": 59.580729166666664,
          "velocity": 0.5433070866141733
        },
        {
          "duration": 1.0755208333333357,
          "durationTicks": 826,
          "midi": 59,
          "name": "B3",
          "ticks": 45758,
          "time": 59.580729166666664,
          "velocity": 0.5354330708661418
        },
        {
          "duration": 1.0286458333333286,
          "durationTicks": 790,
          "midi": 67,
          "name": "G4",
          "ticks": 45772,
          "time": 59.598958333333336,
          "velocity": 0.6692913385826772
        },
        {
          "duration": 1.03125,
          "durationTicks": 792,
          "midi": 71,
          "name": "B4",
          "ticks": 45776,
          "time": 59.604166666666664,
          "velocity": 0.6692913385826772
        },
        {
          "duration": 1.03125,
          "durationTicks": 792,
          "midi": 62,
          "name": "D4",
          "ticks": 45776,
          "time": 59.604166666666664,
          "velocity": 0.6692913385826772
        },
        {
          "duration": 1.1197916666666643,
          "durationTicks": 860,
          "midi": 45,
          "name": "A2",
          "ticks": 46548,
          "time": 60.609375,
          "velocity": 0.5275590551181102
        },
        {
          "duration": 1.0625,
          "durationTicks": 816,
          "midi": 57,
          "name": "A3",
          "ticks": 46550,
          "time": 60.611979166666664,
          "velocity": 0.5511811023622047
        },
        {
          "duration": 0.9322916666666643,
          "durationTicks": 716,
          "midi": 69,
          "name": "A4",
          "ticks": 46570,
          "time": 60.638020833333336,
          "velocity": 0.6850393700787402
        },
        {
          "duration": 0.8932291666666643,
          "durationTicks": 686,
          "midi": 60,
          "name": "C4",
          "ticks": 46570,
          "time": 60.638020833333336,
          "velocity": 0.6692913385826772
        },
        {
          "duration": 0.8932291666666643,
          "durationTicks": 686,
          "midi": 65,
          "name": "F4",
          "ticks": 46570,
          "time": 60.638020833333336,
          "velocity": 0.6692913385826772
        },
        {
          "duration": 0.828125,
          "durationTicks": 636,
          "midi": 44,
          "name": "G#2",
          "ticks": 47340,
          "time": 61.640625,
          "velocity": 0.44881889763779526
        },
        {
          "duration": 0.8020833333333286,
          "durationTicks": 616,
          "midi": 56,
          "name": "G#3",
          "ticks": 47350,
          "time": 61.653645833333336,
          "velocity": 0.5118110236220472
        },
        {
          "duration": 0.7734375,
          "durationTicks": 594,
          "midi": 64,
          "name": "E4",
          "ticks": 47358,
          "time": 61.6640625,
          "velocity": 0.6614173228346457
        },
        {
          "duration": 0.7734375,
          "durationTicks": 594,
          "midi": 68,
          "name": "G#4",
          "ticks": 47358,
          "time": 61.6640625,
          "velocity": 0.6692913385826772
        },
        {
          "duration": 0.7760416666666643,
          "durationTicks": 596,
          "midi": 59,
          "name": "B3",
          "ticks": 47362,
          "time": 61.669270833333336,
          "velocity": 0.6692913385826772
        },
        {
          "duration": 1.2994791666666714,
          "durationTicks": 998,
          "midi": 48,
          "name": "C3",
          "ticks": 47954,
          "time": 62.440104166666664,
          "velocity": 0.5669291338582677
        },
        {
          "duration": 1.2994791666666714,
          "durationTicks": 998,
          "midi": 60,
          "name": "C4",
          "ticks": 47954,
          "time": 62.440104166666664,
          "velocity": 0.47244094488188976
        },
        {
          "duration": 1.2864583333333357,
          "durationTicks": 988,
          "midi": 72,
          "name": "C5",
          "ticks": 47958,
          "time": 62.4453125,
          "velocity": 0.6850393700787402
        },
        {
          "duration": 1.2838541666666714,
          "durationTicks": 986,
          "midi": 69,
          "name": "A4",
          "ticks": 47960,
          "time": 62.447916666666664,
          "velocity": 0.6692913385826772
        },
        {
          "duration": 1.2838541666666714,
          "durationTicks": 986,
          "midi": 64,
          "name": "E4",
          "ticks": 47960,
          "time": 62.447916666666664,
          "velocity": 0.6692913385826772
        },
        {
          "duration": 1.0677083333333286,
          "durationTicks": 820,
          "midi": 47,
          "name": "B2",
          "ticks": 48936,
          "time": 63.71875,
          "velocity": 0.5354330708661418
        },
        {
          "duration": 1.0520833333333357,
          "durationTicks": 808,
          "midi": 59,
          "name": "B3",
          "ticks": 48938,
          "time": 63.721354166666664,
          "velocity": 0.5354330708661418
        },
        {
          "duration": 1.023437499999993,
          "durationTicks": 786,
          "midi": 62,
          "name": "D4",
          "ticks": 48946,
          "time": 63.731770833333336,
          "velocity": 0.6692913385826772
        },
        {
          "duration": 1.023437499999993,
          "durationTicks": 786,
          "midi": 67,
          "name": "G4",
          "ticks": 48946,
          "time": 63.731770833333336,
          "velocity": 0.6692913385826772
        },
        {
          "duration": 1.0286458333333357,
          "durationTicks": 790,
          "midi": 71,
          "name": "B4",
          "ticks": 48952,
          "time": 63.739583333333336,
          "velocity": 0.6850393700787402
        },
        {
          "duration": 1.0703125,
          "durationTicks": 822,
          "midi": 57,
          "name": "A3",
          "ticks": 49728,
          "time": 64.75,
          "velocity": 0.5354330708661418
        },
        {
          "duration": 1.0520833333333286,
          "durationTicks": 808,
          "midi": 45,
          "name": "A2",
          "ticks": 49728,
          "time": 64.75,
          "velocity": 0.5275590551181102
        },
        {
          "duration": 1.0104166666666714,
          "durationTicks": 776,
          "midi": 65,
          "name": "F4",
          "ticks": 49732,
          "time": 64.75520833333333,
          "velocity": 0.6692913385826772
        },
        {
          "duration": 0.9583333333333428,
          "durationTicks": 736,
          "midi": 60,
          "name": "C4",
          "ticks": 49732,
          "time": 64.75520833333333,
          "velocity": 0.6692913385826772
        },
        {
          "duration": 0.9505208333333286,
          "durationTicks": 730,
          "midi": 69,
          "name": "A4",
          "ticks": 49742,
          "time": 64.76822916666667,
          "velocity": 0.6850393700787402
        },
        {
          "duration": 0.8229166666666572,
          "durationTicks": 632,
          "midi": 47,
          "name": "B2",
          "ticks": 50522,
          "time": 65.78385416666667,
          "velocity": 0.5039370078740157
        },
        {
          "duration": 0.7734375,
          "durationTicks": 594,
          "midi": 71,
          "name": "B4",
          "ticks": 50528,
          "time": 65.79166666666667,
          "velocity": 0.6692913385826772
        },
        {
          "duration": 0.7916666666666714,
          "durationTicks": 608,
          "midi": 59,
          "name": "B3",
          "ticks": 50530,
          "time": 65.79427083333333,
          "velocity": 0.5433070866141733
        },
        {
          "duration": 0.7734375,
          "durationTicks": 594,
          "midi": 62,
          "name": "D4",
          "ticks": 50534,
          "time": 65.79947916666667,
          "velocity": 0.6692913385826772
        },
        {
          "duration": 0.7760416666666572,
          "durationTicks": 596,
          "midi": 67,
          "name": "G4",
          "ticks": 50534,
          "time": 65.79947916666667,
          "velocity": 0.6692913385826772
        },
        {
          "duration": 1.2473958333333286,
          "durationTicks": 958,
          "midi": 60,
          "name": "C4",
          "ticks": 51122,
          "time": 66.56510416666667,
          "velocity": 0.5354330708661418
        },
        {
          "duration": 1.2578125,
          "durationTicks": 966,
          "midi": 48,
          "name": "C3",
          "ticks": 51124,
          "time": 66.56770833333333,
          "velocity": 0.5275590551181102
        },
        {
          "duration": 1.28125,
          "durationTicks": 984,
          "midi": 72,
          "name": "C5",
          "ticks": 51132,
          "time": 66.578125,
          "velocity": 0.6850393700787402
        },
        {
          "duration": 1.2786458333333286,
          "durationTicks": 982,
          "midi": 69,
          "name": "A4",
          "ticks": 51132,
          "time": 66.578125,
          "velocity": 0.6692913385826772
        },
        {
          "duration": 1.2786458333333286,
          "durationTicks": 982,
          "midi": 64,
          "name": "E4",
          "ticks": 51132,
          "time": 66.578125,
          "velocity": 0.6535433070866141
        },
        {
          "duration": 1.0755208333333286,
          "durationTicks": 826,
          "midi": 59,
          "name": "B3",
          "ticks": 52098,
          "time": 67.8359375,
          "velocity": 0.5275590551181102
        },
        {
          "duration": 1.078125,
          "durationTicks": 828,
          "midi": 47,
          "name": "B2",
          "ticks": 52098,
          "time": 67.8359375,
          "velocity": 0.5275590551181102
        },
        {
          "duration": 0.9895833333333286,
          "durationTicks": 760,
          "midi": 71,
          "name": "B4",
          "ticks": 52116,
          "time": 67.859375,
          "velocity": 0.6771653543307087
        },
        {
          "duration": 0.9895833333333286,
          "durationTicks": 760,
          "midi": 67,
          "name": "G4",
          "ticks": 52118,
          "time": 67.86197916666667,
          "velocity": 0.6692913385826772
        },
        {
          "duration": 0.984375,
          "durationTicks": 756,
          "midi": 62,
          "name": "D4",
          "ticks": 52118,
          "time": 67.86197916666667,
          "velocity": 0.6692913385826772
        },
        {
          "duration": 1.1223958333333286,
          "durationTicks": 862,
          "midi": 45,
          "name": "A2",
          "ticks": 52890,
          "time": 68.8671875,
          "velocity": 0.5354330708661418
        },
        {
          "duration": 1.0885416666666572,
          "durationTicks": 836,
          "midi": 57,
          "name": "A3",
          "ticks": 52892,
          "time": 68.86979166666667,
          "velocity": 0.5354330708661418
        },
        {
          "duration": 0.9739583333333286,
          "durationTicks": 748,
          "midi": 65,
          "name": "F4",
          "ticks": 52910,
          "time": 68.89322916666667,
          "velocity": 0.6692913385826772
        },
        {
          "duration": 0.9635416666666714,
          "durationTicks": 740,
          "midi": 69,
          "name": "A4",
          "ticks": 52912,
          "time": 68.89583333333333,
          "velocity": 0.6850393700787402
        },
        {
          "duration": 0.9557291666666714,
          "durationTicks": 734,
          "midi": 60,
          "name": "C4",
          "ticks": 52912,
          "time": 68.89583333333333,
          "velocity": 0.6692913385826772
        },
        {
          "duration": 0.8255208333333428,
          "durationTicks": 634,
          "midi": 44,
          "name": "G#2",
          "ticks": 53692,
          "time": 69.91145833333333,
          "velocity": 0.49606299212598426
        },
        {
          "duration": 0.7708333333333428,
          "durationTicks": 592,
          "midi": 64,
          "name": "E4",
          "ticks": 53698,
          "time": 69.91927083333333,
          "velocity": 0.6692913385826772
        },
        {
          "duration": 0.7708333333333428,
          "durationTicks": 592,
          "midi": 59,
          "name": "B3",
          "ticks": 53698,
          "time": 69.91927083333333,
          "velocity": 0.6692913385826772
        },
        {
          "duration": 0.7708333333333286,
          "durationTicks": 592,
          "midi": 68,
          "name": "G#4",
          "ticks": 53700,
          "time": 69.921875,
          "velocity": 0.6692913385826772
        },
        {
          "duration": 0.7942708333333286,
          "durationTicks": 610,
          "midi": 56,
          "name": "G#3",
          "ticks": 53700,
          "time": 69.921875,
          "velocity": 0.5275590551181102
        },
        {
          "duration": 3.3515625,
          "durationTicks": 2574,
          "midi": 57,
          "name": "A3",
          "ticks": 54294,
          "time": 70.6953125,
          "velocity": 0.7401574803149606
        },
        {
          "duration": 3.3515625,
          "durationTicks": 2574,
          "midi": 65,
          "name": "F4",
          "ticks": 54294,
          "time": 70.6953125,
          "velocity": 0.84251968503937
        },
        {
          "duration": 3.28125,
          "durationTicks": 2520,
          "midi": 60,
          "name": "C4",
          "ticks": 54294,
          "time": 70.6953125,
          "velocity": 0.7874015748031497
        },
        {
          "duration": 3.2890625,
          "durationTicks": 2526,
          "midi": 69,
          "name": "A4",
          "ticks": 54302,
          "time": 70.70572916666667,
          "velocity": 0.6299212598425197
        },
        {
          "duration": 0.7473958333333428,
          "durationTicks": 574,
          "midi": 71,
          "name": "B4",
          "ticks": 56860,
          "time": 74.03645833333333,
          "velocity": 0.6220472440944882
        },
        {
          "duration": 0.7109375,
          "durationTicks": 546,
          "midi": 59,
          "name": "B3",
          "ticks": 56866,
          "time": 74.04427083333333,
          "velocity": 0.7322834645669292
        },
        {
          "duration": 0.7265625,
          "durationTicks": 558,
          "midi": 67,
          "name": "G4",
          "ticks": 56870,
          "time": 74.04947916666667,
          "velocity": 0.8267716535433071
        },
        {
          "duration": 0.7135416666666572,
          "durationTicks": 548,
          "midi": 62,
          "name": "D4",
          "ticks": 56870,
          "time": 74.04947916666667,
          "velocity": 0.7480314960629921
        },
        {
          "duration": 3.375,
          "durationTicks": 2592,
          "midi": 69,
          "name": "A4",
          "ticks": 57450,
          "time": 74.8046875,
          "velocity": 0.6141732283464567
        },
        {
          "duration": 3.359375,
          "durationTicks": 2580,
          "midi": 57,
          "name": "A3",
          "ticks": 57458,
          "time": 74.81510416666667,
          "velocity": 0.6535433070866141
        },
        {
          "duration": 3.3567708333333286,
          "durationTicks": 2578,
          "midi": 60,
          "name": "C4",
          "ticks": 57458,
          "time": 74.81510416666667,
          "velocity": 0.7007874015748031
        },
        {
          "duration": 3.3541666666666714,
          "durationTicks": 2576,
          "midi": 65,
          "name": "F4",
          "ticks": 57460,
          "time": 74.81770833333333,
          "velocity": 0.7795275590551181
        },
        {
          "duration": 0.765625,
          "durationTicks": 588,
          "midi": 71,
          "name": "B4",
          "ticks": 60026,
          "time": 78.15885416666667,
          "velocity": 0.6141732283464567
        },
        {
          "duration": 0.7083333333333286,
          "durationTicks": 544,
          "midi": 59,
          "name": "B3",
          "ticks": 60038,
          "time": 78.17447916666667,
          "velocity": 0.6850393700787402
        },
        {
          "duration": 0.6927083333333428,
          "durationTicks": 532,
          "midi": 62,
          "name": "D4",
          "ticks": 60040,
          "time": 78.17708333333333,
          "velocity": 0.7795275590551181
        },
        {
          "duration": 0.7057291666666714,
          "durationTicks": 542,
          "midi": 67,
          "name": "G4",
          "ticks": 60040,
          "time": 78.17708333333333,
          "velocity": 0.8346456692913385
        },
        {
          "duration": 3.315104166666657,
          "durationTicks": 2546,
          "midi": 69,
          "name": "A4",
          "ticks": 60626,
          "time": 78.94010416666667,
          "velocity": 0.6141732283464567
        },
        {
          "duration": 3.3567708333333286,
          "durationTicks": 2578,
          "midi": 60,
          "name": "C4",
          "ticks": 60626,
          "time": 78.94010416666667,
          "velocity": 0.7637795275590551
        },
        {
          "duration": 3.359375,
          "durationTicks": 2580,
          "midi": 57,
          "name": "A3",
          "ticks": 60626,
          "time": 78.94010416666667,
          "velocity": 0.7165354330708661
        },
        {
          "duration": 3.3567708333333286,
          "durationTicks": 2578,
          "midi": 65,
          "name": "F4",
          "ticks": 60626,
          "time": 78.94010416666667,
          "velocity": 0.8110236220472441
        },
        {
          "duration": 0.8098958333333286,
          "durationTicks": 622,
          "midi": 71,
          "name": "B4",
          "ticks": 63194,
          "time": 82.28385416666667,
          "velocity": 0.6299212598425197
        },
        {
          "duration": 0.7786458333333286,
          "durationTicks": 598,
          "midi": 59,
          "name": "B3",
          "ticks": 63198,
          "time": 82.2890625,
          "velocity": 0.7322834645669292
        },
        {
          "duration": 0.7760416666666572,
          "durationTicks": 596,
          "midi": 62,
          "name": "D4",
          "ticks": 63200,
          "time": 82.29166666666667,
          "velocity": 0.7322834645669292
        },
        {
          "duration": 0.7760416666666572,
          "durationTicks": 596,
          "midi": 67,
          "name": "G4",
          "ticks": 63206,
          "time": 82.29947916666667,
          "velocity": 0.8110236220472441
        },
        {
          "duration": 0.2890625,
          "durationTicks": 222,
          "midi": 69,
          "name": "A4",
          "ticks": 63798,
          "time": 83.0703125,
          "velocity": 0.6220472440944882
        },
        {
          "duration": 0.25,
          "durationTicks": 192,
          "midi": 57,
          "name": "A3",
          "ticks": 63804,
          "time": 83.078125,
          "velocity": 0.7322834645669292
        },
        {
          "duration": 0.2473958333333286,
          "durationTicks": 190,
          "midi": 60,
          "name": "C4",
          "ticks": 63804,
          "time": 83.078125,
          "velocity": 0.7401574803149606
        },
        {
          "duration": 0.2473958333333286,
          "durationTicks": 190,
          "midi": 65,
          "name": "F4",
          "ticks": 63804,
          "time": 83.078125,
          "velocity": 0.7952755905511811
        },
        {
          "duration": 0.1510416666666572,
          "durationTicks": 116,
          "midi": 68,
          "name": "G#4",
          "ticks": 63998,
          "time": 83.33072916666667,
          "velocity": 0.5669291338582677
        },
        {
          "duration": 0.1197916666666714,
          "durationTicks": 92,
          "midi": 64,
          "name": "E4",
          "ticks": 64002,
          "time": 83.3359375,
          "velocity": 0.7795275590551181
        },
        {
          "duration": 0.1145833333333286,
          "durationTicks": 88,
          "midi": 56,
          "name": "G#3",
          "ticks": 64004,
          "time": 83.33854166666667,
          "velocity": 0.7007874015748031
        },
        {
          "duration": 0.1145833333333286,
          "durationTicks": 88,
          "midi": 59,
          "name": "B3",
          "ticks": 64004,
          "time": 83.33854166666667,
          "velocity": 0.7322834645669292
        },
        {
          "duration": 3.2578125,
          "durationTicks": 2502,
          "midi": 48,
          "name": "C3",
          "ticks": 79628,
          "time": 103.68229166666667,
          "velocity": 0.7952755905511811
        },
        {
          "duration": 3.263020833333343,
          "durationTicks": 2506,
          "midi": 57,
          "name": "A3",
          "ticks": 79630,
          "time": 103.68489583333333,
          "velocity": 0.7480314960629921
        },
        {
          "duration": 3.309895833333343,
          "durationTicks": 2542,
          "midi": 53,
          "name": "F3",
          "ticks": 79630,
          "time": 103.68489583333333,
          "velocity": 0.7637795275590551
        },
        {
          "duration": 0.7526041666666572,
          "durationTicks": 578,
          "midi": 59,
          "name": "B3",
          "ticks": 82202,
          "time": 107.03385416666667,
          "velocity": 0.6062992125984252
        },
        {
          "duration": 0.7786458333333428,
          "durationTicks": 598,
          "midi": 55,
          "name": "G3",
          "ticks": 82204,
          "time": 107.03645833333333,
          "velocity": 0.7480314960629921
        },
        {
          "duration": 0.7265625,
          "durationTicks": 558,
          "midi": 50,
          "name": "D3",
          "ticks": 82206,
          "time": 107.0390625,
          "velocity": 0.7480314960629921
        },
        {
          "duration": 3.252604166666657,
          "durationTicks": 2498,
          "midi": 53,
          "name": "F3",
          "ticks": 82802,
          "time": 107.81510416666667,
          "velocity": 0.7480314960629921
        },
        {
          "duration": 3.192708333333343,
          "durationTicks": 2452,
          "midi": 48,
          "name": "C3",
          "ticks": 82804,
          "time": 107.81770833333333,
          "velocity": 0.8346456692913385
        },
        {
          "duration": 3.2057291666666714,
          "durationTicks": 2462,
          "midi": 57,
          "name": "A3",
          "ticks": 82804,
          "time": 107.81770833333333,
          "velocity": 0.7165354330708661
        },
        {
          "duration": 0.7447916666666714,
          "durationTicks": 572,
          "midi": 59,
          "name": "B3",
          "ticks": 85374,
          "time": 111.1640625,
          "velocity": 0.7795275590551181
        },
        {
          "duration": 0.7473958333333286,
          "durationTicks": 574,
          "midi": 55,
          "name": "G3",
          "ticks": 85374,
          "time": 111.1640625,
          "velocity": 0.8267716535433071
        },
        {
          "duration": 0.7213541666666714,
          "durationTicks": 554,
          "midi": 50,
          "name": "D3",
          "ticks": 85378,
          "time": 111.16927083333333,
          "velocity": 0.8188976377952756
        },
        {
          "duration": 3.2447916666666714,
          "durationTicks": 2492,
          "midi": 53,
          "name": "F3",
          "ticks": 85966,
          "time": 111.93489583333333,
          "velocity": 0.7322834645669292
        },
        {
          "duration": 3.1927083333333286,
          "durationTicks": 2452,
          "midi": 48,
          "name": "C3",
          "ticks": 85968,
          "time": 111.9375,
          "velocity": 0.8267716535433071
        },
        {
          "duration": 3.182291666666657,
          "durationTicks": 2444,
          "midi": 57,
          "name": "A3",
          "ticks": 85970,
          "time": 111.94010416666667,
          "velocity": 0.7322834645669292
        },
        {
          "duration": 0.7317708333333286,
          "durationTicks": 562,
          "midi": 59,
          "name": "B3",
          "ticks": 88538,
          "time": 115.28385416666667,
          "velocity": 0.7637795275590551
        },
        {
          "duration": 0.734375,
          "durationTicks": 564,
          "midi": 55,
          "name": "G3",
          "ticks": 88542,
          "time": 115.2890625,
          "velocity": 0.7637795275590551
        },
        {
          "duration": 0.7135416666666714,
          "durationTicks": 548,
          "midi": 50,
          "name": "D3",
          "ticks": 88542,
          "time": 115.2890625,
          "velocity": 0.7165354330708661
        },
        {
          "duration": 2.322916666666657,
          "durationTicks": 1784,
          "midi": 53,
          "name": "F3",
          "ticks": 89138,
          "time": 116.06510416666667,
          "velocity": 0.7007874015748031
        },
        {
          "duration": 2.3203125,
          "durationTicks": 1782,
          "midi": 48,
          "name": "C3",
          "ticks": 89140,
          "time": 116.06770833333333,
          "velocity": 0.7165354330708661
        },
        {
          "duration": 2.317708333333343,
          "durationTicks": 1780,
          "midi": 57,
          "name": "A3",
          "ticks": 89140,
          "time": 116.06770833333333,
          "velocity": 0.7165354330708661
        },
        {
          "duration": 1.8125,
          "durationTicks": 1392,
          "midi": 56,
          "name": "G#3",
          "ticks": 90924,
          "time": 118.390625,
          "velocity": 0.7559055118110236
        },
        {
          "duration": 1.8125,
          "durationTicks": 1392,
          "midi": 47,
          "name": "B2",
          "ticks": 90924,
          "time": 118.390625,
          "velocity": 0.6850393700787402
        },
        {
          "duration": 1.8072916666666572,
          "durationTicks": 1388,
          "midi": 52,
          "name": "E3",
          "ticks": 90926,
          "time": 118.39322916666667,
          "velocity": 0.7244094488188977
        },
        {
          "duration": 1.2395833333333286,
          "durationTicks": 952,
          "midi": 72,
          "name": "C5",
          "ticks": 92306,
          "time": 120.19010416666667,
          "velocity": 0.6850393700787402
        },
        {
          "duration": 1.2291666666666714,
          "durationTicks": 944,
          "midi": 69,
          "name": "A4",
          "ticks": 92308,
          "time": 120.19270833333333,
          "velocity": 0.6692913385826772
        },
        {
          "duration": 1.2239583333333428,
          "durationTicks": 940,
          "midi": 64,
          "name": "E4",
          "ticks": 92308,
          "time": 120.19270833333333,
          "velocity": 0.6692913385826772
        },
        {
          "duration": 1.2942708333333286,
          "durationTicks": 994,
          "midi": 48,
          "name": "C3",
          "ticks": 92310,
          "time": 120.1953125,
          "velocity": 0.5511811023622047
        },
        {
          "duration": 1.2447916666666714,
          "durationTicks": 956,
          "midi": 60,
          "name": "C4",
          "ticks": 92316,
          "time": 120.203125,
          "velocity": 0.49606299212598426
        },
        {
          "duration": 1.0703125,
          "durationTicks": 822,
          "midi": 47,
          "name": "B2",
          "ticks": 93290,
          "time": 121.47135416666667,
          "velocity": 0.5433070866141733
        },
        {
          "duration": 1.0546875,
          "durationTicks": 810,
          "midi": 59,
          "name": "B3",
          "ticks": 93292,
          "time": 121.47395833333333,
          "velocity": 0.5275590551181102
        },
        {
          "duration": 1.0286458333333286,
          "durationTicks": 790,
          "midi": 67,
          "name": "G4",
          "ticks": 93300,
          "time": 121.484375,
          "velocity": 0.6692913385826772
        },
        {
          "duration": 1.0286458333333286,
          "durationTicks": 790,
          "midi": 71,
          "name": "B4",
          "ticks": 93300,
          "time": 121.484375,
          "velocity": 0.6692913385826772
        },
        {
          "duration": 1.0338541666666714,
          "durationTicks": 794,
          "midi": 62,
          "name": "D4",
          "ticks": 93304,
          "time": 121.48958333333333,
          "velocity": 0.6692913385826772
        },
        {
          "duration": 1.0651041666666714,
          "durationTicks": 818,
          "midi": 45,
          "name": "A2",
          "ticks": 94074,
          "time": 122.4921875,
          "velocity": 0.5275590551181102
        },
        {
          "duration": 1.0833333333333286,
          "durationTicks": 832,
          "midi": 57,
          "name": "A3",
          "ticks": 94076,
          "time": 122.49479166666667,
          "velocity": 0.5275590551181102
        },
        {
          "duration": 0.9583333333333286,
          "durationTicks": 736,
          "midi": 60,
          "name": "C4",
          "ticks": 94092,
          "time": 122.515625,
          "velocity": 0.6692913385826772
        },
        {
          "duration": 0.9765625,
          "durationTicks": 750,
          "midi": 65,
          "name": "F4",
          "ticks": 94094,
          "time": 122.51822916666667,
          "velocity": 0.6692913385826772
        },
        {
          "duration": 0.9895833333333286,
          "durationTicks": 760,
          "midi": 69,
          "name": "A4",
          "ticks": 94094,
          "time": 122.51822916666667,
          "velocity": 0.6771653543307087
        },
        {
          "duration": 0.84375,
          "durationTicks": 648,
          "midi": 47,
          "name": "B2",
          "ticks": 94866,
          "time": 123.5234375,
          "velocity": 0.5039370078740157
        },
        {
          "duration": 0.7942708333333428,
          "durationTicks": 610,
          "midi": 59,
          "name": "B3",
          "ticks": 94876,
          "time": 123.53645833333333,
          "velocity": 0.5354330708661418
        },
        {
          "duration": 0.7734375,
          "durationTicks": 594,
          "midi": 62,
          "name": "D4",
          "ticks": 94886,
          "time": 123.54947916666667,
          "velocity": 0.6692913385826772
        },
        {
          "duration": 0.7760416666666572,
          "durationTicks": 596,
          "midi": 71,
          "name": "B4",
          "ticks": 94886,
          "time": 123.54947916666667,
          "velocity": 0.6850393700787402
        },
        {
          "duration": 0.7760416666666714,
          "durationTicks": 596,
          "midi": 67,
          "name": "G4",
          "ticks": 94888,
          "time": 123.55208333333333,
          "velocity": 0.6692913385826772
        },
        {
          "duration": 1.2994791666666572,
          "durationTicks": 998,
          "midi": 48,
          "name": "C3",
          "ticks": 95474,
          "time": 124.31510416666667,
          "velocity": 0.5590551181102362
        },
        {
          "duration": 1.2552083333333428,
          "durationTicks": 964,
          "midi": 60,
          "name": "C4",
          "ticks": 95476,
          "time": 124.31770833333333,
          "velocity": 0.5196850393700787
        },
        {
          "duration": 1.1536458333333428,
          "durationTicks": 886,
          "midi": 72,
          "name": "C5",
          "ticks": 95482,
          "time": 124.32552083333333,
          "velocity": 0.6850393700787402
        },
        {
          "duration": 1.1536458333333286,
          "durationTicks": 886,
          "midi": 69,
          "name": "A4",
          "ticks": 95484,
          "time": 124.328125,
          "velocity": 0.6692913385826772
        },
        {
          "duration": 1.1510416666666714,
          "durationTicks": 884,
          "midi": 64,
          "name": "E4",
          "ticks": 95484,
          "time": 124.328125,
          "velocity": 0.6614173228346457
        },
        {
          "duration": 1.0729166666666572,
          "durationTicks": 824,
          "midi": 47,
          "name": "B2",
          "ticks": 96452,
          "time": 125.58854166666667,
          "velocity": 0.5433070866141733
        },
        {
          "duration": 1.0729166666666714,
          "durationTicks": 824,
          "midi": 59,
          "name": "B3",
          "ticks": 96454,
          "time": 125.59114583333333,
          "velocity": 0.5354330708661418
        },
        {
          "duration": 1.0338541666666714,
          "durationTicks": 794,
          "midi": 67,
          "name": "G4",
          "ticks": 96466,
          "time": 125.60677083333333,
          "velocity": 0.6692913385826772
        },
        {
          "duration": 1.0338541666666572,
          "durationTicks": 794,
          "midi": 71,
          "name": "B4",
          "ticks": 96470,
          "time": 125.61197916666667,
          "velocity": 0.6692913385826772
        },
        {
          "duration": 1.0338541666666572,
          "durationTicks": 794,
          "midi": 62,
          "name": "D4",
          "ticks": 96470,
          "time": 125.61197916666667,
          "velocity": 0.6692913385826772
        },
        {
          "duration": 1.1145833333333286,
          "durationTicks": 856,
          "midi": 45,
          "name": "A2",
          "ticks": 97248,
          "time": 126.625,
          "velocity": 0.5275590551181102
        },
        {
          "duration": 1.0572916666666714,
          "durationTicks": 812,
          "midi": 57,
          "name": "A3",
          "ticks": 97252,
          "time": 126.63020833333333,
          "velocity": 0.5511811023622047
        },
        {
          "duration": 0.9322916666666714,
          "durationTicks": 716,
          "midi": 69,
          "name": "A4",
          "ticks": 97266,
          "time": 126.6484375,
          "velocity": 0.6850393700787402
        },
        {
          "duration": 0.890625,
          "durationTicks": 684,
          "midi": 60,
          "name": "C4",
          "ticks": 97268,
          "time": 126.65104166666667,
          "velocity": 0.6692913385826772
        },
        {
          "duration": 0.8932291666666572,
          "durationTicks": 686,
          "midi": 65,
          "name": "F4",
          "ticks": 97268,
          "time": 126.65104166666667,
          "velocity": 0.6692913385826772
        },
        {
          "duration": 0.8307291666666714,
          "durationTicks": 638,
          "midi": 44,
          "name": "G#2",
          "ticks": 98036,
          "time": 127.65104166666667,
          "velocity": 0.44881889763779526
        },
        {
          "duration": 0.7864583333333286,
          "durationTicks": 604,
          "midi": 56,
          "name": "G#3",
          "ticks": 98044,
          "time": 127.66145833333333,
          "velocity": 0.5118110236220472
        },
        {
          "duration": 0.7799479166666714,
          "durationTicks": 599,
          "midi": 64,
          "name": "E4",
          "ticks": 98050,
          "time": 127.66927083333333,
          "velocity": 0.6614173228346457
        },
        {
          "duration": 0.7760416666666572,
          "durationTicks": 596,
          "midi": 68,
          "name": "G#4",
          "ticks": 98052,
          "time": 127.671875,
          "velocity": 0.6692913385826772
        },
        {
          "duration": 0.7708333333333286,
          "durationTicks": 592,
          "midi": 59,
          "name": "B3",
          "ticks": 98056,
          "time": 127.67708333333333,
          "velocity": 0.6692913385826772
        },
        {
          "duration": 0.7786458333333428,
          "durationTicks": 598,
          "midi": 64,
          "name": "E4",
          "ticks": 98648,
          "time": 128.44791666666666,
          "velocity": 0.6692913385826772
        },
        {
          "duration": 1.296875,
          "durationTicks": 996,
          "midi": 69,
          "name": "A4",
          "ticks": 98648,
          "time": 128.44791666666666,
          "velocity": 0.6692913385826772
        },
        {
          "duration": 1.296875,
          "durationTicks": 996,
          "midi": 72,
          "name": "C5",
          "ticks": 98648,
          "time": 128.44791666666666,
          "velocity": 0.6850393700787402
        },
        {
          "duration": 1.3046875,
          "durationTicks": 1002,
          "midi": 60,
          "name": "C4",
          "ticks": 98648,
          "time": 128.44791666666666,
          "velocity": 0.47244094488188976
        },
        {
          "duration": 1.3046875,
          "durationTicks": 1002,
          "midi": 48,
          "name": "C3",
          "ticks": 98648,
          "time": 128.44791666666666,
          "velocity": 0.5669291338582677
        },
        {
          "duration": 1.0729166666666572,
          "durationTicks": 824,
          "midi": 47,
          "name": "B2",
          "ticks": 99630,
          "time": 129.7265625,
          "velocity": 0.5354330708661418
        },
        {
          "duration": 1.0546875,
          "durationTicks": 810,
          "midi": 59,
          "name": "B3",
          "ticks": 99632,
          "time": 129.72916666666666,
          "velocity": 0.5354330708661418
        },
        {
          "duration": 1.0260416666666572,
          "durationTicks": 788,
          "midi": 67,
          "name": "G4",
          "ticks": 99648,
          "time": 129.75,
          "velocity": 0.6692913385826772
        },
        {
          "duration": 1.0260416666666572,
          "durationTicks": 788,
          "midi": 62,
          "name": "D4",
          "ticks": 99648,
          "time": 129.75,
          "velocity": 0.6692913385826772
        },
        {
          "duration": 1.0286458333333428,
          "durationTicks": 790,
          "midi": 71,
          "name": "B4",
          "ticks": 99648,
          "time": 129.75,
          "velocity": 0.6850393700787402
        },
        {
          "duration": 1.0520833333333144,
          "durationTicks": 808,
          "midi": 45,
          "name": "A2",
          "ticks": 100414,
          "time": 130.74739583333334,
          "velocity": 0.5275590551181102
        },
        {
          "duration": 1.0729166666666572,
          "durationTicks": 824,
          "midi": 57,
          "name": "A3",
          "ticks": 100422,
          "time": 130.7578125,
          "velocity": 0.5354330708661418
        },
        {
          "duration": 0.9557291666666856,
          "durationTicks": 734,
          "midi": 60,
          "name": "C4",
          "ticks": 100430,
          "time": 130.76822916666666,
          "velocity": 0.6692913385826772
        },
        {
          "duration": 1.0104166666666856,
          "durationTicks": 776,
          "midi": 65,
          "name": "F4",
          "ticks": 100430,
          "time": 130.76822916666666,
          "velocity": 0.6692913385826772
        },
        {
          "duration": 0.9505208333333144,
          "durationTicks": 730,
          "midi": 69,
          "name": "A4",
          "ticks": 100438,
          "time": 130.77864583333334,
          "velocity": 0.6850393700787402
        },
        {
          "duration": 0.8359375,
          "durationTicks": 642,
          "midi": 47,
          "name": "B2",
          "ticks": 101208,
          "time": 131.78125,
          "velocity": 0.5039370078740157
        },
        {
          "duration": 0.7890625,
          "durationTicks": 606,
          "midi": 67,
          "name": "G4",
          "ticks": 101222,
          "time": 131.79947916666666,
          "velocity": 0.6692913385826772
        },
        {
          "duration": 0.7864583333333428,
          "durationTicks": 604,
          "midi": 62,
          "name": "D4",
          "ticks": 101222,
          "time": 131.79947916666666,
          "velocity": 0.6692913385826772
        },
        {
          "duration": 0.7994791666666856,
          "durationTicks": 614,
          "midi": 59,
          "name": "B3",
          "ticks": 101222,
          "time": 131.79947916666666,
          "velocity": 0.5433070866141733
        },
        {
          "duration": 0.7786458333333428,
          "durationTicks": 598,
          "midi": 71,
          "name": "B4",
          "ticks": 101222,
          "time": 131.79947916666666,
          "velocity": 0.6692913385826772
        },
        {
          "duration": 1.2473958333333428,
          "durationTicks": 958,
          "midi": 60,
          "name": "C4",
          "ticks": 101820,
          "time": 132.578125,
          "velocity": 0.5354330708661418
        },
        {
          "duration": 1.2578125,
          "durationTicks": 966,
          "midi": 48,
          "name": "C3",
          "ticks": 101822,
          "time": 132.58072916666666,
          "velocity": 0.5275590551181102
        },
        {
          "duration": 1.2838541666666572,
          "durationTicks": 986,
          "midi": 72,
          "name": "C5",
          "ticks": 101830,
          "time": 132.59114583333334,
          "velocity": 0.6850393700787402
        },
        {
          "duration": 1.2838541666666572,
          "durationTicks": 986,
          "midi": 69,
          "name": "A4",
          "ticks": 101830,
          "time": 132.59114583333334,
          "velocity": 0.6692913385826772
        },
        {
          "duration": 1.2838541666666572,
          "durationTicks": 986,
          "midi": 64,
          "name": "E4",
          "ticks": 101830,
          "time": 132.59114583333334,
          "velocity": 0.6535433070866141
        },
        {
          "duration": 1.0677083333333428,
          "durationTicks": 820,
          "midi": 47,
          "name": "B2",
          "ticks": 102804,
          "time": 133.859375,
          "velocity": 0.5275590551181102
        },
        {
          "duration": 1.0651041666666856,
          "durationTicks": 818,
          "midi": 59,
          "name": "B3",
          "ticks": 102806,
          "time": 133.86197916666666,
          "velocity": 0.5275590551181102
        },
        {
          "duration": 0.9791666666666856,
          "durationTicks": 752,
          "midi": 71,
          "name": "B4",
          "ticks": 102818,
          "time": 133.87760416666666,
          "velocity": 0.6771653543307087
        },
        {
          "duration": 0.9817708333333144,
          "durationTicks": 754,
          "midi": 67,
          "name": "G4",
          "ticks": 102820,
          "time": 133.88020833333334,
          "velocity": 0.6692913385826772
        },
        {
          "duration": 0.9765625,
          "durationTicks": 750,
          "midi": 62,
          "name": "D4",
          "ticks": 102820,
          "time": 133.88020833333334,
          "velocity": 0.6692913385826772
        },
        {
          "duration": 1.1223958333333428,
          "durationTicks": 862,
          "midi": 45,
          "name": "A2",
          "ticks": 103586,
          "time": 134.87760416666666,
          "velocity": 0.5354330708661418
        },
        {
          "duration": 1.0885416666666572,
          "durationTicks": 836,
          "midi": 57,
          "name": "A3",
          "ticks": 103588,
          "time": 134.88020833333334,
          "velocity": 0.5354330708661418
        },
        {
          "duration": 0.9713541666666572,
          "durationTicks": 746,
          "midi": 65,
          "name": "F4",
          "ticks": 103608,
          "time": 134.90625,
          "velocity": 0.6692913385826772
        },
        {
          "duration": 0.9609375,
          "durationTicks": 738,
          "midi": 69,
          "name": "A4",
          "ticks": 103608,
          "time": 134.90625,
          "velocity": 0.6850393700787402
        },
        {
          "duration": 0.953125,
          "durationTicks": 732,
          "midi": 60,
          "name": "C4",
          "ticks": 103608,
          "time": 134.90625,
          "velocity": 0.6692913385826772
        },
        {
          "duration": 0.828125,
          "durationTicks": 636,
          "midi": 44,
          "name": "G#2",
          "ticks": 104386,
          "time": 135.91927083333334,
          "velocity": 0.49606299212598426
        },
        {
          "duration": 0.7734375,
          "durationTicks": 594,
          "midi": 64,
          "name": "E4",
          "ticks": 104394,
          "time": 135.9296875,
          "velocity": 0.6692913385826772
        },
        {
          "duration": 0.7734375,
          "durationTicks": 594,
          "midi": 59,
          "name": "B3",
          "ticks": 104396,
          "time": 135.93229166666666,
          "velocity": 0.6692913385826772
        },
        {
          "duration": 0.7734375,
          "durationTicks": 594,
          "midi": 68,
          "name": "G#4",
          "ticks": 104396,
          "time": 135.93229166666666,
          "velocity": 0.6692913385826772
        },
        {
          "duration": 0.7916666666666856,
          "durationTicks": 608,
          "midi": 56,
          "name": "G#3",
          "ticks": 104396,
          "time": 135.93229166666666,
          "velocity": 0.5275590551181102
        },
        {
          "duration": 3.2786458333333144,
          "durationTicks": 2518,
          "midi": 60,
          "name": "C4",
          "ticks": 104992,
          "time": 136.70833333333334,
          "velocity": 0.7874015748031497
        },
        {
          "duration": 3.3489583333333144,
          "durationTicks": 2572,
          "midi": 65,
          "name": "F4",
          "ticks": 104992,
          "time": 136.70833333333334,
          "velocity": 0.84251968503937
        },
        {
          "duration": 3.346354166666657,
          "durationTicks": 2570,
          "midi": 57,
          "name": "A3",
          "ticks": 104994,
          "time": 136.7109375,
          "velocity": 0.7401574803149606
        },
        {
          "duration": 3.286458333333343,
          "durationTicks": 2524,
          "midi": 69,
          "name": "A4",
          "ticks": 105000,
          "time": 136.71875,
          "velocity": 0.6299212598425197
        },
        {
          "duration": 0.7447916666666572,
          "durationTicks": 572,
          "midi": 71,
          "name": "B4",
          "ticks": 107556,
          "time": 140.046875,
          "velocity": 0.6220472440944882
        },
        {
          "duration": 0.7135416666666572,
          "durationTicks": 548,
          "midi": 59,
          "name": "B3",
          "ticks": 107560,
          "time": 140.05208333333334,
          "velocity": 0.7322834645669292
        },
        {
          "duration": 0.7265625,
          "durationTicks": 558,
          "midi": 67,
          "name": "G4",
          "ticks": 107566,
          "time": 140.05989583333334,
          "velocity": 0.8267716535433071
        },
        {
          "duration": 0.7135416666666572,
          "durationTicks": 548,
          "midi": 62,
          "name": "D4",
          "ticks": 107566,
          "time": 140.05989583333334,
          "velocity": 0.7480314960629921
        },
        {
          "duration": 0.2760416666666856,
          "durationTicks": 212,
          "midi": 69,
          "name": "A4",
          "ticks": 108146,
          "time": 140.81510416666666,
          "velocity": 0.6141732283464567
        },
        {
          "duration": 0.265625,
          "durationTicks": 204,
          "midi": 57,
          "name": "A3",
          "ticks": 108154,
          "time": 140.82552083333334,
          "velocity": 0.6535433070866141
        },
        {
          "duration": 0.265625,
          "durationTicks": 204,
          "midi": 60,
          "name": "C4",
          "ticks": 108154,
          "time": 140.82552083333334,
          "velocity": 0.7007874015748031
        },
        {
          "duration": 0.2604166666666572,
          "durationTicks": 200,
          "midi": 65,
          "name": "F4",
          "ticks": 108156,
          "time": 140.828125,
          "velocity": 0.7795275590551181
        },
        {
          "duration": 0.11197916666665719,
          "durationTicks": 86,
          "midi": 64,
          "name": "E4",
          "ticks": 108360,
          "time": 141.09375,
          "velocity": 0.7795275590551181
        },
        {
          "duration": 0.11458333333334281,
          "durationTicks": 88,
          "midi": 56,
          "name": "G#3",
          "ticks": 108360,
          "time": 141.09375,
          "velocity": 0.7007874015748031
        },
        {
          "duration": 0.11197916666665719,
          "durationTicks": 86,
          "midi": 59,
          "name": "B3",
          "ticks": 108360,
          "time": 141.09375,
          "velocity": 0.7322834645669292
        },
        {
          "duration": 0.1380208333333428,
          "durationTicks": 106,
          "midi": 68,
          "name": "G#4",
          "ticks": 108362,
          "time": 141.09635416666666,
          "velocity": 0.5669291338582677
        },
        {
          "duration": 1.2473958333333428,
          "durationTicks": 958,
          "midi": 72,
          "name": "C5",
          "ticks": 136664,
          "time": 177.94791666666666,
          "velocity": 0.6850393700787402
        },
        {
          "duration": 1.234375,
          "durationTicks": 948,
          "midi": 69,
          "name": "A4",
          "ticks": 136666,
          "time": 177.95052083333334,
          "velocity": 0.6692913385826772
        },
        {
          "duration": 1.2291666666666572,
          "durationTicks": 944,
          "midi": 64,
          "name": "E4",
          "ticks": 136666,
          "time": 177.95052083333334,
          "velocity": 0.6692913385826772
        },
        {
          "duration": 1.2994791666666572,
          "durationTicks": 998,
          "midi": 48,
          "name": "C3",
          "ticks": 136668,
          "time": 177.953125,
          "velocity": 0.5511811023622047
        },
        {
          "duration": 1.2578125,
          "durationTicks": 966,
          "midi": 60,
          "name": "C4",
          "ticks": 136670,
          "time": 177.95572916666666,
          "velocity": 0.49606299212598426
        },
        {
          "duration": 1.0572916666666856,
          "durationTicks": 812,
          "midi": 59,
          "name": "B3",
          "ticks": 137654,
          "time": 179.23697916666666,
          "velocity": 0.5275590551181102
        },
        {
          "duration": 1.0677083333333428,
          "durationTicks": 820,
          "midi": 47,
          "name": "B2",
          "ticks": 137654,
          "time": 179.23697916666666,
          "velocity": 0.5433070866141733
        },
        {
          "duration": 1.03125,
          "durationTicks": 792,
          "midi": 67,
          "name": "G4",
          "ticks": 137660,
          "time": 179.24479166666666,
          "velocity": 0.6692913385826772
        },
        {
          "duration": 1.0338541666666856,
          "durationTicks": 794,
          "midi": 71,
          "name": "B4",
          "ticks": 137660,
          "time": 179.24479166666666,
          "velocity": 0.6692913385826772
        },
        {
          "duration": 1.03125,
          "durationTicks": 792,
          "midi": 62,
          "name": "D4",
          "ticks": 137668,
          "time": 179.25520833333334,
          "velocity": 0.6692913385826772
        },
        {
          "duration": 1.0651041666666572,
          "durationTicks": 818,
          "midi": 45,
          "name": "A2",
          "ticks": 138436,
          "time": 180.25520833333334,
          "velocity": 0.5275590551181102
        },
        {
          "duration": 1.0833333333333428,
          "durationTicks": 832,
          "midi": 57,
          "name": "A3",
          "ticks": 138438,
          "time": 180.2578125,
          "velocity": 0.5275590551181102
        },
        {
          "duration": 0.9583333333333144,
          "durationTicks": 736,
          "midi": 60,
          "name": "C4",
          "ticks": 138454,
          "time": 180.27864583333334,
          "velocity": 0.6692913385826772
        },
        {
          "duration": 0.9765625,
          "durationTicks": 750,
          "midi": 65,
          "name": "F4",
          "ticks": 138456,
          "time": 180.28125,
          "velocity": 0.6692913385826772
        },
        {
          "duration": 0.9895833333333428,
          "durationTicks": 760,
          "midi": 69,
          "name": "A4",
          "ticks": 138456,
          "time": 180.28125,
          "velocity": 0.6771653543307087
        },
        {
          "duration": 0.84375,
          "durationTicks": 648,
          "midi": 47,
          "name": "B2",
          "ticks": 139230,
          "time": 181.2890625,
          "velocity": 0.5039370078740157
        },
        {
          "duration": 0.796875,
          "durationTicks": 612,
          "midi": 59,
          "name": "B3",
          "ticks": 139240,
          "time": 181.30208333333334,
          "velocity": 0.5354330708661418
        },
        {
          "duration": 0.7786458333333428,
          "durationTicks": 598,
          "midi": 62,
          "name": "D4",
          "ticks": 139248,
          "time": 181.3125,
          "velocity": 0.6692913385826772
        },
        {
          "duration": 0.7786458333333428,
          "durationTicks": 598,
          "midi": 71,
          "name": "B4",
          "ticks": 139248,
          "time": 181.3125,
          "velocity": 0.6850393700787402
        },
        {
          "duration": 0.78125,
          "durationTicks": 600,
          "midi": 67,
          "name": "G4",
          "ticks": 139252,
          "time": 181.31770833333334,
          "velocity": 0.6692913385826772
        },
        {
          "duration": 1.2994791666666856,
          "durationTicks": 998,
          "midi": 48,
          "name": "C3",
          "ticks": 139838,
          "time": 182.08072916666666,
          "velocity": 0.5590551181102362
        },
        {
          "duration": 1.2552083333333144,
          "durationTicks": 964,
          "midi": 60,
          "name": "C4",
          "ticks": 139840,
          "time": 182.08333333333334,
          "velocity": 0.5196850393700787
        },
        {
          "duration": 1.1510416666666572,
          "durationTicks": 884,
          "midi": 72,
          "name": "C5",
          "ticks": 139846,
          "time": 182.09114583333334,
          "velocity": 0.6850393700787402
        },
        {
          "duration": 1.1510416666666572,
          "durationTicks": 884,
          "midi": 69,
          "name": "A4",
          "ticks": 139848,
          "time": 182.09375,
          "velocity": 0.6692913385826772
        },
        {
          "duration": 1.1510416666666572,
          "durationTicks": 884,
          "midi": 64,
          "name": "E4",
          "ticks": 139848,
          "time": 182.09375,
          "velocity": 0.6614173228346457
        },
        {
          "duration": 1.0703125,
          "durationTicks": 822,
          "midi": 47,
          "name": "B2",
          "ticks": 140816,
          "time": 183.35416666666666,
          "velocity": 0.5433070866141733
        },
        {
          "duration": 1.0677083333333428,
          "durationTicks": 820,
          "midi": 59,
          "name": "B3",
          "ticks": 140822,
          "time": 183.36197916666666,
          "velocity": 0.5354330708661418
        },
        {
          "duration": 1.03125,
          "durationTicks": 792,
          "midi": 67,
          "name": "G4",
          "ticks": 140832,
          "time": 183.375,
          "velocity": 0.6692913385826772
        },
        {
          "duration": 1.03125,
          "durationTicks": 792,
          "midi": 71,
          "name": "B4",
          "ticks": 140834,
          "time": 183.37760416666666,
          "velocity": 0.6692913385826772
        },
        {
          "duration": 1.03125,
          "durationTicks": 792,
          "midi": 62,
          "name": "D4",
          "ticks": 140836,
          "time": 183.38020833333334,
          "velocity": 0.6692913385826772
        },
        {
          "duration": 1.0651041666666856,
          "durationTicks": 818,
          "midi": 57,
          "name": "A3",
          "ticks": 141608,
          "time": 184.38541666666666,
          "velocity": 0.5511811023622047
        },
        {
          "duration": 1.1171875,
          "durationTicks": 858,
          "midi": 45,
          "name": "A2",
          "ticks": 141608,
          "time": 184.38541666666666,
          "velocity": 0.5275590551181102
        },
        {
          "duration": 0.9348958333333144,
          "durationTicks": 718,
          "midi": 69,
          "name": "A4",
          "ticks": 141628,
          "time": 184.41145833333334,
          "velocity": 0.6850393700787402
        },
        {
          "duration": 0.8932291666666572,
          "durationTicks": 686,
          "midi": 60,
          "name": "C4",
          "ticks": 141630,
          "time": 184.4140625,
          "velocity": 0.6692913385826772
        },
        {
          "duration": 0.8932291666666572,
          "durationTicks": 686,
          "midi": 65,
          "name": "F4",
          "ticks": 141630,
          "time": 184.4140625,
          "velocity": 0.6692913385826772
        },
        {
          "duration": 0.8255208333333144,
          "durationTicks": 634,
          "midi": 44,
          "name": "G#2",
          "ticks": 142402,
          "time": 185.41927083333334,
          "velocity": 0.44881889763779526
        },
        {
          "duration": 0.8098958333333144,
          "durationTicks": 622,
          "midi": 56,
          "name": "G#3",
          "ticks": 142408,
          "time": 185.42708333333334,
          "velocity": 0.5118110236220472
        },
        {
          "duration": 0.78125,
          "durationTicks": 600,
          "midi": 64,
          "name": "E4",
          "ticks": 142414,
          "time": 185.43489583333334,
          "velocity": 0.6614173228346457
        },
        {
          "duration": 0.78125,
          "durationTicks": 600,
          "midi": 68,
          "name": "G#4",
          "ticks": 142414,
          "time": 185.43489583333334,
          "velocity": 0.6692913385826772
        },
        {
          "duration": 0.7864583333333144,
          "durationTicks": 604,
          "midi": 59,
          "name": "B3",
          "ticks": 142420,
          "time": 185.44270833333334,
          "velocity": 0.6692913385826772
        },
        {
          "duration": 1.2994791666666572,
          "durationTicks": 998,
          "midi": 48,
          "name": "C3",
          "ticks": 143016,
          "time": 186.21875,
          "velocity": 0.5669291338582677
        },
        {
          "duration": 1.2994791666666572,
          "durationTicks": 998,
          "midi": 60,
          "name": "C4",
          "ticks": 143016,
          "time": 186.21875,
          "velocity": 0.47244094488188976
        },
        {
          "duration": 1.28125,
          "durationTicks": 984,
          "midi": 72,
          "name": "C5",
          "ticks": 143024,
          "time": 186.22916666666666,
          "velocity": 0.6850393700787402
        },
        {
          "duration": 1.2786458333333144,
          "durationTicks": 982,
          "midi": 69,
          "name": "A4",
          "ticks": 143026,
          "time": 186.23177083333334,
          "velocity": 0.6692913385826772
        },
        {
          "duration": 1.28125,
          "durationTicks": 984,
          "midi": 64,
          "name": "E4",
          "ticks": 143026,
          "time": 186.23177083333334,
          "velocity": 0.6692913385826772
        },
        {
          "duration": 1.0677083333333144,
          "durationTicks": 820,
          "midi": 47,
          "name": "B2",
          "ticks": 143998,
          "time": 187.49739583333334,
          "velocity": 0.5354330708661418
        },
        {
          "duration": 1.0520833333333428,
          "durationTicks": 808,
          "midi": 59,
          "name": "B3",
          "ticks": 144000,
          "time": 187.5,
          "velocity": 0.5354330708661418
        },
        {
          "duration": 1.0338541666666572,
          "durationTicks": 794,
          "midi": 67,
          "name": "G4",
          "ticks": 144010,
          "time": 187.51302083333334,
          "velocity": 0.6692913385826772
        },
        {
          "duration": 1.0286458333333428,
          "durationTicks": 790,
          "midi": 62,
          "name": "D4",
          "ticks": 144012,
          "time": 187.515625,
          "velocity": 0.6692913385826772
        },
        {
          "duration": 1.03125,
          "durationTicks": 792,
          "midi": 71,
          "name": "B4",
          "ticks": 144012,
          "time": 187.515625,
          "velocity": 0.6850393700787402
        },
        {
          "duration": 1.0546875,
          "durationTicks": 810,
          "midi": 45,
          "name": "A2",
          "ticks": 144784,
          "time": 188.52083333333334,
          "velocity": 0.5275590551181102
        },
        {
          "duration": 1.0703125,
          "durationTicks": 822,
          "midi": 57,
          "name": "A3",
          "ticks": 144788,
          "time": 188.52604166666666,
          "velocity": 0.5354330708661418
        },
        {
          "duration": 0.953125,
          "durationTicks": 732,
          "midi": 60,
          "name": "C4",
          "ticks": 144796,
          "time": 188.53645833333334,
          "velocity": 0.6692913385826772
        },
        {
          "duration": 1.0052083333333428,
          "durationTicks": 772,
          "midi": 65,
          "name": "F4",
          "ticks": 144798,
          "time": 188.5390625,
          "velocity": 0.6692913385826772
        },
        {
          "duration": 0.9453125,
          "durationTicks": 726,
          "midi": 69,
          "name": "A4",
          "ticks": 144806,
          "time": 188.54947916666666,
          "velocity": 0.6850393700787402
        },
        {
          "duration": 0.8255208333333428,
          "durationTicks": 634,
          "midi": 47,
          "name": "B2",
          "ticks": 145580,
          "time": 189.55729166666666,
          "velocity": 0.5039370078740157
        },
        {
          "duration": 0.7786458333333428,
          "durationTicks": 598,
          "midi": 71,
          "name": "B4",
          "ticks": 145584,
          "time": 189.5625,
          "velocity": 0.6692913385826772
        },
        {
          "duration": 0.796875,
          "durationTicks": 612,
          "midi": 59,
          "name": "B3",
          "ticks": 145586,
          "time": 189.56510416666666,
          "velocity": 0.5433070866141733
        },
        {
          "duration": 0.7786458333333428,
          "durationTicks": 598,
          "midi": 62,
          "name": "D4",
          "ticks": 145590,
          "time": 189.5703125,
          "velocity": 0.6692913385826772
        },
        {
          "duration": 0.7760416666666856,
          "durationTicks": 596,
          "midi": 67,
          "name": "G4",
          "ticks": 145592,
          "time": 189.57291666666666,
          "velocity": 0.6692913385826772
        },
        {
          "duration": 1.2473958333333144,
          "durationTicks": 958,
          "midi": 60,
          "name": "C4",
          "ticks": 146182,
          "time": 190.34114583333334,
          "velocity": 0.5354330708661418
        },
        {
          "duration": 1.2604166666666572,
          "durationTicks": 968,
          "midi": 48,
          "name": "C3",
          "ticks": 146182,
          "time": 190.34114583333334,
          "velocity": 0.5275590551181102
        },
        {
          "duration": 1.2734375,
          "durationTicks": 978,
          "midi": 72,
          "name": "C5",
          "ticks": 146190,
          "time": 190.3515625,
          "velocity": 0.6850393700787402
        },
        {
          "duration": 1.2708333333333428,
          "durationTicks": 976,
          "midi": 69,
          "name": "A4",
          "ticks": 146192,
          "time": 190.35416666666666,
          "velocity": 0.6692913385826772
        },
        {
          "duration": 1.2708333333333428,
          "durationTicks": 976,
          "midi": 64,
          "name": "E4",
          "ticks": 146192,
          "time": 190.35416666666666,
          "velocity": 0.6535433070866141
        },
        {
          "duration": 1.0625,
          "durationTicks": 816,
          "midi": 59,
          "name": "B3",
          "ticks": 147164,
          "time": 191.61979166666666,
          "velocity": 0.5275590551181102
        },
        {
          "duration": 1.0651041666666856,
          "durationTicks": 818,
          "midi": 47,
          "name": "B2",
          "ticks": 147164,
          "time": 191.61979166666666,
          "velocity": 0.5275590551181102
        },
        {
          "duration": 0.9895833333333428,
          "durationTicks": 760,
          "midi": 62,
          "name": "D4",
          "ticks": 147168,
          "time": 191.625,
          "velocity": 0.6692913385826772
        },
        {
          "duration": 0.9973958333333428,
          "durationTicks": 766,
          "midi": 67,
          "name": "G4",
          "ticks": 147168,
          "time": 191.625,
          "velocity": 0.6692913385826772
        },
        {
          "duration": 0.9921875,
          "durationTicks": 762,
          "midi": 71,
          "name": "B4",
          "ticks": 147168,
          "time": 191.625,
          "velocity": 0.6771653543307087
        },
        {
          "duration": 1.1223958333333144,
          "durationTicks": 862,
          "midi": 45,
          "name": "A2",
          "ticks": 147946,
          "time": 192.63802083333334,
          "velocity": 0.5354330708661418
        },
        {
          "duration": 1.078125,
          "durationTicks": 828,
          "midi": 57,
          "name": "A3",
          "ticks": 147956,
          "time": 192.65104166666666,
          "velocity": 0.5354330708661418
        },
        {
          "duration": 0.9713541666666856,
          "durationTicks": 746,
          "midi": 65,
          "name": "F4",
          "ticks": 147968,
          "time": 192.66666666666666,
          "velocity": 0.6692913385826772
        },
        {
          "duration": 0.9635416666666856,
          "durationTicks": 740,
          "midi": 69,
          "name": "A4",
          "ticks": 147968,
          "time": 192.66666666666666,
          "velocity": 0.6850393700787402
        },
        {
          "duration": 0.9505208333333144,
          "durationTicks": 730,
          "midi": 60,
          "name": "C4",
          "ticks": 147970,
          "time": 192.66927083333334,
          "velocity": 0.6692913385826772
        },
        {
          "duration": 0.828125,
          "durationTicks": 636,
          "midi": 44,
          "name": "G#2",
          "ticks": 148748,
          "time": 193.68229166666666,
          "velocity": 0.49606299212598426
        },
        {
          "duration": 0.7838541666666856,
          "durationTicks": 602,
          "midi": 64,
          "name": "E4",
          "ticks": 148754,
          "time": 193.69010416666666,
          "velocity": 0.6692913385826772
        },
        {
          "duration": 0.78125,
          "durationTicks": 600,
          "midi": 59,
          "name": "B3",
          "ticks": 148756,
          "time": 193.69270833333334,
          "velocity": 0.6692913385826772
        },
        {
          "duration": 0.78125,
          "durationTicks": 600,
          "midi": 68,
          "name": "G#4",
          "ticks": 148756,
          "time": 193.69270833333334,
          "velocity": 0.6692913385826772
        },
        {
          "duration": 0.8020833333333144,
          "durationTicks": 616,
          "midi": 56,
          "name": "G#3",
          "ticks": 148756,
          "time": 193.69270833333334,
          "velocity": 0.5275590551181102
        },
        {
          "duration": 1.296875,
          "durationTicks": 996,
          "midi": 48,
          "name": "C3",
          "ticks": 149358,
          "time": 194.4765625,
          "velocity": 0.5511811023622047
        },
        {
          "duration": 1.2864583333333428,
          "durationTicks": 988,
          "midi": 72,
          "name": "C5",
          "ticks": 149366,
          "time": 194.48697916666666,
          "velocity": 0.6850393700787402
        },
        {
          "duration": 1.2838541666666856,
          "durationTicks": 986,
          "midi": 69,
          "name": "A4",
          "ticks": 149366,
          "time": 194.48697916666666,
          "velocity": 0.6692913385826772
        },
        {
          "duration": 1.28125,
          "durationTicks": 984,
          "midi": 64,
          "name": "E4",
          "ticks": 149368,
          "time": 194.48958333333334,
          "velocity": 0.6692913385826772
        },
        {
          "duration": 1.234375,
          "durationTicks": 948,
          "midi": 60,
          "name": "C4",
          "ticks": 149368,
          "time": 194.48958333333334,
          "velocity": 0.49606299212598426
        },
        {
          "duration": 1.0625,
          "durationTicks": 816,
          "midi": 47,
          "name": "B2",
          "ticks": 150338,
          "time": 195.75260416666666,
          "velocity": 0.5433070866141733
        },
        {
          "duration": 1.0494791666666572,
          "durationTicks": 806,
          "midi": 59,
          "name": "B3",
          "ticks": 150340,
          "time": 195.75520833333334,
          "velocity": 0.5275590551181102
        },
        {
          "duration": 1.0260416666666856,
          "durationTicks": 788,
          "midi": 67,
          "name": "G4",
          "ticks": 150344,
          "time": 195.76041666666666,
          "velocity": 0.6692913385826772
        },
        {
          "duration": 1.0260416666666572,
          "durationTicks": 788,
          "midi": 71,
          "name": "B4",
          "ticks": 150346,
          "time": 195.76302083333334,
          "velocity": 0.6692913385826772
        },
        {
          "duration": 1.0208333333333428,
          "durationTicks": 784,
          "midi": 62,
          "name": "D4",
          "ticks": 150356,
          "time": 195.77604166666666,
          "velocity": 0.6692913385826772
        },
        {
          "duration": 1.0625,
          "durationTicks": 816,
          "midi": 45,
          "name": "A2",
          "ticks": 151118,
          "time": 196.76822916666666,
          "velocity": 0.5275590551181102
        },
        {
          "duration": 1.0807291666666572,
          "durationTicks": 830,
          "midi": 57,
          "name": "A3",
          "ticks": 151120,
          "time": 196.77083333333334,
          "velocity": 0.5275590551181102
        },
        {
          "duration": 0.9609375,
          "durationTicks": 738,
          "midi": 60,
          "name": "C4",
          "ticks": 151134,
          "time": 196.7890625,
          "velocity": 0.6692913385826772
        },
        {
          "duration": 0.9791666666666856,
          "durationTicks": 752,
          "midi": 65,
          "name": "F4",
          "ticks": 151136,
          "time": 196.79166666666666,
          "velocity": 0.6692913385826772
        },
        {
          "duration": 0.9895833333333428,
          "durationTicks": 760,
          "midi": 69,
          "name": "A4",
          "ticks": 151136,
          "time": 196.79166666666666,
          "velocity": 0.6771653543307087
        },
        {
          "duration": 0.84375,
          "durationTicks": 648,
          "midi": 47,
          "name": "B2",
          "ticks": 151910,
          "time": 197.79947916666666,
          "velocity": 0.5039370078740157
        },
        {
          "duration": 0.8020833333333428,
          "durationTicks": 616,
          "midi": 59,
          "name": "B3",
          "ticks": 151920,
          "time": 197.8125,
          "velocity": 0.5354330708661418
        },
        {
          "duration": 0.7916666666666572,
          "durationTicks": 608,
          "midi": 67,
          "name": "G4",
          "ticks": 151926,
          "time": 197.8203125,
          "velocity": 0.6692913385826772
        },
        {
          "duration": 0.7864583333333428,
          "durationTicks": 604,
          "midi": 71,
          "name": "B4",
          "ticks": 151926,
          "time": 197.8203125,
          "velocity": 0.6850393700787402
        },
        {
          "duration": 0.7838541666666572,
          "durationTicks": 602,
          "midi": 62,
          "name": "D4",
          "ticks": 151926,
          "time": 197.8203125,
          "velocity": 0.6692913385826772
        },
        {
          "duration": 1.2994791666666572,
          "durationTicks": 998,
          "midi": 48,
          "name": "C3",
          "ticks": 152520,
          "time": 198.59375,
          "velocity": 0.5590551181102362
        },
        {
          "duration": 1.2526041666666856,
          "durationTicks": 962,
          "midi": 60,
          "name": "C4",
          "ticks": 152522,
          "time": 198.59635416666666,
          "velocity": 0.5196850393700787
        },
        {
          "duration": 1.1484375,
          "durationTicks": 882,
          "midi": 72,
          "name": "C5",
          "ticks": 152530,
          "time": 198.60677083333334,
          "velocity": 0.6850393700787402
        },
        {
          "duration": 1.1484375,
          "durationTicks": 882,
          "midi": 69,
          "name": "A4",
          "ticks": 152532,
          "time": 198.609375,
          "velocity": 0.6692913385826772
        },
        {
          "duration": 1.1458333333333428,
          "durationTicks": 880,
          "midi": 64,
          "name": "E4",
          "ticks": 152532,
          "time": 198.609375,
          "velocity": 0.6614173228346457
        },
        {
          "duration": 1.078125,
          "durationTicks": 828,
          "midi": 59,
          "name": "B3",
          "ticks": 153496,
          "time": 199.86458333333334,
          "velocity": 0.5354330708661418
        },
        {
          "duration": 1.0729166666666572,
          "durationTicks": 824,
          "midi": 47,
          "name": "B2",
          "ticks": 153496,
          "time": 199.86458333333334,
          "velocity": 0.5433070866141733
        },
        {
          "duration": 1.0338541666666856,
          "durationTicks": 794,
          "midi": 67,
          "name": "G4",
          "ticks": 153512,
          "time": 199.88541666666666,
          "velocity": 0.6692913385826772
        },
        {
          "duration": 1.0364583333333144,
          "durationTicks": 796,
          "midi": 71,
          "name": "B4",
          "ticks": 153514,
          "time": 199.88802083333334,
          "velocity": 0.6692913385826772
        },
        {
          "duration": 1.0364583333333428,
          "durationTicks": 796,
          "midi": 62,
          "name": "D4",
          "ticks": 153516,
          "time": 199.890625,
          "velocity": 0.6692913385826772
        },
        {
          "duration": 1.0651041666666572,
          "durationTicks": 818,
          "midi": 57,
          "name": "A3",
          "ticks": 154290,
          "time": 200.8984375,
          "velocity": 0.5511811023622047
        },
        {
          "duration": 1.1197916666666572,
          "durationTicks": 860,
          "midi": 45,
          "name": "A2",
          "ticks": 154290,
          "time": 200.8984375,
          "velocity": 0.5275590551181102
        },
        {
          "duration": 0.9322916666666572,
          "durationTicks": 716,
          "midi": 69,
          "name": "A4",
          "ticks": 154312,
          "time": 200.92708333333334,
          "velocity": 0.6850393700787402
        },
        {
          "duration": 0.8880208333333144,
          "durationTicks": 682,
          "midi": 60,
          "name": "C4",
          "ticks": 154312,
          "time": 200.92708333333334,
          "velocity": 0.6692913385826772
        },
        {
          "duration": 0.8854166666666572,
          "durationTicks": 680,
          "midi": 65,
          "name": "F4",
          "ticks": 154314,
          "time": 200.9296875,
          "velocity": 0.6692913385826772
        },
        {
          "duration": 0.8203125,
          "durationTicks": 630,
          "midi": 44,
          "name": "G#2",
          "ticks": 155088,
          "time": 201.9375,
          "velocity": 0.44881889763779526
        },
        {
          "duration": 0.8072916666666572,
          "durationTicks": 620,
          "midi": 56,
          "name": "G#3",
          "ticks": 155092,
          "time": 201.94270833333334,
          "velocity": 0.5118110236220472
        },
        {
          "duration": 0.7708333333333428,
          "durationTicks": 592,
          "midi": 64,
          "name": "E4",
          "ticks": 155100,
          "time": 201.953125,
          "velocity": 0.6614173228346457
        },
        {
          "duration": 0.7734375,
          "durationTicks": 594,
          "midi": 68,
          "name": "G#4",
          "ticks": 155100,
          "time": 201.953125,
          "velocity": 0.6692913385826772
        },
        {
          "duration": 0.78125,
          "durationTicks": 600,
          "midi": 59,
          "name": "B3",
          "ticks": 155104,
          "time": 201.95833333333334,
          "velocity": 0.6692913385826772
        },
        {
          "duration": 1.3020833333333428,
          "durationTicks": 1000,
          "midi": 48,
          "name": "C3",
          "ticks": 155696,
          "time": 202.72916666666666,
          "velocity": 0.5669291338582677
        },
        {
          "duration": 1.3020833333333428,
          "durationTicks": 1000,
          "midi": 60,
          "name": "C4",
          "ticks": 155696,
          "time": 202.72916666666666,
          "velocity": 0.47244094488188976
        },
        {
          "duration": 1.28125,
          "durationTicks": 984,
          "midi": 72,
          "name": "C5",
          "ticks": 155706,
          "time": 202.7421875,
          "velocity": 0.6850393700787402
        },
        {
          "duration": 1.2786458333333428,
          "durationTicks": 982,
          "midi": 69,
          "name": "A4",
          "ticks": 155706,
          "time": 202.7421875,
          "velocity": 0.6692913385826772
        },
        {
          "duration": 1.2838541666666572,
          "durationTicks": 986,
          "midi": 64,
          "name": "E4",
          "ticks": 155706,
          "time": 202.7421875,
          "velocity": 0.6692913385826772
        },
        {
          "duration": 1.0807291666666856,
          "durationTicks": 830,
          "midi": 47,
          "name": "B2",
          "ticks": 156668,
          "time": 203.99479166666666,
          "velocity": 0.5354330708661418
        },
        {
          "duration": 1.0442708333333144,
          "durationTicks": 802,
          "midi": 59,
          "name": "B3",
          "ticks": 156676,
          "time": 204.00520833333334,
          "velocity": 0.5354330708661418
        },
        {
          "duration": 1.0234375,
          "durationTicks": 786,
          "midi": 67,
          "name": "G4",
          "ticks": 156692,
          "time": 204.02604166666666,
          "velocity": 0.6692913385826772
        },
        {
          "duration": 1.0234375,
          "durationTicks": 786,
          "midi": 62,
          "name": "D4",
          "ticks": 156692,
          "time": 204.02604166666666,
          "velocity": 0.6692913385826772
        },
        {
          "duration": 1.0208333333333144,
          "durationTicks": 784,
          "midi": 71,
          "name": "B4",
          "ticks": 156694,
          "time": 204.02864583333334,
          "velocity": 0.6850393700787402
        },
        {
          "duration": 1.0598958333333144,
          "durationTicks": 814,
          "midi": 45,
          "name": "A2",
          "ticks": 157462,
          "time": 205.02864583333334,
          "velocity": 0.5275590551181102
        },
        {
          "duration": 1.0703125,
          "durationTicks": 822,
          "midi": 57,
          "name": "A3",
          "ticks": 157470,
          "time": 205.0390625,
          "velocity": 0.5354330708661418
        },
        {
          "duration": 1.0130208333333144,
          "durationTicks": 778,
          "midi": 65,
          "name": "F4",
          "ticks": 157474,
          "time": 205.04427083333334,
          "velocity": 0.6692913385826772
        },
        {
          "duration": 0.9583333333333144,
          "durationTicks": 736,
          "midi": 60,
          "name": "C4",
          "ticks": 157474,
          "time": 205.04427083333334,
          "velocity": 0.6692913385826772
        },
        {
          "duration": 0.9583333333333428,
          "durationTicks": 736,
          "midi": 69,
          "name": "A4",
          "ticks": 157478,
          "time": 205.04947916666666,
          "velocity": 0.6850393700787402
        },
        {
          "duration": 0.8255208333333428,
          "durationTicks": 634,
          "midi": 47,
          "name": "B2",
          "ticks": 158262,
          "time": 206.0703125,
          "velocity": 0.5039370078740157
        },
        {
          "duration": 0.7760416666666572,
          "durationTicks": 596,
          "midi": 71,
          "name": "B4",
          "ticks": 158268,
          "time": 206.078125,
          "velocity": 0.6692913385826772
        },
        {
          "duration": 0.7942708333333428,
          "durationTicks": 610,
          "midi": 59,
          "name": "B3",
          "ticks": 158270,
          "time": 206.08072916666666,
          "velocity": 0.5433070866141733
        },
        {
          "duration": 0.7786458333333428,
          "durationTicks": 598,
          "midi": 62,
          "name": "D4",
          "ticks": 158274,
          "time": 206.0859375,
          "velocity": 0.6692913385826772
        },
        {
          "duration": 0.7786458333333428,
          "durationTicks": 598,
          "midi": 67,
          "name": "G4",
          "ticks": 158274,
          "time": 206.0859375,
          "velocity": 0.6692913385826772
        },
        {
          "duration": 1.2473958333333144,
          "durationTicks": 958,
          "midi": 60,
          "name": "C4",
          "ticks": 158866,
          "time": 206.85677083333334,
          "velocity": 0.5354330708661418
        },
        {
          "duration": 1.2578125,
          "durationTicks": 966,
          "midi": 48,
          "name": "C3",
          "ticks": 158866,
          "time": 206.85677083333334,
          "velocity": 0.5275590551181102
        },
        {
          "duration": 1.2838541666666572,
          "durationTicks": 986,
          "midi": 72,
          "name": "C5",
          "ticks": 158874,
          "time": 206.8671875,
          "velocity": 0.6850393700787402
        },
        {
          "duration": 1.28125,
          "durationTicks": 984,
          "midi": 69,
          "name": "A4",
          "ticks": 158874,
          "time": 206.8671875,
          "velocity": 0.6692913385826772
        },
        {
          "duration": 1.2786458333333428,
          "durationTicks": 982,
          "midi": 64,
          "name": "E4",
          "ticks": 158876,
          "time": 206.86979166666666,
          "velocity": 0.6535433070866141
        },
        {
          "duration": 1.0625,
          "durationTicks": 816,
          "midi": 59,
          "name": "B3",
          "ticks": 159846,
          "time": 208.1328125,
          "velocity": 0.5275590551181102
        },
        {
          "duration": 1.0651041666666572,
          "durationTicks": 818,
          "midi": 47,
          "name": "B2",
          "ticks": 159846,
          "time": 208.1328125,
          "velocity": 0.5275590551181102
        },
        {
          "duration": 0.9817708333333428,
          "durationTicks": 754,
          "midi": 71,
          "name": "B4",
          "ticks": 159860,
          "time": 208.15104166666666,
          "velocity": 0.6771653543307087
        },
        {
          "duration": 0.984375,
          "durationTicks": 756,
          "midi": 67,
          "name": "G4",
          "ticks": 159860,
          "time": 208.15104166666666,
          "velocity": 0.6692913385826772
        },
        {
          "duration": 0.9765625,
          "durationTicks": 750,
          "midi": 62,
          "name": "D4",
          "ticks": 159862,
          "time": 208.15364583333334,
          "velocity": 0.6692913385826772
        },
        {
          "duration": 1.1223958333333428,
          "durationTicks": 862,
          "midi": 45,
          "name": "A2",
          "ticks": 160628,
          "time": 209.15104166666666,
          "velocity": 0.5354330708661418
        },
        {
          "duration": 1.0729166666666856,
          "durationTicks": 824,
          "midi": 57,
          "name": "A3",
          "ticks": 160640,
          "time": 209.16666666666666,
          "velocity": 0.5354330708661418
        },
        {
          "duration": 0.9713541666666572,
          "durationTicks": 746,
          "midi": 65,
          "name": "F4",
          "ticks": 160650,
          "time": 209.1796875,
          "velocity": 0.6692913385826772
        },
        {
          "duration": 0.9609375,
          "durationTicks": 738,
          "midi": 69,
          "name": "A4",
          "ticks": 160652,
          "time": 209.18229166666666,
          "velocity": 0.6850393700787402
        },
        {
          "duration": 0.9505208333333428,
          "durationTicks": 730,
          "midi": 60,
          "name": "C4",
          "ticks": 160652,
          "time": 209.18229166666666,
          "velocity": 0.6692913385826772
        },
        {
          "duration": 0.78125,
          "durationTicks": 600,
          "midi": 44,
          "name": "G#2",
          "ticks": 161430,
          "time": 210.1953125,
          "velocity": 0.49606299212598426
        },
        {
          "duration": 0.7291666666666572,
          "durationTicks": 560,
          "midi": 64,
          "name": "E4",
          "ticks": 161436,
          "time": 210.203125,
          "velocity": 0.6692913385826772
        },
        {
          "duration": 0.7838541666666572,
          "durationTicks": 602,
          "midi": 59,
          "name": "B3",
          "ticks": 161436,
          "time": 210.203125,
          "velocity": 0.6692913385826772
        },
        {
          "duration": 0.78125,
          "durationTicks": 600,
          "midi": 68,
          "name": "G#4",
          "ticks": 161438,
          "time": 210.20572916666666,
          "velocity": 0.6692913385826772
        },
        {
          "duration": 0.7786458333333428,
          "durationTicks": 598,
          "midi": 56,
          "name": "G#3",
          "ticks": 161438,
          "time": 210.20572916666666,
          "velocity": 0.5275590551181102
        },
        {
          "duration": 0.23177083333331439,
          "durationTicks": 178,
          "midi": 69,
          "name": "A4",
          "ticks": 162046,
          "time": 210.99739583333334,
          "velocity": 0.7007874015748031
        },
        {
          "duration": 0.2291666666666572,
          "durationTicks": 176,
          "midi": 64,
          "name": "E4",
          "ticks": 162048,
          "time": 211,
          "velocity": 0.5748031496062992
        },
        {
          "duration": 0.09895833333334281,
          "durationTicks": 76,
          "midi": 45,
          "name": "A2",
          "ticks": 162048,
          "time": 211,
          "velocity": 0.5590551181102362
        },
        {
          "duration": 0.09375,
          "durationTicks": 72,
          "midi": 57,
          "name": "A3",
          "ticks": 162050,
          "time": 211.00260416666666,
          "velocity": 0.5748031496062992
        }
      ],
      "endOfTrackTicks": 162520
    },
    {
      "channel": 7,
      "controlChanges": {
        "7": [
          {
            "number": 7,
            "ticks": 1536,
            "time": 2,
            "value": 1
          }
        ],
        "10": [
          {
            "number": 10,
            "ticks": 1536,
            "time": 2,
            "value": 0.3464566929133858
          }
        ]
      },
      "pitchBends": [
        {
          "ticks": 162336,
          "time": 211.375,
          "value": 0
        }
      ],
      "instrument": {
        "family": "synth pad",
        "number": 91,
        "name": "pad 4 (choir)"
      },
      "name": "SPACEVOICE",
      "notes": [
        {
          "duration": 0.06770833333331439,
          "durationTicks": 52,
          "midi": 91,
          "name": "G6",
          "ticks": 124978,
          "time": 162.73177083333334,
          "velocity": 0.5669291338582677
        },
        {
          "duration": 0.0703125,
          "durationTicks": 54,
          "midi": 96,
          "name": "C7",
          "ticks": 124978,
          "time": 162.73177083333334,
          "velocity": 0.6456692913385826
        },
        {
          "duration": 0.0625,
          "durationTicks": 48,
          "midi": 86,
          "name": "D6",
          "ticks": 124982,
          "time": 162.73697916666666,
          "velocity": 0.5669291338582677
        },
        {
          "duration": 0.11458333333331439,
          "durationTicks": 88,
          "midi": 86,
          "name": "D6",
          "ticks": 125074,
          "time": 162.85677083333334,
          "velocity": 0.5275590551181102
        },
        {
          "duration": 0.11458333333331439,
          "durationTicks": 88,
          "midi": 91,
          "name": "G6",
          "ticks": 125074,
          "time": 162.85677083333334,
          "velocity": 0.5275590551181102
        },
        {
          "duration": 0.1171875,
          "durationTicks": 90,
          "midi": 96,
          "name": "C7",
          "ticks": 125074,
          "time": 162.85677083333334,
          "velocity": 0.6062992125984252
        },
        {
          "duration": 0.0859375,
          "durationTicks": 66,
          "midi": 93,
          "name": "A6",
          "ticks": 125270,
          "time": 163.11197916666666,
          "velocity": 0.6535433070866141
        },
        {
          "duration": 0.08333333333331439,
          "durationTicks": 64,
          "midi": 83,
          "name": "B5",
          "ticks": 125272,
          "time": 163.11458333333334,
          "velocity": 0.5748031496062992
        },
        {
          "duration": 0.08333333333331439,
          "durationTicks": 64,
          "midi": 88,
          "name": "E6",
          "ticks": 125272,
          "time": 163.11458333333334,
          "velocity": 0.5748031496062992
        },
        {
          "duration": 0.09635416666668561,
          "durationTicks": 74,
          "midi": 93,
          "name": "A6",
          "ticks": 125468,
          "time": 163.36979166666666,
          "velocity": 0.6535433070866141
        },
        {
          "duration": 0.09375,
          "durationTicks": 72,
          "midi": 88,
          "name": "E6",
          "ticks": 125470,
          "time": 163.37239583333334,
          "velocity": 0.5748031496062992
        },
        {
          "duration": 0.08854166666665719,
          "durationTicks": 68,
          "midi": 83,
          "name": "B5",
          "ticks": 125472,
          "time": 163.375,
          "velocity": 0.5748031496062992
        },
        {
          "duration": 0.09114583333334281,
          "durationTicks": 70,
          "midi": 81,
          "name": "A5",
          "ticks": 125570,
          "time": 163.50260416666666,
          "velocity": 0.5669291338582677
        },
        {
          "duration": 0.09114583333334281,
          "durationTicks": 70,
          "midi": 86,
          "name": "D6",
          "ticks": 125570,
          "time": 163.50260416666666,
          "velocity": 0.5669291338582677
        },
        {
          "duration": 0.09375,
          "durationTicks": 72,
          "midi": 91,
          "name": "G6",
          "ticks": 125570,
          "time": 163.50260416666666,
          "velocity": 0.6456692913385826
        },
        {
          "duration": 0.10677083333331439,
          "durationTicks": 82,
          "midi": 93,
          "name": "A6",
          "ticks": 125668,
          "time": 163.63020833333334,
          "velocity": 0.6220472440944882
        },
        {
          "duration": 0.10416666666665719,
          "durationTicks": 80,
          "midi": 88,
          "name": "E6",
          "ticks": 125670,
          "time": 163.6328125,
          "velocity": 0.5433070866141733
        },
        {
          "duration": 0.10416666666665719,
          "durationTicks": 80,
          "midi": 83,
          "name": "B5",
          "ticks": 125670,
          "time": 163.6328125,
          "velocity": 0.5433070866141733
        },
        {
          "duration": 0.109375,
          "durationTicks": 84,
          "midi": 96,
          "name": "C7",
          "ticks": 125768,
          "time": 163.76041666666666,
          "velocity": 0.6614173228346457
        },
        {
          "duration": 0.10416666666665719,
          "durationTicks": 80,
          "midi": 91,
          "name": "G6",
          "ticks": 125770,
          "time": 163.76302083333334,
          "velocity": 0.5826771653543307
        },
        {
          "duration": 0.1015625,
          "durationTicks": 78,
          "midi": 86,
          "name": "D6",
          "ticks": 125772,
          "time": 163.765625,
          "velocity": 0.5826771653543307
        },
        {
          "duration": 0.06510416666668561,
          "durationTicks": 50,
          "midi": 96,
          "name": "C7",
          "ticks": 126566,
          "time": 164.79947916666666,
          "velocity": 0.6456692913385826
        },
        {
          "duration": 0.0625,
          "durationTicks": 48,
          "midi": 91,
          "name": "G6",
          "ticks": 126566,
          "time": 164.79947916666666,
          "velocity": 0.5669291338582677
        },
        {
          "duration": 0.059895833333314386,
          "durationTicks": 46,
          "midi": 86,
          "name": "D6",
          "ticks": 126568,
          "time": 164.80208333333334,
          "velocity": 0.5669291338582677
        },
        {
          "duration": 0.1015625,
          "durationTicks": 78,
          "midi": 91,
          "name": "G6",
          "ticks": 126658,
          "time": 164.91927083333334,
          "velocity": 0.5275590551181102
        },
        {
          "duration": 0.1015625,
          "durationTicks": 78,
          "midi": 96,
          "name": "C7",
          "ticks": 126658,
          "time": 164.91927083333334,
          "velocity": 0.6062992125984252
        },
        {
          "duration": 0.09895833333334281,
          "durationTicks": 76,
          "midi": 86,
          "name": "D6",
          "ticks": 126660,
          "time": 164.921875,
          "velocity": 0.5275590551181102
        },
        {
          "duration": 0.078125,
          "durationTicks": 60,
          "midi": 83,
          "name": "B5",
          "ticks": 126856,
          "time": 165.17708333333334,
          "velocity": 0.5669291338582677
        },
        {
          "duration": 0.08072916666665719,
          "durationTicks": 62,
          "midi": 88,
          "name": "E6",
          "ticks": 126856,
          "time": 165.17708333333334,
          "velocity": 0.5669291338582677
        },
        {
          "duration": 0.08072916666665719,
          "durationTicks": 62,
          "midi": 93,
          "name": "A6",
          "ticks": 126856,
          "time": 165.17708333333334,
          "velocity": 0.6456692913385826
        },
        {
          "duration": 0.07552083333334281,
          "durationTicks": 58,
          "midi": 93,
          "name": "A6",
          "ticks": 127056,
          "time": 165.4375,
          "velocity": 0.6535433070866141
        },
        {
          "duration": 0.07291666666668561,
          "durationTicks": 56,
          "midi": 88,
          "name": "E6",
          "ticks": 127058,
          "time": 165.44010416666666,
          "velocity": 0.5748031496062992
        },
        {
          "duration": 0.0703125,
          "durationTicks": 54,
          "midi": 83,
          "name": "B5",
          "ticks": 127058,
          "time": 165.44010416666666,
          "velocity": 0.5748031496062992
        },
        {
          "duration": 0.0859375,
          "durationTicks": 66,
          "midi": 88,
          "name": "E6",
          "ticks": 127254,
          "time": 165.6953125,
          "velocity": 0.5748031496062992
        },
        {
          "duration": 0.0859375,
          "durationTicks": 66,
          "midi": 93,
          "name": "A6",
          "ticks": 127254,
          "time": 165.6953125,
          "velocity": 0.6535433070866141
        },
        {
          "duration": 0.08333333333334281,
          "durationTicks": 64,
          "midi": 83,
          "name": "B5",
          "ticks": 127256,
          "time": 165.69791666666666,
          "velocity": 0.5748031496062992
        },
        {
          "duration": 0.07291666666665719,
          "durationTicks": 56,
          "midi": 96,
          "name": "C7",
          "ticks": 128142,
          "time": 166.8515625,
          "velocity": 0.6456692913385826
        },
        {
          "duration": 0.0703125,
          "durationTicks": 54,
          "midi": 91,
          "name": "G6",
          "ticks": 128144,
          "time": 166.85416666666666,
          "velocity": 0.5669291338582677
        },
        {
          "duration": 0.06510416666665719,
          "durationTicks": 50,
          "midi": 86,
          "name": "D6",
          "ticks": 128146,
          "time": 166.85677083333334,
          "velocity": 0.5669291338582677
        },
        {
          "duration": 0.10677083333331439,
          "durationTicks": 82,
          "midi": 91,
          "name": "G6",
          "ticks": 128242,
          "time": 166.98177083333334,
          "velocity": 0.5275590551181102
        },
        {
          "duration": 0.109375,
          "durationTicks": 84,
          "midi": 96,
          "name": "C7",
          "ticks": 128242,
          "time": 166.98177083333334,
          "velocity": 0.6062992125984252
        },
        {
          "duration": 0.10416666666665719,
          "durationTicks": 80,
          "midi": 86,
          "name": "D6",
          "ticks": 128244,
          "time": 166.984375,
          "velocity": 0.5275590551181102
        },
        {
          "duration": 0.078125,
          "durationTicks": 60,
          "midi": 83,
          "name": "B5",
          "ticks": 128440,
          "time": 167.23958333333334,
          "velocity": 0.5669291338582677
        },
        {
          "duration": 0.08072916666665719,
          "durationTicks": 62,
          "midi": 88,
          "name": "E6",
          "ticks": 128440,
          "time": 167.23958333333334,
          "velocity": 0.5669291338582677
        },
        {
          "duration": 0.08333333333331439,
          "durationTicks": 64,
          "midi": 93,
          "name": "A6",
          "ticks": 128440,
          "time": 167.23958333333334,
          "velocity": 0.6456692913385826
        },
        {
          "duration": 0.09375,
          "durationTicks": 72,
          "midi": 88,
          "name": "E6",
          "ticks": 128638,
          "time": 167.49739583333334,
          "velocity": 0.5669291338582677
        },
        {
          "duration": 0.09375,
          "durationTicks": 72,
          "midi": 93,
          "name": "A6",
          "ticks": 128638,
          "time": 167.49739583333334,
          "velocity": 0.6456692913385826
        },
        {
          "duration": 0.08854166666665719,
          "durationTicks": 68,
          "midi": 83,
          "name": "B5",
          "ticks": 128640,
          "time": 167.5,
          "velocity": 0.5669291338582677
        },
        {
          "duration": 0.09895833333334281,
          "durationTicks": 76,
          "midi": 91,
          "name": "G6",
          "ticks": 128742,
          "time": 167.6328125,
          "velocity": 0.6456692913385826
        },
        {
          "duration": 0.09635416666668561,
          "durationTicks": 74,
          "midi": 86,
          "name": "D6",
          "ticks": 128744,
          "time": 167.63541666666666,
          "velocity": 0.5669291338582677
        },
        {
          "duration": 0.09114583333331439,
          "durationTicks": 70,
          "midi": 81,
          "name": "A5",
          "ticks": 128746,
          "time": 167.63802083333334,
          "velocity": 0.5669291338582677
        },
        {
          "duration": 0.09375,
          "durationTicks": 72,
          "midi": 88,
          "name": "E6",
          "ticks": 128838,
          "time": 167.7578125,
          "velocity": 0.5196850393700787
        },
        {
          "duration": 0.09635416666665719,
          "durationTicks": 74,
          "midi": 93,
          "name": "A6",
          "ticks": 128838,
          "time": 167.7578125,
          "velocity": 0.5984251968503937
        },
        {
          "duration": 0.09114583333334281,
          "durationTicks": 70,
          "midi": 83,
          "name": "B5",
          "ticks": 128840,
          "time": 167.76041666666666,
          "velocity": 0.5196850393700787
        },
        {
          "duration": 0.10677083333334281,
          "durationTicks": 82,
          "midi": 96,
          "name": "C7",
          "ticks": 128936,
          "time": 167.88541666666666,
          "velocity": 0.6614173228346457
        },
        {
          "duration": 0.10416666666665719,
          "durationTicks": 80,
          "midi": 91,
          "name": "G6",
          "ticks": 128938,
          "time": 167.88802083333334,
          "velocity": 0.5826771653543307
        },
        {
          "duration": 0.09895833333334281,
          "durationTicks": 76,
          "midi": 86,
          "name": "D6",
          "ticks": 128940,
          "time": 167.890625,
          "velocity": 0.5826771653543307
        },
        {
          "duration": 0.07291666666668561,
          "durationTicks": 56,
          "midi": 96,
          "name": "C7",
          "ticks": 129728,
          "time": 168.91666666666666,
          "velocity": 0.6456692913385826
        },
        {
          "duration": 0.06770833333331439,
          "durationTicks": 52,
          "midi": 86,
          "name": "D6",
          "ticks": 129730,
          "time": 168.91927083333334,
          "velocity": 0.5669291338582677
        },
        {
          "duration": 0.06770833333331439,
          "durationTicks": 52,
          "midi": 91,
          "name": "G6",
          "ticks": 129730,
          "time": 168.91927083333334,
          "velocity": 0.5669291338582677
        },
        {
          "duration": 0.11458333333334281,
          "durationTicks": 88,
          "midi": 86,
          "name": "D6",
          "ticks": 129828,
          "time": 169.046875,
          "velocity": 0.5275590551181102
        },
        {
          "duration": 0.1171875,
          "durationTicks": 90,
          "midi": 91,
          "name": "G6",
          "ticks": 129828,
          "time": 169.046875,
          "velocity": 0.5275590551181102
        },
        {
          "duration": 0.1171875,
          "durationTicks": 90,
          "midi": 96,
          "name": "C7",
          "ticks": 129828,
          "time": 169.046875,
          "velocity": 0.6062992125984252
        },
        {
          "duration": 0.08072916666668561,
          "durationTicks": 62,
          "midi": 93,
          "name": "A6",
          "ticks": 130022,
          "time": 169.29947916666666,
          "velocity": 0.6456692913385826
        },
        {
          "duration": 0.07552083333331439,
          "durationTicks": 58,
          "midi": 83,
          "name": "B5",
          "ticks": 130024,
          "time": 169.30208333333334,
          "velocity": 0.5669291338582677
        },
        {
          "duration": 0.078125,
          "durationTicks": 60,
          "midi": 88,
          "name": "E6",
          "ticks": 130024,
          "time": 169.30208333333334,
          "velocity": 0.5669291338582677
        },
        {
          "duration": 0.09895833333331439,
          "durationTicks": 76,
          "midi": 88,
          "name": "E6",
          "ticks": 130222,
          "time": 169.55989583333334,
          "velocity": 0.5748031496062992
        },
        {
          "duration": 0.09895833333331439,
          "durationTicks": 76,
          "midi": 93,
          "name": "A6",
          "ticks": 130222,
          "time": 169.55989583333334,
          "velocity": 0.6535433070866141
        },
        {
          "duration": 0.09635416666665719,
          "durationTicks": 74,
          "midi": 83,
          "name": "B5",
          "ticks": 130224,
          "time": 169.5625,
          "velocity": 0.5748031496062992
        },
        {
          "duration": 0.09114583333331439,
          "durationTicks": 70,
          "midi": 86,
          "name": "D6",
          "ticks": 130324,
          "time": 169.69270833333334,
          "velocity": 0.5590551181102362
        },
        {
          "duration": 0.09114583333331439,
          "durationTicks": 70,
          "midi": 91,
          "name": "G6",
          "ticks": 130324,
          "time": 169.69270833333334,
          "velocity": 0.6377952755905512
        },
        {
          "duration": 0.0859375,
          "durationTicks": 66,
          "midi": 81,
          "name": "A5",
          "ticks": 130326,
          "time": 169.6953125,
          "velocity": 0.5590551181102362
        },
        {
          "duration": 0.10677083333334281,
          "durationTicks": 82,
          "midi": 93,
          "name": "A6",
          "ticks": 130424,
          "time": 169.82291666666666,
          "velocity": 0.6456692913385826
        },
        {
          "duration": 0.1015625,
          "durationTicks": 78,
          "midi": 88,
          "name": "E6",
          "ticks": 130426,
          "time": 169.82552083333334,
          "velocity": 0.5669291338582677
        },
        {
          "duration": 0.09635416666665719,
          "durationTicks": 74,
          "midi": 83,
          "name": "B5",
          "ticks": 130428,
          "time": 169.828125,
          "velocity": 0.5669291338582677
        },
        {
          "duration": 0.10677083333334281,
          "durationTicks": 82,
          "midi": 96,
          "name": "C7",
          "ticks": 130518,
          "time": 169.9453125,
          "velocity": 0.6535433070866141
        },
        {
          "duration": 0.10416666666668561,
          "durationTicks": 80,
          "midi": 91,
          "name": "G6",
          "ticks": 130520,
          "time": 169.94791666666666,
          "velocity": 0.5748031496062992
        },
        {
          "duration": 0.1015625,
          "durationTicks": 78,
          "midi": 86,
          "name": "D6",
          "ticks": 130520,
          "time": 169.94791666666666,
          "velocity": 0.5748031496062992
        },
        {
          "duration": 0.11979166666668561,
          "durationTicks": 92,
          "midi": 81,
          "name": "A5",
          "ticks": 130616,
          "time": 170.07291666666666,
          "velocity": 0.5511811023622047
        },
        {
          "duration": 0.12239583333334281,
          "durationTicks": 94,
          "midi": 86,
          "name": "D6",
          "ticks": 130616,
          "time": 170.07291666666666,
          "velocity": 0.5511811023622047
        },
        {
          "duration": 0.12239583333334281,
          "durationTicks": 94,
          "midi": 91,
          "name": "G6",
          "ticks": 130616,
          "time": 170.07291666666666,
          "velocity": 0.6299212598425197
        },
        {
          "duration": 0.09635416666665719,
          "durationTicks": 74,
          "midi": 93,
          "name": "A6",
          "ticks": 130714,
          "time": 170.20052083333334,
          "velocity": 0.6535433070866141
        },
        {
          "duration": 0.09375,
          "durationTicks": 72,
          "midi": 88,
          "name": "E6",
          "ticks": 130716,
          "time": 170.203125,
          "velocity": 0.5748031496062992
        },
        {
          "duration": 0.08854166666668561,
          "durationTicks": 68,
          "midi": 83,
          "name": "B5",
          "ticks": 130718,
          "time": 170.20572916666666,
          "velocity": 0.5748031496062992
        },
        {
          "duration": 0.06770833333331439,
          "durationTicks": 52,
          "midi": 86,
          "name": "D6",
          "ticks": 131314,
          "time": 170.98177083333334,
          "velocity": 0.5669291338582677
        },
        {
          "duration": 0.06770833333331439,
          "durationTicks": 52,
          "midi": 91,
          "name": "G6",
          "ticks": 131314,
          "time": 170.98177083333334,
          "velocity": 0.5669291338582677
        },
        {
          "duration": 0.0703125,
          "durationTicks": 54,
          "midi": 96,
          "name": "C7",
          "ticks": 131314,
          "time": 170.98177083333334,
          "velocity": 0.6456692913385826
        },
        {
          "duration": 0.10677083333334281,
          "durationTicks": 82,
          "midi": 91,
          "name": "G6",
          "ticks": 131408,
          "time": 171.10416666666666,
          "velocity": 0.5511811023622047
        },
        {
          "duration": 0.10677083333334281,
          "durationTicks": 82,
          "midi": 96,
          "name": "C7",
          "ticks": 131408,
          "time": 171.10416666666666,
          "velocity": 0.6299212598425197
        },
        {
          "duration": 0.1015625,
          "durationTicks": 78,
          "midi": 86,
          "name": "D6",
          "ticks": 131410,
          "time": 171.10677083333334,
          "velocity": 0.5511811023622047
        },
        {
          "duration": 0.078125,
          "durationTicks": 60,
          "midi": 83,
          "name": "B5",
          "ticks": 131608,
          "time": 171.36458333333334,
          "velocity": 0.5669291338582677
        },
        {
          "duration": 0.08072916666665719,
          "durationTicks": 62,
          "midi": 88,
          "name": "E6",
          "ticks": 131608,
          "time": 171.36458333333334,
          "velocity": 0.5669291338582677
        },
        {
          "duration": 0.08333333333331439,
          "durationTicks": 64,
          "midi": 93,
          "name": "A6",
          "ticks": 131608,
          "time": 171.36458333333334,
          "velocity": 0.6456692913385826
        },
        {
          "duration": 0.09114583333334281,
          "durationTicks": 70,
          "midi": 88,
          "name": "E6",
          "ticks": 131804,
          "time": 171.61979166666666,
          "velocity": 0.5669291338582677
        },
        {
          "duration": 0.09375,
          "durationTicks": 72,
          "midi": 93,
          "name": "A6",
          "ticks": 131804,
          "time": 171.61979166666666,
          "velocity": 0.6456692913385826
        },
        {
          "duration": 0.08854166666665719,
          "durationTicks": 68,
          "midi": 83,
          "name": "B5",
          "ticks": 131806,
          "time": 171.62239583333334,
          "velocity": 0.5669291338582677
        },
        {
          "duration": 0.1015625,
          "durationTicks": 78,
          "midi": 91,
          "name": "G6",
          "ticks": 131906,
          "time": 171.75260416666666,
          "velocity": 0.6456692913385826
        },
        {
          "duration": 0.09635416666665719,
          "durationTicks": 74,
          "midi": 81,
          "name": "A5",
          "ticks": 131908,
          "time": 171.75520833333334,
          "velocity": 0.5669291338582677
        },
        {
          "duration": 0.09635416666665719,
          "durationTicks": 74,
          "midi": 86,
          "name": "D6",
          "ticks": 131908,
          "time": 171.75520833333334,
          "velocity": 0.5669291338582677
        },
        {
          "duration": 0.1015625,
          "durationTicks": 78,
          "midi": 93,
          "name": "A6",
          "ticks": 132002,
          "time": 171.87760416666666,
          "velocity": 0.6456692913385826
        },
        {
          "duration": 0.09635416666665719,
          "durationTicks": 74,
          "midi": 83,
          "name": "B5",
          "ticks": 132004,
          "time": 171.88020833333334,
          "velocity": 0.5669291338582677
        },
        {
          "duration": 0.09895833333331439,
          "durationTicks": 76,
          "midi": 88,
          "name": "E6",
          "ticks": 132004,
          "time": 171.88020833333334,
          "velocity": 0.5669291338582677
        },
        {
          "duration": 0.09635416666665719,
          "durationTicks": 74,
          "midi": 96,
          "name": "C7",
          "ticks": 132102,
          "time": 172.0078125,
          "velocity": 0.6614173228346457
        },
        {
          "duration": 0.09375,
          "durationTicks": 72,
          "midi": 91,
          "name": "G6",
          "ticks": 132104,
          "time": 172.01041666666666,
          "velocity": 0.5826771653543307
        },
        {
          "duration": 0.08854166666665719,
          "durationTicks": 68,
          "midi": 86,
          "name": "D6",
          "ticks": 132106,
          "time": 172.01302083333334,
          "velocity": 0.5826771653543307
        },
        {
          "duration": 0.09895833333331439,
          "durationTicks": 76,
          "midi": 96,
          "name": "C7",
          "ticks": 132898,
          "time": 173.04427083333334,
          "velocity": 0.6456692913385826
        },
        {
          "duration": 0.08854166666668561,
          "durationTicks": 68,
          "midi": 86,
          "name": "D6",
          "ticks": 132902,
          "time": 173.04947916666666,
          "velocity": 0.5669291338582677
        },
        {
          "duration": 0.09114583333334281,
          "durationTicks": 70,
          "midi": 91,
          "name": "G6",
          "ticks": 132902,
          "time": 173.04947916666666,
          "velocity": 0.5669291338582677
        },
        {
          "duration": 0.08854166666668561,
          "durationTicks": 68,
          "midi": 93,
          "name": "A6",
          "ticks": 132998,
          "time": 173.17447916666666,
          "velocity": 0.6535433070866141
        },
        {
          "duration": 0.08333333333331439,
          "durationTicks": 64,
          "midi": 88,
          "name": "E6",
          "ticks": 133000,
          "time": 173.17708333333334,
          "velocity": 0.5748031496062992
        },
        {
          "duration": 0.08333333333331439,
          "durationTicks": 64,
          "midi": 83,
          "name": "B5",
          "ticks": 133000,
          "time": 173.17708333333334,
          "velocity": 0.5748031496062992
        },
        {
          "duration": 0.08854166666665719,
          "durationTicks": 68,
          "midi": 88,
          "name": "E6",
          "ticks": 133192,
          "time": 173.42708333333334,
          "velocity": 0.5669291338582677
        },
        {
          "duration": 0.08854166666665719,
          "durationTicks": 68,
          "midi": 93,
          "name": "A6",
          "ticks": 133192,
          "time": 173.42708333333334,
          "velocity": 0.6456692913385826
        },
        {
          "duration": 0.08333333333334281,
          "durationTicks": 64,
          "midi": 83,
          "name": "B5",
          "ticks": 133194,
          "time": 173.4296875,
          "velocity": 0.5669291338582677
        },
        {
          "duration": 0.07552083333334281,
          "durationTicks": 58,
          "midi": 93,
          "name": "A6",
          "ticks": 133392,
          "time": 173.6875,
          "velocity": 0.6456692913385826
        },
        {
          "duration": 0.0703125,
          "durationTicks": 54,
          "midi": 88,
          "name": "E6",
          "ticks": 133394,
          "time": 173.69010416666666,
          "velocity": 0.5669291338582677
        },
        {
          "duration": 0.0703125,
          "durationTicks": 54,
          "midi": 83,
          "name": "B5",
          "ticks": 133394,
          "time": 173.69010416666666,
          "velocity": 0.5669291338582677
        },
        {
          "duration": 0.0703125,
          "durationTicks": 54,
          "midi": 93,
          "name": "A6",
          "ticks": 133590,
          "time": 173.9453125,
          "velocity": 0.6535433070866141
        },
        {
          "duration": 0.06510416666668561,
          "durationTicks": 50,
          "midi": 88,
          "name": "E6",
          "ticks": 133592,
          "time": 173.94791666666666,
          "velocity": 0.5748031496062992
        },
        {
          "duration": 0.06510416666668561,
          "durationTicks": 50,
          "midi": 83,
          "name": "B5",
          "ticks": 133592,
          "time": 173.94791666666666,
          "velocity": 0.5748031496062992
        },
        {
          "duration": 0.06510416666668561,
          "durationTicks": 50,
          "midi": 91,
          "name": "G6",
          "ticks": 134480,
          "time": 175.10416666666666,
          "velocity": 0.5669291338582677
        },
        {
          "duration": 0.06770833333334281,
          "durationTicks": 52,
          "midi": 96,
          "name": "C7",
          "ticks": 134480,
          "time": 175.10416666666666,
          "velocity": 0.6456692913385826
        },
        {
          "duration": 0.0625,
          "durationTicks": 48,
          "midi": 86,
          "name": "D6",
          "ticks": 134482,
          "time": 175.10677083333334,
          "velocity": 0.5669291338582677
        },
        {
          "duration": 0.11197916666668561,
          "durationTicks": 86,
          "midi": 96,
          "name": "C7",
          "ticks": 134576,
          "time": 175.22916666666666,
          "velocity": 0.5984251968503937
        },
        {
          "duration": 0.10677083333331439,
          "durationTicks": 82,
          "midi": 86,
          "name": "D6",
          "ticks": 134578,
          "time": 175.23177083333334,
          "velocity": 0.5196850393700787
        },
        {
          "duration": 0.109375,
          "durationTicks": 84,
          "midi": 91,
          "name": "G6",
          "ticks": 134578,
          "time": 175.23177083333334,
          "velocity": 0.5196850393700787
        },
        {
          "duration": 0.08072916666668561,
          "durationTicks": 62,
          "midi": 83,
          "name": "B5",
          "ticks": 134774,
          "time": 175.48697916666666,
          "velocity": 0.5748031496062992
        },
        {
          "duration": 0.08333333333334281,
          "durationTicks": 64,
          "midi": 88,
          "name": "E6",
          "ticks": 134774,
          "time": 175.48697916666666,
          "velocity": 0.5748031496062992
        },
        {
          "duration": 0.0859375,
          "durationTicks": 66,
          "midi": 93,
          "name": "A6",
          "ticks": 134774,
          "time": 175.48697916666666,
          "velocity": 0.6535433070866141
        },
        {
          "duration": 0.1015625,
          "durationTicks": 78,
          "midi": 93,
          "name": "A6",
          "ticks": 134970,
          "time": 175.7421875,
          "velocity": 0.6535433070866141
        },
        {
          "duration": 0.09895833333334281,
          "durationTicks": 76,
          "midi": 83,
          "name": "B5",
          "ticks": 134972,
          "time": 175.74479166666666,
          "velocity": 0.5748031496062992
        },
        {
          "duration": 0.09895833333334281,
          "durationTicks": 76,
          "midi": 88,
          "name": "E6",
          "ticks": 134972,
          "time": 175.74479166666666,
          "velocity": 0.5748031496062992
        },
        {
          "duration": 0.10416666666665719,
          "durationTicks": 80,
          "midi": 91,
          "name": "G6",
          "ticks": 135070,
          "time": 175.87239583333334,
          "velocity": 0.6456692913385826
        },
        {
          "duration": 0.09895833333334281,
          "durationTicks": 76,
          "midi": 81,
          "name": "A5",
          "ticks": 135072,
          "time": 175.875,
          "velocity": 0.5669291338582677
        },
        {
          "duration": 0.1015625,
          "durationTicks": 78,
          "midi": 86,
          "name": "D6",
          "ticks": 135072,
          "time": 175.875,
          "velocity": 0.5669291338582677
        },
        {
          "duration": 0.09635416666668561,
          "durationTicks": 74,
          "midi": 93,
          "name": "A6",
          "ticks": 135170,
          "time": 176.00260416666666,
          "velocity": 0.6456692913385826
        },
        {
          "duration": 0.09375,
          "durationTicks": 72,
          "midi": 83,
          "name": "B5",
          "ticks": 135172,
          "time": 176.00520833333334,
          "velocity": 0.5669291338582677
        },
        {
          "duration": 0.09375,
          "durationTicks": 72,
          "midi": 88,
          "name": "E6",
          "ticks": 135172,
          "time": 176.00520833333334,
          "velocity": 0.5669291338582677
        },
        {
          "duration": 0.09895833333331439,
          "durationTicks": 76,
          "midi": 96,
          "name": "C7",
          "ticks": 135274,
          "time": 176.13802083333334,
          "velocity": 0.6614173228346457
        },
        {
          "duration": 0.09635416666665719,
          "durationTicks": 74,
          "midi": 91,
          "name": "G6",
          "ticks": 135276,
          "time": 176.140625,
          "velocity": 0.5826771653543307
        },
        {
          "duration": 0.09375,
          "durationTicks": 72,
          "midi": 86,
          "name": "D6",
          "ticks": 135276,
          "time": 176.140625,
          "velocity": 0.5826771653543307
        },
        {
          "duration": 0.08333333333334281,
          "durationTicks": 64,
          "midi": 96,
          "name": "C7",
          "ticks": 136062,
          "time": 177.1640625,
          "velocity": 0.6456692913385826
        },
        {
          "duration": 0.078125,
          "durationTicks": 60,
          "midi": 91,
          "name": "G6",
          "ticks": 136064,
          "time": 177.16666666666666,
          "velocity": 0.5669291338582677
        },
        {
          "duration": 0.07552083333331439,
          "durationTicks": 58,
          "midi": 86,
          "name": "D6",
          "ticks": 136066,
          "time": 177.16927083333334,
          "velocity": 0.5669291338582677
        },
        {
          "duration": 0.08333333333334281,
          "durationTicks": 64,
          "midi": 96,
          "name": "C7",
          "ticks": 136158,
          "time": 177.2890625,
          "velocity": 0.6456692913385826
        },
        {
          "duration": 0.08072916666668561,
          "durationTicks": 62,
          "midi": 91,
          "name": "G6",
          "ticks": 136160,
          "time": 177.29166666666666,
          "velocity": 0.5669291338582677
        },
        {
          "duration": 0.07552083333331439,
          "durationTicks": 58,
          "midi": 86,
          "name": "D6",
          "ticks": 136162,
          "time": 177.29427083333334,
          "velocity": 0.5669291338582677
        },
        {
          "duration": 0.06770833333334281,
          "durationTicks": 52,
          "midi": 96,
          "name": "C7",
          "ticks": 136358,
          "time": 177.54947916666666,
          "velocity": 0.6456692913385826
        },
        {
          "duration": 0.06510416666665719,
          "durationTicks": 50,
          "midi": 91,
          "name": "G6",
          "ticks": 136360,
          "time": 177.55208333333334,
          "velocity": 0.5669291338582677
        },
        {
          "duration": 0.0625,
          "durationTicks": 48,
          "midi": 86,
          "name": "D6",
          "ticks": 136360,
          "time": 177.55208333333334,
          "velocity": 0.5669291338582677
        },
        {
          "duration": 0.05729166666665719,
          "durationTicks": 44,
          "midi": 86,
          "name": "D6",
          "ticks": 136558,
          "time": 177.80989583333334,
          "velocity": 0.5748031496062992
        },
        {
          "duration": 0.059895833333314386,
          "durationTicks": 46,
          "midi": 91,
          "name": "G6",
          "ticks": 136558,
          "time": 177.80989583333334,
          "velocity": 0.5748031496062992
        },
        {
          "duration": 0.059895833333314386,
          "durationTicks": 46,
          "midi": 96,
          "name": "C7",
          "ticks": 136558,
          "time": 177.80989583333334,
          "velocity": 0.6535433070866141
        }
      ],
      "endOfTrackTicks": 162528
    },
    {
      "channel": 8,
      "controlChanges": {
        "7": [
          {
            "number": 7,
            "ticks": 1536,
            "time": 2,
            "value": 1
          }
        ],
        "10": [
          {
            "number": 10,
            "ticks": 1536,
            "time": 2,
            "value": 0.6929133858267716
          }
        ]
      },
      "pitchBends": [
        {
          "ticks": 118566,
          "time": 154.3828125,
          "value": 0.015625
        },
        {
          "ticks": 118624,
          "time": 154.45833333333334,
          "value": 0.03125
        },
        {
          "ticks": 118658,
          "time": 154.50260416666666,
          "value": 0.046875
        },
        {
          "ticks": 118708,
          "time": 154.56770833333334,
          "value": 0.0625
        },
        {
          "ticks": 118738,
          "time": 154.60677083333334,
          "value": 0.078125
        },
        {
          "ticks": 118800,
          "time": 154.6875,
          "value": 0.09375
        },
        {
          "ticks": 118854,
          "time": 154.7578125,
          "value": 0.109375
        },
        {
          "ticks": 118882,
          "time": 154.79427083333334,
          "value": 0.125
        },
        {
          "ticks": 118914,
          "time": 154.8359375,
          "value": 0.140625
        },
        {
          "ticks": 118966,
          "time": 154.90364583333334,
          "value": 0.15625
        },
        {
          "ticks": 119070,
          "time": 155.0390625,
          "value": 0.171875
        },
        {
          "ticks": 119132,
          "time": 155.11979166666666,
          "value": 0.1875
        },
        {
          "ticks": 119160,
          "time": 155.15625,
          "value": 0.21875
        },
        {
          "ticks": 119246,
          "time": 155.26822916666666,
          "value": 0.234375
        },
        {
          "ticks": 119318,
          "time": 155.36197916666666,
          "value": 0.25
        },
        {
          "ticks": 119654,
          "time": 155.79947916666666,
          "value": 0.265625
        },
        {
          "ticks": 120182,
          "time": 156.48697916666666,
          "value": 0.25
        },
        {
          "ticks": 120304,
          "time": 156.64583333333334,
          "value": 0.234375
        },
        {
          "ticks": 120380,
          "time": 156.74479166666666,
          "value": 0.21875
        },
        {
          "ticks": 120508,
          "time": 156.91145833333334,
          "value": 0.1875
        },
        {
          "ticks": 120592,
          "time": 157.02083333333334,
          "value": 0.171875
        },
        {
          "ticks": 120668,
          "time": 157.11979166666666,
          "value": 0.15625
        },
        {
          "ticks": 120702,
          "time": 157.1640625,
          "value": 0.140625
        },
        {
          "ticks": 120754,
          "time": 157.23177083333334,
          "value": 0.125
        },
        {
          "ticks": 120820,
          "time": 157.31770833333334,
          "value": 0.109375
        },
        {
          "ticks": 120866,
          "time": 157.37760416666666,
          "value": 0.078125
        },
        {
          "ticks": 120916,
          "time": 157.44270833333334,
          "value": 0.0625
        },
        {
          "ticks": 120936,
          "time": 157.46875,
          "value": 0.046875
        },
        {
          "ticks": 120962,
          "time": 157.50260416666666,
          "value": 0.03125
        },
        {
          "ticks": 120988,
          "time": 157.53645833333334,
          "value": 0
        },
        {
          "ticks": 120988,
          "time": 157.53645833333334,
          "value": 0.015625
        },
        {
          "ticks": 122306,
          "time": 159.25260416666666,
          "value": -0.015625
        },
        {
          "ticks": 122332,
          "time": 159.28645833333334,
          "value": -0.03125
        },
        {
          "ticks": 122356,
          "time": 159.31770833333334,
          "value": -0.046875
        },
        {
          "ticks": 122370,
          "time": 159.3359375,
          "value": -0.0625
        },
        {
          "ticks": 122410,
          "time": 159.38802083333334,
          "value": -0.078125
        },
        {
          "ticks": 122462,
          "time": 159.45572916666666,
          "value": -0.09375
        },
        {
          "ticks": 122502,
          "time": 159.5078125,
          "value": -0.109375
        },
        {
          "ticks": 122546,
          "time": 159.56510416666666,
          "value": -0.125
        },
        {
          "ticks": 122568,
          "time": 159.59375,
          "value": -0.140625
        },
        {
          "ticks": 122594,
          "time": 159.62760416666666,
          "value": -0.15625
        },
        {
          "ticks": 122674,
          "time": 159.73177083333334,
          "value": -0.171875
        },
        {
          "ticks": 122790,
          "time": 159.8828125,
          "value": -0.1875
        },
        {
          "ticks": 122858,
          "time": 159.97135416666666,
          "value": -0.21875
        },
        {
          "ticks": 123036,
          "time": 160.203125,
          "value": -0.1875
        },
        {
          "ticks": 123048,
          "time": 160.21875,
          "value": -0.171875
        },
        {
          "ticks": 123054,
          "time": 160.2265625,
          "value": -0.15625
        },
        {
          "ticks": 123090,
          "time": 160.2734375,
          "value": -0.09375
        },
        {
          "ticks": 123104,
          "time": 160.29166666666666,
          "value": -0.078125
        },
        {
          "ticks": 123122,
          "time": 160.31510416666666,
          "value": -0.0625
        },
        {
          "ticks": 123374,
          "time": 160.64322916666666,
          "value": -0.046875
        },
        {
          "ticks": 123430,
          "time": 160.71614583333334,
          "value": -0.03125
        },
        {
          "ticks": 123502,
          "time": 160.80989583333334,
          "value": -0.015625
        },
        {
          "ticks": 123542,
          "time": 160.86197916666666,
          "value": 0
        },
        {
          "ticks": 162346,
          "time": 211.38802083333334,
          "value": 0
        }
      ],
      "instrument": {
        "family": "synth pad",
        "number": 93,
        "name": "pad 6 (metallic)"
      },
      "name": "METAL PAD",
      "notes": [
        {
          "duration": 1.9895833333333428,
          "durationTicks": 1528,
          "midi": 33,
          "name": "A1",
          "ticks": 117642,
          "time": 153.1796875,
          "velocity": 0.9763779527559056
        },
        {
          "duration": 8,
          "durationTicks": 6144,
          "midi": 81,
          "name": "A5",
          "ticks": 117660,
          "time": 153.203125,
          "velocity": 0.49606299212598426
        },
        {
          "duration": 2.036458333333343,
          "durationTicks": 1564,
          "midi": 33,
          "name": "A1",
          "ticks": 119202,
          "time": 155.2109375,
          "velocity": 0.952755905511811
        },
        {
          "duration": 6.421875,
          "durationTicks": 4932,
          "midi": 77,
          "name": "F5",
          "ticks": 119238,
          "time": 155.2578125,
          "velocity": 0.6771653543307087
        },
        {
          "duration": 4.869791666666657,
          "durationTicks": 3740,
          "midi": 71,
          "name": "B4",
          "ticks": 120232,
          "time": 156.55208333333334,
          "velocity": 0.6929133858267716
        },
        {
          "duration": 1.9765625,
          "durationTicks": 1518,
          "midi": 33,
          "name": "A1",
          "ticks": 120810,
          "time": 157.3046875,
          "velocity": 0.9291338582677166
        },
        {
          "duration": 3.2526041666666856,
          "durationTicks": 2498,
          "midi": 66,
          "name": "F#4",
          "ticks": 120824,
          "time": 157.32291666666666,
          "velocity": 0.7086614173228346
        },
        {
          "duration": 1.8645833333333428,
          "durationTicks": 1432,
          "midi": 33,
          "name": "A1",
          "ticks": 122372,
          "time": 159.33854166666666,
          "velocity": 0.9133858267716536
        }
      ],
      "endOfTrackTicks": 162538
    },
    {
      "channel": 9,
      "controlChanges": {
        "7": [
          {
            "number": 7,
            "ticks": 1536,
            "time": 2,
            "value": 1
          }
        ]
      },
      "pitchBends": [
        {
          "ticks": 162356,
          "time": 211.40104166666666,
          "value": 0
        }
      ],
      "instrument": {
        "family": "drums",
        "number": 0,
        "name": "standard kit"
      },
      "name": "DRUMS",
      "notes": [
        {
          "duration": 0.0078125,
          "durationTicks": 6,
          "midi": 38,
          "name": "D2",
          "ticks": 3590,
          "time": 4.674479166666667,
          "velocity": 0.968503937007874
        },
        {
          "duration": 0.0052083333333339255,
          "durationTicks": 4,
          "midi": 49,
          "name": "C#3",
          "ticks": 3592,
          "time": 4.677083333333333,
          "velocity": 0.8188976377952756
        },
        {
          "duration": 0.0026041666666669627,
          "durationTicks": 2,
          "midi": 35,
          "name": "B1",
          "ticks": 3592,
          "time": 4.677083333333333,
          "velocity": 0.8110236220472441
        },
        {
          "duration": 0.0078125,
          "durationTicks": 6,
          "midi": 38,
          "name": "D2",
          "ticks": 4178,
          "time": 5.440104166666667,
          "velocity": 0.9921259842519685
        },
        {
          "duration": 0.0026041666666669627,
          "durationTicks": 2,
          "midi": 40,
          "name": "E2",
          "ticks": 4180,
          "time": 5.442708333333333,
          "velocity": 0.6850393700787402
        },
        {
          "duration": 0.0026041666666669627,
          "durationTicks": 2,
          "midi": 42,
          "name": "F#2",
          "ticks": 4186,
          "time": 5.450520833333333,
          "velocity": 0.5826771653543307
        },
        {
          "duration": 0.005208333333333037,
          "durationTicks": 4,
          "midi": 42,
          "name": "F#2",
          "ticks": 4280,
          "time": 5.572916666666667,
          "velocity": 0.33858267716535434
        },
        {
          "duration": 0.005208333333333037,
          "durationTicks": 4,
          "midi": 42,
          "name": "F#2",
          "ticks": 4376,
          "time": 5.697916666666667,
          "velocity": 0.4015748031496063
        },
        {
          "duration": 0.0026041666666669627,
          "durationTicks": 2,
          "midi": 42,
          "name": "F#2",
          "ticks": 4474,
          "time": 5.825520833333333,
          "velocity": 0.3858267716535433
        },
        {
          "duration": 0.0078125,
          "durationTicks": 6,
          "midi": 42,
          "name": "F#2",
          "ticks": 4576,
          "time": 5.958333333333333,
          "velocity": 0.49606299212598426
        },
        {
          "duration": 0.0026041666666669627,
          "durationTicks": 2,
          "midi": 35,
          "name": "B1",
          "ticks": 4582,
          "time": 5.966145833333333,
          "velocity": 0.8110236220472441
        },
        {
          "duration": 0.005208333333333037,
          "durationTicks": 4,
          "midi": 35,
          "name": "B1",
          "ticks": 4770,
          "time": 6.2109375,
          "velocity": 0.8267716535433071
        },
        {
          "duration": 0.0026041666666669627,
          "durationTicks": 2,
          "midi": 42,
          "name": "F#2",
          "ticks": 4776,
          "time": 6.21875,
          "velocity": 0.5275590551181102
        },
        {
          "duration": 0.0026041666666660745,
          "durationTicks": 2,
          "midi": 38,
          "name": "D2",
          "ticks": 4970,
          "time": 6.471354166666667,
          "velocity": 0.968503937007874
        },
        {
          "duration": 0.0026041666666669627,
          "durationTicks": 2,
          "midi": 40,
          "name": "E2",
          "ticks": 4972,
          "time": 6.473958333333333,
          "velocity": 0.6614173228346457
        },
        {
          "duration": 0.0026041666666669627,
          "durationTicks": 2,
          "midi": 42,
          "name": "F#2",
          "ticks": 5170,
          "time": 6.731770833333333,
          "velocity": 0.5433070866141733
        },
        {
          "duration": 0.005208333333333037,
          "durationTicks": 4,
          "midi": 42,
          "name": "F#2",
          "ticks": 5268,
          "time": 6.859375,
          "velocity": 0.30708661417322836
        },
        {
          "duration": 0.0026041666666660745,
          "durationTicks": 2,
          "midi": 42,
          "name": "F#2",
          "ticks": 5366,
          "time": 6.986979166666667,
          "velocity": 0.5433070866141733
        },
        {
          "duration": 0.0026041666666669627,
          "durationTicks": 2,
          "midi": 35,
          "name": "B1",
          "ticks": 5370,
          "time": 6.9921875,
          "velocity": 0.8188976377952756
        },
        {
          "duration": 0.005208333333333037,
          "durationTicks": 4,
          "midi": 35,
          "name": "B1",
          "ticks": 5568,
          "time": 7.25,
          "velocity": 0.8188976377952756
        },
        {
          "duration": 0.005208333333333037,
          "durationTicks": 4,
          "midi": 42,
          "name": "F#2",
          "ticks": 5568,
          "time": 7.25,
          "velocity": 0.5433070866141733
        },
        {
          "duration": 0.005208333333333037,
          "durationTicks": 4,
          "midi": 38,
          "name": "D2",
          "ticks": 5762,
          "time": 7.502604166666667,
          "velocity": 0.9763779527559056
        },
        {
          "duration": 0.0026041666666669627,
          "durationTicks": 2,
          "midi": 40,
          "name": "E2",
          "ticks": 5764,
          "time": 7.505208333333333,
          "velocity": 0.6692913385826772
        },
        {
          "duration": 0.0026041666666669627,
          "durationTicks": 2,
          "midi": 42,
          "name": "F#2",
          "ticks": 5962,
          "time": 7.763020833333333,
          "velocity": 0.5275590551181102
        },
        {
          "duration": 0.0026041666666669627,
          "durationTicks": 2,
          "midi": 42,
          "name": "F#2",
          "ticks": 6060,
          "time": 7.890625,
          "velocity": 0.3543307086614173
        },
        {
          "duration": 0.0078125,
          "durationTicks": 6,
          "midi": 42,
          "name": "F#2",
          "ticks": 6160,
          "time": 8.020833333333334,
          "velocity": 0.4330708661417323
        },
        {
          "duration": 0.0052083333333339255,
          "durationTicks": 4,
          "midi": 35,
          "name": "B1",
          "ticks": 6162,
          "time": 8.0234375,
          "velocity": 0.8110236220472441
        },
        {
          "duration": 0.0026041666666660745,
          "durationTicks": 2,
          "midi": 42,
          "name": "F#2",
          "ticks": 6258,
          "time": 8.1484375,
          "velocity": 0.3700787401574803
        },
        {
          "duration": 0.0052083333333339255,
          "durationTicks": 4,
          "midi": 35,
          "name": "B1",
          "ticks": 6354,
          "time": 8.2734375,
          "velocity": 0.7952755905511811
        },
        {
          "duration": 0.0026041666666660745,
          "durationTicks": 2,
          "midi": 42,
          "name": "F#2",
          "ticks": 6358,
          "time": 8.278645833333334,
          "velocity": 0.5275590551181102
        },
        {
          "duration": 0.0052083333333339255,
          "durationTicks": 4,
          "midi": 38,
          "name": "D2",
          "ticks": 6554,
          "time": 8.533854166666666,
          "velocity": 0.9921259842519685
        },
        {
          "duration": 0.0026041666666660745,
          "durationTicks": 2,
          "midi": 40,
          "name": "E2",
          "ticks": 6556,
          "time": 8.536458333333334,
          "velocity": 0.6850393700787402
        },
        {
          "duration": 0.0026041666666660745,
          "durationTicks": 2,
          "midi": 42,
          "name": "F#2",
          "ticks": 6558,
          "time": 8.5390625,
          "velocity": 0.4015748031496063
        },
        {
          "duration": 0.0052083333333339255,
          "durationTicks": 4,
          "midi": 35,
          "name": "B1",
          "ticks": 6750,
          "time": 8.7890625,
          "velocity": 0.8503937007874016
        },
        {
          "duration": 0.0026041666666660745,
          "durationTicks": 2,
          "midi": 46,
          "name": "A#2",
          "ticks": 6756,
          "time": 8.796875,
          "velocity": 0.5905511811023622
        },
        {
          "duration": 0.0026041666666660745,
          "durationTicks": 2,
          "midi": 42,
          "name": "F#2",
          "ticks": 6946,
          "time": 9.044270833333334,
          "velocity": 0.5826771653543307
        },
        {
          "duration": 0.002604166666667851,
          "durationTicks": 2,
          "midi": 42,
          "name": "F#2",
          "ticks": 7148,
          "time": 9.307291666666666,
          "velocity": 0.5669291338582677
        },
        {
          "duration": 0.0052083333333339255,
          "durationTicks": 4,
          "midi": 38,
          "name": "D2",
          "ticks": 7346,
          "time": 9.565104166666666,
          "velocity": 0.984251968503937
        },
        {
          "duration": 0.0026041666666660745,
          "durationTicks": 2,
          "midi": 40,
          "name": "E2",
          "ticks": 7348,
          "time": 9.567708333333334,
          "velocity": 0.6771653543307087
        },
        {
          "duration": 0.002604166666667851,
          "durationTicks": 2,
          "midi": 42,
          "name": "F#2",
          "ticks": 7352,
          "time": 9.572916666666666,
          "velocity": 0.5826771653543307
        },
        {
          "duration": 0.0052083333333339255,
          "durationTicks": 4,
          "midi": 42,
          "name": "F#2",
          "ticks": 7442,
          "time": 9.690104166666666,
          "velocity": 0.33858267716535434
        },
        {
          "duration": 0.002604166666667851,
          "durationTicks": 2,
          "midi": 42,
          "name": "F#2",
          "ticks": 7544,
          "time": 9.822916666666666,
          "velocity": 0.33858267716535434
        },
        {
          "duration": 0.002604166666667851,
          "durationTicks": 2,
          "midi": 42,
          "name": "F#2",
          "ticks": 7640,
          "time": 9.947916666666666,
          "velocity": 0.3700787401574803
        },
        {
          "duration": 0.0052083333333339255,
          "durationTicks": 4,
          "midi": 35,
          "name": "B1",
          "ticks": 7742,
          "time": 10.080729166666666,
          "velocity": 0.7952755905511811
        },
        {
          "duration": 0.0052083333333339255,
          "durationTicks": 4,
          "midi": 42,
          "name": "F#2",
          "ticks": 7742,
          "time": 10.080729166666666,
          "velocity": 0.48031496062992124
        },
        {
          "duration": 0.0052083333333339255,
          "durationTicks": 4,
          "midi": 42,
          "name": "F#2",
          "ticks": 7940,
          "time": 10.338541666666666,
          "velocity": 0.5433070866141733
        },
        {
          "duration": 0.0026041666666660745,
          "durationTicks": 2,
          "midi": 35,
          "name": "B1",
          "ticks": 7944,
          "time": 10.34375,
          "velocity": 0.8267716535433071
        },
        {
          "duration": 0.0026041666666660745,
          "durationTicks": 2,
          "midi": 38,
          "name": "D2",
          "ticks": 8140,
          "time": 10.598958333333334,
          "velocity": 0.9763779527559056
        },
        {
          "duration": 0.0026041666666660745,
          "durationTicks": 2,
          "midi": 40,
          "name": "E2",
          "ticks": 8142,
          "time": 10.6015625,
          "velocity": 0.6692913385826772
        },
        {
          "duration": 0.002604166666667851,
          "durationTicks": 2,
          "midi": 42,
          "name": "F#2",
          "ticks": 8336,
          "time": 10.854166666666666,
          "velocity": 0.5748031496062992
        },
        {
          "duration": 0.005208333333332149,
          "durationTicks": 4,
          "midi": 42,
          "name": "F#2",
          "ticks": 8434,
          "time": 10.981770833333334,
          "velocity": 0.33858267716535434
        },
        {
          "duration": 0.0026041666666660745,
          "durationTicks": 2,
          "midi": 42,
          "name": "F#2",
          "ticks": 8532,
          "time": 11.109375,
          "velocity": 0.44881889763779526
        },
        {
          "duration": 0.0026041666666660745,
          "durationTicks": 2,
          "midi": 35,
          "name": "B1",
          "ticks": 8536,
          "time": 11.114583333333334,
          "velocity": 0.8110236220472441
        },
        {
          "duration": 0.0052083333333339255,
          "durationTicks": 4,
          "midi": 42,
          "name": "F#2",
          "ticks": 8732,
          "time": 11.369791666666666,
          "velocity": 0.3543307086614173
        },
        {
          "duration": 0.0026041666666660745,
          "durationTicks": 2,
          "midi": 35,
          "name": "B1",
          "ticks": 8736,
          "time": 11.375,
          "velocity": 0.8110236220472441
        },
        {
          "duration": 0.005208333333332149,
          "durationTicks": 4,
          "midi": 38,
          "name": "D2",
          "ticks": 8932,
          "time": 11.630208333333334,
          "velocity": 0.9763779527559056
        },
        {
          "duration": 0.0026041666666660745,
          "durationTicks": 2,
          "midi": 40,
          "name": "E2",
          "ticks": 8934,
          "time": 11.6328125,
          "velocity": 0.6692913385826772
        },
        {
          "duration": 0.002604166666667851,
          "durationTicks": 2,
          "midi": 42,
          "name": "F#2",
          "ticks": 9128,
          "time": 11.885416666666666,
          "velocity": 0.49606299212598426
        },
        {
          "duration": 0.0052083333333339255,
          "durationTicks": 4,
          "midi": 42,
          "name": "F#2",
          "ticks": 9224,
          "time": 12.010416666666666,
          "velocity": 0.2755905511811024
        },
        {
          "duration": 0.002604166666667851,
          "durationTicks": 2,
          "midi": 42,
          "name": "F#2",
          "ticks": 9326,
          "time": 12.143229166666666,
          "velocity": 0.5118110236220472
        },
        {
          "duration": 0.0026041666666660745,
          "durationTicks": 2,
          "midi": 35,
          "name": "B1",
          "ticks": 9328,
          "time": 12.145833333333334,
          "velocity": 0.8110236220472441
        },
        {
          "duration": 0.0078125,
          "durationTicks": 6,
          "midi": 42,
          "name": "F#2",
          "ticks": 9524,
          "time": 12.401041666666666,
          "velocity": 0.3700787401574803
        },
        {
          "duration": 0.0026041666666660745,
          "durationTicks": 2,
          "midi": 35,
          "name": "B1",
          "ticks": 9526,
          "time": 12.403645833333334,
          "velocity": 0.8188976377952756
        },
        {
          "duration": 0.005208333333332149,
          "durationTicks": 4,
          "midi": 42,
          "name": "F#2",
          "ticks": 9718,
          "time": 12.653645833333334,
          "velocity": 0.48031496062992124
        },
        {
          "duration": 0.0052083333333339255,
          "durationTicks": 4,
          "midi": 38,
          "name": "D2",
          "ticks": 9722,
          "time": 12.658854166666666,
          "velocity": 0.984251968503937
        },
        {
          "duration": 0.0026041666666660745,
          "durationTicks": 2,
          "midi": 40,
          "name": "E2",
          "ticks": 9724,
          "time": 12.661458333333334,
          "velocity": 0.6771653543307087
        },
        {
          "duration": 0.0026041666666660745,
          "durationTicks": 2,
          "midi": 46,
          "name": "A#2",
          "ticks": 9906,
          "time": 12.8984375,
          "velocity": 0.5590551181102362
        },
        {
          "duration": 0.002604166666667851,
          "durationTicks": 2,
          "midi": 35,
          "name": "B1",
          "ticks": 9920,
          "time": 12.916666666666666,
          "velocity": 0.8346456692913385
        },
        {
          "duration": 0.0026041666666660745,
          "durationTicks": 2,
          "midi": 42,
          "name": "F#2",
          "ticks": 10104,
          "time": 13.15625,
          "velocity": 0.44881889763779526
        },
        {
          "duration": 0.0026041666666660745,
          "durationTicks": 2,
          "midi": 42,
          "name": "F#2",
          "ticks": 10312,
          "time": 13.427083333333334,
          "velocity": 0.5590551181102362
        },
        {
          "duration": 0.0078125,
          "durationTicks": 6,
          "midi": 38,
          "name": "D2",
          "ticks": 10510,
          "time": 13.684895833333334,
          "velocity": 0.9763779527559056
        },
        {
          "duration": 0.002604166666667851,
          "durationTicks": 2,
          "midi": 40,
          "name": "E2",
          "ticks": 10514,
          "time": 13.690104166666666,
          "velocity": 0.6692913385826772
        },
        {
          "duration": 0.0026041666666660745,
          "durationTicks": 2,
          "midi": 42,
          "name": "F#2",
          "ticks": 10518,
          "time": 13.6953125,
          "velocity": 0.5669291338582677
        },
        {
          "duration": 0.005208333333332149,
          "durationTicks": 4,
          "midi": 42,
          "name": "F#2",
          "ticks": 10612,
          "time": 13.817708333333334,
          "velocity": 0.33858267716535434
        },
        {
          "duration": 0.0052083333333339255,
          "durationTicks": 4,
          "midi": 42,
          "name": "F#2",
          "ticks": 10710,
          "time": 13.9453125,
          "velocity": 0.3543307086614173
        },
        {
          "duration": 0.005208333333332149,
          "durationTicks": 4,
          "midi": 42,
          "name": "F#2",
          "ticks": 10810,
          "time": 14.075520833333334,
          "velocity": 0.3858267716535433
        },
        {
          "duration": 0.002604166666667851,
          "durationTicks": 2,
          "midi": 35,
          "name": "B1",
          "ticks": 10910,
          "time": 14.205729166666666,
          "velocity": 0.8110236220472441
        },
        {
          "duration": 0.002604166666667851,
          "durationTicks": 2,
          "midi": 42,
          "name": "F#2",
          "ticks": 10910,
          "time": 14.205729166666666,
          "velocity": 0.5433070866141733
        },
        {
          "duration": 0.002604166666667851,
          "durationTicks": 2,
          "midi": 35,
          "name": "B1",
          "ticks": 11108,
          "time": 14.463541666666666,
          "velocity": 0.8188976377952756
        },
        {
          "duration": 0.002604166666667851,
          "durationTicks": 2,
          "midi": 42,
          "name": "F#2",
          "ticks": 11108,
          "time": 14.463541666666666,
          "velocity": 0.49606299212598426
        },
        {
          "duration": 0.0026041666666660745,
          "durationTicks": 2,
          "midi": 40,
          "name": "E2",
          "ticks": 11308,
          "time": 14.723958333333334,
          "velocity": 0.6771653543307087
        },
        {
          "duration": 0.0026041666666660745,
          "durationTicks": 2,
          "midi": 38,
          "name": "D2",
          "ticks": 11308,
          "time": 14.723958333333334,
          "velocity": 0.984251968503937
        },
        {
          "duration": 0.0026041666666660745,
          "durationTicks": 2,
          "midi": 42,
          "name": "F#2",
          "ticks": 11502,
          "time": 14.9765625,
          "velocity": 0.5433070866141733
        },
        {
          "duration": 0.0052083333333339255,
          "durationTicks": 4,
          "midi": 42,
          "name": "F#2",
          "ticks": 11600,
          "time": 15.104166666666666,
          "velocity": 0.3858267716535433
        },
        {
          "duration": 0.0026041666666660745,
          "durationTicks": 2,
          "midi": 42,
          "name": "F#2",
          "ticks": 11700,
          "time": 15.234375,
          "velocity": 0.3858267716535433
        },
        {
          "duration": 0.002604166666667851,
          "durationTicks": 2,
          "midi": 35,
          "name": "B1",
          "ticks": 11702,
          "time": 15.236979166666666,
          "velocity": 0.8031496062992126
        },
        {
          "duration": 0.0052083333333339255,
          "durationTicks": 4,
          "midi": 42,
          "name": "F#2",
          "ticks": 11900,
          "time": 15.494791666666666,
          "velocity": 0.5118110236220472
        },
        {
          "duration": 0.0026041666666660745,
          "durationTicks": 2,
          "midi": 35,
          "name": "B1",
          "ticks": 11904,
          "time": 15.5,
          "velocity": 0.8031496062992126
        },
        {
          "duration": 0.0026041666666660745,
          "durationTicks": 2,
          "midi": 40,
          "name": "E2",
          "ticks": 12100,
          "time": 15.755208333333334,
          "velocity": 0.6771653543307087
        },
        {
          "duration": 0.0026041666666660745,
          "durationTicks": 2,
          "midi": 38,
          "name": "D2",
          "ticks": 12100,
          "time": 15.755208333333334,
          "velocity": 0.984251968503937
        },
        {
          "duration": 0.005208333333332149,
          "durationTicks": 4,
          "midi": 42,
          "name": "F#2",
          "ticks": 12294,
          "time": 16.0078125,
          "velocity": 0.5433070866141733
        },
        {
          "duration": 0.005208333333335702,
          "durationTicks": 4,
          "midi": 42,
          "name": "F#2",
          "ticks": 12394,
          "time": 16.138020833333332,
          "velocity": 0.3700787401574803
        },
        {
          "duration": 0.005208333333335702,
          "durationTicks": 4,
          "midi": 35,
          "name": "B1",
          "ticks": 12496,
          "time": 16.270833333333332,
          "velocity": 0.8110236220472441
        },
        {
          "duration": 0.005208333333335702,
          "durationTicks": 4,
          "midi": 42,
          "name": "F#2",
          "ticks": 12496,
          "time": 16.270833333333332,
          "velocity": 0.41732283464566927
        },
        {
          "duration": 0.002604166666664298,
          "durationTicks": 2,
          "midi": 42,
          "name": "F#2",
          "ticks": 12590,
          "time": 16.393229166666668,
          "velocity": 0.3858267716535433
        },
        {
          "duration": 0.005208333333335702,
          "durationTicks": 4,
          "midi": 35,
          "name": "B1",
          "ticks": 12688,
          "time": 16.520833333333332,
          "velocity": 0.7795275590551181
        },
        {
          "duration": 0.002604166666664298,
          "durationTicks": 2,
          "midi": 42,
          "name": "F#2",
          "ticks": 12692,
          "time": 16.526041666666668,
          "velocity": 0.5433070866141733
        },
        {
          "duration": 0.005208333333332149,
          "durationTicks": 4,
          "midi": 40,
          "name": "E2",
          "ticks": 12888,
          "time": 16.78125,
          "velocity": 0.6929133858267716
        },
        {
          "duration": 0.0078125,
          "durationTicks": 6,
          "midi": 38,
          "name": "D2",
          "ticks": 12888,
          "time": 16.78125,
          "velocity": 1
        },
        {
          "duration": 0.002604166666664298,
          "durationTicks": 2,
          "midi": 42,
          "name": "F#2",
          "ticks": 12890,
          "time": 16.783854166666668,
          "velocity": 0.4645669291338583
        },
        {
          "duration": 0.002604166666667851,
          "durationTicks": 2,
          "midi": 35,
          "name": "B1",
          "ticks": 13084,
          "time": 17.036458333333332,
          "velocity": 0.8031496062992126
        },
        {
          "duration": 0.005208333333335702,
          "durationTicks": 4,
          "midi": 46,
          "name": "A#2",
          "ticks": 13090,
          "time": 17.044270833333332,
          "velocity": 0.5275590551181102
        },
        {
          "duration": 0.005208333333332149,
          "durationTicks": 4,
          "midi": 42,
          "name": "F#2",
          "ticks": 13296,
          "time": 17.3125,
          "velocity": 0.4094488188976378
        },
        {
          "duration": 0.005208333333332149,
          "durationTicks": 4,
          "midi": 42,
          "name": "F#2",
          "ticks": 13482,
          "time": 17.5546875,
          "velocity": 0.5433070866141733
        },
        {
          "duration": 0.010416666666664298,
          "durationTicks": 8,
          "midi": 38,
          "name": "D2",
          "ticks": 13682,
          "time": 17.815104166666668,
          "velocity": 0.9921259842519685
        },
        {
          "duration": 0.005208333333335702,
          "durationTicks": 4,
          "midi": 42,
          "name": "F#2",
          "ticks": 13684,
          "time": 17.817708333333332,
          "velocity": 0.5826771653543307
        },
        {
          "duration": 0.005208333333335702,
          "durationTicks": 4,
          "midi": 40,
          "name": "E2",
          "ticks": 13684,
          "time": 17.817708333333332,
          "velocity": 0.6850393700787402
        },
        {
          "duration": 0.005208333333335702,
          "durationTicks": 4,
          "midi": 42,
          "name": "F#2",
          "ticks": 13780,
          "time": 17.942708333333332,
          "velocity": 0.33858267716535434
        },
        {
          "duration": 0.002604166666667851,
          "durationTicks": 2,
          "midi": 42,
          "name": "F#2",
          "ticks": 13878,
          "time": 18.0703125,
          "velocity": 0.41732283464566927
        },
        {
          "duration": 0.002604166666667851,
          "durationTicks": 2,
          "midi": 42,
          "name": "F#2",
          "ticks": 13974,
          "time": 18.1953125,
          "velocity": 0.33858267716535434
        },
        {
          "duration": 0.005208333333332149,
          "durationTicks": 4,
          "midi": 42,
          "name": "F#2",
          "ticks": 14076,
          "time": 18.328125,
          "velocity": 0.5590551181102362
        },
        {
          "duration": 0.002604166666667851,
          "durationTicks": 2,
          "midi": 35,
          "name": "B1",
          "ticks": 14080,
          "time": 18.333333333333332,
          "velocity": 0.8110236220472441
        },
        {
          "duration": 0.005208333333332149,
          "durationTicks": 4,
          "midi": 42,
          "name": "F#2",
          "ticks": 14274,
          "time": 18.5859375,
          "velocity": 0.5590551181102362
        },
        {
          "duration": 0.002604166666667851,
          "durationTicks": 2,
          "midi": 35,
          "name": "B1",
          "ticks": 14278,
          "time": 18.591145833333332,
          "velocity": 0.8110236220472441
        },
        {
          "duration": 0.002604166666667851,
          "durationTicks": 2,
          "midi": 40,
          "name": "E2",
          "ticks": 14476,
          "time": 18.848958333333332,
          "velocity": 0.6771653543307087
        },
        {
          "duration": 0.002604166666667851,
          "durationTicks": 2,
          "midi": 38,
          "name": "D2",
          "ticks": 14476,
          "time": 18.848958333333332,
          "velocity": 0.984251968503937
        },
        {
          "duration": 0.002604166666664298,
          "durationTicks": 2,
          "midi": 42,
          "name": "F#2",
          "ticks": 14672,
          "time": 19.104166666666668,
          "velocity": 0.5826771653543307
        },
        {
          "duration": 0.005208333333335702,
          "durationTicks": 4,
          "midi": 42,
          "name": "F#2",
          "ticks": 14770,
          "time": 19.231770833333332,
          "velocity": 0.30708661417322836
        },
        {
          "duration": 0.002604166666664298,
          "durationTicks": 2,
          "midi": 35,
          "name": "B1",
          "ticks": 14870,
          "time": 19.361979166666668,
          "velocity": 0.7874015748031497
        },
        {
          "duration": 0.002604166666664298,
          "durationTicks": 2,
          "midi": 42,
          "name": "F#2",
          "ticks": 14870,
          "time": 19.361979166666668,
          "velocity": 0.3228346456692913
        },
        {
          "duration": 0.005208333333332149,
          "durationTicks": 4,
          "midi": 35,
          "name": "B1",
          "ticks": 15068,
          "time": 19.619791666666668,
          "velocity": 0.7874015748031497
        },
        {
          "duration": 0.005208333333332149,
          "durationTicks": 4,
          "midi": 42,
          "name": "F#2",
          "ticks": 15068,
          "time": 19.619791666666668,
          "velocity": 0.5433070866141733
        },
        {
          "duration": 0.0078125,
          "durationTicks": 6,
          "midi": 38,
          "name": "D2",
          "ticks": 15262,
          "time": 19.872395833333332,
          "velocity": 0.9763779527559056
        },
        {
          "duration": 0.005208333333332149,
          "durationTicks": 4,
          "midi": 40,
          "name": "E2",
          "ticks": 15264,
          "time": 19.875,
          "velocity": 0.6692913385826772
        },
        {
          "duration": 0.005208333333332149,
          "durationTicks": 4,
          "midi": 42,
          "name": "F#2",
          "ticks": 15462,
          "time": 20.1328125,
          "velocity": 0.5905511811023622
        },
        {
          "duration": 0.002604166666664298,
          "durationTicks": 2,
          "midi": 42,
          "name": "F#2",
          "ticks": 15560,
          "time": 20.260416666666668,
          "velocity": 0.4645669291338583
        },
        {
          "duration": 0.0078125,
          "durationTicks": 6,
          "midi": 42,
          "name": "F#2",
          "ticks": 15660,
          "time": 20.390625,
          "velocity": 0.5905511811023622
        },
        {
          "duration": 0.002604166666664298,
          "durationTicks": 2,
          "midi": 35,
          "name": "B1",
          "ticks": 15662,
          "time": 20.393229166666668,
          "velocity": 0.7874015748031497
        },
        {
          "duration": 0.005208333333332149,
          "durationTicks": 4,
          "midi": 35,
          "name": "B1",
          "ticks": 15854,
          "time": 20.643229166666668,
          "velocity": 0.8188976377952756
        },
        {
          "duration": 0.002604166666667851,
          "durationTicks": 2,
          "midi": 42,
          "name": "F#2",
          "ticks": 15858,
          "time": 20.6484375,
          "velocity": 0.44881889763779526
        },
        {
          "duration": 0.005208333333335702,
          "durationTicks": 4,
          "midi": 38,
          "name": "D2",
          "ticks": 16054,
          "time": 20.903645833333332,
          "velocity": 0.9921259842519685
        },
        {
          "duration": 0.002604166666667851,
          "durationTicks": 2,
          "midi": 40,
          "name": "E2",
          "ticks": 16056,
          "time": 20.90625,
          "velocity": 0.6850393700787402
        },
        {
          "duration": 0.002604166666667851,
          "durationTicks": 2,
          "midi": 42,
          "name": "F#2",
          "ticks": 16060,
          "time": 20.911458333333332,
          "velocity": 0.15748031496062992
        },
        {
          "duration": 0.002604166666667851,
          "durationTicks": 2,
          "midi": 46,
          "name": "A#2",
          "ticks": 16248,
          "time": 21.15625,
          "velocity": 0.5748031496062992
        },
        {
          "duration": 0.002604166666664298,
          "durationTicks": 2,
          "midi": 52,
          "name": "E3",
          "ticks": 16256,
          "time": 21.166666666666668,
          "velocity": 0.6062992125984252
        },
        {
          "duration": 0.002604166666664298,
          "durationTicks": 2,
          "midi": 49,
          "name": "C#3",
          "ticks": 16256,
          "time": 21.166666666666668,
          "velocity": 0.6299212598425197
        },
        {
          "duration": 0.002604166666667851,
          "durationTicks": 2,
          "midi": 35,
          "name": "B1",
          "ticks": 16258,
          "time": 21.169270833333332,
          "velocity": 0.8110236220472441
        },
        {
          "duration": 0.002604166666664298,
          "durationTicks": 2,
          "midi": 42,
          "name": "F#2",
          "ticks": 16454,
          "time": 21.424479166666668,
          "velocity": 0.4015748031496063
        },
        {
          "duration": 0.005208333333335702,
          "durationTicks": 4,
          "midi": 42,
          "name": "F#2",
          "ticks": 16648,
          "time": 21.677083333333332,
          "velocity": 0.5826771653543307
        },
        {
          "duration": 0.0078125,
          "durationTicks": 6,
          "midi": 38,
          "name": "D2",
          "ticks": 16848,
          "time": 21.9375,
          "velocity": 0.9921259842519685
        },
        {
          "duration": 0.002604166666664298,
          "durationTicks": 2,
          "midi": 42,
          "name": "F#2",
          "ticks": 16850,
          "time": 21.940104166666668,
          "velocity": 0.5748031496062992
        },
        {
          "duration": 0.005208333333332149,
          "durationTicks": 4,
          "midi": 40,
          "name": "E2",
          "ticks": 16850,
          "time": 21.940104166666668,
          "velocity": 0.6850393700787402
        },
        {
          "duration": 0.002604166666667851,
          "durationTicks": 2,
          "midi": 42,
          "name": "F#2",
          "ticks": 16948,
          "time": 22.067708333333332,
          "velocity": 0.33858267716535434
        },
        {
          "duration": 0.002604166666667851,
          "durationTicks": 2,
          "midi": 42,
          "name": "F#2",
          "ticks": 17046,
          "time": 22.1953125,
          "velocity": 0.48031496062992124
        },
        {
          "duration": 0.002604166666667851,
          "durationTicks": 2,
          "midi": 42,
          "name": "F#2",
          "ticks": 17146,
          "time": 22.325520833333332,
          "velocity": 0.3858267716535433
        },
        {
          "duration": 0.0078125,
          "durationTicks": 6,
          "midi": 42,
          "name": "F#2",
          "ticks": 17246,
          "time": 22.455729166666668,
          "velocity": 0.5669291338582677
        },
        {
          "duration": 0.002604166666667851,
          "durationTicks": 2,
          "midi": 35,
          "name": "B1",
          "ticks": 17248,
          "time": 22.458333333333332,
          "velocity": 0.7716535433070866
        },
        {
          "duration": 0.002604166666664298,
          "durationTicks": 2,
          "midi": 35,
          "name": "B1",
          "ticks": 17444,
          "time": 22.713541666666668,
          "velocity": 0.8031496062992126
        },
        {
          "duration": 0.005208333333335702,
          "durationTicks": 4,
          "midi": 42,
          "name": "F#2",
          "ticks": 17446,
          "time": 22.716145833333332,
          "velocity": 0.5275590551181102
        },
        {
          "duration": 0.005208333333335702,
          "durationTicks": 4,
          "midi": 38,
          "name": "D2",
          "ticks": 17638,
          "time": 22.966145833333332,
          "velocity": 0.984251968503937
        },
        {
          "duration": 0.002604166666667851,
          "durationTicks": 2,
          "midi": 40,
          "name": "E2",
          "ticks": 17640,
          "time": 22.96875,
          "velocity": 0.6771653543307087
        },
        {
          "duration": 0.002604166666667851,
          "durationTicks": 2,
          "midi": 42,
          "name": "F#2",
          "ticks": 17838,
          "time": 23.2265625,
          "velocity": 0.5669291338582677
        },
        {
          "duration": 0.005208333333332149,
          "durationTicks": 4,
          "midi": 42,
          "name": "F#2",
          "ticks": 17936,
          "time": 23.354166666666668,
          "velocity": 0.30708661417322836
        },
        {
          "duration": 0.0078125,
          "durationTicks": 6,
          "midi": 42,
          "name": "F#2",
          "ticks": 18034,
          "time": 23.481770833333332,
          "velocity": 0.49606299212598426
        },
        {
          "duration": 0.002604166666667851,
          "durationTicks": 2,
          "midi": 35,
          "name": "B1",
          "ticks": 18042,
          "time": 23.4921875,
          "velocity": 0.8188976377952756
        },
        {
          "duration": 0.002604166666664298,
          "durationTicks": 2,
          "midi": 35,
          "name": "B1",
          "ticks": 18236,
          "time": 23.744791666666668,
          "velocity": 0.8110236220472441
        },
        {
          "duration": 0.005208333333332149,
          "durationTicks": 4,
          "midi": 42,
          "name": "F#2",
          "ticks": 18236,
          "time": 23.744791666666668,
          "velocity": 0.5275590551181102
        },
        {
          "duration": 0.005208333333332149,
          "durationTicks": 4,
          "midi": 38,
          "name": "D2",
          "ticks": 18432,
          "time": 24,
          "velocity": 0.9763779527559056
        },
        {
          "duration": 0.002604166666664298,
          "durationTicks": 2,
          "midi": 40,
          "name": "E2",
          "ticks": 18434,
          "time": 24.002604166666668,
          "velocity": 0.6692913385826772
        },
        {
          "duration": 0.002604166666667851,
          "durationTicks": 2,
          "midi": 42,
          "name": "F#2",
          "ticks": 18630,
          "time": 24.2578125,
          "velocity": 0.5748031496062992
        },
        {
          "duration": 0.002604166666667851,
          "durationTicks": 2,
          "midi": 42,
          "name": "F#2",
          "ticks": 18726,
          "time": 24.3828125,
          "velocity": 0.29133858267716534
        },
        {
          "duration": 0.0078125,
          "durationTicks": 6,
          "midi": 42,
          "name": "F#2",
          "ticks": 18828,
          "time": 24.515625,
          "velocity": 0.49606299212598426
        },
        {
          "duration": 0.002604166666664298,
          "durationTicks": 2,
          "midi": 35,
          "name": "B1",
          "ticks": 18830,
          "time": 24.518229166666668,
          "velocity": 0.8188976377952756
        },
        {
          "duration": 0.010416666666667851,
          "durationTicks": 8,
          "midi": 42,
          "name": "F#2",
          "ticks": 19024,
          "time": 24.770833333333332,
          "velocity": 0.4015748031496063
        },
        {
          "duration": 0.005208333333332149,
          "durationTicks": 4,
          "midi": 35,
          "name": "B1",
          "ticks": 19026,
          "time": 24.7734375,
          "velocity": 0.8188976377952756
        },
        {
          "duration": 0.010416666666667851,
          "durationTicks": 8,
          "midi": 38,
          "name": "D2",
          "ticks": 19222,
          "time": 25.028645833333332,
          "velocity": 0.984251968503937
        },
        {
          "duration": 0.002604166666664298,
          "durationTicks": 2,
          "midi": 42,
          "name": "F#2",
          "ticks": 19226,
          "time": 25.033854166666668,
          "velocity": 0.47244094488188976
        },
        {
          "duration": 0.002604166666664298,
          "durationTicks": 2,
          "midi": 40,
          "name": "E2",
          "ticks": 19226,
          "time": 25.033854166666668,
          "velocity": 0.6771653543307087
        },
        {
          "duration": 0.002604166666667851,
          "durationTicks": 2,
          "midi": 46,
          "name": "A#2",
          "ticks": 19414,
          "time": 25.278645833333332,
          "velocity": 0.6850393700787402
        },
        {
          "duration": 0.005208333333335702,
          "durationTicks": 4,
          "midi": 35,
          "name": "B1",
          "ticks": 19420,
          "time": 25.286458333333332,
          "velocity": 0.8267716535433071
        },
        {
          "duration": 0.002604166666664298,
          "durationTicks": 2,
          "midi": 42,
          "name": "F#2",
          "ticks": 19616,
          "time": 25.541666666666668,
          "velocity": 0.49606299212598426
        },
        {
          "duration": 0.002604166666664298,
          "durationTicks": 2,
          "midi": 42,
          "name": "F#2",
          "ticks": 19820,
          "time": 25.807291666666668,
          "velocity": 0.5748031496062992
        },
        {
          "duration": 0.002604166666664298,
          "durationTicks": 2,
          "midi": 42,
          "name": "F#2",
          "ticks": 20018,
          "time": 26.065104166666668,
          "velocity": 0.5748031496062992
        },
        {
          "duration": 0.005208333333332149,
          "durationTicks": 4,
          "midi": 40,
          "name": "E2",
          "ticks": 20018,
          "time": 26.065104166666668,
          "velocity": 0.6929133858267716
        },
        {
          "duration": 0.005208333333332149,
          "durationTicks": 4,
          "midi": 38,
          "name": "D2",
          "ticks": 20018,
          "time": 26.065104166666668,
          "velocity": 1
        },
        {
          "duration": 0.002604166666667851,
          "durationTicks": 2,
          "midi": 42,
          "name": "F#2",
          "ticks": 20116,
          "time": 26.192708333333332,
          "velocity": 0.3543307086614173
        },
        {
          "duration": 0.002604166666667851,
          "durationTicks": 2,
          "midi": 42,
          "name": "F#2",
          "ticks": 20214,
          "time": 26.3203125,
          "velocity": 0.5275590551181102
        },
        {
          "duration": 0.005208333333332149,
          "durationTicks": 4,
          "midi": 42,
          "name": "F#2",
          "ticks": 20312,
          "time": 26.447916666666668,
          "velocity": 0.3543307086614173
        },
        {
          "duration": 0.010416666666664298,
          "durationTicks": 8,
          "midi": 35,
          "name": "B1",
          "ticks": 20408,
          "time": 26.572916666666668,
          "velocity": 0.8188976377952756
        },
        {
          "duration": 0.005208333333335702,
          "durationTicks": 4,
          "midi": 42,
          "name": "F#2",
          "ticks": 20416,
          "time": 26.583333333333332,
          "velocity": 0.5826771653543307
        },
        {
          "duration": 0.002604166666664298,
          "durationTicks": 2,
          "midi": 35,
          "name": "B1",
          "ticks": 20612,
          "time": 26.838541666666668,
          "velocity": 0.8188976377952756
        },
        {
          "duration": 0.005208333333335702,
          "durationTicks": 4,
          "midi": 42,
          "name": "F#2",
          "ticks": 20614,
          "time": 26.841145833333332,
          "velocity": 0.5118110236220472
        },
        {
          "duration": 0.005208333333332149,
          "durationTicks": 4,
          "midi": 38,
          "name": "D2",
          "ticks": 20808,
          "time": 27.09375,
          "velocity": 0.9921259842519685
        },
        {
          "duration": 0.002604166666664298,
          "durationTicks": 2,
          "midi": 40,
          "name": "E2",
          "ticks": 20810,
          "time": 27.096354166666668,
          "velocity": 0.6850393700787402
        },
        {
          "duration": 0.002604166666667851,
          "durationTicks": 2,
          "midi": 42,
          "name": "F#2",
          "ticks": 21006,
          "time": 27.3515625,
          "velocity": 0.5669291338582677
        },
        {
          "duration": 0.002604166666664298,
          "durationTicks": 2,
          "midi": 42,
          "name": "F#2",
          "ticks": 21104,
          "time": 27.479166666666668,
          "velocity": 0.33858267716535434
        },
        {
          "duration": 0.005208333333332149,
          "durationTicks": 4,
          "midi": 35,
          "name": "B1",
          "ticks": 21206,
          "time": 27.611979166666668,
          "velocity": 0.8031496062992126
        },
        {
          "duration": 0.002604166666664298,
          "durationTicks": 2,
          "midi": 42,
          "name": "F#2",
          "ticks": 21206,
          "time": 27.611979166666668,
          "velocity": 0.5748031496062992
        },
        {
          "duration": 0.0078125,
          "durationTicks": 6,
          "midi": 42,
          "name": "F#2",
          "ticks": 21404,
          "time": 27.869791666666668,
          "velocity": 0.5826771653543307
        },
        {
          "duration": 0.005208333333335702,
          "durationTicks": 4,
          "midi": 35,
          "name": "B1",
          "ticks": 21406,
          "time": 27.872395833333332,
          "velocity": 0.8188976377952756
        },
        {
          "duration": 0.002604166666667851,
          "durationTicks": 2,
          "midi": 38,
          "name": "D2",
          "ticks": 21600,
          "time": 28.125,
          "velocity": 0.984251968503937
        },
        {
          "duration": 0.002604166666664298,
          "durationTicks": 2,
          "midi": 40,
          "name": "E2",
          "ticks": 21602,
          "time": 28.127604166666668,
          "velocity": 0.6771653543307087
        },
        {
          "duration": 0.002604166666667851,
          "durationTicks": 2,
          "midi": 42,
          "name": "F#2",
          "ticks": 21804,
          "time": 28.390625,
          "velocity": 0.5984251968503937
        },
        {
          "duration": 0.005208333333332149,
          "durationTicks": 4,
          "midi": 42,
          "name": "F#2",
          "ticks": 21894,
          "time": 28.5078125,
          "velocity": 0.4330708661417323
        },
        {
          "duration": 0.005208333333332149,
          "durationTicks": 4,
          "midi": 42,
          "name": "F#2",
          "ticks": 21992,
          "time": 28.635416666666668,
          "velocity": 0.5669291338582677
        },
        {
          "duration": 0.002604166666667851,
          "durationTicks": 2,
          "midi": 35,
          "name": "B1",
          "ticks": 22000,
          "time": 28.645833333333332,
          "velocity": 0.8346456692913385
        },
        {
          "duration": 0.010416666666667851,
          "durationTicks": 8,
          "midi": 42,
          "name": "F#2",
          "ticks": 22188,
          "time": 28.890625,
          "velocity": 0.4015748031496063
        },
        {
          "duration": 0.002604166666664298,
          "durationTicks": 2,
          "midi": 35,
          "name": "B1",
          "ticks": 22196,
          "time": 28.901041666666668,
          "velocity": 0.8503937007874016
        },
        {
          "duration": 0.002604166666667851,
          "durationTicks": 2,
          "midi": 42,
          "name": "F#2",
          "ticks": 22390,
          "time": 29.153645833333332,
          "velocity": 0.5118110236220472
        },
        {
          "duration": 0.002604166666667851,
          "durationTicks": 2,
          "midi": 40,
          "name": "E2",
          "ticks": 22392,
          "time": 29.15625,
          "velocity": 0.6771653543307087
        },
        {
          "duration": 0.002604166666667851,
          "durationTicks": 2,
          "midi": 38,
          "name": "D2",
          "ticks": 22392,
          "time": 29.15625,
          "velocity": 0.984251968503937
        },
        {
          "duration": 0.002604166666667851,
          "durationTicks": 2,
          "midi": 46,
          "name": "A#2",
          "ticks": 22570,
          "time": 29.388020833333332,
          "velocity": 0.7007874015748031
        },
        {
          "duration": 0.002604166666667851,
          "durationTicks": 2,
          "midi": 35,
          "name": "B1",
          "ticks": 22590,
          "time": 29.4140625,
          "velocity": 0.8503937007874016
        },
        {
          "duration": 0.002604166666664298,
          "durationTicks": 2,
          "midi": 42,
          "name": "F#2",
          "ticks": 22772,
          "time": 29.651041666666668,
          "velocity": 0.44881889763779526
        },
        {
          "duration": 0.002604166666664298,
          "durationTicks": 2,
          "midi": 42,
          "name": "F#2",
          "ticks": 22988,
          "time": 29.932291666666668,
          "velocity": 0.5905511811023622
        },
        {
          "duration": 0.005208333333335702,
          "durationTicks": 4,
          "midi": 38,
          "name": "D2",
          "ticks": 23182,
          "time": 30.184895833333332,
          "velocity": 1
        },
        {
          "duration": 0.002604166666667851,
          "durationTicks": 2,
          "midi": 42,
          "name": "F#2",
          "ticks": 23184,
          "time": 30.1875,
          "velocity": 0.5748031496062992
        },
        {
          "duration": 0.002604166666667851,
          "durationTicks": 2,
          "midi": 40,
          "name": "E2",
          "ticks": 23184,
          "time": 30.1875,
          "velocity": 0.6929133858267716
        },
        {
          "duration": 0.002604166666664298,
          "durationTicks": 2,
          "midi": 42,
          "name": "F#2",
          "ticks": 23282,
          "time": 30.315104166666668,
          "velocity": 0.3700787401574803
        },
        {
          "duration": 0.005208333333335702,
          "durationTicks": 4,
          "midi": 42,
          "name": "F#2",
          "ticks": 23380,
          "time": 30.442708333333332,
          "velocity": 0.5275590551181102
        },
        {
          "duration": 0.002604166666664298,
          "durationTicks": 2,
          "midi": 42,
          "name": "F#2",
          "ticks": 23480,
          "time": 30.572916666666668,
          "velocity": 0.33858267716535434
        },
        {
          "duration": 0.005208333333332149,
          "durationTicks": 4,
          "midi": 42,
          "name": "F#2",
          "ticks": 23580,
          "time": 30.703125,
          "velocity": 0.5748031496062992
        },
        {
          "duration": 0.005208333333335702,
          "durationTicks": 4,
          "midi": 35,
          "name": "B1",
          "ticks": 23584,
          "time": 30.708333333333332,
          "velocity": 0.8503937007874016
        },
        {
          "duration": 0.005208333333332149,
          "durationTicks": 4,
          "midi": 42,
          "name": "F#2",
          "ticks": 23778,
          "time": 30.9609375,
          "velocity": 0.5118110236220472
        },
        {
          "duration": 0.002604166666664298,
          "durationTicks": 2,
          "midi": 35,
          "name": "B1",
          "ticks": 23780,
          "time": 30.963541666666668,
          "velocity": 0.8188976377952756
        },
        {
          "duration": 0.005208333333332149,
          "durationTicks": 4,
          "midi": 38,
          "name": "D2",
          "ticks": 23972,
          "time": 31.213541666666668,
          "velocity": 1
        },
        {
          "duration": 0.002604166666667851,
          "durationTicks": 2,
          "midi": 40,
          "name": "E2",
          "ticks": 23976,
          "time": 31.21875,
          "velocity": 0.6929133858267716
        },
        {
          "duration": 0.002604166666667851,
          "durationTicks": 2,
          "midi": 42,
          "name": "F#2",
          "ticks": 24172,
          "time": 31.473958333333332,
          "velocity": 0.5826771653543307
        },
        {
          "duration": 0.005208333333335702,
          "durationTicks": 4,
          "midi": 42,
          "name": "F#2",
          "ticks": 24268,
          "time": 31.598958333333332,
          "velocity": 0.33858267716535434
        },
        {
          "duration": 0.0078125,
          "durationTicks": 6,
          "midi": 42,
          "name": "F#2",
          "ticks": 24366,
          "time": 31.7265625,
          "velocity": 0.5669291338582677
        },
        {
          "duration": 0.002604166666664298,
          "durationTicks": 2,
          "midi": 35,
          "name": "B1",
          "ticks": 24374,
          "time": 31.736979166666668,
          "velocity": 0.8188976377952756
        },
        {
          "duration": 0.005208333333332149,
          "durationTicks": 4,
          "midi": 42,
          "name": "F#2",
          "ticks": 24570,
          "time": 31.9921875,
          "velocity": 0.5590551181102362
        },
        {
          "duration": 0.002604166666664298,
          "durationTicks": 2,
          "midi": 35,
          "name": "B1",
          "ticks": 24576,
          "time": 32,
          "velocity": 0.8503937007874016
        },
        {
          "duration": 0.002604166666664298,
          "durationTicks": 2,
          "midi": 40,
          "name": "E2",
          "ticks": 24768,
          "time": 32.25,
          "velocity": 0.6771653543307087
        },
        {
          "duration": 0.002604166666664298,
          "durationTicks": 2,
          "midi": 38,
          "name": "D2",
          "ticks": 24768,
          "time": 32.25,
          "velocity": 0.984251968503937
        },
        {
          "duration": 0.002604166666664298,
          "durationTicks": 2,
          "midi": 42,
          "name": "F#2",
          "ticks": 24966,
          "time": 32.5078125,
          "velocity": 0.5826771653543307
        },
        {
          "duration": 0.0026041666666714036,
          "durationTicks": 2,
          "midi": 42,
          "name": "F#2",
          "ticks": 25064,
          "time": 32.635416666666664,
          "velocity": 0.3543307086614173
        },
        {
          "duration": 0.0078125,
          "durationTicks": 6,
          "midi": 42,
          "name": "F#2",
          "ticks": 25160,
          "time": 32.760416666666664,
          "velocity": 0.5275590551181102
        },
        {
          "duration": 0.005208333333335702,
          "durationTicks": 4,
          "midi": 35,
          "name": "B1",
          "ticks": 25166,
          "time": 32.768229166666664,
          "velocity": 0.8346456692913385
        },
        {
          "duration": 0.002604166666664298,
          "durationTicks": 2,
          "midi": 42,
          "name": "F#2",
          "ticks": 25260,
          "time": 32.890625,
          "velocity": 0.33858267716535434
        },
        {
          "duration": 0.002604166666664298,
          "durationTicks": 2,
          "midi": 42,
          "name": "F#2",
          "ticks": 25362,
          "time": 33.0234375,
          "velocity": 0.5669291338582677
        },
        {
          "duration": 0.002604166666664298,
          "durationTicks": 2,
          "midi": 35,
          "name": "B1",
          "ticks": 25366,
          "time": 33.028645833333336,
          "velocity": 0.8346456692913385
        },
        {
          "duration": 0.002604166666664298,
          "durationTicks": 2,
          "midi": 42,
          "name": "F#2",
          "ticks": 25554,
          "time": 33.2734375,
          "velocity": 0.4645669291338583
        },
        {
          "duration": 0.002604166666664298,
          "durationTicks": 2,
          "midi": 40,
          "name": "E2",
          "ticks": 25560,
          "time": 33.28125,
          "velocity": 0.6850393700787402
        },
        {
          "duration": 0.002604166666664298,
          "durationTicks": 2,
          "midi": 38,
          "name": "D2",
          "ticks": 25560,
          "time": 33.28125,
          "velocity": 0.9921259842519685
        },
        {
          "duration": 0.002604166666664298,
          "durationTicks": 2,
          "midi": 46,
          "name": "A#2",
          "ticks": 25750,
          "time": 33.528645833333336,
          "velocity": 0.5118110236220472
        },
        {
          "duration": 0.005208333333335702,
          "durationTicks": 4,
          "midi": 35,
          "name": "B1",
          "ticks": 25754,
          "time": 33.533854166666664,
          "velocity": 0.8503937007874016
        },
        {
          "duration": 0.0026041666666714036,
          "durationTicks": 2,
          "midi": 42,
          "name": "F#2",
          "ticks": 25964,
          "time": 33.807291666666664,
          "velocity": 0.5039370078740157
        },
        {
          "duration": 0.002604166666664298,
          "durationTicks": 2,
          "midi": 42,
          "name": "F#2",
          "ticks": 26152,
          "time": 34.052083333333336,
          "velocity": 0.5669291338582677
        },
        {
          "duration": 0.005208333333335702,
          "durationTicks": 4,
          "midi": 38,
          "name": "D2",
          "ticks": 26346,
          "time": 34.3046875,
          "velocity": 0.9921259842519685
        },
        {
          "duration": 0.002604166666664298,
          "durationTicks": 2,
          "midi": 40,
          "name": "E2",
          "ticks": 26350,
          "time": 34.309895833333336,
          "velocity": 0.6850393700787402
        },
        {
          "duration": 0.0026041666666714036,
          "durationTicks": 2,
          "midi": 42,
          "name": "F#2",
          "ticks": 26354,
          "time": 34.315104166666664,
          "velocity": 0.5826771653543307
        },
        {
          "duration": 0.002604166666664298,
          "durationTicks": 2,
          "midi": 42,
          "name": "F#2",
          "ticks": 26448,
          "time": 34.4375,
          "velocity": 0.25984251968503935
        },
        {
          "duration": 0.002604166666664298,
          "durationTicks": 2,
          "midi": 42,
          "name": "F#2",
          "ticks": 26548,
          "time": 34.567708333333336,
          "velocity": 0.5433070866141733
        },
        {
          "duration": 0.002604166666664298,
          "durationTicks": 2,
          "midi": 42,
          "name": "F#2",
          "ticks": 26644,
          "time": 34.692708333333336,
          "velocity": 0.33858267716535434
        },
        {
          "duration": 0.005208333333335702,
          "durationTicks": 4,
          "midi": 42,
          "name": "F#2",
          "ticks": 26742,
          "time": 34.8203125,
          "velocity": 0.5669291338582677
        },
        {
          "duration": 0.002604166666664298,
          "durationTicks": 2,
          "midi": 35,
          "name": "B1",
          "ticks": 26748,
          "time": 34.828125,
          "velocity": 0.8346456692913385
        },
        {
          "duration": 0.005208333333335702,
          "durationTicks": 4,
          "midi": 42,
          "name": "F#2",
          "ticks": 26840,
          "time": 34.947916666666664,
          "velocity": 0.3700787401574803
        },
        {
          "duration": 0.010416666666664298,
          "durationTicks": 8,
          "midi": 42,
          "name": "F#2",
          "ticks": 26938,
          "time": 35.075520833333336,
          "velocity": 0.5984251968503937
        },
        {
          "duration": 0.002604166666664298,
          "durationTicks": 2,
          "midi": 35,
          "name": "B1",
          "ticks": 26946,
          "time": 35.0859375,
          "velocity": 0.8346456692913385
        },
        {
          "duration": 0.0026041666666714036,
          "durationTicks": 2,
          "midi": 38,
          "name": "D2",
          "ticks": 27140,
          "time": 35.338541666666664,
          "velocity": 0.984251968503937
        },
        {
          "duration": 0.002604166666664298,
          "durationTicks": 2,
          "midi": 40,
          "name": "E2",
          "ticks": 27142,
          "time": 35.341145833333336,
          "velocity": 0.6771653543307087
        },
        {
          "duration": 0.0026041666666714036,
          "durationTicks": 2,
          "midi": 42,
          "name": "F#2",
          "ticks": 27338,
          "time": 35.596354166666664,
          "velocity": 0.5826771653543307
        },
        {
          "duration": 0.0026041666666714036,
          "durationTicks": 2,
          "midi": 42,
          "name": "F#2",
          "ticks": 27440,
          "time": 35.729166666666664,
          "velocity": 0.2755905511811024
        },
        {
          "duration": 0.0078125,
          "durationTicks": 6,
          "midi": 42,
          "name": "F#2",
          "ticks": 27534,
          "time": 35.8515625,
          "velocity": 0.5118110236220472
        },
        {
          "duration": 0.0026041666666714036,
          "durationTicks": 2,
          "midi": 35,
          "name": "B1",
          "ticks": 27542,
          "time": 35.861979166666664,
          "velocity": 0.84251968503937
        },
        {
          "duration": 0.002604166666664298,
          "durationTicks": 2,
          "midi": 42,
          "name": "F#2",
          "ticks": 27636,
          "time": 35.984375,
          "velocity": 0.2440944881889764
        },
        {
          "duration": 0.005208333333335702,
          "durationTicks": 4,
          "midi": 42,
          "name": "F#2",
          "ticks": 27738,
          "time": 36.1171875,
          "velocity": 0.5826771653543307
        },
        {
          "duration": 0.005208333333328596,
          "durationTicks": 4,
          "midi": 35,
          "name": "B1",
          "ticks": 27742,
          "time": 36.122395833333336,
          "velocity": 0.8503937007874016
        },
        {
          "duration": 0.002604166666664298,
          "durationTicks": 2,
          "midi": 40,
          "name": "E2",
          "ticks": 27934,
          "time": 36.372395833333336,
          "velocity": 0.6850393700787402
        },
        {
          "duration": 0.002604166666664298,
          "durationTicks": 2,
          "midi": 38,
          "name": "D2",
          "ticks": 27934,
          "time": 36.372395833333336,
          "velocity": 0.9921259842519685
        },
        {
          "duration": 0.002604166666664298,
          "durationTicks": 2,
          "midi": 42,
          "name": "F#2",
          "ticks": 28132,
          "time": 36.630208333333336,
          "velocity": 0.5905511811023622
        },
        {
          "duration": 0.002604166666664298,
          "durationTicks": 2,
          "midi": 42,
          "name": "F#2",
          "ticks": 28230,
          "time": 36.7578125,
          "velocity": 0.3228346456692913
        },
        {
          "duration": 0.0078125,
          "durationTicks": 6,
          "midi": 35,
          "name": "B1",
          "ticks": 28326,
          "time": 36.8828125,
          "velocity": 0.8503937007874016
        },
        {
          "duration": 0.0026041666666714036,
          "durationTicks": 2,
          "midi": 42,
          "name": "F#2",
          "ticks": 28334,
          "time": 36.893229166666664,
          "velocity": 0.49606299212598426
        },
        {
          "duration": 0.002604166666664298,
          "durationTicks": 2,
          "midi": 42,
          "name": "F#2",
          "ticks": 28428,
          "time": 37.015625,
          "velocity": 0.3543307086614173
        },
        {
          "duration": 0.005208333333328596,
          "durationTicks": 4,
          "midi": 42,
          "name": "F#2",
          "ticks": 28528,
          "time": 37.145833333333336,
          "velocity": 0.5118110236220472
        },
        {
          "duration": 0.005208333333335702,
          "durationTicks": 4,
          "midi": 35,
          "name": "B1",
          "ticks": 28532,
          "time": 37.151041666666664,
          "velocity": 0.8346456692913385
        },
        {
          "duration": 0.005208333333328596,
          "durationTicks": 4,
          "midi": 40,
          "name": "E2",
          "ticks": 28726,
          "time": 37.403645833333336,
          "velocity": 0.6850393700787402
        },
        {
          "duration": 0.005208333333328596,
          "durationTicks": 4,
          "midi": 38,
          "name": "D2",
          "ticks": 28726,
          "time": 37.403645833333336,
          "velocity": 0.9921259842519685
        },
        {
          "duration": 0.002604166666664298,
          "durationTicks": 2,
          "midi": 42,
          "name": "F#2",
          "ticks": 28728,
          "time": 37.40625,
          "velocity": 0.3700787401574803
        },
        {
          "duration": 0.010416666666664298,
          "durationTicks": 8,
          "midi": 42,
          "name": "F#2",
          "ticks": 28924,
          "time": 37.661458333333336,
          "velocity": 0.6220472440944882
        },
        {
          "duration": 0.010416666666664298,
          "durationTicks": 8,
          "midi": 49,
          "name": "C#3",
          "ticks": 28932,
          "time": 37.671875,
          "velocity": 0.5984251968503937
        },
        {
          "duration": 0.0078125,
          "durationTicks": 6,
          "midi": 52,
          "name": "E3",
          "ticks": 28932,
          "time": 37.671875,
          "velocity": 0.5748031496062992
        },
        {
          "duration": 0.005208333333335702,
          "durationTicks": 4,
          "midi": 35,
          "name": "B1",
          "ticks": 28934,
          "time": 37.674479166666664,
          "velocity": 0.8503937007874016
        },
        {
          "duration": 0.0026041666666714036,
          "durationTicks": 2,
          "midi": 46,
          "name": "A#2",
          "ticks": 28940,
          "time": 37.682291666666664,
          "velocity": 0.5118110236220472
        },
        {
          "duration": 0.0026041666666714036,
          "durationTicks": 2,
          "midi": 42,
          "name": "F#2",
          "ticks": 29132,
          "time": 37.932291666666664,
          "velocity": 0.4330708661417323
        },
        {
          "duration": 0.002604166666664298,
          "durationTicks": 2,
          "midi": 42,
          "name": "F#2",
          "ticks": 29314,
          "time": 38.169270833333336,
          "velocity": 0.5826771653543307
        },
        {
          "duration": 0.0026041666666714036,
          "durationTicks": 2,
          "midi": 42,
          "name": "F#2",
          "ticks": 29414,
          "time": 38.299479166666664,
          "velocity": 0.49606299212598426
        },
        {
          "duration": 0.0078125,
          "durationTicks": 6,
          "midi": 40,
          "name": "E2",
          "ticks": 29516,
          "time": 38.432291666666664,
          "velocity": 0.6771653543307087
        },
        {
          "duration": 0.0078125,
          "durationTicks": 6,
          "midi": 38,
          "name": "D2",
          "ticks": 29516,
          "time": 38.432291666666664,
          "velocity": 0.984251968503937
        },
        {
          "duration": 0.0026041666666714036,
          "durationTicks": 2,
          "midi": 42,
          "name": "F#2",
          "ticks": 29714,
          "time": 38.690104166666664,
          "velocity": 0.5984251968503937
        },
        {
          "duration": 0.002604166666664298,
          "durationTicks": 2,
          "midi": 42,
          "name": "F#2",
          "ticks": 29812,
          "time": 38.817708333333336,
          "velocity": 0.3700787401574803
        },
        {
          "duration": 0.005208333333335702,
          "durationTicks": 4,
          "midi": 42,
          "name": "F#2",
          "ticks": 29912,
          "time": 38.947916666666664,
          "velocity": 0.12598425196850394
        },
        {
          "duration": 0.002604166666664298,
          "durationTicks": 2,
          "midi": 35,
          "name": "B1",
          "ticks": 29914,
          "time": 38.950520833333336,
          "velocity": 0.7716535433070866
        },
        {
          "duration": 0.002604166666664298,
          "durationTicks": 2,
          "midi": 35,
          "name": "B1",
          "ticks": 30112,
          "time": 39.208333333333336,
          "velocity": 0.8346456692913385
        },
        {
          "duration": 0.002604166666664298,
          "durationTicks": 2,
          "midi": 42,
          "name": "F#2",
          "ticks": 30112,
          "time": 39.208333333333336,
          "velocity": 0.6535433070866141
        },
        {
          "duration": 0.002604166666664298,
          "durationTicks": 2,
          "midi": 42,
          "name": "F#2",
          "ticks": 30208,
          "time": 39.333333333333336,
          "velocity": 0.3858267716535433
        },
        {
          "duration": 0.0078125,
          "durationTicks": 6,
          "midi": 38,
          "name": "D2",
          "ticks": 30310,
          "time": 39.466145833333336,
          "velocity": 0.9763779527559056
        },
        {
          "duration": 0.002604166666664298,
          "durationTicks": 2,
          "midi": 40,
          "name": "E2",
          "ticks": 30312,
          "time": 39.46875,
          "velocity": 0.6692913385826772
        },
        {
          "duration": 0.0078125,
          "durationTicks": 6,
          "midi": 42,
          "name": "F#2",
          "ticks": 30502,
          "time": 39.716145833333336,
          "velocity": 0.5275590551181102
        },
        {
          "duration": 0.002604166666664298,
          "durationTicks": 2,
          "midi": 42,
          "name": "F#2",
          "ticks": 30606,
          "time": 39.8515625,
          "velocity": 0.5275590551181102
        },
        {
          "duration": 0.002604166666664298,
          "durationTicks": 2,
          "midi": 35,
          "name": "B1",
          "ticks": 30706,
          "time": 39.981770833333336,
          "velocity": 0.8188976377952756
        },
        {
          "duration": 0.005208333333328596,
          "durationTicks": 4,
          "midi": 42,
          "name": "F#2",
          "ticks": 30706,
          "time": 39.981770833333336,
          "velocity": 0.30708661417322836
        },
        {
          "duration": 0.0078125,
          "durationTicks": 6,
          "midi": 42,
          "name": "F#2",
          "ticks": 30898,
          "time": 40.231770833333336,
          "velocity": 0.6141732283464567
        },
        {
          "duration": 0.002604166666664298,
          "durationTicks": 2,
          "midi": 35,
          "name": "B1",
          "ticks": 30904,
          "time": 40.239583333333336,
          "velocity": 0.8267716535433071
        },
        {
          "duration": 0.002604166666664298,
          "durationTicks": 2,
          "midi": 42,
          "name": "F#2",
          "ticks": 31000,
          "time": 40.364583333333336,
          "velocity": 0.3700787401574803
        },
        {
          "duration": 0.002604166666664298,
          "durationTicks": 2,
          "midi": 38,
          "name": "D2",
          "ticks": 31098,
          "time": 40.4921875,
          "velocity": 0.9763779527559056
        },
        {
          "duration": 0.0026041666666714036,
          "durationTicks": 2,
          "midi": 40,
          "name": "E2",
          "ticks": 31100,
          "time": 40.494791666666664,
          "velocity": 0.6692913385826772
        },
        {
          "duration": 0.0026041666666714036,
          "durationTicks": 2,
          "midi": 42,
          "name": "F#2",
          "ticks": 31298,
          "time": 40.752604166666664,
          "velocity": 0.5905511811023622
        },
        {
          "duration": 0.002604166666664298,
          "durationTicks": 2,
          "midi": 42,
          "name": "F#2",
          "ticks": 31396,
          "time": 40.880208333333336,
          "velocity": 0.41732283464566927
        },
        {
          "duration": 0.0078125,
          "durationTicks": 6,
          "midi": 35,
          "name": "B1",
          "ticks": 31492,
          "time": 41.005208333333336,
          "velocity": 0.8188976377952756
        },
        {
          "duration": 0.005208333333335702,
          "durationTicks": 4,
          "midi": 42,
          "name": "F#2",
          "ticks": 31500,
          "time": 41.015625,
          "velocity": 0.5905511811023622
        },
        {
          "duration": 0.002604166666664298,
          "durationTicks": 2,
          "midi": 35,
          "name": "B1",
          "ticks": 31696,
          "time": 41.270833333333336,
          "velocity": 0.8110236220472441
        },
        {
          "duration": 0.002604166666664298,
          "durationTicks": 2,
          "midi": 42,
          "name": "F#2",
          "ticks": 31698,
          "time": 41.2734375,
          "velocity": 0.5826771653543307
        },
        {
          "duration": 0.002604166666664298,
          "durationTicks": 2,
          "midi": 42,
          "name": "F#2",
          "ticks": 31894,
          "time": 41.528645833333336,
          "velocity": 0.48031496062992124
        },
        {
          "duration": 0.005208333333335702,
          "durationTicks": 4,
          "midi": 38,
          "name": "D2",
          "ticks": 31898,
          "time": 41.533854166666664,
          "velocity": 0.984251968503937
        },
        {
          "duration": 0.0026041666666714036,
          "durationTicks": 2,
          "midi": 40,
          "name": "E2",
          "ticks": 31898,
          "time": 41.533854166666664,
          "velocity": 0.6771653543307087
        },
        {
          "duration": 0.0078125,
          "durationTicks": 6,
          "midi": 46,
          "name": "A#2",
          "ticks": 32094,
          "time": 41.7890625,
          "velocity": 0.5748031496062992
        },
        {
          "duration": 0.0026041666666714036,
          "durationTicks": 2,
          "midi": 35,
          "name": "B1",
          "ticks": 32096,
          "time": 41.791666666666664,
          "velocity": 0.8346456692913385
        },
        {
          "duration": 0.002604166666664298,
          "durationTicks": 2,
          "midi": 42,
          "name": "F#2",
          "ticks": 32302,
          "time": 42.059895833333336,
          "velocity": 0.4881889763779528
        },
        {
          "duration": 0.005208333333335702,
          "durationTicks": 4,
          "midi": 42,
          "name": "F#2",
          "ticks": 32486,
          "time": 42.299479166666664,
          "velocity": 0.6062992125984252
        },
        {
          "duration": 0.0078125,
          "durationTicks": 6,
          "midi": 42,
          "name": "F#2",
          "ticks": 32584,
          "time": 42.427083333333336,
          "velocity": 0.5275590551181102
        },
        {
          "duration": 0.005208333333335702,
          "durationTicks": 4,
          "midi": 38,
          "name": "D2",
          "ticks": 32688,
          "time": 42.5625,
          "velocity": 0.9921259842519685
        },
        {
          "duration": 0.0026041666666714036,
          "durationTicks": 2,
          "midi": 40,
          "name": "E2",
          "ticks": 32690,
          "time": 42.565104166666664,
          "velocity": 0.6850393700787402
        },
        {
          "duration": 0.002604166666664298,
          "durationTicks": 2,
          "midi": 42,
          "name": "F#2",
          "ticks": 32884,
          "time": 42.817708333333336,
          "velocity": 0.5748031496062992
        },
        {
          "duration": 0.0026041666666714036,
          "durationTicks": 2,
          "midi": 42,
          "name": "F#2",
          "ticks": 32984,
          "time": 42.947916666666664,
          "velocity": 0.41732283464566927
        },
        {
          "duration": 0.002604166666664298,
          "durationTicks": 2,
          "midi": 35,
          "name": "B1",
          "ticks": 33082,
          "time": 43.075520833333336,
          "velocity": 0.8031496062992126
        },
        {
          "duration": 0.002604166666664298,
          "durationTicks": 2,
          "midi": 42,
          "name": "F#2",
          "ticks": 33082,
          "time": 43.075520833333336,
          "velocity": 0.12598425196850394
        },
        {
          "duration": 0.0078125,
          "durationTicks": 6,
          "midi": 42,
          "name": "F#2",
          "ticks": 33278,
          "time": 43.330729166666664,
          "velocity": 0.6141732283464567
        },
        {
          "duration": 0.005208333333328596,
          "durationTicks": 4,
          "midi": 35,
          "name": "B1",
          "ticks": 33280,
          "time": 43.333333333333336,
          "velocity": 0.8267716535433071
        },
        {
          "duration": 0.002604166666664298,
          "durationTicks": 2,
          "midi": 42,
          "name": "F#2",
          "ticks": 33376,
          "time": 43.458333333333336,
          "velocity": 0.3228346456692913
        },
        {
          "duration": 0.002604166666664298,
          "durationTicks": 2,
          "midi": 40,
          "name": "E2",
          "ticks": 33480,
          "time": 43.59375,
          "velocity": 0.6692913385826772
        },
        {
          "duration": 0.002604166666664298,
          "durationTicks": 2,
          "midi": 38,
          "name": "D2",
          "ticks": 33480,
          "time": 43.59375,
          "velocity": 0.9763779527559056
        },
        {
          "duration": 0.002604166666664298,
          "durationTicks": 2,
          "midi": 42,
          "name": "F#2",
          "ticks": 33676,
          "time": 43.848958333333336,
          "velocity": 0.5826771653543307
        },
        {
          "duration": 0.002604166666664298,
          "durationTicks": 2,
          "midi": 42,
          "name": "F#2",
          "ticks": 33774,
          "time": 43.9765625,
          "velocity": 0.3228346456692913
        },
        {
          "duration": 0.005208333333328596,
          "durationTicks": 4,
          "midi": 35,
          "name": "B1",
          "ticks": 33874,
          "time": 44.106770833333336,
          "velocity": 0.84251968503937
        },
        {
          "duration": 0.005208333333335702,
          "durationTicks": 4,
          "midi": 42,
          "name": "F#2",
          "ticks": 33878,
          "time": 44.111979166666664,
          "velocity": 0.5984251968503937
        },
        {
          "duration": 0.005208333333328596,
          "durationTicks": 4,
          "midi": 42,
          "name": "F#2",
          "ticks": 34072,
          "time": 44.364583333333336,
          "velocity": 0.5984251968503937
        },
        {
          "duration": 0.002604166666664298,
          "durationTicks": 2,
          "midi": 35,
          "name": "B1",
          "ticks": 34074,
          "time": 44.3671875,
          "velocity": 0.8346456692913385
        },
        {
          "duration": 0.002604166666664298,
          "durationTicks": 2,
          "midi": 42,
          "name": "F#2",
          "ticks": 34168,
          "time": 44.489583333333336,
          "velocity": 0.41732283464566927
        },
        {
          "duration": 0.005208333333335702,
          "durationTicks": 4,
          "midi": 38,
          "name": "D2",
          "ticks": 34268,
          "time": 44.619791666666664,
          "velocity": 0.9763779527559056
        },
        {
          "duration": 0.002604166666664298,
          "durationTicks": 2,
          "midi": 40,
          "name": "E2",
          "ticks": 34270,
          "time": 44.622395833333336,
          "velocity": 0.6692913385826772
        },
        {
          "duration": 0.002604166666664298,
          "durationTicks": 2,
          "midi": 42,
          "name": "F#2",
          "ticks": 34368,
          "time": 44.75,
          "velocity": 0.3700787401574803
        },
        {
          "duration": 0.002604166666664298,
          "durationTicks": 2,
          "midi": 42,
          "name": "F#2",
          "ticks": 34468,
          "time": 44.880208333333336,
          "velocity": 0.12598425196850394
        },
        {
          "duration": 0.002604166666664298,
          "durationTicks": 2,
          "midi": 42,
          "name": "F#2",
          "ticks": 34566,
          "time": 45.0078125,
          "velocity": 0.48031496062992124
        },
        {
          "duration": 0.010416666666664298,
          "durationTicks": 8,
          "midi": 42,
          "name": "F#2",
          "ticks": 34666,
          "time": 45.138020833333336,
          "velocity": 0.6141732283464567
        },
        {
          "duration": 0.0078125,
          "durationTicks": 6,
          "midi": 35,
          "name": "B1",
          "ticks": 34668,
          "time": 45.140625,
          "velocity": 0.8346456692913385
        },
        {
          "duration": 0.0078125,
          "durationTicks": 6,
          "midi": 42,
          "name": "F#2",
          "ticks": 34860,
          "time": 45.390625,
          "velocity": 0.5748031496062992
        },
        {
          "duration": 0.002604166666664298,
          "durationTicks": 2,
          "midi": 35,
          "name": "B1",
          "ticks": 34864,
          "time": 45.395833333333336,
          "velocity": 0.8188976377952756
        },
        {
          "duration": 0.002604166666664298,
          "durationTicks": 2,
          "midi": 42,
          "name": "F#2",
          "ticks": 34960,
          "time": 45.520833333333336,
          "velocity": 0.4645669291338583
        },
        {
          "duration": 0.005208333333328596,
          "durationTicks": 4,
          "midi": 40,
          "name": "E2",
          "ticks": 35062,
          "time": 45.653645833333336,
          "velocity": 0.6850393700787402
        },
        {
          "duration": 0.005208333333328596,
          "durationTicks": 4,
          "midi": 38,
          "name": "D2",
          "ticks": 35062,
          "time": 45.653645833333336,
          "velocity": 0.9921259842519685
        },
        {
          "duration": 0.0026041666666714036,
          "durationTicks": 2,
          "midi": 46,
          "name": "A#2",
          "ticks": 35240,
          "time": 45.885416666666664,
          "velocity": 0.5275590551181102
        },
        {
          "duration": 0.0026041666666714036,
          "durationTicks": 2,
          "midi": 35,
          "name": "B1",
          "ticks": 35258,
          "time": 45.908854166666664,
          "velocity": 0.8503937007874016
        },
        {
          "duration": 0.005208333333335702,
          "durationTicks": 4,
          "midi": 42,
          "name": "F#2",
          "ticks": 35454,
          "time": 46.1640625,
          "velocity": 0.4330708661417323
        },
        {
          "duration": 0.005208333333328596,
          "durationTicks": 4,
          "midi": 42,
          "name": "F#2",
          "ticks": 35650,
          "time": 46.419270833333336,
          "velocity": 0.5826771653543307
        },
        {
          "duration": 0.002604166666664298,
          "durationTicks": 2,
          "midi": 42,
          "name": "F#2",
          "ticks": 35748,
          "time": 46.546875,
          "velocity": 0.49606299212598426
        },
        {
          "duration": 0.005208333333335702,
          "durationTicks": 4,
          "midi": 38,
          "name": "D2",
          "ticks": 35850,
          "time": 46.6796875,
          "velocity": 0.9763779527559056
        },
        {
          "duration": 0.0026041666666714036,
          "durationTicks": 2,
          "midi": 40,
          "name": "E2",
          "ticks": 35852,
          "time": 46.682291666666664,
          "velocity": 0.6692913385826772
        },
        {
          "duration": 0.002604166666664298,
          "durationTicks": 2,
          "midi": 42,
          "name": "F#2",
          "ticks": 35950,
          "time": 46.809895833333336,
          "velocity": 0.3543307086614173
        },
        {
          "duration": 0.0026041666666714036,
          "durationTicks": 2,
          "midi": 42,
          "name": "F#2",
          "ticks": 36050,
          "time": 46.940104166666664,
          "velocity": 0.5433070866141733
        },
        {
          "duration": 0.005208333333328596,
          "durationTicks": 4,
          "midi": 42,
          "name": "F#2",
          "ticks": 36148,
          "time": 47.067708333333336,
          "velocity": 0.29133858267716534
        },
        {
          "duration": 0.005208333333328596,
          "durationTicks": 4,
          "midi": 35,
          "name": "B1",
          "ticks": 36250,
          "time": 47.200520833333336,
          "velocity": 0.84251968503937
        },
        {
          "duration": 0.005208333333328596,
          "durationTicks": 4,
          "midi": 42,
          "name": "F#2",
          "ticks": 36250,
          "time": 47.200520833333336,
          "velocity": 0.5275590551181102
        },
        {
          "duration": 0.010416666666671404,
          "durationTicks": 8,
          "midi": 42,
          "name": "F#2",
          "ticks": 36446,
          "time": 47.455729166666664,
          "velocity": 0.6614173228346457
        },
        {
          "duration": 0.005208333333328596,
          "durationTicks": 4,
          "midi": 35,
          "name": "B1",
          "ticks": 36448,
          "time": 47.458333333333336,
          "velocity": 0.8267716535433071
        },
        {
          "duration": 0.005208333333335702,
          "durationTicks": 4,
          "midi": 42,
          "name": "F#2",
          "ticks": 36542,
          "time": 47.580729166666664,
          "velocity": 0.3700787401574803
        },
        {
          "duration": 0.002604166666664298,
          "durationTicks": 2,
          "midi": 40,
          "name": "E2",
          "ticks": 36648,
          "time": 47.71875,
          "velocity": 0.6692913385826772
        },
        {
          "duration": 0.005208333333335702,
          "durationTicks": 4,
          "midi": 38,
          "name": "D2",
          "ticks": 36648,
          "time": 47.71875,
          "velocity": 0.9763779527559056
        },
        {
          "duration": 0.0026041666666714036,
          "durationTicks": 2,
          "midi": 42,
          "name": "F#2",
          "ticks": 36842,
          "time": 47.971354166666664,
          "velocity": 0.14173228346456693
        },
        {
          "duration": 0.002604166666664298,
          "durationTicks": 2,
          "midi": 42,
          "name": "F#2",
          "ticks": 36942,
          "time": 48.1015625,
          "velocity": 0.3543307086614173
        },
        {
          "duration": 0.010416666666664298,
          "durationTicks": 8,
          "midi": 42,
          "name": "F#2",
          "ticks": 37038,
          "time": 48.2265625,
          "velocity": 0.6141732283464567
        },
        {
          "duration": 0.0078125,
          "durationTicks": 6,
          "midi": 35,
          "name": "B1",
          "ticks": 37040,
          "time": 48.229166666666664,
          "velocity": 0.84251968503937
        },
        {
          "duration": 0.002604166666664298,
          "durationTicks": 2,
          "midi": 42,
          "name": "F#2",
          "ticks": 37240,
          "time": 48.489583333333336,
          "velocity": 0.5984251968503937
        },
        {
          "duration": 0.002604166666664298,
          "durationTicks": 2,
          "midi": 35,
          "name": "B1",
          "ticks": 37242,
          "time": 48.4921875,
          "velocity": 0.8188976377952756
        },
        {
          "duration": 0.0026041666666714036,
          "durationTicks": 2,
          "midi": 42,
          "name": "F#2",
          "ticks": 37334,
          "time": 48.611979166666664,
          "velocity": 0.41732283464566927
        },
        {
          "duration": 0.005208333333335702,
          "durationTicks": 4,
          "midi": 40,
          "name": "E2",
          "ticks": 37436,
          "time": 48.744791666666664,
          "velocity": 0.6692913385826772
        },
        {
          "duration": 0.005208333333335702,
          "durationTicks": 4,
          "midi": 38,
          "name": "D2",
          "ticks": 37436,
          "time": 48.744791666666664,
          "velocity": 0.9763779527559056
        },
        {
          "duration": 0.005208333333335702,
          "durationTicks": 4,
          "midi": 42,
          "name": "F#2",
          "ticks": 37532,
          "time": 48.869791666666664,
          "velocity": 0.12598425196850394
        },
        {
          "duration": 0.005208333333335702,
          "durationTicks": 4,
          "midi": 42,
          "name": "F#2",
          "ticks": 37632,
          "time": 49,
          "velocity": 0.5275590551181102
        },
        {
          "duration": 0.002604166666664298,
          "durationTicks": 2,
          "midi": 42,
          "name": "F#2",
          "ticks": 37734,
          "time": 49.1328125,
          "velocity": 0.5826771653543307
        },
        {
          "duration": 0.005208333333335702,
          "durationTicks": 4,
          "midi": 42,
          "name": "F#2",
          "ticks": 37838,
          "time": 49.268229166666664,
          "velocity": 0.44881889763779526
        },
        {
          "duration": 0.005208333333335702,
          "durationTicks": 4,
          "midi": 35,
          "name": "B1",
          "ticks": 37838,
          "time": 49.268229166666664,
          "velocity": 0.8582677165354331
        },
        {
          "duration": 0.002604166666664298,
          "durationTicks": 2,
          "midi": 35,
          "name": "B1",
          "ticks": 38032,
          "time": 49.520833333333336,
          "velocity": 0.8267716535433071
        },
        {
          "duration": 0.002604166666664298,
          "durationTicks": 2,
          "midi": 42,
          "name": "F#2",
          "ticks": 38032,
          "time": 49.520833333333336,
          "velocity": 0.5826771653543307
        },
        {
          "duration": 0.010416666666664298,
          "durationTicks": 8,
          "midi": 38,
          "name": "D2",
          "ticks": 38232,
          "time": 49.78125,
          "velocity": 0.984251968503937
        },
        {
          "duration": 0.005208333333335702,
          "durationTicks": 4,
          "midi": 40,
          "name": "E2",
          "ticks": 38234,
          "time": 49.783854166666664,
          "velocity": 0.6771653543307087
        },
        {
          "duration": 0.005208333333335702,
          "durationTicks": 4,
          "midi": 42,
          "name": "F#2",
          "ticks": 38234,
          "time": 49.783854166666664,
          "velocity": 0.3858267716535433
        },
        {
          "duration": 0.002604166666664298,
          "durationTicks": 2,
          "midi": 42,
          "name": "F#2",
          "ticks": 38326,
          "time": 49.903645833333336,
          "velocity": 0.12598425196850394
        },
        {
          "duration": 0.005208333333335702,
          "durationTicks": 4,
          "midi": 35,
          "name": "B1",
          "ticks": 38432,
          "time": 50.041666666666664,
          "velocity": 0.84251968503937
        },
        {
          "duration": 0.0026041666666714036,
          "durationTicks": 2,
          "midi": 46,
          "name": "A#2",
          "ticks": 38438,
          "time": 50.049479166666664,
          "velocity": 0.5118110236220472
        },
        {
          "duration": 0.005208333333335702,
          "durationTicks": 4,
          "midi": 42,
          "name": "F#2",
          "ticks": 38642,
          "time": 50.315104166666664,
          "velocity": 0.3858267716535433
        },
        {
          "duration": 0.002604166666664298,
          "durationTicks": 2,
          "midi": 42,
          "name": "F#2",
          "ticks": 38826,
          "time": 50.5546875,
          "velocity": 0.4015748031496063
        },
        {
          "duration": 0.002604166666664298,
          "durationTicks": 2,
          "midi": 42,
          "name": "F#2",
          "ticks": 38926,
          "time": 50.684895833333336,
          "velocity": 0.5433070866141733
        },
        {
          "duration": 0.0078125,
          "durationTicks": 6,
          "midi": 38,
          "name": "D2",
          "ticks": 39022,
          "time": 50.809895833333336,
          "velocity": 0.9921259842519685
        },
        {
          "duration": 0.002604166666664298,
          "durationTicks": 2,
          "midi": 40,
          "name": "E2",
          "ticks": 39024,
          "time": 50.8125,
          "velocity": 0.6850393700787402
        },
        {
          "duration": 0.002604166666664298,
          "durationTicks": 2,
          "midi": 42,
          "name": "F#2",
          "ticks": 39120,
          "time": 50.9375,
          "velocity": 0.5748031496062992
        },
        {
          "duration": 0.005208333333328596,
          "durationTicks": 4,
          "midi": 42,
          "name": "F#2",
          "ticks": 39220,
          "time": 51.067708333333336,
          "velocity": 0.4330708661417323
        },
        {
          "duration": 0.002604166666664298,
          "durationTicks": 2,
          "midi": 42,
          "name": "F#2",
          "ticks": 39318,
          "time": 51.1953125,
          "velocity": 0.5433070866141733
        },
        {
          "duration": 0.002604166666664298,
          "durationTicks": 2,
          "midi": 35,
          "name": "B1",
          "ticks": 39418,
          "time": 51.325520833333336,
          "velocity": 0.8346456692913385
        },
        {
          "duration": 0.005208333333328596,
          "durationTicks": 4,
          "midi": 42,
          "name": "F#2",
          "ticks": 39418,
          "time": 51.325520833333336,
          "velocity": 0.5433070866141733
        },
        {
          "duration": 0.0078125,
          "durationTicks": 6,
          "midi": 42,
          "name": "F#2",
          "ticks": 39612,
          "time": 51.578125,
          "velocity": 0.6377952755905512
        },
        {
          "duration": 0.002604166666664298,
          "durationTicks": 2,
          "midi": 35,
          "name": "B1",
          "ticks": 39618,
          "time": 51.5859375,
          "velocity": 0.8346456692913385
        },
        {
          "duration": 0.002604166666664298,
          "durationTicks": 2,
          "midi": 42,
          "name": "F#2",
          "ticks": 39714,
          "time": 51.7109375,
          "velocity": 0.4645669291338583
        },
        {
          "duration": 0.0078125,
          "durationTicks": 6,
          "midi": 38,
          "name": "D2",
          "ticks": 39818,
          "time": 51.846354166666664,
          "velocity": 0.984251968503937
        },
        {
          "duration": 0.005208333333328596,
          "durationTicks": 4,
          "midi": 40,
          "name": "E2",
          "ticks": 39820,
          "time": 51.848958333333336,
          "velocity": 0.6771653543307087
        },
        {
          "duration": 0.002604166666664298,
          "durationTicks": 2,
          "midi": 42,
          "name": "F#2",
          "ticks": 39822,
          "time": 51.8515625,
          "velocity": 0.3543307086614173
        },
        {
          "duration": 0.0026041666666714036,
          "durationTicks": 2,
          "midi": 42,
          "name": "F#2",
          "ticks": 39914,
          "time": 51.971354166666664,
          "velocity": 0.48031496062992124
        },
        {
          "duration": 0.002604166666664298,
          "durationTicks": 2,
          "midi": 42,
          "name": "F#2",
          "ticks": 40012,
          "time": 52.098958333333336,
          "velocity": 0.5118110236220472
        },
        {
          "duration": 0.005208333333335702,
          "durationTicks": 4,
          "midi": 42,
          "name": "F#2",
          "ticks": 40110,
          "time": 52.2265625,
          "velocity": 0.5984251968503937
        },
        {
          "duration": 0.010416666666664298,
          "durationTicks": 8,
          "midi": 35,
          "name": "B1",
          "ticks": 40216,
          "time": 52.364583333333336,
          "velocity": 0.8110236220472441
        },
        {
          "duration": 0.0026041666666714036,
          "durationTicks": 2,
          "midi": 42,
          "name": "F#2",
          "ticks": 40406,
          "time": 52.611979166666664,
          "velocity": 0.6062992125984252
        },
        {
          "duration": 0.002604166666664298,
          "durationTicks": 2,
          "midi": 35,
          "name": "B1",
          "ticks": 40410,
          "time": 52.6171875,
          "velocity": 0.8267716535433071
        },
        {
          "duration": 0.002604166666664298,
          "durationTicks": 2,
          "midi": 42,
          "name": "F#2",
          "ticks": 40504,
          "time": 52.739583333333336,
          "velocity": 0.4330708661417323
        },
        {
          "duration": 0.0078125,
          "durationTicks": 6,
          "midi": 38,
          "name": "D2",
          "ticks": 40604,
          "time": 52.869791666666664,
          "velocity": 0.9763779527559056
        },
        {
          "duration": 0.002604166666664298,
          "durationTicks": 2,
          "midi": 40,
          "name": "E2",
          "ticks": 40606,
          "time": 52.872395833333336,
          "velocity": 0.6692913385826772
        },
        {
          "duration": 0.002604166666664298,
          "durationTicks": 2,
          "midi": 42,
          "name": "F#2",
          "ticks": 40704,
          "time": 53,
          "velocity": 0.49606299212598426
        },
        {
          "duration": 0.002604166666664298,
          "durationTicks": 2,
          "midi": 42,
          "name": "F#2",
          "ticks": 40806,
          "time": 53.1328125,
          "velocity": 0.4645669291338583
        },
        {
          "duration": 0.0026041666666714036,
          "durationTicks": 2,
          "midi": 42,
          "name": "F#2",
          "ticks": 40904,
          "time": 53.260416666666664,
          "velocity": 0.5905511811023622
        },
        {
          "duration": 0.002604166666664298,
          "durationTicks": 2,
          "midi": 35,
          "name": "B1",
          "ticks": 41004,
          "time": 53.390625,
          "velocity": 0.84251968503937
        },
        {
          "duration": 0.0026041666666714036,
          "durationTicks": 2,
          "midi": 42,
          "name": "F#2",
          "ticks": 41006,
          "time": 53.393229166666664,
          "velocity": 0.5590551181102362
        },
        {
          "duration": 0.002604166666664298,
          "durationTicks": 2,
          "midi": 42,
          "name": "F#2",
          "ticks": 41202,
          "time": 53.6484375,
          "velocity": 0.6141732283464567
        },
        {
          "duration": 0.002604166666664298,
          "durationTicks": 2,
          "midi": 35,
          "name": "B1",
          "ticks": 41208,
          "time": 53.65625,
          "velocity": 0.8188976377952756
        },
        {
          "duration": 0.002604166666664298,
          "durationTicks": 2,
          "midi": 42,
          "name": "F#2",
          "ticks": 41400,
          "time": 53.90625,
          "velocity": 0.6141732283464567
        },
        {
          "duration": 0.002604166666664298,
          "durationTicks": 2,
          "midi": 38,
          "name": "D2",
          "ticks": 41404,
          "time": 53.911458333333336,
          "velocity": 0.984251968503937
        },
        {
          "duration": 0.002604166666664298,
          "durationTicks": 2,
          "midi": 40,
          "name": "E2",
          "ticks": 41406,
          "time": 53.9140625,
          "velocity": 0.6771653543307087
        },
        {
          "duration": 0.002604166666664298,
          "durationTicks": 2,
          "midi": 42,
          "name": "F#2",
          "ticks": 41494,
          "time": 54.028645833333336,
          "velocity": 0.5275590551181102
        },
        {
          "duration": 0.005208333333335702,
          "durationTicks": 4,
          "midi": 46,
          "name": "A#2",
          "ticks": 41576,
          "time": 54.135416666666664,
          "velocity": 0.6062992125984252
        },
        {
          "duration": 0.0026041666666714036,
          "durationTicks": 2,
          "midi": 35,
          "name": "B1",
          "ticks": 41606,
          "time": 54.174479166666664,
          "velocity": 0.8661417322834646
        },
        {
          "duration": 0.0026041666666714036,
          "durationTicks": 2,
          "midi": 52,
          "name": "E3",
          "ticks": 41606,
          "time": 54.174479166666664,
          "velocity": 0.5748031496062992
        },
        {
          "duration": 0.0026041666666714036,
          "durationTicks": 2,
          "midi": 49,
          "name": "C#3",
          "ticks": 41606,
          "time": 54.174479166666664,
          "velocity": 0.5984251968503937
        },
        {
          "duration": 0.002604166666664298,
          "durationTicks": 2,
          "midi": 42,
          "name": "F#2",
          "ticks": 41796,
          "time": 54.421875,
          "velocity": 0.4645669291338583
        },
        {
          "duration": 0.005208333333328596,
          "durationTicks": 4,
          "midi": 51,
          "name": "D#3",
          "ticks": 41992,
          "time": 54.677083333333336,
          "velocity": 0.4094488188976378
        },
        {
          "duration": 0.002604166666664298,
          "durationTicks": 2,
          "midi": 42,
          "name": "F#2",
          "ticks": 41994,
          "time": 54.6796875,
          "velocity": 0.6141732283464567
        },
        {
          "duration": 0.005208333333335702,
          "durationTicks": 4,
          "midi": 38,
          "name": "D2",
          "ticks": 42192,
          "time": 54.9375,
          "velocity": 0.984251968503937
        },
        {
          "duration": 0.0026041666666714036,
          "durationTicks": 2,
          "midi": 40,
          "name": "E2",
          "ticks": 42194,
          "time": 54.940104166666664,
          "velocity": 0.905511811023622
        },
        {
          "duration": 0.010416666666664298,
          "durationTicks": 8,
          "midi": 51,
          "name": "D#3",
          "ticks": 42196,
          "time": 54.942708333333336,
          "velocity": 0.4015748031496063
        },
        {
          "duration": 0.0078125,
          "durationTicks": 6,
          "midi": 42,
          "name": "F#2",
          "ticks": 42198,
          "time": 54.9453125,
          "velocity": 0.5826771653543307
        },
        {
          "duration": 0.010416666666671404,
          "durationTicks": 8,
          "midi": 51,
          "name": "D#3",
          "ticks": 42290,
          "time": 55.065104166666664,
          "velocity": 0.33070866141732286
        },
        {
          "duration": 0.0078125,
          "durationTicks": 6,
          "midi": 42,
          "name": "F#2",
          "ticks": 42292,
          "time": 55.067708333333336,
          "velocity": 0.33858267716535434
        },
        {
          "duration": 0.0026041666666714036,
          "durationTicks": 2,
          "midi": 42,
          "name": "F#2",
          "ticks": 42392,
          "time": 55.197916666666664,
          "velocity": 0.44881889763779526
        },
        {
          "duration": 0.005208333333335702,
          "durationTicks": 4,
          "midi": 51,
          "name": "D#3",
          "ticks": 42392,
          "time": 55.197916666666664,
          "velocity": 0.36220472440944884
        },
        {
          "duration": 0.0026041666666714036,
          "durationTicks": 2,
          "midi": 42,
          "name": "F#2",
          "ticks": 42488,
          "time": 55.322916666666664,
          "velocity": 0.33858267716535434
        },
        {
          "duration": 0.0026041666666714036,
          "durationTicks": 2,
          "midi": 51,
          "name": "D#3",
          "ticks": 42488,
          "time": 55.322916666666664,
          "velocity": 0.33070866141732286
        },
        {
          "duration": 0.013020833333335702,
          "durationTicks": 10,
          "midi": 51,
          "name": "D#3",
          "ticks": 42590,
          "time": 55.455729166666664,
          "velocity": 0.4015748031496063
        },
        {
          "duration": 0.010416666666664298,
          "durationTicks": 8,
          "midi": 35,
          "name": "B1",
          "ticks": 42592,
          "time": 55.458333333333336,
          "velocity": 0.8188976377952756
        },
        {
          "duration": 0.010416666666664298,
          "durationTicks": 8,
          "midi": 42,
          "name": "F#2",
          "ticks": 42592,
          "time": 55.458333333333336,
          "velocity": 0.5826771653543307
        },
        {
          "duration": 0.010416666666664298,
          "durationTicks": 8,
          "midi": 42,
          "name": "F#2",
          "ticks": 42790,
          "time": 55.716145833333336,
          "velocity": 0.5275590551181102
        },
        {
          "duration": 0.010416666666664298,
          "durationTicks": 8,
          "midi": 51,
          "name": "D#3",
          "ticks": 42790,
          "time": 55.716145833333336,
          "velocity": 0.3858267716535433
        },
        {
          "duration": 0.005208333333335702,
          "durationTicks": 4,
          "midi": 35,
          "name": "B1",
          "ticks": 42792,
          "time": 55.71875,
          "velocity": 0.8267716535433071
        },
        {
          "duration": 0.005208333333335702,
          "durationTicks": 4,
          "midi": 40,
          "name": "E2",
          "ticks": 42984,
          "time": 55.96875,
          "velocity": 0.8740157480314961
        },
        {
          "duration": 0.0078125,
          "durationTicks": 6,
          "midi": 38,
          "name": "D2",
          "ticks": 42984,
          "time": 55.96875,
          "velocity": 0.952755905511811
        },
        {
          "duration": 0.002604166666664298,
          "durationTicks": 2,
          "midi": 42,
          "name": "F#2",
          "ticks": 42990,
          "time": 55.9765625,
          "velocity": 0.3228346456692913
        },
        {
          "duration": 0.002604166666664298,
          "durationTicks": 2,
          "midi": 51,
          "name": "D#3",
          "ticks": 42990,
          "time": 55.9765625,
          "velocity": 0.33070866141732286
        },
        {
          "duration": 0.002604166666664298,
          "durationTicks": 2,
          "midi": 42,
          "name": "F#2",
          "ticks": 43188,
          "time": 56.234375,
          "velocity": 0.5433070866141733
        },
        {
          "duration": 0.002604166666664298,
          "durationTicks": 2,
          "midi": 51,
          "name": "D#3",
          "ticks": 43188,
          "time": 56.234375,
          "velocity": 0.3858267716535433
        },
        {
          "duration": 0.0078125,
          "durationTicks": 6,
          "midi": 51,
          "name": "D#3",
          "ticks": 43286,
          "time": 56.361979166666664,
          "velocity": 0.33070866141732286
        },
        {
          "duration": 0.005208333333335702,
          "durationTicks": 4,
          "midi": 42,
          "name": "F#2",
          "ticks": 43286,
          "time": 56.361979166666664,
          "velocity": 0.33858267716535434
        },
        {
          "duration": 0.018229166666664298,
          "durationTicks": 14,
          "midi": 51,
          "name": "D#3",
          "ticks": 43386,
          "time": 56.4921875,
          "velocity": 0.4015748031496063
        },
        {
          "duration": 0.013020833333335702,
          "durationTicks": 10,
          "midi": 35,
          "name": "B1",
          "ticks": 43388,
          "time": 56.494791666666664,
          "velocity": 0.8503937007874016
        },
        {
          "duration": 0.015625,
          "durationTicks": 12,
          "midi": 42,
          "name": "F#2",
          "ticks": 43388,
          "time": 56.494791666666664,
          "velocity": 0.5826771653543307
        },
        {
          "duration": 0.0078125,
          "durationTicks": 6,
          "midi": 51,
          "name": "D#3",
          "ticks": 43582,
          "time": 56.747395833333336,
          "velocity": 0.36220472440944884
        },
        {
          "duration": 0.005208333333335702,
          "durationTicks": 4,
          "midi": 42,
          "name": "F#2",
          "ticks": 43584,
          "time": 56.75,
          "velocity": 0.44881889763779526
        },
        {
          "duration": 0.0026041666666714036,
          "durationTicks": 2,
          "midi": 35,
          "name": "B1",
          "ticks": 43592,
          "time": 56.760416666666664,
          "velocity": 0.84251968503937
        },
        {
          "duration": 0.002604166666664298,
          "durationTicks": 2,
          "midi": 40,
          "name": "E2",
          "ticks": 43782,
          "time": 57.0078125,
          "velocity": 0.8976377952755905
        },
        {
          "duration": 0.002604166666664298,
          "durationTicks": 2,
          "midi": 38,
          "name": "D2",
          "ticks": 43782,
          "time": 57.0078125,
          "velocity": 0.9763779527559056
        },
        {
          "duration": 0.002604166666664298,
          "durationTicks": 2,
          "midi": 42,
          "name": "F#2",
          "ticks": 43980,
          "time": 57.265625,
          "velocity": 0.5118110236220472
        },
        {
          "duration": 0.005208333333335702,
          "durationTicks": 4,
          "midi": 51,
          "name": "D#3",
          "ticks": 43980,
          "time": 57.265625,
          "velocity": 0.3779527559055118
        },
        {
          "duration": 0.010416666666664298,
          "durationTicks": 8,
          "midi": 51,
          "name": "D#3",
          "ticks": 44074,
          "time": 57.388020833333336,
          "velocity": 0.33858267716535434
        },
        {
          "duration": 0.0026041666666714036,
          "durationTicks": 2,
          "midi": 42,
          "name": "F#2",
          "ticks": 44078,
          "time": 57.393229166666664,
          "velocity": 0.3543307086614173
        },
        {
          "duration": 0.005208333333335702,
          "durationTicks": 4,
          "midi": 42,
          "name": "F#2",
          "ticks": 44180,
          "time": 57.526041666666664,
          "velocity": 0.48031496062992124
        },
        {
          "duration": 0.005208333333335702,
          "durationTicks": 4,
          "midi": 51,
          "name": "D#3",
          "ticks": 44180,
          "time": 57.526041666666664,
          "velocity": 0.3700787401574803
        },
        {
          "duration": 0.005208333333335702,
          "durationTicks": 4,
          "midi": 35,
          "name": "B1",
          "ticks": 44190,
          "time": 57.5390625,
          "velocity": 0.8503937007874016
        },
        {
          "duration": 0.005208333333328596,
          "durationTicks": 4,
          "midi": 51,
          "name": "D#3",
          "ticks": 44272,
          "time": 57.645833333333336,
          "velocity": 0.33070866141732286
        },
        {
          "duration": 0.002604166666664298,
          "durationTicks": 2,
          "midi": 42,
          "name": "F#2",
          "ticks": 44274,
          "time": 57.6484375,
          "velocity": 0.33858267716535434
        },
        {
          "duration": 0.0078125,
          "durationTicks": 6,
          "midi": 42,
          "name": "F#2",
          "ticks": 44374,
          "time": 57.778645833333336,
          "velocity": 0.5433070866141733
        },
        {
          "duration": 0.0078125,
          "durationTicks": 6,
          "midi": 51,
          "name": "D#3",
          "ticks": 44374,
          "time": 57.778645833333336,
          "velocity": 0.3858267716535433
        },
        {
          "duration": 0.0026041666666714036,
          "durationTicks": 2,
          "midi": 35,
          "name": "B1",
          "ticks": 44384,
          "time": 57.791666666666664,
          "velocity": 0.8267716535433071
        },
        {
          "duration": 0.005208333333335702,
          "durationTicks": 4,
          "midi": 40,
          "name": "E2",
          "ticks": 44574,
          "time": 58.0390625,
          "velocity": 0.905511811023622
        },
        {
          "duration": 0.005208333333335702,
          "durationTicks": 4,
          "midi": 38,
          "name": "D2",
          "ticks": 44574,
          "time": 58.0390625,
          "velocity": 0.984251968503937
        },
        {
          "duration": 0.0026041666666714036,
          "durationTicks": 2,
          "midi": 42,
          "name": "F#2",
          "ticks": 44576,
          "time": 58.041666666666664,
          "velocity": 0.44881889763779526
        },
        {
          "duration": 0.0026041666666714036,
          "durationTicks": 2,
          "midi": 51,
          "name": "D#3",
          "ticks": 44576,
          "time": 58.041666666666664,
          "velocity": 0.36220472440944884
        },
        {
          "duration": 0.0078125,
          "durationTicks": 6,
          "midi": 35,
          "name": "B1",
          "ticks": 44776,
          "time": 58.302083333333336,
          "velocity": 0.8582677165354331
        },
        {
          "duration": 0.0078125,
          "durationTicks": 6,
          "midi": 46,
          "name": "A#2",
          "ticks": 44776,
          "time": 58.302083333333336,
          "velocity": 0.4645669291338583
        },
        {
          "duration": 0.005208333333335702,
          "durationTicks": 4,
          "midi": 51,
          "name": "D#3",
          "ticks": 44784,
          "time": 58.3125,
          "velocity": 0.31496062992125984
        },
        {
          "duration": 0.0078125,
          "durationTicks": 6,
          "midi": 51,
          "name": "D#3",
          "ticks": 44966,
          "time": 58.549479166666664,
          "velocity": 0.3228346456692913
        },
        {
          "duration": 0.002604166666664298,
          "durationTicks": 2,
          "midi": 42,
          "name": "F#2",
          "ticks": 44970,
          "time": 58.5546875,
          "velocity": 0.44881889763779526
        },
        {
          "duration": 0.005208333333328596,
          "durationTicks": 4,
          "midi": 49,
          "name": "C#3",
          "ticks": 44974,
          "time": 58.559895833333336,
          "velocity": 0.4881889763779528
        },
        {
          "duration": 0.002604166666664298,
          "durationTicks": 2,
          "midi": 52,
          "name": "E3",
          "ticks": 44974,
          "time": 58.559895833333336,
          "velocity": 0.4645669291338583
        },
        {
          "duration": 0.005208333333335702,
          "durationTicks": 4,
          "midi": 51,
          "name": "D#3",
          "ticks": 45170,
          "time": 58.815104166666664,
          "velocity": 0.3937007874015748
        },
        {
          "duration": 0.002604166666664298,
          "durationTicks": 2,
          "midi": 42,
          "name": "F#2",
          "ticks": 45172,
          "time": 58.817708333333336,
          "velocity": 0.5669291338582677
        },
        {
          "duration": 0.002604166666664298,
          "durationTicks": 2,
          "midi": 38,
          "name": "D2",
          "ticks": 45366,
          "time": 59.0703125,
          "velocity": 0.984251968503937
        },
        {
          "duration": 0.0026041666666714036,
          "durationTicks": 2,
          "midi": 40,
          "name": "E2",
          "ticks": 45368,
          "time": 59.072916666666664,
          "velocity": 0.905511811023622
        },
        {
          "duration": 0.002604166666664298,
          "durationTicks": 2,
          "midi": 42,
          "name": "F#2",
          "ticks": 45372,
          "time": 59.078125,
          "velocity": 0.6062992125984252
        },
        {
          "duration": 0.002604166666664298,
          "durationTicks": 2,
          "midi": 51,
          "name": "D#3",
          "ticks": 45372,
          "time": 59.078125,
          "velocity": 0.4094488188976378
        },
        {
          "duration": 0.005208333333335702,
          "durationTicks": 4,
          "midi": 42,
          "name": "F#2",
          "ticks": 45464,
          "time": 59.197916666666664,
          "velocity": 0.33858267716535434
        },
        {
          "duration": 0.005208333333335702,
          "durationTicks": 4,
          "midi": 51,
          "name": "D#3",
          "ticks": 45464,
          "time": 59.197916666666664,
          "velocity": 0.33070866141732286
        },
        {
          "duration": 0.0026041666666714036,
          "durationTicks": 2,
          "midi": 42,
          "name": "F#2",
          "ticks": 45566,
          "time": 59.330729166666664,
          "velocity": 0.49606299212598426
        },
        {
          "duration": 0.0026041666666714036,
          "durationTicks": 2,
          "midi": 51,
          "name": "D#3",
          "ticks": 45566,
          "time": 59.330729166666664,
          "velocity": 0.3700787401574803
        },
        {
          "duration": 0.002604166666664298,
          "durationTicks": 2,
          "midi": 42,
          "name": "F#2",
          "ticks": 45666,
          "time": 59.4609375,
          "velocity": 0.4330708661417323
        },
        {
          "duration": 0.005208333333335702,
          "durationTicks": 4,
          "midi": 51,
          "name": "D#3",
          "ticks": 45666,
          "time": 59.4609375,
          "velocity": 0.36220472440944884
        },
        {
          "duration": 0.010416666666664298,
          "durationTicks": 8,
          "midi": 51,
          "name": "D#3",
          "ticks": 45766,
          "time": 59.591145833333336,
          "velocity": 0.3937007874015748
        },
        {
          "duration": 0.005208333333335702,
          "durationTicks": 4,
          "midi": 42,
          "name": "F#2",
          "ticks": 45768,
          "time": 59.59375,
          "velocity": 0.5669291338582677
        },
        {
          "duration": 0.0026041666666714036,
          "durationTicks": 2,
          "midi": 35,
          "name": "B1",
          "ticks": 45770,
          "time": 59.596354166666664,
          "velocity": 0.8503937007874016
        },
        {
          "duration": 0.002604166666664298,
          "durationTicks": 2,
          "midi": 42,
          "name": "F#2",
          "ticks": 45964,
          "time": 59.848958333333336,
          "velocity": 0.5669291338582677
        },
        {
          "duration": 0.002604166666664298,
          "durationTicks": 2,
          "midi": 51,
          "name": "D#3",
          "ticks": 45964,
          "time": 59.848958333333336,
          "velocity": 0.3937007874015748
        },
        {
          "duration": 0.005208333333335702,
          "durationTicks": 4,
          "midi": 35,
          "name": "B1",
          "ticks": 45968,
          "time": 59.854166666666664,
          "velocity": 0.8267716535433071
        },
        {
          "duration": 0.0026041666666714036,
          "durationTicks": 2,
          "midi": 51,
          "name": "D#3",
          "ticks": 46160,
          "time": 60.104166666666664,
          "velocity": 0.33858267716535434
        },
        {
          "duration": 0.0026041666666714036,
          "durationTicks": 2,
          "midi": 40,
          "name": "E2",
          "ticks": 46160,
          "time": 60.104166666666664,
          "velocity": 0.905511811023622
        },
        {
          "duration": 0.0026041666666714036,
          "durationTicks": 2,
          "midi": 38,
          "name": "D2",
          "ticks": 46160,
          "time": 60.104166666666664,
          "velocity": 0.984251968503937
        },
        {
          "duration": 0.002604166666664298,
          "durationTicks": 2,
          "midi": 42,
          "name": "F#2",
          "ticks": 46162,
          "time": 60.106770833333336,
          "velocity": 0.3700787401574803
        },
        {
          "duration": 0.005208333333335702,
          "durationTicks": 4,
          "midi": 51,
          "name": "D#3",
          "ticks": 46358,
          "time": 60.361979166666664,
          "velocity": 0.3779527559055118
        },
        {
          "duration": 0.002604166666664298,
          "durationTicks": 2,
          "midi": 42,
          "name": "F#2",
          "ticks": 46360,
          "time": 60.364583333333336,
          "velocity": 0.5118110236220472
        },
        {
          "duration": 0.005208333333335702,
          "durationTicks": 4,
          "midi": 51,
          "name": "D#3",
          "ticks": 46458,
          "time": 60.4921875,
          "velocity": 0.33070866141732286
        },
        {
          "duration": 0.005208333333335702,
          "durationTicks": 4,
          "midi": 42,
          "name": "F#2",
          "ticks": 46458,
          "time": 60.4921875,
          "velocity": 0.3228346456692913
        },
        {
          "duration": 0.0078125,
          "durationTicks": 6,
          "midi": 51,
          "name": "D#3",
          "ticks": 46558,
          "time": 60.622395833333336,
          "velocity": 0.4015748031496063
        },
        {
          "duration": 0.005208333333335702,
          "durationTicks": 4,
          "midi": 42,
          "name": "F#2",
          "ticks": 46560,
          "time": 60.625,
          "velocity": 0.5905511811023622
        },
        {
          "duration": 0.0078125,
          "durationTicks": 6,
          "midi": 35,
          "name": "B1",
          "ticks": 46566,
          "time": 60.6328125,
          "velocity": 0.8346456692913385
        },
        {
          "duration": 0.0078125,
          "durationTicks": 6,
          "midi": 51,
          "name": "D#3",
          "ticks": 46754,
          "time": 60.877604166666664,
          "velocity": 0.3937007874015748
        },
        {
          "duration": 0.005208333333328596,
          "durationTicks": 4,
          "midi": 42,
          "name": "F#2",
          "ticks": 46756,
          "time": 60.880208333333336,
          "velocity": 0.5669291338582677
        },
        {
          "duration": 0.002604166666664298,
          "durationTicks": 2,
          "midi": 35,
          "name": "B1",
          "ticks": 46762,
          "time": 60.888020833333336,
          "velocity": 0.8346456692913385
        },
        {
          "duration": 0.0026041666666714036,
          "durationTicks": 2,
          "midi": 40,
          "name": "E2",
          "ticks": 46952,
          "time": 61.135416666666664,
          "velocity": 0.9133858267716536
        },
        {
          "duration": 0.0026041666666714036,
          "durationTicks": 2,
          "midi": 38,
          "name": "D2",
          "ticks": 46952,
          "time": 61.135416666666664,
          "velocity": 0.9921259842519685
        },
        {
          "duration": 0.0026041666666714036,
          "durationTicks": 2,
          "midi": 51,
          "name": "D#3",
          "ticks": 47150,
          "time": 61.393229166666664,
          "velocity": 0.4015748031496063
        },
        {
          "duration": 0.0026041666666714036,
          "durationTicks": 2,
          "midi": 42,
          "name": "F#2",
          "ticks": 47150,
          "time": 61.393229166666664,
          "velocity": 0.5984251968503937
        },
        {
          "duration": 0.0078125,
          "durationTicks": 6,
          "midi": 51,
          "name": "D#3",
          "ticks": 47248,
          "time": 61.520833333333336,
          "velocity": 0.3228346456692913
        },
        {
          "duration": 0.005208333333335702,
          "durationTicks": 4,
          "midi": 42,
          "name": "F#2",
          "ticks": 47250,
          "time": 61.5234375,
          "velocity": 0.30708661417322836
        },
        {
          "duration": 0.010416666666664298,
          "durationTicks": 8,
          "midi": 51,
          "name": "D#3",
          "ticks": 47352,
          "time": 61.65625,
          "velocity": 0.3937007874015748
        },
        {
          "duration": 0.005208333333335702,
          "durationTicks": 4,
          "midi": 42,
          "name": "F#2",
          "ticks": 47354,
          "time": 61.658854166666664,
          "velocity": 0.5669291338582677
        },
        {
          "duration": 0.002604166666664298,
          "durationTicks": 2,
          "midi": 35,
          "name": "B1",
          "ticks": 47362,
          "time": 61.669270833333336,
          "velocity": 0.8503937007874016
        },
        {
          "duration": 0.002604166666664298,
          "durationTicks": 2,
          "midi": 42,
          "name": "F#2",
          "ticks": 47446,
          "time": 61.778645833333336,
          "velocity": 0.3228346456692913
        },
        {
          "duration": 0.002604166666664298,
          "durationTicks": 2,
          "midi": 51,
          "name": "D#3",
          "ticks": 47446,
          "time": 61.778645833333336,
          "velocity": 0.33070866141732286
        },
        {
          "duration": 0.0078125,
          "durationTicks": 6,
          "midi": 42,
          "name": "F#2",
          "ticks": 47546,
          "time": 61.908854166666664,
          "velocity": 0.48031496062992124
        },
        {
          "duration": 0.010416666666671404,
          "durationTicks": 8,
          "midi": 51,
          "name": "D#3",
          "ticks": 47546,
          "time": 61.908854166666664,
          "velocity": 0.3700787401574803
        },
        {
          "duration": 0.002604166666664298,
          "durationTicks": 2,
          "midi": 35,
          "name": "B1",
          "ticks": 47554,
          "time": 61.919270833333336,
          "velocity": 0.8267716535433071
        },
        {
          "duration": 0.010416666666671404,
          "durationTicks": 8,
          "midi": 38,
          "name": "D2",
          "ticks": 47744,
          "time": 62.166666666666664,
          "velocity": 0.984251968503937
        },
        {
          "duration": 0.0078125,
          "durationTicks": 6,
          "midi": 40,
          "name": "E2",
          "ticks": 47746,
          "time": 62.169270833333336,
          "velocity": 0.905511811023622
        },
        {
          "duration": 0.0078125,
          "durationTicks": 6,
          "midi": 51,
          "name": "D#3",
          "ticks": 47746,
          "time": 62.169270833333336,
          "velocity": 0.33858267716535434
        },
        {
          "duration": 0.002604166666664298,
          "durationTicks": 2,
          "midi": 42,
          "name": "F#2",
          "ticks": 47748,
          "time": 62.171875,
          "velocity": 0.3700787401574803
        },
        {
          "duration": 0.015625,
          "durationTicks": 12,
          "midi": 51,
          "name": "D#3",
          "ticks": 47944,
          "time": 62.427083333333336,
          "velocity": 0.33858267716535434
        },
        {
          "duration": 0.010416666666664298,
          "durationTicks": 8,
          "midi": 46,
          "name": "A#2",
          "ticks": 47946,
          "time": 62.4296875,
          "velocity": 0.5590551181102362
        },
        {
          "duration": 0.0078125,
          "durationTicks": 6,
          "midi": 35,
          "name": "B1",
          "ticks": 47956,
          "time": 62.442708333333336,
          "velocity": 0.8582677165354331
        },
        {
          "duration": 0.005208333333335702,
          "durationTicks": 4,
          "midi": 51,
          "name": "D#3",
          "ticks": 48138,
          "time": 62.6796875,
          "velocity": 0.33070866141732286
        },
        {
          "duration": 0.0026041666666714036,
          "durationTicks": 2,
          "midi": 42,
          "name": "F#2",
          "ticks": 48140,
          "time": 62.682291666666664,
          "velocity": 0.48031496062992124
        },
        {
          "duration": 0.005208333333335702,
          "durationTicks": 4,
          "midi": 42,
          "name": "F#2",
          "ticks": 48338,
          "time": 62.940104166666664,
          "velocity": 0.6141732283464567
        },
        {
          "duration": 0.0078125,
          "durationTicks": 6,
          "midi": 51,
          "name": "D#3",
          "ticks": 48338,
          "time": 62.940104166666664,
          "velocity": 0.4094488188976378
        },
        {
          "duration": 0.010416666666671404,
          "durationTicks": 8,
          "midi": 38,
          "name": "D2",
          "ticks": 48530,
          "time": 63.190104166666664,
          "velocity": 1
        },
        {
          "duration": 0.0026041666666714036,
          "durationTicks": 2,
          "midi": 40,
          "name": "E2",
          "ticks": 48536,
          "time": 63.197916666666664,
          "velocity": 0.9212598425196851
        },
        {
          "duration": 0.005208333333335702,
          "durationTicks": 4,
          "midi": 51,
          "name": "D#3",
          "ticks": 48540,
          "time": 63.203125,
          "velocity": 0.4015748031496063
        },
        {
          "duration": 0.002604166666664298,
          "durationTicks": 2,
          "midi": 42,
          "name": "F#2",
          "ticks": 48540,
          "time": 63.203125,
          "velocity": 0.5826771653543307
        },
        {
          "duration": 0.0078125,
          "durationTicks": 6,
          "midi": 42,
          "name": "F#2",
          "ticks": 48634,
          "time": 63.325520833333336,
          "velocity": 0.33858267716535434
        },
        {
          "duration": 0.0078125,
          "durationTicks": 6,
          "midi": 51,
          "name": "D#3",
          "ticks": 48634,
          "time": 63.325520833333336,
          "velocity": 0.33070866141732286
        },
        {
          "duration": 0.0078125,
          "durationTicks": 6,
          "midi": 51,
          "name": "D#3",
          "ticks": 48732,
          "time": 63.453125,
          "velocity": 0.36220472440944884
        },
        {
          "duration": 0.005208333333335702,
          "durationTicks": 4,
          "midi": 42,
          "name": "F#2",
          "ticks": 48734,
          "time": 63.455729166666664,
          "velocity": 0.44881889763779526
        },
        {
          "duration": 0.010416666666664298,
          "durationTicks": 8,
          "midi": 51,
          "name": "D#3",
          "ticks": 48826,
          "time": 63.575520833333336,
          "velocity": 0.33070866141732286
        },
        {
          "duration": 0.0078125,
          "durationTicks": 6,
          "midi": 42,
          "name": "F#2",
          "ticks": 48828,
          "time": 63.578125,
          "velocity": 0.33858267716535434
        },
        {
          "duration": 0.010416666666664298,
          "durationTicks": 8,
          "midi": 51,
          "name": "D#3",
          "ticks": 48930,
          "time": 63.7109375,
          "velocity": 0.4015748031496063
        },
        {
          "duration": 0.005208333333328596,
          "durationTicks": 4,
          "midi": 42,
          "name": "F#2",
          "ticks": 48934,
          "time": 63.716145833333336,
          "velocity": 0.5826771653543307
        },
        {
          "duration": 0.005208333333335702,
          "durationTicks": 4,
          "midi": 35,
          "name": "B1",
          "ticks": 48942,
          "time": 63.7265625,
          "velocity": 0.8188976377952756
        },
        {
          "duration": 0.0078125,
          "durationTicks": 6,
          "midi": 42,
          "name": "F#2",
          "ticks": 49132,
          "time": 63.973958333333336,
          "velocity": 0.5275590551181102
        },
        {
          "duration": 0.0078125,
          "durationTicks": 6,
          "midi": 51,
          "name": "D#3",
          "ticks": 49132,
          "time": 63.973958333333336,
          "velocity": 0.3858267716535433
        },
        {
          "duration": 0.002604166666664298,
          "durationTicks": 2,
          "midi": 35,
          "name": "B1",
          "ticks": 49138,
          "time": 63.981770833333336,
          "velocity": 0.8267716535433071
        },
        {
          "duration": 0.0078125,
          "durationTicks": 6,
          "midi": 38,
          "name": "D2",
          "ticks": 49330,
          "time": 64.23177083333333,
          "velocity": 0.9763779527559056
        },
        {
          "duration": 0.005208333333328596,
          "durationTicks": 4,
          "midi": 40,
          "name": "E2",
          "ticks": 49332,
          "time": 64.234375,
          "velocity": 0.8976377952755905
        },
        {
          "duration": 0.005208333333328596,
          "durationTicks": 4,
          "midi": 51,
          "name": "D#3",
          "ticks": 49334,
          "time": 64.23697916666667,
          "velocity": 0.33070866141732286
        },
        {
          "duration": 0.0026041666666571928,
          "durationTicks": 2,
          "midi": 42,
          "name": "F#2",
          "ticks": 49334,
          "time": 64.23697916666667,
          "velocity": 0.3228346456692913
        },
        {
          "duration": 0.0026041666666714036,
          "durationTicks": 2,
          "midi": 42,
          "name": "F#2",
          "ticks": 49530,
          "time": 64.4921875,
          "velocity": 0.5433070866141733
        },
        {
          "duration": 0.0026041666666714036,
          "durationTicks": 2,
          "midi": 51,
          "name": "D#3",
          "ticks": 49530,
          "time": 64.4921875,
          "velocity": 0.3858267716535433
        },
        {
          "duration": 0.0078125,
          "durationTicks": 6,
          "midi": 51,
          "name": "D#3",
          "ticks": 49626,
          "time": 64.6171875,
          "velocity": 0.33070866141732286
        },
        {
          "duration": 0.005208333333328596,
          "durationTicks": 4,
          "midi": 42,
          "name": "F#2",
          "ticks": 49628,
          "time": 64.61979166666667,
          "velocity": 0.33858267716535434
        },
        {
          "duration": 0.005208333333328596,
          "durationTicks": 4,
          "midi": 51,
          "name": "D#3",
          "ticks": 49728,
          "time": 64.75,
          "velocity": 0.4015748031496063
        },
        {
          "duration": 0.0026041666666571928,
          "durationTicks": 2,
          "midi": 42,
          "name": "F#2",
          "ticks": 49730,
          "time": 64.75260416666667,
          "velocity": 0.5826771653543307
        },
        {
          "duration": 0.013020833333342807,
          "durationTicks": 10,
          "midi": 35,
          "name": "B1",
          "ticks": 49732,
          "time": 64.75520833333333,
          "velocity": 0.8503937007874016
        },
        {
          "duration": 0.005208333333328596,
          "durationTicks": 4,
          "midi": 51,
          "name": "D#3",
          "ticks": 49920,
          "time": 65,
          "velocity": 0.36220472440944884
        },
        {
          "duration": 0.0026041666666571928,
          "durationTicks": 2,
          "midi": 42,
          "name": "F#2",
          "ticks": 49922,
          "time": 65.00260416666667,
          "velocity": 0.44881889763779526
        },
        {
          "duration": 0.0026041666666714036,
          "durationTicks": 2,
          "midi": 35,
          "name": "B1",
          "ticks": 49926,
          "time": 65.0078125,
          "velocity": 0.8346456692913385
        },
        {
          "duration": 0.0026041666666571928,
          "durationTicks": 2,
          "midi": 40,
          "name": "E2",
          "ticks": 50120,
          "time": 65.26041666666667,
          "velocity": 0.9133858267716536
        },
        {
          "duration": 0.0026041666666571928,
          "durationTicks": 2,
          "midi": 38,
          "name": "D2",
          "ticks": 50120,
          "time": 65.26041666666667,
          "velocity": 0.9921259842519685
        },
        {
          "duration": 0.005208333333328596,
          "durationTicks": 4,
          "midi": 51,
          "name": "D#3",
          "ticks": 50318,
          "time": 65.51822916666667,
          "velocity": 0.3779527559055118
        },
        {
          "duration": 0.0026041666666714036,
          "durationTicks": 2,
          "midi": 42,
          "name": "F#2",
          "ticks": 50320,
          "time": 65.52083333333333,
          "velocity": 0.5118110236220472
        },
        {
          "duration": 0.0078125,
          "durationTicks": 6,
          "midi": 51,
          "name": "D#3",
          "ticks": 50412,
          "time": 65.640625,
          "velocity": 0.33858267716535434
        },
        {
          "duration": 0.0026041666666714036,
          "durationTicks": 2,
          "midi": 42,
          "name": "F#2",
          "ticks": 50416,
          "time": 65.64583333333333,
          "velocity": 0.3543307086614173
        },
        {
          "duration": 0.0078125,
          "durationTicks": 6,
          "midi": 51,
          "name": "D#3",
          "ticks": 50518,
          "time": 65.77864583333333,
          "velocity": 0.3700787401574803
        },
        {
          "duration": 0.0026041666666714036,
          "durationTicks": 2,
          "midi": 42,
          "name": "F#2",
          "ticks": 50520,
          "time": 65.78125,
          "velocity": 0.48031496062992124
        },
        {
          "duration": 0.010416666666671404,
          "durationTicks": 8,
          "midi": 35,
          "name": "B1",
          "ticks": 50524,
          "time": 65.78645833333333,
          "velocity": 0.8503937007874016
        },
        {
          "duration": 0.0078125,
          "durationTicks": 6,
          "midi": 51,
          "name": "D#3",
          "ticks": 50610,
          "time": 65.8984375,
          "velocity": 0.33070866141732286
        },
        {
          "duration": 0.005208333333328596,
          "durationTicks": 4,
          "midi": 42,
          "name": "F#2",
          "ticks": 50612,
          "time": 65.90104166666667,
          "velocity": 0.33858267716535434
        },
        {
          "duration": 0.010416666666671404,
          "durationTicks": 8,
          "midi": 51,
          "name": "D#3",
          "ticks": 50710,
          "time": 66.02864583333333,
          "velocity": 0.3858267716535433
        },
        {
          "duration": 0.0026041666666571928,
          "durationTicks": 2,
          "midi": 42,
          "name": "F#2",
          "ticks": 50714,
          "time": 66.03385416666667,
          "velocity": 0.5433070866141733
        },
        {
          "duration": 0.0026041666666714036,
          "durationTicks": 2,
          "midi": 35,
          "name": "B1",
          "ticks": 50722,
          "time": 66.04427083333333,
          "velocity": 0.8503937007874016
        },
        {
          "duration": 0.0078125,
          "durationTicks": 6,
          "midi": 38,
          "name": "D2",
          "ticks": 50912,
          "time": 66.29166666666667,
          "velocity": 0.9763779527559056
        },
        {
          "duration": 0.0078125,
          "durationTicks": 6,
          "midi": 51,
          "name": "D#3",
          "ticks": 50914,
          "time": 66.29427083333333,
          "velocity": 0.36220472440944884
        },
        {
          "duration": 0.0078125,
          "durationTicks": 6,
          "midi": 40,
          "name": "E2",
          "ticks": 50914,
          "time": 66.29427083333333,
          "velocity": 0.8976377952755905
        },
        {
          "duration": 0.0026041666666714036,
          "durationTicks": 2,
          "midi": 42,
          "name": "F#2",
          "ticks": 50916,
          "time": 66.296875,
          "velocity": 0.44881889763779526
        },
        {
          "duration": 0.015625,
          "durationTicks": 12,
          "midi": 49,
          "name": "C#3",
          "ticks": 51114,
          "time": 66.5546875,
          "velocity": 0.5669291338582677
        },
        {
          "duration": 0.010416666666657193,
          "durationTicks": 8,
          "midi": 51,
          "name": "D#3",
          "ticks": 51116,
          "time": 66.55729166666667,
          "velocity": 0.33070866141732286
        },
        {
          "duration": 0.015625,
          "durationTicks": 12,
          "midi": 52,
          "name": "E3",
          "ticks": 51116,
          "time": 66.55729166666667,
          "velocity": 0.5433070866141733
        },
        {
          "duration": 0.0078125,
          "durationTicks": 6,
          "midi": 35,
          "name": "B1",
          "ticks": 51118,
          "time": 66.55989583333333,
          "velocity": 0.8582677165354331
        },
        {
          "duration": 0.013020833333342807,
          "durationTicks": 10,
          "midi": 46,
          "name": "A#2",
          "ticks": 51118,
          "time": 66.55989583333333,
          "velocity": 0.5275590551181102
        },
        {
          "duration": 0.0026041666666714036,
          "durationTicks": 2,
          "midi": 42,
          "name": "F#2",
          "ticks": 51310,
          "time": 66.80989583333333,
          "velocity": 0.49606299212598426
        },
        {
          "duration": 0.0026041666666714036,
          "durationTicks": 2,
          "midi": 51,
          "name": "D#3",
          "ticks": 51310,
          "time": 66.80989583333333,
          "velocity": 0.31496062992125984
        },
        {
          "duration": 0.005208333333342807,
          "durationTicks": 4,
          "midi": 42,
          "name": "F#2",
          "ticks": 51508,
          "time": 67.06770833333333,
          "velocity": 0.5275590551181102
        },
        {
          "duration": 0.005208333333342807,
          "durationTicks": 4,
          "midi": 51,
          "name": "D#3",
          "ticks": 51508,
          "time": 67.06770833333333,
          "velocity": 0.3858267716535433
        },
        {
          "duration": 0.0078125,
          "durationTicks": 6,
          "midi": 38,
          "name": "D2",
          "ticks": 51704,
          "time": 67.32291666666667,
          "velocity": 0.9921259842519685
        },
        {
          "duration": 0.0026041666666714036,
          "durationTicks": 2,
          "midi": 40,
          "name": "E2",
          "ticks": 51706,
          "time": 67.32552083333333,
          "velocity": 0.9133858267716536
        },
        {
          "duration": 0.0026041666666714036,
          "durationTicks": 2,
          "midi": 51,
          "name": "D#3",
          "ticks": 51714,
          "time": 67.3359375,
          "velocity": 0.3779527559055118
        },
        {
          "duration": 0.0026041666666714036,
          "durationTicks": 2,
          "midi": 42,
          "name": "F#2",
          "ticks": 51714,
          "time": 67.3359375,
          "velocity": 0.5118110236220472
        },
        {
          "duration": 0.0078125,
          "durationTicks": 6,
          "midi": 42,
          "name": "F#2",
          "ticks": 51804,
          "time": 67.453125,
          "velocity": 0.3700787401574803
        },
        {
          "duration": 0.0078125,
          "durationTicks": 6,
          "midi": 51,
          "name": "D#3",
          "ticks": 51804,
          "time": 67.453125,
          "velocity": 0.33858267716535434
        },
        {
          "duration": 0.005208333333328596,
          "durationTicks": 4,
          "midi": 42,
          "name": "F#2",
          "ticks": 51902,
          "time": 67.58072916666667,
          "velocity": 0.5433070866141733
        },
        {
          "duration": 0.005208333333328596,
          "durationTicks": 4,
          "midi": 51,
          "name": "D#3",
          "ticks": 51902,
          "time": 67.58072916666667,
          "velocity": 0.3858267716535433
        },
        {
          "duration": 0.005208333333342807,
          "durationTicks": 4,
          "midi": 51,
          "name": "D#3",
          "ticks": 52000,
          "time": 67.70833333333333,
          "velocity": 0.33858267716535434
        },
        {
          "duration": 0.0026041666666714036,
          "durationTicks": 2,
          "midi": 42,
          "name": "F#2",
          "ticks": 52002,
          "time": 67.7109375,
          "velocity": 0.3543307086614173
        },
        {
          "duration": 0.005208333333328596,
          "durationTicks": 4,
          "midi": 35,
          "name": "B1",
          "ticks": 52106,
          "time": 67.84635416666667,
          "velocity": 0.8346456692913385
        },
        {
          "duration": 0.010416666666657193,
          "durationTicks": 8,
          "midi": 51,
          "name": "D#3",
          "ticks": 52112,
          "time": 67.85416666666667,
          "velocity": 0.3937007874015748
        },
        {
          "duration": 0.0078125,
          "durationTicks": 6,
          "midi": 42,
          "name": "F#2",
          "ticks": 52112,
          "time": 67.85416666666667,
          "velocity": 0.5669291338582677
        },
        {
          "duration": 0.0026041666666714036,
          "durationTicks": 2,
          "midi": 35,
          "name": "B1",
          "ticks": 52300,
          "time": 68.09895833333333,
          "velocity": 0.84251968503937
        },
        {
          "duration": 0.005208333333328596,
          "durationTicks": 4,
          "midi": 51,
          "name": "D#3",
          "ticks": 52304,
          "time": 68.10416666666667,
          "velocity": 0.3937007874015748
        },
        {
          "duration": 0.0026041666666571928,
          "durationTicks": 2,
          "midi": 42,
          "name": "F#2",
          "ticks": 52304,
          "time": 68.10416666666667,
          "velocity": 0.5748031496062992
        },
        {
          "duration": 0.005208333333328596,
          "durationTicks": 4,
          "midi": 38,
          "name": "D2",
          "ticks": 52500,
          "time": 68.359375,
          "velocity": 0.9763779527559056
        },
        {
          "duration": 0.0026041666666571928,
          "durationTicks": 2,
          "midi": 40,
          "name": "E2",
          "ticks": 52502,
          "time": 68.36197916666667,
          "velocity": 0.8976377952755905
        },
        {
          "duration": 0.0026041666666571928,
          "durationTicks": 2,
          "midi": 42,
          "name": "F#2",
          "ticks": 52700,
          "time": 68.61979166666667,
          "velocity": 0.6141732283464567
        },
        {
          "duration": 0.0026041666666571928,
          "durationTicks": 2,
          "midi": 51,
          "name": "D#3",
          "ticks": 52700,
          "time": 68.61979166666667,
          "velocity": 0.4094488188976378
        },
        {
          "duration": 0.005208333333342807,
          "durationTicks": 4,
          "midi": 51,
          "name": "D#3",
          "ticks": 52798,
          "time": 68.74739583333333,
          "velocity": 0.33070866141732286
        },
        {
          "duration": 0.0026041666666714036,
          "durationTicks": 2,
          "midi": 42,
          "name": "F#2",
          "ticks": 52800,
          "time": 68.75,
          "velocity": 0.33858267716535434
        },
        {
          "duration": 0.013020833333342807,
          "durationTicks": 10,
          "midi": 42,
          "name": "F#2",
          "ticks": 52900,
          "time": 68.88020833333333,
          "velocity": 0.5984251968503937
        },
        {
          "duration": 0.013020833333342807,
          "durationTicks": 10,
          "midi": 51,
          "name": "D#3",
          "ticks": 52900,
          "time": 68.88020833333333,
          "velocity": 0.4015748031496063
        },
        {
          "duration": 0.0078125,
          "durationTicks": 6,
          "midi": 35,
          "name": "B1",
          "ticks": 52902,
          "time": 68.8828125,
          "velocity": 0.84251968503937
        },
        {
          "duration": 0.010416666666657193,
          "durationTicks": 8,
          "midi": 51,
          "name": "D#3",
          "ticks": 53096,
          "time": 69.13541666666667,
          "velocity": 0.3543307086614173
        },
        {
          "duration": 0.0078125,
          "durationTicks": 6,
          "midi": 42,
          "name": "F#2",
          "ticks": 53098,
          "time": 69.13802083333333,
          "velocity": 0.41732283464566927
        },
        {
          "duration": 0.0026041666666714036,
          "durationTicks": 2,
          "midi": 35,
          "name": "B1",
          "ticks": 53106,
          "time": 69.1484375,
          "velocity": 0.8346456692913385
        },
        {
          "duration": 0.0026041666666571928,
          "durationTicks": 2,
          "midi": 38,
          "name": "D2",
          "ticks": 53294,
          "time": 69.39322916666667,
          "velocity": 0.984251968503937
        },
        {
          "duration": 0.0026041666666714036,
          "durationTicks": 2,
          "midi": 40,
          "name": "E2",
          "ticks": 53296,
          "time": 69.39583333333333,
          "velocity": 0.905511811023622
        },
        {
          "duration": 0.0026041666666571928,
          "durationTicks": 2,
          "midi": 42,
          "name": "F#2",
          "ticks": 53492,
          "time": 69.65104166666667,
          "velocity": 0.5826771653543307
        },
        {
          "duration": 0.0026041666666571928,
          "durationTicks": 2,
          "midi": 51,
          "name": "D#3",
          "ticks": 53492,
          "time": 69.65104166666667,
          "velocity": 0.4015748031496063
        },
        {
          "duration": 0.005208333333328596,
          "durationTicks": 4,
          "midi": 51,
          "name": "D#3",
          "ticks": 53592,
          "time": 69.78125,
          "velocity": 0.33858267716535434
        },
        {
          "duration": 0.0026041666666571928,
          "durationTicks": 2,
          "midi": 42,
          "name": "F#2",
          "ticks": 53594,
          "time": 69.78385416666667,
          "velocity": 0.3700787401574803
        },
        {
          "duration": 0.015625,
          "durationTicks": 12,
          "midi": 51,
          "name": "D#3",
          "ticks": 53692,
          "time": 69.91145833333333,
          "velocity": 0.3937007874015748
        },
        {
          "duration": 0.010416666666671404,
          "durationTicks": 8,
          "midi": 42,
          "name": "F#2",
          "ticks": 53694,
          "time": 69.9140625,
          "velocity": 0.5669291338582677
        },
        {
          "duration": 0.0078125,
          "durationTicks": 6,
          "midi": 35,
          "name": "B1",
          "ticks": 53696,
          "time": 69.91666666666667,
          "velocity": 0.8346456692913385
        },
        {
          "duration": 0.005208333333328596,
          "durationTicks": 4,
          "midi": 42,
          "name": "F#2",
          "ticks": 53892,
          "time": 70.171875,
          "velocity": 0.4015748031496063
        },
        {
          "duration": 0.005208333333328596,
          "durationTicks": 4,
          "midi": 51,
          "name": "D#3",
          "ticks": 53892,
          "time": 70.171875,
          "velocity": 0.3543307086614173
        },
        {
          "duration": 0.0026041666666714036,
          "durationTicks": 2,
          "midi": 35,
          "name": "B1",
          "ticks": 53898,
          "time": 70.1796875,
          "velocity": 0.84251968503937
        },
        {
          "duration": 0.0078125,
          "durationTicks": 6,
          "midi": 51,
          "name": "D#3",
          "ticks": 54084,
          "time": 70.421875,
          "velocity": 0.3937007874015748
        },
        {
          "duration": 0.0026041666666571928,
          "durationTicks": 2,
          "midi": 42,
          "name": "F#2",
          "ticks": 54086,
          "time": 70.42447916666667,
          "velocity": 0.5669291338582677
        },
        {
          "duration": 0.005208333333328596,
          "durationTicks": 4,
          "midi": 38,
          "name": "D2",
          "ticks": 54090,
          "time": 70.4296875,
          "velocity": 0.9921259842519685
        },
        {
          "duration": 0.0026041666666571928,
          "durationTicks": 2,
          "midi": 40,
          "name": "E2",
          "ticks": 54092,
          "time": 70.43229166666667,
          "velocity": 0.9133858267716536
        },
        {
          "duration": 0.013020833333328596,
          "durationTicks": 10,
          "midi": 51,
          "name": "D#3",
          "ticks": 54288,
          "time": 70.6875,
          "velocity": 0.33070866141732286
        },
        {
          "duration": 0.005208333333328596,
          "durationTicks": 4,
          "midi": 46,
          "name": "A#2",
          "ticks": 54290,
          "time": 70.69010416666667,
          "velocity": 0.5275590551181102
        },
        {
          "duration": 0.005208333333342807,
          "durationTicks": 4,
          "midi": 35,
          "name": "B1",
          "ticks": 54298,
          "time": 70.70052083333333,
          "velocity": 0.8740157480314961
        },
        {
          "duration": 0.005208333333342807,
          "durationTicks": 4,
          "midi": 52,
          "name": "E3",
          "ticks": 54298,
          "time": 70.70052083333333,
          "velocity": 0.49606299212598426
        },
        {
          "duration": 0.005208333333342807,
          "durationTicks": 4,
          "midi": 49,
          "name": "C#3",
          "ticks": 54298,
          "time": 70.70052083333333,
          "velocity": 0.5196850393700787
        },
        {
          "duration": 0.005208333333328596,
          "durationTicks": 4,
          "midi": 42,
          "name": "F#2",
          "ticks": 54480,
          "time": 70.9375,
          "velocity": 0.4409448818897638
        },
        {
          "duration": 0.005208333333328596,
          "durationTicks": 4,
          "midi": 42,
          "name": "F#2",
          "ticks": 54680,
          "time": 71.19791666666667,
          "velocity": 0.5826771653543307
        },
        {
          "duration": 0.0026041666666571928,
          "durationTicks": 2,
          "midi": 40,
          "name": "E2",
          "ticks": 54878,
          "time": 71.45572916666667,
          "velocity": 0.6850393700787402
        },
        {
          "duration": 0.005208333333328596,
          "durationTicks": 4,
          "midi": 38,
          "name": "D2",
          "ticks": 54878,
          "time": 71.45572916666667,
          "velocity": 0.9921259842519685
        },
        {
          "duration": 0.0026041666666714036,
          "durationTicks": 2,
          "midi": 42,
          "name": "F#2",
          "ticks": 54882,
          "time": 71.4609375,
          "velocity": 0.5118110236220472
        },
        {
          "duration": 0.005208333333328596,
          "durationTicks": 4,
          "midi": 42,
          "name": "F#2",
          "ticks": 54974,
          "time": 71.58072916666667,
          "velocity": 0.3543307086614173
        },
        {
          "duration": 0.0026041666666714036,
          "durationTicks": 2,
          "midi": 42,
          "name": "F#2",
          "ticks": 55074,
          "time": 71.7109375,
          "velocity": 0.44881889763779526
        },
        {
          "duration": 0.005208333333328596,
          "durationTicks": 4,
          "midi": 42,
          "name": "F#2",
          "ticks": 55172,
          "time": 71.83854166666667,
          "velocity": 0.2755905511811024
        },
        {
          "duration": 0.0078125,
          "durationTicks": 6,
          "midi": 42,
          "name": "F#2",
          "ticks": 55274,
          "time": 71.97135416666667,
          "velocity": 0.5826771653543307
        },
        {
          "duration": 0.0026041666666714036,
          "durationTicks": 2,
          "midi": 35,
          "name": "B1",
          "ticks": 55276,
          "time": 71.97395833333333,
          "velocity": 0.8110236220472441
        },
        {
          "duration": 0.0026041666666714036,
          "durationTicks": 2,
          "midi": 35,
          "name": "B1",
          "ticks": 55468,
          "time": 72.22395833333333,
          "velocity": 0.8267716535433071
        },
        {
          "duration": 0.0026041666666714036,
          "durationTicks": 2,
          "midi": 42,
          "name": "F#2",
          "ticks": 55474,
          "time": 72.23177083333333,
          "velocity": 0.49606299212598426
        },
        {
          "duration": 0.0026041666666571928,
          "durationTicks": 2,
          "midi": 40,
          "name": "E2",
          "ticks": 55670,
          "time": 72.48697916666667,
          "velocity": 0.6614173228346457
        },
        {
          "duration": 0.0026041666666571928,
          "durationTicks": 2,
          "midi": 38,
          "name": "D2",
          "ticks": 55670,
          "time": 72.48697916666667,
          "velocity": 0.968503937007874
        },
        {
          "duration": 0.0078125,
          "durationTicks": 6,
          "midi": 42,
          "name": "F#2",
          "ticks": 55672,
          "time": 72.48958333333333,
          "velocity": 0.5669291338582677
        },
        {
          "duration": 0.0026041666666714036,
          "durationTicks": 2,
          "midi": 42,
          "name": "F#2",
          "ticks": 55770,
          "time": 72.6171875,
          "velocity": 0.3228346456692913
        },
        {
          "duration": 0.005208333333328596,
          "durationTicks": 4,
          "midi": 42,
          "name": "F#2",
          "ticks": 55868,
          "time": 72.74479166666667,
          "velocity": 0.48031496062992124
        },
        {
          "duration": 0.0026041666666714036,
          "durationTicks": 2,
          "midi": 42,
          "name": "F#2",
          "ticks": 55966,
          "time": 72.87239583333333,
          "velocity": 0.3228346456692913
        },
        {
          "duration": 0.005208333333328596,
          "durationTicks": 4,
          "midi": 42,
          "name": "F#2",
          "ticks": 56064,
          "time": 73,
          "velocity": 0.5433070866141733
        },
        {
          "duration": 0.0026041666666714036,
          "durationTicks": 2,
          "midi": 35,
          "name": "B1",
          "ticks": 56070,
          "time": 73.0078125,
          "velocity": 0.8188976377952756
        },
        {
          "duration": 0.005208333333328596,
          "durationTicks": 4,
          "midi": 35,
          "name": "B1",
          "ticks": 56262,
          "time": 73.2578125,
          "velocity": 0.8188976377952756
        },
        {
          "duration": 0.0078125,
          "durationTicks": 6,
          "midi": 42,
          "name": "F#2",
          "ticks": 56262,
          "time": 73.2578125,
          "velocity": 0.5669291338582677
        },
        {
          "duration": 0.005208333333328596,
          "durationTicks": 4,
          "midi": 38,
          "name": "D2",
          "ticks": 56460,
          "time": 73.515625,
          "velocity": 0.9763779527559056
        },
        {
          "duration": 0.0026041666666571928,
          "durationTicks": 2,
          "midi": 40,
          "name": "E2",
          "ticks": 56462,
          "time": 73.51822916666667,
          "velocity": 0.6692913385826772
        },
        {
          "duration": 0.0026041666666714036,
          "durationTicks": 2,
          "midi": 42,
          "name": "F#2",
          "ticks": 56658,
          "time": 73.7734375,
          "velocity": 0.5669291338582677
        },
        {
          "duration": 0.0026041666666714036,
          "durationTicks": 2,
          "midi": 42,
          "name": "F#2",
          "ticks": 56758,
          "time": 73.90364583333333,
          "velocity": 0.30708661417322836
        },
        {
          "duration": 0.0078125,
          "durationTicks": 6,
          "midi": 35,
          "name": "B1",
          "ticks": 56860,
          "time": 74.03645833333333,
          "velocity": 0.8110236220472441
        },
        {
          "duration": 0.0078125,
          "durationTicks": 6,
          "midi": 42,
          "name": "F#2",
          "ticks": 56860,
          "time": 74.03645833333333,
          "velocity": 0.5669291338582677
        },
        {
          "duration": 0.0026041666666714036,
          "durationTicks": 2,
          "midi": 35,
          "name": "B1",
          "ticks": 57052,
          "time": 74.28645833333333,
          "velocity": 0.7952755905511811
        },
        {
          "duration": 0.0026041666666571928,
          "durationTicks": 2,
          "midi": 42,
          "name": "F#2",
          "ticks": 57056,
          "time": 74.29166666666667,
          "velocity": 0.5275590551181102
        },
        {
          "duration": 0.0078125,
          "durationTicks": 6,
          "midi": 38,
          "name": "D2",
          "ticks": 57254,
          "time": 74.54947916666667,
          "velocity": 0.9921259842519685
        },
        {
          "duration": 0.0026041666666714036,
          "durationTicks": 2,
          "midi": 40,
          "name": "E2",
          "ticks": 57256,
          "time": 74.55208333333333,
          "velocity": 0.6850393700787402
        },
        {
          "duration": 0.0026041666666571928,
          "durationTicks": 2,
          "midi": 42,
          "name": "F#2",
          "ticks": 57260,
          "time": 74.55729166666667,
          "velocity": 0.4015748031496063
        },
        {
          "duration": 0.005208333333328596,
          "durationTicks": 4,
          "midi": 42,
          "name": "F#2",
          "ticks": 57348,
          "time": 74.671875,
          "velocity": 0.5118110236220472
        },
        {
          "duration": 0.0078125,
          "durationTicks": 6,
          "midi": 35,
          "name": "B1",
          "ticks": 57448,
          "time": 74.80208333333333,
          "velocity": 0.8503937007874016
        },
        {
          "duration": 0.0026041666666714036,
          "durationTicks": 2,
          "midi": 46,
          "name": "A#2",
          "ticks": 57454,
          "time": 74.80989583333333,
          "velocity": 0.5275590551181102
        },
        {
          "duration": 0.0026041666666714036,
          "durationTicks": 2,
          "midi": 42,
          "name": "F#2",
          "ticks": 57652,
          "time": 75.06770833333333,
          "velocity": 0.4330708661417323
        },
        {
          "duration": 0.0026041666666714036,
          "durationTicks": 2,
          "midi": 42,
          "name": "F#2",
          "ticks": 57850,
          "time": 75.32552083333333,
          "velocity": 0.4330708661417323
        },
        {
          "duration": 0.005208333333328596,
          "durationTicks": 4,
          "midi": 42,
          "name": "F#2",
          "ticks": 57944,
          "time": 75.44791666666667,
          "velocity": 0.3543307086614173
        },
        {
          "duration": 0.0078125,
          "durationTicks": 6,
          "midi": 38,
          "name": "D2",
          "ticks": 58042,
          "time": 75.57552083333333,
          "velocity": 0.984251968503937
        },
        {
          "duration": 0.0026041666666571928,
          "durationTicks": 2,
          "midi": 40,
          "name": "E2",
          "ticks": 58046,
          "time": 75.58072916666667,
          "velocity": 0.6771653543307087
        },
        {
          "duration": 0.005208333333328596,
          "durationTicks": 4,
          "midi": 42,
          "name": "F#2",
          "ticks": 58050,
          "time": 75.5859375,
          "velocity": 0.5433070866141733
        },
        {
          "duration": 0.005208333333328596,
          "durationTicks": 4,
          "midi": 42,
          "name": "F#2",
          "ticks": 58242,
          "time": 75.8359375,
          "velocity": 0.5118110236220472
        },
        {
          "duration": 0.0026041666666571928,
          "durationTicks": 2,
          "midi": 42,
          "name": "F#2",
          "ticks": 58340,
          "time": 75.96354166666667,
          "velocity": 0.29133858267716534
        },
        {
          "duration": 0.005208333333342807,
          "durationTicks": 4,
          "midi": 42,
          "name": "F#2",
          "ticks": 58438,
          "time": 76.09114583333333,
          "velocity": 0.5275590551181102
        },
        {
          "duration": 0.0026041666666571928,
          "durationTicks": 2,
          "midi": 35,
          "name": "B1",
          "ticks": 58442,
          "time": 76.09635416666667,
          "velocity": 0.7952755905511811
        },
        {
          "duration": 0.005208333333328596,
          "durationTicks": 4,
          "midi": 42,
          "name": "F#2",
          "ticks": 58634,
          "time": 76.34635416666667,
          "velocity": 0.48031496062992124
        },
        {
          "duration": 0.0026041666666571928,
          "durationTicks": 2,
          "midi": 35,
          "name": "B1",
          "ticks": 58640,
          "time": 76.35416666666667,
          "velocity": 0.8267716535433071
        },
        {
          "duration": 0.0026041666666571928,
          "durationTicks": 2,
          "midi": 42,
          "name": "F#2",
          "ticks": 58838,
          "time": 76.61197916666667,
          "velocity": 0.5275590551181102
        },
        {
          "duration": 0.0026041666666714036,
          "durationTicks": 2,
          "midi": 40,
          "name": "E2",
          "ticks": 58842,
          "time": 76.6171875,
          "velocity": 0.6692913385826772
        },
        {
          "duration": 0.005208333333328596,
          "durationTicks": 4,
          "midi": 38,
          "name": "D2",
          "ticks": 58842,
          "time": 76.6171875,
          "velocity": 0.9763779527559056
        },
        {
          "duration": 0.005208333333328596,
          "durationTicks": 4,
          "midi": 42,
          "name": "F#2",
          "ticks": 58934,
          "time": 76.73697916666667,
          "velocity": 0.33858267716535434
        },
        {
          "duration": 0.005208333333328596,
          "durationTicks": 4,
          "midi": 42,
          "name": "F#2",
          "ticks": 59036,
          "time": 76.86979166666667,
          "velocity": 0.2440944881889764
        },
        {
          "duration": 0.0026041666666714036,
          "durationTicks": 2,
          "midi": 42,
          "name": "F#2",
          "ticks": 59136,
          "time": 77,
          "velocity": 0.12598425196850394
        },
        {
          "duration": 0.0078125,
          "durationTicks": 6,
          "midi": 42,
          "name": "F#2",
          "ticks": 59232,
          "time": 77.125,
          "velocity": 0.5433070866141733
        },
        {
          "duration": 0.0026041666666714036,
          "durationTicks": 2,
          "midi": 35,
          "name": "B1",
          "ticks": 59238,
          "time": 77.1328125,
          "velocity": 0.8110236220472441
        },
        {
          "duration": 0.005208333333328596,
          "durationTicks": 4,
          "midi": 42,
          "name": "F#2",
          "ticks": 59430,
          "time": 77.3828125,
          "velocity": 0.48031496062992124
        },
        {
          "duration": 0.0026041666666714036,
          "durationTicks": 2,
          "midi": 35,
          "name": "B1",
          "ticks": 59434,
          "time": 77.38802083333333,
          "velocity": 0.8110236220472441
        },
        {
          "duration": 0.0026041666666571928,
          "durationTicks": 2,
          "midi": 42,
          "name": "F#2",
          "ticks": 59528,
          "time": 77.51041666666667,
          "velocity": 0.25984251968503935
        },
        {
          "duration": 0.005208333333328596,
          "durationTicks": 4,
          "midi": 42,
          "name": "F#2",
          "ticks": 59628,
          "time": 77.640625,
          "velocity": 0.5748031496062992
        },
        {
          "duration": 0.0026041666666714036,
          "durationTicks": 2,
          "midi": 40,
          "name": "E2",
          "ticks": 59634,
          "time": 77.6484375,
          "velocity": 0.6692913385826772
        },
        {
          "duration": 0.005208333333328596,
          "durationTicks": 4,
          "midi": 38,
          "name": "D2",
          "ticks": 59634,
          "time": 77.6484375,
          "velocity": 0.9763779527559056
        },
        {
          "duration": 0.0026041666666714036,
          "durationTicks": 2,
          "midi": 42,
          "name": "F#2",
          "ticks": 59830,
          "time": 77.90364583333333,
          "velocity": 0.5275590551181102
        },
        {
          "duration": 0.0026041666666714036,
          "durationTicks": 2,
          "midi": 42,
          "name": "F#2",
          "ticks": 59928,
          "time": 78.03125,
          "velocity": 0.30708661417322836
        },
        {
          "duration": 0.005208333333328596,
          "durationTicks": 4,
          "midi": 35,
          "name": "B1",
          "ticks": 60030,
          "time": 78.1640625,
          "velocity": 0.8110236220472441
        },
        {
          "duration": 0.0078125,
          "durationTicks": 6,
          "midi": 42,
          "name": "F#2",
          "ticks": 60036,
          "time": 78.171875,
          "velocity": 0.5669291338582677
        },
        {
          "duration": 0.0078125,
          "durationTicks": 6,
          "midi": 35,
          "name": "B1",
          "ticks": 60222,
          "time": 78.4140625,
          "velocity": 0.8188976377952756
        },
        {
          "duration": 0.0026041666666714036,
          "durationTicks": 2,
          "midi": 42,
          "name": "F#2",
          "ticks": 60228,
          "time": 78.421875,
          "velocity": 0.4645669291338583
        },
        {
          "duration": 0.005208333333342807,
          "durationTicks": 4,
          "midi": 40,
          "name": "E2",
          "ticks": 60424,
          "time": 78.67708333333333,
          "velocity": 0.6771653543307087
        },
        {
          "duration": 0.005208333333342807,
          "durationTicks": 4,
          "midi": 38,
          "name": "D2",
          "ticks": 60424,
          "time": 78.67708333333333,
          "velocity": 0.984251968503937
        },
        {
          "duration": 0.0026041666666571928,
          "durationTicks": 2,
          "midi": 42,
          "name": "F#2",
          "ticks": 60428,
          "time": 78.68229166666667,
          "velocity": 0.2755905511811024
        },
        {
          "duration": 0.005208333333328596,
          "durationTicks": 4,
          "midi": 42,
          "name": "F#2",
          "ticks": 60518,
          "time": 78.79947916666667,
          "velocity": 0.5433070866141733
        },
        {
          "duration": 0.013020833333342807,
          "durationTicks": 10,
          "midi": 49,
          "name": "C#3",
          "ticks": 60622,
          "time": 78.93489583333333,
          "velocity": 0.5354330708661418
        },
        {
          "duration": 0.0078125,
          "durationTicks": 6,
          "midi": 35,
          "name": "B1",
          "ticks": 60624,
          "time": 78.9375,
          "velocity": 0.8346456692913385
        },
        {
          "duration": 0.010416666666671404,
          "durationTicks": 8,
          "midi": 52,
          "name": "E3",
          "ticks": 60624,
          "time": 78.9375,
          "velocity": 0.5118110236220472
        },
        {
          "duration": 0.0026041666666714036,
          "durationTicks": 2,
          "midi": 46,
          "name": "A#2",
          "ticks": 60634,
          "time": 78.95052083333333,
          "velocity": 0.5275590551181102
        },
        {
          "duration": 0.0026041666666714036,
          "durationTicks": 2,
          "midi": 42,
          "name": "F#2",
          "ticks": 60820,
          "time": 79.19270833333333,
          "velocity": 0.4330708661417323
        },
        {
          "duration": 0.0026041666666571928,
          "durationTicks": 2,
          "midi": 42,
          "name": "F#2",
          "ticks": 61016,
          "time": 79.44791666666667,
          "velocity": 0.5118110236220472
        },
        {
          "duration": 0.0026041666666714036,
          "durationTicks": 2,
          "midi": 42,
          "name": "F#2",
          "ticks": 61114,
          "time": 79.57552083333333,
          "velocity": 0.2755905511811024
        },
        {
          "duration": 0.0026041666666714036,
          "durationTicks": 2,
          "midi": 38,
          "name": "D2",
          "ticks": 61212,
          "time": 79.703125,
          "velocity": 0.9763779527559056
        },
        {
          "duration": 0.010416666666657193,
          "durationTicks": 8,
          "midi": 42,
          "name": "F#2",
          "ticks": 61214,
          "time": 79.70572916666667,
          "velocity": 0.5433070866141733
        },
        {
          "duration": 0.0026041666666571928,
          "durationTicks": 2,
          "midi": 40,
          "name": "E2",
          "ticks": 61214,
          "time": 79.70572916666667,
          "velocity": 0.6692913385826772
        },
        {
          "duration": 0.005208333333328596,
          "durationTicks": 4,
          "midi": 42,
          "name": "F#2",
          "ticks": 61410,
          "time": 79.9609375,
          "velocity": 0.49606299212598426
        },
        {
          "duration": 0.0026041666666714036,
          "durationTicks": 2,
          "midi": 42,
          "name": "F#2",
          "ticks": 61608,
          "time": 80.21875,
          "velocity": 0.3228346456692913
        },
        {
          "duration": 0.0026041666666571928,
          "durationTicks": 2,
          "midi": 35,
          "name": "B1",
          "ticks": 61610,
          "time": 80.22135416666667,
          "velocity": 0.8110236220472441
        },
        {
          "duration": 0.0078125,
          "durationTicks": 6,
          "midi": 42,
          "name": "F#2",
          "ticks": 61806,
          "time": 80.4765625,
          "velocity": 0.5118110236220472
        },
        {
          "duration": 0.005208333333328596,
          "durationTicks": 4,
          "midi": 35,
          "name": "B1",
          "ticks": 61808,
          "time": 80.47916666666667,
          "velocity": 0.8188976377952756
        },
        {
          "duration": 0.0026041666666714036,
          "durationTicks": 2,
          "midi": 42,
          "name": "F#2",
          "ticks": 62008,
          "time": 80.73958333333333,
          "velocity": 0.5826771653543307
        },
        {
          "duration": 0.0026041666666571928,
          "durationTicks": 2,
          "midi": 38,
          "name": "D2",
          "ticks": 62012,
          "time": 80.74479166666667,
          "velocity": 0.984251968503937
        },
        {
          "duration": 0.0026041666666571928,
          "durationTicks": 2,
          "midi": 40,
          "name": "E2",
          "ticks": 62012,
          "time": 80.74479166666667,
          "velocity": 0.6771653543307087
        },
        {
          "duration": 0.005208333333328596,
          "durationTicks": 4,
          "midi": 42,
          "name": "F#2",
          "ticks": 62102,
          "time": 80.86197916666667,
          "velocity": 0.2204724409448819
        },
        {
          "duration": 0.0026041666666714036,
          "durationTicks": 2,
          "midi": 42,
          "name": "F#2",
          "ticks": 62202,
          "time": 80.9921875,
          "velocity": 0.44881889763779526
        },
        {
          "duration": 0.0026041666666714036,
          "durationTicks": 2,
          "midi": 42,
          "name": "F#2",
          "ticks": 62302,
          "time": 81.12239583333333,
          "velocity": 0.25984251968503935
        },
        {
          "duration": 0.0026041666666571928,
          "durationTicks": 2,
          "midi": 42,
          "name": "F#2",
          "ticks": 62402,
          "time": 81.25260416666667,
          "velocity": 0.5275590551181102
        },
        {
          "duration": 0.0026041666666714036,
          "durationTicks": 2,
          "midi": 35,
          "name": "B1",
          "ticks": 62404,
          "time": 81.25520833333333,
          "velocity": 0.8031496062992126
        },
        {
          "duration": 0.0026041666666571928,
          "durationTicks": 2,
          "midi": 42,
          "name": "F#2",
          "ticks": 62600,
          "time": 81.51041666666667,
          "velocity": 0.4645669291338583
        },
        {
          "duration": 0.0026041666666714036,
          "durationTicks": 2,
          "midi": 35,
          "name": "B1",
          "ticks": 62602,
          "time": 81.51302083333333,
          "velocity": 0.8031496062992126
        },
        {
          "duration": 0.005208333333328596,
          "durationTicks": 4,
          "midi": 38,
          "name": "D2",
          "ticks": 62798,
          "time": 81.76822916666667,
          "velocity": 0.984251968503937
        },
        {
          "duration": 0.0026041666666714036,
          "durationTicks": 2,
          "midi": 40,
          "name": "E2",
          "ticks": 62800,
          "time": 81.77083333333333,
          "velocity": 0.6771653543307087
        },
        {
          "duration": 0.0026041666666714036,
          "durationTicks": 2,
          "midi": 42,
          "name": "F#2",
          "ticks": 62994,
          "time": 82.0234375,
          "velocity": 0.5118110236220472
        },
        {
          "duration": 0.0026041666666714036,
          "durationTicks": 2,
          "midi": 42,
          "name": "F#2",
          "ticks": 63096,
          "time": 82.15625,
          "velocity": 0.33858267716535434
        },
        {
          "duration": 0.0078125,
          "durationTicks": 6,
          "midi": 35,
          "name": "B1",
          "ticks": 63196,
          "time": 82.28645833333333,
          "velocity": 0.8110236220472441
        },
        {
          "duration": 0.0078125,
          "durationTicks": 6,
          "midi": 42,
          "name": "F#2",
          "ticks": 63202,
          "time": 82.29427083333333,
          "velocity": 0.48031496062992124
        },
        {
          "duration": 0.005208333333328596,
          "durationTicks": 4,
          "midi": 35,
          "name": "B1",
          "ticks": 63386,
          "time": 82.53385416666667,
          "velocity": 0.7795275590551181
        },
        {
          "duration": 0.0026041666666571928,
          "durationTicks": 2,
          "midi": 42,
          "name": "F#2",
          "ticks": 63392,
          "time": 82.54166666666667,
          "velocity": 0.5275590551181102
        },
        {
          "duration": 0.0026041666666714036,
          "durationTicks": 2,
          "midi": 42,
          "name": "F#2",
          "ticks": 63486,
          "time": 82.6640625,
          "velocity": 0.33858267716535434
        },
        {
          "duration": 0.0078125,
          "durationTicks": 6,
          "midi": 38,
          "name": "D2",
          "ticks": 63584,
          "time": 82.79166666666667,
          "velocity": 1
        },
        {
          "duration": 0.0026041666666714036,
          "durationTicks": 2,
          "midi": 40,
          "name": "E2",
          "ticks": 63588,
          "time": 82.796875,
          "velocity": 0.6929133858267716
        },
        {
          "duration": 0.0026041666666571928,
          "durationTicks": 2,
          "midi": 42,
          "name": "F#2",
          "ticks": 63590,
          "time": 82.79947916666667,
          "velocity": 0.5275590551181102
        },
        {
          "duration": 0.010416666666657193,
          "durationTicks": 8,
          "midi": 35,
          "name": "B1",
          "ticks": 63782,
          "time": 83.04947916666667,
          "velocity": 0.8031496062992126
        },
        {
          "duration": 0.013020833333342807,
          "durationTicks": 10,
          "midi": 49,
          "name": "C#3",
          "ticks": 63790,
          "time": 83.05989583333333,
          "velocity": 0.5511811023622047
        },
        {
          "duration": 0.010416666666671404,
          "durationTicks": 8,
          "midi": 52,
          "name": "E3",
          "ticks": 63792,
          "time": 83.0625,
          "velocity": 0.5275590551181102
        },
        {
          "duration": 0.005208333333328596,
          "durationTicks": 4,
          "midi": 46,
          "name": "A#2",
          "ticks": 63794,
          "time": 83.06510416666667,
          "velocity": 0.5118110236220472
        },
        {
          "duration": 0.010416666666657193,
          "durationTicks": 8,
          "midi": 42,
          "name": "F#2",
          "ticks": 63992,
          "time": 83.32291666666667,
          "velocity": 0.44881889763779526
        },
        {
          "duration": 0.005208333333342807,
          "durationTicks": 4,
          "midi": 42,
          "name": "F#2",
          "ticks": 64186,
          "time": 83.57552083333333,
          "velocity": 0.5275590551181102
        },
        {
          "duration": 0.0078125,
          "durationTicks": 6,
          "midi": 38,
          "name": "D2",
          "ticks": 64386,
          "time": 83.8359375,
          "velocity": 0.9921259842519685
        },
        {
          "duration": 0.0026041666666571928,
          "durationTicks": 2,
          "midi": 42,
          "name": "F#2",
          "ticks": 64388,
          "time": 83.83854166666667,
          "velocity": 0.33858267716535434
        },
        {
          "duration": 0.005208333333328596,
          "durationTicks": 4,
          "midi": 40,
          "name": "E2",
          "ticks": 64388,
          "time": 83.83854166666667,
          "velocity": 0.6850393700787402
        },
        {
          "duration": 0.005208333333342807,
          "durationTicks": 4,
          "midi": 42,
          "name": "F#2",
          "ticks": 64582,
          "time": 84.09114583333333,
          "velocity": 0.5118110236220472
        },
        {
          "duration": 0.005208333333328596,
          "durationTicks": 4,
          "midi": 42,
          "name": "F#2",
          "ticks": 64680,
          "time": 84.21875,
          "velocity": 0.2755905511811024
        },
        {
          "duration": 0.0078125,
          "durationTicks": 6,
          "midi": 27,
          "name": "D#1",
          "ticks": 64784,
          "time": 84.35416666666667,
          "velocity": 0.8503937007874016
        },
        {
          "duration": 0.0078125,
          "durationTicks": 6,
          "midi": 38,
          "name": "D2",
          "ticks": 64786,
          "time": 84.35677083333333,
          "velocity": 0.8661417322834646
        },
        {
          "duration": 0.0078125,
          "durationTicks": 6,
          "midi": 28,
          "name": "E1",
          "ticks": 64786,
          "time": 84.35677083333333,
          "velocity": 0.9448818897637795
        },
        {
          "duration": 0.0026041666666714036,
          "durationTicks": 2,
          "midi": 36,
          "name": "C2",
          "ticks": 64788,
          "time": 84.359375,
          "velocity": 0.8661417322834646
        },
        {
          "duration": 0.005208333333328596,
          "durationTicks": 4,
          "midi": 55,
          "name": "G3",
          "ticks": 64794,
          "time": 84.3671875,
          "velocity": 0.4015748031496063
        },
        {
          "duration": 0.0026041666666714036,
          "durationTicks": 2,
          "midi": 42,
          "name": "F#2",
          "ticks": 64794,
          "time": 84.3671875,
          "velocity": 0.4645669291338583
        },
        {
          "duration": 0.0026041666666714036,
          "durationTicks": 2,
          "midi": 35,
          "name": "B1",
          "ticks": 64794,
          "time": 84.3671875,
          "velocity": 0.8110236220472441
        },
        {
          "duration": 0.0078125,
          "durationTicks": 6,
          "midi": 27,
          "name": "D#1",
          "ticks": 64982,
          "time": 84.61197916666667,
          "velocity": 0.8661417322834646
        },
        {
          "duration": 0.0026041666666714036,
          "durationTicks": 2,
          "midi": 35,
          "name": "B1",
          "ticks": 64984,
          "time": 84.61458333333333,
          "velocity": 0.8110236220472441
        },
        {
          "duration": 0.005208333333342807,
          "durationTicks": 4,
          "midi": 42,
          "name": "F#2",
          "ticks": 64984,
          "time": 84.61458333333333,
          "velocity": 0.5275590551181102
        },
        {
          "duration": 0.005208333333342807,
          "durationTicks": 4,
          "midi": 28,
          "name": "E1",
          "ticks": 64990,
          "time": 84.62239583333333,
          "velocity": 1
        },
        {
          "duration": 0.005208333333328596,
          "durationTicks": 4,
          "midi": 38,
          "name": "D2",
          "ticks": 64992,
          "time": 84.625,
          "velocity": 0.9763779527559056
        },
        {
          "duration": 0.005208333333328596,
          "durationTicks": 4,
          "midi": 36,
          "name": "C2",
          "ticks": 64992,
          "time": 84.625,
          "velocity": 0.9763779527559056
        },
        {
          "duration": 0.0026041666666714036,
          "durationTicks": 2,
          "midi": 55,
          "name": "G3",
          "ticks": 64992,
          "time": 84.625,
          "velocity": 0.4015748031496063
        },
        {
          "duration": 0.005208333333328596,
          "durationTicks": 4,
          "midi": 41,
          "name": "F2",
          "ticks": 65180,
          "time": 84.86979166666667,
          "velocity": 0.9133858267716536
        },
        {
          "duration": 0.0078125,
          "durationTicks": 6,
          "midi": 38,
          "name": "D2",
          "ticks": 65180,
          "time": 84.86979166666667,
          "velocity": 0.984251968503937
        },
        {
          "duration": 0.0026041666666714036,
          "durationTicks": 2,
          "midi": 42,
          "name": "F#2",
          "ticks": 65182,
          "time": 84.87239583333333,
          "velocity": 0.4015748031496063
        },
        {
          "duration": 0.0026041666666571928,
          "durationTicks": 2,
          "midi": 42,
          "name": "F#2",
          "ticks": 65378,
          "time": 85.12760416666667,
          "velocity": 0.5275590551181102
        },
        {
          "duration": 0.0026041666666571928,
          "durationTicks": 2,
          "midi": 42,
          "name": "F#2",
          "ticks": 65474,
          "time": 85.25260416666667,
          "velocity": 0.30708661417322836
        },
        {
          "duration": 0.0026041666666714036,
          "durationTicks": 2,
          "midi": 42,
          "name": "F#2",
          "ticks": 65574,
          "time": 85.3828125,
          "velocity": 0.48031496062992124
        },
        {
          "duration": 0.0026041666666714036,
          "durationTicks": 2,
          "midi": 35,
          "name": "B1",
          "ticks": 65574,
          "time": 85.3828125,
          "velocity": 0.7874015748031497
        },
        {
          "duration": 0.0026041666666714036,
          "durationTicks": 2,
          "midi": 42,
          "name": "F#2",
          "ticks": 65670,
          "time": 85.5078125,
          "velocity": 0.25984251968503935
        },
        {
          "duration": 0.0026041666666714036,
          "durationTicks": 2,
          "midi": 35,
          "name": "B1",
          "ticks": 65772,
          "time": 85.640625,
          "velocity": 0.7874015748031497
        },
        {
          "duration": 0.0026041666666714036,
          "durationTicks": 2,
          "midi": 42,
          "name": "F#2",
          "ticks": 65772,
          "time": 85.640625,
          "velocity": 0.5275590551181102
        },
        {
          "duration": 0.0078125,
          "durationTicks": 6,
          "midi": 27,
          "name": "D#1",
          "ticks": 65974,
          "time": 85.90364583333333,
          "velocity": 0.9133858267716536
        },
        {
          "duration": 0.0078125,
          "durationTicks": 6,
          "midi": 40,
          "name": "E2",
          "ticks": 65974,
          "time": 85.90364583333333,
          "velocity": 0.6692913385826772
        },
        {
          "duration": 0.005208333333328596,
          "durationTicks": 4,
          "midi": 42,
          "name": "F#2",
          "ticks": 65976,
          "time": 85.90625,
          "velocity": 0.3858267716535433
        },
        {
          "duration": 0.005208333333328596,
          "durationTicks": 4,
          "midi": 36,
          "name": "C2",
          "ticks": 65976,
          "time": 85.90625,
          "velocity": 0.9133858267716536
        },
        {
          "duration": 0.005208333333328596,
          "durationTicks": 4,
          "midi": 38,
          "name": "D2",
          "ticks": 65976,
          "time": 85.90625,
          "velocity": 0.9133858267716536
        },
        {
          "duration": 0.005208333333328596,
          "durationTicks": 4,
          "midi": 28,
          "name": "E1",
          "ticks": 65976,
          "time": 85.90625,
          "velocity": 0.9763779527559056
        },
        {
          "duration": 0.0026041666666714036,
          "durationTicks": 2,
          "midi": 55,
          "name": "G3",
          "ticks": 65980,
          "time": 85.91145833333333,
          "velocity": 0.4015748031496063
        },
        {
          "duration": 0.0026041666666571928,
          "durationTicks": 2,
          "midi": 42,
          "name": "F#2",
          "ticks": 66170,
          "time": 86.15885416666667,
          "velocity": 0.5590551181102362
        },
        {
          "duration": 0.0026041666666571928,
          "durationTicks": 2,
          "midi": 42,
          "name": "F#2",
          "ticks": 66266,
          "time": 86.28385416666667,
          "velocity": 0.30708661417322836
        },
        {
          "duration": 0.0026041666666571928,
          "durationTicks": 2,
          "midi": 35,
          "name": "B1",
          "ticks": 66368,
          "time": 86.41666666666667,
          "velocity": 0.7874015748031497
        },
        {
          "duration": 0.0026041666666714036,
          "durationTicks": 2,
          "midi": 42,
          "name": "F#2",
          "ticks": 66370,
          "time": 86.41927083333333,
          "velocity": 0.5433070866141733
        },
        {
          "duration": 0.0026041666666571928,
          "durationTicks": 2,
          "midi": 35,
          "name": "B1",
          "ticks": 66560,
          "time": 86.66666666666667,
          "velocity": 0.8188976377952756
        },
        {
          "duration": 0.0026041666666714036,
          "durationTicks": 2,
          "midi": 42,
          "name": "F#2",
          "ticks": 66564,
          "time": 86.671875,
          "velocity": 0.4330708661417323
        },
        {
          "duration": 0.010416666666657193,
          "durationTicks": 8,
          "midi": 38,
          "name": "D2",
          "ticks": 66758,
          "time": 86.92447916666667,
          "velocity": 0.9921259842519685
        },
        {
          "duration": 0.0026041666666714036,
          "durationTicks": 2,
          "midi": 40,
          "name": "E2",
          "ticks": 66762,
          "time": 86.9296875,
          "velocity": 0.6850393700787402
        },
        {
          "duration": 0.0026041666666714036,
          "durationTicks": 2,
          "midi": 42,
          "name": "F#2",
          "ticks": 66766,
          "time": 86.93489583333333,
          "velocity": 0.5826771653543307
        },
        {
          "duration": 0.0026041666666571928,
          "durationTicks": 2,
          "midi": 41,
          "name": "F2",
          "ticks": 66770,
          "time": 86.94010416666667,
          "velocity": 0.8661417322834646
        },
        {
          "duration": 0.005208333333342807,
          "durationTicks": 4,
          "midi": 35,
          "name": "B1",
          "ticks": 66964,
          "time": 87.19270833333333,
          "velocity": 0.8110236220472441
        },
        {
          "duration": 0.0078125,
          "durationTicks": 6,
          "midi": 46,
          "name": "A#2",
          "ticks": 66964,
          "time": 87.19270833333333,
          "velocity": 0.5118110236220472
        },
        {
          "duration": 0.0078125,
          "durationTicks": 6,
          "midi": 52,
          "name": "E3",
          "ticks": 66964,
          "time": 87.19270833333333,
          "velocity": 0.4645669291338583
        },
        {
          "duration": 0.0078125,
          "durationTicks": 6,
          "midi": 49,
          "name": "C#3",
          "ticks": 66964,
          "time": 87.19270833333333,
          "velocity": 0.4881889763779528
        },
        {
          "duration": 0.005208333333342807,
          "durationTicks": 4,
          "midi": 42,
          "name": "F#2",
          "ticks": 67156,
          "time": 87.44270833333333,
          "velocity": 0.44881889763779526
        },
        {
          "duration": 0.0026041666666571928,
          "durationTicks": 2,
          "midi": 42,
          "name": "F#2",
          "ticks": 67352,
          "time": 87.69791666666667,
          "velocity": 0.48031496062992124
        },
        {
          "duration": 0.0078125,
          "durationTicks": 6,
          "midi": 38,
          "name": "D2",
          "ticks": 67556,
          "time": 87.96354166666667,
          "velocity": 0.9921259842519685
        },
        {
          "duration": 0.0026041666666714036,
          "durationTicks": 2,
          "midi": 40,
          "name": "E2",
          "ticks": 67558,
          "time": 87.96614583333333,
          "velocity": 0.6850393700787402
        },
        {
          "duration": 0.0026041666666714036,
          "durationTicks": 2,
          "midi": 42,
          "name": "F#2",
          "ticks": 67558,
          "time": 87.96614583333333,
          "velocity": 0.5669291338582677
        },
        {
          "duration": 0.0026041666666714036,
          "durationTicks": 2,
          "midi": 42,
          "name": "F#2",
          "ticks": 67752,
          "time": 88.21875,
          "velocity": 0.5669291338582677
        },
        {
          "duration": 0.0026041666666571928,
          "durationTicks": 2,
          "midi": 42,
          "name": "F#2",
          "ticks": 67850,
          "time": 88.34635416666667,
          "velocity": 0.3228346456692913
        },
        {
          "duration": 0.0026041666666571928,
          "durationTicks": 2,
          "midi": 35,
          "name": "B1",
          "ticks": 67952,
          "time": 88.47916666666667,
          "velocity": 0.7716535433070866
        },
        {
          "duration": 0.0026041666666571928,
          "durationTicks": 2,
          "midi": 42,
          "name": "F#2",
          "ticks": 67952,
          "time": 88.47916666666667,
          "velocity": 0.5590551181102362
        },
        {
          "duration": 0.010416666666671404,
          "durationTicks": 8,
          "midi": 42,
          "name": "F#2",
          "ticks": 68146,
          "time": 88.73177083333333,
          "velocity": 0.5669291338582677
        },
        {
          "duration": 0.005208333333328596,
          "durationTicks": 4,
          "midi": 35,
          "name": "B1",
          "ticks": 68148,
          "time": 88.734375,
          "velocity": 0.8031496062992126
        },
        {
          "duration": 0.005208333333342807,
          "durationTicks": 4,
          "midi": 38,
          "name": "D2",
          "ticks": 68344,
          "time": 88.98958333333333,
          "velocity": 0.984251968503937
        },
        {
          "duration": 0.0026041666666714036,
          "durationTicks": 2,
          "midi": 40,
          "name": "E2",
          "ticks": 68346,
          "time": 88.9921875,
          "velocity": 0.6771653543307087
        },
        {
          "duration": 0.0026041666666571928,
          "durationTicks": 2,
          "midi": 42,
          "name": "F#2",
          "ticks": 68348,
          "time": 88.99479166666667,
          "velocity": 0.2755905511811024
        },
        {
          "duration": 0.0026041666666714036,
          "durationTicks": 2,
          "midi": 42,
          "name": "F#2",
          "ticks": 68542,
          "time": 89.24739583333333,
          "velocity": 0.49606299212598426
        },
        {
          "duration": 0.0026041666666571928,
          "durationTicks": 2,
          "midi": 42,
          "name": "F#2",
          "ticks": 68642,
          "time": 89.37760416666667,
          "velocity": 0.3228346456692913
        },
        {
          "duration": 0.005208333333328596,
          "durationTicks": 4,
          "midi": 42,
          "name": "F#2",
          "ticks": 68742,
          "time": 89.5078125,
          "velocity": 0.5669291338582677
        },
        {
          "duration": 0.005208333333342807,
          "durationTicks": 4,
          "midi": 35,
          "name": "B1",
          "ticks": 68746,
          "time": 89.51302083333333,
          "velocity": 0.8188976377952756
        },
        {
          "duration": 0.0078125,
          "durationTicks": 6,
          "midi": 42,
          "name": "F#2",
          "ticks": 68940,
          "time": 89.765625,
          "velocity": 0.5669291338582677
        },
        {
          "duration": 0.0026041666666571928,
          "durationTicks": 2,
          "midi": 35,
          "name": "B1",
          "ticks": 68942,
          "time": 89.76822916666667,
          "velocity": 0.8110236220472441
        },
        {
          "duration": 0.005208333333342807,
          "durationTicks": 4,
          "midi": 42,
          "name": "F#2",
          "ticks": 69136,
          "time": 90.02083333333333,
          "velocity": 0.33858267716535434
        },
        {
          "duration": 0.005208333333328596,
          "durationTicks": 4,
          "midi": 38,
          "name": "D2",
          "ticks": 69140,
          "time": 90.02604166666667,
          "velocity": 0.9763779527559056
        },
        {
          "duration": 0.0026041666666714036,
          "durationTicks": 2,
          "midi": 40,
          "name": "E2",
          "ticks": 69142,
          "time": 90.02864583333333,
          "velocity": 0.6692913385826772
        },
        {
          "duration": 0.0026041666666714036,
          "durationTicks": 2,
          "midi": 42,
          "name": "F#2",
          "ticks": 69336,
          "time": 90.28125,
          "velocity": 0.5118110236220472
        },
        {
          "duration": 0.005208333333328596,
          "durationTicks": 4,
          "midi": 42,
          "name": "F#2",
          "ticks": 69434,
          "time": 90.40885416666667,
          "velocity": 0.3228346456692913
        },
        {
          "duration": 0.0078125,
          "durationTicks": 6,
          "midi": 42,
          "name": "F#2",
          "ticks": 69532,
          "time": 90.53645833333333,
          "velocity": 0.5275590551181102
        },
        {
          "duration": 0.0026041666666571928,
          "durationTicks": 2,
          "midi": 35,
          "name": "B1",
          "ticks": 69536,
          "time": 90.54166666666667,
          "velocity": 0.8188976377952756
        },
        {
          "duration": 0.0026041666666714036,
          "durationTicks": 2,
          "midi": 42,
          "name": "F#2",
          "ticks": 69630,
          "time": 90.6640625,
          "velocity": 0.3228346456692913
        },
        {
          "duration": 0.0078125,
          "durationTicks": 6,
          "midi": 42,
          "name": "F#2",
          "ticks": 69730,
          "time": 90.79427083333333,
          "velocity": 0.5748031496062992
        },
        {
          "duration": 0.0026041666666714036,
          "durationTicks": 2,
          "midi": 35,
          "name": "B1",
          "ticks": 69732,
          "time": 90.796875,
          "velocity": 0.8188976377952756
        },
        {
          "duration": 0.005208333333342807,
          "durationTicks": 4,
          "midi": 38,
          "name": "D2",
          "ticks": 69928,
          "time": 91.05208333333333,
          "velocity": 0.984251968503937
        },
        {
          "duration": 0.0026041666666714036,
          "durationTicks": 2,
          "midi": 40,
          "name": "E2",
          "ticks": 69930,
          "time": 91.0546875,
          "velocity": 0.6771653543307087
        },
        {
          "duration": 0.0026041666666571928,
          "durationTicks": 2,
          "midi": 42,
          "name": "F#2",
          "ticks": 69932,
          "time": 91.05729166666667,
          "velocity": 0.44881889763779526
        },
        {
          "duration": 0.005208333333342807,
          "durationTicks": 4,
          "midi": 46,
          "name": "A#2",
          "ticks": 70126,
          "time": 91.30989583333333,
          "velocity": 0.5275590551181102
        },
        {
          "duration": 0.0026041666666714036,
          "durationTicks": 2,
          "midi": 35,
          "name": "B1",
          "ticks": 70128,
          "time": 91.3125,
          "velocity": 0.8267716535433071
        },
        {
          "duration": 0.0026041666666714036,
          "durationTicks": 2,
          "midi": 42,
          "name": "F#2",
          "ticks": 70324,
          "time": 91.56770833333333,
          "velocity": 0.4645669291338583
        },
        {
          "duration": 0.0026041666666714036,
          "durationTicks": 2,
          "midi": 42,
          "name": "F#2",
          "ticks": 70524,
          "time": 91.828125,
          "velocity": 0.5669291338582677
        },
        {
          "duration": 0.0078125,
          "durationTicks": 6,
          "midi": 40,
          "name": "E2",
          "ticks": 70722,
          "time": 92.0859375,
          "velocity": 0.6929133858267716
        },
        {
          "duration": 0.0078125,
          "durationTicks": 6,
          "midi": 38,
          "name": "D2",
          "ticks": 70722,
          "time": 92.0859375,
          "velocity": 1
        },
        {
          "duration": 0.0026041666666571928,
          "durationTicks": 2,
          "midi": 42,
          "name": "F#2",
          "ticks": 70724,
          "time": 92.08854166666667,
          "velocity": 0.5748031496062992
        },
        {
          "duration": 0.0026041666666571928,
          "durationTicks": 2,
          "midi": 42,
          "name": "F#2",
          "ticks": 70820,
          "time": 92.21354166666667,
          "velocity": 0.29133858267716534
        },
        {
          "duration": 0.005208333333328596,
          "durationTicks": 4,
          "midi": 42,
          "name": "F#2",
          "ticks": 70916,
          "time": 92.33854166666667,
          "velocity": 0.49606299212598426
        },
        {
          "duration": 0.0026041666666714036,
          "durationTicks": 2,
          "midi": 42,
          "name": "F#2",
          "ticks": 71016,
          "time": 92.46875,
          "velocity": 0.29133858267716534
        },
        {
          "duration": 0.005208333333342807,
          "durationTicks": 4,
          "midi": 42,
          "name": "F#2",
          "ticks": 71116,
          "time": 92.59895833333333,
          "velocity": 0.5590551181102362
        },
        {
          "duration": 0.0026041666666714036,
          "durationTicks": 2,
          "midi": 35,
          "name": "B1",
          "ticks": 71118,
          "time": 92.6015625,
          "velocity": 0.8188976377952756
        },
        {
          "duration": 0.0078125,
          "durationTicks": 6,
          "midi": 42,
          "name": "F#2",
          "ticks": 71312,
          "time": 92.85416666666667,
          "velocity": 0.5433070866141733
        },
        {
          "duration": 0.0026041666666714036,
          "durationTicks": 2,
          "midi": 35,
          "name": "B1",
          "ticks": 71316,
          "time": 92.859375,
          "velocity": 0.8188976377952756
        },
        {
          "duration": 0.005208333333342807,
          "durationTicks": 4,
          "midi": 38,
          "name": "D2",
          "ticks": 71512,
          "time": 93.11458333333333,
          "velocity": 0.9921259842519685
        },
        {
          "duration": 0.0026041666666714036,
          "durationTicks": 2,
          "midi": 40,
          "name": "E2",
          "ticks": 71514,
          "time": 93.1171875,
          "velocity": 0.6850393700787402
        },
        {
          "duration": 0.0026041666666714036,
          "durationTicks": 2,
          "midi": 42,
          "name": "F#2",
          "ticks": 71712,
          "time": 93.375,
          "velocity": 0.5826771653543307
        },
        {
          "duration": 0.0026041666666714036,
          "durationTicks": 2,
          "midi": 42,
          "name": "F#2",
          "ticks": 71808,
          "time": 93.5,
          "velocity": 0.33858267716535434
        },
        {
          "duration": 0.0026041666666714036,
          "durationTicks": 2,
          "midi": 42,
          "name": "F#2",
          "ticks": 71908,
          "time": 93.63020833333333,
          "velocity": 0.5275590551181102
        },
        {
          "duration": 0.005208333333328596,
          "durationTicks": 4,
          "midi": 35,
          "name": "B1",
          "ticks": 71912,
          "time": 93.63541666666667,
          "velocity": 0.8031496062992126
        },
        {
          "duration": 0.0078125,
          "durationTicks": 6,
          "midi": 27,
          "name": "D#1",
          "ticks": 72110,
          "time": 93.89322916666667,
          "velocity": 0.8346456692913385
        },
        {
          "duration": 0.005208333333342807,
          "durationTicks": 4,
          "midi": 42,
          "name": "F#2",
          "ticks": 72112,
          "time": 93.89583333333333,
          "velocity": 0.5118110236220472
        },
        {
          "duration": 0.005208333333342807,
          "durationTicks": 4,
          "midi": 55,
          "name": "G3",
          "ticks": 72112,
          "time": 93.89583333333333,
          "velocity": 0.4015748031496063
        },
        {
          "duration": 0.005208333333342807,
          "durationTicks": 4,
          "midi": 28,
          "name": "E1",
          "ticks": 72112,
          "time": 93.89583333333333,
          "velocity": 0.9291338582677166
        },
        {
          "duration": 0.005208333333342807,
          "durationTicks": 4,
          "midi": 38,
          "name": "D2",
          "ticks": 72112,
          "time": 93.89583333333333,
          "velocity": 0.8661417322834646
        },
        {
          "duration": 0.0026041666666571928,
          "durationTicks": 2,
          "midi": 35,
          "name": "B1",
          "ticks": 72116,
          "time": 93.90104166666667,
          "velocity": 0.8188976377952756
        },
        {
          "duration": 0.0026041666666571928,
          "durationTicks": 2,
          "midi": 27,
          "name": "D#1",
          "ticks": 72206,
          "time": 94.01822916666667,
          "velocity": 0.4015748031496063
        },
        {
          "duration": 0.005208333333328596,
          "durationTicks": 4,
          "midi": 38,
          "name": "D2",
          "ticks": 72206,
          "time": 94.01822916666667,
          "velocity": 0.2755905511811024
        },
        {
          "duration": 0.0026041666666714036,
          "durationTicks": 2,
          "midi": 28,
          "name": "E1",
          "ticks": 72208,
          "time": 94.02083333333333,
          "velocity": 0.8818897637795275
        },
        {
          "duration": 0.0026041666666571928,
          "durationTicks": 2,
          "midi": 55,
          "name": "G3",
          "ticks": 72212,
          "time": 94.02604166666667,
          "velocity": 0.4015748031496063
        },
        {
          "duration": 0.0026041666666714036,
          "durationTicks": 2,
          "midi": 40,
          "name": "E2",
          "ticks": 72306,
          "time": 94.1484375,
          "velocity": 0.6771653543307087
        },
        {
          "duration": 0.0026041666666714036,
          "durationTicks": 2,
          "midi": 38,
          "name": "D2",
          "ticks": 72306,
          "time": 94.1484375,
          "velocity": 0.984251968503937
        },
        {
          "duration": 0.0078125,
          "durationTicks": 6,
          "midi": 27,
          "name": "D#1",
          "ticks": 72402,
          "time": 94.2734375,
          "velocity": 0.8976377952755905
        },
        {
          "duration": 0.0026041666666571928,
          "durationTicks": 2,
          "midi": 28,
          "name": "E1",
          "ticks": 72404,
          "time": 94.27604166666667,
          "velocity": 0.9291338582677166
        },
        {
          "duration": 0.0026041666666714036,
          "durationTicks": 2,
          "midi": 38,
          "name": "D2",
          "ticks": 72406,
          "time": 94.27864583333333,
          "velocity": 0.8188976377952756
        },
        {
          "duration": 0.0026041666666714036,
          "durationTicks": 2,
          "midi": 55,
          "name": "G3",
          "ticks": 72408,
          "time": 94.28125,
          "velocity": 0.4015748031496063
        },
        {
          "duration": 0.010416666666657193,
          "durationTicks": 8,
          "midi": 27,
          "name": "D#1",
          "ticks": 72500,
          "time": 94.40104166666667,
          "velocity": 0.9763779527559056
        },
        {
          "duration": 0.0026041666666714036,
          "durationTicks": 2,
          "midi": 28,
          "name": "E1",
          "ticks": 72504,
          "time": 94.40625,
          "velocity": 1
        },
        {
          "duration": 0.0026041666666714036,
          "durationTicks": 2,
          "midi": 38,
          "name": "D2",
          "ticks": 72504,
          "time": 94.40625,
          "velocity": 1
        },
        {
          "duration": 0.0026041666666714036,
          "durationTicks": 2,
          "midi": 42,
          "name": "F#2",
          "ticks": 72510,
          "time": 94.4140625,
          "velocity": 0.5826771653543307
        },
        {
          "duration": 0.005208333333328596,
          "durationTicks": 4,
          "midi": 55,
          "name": "G3",
          "ticks": 72602,
          "time": 94.53385416666667,
          "velocity": 0.4015748031496063
        },
        {
          "duration": 0.0026041666666714036,
          "durationTicks": 2,
          "midi": 42,
          "name": "F#2",
          "ticks": 72604,
          "time": 94.53645833333333,
          "velocity": 0.3700787401574803
        },
        {
          "duration": 0.010416666666657193,
          "durationTicks": 8,
          "midi": 38,
          "name": "D2",
          "ticks": 72704,
          "time": 94.66666666666667,
          "velocity": 0.9763779527559056
        },
        {
          "duration": 0.010416666666657193,
          "durationTicks": 8,
          "midi": 28,
          "name": "E1",
          "ticks": 72704,
          "time": 94.66666666666667,
          "velocity": 0.9291338582677166
        },
        {
          "duration": 0.0078125,
          "durationTicks": 6,
          "midi": 27,
          "name": "D#1",
          "ticks": 72704,
          "time": 94.66666666666667,
          "velocity": 0.9291338582677166
        },
        {
          "duration": 0.0026041666666714036,
          "durationTicks": 2,
          "midi": 42,
          "name": "F#2",
          "ticks": 72706,
          "time": 94.66927083333333,
          "velocity": 0.5433070866141733
        },
        {
          "duration": 0.0078125,
          "durationTicks": 6,
          "midi": 55,
          "name": "G3",
          "ticks": 72712,
          "time": 94.67708333333333,
          "velocity": 0.4015748031496063
        },
        {
          "duration": 0.0026041666666714036,
          "durationTicks": 2,
          "midi": 35,
          "name": "B1",
          "ticks": 72714,
          "time": 94.6796875,
          "velocity": 0.8346456692913385
        },
        {
          "duration": 0.005208333333328596,
          "durationTicks": 4,
          "midi": 35,
          "name": "B1",
          "ticks": 72896,
          "time": 94.91666666666667,
          "velocity": 0.8503937007874016
        },
        {
          "duration": 0.005208333333328596,
          "durationTicks": 4,
          "midi": 42,
          "name": "F#2",
          "ticks": 72900,
          "time": 94.921875,
          "velocity": 0.3543307086614173
        },
        {
          "duration": 0.010416666666671404,
          "durationTicks": 8,
          "midi": 38,
          "name": "D2",
          "ticks": 73098,
          "time": 95.1796875,
          "velocity": 0.984251968503937
        },
        {
          "duration": 0.0078125,
          "durationTicks": 6,
          "midi": 27,
          "name": "D#1",
          "ticks": 73100,
          "time": 95.18229166666667,
          "velocity": 0.8818897637795275
        },
        {
          "duration": 0.0078125,
          "durationTicks": 6,
          "midi": 40,
          "name": "E2",
          "ticks": 73100,
          "time": 95.18229166666667,
          "velocity": 0.6771653543307087
        },
        {
          "duration": 0.0078125,
          "durationTicks": 6,
          "midi": 28,
          "name": "E1",
          "ticks": 73102,
          "time": 95.18489583333333,
          "velocity": 0.9763779527559056
        },
        {
          "duration": 0.0026041666666714036,
          "durationTicks": 2,
          "midi": 29,
          "name": "F1",
          "ticks": 73104,
          "time": 95.1875,
          "velocity": 0.6456692913385826
        },
        {
          "duration": 0.005208333333342807,
          "durationTicks": 4,
          "midi": 55,
          "name": "G3",
          "ticks": 73108,
          "time": 95.19270833333333,
          "velocity": 0.4015748031496063
        },
        {
          "duration": 0.0026041666666714036,
          "durationTicks": 2,
          "midi": 42,
          "name": "F#2",
          "ticks": 73110,
          "time": 95.1953125,
          "velocity": 0.5590551181102362
        },
        {
          "duration": 0.010416666666657193,
          "durationTicks": 8,
          "midi": 52,
          "name": "E3",
          "ticks": 73298,
          "time": 95.44010416666667,
          "velocity": 0.49606299212598426
        },
        {
          "duration": 0.0078125,
          "durationTicks": 6,
          "midi": 49,
          "name": "C#3",
          "ticks": 73298,
          "time": 95.44010416666667,
          "velocity": 0.5196850393700787
        },
        {
          "duration": 0.0078125,
          "durationTicks": 6,
          "midi": 46,
          "name": "A#2",
          "ticks": 73300,
          "time": 95.44270833333333,
          "velocity": 0.5433070866141733
        },
        {
          "duration": 0.005208333333342807,
          "durationTicks": 4,
          "midi": 35,
          "name": "B1",
          "ticks": 73300,
          "time": 95.44270833333333,
          "velocity": 0.8503937007874016
        },
        {
          "duration": 0.0026041666666714036,
          "durationTicks": 2,
          "midi": 42,
          "name": "F#2",
          "ticks": 73492,
          "time": 95.69270833333333,
          "velocity": 0.4094488188976378
        },
        {
          "duration": 0.0026041666666714036,
          "durationTicks": 2,
          "midi": 42,
          "name": "F#2",
          "ticks": 73690,
          "time": 95.95052083333333,
          "velocity": 0.5275590551181102
        },
        {
          "duration": 0.0078125,
          "durationTicks": 6,
          "midi": 38,
          "name": "D2",
          "ticks": 73890,
          "time": 96.2109375,
          "velocity": 1
        },
        {
          "duration": 0.005208333333328596,
          "durationTicks": 4,
          "midi": 40,
          "name": "E2",
          "ticks": 73890,
          "time": 96.2109375,
          "velocity": 0.6929133858267716
        },
        {
          "duration": 0.0026041666666571928,
          "durationTicks": 2,
          "midi": 42,
          "name": "F#2",
          "ticks": 73892,
          "time": 96.21354166666667,
          "velocity": 0.5669291338582677
        },
        {
          "duration": 0.0026041666666714036,
          "durationTicks": 2,
          "midi": 42,
          "name": "F#2",
          "ticks": 73984,
          "time": 96.33333333333333,
          "velocity": 0.2755905511811024
        },
        {
          "duration": 0.0026041666666571928,
          "durationTicks": 2,
          "midi": 42,
          "name": "F#2",
          "ticks": 74084,
          "time": 96.46354166666667,
          "velocity": 0.48031496062992124
        },
        {
          "duration": 0.0026041666666714036,
          "durationTicks": 2,
          "midi": 42,
          "name": "F#2",
          "ticks": 74184,
          "time": 96.59375,
          "velocity": 0.2755905511811024
        },
        {
          "duration": 0.0078125,
          "durationTicks": 6,
          "midi": 42,
          "name": "F#2",
          "ticks": 74282,
          "time": 96.72135416666667,
          "velocity": 0.5433070866141733
        },
        {
          "duration": 0.0026041666666571928,
          "durationTicks": 2,
          "midi": 35,
          "name": "B1",
          "ticks": 74288,
          "time": 96.72916666666667,
          "velocity": 0.8503937007874016
        },
        {
          "duration": 0.0078125,
          "durationTicks": 6,
          "midi": 42,
          "name": "F#2",
          "ticks": 74482,
          "time": 96.98177083333333,
          "velocity": 0.5669291338582677
        },
        {
          "duration": 0.0026041666666714036,
          "durationTicks": 2,
          "midi": 35,
          "name": "B1",
          "ticks": 74484,
          "time": 96.984375,
          "velocity": 0.8188976377952756
        },
        {
          "duration": 0.0026041666666571928,
          "durationTicks": 2,
          "midi": 40,
          "name": "E2",
          "ticks": 74678,
          "time": 97.23697916666667,
          "velocity": 0.6929133858267716
        },
        {
          "duration": 0.005208333333328596,
          "durationTicks": 4,
          "midi": 38,
          "name": "D2",
          "ticks": 74678,
          "time": 97.23697916666667,
          "velocity": 1
        },
        {
          "duration": 0.0026041666666714036,
          "durationTicks": 2,
          "midi": 42,
          "name": "F#2",
          "ticks": 74682,
          "time": 97.2421875,
          "velocity": 0.25984251968503935
        },
        {
          "duration": 0.0026041666666571928,
          "durationTicks": 2,
          "midi": 42,
          "name": "F#2",
          "ticks": 74876,
          "time": 97.49479166666667,
          "velocity": 0.5669291338582677
        },
        {
          "duration": 0.0026041666666714036,
          "durationTicks": 2,
          "midi": 42,
          "name": "F#2",
          "ticks": 74976,
          "time": 97.625,
          "velocity": 0.30708661417322836
        },
        {
          "duration": 0.0026041666666714036,
          "durationTicks": 2,
          "midi": 42,
          "name": "F#2",
          "ticks": 75078,
          "time": 97.7578125,
          "velocity": 0.5748031496062992
        },
        {
          "duration": 0.005208333333328596,
          "durationTicks": 4,
          "midi": 35,
          "name": "B1",
          "ticks": 75080,
          "time": 97.76041666666667,
          "velocity": 0.8188976377952756
        },
        {
          "duration": 0.005208333333342807,
          "durationTicks": 4,
          "midi": 42,
          "name": "F#2",
          "ticks": 75274,
          "time": 98.01302083333333,
          "velocity": 0.5826771653543307
        },
        {
          "duration": 0.0026041666666714036,
          "durationTicks": 2,
          "midi": 35,
          "name": "B1",
          "ticks": 75280,
          "time": 98.02083333333333,
          "velocity": 0.8503937007874016
        },
        {
          "duration": 0.005208333333328596,
          "durationTicks": 4,
          "midi": 42,
          "name": "F#2",
          "ticks": 75468,
          "time": 98.265625,
          "velocity": 0.29133858267716534
        },
        {
          "duration": 0.0026041666666714036,
          "durationTicks": 2,
          "midi": 38,
          "name": "D2",
          "ticks": 75474,
          "time": 98.2734375,
          "velocity": 0.984251968503937
        },
        {
          "duration": 0.0026041666666571928,
          "durationTicks": 2,
          "midi": 40,
          "name": "E2",
          "ticks": 75476,
          "time": 98.27604166666667,
          "velocity": 0.6771653543307087
        },
        {
          "duration": 0.0026041666666571928,
          "durationTicks": 2,
          "midi": 42,
          "name": "F#2",
          "ticks": 75668,
          "time": 98.52604166666667,
          "velocity": 0.5669291338582677
        },
        {
          "duration": 0.0026041666666714036,
          "durationTicks": 2,
          "midi": 42,
          "name": "F#2",
          "ticks": 75768,
          "time": 98.65625,
          "velocity": 0.30708661417322836
        },
        {
          "duration": 0.0026041666666714036,
          "durationTicks": 2,
          "midi": 42,
          "name": "F#2",
          "ticks": 75870,
          "time": 98.7890625,
          "velocity": 0.5748031496062992
        },
        {
          "duration": 0.0026041666666714036,
          "durationTicks": 2,
          "midi": 35,
          "name": "B1",
          "ticks": 75874,
          "time": 98.79427083333333,
          "velocity": 0.8346456692913385
        },
        {
          "duration": 0.0026041666666714036,
          "durationTicks": 2,
          "midi": 42,
          "name": "F#2",
          "ticks": 75964,
          "time": 98.91145833333333,
          "velocity": 0.30708661417322836
        },
        {
          "duration": 0.0026041666666571928,
          "durationTicks": 2,
          "midi": 42,
          "name": "F#2",
          "ticks": 76064,
          "time": 99.04166666666667,
          "velocity": 0.5669291338582677
        },
        {
          "duration": 0.0026041666666714036,
          "durationTicks": 2,
          "midi": 35,
          "name": "B1",
          "ticks": 76068,
          "time": 99.046875,
          "velocity": 0.8346456692913385
        },
        {
          "duration": 0.0026041666666714036,
          "durationTicks": 2,
          "midi": 42,
          "name": "F#2",
          "ticks": 76258,
          "time": 99.29427083333333,
          "velocity": 0.4015748031496063
        },
        {
          "duration": 0.0026041666666714036,
          "durationTicks": 2,
          "midi": 40,
          "name": "E2",
          "ticks": 76264,
          "time": 99.30208333333333,
          "velocity": 0.6850393700787402
        },
        {
          "duration": 0.0026041666666714036,
          "durationTicks": 2,
          "midi": 38,
          "name": "D2",
          "ticks": 76264,
          "time": 99.30208333333333,
          "velocity": 0.9921259842519685
        },
        {
          "duration": 0.0026041666666714036,
          "durationTicks": 2,
          "midi": 35,
          "name": "B1",
          "ticks": 76462,
          "time": 99.55989583333333,
          "velocity": 0.8503937007874016
        },
        {
          "duration": 0.0026041666666714036,
          "durationTicks": 2,
          "midi": 46,
          "name": "A#2",
          "ticks": 76462,
          "time": 99.55989583333333,
          "velocity": 0.48031496062992124
        },
        {
          "duration": 0.0026041666666571928,
          "durationTicks": 2,
          "midi": 42,
          "name": "F#2",
          "ticks": 76658,
          "time": 99.81510416666667,
          "velocity": 0.4566929133858268
        },
        {
          "duration": 0.0026041666666571928,
          "durationTicks": 2,
          "midi": 42,
          "name": "F#2",
          "ticks": 76856,
          "time": 100.07291666666667,
          "velocity": 0.5905511811023622
        },
        {
          "duration": 0.005208333333328596,
          "durationTicks": 4,
          "midi": 40,
          "name": "E2",
          "ticks": 77054,
          "time": 100.33072916666667,
          "velocity": 0.6850393700787402
        },
        {
          "duration": 0.005208333333328596,
          "durationTicks": 4,
          "midi": 38,
          "name": "D2",
          "ticks": 77054,
          "time": 100.33072916666667,
          "velocity": 0.9921259842519685
        },
        {
          "duration": 0.0026041666666714036,
          "durationTicks": 2,
          "midi": 42,
          "name": "F#2",
          "ticks": 77058,
          "time": 100.3359375,
          "velocity": 0.5433070866141733
        },
        {
          "duration": 0.0026041666666714036,
          "durationTicks": 2,
          "midi": 42,
          "name": "F#2",
          "ticks": 77152,
          "time": 100.45833333333333,
          "velocity": 0.2755905511811024
        },
        {
          "duration": 0.0026041666666571928,
          "durationTicks": 2,
          "midi": 42,
          "name": "F#2",
          "ticks": 77252,
          "time": 100.58854166666667,
          "velocity": 0.5275590551181102
        },
        {
          "duration": 0.0026041666666714036,
          "durationTicks": 2,
          "midi": 42,
          "name": "F#2",
          "ticks": 77350,
          "time": 100.71614583333333,
          "velocity": 0.30708661417322836
        },
        {
          "duration": 0.0026041666666714036,
          "durationTicks": 2,
          "midi": 35,
          "name": "B1",
          "ticks": 77452,
          "time": 100.84895833333333,
          "velocity": 0.8346456692913385
        },
        {
          "duration": 0.005208333333342807,
          "durationTicks": 4,
          "midi": 42,
          "name": "F#2",
          "ticks": 77452,
          "time": 100.84895833333333,
          "velocity": 0.5118110236220472
        },
        {
          "duration": 0.005208333333328596,
          "durationTicks": 4,
          "midi": 42,
          "name": "F#2",
          "ticks": 77646,
          "time": 101.1015625,
          "velocity": 0.5748031496062992
        },
        {
          "duration": 0.0026041666666714036,
          "durationTicks": 2,
          "midi": 35,
          "name": "B1",
          "ticks": 77650,
          "time": 101.10677083333333,
          "velocity": 0.8346456692913385
        },
        {
          "duration": 0.005208333333328596,
          "durationTicks": 4,
          "midi": 38,
          "name": "D2",
          "ticks": 77844,
          "time": 101.359375,
          "velocity": 0.984251968503937
        },
        {
          "duration": 0.0026041666666571928,
          "durationTicks": 2,
          "midi": 40,
          "name": "E2",
          "ticks": 77846,
          "time": 101.36197916666667,
          "velocity": 0.6771653543307087
        },
        {
          "duration": 0.005208333333342807,
          "durationTicks": 4,
          "midi": 42,
          "name": "F#2",
          "ticks": 78040,
          "time": 101.61458333333333,
          "velocity": 0.5275590551181102
        },
        {
          "duration": 0.005208333333328596,
          "durationTicks": 4,
          "midi": 42,
          "name": "F#2",
          "ticks": 78140,
          "time": 101.74479166666667,
          "velocity": 0.3228346456692913
        },
        {
          "duration": 0.0026041666666714036,
          "durationTicks": 2,
          "midi": 42,
          "name": "F#2",
          "ticks": 78238,
          "time": 101.87239583333333,
          "velocity": 0.5433070866141733
        },
        {
          "duration": 0.005208333333342807,
          "durationTicks": 4,
          "midi": 35,
          "name": "B1",
          "ticks": 78244,
          "time": 101.88020833333333,
          "velocity": 0.84251968503937
        },
        {
          "duration": 0.0026041666666571928,
          "durationTicks": 2,
          "midi": 42,
          "name": "F#2",
          "ticks": 78440,
          "time": 102.13541666666667,
          "velocity": 0.5433070866141733
        },
        {
          "duration": 0.0026041666666714036,
          "durationTicks": 2,
          "midi": 35,
          "name": "B1",
          "ticks": 78444,
          "time": 102.140625,
          "velocity": 0.8503937007874016
        },
        {
          "duration": 0.0026041666666571928,
          "durationTicks": 2,
          "midi": 38,
          "name": "D2",
          "ticks": 78638,
          "time": 102.39322916666667,
          "velocity": 0.9921259842519685
        },
        {
          "duration": 0.0026041666666714036,
          "durationTicks": 2,
          "midi": 40,
          "name": "E2",
          "ticks": 78640,
          "time": 102.39583333333333,
          "velocity": 0.6850393700787402
        },
        {
          "duration": 0.0026041666666571928,
          "durationTicks": 2,
          "midi": 42,
          "name": "F#2",
          "ticks": 78836,
          "time": 102.65104166666667,
          "velocity": 0.5669291338582677
        },
        {
          "duration": 0.0026041666666714036,
          "durationTicks": 2,
          "midi": 42,
          "name": "F#2",
          "ticks": 78930,
          "time": 102.7734375,
          "velocity": 0.30708661417322836
        },
        {
          "duration": 0.005208333333328596,
          "durationTicks": 4,
          "midi": 42,
          "name": "F#2",
          "ticks": 79034,
          "time": 102.90885416666667,
          "velocity": 0.5433070866141733
        },
        {
          "duration": 0.0026041666666714036,
          "durationTicks": 2,
          "midi": 35,
          "name": "B1",
          "ticks": 79036,
          "time": 102.91145833333333,
          "velocity": 0.8503937007874016
        },
        {
          "duration": 0.005208333333328596,
          "durationTicks": 4,
          "midi": 42,
          "name": "F#2",
          "ticks": 79130,
          "time": 103.03385416666667,
          "velocity": 0.12598425196850394
        },
        {
          "duration": 0.0078125,
          "durationTicks": 6,
          "midi": 42,
          "name": "F#2",
          "ticks": 79226,
          "time": 103.15885416666667,
          "velocity": 0.5433070866141733
        },
        {
          "duration": 0.0026041666666714036,
          "durationTicks": 2,
          "midi": 35,
          "name": "B1",
          "ticks": 79234,
          "time": 103.16927083333333,
          "velocity": 0.8346456692913385
        },
        {
          "duration": 0.0026041666666714036,
          "durationTicks": 2,
          "midi": 42,
          "name": "F#2",
          "ticks": 79426,
          "time": 103.41927083333333,
          "velocity": 0.3700787401574803
        },
        {
          "duration": 0.0026041666666571928,
          "durationTicks": 2,
          "midi": 38,
          "name": "D2",
          "ticks": 79430,
          "time": 103.42447916666667,
          "velocity": 0.9921259842519685
        },
        {
          "duration": 0.0026041666666714036,
          "durationTicks": 2,
          "midi": 40,
          "name": "E2",
          "ticks": 79432,
          "time": 103.42708333333333,
          "velocity": 0.6850393700787402
        },
        {
          "duration": 0.005208333333328596,
          "durationTicks": 4,
          "midi": 46,
          "name": "A#2",
          "ticks": 79628,
          "time": 103.68229166666667,
          "velocity": 0.5433070866141733
        },
        {
          "duration": 0.0026041666666571928,
          "durationTicks": 2,
          "midi": 35,
          "name": "B1",
          "ticks": 79634,
          "time": 103.69010416666667,
          "velocity": 0.8503937007874016
        },
        {
          "duration": 0.0026041666666571928,
          "durationTicks": 2,
          "midi": 42,
          "name": "F#2",
          "ticks": 79826,
          "time": 103.94010416666667,
          "velocity": 0.44881889763779526
        },
        {
          "duration": 0.0026041666666571928,
          "durationTicks": 2,
          "midi": 42,
          "name": "F#2",
          "ticks": 80024,
          "time": 104.19791666666667,
          "velocity": 0.5433070866141733
        },
        {
          "duration": 0.0078125,
          "durationTicks": 6,
          "midi": 40,
          "name": "E2",
          "ticks": 80218,
          "time": 104.45052083333333,
          "velocity": 0.6771653543307087
        },
        {
          "duration": 0.0078125,
          "durationTicks": 6,
          "midi": 38,
          "name": "D2",
          "ticks": 80218,
          "time": 104.45052083333333,
          "velocity": 0.984251968503937
        },
        {
          "duration": 0.0026041666666714036,
          "durationTicks": 2,
          "midi": 42,
          "name": "F#2",
          "ticks": 80226,
          "time": 104.4609375,
          "velocity": 0.5826771653543307
        },
        {
          "duration": 0.0026041666666714036,
          "durationTicks": 2,
          "midi": 42,
          "name": "F#2",
          "ticks": 80320,
          "time": 104.58333333333333,
          "velocity": 0.2204724409448819
        },
        {
          "duration": 0.0026041666666571928,
          "durationTicks": 2,
          "midi": 42,
          "name": "F#2",
          "ticks": 80420,
          "time": 104.71354166666667,
          "velocity": 0.48031496062992124
        },
        {
          "duration": 0.005208333333328596,
          "durationTicks": 4,
          "midi": 42,
          "name": "F#2",
          "ticks": 80516,
          "time": 104.83854166666667,
          "velocity": 0.1889763779527559
        },
        {
          "duration": 0.005208333333342807,
          "durationTicks": 4,
          "midi": 42,
          "name": "F#2",
          "ticks": 80614,
          "time": 104.96614583333333,
          "velocity": 0.5433070866141733
        },
        {
          "duration": 0.0026041666666714036,
          "durationTicks": 2,
          "midi": 35,
          "name": "B1",
          "ticks": 80616,
          "time": 104.96875,
          "velocity": 0.7716535433070866
        },
        {
          "duration": 0.005208333333342807,
          "durationTicks": 4,
          "midi": 35,
          "name": "B1",
          "ticks": 80812,
          "time": 105.22395833333333,
          "velocity": 0.8346456692913385
        },
        {
          "duration": 0.005208333333342807,
          "durationTicks": 4,
          "midi": 42,
          "name": "F#2",
          "ticks": 80812,
          "time": 105.22395833333333,
          "velocity": 0.5433070866141733
        },
        {
          "duration": 0.005208333333342807,
          "durationTicks": 4,
          "midi": 42,
          "name": "F#2",
          "ticks": 81010,
          "time": 105.48177083333333,
          "velocity": 0.5826771653543307
        },
        {
          "duration": 0.0026041666666714036,
          "durationTicks": 2,
          "midi": 38,
          "name": "D2",
          "ticks": 81016,
          "time": 105.48958333333333,
          "velocity": 0.9763779527559056
        },
        {
          "duration": 0.0026041666666714036,
          "durationTicks": 2,
          "midi": 40,
          "name": "E2",
          "ticks": 81018,
          "time": 105.4921875,
          "velocity": 0.6692913385826772
        },
        {
          "duration": 0.0026041666666571928,
          "durationTicks": 2,
          "midi": 42,
          "name": "F#2",
          "ticks": 81110,
          "time": 105.61197916666667,
          "velocity": 0.3228346456692913
        },
        {
          "duration": 0.005208333333328596,
          "durationTicks": 4,
          "midi": 42,
          "name": "F#2",
          "ticks": 81210,
          "time": 105.7421875,
          "velocity": 0.5118110236220472
        },
        {
          "duration": 0.0026041666666714036,
          "durationTicks": 2,
          "midi": 42,
          "name": "F#2",
          "ticks": 81310,
          "time": 105.87239583333333,
          "velocity": 0.5984251968503937
        },
        {
          "duration": 0.0078125,
          "durationTicks": 6,
          "midi": 42,
          "name": "F#2",
          "ticks": 81406,
          "time": 105.99739583333333,
          "velocity": 0.5669291338582677
        },
        {
          "duration": 0.005208333333328596,
          "durationTicks": 4,
          "midi": 35,
          "name": "B1",
          "ticks": 81408,
          "time": 106,
          "velocity": 0.8188976377952756
        },
        {
          "duration": 0.005208333333328596,
          "durationTicks": 4,
          "midi": 42,
          "name": "F#2",
          "ticks": 81608,
          "time": 106.26041666666667,
          "velocity": 0.5669291338582677
        },
        {
          "duration": 0.0026041666666714036,
          "durationTicks": 2,
          "midi": 35,
          "name": "B1",
          "ticks": 81610,
          "time": 106.26302083333333,
          "velocity": 0.8267716535433071
        },
        {
          "duration": 0.0026041666666714036,
          "durationTicks": 2,
          "midi": 42,
          "name": "F#2",
          "ticks": 81700,
          "time": 106.38020833333333,
          "velocity": 0.29133858267716534
        },
        {
          "duration": 0.005208333333328596,
          "durationTicks": 4,
          "midi": 40,
          "name": "E2",
          "ticks": 81804,
          "time": 106.515625,
          "velocity": 0.6692913385826772
        },
        {
          "duration": 0.0078125,
          "durationTicks": 6,
          "midi": 38,
          "name": "D2",
          "ticks": 81804,
          "time": 106.515625,
          "velocity": 0.9763779527559056
        },
        {
          "duration": 0.0026041666666571928,
          "durationTicks": 2,
          "midi": 42,
          "name": "F#2",
          "ticks": 81806,
          "time": 106.51822916666667,
          "velocity": 0.5748031496062992
        },
        {
          "duration": 0.0026041666666714036,
          "durationTicks": 2,
          "midi": 42,
          "name": "F#2",
          "ticks": 82002,
          "time": 106.7734375,
          "velocity": 0.5118110236220472
        },
        {
          "duration": 0.0026041666666571928,
          "durationTicks": 2,
          "midi": 42,
          "name": "F#2",
          "ticks": 82100,
          "time": 106.90104166666667,
          "velocity": 0.30708661417322836
        },
        {
          "duration": 0.010416666666671404,
          "durationTicks": 8,
          "midi": 35,
          "name": "B1",
          "ticks": 82194,
          "time": 107.0234375,
          "velocity": 0.8188976377952756
        },
        {
          "duration": 0.005208333333328596,
          "durationTicks": 4,
          "midi": 42,
          "name": "F#2",
          "ticks": 82202,
          "time": 107.03385416666667,
          "velocity": 0.5433070866141733
        },
        {
          "duration": 0.005208333333328596,
          "durationTicks": 4,
          "midi": 42,
          "name": "F#2",
          "ticks": 82398,
          "time": 107.2890625,
          "velocity": 0.5669291338582677
        },
        {
          "duration": 0.0026041666666571928,
          "durationTicks": 2,
          "midi": 35,
          "name": "B1",
          "ticks": 82400,
          "time": 107.29166666666667,
          "velocity": 0.8110236220472441
        },
        {
          "duration": 0.0026041666666714036,
          "durationTicks": 2,
          "midi": 42,
          "name": "F#2",
          "ticks": 82600,
          "time": 107.55208333333333,
          "velocity": 0.5748031496062992
        },
        {
          "duration": 0.0026041666666714036,
          "durationTicks": 2,
          "midi": 38,
          "name": "D2",
          "ticks": 82602,
          "time": 107.5546875,
          "velocity": 0.984251968503937
        },
        {
          "duration": 0.0026041666666714036,
          "durationTicks": 2,
          "midi": 40,
          "name": "E2",
          "ticks": 82602,
          "time": 107.5546875,
          "velocity": 0.6771653543307087
        },
        {
          "duration": 0.0026041666666571928,
          "durationTicks": 2,
          "midi": 42,
          "name": "F#2",
          "ticks": 82694,
          "time": 107.67447916666667,
          "velocity": 0.30708661417322836
        },
        {
          "duration": 0.0078125,
          "durationTicks": 6,
          "midi": 46,
          "name": "A#2",
          "ticks": 82792,
          "time": 107.80208333333333,
          "velocity": 0.49606299212598426
        },
        {
          "duration": 0.005208333333342807,
          "durationTicks": 4,
          "midi": 35,
          "name": "B1",
          "ticks": 82798,
          "time": 107.80989583333333,
          "velocity": 0.8346456692913385
        },
        {
          "duration": 0.0026041666666714036,
          "durationTicks": 2,
          "midi": 42,
          "name": "F#2",
          "ticks": 82992,
          "time": 108.0625,
          "velocity": 0.4566929133858268
        },
        {
          "duration": 0.0026041666666571928,
          "durationTicks": 2,
          "midi": 42,
          "name": "F#2",
          "ticks": 83192,
          "time": 108.32291666666667,
          "velocity": 0.5118110236220472
        },
        {
          "duration": 0.005208333333328596,
          "durationTicks": 4,
          "midi": 42,
          "name": "F#2",
          "ticks": 83288,
          "time": 108.44791666666667,
          "velocity": 0.3228346456692913
        },
        {
          "duration": 0.0026041666666571928,
          "durationTicks": 2,
          "midi": 42,
          "name": "F#2",
          "ticks": 83390,
          "time": 108.58072916666667,
          "velocity": 0.5118110236220472
        },
        {
          "duration": 0.0026041666666714036,
          "durationTicks": 2,
          "midi": 40,
          "name": "E2",
          "ticks": 83394,
          "time": 108.5859375,
          "velocity": 0.6850393700787402
        },
        {
          "duration": 0.005208333333328596,
          "durationTicks": 4,
          "midi": 38,
          "name": "D2",
          "ticks": 83394,
          "time": 108.5859375,
          "velocity": 0.9921259842519685
        },
        {
          "duration": 0.0026041666666714036,
          "durationTicks": 2,
          "midi": 42,
          "name": "F#2",
          "ticks": 83586,
          "time": 108.8359375,
          "velocity": 0.5433070866141733
        },
        {
          "duration": 0.005208333333328596,
          "durationTicks": 4,
          "midi": 42,
          "name": "F#2",
          "ticks": 83682,
          "time": 108.9609375,
          "velocity": 0.29133858267716534
        },
        {
          "duration": 0.005208333333342807,
          "durationTicks": 4,
          "midi": 42,
          "name": "F#2",
          "ticks": 83782,
          "time": 109.09114583333333,
          "velocity": 0.5275590551181102
        },
        {
          "duration": 0.0026041666666714036,
          "durationTicks": 2,
          "midi": 35,
          "name": "B1",
          "ticks": 83784,
          "time": 109.09375,
          "velocity": 0.8031496062992126
        },
        {
          "duration": 0.005208333333328596,
          "durationTicks": 4,
          "midi": 42,
          "name": "F#2",
          "ticks": 83984,
          "time": 109.35416666666667,
          "velocity": 0.5118110236220472
        },
        {
          "duration": 0.005208333333328596,
          "durationTicks": 4,
          "midi": 35,
          "name": "B1",
          "ticks": 83984,
          "time": 109.35416666666667,
          "velocity": 0.8267716535433071
        },
        {
          "duration": 0.005208333333342807,
          "durationTicks": 4,
          "midi": 38,
          "name": "D2",
          "ticks": 84184,
          "time": 109.61458333333333,
          "velocity": 0.9763779527559056
        },
        {
          "duration": 0.0026041666666714036,
          "durationTicks": 2,
          "midi": 40,
          "name": "E2",
          "ticks": 84186,
          "time": 109.6171875,
          "velocity": 0.6692913385826772
        },
        {
          "duration": 0.0026041666666714036,
          "durationTicks": 2,
          "midi": 42,
          "name": "F#2",
          "ticks": 84378,
          "time": 109.8671875,
          "velocity": 0.5748031496062992
        },
        {
          "duration": 0.005208333333328596,
          "durationTicks": 4,
          "midi": 42,
          "name": "F#2",
          "ticks": 84476,
          "time": 109.99479166666667,
          "velocity": 0.2440944881889764
        },
        {
          "duration": 0.005208333333328596,
          "durationTicks": 4,
          "midi": 42,
          "name": "F#2",
          "ticks": 84578,
          "time": 110.12760416666667,
          "velocity": 0.5118110236220472
        },
        {
          "duration": 0.0026041666666714036,
          "durationTicks": 2,
          "midi": 35,
          "name": "B1",
          "ticks": 84580,
          "time": 110.13020833333333,
          "velocity": 0.84251968503937
        },
        {
          "duration": 0.005208333333328596,
          "durationTicks": 4,
          "midi": 42,
          "name": "F#2",
          "ticks": 84774,
          "time": 110.3828125,
          "velocity": 0.5433070866141733
        },
        {
          "duration": 0.0026041666666571928,
          "durationTicks": 2,
          "midi": 35,
          "name": "B1",
          "ticks": 84776,
          "time": 110.38541666666667,
          "velocity": 0.8346456692913385
        },
        {
          "duration": 0.0078125,
          "durationTicks": 6,
          "midi": 38,
          "name": "D2",
          "ticks": 84968,
          "time": 110.63541666666667,
          "velocity": 0.9763779527559056
        },
        {
          "duration": 0.0026041666666714036,
          "durationTicks": 2,
          "midi": 40,
          "name": "E2",
          "ticks": 84970,
          "time": 110.63802083333333,
          "velocity": 0.6692913385826772
        },
        {
          "duration": 0.0026041666666714036,
          "durationTicks": 2,
          "midi": 42,
          "name": "F#2",
          "ticks": 85168,
          "time": 110.89583333333333,
          "velocity": 0.5669291338582677
        },
        {
          "duration": 0.005208333333342807,
          "durationTicks": 4,
          "midi": 42,
          "name": "F#2",
          "ticks": 85264,
          "time": 111.02083333333333,
          "velocity": 0.33858267716535434
        },
        {
          "duration": 0.0078125,
          "durationTicks": 6,
          "midi": 35,
          "name": "B1",
          "ticks": 85370,
          "time": 111.15885416666667,
          "velocity": 0.8346456692913385
        },
        {
          "duration": 0.0078125,
          "durationTicks": 6,
          "midi": 42,
          "name": "F#2",
          "ticks": 85370,
          "time": 111.15885416666667,
          "velocity": 0.5669291338582677
        },
        {
          "duration": 0.0026041666666714036,
          "durationTicks": 2,
          "midi": 42,
          "name": "F#2",
          "ticks": 85566,
          "time": 111.4140625,
          "velocity": 0.5590551181102362
        },
        {
          "duration": 0.0026041666666571928,
          "durationTicks": 2,
          "midi": 35,
          "name": "B1",
          "ticks": 85568,
          "time": 111.41666666666667,
          "velocity": 0.8188976377952756
        },
        {
          "duration": 0.005208333333328596,
          "durationTicks": 4,
          "midi": 42,
          "name": "F#2",
          "ticks": 85662,
          "time": 111.5390625,
          "velocity": 0.33858267716535434
        },
        {
          "duration": 0.0078125,
          "durationTicks": 6,
          "midi": 38,
          "name": "D2",
          "ticks": 85766,
          "time": 111.67447916666667,
          "velocity": 0.9921259842519685
        },
        {
          "duration": 0.0026041666666714036,
          "durationTicks": 2,
          "midi": 40,
          "name": "E2",
          "ticks": 85768,
          "time": 111.67708333333333,
          "velocity": 0.6850393700787402
        },
        {
          "duration": 0.0026041666666714036,
          "durationTicks": 2,
          "midi": 42,
          "name": "F#2",
          "ticks": 85768,
          "time": 111.67708333333333,
          "velocity": 0.5590551181102362
        },
        {
          "duration": 0.0078125,
          "durationTicks": 6,
          "midi": 46,
          "name": "A#2",
          "ticks": 85958,
          "time": 111.92447916666667,
          "velocity": 0.5433070866141733
        },
        {
          "duration": 0.0026041666666714036,
          "durationTicks": 2,
          "midi": 35,
          "name": "B1",
          "ticks": 85966,
          "time": 111.93489583333333,
          "velocity": 0.8503937007874016
        },
        {
          "duration": 0.0026041666666714036,
          "durationTicks": 2,
          "midi": 42,
          "name": "F#2",
          "ticks": 86158,
          "time": 112.18489583333333,
          "velocity": 0.44881889763779526
        },
        {
          "duration": 0.0026041666666714036,
          "durationTicks": 2,
          "midi": 42,
          "name": "F#2",
          "ticks": 86260,
          "time": 112.31770833333333,
          "velocity": 0.25984251968503935
        },
        {
          "duration": 0.005208333333342807,
          "durationTicks": 4,
          "midi": 42,
          "name": "F#2",
          "ticks": 86356,
          "time": 112.44270833333333,
          "velocity": 0.49606299212598426
        },
        {
          "duration": 0.0026041666666714036,
          "durationTicks": 2,
          "midi": 42,
          "name": "F#2",
          "ticks": 86458,
          "time": 112.57552083333333,
          "velocity": 0.2755905511811024
        },
        {
          "duration": 0.0078125,
          "durationTicks": 6,
          "midi": 40,
          "name": "E2",
          "ticks": 86556,
          "time": 112.703125,
          "velocity": 0.6692913385826772
        },
        {
          "duration": 0.010416666666671404,
          "durationTicks": 8,
          "midi": 38,
          "name": "D2",
          "ticks": 86556,
          "time": 112.703125,
          "velocity": 0.9763779527559056
        },
        {
          "duration": 0.005208333333328596,
          "durationTicks": 4,
          "midi": 42,
          "name": "F#2",
          "ticks": 86558,
          "time": 112.70572916666667,
          "velocity": 0.4330708661417323
        },
        {
          "duration": 0.0026041666666714036,
          "durationTicks": 2,
          "midi": 42,
          "name": "F#2",
          "ticks": 86754,
          "time": 112.9609375,
          "velocity": 0.49606299212598426
        },
        {
          "duration": 0.0026041666666714036,
          "durationTicks": 2,
          "midi": 35,
          "name": "B1",
          "ticks": 86952,
          "time": 113.21875,
          "velocity": 0.84251968503937
        },
        {
          "duration": 0.005208333333328596,
          "durationTicks": 4,
          "midi": 35,
          "name": "B1",
          "ticks": 87150,
          "time": 113.4765625,
          "velocity": 0.8267716535433071
        },
        {
          "duration": 0.005208333333328596,
          "durationTicks": 4,
          "midi": 42,
          "name": "F#2",
          "ticks": 87150,
          "time": 113.4765625,
          "velocity": 0.5748031496062992
        },
        {
          "duration": 0.005208333333328596,
          "durationTicks": 4,
          "midi": 42,
          "name": "F#2",
          "ticks": 87350,
          "time": 113.73697916666667,
          "velocity": 0.5905511811023622
        },
        {
          "duration": 0.0026041666666571928,
          "durationTicks": 2,
          "midi": 38,
          "name": "D2",
          "ticks": 87356,
          "time": 113.74479166666667,
          "velocity": 0.9763779527559056
        },
        {
          "duration": 0.0026041666666571928,
          "durationTicks": 2,
          "midi": 40,
          "name": "E2",
          "ticks": 87356,
          "time": 113.74479166666667,
          "velocity": 0.6692913385826772
        },
        {
          "duration": 0.0026041666666714036,
          "durationTicks": 2,
          "midi": 42,
          "name": "F#2",
          "ticks": 87444,
          "time": 113.859375,
          "velocity": 0.2755905511811024
        },
        {
          "duration": 0.005208333333342807,
          "durationTicks": 4,
          "midi": 42,
          "name": "F#2",
          "ticks": 87544,
          "time": 113.98958333333333,
          "velocity": 0.4015748031496063
        },
        {
          "duration": 0.0026041666666714036,
          "durationTicks": 2,
          "midi": 42,
          "name": "F#2",
          "ticks": 87640,
          "time": 114.11458333333333,
          "velocity": 0.25984251968503935
        },
        {
          "duration": 0.010416666666671404,
          "durationTicks": 8,
          "midi": 42,
          "name": "F#2",
          "ticks": 87742,
          "time": 114.24739583333333,
          "velocity": 0.5275590551181102
        },
        {
          "duration": 0.005208333333328596,
          "durationTicks": 4,
          "midi": 35,
          "name": "B1",
          "ticks": 87744,
          "time": 114.25,
          "velocity": 0.84251968503937
        },
        {
          "duration": 0.0026041666666714036,
          "durationTicks": 2,
          "midi": 35,
          "name": "B1",
          "ticks": 87942,
          "time": 114.5078125,
          "velocity": 0.8188976377952756
        },
        {
          "duration": 0.0026041666666714036,
          "durationTicks": 2,
          "midi": 42,
          "name": "F#2",
          "ticks": 87942,
          "time": 114.5078125,
          "velocity": 0.5275590551181102
        },
        {
          "duration": 0.0078125,
          "durationTicks": 6,
          "midi": 38,
          "name": "D2",
          "ticks": 88138,
          "time": 114.76302083333333,
          "velocity": 0.9763779527559056
        },
        {
          "duration": 0.005208333333328596,
          "durationTicks": 4,
          "midi": 40,
          "name": "E2",
          "ticks": 88140,
          "time": 114.765625,
          "velocity": 0.6692913385826772
        },
        {
          "duration": 0.0026041666666571928,
          "durationTicks": 2,
          "midi": 42,
          "name": "F#2",
          "ticks": 88142,
          "time": 114.76822916666667,
          "velocity": 0.5669291338582677
        },
        {
          "duration": 0.0078125,
          "durationTicks": 6,
          "midi": 42,
          "name": "F#2",
          "ticks": 88334,
          "time": 115.01822916666667,
          "velocity": 0.5433070866141733
        },
        {
          "duration": 0.0026041666666714036,
          "durationTicks": 2,
          "midi": 42,
          "name": "F#2",
          "ticks": 88432,
          "time": 115.14583333333333,
          "velocity": 0.33858267716535434
        },
        {
          "duration": 0.005208333333342807,
          "durationTicks": 4,
          "midi": 42,
          "name": "F#2",
          "ticks": 88540,
          "time": 115.28645833333333,
          "velocity": 0.5669291338582677
        },
        {
          "duration": 0.005208333333342807,
          "durationTicks": 4,
          "midi": 35,
          "name": "B1",
          "ticks": 88540,
          "time": 115.28645833333333,
          "velocity": 0.8582677165354331
        },
        {
          "duration": 0.005208333333342807,
          "durationTicks": 4,
          "midi": 42,
          "name": "F#2",
          "ticks": 88732,
          "time": 115.53645833333333,
          "velocity": 0.5433070866141733
        },
        {
          "duration": 0.0026041666666714036,
          "durationTicks": 2,
          "midi": 35,
          "name": "B1",
          "ticks": 88734,
          "time": 115.5390625,
          "velocity": 0.8267716535433071
        },
        {
          "duration": 0.0026041666666714036,
          "durationTicks": 2,
          "midi": 42,
          "name": "F#2",
          "ticks": 88828,
          "time": 115.66145833333333,
          "velocity": 0.30708661417322836
        },
        {
          "duration": 0.005208333333328596,
          "durationTicks": 4,
          "midi": 40,
          "name": "E2",
          "ticks": 88934,
          "time": 115.79947916666667,
          "velocity": 0.6771653543307087
        },
        {
          "duration": 0.0078125,
          "durationTicks": 6,
          "midi": 38,
          "name": "D2",
          "ticks": 88934,
          "time": 115.79947916666667,
          "velocity": 0.984251968503937
        },
        {
          "duration": 0.0026041666666714036,
          "durationTicks": 2,
          "midi": 42,
          "name": "F#2",
          "ticks": 88936,
          "time": 115.80208333333333,
          "velocity": 0.5433070866141733
        },
        {
          "duration": 0.0078125,
          "durationTicks": 6,
          "midi": 46,
          "name": "A#2",
          "ticks": 89128,
          "time": 116.05208333333333,
          "velocity": 0.5433070866141733
        },
        {
          "duration": 0.0078125,
          "durationTicks": 6,
          "midi": 35,
          "name": "B1",
          "ticks": 89134,
          "time": 116.05989583333333,
          "velocity": 0.84251968503937
        },
        {
          "duration": 0.0026041666666714036,
          "durationTicks": 2,
          "midi": 42,
          "name": "F#2",
          "ticks": 89328,
          "time": 116.3125,
          "velocity": 0.4645669291338583
        },
        {
          "duration": 0.0026041666666714036,
          "durationTicks": 2,
          "midi": 42,
          "name": "F#2",
          "ticks": 89526,
          "time": 116.5703125,
          "velocity": 0.5433070866141733
        },
        {
          "duration": 0.005208333333328596,
          "durationTicks": 4,
          "midi": 42,
          "name": "F#2",
          "ticks": 89622,
          "time": 116.6953125,
          "velocity": 0.29133858267716534
        },
        {
          "duration": 0.0078125,
          "durationTicks": 6,
          "midi": 42,
          "name": "F#2",
          "ticks": 89726,
          "time": 116.83072916666667,
          "velocity": 0.5275590551181102
        },
        {
          "duration": 0.0078125,
          "durationTicks": 6,
          "midi": 40,
          "name": "E2",
          "ticks": 89726,
          "time": 116.83072916666667,
          "velocity": 0.6850393700787402
        },
        {
          "duration": 0.010416666666657193,
          "durationTicks": 8,
          "midi": 38,
          "name": "D2",
          "ticks": 89726,
          "time": 116.83072916666667,
          "velocity": 0.9921259842519685
        },
        {
          "duration": 0.005208333333342807,
          "durationTicks": 4,
          "midi": 42,
          "name": "F#2",
          "ticks": 89920,
          "time": 117.08333333333333,
          "velocity": 0.5433070866141733
        },
        {
          "duration": 0.0026041666666714036,
          "durationTicks": 2,
          "midi": 42,
          "name": "F#2",
          "ticks": 90016,
          "time": 117.20833333333333,
          "velocity": 0.30708661417322836
        },
        {
          "duration": 0.005208333333328596,
          "durationTicks": 4,
          "midi": 35,
          "name": "B1",
          "ticks": 90120,
          "time": 117.34375,
          "velocity": 0.8346456692913385
        },
        {
          "duration": 0.005208333333328596,
          "durationTicks": 4,
          "midi": 42,
          "name": "F#2",
          "ticks": 90120,
          "time": 117.34375,
          "velocity": 0.5669291338582677
        },
        {
          "duration": 0.0078125,
          "durationTicks": 6,
          "midi": 42,
          "name": "F#2",
          "ticks": 90318,
          "time": 117.6015625,
          "velocity": 0.5118110236220472
        },
        {
          "duration": 0.005208333333328596,
          "durationTicks": 4,
          "midi": 35,
          "name": "B1",
          "ticks": 90320,
          "time": 117.60416666666667,
          "velocity": 0.8346456692913385
        },
        {
          "duration": 0.0026041666666714036,
          "durationTicks": 2,
          "midi": 42,
          "name": "F#2",
          "ticks": 90520,
          "time": 117.86458333333333,
          "velocity": 0.15748031496062992
        },
        {
          "duration": 0.0026041666666714036,
          "durationTicks": 2,
          "midi": 40,
          "name": "E2",
          "ticks": 90520,
          "time": 117.86458333333333,
          "velocity": 0.6771653543307087
        },
        {
          "duration": 0.0026041666666714036,
          "durationTicks": 2,
          "midi": 38,
          "name": "D2",
          "ticks": 90520,
          "time": 117.86458333333333,
          "velocity": 0.984251968503937
        },
        {
          "duration": 0.0026041666666714036,
          "durationTicks": 2,
          "midi": 42,
          "name": "F#2",
          "ticks": 90714,
          "time": 118.1171875,
          "velocity": 0.5905511811023622
        },
        {
          "duration": 0.0026041666666571928,
          "durationTicks": 2,
          "midi": 42,
          "name": "F#2",
          "ticks": 90812,
          "time": 118.24479166666667,
          "velocity": 0.30708661417322836
        },
        {
          "duration": 0.010416666666671404,
          "durationTicks": 8,
          "midi": 35,
          "name": "B1",
          "ticks": 90918,
          "time": 118.3828125,
          "velocity": 0.8110236220472441
        },
        {
          "duration": 0.010416666666671404,
          "durationTicks": 8,
          "midi": 42,
          "name": "F#2",
          "ticks": 90918,
          "time": 118.3828125,
          "velocity": 0.5748031496062992
        },
        {
          "duration": 0.005208333333328596,
          "durationTicks": 4,
          "midi": 42,
          "name": "F#2",
          "ticks": 91110,
          "time": 118.6328125,
          "velocity": 0.5669291338582677
        },
        {
          "duration": 0.0026041666666571928,
          "durationTicks": 2,
          "midi": 35,
          "name": "B1",
          "ticks": 91112,
          "time": 118.63541666666667,
          "velocity": 0.8267716535433071
        },
        {
          "duration": 0.005208333333342807,
          "durationTicks": 4,
          "midi": 38,
          "name": "D2",
          "ticks": 91306,
          "time": 118.88802083333333,
          "velocity": 0.9763779527559056
        },
        {
          "duration": 0.0026041666666714036,
          "durationTicks": 2,
          "midi": 40,
          "name": "E2",
          "ticks": 91308,
          "time": 118.890625,
          "velocity": 0.6692913385826772
        },
        {
          "duration": 0.005208333333342807,
          "durationTicks": 4,
          "midi": 42,
          "name": "F#2",
          "ticks": 91312,
          "time": 118.89583333333333,
          "velocity": 0.30708661417322836
        },
        {
          "duration": 0.0026041666666714036,
          "durationTicks": 2,
          "midi": 42,
          "name": "F#2",
          "ticks": 91504,
          "time": 119.14583333333333,
          "velocity": 0.5669291338582677
        },
        {
          "duration": 0.0026041666666714036,
          "durationTicks": 2,
          "midi": 42,
          "name": "F#2",
          "ticks": 91602,
          "time": 119.2734375,
          "velocity": 0.30708661417322836
        },
        {
          "duration": 0.0026041666666714036,
          "durationTicks": 2,
          "midi": 35,
          "name": "B1",
          "ticks": 91704,
          "time": 119.40625,
          "velocity": 0.84251968503937
        },
        {
          "duration": 0.005208333333328596,
          "durationTicks": 4,
          "midi": 42,
          "name": "F#2",
          "ticks": 91704,
          "time": 119.40625,
          "velocity": 0.5905511811023622
        },
        {
          "duration": 0.005208333333342807,
          "durationTicks": 4,
          "midi": 42,
          "name": "F#2",
          "ticks": 91900,
          "time": 119.66145833333333,
          "velocity": 0.33858267716535434
        },
        {
          "duration": 0.0026041666666714036,
          "durationTicks": 2,
          "midi": 35,
          "name": "B1",
          "ticks": 91906,
          "time": 119.66927083333333,
          "velocity": 0.8188976377952756
        },
        {
          "duration": 0.005208333333342807,
          "durationTicks": 4,
          "midi": 42,
          "name": "F#2",
          "ticks": 92098,
          "time": 119.91927083333333,
          "velocity": 0.5748031496062992
        },
        {
          "duration": 0.0026041666666714036,
          "durationTicks": 2,
          "midi": 38,
          "name": "D2",
          "ticks": 92104,
          "time": 119.92708333333333,
          "velocity": 0.984251968503937
        },
        {
          "duration": 0.0026041666666714036,
          "durationTicks": 2,
          "midi": 40,
          "name": "E2",
          "ticks": 92104,
          "time": 119.92708333333333,
          "velocity": 0.6771653543307087
        },
        {
          "duration": 0.013020833333342807,
          "durationTicks": 10,
          "midi": 52,
          "name": "E3",
          "ticks": 92302,
          "time": 120.18489583333333,
          "velocity": 0.5590551181102362
        },
        {
          "duration": 0.013020833333342807,
          "durationTicks": 10,
          "midi": 49,
          "name": "C#3",
          "ticks": 92302,
          "time": 120.18489583333333,
          "velocity": 0.5826771653543307
        },
        {
          "duration": 0.0078125,
          "durationTicks": 6,
          "midi": 46,
          "name": "A#2",
          "ticks": 92304,
          "time": 120.1875,
          "velocity": 0.5433070866141733
        },
        {
          "duration": 0.0078125,
          "durationTicks": 6,
          "midi": 35,
          "name": "B1",
          "ticks": 92312,
          "time": 120.19791666666667,
          "velocity": 0.8661417322834646
        },
        {
          "duration": 0.005208333333328596,
          "durationTicks": 4,
          "midi": 51,
          "name": "D#3",
          "ticks": 92496,
          "time": 120.4375,
          "velocity": 0.33070866141732286
        },
        {
          "duration": 0.0026041666666571928,
          "durationTicks": 2,
          "midi": 42,
          "name": "F#2",
          "ticks": 92498,
          "time": 120.44010416666667,
          "velocity": 0.4645669291338583
        },
        {
          "duration": 0.0078125,
          "durationTicks": 6,
          "midi": 51,
          "name": "D#3",
          "ticks": 92690,
          "time": 120.69010416666667,
          "velocity": 0.4015748031496063
        },
        {
          "duration": 0.0026041666666714036,
          "durationTicks": 2,
          "midi": 42,
          "name": "F#2",
          "ticks": 92692,
          "time": 120.69270833333333,
          "velocity": 0.5905511811023622
        },
        {
          "duration": 0.0078125,
          "durationTicks": 6,
          "midi": 38,
          "name": "D2",
          "ticks": 92888,
          "time": 120.94791666666667,
          "velocity": 0.984251968503937
        },
        {
          "duration": 0.0026041666666714036,
          "durationTicks": 2,
          "midi": 40,
          "name": "E2",
          "ticks": 92892,
          "time": 120.953125,
          "velocity": 0.905511811023622
        },
        {
          "duration": 0.005208333333342807,
          "durationTicks": 4,
          "midi": 51,
          "name": "D#3",
          "ticks": 92896,
          "time": 120.95833333333333,
          "velocity": 0.4015748031496063
        },
        {
          "duration": 0.0026041666666714036,
          "durationTicks": 2,
          "midi": 42,
          "name": "F#2",
          "ticks": 92898,
          "time": 120.9609375,
          "velocity": 0.5826771653543307
        },
        {
          "duration": 0.0026041666666571928,
          "durationTicks": 2,
          "midi": 51,
          "name": "D#3",
          "ticks": 92990,
          "time": 121.08072916666667,
          "velocity": 0.30708661417322836
        },
        {
          "duration": 0.0026041666666714036,
          "durationTicks": 2,
          "midi": 42,
          "name": "F#2",
          "ticks": 92992,
          "time": 121.08333333333333,
          "velocity": 0.25984251968503935
        },
        {
          "duration": 0.0078125,
          "durationTicks": 6,
          "midi": 51,
          "name": "D#3",
          "ticks": 93090,
          "time": 121.2109375,
          "velocity": 0.3858267716535433
        },
        {
          "duration": 0.005208333333328596,
          "durationTicks": 4,
          "midi": 42,
          "name": "F#2",
          "ticks": 93092,
          "time": 121.21354166666667,
          "velocity": 0.5433070866141733
        },
        {
          "duration": 0.005208333333342807,
          "durationTicks": 4,
          "midi": 42,
          "name": "F#2",
          "ticks": 93190,
          "time": 121.34114583333333,
          "velocity": 0.30708661417322836
        },
        {
          "duration": 0.0078125,
          "durationTicks": 6,
          "midi": 51,
          "name": "D#3",
          "ticks": 93190,
          "time": 121.34114583333333,
          "velocity": 0.3228346456692913
        },
        {
          "duration": 0.0078125,
          "durationTicks": 6,
          "midi": 35,
          "name": "B1",
          "ticks": 93290,
          "time": 121.47135416666667,
          "velocity": 0.8188976377952756
        },
        {
          "duration": 0.0078125,
          "durationTicks": 6,
          "midi": 51,
          "name": "D#3",
          "ticks": 93296,
          "time": 121.47916666666667,
          "velocity": 0.3937007874015748
        },
        {
          "duration": 0.0078125,
          "durationTicks": 6,
          "midi": 42,
          "name": "F#2",
          "ticks": 93296,
          "time": 121.47916666666667,
          "velocity": 0.5748031496062992
        },
        {
          "duration": 0.0078125,
          "durationTicks": 6,
          "midi": 35,
          "name": "B1",
          "ticks": 93490,
          "time": 121.73177083333333,
          "velocity": 0.8267716535433071
        },
        {
          "duration": 0.0078125,
          "durationTicks": 6,
          "midi": 42,
          "name": "F#2",
          "ticks": 93490,
          "time": 121.73177083333333,
          "velocity": 0.5275590551181102
        },
        {
          "duration": 0.010416666666671404,
          "durationTicks": 8,
          "midi": 51,
          "name": "D#3",
          "ticks": 93490,
          "time": 121.73177083333333,
          "velocity": 0.3858267716535433
        },
        {
          "duration": 0.0078125,
          "durationTicks": 6,
          "midi": 51,
          "name": "D#3",
          "ticks": 93686,
          "time": 121.98697916666667,
          "velocity": 0.31496062992125984
        },
        {
          "duration": 0.0078125,
          "durationTicks": 6,
          "midi": 40,
          "name": "E2",
          "ticks": 93686,
          "time": 121.98697916666667,
          "velocity": 0.8740157480314961
        },
        {
          "duration": 0.005208333333328596,
          "durationTicks": 4,
          "midi": 38,
          "name": "D2",
          "ticks": 93686,
          "time": 121.98697916666667,
          "velocity": 0.952755905511811
        },
        {
          "duration": 0.0026041666666714036,
          "durationTicks": 2,
          "midi": 42,
          "name": "F#2",
          "ticks": 93688,
          "time": 121.98958333333333,
          "velocity": 0.29133858267716534
        },
        {
          "duration": 0.0026041666666571928,
          "durationTicks": 2,
          "midi": 42,
          "name": "F#2",
          "ticks": 93884,
          "time": 122.24479166666667,
          "velocity": 0.5118110236220472
        },
        {
          "duration": 0.0026041666666571928,
          "durationTicks": 2,
          "midi": 51,
          "name": "D#3",
          "ticks": 93884,
          "time": 122.24479166666667,
          "velocity": 0.3779527559055118
        },
        {
          "duration": 0.0078125,
          "durationTicks": 6,
          "midi": 51,
          "name": "D#3",
          "ticks": 93982,
          "time": 122.37239583333333,
          "velocity": 0.3228346456692913
        },
        {
          "duration": 0.005208333333328596,
          "durationTicks": 4,
          "midi": 42,
          "name": "F#2",
          "ticks": 93984,
          "time": 122.375,
          "velocity": 0.30708661417322836
        },
        {
          "duration": 0.013020833333328596,
          "durationTicks": 10,
          "midi": 51,
          "name": "D#3",
          "ticks": 94086,
          "time": 122.5078125,
          "velocity": 0.3937007874015748
        },
        {
          "duration": 0.010416666666657193,
          "durationTicks": 8,
          "midi": 42,
          "name": "F#2",
          "ticks": 94088,
          "time": 122.51041666666667,
          "velocity": 0.5590551181102362
        },
        {
          "duration": 0.005208333333342807,
          "durationTicks": 4,
          "midi": 35,
          "name": "B1",
          "ticks": 94090,
          "time": 122.51302083333333,
          "velocity": 0.8503937007874016
        },
        {
          "duration": 0.005208333333328596,
          "durationTicks": 4,
          "midi": 51,
          "name": "D#3",
          "ticks": 94178,
          "time": 122.62760416666667,
          "velocity": 0.33070866141732286
        },
        {
          "duration": 0.0026041666666714036,
          "durationTicks": 2,
          "midi": 42,
          "name": "F#2",
          "ticks": 94180,
          "time": 122.63020833333333,
          "velocity": 0.33858267716535434
        },
        {
          "duration": 0.0078125,
          "durationTicks": 6,
          "midi": 51,
          "name": "D#3",
          "ticks": 94280,
          "time": 122.76041666666667,
          "velocity": 0.3937007874015748
        },
        {
          "duration": 0.005208333333342807,
          "durationTicks": 4,
          "midi": 42,
          "name": "F#2",
          "ticks": 94282,
          "time": 122.76302083333333,
          "velocity": 0.5669291338582677
        },
        {
          "duration": 0.0026041666666571928,
          "durationTicks": 2,
          "midi": 35,
          "name": "B1",
          "ticks": 94286,
          "time": 122.76822916666667,
          "velocity": 0.84251968503937
        },
        {
          "duration": 0.005208333333328596,
          "durationTicks": 4,
          "midi": 42,
          "name": "F#2",
          "ticks": 94476,
          "time": 123.015625,
          "velocity": 0.33858267716535434
        },
        {
          "duration": 0.005208333333328596,
          "durationTicks": 4,
          "midi": 51,
          "name": "D#3",
          "ticks": 94476,
          "time": 123.015625,
          "velocity": 0.33070866141732286
        },
        {
          "duration": 0.0026041666666714036,
          "durationTicks": 2,
          "midi": 40,
          "name": "E2",
          "ticks": 94482,
          "time": 123.0234375,
          "velocity": 0.8976377952755905
        },
        {
          "duration": 0.0026041666666714036,
          "durationTicks": 2,
          "midi": 38,
          "name": "D2",
          "ticks": 94482,
          "time": 123.0234375,
          "velocity": 0.9763779527559056
        },
        {
          "duration": 0.005208333333342807,
          "durationTicks": 4,
          "midi": 51,
          "name": "D#3",
          "ticks": 94678,
          "time": 123.27864583333333,
          "velocity": 0.3700787401574803
        },
        {
          "duration": 0.0026041666666714036,
          "durationTicks": 2,
          "midi": 42,
          "name": "F#2",
          "ticks": 94680,
          "time": 123.28125,
          "velocity": 0.49606299212598426
        },
        {
          "duration": 0.005208333333342807,
          "durationTicks": 4,
          "midi": 42,
          "name": "F#2",
          "ticks": 94774,
          "time": 123.40364583333333,
          "velocity": 0.25984251968503935
        },
        {
          "duration": 0.005208333333342807,
          "durationTicks": 4,
          "midi": 51,
          "name": "D#3",
          "ticks": 94774,
          "time": 123.40364583333333,
          "velocity": 0.30708661417322836
        },
        {
          "duration": 0.0078125,
          "durationTicks": 6,
          "midi": 42,
          "name": "F#2",
          "ticks": 94878,
          "time": 123.5390625,
          "velocity": 0.5275590551181102
        },
        {
          "duration": 0.0078125,
          "durationTicks": 6,
          "midi": 51,
          "name": "D#3",
          "ticks": 94878,
          "time": 123.5390625,
          "velocity": 0.3858267716535433
        },
        {
          "duration": 0.005208333333328596,
          "durationTicks": 4,
          "midi": 35,
          "name": "B1",
          "ticks": 94884,
          "time": 123.546875,
          "velocity": 0.8503937007874016
        },
        {
          "duration": 0.0026041666666571928,
          "durationTicks": 2,
          "midi": 42,
          "name": "F#2",
          "ticks": 94970,
          "time": 123.65885416666667,
          "velocity": 0.2755905511811024
        },
        {
          "duration": 0.005208333333328596,
          "durationTicks": 4,
          "midi": 51,
          "name": "D#3",
          "ticks": 94970,
          "time": 123.65885416666667,
          "velocity": 0.31496062992125984
        },
        {
          "duration": 0.0078125,
          "durationTicks": 6,
          "midi": 51,
          "name": "D#3",
          "ticks": 95072,
          "time": 123.79166666666667,
          "velocity": 0.3937007874015748
        },
        {
          "duration": 0.005208333333342807,
          "durationTicks": 4,
          "midi": 42,
          "name": "F#2",
          "ticks": 95074,
          "time": 123.79427083333333,
          "velocity": 0.5669291338582677
        },
        {
          "duration": 0.0026041666666571928,
          "durationTicks": 2,
          "midi": 35,
          "name": "B1",
          "ticks": 95078,
          "time": 123.79947916666667,
          "velocity": 0.8267716535433071
        },
        {
          "duration": 0.0078125,
          "durationTicks": 6,
          "midi": 40,
          "name": "E2",
          "ticks": 95270,
          "time": 124.04947916666667,
          "velocity": 0.905511811023622
        },
        {
          "duration": 0.0078125,
          "durationTicks": 6,
          "midi": 38,
          "name": "D2",
          "ticks": 95270,
          "time": 124.04947916666667,
          "velocity": 0.984251968503937
        },
        {
          "duration": 0.0026041666666714036,
          "durationTicks": 2,
          "midi": 42,
          "name": "F#2",
          "ticks": 95272,
          "time": 124.05208333333333,
          "velocity": 0.3700787401574803
        },
        {
          "duration": 0.005208333333342807,
          "durationTicks": 4,
          "midi": 51,
          "name": "D#3",
          "ticks": 95272,
          "time": 124.05208333333333,
          "velocity": 0.33858267716535434
        },
        {
          "duration": 0.010416666666671404,
          "durationTicks": 8,
          "midi": 51,
          "name": "D#3",
          "ticks": 95470,
          "time": 124.30989583333333,
          "velocity": 0.33858267716535434
        },
        {
          "duration": 0.0078125,
          "durationTicks": 6,
          "midi": 46,
          "name": "A#2",
          "ticks": 95472,
          "time": 124.3125,
          "velocity": 0.5433070866141733
        },
        {
          "duration": 0.0026041666666571928,
          "durationTicks": 2,
          "midi": 35,
          "name": "B1",
          "ticks": 95474,
          "time": 124.31510416666667,
          "velocity": 0.8582677165354331
        },
        {
          "duration": 0.0026041666666571928,
          "durationTicks": 2,
          "midi": 42,
          "name": "F#2",
          "ticks": 95666,
          "time": 124.56510416666667,
          "velocity": 0.44881889763779526
        },
        {
          "duration": 0.0026041666666571928,
          "durationTicks": 2,
          "midi": 51,
          "name": "D#3",
          "ticks": 95666,
          "time": 124.56510416666667,
          "velocity": 0.3228346456692913
        },
        {
          "duration": 0.0078125,
          "durationTicks": 6,
          "midi": 51,
          "name": "D#3",
          "ticks": 95858,
          "time": 124.81510416666667,
          "velocity": 0.3937007874015748
        },
        {
          "duration": 0.005208333333342807,
          "durationTicks": 4,
          "midi": 42,
          "name": "F#2",
          "ticks": 95860,
          "time": 124.81770833333333,
          "velocity": 0.5590551181102362
        },
        {
          "duration": 0.005208333333328596,
          "durationTicks": 4,
          "midi": 38,
          "name": "D2",
          "ticks": 96060,
          "time": 125.078125,
          "velocity": 0.984251968503937
        },
        {
          "duration": 0.0026041666666571928,
          "durationTicks": 2,
          "midi": 40,
          "name": "E2",
          "ticks": 96062,
          "time": 125.08072916666667,
          "velocity": 0.905511811023622
        },
        {
          "duration": 0.005208333333328596,
          "durationTicks": 4,
          "midi": 51,
          "name": "D#3",
          "ticks": 96066,
          "time": 125.0859375,
          "velocity": 0.3937007874015748
        },
        {
          "duration": 0.005208333333328596,
          "durationTicks": 4,
          "midi": 42,
          "name": "F#2",
          "ticks": 96066,
          "time": 125.0859375,
          "velocity": 0.5748031496062992
        },
        {
          "duration": 0.005208333333328596,
          "durationTicks": 4,
          "midi": 51,
          "name": "D#3",
          "ticks": 96158,
          "time": 125.20572916666667,
          "velocity": 0.31496062992125984
        },
        {
          "duration": 0.0026041666666714036,
          "durationTicks": 2,
          "midi": 42,
          "name": "F#2",
          "ticks": 96160,
          "time": 125.20833333333333,
          "velocity": 0.2755905511811024
        },
        {
          "duration": 0.0078125,
          "durationTicks": 6,
          "midi": 51,
          "name": "D#3",
          "ticks": 96262,
          "time": 125.34114583333333,
          "velocity": 0.3858267716535433
        },
        {
          "duration": 0.005208333333342807,
          "durationTicks": 4,
          "midi": 42,
          "name": "F#2",
          "ticks": 96262,
          "time": 125.34114583333333,
          "velocity": 0.5275590551181102
        },
        {
          "duration": 0.010416666666671404,
          "durationTicks": 8,
          "midi": 51,
          "name": "D#3",
          "ticks": 96360,
          "time": 125.46875,
          "velocity": 0.31496062992125984
        },
        {
          "duration": 0.005208333333328596,
          "durationTicks": 4,
          "midi": 42,
          "name": "F#2",
          "ticks": 96362,
          "time": 125.47135416666667,
          "velocity": 0.2755905511811024
        },
        {
          "duration": 0.010416666666671404,
          "durationTicks": 8,
          "midi": 51,
          "name": "D#3",
          "ticks": 96460,
          "time": 125.59895833333333,
          "velocity": 0.3937007874015748
        },
        {
          "duration": 0.0078125,
          "durationTicks": 6,
          "midi": 42,
          "name": "F#2",
          "ticks": 96462,
          "time": 125.6015625,
          "velocity": 0.5669291338582677
        },
        {
          "duration": 0.0026041666666571928,
          "durationTicks": 2,
          "midi": 35,
          "name": "B1",
          "ticks": 96464,
          "time": 125.60416666666667,
          "velocity": 0.8503937007874016
        },
        {
          "duration": 0.005208333333342807,
          "durationTicks": 4,
          "midi": 42,
          "name": "F#2",
          "ticks": 96658,
          "time": 125.85677083333333,
          "velocity": 0.5826771653543307
        },
        {
          "duration": 0.0078125,
          "durationTicks": 6,
          "midi": 51,
          "name": "D#3",
          "ticks": 96658,
          "time": 125.85677083333333,
          "velocity": 0.4015748031496063
        },
        {
          "duration": 0.0026041666666714036,
          "durationTicks": 2,
          "midi": 35,
          "name": "B1",
          "ticks": 96666,
          "time": 125.8671875,
          "velocity": 0.8267716535433071
        },
        {
          "duration": 0.010416666666671404,
          "durationTicks": 8,
          "midi": 38,
          "name": "D2",
          "ticks": 96852,
          "time": 126.109375,
          "velocity": 0.984251968503937
        },
        {
          "duration": 0.0026041666666714036,
          "durationTicks": 2,
          "midi": 40,
          "name": "E2",
          "ticks": 96856,
          "time": 126.11458333333333,
          "velocity": 0.905511811023622
        },
        {
          "duration": 0.0026041666666571928,
          "durationTicks": 2,
          "midi": 51,
          "name": "D#3",
          "ticks": 96860,
          "time": 126.11979166666667,
          "velocity": 0.31496062992125984
        },
        {
          "duration": 0.0026041666666571928,
          "durationTicks": 2,
          "midi": 42,
          "name": "F#2",
          "ticks": 96860,
          "time": 126.11979166666667,
          "velocity": 0.2755905511811024
        },
        {
          "duration": 0.005208333333328596,
          "durationTicks": 4,
          "midi": 51,
          "name": "D#3",
          "ticks": 97056,
          "time": 126.375,
          "velocity": 0.3937007874015748
        },
        {
          "duration": 0.0026041666666571928,
          "durationTicks": 2,
          "midi": 42,
          "name": "F#2",
          "ticks": 97058,
          "time": 126.37760416666667,
          "velocity": 0.5590551181102362
        },
        {
          "duration": 0.0026041666666714036,
          "durationTicks": 2,
          "midi": 51,
          "name": "D#3",
          "ticks": 97150,
          "time": 126.49739583333333,
          "velocity": 0.33070866141732286
        },
        {
          "duration": 0.0026041666666714036,
          "durationTicks": 2,
          "midi": 42,
          "name": "F#2",
          "ticks": 97152,
          "time": 126.5,
          "velocity": 0.3228346456692913
        },
        {
          "duration": 0.005208333333342807,
          "durationTicks": 4,
          "midi": 51,
          "name": "D#3",
          "ticks": 97258,
          "time": 126.63802083333333,
          "velocity": 0.4015748031496063
        },
        {
          "duration": 0.005208333333342807,
          "durationTicks": 4,
          "midi": 42,
          "name": "F#2",
          "ticks": 97258,
          "time": 126.63802083333333,
          "velocity": 0.5826771653543307
        },
        {
          "duration": 0.005208333333342807,
          "durationTicks": 4,
          "midi": 35,
          "name": "B1",
          "ticks": 97264,
          "time": 126.64583333333333,
          "velocity": 0.8346456692913385
        },
        {
          "duration": 0.013020833333342807,
          "durationTicks": 10,
          "midi": 51,
          "name": "D#3",
          "ticks": 97450,
          "time": 126.88802083333333,
          "velocity": 0.3858267716535433
        },
        {
          "duration": 0.0078125,
          "durationTicks": 6,
          "midi": 42,
          "name": "F#2",
          "ticks": 97452,
          "time": 126.890625,
          "velocity": 0.5433070866141733
        },
        {
          "duration": 0.0026041666666571928,
          "durationTicks": 2,
          "midi": 35,
          "name": "B1",
          "ticks": 97460,
          "time": 126.90104166666667,
          "velocity": 0.8346456692913385
        },
        {
          "duration": 0.005208333333328596,
          "durationTicks": 4,
          "midi": 42,
          "name": "F#2",
          "ticks": 97644,
          "time": 127.140625,
          "velocity": 0.3543307086614173
        },
        {
          "duration": 0.005208333333328596,
          "durationTicks": 4,
          "midi": 51,
          "name": "D#3",
          "ticks": 97644,
          "time": 127.140625,
          "velocity": 0.33858267716535434
        },
        {
          "duration": 0.005208333333328596,
          "durationTicks": 4,
          "midi": 38,
          "name": "D2",
          "ticks": 97650,
          "time": 127.1484375,
          "velocity": 0.9921259842519685
        },
        {
          "duration": 0.0026041666666571928,
          "durationTicks": 2,
          "midi": 40,
          "name": "E2",
          "ticks": 97652,
          "time": 127.15104166666667,
          "velocity": 0.9133858267716536
        },
        {
          "duration": 0.0026041666666714036,
          "durationTicks": 2,
          "midi": 42,
          "name": "F#2",
          "ticks": 97846,
          "time": 127.40364583333333,
          "velocity": 0.5433070866141733
        },
        {
          "duration": 0.0026041666666714036,
          "durationTicks": 2,
          "midi": 51,
          "name": "D#3",
          "ticks": 97846,
          "time": 127.40364583333333,
          "velocity": 0.3858267716535433
        },
        {
          "duration": 0.010416666666657193,
          "durationTicks": 8,
          "midi": 51,
          "name": "D#3",
          "ticks": 97946,
          "time": 127.53385416666667,
          "velocity": 0.3228346456692913
        },
        {
          "duration": 0.005208333333328596,
          "durationTicks": 4,
          "midi": 42,
          "name": "F#2",
          "ticks": 97950,
          "time": 127.5390625,
          "velocity": 0.30708661417322836
        },
        {
          "duration": 0.010416666666671404,
          "durationTicks": 8,
          "midi": 42,
          "name": "F#2",
          "ticks": 98046,
          "time": 127.6640625,
          "velocity": 0.5826771653543307
        },
        {
          "duration": 0.010416666666671404,
          "durationTicks": 8,
          "midi": 51,
          "name": "D#3",
          "ticks": 98046,
          "time": 127.6640625,
          "velocity": 0.4015748031496063
        },
        {
          "duration": 0.0026041666666714036,
          "durationTicks": 2,
          "midi": 35,
          "name": "B1",
          "ticks": 98056,
          "time": 127.67708333333333,
          "velocity": 0.8503937007874016
        },
        {
          "duration": 0.0078125,
          "durationTicks": 6,
          "midi": 51,
          "name": "D#3",
          "ticks": 98242,
          "time": 127.91927083333333,
          "velocity": 0.33858267716535434
        },
        {
          "duration": 0.005208333333328596,
          "durationTicks": 4,
          "midi": 42,
          "name": "F#2",
          "ticks": 98244,
          "time": 127.921875,
          "velocity": 0.3700787401574803
        },
        {
          "duration": 0.0026041666666714036,
          "durationTicks": 2,
          "midi": 35,
          "name": "B1",
          "ticks": 98248,
          "time": 127.92708333333333,
          "velocity": 0.8267716535433071
        },
        {
          "duration": 0.0078125,
          "durationTicks": 6,
          "midi": 51,
          "name": "D#3",
          "ticks": 98442,
          "time": 128.1796875,
          "velocity": 0.3700787401574803
        },
        {
          "duration": 0.0078125,
          "durationTicks": 6,
          "midi": 40,
          "name": "E2",
          "ticks": 98442,
          "time": 128.1796875,
          "velocity": 0.905511811023622
        },
        {
          "duration": 0.0078125,
          "durationTicks": 6,
          "midi": 38,
          "name": "D2",
          "ticks": 98442,
          "time": 128.1796875,
          "velocity": 0.984251968503937
        },
        {
          "duration": 0.005208333333342807,
          "durationTicks": 4,
          "midi": 42,
          "name": "F#2",
          "ticks": 98444,
          "time": 128.18229166666666,
          "velocity": 0.49606299212598426
        },
        {
          "duration": 0.0052083333333143855,
          "durationTicks": 4,
          "midi": 46,
          "name": "A#2",
          "ticks": 98644,
          "time": 128.44270833333334,
          "velocity": 0.5433070866141733
        },
        {
          "duration": 0.0052083333333143855,
          "durationTicks": 4,
          "midi": 51,
          "name": "D#3",
          "ticks": 98644,
          "time": 128.44270833333334,
          "velocity": 0.33858267716535434
        },
        {
          "duration": 0.0052083333333143855,
          "durationTicks": 4,
          "midi": 52,
          "name": "E3",
          "ticks": 98644,
          "time": 128.44270833333334,
          "velocity": 0.4330708661417323
        },
        {
          "duration": 0.0052083333333143855,
          "durationTicks": 4,
          "midi": 49,
          "name": "C#3",
          "ticks": 98644,
          "time": 128.44270833333334,
          "velocity": 0.4566929133858268
        },
        {
          "duration": 0.0026041666666856145,
          "durationTicks": 2,
          "midi": 35,
          "name": "B1",
          "ticks": 98648,
          "time": 128.44791666666666,
          "velocity": 0.8582677165354331
        },
        {
          "duration": 0.0026041666666571928,
          "durationTicks": 2,
          "midi": 42,
          "name": "F#2",
          "ticks": 98836,
          "time": 128.69270833333334,
          "velocity": 0.44881889763779526
        },
        {
          "duration": 0.0026041666666571928,
          "durationTicks": 2,
          "midi": 51,
          "name": "D#3",
          "ticks": 98836,
          "time": 128.69270833333334,
          "velocity": 0.3228346456692913
        },
        {
          "duration": 0.0026041666666571928,
          "durationTicks": 2,
          "midi": 42,
          "name": "F#2",
          "ticks": 99036,
          "time": 128.953125,
          "velocity": 0.5590551181102362
        },
        {
          "duration": 0.0026041666666571928,
          "durationTicks": 2,
          "midi": 51,
          "name": "D#3",
          "ticks": 99036,
          "time": 128.953125,
          "velocity": 0.3937007874015748
        },
        {
          "duration": 0.010416666666657193,
          "durationTicks": 8,
          "midi": 38,
          "name": "D2",
          "ticks": 99226,
          "time": 129.20052083333334,
          "velocity": 1
        },
        {
          "duration": 0.0026041666666571928,
          "durationTicks": 2,
          "midi": 40,
          "name": "E2",
          "ticks": 99232,
          "time": 129.20833333333334,
          "velocity": 0.9212598425196851
        },
        {
          "duration": 0.005208333333342807,
          "durationTicks": 4,
          "midi": 51,
          "name": "D#3",
          "ticks": 99236,
          "time": 129.21354166666666,
          "velocity": 0.4015748031496063
        },
        {
          "duration": 0.0026041666666856145,
          "durationTicks": 2,
          "midi": 42,
          "name": "F#2",
          "ticks": 99236,
          "time": 129.21354166666666,
          "velocity": 0.5826771653543307
        },
        {
          "duration": 0.0026041666666856145,
          "durationTicks": 2,
          "midi": 42,
          "name": "F#2",
          "ticks": 99332,
          "time": 129.33854166666666,
          "velocity": 0.30708661417322836
        },
        {
          "duration": 0.005208333333342807,
          "durationTicks": 4,
          "midi": 51,
          "name": "D#3",
          "ticks": 99332,
          "time": 129.33854166666666,
          "velocity": 0.3228346456692913
        },
        {
          "duration": 0.0052083333333143855,
          "durationTicks": 4,
          "midi": 51,
          "name": "D#3",
          "ticks": 99430,
          "time": 129.46614583333334,
          "velocity": 0.3858267716535433
        },
        {
          "duration": 0.0026041666666571928,
          "durationTicks": 2,
          "midi": 42,
          "name": "F#2",
          "ticks": 99432,
          "time": 129.46875,
          "velocity": 0.5433070866141733
        },
        {
          "duration": 0.0078125,
          "durationTicks": 6,
          "midi": 51,
          "name": "D#3",
          "ticks": 99528,
          "time": 129.59375,
          "velocity": 0.3228346456692913
        },
        {
          "duration": 0.0026041666666571928,
          "durationTicks": 2,
          "midi": 42,
          "name": "F#2",
          "ticks": 99532,
          "time": 129.59895833333334,
          "velocity": 0.30708661417322836
        },
        {
          "duration": 0.0078125,
          "durationTicks": 6,
          "midi": 42,
          "name": "F#2",
          "ticks": 99634,
          "time": 129.73177083333334,
          "velocity": 0.5669291338582677
        },
        {
          "duration": 0.010416666666657193,
          "durationTicks": 8,
          "midi": 51,
          "name": "D#3",
          "ticks": 99634,
          "time": 129.73177083333334,
          "velocity": 0.3937007874015748
        },
        {
          "duration": 0.005208333333342807,
          "durationTicks": 4,
          "midi": 35,
          "name": "B1",
          "ticks": 99636,
          "time": 129.734375,
          "velocity": 0.8188976377952756
        },
        {
          "duration": 0.0078125,
          "durationTicks": 6,
          "midi": 51,
          "name": "D#3",
          "ticks": 99828,
          "time": 129.984375,
          "velocity": 0.3937007874015748
        },
        {
          "duration": 0.005208333333342807,
          "durationTicks": 4,
          "midi": 42,
          "name": "F#2",
          "ticks": 99830,
          "time": 129.98697916666666,
          "velocity": 0.5669291338582677
        },
        {
          "duration": 0.0026041666666571928,
          "durationTicks": 2,
          "midi": 35,
          "name": "B1",
          "ticks": 99834,
          "time": 129.9921875,
          "velocity": 0.8267716535433071
        },
        {
          "duration": 0.005208333333342807,
          "durationTicks": 4,
          "midi": 51,
          "name": "D#3",
          "ticks": 100022,
          "time": 130.23697916666666,
          "velocity": 0.3228346456692913
        },
        {
          "duration": 0.0026041666666571928,
          "durationTicks": 2,
          "midi": 42,
          "name": "F#2",
          "ticks": 100024,
          "time": 130.23958333333334,
          "velocity": 0.30708661417322836
        },
        {
          "duration": 0.0026041666666856145,
          "durationTicks": 2,
          "midi": 40,
          "name": "E2",
          "ticks": 100028,
          "time": 130.24479166666666,
          "velocity": 0.8976377952755905
        },
        {
          "duration": 0.005208333333342807,
          "durationTicks": 4,
          "midi": 38,
          "name": "D2",
          "ticks": 100028,
          "time": 130.24479166666666,
          "velocity": 0.9763779527559056
        },
        {
          "duration": 0.0078125,
          "durationTicks": 6,
          "midi": 42,
          "name": "F#2",
          "ticks": 100222,
          "time": 130.49739583333334,
          "velocity": 0.48031496062992124
        },
        {
          "duration": 0.0078125,
          "durationTicks": 6,
          "midi": 51,
          "name": "D#3",
          "ticks": 100222,
          "time": 130.49739583333334,
          "velocity": 0.3700787401574803
        },
        {
          "duration": 0.0078125,
          "durationTicks": 6,
          "midi": 51,
          "name": "D#3",
          "ticks": 100318,
          "time": 130.62239583333334,
          "velocity": 0.3228346456692913
        },
        {
          "duration": 0.005208333333342807,
          "durationTicks": 4,
          "midi": 42,
          "name": "F#2",
          "ticks": 100320,
          "time": 130.625,
          "velocity": 0.30708661417322836
        },
        {
          "duration": 0.010416666666685614,
          "durationTicks": 8,
          "midi": 51,
          "name": "D#3",
          "ticks": 100424,
          "time": 130.76041666666666,
          "velocity": 0.3700787401574803
        },
        {
          "duration": 0.0078125,
          "durationTicks": 6,
          "midi": 42,
          "name": "F#2",
          "ticks": 100426,
          "time": 130.76302083333334,
          "velocity": 0.49606299212598426
        },
        {
          "duration": 0.010416666666657193,
          "durationTicks": 8,
          "midi": 35,
          "name": "B1",
          "ticks": 100432,
          "time": 130.77083333333334,
          "velocity": 0.8503937007874016
        },
        {
          "duration": 0.005208333333342807,
          "durationTicks": 4,
          "midi": 51,
          "name": "D#3",
          "ticks": 100514,
          "time": 130.87760416666666,
          "velocity": 0.3228346456692913
        },
        {
          "duration": 0.0026041666666571928,
          "durationTicks": 2,
          "midi": 42,
          "name": "F#2",
          "ticks": 100516,
          "time": 130.88020833333334,
          "velocity": 0.30708661417322836
        },
        {
          "duration": 0.0052083333333143855,
          "durationTicks": 4,
          "midi": 51,
          "name": "D#3",
          "ticks": 100618,
          "time": 131.01302083333334,
          "velocity": 0.3937007874015748
        },
        {
          "duration": 0.0026041666666571928,
          "durationTicks": 2,
          "midi": 42,
          "name": "F#2",
          "ticks": 100620,
          "time": 131.015625,
          "velocity": 0.5590551181102362
        },
        {
          "duration": 0.0026041666666856145,
          "durationTicks": 2,
          "midi": 35,
          "name": "B1",
          "ticks": 100628,
          "time": 131.02604166666666,
          "velocity": 0.8346456692913385
        },
        {
          "duration": 0.0078125,
          "durationTicks": 6,
          "midi": 38,
          "name": "D2",
          "ticks": 100818,
          "time": 131.2734375,
          "velocity": 0.9921259842519685
        },
        {
          "duration": 0.0078125,
          "durationTicks": 6,
          "midi": 40,
          "name": "E2",
          "ticks": 100820,
          "time": 131.27604166666666,
          "velocity": 0.9133858267716536
        },
        {
          "duration": 0.0052083333333143855,
          "durationTicks": 4,
          "midi": 51,
          "name": "D#3",
          "ticks": 100822,
          "time": 131.27864583333334,
          "velocity": 0.3228346456692913
        },
        {
          "duration": 0.0026041666666571928,
          "durationTicks": 2,
          "midi": 42,
          "name": "F#2",
          "ticks": 100824,
          "time": 131.28125,
          "velocity": 0.30708661417322836
        },
        {
          "duration": 0.0026041666666571928,
          "durationTicks": 2,
          "midi": 42,
          "name": "F#2",
          "ticks": 101016,
          "time": 131.53125,
          "velocity": 0.5433070866141733
        },
        {
          "duration": 0.0026041666666571928,
          "durationTicks": 2,
          "midi": 51,
          "name": "D#3",
          "ticks": 101016,
          "time": 131.53125,
          "velocity": 0.3858267716535433
        },
        {
          "duration": 0.010416666666685614,
          "durationTicks": 8,
          "midi": 51,
          "name": "D#3",
          "ticks": 101114,
          "time": 131.65885416666666,
          "velocity": 0.33070866141732286
        },
        {
          "duration": 0.0052083333333143855,
          "durationTicks": 4,
          "midi": 42,
          "name": "F#2",
          "ticks": 101116,
          "time": 131.66145833333334,
          "velocity": 0.3228346456692913
        },
        {
          "duration": 0.0078125,
          "durationTicks": 6,
          "midi": 42,
          "name": "F#2",
          "ticks": 101216,
          "time": 131.79166666666666,
          "velocity": 0.5984251968503937
        },
        {
          "duration": 0.0078125,
          "durationTicks": 6,
          "midi": 51,
          "name": "D#3",
          "ticks": 101216,
          "time": 131.79166666666666,
          "velocity": 0.4015748031496063
        },
        {
          "duration": 0.0052083333333143855,
          "durationTicks": 4,
          "midi": 35,
          "name": "B1",
          "ticks": 101218,
          "time": 131.79427083333334,
          "velocity": 0.8503937007874016
        },
        {
          "duration": 0.0078125,
          "durationTicks": 6,
          "midi": 51,
          "name": "D#3",
          "ticks": 101414,
          "time": 132.04947916666666,
          "velocity": 0.33858267716535434
        },
        {
          "duration": 0.0052083333333143855,
          "durationTicks": 4,
          "midi": 42,
          "name": "F#2",
          "ticks": 101416,
          "time": 132.05208333333334,
          "velocity": 0.3543307086614173
        },
        {
          "duration": 0.0026041666666856145,
          "durationTicks": 2,
          "midi": 35,
          "name": "B1",
          "ticks": 101420,
          "time": 132.05729166666666,
          "velocity": 0.8503937007874016
        },
        {
          "duration": 0.010416666666657193,
          "durationTicks": 8,
          "midi": 38,
          "name": "D2",
          "ticks": 101610,
          "time": 132.3046875,
          "velocity": 0.9763779527559056
        },
        {
          "duration": 0.0078125,
          "durationTicks": 6,
          "midi": 40,
          "name": "E2",
          "ticks": 101612,
          "time": 132.30729166666666,
          "velocity": 0.8976377952755905
        },
        {
          "duration": 0.0078125,
          "durationTicks": 6,
          "midi": 51,
          "name": "D#3",
          "ticks": 101614,
          "time": 132.30989583333334,
          "velocity": 0.3858267716535433
        },
        {
          "duration": 0.0026041666666571928,
          "durationTicks": 2,
          "midi": 42,
          "name": "F#2",
          "ticks": 101614,
          "time": 132.30989583333334,
          "velocity": 0.5433070866141733
        },
        {
          "duration": 0.015625,
          "durationTicks": 12,
          "midi": 49,
          "name": "C#3",
          "ticks": 101812,
          "time": 132.56770833333334,
          "velocity": 0.5196850393700787
        },
        {
          "duration": 0.010416666666657193,
          "durationTicks": 8,
          "midi": 51,
          "name": "D#3",
          "ticks": 101814,
          "time": 132.5703125,
          "velocity": 0.33858267716535434
        },
        {
          "duration": 0.015625,
          "durationTicks": 12,
          "midi": 52,
          "name": "E3",
          "ticks": 101814,
          "time": 132.5703125,
          "velocity": 0.49606299212598426
        },
        {
          "duration": 0.0078125,
          "durationTicks": 6,
          "midi": 35,
          "name": "B1",
          "ticks": 101816,
          "time": 132.57291666666666,
          "velocity": 0.8582677165354331
        },
        {
          "duration": 0.013020833333342807,
          "durationTicks": 10,
          "midi": 46,
          "name": "A#2",
          "ticks": 101816,
          "time": 132.57291666666666,
          "velocity": 0.5590551181102362
        },
        {
          "duration": 0.0026041666666856145,
          "durationTicks": 2,
          "midi": 42,
          "name": "F#2",
          "ticks": 102008,
          "time": 132.82291666666666,
          "velocity": 0.4409448818897638
        },
        {
          "duration": 0.0065104166666856145,
          "durationTicks": 5,
          "midi": 51,
          "name": "D#3",
          "ticks": 102008,
          "time": 132.82291666666666,
          "velocity": 0.2677165354330709
        },
        {
          "duration": 0.005208333333342807,
          "durationTicks": 4,
          "midi": 51,
          "name": "D#3",
          "ticks": 102012,
          "time": 132.828125,
          "velocity": 0.2677165354330709
        },
        {
          "duration": 0.0026041666666571928,
          "durationTicks": 2,
          "midi": 42,
          "name": "F#2",
          "ticks": 102208,
          "time": 133.08333333333334,
          "velocity": 0.48031496062992124
        },
        {
          "duration": 0.0026041666666571928,
          "durationTicks": 2,
          "midi": 51,
          "name": "D#3",
          "ticks": 102208,
          "time": 133.08333333333334,
          "velocity": 0.3700787401574803
        },
        {
          "duration": 0.010416666666685614,
          "durationTicks": 8,
          "midi": 38,
          "name": "D2",
          "ticks": 102398,
          "time": 133.33072916666666,
          "velocity": 0.9921259842519685
        },
        {
          "duration": 0.005208333333342807,
          "durationTicks": 4,
          "midi": 40,
          "name": "E2",
          "ticks": 102402,
          "time": 133.3359375,
          "velocity": 0.9133858267716536
        },
        {
          "duration": 0.005208333333342807,
          "durationTicks": 4,
          "midi": 51,
          "name": "D#3",
          "ticks": 102408,
          "time": 133.34375,
          "velocity": 0.4015748031496063
        },
        {
          "duration": 0.005208333333342807,
          "durationTicks": 4,
          "midi": 42,
          "name": "F#2",
          "ticks": 102408,
          "time": 133.34375,
          "velocity": 0.5984251968503937
        },
        {
          "duration": 0.005208333333342807,
          "durationTicks": 4,
          "midi": 51,
          "name": "D#3",
          "ticks": 102504,
          "time": 133.46875,
          "velocity": 0.3228346456692913
        },
        {
          "duration": 0.0026041666666571928,
          "durationTicks": 2,
          "midi": 42,
          "name": "F#2",
          "ticks": 102504,
          "time": 133.46875,
          "velocity": 0.30708661417322836
        },
        {
          "duration": 0.0026041666666856145,
          "durationTicks": 2,
          "midi": 51,
          "name": "D#3",
          "ticks": 102602,
          "time": 133.59635416666666,
          "velocity": 0.3937007874015748
        },
        {
          "duration": 0.0026041666666571928,
          "durationTicks": 2,
          "midi": 42,
          "name": "F#2",
          "ticks": 102604,
          "time": 133.59895833333334,
          "velocity": 0.5590551181102362
        },
        {
          "duration": 0.0026041666666856145,
          "durationTicks": 2,
          "midi": 42,
          "name": "F#2",
          "ticks": 102698,
          "time": 133.72135416666666,
          "velocity": 0.2755905511811024
        },
        {
          "duration": 0.0026041666666856145,
          "durationTicks": 2,
          "midi": 51,
          "name": "D#3",
          "ticks": 102698,
          "time": 133.72135416666666,
          "velocity": 0.31496062992125984
        },
        {
          "duration": 0.005208333333342807,
          "durationTicks": 4,
          "midi": 51,
          "name": "D#3",
          "ticks": 102806,
          "time": 133.86197916666666,
          "velocity": 0.3937007874015748
        },
        {
          "duration": 0.005208333333342807,
          "durationTicks": 4,
          "midi": 42,
          "name": "F#2",
          "ticks": 102806,
          "time": 133.86197916666666,
          "velocity": 0.5669291338582677
        },
        {
          "duration": 0.005208333333342807,
          "durationTicks": 4,
          "midi": 35,
          "name": "B1",
          "ticks": 102810,
          "time": 133.8671875,
          "velocity": 0.8346456692913385
        },
        {
          "duration": 0.010416666666657193,
          "durationTicks": 8,
          "midi": 51,
          "name": "D#3",
          "ticks": 103000,
          "time": 134.11458333333334,
          "velocity": 0.3937007874015748
        },
        {
          "duration": 0.0078125,
          "durationTicks": 6,
          "midi": 42,
          "name": "F#2",
          "ticks": 103002,
          "time": 134.1171875,
          "velocity": 0.5669291338582677
        },
        {
          "duration": 0.005208333333342807,
          "durationTicks": 4,
          "midi": 35,
          "name": "B1",
          "ticks": 103002,
          "time": 134.1171875,
          "velocity": 0.84251968503937
        },
        {
          "duration": 0.005208333333342807,
          "durationTicks": 4,
          "midi": 40,
          "name": "E2",
          "ticks": 103194,
          "time": 134.3671875,
          "velocity": 0.8976377952755905
        },
        {
          "duration": 0.005208333333342807,
          "durationTicks": 4,
          "midi": 38,
          "name": "D2",
          "ticks": 103194,
          "time": 134.3671875,
          "velocity": 0.9763779527559056
        },
        {
          "duration": 0.0026041666666571928,
          "durationTicks": 2,
          "midi": 42,
          "name": "F#2",
          "ticks": 103200,
          "time": 134.375,
          "velocity": 0.30708661417322836
        },
        {
          "duration": 0.005208333333342807,
          "durationTicks": 4,
          "midi": 51,
          "name": "D#3",
          "ticks": 103200,
          "time": 134.375,
          "velocity": 0.3228346456692913
        },
        {
          "duration": 0.010416666666685614,
          "durationTicks": 8,
          "midi": 51,
          "name": "D#3",
          "ticks": 103394,
          "time": 134.62760416666666,
          "velocity": 0.3937007874015748
        },
        {
          "duration": 0.0052083333333143855,
          "durationTicks": 4,
          "midi": 42,
          "name": "F#2",
          "ticks": 103396,
          "time": 134.63020833333334,
          "velocity": 0.5669291338582677
        },
        {
          "duration": 0.005208333333342807,
          "durationTicks": 4,
          "midi": 51,
          "name": "D#3",
          "ticks": 103494,
          "time": 134.7578125,
          "velocity": 0.3228346456692913
        },
        {
          "duration": 0.0026041666666856145,
          "durationTicks": 2,
          "midi": 42,
          "name": "F#2",
          "ticks": 103496,
          "time": 134.76041666666666,
          "velocity": 0.30708661417322836
        },
        {
          "duration": 0.010416666666657193,
          "durationTicks": 8,
          "midi": 51,
          "name": "D#3",
          "ticks": 103596,
          "time": 134.890625,
          "velocity": 0.3937007874015748
        },
        {
          "duration": 0.005208333333342807,
          "durationTicks": 4,
          "midi": 42,
          "name": "F#2",
          "ticks": 103598,
          "time": 134.89322916666666,
          "velocity": 0.5669291338582677
        },
        {
          "duration": 0.005208333333342807,
          "durationTicks": 4,
          "midi": 35,
          "name": "B1",
          "ticks": 103598,
          "time": 134.89322916666666,
          "velocity": 0.84251968503937
        },
        {
          "duration": 0.0052083333333143855,
          "durationTicks": 4,
          "midi": 42,
          "name": "F#2",
          "ticks": 103792,
          "time": 135.14583333333334,
          "velocity": 0.5433070866141733
        },
        {
          "duration": 0.0052083333333143855,
          "durationTicks": 4,
          "midi": 51,
          "name": "D#3",
          "ticks": 103792,
          "time": 135.14583333333334,
          "velocity": 0.3858267716535433
        },
        {
          "duration": 0.0052083333333143855,
          "durationTicks": 4,
          "midi": 35,
          "name": "B1",
          "ticks": 103798,
          "time": 135.15364583333334,
          "velocity": 0.8346456692913385
        },
        {
          "duration": 0.0078125,
          "durationTicks": 6,
          "midi": 51,
          "name": "D#3",
          "ticks": 103986,
          "time": 135.3984375,
          "velocity": 0.33070866141732286
        },
        {
          "duration": 0.0026041666666571928,
          "durationTicks": 2,
          "midi": 42,
          "name": "F#2",
          "ticks": 103990,
          "time": 135.40364583333334,
          "velocity": 0.33858267716535434
        },
        {
          "duration": 0.0026041666666856145,
          "durationTicks": 2,
          "midi": 38,
          "name": "D2",
          "ticks": 103994,
          "time": 135.40885416666666,
          "velocity": 0.984251968503937
        },
        {
          "duration": 0.0026041666666856145,
          "durationTicks": 2,
          "midi": 40,
          "name": "E2",
          "ticks": 103994,
          "time": 135.40885416666666,
          "velocity": 0.905511811023622
        },
        {
          "duration": 0.0078125,
          "durationTicks": 6,
          "midi": 42,
          "name": "F#2",
          "ticks": 104188,
          "time": 135.66145833333334,
          "velocity": 0.5433070866141733
        },
        {
          "duration": 0.0078125,
          "durationTicks": 6,
          "midi": 51,
          "name": "D#3",
          "ticks": 104188,
          "time": 135.66145833333334,
          "velocity": 0.3858267716535433
        },
        {
          "duration": 0.0078125,
          "durationTicks": 6,
          "midi": 51,
          "name": "D#3",
          "ticks": 104286,
          "time": 135.7890625,
          "velocity": 0.3228346456692913
        },
        {
          "duration": 0.005208333333342807,
          "durationTicks": 4,
          "midi": 42,
          "name": "F#2",
          "ticks": 104288,
          "time": 135.79166666666666,
          "velocity": 0.30708661417322836
        },
        {
          "duration": 0.013020833333342807,
          "durationTicks": 10,
          "midi": 51,
          "name": "D#3",
          "ticks": 104388,
          "time": 135.921875,
          "velocity": 0.3937007874015748
        },
        {
          "duration": 0.010416666666685614,
          "durationTicks": 8,
          "midi": 42,
          "name": "F#2",
          "ticks": 104390,
          "time": 135.92447916666666,
          "velocity": 0.5748031496062992
        },
        {
          "duration": 0.0078125,
          "durationTicks": 6,
          "midi": 35,
          "name": "B1",
          "ticks": 104392,
          "time": 135.92708333333334,
          "velocity": 0.8346456692913385
        },
        {
          "duration": 0.0078125,
          "durationTicks": 6,
          "midi": 42,
          "name": "F#2",
          "ticks": 104586,
          "time": 136.1796875,
          "velocity": 0.3543307086614173
        },
        {
          "duration": 0.0078125,
          "durationTicks": 6,
          "midi": 51,
          "name": "D#3",
          "ticks": 104586,
          "time": 136.1796875,
          "velocity": 0.33858267716535434
        },
        {
          "duration": 0.0026041666666856145,
          "durationTicks": 2,
          "midi": 35,
          "name": "B1",
          "ticks": 104594,
          "time": 136.19010416666666,
          "velocity": 0.84251968503937
        },
        {
          "duration": 0.005208333333342807,
          "durationTicks": 4,
          "midi": 42,
          "name": "F#2",
          "ticks": 104784,
          "time": 136.4375,
          "velocity": 0.5275590551181102
        },
        {
          "duration": 0.005208333333342807,
          "durationTicks": 4,
          "midi": 51,
          "name": "D#3",
          "ticks": 104784,
          "time": 136.4375,
          "velocity": 0.3858267716535433
        },
        {
          "duration": 0.0052083333333143855,
          "durationTicks": 4,
          "midi": 38,
          "name": "D2",
          "ticks": 104788,
          "time": 136.44270833333334,
          "velocity": 0.9921259842519685
        },
        {
          "duration": 0.0026041666666571928,
          "durationTicks": 2,
          "midi": 40,
          "name": "E2",
          "ticks": 104790,
          "time": 136.4453125,
          "velocity": 0.9133858267716536
        },
        {
          "duration": 0.010416666666657193,
          "durationTicks": 8,
          "midi": 46,
          "name": "A#2",
          "ticks": 104986,
          "time": 136.70052083333334,
          "velocity": 0.5433070866141733
        },
        {
          "duration": 0.013020833333314386,
          "durationTicks": 10,
          "midi": 51,
          "name": "D#3",
          "ticks": 104986,
          "time": 136.70052083333334,
          "velocity": 0.33858267716535434
        },
        {
          "duration": 0.010416666666685614,
          "durationTicks": 8,
          "midi": 49,
          "name": "C#3",
          "ticks": 104996,
          "time": 136.71354166666666,
          "velocity": 0.5826771653543307
        },
        {
          "duration": 0.0052083333333143855,
          "durationTicks": 4,
          "midi": 52,
          "name": "E3",
          "ticks": 104998,
          "time": 136.71614583333334,
          "velocity": 0.5590551181102362
        },
        {
          "duration": 0.0052083333333143855,
          "durationTicks": 4,
          "midi": 35,
          "name": "B1",
          "ticks": 104998,
          "time": 136.71614583333334,
          "velocity": 0.8740157480314961
        },
        {
          "duration": 0.0026041666666571928,
          "durationTicks": 2,
          "midi": 42,
          "name": "F#2",
          "ticks": 105180,
          "time": 136.953125,
          "velocity": 0.44881889763779526
        },
        {
          "duration": 0.0052083333333143855,
          "durationTicks": 4,
          "midi": 42,
          "name": "F#2",
          "ticks": 105376,
          "time": 137.20833333333334,
          "velocity": 0.3700787401574803
        },
        {
          "duration": 0.0078125,
          "durationTicks": 6,
          "midi": 38,
          "name": "D2",
          "ticks": 105570,
          "time": 137.4609375,
          "velocity": 0.9921259842519685
        },
        {
          "duration": 0.0026041666666856145,
          "durationTicks": 2,
          "midi": 40,
          "name": "E2",
          "ticks": 105572,
          "time": 137.46354166666666,
          "velocity": 0.6850393700787402
        },
        {
          "duration": 0.0026041666666571928,
          "durationTicks": 2,
          "midi": 42,
          "name": "F#2",
          "ticks": 105576,
          "time": 137.46875,
          "velocity": 0.5669291338582677
        },
        {
          "duration": 0.005208333333342807,
          "durationTicks": 4,
          "midi": 42,
          "name": "F#2",
          "ticks": 105770,
          "time": 137.72135416666666,
          "velocity": 0.5433070866141733
        },
        {
          "duration": 0.0026041666666571928,
          "durationTicks": 2,
          "midi": 42,
          "name": "F#2",
          "ticks": 105868,
          "time": 137.84895833333334,
          "velocity": 0.30708661417322836
        },
        {
          "duration": 0.0026041666666856145,
          "durationTicks": 2,
          "midi": 42,
          "name": "F#2",
          "ticks": 105968,
          "time": 137.97916666666666,
          "velocity": 0.5275590551181102
        },
        {
          "duration": 0.0026041666666571928,
          "durationTicks": 2,
          "midi": 35,
          "name": "B1",
          "ticks": 105970,
          "time": 137.98177083333334,
          "velocity": 0.8110236220472441
        },
        {
          "duration": 0.005208333333342807,
          "durationTicks": 4,
          "midi": 35,
          "name": "B1",
          "ticks": 106166,
          "time": 138.23697916666666,
          "velocity": 0.8267716535433071
        },
        {
          "duration": 0.005208333333342807,
          "durationTicks": 4,
          "midi": 42,
          "name": "F#2",
          "ticks": 106166,
          "time": 138.23697916666666,
          "velocity": 0.5433070866141733
        },
        {
          "duration": 0.0052083333333143855,
          "durationTicks": 4,
          "midi": 38,
          "name": "D2",
          "ticks": 106366,
          "time": 138.49739583333334,
          "velocity": 0.968503937007874
        },
        {
          "duration": 0.0026041666666571928,
          "durationTicks": 2,
          "midi": 40,
          "name": "E2",
          "ticks": 106368,
          "time": 138.5,
          "velocity": 0.6614173228346457
        },
        {
          "duration": 0.005208333333342807,
          "durationTicks": 4,
          "midi": 42,
          "name": "F#2",
          "ticks": 106370,
          "time": 138.50260416666666,
          "velocity": 0.3228346456692913
        },
        {
          "duration": 0.0026041666666571928,
          "durationTicks": 2,
          "midi": 42,
          "name": "F#2",
          "ticks": 106566,
          "time": 138.7578125,
          "velocity": 0.5433070866141733
        },
        {
          "duration": 0.0026041666666571928,
          "durationTicks": 2,
          "midi": 42,
          "name": "F#2",
          "ticks": 106662,
          "time": 138.8828125,
          "velocity": 0.3228346456692913
        },
        {
          "duration": 0.0026041666666571928,
          "durationTicks": 2,
          "midi": 42,
          "name": "F#2",
          "ticks": 106762,
          "time": 139.01302083333334,
          "velocity": 0.5590551181102362
        },
        {
          "duration": 0.0026041666666856145,
          "durationTicks": 2,
          "midi": 35,
          "name": "B1",
          "ticks": 106766,
          "time": 139.01822916666666,
          "velocity": 0.8188976377952756
        },
        {
          "duration": 0.0052083333333143855,
          "durationTicks": 4,
          "midi": 42,
          "name": "F#2",
          "ticks": 106960,
          "time": 139.27083333333334,
          "velocity": 0.5669291338582677
        },
        {
          "duration": 0.0026041666666571928,
          "durationTicks": 2,
          "midi": 35,
          "name": "B1",
          "ticks": 106962,
          "time": 139.2734375,
          "velocity": 0.8188976377952756
        },
        {
          "duration": 0.0026041666666856145,
          "durationTicks": 2,
          "midi": 42,
          "name": "F#2",
          "ticks": 107054,
          "time": 139.39322916666666,
          "velocity": 0.33858267716535434
        },
        {
          "duration": 0.005208333333342807,
          "durationTicks": 4,
          "midi": 42,
          "name": "F#2",
          "ticks": 107154,
          "time": 139.5234375,
          "velocity": 0.5669291338582677
        },
        {
          "duration": 0.0026041666666571928,
          "durationTicks": 2,
          "midi": 40,
          "name": "E2",
          "ticks": 107158,
          "time": 139.52864583333334,
          "velocity": 0.6692913385826772
        },
        {
          "duration": 0.0026041666666571928,
          "durationTicks": 2,
          "midi": 38,
          "name": "D2",
          "ticks": 107158,
          "time": 139.52864583333334,
          "velocity": 0.9763779527559056
        },
        {
          "duration": 0.0026041666666856145,
          "durationTicks": 2,
          "midi": 42,
          "name": "F#2",
          "ticks": 107354,
          "time": 139.78385416666666,
          "velocity": 0.5433070866141733
        },
        {
          "duration": 0.0026041666666571928,
          "durationTicks": 2,
          "midi": 42,
          "name": "F#2",
          "ticks": 107454,
          "time": 139.9140625,
          "velocity": 0.3228346456692913
        },
        {
          "duration": 0.0078125,
          "durationTicks": 6,
          "midi": 35,
          "name": "B1",
          "ticks": 107556,
          "time": 140.046875,
          "velocity": 0.8110236220472441
        },
        {
          "duration": 0.0078125,
          "durationTicks": 6,
          "midi": 42,
          "name": "F#2",
          "ticks": 107556,
          "time": 140.046875,
          "velocity": 0.5748031496062992
        },
        {
          "duration": 0.0078125,
          "durationTicks": 6,
          "midi": 35,
          "name": "B1",
          "ticks": 107746,
          "time": 140.29427083333334,
          "velocity": 0.7952755905511811
        },
        {
          "duration": 0.0026041666666571928,
          "durationTicks": 2,
          "midi": 42,
          "name": "F#2",
          "ticks": 107752,
          "time": 140.30208333333334,
          "velocity": 0.5669291338582677
        },
        {
          "duration": 0.0078125,
          "durationTicks": 6,
          "midi": 38,
          "name": "D2",
          "ticks": 107948,
          "time": 140.55729166666666,
          "velocity": 0.9921259842519685
        },
        {
          "duration": 0.0026041666666571928,
          "durationTicks": 2,
          "midi": 40,
          "name": "E2",
          "ticks": 107950,
          "time": 140.55989583333334,
          "velocity": 0.6850393700787402
        },
        {
          "duration": 0.0026041666666856145,
          "durationTicks": 2,
          "midi": 42,
          "name": "F#2",
          "ticks": 107954,
          "time": 140.56510416666666,
          "velocity": 0.33858267716535434
        },
        {
          "duration": 0.0078125,
          "durationTicks": 6,
          "midi": 35,
          "name": "B1",
          "ticks": 108142,
          "time": 140.80989583333334,
          "velocity": 0.8503937007874016
        },
        {
          "duration": 0.0026041666666571928,
          "durationTicks": 2,
          "midi": 46,
          "name": "A#2",
          "ticks": 108150,
          "time": 140.8203125,
          "velocity": 0.5275590551181102
        },
        {
          "duration": 0.0078125,
          "durationTicks": 6,
          "midi": 42,
          "name": "F#2",
          "ticks": 108344,
          "time": 141.07291666666666,
          "velocity": 0.49606299212598426
        },
        {
          "duration": 0.005208333333342807,
          "durationTicks": 4,
          "midi": 42,
          "name": "F#2",
          "ticks": 108542,
          "time": 141.33072916666666,
          "velocity": 0.48031496062992124
        },
        {
          "duration": 0.005208333333342807,
          "durationTicks": 4,
          "midi": 42,
          "name": "F#2",
          "ticks": 108638,
          "time": 141.45572916666666,
          "velocity": 0.33858267716535434
        },
        {
          "duration": 0.005208333333342807,
          "durationTicks": 4,
          "midi": 38,
          "name": "D2",
          "ticks": 108738,
          "time": 141.5859375,
          "velocity": 0.984251968503937
        },
        {
          "duration": 0.0026041666666856145,
          "durationTicks": 2,
          "midi": 40,
          "name": "E2",
          "ticks": 108740,
          "time": 141.58854166666666,
          "velocity": 0.6771653543307087
        },
        {
          "duration": 0.0026041666666571928,
          "durationTicks": 2,
          "midi": 42,
          "name": "F#2",
          "ticks": 108742,
          "time": 141.59114583333334,
          "velocity": 0.5669291338582677
        },
        {
          "duration": 0.005208333333342807,
          "durationTicks": 4,
          "midi": 42,
          "name": "F#2",
          "ticks": 108936,
          "time": 141.84375,
          "velocity": 0.5275590551181102
        },
        {
          "duration": 0.010416666666657193,
          "durationTicks": 8,
          "midi": 27,
          "name": "D#1",
          "ticks": 109140,
          "time": 142.109375,
          "velocity": 0.8503937007874016
        },
        {
          "duration": 0.0078125,
          "durationTicks": 6,
          "midi": 28,
          "name": "E1",
          "ticks": 109142,
          "time": 142.11197916666666,
          "velocity": 0.9448818897637795
        },
        {
          "duration": 0.0078125,
          "durationTicks": 6,
          "midi": 38,
          "name": "D2",
          "ticks": 109142,
          "time": 142.11197916666666,
          "velocity": 0.8661417322834646
        },
        {
          "duration": 0.0078125,
          "durationTicks": 6,
          "midi": 36,
          "name": "C2",
          "ticks": 109144,
          "time": 142.11458333333334,
          "velocity": 0.8661417322834646
        },
        {
          "duration": 0.0078125,
          "durationTicks": 6,
          "midi": 42,
          "name": "F#2",
          "ticks": 109144,
          "time": 142.11458333333334,
          "velocity": 0.3543307086614173
        },
        {
          "duration": 0.0026041666666571928,
          "durationTicks": 2,
          "midi": 35,
          "name": "B1",
          "ticks": 109146,
          "time": 142.1171875,
          "velocity": 0.7952755905511811
        },
        {
          "duration": 0.0026041666666571928,
          "durationTicks": 2,
          "midi": 55,
          "name": "G3",
          "ticks": 109152,
          "time": 142.125,
          "velocity": 0.4015748031496063
        },
        {
          "duration": 0.0078125,
          "durationTicks": 6,
          "midi": 27,
          "name": "D#1",
          "ticks": 109336,
          "time": 142.36458333333334,
          "velocity": 0.8661417322834646
        },
        {
          "duration": 0.005208333333342807,
          "durationTicks": 4,
          "midi": 42,
          "name": "F#2",
          "ticks": 109338,
          "time": 142.3671875,
          "velocity": 0.5433070866141733
        },
        {
          "duration": 0.0026041666666856145,
          "durationTicks": 2,
          "midi": 35,
          "name": "B1",
          "ticks": 109340,
          "time": 142.36979166666666,
          "velocity": 0.8267716535433071
        },
        {
          "duration": 0.0078125,
          "durationTicks": 6,
          "midi": 55,
          "name": "G3",
          "ticks": 109342,
          "time": 142.37239583333334,
          "velocity": 0.4015748031496063
        },
        {
          "duration": 0.0078125,
          "durationTicks": 6,
          "midi": 36,
          "name": "C2",
          "ticks": 109342,
          "time": 142.37239583333334,
          "velocity": 0.9763779527559056
        },
        {
          "duration": 0.0078125,
          "durationTicks": 6,
          "midi": 38,
          "name": "D2",
          "ticks": 109342,
          "time": 142.37239583333334,
          "velocity": 0.9763779527559056
        },
        {
          "duration": 0.0078125,
          "durationTicks": 6,
          "midi": 28,
          "name": "E1",
          "ticks": 109342,
          "time": 142.37239583333334,
          "velocity": 1
        },
        {
          "duration": 0.0026041666666571928,
          "durationTicks": 2,
          "midi": 42,
          "name": "F#2",
          "ticks": 109432,
          "time": 142.48958333333334,
          "velocity": 0.29133858267716534
        },
        {
          "duration": 0.0026041666666571928,
          "durationTicks": 2,
          "midi": 42,
          "name": "F#2",
          "ticks": 109534,
          "time": 142.62239583333334,
          "velocity": 0.5118110236220472
        },
        {
          "duration": 0.0026041666666571928,
          "durationTicks": 2,
          "midi": 40,
          "name": "E2",
          "ticks": 109536,
          "time": 142.625,
          "velocity": 0.6692913385826772
        },
        {
          "duration": 0.005208333333342807,
          "durationTicks": 4,
          "midi": 38,
          "name": "D2",
          "ticks": 109536,
          "time": 142.625,
          "velocity": 0.9763779527559056
        },
        {
          "duration": 0.0026041666666856145,
          "durationTicks": 2,
          "midi": 42,
          "name": "F#2",
          "ticks": 109730,
          "time": 142.87760416666666,
          "velocity": 0.5669291338582677
        },
        {
          "duration": 0.0078125,
          "durationTicks": 6,
          "midi": 42,
          "name": "F#2",
          "ticks": 109926,
          "time": 143.1328125,
          "velocity": 0.41732283464566927
        },
        {
          "duration": 0.0026041666666856145,
          "durationTicks": 2,
          "midi": 35,
          "name": "B1",
          "ticks": 109934,
          "time": 143.14322916666666,
          "velocity": 0.8110236220472441
        },
        {
          "duration": 0.0026041666666571928,
          "durationTicks": 2,
          "midi": 42,
          "name": "F#2",
          "ticks": 110130,
          "time": 143.3984375,
          "velocity": 0.5275590551181102
        },
        {
          "duration": 0.0026041666666856145,
          "durationTicks": 2,
          "midi": 35,
          "name": "B1",
          "ticks": 110132,
          "time": 143.40104166666666,
          "velocity": 0.8110236220472441
        },
        {
          "duration": 0.0026041666666571928,
          "durationTicks": 2,
          "midi": 42,
          "name": "F#2",
          "ticks": 110224,
          "time": 143.52083333333334,
          "velocity": 0.2440944881889764
        },
        {
          "duration": 0.0078125,
          "durationTicks": 6,
          "midi": 27,
          "name": "D#1",
          "ticks": 110328,
          "time": 143.65625,
          "velocity": 0.9133858267716536
        },
        {
          "duration": 0.005208333333342807,
          "durationTicks": 4,
          "midi": 42,
          "name": "F#2",
          "ticks": 110330,
          "time": 143.65885416666666,
          "velocity": 0.5669291338582677
        },
        {
          "duration": 0.005208333333342807,
          "durationTicks": 4,
          "midi": 36,
          "name": "C2",
          "ticks": 110330,
          "time": 143.65885416666666,
          "velocity": 0.9133858267716536
        },
        {
          "duration": 0.0065104166666856145,
          "durationTicks": 5,
          "midi": 38,
          "name": "D2",
          "ticks": 110330,
          "time": 143.65885416666666,
          "velocity": 0.9133858267716536
        },
        {
          "duration": 0.005208333333342807,
          "durationTicks": 4,
          "midi": 28,
          "name": "E1",
          "ticks": 110330,
          "time": 143.65885416666666,
          "velocity": 0.9763779527559056
        },
        {
          "duration": 0.0026041666666571928,
          "durationTicks": 2,
          "midi": 55,
          "name": "G3",
          "ticks": 110334,
          "time": 143.6640625,
          "velocity": 0.4015748031496063
        },
        {
          "duration": 0.0026041666666571928,
          "durationTicks": 2,
          "midi": 40,
          "name": "E2",
          "ticks": 110334,
          "time": 143.6640625,
          "velocity": 0.6692913385826772
        },
        {
          "duration": 0.005208333333342807,
          "durationTicks": 4,
          "midi": 38,
          "name": "D2",
          "ticks": 110334,
          "time": 143.6640625,
          "velocity": 0.9763779527559056
        },
        {
          "duration": 0.005208333333342807,
          "durationTicks": 4,
          "midi": 42,
          "name": "F#2",
          "ticks": 110520,
          "time": 143.90625,
          "velocity": 0.3858267716535433
        },
        {
          "duration": 0.0026041666666571928,
          "durationTicks": 2,
          "midi": 35,
          "name": "B1",
          "ticks": 110722,
          "time": 144.16927083333334,
          "velocity": 0.8110236220472441
        },
        {
          "duration": 0.0026041666666571928,
          "durationTicks": 2,
          "midi": 42,
          "name": "F#2",
          "ticks": 110722,
          "time": 144.16927083333334,
          "velocity": 0.5590551181102362
        },
        {
          "duration": 0.0026041666666856145,
          "durationTicks": 2,
          "midi": 42,
          "name": "F#2",
          "ticks": 110816,
          "time": 144.29166666666666,
          "velocity": 0.3228346456692913
        },
        {
          "duration": 0.0026041666666571928,
          "durationTicks": 2,
          "midi": 42,
          "name": "F#2",
          "ticks": 110916,
          "time": 144.421875,
          "velocity": 0.5433070866141733
        },
        {
          "duration": 0.0026041666666856145,
          "durationTicks": 2,
          "midi": 35,
          "name": "B1",
          "ticks": 110918,
          "time": 144.42447916666666,
          "velocity": 0.8188976377952756
        },
        {
          "duration": 0.0026041666666856145,
          "durationTicks": 2,
          "midi": 42,
          "name": "F#2",
          "ticks": 111014,
          "time": 144.54947916666666,
          "velocity": 0.2755905511811024
        },
        {
          "duration": 0.0078125,
          "durationTicks": 6,
          "midi": 42,
          "name": "F#2",
          "ticks": 111112,
          "time": 144.67708333333334,
          "velocity": 0.5905511811023622
        },
        {
          "duration": 0.005208333333342807,
          "durationTicks": 4,
          "midi": 38,
          "name": "D2",
          "ticks": 111120,
          "time": 144.6875,
          "velocity": 0.984251968503937
        },
        {
          "duration": 0.0026041666666856145,
          "durationTicks": 2,
          "midi": 40,
          "name": "E2",
          "ticks": 111122,
          "time": 144.69010416666666,
          "velocity": 0.6771653543307087
        },
        {
          "duration": 0.0026041666666571928,
          "durationTicks": 2,
          "midi": 41,
          "name": "F2",
          "ticks": 111124,
          "time": 144.69270833333334,
          "velocity": 0.8976377952755905
        },
        {
          "duration": 0.0078125,
          "durationTicks": 6,
          "midi": 46,
          "name": "A#2",
          "ticks": 111310,
          "time": 144.93489583333334,
          "velocity": 0.5590551181102362
        },
        {
          "duration": 0.0078125,
          "durationTicks": 6,
          "midi": 52,
          "name": "E3",
          "ticks": 111318,
          "time": 144.9453125,
          "velocity": 0.44881889763779526
        },
        {
          "duration": 0.010416666666657193,
          "durationTicks": 8,
          "midi": 49,
          "name": "C#3",
          "ticks": 111318,
          "time": 144.9453125,
          "velocity": 0.47244094488188976
        },
        {
          "duration": 0.005208333333342807,
          "durationTicks": 4,
          "midi": 35,
          "name": "B1",
          "ticks": 111320,
          "time": 144.94791666666666,
          "velocity": 0.8346456692913385
        },
        {
          "duration": 0.0026041666666856145,
          "durationTicks": 2,
          "midi": 42,
          "name": "F#2",
          "ticks": 111512,
          "time": 145.19791666666666,
          "velocity": 0.44881889763779526
        },
        {
          "duration": 0.0026041666666856145,
          "durationTicks": 2,
          "midi": 42,
          "name": "F#2",
          "ticks": 111614,
          "time": 145.33072916666666,
          "velocity": 0.25984251968503935
        },
        {
          "duration": 0.0026041666666856145,
          "durationTicks": 2,
          "midi": 42,
          "name": "F#2",
          "ticks": 111710,
          "time": 145.45572916666666,
          "velocity": 0.3228346456692913
        },
        {
          "duration": 0.0026041666666571928,
          "durationTicks": 2,
          "midi": 42,
          "name": "F#2",
          "ticks": 111808,
          "time": 145.58333333333334,
          "velocity": 0.2755905511811024
        },
        {
          "duration": 0.005208333333342807,
          "durationTicks": 4,
          "midi": 38,
          "name": "D2",
          "ticks": 111906,
          "time": 145.7109375,
          "velocity": 0.9763779527559056
        },
        {
          "duration": 0.0026041666666856145,
          "durationTicks": 2,
          "midi": 40,
          "name": "E2",
          "ticks": 111908,
          "time": 145.71354166666666,
          "velocity": 0.6692913385826772
        },
        {
          "duration": 0.0026041666666571928,
          "durationTicks": 2,
          "midi": 42,
          "name": "F#2",
          "ticks": 111910,
          "time": 145.71614583333334,
          "velocity": 0.5905511811023622
        },
        {
          "duration": 0.005208333333342807,
          "durationTicks": 4,
          "midi": 42,
          "name": "F#2",
          "ticks": 112104,
          "time": 145.96875,
          "velocity": 0.5669291338582677
        },
        {
          "duration": 0.0026041666666856145,
          "durationTicks": 2,
          "midi": 35,
          "name": "B1",
          "ticks": 112304,
          "time": 146.22916666666666,
          "velocity": 0.8110236220472441
        },
        {
          "duration": 0.0052083333333143855,
          "durationTicks": 4,
          "midi": 42,
          "name": "F#2",
          "ticks": 112306,
          "time": 146.23177083333334,
          "velocity": 0.5590551181102362
        },
        {
          "duration": 0.005208333333342807,
          "durationTicks": 4,
          "midi": 42,
          "name": "F#2",
          "ticks": 112502,
          "time": 146.48697916666666,
          "velocity": 0.49606299212598426
        },
        {
          "duration": 0.0026041666666571928,
          "durationTicks": 2,
          "midi": 35,
          "name": "B1",
          "ticks": 112504,
          "time": 146.48958333333334,
          "velocity": 0.8188976377952756
        },
        {
          "duration": 0.0078125,
          "durationTicks": 6,
          "midi": 38,
          "name": "D2",
          "ticks": 112702,
          "time": 146.74739583333334,
          "velocity": 0.984251968503937
        },
        {
          "duration": 0.0026041666666571928,
          "durationTicks": 2,
          "midi": 42,
          "name": "F#2",
          "ticks": 112704,
          "time": 146.75,
          "velocity": 0.33858267716535434
        },
        {
          "duration": 0.0026041666666571928,
          "durationTicks": 2,
          "midi": 40,
          "name": "E2",
          "ticks": 112704,
          "time": 146.75,
          "velocity": 0.6771653543307087
        },
        {
          "duration": 0.0026041666666571928,
          "durationTicks": 2,
          "midi": 42,
          "name": "F#2",
          "ticks": 112900,
          "time": 147.00520833333334,
          "velocity": 0.5433070866141733
        },
        {
          "duration": 0.0026041666666571928,
          "durationTicks": 2,
          "midi": 42,
          "name": "F#2",
          "ticks": 112996,
          "time": 147.13020833333334,
          "velocity": 0.3228346456692913
        },
        {
          "duration": 0.0078125,
          "durationTicks": 6,
          "midi": 42,
          "name": "F#2",
          "ticks": 113094,
          "time": 147.2578125,
          "velocity": 0.5748031496062992
        },
        {
          "duration": 0.0026041666666571928,
          "durationTicks": 2,
          "midi": 35,
          "name": "B1",
          "ticks": 113100,
          "time": 147.265625,
          "velocity": 0.8031496062992126
        },
        {
          "duration": 0.005208333333342807,
          "durationTicks": 4,
          "midi": 42,
          "name": "F#2",
          "ticks": 113292,
          "time": 147.515625,
          "velocity": 0.5826771653543307
        },
        {
          "duration": 0.0052083333333143855,
          "durationTicks": 4,
          "midi": 35,
          "name": "B1",
          "ticks": 113296,
          "time": 147.52083333333334,
          "velocity": 0.8031496062992126
        },
        {
          "duration": 0.005208333333342807,
          "durationTicks": 4,
          "midi": 42,
          "name": "F#2",
          "ticks": 113490,
          "time": 147.7734375,
          "velocity": 0.4015748031496063
        },
        {
          "duration": 0.0026041666666571928,
          "durationTicks": 2,
          "midi": 40,
          "name": "E2",
          "ticks": 113496,
          "time": 147.78125,
          "velocity": 0.6771653543307087
        },
        {
          "duration": 0.0026041666666571928,
          "durationTicks": 2,
          "midi": 38,
          "name": "D2",
          "ticks": 113496,
          "time": 147.78125,
          "velocity": 0.984251968503937
        },
        {
          "duration": 0.0026041666666571928,
          "durationTicks": 2,
          "midi": 42,
          "name": "F#2",
          "ticks": 113692,
          "time": 148.03645833333334,
          "velocity": 0.5433070866141733
        },
        {
          "duration": 0.0026041666666571928,
          "durationTicks": 2,
          "midi": 42,
          "name": "F#2",
          "ticks": 113788,
          "time": 148.16145833333334,
          "velocity": 0.30708661417322836
        },
        {
          "duration": 0.0078125,
          "durationTicks": 6,
          "midi": 42,
          "name": "F#2",
          "ticks": 113888,
          "time": 148.29166666666666,
          "velocity": 0.5433070866141733
        },
        {
          "duration": 0.0026041666666571928,
          "durationTicks": 2,
          "midi": 35,
          "name": "B1",
          "ticks": 113890,
          "time": 148.29427083333334,
          "velocity": 0.8110236220472441
        },
        {
          "duration": 0.0026041666666571928,
          "durationTicks": 2,
          "midi": 42,
          "name": "F#2",
          "ticks": 113986,
          "time": 148.41927083333334,
          "velocity": 0.33858267716535434
        },
        {
          "duration": 0.0026041666666571928,
          "durationTicks": 2,
          "midi": 35,
          "name": "B1",
          "ticks": 114082,
          "time": 148.54427083333334,
          "velocity": 0.7795275590551181
        },
        {
          "duration": 0.0026041666666856145,
          "durationTicks": 2,
          "midi": 42,
          "name": "F#2",
          "ticks": 114086,
          "time": 148.54947916666666,
          "velocity": 0.5748031496062992
        },
        {
          "duration": 0.005208333333342807,
          "durationTicks": 4,
          "midi": 38,
          "name": "D2",
          "ticks": 114282,
          "time": 148.8046875,
          "velocity": 1
        },
        {
          "duration": 0.0026041666666856145,
          "durationTicks": 2,
          "midi": 40,
          "name": "E2",
          "ticks": 114284,
          "time": 148.80729166666666,
          "velocity": 0.6929133858267716
        },
        {
          "duration": 0.0026041666666571928,
          "durationTicks": 2,
          "midi": 42,
          "name": "F#2",
          "ticks": 114286,
          "time": 148.80989583333334,
          "velocity": 0.4015748031496063
        },
        {
          "duration": 0.0026041666666571928,
          "durationTicks": 2,
          "midi": 35,
          "name": "B1",
          "ticks": 114478,
          "time": 149.05989583333334,
          "velocity": 0.8031496062992126
        },
        {
          "duration": 0.0026041666666571928,
          "durationTicks": 2,
          "midi": 46,
          "name": "A#2",
          "ticks": 114484,
          "time": 149.06770833333334,
          "velocity": 0.5590551181102362
        },
        {
          "duration": 0.0026041666666571928,
          "durationTicks": 2,
          "midi": 42,
          "name": "F#2",
          "ticks": 114678,
          "time": 149.3203125,
          "velocity": 0.4409448818897638
        },
        {
          "duration": 0.0026041666666571928,
          "durationTicks": 2,
          "midi": 42,
          "name": "F#2",
          "ticks": 114876,
          "time": 149.578125,
          "velocity": 0.5590551181102362
        },
        {
          "duration": 0.0078125,
          "durationTicks": 6,
          "midi": 38,
          "name": "D2",
          "ticks": 115076,
          "time": 149.83854166666666,
          "velocity": 0.9921259842519685
        },
        {
          "duration": 0.0026041666666571928,
          "durationTicks": 2,
          "midi": 42,
          "name": "F#2",
          "ticks": 115078,
          "time": 149.84114583333334,
          "velocity": 0.4330708661417323
        },
        {
          "duration": 0.0052083333333143855,
          "durationTicks": 4,
          "midi": 40,
          "name": "E2",
          "ticks": 115078,
          "time": 149.84114583333334,
          "velocity": 0.6850393700787402
        },
        {
          "duration": 0.005208333333342807,
          "durationTicks": 4,
          "midi": 42,
          "name": "F#2",
          "ticks": 115272,
          "time": 150.09375,
          "velocity": 0.5275590551181102
        },
        {
          "duration": 0.0026041666666571928,
          "durationTicks": 2,
          "midi": 42,
          "name": "F#2",
          "ticks": 115372,
          "time": 150.22395833333334,
          "velocity": 0.30708661417322836
        },
        {
          "duration": 0.0026041666666571928,
          "durationTicks": 2,
          "midi": 42,
          "name": "F#2",
          "ticks": 115468,
          "time": 150.34895833333334,
          "velocity": 0.48031496062992124
        },
        {
          "duration": 0.0052083333333143855,
          "durationTicks": 4,
          "midi": 35,
          "name": "B1",
          "ticks": 115474,
          "time": 150.35677083333334,
          "velocity": 0.8110236220472441
        },
        {
          "duration": 0.0078125,
          "durationTicks": 6,
          "midi": 42,
          "name": "F#2",
          "ticks": 115666,
          "time": 150.60677083333334,
          "velocity": 0.4015748031496063
        },
        {
          "duration": 0.0052083333333143855,
          "durationTicks": 4,
          "midi": 35,
          "name": "B1",
          "ticks": 115672,
          "time": 150.61458333333334,
          "velocity": 0.8110236220472441
        },
        {
          "duration": 0.0052083333333143855,
          "durationTicks": 4,
          "midi": 38,
          "name": "D2",
          "ticks": 115870,
          "time": 150.87239583333334,
          "velocity": 0.984251968503937
        },
        {
          "duration": 0.0026041666666571928,
          "durationTicks": 2,
          "midi": 40,
          "name": "E2",
          "ticks": 115872,
          "time": 150.875,
          "velocity": 0.6771653543307087
        },
        {
          "duration": 0.005208333333342807,
          "durationTicks": 4,
          "midi": 42,
          "name": "F#2",
          "ticks": 116066,
          "time": 151.12760416666666,
          "velocity": 0.5826771653543307
        },
        {
          "duration": 0.0026041666666571928,
          "durationTicks": 2,
          "midi": 42,
          "name": "F#2",
          "ticks": 116164,
          "time": 151.25520833333334,
          "velocity": 0.3858267716535433
        },
        {
          "duration": 0.005208333333342807,
          "durationTicks": 4,
          "midi": 42,
          "name": "F#2",
          "ticks": 116262,
          "time": 151.3828125,
          "velocity": 0.48031496062992124
        },
        {
          "duration": 0.0026041666666571928,
          "durationTicks": 2,
          "midi": 35,
          "name": "B1",
          "ticks": 116266,
          "time": 151.38802083333334,
          "velocity": 0.7874015748031497
        },
        {
          "duration": 0.0026041666666571928,
          "durationTicks": 2,
          "midi": 42,
          "name": "F#2",
          "ticks": 116362,
          "time": 151.51302083333334,
          "velocity": 0.3700787401574803
        },
        {
          "duration": 0.015625,
          "durationTicks": 12,
          "midi": 27,
          "name": "D#1",
          "ticks": 116466,
          "time": 151.6484375,
          "velocity": 0.8346456692913385
        },
        {
          "duration": 0.015625,
          "durationTicks": 12,
          "midi": 55,
          "name": "G3",
          "ticks": 116468,
          "time": 151.65104166666666,
          "velocity": 0.4015748031496063
        },
        {
          "duration": 0.013020833333342807,
          "durationTicks": 10,
          "midi": 28,
          "name": "E1",
          "ticks": 116468,
          "time": 151.65104166666666,
          "velocity": 0.9291338582677166
        },
        {
          "duration": 0.013020833333342807,
          "durationTicks": 10,
          "midi": 38,
          "name": "D2",
          "ticks": 116468,
          "time": 151.65104166666666,
          "velocity": 0.8661417322834646
        },
        {
          "duration": 0.013020833333314386,
          "durationTicks": 10,
          "midi": 42,
          "name": "F#2",
          "ticks": 116470,
          "time": 151.65364583333334,
          "velocity": 0.5433070866141733
        },
        {
          "duration": 0.005208333333342807,
          "durationTicks": 4,
          "midi": 35,
          "name": "B1",
          "ticks": 116472,
          "time": 151.65625,
          "velocity": 0.7874015748031497
        },
        {
          "duration": 0.013020833333342807,
          "durationTicks": 10,
          "midi": 38,
          "name": "D2",
          "ticks": 116562,
          "time": 151.7734375,
          "velocity": 0.2755905511811024
        },
        {
          "duration": 0.0078125,
          "durationTicks": 6,
          "midi": 28,
          "name": "E1",
          "ticks": 116564,
          "time": 151.77604166666666,
          "velocity": 0.8818897637795275
        },
        {
          "duration": 0.0078125,
          "durationTicks": 6,
          "midi": 27,
          "name": "D#1",
          "ticks": 116564,
          "time": 151.77604166666666,
          "velocity": 0.4015748031496063
        },
        {
          "duration": 0.0026041666666571928,
          "durationTicks": 2,
          "midi": 55,
          "name": "G3",
          "ticks": 116572,
          "time": 151.78645833333334,
          "velocity": 0.4015748031496063
        },
        {
          "duration": 0.0078125,
          "durationTicks": 6,
          "midi": 38,
          "name": "D2",
          "ticks": 116658,
          "time": 151.8984375,
          "velocity": 0.9763779527559056
        },
        {
          "duration": 0.0026041666666571928,
          "durationTicks": 2,
          "midi": 42,
          "name": "F#2",
          "ticks": 116662,
          "time": 151.90364583333334,
          "velocity": 0.44881889763779526
        },
        {
          "duration": 0.0026041666666571928,
          "durationTicks": 2,
          "midi": 40,
          "name": "E2",
          "ticks": 116662,
          "time": 151.90364583333334,
          "velocity": 0.6692913385826772
        },
        {
          "duration": 0.010416666666657193,
          "durationTicks": 8,
          "midi": 27,
          "name": "D#1",
          "ticks": 116758,
          "time": 152.02864583333334,
          "velocity": 0.8976377952755905
        },
        {
          "duration": 0.0026041666666856145,
          "durationTicks": 2,
          "midi": 38,
          "name": "D2",
          "ticks": 116762,
          "time": 152.03385416666666,
          "velocity": 0.8188976377952756
        },
        {
          "duration": 0.005208333333342807,
          "durationTicks": 4,
          "midi": 28,
          "name": "E1",
          "ticks": 116762,
          "time": 152.03385416666666,
          "velocity": 0.9291338582677166
        },
        {
          "duration": 0.005208333333342807,
          "durationTicks": 4,
          "midi": 55,
          "name": "G3",
          "ticks": 116766,
          "time": 152.0390625,
          "velocity": 0.4015748031496063
        },
        {
          "duration": 0.0078125,
          "durationTicks": 6,
          "midi": 38,
          "name": "D2",
          "ticks": 116860,
          "time": 152.16145833333334,
          "velocity": 1
        },
        {
          "duration": 0.0078125,
          "durationTicks": 6,
          "midi": 27,
          "name": "D#1",
          "ticks": 116860,
          "time": 152.16145833333334,
          "velocity": 0.9763779527559056
        },
        {
          "duration": 0.0078125,
          "durationTicks": 6,
          "midi": 28,
          "name": "E1",
          "ticks": 116862,
          "time": 152.1640625,
          "velocity": 1
        },
        {
          "duration": 0.0026041666666856145,
          "durationTicks": 2,
          "midi": 42,
          "name": "F#2",
          "ticks": 116864,
          "time": 152.16666666666666,
          "velocity": 0.5275590551181102
        },
        {
          "duration": 0.0026041666666856145,
          "durationTicks": 2,
          "midi": 42,
          "name": "F#2",
          "ticks": 116954,
          "time": 152.28385416666666,
          "velocity": 0.3543307086614173
        },
        {
          "duration": 0.0026041666666856145,
          "durationTicks": 2,
          "midi": 55,
          "name": "G3",
          "ticks": 116960,
          "time": 152.29166666666666,
          "velocity": 0.4015748031496063
        },
        {
          "duration": 0.010416666666657193,
          "durationTicks": 8,
          "midi": 27,
          "name": "D#1",
          "ticks": 117060,
          "time": 152.421875,
          "velocity": 0.9291338582677166
        },
        {
          "duration": 0.010416666666685614,
          "durationTicks": 8,
          "midi": 28,
          "name": "E1",
          "ticks": 117062,
          "time": 152.42447916666666,
          "velocity": 0.9291338582677166
        },
        {
          "duration": 0.0052083333333143855,
          "durationTicks": 4,
          "midi": 38,
          "name": "D2",
          "ticks": 117064,
          "time": 152.42708333333334,
          "velocity": 0.9763779527559056
        },
        {
          "duration": 0.0078125,
          "durationTicks": 6,
          "midi": 42,
          "name": "F#2",
          "ticks": 117064,
          "time": 152.42708333333334,
          "velocity": 0.5669291338582677
        },
        {
          "duration": 0.0052083333333143855,
          "durationTicks": 4,
          "midi": 35,
          "name": "B1",
          "ticks": 117064,
          "time": 152.42708333333334,
          "velocity": 0.7874015748031497
        },
        {
          "duration": 0.005208333333342807,
          "durationTicks": 4,
          "midi": 55,
          "name": "G3",
          "ticks": 117072,
          "time": 152.4375,
          "velocity": 0.4015748031496063
        },
        {
          "duration": 0.005208333333342807,
          "durationTicks": 4,
          "midi": 42,
          "name": "F#2",
          "ticks": 117152,
          "time": 152.54166666666666,
          "velocity": 0.3858267716535433
        },
        {
          "duration": 0.0078125,
          "durationTicks": 6,
          "midi": 42,
          "name": "F#2",
          "ticks": 117250,
          "time": 152.66927083333334,
          "velocity": 0.5433070866141733
        },
        {
          "duration": 0.0026041666666571928,
          "durationTicks": 2,
          "midi": 35,
          "name": "B1",
          "ticks": 117252,
          "time": 152.671875,
          "velocity": 0.8188976377952756
        },
        {
          "duration": 0.0078125,
          "durationTicks": 6,
          "midi": 38,
          "name": "D2",
          "ticks": 117450,
          "time": 152.9296875,
          "velocity": 0.9921259842519685
        },
        {
          "duration": 0.0026041666666571928,
          "durationTicks": 2,
          "midi": 40,
          "name": "E2",
          "ticks": 117456,
          "time": 152.9375,
          "velocity": 0.6850393700787402
        },
        {
          "duration": 0.0078125,
          "durationTicks": 6,
          "midi": 27,
          "name": "D#1",
          "ticks": 117458,
          "time": 152.94010416666666,
          "velocity": 0.8818897637795275
        },
        {
          "duration": 0.0052083333333143855,
          "durationTicks": 4,
          "midi": 28,
          "name": "E1",
          "ticks": 117460,
          "time": 152.94270833333334,
          "velocity": 0.9763779527559056
        },
        {
          "duration": 0.0078125,
          "durationTicks": 6,
          "midi": 29,
          "name": "F1",
          "ticks": 117460,
          "time": 152.94270833333334,
          "velocity": 0.6456692913385826
        },
        {
          "duration": 0.0026041666666571928,
          "durationTicks": 2,
          "midi": 42,
          "name": "F#2",
          "ticks": 117462,
          "time": 152.9453125,
          "velocity": 0.3700787401574803
        },
        {
          "duration": 0.0026041666666571928,
          "durationTicks": 2,
          "midi": 55,
          "name": "G3",
          "ticks": 117466,
          "time": 152.95052083333334,
          "velocity": 0.4015748031496063
        },
        {
          "duration": 0.0078125,
          "durationTicks": 6,
          "midi": 46,
          "name": "A#2",
          "ticks": 117648,
          "time": 153.1875,
          "velocity": 0.5590551181102362
        },
        {
          "duration": 0.010416666666685614,
          "durationTicks": 8,
          "midi": 52,
          "name": "E3",
          "ticks": 117656,
          "time": 153.19791666666666,
          "velocity": 0.5905511811023622
        },
        {
          "duration": 0.010416666666685614,
          "durationTicks": 8,
          "midi": 49,
          "name": "C#3",
          "ticks": 117656,
          "time": 153.19791666666666,
          "velocity": 0.6141732283464567
        },
        {
          "duration": 0.0052083333333143855,
          "durationTicks": 4,
          "midi": 35,
          "name": "B1",
          "ticks": 117658,
          "time": 153.20052083333334,
          "velocity": 0.8110236220472441
        },
        {
          "duration": 0.005208333333342807,
          "durationTicks": 4,
          "midi": 42,
          "name": "F#2",
          "ticks": 117846,
          "time": 153.4453125,
          "velocity": 0.4645669291338583
        },
        {
          "duration": 0.005208333333342807,
          "durationTicks": 4,
          "midi": 42,
          "name": "F#2",
          "ticks": 118046,
          "time": 153.70572916666666,
          "velocity": 0.5275590551181102
        },
        {
          "duration": 0.0026041666666571928,
          "durationTicks": 2,
          "midi": 32,
          "name": "G#1",
          "ticks": 118050,
          "time": 153.7109375,
          "velocity": 0.5748031496062992
        },
        {
          "duration": 0.005208333333342807,
          "durationTicks": 4,
          "midi": 32,
          "name": "G#1",
          "ticks": 118146,
          "time": 153.8359375,
          "velocity": 0.4645669291338583
        },
        {
          "duration": 0.0078125,
          "durationTicks": 6,
          "midi": 40,
          "name": "E2",
          "ticks": 118246,
          "time": 153.96614583333334,
          "velocity": 0.6850393700787402
        },
        {
          "duration": 0.0078125,
          "durationTicks": 6,
          "midi": 38,
          "name": "D2",
          "ticks": 118246,
          "time": 153.96614583333334,
          "velocity": 0.9921259842519685
        },
        {
          "duration": 0.005208333333342807,
          "durationTicks": 4,
          "midi": 42,
          "name": "F#2",
          "ticks": 118248,
          "time": 153.96875,
          "velocity": 0.4645669291338583
        },
        {
          "duration": 0.0026041666666571928,
          "durationTicks": 2,
          "midi": 32,
          "name": "G#1",
          "ticks": 118254,
          "time": 153.9765625,
          "velocity": 0.5118110236220472
        },
        {
          "duration": 0.0052083333333143855,
          "durationTicks": 4,
          "midi": 32,
          "name": "G#1",
          "ticks": 118342,
          "time": 154.09114583333334,
          "velocity": 0.44881889763779526
        },
        {
          "duration": 0.005208333333342807,
          "durationTicks": 4,
          "midi": 32,
          "name": "G#1",
          "ticks": 118440,
          "time": 154.21875,
          "velocity": 0.5748031496062992
        },
        {
          "duration": 0.0026041666666571928,
          "durationTicks": 2,
          "midi": 42,
          "name": "F#2",
          "ticks": 118446,
          "time": 154.2265625,
          "velocity": 0.49606299212598426
        },
        {
          "duration": 0.0052083333333143855,
          "durationTicks": 4,
          "midi": 32,
          "name": "G#1",
          "ticks": 118540,
          "time": 154.34895833333334,
          "velocity": 0.5118110236220472
        },
        {
          "duration": 0.0026041666666571928,
          "durationTicks": 2,
          "midi": 42,
          "name": "F#2",
          "ticks": 118542,
          "time": 154.3515625,
          "velocity": 0.3543307086614173
        },
        {
          "duration": 0.0026041666666571928,
          "durationTicks": 2,
          "midi": 35,
          "name": "B1",
          "ticks": 118642,
          "time": 154.48177083333334,
          "velocity": 0.7716535433070866
        },
        {
          "duration": 0.0052083333333143855,
          "durationTicks": 4,
          "midi": 42,
          "name": "F#2",
          "ticks": 118642,
          "time": 154.48177083333334,
          "velocity": 0.5669291338582677
        },
        {
          "duration": 0.0052083333333143855,
          "durationTicks": 4,
          "midi": 32,
          "name": "G#1",
          "ticks": 118642,
          "time": 154.48177083333334,
          "velocity": 0.5905511811023622
        },
        {
          "duration": 0.0026041666666571928,
          "durationTicks": 2,
          "midi": 35,
          "name": "B1",
          "ticks": 118840,
          "time": 154.73958333333334,
          "velocity": 0.8031496062992126
        },
        {
          "duration": 0.0026041666666571928,
          "durationTicks": 2,
          "midi": 42,
          "name": "F#2",
          "ticks": 118840,
          "time": 154.73958333333334,
          "velocity": 0.5669291338582677
        },
        {
          "duration": 0.0026041666666571928,
          "durationTicks": 2,
          "midi": 32,
          "name": "G#1",
          "ticks": 118840,
          "time": 154.73958333333334,
          "velocity": 0.5118110236220472
        },
        {
          "duration": 0.010416666666685614,
          "durationTicks": 8,
          "midi": 38,
          "name": "D2",
          "ticks": 119036,
          "time": 154.99479166666666,
          "velocity": 0.984251968503937
        },
        {
          "duration": 0.0052083333333143855,
          "durationTicks": 4,
          "midi": 40,
          "name": "E2",
          "ticks": 119038,
          "time": 154.99739583333334,
          "velocity": 0.6771653543307087
        },
        {
          "duration": 0.0026041666666571928,
          "durationTicks": 2,
          "midi": 42,
          "name": "F#2",
          "ticks": 119040,
          "time": 155,
          "velocity": 0.4015748031496063
        },
        {
          "duration": 0.0026041666666571928,
          "durationTicks": 2,
          "midi": 32,
          "name": "G#1",
          "ticks": 119044,
          "time": 155.00520833333334,
          "velocity": 0.5275590551181102
        },
        {
          "duration": 0.005208333333342807,
          "durationTicks": 4,
          "midi": 32,
          "name": "G#1",
          "ticks": 119232,
          "time": 155.25,
          "velocity": 0.49606299212598426
        },
        {
          "duration": 0.0026041666666571928,
          "durationTicks": 2,
          "midi": 46,
          "name": "A#2",
          "ticks": 119238,
          "time": 155.2578125,
          "velocity": 0.6299212598425197
        },
        {
          "duration": 0.0026041666666856145,
          "durationTicks": 2,
          "midi": 42,
          "name": "F#2",
          "ticks": 119432,
          "time": 155.51041666666666,
          "velocity": 0.5826771653543307
        },
        {
          "duration": 0.0026041666666571928,
          "durationTicks": 2,
          "midi": 35,
          "name": "B1",
          "ticks": 119434,
          "time": 155.51302083333334,
          "velocity": 0.8188976377952756
        },
        {
          "duration": 0.005208333333342807,
          "durationTicks": 4,
          "midi": 42,
          "name": "F#2",
          "ticks": 119528,
          "time": 155.63541666666666,
          "velocity": 0.3543307086614173
        },
        {
          "duration": 0.0052083333333143855,
          "durationTicks": 4,
          "midi": 42,
          "name": "F#2",
          "ticks": 119626,
          "time": 155.76302083333334,
          "velocity": 0.12598425196850394
        },
        {
          "duration": 0.0052083333333143855,
          "durationTicks": 4,
          "midi": 35,
          "name": "B1",
          "ticks": 119632,
          "time": 155.77083333333334,
          "velocity": 0.8110236220472441
        },
        {
          "duration": 0.0052083333333143855,
          "durationTicks": 4,
          "midi": 32,
          "name": "G#1",
          "ticks": 119632,
          "time": 155.77083333333334,
          "velocity": 0.5748031496062992
        },
        {
          "duration": 0.0026041666666571928,
          "durationTicks": 2,
          "midi": 32,
          "name": "G#1",
          "ticks": 119728,
          "time": 155.89583333333334,
          "velocity": 0.4645669291338583
        },
        {
          "duration": 0.0052083333333143855,
          "durationTicks": 4,
          "midi": 42,
          "name": "F#2",
          "ticks": 119824,
          "time": 156.02083333333334,
          "velocity": 0.44881889763779526
        },
        {
          "duration": 0.0052083333333143855,
          "durationTicks": 4,
          "midi": 32,
          "name": "G#1",
          "ticks": 119830,
          "time": 156.02864583333334,
          "velocity": 0.5118110236220472
        },
        {
          "duration": 0.005208333333342807,
          "durationTicks": 4,
          "midi": 38,
          "name": "D2",
          "ticks": 119834,
          "time": 156.03385416666666,
          "velocity": 0.9763779527559056
        },
        {
          "duration": 0.0026041666666856145,
          "durationTicks": 2,
          "midi": 40,
          "name": "E2",
          "ticks": 119834,
          "time": 156.03385416666666,
          "velocity": 0.6692913385826772
        },
        {
          "duration": 0.0026041666666571928,
          "durationTicks": 2,
          "midi": 32,
          "name": "G#1",
          "ticks": 119926,
          "time": 156.15364583333334,
          "velocity": 0.44881889763779526
        },
        {
          "duration": 0.005208333333342807,
          "durationTicks": 4,
          "midi": 32,
          "name": "G#1",
          "ticks": 120024,
          "time": 156.28125,
          "velocity": 0.5275590551181102
        },
        {
          "duration": 0.0026041666666856145,
          "durationTicks": 2,
          "midi": 42,
          "name": "F#2",
          "ticks": 120026,
          "time": 156.28385416666666,
          "velocity": 0.5275590551181102
        },
        {
          "duration": 0.0052083333333143855,
          "durationTicks": 4,
          "midi": 32,
          "name": "G#1",
          "ticks": 120124,
          "time": 156.41145833333334,
          "velocity": 0.44881889763779526
        },
        {
          "duration": 0.0026041666666571928,
          "durationTicks": 2,
          "midi": 42,
          "name": "F#2",
          "ticks": 120126,
          "time": 156.4140625,
          "velocity": 0.3228346456692913
        },
        {
          "duration": 0.0052083333333143855,
          "durationTicks": 4,
          "midi": 42,
          "name": "F#2",
          "ticks": 120226,
          "time": 156.54427083333334,
          "velocity": 0.5118110236220472
        },
        {
          "duration": 0.0052083333333143855,
          "durationTicks": 4,
          "midi": 32,
          "name": "G#1",
          "ticks": 120226,
          "time": 156.54427083333334,
          "velocity": 0.5590551181102362
        },
        {
          "duration": 0.0026041666666571928,
          "durationTicks": 2,
          "midi": 35,
          "name": "B1",
          "ticks": 120228,
          "time": 156.546875,
          "velocity": 0.8188976377952756
        },
        {
          "duration": 0.0026041666666571928,
          "durationTicks": 2,
          "midi": 42,
          "name": "F#2",
          "ticks": 120322,
          "time": 156.66927083333334,
          "velocity": 0.33858267716535434
        },
        {
          "duration": 0.0052083333333143855,
          "durationTicks": 4,
          "midi": 42,
          "name": "F#2",
          "ticks": 120418,
          "time": 156.79427083333334,
          "velocity": 0.12598425196850394
        },
        {
          "duration": 0.0052083333333143855,
          "durationTicks": 4,
          "midi": 35,
          "name": "B1",
          "ticks": 120424,
          "time": 156.80208333333334,
          "velocity": 0.8188976377952756
        },
        {
          "duration": 0.0078125,
          "durationTicks": 6,
          "midi": 32,
          "name": "G#1",
          "ticks": 120424,
          "time": 156.80208333333334,
          "velocity": 0.5118110236220472
        },
        {
          "duration": 0.0026041666666571928,
          "durationTicks": 2,
          "midi": 42,
          "name": "F#2",
          "ticks": 120622,
          "time": 157.05989583333334,
          "velocity": 0.44881889763779526
        },
        {
          "duration": 0.0078125,
          "durationTicks": 6,
          "midi": 32,
          "name": "G#1",
          "ticks": 120622,
          "time": 157.05989583333334,
          "velocity": 0.49606299212598426
        },
        {
          "duration": 0.0052083333333143855,
          "durationTicks": 4,
          "midi": 40,
          "name": "E2",
          "ticks": 120622,
          "time": 157.05989583333334,
          "velocity": 0.6771653543307087
        },
        {
          "duration": 0.0052083333333143855,
          "durationTicks": 4,
          "midi": 38,
          "name": "D2",
          "ticks": 120622,
          "time": 157.05989583333334,
          "velocity": 0.984251968503937
        },
        {
          "duration": 0.0078125,
          "durationTicks": 6,
          "midi": 35,
          "name": "B1",
          "ticks": 120816,
          "time": 157.3125,
          "velocity": 0.8267716535433071
        },
        {
          "duration": 0.0078125,
          "durationTicks": 6,
          "midi": 46,
          "name": "A#2",
          "ticks": 120816,
          "time": 157.3125,
          "velocity": 0.5433070866141733
        },
        {
          "duration": 0.0026041666666571928,
          "durationTicks": 2,
          "midi": 32,
          "name": "G#1",
          "ticks": 120822,
          "time": 157.3203125,
          "velocity": 0.48031496062992124
        },
        {
          "duration": 0.0052083333333143855,
          "durationTicks": 4,
          "midi": 42,
          "name": "F#2",
          "ticks": 121012,
          "time": 157.56770833333334,
          "velocity": 0.44881889763779526
        },
        {
          "duration": 0.0026041666666856145,
          "durationTicks": 2,
          "midi": 32,
          "name": "G#1",
          "ticks": 121214,
          "time": 157.83072916666666,
          "velocity": 0.6377952755905512
        },
        {
          "duration": 0.0026041666666571928,
          "durationTicks": 2,
          "midi": 42,
          "name": "F#2",
          "ticks": 121218,
          "time": 157.8359375,
          "velocity": 0.5433070866141733
        },
        {
          "duration": 0.005208333333342807,
          "durationTicks": 4,
          "midi": 32,
          "name": "G#1",
          "ticks": 121310,
          "time": 157.95572916666666,
          "velocity": 0.5118110236220472
        },
        {
          "duration": 0.010416666666657193,
          "durationTicks": 8,
          "midi": 40,
          "name": "E2",
          "ticks": 121414,
          "time": 158.09114583333334,
          "velocity": 0.6929133858267716
        },
        {
          "duration": 0.0078125,
          "durationTicks": 6,
          "midi": 38,
          "name": "D2",
          "ticks": 121414,
          "time": 158.09114583333334,
          "velocity": 1
        },
        {
          "duration": 0.0078125,
          "durationTicks": 6,
          "midi": 32,
          "name": "G#1",
          "ticks": 121416,
          "time": 158.09375,
          "velocity": 0.5275590551181102
        },
        {
          "duration": 0.005208333333342807,
          "durationTicks": 4,
          "midi": 42,
          "name": "F#2",
          "ticks": 121416,
          "time": 158.09375,
          "velocity": 0.5748031496062992
        },
        {
          "duration": 0.013020833333314386,
          "durationTicks": 10,
          "midi": 32,
          "name": "G#1",
          "ticks": 121510,
          "time": 158.21614583333334,
          "velocity": 0.4330708661417323
        },
        {
          "duration": 0.0078125,
          "durationTicks": 6,
          "midi": 42,
          "name": "F#2",
          "ticks": 121512,
          "time": 158.21875,
          "velocity": 0.4015748031496063
        },
        {
          "duration": 0.0078125,
          "durationTicks": 6,
          "midi": 32,
          "name": "G#1",
          "ticks": 121608,
          "time": 158.34375,
          "velocity": 0.5748031496062992
        },
        {
          "duration": 0.0026041666666571928,
          "durationTicks": 2,
          "midi": 42,
          "name": "F#2",
          "ticks": 121612,
          "time": 158.34895833333334,
          "velocity": 0.5433070866141733
        },
        {
          "duration": 0.005208333333342807,
          "durationTicks": 4,
          "midi": 42,
          "name": "F#2",
          "ticks": 121704,
          "time": 158.46875,
          "velocity": 0.3228346456692913
        },
        {
          "duration": 0.0026041666666571928,
          "durationTicks": 2,
          "midi": 32,
          "name": "G#1",
          "ticks": 121710,
          "time": 158.4765625,
          "velocity": 0.4645669291338583
        },
        {
          "duration": 0.0052083333333143855,
          "durationTicks": 4,
          "midi": 42,
          "name": "F#2",
          "ticks": 121810,
          "time": 158.60677083333334,
          "velocity": 0.5826771653543307
        },
        {
          "duration": 0.0052083333333143855,
          "durationTicks": 4,
          "midi": 32,
          "name": "G#1",
          "ticks": 121810,
          "time": 158.60677083333334,
          "velocity": 0.6220472440944882
        },
        {
          "duration": 0.0026041666666571928,
          "durationTicks": 2,
          "midi": 35,
          "name": "B1",
          "ticks": 121812,
          "time": 158.609375,
          "velocity": 0.8188976377952756
        },
        {
          "duration": 0.0078125,
          "durationTicks": 6,
          "midi": 42,
          "name": "F#2",
          "ticks": 122006,
          "time": 158.86197916666666,
          "velocity": 0.5984251968503937
        },
        {
          "duration": 0.0052083333333143855,
          "durationTicks": 4,
          "midi": 35,
          "name": "B1",
          "ticks": 122008,
          "time": 158.86458333333334,
          "velocity": 0.8188976377952756
        },
        {
          "duration": 0.0026041666666571928,
          "durationTicks": 2,
          "midi": 32,
          "name": "G#1",
          "ticks": 122014,
          "time": 158.87239583333334,
          "velocity": 0.5275590551181102
        },
        {
          "duration": 0.0026041666666571928,
          "durationTicks": 2,
          "midi": 42,
          "name": "F#2",
          "ticks": 122104,
          "time": 158.98958333333334,
          "velocity": 0.4015748031496063
        },
        {
          "duration": 0.0078125,
          "durationTicks": 6,
          "midi": 42,
          "name": "F#2",
          "ticks": 122202,
          "time": 159.1171875,
          "velocity": 0.5433070866141733
        },
        {
          "duration": 0.0078125,
          "durationTicks": 6,
          "midi": 38,
          "name": "D2",
          "ticks": 122210,
          "time": 159.12760416666666,
          "velocity": 0.9921259842519685
        },
        {
          "duration": 0.0052083333333143855,
          "durationTicks": 4,
          "midi": 40,
          "name": "E2",
          "ticks": 122212,
          "time": 159.13020833333334,
          "velocity": 0.6850393700787402
        },
        {
          "duration": 0.0026041666666571928,
          "durationTicks": 2,
          "midi": 32,
          "name": "G#1",
          "ticks": 122212,
          "time": 159.13020833333334,
          "velocity": 0.6062992125984252
        },
        {
          "duration": 0.0078125,
          "durationTicks": 6,
          "midi": 32,
          "name": "G#1",
          "ticks": 122400,
          "time": 159.375,
          "velocity": 0.49606299212598426
        },
        {
          "duration": 0.0026041666666571928,
          "durationTicks": 2,
          "midi": 42,
          "name": "F#2",
          "ticks": 122404,
          "time": 159.38020833333334,
          "velocity": 0.5826771653543307
        },
        {
          "duration": 0.0026041666666856145,
          "durationTicks": 2,
          "midi": 46,
          "name": "A#2",
          "ticks": 122408,
          "time": 159.38541666666666,
          "velocity": 0.47244094488188976
        },
        {
          "duration": 0.0026041666666856145,
          "durationTicks": 2,
          "midi": 42,
          "name": "F#2",
          "ticks": 122600,
          "time": 159.63541666666666,
          "velocity": 0.6614173228346457
        },
        {
          "duration": 0.0026041666666856145,
          "durationTicks": 2,
          "midi": 28,
          "name": "E1",
          "ticks": 122792,
          "time": 159.88541666666666,
          "velocity": 0.8503937007874016
        },
        {
          "duration": 0.010416666666657193,
          "durationTicks": 8,
          "midi": 27,
          "name": "D#1",
          "ticks": 122796,
          "time": 159.890625,
          "velocity": 0.8346456692913385
        },
        {
          "duration": 0.0026041666666571928,
          "durationTicks": 2,
          "midi": 36,
          "name": "C2",
          "ticks": 122800,
          "time": 159.89583333333334,
          "velocity": 0.8503937007874016
        },
        {
          "duration": 0.0026041666666571928,
          "durationTicks": 2,
          "midi": 38,
          "name": "D2",
          "ticks": 122800,
          "time": 159.89583333333334,
          "velocity": 0.8503937007874016
        },
        {
          "duration": 0.0026041666666856145,
          "durationTicks": 2,
          "midi": 42,
          "name": "F#2",
          "ticks": 122804,
          "time": 159.90104166666666,
          "velocity": 0.5748031496062992
        },
        {
          "duration": 0.0026041666666571928,
          "durationTicks": 2,
          "midi": 55,
          "name": "G3",
          "ticks": 122806,
          "time": 159.90364583333334,
          "velocity": 0.4015748031496063
        },
        {
          "duration": 0.0026041666666571928,
          "durationTicks": 2,
          "midi": 42,
          "name": "F#2",
          "ticks": 122994,
          "time": 160.1484375,
          "velocity": 0.5826771653543307
        },
        {
          "duration": 0.0026041666666571928,
          "durationTicks": 2,
          "midi": 40,
          "name": "E2",
          "ticks": 122998,
          "time": 160.15364583333334,
          "velocity": 0.6771653543307087
        },
        {
          "duration": 0.0026041666666571928,
          "durationTicks": 2,
          "midi": 38,
          "name": "D2",
          "ticks": 122998,
          "time": 160.15364583333334,
          "velocity": 0.984251968503937
        },
        {
          "duration": 0.0026041666666856145,
          "durationTicks": 2,
          "midi": 42,
          "name": "F#2",
          "ticks": 123092,
          "time": 160.27604166666666,
          "velocity": 0.3700787401574803
        },
        {
          "duration": 0.0026041666666571928,
          "durationTicks": 2,
          "midi": 42,
          "name": "F#2",
          "ticks": 123190,
          "time": 160.40364583333334,
          "velocity": 0.5275590551181102
        },
        {
          "duration": 0.0026041666666856145,
          "durationTicks": 2,
          "midi": 42,
          "name": "F#2",
          "ticks": 123290,
          "time": 160.53385416666666,
          "velocity": 0.3228346456692913
        },
        {
          "duration": 0.010416666666685614,
          "durationTicks": 8,
          "midi": 28,
          "name": "E1",
          "ticks": 123392,
          "time": 160.66666666666666,
          "velocity": 0.8976377952755905
        },
        {
          "duration": 0.010416666666685614,
          "durationTicks": 8,
          "midi": 27,
          "name": "D#1",
          "ticks": 123392,
          "time": 160.66666666666666,
          "velocity": 0.8661417322834646
        },
        {
          "duration": 0.0078125,
          "durationTicks": 6,
          "midi": 38,
          "name": "D2",
          "ticks": 123394,
          "time": 160.66927083333334,
          "velocity": 0.8503937007874016
        },
        {
          "duration": 0.0078125,
          "durationTicks": 6,
          "midi": 36,
          "name": "C2",
          "ticks": 123396,
          "time": 160.671875,
          "velocity": 0.8661417322834646
        },
        {
          "duration": 0.0026041666666571928,
          "durationTicks": 2,
          "midi": 42,
          "name": "F#2",
          "ticks": 123396,
          "time": 160.671875,
          "velocity": 0.5905511811023622
        },
        {
          "duration": 0.0026041666666571928,
          "durationTicks": 2,
          "midi": 55,
          "name": "G3",
          "ticks": 123402,
          "time": 160.6796875,
          "velocity": 0.4015748031496063
        },
        {
          "duration": 0.0026041666666571928,
          "durationTicks": 2,
          "midi": 42,
          "name": "F#2",
          "ticks": 123586,
          "time": 160.91927083333334,
          "velocity": 0.4015748031496063
        },
        {
          "duration": 0.010416666666657193,
          "durationTicks": 8,
          "midi": 27,
          "name": "D#1",
          "ticks": 123784,
          "time": 161.17708333333334,
          "velocity": 0.7716535433070866
        },
        {
          "duration": 0.010416666666657193,
          "durationTicks": 8,
          "midi": 40,
          "name": "E2",
          "ticks": 123792,
          "time": 161.1875,
          "velocity": 0.6771653543307087
        },
        {
          "duration": 0.0078125,
          "durationTicks": 6,
          "midi": 38,
          "name": "D2",
          "ticks": 123794,
          "time": 161.19010416666666,
          "velocity": 0.7559055118110236
        },
        {
          "duration": 0.0078125,
          "durationTicks": 6,
          "midi": 28,
          "name": "E1",
          "ticks": 123794,
          "time": 161.19010416666666,
          "velocity": 0.8503937007874016
        },
        {
          "duration": 0.0078125,
          "durationTicks": 6,
          "midi": 36,
          "name": "C2",
          "ticks": 123796,
          "time": 161.19270833333334,
          "velocity": 0.7716535433070866
        },
        {
          "duration": 0.0026041666666571928,
          "durationTicks": 2,
          "midi": 42,
          "name": "F#2",
          "ticks": 123798,
          "time": 161.1953125,
          "velocity": 0.5984251968503937
        },
        {
          "duration": 0.0052083333333143855,
          "durationTicks": 4,
          "midi": 55,
          "name": "G3",
          "ticks": 123802,
          "time": 161.20052083333334,
          "velocity": 0.4015748031496063
        },
        {
          "duration": 0.0026041666666571928,
          "durationTicks": 2,
          "midi": 42,
          "name": "F#2",
          "ticks": 123886,
          "time": 161.30989583333334,
          "velocity": 0.3543307086614173
        },
        {
          "duration": 0.0078125,
          "durationTicks": 6,
          "midi": 49,
          "name": "C#3",
          "ticks": 123982,
          "time": 161.43489583333334,
          "velocity": 0.4881889763779528
        },
        {
          "duration": 0.0026041666666856145,
          "durationTicks": 2,
          "midi": 52,
          "name": "E3",
          "ticks": 123986,
          "time": 161.44010416666666,
          "velocity": 0.4645669291338583
        },
        {
          "duration": 0.005208333333342807,
          "durationTicks": 4,
          "midi": 46,
          "name": "A#2",
          "ticks": 123990,
          "time": 161.4453125,
          "velocity": 0.5590551181102362
        },
        {
          "duration": 0.0026041666666571928,
          "durationTicks": 2,
          "midi": 35,
          "name": "B1",
          "ticks": 123994,
          "time": 161.45052083333334,
          "velocity": 0.8503937007874016
        },
        {
          "duration": 0.0026041666666571928,
          "durationTicks": 2,
          "midi": 42,
          "name": "F#2",
          "ticks": 124182,
          "time": 161.6953125,
          "velocity": 0.48031496062992124
        },
        {
          "duration": 0.0052083333333143855,
          "durationTicks": 4,
          "midi": 42,
          "name": "F#2",
          "ticks": 124378,
          "time": 161.95052083333334,
          "velocity": 0.5433070866141733
        },
        {
          "duration": 0.010416666666685614,
          "durationTicks": 8,
          "midi": 38,
          "name": "D2",
          "ticks": 124580,
          "time": 162.21354166666666,
          "velocity": 1
        },
        {
          "duration": 0.0078125,
          "durationTicks": 6,
          "midi": 40,
          "name": "E2",
          "ticks": 124582,
          "time": 162.21614583333334,
          "velocity": 0.6929133858267716
        },
        {
          "duration": 0.0026041666666571928,
          "durationTicks": 2,
          "midi": 42,
          "name": "F#2",
          "ticks": 124584,
          "time": 162.21875,
          "velocity": 0.5984251968503937
        },
        {
          "duration": 0.0052083333333143855,
          "durationTicks": 4,
          "midi": 42,
          "name": "F#2",
          "ticks": 124780,
          "time": 162.47395833333334,
          "velocity": 0.5669291338582677
        },
        {
          "duration": 0.005208333333342807,
          "durationTicks": 4,
          "midi": 42,
          "name": "F#2",
          "ticks": 124878,
          "time": 162.6015625,
          "velocity": 0.33858267716535434
        },
        {
          "duration": 0.005208333333342807,
          "durationTicks": 4,
          "midi": 42,
          "name": "F#2",
          "ticks": 124982,
          "time": 162.73697916666666,
          "velocity": 0.5826771653543307
        },
        {
          "duration": 0.0026041666666571928,
          "durationTicks": 2,
          "midi": 35,
          "name": "B1",
          "ticks": 124984,
          "time": 162.73958333333334,
          "velocity": 0.8503937007874016
        },
        {
          "duration": 0.0026041666666856145,
          "durationTicks": 2,
          "midi": 42,
          "name": "F#2",
          "ticks": 125078,
          "time": 162.86197916666666,
          "velocity": 0.3228346456692913
        },
        {
          "duration": 0.0026041666666856145,
          "durationTicks": 2,
          "midi": 35,
          "name": "B1",
          "ticks": 125174,
          "time": 162.98697916666666,
          "velocity": 0.8188976377952756
        },
        {
          "duration": 0.0026041666666571928,
          "durationTicks": 2,
          "midi": 42,
          "name": "F#2",
          "ticks": 125178,
          "time": 162.9921875,
          "velocity": 0.5118110236220472
        },
        {
          "duration": 0.005208333333342807,
          "durationTicks": 4,
          "midi": 42,
          "name": "F#2",
          "ticks": 125274,
          "time": 163.1171875,
          "velocity": 0.3858267716535433
        },
        {
          "duration": 0.0026041666666856145,
          "durationTicks": 2,
          "midi": 40,
          "name": "E2",
          "ticks": 125372,
          "time": 163.24479166666666,
          "velocity": 0.6929133858267716
        },
        {
          "duration": 0.0026041666666856145,
          "durationTicks": 2,
          "midi": 38,
          "name": "D2",
          "ticks": 125372,
          "time": 163.24479166666666,
          "velocity": 1
        },
        {
          "duration": 0.0026041666666856145,
          "durationTicks": 2,
          "midi": 42,
          "name": "F#2",
          "ticks": 125474,
          "time": 163.37760416666666,
          "velocity": 0.5826771653543307
        },
        {
          "duration": 0.0026041666666856145,
          "durationTicks": 2,
          "midi": 42,
          "name": "F#2",
          "ticks": 125576,
          "time": 163.51041666666666,
          "velocity": 0.3700787401574803
        },
        {
          "duration": 0.0026041666666856145,
          "durationTicks": 2,
          "midi": 35,
          "name": "B1",
          "ticks": 125774,
          "time": 163.76822916666666,
          "velocity": 0.8188976377952756
        },
        {
          "duration": 0.0052083333333143855,
          "durationTicks": 4,
          "midi": 42,
          "name": "F#2",
          "ticks": 125962,
          "time": 164.01302083333334,
          "velocity": 0.5669291338582677
        },
        {
          "duration": 0.0052083333333143855,
          "durationTicks": 4,
          "midi": 35,
          "name": "B1",
          "ticks": 125968,
          "time": 164.02083333333334,
          "velocity": 0.8503937007874016
        },
        {
          "duration": 0.005208333333342807,
          "durationTicks": 4,
          "midi": 42,
          "name": "F#2",
          "ticks": 126162,
          "time": 164.2734375,
          "velocity": 0.48031496062992124
        },
        {
          "duration": 0.0026041666666571928,
          "durationTicks": 2,
          "midi": 40,
          "name": "E2",
          "ticks": 126168,
          "time": 164.28125,
          "velocity": 0.6771653543307087
        },
        {
          "duration": 0.0026041666666571928,
          "durationTicks": 2,
          "midi": 38,
          "name": "D2",
          "ticks": 126168,
          "time": 164.28125,
          "velocity": 0.984251968503937
        },
        {
          "duration": 0.005208333333342807,
          "durationTicks": 4,
          "midi": 42,
          "name": "F#2",
          "ticks": 126360,
          "time": 164.53125,
          "velocity": 0.5275590551181102
        },
        {
          "duration": 0.0026041666666571928,
          "durationTicks": 2,
          "midi": 42,
          "name": "F#2",
          "ticks": 126460,
          "time": 164.66145833333334,
          "velocity": 0.3228346456692913
        },
        {
          "duration": 0.0078125,
          "durationTicks": 6,
          "midi": 42,
          "name": "F#2",
          "ticks": 126562,
          "time": 164.79427083333334,
          "velocity": 0.5433070866141733
        },
        {
          "duration": 0.0052083333333143855,
          "durationTicks": 4,
          "midi": 35,
          "name": "B1",
          "ticks": 126568,
          "time": 164.80208333333334,
          "velocity": 0.8346456692913385
        },
        {
          "duration": 0.005208333333342807,
          "durationTicks": 4,
          "midi": 42,
          "name": "F#2",
          "ticks": 126756,
          "time": 165.046875,
          "velocity": 0.5669291338582677
        },
        {
          "duration": 0.0026041666666571928,
          "durationTicks": 2,
          "midi": 35,
          "name": "B1",
          "ticks": 126760,
          "time": 165.05208333333334,
          "velocity": 0.8346456692913385
        },
        {
          "duration": 0.0026041666666571928,
          "durationTicks": 2,
          "midi": 40,
          "name": "E2",
          "ticks": 126958,
          "time": 165.30989583333334,
          "velocity": 0.6850393700787402
        },
        {
          "duration": 0.0052083333333143855,
          "durationTicks": 4,
          "midi": 38,
          "name": "D2",
          "ticks": 126958,
          "time": 165.30989583333334,
          "velocity": 0.9921259842519685
        },
        {
          "duration": 0.0026041666666571928,
          "durationTicks": 2,
          "midi": 42,
          "name": "F#2",
          "ticks": 126960,
          "time": 165.3125,
          "velocity": 0.41732283464566927
        },
        {
          "duration": 0.0026041666666856145,
          "durationTicks": 2,
          "midi": 46,
          "name": "A#2",
          "ticks": 127148,
          "time": 165.55729166666666,
          "velocity": 0.5275590551181102
        },
        {
          "duration": 0.005208333333342807,
          "durationTicks": 4,
          "midi": 35,
          "name": "B1",
          "ticks": 127154,
          "time": 165.56510416666666,
          "velocity": 0.8503937007874016
        },
        {
          "duration": 0.0026041666666571928,
          "durationTicks": 2,
          "midi": 42,
          "name": "F#2",
          "ticks": 127354,
          "time": 165.82552083333334,
          "velocity": 0.44881889763779526
        },
        {
          "duration": 0.0026041666666571928,
          "durationTicks": 2,
          "midi": 42,
          "name": "F#2",
          "ticks": 127450,
          "time": 165.95052083333334,
          "velocity": 0.29133858267716534
        },
        {
          "duration": 0.0026041666666856145,
          "durationTicks": 2,
          "midi": 42,
          "name": "F#2",
          "ticks": 127550,
          "time": 166.08072916666666,
          "velocity": 0.5826771653543307
        },
        {
          "duration": 0.0078125,
          "durationTicks": 6,
          "midi": 38,
          "name": "D2",
          "ticks": 127746,
          "time": 166.3359375,
          "velocity": 0.9921259842519685
        },
        {
          "duration": 0.0026041666666856145,
          "durationTicks": 2,
          "midi": 40,
          "name": "E2",
          "ticks": 127748,
          "time": 166.33854166666666,
          "velocity": 0.6850393700787402
        },
        {
          "duration": 0.005208333333342807,
          "durationTicks": 4,
          "midi": 42,
          "name": "F#2",
          "ticks": 127752,
          "time": 166.34375,
          "velocity": 0.4645669291338583
        },
        {
          "duration": 0.0052083333333143855,
          "durationTicks": 4,
          "midi": 42,
          "name": "F#2",
          "ticks": 127948,
          "time": 166.59895833333334,
          "velocity": 0.44881889763779526
        },
        {
          "duration": 0.0052083333333143855,
          "durationTicks": 4,
          "midi": 42,
          "name": "F#2",
          "ticks": 128044,
          "time": 166.72395833333334,
          "velocity": 0.3543307086614173
        },
        {
          "duration": 0.0026041666666571928,
          "durationTicks": 2,
          "midi": 35,
          "name": "B1",
          "ticks": 128148,
          "time": 166.859375,
          "velocity": 0.8346456692913385
        },
        {
          "duration": 0.005208333333342807,
          "durationTicks": 4,
          "midi": 42,
          "name": "F#2",
          "ticks": 128148,
          "time": 166.859375,
          "velocity": 0.5118110236220472
        },
        {
          "duration": 0.0052083333333143855,
          "durationTicks": 4,
          "midi": 42,
          "name": "F#2",
          "ticks": 128344,
          "time": 167.11458333333334,
          "velocity": 0.5669291338582677
        },
        {
          "duration": 0.0026041666666571928,
          "durationTicks": 2,
          "midi": 35,
          "name": "B1",
          "ticks": 128346,
          "time": 167.1171875,
          "velocity": 0.8346456692913385
        },
        {
          "duration": 0.0078125,
          "durationTicks": 6,
          "midi": 38,
          "name": "D2",
          "ticks": 128540,
          "time": 167.36979166666666,
          "velocity": 0.984251968503937
        },
        {
          "duration": 0.0052083333333143855,
          "durationTicks": 4,
          "midi": 40,
          "name": "E2",
          "ticks": 128542,
          "time": 167.37239583333334,
          "velocity": 0.6771653543307087
        },
        {
          "duration": 0.0026041666666571928,
          "durationTicks": 2,
          "midi": 42,
          "name": "F#2",
          "ticks": 128544,
          "time": 167.375,
          "velocity": 0.44881889763779526
        },
        {
          "duration": 0.0078125,
          "durationTicks": 6,
          "midi": 42,
          "name": "F#2",
          "ticks": 128740,
          "time": 167.63020833333334,
          "velocity": 0.5118110236220472
        },
        {
          "duration": 0.0026041666666571928,
          "durationTicks": 2,
          "midi": 42,
          "name": "F#2",
          "ticks": 128842,
          "time": 167.76302083333334,
          "velocity": 0.3858267716535433
        },
        {
          "duration": 0.0026041666666856145,
          "durationTicks": 2,
          "midi": 42,
          "name": "F#2",
          "ticks": 128942,
          "time": 167.89322916666666,
          "velocity": 0.5433070866141733
        },
        {
          "duration": 0.0026041666666571928,
          "durationTicks": 2,
          "midi": 35,
          "name": "B1",
          "ticks": 128944,
          "time": 167.89583333333334,
          "velocity": 0.84251968503937
        },
        {
          "duration": 0.0026041666666856145,
          "durationTicks": 2,
          "midi": 42,
          "name": "F#2",
          "ticks": 129038,
          "time": 168.01822916666666,
          "velocity": 0.30708661417322836
        },
        {
          "duration": 0.0052083333333143855,
          "durationTicks": 4,
          "midi": 42,
          "name": "F#2",
          "ticks": 129136,
          "time": 168.14583333333334,
          "velocity": 0.5669291338582677
        },
        {
          "duration": 0.0026041666666571928,
          "durationTicks": 2,
          "midi": 35,
          "name": "B1",
          "ticks": 129138,
          "time": 168.1484375,
          "velocity": 0.8503937007874016
        },
        {
          "duration": 0.0026041666666571928,
          "durationTicks": 2,
          "midi": 40,
          "name": "E2",
          "ticks": 129336,
          "time": 168.40625,
          "velocity": 0.6850393700787402
        },
        {
          "duration": 0.0078125,
          "durationTicks": 6,
          "midi": 38,
          "name": "D2",
          "ticks": 129336,
          "time": 168.40625,
          "velocity": 0.9921259842519685
        },
        {
          "duration": 0.0026041666666856145,
          "durationTicks": 2,
          "midi": 42,
          "name": "F#2",
          "ticks": 129338,
          "time": 168.40885416666666,
          "velocity": 0.41732283464566927
        },
        {
          "duration": 0.0026041666666571928,
          "durationTicks": 2,
          "midi": 42,
          "name": "F#2",
          "ticks": 129532,
          "time": 168.66145833333334,
          "velocity": 0.49606299212598426
        },
        {
          "duration": 0.0026041666666571928,
          "durationTicks": 2,
          "midi": 42,
          "name": "F#2",
          "ticks": 129628,
          "time": 168.78645833333334,
          "velocity": 0.33858267716535434
        },
        {
          "duration": 0.005208333333342807,
          "durationTicks": 4,
          "midi": 35,
          "name": "B1",
          "ticks": 129732,
          "time": 168.921875,
          "velocity": 0.8503937007874016
        },
        {
          "duration": 0.0026041666666571928,
          "durationTicks": 2,
          "midi": 42,
          "name": "F#2",
          "ticks": 129736,
          "time": 168.92708333333334,
          "velocity": 0.48031496062992124
        },
        {
          "duration": 0.0026041666666571928,
          "durationTicks": 2,
          "midi": 42,
          "name": "F#2",
          "ticks": 129828,
          "time": 169.046875,
          "velocity": 0.3228346456692913
        },
        {
          "duration": 0.005208333333342807,
          "durationTicks": 4,
          "midi": 35,
          "name": "B1",
          "ticks": 129926,
          "time": 169.17447916666666,
          "velocity": 0.8346456692913385
        },
        {
          "duration": 0.0026041666666856145,
          "durationTicks": 2,
          "midi": 42,
          "name": "F#2",
          "ticks": 130028,
          "time": 169.30729166666666,
          "velocity": 0.5275590551181102
        },
        {
          "duration": 0.005208333333342807,
          "durationTicks": 4,
          "midi": 38,
          "name": "D2",
          "ticks": 130122,
          "time": 169.4296875,
          "velocity": 0.9921259842519685
        },
        {
          "duration": 0.0026041666666856145,
          "durationTicks": 2,
          "midi": 40,
          "name": "E2",
          "ticks": 130124,
          "time": 169.43229166666666,
          "velocity": 0.6850393700787402
        },
        {
          "duration": 0.0026041666666856145,
          "durationTicks": 2,
          "midi": 42,
          "name": "F#2",
          "ticks": 130226,
          "time": 169.56510416666666,
          "velocity": 0.5984251968503937
        },
        {
          "duration": 0.0078125,
          "durationTicks": 6,
          "midi": 46,
          "name": "A#2",
          "ticks": 130320,
          "time": 169.6875,
          "velocity": 0.5275590551181102
        },
        {
          "duration": 0.005208333333342807,
          "durationTicks": 4,
          "midi": 35,
          "name": "B1",
          "ticks": 130326,
          "time": 169.6953125,
          "velocity": 0.8503937007874016
        },
        {
          "duration": 0.0026041666666571928,
          "durationTicks": 2,
          "midi": 42,
          "name": "F#2",
          "ticks": 130522,
          "time": 169.95052083333334,
          "velocity": 0.44881889763779526
        },
        {
          "duration": 0.0052083333333143855,
          "durationTicks": 4,
          "midi": 42,
          "name": "F#2",
          "ticks": 130720,
          "time": 170.20833333333334,
          "velocity": 0.5826771653543307
        },
        {
          "duration": 0.005208333333342807,
          "durationTicks": 4,
          "midi": 38,
          "name": "D2",
          "ticks": 130916,
          "time": 170.46354166666666,
          "velocity": 0.984251968503937
        },
        {
          "duration": 0.0026041666666571928,
          "durationTicks": 2,
          "midi": 42,
          "name": "F#2",
          "ticks": 130918,
          "time": 170.46614583333334,
          "velocity": 0.44881889763779526
        },
        {
          "duration": 0.0026041666666571928,
          "durationTicks": 2,
          "midi": 40,
          "name": "E2",
          "ticks": 130918,
          "time": 170.46614583333334,
          "velocity": 0.6771653543307087
        },
        {
          "duration": 0.0026041666666571928,
          "durationTicks": 2,
          "midi": 42,
          "name": "F#2",
          "ticks": 131116,
          "time": 170.72395833333334,
          "velocity": 0.49606299212598426
        },
        {
          "duration": 0.0026041666666571928,
          "durationTicks": 2,
          "midi": 42,
          "name": "F#2",
          "ticks": 131214,
          "time": 170.8515625,
          "velocity": 0.33858267716535434
        },
        {
          "duration": 0.010416666666657193,
          "durationTicks": 8,
          "midi": 42,
          "name": "F#2",
          "ticks": 131314,
          "time": 170.98177083333334,
          "velocity": 0.5118110236220472
        },
        {
          "duration": 0.0026041666666856145,
          "durationTicks": 2,
          "midi": 35,
          "name": "B1",
          "ticks": 131318,
          "time": 170.98697916666666,
          "velocity": 0.7716535433070866
        },
        {
          "duration": 0.0026041666666856145,
          "durationTicks": 2,
          "midi": 42,
          "name": "F#2",
          "ticks": 131414,
          "time": 171.11197916666666,
          "velocity": 0.30708661417322836
        },
        {
          "duration": 0.0026041666666856145,
          "durationTicks": 2,
          "midi": 35,
          "name": "B1",
          "ticks": 131510,
          "time": 171.23697916666666,
          "velocity": 0.8346456692913385
        },
        {
          "duration": 0.0026041666666571928,
          "durationTicks": 2,
          "midi": 42,
          "name": "F#2",
          "ticks": 131512,
          "time": 171.23958333333334,
          "velocity": 0.5590551181102362
        },
        {
          "duration": 0.0078125,
          "durationTicks": 6,
          "midi": 40,
          "name": "E2",
          "ticks": 131710,
          "time": 171.49739583333334,
          "velocity": 0.6692913385826772
        },
        {
          "duration": 0.0078125,
          "durationTicks": 6,
          "midi": 38,
          "name": "D2",
          "ticks": 131710,
          "time": 171.49739583333334,
          "velocity": 0.9763779527559056
        },
        {
          "duration": 0.0026041666666571928,
          "durationTicks": 2,
          "midi": 42,
          "name": "F#2",
          "ticks": 131712,
          "time": 171.5,
          "velocity": 0.4645669291338583
        },
        {
          "duration": 0.0026041666666856145,
          "durationTicks": 2,
          "midi": 42,
          "name": "F#2",
          "ticks": 131912,
          "time": 171.76041666666666,
          "velocity": 0.5118110236220472
        },
        {
          "duration": 0.005208333333342807,
          "durationTicks": 4,
          "midi": 42,
          "name": "F#2",
          "ticks": 132006,
          "time": 171.8828125,
          "velocity": 0.4015748031496063
        },
        {
          "duration": 0.0026041666666571928,
          "durationTicks": 2,
          "midi": 35,
          "name": "B1",
          "ticks": 132106,
          "time": 172.01302083333334,
          "velocity": 0.8188976377952756
        },
        {
          "duration": 0.0026041666666856145,
          "durationTicks": 2,
          "midi": 42,
          "name": "F#2",
          "ticks": 132110,
          "time": 172.01822916666666,
          "velocity": 0.49606299212598426
        },
        {
          "duration": 0.0026041666666856145,
          "durationTicks": 2,
          "midi": 35,
          "name": "B1",
          "ticks": 132302,
          "time": 172.26822916666666,
          "velocity": 0.8267716535433071
        },
        {
          "duration": 0.0026041666666856145,
          "durationTicks": 2,
          "midi": 42,
          "name": "F#2",
          "ticks": 132308,
          "time": 172.27604166666666,
          "velocity": 0.5669291338582677
        },
        {
          "duration": 0.0078125,
          "durationTicks": 6,
          "midi": 38,
          "name": "D2",
          "ticks": 132498,
          "time": 172.5234375,
          "velocity": 0.9763779527559056
        },
        {
          "duration": 0.0026041666666571928,
          "durationTicks": 2,
          "midi": 40,
          "name": "E2",
          "ticks": 132502,
          "time": 172.52864583333334,
          "velocity": 0.6692913385826772
        },
        {
          "duration": 0.0026041666666571928,
          "durationTicks": 2,
          "midi": 42,
          "name": "F#2",
          "ticks": 132504,
          "time": 172.53125,
          "velocity": 0.48031496062992124
        },
        {
          "duration": 0.0026041666666856145,
          "durationTicks": 2,
          "midi": 42,
          "name": "F#2",
          "ticks": 132698,
          "time": 172.78385416666666,
          "velocity": 0.5748031496062992
        },
        {
          "duration": 0.0052083333333143855,
          "durationTicks": 4,
          "midi": 42,
          "name": "F#2",
          "ticks": 132796,
          "time": 172.91145833333334,
          "velocity": 0.3700787401574803
        },
        {
          "duration": 0.0026041666666856145,
          "durationTicks": 2,
          "midi": 35,
          "name": "B1",
          "ticks": 132896,
          "time": 173.04166666666666,
          "velocity": 0.8188976377952756
        },
        {
          "duration": 0.0052083333333143855,
          "durationTicks": 4,
          "midi": 42,
          "name": "F#2",
          "ticks": 132898,
          "time": 173.04427083333334,
          "velocity": 0.5826771653543307
        },
        {
          "duration": 0.005208333333342807,
          "durationTicks": 4,
          "midi": 42,
          "name": "F#2",
          "ticks": 133092,
          "time": 173.296875,
          "velocity": 0.5826771653543307
        },
        {
          "duration": 0.0026041666666856145,
          "durationTicks": 2,
          "midi": 35,
          "name": "B1",
          "ticks": 133094,
          "time": 173.29947916666666,
          "velocity": 0.8110236220472441
        },
        {
          "duration": 0.005208333333342807,
          "durationTicks": 4,
          "midi": 42,
          "name": "F#2",
          "ticks": 133290,
          "time": 173.5546875,
          "velocity": 0.44881889763779526
        },
        {
          "duration": 0.0078125,
          "durationTicks": 6,
          "midi": 38,
          "name": "D2",
          "ticks": 133294,
          "time": 173.55989583333334,
          "velocity": 0.984251968503937
        },
        {
          "duration": 0.0026041666666571928,
          "durationTicks": 2,
          "midi": 40,
          "name": "E2",
          "ticks": 133296,
          "time": 173.5625,
          "velocity": 0.6771653543307087
        },
        {
          "duration": 0.005208333333342807,
          "durationTicks": 4,
          "midi": 46,
          "name": "A#2",
          "ticks": 133488,
          "time": 173.8125,
          "velocity": 0.5275590551181102
        },
        {
          "duration": 0.0052083333333143855,
          "durationTicks": 4,
          "midi": 35,
          "name": "B1",
          "ticks": 133492,
          "time": 173.81770833333334,
          "velocity": 0.8346456692913385
        },
        {
          "duration": 0.0026041666666856145,
          "durationTicks": 2,
          "midi": 42,
          "name": "F#2",
          "ticks": 133688,
          "time": 174.07291666666666,
          "velocity": 0.5039370078740157
        },
        {
          "duration": 0.0026041666666571928,
          "durationTicks": 2,
          "midi": 42,
          "name": "F#2",
          "ticks": 133884,
          "time": 174.328125,
          "velocity": 0.5669291338582677
        },
        {
          "duration": 0.0026041666666571928,
          "durationTicks": 2,
          "midi": 40,
          "name": "E2",
          "ticks": 134086,
          "time": 174.59114583333334,
          "velocity": 0.6850393700787402
        },
        {
          "duration": 0.0026041666666571928,
          "durationTicks": 2,
          "midi": 38,
          "name": "D2",
          "ticks": 134086,
          "time": 174.59114583333334,
          "velocity": 0.9921259842519685
        },
        {
          "duration": 0.0026041666666571928,
          "durationTicks": 2,
          "midi": 42,
          "name": "F#2",
          "ticks": 134088,
          "time": 174.59375,
          "velocity": 0.5433070866141733
        },
        {
          "duration": 0.0026041666666856145,
          "durationTicks": 2,
          "midi": 42,
          "name": "F#2",
          "ticks": 134282,
          "time": 174.84635416666666,
          "velocity": 0.5118110236220472
        },
        {
          "duration": 0.0026041666666571928,
          "durationTicks": 2,
          "midi": 42,
          "name": "F#2",
          "ticks": 134380,
          "time": 174.97395833333334,
          "velocity": 0.33858267716535434
        },
        {
          "duration": 0.0078125,
          "durationTicks": 6,
          "midi": 42,
          "name": "F#2",
          "ticks": 134482,
          "time": 175.10677083333334,
          "velocity": 0.5826771653543307
        },
        {
          "duration": 0.0026041666666571928,
          "durationTicks": 2,
          "midi": 35,
          "name": "B1",
          "ticks": 134484,
          "time": 175.109375,
          "velocity": 0.8031496062992126
        },
        {
          "duration": 0.0026041666666571928,
          "durationTicks": 2,
          "midi": 42,
          "name": "F#2",
          "ticks": 134580,
          "time": 175.234375,
          "velocity": 0.3700787401574803
        },
        {
          "duration": 0.005208333333342807,
          "durationTicks": 4,
          "midi": 42,
          "name": "F#2",
          "ticks": 134678,
          "time": 175.36197916666666,
          "velocity": 0.5826771653543307
        },
        {
          "duration": 0.0026041666666571928,
          "durationTicks": 2,
          "midi": 35,
          "name": "B1",
          "ticks": 134680,
          "time": 175.36458333333334,
          "velocity": 0.8267716535433071
        },
        {
          "duration": 0.0026041666666571928,
          "durationTicks": 2,
          "midi": 42,
          "name": "F#2",
          "ticks": 134878,
          "time": 175.62239583333334,
          "velocity": 0.48031496062992124
        },
        {
          "duration": 0.0026041666666571928,
          "durationTicks": 2,
          "midi": 40,
          "name": "E2",
          "ticks": 134878,
          "time": 175.62239583333334,
          "velocity": 0.6692913385826772
        },
        {
          "duration": 0.0026041666666571928,
          "durationTicks": 2,
          "midi": 38,
          "name": "D2",
          "ticks": 134878,
          "time": 175.62239583333334,
          "velocity": 0.9763779527559056
        },
        {
          "duration": 0.0026041666666571928,
          "durationTicks": 2,
          "midi": 42,
          "name": "F#2",
          "ticks": 135078,
          "time": 175.8828125,
          "velocity": 0.5433070866141733
        },
        {
          "duration": 0.005208333333342807,
          "durationTicks": 4,
          "midi": 42,
          "name": "F#2",
          "ticks": 135174,
          "time": 176.0078125,
          "velocity": 0.3543307086614173
        },
        {
          "duration": 0.0078125,
          "durationTicks": 6,
          "midi": 35,
          "name": "B1",
          "ticks": 135272,
          "time": 176.13541666666666,
          "velocity": 0.84251968503937
        },
        {
          "duration": 0.0026041666666856145,
          "durationTicks": 2,
          "midi": 42,
          "name": "F#2",
          "ticks": 135278,
          "time": 176.14322916666666,
          "velocity": 0.5669291338582677
        },
        {
          "duration": 0.005208333333342807,
          "durationTicks": 4,
          "midi": 42,
          "name": "F#2",
          "ticks": 135468,
          "time": 176.390625,
          "velocity": 0.5748031496062992
        },
        {
          "duration": 0.0026041666666856145,
          "durationTicks": 2,
          "midi": 35,
          "name": "B1",
          "ticks": 135470,
          "time": 176.39322916666666,
          "velocity": 0.8346456692913385
        },
        {
          "duration": 0.0026041666666571928,
          "durationTicks": 2,
          "midi": 38,
          "name": "D2",
          "ticks": 135666,
          "time": 176.6484375,
          "velocity": 0.9763779527559056
        },
        {
          "duration": 0.0026041666666856145,
          "durationTicks": 2,
          "midi": 42,
          "name": "F#2",
          "ticks": 135668,
          "time": 176.65104166666666,
          "velocity": 0.41732283464566927
        },
        {
          "duration": 0.0026041666666856145,
          "durationTicks": 2,
          "midi": 40,
          "name": "E2",
          "ticks": 135668,
          "time": 176.65104166666666,
          "velocity": 0.6692913385826772
        },
        {
          "duration": 0.0026041666666571928,
          "durationTicks": 2,
          "midi": 42,
          "name": "F#2",
          "ticks": 135862,
          "time": 176.90364583333334,
          "velocity": 0.5826771653543307
        },
        {
          "duration": 0.005208333333342807,
          "durationTicks": 4,
          "midi": 42,
          "name": "F#2",
          "ticks": 135962,
          "time": 177.03385416666666,
          "velocity": 0.3543307086614173
        },
        {
          "duration": 0.0026041666666571928,
          "durationTicks": 2,
          "midi": 35,
          "name": "B1",
          "ticks": 136066,
          "time": 177.16927083333334,
          "velocity": 0.8346456692913385
        },
        {
          "duration": 0.0026041666666856145,
          "durationTicks": 2,
          "midi": 42,
          "name": "F#2",
          "ticks": 136070,
          "time": 177.17447916666666,
          "velocity": 0.5669291338582677
        },
        {
          "duration": 0.0052083333333143855,
          "durationTicks": 4,
          "midi": 42,
          "name": "F#2",
          "ticks": 136162,
          "time": 177.29427083333334,
          "velocity": 0.30708661417322836
        },
        {
          "duration": 0.005208333333342807,
          "durationTicks": 4,
          "midi": 35,
          "name": "B1",
          "ticks": 136260,
          "time": 177.421875,
          "velocity": 0.8188976377952756
        },
        {
          "duration": 0.005208333333342807,
          "durationTicks": 4,
          "midi": 42,
          "name": "F#2",
          "ticks": 136260,
          "time": 177.421875,
          "velocity": 0.5748031496062992
        },
        {
          "duration": 0.005208333333342807,
          "durationTicks": 4,
          "midi": 40,
          "name": "E2",
          "ticks": 136458,
          "time": 177.6796875,
          "velocity": 0.6850393700787402
        },
        {
          "duration": 0.0078125,
          "durationTicks": 6,
          "midi": 38,
          "name": "D2",
          "ticks": 136458,
          "time": 177.6796875,
          "velocity": 0.9921259842519685
        },
        {
          "duration": 0.0026041666666856145,
          "durationTicks": 2,
          "midi": 42,
          "name": "F#2",
          "ticks": 136460,
          "time": 177.68229166666666,
          "velocity": 0.3700787401574803
        },
        {
          "duration": 0.0078125,
          "durationTicks": 6,
          "midi": 46,
          "name": "A#2",
          "ticks": 136654,
          "time": 177.93489583333334,
          "velocity": 0.49606299212598426
        },
        {
          "duration": 0.010416666666657193,
          "durationTicks": 8,
          "midi": 49,
          "name": "C#3",
          "ticks": 136660,
          "time": 177.94270833333334,
          "velocity": 0.6141732283464567
        },
        {
          "duration": 0.0078125,
          "durationTicks": 6,
          "midi": 52,
          "name": "E3",
          "ticks": 136662,
          "time": 177.9453125,
          "velocity": 0.5905511811023622
        },
        {
          "duration": 0.0026041666666856145,
          "durationTicks": 2,
          "midi": 35,
          "name": "B1",
          "ticks": 136670,
          "time": 177.95572916666666,
          "velocity": 0.8503937007874016
        },
        {
          "duration": 0.0026041666666571928,
          "durationTicks": 2,
          "midi": 51,
          "name": "D#3",
          "ticks": 136860,
          "time": 178.203125,
          "velocity": 0.2755905511811024
        },
        {
          "duration": 0.0026041666666856145,
          "durationTicks": 2,
          "midi": 42,
          "name": "F#2",
          "ticks": 136862,
          "time": 178.20572916666666,
          "velocity": 0.4566929133858268
        },
        {
          "duration": 0.005208333333342807,
          "durationTicks": 4,
          "midi": 42,
          "name": "F#2",
          "ticks": 137058,
          "time": 178.4609375,
          "velocity": 0.5275590551181102
        },
        {
          "duration": 0.005208333333342807,
          "durationTicks": 4,
          "midi": 51,
          "name": "D#3",
          "ticks": 137058,
          "time": 178.4609375,
          "velocity": 0.3858267716535433
        },
        {
          "duration": 0.0026041666666856145,
          "durationTicks": 2,
          "midi": 40,
          "name": "E2",
          "ticks": 137258,
          "time": 178.72135416666666,
          "velocity": 0.8976377952755905
        },
        {
          "duration": 0.0026041666666856145,
          "durationTicks": 2,
          "midi": 38,
          "name": "D2",
          "ticks": 137258,
          "time": 178.72135416666666,
          "velocity": 0.9763779527559056
        },
        {
          "duration": 0.0052083333333143855,
          "durationTicks": 4,
          "midi": 51,
          "name": "D#3",
          "ticks": 137260,
          "time": 178.72395833333334,
          "velocity": 0.3700787401574803
        },
        {
          "duration": 0.0026041666666856145,
          "durationTicks": 2,
          "midi": 42,
          "name": "F#2",
          "ticks": 137264,
          "time": 178.72916666666666,
          "velocity": 0.49606299212598426
        },
        {
          "duration": 0.0078125,
          "durationTicks": 6,
          "midi": 51,
          "name": "D#3",
          "ticks": 137456,
          "time": 178.97916666666666,
          "velocity": 0.3937007874015748
        },
        {
          "duration": 0.0052083333333143855,
          "durationTicks": 4,
          "midi": 42,
          "name": "F#2",
          "ticks": 137458,
          "time": 178.98177083333334,
          "velocity": 0.5669291338582677
        },
        {
          "duration": 0.0078125,
          "durationTicks": 6,
          "midi": 51,
          "name": "D#3",
          "ticks": 137550,
          "time": 179.1015625,
          "velocity": 0.33858267716535434
        },
        {
          "duration": 0.0026041666666571928,
          "durationTicks": 2,
          "midi": 42,
          "name": "F#2",
          "ticks": 137554,
          "time": 179.10677083333334,
          "velocity": 0.3543307086614173
        },
        {
          "duration": 0.0078125,
          "durationTicks": 6,
          "midi": 51,
          "name": "D#3",
          "ticks": 137658,
          "time": 179.2421875,
          "velocity": 0.4015748031496063
        },
        {
          "duration": 0.005208333333342807,
          "durationTicks": 4,
          "midi": 42,
          "name": "F#2",
          "ticks": 137658,
          "time": 179.2421875,
          "velocity": 0.5826771653543307
        },
        {
          "duration": 0.005208333333342807,
          "durationTicks": 4,
          "midi": 35,
          "name": "B1",
          "ticks": 137664,
          "time": 179.25,
          "velocity": 0.84251968503937
        },
        {
          "duration": 0.005208333333342807,
          "durationTicks": 4,
          "midi": 35,
          "name": "B1",
          "ticks": 137852,
          "time": 179.49479166666666,
          "velocity": 0.8267716535433071
        },
        {
          "duration": 0.0078125,
          "durationTicks": 6,
          "midi": 42,
          "name": "F#2",
          "ticks": 137852,
          "time": 179.49479166666666,
          "velocity": 0.48031496062992124
        },
        {
          "duration": 0.010416666666685614,
          "durationTicks": 8,
          "midi": 51,
          "name": "D#3",
          "ticks": 137852,
          "time": 179.49479166666666,
          "velocity": 0.3700787401574803
        },
        {
          "duration": 0.0078125,
          "durationTicks": 6,
          "midi": 51,
          "name": "D#3",
          "ticks": 138044,
          "time": 179.74479166666666,
          "velocity": 0.3700787401574803
        },
        {
          "duration": 0.0026041666666571928,
          "durationTicks": 2,
          "midi": 42,
          "name": "F#2",
          "ticks": 138046,
          "time": 179.74739583333334,
          "velocity": 0.48031496062992124
        },
        {
          "duration": 0.0026041666666571928,
          "durationTicks": 2,
          "midi": 38,
          "name": "D2",
          "ticks": 138052,
          "time": 179.75520833333334,
          "velocity": 0.9763779527559056
        },
        {
          "duration": 0.0026041666666571928,
          "durationTicks": 2,
          "midi": 40,
          "name": "E2",
          "ticks": 138052,
          "time": 179.75520833333334,
          "velocity": 0.8976377952755905
        },
        {
          "duration": 0.010416666666685614,
          "durationTicks": 8,
          "midi": 51,
          "name": "D#3",
          "ticks": 138242,
          "time": 180.00260416666666,
          "velocity": 0.3937007874015748
        },
        {
          "duration": 0.005208333333342807,
          "durationTicks": 4,
          "midi": 42,
          "name": "F#2",
          "ticks": 138246,
          "time": 180.0078125,
          "velocity": 0.5669291338582677
        },
        {
          "duration": 0.0078125,
          "durationTicks": 6,
          "midi": 51,
          "name": "D#3",
          "ticks": 138344,
          "time": 180.13541666666666,
          "velocity": 0.33858267716535434
        },
        {
          "duration": 0.0052083333333143855,
          "durationTicks": 4,
          "midi": 42,
          "name": "F#2",
          "ticks": 138346,
          "time": 180.13802083333334,
          "velocity": 0.3700787401574803
        },
        {
          "duration": 0.013020833333314386,
          "durationTicks": 10,
          "midi": 42,
          "name": "F#2",
          "ticks": 138448,
          "time": 180.27083333333334,
          "velocity": 0.5826771653543307
        },
        {
          "duration": 0.013020833333314386,
          "durationTicks": 10,
          "midi": 51,
          "name": "D#3",
          "ticks": 138448,
          "time": 180.27083333333334,
          "velocity": 0.4015748031496063
        },
        {
          "duration": 0.010416666666657193,
          "durationTicks": 8,
          "midi": 35,
          "name": "B1",
          "ticks": 138450,
          "time": 180.2734375,
          "velocity": 0.84251968503937
        },
        {
          "duration": 0.010416666666685614,
          "durationTicks": 8,
          "midi": 51,
          "name": "D#3",
          "ticks": 138644,
          "time": 180.52604166666666,
          "velocity": 0.3858267716535433
        },
        {
          "duration": 0.0052083333333143855,
          "durationTicks": 4,
          "midi": 42,
          "name": "F#2",
          "ticks": 138646,
          "time": 180.52864583333334,
          "velocity": 0.5433070866141733
        },
        {
          "duration": 0.0026041666666571928,
          "durationTicks": 2,
          "midi": 35,
          "name": "B1",
          "ticks": 138652,
          "time": 180.53645833333334,
          "velocity": 0.8188976377952756
        },
        {
          "duration": 0.0078125,
          "durationTicks": 6,
          "midi": 38,
          "name": "D2",
          "ticks": 138840,
          "time": 180.78125,
          "velocity": 0.9763779527559056
        },
        {
          "duration": 0.0078125,
          "durationTicks": 6,
          "midi": 51,
          "name": "D#3",
          "ticks": 138842,
          "time": 180.78385416666666,
          "velocity": 0.36220472440944884
        },
        {
          "duration": 0.005208333333342807,
          "durationTicks": 4,
          "midi": 40,
          "name": "E2",
          "ticks": 138842,
          "time": 180.78385416666666,
          "velocity": 0.8976377952755905
        },
        {
          "duration": 0.0026041666666571928,
          "durationTicks": 2,
          "midi": 42,
          "name": "F#2",
          "ticks": 138844,
          "time": 180.78645833333334,
          "velocity": 0.4330708661417323
        },
        {
          "duration": 0.010416666666657193,
          "durationTicks": 8,
          "midi": 51,
          "name": "D#3",
          "ticks": 139036,
          "time": 181.03645833333334,
          "velocity": 0.3858267716535433
        },
        {
          "duration": 0.005208333333342807,
          "durationTicks": 4,
          "midi": 42,
          "name": "F#2",
          "ticks": 139038,
          "time": 181.0390625,
          "velocity": 0.5433070866141733
        },
        {
          "duration": 0.0078125,
          "durationTicks": 6,
          "midi": 51,
          "name": "D#3",
          "ticks": 139138,
          "time": 181.16927083333334,
          "velocity": 0.33858267716535434
        },
        {
          "duration": 0.005208333333342807,
          "durationTicks": 4,
          "midi": 42,
          "name": "F#2",
          "ticks": 139140,
          "time": 181.171875,
          "velocity": 0.3700787401574803
        },
        {
          "duration": 0.0026041666666856145,
          "durationTicks": 2,
          "midi": 35,
          "name": "B1",
          "ticks": 139244,
          "time": 181.30729166666666,
          "velocity": 0.8582677165354331
        },
        {
          "duration": 0.0052083333333143855,
          "durationTicks": 4,
          "midi": 51,
          "name": "D#3",
          "ticks": 139246,
          "time": 181.30989583333334,
          "velocity": 0.3858267716535433
        },
        {
          "duration": 0.0052083333333143855,
          "durationTicks": 4,
          "midi": 42,
          "name": "F#2",
          "ticks": 139246,
          "time": 181.30989583333334,
          "velocity": 0.5275590551181102
        },
        {
          "duration": 0.0078125,
          "durationTicks": 6,
          "midi": 35,
          "name": "B1",
          "ticks": 139434,
          "time": 181.5546875,
          "velocity": 0.8267716535433071
        },
        {
          "duration": 0.0026041666666856145,
          "durationTicks": 2,
          "midi": 51,
          "name": "D#3",
          "ticks": 139442,
          "time": 181.56510416666666,
          "velocity": 0.4015748031496063
        },
        {
          "duration": 0.0026041666666856145,
          "durationTicks": 2,
          "midi": 42,
          "name": "F#2",
          "ticks": 139442,
          "time": 181.56510416666666,
          "velocity": 0.5826771653543307
        },
        {
          "duration": 0.0026041666666571928,
          "durationTicks": 2,
          "midi": 51,
          "name": "D#3",
          "ticks": 139534,
          "time": 181.68489583333334,
          "velocity": 0.3543307086614173
        },
        {
          "duration": 0.0026041666666571928,
          "durationTicks": 2,
          "midi": 42,
          "name": "F#2",
          "ticks": 139536,
          "time": 181.6875,
          "velocity": 0.4015748031496063
        },
        {
          "duration": 0.0052083333333143855,
          "durationTicks": 4,
          "midi": 40,
          "name": "E2",
          "ticks": 139630,
          "time": 181.80989583333334,
          "velocity": 0.905511811023622
        },
        {
          "duration": 0.0078125,
          "durationTicks": 6,
          "midi": 38,
          "name": "D2",
          "ticks": 139630,
          "time": 181.80989583333334,
          "velocity": 0.984251968503937
        },
        {
          "duration": 0.0052083333333143855,
          "durationTicks": 4,
          "midi": 51,
          "name": "D#3",
          "ticks": 139636,
          "time": 181.81770833333334,
          "velocity": 0.4015748031496063
        },
        {
          "duration": 0.0026041666666571928,
          "durationTicks": 2,
          "midi": 42,
          "name": "F#2",
          "ticks": 139638,
          "time": 181.8203125,
          "velocity": 0.5826771653543307
        },
        {
          "duration": 0.0052083333333143855,
          "durationTicks": 4,
          "midi": 51,
          "name": "D#3",
          "ticks": 139732,
          "time": 181.94270833333334,
          "velocity": 0.33858267716535434
        },
        {
          "duration": 0.0026041666666571928,
          "durationTicks": 2,
          "midi": 42,
          "name": "F#2",
          "ticks": 139734,
          "time": 181.9453125,
          "velocity": 0.3700787401574803
        },
        {
          "duration": 0.013020833333342807,
          "durationTicks": 10,
          "midi": 49,
          "name": "C#3",
          "ticks": 139826,
          "time": 182.06510416666666,
          "velocity": 0.5669291338582677
        },
        {
          "duration": 0.0026041666666571928,
          "durationTicks": 2,
          "midi": 52,
          "name": "E3",
          "ticks": 139834,
          "time": 182.07552083333334,
          "velocity": 0.5433070866141733
        },
        {
          "duration": 0.013020833333342807,
          "durationTicks": 10,
          "midi": 51,
          "name": "D#3",
          "ticks": 139842,
          "time": 182.0859375,
          "velocity": 0.3464566929133858
        },
        {
          "duration": 0.010416666666657193,
          "durationTicks": 8,
          "midi": 46,
          "name": "A#2",
          "ticks": 139842,
          "time": 182.0859375,
          "velocity": 0.5748031496062992
        },
        {
          "duration": 0.0078125,
          "durationTicks": 6,
          "midi": 35,
          "name": "B1",
          "ticks": 139842,
          "time": 182.0859375,
          "velocity": 0.84251968503937
        },
        {
          "duration": 0.0026041666666571928,
          "durationTicks": 2,
          "midi": 51,
          "name": "D#3",
          "ticks": 140028,
          "time": 182.328125,
          "velocity": 0.2992125984251969
        },
        {
          "duration": 0.0026041666666856145,
          "durationTicks": 2,
          "midi": 42,
          "name": "F#2",
          "ticks": 140030,
          "time": 182.33072916666666,
          "velocity": 0.4566929133858268
        },
        {
          "duration": 0.005208333333342807,
          "durationTicks": 4,
          "midi": 51,
          "name": "D#3",
          "ticks": 140228,
          "time": 182.58854166666666,
          "velocity": 0.3937007874015748
        },
        {
          "duration": 0.0026041666666571928,
          "durationTicks": 2,
          "midi": 42,
          "name": "F#2",
          "ticks": 140230,
          "time": 182.59114583333334,
          "velocity": 0.5748031496062992
        },
        {
          "duration": 0.0052083333333143855,
          "durationTicks": 4,
          "midi": 42,
          "name": "F#2",
          "ticks": 140326,
          "time": 182.71614583333334,
          "velocity": 0.4015748031496063
        },
        {
          "duration": 0.0078125,
          "durationTicks": 6,
          "midi": 51,
          "name": "D#3",
          "ticks": 140326,
          "time": 182.71614583333334,
          "velocity": 0.3543307086614173
        },
        {
          "duration": 0.010416666666685614,
          "durationTicks": 8,
          "midi": 40,
          "name": "E2",
          "ticks": 140426,
          "time": 182.84635416666666,
          "velocity": 0.9133858267716536
        },
        {
          "duration": 0.010416666666685614,
          "durationTicks": 8,
          "midi": 38,
          "name": "D2",
          "ticks": 140426,
          "time": 182.84635416666666,
          "velocity": 0.9921259842519685
        },
        {
          "duration": 0.0078125,
          "durationTicks": 6,
          "midi": 42,
          "name": "F#2",
          "ticks": 140428,
          "time": 182.84895833333334,
          "velocity": 0.5590551181102362
        },
        {
          "duration": 0.010416666666657193,
          "durationTicks": 8,
          "midi": 51,
          "name": "D#3",
          "ticks": 140428,
          "time": 182.84895833333334,
          "velocity": 0.3937007874015748
        },
        {
          "duration": 0.010416666666657193,
          "durationTicks": 8,
          "midi": 51,
          "name": "D#3",
          "ticks": 140622,
          "time": 183.1015625,
          "velocity": 0.3937007874015748
        },
        {
          "duration": 0.005208333333342807,
          "durationTicks": 4,
          "midi": 42,
          "name": "F#2",
          "ticks": 140624,
          "time": 183.10416666666666,
          "velocity": 0.5590551181102362
        },
        {
          "duration": 0.0078125,
          "durationTicks": 6,
          "midi": 51,
          "name": "D#3",
          "ticks": 140724,
          "time": 183.234375,
          "velocity": 0.3543307086614173
        },
        {
          "duration": 0.0026041666666856145,
          "durationTicks": 2,
          "midi": 42,
          "name": "F#2",
          "ticks": 140726,
          "time": 183.23697916666666,
          "velocity": 0.4015748031496063
        },
        {
          "duration": 0.013020833333314386,
          "durationTicks": 10,
          "midi": 51,
          "name": "D#3",
          "ticks": 140824,
          "time": 183.36458333333334,
          "velocity": 0.3858267716535433
        },
        {
          "duration": 0.0078125,
          "durationTicks": 6,
          "midi": 35,
          "name": "B1",
          "ticks": 140826,
          "time": 183.3671875,
          "velocity": 0.8346456692913385
        },
        {
          "duration": 0.0078125,
          "durationTicks": 6,
          "midi": 42,
          "name": "F#2",
          "ticks": 140826,
          "time": 183.3671875,
          "velocity": 0.5433070866141733
        },
        {
          "duration": 0.010416666666657193,
          "durationTicks": 8,
          "midi": 51,
          "name": "D#3",
          "ticks": 141022,
          "time": 183.62239583333334,
          "velocity": 0.3937007874015748
        },
        {
          "duration": 0.005208333333342807,
          "durationTicks": 4,
          "midi": 42,
          "name": "F#2",
          "ticks": 141024,
          "time": 183.625,
          "velocity": 0.5590551181102362
        },
        {
          "duration": 0.005208333333342807,
          "durationTicks": 4,
          "midi": 35,
          "name": "B1",
          "ticks": 141024,
          "time": 183.625,
          "velocity": 0.8346456692913385
        },
        {
          "duration": 0.005208333333342807,
          "durationTicks": 4,
          "midi": 51,
          "name": "D#3",
          "ticks": 141216,
          "time": 183.875,
          "velocity": 0.36220472440944884
        },
        {
          "duration": 0.0026041666666856145,
          "durationTicks": 2,
          "midi": 42,
          "name": "F#2",
          "ticks": 141218,
          "time": 183.87760416666666,
          "velocity": 0.44881889763779526
        },
        {
          "duration": 0.005208333333342807,
          "durationTicks": 4,
          "midi": 38,
          "name": "D2",
          "ticks": 141222,
          "time": 183.8828125,
          "velocity": 0.984251968503937
        },
        {
          "duration": 0.0026041666666856145,
          "durationTicks": 2,
          "midi": 40,
          "name": "E2",
          "ticks": 141224,
          "time": 183.88541666666666,
          "velocity": 0.905511811023622
        },
        {
          "duration": 0.0052083333333143855,
          "durationTicks": 4,
          "midi": 42,
          "name": "F#2",
          "ticks": 141418,
          "time": 184.13802083333334,
          "velocity": 0.44881889763779526
        },
        {
          "duration": 0.0052083333333143855,
          "durationTicks": 4,
          "midi": 51,
          "name": "D#3",
          "ticks": 141418,
          "time": 184.13802083333334,
          "velocity": 0.36220472440944884
        },
        {
          "duration": 0.0026041666666571928,
          "durationTicks": 2,
          "midi": 42,
          "name": "F#2",
          "ticks": 141516,
          "time": 184.265625,
          "velocity": 0.3700787401574803
        },
        {
          "duration": 0.0026041666666571928,
          "durationTicks": 2,
          "midi": 51,
          "name": "D#3",
          "ticks": 141516,
          "time": 184.265625,
          "velocity": 0.33858267716535434
        },
        {
          "duration": 0.0078125,
          "durationTicks": 6,
          "midi": 51,
          "name": "D#3",
          "ticks": 141618,
          "time": 184.3984375,
          "velocity": 0.3779527559055118
        },
        {
          "duration": 0.005208333333342807,
          "durationTicks": 4,
          "midi": 42,
          "name": "F#2",
          "ticks": 141620,
          "time": 184.40104166666666,
          "velocity": 0.5118110236220472
        },
        {
          "duration": 0.0078125,
          "durationTicks": 6,
          "midi": 35,
          "name": "B1",
          "ticks": 141626,
          "time": 184.40885416666666,
          "velocity": 0.8110236220472441
        },
        {
          "duration": 0.005208333333342807,
          "durationTicks": 4,
          "midi": 51,
          "name": "D#3",
          "ticks": 141708,
          "time": 184.515625,
          "velocity": 0.33070866141732286
        },
        {
          "duration": 0.0026041666666856145,
          "durationTicks": 2,
          "midi": 42,
          "name": "F#2",
          "ticks": 141710,
          "time": 184.51822916666666,
          "velocity": 0.33858267716535434
        },
        {
          "duration": 0.010416666666657193,
          "durationTicks": 8,
          "midi": 42,
          "name": "F#2",
          "ticks": 141814,
          "time": 184.65364583333334,
          "velocity": 0.5669291338582677
        },
        {
          "duration": 0.010416666666657193,
          "durationTicks": 8,
          "midi": 51,
          "name": "D#3",
          "ticks": 141814,
          "time": 184.65364583333334,
          "velocity": 0.3937007874015748
        },
        {
          "duration": 0.0026041666666571928,
          "durationTicks": 2,
          "midi": 35,
          "name": "B1",
          "ticks": 141822,
          "time": 184.6640625,
          "velocity": 0.8267716535433071
        },
        {
          "duration": 0.005208333333342807,
          "durationTicks": 4,
          "midi": 38,
          "name": "D2",
          "ticks": 142008,
          "time": 184.90625,
          "velocity": 0.9763779527559056
        },
        {
          "duration": 0.0026041666666856145,
          "durationTicks": 2,
          "midi": 40,
          "name": "E2",
          "ticks": 142010,
          "time": 184.90885416666666,
          "velocity": 0.8976377952755905
        },
        {
          "duration": 0.0026041666666571928,
          "durationTicks": 2,
          "midi": 42,
          "name": "F#2",
          "ticks": 142014,
          "time": 184.9140625,
          "velocity": 0.48031496062992124
        },
        {
          "duration": 0.005208333333342807,
          "durationTicks": 4,
          "midi": 51,
          "name": "D#3",
          "ticks": 142014,
          "time": 184.9140625,
          "velocity": 0.3700787401574803
        },
        {
          "duration": 0.0026041666666571928,
          "durationTicks": 2,
          "midi": 51,
          "name": "D#3",
          "ticks": 142212,
          "time": 185.171875,
          "velocity": 0.3858267716535433
        },
        {
          "duration": 0.0026041666666571928,
          "durationTicks": 2,
          "midi": 42,
          "name": "F#2",
          "ticks": 142212,
          "time": 185.171875,
          "velocity": 0.5433070866141733
        },
        {
          "duration": 0.010416666666657193,
          "durationTicks": 8,
          "midi": 51,
          "name": "D#3",
          "ticks": 142308,
          "time": 185.296875,
          "velocity": 0.33858267716535434
        },
        {
          "duration": 0.005208333333342807,
          "durationTicks": 4,
          "midi": 42,
          "name": "F#2",
          "ticks": 142310,
          "time": 185.29947916666666,
          "velocity": 0.3543307086614173
        },
        {
          "duration": 0.010416666666657193,
          "durationTicks": 8,
          "midi": 35,
          "name": "B1",
          "ticks": 142408,
          "time": 185.42708333333334,
          "velocity": 0.84251968503937
        },
        {
          "duration": 0.0026041666666856145,
          "durationTicks": 2,
          "midi": 51,
          "name": "D#3",
          "ticks": 142418,
          "time": 185.44010416666666,
          "velocity": 0.3858267716535433
        },
        {
          "duration": 0.0026041666666856145,
          "durationTicks": 2,
          "midi": 42,
          "name": "F#2",
          "ticks": 142418,
          "time": 185.44010416666666,
          "velocity": 0.5275590551181102
        },
        {
          "duration": 0.0026041666666856145,
          "durationTicks": 2,
          "midi": 51,
          "name": "D#3",
          "ticks": 142610,
          "time": 185.69010416666666,
          "velocity": 0.3779527559055118
        },
        {
          "duration": 0.0026041666666856145,
          "durationTicks": 2,
          "midi": 42,
          "name": "F#2",
          "ticks": 142610,
          "time": 185.69010416666666,
          "velocity": 0.5118110236220472
        },
        {
          "duration": 0.0026041666666856145,
          "durationTicks": 2,
          "midi": 35,
          "name": "B1",
          "ticks": 142610,
          "time": 185.69010416666666,
          "velocity": 0.8188976377952756
        },
        {
          "duration": 0.0078125,
          "durationTicks": 6,
          "midi": 38,
          "name": "D2",
          "ticks": 142806,
          "time": 185.9453125,
          "velocity": 0.984251968503937
        },
        {
          "duration": 0.0078125,
          "durationTicks": 6,
          "midi": 51,
          "name": "D#3",
          "ticks": 142808,
          "time": 185.94791666666666,
          "velocity": 0.3937007874015748
        },
        {
          "duration": 0.0078125,
          "durationTicks": 6,
          "midi": 40,
          "name": "E2",
          "ticks": 142808,
          "time": 185.94791666666666,
          "velocity": 0.905511811023622
        },
        {
          "duration": 0.0026041666666571928,
          "durationTicks": 2,
          "midi": 42,
          "name": "F#2",
          "ticks": 142810,
          "time": 185.95052083333334,
          "velocity": 0.5669291338582677
        },
        {
          "duration": 0.018229166666685614,
          "durationTicks": 14,
          "midi": 52,
          "name": "E3",
          "ticks": 143006,
          "time": 186.20572916666666,
          "velocity": 0.4015748031496063
        },
        {
          "duration": 0.018229166666685614,
          "durationTicks": 14,
          "midi": 49,
          "name": "C#3",
          "ticks": 143006,
          "time": 186.20572916666666,
          "velocity": 0.4251968503937008
        },
        {
          "duration": 0.015625,
          "durationTicks": 12,
          "midi": 51,
          "name": "D#3",
          "ticks": 143008,
          "time": 186.20833333333334,
          "velocity": 0.31496062992125984
        },
        {
          "duration": 0.010416666666657193,
          "durationTicks": 8,
          "midi": 46,
          "name": "A#2",
          "ticks": 143010,
          "time": 186.2109375,
          "velocity": 0.4645669291338583
        },
        {
          "duration": 0.005208333333342807,
          "durationTicks": 4,
          "midi": 35,
          "name": "B1",
          "ticks": 143022,
          "time": 186.2265625,
          "velocity": 0.8661417322834646
        },
        {
          "duration": 0.0026041666666571928,
          "durationTicks": 2,
          "midi": 51,
          "name": "D#3",
          "ticks": 143200,
          "time": 186.45833333333334,
          "velocity": 0.31496062992125984
        },
        {
          "duration": 0.0026041666666571928,
          "durationTicks": 2,
          "midi": 42,
          "name": "F#2",
          "ticks": 143202,
          "time": 186.4609375,
          "velocity": 0.4330708661417323
        },
        {
          "duration": 0.0052083333333143855,
          "durationTicks": 4,
          "midi": 42,
          "name": "F#2",
          "ticks": 143398,
          "time": 186.71614583333334,
          "velocity": 0.5669291338582677
        },
        {
          "duration": 0.0052083333333143855,
          "durationTicks": 4,
          "midi": 51,
          "name": "D#3",
          "ticks": 143398,
          "time": 186.71614583333334,
          "velocity": 0.3937007874015748
        },
        {
          "duration": 0.0078125,
          "durationTicks": 6,
          "midi": 38,
          "name": "D2",
          "ticks": 143594,
          "time": 186.97135416666666,
          "velocity": 0.984251968503937
        },
        {
          "duration": 0.0078125,
          "durationTicks": 6,
          "midi": 40,
          "name": "E2",
          "ticks": 143596,
          "time": 186.97395833333334,
          "velocity": 0.905511811023622
        },
        {
          "duration": 0.0078125,
          "durationTicks": 6,
          "midi": 51,
          "name": "D#3",
          "ticks": 143596,
          "time": 186.97395833333334,
          "velocity": 0.4015748031496063
        },
        {
          "duration": 0.0026041666666571928,
          "durationTicks": 2,
          "midi": 42,
          "name": "F#2",
          "ticks": 143598,
          "time": 186.9765625,
          "velocity": 0.5905511811023622
        },
        {
          "duration": 0.010416666666657193,
          "durationTicks": 8,
          "midi": 51,
          "name": "D#3",
          "ticks": 143688,
          "time": 187.09375,
          "velocity": 0.33070866141732286
        },
        {
          "duration": 0.005208333333342807,
          "durationTicks": 4,
          "midi": 42,
          "name": "F#2",
          "ticks": 143690,
          "time": 187.09635416666666,
          "velocity": 0.33858267716535434
        },
        {
          "duration": 0.0078125,
          "durationTicks": 6,
          "midi": 51,
          "name": "D#3",
          "ticks": 143788,
          "time": 187.22395833333334,
          "velocity": 0.3700787401574803
        },
        {
          "duration": 0.0026041666666856145,
          "durationTicks": 2,
          "midi": 42,
          "name": "F#2",
          "ticks": 143792,
          "time": 187.22916666666666,
          "velocity": 0.48031496062992124
        },
        {
          "duration": 0.0078125,
          "durationTicks": 6,
          "midi": 51,
          "name": "D#3",
          "ticks": 143888,
          "time": 187.35416666666666,
          "velocity": 0.33070866141732286
        },
        {
          "duration": 0.0052083333333143855,
          "durationTicks": 4,
          "midi": 42,
          "name": "F#2",
          "ticks": 143890,
          "time": 187.35677083333334,
          "velocity": 0.33858267716535434
        },
        {
          "duration": 0.010416666666657193,
          "durationTicks": 8,
          "midi": 51,
          "name": "D#3",
          "ticks": 143994,
          "time": 187.4921875,
          "velocity": 0.4015748031496063
        },
        {
          "duration": 0.005208333333342807,
          "durationTicks": 4,
          "midi": 42,
          "name": "F#2",
          "ticks": 143996,
          "time": 187.49479166666666,
          "velocity": 0.5905511811023622
        },
        {
          "duration": 0.005208333333342807,
          "durationTicks": 4,
          "midi": 35,
          "name": "B1",
          "ticks": 143996,
          "time": 187.49479166666666,
          "velocity": 0.8188976377952756
        },
        {
          "duration": 0.010416666666657193,
          "durationTicks": 8,
          "midi": 51,
          "name": "D#3",
          "ticks": 144190,
          "time": 187.74739583333334,
          "velocity": 0.4015748031496063
        },
        {
          "duration": 0.005208333333342807,
          "durationTicks": 4,
          "midi": 35,
          "name": "B1",
          "ticks": 144192,
          "time": 187.75,
          "velocity": 0.8267716535433071
        },
        {
          "duration": 0.0078125,
          "durationTicks": 6,
          "midi": 42,
          "name": "F#2",
          "ticks": 144192,
          "time": 187.75,
          "velocity": 0.5826771653543307
        },
        {
          "duration": 0.0078125,
          "durationTicks": 6,
          "midi": 38,
          "name": "D2",
          "ticks": 144388,
          "time": 188.00520833333334,
          "velocity": 0.952755905511811
        },
        {
          "duration": 0.0026041666666571928,
          "durationTicks": 2,
          "midi": 42,
          "name": "F#2",
          "ticks": 144390,
          "time": 188.0078125,
          "velocity": 0.4645669291338583
        },
        {
          "duration": 0.0078125,
          "durationTicks": 6,
          "midi": 51,
          "name": "D#3",
          "ticks": 144390,
          "time": 188.0078125,
          "velocity": 0.36220472440944884
        },
        {
          "duration": 0.005208333333342807,
          "durationTicks": 4,
          "midi": 40,
          "name": "E2",
          "ticks": 144390,
          "time": 188.0078125,
          "velocity": 0.8740157480314961
        },
        {
          "duration": 0.0078125,
          "durationTicks": 6,
          "midi": 42,
          "name": "F#2",
          "ticks": 144586,
          "time": 188.26302083333334,
          "velocity": 0.5433070866141733
        },
        {
          "duration": 0.0078125,
          "durationTicks": 6,
          "midi": 51,
          "name": "D#3",
          "ticks": 144586,
          "time": 188.26302083333334,
          "velocity": 0.3858267716535433
        },
        {
          "duration": 0.0078125,
          "durationTicks": 6,
          "midi": 51,
          "name": "D#3",
          "ticks": 144686,
          "time": 188.39322916666666,
          "velocity": 0.33858267716535434
        },
        {
          "duration": 0.0052083333333143855,
          "durationTicks": 4,
          "midi": 42,
          "name": "F#2",
          "ticks": 144688,
          "time": 188.39583333333334,
          "velocity": 0.3543307086614173
        },
        {
          "duration": 0.018229166666685614,
          "durationTicks": 14,
          "midi": 51,
          "name": "D#3",
          "ticks": 144788,
          "time": 188.52604166666666,
          "velocity": 0.3858267716535433
        },
        {
          "duration": 0.015625,
          "durationTicks": 12,
          "midi": 42,
          "name": "F#2",
          "ticks": 144790,
          "time": 188.52864583333334,
          "velocity": 0.5433070866141733
        },
        {
          "duration": 0.010416666666657193,
          "durationTicks": 8,
          "midi": 35,
          "name": "B1",
          "ticks": 144792,
          "time": 188.53125,
          "velocity": 0.8503937007874016
        },
        {
          "duration": 0.0026041666666571928,
          "durationTicks": 2,
          "midi": 51,
          "name": "D#3",
          "ticks": 144882,
          "time": 188.6484375,
          "velocity": 0.33070866141732286
        },
        {
          "duration": 0.0026041666666856145,
          "durationTicks": 2,
          "midi": 42,
          "name": "F#2",
          "ticks": 144884,
          "time": 188.65104166666666,
          "velocity": 0.3228346456692913
        },
        {
          "duration": 0.0078125,
          "durationTicks": 6,
          "midi": 42,
          "name": "F#2",
          "ticks": 144986,
          "time": 188.78385416666666,
          "velocity": 0.5669291338582677
        },
        {
          "duration": 0.0078125,
          "durationTicks": 6,
          "midi": 51,
          "name": "D#3",
          "ticks": 144986,
          "time": 188.78385416666666,
          "velocity": 0.3937007874015748
        },
        {
          "duration": 0.0026041666666571928,
          "durationTicks": 2,
          "midi": 35,
          "name": "B1",
          "ticks": 144994,
          "time": 188.79427083333334,
          "velocity": 0.84251968503937
        },
        {
          "duration": 0.005208333333342807,
          "durationTicks": 4,
          "midi": 38,
          "name": "D2",
          "ticks": 145184,
          "time": 189.04166666666666,
          "velocity": 0.9763779527559056
        },
        {
          "duration": 0.0052083333333143855,
          "durationTicks": 4,
          "midi": 40,
          "name": "E2",
          "ticks": 145186,
          "time": 189.04427083333334,
          "velocity": 0.8976377952755905
        },
        {
          "duration": 0.0078125,
          "durationTicks": 6,
          "midi": 51,
          "name": "D#3",
          "ticks": 145186,
          "time": 189.04427083333334,
          "velocity": 0.3700787401574803
        },
        {
          "duration": 0.0026041666666571928,
          "durationTicks": 2,
          "midi": 42,
          "name": "F#2",
          "ticks": 145188,
          "time": 189.046875,
          "velocity": 0.48031496062992124
        },
        {
          "duration": 0.005208333333342807,
          "durationTicks": 4,
          "midi": 51,
          "name": "D#3",
          "ticks": 145380,
          "time": 189.296875,
          "velocity": 0.3779527559055118
        },
        {
          "duration": 0.0026041666666856145,
          "durationTicks": 2,
          "midi": 42,
          "name": "F#2",
          "ticks": 145382,
          "time": 189.29947916666666,
          "velocity": 0.5118110236220472
        },
        {
          "duration": 0.0026041666666571928,
          "durationTicks": 2,
          "midi": 42,
          "name": "F#2",
          "ticks": 145482,
          "time": 189.4296875,
          "velocity": 0.3543307086614173
        },
        {
          "duration": 0.0026041666666571928,
          "durationTicks": 2,
          "midi": 51,
          "name": "D#3",
          "ticks": 145482,
          "time": 189.4296875,
          "velocity": 0.33858267716535434
        },
        {
          "duration": 0.0078125,
          "durationTicks": 6,
          "midi": 51,
          "name": "D#3",
          "ticks": 145588,
          "time": 189.56770833333334,
          "velocity": 0.3937007874015748
        },
        {
          "duration": 0.0052083333333143855,
          "durationTicks": 4,
          "midi": 42,
          "name": "F#2",
          "ticks": 145588,
          "time": 189.56770833333334,
          "velocity": 0.5669291338582677
        },
        {
          "duration": 0.0026041666666571928,
          "durationTicks": 2,
          "midi": 35,
          "name": "B1",
          "ticks": 145590,
          "time": 189.5703125,
          "velocity": 0.8503937007874016
        },
        {
          "duration": 0.0078125,
          "durationTicks": 6,
          "midi": 51,
          "name": "D#3",
          "ticks": 145780,
          "time": 189.81770833333334,
          "velocity": 0.36220472440944884
        },
        {
          "duration": 0.005208333333342807,
          "durationTicks": 4,
          "midi": 42,
          "name": "F#2",
          "ticks": 145782,
          "time": 189.8203125,
          "velocity": 0.44881889763779526
        },
        {
          "duration": 0.0026041666666571928,
          "durationTicks": 2,
          "midi": 35,
          "name": "B1",
          "ticks": 145782,
          "time": 189.8203125,
          "velocity": 0.8267716535433071
        },
        {
          "duration": 0.0078125,
          "durationTicks": 6,
          "midi": 38,
          "name": "D2",
          "ticks": 145970,
          "time": 190.06510416666666,
          "velocity": 0.984251968503937
        },
        {
          "duration": 0.0052083333333143855,
          "durationTicks": 4,
          "midi": 40,
          "name": "E2",
          "ticks": 145972,
          "time": 190.06770833333334,
          "velocity": 0.905511811023622
        },
        {
          "duration": 0.005208333333342807,
          "durationTicks": 4,
          "midi": 42,
          "name": "F#2",
          "ticks": 145976,
          "time": 190.07291666666666,
          "velocity": 0.5669291338582677
        },
        {
          "duration": 0.005208333333342807,
          "durationTicks": 4,
          "midi": 51,
          "name": "D#3",
          "ticks": 145976,
          "time": 190.07291666666666,
          "velocity": 0.3937007874015748
        },
        {
          "duration": 0.005208333333342807,
          "durationTicks": 4,
          "midi": 51,
          "name": "D#3",
          "ticks": 146070,
          "time": 190.1953125,
          "velocity": 0.33858267716535434
        },
        {
          "duration": 0.0026041666666856145,
          "durationTicks": 2,
          "midi": 42,
          "name": "F#2",
          "ticks": 146072,
          "time": 190.19791666666666,
          "velocity": 0.3543307086614173
        },
        {
          "duration": 0.013020833333314386,
          "durationTicks": 10,
          "midi": 49,
          "name": "C#3",
          "ticks": 146176,
          "time": 190.33333333333334,
          "velocity": 0.6141732283464567
        },
        {
          "duration": 0.0078125,
          "durationTicks": 6,
          "midi": 35,
          "name": "B1",
          "ticks": 146178,
          "time": 190.3359375,
          "velocity": 0.8582677165354331
        },
        {
          "duration": 0.0078125,
          "durationTicks": 6,
          "midi": 52,
          "name": "E3",
          "ticks": 146178,
          "time": 190.3359375,
          "velocity": 0.5905511811023622
        },
        {
          "duration": 0.010416666666685614,
          "durationTicks": 8,
          "midi": 51,
          "name": "D#3",
          "ticks": 146186,
          "time": 190.34635416666666,
          "velocity": 0.33858267716535434
        },
        {
          "duration": 0.0052083333333143855,
          "durationTicks": 4,
          "midi": 46,
          "name": "A#2",
          "ticks": 146188,
          "time": 190.34895833333334,
          "velocity": 0.5433070866141733
        },
        {
          "duration": 0.0026041666666571928,
          "durationTicks": 2,
          "midi": 42,
          "name": "F#2",
          "ticks": 146370,
          "time": 190.5859375,
          "velocity": 0.49606299212598426
        },
        {
          "duration": 0.0026041666666571928,
          "durationTicks": 2,
          "midi": 51,
          "name": "D#3",
          "ticks": 146370,
          "time": 190.5859375,
          "velocity": 0.31496062992125984
        },
        {
          "duration": 0.0078125,
          "durationTicks": 6,
          "midi": 51,
          "name": "D#3",
          "ticks": 146564,
          "time": 190.83854166666666,
          "velocity": 0.36220472440944884
        },
        {
          "duration": 0.0052083333333143855,
          "durationTicks": 4,
          "midi": 42,
          "name": "F#2",
          "ticks": 146566,
          "time": 190.84114583333334,
          "velocity": 0.4645669291338583
        },
        {
          "duration": 0.0078125,
          "durationTicks": 6,
          "midi": 38,
          "name": "D2",
          "ticks": 146764,
          "time": 191.09895833333334,
          "velocity": 0.984251968503937
        },
        {
          "duration": 0.0026041666666571928,
          "durationTicks": 2,
          "midi": 40,
          "name": "E2",
          "ticks": 146766,
          "time": 191.1015625,
          "velocity": 0.905511811023622
        },
        {
          "duration": 0.0026041666666856145,
          "durationTicks": 2,
          "midi": 51,
          "name": "D#3",
          "ticks": 146774,
          "time": 191.11197916666666,
          "velocity": 0.3937007874015748
        },
        {
          "duration": 0.0026041666666856145,
          "durationTicks": 2,
          "midi": 42,
          "name": "F#2",
          "ticks": 146774,
          "time": 191.11197916666666,
          "velocity": 0.5748031496062992
        },
        {
          "duration": 0.0078125,
          "durationTicks": 6,
          "midi": 51,
          "name": "D#3",
          "ticks": 146864,
          "time": 191.22916666666666,
          "velocity": 0.33858267716535434
        },
        {
          "duration": 0.0052083333333143855,
          "durationTicks": 4,
          "midi": 42,
          "name": "F#2",
          "ticks": 146866,
          "time": 191.23177083333334,
          "velocity": 0.3700787401574803
        },
        {
          "duration": 0.0026041666666571928,
          "durationTicks": 2,
          "midi": 42,
          "name": "F#2",
          "ticks": 146964,
          "time": 191.359375,
          "velocity": 0.5669291338582677
        },
        {
          "duration": 0.0026041666666571928,
          "durationTicks": 2,
          "midi": 51,
          "name": "D#3",
          "ticks": 146964,
          "time": 191.359375,
          "velocity": 0.3937007874015748
        },
        {
          "duration": 0.005208333333342807,
          "durationTicks": 4,
          "midi": 51,
          "name": "D#3",
          "ticks": 147062,
          "time": 191.48697916666666,
          "velocity": 0.33858267716535434
        },
        {
          "duration": 0.0026041666666571928,
          "durationTicks": 2,
          "midi": 42,
          "name": "F#2",
          "ticks": 147064,
          "time": 191.48958333333334,
          "velocity": 0.3543307086614173
        },
        {
          "duration": 0.005208333333342807,
          "durationTicks": 4,
          "midi": 42,
          "name": "F#2",
          "ticks": 147164,
          "time": 191.61979166666666,
          "velocity": 0.5826771653543307
        },
        {
          "duration": 0.005208333333342807,
          "durationTicks": 4,
          "midi": 51,
          "name": "D#3",
          "ticks": 147164,
          "time": 191.61979166666666,
          "velocity": 0.4015748031496063
        },
        {
          "duration": 0.0026041666666571928,
          "durationTicks": 2,
          "midi": 35,
          "name": "B1",
          "ticks": 147168,
          "time": 191.625,
          "velocity": 0.8503937007874016
        },
        {
          "duration": 0.0026041666666856145,
          "durationTicks": 2,
          "midi": 42,
          "name": "F#2",
          "ticks": 147362,
          "time": 191.87760416666666,
          "velocity": 0.5433070866141733
        },
        {
          "duration": 0.0078125,
          "durationTicks": 6,
          "midi": 51,
          "name": "D#3",
          "ticks": 147362,
          "time": 191.87760416666666,
          "velocity": 0.3858267716535433
        },
        {
          "duration": 0.0026041666666856145,
          "durationTicks": 2,
          "midi": 35,
          "name": "B1",
          "ticks": 147368,
          "time": 191.88541666666666,
          "velocity": 0.8267716535433071
        },
        {
          "duration": 0.0078125,
          "durationTicks": 6,
          "midi": 51,
          "name": "D#3",
          "ticks": 147558,
          "time": 192.1328125,
          "velocity": 0.3700787401574803
        },
        {
          "duration": 0.005208333333342807,
          "durationTicks": 4,
          "midi": 40,
          "name": "E2",
          "ticks": 147558,
          "time": 192.1328125,
          "velocity": 0.905511811023622
        },
        {
          "duration": 0.005208333333342807,
          "durationTicks": 4,
          "midi": 38,
          "name": "D2",
          "ticks": 147558,
          "time": 192.1328125,
          "velocity": 0.984251968503937
        },
        {
          "duration": 0.0026041666666856145,
          "durationTicks": 2,
          "midi": 42,
          "name": "F#2",
          "ticks": 147560,
          "time": 192.13541666666666,
          "velocity": 0.49606299212598426
        },
        {
          "duration": 0.0078125,
          "durationTicks": 6,
          "midi": 51,
          "name": "D#3",
          "ticks": 147756,
          "time": 192.390625,
          "velocity": 0.4015748031496063
        },
        {
          "duration": 0.005208333333342807,
          "durationTicks": 4,
          "midi": 42,
          "name": "F#2",
          "ticks": 147758,
          "time": 192.39322916666666,
          "velocity": 0.5826771653543307
        },
        {
          "duration": 0.0052083333333143855,
          "durationTicks": 4,
          "midi": 51,
          "name": "D#3",
          "ticks": 147856,
          "time": 192.52083333333334,
          "velocity": 0.33858267716535434
        },
        {
          "duration": 0.0026041666666571928,
          "durationTicks": 2,
          "midi": 42,
          "name": "F#2",
          "ticks": 147858,
          "time": 192.5234375,
          "velocity": 0.3543307086614173
        },
        {
          "duration": 0.005208333333342807,
          "durationTicks": 4,
          "midi": 51,
          "name": "D#3",
          "ticks": 147960,
          "time": 192.65625,
          "velocity": 0.4015748031496063
        },
        {
          "duration": 0.0026041666666571928,
          "durationTicks": 2,
          "midi": 42,
          "name": "F#2",
          "ticks": 147960,
          "time": 192.65625,
          "velocity": 0.5826771653543307
        },
        {
          "duration": 0.0078125,
          "durationTicks": 6,
          "midi": 35,
          "name": "B1",
          "ticks": 147964,
          "time": 192.66145833333334,
          "velocity": 0.8346456692913385
        },
        {
          "duration": 0.0052083333333143855,
          "durationTicks": 4,
          "midi": 42,
          "name": "F#2",
          "ticks": 148156,
          "time": 192.91145833333334,
          "velocity": 0.5669291338582677
        },
        {
          "duration": 0.0078125,
          "durationTicks": 6,
          "midi": 51,
          "name": "D#3",
          "ticks": 148156,
          "time": 192.91145833333334,
          "velocity": 0.3937007874015748
        },
        {
          "duration": 0.0026041666666571928,
          "durationTicks": 2,
          "midi": 35,
          "name": "B1",
          "ticks": 148162,
          "time": 192.91927083333334,
          "velocity": 0.8346456692913385
        },
        {
          "duration": 0.005208333333342807,
          "durationTicks": 4,
          "midi": 51,
          "name": "D#3",
          "ticks": 148350,
          "time": 193.1640625,
          "velocity": 0.3700787401574803
        },
        {
          "duration": 0.0026041666666856145,
          "durationTicks": 2,
          "midi": 42,
          "name": "F#2",
          "ticks": 148352,
          "time": 193.16666666666666,
          "velocity": 0.48031496062992124
        },
        {
          "duration": 0.0026041666666571928,
          "durationTicks": 2,
          "midi": 38,
          "name": "D2",
          "ticks": 148356,
          "time": 193.171875,
          "velocity": 0.9921259842519685
        },
        {
          "duration": 0.0026041666666571928,
          "durationTicks": 2,
          "midi": 40,
          "name": "E2",
          "ticks": 148356,
          "time": 193.171875,
          "velocity": 0.9133858267716536
        },
        {
          "duration": 0.0026041666666571928,
          "durationTicks": 2,
          "midi": 42,
          "name": "F#2",
          "ticks": 148548,
          "time": 193.421875,
          "velocity": 0.5590551181102362
        },
        {
          "duration": 0.0026041666666571928,
          "durationTicks": 2,
          "midi": 51,
          "name": "D#3",
          "ticks": 148548,
          "time": 193.421875,
          "velocity": 0.3937007874015748
        },
        {
          "duration": 0.0026041666666571928,
          "durationTicks": 2,
          "midi": 51,
          "name": "D#3",
          "ticks": 148650,
          "time": 193.5546875,
          "velocity": 0.33070866141732286
        },
        {
          "duration": 0.0026041666666856145,
          "durationTicks": 2,
          "midi": 42,
          "name": "F#2",
          "ticks": 148652,
          "time": 193.55729166666666,
          "velocity": 0.33858267716535434
        },
        {
          "duration": 0.013020833333314386,
          "durationTicks": 10,
          "midi": 51,
          "name": "D#3",
          "ticks": 148750,
          "time": 193.68489583333334,
          "velocity": 0.3858267716535433
        },
        {
          "duration": 0.010416666666657193,
          "durationTicks": 8,
          "midi": 42,
          "name": "F#2",
          "ticks": 148750,
          "time": 193.68489583333334,
          "velocity": 0.5275590551181102
        },
        {
          "duration": 0.0026041666666856145,
          "durationTicks": 2,
          "midi": 35,
          "name": "B1",
          "ticks": 148760,
          "time": 193.69791666666666,
          "velocity": 0.8503937007874016
        },
        {
          "duration": 0.0026041666666571928,
          "durationTicks": 2,
          "midi": 42,
          "name": "F#2",
          "ticks": 148848,
          "time": 193.8125,
          "velocity": 0.3228346456692913
        },
        {
          "duration": 0.0026041666666571928,
          "durationTicks": 2,
          "midi": 51,
          "name": "D#3",
          "ticks": 148848,
          "time": 193.8125,
          "velocity": 0.33070866141732286
        },
        {
          "duration": 0.0052083333333143855,
          "durationTicks": 4,
          "midi": 51,
          "name": "D#3",
          "ticks": 148948,
          "time": 193.94270833333334,
          "velocity": 0.3937007874015748
        },
        {
          "duration": 0.0052083333333143855,
          "durationTicks": 4,
          "midi": 42,
          "name": "F#2",
          "ticks": 148948,
          "time": 193.94270833333334,
          "velocity": 0.5748031496062992
        },
        {
          "duration": 0.0026041666666571928,
          "durationTicks": 2,
          "midi": 35,
          "name": "B1",
          "ticks": 148954,
          "time": 193.95052083333334,
          "velocity": 0.8267716535433071
        },
        {
          "duration": 0.010416666666657193,
          "durationTicks": 8,
          "midi": 40,
          "name": "E2",
          "ticks": 149146,
          "time": 194.20052083333334,
          "velocity": 0.905511811023622
        },
        {
          "duration": 0.010416666666657193,
          "durationTicks": 8,
          "midi": 38,
          "name": "D2",
          "ticks": 149146,
          "time": 194.20052083333334,
          "velocity": 0.984251968503937
        },
        {
          "duration": 0.0078125,
          "durationTicks": 6,
          "midi": 51,
          "name": "D#3",
          "ticks": 149148,
          "time": 194.203125,
          "velocity": 0.3779527559055118
        },
        {
          "duration": 0.005208333333342807,
          "durationTicks": 4,
          "midi": 42,
          "name": "F#2",
          "ticks": 149148,
          "time": 194.203125,
          "velocity": 0.5118110236220472
        },
        {
          "duration": 0.015625,
          "durationTicks": 12,
          "midi": 51,
          "name": "D#3",
          "ticks": 149348,
          "time": 194.46354166666666,
          "velocity": 0.33070866141732286
        },
        {
          "duration": 0.013020833333314386,
          "durationTicks": 10,
          "midi": 46,
          "name": "A#2",
          "ticks": 149350,
          "time": 194.46614583333334,
          "velocity": 0.5275590551181102
        },
        {
          "duration": 0.015625,
          "durationTicks": 12,
          "midi": 49,
          "name": "C#3",
          "ticks": 149360,
          "time": 194.47916666666666,
          "velocity": 0.5196850393700787
        },
        {
          "duration": 0.010416666666657193,
          "durationTicks": 8,
          "midi": 52,
          "name": "E3",
          "ticks": 149362,
          "time": 194.48177083333334,
          "velocity": 0.49606299212598426
        },
        {
          "duration": 0.010416666666657193,
          "durationTicks": 8,
          "midi": 35,
          "name": "B1",
          "ticks": 149362,
          "time": 194.48177083333334,
          "velocity": 0.8582677165354331
        },
        {
          "duration": 0.005208333333342807,
          "durationTicks": 4,
          "midi": 51,
          "name": "D#3",
          "ticks": 149540,
          "time": 194.71354166666666,
          "velocity": 0.2755905511811024
        },
        {
          "duration": 0.0026041666666571928,
          "durationTicks": 2,
          "midi": 42,
          "name": "F#2",
          "ticks": 149542,
          "time": 194.71614583333334,
          "velocity": 0.4566929133858268
        },
        {
          "duration": 0.0026041666666571928,
          "durationTicks": 2,
          "midi": 42,
          "name": "F#2",
          "ticks": 149740,
          "time": 194.97395833333334,
          "velocity": 0.4645669291338583
        },
        {
          "duration": 0.0026041666666571928,
          "durationTicks": 2,
          "midi": 51,
          "name": "D#3",
          "ticks": 149740,
          "time": 194.97395833333334,
          "velocity": 0.36220472440944884
        },
        {
          "duration": 0.0078125,
          "durationTicks": 6,
          "midi": 38,
          "name": "D2",
          "ticks": 149932,
          "time": 195.22395833333334,
          "velocity": 1
        },
        {
          "duration": 0.0026041666666856145,
          "durationTicks": 2,
          "midi": 40,
          "name": "E2",
          "ticks": 149936,
          "time": 195.22916666666666,
          "velocity": 0.9212598425196851
        },
        {
          "duration": 0.0026041666666856145,
          "durationTicks": 2,
          "midi": 42,
          "name": "F#2",
          "ticks": 149942,
          "time": 195.23697916666666,
          "velocity": 0.5669291338582677
        },
        {
          "duration": 0.0026041666666856145,
          "durationTicks": 2,
          "midi": 51,
          "name": "D#3",
          "ticks": 149942,
          "time": 195.23697916666666,
          "velocity": 0.3937007874015748
        },
        {
          "duration": 0.0026041666666856145,
          "durationTicks": 2,
          "midi": 42,
          "name": "F#2",
          "ticks": 150038,
          "time": 195.36197916666666,
          "velocity": 0.33858267716535434
        },
        {
          "duration": 0.0026041666666856145,
          "durationTicks": 2,
          "midi": 51,
          "name": "D#3",
          "ticks": 150038,
          "time": 195.36197916666666,
          "velocity": 0.33070866141732286
        },
        {
          "duration": 0.0078125,
          "durationTicks": 6,
          "midi": 42,
          "name": "F#2",
          "ticks": 150132,
          "time": 195.484375,
          "velocity": 0.3858267716535433
        },
        {
          "duration": 0.010416666666657193,
          "durationTicks": 8,
          "midi": 51,
          "name": "D#3",
          "ticks": 150132,
          "time": 195.484375,
          "velocity": 0.3464566929133858
        },
        {
          "duration": 0.0078125,
          "durationTicks": 6,
          "midi": 51,
          "name": "D#3",
          "ticks": 150232,
          "time": 195.61458333333334,
          "velocity": 0.33070866141732286
        },
        {
          "duration": 0.005208333333342807,
          "durationTicks": 4,
          "midi": 42,
          "name": "F#2",
          "ticks": 150234,
          "time": 195.6171875,
          "velocity": 0.3228346456692913
        },
        {
          "duration": 0.010416666666657193,
          "durationTicks": 8,
          "midi": 51,
          "name": "D#3",
          "ticks": 150340,
          "time": 195.75520833333334,
          "velocity": 0.3937007874015748
        },
        {
          "duration": 0.0078125,
          "durationTicks": 6,
          "midi": 42,
          "name": "F#2",
          "ticks": 150342,
          "time": 195.7578125,
          "velocity": 0.5669291338582677
        },
        {
          "duration": 0.005208333333342807,
          "durationTicks": 4,
          "midi": 35,
          "name": "B1",
          "ticks": 150342,
          "time": 195.7578125,
          "velocity": 0.8188976377952756
        },
        {
          "duration": 0.005208333333342807,
          "durationTicks": 4,
          "midi": 42,
          "name": "F#2",
          "ticks": 150534,
          "time": 196.0078125,
          "velocity": 0.5433070866141733
        },
        {
          "duration": 0.005208333333342807,
          "durationTicks": 4,
          "midi": 51,
          "name": "D#3",
          "ticks": 150534,
          "time": 196.0078125,
          "velocity": 0.3858267716535433
        },
        {
          "duration": 0.0026041666666571928,
          "durationTicks": 2,
          "midi": 35,
          "name": "B1",
          "ticks": 150538,
          "time": 196.01302083333334,
          "velocity": 0.8267716535433071
        },
        {
          "duration": 0.0026041666666571928,
          "durationTicks": 2,
          "midi": 42,
          "name": "F#2",
          "ticks": 150726,
          "time": 196.2578125,
          "velocity": 0.44881889763779526
        },
        {
          "duration": 0.005208333333342807,
          "durationTicks": 4,
          "midi": 51,
          "name": "D#3",
          "ticks": 150726,
          "time": 196.2578125,
          "velocity": 0.36220472440944884
        },
        {
          "duration": 0.0026041666666571928,
          "durationTicks": 2,
          "midi": 38,
          "name": "D2",
          "ticks": 150732,
          "time": 196.265625,
          "velocity": 0.9763779527559056
        },
        {
          "duration": 0.0026041666666856145,
          "durationTicks": 2,
          "midi": 40,
          "name": "E2",
          "ticks": 150734,
          "time": 196.26822916666666,
          "velocity": 0.8976377952755905
        },
        {
          "duration": 0.005208333333342807,
          "durationTicks": 4,
          "midi": 42,
          "name": "F#2",
          "ticks": 150930,
          "time": 196.5234375,
          "velocity": 0.4330708661417323
        },
        {
          "duration": 0.0078125,
          "durationTicks": 6,
          "midi": 51,
          "name": "D#3",
          "ticks": 150930,
          "time": 196.5234375,
          "velocity": 0.36220472440944884
        },
        {
          "duration": 0.0026041666666856145,
          "durationTicks": 2,
          "midi": 42,
          "name": "F#2",
          "ticks": 151028,
          "time": 196.65104166666666,
          "velocity": 0.3228346456692913
        },
        {
          "duration": 0.0026041666666856145,
          "durationTicks": 2,
          "midi": 51,
          "name": "D#3",
          "ticks": 151028,
          "time": 196.65104166666666,
          "velocity": 0.33070866141732286
        },
        {
          "duration": 0.013020833333342807,
          "durationTicks": 10,
          "midi": 51,
          "name": "D#3",
          "ticks": 151128,
          "time": 196.78125,
          "velocity": 0.3858267716535433
        },
        {
          "duration": 0.010416666666685614,
          "durationTicks": 8,
          "midi": 42,
          "name": "F#2",
          "ticks": 151130,
          "time": 196.78385416666666,
          "velocity": 0.5433070866141733
        },
        {
          "duration": 0.0026041666666571928,
          "durationTicks": 2,
          "midi": 35,
          "name": "B1",
          "ticks": 151140,
          "time": 196.796875,
          "velocity": 0.8503937007874016
        },
        {
          "duration": 0.010416666666657193,
          "durationTicks": 8,
          "midi": 51,
          "name": "D#3",
          "ticks": 151324,
          "time": 197.03645833333334,
          "velocity": 0.3937007874015748
        },
        {
          "duration": 0.0078125,
          "durationTicks": 6,
          "midi": 42,
          "name": "F#2",
          "ticks": 151326,
          "time": 197.0390625,
          "velocity": 0.5669291338582677
        },
        {
          "duration": 0.0026041666666856145,
          "durationTicks": 2,
          "midi": 35,
          "name": "B1",
          "ticks": 151334,
          "time": 197.04947916666666,
          "velocity": 0.8346456692913385
        },
        {
          "duration": 0.005208333333342807,
          "durationTicks": 4,
          "midi": 51,
          "name": "D#3",
          "ticks": 151520,
          "time": 197.29166666666666,
          "velocity": 0.3700787401574803
        },
        {
          "duration": 0.0026041666666571928,
          "durationTicks": 2,
          "midi": 42,
          "name": "F#2",
          "ticks": 151524,
          "time": 197.296875,
          "velocity": 0.48031496062992124
        },
        {
          "duration": 0.005208333333342807,
          "durationTicks": 4,
          "midi": 38,
          "name": "D2",
          "ticks": 151526,
          "time": 197.29947916666666,
          "velocity": 0.9921259842519685
        },
        {
          "duration": 0.0026041666666571928,
          "durationTicks": 2,
          "midi": 40,
          "name": "E2",
          "ticks": 151528,
          "time": 197.30208333333334,
          "velocity": 0.9133858267716536
        },
        {
          "duration": 0.005208333333342807,
          "durationTicks": 4,
          "midi": 51,
          "name": "D#3",
          "ticks": 151722,
          "time": 197.5546875,
          "velocity": 0.3937007874015748
        },
        {
          "duration": 0.0026041666666856145,
          "durationTicks": 2,
          "midi": 42,
          "name": "F#2",
          "ticks": 151724,
          "time": 197.55729166666666,
          "velocity": 0.5748031496062992
        },
        {
          "duration": 0.0026041666666856145,
          "durationTicks": 2,
          "midi": 42,
          "name": "F#2",
          "ticks": 151820,
          "time": 197.68229166666666,
          "velocity": 0.29133858267716534
        },
        {
          "duration": 0.005208333333342807,
          "durationTicks": 4,
          "midi": 51,
          "name": "D#3",
          "ticks": 151820,
          "time": 197.68229166666666,
          "velocity": 0.31496062992125984
        },
        {
          "duration": 0.0026041666666856145,
          "durationTicks": 2,
          "midi": 35,
          "name": "B1",
          "ticks": 151922,
          "time": 197.81510416666666,
          "velocity": 0.8503937007874016
        },
        {
          "duration": 0.0026041666666571928,
          "durationTicks": 2,
          "midi": 42,
          "name": "F#2",
          "ticks": 151926,
          "time": 197.8203125,
          "velocity": 0.4645669291338583
        },
        {
          "duration": 0.0026041666666571928,
          "durationTicks": 2,
          "midi": 51,
          "name": "D#3",
          "ticks": 151926,
          "time": 197.8203125,
          "velocity": 0.36220472440944884
        },
        {
          "duration": 0.0026041666666571928,
          "durationTicks": 2,
          "midi": 51,
          "name": "D#3",
          "ticks": 152016,
          "time": 197.9375,
          "velocity": 0.33858267716535434
        },
        {
          "duration": 0.0026041666666856145,
          "durationTicks": 2,
          "midi": 42,
          "name": "F#2",
          "ticks": 152018,
          "time": 197.94010416666666,
          "velocity": 0.3543307086614173
        },
        {
          "duration": 0.0078125,
          "durationTicks": 6,
          "midi": 42,
          "name": "F#2",
          "ticks": 152116,
          "time": 198.06770833333334,
          "velocity": 0.5669291338582677
        },
        {
          "duration": 0.010416666666657193,
          "durationTicks": 8,
          "midi": 51,
          "name": "D#3",
          "ticks": 152116,
          "time": 198.06770833333334,
          "velocity": 0.3937007874015748
        },
        {
          "duration": 0.0026041666666571928,
          "durationTicks": 2,
          "midi": 35,
          "name": "B1",
          "ticks": 152124,
          "time": 198.078125,
          "velocity": 0.8503937007874016
        },
        {
          "duration": 0.0078125,
          "durationTicks": 6,
          "midi": 38,
          "name": "D2",
          "ticks": 152310,
          "time": 198.3203125,
          "velocity": 0.9763779527559056
        },
        {
          "duration": 0.005208333333342807,
          "durationTicks": 4,
          "midi": 40,
          "name": "E2",
          "ticks": 152312,
          "time": 198.32291666666666,
          "velocity": 0.8976377952755905
        },
        {
          "duration": 0.0026041666666571928,
          "durationTicks": 2,
          "midi": 51,
          "name": "D#3",
          "ticks": 152316,
          "time": 198.328125,
          "velocity": 0.3700787401574803
        },
        {
          "duration": 0.0026041666666856145,
          "durationTicks": 2,
          "midi": 42,
          "name": "F#2",
          "ticks": 152318,
          "time": 198.33072916666666,
          "velocity": 0.48031496062992124
        },
        {
          "duration": 0.010416666666685614,
          "durationTicks": 8,
          "midi": 52,
          "name": "E3",
          "ticks": 152516,
          "time": 198.58854166666666,
          "velocity": 0.5590551181102362
        },
        {
          "duration": 0.010416666666685614,
          "durationTicks": 8,
          "midi": 49,
          "name": "C#3",
          "ticks": 152516,
          "time": 198.58854166666666,
          "velocity": 0.5826771653543307
        },
        {
          "duration": 0.0078125,
          "durationTicks": 6,
          "midi": 35,
          "name": "B1",
          "ticks": 152518,
          "time": 198.59114583333334,
          "velocity": 0.8582677165354331
        },
        {
          "duration": 0.010416666666657193,
          "durationTicks": 8,
          "midi": 51,
          "name": "D#3",
          "ticks": 152526,
          "time": 198.6015625,
          "velocity": 0.3228346456692913
        },
        {
          "duration": 0.0078125,
          "durationTicks": 6,
          "midi": 46,
          "name": "A#2",
          "ticks": 152528,
          "time": 198.60416666666666,
          "velocity": 0.49606299212598426
        },
        {
          "duration": 0.0026041666666571928,
          "durationTicks": 2,
          "midi": 42,
          "name": "F#2",
          "ticks": 152710,
          "time": 198.84114583333334,
          "velocity": 0.4566929133858268
        },
        {
          "duration": 0.0026041666666571928,
          "durationTicks": 2,
          "midi": 51,
          "name": "D#3",
          "ticks": 152710,
          "time": 198.84114583333334,
          "velocity": 0.23622047244094488
        },
        {
          "duration": 0.0078125,
          "durationTicks": 6,
          "midi": 51,
          "name": "D#3",
          "ticks": 152908,
          "time": 199.09895833333334,
          "velocity": 0.3937007874015748
        },
        {
          "duration": 0.0026041666666571928,
          "durationTicks": 2,
          "midi": 42,
          "name": "F#2",
          "ticks": 152910,
          "time": 199.1015625,
          "velocity": 0.5748031496062992
        },
        {
          "duration": 0.0026041666666571928,
          "durationTicks": 2,
          "midi": 40,
          "name": "E2",
          "ticks": 153106,
          "time": 199.35677083333334,
          "velocity": 0.9133858267716536
        },
        {
          "duration": 0.0026041666666571928,
          "durationTicks": 2,
          "midi": 38,
          "name": "D2",
          "ticks": 153106,
          "time": 199.35677083333334,
          "velocity": 0.9921259842519685
        },
        {
          "duration": 0.0078125,
          "durationTicks": 6,
          "midi": 51,
          "name": "D#3",
          "ticks": 153110,
          "time": 199.36197916666666,
          "velocity": 0.4015748031496063
        },
        {
          "duration": 0.005208333333342807,
          "durationTicks": 4,
          "midi": 42,
          "name": "F#2",
          "ticks": 153110,
          "time": 199.36197916666666,
          "velocity": 0.5826771653543307
        },
        {
          "duration": 0.0052083333333143855,
          "durationTicks": 4,
          "midi": 51,
          "name": "D#3",
          "ticks": 153202,
          "time": 199.48177083333334,
          "velocity": 0.33070866141732286
        },
        {
          "duration": 0.0026041666666571928,
          "durationTicks": 2,
          "midi": 42,
          "name": "F#2",
          "ticks": 153204,
          "time": 199.484375,
          "velocity": 0.33858267716535434
        },
        {
          "duration": 0.0026041666666571928,
          "durationTicks": 2,
          "midi": 42,
          "name": "F#2",
          "ticks": 153304,
          "time": 199.61458333333334,
          "velocity": 0.5275590551181102
        },
        {
          "duration": 0.0026041666666571928,
          "durationTicks": 2,
          "midi": 51,
          "name": "D#3",
          "ticks": 153304,
          "time": 199.61458333333334,
          "velocity": 0.3858267716535433
        },
        {
          "duration": 0.010416666666685614,
          "durationTicks": 8,
          "midi": 51,
          "name": "D#3",
          "ticks": 153404,
          "time": 199.74479166666666,
          "velocity": 0.31496062992125984
        },
        {
          "duration": 0.0052083333333143855,
          "durationTicks": 4,
          "midi": 42,
          "name": "F#2",
          "ticks": 153406,
          "time": 199.74739583333334,
          "velocity": 0.29133858267716534
        },
        {
          "duration": 0.010416666666685614,
          "durationTicks": 8,
          "midi": 51,
          "name": "D#3",
          "ticks": 153506,
          "time": 199.87760416666666,
          "velocity": 0.3937007874015748
        },
        {
          "duration": 0.0078125,
          "durationTicks": 6,
          "midi": 42,
          "name": "F#2",
          "ticks": 153508,
          "time": 199.88020833333334,
          "velocity": 0.5669291338582677
        },
        {
          "duration": 0.0052083333333143855,
          "durationTicks": 4,
          "midi": 35,
          "name": "B1",
          "ticks": 153508,
          "time": 199.88020833333334,
          "velocity": 0.8346456692913385
        },
        {
          "duration": 0.0026041666666856145,
          "durationTicks": 2,
          "midi": 35,
          "name": "B1",
          "ticks": 153704,
          "time": 200.13541666666666,
          "velocity": 0.84251968503937
        },
        {
          "duration": 0.005208333333342807,
          "durationTicks": 4,
          "midi": 51,
          "name": "D#3",
          "ticks": 153708,
          "time": 200.140625,
          "velocity": 0.3937007874015748
        },
        {
          "duration": 0.0026041666666571928,
          "durationTicks": 2,
          "midi": 42,
          "name": "F#2",
          "ticks": 153708,
          "time": 200.140625,
          "velocity": 0.5748031496062992
        },
        {
          "duration": 0.010416666666685614,
          "durationTicks": 8,
          "midi": 38,
          "name": "D2",
          "ticks": 153896,
          "time": 200.38541666666666,
          "velocity": 0.9763779527559056
        },
        {
          "duration": 0.0052083333333143855,
          "durationTicks": 4,
          "midi": 40,
          "name": "E2",
          "ticks": 153898,
          "time": 200.38802083333334,
          "velocity": 0.8976377952755905
        },
        {
          "duration": 0.0052083333333143855,
          "durationTicks": 4,
          "midi": 51,
          "name": "D#3",
          "ticks": 153904,
          "time": 200.39583333333334,
          "velocity": 0.33858267716535434
        },
        {
          "duration": 0.0026041666666571928,
          "durationTicks": 2,
          "midi": 42,
          "name": "F#2",
          "ticks": 153906,
          "time": 200.3984375,
          "velocity": 0.3543307086614173
        },
        {
          "duration": 0.005208333333342807,
          "durationTicks": 4,
          "midi": 42,
          "name": "F#2",
          "ticks": 154100,
          "time": 200.65104166666666,
          "velocity": 0.5669291338582677
        },
        {
          "duration": 0.005208333333342807,
          "durationTicks": 4,
          "midi": 51,
          "name": "D#3",
          "ticks": 154100,
          "time": 200.65104166666666,
          "velocity": 0.3937007874015748
        },
        {
          "duration": 0.0078125,
          "durationTicks": 6,
          "midi": 51,
          "name": "D#3",
          "ticks": 154198,
          "time": 200.77864583333334,
          "velocity": 0.33858267716535434
        },
        {
          "duration": 0.0026041666666571928,
          "durationTicks": 2,
          "midi": 42,
          "name": "F#2",
          "ticks": 154200,
          "time": 200.78125,
          "velocity": 0.3543307086614173
        },
        {
          "duration": 0.010416666666657193,
          "durationTicks": 8,
          "midi": 51,
          "name": "D#3",
          "ticks": 154300,
          "time": 200.91145833333334,
          "velocity": 0.3937007874015748
        },
        {
          "duration": 0.0078125,
          "durationTicks": 6,
          "midi": 35,
          "name": "B1",
          "ticks": 154302,
          "time": 200.9140625,
          "velocity": 0.84251968503937
        },
        {
          "duration": 0.0078125,
          "durationTicks": 6,
          "midi": 42,
          "name": "F#2",
          "ticks": 154302,
          "time": 200.9140625,
          "velocity": 0.5669291338582677
        },
        {
          "duration": 0.0052083333333143855,
          "durationTicks": 4,
          "midi": 51,
          "name": "D#3",
          "ticks": 154390,
          "time": 201.02864583333334,
          "velocity": 0.33858267716535434
        },
        {
          "duration": 0.0026041666666571928,
          "durationTicks": 2,
          "midi": 42,
          "name": "F#2",
          "ticks": 154392,
          "time": 201.03125,
          "velocity": 0.3543307086614173
        },
        {
          "duration": 0.0052083333333143855,
          "durationTicks": 4,
          "midi": 51,
          "name": "D#3",
          "ticks": 154498,
          "time": 201.16927083333334,
          "velocity": 0.3937007874015748
        },
        {
          "duration": 0.0052083333333143855,
          "durationTicks": 4,
          "midi": 42,
          "name": "F#2",
          "ticks": 154498,
          "time": 201.16927083333334,
          "velocity": 0.5669291338582677
        },
        {
          "duration": 0.0026041666666856145,
          "durationTicks": 2,
          "midi": 35,
          "name": "B1",
          "ticks": 154502,
          "time": 201.17447916666666,
          "velocity": 0.8346456692913385
        },
        {
          "duration": 0.005208333333342807,
          "durationTicks": 4,
          "midi": 51,
          "name": "D#3",
          "ticks": 154692,
          "time": 201.421875,
          "velocity": 0.3700787401574803
        },
        {
          "duration": 0.0026041666666856145,
          "durationTicks": 2,
          "midi": 42,
          "name": "F#2",
          "ticks": 154694,
          "time": 201.42447916666666,
          "velocity": 0.48031496062992124
        },
        {
          "duration": 0.0026041666666571928,
          "durationTicks": 2,
          "midi": 38,
          "name": "D2",
          "ticks": 154698,
          "time": 201.4296875,
          "velocity": 0.984251968503937
        },
        {
          "duration": 0.0026041666666571928,
          "durationTicks": 2,
          "midi": 40,
          "name": "E2",
          "ticks": 154698,
          "time": 201.4296875,
          "velocity": 0.905511811023622
        },
        {
          "duration": 0.0026041666666571928,
          "durationTicks": 2,
          "midi": 42,
          "name": "F#2",
          "ticks": 154890,
          "time": 201.6796875,
          "velocity": 0.5275590551181102
        },
        {
          "duration": 0.0078125,
          "durationTicks": 6,
          "midi": 51,
          "name": "D#3",
          "ticks": 154890,
          "time": 201.6796875,
          "velocity": 0.3858267716535433
        },
        {
          "duration": 0.0026041666666571928,
          "durationTicks": 2,
          "midi": 42,
          "name": "F#2",
          "ticks": 154992,
          "time": 201.8125,
          "velocity": 0.3700787401574803
        },
        {
          "duration": 0.0026041666666571928,
          "durationTicks": 2,
          "midi": 51,
          "name": "D#3",
          "ticks": 154992,
          "time": 201.8125,
          "velocity": 0.33858267716535434
        },
        {
          "duration": 0.010416666666657193,
          "durationTicks": 8,
          "midi": 51,
          "name": "D#3",
          "ticks": 155094,
          "time": 201.9453125,
          "velocity": 0.4015748031496063
        },
        {
          "duration": 0.0078125,
          "durationTicks": 6,
          "midi": 42,
          "name": "F#2",
          "ticks": 155096,
          "time": 201.94791666666666,
          "velocity": 0.5826771653543307
        },
        {
          "duration": 0.005208333333342807,
          "durationTicks": 4,
          "midi": 35,
          "name": "B1",
          "ticks": 155096,
          "time": 201.94791666666666,
          "velocity": 0.8346456692913385
        },
        {
          "duration": 0.0052083333333143855,
          "durationTicks": 4,
          "midi": 42,
          "name": "F#2",
          "ticks": 155188,
          "time": 202.06770833333334,
          "velocity": 0.3543307086614173
        },
        {
          "duration": 0.0052083333333143855,
          "durationTicks": 4,
          "midi": 51,
          "name": "D#3",
          "ticks": 155188,
          "time": 202.06770833333334,
          "velocity": 0.33858267716535434
        },
        {
          "duration": 0.0078125,
          "durationTicks": 6,
          "midi": 42,
          "name": "F#2",
          "ticks": 155288,
          "time": 202.19791666666666,
          "velocity": 0.5826771653543307
        },
        {
          "duration": 0.0078125,
          "durationTicks": 6,
          "midi": 51,
          "name": "D#3",
          "ticks": 155288,
          "time": 202.19791666666666,
          "velocity": 0.4015748031496063
        },
        {
          "duration": 0.0026041666666571928,
          "durationTicks": 2,
          "midi": 35,
          "name": "B1",
          "ticks": 155296,
          "time": 202.20833333333334,
          "velocity": 0.84251968503937
        },
        {
          "duration": 0.010416666666685614,
          "durationTicks": 8,
          "midi": 51,
          "name": "D#3",
          "ticks": 155486,
          "time": 202.45572916666666,
          "velocity": 0.36220472440944884
        },
        {
          "duration": 0.0052083333333143855,
          "durationTicks": 4,
          "midi": 42,
          "name": "F#2",
          "ticks": 155488,
          "time": 202.45833333333334,
          "velocity": 0.4645669291338583
        },
        {
          "duration": 0.0052083333333143855,
          "durationTicks": 4,
          "midi": 38,
          "name": "D2",
          "ticks": 155494,
          "time": 202.46614583333334,
          "velocity": 0.9921259842519685
        },
        {
          "duration": 0.0026041666666571928,
          "durationTicks": 2,
          "midi": 40,
          "name": "E2",
          "ticks": 155496,
          "time": 202.46875,
          "velocity": 0.9133858267716536
        },
        {
          "duration": 0.013020833333314386,
          "durationTicks": 10,
          "midi": 49,
          "name": "C#3",
          "ticks": 155698,
          "time": 202.73177083333334,
          "velocity": 0.5196850393700787
        },
        {
          "duration": 0.015625,
          "durationTicks": 12,
          "midi": 52,
          "name": "E3",
          "ticks": 155698,
          "time": 202.73177083333334,
          "velocity": 0.49606299212598426
        },
        {
          "duration": 0.010416666666657193,
          "durationTicks": 8,
          "midi": 51,
          "name": "D#3",
          "ticks": 155700,
          "time": 202.734375,
          "velocity": 0.33070866141732286
        },
        {
          "duration": 0.013020833333342807,
          "durationTicks": 10,
          "midi": 46,
          "name": "A#2",
          "ticks": 155702,
          "time": 202.73697916666666,
          "velocity": 0.5118110236220472
        },
        {
          "duration": 0.0078125,
          "durationTicks": 6,
          "midi": 35,
          "name": "B1",
          "ticks": 155702,
          "time": 202.73697916666666,
          "velocity": 0.8740157480314961
        },
        {
          "duration": 0.0026041666666856145,
          "durationTicks": 2,
          "midi": 42,
          "name": "F#2",
          "ticks": 155882,
          "time": 202.97135416666666,
          "velocity": 0.5039370078740157
        },
        {
          "duration": 0.0026041666666856145,
          "durationTicks": 2,
          "midi": 51,
          "name": "D#3",
          "ticks": 155882,
          "time": 202.97135416666666,
          "velocity": 0.31496062992125984
        },
        {
          "duration": 0.0026041666666856145,
          "durationTicks": 2,
          "midi": 42,
          "name": "F#2",
          "ticks": 156080,
          "time": 203.22916666666666,
          "velocity": 0.5669291338582677
        },
        {
          "duration": 0.0026041666666856145,
          "durationTicks": 2,
          "midi": 51,
          "name": "D#3",
          "ticks": 156080,
          "time": 203.22916666666666,
          "velocity": 0.3937007874015748
        },
        {
          "duration": 0.0078125,
          "durationTicks": 6,
          "midi": 38,
          "name": "D2",
          "ticks": 156280,
          "time": 203.48958333333334,
          "velocity": 1
        },
        {
          "duration": 0.0078125,
          "durationTicks": 6,
          "midi": 40,
          "name": "E2",
          "ticks": 156282,
          "time": 203.4921875,
          "velocity": 0.9212598425196851
        },
        {
          "duration": 0.0078125,
          "durationTicks": 6,
          "midi": 51,
          "name": "D#3",
          "ticks": 156282,
          "time": 203.4921875,
          "velocity": 0.4015748031496063
        },
        {
          "duration": 0.005208333333342807,
          "durationTicks": 4,
          "midi": 42,
          "name": "F#2",
          "ticks": 156282,
          "time": 203.4921875,
          "velocity": 0.5905511811023622
        },
        {
          "duration": 0.0026041666666571928,
          "durationTicks": 2,
          "midi": 42,
          "name": "F#2",
          "ticks": 156378,
          "time": 203.6171875,
          "velocity": 0.3700787401574803
        },
        {
          "duration": 0.0026041666666571928,
          "durationTicks": 2,
          "midi": 51,
          "name": "D#3",
          "ticks": 156378,
          "time": 203.6171875,
          "velocity": 0.33858267716535434
        },
        {
          "duration": 0.0052083333333143855,
          "durationTicks": 4,
          "midi": 51,
          "name": "D#3",
          "ticks": 156478,
          "time": 203.74739583333334,
          "velocity": 0.3858267716535433
        },
        {
          "duration": 0.0026041666666571928,
          "durationTicks": 2,
          "midi": 42,
          "name": "F#2",
          "ticks": 156480,
          "time": 203.75,
          "velocity": 0.5433070866141733
        },
        {
          "duration": 0.005208333333342807,
          "durationTicks": 4,
          "midi": 42,
          "name": "F#2",
          "ticks": 156576,
          "time": 203.875,
          "velocity": 0.33858267716535434
        },
        {
          "duration": 0.005208333333342807,
          "durationTicks": 4,
          "midi": 51,
          "name": "D#3",
          "ticks": 156576,
          "time": 203.875,
          "velocity": 0.33070866141732286
        },
        {
          "duration": 0.010416666666657193,
          "durationTicks": 8,
          "midi": 42,
          "name": "F#2",
          "ticks": 156678,
          "time": 204.0078125,
          "velocity": 0.5984251968503937
        },
        {
          "duration": 0.013020833333342807,
          "durationTicks": 10,
          "midi": 51,
          "name": "D#3",
          "ticks": 156678,
          "time": 204.0078125,
          "velocity": 0.4015748031496063
        },
        {
          "duration": 0.0078125,
          "durationTicks": 6,
          "midi": 35,
          "name": "B1",
          "ticks": 156680,
          "time": 204.01041666666666,
          "velocity": 0.8188976377952756
        },
        {
          "duration": 0.0078125,
          "durationTicks": 6,
          "midi": 35,
          "name": "B1",
          "ticks": 156870,
          "time": 204.2578125,
          "velocity": 0.8188976377952756
        },
        {
          "duration": 0.0026041666666856145,
          "durationTicks": 2,
          "midi": 51,
          "name": "D#3",
          "ticks": 156878,
          "time": 204.26822916666666,
          "velocity": 0.3937007874015748
        },
        {
          "duration": 0.0026041666666856145,
          "durationTicks": 2,
          "midi": 42,
          "name": "F#2",
          "ticks": 156878,
          "time": 204.26822916666666,
          "velocity": 0.5669291338582677
        },
        {
          "duration": 0.005208333333342807,
          "durationTicks": 4,
          "midi": 42,
          "name": "F#2",
          "ticks": 157068,
          "time": 204.515625,
          "velocity": 0.44881889763779526
        },
        {
          "duration": 0.005208333333342807,
          "durationTicks": 4,
          "midi": 51,
          "name": "D#3",
          "ticks": 157068,
          "time": 204.515625,
          "velocity": 0.36220472440944884
        },
        {
          "duration": 0.0026041666666571928,
          "durationTicks": 2,
          "midi": 40,
          "name": "E2",
          "ticks": 157074,
          "time": 204.5234375,
          "velocity": 0.9133858267716536
        },
        {
          "duration": 0.0026041666666571928,
          "durationTicks": 2,
          "midi": 38,
          "name": "D2",
          "ticks": 157074,
          "time": 204.5234375,
          "velocity": 0.9921259842519685
        },
        {
          "duration": 0.0026041666666571928,
          "durationTicks": 2,
          "midi": 42,
          "name": "F#2",
          "ticks": 157270,
          "time": 204.77864583333334,
          "velocity": 0.5433070866141733
        },
        {
          "duration": 0.0026041666666571928,
          "durationTicks": 2,
          "midi": 51,
          "name": "D#3",
          "ticks": 157270,
          "time": 204.77864583333334,
          "velocity": 0.3858267716535433
        },
        {
          "duration": 0.0026041666666571928,
          "durationTicks": 2,
          "midi": 42,
          "name": "F#2",
          "ticks": 157368,
          "time": 204.90625,
          "velocity": 0.3228346456692913
        },
        {
          "duration": 0.0026041666666571928,
          "durationTicks": 2,
          "midi": 51,
          "name": "D#3",
          "ticks": 157368,
          "time": 204.90625,
          "velocity": 0.33070866141732286
        },
        {
          "duration": 0.010416666666657193,
          "durationTicks": 8,
          "midi": 42,
          "name": "F#2",
          "ticks": 157470,
          "time": 205.0390625,
          "velocity": 0.5826771653543307
        },
        {
          "duration": 0.010416666666657193,
          "durationTicks": 8,
          "midi": 51,
          "name": "D#3",
          "ticks": 157470,
          "time": 205.0390625,
          "velocity": 0.4015748031496063
        },
        {
          "duration": 0.0026041666666856145,
          "durationTicks": 2,
          "midi": 35,
          "name": "B1",
          "ticks": 157478,
          "time": 205.04947916666666,
          "velocity": 0.8031496062992126
        },
        {
          "duration": 0.0026041666666571928,
          "durationTicks": 2,
          "midi": 51,
          "name": "D#3",
          "ticks": 157566,
          "time": 205.1640625,
          "velocity": 0.3543307086614173
        },
        {
          "duration": 0.0026041666666856145,
          "durationTicks": 2,
          "midi": 42,
          "name": "F#2",
          "ticks": 157568,
          "time": 205.16666666666666,
          "velocity": 0.41732283464566927
        },
        {
          "duration": 0.0026041666666571928,
          "durationTicks": 2,
          "midi": 35,
          "name": "B1",
          "ticks": 157668,
          "time": 205.296875,
          "velocity": 0.8188976377952756
        },
        {
          "duration": 0.0026041666666571928,
          "durationTicks": 2,
          "midi": 42,
          "name": "F#2",
          "ticks": 157668,
          "time": 205.296875,
          "velocity": 0.5669291338582677
        },
        {
          "duration": 0.010416666666657193,
          "durationTicks": 8,
          "midi": 51,
          "name": "D#3",
          "ticks": 157668,
          "time": 205.296875,
          "velocity": 0.3937007874015748
        },
        {
          "duration": 0.0078125,
          "durationTicks": 6,
          "midi": 51,
          "name": "D#3",
          "ticks": 157860,
          "time": 205.546875,
          "velocity": 0.36220472440944884
        },
        {
          "duration": 0.0026041666666856145,
          "durationTicks": 2,
          "midi": 42,
          "name": "F#2",
          "ticks": 157862,
          "time": 205.54947916666666,
          "velocity": 0.4645669291338583
        },
        {
          "duration": 0.0026041666666856145,
          "durationTicks": 2,
          "midi": 38,
          "name": "D2",
          "ticks": 157868,
          "time": 205.55729166666666,
          "velocity": 0.984251968503937
        },
        {
          "duration": 0.0026041666666856145,
          "durationTicks": 2,
          "midi": 40,
          "name": "E2",
          "ticks": 157868,
          "time": 205.55729166666666,
          "velocity": 0.905511811023622
        },
        {
          "duration": 0.0026041666666571928,
          "durationTicks": 2,
          "midi": 51,
          "name": "D#3",
          "ticks": 158064,
          "time": 205.8125,
          "velocity": 0.3700787401574803
        },
        {
          "duration": 0.0026041666666856145,
          "durationTicks": 2,
          "midi": 42,
          "name": "F#2",
          "ticks": 158066,
          "time": 205.81510416666666,
          "velocity": 0.49606299212598426
        },
        {
          "duration": 0.005208333333342807,
          "durationTicks": 4,
          "midi": 42,
          "name": "F#2",
          "ticks": 158162,
          "time": 205.94010416666666,
          "velocity": 0.3543307086614173
        },
        {
          "duration": 0.0078125,
          "durationTicks": 6,
          "midi": 51,
          "name": "D#3",
          "ticks": 158162,
          "time": 205.94010416666666,
          "velocity": 0.33858267716535434
        },
        {
          "duration": 0.010416666666685614,
          "durationTicks": 8,
          "midi": 51,
          "name": "D#3",
          "ticks": 158264,
          "time": 206.07291666666666,
          "velocity": 0.3700787401574803
        },
        {
          "duration": 0.010416666666685614,
          "durationTicks": 8,
          "midi": 42,
          "name": "F#2",
          "ticks": 158264,
          "time": 206.07291666666666,
          "velocity": 0.49606299212598426
        },
        {
          "duration": 0.0026041666666571928,
          "durationTicks": 2,
          "midi": 35,
          "name": "B1",
          "ticks": 158274,
          "time": 206.0859375,
          "velocity": 0.8346456692913385
        },
        {
          "duration": 0.0052083333333143855,
          "durationTicks": 4,
          "midi": 42,
          "name": "F#2",
          "ticks": 158356,
          "time": 206.19270833333334,
          "velocity": 0.3858267716535433
        },
        {
          "duration": 0.0052083333333143855,
          "durationTicks": 4,
          "midi": 51,
          "name": "D#3",
          "ticks": 158356,
          "time": 206.19270833333334,
          "velocity": 0.3464566929133858
        },
        {
          "duration": 0.013020833333314386,
          "durationTicks": 10,
          "midi": 51,
          "name": "D#3",
          "ticks": 158458,
          "time": 206.32552083333334,
          "velocity": 0.3937007874015748
        },
        {
          "duration": 0.0078125,
          "durationTicks": 6,
          "midi": 35,
          "name": "B1",
          "ticks": 158460,
          "time": 206.328125,
          "velocity": 0.8503937007874016
        },
        {
          "duration": 0.0078125,
          "durationTicks": 6,
          "midi": 42,
          "name": "F#2",
          "ticks": 158460,
          "time": 206.328125,
          "velocity": 0.5669291338582677
        },
        {
          "duration": 0.0078125,
          "durationTicks": 6,
          "midi": 38,
          "name": "D2",
          "ticks": 158656,
          "time": 206.58333333333334,
          "velocity": 0.984251968503937
        },
        {
          "duration": 0.005208333333342807,
          "durationTicks": 4,
          "midi": 42,
          "name": "F#2",
          "ticks": 158658,
          "time": 206.5859375,
          "velocity": 0.48031496062992124
        },
        {
          "duration": 0.0078125,
          "durationTicks": 6,
          "midi": 51,
          "name": "D#3",
          "ticks": 158658,
          "time": 206.5859375,
          "velocity": 0.3700787401574803
        },
        {
          "duration": 0.0078125,
          "durationTicks": 6,
          "midi": 40,
          "name": "E2",
          "ticks": 158658,
          "time": 206.5859375,
          "velocity": 0.905511811023622
        },
        {
          "duration": 0.013020833333342807,
          "durationTicks": 10,
          "midi": 49,
          "name": "C#3",
          "ticks": 158858,
          "time": 206.84635416666666,
          "velocity": 0.5196850393700787
        },
        {
          "duration": 0.013020833333314386,
          "durationTicks": 10,
          "midi": 51,
          "name": "D#3",
          "ticks": 158860,
          "time": 206.84895833333334,
          "velocity": 0.33070866141732286
        },
        {
          "duration": 0.013020833333314386,
          "durationTicks": 10,
          "midi": 52,
          "name": "E3",
          "ticks": 158860,
          "time": 206.84895833333334,
          "velocity": 0.49606299212598426
        },
        {
          "duration": 0.005208333333342807,
          "durationTicks": 4,
          "midi": 46,
          "name": "A#2",
          "ticks": 158862,
          "time": 206.8515625,
          "velocity": 0.5275590551181102
        },
        {
          "duration": 0.0078125,
          "durationTicks": 6,
          "midi": 35,
          "name": "B1",
          "ticks": 158870,
          "time": 206.86197916666666,
          "velocity": 0.8503937007874016
        },
        {
          "duration": 0.005208333333342807,
          "durationTicks": 4,
          "midi": 51,
          "name": "D#3",
          "ticks": 159050,
          "time": 207.09635416666666,
          "velocity": 0.31496062992125984
        },
        {
          "duration": 0.0026041666666571928,
          "durationTicks": 2,
          "midi": 42,
          "name": "F#2",
          "ticks": 159052,
          "time": 207.09895833333334,
          "velocity": 0.4330708661417323
        },
        {
          "duration": 0.010416666666657193,
          "durationTicks": 8,
          "midi": 51,
          "name": "D#3",
          "ticks": 159246,
          "time": 207.3515625,
          "velocity": 0.4015748031496063
        },
        {
          "duration": 0.0026041666666571928,
          "durationTicks": 2,
          "midi": 42,
          "name": "F#2",
          "ticks": 159250,
          "time": 207.35677083333334,
          "velocity": 0.5984251968503937
        },
        {
          "duration": 0.010416666666657193,
          "durationTicks": 8,
          "midi": 38,
          "name": "D2",
          "ticks": 159448,
          "time": 207.61458333333334,
          "velocity": 1
        },
        {
          "duration": 0.010416666666657193,
          "durationTicks": 8,
          "midi": 51,
          "name": "D#3",
          "ticks": 159450,
          "time": 207.6171875,
          "velocity": 0.4015748031496063
        },
        {
          "duration": 0.010416666666657193,
          "durationTicks": 8,
          "midi": 40,
          "name": "E2",
          "ticks": 159450,
          "time": 207.6171875,
          "velocity": 0.9212598425196851
        },
        {
          "duration": 0.005208333333342807,
          "durationTicks": 4,
          "midi": 42,
          "name": "F#2",
          "ticks": 159452,
          "time": 207.61979166666666,
          "velocity": 0.5905511811023622
        },
        {
          "duration": 0.0026041666666856145,
          "durationTicks": 2,
          "midi": 42,
          "name": "F#2",
          "ticks": 159548,
          "time": 207.74479166666666,
          "velocity": 0.4330708661417323
        },
        {
          "duration": 0.005208333333342807,
          "durationTicks": 4,
          "midi": 51,
          "name": "D#3",
          "ticks": 159548,
          "time": 207.74479166666666,
          "velocity": 0.36220472440944884
        },
        {
          "duration": 0.0026041666666571928,
          "durationTicks": 2,
          "midi": 51,
          "name": "D#3",
          "ticks": 159646,
          "time": 207.87239583333334,
          "velocity": 0.3464566929133858
        },
        {
          "duration": 0.0026041666666571928,
          "durationTicks": 2,
          "midi": 42,
          "name": "F#2",
          "ticks": 159648,
          "time": 207.875,
          "velocity": 0.3858267716535433
        },
        {
          "duration": 0.0026041666666571928,
          "durationTicks": 2,
          "midi": 51,
          "name": "D#3",
          "ticks": 159748,
          "time": 208.00520833333334,
          "velocity": 0.3464566929133858
        },
        {
          "duration": 0.0026041666666571928,
          "durationTicks": 2,
          "midi": 42,
          "name": "F#2",
          "ticks": 159748,
          "time": 208.00520833333334,
          "velocity": 0.3858267716535433
        },
        {
          "duration": 0.005208333333342807,
          "durationTicks": 4,
          "midi": 51,
          "name": "D#3",
          "ticks": 159852,
          "time": 208.140625,
          "velocity": 0.4015748031496063
        },
        {
          "duration": 0.0026041666666571928,
          "durationTicks": 2,
          "midi": 42,
          "name": "F#2",
          "ticks": 159852,
          "time": 208.140625,
          "velocity": 0.5905511811023622
        },
        {
          "duration": 0.010416666666657193,
          "durationTicks": 8,
          "midi": 35,
          "name": "B1",
          "ticks": 159856,
          "time": 208.14583333333334,
          "velocity": 0.8503937007874016
        },
        {
          "duration": 0.0078125,
          "durationTicks": 6,
          "midi": 51,
          "name": "D#3",
          "ticks": 160046,
          "time": 208.39322916666666,
          "velocity": 0.3937007874015748
        },
        {
          "duration": 0.0078125,
          "durationTicks": 6,
          "midi": 42,
          "name": "F#2",
          "ticks": 160046,
          "time": 208.39322916666666,
          "velocity": 0.5669291338582677
        },
        {
          "duration": 0.0052083333333143855,
          "durationTicks": 4,
          "midi": 35,
          "name": "B1",
          "ticks": 160048,
          "time": 208.39583333333334,
          "velocity": 0.8188976377952756
        },
        {
          "duration": 0.0078125,
          "durationTicks": 6,
          "midi": 40,
          "name": "E2",
          "ticks": 160240,
          "time": 208.64583333333334,
          "velocity": 0.9212598425196851
        },
        {
          "duration": 0.0078125,
          "durationTicks": 6,
          "midi": 38,
          "name": "D2",
          "ticks": 160240,
          "time": 208.64583333333334,
          "velocity": 1
        },
        {
          "duration": 0.0078125,
          "durationTicks": 6,
          "midi": 51,
          "name": "D#3",
          "ticks": 160242,
          "time": 208.6484375,
          "velocity": 0.36220472440944884
        },
        {
          "duration": 0.0026041666666856145,
          "durationTicks": 2,
          "midi": 42,
          "name": "F#2",
          "ticks": 160244,
          "time": 208.65104166666666,
          "velocity": 0.4645669291338583
        },
        {
          "duration": 0.005208333333342807,
          "durationTicks": 4,
          "midi": 42,
          "name": "F#2",
          "ticks": 160440,
          "time": 208.90625,
          "velocity": 0.5669291338582677
        },
        {
          "duration": 0.005208333333342807,
          "durationTicks": 4,
          "midi": 51,
          "name": "D#3",
          "ticks": 160440,
          "time": 208.90625,
          "velocity": 0.3937007874015748
        },
        {
          "duration": 0.005208333333342807,
          "durationTicks": 4,
          "midi": 42,
          "name": "F#2",
          "ticks": 160538,
          "time": 209.03385416666666,
          "velocity": 0.33858267716535434
        },
        {
          "duration": 0.0078125,
          "durationTicks": 6,
          "midi": 51,
          "name": "D#3",
          "ticks": 160538,
          "time": 209.03385416666666,
          "velocity": 0.33070866141732286
        },
        {
          "duration": 0.0052083333333143855,
          "durationTicks": 4,
          "midi": 42,
          "name": "F#2",
          "ticks": 160642,
          "time": 209.16927083333334,
          "velocity": 0.5118110236220472
        },
        {
          "duration": 0.0078125,
          "durationTicks": 6,
          "midi": 51,
          "name": "D#3",
          "ticks": 160642,
          "time": 209.16927083333334,
          "velocity": 0.3779527559055118
        },
        {
          "duration": 0.0078125,
          "durationTicks": 6,
          "midi": 35,
          "name": "B1",
          "ticks": 160648,
          "time": 209.17708333333334,
          "velocity": 0.8188976377952756
        },
        {
          "duration": 0.0026041666666571928,
          "durationTicks": 2,
          "midi": 51,
          "name": "D#3",
          "ticks": 160732,
          "time": 209.28645833333334,
          "velocity": 0.33070866141732286
        },
        {
          "duration": 0.0026041666666571928,
          "durationTicks": 2,
          "midi": 42,
          "name": "F#2",
          "ticks": 160734,
          "time": 209.2890625,
          "velocity": 0.33858267716535434
        },
        {
          "duration": 0.0078125,
          "durationTicks": 6,
          "midi": 51,
          "name": "D#3",
          "ticks": 160836,
          "time": 209.421875,
          "velocity": 0.3858267716535433
        },
        {
          "duration": 0.0026041666666856145,
          "durationTicks": 2,
          "midi": 42,
          "name": "F#2",
          "ticks": 160838,
          "time": 209.42447916666666,
          "velocity": 0.5275590551181102
        },
        {
          "duration": 0.0026041666666856145,
          "durationTicks": 2,
          "midi": 35,
          "name": "B1",
          "ticks": 160844,
          "time": 209.43229166666666,
          "velocity": 0.8503937007874016
        },
        {
          "duration": 0.0078125,
          "durationTicks": 6,
          "midi": 51,
          "name": "D#3",
          "ticks": 161028,
          "time": 209.671875,
          "velocity": 0.3779527559055118
        },
        {
          "duration": 0.0026041666666856145,
          "durationTicks": 2,
          "midi": 42,
          "name": "F#2",
          "ticks": 161030,
          "time": 209.67447916666666,
          "velocity": 0.5118110236220472
        },
        {
          "duration": 0.0026041666666571928,
          "durationTicks": 2,
          "midi": 38,
          "name": "D2",
          "ticks": 161034,
          "time": 209.6796875,
          "velocity": 0.984251968503937
        },
        {
          "duration": 0.0078125,
          "durationTicks": 6,
          "midi": 27,
          "name": "D#1",
          "ticks": 161234,
          "time": 209.94010416666666,
          "velocity": 0.9448818897637795
        },
        {
          "duration": 0.0078125,
          "durationTicks": 6,
          "midi": 38,
          "name": "D2",
          "ticks": 161234,
          "time": 209.94010416666666,
          "velocity": 0.9763779527559056
        },
        {
          "duration": 0.0052083333333143855,
          "durationTicks": 4,
          "midi": 55,
          "name": "G3",
          "ticks": 161236,
          "time": 209.94270833333334,
          "velocity": 0.18110236220472442
        },
        {
          "duration": 0.0026041666666571928,
          "durationTicks": 2,
          "midi": 51,
          "name": "D#3",
          "ticks": 161242,
          "time": 209.95052083333334,
          "velocity": 0.3937007874015748
        },
        {
          "duration": 0.0026041666666571928,
          "durationTicks": 2,
          "midi": 42,
          "name": "F#2",
          "ticks": 161244,
          "time": 209.953125,
          "velocity": 0.5669291338582677
        },
        {
          "duration": 0.010416666666657193,
          "durationTicks": 8,
          "midi": 38,
          "name": "D2",
          "ticks": 161332,
          "time": 210.06770833333334,
          "velocity": 0.44881889763779526
        },
        {
          "duration": 0.005208333333342807,
          "durationTicks": 4,
          "midi": 27,
          "name": "D#1",
          "ticks": 161334,
          "time": 210.0703125,
          "velocity": 0.5118110236220472
        },
        {
          "duration": 0.005208333333342807,
          "durationTicks": 4,
          "midi": 55,
          "name": "G3",
          "ticks": 161340,
          "time": 210.078125,
          "velocity": 0.18110236220472442
        },
        {
          "duration": 0.005208333333342807,
          "durationTicks": 4,
          "midi": 51,
          "name": "D#3",
          "ticks": 161340,
          "time": 210.078125,
          "velocity": 0.33070866141732286
        },
        {
          "duration": 0.0026041666666856145,
          "durationTicks": 2,
          "midi": 42,
          "name": "F#2",
          "ticks": 161342,
          "time": 210.08072916666666,
          "velocity": 0.3228346456692913
        },
        {
          "duration": 0.0078125,
          "durationTicks": 6,
          "midi": 51,
          "name": "D#3",
          "ticks": 161438,
          "time": 210.20572916666666,
          "velocity": 0.4015748031496063
        },
        {
          "duration": 0.0026041666666571928,
          "durationTicks": 2,
          "midi": 42,
          "name": "F#2",
          "ticks": 161440,
          "time": 210.20833333333334,
          "velocity": 0.5826771653543307
        },
        {
          "duration": 0.0026041666666571928,
          "durationTicks": 2,
          "midi": 35,
          "name": "B1",
          "ticks": 161440,
          "time": 210.20833333333334,
          "velocity": 0.8346456692913385
        },
        {
          "duration": 0.0078125,
          "durationTicks": 6,
          "midi": 27,
          "name": "D#1",
          "ticks": 161526,
          "time": 210.3203125,
          "velocity": 0.6929133858267716
        },
        {
          "duration": 0.0026041666666856145,
          "durationTicks": 2,
          "midi": 38,
          "name": "D2",
          "ticks": 161528,
          "time": 210.32291666666666,
          "velocity": 0.7716535433070866
        },
        {
          "duration": 0.0026041666666571928,
          "durationTicks": 2,
          "midi": 55,
          "name": "G3",
          "ticks": 161532,
          "time": 210.328125,
          "velocity": 0.18110236220472442
        },
        {
          "duration": 0.005208333333342807,
          "durationTicks": 4,
          "midi": 38,
          "name": "D2",
          "ticks": 161630,
          "time": 210.45572916666666,
          "velocity": 0.952755905511811
        },
        {
          "duration": 0.0078125,
          "durationTicks": 6,
          "midi": 27,
          "name": "D#1",
          "ticks": 161630,
          "time": 210.45572916666666,
          "velocity": 0.8503937007874016
        },
        {
          "duration": 0.0026041666666856145,
          "durationTicks": 2,
          "midi": 35,
          "name": "B1",
          "ticks": 161636,
          "time": 210.46354166666666,
          "velocity": 0.8346456692913385
        },
        {
          "duration": 0.005208333333342807,
          "durationTicks": 4,
          "midi": 42,
          "name": "F#2",
          "ticks": 161636,
          "time": 210.46354166666666,
          "velocity": 0.4330708661417323
        },
        {
          "duration": 0.005208333333342807,
          "durationTicks": 4,
          "midi": 51,
          "name": "D#3",
          "ticks": 161636,
          "time": 210.46354166666666,
          "velocity": 0.36220472440944884
        },
        {
          "duration": 0.0026041666666856145,
          "durationTicks": 2,
          "midi": 55,
          "name": "G3",
          "ticks": 161726,
          "time": 210.58072916666666,
          "velocity": 0.18110236220472442
        },
        {
          "duration": 0.005208333333342807,
          "durationTicks": 4,
          "midi": 41,
          "name": "F2",
          "ticks": 161726,
          "time": 210.58072916666666,
          "velocity": 0.5354330708661418
        },
        {
          "duration": 0.0078125,
          "durationTicks": 6,
          "midi": 27,
          "name": "D#1",
          "ticks": 161828,
          "time": 210.71354166666666,
          "velocity": 0.9606299212598425
        },
        {
          "duration": 0.0078125,
          "durationTicks": 6,
          "midi": 38,
          "name": "D2",
          "ticks": 161828,
          "time": 210.71354166666666,
          "velocity": 0.9921259842519685
        },
        {
          "duration": 0.0052083333333143855,
          "durationTicks": 4,
          "midi": 55,
          "name": "G3",
          "ticks": 161836,
          "time": 210.72395833333334,
          "velocity": 0.18110236220472442
        },
        {
          "duration": 0.0026041666666571928,
          "durationTicks": 2,
          "midi": 51,
          "name": "D#3",
          "ticks": 161836,
          "time": 210.72395833333334,
          "velocity": 0.4015748031496063
        },
        {
          "duration": 0.0026041666666571928,
          "durationTicks": 2,
          "midi": 42,
          "name": "F#2",
          "ticks": 161836,
          "time": 210.72395833333334,
          "velocity": 0.5826771653543307
        },
        {
          "duration": 0.010416666666685614,
          "durationTicks": 8,
          "midi": 35,
          "name": "B1",
          "ticks": 162032,
          "time": 210.97916666666666,
          "velocity": 0.8503937007874016
        },
        {
          "duration": 0.015625,
          "durationTicks": 12,
          "midi": 49,
          "name": "C#3",
          "ticks": 162040,
          "time": 210.98958333333334,
          "velocity": 0.5984251968503937
        },
        {
          "duration": 0.013020833333342807,
          "durationTicks": 10,
          "midi": 52,
          "name": "E3",
          "ticks": 162042,
          "time": 210.9921875,
          "velocity": 0.5748031496062992
        },
        {
          "duration": 0.013020833333342807,
          "durationTicks": 10,
          "midi": 41,
          "name": "F2",
          "ticks": 162042,
          "time": 210.9921875,
          "velocity": 0.6141732283464567
        },
        {
          "duration": 0.013020833333342807,
          "durationTicks": 10,
          "midi": 51,
          "name": "D#3",
          "ticks": 162044,
          "time": 210.99479166666666,
          "velocity": 0.33070866141732286
        },
        {
          "duration": 0.0078125,
          "durationTicks": 6,
          "midi": 46,
          "name": "A#2",
          "ticks": 162044,
          "time": 210.99479166666666,
          "velocity": 0.5118110236220472
        }
      ],
      "endOfTrackTicks": 162548
    },
    {
      "channel": 10,
      "controlChanges": {
        "7": [
          {
            "number": 7,
            "ticks": 1536,
            "time": 2,
            "value": 1
          }
        ],
        "10": [
          {
            "number": 10,
            "ticks": 1536,
            "time": 2,
            "value": 0.6062992125984252
          }
        ]
      },
      "pitchBends": [
        {
          "ticks": 162364,
          "time": 211.41145833333334,
          "value": 0
        }
      ],
      "instrument": {
        "family": "brass",
        "number": 61,
        "name": "brass section"
      },
      "name": "BRASS 1",
      "notes": [
        {
          "duration": 0.04947916666665719,
          "durationTicks": 38,
          "midi": 79,
          "name": "G5",
          "ticks": 112512,
          "time": 146.5,
          "velocity": 0.937007874015748
        },
        {
          "duration": 0.046875,
          "durationTicks": 36,
          "midi": 67,
          "name": "G4",
          "ticks": 112512,
          "time": 146.5,
          "velocity": 0.8818897637795275
        },
        {
          "duration": 0.09114583333334281,
          "durationTicks": 70,
          "midi": 67,
          "name": "G4",
          "ticks": 112602,
          "time": 146.6171875,
          "velocity": 0.84251968503937
        },
        {
          "duration": 0.09375,
          "durationTicks": 72,
          "midi": 79,
          "name": "G5",
          "ticks": 112602,
          "time": 146.6171875,
          "velocity": 0.8976377952755905
        },
        {
          "duration": 0.09114583333331439,
          "durationTicks": 70,
          "midi": 67,
          "name": "G4",
          "ticks": 112798,
          "time": 146.87239583333334,
          "velocity": 0.889763779527559
        },
        {
          "duration": 0.09114583333331439,
          "durationTicks": 70,
          "midi": 79,
          "name": "G5",
          "ticks": 112798,
          "time": 146.87239583333334,
          "velocity": 0.9448818897637795
        },
        {
          "duration": 0.08854166666668561,
          "durationTicks": 68,
          "midi": 81,
          "name": "A5",
          "ticks": 112898,
          "time": 147.00260416666666,
          "velocity": 0.9448818897637795
        },
        {
          "duration": 0.08333333333331439,
          "durationTicks": 64,
          "midi": 69,
          "name": "A4",
          "ticks": 112900,
          "time": 147.00520833333334,
          "velocity": 0.889763779527559
        },
        {
          "duration": 0.05729166666665719,
          "durationTicks": 44,
          "midi": 67,
          "name": "G4",
          "ticks": 115674,
          "time": 150.6171875,
          "velocity": 0.8740157480314961
        },
        {
          "duration": 0.05989583333334281,
          "durationTicks": 46,
          "midi": 79,
          "name": "G5",
          "ticks": 115674,
          "time": 150.6171875,
          "velocity": 0.9291338582677166
        },
        {
          "duration": 0.10416666666665719,
          "durationTicks": 80,
          "midi": 79,
          "name": "G5",
          "ticks": 115768,
          "time": 150.73958333333334,
          "velocity": 0.8503937007874016
        },
        {
          "duration": 0.09895833333334281,
          "durationTicks": 76,
          "midi": 67,
          "name": "G4",
          "ticks": 115770,
          "time": 150.7421875,
          "velocity": 0.7952755905511811
        },
        {
          "duration": 0.09895833333331439,
          "durationTicks": 76,
          "midi": 67,
          "name": "G4",
          "ticks": 115966,
          "time": 150.99739583333334,
          "velocity": 0.889763779527559
        },
        {
          "duration": 0.09895833333331439,
          "durationTicks": 76,
          "midi": 79,
          "name": "G5",
          "ticks": 115966,
          "time": 150.99739583333334,
          "velocity": 0.9448818897637795
        },
        {
          "duration": 0.09375,
          "durationTicks": 72,
          "midi": 81,
          "name": "A5",
          "ticks": 116068,
          "time": 151.13020833333334,
          "velocity": 0.9448818897637795
        },
        {
          "duration": 0.09114583333334281,
          "durationTicks": 70,
          "midi": 69,
          "name": "A4",
          "ticks": 116070,
          "time": 151.1328125,
          "velocity": 0.889763779527559
        },
        {
          "duration": 0.049479166666685614,
          "durationTicks": 38,
          "midi": 79,
          "name": "G5",
          "ticks": 116474,
          "time": 151.65885416666666,
          "velocity": 0.937007874015748
        },
        {
          "duration": 0.046875,
          "durationTicks": 36,
          "midi": 67,
          "name": "G4",
          "ticks": 116476,
          "time": 151.66145833333334,
          "velocity": 0.8818897637795275
        },
        {
          "duration": 0.0703125,
          "durationTicks": 54,
          "midi": 79,
          "name": "G5",
          "ticks": 116568,
          "time": 151.78125,
          "velocity": 0.8976377952755905
        },
        {
          "duration": 0.0703125,
          "durationTicks": 54,
          "midi": 67,
          "name": "G4",
          "ticks": 116568,
          "time": 151.78125,
          "velocity": 0.84251968503937
        },
        {
          "duration": 0.05989583333334281,
          "durationTicks": 46,
          "midi": 79,
          "name": "G5",
          "ticks": 116768,
          "time": 152.04166666666666,
          "velocity": 0.9448818897637795
        },
        {
          "duration": 0.05729166666665719,
          "durationTicks": 44,
          "midi": 67,
          "name": "G4",
          "ticks": 116770,
          "time": 152.04427083333334,
          "velocity": 0.889763779527559
        },
        {
          "duration": 0.05729166666665719,
          "durationTicks": 44,
          "midi": 81,
          "name": "A5",
          "ticks": 116868,
          "time": 152.171875,
          "velocity": 0.9448818897637795
        },
        {
          "duration": 0.05208333333334281,
          "durationTicks": 40,
          "midi": 69,
          "name": "A4",
          "ticks": 116870,
          "time": 152.17447916666666,
          "velocity": 0.889763779527559
        },
        {
          "duration": 0.05729166666665719,
          "durationTicks": 44,
          "midi": 72,
          "name": "C5",
          "ticks": 116958,
          "time": 152.2890625,
          "velocity": 0.8267716535433071
        },
        {
          "duration": 0.05729166666665719,
          "durationTicks": 44,
          "midi": 84,
          "name": "C6",
          "ticks": 116958,
          "time": 152.2890625,
          "velocity": 0.8818897637795275
        },
        {
          "duration": 0.05989583333334281,
          "durationTicks": 46,
          "midi": 86,
          "name": "D6",
          "ticks": 117074,
          "time": 152.44010416666666,
          "velocity": 0.952755905511811
        },
        {
          "duration": 0.05989583333334281,
          "durationTicks": 46,
          "midi": 74,
          "name": "D5",
          "ticks": 117074,
          "time": 152.44010416666666,
          "velocity": 0.8976377952755905
        },
        {
          "duration": 0.0625,
          "durationTicks": 48,
          "midi": 84,
          "name": "C6",
          "ticks": 117158,
          "time": 152.54947916666666,
          "velocity": 0.9133858267716536
        },
        {
          "duration": 0.059895833333314386,
          "durationTicks": 46,
          "midi": 72,
          "name": "C5",
          "ticks": 117160,
          "time": 152.55208333333334,
          "velocity": 0.8582677165354331
        },
        {
          "duration": 0.08333333333334281,
          "durationTicks": 64,
          "midi": 83,
          "name": "B5",
          "ticks": 117260,
          "time": 152.68229166666666,
          "velocity": 0.9212598425196851
        },
        {
          "duration": 0.078125,
          "durationTicks": 60,
          "midi": 71,
          "name": "B4",
          "ticks": 117262,
          "time": 152.68489583333334,
          "velocity": 0.8661417322834646
        },
        {
          "duration": 0.05989583333334281,
          "durationTicks": 46,
          "midi": 81,
          "name": "A5",
          "ticks": 117356,
          "time": 152.80729166666666,
          "velocity": 0.8031496062992126
        },
        {
          "duration": 0.05989583333334281,
          "durationTicks": 46,
          "midi": 69,
          "name": "A4",
          "ticks": 117356,
          "time": 152.80729166666666,
          "velocity": 0.7480314960629921
        },
        {
          "duration": 0.08333333333334281,
          "durationTicks": 64,
          "midi": 79,
          "name": "G5",
          "ticks": 117468,
          "time": 152.953125,
          "velocity": 0.937007874015748
        },
        {
          "duration": 0.08333333333334281,
          "durationTicks": 64,
          "midi": 67,
          "name": "G4",
          "ticks": 117468,
          "time": 152.953125,
          "velocity": 0.8818897637795275
        },
        {
          "duration": 0.08854166666665719,
          "durationTicks": 68,
          "midi": 76,
          "name": "E5",
          "ticks": 117550,
          "time": 153.05989583333334,
          "velocity": 0.9212598425196851
        },
        {
          "duration": 0.08333333333334281,
          "durationTicks": 64,
          "midi": 64,
          "name": "E4",
          "ticks": 117552,
          "time": 153.0625,
          "velocity": 0.8661417322834646
        },
        {
          "duration": 0.06510416666668561,
          "durationTicks": 50,
          "midi": 83,
          "name": "B5",
          "ticks": 117662,
          "time": 153.20572916666666,
          "velocity": 0.9448818897637795
        },
        {
          "duration": 0.06510416666668561,
          "durationTicks": 50,
          "midi": 71,
          "name": "B4",
          "ticks": 117662,
          "time": 153.20572916666666,
          "velocity": 0.889763779527559
        },
        {
          "duration": 0.09635416666665719,
          "durationTicks": 74,
          "midi": 81,
          "name": "A5",
          "ticks": 117750,
          "time": 153.3203125,
          "velocity": 0.9763779527559056
        },
        {
          "duration": 0.09114583333334281,
          "durationTicks": 70,
          "midi": 69,
          "name": "A4",
          "ticks": 117752,
          "time": 153.32291666666666,
          "velocity": 0.9212598425196851
        }
      ],
      "endOfTrackTicks": 162556
    },
    {
      "channel": 0,
      "controlChanges": {},
      "pitchBends": [],
      "instrument": {
        "family": "piano",
        "number": 0,
        "name": "acoustic grand piano"
      },
      "name": "GS/RESET",
      "notes": [],
      "endOfTrackTicks": 6144
    }
  ]
}
