{
  "header": {
    "keySignatures": [],
    "meta": [],
    "name": "",
    "ppq": 43,
    "tempos": [
      {
        "bpm": 120,
        "ticks": 0
      }
    ],
    "timeSignatures": []
  },
  "tracks": [
    {
      "channel": 0,
      "controlChanges": {},
      "pitchBends": [],
      "instrument": {
        "family": "piano",
        "number": 0,
        "name": "acoustic grand piano"
      },
      "name": "",
      "notes": [
        {
          "duration": 0.011627906976744186,
          "durationTicks": 1,
          "midi": 41,
          "name": "F2",
          "ticks": 0,
          "time": 0,
          "velocity": 0.5669291338582677
        },
        {
          "duration": 0.011627906976744186,
          "durationTicks": 1,
          "midi": 50,
          "name": "D3",
          "ticks": 0,
          "time": 0,
          "velocity": 0.5275590551181102
        },
        {
          "duration": 0.011627906976744186,
          "durationTicks": 1,
          "midi": 62,
          "name": "D4",
          "ticks": 0,
          "time": 0,
          "velocity": 0.5669291338582677
        },
        {
          "duration": 0.10465116279069768,
          "durationTicks": 9,
          "midi": 66,
          "name": "F#4",
          "ticks": 0,
          "time": 0,
          "velocity": 0.3543307086614173
        },
        {
          "duration": 0.05813953488372093,
          "durationTicks": 5,
          "midi": 70,
          "name": "A#4",
          "ticks": 0,
          "time": 0,
          "velocity": 0.14960629921259844
        },
        {
          "duration": 0.011627906976744186,
          "durationTicks": 1,
          "midi": 53,
          "name": "F3",
          "ticks": 1,
          "time": 0.011627906976744186,
          "velocity": 0.5669291338582677
        },
        {
          "duration": 0.08139534883720931,
          "durationTicks": 7,
          "midi": 63,
          "name": "D#4",
          "ticks": 1,
          "time": 0.011627906976744186,
          "velocity": 0.5275590551181102
        },
        {
          "duration": 0.046511627906976744,
          "durationTicks": 4,
          "midi": 73,
          "name": "C#5",
          "ticks": 1,
          "time": 0.011627906976744186,
          "velocity": 0.11811023622047244
        },
        {
          "duration": 0.011627906976744186,
          "durationTicks": 1,
          "midi": 44,
          "name": "G#2",
          "ticks": 2,
          "time": 0.023255813953488372,
          "velocity": 0.5354330708661418
        },
        {
          "duration": 0.023255813953488372,
          "durationTicks": 2,
          "midi": 51,
          "name": "D#3",
          "ticks": 2,
          "time": 0.023255813953488372,
          "velocity": 0.49606299212598426
        },
        {
          "duration": 0.023255813953488372,
          "durationTicks": 2,
          "midi": 54,
          "name": "F#3",
          "ticks": 2,
          "time": 0.023255813953488372,
          "velocity": 0.4409448818897638
        },
        {
          "duration": 0.011627906976744186,
          "durationTicks": 1,
          "midi": 42,
          "name": "F#2",
          "ticks": 3,
          "time": 0.03488372093023256,
          "velocity": 0.6141732283464567
        },
        {
          "duration": 0.046511627906976744,
          "durationTicks": 4,
          "midi": 41,
          "name": "F2",
          "ticks": 4,
          "time": 0.046511627906976744,
          "velocity": 0.6220472440944882
        },
        {
          "duration": 0.02325581395348838,
          "durationTicks": 2,
          "midi": 51,
          "name": "D#3",
          "ticks": 5,
          "time": 0.05813953488372093,
          "velocity": 0.3464566929133858
        },
        {
          "duration": 0.034883720930232565,
          "durationTicks": 3,
          "midi": 40,
          "name": "E2",
          "ticks": 8,
          "time": 0.09302325581395349,
          "velocity": 0.3464566929133858
        },
        {
          "duration": 0.10465116279069768,
          "durationTicks": 9,
          "midi": 64,
          "name": "E4",
          "ticks": 9,
          "time": 0.10465116279069768,
          "velocity": 0.33070866141732286
        },
        {
          "duration": 0.034883720930232565,
          "durationTicks": 3,
          "midi": 40,
          "name": "E2",
          "ticks": 16,
          "time": 0.18604651162790697,
          "velocity": 0.25984251968503935
        },
        {
          "duration": 0.11627906976744187,
          "durationTicks": 10,
          "midi": 61,
          "name": "C#4",
          "ticks": 18,
          "time": 0.20930232558139536,
          "velocity": 0.36220472440944884
        },
        {
          "duration": 0.023255813953488358,
          "durationTicks": 2,
          "midi": 37,
          "name": "C#2",
          "ticks": 19,
          "time": 0.22093023255813954,
          "velocity": 0.30708661417322836
        },
        {
          "duration": 0.12790697674418605,
          "durationTicks": 11,
          "midi": 80,
          "name": "G#5",
          "ticks": 19,
          "time": 0.22093023255813954,
          "velocity": 0.25984251968503935
        },
        {
          "duration": 0.034883720930232565,
          "durationTicks": 3,
          "midi": 40,
          "name": "E2",
          "ticks": 23,
          "time": 0.26744186046511625,
          "velocity": 0.1968503937007874
        },
        {
          "duration": 0.3023255813953488,
          "durationTicks": 26,
          "midi": 63,
          "name": "D#4",
          "ticks": 28,
          "time": 0.32558139534883723,
          "velocity": 0.6299212598425197
        },
        {
          "duration": 0.1395348837209302,
          "durationTicks": 12,
          "midi": 78,
          "name": "F#5",
          "ticks": 28,
          "time": 0.32558139534883723,
          "velocity": 0.2283464566929134
        },
        {
          "duration": 0.1046511627906977,
          "durationTicks": 9,
          "midi": 59,
          "name": "B3",
          "ticks": 29,
          "time": 0.3372093023255814,
          "velocity": 0.48031496062992124
        },
        {
          "duration": 0.023255813953488358,
          "durationTicks": 2,
          "midi": 69,
          "name": "A4",
          "ticks": 38,
          "time": 0.4418604651162791,
          "velocity": 0.33858267716535434
        },
        {
          "duration": 0.011627906976744207,
          "durationTicks": 1,
          "midi": 35,
          "name": "B1",
          "ticks": 39,
          "time": 0.45348837209302323,
          "velocity": 0.6141732283464567
        },
        {
          "duration": 0.023255813953488413,
          "durationTicks": 2,
          "midi": 50,
          "name": "D3",
          "ticks": 39,
          "time": 0.45348837209302323,
          "velocity": 0.5118110236220472
        },
        {
          "duration": 0.06976744186046518,
          "durationTicks": 6,
          "midi": 73,
          "name": "C#5",
          "ticks": 39,
          "time": 0.45348837209302323,
          "velocity": 0.18110236220472442
        },
        {
          "duration": 0.011627906976744207,
          "durationTicks": 1,
          "midi": 40,
          "name": "E2",
          "ticks": 40,
          "time": 0.46511627906976744,
          "velocity": 0.5826771653543307
        },
        {
          "duration": 0.1511627906976744,
          "durationTicks": 13,
          "midi": 58,
          "name": "A#3",
          "ticks": 40,
          "time": 0.46511627906976744,
          "velocity": 0.4645669291338583
        },
        {
          "duration": 0.011627906976744151,
          "durationTicks": 1,
          "midi": 52,
          "name": "E3",
          "ticks": 41,
          "time": 0.47674418604651164,
          "velocity": 0.5590551181102362
        },
        {
          "duration": 0.011627906976744207,
          "durationTicks": 1,
          "midi": 44,
          "name": "G#2",
          "ticks": 42,
          "time": 0.4883720930232558,
          "velocity": 0.5196850393700787
        },
        {
          "duration": 0.011627906976744207,
          "durationTicks": 1,
          "midi": 42,
          "name": "F#2",
          "ticks": 43,
          "time": 0.5,
          "velocity": 0.5984251968503937
        },
        {
          "duration": 0.05813953488372092,
          "durationTicks": 5,
          "midi": 41,
          "name": "F2",
          "ticks": 44,
          "time": 0.5116279069767442,
          "velocity": 0.5984251968503937
        },
        {
          "duration": 0.03488372093023262,
          "durationTicks": 3,
          "midi": 76,
          "name": "E5",
          "ticks": 57,
          "time": 0.6627906976744186,
          "velocity": 0.2204724409448819
        },
        {
          "duration": 0.03488372093023262,
          "durationTicks": 3,
          "midi": 79,
          "name": "G5",
          "ticks": 57,
          "time": 0.6627906976744186,
          "velocity": 0.2125984251968504
        },
        {
          "duration": 0.023255813953488413,
          "durationTicks": 2,
          "midi": 29,
          "name": "F1",
          "ticks": 58,
          "time": 0.6744186046511628,
          "velocity": 0.41732283464566927
        },
        {
          "duration": 0.17441860465116277,
          "durationTicks": 15,
          "midi": 63,
          "name": "D#4",
          "ticks": 58,
          "time": 0.6744186046511628,
          "velocity": 0.6299212598425197
        },
        {
          "duration": 0.03488372093023262,
          "durationTicks": 3,
          "midi": 83,
          "name": "B5",
          "ticks": 58,
          "time": 0.6744186046511628,
          "velocity": 0.13385826771653545
        },
        {
          "duration": 0.011627906976744207,
          "durationTicks": 1,
          "midi": 48,
          "name": "C3",
          "ticks": 59,
          "time": 0.686046511627907,
          "velocity": 0.5433070866141733
        },
        {
          "duration": 0.16279069767441856,
          "durationTicks": 14,
          "midi": 55,
          "name": "G3",
          "ticks": 59,
          "time": 0.686046511627907,
          "velocity": 0.5118110236220472
        },
        {
          "duration": 0.06976744186046513,
          "durationTicks": 6,
          "midi": 80,
          "name": "G#5",
          "ticks": 59,
          "time": 0.686046511627907,
          "velocity": 0.1889763779527559
        },
        {
          "duration": 0.11627906976744184,
          "durationTicks": 10,
          "midi": 49,
          "name": "C#3",
          "ticks": 60,
          "time": 0.6976744186046512,
          "velocity": 0.5511811023622047
        },
        {
          "duration": 0.046511627906976716,
          "durationTicks": 4,
          "midi": 86,
          "name": "D6",
          "ticks": 60,
          "time": 0.6976744186046512,
          "velocity": 0.07086614173228346
        },
        {
          "duration": 0.011627906976744207,
          "durationTicks": 1,
          "midi": 35,
          "name": "B1",
          "ticks": 78,
          "time": 0.9069767441860465,
          "velocity": 0.5511811023622047
        },
        {
          "duration": 0.011627906976744207,
          "durationTicks": 1,
          "midi": 64,
          "name": "E4",
          "ticks": 78,
          "time": 0.9069767441860465,
          "velocity": 0.5354330708661418
        },
        {
          "duration": 0.08139534883720934,
          "durationTicks": 7,
          "midi": 73,
          "name": "C#5",
          "ticks": 78,
          "time": 0.9069767441860465,
          "velocity": 0.2204724409448819
        },
        {
          "duration": 0.011627906976744207,
          "durationTicks": 1,
          "midi": 40,
          "name": "E2",
          "ticks": 79,
          "time": 0.9186046511627907,
          "velocity": 0.6220472440944882
        },
        {
          "duration": 0.023255813953488413,
          "durationTicks": 2,
          "midi": 50,
          "name": "D3",
          "ticks": 79,
          "time": 0.9186046511627907,
          "velocity": 0.5354330708661418
        },
        {
          "duration": 0.13953488372093037,
          "durationTicks": 12,
          "midi": 63,
          "name": "D#4",
          "ticks": 79,
          "time": 0.9186046511627907,
          "velocity": 0.5748031496062992
        },
        {
          "duration": 0.06976744186046513,
          "durationTicks": 6,
          "midi": 70,
          "name": "A#4",
          "ticks": 79,
          "time": 0.9186046511627907,
          "velocity": 0.2283464566929134
        },
        {
          "duration": 0.011627906976744207,
          "durationTicks": 1,
          "midi": 41,
          "name": "F2",
          "ticks": 80,
          "time": 0.9302325581395349,
          "velocity": 0.5669291338582677
        },
        {
          "duration": 0.011627906976744207,
          "durationTicks": 1,
          "midi": 53,
          "name": "F3",
          "ticks": 81,
          "time": 0.9418604651162791,
          "velocity": 0.5748031496062992
        },
        {
          "duration": 0.011627906976744207,
          "durationTicks": 1,
          "midi": 44,
          "name": "G#2",
          "ticks": 82,
          "time": 0.9534883720930233,
          "velocity": 0.5590551181102362
        },
        {
          "duration": 0.023255813953488302,
          "durationTicks": 2,
          "midi": 51,
          "name": "D#3",
          "ticks": 82,
          "time": 0.9534883720930233,
          "velocity": 0.5039370078740157
        },
        {
          "duration": 0.05813953488372092,
          "durationTicks": 5,
          "midi": 41,
          "name": "F2",
          "ticks": 83,
          "time": 0.9651162790697675,
          "velocity": 0.6220472440944882
        },
        {
          "duration": 0.06976744186046502,
          "durationTicks": 6,
          "midi": 73,
          "name": "C#5",
          "ticks": 97,
          "time": 1.127906976744186,
          "velocity": 0.23622047244094488
        },
        {
          "duration": 0.08139534883720922,
          "durationTicks": 7,
          "midi": 80,
          "name": "G#5",
          "ticks": 97,
          "time": 1.127906976744186,
          "velocity": 0.2283464566929134
        },
        {
          "duration": 0.023255813953488413,
          "durationTicks": 2,
          "midi": 29,
          "name": "F1",
          "ticks": 98,
          "time": 1.1395348837209303,
          "velocity": 0.41732283464566927
        },
        {
          "duration": 0.011627906976744207,
          "durationTicks": 1,
          "midi": 47,
          "name": "B2",
          "ticks": 98,
          "time": 1.1395348837209303,
          "velocity": 0.5354330708661418
        },
        {
          "duration": 0.023255813953488413,
          "durationTicks": 2,
          "midi": 55,
          "name": "G3",
          "ticks": 98,
          "time": 1.1395348837209303,
          "velocity": 0.5275590551181102
        },
        {
          "duration": 0.11627906976744184,
          "durationTicks": 10,
          "midi": 65,
          "name": "F4",
          "ticks": 98,
          "time": 1.1395348837209303,
          "velocity": 0.6377952755905512
        },
        {
          "duration": 0.011627906976744207,
          "durationTicks": 1,
          "midi": 48,
          "name": "C3",
          "ticks": 99,
          "time": 1.1511627906976745,
          "velocity": 0.5905511811023622
        },
        {
          "duration": 0.09302325581395343,
          "durationTicks": 8,
          "midi": 61,
          "name": "C#4",
          "ticks": 99,
          "time": 1.1511627906976745,
          "velocity": 0.4409448818897638
        },
        {
          "duration": 0.10465116279069764,
          "durationTicks": 9,
          "midi": 49,
          "name": "C#3",
          "ticks": 100,
          "time": 1.1627906976744187,
          "velocity": 0.5984251968503937
        },
        {
          "duration": 0.011627906976744207,
          "durationTicks": 1,
          "midi": 54,
          "name": "F#3",
          "ticks": 100,
          "time": 1.1627906976744187,
          "velocity": 0.5354330708661418
        },
        {
          "duration": 0.011627906976743985,
          "durationTicks": 1,
          "midi": 54,
          "name": "F#3",
          "ticks": 102,
          "time": 1.186046511627907,
          "velocity": 0.5118110236220472
        },
        {
          "duration": 0.15116279069767447,
          "durationTicks": 13,
          "midi": 63,
          "name": "D#4",
          "ticks": 108,
          "time": 1.255813953488372,
          "velocity": 0.6220472440944882
        },
        {
          "duration": 0.06976744186046524,
          "durationTicks": 6,
          "midi": 79,
          "name": "G5",
          "ticks": 117,
          "time": 1.3604651162790697,
          "velocity": 0.1968503937007874
        },
        {
          "duration": 0.09302325581395343,
          "durationTicks": 8,
          "midi": 82,
          "name": "A#5",
          "ticks": 117,
          "time": 1.3604651162790697,
          "velocity": 0.25984251968503935
        },
        {
          "duration": 0.011627906976744207,
          "durationTicks": 1,
          "midi": 35,
          "name": "B1",
          "ticks": 118,
          "time": 1.372093023255814,
          "velocity": 0.6377952755905512
        },
        {
          "duration": 0.023255813953488413,
          "durationTicks": 2,
          "midi": 50,
          "name": "D3",
          "ticks": 118,
          "time": 1.372093023255814,
          "velocity": 0.6929133858267716
        },
        {
          "duration": 0.08139534883720922,
          "durationTicks": 7,
          "midi": 70,
          "name": "A#4",
          "ticks": 118,
          "time": 1.372093023255814,
          "velocity": 0.25984251968503935
        },
        {
          "duration": 0.06976744186046502,
          "durationTicks": 6,
          "midi": 73,
          "name": "C#5",
          "ticks": 118,
          "time": 1.372093023255814,
          "velocity": 0.1968503937007874
        },
        {
          "duration": 0.011627906976744207,
          "durationTicks": 1,
          "midi": 36,
          "name": "C2",
          "ticks": 119,
          "time": 1.3837209302325582,
          "velocity": 0.6220472440944882
        },
        {
          "duration": 0.12790697674418605,
          "durationTicks": 11,
          "midi": 51,
          "name": "D#3",
          "ticks": 120,
          "time": 1.3953488372093024,
          "velocity": 0.7086614173228346
        },
        {
          "duration": 0.0348837209302324,
          "durationTicks": 3,
          "midi": 42,
          "name": "F#2",
          "ticks": 121,
          "time": 1.4069767441860466,
          "velocity": 0.6141732283464567
        },
        {
          "duration": 0.04651162790697683,
          "durationTicks": 4,
          "midi": 41,
          "name": "F2",
          "ticks": 124,
          "time": 1.441860465116279,
          "velocity": 0.5905511811023622
        },
        {
          "duration": 0.22093023255813948,
          "durationTicks": 19,
          "midi": 63,
          "name": "D#4",
          "ticks": 138,
          "time": 1.6046511627906976,
          "velocity": 0.5826771653543307
        },
        {
          "duration": 0.2558139534883721,
          "durationTicks": 22,
          "midi": 82,
          "name": "A#5",
          "ticks": 138,
          "time": 1.6046511627906976,
          "velocity": 0.2755905511811024
        },
        {
          "duration": 0.023255813953488413,
          "durationTicks": 2,
          "midi": 64,
          "name": "E4",
          "ticks": 157,
          "time": 1.8255813953488371,
          "velocity": 0.5590551181102362
        },
        {
          "duration": 0.011627906976744207,
          "durationTicks": 1,
          "midi": 36,
          "name": "C2",
          "ticks": 158,
          "time": 1.8372093023255813,
          "velocity": 0.6141732283464567
        },
        {
          "duration": 0.011627906976744207,
          "durationTicks": 1,
          "midi": 41,
          "name": "F2",
          "ticks": 159,
          "time": 1.8488372093023255,
          "velocity": 0.6062992125984252
        },
        {
          "duration": 0.023255813953488413,
          "durationTicks": 2,
          "midi": 59,
          "name": "B3",
          "ticks": 159,
          "time": 1.8488372093023255,
          "velocity": 0.4015748031496063
        },
        {
          "duration": 0.09302325581395343,
          "durationTicks": 8,
          "midi": 63,
          "name": "D#4",
          "ticks": 159,
          "time": 1.8488372093023255,
          "velocity": 0.5590551181102362
        },
        {
          "duration": 0.011627906976744207,
          "durationTicks": 1,
          "midi": 52,
          "name": "E3",
          "ticks": 160,
          "time": 1.8604651162790697,
          "velocity": 0.5511811023622047
        },
        {
          "duration": 0.04651162790697683,
          "durationTicks": 4,
          "midi": 74,
          "name": "D5",
          "ticks": 160,
          "time": 1.8604651162790697,
          "velocity": 0.15748031496062992
        },
        {
          "duration": 0.04651162790697683,
          "durationTicks": 4,
          "midi": 41,
          "name": "F2",
          "ticks": 162,
          "time": 1.8837209302325582,
          "velocity": 0.6456692913385826
        },
        {
          "duration": 0.08139534883720922,
          "durationTicks": 7,
          "midi": 59,
          "name": "B3",
          "ticks": 162,
          "time": 1.8837209302325582,
          "velocity": 0.41732283464566927
        },
        {
          "duration": 0.023255813953488413,
          "durationTicks": 2,
          "midi": 55,
          "name": "G3",
          "ticks": 163,
          "time": 1.8953488372093024,
          "velocity": 0.4566929133858268
        },
        {
          "duration": 0.02325581395348819,
          "durationTicks": 2,
          "midi": 55,
          "name": "G3",
          "ticks": 166,
          "time": 1.930232558139535,
          "velocity": 0.25196850393700787
        },
        {
          "duration": 0.11627906976744207,
          "durationTicks": 10,
          "midi": 73,
          "name": "C#5",
          "ticks": 168,
          "time": 1.9534883720930232,
          "velocity": 0.2440944881889764
        },
        {
          "duration": 0.13953488372093048,
          "durationTicks": 12,
          "midi": 80,
          "name": "G#5",
          "ticks": 168,
          "time": 1.9534883720930232,
          "velocity": 0.25196850393700787
        },
        {
          "duration": 0.023255813953488413,
          "durationTicks": 2,
          "midi": 41,
          "name": "F2",
          "ticks": 169,
          "time": 1.9651162790697674,
          "velocity": 0.30708661417322836
        },
        {
          "duration": 0.10465116279069786,
          "durationTicks": 9,
          "midi": 61,
          "name": "C#4",
          "ticks": 170,
          "time": 1.9767441860465116,
          "velocity": 0.4015748031496063
        },
        {
          "duration": 0.08139534883720945,
          "durationTicks": 7,
          "midi": 40,
          "name": "E2",
          "ticks": 171,
          "time": 1.9883720930232558,
          "velocity": 0.2283464566929134
        },
        {
          "duration": 0.12790697674418583,
          "durationTicks": 11,
          "midi": 74,
          "name": "D5",
          "ticks": 178,
          "time": 2.0697674418604652,
          "velocity": 0.2992125984251969
        },
        {
          "duration": 0.13953488372093004,
          "durationTicks": 12,
          "midi": 81,
          "name": "A5",
          "ticks": 178,
          "time": 2.0697674418604652,
          "velocity": 0.2440944881889764
        },
        {
          "duration": 0.09302325581395321,
          "durationTicks": 8,
          "midi": 62,
          "name": "D4",
          "ticks": 179,
          "time": 2.0813953488372094,
          "velocity": 0.36220472440944884
        },
        {
          "duration": 0.011627906976744207,
          "durationTicks": 1,
          "midi": 64,
          "name": "E4",
          "ticks": 187,
          "time": 2.1744186046511627,
          "velocity": 0.5118110236220472
        },
        {
          "duration": 0.09302325581395365,
          "durationTicks": 8,
          "midi": 82,
          "name": "A#5",
          "ticks": 187,
          "time": 2.1744186046511627,
          "velocity": 0.18110236220472442
        },
        {
          "duration": 0.10465116279069786,
          "durationTicks": 9,
          "midi": 63,
          "name": "D#4",
          "ticks": 188,
          "time": 2.186046511627907,
          "velocity": 0.6141732283464567
        },
        {
          "duration": 0.03488372093023262,
          "durationTicks": 3,
          "midi": 82,
          "name": "A#5",
          "ticks": 196,
          "time": 2.2790697674418605,
          "velocity": 0.16535433070866143
        },
        {
          "duration": 0.023255813953488413,
          "durationTicks": 2,
          "midi": 70,
          "name": "A#4",
          "ticks": 197,
          "time": 2.2906976744186047,
          "velocity": 0.2755905511811024
        },
        {
          "duration": 0.011627906976744207,
          "durationTicks": 1,
          "midi": 40,
          "name": "E2",
          "ticks": 198,
          "time": 2.302325581395349,
          "velocity": 0.5984251968503937
        },
        {
          "duration": 0.023255813953488413,
          "durationTicks": 2,
          "midi": 51,
          "name": "D#3",
          "ticks": 198,
          "time": 2.302325581395349,
          "velocity": 0.49606299212598426
        },
        {
          "duration": 0.10465116279069742,
          "durationTicks": 9,
          "midi": 63,
          "name": "D#4",
          "ticks": 198,
          "time": 2.302325581395349,
          "velocity": 0.5826771653543307
        },
        {
          "duration": 0.13953488372093004,
          "durationTicks": 12,
          "midi": 78,
          "name": "F#5",
          "ticks": 198,
          "time": 2.302325581395349,
          "velocity": 0.2677165354330709
        },
        {
          "duration": 0.011627906976744207,
          "durationTicks": 1,
          "midi": 41,
          "name": "F2",
          "ticks": 199,
          "time": 2.313953488372093,
          "velocity": 0.5748031496062992
        },
        {
          "duration": 0.0697674418604648,
          "durationTicks": 6,
          "midi": 71,
          "name": "B4",
          "ticks": 199,
          "time": 2.313953488372093,
          "velocity": 0.1968503937007874
        },
        {
          "duration": 0.023255813953488413,
          "durationTicks": 2,
          "midi": 44,
          "name": "G#2",
          "ticks": 200,
          "time": 2.3255813953488373,
          "velocity": 0.5196850393700787
        },
        {
          "duration": 0.011627906976744207,
          "durationTicks": 1,
          "midi": 53,
          "name": "F3",
          "ticks": 200,
          "time": 2.3255813953488373,
          "velocity": 0.5511811023622047
        },
        {
          "duration": 0.04651162790697683,
          "durationTicks": 4,
          "midi": 74,
          "name": "D5",
          "ticks": 200,
          "time": 2.3255813953488373,
          "velocity": 0.12598425196850394
        },
        {
          "duration": 0.04651162790697638,
          "durationTicks": 4,
          "midi": 41,
          "name": "F2",
          "ticks": 202,
          "time": 2.3488372093023258,
          "velocity": 0.6456692913385826
        },
        {
          "duration": 0.10465116279069742,
          "durationTicks": 9,
          "midi": 66,
          "name": "F#4",
          "ticks": 202,
          "time": 2.3488372093023258,
          "velocity": 0.31496062992125984
        },
        {
          "duration": 0.06976744186046524,
          "durationTicks": 6,
          "midi": 55,
          "name": "G3",
          "ticks": 206,
          "time": 2.395348837209302,
          "velocity": 0.23622047244094488
        },
        {
          "duration": 0.023255813953488413,
          "durationTicks": 2,
          "midi": 40,
          "name": "E2",
          "ticks": 208,
          "time": 2.4186046511627906,
          "velocity": 0.33858267716535434
        },
        {
          "duration": 0.058139534883721034,
          "durationTicks": 5,
          "midi": 40,
          "name": "E2",
          "ticks": 211,
          "time": 2.453488372093023,
          "velocity": 0.2204724409448819
        },
        {
          "duration": 0.03488372093023262,
          "durationTicks": 3,
          "midi": 83,
          "name": "B5",
          "ticks": 216,
          "time": 2.511627906976744,
          "velocity": 0.1732283464566929
        },
        {
          "duration": 0.03488372093023262,
          "durationTicks": 3,
          "midi": 86,
          "name": "D6",
          "ticks": 216,
          "time": 2.511627906976744,
          "velocity": 0.2047244094488189
        },
        {
          "duration": 0.023255813953488413,
          "durationTicks": 2,
          "midi": 30,
          "name": "F#1",
          "ticks": 217,
          "time": 2.5232558139534884,
          "velocity": 0.41732283464566927
        },
        {
          "duration": 0.023255813953488413,
          "durationTicks": 2,
          "midi": 48,
          "name": "C3",
          "ticks": 217,
          "time": 2.5232558139534884,
          "velocity": 0.5590551181102362
        },
        {
          "duration": 0.17441860465116266,
          "durationTicks": 15,
          "midi": 63,
          "name": "D#4",
          "ticks": 217,
          "time": 2.5232558139534884,
          "velocity": 0.6456692913385826
        },
        {
          "duration": 0.023255813953488413,
          "durationTicks": 2,
          "midi": 67,
          "name": "G4",
          "ticks": 217,
          "time": 2.5232558139534884,
          "velocity": 0.31496062992125984
        },
        {
          "duration": 0.023255813953488413,
          "durationTicks": 2,
          "midi": 72,
          "name": "C5",
          "ticks": 217,
          "time": 2.5232558139534884,
          "velocity": 0.25984251968503935
        },
        {
          "duration": 0.08139534883720945,
          "durationTicks": 7,
          "midi": 80,
          "name": "G#5",
          "ticks": 217,
          "time": 2.5232558139534884,
          "velocity": 0.23622047244094488
        },
        {
          "duration": 0.03488372093023262,
          "durationTicks": 3,
          "midi": 49,
          "name": "C#3",
          "ticks": 219,
          "time": 2.546511627906977,
          "velocity": 0.5826771653543307
        },
        {
          "duration": 0.011627906976744207,
          "durationTicks": 1,
          "midi": 50,
          "name": "D3",
          "ticks": 222,
          "time": 2.5813953488372094,
          "velocity": 0.5748031496062992
        },
        {
          "duration": 0.02325581395348797,
          "durationTicks": 2,
          "midi": 49,
          "name": "C#3",
          "ticks": 225,
          "time": 2.616279069767442,
          "velocity": 0.30708661417322836
        },
        {
          "duration": 0.023255813953488413,
          "durationTicks": 2,
          "midi": 70,
          "name": "A#4",
          "ticks": 236,
          "time": 2.744186046511628,
          "velocity": 0.29133858267716534
        },
        {
          "duration": 0.03488372093023262,
          "durationTicks": 3,
          "midi": 84,
          "name": "C6",
          "ticks": 236,
          "time": 2.744186046511628,
          "velocity": 0.1732283464566929
        },
        {
          "duration": 0.03488372093023262,
          "durationTicks": 3,
          "midi": 87,
          "name": "D#6",
          "ticks": 236,
          "time": 2.744186046511628,
          "velocity": 0.18110236220472442
        },
        {
          "duration": 0.011627906976744207,
          "durationTicks": 1,
          "midi": 35,
          "name": "B1",
          "ticks": 237,
          "time": 2.755813953488372,
          "velocity": 0.5511811023622047
        },
        {
          "duration": 0.03488372093023262,
          "durationTicks": 3,
          "midi": 51,
          "name": "D#3",
          "ticks": 237,
          "time": 2.755813953488372,
          "velocity": 0.5433070866141733
        },
        {
          "duration": 0.13953488372093004,
          "durationTicks": 12,
          "midi": 63,
          "name": "D#4",
          "ticks": 237,
          "time": 2.755813953488372,
          "velocity": 0.5984251968503937
        },
        {
          "duration": 0.08139534883720945,
          "durationTicks": 7,
          "midi": 74,
          "name": "D5",
          "ticks": 237,
          "time": 2.755813953488372,
          "velocity": 0.25984251968503935
        },
        {
          "duration": 0.011627906976744207,
          "durationTicks": 1,
          "midi": 40,
          "name": "E2",
          "ticks": 238,
          "time": 2.7674418604651163,
          "velocity": 0.6220472440944882
        },
        {
          "duration": 0.08139534883720945,
          "durationTicks": 7,
          "midi": 71,
          "name": "B4",
          "ticks": 238,
          "time": 2.7674418604651163,
          "velocity": 0.2283464566929134
        },
        {
          "duration": 0.023255813953488413,
          "durationTicks": 2,
          "midi": 41,
          "name": "F2",
          "ticks": 239,
          "time": 2.7790697674418605,
          "velocity": 0.5511811023622047
        },
        {
          "duration": 0.011627906976744207,
          "durationTicks": 1,
          "midi": 53,
          "name": "F3",
          "ticks": 240,
          "time": 2.7906976744186047,
          "velocity": 0.5511811023622047
        },
        {
          "duration": 0.03488372093023262,
          "durationTicks": 3,
          "midi": 67,
          "name": "G4",
          "ticks": 240,
          "time": 2.7906976744186047,
          "velocity": 0.11023622047244094
        },
        {
          "duration": 0.011627906976744207,
          "durationTicks": 1,
          "midi": 33,
          "name": "A1",
          "ticks": 241,
          "time": 2.802325581395349,
          "velocity": 0.5748031496062992
        },
        {
          "duration": 0.023255813953488413,
          "durationTicks": 2,
          "midi": 52,
          "name": "E3",
          "ticks": 241,
          "time": 2.802325581395349,
          "velocity": 0.5118110236220472
        },
        {
          "duration": 0.04651162790697683,
          "durationTicks": 4,
          "midi": 41,
          "name": "F2",
          "ticks": 242,
          "time": 2.813953488372093,
          "velocity": 0.6692913385826772
        },
        {
          "duration": 0.03488372093023262,
          "durationTicks": 3,
          "midi": 55,
          "name": "G3",
          "ticks": 244,
          "time": 2.8372093023255816,
          "velocity": 0.31496062992125984
        },
        {
          "duration": 0.058139534883721034,
          "durationTicks": 5,
          "midi": 55,
          "name": "G3",
          "ticks": 248,
          "time": 2.883720930232558,
          "velocity": 0.15748031496062992
        },
        {
          "duration": 0.023255813953488413,
          "durationTicks": 2,
          "midi": 41,
          "name": "F2",
          "ticks": 249,
          "time": 2.895348837209302,
          "velocity": 0.30708661417322836
        },
        {
          "duration": 0.058139534883721034,
          "durationTicks": 5,
          "midi": 40,
          "name": "E2",
          "ticks": 251,
          "time": 2.9186046511627906,
          "velocity": 0.2283464566929134
        },
        {
          "duration": 0.023255813953488413,
          "durationTicks": 2,
          "midi": 48,
          "name": "C3",
          "ticks": 257,
          "time": 2.988372093023256,
          "velocity": 0.5590551181102362
        },
        {
          "duration": 0.11627906976744207,
          "durationTicks": 10,
          "midi": 65,
          "name": "F4",
          "ticks": 257,
          "time": 2.988372093023256,
          "velocity": 0.6535433070866141
        },
        {
          "duration": 0.04651162790697683,
          "durationTicks": 4,
          "midi": 71,
          "name": "B4",
          "ticks": 257,
          "time": 2.988372093023256,
          "velocity": 0.28346456692913385
        },
        {
          "duration": 0.023255813953488413,
          "durationTicks": 2,
          "midi": 73,
          "name": "C#5",
          "ticks": 257,
          "time": 2.988372093023256,
          "velocity": 0.25196850393700787
        },
        {
          "duration": 0.06976744186046524,
          "durationTicks": 6,
          "midi": 80,
          "name": "G#5",
          "ticks": 257,
          "time": 2.988372093023256,
          "velocity": 0.25984251968503935
        },
        {
          "duration": 0.09302325581395365,
          "durationTicks": 8,
          "midi": 61,
          "name": "C#4",
          "ticks": 258,
          "time": 3,
          "velocity": 0.4094488188976378
        },
        {
          "duration": 0.011627906976744207,
          "durationTicks": 1,
          "midi": 46,
          "name": "A#2",
          "ticks": 259,
          "time": 3.011627906976744,
          "velocity": 0.5826771653543307
        },
        {
          "duration": 0.011627906976744207,
          "durationTicks": 1,
          "midi": 50,
          "name": "D3",
          "ticks": 260,
          "time": 3.0232558139534884,
          "velocity": 0.6535433070866141
        },
        {
          "duration": 0.023255813953488413,
          "durationTicks": 2,
          "midi": 49,
          "name": "C#3",
          "ticks": 261,
          "time": 3.0348837209302326,
          "velocity": 0.5669291338582677
        },
        {
          "duration": 0.023255813953488413,
          "durationTicks": 2,
          "midi": 50,
          "name": "D3",
          "ticks": 263,
          "time": 3.058139534883721,
          "velocity": 0.5196850393700787
        },
        {
          "duration": 0.2325581395348837,
          "durationTicks": 20,
          "midi": 63,
          "name": "D#4",
          "ticks": 267,
          "time": 3.104651162790698,
          "velocity": 0.6141732283464567
        },
        {
          "duration": 0.023255813953488413,
          "durationTicks": 2,
          "midi": 70,
          "name": "A#4",
          "ticks": 276,
          "time": 3.2093023255813953,
          "velocity": 0.25984251968503935
        },
        {
          "duration": 0.011627906976744207,
          "durationTicks": 1,
          "midi": 36,
          "name": "C2",
          "ticks": 277,
          "time": 3.2209302325581395,
          "velocity": 0.6141732283464567
        },
        {
          "duration": 0.06976744186046524,
          "durationTicks": 6,
          "midi": 74,
          "name": "D5",
          "ticks": 277,
          "time": 3.2209302325581395,
          "velocity": 0.2125984251968504
        },
        {
          "duration": 0.011627906976744207,
          "durationTicks": 1,
          "midi": 40,
          "name": "E2",
          "ticks": 278,
          "time": 3.2325581395348837,
          "velocity": 0.6220472440944882
        },
        {
          "duration": 0.06976744186046524,
          "durationTicks": 6,
          "midi": 71,
          "name": "B4",
          "ticks": 278,
          "time": 3.2325581395348837,
          "velocity": 0.18110236220472442
        },
        {
          "duration": 0.011627906976744207,
          "durationTicks": 1,
          "midi": 43,
          "name": "G2",
          "ticks": 279,
          "time": 3.244186046511628,
          "velocity": 0.5196850393700787
        },
        {
          "duration": 0.03488372093023262,
          "durationTicks": 3,
          "midi": 55,
          "name": "G3",
          "ticks": 279,
          "time": 3.244186046511628,
          "velocity": 0.5433070866141733
        },
        {
          "duration": 0.06976744186046524,
          "durationTicks": 6,
          "midi": 41,
          "name": "F2",
          "ticks": 280,
          "time": 3.255813953488372,
          "velocity": 0.6692913385826772
        },
        {
          "duration": 0.04651162790697683,
          "durationTicks": 4,
          "midi": 51,
          "name": "D#3",
          "ticks": 281,
          "time": 3.2674418604651163,
          "velocity": 0.5433070866141733
        },
        {
          "duration": 0.023255813953488413,
          "durationTicks": 2,
          "midi": 52,
          "name": "E3",
          "ticks": 285,
          "time": 3.313953488372093,
          "velocity": 0.31496062992125984
        },
        {
          "duration": 0.023255813953488413,
          "durationTicks": 2,
          "midi": 39,
          "name": "D#2",
          "ticks": 286,
          "time": 3.3255813953488373,
          "velocity": 0.3700787401574803
        },
        {
          "duration": 0.0697674418604648,
          "durationTicks": 6,
          "midi": 55,
          "name": "G3",
          "ticks": 286,
          "time": 3.3255813953488373,
          "velocity": 0.1889763779527559
        },
        {
          "duration": 0.02325581395348797,
          "durationTicks": 2,
          "midi": 41,
          "name": "F2",
          "ticks": 289,
          "time": 3.36046511627907,
          "velocity": 0.29133858267716534
        },
        {
          "duration": 0.058139534883721034,
          "durationTicks": 5,
          "midi": 40,
          "name": "E2",
          "ticks": 291,
          "time": 3.383720930232558,
          "velocity": 0.2204724409448819
        },
        {
          "duration": 0.023255813953488413,
          "durationTicks": 2,
          "midi": 64,
          "name": "E4",
          "ticks": 295,
          "time": 3.4302325581395348,
          "velocity": 0.4881889763779528
        },
        {
          "duration": 0.023255813953488413,
          "durationTicks": 2,
          "midi": 72,
          "name": "C5",
          "ticks": 296,
          "time": 3.441860465116279,
          "velocity": 0.2755905511811024
        },
        {
          "duration": 0.06976744186046524,
          "durationTicks": 6,
          "midi": 63,
          "name": "D#4",
          "ticks": 297,
          "time": 3.453488372093023,
          "velocity": 0.6220472440944882
        },
        {
          "duration": 0.20930232558139528,
          "durationTicks": 18,
          "midi": 73,
          "name": "C#5",
          "ticks": 298,
          "time": 3.4651162790697674,
          "velocity": 0.2125984251968504
        },
        {
          "duration": 0.22093023255813948,
          "durationTicks": 19,
          "midi": 80,
          "name": "G#5",
          "ticks": 299,
          "time": 3.4767441860465116,
          "velocity": 0.15748031496062992
        },
        {
          "duration": 0.03488372093023262,
          "durationTicks": 3,
          "midi": 41,
          "name": "F2",
          "ticks": 302,
          "time": 3.511627906976744,
          "velocity": 0.1732283464566929
        },
        {
          "duration": 0.15116279069767424,
          "durationTicks": 13,
          "midi": 61,
          "name": "C#4",
          "ticks": 303,
          "time": 3.5232558139534884,
          "velocity": 0.41732283464566927
        },
        {
          "duration": 0.09302325581395365,
          "durationTicks": 8,
          "midi": 72,
          "name": "C5",
          "ticks": 316,
          "time": 3.6744186046511627,
          "velocity": 0.2440944881889764
        },
        {
          "duration": 0.1511627906976747,
          "durationTicks": 13,
          "midi": 75,
          "name": "D#5",
          "ticks": 316,
          "time": 3.6744186046511627,
          "velocity": 0.28346456692913385
        },
        {
          "duration": 0.011627906976744207,
          "durationTicks": 1,
          "midi": 36,
          "name": "C2",
          "ticks": 317,
          "time": 3.686046511627907,
          "velocity": 0.5826771653543307
        },
        {
          "duration": 0.12790697674418627,
          "durationTicks": 11,
          "midi": 63,
          "name": "D#4",
          "ticks": 317,
          "time": 3.686046511627907,
          "velocity": 0.5669291338582677
        },
        {
          "duration": 0.023255813953488413,
          "durationTicks": 2,
          "midi": 67,
          "name": "G4",
          "ticks": 317,
          "time": 3.686046511627907,
          "velocity": 0.25984251968503935
        },
        {
          "duration": 0.12790697674418627,
          "durationTicks": 11,
          "midi": 82,
          "name": "A#5",
          "ticks": 317,
          "time": 3.686046511627907,
          "velocity": 0.12598425196850394
        },
        {
          "duration": 0.023255813953488413,
          "durationTicks": 2,
          "midi": 41,
          "name": "F2",
          "ticks": 318,
          "time": 3.697674418604651,
          "velocity": 0.5905511811023622
        },
        {
          "duration": 0.011627906976744207,
          "durationTicks": 1,
          "midi": 55,
          "name": "G3",
          "ticks": 319,
          "time": 3.7093023255813953,
          "velocity": 0.5511811023622047
        },
        {
          "duration": 0.03488372093023262,
          "durationTicks": 3,
          "midi": 68,
          "name": "G#4",
          "ticks": 319,
          "time": 3.7093023255813953,
          "velocity": 0.08661417322834646
        },
        {
          "duration": 0.011627906976744207,
          "durationTicks": 1,
          "midi": 38,
          "name": "D2",
          "ticks": 320,
          "time": 3.7209302325581395,
          "velocity": 0.5590551181102362
        },
        {
          "duration": 0.023255813953488413,
          "durationTicks": 2,
          "midi": 53,
          "name": "F3",
          "ticks": 320,
          "time": 3.7209302325581395,
          "velocity": 0.48031496062992124
        },
        {
          "duration": 0.011627906976744207,
          "durationTicks": 1,
          "midi": 41,
          "name": "F2",
          "ticks": 321,
          "time": 3.7325581395348837,
          "velocity": 0.6692913385826772
        },
        {
          "duration": 0.023255813953488413,
          "durationTicks": 2,
          "midi": 42,
          "name": "F#2",
          "ticks": 322,
          "time": 3.744186046511628,
          "velocity": 0.6614173228346457
        },
        {
          "duration": 0.023255813953488413,
          "durationTicks": 2,
          "midi": 41,
          "name": "F2",
          "ticks": 327,
          "time": 3.802325581395349,
          "velocity": 0.28346456692913385
        },
        {
          "duration": 0.11627906976744162,
          "durationTicks": 10,
          "midi": 61,
          "name": "C#4",
          "ticks": 327,
          "time": 3.802325581395349,
          "velocity": 0.3858267716535433
        },
        {
          "duration": 0.12790697674418583,
          "durationTicks": 11,
          "midi": 80,
          "name": "G#5",
          "ticks": 327,
          "time": 3.802325581395349,
          "velocity": 0.13385826771653545
        },
        {
          "duration": 0.034883720930232176,
          "durationTicks": 3,
          "midi": 40,
          "name": "E2",
          "ticks": 331,
          "time": 3.8488372093023258,
          "velocity": 0.15748031496062992
        },
        {
          "duration": 0.11627906976744207,
          "durationTicks": 10,
          "midi": 58,
          "name": "A#3",
          "ticks": 337,
          "time": 3.9186046511627906,
          "velocity": 0.5196850393700787
        },
        {
          "duration": 0.12790697674418627,
          "durationTicks": 11,
          "midi": 75,
          "name": "D#5",
          "ticks": 345,
          "time": 4.011627906976744,
          "velocity": 0.2283464566929134
        },
        {
          "duration": 0.03488372093023262,
          "durationTicks": 3,
          "midi": 77,
          "name": "F5",
          "ticks": 345,
          "time": 4.011627906976744,
          "velocity": 0.2204724409448819
        },
        {
          "duration": 0.03488372093023262,
          "durationTicks": 3,
          "midi": 80,
          "name": "G#5",
          "ticks": 345,
          "time": 4.011627906976744,
          "velocity": 0.2283464566929134
        },
        {
          "duration": 0.011627906976744207,
          "durationTicks": 1,
          "midi": 64,
          "name": "E4",
          "ticks": 346,
          "time": 4.023255813953488,
          "velocity": 0.5669291338582677
        },
        {
          "duration": 0.011627906976744207,
          "durationTicks": 1,
          "midi": 57,
          "name": "A3",
          "ticks": 347,
          "time": 4.034883720930233,
          "velocity": 0.5118110236220472
        },
        {
          "duration": 0.2906976744186043,
          "durationTicks": 25,
          "midi": 63,
          "name": "D#4",
          "ticks": 347,
          "time": 4.034883720930233,
          "velocity": 0.6377952755905512
        },
        {
          "duration": 0.12790697674418627,
          "durationTicks": 11,
          "midi": 68,
          "name": "G#4",
          "ticks": 347,
          "time": 4.034883720930233,
          "velocity": 0.3779527559055118
        },
        {
          "duration": 0.12790697674418627,
          "durationTicks": 11,
          "midi": 56,
          "name": "G#3",
          "ticks": 348,
          "time": 4.046511627906977,
          "velocity": 0.5511811023622047
        },
        {
          "duration": 0.023255813953488413,
          "durationTicks": 2,
          "midi": 35,
          "name": "B1",
          "ticks": 355,
          "time": 4.127906976744186,
          "velocity": 0.5275590551181102
        },
        {
          "duration": 0.023255813953488413,
          "durationTicks": 2,
          "midi": 71,
          "name": "B4",
          "ticks": 355,
          "time": 4.127906976744186,
          "velocity": 0.2677165354330709
        },
        {
          "duration": 0.023255813953488413,
          "durationTicks": 2,
          "midi": 74,
          "name": "D5",
          "ticks": 356,
          "time": 4.1395348837209305,
          "velocity": 0.23622047244094488
        },
        {
          "duration": 0.03488372093023262,
          "durationTicks": 3,
          "midi": 78,
          "name": "F#5",
          "ticks": 356,
          "time": 4.1395348837209305,
          "velocity": 0.1732283464566929
        },
        {
          "duration": 0.011627906976744207,
          "durationTicks": 1,
          "midi": 40,
          "name": "E2",
          "ticks": 357,
          "time": 4.151162790697675,
          "velocity": 0.5984251968503937
        },
        {
          "duration": 0.06976744186046524,
          "durationTicks": 6,
          "midi": 72,
          "name": "C5",
          "ticks": 357,
          "time": 4.151162790697675,
          "velocity": 0.2283464566929134
        },
        {
          "duration": 0.011627906976744207,
          "durationTicks": 1,
          "midi": 41,
          "name": "F2",
          "ticks": 358,
          "time": 4.162790697674419,
          "velocity": 0.5590551181102362
        },
        {
          "duration": 0.023255813953488413,
          "durationTicks": 2,
          "midi": 52,
          "name": "E3",
          "ticks": 359,
          "time": 4.174418604651163,
          "velocity": 0.5905511811023622
        },
        {
          "duration": 0.011627906976744207,
          "durationTicks": 1,
          "midi": 39,
          "name": "D#2",
          "ticks": 360,
          "time": 4.186046511627907,
          "velocity": 0.5984251968503937
        },
        {
          "duration": 0.011627906976744207,
          "durationTicks": 1,
          "midi": 41,
          "name": "F2",
          "ticks": 361,
          "time": 4.1976744186046515,
          "velocity": 0.6771653543307087
        },
        {
          "duration": 0.12790697674418539,
          "durationTicks": 11,
          "midi": 51,
          "name": "D#3",
          "ticks": 361,
          "time": 4.1976744186046515,
          "velocity": 0.5275590551181102
        },
        {
          "duration": 0.023255813953488413,
          "durationTicks": 2,
          "midi": 42,
          "name": "F#2",
          "ticks": 362,
          "time": 4.209302325581396,
          "velocity": 0.6614173228346457
        },
        {
          "duration": 0.023255813953487525,
          "durationTicks": 2,
          "midi": 40,
          "name": "E2",
          "ticks": 365,
          "time": 4.244186046511628,
          "velocity": 0.4094488188976378
        },
        {
          "duration": 0.03488372093023173,
          "durationTicks": 3,
          "midi": 82,
          "name": "A#5",
          "ticks": 365,
          "time": 4.244186046511628,
          "velocity": 0.10236220472440945
        },
        {
          "duration": 0.023255813953488413,
          "durationTicks": 2,
          "midi": 41,
          "name": "F2",
          "ticks": 367,
          "time": 4.267441860465116,
          "velocity": 0.3228346456692913
        },
        {
          "duration": 0.03488372093023262,
          "durationTicks": 3,
          "midi": 40,
          "name": "E2",
          "ticks": 371,
          "time": 4.313953488372093,
          "velocity": 0.1732283464566929
        },
        {
          "duration": 0.023255813953488413,
          "durationTicks": 2,
          "midi": 39,
          "name": "D#2",
          "ticks": 374,
          "time": 4.348837209302325,
          "velocity": 0.2992125984251969
        },
        {
          "duration": 0.023255813953488413,
          "durationTicks": 2,
          "midi": 64,
          "name": "E4",
          "ticks": 375,
          "time": 4.3604651162790695,
          "velocity": 0.5590551181102362
        },
        {
          "duration": 0.03488372093023262,
          "durationTicks": 3,
          "midi": 79,
          "name": "G5",
          "ticks": 375,
          "time": 4.3604651162790695,
          "velocity": 0.2440944881889764
        },
        {
          "duration": 0.03488372093023262,
          "durationTicks": 3,
          "midi": 83,
          "name": "B5",
          "ticks": 376,
          "time": 4.372093023255814,
          "velocity": 0.12598425196850394
        },
        {
          "duration": 0.011627906976744207,
          "durationTicks": 1,
          "midi": 48,
          "name": "C3",
          "ticks": 377,
          "time": 4.383720930232558,
          "velocity": 0.5354330708661418
        },
        {
          "duration": 0.13953488372093048,
          "durationTicks": 12,
          "midi": 55,
          "name": "G3",
          "ticks": 377,
          "time": 4.383720930232558,
          "velocity": 0.5039370078740157
        },
        {
          "duration": 0.1627906976744189,
          "durationTicks": 14,
          "midi": 63,
          "name": "D#4",
          "ticks": 377,
          "time": 4.383720930232558,
          "velocity": 0.6220472440944882
        },
        {
          "duration": 0.04651162790697683,
          "durationTicks": 4,
          "midi": 77,
          "name": "F5",
          "ticks": 377,
          "time": 4.383720930232558,
          "velocity": 0.08661417322834646
        },
        {
          "duration": 0.08139534883720945,
          "durationTicks": 7,
          "midi": 80,
          "name": "G#5",
          "ticks": 377,
          "time": 4.383720930232558,
          "velocity": 0.2992125984251969
        },
        {
          "duration": 0.11627906976744207,
          "durationTicks": 10,
          "midi": 49,
          "name": "C#3",
          "ticks": 378,
          "time": 4.395348837209302,
          "velocity": 0.5433070866141733
        },
        {
          "duration": 0.03488372093023262,
          "durationTicks": 3,
          "midi": 80,
          "name": "G#5",
          "ticks": 395,
          "time": 4.593023255813954,
          "velocity": 0.15748031496062992
        },
        {
          "duration": 0.011627906976744207,
          "durationTicks": 1,
          "midi": 36,
          "name": "C2",
          "ticks": 396,
          "time": 4.604651162790698,
          "velocity": 0.5433070866141733
        },
        {
          "duration": 0.023255813953488413,
          "durationTicks": 2,
          "midi": 57,
          "name": "A3",
          "ticks": 396,
          "time": 4.604651162790698,
          "velocity": 0.47244094488188976
        },
        {
          "duration": 0.1511627906976738,
          "durationTicks": 13,
          "midi": 63,
          "name": "D#4",
          "ticks": 396,
          "time": 4.604651162790698,
          "velocity": 0.6062992125984252
        },
        {
          "duration": 0.023255813953488413,
          "durationTicks": 2,
          "midi": 41,
          "name": "F2",
          "ticks": 397,
          "time": 4.616279069767442,
          "velocity": 0.6141732283464567
        },
        {
          "duration": 0.06976744186046524,
          "durationTicks": 6,
          "midi": 72,
          "name": "C5",
          "ticks": 397,
          "time": 4.616279069767442,
          "velocity": 0.1968503937007874
        },
        {
          "duration": 0.011627906976744207,
          "durationTicks": 1,
          "midi": 58,
          "name": "A#3",
          "ticks": 398,
          "time": 4.627906976744186,
          "velocity": 0.5118110236220472
        },
        {
          "duration": 0.011627906976744207,
          "durationTicks": 1,
          "midi": 55,
          "name": "G3",
          "ticks": 399,
          "time": 4.6395348837209305,
          "velocity": 0.5118110236220472
        },
        {
          "duration": 0.03488372093023262,
          "durationTicks": 3,
          "midi": 68,
          "name": "G#4",
          "ticks": 399,
          "time": 4.6395348837209305,
          "velocity": 0.08661417322834646
        },
        {
          "duration": 0.011627906976744207,
          "durationTicks": 1,
          "midi": 40,
          "name": "E2",
          "ticks": 400,
          "time": 4.651162790697675,
          "velocity": 0.6456692913385826
        },
        {
          "duration": 0.023255813953488413,
          "durationTicks": 2,
          "midi": 42,
          "name": "F#2",
          "ticks": 401,
          "time": 4.662790697674419,
          "velocity": 0.6929133858267716
        },
        {
          "duration": 0.023255813953488413,
          "durationTicks": 2,
          "midi": 56,
          "name": "G#3",
          "ticks": 402,
          "time": 4.674418604651163,
          "velocity": 0.3937007874015748
        },
        {
          "duration": 0.011627906976744207,
          "durationTicks": 1,
          "midi": 41,
          "name": "F2",
          "ticks": 403,
          "time": 4.686046511627907,
          "velocity": 0.5748031496062992
        },
        {
          "duration": 0.023255813953488413,
          "durationTicks": 2,
          "midi": 40,
          "name": "E2",
          "ticks": 404,
          "time": 4.6976744186046515,
          "velocity": 0.47244094488188976
        },
        {
          "duration": 0.03488372093023262,
          "durationTicks": 3,
          "midi": 56,
          "name": "G#3",
          "ticks": 405,
          "time": 4.709302325581396,
          "velocity": 0.11023622047244094
        },
        {
          "duration": 0.023255813953488413,
          "durationTicks": 2,
          "midi": 41,
          "name": "F2",
          "ticks": 406,
          "time": 4.72093023255814,
          "velocity": 0.3779527559055118
        },
        {
          "duration": 0.04651162790697683,
          "durationTicks": 4,
          "midi": 40,
          "name": "E2",
          "ticks": 410,
          "time": 4.767441860465116,
          "velocity": 0.16535433070866143
        },
        {
          "duration": 0.12790697674418627,
          "durationTicks": 11,
          "midi": 65,
          "name": "F4",
          "ticks": 415,
          "time": 4.825581395348837,
          "velocity": 0.6141732283464567
        },
        {
          "duration": 0.08139534883720945,
          "durationTicks": 7,
          "midi": 80,
          "name": "G#5",
          "ticks": 415,
          "time": 4.825581395348837,
          "velocity": 0.2047244094488189
        },
        {
          "duration": 0.08139534883720945,
          "durationTicks": 7,
          "midi": 85,
          "name": "C#6",
          "ticks": 415,
          "time": 4.825581395348837,
          "velocity": 0.13385826771653545
        },
        {
          "duration": 0.011627906976744207,
          "durationTicks": 1,
          "midi": 47,
          "name": "B2",
          "ticks": 416,
          "time": 4.837209302325581,
          "velocity": 0.5196850393700787
        },
        {
          "duration": 0.023255813953488413,
          "durationTicks": 2,
          "midi": 55,
          "name": "G3",
          "ticks": 416,
          "time": 4.837209302325581,
          "velocity": 0.5118110236220472
        },
        {
          "duration": 0.058139534883721034,
          "durationTicks": 5,
          "midi": 73,
          "name": "C#5",
          "ticks": 416,
          "time": 4.837209302325581,
          "velocity": 0.2047244094488189
        },
        {
          "duration": 0.011627906976744207,
          "durationTicks": 1,
          "midi": 48,
          "name": "C3",
          "ticks": 417,
          "time": 4.848837209302325,
          "velocity": 0.5748031496062992
        },
        {
          "duration": 0.09302325581395365,
          "durationTicks": 8,
          "midi": 61,
          "name": "C#4",
          "ticks": 417,
          "time": 4.848837209302325,
          "velocity": 0.4094488188976378
        },
        {
          "duration": 0.10465116279069786,
          "durationTicks": 9,
          "midi": 49,
          "name": "C#3",
          "ticks": 418,
          "time": 4.8604651162790695,
          "velocity": 0.5826771653543307
        },
        {
          "duration": 0.011627906976744207,
          "durationTicks": 1,
          "midi": 54,
          "name": "F#3",
          "ticks": 418,
          "time": 4.8604651162790695,
          "velocity": 0.5118110236220472
        },
        {
          "duration": 0.011627906976744207,
          "durationTicks": 1,
          "midi": 54,
          "name": "F#3",
          "ticks": 420,
          "time": 4.883720930232558,
          "velocity": 0.5118110236220472
        },
        {
          "duration": 0.23255813953488413,
          "durationTicks": 20,
          "midi": 63,
          "name": "D#4",
          "ticks": 426,
          "time": 4.953488372093023,
          "velocity": 0.6220472440944882
        },
        {
          "duration": 0.058139534883721034,
          "durationTicks": 5,
          "midi": 79,
          "name": "G5",
          "ticks": 435,
          "time": 5.058139534883721,
          "velocity": 0.1968503937007874
        },
        {
          "duration": 0.09302325581395365,
          "durationTicks": 8,
          "midi": 82,
          "name": "A#5",
          "ticks": 435,
          "time": 5.058139534883721,
          "velocity": 0.25196850393700787
        },
        {
          "duration": 0.011627906976744207,
          "durationTicks": 1,
          "midi": 36,
          "name": "C2",
          "ticks": 436,
          "time": 5.069767441860465,
          "velocity": 0.6377952755905512
        },
        {
          "duration": 0.023255813953488413,
          "durationTicks": 2,
          "midi": 50,
          "name": "D3",
          "ticks": 436,
          "time": 5.069767441860465,
          "velocity": 0.6299212598425197
        },
        {
          "duration": 0.023255813953488413,
          "durationTicks": 2,
          "midi": 67,
          "name": "G4",
          "ticks": 436,
          "time": 5.069767441860465,
          "velocity": 0.2283464566929134
        },
        {
          "duration": 0.058139534883721034,
          "durationTicks": 5,
          "midi": 70,
          "name": "A#4",
          "ticks": 436,
          "time": 5.069767441860465,
          "velocity": 0.2283464566929134
        },
        {
          "duration": 0.08139534883720945,
          "durationTicks": 7,
          "midi": 72,
          "name": "C5",
          "ticks": 436,
          "time": 5.069767441860465,
          "velocity": 0.2440944881889764
        },
        {
          "duration": 0.011627906976744207,
          "durationTicks": 1,
          "midi": 30,
          "name": "F#1",
          "ticks": 437,
          "time": 5.0813953488372094,
          "velocity": 0.5590551181102362
        },
        {
          "duration": 0.011627906976744207,
          "durationTicks": 1,
          "midi": 40,
          "name": "E2",
          "ticks": 437,
          "time": 5.0813953488372094,
          "velocity": 0.6220472440944882
        },
        {
          "duration": 0.011627906976744207,
          "durationTicks": 1,
          "midi": 44,
          "name": "G#2",
          "ticks": 438,
          "time": 5.093023255813954,
          "velocity": 0.5118110236220472
        },
        {
          "duration": 0.04651162790697683,
          "durationTicks": 4,
          "midi": 51,
          "name": "D#3",
          "ticks": 438,
          "time": 5.093023255813954,
          "velocity": 0.7007874015748031
        },
        {
          "duration": 0.04651162790697683,
          "durationTicks": 4,
          "midi": 68,
          "name": "G#4",
          "ticks": 438,
          "time": 5.093023255813954,
          "velocity": 0.14960629921259844
        },
        {
          "duration": 0.011627906976744207,
          "durationTicks": 1,
          "midi": 38,
          "name": "D2",
          "ticks": 439,
          "time": 5.104651162790698,
          "velocity": 0.5196850393700787
        },
        {
          "duration": 0.023255813953488413,
          "durationTicks": 2,
          "midi": 56,
          "name": "G#3",
          "ticks": 439,
          "time": 5.104651162790698,
          "velocity": 0.5118110236220472
        },
        {
          "duration": 0.011627906976744207,
          "durationTicks": 1,
          "midi": 41,
          "name": "F2",
          "ticks": 440,
          "time": 5.116279069767442,
          "velocity": 0.6614173228346457
        },
        {
          "duration": 0.023255813953488413,
          "durationTicks": 2,
          "midi": 42,
          "name": "F#2",
          "ticks": 441,
          "time": 5.127906976744186,
          "velocity": 0.6850393700787402
        },
        {
          "duration": 0.011627906976744207,
          "durationTicks": 1,
          "midi": 50,
          "name": "D3",
          "ticks": 442,
          "time": 5.1395348837209305,
          "velocity": 0.5196850393700787
        },
        {
          "duration": 0.023255813953488413,
          "durationTicks": 2,
          "midi": 56,
          "name": "G#3",
          "ticks": 442,
          "time": 5.1395348837209305,
          "velocity": 0.36220472440944884
        },
        {
          "duration": 0.011627906976744207,
          "durationTicks": 1,
          "midi": 41,
          "name": "F2",
          "ticks": 443,
          "time": 5.151162790697675,
          "velocity": 0.5354330708661418
        },
        {
          "duration": 0.023255813953488413,
          "durationTicks": 2,
          "midi": 40,
          "name": "E2",
          "ticks": 444,
          "time": 5.162790697674419,
          "velocity": 0.4409448818897638
        },
        {
          "duration": 0.04651162790697683,
          "durationTicks": 4,
          "midi": 51,
          "name": "D#3",
          "ticks": 445,
          "time": 5.174418604651163,
          "velocity": 0.2755905511811024
        },
        {
          "duration": 0.03488372093023262,
          "durationTicks": 3,
          "midi": 56,
          "name": "G#3",
          "ticks": 445,
          "time": 5.174418604651163,
          "velocity": 0.12598425196850394
        },
        {
          "duration": 0.023255813953488413,
          "durationTicks": 2,
          "midi": 41,
          "name": "F2",
          "ticks": 446,
          "time": 5.186046511627907,
          "velocity": 0.3700787401574803
        },
        {
          "duration": 0.03488372093023173,
          "durationTicks": 3,
          "midi": 40,
          "name": "E2",
          "ticks": 450,
          "time": 5.232558139534884,
          "velocity": 0.18110236220472442
        },
        {
          "duration": 0.023255813953488413,
          "durationTicks": 2,
          "midi": 64,
          "name": "E4",
          "ticks": 454,
          "time": 5.27906976744186,
          "velocity": 0.4881889763779528
        },
        {
          "duration": 0.23255813953488413,
          "durationTicks": 20,
          "midi": 58,
          "name": "A#3",
          "ticks": 456,
          "time": 5.3023255813953485,
          "velocity": 0.5354330708661418
        },
        {
          "duration": 0.1744186046511631,
          "durationTicks": 15,
          "midi": 63,
          "name": "D#4",
          "ticks": 456,
          "time": 5.3023255813953485,
          "velocity": 0.5984251968503937
        },
        {
          "duration": 0.22093023255813993,
          "durationTicks": 19,
          "midi": 89,
          "name": "F6",
          "ticks": 456,
          "time": 5.3023255813953485,
          "velocity": 0.1889763779527559
        },
        {
          "duration": 0.03488372093023262,
          "durationTicks": 3,
          "midi": 41,
          "name": "F2",
          "ticks": 460,
          "time": 5.348837209302325,
          "velocity": 0.18110236220472442
        },
        {
          "duration": 0.023255813953488413,
          "durationTicks": 2,
          "midi": 64,
          "name": "E4",
          "ticks": 474,
          "time": 5.511627906976744,
          "velocity": 0.4881889763779528
        },
        {
          "duration": 0.023255813953488413,
          "durationTicks": 2,
          "midi": 35,
          "name": "B1",
          "ticks": 476,
          "time": 5.534883720930233,
          "velocity": 0.6062992125984252
        },
        {
          "duration": 0.011627906976744207,
          "durationTicks": 1,
          "midi": 48,
          "name": "C3",
          "ticks": 476,
          "time": 5.534883720930233,
          "velocity": 0.5275590551181102
        },
        {
          "duration": 0.011627906976744207,
          "durationTicks": 1,
          "midi": 57,
          "name": "A3",
          "ticks": 476,
          "time": 5.534883720930233,
          "velocity": 0.5118110236220472
        },
        {
          "duration": 0.09302325581395365,
          "durationTicks": 8,
          "midi": 63,
          "name": "D#4",
          "ticks": 476,
          "time": 5.534883720930233,
          "velocity": 0.6141732283464567
        },
        {
          "duration": 0.023255813953488413,
          "durationTicks": 2,
          "midi": 72,
          "name": "C5",
          "ticks": 476,
          "time": 5.534883720930233,
          "velocity": 0.25196850393700787
        },
        {
          "duration": 0.023255813953488413,
          "durationTicks": 2,
          "midi": 44,
          "name": "G#2",
          "ticks": 477,
          "time": 5.546511627906977,
          "velocity": 0.5433070866141733
        },
        {
          "duration": 0.011627906976744207,
          "durationTicks": 1,
          "midi": 50,
          "name": "D3",
          "ticks": 477,
          "time": 5.546511627906977,
          "velocity": 0.5511811023622047
        },
        {
          "duration": 0.03488372093023262,
          "durationTicks": 3,
          "midi": 55,
          "name": "G3",
          "ticks": 477,
          "time": 5.546511627906977,
          "velocity": 0.5118110236220472
        },
        {
          "duration": 0.06976744186046524,
          "durationTicks": 6,
          "midi": 51,
          "name": "D#3",
          "ticks": 478,
          "time": 5.558139534883721,
          "velocity": 0.5354330708661418
        },
        {
          "duration": 0.10465116279069786,
          "durationTicks": 9,
          "midi": 73,
          "name": "C#5",
          "ticks": 478,
          "time": 5.558139534883721,
          "velocity": 0.2204724409448819
        },
        {
          "duration": 0.10465116279069786,
          "durationTicks": 9,
          "midi": 80,
          "name": "G#5",
          "ticks": 478,
          "time": 5.558139534883721,
          "velocity": 0.12598425196850394
        },
        {
          "duration": 0.023255813953488413,
          "durationTicks": 2,
          "midi": 42,
          "name": "F#2",
          "ticks": 479,
          "time": 5.569767441860465,
          "velocity": 0.6535433070866141
        },
        {
          "duration": 0.011627906976744207,
          "durationTicks": 1,
          "midi": 41,
          "name": "F2",
          "ticks": 481,
          "time": 5.593023255813954,
          "velocity": 0.6062992125984252
        },
        {
          "duration": 0.058139534883721034,
          "durationTicks": 5,
          "midi": 55,
          "name": "G3",
          "ticks": 481,
          "time": 5.593023255813954,
          "velocity": 0.41732283464566927
        },
        {
          "duration": 0.023255813953488413,
          "durationTicks": 2,
          "midi": 61,
          "name": "C#4",
          "ticks": 483,
          "time": 5.616279069767442,
          "velocity": 0.36220472440944884
        },
        {
          "duration": 0.04651162790697683,
          "durationTicks": 4,
          "midi": 41,
          "name": "F2",
          "ticks": 485,
          "time": 5.6395348837209305,
          "velocity": 0.30708661417322836
        },
        {
          "duration": 0.12790697674418539,
          "durationTicks": 11,
          "midi": 59,
          "name": "B3",
          "ticks": 485,
          "time": 5.6395348837209305,
          "velocity": 0.4645669291338583
        },
        {
          "duration": 0.06976744186046435,
          "durationTicks": 6,
          "midi": 78,
          "name": "F#5",
          "ticks": 490,
          "time": 5.6976744186046515,
          "velocity": 0.10236220472440945
        },
        {
          "duration": 0.13953488372093048,
          "durationTicks": 12,
          "midi": 68,
          "name": "G#4",
          "ticks": 495,
          "time": 5.755813953488372,
          "velocity": 0.3464566929133858
        },
        {
          "duration": 0.10465116279069786,
          "durationTicks": 9,
          "midi": 56,
          "name": "G#3",
          "ticks": 497,
          "time": 5.77906976744186,
          "velocity": 0.5275590551181102
        },
        {
          "duration": 0.03488372093023262,
          "durationTicks": 3,
          "midi": 39,
          "name": "D#2",
          "ticks": 499,
          "time": 5.8023255813953485,
          "velocity": 0.2204724409448819
        },
        {
          "duration": 0.058139534883721034,
          "durationTicks": 5,
          "midi": 87,
          "name": "D#6",
          "ticks": 502,
          "time": 5.837209302325581,
          "velocity": 0.15748031496062992
        },
        {
          "duration": 0.03488372093023262,
          "durationTicks": 3,
          "midi": 84,
          "name": "C6",
          "ticks": 504,
          "time": 5.8604651162790695,
          "velocity": 0.14960629921259844
        },
        {
          "duration": 0.011627906976744207,
          "durationTicks": 1,
          "midi": 64,
          "name": "E4",
          "ticks": 505,
          "time": 5.872093023255814,
          "velocity": 0.5196850393700787
        },
        {
          "duration": 0.11627906976744207,
          "durationTicks": 10,
          "midi": 74,
          "name": "D5",
          "ticks": 505,
          "time": 5.872093023255814,
          "velocity": 0.1968503937007874
        },
        {
          "duration": 0.023255813953488413,
          "durationTicks": 2,
          "midi": 29,
          "name": "F1",
          "ticks": 506,
          "time": 5.883720930232558,
          "velocity": 0.23622047244094488
        },
        {
          "duration": 0.10465116279069786,
          "durationTicks": 9,
          "midi": 55,
          "name": "G3",
          "ticks": 506,
          "time": 5.883720930232558,
          "velocity": 0.5433070866141733
        },
        {
          "duration": 0.22093023255813993,
          "durationTicks": 19,
          "midi": 63,
          "name": "D#4",
          "ticks": 506,
          "time": 5.883720930232558,
          "velocity": 0.6141732283464567
        },
        {
          "duration": 0.12790697674418627,
          "durationTicks": 11,
          "midi": 86,
          "name": "D6",
          "ticks": 506,
          "time": 5.883720930232558,
          "velocity": 0.25196850393700787
        },
        {
          "duration": 0.03488372093023262,
          "durationTicks": 3,
          "midi": 35,
          "name": "B1",
          "ticks": 515,
          "time": 5.988372093023256,
          "velocity": 0.5905511811023622
        },
        {
          "duration": 0.011627906976744207,
          "durationTicks": 1,
          "midi": 56,
          "name": "G#3",
          "ticks": 515,
          "time": 5.988372093023256,
          "velocity": 0.5275590551181102
        },
        {
          "duration": 0.023255813953488413,
          "durationTicks": 2,
          "midi": 69,
          "name": "A4",
          "ticks": 515,
          "time": 5.988372093023256,
          "velocity": 0.2992125984251969
        },
        {
          "duration": 0.023255813953488413,
          "durationTicks": 2,
          "midi": 73,
          "name": "C#5",
          "ticks": 515,
          "time": 5.988372093023256,
          "velocity": 0.25984251968503935
        },
        {
          "duration": 0.03488372093023262,
          "durationTicks": 3,
          "midi": 78,
          "name": "F#5",
          "ticks": 515,
          "time": 5.988372093023256,
          "velocity": 0.2204724409448819
        },
        {
          "duration": 0.011627906976744207,
          "durationTicks": 1,
          "midi": 50,
          "name": "D3",
          "ticks": 516,
          "time": 6,
          "velocity": 0.5275590551181102
        },
        {
          "duration": 0.023255813953488413,
          "durationTicks": 2,
          "midi": 44,
          "name": "G#2",
          "ticks": 517,
          "time": 6.011627906976744,
          "velocity": 0.5275590551181102
        },
        {
          "duration": 0.023255813953488413,
          "durationTicks": 2,
          "midi": 51,
          "name": "D#3",
          "ticks": 517,
          "time": 6.011627906976744,
          "velocity": 0.5118110236220472
        },
        {
          "duration": 0.06976744186046524,
          "durationTicks": 6,
          "midi": 70,
          "name": "A#4",
          "ticks": 517,
          "time": 6.011627906976744,
          "velocity": 0.16535433070866143
        },
        {
          "duration": 0.058139534883721034,
          "durationTicks": 5,
          "midi": 74,
          "name": "D5",
          "ticks": 517,
          "time": 6.011627906976744,
          "velocity": 0.18110236220472442
        },
        {
          "duration": 0.04651162790697683,
          "durationTicks": 4,
          "midi": 41,
          "name": "F2",
          "ticks": 519,
          "time": 6.034883720930233,
          "velocity": 0.6614173228346457
        },
        {
          "duration": 0.011627906976744207,
          "durationTicks": 1,
          "midi": 52,
          "name": "E3",
          "ticks": 519,
          "time": 6.034883720930233,
          "velocity": 0.5590551181102362
        },
        {
          "duration": 0.011627906976744207,
          "durationTicks": 1,
          "midi": 54,
          "name": "F#3",
          "ticks": 520,
          "time": 6.046511627906977,
          "velocity": 0.5275590551181102
        },
        {
          "duration": 0.011627906976744207,
          "durationTicks": 1,
          "midi": 55,
          "name": "G3",
          "ticks": 521,
          "time": 6.058139534883721,
          "velocity": 0.5433070866141733
        },
        {
          "duration": 0.03488372093023262,
          "durationTicks": 3,
          "midi": 54,
          "name": "F#3",
          "ticks": 522,
          "time": 6.069767441860465,
          "velocity": 0.5354330708661418
        },
        {
          "duration": 0.04651162790697683,
          "durationTicks": 4,
          "midi": 41,
          "name": "F2",
          "ticks": 525,
          "time": 6.104651162790698,
          "velocity": 0.30708661417322836
        },
        {
          "duration": 0.03488372093023262,
          "durationTicks": 3,
          "midi": 54,
          "name": "F#3",
          "ticks": 526,
          "time": 6.116279069767442,
          "velocity": 0.3464566929133858
        },
        {
          "duration": 0.03488372093023262,
          "durationTicks": 3,
          "midi": 55,
          "name": "G3",
          "ticks": 529,
          "time": 6.151162790697675,
          "velocity": 0.18110236220472442
        },
        {
          "duration": 0.023255813953488413,
          "durationTicks": 2,
          "midi": 40,
          "name": "E2",
          "ticks": 533,
          "time": 6.1976744186046515,
          "velocity": 0.25984251968503935
        },
        {
          "duration": 0.023255813953488413,
          "durationTicks": 2,
          "midi": 79,
          "name": "G5",
          "ticks": 534,
          "time": 6.209302325581396,
          "velocity": 0.2283464566929134
        },
        {
          "duration": 0.03488372093023262,
          "durationTicks": 3,
          "midi": 86,
          "name": "D6",
          "ticks": 534,
          "time": 6.209302325581396,
          "velocity": 0.1889763779527559
        },
        {
          "duration": 0.023255813953488413,
          "durationTicks": 2,
          "midi": 48,
          "name": "C3",
          "ticks": 535,
          "time": 6.22093023255814,
          "velocity": 0.5433070866141733
        },
        {
          "duration": 0.08139534883720856,
          "durationTicks": 7,
          "midi": 63,
          "name": "D#4",
          "ticks": 535,
          "time": 6.22093023255814,
          "velocity": 0.6299212598425197
        },
        {
          "duration": 0.023255813953488413,
          "durationTicks": 2,
          "midi": 67,
          "name": "G4",
          "ticks": 535,
          "time": 6.22093023255814,
          "velocity": 0.3228346456692913
        },
        {
          "duration": 0.023255813953488413,
          "durationTicks": 2,
          "midi": 72,
          "name": "C5",
          "ticks": 535,
          "time": 6.22093023255814,
          "velocity": 0.2677165354330709
        },
        {
          "duration": 0.11627906976744118,
          "durationTicks": 10,
          "midi": 80,
          "name": "G#5",
          "ticks": 536,
          "time": 6.232558139534884,
          "velocity": 0.1968503937007874
        },
        {
          "duration": 0.03488372093023173,
          "durationTicks": 3,
          "midi": 49,
          "name": "C#3",
          "ticks": 537,
          "time": 6.244186046511628,
          "velocity": 0.5748031496062992
        },
        {
          "duration": 0.023255813953488413,
          "durationTicks": 2,
          "midi": 38,
          "name": "D2",
          "ticks": 538,
          "time": 6.255813953488372,
          "velocity": 0.3228346456692913
        },
        {
          "duration": 0.011627906976744207,
          "durationTicks": 1,
          "midi": 50,
          "name": "D3",
          "ticks": 540,
          "time": 6.27906976744186,
          "velocity": 0.5905511811023622
        },
        {
          "duration": 0.1627906976744189,
          "durationTicks": 14,
          "midi": 49,
          "name": "C#3",
          "ticks": 541,
          "time": 6.290697674418604,
          "velocity": 0.6456692913385826
        },
        {
          "duration": 0.023255813953488413,
          "durationTicks": 2,
          "midi": 31,
          "name": "G1",
          "ticks": 546,
          "time": 6.348837209302325,
          "velocity": 0.2755905511811024
        },
        {
          "duration": 0.09302325581395365,
          "durationTicks": 8,
          "midi": 80,
          "name": "G#5",
          "ticks": 547,
          "time": 6.3604651162790695,
          "velocity": 0.23622047244094488
        },
        {
          "duration": 0.04651162790697683,
          "durationTicks": 4,
          "midi": 68,
          "name": "G#4",
          "ticks": 550,
          "time": 6.395348837209302,
          "velocity": 0.10236220472440945
        },
        {
          "duration": 0.03488372093023262,
          "durationTicks": 3,
          "midi": 76,
          "name": "E5",
          "ticks": 554,
          "time": 6.441860465116279,
          "velocity": 0.1968503937007874
        },
        {
          "duration": 0.03488372093023262,
          "durationTicks": 3,
          "midi": 82,
          "name": "A#5",
          "ticks": 554,
          "time": 6.441860465116279,
          "velocity": 0.1732283464566929
        },
        {
          "duration": 0.03488372093023262,
          "durationTicks": 3,
          "midi": 87,
          "name": "D#6",
          "ticks": 554,
          "time": 6.441860465116279,
          "velocity": 0.1889763779527559
        },
        {
          "duration": 0.011627906976744207,
          "durationTicks": 1,
          "midi": 34,
          "name": "A#1",
          "ticks": 555,
          "time": 6.453488372093023,
          "velocity": 0.5433070866141733
        },
        {
          "duration": 0.011627906976744207,
          "durationTicks": 1,
          "midi": 50,
          "name": "D3",
          "ticks": 555,
          "time": 6.453488372093023,
          "velocity": 0.5590551181102362
        },
        {
          "duration": 0.011627906976744207,
          "durationTicks": 1,
          "midi": 64,
          "name": "E4",
          "ticks": 555,
          "time": 6.453488372093023,
          "velocity": 0.5590551181102362
        },
        {
          "duration": 0.08139534883720945,
          "durationTicks": 7,
          "midi": 70,
          "name": "A#4",
          "ticks": 555,
          "time": 6.453488372093023,
          "velocity": 0.2992125984251969
        },
        {
          "duration": 0.06976744186046524,
          "durationTicks": 6,
          "midi": 74,
          "name": "D5",
          "ticks": 555,
          "time": 6.453488372093023,
          "velocity": 0.2677165354330709
        },
        {
          "duration": 0.023255813953488413,
          "durationTicks": 2,
          "midi": 36,
          "name": "C2",
          "ticks": 556,
          "time": 6.465116279069767,
          "velocity": 0.5984251968503937
        },
        {
          "duration": 0.011627906976744207,
          "durationTicks": 1,
          "midi": 51,
          "name": "D#3",
          "ticks": 556,
          "time": 6.465116279069767,
          "velocity": 0.5118110236220472
        },
        {
          "duration": 0.13953488372093048,
          "durationTicks": 12,
          "midi": 63,
          "name": "D#4",
          "ticks": 556,
          "time": 6.465116279069767,
          "velocity": 0.5984251968503937
        },
        {
          "duration": 0.011627906976744207,
          "durationTicks": 1,
          "midi": 44,
          "name": "G#2",
          "ticks": 557,
          "time": 6.476744186046512,
          "velocity": 0.5433070866141733
        },
        {
          "duration": 0.011627906976744207,
          "durationTicks": 1,
          "midi": 52,
          "name": "E3",
          "ticks": 557,
          "time": 6.476744186046512,
          "velocity": 0.5433070866141733
        },
        {
          "duration": 0.011627906976744207,
          "durationTicks": 1,
          "midi": 30,
          "name": "F#1",
          "ticks": 558,
          "time": 6.488372093023256,
          "velocity": 0.5826771653543307
        },
        {
          "duration": 0.058139534883721034,
          "durationTicks": 5,
          "midi": 51,
          "name": "D#3",
          "ticks": 558,
          "time": 6.488372093023256,
          "velocity": 0.5511811023622047
        },
        {
          "duration": 0.03488372093023262,
          "durationTicks": 3,
          "midi": 42,
          "name": "F#2",
          "ticks": 559,
          "time": 6.5,
          "velocity": 0.6614173228346457
        },
        {
          "duration": 0.13953488372093048,
          "durationTicks": 12,
          "midi": 55,
          "name": "G3",
          "ticks": 560,
          "time": 6.511627906976744,
          "velocity": 0.48031496062992124
        },
        {
          "duration": 0.03488372093023262,
          "durationTicks": 3,
          "midi": 41,
          "name": "F2",
          "ticks": 565,
          "time": 6.569767441860465,
          "velocity": 0.31496062992125984
        },
        {
          "duration": 0.12790697674418539,
          "durationTicks": 11,
          "midi": 65,
          "name": "F4",
          "ticks": 574,
          "time": 6.674418604651163,
          "velocity": 0.6456692913385826
        },
        {
          "duration": 0.08139534883720856,
          "durationTicks": 7,
          "midi": 80,
          "name": "G#5",
          "ticks": 574,
          "time": 6.674418604651163,
          "velocity": 0.2440944881889764
        },
        {
          "duration": 0.09302325581395277,
          "durationTicks": 8,
          "midi": 83,
          "name": "B5",
          "ticks": 574,
          "time": 6.674418604651163,
          "velocity": 0.25196850393700787
        },
        {
          "duration": 0.023255813953488413,
          "durationTicks": 2,
          "midi": 48,
          "name": "C3",
          "ticks": 575,
          "time": 6.686046511627907,
          "velocity": 0.5669291338582677
        },
        {
          "duration": 0.09302325581395277,
          "durationTicks": 8,
          "midi": 61,
          "name": "C#4",
          "ticks": 576,
          "time": 6.6976744186046515,
          "velocity": 0.4094488188976378
        },
        {
          "duration": 0.011627906976744207,
          "durationTicks": 1,
          "midi": 46,
          "name": "A#2",
          "ticks": 577,
          "time": 6.709302325581396,
          "velocity": 0.5826771653543307
        },
        {
          "duration": 0.011627906976744207,
          "durationTicks": 1,
          "midi": 50,
          "name": "D3",
          "ticks": 578,
          "time": 6.72093023255814,
          "velocity": 0.6535433070866141
        },
        {
          "duration": 0.023255813953487525,
          "durationTicks": 2,
          "midi": 49,
          "name": "C#3",
          "ticks": 579,
          "time": 6.732558139534884,
          "velocity": 0.5669291338582677
        },
        {
          "duration": 0.023255813953488413,
          "durationTicks": 2,
          "midi": 50,
          "name": "D3",
          "ticks": 581,
          "time": 6.755813953488372,
          "velocity": 0.5196850393700787
        },
        {
          "duration": 0.023255813953488413,
          "durationTicks": 2,
          "midi": 49,
          "name": "C#3",
          "ticks": 583,
          "time": 6.77906976744186,
          "velocity": 0.30708661417322836
        },
        {
          "duration": 0.19767441860465151,
          "durationTicks": 17,
          "midi": 63,
          "name": "D#4",
          "ticks": 585,
          "time": 6.8023255813953485,
          "velocity": 0.5984251968503937
        },
        {
          "duration": 0.10465116279069786,
          "durationTicks": 9,
          "midi": 49,
          "name": "C#3",
          "ticks": 586,
          "time": 6.813953488372093,
          "velocity": 0.3937007874015748
        },
        {
          "duration": 0.10465116279069786,
          "durationTicks": 9,
          "midi": 70,
          "name": "A#4",
          "ticks": 594,
          "time": 6.906976744186046,
          "velocity": 0.28346456692913385
        },
        {
          "duration": 0.08139534883720945,
          "durationTicks": 7,
          "midi": 74,
          "name": "D5",
          "ticks": 594,
          "time": 6.906976744186046,
          "velocity": 0.23622047244094488
        },
        {
          "duration": 0.023255813953488413,
          "durationTicks": 2,
          "midi": 35,
          "name": "B1",
          "ticks": 595,
          "time": 6.9186046511627906,
          "velocity": 0.6220472440944882
        },
        {
          "duration": 0.011627906976744207,
          "durationTicks": 1,
          "midi": 50,
          "name": "D3",
          "ticks": 595,
          "time": 6.9186046511627906,
          "velocity": 0.5984251968503937
        },
        {
          "duration": 0.058139534883721034,
          "durationTicks": 5,
          "midi": 79,
          "name": "G5",
          "ticks": 595,
          "time": 6.9186046511627906,
          "velocity": 0.1889763779527559
        },
        {
          "duration": 0.1744186046511631,
          "durationTicks": 15,
          "midi": 51,
          "name": "D#3",
          "ticks": 596,
          "time": 6.930232558139535,
          "velocity": 0.6771653543307087
        },
        {
          "duration": 0.011627906976744207,
          "durationTicks": 1,
          "midi": 44,
          "name": "G#2",
          "ticks": 597,
          "time": 6.941860465116279,
          "velocity": 0.5196850393700787
        },
        {
          "duration": 0.011627906976744207,
          "durationTicks": 1,
          "midi": 41,
          "name": "F2",
          "ticks": 598,
          "time": 6.953488372093023,
          "velocity": 0.5905511811023622
        },
        {
          "duration": 0.023255813953488413,
          "durationTicks": 2,
          "midi": 42,
          "name": "F#2",
          "ticks": 599,
          "time": 6.965116279069767,
          "velocity": 0.6377952755905512
        },
        {
          "duration": 0.011627906976744207,
          "durationTicks": 1,
          "midi": 41,
          "name": "F2",
          "ticks": 601,
          "time": 6.988372093023256,
          "velocity": 0.5118110236220472
        },
        {
          "duration": 0.04651162790697683,
          "durationTicks": 4,
          "midi": 41,
          "name": "F2",
          "ticks": 604,
          "time": 7.023255813953488,
          "velocity": 0.25984251968503935
        },
        {
          "duration": 0.023255813953488413,
          "durationTicks": 2,
          "midi": 64,
          "name": "E4",
          "ticks": 613,
          "time": 7.127906976744186,
          "velocity": 0.4645669291338583
        },
        {
          "duration": 0.011627906976744207,
          "durationTicks": 1,
          "midi": 48,
          "name": "C3",
          "ticks": 615,
          "time": 7.151162790697675,
          "velocity": 0.5354330708661418
        },
        {
          "duration": 0.09302325581395365,
          "durationTicks": 8,
          "midi": 63,
          "name": "D#4",
          "ticks": 615,
          "time": 7.151162790697675,
          "velocity": 0.5984251968503937
        },
        {
          "duration": 0.1744186046511622,
          "durationTicks": 15,
          "midi": 49,
          "name": "C#3",
          "ticks": 616,
          "time": 7.162790697674419,
          "velocity": 0.5748031496062992
        },
        {
          "duration": 0.03488372093023262,
          "durationTicks": 3,
          "midi": 50,
          "name": "D3",
          "ticks": 634,
          "time": 7.372093023255814,
          "velocity": 0.6535433070866141
        },
        {
          "duration": 0.09302325581395365,
          "durationTicks": 8,
          "midi": 73,
          "name": "C#5",
          "ticks": 634,
          "time": 7.372093023255814,
          "velocity": 0.29133858267716534
        },
        {
          "duration": 0.12790697674418627,
          "durationTicks": 11,
          "midi": 82,
          "name": "A#5",
          "ticks": 634,
          "time": 7.372093023255814,
          "velocity": 0.30708661417322836
        },
        {
          "duration": 0.011627906976744207,
          "durationTicks": 1,
          "midi": 35,
          "name": "B1",
          "ticks": 635,
          "time": 7.383720930232558,
          "velocity": 0.6062992125984252
        },
        {
          "duration": 0.10465116279069786,
          "durationTicks": 9,
          "midi": 63,
          "name": "D#4",
          "ticks": 635,
          "time": 7.383720930232558,
          "velocity": 0.6220472440944882
        },
        {
          "duration": 0.12790697674418627,
          "durationTicks": 11,
          "midi": 70,
          "name": "A#4",
          "ticks": 635,
          "time": 7.383720930232558,
          "velocity": 0.28346456692913385
        },
        {
          "duration": 0.11627906976744207,
          "durationTicks": 10,
          "midi": 78,
          "name": "F#5",
          "ticks": 635,
          "time": 7.383720930232558,
          "velocity": 0.2992125984251969
        },
        {
          "duration": 0.011627906976744207,
          "durationTicks": 1,
          "midi": 40,
          "name": "E2",
          "ticks": 636,
          "time": 7.395348837209302,
          "velocity": 0.5984251968503937
        },
        {
          "duration": 0.023255813953488413,
          "durationTicks": 2,
          "midi": 43,
          "name": "G2",
          "ticks": 637,
          "time": 7.406976744186046,
          "velocity": 0.5118110236220472
        },
        {
          "duration": 0.08139534883720945,
          "durationTicks": 7,
          "midi": 51,
          "name": "D#3",
          "ticks": 637,
          "time": 7.406976744186046,
          "velocity": 0.6614173228346457
        },
        {
          "duration": 0.10465116279069786,
          "durationTicks": 9,
          "midi": 66,
          "name": "F#4",
          "ticks": 637,
          "time": 7.406976744186046,
          "velocity": 0.3779527559055118
        },
        {
          "duration": 0.011627906976744207,
          "durationTicks": 1,
          "midi": 42,
          "name": "F#2",
          "ticks": 639,
          "time": 7.430232558139535,
          "velocity": 0.6141732283464567
        },
        {
          "duration": 0.058139534883721034,
          "durationTicks": 5,
          "midi": 41,
          "name": "F2",
          "ticks": 640,
          "time": 7.441860465116279,
          "velocity": 0.6377952755905512
        },
        {
          "duration": 0.13953488372093048,
          "durationTicks": 12,
          "midi": 79,
          "name": "G5",
          "ticks": 644,
          "time": 7.488372093023256,
          "velocity": 0.4094488188976378
        },
        {
          "duration": 0.023255813953488413,
          "durationTicks": 2,
          "midi": 38,
          "name": "D2",
          "ticks": 645,
          "time": 7.5,
          "velocity": 0.30708661417322836
        },
        {
          "duration": 0.011627906976744207,
          "durationTicks": 1,
          "midi": 47,
          "name": "B2",
          "ticks": 645,
          "time": 7.5,
          "velocity": 0.5354330708661418
        },
        {
          "duration": 0.10465116279069786,
          "durationTicks": 9,
          "midi": 60,
          "name": "C4",
          "ticks": 645,
          "time": 7.5,
          "velocity": 0.5196850393700787
        },
        {
          "duration": 0.12790697674418627,
          "durationTicks": 11,
          "midi": 64,
          "name": "E4",
          "ticks": 645,
          "time": 7.5,
          "velocity": 0.36220472440944884
        },
        {
          "duration": 0.12790697674418627,
          "durationTicks": 11,
          "midi": 83,
          "name": "B5",
          "ticks": 645,
          "time": 7.5,
          "velocity": 0.1889763779527559
        },
        {
          "duration": 0.09302325581395365,
          "durationTicks": 8,
          "midi": 48,
          "name": "C3",
          "ticks": 646,
          "time": 7.511627906976744,
          "velocity": 0.5511811023622047
        },
        {
          "duration": 0.08139534883720945,
          "durationTicks": 7,
          "midi": 67,
          "name": "G4",
          "ticks": 648,
          "time": 7.534883720930233,
          "velocity": 0.25196850393700787
        },
        {
          "duration": 0.10465116279069786,
          "durationTicks": 9,
          "midi": 58,
          "name": "A#3",
          "ticks": 654,
          "time": 7.604651162790698,
          "velocity": 0.5511811023622047
        },
        {
          "duration": 0.023255813953488413,
          "durationTicks": 2,
          "midi": 45,
          "name": "A2",
          "ticks": 655,
          "time": 7.616279069767442,
          "velocity": 0.48031496062992124
        },
        {
          "duration": 0.10465116279069786,
          "durationTicks": 9,
          "midi": 73,
          "name": "C#5",
          "ticks": 655,
          "time": 7.616279069767442,
          "velocity": 0.2440944881889764
        },
        {
          "duration": 0.1395348837209296,
          "durationTicks": 12,
          "midi": 77,
          "name": "F5",
          "ticks": 655,
          "time": 7.616279069767442,
          "velocity": 0.4015748031496063
        },
        {
          "duration": 0.12790697674418627,
          "durationTicks": 11,
          "midi": 80,
          "name": "G#5",
          "ticks": 655,
          "time": 7.616279069767442,
          "velocity": 0.2125984251968504
        },
        {
          "duration": 0.09302325581395365,
          "durationTicks": 8,
          "midi": 65,
          "name": "F4",
          "ticks": 656,
          "time": 7.627906976744186,
          "velocity": 0.33070866141732286
        },
        {
          "duration": 0.08139534883720945,
          "durationTicks": 7,
          "midi": 46,
          "name": "A#2",
          "ticks": 657,
          "time": 7.6395348837209305,
          "velocity": 0.4645669291338583
        },
        {
          "duration": 0.023255813953488413,
          "durationTicks": 2,
          "midi": 61,
          "name": "C#4",
          "ticks": 662,
          "time": 7.6976744186046515,
          "velocity": 0.3858267716535433
        },
        {
          "duration": 0.023255813953488413,
          "durationTicks": 2,
          "midi": 60,
          "name": "C4",
          "ticks": 663,
          "time": 7.709302325581396,
          "velocity": 0.4094488188976378
        },
        {
          "duration": 0.011627906976744207,
          "durationTicks": 1,
          "midi": 64,
          "name": "E4",
          "ticks": 664,
          "time": 7.72093023255814,
          "velocity": 0.5275590551181102
        },
        {
          "duration": 0.12790697674418539,
          "durationTicks": 11,
          "midi": 74,
          "name": "D5",
          "ticks": 664,
          "time": 7.72093023255814,
          "velocity": 0.4015748031496063
        },
        {
          "duration": 0.11627906976744118,
          "durationTicks": 10,
          "midi": 90,
          "name": "F#6",
          "ticks": 664,
          "time": 7.72093023255814,
          "velocity": 0.13385826771653545
        },
        {
          "duration": 0.12790697674418539,
          "durationTicks": 11,
          "midi": 55,
          "name": "G3",
          "ticks": 665,
          "time": 7.732558139534884,
          "velocity": 0.5511811023622047
        },
        {
          "duration": 0.09302325581395277,
          "durationTicks": 8,
          "midi": 63,
          "name": "D#4",
          "ticks": 665,
          "time": 7.732558139534884,
          "velocity": 0.6141732283464567
        },
        {
          "duration": 0.10465116279069697,
          "durationTicks": 9,
          "midi": 71,
          "name": "B4",
          "ticks": 665,
          "time": 7.732558139534884,
          "velocity": 0.30708661417322836
        },
        {
          "duration": 0.09302325581395277,
          "durationTicks": 8,
          "midi": 59,
          "name": "B3",
          "ticks": 666,
          "time": 7.744186046511628,
          "velocity": 0.49606299212598426
        },
        {
          "duration": 0.08139534883720945,
          "durationTicks": 7,
          "midi": 43,
          "name": "G2",
          "ticks": 667,
          "time": 7.755813953488372,
          "velocity": 0.4566929133858268
        },
        {
          "duration": 0.03488372093023262,
          "durationTicks": 3,
          "midi": 77,
          "name": "F5",
          "ticks": 673,
          "time": 7.825581395348837,
          "velocity": 0.1889763779527559
        },
        {
          "duration": 0.03488372093023262,
          "durationTicks": 3,
          "midi": 78,
          "name": "F#5",
          "ticks": 673,
          "time": 7.825581395348837,
          "velocity": 0.2125984251968504
        },
        {
          "duration": 0.023255813953488413,
          "durationTicks": 2,
          "midi": 35,
          "name": "B1",
          "ticks": 674,
          "time": 7.837209302325581,
          "velocity": 0.6141732283464567
        },
        {
          "duration": 0.1860465116279073,
          "durationTicks": 16,
          "midi": 63,
          "name": "D#4",
          "ticks": 674,
          "time": 7.837209302325581,
          "velocity": 0.6141732283464567
        },
        {
          "duration": 0.023255813953488413,
          "durationTicks": 2,
          "midi": 69,
          "name": "A4",
          "ticks": 674,
          "time": 7.837209302325581,
          "velocity": 0.3464566929133858
        },
        {
          "duration": 0.023255813953488413,
          "durationTicks": 2,
          "midi": 50,
          "name": "D3",
          "ticks": 675,
          "time": 7.848837209302325,
          "velocity": 0.5196850393700787
        },
        {
          "duration": 0.011627906976744207,
          "durationTicks": 1,
          "midi": 41,
          "name": "F2",
          "ticks": 676,
          "time": 7.8604651162790695,
          "velocity": 0.5826771653543307
        },
        {
          "duration": 0.1511627906976738,
          "durationTicks": 13,
          "midi": 58,
          "name": "A#3",
          "ticks": 676,
          "time": 7.8604651162790695,
          "velocity": 0.48031496062992124
        },
        {
          "duration": 0.011627906976744207,
          "durationTicks": 1,
          "midi": 53,
          "name": "F3",
          "ticks": 677,
          "time": 7.872093023255814,
          "velocity": 0.5669291338582677
        },
        {
          "duration": 0.04651162790697683,
          "durationTicks": 4,
          "midi": 73,
          "name": "C#5",
          "ticks": 677,
          "time": 7.872093023255814,
          "velocity": 0.13385826771653545
        },
        {
          "duration": 0.011627906976744207,
          "durationTicks": 1,
          "midi": 44,
          "name": "G#2",
          "ticks": 678,
          "time": 7.883720930232558,
          "velocity": 0.5275590551181102
        },
        {
          "duration": 0.023255813953488413,
          "durationTicks": 2,
          "midi": 51,
          "name": "D#3",
          "ticks": 678,
          "time": 7.883720930232558,
          "velocity": 0.5039370078740157
        },
        {
          "duration": 0.011627906976744207,
          "durationTicks": 1,
          "midi": 42,
          "name": "F#2",
          "ticks": 679,
          "time": 7.895348837209302,
          "velocity": 0.6141732283464567
        },
        {
          "duration": 0.058139534883721034,
          "durationTicks": 5,
          "midi": 41,
          "name": "F2",
          "ticks": 680,
          "time": 7.906976744186046,
          "velocity": 0.6220472440944882
        },
        {
          "duration": 0.023255813953488413,
          "durationTicks": 2,
          "midi": 51,
          "name": "D#3",
          "ticks": 681,
          "time": 7.9186046511627906,
          "velocity": 0.33070866141732286
        },
        {
          "duration": 0.03488372093023351,
          "durationTicks": 3,
          "midi": 70,
          "name": "A#4",
          "ticks": 693,
          "time": 8.05813953488372,
          "velocity": 0.2204724409448819
        },
        {
          "duration": 0.03488372093023351,
          "durationTicks": 3,
          "midi": 76,
          "name": "E5",
          "ticks": 693,
          "time": 8.05813953488372,
          "velocity": 0.2047244094488189
        },
        {
          "duration": 0.03488372093023351,
          "durationTicks": 3,
          "midi": 79,
          "name": "G5",
          "ticks": 693,
          "time": 8.05813953488372,
          "velocity": 0.2047244094488189
        },
        {
          "duration": 0.023255813953488413,
          "durationTicks": 2,
          "midi": 29,
          "name": "F1",
          "ticks": 694,
          "time": 8.069767441860465,
          "velocity": 0.4015748031496063
        },
        {
          "duration": 0.011627906976743319,
          "durationTicks": 1,
          "midi": 64,
          "name": "E4",
          "ticks": 694,
          "time": 8.069767441860465,
          "velocity": 0.5590551181102362
        },
        {
          "duration": 0.011627906976745095,
          "durationTicks": 1,
          "midi": 48,
          "name": "C3",
          "ticks": 695,
          "time": 8.081395348837209,
          "velocity": 0.5354330708661418
        },
        {
          "duration": 0.15116279069767558,
          "durationTicks": 13,
          "midi": 55,
          "name": "G3",
          "ticks": 695,
          "time": 8.081395348837209,
          "velocity": 0.49606299212598426
        },
        {
          "duration": 0.15116279069767558,
          "durationTicks": 13,
          "midi": 63,
          "name": "D#4",
          "ticks": 695,
          "time": 8.081395348837209,
          "velocity": 0.6141732283464567
        },
        {
          "duration": 0.08139534883721034,
          "durationTicks": 7,
          "midi": 80,
          "name": "G#5",
          "ticks": 695,
          "time": 8.081395348837209,
          "velocity": 0.2204724409448819
        },
        {
          "duration": 0.10465116279069697,
          "durationTicks": 9,
          "midi": 49,
          "name": "C#3",
          "ticks": 696,
          "time": 8.093023255813954,
          "velocity": 0.5433070866141733
        },
        {
          "duration": 0.03488372093023351,
          "durationTicks": 3,
          "midi": 78,
          "name": "F#5",
          "ticks": 713,
          "time": 8.290697674418604,
          "velocity": 0.1732283464566929
        },
        {
          "duration": 0.011627906976743319,
          "durationTicks": 1,
          "midi": 35,
          "name": "B1",
          "ticks": 714,
          "time": 8.30232558139535,
          "velocity": 0.5433070866141733
        },
        {
          "duration": 0.011627906976743319,
          "durationTicks": 1,
          "midi": 64,
          "name": "E4",
          "ticks": 714,
          "time": 8.30232558139535,
          "velocity": 0.5511811023622047
        },
        {
          "duration": 0.023255813953488413,
          "durationTicks": 2,
          "midi": 69,
          "name": "A4",
          "ticks": 714,
          "time": 8.30232558139535,
          "velocity": 0.28346456692913385
        },
        {
          "duration": 0.011627906976745095,
          "durationTicks": 1,
          "midi": 40,
          "name": "E2",
          "ticks": 715,
          "time": 8.313953488372093,
          "velocity": 0.6141732283464567
        },
        {
          "duration": 0.023255813953488413,
          "durationTicks": 2,
          "midi": 50,
          "name": "D3",
          "ticks": 715,
          "time": 8.313953488372093,
          "velocity": 0.5275590551181102
        },
        {
          "duration": 0.13953488372093048,
          "durationTicks": 12,
          "midi": 63,
          "name": "D#4",
          "ticks": 715,
          "time": 8.313953488372093,
          "velocity": 0.5905511811023622
        },
        {
          "duration": 0.06976744186046524,
          "durationTicks": 6,
          "midi": 73,
          "name": "C#5",
          "ticks": 715,
          "time": 8.313953488372093,
          "velocity": 0.1732283464566929
        },
        {
          "duration": 0.011627906976743319,
          "durationTicks": 1,
          "midi": 41,
          "name": "F2",
          "ticks": 716,
          "time": 8.325581395348838,
          "velocity": 0.5669291338582677
        },
        {
          "duration": 0.058139534883720145,
          "durationTicks": 5,
          "midi": 70,
          "name": "A#4",
          "ticks": 716,
          "time": 8.325581395348838,
          "velocity": 0.1889763779527559
        },
        {
          "duration": 0.011627906976745095,
          "durationTicks": 1,
          "midi": 53,
          "name": "F3",
          "ticks": 717,
          "time": 8.337209302325581,
          "velocity": 0.5590551181102362
        },
        {
          "duration": 0.011627906976743319,
          "durationTicks": 1,
          "midi": 44,
          "name": "G#2",
          "ticks": 718,
          "time": 8.348837209302326,
          "velocity": 0.5511811023622047
        },
        {
          "duration": 0.023255813953488413,
          "durationTicks": 2,
          "midi": 51,
          "name": "D#3",
          "ticks": 718,
          "time": 8.348837209302326,
          "velocity": 0.4881889763779528
        },
        {
          "duration": 0.05813953488372192,
          "durationTicks": 5,
          "midi": 41,
          "name": "F2",
          "ticks": 719,
          "time": 8.36046511627907,
          "velocity": 0.6299212598425197
        },
        {
          "duration": 0.023255813953488413,
          "durationTicks": 2,
          "midi": 29,
          "name": "F1",
          "ticks": 734,
          "time": 8.534883720930232,
          "velocity": 0.4015748031496063
        },
        {
          "duration": 0.011627906976745095,
          "durationTicks": 1,
          "midi": 47,
          "name": "B2",
          "ticks": 734,
          "time": 8.534883720930232,
          "velocity": 0.5118110236220472
        },
        {
          "duration": 0.023255813953488413,
          "durationTicks": 2,
          "midi": 55,
          "name": "G3",
          "ticks": 734,
          "time": 8.534883720930232,
          "velocity": 0.49606299212598426
        },
        {
          "duration": 0.11627906976744207,
          "durationTicks": 10,
          "midi": 65,
          "name": "F4",
          "ticks": 734,
          "time": 8.534883720930232,
          "velocity": 0.6141732283464567
        },
        {
          "duration": 0.05813953488372192,
          "durationTicks": 5,
          "midi": 73,
          "name": "C#5",
          "ticks": 734,
          "time": 8.534883720930232,
          "velocity": 0.2204724409448819
        },
        {
          "duration": 0.08139534883721034,
          "durationTicks": 7,
          "midi": 80,
          "name": "G#5",
          "ticks": 734,
          "time": 8.534883720930232,
          "velocity": 0.2125984251968504
        },
        {
          "duration": 0.011627906976743319,
          "durationTicks": 1,
          "midi": 48,
          "name": "C3",
          "ticks": 735,
          "time": 8.546511627906977,
          "velocity": 0.5669291338582677
        },
        {
          "duration": 0.09302325581395365,
          "durationTicks": 8,
          "midi": 61,
          "name": "C#4",
          "ticks": 735,
          "time": 8.546511627906977,
          "velocity": 0.4015748031496063
        },
        {
          "duration": 0.10465116279069875,
          "durationTicks": 9,
          "midi": 49,
          "name": "C#3",
          "ticks": 736,
          "time": 8.55813953488372,
          "velocity": 0.5669291338582677
        },
        {
          "duration": 0.23255813953488413,
          "durationTicks": 20,
          "midi": 63,
          "name": "D#4",
          "ticks": 744,
          "time": 8.651162790697674,
          "velocity": 0.6062992125984252
        },
        {
          "duration": 0.09302325581395365,
          "durationTicks": 8,
          "midi": 82,
          "name": "A#5",
          "ticks": 753,
          "time": 8.755813953488373,
          "velocity": 0.2755905511811024
        },
        {
          "duration": 0.011627906976745095,
          "durationTicks": 1,
          "midi": 35,
          "name": "B1",
          "ticks": 754,
          "time": 8.767441860465116,
          "velocity": 0.6377952755905512
        },
        {
          "duration": 0.023255813953488413,
          "durationTicks": 2,
          "midi": 50,
          "name": "D3",
          "ticks": 754,
          "time": 8.767441860465116,
          "velocity": 0.6771653543307087
        },
        {
          "duration": 0.08139534883721034,
          "durationTicks": 7,
          "midi": 70,
          "name": "A#4",
          "ticks": 754,
          "time": 8.767441860465116,
          "velocity": 0.2755905511811024
        },
        {
          "duration": 0.08139534883721034,
          "durationTicks": 7,
          "midi": 73,
          "name": "C#5",
          "ticks": 754,
          "time": 8.767441860465116,
          "velocity": 0.2204724409448819
        },
        {
          "duration": 0.05813953488372192,
          "durationTicks": 5,
          "midi": 79,
          "name": "G5",
          "ticks": 754,
          "time": 8.767441860465116,
          "velocity": 0.1968503937007874
        },
        {
          "duration": 0.011627906976743319,
          "durationTicks": 1,
          "midi": 36,
          "name": "C2",
          "ticks": 755,
          "time": 8.779069767441861,
          "velocity": 0.6141732283464567
        },
        {
          "duration": 0.12790697674418716,
          "durationTicks": 11,
          "midi": 51,
          "name": "D#3",
          "ticks": 756,
          "time": 8.790697674418604,
          "velocity": 0.6929133858267716
        },
        {
          "duration": 0.011627906976743319,
          "durationTicks": 1,
          "midi": 43,
          "name": "G2",
          "ticks": 757,
          "time": 8.80232558139535,
          "velocity": 0.5196850393700787
        },
        {
          "duration": 0.011627906976745095,
          "durationTicks": 1,
          "midi": 42,
          "name": "F#2",
          "ticks": 758,
          "time": 8.813953488372093,
          "velocity": 0.5905511811023622
        },
        {
          "duration": 0.058139534883720145,
          "durationTicks": 5,
          "midi": 41,
          "name": "F2",
          "ticks": 759,
          "time": 8.825581395348838,
          "velocity": 0.6299212598425197
        },
        {
          "duration": 0.24418604651162745,
          "durationTicks": 21,
          "midi": 82,
          "name": "A#5",
          "ticks": 773,
          "time": 8.988372093023257,
          "velocity": 0.2125984251968504
        },
        {
          "duration": 0.22093023255813904,
          "durationTicks": 19,
          "midi": 63,
          "name": "D#4",
          "ticks": 774,
          "time": 9,
          "velocity": 0.5511811023622047
        },
        {
          "duration": 0.03488372093023173,
          "durationTicks": 3,
          "midi": 50,
          "name": "D3",
          "ticks": 778,
          "time": 9.046511627906977,
          "velocity": 0.12598425196850394
        },
        {
          "duration": 0.011627906976745095,
          "durationTicks": 1,
          "midi": 53,
          "name": "F3",
          "ticks": 793,
          "time": 9.220930232558139,
          "velocity": 0.5118110236220472
        },
        {
          "duration": 0.011627906976745095,
          "durationTicks": 1,
          "midi": 61,
          "name": "C#4",
          "ticks": 793,
          "time": 9.220930232558139,
          "velocity": 0.5118110236220472
        },
        {
          "duration": 0.023255813953488413,
          "durationTicks": 2,
          "midi": 64,
          "name": "E4",
          "ticks": 793,
          "time": 9.220930232558139,
          "velocity": 0.6614173228346457
        },
        {
          "duration": 0.023255813953488413,
          "durationTicks": 2,
          "midi": 70,
          "name": "A#4",
          "ticks": 793,
          "time": 9.220930232558139,
          "velocity": 0.33070866141732286
        },
        {
          "duration": 0.06976744186046524,
          "durationTicks": 6,
          "midi": 80,
          "name": "G#5",
          "ticks": 793,
          "time": 9.220930232558139,
          "velocity": 0.2755905511811024
        },
        {
          "duration": 0.10465116279069875,
          "durationTicks": 9,
          "midi": 83,
          "name": "B5",
          "ticks": 793,
          "time": 9.220930232558139,
          "velocity": 0.3228346456692913
        },
        {
          "duration": 0.10465116279069875,
          "durationTicks": 9,
          "midi": 90,
          "name": "F#6",
          "ticks": 793,
          "time": 9.220930232558139,
          "velocity": 0.14960629921259844
        },
        {
          "duration": 0.011627906976743319,
          "durationTicks": 1,
          "midi": 36,
          "name": "C2",
          "ticks": 794,
          "time": 9.232558139534884,
          "velocity": 0.6141732283464567
        },
        {
          "duration": 0.023255813953488413,
          "durationTicks": 2,
          "midi": 51,
          "name": "D#3",
          "ticks": 794,
          "time": 9.232558139534884,
          "velocity": 0.6220472440944882
        },
        {
          "duration": 0.011627906976743319,
          "durationTicks": 1,
          "midi": 60,
          "name": "C4",
          "ticks": 794,
          "time": 9.232558139534884,
          "velocity": 0.5196850393700787
        },
        {
          "duration": 0.06976744186046524,
          "durationTicks": 6,
          "midi": 74,
          "name": "D5",
          "ticks": 794,
          "time": 9.232558139534884,
          "velocity": 0.1968503937007874
        },
        {
          "duration": 0.011627906976745095,
          "durationTicks": 1,
          "midi": 40,
          "name": "E2",
          "ticks": 795,
          "time": 9.244186046511627,
          "velocity": 0.6062992125984252
        },
        {
          "duration": 0.023255813953488413,
          "durationTicks": 2,
          "midi": 59,
          "name": "B3",
          "ticks": 795,
          "time": 9.244186046511627,
          "velocity": 0.4409448818897638
        },
        {
          "duration": 0.08139534883721034,
          "durationTicks": 7,
          "midi": 63,
          "name": "D#4",
          "ticks": 795,
          "time": 9.244186046511627,
          "velocity": 0.6535433070866141
        },
        {
          "duration": 0.011627906976743319,
          "durationTicks": 1,
          "midi": 43,
          "name": "G2",
          "ticks": 796,
          "time": 9.255813953488373,
          "velocity": 0.5118110236220472
        },
        {
          "duration": 0.023255813953488413,
          "durationTicks": 2,
          "midi": 52,
          "name": "E3",
          "ticks": 796,
          "time": 9.255813953488373,
          "velocity": 0.6771653543307087
        },
        {
          "duration": 0.011627906976745095,
          "durationTicks": 1,
          "midi": 45,
          "name": "A2",
          "ticks": 797,
          "time": 9.267441860465116,
          "velocity": 0.5118110236220472
        },
        {
          "duration": 0.011627906976743319,
          "durationTicks": 1,
          "midi": 42,
          "name": "F#2",
          "ticks": 798,
          "time": 9.279069767441861,
          "velocity": 0.6377952755905512
        },
        {
          "duration": 0.011627906976743319,
          "durationTicks": 1,
          "midi": 51,
          "name": "D#3",
          "ticks": 798,
          "time": 9.279069767441861,
          "velocity": 0.6062992125984252
        },
        {
          "duration": 0.09302325581395365,
          "durationTicks": 8,
          "midi": 59,
          "name": "B3",
          "ticks": 798,
          "time": 9.279069767441861,
          "velocity": 0.4881889763779528
        },
        {
          "duration": 0.03488372093023351,
          "durationTicks": 3,
          "midi": 41,
          "name": "F2",
          "ticks": 799,
          "time": 9.290697674418604,
          "velocity": 0.6692913385826772
        },
        {
          "duration": 0.023255813953488413,
          "durationTicks": 2,
          "midi": 52,
          "name": "E3",
          "ticks": 799,
          "time": 9.290697674418604,
          "velocity": 0.6220472440944882
        },
        {
          "duration": 0.13953488372093048,
          "durationTicks": 12,
          "midi": 80,
          "name": "G#5",
          "ticks": 803,
          "time": 9.337209302325581,
          "velocity": 0.36220472440944884
        },
        {
          "duration": 0.011627906976743319,
          "durationTicks": 1,
          "midi": 48,
          "name": "C3",
          "ticks": 804,
          "time": 9.348837209302326,
          "velocity": 0.5196850393700787
        },
        {
          "duration": 0.10465116279069697,
          "durationTicks": 9,
          "midi": 68,
          "name": "G#4",
          "ticks": 804,
          "time": 9.348837209302326,
          "velocity": 0.2440944881889764
        },
        {
          "duration": 0.058139534883720145,
          "durationTicks": 5,
          "midi": 77,
          "name": "F5",
          "ticks": 804,
          "time": 9.348837209302326,
          "velocity": 0.2204724409448819
        },
        {
          "duration": 0.09302325581395365,
          "durationTicks": 8,
          "midi": 49,
          "name": "C#3",
          "ticks": 805,
          "time": 9.36046511627907,
          "velocity": 0.5196850393700787
        },
        {
          "duration": 0.16279069767441712,
          "durationTicks": 14,
          "midi": 71,
          "name": "B4",
          "ticks": 812,
          "time": 9.44186046511628,
          "velocity": 0.3858267716535433
        },
        {
          "duration": 0.023255813953488413,
          "durationTicks": 2,
          "midi": 30,
          "name": "F#1",
          "ticks": 813,
          "time": 9.453488372093023,
          "velocity": 0.2992125984251969
        },
        {
          "duration": 0.11627906976744207,
          "durationTicks": 10,
          "midi": 66,
          "name": "F#4",
          "ticks": 813,
          "time": 9.453488372093023,
          "velocity": 0.30708661417322836
        },
        {
          "duration": 0.06976744186046524,
          "durationTicks": 6,
          "midi": 74,
          "name": "D5",
          "ticks": 813,
          "time": 9.453488372093023,
          "velocity": 0.2440944881889764
        },
        {
          "duration": 0.1511627906976738,
          "durationTicks": 13,
          "midi": 78,
          "name": "F#5",
          "ticks": 813,
          "time": 9.453488372093023,
          "velocity": 0.3937007874015748
        },
        {
          "duration": 0.10465116279069697,
          "durationTicks": 9,
          "midi": 59,
          "name": "B3",
          "ticks": 814,
          "time": 9.465116279069768,
          "velocity": 0.5433070866141733
        },
        {
          "duration": 0.12790697674418539,
          "durationTicks": 11,
          "midi": 81,
          "name": "A5",
          "ticks": 814,
          "time": 9.465116279069768,
          "velocity": 0.2047244094488189
        },
        {
          "duration": 0.09302325581395365,
          "durationTicks": 8,
          "midi": 47,
          "name": "B2",
          "ticks": 815,
          "time": 9.476744186046512,
          "velocity": 0.49606299212598426
        },
        {
          "duration": 0.058139534883720145,
          "durationTicks": 5,
          "midi": 62,
          "name": "D4",
          "ticks": 819,
          "time": 9.523255813953488,
          "velocity": 0.47244094488188976
        },
        {
          "duration": 0.1511627906976738,
          "durationTicks": 13,
          "midi": 68,
          "name": "G#4",
          "ticks": 823,
          "time": 9.569767441860465,
          "velocity": 0.4015748031496063
        },
        {
          "duration": 0.1511627906976738,
          "durationTicks": 13,
          "midi": 75,
          "name": "D#5",
          "ticks": 823,
          "time": 9.569767441860465,
          "velocity": 0.3779527559055118
        },
        {
          "duration": 0.10465116279069875,
          "durationTicks": 9,
          "midi": 56,
          "name": "G#3",
          "ticks": 824,
          "time": 9.581395348837209,
          "velocity": 0.5433070866141733
        },
        {
          "duration": 0.10465116279069875,
          "durationTicks": 9,
          "midi": 63,
          "name": "D#4",
          "ticks": 824,
          "time": 9.581395348837209,
          "velocity": 0.5984251968503937
        },
        {
          "duration": 0.12790697674418716,
          "durationTicks": 11,
          "midi": 82,
          "name": "A#5",
          "ticks": 824,
          "time": 9.581395348837209,
          "velocity": 0.2204724409448819
        },
        {
          "duration": 0.09302325581395365,
          "durationTicks": 8,
          "midi": 44,
          "name": "G#2",
          "ticks": 825,
          "time": 9.593023255813954,
          "velocity": 0.49606299212598426
        },
        {
          "duration": 0.08139534883721034,
          "durationTicks": 7,
          "midi": 72,
          "name": "C5",
          "ticks": 826,
          "time": 9.604651162790697,
          "velocity": 0.14960629921259844
        },
        {
          "duration": 0.011627906976743319,
          "durationTicks": 1,
          "midi": 62,
          "name": "D4",
          "ticks": 833,
          "time": 9.686046511627907,
          "velocity": 0.5196850393700787
        },
        {
          "duration": 0.03488372093023173,
          "durationTicks": 3,
          "midi": 85,
          "name": "C#6",
          "ticks": 833,
          "time": 9.686046511627907,
          "velocity": 0.1889763779527559
        },
        {
          "duration": 0.011627906976745095,
          "durationTicks": 1,
          "midi": 36,
          "name": "C2",
          "ticks": 834,
          "time": 9.69767441860465,
          "velocity": 0.5984251968503937
        },
        {
          "duration": 0.023255813953488413,
          "durationTicks": 2,
          "midi": 51,
          "name": "D#3",
          "ticks": 834,
          "time": 9.69767441860465,
          "velocity": 0.49606299212598426
        },
        {
          "duration": 0.10465116279069875,
          "durationTicks": 9,
          "midi": 63,
          "name": "D#4",
          "ticks": 834,
          "time": 9.69767441860465,
          "velocity": 0.5984251968503937
        },
        {
          "duration": 0.15116279069767558,
          "durationTicks": 13,
          "midi": 78,
          "name": "F#5",
          "ticks": 834,
          "time": 9.69767441860465,
          "velocity": 0.31496062992125984
        },
        {
          "duration": 0.011627906976743319,
          "durationTicks": 1,
          "midi": 41,
          "name": "F2",
          "ticks": 835,
          "time": 9.709302325581396,
          "velocity": 0.5669291338582677
        },
        {
          "duration": 0.06976744186046524,
          "durationTicks": 6,
          "midi": 71,
          "name": "B4",
          "ticks": 835,
          "time": 9.709302325581396,
          "velocity": 0.18110236220472442
        },
        {
          "duration": 0.011627906976745095,
          "durationTicks": 1,
          "midi": 53,
          "name": "F3",
          "ticks": 836,
          "time": 9.720930232558139,
          "velocity": 0.5511811023622047
        },
        {
          "duration": 0.04651162790697683,
          "durationTicks": 4,
          "midi": 74,
          "name": "D5",
          "ticks": 836,
          "time": 9.720930232558139,
          "velocity": 0.15748031496062992
        },
        {
          "duration": 0.011627906976743319,
          "durationTicks": 1,
          "midi": 44,
          "name": "G#2",
          "ticks": 837,
          "time": 9.732558139534884,
          "velocity": 0.5275590551181102
        },
        {
          "duration": 0.04651162790697683,
          "durationTicks": 4,
          "midi": 41,
          "name": "F2",
          "ticks": 838,
          "time": 9.744186046511627,
          "velocity": 0.6692913385826772
        },
        {
          "duration": 0.10465116279069875,
          "durationTicks": 9,
          "midi": 66,
          "name": "F#4",
          "ticks": 838,
          "time": 9.744186046511627,
          "velocity": 0.33070866141732286
        },
        {
          "duration": 0.023255813953488413,
          "durationTicks": 2,
          "midi": 55,
          "name": "G3",
          "ticks": 839,
          "time": 9.755813953488373,
          "velocity": 0.47244094488188976
        },
        {
          "duration": 0.06976744186046524,
          "durationTicks": 6,
          "midi": 55,
          "name": "G3",
          "ticks": 842,
          "time": 9.790697674418604,
          "velocity": 0.2440944881889764
        },
        {
          "duration": 0.023255813953488413,
          "durationTicks": 2,
          "midi": 41,
          "name": "F2",
          "ticks": 845,
          "time": 9.825581395348838,
          "velocity": 0.33070866141732286
        },
        {
          "duration": 0.058139534883720145,
          "durationTicks": 5,
          "midi": 40,
          "name": "E2",
          "ticks": 847,
          "time": 9.848837209302326,
          "velocity": 0.2283464566929134
        },
        {
          "duration": 0.023255813953488413,
          "durationTicks": 2,
          "midi": 79,
          "name": "G5",
          "ticks": 852,
          "time": 9.906976744186046,
          "velocity": 0.2440944881889764
        },
        {
          "duration": 0.03488372093023351,
          "durationTicks": 3,
          "midi": 82,
          "name": "A#5",
          "ticks": 852,
          "time": 9.906976744186046,
          "velocity": 0.1732283464566929
        },
        {
          "duration": 0.03488372093023351,
          "durationTicks": 3,
          "midi": 86,
          "name": "D6",
          "ticks": 852,
          "time": 9.906976744186046,
          "velocity": 0.1889763779527559
        },
        {
          "duration": 0.03488372093023351,
          "durationTicks": 3,
          "midi": 87,
          "name": "D#6",
          "ticks": 852,
          "time": 9.906976744186046,
          "velocity": 0.1968503937007874
        },
        {
          "duration": 0.023255813953488413,
          "durationTicks": 2,
          "midi": 48,
          "name": "C3",
          "ticks": 853,
          "time": 9.918604651162791,
          "velocity": 0.5433070866141733
        },
        {
          "duration": 0.1744186046511622,
          "durationTicks": 15,
          "midi": 63,
          "name": "D#4",
          "ticks": 853,
          "time": 9.918604651162791,
          "velocity": 0.6299212598425197
        },
        {
          "duration": 0.023255813953488413,
          "durationTicks": 2,
          "midi": 67,
          "name": "G4",
          "ticks": 853,
          "time": 9.918604651162791,
          "velocity": 0.33070866141732286
        },
        {
          "duration": 0.023255813953488413,
          "durationTicks": 2,
          "midi": 72,
          "name": "C5",
          "ticks": 853,
          "time": 9.918604651162791,
          "velocity": 0.2677165354330709
        },
        {
          "duration": 0.08139534883720856,
          "durationTicks": 7,
          "midi": 80,
          "name": "G#5",
          "ticks": 854,
          "time": 9.930232558139535,
          "velocity": 0.2125984251968504
        },
        {
          "duration": 0.03488372093023173,
          "durationTicks": 3,
          "midi": 49,
          "name": "C#3",
          "ticks": 855,
          "time": 9.94186046511628,
          "velocity": 0.5748031496062992
        },
        {
          "duration": 0.011627906976745095,
          "durationTicks": 1,
          "midi": 50,
          "name": "D3",
          "ticks": 858,
          "time": 9.976744186046512,
          "velocity": 0.5669291338582677
        },
        {
          "duration": 0.023255813953488413,
          "durationTicks": 2,
          "midi": 49,
          "name": "C#3",
          "ticks": 861,
          "time": 10.011627906976743,
          "velocity": 0.29133858267716534
        },
        {
          "duration": 0.03488372093023173,
          "durationTicks": 3,
          "midi": 80,
          "name": "G#5",
          "ticks": 872,
          "time": 10.13953488372093,
          "velocity": 0.1889763779527559
        },
        {
          "duration": 0.03488372093023173,
          "durationTicks": 3,
          "midi": 82,
          "name": "A#5",
          "ticks": 872,
          "time": 10.13953488372093,
          "velocity": 0.1889763779527559
        },
        {
          "duration": 0.011627906976745095,
          "durationTicks": 1,
          "midi": 35,
          "name": "B1",
          "ticks": 873,
          "time": 10.151162790697674,
          "velocity": 0.5433070866141733
        },
        {
          "duration": 0.03488372093023351,
          "durationTicks": 3,
          "midi": 51,
          "name": "D#3",
          "ticks": 873,
          "time": 10.151162790697674,
          "velocity": 0.5354330708661418
        },
        {
          "duration": 0.13953488372093048,
          "durationTicks": 12,
          "midi": 63,
          "name": "D#4",
          "ticks": 873,
          "time": 10.151162790697674,
          "velocity": 0.6220472440944882
        },
        {
          "duration": 0.08139534883721034,
          "durationTicks": 7,
          "midi": 74,
          "name": "D5",
          "ticks": 873,
          "time": 10.151162790697674,
          "velocity": 0.25984251968503935
        },
        {
          "duration": 0.011627906976743319,
          "durationTicks": 1,
          "midi": 40,
          "name": "E2",
          "ticks": 874,
          "time": 10.162790697674419,
          "velocity": 0.6141732283464567
        },
        {
          "duration": 0.08139534883720856,
          "durationTicks": 7,
          "midi": 71,
          "name": "B4",
          "ticks": 874,
          "time": 10.162790697674419,
          "velocity": 0.2047244094488189
        },
        {
          "duration": 0.023255813953488413,
          "durationTicks": 2,
          "midi": 41,
          "name": "F2",
          "ticks": 875,
          "time": 10.174418604651162,
          "velocity": 0.5433070866141733
        },
        {
          "duration": 0.011627906976743319,
          "durationTicks": 1,
          "midi": 53,
          "name": "F3",
          "ticks": 876,
          "time": 10.186046511627907,
          "velocity": 0.5433070866141733
        },
        {
          "duration": 0.04651162790697683,
          "durationTicks": 4,
          "midi": 67,
          "name": "G4",
          "ticks": 876,
          "time": 10.186046511627907,
          "velocity": 0.10236220472440945
        },
        {
          "duration": 0.011627906976745095,
          "durationTicks": 1,
          "midi": 35,
          "name": "B1",
          "ticks": 877,
          "time": 10.19767441860465,
          "velocity": 0.5669291338582677
        },
        {
          "duration": 0.023255813953488413,
          "durationTicks": 2,
          "midi": 52,
          "name": "E3",
          "ticks": 877,
          "time": 10.19767441860465,
          "velocity": 0.5118110236220472
        },
        {
          "duration": 0.04651162790697683,
          "durationTicks": 4,
          "midi": 41,
          "name": "F2",
          "ticks": 878,
          "time": 10.209302325581396,
          "velocity": 0.6614173228346457
        },
        {
          "duration": 0.12790697674418716,
          "durationTicks": 11,
          "midi": 55,
          "name": "G3",
          "ticks": 879,
          "time": 10.220930232558139,
          "velocity": 0.44881889763779526
        },
        {
          "duration": 0.023255813953488413,
          "durationTicks": 2,
          "midi": 41,
          "name": "F2",
          "ticks": 885,
          "time": 10.290697674418604,
          "velocity": 0.3228346456692913
        },
        {
          "duration": 0.05813953488372192,
          "durationTicks": 5,
          "midi": 40,
          "name": "E2",
          "ticks": 887,
          "time": 10.313953488372093,
          "velocity": 0.23622047244094488
        },
        {
          "duration": 0.12790697674418539,
          "durationTicks": 11,
          "midi": 65,
          "name": "F4",
          "ticks": 892,
          "time": 10.372093023255815,
          "velocity": 0.6535433070866141
        },
        {
          "duration": 0.03488372093023173,
          "durationTicks": 3,
          "midi": 84,
          "name": "C6",
          "ticks": 892,
          "time": 10.372093023255815,
          "velocity": 0.2125984251968504
        },
        {
          "duration": 0.023255813953488413,
          "durationTicks": 2,
          "midi": 48,
          "name": "C3",
          "ticks": 893,
          "time": 10.383720930232558,
          "velocity": 0.5511811023622047
        },
        {
          "duration": 0.06976744186046524,
          "durationTicks": 6,
          "midi": 80,
          "name": "G#5",
          "ticks": 893,
          "time": 10.383720930232558,
          "velocity": 0.2440944881889764
        },
        {
          "duration": 0.08139534883721034,
          "durationTicks": 7,
          "midi": 83,
          "name": "B5",
          "ticks": 893,
          "time": 10.383720930232558,
          "velocity": 0.2204724409448819
        },
        {
          "duration": 0.09302325581395365,
          "durationTicks": 8,
          "midi": 61,
          "name": "C#4",
          "ticks": 894,
          "time": 10.395348837209303,
          "velocity": 0.4015748031496063
        },
        {
          "duration": 0.011627906976745095,
          "durationTicks": 1,
          "midi": 46,
          "name": "A#2",
          "ticks": 895,
          "time": 10.406976744186046,
          "velocity": 0.5826771653543307
        },
        {
          "duration": 0.011627906976743319,
          "durationTicks": 1,
          "midi": 50,
          "name": "D3",
          "ticks": 896,
          "time": 10.418604651162791,
          "velocity": 0.6535433070866141
        },
        {
          "duration": 0.023255813953488413,
          "durationTicks": 2,
          "midi": 49,
          "name": "C#3",
          "ticks": 897,
          "time": 10.430232558139535,
          "velocity": 0.5669291338582677
        },
        {
          "duration": 0.023255813953488413,
          "durationTicks": 2,
          "midi": 50,
          "name": "D3",
          "ticks": 899,
          "time": 10.453488372093023,
          "velocity": 0.5196850393700787
        },
        {
          "duration": 0.23255813953488413,
          "durationTicks": 20,
          "midi": 63,
          "name": "D#4",
          "ticks": 903,
          "time": 10.5,
          "velocity": 0.6062992125984252
        },
        {
          "duration": 0.023255813953488413,
          "durationTicks": 2,
          "midi": 70,
          "name": "A#4",
          "ticks": 912,
          "time": 10.604651162790697,
          "velocity": 0.28346456692913385
        },
        {
          "duration": 0.09302325581395365,
          "durationTicks": 8,
          "midi": 74,
          "name": "D5",
          "ticks": 912,
          "time": 10.604651162790697,
          "velocity": 0.25196850393700787
        },
        {
          "duration": 0.011627906976743319,
          "durationTicks": 1,
          "midi": 36,
          "name": "C2",
          "ticks": 913,
          "time": 10.616279069767442,
          "velocity": 0.6141732283464567
        },
        {
          "duration": 0.011627906976745095,
          "durationTicks": 1,
          "midi": 40,
          "name": "E2",
          "ticks": 914,
          "time": 10.627906976744185,
          "velocity": 0.6299212598425197
        },
        {
          "duration": 0.08139534883721034,
          "durationTicks": 7,
          "midi": 71,
          "name": "B4",
          "ticks": 914,
          "time": 10.627906976744185,
          "velocity": 0.2047244094488189
        },
        {
          "duration": 0.011627906976743319,
          "durationTicks": 1,
          "midi": 43,
          "name": "G2",
          "ticks": 915,
          "time": 10.63953488372093,
          "velocity": 0.5275590551181102
        },
        {
          "duration": 0.03488372093023173,
          "durationTicks": 3,
          "midi": 55,
          "name": "G3",
          "ticks": 915,
          "time": 10.63953488372093,
          "velocity": 0.5511811023622047
        },
        {
          "duration": 0.058139534883720145,
          "durationTicks": 5,
          "midi": 41,
          "name": "F2",
          "ticks": 917,
          "time": 10.662790697674419,
          "velocity": 0.6850393700787402
        },
        {
          "duration": 0.04651162790697683,
          "durationTicks": 4,
          "midi": 51,
          "name": "D#3",
          "ticks": 917,
          "time": 10.662790697674419,
          "velocity": 0.5590551181102362
        },
        {
          "duration": 0.023255813953488413,
          "durationTicks": 2,
          "midi": 52,
          "name": "E3",
          "ticks": 921,
          "time": 10.709302325581396,
          "velocity": 0.3543307086614173
        },
        {
          "duration": 0.023255813953488413,
          "durationTicks": 2,
          "midi": 39,
          "name": "D#2",
          "ticks": 922,
          "time": 10.720930232558139,
          "velocity": 0.3858267716535433
        },
        {
          "duration": 0.08139534883721034,
          "durationTicks": 7,
          "midi": 55,
          "name": "G3",
          "ticks": 922,
          "time": 10.720930232558139,
          "velocity": 0.2125984251968504
        },
        {
          "duration": 0.08139534883721034,
          "durationTicks": 7,
          "midi": 40,
          "name": "E2",
          "ticks": 926,
          "time": 10.767441860465116,
          "velocity": 0.2755905511811024
        },
        {
          "duration": 0.023255813953488413,
          "durationTicks": 2,
          "midi": 64,
          "name": "E4",
          "ticks": 931,
          "time": 10.825581395348838,
          "velocity": 0.4881889763779528
        },
        {
          "duration": 0.023255813953488413,
          "durationTicks": 2,
          "midi": 72,
          "name": "C5",
          "ticks": 932,
          "time": 10.837209302325581,
          "velocity": 0.2755905511811024
        },
        {
          "duration": 0.06976744186046524,
          "durationTicks": 6,
          "midi": 63,
          "name": "D#4",
          "ticks": 933,
          "time": 10.848837209302326,
          "velocity": 0.6220472440944882
        },
        {
          "duration": 0.24418604651162745,
          "durationTicks": 21,
          "midi": 92,
          "name": "G#6",
          "ticks": 933,
          "time": 10.848837209302326,
          "velocity": 0.2204724409448819
        },
        {
          "duration": 0.20930232558139572,
          "durationTicks": 18,
          "midi": 73,
          "name": "C#5",
          "ticks": 934,
          "time": 10.86046511627907,
          "velocity": 0.2047244094488189
        },
        {
          "duration": 0.03488372093023351,
          "durationTicks": 3,
          "midi": 41,
          "name": "F2",
          "ticks": 938,
          "time": 10.906976744186046,
          "velocity": 0.1968503937007874
        },
        {
          "duration": 0.1511627906976738,
          "durationTicks": 13,
          "midi": 61,
          "name": "C#4",
          "ticks": 939,
          "time": 10.918604651162791,
          "velocity": 0.41732283464566927
        },
        {
          "duration": 0.011627906976743319,
          "durationTicks": 1,
          "midi": 62,
          "name": "D4",
          "ticks": 952,
          "time": 11.069767441860465,
          "velocity": 0.5354330708661418
        },
        {
          "duration": 0.03488372093023173,
          "durationTicks": 3,
          "midi": 72,
          "name": "C5",
          "ticks": 952,
          "time": 11.069767441860465,
          "velocity": 0.2204724409448819
        },
        {
          "duration": 0.058139534883720145,
          "durationTicks": 5,
          "midi": 80,
          "name": "G#5",
          "ticks": 952,
          "time": 11.069767441860465,
          "velocity": 0.23622047244094488
        },
        {
          "duration": 0.03488372093023173,
          "durationTicks": 3,
          "midi": 82,
          "name": "A#5",
          "ticks": 952,
          "time": 11.069767441860465,
          "velocity": 0.11811023622047244
        },
        {
          "duration": 0.11627906976744207,
          "durationTicks": 10,
          "midi": 83,
          "name": "B5",
          "ticks": 952,
          "time": 11.069767441860465,
          "velocity": 0.29133858267716534
        },
        {
          "duration": 0.011627906976745095,
          "durationTicks": 1,
          "midi": 36,
          "name": "C2",
          "ticks": 953,
          "time": 11.081395348837209,
          "velocity": 0.5826771653543307
        },
        {
          "duration": 0.011627906976745095,
          "durationTicks": 1,
          "midi": 51,
          "name": "D#3",
          "ticks": 953,
          "time": 11.081395348837209,
          "velocity": 0.5905511811023622
        },
        {
          "duration": 0.023255813953488413,
          "durationTicks": 2,
          "midi": 57,
          "name": "A3",
          "ticks": 953,
          "time": 11.081395348837209,
          "velocity": 0.4881889763779528
        },
        {
          "duration": 0.023255813953488413,
          "durationTicks": 2,
          "midi": 64,
          "name": "E4",
          "ticks": 953,
          "time": 11.081395348837209,
          "velocity": 0.6692913385826772
        },
        {
          "duration": 0.023255813953488413,
          "durationTicks": 2,
          "midi": 67,
          "name": "G4",
          "ticks": 953,
          "time": 11.081395348837209,
          "velocity": 0.33070866141732286
        },
        {
          "duration": 0.10465116279069875,
          "durationTicks": 9,
          "midi": 75,
          "name": "D#5",
          "ticks": 953,
          "time": 11.081395348837209,
          "velocity": 0.28346456692913385
        },
        {
          "duration": 0.023255813953488413,
          "durationTicks": 2,
          "midi": 41,
          "name": "F2",
          "ticks": 954,
          "time": 11.093023255813954,
          "velocity": 0.5748031496062992
        },
        {
          "duration": 0.011627906976743319,
          "durationTicks": 1,
          "midi": 52,
          "name": "E3",
          "ticks": 954,
          "time": 11.093023255813954,
          "velocity": 0.6141732283464567
        },
        {
          "duration": 0.023255813953488413,
          "durationTicks": 2,
          "midi": 63,
          "name": "D#4",
          "ticks": 955,
          "time": 11.104651162790697,
          "velocity": 0.5669291338582677
        },
        {
          "duration": 0.03488372093023351,
          "durationTicks": 3,
          "midi": 68,
          "name": "G#4",
          "ticks": 955,
          "time": 11.104651162790697,
          "velocity": 0.09448818897637795
        },
        {
          "duration": 0.09302325581395365,
          "durationTicks": 8,
          "midi": 71,
          "name": "B4",
          "ticks": 955,
          "time": 11.104651162790697,
          "velocity": 0.29133858267716534
        },
        {
          "duration": 0.011627906976743319,
          "durationTicks": 1,
          "midi": 38,
          "name": "D2",
          "ticks": 956,
          "time": 11.116279069767442,
          "velocity": 0.5669291338582677
        },
        {
          "duration": 0.04651162790697683,
          "durationTicks": 4,
          "midi": 56,
          "name": "G#3",
          "ticks": 956,
          "time": 11.116279069767442,
          "velocity": 0.4645669291338583
        },
        {
          "duration": 0.011627906976745095,
          "durationTicks": 1,
          "midi": 41,
          "name": "F2",
          "ticks": 957,
          "time": 11.127906976744185,
          "velocity": 0.6692913385826772
        },
        {
          "duration": 0.023255813953488413,
          "durationTicks": 2,
          "midi": 42,
          "name": "F#2",
          "ticks": 958,
          "time": 11.13953488372093,
          "velocity": 0.6692913385826772
        },
        {
          "duration": 0.03488372093023173,
          "durationTicks": 3,
          "midi": 64,
          "name": "E4",
          "ticks": 958,
          "time": 11.13953488372093,
          "velocity": 0.5118110236220472
        },
        {
          "duration": 0.011627906976743319,
          "durationTicks": 1,
          "midi": 41,
          "name": "F2",
          "ticks": 960,
          "time": 11.162790697674419,
          "velocity": 0.5118110236220472
        },
        {
          "duration": 0.023255813953488413,
          "durationTicks": 2,
          "midi": 52,
          "name": "E3",
          "ticks": 960,
          "time": 11.162790697674419,
          "velocity": 0.4094488188976378
        },
        {
          "duration": 0.023255813953488413,
          "durationTicks": 2,
          "midi": 63,
          "name": "D#4",
          "ticks": 961,
          "time": 11.174418604651162,
          "velocity": 0.36220472440944884
        },
        {
          "duration": 0.13953488372093048,
          "durationTicks": 12,
          "midi": 80,
          "name": "G#5",
          "ticks": 962,
          "time": 11.186046511627907,
          "velocity": 0.36220472440944884
        },
        {
          "duration": 0.011627906976745095,
          "durationTicks": 1,
          "midi": 48,
          "name": "C3",
          "ticks": 963,
          "time": 11.19767441860465,
          "velocity": 0.5118110236220472
        },
        {
          "duration": 0.11627906976744207,
          "durationTicks": 10,
          "midi": 61,
          "name": "C#4",
          "ticks": 963,
          "time": 11.19767441860465,
          "velocity": 0.4566929133858268
        },
        {
          "duration": 0.10465116279069875,
          "durationTicks": 9,
          "midi": 68,
          "name": "G#4",
          "ticks": 963,
          "time": 11.19767441860465,
          "velocity": 0.2283464566929134
        },
        {
          "duration": 0.05813953488372192,
          "durationTicks": 5,
          "midi": 77,
          "name": "F5",
          "ticks": 963,
          "time": 11.19767441860465,
          "velocity": 0.2125984251968504
        },
        {
          "duration": 0.09302325581395365,
          "durationTicks": 8,
          "midi": 49,
          "name": "C#3",
          "ticks": 964,
          "time": 11.209302325581396,
          "velocity": 0.5196850393700787
        },
        {
          "duration": 0.03488372093023173,
          "durationTicks": 3,
          "midi": 71,
          "name": "B4",
          "ticks": 972,
          "time": 11.30232558139535,
          "velocity": 0.3543307086614173
        },
        {
          "duration": 0.1511627906976738,
          "durationTicks": 13,
          "midi": 78,
          "name": "F#5",
          "ticks": 972,
          "time": 11.30232558139535,
          "velocity": 0.3779527559055118
        },
        {
          "duration": 0.023255813953488413,
          "durationTicks": 2,
          "midi": 29,
          "name": "F1",
          "ticks": 973,
          "time": 11.313953488372093,
          "velocity": 0.3228346456692913
        },
        {
          "duration": 0.04651162790697683,
          "durationTicks": 4,
          "midi": 59,
          "name": "B3",
          "ticks": 973,
          "time": 11.313953488372093,
          "velocity": 0.6220472440944882
        },
        {
          "duration": 0.09302325581395365,
          "durationTicks": 8,
          "midi": 66,
          "name": "F#4",
          "ticks": 973,
          "time": 11.313953488372093,
          "velocity": 0.2992125984251969
        },
        {
          "duration": 0.09302325581395365,
          "durationTicks": 8,
          "midi": 47,
          "name": "B2",
          "ticks": 974,
          "time": 11.325581395348838,
          "velocity": 0.4881889763779528
        },
        {
          "duration": 0.09302325581395365,
          "durationTicks": 8,
          "midi": 89,
          "name": "F6",
          "ticks": 974,
          "time": 11.325581395348838,
          "velocity": 0.07874015748031496
        },
        {
          "duration": 0.2906976744186043,
          "durationTicks": 25,
          "midi": 75,
          "name": "D#5",
          "ticks": 976,
          "time": 11.348837209302326,
          "velocity": 0.4409448818897638
        },
        {
          "duration": 0.08139534883721034,
          "durationTicks": 7,
          "midi": 58,
          "name": "A#3",
          "ticks": 977,
          "time": 11.36046511627907,
          "velocity": 0.5590551181102362
        },
        {
          "duration": 0.03488372093023351,
          "durationTicks": 3,
          "midi": 86,
          "name": "D6",
          "ticks": 981,
          "time": 11.406976744186046,
          "velocity": 0.2047244094488189
        },
        {
          "duration": 0.011627906976743319,
          "durationTicks": 1,
          "midi": 64,
          "name": "E4",
          "ticks": 982,
          "time": 11.418604651162791,
          "velocity": 0.5511811023622047
        },
        {
          "duration": 0.16279069767441712,
          "durationTicks": 14,
          "midi": 68,
          "name": "G#4",
          "ticks": 982,
          "time": 11.418604651162791,
          "velocity": 0.4645669291338583
        },
        {
          "duration": 0.19767441860465063,
          "durationTicks": 17,
          "midi": 63,
          "name": "D#4",
          "ticks": 983,
          "time": 11.430232558139535,
          "velocity": 0.6220472440944882
        },
        {
          "duration": 0.09302325581395188,
          "durationTicks": 8,
          "midi": 44,
          "name": "G#2",
          "ticks": 984,
          "time": 11.44186046511628,
          "velocity": 0.49606299212598426
        },
        {
          "duration": 0.08139534883720856,
          "durationTicks": 7,
          "midi": 72,
          "name": "C5",
          "ticks": 985,
          "time": 11.453488372093023,
          "velocity": 0.14960629921259844
        },
        {
          "duration": 0.06976744186046524,
          "durationTicks": 6,
          "midi": 56,
          "name": "G#3",
          "ticks": 989,
          "time": 11.5,
          "velocity": 0.5354330708661418
        },
        {
          "duration": 0.023255813953488413,
          "durationTicks": 2,
          "midi": 71,
          "name": "B4",
          "ticks": 991,
          "time": 11.523255813953488,
          "velocity": 0.25984251968503935
        },
        {
          "duration": 0.03488372093023173,
          "durationTicks": 3,
          "midi": 78,
          "name": "F#5",
          "ticks": 991,
          "time": 11.523255813953488,
          "velocity": 0.2125984251968504
        },
        {
          "duration": 0.03488372093023173,
          "durationTicks": 3,
          "midi": 84,
          "name": "C6",
          "ticks": 991,
          "time": 11.523255813953488,
          "velocity": 0.1968503937007874
        },
        {
          "duration": 0.011627906976745095,
          "durationTicks": 1,
          "midi": 35,
          "name": "B1",
          "ticks": 992,
          "time": 11.534883720930232,
          "velocity": 0.5354330708661418
        },
        {
          "duration": 0.011627906976743319,
          "durationTicks": 1,
          "midi": 40,
          "name": "E2",
          "ticks": 993,
          "time": 11.546511627906977,
          "velocity": 0.6062992125984252
        },
        {
          "duration": 0.06976744186046524,
          "durationTicks": 6,
          "midi": 72,
          "name": "C5",
          "ticks": 993,
          "time": 11.546511627906977,
          "velocity": 0.25196850393700787
        },
        {
          "duration": 0.12790697674418539,
          "durationTicks": 11,
          "midi": 82,
          "name": "A#5",
          "ticks": 993,
          "time": 11.546511627906977,
          "velocity": 0.16535433070866143
        },
        {
          "duration": 0.011627906976745095,
          "durationTicks": 1,
          "midi": 41,
          "name": "F2",
          "ticks": 994,
          "time": 11.55813953488372,
          "velocity": 0.5511811023622047
        },
        {
          "duration": 0.023255813953488413,
          "durationTicks": 2,
          "midi": 52,
          "name": "E3",
          "ticks": 995,
          "time": 11.569767441860465,
          "velocity": 0.5984251968503937
        },
        {
          "duration": 0.011627906976745095,
          "durationTicks": 1,
          "midi": 38,
          "name": "D2",
          "ticks": 996,
          "time": 11.581395348837209,
          "velocity": 0.5984251968503937
        },
        {
          "duration": 0.023255813953488413,
          "durationTicks": 2,
          "midi": 56,
          "name": "G#3",
          "ticks": 996,
          "time": 11.581395348837209,
          "velocity": 0.5118110236220472
        },
        {
          "duration": 0.011627906976743319,
          "durationTicks": 1,
          "midi": 41,
          "name": "F2",
          "ticks": 997,
          "time": 11.593023255813954,
          "velocity": 0.6771653543307087
        },
        {
          "duration": 0.13953488372093048,
          "durationTicks": 12,
          "midi": 51,
          "name": "D#3",
          "ticks": 997,
          "time": 11.593023255813954,
          "velocity": 0.5433070866141733
        },
        {
          "duration": 0.023255813953488413,
          "durationTicks": 2,
          "midi": 42,
          "name": "F#2",
          "ticks": 998,
          "time": 11.604651162790697,
          "velocity": 0.6535433070866141
        },
        {
          "duration": 0.023255813953488413,
          "durationTicks": 2,
          "midi": 40,
          "name": "E2",
          "ticks": 1001,
          "time": 11.63953488372093,
          "velocity": 0.41732283464566927
        },
        {
          "duration": 0.03488372093023351,
          "durationTicks": 3,
          "midi": 40,
          "name": "E2",
          "ticks": 1004,
          "time": 11.674418604651162,
          "velocity": 0.2283464566929134
        },
        {
          "duration": 0.023255813953488413,
          "durationTicks": 2,
          "midi": 39,
          "name": "D#2",
          "ticks": 1010,
          "time": 11.744186046511627,
          "velocity": 0.30708661417322836
        },
        {
          "duration": 0.023255813953488413,
          "durationTicks": 2,
          "midi": 64,
          "name": "E4",
          "ticks": 1011,
          "time": 11.755813953488373,
          "velocity": 0.5511811023622047
        },
        {
          "duration": 0.03488372093023173,
          "durationTicks": 3,
          "midi": 74,
          "name": "D5",
          "ticks": 1011,
          "time": 11.755813953488373,
          "velocity": 0.1889763779527559
        },
        {
          "duration": 0.03488372093023173,
          "durationTicks": 3,
          "midi": 79,
          "name": "G5",
          "ticks": 1011,
          "time": 11.755813953488373,
          "velocity": 0.1968503937007874
        },
        {
          "duration": 0.011627906976743319,
          "durationTicks": 1,
          "midi": 48,
          "name": "C3",
          "ticks": 1013,
          "time": 11.779069767441861,
          "velocity": 0.5433070866141733
        },
        {
          "duration": 0.13953488372093048,
          "durationTicks": 12,
          "midi": 55,
          "name": "G3",
          "ticks": 1013,
          "time": 11.779069767441861,
          "velocity": 0.5118110236220472
        },
        {
          "duration": 0.1627906976744189,
          "durationTicks": 14,
          "midi": 63,
          "name": "D#4",
          "ticks": 1013,
          "time": 11.779069767441861,
          "velocity": 0.6141732283464567
        },
        {
          "duration": 0.06976744186046524,
          "durationTicks": 6,
          "midi": 80,
          "name": "G#5",
          "ticks": 1013,
          "time": 11.779069767441861,
          "velocity": 0.1732283464566929
        },
        {
          "duration": 0.10465116279069875,
          "durationTicks": 9,
          "midi": 49,
          "name": "C#3",
          "ticks": 1014,
          "time": 11.790697674418604,
          "velocity": 0.5511811023622047
        },
        {
          "duration": 0.023255813953486637,
          "durationTicks": 2,
          "midi": 71,
          "name": "B4",
          "ticks": 1031,
          "time": 11.988372093023257,
          "velocity": 0.25984251968503935
        },
        {
          "duration": 0.03488372093023173,
          "durationTicks": 3,
          "midi": 80,
          "name": "G#5",
          "ticks": 1031,
          "time": 11.988372093023257,
          "velocity": 0.15748031496062992
        },
        {
          "duration": 0.011627906976743319,
          "durationTicks": 1,
          "midi": 36,
          "name": "C2",
          "ticks": 1032,
          "time": 12,
          "velocity": 0.5354330708661418
        },
        {
          "duration": 0.1511627906976738,
          "durationTicks": 13,
          "midi": 63,
          "name": "D#4",
          "ticks": 1032,
          "time": 12,
          "velocity": 0.6141732283464567
        },
        {
          "duration": 0.023255813953488413,
          "durationTicks": 2,
          "midi": 69,
          "name": "A4",
          "ticks": 1032,
          "time": 12,
          "velocity": 0.25196850393700787
        },
        {
          "duration": 0.023255813953488413,
          "durationTicks": 2,
          "midi": 41,
          "name": "F2",
          "ticks": 1033,
          "time": 12.011627906976743,
          "velocity": 0.6062992125984252
        },
        {
          "duration": 0.023255813953488413,
          "durationTicks": 2,
          "midi": 57,
          "name": "A3",
          "ticks": 1033,
          "time": 12.011627906976743,
          "velocity": 0.5039370078740157
        },
        {
          "duration": 0.06976744186046524,
          "durationTicks": 6,
          "midi": 72,
          "name": "C5",
          "ticks": 1033,
          "time": 12.011627906976743,
          "velocity": 0.2047244094488189
        },
        {
          "duration": 0.03488372093023351,
          "durationTicks": 3,
          "midi": 68,
          "name": "G#4",
          "ticks": 1035,
          "time": 12.034883720930232,
          "velocity": 0.10236220472440945
        },
        {
          "duration": 0.011627906976743319,
          "durationTicks": 1,
          "midi": 40,
          "name": "E2",
          "ticks": 1036,
          "time": 12.046511627906977,
          "velocity": 0.6377952755905512
        },
        {
          "duration": 0.011627906976745095,
          "durationTicks": 1,
          "midi": 41,
          "name": "F2",
          "ticks": 1037,
          "time": 12.05813953488372,
          "velocity": 0.6929133858267716
        },
        {
          "duration": 0.011627906976743319,
          "durationTicks": 1,
          "midi": 42,
          "name": "F#2",
          "ticks": 1038,
          "time": 12.069767441860465,
          "velocity": 0.6535433070866141
        },
        {
          "duration": 0.023255813953488413,
          "durationTicks": 2,
          "midi": 56,
          "name": "G#3",
          "ticks": 1038,
          "time": 12.069767441860465,
          "velocity": 0.3858267716535433
        },
        {
          "duration": 0.011627906976745095,
          "durationTicks": 1,
          "midi": 41,
          "name": "F2",
          "ticks": 1039,
          "time": 12.081395348837209,
          "velocity": 0.5669291338582677
        },
        {
          "duration": 0.023255813953488413,
          "durationTicks": 2,
          "midi": 40,
          "name": "E2",
          "ticks": 1040,
          "time": 12.093023255813954,
          "velocity": 0.4645669291338583
        },
        {
          "duration": 0.023255813953488413,
          "durationTicks": 2,
          "midi": 41,
          "name": "F2",
          "ticks": 1042,
          "time": 12.116279069767442,
          "velocity": 0.3858267716535433
        },
        {
          "duration": 0.04651162790697683,
          "durationTicks": 4,
          "midi": 40,
          "name": "E2",
          "ticks": 1046,
          "time": 12.162790697674419,
          "velocity": 0.15748031496062992
        },
        {
          "duration": 0.12790697674418716,
          "durationTicks": 11,
          "midi": 65,
          "name": "F4",
          "ticks": 1051,
          "time": 12.220930232558139,
          "velocity": 0.6062992125984252
        },
        {
          "duration": 0.023255813953488413,
          "durationTicks": 2,
          "midi": 55,
          "name": "G3",
          "ticks": 1052,
          "time": 12.232558139534884,
          "velocity": 0.48031496062992124
        },
        {
          "duration": 0.058139534883720145,
          "durationTicks": 5,
          "midi": 73,
          "name": "C#5",
          "ticks": 1052,
          "time": 12.232558139534884,
          "velocity": 0.2204724409448819
        },
        {
          "duration": 0.08139534883720856,
          "durationTicks": 7,
          "midi": 80,
          "name": "G#5",
          "ticks": 1052,
          "time": 12.232558139534884,
          "velocity": 0.2283464566929134
        },
        {
          "duration": 0.011627906976745095,
          "durationTicks": 1,
          "midi": 48,
          "name": "C3",
          "ticks": 1053,
          "time": 12.244186046511627,
          "velocity": 0.5511811023622047
        },
        {
          "duration": 0.09302325581395365,
          "durationTicks": 8,
          "midi": 61,
          "name": "C#4",
          "ticks": 1053,
          "time": 12.244186046511627,
          "velocity": 0.3937007874015748
        },
        {
          "duration": 0.10465116279069697,
          "durationTicks": 9,
          "midi": 49,
          "name": "C#3",
          "ticks": 1054,
          "time": 12.255813953488373,
          "velocity": 0.5590551181102362
        },
        {
          "duration": 0.23255813953488236,
          "durationTicks": 20,
          "midi": 63,
          "name": "D#4",
          "ticks": 1062,
          "time": 12.348837209302326,
          "velocity": 0.6220472440944882
        },
        {
          "duration": 0.08139534883720856,
          "durationTicks": 7,
          "midi": 70,
          "name": "A#4",
          "ticks": 1071,
          "time": 12.453488372093023,
          "velocity": 0.25196850393700787
        },
        {
          "duration": 0.011627906976743319,
          "durationTicks": 1,
          "midi": 36,
          "name": "C2",
          "ticks": 1072,
          "time": 12.465116279069768,
          "velocity": 0.6299212598425197
        },
        {
          "duration": 0.023255813953488413,
          "durationTicks": 2,
          "midi": 50,
          "name": "D3",
          "ticks": 1072,
          "time": 12.465116279069768,
          "velocity": 0.6062992125984252
        },
        {
          "duration": 0.023255813953488413,
          "durationTicks": 2,
          "midi": 57,
          "name": "A3",
          "ticks": 1072,
          "time": 12.465116279069768,
          "velocity": 0.4566929133858268
        },
        {
          "duration": 0.023255813953488413,
          "durationTicks": 2,
          "midi": 67,
          "name": "G4",
          "ticks": 1072,
          "time": 12.465116279069768,
          "velocity": 0.2677165354330709
        },
        {
          "duration": 0.09302325581395188,
          "durationTicks": 8,
          "midi": 82,
          "name": "A#5",
          "ticks": 1072,
          "time": 12.465116279069768,
          "velocity": 0.25196850393700787
        },
        {
          "duration": 0.011627906976745095,
          "durationTicks": 1,
          "midi": 30,
          "name": "F#1",
          "ticks": 1073,
          "time": 12.476744186046512,
          "velocity": 0.5590551181102362
        },
        {
          "duration": 0.011627906976745095,
          "durationTicks": 1,
          "midi": 40,
          "name": "E2",
          "ticks": 1073,
          "time": 12.476744186046512,
          "velocity": 0.6062992125984252
        },
        {
          "duration": 0.06976744186046524,
          "durationTicks": 6,
          "midi": 72,
          "name": "C5",
          "ticks": 1073,
          "time": 12.476744186046512,
          "velocity": 0.18110236220472442
        },
        {
          "duration": 0.04651162790697505,
          "durationTicks": 4,
          "midi": 51,
          "name": "D#3",
          "ticks": 1074,
          "time": 12.488372093023257,
          "velocity": 0.6771653543307087
        },
        {
          "duration": 0.03488372093023173,
          "durationTicks": 3,
          "midi": 68,
          "name": "G#4",
          "ticks": 1074,
          "time": 12.488372093023257,
          "velocity": 0.12598425196850394
        },
        {
          "duration": 0.011627906976743319,
          "durationTicks": 1,
          "midi": 38,
          "name": "D2",
          "ticks": 1075,
          "time": 12.5,
          "velocity": 0.5118110236220472
        },
        {
          "duration": 0.023255813953488413,
          "durationTicks": 2,
          "midi": 56,
          "name": "G#3",
          "ticks": 1075,
          "time": 12.5,
          "velocity": 0.4881889763779528
        },
        {
          "duration": 0.011627906976745095,
          "durationTicks": 1,
          "midi": 40,
          "name": "E2",
          "ticks": 1076,
          "time": 12.511627906976743,
          "velocity": 0.6535433070866141
        },
        {
          "duration": 0.023255813953488413,
          "durationTicks": 2,
          "midi": 42,
          "name": "F#2",
          "ticks": 1077,
          "time": 12.523255813953488,
          "velocity": 0.6771653543307087
        },
        {
          "duration": 0.023255813953488413,
          "durationTicks": 2,
          "midi": 56,
          "name": "G#3",
          "ticks": 1078,
          "time": 12.534883720930232,
          "velocity": 0.3464566929133858
        },
        {
          "duration": 0.011627906976743319,
          "durationTicks": 1,
          "midi": 41,
          "name": "F2",
          "ticks": 1079,
          "time": 12.546511627906977,
          "velocity": 0.5354330708661418
        },
        {
          "duration": 0.06976744186046524,
          "durationTicks": 6,
          "midi": 51,
          "name": "D#3",
          "ticks": 1079,
          "time": 12.546511627906977,
          "velocity": 0.4566929133858268
        },
        {
          "duration": 0.023255813953488413,
          "durationTicks": 2,
          "midi": 40,
          "name": "E2",
          "ticks": 1080,
          "time": 12.55813953488372,
          "velocity": 0.4330708661417323
        },
        {
          "duration": 0.023255813953488413,
          "durationTicks": 2,
          "midi": 41,
          "name": "F2",
          "ticks": 1082,
          "time": 12.581395348837209,
          "velocity": 0.3543307086614173
        },
        {
          "duration": 0.03488372093023351,
          "durationTicks": 3,
          "midi": 40,
          "name": "E2",
          "ticks": 1086,
          "time": 12.627906976744185,
          "velocity": 0.1732283464566929
        },
        {
          "duration": 0.023255813953488413,
          "durationTicks": 2,
          "midi": 69,
          "name": "A4",
          "ticks": 1091,
          "time": 12.686046511627907,
          "velocity": 0.3464566929133858
        },
        {
          "duration": 0.25581395348837255,
          "durationTicks": 22,
          "midi": 89,
          "name": "F6",
          "ticks": 1091,
          "time": 12.686046511627907,
          "velocity": 0.2677165354330709
        },
        {
          "duration": 0.23255813953488413,
          "durationTicks": 20,
          "midi": 58,
          "name": "A#3",
          "ticks": 1092,
          "time": 12.69767441860465,
          "velocity": 0.5511811023622047
        },
        {
          "duration": 0.174418604651164,
          "durationTicks": 15,
          "midi": 63,
          "name": "D#4",
          "ticks": 1092,
          "time": 12.69767441860465,
          "velocity": 0.5984251968503937
        },
        {
          "duration": 0.023255813953488413,
          "durationTicks": 2,
          "midi": 64,
          "name": "E4",
          "ticks": 1110,
          "time": 12.906976744186046,
          "velocity": 0.5039370078740157
        },
        {
          "duration": 0.023255813953488413,
          "durationTicks": 2,
          "midi": 50,
          "name": "D3",
          "ticks": 1111,
          "time": 12.918604651162791,
          "velocity": 0.6377952755905512
        },
        {
          "duration": 0.06976744186046524,
          "durationTicks": 6,
          "midi": 79,
          "name": "G5",
          "ticks": 1111,
          "time": 12.918604651162791,
          "velocity": 0.2677165354330709
        },
        {
          "duration": 0.03488372093023173,
          "durationTicks": 3,
          "midi": 85,
          "name": "C#6",
          "ticks": 1111,
          "time": 12.918604651162791,
          "velocity": 0.2047244094488189
        },
        {
          "duration": 0.023255813953488413,
          "durationTicks": 2,
          "midi": 35,
          "name": "B1",
          "ticks": 1112,
          "time": 12.930232558139535,
          "velocity": 0.6141732283464567
        },
        {
          "duration": 0.011627906976745095,
          "durationTicks": 1,
          "midi": 57,
          "name": "A3",
          "ticks": 1112,
          "time": 12.930232558139535,
          "velocity": 0.5511811023622047
        },
        {
          "duration": 0.09302325581395365,
          "durationTicks": 8,
          "midi": 63,
          "name": "D#4",
          "ticks": 1112,
          "time": 12.930232558139535,
          "velocity": 0.6456692913385826
        },
        {
          "duration": 0.11627906976744207,
          "durationTicks": 10,
          "midi": 73,
          "name": "C#5",
          "ticks": 1112,
          "time": 12.930232558139535,
          "velocity": 0.2755905511811024
        },
        {
          "duration": 0.12790697674418539,
          "durationTicks": 11,
          "midi": 92,
          "name": "G#6",
          "ticks": 1112,
          "time": 12.930232558139535,
          "velocity": 0.13385826771653545
        },
        {
          "duration": 0.011627906976743319,
          "durationTicks": 1,
          "midi": 45,
          "name": "A2",
          "ticks": 1113,
          "time": 12.94186046511628,
          "velocity": 0.5433070866141733
        },
        {
          "duration": 0.10465116279069697,
          "durationTicks": 9,
          "midi": 51,
          "name": "D#3",
          "ticks": 1113,
          "time": 12.94186046511628,
          "velocity": 0.6771653543307087
        },
        {
          "duration": 0.04651162790697683,
          "durationTicks": 4,
          "midi": 67,
          "name": "G4",
          "ticks": 1114,
          "time": 12.953488372093023,
          "velocity": 0.1889763779527559
        },
        {
          "duration": 0.03488372093023173,
          "durationTicks": 3,
          "midi": 42,
          "name": "F#2",
          "ticks": 1115,
          "time": 12.965116279069768,
          "velocity": 0.6614173228346457
        },
        {
          "duration": 0.03488372093023351,
          "durationTicks": 3,
          "midi": 61,
          "name": "C#4",
          "ticks": 1119,
          "time": 13.011627906976743,
          "velocity": 0.44881889763779526
        },
        {
          "duration": 0.12790697674418716,
          "durationTicks": 11,
          "midi": 78,
          "name": "F#5",
          "ticks": 1121,
          "time": 13.034883720930232,
          "velocity": 0.3937007874015748
        },
        {
          "duration": 0.10465116279069697,
          "durationTicks": 9,
          "midi": 66,
          "name": "F#4",
          "ticks": 1122,
          "time": 13.046511627906977,
          "velocity": 0.2992125984251969
        },
        {
          "duration": 0.1627906976744189,
          "durationTicks": 14,
          "midi": 71,
          "name": "B4",
          "ticks": 1122,
          "time": 13.046511627906977,
          "velocity": 0.44881889763779526
        },
        {
          "duration": 0.09302325581395365,
          "durationTicks": 8,
          "midi": 47,
          "name": "B2",
          "ticks": 1123,
          "time": 13.05813953488372,
          "velocity": 0.47244094488188976
        },
        {
          "duration": 0.13953488372093048,
          "durationTicks": 12,
          "midi": 68,
          "name": "G#4",
          "ticks": 1131,
          "time": 13.151162790697674,
          "velocity": 0.4566929133858268
        },
        {
          "duration": 0.10465116279069697,
          "durationTicks": 9,
          "midi": 44,
          "name": "G#2",
          "ticks": 1132,
          "time": 13.162790697674419,
          "velocity": 0.47244094488188976
        },
        {
          "duration": 0.09302325581395365,
          "durationTicks": 8,
          "midi": 63,
          "name": "D#4",
          "ticks": 1133,
          "time": 13.174418604651162,
          "velocity": 0.25984251968503935
        },
        {
          "duration": 0.058139534883720145,
          "durationTicks": 5,
          "midi": 72,
          "name": "C5",
          "ticks": 1136,
          "time": 13.209302325581396,
          "velocity": 0.15748031496062992
        },
        {
          "duration": 0.04651162790697683,
          "durationTicks": 4,
          "midi": 56,
          "name": "G#3",
          "ticks": 1138,
          "time": 13.232558139534884,
          "velocity": 0.5433070866141733
        },
        {
          "duration": 0.12790697674418539,
          "durationTicks": 11,
          "midi": 71,
          "name": "B4",
          "ticks": 1140,
          "time": 13.255813953488373,
          "velocity": 0.4094488188976378
        },
        {
          "duration": 0.011627906976745095,
          "durationTicks": 1,
          "midi": 64,
          "name": "E4",
          "ticks": 1141,
          "time": 13.267441860465116,
          "velocity": 0.5196850393700787
        },
        {
          "duration": 0.13953488372093048,
          "durationTicks": 12,
          "midi": 86,
          "name": "D6",
          "ticks": 1141,
          "time": 13.267441860465116,
          "velocity": 0.2204724409448819
        },
        {
          "duration": 0.023255813953488413,
          "durationTicks": 2,
          "midi": 53,
          "name": "F3",
          "ticks": 1142,
          "time": 13.279069767441861,
          "velocity": 0.6062992125984252
        },
        {
          "duration": 0.22093023255813904,
          "durationTicks": 19,
          "midi": 63,
          "name": "D#4",
          "ticks": 1142,
          "time": 13.279069767441861,
          "velocity": 0.6299212598425197
        },
        {
          "duration": 0.10465116279069697,
          "durationTicks": 9,
          "midi": 67,
          "name": "G4",
          "ticks": 1142,
          "time": 13.279069767441861,
          "velocity": 0.3543307086614173
        },
        {
          "duration": 0.08139534883720856,
          "durationTicks": 7,
          "midi": 76,
          "name": "E5",
          "ticks": 1142,
          "time": 13.279069767441861,
          "velocity": 0.12598425196850394
        },
        {
          "duration": 0.06976744186046524,
          "durationTicks": 6,
          "midi": 40,
          "name": "E2",
          "ticks": 1144,
          "time": 13.30232558139535,
          "velocity": 0.47244094488188976
        },
        {
          "duration": 0.023255813953488413,
          "durationTicks": 2,
          "midi": 52,
          "name": "E3",
          "ticks": 1144,
          "time": 13.30232558139535,
          "velocity": 0.5826771653543307
        },
        {
          "duration": 0.058139534883720145,
          "durationTicks": 5,
          "midi": 55,
          "name": "G3",
          "ticks": 1146,
          "time": 13.325581395348838,
          "velocity": 0.5826771653543307
        },
        {
          "duration": 0.023255813953488413,
          "durationTicks": 2,
          "midi": 59,
          "name": "B3",
          "ticks": 1149,
          "time": 13.36046511627907,
          "velocity": 0.25984251968503935
        },
        {
          "duration": 0.011627906976745095,
          "durationTicks": 1,
          "midi": 56,
          "name": "G#3",
          "ticks": 1151,
          "time": 13.383720930232558,
          "velocity": 0.5354330708661418
        },
        {
          "duration": 0.08139534883721034,
          "durationTicks": 7,
          "midi": 70,
          "name": "A#4",
          "ticks": 1151,
          "time": 13.383720930232558,
          "velocity": 0.2992125984251969
        },
        {
          "duration": 0.011627906976743319,
          "durationTicks": 1,
          "midi": 35,
          "name": "B1",
          "ticks": 1152,
          "time": 13.395348837209303,
          "velocity": 0.5905511811023622
        },
        {
          "duration": 0.023255813953488413,
          "durationTicks": 2,
          "midi": 50,
          "name": "D3",
          "ticks": 1152,
          "time": 13.395348837209303,
          "velocity": 0.5196850393700787
        },
        {
          "duration": 0.023255813953488413,
          "durationTicks": 2,
          "midi": 55,
          "name": "G3",
          "ticks": 1152,
          "time": 13.395348837209303,
          "velocity": 0.4881889763779528
        },
        {
          "duration": 0.06976744186046524,
          "durationTicks": 6,
          "midi": 74,
          "name": "D5",
          "ticks": 1152,
          "time": 13.395348837209303,
          "velocity": 0.2440944881889764
        },
        {
          "duration": 0.12790697674418539,
          "durationTicks": 11,
          "midi": 85,
          "name": "C#6",
          "ticks": 1152,
          "time": 13.395348837209303,
          "velocity": 0.15748031496062992
        },
        {
          "duration": 0.011627906976745095,
          "durationTicks": 1,
          "midi": 36,
          "name": "C2",
          "ticks": 1153,
          "time": 13.406976744186046,
          "velocity": 0.5196850393700787
        },
        {
          "duration": 0.011627906976743319,
          "durationTicks": 1,
          "midi": 31,
          "name": "G1",
          "ticks": 1154,
          "time": 13.418604651162791,
          "velocity": 0.5275590551181102
        },
        {
          "duration": 0.011627906976743319,
          "durationTicks": 1,
          "midi": 51,
          "name": "D#3",
          "ticks": 1154,
          "time": 13.418604651162791,
          "velocity": 0.5196850393700787
        },
        {
          "duration": 0.023255813953488413,
          "durationTicks": 2,
          "midi": 41,
          "name": "F2",
          "ticks": 1155,
          "time": 13.430232558139535,
          "velocity": 0.6614173228346457
        },
        {
          "duration": 0.011627906976745095,
          "durationTicks": 1,
          "midi": 52,
          "name": "E3",
          "ticks": 1155,
          "time": 13.430232558139535,
          "velocity": 0.5669291338582677
        },
        {
          "duration": 0.011627906976743319,
          "durationTicks": 1,
          "midi": 54,
          "name": "F#3",
          "ticks": 1156,
          "time": 13.44186046511628,
          "velocity": 0.5354330708661418
        },
        {
          "duration": 0.011627906976745095,
          "durationTicks": 1,
          "midi": 42,
          "name": "F#2",
          "ticks": 1157,
          "time": 13.453488372093023,
          "velocity": 0.5984251968503937
        },
        {
          "duration": 0.011627906976745095,
          "durationTicks": 1,
          "midi": 55,
          "name": "G3",
          "ticks": 1157,
          "time": 13.453488372093023,
          "velocity": 0.5433070866141733
        },
        {
          "duration": 0.08139534883720856,
          "durationTicks": 7,
          "midi": 54,
          "name": "F#3",
          "ticks": 1158,
          "time": 13.465116279069768,
          "velocity": 0.5433070866141733
        },
        {
          "duration": 0.03488372093023173,
          "durationTicks": 3,
          "midi": 41,
          "name": "F2",
          "ticks": 1161,
          "time": 13.5,
          "velocity": 0.33070866141732286
        },
        {
          "duration": 0.023255813953488413,
          "durationTicks": 2,
          "midi": 41,
          "name": "F2",
          "ticks": 1169,
          "time": 13.593023255813954,
          "velocity": 0.25196850393700787
        },
        {
          "duration": 0.023255813953488413,
          "durationTicks": 2,
          "midi": 79,
          "name": "G5",
          "ticks": 1170,
          "time": 13.604651162790697,
          "velocity": 0.25984251968503935
        },
        {
          "duration": 0.03488372093023351,
          "durationTicks": 3,
          "midi": 86,
          "name": "D6",
          "ticks": 1170,
          "time": 13.604651162790697,
          "velocity": 0.1968503937007874
        },
        {
          "duration": 0.03488372093023351,
          "durationTicks": 3,
          "midi": 87,
          "name": "D#6",
          "ticks": 1170,
          "time": 13.604651162790697,
          "velocity": 0.2047244094488189
        },
        {
          "duration": 0.023255813953488413,
          "durationTicks": 2,
          "midi": 48,
          "name": "C3",
          "ticks": 1171,
          "time": 13.616279069767442,
          "velocity": 0.5354330708661418
        },
        {
          "duration": 0.09302325581395365,
          "durationTicks": 8,
          "midi": 63,
          "name": "D#4",
          "ticks": 1171,
          "time": 13.616279069767442,
          "velocity": 0.6299212598425197
        },
        {
          "duration": 0.023255813953488413,
          "durationTicks": 2,
          "midi": 67,
          "name": "G4",
          "ticks": 1171,
          "time": 13.616279069767442,
          "velocity": 0.33858267716535434
        },
        {
          "duration": 0.023255813953488413,
          "durationTicks": 2,
          "midi": 72,
          "name": "C5",
          "ticks": 1171,
          "time": 13.616279069767442,
          "velocity": 0.2677165354330709
        },
        {
          "duration": 0.03488372093023351,
          "durationTicks": 3,
          "midi": 77,
          "name": "F5",
          "ticks": 1172,
          "time": 13.627906976744185,
          "velocity": 0.14173228346456693
        },
        {
          "duration": 0.11627906976744207,
          "durationTicks": 10,
          "midi": 80,
          "name": "G#5",
          "ticks": 1172,
          "time": 13.627906976744185,
          "velocity": 0.30708661417322836
        },
        {
          "duration": 0.03488372093023173,
          "durationTicks": 3,
          "midi": 49,
          "name": "C#3",
          "ticks": 1173,
          "time": 13.63953488372093,
          "velocity": 0.5590551181102362
        },
        {
          "duration": 0.011627906976745095,
          "durationTicks": 1,
          "midi": 50,
          "name": "D3",
          "ticks": 1176,
          "time": 13.674418604651162,
          "velocity": 0.5826771653543307
        },
        {
          "duration": 0.1627906976744189,
          "durationTicks": 14,
          "midi": 49,
          "name": "C#3",
          "ticks": 1177,
          "time": 13.686046511627907,
          "velocity": 0.6299212598425197
        },
        {
          "duration": 0.023255813953488413,
          "durationTicks": 2,
          "midi": 29,
          "name": "F1",
          "ticks": 1181,
          "time": 13.732558139534884,
          "velocity": 0.31496062992125984
        },
        {
          "duration": 0.10465116279069697,
          "durationTicks": 9,
          "midi": 68,
          "name": "G#4",
          "ticks": 1181,
          "time": 13.732558139534884,
          "velocity": 0.11023622047244094
        },
        {
          "duration": 0.11627906976744207,
          "durationTicks": 10,
          "midi": 80,
          "name": "G#5",
          "ticks": 1183,
          "time": 13.755813953488373,
          "velocity": 0.28346456692913385
        },
        {
          "duration": 0.023255813953488413,
          "durationTicks": 2,
          "midi": 69,
          "name": "A4",
          "ticks": 1190,
          "time": 13.837209302325581,
          "velocity": 0.3228346456692913
        },
        {
          "duration": 0.09302325581395365,
          "durationTicks": 8,
          "midi": 74,
          "name": "D5",
          "ticks": 1190,
          "time": 13.837209302325581,
          "velocity": 0.28346456692913385
        },
        {
          "duration": 0.03488372093023351,
          "durationTicks": 3,
          "midi": 78,
          "name": "F#5",
          "ticks": 1190,
          "time": 13.837209302325581,
          "velocity": 0.1968503937007874
        },
        {
          "duration": 0.03488372093023351,
          "durationTicks": 3,
          "midi": 82,
          "name": "A#5",
          "ticks": 1190,
          "time": 13.837209302325581,
          "velocity": 0.1968503937007874
        },
        {
          "duration": 0.03488372093023351,
          "durationTicks": 3,
          "midi": 85,
          "name": "C#6",
          "ticks": 1190,
          "time": 13.837209302325581,
          "velocity": 0.2125984251968504
        },
        {
          "duration": 0.03488372093023351,
          "durationTicks": 3,
          "midi": 87,
          "name": "D#6",
          "ticks": 1190,
          "time": 13.837209302325581,
          "velocity": 0.2125984251968504
        },
        {
          "duration": 0.011627906976743319,
          "durationTicks": 1,
          "midi": 34,
          "name": "A#1",
          "ticks": 1191,
          "time": 13.848837209302326,
          "velocity": 0.5433070866141733
        },
        {
          "duration": 0.011627906976743319,
          "durationTicks": 1,
          "midi": 50,
          "name": "D3",
          "ticks": 1191,
          "time": 13.848837209302326,
          "velocity": 0.5433070866141733
        },
        {
          "duration": 0.011627906976743319,
          "durationTicks": 1,
          "midi": 64,
          "name": "E4",
          "ticks": 1191,
          "time": 13.848837209302326,
          "velocity": 0.5826771653543307
        },
        {
          "duration": 0.023255813953488413,
          "durationTicks": 2,
          "midi": 72,
          "name": "C5",
          "ticks": 1191,
          "time": 13.848837209302326,
          "velocity": 0.25196850393700787
        },
        {
          "duration": 0.011627906976745095,
          "durationTicks": 1,
          "midi": 35,
          "name": "B1",
          "ticks": 1192,
          "time": 13.86046511627907,
          "velocity": 0.5984251968503937
        },
        {
          "duration": 0.13953488372093048,
          "durationTicks": 12,
          "midi": 63,
          "name": "D#4",
          "ticks": 1192,
          "time": 13.86046511627907,
          "velocity": 0.6220472440944882
        },
        {
          "duration": 0.06976744186046524,
          "durationTicks": 6,
          "midi": 70,
          "name": "A#4",
          "ticks": 1192,
          "time": 13.86046511627907,
          "velocity": 0.25196850393700787
        },
        {
          "duration": 0.011627906976743319,
          "durationTicks": 1,
          "midi": 44,
          "name": "G#2",
          "ticks": 1193,
          "time": 13.872093023255815,
          "velocity": 0.5433070866141733
        },
        {
          "duration": 0.011627906976743319,
          "durationTicks": 1,
          "midi": 52,
          "name": "E3",
          "ticks": 1193,
          "time": 13.872093023255815,
          "velocity": 0.5196850393700787
        },
        {
          "duration": 0.011627906976745095,
          "durationTicks": 1,
          "midi": 30,
          "name": "F#1",
          "ticks": 1194,
          "time": 13.883720930232558,
          "velocity": 0.5748031496062992
        },
        {
          "duration": 0.03488372093023351,
          "durationTicks": 3,
          "midi": 51,
          "name": "D#3",
          "ticks": 1194,
          "time": 13.883720930232558,
          "velocity": 0.5354330708661418
        },
        {
          "duration": 0.03488372093023351,
          "durationTicks": 3,
          "midi": 67,
          "name": "G4",
          "ticks": 1194,
          "time": 13.883720930232558,
          "velocity": 0.07086614173228346
        },
        {
          "duration": 0.04651162790697683,
          "durationTicks": 4,
          "midi": 42,
          "name": "F#2",
          "ticks": 1195,
          "time": 13.895348837209303,
          "velocity": 0.6535433070866141
        },
        {
          "duration": 0.05813953488372192,
          "durationTicks": 5,
          "midi": 55,
          "name": "G3",
          "ticks": 1196,
          "time": 13.906976744186046,
          "velocity": 0.4566929133858268
        },
        {
          "duration": 0.03488372093023173,
          "durationTicks": 3,
          "midi": 51,
          "name": "D#3",
          "ticks": 1199,
          "time": 13.94186046511628,
          "velocity": 0.1732283464566929
        },
        {
          "duration": 0.03488372093023173,
          "durationTicks": 3,
          "midi": 41,
          "name": "F2",
          "ticks": 1201,
          "time": 13.965116279069768,
          "velocity": 0.31496062992125984
        },
        {
          "duration": 0.06976744186046524,
          "durationTicks": 6,
          "midi": 55,
          "name": "G3",
          "ticks": 1202,
          "time": 13.976744186046512,
          "velocity": 0.11811023622047244
        },
        {
          "duration": 0.12790697674418539,
          "durationTicks": 11,
          "midi": 65,
          "name": "F4",
          "ticks": 1210,
          "time": 14.069767441860465,
          "velocity": 0.6535433070866141
        },
        {
          "duration": 0.023255813953488413,
          "durationTicks": 2,
          "midi": 29,
          "name": "F1",
          "ticks": 1211,
          "time": 14.081395348837209,
          "velocity": 0.41732283464566927
        },
        {
          "duration": 0.023255813953488413,
          "durationTicks": 2,
          "midi": 48,
          "name": "C3",
          "ticks": 1211,
          "time": 14.081395348837209,
          "velocity": 0.5433070866141733
        },
        {
          "duration": 0.08139534883721034,
          "durationTicks": 7,
          "midi": 83,
          "name": "B5",
          "ticks": 1211,
          "time": 14.081395348837209,
          "velocity": 0.23622047244094488
        },
        {
          "duration": 0.09302325581395365,
          "durationTicks": 8,
          "midi": 61,
          "name": "C#4",
          "ticks": 1212,
          "time": 14.093023255813954,
          "velocity": 0.3937007874015748
        },
        {
          "duration": 0.058139534883720145,
          "durationTicks": 5,
          "midi": 80,
          "name": "G#5",
          "ticks": 1212,
          "time": 14.093023255813954,
          "velocity": 0.1968503937007874
        },
        {
          "duration": 0.011627906976745095,
          "durationTicks": 1,
          "midi": 46,
          "name": "A#2",
          "ticks": 1213,
          "time": 14.104651162790697,
          "velocity": 0.5669291338582677
        },
        {
          "duration": 0.011627906976743319,
          "durationTicks": 1,
          "midi": 50,
          "name": "D3",
          "ticks": 1214,
          "time": 14.116279069767442,
          "velocity": 0.6377952755905512
        },
        {
          "duration": 0.03488372093023351,
          "durationTicks": 3,
          "midi": 49,
          "name": "C#3",
          "ticks": 1215,
          "time": 14.127906976744185,
          "velocity": 0.5590551181102362
        },
        {
          "duration": 0.1860465116279073,
          "durationTicks": 16,
          "midi": 63,
          "name": "D#4",
          "ticks": 1221,
          "time": 14.19767441860465,
          "velocity": 0.6062992125984252
        },
        {
          "duration": 0.058139534883720145,
          "durationTicks": 5,
          "midi": 49,
          "name": "C#3",
          "ticks": 1222,
          "time": 14.209302325581396,
          "velocity": 0.14960629921259844
        },
        {
          "duration": 0.08139534883720856,
          "durationTicks": 7,
          "midi": 74,
          "name": "D5",
          "ticks": 1230,
          "time": 14.30232558139535,
          "velocity": 0.25196850393700787
        },
        {
          "duration": 0.1511627906976738,
          "durationTicks": 13,
          "midi": 82,
          "name": "A#5",
          "ticks": 1230,
          "time": 14.30232558139535,
          "velocity": 0.28346456692913385
        },
        {
          "duration": 0.023255813953488413,
          "durationTicks": 2,
          "midi": 35,
          "name": "B1",
          "ticks": 1231,
          "time": 14.313953488372093,
          "velocity": 0.6220472440944882
        },
        {
          "duration": 0.011627906976745095,
          "durationTicks": 1,
          "midi": 50,
          "name": "D3",
          "ticks": 1231,
          "time": 14.313953488372093,
          "velocity": 0.5984251968503937
        },
        {
          "duration": 0.09302325581395365,
          "durationTicks": 8,
          "midi": 70,
          "name": "A#4",
          "ticks": 1231,
          "time": 14.313953488372093,
          "velocity": 0.29133858267716534
        },
        {
          "duration": 0.08139534883721034,
          "durationTicks": 7,
          "midi": 79,
          "name": "G5",
          "ticks": 1231,
          "time": 14.313953488372093,
          "velocity": 0.2125984251968504
        },
        {
          "duration": 0.1744186046511622,
          "durationTicks": 15,
          "midi": 51,
          "name": "D#3",
          "ticks": 1232,
          "time": 14.325581395348838,
          "velocity": 0.6771653543307087
        },
        {
          "duration": 0.011627906976745095,
          "durationTicks": 1,
          "midi": 44,
          "name": "G#2",
          "ticks": 1233,
          "time": 14.337209302325581,
          "velocity": 0.5196850393700787
        },
        {
          "duration": 0.011627906976743319,
          "durationTicks": 1,
          "midi": 41,
          "name": "F2",
          "ticks": 1234,
          "time": 14.348837209302326,
          "velocity": 0.5984251968503937
        },
        {
          "duration": 0.03488372093023173,
          "durationTicks": 3,
          "midi": 67,
          "name": "G4",
          "ticks": 1234,
          "time": 14.348837209302326,
          "velocity": 0.07086614173228346
        },
        {
          "duration": 0.023255813953488413,
          "durationTicks": 2,
          "midi": 42,
          "name": "F#2",
          "ticks": 1235,
          "time": 14.36046511627907,
          "velocity": 0.6456692913385826
        },
        {
          "duration": 0.023255813953488413,
          "durationTicks": 2,
          "midi": 41,
          "name": "F2",
          "ticks": 1237,
          "time": 14.383720930232558,
          "velocity": 0.5275590551181102
        },
        {
          "duration": 0.04651162790697683,
          "durationTicks": 4,
          "midi": 41,
          "name": "F2",
          "ticks": 1240,
          "time": 14.418604651162791,
          "velocity": 0.28346456692913385
        },
        {
          "duration": 0.023255813953488413,
          "durationTicks": 2,
          "midi": 64,
          "name": "E4",
          "ticks": 1249,
          "time": 14.523255813953488,
          "velocity": 0.48031496062992124
        },
        {
          "duration": 0.13953488372093048,
          "durationTicks": 12,
          "midi": 80,
          "name": "G#5",
          "ticks": 1250,
          "time": 14.534883720930232,
          "velocity": 0.2047244094488189
        },
        {
          "duration": 0.011627906976743319,
          "durationTicks": 1,
          "midi": 48,
          "name": "C3",
          "ticks": 1251,
          "time": 14.546511627906977,
          "velocity": 0.5354330708661418
        },
        {
          "duration": 0.09302325581395365,
          "durationTicks": 8,
          "midi": 63,
          "name": "D#4",
          "ticks": 1251,
          "time": 14.546511627906977,
          "velocity": 0.6141732283464567
        },
        {
          "duration": 0.174418604651164,
          "durationTicks": 15,
          "midi": 49,
          "name": "C#3",
          "ticks": 1252,
          "time": 14.55813953488372,
          "velocity": 0.5826771653543307
        },
        {
          "duration": 0.1976744186046524,
          "durationTicks": 17,
          "midi": 70,
          "name": "A#4",
          "ticks": 1270,
          "time": 14.767441860465116,
          "velocity": 0.5511811023622047
        },
        {
          "duration": 0.03488372093023351,
          "durationTicks": 3,
          "midi": 76,
          "name": "E5",
          "ticks": 1270,
          "time": 14.767441860465116,
          "velocity": 0.2677165354330709
        },
        {
          "duration": 0.023255813953488413,
          "durationTicks": 2,
          "midi": 80,
          "name": "G#5",
          "ticks": 1270,
          "time": 14.767441860465116,
          "velocity": 0.2283464566929134
        },
        {
          "duration": 0.011627906976743319,
          "durationTicks": 1,
          "midi": 35,
          "name": "B1",
          "ticks": 1271,
          "time": 14.779069767441861,
          "velocity": 0.6062992125984252
        },
        {
          "duration": 0.011627906976743319,
          "durationTicks": 1,
          "midi": 48,
          "name": "C3",
          "ticks": 1271,
          "time": 14.779069767441861,
          "velocity": 0.5118110236220472
        },
        {
          "duration": 0.023255813953488413,
          "durationTicks": 2,
          "midi": 55,
          "name": "G3",
          "ticks": 1271,
          "time": 14.779069767441861,
          "velocity": 0.5039370078740157
        },
        {
          "duration": 0.10465116279069697,
          "durationTicks": 9,
          "midi": 63,
          "name": "D#4",
          "ticks": 1271,
          "time": 14.779069767441861,
          "velocity": 0.5748031496062992
        },
        {
          "duration": 0.1511627906976738,
          "durationTicks": 13,
          "midi": 77,
          "name": "F5",
          "ticks": 1271,
          "time": 14.779069767441861,
          "velocity": 0.3464566929133858
        },
        {
          "duration": 0.011627906976745095,
          "durationTicks": 1,
          "midi": 40,
          "name": "E2",
          "ticks": 1272,
          "time": 14.790697674418604,
          "velocity": 0.6062992125984252
        },
        {
          "duration": 0.011627906976745095,
          "durationTicks": 1,
          "midi": 50,
          "name": "D3",
          "ticks": 1272,
          "time": 14.790697674418604,
          "velocity": 0.5511811023622047
        },
        {
          "duration": 0.05813953488372192,
          "durationTicks": 5,
          "midi": 73,
          "name": "C#5",
          "ticks": 1272,
          "time": 14.790697674418604,
          "velocity": 0.14960629921259844
        },
        {
          "duration": 0.023255813953488413,
          "durationTicks": 2,
          "midi": 43,
          "name": "G2",
          "ticks": 1273,
          "time": 14.80232558139535,
          "velocity": 0.5118110236220472
        },
        {
          "duration": 0.011627906976743319,
          "durationTicks": 1,
          "midi": 52,
          "name": "E3",
          "ticks": 1273,
          "time": 14.80232558139535,
          "velocity": 0.6141732283464567
        },
        {
          "duration": 0.05813953488372192,
          "durationTicks": 5,
          "midi": 51,
          "name": "D#3",
          "ticks": 1274,
          "time": 14.813953488372093,
          "velocity": 0.6062992125984252
        },
        {
          "duration": 0.08139534883721034,
          "durationTicks": 7,
          "midi": 66,
          "name": "F#4",
          "ticks": 1274,
          "time": 14.813953488372093,
          "velocity": 0.36220472440944884
        },
        {
          "duration": 0.011627906976743319,
          "durationTicks": 1,
          "midi": 42,
          "name": "F#2",
          "ticks": 1275,
          "time": 14.825581395348838,
          "velocity": 0.6062992125984252
        },
        {
          "duration": 0.023255813953488413,
          "durationTicks": 2,
          "midi": 59,
          "name": "B3",
          "ticks": 1275,
          "time": 14.825581395348838,
          "velocity": 0.36220472440944884
        },
        {
          "duration": 0.04651162790697683,
          "durationTicks": 4,
          "midi": 41,
          "name": "F2",
          "ticks": 1276,
          "time": 14.837209302325581,
          "velocity": 0.6377952755905512
        },
        {
          "duration": 0.06976744186046524,
          "durationTicks": 6,
          "midi": 58,
          "name": "A#3",
          "ticks": 1277,
          "time": 14.848837209302326,
          "velocity": 0.4015748031496063
        },
        {
          "duration": 0.04651162790697683,
          "durationTicks": 4,
          "midi": 40,
          "name": "E2",
          "ticks": 1280,
          "time": 14.883720930232558,
          "velocity": 0.36220472440944884
        },
        {
          "duration": 0.09302325581395365,
          "durationTicks": 8,
          "midi": 64,
          "name": "E4",
          "ticks": 1282,
          "time": 14.906976744186046,
          "velocity": 0.3700787401574803
        },
        {
          "duration": 0.023255813953488413,
          "durationTicks": 2,
          "midi": 54,
          "name": "F#3",
          "ticks": 1283,
          "time": 14.918604651162791,
          "velocity": 0.2677165354330709
        },
        {
          "duration": 0.023255813953488413,
          "durationTicks": 2,
          "midi": 59,
          "name": "B3",
          "ticks": 1283,
          "time": 14.918604651162791,
          "velocity": 0.23622047244094488
        },
        {
          "duration": 0.12790697674418539,
          "durationTicks": 11,
          "midi": 70,
          "name": "A#4",
          "ticks": 1289,
          "time": 14.988372093023257,
          "velocity": 0.5984251968503937
        },
        {
          "duration": 0.03488372093023173,
          "durationTicks": 3,
          "midi": 77,
          "name": "F5",
          "ticks": 1289,
          "time": 14.988372093023257,
          "velocity": 0.2204724409448819
        },
        {
          "duration": 0.03488372093023173,
          "durationTicks": 3,
          "midi": 83,
          "name": "B5",
          "ticks": 1289,
          "time": 14.988372093023257,
          "velocity": 0.1889763779527559
        },
        {
          "duration": 0.11627906976744207,
          "durationTicks": 10,
          "midi": 61,
          "name": "C#4",
          "ticks": 1290,
          "time": 15,
          "velocity": 0.4015748031496063
        },
        {
          "duration": 0.023255813953488413,
          "durationTicks": 2,
          "midi": 74,
          "name": "D5",
          "ticks": 1290,
          "time": 15,
          "velocity": 0.2440944881889764
        },
        {
          "duration": 0.03488372093023173,
          "durationTicks": 3,
          "midi": 81,
          "name": "A5",
          "ticks": 1290,
          "time": 15,
          "velocity": 0.18110236220472442
        },
        {
          "duration": 0.023255813953488413,
          "durationTicks": 2,
          "midi": 38,
          "name": "D2",
          "ticks": 1293,
          "time": 15.034883720930232,
          "velocity": 0.25196850393700787
        },
        {
          "duration": 0.06976744186046524,
          "durationTicks": 6,
          "midi": 80,
          "name": "G#5",
          "ticks": 1294,
          "time": 15.046511627906977,
          "velocity": 0.13385826771653545
        },
        {
          "duration": 0.03488372093023351,
          "durationTicks": 3,
          "midi": 50,
          "name": "D3",
          "ticks": 1295,
          "time": 15.05813953488372,
          "velocity": 0.11811023622047244
        },
        {
          "duration": 0.3023255813953494,
          "durationTicks": 26,
          "midi": 63,
          "name": "D#4",
          "ticks": 1300,
          "time": 15.116279069767442,
          "velocity": 0.6299212598425197
        },
        {
          "duration": 0.03488372093023173,
          "durationTicks": 3,
          "midi": 79,
          "name": "G5",
          "ticks": 1300,
          "time": 15.116279069767442,
          "velocity": 0.1889763779527559
        },
        {
          "duration": 0.04651162790697683,
          "durationTicks": 4,
          "midi": 87,
          "name": "D#6",
          "ticks": 1300,
          "time": 15.116279069767442,
          "velocity": 0.1889763779527559
        },
        {
          "duration": 0.13953488372093048,
          "durationTicks": 12,
          "midi": 90,
          "name": "F#6",
          "ticks": 1300,
          "time": 15.116279069767442,
          "velocity": 0.2204724409448819
        },
        {
          "duration": 0.12790697674418716,
          "durationTicks": 11,
          "midi": 59,
          "name": "B3",
          "ticks": 1301,
          "time": 15.127906976744185,
          "velocity": 0.5433070866141733
        },
        {
          "duration": 0.11627906976744207,
          "durationTicks": 10,
          "midi": 77,
          "name": "F5",
          "ticks": 1301,
          "time": 15.127906976744185,
          "velocity": 0.3937007874015748
        },
        {
          "duration": 0.11627906976744207,
          "durationTicks": 10,
          "midi": 82,
          "name": "A#5",
          "ticks": 1301,
          "time": 15.127906976744185,
          "velocity": 0.2992125984251969
        },
        {
          "duration": 0.06976744186046524,
          "durationTicks": 6,
          "midi": 70,
          "name": "A#4",
          "ticks": 1303,
          "time": 15.151162790697674,
          "velocity": 0.4251968503937008
        },
        {
          "duration": 0.04651162790697683,
          "durationTicks": 4,
          "midi": 51,
          "name": "D#3",
          "ticks": 1304,
          "time": 15.162790697674419,
          "velocity": 0.4330708661417323
        },
        {
          "duration": 0.023255813953488413,
          "durationTicks": 2,
          "midi": 51,
          "name": "D#3",
          "ticks": 1309,
          "time": 15.220930232558139,
          "velocity": 0.5196850393700787
        },
        {
          "duration": 0.03488372093023351,
          "durationTicks": 3,
          "midi": 80,
          "name": "G#5",
          "ticks": 1309,
          "time": 15.220930232558139,
          "velocity": 0.23622047244094488
        },
        {
          "duration": 0.03488372093023351,
          "durationTicks": 3,
          "midi": 85,
          "name": "C#6",
          "ticks": 1309,
          "time": 15.220930232558139,
          "velocity": 0.2440944881889764
        },
        {
          "duration": 0.023255813953488413,
          "durationTicks": 2,
          "midi": 86,
          "name": "D6",
          "ticks": 1309,
          "time": 15.220930232558139,
          "velocity": 0.23622047244094488
        },
        {
          "duration": 0.023255813953488413,
          "durationTicks": 2,
          "midi": 87,
          "name": "D#6",
          "ticks": 1309,
          "time": 15.220930232558139,
          "velocity": 0.2677165354330709
        },
        {
          "duration": 0.03488372093023351,
          "durationTicks": 3,
          "midi": 88,
          "name": "E6",
          "ticks": 1309,
          "time": 15.220930232558139,
          "velocity": 0.25984251968503935
        },
        {
          "duration": 0.023255813953488413,
          "durationTicks": 2,
          "midi": 78,
          "name": "F#5",
          "ticks": 1310,
          "time": 15.232558139534884,
          "velocity": 0.28346456692913385
        },
        {
          "duration": 0.011627906976745095,
          "durationTicks": 1,
          "midi": 36,
          "name": "C2",
          "ticks": 1311,
          "time": 15.244186046511627,
          "velocity": 0.6220472440944882
        },
        {
          "duration": 0.023255813953488413,
          "durationTicks": 2,
          "midi": 50,
          "name": "D3",
          "ticks": 1311,
          "time": 15.244186046511627,
          "velocity": 0.5354330708661418
        },
        {
          "duration": 0.13953488372093048,
          "durationTicks": 12,
          "midi": 70,
          "name": "A#4",
          "ticks": 1311,
          "time": 15.244186046511627,
          "velocity": 0.5433070866141733
        },
        {
          "duration": 0.04651162790697683,
          "durationTicks": 4,
          "midi": 81,
          "name": "A5",
          "ticks": 1311,
          "time": 15.244186046511627,
          "velocity": 0.23622047244094488
        },
        {
          "duration": 0.011627906976743319,
          "durationTicks": 1,
          "midi": 41,
          "name": "F2",
          "ticks": 1312,
          "time": 15.255813953488373,
          "velocity": 0.5905511811023622
        },
        {
          "duration": 0.011627906976743319,
          "durationTicks": 1,
          "midi": 58,
          "name": "A#3",
          "ticks": 1312,
          "time": 15.255813953488373,
          "velocity": 0.5196850393700787
        },
        {
          "duration": 0.058139534883720145,
          "durationTicks": 5,
          "midi": 73,
          "name": "C#5",
          "ticks": 1312,
          "time": 15.255813953488373,
          "velocity": 0.14960629921259844
        },
        {
          "duration": 0.04651162790697683,
          "durationTicks": 4,
          "midi": 77,
          "name": "F5",
          "ticks": 1312,
          "time": 15.255813953488373,
          "velocity": 0.3543307086614173
        },
        {
          "duration": 0.011627906976745095,
          "durationTicks": 1,
          "midi": 53,
          "name": "F3",
          "ticks": 1313,
          "time": 15.267441860465116,
          "velocity": 0.5748031496062992
        },
        {
          "duration": 0.011627906976745095,
          "durationTicks": 1,
          "midi": 59,
          "name": "B3",
          "ticks": 1313,
          "time": 15.267441860465116,
          "velocity": 0.5118110236220472
        },
        {
          "duration": 0.011627906976743319,
          "durationTicks": 1,
          "midi": 44,
          "name": "G#2",
          "ticks": 1314,
          "time": 15.279069767441861,
          "velocity": 0.5354330708661418
        },
        {
          "duration": 0.058139534883720145,
          "durationTicks": 5,
          "midi": 51,
          "name": "D#3",
          "ticks": 1314,
          "time": 15.279069767441861,
          "velocity": 0.5354330708661418
        },
        {
          "duration": 0.12790697674418539,
          "durationTicks": 11,
          "midi": 58,
          "name": "A#3",
          "ticks": 1314,
          "time": 15.279069767441861,
          "velocity": 0.49606299212598426
        },
        {
          "duration": 0.011627906976745095,
          "durationTicks": 1,
          "midi": 42,
          "name": "F#2",
          "ticks": 1315,
          "time": 15.290697674418604,
          "velocity": 0.6220472440944882
        },
        {
          "duration": 0.058139534883720145,
          "durationTicks": 5,
          "midi": 41,
          "name": "F2",
          "ticks": 1316,
          "time": 15.30232558139535,
          "velocity": 0.6377952755905512
        },
        {
          "duration": 0.1744186046511622,
          "durationTicks": 15,
          "midi": 70,
          "name": "A#4",
          "ticks": 1329,
          "time": 15.453488372093023,
          "velocity": 0.5748031496062992
        },
        {
          "duration": 0.03488372093023351,
          "durationTicks": 3,
          "midi": 84,
          "name": "C6",
          "ticks": 1329,
          "time": 15.453488372093023,
          "velocity": 0.2283464566929134
        },
        {
          "duration": 0.03488372093023351,
          "durationTicks": 3,
          "midi": 85,
          "name": "C#6",
          "ticks": 1329,
          "time": 15.453488372093023,
          "velocity": 0.23622047244094488
        },
        {
          "duration": 0.06976744186046524,
          "durationTicks": 6,
          "midi": 86,
          "name": "D6",
          "ticks": 1329,
          "time": 15.453488372093023,
          "velocity": 0.2204724409448819
        },
        {
          "duration": 0.023255813953488413,
          "durationTicks": 2,
          "midi": 29,
          "name": "F1",
          "ticks": 1330,
          "time": 15.465116279069768,
          "velocity": 0.4094488188976378
        },
        {
          "duration": 0.18604651162790553,
          "durationTicks": 16,
          "midi": 63,
          "name": "D#4",
          "ticks": 1330,
          "time": 15.465116279069768,
          "velocity": 0.5905511811023622
        },
        {
          "duration": 0.023255813953488413,
          "durationTicks": 2,
          "midi": 79,
          "name": "G5",
          "ticks": 1330,
          "time": 15.465116279069768,
          "velocity": 0.28346456692913385
        },
        {
          "duration": 0.023255813953488413,
          "durationTicks": 2,
          "midi": 48,
          "name": "C3",
          "ticks": 1331,
          "time": 15.476744186046512,
          "velocity": 0.5748031496062992
        },
        {
          "duration": 0.08139534883720856,
          "durationTicks": 7,
          "midi": 55,
          "name": "G3",
          "ticks": 1331,
          "time": 15.476744186046512,
          "velocity": 0.5196850393700787
        },
        {
          "duration": 0.08139534883720856,
          "durationTicks": 7,
          "midi": 80,
          "name": "G#5",
          "ticks": 1331,
          "time": 15.476744186046512,
          "velocity": 0.2047244094488189
        },
        {
          "duration": 0.011627906976743319,
          "durationTicks": 1,
          "midi": 49,
          "name": "C#3",
          "ticks": 1333,
          "time": 15.5,
          "velocity": 0.5905511811023622
        },
        {
          "duration": 0.1744186046511622,
          "durationTicks": 15,
          "midi": 77,
          "name": "F5",
          "ticks": 1333,
          "time": 15.5,
          "velocity": 0.29133858267716534
        },
        {
          "duration": 0.023255813953488413,
          "durationTicks": 2,
          "midi": 50,
          "name": "D3",
          "ticks": 1334,
          "time": 15.511627906976743,
          "velocity": 0.6220472440944882
        },
        {
          "duration": 0.023255813953488413,
          "durationTicks": 2,
          "midi": 49,
          "name": "C#3",
          "ticks": 1336,
          "time": 15.534883720930232,
          "velocity": 0.44881889763779526
        },
        {
          "duration": 0.06976744186046524,
          "durationTicks": 6,
          "midi": 58,
          "name": "A#3",
          "ticks": 1337,
          "time": 15.546511627906977,
          "velocity": 0.3858267716535433
        },
        {
          "duration": 0.023255813953488413,
          "durationTicks": 2,
          "midi": 52,
          "name": "E3",
          "ticks": 1340,
          "time": 15.581395348837209,
          "velocity": 0.33070866141732286
        },
        {
          "duration": 0.03488372093023173,
          "durationTicks": 3,
          "midi": 78,
          "name": "F#5",
          "ticks": 1349,
          "time": 15.686046511627907,
          "velocity": 0.2440944881889764
        },
        {
          "duration": 0.011627906976745095,
          "durationTicks": 1,
          "midi": 35,
          "name": "B1",
          "ticks": 1350,
          "time": 15.69767441860465,
          "velocity": 0.5433070866141733
        },
        {
          "duration": 0.03488372093023351,
          "durationTicks": 3,
          "midi": 50,
          "name": "D3",
          "ticks": 1350,
          "time": 15.69767441860465,
          "velocity": 0.5196850393700787
        },
        {
          "duration": 0.15116279069767558,
          "durationTicks": 13,
          "midi": 63,
          "name": "D#4",
          "ticks": 1350,
          "time": 15.69767441860465,
          "velocity": 0.5826771653543307
        },
        {
          "duration": 0.10465116279069875,
          "durationTicks": 9,
          "midi": 70,
          "name": "A#4",
          "ticks": 1350,
          "time": 15.69767441860465,
          "velocity": 0.5275590551181102
        },
        {
          "duration": 0.011627906976743319,
          "durationTicks": 1,
          "midi": 40,
          "name": "E2",
          "ticks": 1351,
          "time": 15.709302325581396,
          "velocity": 0.6062992125984252
        },
        {
          "duration": 0.011627906976745095,
          "durationTicks": 1,
          "midi": 41,
          "name": "F2",
          "ticks": 1352,
          "time": 15.720930232558139,
          "velocity": 0.5511811023622047
        },
        {
          "duration": 0.05813953488372192,
          "durationTicks": 5,
          "midi": 73,
          "name": "C#5",
          "ticks": 1352,
          "time": 15.720930232558139,
          "velocity": 0.14173228346456693
        },
        {
          "duration": 0.023255813953488413,
          "durationTicks": 2,
          "midi": 43,
          "name": "G2",
          "ticks": 1353,
          "time": 15.732558139534884,
          "velocity": 0.5511811023622047
        },
        {
          "duration": 0.011627906976743319,
          "durationTicks": 1,
          "midi": 53,
          "name": "F3",
          "ticks": 1353,
          "time": 15.732558139534884,
          "velocity": 0.5590551181102362
        },
        {
          "duration": 0.058139534883720145,
          "durationTicks": 5,
          "midi": 41,
          "name": "F2",
          "ticks": 1355,
          "time": 15.755813953488373,
          "velocity": 0.6220472440944882
        },
        {
          "duration": 0.023255813953488413,
          "durationTicks": 2,
          "midi": 51,
          "name": "D#3",
          "ticks": 1357,
          "time": 15.779069767441861,
          "velocity": 0.30708661417322836
        },
        {
          "duration": 0.023255813953488413,
          "durationTicks": 2,
          "midi": 40,
          "name": "E2",
          "ticks": 1360,
          "time": 15.813953488372093,
          "velocity": 0.29133858267716534
        },
        {
          "duration": 0.11627906976744029,
          "durationTicks": 10,
          "midi": 65,
          "name": "F4",
          "ticks": 1369,
          "time": 15.918604651162791,
          "velocity": 0.5748031496062992
        },
        {
          "duration": 0.12790697674418539,
          "durationTicks": 11,
          "midi": 70,
          "name": "A#4",
          "ticks": 1369,
          "time": 15.918604651162791,
          "velocity": 0.5590551181102362
        },
        {
          "duration": 0.058139534883720145,
          "durationTicks": 5,
          "midi": 81,
          "name": "A5",
          "ticks": 1369,
          "time": 15.918604651162791,
          "velocity": 0.25196850393700787
        },
        {
          "duration": 0.023255813953488413,
          "durationTicks": 2,
          "midi": 29,
          "name": "F1",
          "ticks": 1370,
          "time": 15.930232558139535,
          "velocity": 0.41732283464566927
        },
        {
          "duration": 0.023255813953488413,
          "durationTicks": 2,
          "midi": 55,
          "name": "G3",
          "ticks": 1370,
          "time": 15.930232558139535,
          "velocity": 0.4645669291338583
        },
        {
          "duration": 0.023255813953488413,
          "durationTicks": 2,
          "midi": 76,
          "name": "E5",
          "ticks": 1370,
          "time": 15.930232558139535,
          "velocity": 0.2677165354330709
        },
        {
          "duration": 0.09302325581395188,
          "durationTicks": 8,
          "midi": 80,
          "name": "G#5",
          "ticks": 1370,
          "time": 15.930232558139535,
          "velocity": 0.3228346456692913
        },
        {
          "duration": 0.011627906976743319,
          "durationTicks": 1,
          "midi": 48,
          "name": "C3",
          "ticks": 1371,
          "time": 15.94186046511628,
          "velocity": 0.5669291338582677
        },
        {
          "duration": 0.03488372093023173,
          "durationTicks": 3,
          "midi": 61,
          "name": "C#4",
          "ticks": 1371,
          "time": 15.94186046511628,
          "velocity": 0.3858267716535433
        },
        {
          "duration": 0.023255813953488413,
          "durationTicks": 2,
          "midi": 49,
          "name": "C#3",
          "ticks": 1372,
          "time": 15.953488372093023,
          "velocity": 0.6220472440944882
        },
        {
          "duration": 0.04651162790697683,
          "durationTicks": 4,
          "midi": 58,
          "name": "A#3",
          "ticks": 1373,
          "time": 15.965116279069768,
          "velocity": 0.3858267716535433
        },
        {
          "duration": 0.011627906976745095,
          "durationTicks": 1,
          "midi": 50,
          "name": "D3",
          "ticks": 1374,
          "time": 15.976744186046512,
          "velocity": 0.5905511811023622
        },
        {
          "duration": 0.011627906976743319,
          "durationTicks": 1,
          "midi": 49,
          "name": "C#3",
          "ticks": 1375,
          "time": 15.988372093023257,
          "velocity": 0.5118110236220472
        },
        {
          "duration": 0.023255813953486637,
          "durationTicks": 2,
          "midi": 48,
          "name": "C3",
          "ticks": 1376,
          "time": 16,
          "velocity": 0.4330708661417323
        },
        {
          "duration": 0.24418604651162923,
          "durationTicks": 21,
          "midi": 63,
          "name": "D#4",
          "ticks": 1379,
          "time": 16.03488372093023,
          "velocity": 0.6299212598425197
        },
        {
          "duration": 0.03488372093023173,
          "durationTicks": 3,
          "midi": 80,
          "name": "G#5",
          "ticks": 1379,
          "time": 16.03488372093023,
          "velocity": 0.1732283464566929
        },
        {
          "duration": 0.03488372093023173,
          "durationTicks": 3,
          "midi": 58,
          "name": "A#3",
          "ticks": 1380,
          "time": 16.046511627906977,
          "velocity": 0.3700787401574803
        },
        {
          "duration": 0.023255813953486637,
          "durationTicks": 2,
          "midi": 51,
          "name": "D#3",
          "ticks": 1381,
          "time": 16.058139534883722,
          "velocity": 0.33858267716535434
        },
        {
          "duration": 0.023255813953486637,
          "durationTicks": 2,
          "midi": 77,
          "name": "F5",
          "ticks": 1381,
          "time": 16.058139534883722,
          "velocity": 0.2283464566929134
        },
        {
          "duration": 0.1046511627906952,
          "durationTicks": 9,
          "midi": 70,
          "name": "A#4",
          "ticks": 1389,
          "time": 16.151162790697676,
          "velocity": 0.5433070866141733
        },
        {
          "duration": 0.03488372093023173,
          "durationTicks": 3,
          "midi": 78,
          "name": "F#5",
          "ticks": 1389,
          "time": 16.151162790697676,
          "velocity": 0.28346456692913385
        },
        {
          "duration": 0.03488372093023173,
          "durationTicks": 3,
          "midi": 81,
          "name": "A5",
          "ticks": 1389,
          "time": 16.151162790697676,
          "velocity": 0.28346456692913385
        },
        {
          "duration": 0.03488372093023173,
          "durationTicks": 3,
          "midi": 84,
          "name": "C6",
          "ticks": 1389,
          "time": 16.151162790697676,
          "velocity": 0.23622047244094488
        },
        {
          "duration": 0.011627906976745095,
          "durationTicks": 1,
          "midi": 35,
          "name": "B1",
          "ticks": 1390,
          "time": 16.162790697674417,
          "velocity": 0.6220472440944882
        },
        {
          "duration": 0.02325581395349019,
          "durationTicks": 2,
          "midi": 50,
          "name": "D3",
          "ticks": 1390,
          "time": 16.162790697674417,
          "velocity": 0.6535433070866141
        },
        {
          "duration": 0.16279069767442067,
          "durationTicks": 14,
          "midi": 85,
          "name": "C#6",
          "ticks": 1390,
          "time": 16.162790697674417,
          "velocity": 0.2125984251968504
        },
        {
          "duration": 0.011627906976745095,
          "durationTicks": 1,
          "midi": 36,
          "name": "C2",
          "ticks": 1391,
          "time": 16.174418604651162,
          "velocity": 0.6062992125984252
        },
        {
          "duration": 0.08139534883720856,
          "durationTicks": 7,
          "midi": 51,
          "name": "D#3",
          "ticks": 1392,
          "time": 16.186046511627907,
          "velocity": 0.6535433070866141
        },
        {
          "duration": 0.03488372093023173,
          "durationTicks": 3,
          "midi": 73,
          "name": "C#5",
          "ticks": 1392,
          "time": 16.186046511627907,
          "velocity": 0.16535433070866143
        },
        {
          "duration": 0.05813953488372192,
          "durationTicks": 5,
          "midi": 79,
          "name": "G5",
          "ticks": 1392,
          "time": 16.186046511627907,
          "velocity": 0.13385826771653545
        },
        {
          "duration": 0.023255813953486637,
          "durationTicks": 2,
          "midi": 42,
          "name": "F#2",
          "ticks": 1393,
          "time": 16.197674418604652,
          "velocity": 0.5748031496062992
        },
        {
          "duration": 0.05813953488372192,
          "durationTicks": 5,
          "midi": 41,
          "name": "F2",
          "ticks": 1395,
          "time": 16.22093023255814,
          "velocity": 0.6141732283464567
        },
        {
          "duration": 0.03488372093023173,
          "durationTicks": 3,
          "midi": 66,
          "name": "F#4",
          "ticks": 1395,
          "time": 16.22093023255814,
          "velocity": 0.1732283464566929
        },
        {
          "duration": 0.08139534883720856,
          "durationTicks": 7,
          "midi": 73,
          "name": "C#5",
          "ticks": 1396,
          "time": 16.232558139534884,
          "velocity": 0.2204724409448819
        },
        {
          "duration": 0.05813953488372192,
          "durationTicks": 5,
          "midi": 54,
          "name": "F#3",
          "ticks": 1400,
          "time": 16.27906976744186,
          "velocity": 0.3858267716535433
        },
        {
          "duration": 0.03488372093023173,
          "durationTicks": 3,
          "midi": 77,
          "name": "F5",
          "ticks": 1409,
          "time": 16.38372093023256,
          "velocity": 0.25984251968503935
        },
        {
          "duration": 0.023255813953486637,
          "durationTicks": 2,
          "midi": 81,
          "name": "A5",
          "ticks": 1409,
          "time": 16.38372093023256,
          "velocity": 0.2440944881889764
        },
        {
          "duration": 0.03488372093023173,
          "durationTicks": 3,
          "midi": 84,
          "name": "C6",
          "ticks": 1409,
          "time": 16.38372093023256,
          "velocity": 0.25984251968503935
        },
        {
          "duration": 0.03488372093023173,
          "durationTicks": 3,
          "midi": 87,
          "name": "D#6",
          "ticks": 1409,
          "time": 16.38372093023256,
          "velocity": 0.2755905511811024
        },
        {
          "duration": 0.348837209302328,
          "durationTicks": 30,
          "midi": 63,
          "name": "D#4",
          "ticks": 1410,
          "time": 16.3953488372093,
          "velocity": 0.5748031496062992
        },
        {
          "duration": 0.13953488372093048,
          "durationTicks": 12,
          "midi": 70,
          "name": "A#4",
          "ticks": 1410,
          "time": 16.3953488372093,
          "velocity": 0.5511811023622047
        },
        {
          "duration": 0.02325581395349019,
          "durationTicks": 2,
          "midi": 88,
          "name": "E6",
          "ticks": 1410,
          "time": 16.3953488372093,
          "velocity": 0.25984251968503935
        },
        {
          "duration": 0.13953488372093048,
          "durationTicks": 12,
          "midi": 51,
          "name": "D#3",
          "ticks": 1411,
          "time": 16.406976744186046,
          "velocity": 0.41732283464566927
        },
        {
          "duration": 0.023255813953486637,
          "durationTicks": 2,
          "midi": 73,
          "name": "C#5",
          "ticks": 1428,
          "time": 16.6046511627907,
          "velocity": 0.4566929133858268
        },
        {
          "duration": 0.02325581395349019,
          "durationTicks": 2,
          "midi": 60,
          "name": "C4",
          "ticks": 1429,
          "time": 16.61627906976744,
          "velocity": 0.4881889763779528
        },
        {
          "duration": 0.02325581395349019,
          "durationTicks": 2,
          "midi": 80,
          "name": "G#5",
          "ticks": 1429,
          "time": 16.61627906976744,
          "velocity": 0.2440944881889764
        },
        {
          "duration": 0.02325581395349019,
          "durationTicks": 2,
          "midi": 87,
          "name": "D#6",
          "ticks": 1429,
          "time": 16.61627906976744,
          "velocity": 0.2755905511811024
        },
        {
          "duration": 0.13953488372093048,
          "durationTicks": 12,
          "midi": 90,
          "name": "F#6",
          "ticks": 1429,
          "time": 16.61627906976744,
          "velocity": 0.2125984251968504
        },
        {
          "duration": 0.011627906976745095,
          "durationTicks": 1,
          "midi": 36,
          "name": "C2",
          "ticks": 1430,
          "time": 16.627906976744185,
          "velocity": 0.6220472440944882
        },
        {
          "duration": 0.02325581395349019,
          "durationTicks": 2,
          "midi": 51,
          "name": "D#3",
          "ticks": 1430,
          "time": 16.627906976744185,
          "velocity": 0.5275590551181102
        },
        {
          "duration": 0.06976744186046702,
          "durationTicks": 6,
          "midi": 72,
          "name": "C5",
          "ticks": 1430,
          "time": 16.627906976744185,
          "velocity": 0.5669291338582677
        },
        {
          "duration": 0.1976744186046524,
          "durationTicks": 17,
          "midi": 78,
          "name": "F#5",
          "ticks": 1430,
          "time": 16.627906976744185,
          "velocity": 0.3543307086614173
        },
        {
          "duration": 0.011627906976745095,
          "durationTicks": 1,
          "midi": 41,
          "name": "F2",
          "ticks": 1431,
          "time": 16.63953488372093,
          "velocity": 0.6220472440944882
        },
        {
          "duration": 0.011627906976745095,
          "durationTicks": 1,
          "midi": 56,
          "name": "G#3",
          "ticks": 1431,
          "time": 16.63953488372093,
          "velocity": 0.5275590551181102
        },
        {
          "duration": 0.011627906976741542,
          "durationTicks": 1,
          "midi": 43,
          "name": "G2",
          "ticks": 1432,
          "time": 16.651162790697676,
          "velocity": 0.5354330708661418
        },
        {
          "duration": 0.023255813953486637,
          "durationTicks": 2,
          "midi": 53,
          "name": "F3",
          "ticks": 1432,
          "time": 16.651162790697676,
          "velocity": 0.6220472440944882
        },
        {
          "duration": 0.12790697674418539,
          "durationTicks": 11,
          "midi": 85,
          "name": "C#6",
          "ticks": 1432,
          "time": 16.651162790697676,
          "velocity": 0.15748031496062992
        },
        {
          "duration": 0.011627906976745095,
          "durationTicks": 1,
          "midi": 45,
          "name": "A2",
          "ticks": 1433,
          "time": 16.662790697674417,
          "velocity": 0.5275590551181102
        },
        {
          "duration": 0.011627906976745095,
          "durationTicks": 1,
          "midi": 42,
          "name": "F#2",
          "ticks": 1434,
          "time": 16.674418604651162,
          "velocity": 0.6377952755905512
        },
        {
          "duration": 0.02325581395349019,
          "durationTicks": 2,
          "midi": 52,
          "name": "E3",
          "ticks": 1434,
          "time": 16.674418604651162,
          "velocity": 0.5196850393700787
        },
        {
          "duration": 0.08139534883720856,
          "durationTicks": 7,
          "midi": 59,
          "name": "B3",
          "ticks": 1434,
          "time": 16.674418604651162,
          "velocity": 0.5039370078740157
        },
        {
          "duration": 0.02325581395349019,
          "durationTicks": 2,
          "midi": 66,
          "name": "F#4",
          "ticks": 1434,
          "time": 16.674418604651162,
          "velocity": 0.2440944881889764
        },
        {
          "duration": 0.011627906976745095,
          "durationTicks": 1,
          "midi": 41,
          "name": "F2",
          "ticks": 1435,
          "time": 16.686046511627907,
          "velocity": 0.6692913385826772
        },
        {
          "duration": 0.011627906976741542,
          "durationTicks": 1,
          "midi": 42,
          "name": "F#2",
          "ticks": 1436,
          "time": 16.697674418604652,
          "velocity": 0.6299212598425197
        },
        {
          "duration": 0.16279069767441712,
          "durationTicks": 14,
          "midi": 73,
          "name": "C#5",
          "ticks": 1436,
          "time": 16.697674418604652,
          "velocity": 0.5039370078740157
        },
        {
          "duration": 0.011627906976745095,
          "durationTicks": 1,
          "midi": 41,
          "name": "F2",
          "ticks": 1437,
          "time": 16.709302325581394,
          "velocity": 0.5511811023622047
        },
        {
          "duration": 0.08139534883721211,
          "durationTicks": 7,
          "midi": 66,
          "name": "F#4",
          "ticks": 1437,
          "time": 16.709302325581394,
          "velocity": 0.2204724409448819
        },
        {
          "duration": 0.02325581395349019,
          "durationTicks": 2,
          "midi": 52,
          "name": "E3",
          "ticks": 1438,
          "time": 16.72093023255814,
          "velocity": 0.29133858267716534
        },
        {
          "duration": 0.023255813953486637,
          "durationTicks": 2,
          "midi": 39,
          "name": "D#2",
          "ticks": 1439,
          "time": 16.732558139534884,
          "velocity": 0.36220472440944884
        },
        {
          "duration": 0.12790697674418539,
          "durationTicks": 11,
          "midi": 92,
          "name": "G#6",
          "ticks": 1440,
          "time": 16.74418604651163,
          "velocity": 0.1968503937007874
        },
        {
          "duration": 0.02325581395349019,
          "durationTicks": 2,
          "midi": 41,
          "name": "F2",
          "ticks": 1441,
          "time": 16.75581395348837,
          "velocity": 0.3228346456692913
        },
        {
          "duration": 0.06976744186046702,
          "durationTicks": 6,
          "midi": 55,
          "name": "G3",
          "ticks": 1442,
          "time": 16.767441860465116,
          "velocity": 0.2755905511811024
        },
        {
          "duration": 0.10465116279069875,
          "durationTicks": 9,
          "midi": 61,
          "name": "C#4",
          "ticks": 1442,
          "time": 16.767441860465116,
          "velocity": 0.4645669291338583
        },
        {
          "duration": 0.09302325581395365,
          "durationTicks": 8,
          "midi": 80,
          "name": "G#5",
          "ticks": 1442,
          "time": 16.767441860465116,
          "velocity": 0.2283464566929134
        },
        {
          "duration": 0.05813953488372192,
          "durationTicks": 5,
          "midi": 40,
          "name": "E2",
          "ticks": 1443,
          "time": 16.77906976744186,
          "velocity": 0.2283464566929134
        },
        {
          "duration": 0.05813953488371837,
          "durationTicks": 5,
          "midi": 71,
          "name": "B4",
          "ticks": 1444,
          "time": 16.790697674418606,
          "velocity": 0.13385826771653545
        },
        {
          "duration": 0.11627906976744384,
          "durationTicks": 10,
          "midi": 81,
          "name": "A5",
          "ticks": 1449,
          "time": 16.848837209302324,
          "velocity": 0.2047244094488189
        },
        {
          "duration": 0.09302325581395365,
          "durationTicks": 8,
          "midi": 72,
          "name": "C5",
          "ticks": 1450,
          "time": 16.86046511627907,
          "velocity": 0.5826771653543307
        },
        {
          "duration": 0.023255813953486637,
          "durationTicks": 2,
          "midi": 39,
          "name": "D#2",
          "ticks": 1451,
          "time": 16.872093023255815,
          "velocity": 0.23622047244094488
        },
        {
          "duration": 0.09302325581395365,
          "durationTicks": 8,
          "midi": 62,
          "name": "D4",
          "ticks": 1451,
          "time": 16.872093023255815,
          "velocity": 0.4251968503937008
        },
        {
          "duration": 0.011627906976745095,
          "durationTicks": 1,
          "midi": 63,
          "name": "D#4",
          "ticks": 1459,
          "time": 16.96511627906977,
          "velocity": 0.5118110236220472
        },
        {
          "duration": 0.03488372093023173,
          "durationTicks": 3,
          "midi": 77,
          "name": "F5",
          "ticks": 1459,
          "time": 16.96511627906977,
          "velocity": 0.11023622047244094
        },
        {
          "duration": 0.13953488372093048,
          "durationTicks": 12,
          "midi": 82,
          "name": "A#5",
          "ticks": 1459,
          "time": 16.96511627906977,
          "velocity": 0.30708661417322836
        },
        {
          "duration": 0.03488372093023173,
          "durationTicks": 3,
          "midi": 83,
          "name": "B5",
          "ticks": 1459,
          "time": 16.96511627906977,
          "velocity": 0.08661417322834646
        },
        {
          "duration": 0.11627906976744029,
          "durationTicks": 10,
          "midi": 85,
          "name": "C#6",
          "ticks": 1459,
          "time": 16.96511627906977,
          "velocity": 0.2677165354330709
        },
        {
          "duration": 0.011627906976741542,
          "durationTicks": 1,
          "midi": 64,
          "name": "E4",
          "ticks": 1460,
          "time": 16.976744186046513,
          "velocity": 0.5669291338582677
        },
        {
          "duration": 0.09302325581395365,
          "durationTicks": 8,
          "midi": 63,
          "name": "D#4",
          "ticks": 1461,
          "time": 16.988372093023255,
          "velocity": 0.5590551181102362
        },
        {
          "duration": 0.08139534883720856,
          "durationTicks": 7,
          "midi": 71,
          "name": "B4",
          "ticks": 1462,
          "time": 17,
          "velocity": 0.33070866141732286
        },
        {
          "duration": 0.08139534883720856,
          "durationTicks": 7,
          "midi": 73,
          "name": "C#5",
          "ticks": 1462,
          "time": 17,
          "velocity": 0.3937007874015748
        },
        {
          "duration": 0.09302325581395365,
          "durationTicks": 8,
          "midi": 78,
          "name": "F#5",
          "ticks": 1462,
          "time": 17,
          "velocity": 0.30708661417322836
        },
        {
          "duration": 0.023255813953486637,
          "durationTicks": 2,
          "midi": 54,
          "name": "F#3",
          "ticks": 1463,
          "time": 17.011627906976745,
          "velocity": 0.25984251968503935
        },
        {
          "duration": 0.06976744186046346,
          "durationTicks": 6,
          "midi": 59,
          "name": "B3",
          "ticks": 1463,
          "time": 17.011627906976745,
          "velocity": 0.30708661417322836
        },
        {
          "duration": 0.03488372093023173,
          "durationTicks": 3,
          "midi": 55,
          "name": "G3",
          "ticks": 1465,
          "time": 17.03488372093023,
          "velocity": 0.11023622047244094
        },
        {
          "duration": 0.03488372093023173,
          "durationTicks": 3,
          "midi": 66,
          "name": "F#4",
          "ticks": 1466,
          "time": 17.046511627906977,
          "velocity": 0.30708661417322836
        },
        {
          "duration": 0.034883720930235285,
          "durationTicks": 3,
          "midi": 80,
          "name": "G#5",
          "ticks": 1468,
          "time": 17.069767441860463,
          "velocity": 0.2677165354330709
        },
        {
          "duration": 0.034883720930235285,
          "durationTicks": 3,
          "midi": 86,
          "name": "D6",
          "ticks": 1468,
          "time": 17.069767441860463,
          "velocity": 0.25196850393700787
        },
        {
          "duration": 0.011627906976745095,
          "durationTicks": 1,
          "midi": 34,
          "name": "A#1",
          "ticks": 1469,
          "time": 17.08139534883721,
          "velocity": 0.5196850393700787
        },
        {
          "duration": 0.10465116279069875,
          "durationTicks": 9,
          "midi": 72,
          "name": "C5",
          "ticks": 1469,
          "time": 17.08139534883721,
          "velocity": 0.5511811023622047
        },
        {
          "duration": 0.011627906976745095,
          "durationTicks": 1,
          "midi": 40,
          "name": "E2",
          "ticks": 1470,
          "time": 17.093023255813954,
          "velocity": 0.6141732283464567
        },
        {
          "duration": 0.023255813953486637,
          "durationTicks": 2,
          "midi": 50,
          "name": "D3",
          "ticks": 1470,
          "time": 17.093023255813954,
          "velocity": 0.5196850393700787
        },
        {
          "duration": 0.10465116279069875,
          "durationTicks": 9,
          "midi": 63,
          "name": "D#4",
          "ticks": 1470,
          "time": 17.093023255813954,
          "velocity": 0.5511811023622047
        },
        {
          "duration": 0.03488372093023173,
          "durationTicks": 3,
          "midi": 77,
          "name": "F5",
          "ticks": 1470,
          "time": 17.093023255813954,
          "velocity": 0.30708661417322836
        },
        {
          "duration": 0.11627906976744029,
          "durationTicks": 10,
          "midi": 85,
          "name": "C#6",
          "ticks": 1470,
          "time": 17.093023255813954,
          "velocity": 0.25196850393700787
        },
        {
          "duration": 0.011627906976741542,
          "durationTicks": 1,
          "midi": 41,
          "name": "F2",
          "ticks": 1471,
          "time": 17.1046511627907,
          "velocity": 0.5826771653543307
        },
        {
          "duration": 0.02325581395349019,
          "durationTicks": 2,
          "midi": 44,
          "name": "G#2",
          "ticks": 1472,
          "time": 17.11627906976744,
          "velocity": 0.5354330708661418
        },
        {
          "duration": 0.011627906976745095,
          "durationTicks": 1,
          "midi": 53,
          "name": "F3",
          "ticks": 1472,
          "time": 17.11627906976744,
          "velocity": 0.5590551181102362
        },
        {
          "duration": 0.10465116279069875,
          "durationTicks": 9,
          "midi": 78,
          "name": "F#5",
          "ticks": 1473,
          "time": 17.127906976744185,
          "velocity": 0.28346456692913385
        },
        {
          "duration": 0.04651162790697683,
          "durationTicks": 4,
          "midi": 41,
          "name": "F2",
          "ticks": 1474,
          "time": 17.13953488372093,
          "velocity": 0.6692913385826772
        },
        {
          "duration": 0.011627906976745095,
          "durationTicks": 1,
          "midi": 51,
          "name": "D#3",
          "ticks": 1474,
          "time": 17.13953488372093,
          "velocity": 0.5196850393700787
        },
        {
          "duration": 0.10465116279069875,
          "durationTicks": 9,
          "midi": 66,
          "name": "F#4",
          "ticks": 1474,
          "time": 17.13953488372093,
          "velocity": 0.33070866141732286
        },
        {
          "duration": 0.08139534883721211,
          "durationTicks": 7,
          "midi": 55,
          "name": "G3",
          "ticks": 1476,
          "time": 17.162790697674417,
          "velocity": 0.33858267716535434
        },
        {
          "duration": 0.02325581395349019,
          "durationTicks": 2,
          "midi": 41,
          "name": "F2",
          "ticks": 1481,
          "time": 17.22093023255814,
          "velocity": 0.33070866141732286
        },
        {
          "duration": 0.05813953488371837,
          "durationTicks": 5,
          "midi": 40,
          "name": "E2",
          "ticks": 1483,
          "time": 17.24418604651163,
          "velocity": 0.23622047244094488
        },
        {
          "duration": 0.06976744186046702,
          "durationTicks": 6,
          "midi": 72,
          "name": "C5",
          "ticks": 1488,
          "time": 17.302325581395348,
          "velocity": 0.5590551181102362
        },
        {
          "duration": 0.034883720930235285,
          "durationTicks": 3,
          "midi": 79,
          "name": "G5",
          "ticks": 1488,
          "time": 17.302325581395348,
          "velocity": 0.29133858267716534
        },
        {
          "duration": 0.02325581395349019,
          "durationTicks": 2,
          "midi": 85,
          "name": "C#6",
          "ticks": 1488,
          "time": 17.302325581395348,
          "velocity": 0.2755905511811024
        },
        {
          "duration": 0.034883720930235285,
          "durationTicks": 3,
          "midi": 88,
          "name": "E6",
          "ticks": 1488,
          "time": 17.302325581395348,
          "velocity": 0.2440944881889764
        },
        {
          "duration": 0.16279069767442067,
          "durationTicks": 14,
          "midi": 63,
          "name": "D#4",
          "ticks": 1489,
          "time": 17.313953488372093,
          "velocity": 0.6062992125984252
        },
        {
          "duration": 0.02325581395349019,
          "durationTicks": 2,
          "midi": 81,
          "name": "A5",
          "ticks": 1489,
          "time": 17.313953488372093,
          "velocity": 0.2677165354330709
        },
        {
          "duration": 0.04651162790697683,
          "durationTicks": 4,
          "midi": 83,
          "name": "B5",
          "ticks": 1489,
          "time": 17.313953488372093,
          "velocity": 0.25196850393700787
        },
        {
          "duration": 0.023255813953486637,
          "durationTicks": 2,
          "midi": 48,
          "name": "C3",
          "ticks": 1490,
          "time": 17.325581395348838,
          "velocity": 0.5748031496062992
        },
        {
          "duration": 0.023255813953486637,
          "durationTicks": 2,
          "midi": 76,
          "name": "E5",
          "ticks": 1490,
          "time": 17.325581395348838,
          "velocity": 0.25984251968503935
        },
        {
          "duration": 0.06976744186046346,
          "durationTicks": 6,
          "midi": 80,
          "name": "G#5",
          "ticks": 1491,
          "time": 17.337209302325583,
          "velocity": 0.2677165354330709
        },
        {
          "duration": 0.02325581395349019,
          "durationTicks": 2,
          "midi": 49,
          "name": "C#3",
          "ticks": 1492,
          "time": 17.348837209302324,
          "velocity": 0.5669291338582677
        },
        {
          "duration": 0.15116279069767558,
          "durationTicks": 13,
          "midi": 78,
          "name": "F#5",
          "ticks": 1493,
          "time": 17.36046511627907,
          "velocity": 0.25984251968503935
        },
        {
          "duration": 0.11627906976744384,
          "durationTicks": 10,
          "midi": 85,
          "name": "C#6",
          "ticks": 1493,
          "time": 17.36046511627907,
          "velocity": 0.18110236220472442
        },
        {
          "duration": 0.011627906976745095,
          "durationTicks": 1,
          "midi": 50,
          "name": "D3",
          "ticks": 1494,
          "time": 17.372093023255815,
          "velocity": 0.5748031496062992
        },
        {
          "duration": 0.12790697674418539,
          "durationTicks": 11,
          "midi": 73,
          "name": "C#5",
          "ticks": 1494,
          "time": 17.372093023255815,
          "velocity": 0.3464566929133858
        },
        {
          "duration": 0.023255813953486637,
          "durationTicks": 2,
          "midi": 49,
          "name": "C#3",
          "ticks": 1495,
          "time": 17.38372093023256,
          "velocity": 0.4645669291338583
        },
        {
          "duration": 0.05813953488372192,
          "durationTicks": 5,
          "midi": 71,
          "name": "B4",
          "ticks": 1496,
          "time": 17.3953488372093,
          "velocity": 0.28346456692913385
        },
        {
          "duration": 0.023255813953486637,
          "durationTicks": 2,
          "midi": 60,
          "name": "C4",
          "ticks": 1498,
          "time": 17.41860465116279,
          "velocity": 0.29133858267716534
        },
        {
          "duration": 0.034883720930235285,
          "durationTicks": 3,
          "midi": 59,
          "name": "B3",
          "ticks": 1500,
          "time": 17.441860465116278,
          "velocity": 0.30708661417322836
        },
        {
          "duration": 0.03488372093023173,
          "durationTicks": 3,
          "midi": 70,
          "name": "A#4",
          "ticks": 1501,
          "time": 17.453488372093023,
          "velocity": 0.2283464566929134
        },
        {
          "duration": 0.03488372093023173,
          "durationTicks": 3,
          "midi": 55,
          "name": "G3",
          "ticks": 1502,
          "time": 17.46511627906977,
          "velocity": 0.2283464566929134
        },
        {
          "duration": 0.05813953488371837,
          "durationTicks": 5,
          "midi": 60,
          "name": "C4",
          "ticks": 1503,
          "time": 17.476744186046513,
          "velocity": 0.25196850393700787
        },
        {
          "duration": 0.02325581395349019,
          "durationTicks": 2,
          "midi": 82,
          "name": "A#5",
          "ticks": 1508,
          "time": 17.53488372093023,
          "velocity": 0.28346456692913385
        },
        {
          "duration": 0.03488372093023173,
          "durationTicks": 3,
          "midi": 84,
          "name": "C6",
          "ticks": 1508,
          "time": 17.53488372093023,
          "velocity": 0.2677165354330709
        },
        {
          "duration": 0.03488372093023173,
          "durationTicks": 3,
          "midi": 88,
          "name": "E6",
          "ticks": 1508,
          "time": 17.53488372093023,
          "velocity": 0.2755905511811024
        },
        {
          "duration": 0.011627906976745095,
          "durationTicks": 1,
          "midi": 35,
          "name": "B1",
          "ticks": 1509,
          "time": 17.546511627906977,
          "velocity": 0.5433070866141733
        },
        {
          "duration": 0.13953488372093048,
          "durationTicks": 12,
          "midi": 63,
          "name": "D#4",
          "ticks": 1509,
          "time": 17.546511627906977,
          "velocity": 0.5748031496062992
        },
        {
          "duration": 0.12790697674418539,
          "durationTicks": 11,
          "midi": 72,
          "name": "C5",
          "ticks": 1509,
          "time": 17.546511627906977,
          "velocity": 0.5748031496062992
        },
        {
          "duration": 0.023255813953486637,
          "durationTicks": 2,
          "midi": 79,
          "name": "G5",
          "ticks": 1509,
          "time": 17.546511627906977,
          "velocity": 0.28346456692913385
        },
        {
          "duration": 0.023255813953486637,
          "durationTicks": 2,
          "midi": 81,
          "name": "A5",
          "ticks": 1509,
          "time": 17.546511627906977,
          "velocity": 0.28346456692913385
        },
        {
          "duration": 0.023255813953486637,
          "durationTicks": 2,
          "midi": 86,
          "name": "D6",
          "ticks": 1509,
          "time": 17.546511627906977,
          "velocity": 0.25984251968503935
        },
        {
          "duration": 0.011627906976741542,
          "durationTicks": 1,
          "midi": 40,
          "name": "E2",
          "ticks": 1510,
          "time": 17.558139534883722,
          "velocity": 0.6141732283464567
        },
        {
          "duration": 0.023255813953486637,
          "durationTicks": 2,
          "midi": 51,
          "name": "D#3",
          "ticks": 1510,
          "time": 17.558139534883722,
          "velocity": 0.5275590551181102
        },
        {
          "duration": 0.011627906976745095,
          "durationTicks": 1,
          "midi": 41,
          "name": "F2",
          "ticks": 1511,
          "time": 17.569767441860463,
          "velocity": 0.5433070866141733
        },
        {
          "duration": 0.011627906976745095,
          "durationTicks": 1,
          "midi": 53,
          "name": "F3",
          "ticks": 1512,
          "time": 17.58139534883721,
          "velocity": 0.5433070866141733
        },
        {
          "duration": 0.04651162790697683,
          "durationTicks": 4,
          "midi": 67,
          "name": "G4",
          "ticks": 1512,
          "time": 17.58139534883721,
          "velocity": 0.07874015748031496
        },
        {
          "duration": 0.04651162790697683,
          "durationTicks": 4,
          "midi": 74,
          "name": "D5",
          "ticks": 1512,
          "time": 17.58139534883721,
          "velocity": 0.18110236220472442
        },
        {
          "duration": 0.011627906976745095,
          "durationTicks": 1,
          "midi": 35,
          "name": "B1",
          "ticks": 1513,
          "time": 17.593023255813954,
          "velocity": 0.5748031496062992
        },
        {
          "duration": 0.023255813953486637,
          "durationTicks": 2,
          "midi": 52,
          "name": "E3",
          "ticks": 1513,
          "time": 17.593023255813954,
          "velocity": 0.5118110236220472
        },
        {
          "duration": 0.04651162790697683,
          "durationTicks": 4,
          "midi": 41,
          "name": "F2",
          "ticks": 1514,
          "time": 17.6046511627907,
          "velocity": 0.6692913385826772
        },
        {
          "duration": 0.03488372093023173,
          "durationTicks": 3,
          "midi": 55,
          "name": "G3",
          "ticks": 1516,
          "time": 17.627906976744185,
          "velocity": 0.2992125984251969
        },
        {
          "duration": 0.04651162790697683,
          "durationTicks": 4,
          "midi": 55,
          "name": "G3",
          "ticks": 1520,
          "time": 17.674418604651162,
          "velocity": 0.11811023622047244
        },
        {
          "duration": 0.023255813953486637,
          "durationTicks": 2,
          "midi": 41,
          "name": "F2",
          "ticks": 1521,
          "time": 17.686046511627907,
          "velocity": 0.31496062992125984
        },
        {
          "duration": 0.05813953488372192,
          "durationTicks": 5,
          "midi": 40,
          "name": "E2",
          "ticks": 1523,
          "time": 17.709302325581394,
          "velocity": 0.2283464566929134
        },
        {
          "duration": 0.08139534883720856,
          "durationTicks": 7,
          "midi": 72,
          "name": "C5",
          "ticks": 1528,
          "time": 17.767441860465116,
          "velocity": 0.5669291338582677
        },
        {
          "duration": 0.02325581395349019,
          "durationTicks": 2,
          "midi": 81,
          "name": "A5",
          "ticks": 1528,
          "time": 17.767441860465116,
          "velocity": 0.30708661417322836
        },
        {
          "duration": 0.02325581395349019,
          "durationTicks": 2,
          "midi": 85,
          "name": "C#6",
          "ticks": 1528,
          "time": 17.767441860465116,
          "velocity": 0.2755905511811024
        },
        {
          "duration": 0.03488372093023173,
          "durationTicks": 3,
          "midi": 87,
          "name": "D#6",
          "ticks": 1528,
          "time": 17.767441860465116,
          "velocity": 0.28346456692913385
        },
        {
          "duration": 0.023255813953486637,
          "durationTicks": 2,
          "midi": 48,
          "name": "C3",
          "ticks": 1529,
          "time": 17.77906976744186,
          "velocity": 0.5433070866141733
        },
        {
          "duration": 0.11627906976744029,
          "durationTicks": 10,
          "midi": 65,
          "name": "F4",
          "ticks": 1529,
          "time": 17.77906976744186,
          "velocity": 0.6299212598425197
        },
        {
          "duration": 0.023255813953486637,
          "durationTicks": 2,
          "midi": 79,
          "name": "G5",
          "ticks": 1529,
          "time": 17.77906976744186,
          "velocity": 0.31496062992125984
        },
        {
          "duration": 0.05813953488372192,
          "durationTicks": 5,
          "midi": 83,
          "name": "B5",
          "ticks": 1529,
          "time": 17.77906976744186,
          "velocity": 0.28346456692913385
        },
        {
          "duration": 0.05813953488371837,
          "durationTicks": 5,
          "midi": 61,
          "name": "C#4",
          "ticks": 1530,
          "time": 17.790697674418606,
          "velocity": 0.3937007874015748
        },
        {
          "duration": 0.06976744186046346,
          "durationTicks": 6,
          "midi": 80,
          "name": "G#5",
          "ticks": 1530,
          "time": 17.790697674418606,
          "velocity": 0.1968503937007874
        },
        {
          "duration": 0.011627906976745095,
          "durationTicks": 1,
          "midi": 49,
          "name": "C#3",
          "ticks": 1531,
          "time": 17.802325581395348,
          "velocity": 0.5590551181102362
        },
        {
          "duration": 0.02325581395349019,
          "durationTicks": 2,
          "midi": 50,
          "name": "D3",
          "ticks": 1532,
          "time": 17.813953488372093,
          "velocity": 0.6220472440944882
        },
        {
          "duration": 0.10465116279069875,
          "durationTicks": 9,
          "midi": 78,
          "name": "F#5",
          "ticks": 1532,
          "time": 17.813953488372093,
          "velocity": 0.3228346456692913
        },
        {
          "duration": 0.11627906976744384,
          "durationTicks": 10,
          "midi": 85,
          "name": "C#6",
          "ticks": 1532,
          "time": 17.813953488372093,
          "velocity": 0.2204724409448819
        },
        {
          "duration": 0.02325581395349019,
          "durationTicks": 2,
          "midi": 60,
          "name": "C4",
          "ticks": 1535,
          "time": 17.848837209302324,
          "velocity": 0.3700787401574803
        },
        {
          "duration": 0.02325581395349019,
          "durationTicks": 2,
          "midi": 50,
          "name": "D3",
          "ticks": 1536,
          "time": 17.86046511627907,
          "velocity": 0.4094488188976378
        },
        {
          "duration": 0.08139534883720856,
          "durationTicks": 7,
          "midi": 71,
          "name": "B4",
          "ticks": 1536,
          "time": 17.86046511627907,
          "velocity": 0.3779527559055118
        },
        {
          "duration": 0.08139534883720856,
          "durationTicks": 7,
          "midi": 73,
          "name": "C#5",
          "ticks": 1537,
          "time": 17.872093023255815,
          "velocity": 0.28346456692913385
        },
        {
          "duration": 0.04651162790697683,
          "durationTicks": 4,
          "midi": 59,
          "name": "B3",
          "ticks": 1539,
          "time": 17.8953488372093,
          "velocity": 0.28346456692913385
        },
        {
          "duration": 0.23255813953488413,
          "durationTicks": 20,
          "midi": 63,
          "name": "D#4",
          "ticks": 1539,
          "time": 17.8953488372093,
          "velocity": 0.6062992125984252
        },
        {
          "duration": 0.023255813953486637,
          "durationTicks": 2,
          "midi": 53,
          "name": "F3",
          "ticks": 1541,
          "time": 17.91860465116279,
          "velocity": 0.2283464566929134
        },
        {
          "duration": 0.03488372093023173,
          "durationTicks": 3,
          "midi": 86,
          "name": "D6",
          "ticks": 1548,
          "time": 18,
          "velocity": 0.2440944881889764
        },
        {
          "duration": 0.15116279069767558,
          "durationTicks": 13,
          "midi": 87,
          "name": "D#6",
          "ticks": 1548,
          "time": 18,
          "velocity": 0.25196850393700787
        },
        {
          "duration": 0.011627906976741542,
          "durationTicks": 1,
          "midi": 36,
          "name": "C2",
          "ticks": 1549,
          "time": 18.011627906976745,
          "velocity": 0.6141732283464567
        },
        {
          "duration": 0.11627906976744029,
          "durationTicks": 10,
          "midi": 72,
          "name": "C5",
          "ticks": 1549,
          "time": 18.011627906976745,
          "velocity": 0.5590551181102362
        },
        {
          "duration": 0.08139534883720856,
          "durationTicks": 7,
          "midi": 82,
          "name": "A#5",
          "ticks": 1549,
          "time": 18.011627906976745,
          "velocity": 0.29133858267716534
        },
        {
          "duration": 0.023255813953486637,
          "durationTicks": 2,
          "midi": 88,
          "name": "E6",
          "ticks": 1549,
          "time": 18.011627906976745,
          "velocity": 0.25196850393700787
        },
        {
          "duration": 0.011627906976745095,
          "durationTicks": 1,
          "midi": 40,
          "name": "E2",
          "ticks": 1550,
          "time": 18.023255813953487,
          "velocity": 0.6220472440944882
        },
        {
          "duration": 0.011627906976745095,
          "durationTicks": 1,
          "midi": 43,
          "name": "G2",
          "ticks": 1551,
          "time": 18.03488372093023,
          "velocity": 0.5275590551181102
        },
        {
          "duration": 0.011627906976745095,
          "durationTicks": 1,
          "midi": 55,
          "name": "G3",
          "ticks": 1551,
          "time": 18.03488372093023,
          "velocity": 0.5275590551181102
        },
        {
          "duration": 0.023255813953486637,
          "durationTicks": 2,
          "midi": 74,
          "name": "D5",
          "ticks": 1552,
          "time": 18.046511627906977,
          "velocity": 0.33070866141732286
        },
        {
          "duration": 0.011627906976741542,
          "durationTicks": 1,
          "midi": 42,
          "name": "F#2",
          "ticks": 1553,
          "time": 18.058139534883722,
          "velocity": 0.6141732283464567
        },
        {
          "duration": 0.023255813953486637,
          "durationTicks": 2,
          "midi": 51,
          "name": "D#3",
          "ticks": 1553,
          "time": 18.058139534883722,
          "velocity": 0.5511811023622047
        },
        {
          "duration": 0.04651162790697683,
          "durationTicks": 4,
          "midi": 41,
          "name": "F2",
          "ticks": 1554,
          "time": 18.069767441860463,
          "velocity": 0.6771653543307087
        },
        {
          "duration": 0.10465116279069875,
          "durationTicks": 9,
          "midi": 68,
          "name": "G#4",
          "ticks": 1555,
          "time": 18.08139534883721,
          "velocity": 0.14960629921259844
        },
        {
          "duration": 0.023255813953486637,
          "durationTicks": 2,
          "midi": 56,
          "name": "G#3",
          "ticks": 1556,
          "time": 18.093023255813954,
          "velocity": 0.3779527559055118
        },
        {
          "duration": 0.023255813953486637,
          "durationTicks": 2,
          "midi": 52,
          "name": "E3",
          "ticks": 1557,
          "time": 18.1046511627907,
          "velocity": 0.3228346456692913
        },
        {
          "duration": 0.02325581395349019,
          "durationTicks": 2,
          "midi": 39,
          "name": "D#2",
          "ticks": 1558,
          "time": 18.11627906976744,
          "velocity": 0.3779527559055118
        },
        {
          "duration": 0.02325581395349019,
          "durationTicks": 2,
          "midi": 57,
          "name": "A3",
          "ticks": 1558,
          "time": 18.11627906976744,
          "velocity": 0.29133858267716534
        },
        {
          "duration": 0.03488372093023173,
          "durationTicks": 3,
          "midi": 56,
          "name": "G#3",
          "ticks": 1560,
          "time": 18.13953488372093,
          "velocity": 0.33858267716535434
        },
        {
          "duration": 0.05813953488372192,
          "durationTicks": 5,
          "midi": 40,
          "name": "E2",
          "ticks": 1562,
          "time": 18.162790697674417,
          "velocity": 0.2755905511811024
        },
        {
          "duration": 0.04651162790697683,
          "durationTicks": 4,
          "midi": 55,
          "name": "G3",
          "ticks": 1563,
          "time": 18.174418604651162,
          "velocity": 0.11023622047244094
        },
        {
          "duration": 0.09302325581395365,
          "durationTicks": 8,
          "midi": 72,
          "name": "C5",
          "ticks": 1568,
          "time": 18.232558139534884,
          "velocity": 0.5748031496062992
        },
        {
          "duration": 0.03488372093023173,
          "durationTicks": 3,
          "midi": 81,
          "name": "A5",
          "ticks": 1568,
          "time": 18.232558139534884,
          "velocity": 0.25984251968503935
        },
        {
          "duration": 0.03488372093023173,
          "durationTicks": 3,
          "midi": 85,
          "name": "C#6",
          "ticks": 1568,
          "time": 18.232558139534884,
          "velocity": 0.25984251968503935
        },
        {
          "duration": 0.023255813953486637,
          "durationTicks": 2,
          "midi": 86,
          "name": "D6",
          "ticks": 1568,
          "time": 18.232558139534884,
          "velocity": 0.23622047244094488
        },
        {
          "duration": 0.03488372093023173,
          "durationTicks": 3,
          "midi": 88,
          "name": "E6",
          "ticks": 1568,
          "time": 18.232558139534884,
          "velocity": 0.2283464566929134
        },
        {
          "duration": 0.09302325581395365,
          "durationTicks": 8,
          "midi": 63,
          "name": "D#4",
          "ticks": 1569,
          "time": 18.24418604651163,
          "velocity": 0.5984251968503937
        },
        {
          "duration": 0.023255813953486637,
          "durationTicks": 2,
          "midi": 83,
          "name": "B5",
          "ticks": 1569,
          "time": 18.24418604651163,
          "velocity": 0.25196850393700787
        },
        {
          "duration": 0.16279069767441712,
          "durationTicks": 14,
          "midi": 92,
          "name": "G#6",
          "ticks": 1569,
          "time": 18.24418604651163,
          "velocity": 0.14173228346456693
        },
        {
          "duration": 0.2558139534883743,
          "durationTicks": 22,
          "midi": 80,
          "name": "G#5",
          "ticks": 1570,
          "time": 18.25581395348837,
          "velocity": 0.30708661417322836
        },
        {
          "duration": 0.16279069767441712,
          "durationTicks": 14,
          "midi": 54,
          "name": "F#3",
          "ticks": 1572,
          "time": 18.27906976744186,
          "velocity": 0.3937007874015748
        },
        {
          "duration": 0.09302325581395365,
          "durationTicks": 8,
          "midi": 85,
          "name": "C#6",
          "ticks": 1574,
          "time": 18.302325581395348,
          "velocity": 0.15748031496062992
        },
        {
          "duration": 0.15116279069767558,
          "durationTicks": 13,
          "midi": 61,
          "name": "C#4",
          "ticks": 1576,
          "time": 18.325581395348838,
          "velocity": 0.4881889763779528
        },
        {
          "duration": 0.02325581395349019,
          "durationTicks": 2,
          "midi": 76,
          "name": "E5",
          "ticks": 1587,
          "time": 18.453488372093023,
          "velocity": 0.4330708661417323
        },
        {
          "duration": 0.023255813953486637,
          "durationTicks": 2,
          "midi": 87,
          "name": "D#6",
          "ticks": 1588,
          "time": 18.46511627906977,
          "velocity": 0.25984251968503935
        },
        {
          "duration": 0.011627906976741542,
          "durationTicks": 1,
          "midi": 40,
          "name": "E2",
          "ticks": 1589,
          "time": 18.476744186046513,
          "velocity": 0.5826771653543307
        },
        {
          "duration": 0.11627906976744029,
          "durationTicks": 10,
          "midi": 63,
          "name": "D#4",
          "ticks": 1589,
          "time": 18.476744186046513,
          "velocity": 0.5590551181102362
        },
        {
          "duration": 0.023255813953486637,
          "durationTicks": 2,
          "midi": 78,
          "name": "F#5",
          "ticks": 1589,
          "time": 18.476744186046513,
          "velocity": 0.28346456692913385
        },
        {
          "duration": 0.03488372093023173,
          "durationTicks": 3,
          "midi": 83,
          "name": "B5",
          "ticks": 1589,
          "time": 18.476744186046513,
          "velocity": 0.23622047244094488
        },
        {
          "duration": 0.02325581395349019,
          "durationTicks": 2,
          "midi": 41,
          "name": "F2",
          "ticks": 1590,
          "time": 18.488372093023255,
          "velocity": 0.5905511811023622
        },
        {
          "duration": 0.011627906976745095,
          "durationTicks": 1,
          "midi": 52,
          "name": "E3",
          "ticks": 1590,
          "time": 18.488372093023255,
          "velocity": 0.5196850393700787
        },
        {
          "duration": 0.011627906976745095,
          "durationTicks": 1,
          "midi": 56,
          "name": "G#3",
          "ticks": 1590,
          "time": 18.488372093023255,
          "velocity": 0.5118110236220472
        },
        {
          "duration": 0.03488372093023173,
          "durationTicks": 3,
          "midi": 68,
          "name": "G#4",
          "ticks": 1591,
          "time": 18.5,
          "velocity": 0.09448818897637795
        },
        {
          "duration": 0.15116279069767558,
          "durationTicks": 13,
          "midi": 77,
          "name": "F5",
          "ticks": 1591,
          "time": 18.5,
          "velocity": 0.23622047244094488
        },
        {
          "duration": 0.011627906976741542,
          "durationTicks": 1,
          "midi": 38,
          "name": "D2",
          "ticks": 1592,
          "time": 18.511627906976745,
          "velocity": 0.5669291338582677
        },
        {
          "duration": 0.11627906976744029,
          "durationTicks": 10,
          "midi": 84,
          "name": "C6",
          "ticks": 1592,
          "time": 18.511627906976745,
          "velocity": 0.31496062992125984
        },
        {
          "duration": 0.011627906976745095,
          "durationTicks": 1,
          "midi": 41,
          "name": "F2",
          "ticks": 1593,
          "time": 18.523255813953487,
          "velocity": 0.6771653543307087
        },
        {
          "duration": 0.02325581395349019,
          "durationTicks": 2,
          "midi": 42,
          "name": "F#2",
          "ticks": 1594,
          "time": 18.53488372093023,
          "velocity": 0.6692913385826772
        },
        {
          "duration": 0.06976744186046346,
          "durationTicks": 6,
          "midi": 70,
          "name": "A#4",
          "ticks": 1595,
          "time": 18.546511627906977,
          "velocity": 0.18110236220472442
        },
        {
          "duration": 0.04651162790697683,
          "durationTicks": 4,
          "midi": 72,
          "name": "C5",
          "ticks": 1596,
          "time": 18.558139534883722,
          "velocity": 0.18110236220472442
        },
        {
          "duration": 0.02325581395349019,
          "durationTicks": 2,
          "midi": 41,
          "name": "F2",
          "ticks": 1598,
          "time": 18.58139534883721,
          "velocity": 0.36220472440944884
        },
        {
          "duration": 0.023255813953486637,
          "durationTicks": 2,
          "midi": 58,
          "name": "A#3",
          "ticks": 1599,
          "time": 18.593023255813954,
          "velocity": 0.4251968503937008
        },
        {
          "duration": 0.10465116279069875,
          "durationTicks": 9,
          "midi": 73,
          "name": "C#5",
          "ticks": 1599,
          "time": 18.593023255813954,
          "velocity": 0.2125984251968504
        },
        {
          "duration": 0.11627906976744029,
          "durationTicks": 10,
          "midi": 92,
          "name": "G#6",
          "ticks": 1599,
          "time": 18.593023255813954,
          "velocity": 0.2283464566929134
        },
        {
          "duration": 0.10465116279069875,
          "durationTicks": 9,
          "midi": 61,
          "name": "C#4",
          "ticks": 1601,
          "time": 18.61627906976744,
          "velocity": 0.4330708661417323
        },
        {
          "duration": 0.03488372093023173,
          "durationTicks": 3,
          "midi": 70,
          "name": "A#4",
          "ticks": 1602,
          "time": 18.627906976744185,
          "velocity": 0.12598425196850394
        },
        {
          "duration": 0.03488372093023173,
          "durationTicks": 3,
          "midi": 65,
          "name": "F4",
          "ticks": 1603,
          "time": 18.63953488372093,
          "velocity": 0.10236220472440945
        },
        {
          "duration": 0.10465116279069875,
          "durationTicks": 9,
          "midi": 75,
          "name": "D#5",
          "ticks": 1607,
          "time": 18.686046511627907,
          "velocity": 0.6062992125984252
        },
        {
          "duration": 0.023255813953486637,
          "durationTicks": 2,
          "midi": 80,
          "name": "G#5",
          "ticks": 1607,
          "time": 18.686046511627907,
          "velocity": 0.25196850393700787
        },
        {
          "duration": 0.023255813953486637,
          "durationTicks": 2,
          "midi": 88,
          "name": "E6",
          "ticks": 1608,
          "time": 18.697674418604652,
          "velocity": 0.2440944881889764
        },
        {
          "duration": 0.10465116279069875,
          "durationTicks": 9,
          "midi": 58,
          "name": "A#3",
          "ticks": 1609,
          "time": 18.709302325581394,
          "velocity": 0.49606299212598426
        },
        {
          "duration": 0.12790697674418894,
          "durationTicks": 11,
          "midi": 89,
          "name": "F6",
          "ticks": 1609,
          "time": 18.709302325581394,
          "velocity": 0.2125984251968504
        },
        {
          "duration": 0.02325581395349019,
          "durationTicks": 2,
          "midi": 64,
          "name": "E4",
          "ticks": 1617,
          "time": 18.802325581395348,
          "velocity": 0.5590551181102362
        },
        {
          "duration": 0.13953488372093048,
          "durationTicks": 12,
          "midi": 72,
          "name": "C5",
          "ticks": 1618,
          "time": 18.813953488372093,
          "velocity": 0.25196850393700787
        },
        {
          "duration": 0.03488372093023173,
          "durationTicks": 3,
          "midi": 75,
          "name": "D#5",
          "ticks": 1618,
          "time": 18.813953488372093,
          "velocity": 0.2283464566929134
        },
        {
          "duration": 0.10465116279069875,
          "durationTicks": 9,
          "midi": 63,
          "name": "D#4",
          "ticks": 1619,
          "time": 18.825581395348838,
          "velocity": 0.6299212598425197
        },
        {
          "duration": 0.04651162790697683,
          "durationTicks": 4,
          "midi": 68,
          "name": "G#4",
          "ticks": 1619,
          "time": 18.825581395348838,
          "velocity": 0.36220472440944884
        },
        {
          "duration": 0.011627906976741542,
          "durationTicks": 1,
          "midi": 56,
          "name": "G#3",
          "ticks": 1620,
          "time": 18.837209302325583,
          "velocity": 0.5511811023622047
        },
        {
          "duration": 0.011627906976745095,
          "durationTicks": 1,
          "midi": 55,
          "name": "G3",
          "ticks": 1621,
          "time": 18.848837209302324,
          "velocity": 0.5433070866141733
        },
        {
          "duration": 0.08139534883721211,
          "durationTicks": 7,
          "midi": 77,
          "name": "F5",
          "ticks": 1621,
          "time": 18.848837209302324,
          "velocity": 0.3937007874015748
        },
        {
          "duration": 0.011627906976745095,
          "durationTicks": 1,
          "midi": 56,
          "name": "G#3",
          "ticks": 1622,
          "time": 18.86046511627907,
          "velocity": 0.5354330708661418
        },
        {
          "duration": 0.05813953488372192,
          "durationTicks": 5,
          "midi": 70,
          "name": "A#4",
          "ticks": 1622,
          "time": 18.86046511627907,
          "velocity": 0.3228346456692913
        },
        {
          "duration": 0.011627906976745095,
          "durationTicks": 1,
          "midi": 57,
          "name": "A3",
          "ticks": 1623,
          "time": 18.872093023255815,
          "velocity": 0.5748031496062992
        },
        {
          "duration": 0.023255813953486637,
          "durationTicks": 2,
          "midi": 55,
          "name": "G3",
          "ticks": 1624,
          "time": 18.88372093023256,
          "velocity": 0.5433070866141733
        },
        {
          "duration": 0.011627906976745095,
          "durationTicks": 1,
          "midi": 56,
          "name": "G#3",
          "ticks": 1626,
          "time": 18.906976744186046,
          "velocity": 0.5669291338582677
        },
        {
          "duration": 0.011627906976745095,
          "durationTicks": 1,
          "midi": 55,
          "name": "G3",
          "ticks": 1627,
          "time": 18.91860465116279,
          "velocity": 0.5433070866141733
        },
        {
          "duration": 0.03488372093023173,
          "durationTicks": 3,
          "midi": 85,
          "name": "C#6",
          "ticks": 1627,
          "time": 18.91860465116279,
          "velocity": 0.25984251968503935
        },
        {
          "duration": 0.03488372093023173,
          "durationTicks": 3,
          "midi": 88,
          "name": "E6",
          "ticks": 1627,
          "time": 18.91860465116279,
          "velocity": 0.31496062992125984
        },
        {
          "duration": 0.011627906976741542,
          "durationTicks": 1,
          "midi": 35,
          "name": "B1",
          "ticks": 1628,
          "time": 18.930232558139537,
          "velocity": 0.5354330708661418
        },
        {
          "duration": 0.011627906976741542,
          "durationTicks": 1,
          "midi": 56,
          "name": "G#3",
          "ticks": 1628,
          "time": 18.930232558139537,
          "velocity": 0.5826771653543307
        },
        {
          "duration": 0.023255813953486637,
          "durationTicks": 2,
          "midi": 81,
          "name": "A5",
          "ticks": 1628,
          "time": 18.930232558139537,
          "velocity": 0.3228346456692913
        },
        {
          "duration": 0.023255813953486637,
          "durationTicks": 2,
          "midi": 86,
          "name": "D6",
          "ticks": 1628,
          "time": 18.930232558139537,
          "velocity": 0.29133858267716534
        },
        {
          "duration": 0.011627906976745095,
          "durationTicks": 1,
          "midi": 40,
          "name": "E2",
          "ticks": 1629,
          "time": 18.941860465116278,
          "velocity": 0.6062992125984252
        },
        {
          "duration": 0.011627906976745095,
          "durationTicks": 1,
          "midi": 57,
          "name": "A3",
          "ticks": 1629,
          "time": 18.941860465116278,
          "velocity": 0.5905511811023622
        },
        {
          "duration": 0.02325581395349019,
          "durationTicks": 2,
          "midi": 64,
          "name": "E4",
          "ticks": 1629,
          "time": 18.941860465116278,
          "velocity": 0.5748031496062992
        },
        {
          "duration": 0.10465116279069875,
          "durationTicks": 9,
          "midi": 70,
          "name": "A#4",
          "ticks": 1629,
          "time": 18.941860465116278,
          "velocity": 0.29133858267716534
        },
        {
          "duration": 0.04651162790697683,
          "durationTicks": 4,
          "midi": 77,
          "name": "F5",
          "ticks": 1629,
          "time": 18.941860465116278,
          "velocity": 0.4015748031496063
        },
        {
          "duration": 0.034883720930235285,
          "durationTicks": 3,
          "midi": 79,
          "name": "G5",
          "ticks": 1629,
          "time": 18.941860465116278,
          "velocity": 0.2204724409448819
        },
        {
          "duration": 0.011627906976745095,
          "durationTicks": 1,
          "midi": 41,
          "name": "F2",
          "ticks": 1630,
          "time": 18.953488372093023,
          "velocity": 0.5669291338582677
        },
        {
          "duration": 0.011627906976745095,
          "durationTicks": 1,
          "midi": 50,
          "name": "D3",
          "ticks": 1630,
          "time": 18.953488372093023,
          "velocity": 0.5354330708661418
        },
        {
          "duration": 0.011627906976745095,
          "durationTicks": 1,
          "midi": 56,
          "name": "G#3",
          "ticks": 1630,
          "time": 18.953488372093023,
          "velocity": 0.5196850393700787
        },
        {
          "duration": 0.16279069767441712,
          "durationTicks": 14,
          "midi": 63,
          "name": "D#4",
          "ticks": 1630,
          "time": 18.953488372093023,
          "velocity": 0.5275590551181102
        },
        {
          "duration": 0.023255813953486637,
          "durationTicks": 2,
          "midi": 52,
          "name": "E3",
          "ticks": 1631,
          "time": 18.96511627906977,
          "velocity": 0.6141732283464567
        },
        {
          "duration": 0.011627906976741542,
          "durationTicks": 1,
          "midi": 39,
          "name": "D#2",
          "ticks": 1632,
          "time": 18.976744186046513,
          "velocity": 0.6141732283464567
        },
        {
          "duration": 0.011627906976741542,
          "durationTicks": 1,
          "midi": 56,
          "name": "G#3",
          "ticks": 1632,
          "time": 18.976744186046513,
          "velocity": 0.5275590551181102
        },
        {
          "duration": 0.03488372093023173,
          "durationTicks": 3,
          "midi": 72,
          "name": "C5",
          "ticks": 1632,
          "time": 18.976744186046513,
          "velocity": 0.1732283464566929
        },
        {
          "duration": 0.011627906976745095,
          "durationTicks": 1,
          "midi": 41,
          "name": "F2",
          "ticks": 1633,
          "time": 18.988372093023255,
          "velocity": 0.6929133858267716
        },
        {
          "duration": 0.13953488372093048,
          "durationTicks": 12,
          "midi": 51,
          "name": "D#3",
          "ticks": 1633,
          "time": 18.988372093023255,
          "velocity": 0.5590551181102362
        },
        {
          "duration": 0.023255813953486637,
          "durationTicks": 2,
          "midi": 42,
          "name": "F#2",
          "ticks": 1634,
          "time": 19,
          "velocity": 0.6692913385826772
        },
        {
          "duration": 0.023255813953486637,
          "durationTicks": 2,
          "midi": 41,
          "name": "F2",
          "ticks": 1639,
          "time": 19.058139534883722,
          "velocity": 0.3228346456692913
        },
        {
          "duration": 0.03488372093023173,
          "durationTicks": 3,
          "midi": 40,
          "name": "E2",
          "ticks": 1643,
          "time": 19.1046511627907,
          "velocity": 0.15748031496062992
        },
        {
          "duration": 0.023255813953486637,
          "durationTicks": 2,
          "midi": 56,
          "name": "G#3",
          "ticks": 1647,
          "time": 19.151162790697676,
          "velocity": 0.3464566929133858
        },
        {
          "duration": 0.023255813953486637,
          "durationTicks": 2,
          "midi": 64,
          "name": "E4",
          "ticks": 1647,
          "time": 19.151162790697676,
          "velocity": 0.49606299212598426
        },
        {
          "duration": 0.023255813953486637,
          "durationTicks": 2,
          "midi": 82,
          "name": "A#5",
          "ticks": 1647,
          "time": 19.151162790697676,
          "velocity": 0.25196850393700787
        },
        {
          "duration": 0.03488372093023173,
          "durationTicks": 3,
          "midi": 86,
          "name": "D6",
          "ticks": 1647,
          "time": 19.151162790697676,
          "velocity": 0.2677165354330709
        },
        {
          "duration": 0.03488372093023173,
          "durationTicks": 3,
          "midi": 87,
          "name": "D#6",
          "ticks": 1647,
          "time": 19.151162790697676,
          "velocity": 0.25984251968503935
        },
        {
          "duration": 0.09302325581395365,
          "durationTicks": 8,
          "midi": 75,
          "name": "D#5",
          "ticks": 1648,
          "time": 19.162790697674417,
          "velocity": 0.5669291338582677
        },
        {
          "duration": 0.09302325581395365,
          "durationTicks": 8,
          "midi": 80,
          "name": "G#5",
          "ticks": 1648,
          "time": 19.162790697674417,
          "velocity": 0.31496062992125984
        },
        {
          "duration": 0.011627906976745095,
          "durationTicks": 1,
          "midi": 48,
          "name": "C3",
          "ticks": 1649,
          "time": 19.174418604651162,
          "velocity": 0.5511811023622047
        },
        {
          "duration": 0.05813953488372192,
          "durationTicks": 5,
          "midi": 55,
          "name": "G3",
          "ticks": 1649,
          "time": 19.174418604651162,
          "velocity": 0.5826771653543307
        },
        {
          "duration": 0.10465116279069875,
          "durationTicks": 9,
          "midi": 63,
          "name": "D#4",
          "ticks": 1649,
          "time": 19.174418604651162,
          "velocity": 0.5984251968503937
        },
        {
          "duration": 0.03488372093023173,
          "durationTicks": 3,
          "midi": 49,
          "name": "C#3",
          "ticks": 1650,
          "time": 19.186046511627907,
          "velocity": 0.5826771653543307
        },
        {
          "duration": 0.12790697674418539,
          "durationTicks": 11,
          "midi": 70,
          "name": "A#4",
          "ticks": 1650,
          "time": 19.186046511627907,
          "velocity": 0.2992125984251969
        },
        {
          "duration": 0.11627906976744029,
          "durationTicks": 10,
          "midi": 72,
          "name": "C5",
          "ticks": 1650,
          "time": 19.186046511627907,
          "velocity": 0.2204724409448819
        },
        {
          "duration": 0.11627906976744029,
          "durationTicks": 10,
          "midi": 77,
          "name": "F5",
          "ticks": 1650,
          "time": 19.186046511627907,
          "velocity": 0.2755905511811024
        },
        {
          "duration": 0.011627906976745095,
          "durationTicks": 1,
          "midi": 50,
          "name": "D3",
          "ticks": 1653,
          "time": 19.22093023255814,
          "velocity": 0.5433070866141733
        },
        {
          "duration": 0.03488372093023173,
          "durationTicks": 3,
          "midi": 49,
          "name": "C#3",
          "ticks": 1654,
          "time": 19.232558139534884,
          "velocity": 0.48031496062992124
        },
        {
          "duration": 0.09302325581395365,
          "durationTicks": 8,
          "midi": 58,
          "name": "A#3",
          "ticks": 1655,
          "time": 19.24418604651163,
          "velocity": 0.4330708661417323
        },
        {
          "duration": 0.02325581395349019,
          "durationTicks": 2,
          "midi": 54,
          "name": "F#3",
          "ticks": 1657,
          "time": 19.267441860465116,
          "velocity": 0.4015748031496063
        },
        {
          "duration": 0.04651162790697683,
          "durationTicks": 4,
          "midi": 65,
          "name": "F4",
          "ticks": 1658,
          "time": 19.27906976744186,
          "velocity": 0.30708661417322836
        },
        {
          "duration": 0.02325581395349019,
          "durationTicks": 2,
          "midi": 51,
          "name": "D#3",
          "ticks": 1660,
          "time": 19.302325581395348,
          "velocity": 0.23622047244094488
        },
        {
          "duration": 0.03488372093023173,
          "durationTicks": 3,
          "midi": 80,
          "name": "G#5",
          "ticks": 1667,
          "time": 19.38372093023256,
          "velocity": 0.2440944881889764
        },
        {
          "duration": 0.03488372093023173,
          "durationTicks": 3,
          "midi": 85,
          "name": "C#6",
          "ticks": 1667,
          "time": 19.38372093023256,
          "velocity": 0.1968503937007874
        },
        {
          "duration": 0.011627906976745095,
          "durationTicks": 1,
          "midi": 36,
          "name": "C2",
          "ticks": 1668,
          "time": 19.3953488372093,
          "velocity": 0.5433070866141733
        },
        {
          "duration": 0.16279069767442067,
          "durationTicks": 14,
          "midi": 63,
          "name": "D#4",
          "ticks": 1668,
          "time": 19.3953488372093,
          "velocity": 0.5905511811023622
        },
        {
          "duration": 0.03488372093023173,
          "durationTicks": 3,
          "midi": 41,
          "name": "F2",
          "ticks": 1669,
          "time": 19.406976744186046,
          "velocity": 0.6062992125984252
        },
        {
          "duration": 0.02325581395349019,
          "durationTicks": 2,
          "midi": 57,
          "name": "A3",
          "ticks": 1669,
          "time": 19.406976744186046,
          "velocity": 0.5275590551181102
        },
        {
          "duration": 0.06976744186046702,
          "durationTicks": 6,
          "midi": 72,
          "name": "C5",
          "ticks": 1669,
          "time": 19.406976744186046,
          "velocity": 0.14173228346456693
        },
        {
          "duration": 0.011627906976741542,
          "durationTicks": 1,
          "midi": 55,
          "name": "G3",
          "ticks": 1671,
          "time": 19.430232558139537,
          "velocity": 0.5196850393700787
        },
        {
          "duration": 0.011627906976745095,
          "durationTicks": 1,
          "midi": 40,
          "name": "E2",
          "ticks": 1672,
          "time": 19.441860465116278,
          "velocity": 0.6377952755905512
        },
        {
          "duration": 0.03488372093023173,
          "durationTicks": 3,
          "midi": 42,
          "name": "F#2",
          "ticks": 1673,
          "time": 19.453488372093023,
          "velocity": 0.6850393700787402
        },
        {
          "duration": 0.04651162790697683,
          "durationTicks": 4,
          "midi": 53,
          "name": "F3",
          "ticks": 1674,
          "time": 19.46511627906977,
          "velocity": 0.3779527559055118
        },
        {
          "duration": 0.03488372093023173,
          "durationTicks": 3,
          "midi": 40,
          "name": "E2",
          "ticks": 1676,
          "time": 19.488372093023255,
          "velocity": 0.4645669291338583
        },
        {
          "duration": 0.03488372093023173,
          "durationTicks": 3,
          "midi": 56,
          "name": "G#3",
          "ticks": 1677,
          "time": 19.5,
          "velocity": 0.12598425196850394
        },
        {
          "duration": 0.03488372093023173,
          "durationTicks": 3,
          "midi": 40,
          "name": "E2",
          "ticks": 1682,
          "time": 19.558139534883722,
          "velocity": 0.16535433070866143
        },
        {
          "duration": 0.034883720930235285,
          "durationTicks": 3,
          "midi": 55,
          "name": "G3",
          "ticks": 1687,
          "time": 19.61627906976744,
          "velocity": 0.4645669291338583
        },
        {
          "duration": 0.12790697674418894,
          "durationTicks": 11,
          "midi": 65,
          "name": "F4",
          "ticks": 1687,
          "time": 19.61627906976744,
          "velocity": 0.5905511811023622
        },
        {
          "duration": 0.034883720930235285,
          "durationTicks": 3,
          "midi": 87,
          "name": "D#6",
          "ticks": 1687,
          "time": 19.61627906976744,
          "velocity": 0.16535433070866143
        },
        {
          "duration": 0.09302325581395365,
          "durationTicks": 8,
          "midi": 75,
          "name": "D#5",
          "ticks": 1688,
          "time": 19.627906976744185,
          "velocity": 0.5590551181102362
        },
        {
          "duration": 0.04651162790697683,
          "durationTicks": 4,
          "midi": 83,
          "name": "B5",
          "ticks": 1688,
          "time": 19.627906976744185,
          "velocity": 0.1968503937007874
        },
        {
          "duration": 0.011627906976745095,
          "durationTicks": 1,
          "midi": 48,
          "name": "C3",
          "ticks": 1689,
          "time": 19.63953488372093,
          "velocity": 0.5511811023622047
        },
        {
          "duration": 0.04651162790697683,
          "durationTicks": 4,
          "midi": 61,
          "name": "C#4",
          "ticks": 1689,
          "time": 19.63953488372093,
          "velocity": 0.4015748031496063
        },
        {
          "duration": 0.05813953488372192,
          "durationTicks": 5,
          "midi": 85,
          "name": "C#6",
          "ticks": 1689,
          "time": 19.63953488372093,
          "velocity": 0.09448818897637795
        },
        {
          "duration": 0.011627906976741542,
          "durationTicks": 1,
          "midi": 50,
          "name": "D3",
          "ticks": 1690,
          "time": 19.651162790697676,
          "velocity": 0.5826771653543307
        },
        {
          "duration": 0.06976744186046346,
          "durationTicks": 6,
          "midi": 80,
          "name": "G#5",
          "ticks": 1690,
          "time": 19.651162790697676,
          "velocity": 0.2204724409448819
        },
        {
          "duration": 0.06976744186046702,
          "durationTicks": 6,
          "midi": 49,
          "name": "C#3",
          "ticks": 1691,
          "time": 19.662790697674417,
          "velocity": 0.5748031496062992
        },
        {
          "duration": 0.02325581395349019,
          "durationTicks": 2,
          "midi": 58,
          "name": "A#3",
          "ticks": 1691,
          "time": 19.662790697674417,
          "velocity": 0.3543307086614173
        },
        {
          "duration": 0.06976744186046702,
          "durationTicks": 6,
          "midi": 72,
          "name": "C5",
          "ticks": 1691,
          "time": 19.662790697674417,
          "velocity": 0.14960629921259844
        },
        {
          "duration": 0.12790697674418539,
          "durationTicks": 11,
          "midi": 84,
          "name": "C6",
          "ticks": 1692,
          "time": 19.674418604651162,
          "velocity": 0.25984251968503935
        },
        {
          "duration": 0.023255813953486637,
          "durationTicks": 2,
          "midi": 55,
          "name": "G3",
          "ticks": 1693,
          "time": 19.686046511627907,
          "velocity": 0.29133858267716534
        },
        {
          "duration": 0.04651162790697683,
          "durationTicks": 4,
          "midi": 70,
          "name": "A#4",
          "ticks": 1693,
          "time": 19.686046511627907,
          "velocity": 0.23622047244094488
        },
        {
          "duration": 0.034883720930235285,
          "durationTicks": 3,
          "midi": 58,
          "name": "A#3",
          "ticks": 1695,
          "time": 19.709302325581394,
          "velocity": 0.36220472440944884
        },
        {
          "duration": 0.02325581395349019,
          "durationTicks": 2,
          "midi": 54,
          "name": "F#3",
          "ticks": 1696,
          "time": 19.72093023255814,
          "velocity": 0.3937007874015748
        },
        {
          "duration": 0.023255813953486637,
          "durationTicks": 2,
          "midi": 71,
          "name": "B4",
          "ticks": 1697,
          "time": 19.732558139534884,
          "velocity": 0.2283464566929134
        },
        {
          "duration": 0.22093023255813904,
          "durationTicks": 19,
          "midi": 63,
          "name": "D#4",
          "ticks": 1698,
          "time": 19.74418604651163,
          "velocity": 0.6299212598425197
        },
        {
          "duration": 0.03488372093023173,
          "durationTicks": 3,
          "midi": 77,
          "name": "F5",
          "ticks": 1698,
          "time": 19.74418604651163,
          "velocity": 0.23622047244094488
        },
        {
          "duration": 0.02325581395349019,
          "durationTicks": 2,
          "midi": 53,
          "name": "F3",
          "ticks": 1700,
          "time": 19.767441860465116,
          "velocity": 0.2283464566929134
        },
        {
          "duration": 0.03488372093023173,
          "durationTicks": 3,
          "midi": 76,
          "name": "E5",
          "ticks": 1700,
          "time": 19.767441860465116,
          "velocity": 0.16535433070866143
        },
        {
          "duration": 0.03488372093023173,
          "durationTicks": 3,
          "midi": 58,
          "name": "A#3",
          "ticks": 1702,
          "time": 19.790697674418606,
          "velocity": 0.16535433070866143
        },
        {
          "duration": 0.034883720930235285,
          "durationTicks": 3,
          "midi": 69,
          "name": "A4",
          "ticks": 1707,
          "time": 19.848837209302324,
          "velocity": 0.1968503937007874
        },
        {
          "duration": 0.034883720930235285,
          "durationTicks": 3,
          "midi": 80,
          "name": "G#5",
          "ticks": 1707,
          "time": 19.848837209302324,
          "velocity": 0.2677165354330709
        },
        {
          "duration": 0.034883720930235285,
          "durationTicks": 3,
          "midi": 83,
          "name": "B5",
          "ticks": 1707,
          "time": 19.848837209302324,
          "velocity": 0.2677165354330709
        },
        {
          "duration": 0.034883720930235285,
          "durationTicks": 3,
          "midi": 86,
          "name": "D6",
          "ticks": 1707,
          "time": 19.848837209302324,
          "velocity": 0.2440944881889764
        },
        {
          "duration": 0.034883720930235285,
          "durationTicks": 3,
          "midi": 87,
          "name": "D#6",
          "ticks": 1707,
          "time": 19.848837209302324,
          "velocity": 0.25196850393700787
        },
        {
          "duration": 0.011627906976745095,
          "durationTicks": 1,
          "midi": 36,
          "name": "C2",
          "ticks": 1708,
          "time": 19.86046511627907,
          "velocity": 0.6220472440944882
        },
        {
          "duration": 0.02325581395349019,
          "durationTicks": 2,
          "midi": 50,
          "name": "D3",
          "ticks": 1708,
          "time": 19.86046511627907,
          "velocity": 0.5748031496062992
        },
        {
          "duration": 0.02325581395349019,
          "durationTicks": 2,
          "midi": 57,
          "name": "A3",
          "ticks": 1708,
          "time": 19.86046511627907,
          "velocity": 0.4409448818897638
        },
        {
          "duration": 0.02325581395349019,
          "durationTicks": 2,
          "midi": 78,
          "name": "F#5",
          "ticks": 1708,
          "time": 19.86046511627907,
          "velocity": 0.30708661417322836
        },
        {
          "duration": 0.011627906976745095,
          "durationTicks": 1,
          "midi": 30,
          "name": "F#1",
          "ticks": 1709,
          "time": 19.872093023255815,
          "velocity": 0.5669291338582677
        },
        {
          "duration": 0.011627906976745095,
          "durationTicks": 1,
          "midi": 40,
          "name": "E2",
          "ticks": 1709,
          "time": 19.872093023255815,
          "velocity": 0.6062992125984252
        },
        {
          "duration": 0.05813953488372192,
          "durationTicks": 5,
          "midi": 72,
          "name": "C5",
          "ticks": 1709,
          "time": 19.872093023255815,
          "velocity": 0.1732283464566929
        },
        {
          "duration": 0.08139534883720856,
          "durationTicks": 7,
          "midi": 82,
          "name": "A#5",
          "ticks": 1709,
          "time": 19.872093023255815,
          "velocity": 0.33858267716535434
        },
        {
          "duration": 0.011627906976741542,
          "durationTicks": 1,
          "midi": 44,
          "name": "G#2",
          "ticks": 1710,
          "time": 19.88372093023256,
          "velocity": 0.5275590551181102
        },
        {
          "duration": 0.04651162790697683,
          "durationTicks": 4,
          "midi": 51,
          "name": "D#3",
          "ticks": 1710,
          "time": 19.88372093023256,
          "velocity": 0.6771653543307087
        },
        {
          "duration": 0.13953488372092693,
          "durationTicks": 12,
          "midi": 68,
          "name": "G#4",
          "ticks": 1710,
          "time": 19.88372093023256,
          "velocity": 0.23622047244094488
        },
        {
          "duration": 0.04651162790697683,
          "durationTicks": 4,
          "midi": 79,
          "name": "G5",
          "ticks": 1710,
          "time": 19.88372093023256,
          "velocity": 0.2283464566929134
        },
        {
          "duration": 0.034883720930235285,
          "durationTicks": 3,
          "midi": 70,
          "name": "A#4",
          "ticks": 1711,
          "time": 19.8953488372093,
          "velocity": 0.11811023622047244
        },
        {
          "duration": 0.011627906976745095,
          "durationTicks": 1,
          "midi": 40,
          "name": "E2",
          "ticks": 1712,
          "time": 19.906976744186046,
          "velocity": 0.6535433070866141
        },
        {
          "duration": 0.011627906976745095,
          "durationTicks": 1,
          "midi": 41,
          "name": "F2",
          "ticks": 1713,
          "time": 19.91860465116279,
          "velocity": 0.6692913385826772
        },
        {
          "duration": 0.011627906976741542,
          "durationTicks": 1,
          "midi": 42,
          "name": "F#2",
          "ticks": 1714,
          "time": 19.930232558139537,
          "velocity": 0.6220472440944882
        },
        {
          "duration": 0.011627906976741542,
          "durationTicks": 1,
          "midi": 50,
          "name": "D3",
          "ticks": 1714,
          "time": 19.930232558139537,
          "velocity": 0.5196850393700787
        },
        {
          "duration": 0.023255813953486637,
          "durationTicks": 2,
          "midi": 56,
          "name": "G#3",
          "ticks": 1714,
          "time": 19.930232558139537,
          "velocity": 0.33070866141732286
        },
        {
          "duration": 0.011627906976745095,
          "durationTicks": 1,
          "midi": 41,
          "name": "F2",
          "ticks": 1715,
          "time": 19.941860465116278,
          "velocity": 0.5275590551181102
        },
        {
          "duration": 0.02325581395349019,
          "durationTicks": 2,
          "midi": 40,
          "name": "E2",
          "ticks": 1716,
          "time": 19.953488372093023,
          "velocity": 0.4330708661417323
        },
        {
          "duration": 0.04651162790697683,
          "durationTicks": 4,
          "midi": 61,
          "name": "C#4",
          "ticks": 1717,
          "time": 19.96511627906977,
          "velocity": 0.18110236220472442
        },
        {
          "duration": 0.023255813953486637,
          "durationTicks": 2,
          "midi": 41,
          "name": "F2",
          "ticks": 1718,
          "time": 19.976744186046513,
          "velocity": 0.3543307086614173
        },
        {
          "duration": 0.05813953488371837,
          "durationTicks": 5,
          "midi": 50,
          "name": "D3",
          "ticks": 1718,
          "time": 19.976744186046513,
          "velocity": 0.3700787401574803
        },
        {
          "duration": 0.03488372093023173,
          "durationTicks": 3,
          "midi": 39,
          "name": "D#2",
          "ticks": 1724,
          "time": 20.046511627906977,
          "velocity": 0.1732283464566929
        },
        {
          "duration": 0.03488372093023173,
          "durationTicks": 3,
          "midi": 87,
          "name": "D#6",
          "ticks": 1727,
          "time": 20.08139534883721,
          "velocity": 0.29133858267716534
        },
        {
          "duration": 0.22093023255813904,
          "durationTicks": 19,
          "midi": 58,
          "name": "A#3",
          "ticks": 1728,
          "time": 20.093023255813954,
          "velocity": 0.5196850393700787
        },
        {
          "duration": 0.10465116279069875,
          "durationTicks": 9,
          "midi": 63,
          "name": "D#4",
          "ticks": 1728,
          "time": 20.093023255813954,
          "velocity": 0.5826771653543307
        },
        {
          "duration": 0.023255813953486637,
          "durationTicks": 2,
          "midi": 85,
          "name": "C#6",
          "ticks": 1728,
          "time": 20.093023255813954,
          "velocity": 0.29133858267716534
        },
        {
          "duration": 0.023255813953486637,
          "durationTicks": 2,
          "midi": 89,
          "name": "F6",
          "ticks": 1728,
          "time": 20.093023255813954,
          "velocity": 0.2755905511811024
        },
        {
          "duration": 0.04651162790697683,
          "durationTicks": 4,
          "midi": 53,
          "name": "F3",
          "ticks": 1731,
          "time": 20.127906976744185,
          "velocity": 0.3228346456692913
        },
        {
          "duration": 0.12790697674418539,
          "durationTicks": 11,
          "midi": 72,
          "name": "C5",
          "ticks": 1731,
          "time": 20.127906976744185,
          "velocity": 0.3464566929133858
        },
        {
          "duration": 0.05813953488372192,
          "durationTicks": 5,
          "midi": 53,
          "name": "F3",
          "ticks": 1736,
          "time": 20.186046511627907,
          "velocity": 0.31496062992125984
        },
        {
          "duration": 0.11627906976744384,
          "durationTicks": 10,
          "midi": 89,
          "name": "F6",
          "ticks": 1738,
          "time": 20.209302325581394,
          "velocity": 0.1889763779527559
        },
        {
          "duration": 0.034883720930235285,
          "durationTicks": 3,
          "midi": 86,
          "name": "D6",
          "ticks": 1746,
          "time": 20.302325581395348,
          "velocity": 0.2677165354330709
        },
        {
          "duration": 0.09302325581395365,
          "durationTicks": 8,
          "midi": 72,
          "name": "C5",
          "ticks": 1747,
          "time": 20.313953488372093,
          "velocity": 0.5590551181102362
        },
        {
          "duration": 0.02325581395349019,
          "durationTicks": 2,
          "midi": 76,
          "name": "E5",
          "ticks": 1747,
          "time": 20.313953488372093,
          "velocity": 0.3228346456692913
        },
        {
          "duration": 0.04651162790697683,
          "durationTicks": 4,
          "midi": 79,
          "name": "G5",
          "ticks": 1747,
          "time": 20.313953488372093,
          "velocity": 0.25196850393700787
        },
        {
          "duration": 0.02325581395349019,
          "durationTicks": 2,
          "midi": 87,
          "name": "D#6",
          "ticks": 1747,
          "time": 20.313953488372093,
          "velocity": 0.2440944881889764
        },
        {
          "duration": 0.023255813953486637,
          "durationTicks": 2,
          "midi": 35,
          "name": "B1",
          "ticks": 1748,
          "time": 20.325581395348838,
          "velocity": 0.5984251968503937
        },
        {
          "duration": 0.011627906976745095,
          "durationTicks": 1,
          "midi": 48,
          "name": "C3",
          "ticks": 1748,
          "time": 20.325581395348838,
          "velocity": 0.5196850393700787
        },
        {
          "duration": 0.04651162790697683,
          "durationTicks": 4,
          "midi": 55,
          "name": "G3",
          "ticks": 1748,
          "time": 20.325581395348838,
          "velocity": 0.5196850393700787
        },
        {
          "duration": 0.06976744186046346,
          "durationTicks": 6,
          "midi": 63,
          "name": "D#4",
          "ticks": 1748,
          "time": 20.325581395348838,
          "velocity": 0.5590551181102362
        },
        {
          "duration": 0.13953488372093048,
          "durationTicks": 12,
          "midi": 92,
          "name": "G#6",
          "ticks": 1748,
          "time": 20.325581395348838,
          "velocity": 0.12598425196850394
        },
        {
          "duration": 0.023255813953486637,
          "durationTicks": 2,
          "midi": 44,
          "name": "G#2",
          "ticks": 1749,
          "time": 20.337209302325583,
          "velocity": 0.5433070866141733
        },
        {
          "duration": 0.011627906976741542,
          "durationTicks": 1,
          "midi": 50,
          "name": "D3",
          "ticks": 1749,
          "time": 20.337209302325583,
          "velocity": 0.5354330708661418
        },
        {
          "duration": 0.06976744186046702,
          "durationTicks": 6,
          "midi": 51,
          "name": "D#3",
          "ticks": 1750,
          "time": 20.348837209302324,
          "velocity": 0.5433070866141733
        },
        {
          "duration": 0.02325581395349019,
          "durationTicks": 2,
          "midi": 68,
          "name": "G#4",
          "ticks": 1750,
          "time": 20.348837209302324,
          "velocity": 0.3228346456692913
        },
        {
          "duration": 0.03488372093023173,
          "durationTicks": 3,
          "midi": 42,
          "name": "F#2",
          "ticks": 1751,
          "time": 20.36046511627907,
          "velocity": 0.6614173228346457
        },
        {
          "duration": 0.11627906976744384,
          "durationTicks": 10,
          "midi": 87,
          "name": "D#6",
          "ticks": 1751,
          "time": 20.36046511627907,
          "velocity": 0.14960629921259844
        },
        {
          "duration": 0.03488372093023173,
          "durationTicks": 3,
          "midi": 55,
          "name": "G3",
          "ticks": 1753,
          "time": 20.38372093023256,
          "velocity": 0.41732283464566927
        },
        {
          "duration": 0.08139534883720856,
          "durationTicks": 7,
          "midi": 68,
          "name": "G#4",
          "ticks": 1753,
          "time": 20.38372093023256,
          "velocity": 0.2992125984251969
        },
        {
          "duration": 0.10465116279069875,
          "durationTicks": 9,
          "midi": 75,
          "name": "D#5",
          "ticks": 1754,
          "time": 20.3953488372093,
          "velocity": 0.1732283464566929
        },
        {
          "duration": 0.04651162790697683,
          "durationTicks": 4,
          "midi": 61,
          "name": "C#4",
          "ticks": 1755,
          "time": 20.406976744186046,
          "velocity": 0.4645669291338583
        },
        {
          "duration": 0.023255813953486637,
          "durationTicks": 2,
          "midi": 56,
          "name": "G#3",
          "ticks": 1756,
          "time": 20.41860465116279,
          "velocity": 0.3779527559055118
        },
        {
          "duration": 0.023255813953486637,
          "durationTicks": 2,
          "midi": 41,
          "name": "F2",
          "ticks": 1757,
          "time": 20.430232558139537,
          "velocity": 0.3464566929133858
        },
        {
          "duration": 0.11627906976744384,
          "durationTicks": 10,
          "midi": 71,
          "name": "B4",
          "ticks": 1758,
          "time": 20.441860465116278,
          "velocity": 0.48031496062992124
        },
        {
          "duration": 0.12790697674418539,
          "durationTicks": 11,
          "midi": 90,
          "name": "F#6",
          "ticks": 1758,
          "time": 20.441860465116278,
          "velocity": 0.2047244094488189
        },
        {
          "duration": 0.011627906976745095,
          "durationTicks": 1,
          "midi": 60,
          "name": "C4",
          "ticks": 1759,
          "time": 20.453488372093023,
          "velocity": 0.5196850393700787
        },
        {
          "duration": 0.1046511627906952,
          "durationTicks": 9,
          "midi": 59,
          "name": "B3",
          "ticks": 1760,
          "time": 20.46511627906977,
          "velocity": 0.5196850393700787
        },
        {
          "duration": 0.03488372093023173,
          "durationTicks": 3,
          "midi": 67,
          "name": "G4",
          "ticks": 1760,
          "time": 20.46511627906977,
          "velocity": 0.14960629921259844
        },
        {
          "duration": 0.03488372093023173,
          "durationTicks": 3,
          "midi": 78,
          "name": "F#5",
          "ticks": 1766,
          "time": 20.53488372093023,
          "velocity": 0.25196850393700787
        },
        {
          "duration": 0.13953488372093048,
          "durationTicks": 12,
          "midi": 87,
          "name": "D#6",
          "ticks": 1767,
          "time": 20.546511627906977,
          "velocity": 0.1968503937007874
        },
        {
          "duration": 0.09302325581395365,
          "durationTicks": 8,
          "midi": 72,
          "name": "C5",
          "ticks": 1768,
          "time": 20.558139534883722,
          "velocity": 0.5590551181102362
        },
        {
          "duration": 0.04651162790697683,
          "durationTicks": 4,
          "midi": 75,
          "name": "D#5",
          "ticks": 1768,
          "time": 20.558139534883722,
          "velocity": 0.2755905511811024
        },
        {
          "duration": 0.09302325581395365,
          "durationTicks": 8,
          "midi": 56,
          "name": "G#3",
          "ticks": 1769,
          "time": 20.569767441860463,
          "velocity": 0.5511811023622047
        },
        {
          "duration": 0.023255813953486637,
          "durationTicks": 2,
          "midi": 40,
          "name": "E2",
          "ticks": 1771,
          "time": 20.593023255813954,
          "velocity": 0.2283464566929134
        },
        {
          "duration": 0.023255813953486637,
          "durationTicks": 2,
          "midi": 64,
          "name": "E4",
          "ticks": 1776,
          "time": 20.651162790697676,
          "velocity": 0.5433070866141733
        },
        {
          "duration": 0.02325581395349019,
          "durationTicks": 2,
          "midi": 57,
          "name": "A3",
          "ticks": 1777,
          "time": 20.662790697674417,
          "velocity": 0.4881889763779528
        },
        {
          "duration": 0.034883720930235285,
          "durationTicks": 3,
          "midi": 74,
          "name": "D5",
          "ticks": 1777,
          "time": 20.662790697674417,
          "velocity": 0.16535433070866143
        },
        {
          "duration": 0.03488372093023173,
          "durationTicks": 3,
          "midi": 29,
          "name": "F1",
          "ticks": 1778,
          "time": 20.674418604651162,
          "velocity": 0.25196850393700787
        },
        {
          "duration": 0.09302325581395365,
          "durationTicks": 8,
          "midi": 63,
          "name": "D#4",
          "ticks": 1778,
          "time": 20.674418604651162,
          "velocity": 0.6220472440944882
        },
        {
          "duration": 0.09302325581395365,
          "durationTicks": 8,
          "midi": 67,
          "name": "G4",
          "ticks": 1778,
          "time": 20.674418604651162,
          "velocity": 0.4094488188976378
        },
        {
          "duration": 0.12790697674418539,
          "durationTicks": 11,
          "midi": 86,
          "name": "D6",
          "ticks": 1778,
          "time": 20.674418604651162,
          "velocity": 0.2677165354330709
        },
        {
          "duration": 0.09302325581395365,
          "durationTicks": 8,
          "midi": 55,
          "name": "G3",
          "ticks": 1779,
          "time": 20.686046511627907,
          "velocity": 0.6141732283464567
        },
        {
          "duration": 0.02325581395349019,
          "durationTicks": 2,
          "midi": 51,
          "name": "D#3",
          "ticks": 1786,
          "time": 20.767441860465116,
          "velocity": 0.49606299212598426
        },
        {
          "duration": 0.02325581395349019,
          "durationTicks": 2,
          "midi": 62,
          "name": "D4",
          "ticks": 1786,
          "time": 20.767441860465116,
          "velocity": 0.5118110236220472
        },
        {
          "duration": 0.12790697674418539,
          "durationTicks": 11,
          "midi": 72,
          "name": "C5",
          "ticks": 1786,
          "time": 20.767441860465116,
          "velocity": 0.5354330708661418
        },
        {
          "duration": 0.03488372093023173,
          "durationTicks": 3,
          "midi": 79,
          "name": "G5",
          "ticks": 1786,
          "time": 20.767441860465116,
          "velocity": 0.25196850393700787
        },
        {
          "duration": 0.03488372093023173,
          "durationTicks": 3,
          "midi": 81,
          "name": "A5",
          "ticks": 1786,
          "time": 20.767441860465116,
          "velocity": 0.2204724409448819
        },
        {
          "duration": 0.03488372093023173,
          "durationTicks": 3,
          "midi": 83,
          "name": "B5",
          "ticks": 1786,
          "time": 20.767441860465116,
          "velocity": 0.2204724409448819
        },
        {
          "duration": 0.15116279069767558,
          "durationTicks": 13,
          "midi": 85,
          "name": "C#6",
          "ticks": 1786,
          "time": 20.767441860465116,
          "velocity": 0.25196850393700787
        },
        {
          "duration": 0.011627906976745095,
          "durationTicks": 1,
          "midi": 35,
          "name": "B1",
          "ticks": 1787,
          "time": 20.77906976744186,
          "velocity": 0.5196850393700787
        },
        {
          "duration": 0.011627906976745095,
          "durationTicks": 1,
          "midi": 56,
          "name": "G#3",
          "ticks": 1787,
          "time": 20.77906976744186,
          "velocity": 0.5511811023622047
        },
        {
          "duration": 0.023255813953486637,
          "durationTicks": 2,
          "midi": 88,
          "name": "E6",
          "ticks": 1787,
          "time": 20.77906976744186,
          "velocity": 0.2283464566929134
        },
        {
          "duration": 0.023255813953486637,
          "durationTicks": 2,
          "midi": 36,
          "name": "C2",
          "ticks": 1788,
          "time": 20.790697674418606,
          "velocity": 0.5984251968503937
        },
        {
          "duration": 0.011627906976741542,
          "durationTicks": 1,
          "midi": 50,
          "name": "D3",
          "ticks": 1788,
          "time": 20.790697674418606,
          "velocity": 0.5511811023622047
        },
        {
          "duration": 0.1046511627906952,
          "durationTicks": 9,
          "midi": 63,
          "name": "D#4",
          "ticks": 1788,
          "time": 20.790697674418606,
          "velocity": 0.5590551181102362
        },
        {
          "duration": 0.023255813953486637,
          "durationTicks": 2,
          "midi": 67,
          "name": "G4",
          "ticks": 1788,
          "time": 20.790697674418606,
          "velocity": 0.3700787401574803
        },
        {
          "duration": 0.011627906976745095,
          "durationTicks": 1,
          "midi": 44,
          "name": "G#2",
          "ticks": 1789,
          "time": 20.802325581395348,
          "velocity": 0.5196850393700787
        },
        {
          "duration": 0.02325581395349019,
          "durationTicks": 2,
          "midi": 51,
          "name": "D#3",
          "ticks": 1789,
          "time": 20.802325581395348,
          "velocity": 0.5511811023622047
        },
        {
          "duration": 0.011627906976745095,
          "durationTicks": 1,
          "midi": 29,
          "name": "F1",
          "ticks": 1790,
          "time": 20.813953488372093,
          "velocity": 0.5354330708661418
        },
        {
          "duration": 0.12790697674418539,
          "durationTicks": 11,
          "midi": 66,
          "name": "F#4",
          "ticks": 1790,
          "time": 20.813953488372093,
          "velocity": 0.3464566929133858
        },
        {
          "duration": 0.011627906976745095,
          "durationTicks": 1,
          "midi": 42,
          "name": "F#2",
          "ticks": 1791,
          "time": 20.825581395348838,
          "velocity": 0.6535433070866141
        },
        {
          "duration": 0.011627906976745095,
          "durationTicks": 1,
          "midi": 52,
          "name": "E3",
          "ticks": 1791,
          "time": 20.825581395348838,
          "velocity": 0.5826771653543307
        },
        {
          "duration": 0.011627906976741542,
          "durationTicks": 1,
          "midi": 41,
          "name": "F2",
          "ticks": 1792,
          "time": 20.837209302325583,
          "velocity": 0.6692913385826772
        },
        {
          "duration": 0.023255813953486637,
          "durationTicks": 2,
          "midi": 55,
          "name": "G3",
          "ticks": 1792,
          "time": 20.837209302325583,
          "velocity": 0.5748031496062992
        },
        {
          "duration": 0.02325581395349019,
          "durationTicks": 2,
          "midi": 42,
          "name": "F#2",
          "ticks": 1793,
          "time": 20.848837209302324,
          "velocity": 0.6062992125984252
        },
        {
          "duration": 0.034883720930235285,
          "durationTicks": 3,
          "midi": 41,
          "name": "F2",
          "ticks": 1797,
          "time": 20.8953488372093,
          "velocity": 0.33858267716535434
        },
        {
          "duration": 0.03488372093023173,
          "durationTicks": 3,
          "midi": 54,
          "name": "F#3",
          "ticks": 1798,
          "time": 20.906976744186046,
          "velocity": 0.3858267716535433
        },
        {
          "duration": 0.02325581395349019,
          "durationTicks": 2,
          "midi": 40,
          "name": "E2",
          "ticks": 1805,
          "time": 20.988372093023255,
          "velocity": 0.28346456692913385
        },
        {
          "duration": 0.023255813953486637,
          "durationTicks": 2,
          "midi": 83,
          "name": "B5",
          "ticks": 1806,
          "time": 21,
          "velocity": 0.25984251968503935
        },
        {
          "duration": 0.023255813953486637,
          "durationTicks": 2,
          "midi": 86,
          "name": "D6",
          "ticks": 1806,
          "time": 21,
          "velocity": 0.2440944881889764
        },
        {
          "duration": 0.03488372093023173,
          "durationTicks": 3,
          "midi": 87,
          "name": "D#6",
          "ticks": 1806,
          "time": 21,
          "velocity": 0.23622047244094488
        },
        {
          "duration": 0.08139534883720856,
          "durationTicks": 7,
          "midi": 63,
          "name": "D#4",
          "ticks": 1807,
          "time": 21.011627906976745,
          "velocity": 0.5984251968503937
        },
        {
          "duration": 0.1046511627906952,
          "durationTicks": 9,
          "midi": 72,
          "name": "C5",
          "ticks": 1807,
          "time": 21.011627906976745,
          "velocity": 0.5669291338582677
        },
        {
          "duration": 0.26744186046511587,
          "durationTicks": 23,
          "midi": 80,
          "name": "G#5",
          "ticks": 1807,
          "time": 21.011627906976745,
          "velocity": 0.3464566929133858
        },
        {
          "duration": 0.023255813953486637,
          "durationTicks": 2,
          "midi": 82,
          "name": "A#5",
          "ticks": 1807,
          "time": 21.011627906976745,
          "velocity": 0.25196850393700787
        },
        {
          "duration": 0.02325581395349019,
          "durationTicks": 2,
          "midi": 30,
          "name": "F#1",
          "ticks": 1808,
          "time": 21.023255813953487,
          "velocity": 0.4409448818897638
        },
        {
          "duration": 0.02325581395349019,
          "durationTicks": 2,
          "midi": 48,
          "name": "C3",
          "ticks": 1808,
          "time": 21.023255813953487,
          "velocity": 0.5669291338582677
        },
        {
          "duration": 0.011627906976745095,
          "durationTicks": 1,
          "midi": 50,
          "name": "D3",
          "ticks": 1810,
          "time": 21.046511627906977,
          "velocity": 0.5748031496062992
        },
        {
          "duration": 0.011627906976741542,
          "durationTicks": 1,
          "midi": 49,
          "name": "C#3",
          "ticks": 1811,
          "time": 21.058139534883722,
          "velocity": 0.5669291338582677
        },
        {
          "duration": 0.011627906976745095,
          "durationTicks": 1,
          "midi": 50,
          "name": "D3",
          "ticks": 1812,
          "time": 21.069767441860463,
          "velocity": 0.5984251968503937
        },
        {
          "duration": 0.04651162790697683,
          "durationTicks": 4,
          "midi": 49,
          "name": "C#3",
          "ticks": 1813,
          "time": 21.08139534883721,
          "velocity": 0.5669291338582677
        },
        {
          "duration": 0.15116279069767558,
          "durationTicks": 13,
          "midi": 68,
          "name": "G#4",
          "ticks": 1813,
          "time": 21.08139534883721,
          "velocity": 0.2992125984251969
        },
        {
          "duration": 0.02325581395349019,
          "durationTicks": 2,
          "midi": 56,
          "name": "G#3",
          "ticks": 1816,
          "time": 21.11627906976744,
          "velocity": 0.3543307086614173
        },
        {
          "duration": 0.02325581395349019,
          "durationTicks": 2,
          "midi": 50,
          "name": "D3",
          "ticks": 1817,
          "time": 21.127906976744185,
          "velocity": 0.5669291338582677
        },
        {
          "duration": 0.023255813953486637,
          "durationTicks": 2,
          "midi": 57,
          "name": "A3",
          "ticks": 1818,
          "time": 21.13953488372093,
          "velocity": 0.33858267716535434
        },
        {
          "duration": 0.09302325581395365,
          "durationTicks": 8,
          "midi": 49,
          "name": "C#3",
          "ticks": 1819,
          "time": 21.151162790697676,
          "velocity": 0.5826771653543307
        },
        {
          "duration": 0.034883720930235285,
          "durationTicks": 3,
          "midi": 56,
          "name": "G#3",
          "ticks": 1820,
          "time": 21.162790697674417,
          "velocity": 0.2677165354330709
        },
        {
          "duration": 0.023255813953486637,
          "durationTicks": 2,
          "midi": 82,
          "name": "A#5",
          "ticks": 1826,
          "time": 21.232558139534884,
          "velocity": 0.2755905511811024
        },
        {
          "duration": 0.03488372093023173,
          "durationTicks": 3,
          "midi": 85,
          "name": "C#6",
          "ticks": 1826,
          "time": 21.232558139534884,
          "velocity": 0.2755905511811024
        },
        {
          "duration": 0.03488372093023173,
          "durationTicks": 3,
          "midi": 86,
          "name": "D6",
          "ticks": 1826,
          "time": 21.232558139534884,
          "velocity": 0.2755905511811024
        },
        {
          "duration": 0.03488372093023173,
          "durationTicks": 3,
          "midi": 88,
          "name": "E6",
          "ticks": 1826,
          "time": 21.232558139534884,
          "velocity": 0.2755905511811024
        },
        {
          "duration": 0.011627906976741542,
          "durationTicks": 1,
          "midi": 34,
          "name": "A#1",
          "ticks": 1827,
          "time": 21.24418604651163,
          "velocity": 0.5433070866141733
        },
        {
          "duration": 0.011627906976741542,
          "durationTicks": 1,
          "midi": 50,
          "name": "D3",
          "ticks": 1827,
          "time": 21.24418604651163,
          "velocity": 0.5433070866141733
        },
        {
          "duration": 0.023255813953486637,
          "durationTicks": 2,
          "midi": 56,
          "name": "G#3",
          "ticks": 1827,
          "time": 21.24418604651163,
          "velocity": 0.4645669291338583
        },
        {
          "duration": 0.011627906976741542,
          "durationTicks": 1,
          "midi": 64,
          "name": "E4",
          "ticks": 1827,
          "time": 21.24418604651163,
          "velocity": 0.5354330708661418
        },
        {
          "duration": 0.11627906976744029,
          "durationTicks": 10,
          "midi": 72,
          "name": "C5",
          "ticks": 1827,
          "time": 21.24418604651163,
          "velocity": 0.5669291338582677
        },
        {
          "duration": 0.023255813953486637,
          "durationTicks": 2,
          "midi": 78,
          "name": "F#5",
          "ticks": 1827,
          "time": 21.24418604651163,
          "velocity": 0.29133858267716534
        },
        {
          "duration": 0.02325581395349019,
          "durationTicks": 2,
          "midi": 36,
          "name": "C2",
          "ticks": 1828,
          "time": 21.25581395348837,
          "velocity": 0.5984251968503937
        },
        {
          "duration": 0.12790697674418894,
          "durationTicks": 11,
          "midi": 63,
          "name": "D#4",
          "ticks": 1828,
          "time": 21.25581395348837,
          "velocity": 0.5748031496062992
        },
        {
          "duration": 0.011627906976745095,
          "durationTicks": 1,
          "midi": 44,
          "name": "G#2",
          "ticks": 1829,
          "time": 21.267441860465116,
          "velocity": 0.5354330708661418
        },
        {
          "duration": 0.011627906976745095,
          "durationTicks": 1,
          "midi": 52,
          "name": "E3",
          "ticks": 1829,
          "time": 21.267441860465116,
          "velocity": 0.5275590551181102
        },
        {
          "duration": 0.011627906976745095,
          "durationTicks": 1,
          "midi": 31,
          "name": "G1",
          "ticks": 1830,
          "time": 21.27906976744186,
          "velocity": 0.5748031496062992
        },
        {
          "duration": 0.03488372093023173,
          "durationTicks": 3,
          "midi": 51,
          "name": "D#3",
          "ticks": 1830,
          "time": 21.27906976744186,
          "velocity": 0.5275590551181102
        },
        {
          "duration": 0.03488372093023173,
          "durationTicks": 3,
          "midi": 67,
          "name": "G4",
          "ticks": 1830,
          "time": 21.27906976744186,
          "velocity": 0.09448818897637795
        },
        {
          "duration": 0.04651162790697683,
          "durationTicks": 4,
          "midi": 74,
          "name": "D5",
          "ticks": 1830,
          "time": 21.27906976744186,
          "velocity": 0.1732283464566929
        },
        {
          "duration": 0.04651162790697683,
          "durationTicks": 4,
          "midi": 41,
          "name": "F2",
          "ticks": 1831,
          "time": 21.290697674418606,
          "velocity": 0.6614173228346457
        },
        {
          "duration": 0.06976744186046702,
          "durationTicks": 6,
          "midi": 55,
          "name": "G3",
          "ticks": 1832,
          "time": 21.302325581395348,
          "velocity": 0.4645669291338583
        },
        {
          "duration": 0.03488372093023173,
          "durationTicks": 3,
          "midi": 51,
          "name": "D#3",
          "ticks": 1834,
          "time": 21.325581395348838,
          "velocity": 0.29133858267716534
        },
        {
          "duration": 0.023255813953486637,
          "durationTicks": 2,
          "midi": 39,
          "name": "D#2",
          "ticks": 1835,
          "time": 21.337209302325583,
          "velocity": 0.31496062992125984
        },
        {
          "duration": 0.03488372093023173,
          "durationTicks": 3,
          "midi": 41,
          "name": "F2",
          "ticks": 1837,
          "time": 21.36046511627907,
          "velocity": 0.31496062992125984
        },
        {
          "duration": 0.08139534883720856,
          "durationTicks": 7,
          "midi": 55,
          "name": "G3",
          "ticks": 1839,
          "time": 21.38372093023256,
          "velocity": 0.13385826771653545
        },
        {
          "duration": 0.02325581395349019,
          "durationTicks": 2,
          "midi": 40,
          "name": "E2",
          "ticks": 1845,
          "time": 21.453488372093023,
          "velocity": 0.33858267716535434
        },
        {
          "duration": 0.11627906976744029,
          "durationTicks": 10,
          "midi": 72,
          "name": "C5",
          "ticks": 1846,
          "time": 21.46511627906977,
          "velocity": 0.5748031496062992
        },
        {
          "duration": 0.03488372093023173,
          "durationTicks": 3,
          "midi": 81,
          "name": "A5",
          "ticks": 1846,
          "time": 21.46511627906977,
          "velocity": 0.30708661417322836
        },
        {
          "duration": 0.03488372093023173,
          "durationTicks": 3,
          "midi": 85,
          "name": "C#6",
          "ticks": 1846,
          "time": 21.46511627906977,
          "velocity": 0.28346456692913385
        },
        {
          "duration": 0.03488372093023173,
          "durationTicks": 3,
          "midi": 48,
          "name": "C3",
          "ticks": 1847,
          "time": 21.476744186046513,
          "velocity": 0.5511811023622047
        },
        {
          "duration": 0.11627906976744029,
          "durationTicks": 10,
          "midi": 65,
          "name": "F4",
          "ticks": 1847,
          "time": 21.476744186046513,
          "velocity": 0.6141732283464567
        },
        {
          "duration": 0.03488372093023173,
          "durationTicks": 3,
          "midi": 79,
          "name": "G5",
          "ticks": 1847,
          "time": 21.476744186046513,
          "velocity": 0.31496062992125984
        },
        {
          "duration": 0.08139534883720856,
          "durationTicks": 7,
          "midi": 83,
          "name": "B5",
          "ticks": 1847,
          "time": 21.476744186046513,
          "velocity": 0.2992125984251969
        },
        {
          "duration": 0.023255813953486637,
          "durationTicks": 2,
          "midi": 86,
          "name": "D6",
          "ticks": 1847,
          "time": 21.476744186046513,
          "velocity": 0.28346456692913385
        },
        {
          "duration": 0.02325581395349019,
          "durationTicks": 2,
          "midi": 61,
          "name": "C#4",
          "ticks": 1848,
          "time": 21.488372093023255,
          "velocity": 0.3543307086614173
        },
        {
          "duration": 0.15116279069767558,
          "durationTicks": 13,
          "midi": 87,
          "name": "D#6",
          "ticks": 1848,
          "time": 21.488372093023255,
          "velocity": 0.1889763779527559
        },
        {
          "duration": 0.08139534883720856,
          "durationTicks": 7,
          "midi": 80,
          "name": "G#5",
          "ticks": 1849,
          "time": 21.5,
          "velocity": 0.1968503937007874
        },
        {
          "duration": 0.023255813953486637,
          "durationTicks": 2,
          "midi": 50,
          "name": "D3",
          "ticks": 1850,
          "time": 21.511627906976745,
          "velocity": 0.6220472440944882
        },
        {
          "duration": 0.023255813953486637,
          "durationTicks": 2,
          "midi": 68,
          "name": "G#4",
          "ticks": 1850,
          "time": 21.511627906976745,
          "velocity": 0.25196850393700787
        },
        {
          "duration": 0.05813953488372192,
          "durationTicks": 5,
          "midi": 75,
          "name": "D#5",
          "ticks": 1851,
          "time": 21.523255813953487,
          "velocity": 0.14960629921259844
        },
        {
          "duration": 0.04651162790697683,
          "durationTicks": 4,
          "midi": 61,
          "name": "C#4",
          "ticks": 1853,
          "time": 21.546511627906977,
          "velocity": 0.4881889763779528
        },
        {
          "duration": 0.06976744186046346,
          "durationTicks": 6,
          "midi": 68,
          "name": "G#4",
          "ticks": 1853,
          "time": 21.546511627906977,
          "velocity": 0.3858267716535433
        },
        {
          "duration": 0.023255813953486637,
          "durationTicks": 2,
          "midi": 56,
          "name": "G#3",
          "ticks": 1854,
          "time": 21.558139534883722,
          "velocity": 0.2677165354330709
        },
        {
          "duration": 0.02325581395349019,
          "durationTicks": 2,
          "midi": 57,
          "name": "A3",
          "ticks": 1856,
          "time": 21.58139534883721,
          "velocity": 0.29133858267716534
        },
        {
          "duration": 0.1860465116279073,
          "durationTicks": 16,
          "midi": 63,
          "name": "D#4",
          "ticks": 1857,
          "time": 21.593023255813954,
          "velocity": 0.5905511811023622
        },
        {
          "duration": 0.05813953488371837,
          "durationTicks": 5,
          "midi": 56,
          "name": "G#3",
          "ticks": 1858,
          "time": 21.6046511627907,
          "velocity": 0.30708661417322836
        },
        {
          "duration": 0.04651162790697683,
          "durationTicks": 4,
          "midi": 67,
          "name": "G4",
          "ticks": 1859,
          "time": 21.61627906976744,
          "velocity": 0.1889763779527559
        },
        {
          "duration": 0.023255813953486637,
          "durationTicks": 2,
          "midi": 81,
          "name": "A5",
          "ticks": 1866,
          "time": 21.697674418604652,
          "velocity": 0.2755905511811024
        },
        {
          "duration": 0.03488372093023173,
          "durationTicks": 3,
          "midi": 83,
          "name": "B5",
          "ticks": 1866,
          "time": 21.697674418604652,
          "velocity": 0.25196850393700787
        },
        {
          "duration": 0.023255813953486637,
          "durationTicks": 2,
          "midi": 85,
          "name": "C#6",
          "ticks": 1866,
          "time": 21.697674418604652,
          "velocity": 0.23622047244094488
        },
        {
          "duration": 0.03488372093023173,
          "durationTicks": 3,
          "midi": 86,
          "name": "D6",
          "ticks": 1866,
          "time": 21.697674418604652,
          "velocity": 0.23622047244094488
        },
        {
          "duration": 0.03488372093023173,
          "durationTicks": 3,
          "midi": 87,
          "name": "D#6",
          "ticks": 1866,
          "time": 21.697674418604652,
          "velocity": 0.23622047244094488
        },
        {
          "duration": 0.03488372093023173,
          "durationTicks": 3,
          "midi": 88,
          "name": "E6",
          "ticks": 1866,
          "time": 21.697674418604652,
          "velocity": 0.2440944881889764
        },
        {
          "duration": 0.011627906976745095,
          "durationTicks": 1,
          "midi": 35,
          "name": "B1",
          "ticks": 1867,
          "time": 21.709302325581394,
          "velocity": 0.6220472440944882
        },
        {
          "duration": 0.011627906976745095,
          "durationTicks": 1,
          "midi": 50,
          "name": "D3",
          "ticks": 1867,
          "time": 21.709302325581394,
          "velocity": 0.5748031496062992
        },
        {
          "duration": 0.11627906976744384,
          "durationTicks": 10,
          "midi": 72,
          "name": "C5",
          "ticks": 1867,
          "time": 21.709302325581394,
          "velocity": 0.5433070866141733
        },
        {
          "duration": 0.011627906976745095,
          "durationTicks": 1,
          "midi": 30,
          "name": "F#1",
          "ticks": 1868,
          "time": 21.72093023255814,
          "velocity": 0.5905511811023622
        },
        {
          "duration": 0.15116279069767558,
          "durationTicks": 13,
          "midi": 51,
          "name": "D#3",
          "ticks": 1868,
          "time": 21.72093023255814,
          "velocity": 0.6692913385826772
        },
        {
          "duration": 0.06976744186046702,
          "durationTicks": 6,
          "midi": 79,
          "name": "G5",
          "ticks": 1868,
          "time": 21.72093023255814,
          "velocity": 0.14960629921259844
        },
        {
          "duration": 0.12790697674418539,
          "durationTicks": 11,
          "midi": 82,
          "name": "A#5",
          "ticks": 1868,
          "time": 21.72093023255814,
          "velocity": 0.1889763779527559
        },
        {
          "duration": 0.011627906976745095,
          "durationTicks": 1,
          "midi": 44,
          "name": "G#2",
          "ticks": 1869,
          "time": 21.732558139534884,
          "velocity": 0.5196850393700787
        },
        {
          "duration": 0.11627906976744029,
          "durationTicks": 10,
          "midi": 68,
          "name": "G#4",
          "ticks": 1869,
          "time": 21.732558139534884,
          "velocity": 0.30708661417322836
        },
        {
          "duration": 0.04651162790697683,
          "durationTicks": 4,
          "midi": 42,
          "name": "F#2",
          "ticks": 1870,
          "time": 21.74418604651163,
          "velocity": 0.6299212598425197
        },
        {
          "duration": 0.05813953488372192,
          "durationTicks": 5,
          "midi": 87,
          "name": "D#6",
          "ticks": 1871,
          "time": 21.75581395348837,
          "velocity": 0.07874015748031496
        },
        {
          "duration": 0.04651162790697683,
          "durationTicks": 4,
          "midi": 70,
          "name": "A#4",
          "ticks": 1872,
          "time": 21.767441860465116,
          "velocity": 0.11023622047244094
        },
        {
          "duration": 0.11627906976744029,
          "durationTicks": 10,
          "midi": 75,
          "name": "D#5",
          "ticks": 1873,
          "time": 21.77906976744186,
          "velocity": 0.25196850393700787
        },
        {
          "duration": 0.02325581395349019,
          "durationTicks": 2,
          "midi": 56,
          "name": "G#3",
          "ticks": 1875,
          "time": 21.802325581395348,
          "velocity": 0.3464566929133858
        },
        {
          "duration": 0.04651162790697683,
          "durationTicks": 4,
          "midi": 41,
          "name": "F2",
          "ticks": 1876,
          "time": 21.813953488372093,
          "velocity": 0.2755905511811024
        },
        {
          "duration": 0.023255813953486637,
          "durationTicks": 2,
          "midi": 57,
          "name": "A3",
          "ticks": 1877,
          "time": 21.825581395348838,
          "velocity": 0.2440944881889764
        },
        {
          "duration": 0.034883720930235285,
          "durationTicks": 3,
          "midi": 56,
          "name": "G#3",
          "ticks": 1879,
          "time": 21.848837209302324,
          "velocity": 0.28346456692913385
        },
        {
          "duration": 0.023255813953486637,
          "durationTicks": 2,
          "midi": 40,
          "name": "E2",
          "ticks": 1885,
          "time": 21.91860465116279,
          "velocity": 0.3464566929133858
        },
        {
          "duration": 0.15116279069767202,
          "durationTicks": 13,
          "midi": 72,
          "name": "C5",
          "ticks": 1886,
          "time": 21.930232558139537,
          "velocity": 0.5354330708661418
        },
        {
          "duration": 0.13953488372092693,
          "durationTicks": 12,
          "midi": 80,
          "name": "G#5",
          "ticks": 1886,
          "time": 21.930232558139537,
          "velocity": 0.30708661417322836
        },
        {
          "duration": 0.03488372093023173,
          "durationTicks": 3,
          "midi": 85,
          "name": "C#6",
          "ticks": 1886,
          "time": 21.930232558139537,
          "velocity": 0.23622047244094488
        },
        {
          "duration": 0.03488372093023173,
          "durationTicks": 3,
          "midi": 86,
          "name": "D6",
          "ticks": 1886,
          "time": 21.930232558139537,
          "velocity": 0.23622047244094488
        },
        {
          "duration": 0.03488372093023173,
          "durationTicks": 3,
          "midi": 88,
          "name": "E6",
          "ticks": 1886,
          "time": 21.930232558139537,
          "velocity": 0.2440944881889764
        },
        {
          "duration": 0.02325581395349019,
          "durationTicks": 2,
          "midi": 48,
          "name": "C3",
          "ticks": 1887,
          "time": 21.941860465116278,
          "velocity": 0.5669291338582677
        },
        {
          "duration": 0.09302325581395365,
          "durationTicks": 8,
          "midi": 63,
          "name": "D#4",
          "ticks": 1887,
          "time": 21.941860465116278,
          "velocity": 0.6141732283464567
        },
        {
          "duration": 0.02325581395349019,
          "durationTicks": 2,
          "midi": 82,
          "name": "A#5",
          "ticks": 1887,
          "time": 21.941860465116278,
          "velocity": 0.2440944881889764
        },
        {
          "duration": 0.02325581395349019,
          "durationTicks": 2,
          "midi": 83,
          "name": "B5",
          "ticks": 1887,
          "time": 21.941860465116278,
          "velocity": 0.2283464566929134
        },
        {
          "duration": 0.15116279069767202,
          "durationTicks": 13,
          "midi": 49,
          "name": "C#3",
          "ticks": 1889,
          "time": 21.96511627906977,
          "velocity": 0.5826771653543307
        },
        {
          "duration": 0.05813953488371837,
          "durationTicks": 5,
          "midi": 54,
          "name": "F#3",
          "ticks": 1901,
          "time": 22.1046511627907,
          "velocity": 0.15748031496062992
        },
        {
          "duration": 0.1976744186046524,
          "durationTicks": 17,
          "midi": 70,
          "name": "A#4",
          "ticks": 1906,
          "time": 22.162790697674417,
          "velocity": 0.5511811023622047
        },
        {
          "duration": 0.034883720930235285,
          "durationTicks": 3,
          "midi": 76,
          "name": "E5",
          "ticks": 1906,
          "time": 22.162790697674417,
          "velocity": 0.2755905511811024
        },
        {
          "duration": 0.034883720930235285,
          "durationTicks": 3,
          "midi": 80,
          "name": "G#5",
          "ticks": 1906,
          "time": 22.162790697674417,
          "velocity": 0.2204724409448819
        },
        {
          "duration": 0.02325581395349019,
          "durationTicks": 2,
          "midi": 84,
          "name": "C6",
          "ticks": 1906,
          "time": 22.162790697674417,
          "velocity": 0.2283464566929134
        },
        {
          "duration": 0.02325581395349019,
          "durationTicks": 2,
          "midi": 86,
          "name": "D6",
          "ticks": 1906,
          "time": 22.162790697674417,
          "velocity": 0.23622047244094488
        },
        {
          "duration": 0.011627906976745095,
          "durationTicks": 1,
          "midi": 35,
          "name": "B1",
          "ticks": 1907,
          "time": 22.174418604651162,
          "velocity": 0.6141732283464567
        },
        {
          "duration": 0.011627906976745095,
          "durationTicks": 1,
          "midi": 48,
          "name": "C3",
          "ticks": 1907,
          "time": 22.174418604651162,
          "velocity": 0.5118110236220472
        },
        {
          "duration": 0.02325581395349019,
          "durationTicks": 2,
          "midi": 55,
          "name": "G3",
          "ticks": 1907,
          "time": 22.174418604651162,
          "velocity": 0.47244094488188976
        },
        {
          "duration": 0.09302325581395365,
          "durationTicks": 8,
          "midi": 63,
          "name": "D#4",
          "ticks": 1907,
          "time": 22.174418604651162,
          "velocity": 0.5590551181102362
        },
        {
          "duration": 0.08139534883720856,
          "durationTicks": 7,
          "midi": 73,
          "name": "C#5",
          "ticks": 1907,
          "time": 22.174418604651162,
          "velocity": 0.3543307086614173
        },
        {
          "duration": 0.02325581395349019,
          "durationTicks": 2,
          "midi": 78,
          "name": "F#5",
          "ticks": 1907,
          "time": 22.174418604651162,
          "velocity": 0.28346456692913385
        },
        {
          "duration": 0.011627906976745095,
          "durationTicks": 1,
          "midi": 40,
          "name": "E2",
          "ticks": 1908,
          "time": 22.186046511627907,
          "velocity": 0.6062992125984252
        },
        {
          "duration": 0.011627906976745095,
          "durationTicks": 1,
          "midi": 50,
          "name": "D3",
          "ticks": 1908,
          "time": 22.186046511627907,
          "velocity": 0.5354330708661418
        },
        {
          "duration": 0.10465116279069875,
          "durationTicks": 9,
          "midi": 66,
          "name": "F#4",
          "ticks": 1908,
          "time": 22.186046511627907,
          "velocity": 0.3858267716535433
        },
        {
          "duration": 0.011627906976741542,
          "durationTicks": 1,
          "midi": 52,
          "name": "E3",
          "ticks": 1909,
          "time": 22.197674418604652,
          "velocity": 0.5984251968503937
        },
        {
          "duration": 0.1046511627906952,
          "durationTicks": 9,
          "midi": 77,
          "name": "F5",
          "ticks": 1909,
          "time": 22.197674418604652,
          "velocity": 0.3464566929133858
        },
        {
          "duration": 0.034883720930235285,
          "durationTicks": 3,
          "midi": 51,
          "name": "D#3",
          "ticks": 1910,
          "time": 22.209302325581394,
          "velocity": 0.5669291338582677
        },
        {
          "duration": 0.17441860465116577,
          "durationTicks": 15,
          "midi": 58,
          "name": "A#3",
          "ticks": 1910,
          "time": 22.209302325581394,
          "velocity": 0.3937007874015748
        },
        {
          "duration": 0.011627906976745095,
          "durationTicks": 1,
          "midi": 42,
          "name": "F#2",
          "ticks": 1911,
          "time": 22.22093023255814,
          "velocity": 0.6062992125984252
        },
        {
          "duration": 0.04651162790697683,
          "durationTicks": 4,
          "midi": 41,
          "name": "F2",
          "ticks": 1912,
          "time": 22.232558139534884,
          "velocity": 0.6377952755905512
        },
        {
          "duration": 0.05813953488371837,
          "durationTicks": 5,
          "midi": 52,
          "name": "E3",
          "ticks": 1913,
          "time": 22.24418604651163,
          "velocity": 0.48031496062992124
        },
        {
          "duration": 0.03488372093023173,
          "durationTicks": 3,
          "midi": 40,
          "name": "E2",
          "ticks": 1916,
          "time": 22.27906976744186,
          "velocity": 0.3779527559055118
        },
        {
          "duration": 0.02325581395349019,
          "durationTicks": 2,
          "midi": 51,
          "name": "D#3",
          "ticks": 1918,
          "time": 22.302325581395348,
          "velocity": 0.3543307086614173
        },
        {
          "duration": 0.03488372093023173,
          "durationTicks": 3,
          "midi": 83,
          "name": "B5",
          "ticks": 1925,
          "time": 22.38372093023256,
          "velocity": 0.2125984251968504
        },
        {
          "duration": 0.12790697674418539,
          "durationTicks": 11,
          "midi": 70,
          "name": "A#4",
          "ticks": 1926,
          "time": 22.3953488372093,
          "velocity": 0.6062992125984252
        },
        {
          "duration": 0.10465116279069875,
          "durationTicks": 9,
          "midi": 61,
          "name": "C#4",
          "ticks": 1927,
          "time": 22.406976744186046,
          "velocity": 0.4015748031496063
        },
        {
          "duration": 0.13953488372093048,
          "durationTicks": 12,
          "midi": 92,
          "name": "G#6",
          "ticks": 1927,
          "time": 22.406976744186046,
          "velocity": 0.1968503937007874
        },
        {
          "duration": 0.023255813953486637,
          "durationTicks": 2,
          "midi": 38,
          "name": "D2",
          "ticks": 1929,
          "time": 22.430232558139537,
          "velocity": 0.2283464566929134
        },
        {
          "duration": 0.03488372093023173,
          "durationTicks": 3,
          "midi": 40,
          "name": "E2",
          "ticks": 1931,
          "time": 22.453488372093023,
          "velocity": 0.2204724409448819
        },
        {
          "duration": 0.11627906976744029,
          "durationTicks": 10,
          "midi": 59,
          "name": "B3",
          "ticks": 1936,
          "time": 22.511627906976745,
          "velocity": 0.5590551181102362
        },
        {
          "duration": 0.011627906976741542,
          "durationTicks": 1,
          "midi": 62,
          "name": "D4",
          "ticks": 1936,
          "time": 22.511627906976745,
          "velocity": 0.5433070866141733
        },
        {
          "duration": 0.04651162790697683,
          "durationTicks": 4,
          "midi": 78,
          "name": "F#5",
          "ticks": 1936,
          "time": 22.511627906976745,
          "velocity": 0.14173228346456693
        },
        {
          "duration": 0.2558139534883743,
          "durationTicks": 22,
          "midi": 63,
          "name": "D#4",
          "ticks": 1937,
          "time": 22.523255813953487,
          "velocity": 0.6062992125984252
        },
        {
          "duration": 0.12790697674418894,
          "durationTicks": 11,
          "midi": 90,
          "name": "F#6",
          "ticks": 1937,
          "time": 22.523255813953487,
          "velocity": 0.2440944881889764
        },
        {
          "duration": 0.15116279069767558,
          "durationTicks": 13,
          "midi": 82,
          "name": "A#5",
          "ticks": 1939,
          "time": 22.546511627906977,
          "velocity": 0.28346456692913385
        },
        {
          "duration": 0.06976744186046346,
          "durationTicks": 6,
          "midi": 51,
          "name": "D#3",
          "ticks": 1940,
          "time": 22.558139534883722,
          "velocity": 0.44881889763779526
        },
        {
          "duration": 0.12790697674418539,
          "durationTicks": 11,
          "midi": 70,
          "name": "A#4",
          "ticks": 1940,
          "time": 22.558139534883722,
          "velocity": 0.5669291338582677
        },
        {
          "duration": 0.10465116279069875,
          "durationTicks": 9,
          "midi": 77,
          "name": "F5",
          "ticks": 1941,
          "time": 22.569767441860463,
          "velocity": 0.33070866141732286
        },
        {
          "duration": 0.034883720930235285,
          "durationTicks": 3,
          "midi": 74,
          "name": "D5",
          "ticks": 1945,
          "time": 22.61627906976744,
          "velocity": 0.2755905511811024
        },
        {
          "duration": 0.034883720930235285,
          "durationTicks": 3,
          "midi": 87,
          "name": "D#6",
          "ticks": 1945,
          "time": 22.61627906976744,
          "velocity": 0.25196850393700787
        },
        {
          "duration": 0.011627906976745095,
          "durationTicks": 1,
          "midi": 34,
          "name": "A#1",
          "ticks": 1946,
          "time": 22.627906976744185,
          "velocity": 0.5118110236220472
        },
        {
          "duration": 0.011627906976745095,
          "durationTicks": 1,
          "midi": 60,
          "name": "C4",
          "ticks": 1946,
          "time": 22.627906976744185,
          "velocity": 0.5275590551181102
        },
        {
          "duration": 0.011627906976745095,
          "durationTicks": 1,
          "midi": 36,
          "name": "C2",
          "ticks": 1947,
          "time": 22.63953488372093,
          "velocity": 0.6220472440944882
        },
        {
          "duration": 0.011627906976745095,
          "durationTicks": 1,
          "midi": 59,
          "name": "B3",
          "ticks": 1947,
          "time": 22.63953488372093,
          "velocity": 0.5748031496062992
        },
        {
          "duration": 0.011627906976741542,
          "durationTicks": 1,
          "midi": 40,
          "name": "E2",
          "ticks": 1948,
          "time": 22.651162790697676,
          "velocity": 0.5826771653543307
        },
        {
          "duration": 0.011627906976741542,
          "durationTicks": 1,
          "midi": 54,
          "name": "F#3",
          "ticks": 1948,
          "time": 22.651162790697676,
          "velocity": 0.5118110236220472
        },
        {
          "duration": 0.16279069767441712,
          "durationTicks": 14,
          "midi": 58,
          "name": "A#3",
          "ticks": 1948,
          "time": 22.651162790697676,
          "velocity": 0.5511811023622047
        },
        {
          "duration": 0.05813953488371837,
          "durationTicks": 5,
          "midi": 73,
          "name": "C#5",
          "ticks": 1948,
          "time": 22.651162790697676,
          "velocity": 0.1732283464566929
        },
        {
          "duration": 0.011627906976745095,
          "durationTicks": 1,
          "midi": 53,
          "name": "F3",
          "ticks": 1949,
          "time": 22.662790697674417,
          "velocity": 0.5748031496062992
        },
        {
          "duration": 0.011627906976745095,
          "durationTicks": 1,
          "midi": 44,
          "name": "G#2",
          "ticks": 1950,
          "time": 22.674418604651162,
          "velocity": 0.5354330708661418
        },
        {
          "duration": 0.02325581395349019,
          "durationTicks": 2,
          "midi": 51,
          "name": "D#3",
          "ticks": 1950,
          "time": 22.674418604651162,
          "velocity": 0.49606299212598426
        },
        {
          "duration": 0.02325581395349019,
          "durationTicks": 2,
          "midi": 54,
          "name": "F#3",
          "ticks": 1950,
          "time": 22.674418604651162,
          "velocity": 0.48031496062992124
        },
        {
          "duration": 0.011627906976745095,
          "durationTicks": 1,
          "midi": 42,
          "name": "F#2",
          "ticks": 1951,
          "time": 22.686046511627907,
          "velocity": 0.6299212598425197
        },
        {
          "duration": 0.05813953488371837,
          "durationTicks": 5,
          "midi": 41,
          "name": "F2",
          "ticks": 1952,
          "time": 22.697674418604652,
          "velocity": 0.6377952755905512
        },
        {
          "duration": 0.023255813953486637,
          "durationTicks": 2,
          "midi": 40,
          "name": "E2",
          "ticks": 1964,
          "time": 22.837209302325583,
          "velocity": 0.25984251968503935
        },
        {
          "duration": 0.02325581395349019,
          "durationTicks": 2,
          "midi": 64,
          "name": "E4",
          "ticks": 1965,
          "time": 22.848837209302324,
          "velocity": 0.4881889763779528
        },
        {
          "duration": 0.1744186046511622,
          "durationTicks": 15,
          "midi": 77,
          "name": "F5",
          "ticks": 1965,
          "time": 22.848837209302324,
          "velocity": 0.3779527559055118
        },
        {
          "duration": 0.09302325581395365,
          "durationTicks": 8,
          "midi": 80,
          "name": "G#5",
          "ticks": 1965,
          "time": 22.848837209302324,
          "velocity": 0.2755905511811024
        },
        {
          "duration": 0.04651162790697683,
          "durationTicks": 4,
          "midi": 83,
          "name": "B5",
          "ticks": 1965,
          "time": 22.848837209302324,
          "velocity": 0.23622047244094488
        },
        {
          "duration": 0.10465116279069875,
          "durationTicks": 9,
          "midi": 86,
          "name": "D6",
          "ticks": 1965,
          "time": 22.848837209302324,
          "velocity": 0.2992125984251969
        },
        {
          "duration": 0.04651162790697683,
          "durationTicks": 4,
          "midi": 70,
          "name": "A#4",
          "ticks": 1966,
          "time": 22.86046511627907,
          "velocity": 0.5748031496062992
        },
        {
          "duration": 0.02325581395349019,
          "durationTicks": 2,
          "midi": 87,
          "name": "D#6",
          "ticks": 1966,
          "time": 22.86046511627907,
          "velocity": 0.2440944881889764
        },
        {
          "duration": 0.023255813953486637,
          "durationTicks": 2,
          "midi": 30,
          "name": "F#1",
          "ticks": 1967,
          "time": 22.872093023255815,
          "velocity": 0.4409448818897638
        },
        {
          "duration": 0.011627906976745095,
          "durationTicks": 1,
          "midi": 48,
          "name": "C3",
          "ticks": 1967,
          "time": 22.872093023255815,
          "velocity": 0.5511811023622047
        },
        {
          "duration": 0.05813953488372192,
          "durationTicks": 5,
          "midi": 55,
          "name": "G3",
          "ticks": 1967,
          "time": 22.872093023255815,
          "velocity": 0.5433070866141733
        },
        {
          "duration": 0.1744186046511622,
          "durationTicks": 15,
          "midi": 63,
          "name": "D#4",
          "ticks": 1967,
          "time": 22.872093023255815,
          "velocity": 0.5984251968503937
        },
        {
          "duration": 0.023255813953486637,
          "durationTicks": 2,
          "midi": 49,
          "name": "C#3",
          "ticks": 1968,
          "time": 22.88372093023256,
          "velocity": 0.6220472440944882
        },
        {
          "duration": 0.011627906976745095,
          "durationTicks": 1,
          "midi": 50,
          "name": "D3",
          "ticks": 1970,
          "time": 22.906976744186046,
          "velocity": 0.6062992125984252
        },
        {
          "duration": 0.02325581395349019,
          "durationTicks": 2,
          "midi": 69,
          "name": "A4",
          "ticks": 1970,
          "time": 22.906976744186046,
          "velocity": 0.3464566929133858
        },
        {
          "duration": 0.011627906976745095,
          "durationTicks": 1,
          "midi": 49,
          "name": "C#3",
          "ticks": 1971,
          "time": 22.91860465116279,
          "velocity": 0.5275590551181102
        },
        {
          "duration": 0.11627906976744029,
          "durationTicks": 10,
          "midi": 70,
          "name": "A#4",
          "ticks": 1972,
          "time": 22.930232558139537,
          "velocity": 0.48031496062992124
        },
        {
          "duration": 0.02325581395349019,
          "durationTicks": 2,
          "midi": 50,
          "name": "D3",
          "ticks": 1973,
          "time": 22.941860465116278,
          "velocity": 0.5039370078740157
        },
        {
          "duration": 0.04651162790697683,
          "durationTicks": 4,
          "midi": 58,
          "name": "A#3",
          "ticks": 1975,
          "time": 22.96511627906977,
          "velocity": 0.4251968503937008
        },
        {
          "duration": 0.023255813953486637,
          "durationTicks": 2,
          "midi": 52,
          "name": "E3",
          "ticks": 1976,
          "time": 22.976744186046513,
          "velocity": 0.3858267716535433
        },
        {
          "duration": 0.023255813953486637,
          "durationTicks": 2,
          "midi": 57,
          "name": "A3",
          "ticks": 1979,
          "time": 23.011627906976745,
          "velocity": 0.29133858267716534
        },
        {
          "duration": 0.03488372093023173,
          "durationTicks": 3,
          "midi": 58,
          "name": "A#3",
          "ticks": 1981,
          "time": 23.03488372093023,
          "velocity": 0.13385826771653545
        },
        {
          "duration": 0.03488372093023173,
          "durationTicks": 3,
          "midi": 81,
          "name": "A5",
          "ticks": 1985,
          "time": 23.08139534883721,
          "velocity": 0.1968503937007874
        },
        {
          "duration": 0.011627906976745095,
          "durationTicks": 1,
          "midi": 35,
          "name": "B1",
          "ticks": 1986,
          "time": 23.093023255813954,
          "velocity": 0.5511811023622047
        },
        {
          "duration": 0.03488372093023173,
          "durationTicks": 3,
          "midi": 50,
          "name": "D3",
          "ticks": 1986,
          "time": 23.093023255813954,
          "velocity": 0.5354330708661418
        },
        {
          "duration": 0.13953488372093048,
          "durationTicks": 12,
          "midi": 63,
          "name": "D#4",
          "ticks": 1986,
          "time": 23.093023255813954,
          "velocity": 0.5590551181102362
        },
        {
          "duration": 0.09302325581395365,
          "durationTicks": 8,
          "midi": 70,
          "name": "A#4",
          "ticks": 1986,
          "time": 23.093023255813954,
          "velocity": 0.5511811023622047
        },
        {
          "duration": 0.011627906976741542,
          "durationTicks": 1,
          "midi": 40,
          "name": "E2",
          "ticks": 1987,
          "time": 23.1046511627907,
          "velocity": 0.6220472440944882
        },
        {
          "duration": 0.011627906976745095,
          "durationTicks": 1,
          "midi": 41,
          "name": "F2",
          "ticks": 1988,
          "time": 23.11627906976744,
          "velocity": 0.5590551181102362
        },
        {
          "duration": 0.05813953488372192,
          "durationTicks": 5,
          "midi": 73,
          "name": "C#5",
          "ticks": 1988,
          "time": 23.11627906976744,
          "velocity": 0.12598425196850394
        },
        {
          "duration": 0.02325581395349019,
          "durationTicks": 2,
          "midi": 43,
          "name": "G2",
          "ticks": 1989,
          "time": 23.127906976744185,
          "velocity": 0.5669291338582677
        },
        {
          "duration": 0.011627906976745095,
          "durationTicks": 1,
          "midi": 52,
          "name": "E3",
          "ticks": 1989,
          "time": 23.127906976744185,
          "velocity": 0.5669291338582677
        },
        {
          "duration": 0.023255813953486637,
          "durationTicks": 2,
          "midi": 51,
          "name": "D#3",
          "ticks": 1990,
          "time": 23.13953488372093,
          "velocity": 0.5118110236220472
        },
        {
          "duration": 0.05813953488371837,
          "durationTicks": 5,
          "midi": 41,
          "name": "F2",
          "ticks": 1991,
          "time": 23.151162790697676,
          "velocity": 0.6377952755905512
        },
        {
          "duration": 0.02325581395349019,
          "durationTicks": 2,
          "midi": 40,
          "name": "E2",
          "ticks": 1996,
          "time": 23.209302325581394,
          "velocity": 0.29133858267716534
        },
        {
          "duration": 0.02325581395349019,
          "durationTicks": 2,
          "midi": 40,
          "name": "E2",
          "ticks": 2004,
          "time": 23.302325581395348,
          "velocity": 0.33070866141732286
        },
        {
          "duration": 0.03488372093023173,
          "durationTicks": 3,
          "midi": 87,
          "name": "D#6",
          "ticks": 2005,
          "time": 23.313953488372093,
          "velocity": 0.1968503937007874
        },
        {
          "duration": 0.023255813953486637,
          "durationTicks": 2,
          "midi": 55,
          "name": "G3",
          "ticks": 2006,
          "time": 23.325581395348838,
          "velocity": 0.4645669291338583
        },
        {
          "duration": 0.11627906976744029,
          "durationTicks": 10,
          "midi": 65,
          "name": "F4",
          "ticks": 2006,
          "time": 23.325581395348838,
          "velocity": 0.5826771653543307
        },
        {
          "duration": 0.09302325581395365,
          "durationTicks": 8,
          "midi": 70,
          "name": "A#4",
          "ticks": 2006,
          "time": 23.325581395348838,
          "velocity": 0.5590551181102362
        },
        {
          "duration": 0.03488372093023173,
          "durationTicks": 3,
          "midi": 76,
          "name": "E5",
          "ticks": 2006,
          "time": 23.325581395348838,
          "velocity": 0.29133858267716534
        },
        {
          "duration": 0.03488372093023173,
          "durationTicks": 3,
          "midi": 81,
          "name": "A5",
          "ticks": 2006,
          "time": 23.325581395348838,
          "velocity": 0.23622047244094488
        },
        {
          "duration": 0.011627906976741542,
          "durationTicks": 1,
          "midi": 48,
          "name": "C3",
          "ticks": 2007,
          "time": 23.337209302325583,
          "velocity": 0.5669291338582677
        },
        {
          "duration": 0.06976744186046346,
          "durationTicks": 6,
          "midi": 61,
          "name": "C#4",
          "ticks": 2007,
          "time": 23.337209302325583,
          "velocity": 0.4015748031496063
        },
        {
          "duration": 0.06976744186046346,
          "durationTicks": 6,
          "midi": 80,
          "name": "G#5",
          "ticks": 2007,
          "time": 23.337209302325583,
          "velocity": 0.18110236220472442
        },
        {
          "duration": 0.02325581395349019,
          "durationTicks": 2,
          "midi": 49,
          "name": "C#3",
          "ticks": 2008,
          "time": 23.348837209302324,
          "velocity": 0.6062992125984252
        },
        {
          "duration": 0.02325581395349019,
          "durationTicks": 2,
          "midi": 54,
          "name": "F#3",
          "ticks": 2008,
          "time": 23.348837209302324,
          "velocity": 0.47244094488188976
        },
        {
          "duration": 0.02325581395349019,
          "durationTicks": 2,
          "midi": 58,
          "name": "A#3",
          "ticks": 2009,
          "time": 23.36046511627907,
          "velocity": 0.3858267716535433
        },
        {
          "duration": 0.011627906976745095,
          "durationTicks": 1,
          "midi": 50,
          "name": "D3",
          "ticks": 2010,
          "time": 23.372093023255815,
          "velocity": 0.5669291338582677
        },
        {
          "duration": 0.023255813953486637,
          "durationTicks": 2,
          "midi": 54,
          "name": "F#3",
          "ticks": 2011,
          "time": 23.38372093023256,
          "velocity": 0.4251968503937008
        },
        {
          "duration": 0.05813953488372192,
          "durationTicks": 5,
          "midi": 58,
          "name": "A#3",
          "ticks": 2012,
          "time": 23.3953488372093,
          "velocity": 0.3858267716535433
        },
        {
          "duration": 0.08139534883720856,
          "durationTicks": 7,
          "midi": 51,
          "name": "D#3",
          "ticks": 2014,
          "time": 23.41860465116279,
          "velocity": 0.44881889763779526
        },
        {
          "duration": 0.23255813953488413,
          "durationTicks": 20,
          "midi": 63,
          "name": "D#4",
          "ticks": 2016,
          "time": 23.441860465116278,
          "velocity": 0.5984251968503937
        },
        {
          "duration": 0.05813953488372192,
          "durationTicks": 5,
          "midi": 77,
          "name": "F5",
          "ticks": 2016,
          "time": 23.441860465116278,
          "velocity": 0.2440944881889764
        },
        {
          "duration": 0.05813953488371837,
          "durationTicks": 5,
          "midi": 58,
          "name": "A#3",
          "ticks": 2018,
          "time": 23.46511627906977,
          "velocity": 0.2755905511811024
        },
        {
          "duration": 0.03488372093023173,
          "durationTicks": 3,
          "midi": 78,
          "name": "F#5",
          "ticks": 2025,
          "time": 23.546511627906977,
          "velocity": 0.28346456692913385
        },
        {
          "duration": 0.03488372093023173,
          "durationTicks": 3,
          "midi": 81,
          "name": "A5",
          "ticks": 2025,
          "time": 23.546511627906977,
          "velocity": 0.2755905511811024
        },
        {
          "duration": 0.04651162790697683,
          "durationTicks": 4,
          "midi": 84,
          "name": "C6",
          "ticks": 2025,
          "time": 23.546511627906977,
          "velocity": 0.2125984251968504
        },
        {
          "duration": 0.03488372093023173,
          "durationTicks": 3,
          "midi": 87,
          "name": "D#6",
          "ticks": 2025,
          "time": 23.546511627906977,
          "velocity": 0.25196850393700787
        },
        {
          "duration": 0.011627906976741542,
          "durationTicks": 1,
          "midi": 35,
          "name": "B1",
          "ticks": 2026,
          "time": 23.558139534883722,
          "velocity": 0.6220472440944882
        },
        {
          "duration": 0.023255813953486637,
          "durationTicks": 2,
          "midi": 50,
          "name": "D3",
          "ticks": 2026,
          "time": 23.558139534883722,
          "velocity": 0.6299212598425197
        },
        {
          "duration": 0.09302325581395365,
          "durationTicks": 8,
          "midi": 70,
          "name": "A#4",
          "ticks": 2026,
          "time": 23.558139534883722,
          "velocity": 0.5433070866141733
        },
        {
          "duration": 0.023255813953486637,
          "durationTicks": 2,
          "midi": 77,
          "name": "F5",
          "ticks": 2026,
          "time": 23.558139534883722,
          "velocity": 0.2440944881889764
        },
        {
          "duration": 0.011627906976745095,
          "durationTicks": 1,
          "midi": 36,
          "name": "C2",
          "ticks": 2027,
          "time": 23.569767441860463,
          "velocity": 0.6062992125984252
        },
        {
          "duration": 0.10465116279069875,
          "durationTicks": 9,
          "midi": 51,
          "name": "D#3",
          "ticks": 2028,
          "time": 23.58139534883721,
          "velocity": 0.6614173228346457
        },
        {
          "duration": 0.15116279069767558,
          "durationTicks": 13,
          "midi": 73,
          "name": "C#5",
          "ticks": 2028,
          "time": 23.58139534883721,
          "velocity": 0.31496062992125984
        },
        {
          "duration": 0.05813953488372192,
          "durationTicks": 5,
          "midi": 79,
          "name": "G5",
          "ticks": 2028,
          "time": 23.58139534883721,
          "velocity": 0.1889763779527559
        },
        {
          "duration": 0.023255813953486637,
          "durationTicks": 2,
          "midi": 42,
          "name": "F#2",
          "ticks": 2029,
          "time": 23.593023255813954,
          "velocity": 0.5669291338582677
        },
        {
          "duration": 0.05813953488372192,
          "durationTicks": 5,
          "midi": 41,
          "name": "F2",
          "ticks": 2031,
          "time": 23.61627906976744,
          "velocity": 0.6141732283464567
        },
        {
          "duration": 0.05813953488372192,
          "durationTicks": 5,
          "midi": 66,
          "name": "F#4",
          "ticks": 2036,
          "time": 23.674418604651162,
          "velocity": 0.11811023622047244
        },
        {
          "duration": 0.034883720930235285,
          "durationTicks": 3,
          "midi": 55,
          "name": "G3",
          "ticks": 2039,
          "time": 23.709302325581394,
          "velocity": 0.2125984251968504
        },
        {
          "duration": 0.10465116279069875,
          "durationTicks": 9,
          "midi": 70,
          "name": "A#4",
          "ticks": 2045,
          "time": 23.77906976744186,
          "velocity": 0.5748031496062992
        },
        {
          "duration": 0.03488372093023173,
          "durationTicks": 3,
          "midi": 77,
          "name": "F5",
          "ticks": 2045,
          "time": 23.77906976744186,
          "velocity": 0.25984251968503935
        },
        {
          "duration": 0.023255813953486637,
          "durationTicks": 2,
          "midi": 86,
          "name": "D6",
          "ticks": 2045,
          "time": 23.77906976744186,
          "velocity": 0.25196850393700787
        },
        {
          "duration": 0.03488372093023173,
          "durationTicks": 3,
          "midi": 87,
          "name": "D#6",
          "ticks": 2045,
          "time": 23.77906976744186,
          "velocity": 0.25196850393700787
        },
        {
          "duration": 0.22093023255813904,
          "durationTicks": 19,
          "midi": 63,
          "name": "D#4",
          "ticks": 2046,
          "time": 23.790697674418606,
          "velocity": 0.5590551181102362
        },
        {
          "duration": 0.023255813953486637,
          "durationTicks": 2,
          "midi": 81,
          "name": "A5",
          "ticks": 2046,
          "time": 23.790697674418606,
          "velocity": 0.23622047244094488
        },
        {
          "duration": 0.023255813953486637,
          "durationTicks": 2,
          "midi": 84,
          "name": "C6",
          "ticks": 2046,
          "time": 23.790697674418606,
          "velocity": 0.25196850393700787
        },
        {
          "duration": 0.03488372093023173,
          "durationTicks": 3,
          "midi": 51,
          "name": "D#3",
          "ticks": 2048,
          "time": 23.813953488372093,
          "velocity": 0.3779527559055118
        },
        {
          "duration": 0.03488372093023173,
          "durationTicks": 3,
          "midi": 40,
          "name": "E2",
          "ticks": 2050,
          "time": 23.837209302325583,
          "velocity": 0.18110236220472442
        },
        {
          "duration": 0.034883720930235285,
          "durationTicks": 3,
          "midi": 52,
          "name": "E3",
          "ticks": 2051,
          "time": 23.848837209302324,
          "velocity": 0.3228346456692913
        },
        {
          "duration": 0.04651162790697683,
          "durationTicks": 4,
          "midi": 51,
          "name": "D#3",
          "ticks": 2054,
          "time": 23.88372093023256,
          "velocity": 0.3464566929133858
        },
        {
          "duration": 0.04651162790697683,
          "durationTicks": 4,
          "midi": 70,
          "name": "A#4",
          "ticks": 2055,
          "time": 23.8953488372093,
          "velocity": 0.2047244094488189
        },
        {
          "duration": 0.023255813953486637,
          "durationTicks": 2,
          "midi": 52,
          "name": "E3",
          "ticks": 2058,
          "time": 23.930232558139537,
          "velocity": 0.2440944881889764
        },
        {
          "duration": 0.03488372093023173,
          "durationTicks": 3,
          "midi": 51,
          "name": "D#3",
          "ticks": 2060,
          "time": 23.953488372093023,
          "velocity": 0.11811023622047244
        },
        {
          "duration": 0.04651162790697683,
          "durationTicks": 4,
          "midi": 73,
          "name": "C#5",
          "ticks": 2065,
          "time": 24.011627906976745,
          "velocity": 0.2677165354330709
        },
        {
          "duration": 0.20930232558139394,
          "durationTicks": 18,
          "midi": 78,
          "name": "F#5",
          "ticks": 2065,
          "time": 24.011627906976745,
          "velocity": 0.25196850393700787
        },
        {
          "duration": 0.03488372093023173,
          "durationTicks": 3,
          "midi": 80,
          "name": "G#5",
          "ticks": 2065,
          "time": 24.011627906976745,
          "velocity": 0.2440944881889764
        },
        {
          "duration": 0.03488372093023173,
          "durationTicks": 3,
          "midi": 83,
          "name": "B5",
          "ticks": 2065,
          "time": 24.011627906976745,
          "velocity": 0.2283464566929134
        },
        {
          "duration": 0.011627906976745095,
          "durationTicks": 1,
          "midi": 36,
          "name": "C2",
          "ticks": 2066,
          "time": 24.023255813953487,
          "velocity": 0.6062992125984252
        },
        {
          "duration": 0.12790697674418894,
          "durationTicks": 11,
          "midi": 63,
          "name": "D#4",
          "ticks": 2066,
          "time": 24.023255813953487,
          "velocity": 0.5826771653543307
        },
        {
          "duration": 0.06976744186046702,
          "durationTicks": 6,
          "midi": 67,
          "name": "G4",
          "ticks": 2066,
          "time": 24.023255813953487,
          "velocity": 0.5669291338582677
        },
        {
          "duration": 0.011627906976745095,
          "durationTicks": 1,
          "midi": 41,
          "name": "F2",
          "ticks": 2067,
          "time": 24.03488372093023,
          "velocity": 0.6062992125984252
        },
        {
          "duration": 0.04651162790697683,
          "durationTicks": 4,
          "midi": 71,
          "name": "B4",
          "ticks": 2067,
          "time": 24.03488372093023,
          "velocity": 0.4251968503937008
        },
        {
          "duration": 0.011627906976745095,
          "durationTicks": 1,
          "midi": 43,
          "name": "G2",
          "ticks": 2068,
          "time": 24.046511627906977,
          "velocity": 0.5118110236220472
        },
        {
          "duration": 0.011627906976745095,
          "durationTicks": 1,
          "midi": 52,
          "name": "E3",
          "ticks": 2068,
          "time": 24.046511627906977,
          "velocity": 0.5748031496062992
        },
        {
          "duration": 0.011627906976741542,
          "durationTicks": 1,
          "midi": 55,
          "name": "G3",
          "ticks": 2069,
          "time": 24.058139534883722,
          "velocity": 0.5118110236220472
        },
        {
          "duration": 0.09302325581395365,
          "durationTicks": 8,
          "midi": 59,
          "name": "B3",
          "ticks": 2069,
          "time": 24.058139534883722,
          "velocity": 0.47244094488188976
        },
        {
          "duration": 0.04651162790697683,
          "durationTicks": 4,
          "midi": 41,
          "name": "F2",
          "ticks": 2070,
          "time": 24.069767441860463,
          "velocity": 0.6692913385826772
        },
        {
          "duration": 0.06976744186046702,
          "durationTicks": 6,
          "midi": 73,
          "name": "C#5",
          "ticks": 2070,
          "time": 24.069767441860463,
          "velocity": 0.25984251968503935
        },
        {
          "duration": 0.03488372093023173,
          "durationTicks": 3,
          "midi": 55,
          "name": "G3",
          "ticks": 2072,
          "time": 24.093023255813954,
          "velocity": 0.3543307086614173
        },
        {
          "duration": 0.02325581395349019,
          "durationTicks": 2,
          "midi": 66,
          "name": "F#4",
          "ticks": 2074,
          "time": 24.11627906976744,
          "velocity": 0.30708661417322836
        },
        {
          "duration": 0.02325581395349019,
          "durationTicks": 2,
          "midi": 39,
          "name": "D#2",
          "ticks": 2075,
          "time": 24.127906976744185,
          "velocity": 0.36220472440944884
        },
        {
          "duration": 0.023255813953486637,
          "durationTicks": 2,
          "midi": 41,
          "name": "F2",
          "ticks": 2077,
          "time": 24.151162790697676,
          "velocity": 0.3228346456692913
        },
        {
          "duration": 0.03488372093023173,
          "durationTicks": 3,
          "midi": 54,
          "name": "F#3",
          "ticks": 2077,
          "time": 24.151162790697676,
          "velocity": 0.2047244094488189
        },
        {
          "duration": 0.11627906976744029,
          "durationTicks": 10,
          "midi": 61,
          "name": "C#4",
          "ticks": 2077,
          "time": 24.151162790697676,
          "velocity": 0.4566929133858268
        },
        {
          "duration": 0.03488372093023173,
          "durationTicks": 3,
          "midi": 66,
          "name": "F#4",
          "ticks": 2077,
          "time": 24.151162790697676,
          "velocity": 0.29133858267716534
        },
        {
          "duration": 0.1046511627906952,
          "durationTicks": 9,
          "midi": 80,
          "name": "G#5",
          "ticks": 2077,
          "time": 24.151162790697676,
          "velocity": 0.1968503937007874
        },
        {
          "duration": 0.034883720930235285,
          "durationTicks": 3,
          "midi": 70,
          "name": "A#4",
          "ticks": 2078,
          "time": 24.162790697674417,
          "velocity": 0.2204724409448819
        },
        {
          "duration": 0.05813953488372192,
          "durationTicks": 5,
          "midi": 40,
          "name": "E2",
          "ticks": 2079,
          "time": 24.174418604651162,
          "velocity": 0.2283464566929134
        },
        {
          "duration": 0.11627906976744029,
          "durationTicks": 10,
          "midi": 67,
          "name": "G4",
          "ticks": 2085,
          "time": 24.24418604651163,
          "velocity": 0.5826771653543307
        },
        {
          "duration": 0.12790697674418539,
          "durationTicks": 11,
          "midi": 81,
          "name": "A5",
          "ticks": 2085,
          "time": 24.24418604651163,
          "velocity": 0.2125984251968504
        },
        {
          "duration": 0.12790697674418894,
          "durationTicks": 11,
          "midi": 74,
          "name": "D5",
          "ticks": 2086,
          "time": 24.25581395348837,
          "velocity": 0.3228346456692913
        },
        {
          "duration": 0.09302325581395365,
          "durationTicks": 8,
          "midi": 62,
          "name": "D4",
          "ticks": 2087,
          "time": 24.267441860465116,
          "velocity": 0.41732283464566927
        },
        {
          "duration": 0.02325581395349019,
          "durationTicks": 2,
          "midi": 64,
          "name": "E4",
          "ticks": 2095,
          "time": 24.36046511627907,
          "velocity": 0.5511811023622047
        },
        {
          "duration": 0.04651162790697683,
          "durationTicks": 4,
          "midi": 40,
          "name": "E2",
          "ticks": 2096,
          "time": 24.372093023255815,
          "velocity": 0.14173228346456693
        },
        {
          "duration": 0.10465116279069875,
          "durationTicks": 9,
          "midi": 78,
          "name": "F#5",
          "ticks": 2096,
          "time": 24.372093023255815,
          "velocity": 0.3464566929133858
        },
        {
          "duration": 0.10465116279069875,
          "durationTicks": 9,
          "midi": 82,
          "name": "A#5",
          "ticks": 2096,
          "time": 24.372093023255815,
          "velocity": 0.2047244094488189
        },
        {
          "duration": 0.06976744186046346,
          "durationTicks": 6,
          "midi": 63,
          "name": "D#4",
          "ticks": 2097,
          "time": 24.38372093023256,
          "velocity": 0.5748031496062992
        },
        {
          "duration": 0.09302325581395365,
          "durationTicks": 8,
          "midi": 71,
          "name": "B4",
          "ticks": 2098,
          "time": 24.3953488372093,
          "velocity": 0.3543307086614173
        },
        {
          "duration": 0.034883720930235285,
          "durationTicks": 3,
          "midi": 73,
          "name": "C#5",
          "ticks": 2098,
          "time": 24.3953488372093,
          "velocity": 0.09448818897637795
        },
        {
          "duration": 0.12790697674418539,
          "durationTicks": 11,
          "midi": 85,
          "name": "C#6",
          "ticks": 2098,
          "time": 24.3953488372093,
          "velocity": 0.2992125984251969
        },
        {
          "duration": 0.03488372093023173,
          "durationTicks": 3,
          "midi": 60,
          "name": "C4",
          "ticks": 2099,
          "time": 24.406976744186046,
          "velocity": 0.2440944881889764
        },
        {
          "duration": 0.05813953488371837,
          "durationTicks": 5,
          "midi": 54,
          "name": "F#3",
          "ticks": 2101,
          "time": 24.430232558139537,
          "velocity": 0.49606299212598426
        },
        {
          "duration": 0.04651162790697683,
          "durationTicks": 4,
          "midi": 59,
          "name": "B3",
          "ticks": 2102,
          "time": 24.441860465116278,
          "velocity": 0.4645669291338583
        },
        {
          "duration": 0.03488372093023173,
          "durationTicks": 3,
          "midi": 73,
          "name": "C#5",
          "ticks": 2103,
          "time": 24.453488372093023,
          "velocity": 0.29133858267716534
        },
        {
          "duration": 0.023255813953486637,
          "durationTicks": 2,
          "midi": 64,
          "name": "E4",
          "ticks": 2104,
          "time": 24.46511627906977,
          "velocity": 0.49606299212598426
        },
        {
          "duration": 0.011627906976741542,
          "durationTicks": 1,
          "midi": 35,
          "name": "B1",
          "ticks": 2105,
          "time": 24.476744186046513,
          "velocity": 0.5275590551181102
        },
        {
          "duration": 0.06976744186046346,
          "durationTicks": 6,
          "midi": 67,
          "name": "G4",
          "ticks": 2105,
          "time": 24.476744186046513,
          "velocity": 0.5511811023622047
        },
        {
          "duration": 0.011627906976745095,
          "durationTicks": 1,
          "midi": 40,
          "name": "E2",
          "ticks": 2106,
          "time": 24.488372093023255,
          "velocity": 0.6220472440944882
        },
        {
          "duration": 0.011627906976745095,
          "durationTicks": 1,
          "midi": 51,
          "name": "D#3",
          "ticks": 2106,
          "time": 24.488372093023255,
          "velocity": 0.5354330708661418
        },
        {
          "duration": 0.011627906976745095,
          "durationTicks": 1,
          "midi": 55,
          "name": "G3",
          "ticks": 2106,
          "time": 24.488372093023255,
          "velocity": 0.5118110236220472
        },
        {
          "duration": 0.10465116279069875,
          "durationTicks": 9,
          "midi": 63,
          "name": "D#4",
          "ticks": 2106,
          "time": 24.488372093023255,
          "velocity": 0.5826771653543307
        },
        {
          "duration": 0.06976744186046702,
          "durationTicks": 6,
          "midi": 74,
          "name": "D5",
          "ticks": 2106,
          "time": 24.488372093023255,
          "velocity": 0.2125984251968504
        },
        {
          "duration": 0.12790697674418539,
          "durationTicks": 11,
          "midi": 78,
          "name": "F#5",
          "ticks": 2106,
          "time": 24.488372093023255,
          "velocity": 0.3779527559055118
        },
        {
          "duration": 0.011627906976745095,
          "durationTicks": 1,
          "midi": 41,
          "name": "F2",
          "ticks": 2107,
          "time": 24.5,
          "velocity": 0.5905511811023622
        },
        {
          "duration": 0.011627906976745095,
          "durationTicks": 1,
          "midi": 56,
          "name": "G#3",
          "ticks": 2107,
          "time": 24.5,
          "velocity": 0.5590551181102362
        },
        {
          "duration": 0.023255813953486637,
          "durationTicks": 2,
          "midi": 44,
          "name": "G#2",
          "ticks": 2108,
          "time": 24.511627906976745,
          "velocity": 0.5511811023622047
        },
        {
          "duration": 0.011627906976741542,
          "durationTicks": 1,
          "midi": 53,
          "name": "F3",
          "ticks": 2108,
          "time": 24.511627906976745,
          "velocity": 0.6062992125984252
        },
        {
          "duration": 0.09302325581395365,
          "durationTicks": 8,
          "midi": 71,
          "name": "B4",
          "ticks": 2108,
          "time": 24.511627906976745,
          "velocity": 0.2283464566929134
        },
        {
          "duration": 0.011627906976745095,
          "durationTicks": 1,
          "midi": 55,
          "name": "G3",
          "ticks": 2109,
          "time": 24.523255813953487,
          "velocity": 0.5196850393700787
        },
        {
          "duration": 0.04651162790697683,
          "durationTicks": 4,
          "midi": 41,
          "name": "F2",
          "ticks": 2110,
          "time": 24.53488372093023,
          "velocity": 0.6771653543307087
        },
        {
          "duration": 0.011627906976745095,
          "durationTicks": 1,
          "midi": 56,
          "name": "G#3",
          "ticks": 2110,
          "time": 24.53488372093023,
          "velocity": 0.5275590551181102
        },
        {
          "duration": 0.11627906976744029,
          "durationTicks": 10,
          "midi": 55,
          "name": "G3",
          "ticks": 2111,
          "time": 24.546511627906977,
          "velocity": 0.5118110236220472
        },
        {
          "duration": 0.09302325581395365,
          "durationTicks": 8,
          "midi": 66,
          "name": "F#4",
          "ticks": 2111,
          "time": 24.546511627906977,
          "velocity": 0.3937007874015748
        },
        {
          "duration": 0.02325581395349019,
          "durationTicks": 2,
          "midi": 41,
          "name": "F2",
          "ticks": 2117,
          "time": 24.61627906976744,
          "velocity": 0.33858267716535434
        },
        {
          "duration": 0.05813953488372192,
          "durationTicks": 5,
          "midi": 40,
          "name": "E2",
          "ticks": 2119,
          "time": 24.63953488372093,
          "velocity": 0.23622047244094488
        },
        {
          "duration": 0.023255813953486637,
          "durationTicks": 2,
          "midi": 68,
          "name": "G#4",
          "ticks": 2124,
          "time": 24.697674418604652,
          "velocity": 0.4881889763779528
        },
        {
          "duration": 0.04651162790697683,
          "durationTicks": 4,
          "midi": 77,
          "name": "F5",
          "ticks": 2124,
          "time": 24.697674418604652,
          "velocity": 0.2755905511811024
        },
        {
          "duration": 0.03488372093023173,
          "durationTicks": 3,
          "midi": 83,
          "name": "B5",
          "ticks": 2124,
          "time": 24.697674418604652,
          "velocity": 0.23622047244094488
        },
        {
          "duration": 0.11627906976744384,
          "durationTicks": 10,
          "midi": 63,
          "name": "D#4",
          "ticks": 2125,
          "time": 24.709302325581394,
          "velocity": 0.6062992125984252
        },
        {
          "duration": 0.02325581395349019,
          "durationTicks": 2,
          "midi": 72,
          "name": "C5",
          "ticks": 2125,
          "time": 24.709302325581394,
          "velocity": 0.30708661417322836
        },
        {
          "duration": 0.02325581395349019,
          "durationTicks": 2,
          "midi": 48,
          "name": "C3",
          "ticks": 2126,
          "time": 24.72093023255814,
          "velocity": 0.5905511811023622
        },
        {
          "duration": 0.04651162790697683,
          "durationTicks": 4,
          "midi": 67,
          "name": "G4",
          "ticks": 2126,
          "time": 24.72093023255814,
          "velocity": 0.5590551181102362
        },
        {
          "duration": 0.06976744186046702,
          "durationTicks": 6,
          "midi": 73,
          "name": "C#5",
          "ticks": 2126,
          "time": 24.72093023255814,
          "velocity": 0.2204724409448819
        },
        {
          "duration": 0.011627906976741542,
          "durationTicks": 1,
          "midi": 50,
          "name": "D3",
          "ticks": 2128,
          "time": 24.74418604651163,
          "velocity": 0.5905511811023622
        },
        {
          "duration": 0.12790697674418539,
          "durationTicks": 11,
          "midi": 78,
          "name": "F#5",
          "ticks": 2128,
          "time": 24.74418604651163,
          "velocity": 0.33070866141732286
        },
        {
          "duration": 0.011627906976745095,
          "durationTicks": 1,
          "midi": 49,
          "name": "C#3",
          "ticks": 2129,
          "time": 24.75581395348837,
          "velocity": 0.5826771653543307
        },
        {
          "duration": 0.10465116279069875,
          "durationTicks": 9,
          "midi": 71,
          "name": "B4",
          "ticks": 2129,
          "time": 24.75581395348837,
          "velocity": 0.2440944881889764
        },
        {
          "duration": 0.011627906976745095,
          "durationTicks": 1,
          "midi": 50,
          "name": "D3",
          "ticks": 2130,
          "time": 24.767441860465116,
          "velocity": 0.6141732283464567
        },
        {
          "duration": 0.06976744186046346,
          "durationTicks": 6,
          "midi": 49,
          "name": "C#3",
          "ticks": 2131,
          "time": 24.77906976744186,
          "velocity": 0.5118110236220472
        },
        {
          "duration": 0.02325581395349019,
          "durationTicks": 2,
          "midi": 54,
          "name": "F#3",
          "ticks": 2133,
          "time": 24.802325581395348,
          "velocity": 0.30708661417322836
        },
        {
          "duration": 0.05813953488372192,
          "durationTicks": 5,
          "midi": 66,
          "name": "F#4",
          "ticks": 2133,
          "time": 24.802325581395348,
          "velocity": 0.33858267716535434
        },
        {
          "duration": 0.03488372093023173,
          "durationTicks": 3,
          "midi": 59,
          "name": "B3",
          "ticks": 2134,
          "time": 24.813953488372093,
          "velocity": 0.3464566929133858
        },
        {
          "duration": 0.034883720930235285,
          "durationTicks": 3,
          "midi": 54,
          "name": "F#3",
          "ticks": 2137,
          "time": 24.848837209302324,
          "velocity": 0.2204724409448819
        },
        {
          "duration": 0.02325581395349019,
          "durationTicks": 2,
          "midi": 60,
          "name": "C4",
          "ticks": 2137,
          "time": 24.848837209302324,
          "velocity": 0.3228346456692913
        },
        {
          "duration": 0.04651162790697683,
          "durationTicks": 4,
          "midi": 65,
          "name": "F4",
          "ticks": 2138,
          "time": 24.86046511627907,
          "velocity": 0.23622047244094488
        },
        {
          "duration": 0.03488372093023173,
          "durationTicks": 3,
          "midi": 73,
          "name": "C#5",
          "ticks": 2138,
          "time": 24.86046511627907,
          "velocity": 0.14960629921259844
        },
        {
          "duration": 0.06976744186046346,
          "durationTicks": 6,
          "midi": 59,
          "name": "B3",
          "ticks": 2139,
          "time": 24.872093023255815,
          "velocity": 0.2992125984251969
        },
        {
          "duration": 0.023255813953486637,
          "durationTicks": 2,
          "midi": 73,
          "name": "C#5",
          "ticks": 2144,
          "time": 24.930232558139537,
          "velocity": 0.33070866141732286
        },
        {
          "duration": 0.03488372093023173,
          "durationTicks": 3,
          "midi": 80,
          "name": "G#5",
          "ticks": 2144,
          "time": 24.930232558139537,
          "velocity": 0.29133858267716534
        },
        {
          "duration": 0.03488372093023173,
          "durationTicks": 3,
          "midi": 82,
          "name": "A#5",
          "ticks": 2144,
          "time": 24.930232558139537,
          "velocity": 0.2755905511811024
        },
        {
          "duration": 0.03488372093023173,
          "durationTicks": 3,
          "midi": 83,
          "name": "B5",
          "ticks": 2144,
          "time": 24.930232558139537,
          "velocity": 0.2755905511811024
        },
        {
          "duration": 0.03488372093023173,
          "durationTicks": 3,
          "midi": 86,
          "name": "D6",
          "ticks": 2144,
          "time": 24.930232558139537,
          "velocity": 0.2677165354330709
        },
        {
          "duration": 0.011627906976745095,
          "durationTicks": 1,
          "midi": 35,
          "name": "B1",
          "ticks": 2145,
          "time": 24.941860465116278,
          "velocity": 0.5433070866141733
        },
        {
          "duration": 0.034883720930235285,
          "durationTicks": 3,
          "midi": 51,
          "name": "D#3",
          "ticks": 2145,
          "time": 24.941860465116278,
          "velocity": 0.5433070866141733
        },
        {
          "duration": 0.011627906976745095,
          "durationTicks": 1,
          "midi": 62,
          "name": "D4",
          "ticks": 2145,
          "time": 24.941860465116278,
          "velocity": 0.5433070866141733
        },
        {
          "duration": 0.011627906976745095,
          "durationTicks": 1,
          "midi": 68,
          "name": "G#4",
          "ticks": 2145,
          "time": 24.941860465116278,
          "velocity": 0.5354330708661418
        },
        {
          "duration": 0.02325581395349019,
          "durationTicks": 2,
          "midi": 76,
          "name": "E5",
          "ticks": 2145,
          "time": 24.941860465116278,
          "velocity": 0.2677165354330709
        },
        {
          "duration": 0.02325581395349019,
          "durationTicks": 2,
          "midi": 78,
          "name": "F#5",
          "ticks": 2145,
          "time": 24.941860465116278,
          "velocity": 0.2677165354330709
        },
        {
          "duration": 0.011627906976745095,
          "durationTicks": 1,
          "midi": 40,
          "name": "E2",
          "ticks": 2146,
          "time": 24.953488372093023,
          "velocity": 0.6141732283464567
        },
        {
          "duration": 0.12790697674418539,
          "durationTicks": 11,
          "midi": 63,
          "name": "D#4",
          "ticks": 2146,
          "time": 24.953488372093023,
          "velocity": 0.5905511811023622
        },
        {
          "duration": 0.11627906976744029,
          "durationTicks": 10,
          "midi": 67,
          "name": "G4",
          "ticks": 2146,
          "time": 24.953488372093023,
          "velocity": 0.5669291338582677
        },
        {
          "duration": 0.06976744186046346,
          "durationTicks": 6,
          "midi": 74,
          "name": "D5",
          "ticks": 2146,
          "time": 24.953488372093023,
          "velocity": 0.23622047244094488
        },
        {
          "duration": 0.023255813953486637,
          "durationTicks": 2,
          "midi": 41,
          "name": "F2",
          "ticks": 2147,
          "time": 24.96511627906977,
          "velocity": 0.5511811023622047
        },
        {
          "duration": 0.06976744186046346,
          "durationTicks": 6,
          "midi": 71,
          "name": "B4",
          "ticks": 2147,
          "time": 24.96511627906977,
          "velocity": 0.18110236220472442
        },
        {
          "duration": 0.011627906976741542,
          "durationTicks": 1,
          "midi": 53,
          "name": "F3",
          "ticks": 2148,
          "time": 24.976744186046513,
          "velocity": 0.5511811023622047
        },
        {
          "duration": 0.011627906976745095,
          "durationTicks": 1,
          "midi": 33,
          "name": "A1",
          "ticks": 2149,
          "time": 24.988372093023255,
          "velocity": 0.5748031496062992
        },
        {
          "duration": 0.02325581395349019,
          "durationTicks": 2,
          "midi": 52,
          "name": "E3",
          "ticks": 2149,
          "time": 24.988372093023255,
          "velocity": 0.5196850393700787
        },
        {
          "duration": 0.04651162790697683,
          "durationTicks": 4,
          "midi": 41,
          "name": "F2",
          "ticks": 2150,
          "time": 25,
          "velocity": 0.6692913385826772
        },
        {
          "duration": 0.034883720930235285,
          "durationTicks": 3,
          "midi": 55,
          "name": "G3",
          "ticks": 2152,
          "time": 25.023255813953487,
          "velocity": 0.30708661417322836
        },
        {
          "duration": 0.04651162790697683,
          "durationTicks": 4,
          "midi": 55,
          "name": "G3",
          "ticks": 2156,
          "time": 25.069767441860463,
          "velocity": 0.13385826771653545
        },
        {
          "duration": 0.02325581395349019,
          "durationTicks": 2,
          "midi": 41,
          "name": "F2",
          "ticks": 2157,
          "time": 25.08139534883721,
          "velocity": 0.31496062992125984
        },
        {
          "duration": 0.05813953488371837,
          "durationTicks": 5,
          "midi": 40,
          "name": "E2",
          "ticks": 2159,
          "time": 25.1046511627907,
          "velocity": 0.2283464566929134
        },
        {
          "duration": 0.034883720930235285,
          "durationTicks": 3,
          "midi": 81,
          "name": "A5",
          "ticks": 2164,
          "time": 25.162790697674417,
          "velocity": 0.29133858267716534
        },
        {
          "duration": 0.034883720930235285,
          "durationTicks": 3,
          "midi": 85,
          "name": "C#6",
          "ticks": 2164,
          "time": 25.162790697674417,
          "velocity": 0.2755905511811024
        },
        {
          "duration": 0.03488372093023173,
          "durationTicks": 3,
          "midi": 48,
          "name": "C3",
          "ticks": 2165,
          "time": 25.174418604651162,
          "velocity": 0.5511811023622047
        },
        {
          "duration": 0.11627906976744384,
          "durationTicks": 10,
          "midi": 65,
          "name": "F4",
          "ticks": 2165,
          "time": 25.174418604651162,
          "velocity": 0.6141732283464567
        },
        {
          "duration": 0.011627906976745095,
          "durationTicks": 1,
          "midi": 68,
          "name": "G#4",
          "ticks": 2165,
          "time": 25.174418604651162,
          "velocity": 0.5354330708661418
        },
        {
          "duration": 0.09302325581395365,
          "durationTicks": 8,
          "midi": 83,
          "name": "B5",
          "ticks": 2165,
          "time": 25.174418604651162,
          "velocity": 0.29133858267716534
        },
        {
          "duration": 0.02325581395349019,
          "durationTicks": 2,
          "midi": 86,
          "name": "D6",
          "ticks": 2165,
          "time": 25.174418604651162,
          "velocity": 0.2677165354330709
        },
        {
          "duration": 0.04651162790697683,
          "durationTicks": 4,
          "midi": 61,
          "name": "C#4",
          "ticks": 2166,
          "time": 25.186046511627907,
          "velocity": 0.4015748031496063
        },
        {
          "duration": 0.011627906976745095,
          "durationTicks": 1,
          "midi": 67,
          "name": "G4",
          "ticks": 2166,
          "time": 25.186046511627907,
          "velocity": 0.5433070866141733
        },
        {
          "duration": 0.06976744186046346,
          "durationTicks": 6,
          "midi": 80,
          "name": "G#5",
          "ticks": 2167,
          "time": 25.197674418604652,
          "velocity": 0.2677165354330709
        },
        {
          "duration": 0.02325581395349019,
          "durationTicks": 2,
          "midi": 50,
          "name": "D3",
          "ticks": 2168,
          "time": 25.209302325581394,
          "velocity": 0.6220472440944882
        },
        {
          "duration": 0.12790697674418894,
          "durationTicks": 11,
          "midi": 78,
          "name": "F#5",
          "ticks": 2168,
          "time": 25.209302325581394,
          "velocity": 0.29133858267716534
        },
        {
          "duration": 0.06976744186046702,
          "durationTicks": 6,
          "midi": 71,
          "name": "B4",
          "ticks": 2169,
          "time": 25.22093023255814,
          "velocity": 0.31496062992125984
        },
        {
          "duration": 0.011627906976745095,
          "durationTicks": 1,
          "midi": 49,
          "name": "C#3",
          "ticks": 2170,
          "time": 25.232558139534884,
          "velocity": 0.5196850393700787
        },
        {
          "duration": 0.023255813953486637,
          "durationTicks": 2,
          "midi": 59,
          "name": "B3",
          "ticks": 2171,
          "time": 25.24418604651163,
          "velocity": 0.3228346456692913
        },
        {
          "duration": 0.02325581395349019,
          "durationTicks": 2,
          "midi": 49,
          "name": "C#3",
          "ticks": 2173,
          "time": 25.267441860465116,
          "velocity": 0.29133858267716534
        },
        {
          "duration": 0.02325581395349019,
          "durationTicks": 2,
          "midi": 60,
          "name": "C4",
          "ticks": 2173,
          "time": 25.267441860465116,
          "velocity": 0.3937007874015748
        },
        {
          "duration": 0.03488372093023173,
          "durationTicks": 3,
          "midi": 80,
          "name": "G#5",
          "ticks": 2174,
          "time": 25.27906976744186,
          "velocity": 0.15748031496062992
        },
        {
          "duration": 0.23255813953488058,
          "durationTicks": 20,
          "midi": 63,
          "name": "D#4",
          "ticks": 2175,
          "time": 25.290697674418606,
          "velocity": 0.6141732283464567
        },
        {
          "duration": 0.02325581395349019,
          "durationTicks": 2,
          "midi": 59,
          "name": "B3",
          "ticks": 2176,
          "time": 25.302325581395348,
          "velocity": 0.3464566929133858
        },
        {
          "duration": 0.034883720930235285,
          "durationTicks": 3,
          "midi": 73,
          "name": "C#5",
          "ticks": 2176,
          "time": 25.302325581395348,
          "velocity": 0.2047244094488189
        },
        {
          "duration": 0.03488372093023173,
          "durationTicks": 3,
          "midi": 55,
          "name": "G3",
          "ticks": 2178,
          "time": 25.325581395348838,
          "velocity": 0.25984251968503935
        },
        {
          "duration": 0.023255813953486637,
          "durationTicks": 2,
          "midi": 59,
          "name": "B3",
          "ticks": 2179,
          "time": 25.337209302325583,
          "velocity": 0.2755905511811024
        },
        {
          "duration": 0.02325581395349019,
          "durationTicks": 2,
          "midi": 68,
          "name": "G#4",
          "ticks": 2184,
          "time": 25.3953488372093,
          "velocity": 0.5590551181102362
        },
        {
          "duration": 0.034883720930235285,
          "durationTicks": 3,
          "midi": 83,
          "name": "B5",
          "ticks": 2184,
          "time": 25.3953488372093,
          "velocity": 0.23622047244094488
        },
        {
          "duration": 0.034883720930235285,
          "durationTicks": 3,
          "midi": 85,
          "name": "C#6",
          "ticks": 2184,
          "time": 25.3953488372093,
          "velocity": 0.23622047244094488
        },
        {
          "duration": 0.034883720930235285,
          "durationTicks": 3,
          "midi": 86,
          "name": "D6",
          "ticks": 2184,
          "time": 25.3953488372093,
          "velocity": 0.2440944881889764
        },
        {
          "duration": 0.011627906976745095,
          "durationTicks": 1,
          "midi": 35,
          "name": "B1",
          "ticks": 2185,
          "time": 25.406976744186046,
          "velocity": 0.6062992125984252
        },
        {
          "duration": 0.02325581395349019,
          "durationTicks": 2,
          "midi": 78,
          "name": "F#5",
          "ticks": 2185,
          "time": 25.406976744186046,
          "velocity": 0.25984251968503935
        },
        {
          "duration": 0.02325581395349019,
          "durationTicks": 2,
          "midi": 81,
          "name": "A5",
          "ticks": 2185,
          "time": 25.406976744186046,
          "velocity": 0.25196850393700787
        },
        {
          "duration": 0.02325581395349019,
          "durationTicks": 2,
          "midi": 89,
          "name": "F6",
          "ticks": 2185,
          "time": 25.406976744186046,
          "velocity": 0.23622047244094488
        },
        {
          "duration": 0.011627906976745095,
          "durationTicks": 1,
          "midi": 40,
          "name": "E2",
          "ticks": 2186,
          "time": 25.41860465116279,
          "velocity": 0.6141732283464567
        },
        {
          "duration": 0.1046511627906952,
          "durationTicks": 9,
          "midi": 67,
          "name": "G4",
          "ticks": 2186,
          "time": 25.41860465116279,
          "velocity": 0.5748031496062992
        },
        {
          "duration": 0.011627906976741542,
          "durationTicks": 1,
          "midi": 43,
          "name": "G2",
          "ticks": 2187,
          "time": 25.430232558139537,
          "velocity": 0.5275590551181102
        },
        {
          "duration": 0.03488372093023173,
          "durationTicks": 3,
          "midi": 55,
          "name": "G3",
          "ticks": 2187,
          "time": 25.430232558139537,
          "velocity": 0.5354330708661418
        },
        {
          "duration": 0.06976744186046346,
          "durationTicks": 6,
          "midi": 71,
          "name": "B4",
          "ticks": 2187,
          "time": 25.430232558139537,
          "velocity": 0.2125984251968504
        },
        {
          "duration": 0.011627906976745095,
          "durationTicks": 1,
          "midi": 42,
          "name": "F#2",
          "ticks": 2189,
          "time": 25.453488372093023,
          "velocity": 0.6062992125984252
        },
        {
          "duration": 0.02325581395349019,
          "durationTicks": 2,
          "midi": 51,
          "name": "D#3",
          "ticks": 2189,
          "time": 25.453488372093023,
          "velocity": 0.5433070866141733
        },
        {
          "duration": 0.04651162790697683,
          "durationTicks": 4,
          "midi": 41,
          "name": "F2",
          "ticks": 2190,
          "time": 25.46511627906977,
          "velocity": 0.6692913385826772
        },
        {
          "duration": 0.023255813953486637,
          "durationTicks": 2,
          "midi": 74,
          "name": "D5",
          "ticks": 2190,
          "time": 25.46511627906977,
          "velocity": 0.2677165354330709
        },
        {
          "duration": 0.02325581395349019,
          "durationTicks": 2,
          "midi": 55,
          "name": "G3",
          "ticks": 2192,
          "time": 25.488372093023255,
          "velocity": 0.3779527559055118
        },
        {
          "duration": 0.023255813953486637,
          "durationTicks": 2,
          "midi": 39,
          "name": "D#2",
          "ticks": 2194,
          "time": 25.511627906976745,
          "velocity": 0.4015748031496063
        },
        {
          "duration": 0.023255813953486637,
          "durationTicks": 2,
          "midi": 56,
          "name": "G#3",
          "ticks": 2194,
          "time": 25.511627906976745,
          "velocity": 0.33858267716535434
        },
        {
          "duration": 0.023255813953486637,
          "durationTicks": 2,
          "midi": 41,
          "name": "F2",
          "ticks": 2197,
          "time": 25.546511627906977,
          "velocity": 0.31496062992125984
        },
        {
          "duration": 0.03488372093023173,
          "durationTicks": 3,
          "midi": 56,
          "name": "G#3",
          "ticks": 2197,
          "time": 25.546511627906977,
          "velocity": 0.29133858267716534
        },
        {
          "duration": 0.04651162790697683,
          "durationTicks": 4,
          "midi": 40,
          "name": "E2",
          "ticks": 2199,
          "time": 25.569767441860463,
          "velocity": 0.2204724409448819
        },
        {
          "duration": 0.02325581395349019,
          "durationTicks": 2,
          "midi": 68,
          "name": "G#4",
          "ticks": 2204,
          "time": 25.627906976744185,
          "velocity": 0.5433070866141733
        },
        {
          "duration": 0.03488372093023173,
          "durationTicks": 3,
          "midi": 77,
          "name": "F5",
          "ticks": 2204,
          "time": 25.627906976744185,
          "velocity": 0.25196850393700787
        },
        {
          "duration": 0.03488372093023173,
          "durationTicks": 3,
          "midi": 81,
          "name": "A5",
          "ticks": 2204,
          "time": 25.627906976744185,
          "velocity": 0.2677165354330709
        },
        {
          "duration": 0.03488372093023173,
          "durationTicks": 3,
          "midi": 84,
          "name": "C6",
          "ticks": 2204,
          "time": 25.627906976744185,
          "velocity": 0.2283464566929134
        },
        {
          "duration": 0.02325581395349019,
          "durationTicks": 2,
          "midi": 87,
          "name": "D#6",
          "ticks": 2204,
          "time": 25.627906976744185,
          "velocity": 0.23622047244094488
        },
        {
          "duration": 0.09302325581395365,
          "durationTicks": 8,
          "midi": 63,
          "name": "D#4",
          "ticks": 2205,
          "time": 25.63953488372093,
          "velocity": 0.5748031496062992
        },
        {
          "duration": 0.023255813953486637,
          "durationTicks": 2,
          "midi": 86,
          "name": "D6",
          "ticks": 2205,
          "time": 25.63953488372093,
          "velocity": 0.2440944881889764
        },
        {
          "duration": 0.08139534883720856,
          "durationTicks": 7,
          "midi": 67,
          "name": "G4",
          "ticks": 2206,
          "time": 25.651162790697676,
          "velocity": 0.5590551181102362
        },
        {
          "duration": 0.05813953488371837,
          "durationTicks": 5,
          "midi": 73,
          "name": "C#5",
          "ticks": 2206,
          "time": 25.651162790697676,
          "velocity": 0.33858267716535434
        },
        {
          "duration": 0.24418604651162923,
          "durationTicks": 21,
          "midi": 80,
          "name": "G#5",
          "ticks": 2207,
          "time": 25.662790697674417,
          "velocity": 0.23622047244094488
        },
        {
          "duration": 0.02325581395349019,
          "durationTicks": 2,
          "midi": 54,
          "name": "F#3",
          "ticks": 2208,
          "time": 25.674418604651162,
          "velocity": 0.29133858267716534
        },
        {
          "duration": 0.03488372093023173,
          "durationTicks": 3,
          "midi": 55,
          "name": "G3",
          "ticks": 2210,
          "time": 25.697674418604652,
          "velocity": 0.23622047244094488
        },
        {
          "duration": 0.02325581395349019,
          "durationTicks": 2,
          "midi": 72,
          "name": "C5",
          "ticks": 2211,
          "time": 25.709302325581394,
          "velocity": 0.25984251968503935
        },
        {
          "duration": 0.13953488372093048,
          "durationTicks": 12,
          "midi": 61,
          "name": "C#4",
          "ticks": 2212,
          "time": 25.72093023255814,
          "velocity": 0.4094488188976378
        },
        {
          "duration": 0.04651162790697683,
          "durationTicks": 4,
          "midi": 54,
          "name": "F#3",
          "ticks": 2213,
          "time": 25.732558139534884,
          "velocity": 0.33070866141732286
        },
        {
          "duration": 0.03488372093023173,
          "durationTicks": 3,
          "midi": 55,
          "name": "G3",
          "ticks": 2217,
          "time": 25.77906976744186,
          "velocity": 0.28346456692913385
        },
        {
          "duration": 0.03488372093023173,
          "durationTicks": 3,
          "midi": 54,
          "name": "F#3",
          "ticks": 2220,
          "time": 25.813953488372093,
          "velocity": 0.13385826771653545
        },
        {
          "duration": 0.02325581395349019,
          "durationTicks": 2,
          "midi": 57,
          "name": "A3",
          "ticks": 2224,
          "time": 25.86046511627907,
          "velocity": 0.47244094488188976
        },
        {
          "duration": 0.02325581395349019,
          "durationTicks": 2,
          "midi": 78,
          "name": "F#5",
          "ticks": 2224,
          "time": 25.86046511627907,
          "velocity": 0.2283464566929134
        },
        {
          "duration": 0.02325581395349019,
          "durationTicks": 2,
          "midi": 81,
          "name": "A5",
          "ticks": 2224,
          "time": 25.86046511627907,
          "velocity": 0.2283464566929134
        },
        {
          "duration": 0.02325581395349019,
          "durationTicks": 2,
          "midi": 87,
          "name": "D#6",
          "ticks": 2224,
          "time": 25.86046511627907,
          "velocity": 0.23622047244094488
        },
        {
          "duration": 0.02325581395349019,
          "durationTicks": 2,
          "midi": 88,
          "name": "E6",
          "ticks": 2224,
          "time": 25.86046511627907,
          "velocity": 0.23622047244094488
        },
        {
          "duration": 0.011627906976745095,
          "durationTicks": 1,
          "midi": 40,
          "name": "E2",
          "ticks": 2225,
          "time": 25.872093023255815,
          "velocity": 0.5826771653543307
        },
        {
          "duration": 0.11627906976744029,
          "durationTicks": 10,
          "midi": 63,
          "name": "D#4",
          "ticks": 2225,
          "time": 25.872093023255815,
          "velocity": 0.5433070866141733
        },
        {
          "duration": 0.11627906976744029,
          "durationTicks": 10,
          "midi": 67,
          "name": "G4",
          "ticks": 2225,
          "time": 25.872093023255815,
          "velocity": 0.5590551181102362
        },
        {
          "duration": 0.023255813953486637,
          "durationTicks": 2,
          "midi": 72,
          "name": "C5",
          "ticks": 2225,
          "time": 25.872093023255815,
          "velocity": 0.3228346456692913
        },
        {
          "duration": 0.023255813953486637,
          "durationTicks": 2,
          "midi": 41,
          "name": "F2",
          "ticks": 2226,
          "time": 25.88372093023256,
          "velocity": 0.5905511811023622
        },
        {
          "duration": 0.12790697674418539,
          "durationTicks": 11,
          "midi": 77,
          "name": "F5",
          "ticks": 2226,
          "time": 25.88372093023256,
          "velocity": 0.3700787401574803
        },
        {
          "duration": 0.11627906976744029,
          "durationTicks": 10,
          "midi": 82,
          "name": "A#5",
          "ticks": 2226,
          "time": 25.88372093023256,
          "velocity": 0.13385826771653545
        },
        {
          "duration": 0.011627906976745095,
          "durationTicks": 1,
          "midi": 55,
          "name": "G3",
          "ticks": 2227,
          "time": 25.8953488372093,
          "velocity": 0.5196850393700787
        },
        {
          "duration": 0.011627906976745095,
          "durationTicks": 1,
          "midi": 38,
          "name": "D2",
          "ticks": 2228,
          "time": 25.906976744186046,
          "velocity": 0.5590551181102362
        },
        {
          "duration": 0.011627906976745095,
          "durationTicks": 1,
          "midi": 41,
          "name": "F2",
          "ticks": 2229,
          "time": 25.91860465116279,
          "velocity": 0.6771653543307087
        },
        {
          "duration": 0.1046511627906952,
          "durationTicks": 9,
          "midi": 84,
          "name": "C6",
          "ticks": 2229,
          "time": 25.91860465116279,
          "velocity": 0.15748031496062992
        },
        {
          "duration": 0.023255813953486637,
          "durationTicks": 2,
          "midi": 42,
          "name": "F#2",
          "ticks": 2230,
          "time": 25.930232558139537,
          "velocity": 0.6771653543307087
        },
        {
          "duration": 0.06976744186046346,
          "durationTicks": 6,
          "midi": 72,
          "name": "C5",
          "ticks": 2230,
          "time": 25.930232558139537,
          "velocity": 0.2125984251968504
        },
        {
          "duration": 0.02325581395349019,
          "durationTicks": 2,
          "midi": 52,
          "name": "E3",
          "ticks": 2231,
          "time": 25.941860465116278,
          "velocity": 0.36220472440944884
        },
        {
          "duration": 0.09302325581395365,
          "durationTicks": 8,
          "midi": 53,
          "name": "F3",
          "ticks": 2233,
          "time": 25.96511627906977,
          "velocity": 0.4015748031496063
        },
        {
          "duration": 0.10465116279069875,
          "durationTicks": 9,
          "midi": 61,
          "name": "C#4",
          "ticks": 2235,
          "time": 25.988372093023255,
          "velocity": 0.4094488188976378
        },
        {
          "duration": 0.12790697674418539,
          "durationTicks": 11,
          "midi": 80,
          "name": "G#5",
          "ticks": 2235,
          "time": 25.988372093023255,
          "velocity": 0.1968503937007874
        },
        {
          "duration": 0.023255813953486637,
          "durationTicks": 2,
          "midi": 76,
          "name": "E5",
          "ticks": 2237,
          "time": 26.011627906976745,
          "velocity": 0.2283464566929134
        },
        {
          "duration": 0.04651162790697683,
          "durationTicks": 4,
          "midi": 40,
          "name": "E2",
          "ticks": 2238,
          "time": 26.023255813953487,
          "velocity": 0.15748031496062992
        },
        {
          "duration": 0.02325581395349019,
          "durationTicks": 2,
          "midi": 68,
          "name": "G#4",
          "ticks": 2243,
          "time": 26.08139534883721,
          "velocity": 0.4881889763779528
        },
        {
          "duration": 0.13953488372093048,
          "durationTicks": 12,
          "midi": 89,
          "name": "F6",
          "ticks": 2244,
          "time": 26.093023255813954,
          "velocity": 0.1889763779527559
        },
        {
          "duration": 0.11627906976744029,
          "durationTicks": 10,
          "midi": 58,
          "name": "A#3",
          "ticks": 2245,
          "time": 26.1046511627907,
          "velocity": 0.5196850393700787
        },
        {
          "duration": 0.11627906976744029,
          "durationTicks": 10,
          "midi": 67,
          "name": "G4",
          "ticks": 2245,
          "time": 26.1046511627907,
          "velocity": 0.6062992125984252
        },
        {
          "duration": 0.04651162790697683,
          "durationTicks": 4,
          "midi": 75,
          "name": "D#5",
          "ticks": 2254,
          "time": 26.209302325581394,
          "velocity": 0.16535433070866143
        },
        {
          "duration": 0.04651162790697683,
          "durationTicks": 4,
          "midi": 80,
          "name": "G#5",
          "ticks": 2254,
          "time": 26.209302325581394,
          "velocity": 0.13385826771653545
        },
        {
          "duration": 0.04651162790697683,
          "durationTicks": 4,
          "midi": 83,
          "name": "B5",
          "ticks": 2254,
          "time": 26.209302325581394,
          "velocity": 0.2125984251968504
        },
        {
          "duration": 0.02325581395349019,
          "durationTicks": 2,
          "midi": 29,
          "name": "F1",
          "ticks": 2255,
          "time": 26.22093023255814,
          "velocity": 0.2440944881889764
        },
        {
          "duration": 0.011627906976745095,
          "durationTicks": 1,
          "midi": 57,
          "name": "A3",
          "ticks": 2255,
          "time": 26.22093023255814,
          "velocity": 0.5433070866141733
        },
        {
          "duration": 0.1976744186046524,
          "durationTicks": 17,
          "midi": 63,
          "name": "D#4",
          "ticks": 2255,
          "time": 26.22093023255814,
          "velocity": 0.6062992125984252
        },
        {
          "duration": 0.10465116279069875,
          "durationTicks": 9,
          "midi": 68,
          "name": "G#4",
          "ticks": 2255,
          "time": 26.22093023255814,
          "velocity": 0.36220472440944884
        },
        {
          "duration": 0.12790697674418539,
          "durationTicks": 11,
          "midi": 87,
          "name": "D#6",
          "ticks": 2255,
          "time": 26.22093023255814,
          "velocity": 0.28346456692913385
        },
        {
          "duration": 0.06976744186046346,
          "durationTicks": 6,
          "midi": 56,
          "name": "G#3",
          "ticks": 2256,
          "time": 26.232558139534884,
          "velocity": 0.5669291338582677
        },
        {
          "duration": 0.09302325581395365,
          "durationTicks": 8,
          "midi": 77,
          "name": "F5",
          "ticks": 2257,
          "time": 26.24418604651163,
          "velocity": 0.2755905511811024
        },
        {
          "duration": 0.08139534883721211,
          "durationTicks": 7,
          "midi": 84,
          "name": "C6",
          "ticks": 2258,
          "time": 26.25581395348837,
          "velocity": 0.2677165354330709
        },
        {
          "duration": 0.011627906976745095,
          "durationTicks": 1,
          "midi": 55,
          "name": "G3",
          "ticks": 2262,
          "time": 26.302325581395348,
          "velocity": 0.5748031496062992
        },
        {
          "duration": 0.011627906976745095,
          "durationTicks": 1,
          "midi": 56,
          "name": "G#3",
          "ticks": 2263,
          "time": 26.313953488372093,
          "velocity": 0.5354330708661418
        },
        {
          "duration": 0.13953488372093048,
          "durationTicks": 12,
          "midi": 67,
          "name": "G4",
          "ticks": 2263,
          "time": 26.313953488372093,
          "velocity": 0.5433070866141733
        },
        {
          "duration": 0.03488372093023173,
          "durationTicks": 3,
          "midi": 85,
          "name": "C#6",
          "ticks": 2263,
          "time": 26.313953488372093,
          "velocity": 0.25984251968503935
        },
        {
          "duration": 0.03488372093023173,
          "durationTicks": 3,
          "midi": 88,
          "name": "E6",
          "ticks": 2263,
          "time": 26.313953488372093,
          "velocity": 0.25196850393700787
        },
        {
          "duration": 0.04651162790697683,
          "durationTicks": 4,
          "midi": 89,
          "name": "F6",
          "ticks": 2263,
          "time": 26.313953488372093,
          "velocity": 0.2755905511811024
        },
        {
          "duration": 0.011627906976745095,
          "durationTicks": 1,
          "midi": 35,
          "name": "B1",
          "ticks": 2264,
          "time": 26.325581395348838,
          "velocity": 0.5433070866141733
        },
        {
          "duration": 0.023255813953486637,
          "durationTicks": 2,
          "midi": 74,
          "name": "D5",
          "ticks": 2264,
          "time": 26.325581395348838,
          "velocity": 0.2992125984251969
        },
        {
          "duration": 0.023255813953486637,
          "durationTicks": 2,
          "midi": 78,
          "name": "F#5",
          "ticks": 2264,
          "time": 26.325581395348838,
          "velocity": 0.25984251968503935
        },
        {
          "duration": 0.023255813953486637,
          "durationTicks": 2,
          "midi": 82,
          "name": "A#5",
          "ticks": 2264,
          "time": 26.325581395348838,
          "velocity": 0.25984251968503935
        },
        {
          "duration": 0.011627906976741542,
          "durationTicks": 1,
          "midi": 40,
          "name": "E2",
          "ticks": 2265,
          "time": 26.337209302325583,
          "velocity": 0.6141732283464567
        },
        {
          "duration": 0.08139534883720856,
          "durationTicks": 7,
          "midi": 72,
          "name": "C5",
          "ticks": 2265,
          "time": 26.337209302325583,
          "velocity": 0.25196850393700787
        },
        {
          "duration": 0.023255813953486637,
          "durationTicks": 2,
          "midi": 76,
          "name": "E5",
          "ticks": 2265,
          "time": 26.337209302325583,
          "velocity": 0.23622047244094488
        },
        {
          "duration": 0.011627906976745095,
          "durationTicks": 1,
          "midi": 41,
          "name": "F2",
          "ticks": 2266,
          "time": 26.348837209302324,
          "velocity": 0.5748031496062992
        },
        {
          "duration": 0.011627906976745095,
          "durationTicks": 1,
          "midi": 55,
          "name": "G3",
          "ticks": 2266,
          "time": 26.348837209302324,
          "velocity": 0.5669291338582677
        },
        {
          "duration": 0.011627906976745095,
          "durationTicks": 1,
          "midi": 53,
          "name": "F3",
          "ticks": 2267,
          "time": 26.36046511627907,
          "velocity": 0.6062992125984252
        },
        {
          "duration": 0.03488372093023173,
          "durationTicks": 3,
          "midi": 77,
          "name": "F5",
          "ticks": 2267,
          "time": 26.36046511627907,
          "velocity": 0.1968503937007874
        },
        {
          "duration": 0.011627906976745095,
          "durationTicks": 1,
          "midi": 39,
          "name": "D#2",
          "ticks": 2268,
          "time": 26.372093023255815,
          "velocity": 0.6141732283464567
        },
        {
          "duration": 0.011627906976745095,
          "durationTicks": 1,
          "midi": 52,
          "name": "E3",
          "ticks": 2268,
          "time": 26.372093023255815,
          "velocity": 0.6062992125984252
        },
        {
          "duration": 0.011627906976741542,
          "durationTicks": 1,
          "midi": 41,
          "name": "F2",
          "ticks": 2269,
          "time": 26.38372093023256,
          "velocity": 0.6850393700787402
        },
        {
          "duration": 0.13953488372092693,
          "durationTicks": 12,
          "midi": 51,
          "name": "D#3",
          "ticks": 2269,
          "time": 26.38372093023256,
          "velocity": 0.5511811023622047
        },
        {
          "duration": 0.02325581395349019,
          "durationTicks": 2,
          "midi": 42,
          "name": "F#2",
          "ticks": 2270,
          "time": 26.3953488372093,
          "velocity": 0.6614173228346457
        },
        {
          "duration": 0.023255813953486637,
          "durationTicks": 2,
          "midi": 40,
          "name": "E2",
          "ticks": 2276,
          "time": 26.46511627906977,
          "velocity": 0.2440944881889764
        },
        {
          "duration": 0.03488372093023173,
          "durationTicks": 3,
          "midi": 40,
          "name": "E2",
          "ticks": 2279,
          "time": 26.5,
          "velocity": 0.1732283464566929
        },
        {
          "duration": 0.04651162790697683,
          "durationTicks": 4,
          "midi": 73,
          "name": "C#5",
          "ticks": 2283,
          "time": 26.546511627906977,
          "velocity": 0.2992125984251969
        },
        {
          "duration": 0.03488372093023173,
          "durationTicks": 3,
          "midi": 80,
          "name": "G#5",
          "ticks": 2283,
          "time": 26.546511627906977,
          "velocity": 0.25984251968503935
        },
        {
          "duration": 0.03488372093023173,
          "durationTicks": 3,
          "midi": 81,
          "name": "A5",
          "ticks": 2283,
          "time": 26.546511627906977,
          "velocity": 0.2204724409448819
        },
        {
          "duration": 0.11627906976744029,
          "durationTicks": 10,
          "midi": 63,
          "name": "D#4",
          "ticks": 2284,
          "time": 26.558139534883722,
          "velocity": 0.5984251968503937
        },
        {
          "duration": 0.04651162790697683,
          "durationTicks": 4,
          "midi": 83,
          "name": "B5",
          "ticks": 2284,
          "time": 26.558139534883722,
          "velocity": 0.2125984251968504
        },
        {
          "duration": 0.023255813953486637,
          "durationTicks": 2,
          "midi": 86,
          "name": "D6",
          "ticks": 2284,
          "time": 26.558139534883722,
          "velocity": 0.25196850393700787
        },
        {
          "duration": 0.02325581395349019,
          "durationTicks": 2,
          "midi": 48,
          "name": "C3",
          "ticks": 2285,
          "time": 26.569767441860463,
          "velocity": 0.5826771653543307
        },
        {
          "duration": 0.04651162790697683,
          "durationTicks": 4,
          "midi": 55,
          "name": "G3",
          "ticks": 2285,
          "time": 26.569767441860463,
          "velocity": 0.5669291338582677
        },
        {
          "duration": 0.23255813953488413,
          "durationTicks": 20,
          "midi": 77,
          "name": "F5",
          "ticks": 2285,
          "time": 26.569767441860463,
          "velocity": 0.3779527559055118
        },
        {
          "duration": 0.11627906976744384,
          "durationTicks": 10,
          "midi": 70,
          "name": "A#4",
          "ticks": 2286,
          "time": 26.58139534883721,
          "velocity": 0.25984251968503935
        },
        {
          "duration": 0.04651162790697683,
          "durationTicks": 4,
          "midi": 49,
          "name": "C#3",
          "ticks": 2287,
          "time": 26.593023255813954,
          "velocity": 0.5984251968503937
        },
        {
          "duration": 0.10465116279069875,
          "durationTicks": 9,
          "midi": 72,
          "name": "C5",
          "ticks": 2287,
          "time": 26.593023255813954,
          "velocity": 0.30708661417322836
        },
        {
          "duration": 0.03488372093023173,
          "durationTicks": 3,
          "midi": 80,
          "name": "G#5",
          "ticks": 2288,
          "time": 26.6046511627907,
          "velocity": 0.09448818897637795
        },
        {
          "duration": 0.011627906976745095,
          "durationTicks": 1,
          "midi": 55,
          "name": "G3",
          "ticks": 2291,
          "time": 26.63953488372093,
          "velocity": 0.5196850393700787
        },
        {
          "duration": 0.023255813953486637,
          "durationTicks": 2,
          "midi": 54,
          "name": "F#3",
          "ticks": 2292,
          "time": 26.651162790697676,
          "velocity": 0.5118110236220472
        },
        {
          "duration": 0.04651162790697683,
          "durationTicks": 4,
          "midi": 58,
          "name": "A#3",
          "ticks": 2293,
          "time": 26.662790697674417,
          "velocity": 0.3858267716535433
        },
        {
          "duration": 0.03488372093023173,
          "durationTicks": 3,
          "midi": 53,
          "name": "F3",
          "ticks": 2294,
          "time": 26.674418604651162,
          "velocity": 0.47244094488188976
        },
        {
          "duration": 0.04651162790697683,
          "durationTicks": 4,
          "midi": 63,
          "name": "D#4",
          "ticks": 2295,
          "time": 26.686046511627907,
          "velocity": 0.2440944881889764
        },
        {
          "duration": 0.02325581395349019,
          "durationTicks": 2,
          "midi": 54,
          "name": "F#3",
          "ticks": 2297,
          "time": 26.709302325581394,
          "velocity": 0.4015748031496063
        },
        {
          "duration": 0.03488372093023173,
          "durationTicks": 3,
          "midi": 54,
          "name": "F#3",
          "ticks": 2300,
          "time": 26.74418604651163,
          "velocity": 0.2440944881889764
        },
        {
          "duration": 0.023255813953486637,
          "durationTicks": 2,
          "midi": 58,
          "name": "A#3",
          "ticks": 2303,
          "time": 26.77906976744186,
          "velocity": 0.4409448818897638
        },
        {
          "duration": 0.03488372093023173,
          "durationTicks": 3,
          "midi": 81,
          "name": "A5",
          "ticks": 2303,
          "time": 26.77906976744186,
          "velocity": 0.1732283464566929
        },
        {
          "duration": 0.03488372093023173,
          "durationTicks": 3,
          "midi": 85,
          "name": "C#6",
          "ticks": 2303,
          "time": 26.77906976744186,
          "velocity": 0.18110236220472442
        },
        {
          "duration": 0.03488372093023173,
          "durationTicks": 3,
          "midi": 86,
          "name": "D6",
          "ticks": 2303,
          "time": 26.77906976744186,
          "velocity": 0.1889763779527559
        },
        {
          "duration": 0.011627906976741542,
          "durationTicks": 1,
          "midi": 36,
          "name": "C2",
          "ticks": 2304,
          "time": 26.790697674418606,
          "velocity": 0.5511811023622047
        },
        {
          "duration": 0.011627906976741542,
          "durationTicks": 1,
          "midi": 62,
          "name": "D4",
          "ticks": 2304,
          "time": 26.790697674418606,
          "velocity": 0.5354330708661418
        },
        {
          "duration": 0.02325581395349019,
          "durationTicks": 2,
          "midi": 41,
          "name": "F2",
          "ticks": 2305,
          "time": 26.802325581395348,
          "velocity": 0.6220472440944882
        },
        {
          "duration": 0.02325581395349019,
          "durationTicks": 2,
          "midi": 57,
          "name": "A3",
          "ticks": 2305,
          "time": 26.802325581395348,
          "velocity": 0.5433070866141733
        },
        {
          "duration": 0.11627906976744384,
          "durationTicks": 10,
          "midi": 63,
          "name": "D#4",
          "ticks": 2305,
          "time": 26.802325581395348,
          "velocity": 0.5826771653543307
        },
        {
          "duration": 0.11627906976744384,
          "durationTicks": 10,
          "midi": 67,
          "name": "G4",
          "ticks": 2305,
          "time": 26.802325581395348,
          "velocity": 0.5511811023622047
        },
        {
          "duration": 0.06976744186046702,
          "durationTicks": 6,
          "midi": 72,
          "name": "C5",
          "ticks": 2305,
          "time": 26.802325581395348,
          "velocity": 0.25984251968503935
        },
        {
          "duration": 0.011627906976745095,
          "durationTicks": 1,
          "midi": 55,
          "name": "G3",
          "ticks": 2307,
          "time": 26.825581395348838,
          "velocity": 0.5275590551181102
        },
        {
          "duration": 0.011627906976741542,
          "durationTicks": 1,
          "midi": 40,
          "name": "E2",
          "ticks": 2308,
          "time": 26.837209302325583,
          "velocity": 0.6535433070866141
        },
        {
          "duration": 0.034883720930235285,
          "durationTicks": 3,
          "midi": 42,
          "name": "F#2",
          "ticks": 2309,
          "time": 26.848837209302324,
          "velocity": 0.7007874015748031
        },
        {
          "duration": 0.011627906976745095,
          "durationTicks": 1,
          "midi": 55,
          "name": "G3",
          "ticks": 2309,
          "time": 26.848837209302324,
          "velocity": 0.5275590551181102
        },
        {
          "duration": 0.04651162790697683,
          "durationTicks": 4,
          "midi": 53,
          "name": "F3",
          "ticks": 2310,
          "time": 26.86046511627907,
          "velocity": 0.41732283464566927
        },
        {
          "duration": 0.02325581395349019,
          "durationTicks": 2,
          "midi": 41,
          "name": "F2",
          "ticks": 2314,
          "time": 26.906976744186046,
          "velocity": 0.3858267716535433
        },
        {
          "duration": 0.03488372093023173,
          "durationTicks": 3,
          "midi": 40,
          "name": "E2",
          "ticks": 2318,
          "time": 26.953488372093023,
          "velocity": 0.16535433070866143
        },
        {
          "duration": 0.03488372093023173,
          "durationTicks": 3,
          "midi": 55,
          "name": "G3",
          "ticks": 2323,
          "time": 27.011627906976745,
          "velocity": 0.4881889763779528
        },
        {
          "duration": 0.023255813953486637,
          "durationTicks": 2,
          "midi": 68,
          "name": "G#4",
          "ticks": 2323,
          "time": 27.011627906976745,
          "velocity": 0.5275590551181102
        },
        {
          "duration": 0.023255813953486637,
          "durationTicks": 2,
          "midi": 76,
          "name": "E5",
          "ticks": 2323,
          "time": 27.011627906976745,
          "velocity": 0.2755905511811024
        },
        {
          "duration": 0.03488372093023173,
          "durationTicks": 3,
          "midi": 87,
          "name": "D#6",
          "ticks": 2323,
          "time": 27.011627906976745,
          "velocity": 0.1968503937007874
        },
        {
          "duration": 0.02325581395349019,
          "durationTicks": 2,
          "midi": 65,
          "name": "F4",
          "ticks": 2324,
          "time": 27.023255813953487,
          "velocity": 0.5905511811023622
        },
        {
          "duration": 0.04651162790697683,
          "durationTicks": 4,
          "midi": 73,
          "name": "C#5",
          "ticks": 2324,
          "time": 27.023255813953487,
          "velocity": 0.30708661417322836
        },
        {
          "duration": 0.034883720930235285,
          "durationTicks": 3,
          "midi": 81,
          "name": "A5",
          "ticks": 2324,
          "time": 27.023255813953487,
          "velocity": 0.1889763779527559
        },
        {
          "duration": 0.011627906976745095,
          "durationTicks": 1,
          "midi": 48,
          "name": "C3",
          "ticks": 2325,
          "time": 27.03488372093023,
          "velocity": 0.5669291338582677
        },
        {
          "duration": 0.03488372093023173,
          "durationTicks": 3,
          "midi": 61,
          "name": "C#4",
          "ticks": 2325,
          "time": 27.03488372093023,
          "velocity": 0.3937007874015748
        },
        {
          "duration": 0.011627906976745095,
          "durationTicks": 1,
          "midi": 67,
          "name": "G4",
          "ticks": 2325,
          "time": 27.03488372093023,
          "velocity": 0.5590551181102362
        },
        {
          "duration": 0.05813953488372192,
          "durationTicks": 5,
          "midi": 49,
          "name": "C#3",
          "ticks": 2326,
          "time": 27.046511627906977,
          "velocity": 0.5905511811023622
        },
        {
          "duration": 0.03488372093023173,
          "durationTicks": 3,
          "midi": 54,
          "name": "F#3",
          "ticks": 2326,
          "time": 27.046511627906977,
          "velocity": 0.5118110236220472
        },
        {
          "duration": 0.011627906976745095,
          "durationTicks": 1,
          "midi": 66,
          "name": "F#4",
          "ticks": 2326,
          "time": 27.046511627906977,
          "velocity": 0.6141732283464567
        },
        {
          "duration": 0.023255813953486637,
          "durationTicks": 2,
          "midi": 40,
          "name": "E2",
          "ticks": 2327,
          "time": 27.058139534883722,
          "velocity": 0.33070866141732286
        },
        {
          "duration": 0.023255813953486637,
          "durationTicks": 2,
          "midi": 58,
          "name": "A#3",
          "ticks": 2327,
          "time": 27.058139534883722,
          "velocity": 0.4330708661417323
        },
        {
          "duration": 0.08139534883720856,
          "durationTicks": 7,
          "midi": 65,
          "name": "F4",
          "ticks": 2327,
          "time": 27.058139534883722,
          "velocity": 0.5354330708661418
        },
        {
          "duration": 0.09302325581395365,
          "durationTicks": 8,
          "midi": 72,
          "name": "C5",
          "ticks": 2327,
          "time": 27.058139534883722,
          "velocity": 0.25196850393700787
        },
        {
          "duration": 0.011627906976745095,
          "durationTicks": 1,
          "midi": 53,
          "name": "F3",
          "ticks": 2330,
          "time": 27.093023255813954,
          "velocity": 0.5275590551181102
        },
        {
          "duration": 0.03488372093023173,
          "durationTicks": 3,
          "midi": 80,
          "name": "G#5",
          "ticks": 2333,
          "time": 27.127906976744185,
          "velocity": 0.1889763779527559
        },
        {
          "duration": 0.03488372093023173,
          "durationTicks": 3,
          "midi": 85,
          "name": "C#6",
          "ticks": 2333,
          "time": 27.127906976744185,
          "velocity": 0.16535433070866143
        },
        {
          "duration": 0.03488372093023173,
          "durationTicks": 3,
          "midi": 53,
          "name": "F3",
          "ticks": 2334,
          "time": 27.13953488372093,
          "velocity": 0.4566929133858268
        },
        {
          "duration": 0.03488372093023173,
          "durationTicks": 3,
          "midi": 58,
          "name": "A#3",
          "ticks": 2334,
          "time": 27.13953488372093,
          "velocity": 0.3858267716535433
        },
        {
          "duration": 0.22093023255813904,
          "durationTicks": 19,
          "midi": 63,
          "name": "D#4",
          "ticks": 2334,
          "time": 27.13953488372093,
          "velocity": 0.6220472440944882
        },
        {
          "duration": 0.03488372093023173,
          "durationTicks": 3,
          "midi": 76,
          "name": "E5",
          "ticks": 2334,
          "time": 27.13953488372093,
          "velocity": 0.2125984251968504
        },
        {
          "duration": 0.04651162790697683,
          "durationTicks": 4,
          "midi": 72,
          "name": "C5",
          "ticks": 2336,
          "time": 27.162790697674417,
          "velocity": 0.14173228346456693
        },
        {
          "duration": 0.02325581395349019,
          "durationTicks": 2,
          "midi": 54,
          "name": "F#3",
          "ticks": 2337,
          "time": 27.174418604651162,
          "velocity": 0.33070866141732286
        },
        {
          "duration": 0.03488372093023173,
          "durationTicks": 3,
          "midi": 77,
          "name": "F5",
          "ticks": 2337,
          "time": 27.174418604651162,
          "velocity": 0.16535433070866143
        },
        {
          "duration": 0.023255813953486637,
          "durationTicks": 2,
          "midi": 74,
          "name": "D5",
          "ticks": 2343,
          "time": 27.24418604651163,
          "velocity": 0.30708661417322836
        },
        {
          "duration": 0.023255813953486637,
          "durationTicks": 2,
          "midi": 80,
          "name": "G#5",
          "ticks": 2343,
          "time": 27.24418604651163,
          "velocity": 0.2283464566929134
        },
        {
          "duration": 0.011627906976745095,
          "durationTicks": 1,
          "midi": 36,
          "name": "C2",
          "ticks": 2344,
          "time": 27.25581395348837,
          "velocity": 0.6220472440944882
        },
        {
          "duration": 0.02325581395349019,
          "durationTicks": 2,
          "midi": 50,
          "name": "D3",
          "ticks": 2344,
          "time": 27.25581395348837,
          "velocity": 0.5826771653543307
        },
        {
          "duration": 0.09302325581395365,
          "durationTicks": 8,
          "midi": 67,
          "name": "G4",
          "ticks": 2344,
          "time": 27.25581395348837,
          "velocity": 0.5590551181102362
        },
        {
          "duration": 0.02325581395349019,
          "durationTicks": 2,
          "midi": 76,
          "name": "E5",
          "ticks": 2344,
          "time": 27.25581395348837,
          "velocity": 0.2283464566929134
        },
        {
          "duration": 0.02325581395349019,
          "durationTicks": 2,
          "midi": 78,
          "name": "F#5",
          "ticks": 2344,
          "time": 27.25581395348837,
          "velocity": 0.25984251968503935
        },
        {
          "duration": 0.011627906976745095,
          "durationTicks": 1,
          "midi": 30,
          "name": "F#1",
          "ticks": 2345,
          "time": 27.267441860465116,
          "velocity": 0.5590551181102362
        },
        {
          "duration": 0.011627906976745095,
          "durationTicks": 1,
          "midi": 40,
          "name": "E2",
          "ticks": 2345,
          "time": 27.267441860465116,
          "velocity": 0.6141732283464567
        },
        {
          "duration": 0.06976744186046702,
          "durationTicks": 6,
          "midi": 72,
          "name": "C5",
          "ticks": 2345,
          "time": 27.267441860465116,
          "velocity": 0.2047244094488189
        },
        {
          "duration": 0.05813953488372192,
          "durationTicks": 5,
          "midi": 82,
          "name": "A#5",
          "ticks": 2345,
          "time": 27.267441860465116,
          "velocity": 0.10236220472440945
        },
        {
          "duration": 0.011627906976745095,
          "durationTicks": 1,
          "midi": 44,
          "name": "G#2",
          "ticks": 2346,
          "time": 27.27906976744186,
          "velocity": 0.5433070866141733
        },
        {
          "duration": 0.03488372093023173,
          "durationTicks": 3,
          "midi": 51,
          "name": "D#3",
          "ticks": 2346,
          "time": 27.27906976744186,
          "velocity": 0.7007874015748031
        },
        {
          "duration": 0.023255813953486637,
          "durationTicks": 2,
          "midi": 56,
          "name": "G#3",
          "ticks": 2347,
          "time": 27.290697674418606,
          "velocity": 0.47244094488188976
        },
        {
          "duration": 0.011627906976745095,
          "durationTicks": 1,
          "midi": 40,
          "name": "E2",
          "ticks": 2348,
          "time": 27.302325581395348,
          "velocity": 0.6456692913385826
        },
        {
          "duration": 0.09302325581395365,
          "durationTicks": 8,
          "midi": 80,
          "name": "G#5",
          "ticks": 2348,
          "time": 27.302325581395348,
          "velocity": 0.18110236220472442
        },
        {
          "duration": 0.02325581395349019,
          "durationTicks": 2,
          "midi": 42,
          "name": "F#2",
          "ticks": 2349,
          "time": 27.313953488372093,
          "velocity": 0.6692913385826772
        },
        {
          "duration": 0.023255813953486637,
          "durationTicks": 2,
          "midi": 56,
          "name": "G#3",
          "ticks": 2350,
          "time": 27.325581395348838,
          "velocity": 0.3228346456692913
        },
        {
          "duration": 0.011627906976741542,
          "durationTicks": 1,
          "midi": 41,
          "name": "F2",
          "ticks": 2351,
          "time": 27.337209302325583,
          "velocity": 0.5275590551181102
        },
        {
          "duration": 0.06976744186046702,
          "durationTicks": 6,
          "midi": 50,
          "name": "D3",
          "ticks": 2352,
          "time": 27.348837209302324,
          "velocity": 0.47244094488188976
        },
        {
          "duration": 0.08139534883721211,
          "durationTicks": 7,
          "midi": 68,
          "name": "G#4",
          "ticks": 2352,
          "time": 27.348837209302324,
          "velocity": 0.2047244094488189
        },
        {
          "duration": 0.03488372093023173,
          "durationTicks": 3,
          "midi": 41,
          "name": "F2",
          "ticks": 2354,
          "time": 27.372093023255815,
          "velocity": 0.36220472440944884
        },
        {
          "duration": 0.023255813953486637,
          "durationTicks": 2,
          "midi": 61,
          "name": "C#4",
          "ticks": 2354,
          "time": 27.372093023255815,
          "velocity": 0.2440944881889764
        },
        {
          "duration": 0.034883720930235285,
          "durationTicks": 3,
          "midi": 39,
          "name": "D#2",
          "ticks": 2360,
          "time": 27.441860465116278,
          "velocity": 0.1889763779527559
        },
        {
          "duration": 0.023255813953486637,
          "durationTicks": 2,
          "midi": 68,
          "name": "G#4",
          "ticks": 2363,
          "time": 27.476744186046513,
          "velocity": 0.5590551181102362
        },
        {
          "duration": 0.03488372093023173,
          "durationTicks": 3,
          "midi": 77,
          "name": "F5",
          "ticks": 2363,
          "time": 27.476744186046513,
          "velocity": 0.29133858267716534
        },
        {
          "duration": 0.03488372093023173,
          "durationTicks": 3,
          "midi": 87,
          "name": "D#6",
          "ticks": 2363,
          "time": 27.476744186046513,
          "velocity": 0.2677165354330709
        },
        {
          "duration": 0.22093023255813904,
          "durationTicks": 19,
          "midi": 58,
          "name": "A#3",
          "ticks": 2364,
          "time": 27.488372093023255,
          "velocity": 0.4881889763779528
        },
        {
          "duration": 0.12790697674418539,
          "durationTicks": 11,
          "midi": 63,
          "name": "D#4",
          "ticks": 2364,
          "time": 27.488372093023255,
          "velocity": 0.5748031496062992
        },
        {
          "duration": 0.02325581395349019,
          "durationTicks": 2,
          "midi": 72,
          "name": "C5",
          "ticks": 2364,
          "time": 27.488372093023255,
          "velocity": 0.29133858267716534
        },
        {
          "duration": 0.02325581395349019,
          "durationTicks": 2,
          "midi": 86,
          "name": "D6",
          "ticks": 2364,
          "time": 27.488372093023255,
          "velocity": 0.25984251968503935
        },
        {
          "duration": 0.02325581395349019,
          "durationTicks": 2,
          "midi": 88,
          "name": "E6",
          "ticks": 2364,
          "time": 27.488372093023255,
          "velocity": 0.25984251968503935
        },
        {
          "duration": 0.023255813953486637,
          "durationTicks": 2,
          "midi": 40,
          "name": "E2",
          "ticks": 2365,
          "time": 27.5,
          "velocity": 0.25984251968503935
        },
        {
          "duration": 0.023255813953486637,
          "durationTicks": 2,
          "midi": 52,
          "name": "E3",
          "ticks": 2365,
          "time": 27.5,
          "velocity": 0.33858267716535434
        },
        {
          "duration": 0.09302325581395365,
          "durationTicks": 8,
          "midi": 67,
          "name": "G4",
          "ticks": 2365,
          "time": 27.5,
          "velocity": 0.5669291338582677
        },
        {
          "duration": 0.12790697674418894,
          "durationTicks": 11,
          "midi": 53,
          "name": "F3",
          "ticks": 2367,
          "time": 27.523255813953487,
          "velocity": 0.4015748031496063
        },
        {
          "duration": 0.11627906976744384,
          "durationTicks": 10,
          "midi": 84,
          "name": "C6",
          "ticks": 2367,
          "time": 27.523255813953487,
          "velocity": 0.23622047244094488
        },
        {
          "duration": 0.03488372093023173,
          "durationTicks": 3,
          "midi": 63,
          "name": "D#4",
          "ticks": 2377,
          "time": 27.63953488372093,
          "velocity": 0.10236220472440945
        },
        {
          "duration": 0.06976744186046346,
          "durationTicks": 6,
          "midi": 77,
          "name": "F5",
          "ticks": 2377,
          "time": 27.63953488372093,
          "velocity": 0.14960629921259844
        },
        {
          "duration": 0.034883720930235285,
          "durationTicks": 3,
          "midi": 76,
          "name": "E5",
          "ticks": 2383,
          "time": 27.709302325581394,
          "velocity": 0.25196850393700787
        },
        {
          "duration": 0.034883720930235285,
          "durationTicks": 3,
          "midi": 78,
          "name": "F#5",
          "ticks": 2383,
          "time": 27.709302325581394,
          "velocity": 0.23622047244094488
        },
        {
          "duration": 0.02325581395349019,
          "durationTicks": 2,
          "midi": 35,
          "name": "B1",
          "ticks": 2384,
          "time": 27.72093023255814,
          "velocity": 0.5905511811023622
        },
        {
          "duration": 0.06976744186046702,
          "durationTicks": 6,
          "midi": 63,
          "name": "D#4",
          "ticks": 2384,
          "time": 27.72093023255814,
          "velocity": 0.5905511811023622
        },
        {
          "duration": 0.09302325581395365,
          "durationTicks": 8,
          "midi": 68,
          "name": "G#4",
          "ticks": 2384,
          "time": 27.72093023255814,
          "velocity": 0.5669291338582677
        },
        {
          "duration": 0.03488372093023173,
          "durationTicks": 3,
          "midi": 74,
          "name": "D5",
          "ticks": 2384,
          "time": 27.72093023255814,
          "velocity": 0.2440944881889764
        },
        {
          "duration": 0.023255813953486637,
          "durationTicks": 2,
          "midi": 44,
          "name": "G#2",
          "ticks": 2385,
          "time": 27.732558139534884,
          "velocity": 0.5354330708661418
        },
        {
          "duration": 0.05813953488372192,
          "durationTicks": 5,
          "midi": 51,
          "name": "D#3",
          "ticks": 2385,
          "time": 27.732558139534884,
          "velocity": 0.5196850393700787
        },
        {
          "duration": 0.03488372093023173,
          "durationTicks": 3,
          "midi": 55,
          "name": "G3",
          "ticks": 2385,
          "time": 27.732558139534884,
          "velocity": 0.5354330708661418
        },
        {
          "duration": 0.02325581395349019,
          "durationTicks": 2,
          "midi": 42,
          "name": "F#2",
          "ticks": 2387,
          "time": 27.75581395348837,
          "velocity": 0.6535433070866141
        },
        {
          "duration": 0.06976744186046702,
          "durationTicks": 6,
          "midi": 73,
          "name": "C#5",
          "ticks": 2388,
          "time": 27.767441860465116,
          "velocity": 0.2440944881889764
        },
        {
          "duration": 0.023255813953486637,
          "durationTicks": 2,
          "midi": 41,
          "name": "F2",
          "ticks": 2389,
          "time": 27.77906976744186,
          "velocity": 0.6062992125984252
        },
        {
          "duration": 0.034883720930235285,
          "durationTicks": 3,
          "midi": 56,
          "name": "G#3",
          "ticks": 2391,
          "time": 27.802325581395348,
          "velocity": 0.4251968503937008
        },
        {
          "duration": 0.023255813953486637,
          "durationTicks": 2,
          "midi": 41,
          "name": "F2",
          "ticks": 2393,
          "time": 27.825581395348838,
          "velocity": 0.3464566929133858
        },
        {
          "duration": 0.18604651162790375,
          "durationTicks": 16,
          "midi": 71,
          "name": "B4",
          "ticks": 2394,
          "time": 27.837209302325583,
          "velocity": 0.3937007874015748
        },
        {
          "duration": 0.10465116279069875,
          "durationTicks": 9,
          "midi": 59,
          "name": "B3",
          "ticks": 2396,
          "time": 27.86046511627907,
          "velocity": 0.4881889763779528
        },
        {
          "duration": 0.03488372093023173,
          "durationTicks": 3,
          "midi": 78,
          "name": "F#5",
          "ticks": 2402,
          "time": 27.930232558139537,
          "velocity": 0.2204724409448819
        },
        {
          "duration": 0.13953488372093048,
          "durationTicks": 12,
          "midi": 87,
          "name": "D#6",
          "ticks": 2403,
          "time": 27.941860465116278,
          "velocity": 0.2047244094488189
        },
        {
          "duration": 0.06976744186046346,
          "durationTicks": 6,
          "midi": 68,
          "name": "G#4",
          "ticks": 2404,
          "time": 27.953488372093023,
          "velocity": 0.5354330708661418
        },
        {
          "duration": 0.1046511627906952,
          "durationTicks": 9,
          "midi": 56,
          "name": "G#3",
          "ticks": 2405,
          "time": 27.96511627906977,
          "velocity": 0.5590551181102362
        },
        {
          "duration": 0.03488372093023173,
          "durationTicks": 3,
          "midi": 40,
          "name": "E2",
          "ticks": 2407,
          "time": 27.988372093023255,
          "velocity": 0.2204724409448819
        },
        {
          "duration": 0.04651162790697683,
          "durationTicks": 4,
          "midi": 74,
          "name": "D5",
          "ticks": 2413,
          "time": 28.058139534883722,
          "velocity": 0.2204724409448819
        },
        {
          "duration": 0.11627906976744029,
          "durationTicks": 10,
          "midi": 86,
          "name": "D6",
          "ticks": 2413,
          "time": 28.058139534883722,
          "velocity": 0.25196850393700787
        },
        {
          "duration": 0.02325581395349019,
          "durationTicks": 2,
          "midi": 29,
          "name": "F1",
          "ticks": 2414,
          "time": 28.069767441860463,
          "velocity": 0.25196850393700787
        },
        {
          "duration": 0.10465116279069875,
          "durationTicks": 9,
          "midi": 55,
          "name": "G3",
          "ticks": 2414,
          "time": 28.069767441860463,
          "velocity": 0.6220472440944882
        },
        {
          "duration": 0.09302325581395365,
          "durationTicks": 8,
          "midi": 63,
          "name": "D#4",
          "ticks": 2414,
          "time": 28.069767441860463,
          "velocity": 0.5984251968503937
        },
        {
          "duration": 0.05813953488371837,
          "durationTicks": 5,
          "midi": 73,
          "name": "C#5",
          "ticks": 2417,
          "time": 28.1046511627907,
          "velocity": 0.12598425196850394
        },
        {
          "duration": 0.02325581395349019,
          "durationTicks": 2,
          "midi": 61,
          "name": "C#4",
          "ticks": 2422,
          "time": 28.162790697674417,
          "velocity": 0.5354330708661418
        },
        {
          "duration": 0.034883720930235285,
          "durationTicks": 3,
          "midi": 81,
          "name": "A5",
          "ticks": 2422,
          "time": 28.162790697674417,
          "velocity": 0.23622047244094488
        },
        {
          "duration": 0.034883720930235285,
          "durationTicks": 3,
          "midi": 83,
          "name": "B5",
          "ticks": 2422,
          "time": 28.162790697674417,
          "velocity": 0.23622047244094488
        },
        {
          "duration": 0.13953488372093048,
          "durationTicks": 12,
          "midi": 85,
          "name": "C#6",
          "ticks": 2422,
          "time": 28.162790697674417,
          "velocity": 0.23622047244094488
        },
        {
          "duration": 0.02325581395349019,
          "durationTicks": 2,
          "midi": 35,
          "name": "B1",
          "ticks": 2423,
          "time": 28.174418604651162,
          "velocity": 0.5905511811023622
        },
        {
          "duration": 0.011627906976745095,
          "durationTicks": 1,
          "midi": 54,
          "name": "F#3",
          "ticks": 2423,
          "time": 28.174418604651162,
          "velocity": 0.6062992125984252
        },
        {
          "duration": 0.03488372093023173,
          "durationTicks": 3,
          "midi": 76,
          "name": "E5",
          "ticks": 2423,
          "time": 28.174418604651162,
          "velocity": 0.2677165354330709
        },
        {
          "duration": 0.011627906976745095,
          "durationTicks": 1,
          "midi": 50,
          "name": "D3",
          "ticks": 2424,
          "time": 28.186046511627907,
          "velocity": 0.5590551181102362
        },
        {
          "duration": 0.03488372093023173,
          "durationTicks": 3,
          "midi": 55,
          "name": "G3",
          "ticks": 2424,
          "time": 28.186046511627907,
          "velocity": 0.5826771653543307
        },
        {
          "duration": 0.011627906976745095,
          "durationTicks": 1,
          "midi": 62,
          "name": "D4",
          "ticks": 2424,
          "time": 28.186046511627907,
          "velocity": 0.5984251968503937
        },
        {
          "duration": 0.06976744186046346,
          "durationTicks": 6,
          "midi": 68,
          "name": "G#4",
          "ticks": 2424,
          "time": 28.186046511627907,
          "velocity": 0.5118110236220472
        },
        {
          "duration": 0.011627906976741542,
          "durationTicks": 1,
          "midi": 36,
          "name": "C2",
          "ticks": 2425,
          "time": 28.197674418604652,
          "velocity": 0.5118110236220472
        },
        {
          "duration": 0.023255813953486637,
          "durationTicks": 2,
          "midi": 44,
          "name": "G#2",
          "ticks": 2425,
          "time": 28.197674418604652,
          "velocity": 0.5511811023622047
        },
        {
          "duration": 0.023255813953486637,
          "durationTicks": 2,
          "midi": 51,
          "name": "D#3",
          "ticks": 2425,
          "time": 28.197674418604652,
          "velocity": 0.5669291338582677
        },
        {
          "duration": 0.02325581395349019,
          "durationTicks": 2,
          "midi": 41,
          "name": "F2",
          "ticks": 2427,
          "time": 28.22093023255814,
          "velocity": 0.6771653543307087
        },
        {
          "duration": 0.011627906976745095,
          "durationTicks": 1,
          "midi": 52,
          "name": "E3",
          "ticks": 2427,
          "time": 28.22093023255814,
          "velocity": 0.6062992125984252
        },
        {
          "duration": 0.023255813953486637,
          "durationTicks": 2,
          "midi": 55,
          "name": "G3",
          "ticks": 2428,
          "time": 28.232558139534884,
          "velocity": 0.6220472440944882
        },
        {
          "duration": 0.023255813953486637,
          "durationTicks": 2,
          "midi": 42,
          "name": "F#2",
          "ticks": 2429,
          "time": 28.24418604651163,
          "velocity": 0.6062992125984252
        },
        {
          "duration": 0.09302325581395365,
          "durationTicks": 8,
          "midi": 66,
          "name": "F#4",
          "ticks": 2429,
          "time": 28.24418604651163,
          "velocity": 0.3700787401574803
        },
        {
          "duration": 0.03488372093023173,
          "durationTicks": 3,
          "midi": 41,
          "name": "F2",
          "ticks": 2433,
          "time": 28.290697674418606,
          "velocity": 0.3228346456692913
        },
        {
          "duration": 0.034883720930235285,
          "durationTicks": 3,
          "midi": 54,
          "name": "F#3",
          "ticks": 2434,
          "time": 28.302325581395348,
          "velocity": 0.4330708661417323
        },
        {
          "duration": 0.03488372093023173,
          "durationTicks": 3,
          "midi": 55,
          "name": "G3",
          "ticks": 2440,
          "time": 28.372093023255815,
          "velocity": 0.1732283464566929
        },
        {
          "duration": 0.023255813953486637,
          "durationTicks": 2,
          "midi": 40,
          "name": "E2",
          "ticks": 2441,
          "time": 28.38372093023256,
          "velocity": 0.29133858267716534
        },
        {
          "duration": 0.05813953488372192,
          "durationTicks": 5,
          "midi": 77,
          "name": "F5",
          "ticks": 2442,
          "time": 28.3953488372093,
          "velocity": 0.28346456692913385
        },
        {
          "duration": 0.26744186046511587,
          "durationTicks": 23,
          "midi": 80,
          "name": "G#5",
          "ticks": 2442,
          "time": 28.3953488372093,
          "velocity": 0.29133858267716534
        },
        {
          "duration": 0.09302325581395365,
          "durationTicks": 8,
          "midi": 84,
          "name": "C6",
          "ticks": 2442,
          "time": 28.3953488372093,
          "velocity": 0.2755905511811024
        },
        {
          "duration": 0.034883720930235285,
          "durationTicks": 3,
          "midi": 87,
          "name": "D#6",
          "ticks": 2442,
          "time": 28.3953488372093,
          "velocity": 0.2283464566929134
        },
        {
          "duration": 0.06976744186046702,
          "durationTicks": 6,
          "midi": 63,
          "name": "D#4",
          "ticks": 2443,
          "time": 28.406976744186046,
          "velocity": 0.6062992125984252
        },
        {
          "duration": 0.011627906976745095,
          "durationTicks": 1,
          "midi": 69,
          "name": "A4",
          "ticks": 2443,
          "time": 28.406976744186046,
          "velocity": 0.5118110236220472
        },
        {
          "duration": 0.02325581395349019,
          "durationTicks": 2,
          "midi": 83,
          "name": "B5",
          "ticks": 2443,
          "time": 28.406976744186046,
          "velocity": 0.25196850393700787
        },
        {
          "duration": 0.023255813953486637,
          "durationTicks": 2,
          "midi": 30,
          "name": "F#1",
          "ticks": 2444,
          "time": 28.41860465116279,
          "velocity": 0.4409448818897638
        },
        {
          "duration": 0.023255813953486637,
          "durationTicks": 2,
          "midi": 48,
          "name": "C3",
          "ticks": 2444,
          "time": 28.41860465116279,
          "velocity": 0.6062992125984252
        },
        {
          "duration": 0.33720930232557933,
          "durationTicks": 29,
          "midi": 68,
          "name": "G#4",
          "ticks": 2444,
          "time": 28.41860465116279,
          "velocity": 0.5826771653543307
        },
        {
          "duration": 0.011627906976745095,
          "durationTicks": 1,
          "midi": 50,
          "name": "D3",
          "ticks": 2446,
          "time": 28.441860465116278,
          "velocity": 0.6062992125984252
        },
        {
          "duration": 0.011627906976745095,
          "durationTicks": 1,
          "midi": 49,
          "name": "C#3",
          "ticks": 2447,
          "time": 28.453488372093023,
          "velocity": 0.5905511811023622
        },
        {
          "duration": 0.11627906976744029,
          "durationTicks": 10,
          "midi": 73,
          "name": "C#5",
          "ticks": 2447,
          "time": 28.453488372093023,
          "velocity": 0.18110236220472442
        },
        {
          "duration": 0.011627906976745095,
          "durationTicks": 1,
          "midi": 50,
          "name": "D3",
          "ticks": 2448,
          "time": 28.46511627906977,
          "velocity": 0.6299212598425197
        },
        {
          "duration": 0.04651162790697683,
          "durationTicks": 4,
          "midi": 61,
          "name": "C#4",
          "ticks": 2448,
          "time": 28.46511627906977,
          "velocity": 0.4881889763779528
        },
        {
          "duration": 0.05813953488371837,
          "durationTicks": 5,
          "midi": 49,
          "name": "C#3",
          "ticks": 2449,
          "time": 28.476744186046513,
          "velocity": 0.6535433070866141
        },
        {
          "duration": 0.023255813953486637,
          "durationTicks": 2,
          "midi": 56,
          "name": "G#3",
          "ticks": 2451,
          "time": 28.5,
          "velocity": 0.33858267716535434
        },
        {
          "duration": 0.011627906976745095,
          "durationTicks": 1,
          "midi": 48,
          "name": "C3",
          "ticks": 2454,
          "time": 28.53488372093023,
          "velocity": 0.6771653543307087
        },
        {
          "duration": 0.03488372093023173,
          "durationTicks": 3,
          "midi": 56,
          "name": "G#3",
          "ticks": 2454,
          "time": 28.53488372093023,
          "velocity": 0.3779527559055118
        },
        {
          "duration": 0.10465116279069875,
          "durationTicks": 9,
          "midi": 61,
          "name": "C#4",
          "ticks": 2454,
          "time": 28.53488372093023,
          "velocity": 0.4409448818897638
        },
        {
          "duration": 0.09302325581395365,
          "durationTicks": 8,
          "midi": 49,
          "name": "C#3",
          "ticks": 2455,
          "time": 28.546511627906977,
          "velocity": 0.6535433070866141
        },
        {
          "duration": 0.09302325581395365,
          "durationTicks": 8,
          "midi": 74,
          "name": "D5",
          "ticks": 2462,
          "time": 28.627906976744185,
          "velocity": 0.31496062992125984
        },
        {
          "duration": 0.03488372093023173,
          "durationTicks": 3,
          "midi": 76,
          "name": "E5",
          "ticks": 2462,
          "time": 28.627906976744185,
          "velocity": 0.25196850393700787
        },
        {
          "duration": 0.03488372093023173,
          "durationTicks": 3,
          "midi": 83,
          "name": "B5",
          "ticks": 2462,
          "time": 28.627906976744185,
          "velocity": 0.25984251968503935
        },
        {
          "duration": 0.03488372093023173,
          "durationTicks": 3,
          "midi": 84,
          "name": "C6",
          "ticks": 2462,
          "time": 28.627906976744185,
          "velocity": 0.2283464566929134
        },
        {
          "duration": 0.03488372093023173,
          "durationTicks": 3,
          "midi": 87,
          "name": "D#6",
          "ticks": 2462,
          "time": 28.627906976744185,
          "velocity": 0.2047244094488189
        },
        {
          "duration": 0.03488372093023173,
          "durationTicks": 3,
          "midi": 89,
          "name": "F6",
          "ticks": 2462,
          "time": 28.627906976744185,
          "velocity": 0.2204724409448819
        },
        {
          "duration": 0.03488372093023173,
          "durationTicks": 3,
          "midi": 36,
          "name": "C2",
          "ticks": 2463,
          "time": 28.63953488372093,
          "velocity": 0.5905511811023622
        },
        {
          "duration": 0.023255813953486637,
          "durationTicks": 2,
          "midi": 48,
          "name": "C3",
          "ticks": 2463,
          "time": 28.63953488372093,
          "velocity": 0.6062992125984252
        },
        {
          "duration": 0.023255813953486637,
          "durationTicks": 2,
          "midi": 56,
          "name": "G#3",
          "ticks": 2463,
          "time": 28.63953488372093,
          "velocity": 0.49606299212598426
        },
        {
          "duration": 0.011627906976745095,
          "durationTicks": 1,
          "midi": 62,
          "name": "D4",
          "ticks": 2463,
          "time": 28.63953488372093,
          "velocity": 0.5511811023622047
        },
        {
          "duration": 0.12790697674418539,
          "durationTicks": 11,
          "midi": 63,
          "name": "D#4",
          "ticks": 2464,
          "time": 28.651162790697676,
          "velocity": 0.5669291338582677
        },
        {
          "duration": 0.011627906976745095,
          "durationTicks": 1,
          "midi": 50,
          "name": "D3",
          "ticks": 2465,
          "time": 28.662790697674417,
          "velocity": 0.5905511811023622
        },
        {
          "duration": 0.011627906976745095,
          "durationTicks": 1,
          "midi": 48,
          "name": "C3",
          "ticks": 2466,
          "time": 28.674418604651162,
          "velocity": 0.5748031496062992
        },
        {
          "duration": 0.03488372093023173,
          "durationTicks": 3,
          "midi": 51,
          "name": "D#3",
          "ticks": 2466,
          "time": 28.674418604651162,
          "velocity": 0.5748031496062992
        },
        {
          "duration": 0.011627906976745095,
          "durationTicks": 1,
          "midi": 42,
          "name": "F#2",
          "ticks": 2467,
          "time": 28.686046511627907,
          "velocity": 0.6692913385826772
        },
        {
          "duration": 0.03488372093023173,
          "durationTicks": 3,
          "midi": 41,
          "name": "F2",
          "ticks": 2468,
          "time": 28.697674418604652,
          "velocity": 0.6614173228346457
        },
        {
          "duration": 0.05813953488371837,
          "durationTicks": 5,
          "midi": 55,
          "name": "G3",
          "ticks": 2468,
          "time": 28.697674418604652,
          "velocity": 0.47244094488188976
        },
        {
          "duration": 0.03488372093023173,
          "durationTicks": 3,
          "midi": 51,
          "name": "D#3",
          "ticks": 2470,
          "time": 28.72093023255814,
          "velocity": 0.33070866141732286
        },
        {
          "duration": 0.034883720930235285,
          "durationTicks": 3,
          "midi": 41,
          "name": "F2",
          "ticks": 2473,
          "time": 28.75581395348837,
          "velocity": 0.30708661417322836
        },
        {
          "duration": 0.03488372093023173,
          "durationTicks": 3,
          "midi": 55,
          "name": "G3",
          "ticks": 2474,
          "time": 28.767441860465116,
          "velocity": 0.11023622047244094
        },
        {
          "duration": 0.03488372093023173,
          "durationTicks": 3,
          "midi": 84,
          "name": "C6",
          "ticks": 2482,
          "time": 28.86046511627907,
          "velocity": 0.28346456692913385
        },
        {
          "duration": 0.03488372093023173,
          "durationTicks": 3,
          "midi": 48,
          "name": "C3",
          "ticks": 2483,
          "time": 28.872093023255815,
          "velocity": 0.5590551181102362
        },
        {
          "duration": 0.11627906976744029,
          "durationTicks": 10,
          "midi": 65,
          "name": "F4",
          "ticks": 2483,
          "time": 28.872093023255815,
          "velocity": 0.6141732283464567
        },
        {
          "duration": 0.011627906976745095,
          "durationTicks": 1,
          "midi": 69,
          "name": "A4",
          "ticks": 2483,
          "time": 28.872093023255815,
          "velocity": 0.5590551181102362
        },
        {
          "duration": 0.12790697674418539,
          "durationTicks": 11,
          "midi": 75,
          "name": "D#5",
          "ticks": 2483,
          "time": 28.872093023255815,
          "velocity": 0.2992125984251969
        },
        {
          "duration": 0.023255813953486637,
          "durationTicks": 2,
          "midi": 82,
          "name": "A#5",
          "ticks": 2483,
          "time": 28.872093023255815,
          "velocity": 0.2755905511811024
        },
        {
          "duration": 0.023255813953486637,
          "durationTicks": 2,
          "midi": 86,
          "name": "D6",
          "ticks": 2483,
          "time": 28.872093023255815,
          "velocity": 0.25984251968503935
        },
        {
          "duration": 0.023255813953486637,
          "durationTicks": 2,
          "midi": 88,
          "name": "E6",
          "ticks": 2483,
          "time": 28.872093023255815,
          "velocity": 0.25984251968503935
        },
        {
          "duration": 0.06976744186046346,
          "durationTicks": 6,
          "midi": 61,
          "name": "C#4",
          "ticks": 2484,
          "time": 28.88372093023256,
          "velocity": 0.4645669291338583
        },
        {
          "duration": 0.09302325581395365,
          "durationTicks": 8,
          "midi": 68,
          "name": "G#4",
          "ticks": 2484,
          "time": 28.88372093023256,
          "velocity": 0.5826771653543307
        },
        {
          "duration": 0.08139534883720856,
          "durationTicks": 7,
          "midi": 83,
          "name": "B5",
          "ticks": 2484,
          "time": 28.88372093023256,
          "velocity": 0.2440944881889764
        },
        {
          "duration": 0.02325581395349019,
          "durationTicks": 2,
          "midi": 50,
          "name": "D3",
          "ticks": 2486,
          "time": 28.906976744186046,
          "velocity": 0.6220472440944882
        },
        {
          "duration": 0.023255813953486637,
          "durationTicks": 2,
          "midi": 56,
          "name": "G#3",
          "ticks": 2487,
          "time": 28.91860465116279,
          "velocity": 0.3700787401574803
        },
        {
          "duration": 0.011627906976741542,
          "durationTicks": 1,
          "midi": 49,
          "name": "C#3",
          "ticks": 2488,
          "time": 28.930232558139537,
          "velocity": 0.5118110236220472
        },
        {
          "duration": 0.023255813953486637,
          "durationTicks": 2,
          "midi": 49,
          "name": "C#3",
          "ticks": 2491,
          "time": 28.96511627906977,
          "velocity": 0.30708661417322836
        },
        {
          "duration": 0.023255813953486637,
          "durationTicks": 2,
          "midi": 57,
          "name": "A3",
          "ticks": 2491,
          "time": 28.96511627906977,
          "velocity": 0.3543307086614173
        },
        {
          "duration": 0.023255813953486637,
          "durationTicks": 2,
          "midi": 61,
          "name": "C#4",
          "ticks": 2491,
          "time": 28.96511627906977,
          "velocity": 0.3858267716535433
        },
        {
          "duration": 0.02325581395349019,
          "durationTicks": 2,
          "midi": 50,
          "name": "D3",
          "ticks": 2493,
          "time": 28.988372093023255,
          "velocity": 0.2677165354330709
        },
        {
          "duration": 0.03488372093023173,
          "durationTicks": 3,
          "midi": 56,
          "name": "G#3",
          "ticks": 2493,
          "time": 28.988372093023255,
          "velocity": 0.3464566929133858
        },
        {
          "duration": 0.29069767441860606,
          "durationTicks": 25,
          "midi": 63,
          "name": "D#4",
          "ticks": 2493,
          "time": 28.988372093023255,
          "velocity": 0.6299212598425197
        },
        {
          "duration": 0.034883720930235285,
          "durationTicks": 3,
          "midi": 68,
          "name": "G#4",
          "ticks": 2496,
          "time": 29.023255813953487,
          "velocity": 0.2047244094488189
        },
        {
          "duration": 0.023255813953486637,
          "durationTicks": 2,
          "midi": 73,
          "name": "C#5",
          "ticks": 2502,
          "time": 29.093023255813954,
          "velocity": 0.31496062992125984
        },
        {
          "duration": 0.03488372093023173,
          "durationTicks": 3,
          "midi": 78,
          "name": "F#5",
          "ticks": 2502,
          "time": 29.093023255813954,
          "velocity": 0.30708661417322836
        },
        {
          "duration": 0.023255813953486637,
          "durationTicks": 2,
          "midi": 81,
          "name": "A5",
          "ticks": 2502,
          "time": 29.093023255813954,
          "velocity": 0.31496062992125984
        },
        {
          "duration": 0.03488372093023173,
          "durationTicks": 3,
          "midi": 83,
          "name": "B5",
          "ticks": 2502,
          "time": 29.093023255813954,
          "velocity": 0.2204724409448819
        },
        {
          "duration": 0.03488372093023173,
          "durationTicks": 3,
          "midi": 87,
          "name": "D#6",
          "ticks": 2502,
          "time": 29.093023255813954,
          "velocity": 0.25196850393700787
        },
        {
          "duration": 0.011627906976741542,
          "durationTicks": 1,
          "midi": 35,
          "name": "B1",
          "ticks": 2503,
          "time": 29.1046511627907,
          "velocity": 0.6141732283464567
        },
        {
          "duration": 0.1860465116279073,
          "durationTicks": 16,
          "midi": 51,
          "name": "D#3",
          "ticks": 2503,
          "time": 29.1046511627907,
          "velocity": 0.6535433070866141
        },
        {
          "duration": 0.011627906976741542,
          "durationTicks": 1,
          "midi": 69,
          "name": "A4",
          "ticks": 2503,
          "time": 29.1046511627907,
          "velocity": 0.5511811023622047
        },
        {
          "duration": 0.023255813953486637,
          "durationTicks": 2,
          "midi": 86,
          "name": "D6",
          "ticks": 2503,
          "time": 29.1046511627907,
          "velocity": 0.2283464566929134
        },
        {
          "duration": 0.011627906976745095,
          "durationTicks": 1,
          "midi": 30,
          "name": "F#1",
          "ticks": 2504,
          "time": 29.11627906976744,
          "velocity": 0.5905511811023622
        },
        {
          "duration": 0.08139534883721211,
          "durationTicks": 7,
          "midi": 68,
          "name": "G#4",
          "ticks": 2504,
          "time": 29.11627906976744,
          "velocity": 0.5590551181102362
        },
        {
          "duration": 0.04651162790697683,
          "durationTicks": 4,
          "midi": 74,
          "name": "D5",
          "ticks": 2504,
          "time": 29.11627906976744,
          "velocity": 0.25196850393700787
        },
        {
          "duration": 0.11627906976744384,
          "durationTicks": 10,
          "midi": 82,
          "name": "A#5",
          "ticks": 2504,
          "time": 29.11627906976744,
          "velocity": 0.3228346456692913
        },
        {
          "duration": 0.011627906976745095,
          "durationTicks": 1,
          "midi": 44,
          "name": "G#2",
          "ticks": 2505,
          "time": 29.127906976744185,
          "velocity": 0.5196850393700787
        },
        {
          "duration": 0.10465116279069875,
          "durationTicks": 9,
          "midi": 79,
          "name": "G5",
          "ticks": 2505,
          "time": 29.127906976744185,
          "velocity": 0.2440944881889764
        },
        {
          "duration": 0.03488372093023173,
          "durationTicks": 3,
          "midi": 42,
          "name": "F#2",
          "ticks": 2506,
          "time": 29.13953488372093,
          "velocity": 0.6377952755905512
        },
        {
          "duration": 0.02325581395349019,
          "durationTicks": 2,
          "midi": 41,
          "name": "F2",
          "ticks": 2509,
          "time": 29.174418604651162,
          "velocity": 0.5118110236220472
        },
        {
          "duration": 0.023255813953486637,
          "durationTicks": 2,
          "midi": 56,
          "name": "G#3",
          "ticks": 2510,
          "time": 29.186046511627907,
          "velocity": 0.3700787401574803
        },
        {
          "duration": 0.05813953488372192,
          "durationTicks": 5,
          "midi": 68,
          "name": "G#4",
          "ticks": 2512,
          "time": 29.209302325581394,
          "velocity": 0.2047244094488189
        },
        {
          "duration": 0.03488372093023173,
          "durationTicks": 3,
          "midi": 41,
          "name": "F2",
          "ticks": 2513,
          "time": 29.22093023255814,
          "velocity": 0.2755905511811024
        },
        {
          "duration": 0.02325581395349019,
          "durationTicks": 2,
          "midi": 56,
          "name": "G#3",
          "ticks": 2513,
          "time": 29.22093023255814,
          "velocity": 0.36220472440944884
        },
        {
          "duration": 0.02325581395349019,
          "durationTicks": 2,
          "midi": 40,
          "name": "E2",
          "ticks": 2521,
          "time": 29.313953488372093,
          "velocity": 0.33070866141732286
        },
        {
          "duration": 0.023255813953486637,
          "durationTicks": 2,
          "midi": 76,
          "name": "E5",
          "ticks": 2522,
          "time": 29.325581395348838,
          "velocity": 0.28346456692913385
        },
        {
          "duration": 0.023255813953486637,
          "durationTicks": 2,
          "midi": 81,
          "name": "A5",
          "ticks": 2522,
          "time": 29.325581395348838,
          "velocity": 0.2440944881889764
        },
        {
          "duration": 0.03488372093023173,
          "durationTicks": 3,
          "midi": 86,
          "name": "D6",
          "ticks": 2522,
          "time": 29.325581395348838,
          "velocity": 0.25196850393700787
        },
        {
          "duration": 0.03488372093023173,
          "durationTicks": 3,
          "midi": 87,
          "name": "D#6",
          "ticks": 2522,
          "time": 29.325581395348838,
          "velocity": 0.25196850393700787
        },
        {
          "duration": 0.023255813953486637,
          "durationTicks": 2,
          "midi": 48,
          "name": "C3",
          "ticks": 2523,
          "time": 29.337209302325583,
          "velocity": 0.5511811023622047
        },
        {
          "duration": 0.09302325581395365,
          "durationTicks": 8,
          "midi": 63,
          "name": "D#4",
          "ticks": 2523,
          "time": 29.337209302325583,
          "velocity": 0.6141732283464567
        },
        {
          "duration": 0.011627906976741542,
          "durationTicks": 1,
          "midi": 69,
          "name": "A4",
          "ticks": 2523,
          "time": 29.337209302325583,
          "velocity": 0.5511811023622047
        },
        {
          "duration": 0.16279069767441712,
          "durationTicks": 14,
          "midi": 84,
          "name": "C6",
          "ticks": 2523,
          "time": 29.337209302325583,
          "velocity": 0.3228346456692913
        },
        {
          "duration": 0.11627906976744384,
          "durationTicks": 10,
          "midi": 68,
          "name": "G#4",
          "ticks": 2524,
          "time": 29.348837209302324,
          "velocity": 0.5590551181102362
        },
        {
          "duration": 0.04651162790697683,
          "durationTicks": 4,
          "midi": 77,
          "name": "F5",
          "ticks": 2524,
          "time": 29.348837209302324,
          "velocity": 0.10236220472440945
        },
        {
          "duration": 0.10465116279069875,
          "durationTicks": 9,
          "midi": 49,
          "name": "C#3",
          "ticks": 2525,
          "time": 29.36046511627907,
          "velocity": 0.5748031496062992
        },
        {
          "duration": 0.11627906976744384,
          "durationTicks": 10,
          "midi": 72,
          "name": "C5",
          "ticks": 2528,
          "time": 29.3953488372093,
          "velocity": 0.1732283464566929
        },
        {
          "duration": 0.03488372093023173,
          "durationTicks": 3,
          "midi": 65,
          "name": "F4",
          "ticks": 2534,
          "time": 29.46511627906977,
          "velocity": 0.2283464566929134
        },
        {
          "duration": 0.03488372093023173,
          "durationTicks": 3,
          "midi": 49,
          "name": "C#3",
          "ticks": 2535,
          "time": 29.476744186046513,
          "velocity": 0.33858267716535434
        },
        {
          "duration": 0.06976744186046346,
          "durationTicks": 6,
          "midi": 70,
          "name": "A#4",
          "ticks": 2542,
          "time": 29.558139534883722,
          "velocity": 0.5669291338582677
        },
        {
          "duration": 0.023255813953486637,
          "durationTicks": 2,
          "midi": 80,
          "name": "G#5",
          "ticks": 2542,
          "time": 29.558139534883722,
          "velocity": 0.23622047244094488
        },
        {
          "duration": 0.03488372093023173,
          "durationTicks": 3,
          "midi": 81,
          "name": "A5",
          "ticks": 2542,
          "time": 29.558139534883722,
          "velocity": 0.23622047244094488
        },
        {
          "duration": 0.03488372093023173,
          "durationTicks": 3,
          "midi": 85,
          "name": "C#6",
          "ticks": 2542,
          "time": 29.558139534883722,
          "velocity": 0.2677165354330709
        },
        {
          "duration": 0.023255813953486637,
          "durationTicks": 2,
          "midi": 86,
          "name": "D6",
          "ticks": 2542,
          "time": 29.558139534883722,
          "velocity": 0.2755905511811024
        },
        {
          "duration": 0.023255813953486637,
          "durationTicks": 2,
          "midi": 87,
          "name": "D#6",
          "ticks": 2542,
          "time": 29.558139534883722,
          "velocity": 0.2677165354330709
        },
        {
          "duration": 0.011627906976745095,
          "durationTicks": 1,
          "midi": 35,
          "name": "B1",
          "ticks": 2543,
          "time": 29.569767441860463,
          "velocity": 0.6062992125984252
        },
        {
          "duration": 0.02325581395349019,
          "durationTicks": 2,
          "midi": 55,
          "name": "G3",
          "ticks": 2543,
          "time": 29.569767441860463,
          "velocity": 0.47244094488188976
        },
        {
          "duration": 0.09302325581395365,
          "durationTicks": 8,
          "midi": 63,
          "name": "D#4",
          "ticks": 2543,
          "time": 29.569767441860463,
          "velocity": 0.5590551181102362
        },
        {
          "duration": 0.011627906976745095,
          "durationTicks": 1,
          "midi": 40,
          "name": "E2",
          "ticks": 2544,
          "time": 29.58139534883721,
          "velocity": 0.5905511811023622
        },
        {
          "duration": 0.10465116279069875,
          "durationTicks": 9,
          "midi": 66,
          "name": "F#4",
          "ticks": 2544,
          "time": 29.58139534883721,
          "velocity": 0.36220472440944884
        },
        {
          "duration": 0.05813953488372192,
          "durationTicks": 5,
          "midi": 73,
          "name": "C#5",
          "ticks": 2544,
          "time": 29.58139534883721,
          "velocity": 0.14173228346456693
        },
        {
          "duration": 0.023255813953486637,
          "durationTicks": 2,
          "midi": 53,
          "name": "F3",
          "ticks": 2545,
          "time": 29.593023255813954,
          "velocity": 0.5590551181102362
        },
        {
          "duration": 0.04651162790697683,
          "durationTicks": 4,
          "midi": 58,
          "name": "A#3",
          "ticks": 2546,
          "time": 29.6046511627907,
          "velocity": 0.4566929133858268
        },
        {
          "duration": 0.011627906976745095,
          "durationTicks": 1,
          "midi": 42,
          "name": "F#2",
          "ticks": 2547,
          "time": 29.61627906976744,
          "velocity": 0.6062992125984252
        },
        {
          "duration": 0.04651162790697683,
          "durationTicks": 4,
          "midi": 41,
          "name": "F2",
          "ticks": 2548,
          "time": 29.627906976744185,
          "velocity": 0.6299212598425197
        },
        {
          "duration": 0.06976744186046702,
          "durationTicks": 6,
          "midi": 77,
          "name": "F5",
          "ticks": 2548,
          "time": 29.627906976744185,
          "velocity": 0.23622047244094488
        },
        {
          "duration": 0.023255813953486637,
          "durationTicks": 2,
          "midi": 52,
          "name": "E3",
          "ticks": 2550,
          "time": 29.651162790697676,
          "velocity": 0.4094488188976378
        },
        {
          "duration": 0.023255813953486637,
          "durationTicks": 2,
          "midi": 59,
          "name": "B3",
          "ticks": 2550,
          "time": 29.651162790697676,
          "velocity": 0.4094488188976378
        },
        {
          "duration": 0.02325581395349019,
          "durationTicks": 2,
          "midi": 40,
          "name": "E2",
          "ticks": 2552,
          "time": 29.674418604651162,
          "velocity": 0.3700787401574803
        },
        {
          "duration": 0.08139534883720856,
          "durationTicks": 7,
          "midi": 51,
          "name": "D#3",
          "ticks": 2552,
          "time": 29.674418604651162,
          "velocity": 0.4251968503937008
        },
        {
          "duration": 0.05813953488372192,
          "durationTicks": 5,
          "midi": 58,
          "name": "A#3",
          "ticks": 2552,
          "time": 29.674418604651162,
          "velocity": 0.44881889763779526
        },
        {
          "duration": 0.11627906976744029,
          "durationTicks": 10,
          "midi": 64,
          "name": "E4",
          "ticks": 2553,
          "time": 29.686046511627907,
          "velocity": 0.3858267716535433
        },
        {
          "duration": 0.11627906976744029,
          "durationTicks": 10,
          "midi": 83,
          "name": "B5",
          "ticks": 2553,
          "time": 29.686046511627907,
          "velocity": 0.1732283464566929
        },
        {
          "duration": 0.02325581395349019,
          "durationTicks": 2,
          "midi": 41,
          "name": "F2",
          "ticks": 2560,
          "time": 29.767441860465116,
          "velocity": 0.2283464566929134
        },
        {
          "duration": 0.16279069767441712,
          "durationTicks": 14,
          "midi": 70,
          "name": "A#4",
          "ticks": 2561,
          "time": 29.77906976744186,
          "velocity": 0.5826771653543307
        },
        {
          "duration": 0.1744186046511622,
          "durationTicks": 15,
          "midi": 79,
          "name": "G5",
          "ticks": 2562,
          "time": 29.790697674418606,
          "velocity": 0.2992125984251969
        },
        {
          "duration": 0.13953488372093048,
          "durationTicks": 12,
          "midi": 85,
          "name": "C#6",
          "ticks": 2562,
          "time": 29.790697674418606,
          "velocity": 0.2755905511811024
        },
        {
          "duration": 0.13953488372093048,
          "durationTicks": 12,
          "midi": 87,
          "name": "D#6",
          "ticks": 2562,
          "time": 29.790697674418606,
          "velocity": 0.3228346456692913
        },
        {
          "duration": 0.3720930232558146,
          "durationTicks": 32,
          "midi": 63,
          "name": "D#4",
          "ticks": 2563,
          "time": 29.802325581395348,
          "velocity": 0.6614173228346457
        },
        {
          "duration": 0.04651162790697683,
          "durationTicks": 4,
          "midi": 89,
          "name": "F6",
          "ticks": 2563,
          "time": 29.802325581395348,
          "velocity": 0.2440944881889764
        },
        {
          "duration": 0.12790697674418539,
          "durationTicks": 11,
          "midi": 73,
          "name": "C#5",
          "ticks": 2564,
          "time": 29.813953488372093,
          "velocity": 0.25984251968503935
        },
        {
          "duration": 0.1860465116279073,
          "durationTicks": 16,
          "midi": 51,
          "name": "D#3",
          "ticks": 2565,
          "time": 29.825581395348838,
          "velocity": 0.5196850393700787
        },
        {
          "duration": 0.04651162790697683,
          "durationTicks": 4,
          "midi": 80,
          "name": "G#5",
          "ticks": 2565,
          "time": 29.825581395348838,
          "velocity": 0.09448818897637795
        },
        {
          "duration": 0.034883720930235285,
          "durationTicks": 3,
          "midi": 40,
          "name": "E2",
          "ticks": 2567,
          "time": 29.848837209302324,
          "velocity": 0.2283464566929134
        },
        {
          "duration": 0.03488372093023173,
          "durationTicks": 3,
          "midi": 80,
          "name": "G#5",
          "ticks": 2572,
          "time": 29.906976744186046,
          "velocity": 0.12598425196850394
        },
        {
          "duration": 0.11627906976744029,
          "durationTicks": 10,
          "midi": 59,
          "name": "B3",
          "ticks": 2573,
          "time": 29.91860465116279,
          "velocity": 0.5984251968503937
        },
        {
          "duration": 0.1046511627906952,
          "durationTicks": 9,
          "midi": 90,
          "name": "F#6",
          "ticks": 2573,
          "time": 29.91860465116279,
          "velocity": 0.16535433070866143
        },
        {
          "duration": 0.08139534883720856,
          "durationTicks": 7,
          "midi": 77,
          "name": "F5",
          "ticks": 2575,
          "time": 29.941860465116278,
          "velocity": 0.2677165354330709
        },
        {
          "duration": 0.08139534883720856,
          "durationTicks": 7,
          "midi": 82,
          "name": "A#5",
          "ticks": 2575,
          "time": 29.941860465116278,
          "velocity": 0.2677165354330709
        },
        {
          "duration": 0.47674418604651336,
          "durationTicks": 41,
          "midi": 70,
          "name": "A#4",
          "ticks": 2576,
          "time": 29.953488372093023,
          "velocity": 0.5118110236220472
        },
        {
          "duration": 0.011627906976741542,
          "durationTicks": 1,
          "midi": 52,
          "name": "E3",
          "ticks": 2581,
          "time": 30.011627906976745,
          "velocity": 0.5118110236220472
        },
        {
          "duration": 0.023255813953486637,
          "durationTicks": 2,
          "midi": 78,
          "name": "F#5",
          "ticks": 2581,
          "time": 30.011627906976745,
          "velocity": 0.2992125984251969
        },
        {
          "duration": 0.13953488372093048,
          "durationTicks": 12,
          "midi": 87,
          "name": "D#6",
          "ticks": 2581,
          "time": 30.011627906976745,
          "velocity": 0.3228346456692913
        },
        {
          "duration": 0.02325581395349019,
          "durationTicks": 2,
          "midi": 35,
          "name": "B1",
          "ticks": 2582,
          "time": 30.023255813953487,
          "velocity": 0.6299212598425197
        },
        {
          "duration": 0.011627906976745095,
          "durationTicks": 1,
          "midi": 51,
          "name": "D#3",
          "ticks": 2582,
          "time": 30.023255813953487,
          "velocity": 0.6377952755905512
        },
        {
          "duration": 0.02325581395349019,
          "durationTicks": 2,
          "midi": 72,
          "name": "C5",
          "ticks": 2582,
          "time": 30.023255813953487,
          "velocity": 0.33070866141732286
        },
        {
          "duration": 0.02325581395349019,
          "durationTicks": 2,
          "midi": 81,
          "name": "A5",
          "ticks": 2582,
          "time": 30.023255813953487,
          "velocity": 0.2440944881889764
        },
        {
          "duration": 0.12790697674418894,
          "durationTicks": 11,
          "midi": 85,
          "name": "C#6",
          "ticks": 2582,
          "time": 30.023255813953487,
          "velocity": 0.30708661417322836
        },
        {
          "duration": 0.02325581395349019,
          "durationTicks": 2,
          "midi": 88,
          "name": "E6",
          "ticks": 2582,
          "time": 30.023255813953487,
          "velocity": 0.2283464566929134
        },
        {
          "duration": 0.12790697674418894,
          "durationTicks": 11,
          "midi": 91,
          "name": "G6",
          "ticks": 2582,
          "time": 30.023255813953487,
          "velocity": 0.2204724409448819
        },
        {
          "duration": 0.02325581395349019,
          "durationTicks": 2,
          "midi": 50,
          "name": "D3",
          "ticks": 2583,
          "time": 30.03488372093023,
          "velocity": 0.6614173228346457
        },
        {
          "duration": 0.02325581395349019,
          "durationTicks": 2,
          "midi": 77,
          "name": "F5",
          "ticks": 2583,
          "time": 30.03488372093023,
          "velocity": 0.2440944881889764
        },
        {
          "duration": 0.43023255813953654,
          "durationTicks": 37,
          "midi": 79,
          "name": "G5",
          "ticks": 2583,
          "time": 30.03488372093023,
          "velocity": 0.30708661417322836
        },
        {
          "duration": 0.011627906976745095,
          "durationTicks": 1,
          "midi": 40,
          "name": "E2",
          "ticks": 2584,
          "time": 30.046511627906977,
          "velocity": 0.5905511811023622
        },
        {
          "duration": 0.023255813953486637,
          "durationTicks": 2,
          "midi": 58,
          "name": "A#3",
          "ticks": 2584,
          "time": 30.046511627906977,
          "velocity": 0.3700787401574803
        },
        {
          "duration": 0.06976744186046346,
          "durationTicks": 6,
          "midi": 73,
          "name": "C#5",
          "ticks": 2584,
          "time": 30.046511627906977,
          "velocity": 0.18110236220472442
        },
        {
          "duration": 0.011627906976741542,
          "durationTicks": 1,
          "midi": 43,
          "name": "G2",
          "ticks": 2585,
          "time": 30.058139534883722,
          "velocity": 0.5196850393700787
        },
        {
          "duration": 0.09302325581395365,
          "durationTicks": 8,
          "midi": 51,
          "name": "D#3",
          "ticks": 2585,
          "time": 30.058139534883722,
          "velocity": 0.6535433070866141
        },
        {
          "duration": 0.011627906976745095,
          "durationTicks": 1,
          "midi": 44,
          "name": "G#2",
          "ticks": 2586,
          "time": 30.069767441860463,
          "velocity": 0.5433070866141733
        },
        {
          "duration": 0.011627906976745095,
          "durationTicks": 1,
          "midi": 42,
          "name": "F#2",
          "ticks": 2587,
          "time": 30.08139534883721,
          "velocity": 0.6299212598425197
        },
        {
          "duration": 0.11627906976744384,
          "durationTicks": 10,
          "midi": 58,
          "name": "A#3",
          "ticks": 2587,
          "time": 30.08139534883721,
          "velocity": 0.47244094488188976
        },
        {
          "duration": 0.04651162790697683,
          "durationTicks": 4,
          "midi": 41,
          "name": "F2",
          "ticks": 2588,
          "time": 30.093023255813954,
          "velocity": 0.6299212598425197
        },
        {
          "duration": 0.03488372093023173,
          "durationTicks": 3,
          "midi": 39,
          "name": "D#2",
          "ticks": 2593,
          "time": 30.151162790697676,
          "velocity": 0.1732283464566929
        },
        {
          "duration": 0.023255813953486637,
          "durationTicks": 2,
          "midi": 50,
          "name": "D3",
          "ticks": 2593,
          "time": 30.151162790697676,
          "velocity": 0.33070866141732286
        },
        {
          "duration": 0.20930232558139394,
          "durationTicks": 18,
          "midi": 63,
          "name": "D#4",
          "ticks": 2601,
          "time": 30.24418604651163,
          "velocity": 0.6456692913385826
        },
        {
          "duration": 0.023255813953486637,
          "durationTicks": 2,
          "midi": 76,
          "name": "E5",
          "ticks": 2601,
          "time": 30.24418604651163,
          "velocity": 0.28346456692913385
        },
        {
          "duration": 0.13953488372093048,
          "durationTicks": 12,
          "midi": 87,
          "name": "D#6",
          "ticks": 2601,
          "time": 30.24418604651163,
          "velocity": 0.31496062992125984
        },
        {
          "duration": 0.12790697674418894,
          "durationTicks": 11,
          "midi": 85,
          "name": "C#6",
          "ticks": 2602,
          "time": 30.25581395348837,
          "velocity": 0.25984251968503935
        },
        {
          "duration": 0.02325581395349019,
          "durationTicks": 2,
          "midi": 29,
          "name": "F1",
          "ticks": 2603,
          "time": 30.267441860465116,
          "velocity": 0.48031496062992124
        },
        {
          "duration": 0.06976744186046702,
          "durationTicks": 6,
          "midi": 55,
          "name": "G3",
          "ticks": 2603,
          "time": 30.267441860465116,
          "velocity": 0.5433070866141733
        },
        {
          "duration": 0.12790697674418539,
          "durationTicks": 11,
          "midi": 77,
          "name": "F5",
          "ticks": 2603,
          "time": 30.267441860465116,
          "velocity": 0.30708661417322836
        },
        {
          "duration": 0.05813953488372192,
          "durationTicks": 5,
          "midi": 86,
          "name": "D6",
          "ticks": 2603,
          "time": 30.267441860465116,
          "velocity": 0.14173228346456693
        },
        {
          "duration": 0.011627906976745095,
          "durationTicks": 1,
          "midi": 48,
          "name": "C3",
          "ticks": 2604,
          "time": 30.27906976744186,
          "velocity": 0.5354330708661418
        },
        {
          "duration": 0.023255813953486637,
          "durationTicks": 2,
          "midi": 50,
          "name": "D3",
          "ticks": 2605,
          "time": 30.290697674418606,
          "velocity": 0.6062992125984252
        },
        {
          "duration": 0.03488372093023173,
          "durationTicks": 3,
          "midi": 49,
          "name": "C#3",
          "ticks": 2607,
          "time": 30.313953488372093,
          "velocity": 0.5511811023622047
        },
        {
          "duration": 0.03488372093023173,
          "durationTicks": 3,
          "midi": 58,
          "name": "A#3",
          "ticks": 2608,
          "time": 30.325581395348838,
          "velocity": 0.49606299212598426
        },
        {
          "duration": 0.023255813953486637,
          "durationTicks": 2,
          "midi": 50,
          "name": "D3",
          "ticks": 2612,
          "time": 30.372093023255815,
          "velocity": 0.49606299212598426
        },
        {
          "duration": 0.06976744186046346,
          "durationTicks": 6,
          "midi": 58,
          "name": "A#3",
          "ticks": 2612,
          "time": 30.372093023255815,
          "velocity": 0.5196850393700787
        },
        {
          "duration": 0.09302325581395365,
          "durationTicks": 8,
          "midi": 51,
          "name": "D#3",
          "ticks": 2614,
          "time": 30.3953488372093,
          "velocity": 0.47244094488188976
        },
        {
          "duration": 0.04651162790697683,
          "durationTicks": 4,
          "midi": 76,
          "name": "E5",
          "ticks": 2614,
          "time": 30.3953488372093,
          "velocity": 0.2204724409448819
        },
        {
          "duration": 0.023255813953486637,
          "durationTicks": 2,
          "midi": 62,
          "name": "D4",
          "ticks": 2621,
          "time": 30.476744186046513,
          "velocity": 0.47244094488188976
        },
        {
          "duration": 0.13953488372092693,
          "durationTicks": 12,
          "midi": 75,
          "name": "D#5",
          "ticks": 2621,
          "time": 30.476744186046513,
          "velocity": 0.31496062992125984
        },
        {
          "duration": 0.24418604651162568,
          "durationTicks": 21,
          "midi": 79,
          "name": "G5",
          "ticks": 2621,
          "time": 30.476744186046513,
          "velocity": 0.33858267716535434
        },
        {
          "duration": 0.13953488372092693,
          "durationTicks": 12,
          "midi": 85,
          "name": "C#6",
          "ticks": 2621,
          "time": 30.476744186046513,
          "velocity": 0.29133858267716534
        },
        {
          "duration": 0.13953488372092693,
          "durationTicks": 12,
          "midi": 87,
          "name": "D#6",
          "ticks": 2621,
          "time": 30.476744186046513,
          "velocity": 0.33070866141732286
        },
        {
          "duration": 0.011627906976745095,
          "durationTicks": 1,
          "midi": 34,
          "name": "A#1",
          "ticks": 2622,
          "time": 30.488372093023255,
          "velocity": 0.5590551181102362
        },
        {
          "duration": 0.02325581395349019,
          "durationTicks": 2,
          "midi": 50,
          "name": "D3",
          "ticks": 2622,
          "time": 30.488372093023255,
          "velocity": 0.6299212598425197
        },
        {
          "duration": 0.04651162790697683,
          "durationTicks": 4,
          "midi": 70,
          "name": "A#4",
          "ticks": 2622,
          "time": 30.488372093023255,
          "velocity": 0.4645669291338583
        },
        {
          "duration": 0.05813953488372192,
          "durationTicks": 5,
          "midi": 89,
          "name": "F6",
          "ticks": 2622,
          "time": 30.488372093023255,
          "velocity": 0.1732283464566929
        },
        {
          "duration": 0.011627906976745095,
          "durationTicks": 1,
          "midi": 36,
          "name": "C2",
          "ticks": 2623,
          "time": 30.5,
          "velocity": 0.6141732283464567
        },
        {
          "duration": 0.12790697674418539,
          "durationTicks": 11,
          "midi": 63,
          "name": "D#4",
          "ticks": 2623,
          "time": 30.5,
          "velocity": 0.5748031496062992
        },
        {
          "duration": 0.011627906976741542,
          "durationTicks": 1,
          "midi": 41,
          "name": "F2",
          "ticks": 2624,
          "time": 30.511627906976745,
          "velocity": 0.5590551181102362
        },
        {
          "duration": 0.1046511627906952,
          "durationTicks": 9,
          "midi": 51,
          "name": "D#3",
          "ticks": 2624,
          "time": 30.511627906976745,
          "velocity": 0.6535433070866141
        },
        {
          "duration": 0.05813953488371837,
          "durationTicks": 5,
          "midi": 73,
          "name": "C#5",
          "ticks": 2624,
          "time": 30.511627906976745,
          "velocity": 0.14960629921259844
        },
        {
          "duration": 0.02325581395349019,
          "durationTicks": 2,
          "midi": 43,
          "name": "G2",
          "ticks": 2625,
          "time": 30.523255813953487,
          "velocity": 0.5826771653543307
        },
        {
          "duration": 0.05813953488372192,
          "durationTicks": 5,
          "midi": 41,
          "name": "F2",
          "ticks": 2627,
          "time": 30.546511627906977,
          "velocity": 0.6456692913385826
        },
        {
          "duration": 0.15116279069767558,
          "durationTicks": 13,
          "midi": 70,
          "name": "A#4",
          "ticks": 2627,
          "time": 30.546511627906977,
          "velocity": 0.3700787401574803
        },
        {
          "duration": 0.12790697674418894,
          "durationTicks": 11,
          "midi": 65,
          "name": "F4",
          "ticks": 2641,
          "time": 30.709302325581394,
          "velocity": 0.6062992125984252
        },
        {
          "duration": 0.09302325581395365,
          "durationTicks": 8,
          "midi": 80,
          "name": "G#5",
          "ticks": 2641,
          "time": 30.709302325581394,
          "velocity": 0.2755905511811024
        },
        {
          "duration": 0.034883720930235285,
          "durationTicks": 3,
          "midi": 85,
          "name": "C#6",
          "ticks": 2641,
          "time": 30.709302325581394,
          "velocity": 0.2283464566929134
        },
        {
          "duration": 0.034883720930235285,
          "durationTicks": 3,
          "midi": 86,
          "name": "D6",
          "ticks": 2641,
          "time": 30.709302325581394,
          "velocity": 0.2047244094488189
        },
        {
          "duration": 0.034883720930235285,
          "durationTicks": 3,
          "midi": 88,
          "name": "E6",
          "ticks": 2641,
          "time": 30.709302325581394,
          "velocity": 0.18110236220472442
        },
        {
          "duration": 0.12790697674418539,
          "durationTicks": 11,
          "midi": 70,
          "name": "A#4",
          "ticks": 2642,
          "time": 30.72093023255814,
          "velocity": 0.5748031496062992
        },
        {
          "duration": 0.02325581395349019,
          "durationTicks": 2,
          "midi": 76,
          "name": "E5",
          "ticks": 2642,
          "time": 30.72093023255814,
          "velocity": 0.29133858267716534
        },
        {
          "duration": 0.023255813953486637,
          "durationTicks": 2,
          "midi": 30,
          "name": "F#1",
          "ticks": 2643,
          "time": 30.732558139534884,
          "velocity": 0.4409448818897638
        },
        {
          "duration": 0.011627906976745095,
          "durationTicks": 1,
          "midi": 48,
          "name": "C3",
          "ticks": 2643,
          "time": 30.732558139534884,
          "velocity": 0.5669291338582677
        },
        {
          "duration": 0.011627906976741542,
          "durationTicks": 1,
          "midi": 50,
          "name": "D3",
          "ticks": 2644,
          "time": 30.74418604651163,
          "velocity": 0.6141732283464567
        },
        {
          "duration": 0.034883720930235285,
          "durationTicks": 3,
          "midi": 49,
          "name": "C#3",
          "ticks": 2645,
          "time": 30.75581395348837,
          "velocity": 0.5905511811023622
        },
        {
          "duration": 0.17441860465116577,
          "durationTicks": 15,
          "midi": 58,
          "name": "A#3",
          "ticks": 2645,
          "time": 30.75581395348837,
          "velocity": 0.5275590551181102
        },
        {
          "duration": 0.034883720930235285,
          "durationTicks": 3,
          "midi": 73,
          "name": "C#5",
          "ticks": 2645,
          "time": 30.75581395348837,
          "velocity": 0.08661417322834646
        },
        {
          "duration": 0.02325581395349019,
          "durationTicks": 2,
          "midi": 53,
          "name": "F3",
          "ticks": 2646,
          "time": 30.767441860465116,
          "velocity": 0.5275590551181102
        },
        {
          "duration": 0.023255813953486637,
          "durationTicks": 2,
          "midi": 50,
          "name": "D3",
          "ticks": 2648,
          "time": 30.790697674418606,
          "velocity": 0.5905511811023622
        },
        {
          "duration": 0.02325581395349019,
          "durationTicks": 2,
          "midi": 52,
          "name": "E3",
          "ticks": 2650,
          "time": 30.813953488372093,
          "velocity": 0.4881889763779528
        },
        {
          "duration": 0.1860465116279073,
          "durationTicks": 16,
          "midi": 63,
          "name": "D#4",
          "ticks": 2651,
          "time": 30.825581395348838,
          "velocity": 0.5905511811023622
        },
        {
          "duration": 0.03488372093023173,
          "durationTicks": 3,
          "midi": 72,
          "name": "C5",
          "ticks": 2651,
          "time": 30.825581395348838,
          "velocity": 0.2047244094488189
        },
        {
          "duration": 0.03488372093023173,
          "durationTicks": 3,
          "midi": 80,
          "name": "G#5",
          "ticks": 2651,
          "time": 30.825581395348838,
          "velocity": 0.1732283464566929
        },
        {
          "duration": 0.1046511627906952,
          "durationTicks": 9,
          "midi": 51,
          "name": "D#3",
          "ticks": 2652,
          "time": 30.837209302325583,
          "velocity": 0.5039370078740157
        },
        {
          "duration": 0.034883720930235285,
          "durationTicks": 3,
          "midi": 69,
          "name": "A4",
          "ticks": 2653,
          "time": 30.848837209302324,
          "velocity": 0.3543307086614173
        },
        {
          "duration": 0.03488372093023173,
          "durationTicks": 3,
          "midi": 76,
          "name": "E5",
          "ticks": 2654,
          "time": 30.86046511627907,
          "velocity": 0.2204724409448819
        },
        {
          "duration": 0.10465116279069875,
          "durationTicks": 9,
          "midi": 70,
          "name": "A#4",
          "ticks": 2661,
          "time": 30.941860465116278,
          "velocity": 0.5511811023622047
        },
        {
          "duration": 0.02325581395349019,
          "durationTicks": 2,
          "midi": 78,
          "name": "F#5",
          "ticks": 2661,
          "time": 30.941860465116278,
          "velocity": 0.2755905511811024
        },
        {
          "duration": 0.034883720930235285,
          "durationTicks": 3,
          "midi": 81,
          "name": "A5",
          "ticks": 2661,
          "time": 30.941860465116278,
          "velocity": 0.25196850393700787
        },
        {
          "duration": 0.02325581395349019,
          "durationTicks": 2,
          "midi": 85,
          "name": "C#6",
          "ticks": 2661,
          "time": 30.941860465116278,
          "velocity": 0.2283464566929134
        },
        {
          "duration": 0.034883720930235285,
          "durationTicks": 3,
          "midi": 87,
          "name": "D#6",
          "ticks": 2661,
          "time": 30.941860465116278,
          "velocity": 0.25984251968503935
        },
        {
          "duration": 0.02325581395349019,
          "durationTicks": 2,
          "midi": 35,
          "name": "B1",
          "ticks": 2662,
          "time": 30.953488372093023,
          "velocity": 0.6220472440944882
        },
        {
          "duration": 0.02325581395349019,
          "durationTicks": 2,
          "midi": 50,
          "name": "D3",
          "ticks": 2662,
          "time": 30.953488372093023,
          "velocity": 0.6535433070866141
        },
        {
          "duration": 0.02325581395349019,
          "durationTicks": 2,
          "midi": 88,
          "name": "E6",
          "ticks": 2662,
          "time": 30.953488372093023,
          "velocity": 0.23622047244094488
        },
        {
          "duration": 0.06976744186046346,
          "durationTicks": 6,
          "midi": 79,
          "name": "G5",
          "ticks": 2663,
          "time": 30.96511627906977,
          "velocity": 0.18110236220472442
        },
        {
          "duration": 0.06976744186046346,
          "durationTicks": 6,
          "midi": 51,
          "name": "D#3",
          "ticks": 2664,
          "time": 30.976744186046513,
          "velocity": 0.6771653543307087
        },
        {
          "duration": 0.15116279069767202,
          "durationTicks": 13,
          "midi": 73,
          "name": "C#5",
          "ticks": 2664,
          "time": 30.976744186046513,
          "velocity": 0.30708661417322836
        },
        {
          "duration": 0.03488372093023173,
          "durationTicks": 3,
          "midi": 42,
          "name": "F#2",
          "ticks": 2665,
          "time": 30.988372093023255,
          "velocity": 0.6062992125984252
        },
        {
          "duration": 0.10465116279069875,
          "durationTicks": 9,
          "midi": 66,
          "name": "F#4",
          "ticks": 2665,
          "time": 30.988372093023255,
          "velocity": 0.36220472440944884
        },
        {
          "duration": 0.04651162790697683,
          "durationTicks": 4,
          "midi": 41,
          "name": "F2",
          "ticks": 2668,
          "time": 31.023255813953487,
          "velocity": 0.5826771653543307
        },
        {
          "duration": 0.03488372093023173,
          "durationTicks": 3,
          "midi": 54,
          "name": "F#3",
          "ticks": 2671,
          "time": 31.058139534883722,
          "velocity": 0.4330708661417323
        },
        {
          "duration": 0.05813953488372192,
          "durationTicks": 5,
          "midi": 55,
          "name": "G3",
          "ticks": 2674,
          "time": 31.093023255813954,
          "velocity": 0.3464566929133858
        },
        {
          "duration": 0.04651162790697683,
          "durationTicks": 4,
          "midi": 65,
          "name": "F4",
          "ticks": 2674,
          "time": 31.093023255813954,
          "velocity": 0.2125984251968504
        },
        {
          "duration": 0.02325581395349019,
          "durationTicks": 2,
          "midi": 29,
          "name": "F1",
          "ticks": 2681,
          "time": 31.174418604651162,
          "velocity": 0.4094488188976378
        },
        {
          "duration": 0.03488372093023173,
          "durationTicks": 3,
          "midi": 80,
          "name": "G#5",
          "ticks": 2681,
          "time": 31.174418604651162,
          "velocity": 0.2283464566929134
        },
        {
          "duration": 0.23255813953488413,
          "durationTicks": 20,
          "midi": 82,
          "name": "A#5",
          "ticks": 2681,
          "time": 31.174418604651162,
          "velocity": 0.33858267716535434
        },
        {
          "duration": 0.13953488372093048,
          "durationTicks": 12,
          "midi": 84,
          "name": "C6",
          "ticks": 2681,
          "time": 31.174418604651162,
          "velocity": 0.25196850393700787
        },
        {
          "duration": 0.03488372093023173,
          "durationTicks": 3,
          "midi": 87,
          "name": "D#6",
          "ticks": 2681,
          "time": 31.174418604651162,
          "velocity": 0.25984251968503935
        },
        {
          "duration": 0.13953488372093048,
          "durationTicks": 12,
          "midi": 88,
          "name": "E6",
          "ticks": 2681,
          "time": 31.174418604651162,
          "velocity": 0.29133858267716534
        },
        {
          "duration": 0.12790697674418539,
          "durationTicks": 11,
          "midi": 60,
          "name": "C4",
          "ticks": 2682,
          "time": 31.186046511627907,
          "velocity": 0.5984251968503937
        },
        {
          "duration": 0.04651162790697683,
          "durationTicks": 4,
          "midi": 63,
          "name": "D#4",
          "ticks": 2682,
          "time": 31.186046511627907,
          "velocity": 0.5748031496062992
        },
        {
          "duration": 0.13953488372093048,
          "durationTicks": 12,
          "midi": 67,
          "name": "G4",
          "ticks": 2682,
          "time": 31.186046511627907,
          "velocity": 0.4645669291338583
        },
        {
          "duration": 0.09302325581395365,
          "durationTicks": 8,
          "midi": 70,
          "name": "A#4",
          "ticks": 2682,
          "time": 31.186046511627907,
          "velocity": 0.5826771653543307
        },
        {
          "duration": 0.06976744186046346,
          "durationTicks": 6,
          "midi": 76,
          "name": "E5",
          "ticks": 2682,
          "time": 31.186046511627907,
          "velocity": 0.3228346456692913
        },
        {
          "duration": 0.023255813953486637,
          "durationTicks": 2,
          "midi": 77,
          "name": "F5",
          "ticks": 2682,
          "time": 31.186046511627907,
          "velocity": 0.25984251968503935
        },
        {
          "duration": 0.06976744186046346,
          "durationTicks": 6,
          "midi": 91,
          "name": "G6",
          "ticks": 2682,
          "time": 31.186046511627907,
          "velocity": 0.15748031496062992
        },
        {
          "duration": 0.011627906976741542,
          "durationTicks": 1,
          "midi": 47,
          "name": "B2",
          "ticks": 2683,
          "time": 31.197674418604652,
          "velocity": 0.5354330708661418
        },
        {
          "duration": 0.02325581395349019,
          "durationTicks": 2,
          "midi": 48,
          "name": "C3",
          "ticks": 2684,
          "time": 31.209302325581394,
          "velocity": 0.5590551181102362
        },
        {
          "duration": 0.011627906976741542,
          "durationTicks": 1,
          "midi": 50,
          "name": "D3",
          "ticks": 2687,
          "time": 31.24418604651163,
          "velocity": 0.5669291338582677
        },
        {
          "duration": 0.011627906976745095,
          "durationTicks": 1,
          "midi": 49,
          "name": "C#3",
          "ticks": 2688,
          "time": 31.25581395348837,
          "velocity": 0.5118110236220472
        },
        {
          "duration": 0.02325581395349019,
          "durationTicks": 2,
          "midi": 51,
          "name": "D#3",
          "ticks": 2689,
          "time": 31.267441860465116,
          "velocity": 0.5669291338582677
        },
        {
          "duration": 0.03488372093023173,
          "durationTicks": 3,
          "midi": 76,
          "name": "E5",
          "ticks": 2689,
          "time": 31.267441860465116,
          "velocity": 0.31496062992125984
        },
        {
          "duration": 0.011627906976741542,
          "durationTicks": 1,
          "midi": 50,
          "name": "D3",
          "ticks": 2691,
          "time": 31.290697674418606,
          "velocity": 0.5196850393700787
        },
        {
          "duration": 0.05813953488371837,
          "durationTicks": 5,
          "midi": 70,
          "name": "A#4",
          "ticks": 2691,
          "time": 31.290697674418606,
          "velocity": 0.1968503937007874
        },
        {
          "duration": 0.10465116279069875,
          "durationTicks": 9,
          "midi": 75,
          "name": "D#5",
          "ticks": 2692,
          "time": 31.302325581395348,
          "velocity": 0.28346456692913385
        },
        {
          "duration": 0.06976744186046346,
          "durationTicks": 6,
          "midi": 51,
          "name": "D#3",
          "ticks": 2694,
          "time": 31.325581395348838,
          "velocity": 0.4330708661417323
        },
        {
          "duration": 0.02325581395349019,
          "durationTicks": 2,
          "midi": 50,
          "name": "D3",
          "ticks": 2700,
          "time": 31.3953488372093,
          "velocity": 0.4566929133858268
        },
        {
          "duration": 0.011627906976745095,
          "durationTicks": 1,
          "midi": 64,
          "name": "E4",
          "ticks": 2701,
          "time": 31.406976744186046,
          "velocity": 0.5433070866141733
        },
        {
          "duration": 0.03488372093023173,
          "durationTicks": 3,
          "midi": 72,
          "name": "C5",
          "ticks": 2701,
          "time": 31.406976744186046,
          "velocity": 0.5118110236220472
        },
        {
          "duration": 0.03488372093023173,
          "durationTicks": 3,
          "midi": 77,
          "name": "F5",
          "ticks": 2701,
          "time": 31.406976744186046,
          "velocity": 0.2755905511811024
        },
        {
          "duration": 0.04651162790697683,
          "durationTicks": 4,
          "midi": 79,
          "name": "G5",
          "ticks": 2701,
          "time": 31.406976744186046,
          "velocity": 0.2440944881889764
        },
        {
          "duration": 0.13953488372093048,
          "durationTicks": 12,
          "midi": 81,
          "name": "A5",
          "ticks": 2701,
          "time": 31.406976744186046,
          "velocity": 0.33858267716535434
        },
        {
          "duration": 0.03488372093023173,
          "durationTicks": 3,
          "midi": 86,
          "name": "D6",
          "ticks": 2701,
          "time": 31.406976744186046,
          "velocity": 0.1889763779527559
        },
        {
          "duration": 0.10465116279069875,
          "durationTicks": 9,
          "midi": 90,
          "name": "F#6",
          "ticks": 2701,
          "time": 31.406976744186046,
          "velocity": 0.11811023622047244
        },
        {
          "duration": 0.011627906976745095,
          "durationTicks": 1,
          "midi": 35,
          "name": "B1",
          "ticks": 2702,
          "time": 31.41860465116279,
          "velocity": 0.5984251968503937
        },
        {
          "duration": 0.011627906976745095,
          "durationTicks": 1,
          "midi": 53,
          "name": "F3",
          "ticks": 2702,
          "time": 31.41860465116279,
          "velocity": 0.5669291338582677
        },
        {
          "duration": 0.22093023255813904,
          "durationTicks": 19,
          "midi": 65,
          "name": "F4",
          "ticks": 2702,
          "time": 31.41860465116279,
          "velocity": 0.6062992125984252
        },
        {
          "duration": 0.03488372093023173,
          "durationTicks": 3,
          "midi": 82,
          "name": "A#5",
          "ticks": 2702,
          "time": 31.41860465116279,
          "velocity": 0.2440944881889764
        },
        {
          "duration": 0.12790697674418539,
          "durationTicks": 11,
          "midi": 89,
          "name": "F6",
          "ticks": 2702,
          "time": 31.41860465116279,
          "velocity": 0.3228346456692913
        },
        {
          "duration": 0.03488372093023173,
          "durationTicks": 3,
          "midi": 97,
          "name": "C#7",
          "ticks": 2702,
          "time": 31.41860465116279,
          "velocity": 0.09448818897637795
        },
        {
          "duration": 0.011627906976741542,
          "durationTicks": 1,
          "midi": 30,
          "name": "F#1",
          "ticks": 2703,
          "time": 31.430232558139537,
          "velocity": 0.5118110236220472
        },
        {
          "duration": 0.011627906976741542,
          "durationTicks": 1,
          "midi": 40,
          "name": "E2",
          "ticks": 2703,
          "time": 31.430232558139537,
          "velocity": 0.5826771653543307
        },
        {
          "duration": 0.011627906976741542,
          "durationTicks": 1,
          "midi": 63,
          "name": "D#4",
          "ticks": 2703,
          "time": 31.430232558139537,
          "velocity": 0.5433070866141733
        },
        {
          "duration": 0.02325581395349019,
          "durationTicks": 2,
          "midi": 44,
          "name": "G#2",
          "ticks": 2704,
          "time": 31.441860465116278,
          "velocity": 0.48031496062992124
        },
        {
          "duration": 0.034883720930235285,
          "durationTicks": 3,
          "midi": 71,
          "name": "B4",
          "ticks": 2704,
          "time": 31.441860465116278,
          "velocity": 0.4409448818897638
        },
        {
          "duration": 0.12790697674418539,
          "durationTicks": 11,
          "midi": 87,
          "name": "D#6",
          "ticks": 2704,
          "time": 31.441860465116278,
          "velocity": 0.3937007874015748
        },
        {
          "duration": 0.04651162790697683,
          "durationTicks": 4,
          "midi": 55,
          "name": "G3",
          "ticks": 2705,
          "time": 31.453488372093023,
          "velocity": 0.5748031496062992
        },
        {
          "duration": 0.011627906976745095,
          "durationTicks": 1,
          "midi": 42,
          "name": "F#2",
          "ticks": 2706,
          "time": 31.46511627906977,
          "velocity": 0.6220472440944882
        },
        {
          "duration": 0.05813953488371837,
          "durationTicks": 5,
          "midi": 78,
          "name": "F#5",
          "ticks": 2706,
          "time": 31.46511627906977,
          "velocity": 0.2992125984251969
        },
        {
          "duration": 0.03488372093023173,
          "durationTicks": 3,
          "midi": 41,
          "name": "F2",
          "ticks": 2707,
          "time": 31.476744186046513,
          "velocity": 0.6614173228346457
        },
        {
          "duration": 0.05813953488371837,
          "durationTicks": 5,
          "midi": 72,
          "name": "C5",
          "ticks": 2707,
          "time": 31.476744186046513,
          "velocity": 0.4566929133858268
        },
        {
          "duration": 0.04651162790697683,
          "durationTicks": 4,
          "midi": 91,
          "name": "G6",
          "ticks": 2708,
          "time": 31.488372093023255,
          "velocity": 0.08661417322834646
        },
        {
          "duration": 0.05813953488372192,
          "durationTicks": 5,
          "midi": 59,
          "name": "B3",
          "ticks": 2709,
          "time": 31.5,
          "velocity": 0.49606299212598426
        },
        {
          "duration": 0.05813953488371837,
          "durationTicks": 5,
          "midi": 85,
          "name": "C#6",
          "ticks": 2710,
          "time": 31.511627906976745,
          "velocity": 0.23622047244094488
        },
        {
          "duration": 0.02325581395349019,
          "durationTicks": 2,
          "midi": 39,
          "name": "D#2",
          "ticks": 2711,
          "time": 31.523255813953487,
          "velocity": 0.3543307086614173
        },
        {
          "duration": 0.02325581395349019,
          "durationTicks": 2,
          "midi": 54,
          "name": "F#3",
          "ticks": 2711,
          "time": 31.523255813953487,
          "velocity": 0.49606299212598426
        },
        {
          "duration": 0.11627906976744384,
          "durationTicks": 10,
          "midi": 73,
          "name": "C#5",
          "ticks": 2712,
          "time": 31.53488372093023,
          "velocity": 0.4330708661417323
        },
        {
          "duration": 0.05813953488372192,
          "durationTicks": 5,
          "midi": 78,
          "name": "F#5",
          "ticks": 2712,
          "time": 31.53488372093023,
          "velocity": 0.31496062992125984
        },
        {
          "duration": 0.12790697674418539,
          "durationTicks": 11,
          "midi": 80,
          "name": "G#5",
          "ticks": 2712,
          "time": 31.53488372093023,
          "velocity": 0.25196850393700787
        },
        {
          "duration": 0.023255813953486637,
          "durationTicks": 2,
          "midi": 41,
          "name": "F2",
          "ticks": 2713,
          "time": 31.546511627906977,
          "velocity": 0.31496062992125984
        },
        {
          "duration": 0.08139534883720856,
          "durationTicks": 7,
          "midi": 55,
          "name": "G3",
          "ticks": 2713,
          "time": 31.546511627906977,
          "velocity": 0.4094488188976378
        },
        {
          "duration": 0.08139534883720856,
          "durationTicks": 7,
          "midi": 61,
          "name": "C#4",
          "ticks": 2714,
          "time": 31.558139534883722,
          "velocity": 0.3937007874015748
        },
        {
          "duration": 0.03488372093023173,
          "durationTicks": 3,
          "midi": 40,
          "name": "E2",
          "ticks": 2718,
          "time": 31.6046511627907,
          "velocity": 0.2755905511811024
        },
        {
          "duration": 0.023255813953486637,
          "durationTicks": 2,
          "midi": 75,
          "name": "D#5",
          "ticks": 2721,
          "time": 31.63953488372093,
          "velocity": 0.2992125984251969
        },
        {
          "duration": 0.13953488372093048,
          "durationTicks": 12,
          "midi": 79,
          "name": "G5",
          "ticks": 2721,
          "time": 31.63953488372093,
          "velocity": 0.2992125984251969
        },
        {
          "duration": 0.023255813953486637,
          "durationTicks": 2,
          "midi": 50,
          "name": "D3",
          "ticks": 2722,
          "time": 31.651162790697676,
          "velocity": 0.49606299212598426
        },
        {
          "duration": 0.11627906976744029,
          "durationTicks": 10,
          "midi": 63,
          "name": "D#4",
          "ticks": 2722,
          "time": 31.651162790697676,
          "velocity": 0.6220472440944882
        },
        {
          "duration": 0.05813953488371837,
          "durationTicks": 5,
          "midi": 72,
          "name": "C5",
          "ticks": 2722,
          "time": 31.651162790697676,
          "velocity": 0.5511811023622047
        },
        {
          "duration": 0.1046511627906952,
          "durationTicks": 9,
          "midi": 82,
          "name": "A#5",
          "ticks": 2722,
          "time": 31.651162790697676,
          "velocity": 0.1889763779527559
        },
        {
          "duration": 0.11627906976744384,
          "durationTicks": 10,
          "midi": 70,
          "name": "A#4",
          "ticks": 2723,
          "time": 31.662790697674417,
          "velocity": 0.4409448818897638
        },
        {
          "duration": 0.10465116279069875,
          "durationTicks": 9,
          "midi": 51,
          "name": "D#3",
          "ticks": 2724,
          "time": 31.674418604651162,
          "velocity": 0.5196850393700787
        },
        {
          "duration": 0.11627906976744384,
          "durationTicks": 10,
          "midi": 74,
          "name": "D5",
          "ticks": 2724,
          "time": 31.674418604651162,
          "velocity": 0.3228346456692913
        },
        {
          "duration": 0.10465116279069875,
          "durationTicks": 9,
          "midi": 81,
          "name": "A5",
          "ticks": 2725,
          "time": 31.686046511627907,
          "velocity": 0.25196850393700787
        },
        {
          "duration": 0.06976744186046702,
          "durationTicks": 6,
          "midi": 89,
          "name": "F6",
          "ticks": 2727,
          "time": 31.709302325581394,
          "velocity": 0.13385826771653545
        },
        {
          "duration": 0.011627906976745095,
          "durationTicks": 1,
          "midi": 64,
          "name": "E4",
          "ticks": 2732,
          "time": 31.767441860465116,
          "velocity": 0.6377952755905512
        },
        {
          "duration": 0.15116279069767558,
          "durationTicks": 13,
          "midi": 78,
          "name": "F#5",
          "ticks": 2732,
          "time": 31.767441860465116,
          "velocity": 0.4015748031496063
        },
        {
          "duration": 0.08139534883720856,
          "durationTicks": 7,
          "midi": 63,
          "name": "D#4",
          "ticks": 2733,
          "time": 31.77906976744186,
          "velocity": 0.6062992125984252
        },
        {
          "duration": 0.023255813953486637,
          "durationTicks": 2,
          "midi": 71,
          "name": "B4",
          "ticks": 2733,
          "time": 31.77906976744186,
          "velocity": 0.25984251968503935
        },
        {
          "duration": 0.09302325581395365,
          "durationTicks": 8,
          "midi": 73,
          "name": "C#5",
          "ticks": 2734,
          "time": 31.790697674418606,
          "velocity": 0.41732283464566927
        },
        {
          "duration": 0.05813953488372192,
          "durationTicks": 5,
          "midi": 54,
          "name": "F#3",
          "ticks": 2735,
          "time": 31.802325581395348,
          "velocity": 0.48031496062992124
        },
        {
          "duration": 0.06976744186046702,
          "durationTicks": 6,
          "midi": 59,
          "name": "B3",
          "ticks": 2735,
          "time": 31.802325581395348,
          "velocity": 0.4094488188976378
        },
        {
          "duration": 0.06976744186046702,
          "durationTicks": 6,
          "midi": 82,
          "name": "A#5",
          "ticks": 2735,
          "time": 31.802325581395348,
          "velocity": 0.14173228346456693
        },
        {
          "duration": 0.06976744186046702,
          "durationTicks": 6,
          "midi": 71,
          "name": "B4",
          "ticks": 2736,
          "time": 31.813953488372093,
          "velocity": 0.4251968503937008
        },
        {
          "duration": 0.02325581395349019,
          "durationTicks": 2,
          "midi": 55,
          "name": "G3",
          "ticks": 2740,
          "time": 31.86046511627907,
          "velocity": 0.5669291338582677
        },
        {
          "duration": 0.02325581395349019,
          "durationTicks": 2,
          "midi": 64,
          "name": "E4",
          "ticks": 2740,
          "time": 31.86046511627907,
          "velocity": 0.5590551181102362
        },
        {
          "duration": 0.011627906976745095,
          "durationTicks": 1,
          "midi": 35,
          "name": "B1",
          "ticks": 2741,
          "time": 31.872093023255815,
          "velocity": 0.5275590551181102
        },
        {
          "duration": 0.023255813953486637,
          "durationTicks": 2,
          "midi": 81,
          "name": "A5",
          "ticks": 2741,
          "time": 31.872093023255815,
          "velocity": 0.2440944881889764
        },
        {
          "duration": 0.13953488372092693,
          "durationTicks": 12,
          "midi": 91,
          "name": "G6",
          "ticks": 2741,
          "time": 31.872093023255815,
          "velocity": 0.1968503937007874
        },
        {
          "duration": 0.11627906976744029,
          "durationTicks": 10,
          "midi": 94,
          "name": "A#6",
          "ticks": 2741,
          "time": 31.872093023255815,
          "velocity": 0.14173228346456693
        },
        {
          "duration": 0.011627906976741542,
          "durationTicks": 1,
          "midi": 36,
          "name": "C2",
          "ticks": 2742,
          "time": 31.88372093023256,
          "velocity": 0.6062992125984252
        },
        {
          "duration": 0.011627906976741542,
          "durationTicks": 1,
          "midi": 50,
          "name": "D3",
          "ticks": 2742,
          "time": 31.88372093023256,
          "velocity": 0.6220472440944882
        },
        {
          "duration": 0.13953488372093048,
          "durationTicks": 12,
          "midi": 63,
          "name": "D#4",
          "ticks": 2742,
          "time": 31.88372093023256,
          "velocity": 0.6377952755905512
        },
        {
          "duration": 0.05813953488371837,
          "durationTicks": 5,
          "midi": 72,
          "name": "C5",
          "ticks": 2742,
          "time": 31.88372093023256,
          "velocity": 0.5354330708661418
        },
        {
          "duration": 0.023255813953486637,
          "durationTicks": 2,
          "midi": 74,
          "name": "D5",
          "ticks": 2742,
          "time": 31.88372093023256,
          "velocity": 0.33070866141732286
        },
        {
          "duration": 0.011627906976745095,
          "durationTicks": 1,
          "midi": 41,
          "name": "F2",
          "ticks": 2743,
          "time": 31.8953488372093,
          "velocity": 0.5669291338582677
        },
        {
          "duration": 0.011627906976745095,
          "durationTicks": 1,
          "midi": 51,
          "name": "D#3",
          "ticks": 2743,
          "time": 31.8953488372093,
          "velocity": 0.5748031496062992
        },
        {
          "duration": 0.13953488372093048,
          "durationTicks": 12,
          "midi": 70,
          "name": "A#4",
          "ticks": 2743,
          "time": 31.8953488372093,
          "velocity": 0.4881889763779528
        },
        {
          "duration": 0.02325581395349019,
          "durationTicks": 2,
          "midi": 44,
          "name": "G#2",
          "ticks": 2744,
          "time": 31.906976744186046,
          "velocity": 0.5433070866141733
        },
        {
          "duration": 0.02325581395349019,
          "durationTicks": 2,
          "midi": 55,
          "name": "G3",
          "ticks": 2744,
          "time": 31.906976744186046,
          "velocity": 0.5433070866141733
        },
        {
          "duration": 0.04651162790697683,
          "durationTicks": 4,
          "midi": 79,
          "name": "G5",
          "ticks": 2744,
          "time": 31.906976744186046,
          "velocity": 0.2755905511811024
        },
        {
          "duration": 0.04651162790697683,
          "durationTicks": 4,
          "midi": 41,
          "name": "F2",
          "ticks": 2746,
          "time": 31.930232558139537,
          "velocity": 0.6771653543307087
        },
        {
          "duration": 0.11627906976743674,
          "durationTicks": 10,
          "midi": 66,
          "name": "F#4",
          "ticks": 2746,
          "time": 31.930232558139537,
          "velocity": 0.3700787401574803
        },
        {
          "duration": 0.04651162790697683,
          "durationTicks": 4,
          "midi": 51,
          "name": "D#3",
          "ticks": 2748,
          "time": 31.953488372093023,
          "velocity": 0.5196850393700787
        },
        {
          "duration": 0.023255813953486637,
          "durationTicks": 2,
          "midi": 79,
          "name": "G5",
          "ticks": 2749,
          "time": 31.96511627906977,
          "velocity": 0.23622047244094488
        },
        {
          "duration": 0.03488372093023173,
          "durationTicks": 3,
          "midi": 89,
          "name": "F6",
          "ticks": 2749,
          "time": 31.96511627906977,
          "velocity": 0.07874015748031496
        },
        {
          "duration": 0.023255813953486637,
          "durationTicks": 2,
          "midi": 39,
          "name": "D#2",
          "ticks": 2751,
          "time": 31.988372093023255,
          "velocity": 0.33070866141732286
        },
        {
          "duration": 0.081395348837205,
          "durationTicks": 7,
          "midi": 79,
          "name": "G5",
          "ticks": 2754,
          "time": 32.02325581395349,
          "velocity": 0.15748031496062992
        },
        {
          "duration": 0.05813953488372192,
          "durationTicks": 5,
          "midi": 40,
          "name": "E2",
          "ticks": 2755,
          "time": 32.03488372093023,
          "velocity": 0.2283464566929134
        },
        {
          "duration": 0.1860465116279073,
          "durationTicks": 16,
          "midi": 63,
          "name": "D#4",
          "ticks": 2760,
          "time": 32.093023255813954,
          "velocity": 0.6220472440944882
        },
        {
          "duration": 0.046511627906973274,
          "durationTicks": 4,
          "midi": 80,
          "name": "G#5",
          "ticks": 2760,
          "time": 32.093023255813954,
          "velocity": 0.28346456692913385
        },
        {
          "duration": 0.05813953488372192,
          "durationTicks": 5,
          "midi": 84,
          "name": "C6",
          "ticks": 2760,
          "time": 32.093023255813954,
          "velocity": 0.25196850393700787
        },
        {
          "duration": 0.08139534883721211,
          "durationTicks": 7,
          "midi": 72,
          "name": "C5",
          "ticks": 2761,
          "time": 32.104651162790695,
          "velocity": 0.5354330708661418
        },
        {
          "duration": 0.023255813953483084,
          "durationTicks": 2,
          "midi": 48,
          "name": "C3",
          "ticks": 2762,
          "time": 32.116279069767444,
          "velocity": 0.6220472440944882
        },
        {
          "duration": 0.03488372093023173,
          "durationTicks": 3,
          "midi": 79,
          "name": "G5",
          "ticks": 2762,
          "time": 32.116279069767444,
          "velocity": 0.2204724409448819
        },
        {
          "duration": 0.03488372093023173,
          "durationTicks": 3,
          "midi": 82,
          "name": "A#5",
          "ticks": 2762,
          "time": 32.116279069767444,
          "velocity": 0.18110236220472442
        },
        {
          "duration": 0.011627906976748648,
          "durationTicks": 1,
          "midi": 50,
          "name": "D3",
          "ticks": 2764,
          "time": 32.13953488372093,
          "velocity": 0.6141732283464567
        },
        {
          "duration": 0.15116279069767558,
          "durationTicks": 13,
          "midi": 78,
          "name": "F#5",
          "ticks": 2764,
          "time": 32.13953488372093,
          "velocity": 0.4094488188976378
        },
        {
          "duration": 0.011627906976741542,
          "durationTicks": 1,
          "midi": 49,
          "name": "C#3",
          "ticks": 2765,
          "time": 32.151162790697676,
          "velocity": 0.5984251968503937
        },
        {
          "duration": 0.011627906976741542,
          "durationTicks": 1,
          "midi": 54,
          "name": "F#3",
          "ticks": 2765,
          "time": 32.151162790697676,
          "velocity": 0.5590551181102362
        },
        {
          "duration": 0.12790697674418539,
          "durationTicks": 11,
          "midi": 71,
          "name": "B4",
          "ticks": 2765,
          "time": 32.151162790697676,
          "velocity": 0.2992125984251969
        },
        {
          "duration": 0.03488372093023173,
          "durationTicks": 3,
          "midi": 80,
          "name": "G#5",
          "ticks": 2765,
          "time": 32.151162790697676,
          "velocity": 0.11023622047244094
        },
        {
          "duration": 0.1046511627906952,
          "durationTicks": 9,
          "midi": 85,
          "name": "C#6",
          "ticks": 2765,
          "time": 32.151162790697676,
          "velocity": 0.1732283464566929
        },
        {
          "duration": 0.011627906976748648,
          "durationTicks": 1,
          "midi": 50,
          "name": "D3",
          "ticks": 2766,
          "time": 32.16279069767442,
          "velocity": 0.6141732283464567
        },
        {
          "duration": 0.023255813953483084,
          "durationTicks": 2,
          "midi": 49,
          "name": "C#3",
          "ticks": 2767,
          "time": 32.174418604651166,
          "velocity": 0.5196850393700787
        },
        {
          "duration": 0.023255813953483084,
          "durationTicks": 2,
          "midi": 55,
          "name": "G3",
          "ticks": 2767,
          "time": 32.174418604651166,
          "velocity": 0.4330708661417323
        },
        {
          "duration": 0.023255813953483084,
          "durationTicks": 2,
          "midi": 60,
          "name": "C4",
          "ticks": 2767,
          "time": 32.174418604651166,
          "velocity": 0.4094488188976378
        },
        {
          "duration": 0.06976744186046346,
          "durationTicks": 6,
          "midi": 73,
          "name": "C#5",
          "ticks": 2768,
          "time": 32.18604651162791,
          "velocity": 0.28346456692913385
        },
        {
          "duration": 0.04651162790698038,
          "durationTicks": 4,
          "midi": 54,
          "name": "F#3",
          "ticks": 2769,
          "time": 32.19767441860465,
          "velocity": 0.49606299212598426
        },
        {
          "duration": 0.04651162790698038,
          "durationTicks": 4,
          "midi": 59,
          "name": "B3",
          "ticks": 2769,
          "time": 32.19767441860465,
          "velocity": 0.3858267716535433
        },
        {
          "duration": 0.02325581395349019,
          "durationTicks": 2,
          "midi": 55,
          "name": "G3",
          "ticks": 2773,
          "time": 32.24418604651163,
          "velocity": 0.48031496062992124
        },
        {
          "duration": 0.03488372093023173,
          "durationTicks": 3,
          "midi": 61,
          "name": "C#4",
          "ticks": 2774,
          "time": 32.25581395348837,
          "velocity": 0.1968503937007874
        },
        {
          "duration": 0.04651162790698038,
          "durationTicks": 4,
          "midi": 54,
          "name": "F#3",
          "ticks": 2777,
          "time": 32.2906976744186,
          "velocity": 0.1889763779527559
        },
        {
          "duration": 0.1279069767441925,
          "durationTicks": 11,
          "midi": 72,
          "name": "C5",
          "ticks": 2780,
          "time": 32.325581395348834,
          "velocity": 0.5748031496062992
        },
        {
          "duration": 0.03488372093023884,
          "durationTicks": 3,
          "midi": 79,
          "name": "G5",
          "ticks": 2780,
          "time": 32.325581395348834,
          "velocity": 0.25984251968503935
        },
        {
          "duration": 0.03488372093023884,
          "durationTicks": 3,
          "midi": 83,
          "name": "B5",
          "ticks": 2780,
          "time": 32.325581395348834,
          "velocity": 0.25984251968503935
        },
        {
          "duration": 0.02325581395349019,
          "durationTicks": 2,
          "midi": 88,
          "name": "E6",
          "ticks": 2780,
          "time": 32.325581395348834,
          "velocity": 0.28346456692913385
        },
        {
          "duration": 0.02325581395349019,
          "durationTicks": 2,
          "midi": 81,
          "name": "A5",
          "ticks": 2781,
          "time": 32.33720930232558,
          "velocity": 0.2440944881889764
        },
        {
          "duration": 0.011627906976748648,
          "durationTicks": 1,
          "midi": 40,
          "name": "E2",
          "ticks": 2782,
          "time": 32.348837209302324,
          "velocity": 0.6141732283464567
        },
        {
          "duration": 0.02325581395349019,
          "durationTicks": 2,
          "midi": 56,
          "name": "G#3",
          "ticks": 2782,
          "time": 32.348837209302324,
          "velocity": 0.5118110236220472
        },
        {
          "duration": 0.12790697674418539,
          "durationTicks": 11,
          "midi": 63,
          "name": "D#4",
          "ticks": 2782,
          "time": 32.348837209302324,
          "velocity": 0.5669291338582677
        },
        {
          "duration": 0.011627906976741542,
          "durationTicks": 1,
          "midi": 41,
          "name": "F2",
          "ticks": 2783,
          "time": 32.36046511627907,
          "velocity": 0.5826771653543307
        },
        {
          "duration": 0.02325581395349019,
          "durationTicks": 2,
          "midi": 44,
          "name": "G#2",
          "ticks": 2784,
          "time": 32.372093023255815,
          "velocity": 0.5275590551181102
        },
        {
          "duration": 0.011627906976741542,
          "durationTicks": 1,
          "midi": 53,
          "name": "F3",
          "ticks": 2784,
          "time": 32.372093023255815,
          "velocity": 0.5826771653543307
        },
        {
          "duration": 0.03488372093023173,
          "durationTicks": 3,
          "midi": 67,
          "name": "G4",
          "ticks": 2784,
          "time": 32.372093023255815,
          "velocity": 0.11811023622047244
        },
        {
          "duration": 0.046511627906973274,
          "durationTicks": 4,
          "midi": 74,
          "name": "D5",
          "ticks": 2784,
          "time": 32.372093023255815,
          "velocity": 0.13385826771653545
        },
        {
          "duration": 0.046511627906973274,
          "durationTicks": 4,
          "midi": 41,
          "name": "F2",
          "ticks": 2786,
          "time": 32.395348837209305,
          "velocity": 0.6535433070866141
        },
        {
          "duration": 0.1046511627906952,
          "durationTicks": 9,
          "midi": 55,
          "name": "G3",
          "ticks": 2787,
          "time": 32.406976744186046,
          "velocity": 0.47244094488188976
        },
        {
          "duration": 0.02325581395349019,
          "durationTicks": 2,
          "midi": 40,
          "name": "E2",
          "ticks": 2792,
          "time": 32.46511627906977,
          "velocity": 0.33858267716535434
        },
        {
          "duration": 0.05813953488372192,
          "durationTicks": 5,
          "midi": 40,
          "name": "E2",
          "ticks": 2795,
          "time": 32.5,
          "velocity": 0.2204724409448819
        },
        {
          "duration": 0.1046511627906952,
          "durationTicks": 9,
          "midi": 65,
          "name": "F4",
          "ticks": 2800,
          "time": 32.55813953488372,
          "velocity": 0.6141732283464567
        },
        {
          "duration": 0.02325581395349019,
          "durationTicks": 2,
          "midi": 79,
          "name": "G5",
          "ticks": 2800,
          "time": 32.55813953488372,
          "velocity": 0.3228346456692913
        },
        {
          "duration": 0.03488372093023173,
          "durationTicks": 3,
          "midi": 82,
          "name": "A#5",
          "ticks": 2800,
          "time": 32.55813953488372,
          "velocity": 0.2755905511811024
        },
        {
          "duration": 0.2674418604651123,
          "durationTicks": 23,
          "midi": 85,
          "name": "C#6",
          "ticks": 2800,
          "time": 32.55813953488372,
          "velocity": 0.29133858267716534
        },
        {
          "duration": 0.03488372093023173,
          "durationTicks": 3,
          "midi": 87,
          "name": "D#6",
          "ticks": 2800,
          "time": 32.55813953488372,
          "velocity": 0.2677165354330709
        },
        {
          "duration": 0.02325581395349019,
          "durationTicks": 2,
          "midi": 30,
          "name": "F#1",
          "ticks": 2801,
          "time": 32.56976744186046,
          "velocity": 0.47244094488188976
        },
        {
          "duration": 0.03488372093023173,
          "durationTicks": 3,
          "midi": 48,
          "name": "C3",
          "ticks": 2801,
          "time": 32.56976744186046,
          "velocity": 0.6141732283464567
        },
        {
          "duration": 0.11627906976744384,
          "durationTicks": 10,
          "midi": 61,
          "name": "C#4",
          "ticks": 2801,
          "time": 32.56976744186046,
          "velocity": 0.6299212598425197
        },
        {
          "duration": 0.05813953488372192,
          "durationTicks": 5,
          "midi": 72,
          "name": "C5",
          "ticks": 2801,
          "time": 32.56976744186046,
          "velocity": 0.5511811023622047
        },
        {
          "duration": 0.2325581395348877,
          "durationTicks": 20,
          "midi": 83,
          "name": "B5",
          "ticks": 2801,
          "time": 32.56976744186046,
          "velocity": 0.28346456692913385
        },
        {
          "duration": 0.2093023255813975,
          "durationTicks": 18,
          "midi": 89,
          "name": "F6",
          "ticks": 2801,
          "time": 32.56976744186046,
          "velocity": 0.25984251968503935
        },
        {
          "duration": 0.24418604651162212,
          "durationTicks": 21,
          "midi": 68,
          "name": "G#4",
          "ticks": 2802,
          "time": 32.58139534883721,
          "velocity": 0.47244094488188976
        },
        {
          "duration": 0.011627906976748648,
          "durationTicks": 1,
          "midi": 49,
          "name": "C#3",
          "ticks": 2804,
          "time": 32.604651162790695,
          "velocity": 0.6535433070866141
        },
        {
          "duration": 0.02325581395349019,
          "durationTicks": 2,
          "midi": 78,
          "name": "F#5",
          "ticks": 2804,
          "time": 32.604651162790695,
          "velocity": 0.28346456692913385
        },
        {
          "duration": 0.011627906976741542,
          "durationTicks": 1,
          "midi": 50,
          "name": "D3",
          "ticks": 2805,
          "time": 32.616279069767444,
          "velocity": 0.6535433070866141
        },
        {
          "duration": 0.06976744186046346,
          "durationTicks": 6,
          "midi": 71,
          "name": "B4",
          "ticks": 2805,
          "time": 32.616279069767444,
          "velocity": 0.3228346456692913
        },
        {
          "duration": 0.011627906976741542,
          "durationTicks": 1,
          "midi": 49,
          "name": "C#3",
          "ticks": 2806,
          "time": 32.627906976744185,
          "velocity": 0.5590551181102362
        },
        {
          "duration": 0.011627906976741542,
          "durationTicks": 1,
          "midi": 52,
          "name": "E3",
          "ticks": 2806,
          "time": 32.627906976744185,
          "velocity": 0.5511811023622047
        },
        {
          "duration": 0.02325581395349019,
          "durationTicks": 2,
          "midi": 54,
          "name": "F#3",
          "ticks": 2807,
          "time": 32.63953488372093,
          "velocity": 0.5196850393700787
        },
        {
          "duration": 0.02325581395349019,
          "durationTicks": 2,
          "midi": 78,
          "name": "F#5",
          "ticks": 2807,
          "time": 32.63953488372093,
          "velocity": 0.31496062992125984
        },
        {
          "duration": 0.02325581395349019,
          "durationTicks": 2,
          "midi": 50,
          "name": "D3",
          "ticks": 2808,
          "time": 32.651162790697676,
          "velocity": 0.5433070866141733
        },
        {
          "duration": 0.02325581395349019,
          "durationTicks": 2,
          "midi": 77,
          "name": "F5",
          "ticks": 2809,
          "time": 32.66279069767442,
          "velocity": 0.29133858267716534
        },
        {
          "duration": 0.13953488372092693,
          "durationTicks": 12,
          "midi": 49,
          "name": "C#3",
          "ticks": 2810,
          "time": 32.674418604651166,
          "velocity": 0.5669291338582677
        },
        {
          "duration": 0.03488372093023173,
          "durationTicks": 3,
          "midi": 54,
          "name": "F#3",
          "ticks": 2810,
          "time": 32.674418604651166,
          "velocity": 0.47244094488188976
        },
        {
          "duration": 0.03488372093023173,
          "durationTicks": 3,
          "midi": 74,
          "name": "D5",
          "ticks": 2810,
          "time": 32.674418604651166,
          "velocity": 0.18110236220472442
        },
        {
          "duration": 0.046511627906973274,
          "durationTicks": 4,
          "midi": 78,
          "name": "F#5",
          "ticks": 2810,
          "time": 32.674418604651166,
          "velocity": 0.28346456692913385
        },
        {
          "duration": 0.03488372093023173,
          "durationTicks": 3,
          "midi": 87,
          "name": "D#6",
          "ticks": 2810,
          "time": 32.674418604651166,
          "velocity": 0.13385826771653545
        },
        {
          "duration": 0.011627906976741542,
          "durationTicks": 1,
          "midi": 62,
          "name": "D4",
          "ticks": 2811,
          "time": 32.68604651162791,
          "velocity": 0.6141732283464567
        },
        {
          "duration": 0.02325581395349019,
          "durationTicks": 2,
          "midi": 72,
          "name": "C5",
          "ticks": 2811,
          "time": 32.68604651162791,
          "velocity": 0.25196850393700787
        },
        {
          "duration": 0.011627906976748648,
          "durationTicks": 1,
          "midi": 61,
          "name": "C#4",
          "ticks": 2812,
          "time": 32.69767441860465,
          "velocity": 0.5748031496062992
        },
        {
          "duration": 0.03488372093023173,
          "durationTicks": 3,
          "midi": 63,
          "name": "D#4",
          "ticks": 2812,
          "time": 32.69767441860465,
          "velocity": 0.6535433070866141
        },
        {
          "duration": 0.03488372093023173,
          "durationTicks": 3,
          "midi": 70,
          "name": "A#4",
          "ticks": 2812,
          "time": 32.69767441860465,
          "velocity": 0.28346456692913385
        },
        {
          "duration": 0.12790697674418539,
          "durationTicks": 11,
          "midi": 77,
          "name": "F5",
          "ticks": 2812,
          "time": 32.69767441860465,
          "velocity": 0.2992125984251969
        },
        {
          "duration": 0.09302325581395365,
          "durationTicks": 8,
          "midi": 73,
          "name": "C#5",
          "ticks": 2813,
          "time": 32.7093023255814,
          "velocity": 0.30708661417322836
        },
        {
          "duration": 0.08139534883721211,
          "durationTicks": 7,
          "midi": 61,
          "name": "C#4",
          "ticks": 2814,
          "time": 32.72093023255814,
          "velocity": 0.6141732283464567
        },
        {
          "duration": 0.02325581395349019,
          "durationTicks": 2,
          "midi": 81,
          "name": "A5",
          "ticks": 2820,
          "time": 32.7906976744186,
          "velocity": 0.25196850393700787
        },
        {
          "duration": 0.12790697674418539,
          "durationTicks": 11,
          "midi": 86,
          "name": "D6",
          "ticks": 2820,
          "time": 32.7906976744186,
          "velocity": 0.2992125984251969
        },
        {
          "duration": 0.03488372093023173,
          "durationTicks": 3,
          "midi": 87,
          "name": "D#6",
          "ticks": 2820,
          "time": 32.7906976744186,
          "velocity": 0.2677165354330709
        },
        {
          "duration": 0.12790697674418539,
          "durationTicks": 11,
          "midi": 88,
          "name": "E6",
          "ticks": 2820,
          "time": 32.7906976744186,
          "velocity": 0.3700787401574803
        },
        {
          "duration": 0.1046511627907023,
          "durationTicks": 9,
          "midi": 90,
          "name": "F#6",
          "ticks": 2820,
          "time": 32.7906976744186,
          "velocity": 0.16535433070866143
        },
        {
          "duration": 0.011627906976741542,
          "durationTicks": 1,
          "midi": 35,
          "name": "B1",
          "ticks": 2821,
          "time": 32.80232558139535,
          "velocity": 0.5826771653543307
        },
        {
          "duration": 0.011627906976741542,
          "durationTicks": 1,
          "midi": 62,
          "name": "D4",
          "ticks": 2821,
          "time": 32.80232558139535,
          "velocity": 0.6299212598425197
        },
        {
          "duration": 0.046511627906973274,
          "durationTicks": 4,
          "midi": 72,
          "name": "C5",
          "ticks": 2821,
          "time": 32.80232558139535,
          "velocity": 0.5905511811023622
        },
        {
          "duration": 0.081395348837205,
          "durationTicks": 7,
          "midi": 82,
          "name": "A#5",
          "ticks": 2821,
          "time": 32.80232558139535,
          "velocity": 0.23622047244094488
        },
        {
          "duration": 0.011627906976741542,
          "durationTicks": 1,
          "midi": 36,
          "name": "C2",
          "ticks": 2822,
          "time": 32.81395348837209,
          "velocity": 0.6062992125984252
        },
        {
          "duration": 0.011627906976741542,
          "durationTicks": 1,
          "midi": 50,
          "name": "D3",
          "ticks": 2822,
          "time": 32.81395348837209,
          "velocity": 0.5748031496062992
        },
        {
          "duration": 0.02325581395349019,
          "durationTicks": 2,
          "midi": 63,
          "name": "D#4",
          "ticks": 2822,
          "time": 32.81395348837209,
          "velocity": 0.6692913385826772
        },
        {
          "duration": 0.02325581395349019,
          "durationTicks": 2,
          "midi": 76,
          "name": "E5",
          "ticks": 2822,
          "time": 32.81395348837209,
          "velocity": 0.23622047244094488
        },
        {
          "duration": 0.1046511627906952,
          "durationTicks": 9,
          "midi": 83,
          "name": "B5",
          "ticks": 2822,
          "time": 32.81395348837209,
          "velocity": 0.23622047244094488
        },
        {
          "duration": 0.011627906976748648,
          "durationTicks": 1,
          "midi": 41,
          "name": "F2",
          "ticks": 2823,
          "time": 32.825581395348834,
          "velocity": 0.5433070866141733
        },
        {
          "duration": 0.011627906976748648,
          "durationTicks": 1,
          "midi": 52,
          "name": "E3",
          "ticks": 2823,
          "time": 32.825581395348834,
          "velocity": 0.5511811023622047
        },
        {
          "duration": 0.011627906976741542,
          "durationTicks": 1,
          "midi": 53,
          "name": "F3",
          "ticks": 2824,
          "time": 32.83720930232558,
          "velocity": 0.5669291338582677
        },
        {
          "duration": 0.09302325581395365,
          "durationTicks": 8,
          "midi": 64,
          "name": "E4",
          "ticks": 2824,
          "time": 32.83720930232558,
          "velocity": 0.6062992125984252
        },
        {
          "duration": 0.1860465116279073,
          "durationTicks": 16,
          "midi": 71,
          "name": "B4",
          "ticks": 2824,
          "time": 32.83720930232558,
          "velocity": 0.49606299212598426
        },
        {
          "duration": 0.02325581395349019,
          "durationTicks": 2,
          "midi": 74,
          "name": "D5",
          "ticks": 2824,
          "time": 32.83720930232558,
          "velocity": 0.2677165354330709
        },
        {
          "duration": 0.011627906976748648,
          "durationTicks": 1,
          "midi": 47,
          "name": "B2",
          "ticks": 2825,
          "time": 32.848837209302324,
          "velocity": 0.5590551181102362
        },
        {
          "duration": 0.011627906976748648,
          "durationTicks": 1,
          "midi": 52,
          "name": "E3",
          "ticks": 2825,
          "time": 32.848837209302324,
          "velocity": 0.5669291338582677
        },
        {
          "duration": 0.09302325581395365,
          "durationTicks": 8,
          "midi": 68,
          "name": "G#4",
          "ticks": 2825,
          "time": 32.848837209302324,
          "velocity": 0.3464566929133858
        },
        {
          "duration": 0.046511627906973274,
          "durationTicks": 4,
          "midi": 41,
          "name": "F2",
          "ticks": 2826,
          "time": 32.86046511627907,
          "velocity": 0.6535433070866141
        },
        {
          "duration": 0.011627906976741542,
          "durationTicks": 1,
          "midi": 51,
          "name": "D#3",
          "ticks": 2826,
          "time": 32.86046511627907,
          "velocity": 0.6062992125984252
        },
        {
          "duration": 0.09302325581395365,
          "durationTicks": 8,
          "midi": 75,
          "name": "D#5",
          "ticks": 2826,
          "time": 32.86046511627907,
          "velocity": 0.23622047244094488
        },
        {
          "duration": 0.05813953488372192,
          "durationTicks": 5,
          "midi": 52,
          "name": "E3",
          "ticks": 2827,
          "time": 32.872093023255815,
          "velocity": 0.6141732283464567
        },
        {
          "duration": 0.03488372093023173,
          "durationTicks": 3,
          "midi": 96,
          "name": "C7",
          "ticks": 2829,
          "time": 32.895348837209305,
          "velocity": 0.09448818897637795
        },
        {
          "duration": 0.02325581395349019,
          "durationTicks": 2,
          "midi": 65,
          "name": "F4",
          "ticks": 2832,
          "time": 32.93023255813954,
          "velocity": 0.25196850393700787
        },
        {
          "duration": 0.03488372093023173,
          "durationTicks": 3,
          "midi": 41,
          "name": "F2",
          "ticks": 2833,
          "time": 32.94186046511628,
          "velocity": 0.29133858267716534
        },
        {
          "duration": 0.05813953488372192,
          "durationTicks": 5,
          "midi": 57,
          "name": "A3",
          "ticks": 2833,
          "time": 32.94186046511628,
          "velocity": 0.3464566929133858
        },
        {
          "duration": 0.09302325581394655,
          "durationTicks": 8,
          "midi": 64,
          "name": "E4",
          "ticks": 2834,
          "time": 32.95348837209303,
          "velocity": 0.5669291338582677
        },
        {
          "duration": 0.06976744186046346,
          "durationTicks": 6,
          "midi": 49,
          "name": "C#3",
          "ticks": 2835,
          "time": 32.96511627906977,
          "velocity": 0.29133858267716534
        },
        {
          "duration": 0.04651162790698038,
          "durationTicks": 4,
          "midi": 40,
          "name": "E2",
          "ticks": 2836,
          "time": 32.97674418604651,
          "velocity": 0.2125984251968504
        },
        {
          "duration": 0.24418604651162923,
          "durationTicks": 21,
          "midi": 78,
          "name": "F#5",
          "ticks": 2840,
          "time": 33.02325581395349,
          "velocity": 0.33070866141732286
        },
        {
          "duration": 0.24418604651162923,
          "durationTicks": 21,
          "midi": 82,
          "name": "A#5",
          "ticks": 2840,
          "time": 33.02325581395349,
          "velocity": 0.3464566929133858
        },
        {
          "duration": 0.11627906976743674,
          "durationTicks": 10,
          "midi": 88,
          "name": "E6",
          "ticks": 2840,
          "time": 33.02325581395349,
          "velocity": 0.33070866141732286
        },
        {
          "duration": 0.046511627906973274,
          "durationTicks": 4,
          "midi": 89,
          "name": "F6",
          "ticks": 2840,
          "time": 33.02325581395349,
          "velocity": 0.28346456692913385
        },
        {
          "duration": 0.02325581395349019,
          "durationTicks": 2,
          "midi": 29,
          "name": "F1",
          "ticks": 2841,
          "time": 33.03488372093023,
          "velocity": 0.36220472440944884
        },
        {
          "duration": 0.46511627906976827,
          "durationTicks": 40,
          "midi": 66,
          "name": "F#4",
          "ticks": 2841,
          "time": 33.03488372093023,
          "velocity": 0.6220472440944882
        },
        {
          "duration": 0.03488372093023173,
          "durationTicks": 3,
          "midi": 72,
          "name": "C5",
          "ticks": 2841,
          "time": 33.03488372093023,
          "velocity": 0.5984251968503937
        },
        {
          "duration": 0.02325581395349019,
          "durationTicks": 2,
          "midi": 75,
          "name": "D#5",
          "ticks": 2841,
          "time": 33.03488372093023,
          "velocity": 0.28346456692913385
        },
        {
          "duration": 0.02325581395349019,
          "durationTicks": 2,
          "midi": 83,
          "name": "B5",
          "ticks": 2841,
          "time": 33.03488372093023,
          "velocity": 0.23622047244094488
        },
        {
          "duration": 0.4767441860465098,
          "durationTicks": 41,
          "midi": 85,
          "name": "C#6",
          "ticks": 2841,
          "time": 33.03488372093023,
          "velocity": 0.33070866141732286
        },
        {
          "duration": 0.4767441860465098,
          "durationTicks": 41,
          "midi": 90,
          "name": "F#6",
          "ticks": 2841,
          "time": 33.03488372093023,
          "velocity": 0.3543307086614173
        },
        {
          "duration": 0.08139534883721211,
          "durationTicks": 7,
          "midi": 54,
          "name": "F#3",
          "ticks": 2842,
          "time": 33.04651162790697,
          "velocity": 0.5118110236220472
        },
        {
          "duration": 0.06976744186047057,
          "durationTicks": 6,
          "midi": 63,
          "name": "D#4",
          "ticks": 2842,
          "time": 33.04651162790697,
          "velocity": 0.5748031496062992
        },
        {
          "duration": 0.22093023255814614,
          "durationTicks": 19,
          "midi": 80,
          "name": "G#5",
          "ticks": 2842,
          "time": 33.04651162790697,
          "velocity": 0.30708661417322836
        },
        {
          "duration": 0.43023255813952943,
          "durationTicks": 37,
          "midi": 73,
          "name": "C#5",
          "ticks": 2845,
          "time": 33.08139534883721,
          "velocity": 0.5039370078740157
        },
        {
          "duration": 0.02325581395349019,
          "durationTicks": 2,
          "midi": 53,
          "name": "F3",
          "ticks": 2849,
          "time": 33.127906976744185,
          "velocity": 0.29133858267716534
        },
        {
          "duration": 0.11627906976744384,
          "durationTicks": 10,
          "midi": 61,
          "name": "C#4",
          "ticks": 2850,
          "time": 33.13953488372093,
          "velocity": 0.36220472440944884
        },
        {
          "duration": 0.02325581395349019,
          "durationTicks": 2,
          "midi": 87,
          "name": "D#6",
          "ticks": 2850,
          "time": 33.13953488372093,
          "velocity": 0.25196850393700787
        },
        {
          "duration": 0.12790697674418539,
          "durationTicks": 11,
          "midi": 54,
          "name": "F#3",
          "ticks": 2851,
          "time": 33.151162790697676,
          "velocity": 0.5590551181102362
        },
        {
          "duration": 0.3720930232558146,
          "durationTicks": 32,
          "midi": 88,
          "name": "E6",
          "ticks": 2852,
          "time": 33.16279069767442,
          "velocity": 0.4330708661417323
        },
        {
          "duration": 0.03488372093023173,
          "durationTicks": 3,
          "midi": 81,
          "name": "A5",
          "ticks": 2860,
          "time": 33.25581395348837,
          "velocity": 0.33070866141732286
        },
        {
          "duration": 0.03488372093023173,
          "durationTicks": 3,
          "midi": 86,
          "name": "D6",
          "ticks": 2860,
          "time": 33.25581395348837,
          "velocity": 0.2677165354330709
        },
        {
          "duration": 0.03488372093023173,
          "durationTicks": 3,
          "midi": 89,
          "name": "F6",
          "ticks": 2860,
          "time": 33.25581395348837,
          "velocity": 0.25984251968503935
        },
        {
          "duration": 0.011627906976741542,
          "durationTicks": 1,
          "midi": 35,
          "name": "B1",
          "ticks": 2861,
          "time": 33.26744186046512,
          "velocity": 0.5669291338582677
        },
        {
          "duration": 0.06976744186046346,
          "durationTicks": 6,
          "midi": 63,
          "name": "D#4",
          "ticks": 2861,
          "time": 33.26744186046512,
          "velocity": 0.5984251968503937
        },
        {
          "duration": 0.03488372093023173,
          "durationTicks": 3,
          "midi": 69,
          "name": "A4",
          "ticks": 2861,
          "time": 33.26744186046512,
          "velocity": 0.2125984251968504
        },
        {
          "duration": 0.023255813953483084,
          "durationTicks": 2,
          "midi": 79,
          "name": "G5",
          "ticks": 2861,
          "time": 33.26744186046512,
          "velocity": 0.31496062992125984
        },
        {
          "duration": 0.023255813953483084,
          "durationTicks": 2,
          "midi": 83,
          "name": "B5",
          "ticks": 2861,
          "time": 33.26744186046512,
          "velocity": 0.29133858267716534
        },
        {
          "duration": 0.011627906976741542,
          "durationTicks": 1,
          "midi": 41,
          "name": "F2",
          "ticks": 2862,
          "time": 33.27906976744186,
          "velocity": 0.5905511811023622
        },
        {
          "duration": 0.25581395348837077,
          "durationTicks": 22,
          "midi": 82,
          "name": "A#5",
          "ticks": 2863,
          "time": 33.2906976744186,
          "velocity": 0.3937007874015748
        },
        {
          "duration": 0.011627906976741542,
          "durationTicks": 1,
          "midi": 56,
          "name": "G#3",
          "ticks": 2864,
          "time": 33.30232558139535,
          "velocity": 0.5433070866141733
        },
        {
          "duration": 0.12790697674418539,
          "durationTicks": 11,
          "midi": 70,
          "name": "A#4",
          "ticks": 2864,
          "time": 33.30232558139535,
          "velocity": 0.23622047244094488
        },
        {
          "duration": 0.011627906976741542,
          "durationTicks": 1,
          "midi": 40,
          "name": "E2",
          "ticks": 2865,
          "time": 33.31395348837209,
          "velocity": 0.6456692913385826
        },
        {
          "duration": 0.02325581395349019,
          "durationTicks": 2,
          "midi": 42,
          "name": "F#2",
          "ticks": 2866,
          "time": 33.325581395348834,
          "velocity": 0.6614173228346457
        },
        {
          "duration": 0.11627906976744384,
          "durationTicks": 10,
          "midi": 84,
          "name": "C6",
          "ticks": 2866,
          "time": 33.325581395348834,
          "velocity": 0.14173228346456693
        },
        {
          "duration": 0.03488372093023884,
          "durationTicks": 3,
          "midi": 89,
          "name": "F6",
          "ticks": 2866,
          "time": 33.325581395348834,
          "velocity": 0.07086614173228346
        },
        {
          "duration": 0.011627906976741542,
          "durationTicks": 1,
          "midi": 53,
          "name": "F3",
          "ticks": 2867,
          "time": 33.33720930232558,
          "velocity": 0.5118110236220472
        },
        {
          "duration": 0.1046511627906952,
          "durationTicks": 9,
          "midi": 77,
          "name": "F5",
          "ticks": 2867,
          "time": 33.33720930232558,
          "velocity": 0.23622047244094488
        },
        {
          "duration": 0.011627906976748648,
          "durationTicks": 1,
          "midi": 41,
          "name": "F2",
          "ticks": 2868,
          "time": 33.348837209302324,
          "velocity": 0.5118110236220472
        },
        {
          "duration": 0.13953488372093403,
          "durationTicks": 12,
          "midi": 54,
          "name": "F#3",
          "ticks": 2868,
          "time": 33.348837209302324,
          "velocity": 0.5511811023622047
        },
        {
          "duration": 0.02325581395349019,
          "durationTicks": 2,
          "midi": 58,
          "name": "A#3",
          "ticks": 2870,
          "time": 33.372093023255815,
          "velocity": 0.3700787401574803
        },
        {
          "duration": 0.02325581395349019,
          "durationTicks": 2,
          "midi": 41,
          "name": "F2",
          "ticks": 2871,
          "time": 33.383720930232556,
          "velocity": 0.2755905511811024
        },
        {
          "duration": 0.1046511627907023,
          "durationTicks": 9,
          "midi": 61,
          "name": "C#4",
          "ticks": 2871,
          "time": 33.383720930232556,
          "velocity": 0.4251968503937008
        },
        {
          "duration": 0.09302325581395365,
          "durationTicks": 8,
          "midi": 80,
          "name": "G#5",
          "ticks": 2872,
          "time": 33.395348837209305,
          "velocity": 0.1732283464566929
        },
        {
          "duration": 0.03488372093023173,
          "durationTicks": 3,
          "midi": 98,
          "name": "D7",
          "ticks": 2873,
          "time": 33.406976744186046,
          "velocity": 0.09448818897637795
        },
        {
          "duration": 0.03488372093023884,
          "durationTicks": 3,
          "midi": 95,
          "name": "B6",
          "ticks": 2874,
          "time": 33.41860465116279,
          "velocity": 0.07086614173228346
        },
        {
          "duration": 0.03488372093023173,
          "durationTicks": 3,
          "midi": 40,
          "name": "E2",
          "ticks": 2875,
          "time": 33.43023255813954,
          "velocity": 0.14960629921259844
        },
        {
          "duration": 0.1046511627906952,
          "durationTicks": 9,
          "midi": 75,
          "name": "D#5",
          "ticks": 2880,
          "time": 33.48837209302326,
          "velocity": 0.5984251968503937
        },
        {
          "duration": 0.16279069767441712,
          "durationTicks": 14,
          "midi": 84,
          "name": "C6",
          "ticks": 2880,
          "time": 33.48837209302326,
          "velocity": 0.31496062992125984
        },
        {
          "duration": 0.12790697674418539,
          "durationTicks": 11,
          "midi": 89,
          "name": "F6",
          "ticks": 2880,
          "time": 33.48837209302326,
          "velocity": 0.3464566929133858
        },
        {
          "duration": 0.02325581395349019,
          "durationTicks": 2,
          "midi": 29,
          "name": "F1",
          "ticks": 2881,
          "time": 33.5,
          "velocity": 0.3858267716535433
        },
        {
          "duration": 0.02325581395349019,
          "durationTicks": 2,
          "midi": 52,
          "name": "E3",
          "ticks": 2881,
          "time": 33.5,
          "velocity": 0.5039370078740157
        },
        {
          "duration": 0.11627906976744384,
          "durationTicks": 10,
          "midi": 58,
          "name": "A#3",
          "ticks": 2881,
          "time": 33.5,
          "velocity": 0.5275590551181102
        },
        {
          "duration": 0.12790697674418539,
          "durationTicks": 11,
          "midi": 77,
          "name": "F5",
          "ticks": 2881,
          "time": 33.5,
          "velocity": 0.3779527559055118
        },
        {
          "duration": 0.1046511627906952,
          "durationTicks": 9,
          "midi": 81,
          "name": "A5",
          "ticks": 2881,
          "time": 33.5,
          "velocity": 0.3700787401574803
        },
        {
          "duration": 0.09302325581395365,
          "durationTicks": 8,
          "midi": 65,
          "name": "F4",
          "ticks": 2882,
          "time": 33.51162790697674,
          "velocity": 0.6062992125984252
        },
        {
          "duration": 0.1046511627907023,
          "durationTicks": 9,
          "midi": 72,
          "name": "C5",
          "ticks": 2882,
          "time": 33.51162790697674,
          "velocity": 0.4094488188976378
        },
        {
          "duration": 0.081395348837205,
          "durationTicks": 7,
          "midi": 53,
          "name": "F3",
          "ticks": 2883,
          "time": 33.52325581395349,
          "velocity": 0.4881889763779528
        },
        {
          "duration": 0.05813953488372192,
          "durationTicks": 5,
          "midi": 88,
          "name": "E6",
          "ticks": 2887,
          "time": 33.56976744186046,
          "velocity": 0.1889763779527559
        },
        {
          "duration": 0.011627906976748648,
          "durationTicks": 1,
          "midi": 64,
          "name": "E4",
          "ticks": 2890,
          "time": 33.604651162790695,
          "velocity": 0.5590551181102362
        },
        {
          "duration": 0.011627906976741542,
          "durationTicks": 1,
          "midi": 57,
          "name": "A3",
          "ticks": 2891,
          "time": 33.616279069767444,
          "velocity": 0.5275590551181102
        },
        {
          "duration": 0.12790697674418539,
          "durationTicks": 11,
          "midi": 63,
          "name": "D#4",
          "ticks": 2891,
          "time": 33.616279069767444,
          "velocity": 0.6456692913385826
        },
        {
          "duration": 0.12790697674418539,
          "durationTicks": 11,
          "midi": 68,
          "name": "G#4",
          "ticks": 2891,
          "time": 33.616279069767444,
          "velocity": 0.3543307086614173
        },
        {
          "duration": 0.023255813953483084,
          "durationTicks": 2,
          "midi": 73,
          "name": "C#5",
          "ticks": 2891,
          "time": 33.616279069767444,
          "velocity": 0.23622047244094488
        },
        {
          "duration": 0.011627906976741542,
          "durationTicks": 1,
          "midi": 55,
          "name": "G3",
          "ticks": 2892,
          "time": 33.627906976744185,
          "velocity": 0.5433070866141733
        },
        {
          "duration": 0.02325581395349019,
          "durationTicks": 2,
          "midi": 56,
          "name": "G#3",
          "ticks": 2893,
          "time": 33.63953488372093,
          "velocity": 0.5669291338582677
        },
        {
          "duration": 0.09302325581395365,
          "durationTicks": 8,
          "midi": 72,
          "name": "C5",
          "ticks": 2893,
          "time": 33.63953488372093,
          "velocity": 0.3543307086614173
        },
        {
          "duration": 0.05813953488372192,
          "durationTicks": 5,
          "midi": 77,
          "name": "F5",
          "ticks": 2893,
          "time": 33.63953488372093,
          "velocity": 0.1732283464566929
        },
        {
          "duration": 0.011627906976748648,
          "durationTicks": 1,
          "midi": 55,
          "name": "G3",
          "ticks": 2895,
          "time": 33.66279069767442,
          "velocity": 0.5748031496062992
        },
        {
          "duration": 0.023255813953483084,
          "durationTicks": 2,
          "midi": 56,
          "name": "G#3",
          "ticks": 2896,
          "time": 33.674418604651166,
          "velocity": 0.5511811023622047
        },
        {
          "duration": 0.011627906976748648,
          "durationTicks": 1,
          "midi": 55,
          "name": "G3",
          "ticks": 2898,
          "time": 33.69767441860465,
          "velocity": 0.5826771653543307
        },
        {
          "duration": 0.011627906976741542,
          "durationTicks": 1,
          "midi": 56,
          "name": "G#3",
          "ticks": 2899,
          "time": 33.7093023255814,
          "velocity": 0.5590551181102362
        },
        {
          "duration": 0.023255813953483084,
          "durationTicks": 2,
          "midi": 66,
          "name": "F#4",
          "ticks": 2899,
          "time": 33.7093023255814,
          "velocity": 0.36220472440944884
        },
        {
          "duration": 0.023255813953483084,
          "durationTicks": 2,
          "midi": 79,
          "name": "G5",
          "ticks": 2899,
          "time": 33.7093023255814,
          "velocity": 0.33070866141732286
        },
        {
          "duration": 0.02325581395349019,
          "durationTicks": 2,
          "midi": 35,
          "name": "B1",
          "ticks": 2900,
          "time": 33.72093023255814,
          "velocity": 0.6062992125984252
        },
        {
          "duration": 0.011627906976741542,
          "durationTicks": 1,
          "midi": 57,
          "name": "A3",
          "ticks": 2900,
          "time": 33.72093023255814,
          "velocity": 0.5433070866141733
        },
        {
          "duration": 0.02325581395349019,
          "durationTicks": 2,
          "midi": 81,
          "name": "A5",
          "ticks": 2900,
          "time": 33.72093023255814,
          "velocity": 0.3228346456692913
        },
        {
          "duration": 0.3720930232558146,
          "durationTicks": 32,
          "midi": 88,
          "name": "E6",
          "ticks": 2900,
          "time": 33.72093023255814,
          "velocity": 0.3700787401574803
        },
        {
          "duration": 0.3604651162790731,
          "durationTicks": 31,
          "midi": 92,
          "name": "G#6",
          "ticks": 2900,
          "time": 33.72093023255814,
          "velocity": 0.25196850393700787
        },
        {
          "duration": 0.011627906976748648,
          "durationTicks": 1,
          "midi": 55,
          "name": "G3",
          "ticks": 2901,
          "time": 33.73255813953488,
          "velocity": 0.5905511811023622
        },
        {
          "duration": 0.4534883720930267,
          "durationTicks": 39,
          "midi": 71,
          "name": "B4",
          "ticks": 2901,
          "time": 33.73255813953488,
          "velocity": 0.5118110236220472
        },
        {
          "duration": 0.11627906976744384,
          "durationTicks": 10,
          "midi": 82,
          "name": "A#5",
          "ticks": 2901,
          "time": 33.73255813953488,
          "velocity": 0.2992125984251969
        },
        {
          "duration": 0.3604651162790731,
          "durationTicks": 31,
          "midi": 86,
          "name": "D6",
          "ticks": 2901,
          "time": 33.73255813953488,
          "velocity": 0.33858267716535434
        },
        {
          "duration": 0.02325581395349019,
          "durationTicks": 2,
          "midi": 89,
          "name": "F6",
          "ticks": 2901,
          "time": 33.73255813953488,
          "velocity": 0.2283464566929134
        },
        {
          "duration": 0.011627906976741542,
          "durationTicks": 1,
          "midi": 40,
          "name": "E2",
          "ticks": 2902,
          "time": 33.74418604651163,
          "velocity": 0.5826771653543307
        },
        {
          "duration": 0.011627906976741542,
          "durationTicks": 1,
          "midi": 53,
          "name": "F3",
          "ticks": 2902,
          "time": 33.74418604651163,
          "velocity": 0.5433070866141733
        },
        {
          "duration": 0.011627906976741542,
          "durationTicks": 1,
          "midi": 57,
          "name": "A3",
          "ticks": 2902,
          "time": 33.74418604651163,
          "velocity": 0.5669291338582677
        },
        {
          "duration": 0.22093023255813904,
          "durationTicks": 19,
          "midi": 64,
          "name": "E4",
          "ticks": 2902,
          "time": 33.74418604651163,
          "velocity": 0.6850393700787402
        },
        {
          "duration": 0.011627906976748648,
          "durationTicks": 1,
          "midi": 54,
          "name": "F#3",
          "ticks": 2903,
          "time": 33.75581395348837,
          "velocity": 0.5905511811023622
        },
        {
          "duration": 0.011627906976741542,
          "durationTicks": 1,
          "midi": 38,
          "name": "D2",
          "ticks": 2904,
          "time": 33.76744186046512,
          "velocity": 0.5748031496062992
        },
        {
          "duration": 0.081395348837205,
          "durationTicks": 7,
          "midi": 51,
          "name": "D#3",
          "ticks": 2904,
          "time": 33.76744186046512,
          "velocity": 0.6299212598425197
        },
        {
          "duration": 0.023255813953483084,
          "durationTicks": 2,
          "midi": 56,
          "name": "G#3",
          "ticks": 2904,
          "time": 33.76744186046512,
          "velocity": 0.5354330708661418
        },
        {
          "duration": 0.011627906976741542,
          "durationTicks": 1,
          "midi": 41,
          "name": "F2",
          "ticks": 2905,
          "time": 33.77906976744186,
          "velocity": 0.6771653543307087
        },
        {
          "duration": 0.02325581395349019,
          "durationTicks": 2,
          "midi": 42,
          "name": "F#2",
          "ticks": 2906,
          "time": 33.7906976744186,
          "velocity": 0.6692913385826772
        },
        {
          "duration": 0.1046511627907023,
          "durationTicks": 9,
          "midi": 90,
          "name": "F#6",
          "ticks": 2906,
          "time": 33.7906976744186,
          "velocity": 0.14960629921259844
        },
        {
          "duration": 0.1046511627906952,
          "durationTicks": 9,
          "midi": 73,
          "name": "C#5",
          "ticks": 2910,
          "time": 33.83720930232558,
          "velocity": 0.09448818897637795
        },
        {
          "duration": 0.02325581395349019,
          "durationTicks": 2,
          "midi": 41,
          "name": "F2",
          "ticks": 2911,
          "time": 33.848837209302324,
          "velocity": 0.33070866141732286
        },
        {
          "duration": 0.02325581395349019,
          "durationTicks": 2,
          "midi": 52,
          "name": "E3",
          "ticks": 2911,
          "time": 33.848837209302324,
          "velocity": 0.5039370078740157
        },
        {
          "duration": 0.08139534883721211,
          "durationTicks": 7,
          "midi": 52,
          "name": "E3",
          "ticks": 2914,
          "time": 33.883720930232556,
          "velocity": 0.5118110236220472
        },
        {
          "duration": 0.08139534883721211,
          "durationTicks": 7,
          "midi": 96,
          "name": "C7",
          "ticks": 2914,
          "time": 33.883720930232556,
          "velocity": 0.15748031496062992
        },
        {
          "duration": 0.03488372093023173,
          "durationTicks": 3,
          "midi": 40,
          "name": "E2",
          "ticks": 2915,
          "time": 33.895348837209305,
          "velocity": 0.1732283464566929
        },
        {
          "duration": 0.02325581395349019,
          "durationTicks": 2,
          "midi": 39,
          "name": "D#2",
          "ticks": 2918,
          "time": 33.93023255813954,
          "velocity": 0.2755905511811024
        },
        {
          "duration": 0.11627906976743674,
          "durationTicks": 10,
          "midi": 90,
          "name": "F#6",
          "ticks": 2918,
          "time": 33.93023255813954,
          "velocity": 0.2440944881889764
        },
        {
          "duration": 0.08139534883721211,
          "durationTicks": 7,
          "midi": 75,
          "name": "D#5",
          "ticks": 2919,
          "time": 33.94186046511628,
          "velocity": 0.5826771653543307
        },
        {
          "duration": 0.023255813953483084,
          "durationTicks": 2,
          "midi": 89,
          "name": "F6",
          "ticks": 2920,
          "time": 33.95348837209303,
          "velocity": 0.2440944881889764
        },
        {
          "duration": 0.03488372093023173,
          "durationTicks": 3,
          "midi": 48,
          "name": "C3",
          "ticks": 2921,
          "time": 33.96511627906977,
          "velocity": 0.6141732283464567
        },
        {
          "duration": 0.02325581395349019,
          "durationTicks": 2,
          "midi": 56,
          "name": "G#3",
          "ticks": 2921,
          "time": 33.96511627906977,
          "velocity": 0.5669291338582677
        },
        {
          "duration": 0.011627906976741542,
          "durationTicks": 1,
          "midi": 63,
          "name": "D#4",
          "ticks": 2921,
          "time": 33.96511627906977,
          "velocity": 0.5748031496062992
        },
        {
          "duration": 0.12790697674418539,
          "durationTicks": 11,
          "midi": 80,
          "name": "G#5",
          "ticks": 2921,
          "time": 33.96511627906977,
          "velocity": 0.3228346456692913
        },
        {
          "duration": 0.011627906976748648,
          "durationTicks": 1,
          "midi": 62,
          "name": "D4",
          "ticks": 2922,
          "time": 33.97674418604651,
          "velocity": 0.5196850393700787
        },
        {
          "duration": 0.03488372093023173,
          "durationTicks": 3,
          "midi": 67,
          "name": "G4",
          "ticks": 2922,
          "time": 33.97674418604651,
          "velocity": 0.3228346456692913
        },
        {
          "duration": 0.011627906976741542,
          "durationTicks": 1,
          "midi": 63,
          "name": "D#4",
          "ticks": 2923,
          "time": 33.98837209302326,
          "velocity": 0.5590551181102362
        },
        {
          "duration": 0.023255813953483084,
          "durationTicks": 2,
          "midi": 77,
          "name": "F5",
          "ticks": 2923,
          "time": 33.98837209302326,
          "velocity": 0.28346456692913385
        },
        {
          "duration": 0.011627906976741542,
          "durationTicks": 1,
          "midi": 50,
          "name": "D3",
          "ticks": 2924,
          "time": 34,
          "velocity": 0.6299212598425197
        },
        {
          "duration": 0.1046511627906952,
          "durationTicks": 9,
          "midi": 64,
          "name": "E4",
          "ticks": 2924,
          "time": 34,
          "velocity": 0.6220472440944882
        },
        {
          "duration": 0.011627906976748648,
          "durationTicks": 1,
          "midi": 49,
          "name": "C#3",
          "ticks": 2925,
          "time": 34.01162790697674,
          "velocity": 0.5669291338582677
        },
        {
          "duration": 0.02325581395349019,
          "durationTicks": 2,
          "midi": 56,
          "name": "G#3",
          "ticks": 2925,
          "time": 34.01162790697674,
          "velocity": 0.4566929133858268
        },
        {
          "duration": 0.023255813953483084,
          "durationTicks": 2,
          "midi": 77,
          "name": "F5",
          "ticks": 2926,
          "time": 34.02325581395349,
          "velocity": 0.28346456692913385
        },
        {
          "duration": 0.011627906976741542,
          "durationTicks": 1,
          "midi": 49,
          "name": "C#3",
          "ticks": 2927,
          "time": 34.03488372093023,
          "velocity": 0.5354330708661418
        },
        {
          "duration": 0.011627906976741542,
          "durationTicks": 1,
          "midi": 55,
          "name": "G3",
          "ticks": 2927,
          "time": 34.03488372093023,
          "velocity": 0.5196850393700787
        },
        {
          "duration": 0.03488372093023884,
          "durationTicks": 3,
          "midi": 53,
          "name": "F3",
          "ticks": 2928,
          "time": 34.04651162790697,
          "velocity": 0.6220472440944882
        },
        {
          "duration": 0.02325581395349019,
          "durationTicks": 2,
          "midi": 58,
          "name": "A#3",
          "ticks": 2929,
          "time": 34.05813953488372,
          "velocity": 0.36220472440944884
        },
        {
          "duration": 0.05813953488372192,
          "durationTicks": 5,
          "midi": 77,
          "name": "F5",
          "ticks": 2929,
          "time": 34.05813953488372,
          "velocity": 0.30708661417322836
        },
        {
          "duration": 0.046511627906973274,
          "durationTicks": 4,
          "midi": 54,
          "name": "F#3",
          "ticks": 2931,
          "time": 34.08139534883721,
          "velocity": 0.4881889763779528
        },
        {
          "duration": 0.05813953488372192,
          "durationTicks": 5,
          "midi": 59,
          "name": "B3",
          "ticks": 2933,
          "time": 34.104651162790695,
          "velocity": 0.28346456692913385
        },
        {
          "duration": 0.02325581395349019,
          "durationTicks": 2,
          "midi": 53,
          "name": "F3",
          "ticks": 2935,
          "time": 34.127906976744185,
          "velocity": 0.2992125984251969
        },
        {
          "duration": 0.04651162790698038,
          "durationTicks": 4,
          "midi": 64,
          "name": "E4",
          "ticks": 2935,
          "time": 34.127906976744185,
          "velocity": 0.16535433070866143
        },
        {
          "duration": 0.011627906976741542,
          "durationTicks": 1,
          "midi": 35,
          "name": "B1",
          "ticks": 2940,
          "time": 34.18604651162791,
          "velocity": 0.5354330708661418
        },
        {
          "duration": 0.25581395348837077,
          "durationTicks": 22,
          "midi": 68,
          "name": "G#4",
          "ticks": 2940,
          "time": 34.18604651162791,
          "velocity": 0.4645669291338583
        },
        {
          "duration": 0.08139534883721211,
          "durationTicks": 7,
          "midi": 75,
          "name": "D#5",
          "ticks": 2940,
          "time": 34.18604651162791,
          "velocity": 0.5275590551181102
        },
        {
          "duration": 0.02325581395349019,
          "durationTicks": 2,
          "midi": 81,
          "name": "A5",
          "ticks": 2940,
          "time": 34.18604651162791,
          "velocity": 0.2440944881889764
        },
        {
          "duration": 0.23255813953488058,
          "durationTicks": 20,
          "midi": 85,
          "name": "C#6",
          "ticks": 2940,
          "time": 34.18604651162791,
          "velocity": 0.23622047244094488
        },
        {
          "duration": 0.09302325581395365,
          "durationTicks": 8,
          "midi": 89,
          "name": "F6",
          "ticks": 2940,
          "time": 34.18604651162791,
          "velocity": 0.2204724409448819
        },
        {
          "duration": 0.011627906976748648,
          "durationTicks": 1,
          "midi": 36,
          "name": "C2",
          "ticks": 2941,
          "time": 34.19767441860465,
          "velocity": 0.5905511811023622
        },
        {
          "duration": 0.02325581395349019,
          "durationTicks": 2,
          "midi": 53,
          "name": "F3",
          "ticks": 2941,
          "time": 34.19767441860465,
          "velocity": 0.5275590551181102
        },
        {
          "duration": 0.03488372093023173,
          "durationTicks": 3,
          "midi": 63,
          "name": "D#4",
          "ticks": 2941,
          "time": 34.19767441860465,
          "velocity": 0.6456692913385826
        },
        {
          "duration": 0.22093023255813904,
          "durationTicks": 19,
          "midi": 77,
          "name": "F5",
          "ticks": 2941,
          "time": 34.19767441860465,
          "velocity": 0.3700787401574803
        },
        {
          "duration": 0.011627906976741542,
          "durationTicks": 1,
          "midi": 47,
          "name": "B2",
          "ticks": 2942,
          "time": 34.2093023255814,
          "velocity": 0.5748031496062992
        },
        {
          "duration": 0.011627906976741542,
          "durationTicks": 1,
          "midi": 55,
          "name": "G3",
          "ticks": 2943,
          "time": 34.22093023255814,
          "velocity": 0.5511811023622047
        },
        {
          "duration": 0.2093023255813975,
          "durationTicks": 18,
          "midi": 61,
          "name": "C#4",
          "ticks": 2943,
          "time": 34.22093023255814,
          "velocity": 0.6299212598425197
        },
        {
          "duration": 0.011627906976748648,
          "durationTicks": 1,
          "midi": 39,
          "name": "D#2",
          "ticks": 2944,
          "time": 34.23255813953488,
          "velocity": 0.6141732283464567
        },
        {
          "duration": 0.011627906976741542,
          "durationTicks": 1,
          "midi": 41,
          "name": "F2",
          "ticks": 2945,
          "time": 34.24418604651163,
          "velocity": 0.6771653543307087
        },
        {
          "duration": 0.02325581395349019,
          "durationTicks": 2,
          "midi": 42,
          "name": "F#2",
          "ticks": 2946,
          "time": 34.25581395348837,
          "velocity": 0.6614173228346457
        },
        {
          "duration": 0.058139534883714816,
          "durationTicks": 5,
          "midi": 71,
          "name": "B4",
          "ticks": 2947,
          "time": 34.26744186046512,
          "velocity": 0.1732283464566929
        },
        {
          "duration": 0.12790697674418539,
          "durationTicks": 11,
          "midi": 49,
          "name": "C#3",
          "ticks": 2949,
          "time": 34.2906976744186,
          "velocity": 0.5039370078740157
        },
        {
          "duration": 0.08139534883721211,
          "durationTicks": 7,
          "midi": 87,
          "name": "D#6",
          "ticks": 2949,
          "time": 34.2906976744186,
          "velocity": 0.14173228346456693
        },
        {
          "duration": 0.046511627906973274,
          "durationTicks": 4,
          "midi": 93,
          "name": "A6",
          "ticks": 2956,
          "time": 34.372093023255815,
          "velocity": 0.08661417322834646
        },
        {
          "duration": 0.03488372093023173,
          "durationTicks": 3,
          "midi": 96,
          "name": "C7",
          "ticks": 2958,
          "time": 34.395348837209305,
          "velocity": 0.07086614173228346
        },
        {
          "duration": 0.03488372093023173,
          "durationTicks": 3,
          "midi": 86,
          "name": "D6",
          "ticks": 2959,
          "time": 34.406976744186046,
          "velocity": 0.23622047244094488
        },
        {
          "duration": 0.02325581395349019,
          "durationTicks": 2,
          "midi": 29,
          "name": "F1",
          "ticks": 2960,
          "time": 34.41860465116279,
          "velocity": 0.4330708661417323
        },
        {
          "duration": 0.011627906976748648,
          "durationTicks": 1,
          "midi": 50,
          "name": "D3",
          "ticks": 2960,
          "time": 34.41860465116279,
          "velocity": 0.5196850393700787
        },
        {
          "duration": 0.05813953488372192,
          "durationTicks": 5,
          "midi": 65,
          "name": "F4",
          "ticks": 2960,
          "time": 34.41860465116279,
          "velocity": 0.6377952755905512
        },
        {
          "duration": 0.06976744186047057,
          "durationTicks": 6,
          "midi": 71,
          "name": "B4",
          "ticks": 2960,
          "time": 34.41860465116279,
          "velocity": 0.36220472440944884
        },
        {
          "duration": 0.32558139534884134,
          "durationTicks": 28,
          "midi": 75,
          "name": "D#5",
          "ticks": 2960,
          "time": 34.41860465116279,
          "velocity": 0.5748031496062992
        },
        {
          "duration": 0.03488372093023884,
          "durationTicks": 3,
          "midi": 78,
          "name": "F#5",
          "ticks": 2960,
          "time": 34.41860465116279,
          "velocity": 0.36220472440944884
        },
        {
          "duration": 0.02325581395349019,
          "durationTicks": 2,
          "midi": 81,
          "name": "A5",
          "ticks": 2960,
          "time": 34.41860465116279,
          "velocity": 0.31496062992125984
        },
        {
          "duration": 0.04651162790698038,
          "durationTicks": 4,
          "midi": 88,
          "name": "E6",
          "ticks": 2960,
          "time": 34.41860465116279,
          "velocity": 0.2440944881889764
        },
        {
          "duration": 0.011627906976741542,
          "durationTicks": 1,
          "midi": 49,
          "name": "C#3",
          "ticks": 2961,
          "time": 34.43023255813954,
          "velocity": 0.6220472440944882
        },
        {
          "duration": 0.011627906976741542,
          "durationTicks": 1,
          "midi": 58,
          "name": "A#3",
          "ticks": 2961,
          "time": 34.43023255813954,
          "velocity": 0.5354330708661418
        },
        {
          "duration": 0.011627906976748648,
          "durationTicks": 1,
          "midi": 48,
          "name": "C3",
          "ticks": 2962,
          "time": 34.44186046511628,
          "velocity": 0.6614173228346457
        },
        {
          "duration": 0.2325581395348877,
          "durationTicks": 20,
          "midi": 59,
          "name": "B3",
          "ticks": 2962,
          "time": 34.44186046511628,
          "velocity": 0.6141732283464567
        },
        {
          "duration": 0.023255813953483084,
          "durationTicks": 2,
          "midi": 49,
          "name": "C#3",
          "ticks": 2963,
          "time": 34.45348837209303,
          "velocity": 0.6220472440944882
        },
        {
          "duration": 0.03488372093023173,
          "durationTicks": 3,
          "midi": 54,
          "name": "F#3",
          "ticks": 2963,
          "time": 34.45348837209303,
          "velocity": 0.5669291338582677
        },
        {
          "duration": 0.081395348837205,
          "durationTicks": 7,
          "midi": 84,
          "name": "C6",
          "ticks": 2963,
          "time": 34.45348837209303,
          "velocity": 0.2283464566929134
        },
        {
          "duration": 0.22093023255813904,
          "durationTicks": 19,
          "midi": 85,
          "name": "C#6",
          "ticks": 2963,
          "time": 34.45348837209303,
          "velocity": 0.2755905511811024
        },
        {
          "duration": 0.05813953488372192,
          "durationTicks": 5,
          "midi": 78,
          "name": "F#5",
          "ticks": 2964,
          "time": 34.46511627906977,
          "velocity": 0.2755905511811024
        },
        {
          "duration": 0.17441860465116577,
          "durationTicks": 15,
          "midi": 66,
          "name": "F#4",
          "ticks": 2965,
          "time": 34.47674418604651,
          "velocity": 0.5826771653543307
        },
        {
          "duration": 0.04651162790698038,
          "durationTicks": 4,
          "midi": 70,
          "name": "A#4",
          "ticks": 2965,
          "time": 34.47674418604651,
          "velocity": 0.3543307086614173
        },
        {
          "duration": 0.023255813953483084,
          "durationTicks": 2,
          "midi": 49,
          "name": "C#3",
          "ticks": 2966,
          "time": 34.48837209302326,
          "velocity": 0.5433070866141733
        },
        {
          "duration": 0.011627906976741542,
          "durationTicks": 1,
          "midi": 53,
          "name": "F3",
          "ticks": 2966,
          "time": 34.48837209302326,
          "velocity": 0.5511811023622047
        },
        {
          "duration": 0.15116279069766847,
          "durationTicks": 13,
          "midi": 81,
          "name": "A5",
          "ticks": 2966,
          "time": 34.48837209302326,
          "velocity": 0.29133858267716534
        },
        {
          "duration": 0.011627906976741542,
          "durationTicks": 1,
          "midi": 54,
          "name": "F#3",
          "ticks": 2967,
          "time": 34.5,
          "velocity": 0.5196850393700787
        },
        {
          "duration": 0.03488372093023173,
          "durationTicks": 3,
          "midi": 53,
          "name": "F3",
          "ticks": 2968,
          "time": 34.51162790697674,
          "velocity": 0.5354330708661418
        },
        {
          "duration": 0.023255813953483084,
          "durationTicks": 2,
          "midi": 47,
          "name": "B2",
          "ticks": 2969,
          "time": 34.52325581395349,
          "velocity": 0.4409448818897638
        },
        {
          "duration": 0.09302325581395365,
          "durationTicks": 8,
          "midi": 63,
          "name": "D#4",
          "ticks": 2970,
          "time": 34.53488372093023,
          "velocity": 0.6220472440944882
        },
        {
          "duration": 0.02325581395349019,
          "durationTicks": 2,
          "midi": 53,
          "name": "F3",
          "ticks": 2972,
          "time": 34.55813953488372,
          "velocity": 0.4645669291338583
        },
        {
          "duration": 0.058139534883714816,
          "durationTicks": 5,
          "midi": 47,
          "name": "B2",
          "ticks": 2974,
          "time": 34.58139534883721,
          "velocity": 0.4409448818897638
        },
        {
          "duration": 0.02325581395349019,
          "durationTicks": 2,
          "midi": 53,
          "name": "F3",
          "ticks": 2975,
          "time": 34.593023255813954,
          "velocity": 0.2677165354330709
        },
        {
          "duration": 0.11627906976744384,
          "durationTicks": 10,
          "midi": 63,
          "name": "D#4",
          "ticks": 2979,
          "time": 34.63953488372093,
          "velocity": 0.5039370078740157
        },
        {
          "duration": 0.02325581395349019,
          "durationTicks": 2,
          "midi": 80,
          "name": "G#5",
          "ticks": 2979,
          "time": 34.63953488372093,
          "velocity": 0.2677165354330709
        },
        {
          "duration": 0.03488372093023884,
          "durationTicks": 3,
          "midi": 88,
          "name": "E6",
          "ticks": 2979,
          "time": 34.63953488372093,
          "velocity": 0.25196850393700787
        },
        {
          "duration": 0.03488372093023884,
          "durationTicks": 3,
          "midi": 89,
          "name": "F6",
          "ticks": 2979,
          "time": 34.63953488372093,
          "velocity": 0.23622047244094488
        },
        {
          "duration": 0.011627906976741542,
          "durationTicks": 1,
          "midi": 35,
          "name": "B1",
          "ticks": 2980,
          "time": 34.651162790697676,
          "velocity": 0.6062992125984252
        },
        {
          "duration": 0.011627906976741542,
          "durationTicks": 1,
          "midi": 49,
          "name": "C#3",
          "ticks": 2980,
          "time": 34.651162790697676,
          "velocity": 0.5196850393700787
        },
        {
          "duration": 0.03488372093023173,
          "durationTicks": 3,
          "midi": 79,
          "name": "G5",
          "ticks": 2980,
          "time": 34.651162790697676,
          "velocity": 0.33070866141732286
        },
        {
          "duration": 0.02325581395349019,
          "durationTicks": 2,
          "midi": 81,
          "name": "A5",
          "ticks": 2980,
          "time": 34.651162790697676,
          "velocity": 0.31496062992125984
        },
        {
          "duration": 0.011627906976748648,
          "durationTicks": 1,
          "midi": 40,
          "name": "E2",
          "ticks": 2981,
          "time": 34.66279069767442,
          "velocity": 0.6220472440944882
        },
        {
          "duration": 0.011627906976748648,
          "durationTicks": 1,
          "midi": 50,
          "name": "D3",
          "ticks": 2981,
          "time": 34.66279069767442,
          "velocity": 0.5984251968503937
        },
        {
          "duration": 0.04651162790698038,
          "durationTicks": 4,
          "midi": 72,
          "name": "C5",
          "ticks": 2981,
          "time": 34.66279069767442,
          "velocity": 0.14960629921259844
        },
        {
          "duration": 0.08139534883721211,
          "durationTicks": 7,
          "midi": 82,
          "name": "A#5",
          "ticks": 2981,
          "time": 34.66279069767442,
          "velocity": 0.2992125984251969
        },
        {
          "duration": 0.011627906976741542,
          "durationTicks": 1,
          "midi": 43,
          "name": "G2",
          "ticks": 2982,
          "time": 34.674418604651166,
          "velocity": 0.5590551181102362
        },
        {
          "duration": 0.046511627906973274,
          "durationTicks": 4,
          "midi": 51,
          "name": "D#3",
          "ticks": 2982,
          "time": 34.674418604651166,
          "velocity": 0.7007874015748031
        },
        {
          "duration": 0.046511627906973274,
          "durationTicks": 4,
          "midi": 68,
          "name": "G#4",
          "ticks": 2982,
          "time": 34.674418604651166,
          "velocity": 0.33070866141732286
        },
        {
          "duration": 0.02325581395349019,
          "durationTicks": 2,
          "midi": 39,
          "name": "D#2",
          "ticks": 2983,
          "time": 34.68604651162791,
          "velocity": 0.6220472440944882
        },
        {
          "duration": 0.011627906976741542,
          "durationTicks": 1,
          "midi": 41,
          "name": "F2",
          "ticks": 2985,
          "time": 34.7093023255814,
          "velocity": 0.6692913385826772
        },
        {
          "duration": 0.05813953488372192,
          "durationTicks": 5,
          "midi": 71,
          "name": "B4",
          "ticks": 2985,
          "time": 34.7093023255814,
          "velocity": 0.18110236220472442
        },
        {
          "duration": 0.02325581395349019,
          "durationTicks": 2,
          "midi": 42,
          "name": "F#2",
          "ticks": 2986,
          "time": 34.72093023255814,
          "velocity": 0.6299212598425197
        },
        {
          "duration": 0.02325581395349019,
          "durationTicks": 2,
          "midi": 56,
          "name": "G#3",
          "ticks": 2986,
          "time": 34.72093023255814,
          "velocity": 0.3464566929133858
        },
        {
          "duration": 0.06976744186046346,
          "durationTicks": 6,
          "midi": 50,
          "name": "D3",
          "ticks": 2988,
          "time": 34.74418604651163,
          "velocity": 0.5196850393700787
        },
        {
          "duration": 0.02325581395349019,
          "durationTicks": 2,
          "midi": 60,
          "name": "C4",
          "ticks": 2988,
          "time": 34.74418604651163,
          "velocity": 0.2755905511811024
        },
        {
          "duration": 0.05813953488372192,
          "durationTicks": 5,
          "midi": 68,
          "name": "G#4",
          "ticks": 2989,
          "time": 34.75581395348837,
          "velocity": 0.23622047244094488
        },
        {
          "duration": 0.023255813953483084,
          "durationTicks": 2,
          "midi": 41,
          "name": "F2",
          "ticks": 2990,
          "time": 34.76744186046512,
          "velocity": 0.3464566929133858
        },
        {
          "duration": 0.023255813953483084,
          "durationTicks": 2,
          "midi": 61,
          "name": "C#4",
          "ticks": 2990,
          "time": 34.76744186046512,
          "velocity": 0.28346456692913385
        },
        {
          "duration": 0.02325581395349019,
          "durationTicks": 2,
          "midi": 60,
          "name": "C4",
          "ticks": 2992,
          "time": 34.7906976744186,
          "velocity": 0.2755905511811024
        },
        {
          "duration": 0.06976744186046346,
          "durationTicks": 6,
          "midi": 59,
          "name": "B3",
          "ticks": 2993,
          "time": 34.80232558139535,
          "velocity": 0.23622047244094488
        },
        {
          "duration": 0.05813953488372192,
          "durationTicks": 5,
          "midi": 66,
          "name": "F#4",
          "ticks": 2994,
          "time": 34.81395348837209,
          "velocity": 0.13385826771653545
        },
        {
          "duration": 0.03488372093023173,
          "durationTicks": 3,
          "midi": 49,
          "name": "C#3",
          "ticks": 2996,
          "time": 34.83720930232558,
          "velocity": 0.1732283464566929
        },
        {
          "duration": 0.023255813953483084,
          "durationTicks": 2,
          "midi": 61,
          "name": "C#4",
          "ticks": 2998,
          "time": 34.86046511627907,
          "velocity": 0.4645669291338583
        },
        {
          "duration": 0.03488372093023173,
          "durationTicks": 3,
          "midi": 81,
          "name": "A5",
          "ticks": 2999,
          "time": 34.872093023255815,
          "velocity": 0.29133858267716534
        },
        {
          "duration": 0.05813953488372192,
          "durationTicks": 5,
          "midi": 83,
          "name": "B5",
          "ticks": 2999,
          "time": 34.872093023255815,
          "velocity": 0.2677165354330709
        },
        {
          "duration": 0.03488372093023173,
          "durationTicks": 3,
          "midi": 86,
          "name": "D6",
          "ticks": 2999,
          "time": 34.872093023255815,
          "velocity": 0.2992125984251969
        },
        {
          "duration": 0.23255813953488058,
          "durationTicks": 20,
          "midi": 88,
          "name": "E6",
          "ticks": 2999,
          "time": 34.872093023255815,
          "velocity": 0.2992125984251969
        },
        {
          "duration": 0.02325581395349019,
          "durationTicks": 2,
          "midi": 29,
          "name": "F1",
          "ticks": 3000,
          "time": 34.883720930232556,
          "velocity": 0.3700787401574803
        },
        {
          "duration": 0.011627906976748648,
          "durationTicks": 1,
          "midi": 58,
          "name": "A#3",
          "ticks": 3000,
          "time": 34.883720930232556,
          "velocity": 0.5984251968503937
        },
        {
          "duration": 0.02325581395349019,
          "durationTicks": 2,
          "midi": 63,
          "name": "D#4",
          "ticks": 3000,
          "time": 34.883720930232556,
          "velocity": 0.6614173228346457
        },
        {
          "duration": 0.09302325581395365,
          "durationTicks": 8,
          "midi": 69,
          "name": "A4",
          "ticks": 3000,
          "time": 34.883720930232556,
          "velocity": 0.3937007874015748
        },
        {
          "duration": 0.24418604651162923,
          "durationTicks": 21,
          "midi": 73,
          "name": "C#5",
          "ticks": 3000,
          "time": 34.883720930232556,
          "velocity": 0.5669291338582677
        },
        {
          "duration": 0.02325581395349019,
          "durationTicks": 2,
          "midi": 78,
          "name": "F#5",
          "ticks": 3000,
          "time": 34.883720930232556,
          "velocity": 0.33858267716535434
        },
        {
          "duration": 0.023255813953483084,
          "durationTicks": 2,
          "midi": 45,
          "name": "A2",
          "ticks": 3001,
          "time": 34.895348837209305,
          "velocity": 0.48031496062992124
        },
        {
          "duration": 0.046511627906973274,
          "durationTicks": 4,
          "midi": 57,
          "name": "A3",
          "ticks": 3001,
          "time": 34.895348837209305,
          "velocity": 0.6535433070866141
        },
        {
          "duration": 0.02325581395349019,
          "durationTicks": 2,
          "midi": 64,
          "name": "E4",
          "ticks": 3002,
          "time": 34.906976744186046,
          "velocity": 0.5748031496062992
        },
        {
          "duration": 0.19767441860464885,
          "durationTicks": 17,
          "midi": 79,
          "name": "G5",
          "ticks": 3002,
          "time": 34.906976744186046,
          "velocity": 0.2047244094488189
        },
        {
          "duration": 0.1860465116279073,
          "durationTicks": 16,
          "midi": 45,
          "name": "A2",
          "ticks": 3004,
          "time": 34.93023255813954,
          "velocity": 0.47244094488188976
        },
        {
          "duration": 0.011627906976741542,
          "durationTicks": 1,
          "midi": 65,
          "name": "F4",
          "ticks": 3004,
          "time": 34.93023255813954,
          "velocity": 0.5196850393700787
        },
        {
          "duration": 0.43023255813953654,
          "durationTicks": 37,
          "midi": 76,
          "name": "E5",
          "ticks": 3004,
          "time": 34.93023255813954,
          "velocity": 0.3937007874015748
        },
        {
          "duration": 0.011627906976748648,
          "durationTicks": 1,
          "midi": 56,
          "name": "G#3",
          "ticks": 3005,
          "time": 34.94186046511628,
          "velocity": 0.5590551181102362
        },
        {
          "duration": 0.17441860465116577,
          "durationTicks": 15,
          "midi": 64,
          "name": "E4",
          "ticks": 3005,
          "time": 34.94186046511628,
          "velocity": 0.5590551181102362
        },
        {
          "duration": 0.02325581395349019,
          "durationTicks": 2,
          "midi": 70,
          "name": "A#4",
          "ticks": 3005,
          "time": 34.94186046511628,
          "velocity": 0.28346456692913385
        },
        {
          "duration": 0.058139534883714816,
          "durationTicks": 5,
          "midi": 57,
          "name": "A3",
          "ticks": 3006,
          "time": 34.95348837209303,
          "velocity": 0.6299212598425197
        },
        {
          "duration": 0.1860465116279002,
          "durationTicks": 16,
          "midi": 83,
          "name": "B5",
          "ticks": 3006,
          "time": 34.95348837209303,
          "velocity": 0.2755905511811024
        },
        {
          "duration": 0.03488372093023173,
          "durationTicks": 3,
          "midi": 70,
          "name": "A#4",
          "ticks": 3008,
          "time": 34.97674418604651,
          "velocity": 0.33858267716535434
        },
        {
          "duration": 0.011627906976748648,
          "durationTicks": 1,
          "midi": 56,
          "name": "G#3",
          "ticks": 3011,
          "time": 35.01162790697674,
          "velocity": 0.5275590551181102
        },
        {
          "duration": 0.03488372093023173,
          "durationTicks": 3,
          "midi": 69,
          "name": "A4",
          "ticks": 3011,
          "time": 35.01162790697674,
          "velocity": 0.31496062992125984
        },
        {
          "duration": 0.06976744186046346,
          "durationTicks": 6,
          "midi": 57,
          "name": "A3",
          "ticks": 3012,
          "time": 35.02325581395349,
          "velocity": 0.6377952755905512
        },
        {
          "duration": 0.02325581395349019,
          "durationTicks": 2,
          "midi": 70,
          "name": "A#4",
          "ticks": 3014,
          "time": 35.04651162790697,
          "velocity": 0.33070866141732286
        },
        {
          "duration": 0.011627906976741542,
          "durationTicks": 1,
          "midi": 56,
          "name": "G#3",
          "ticks": 3018,
          "time": 35.093023255813954,
          "velocity": 0.5118110236220472
        },
        {
          "duration": 0.03488372093023173,
          "durationTicks": 3,
          "midi": 57,
          "name": "A3",
          "ticks": 3019,
          "time": 35.104651162790695,
          "velocity": 0.6062992125984252
        },
        {
          "duration": 0.15116279069767558,
          "durationTicks": 13,
          "midi": 80,
          "name": "G#5",
          "ticks": 3019,
          "time": 35.104651162790695,
          "velocity": 0.2677165354330709
        },
        {
          "duration": 0.03488372093023173,
          "durationTicks": 3,
          "midi": 86,
          "name": "D6",
          "ticks": 3019,
          "time": 35.104651162790695,
          "velocity": 0.25196850393700787
        },
        {
          "duration": 0.1860465116279073,
          "durationTicks": 16,
          "midi": 87,
          "name": "D#6",
          "ticks": 3019,
          "time": 35.104651162790695,
          "velocity": 0.2440944881889764
        },
        {
          "duration": 0.02325581395349019,
          "durationTicks": 2,
          "midi": 89,
          "name": "F6",
          "ticks": 3019,
          "time": 35.104651162790695,
          "velocity": 0.2283464566929134
        },
        {
          "duration": 0.03488372093023173,
          "durationTicks": 3,
          "midi": 90,
          "name": "F#6",
          "ticks": 3019,
          "time": 35.104651162790695,
          "velocity": 0.18110236220472442
        },
        {
          "duration": 0.011627906976741542,
          "durationTicks": 1,
          "midi": 35,
          "name": "B1",
          "ticks": 3020,
          "time": 35.116279069767444,
          "velocity": 0.5826771653543307
        },
        {
          "duration": 0.03488372093023173,
          "durationTicks": 3,
          "midi": 44,
          "name": "G#2",
          "ticks": 3020,
          "time": 35.116279069767444,
          "velocity": 0.6062992125984252
        },
        {
          "duration": 0.011627906976741542,
          "durationTicks": 1,
          "midi": 62,
          "name": "D4",
          "ticks": 3020,
          "time": 35.116279069767444,
          "velocity": 0.5275590551181102
        },
        {
          "duration": 0.023255813953483084,
          "durationTicks": 2,
          "midi": 77,
          "name": "F5",
          "ticks": 3020,
          "time": 35.116279069767444,
          "velocity": 0.2677165354330709
        },
        {
          "duration": 0.04651162790698038,
          "durationTicks": 4,
          "midi": 63,
          "name": "D#4",
          "ticks": 3021,
          "time": 35.127906976744185,
          "velocity": 0.6377952755905512
        },
        {
          "duration": 0.04651162790698038,
          "durationTicks": 4,
          "midi": 72,
          "name": "C5",
          "ticks": 3021,
          "time": 35.127906976744185,
          "velocity": 0.5590551181102362
        },
        {
          "duration": 0.02325581395349019,
          "durationTicks": 2,
          "midi": 51,
          "name": "D#3",
          "ticks": 3022,
          "time": 35.13953488372093,
          "velocity": 0.5275590551181102
        },
        {
          "duration": 0.011627906976748648,
          "durationTicks": 1,
          "midi": 58,
          "name": "A#3",
          "ticks": 3022,
          "time": 35.13953488372093,
          "velocity": 0.5748031496062992
        },
        {
          "duration": 0.011627906976741542,
          "durationTicks": 1,
          "midi": 43,
          "name": "G2",
          "ticks": 3023,
          "time": 35.151162790697676,
          "velocity": 0.6062992125984252
        },
        {
          "duration": 0.11627906976744384,
          "durationTicks": 10,
          "midi": 57,
          "name": "A3",
          "ticks": 3023,
          "time": 35.151162790697676,
          "velocity": 0.6535433070866141
        },
        {
          "duration": 0.02325581395349019,
          "durationTicks": 2,
          "midi": 70,
          "name": "A#4",
          "ticks": 3023,
          "time": 35.151162790697676,
          "velocity": 0.25984251968503935
        },
        {
          "duration": 0.09302325581395365,
          "durationTicks": 8,
          "midi": 79,
          "name": "G5",
          "ticks": 3023,
          "time": 35.151162790697676,
          "velocity": 0.1732283464566929
        },
        {
          "duration": 0.03488372093023173,
          "durationTicks": 3,
          "midi": 41,
          "name": "F2",
          "ticks": 3024,
          "time": 35.16279069767442,
          "velocity": 0.6220472440944882
        },
        {
          "duration": 0.02325581395349019,
          "durationTicks": 2,
          "midi": 61,
          "name": "C#4",
          "ticks": 3024,
          "time": 35.16279069767442,
          "velocity": 0.44881889763779526
        },
        {
          "duration": 0.023255813953483084,
          "durationTicks": 2,
          "midi": 51,
          "name": "D#3",
          "ticks": 3025,
          "time": 35.174418604651166,
          "velocity": 0.4645669291338583
        },
        {
          "duration": 0.17441860465115866,
          "durationTicks": 15,
          "midi": 64,
          "name": "E4",
          "ticks": 3025,
          "time": 35.174418604651166,
          "velocity": 0.5118110236220472
        },
        {
          "duration": 0.2093023255813904,
          "durationTicks": 18,
          "midi": 83,
          "name": "B5",
          "ticks": 3025,
          "time": 35.174418604651166,
          "velocity": 0.1968503937007874
        },
        {
          "duration": 0.05813953488372192,
          "durationTicks": 5,
          "midi": 75,
          "name": "D#5",
          "ticks": 3027,
          "time": 35.19767441860465,
          "velocity": 0.1968503937007874
        },
        {
          "duration": 0.12790697674418539,
          "durationTicks": 11,
          "midi": 45,
          "name": "A2",
          "ticks": 3028,
          "time": 35.2093023255814,
          "velocity": 0.5039370078740157
        },
        {
          "duration": 0.09302325581395365,
          "durationTicks": 8,
          "midi": 71,
          "name": "B4",
          "ticks": 3031,
          "time": 35.24418604651163,
          "velocity": 0.28346456692913385
        },
        {
          "duration": 0.03488372093023173,
          "durationTicks": 3,
          "midi": 79,
          "name": "G5",
          "ticks": 3032,
          "time": 35.25581395348837,
          "velocity": 0.2283464566929134
        },
        {
          "duration": 0.011627906976741542,
          "durationTicks": 1,
          "midi": 58,
          "name": "A#3",
          "ticks": 3033,
          "time": 35.26744186046512,
          "velocity": 0.5590551181102362
        },
        {
          "duration": 0.02325581395349019,
          "durationTicks": 2,
          "midi": 57,
          "name": "A3",
          "ticks": 3034,
          "time": 35.27906976744186,
          "velocity": 0.5275590551181102
        },
        {
          "duration": 0.046511627906973274,
          "durationTicks": 4,
          "midi": 90,
          "name": "F#6",
          "ticks": 3034,
          "time": 35.27906976744186,
          "velocity": 0.11023622047244094
        },
        {
          "duration": 0.02325581395349019,
          "durationTicks": 2,
          "midi": 78,
          "name": "F#5",
          "ticks": 3035,
          "time": 35.2906976744186,
          "velocity": 0.2283464566929134
        },
        {
          "duration": 0.011627906976741542,
          "durationTicks": 1,
          "midi": 58,
          "name": "A#3",
          "ticks": 3036,
          "time": 35.30232558139535,
          "velocity": 0.5748031496062992
        },
        {
          "duration": 0.046511627906973274,
          "durationTicks": 4,
          "midi": 86,
          "name": "D6",
          "ticks": 3036,
          "time": 35.30232558139535,
          "velocity": 0.18110236220472442
        },
        {
          "duration": 0.03488372093023173,
          "durationTicks": 3,
          "midi": 57,
          "name": "A3",
          "ticks": 3037,
          "time": 35.31395348837209,
          "velocity": 0.5511811023622047
        },
        {
          "duration": 0.13953488372093403,
          "durationTicks": 12,
          "midi": 78,
          "name": "F#5",
          "ticks": 3038,
          "time": 35.325581395348834,
          "velocity": 0.29133858267716534
        },
        {
          "duration": 0.06976744186046346,
          "durationTicks": 6,
          "midi": 72,
          "name": "C5",
          "ticks": 3039,
          "time": 35.33720930232558,
          "velocity": 0.5669291338582677
        },
        {
          "duration": 0.06976744186046346,
          "durationTicks": 6,
          "midi": 87,
          "name": "D#6",
          "ticks": 3039,
          "time": 35.33720930232558,
          "velocity": 0.1968503937007874
        },
        {
          "duration": 0.02325581395349019,
          "durationTicks": 2,
          "midi": 58,
          "name": "A#3",
          "ticks": 3040,
          "time": 35.348837209302324,
          "velocity": 0.5826771653543307
        },
        {
          "duration": 0.11627906976744384,
          "durationTicks": 10,
          "midi": 66,
          "name": "F#4",
          "ticks": 3040,
          "time": 35.348837209302324,
          "velocity": 0.5669291338582677
        },
        {
          "duration": 0.15116279069767558,
          "durationTicks": 13,
          "midi": 81,
          "name": "A5",
          "ticks": 3040,
          "time": 35.348837209302324,
          "velocity": 0.25196850393700787
        },
        {
          "duration": 0.09302325581395365,
          "durationTicks": 8,
          "midi": 47,
          "name": "B2",
          "ticks": 3041,
          "time": 35.36046511627907,
          "velocity": 0.44881889763779526
        },
        {
          "duration": 0.1046511627906952,
          "durationTicks": 9,
          "midi": 75,
          "name": "D#5",
          "ticks": 3041,
          "time": 35.36046511627907,
          "velocity": 0.31496062992125984
        },
        {
          "duration": 0.09302325581395365,
          "durationTicks": 8,
          "midi": 59,
          "name": "B3",
          "ticks": 3042,
          "time": 35.372093023255815,
          "velocity": 0.6141732283464567
        },
        {
          "duration": 0.03488372093023173,
          "durationTicks": 3,
          "midi": 84,
          "name": "C6",
          "ticks": 3048,
          "time": 35.44186046511628,
          "velocity": 0.2047244094488189
        },
        {
          "duration": 0.011627906976741542,
          "durationTicks": 1,
          "midi": 56,
          "name": "G#3",
          "ticks": 3049,
          "time": 35.45348837209303,
          "velocity": 0.5118110236220472
        },
        {
          "duration": 0.011627906976741542,
          "durationTicks": 1,
          "midi": 64,
          "name": "E4",
          "ticks": 3049,
          "time": 35.45348837209303,
          "velocity": 0.5196850393700787
        },
        {
          "duration": 0.15116279069766847,
          "durationTicks": 13,
          "midi": 86,
          "name": "D6",
          "ticks": 3049,
          "time": 35.45348837209303,
          "velocity": 0.1968503937007874
        },
        {
          "duration": 0.046511627906973274,
          "durationTicks": 4,
          "midi": 55,
          "name": "G3",
          "ticks": 3050,
          "time": 35.46511627906977,
          "velocity": 0.5433070866141733
        },
        {
          "duration": 0.1046511627906952,
          "durationTicks": 9,
          "midi": 63,
          "name": "D#4",
          "ticks": 3050,
          "time": 35.46511627906977,
          "velocity": 0.6299212598425197
        },
        {
          "duration": 0.046511627906973274,
          "durationTicks": 4,
          "midi": 74,
          "name": "D5",
          "ticks": 3050,
          "time": 35.46511627906977,
          "velocity": 0.25196850393700787
        },
        {
          "duration": 0.011627906976748648,
          "durationTicks": 1,
          "midi": 54,
          "name": "F#3",
          "ticks": 3054,
          "time": 35.51162790697674,
          "velocity": 0.5118110236220472
        },
        {
          "duration": 0.05813953488372192,
          "durationTicks": 5,
          "midi": 55,
          "name": "G3",
          "ticks": 3055,
          "time": 35.52325581395349,
          "velocity": 0.5905511811023622
        },
        {
          "duration": 0.046511627906973274,
          "durationTicks": 4,
          "midi": 73,
          "name": "C#5",
          "ticks": 3055,
          "time": 35.52325581395349,
          "velocity": 0.1732283464566929
        },
        {
          "duration": 0.081395348837205,
          "durationTicks": 7,
          "midi": 72,
          "name": "C5",
          "ticks": 3058,
          "time": 35.55813953488372,
          "velocity": 0.5511811023622047
        },
        {
          "duration": 0.02325581395349019,
          "durationTicks": 2,
          "midi": 62,
          "name": "D4",
          "ticks": 3059,
          "time": 35.56976744186046,
          "velocity": 0.5984251968503937
        },
        {
          "duration": 0.16279069767441712,
          "durationTicks": 14,
          "midi": 66,
          "name": "F#4",
          "ticks": 3059,
          "time": 35.56976744186046,
          "velocity": 0.5275590551181102
        },
        {
          "duration": 0.13953488372093403,
          "durationTicks": 12,
          "midi": 85,
          "name": "C#6",
          "ticks": 3059,
          "time": 35.56976744186046,
          "velocity": 0.1968503937007874
        },
        {
          "duration": 0.023255813953483084,
          "durationTicks": 2,
          "midi": 35,
          "name": "B1",
          "ticks": 3060,
          "time": 35.58139534883721,
          "velocity": 0.5984251968503937
        },
        {
          "duration": 0.011627906976741542,
          "durationTicks": 1,
          "midi": 48,
          "name": "C3",
          "ticks": 3060,
          "time": 35.58139534883721,
          "velocity": 0.5590551181102362
        },
        {
          "duration": 0.023255813953483084,
          "durationTicks": 2,
          "midi": 60,
          "name": "C4",
          "ticks": 3060,
          "time": 35.58139534883721,
          "velocity": 0.5590551181102362
        },
        {
          "duration": 0.023255813953483084,
          "durationTicks": 2,
          "midi": 76,
          "name": "E5",
          "ticks": 3060,
          "time": 35.58139534883721,
          "velocity": 0.28346456692913385
        },
        {
          "duration": 0.11627906976743674,
          "durationTicks": 10,
          "midi": 81,
          "name": "A5",
          "ticks": 3060,
          "time": 35.58139534883721,
          "velocity": 0.25196850393700787
        },
        {
          "duration": 0.02325581395349019,
          "durationTicks": 2,
          "midi": 45,
          "name": "A2",
          "ticks": 3061,
          "time": 35.593023255813954,
          "velocity": 0.5826771653543307
        },
        {
          "duration": 0.06976744186046346,
          "durationTicks": 6,
          "midi": 63,
          "name": "D#4",
          "ticks": 3061,
          "time": 35.593023255813954,
          "velocity": 0.5748031496062992
        },
        {
          "duration": 0.09302325581395365,
          "durationTicks": 8,
          "midi": 59,
          "name": "B3",
          "ticks": 3062,
          "time": 35.604651162790695,
          "velocity": 0.5826771653543307
        },
        {
          "duration": 0.011627906976741542,
          "durationTicks": 1,
          "midi": 42,
          "name": "F#2",
          "ticks": 3063,
          "time": 35.616279069767444,
          "velocity": 0.6299212598425197
        },
        {
          "duration": 0.011627906976741542,
          "durationTicks": 1,
          "midi": 52,
          "name": "E3",
          "ticks": 3063,
          "time": 35.616279069767444,
          "velocity": 0.5669291338582677
        },
        {
          "duration": 0.011627906976741542,
          "durationTicks": 1,
          "midi": 41,
          "name": "F2",
          "ticks": 3064,
          "time": 35.627906976744185,
          "velocity": 0.6614173228346457
        },
        {
          "duration": 0.011627906976741542,
          "durationTicks": 1,
          "midi": 54,
          "name": "F#3",
          "ticks": 3064,
          "time": 35.627906976744185,
          "velocity": 0.5511811023622047
        },
        {
          "duration": 0.011627906976748648,
          "durationTicks": 1,
          "midi": 42,
          "name": "F#2",
          "ticks": 3065,
          "time": 35.63953488372093,
          "velocity": 0.6220472440944882
        },
        {
          "duration": 0.011627906976748648,
          "durationTicks": 1,
          "midi": 55,
          "name": "G3",
          "ticks": 3065,
          "time": 35.63953488372093,
          "velocity": 0.5433070866141733
        },
        {
          "duration": 0.03488372093023173,
          "durationTicks": 3,
          "midi": 47,
          "name": "B2",
          "ticks": 3066,
          "time": 35.651162790697676,
          "velocity": 0.4645669291338583
        },
        {
          "duration": 0.09302325581395365,
          "durationTicks": 8,
          "midi": 54,
          "name": "F#3",
          "ticks": 3066,
          "time": 35.651162790697676,
          "velocity": 0.5511811023622047
        },
        {
          "duration": 0.02325581395349019,
          "durationTicks": 2,
          "midi": 58,
          "name": "A#3",
          "ticks": 3070,
          "time": 35.69767441860465,
          "velocity": 0.4330708661417323
        },
        {
          "duration": 0.03488372093023173,
          "durationTicks": 3,
          "midi": 63,
          "name": "D#4",
          "ticks": 3071,
          "time": 35.7093023255814,
          "velocity": 0.14173228346456693
        },
        {
          "duration": 0.02325581395349019,
          "durationTicks": 2,
          "midi": 58,
          "name": "A#3",
          "ticks": 3077,
          "time": 35.77906976744186,
          "velocity": 0.2755905511811024
        },
        {
          "duration": 0.02325581395349019,
          "durationTicks": 2,
          "midi": 64,
          "name": "E4",
          "ticks": 3078,
          "time": 35.7906976744186,
          "velocity": 0.49606299212598426
        },
        {
          "duration": 0.24418604651162923,
          "durationTicks": 21,
          "midi": 80,
          "name": "G#5",
          "ticks": 3078,
          "time": 35.7906976744186,
          "velocity": 0.2677165354330709
        },
        {
          "duration": 0.03488372093023173,
          "durationTicks": 3,
          "midi": 83,
          "name": "B5",
          "ticks": 3078,
          "time": 35.7906976744186,
          "velocity": 0.2283464566929134
        },
        {
          "duration": 0.09302325581395365,
          "durationTicks": 8,
          "midi": 84,
          "name": "C6",
          "ticks": 3078,
          "time": 35.7906976744186,
          "velocity": 0.2755905511811024
        },
        {
          "duration": 0.03488372093023173,
          "durationTicks": 3,
          "midi": 86,
          "name": "D6",
          "ticks": 3078,
          "time": 35.7906976744186,
          "velocity": 0.23622047244094488
        },
        {
          "duration": 0.1860465116279073,
          "durationTicks": 16,
          "midi": 87,
          "name": "D#6",
          "ticks": 3078,
          "time": 35.7906976744186,
          "velocity": 0.2440944881889764
        },
        {
          "duration": 0.03488372093023173,
          "durationTicks": 3,
          "midi": 88,
          "name": "E6",
          "ticks": 3078,
          "time": 35.7906976744186,
          "velocity": 0.23622047244094488
        },
        {
          "duration": 0.03488372093023173,
          "durationTicks": 3,
          "midi": 48,
          "name": "C3",
          "ticks": 3079,
          "time": 35.80232558139535,
          "velocity": 0.6062992125984252
        },
        {
          "duration": 0.09302325581395365,
          "durationTicks": 8,
          "midi": 72,
          "name": "C5",
          "ticks": 3079,
          "time": 35.80232558139535,
          "velocity": 0.5748031496062992
        },
        {
          "duration": 0.05813953488372192,
          "durationTicks": 5,
          "midi": 63,
          "name": "D#4",
          "ticks": 3080,
          "time": 35.81395348837209,
          "velocity": 0.5905511811023622
        },
        {
          "duration": 0.02325581395349019,
          "durationTicks": 2,
          "midi": 76,
          "name": "E5",
          "ticks": 3080,
          "time": 35.81395348837209,
          "velocity": 0.25196850393700787
        },
        {
          "duration": 0.02325581395349019,
          "durationTicks": 2,
          "midi": 77,
          "name": "F5",
          "ticks": 3080,
          "time": 35.81395348837209,
          "velocity": 0.2440944881889764
        },
        {
          "duration": 0.011627906976741542,
          "durationTicks": 1,
          "midi": 50,
          "name": "D3",
          "ticks": 3082,
          "time": 35.83720930232558,
          "velocity": 0.5984251968503937
        },
        {
          "duration": 0.05813953488372192,
          "durationTicks": 5,
          "midi": 68,
          "name": "G#4",
          "ticks": 3082,
          "time": 35.83720930232558,
          "velocity": 0.2755905511811024
        },
        {
          "duration": 0.011627906976748648,
          "durationTicks": 1,
          "midi": 49,
          "name": "C#3",
          "ticks": 3083,
          "time": 35.848837209302324,
          "velocity": 0.5826771653543307
        },
        {
          "duration": 0.011627906976741542,
          "durationTicks": 1,
          "midi": 50,
          "name": "D3",
          "ticks": 3084,
          "time": 35.86046511627907,
          "velocity": 0.6299212598425197
        },
        {
          "duration": 0.06976744186046346,
          "durationTicks": 6,
          "midi": 61,
          "name": "C#4",
          "ticks": 3084,
          "time": 35.86046511627907,
          "velocity": 0.47244094488188976
        },
        {
          "duration": 0.16279069767441712,
          "durationTicks": 14,
          "midi": 49,
          "name": "C#3",
          "ticks": 3085,
          "time": 35.872093023255815,
          "velocity": 0.6771653543307087
        },
        {
          "duration": 0.02325581395349019,
          "durationTicks": 2,
          "midi": 57,
          "name": "A3",
          "ticks": 3088,
          "time": 35.906976744186046,
          "velocity": 0.3543307086614173
        },
        {
          "duration": 0.05813953488372192,
          "durationTicks": 5,
          "midi": 68,
          "name": "G#4",
          "ticks": 3088,
          "time": 35.906976744186046,
          "velocity": 0.18110236220472442
        },
        {
          "duration": 0.03488372093023173,
          "durationTicks": 3,
          "midi": 56,
          "name": "G#3",
          "ticks": 3090,
          "time": 35.93023255813954,
          "velocity": 0.3779527559055118
        },
        {
          "duration": 0.03488372093023173,
          "durationTicks": 3,
          "midi": 60,
          "name": "C4",
          "ticks": 3090,
          "time": 35.93023255813954,
          "velocity": 0.30708661417322836
        },
        {
          "duration": 0.05813953488372192,
          "durationTicks": 5,
          "midi": 68,
          "name": "G#4",
          "ticks": 3094,
          "time": 35.97674418604651,
          "velocity": 0.1968503937007874
        },
        {
          "duration": 0.03488372093023173,
          "durationTicks": 3,
          "midi": 56,
          "name": "G#3",
          "ticks": 3098,
          "time": 36.02325581395349,
          "velocity": 0.49606299212598426
        },
        {
          "duration": 0.12790697674418539,
          "durationTicks": 11,
          "midi": 72,
          "name": "C5",
          "ticks": 3098,
          "time": 36.02325581395349,
          "velocity": 0.5826771653543307
        },
        {
          "duration": 0.03488372093023173,
          "durationTicks": 3,
          "midi": 83,
          "name": "B5",
          "ticks": 3098,
          "time": 36.02325581395349,
          "velocity": 0.25984251968503935
        },
        {
          "duration": 0.023255813953483084,
          "durationTicks": 2,
          "midi": 87,
          "name": "D#6",
          "ticks": 3098,
          "time": 36.02325581395349,
          "velocity": 0.2992125984251969
        },
        {
          "duration": 0.011627906976741542,
          "durationTicks": 1,
          "midi": 30,
          "name": "F#1",
          "ticks": 3099,
          "time": 36.03488372093023,
          "velocity": 0.5196850393700787
        },
        {
          "duration": 0.02325581395349019,
          "durationTicks": 2,
          "midi": 50,
          "name": "D3",
          "ticks": 3099,
          "time": 36.03488372093023,
          "velocity": 0.5984251968503937
        },
        {
          "duration": 0.02325581395349019,
          "durationTicks": 2,
          "midi": 81,
          "name": "A5",
          "ticks": 3099,
          "time": 36.03488372093023,
          "velocity": 0.2755905511811024
        },
        {
          "duration": 0.02325581395349019,
          "durationTicks": 2,
          "midi": 36,
          "name": "C2",
          "ticks": 3100,
          "time": 36.04651162790697,
          "velocity": 0.6141732283464567
        },
        {
          "duration": 0.15116279069767558,
          "durationTicks": 13,
          "midi": 63,
          "name": "D#4",
          "ticks": 3100,
          "time": 36.04651162790697,
          "velocity": 0.5748031496062992
        },
        {
          "duration": 0.02325581395349019,
          "durationTicks": 2,
          "midi": 44,
          "name": "G#2",
          "ticks": 3101,
          "time": 36.05813953488372,
          "velocity": 0.5748031496062992
        },
        {
          "duration": 0.011627906976741542,
          "durationTicks": 1,
          "midi": 51,
          "name": "D#3",
          "ticks": 3101,
          "time": 36.05813953488372,
          "velocity": 0.5669291338582677
        },
        {
          "duration": 0.011627906976748648,
          "durationTicks": 1,
          "midi": 52,
          "name": "E3",
          "ticks": 3102,
          "time": 36.06976744186046,
          "velocity": 0.5590551181102362
        },
        {
          "duration": 0.011627906976748648,
          "durationTicks": 1,
          "midi": 55,
          "name": "G3",
          "ticks": 3102,
          "time": 36.06976744186046,
          "velocity": 0.5275590551181102
        },
        {
          "duration": 0.011627906976741542,
          "durationTicks": 1,
          "midi": 41,
          "name": "F2",
          "ticks": 3103,
          "time": 36.08139534883721,
          "velocity": 0.6692913385826772
        },
        {
          "duration": 0.023255813953483084,
          "durationTicks": 2,
          "midi": 51,
          "name": "D#3",
          "ticks": 3103,
          "time": 36.08139534883721,
          "velocity": 0.5826771653543307
        },
        {
          "duration": 0.046511627906973274,
          "durationTicks": 4,
          "midi": 70,
          "name": "A#4",
          "ticks": 3103,
          "time": 36.08139534883721,
          "velocity": 0.1732283464566929
        },
        {
          "duration": 0.02325581395349019,
          "durationTicks": 2,
          "midi": 42,
          "name": "F#2",
          "ticks": 3104,
          "time": 36.093023255813954,
          "velocity": 0.6692913385826772
        },
        {
          "duration": 0.17441860465116577,
          "durationTicks": 15,
          "midi": 55,
          "name": "G3",
          "ticks": 3104,
          "time": 36.093023255813954,
          "velocity": 0.5275590551181102
        },
        {
          "duration": 0.03488372093023173,
          "durationTicks": 3,
          "midi": 41,
          "name": "F2",
          "ticks": 3109,
          "time": 36.151162790697676,
          "velocity": 0.33070866141732286
        },
        {
          "duration": 0.1046511627907023,
          "durationTicks": 9,
          "midi": 83,
          "name": "B5",
          "ticks": 3118,
          "time": 36.25581395348837,
          "velocity": 0.30708661417322836
        },
        {
          "duration": 0.03488372093023173,
          "durationTicks": 3,
          "midi": 85,
          "name": "C#6",
          "ticks": 3118,
          "time": 36.25581395348837,
          "velocity": 0.28346456692913385
        },
        {
          "duration": 0.03488372093023173,
          "durationTicks": 3,
          "midi": 48,
          "name": "C3",
          "ticks": 3119,
          "time": 36.26744186046512,
          "velocity": 0.5826771653543307
        },
        {
          "duration": 0.11627906976743674,
          "durationTicks": 10,
          "midi": 65,
          "name": "F4",
          "ticks": 3119,
          "time": 36.26744186046512,
          "velocity": 0.6062992125984252
        },
        {
          "duration": 0.081395348837205,
          "durationTicks": 7,
          "midi": 72,
          "name": "C5",
          "ticks": 3119,
          "time": 36.26744186046512,
          "velocity": 0.5669291338582677
        },
        {
          "duration": 0.023255813953483084,
          "durationTicks": 2,
          "midi": 78,
          "name": "F#5",
          "ticks": 3119,
          "time": 36.26744186046512,
          "velocity": 0.2755905511811024
        },
        {
          "duration": 0.081395348837205,
          "durationTicks": 7,
          "midi": 80,
          "name": "G#5",
          "ticks": 3119,
          "time": 36.26744186046512,
          "velocity": 0.31496062992125984
        },
        {
          "duration": 0.023255813953483084,
          "durationTicks": 2,
          "midi": 86,
          "name": "D6",
          "ticks": 3119,
          "time": 36.26744186046512,
          "velocity": 0.2755905511811024
        },
        {
          "duration": 0.023255813953483084,
          "durationTicks": 2,
          "midi": 88,
          "name": "E6",
          "ticks": 3119,
          "time": 36.26744186046512,
          "velocity": 0.23622047244094488
        },
        {
          "duration": 0.09302325581395365,
          "durationTicks": 8,
          "midi": 61,
          "name": "C#4",
          "ticks": 3120,
          "time": 36.27906976744186,
          "velocity": 0.4566929133858268
        },
        {
          "duration": 0.1046511627906952,
          "durationTicks": 9,
          "midi": 75,
          "name": "D#5",
          "ticks": 3120,
          "time": 36.27906976744186,
          "velocity": 0.2755905511811024
        },
        {
          "duration": 0.023255813953483084,
          "durationTicks": 2,
          "midi": 50,
          "name": "D3",
          "ticks": 3122,
          "time": 36.30232558139535,
          "velocity": 0.6535433070866141
        },
        {
          "duration": 0.06976744186046346,
          "durationTicks": 6,
          "midi": 68,
          "name": "G#4",
          "ticks": 3122,
          "time": 36.30232558139535,
          "velocity": 0.2677165354330709
        },
        {
          "duration": 0.011627906976748648,
          "durationTicks": 1,
          "midi": 49,
          "name": "C#3",
          "ticks": 3124,
          "time": 36.325581395348834,
          "velocity": 0.5275590551181102
        },
        {
          "duration": 0.011627906976741542,
          "durationTicks": 1,
          "midi": 48,
          "name": "C3",
          "ticks": 3125,
          "time": 36.33720930232558,
          "velocity": 0.5275590551181102
        },
        {
          "duration": 0.023255813953483084,
          "durationTicks": 2,
          "midi": 49,
          "name": "C#3",
          "ticks": 3127,
          "time": 36.36046511627907,
          "velocity": 0.33858267716535434
        },
        {
          "duration": 0.023255813953483084,
          "durationTicks": 2,
          "midi": 57,
          "name": "A3",
          "ticks": 3127,
          "time": 36.36046511627907,
          "velocity": 0.30708661417322836
        },
        {
          "duration": 0.05813953488372192,
          "durationTicks": 5,
          "midi": 56,
          "name": "G#3",
          "ticks": 3129,
          "time": 36.383720930232556,
          "velocity": 0.3228346456692913
        },
        {
          "duration": 0.27906976744186096,
          "durationTicks": 24,
          "midi": 63,
          "name": "D#4",
          "ticks": 3129,
          "time": 36.383720930232556,
          "velocity": 0.6299212598425197
        },
        {
          "duration": 0.03488372093023173,
          "durationTicks": 3,
          "midi": 68,
          "name": "G#4",
          "ticks": 3129,
          "time": 36.383720930232556,
          "velocity": 0.36220472440944884
        },
        {
          "duration": 0.09302325581395365,
          "durationTicks": 8,
          "midi": 49,
          "name": "C#3",
          "ticks": 3130,
          "time": 36.395348837209305,
          "velocity": 0.1889763779527559
        },
        {
          "duration": 0.12790697674418539,
          "durationTicks": 11,
          "midi": 72,
          "name": "C5",
          "ticks": 3138,
          "time": 36.48837209302326,
          "velocity": 0.5590551181102362
        },
        {
          "duration": 0.023255813953483084,
          "durationTicks": 2,
          "midi": 78,
          "name": "F#5",
          "ticks": 3138,
          "time": 36.48837209302326,
          "velocity": 0.29133858267716534
        },
        {
          "duration": 0.023255813953483084,
          "durationTicks": 2,
          "midi": 81,
          "name": "A5",
          "ticks": 3138,
          "time": 36.48837209302326,
          "velocity": 0.30708661417322836
        },
        {
          "duration": 0.03488372093023173,
          "durationTicks": 3,
          "midi": 88,
          "name": "E6",
          "ticks": 3138,
          "time": 36.48837209302326,
          "velocity": 0.2677165354330709
        },
        {
          "duration": 0.03488372093023173,
          "durationTicks": 3,
          "midi": 35,
          "name": "B1",
          "ticks": 3139,
          "time": 36.5,
          "velocity": 0.6141732283464567
        },
        {
          "duration": 0.02325581395349019,
          "durationTicks": 2,
          "midi": 50,
          "name": "D3",
          "ticks": 3139,
          "time": 36.5,
          "velocity": 0.6535433070866141
        },
        {
          "duration": 0.02325581395349019,
          "durationTicks": 2,
          "midi": 87,
          "name": "D#6",
          "ticks": 3139,
          "time": 36.5,
          "velocity": 0.2677165354330709
        },
        {
          "duration": 0.11627906976744384,
          "durationTicks": 10,
          "midi": 79,
          "name": "G5",
          "ticks": 3140,
          "time": 36.51162790697674,
          "velocity": 0.1732283464566929
        },
        {
          "duration": 0.13953488372093403,
          "durationTicks": 12,
          "midi": 82,
          "name": "A#5",
          "ticks": 3140,
          "time": 36.51162790697674,
          "velocity": 0.30708661417322836
        },
        {
          "duration": 0.011627906976741542,
          "durationTicks": 1,
          "midi": 44,
          "name": "G#2",
          "ticks": 3141,
          "time": 36.52325581395349,
          "velocity": 0.5196850393700787
        },
        {
          "duration": 0.16279069767441712,
          "durationTicks": 14,
          "midi": 51,
          "name": "D#3",
          "ticks": 3141,
          "time": 36.52325581395349,
          "velocity": 0.6614173228346457
        },
        {
          "duration": 0.011627906976741542,
          "durationTicks": 1,
          "midi": 47,
          "name": "B2",
          "ticks": 3142,
          "time": 36.53488372093023,
          "velocity": 0.5748031496062992
        },
        {
          "duration": 0.11627906976744384,
          "durationTicks": 10,
          "midi": 68,
          "name": "G#4",
          "ticks": 3142,
          "time": 36.53488372093023,
          "velocity": 0.2755905511811024
        },
        {
          "duration": 0.02325581395349019,
          "durationTicks": 2,
          "midi": 42,
          "name": "F#2",
          "ticks": 3143,
          "time": 36.54651162790697,
          "velocity": 0.6377952755905512
        },
        {
          "duration": 0.046511627906973274,
          "durationTicks": 4,
          "midi": 70,
          "name": "A#4",
          "ticks": 3144,
          "time": 36.55813953488372,
          "velocity": 0.12598425196850394
        },
        {
          "duration": 0.02325581395349019,
          "durationTicks": 2,
          "midi": 41,
          "name": "F2",
          "ticks": 3145,
          "time": 36.56976744186046,
          "velocity": 0.5433070866141733
        },
        {
          "duration": 0.03488372093023173,
          "durationTicks": 3,
          "midi": 56,
          "name": "G#3",
          "ticks": 3146,
          "time": 36.58139534883721,
          "velocity": 0.3937007874015748
        },
        {
          "duration": 0.03488372093023173,
          "durationTicks": 3,
          "midi": 41,
          "name": "F2",
          "ticks": 3149,
          "time": 36.616279069767444,
          "velocity": 0.25196850393700787
        },
        {
          "duration": 0.023255813953483084,
          "durationTicks": 2,
          "midi": 57,
          "name": "A3",
          "ticks": 3149,
          "time": 36.616279069767444,
          "velocity": 0.2755905511811024
        },
        {
          "duration": 0.02325581395349019,
          "durationTicks": 2,
          "midi": 56,
          "name": "G#3",
          "ticks": 3151,
          "time": 36.63953488372093,
          "velocity": 0.28346456692913385
        },
        {
          "duration": 0.02325581395349019,
          "durationTicks": 2,
          "midi": 79,
          "name": "G5",
          "ticks": 3158,
          "time": 36.72093023255814,
          "velocity": 0.2992125984251969
        },
        {
          "duration": 0.02325581395349019,
          "durationTicks": 2,
          "midi": 81,
          "name": "A5",
          "ticks": 3158,
          "time": 36.72093023255814,
          "velocity": 0.2440944881889764
        },
        {
          "duration": 0.03488372093023173,
          "durationTicks": 3,
          "midi": 87,
          "name": "D#6",
          "ticks": 3158,
          "time": 36.72093023255814,
          "velocity": 0.25196850393700787
        },
        {
          "duration": 0.03488372093023173,
          "durationTicks": 3,
          "midi": 88,
          "name": "E6",
          "ticks": 3158,
          "time": 36.72093023255814,
          "velocity": 0.25196850393700787
        },
        {
          "duration": 0.02325581395349019,
          "durationTicks": 2,
          "midi": 48,
          "name": "C3",
          "ticks": 3159,
          "time": 36.73255813953488,
          "velocity": 0.5511811023622047
        },
        {
          "duration": 0.09302325581395365,
          "durationTicks": 8,
          "midi": 63,
          "name": "D#4",
          "ticks": 3159,
          "time": 36.73255813953488,
          "velocity": 0.5905511811023622
        },
        {
          "duration": 0.05813953488372192,
          "durationTicks": 5,
          "midi": 72,
          "name": "C5",
          "ticks": 3159,
          "time": 36.73255813953488,
          "velocity": 0.5511811023622047
        },
        {
          "duration": 0.02325581395349019,
          "durationTicks": 2,
          "midi": 83,
          "name": "B5",
          "ticks": 3159,
          "time": 36.73255813953488,
          "velocity": 0.2283464566929134
        },
        {
          "duration": 0.02325581395349019,
          "durationTicks": 2,
          "midi": 85,
          "name": "C#6",
          "ticks": 3159,
          "time": 36.73255813953488,
          "velocity": 0.23622047244094488
        },
        {
          "duration": 0.046511627906973274,
          "durationTicks": 4,
          "midi": 77,
          "name": "F5",
          "ticks": 3160,
          "time": 36.74418604651163,
          "velocity": 0.13385826771653545
        },
        {
          "duration": 0.13953488372092693,
          "durationTicks": 12,
          "midi": 80,
          "name": "G#5",
          "ticks": 3160,
          "time": 36.74418604651163,
          "velocity": 0.30708661417322836
        },
        {
          "duration": 0.15116279069767558,
          "durationTicks": 13,
          "midi": 49,
          "name": "C#3",
          "ticks": 3161,
          "time": 36.75581395348837,
          "velocity": 0.5590551181102362
        },
        {
          "duration": 0.12790697674418539,
          "durationTicks": 11,
          "midi": 72,
          "name": "C5",
          "ticks": 3165,
          "time": 36.80232558139535,
          "velocity": 0.3858267716535433
        },
        {
          "duration": 0.03488372093023173,
          "durationTicks": 3,
          "midi": 76,
          "name": "E5",
          "ticks": 3178,
          "time": 36.95348837209303,
          "velocity": 0.2755905511811024
        },
        {
          "duration": 0.03488372093023173,
          "durationTicks": 3,
          "midi": 80,
          "name": "G#5",
          "ticks": 3178,
          "time": 36.95348837209303,
          "velocity": 0.29133858267716534
        },
        {
          "duration": 0.03488372093023173,
          "durationTicks": 3,
          "midi": 81,
          "name": "A5",
          "ticks": 3178,
          "time": 36.95348837209303,
          "velocity": 0.28346456692913385
        },
        {
          "duration": 0.03488372093023173,
          "durationTicks": 3,
          "midi": 84,
          "name": "C6",
          "ticks": 3178,
          "time": 36.95348837209303,
          "velocity": 0.23622047244094488
        },
        {
          "duration": 0.03488372093023173,
          "durationTicks": 3,
          "midi": 85,
          "name": "C#6",
          "ticks": 3178,
          "time": 36.95348837209303,
          "velocity": 0.25196850393700787
        },
        {
          "duration": 0.011627906976741542,
          "durationTicks": 1,
          "midi": 35,
          "name": "B1",
          "ticks": 3179,
          "time": 36.96511627906977,
          "velocity": 0.5748031496062992
        },
        {
          "duration": 0.11627906976744384,
          "durationTicks": 10,
          "midi": 63,
          "name": "D#4",
          "ticks": 3179,
          "time": 36.96511627906977,
          "velocity": 0.5984251968503937
        },
        {
          "duration": 0.13953488372092693,
          "durationTicks": 12,
          "midi": 70,
          "name": "A#4",
          "ticks": 3179,
          "time": 36.96511627906977,
          "velocity": 0.5511811023622047
        },
        {
          "duration": 0.12790697674418539,
          "durationTicks": 11,
          "midi": 77,
          "name": "F5",
          "ticks": 3179,
          "time": 36.96511627906977,
          "velocity": 0.28346456692913385
        },
        {
          "duration": 0.02325581395349019,
          "durationTicks": 2,
          "midi": 83,
          "name": "B5",
          "ticks": 3179,
          "time": 36.96511627906977,
          "velocity": 0.25196850393700787
        },
        {
          "duration": 0.02325581395349019,
          "durationTicks": 2,
          "midi": 86,
          "name": "D6",
          "ticks": 3179,
          "time": 36.96511627906977,
          "velocity": 0.25196850393700787
        },
        {
          "duration": 0.02325581395349019,
          "durationTicks": 2,
          "midi": 87,
          "name": "D#6",
          "ticks": 3179,
          "time": 36.96511627906977,
          "velocity": 0.2677165354330709
        },
        {
          "duration": 0.011627906976748648,
          "durationTicks": 1,
          "midi": 40,
          "name": "E2",
          "ticks": 3180,
          "time": 36.97674418604651,
          "velocity": 0.5984251968503937
        },
        {
          "duration": 0.02325581395349019,
          "durationTicks": 2,
          "midi": 50,
          "name": "D3",
          "ticks": 3180,
          "time": 36.97674418604651,
          "velocity": 0.5354330708661418
        },
        {
          "duration": 0.023255813953483084,
          "durationTicks": 2,
          "midi": 43,
          "name": "G2",
          "ticks": 3181,
          "time": 36.98837209302326,
          "velocity": 0.4881889763779528
        },
        {
          "duration": 0.12790697674418539,
          "durationTicks": 11,
          "midi": 78,
          "name": "F#5",
          "ticks": 3181,
          "time": 36.98837209302326,
          "velocity": 0.25984251968503935
        },
        {
          "duration": 0.011627906976741542,
          "durationTicks": 1,
          "midi": 53,
          "name": "F3",
          "ticks": 3182,
          "time": 37,
          "velocity": 0.5433070866141733
        },
        {
          "duration": 0.08139534883721211,
          "durationTicks": 7,
          "midi": 66,
          "name": "F#4",
          "ticks": 3182,
          "time": 37,
          "velocity": 0.33858267716535434
        },
        {
          "duration": 0.046511627906973274,
          "durationTicks": 4,
          "midi": 73,
          "name": "C#5",
          "ticks": 3182,
          "time": 37,
          "velocity": 0.12598425196850394
        },
        {
          "duration": 0.011627906976748648,
          "durationTicks": 1,
          "midi": 42,
          "name": "F#2",
          "ticks": 3183,
          "time": 37.01162790697674,
          "velocity": 0.5748031496062992
        },
        {
          "duration": 0.06976744186046346,
          "durationTicks": 6,
          "midi": 41,
          "name": "F2",
          "ticks": 3184,
          "time": 37.02325581395349,
          "velocity": 0.6220472440944882
        },
        {
          "duration": 0.05813953488372192,
          "durationTicks": 5,
          "midi": 58,
          "name": "A#3",
          "ticks": 3186,
          "time": 37.04651162790697,
          "velocity": 0.33070866141732286
        },
        {
          "duration": 0.046511627906973274,
          "durationTicks": 4,
          "midi": 51,
          "name": "D#3",
          "ticks": 3187,
          "time": 37.05813953488372,
          "velocity": 0.3543307086614173
        },
        {
          "duration": 0.09302325581395365,
          "durationTicks": 8,
          "midi": 64,
          "name": "E4",
          "ticks": 3190,
          "time": 37.093023255813954,
          "velocity": 0.3228346456692913
        },
        {
          "duration": 0.03488372093023173,
          "durationTicks": 3,
          "midi": 52,
          "name": "E3",
          "ticks": 3191,
          "time": 37.104651162790695,
          "velocity": 0.23622047244094488
        },
        {
          "duration": 0.02325581395349019,
          "durationTicks": 2,
          "midi": 59,
          "name": "B3",
          "ticks": 3191,
          "time": 37.104651162790695,
          "velocity": 0.29133858267716534
        },
        {
          "duration": 0.03488372093023173,
          "durationTicks": 3,
          "midi": 58,
          "name": "A#3",
          "ticks": 3193,
          "time": 37.127906976744185,
          "velocity": 0.2204724409448819
        },
        {
          "duration": 0.03488372093023884,
          "durationTicks": 3,
          "midi": 51,
          "name": "D#3",
          "ticks": 3194,
          "time": 37.13953488372093,
          "velocity": 0.11023622047244094
        },
        {
          "duration": 0.023255813953483084,
          "durationTicks": 2,
          "midi": 73,
          "name": "C#5",
          "ticks": 3197,
          "time": 37.174418604651166,
          "velocity": 0.3858267716535433
        },
        {
          "duration": 0.15116279069766847,
          "durationTicks": 13,
          "midi": 83,
          "name": "B5",
          "ticks": 3197,
          "time": 37.174418604651166,
          "velocity": 0.33858267716535434
        },
        {
          "duration": 0.11627906976744384,
          "durationTicks": 10,
          "midi": 70,
          "name": "A#4",
          "ticks": 3198,
          "time": 37.18604651162791,
          "velocity": 0.5905511811023622
        },
        {
          "duration": 0.13953488372092693,
          "durationTicks": 12,
          "midi": 77,
          "name": "F5",
          "ticks": 3198,
          "time": 37.18604651162791,
          "velocity": 0.3228346456692913
        },
        {
          "duration": 0.13953488372092693,
          "durationTicks": 12,
          "midi": 79,
          "name": "G5",
          "ticks": 3198,
          "time": 37.18604651162791,
          "velocity": 0.25984251968503935
        },
        {
          "duration": 0.11627906976744384,
          "durationTicks": 10,
          "midi": 86,
          "name": "D6",
          "ticks": 3198,
          "time": 37.18604651162791,
          "velocity": 0.2440944881889764
        },
        {
          "duration": 0.02325581395349019,
          "durationTicks": 2,
          "midi": 88,
          "name": "E6",
          "ticks": 3198,
          "time": 37.18604651162791,
          "velocity": 0.2677165354330709
        },
        {
          "duration": 0.046511627906973274,
          "durationTicks": 4,
          "midi": 92,
          "name": "G#6",
          "ticks": 3198,
          "time": 37.18604651162791,
          "velocity": 0.1889763779527559
        },
        {
          "duration": 0.03488372093023173,
          "durationTicks": 3,
          "midi": 93,
          "name": "A6",
          "ticks": 3198,
          "time": 37.18604651162791,
          "velocity": 0.18110236220472442
        },
        {
          "duration": 0.02325581395349019,
          "durationTicks": 2,
          "midi": 29,
          "name": "F1",
          "ticks": 3199,
          "time": 37.19767441860465,
          "velocity": 0.4094488188976378
        },
        {
          "duration": 0.1046511627907023,
          "durationTicks": 9,
          "midi": 61,
          "name": "C#4",
          "ticks": 3199,
          "time": 37.19767441860465,
          "velocity": 0.5590551181102362
        },
        {
          "duration": 0.1046511627907023,
          "durationTicks": 9,
          "midi": 67,
          "name": "G4",
          "ticks": 3199,
          "time": 37.19767441860465,
          "velocity": 0.5433070866141733
        },
        {
          "duration": 0.11627906976744384,
          "durationTicks": 10,
          "midi": 74,
          "name": "D5",
          "ticks": 3199,
          "time": 37.19767441860465,
          "velocity": 0.4330708661417323
        },
        {
          "duration": 0.12790697674418539,
          "durationTicks": 11,
          "midi": 85,
          "name": "C#6",
          "ticks": 3199,
          "time": 37.19767441860465,
          "velocity": 0.2125984251968504
        },
        {
          "duration": 0.09302325581395365,
          "durationTicks": 8,
          "midi": 55,
          "name": "G3",
          "ticks": 3200,
          "time": 37.2093023255814,
          "velocity": 0.4566929133858268
        },
        {
          "duration": 0.09302325581395365,
          "durationTicks": 8,
          "midi": 49,
          "name": "C#3",
          "ticks": 3201,
          "time": 37.22093023255814,
          "velocity": 0.4881889763779528
        },
        {
          "duration": 0.12790697674418539,
          "durationTicks": 11,
          "midi": 80,
          "name": "G#5",
          "ticks": 3201,
          "time": 37.22093023255814,
          "velocity": 0.2677165354330709
        },
        {
          "duration": 0.03488372093023173,
          "durationTicks": 3,
          "midi": 87,
          "name": "D#6",
          "ticks": 3207,
          "time": 37.2906976744186,
          "velocity": 0.25196850393700787
        },
        {
          "duration": 0.011627906976741542,
          "durationTicks": 1,
          "midi": 62,
          "name": "D4",
          "ticks": 3208,
          "time": 37.30232558139535,
          "velocity": 0.5748031496062992
        },
        {
          "duration": 0.02325581395349019,
          "durationTicks": 2,
          "midi": 48,
          "name": "C3",
          "ticks": 3209,
          "time": 37.31395348837209,
          "velocity": 0.3543307086614173
        },
        {
          "duration": 0.16279069767441712,
          "durationTicks": 14,
          "midi": 63,
          "name": "D#4",
          "ticks": 3209,
          "time": 37.31395348837209,
          "velocity": 0.6456692913385826
        },
        {
          "duration": 0.09302325581395365,
          "durationTicks": 8,
          "midi": 59,
          "name": "B3",
          "ticks": 3210,
          "time": 37.325581395348834,
          "velocity": 0.5354330708661418
        },
        {
          "duration": 0.081395348837205,
          "durationTicks": 7,
          "midi": 77,
          "name": "F5",
          "ticks": 3211,
          "time": 37.33720930232558,
          "velocity": 0.3228346456692913
        },
        {
          "duration": 0.04651162790698038,
          "durationTicks": 4,
          "midi": 51,
          "name": "D#3",
          "ticks": 3212,
          "time": 37.348837209302324,
          "velocity": 0.3779527559055118
        },
        {
          "duration": 0.06976744186046346,
          "durationTicks": 6,
          "midi": 70,
          "name": "A#4",
          "ticks": 3212,
          "time": 37.348837209302324,
          "velocity": 0.3464566929133858
        },
        {
          "duration": 0.02325581395349019,
          "durationTicks": 2,
          "midi": 60,
          "name": "C4",
          "ticks": 3218,
          "time": 37.41860465116279,
          "velocity": 0.5669291338582677
        },
        {
          "duration": 0.15116279069767558,
          "durationTicks": 13,
          "midi": 67,
          "name": "G4",
          "ticks": 3218,
          "time": 37.41860465116279,
          "velocity": 0.5433070866141733
        },
        {
          "duration": 0.03488372093023884,
          "durationTicks": 3,
          "midi": 78,
          "name": "F#5",
          "ticks": 3218,
          "time": 37.41860465116279,
          "velocity": 0.2125984251968504
        },
        {
          "duration": 0.12790697674418539,
          "durationTicks": 11,
          "midi": 85,
          "name": "C#6",
          "ticks": 3218,
          "time": 37.41860465116279,
          "velocity": 0.23622047244094488
        },
        {
          "duration": 0.011627906976741542,
          "durationTicks": 1,
          "midi": 34,
          "name": "A#1",
          "ticks": 3219,
          "time": 37.43023255813954,
          "velocity": 0.6141732283464567
        },
        {
          "duration": 0.011627906976741542,
          "durationTicks": 1,
          "midi": 48,
          "name": "C3",
          "ticks": 3219,
          "time": 37.43023255813954,
          "velocity": 0.5984251968503937
        },
        {
          "duration": 0.02325581395349019,
          "durationTicks": 2,
          "midi": 55,
          "name": "G3",
          "ticks": 3219,
          "time": 37.43023255813954,
          "velocity": 0.5590551181102362
        },
        {
          "duration": 0.12790697674418539,
          "durationTicks": 11,
          "midi": 74,
          "name": "D5",
          "ticks": 3219,
          "time": 37.43023255813954,
          "velocity": 0.41732283464566927
        },
        {
          "duration": 0.02325581395349019,
          "durationTicks": 2,
          "midi": 88,
          "name": "E6",
          "ticks": 3219,
          "time": 37.43023255813954,
          "velocity": 0.25196850393700787
        },
        {
          "duration": 0.11627906976743674,
          "durationTicks": 10,
          "midi": 92,
          "name": "G#6",
          "ticks": 3219,
          "time": 37.43023255813954,
          "velocity": 0.11023622047244094
        },
        {
          "duration": 0.046511627906973274,
          "durationTicks": 4,
          "midi": 93,
          "name": "A6",
          "ticks": 3219,
          "time": 37.43023255813954,
          "velocity": 0.10236220472440945
        },
        {
          "duration": 0.011627906976748648,
          "durationTicks": 1,
          "midi": 40,
          "name": "E2",
          "ticks": 3220,
          "time": 37.44186046511628,
          "velocity": 0.6062992125984252
        },
        {
          "duration": 0.011627906976748648,
          "durationTicks": 1,
          "midi": 49,
          "name": "C#3",
          "ticks": 3220,
          "time": 37.44186046511628,
          "velocity": 0.5511811023622047
        },
        {
          "duration": 0.011627906976741542,
          "durationTicks": 1,
          "midi": 53,
          "name": "F3",
          "ticks": 3221,
          "time": 37.45348837209303,
          "velocity": 0.5826771653543307
        },
        {
          "duration": 0.081395348837205,
          "durationTicks": 7,
          "midi": 80,
          "name": "G#5",
          "ticks": 3221,
          "time": 37.45348837209303,
          "velocity": 0.14960629921259844
        },
        {
          "duration": 0.011627906976741542,
          "durationTicks": 1,
          "midi": 44,
          "name": "G#2",
          "ticks": 3222,
          "time": 37.46511627906977,
          "velocity": 0.5433070866141733
        },
        {
          "duration": 0.011627906976741542,
          "durationTicks": 1,
          "midi": 52,
          "name": "E3",
          "ticks": 3222,
          "time": 37.46511627906977,
          "velocity": 0.5511811023622047
        },
        {
          "duration": 0.02325581395349019,
          "durationTicks": 2,
          "midi": 70,
          "name": "A#4",
          "ticks": 3222,
          "time": 37.46511627906977,
          "velocity": 0.2755905511811024
        },
        {
          "duration": 0.09302325581395365,
          "durationTicks": 8,
          "midi": 77,
          "name": "F5",
          "ticks": 3222,
          "time": 37.46511627906977,
          "velocity": 0.25984251968503935
        },
        {
          "duration": 0.02325581395349019,
          "durationTicks": 2,
          "midi": 88,
          "name": "E6",
          "ticks": 3222,
          "time": 37.46511627906977,
          "velocity": 0.2283464566929134
        },
        {
          "duration": 0.011627906976748648,
          "durationTicks": 1,
          "midi": 42,
          "name": "F#2",
          "ticks": 3223,
          "time": 37.47674418604651,
          "velocity": 0.6220472440944882
        },
        {
          "duration": 0.02325581395349019,
          "durationTicks": 2,
          "midi": 50,
          "name": "D3",
          "ticks": 3223,
          "time": 37.47674418604651,
          "velocity": 0.5984251968503937
        },
        {
          "duration": 0.08139534883721211,
          "durationTicks": 7,
          "midi": 61,
          "name": "C#4",
          "ticks": 3223,
          "time": 37.47674418604651,
          "velocity": 0.5511811023622047
        },
        {
          "duration": 0.06976744186046346,
          "durationTicks": 6,
          "midi": 89,
          "name": "F6",
          "ticks": 3223,
          "time": 37.47674418604651,
          "velocity": 0.3937007874015748
        },
        {
          "duration": 0.058139534883714816,
          "durationTicks": 5,
          "midi": 41,
          "name": "F2",
          "ticks": 3224,
          "time": 37.48837209302326,
          "velocity": 0.6377952755905512
        },
        {
          "duration": 0.058139534883714816,
          "durationTicks": 5,
          "midi": 87,
          "name": "D#6",
          "ticks": 3224,
          "time": 37.48837209302326,
          "velocity": 0.11811023622047244
        },
        {
          "duration": 0.05813953488372192,
          "durationTicks": 5,
          "midi": 70,
          "name": "A#4",
          "ticks": 3226,
          "time": 37.51162790697674,
          "velocity": 0.25196850393700787
        },
        {
          "duration": 0.03488372093023173,
          "durationTicks": 3,
          "midi": 50,
          "name": "D3",
          "ticks": 3228,
          "time": 37.53488372093023,
          "velocity": 0.4409448818897638
        },
        {
          "duration": 0.03488372093023884,
          "durationTicks": 3,
          "midi": 39,
          "name": "D#2",
          "ticks": 3229,
          "time": 37.54651162790697,
          "velocity": 0.1732283464566929
        },
        {
          "duration": 0.046511627906973274,
          "durationTicks": 4,
          "midi": 58,
          "name": "A#3",
          "ticks": 3230,
          "time": 37.55813953488372,
          "velocity": 0.30708661417322836
        },
        {
          "duration": 0.15116279069767558,
          "durationTicks": 13,
          "midi": 67,
          "name": "G4",
          "ticks": 3237,
          "time": 37.63953488372093,
          "velocity": 0.5669291338582677
        },
        {
          "duration": 0.02325581395349019,
          "durationTicks": 2,
          "midi": 80,
          "name": "G#5",
          "ticks": 3237,
          "time": 37.63953488372093,
          "velocity": 0.29133858267716534
        },
        {
          "duration": 0.15116279069767558,
          "durationTicks": 13,
          "midi": 83,
          "name": "B5",
          "ticks": 3237,
          "time": 37.63953488372093,
          "velocity": 0.31496062992125984
        },
        {
          "duration": 0.15116279069767558,
          "durationTicks": 13,
          "midi": 89,
          "name": "F6",
          "ticks": 3237,
          "time": 37.63953488372093,
          "velocity": 0.2755905511811024
        },
        {
          "duration": 0.011627906976741542,
          "durationTicks": 1,
          "midi": 45,
          "name": "A2",
          "ticks": 3238,
          "time": 37.651162790697676,
          "velocity": 0.5118110236220472
        },
        {
          "duration": 0.06976744186046346,
          "durationTicks": 6,
          "midi": 70,
          "name": "A#4",
          "ticks": 3238,
          "time": 37.651162790697676,
          "velocity": 0.5590551181102362
        },
        {
          "duration": 0.13953488372092693,
          "durationTicks": 12,
          "midi": 74,
          "name": "D5",
          "ticks": 3238,
          "time": 37.651162790697676,
          "velocity": 0.4566929133858268
        },
        {
          "duration": 0.19767441860464885,
          "durationTicks": 17,
          "midi": 77,
          "name": "F5",
          "ticks": 3238,
          "time": 37.651162790697676,
          "velocity": 0.3858267716535433
        },
        {
          "duration": 0.02325581395349019,
          "durationTicks": 2,
          "midi": 29,
          "name": "F1",
          "ticks": 3239,
          "time": 37.66279069767442,
          "velocity": 0.49606299212598426
        },
        {
          "duration": 0.011627906976748648,
          "durationTicks": 1,
          "midi": 47,
          "name": "B2",
          "ticks": 3239,
          "time": 37.66279069767442,
          "velocity": 0.6062992125984252
        },
        {
          "duration": 0.011627906976748648,
          "durationTicks": 1,
          "midi": 57,
          "name": "A3",
          "ticks": 3239,
          "time": 37.66279069767442,
          "velocity": 0.5196850393700787
        },
        {
          "duration": 0.011627906976748648,
          "durationTicks": 1,
          "midi": 63,
          "name": "D#4",
          "ticks": 3239,
          "time": 37.66279069767442,
          "velocity": 0.5905511811023622
        },
        {
          "duration": 0.12790697674418539,
          "durationTicks": 11,
          "midi": 85,
          "name": "C#6",
          "ticks": 3239,
          "time": 37.66279069767442,
          "velocity": 0.1732283464566929
        },
        {
          "duration": 0.011627906976741542,
          "durationTicks": 1,
          "midi": 48,
          "name": "C3",
          "ticks": 3240,
          "time": 37.674418604651166,
          "velocity": 0.6456692913385826
        },
        {
          "duration": 0.1046511627906952,
          "durationTicks": 9,
          "midi": 55,
          "name": "G3",
          "ticks": 3240,
          "time": 37.674418604651166,
          "velocity": 0.5748031496062992
        },
        {
          "duration": 0.011627906976741542,
          "durationTicks": 1,
          "midi": 62,
          "name": "D4",
          "ticks": 3240,
          "time": 37.674418604651166,
          "velocity": 0.6456692913385826
        },
        {
          "duration": 0.06976744186046346,
          "durationTicks": 6,
          "midi": 80,
          "name": "G#5",
          "ticks": 3240,
          "time": 37.674418604651166,
          "velocity": 0.1732283464566929
        },
        {
          "duration": 0.05813953488372192,
          "durationTicks": 5,
          "midi": 49,
          "name": "C#3",
          "ticks": 3241,
          "time": 37.68604651162791,
          "velocity": 0.6535433070866141
        },
        {
          "duration": 0.011627906976741542,
          "durationTicks": 1,
          "midi": 63,
          "name": "D#4",
          "ticks": 3241,
          "time": 37.68604651162791,
          "velocity": 0.5433070866141733
        },
        {
          "duration": 0.02325581395349019,
          "durationTicks": 2,
          "midi": 50,
          "name": "D3",
          "ticks": 3246,
          "time": 37.74418604651163,
          "velocity": 0.5748031496062992
        },
        {
          "duration": 0.09302325581395365,
          "durationTicks": 8,
          "midi": 70,
          "name": "A#4",
          "ticks": 3248,
          "time": 37.76744186046512,
          "velocity": 0.2992125984251969
        },
        {
          "duration": 0.03488372093023173,
          "durationTicks": 3,
          "midi": 58,
          "name": "A#3",
          "ticks": 3249,
          "time": 37.77906976744186,
          "velocity": 0.3858267716535433
        },
        {
          "duration": 0.046511627906973274,
          "durationTicks": 4,
          "midi": 55,
          "name": "G3",
          "ticks": 3251,
          "time": 37.80232558139535,
          "velocity": 0.2992125984251969
        },
        {
          "duration": 0.16279069767441712,
          "durationTicks": 14,
          "midi": 67,
          "name": "G4",
          "ticks": 3257,
          "time": 37.872093023255815,
          "velocity": 0.5590551181102362
        },
        {
          "duration": 0.13953488372092693,
          "durationTicks": 12,
          "midi": 77,
          "name": "F5",
          "ticks": 3257,
          "time": 37.872093023255815,
          "velocity": 0.28346456692913385
        },
        {
          "duration": 0.15116279069767558,
          "durationTicks": 13,
          "midi": 83,
          "name": "B5",
          "ticks": 3257,
          "time": 37.872093023255815,
          "velocity": 0.3543307086614173
        },
        {
          "duration": 0.011627906976748648,
          "durationTicks": 1,
          "midi": 30,
          "name": "F#1",
          "ticks": 3258,
          "time": 37.883720930232556,
          "velocity": 0.5196850393700787
        },
        {
          "duration": 0.02325581395349019,
          "durationTicks": 2,
          "midi": 48,
          "name": "C3",
          "ticks": 3258,
          "time": 37.883720930232556,
          "velocity": 0.6141732283464567
        },
        {
          "duration": 0.06976744186047057,
          "durationTicks": 6,
          "midi": 70,
          "name": "A#4",
          "ticks": 3258,
          "time": 37.883720930232556,
          "velocity": 0.5275590551181102
        },
        {
          "duration": 0.12790697674418539,
          "durationTicks": 11,
          "midi": 86,
          "name": "D6",
          "ticks": 3258,
          "time": 37.883720930232556,
          "velocity": 0.2440944881889764
        },
        {
          "duration": 0.011627906976741542,
          "durationTicks": 1,
          "midi": 35,
          "name": "B1",
          "ticks": 3259,
          "time": 37.895348837209305,
          "velocity": 0.6062992125984252
        },
        {
          "duration": 0.023255813953483084,
          "durationTicks": 2,
          "midi": 55,
          "name": "G3",
          "ticks": 3259,
          "time": 37.895348837209305,
          "velocity": 0.5433070866141733
        },
        {
          "duration": 0.03488372093023173,
          "durationTicks": 3,
          "midi": 63,
          "name": "D#4",
          "ticks": 3259,
          "time": 37.895348837209305,
          "velocity": 0.6377952755905512
        },
        {
          "duration": 0.12790697674418539,
          "durationTicks": 11,
          "midi": 74,
          "name": "D5",
          "ticks": 3259,
          "time": 37.895348837209305,
          "velocity": 0.4409448818897638
        },
        {
          "duration": 0.11627906976743674,
          "durationTicks": 10,
          "midi": 85,
          "name": "C#6",
          "ticks": 3259,
          "time": 37.895348837209305,
          "velocity": 0.1889763779527559
        },
        {
          "duration": 0.02325581395349019,
          "durationTicks": 2,
          "midi": 41,
          "name": "F2",
          "ticks": 3260,
          "time": 37.906976744186046,
          "velocity": 0.5905511811023622
        },
        {
          "duration": 0.1046511627907023,
          "durationTicks": 9,
          "midi": 61,
          "name": "C#4",
          "ticks": 3261,
          "time": 37.91860465116279,
          "velocity": 0.5748031496062992
        },
        {
          "duration": 0.08139534883721211,
          "durationTicks": 7,
          "midi": 80,
          "name": "G#5",
          "ticks": 3261,
          "time": 37.91860465116279,
          "velocity": 0.14960629921259844
        },
        {
          "duration": 0.011627906976741542,
          "durationTicks": 1,
          "midi": 44,
          "name": "G#2",
          "ticks": 3262,
          "time": 37.93023255813954,
          "velocity": 0.5354330708661418
        },
        {
          "duration": 0.011627906976741542,
          "durationTicks": 1,
          "midi": 51,
          "name": "D#3",
          "ticks": 3262,
          "time": 37.93023255813954,
          "velocity": 0.5669291338582677
        },
        {
          "duration": 0.011627906976748648,
          "durationTicks": 1,
          "midi": 42,
          "name": "F#2",
          "ticks": 3263,
          "time": 37.94186046511628,
          "velocity": 0.6377952755905512
        },
        {
          "duration": 0.02325581395349019,
          "durationTicks": 2,
          "midi": 50,
          "name": "D3",
          "ticks": 3263,
          "time": 37.94186046511628,
          "velocity": 0.5984251968503937
        },
        {
          "duration": 0.02325581395349019,
          "durationTicks": 2,
          "midi": 88,
          "name": "E6",
          "ticks": 3263,
          "time": 37.94186046511628,
          "velocity": 0.29133858267716534
        },
        {
          "duration": 0.046511627906973274,
          "durationTicks": 4,
          "midi": 41,
          "name": "F2",
          "ticks": 3264,
          "time": 37.95348837209303,
          "velocity": 0.6377952755905512
        },
        {
          "duration": 0.06976744186046346,
          "durationTicks": 6,
          "midi": 89,
          "name": "F6",
          "ticks": 3265,
          "time": 37.96511627906977,
          "velocity": 0.28346456692913385
        },
        {
          "duration": 0.11627906976744384,
          "durationTicks": 10,
          "midi": 55,
          "name": "G3",
          "ticks": 3266,
          "time": 37.97674418604651,
          "velocity": 0.47244094488188976
        },
        {
          "duration": 0.02325581395349019,
          "durationTicks": 2,
          "midi": 77,
          "name": "F5",
          "ticks": 3277,
          "time": 38.104651162790695,
          "velocity": 0.29133858267716534
        },
        {
          "duration": 0.03488372093023173,
          "durationTicks": 3,
          "midi": 79,
          "name": "G5",
          "ticks": 3277,
          "time": 38.104651162790695,
          "velocity": 0.2755905511811024
        },
        {
          "duration": 0.03488372093023173,
          "durationTicks": 3,
          "midi": 86,
          "name": "D6",
          "ticks": 3277,
          "time": 38.104651162790695,
          "velocity": 0.23622047244094488
        },
        {
          "duration": 0.03488372093023173,
          "durationTicks": 3,
          "midi": 87,
          "name": "D#6",
          "ticks": 3277,
          "time": 38.104651162790695,
          "velocity": 0.2283464566929134
        },
        {
          "duration": 0.03488372093023173,
          "durationTicks": 3,
          "midi": 88,
          "name": "E6",
          "ticks": 3277,
          "time": 38.104651162790695,
          "velocity": 0.2440944881889764
        },
        {
          "duration": 0.023255813953483084,
          "durationTicks": 2,
          "midi": 55,
          "name": "G3",
          "ticks": 3278,
          "time": 38.116279069767444,
          "velocity": 0.4881889763779528
        },
        {
          "duration": 0.09302325581395365,
          "durationTicks": 8,
          "midi": 65,
          "name": "F4",
          "ticks": 3278,
          "time": 38.116279069767444,
          "velocity": 0.6062992125984252
        },
        {
          "duration": 0.06976744186046346,
          "durationTicks": 6,
          "midi": 70,
          "name": "A#4",
          "ticks": 3278,
          "time": 38.116279069767444,
          "velocity": 0.5669291338582677
        },
        {
          "duration": 0.023255813953483084,
          "durationTicks": 2,
          "midi": 78,
          "name": "F#5",
          "ticks": 3278,
          "time": 38.116279069767444,
          "velocity": 0.2755905511811024
        },
        {
          "duration": 0.046511627906973274,
          "durationTicks": 4,
          "midi": 81,
          "name": "A5",
          "ticks": 3278,
          "time": 38.116279069767444,
          "velocity": 0.2283464566929134
        },
        {
          "duration": 0.023255813953483084,
          "durationTicks": 2,
          "midi": 85,
          "name": "C#6",
          "ticks": 3278,
          "time": 38.116279069767444,
          "velocity": 0.2283464566929134
        },
        {
          "duration": 0.011627906976741542,
          "durationTicks": 1,
          "midi": 48,
          "name": "C3",
          "ticks": 3279,
          "time": 38.127906976744185,
          "velocity": 0.5905511811023622
        },
        {
          "duration": 0.04651162790698038,
          "durationTicks": 4,
          "midi": 61,
          "name": "C#4",
          "ticks": 3279,
          "time": 38.127906976744185,
          "velocity": 0.44881889763779526
        },
        {
          "duration": 0.11627906976744384,
          "durationTicks": 10,
          "midi": 74,
          "name": "D5",
          "ticks": 3279,
          "time": 38.127906976744185,
          "velocity": 0.2283464566929134
        },
        {
          "duration": 0.06976744186046346,
          "durationTicks": 6,
          "midi": 80,
          "name": "G#5",
          "ticks": 3279,
          "time": 38.127906976744185,
          "velocity": 0.2125984251968504
        },
        {
          "duration": 0.02325581395349019,
          "durationTicks": 2,
          "midi": 49,
          "name": "C#3",
          "ticks": 3280,
          "time": 38.13953488372093,
          "velocity": 0.6220472440944882
        },
        {
          "duration": 0.02325581395349019,
          "durationTicks": 2,
          "midi": 54,
          "name": "F#3",
          "ticks": 3280,
          "time": 38.13953488372093,
          "velocity": 0.49606299212598426
        },
        {
          "duration": 0.19767441860464885,
          "durationTicks": 17,
          "midi": 58,
          "name": "A#3",
          "ticks": 3281,
          "time": 38.151162790697676,
          "velocity": 0.5039370078740157
        },
        {
          "duration": 0.011627906976748648,
          "durationTicks": 1,
          "midi": 50,
          "name": "D3",
          "ticks": 3282,
          "time": 38.16279069767442,
          "velocity": 0.5748031496062992
        },
        {
          "duration": 0.023255813953483084,
          "durationTicks": 2,
          "midi": 49,
          "name": "C#3",
          "ticks": 3283,
          "time": 38.174418604651166,
          "velocity": 0.5275590551181102
        },
        {
          "duration": 0.011627906976748648,
          "durationTicks": 1,
          "midi": 50,
          "name": "D3",
          "ticks": 3285,
          "time": 38.19767441860465,
          "velocity": 0.5669291338582677
        },
        {
          "duration": 0.023255813953483084,
          "durationTicks": 2,
          "midi": 51,
          "name": "D#3",
          "ticks": 3286,
          "time": 38.2093023255814,
          "velocity": 0.5196850393700787
        },
        {
          "duration": 0.02325581395349019,
          "durationTicks": 2,
          "midi": 64,
          "name": "E4",
          "ticks": 3287,
          "time": 38.22093023255814,
          "velocity": 0.5354330708661418
        },
        {
          "duration": 0.081395348837205,
          "durationTicks": 7,
          "midi": 51,
          "name": "D#3",
          "ticks": 3289,
          "time": 38.24418604651163,
          "velocity": 0.4566929133858268
        },
        {
          "duration": 0.2093023255813975,
          "durationTicks": 18,
          "midi": 63,
          "name": "D#4",
          "ticks": 3289,
          "time": 38.24418604651163,
          "velocity": 0.5984251968503937
        },
        {
          "duration": 0.03488372093023173,
          "durationTicks": 3,
          "midi": 77,
          "name": "F5",
          "ticks": 3297,
          "time": 38.33720930232558,
          "velocity": 0.29133858267716534
        },
        {
          "duration": 0.1046511627906952,
          "durationTicks": 9,
          "midi": 82,
          "name": "A#5",
          "ticks": 3297,
          "time": 38.33720930232558,
          "velocity": 0.33070866141732286
        },
        {
          "duration": 0.03488372093023173,
          "durationTicks": 3,
          "midi": 88,
          "name": "E6",
          "ticks": 3297,
          "time": 38.33720930232558,
          "velocity": 0.25196850393700787
        },
        {
          "duration": 0.02325581395349019,
          "durationTicks": 2,
          "midi": 35,
          "name": "B1",
          "ticks": 3298,
          "time": 38.348837209302324,
          "velocity": 0.6377952755905512
        },
        {
          "duration": 0.02325581395349019,
          "durationTicks": 2,
          "midi": 50,
          "name": "D3",
          "ticks": 3298,
          "time": 38.348837209302324,
          "velocity": 0.6614173228346457
        },
        {
          "duration": 0.1046511627907023,
          "durationTicks": 9,
          "midi": 70,
          "name": "A#4",
          "ticks": 3298,
          "time": 38.348837209302324,
          "velocity": 0.5748031496062992
        },
        {
          "duration": 0.06976744186046346,
          "durationTicks": 6,
          "midi": 79,
          "name": "G5",
          "ticks": 3298,
          "time": 38.348837209302324,
          "velocity": 0.2755905511811024
        },
        {
          "duration": 0.02325581395349019,
          "durationTicks": 2,
          "midi": 86,
          "name": "D6",
          "ticks": 3298,
          "time": 38.348837209302324,
          "velocity": 0.2283464566929134
        },
        {
          "duration": 0.15116279069766847,
          "durationTicks": 13,
          "midi": 73,
          "name": "C#5",
          "ticks": 3299,
          "time": 38.36046511627907,
          "velocity": 0.31496062992125984
        },
        {
          "duration": 0.011627906976741542,
          "durationTicks": 1,
          "midi": 40,
          "name": "E2",
          "ticks": 3300,
          "time": 38.372093023255815,
          "velocity": 0.5275590551181102
        },
        {
          "duration": 0.06976744186046346,
          "durationTicks": 6,
          "midi": 51,
          "name": "D#3",
          "ticks": 3300,
          "time": 38.372093023255815,
          "velocity": 0.6771653543307087
        },
        {
          "duration": 0.03488372093023173,
          "durationTicks": 3,
          "midi": 66,
          "name": "F#4",
          "ticks": 3300,
          "time": 38.372093023255815,
          "velocity": 0.30708661417322836
        },
        {
          "duration": 0.011627906976741542,
          "durationTicks": 1,
          "midi": 43,
          "name": "G2",
          "ticks": 3302,
          "time": 38.395348837209305,
          "velocity": 0.5590551181102362
        },
        {
          "duration": 0.011627906976741542,
          "durationTicks": 1,
          "midi": 42,
          "name": "F#2",
          "ticks": 3303,
          "time": 38.406976744186046,
          "velocity": 0.6141732283464567
        },
        {
          "duration": 0.05813953488372192,
          "durationTicks": 5,
          "midi": 41,
          "name": "F2",
          "ticks": 3304,
          "time": 38.41860465116279,
          "velocity": 0.6141732283464567
        },
        {
          "duration": 0.02325581395349019,
          "durationTicks": 2,
          "midi": 66,
          "name": "F#4",
          "ticks": 3304,
          "time": 38.41860465116279,
          "velocity": 0.2677165354330709
        },
        {
          "duration": 0.05813953488372192,
          "durationTicks": 5,
          "midi": 54,
          "name": "F#3",
          "ticks": 3305,
          "time": 38.43023255813954,
          "velocity": 0.48031496062992124
        },
        {
          "duration": 0.058139534883714816,
          "durationTicks": 5,
          "midi": 55,
          "name": "G3",
          "ticks": 3310,
          "time": 38.48837209302326,
          "velocity": 0.4251968503937008
        },
        {
          "duration": 0.08139534883721211,
          "durationTicks": 7,
          "midi": 78,
          "name": "F#5",
          "ticks": 3317,
          "time": 38.56976744186046,
          "velocity": 0.2755905511811024
        },
        {
          "duration": 0.2093023255813975,
          "durationTicks": 18,
          "midi": 82,
          "name": "A#5",
          "ticks": 3317,
          "time": 38.56976744186046,
          "velocity": 0.33858267716535434
        },
        {
          "duration": 0.1046511627907023,
          "durationTicks": 9,
          "midi": 84,
          "name": "C6",
          "ticks": 3317,
          "time": 38.56976744186046,
          "velocity": 0.23622047244094488
        },
        {
          "duration": 0.02325581395349019,
          "durationTicks": 2,
          "midi": 86,
          "name": "D6",
          "ticks": 3317,
          "time": 38.56976744186046,
          "velocity": 0.2283464566929134
        },
        {
          "duration": 0.05813953488372192,
          "durationTicks": 5,
          "midi": 88,
          "name": "E6",
          "ticks": 3317,
          "time": 38.56976744186046,
          "velocity": 0.25984251968503935
        },
        {
          "duration": 0.023255813953483084,
          "durationTicks": 2,
          "midi": 29,
          "name": "F1",
          "ticks": 3318,
          "time": 38.58139534883721,
          "velocity": 0.4094488188976378
        },
        {
          "duration": 0.03488372093023173,
          "durationTicks": 3,
          "midi": 63,
          "name": "D#4",
          "ticks": 3318,
          "time": 38.58139534883721,
          "velocity": 0.5669291338582677
        },
        {
          "duration": 0.12790697674418539,
          "durationTicks": 11,
          "midi": 66,
          "name": "F#4",
          "ticks": 3318,
          "time": 38.58139534883721,
          "velocity": 0.5590551181102362
        },
        {
          "duration": 0.13953488372092693,
          "durationTicks": 12,
          "midi": 70,
          "name": "A#4",
          "ticks": 3318,
          "time": 38.58139534883721,
          "velocity": 0.5748031496062992
        },
        {
          "duration": 0.11627906976743674,
          "durationTicks": 10,
          "midi": 76,
          "name": "E5",
          "ticks": 3318,
          "time": 38.58139534883721,
          "velocity": 0.2677165354330709
        },
        {
          "duration": 0.11627906976743674,
          "durationTicks": 10,
          "midi": 85,
          "name": "C#6",
          "ticks": 3318,
          "time": 38.58139534883721,
          "velocity": 0.2677165354330709
        },
        {
          "duration": 0.011627906976741542,
          "durationTicks": 1,
          "midi": 47,
          "name": "B2",
          "ticks": 3319,
          "time": 38.593023255813954,
          "velocity": 0.5354330708661418
        },
        {
          "duration": 0.11627906976744384,
          "durationTicks": 10,
          "midi": 60,
          "name": "C4",
          "ticks": 3319,
          "time": 38.593023255813954,
          "velocity": 0.5748031496062992
        },
        {
          "duration": 0.12790697674418539,
          "durationTicks": 11,
          "midi": 73,
          "name": "C#5",
          "ticks": 3319,
          "time": 38.593023255813954,
          "velocity": 0.4015748031496063
        },
        {
          "duration": 0.03488372093023173,
          "durationTicks": 3,
          "midi": 79,
          "name": "G5",
          "ticks": 3319,
          "time": 38.593023255813954,
          "velocity": 0.14173228346456693
        },
        {
          "duration": 0.02325581395349019,
          "durationTicks": 2,
          "midi": 48,
          "name": "C3",
          "ticks": 3320,
          "time": 38.604651162790695,
          "velocity": 0.5590551181102362
        },
        {
          "duration": 0.02325581395349019,
          "durationTicks": 2,
          "midi": 54,
          "name": "F#3",
          "ticks": 3320,
          "time": 38.604651162790695,
          "velocity": 0.5196850393700787
        },
        {
          "duration": 0.011627906976748648,
          "durationTicks": 1,
          "midi": 51,
          "name": "D#3",
          "ticks": 3323,
          "time": 38.63953488372093,
          "velocity": 0.5118110236220472
        },
        {
          "duration": 0.03488372093023884,
          "durationTicks": 3,
          "midi": 79,
          "name": "G5",
          "ticks": 3323,
          "time": 38.63953488372093,
          "velocity": 0.11811023622047244
        },
        {
          "duration": 0.06976744186047057,
          "durationTicks": 6,
          "midi": 88,
          "name": "E6",
          "ticks": 3323,
          "time": 38.63953488372093,
          "velocity": 0.2755905511811024
        },
        {
          "duration": 0.011627906976741542,
          "durationTicks": 1,
          "midi": 50,
          "name": "D3",
          "ticks": 3324,
          "time": 38.651162790697676,
          "velocity": 0.5354330708661418
        },
        {
          "duration": 0.011627906976741542,
          "durationTicks": 1,
          "midi": 50,
          "name": "D3",
          "ticks": 3327,
          "time": 38.68604651162791,
          "velocity": 0.5275590551181102
        },
        {
          "duration": 0.02325581395349019,
          "durationTicks": 2,
          "midi": 52,
          "name": "E3",
          "ticks": 3328,
          "time": 38.69767441860465,
          "velocity": 0.4881889763779528
        },
        {
          "duration": 0.2558139534883779,
          "durationTicks": 22,
          "midi": 75,
          "name": "D#5",
          "ticks": 3328,
          "time": 38.69767441860465,
          "velocity": 0.3937007874015748
        },
        {
          "duration": 0.09302325581395365,
          "durationTicks": 8,
          "midi": 63,
          "name": "D#4",
          "ticks": 3329,
          "time": 38.7093023255814,
          "velocity": 0.3543307086614173
        },
        {
          "duration": 0.04651162790698038,
          "durationTicks": 4,
          "midi": 51,
          "name": "D#3",
          "ticks": 3330,
          "time": 38.72093023255814,
          "velocity": 0.36220472440944884
        },
        {
          "duration": 0.03488372093023173,
          "durationTicks": 3,
          "midi": 68,
          "name": "G#4",
          "ticks": 3337,
          "time": 38.80232558139535,
          "velocity": 0.6299212598425197
        },
        {
          "duration": 0.11627906976743674,
          "durationTicks": 10,
          "midi": 82,
          "name": "A#5",
          "ticks": 3337,
          "time": 38.80232558139535,
          "velocity": 0.2440944881889764
        },
        {
          "duration": 0.12790697674418539,
          "durationTicks": 11,
          "midi": 84,
          "name": "C6",
          "ticks": 3337,
          "time": 38.80232558139535,
          "velocity": 0.29133858267716534
        },
        {
          "duration": 0.17441860465115866,
          "durationTicks": 15,
          "midi": 85,
          "name": "C#6",
          "ticks": 3337,
          "time": 38.80232558139535,
          "velocity": 0.2677165354330709
        },
        {
          "duration": 0.011627906976741542,
          "durationTicks": 1,
          "midi": 35,
          "name": "B1",
          "ticks": 3338,
          "time": 38.81395348837209,
          "velocity": 0.5905511811023622
        },
        {
          "duration": 0.011627906976741542,
          "durationTicks": 1,
          "midi": 50,
          "name": "D3",
          "ticks": 3338,
          "time": 38.81395348837209,
          "velocity": 0.5669291338582677
        },
        {
          "duration": 0.011627906976741542,
          "durationTicks": 1,
          "midi": 57,
          "name": "A3",
          "ticks": 3338,
          "time": 38.81395348837209,
          "velocity": 0.5196850393700787
        },
        {
          "duration": 0.12790697674418539,
          "durationTicks": 11,
          "midi": 63,
          "name": "D#4",
          "ticks": 3338,
          "time": 38.81395348837209,
          "velocity": 0.5826771653543307
        },
        {
          "duration": 0.03488372093023173,
          "durationTicks": 3,
          "midi": 79,
          "name": "G5",
          "ticks": 3338,
          "time": 38.81395348837209,
          "velocity": 0.2677165354330709
        },
        {
          "duration": 0.13953488372093403,
          "durationTicks": 12,
          "midi": 90,
          "name": "F#6",
          "ticks": 3338,
          "time": 38.81395348837209,
          "velocity": 0.25196850393700787
        },
        {
          "duration": 0.011627906976748648,
          "durationTicks": 1,
          "midi": 40,
          "name": "E2",
          "ticks": 3339,
          "time": 38.825581395348834,
          "velocity": 0.5905511811023622
        },
        {
          "duration": 0.011627906976748648,
          "durationTicks": 1,
          "midi": 51,
          "name": "D#3",
          "ticks": 3339,
          "time": 38.825581395348834,
          "velocity": 0.5748031496062992
        },
        {
          "duration": 0.011627906976748648,
          "durationTicks": 1,
          "midi": 56,
          "name": "G#3",
          "ticks": 3339,
          "time": 38.825581395348834,
          "velocity": 0.5196850393700787
        },
        {
          "duration": 0.04651162790698038,
          "durationTicks": 4,
          "midi": 59,
          "name": "B3",
          "ticks": 3339,
          "time": 38.825581395348834,
          "velocity": 0.4566929133858268
        },
        {
          "duration": 0.02325581395349019,
          "durationTicks": 2,
          "midi": 44,
          "name": "G#2",
          "ticks": 3340,
          "time": 38.83720930232558,
          "velocity": 0.5118110236220472
        },
        {
          "duration": 0.011627906976741542,
          "durationTicks": 1,
          "midi": 52,
          "name": "E3",
          "ticks": 3340,
          "time": 38.83720930232558,
          "velocity": 0.5669291338582677
        },
        {
          "duration": 0.02325581395349019,
          "durationTicks": 2,
          "midi": 67,
          "name": "G4",
          "ticks": 3340,
          "time": 38.83720930232558,
          "velocity": 0.49606299212598426
        },
        {
          "duration": 0.03488372093023173,
          "durationTicks": 3,
          "midi": 70,
          "name": "A#4",
          "ticks": 3340,
          "time": 38.83720930232558,
          "velocity": 0.44881889763779526
        },
        {
          "duration": 0.12790697674418539,
          "durationTicks": 11,
          "midi": 78,
          "name": "F#5",
          "ticks": 3340,
          "time": 38.83720930232558,
          "velocity": 0.30708661417322836
        },
        {
          "duration": 0.02325581395349019,
          "durationTicks": 2,
          "midi": 54,
          "name": "F#3",
          "ticks": 3341,
          "time": 38.848837209302324,
          "velocity": 0.48031496062992124
        },
        {
          "duration": 0.11627906976744384,
          "durationTicks": 10,
          "midi": 68,
          "name": "G#4",
          "ticks": 3341,
          "time": 38.848837209302324,
          "velocity": 0.5748031496062992
        },
        {
          "duration": 0.011627906976741542,
          "durationTicks": 1,
          "midi": 42,
          "name": "F#2",
          "ticks": 3342,
          "time": 38.86046511627907,
          "velocity": 0.5905511811023622
        },
        {
          "duration": 0.081395348837205,
          "durationTicks": 7,
          "midi": 79,
          "name": "G5",
          "ticks": 3342,
          "time": 38.86046511627907,
          "velocity": 0.2125984251968504
        },
        {
          "duration": 0.046511627906973274,
          "durationTicks": 4,
          "midi": 41,
          "name": "F2",
          "ticks": 3343,
          "time": 38.872093023255815,
          "velocity": 0.6535433070866141
        },
        {
          "duration": 0.02325581395349019,
          "durationTicks": 2,
          "midi": 55,
          "name": "G3",
          "ticks": 3343,
          "time": 38.872093023255815,
          "velocity": 0.5826771653543307
        },
        {
          "duration": 0.03488372093023173,
          "durationTicks": 3,
          "midi": 73,
          "name": "C#5",
          "ticks": 3343,
          "time": 38.872093023255815,
          "velocity": 0.2047244094488189
        },
        {
          "duration": 0.046511627906973274,
          "durationTicks": 4,
          "midi": 95,
          "name": "B6",
          "ticks": 3343,
          "time": 38.872093023255815,
          "velocity": 0.10236220472440945
        },
        {
          "duration": 0.02325581395349019,
          "durationTicks": 2,
          "midi": 70,
          "name": "A#4",
          "ticks": 3344,
          "time": 38.883720930232556,
          "velocity": 0.4566929133858268
        },
        {
          "duration": 0.046511627906973274,
          "durationTicks": 4,
          "midi": 51,
          "name": "D#3",
          "ticks": 3345,
          "time": 38.895348837209305,
          "velocity": 0.47244094488188976
        },
        {
          "duration": 0.02325581395349019,
          "durationTicks": 2,
          "midi": 55,
          "name": "G3",
          "ticks": 3348,
          "time": 38.93023255813954,
          "velocity": 0.3779527559055118
        },
        {
          "duration": 0.22093023255813904,
          "durationTicks": 19,
          "midi": 73,
          "name": "C#5",
          "ticks": 3349,
          "time": 38.94186046511628,
          "velocity": 0.4645669291338583
        },
        {
          "duration": 0.023255813953483084,
          "durationTicks": 2,
          "midi": 53,
          "name": "F3",
          "ticks": 3350,
          "time": 38.95348837209303,
          "velocity": 0.2677165354330709
        },
        {
          "duration": 0.1046511627906952,
          "durationTicks": 9,
          "midi": 61,
          "name": "C#4",
          "ticks": 3350,
          "time": 38.95348837209303,
          "velocity": 0.5826771653543307
        },
        {
          "duration": 0.05813953488372192,
          "durationTicks": 5,
          "midi": 40,
          "name": "E2",
          "ticks": 3351,
          "time": 38.96511627906977,
          "velocity": 0.2440944881889764
        },
        {
          "duration": 0.03488372093023173,
          "durationTicks": 3,
          "midi": 79,
          "name": "G5",
          "ticks": 3352,
          "time": 38.97674418604651,
          "velocity": 0.08661417322834646
        },
        {
          "duration": 0.046511627906973274,
          "durationTicks": 4,
          "midi": 71,
          "name": "B4",
          "ticks": 3353,
          "time": 38.98837209302326,
          "velocity": 0.11023622047244094
        },
        {
          "duration": 0.023255813953483084,
          "durationTicks": 2,
          "midi": 67,
          "name": "G4",
          "ticks": 3356,
          "time": 39.02325581395349,
          "velocity": 0.3700787401574803
        },
        {
          "duration": 0.13953488372093403,
          "durationTicks": 12,
          "midi": 76,
          "name": "E5",
          "ticks": 3357,
          "time": 39.03488372093023,
          "velocity": 0.25984251968503935
        },
        {
          "duration": 0.12790697674418539,
          "durationTicks": 11,
          "midi": 78,
          "name": "F#5",
          "ticks": 3357,
          "time": 39.03488372093023,
          "velocity": 0.2283464566929134
        },
        {
          "duration": 0.05813953488372192,
          "durationTicks": 5,
          "midi": 82,
          "name": "A#5",
          "ticks": 3357,
          "time": 39.03488372093023,
          "velocity": 0.31496062992125984
        },
        {
          "duration": 0.03488372093023173,
          "durationTicks": 3,
          "midi": 87,
          "name": "D#6",
          "ticks": 3357,
          "time": 39.03488372093023,
          "velocity": 0.11811023622047244
        },
        {
          "duration": 0.13953488372093403,
          "durationTicks": 12,
          "midi": 88,
          "name": "E6",
          "ticks": 3357,
          "time": 39.03488372093023,
          "velocity": 0.29133858267716534
        },
        {
          "duration": 0.02325581395349019,
          "durationTicks": 2,
          "midi": 47,
          "name": "B2",
          "ticks": 3358,
          "time": 39.04651162790697,
          "velocity": 0.5118110236220472
        },
        {
          "duration": 0.02325581395349019,
          "durationTicks": 2,
          "midi": 65,
          "name": "F4",
          "ticks": 3358,
          "time": 39.04651162790697,
          "velocity": 0.5039370078740157
        },
        {
          "duration": 0.1046511627907023,
          "durationTicks": 9,
          "midi": 84,
          "name": "C6",
          "ticks": 3358,
          "time": 39.04651162790697,
          "velocity": 0.1732283464566929
        },
        {
          "duration": 0.06976744186046346,
          "durationTicks": 6,
          "midi": 54,
          "name": "F#3",
          "ticks": 3359,
          "time": 39.05813953488372,
          "velocity": 0.44881889763779526
        },
        {
          "duration": 0.09302325581395365,
          "durationTicks": 8,
          "midi": 60,
          "name": "C4",
          "ticks": 3359,
          "time": 39.05813953488372,
          "velocity": 0.6062992125984252
        },
        {
          "duration": 0.05813953488372192,
          "durationTicks": 5,
          "midi": 79,
          "name": "G5",
          "ticks": 3359,
          "time": 39.05813953488372,
          "velocity": 0.14173228346456693
        },
        {
          "duration": 0.12790697674418539,
          "durationTicks": 11,
          "midi": 93,
          "name": "A6",
          "ticks": 3359,
          "time": 39.05813953488372,
          "velocity": 0.1889763779527559
        },
        {
          "duration": 0.1046511627907023,
          "durationTicks": 9,
          "midi": 48,
          "name": "C3",
          "ticks": 3360,
          "time": 39.06976744186046,
          "velocity": 0.5118110236220472
        },
        {
          "duration": 0.09302325581395365,
          "durationTicks": 8,
          "midi": 66,
          "name": "F#4",
          "ticks": 3360,
          "time": 39.06976744186046,
          "velocity": 0.5748031496062992
        },
        {
          "duration": 0.11627906976743674,
          "durationTicks": 10,
          "midi": 81,
          "name": "A5",
          "ticks": 3361,
          "time": 39.08139534883721,
          "velocity": 0.28346456692913385
        },
        {
          "duration": 0.19767441860464885,
          "durationTicks": 17,
          "midi": 94,
          "name": "A#6",
          "ticks": 3362,
          "time": 39.093023255813954,
          "velocity": 0.15748031496062992
        },
        {
          "duration": 0.03488372093023173,
          "durationTicks": 3,
          "midi": 82,
          "name": "A#5",
          "ticks": 3363,
          "time": 39.104651162790695,
          "velocity": 0.2283464566929134
        },
        {
          "duration": 0.02325581395349019,
          "durationTicks": 2,
          "midi": 54,
          "name": "F#3",
          "ticks": 3366,
          "time": 39.13953488372093,
          "velocity": 0.4330708661417323
        },
        {
          "duration": 0.02325581395349019,
          "durationTicks": 2,
          "midi": 69,
          "name": "A4",
          "ticks": 3366,
          "time": 39.13953488372093,
          "velocity": 0.2755905511811024
        },
        {
          "duration": 0.04651162790698038,
          "durationTicks": 4,
          "midi": 79,
          "name": "G5",
          "ticks": 3366,
          "time": 39.13953488372093,
          "velocity": 0.25196850393700787
        },
        {
          "duration": 0.011627906976741542,
          "durationTicks": 1,
          "midi": 61,
          "name": "C#4",
          "ticks": 3367,
          "time": 39.151162790697676,
          "velocity": 0.5984251968503937
        },
        {
          "duration": 0.02325581395349019,
          "durationTicks": 2,
          "midi": 74,
          "name": "D5",
          "ticks": 3367,
          "time": 39.151162790697676,
          "velocity": 0.2992125984251969
        },
        {
          "duration": 0.22093023255813904,
          "durationTicks": 19,
          "midi": 82,
          "name": "A#5",
          "ticks": 3367,
          "time": 39.151162790697676,
          "velocity": 0.2283464566929134
        },
        {
          "duration": 0.011627906976748648,
          "durationTicks": 1,
          "midi": 62,
          "name": "D4",
          "ticks": 3368,
          "time": 39.16279069767442,
          "velocity": 0.6299212598425197
        },
        {
          "duration": 0.1046511627907023,
          "durationTicks": 9,
          "midi": 71,
          "name": "B4",
          "ticks": 3368,
          "time": 39.16279069767442,
          "velocity": 0.33858267716535434
        },
        {
          "duration": 0.09302325581395365,
          "durationTicks": 8,
          "midi": 63,
          "name": "D#4",
          "ticks": 3369,
          "time": 39.174418604651166,
          "velocity": 0.6220472440944882
        },
        {
          "duration": 0.13953488372092693,
          "durationTicks": 12,
          "midi": 73,
          "name": "C#5",
          "ticks": 3369,
          "time": 39.174418604651166,
          "velocity": 0.3228346456692913
        },
        {
          "duration": 0.09302325581395365,
          "durationTicks": 8,
          "midi": 78,
          "name": "F#5",
          "ticks": 3369,
          "time": 39.174418604651166,
          "velocity": 0.29133858267716534
        },
        {
          "duration": 0.02325581395349019,
          "durationTicks": 2,
          "midi": 53,
          "name": "F3",
          "ticks": 3370,
          "time": 39.18604651162791,
          "velocity": 0.28346456692913385
        },
        {
          "duration": 0.05813953488372192,
          "durationTicks": 5,
          "midi": 54,
          "name": "F#3",
          "ticks": 3372,
          "time": 39.2093023255814,
          "velocity": 0.25984251968503935
        },
        {
          "duration": 0.046511627906973274,
          "durationTicks": 4,
          "midi": 59,
          "name": "B3",
          "ticks": 3372,
          "time": 39.2093023255814,
          "velocity": 0.31496062992125984
        },
        {
          "duration": 0.023255813953483084,
          "durationTicks": 2,
          "midi": 50,
          "name": "D3",
          "ticks": 3377,
          "time": 39.26744186046512,
          "velocity": 0.5905511811023622
        },
        {
          "duration": 0.023255813953483084,
          "durationTicks": 2,
          "midi": 77,
          "name": "F5",
          "ticks": 3377,
          "time": 39.26744186046512,
          "velocity": 0.31496062992125984
        },
        {
          "duration": 0.046511627906973274,
          "durationTicks": 4,
          "midi": 79,
          "name": "G5",
          "ticks": 3377,
          "time": 39.26744186046512,
          "velocity": 0.2992125984251969
        },
        {
          "duration": 0.011627906976741542,
          "durationTicks": 1,
          "midi": 35,
          "name": "B1",
          "ticks": 3378,
          "time": 39.27906976744186,
          "velocity": 0.5984251968503937
        },
        {
          "duration": 0.02325581395349019,
          "durationTicks": 2,
          "midi": 56,
          "name": "G#3",
          "ticks": 3378,
          "time": 39.27906976744186,
          "velocity": 0.6062992125984252
        },
        {
          "duration": 0.06976744186046346,
          "durationTicks": 6,
          "midi": 67,
          "name": "G4",
          "ticks": 3378,
          "time": 39.27906976744186,
          "velocity": 0.5905511811023622
        },
        {
          "duration": 0.011627906976748648,
          "durationTicks": 1,
          "midi": 39,
          "name": "D#2",
          "ticks": 3379,
          "time": 39.2906976744186,
          "velocity": 0.5433070866141733
        },
        {
          "duration": 0.011627906976748648,
          "durationTicks": 1,
          "midi": 51,
          "name": "D#3",
          "ticks": 3379,
          "time": 39.2906976744186,
          "velocity": 0.5669291338582677
        },
        {
          "duration": 0.11627906976744384,
          "durationTicks": 10,
          "midi": 63,
          "name": "D#4",
          "ticks": 3379,
          "time": 39.2906976744186,
          "velocity": 0.6220472440944882
        },
        {
          "duration": 0.011627906976741542,
          "durationTicks": 1,
          "midi": 55,
          "name": "G3",
          "ticks": 3380,
          "time": 39.30232558139535,
          "velocity": 0.5748031496062992
        },
        {
          "duration": 0.11627906976743674,
          "durationTicks": 10,
          "midi": 70,
          "name": "A#4",
          "ticks": 3380,
          "time": 39.30232558139535,
          "velocity": 0.4645669291338583
        },
        {
          "duration": 0.06976744186046346,
          "durationTicks": 6,
          "midi": 78,
          "name": "F#5",
          "ticks": 3380,
          "time": 39.30232558139535,
          "velocity": 0.30708661417322836
        },
        {
          "duration": 0.011627906976748648,
          "durationTicks": 1,
          "midi": 40,
          "name": "E2",
          "ticks": 3382,
          "time": 39.325581395348834,
          "velocity": 0.6062992125984252
        },
        {
          "duration": 0.02325581395349019,
          "durationTicks": 2,
          "midi": 41,
          "name": "F2",
          "ticks": 3383,
          "time": 39.33720930232558,
          "velocity": 0.6614173228346457
        },
        {
          "duration": 0.011627906976748648,
          "durationTicks": 1,
          "midi": 55,
          "name": "G3",
          "ticks": 3384,
          "time": 39.348837209302324,
          "velocity": 0.5511811023622047
        },
        {
          "duration": 0.03488372093023173,
          "durationTicks": 3,
          "midi": 72,
          "name": "C5",
          "ticks": 3384,
          "time": 39.348837209302324,
          "velocity": 0.25984251968503935
        },
        {
          "duration": 0.011627906976741542,
          "durationTicks": 1,
          "midi": 42,
          "name": "F#2",
          "ticks": 3385,
          "time": 39.36046511627907,
          "velocity": 0.5905511811023622
        },
        {
          "duration": 0.03488372093023173,
          "durationTicks": 3,
          "midi": 56,
          "name": "G#3",
          "ticks": 3385,
          "time": 39.36046511627907,
          "velocity": 0.5748031496062992
        },
        {
          "duration": 0.1046511627906952,
          "durationTicks": 9,
          "midi": 79,
          "name": "G5",
          "ticks": 3385,
          "time": 39.36046511627907,
          "velocity": 0.2283464566929134
        },
        {
          "duration": 0.09302325581395365,
          "durationTicks": 8,
          "midi": 55,
          "name": "G3",
          "ticks": 3388,
          "time": 39.395348837209305,
          "velocity": 0.4094488188976378
        },
        {
          "duration": 0.03488372093023173,
          "durationTicks": 3,
          "midi": 41,
          "name": "F2",
          "ticks": 3389,
          "time": 39.406976744186046,
          "velocity": 0.3228346456692913
        },
        {
          "duration": 0.03488372093023173,
          "durationTicks": 3,
          "midi": 66,
          "name": "F#4",
          "ticks": 3389,
          "time": 39.406976744186046,
          "velocity": 0.14173228346456693
        },
        {
          "duration": 0.04651162790698038,
          "durationTicks": 4,
          "midi": 40,
          "name": "E2",
          "ticks": 3392,
          "time": 39.44186046511628,
          "velocity": 0.1889763779527559
        },
        {
          "duration": 0.09302325581395365,
          "durationTicks": 8,
          "midi": 80,
          "name": "G#5",
          "ticks": 3396,
          "time": 39.48837209302326,
          "velocity": 0.25196850393700787
        },
        {
          "duration": 0.058139534883714816,
          "durationTicks": 5,
          "midi": 82,
          "name": "A#5",
          "ticks": 3396,
          "time": 39.48837209302326,
          "velocity": 0.2125984251968504
        },
        {
          "duration": 0.09302325581395365,
          "durationTicks": 8,
          "midi": 84,
          "name": "C6",
          "ticks": 3396,
          "time": 39.48837209302326,
          "velocity": 0.25984251968503935
        },
        {
          "duration": 0.03488372093023173,
          "durationTicks": 3,
          "midi": 86,
          "name": "D6",
          "ticks": 3396,
          "time": 39.48837209302326,
          "velocity": 0.23622047244094488
        },
        {
          "duration": 0.03488372093023173,
          "durationTicks": 3,
          "midi": 87,
          "name": "D#6",
          "ticks": 3396,
          "time": 39.48837209302326,
          "velocity": 0.2283464566929134
        },
        {
          "duration": 0.11627906976744384,
          "durationTicks": 10,
          "midi": 63,
          "name": "D#4",
          "ticks": 3397,
          "time": 39.5,
          "velocity": 0.6141732283464567
        },
        {
          "duration": 0.011627906976741542,
          "durationTicks": 1,
          "midi": 68,
          "name": "G#4",
          "ticks": 3397,
          "time": 39.5,
          "velocity": 0.5118110236220472
        },
        {
          "duration": 0.02325581395349019,
          "durationTicks": 2,
          "midi": 88,
          "name": "E6",
          "ticks": 3397,
          "time": 39.5,
          "velocity": 0.23622047244094488
        },
        {
          "duration": 0.02325581395349019,
          "durationTicks": 2,
          "midi": 29,
          "name": "F1",
          "ticks": 3398,
          "time": 39.51162790697674,
          "velocity": 0.4566929133858268
        },
        {
          "duration": 0.02325581395349019,
          "durationTicks": 2,
          "midi": 48,
          "name": "C3",
          "ticks": 3398,
          "time": 39.51162790697674,
          "velocity": 0.5826771653543307
        },
        {
          "duration": 0.09302325581395365,
          "durationTicks": 8,
          "midi": 67,
          "name": "G4",
          "ticks": 3398,
          "time": 39.51162790697674,
          "velocity": 0.5748031496062992
        },
        {
          "duration": 0.06976744186046346,
          "durationTicks": 6,
          "midi": 73,
          "name": "C#5",
          "ticks": 3399,
          "time": 39.52325581395349,
          "velocity": 0.25196850393700787
        },
        {
          "duration": 0.17441860465115866,
          "durationTicks": 15,
          "midi": 78,
          "name": "F#5",
          "ticks": 3399,
          "time": 39.52325581395349,
          "velocity": 0.28346456692913385
        },
        {
          "duration": 0.02325581395349019,
          "durationTicks": 2,
          "midi": 49,
          "name": "C#3",
          "ticks": 3400,
          "time": 39.53488372093023,
          "velocity": 0.5905511811023622
        },
        {
          "duration": 0.03488372093023884,
          "durationTicks": 3,
          "midi": 70,
          "name": "A#4",
          "ticks": 3401,
          "time": 39.54651162790697,
          "velocity": 0.3228346456692913
        },
        {
          "duration": 0.011627906976741542,
          "durationTicks": 1,
          "midi": 50,
          "name": "D3",
          "ticks": 3402,
          "time": 39.55813953488372,
          "velocity": 0.6220472440944882
        },
        {
          "duration": 0.011627906976748648,
          "durationTicks": 1,
          "midi": 49,
          "name": "C#3",
          "ticks": 3403,
          "time": 39.56976744186046,
          "velocity": 0.5196850393700787
        },
        {
          "duration": 0.058139534883714816,
          "durationTicks": 5,
          "midi": 71,
          "name": "B4",
          "ticks": 3404,
          "time": 39.58139534883721,
          "velocity": 0.2677165354330709
        },
        {
          "duration": 0.02325581395349019,
          "durationTicks": 2,
          "midi": 49,
          "name": "C#3",
          "ticks": 3405,
          "time": 39.593023255813954,
          "velocity": 0.2992125984251969
        },
        {
          "duration": 0.05813953488372192,
          "durationTicks": 5,
          "midi": 60,
          "name": "C4",
          "ticks": 3406,
          "time": 39.604651162790695,
          "velocity": 0.3228346456692913
        },
        {
          "duration": 0.05813953488372192,
          "durationTicks": 5,
          "midi": 66,
          "name": "F#4",
          "ticks": 3406,
          "time": 39.604651162790695,
          "velocity": 0.33858267716535434
        },
        {
          "duration": 0.04651162790698038,
          "durationTicks": 4,
          "midi": 73,
          "name": "C#5",
          "ticks": 3406,
          "time": 39.604651162790695,
          "velocity": 0.23622047244094488
        },
        {
          "duration": 0.03488372093023173,
          "durationTicks": 3,
          "midi": 55,
          "name": "G3",
          "ticks": 3407,
          "time": 39.616279069767444,
          "velocity": 0.2204724409448819
        },
        {
          "duration": 0.04651162790698038,
          "durationTicks": 4,
          "midi": 70,
          "name": "A#4",
          "ticks": 3409,
          "time": 39.63953488372093,
          "velocity": 0.2677165354330709
        },
        {
          "duration": 0.02325581395349019,
          "durationTicks": 2,
          "midi": 55,
          "name": "G3",
          "ticks": 3411,
          "time": 39.66279069767442,
          "velocity": 0.23622047244094488
        },
        {
          "duration": 0.03488372093023173,
          "durationTicks": 3,
          "midi": 59,
          "name": "B3",
          "ticks": 3411,
          "time": 39.66279069767442,
          "velocity": 0.28346456692913385
        },
        {
          "duration": 0.02325581395349019,
          "durationTicks": 2,
          "midi": 62,
          "name": "D4",
          "ticks": 3416,
          "time": 39.72093023255814,
          "velocity": 0.47244094488188976
        },
        {
          "duration": 0.02325581395349019,
          "durationTicks": 2,
          "midi": 68,
          "name": "G#4",
          "ticks": 3416,
          "time": 39.72093023255814,
          "velocity": 0.5118110236220472
        },
        {
          "duration": 0.03488372093023173,
          "durationTicks": 3,
          "midi": 73,
          "name": "C#5",
          "ticks": 3416,
          "time": 39.72093023255814,
          "velocity": 0.31496062992125984
        },
        {
          "duration": 0.03488372093023173,
          "durationTicks": 3,
          "midi": 87,
          "name": "D#6",
          "ticks": 3416,
          "time": 39.72093023255814,
          "velocity": 0.2755905511811024
        },
        {
          "duration": 0.011627906976748648,
          "durationTicks": 1,
          "midi": 35,
          "name": "B1",
          "ticks": 3417,
          "time": 39.73255813953488,
          "velocity": 0.5196850393700787
        },
        {
          "duration": 0.02325581395349019,
          "durationTicks": 2,
          "midi": 78,
          "name": "F#5",
          "ticks": 3417,
          "time": 39.73255813953488,
          "velocity": 0.25196850393700787
        },
        {
          "duration": 0.02325581395349019,
          "durationTicks": 2,
          "midi": 83,
          "name": "B5",
          "ticks": 3417,
          "time": 39.73255813953488,
          "velocity": 0.2283464566929134
        },
        {
          "duration": 0.02325581395349019,
          "durationTicks": 2,
          "midi": 88,
          "name": "E6",
          "ticks": 3417,
          "time": 39.73255813953488,
          "velocity": 0.25984251968503935
        },
        {
          "duration": 0.011627906976741542,
          "durationTicks": 1,
          "midi": 40,
          "name": "E2",
          "ticks": 3418,
          "time": 39.74418604651163,
          "velocity": 0.6141732283464567
        },
        {
          "duration": 0.011627906976741542,
          "durationTicks": 1,
          "midi": 50,
          "name": "D3",
          "ticks": 3418,
          "time": 39.74418604651163,
          "velocity": 0.5275590551181102
        },
        {
          "duration": 0.02325581395349019,
          "durationTicks": 2,
          "midi": 56,
          "name": "G#3",
          "ticks": 3418,
          "time": 39.74418604651163,
          "velocity": 0.5511811023622047
        },
        {
          "duration": 0.11627906976744384,
          "durationTicks": 10,
          "midi": 63,
          "name": "D#4",
          "ticks": 3418,
          "time": 39.74418604651163,
          "velocity": 0.5511811023622047
        },
        {
          "duration": 0.12790697674418539,
          "durationTicks": 11,
          "midi": 67,
          "name": "G4",
          "ticks": 3418,
          "time": 39.74418604651163,
          "velocity": 0.5748031496062992
        },
        {
          "duration": 0.081395348837205,
          "durationTicks": 7,
          "midi": 71,
          "name": "B4",
          "ticks": 3418,
          "time": 39.74418604651163,
          "velocity": 0.30708661417322836
        },
        {
          "duration": 0.06976744186046346,
          "durationTicks": 6,
          "midi": 74,
          "name": "D5",
          "ticks": 3418,
          "time": 39.74418604651163,
          "velocity": 0.25196850393700787
        },
        {
          "duration": 0.011627906976748648,
          "durationTicks": 1,
          "midi": 41,
          "name": "F2",
          "ticks": 3419,
          "time": 39.75581395348837,
          "velocity": 0.5905511811023622
        },
        {
          "duration": 0.023255813953483084,
          "durationTicks": 2,
          "midi": 44,
          "name": "G#2",
          "ticks": 3420,
          "time": 39.76744186046512,
          "velocity": 0.5511811023622047
        },
        {
          "duration": 0.011627906976741542,
          "durationTicks": 1,
          "midi": 53,
          "name": "F3",
          "ticks": 3420,
          "time": 39.76744186046512,
          "velocity": 0.5905511811023622
        },
        {
          "duration": 0.04651162790698038,
          "durationTicks": 4,
          "midi": 41,
          "name": "F2",
          "ticks": 3422,
          "time": 39.7906976744186,
          "velocity": 0.6771653543307087
        },
        {
          "duration": 0.011627906976748648,
          "durationTicks": 1,
          "midi": 51,
          "name": "D#3",
          "ticks": 3422,
          "time": 39.7906976744186,
          "velocity": 0.5196850393700787
        },
        {
          "duration": 0.06976744186046346,
          "durationTicks": 6,
          "midi": 55,
          "name": "G3",
          "ticks": 3428,
          "time": 39.86046511627907,
          "velocity": 0.2204724409448819
        },
        {
          "duration": 0.02325581395349019,
          "durationTicks": 2,
          "midi": 41,
          "name": "F2",
          "ticks": 3429,
          "time": 39.872093023255815,
          "velocity": 0.33070866141732286
        },
        {
          "duration": 0.05813953488372192,
          "durationTicks": 5,
          "midi": 40,
          "name": "E2",
          "ticks": 3431,
          "time": 39.895348837209305,
          "velocity": 0.25196850393700787
        },
        {
          "duration": 0.2674418604651123,
          "durationTicks": 23,
          "midi": 80,
          "name": "G#5",
          "ticks": 3436,
          "time": 39.95348837209303,
          "velocity": 0.33858267716535434
        },
        {
          "duration": 0.19767441860464885,
          "durationTicks": 17,
          "midi": 83,
          "name": "B5",
          "ticks": 3436,
          "time": 39.95348837209303,
          "velocity": 0.25984251968503935
        },
        {
          "duration": 0.03488372093023173,
          "durationTicks": 3,
          "midi": 84,
          "name": "C6",
          "ticks": 3436,
          "time": 39.95348837209303,
          "velocity": 0.2204724409448819
        },
        {
          "duration": 0.2674418604651123,
          "durationTicks": 23,
          "midi": 86,
          "name": "D6",
          "ticks": 3436,
          "time": 39.95348837209303,
          "velocity": 0.33858267716535434
        },
        {
          "duration": 0.12790697674418539,
          "durationTicks": 11,
          "midi": 88,
          "name": "E6",
          "ticks": 3436,
          "time": 39.95348837209303,
          "velocity": 0.31496062992125984
        },
        {
          "duration": 0.02325581395349019,
          "durationTicks": 2,
          "midi": 47,
          "name": "B2",
          "ticks": 3437,
          "time": 39.96511627906977,
          "velocity": 0.6141732283464567
        },
        {
          "duration": 0.02325581395349019,
          "durationTicks": 2,
          "midi": 73,
          "name": "C#5",
          "ticks": 3437,
          "time": 39.96511627906977,
          "velocity": 0.23622047244094488
        },
        {
          "duration": 0.02325581395349019,
          "durationTicks": 2,
          "midi": 76,
          "name": "E5",
          "ticks": 3437,
          "time": 39.96511627906977,
          "velocity": 0.31496062992125984
        },
        {
          "duration": 0.09302325581395365,
          "durationTicks": 8,
          "midi": 78,
          "name": "F#5",
          "ticks": 3437,
          "time": 39.96511627906977,
          "velocity": 0.4015748031496063
        },
        {
          "duration": 0.011627906976748648,
          "durationTicks": 1,
          "midi": 53,
          "name": "F3",
          "ticks": 3438,
          "time": 39.97674418604651,
          "velocity": 0.5511811023622047
        },
        {
          "duration": 0.02325581395349019,
          "durationTicks": 2,
          "midi": 65,
          "name": "F4",
          "ticks": 3438,
          "time": 39.97674418604651,
          "velocity": 0.6614173228346457
        },
        {
          "duration": 0.011627906976748648,
          "durationTicks": 1,
          "midi": 67,
          "name": "G4",
          "ticks": 3438,
          "time": 39.97674418604651,
          "velocity": 0.5275590551181102
        },
        {
          "duration": 0.24418604651162923,
          "durationTicks": 21,
          "midi": 71,
          "name": "B4",
          "ticks": 3438,
          "time": 39.97674418604651,
          "velocity": 0.48031496062992124
        },
        {
          "duration": 0.3953488372093048,
          "durationTicks": 34,
          "midi": 75,
          "name": "D#5",
          "ticks": 3438,
          "time": 39.97674418604651,
          "velocity": 0.3937007874015748
        },
        {
          "duration": 0.011627906976741542,
          "durationTicks": 1,
          "midi": 48,
          "name": "C3",
          "ticks": 3439,
          "time": 39.98837209302326,
          "velocity": 0.6299212598425197
        },
        {
          "duration": 0.011627906976741542,
          "durationTicks": 1,
          "midi": 59,
          "name": "B3",
          "ticks": 3439,
          "time": 39.98837209302326,
          "velocity": 0.5275590551181102
        },
        {
          "duration": 0.12790697674418539,
          "durationTicks": 11,
          "midi": 85,
          "name": "C#6",
          "ticks": 3439,
          "time": 39.98837209302326,
          "velocity": 0.2440944881889764
        },
        {
          "duration": 0.011627906976741542,
          "durationTicks": 1,
          "midi": 50,
          "name": "D3",
          "ticks": 3440,
          "time": 40,
          "velocity": 0.6929133858267716
        },
        {
          "duration": 0.09302325581395365,
          "durationTicks": 8,
          "midi": 64,
          "name": "E4",
          "ticks": 3440,
          "time": 40,
          "velocity": 0.6456692913385826
        },
        {
          "duration": 0.011627906976741542,
          "durationTicks": 1,
          "midi": 67,
          "name": "G4",
          "ticks": 3440,
          "time": 40,
          "velocity": 0.5590551181102362
        },
        {
          "duration": 0.03488372093023173,
          "durationTicks": 3,
          "midi": 81,
          "name": "A5",
          "ticks": 3440,
          "time": 40,
          "velocity": 0.15748031496062992
        },
        {
          "duration": 0.011627906976748648,
          "durationTicks": 1,
          "midi": 52,
          "name": "E3",
          "ticks": 3441,
          "time": 40.01162790697674,
          "velocity": 0.5826771653543307
        },
        {
          "duration": 0.1860465116279073,
          "durationTicks": 16,
          "midi": 59,
          "name": "B3",
          "ticks": 3441,
          "time": 40.01162790697674,
          "velocity": 0.5826771653543307
        },
        {
          "duration": 0.011627906976741542,
          "durationTicks": 1,
          "midi": 53,
          "name": "F3",
          "ticks": 3442,
          "time": 40.02325581395349,
          "velocity": 0.5118110236220472
        },
        {
          "duration": 0.011627906976741542,
          "durationTicks": 1,
          "midi": 50,
          "name": "D3",
          "ticks": 3443,
          "time": 40.03488372093023,
          "velocity": 0.5905511811023622
        },
        {
          "duration": 0.011627906976748648,
          "durationTicks": 1,
          "midi": 49,
          "name": "C#3",
          "ticks": 3444,
          "time": 40.04651162790697,
          "velocity": 0.5196850393700787
        },
        {
          "duration": 0.011627906976748648,
          "durationTicks": 1,
          "midi": 52,
          "name": "E3",
          "ticks": 3444,
          "time": 40.04651162790697,
          "velocity": 0.5275590551181102
        },
        {
          "duration": 0.02325581395349019,
          "durationTicks": 2,
          "midi": 51,
          "name": "D#3",
          "ticks": 3446,
          "time": 40.06976744186046,
          "velocity": 0.44881889763779526
        },
        {
          "duration": 0.011627906976748648,
          "durationTicks": 1,
          "midi": 66,
          "name": "F#4",
          "ticks": 3446,
          "time": 40.06976744186046,
          "velocity": 0.5748031496062992
        },
        {
          "duration": 0.03488372093023173,
          "durationTicks": 3,
          "midi": 81,
          "name": "A5",
          "ticks": 3447,
          "time": 40.08139534883721,
          "velocity": 0.2125984251968504
        },
        {
          "duration": 0.02325581395349019,
          "durationTicks": 2,
          "midi": 63,
          "name": "D#4",
          "ticks": 3448,
          "time": 40.093023255813954,
          "velocity": 0.6141732283464567
        },
        {
          "duration": 0.03488372093023173,
          "durationTicks": 3,
          "midi": 66,
          "name": "F#4",
          "ticks": 3448,
          "time": 40.093023255813954,
          "velocity": 0.5590551181102362
        },
        {
          "duration": 0.12790697674418539,
          "durationTicks": 11,
          "midi": 88,
          "name": "E6",
          "ticks": 3448,
          "time": 40.093023255813954,
          "velocity": 0.1889763779527559
        },
        {
          "duration": 0.011627906976741542,
          "durationTicks": 1,
          "midi": 62,
          "name": "D4",
          "ticks": 3450,
          "time": 40.116279069767444,
          "velocity": 0.5433070866141733
        },
        {
          "duration": 0.03488372093023173,
          "durationTicks": 3,
          "midi": 52,
          "name": "E3",
          "ticks": 3451,
          "time": 40.127906976744185,
          "velocity": 0.4330708661417323
        },
        {
          "duration": 0.011627906976741542,
          "durationTicks": 1,
          "midi": 63,
          "name": "D#4",
          "ticks": 3451,
          "time": 40.127906976744185,
          "velocity": 0.6062992125984252
        },
        {
          "duration": 0.09302325581395365,
          "durationTicks": 8,
          "midi": 78,
          "name": "F#5",
          "ticks": 3451,
          "time": 40.127906976744185,
          "velocity": 0.25196850393700787
        },
        {
          "duration": 0.011627906976748648,
          "durationTicks": 1,
          "midi": 64,
          "name": "E4",
          "ticks": 3452,
          "time": 40.13953488372093,
          "velocity": 0.5748031496062992
        },
        {
          "duration": 0.05813953488372192,
          "durationTicks": 5,
          "midi": 66,
          "name": "F#4",
          "ticks": 3452,
          "time": 40.13953488372093,
          "velocity": 0.5275590551181102
        },
        {
          "duration": 0.023255813953483084,
          "durationTicks": 2,
          "midi": 64,
          "name": "E4",
          "ticks": 3455,
          "time": 40.174418604651166,
          "velocity": 0.49606299212598426
        },
        {
          "duration": 0.03488372093023173,
          "durationTicks": 3,
          "midi": 95,
          "name": "B6",
          "ticks": 3455,
          "time": 40.174418604651166,
          "velocity": 0.07086614173228346
        },
        {
          "duration": 0.13953488372092693,
          "durationTicks": 12,
          "midi": 77,
          "name": "F5",
          "ticks": 3456,
          "time": 40.18604651162791,
          "velocity": 0.23622047244094488
        },
        {
          "duration": 0.15116279069767558,
          "durationTicks": 13,
          "midi": 89,
          "name": "F6",
          "ticks": 3456,
          "time": 40.18604651162791,
          "velocity": 0.2440944881889764
        },
        {
          "duration": 0.011627906976748648,
          "durationTicks": 1,
          "midi": 35,
          "name": "B1",
          "ticks": 3457,
          "time": 40.19767441860465,
          "velocity": 0.5984251968503937
        },
        {
          "duration": 0.011627906976748648,
          "durationTicks": 1,
          "midi": 50,
          "name": "D3",
          "ticks": 3457,
          "time": 40.19767441860465,
          "velocity": 0.5433070866141733
        },
        {
          "duration": 0.011627906976748648,
          "durationTicks": 1,
          "midi": 60,
          "name": "C4",
          "ticks": 3457,
          "time": 40.19767441860465,
          "velocity": 0.5196850393700787
        },
        {
          "duration": 0.02325581395349019,
          "durationTicks": 2,
          "midi": 63,
          "name": "D#4",
          "ticks": 3457,
          "time": 40.19767441860465,
          "velocity": 0.5511811023622047
        },
        {
          "duration": 0.011627906976748648,
          "durationTicks": 1,
          "midi": 67,
          "name": "G4",
          "ticks": 3457,
          "time": 40.19767441860465,
          "velocity": 0.5984251968503937
        },
        {
          "duration": 0.08139534883721211,
          "durationTicks": 7,
          "midi": 82,
          "name": "A#5",
          "ticks": 3457,
          "time": 40.19767441860465,
          "velocity": 0.2204724409448819
        },
        {
          "duration": 0.13953488372093403,
          "durationTicks": 12,
          "midi": 84,
          "name": "C6",
          "ticks": 3457,
          "time": 40.19767441860465,
          "velocity": 0.33070866141732286
        },
        {
          "duration": 0.011627906976741542,
          "durationTicks": 1,
          "midi": 36,
          "name": "C2",
          "ticks": 3458,
          "time": 40.2093023255814,
          "velocity": 0.6141732283464567
        },
        {
          "duration": 0.15116279069767558,
          "durationTicks": 13,
          "midi": 68,
          "name": "G#4",
          "ticks": 3458,
          "time": 40.2093023255814,
          "velocity": 0.6535433070866141
        },
        {
          "duration": 0.1046511627906952,
          "durationTicks": 9,
          "midi": 85,
          "name": "C#6",
          "ticks": 3458,
          "time": 40.2093023255814,
          "velocity": 0.14960629921259844
        },
        {
          "duration": 0.011627906976741542,
          "durationTicks": 1,
          "midi": 44,
          "name": "G#2",
          "ticks": 3459,
          "time": 40.22093023255814,
          "velocity": 0.5590551181102362
        },
        {
          "duration": 0.011627906976741542,
          "durationTicks": 1,
          "midi": 55,
          "name": "G3",
          "ticks": 3459,
          "time": 40.22093023255814,
          "velocity": 0.5354330708661418
        },
        {
          "duration": 0.11627906976744384,
          "durationTicks": 10,
          "midi": 61,
          "name": "C#4",
          "ticks": 3459,
          "time": 40.22093023255814,
          "velocity": 0.5748031496062992
        },
        {
          "duration": 0.011627906976748648,
          "durationTicks": 1,
          "midi": 54,
          "name": "F#3",
          "ticks": 3460,
          "time": 40.23255813953488,
          "velocity": 0.5118110236220472
        },
        {
          "duration": 0.1860465116279073,
          "durationTicks": 16,
          "midi": 71,
          "name": "B4",
          "ticks": 3460,
          "time": 40.23255813953488,
          "velocity": 0.1889763779527559
        },
        {
          "duration": 0.011627906976741542,
          "durationTicks": 1,
          "midi": 44,
          "name": "G#2",
          "ticks": 3461,
          "time": 40.24418604651163,
          "velocity": 0.5984251968503937
        },
        {
          "duration": 0.02325581395349019,
          "durationTicks": 2,
          "midi": 52,
          "name": "E3",
          "ticks": 3461,
          "time": 40.24418604651163,
          "velocity": 0.5511811023622047
        },
        {
          "duration": 0.04651162790698038,
          "durationTicks": 4,
          "midi": 41,
          "name": "F2",
          "ticks": 3462,
          "time": 40.25581395348837,
          "velocity": 0.6771653543307087
        },
        {
          "duration": 0.011627906976741542,
          "durationTicks": 1,
          "midi": 51,
          "name": "D#3",
          "ticks": 3463,
          "time": 40.26744186046512,
          "velocity": 0.5905511811023622
        },
        {
          "duration": 0.011627906976741542,
          "durationTicks": 1,
          "midi": 50,
          "name": "D3",
          "ticks": 3464,
          "time": 40.27906976744186,
          "velocity": 0.5196850393700787
        },
        {
          "duration": 0.05813953488372192,
          "durationTicks": 5,
          "midi": 56,
          "name": "G#3",
          "ticks": 3465,
          "time": 40.2906976744186,
          "velocity": 0.49606299212598426
        },
        {
          "duration": 0.04651162790698038,
          "durationTicks": 4,
          "midi": 90,
          "name": "F#6",
          "ticks": 3465,
          "time": 40.2906976744186,
          "velocity": 0.29133858267716534
        },
        {
          "duration": 0.02325581395349019,
          "durationTicks": 2,
          "midi": 39,
          "name": "D#2",
          "ticks": 3467,
          "time": 40.31395348837209,
          "velocity": 0.33858267716535434
        },
        {
          "duration": 0.02325581395349019,
          "durationTicks": 2,
          "midi": 41,
          "name": "F2",
          "ticks": 3469,
          "time": 40.33720930232558,
          "velocity": 0.33858267716535434
        },
        {
          "duration": 0.058139534883714816,
          "durationTicks": 5,
          "midi": 40,
          "name": "E2",
          "ticks": 3471,
          "time": 40.36046511627907,
          "velocity": 0.2283464566929134
        },
        {
          "duration": 0.03488372093023173,
          "durationTicks": 3,
          "midi": 56,
          "name": "G#3",
          "ticks": 3471,
          "time": 40.36046511627907,
          "velocity": 0.28346456692913385
        },
        {
          "duration": 0.058139534883714816,
          "durationTicks": 5,
          "midi": 64,
          "name": "E4",
          "ticks": 3471,
          "time": 40.36046511627907,
          "velocity": 0.2125984251968504
        },
        {
          "duration": 0.5813953488372121,
          "durationTicks": 50,
          "midi": 76,
          "name": "E5",
          "ticks": 3476,
          "time": 40.41860465116279,
          "velocity": 0.48031496062992124
        },
        {
          "duration": 0.48837209302325846,
          "durationTicks": 42,
          "midi": 80,
          "name": "G#5",
          "ticks": 3476,
          "time": 40.41860465116279,
          "velocity": 0.4015748031496063
        },
        {
          "duration": 0.48837209302325846,
          "durationTicks": 42,
          "midi": 85,
          "name": "C#6",
          "ticks": 3476,
          "time": 40.41860465116279,
          "velocity": 0.41732283464566927
        },
        {
          "duration": 0.02325581395349019,
          "durationTicks": 2,
          "midi": 90,
          "name": "F#6",
          "ticks": 3476,
          "time": 40.41860465116279,
          "velocity": 0.2677165354330709
        },
        {
          "duration": 0.02325581395349019,
          "durationTicks": 2,
          "midi": 29,
          "name": "F1",
          "ticks": 3477,
          "time": 40.43023255813954,
          "velocity": 0.3937007874015748
        },
        {
          "duration": 0.02325581395349019,
          "durationTicks": 2,
          "midi": 63,
          "name": "D#4",
          "ticks": 3477,
          "time": 40.43023255813954,
          "velocity": 0.6929133858267716
        },
        {
          "duration": 0.011627906976741542,
          "durationTicks": 1,
          "midi": 68,
          "name": "G#4",
          "ticks": 3477,
          "time": 40.43023255813954,
          "velocity": 0.5669291338582677
        },
        {
          "duration": 0.22093023255813904,
          "durationTicks": 19,
          "midi": 71,
          "name": "B4",
          "ticks": 3477,
          "time": 40.43023255813954,
          "velocity": 0.4645669291338583
        },
        {
          "duration": 0.046511627906973274,
          "durationTicks": 4,
          "midi": 81,
          "name": "A5",
          "ticks": 3477,
          "time": 40.43023255813954,
          "velocity": 0.25196850393700787
        },
        {
          "duration": 0.046511627906973274,
          "durationTicks": 4,
          "midi": 86,
          "name": "D6",
          "ticks": 3477,
          "time": 40.43023255813954,
          "velocity": 0.2440944881889764
        },
        {
          "duration": 0.22093023255813904,
          "durationTicks": 19,
          "midi": 52,
          "name": "E3",
          "ticks": 3478,
          "time": 40.44186046511628,
          "velocity": 0.49606299212598426
        },
        {
          "duration": 0.22093023255813904,
          "durationTicks": 19,
          "midi": 57,
          "name": "A3",
          "ticks": 3478,
          "time": 40.44186046511628,
          "velocity": 0.4566929133858268
        },
        {
          "duration": 0.03488372093023173,
          "durationTicks": 3,
          "midi": 67,
          "name": "G4",
          "ticks": 3478,
          "time": 40.44186046511628,
          "velocity": 0.5669291338582677
        },
        {
          "duration": 0.011627906976748648,
          "durationTicks": 1,
          "midi": 69,
          "name": "A4",
          "ticks": 3478,
          "time": 40.44186046511628,
          "velocity": 0.5118110236220472
        },
        {
          "duration": 0.17441860465116577,
          "durationTicks": 15,
          "midi": 91,
          "name": "G6",
          "ticks": 3478,
          "time": 40.44186046511628,
          "velocity": 0.29133858267716534
        },
        {
          "duration": 0.011627906976741542,
          "durationTicks": 1,
          "midi": 64,
          "name": "E4",
          "ticks": 3479,
          "time": 40.45348837209303,
          "velocity": 0.6220472440944882
        },
        {
          "duration": 0.2093023255813904,
          "durationTicks": 18,
          "midi": 73,
          "name": "C#5",
          "ticks": 3479,
          "time": 40.45348837209303,
          "velocity": 0.28346456692913385
        },
        {
          "duration": 0.046511627906973274,
          "durationTicks": 4,
          "midi": 90,
          "name": "F#6",
          "ticks": 3479,
          "time": 40.45348837209303,
          "velocity": 0.08661417322834646
        },
        {
          "duration": 0.19767441860464885,
          "durationTicks": 17,
          "midi": 69,
          "name": "A4",
          "ticks": 3480,
          "time": 40.46511627906977,
          "velocity": 0.5275590551181102
        },
        {
          "duration": 0.1860465116279073,
          "durationTicks": 16,
          "midi": 64,
          "name": "E4",
          "ticks": 3481,
          "time": 40.47674418604651,
          "velocity": 0.5748031496062992
        },
        {
          "duration": 0.03488372093023173,
          "durationTicks": 3,
          "midi": 41,
          "name": "F2",
          "ticks": 3482,
          "time": 40.48837209302326,
          "velocity": 0.1889763779527559
        },
        {
          "duration": 0.11627906976743674,
          "durationTicks": 10,
          "midi": 86,
          "name": "D6",
          "ticks": 3482,
          "time": 40.48837209302326,
          "velocity": 0.28346456692913385
        },
        {
          "duration": 0.03488372093023173,
          "durationTicks": 3,
          "midi": 61,
          "name": "C#4",
          "ticks": 3484,
          "time": 40.51162790697674,
          "velocity": 0.4251968503937008
        },
        {
          "duration": 0.32558139534883423,
          "durationTicks": 28,
          "midi": 93,
          "name": "A6",
          "ticks": 3490,
          "time": 40.58139534883721,
          "velocity": 0.2677165354330709
        },
        {
          "duration": 0.11627906976744384,
          "durationTicks": 10,
          "midi": 86,
          "name": "D6",
          "ticks": 3495,
          "time": 40.63953488372093,
          "velocity": 0.29133858267716534
        },
        {
          "duration": 0.06976744186047057,
          "durationTicks": 6,
          "midi": 91,
          "name": "G6",
          "ticks": 3495,
          "time": 40.63953488372093,
          "velocity": 0.2992125984251969
        },
        {
          "duration": 0.02325581395349019,
          "durationTicks": 2,
          "midi": 74,
          "name": "D5",
          "ticks": 3496,
          "time": 40.651162790697676,
          "velocity": 0.33070866141732286
        },
        {
          "duration": 0.03488372093023173,
          "durationTicks": 3,
          "midi": 90,
          "name": "F#6",
          "ticks": 3496,
          "time": 40.651162790697676,
          "velocity": 0.1968503937007874
        },
        {
          "duration": 0.011627906976748648,
          "durationTicks": 1,
          "midi": 35,
          "name": "B1",
          "ticks": 3497,
          "time": 40.66279069767442,
          "velocity": 0.5669291338582677
        },
        {
          "duration": 0.011627906976748648,
          "durationTicks": 1,
          "midi": 51,
          "name": "D#3",
          "ticks": 3497,
          "time": 40.66279069767442,
          "velocity": 0.5433070866141733
        },
        {
          "duration": 0.04651162790698038,
          "durationTicks": 4,
          "midi": 63,
          "name": "D#4",
          "ticks": 3497,
          "time": 40.66279069767442,
          "velocity": 0.5984251968503937
        },
        {
          "duration": 0.011627906976748648,
          "durationTicks": 1,
          "midi": 68,
          "name": "G#4",
          "ticks": 3497,
          "time": 40.66279069767442,
          "velocity": 0.5433070866141733
        },
        {
          "duration": 0.2325581395348877,
          "durationTicks": 20,
          "midi": 71,
          "name": "B4",
          "ticks": 3497,
          "time": 40.66279069767442,
          "velocity": 0.5039370078740157
        },
        {
          "duration": 0.02325581395349019,
          "durationTicks": 2,
          "midi": 78,
          "name": "F#5",
          "ticks": 3497,
          "time": 40.66279069767442,
          "velocity": 0.2677165354330709
        },
        {
          "duration": 0.09302325581395365,
          "durationTicks": 8,
          "midi": 82,
          "name": "A#5",
          "ticks": 3497,
          "time": 40.66279069767442,
          "velocity": 0.28346456692913385
        },
        {
          "duration": 0.023255813953483084,
          "durationTicks": 2,
          "midi": 41,
          "name": "F2",
          "ticks": 3498,
          "time": 40.674418604651166,
          "velocity": 0.5905511811023622
        },
        {
          "duration": 0.023255813953483084,
          "durationTicks": 2,
          "midi": 52,
          "name": "E3",
          "ticks": 3498,
          "time": 40.674418604651166,
          "velocity": 0.6062992125984252
        },
        {
          "duration": 0.023255813953483084,
          "durationTicks": 2,
          "midi": 57,
          "name": "A3",
          "ticks": 3498,
          "time": 40.674418604651166,
          "velocity": 0.44881889763779526
        },
        {
          "duration": 0.058139534883714816,
          "durationTicks": 5,
          "midi": 67,
          "name": "G4",
          "ticks": 3498,
          "time": 40.674418604651166,
          "velocity": 0.5433070866141733
        },
        {
          "duration": 0.1046511627906952,
          "durationTicks": 9,
          "midi": 81,
          "name": "A5",
          "ticks": 3498,
          "time": 40.674418604651166,
          "velocity": 0.2047244094488189
        },
        {
          "duration": 0.011627906976748648,
          "durationTicks": 1,
          "midi": 53,
          "name": "F3",
          "ticks": 3500,
          "time": 40.69767441860465,
          "velocity": 0.5748031496062992
        },
        {
          "duration": 0.04651162790698038,
          "durationTicks": 4,
          "midi": 69,
          "name": "A4",
          "ticks": 3500,
          "time": 40.69767441860465,
          "velocity": 0.4409448818897638
        },
        {
          "duration": 0.03488372093023173,
          "durationTicks": 3,
          "midi": 84,
          "name": "C6",
          "ticks": 3500,
          "time": 40.69767441860465,
          "velocity": 0.23622047244094488
        },
        {
          "duration": 0.12790697674418539,
          "durationTicks": 11,
          "midi": 90,
          "name": "F#6",
          "ticks": 3500,
          "time": 40.69767441860465,
          "velocity": 0.2992125984251969
        },
        {
          "duration": 0.011627906976741542,
          "durationTicks": 1,
          "midi": 40,
          "name": "E2",
          "ticks": 3501,
          "time": 40.7093023255814,
          "velocity": 0.6456692913385826
        },
        {
          "duration": 0.03488372093023173,
          "durationTicks": 3,
          "midi": 56,
          "name": "G#3",
          "ticks": 3501,
          "time": 40.7093023255814,
          "velocity": 0.5039370078740157
        },
        {
          "duration": 0.19767441860464885,
          "durationTicks": 17,
          "midi": 64,
          "name": "E4",
          "ticks": 3501,
          "time": 40.7093023255814,
          "velocity": 0.6141732283464567
        },
        {
          "duration": 0.02325581395349019,
          "durationTicks": 2,
          "midi": 42,
          "name": "F#2",
          "ticks": 3502,
          "time": 40.72093023255814,
          "velocity": 0.6771653543307087
        },
        {
          "duration": 0.011627906976741542,
          "durationTicks": 1,
          "midi": 41,
          "name": "F2",
          "ticks": 3504,
          "time": 40.74418604651163,
          "velocity": 0.5354330708661418
        },
        {
          "duration": 0.02325581395349019,
          "durationTicks": 2,
          "midi": 52,
          "name": "E3",
          "ticks": 3504,
          "time": 40.74418604651163,
          "velocity": 0.4015748031496063
        },
        {
          "duration": 0.02325581395349019,
          "durationTicks": 2,
          "midi": 57,
          "name": "A3",
          "ticks": 3504,
          "time": 40.74418604651163,
          "velocity": 0.47244094488188976
        },
        {
          "duration": 0.02325581395349019,
          "durationTicks": 2,
          "midi": 40,
          "name": "E2",
          "ticks": 3505,
          "time": 40.75581395348837,
          "velocity": 0.44881889763779526
        },
        {
          "duration": 0.13953488372093403,
          "durationTicks": 12,
          "midi": 69,
          "name": "A4",
          "ticks": 3505,
          "time": 40.75581395348837,
          "velocity": 0.47244094488188976
        },
        {
          "duration": 0.11627906976744384,
          "durationTicks": 10,
          "midi": 52,
          "name": "E3",
          "ticks": 3507,
          "time": 40.77906976744186,
          "velocity": 0.4881889763779528
        },
        {
          "duration": 0.1046511627907023,
          "durationTicks": 9,
          "midi": 91,
          "name": "G6",
          "ticks": 3508,
          "time": 40.7906976744186,
          "velocity": 0.2992125984251969
        },
        {
          "duration": 0.081395348837205,
          "durationTicks": 7,
          "midi": 57,
          "name": "A3",
          "ticks": 3509,
          "time": 40.80232558139535,
          "velocity": 0.4094488188976378
        },
        {
          "duration": 0.06976744186046346,
          "durationTicks": 6,
          "midi": 61,
          "name": "C#4",
          "ticks": 3509,
          "time": 40.80232558139535,
          "velocity": 0.3858267716535433
        },
        {
          "duration": 0.03488372093023173,
          "durationTicks": 3,
          "midi": 40,
          "name": "E2",
          "ticks": 3510,
          "time": 40.81395348837209,
          "velocity": 0.11811023622047244
        },
        {
          "duration": 0.09302325581395365,
          "durationTicks": 8,
          "midi": 86,
          "name": "D6",
          "ticks": 3510,
          "time": 40.81395348837209,
          "velocity": 0.25984251968503935
        },
        {
          "duration": 0.11627906976744384,
          "durationTicks": 10,
          "midi": 67,
          "name": "G4",
          "ticks": 3516,
          "time": 40.883720930232556,
          "velocity": 0.6062992125984252
        },
        {
          "duration": 0.023255813953483084,
          "durationTicks": 2,
          "midi": 29,
          "name": "F1",
          "ticks": 3517,
          "time": 40.895348837209305,
          "velocity": 0.29133858267716534
        },
        {
          "duration": 0.023255813953483084,
          "durationTicks": 2,
          "midi": 51,
          "name": "D#3",
          "ticks": 3517,
          "time": 40.895348837209305,
          "velocity": 0.33858267716535434
        },
        {
          "duration": 0.13953488372092693,
          "durationTicks": 12,
          "midi": 70,
          "name": "A#4",
          "ticks": 3517,
          "time": 40.895348837209305,
          "velocity": 0.4409448818897638
        },
        {
          "duration": 0.1046511627906952,
          "durationTicks": 9,
          "midi": 58,
          "name": "A#3",
          "ticks": 3518,
          "time": 40.906976744186046,
          "velocity": 0.5118110236220472
        },
        {
          "duration": 0.08139534883721211,
          "durationTicks": 7,
          "midi": 52,
          "name": "E3",
          "ticks": 3519,
          "time": 40.91860465116279,
          "velocity": 0.1732283464566929
        },
        {
          "duration": 0.09302325581395365,
          "durationTicks": 8,
          "midi": 64,
          "name": "E4",
          "ticks": 3520,
          "time": 40.93023255813954,
          "velocity": 0.6220472440944882
        },
        {
          "duration": 0.03488372093023173,
          "durationTicks": 3,
          "midi": 77,
          "name": "F5",
          "ticks": 3525,
          "time": 40.98837209302326,
          "velocity": 0.1889763779527559
        },
        {
          "duration": 0.03488372093023173,
          "durationTicks": 3,
          "midi": 73,
          "name": "C#5",
          "ticks": 3526,
          "time": 41,
          "velocity": 0.1968503937007874
        },
        {
          "duration": 0.046511627906973274,
          "durationTicks": 4,
          "midi": 75,
          "name": "D#5",
          "ticks": 3526,
          "time": 41,
          "velocity": 0.2047244094488189
        },
        {
          "duration": 0.03488372093023173,
          "durationTicks": 3,
          "midi": 79,
          "name": "G5",
          "ticks": 3526,
          "time": 41,
          "velocity": 0.15748031496062992
        },
        {
          "duration": 0.02325581395349019,
          "durationTicks": 2,
          "midi": 29,
          "name": "F1",
          "ticks": 3527,
          "time": 41.01162790697674,
          "velocity": 0.2283464566929134
        },
        {
          "duration": 0.011627906976748648,
          "durationTicks": 1,
          "midi": 57,
          "name": "A3",
          "ticks": 3527,
          "time": 41.01162790697674,
          "velocity": 0.5275590551181102
        },
        {
          "duration": 0.05813953488372192,
          "durationTicks": 5,
          "midi": 80,
          "name": "G#5",
          "ticks": 3527,
          "time": 41.01162790697674,
          "velocity": 0.13385826771653545
        },
        {
          "duration": 0.12790697674418539,
          "durationTicks": 11,
          "midi": 56,
          "name": "G#3",
          "ticks": 3528,
          "time": 41.02325581395349,
          "velocity": 0.5905511811023622
        },
        {
          "duration": 0.1046511627906952,
          "durationTicks": 9,
          "midi": 63,
          "name": "D#4",
          "ticks": 3528,
          "time": 41.02325581395349,
          "velocity": 0.6062992125984252
        },
        {
          "duration": 0.08139534883721211,
          "durationTicks": 7,
          "midi": 72,
          "name": "C5",
          "ticks": 3529,
          "time": 41.03488372093023,
          "velocity": 0.30708661417322836
        },
        {
          "duration": 0.06976744186046346,
          "durationTicks": 6,
          "midi": 77,
          "name": "F5",
          "ticks": 3531,
          "time": 41.05813953488372,
          "velocity": 0.30708661417322836
        },
        {
          "duration": 0.03488372093023173,
          "durationTicks": 3,
          "midi": 70,
          "name": "A#4",
          "ticks": 3533,
          "time": 41.08139534883721,
          "velocity": 0.33070866141732286
        },
        {
          "duration": 0.02325581395349019,
          "durationTicks": 2,
          "midi": 80,
          "name": "G#5",
          "ticks": 3535,
          "time": 41.104651162790695,
          "velocity": 0.25196850393700787
        },
        {
          "duration": 0.03488372093023173,
          "durationTicks": 3,
          "midi": 87,
          "name": "D#6",
          "ticks": 3535,
          "time": 41.104651162790695,
          "velocity": 0.2283464566929134
        },
        {
          "duration": 0.023255813953483084,
          "durationTicks": 2,
          "midi": 35,
          "name": "B1",
          "ticks": 3536,
          "time": 41.116279069767444,
          "velocity": 0.6062992125984252
        },
        {
          "duration": 0.3720930232558146,
          "durationTicks": 32,
          "midi": 74,
          "name": "D5",
          "ticks": 3536,
          "time": 41.116279069767444,
          "velocity": 0.4251968503937008
        },
        {
          "duration": 0.3720930232558146,
          "durationTicks": 32,
          "midi": 83,
          "name": "B5",
          "ticks": 3536,
          "time": 41.116279069767444,
          "velocity": 0.33070866141732286
        },
        {
          "duration": 0.12790697674418539,
          "durationTicks": 11,
          "midi": 91,
          "name": "G6",
          "ticks": 3536,
          "time": 41.116279069767444,
          "velocity": 0.2125984251968504
        },
        {
          "duration": 0.02325581395349019,
          "durationTicks": 2,
          "midi": 48,
          "name": "C3",
          "ticks": 3537,
          "time": 41.127906976744185,
          "velocity": 0.5905511811023622
        },
        {
          "duration": 0.02325581395349019,
          "durationTicks": 2,
          "midi": 64,
          "name": "E4",
          "ticks": 3537,
          "time": 41.127906976744185,
          "velocity": 0.5433070866141733
        },
        {
          "duration": 0.22093023255813904,
          "durationTicks": 19,
          "midi": 67,
          "name": "G4",
          "ticks": 3537,
          "time": 41.127906976744185,
          "velocity": 0.5590551181102362
        },
        {
          "duration": 0.03488372093023173,
          "durationTicks": 3,
          "midi": 78,
          "name": "F#5",
          "ticks": 3537,
          "time": 41.127906976744185,
          "velocity": 0.28346456692913385
        },
        {
          "duration": 0.1860465116279073,
          "durationTicks": 16,
          "midi": 81,
          "name": "A5",
          "ticks": 3537,
          "time": 41.127906976744185,
          "velocity": 0.2283464566929134
        },
        {
          "duration": 0.011627906976748648,
          "durationTicks": 1,
          "midi": 40,
          "name": "E2",
          "ticks": 3538,
          "time": 41.13953488372093,
          "velocity": 0.5669291338582677
        },
        {
          "duration": 0.05813953488372192,
          "durationTicks": 5,
          "midi": 77,
          "name": "F5",
          "ticks": 3538,
          "time": 41.13953488372093,
          "velocity": 0.2440944881889764
        },
        {
          "duration": 0.03488372093023884,
          "durationTicks": 3,
          "midi": 84,
          "name": "C6",
          "ticks": 3538,
          "time": 41.13953488372093,
          "velocity": 0.10236220472440945
        },
        {
          "duration": 0.011627906976741542,
          "durationTicks": 1,
          "midi": 51,
          "name": "D#3",
          "ticks": 3539,
          "time": 41.151162790697676,
          "velocity": 0.6614173228346457
        },
        {
          "duration": 0.2093023255813975,
          "durationTicks": 18,
          "midi": 62,
          "name": "D4",
          "ticks": 3539,
          "time": 41.151162790697676,
          "velocity": 0.6377952755905512
        },
        {
          "duration": 0.02325581395349019,
          "durationTicks": 2,
          "midi": 71,
          "name": "B4",
          "ticks": 3539,
          "time": 41.151162790697676,
          "velocity": 0.2440944881889764
        },
        {
          "duration": 0.011627906976748648,
          "durationTicks": 1,
          "midi": 38,
          "name": "D2",
          "ticks": 3540,
          "time": 41.16279069767442,
          "velocity": 0.5511811023622047
        },
        {
          "duration": 0.02325581395349019,
          "durationTicks": 2,
          "midi": 52,
          "name": "E3",
          "ticks": 3540,
          "time": 41.16279069767442,
          "velocity": 0.6377952755905512
        },
        {
          "duration": 0.02325581395349019,
          "durationTicks": 2,
          "midi": 69,
          "name": "A4",
          "ticks": 3540,
          "time": 41.16279069767442,
          "velocity": 0.3700787401574803
        },
        {
          "duration": 0.011627906976741542,
          "durationTicks": 1,
          "midi": 41,
          "name": "F2",
          "ticks": 3541,
          "time": 41.174418604651166,
          "velocity": 0.6692913385826772
        },
        {
          "duration": 0.011627906976741542,
          "durationTicks": 1,
          "midi": 51,
          "name": "D#3",
          "ticks": 3541,
          "time": 41.174418604651166,
          "velocity": 0.5354330708661418
        },
        {
          "duration": 0.03488372093023173,
          "durationTicks": 3,
          "midi": 72,
          "name": "C5",
          "ticks": 3541,
          "time": 41.174418604651166,
          "velocity": 0.2204724409448819
        },
        {
          "duration": 0.23255813953488058,
          "durationTicks": 20,
          "midi": 78,
          "name": "F#5",
          "ticks": 3541,
          "time": 41.174418604651166,
          "velocity": 0.36220472440944884
        },
        {
          "duration": 0.02325581395349019,
          "durationTicks": 2,
          "midi": 42,
          "name": "F#2",
          "ticks": 3542,
          "time": 41.18604651162791,
          "velocity": 0.6692913385826772
        },
        {
          "duration": 0.02325581395349019,
          "durationTicks": 2,
          "midi": 56,
          "name": "G#3",
          "ticks": 3543,
          "time": 41.19767441860465,
          "velocity": 0.5039370078740157
        },
        {
          "duration": 0.011627906976741542,
          "durationTicks": 1,
          "midi": 41,
          "name": "F2",
          "ticks": 3544,
          "time": 41.2093023255814,
          "velocity": 0.5118110236220472
        },
        {
          "duration": 0.03488372093023173,
          "durationTicks": 3,
          "midi": 76,
          "name": "E5",
          "ticks": 3544,
          "time": 41.2093023255814,
          "velocity": 0.07874015748031496
        },
        {
          "duration": 0.02325581395349019,
          "durationTicks": 2,
          "midi": 40,
          "name": "E2",
          "ticks": 3545,
          "time": 41.22093023255814,
          "velocity": 0.4251968503937008
        },
        {
          "duration": 0.03488372093023173,
          "durationTicks": 3,
          "midi": 51,
          "name": "D#3",
          "ticks": 3545,
          "time": 41.22093023255814,
          "velocity": 0.5826771653543307
        },
        {
          "duration": 0.04651162790698038,
          "durationTicks": 4,
          "midi": 88,
          "name": "E6",
          "ticks": 3545,
          "time": 41.22093023255814,
          "velocity": 0.1968503937007874
        },
        {
          "duration": 0.02325581395349019,
          "durationTicks": 2,
          "midi": 41,
          "name": "F2",
          "ticks": 3547,
          "time": 41.24418604651163,
          "velocity": 0.3464566929133858
        },
        {
          "duration": 0.09302325581395365,
          "durationTicks": 8,
          "midi": 50,
          "name": "D3",
          "ticks": 3548,
          "time": 41.25581395348837,
          "velocity": 0.5511811023622047
        },
        {
          "duration": 0.22093023255813904,
          "durationTicks": 19,
          "midi": 55,
          "name": "G3",
          "ticks": 3548,
          "time": 41.25581395348837,
          "velocity": 0.6377952755905512
        },
        {
          "duration": 0.06976744186046346,
          "durationTicks": 6,
          "midi": 84,
          "name": "C6",
          "ticks": 3548,
          "time": 41.25581395348837,
          "velocity": 0.2047244094488189
        },
        {
          "duration": 0.24418604651162923,
          "durationTicks": 21,
          "midi": 89,
          "name": "F6",
          "ticks": 3548,
          "time": 41.25581395348837,
          "velocity": 0.3464566929133858
        },
        {
          "duration": 0.046511627906973274,
          "durationTicks": 4,
          "midi": 71,
          "name": "B4",
          "ticks": 3549,
          "time": 41.26744186046512,
          "velocity": 0.08661417322834646
        },
        {
          "duration": 0.11627906976743674,
          "durationTicks": 10,
          "midi": 76,
          "name": "E5",
          "ticks": 3549,
          "time": 41.26744186046512,
          "velocity": 0.31496062992125984
        },
        {
          "duration": 0.22093023255813904,
          "durationTicks": 19,
          "midi": 91,
          "name": "G6",
          "ticks": 3549,
          "time": 41.26744186046512,
          "velocity": 0.29133858267716534
        },
        {
          "duration": 0.02325581395349019,
          "durationTicks": 2,
          "midi": 39,
          "name": "D#2",
          "ticks": 3554,
          "time": 41.325581395348834,
          "velocity": 0.2755905511811024
        },
        {
          "duration": 0.03488372093023173,
          "durationTicks": 3,
          "midi": 70,
          "name": "A#4",
          "ticks": 3555,
          "time": 41.33720930232558,
          "velocity": 0.2992125984251969
        },
        {
          "duration": 0.09302325581395365,
          "durationTicks": 8,
          "midi": 80,
          "name": "G#5",
          "ticks": 3555,
          "time": 41.33720930232558,
          "velocity": 0.28346456692913385
        },
        {
          "duration": 0.13953488372092693,
          "durationTicks": 12,
          "midi": 81,
          "name": "A5",
          "ticks": 3555,
          "time": 41.33720930232558,
          "velocity": 0.2992125984251969
        },
        {
          "duration": 0.02325581395349019,
          "durationTicks": 2,
          "midi": 85,
          "name": "C#6",
          "ticks": 3555,
          "time": 41.33720930232558,
          "velocity": 0.2440944881889764
        },
        {
          "duration": 0.03488372093023173,
          "durationTicks": 3,
          "midi": 87,
          "name": "D#6",
          "ticks": 3555,
          "time": 41.33720930232558,
          "velocity": 0.2677165354330709
        },
        {
          "duration": 0.03488372093023173,
          "durationTicks": 3,
          "midi": 68,
          "name": "G#4",
          "ticks": 3556,
          "time": 41.348837209302324,
          "velocity": 0.3937007874015748
        },
        {
          "duration": 0.03488372093023173,
          "durationTicks": 3,
          "midi": 50,
          "name": "D3",
          "ticks": 3557,
          "time": 41.36046511627907,
          "velocity": 0.6614173228346457
        },
        {
          "duration": 0.011627906976741542,
          "durationTicks": 1,
          "midi": 63,
          "name": "D#4",
          "ticks": 3557,
          "time": 41.36046511627907,
          "velocity": 0.6535433070866141
        },
        {
          "duration": 0.15116279069766847,
          "durationTicks": 13,
          "midi": 72,
          "name": "C5",
          "ticks": 3557,
          "time": 41.36046511627907,
          "velocity": 0.2992125984251969
        },
        {
          "duration": 0.011627906976748648,
          "durationTicks": 1,
          "midi": 61,
          "name": "C#4",
          "ticks": 3559,
          "time": 41.383720930232556,
          "velocity": 0.5748031496062992
        },
        {
          "duration": 0.03488372093023173,
          "durationTicks": 3,
          "midi": 69,
          "name": "A4",
          "ticks": 3559,
          "time": 41.383720930232556,
          "velocity": 0.4094488188976378
        },
        {
          "duration": 0.023255813953483084,
          "durationTicks": 2,
          "midi": 49,
          "name": "C#3",
          "ticks": 3560,
          "time": 41.395348837209305,
          "velocity": 0.6062992125984252
        },
        {
          "duration": 0.081395348837205,
          "durationTicks": 7,
          "midi": 62,
          "name": "D4",
          "ticks": 3560,
          "time": 41.395348837209305,
          "velocity": 0.6299212598425197
        },
        {
          "duration": 0.13953488372092693,
          "durationTicks": 12,
          "midi": 77,
          "name": "F5",
          "ticks": 3560,
          "time": 41.395348837209305,
          "velocity": 0.33070866141732286
        },
        {
          "duration": 0.02325581395349019,
          "durationTicks": 2,
          "midi": 50,
          "name": "D3",
          "ticks": 3562,
          "time": 41.41860465116279,
          "velocity": 0.48031496062992124
        },
        {
          "duration": 0.046511627906973274,
          "durationTicks": 4,
          "midi": 69,
          "name": "A4",
          "ticks": 3563,
          "time": 41.43023255813954,
          "velocity": 0.4094488188976378
        },
        {
          "duration": 0.02325581395349019,
          "durationTicks": 2,
          "midi": 63,
          "name": "D#4",
          "ticks": 3567,
          "time": 41.47674418604651,
          "velocity": 0.33070866141732286
        },
        {
          "duration": 0.09302325581395365,
          "durationTicks": 8,
          "midi": 67,
          "name": "G4",
          "ticks": 3568,
          "time": 41.48837209302326,
          "velocity": 0.2992125984251969
        },
        {
          "duration": 0.03488372093023173,
          "durationTicks": 3,
          "midi": 54,
          "name": "F#3",
          "ticks": 3569,
          "time": 41.5,
          "velocity": 0.28346456692913385
        },
        {
          "duration": 0.046511627906973274,
          "durationTicks": 4,
          "midi": 62,
          "name": "D4",
          "ticks": 3571,
          "time": 41.52325581395349,
          "velocity": 0.14960629921259844
        },
        {
          "duration": 0.02325581395349019,
          "durationTicks": 2,
          "midi": 52,
          "name": "E3",
          "ticks": 3575,
          "time": 41.56976744186046,
          "velocity": 0.47244094488188976
        },
        {
          "duration": 0.02325581395349019,
          "durationTicks": 2,
          "midi": 64,
          "name": "E4",
          "ticks": 3575,
          "time": 41.56976744186046,
          "velocity": 0.48031496062992124
        },
        {
          "duration": 0.03488372093023173,
          "durationTicks": 3,
          "midi": 78,
          "name": "F#5",
          "ticks": 3575,
          "time": 41.56976744186046,
          "velocity": 0.2440944881889764
        },
        {
          "duration": 0.03488372093023173,
          "durationTicks": 3,
          "midi": 83,
          "name": "B5",
          "ticks": 3575,
          "time": 41.56976744186046,
          "velocity": 0.2125984251968504
        },
        {
          "duration": 0.03488372093023173,
          "durationTicks": 3,
          "midi": 89,
          "name": "F6",
          "ticks": 3575,
          "time": 41.56976744186046,
          "velocity": 0.14960629921259844
        },
        {
          "duration": 0.011627906976741542,
          "durationTicks": 1,
          "midi": 35,
          "name": "B1",
          "ticks": 3576,
          "time": 41.58139534883721,
          "velocity": 0.5354330708661418
        },
        {
          "duration": 0.023255813953483084,
          "durationTicks": 2,
          "midi": 68,
          "name": "G#4",
          "ticks": 3576,
          "time": 41.58139534883721,
          "velocity": 0.5590551181102362
        },
        {
          "duration": 0.23255813953488058,
          "durationTicks": 20,
          "midi": 73,
          "name": "C#5",
          "ticks": 3576,
          "time": 41.58139534883721,
          "velocity": 0.4015748031496063
        },
        {
          "duration": 0.23255813953488058,
          "durationTicks": 20,
          "midi": 77,
          "name": "F5",
          "ticks": 3576,
          "time": 41.58139534883721,
          "velocity": 0.2992125984251969
        },
        {
          "duration": 0.27906976744186096,
          "durationTicks": 24,
          "midi": 82,
          "name": "A#5",
          "ticks": 3576,
          "time": 41.58139534883721,
          "velocity": 0.29133858267716534
        },
        {
          "duration": 0.03488372093023173,
          "durationTicks": 3,
          "midi": 92,
          "name": "G#6",
          "ticks": 3576,
          "time": 41.58139534883721,
          "velocity": 0.1732283464566929
        },
        {
          "duration": 0.011627906976741542,
          "durationTicks": 1,
          "midi": 36,
          "name": "C2",
          "ticks": 3577,
          "time": 41.593023255813954,
          "velocity": 0.5905511811023622
        },
        {
          "duration": 0.02325581395349019,
          "durationTicks": 2,
          "midi": 53,
          "name": "F3",
          "ticks": 3577,
          "time": 41.593023255813954,
          "velocity": 0.5511811023622047
        },
        {
          "duration": 0.011627906976741542,
          "durationTicks": 1,
          "midi": 60,
          "name": "C4",
          "ticks": 3577,
          "time": 41.593023255813954,
          "velocity": 0.5275590551181102
        },
        {
          "duration": 0.046511627906973274,
          "durationTicks": 4,
          "midi": 63,
          "name": "D#4",
          "ticks": 3577,
          "time": 41.593023255813954,
          "velocity": 0.6377952755905512
        },
        {
          "duration": 0.011627906976748648,
          "durationTicks": 1,
          "midi": 45,
          "name": "A2",
          "ticks": 3578,
          "time": 41.604651162790695,
          "velocity": 0.5826771653543307
        },
        {
          "duration": 0.011627906976748648,
          "durationTicks": 1,
          "midi": 67,
          "name": "G4",
          "ticks": 3578,
          "time": 41.604651162790695,
          "velocity": 0.5905511811023622
        },
        {
          "duration": 0.011627906976741542,
          "durationTicks": 1,
          "midi": 54,
          "name": "F#3",
          "ticks": 3579,
          "time": 41.616279069767444,
          "velocity": 0.5354330708661418
        },
        {
          "duration": 0.19767441860464885,
          "durationTicks": 17,
          "midi": 66,
          "name": "F#4",
          "ticks": 3579,
          "time": 41.616279069767444,
          "velocity": 0.5826771653543307
        },
        {
          "duration": 0.23255813953488058,
          "durationTicks": 20,
          "midi": 89,
          "name": "F6",
          "ticks": 3579,
          "time": 41.616279069767444,
          "velocity": 0.2992125984251969
        },
        {
          "duration": 0.011627906976741542,
          "durationTicks": 1,
          "midi": 39,
          "name": "D#2",
          "ticks": 3580,
          "time": 41.627906976744185,
          "velocity": 0.6141732283464567
        },
        {
          "duration": 0.03488372093023173,
          "durationTicks": 3,
          "midi": 56,
          "name": "G#3",
          "ticks": 3580,
          "time": 41.627906976744185,
          "velocity": 0.4881889763779528
        },
        {
          "duration": 0.011627906976748648,
          "durationTicks": 1,
          "midi": 41,
          "name": "F2",
          "ticks": 3581,
          "time": 41.63953488372093,
          "velocity": 0.6850393700787402
        },
        {
          "duration": 0.1860465116279073,
          "durationTicks": 16,
          "midi": 61,
          "name": "C#4",
          "ticks": 3581,
          "time": 41.63953488372093,
          "velocity": 0.5748031496062992
        },
        {
          "duration": 0.43023255813953654,
          "durationTicks": 37,
          "midi": 88,
          "name": "E6",
          "ticks": 3581,
          "time": 41.63953488372093,
          "velocity": 0.3700787401574803
        },
        {
          "duration": 0.02325581395349019,
          "durationTicks": 2,
          "midi": 42,
          "name": "F#2",
          "ticks": 3582,
          "time": 41.651162790697676,
          "velocity": 0.6692913385826772
        },
        {
          "duration": 0.03488372093023173,
          "durationTicks": 3,
          "midi": 54,
          "name": "F#3",
          "ticks": 3584,
          "time": 41.674418604651166,
          "velocity": 0.4881889763779528
        },
        {
          "duration": 0.081395348837205,
          "durationTicks": 7,
          "midi": 90,
          "name": "F#6",
          "ticks": 3584,
          "time": 41.674418604651166,
          "velocity": 0.1732283464566929
        },
        {
          "duration": 0.1046511627907023,
          "durationTicks": 9,
          "midi": 49,
          "name": "C#3",
          "ticks": 3586,
          "time": 41.69767441860465,
          "velocity": 0.47244094488188976
        },
        {
          "duration": 0.081395348837205,
          "durationTicks": 7,
          "midi": 90,
          "name": "F#6",
          "ticks": 3592,
          "time": 41.76744186046512,
          "velocity": 0.25196850393700787
        },
        {
          "duration": 0.06976744186047057,
          "durationTicks": 6,
          "midi": 83,
          "name": "B5",
          "ticks": 3594,
          "time": 41.7906976744186,
          "velocity": 0.2755905511811024
        },
        {
          "duration": 0.24418604651162212,
          "durationTicks": 21,
          "midi": 80,
          "name": "G#5",
          "ticks": 3595,
          "time": 41.80232558139535,
          "velocity": 0.31496062992125984
        },
        {
          "duration": 0.011627906976741542,
          "durationTicks": 1,
          "midi": 44,
          "name": "G#2",
          "ticks": 3596,
          "time": 41.81395348837209,
          "velocity": 0.5196850393700787
        },
        {
          "duration": 0.04651162790698038,
          "durationTicks": 4,
          "midi": 65,
          "name": "F4",
          "ticks": 3596,
          "time": 41.81395348837209,
          "velocity": 0.6220472440944882
        },
        {
          "duration": 0.06976744186046346,
          "durationTicks": 6,
          "midi": 76,
          "name": "E5",
          "ticks": 3596,
          "time": 41.81395348837209,
          "velocity": 0.3543307086614173
        },
        {
          "duration": 0.03488372093023173,
          "durationTicks": 3,
          "midi": 84,
          "name": "C6",
          "ticks": 3596,
          "time": 41.81395348837209,
          "velocity": 0.2047244094488189
        },
        {
          "duration": 0.25581395348837077,
          "durationTicks": 22,
          "midi": 86,
          "name": "D6",
          "ticks": 3596,
          "time": 41.81395348837209,
          "velocity": 0.2992125984251969
        },
        {
          "duration": 0.011627906976748648,
          "durationTicks": 1,
          "midi": 48,
          "name": "C3",
          "ticks": 3597,
          "time": 41.825581395348834,
          "velocity": 0.6141732283464567
        },
        {
          "duration": 0.011627906976748648,
          "durationTicks": 1,
          "midi": 53,
          "name": "F3",
          "ticks": 3597,
          "time": 41.825581395348834,
          "velocity": 0.5354330708661418
        },
        {
          "duration": 0.011627906976748648,
          "durationTicks": 1,
          "midi": 67,
          "name": "G4",
          "ticks": 3597,
          "time": 41.825581395348834,
          "velocity": 0.5669291338582677
        },
        {
          "duration": 0.22093023255813904,
          "durationTicks": 19,
          "midi": 71,
          "name": "B4",
          "ticks": 3597,
          "time": 41.825581395348834,
          "velocity": 0.48031496062992124
        },
        {
          "duration": 0.02325581395349019,
          "durationTicks": 2,
          "midi": 50,
          "name": "D3",
          "ticks": 3598,
          "time": 41.83720930232558,
          "velocity": 0.6614173228346457
        },
        {
          "duration": 0.046511627906973274,
          "durationTicks": 4,
          "midi": 59,
          "name": "B3",
          "ticks": 3598,
          "time": 41.83720930232558,
          "velocity": 0.5511811023622047
        },
        {
          "duration": 0.03488372093023173,
          "durationTicks": 3,
          "midi": 73,
          "name": "C#5",
          "ticks": 3598,
          "time": 41.83720930232558,
          "velocity": 0.11023622047244094
        },
        {
          "duration": 0.30232558139534405,
          "durationTicks": 26,
          "midi": 75,
          "name": "D#5",
          "ticks": 3598,
          "time": 41.83720930232558,
          "velocity": 0.3228346456692913
        },
        {
          "duration": 0.02325581395349019,
          "durationTicks": 2,
          "midi": 67,
          "name": "G4",
          "ticks": 3599,
          "time": 41.848837209302324,
          "velocity": 0.5511811023622047
        },
        {
          "duration": 0.011627906976741542,
          "durationTicks": 1,
          "midi": 49,
          "name": "C#3",
          "ticks": 3600,
          "time": 41.86046511627907,
          "velocity": 0.5196850393700787
        },
        {
          "duration": 0.1046511627906952,
          "durationTicks": 9,
          "midi": 64,
          "name": "E4",
          "ticks": 3600,
          "time": 41.86046511627907,
          "velocity": 0.6614173228346457
        },
        {
          "duration": 0.06976744186046346,
          "durationTicks": 6,
          "midi": 84,
          "name": "C6",
          "ticks": 3600,
          "time": 41.86046511627907,
          "velocity": 0.2125984251968504
        },
        {
          "duration": 0.081395348837205,
          "durationTicks": 7,
          "midi": 89,
          "name": "F6",
          "ticks": 3600,
          "time": 41.86046511627907,
          "velocity": 0.09448818897637795
        },
        {
          "duration": 0.09302325581395365,
          "durationTicks": 8,
          "midi": 95,
          "name": "B6",
          "ticks": 3600,
          "time": 41.86046511627907,
          "velocity": 0.15748031496062992
        },
        {
          "duration": 0.011627906976741542,
          "durationTicks": 1,
          "midi": 48,
          "name": "C3",
          "ticks": 3601,
          "time": 41.872093023255815,
          "velocity": 0.5433070866141733
        },
        {
          "duration": 0.011627906976748648,
          "durationTicks": 1,
          "midi": 50,
          "name": "D3",
          "ticks": 3602,
          "time": 41.883720930232556,
          "velocity": 0.5511811023622047
        },
        {
          "duration": 0.011627906976748648,
          "durationTicks": 1,
          "midi": 60,
          "name": "C4",
          "ticks": 3602,
          "time": 41.883720930232556,
          "velocity": 0.5275590551181102
        },
        {
          "duration": 0.09302325581395365,
          "durationTicks": 8,
          "midi": 77,
          "name": "F5",
          "ticks": 3602,
          "time": 41.883720930232556,
          "velocity": 0.2755905511811024
        },
        {
          "duration": 0.15116279069766847,
          "durationTicks": 13,
          "midi": 59,
          "name": "B3",
          "ticks": 3603,
          "time": 41.895348837209305,
          "velocity": 0.6062992125984252
        },
        {
          "duration": 0.03488372093023884,
          "durationTicks": 3,
          "midi": 53,
          "name": "F3",
          "ticks": 3605,
          "time": 41.91860465116279,
          "velocity": 0.5354330708661418
        },
        {
          "duration": 0.011627906976748648,
          "durationTicks": 1,
          "midi": 66,
          "name": "F#4",
          "ticks": 3605,
          "time": 41.91860465116279,
          "velocity": 0.5511811023622047
        },
        {
          "duration": 0.03488372093023884,
          "durationTicks": 3,
          "midi": 93,
          "name": "A6",
          "ticks": 3605,
          "time": 41.91860465116279,
          "velocity": 0.09448818897637795
        },
        {
          "duration": 0.046511627906973274,
          "durationTicks": 4,
          "midi": 63,
          "name": "D#4",
          "ticks": 3608,
          "time": 41.95348837209303,
          "velocity": 0.5669291338582677
        },
        {
          "duration": 0.02325581395349019,
          "durationTicks": 2,
          "midi": 52,
          "name": "E3",
          "ticks": 3609,
          "time": 41.96511627906977,
          "velocity": 0.4645669291338583
        },
        {
          "duration": 0.081395348837205,
          "durationTicks": 7,
          "midi": 66,
          "name": "F#4",
          "ticks": 3609,
          "time": 41.96511627906977,
          "velocity": 0.5275590551181102
        },
        {
          "duration": 0.03488372093023173,
          "durationTicks": 3,
          "midi": 52,
          "name": "E3",
          "ticks": 3612,
          "time": 42,
          "velocity": 0.44881889763779526
        },
        {
          "duration": 0.023255813953483084,
          "durationTicks": 2,
          "midi": 64,
          "name": "E4",
          "ticks": 3614,
          "time": 42.02325581395349,
          "velocity": 0.49606299212598426
        },
        {
          "duration": 0.11627906976744384,
          "durationTicks": 10,
          "midi": 82,
          "name": "A#5",
          "ticks": 3615,
          "time": 42.03488372093023,
          "velocity": 0.28346456692913385
        },
        {
          "duration": 0.011627906976748648,
          "durationTicks": 1,
          "midi": 36,
          "name": "C2",
          "ticks": 3616,
          "time": 42.04651162790697,
          "velocity": 0.6141732283464567
        },
        {
          "duration": 0.09302325581395365,
          "durationTicks": 8,
          "midi": 63,
          "name": "D#4",
          "ticks": 3616,
          "time": 42.04651162790697,
          "velocity": 0.5118110236220472
        },
        {
          "duration": 0.09302325581395365,
          "durationTicks": 8,
          "midi": 67,
          "name": "G4",
          "ticks": 3616,
          "time": 42.04651162790697,
          "velocity": 0.5826771653543307
        },
        {
          "duration": 0.02325581395349019,
          "durationTicks": 2,
          "midi": 72,
          "name": "C5",
          "ticks": 3616,
          "time": 42.04651162790697,
          "velocity": 0.29133858267716534
        },
        {
          "duration": 0.011627906976741542,
          "durationTicks": 1,
          "midi": 40,
          "name": "E2",
          "ticks": 3617,
          "time": 42.05813953488372,
          "velocity": 0.6299212598425197
        },
        {
          "duration": 0.011627906976741542,
          "durationTicks": 1,
          "midi": 49,
          "name": "C#3",
          "ticks": 3617,
          "time": 42.05813953488372,
          "velocity": 0.5748031496062992
        },
        {
          "duration": 0.011627906976748648,
          "durationTicks": 1,
          "midi": 44,
          "name": "G#2",
          "ticks": 3618,
          "time": 42.06976744186046,
          "velocity": 0.5748031496062992
        },
        {
          "duration": 0.04651162790698038,
          "durationTicks": 4,
          "midi": 51,
          "name": "D#3",
          "ticks": 3618,
          "time": 42.06976744186046,
          "velocity": 0.7086614173228346
        },
        {
          "duration": 0.02325581395349019,
          "durationTicks": 2,
          "midi": 71,
          "name": "B4",
          "ticks": 3618,
          "time": 42.06976744186046,
          "velocity": 0.2283464566929134
        },
        {
          "duration": 0.12790697674418539,
          "durationTicks": 11,
          "midi": 80,
          "name": "G#5",
          "ticks": 3618,
          "time": 42.06976744186046,
          "velocity": 0.2677165354330709
        },
        {
          "duration": 0.011627906976741542,
          "durationTicks": 1,
          "midi": 39,
          "name": "D#2",
          "ticks": 3620,
          "time": 42.093023255813954,
          "velocity": 0.6377952755905512
        },
        {
          "duration": 0.011627906976748648,
          "durationTicks": 1,
          "midi": 41,
          "name": "F2",
          "ticks": 3621,
          "time": 42.104651162790695,
          "velocity": 0.6850393700787402
        },
        {
          "duration": 0.16279069767442422,
          "durationTicks": 14,
          "midi": 71,
          "name": "B4",
          "ticks": 3621,
          "time": 42.104651162790695,
          "velocity": 0.1968503937007874
        },
        {
          "duration": 0.011627906976741542,
          "durationTicks": 1,
          "midi": 42,
          "name": "F#2",
          "ticks": 3622,
          "time": 42.116279069767444,
          "velocity": 0.6456692913385826
        },
        {
          "duration": 0.011627906976741542,
          "durationTicks": 1,
          "midi": 50,
          "name": "D3",
          "ticks": 3622,
          "time": 42.116279069767444,
          "velocity": 0.5748031496062992
        },
        {
          "duration": 0.023255813953483084,
          "durationTicks": 2,
          "midi": 56,
          "name": "G#3",
          "ticks": 3622,
          "time": 42.116279069767444,
          "velocity": 0.36220472440944884
        },
        {
          "duration": 0.011627906976741542,
          "durationTicks": 1,
          "midi": 41,
          "name": "F2",
          "ticks": 3623,
          "time": 42.127906976744185,
          "velocity": 0.5590551181102362
        },
        {
          "duration": 0.02325581395349019,
          "durationTicks": 2,
          "midi": 60,
          "name": "C4",
          "ticks": 3623,
          "time": 42.127906976744185,
          "velocity": 0.2677165354330709
        },
        {
          "duration": 0.03488372093023884,
          "durationTicks": 3,
          "midi": 40,
          "name": "E2",
          "ticks": 3624,
          "time": 42.13953488372093,
          "velocity": 0.44881889763779526
        },
        {
          "duration": 0.02325581395349019,
          "durationTicks": 2,
          "midi": 48,
          "name": "C3",
          "ticks": 3624,
          "time": 42.13953488372093,
          "velocity": 0.3858267716535433
        },
        {
          "duration": 0.02325581395349019,
          "durationTicks": 2,
          "midi": 61,
          "name": "C#4",
          "ticks": 3625,
          "time": 42.151162790697676,
          "velocity": 0.2440944881889764
        },
        {
          "duration": 0.046511627906973274,
          "durationTicks": 4,
          "midi": 64,
          "name": "E4",
          "ticks": 3625,
          "time": 42.151162790697676,
          "velocity": 0.2677165354330709
        },
        {
          "duration": 0.04651162790698038,
          "durationTicks": 4,
          "midi": 50,
          "name": "D3",
          "ticks": 3626,
          "time": 42.16279069767442,
          "velocity": 0.41732283464566927
        },
        {
          "duration": 0.023255813953483084,
          "durationTicks": 2,
          "midi": 41,
          "name": "F2",
          "ticks": 3627,
          "time": 42.174418604651166,
          "velocity": 0.30708661417322836
        },
        {
          "duration": 0.03488372093023173,
          "durationTicks": 3,
          "midi": 60,
          "name": "C4",
          "ticks": 3627,
          "time": 42.174418604651166,
          "velocity": 0.2992125984251969
        },
        {
          "duration": 0.04651162790698038,
          "durationTicks": 4,
          "midi": 64,
          "name": "E4",
          "ticks": 3631,
          "time": 42.22093023255814,
          "velocity": 0.23622047244094488
        },
        {
          "duration": 0.03488372093023173,
          "durationTicks": 3,
          "midi": 68,
          "name": "G#4",
          "ticks": 3634,
          "time": 42.25581395348837,
          "velocity": 0.5275590551181102
        },
        {
          "duration": 0.03488372093023173,
          "durationTicks": 3,
          "midi": 76,
          "name": "E5",
          "ticks": 3635,
          "time": 42.26744186046512,
          "velocity": 0.3543307086614173
        },
        {
          "duration": 0.03488372093023173,
          "durationTicks": 3,
          "midi": 83,
          "name": "B5",
          "ticks": 3635,
          "time": 42.26744186046512,
          "velocity": 0.2755905511811024
        },
        {
          "duration": 0.11627906976743674,
          "durationTicks": 10,
          "midi": 85,
          "name": "C#6",
          "ticks": 3635,
          "time": 42.26744186046512,
          "velocity": 0.2440944881889764
        },
        {
          "duration": 0.11627906976743674,
          "durationTicks": 10,
          "midi": 89,
          "name": "F6",
          "ticks": 3635,
          "time": 42.26744186046512,
          "velocity": 0.3228346456692913
        },
        {
          "duration": 0.011627906976741542,
          "durationTicks": 1,
          "midi": 44,
          "name": "G#2",
          "ticks": 3636,
          "time": 42.27906976744186,
          "velocity": 0.5354330708661418
        },
        {
          "duration": 0.02325581395349019,
          "durationTicks": 2,
          "midi": 58,
          "name": "A#3",
          "ticks": 3636,
          "time": 42.27906976744186,
          "velocity": 0.5826771653543307
        },
        {
          "duration": 0.011627906976741542,
          "durationTicks": 1,
          "midi": 64,
          "name": "E4",
          "ticks": 3636,
          "time": 42.27906976744186,
          "velocity": 0.5826771653543307
        },
        {
          "duration": 0.4186046511627879,
          "durationTicks": 36,
          "midi": 73,
          "name": "C#5",
          "ticks": 3636,
          "time": 42.27906976744186,
          "velocity": 0.3858267716535433
        },
        {
          "duration": 0.02325581395349019,
          "durationTicks": 2,
          "midi": 78,
          "name": "F#5",
          "ticks": 3636,
          "time": 42.27906976744186,
          "velocity": 0.2283464566929134
        },
        {
          "duration": 0.05813953488372192,
          "durationTicks": 5,
          "midi": 91,
          "name": "G6",
          "ticks": 3636,
          "time": 42.27906976744186,
          "velocity": 0.13385826771653545
        },
        {
          "duration": 0.02325581395349019,
          "durationTicks": 2,
          "midi": 63,
          "name": "D#4",
          "ticks": 3637,
          "time": 42.2906976744186,
          "velocity": 0.6456692913385826
        },
        {
          "duration": 0.04651162790698038,
          "durationTicks": 4,
          "midi": 67,
          "name": "G4",
          "ticks": 3637,
          "time": 42.2906976744186,
          "velocity": 0.5748031496062992
        },
        {
          "duration": 0.02325581395349019,
          "durationTicks": 2,
          "midi": 77,
          "name": "F5",
          "ticks": 3637,
          "time": 42.2906976744186,
          "velocity": 0.25196850393700787
        },
        {
          "duration": 0.03488372093023173,
          "durationTicks": 3,
          "midi": 87,
          "name": "D#6",
          "ticks": 3637,
          "time": 42.2906976744186,
          "velocity": 0.1732283464566929
        },
        {
          "duration": 0.046511627906973274,
          "durationTicks": 4,
          "midi": 49,
          "name": "C#3",
          "ticks": 3638,
          "time": 42.30232558139535,
          "velocity": 0.5196850393700787
        },
        {
          "duration": 0.023255813953483084,
          "durationTicks": 2,
          "midi": 57,
          "name": "A3",
          "ticks": 3638,
          "time": 42.30232558139535,
          "velocity": 0.5511811023622047
        },
        {
          "duration": 0.22093023255813904,
          "durationTicks": 19,
          "midi": 61,
          "name": "C#4",
          "ticks": 3638,
          "time": 42.30232558139535,
          "velocity": 0.6062992125984252
        },
        {
          "duration": 0.15116279069767558,
          "durationTicks": 13,
          "midi": 84,
          "name": "C6",
          "ticks": 3638,
          "time": 42.30232558139535,
          "velocity": 0.1732283464566929
        },
        {
          "duration": 0.03488372093023173,
          "durationTicks": 3,
          "midi": 76,
          "name": "E5",
          "ticks": 3639,
          "time": 42.31395348837209,
          "velocity": 0.25984251968503935
        },
        {
          "duration": 0.13953488372093403,
          "durationTicks": 12,
          "midi": 83,
          "name": "B5",
          "ticks": 3639,
          "time": 42.31395348837209,
          "velocity": 0.16535433070866143
        },
        {
          "duration": 0.05813953488372192,
          "durationTicks": 5,
          "midi": 64,
          "name": "E4",
          "ticks": 3640,
          "time": 42.325581395348834,
          "velocity": 0.5748031496062992
        },
        {
          "duration": 0.02325581395349019,
          "durationTicks": 2,
          "midi": 70,
          "name": "A#4",
          "ticks": 3640,
          "time": 42.325581395348834,
          "velocity": 0.31496062992125984
        },
        {
          "duration": 0.06976744186046346,
          "durationTicks": 6,
          "midi": 57,
          "name": "A3",
          "ticks": 3641,
          "time": 42.33720930232558,
          "velocity": 0.6062992125984252
        },
        {
          "duration": 0.4534883720930196,
          "durationTicks": 39,
          "midi": 68,
          "name": "G#4",
          "ticks": 3641,
          "time": 42.33720930232558,
          "velocity": 0.5984251968503937
        },
        {
          "duration": 0.011627906976748648,
          "durationTicks": 1,
          "midi": 48,
          "name": "C3",
          "ticks": 3642,
          "time": 42.348837209302324,
          "velocity": 0.5196850393700787
        },
        {
          "duration": 0.09302325581395365,
          "durationTicks": 8,
          "midi": 77,
          "name": "F5",
          "ticks": 3642,
          "time": 42.348837209302324,
          "velocity": 0.28346456692913385
        },
        {
          "duration": 0.02325581395349019,
          "durationTicks": 2,
          "midi": 70,
          "name": "A#4",
          "ticks": 3644,
          "time": 42.372093023255815,
          "velocity": 0.28346456692913385
        },
        {
          "duration": 0.04651162790698038,
          "durationTicks": 4,
          "midi": 48,
          "name": "C3",
          "ticks": 3645,
          "time": 42.383720930232556,
          "velocity": 0.5433070866141733
        },
        {
          "duration": 0.06976744186046346,
          "durationTicks": 6,
          "midi": 64,
          "name": "E4",
          "ticks": 3646,
          "time": 42.395348837209305,
          "velocity": 0.48031496062992124
        },
        {
          "duration": 0.02325581395349019,
          "durationTicks": 2,
          "midi": 56,
          "name": "G#3",
          "ticks": 3647,
          "time": 42.406976744186046,
          "velocity": 0.5669291338582677
        },
        {
          "duration": 0.011627906976741542,
          "durationTicks": 1,
          "midi": 58,
          "name": "A#3",
          "ticks": 3649,
          "time": 42.43023255813954,
          "velocity": 0.5905511811023622
        },
        {
          "duration": 0.03488372093023173,
          "durationTicks": 3,
          "midi": 57,
          "name": "A3",
          "ticks": 3650,
          "time": 42.44186046511628,
          "velocity": 0.5984251968503937
        },
        {
          "duration": 0.03488372093023173,
          "durationTicks": 3,
          "midi": 92,
          "name": "G#6",
          "ticks": 3651,
          "time": 42.45348837209303,
          "velocity": 0.09448818897637795
        },
        {
          "duration": 0.06976744186046346,
          "durationTicks": 6,
          "midi": 76,
          "name": "E5",
          "ticks": 3652,
          "time": 42.46511627906977,
          "velocity": 0.31496062992125984
        },
        {
          "duration": 0.24418604651162923,
          "durationTicks": 21,
          "midi": 83,
          "name": "B5",
          "ticks": 3652,
          "time": 42.46511627906977,
          "velocity": 0.2440944881889764
        },
        {
          "duration": 0.02325581395349019,
          "durationTicks": 2,
          "midi": 56,
          "name": "G#3",
          "ticks": 3653,
          "time": 42.47674418604651,
          "velocity": 0.49606299212598426
        },
        {
          "duration": 0.02325581395349019,
          "durationTicks": 2,
          "midi": 64,
          "name": "E4",
          "ticks": 3653,
          "time": 42.47674418604651,
          "velocity": 0.4015748031496063
        },
        {
          "duration": 0.12790697674418539,
          "durationTicks": 11,
          "midi": 87,
          "name": "D#6",
          "ticks": 3653,
          "time": 42.47674418604651,
          "velocity": 0.25196850393700787
        },
        {
          "duration": 0.023255813953483084,
          "durationTicks": 2,
          "midi": 77,
          "name": "F5",
          "ticks": 3654,
          "time": 42.48837209302326,
          "velocity": 0.2677165354330709
        },
        {
          "duration": 0.15116279069767558,
          "durationTicks": 13,
          "midi": 57,
          "name": "A3",
          "ticks": 3655,
          "time": 42.5,
          "velocity": 0.6062992125984252
        },
        {
          "duration": 0.03488372093023173,
          "durationTicks": 3,
          "midi": 86,
          "name": "D6",
          "ticks": 3655,
          "time": 42.5,
          "velocity": 0.25984251968503935
        },
        {
          "duration": 0.011627906976748648,
          "durationTicks": 1,
          "midi": 34,
          "name": "A#1",
          "ticks": 3656,
          "time": 42.51162790697674,
          "velocity": 0.5669291338582677
        },
        {
          "duration": 0.011627906976748648,
          "durationTicks": 1,
          "midi": 51,
          "name": "D#3",
          "ticks": 3656,
          "time": 42.51162790697674,
          "velocity": 0.5826771653543307
        },
        {
          "duration": 0.02325581395349019,
          "durationTicks": 2,
          "midi": 78,
          "name": "F#5",
          "ticks": 3656,
          "time": 42.51162790697674,
          "velocity": 0.2440944881889764
        },
        {
          "duration": 0.13953488372093403,
          "durationTicks": 12,
          "midi": 92,
          "name": "G#6",
          "ticks": 3656,
          "time": 42.51162790697674,
          "velocity": 0.1732283464566929
        },
        {
          "duration": 0.011627906976741542,
          "durationTicks": 1,
          "midi": 35,
          "name": "B1",
          "ticks": 3657,
          "time": 42.52325581395349,
          "velocity": 0.5669291338582677
        },
        {
          "duration": 0.011627906976741542,
          "durationTicks": 1,
          "midi": 48,
          "name": "C3",
          "ticks": 3657,
          "time": 42.52325581395349,
          "velocity": 0.6220472440944882
        },
        {
          "duration": 0.046511627906973274,
          "durationTicks": 4,
          "midi": 63,
          "name": "D#4",
          "ticks": 3657,
          "time": 42.52325581395349,
          "velocity": 0.5748031496062992
        },
        {
          "duration": 0.023255813953483084,
          "durationTicks": 2,
          "midi": 77,
          "name": "F5",
          "ticks": 3657,
          "time": 42.52325581395349,
          "velocity": 0.25196850393700787
        },
        {
          "duration": 0.011627906976741542,
          "durationTicks": 1,
          "midi": 45,
          "name": "A2",
          "ticks": 3658,
          "time": 42.53488372093023,
          "velocity": 0.5748031496062992
        },
        {
          "duration": 0.011627906976741542,
          "durationTicks": 1,
          "midi": 50,
          "name": "D3",
          "ticks": 3658,
          "time": 42.53488372093023,
          "velocity": 0.5118110236220472
        },
        {
          "duration": 0.1046511627906952,
          "durationTicks": 9,
          "midi": 79,
          "name": "G5",
          "ticks": 3658,
          "time": 42.53488372093023,
          "velocity": 0.13385826771653545
        },
        {
          "duration": 0.011627906976748648,
          "durationTicks": 1,
          "midi": 43,
          "name": "G2",
          "ticks": 3659,
          "time": 42.54651162790697,
          "velocity": 0.6062992125984252
        },
        {
          "duration": 0.03488372093023884,
          "durationTicks": 3,
          "midi": 76,
          "name": "E5",
          "ticks": 3659,
          "time": 42.54651162790697,
          "velocity": 0.25984251968503935
        },
        {
          "duration": 0.03488372093023173,
          "durationTicks": 3,
          "midi": 41,
          "name": "F2",
          "ticks": 3660,
          "time": 42.55813953488372,
          "velocity": 0.6220472440944882
        },
        {
          "duration": 0.011627906976741542,
          "durationTicks": 1,
          "midi": 52,
          "name": "E3",
          "ticks": 3660,
          "time": 42.55813953488372,
          "velocity": 0.5118110236220472
        },
        {
          "duration": 0.1860465116279073,
          "durationTicks": 16,
          "midi": 89,
          "name": "F6",
          "ticks": 3660,
          "time": 42.55813953488372,
          "velocity": 0.13385826771653545
        },
        {
          "duration": 0.02325581395349019,
          "durationTicks": 2,
          "midi": 50,
          "name": "D3",
          "ticks": 3661,
          "time": 42.56976744186046,
          "velocity": 0.5590551181102362
        },
        {
          "duration": 0.08139534883721211,
          "durationTicks": 7,
          "midi": 61,
          "name": "C#4",
          "ticks": 3661,
          "time": 42.56976744186046,
          "velocity": 0.6062992125984252
        },
        {
          "duration": 0.02325581395349019,
          "durationTicks": 2,
          "midi": 64,
          "name": "E4",
          "ticks": 3661,
          "time": 42.56976744186046,
          "velocity": 0.47244094488188976
        },
        {
          "duration": 0.058139534883714816,
          "durationTicks": 5,
          "midi": 77,
          "name": "F5",
          "ticks": 3662,
          "time": 42.58139534883721,
          "velocity": 0.25984251968503935
        },
        {
          "duration": 0.011627906976741542,
          "durationTicks": 1,
          "midi": 49,
          "name": "C#3",
          "ticks": 3663,
          "time": 42.593023255813954,
          "velocity": 0.5354330708661418
        },
        {
          "duration": 0.02325581395349019,
          "durationTicks": 2,
          "midi": 64,
          "name": "E4",
          "ticks": 3664,
          "time": 42.604651162790695,
          "velocity": 0.4566929133858268
        },
        {
          "duration": 0.06976744186047057,
          "durationTicks": 6,
          "midi": 75,
          "name": "D#5",
          "ticks": 3664,
          "time": 42.604651162790695,
          "velocity": 0.1968503937007874
        },
        {
          "duration": 0.03488372093023173,
          "durationTicks": 3,
          "midi": 48,
          "name": "C3",
          "ticks": 3665,
          "time": 42.616279069767444,
          "velocity": 0.5196850393700787
        },
        {
          "duration": 0.09302325581395365,
          "durationTicks": 8,
          "midi": 71,
          "name": "B4",
          "ticks": 3667,
          "time": 42.63953488372093,
          "velocity": 0.29133858267716534
        },
        {
          "duration": 0.011627906976741542,
          "durationTicks": 1,
          "midi": 58,
          "name": "A#3",
          "ticks": 3668,
          "time": 42.651162790697676,
          "velocity": 0.5748031496062992
        },
        {
          "duration": 0.02325581395349019,
          "durationTicks": 2,
          "midi": 48,
          "name": "C3",
          "ticks": 3669,
          "time": 42.66279069767442,
          "velocity": 0.5196850393700787
        },
        {
          "duration": 0.02325581395349019,
          "durationTicks": 2,
          "midi": 57,
          "name": "A3",
          "ticks": 3669,
          "time": 42.66279069767442,
          "velocity": 0.5039370078740157
        },
        {
          "duration": 0.011627906976748648,
          "durationTicks": 1,
          "midi": 60,
          "name": "C4",
          "ticks": 3669,
          "time": 42.66279069767442,
          "velocity": 0.5590551181102362
        },
        {
          "duration": 0.19767441860465595,
          "durationTicks": 17,
          "midi": 88,
          "name": "E6",
          "ticks": 3669,
          "time": 42.66279069767442,
          "velocity": 0.29133858267716534
        },
        {
          "duration": 0.023255813953483084,
          "durationTicks": 2,
          "midi": 76,
          "name": "E5",
          "ticks": 3670,
          "time": 42.674418604651166,
          "velocity": 0.2677165354330709
        },
        {
          "duration": 0.011627906976741542,
          "durationTicks": 1,
          "midi": 58,
          "name": "A#3",
          "ticks": 3671,
          "time": 42.68604651162791,
          "velocity": 0.5826771653543307
        },
        {
          "duration": 0.046511627906973274,
          "durationTicks": 4,
          "midi": 77,
          "name": "F5",
          "ticks": 3671,
          "time": 42.68604651162791,
          "velocity": 0.2755905511811024
        },
        {
          "duration": 0.02325581395349019,
          "durationTicks": 2,
          "midi": 48,
          "name": "C3",
          "ticks": 3672,
          "time": 42.69767441860465,
          "velocity": 0.5196850393700787
        },
        {
          "duration": 0.02325581395349019,
          "durationTicks": 2,
          "midi": 57,
          "name": "A3",
          "ticks": 3672,
          "time": 42.69767441860465,
          "velocity": 0.5275590551181102
        },
        {
          "duration": 0.011627906976748648,
          "durationTicks": 1,
          "midi": 60,
          "name": "C4",
          "ticks": 3672,
          "time": 42.69767441860465,
          "velocity": 0.5354330708661418
        },
        {
          "duration": 0.03488372093023173,
          "durationTicks": 3,
          "midi": 73,
          "name": "C#5",
          "ticks": 3673,
          "time": 42.7093023255814,
          "velocity": 0.1968503937007874
        },
        {
          "duration": 0.15116279069767558,
          "durationTicks": 13,
          "midi": 78,
          "name": "F#5",
          "ticks": 3673,
          "time": 42.7093023255814,
          "velocity": 0.2204724409448819
        },
        {
          "duration": 0.011627906976741542,
          "durationTicks": 1,
          "midi": 58,
          "name": "A#3",
          "ticks": 3674,
          "time": 42.72093023255814,
          "velocity": 0.5669291338582677
        },
        {
          "duration": 0.02325581395349019,
          "durationTicks": 2,
          "midi": 64,
          "name": "E4",
          "ticks": 3674,
          "time": 42.72093023255814,
          "velocity": 0.4409448818897638
        },
        {
          "duration": 0.02325581395349019,
          "durationTicks": 2,
          "midi": 50,
          "name": "D3",
          "ticks": 3675,
          "time": 42.73255813953488,
          "velocity": 0.5196850393700787
        },
        {
          "duration": 0.02325581395349019,
          "durationTicks": 2,
          "midi": 60,
          "name": "C4",
          "ticks": 3675,
          "time": 42.73255813953488,
          "velocity": 0.5511811023622047
        },
        {
          "duration": 0.17441860465116577,
          "durationTicks": 15,
          "midi": 86,
          "name": "D6",
          "ticks": 3675,
          "time": 42.73255813953488,
          "velocity": 0.2755905511811024
        },
        {
          "duration": 0.02325581395349019,
          "durationTicks": 2,
          "midi": 58,
          "name": "A#3",
          "ticks": 3676,
          "time": 42.74418604651163,
          "velocity": 0.5039370078740157
        },
        {
          "duration": 0.011627906976741542,
          "durationTicks": 1,
          "midi": 63,
          "name": "D#4",
          "ticks": 3676,
          "time": 42.74418604651163,
          "velocity": 0.5196850393700787
        },
        {
          "duration": 0.22093023255813904,
          "durationTicks": 19,
          "midi": 71,
          "name": "B4",
          "ticks": 3676,
          "time": 42.74418604651163,
          "velocity": 0.44881889763779526
        },
        {
          "duration": 0.1046511627907023,
          "durationTicks": 9,
          "midi": 64,
          "name": "E4",
          "ticks": 3677,
          "time": 42.75581395348837,
          "velocity": 0.6141732283464567
        },
        {
          "duration": 0.12790697674418539,
          "durationTicks": 11,
          "midi": 87,
          "name": "D#6",
          "ticks": 3677,
          "time": 42.75581395348837,
          "velocity": 0.23622047244094488
        },
        {
          "duration": 0.03488372093023173,
          "durationTicks": 3,
          "midi": 59,
          "name": "B3",
          "ticks": 3678,
          "time": 42.76744186046512,
          "velocity": 0.5039370078740157
        },
        {
          "duration": 0.22093023255813904,
          "durationTicks": 19,
          "midi": 75,
          "name": "D#5",
          "ticks": 3678,
          "time": 42.76744186046512,
          "velocity": 0.2992125984251969
        },
        {
          "duration": 0.011627906976741542,
          "durationTicks": 1,
          "midi": 60,
          "name": "C4",
          "ticks": 3681,
          "time": 42.80232558139535,
          "velocity": 0.5118110236220472
        },
        {
          "duration": 0.011627906976741542,
          "durationTicks": 1,
          "midi": 58,
          "name": "A#3",
          "ticks": 3682,
          "time": 42.81395348837209,
          "velocity": 0.5354330708661418
        },
        {
          "duration": 0.03488372093023884,
          "durationTicks": 3,
          "midi": 59,
          "name": "B3",
          "ticks": 3683,
          "time": 42.825581395348834,
          "velocity": 0.5433070866141733
        },
        {
          "duration": 0.03488372093023884,
          "durationTicks": 3,
          "midi": 68,
          "name": "G#4",
          "ticks": 3683,
          "time": 42.825581395348834,
          "velocity": 0.36220472440944884
        },
        {
          "duration": 0.02325581395349019,
          "durationTicks": 2,
          "midi": 56,
          "name": "G#3",
          "ticks": 3685,
          "time": 42.848837209302324,
          "velocity": 0.5196850393700787
        },
        {
          "duration": 0.03488372093023173,
          "durationTicks": 3,
          "midi": 81,
          "name": "A5",
          "ticks": 3685,
          "time": 42.848837209302324,
          "velocity": 0.25196850393700787
        },
        {
          "duration": 0.058139534883714816,
          "durationTicks": 5,
          "midi": 63,
          "name": "D#4",
          "ticks": 3686,
          "time": 42.86046511627907,
          "velocity": 0.6299212598425197
        },
        {
          "duration": 0.03488372093023173,
          "durationTicks": 3,
          "midi": 79,
          "name": "G5",
          "ticks": 3686,
          "time": 42.86046511627907,
          "velocity": 0.09448818897637795
        },
        {
          "duration": 0.09302325581395365,
          "durationTicks": 8,
          "midi": 67,
          "name": "G4",
          "ticks": 3688,
          "time": 42.883720930232556,
          "velocity": 0.4645669291338583
        },
        {
          "duration": 0.06976744186047057,
          "durationTicks": 6,
          "midi": 73,
          "name": "C#5",
          "ticks": 3688,
          "time": 42.883720930232556,
          "velocity": 0.16535433070866143
        },
        {
          "duration": 0.06976744186046346,
          "durationTicks": 6,
          "midi": 55,
          "name": "G3",
          "ticks": 3689,
          "time": 42.895348837209305,
          "velocity": 0.5826771653543307
        },
        {
          "duration": 0.1046511627906952,
          "durationTicks": 9,
          "midi": 63,
          "name": "D#4",
          "ticks": 3692,
          "time": 42.93023255813954,
          "velocity": 0.6614173228346457
        },
        {
          "duration": 0.15116279069767558,
          "durationTicks": 13,
          "midi": 86,
          "name": "D6",
          "ticks": 3693,
          "time": 42.94186046511628,
          "velocity": 0.33858267716535434
        },
        {
          "duration": 0.02325581395349019,
          "durationTicks": 2,
          "midi": 30,
          "name": "F#1",
          "ticks": 3695,
          "time": 42.96511627906977,
          "velocity": 0.5826771653543307
        },
        {
          "duration": 0.02325581395349019,
          "durationTicks": 2,
          "midi": 56,
          "name": "G#3",
          "ticks": 3695,
          "time": 42.96511627906977,
          "velocity": 0.5354330708661418
        },
        {
          "duration": 0.13953488372092693,
          "durationTicks": 12,
          "midi": 78,
          "name": "F#5",
          "ticks": 3695,
          "time": 42.96511627906977,
          "velocity": 0.2755905511811024
        },
        {
          "duration": 0.13953488372092693,
          "durationTicks": 12,
          "midi": 80,
          "name": "G#5",
          "ticks": 3695,
          "time": 42.96511627906977,
          "velocity": 0.31496062992125984
        },
        {
          "duration": 0.13953488372092693,
          "durationTicks": 12,
          "midi": 88,
          "name": "E6",
          "ticks": 3695,
          "time": 42.96511627906977,
          "velocity": 0.31496062992125984
        },
        {
          "duration": 0.011627906976748648,
          "durationTicks": 1,
          "midi": 50,
          "name": "D3",
          "ticks": 3696,
          "time": 42.97674418604651,
          "velocity": 0.5905511811023622
        },
        {
          "duration": 0.05813953488372192,
          "durationTicks": 5,
          "midi": 68,
          "name": "G#4",
          "ticks": 3696,
          "time": 42.97674418604651,
          "velocity": 0.5826771653543307
        },
        {
          "duration": 0.11627906976744384,
          "durationTicks": 10,
          "midi": 83,
          "name": "B5",
          "ticks": 3696,
          "time": 42.97674418604651,
          "velocity": 0.1732283464566929
        },
        {
          "duration": 0.011627906976741542,
          "durationTicks": 1,
          "midi": 35,
          "name": "B1",
          "ticks": 3697,
          "time": 42.98837209302326,
          "velocity": 0.5433070866141733
        },
        {
          "duration": 0.011627906976741542,
          "durationTicks": 1,
          "midi": 46,
          "name": "A#2",
          "ticks": 3697,
          "time": 42.98837209302326,
          "velocity": 0.5433070866141733
        },
        {
          "duration": 0.011627906976741542,
          "durationTicks": 1,
          "midi": 51,
          "name": "D#3",
          "ticks": 3697,
          "time": 42.98837209302326,
          "velocity": 0.5354330708661418
        },
        {
          "duration": 0.1046511627906952,
          "durationTicks": 9,
          "midi": 59,
          "name": "B3",
          "ticks": 3697,
          "time": 42.98837209302326,
          "velocity": 0.5275590551181102
        },
        {
          "duration": 0.1046511627906952,
          "durationTicks": 9,
          "midi": 87,
          "name": "D#6",
          "ticks": 3697,
          "time": 42.98837209302326,
          "velocity": 0.2755905511811024
        },
        {
          "duration": 0.011627906976741542,
          "durationTicks": 1,
          "midi": 45,
          "name": "A2",
          "ticks": 3698,
          "time": 43,
          "velocity": 0.5511811023622047
        },
        {
          "duration": 0.08139534883721211,
          "durationTicks": 7,
          "midi": 82,
          "name": "A#5",
          "ticks": 3698,
          "time": 43,
          "velocity": 0.10236220472440945
        },
        {
          "duration": 0.04651162790698038,
          "durationTicks": 4,
          "midi": 41,
          "name": "F2",
          "ticks": 3699,
          "time": 43.01162790697674,
          "velocity": 0.6614173228346457
        },
        {
          "duration": 0.011627906976741542,
          "durationTicks": 1,
          "midi": 55,
          "name": "G3",
          "ticks": 3700,
          "time": 43.02325581395349,
          "velocity": 0.5354330708661418
        },
        {
          "duration": 0.02325581395349019,
          "durationTicks": 2,
          "midi": 54,
          "name": "F#3",
          "ticks": 3701,
          "time": 43.03488372093023,
          "velocity": 0.5669291338582677
        },
        {
          "duration": 0.05813953488372192,
          "durationTicks": 5,
          "midi": 64,
          "name": "E4",
          "ticks": 3701,
          "time": 43.03488372093023,
          "velocity": 0.5669291338582677
        },
        {
          "duration": 0.06976744186046346,
          "durationTicks": 6,
          "midi": 75,
          "name": "D#5",
          "ticks": 3701,
          "time": 43.03488372093023,
          "velocity": 0.2283464566929134
        },
        {
          "duration": 0.03488372093023173,
          "durationTicks": 3,
          "midi": 53,
          "name": "F3",
          "ticks": 3704,
          "time": 43.06976744186046,
          "velocity": 0.5433070866141733
        },
        {
          "duration": 0.03488372093023173,
          "durationTicks": 3,
          "midi": 66,
          "name": "F#4",
          "ticks": 3705,
          "time": 43.08139534883721,
          "velocity": 0.3779527559055118
        },
        {
          "duration": 0.02325581395349019,
          "durationTicks": 2,
          "midi": 63,
          "name": "D#4",
          "ticks": 3706,
          "time": 43.093023255813954,
          "velocity": 0.2992125984251969
        },
        {
          "duration": 0.06976744186046346,
          "durationTicks": 6,
          "midi": 68,
          "name": "G#4",
          "ticks": 3706,
          "time": 43.093023255813954,
          "velocity": 0.11811023622047244
        },
        {
          "duration": 0.03488372093023173,
          "durationTicks": 3,
          "midi": 54,
          "name": "F#3",
          "ticks": 3707,
          "time": 43.104651162790695,
          "velocity": 0.33858267716535434
        },
        {
          "duration": 0.11627906976743674,
          "durationTicks": 10,
          "midi": 64,
          "name": "E4",
          "ticks": 3708,
          "time": 43.116279069767444,
          "velocity": 0.6771653543307087
        },
        {
          "duration": 0.02325581395349019,
          "durationTicks": 2,
          "midi": 58,
          "name": "A#3",
          "ticks": 3714,
          "time": 43.18604651162791,
          "velocity": 0.4330708661417323
        },
        {
          "duration": 0.13953488372092693,
          "durationTicks": 12,
          "midi": 77,
          "name": "F5",
          "ticks": 3714,
          "time": 43.18604651162791,
          "velocity": 0.33070866141732286
        },
        {
          "duration": 0.02325581395349019,
          "durationTicks": 2,
          "midi": 73,
          "name": "C#5",
          "ticks": 3715,
          "time": 43.19767441860465,
          "velocity": 0.25984251968503935
        },
        {
          "duration": 0.2325581395348877,
          "durationTicks": 20,
          "midi": 80,
          "name": "G#5",
          "ticks": 3715,
          "time": 43.19767441860465,
          "velocity": 0.3464566929133858
        },
        {
          "duration": 0.12790697674418539,
          "durationTicks": 11,
          "midi": 83,
          "name": "B5",
          "ticks": 3715,
          "time": 43.19767441860465,
          "velocity": 0.2440944881889764
        },
        {
          "duration": 0.02325581395349019,
          "durationTicks": 2,
          "midi": 86,
          "name": "D6",
          "ticks": 3715,
          "time": 43.19767441860465,
          "velocity": 0.2283464566929134
        },
        {
          "duration": 0.13953488372093403,
          "durationTicks": 12,
          "midi": 88,
          "name": "E6",
          "ticks": 3715,
          "time": 43.19767441860465,
          "velocity": 0.2992125984251969
        },
        {
          "duration": 0.011627906976741542,
          "durationTicks": 1,
          "midi": 47,
          "name": "B2",
          "ticks": 3716,
          "time": 43.2093023255814,
          "velocity": 0.5669291338582677
        },
        {
          "duration": 0.023255813953483084,
          "durationTicks": 2,
          "midi": 53,
          "name": "F3",
          "ticks": 3716,
          "time": 43.2093023255814,
          "velocity": 0.6062992125984252
        },
        {
          "duration": 0.05813953488372192,
          "durationTicks": 5,
          "midi": 68,
          "name": "G#4",
          "ticks": 3716,
          "time": 43.2093023255814,
          "velocity": 0.48031496062992124
        },
        {
          "duration": 0.22093023255813904,
          "durationTicks": 19,
          "midi": 71,
          "name": "B4",
          "ticks": 3716,
          "time": 43.2093023255814,
          "velocity": 0.44881889763779526
        },
        {
          "duration": 0.05813953488372192,
          "durationTicks": 5,
          "midi": 84,
          "name": "C6",
          "ticks": 3716,
          "time": 43.2093023255814,
          "velocity": 0.2047244094488189
        },
        {
          "duration": 0.011627906976741542,
          "durationTicks": 1,
          "midi": 48,
          "name": "C3",
          "ticks": 3717,
          "time": 43.22093023255814,
          "velocity": 0.5984251968503937
        },
        {
          "duration": 0.02325581395349019,
          "durationTicks": 2,
          "midi": 39,
          "name": "D#2",
          "ticks": 3718,
          "time": 43.23255813953488,
          "velocity": 0.3700787401574803
        },
        {
          "duration": 0.011627906976748648,
          "durationTicks": 1,
          "midi": 50,
          "name": "D3",
          "ticks": 3718,
          "time": 43.23255813953488,
          "velocity": 0.6535433070866141
        },
        {
          "duration": 0.09302325581395365,
          "durationTicks": 8,
          "midi": 61,
          "name": "C#4",
          "ticks": 3718,
          "time": 43.23255813953488,
          "velocity": 0.6062992125984252
        },
        {
          "duration": 0.02325581395349019,
          "durationTicks": 2,
          "midi": 63,
          "name": "D#4",
          "ticks": 3718,
          "time": 43.23255813953488,
          "velocity": 0.49606299212598426
        },
        {
          "duration": 0.1046511627907023,
          "durationTicks": 9,
          "midi": 86,
          "name": "D6",
          "ticks": 3718,
          "time": 43.23255813953488,
          "velocity": 0.25984251968503935
        },
        {
          "duration": 0.011627906976741542,
          "durationTicks": 1,
          "midi": 49,
          "name": "C#3",
          "ticks": 3719,
          "time": 43.24418604651163,
          "velocity": 0.5826771653543307
        },
        {
          "duration": 0.011627906976741542,
          "durationTicks": 1,
          "midi": 53,
          "name": "F3",
          "ticks": 3719,
          "time": 43.24418604651163,
          "velocity": 0.5196850393700787
        },
        {
          "duration": 0.011627906976748648,
          "durationTicks": 1,
          "midi": 48,
          "name": "C3",
          "ticks": 3720,
          "time": 43.25581395348837,
          "velocity": 0.5984251968503937
        },
        {
          "duration": 0.011627906976741542,
          "durationTicks": 1,
          "midi": 50,
          "name": "D3",
          "ticks": 3721,
          "time": 43.26744186046512,
          "velocity": 0.6377952755905512
        },
        {
          "duration": 0.011627906976741542,
          "durationTicks": 1,
          "midi": 64,
          "name": "E4",
          "ticks": 3721,
          "time": 43.26744186046512,
          "velocity": 0.5826771653543307
        },
        {
          "duration": 0.046511627906973274,
          "durationTicks": 4,
          "midi": 49,
          "name": "C#3",
          "ticks": 3722,
          "time": 43.27906976744186,
          "velocity": 0.6692913385826772
        },
        {
          "duration": 0.08139534883721211,
          "durationTicks": 7,
          "midi": 68,
          "name": "G#4",
          "ticks": 3722,
          "time": 43.27906976744186,
          "velocity": 0.4015748031496063
        },
        {
          "duration": 0.02325581395349019,
          "durationTicks": 2,
          "midi": 64,
          "name": "E4",
          "ticks": 3723,
          "time": 43.2906976744186,
          "velocity": 0.4645669291338583
        },
        {
          "duration": 0.011627906976748648,
          "durationTicks": 1,
          "midi": 48,
          "name": "C3",
          "ticks": 3726,
          "time": 43.325581395348834,
          "velocity": 0.6692913385826772
        },
        {
          "duration": 0.03488372093023884,
          "durationTicks": 3,
          "midi": 56,
          "name": "G#3",
          "ticks": 3726,
          "time": 43.325581395348834,
          "velocity": 0.3858267716535433
        },
        {
          "duration": 0.03488372093023884,
          "durationTicks": 3,
          "midi": 73,
          "name": "C#5",
          "ticks": 3726,
          "time": 43.325581395348834,
          "velocity": 0.2283464566929134
        },
        {
          "duration": 0.09302325581395365,
          "durationTicks": 8,
          "midi": 49,
          "name": "C#3",
          "ticks": 3727,
          "time": 43.33720930232558,
          "velocity": 0.6377952755905512
        },
        {
          "duration": 0.02325581395349019,
          "durationTicks": 2,
          "midi": 64,
          "name": "E4",
          "ticks": 3730,
          "time": 43.372093023255815,
          "velocity": 0.29133858267716534
        },
        {
          "duration": 0.04651162790698038,
          "durationTicks": 4,
          "midi": 64,
          "name": "E4",
          "ticks": 3733,
          "time": 43.406976744186046,
          "velocity": 0.6535433070866141
        },
        {
          "duration": 0.04651162790698038,
          "durationTicks": 4,
          "midi": 74,
          "name": "D5",
          "ticks": 3734,
          "time": 43.41860465116279,
          "velocity": 0.31496062992125984
        },
        {
          "duration": 0.02325581395349019,
          "durationTicks": 2,
          "midi": 79,
          "name": "G5",
          "ticks": 3734,
          "time": 43.41860465116279,
          "velocity": 0.25984251968503935
        },
        {
          "duration": 0.06976744186047057,
          "durationTicks": 6,
          "midi": 85,
          "name": "C#6",
          "ticks": 3734,
          "time": 43.41860465116279,
          "velocity": 0.2125984251968504
        },
        {
          "duration": 0.02325581395349019,
          "durationTicks": 2,
          "midi": 30,
          "name": "F#1",
          "ticks": 3735,
          "time": 43.43023255813954,
          "velocity": 0.6141732283464567
        },
        {
          "duration": 0.02325581395349019,
          "durationTicks": 2,
          "midi": 50,
          "name": "D3",
          "ticks": 3735,
          "time": 43.43023255813954,
          "velocity": 0.6220472440944882
        },
        {
          "duration": 0.02325581395349019,
          "durationTicks": 2,
          "midi": 69,
          "name": "A4",
          "ticks": 3735,
          "time": 43.43023255813954,
          "velocity": 0.5118110236220472
        },
        {
          "duration": 0.13953488372092693,
          "durationTicks": 12,
          "midi": 88,
          "name": "E6",
          "ticks": 3735,
          "time": 43.43023255813954,
          "velocity": 0.2992125984251969
        },
        {
          "duration": 0.081395348837205,
          "durationTicks": 7,
          "midi": 89,
          "name": "F6",
          "ticks": 3735,
          "time": 43.43023255813954,
          "velocity": 0.2125984251968504
        },
        {
          "duration": 0.11627906976744384,
          "durationTicks": 10,
          "midi": 77,
          "name": "F5",
          "ticks": 3736,
          "time": 43.44186046511628,
          "velocity": 0.31496062992125984
        },
        {
          "duration": 0.12790697674418539,
          "durationTicks": 11,
          "midi": 80,
          "name": "G#5",
          "ticks": 3736,
          "time": 43.44186046511628,
          "velocity": 0.31496062992125984
        },
        {
          "duration": 0.05813953488372192,
          "durationTicks": 5,
          "midi": 87,
          "name": "D#6",
          "ticks": 3736,
          "time": 43.44186046511628,
          "velocity": 0.16535433070866143
        },
        {
          "duration": 0.011627906976741542,
          "durationTicks": 1,
          "midi": 35,
          "name": "B1",
          "ticks": 3737,
          "time": 43.45348837209303,
          "velocity": 0.5590551181102362
        },
        {
          "duration": 0.011627906976741542,
          "durationTicks": 1,
          "midi": 45,
          "name": "A2",
          "ticks": 3737,
          "time": 43.45348837209303,
          "velocity": 0.5748031496062992
        },
        {
          "duration": 0.011627906976741542,
          "durationTicks": 1,
          "midi": 51,
          "name": "D#3",
          "ticks": 3737,
          "time": 43.45348837209303,
          "velocity": 0.5669291338582677
        },
        {
          "duration": 0.023255813953483084,
          "durationTicks": 2,
          "midi": 63,
          "name": "D#4",
          "ticks": 3737,
          "time": 43.45348837209303,
          "velocity": 0.6614173228346457
        },
        {
          "duration": 0.11627906976743674,
          "durationTicks": 10,
          "midi": 68,
          "name": "G#4",
          "ticks": 3737,
          "time": 43.45348837209303,
          "velocity": 0.44881889763779526
        },
        {
          "duration": 0.19767441860464885,
          "durationTicks": 17,
          "midi": 71,
          "name": "B4",
          "ticks": 3737,
          "time": 43.45348837209303,
          "velocity": 0.41732283464566927
        },
        {
          "duration": 0.011627906976741542,
          "durationTicks": 1,
          "midi": 31,
          "name": "G1",
          "ticks": 3738,
          "time": 43.46511627906977,
          "velocity": 0.5590551181102362
        },
        {
          "duration": 0.011627906976741542,
          "durationTicks": 1,
          "midi": 53,
          "name": "F3",
          "ticks": 3738,
          "time": 43.46511627906977,
          "velocity": 0.5511811023622047
        },
        {
          "duration": 0.05813953488372192,
          "durationTicks": 5,
          "midi": 55,
          "name": "G3",
          "ticks": 3738,
          "time": 43.46511627906977,
          "velocity": 0.5433070866141733
        },
        {
          "duration": 0.11627906976744384,
          "durationTicks": 10,
          "midi": 61,
          "name": "C#4",
          "ticks": 3738,
          "time": 43.46511627906977,
          "velocity": 0.5669291338582677
        },
        {
          "duration": 0.02325581395349019,
          "durationTicks": 2,
          "midi": 41,
          "name": "F2",
          "ticks": 3739,
          "time": 43.47674418604651,
          "velocity": 0.6771653543307087
        },
        {
          "duration": 0.02325581395349019,
          "durationTicks": 2,
          "midi": 50,
          "name": "D3",
          "ticks": 3739,
          "time": 43.47674418604651,
          "velocity": 0.5905511811023622
        },
        {
          "duration": 0.011627906976741542,
          "durationTicks": 1,
          "midi": 42,
          "name": "F#2",
          "ticks": 3741,
          "time": 43.5,
          "velocity": 0.6141732283464567
        },
        {
          "duration": 0.046511627906973274,
          "durationTicks": 4,
          "midi": 64,
          "name": "E4",
          "ticks": 3741,
          "time": 43.5,
          "velocity": 0.5511811023622047
        },
        {
          "duration": 0.011627906976748648,
          "durationTicks": 1,
          "midi": 50,
          "name": "D3",
          "ticks": 3742,
          "time": 43.51162790697674,
          "velocity": 0.5275590551181102
        },
        {
          "duration": 0.02325581395349019,
          "durationTicks": 2,
          "midi": 50,
          "name": "D3",
          "ticks": 3745,
          "time": 43.54651162790697,
          "velocity": 0.5275590551181102
        },
        {
          "duration": 0.02325581395349019,
          "durationTicks": 2,
          "midi": 65,
          "name": "F4",
          "ticks": 3746,
          "time": 43.55813953488372,
          "velocity": 0.29133858267716534
        },
        {
          "duration": 0.046511627906973274,
          "durationTicks": 4,
          "midi": 55,
          "name": "G3",
          "ticks": 3748,
          "time": 43.58139534883721,
          "velocity": 0.10236220472440945
        },
        {
          "duration": 0.081395348837205,
          "durationTicks": 7,
          "midi": 64,
          "name": "E4",
          "ticks": 3748,
          "time": 43.58139534883721,
          "velocity": 0.30708661417322836
        },
        {
          "duration": 0.02325581395349019,
          "durationTicks": 2,
          "midi": 69,
          "name": "A4",
          "ticks": 3754,
          "time": 43.651162790697676,
          "velocity": 0.4566929133858268
        },
        {
          "duration": 0.13953488372092693,
          "durationTicks": 12,
          "midi": 80,
          "name": "G#5",
          "ticks": 3754,
          "time": 43.651162790697676,
          "velocity": 0.31496062992125984
        },
        {
          "duration": 0.1046511627906952,
          "durationTicks": 9,
          "midi": 83,
          "name": "B5",
          "ticks": 3754,
          "time": 43.651162790697676,
          "velocity": 0.2677165354330709
        },
        {
          "duration": 0.15116279069767558,
          "durationTicks": 13,
          "midi": 86,
          "name": "D6",
          "ticks": 3754,
          "time": 43.651162790697676,
          "velocity": 0.29133858267716534
        },
        {
          "duration": 0.15116279069767558,
          "durationTicks": 13,
          "midi": 88,
          "name": "E6",
          "ticks": 3754,
          "time": 43.651162790697676,
          "velocity": 0.28346456692913385
        },
        {
          "duration": 0.15116279069767558,
          "durationTicks": 13,
          "midi": 89,
          "name": "F6",
          "ticks": 3754,
          "time": 43.651162790697676,
          "velocity": 0.25984251968503935
        },
        {
          "duration": 0.03488372093023173,
          "durationTicks": 3,
          "midi": 48,
          "name": "C3",
          "ticks": 3755,
          "time": 43.66279069767442,
          "velocity": 0.6377952755905512
        },
        {
          "duration": 0.08139534883721211,
          "durationTicks": 7,
          "midi": 73,
          "name": "C#5",
          "ticks": 3755,
          "time": 43.66279069767442,
          "velocity": 0.2992125984251969
        },
        {
          "duration": 0.12790697674418539,
          "durationTicks": 11,
          "midi": 77,
          "name": "F5",
          "ticks": 3755,
          "time": 43.66279069767442,
          "velocity": 0.3464566929133858
        },
        {
          "duration": 0.011627906976741542,
          "durationTicks": 1,
          "midi": 53,
          "name": "F3",
          "ticks": 3756,
          "time": 43.674418604651166,
          "velocity": 0.5590551181102362
        },
        {
          "duration": 0.1046511627906952,
          "durationTicks": 9,
          "midi": 61,
          "name": "C#4",
          "ticks": 3756,
          "time": 43.674418604651166,
          "velocity": 0.6141732283464567
        },
        {
          "duration": 0.03488372093023173,
          "durationTicks": 3,
          "midi": 65,
          "name": "F4",
          "ticks": 3756,
          "time": 43.674418604651166,
          "velocity": 0.6456692913385826
        },
        {
          "duration": 0.023255813953483084,
          "durationTicks": 2,
          "midi": 68,
          "name": "G#4",
          "ticks": 3756,
          "time": 43.674418604651166,
          "velocity": 0.4330708661417323
        },
        {
          "duration": 0.22093023255813904,
          "durationTicks": 19,
          "midi": 71,
          "name": "B4",
          "ticks": 3756,
          "time": 43.674418604651166,
          "velocity": 0.4330708661417323
        },
        {
          "duration": 0.13953488372092693,
          "durationTicks": 12,
          "midi": 87,
          "name": "D#6",
          "ticks": 3756,
          "time": 43.674418604651166,
          "velocity": 0.2204724409448819
        },
        {
          "duration": 0.02325581395349019,
          "durationTicks": 2,
          "midi": 39,
          "name": "D#2",
          "ticks": 3758,
          "time": 43.69767441860465,
          "velocity": 0.4015748031496063
        },
        {
          "duration": 0.02325581395349019,
          "durationTicks": 2,
          "midi": 50,
          "name": "D3",
          "ticks": 3758,
          "time": 43.69767441860465,
          "velocity": 0.7165354330708661
        },
        {
          "duration": 0.06976744186046346,
          "durationTicks": 6,
          "midi": 64,
          "name": "E4",
          "ticks": 3759,
          "time": 43.7093023255814,
          "velocity": 0.5826771653543307
        },
        {
          "duration": 0.1046511627906952,
          "durationTicks": 9,
          "midi": 68,
          "name": "G#4",
          "ticks": 3759,
          "time": 43.7093023255814,
          "velocity": 0.44881889763779526
        },
        {
          "duration": 0.02325581395349019,
          "durationTicks": 2,
          "midi": 49,
          "name": "C#3",
          "ticks": 3760,
          "time": 43.72093023255814,
          "velocity": 0.6456692913385826
        },
        {
          "duration": 0.011627906976741542,
          "durationTicks": 1,
          "midi": 52,
          "name": "E3",
          "ticks": 3760,
          "time": 43.72093023255814,
          "velocity": 0.5118110236220472
        },
        {
          "duration": 0.03488372093023884,
          "durationTicks": 3,
          "midi": 75,
          "name": "D#5",
          "ticks": 3761,
          "time": 43.73255813953488,
          "velocity": 0.13385826771653545
        },
        {
          "duration": 0.011627906976741542,
          "durationTicks": 1,
          "midi": 50,
          "name": "D3",
          "ticks": 3762,
          "time": 43.74418604651163,
          "velocity": 0.6062992125984252
        },
        {
          "duration": 0.011627906976741542,
          "durationTicks": 1,
          "midi": 47,
          "name": "B2",
          "ticks": 3764,
          "time": 43.76744186046512,
          "velocity": 0.5275590551181102
        },
        {
          "duration": 0.011627906976741542,
          "durationTicks": 1,
          "midi": 50,
          "name": "D3",
          "ticks": 3765,
          "time": 43.77906976744186,
          "velocity": 0.5118110236220472
        },
        {
          "duration": 0.011627906976741542,
          "durationTicks": 1,
          "midi": 62,
          "name": "D4",
          "ticks": 3765,
          "time": 43.77906976744186,
          "velocity": 0.6141732283464567
        },
        {
          "duration": 0.09302325581395365,
          "durationTicks": 8,
          "midi": 49,
          "name": "C#3",
          "ticks": 3766,
          "time": 43.7906976744186,
          "velocity": 0.3464566929133858
        },
        {
          "duration": 0.05813953488372192,
          "durationTicks": 5,
          "midi": 56,
          "name": "G#3",
          "ticks": 3766,
          "time": 43.7906976744186,
          "velocity": 0.29133858267716534
        },
        {
          "duration": 0.1046511627907023,
          "durationTicks": 9,
          "midi": 63,
          "name": "D#4",
          "ticks": 3766,
          "time": 43.7906976744186,
          "velocity": 0.6062992125984252
        },
        {
          "duration": 0.12790697674418539,
          "durationTicks": 11,
          "midi": 64,
          "name": "E4",
          "ticks": 3774,
          "time": 43.883720930232556,
          "velocity": 0.6141732283464567
        },
        {
          "duration": 0.05813953488372192,
          "durationTicks": 5,
          "midi": 73,
          "name": "C#5",
          "ticks": 3774,
          "time": 43.883720930232556,
          "velocity": 0.29133858267716534
        },
        {
          "duration": 0.15116279069767558,
          "durationTicks": 13,
          "midi": 82,
          "name": "A#5",
          "ticks": 3774,
          "time": 43.883720930232556,
          "velocity": 0.25984251968503935
        },
        {
          "duration": 0.011627906976741542,
          "durationTicks": 1,
          "midi": 35,
          "name": "B1",
          "ticks": 3775,
          "time": 43.895348837209305,
          "velocity": 0.6220472440944882
        },
        {
          "duration": 0.03488372093023173,
          "durationTicks": 3,
          "midi": 50,
          "name": "D3",
          "ticks": 3775,
          "time": 43.895348837209305,
          "velocity": 0.7086614173228346
        },
        {
          "duration": 0.023255813953483084,
          "durationTicks": 2,
          "midi": 60,
          "name": "C4",
          "ticks": 3775,
          "time": 43.895348837209305,
          "velocity": 0.5196850393700787
        },
        {
          "duration": 0.05813953488372192,
          "durationTicks": 5,
          "midi": 77,
          "name": "F5",
          "ticks": 3775,
          "time": 43.895348837209305,
          "velocity": 0.3228346456692913
        },
        {
          "duration": 0.13953488372092693,
          "durationTicks": 12,
          "midi": 80,
          "name": "G#5",
          "ticks": 3775,
          "time": 43.895348837209305,
          "velocity": 0.2755905511811024
        },
        {
          "duration": 0.06976744186046346,
          "durationTicks": 6,
          "midi": 87,
          "name": "D#6",
          "ticks": 3775,
          "time": 43.895348837209305,
          "velocity": 0.14960629921259844
        },
        {
          "duration": 0.12790697674418539,
          "durationTicks": 11,
          "midi": 88,
          "name": "E6",
          "ticks": 3775,
          "time": 43.895348837209305,
          "velocity": 0.29133858267716534
        },
        {
          "duration": 0.046511627906973274,
          "durationTicks": 4,
          "midi": 93,
          "name": "A6",
          "ticks": 3775,
          "time": 43.895348837209305,
          "velocity": 0.11023622047244094
        },
        {
          "duration": 0.011627906976741542,
          "durationTicks": 1,
          "midi": 30,
          "name": "F#1",
          "ticks": 3776,
          "time": 43.906976744186046,
          "velocity": 0.6377952755905512
        },
        {
          "duration": 0.13953488372092693,
          "durationTicks": 12,
          "midi": 68,
          "name": "G#4",
          "ticks": 3776,
          "time": 43.906976744186046,
          "velocity": 0.4645669291338583
        },
        {
          "duration": 0.2093023255813975,
          "durationTicks": 18,
          "midi": 71,
          "name": "B4",
          "ticks": 3776,
          "time": 43.906976744186046,
          "velocity": 0.4251968503937008
        },
        {
          "duration": 0.011627906976748648,
          "durationTicks": 1,
          "midi": 35,
          "name": "B1",
          "ticks": 3777,
          "time": 43.91860465116279,
          "velocity": 0.5196850393700787
        },
        {
          "duration": 0.011627906976748648,
          "durationTicks": 1,
          "midi": 46,
          "name": "A#2",
          "ticks": 3777,
          "time": 43.91860465116279,
          "velocity": 0.5511811023622047
        },
        {
          "duration": 0.1046511627907023,
          "durationTicks": 9,
          "midi": 61,
          "name": "C#4",
          "ticks": 3777,
          "time": 43.91860465116279,
          "velocity": 0.5748031496062992
        },
        {
          "duration": 0.011627906976741542,
          "durationTicks": 1,
          "midi": 33,
          "name": "A1",
          "ticks": 3778,
          "time": 43.93023255813954,
          "velocity": 0.5905511811023622
        },
        {
          "duration": 0.03488372093023173,
          "durationTicks": 3,
          "midi": 51,
          "name": "D#3",
          "ticks": 3778,
          "time": 43.93023255813954,
          "velocity": 0.6771653543307087
        },
        {
          "duration": 0.011627906976741542,
          "durationTicks": 1,
          "midi": 55,
          "name": "G3",
          "ticks": 3778,
          "time": 43.93023255813954,
          "velocity": 0.5118110236220472
        },
        {
          "duration": 0.09302325581395365,
          "durationTicks": 8,
          "midi": 86,
          "name": "D6",
          "ticks": 3778,
          "time": 43.93023255813954,
          "velocity": 0.28346456692913385
        },
        {
          "duration": 0.04651162790698038,
          "durationTicks": 4,
          "midi": 42,
          "name": "F#2",
          "ticks": 3779,
          "time": 43.94186046511628,
          "velocity": 0.6456692913385826
        },
        {
          "duration": 0.011627906976741542,
          "durationTicks": 1,
          "midi": 50,
          "name": "D3",
          "ticks": 3781,
          "time": 43.96511627906977,
          "velocity": 0.6929133858267716
        },
        {
          "duration": 0.05813953488372192,
          "durationTicks": 5,
          "midi": 77,
          "name": "F5",
          "ticks": 3781,
          "time": 43.96511627906977,
          "velocity": 0.2677165354330709
        },
        {
          "duration": 0.02325581395349019,
          "durationTicks": 2,
          "midi": 51,
          "name": "D#3",
          "ticks": 3782,
          "time": 43.97674418604651,
          "velocity": 0.6535433070866141
        },
        {
          "duration": 0.09302325581395365,
          "durationTicks": 8,
          "midi": 75,
          "name": "D#5",
          "ticks": 3782,
          "time": 43.97674418604651,
          "velocity": 0.16535433070866143
        },
        {
          "duration": 0.06976744186046346,
          "durationTicks": 6,
          "midi": 87,
          "name": "D#6",
          "ticks": 3782,
          "time": 43.97674418604651,
          "velocity": 0.1889763779527559
        },
        {
          "duration": 0.023255813953483084,
          "durationTicks": 2,
          "midi": 39,
          "name": "D#2",
          "ticks": 3783,
          "time": 43.98837209302326,
          "velocity": 0.29133858267716534
        },
        {
          "duration": 0.011627906976741542,
          "durationTicks": 1,
          "midi": 52,
          "name": "E3",
          "ticks": 3784,
          "time": 44,
          "velocity": 0.5905511811023622
        },
        {
          "duration": 0.011627906976748648,
          "durationTicks": 1,
          "midi": 51,
          "name": "D#3",
          "ticks": 3785,
          "time": 44.01162790697674,
          "velocity": 0.5984251968503937
        },
        {
          "duration": 0.023255813953483084,
          "durationTicks": 2,
          "midi": 50,
          "name": "D3",
          "ticks": 3786,
          "time": 44.02325581395349,
          "velocity": 0.5196850393700787
        },
        {
          "duration": 0.02325581395349019,
          "durationTicks": 2,
          "midi": 57,
          "name": "A3",
          "ticks": 3787,
          "time": 44.03488372093023,
          "velocity": 0.2992125984251969
        },
        {
          "duration": 0.1279069767441925,
          "durationTicks": 11,
          "midi": 64,
          "name": "E4",
          "ticks": 3788,
          "time": 44.04651162790697,
          "velocity": 0.6535433070866141
        },
        {
          "duration": 0.03488372093023173,
          "durationTicks": 3,
          "midi": 56,
          "name": "G#3",
          "ticks": 3789,
          "time": 44.05813953488372,
          "velocity": 0.28346456692913385
        },
        {
          "duration": 0.13953488372092693,
          "durationTicks": 12,
          "midi": 77,
          "name": "F5",
          "ticks": 3794,
          "time": 44.116279069767444,
          "velocity": 0.3543307086614173
        },
        {
          "duration": 0.16279069767441712,
          "durationTicks": 14,
          "midi": 80,
          "name": "G#5",
          "ticks": 3794,
          "time": 44.116279069767444,
          "velocity": 0.3543307086614173
        },
        {
          "duration": 0.1046511627906952,
          "durationTicks": 9,
          "midi": 83,
          "name": "B5",
          "ticks": 3794,
          "time": 44.116279069767444,
          "velocity": 0.1968503937007874
        },
        {
          "duration": 0.13953488372092693,
          "durationTicks": 12,
          "midi": 86,
          "name": "D6",
          "ticks": 3794,
          "time": 44.116279069767444,
          "velocity": 0.2125984251968504
        },
        {
          "duration": 0.13953488372092693,
          "durationTicks": 12,
          "midi": 88,
          "name": "E6",
          "ticks": 3794,
          "time": 44.116279069767444,
          "velocity": 0.2047244094488189
        },
        {
          "duration": 0.02325581395349019,
          "durationTicks": 2,
          "midi": 29,
          "name": "F1",
          "ticks": 3795,
          "time": 44.127906976744185,
          "velocity": 0.4566929133858268
        },
        {
          "duration": 0.011627906976741542,
          "durationTicks": 1,
          "midi": 47,
          "name": "B2",
          "ticks": 3795,
          "time": 44.127906976744185,
          "velocity": 0.5275590551181102
        },
        {
          "duration": 0.16279069767441712,
          "durationTicks": 14,
          "midi": 68,
          "name": "G#4",
          "ticks": 3795,
          "time": 44.127906976744185,
          "velocity": 0.49606299212598426
        },
        {
          "duration": 0.04651162790698038,
          "durationTicks": 4,
          "midi": 73,
          "name": "C#5",
          "ticks": 3795,
          "time": 44.127906976744185,
          "velocity": 0.2755905511811024
        },
        {
          "duration": 0.011627906976748648,
          "durationTicks": 1,
          "midi": 48,
          "name": "C3",
          "ticks": 3796,
          "time": 44.13953488372093,
          "velocity": 0.6062992125984252
        },
        {
          "duration": 0.2093023255813975,
          "durationTicks": 18,
          "midi": 71,
          "name": "B4",
          "ticks": 3796,
          "time": 44.13953488372093,
          "velocity": 0.44881889763779526
        },
        {
          "duration": 0.011627906976741542,
          "durationTicks": 1,
          "midi": 49,
          "name": "C#3",
          "ticks": 3797,
          "time": 44.151162790697676,
          "velocity": 0.6377952755905512
        },
        {
          "duration": 0.011627906976748648,
          "durationTicks": 1,
          "midi": 50,
          "name": "D3",
          "ticks": 3798,
          "time": 44.16279069767442,
          "velocity": 0.6299212598425197
        },
        {
          "duration": 0.011627906976741542,
          "durationTicks": 1,
          "midi": 49,
          "name": "C#3",
          "ticks": 3799,
          "time": 44.174418604651166,
          "velocity": 0.5984251968503937
        },
        {
          "duration": 0.011627906976741542,
          "durationTicks": 1,
          "midi": 48,
          "name": "C3",
          "ticks": 3800,
          "time": 44.18604651162791,
          "velocity": 0.6299212598425197
        },
        {
          "duration": 0.05813953488372192,
          "durationTicks": 5,
          "midi": 64,
          "name": "E4",
          "ticks": 3800,
          "time": 44.18604651162791,
          "velocity": 0.5669291338582677
        },
        {
          "duration": 0.011627906976748648,
          "durationTicks": 1,
          "midi": 50,
          "name": "D3",
          "ticks": 3801,
          "time": 44.19767441860465,
          "velocity": 0.6377952755905512
        },
        {
          "duration": 0.081395348837205,
          "durationTicks": 7,
          "midi": 49,
          "name": "C#3",
          "ticks": 3802,
          "time": 44.2093023255814,
          "velocity": 0.6299212598425197
        },
        {
          "duration": 0.05813953488372192,
          "durationTicks": 5,
          "midi": 84,
          "name": "C6",
          "ticks": 3805,
          "time": 44.24418604651163,
          "velocity": 0.11023622047244094
        },
        {
          "duration": 0.1046511627906952,
          "durationTicks": 9,
          "midi": 64,
          "name": "E4",
          "ticks": 3807,
          "time": 44.26744186046512,
          "velocity": 0.6062992125984252
        },
        {
          "duration": 0.1046511627907023,
          "durationTicks": 9,
          "midi": 80,
          "name": "G#5",
          "ticks": 3814,
          "time": 44.348837209302324,
          "velocity": 0.18110236220472442
        },
        {
          "duration": 0.011627906976741542,
          "durationTicks": 1,
          "midi": 45,
          "name": "A2",
          "ticks": 3816,
          "time": 44.372093023255815,
          "velocity": 0.5196850393700787
        },
        {
          "duration": 0.11627906976744384,
          "durationTicks": 10,
          "midi": 58,
          "name": "A#3",
          "ticks": 3816,
          "time": 44.372093023255815,
          "velocity": 0.4645669291338583
        },
        {
          "duration": 0.1046511627906952,
          "durationTicks": 9,
          "midi": 63,
          "name": "D#4",
          "ticks": 3816,
          "time": 44.372093023255815,
          "velocity": 0.6062992125984252
        },
        {
          "duration": 0.11627906976744384,
          "durationTicks": 10,
          "midi": 68,
          "name": "G#4",
          "ticks": 3816,
          "time": 44.372093023255815,
          "velocity": 0.12598425196850394
        },
        {
          "duration": 0.13953488372092693,
          "durationTicks": 12,
          "midi": 77,
          "name": "F5",
          "ticks": 3816,
          "time": 44.372093023255815,
          "velocity": 0.25196850393700787
        },
        {
          "duration": 0.08139534883721211,
          "durationTicks": 7,
          "midi": 46,
          "name": "A#2",
          "ticks": 3817,
          "time": 44.383720930232556,
          "velocity": 0.5433070866141733
        },
        {
          "duration": 0.011627906976741542,
          "durationTicks": 1,
          "midi": 45,
          "name": "A2",
          "ticks": 3824,
          "time": 44.46511627906977,
          "velocity": 0.5354330708661418
        },
        {
          "duration": 0.011627906976748648,
          "durationTicks": 1,
          "midi": 44,
          "name": "G#2",
          "ticks": 3825,
          "time": 44.47674418604651,
          "velocity": 0.5196850393700787
        },
        {
          "duration": 0.24418604651162923,
          "durationTicks": 21,
          "midi": 79,
          "name": "G5",
          "ticks": 3825,
          "time": 44.47674418604651,
          "velocity": 0.36220472440944884
        },
        {
          "duration": 0.011627906976741542,
          "durationTicks": 1,
          "midi": 46,
          "name": "A#2",
          "ticks": 3826,
          "time": 44.48837209302326,
          "velocity": 0.5590551181102362
        },
        {
          "duration": 0.12790697674418539,
          "durationTicks": 11,
          "midi": 60,
          "name": "C4",
          "ticks": 3826,
          "time": 44.48837209302326,
          "velocity": 0.3858267716535433
        },
        {
          "duration": 0.09302325581395365,
          "durationTicks": 8,
          "midi": 67,
          "name": "G4",
          "ticks": 3826,
          "time": 44.48837209302326,
          "velocity": 0.10236220472440945
        },
        {
          "duration": 0.09302325581395365,
          "durationTicks": 8,
          "midi": 48,
          "name": "C3",
          "ticks": 3827,
          "time": 44.5,
          "velocity": 0.6220472440944882
        },
        {
          "duration": 0.13953488372092693,
          "durationTicks": 12,
          "midi": 74,
          "name": "D5",
          "ticks": 3834,
          "time": 44.58139534883721,
          "velocity": 0.4409448818897638
        },
        {
          "duration": 0.13953488372092693,
          "durationTicks": 12,
          "midi": 83,
          "name": "B5",
          "ticks": 3834,
          "time": 44.58139534883721,
          "velocity": 0.31496062992125984
        },
        {
          "duration": 0.02325581395349019,
          "durationTicks": 2,
          "midi": 53,
          "name": "F3",
          "ticks": 3835,
          "time": 44.593023255813954,
          "velocity": 0.5196850393700787
        },
        {
          "duration": 0.12790697674418539,
          "durationTicks": 11,
          "midi": 67,
          "name": "G4",
          "ticks": 3835,
          "time": 44.593023255813954,
          "velocity": 0.5748031496062992
        },
        {
          "duration": 0.09302325581395365,
          "durationTicks": 8,
          "midi": 63,
          "name": "D#4",
          "ticks": 3836,
          "time": 44.604651162790695,
          "velocity": 0.3700787401574803
        },
        {
          "duration": 0.02325581395349019,
          "durationTicks": 2,
          "midi": 88,
          "name": "E6",
          "ticks": 3836,
          "time": 44.604651162790695,
          "velocity": 0.2440944881889764
        },
        {
          "duration": 0.011627906976741542,
          "durationTicks": 1,
          "midi": 51,
          "name": "D#3",
          "ticks": 3837,
          "time": 44.616279069767444,
          "velocity": 0.5354330708661418
        },
        {
          "duration": 0.011627906976741542,
          "durationTicks": 1,
          "midi": 52,
          "name": "E3",
          "ticks": 3838,
          "time": 44.627906976744185,
          "velocity": 0.5275590551181102
        },
        {
          "duration": 0.09302325581395365,
          "durationTicks": 8,
          "midi": 89,
          "name": "F6",
          "ticks": 3838,
          "time": 44.627906976744185,
          "velocity": 0.2755905511811024
        },
        {
          "duration": 0.03488372093023884,
          "durationTicks": 3,
          "midi": 51,
          "name": "D#3",
          "ticks": 3839,
          "time": 44.63953488372093,
          "velocity": 0.5590551181102362
        },
        {
          "duration": 0.011627906976741542,
          "durationTicks": 1,
          "midi": 50,
          "name": "D3",
          "ticks": 3842,
          "time": 44.674418604651166,
          "velocity": 0.5433070866141733
        },
        {
          "duration": 0.02325581395349019,
          "durationTicks": 2,
          "midi": 51,
          "name": "D#3",
          "ticks": 3843,
          "time": 44.68604651162791,
          "velocity": 0.5826771653543307
        },
        {
          "duration": 0.03488372093023173,
          "durationTicks": 3,
          "midi": 29,
          "name": "F1",
          "ticks": 3844,
          "time": 44.69767441860465,
          "velocity": 0.25196850393700787
        },
        {
          "duration": 0.02325581395349019,
          "durationTicks": 2,
          "midi": 64,
          "name": "E4",
          "ticks": 3844,
          "time": 44.69767441860465,
          "velocity": 0.5826771653543307
        },
        {
          "duration": 0.02325581395349019,
          "durationTicks": 2,
          "midi": 70,
          "name": "A#4",
          "ticks": 3844,
          "time": 44.69767441860465,
          "velocity": 0.25196850393700787
        },
        {
          "duration": 0.011627906976741542,
          "durationTicks": 1,
          "midi": 52,
          "name": "E3",
          "ticks": 3845,
          "time": 44.7093023255814,
          "velocity": 0.6062992125984252
        },
        {
          "duration": 0.1046511627906952,
          "durationTicks": 9,
          "midi": 72,
          "name": "C5",
          "ticks": 3845,
          "time": 44.7093023255814,
          "velocity": 0.2204724409448819
        },
        {
          "duration": 0.1046511627906952,
          "durationTicks": 9,
          "midi": 53,
          "name": "F3",
          "ticks": 3846,
          "time": 44.72093023255814,
          "velocity": 0.5433070866141733
        },
        {
          "duration": 0.09302325581395365,
          "durationTicks": 8,
          "midi": 63,
          "name": "D#4",
          "ticks": 3846,
          "time": 44.72093023255814,
          "velocity": 0.5748031496062992
        },
        {
          "duration": 0.13953488372093403,
          "durationTicks": 12,
          "midi": 83,
          "name": "B5",
          "ticks": 3854,
          "time": 44.81395348837209,
          "velocity": 0.30708661417322836
        },
        {
          "duration": 0.12790697674418539,
          "durationTicks": 11,
          "midi": 86,
          "name": "D6",
          "ticks": 3854,
          "time": 44.81395348837209,
          "velocity": 0.25984251968503935
        },
        {
          "duration": 0.15116279069767558,
          "durationTicks": 13,
          "midi": 89,
          "name": "F6",
          "ticks": 3854,
          "time": 44.81395348837209,
          "velocity": 0.31496062992125984
        },
        {
          "duration": 0.13953488372093403,
          "durationTicks": 12,
          "midi": 91,
          "name": "G6",
          "ticks": 3854,
          "time": 44.81395348837209,
          "velocity": 0.25984251968503935
        },
        {
          "duration": 0.011627906976748648,
          "durationTicks": 1,
          "midi": 54,
          "name": "F#3",
          "ticks": 3855,
          "time": 44.825581395348834,
          "velocity": 0.5118110236220472
        },
        {
          "duration": 0.02325581395349019,
          "durationTicks": 2,
          "midi": 58,
          "name": "A#3",
          "ticks": 3855,
          "time": 44.825581395348834,
          "velocity": 0.48031496062992124
        },
        {
          "duration": 0.11627906976744384,
          "durationTicks": 10,
          "midi": 63,
          "name": "D#4",
          "ticks": 3855,
          "time": 44.825581395348834,
          "velocity": 0.6220472440944882
        },
        {
          "duration": 0.2093023255813975,
          "durationTicks": 18,
          "midi": 67,
          "name": "G4",
          "ticks": 3855,
          "time": 44.825581395348834,
          "velocity": 0.5905511811023622
        },
        {
          "duration": 0.1279069767441925,
          "durationTicks": 11,
          "midi": 74,
          "name": "D5",
          "ticks": 3855,
          "time": 44.825581395348834,
          "velocity": 0.44881889763779526
        },
        {
          "duration": 0.13953488372093403,
          "durationTicks": 12,
          "midi": 77,
          "name": "F5",
          "ticks": 3855,
          "time": 44.825581395348834,
          "velocity": 0.1968503937007874
        },
        {
          "duration": 0.011627906976741542,
          "durationTicks": 1,
          "midi": 45,
          "name": "A2",
          "ticks": 3856,
          "time": 44.83720930232558,
          "velocity": 0.5511811023622047
        },
        {
          "duration": 0.08139534883721211,
          "durationTicks": 7,
          "midi": 46,
          "name": "A#2",
          "ticks": 3857,
          "time": 44.848837209302324,
          "velocity": 0.5669291338582677
        },
        {
          "duration": 0.011627906976748648,
          "durationTicks": 1,
          "midi": 57,
          "name": "A3",
          "ticks": 3857,
          "time": 44.848837209302324,
          "velocity": 0.5196850393700787
        },
        {
          "duration": 0.08139534883721211,
          "durationTicks": 7,
          "midi": 70,
          "name": "A#4",
          "ticks": 3857,
          "time": 44.848837209302324,
          "velocity": 0.09448818897637795
        },
        {
          "duration": 0.09302325581395365,
          "durationTicks": 8,
          "midi": 93,
          "name": "A6",
          "ticks": 3857,
          "time": 44.848837209302324,
          "velocity": 0.11023622047244094
        },
        {
          "duration": 0.011627906976741542,
          "durationTicks": 1,
          "midi": 55,
          "name": "G3",
          "ticks": 3858,
          "time": 44.86046511627907,
          "velocity": 0.5118110236220472
        },
        {
          "duration": 0.011627906976741542,
          "durationTicks": 1,
          "midi": 56,
          "name": "G#3",
          "ticks": 3859,
          "time": 44.872093023255815,
          "velocity": 0.5354330708661418
        },
        {
          "duration": 0.04651162790698038,
          "durationTicks": 4,
          "midi": 55,
          "name": "G3",
          "ticks": 3860,
          "time": 44.883720930232556,
          "velocity": 0.5196850393700787
        },
        {
          "duration": 0.011627906976741542,
          "durationTicks": 1,
          "midi": 45,
          "name": "A2",
          "ticks": 3864,
          "time": 44.93023255813954,
          "velocity": 0.5433070866141733
        },
        {
          "duration": 0.011627906976748648,
          "durationTicks": 1,
          "midi": 44,
          "name": "G#2",
          "ticks": 3865,
          "time": 44.94186046511628,
          "velocity": 0.5275590551181102
        },
        {
          "duration": 0.02325581395349019,
          "durationTicks": 2,
          "midi": 59,
          "name": "B3",
          "ticks": 3865,
          "time": 44.94186046511628,
          "velocity": 0.4094488188976378
        },
        {
          "duration": 0.1046511627906952,
          "durationTicks": 9,
          "midi": 48,
          "name": "C3",
          "ticks": 3866,
          "time": 44.95348837209303,
          "velocity": 0.6456692913385826
        },
        {
          "duration": 0.011627906976748648,
          "durationTicks": 1,
          "midi": 64,
          "name": "E4",
          "ticks": 3874,
          "time": 45.04651162790697,
          "velocity": 0.5354330708661418
        },
        {
          "duration": 0.1279069767441925,
          "durationTicks": 11,
          "midi": 67,
          "name": "G4",
          "ticks": 3874,
          "time": 45.04651162790697,
          "velocity": 0.5826771653543307
        },
        {
          "duration": 0.13953488372093403,
          "durationTicks": 12,
          "midi": 74,
          "name": "D5",
          "ticks": 3874,
          "time": 45.04651162790697,
          "velocity": 0.48031496062992124
        },
        {
          "duration": 0.13953488372093403,
          "durationTicks": 12,
          "midi": 83,
          "name": "B5",
          "ticks": 3874,
          "time": 45.04651162790697,
          "velocity": 0.28346456692913385
        },
        {
          "duration": 0.06976744186047057,
          "durationTicks": 6,
          "midi": 89,
          "name": "F6",
          "ticks": 3874,
          "time": 45.04651162790697,
          "velocity": 0.28346456692913385
        },
        {
          "duration": 0.011627906976741542,
          "durationTicks": 1,
          "midi": 51,
          "name": "D#3",
          "ticks": 3875,
          "time": 45.05813953488372,
          "velocity": 0.5196850393700787
        },
        {
          "duration": 0.06976744186046346,
          "durationTicks": 6,
          "midi": 63,
          "name": "D#4",
          "ticks": 3875,
          "time": 45.05813953488372,
          "velocity": 0.5905511811023622
        },
        {
          "duration": 0.011627906976748648,
          "durationTicks": 1,
          "midi": 53,
          "name": "F3",
          "ticks": 3876,
          "time": 45.06976744186046,
          "velocity": 0.5354330708661418
        },
        {
          "duration": 0.011627906976741542,
          "durationTicks": 1,
          "midi": 51,
          "name": "D#3",
          "ticks": 3877,
          "time": 45.08139534883721,
          "velocity": 0.5826771653543307
        },
        {
          "duration": 0.011627906976741542,
          "durationTicks": 1,
          "midi": 52,
          "name": "E3",
          "ticks": 3878,
          "time": 45.093023255813954,
          "velocity": 0.5669291338582677
        },
        {
          "duration": 0.06976744186047057,
          "durationTicks": 6,
          "midi": 51,
          "name": "D#3",
          "ticks": 3879,
          "time": 45.104651162790695,
          "velocity": 0.5984251968503937
        },
        {
          "duration": 0.05813953488372192,
          "durationTicks": 5,
          "midi": 89,
          "name": "F6",
          "ticks": 3881,
          "time": 45.127906976744185,
          "velocity": 0.25984251968503935
        },
        {
          "duration": 0.03488372093023173,
          "durationTicks": 3,
          "midi": 82,
          "name": "A#5",
          "ticks": 3884,
          "time": 45.16279069767442,
          "velocity": 0.13385826771653545
        },
        {
          "duration": 0.011627906976741542,
          "durationTicks": 1,
          "midi": 52,
          "name": "E3",
          "ticks": 3885,
          "time": 45.174418604651166,
          "velocity": 0.6220472440944882
        },
        {
          "duration": 0.12790697674418539,
          "durationTicks": 11,
          "midi": 84,
          "name": "C6",
          "ticks": 3885,
          "time": 45.174418604651166,
          "velocity": 0.25196850393700787
        },
        {
          "duration": 0.1046511627906952,
          "durationTicks": 9,
          "midi": 53,
          "name": "F3",
          "ticks": 3886,
          "time": 45.18604651162791,
          "velocity": 0.5748031496062992
        },
        {
          "duration": 0.13953488372092693,
          "durationTicks": 12,
          "midi": 83,
          "name": "B5",
          "ticks": 3893,
          "time": 45.26744186046512,
          "velocity": 0.3543307086614173
        },
        {
          "duration": 0.03488372093023173,
          "durationTicks": 3,
          "midi": 87,
          "name": "D#6",
          "ticks": 3893,
          "time": 45.26744186046512,
          "velocity": 0.13385826771653545
        },
        {
          "duration": 0.011627906976741542,
          "durationTicks": 1,
          "midi": 64,
          "name": "E4",
          "ticks": 3894,
          "time": 45.27906976744186,
          "velocity": 0.5590551181102362
        },
        {
          "duration": 0.22093023255813904,
          "durationTicks": 19,
          "midi": 67,
          "name": "G4",
          "ticks": 3894,
          "time": 45.27906976744186,
          "velocity": 0.5984251968503937
        },
        {
          "duration": 0.13953488372092693,
          "durationTicks": 12,
          "midi": 74,
          "name": "D5",
          "ticks": 3894,
          "time": 45.27906976744186,
          "velocity": 0.47244094488188976
        },
        {
          "duration": 0.13953488372092693,
          "durationTicks": 12,
          "midi": 77,
          "name": "F5",
          "ticks": 3894,
          "time": 45.27906976744186,
          "velocity": 0.2125984251968504
        },
        {
          "duration": 0.13953488372092693,
          "durationTicks": 12,
          "midi": 89,
          "name": "F6",
          "ticks": 3894,
          "time": 45.27906976744186,
          "velocity": 0.3700787401574803
        },
        {
          "duration": 0.12790697674418539,
          "durationTicks": 11,
          "midi": 91,
          "name": "G6",
          "ticks": 3894,
          "time": 45.27906976744186,
          "velocity": 0.2677165354330709
        },
        {
          "duration": 0.011627906976748648,
          "durationTicks": 1,
          "midi": 44,
          "name": "G#2",
          "ticks": 3895,
          "time": 45.2906976744186,
          "velocity": 0.5196850393700787
        },
        {
          "duration": 0.13953488372093403,
          "durationTicks": 12,
          "midi": 63,
          "name": "D#4",
          "ticks": 3895,
          "time": 45.2906976744186,
          "velocity": 0.6141732283464567
        },
        {
          "duration": 0.011627906976741542,
          "durationTicks": 1,
          "midi": 45,
          "name": "A2",
          "ticks": 3896,
          "time": 45.30232558139535,
          "velocity": 0.5669291338582677
        },
        {
          "duration": 0.03488372093023173,
          "durationTicks": 3,
          "midi": 58,
          "name": "A#3",
          "ticks": 3896,
          "time": 45.30232558139535,
          "velocity": 0.5118110236220472
        },
        {
          "duration": 0.08139534883721211,
          "durationTicks": 7,
          "midi": 46,
          "name": "A#2",
          "ticks": 3897,
          "time": 45.31395348837209,
          "velocity": 0.5826771653543307
        },
        {
          "duration": 0.02325581395349019,
          "durationTicks": 2,
          "midi": 55,
          "name": "G3",
          "ticks": 3897,
          "time": 45.31395348837209,
          "velocity": 0.5196850393700787
        },
        {
          "duration": 0.011627906976741542,
          "durationTicks": 1,
          "midi": 57,
          "name": "A3",
          "ticks": 3899,
          "time": 45.33720930232558,
          "velocity": 0.5433070866141733
        },
        {
          "duration": 0.05813953488372192,
          "durationTicks": 5,
          "midi": 93,
          "name": "A6",
          "ticks": 3899,
          "time": 45.33720930232558,
          "velocity": 0.12598425196850394
        },
        {
          "duration": 0.011627906976748648,
          "durationTicks": 1,
          "midi": 55,
          "name": "G3",
          "ticks": 3900,
          "time": 45.348837209302324,
          "velocity": 0.5118110236220472
        },
        {
          "duration": 0.011627906976741542,
          "durationTicks": 1,
          "midi": 56,
          "name": "G#3",
          "ticks": 3901,
          "time": 45.36046511627907,
          "velocity": 0.5275590551181102
        },
        {
          "duration": 0.02325581395349019,
          "durationTicks": 2,
          "midi": 55,
          "name": "G3",
          "ticks": 3902,
          "time": 45.372093023255815,
          "velocity": 0.5275590551181102
        },
        {
          "duration": 0.011627906976741542,
          "durationTicks": 1,
          "midi": 45,
          "name": "A2",
          "ticks": 3904,
          "time": 45.395348837209305,
          "velocity": 0.5433070866141733
        },
        {
          "duration": 0.011627906976741542,
          "durationTicks": 1,
          "midi": 44,
          "name": "G#2",
          "ticks": 3905,
          "time": 45.406976744186046,
          "velocity": 0.5433070866141733
        },
        {
          "duration": 0.09302325581395365,
          "durationTicks": 8,
          "midi": 48,
          "name": "C3",
          "ticks": 3906,
          "time": 45.41860465116279,
          "velocity": 0.6535433070866141
        },
        {
          "duration": 0.03488372093023173,
          "durationTicks": 3,
          "midi": 55,
          "name": "G3",
          "ticks": 3908,
          "time": 45.44186046511628,
          "velocity": 0.14960629921259844
        },
        {
          "duration": 0.03488372093023173,
          "durationTicks": 3,
          "midi": 83,
          "name": "B5",
          "ticks": 3913,
          "time": 45.5,
          "velocity": 0.1889763779527559
        },
        {
          "duration": 0.03488372093023173,
          "durationTicks": 3,
          "midi": 84,
          "name": "C6",
          "ticks": 3913,
          "time": 45.5,
          "velocity": 0.1968503937007874
        },
        {
          "duration": 0.03488372093023173,
          "durationTicks": 3,
          "midi": 87,
          "name": "D#6",
          "ticks": 3913,
          "time": 45.5,
          "velocity": 0.1968503937007874
        },
        {
          "duration": 0.03488372093023173,
          "durationTicks": 3,
          "midi": 89,
          "name": "F6",
          "ticks": 3913,
          "time": 45.5,
          "velocity": 0.2125984251968504
        },
        {
          "duration": 0.011627906976748648,
          "durationTicks": 1,
          "midi": 49,
          "name": "C#3",
          "ticks": 3914,
          "time": 45.51162790697674,
          "velocity": 0.5511811023622047
        },
        {
          "duration": 0.09302325581395365,
          "durationTicks": 8,
          "midi": 65,
          "name": "F4",
          "ticks": 3914,
          "time": 45.51162790697674,
          "velocity": 0.6377952755905512
        },
        {
          "duration": 0.13953488372093403,
          "durationTicks": 12,
          "midi": 74,
          "name": "D5",
          "ticks": 3914,
          "time": 45.51162790697674,
          "velocity": 0.2677165354330709
        },
        {
          "duration": 0.011627906976741542,
          "durationTicks": 1,
          "midi": 52,
          "name": "E3",
          "ticks": 3916,
          "time": 45.53488372093023,
          "velocity": 0.5590551181102362
        },
        {
          "duration": 0.09302325581395365,
          "durationTicks": 8,
          "midi": 51,
          "name": "D#3",
          "ticks": 3917,
          "time": 45.54651162790697,
          "velocity": 0.5984251968503937
        },
        {
          "duration": 0.03488372093023173,
          "durationTicks": 3,
          "midi": 77,
          "name": "F5",
          "ticks": 3923,
          "time": 45.616279069767444,
          "velocity": 0.15748031496062992
        },
        {
          "duration": 0.03488372093023173,
          "durationTicks": 3,
          "midi": 79,
          "name": "G5",
          "ticks": 3923,
          "time": 45.616279069767444,
          "velocity": 0.16535433070866143
        },
        {
          "duration": 0.02325581395349019,
          "durationTicks": 2,
          "midi": 64,
          "name": "E4",
          "ticks": 3924,
          "time": 45.627906976744185,
          "velocity": 0.5905511811023622
        },
        {
          "duration": 0.11627906976744384,
          "durationTicks": 10,
          "midi": 72,
          "name": "C5",
          "ticks": 3924,
          "time": 45.627906976744185,
          "velocity": 0.2047244094488189
        },
        {
          "duration": 0.011627906976748648,
          "durationTicks": 1,
          "midi": 52,
          "name": "E3",
          "ticks": 3925,
          "time": 45.63953488372093,
          "velocity": 0.5984251968503937
        },
        {
          "duration": 0.1046511627906952,
          "durationTicks": 9,
          "midi": 53,
          "name": "F3",
          "ticks": 3926,
          "time": 45.651162790697676,
          "velocity": 0.5669291338582677
        },
        {
          "duration": 0.06976744186046346,
          "durationTicks": 6,
          "midi": 63,
          "name": "D#4",
          "ticks": 3926,
          "time": 45.651162790697676,
          "velocity": 0.5511811023622047
        },
        {
          "duration": 0.16279069767441712,
          "durationTicks": 14,
          "midi": 67,
          "name": "G4",
          "ticks": 3934,
          "time": 45.74418604651163,
          "velocity": 0.3700787401574803
        },
        {
          "duration": 0.011627906976748648,
          "durationTicks": 1,
          "midi": 54,
          "name": "F#3",
          "ticks": 3935,
          "time": 45.75581395348837,
          "velocity": 0.5511811023622047
        },
        {
          "duration": 0.03488372093023173,
          "durationTicks": 3,
          "midi": 63,
          "name": "D#4",
          "ticks": 3935,
          "time": 45.75581395348837,
          "velocity": 0.1968503937007874
        },
        {
          "duration": 0.19767441860464885,
          "durationTicks": 17,
          "midi": 55,
          "name": "G3",
          "ticks": 3936,
          "time": 45.76744186046512,
          "velocity": 0.5590551181102362
        },
        {
          "duration": 0.08139534883721211,
          "durationTicks": 7,
          "midi": 48,
          "name": "C3",
          "ticks": 3946,
          "time": 45.883720930232556,
          "velocity": 0.11023622047244094
        },
        {
          "duration": 0.13953488372092693,
          "durationTicks": 12,
          "midi": 75,
          "name": "D#5",
          "ticks": 3953,
          "time": 45.96511627906977,
          "velocity": 0.2677165354330709
        },
        {
          "duration": 0.13953488372092693,
          "durationTicks": 12,
          "midi": 79,
          "name": "G5",
          "ticks": 3953,
          "time": 45.96511627906977,
          "velocity": 0.3228346456692913
        },
        {
          "duration": 0.13953488372092693,
          "durationTicks": 12,
          "midi": 85,
          "name": "C#6",
          "ticks": 3953,
          "time": 45.96511627906977,
          "velocity": 0.30708661417322836
        },
        {
          "duration": 0.13953488372092693,
          "durationTicks": 12,
          "midi": 87,
          "name": "D#6",
          "ticks": 3953,
          "time": 45.96511627906977,
          "velocity": 0.3228346456692913
        },
        {
          "duration": 0.046511627906973274,
          "durationTicks": 4,
          "midi": 89,
          "name": "F6",
          "ticks": 3953,
          "time": 45.96511627906977,
          "velocity": 0.1889763779527559
        },
        {
          "duration": 0.30232558139535115,
          "durationTicks": 26,
          "midi": 55,
          "name": "G3",
          "ticks": 3954,
          "time": 45.97674418604651,
          "velocity": 0.6220472440944882
        },
        {
          "duration": 0.16279069767441712,
          "durationTicks": 14,
          "midi": 63,
          "name": "D#4",
          "ticks": 3954,
          "time": 45.97674418604651,
          "velocity": 0.5826771653543307
        },
        {
          "duration": 0.17441860465116577,
          "durationTicks": 15,
          "midi": 86,
          "name": "D6",
          "ticks": 3954,
          "time": 45.97674418604651,
          "velocity": 0.2677165354330709
        },
        {
          "duration": 0.023255813953483084,
          "durationTicks": 2,
          "midi": 29,
          "name": "F1",
          "ticks": 3955,
          "time": 45.98837209302326,
          "velocity": 0.3228346456692913
        },
        {
          "duration": 0.011627906976741542,
          "durationTicks": 1,
          "midi": 50,
          "name": "D3",
          "ticks": 3955,
          "time": 45.98837209302326,
          "velocity": 0.5118110236220472
        },
        {
          "duration": 0.12790697674418539,
          "durationTicks": 11,
          "midi": 70,
          "name": "A#4",
          "ticks": 3955,
          "time": 45.98837209302326,
          "velocity": 0.4330708661417323
        },
        {
          "duration": 0.04651162790698038,
          "durationTicks": 4,
          "midi": 89,
          "name": "F6",
          "ticks": 3960,
          "time": 46.04651162790697,
          "velocity": 0.07086614173228346
        },
        {
          "duration": 0.02325581395349019,
          "durationTicks": 2,
          "midi": 51,
          "name": "D#3",
          "ticks": 3961,
          "time": 46.05813953488372,
          "velocity": 0.5039370078740157
        },
        {
          "duration": 0.15116279069767558,
          "durationTicks": 13,
          "midi": 75,
          "name": "D#5",
          "ticks": 3973,
          "time": 46.19767441860465,
          "velocity": 0.4409448818897638
        },
        {
          "duration": 0.15116279069767558,
          "durationTicks": 13,
          "midi": 84,
          "name": "C6",
          "ticks": 3973,
          "time": 46.19767441860465,
          "velocity": 0.4015748031496063
        },
        {
          "duration": 0.12790697674418539,
          "durationTicks": 11,
          "midi": 63,
          "name": "D#4",
          "ticks": 3974,
          "time": 46.2093023255814,
          "velocity": 0.5826771653543307
        },
        {
          "duration": 0.13953488372092693,
          "durationTicks": 12,
          "midi": 68,
          "name": "G#4",
          "ticks": 3974,
          "time": 46.2093023255814,
          "velocity": 0.5905511811023622
        },
        {
          "duration": 0.1046511627907023,
          "durationTicks": 9,
          "midi": 92,
          "name": "G#6",
          "ticks": 3976,
          "time": 46.23255813953488,
          "velocity": 0.23622047244094488
        },
        {
          "duration": 0.02325581395349019,
          "durationTicks": 2,
          "midi": 89,
          "name": "F6",
          "ticks": 3977,
          "time": 46.24418604651163,
          "velocity": 0.2283464566929134
        },
        {
          "duration": 0.06976744186046346,
          "durationTicks": 6,
          "midi": 90,
          "name": "F#6",
          "ticks": 3979,
          "time": 46.26744186046512,
          "velocity": 0.3543307086614173
        },
        {
          "duration": 0.02325581395349019,
          "durationTicks": 2,
          "midi": 54,
          "name": "F#3",
          "ticks": 3980,
          "time": 46.27906976744186,
          "velocity": 0.47244094488188976
        },
        {
          "duration": 0.13953488372092693,
          "durationTicks": 12,
          "midi": 55,
          "name": "G3",
          "ticks": 3982,
          "time": 46.30232558139535,
          "velocity": 0.5984251968503937
        },
        {
          "duration": 0.13953488372092693,
          "durationTicks": 12,
          "midi": 73,
          "name": "C#5",
          "ticks": 3993,
          "time": 46.43023255813954,
          "velocity": 0.4330708661417323
        },
        {
          "duration": 0.13953488372092693,
          "durationTicks": 12,
          "midi": 82,
          "name": "A#5",
          "ticks": 3993,
          "time": 46.43023255813954,
          "velocity": 0.3464566929133858
        },
        {
          "duration": 0.02325581395349019,
          "durationTicks": 2,
          "midi": 51,
          "name": "D#3",
          "ticks": 3994,
          "time": 46.44186046511628,
          "velocity": 0.4566929133858268
        },
        {
          "duration": 0.02325581395349019,
          "durationTicks": 2,
          "midi": 62,
          "name": "D4",
          "ticks": 3994,
          "time": 46.44186046511628,
          "velocity": 0.25196850393700787
        },
        {
          "duration": 0.12790697674418539,
          "durationTicks": 11,
          "midi": 78,
          "name": "F#5",
          "ticks": 3994,
          "time": 46.44186046511628,
          "velocity": 0.25984251968503935
        },
        {
          "duration": 0.12790697674418539,
          "durationTicks": 11,
          "midi": 88,
          "name": "E6",
          "ticks": 3994,
          "time": 46.44186046511628,
          "velocity": 0.4094488188976378
        },
        {
          "duration": 0.12790697674418539,
          "durationTicks": 11,
          "midi": 90,
          "name": "F#6",
          "ticks": 3994,
          "time": 46.44186046511628,
          "velocity": 0.28346456692913385
        },
        {
          "duration": 0.1046511627906952,
          "durationTicks": 9,
          "midi": 66,
          "name": "F#4",
          "ticks": 3995,
          "time": 46.45348837209303,
          "velocity": 0.6141732283464567
        },
        {
          "duration": 0.03488372093023173,
          "durationTicks": 3,
          "midi": 84,
          "name": "C6",
          "ticks": 3995,
          "time": 46.45348837209303,
          "velocity": 0.09448818897637795
        },
        {
          "duration": 0.046511627906973274,
          "durationTicks": 4,
          "midi": 75,
          "name": "D#5",
          "ticks": 3996,
          "time": 46.46511627906977,
          "velocity": 0.07086614173228346
        },
        {
          "duration": 0.08139534883721211,
          "durationTicks": 7,
          "midi": 53,
          "name": "F3",
          "ticks": 3997,
          "time": 46.47674418604651,
          "velocity": 0.5984251968503937
        },
        {
          "duration": 0.02325581395349019,
          "durationTicks": 2,
          "midi": 70,
          "name": "A#4",
          "ticks": 4002,
          "time": 46.53488372093023,
          "velocity": 0.28346456692913385
        },
        {
          "duration": 0.03488372093023173,
          "durationTicks": 3,
          "midi": 75,
          "name": "D#5",
          "ticks": 4002,
          "time": 46.53488372093023,
          "velocity": 0.2125984251968504
        },
        {
          "duration": 0.011627906976748648,
          "durationTicks": 1,
          "midi": 64,
          "name": "E4",
          "ticks": 4003,
          "time": 46.54651162790697,
          "velocity": 0.5196850393700787
        },
        {
          "duration": 0.30232558139535115,
          "durationTicks": 26,
          "midi": 63,
          "name": "D#4",
          "ticks": 4004,
          "time": 46.55813953488372,
          "velocity": 0.6141732283464567
        },
        {
          "duration": 0.03488372093023173,
          "durationTicks": 3,
          "midi": 53,
          "name": "F3",
          "ticks": 4005,
          "time": 46.56976744186046,
          "velocity": 0.3700787401574803
        },
        {
          "duration": 0.046511627906973274,
          "durationTicks": 4,
          "midi": 55,
          "name": "G3",
          "ticks": 4009,
          "time": 46.616279069767444,
          "velocity": 0.16535433070866143
        },
        {
          "duration": 0.02325581395349019,
          "durationTicks": 2,
          "midi": 69,
          "name": "A4",
          "ticks": 4012,
          "time": 46.651162790697676,
          "velocity": 0.3543307086614173
        },
        {
          "duration": 0.2325581395348877,
          "durationTicks": 20,
          "midi": 79,
          "name": "G5",
          "ticks": 4013,
          "time": 46.66279069767442,
          "velocity": 0.30708661417322836
        },
        {
          "duration": 0.13953488372093403,
          "durationTicks": 12,
          "midi": 87,
          "name": "D#6",
          "ticks": 4013,
          "time": 46.66279069767442,
          "velocity": 0.28346456692913385
        },
        {
          "duration": 0.011627906976741542,
          "durationTicks": 1,
          "midi": 50,
          "name": "D3",
          "ticks": 4014,
          "time": 46.674418604651166,
          "velocity": 0.5118110236220472
        },
        {
          "duration": 0.12790697674418539,
          "durationTicks": 11,
          "midi": 70,
          "name": "A#4",
          "ticks": 4014,
          "time": 46.674418604651166,
          "velocity": 0.44881889763779526
        },
        {
          "duration": 0.12790697674418539,
          "durationTicks": 11,
          "midi": 85,
          "name": "C#6",
          "ticks": 4014,
          "time": 46.674418604651166,
          "velocity": 0.23622047244094488
        },
        {
          "duration": 0.03488372093023173,
          "durationTicks": 3,
          "midi": 88,
          "name": "E6",
          "ticks": 4014,
          "time": 46.674418604651166,
          "velocity": 0.09448818897637795
        },
        {
          "duration": 0.046511627906973274,
          "durationTicks": 4,
          "midi": 89,
          "name": "F6",
          "ticks": 4014,
          "time": 46.674418604651166,
          "velocity": 0.08661417322834646
        },
        {
          "duration": 0.17441860465116577,
          "durationTicks": 15,
          "midi": 51,
          "name": "D#3",
          "ticks": 4015,
          "time": 46.68604651162791,
          "velocity": 0.5984251968503937
        },
        {
          "duration": 0.03488372093023173,
          "durationTicks": 3,
          "midi": 66,
          "name": "F#4",
          "ticks": 4018,
          "time": 46.72093023255814,
          "velocity": 0.1732283464566929
        },
        {
          "duration": 0.02325581395349019,
          "durationTicks": 2,
          "midi": 64,
          "name": "E4",
          "ticks": 4032,
          "time": 46.883720930232556,
          "velocity": 0.5039370078740157
        },
        {
          "duration": 0.15116279069767558,
          "durationTicks": 13,
          "midi": 77,
          "name": "F5",
          "ticks": 4032,
          "time": 46.883720930232556,
          "velocity": 0.29133858267716534
        },
        {
          "duration": 0.03488372093023173,
          "durationTicks": 3,
          "midi": 70,
          "name": "A#4",
          "ticks": 4033,
          "time": 46.895348837209305,
          "velocity": 0.2440944881889764
        },
        {
          "duration": 0.12790697674418539,
          "durationTicks": 11,
          "midi": 73,
          "name": "C#5",
          "ticks": 4033,
          "time": 46.895348837209305,
          "velocity": 0.25196850393700787
        },
        {
          "duration": 0.12790697674418539,
          "durationTicks": 11,
          "midi": 83,
          "name": "B5",
          "ticks": 4033,
          "time": 46.895348837209305,
          "velocity": 0.1968503937007874
        },
        {
          "duration": 0.03488372093023173,
          "durationTicks": 3,
          "midi": 63,
          "name": "D#4",
          "ticks": 4034,
          "time": 46.906976744186046,
          "velocity": 0.6456692913385826
        },
        {
          "duration": 0.13953488372092693,
          "durationTicks": 12,
          "midi": 68,
          "name": "G#4",
          "ticks": 4034,
          "time": 46.906976744186046,
          "velocity": 0.48031496062992124
        },
        {
          "duration": 0.16279069767441712,
          "durationTicks": 14,
          "midi": 79,
          "name": "G5",
          "ticks": 4034,
          "time": 46.906976744186046,
          "velocity": 0.29133858267716534
        },
        {
          "duration": 0.04651162790698038,
          "durationTicks": 4,
          "midi": 93,
          "name": "A6",
          "ticks": 4034,
          "time": 46.906976744186046,
          "velocity": 0.09448818897637795
        },
        {
          "duration": 0.03488372093023884,
          "durationTicks": 3,
          "midi": 47,
          "name": "B2",
          "ticks": 4035,
          "time": 46.91860465116279,
          "velocity": 0.4881889763779528
        },
        {
          "duration": 0.09302325581395365,
          "durationTicks": 8,
          "midi": 61,
          "name": "C#4",
          "ticks": 4036,
          "time": 46.93023255813954,
          "velocity": 0.6220472440944882
        },
        {
          "duration": 0.13953488372092693,
          "durationTicks": 12,
          "midi": 48,
          "name": "C3",
          "ticks": 4038,
          "time": 46.95348837209303,
          "velocity": 0.6692913385826772
        },
        {
          "duration": 0.06976744186046346,
          "durationTicks": 6,
          "midi": 87,
          "name": "D#6",
          "ticks": 4038,
          "time": 46.95348837209303,
          "velocity": 0.13385826771653545
        },
        {
          "duration": 0.058139534883714816,
          "durationTicks": 5,
          "midi": 92,
          "name": "G#6",
          "ticks": 4038,
          "time": 46.95348837209303,
          "velocity": 0.07874015748031496
        },
        {
          "duration": 0.03488372093023884,
          "durationTicks": 3,
          "midi": 63,
          "name": "D#4",
          "ticks": 4046,
          "time": 47.04651162790697,
          "velocity": 0.12598425196850394
        },
        {
          "duration": 0.03488372093023173,
          "durationTicks": 3,
          "midi": 60,
          "name": "C4",
          "ticks": 4052,
          "time": 47.116279069767444,
          "velocity": 0.5196850393700787
        },
        {
          "duration": 0.023255813953483084,
          "durationTicks": 2,
          "midi": 67,
          "name": "G4",
          "ticks": 4052,
          "time": 47.116279069767444,
          "velocity": 0.3937007874015748
        },
        {
          "duration": 0.023255813953483084,
          "durationTicks": 2,
          "midi": 74,
          "name": "D5",
          "ticks": 4052,
          "time": 47.116279069767444,
          "velocity": 0.2440944881889764
        },
        {
          "duration": 0.03488372093023173,
          "durationTicks": 3,
          "midi": 75,
          "name": "D#5",
          "ticks": 4052,
          "time": 47.116279069767444,
          "velocity": 0.2283464566929134
        },
        {
          "duration": 0.15116279069767558,
          "durationTicks": 13,
          "midi": 77,
          "name": "F5",
          "ticks": 4052,
          "time": 47.116279069767444,
          "velocity": 0.2992125984251969
        },
        {
          "duration": 0.02325581395349019,
          "durationTicks": 2,
          "midi": 64,
          "name": "E4",
          "ticks": 4053,
          "time": 47.127906976744185,
          "velocity": 0.5275590551181102
        },
        {
          "duration": 0.04651162790698038,
          "durationTicks": 4,
          "midi": 83,
          "name": "B5",
          "ticks": 4053,
          "time": 47.127906976744185,
          "velocity": 0.16535433070866143
        },
        {
          "duration": 0.06976744186046346,
          "durationTicks": 6,
          "midi": 85,
          "name": "C#6",
          "ticks": 4053,
          "time": 47.127906976744185,
          "velocity": 0.2047244094488189
        },
        {
          "duration": 0.03488372093023884,
          "durationTicks": 3,
          "midi": 50,
          "name": "D3",
          "ticks": 4054,
          "time": 47.13953488372093,
          "velocity": 0.6299212598425197
        },
        {
          "duration": 0.13953488372093403,
          "durationTicks": 12,
          "midi": 68,
          "name": "G#4",
          "ticks": 4054,
          "time": 47.13953488372093,
          "velocity": 0.4566929133858268
        },
        {
          "duration": 0.11627906976744384,
          "durationTicks": 10,
          "midi": 73,
          "name": "C#5",
          "ticks": 4054,
          "time": 47.13953488372093,
          "velocity": 0.2283464566929134
        },
        {
          "duration": 0.1046511627906952,
          "durationTicks": 9,
          "midi": 61,
          "name": "C#4",
          "ticks": 4055,
          "time": 47.151162790697676,
          "velocity": 0.6062992125984252
        },
        {
          "duration": 0.1046511627907023,
          "durationTicks": 9,
          "midi": 82,
          "name": "A#5",
          "ticks": 4056,
          "time": 47.16279069767442,
          "velocity": 0.2283464566929134
        },
        {
          "duration": 0.023255813953483084,
          "durationTicks": 2,
          "midi": 51,
          "name": "D#3",
          "ticks": 4057,
          "time": 47.174418604651166,
          "velocity": 0.5905511811023622
        },
        {
          "duration": 0.02325581395349019,
          "durationTicks": 2,
          "midi": 50,
          "name": "D3",
          "ticks": 4059,
          "time": 47.19767441860465,
          "velocity": 0.6456692913385826
        },
        {
          "duration": 0.03488372093023173,
          "durationTicks": 3,
          "midi": 87,
          "name": "D#6",
          "ticks": 4060,
          "time": 47.2093023255814,
          "velocity": 0.10236220472440945
        },
        {
          "duration": 0.03488372093023173,
          "durationTicks": 3,
          "midi": 51,
          "name": "D#3",
          "ticks": 4061,
          "time": 47.22093023255814,
          "velocity": 0.5590551181102362
        },
        {
          "duration": 0.011627906976748648,
          "durationTicks": 1,
          "midi": 50,
          "name": "D3",
          "ticks": 4064,
          "time": 47.25581395348837,
          "velocity": 0.5354330708661418
        },
        {
          "duration": 0.058139534883714816,
          "durationTicks": 5,
          "midi": 51,
          "name": "D#3",
          "ticks": 4065,
          "time": 47.26744186046512,
          "velocity": 0.4330708661417323
        },
        {
          "duration": 0.13953488372093403,
          "durationTicks": 12,
          "midi": 85,
          "name": "C#6",
          "ticks": 4072,
          "time": 47.348837209302324,
          "velocity": 0.2283464566929134
        },
        {
          "duration": 0.011627906976741542,
          "durationTicks": 1,
          "midi": 44,
          "name": "G#2",
          "ticks": 4073,
          "time": 47.36046511627907,
          "velocity": 0.5275590551181102
        },
        {
          "duration": 0.011627906976741542,
          "durationTicks": 1,
          "midi": 66,
          "name": "F#4",
          "ticks": 4073,
          "time": 47.36046511627907,
          "velocity": 0.5433070866141733
        },
        {
          "duration": 0.11627906976743674,
          "durationTicks": 10,
          "midi": 73,
          "name": "C#5",
          "ticks": 4073,
          "time": 47.36046511627907,
          "velocity": 0.2677165354330709
        },
        {
          "duration": 0.11627906976743674,
          "durationTicks": 10,
          "midi": 77,
          "name": "F5",
          "ticks": 4073,
          "time": 47.36046511627907,
          "velocity": 0.2992125984251969
        },
        {
          "duration": 0.15116279069766847,
          "durationTicks": 13,
          "midi": 79,
          "name": "G5",
          "ticks": 4073,
          "time": 47.36046511627907,
          "velocity": 0.2677165354330709
        },
        {
          "duration": 0.12790697674418539,
          "durationTicks": 11,
          "midi": 83,
          "name": "B5",
          "ticks": 4073,
          "time": 47.36046511627907,
          "velocity": 0.2125984251968504
        },
        {
          "duration": 0.011627906976741542,
          "durationTicks": 1,
          "midi": 47,
          "name": "B2",
          "ticks": 4074,
          "time": 47.372093023255815,
          "velocity": 0.5826771653543307
        },
        {
          "duration": 0.1046511627906952,
          "durationTicks": 9,
          "midi": 61,
          "name": "C#4",
          "ticks": 4074,
          "time": 47.372093023255815,
          "velocity": 0.6299212598425197
        },
        {
          "duration": 0.1046511627906952,
          "durationTicks": 9,
          "midi": 65,
          "name": "F4",
          "ticks": 4074,
          "time": 47.372093023255815,
          "velocity": 0.6062992125984252
        },
        {
          "duration": 0.12790697674418539,
          "durationTicks": 11,
          "midi": 68,
          "name": "G#4",
          "ticks": 4074,
          "time": 47.372093023255815,
          "velocity": 0.5118110236220472
        },
        {
          "duration": 0.011627906976748648,
          "durationTicks": 1,
          "midi": 48,
          "name": "C3",
          "ticks": 4075,
          "time": 47.383720930232556,
          "velocity": 0.5354330708661418
        },
        {
          "duration": 0.023255813953483084,
          "durationTicks": 2,
          "midi": 47,
          "name": "B2",
          "ticks": 4076,
          "time": 47.395348837209305,
          "velocity": 0.5196850393700787
        },
        {
          "duration": 0.15116279069767558,
          "durationTicks": 13,
          "midi": 48,
          "name": "C3",
          "ticks": 4078,
          "time": 47.41860465116279,
          "velocity": 0.7007874015748031
        },
        {
          "duration": 0.05813953488372192,
          "durationTicks": 5,
          "midi": 92,
          "name": "G#6",
          "ticks": 4078,
          "time": 47.41860465116279,
          "velocity": 0.07874015748031496
        },
        {
          "duration": 0.05813953488372192,
          "durationTicks": 5,
          "midi": 87,
          "name": "D#6",
          "ticks": 4080,
          "time": 47.44186046511628,
          "velocity": 0.2440944881889764
        },
        {
          "duration": 0.011627906976748648,
          "durationTicks": 1,
          "midi": 62,
          "name": "D4",
          "ticks": 4083,
          "time": 47.47674418604651,
          "velocity": 0.6220472440944882
        },
        {
          "duration": 0.1046511627906952,
          "durationTicks": 9,
          "midi": 63,
          "name": "D#4",
          "ticks": 4084,
          "time": 47.48837209302326,
          "velocity": 0.6220472440944882
        },
        {
          "duration": 0.023255813953483084,
          "durationTicks": 2,
          "midi": 52,
          "name": "E3",
          "ticks": 4092,
          "time": 47.58139534883721,
          "velocity": 0.4251968503937008
        },
        {
          "duration": 0.15116279069766847,
          "durationTicks": 13,
          "midi": 73,
          "name": "C#5",
          "ticks": 4092,
          "time": 47.58139534883721,
          "velocity": 0.4330708661417323
        },
        {
          "duration": 0.16279069767441712,
          "durationTicks": 14,
          "midi": 58,
          "name": "A#3",
          "ticks": 4093,
          "time": 47.593023255813954,
          "velocity": 0.5275590551181102
        },
        {
          "duration": 0.17441860465116577,
          "durationTicks": 15,
          "midi": 66,
          "name": "F#4",
          "ticks": 4093,
          "time": 47.593023255813954,
          "velocity": 0.5984251968503937
        },
        {
          "duration": 0.13953488372092693,
          "durationTicks": 12,
          "midi": 82,
          "name": "A#5",
          "ticks": 4093,
          "time": 47.593023255813954,
          "velocity": 0.29133858267716534
        },
        {
          "duration": 0.03488372093023173,
          "durationTicks": 3,
          "midi": 87,
          "name": "D#6",
          "ticks": 4093,
          "time": 47.593023255813954,
          "velocity": 0.2283464566929134
        },
        {
          "duration": 0.011627906976748648,
          "durationTicks": 1,
          "midi": 44,
          "name": "G#2",
          "ticks": 4094,
          "time": 47.604651162790695,
          "velocity": 0.5433070866141733
        },
        {
          "duration": 0.11627906976744384,
          "durationTicks": 10,
          "midi": 90,
          "name": "F#6",
          "ticks": 4094,
          "time": 47.604651162790695,
          "velocity": 0.23622047244094488
        },
        {
          "duration": 0.011627906976741542,
          "durationTicks": 1,
          "midi": 45,
          "name": "A2",
          "ticks": 4095,
          "time": 47.616279069767444,
          "velocity": 0.5748031496062992
        },
        {
          "duration": 0.03488372093023173,
          "durationTicks": 3,
          "midi": 54,
          "name": "F#3",
          "ticks": 4095,
          "time": 47.616279069767444,
          "velocity": 0.47244094488188976
        },
        {
          "duration": 0.16279069767441712,
          "durationTicks": 14,
          "midi": 46,
          "name": "A#2",
          "ticks": 4096,
          "time": 47.627906976744185,
          "velocity": 0.5826771653543307
        },
        {
          "duration": 0.09302325581395365,
          "durationTicks": 8,
          "midi": 88,
          "name": "E6",
          "ticks": 4096,
          "time": 47.627906976744185,
          "velocity": 0.25984251968503935
        },
        {
          "duration": 0.04651162790698038,
          "durationTicks": 4,
          "midi": 54,
          "name": "F#3",
          "ticks": 4099,
          "time": 47.66279069767442,
          "velocity": 0.4566929133858268
        },
        {
          "duration": 0.03488372093023173,
          "durationTicks": 3,
          "midi": 77,
          "name": "F5",
          "ticks": 4102,
          "time": 47.69767441860465,
          "velocity": 0.18110236220472442
        },
        {
          "duration": 0.02325581395349019,
          "durationTicks": 2,
          "midi": 39,
          "name": "D#2",
          "ticks": 4112,
          "time": 47.81395348837209,
          "velocity": 0.49606299212598426
        },
        {
          "duration": 0.7093023255813975,
          "durationTicks": 61,
          "midi": 70,
          "name": "A#4",
          "ticks": 4112,
          "time": 47.81395348837209,
          "velocity": 0.5748031496062992
        },
        {
          "duration": 0.720930232558139,
          "durationTicks": 62,
          "midi": 77,
          "name": "F5",
          "ticks": 4112,
          "time": 47.81395348837209,
          "velocity": 0.47244094488188976
        },
        {
          "duration": 0.48837209302325846,
          "durationTicks": 42,
          "midi": 86,
          "name": "D6",
          "ticks": 4112,
          "time": 47.81395348837209,
          "velocity": 0.49606299212598426
        },
        {
          "duration": 0.17441860465116577,
          "durationTicks": 15,
          "midi": 63,
          "name": "D#4",
          "ticks": 4113,
          "time": 47.825581395348834,
          "velocity": 0.6141732283464567
        },
        {
          "duration": 0.3720930232558146,
          "durationTicks": 32,
          "midi": 92,
          "name": "G#6",
          "ticks": 4113,
          "time": 47.825581395348834,
          "velocity": 0.3700787401574803
        },
        {
          "duration": 0.5930232558139537,
          "durationTicks": 51,
          "midi": 94,
          "name": "A#6",
          "ticks": 4113,
          "time": 47.825581395348834,
          "velocity": 0.31496062992125984
        },
        {
          "duration": 0.17441860465115866,
          "durationTicks": 15,
          "midi": 44,
          "name": "G#2",
          "ticks": 4114,
          "time": 47.83720930232558,
          "velocity": 0.6141732283464567
        },
        {
          "duration": 0.02325581395349019,
          "durationTicks": 2,
          "midi": 55,
          "name": "G3",
          "ticks": 4114,
          "time": 47.83720930232558,
          "velocity": 0.5433070866141733
        },
        {
          "duration": 0.08139534883721211,
          "durationTicks": 7,
          "midi": 96,
          "name": "C7",
          "ticks": 4115,
          "time": 47.848837209302324,
          "velocity": 0.1732283464566929
        },
        {
          "duration": 0.023255813953483084,
          "durationTicks": 2,
          "midi": 57,
          "name": "A3",
          "ticks": 4116,
          "time": 47.86046511627907,
          "velocity": 0.5905511811023622
        },
        {
          "duration": 0.05813953488372192,
          "durationTicks": 5,
          "midi": 73,
          "name": "C#5",
          "ticks": 4117,
          "time": 47.872093023255815,
          "velocity": 0.09448818897637795
        },
        {
          "duration": 0.023255813953483084,
          "durationTicks": 2,
          "midi": 57,
          "name": "A3",
          "ticks": 4119,
          "time": 47.895348837209305,
          "velocity": 0.5826771653543307
        },
        {
          "duration": 0.03488372093023173,
          "durationTicks": 3,
          "midi": 66,
          "name": "F#4",
          "ticks": 4119,
          "time": 47.895348837209305,
          "velocity": 0.1968503937007874
        },
        {
          "duration": 0.011627906976748648,
          "durationTicks": 1,
          "midi": 57,
          "name": "A3",
          "ticks": 4123,
          "time": 47.94186046511628,
          "velocity": 0.5433070866141733
        },
        {
          "duration": 0.11627906976743674,
          "durationTicks": 10,
          "midi": 58,
          "name": "A#3",
          "ticks": 4124,
          "time": 47.95348837209303,
          "velocity": 0.48031496062992124
        },
        {
          "duration": 0.03488372093023884,
          "durationTicks": 3,
          "midi": 79,
          "name": "G5",
          "ticks": 4132,
          "time": 48.04651162790697,
          "velocity": 0.18110236220472442
        },
        {
          "duration": 0.13953488372092693,
          "durationTicks": 12,
          "midi": 63,
          "name": "D#4",
          "ticks": 4133,
          "time": 48.05813953488372,
          "velocity": 0.6062992125984252
        },
        {
          "duration": 0.011627906976748648,
          "durationTicks": 1,
          "midi": 57,
          "name": "A3",
          "ticks": 4134,
          "time": 48.06976744186046,
          "velocity": 0.5354330708661418
        },
        {
          "duration": 0.04651162790698038,
          "durationTicks": 4,
          "midi": 73,
          "name": "C#5",
          "ticks": 4134,
          "time": 48.06976744186046,
          "velocity": 0.07874015748031496
        },
        {
          "duration": 0.046511627906973274,
          "durationTicks": 4,
          "midi": 55,
          "name": "G3",
          "ticks": 4135,
          "time": 48.08139534883721,
          "velocity": 0.5275590551181102
        },
        {
          "duration": 0.011627906976741542,
          "durationTicks": 1,
          "midi": 56,
          "name": "G#3",
          "ticks": 4139,
          "time": 48.127906976744185,
          "velocity": 0.5275590551181102
        },
        {
          "duration": 0.05813953488372192,
          "durationTicks": 5,
          "midi": 96,
          "name": "C7",
          "ticks": 4139,
          "time": 48.127906976744185,
          "velocity": 0.07086614173228346
        },
        {
          "duration": 0.03488372093023884,
          "durationTicks": 3,
          "midi": 45,
          "name": "A2",
          "ticks": 4140,
          "time": 48.13953488372093,
          "velocity": 0.1968503937007874
        },
        {
          "duration": 0.04651162790698038,
          "durationTicks": 4,
          "midi": 55,
          "name": "G3",
          "ticks": 4140,
          "time": 48.13953488372093,
          "velocity": 0.5433070866141733
        },
        {
          "duration": 0.011627906976741542,
          "durationTicks": 1,
          "midi": 56,
          "name": "G#3",
          "ticks": 4144,
          "time": 48.18604651162791,
          "velocity": 0.5196850393700787
        },
        {
          "duration": 0.1046511627906952,
          "durationTicks": 9,
          "midi": 87,
          "name": "D#6",
          "ticks": 4144,
          "time": 48.18604651162791,
          "velocity": 0.10236220472440945
        },
        {
          "duration": 0.02325581395349019,
          "durationTicks": 2,
          "midi": 57,
          "name": "A3",
          "ticks": 4145,
          "time": 48.19767441860465,
          "velocity": 0.5275590551181102
        },
        {
          "duration": 0.02325581395349019,
          "durationTicks": 2,
          "midi": 68,
          "name": "G#4",
          "ticks": 4145,
          "time": 48.19767441860465,
          "velocity": 0.31496062992125984
        },
        {
          "duration": 0.04651162790698038,
          "durationTicks": 4,
          "midi": 56,
          "name": "G#3",
          "ticks": 4147,
          "time": 48.22093023255814,
          "velocity": 0.5590551181102362
        },
        {
          "duration": 0.06976744186046346,
          "durationTicks": 6,
          "midi": 75,
          "name": "D#5",
          "ticks": 4147,
          "time": 48.22093023255814,
          "velocity": 0.10236220472440945
        },
        {
          "duration": 0.03488372093023884,
          "durationTicks": 3,
          "midi": 91,
          "name": "G6",
          "ticks": 4148,
          "time": 48.23255813953488,
          "velocity": 0.30708661417322836
        },
        {
          "duration": 0.15116279069766847,
          "durationTicks": 13,
          "midi": 92,
          "name": "G#6",
          "ticks": 4151,
          "time": 48.26744186046512,
          "velocity": 0.3543307086614173
        },
        {
          "duration": 0.02325581395349019,
          "durationTicks": 2,
          "midi": 56,
          "name": "G#3",
          "ticks": 4152,
          "time": 48.27906976744186,
          "velocity": 0.5590551181102362
        },
        {
          "duration": 0.13953488372092693,
          "durationTicks": 12,
          "midi": 73,
          "name": "C#5",
          "ticks": 4152,
          "time": 48.27906976744186,
          "velocity": 0.5039370078740157
        },
        {
          "duration": 0.13953488372092693,
          "durationTicks": 12,
          "midi": 80,
          "name": "G#5",
          "ticks": 4152,
          "time": 48.27906976744186,
          "velocity": 0.2992125984251969
        },
        {
          "duration": 0.13953488372092693,
          "durationTicks": 12,
          "midi": 88,
          "name": "E6",
          "ticks": 4152,
          "time": 48.27906976744186,
          "velocity": 0.2755905511811024
        },
        {
          "duration": 0.11627906976744384,
          "durationTicks": 10,
          "midi": 61,
          "name": "C#4",
          "ticks": 4153,
          "time": 48.2906976744186,
          "velocity": 0.6220472440944882
        },
        {
          "duration": 0.11627906976744384,
          "durationTicks": 10,
          "midi": 66,
          "name": "F#4",
          "ticks": 4153,
          "time": 48.2906976744186,
          "velocity": 0.5590551181102362
        },
        {
          "duration": 0.12790697674418539,
          "durationTicks": 11,
          "midi": 90,
          "name": "F#6",
          "ticks": 4153,
          "time": 48.2906976744186,
          "velocity": 0.2047244094488189
        },
        {
          "duration": 0.03488372093023173,
          "durationTicks": 3,
          "midi": 58,
          "name": "A#3",
          "ticks": 4154,
          "time": 48.30232558139535,
          "velocity": 0.49606299212598426
        },
        {
          "duration": 0.09302325581395365,
          "durationTicks": 8,
          "midi": 54,
          "name": "F#3",
          "ticks": 4155,
          "time": 48.31395348837209,
          "velocity": 0.4645669291338583
        },
        {
          "duration": 0.06976744186046346,
          "durationTicks": 6,
          "midi": 86,
          "name": "D6",
          "ticks": 4158,
          "time": 48.348837209302324,
          "velocity": 0.1889763779527559
        },
        {
          "duration": 0.2674418604651123,
          "durationTicks": 23,
          "midi": 91,
          "name": "G6",
          "ticks": 4162,
          "time": 48.395348837209305,
          "velocity": 0.33070866141732286
        },
        {
          "duration": 0.011627906976741542,
          "durationTicks": 1,
          "midi": 62,
          "name": "D4",
          "ticks": 4163,
          "time": 48.406976744186046,
          "velocity": 0.6535433070866141
        },
        {
          "duration": 0.09302325581395365,
          "durationTicks": 8,
          "midi": 63,
          "name": "D#4",
          "ticks": 4164,
          "time": 48.41860465116279,
          "velocity": 0.6220472440944882
        },
        {
          "duration": 0.09302325581395365,
          "durationTicks": 8,
          "midi": 72,
          "name": "C5",
          "ticks": 4164,
          "time": 48.41860465116279,
          "velocity": 0.2440944881889764
        },
        {
          "duration": 0.09302325581395365,
          "durationTicks": 8,
          "midi": 79,
          "name": "G5",
          "ticks": 4164,
          "time": 48.41860465116279,
          "velocity": 0.2440944881889764
        },
        {
          "duration": 0.02325581395349019,
          "durationTicks": 2,
          "midi": 60,
          "name": "C4",
          "ticks": 4166,
          "time": 48.44186046511628,
          "velocity": 0.3700787401574803
        },
        {
          "duration": 0.04651162790698038,
          "durationTicks": 4,
          "midi": 60,
          "name": "C4",
          "ticks": 4169,
          "time": 48.47674418604651,
          "velocity": 0.3858267716535433
        },
        {
          "duration": 0.06976744186046346,
          "durationTicks": 6,
          "midi": 86,
          "name": "D6",
          "ticks": 4170,
          "time": 48.48837209302326,
          "velocity": 0.12598425196850394
        },
        {
          "duration": 0.02325581395349019,
          "durationTicks": 2,
          "midi": 41,
          "name": "F2",
          "ticks": 4171,
          "time": 48.5,
          "velocity": 0.3543307086614173
        },
        {
          "duration": 0.011627906976748648,
          "durationTicks": 1,
          "midi": 62,
          "name": "D4",
          "ticks": 4172,
          "time": 48.51162790697674,
          "velocity": 0.5275590551181102
        },
        {
          "duration": 0.06976744186047057,
          "durationTicks": 6,
          "midi": 73,
          "name": "C#5",
          "ticks": 4172,
          "time": 48.51162790697674,
          "velocity": 0.4645669291338583
        },
        {
          "duration": 0.11627906976744384,
          "durationTicks": 10,
          "midi": 78,
          "name": "F#5",
          "ticks": 4172,
          "time": 48.51162790697674,
          "velocity": 0.2125984251968504
        },
        {
          "duration": 0.08139534883721211,
          "durationTicks": 7,
          "midi": 88,
          "name": "E6",
          "ticks": 4172,
          "time": 48.51162790697674,
          "velocity": 0.29133858267716534
        },
        {
          "duration": 0.12790697674418539,
          "durationTicks": 11,
          "midi": 90,
          "name": "F#6",
          "ticks": 4172,
          "time": 48.51162790697674,
          "velocity": 0.23622047244094488
        },
        {
          "duration": 0.05813953488372192,
          "durationTicks": 5,
          "midi": 55,
          "name": "G3",
          "ticks": 4173,
          "time": 48.52325581395349,
          "velocity": 0.5984251968503937
        },
        {
          "duration": 0.046511627906973274,
          "durationTicks": 4,
          "midi": 63,
          "name": "D#4",
          "ticks": 4173,
          "time": 48.52325581395349,
          "velocity": 0.6299212598425197
        },
        {
          "duration": 0.12790697674418539,
          "durationTicks": 11,
          "midi": 66,
          "name": "F#4",
          "ticks": 4173,
          "time": 48.52325581395349,
          "velocity": 0.5748031496062992
        },
        {
          "duration": 0.1046511627906952,
          "durationTicks": 9,
          "midi": 60,
          "name": "C4",
          "ticks": 4174,
          "time": 48.53488372093023,
          "velocity": 0.5826771653543307
        },
        {
          "duration": 0.09302325581395365,
          "durationTicks": 8,
          "midi": 79,
          "name": "G5",
          "ticks": 4176,
          "time": 48.55813953488372,
          "velocity": 0.1968503937007874
        },
        {
          "duration": 0.03488372093023173,
          "durationTicks": 3,
          "midi": 55,
          "name": "G3",
          "ticks": 4180,
          "time": 48.604651162790695,
          "velocity": 0.6062992125984252
        },
        {
          "duration": 0.04651162790698038,
          "durationTicks": 4,
          "midi": 88,
          "name": "E6",
          "ticks": 4180,
          "time": 48.604651162790695,
          "velocity": 0.2677165354330709
        },
        {
          "duration": 0.11627906976744384,
          "durationTicks": 10,
          "midi": 77,
          "name": "F5",
          "ticks": 4182,
          "time": 48.627906976744185,
          "velocity": 0.11811023622047244
        },
        {
          "duration": 0.011627906976748648,
          "durationTicks": 1,
          "midi": 56,
          "name": "G#3",
          "ticks": 4183,
          "time": 48.63953488372093,
          "velocity": 0.5433070866141733
        },
        {
          "duration": 0.09302325581395365,
          "durationTicks": 8,
          "midi": 68,
          "name": "G#4",
          "ticks": 4184,
          "time": 48.651162790697676,
          "velocity": 0.33070866141732286
        },
        {
          "duration": 0.1046511627907023,
          "durationTicks": 9,
          "midi": 56,
          "name": "G#3",
          "ticks": 4185,
          "time": 48.66279069767442,
          "velocity": 0.5511811023622047
        },
        {
          "duration": 0.06976744186046346,
          "durationTicks": 6,
          "midi": 75,
          "name": "D#5",
          "ticks": 4186,
          "time": 48.674418604651166,
          "velocity": 0.11023622047244094
        },
        {
          "duration": 0.04651162790698038,
          "durationTicks": 4,
          "midi": 86,
          "name": "D6",
          "ticks": 4188,
          "time": 48.69767441860465,
          "velocity": 0.12598425196850394
        },
        {
          "duration": 0.02325581395349019,
          "durationTicks": 2,
          "midi": 70,
          "name": "A#4",
          "ticks": 4190,
          "time": 48.72093023255814,
          "velocity": 0.23622047244094488
        },
        {
          "duration": 0.02325581395349019,
          "durationTicks": 2,
          "midi": 37,
          "name": "C#2",
          "ticks": 4191,
          "time": 48.73255813953488,
          "velocity": 0.3700787401574803
        },
        {
          "duration": 0.03488372093023884,
          "durationTicks": 3,
          "midi": 64,
          "name": "E4",
          "ticks": 4191,
          "time": 48.73255813953488,
          "velocity": 0.5984251968503937
        },
        {
          "duration": 0.15116279069767558,
          "durationTicks": 13,
          "midi": 87,
          "name": "D#6",
          "ticks": 4191,
          "time": 48.73255813953488,
          "velocity": 0.4645669291338583
        },
        {
          "duration": 0.15116279069767558,
          "durationTicks": 13,
          "midi": 71,
          "name": "B4",
          "ticks": 4192,
          "time": 48.74418604651163,
          "velocity": 0.5275590551181102
        },
        {
          "duration": 0.13953488372092693,
          "durationTicks": 12,
          "midi": 78,
          "name": "F#5",
          "ticks": 4192,
          "time": 48.74418604651163,
          "velocity": 0.4015748031496063
        },
        {
          "duration": 0.13953488372092693,
          "durationTicks": 12,
          "midi": 82,
          "name": "A#5",
          "ticks": 4192,
          "time": 48.74418604651163,
          "velocity": 0.2992125984251969
        },
        {
          "duration": 0.12790697674418539,
          "durationTicks": 11,
          "midi": 85,
          "name": "C#6",
          "ticks": 4192,
          "time": 48.74418604651163,
          "velocity": 0.30708661417322836
        },
        {
          "duration": 0.13953488372092693,
          "durationTicks": 12,
          "midi": 88,
          "name": "E6",
          "ticks": 4192,
          "time": 48.74418604651163,
          "velocity": 0.36220472440944884
        },
        {
          "duration": 0.16279069767441712,
          "durationTicks": 14,
          "midi": 66,
          "name": "F#4",
          "ticks": 4193,
          "time": 48.75581395348837,
          "velocity": 0.5669291338582677
        },
        {
          "duration": 0.11627906976744384,
          "durationTicks": 10,
          "midi": 73,
          "name": "C#5",
          "ticks": 4193,
          "time": 48.75581395348837,
          "velocity": 0.4251968503937008
        },
        {
          "duration": 0.04651162790698038,
          "durationTicks": 4,
          "midi": 92,
          "name": "G#6",
          "ticks": 4193,
          "time": 48.75581395348837,
          "velocity": 0.16535433070866143
        },
        {
          "duration": 0.023255813953483084,
          "durationTicks": 2,
          "midi": 54,
          "name": "F#3",
          "ticks": 4194,
          "time": 48.76744186046512,
          "velocity": 0.4409448818897638
        },
        {
          "duration": 0.06976744186046346,
          "durationTicks": 6,
          "midi": 63,
          "name": "D#4",
          "ticks": 4194,
          "time": 48.76744186046512,
          "velocity": 0.5826771653543307
        },
        {
          "duration": 0.11627906976743674,
          "durationTicks": 10,
          "midi": 93,
          "name": "A6",
          "ticks": 4194,
          "time": 48.76744186046512,
          "velocity": 0.2677165354330709
        },
        {
          "duration": 0.05813953488372192,
          "durationTicks": 5,
          "midi": 58,
          "name": "A#3",
          "ticks": 4195,
          "time": 48.77906976744186,
          "velocity": 0.5669291338582677
        },
        {
          "duration": 0.08139534883721211,
          "durationTicks": 7,
          "midi": 95,
          "name": "B6",
          "ticks": 4196,
          "time": 48.7906976744186,
          "velocity": 0.25984251968503935
        },
        {
          "duration": 0.03488372093023884,
          "durationTicks": 3,
          "midi": 54,
          "name": "F#3",
          "ticks": 4199,
          "time": 48.825581395348834,
          "velocity": 0.4881889763779528
        },
        {
          "duration": 0.03488372093023884,
          "durationTicks": 3,
          "midi": 92,
          "name": "G#6",
          "ticks": 4199,
          "time": 48.825581395348834,
          "velocity": 0.13385826771653545
        },
        {
          "duration": 0.03488372093023173,
          "durationTicks": 3,
          "midi": 30,
          "name": "F#1",
          "ticks": 4202,
          "time": 48.86046511627907,
          "velocity": 0.18110236220472442
        },
        {
          "duration": 0.023255813953483084,
          "durationTicks": 2,
          "midi": 58,
          "name": "A#3",
          "ticks": 4202,
          "time": 48.86046511627907,
          "velocity": 0.5511811023622047
        },
        {
          "duration": 0.12790697674418539,
          "durationTicks": 11,
          "midi": 79,
          "name": "G5",
          "ticks": 4203,
          "time": 48.872093023255815,
          "velocity": 0.2283464566929134
        },
        {
          "duration": 0.09302325581395365,
          "durationTicks": 8,
          "midi": 72,
          "name": "C5",
          "ticks": 4204,
          "time": 48.883720930232556,
          "velocity": 0.2677165354330709
        },
        {
          "duration": 0.081395348837205,
          "durationTicks": 7,
          "midi": 60,
          "name": "C4",
          "ticks": 4205,
          "time": 48.895348837209305,
          "velocity": 0.41732283464566927
        },
        {
          "duration": 0.023255813953483084,
          "durationTicks": 2,
          "midi": 71,
          "name": "B4",
          "ticks": 4210,
          "time": 48.95348837209303,
          "velocity": 0.2755905511811024
        },
        {
          "duration": 0.15116279069767558,
          "durationTicks": 13,
          "midi": 70,
          "name": "A#4",
          "ticks": 4211,
          "time": 48.96511627906977,
          "velocity": 0.5118110236220472
        },
        {
          "duration": 0.15116279069767558,
          "durationTicks": 13,
          "midi": 77,
          "name": "F5",
          "ticks": 4211,
          "time": 48.96511627906977,
          "velocity": 0.4015748031496063
        },
        {
          "duration": 0.16279069767441712,
          "durationTicks": 14,
          "midi": 86,
          "name": "D6",
          "ticks": 4211,
          "time": 48.96511627906977,
          "velocity": 0.3937007874015748
        },
        {
          "duration": 0.13953488372092693,
          "durationTicks": 12,
          "midi": 88,
          "name": "E6",
          "ticks": 4211,
          "time": 48.96511627906977,
          "velocity": 0.2677165354330709
        },
        {
          "duration": 0.011627906976748648,
          "durationTicks": 1,
          "midi": 64,
          "name": "E4",
          "ticks": 4212,
          "time": 48.97674418604651,
          "velocity": 0.5826771653543307
        },
        {
          "duration": 0.13953488372093403,
          "durationTicks": 12,
          "midi": 73,
          "name": "C#5",
          "ticks": 4212,
          "time": 48.97674418604651,
          "velocity": 0.4330708661417323
        },
        {
          "duration": 0.12790697674418539,
          "durationTicks": 11,
          "midi": 90,
          "name": "F#6",
          "ticks": 4212,
          "time": 48.97674418604651,
          "velocity": 0.25196850393700787
        },
        {
          "duration": 0.011627906976741542,
          "durationTicks": 1,
          "midi": 54,
          "name": "F#3",
          "ticks": 4213,
          "time": 48.98837209302326,
          "velocity": 0.5748031496062992
        },
        {
          "duration": 0.06976744186046346,
          "durationTicks": 6,
          "midi": 63,
          "name": "D#4",
          "ticks": 4213,
          "time": 48.98837209302326,
          "velocity": 0.6299212598425197
        },
        {
          "duration": 0.12790697674418539,
          "durationTicks": 11,
          "midi": 66,
          "name": "F#4",
          "ticks": 4213,
          "time": 48.98837209302326,
          "velocity": 0.5748031496062992
        },
        {
          "duration": 0.12790697674418539,
          "durationTicks": 11,
          "midi": 92,
          "name": "G#6",
          "ticks": 4213,
          "time": 48.98837209302326,
          "velocity": 0.31496062992125984
        },
        {
          "duration": 0.046511627906973274,
          "durationTicks": 4,
          "midi": 55,
          "name": "G3",
          "ticks": 4214,
          "time": 49,
          "velocity": 0.6141732283464567
        },
        {
          "duration": 0.03488372093023173,
          "durationTicks": 3,
          "midi": 87,
          "name": "D#6",
          "ticks": 4215,
          "time": 49.01162790697674,
          "velocity": 0.11811023622047244
        },
        {
          "duration": 0.046511627906973274,
          "durationTicks": 4,
          "midi": 55,
          "name": "G3",
          "ticks": 4219,
          "time": 49.05813953488372,
          "velocity": 0.6377952755905512
        },
        {
          "duration": 0.03488372093023173,
          "durationTicks": 3,
          "midi": 63,
          "name": "D#4",
          "ticks": 4220,
          "time": 49.06976744186046,
          "velocity": 0.2992125984251969
        },
        {
          "duration": 0.11627906976744384,
          "durationTicks": 10,
          "midi": 87,
          "name": "D#6",
          "ticks": 4222,
          "time": 49.093023255813954,
          "velocity": 0.25196850393700787
        },
        {
          "duration": 0.02325581395349019,
          "durationTicks": 2,
          "midi": 29,
          "name": "F1",
          "ticks": 4223,
          "time": 49.104651162790695,
          "velocity": 0.2283464566929134
        },
        {
          "duration": 0.11627906976744384,
          "durationTicks": 10,
          "midi": 56,
          "name": "G#3",
          "ticks": 4223,
          "time": 49.104651162790695,
          "velocity": 0.5669291338582677
        },
        {
          "duration": 0.03488372093023173,
          "durationTicks": 3,
          "midi": 75,
          "name": "D#5",
          "ticks": 4229,
          "time": 49.174418604651166,
          "velocity": 0.11023622047244094
        },
        {
          "duration": 0.04651162790698038,
          "durationTicks": 4,
          "midi": 72,
          "name": "C5",
          "ticks": 4231,
          "time": 49.19767441860465,
          "velocity": 0.2047244094488189
        },
        {
          "duration": 0.06976744186047057,
          "durationTicks": 6,
          "midi": 77,
          "name": "F5",
          "ticks": 4231,
          "time": 49.19767441860465,
          "velocity": 0.2204724409448819
        },
        {
          "duration": 0.11627906976743674,
          "durationTicks": 10,
          "midi": 65,
          "name": "F4",
          "ticks": 4232,
          "time": 49.2093023255814,
          "velocity": 0.6299212598425197
        },
        {
          "duration": 0.03488372093023173,
          "durationTicks": 3,
          "midi": 88,
          "name": "E6",
          "ticks": 4232,
          "time": 49.2093023255814,
          "velocity": 0.2283464566929134
        },
        {
          "duration": 0.011627906976741542,
          "durationTicks": 1,
          "midi": 57,
          "name": "A3",
          "ticks": 4233,
          "time": 49.22093023255814,
          "velocity": 0.5275590551181102
        },
        {
          "duration": 0.03488372093023173,
          "durationTicks": 3,
          "midi": 87,
          "name": "D#6",
          "ticks": 4233,
          "time": 49.22093023255814,
          "velocity": 0.1889763779527559
        },
        {
          "duration": 0.1046511627907023,
          "durationTicks": 9,
          "midi": 58,
          "name": "A#3",
          "ticks": 4234,
          "time": 49.23255813953488,
          "velocity": 0.5196850393700787
        },
        {
          "duration": 0.05813953488372192,
          "durationTicks": 5,
          "midi": 73,
          "name": "C#5",
          "ticks": 4235,
          "time": 49.24418604651163,
          "velocity": 0.09448818897637795
        },
        {
          "duration": 0.03488372093023173,
          "durationTicks": 3,
          "midi": 86,
          "name": "D6",
          "ticks": 4241,
          "time": 49.31395348837209,
          "velocity": 0.16535433070866143
        },
        {
          "duration": 0.09302325581395365,
          "durationTicks": 8,
          "midi": 63,
          "name": "D#4",
          "ticks": 4242,
          "time": 49.325581395348834,
          "velocity": 0.6299212598425197
        },
        {
          "duration": 0.11627906976744384,
          "durationTicks": 10,
          "midi": 72,
          "name": "C5",
          "ticks": 4242,
          "time": 49.325581395348834,
          "velocity": 0.2755905511811024
        },
        {
          "duration": 0.1046511627906952,
          "durationTicks": 9,
          "midi": 79,
          "name": "G5",
          "ticks": 4243,
          "time": 49.33720930232558,
          "velocity": 0.12598425196850394
        },
        {
          "duration": 0.13953488372092693,
          "durationTicks": 12,
          "midi": 91,
          "name": "G6",
          "ticks": 4243,
          "time": 49.33720930232558,
          "velocity": 0.1968503937007874
        },
        {
          "duration": 0.05813953488372192,
          "durationTicks": 5,
          "midi": 60,
          "name": "C4",
          "ticks": 4247,
          "time": 49.383720930232556,
          "velocity": 0.4094488188976378
        },
        {
          "duration": 0.02325581395349019,
          "durationTicks": 2,
          "midi": 45,
          "name": "A2",
          "ticks": 4252,
          "time": 49.44186046511628,
          "velocity": 0.49606299212598426
        },
        {
          "duration": 0.12790697674418539,
          "durationTicks": 11,
          "midi": 77,
          "name": "F5",
          "ticks": 4252,
          "time": 49.44186046511628,
          "velocity": 0.2204724409448819
        },
        {
          "duration": 0.13953488372093403,
          "durationTicks": 12,
          "midi": 80,
          "name": "G#5",
          "ticks": 4252,
          "time": 49.44186046511628,
          "velocity": 0.29133858267716534
        },
        {
          "duration": 0.12790697674418539,
          "durationTicks": 11,
          "midi": 83,
          "name": "B5",
          "ticks": 4252,
          "time": 49.44186046511628,
          "velocity": 0.2125984251968504
        },
        {
          "duration": 0.12790697674418539,
          "durationTicks": 11,
          "midi": 86,
          "name": "D6",
          "ticks": 4252,
          "time": 49.44186046511628,
          "velocity": 0.2992125984251969
        },
        {
          "duration": 0.12790697674418539,
          "durationTicks": 11,
          "midi": 88,
          "name": "E6",
          "ticks": 4252,
          "time": 49.44186046511628,
          "velocity": 0.29133858267716534
        },
        {
          "duration": 0.023255813953483084,
          "durationTicks": 2,
          "midi": 51,
          "name": "D#3",
          "ticks": 4253,
          "time": 49.45348837209303,
          "velocity": 0.44881889763779526
        },
        {
          "duration": 0.046511627906973274,
          "durationTicks": 4,
          "midi": 64,
          "name": "E4",
          "ticks": 4253,
          "time": 49.45348837209303,
          "velocity": 0.5905511811023622
        },
        {
          "duration": 0.09302325581394655,
          "durationTicks": 8,
          "midi": 71,
          "name": "B4",
          "ticks": 4253,
          "time": 49.45348837209303,
          "velocity": 0.4251968503937008
        },
        {
          "duration": 0.1046511627906952,
          "durationTicks": 9,
          "midi": 74,
          "name": "D5",
          "ticks": 4253,
          "time": 49.45348837209303,
          "velocity": 0.2440944881889764
        },
        {
          "duration": 0.1046511627906952,
          "durationTicks": 9,
          "midi": 58,
          "name": "A#3",
          "ticks": 4254,
          "time": 49.46511627906977,
          "velocity": 0.5511811023622047
        },
        {
          "duration": 0.04651162790698038,
          "durationTicks": 4,
          "midi": 46,
          "name": "A#2",
          "ticks": 4255,
          "time": 49.47674418604651,
          "velocity": 0.3937007874015748
        },
        {
          "duration": 0.08139534883721211,
          "durationTicks": 7,
          "midi": 52,
          "name": "E3",
          "ticks": 4255,
          "time": 49.47674418604651,
          "velocity": 0.44881889763779526
        },
        {
          "duration": 0.02325581395349019,
          "durationTicks": 2,
          "midi": 65,
          "name": "F4",
          "ticks": 4257,
          "time": 49.5,
          "velocity": 0.5196850393700787
        },
        {
          "duration": 0.06976744186046346,
          "durationTicks": 6,
          "midi": 82,
          "name": "A#5",
          "ticks": 4257,
          "time": 49.5,
          "velocity": 0.12598425196850394
        },
        {
          "duration": 0.03488372093023173,
          "durationTicks": 3,
          "midi": 64,
          "name": "E4",
          "ticks": 4258,
          "time": 49.51162790697674,
          "velocity": 0.6141732283464567
        },
        {
          "duration": 0.08139534883721211,
          "durationTicks": 7,
          "midi": 75,
          "name": "D#5",
          "ticks": 4258,
          "time": 49.51162790697674,
          "velocity": 0.2125984251968504
        },
        {
          "duration": 0.02325581395349019,
          "durationTicks": 2,
          "midi": 65,
          "name": "F4",
          "ticks": 4261,
          "time": 49.54651162790697,
          "velocity": 0.5669291338582677
        },
        {
          "duration": 0.1046511627907023,
          "durationTicks": 9,
          "midi": 71,
          "name": "B4",
          "ticks": 4263,
          "time": 49.56976744186046,
          "velocity": 0.2125984251968504
        },
        {
          "duration": 0.03488372093023173,
          "durationTicks": 3,
          "midi": 65,
          "name": "F4",
          "ticks": 4264,
          "time": 49.58139534883721,
          "velocity": 0.3543307086614173
        },
        {
          "duration": 0.023255813953483084,
          "durationTicks": 2,
          "midi": 64,
          "name": "E4",
          "ticks": 4267,
          "time": 49.616279069767444,
          "velocity": 0.3228346456692913
        },
        {
          "duration": 0.02325581395349019,
          "durationTicks": 2,
          "midi": 64,
          "name": "E4",
          "ticks": 4271,
          "time": 49.66279069767442,
          "velocity": 0.5748031496062992
        },
        {
          "duration": 0.03488372093023173,
          "durationTicks": 3,
          "midi": 72,
          "name": "C5",
          "ticks": 4271,
          "time": 49.66279069767442,
          "velocity": 0.25984251968503935
        },
        {
          "duration": 0.03488372093023173,
          "durationTicks": 3,
          "midi": 74,
          "name": "D5",
          "ticks": 4271,
          "time": 49.66279069767442,
          "velocity": 0.25984251968503935
        },
        {
          "duration": 0.03488372093023173,
          "durationTicks": 3,
          "midi": 77,
          "name": "F5",
          "ticks": 4271,
          "time": 49.66279069767442,
          "velocity": 0.1968503937007874
        },
        {
          "duration": 0.03488372093023173,
          "durationTicks": 3,
          "midi": 82,
          "name": "A#5",
          "ticks": 4271,
          "time": 49.66279069767442,
          "velocity": 0.1889763779527559
        },
        {
          "duration": 0.03488372093023173,
          "durationTicks": 3,
          "midi": 85,
          "name": "C#6",
          "ticks": 4271,
          "time": 49.66279069767442,
          "velocity": 0.1968503937007874
        },
        {
          "duration": 0.03488372093023173,
          "durationTicks": 3,
          "midi": 87,
          "name": "D#6",
          "ticks": 4271,
          "time": 49.66279069767442,
          "velocity": 0.1968503937007874
        },
        {
          "duration": 0.4534883720930196,
          "durationTicks": 39,
          "midi": 63,
          "name": "D#4",
          "ticks": 4273,
          "time": 49.68604651162791,
          "velocity": 0.6771653543307087
        },
        {
          "duration": 0.03488372093023173,
          "durationTicks": 3,
          "midi": 58,
          "name": "A#3",
          "ticks": 4279,
          "time": 49.75581395348837,
          "velocity": 0.11023622047244094
        },
        {
          "duration": 0.36046511627906597,
          "durationTicks": 31,
          "midi": 82,
          "name": "A#5",
          "ticks": 4283,
          "time": 49.80232558139535,
          "velocity": 0.28346456692913385
        },
        {
          "duration": 0.03488372093023173,
          "durationTicks": 3,
          "midi": 79,
          "name": "G5",
          "ticks": 4291,
          "time": 49.895348837209305,
          "velocity": 0.2992125984251969
        },
        {
          "duration": 0.13953488372092693,
          "durationTicks": 12,
          "midi": 70,
          "name": "A#4",
          "ticks": 4292,
          "time": 49.906976744186046,
          "velocity": 0.4330708661417323
        },
        {
          "duration": 0.12790697674418539,
          "durationTicks": 11,
          "midi": 81,
          "name": "A5",
          "ticks": 4292,
          "time": 49.906976744186046,
          "velocity": 0.2125984251968504
        },
        {
          "duration": 0.03488372093023173,
          "durationTicks": 3,
          "midi": 84,
          "name": "C6",
          "ticks": 4292,
          "time": 49.906976744186046,
          "velocity": 0.15748031496062992
        },
        {
          "duration": 0.11627906976744384,
          "durationTicks": 10,
          "midi": 87,
          "name": "D#6",
          "ticks": 4292,
          "time": 49.906976744186046,
          "velocity": 0.3464566929133858
        },
        {
          "duration": 0.09302325581395365,
          "durationTicks": 8,
          "midi": 89,
          "name": "F6",
          "ticks": 4292,
          "time": 49.906976744186046,
          "velocity": 0.09448818897637795
        },
        {
          "duration": 0.11627906976744384,
          "durationTicks": 10,
          "midi": 59,
          "name": "B3",
          "ticks": 4293,
          "time": 49.91860465116279,
          "velocity": 0.5275590551181102
        },
        {
          "duration": 0.1046511627907023,
          "durationTicks": 9,
          "midi": 66,
          "name": "F#4",
          "ticks": 4293,
          "time": 49.91860465116279,
          "velocity": 0.48031496062992124
        },
        {
          "duration": 0.08139534883721211,
          "durationTicks": 7,
          "midi": 90,
          "name": "F#6",
          "ticks": 4293,
          "time": 49.91860465116279,
          "velocity": 0.15748031496062992
        },
        {
          "duration": 0.02325581395349019,
          "durationTicks": 2,
          "midi": 79,
          "name": "G5",
          "ticks": 4295,
          "time": 49.94186046511628,
          "velocity": 0.2283464566929134
        },
        {
          "duration": 0.08139534883721211,
          "durationTicks": 7,
          "midi": 85,
          "name": "C#6",
          "ticks": 4295,
          "time": 49.94186046511628,
          "velocity": 0.25984251968503935
        },
        {
          "duration": 0.023255813953483084,
          "durationTicks": 2,
          "midi": 51,
          "name": "D#3",
          "ticks": 4296,
          "time": 49.95348837209303,
          "velocity": 0.4645669291338583
        },
        {
          "duration": 0.02325581395349019,
          "durationTicks": 2,
          "midi": 51,
          "name": "D#3",
          "ticks": 4300,
          "time": 50,
          "velocity": 0.4881889763779528
        },
        {
          "duration": 0.02325581395349019,
          "durationTicks": 2,
          "midi": 58,
          "name": "A#3",
          "ticks": 4303,
          "time": 50.03488372093023,
          "velocity": 0.31496062992125984
        },
        {
          "duration": 0.046511627906973274,
          "durationTicks": 4,
          "midi": 59,
          "name": "B3",
          "ticks": 4305,
          "time": 50.05813953488372,
          "velocity": 0.1732283464566929
        },
        {
          "duration": 0.011627906976748648,
          "durationTicks": 1,
          "midi": 58,
          "name": "A#3",
          "ticks": 4312,
          "time": 50.13953488372093,
          "velocity": 0.5590551181102362
        },
        {
          "duration": 0.11627906976744384,
          "durationTicks": 10,
          "midi": 66,
          "name": "F#4",
          "ticks": 4312,
          "time": 50.13953488372093,
          "velocity": 0.5354330708661418
        },
        {
          "duration": 0.11627906976744384,
          "durationTicks": 10,
          "midi": 81,
          "name": "A5",
          "ticks": 4312,
          "time": 50.13953488372093,
          "velocity": 0.18110236220472442
        },
        {
          "duration": 0.1046511627906952,
          "durationTicks": 9,
          "midi": 59,
          "name": "B3",
          "ticks": 4313,
          "time": 50.151162790697676,
          "velocity": 0.6062992125984252
        },
        {
          "duration": 0.11627906976744384,
          "durationTicks": 10,
          "midi": 47,
          "name": "B2",
          "ticks": 4314,
          "time": 50.16279069767442,
          "velocity": 0.4566929133858268
        },
        {
          "duration": 0.08139534883721211,
          "durationTicks": 7,
          "midi": 85,
          "name": "C#6",
          "ticks": 4316,
          "time": 50.18604651162791,
          "velocity": 0.23622047244094488
        },
        {
          "duration": 0.05813953488372192,
          "durationTicks": 5,
          "midi": 72,
          "name": "C5",
          "ticks": 4320,
          "time": 50.23255813953488,
          "velocity": 0.3779527559055118
        },
        {
          "duration": 0.2093023255813975,
          "durationTicks": 18,
          "midi": 63,
          "name": "D#4",
          "ticks": 4322,
          "time": 50.25581395348837,
          "velocity": 0.6456692913385826
        },
        {
          "duration": 0.03488372093023173,
          "durationTicks": 3,
          "midi": 59,
          "name": "B3",
          "ticks": 4326,
          "time": 50.30232558139535,
          "velocity": 0.1968503937007874
        },
        {
          "duration": 0.03488372093023173,
          "durationTicks": 3,
          "midi": 71,
          "name": "B4",
          "ticks": 4330,
          "time": 50.348837209302324,
          "velocity": 0.3464566929133858
        },
        {
          "duration": 0.13953488372092693,
          "durationTicks": 12,
          "midi": 78,
          "name": "F#5",
          "ticks": 4331,
          "time": 50.36046511627907,
          "velocity": 0.29133858267716534
        },
        {
          "duration": 0.13953488372092693,
          "durationTicks": 12,
          "midi": 81,
          "name": "A5",
          "ticks": 4331,
          "time": 50.36046511627907,
          "velocity": 0.23622047244094488
        },
        {
          "duration": 0.13953488372092693,
          "durationTicks": 12,
          "midi": 87,
          "name": "D#6",
          "ticks": 4331,
          "time": 50.36046511627907,
          "velocity": 0.2677165354330709
        },
        {
          "duration": 0.13953488372092693,
          "durationTicks": 12,
          "midi": 66,
          "name": "F#4",
          "ticks": 4332,
          "time": 50.372093023255815,
          "velocity": 0.5354330708661418
        },
        {
          "duration": 0.11627906976744384,
          "durationTicks": 10,
          "midi": 47,
          "name": "B2",
          "ticks": 4333,
          "time": 50.383720930232556,
          "velocity": 0.4645669291338583
        },
        {
          "duration": 0.11627906976744384,
          "durationTicks": 10,
          "midi": 59,
          "name": "B3",
          "ticks": 4333,
          "time": 50.383720930232556,
          "velocity": 0.6535433070866141
        },
        {
          "duration": 0.03488372093023173,
          "durationTicks": 3,
          "midi": 70,
          "name": "A#4",
          "ticks": 4333,
          "time": 50.383720930232556,
          "velocity": 0.3937007874015748
        },
        {
          "duration": 0.06976744186047057,
          "durationTicks": 6,
          "midi": 85,
          "name": "C#6",
          "ticks": 4336,
          "time": 50.41860465116279,
          "velocity": 0.1889763779527559
        },
        {
          "duration": 0.09302325581395365,
          "durationTicks": 8,
          "midi": 70,
          "name": "A#4",
          "ticks": 4337,
          "time": 50.43023255813954,
          "velocity": 0.3937007874015748
        },
        {
          "duration": 0.046511627906973274,
          "durationTicks": 4,
          "midi": 58,
          "name": "A#3",
          "ticks": 4343,
          "time": 50.5,
          "velocity": 0.3937007874015748
        },
        {
          "duration": 0.04651162790698038,
          "durationTicks": 4,
          "midi": 59,
          "name": "B3",
          "ticks": 4347,
          "time": 50.54651162790697,
          "velocity": 0.2125984251968504
        },
        {
          "duration": 0.023255813953483084,
          "durationTicks": 2,
          "midi": 64,
          "name": "E4",
          "ticks": 4350,
          "time": 50.58139534883721,
          "velocity": 0.5118110236220472
        },
        {
          "duration": 0.16279069767441712,
          "durationTicks": 14,
          "midi": 71,
          "name": "B4",
          "ticks": 4351,
          "time": 50.593023255813954,
          "velocity": 0.3464566929133858
        },
        {
          "duration": 0.13953488372092693,
          "durationTicks": 12,
          "midi": 78,
          "name": "F#5",
          "ticks": 4351,
          "time": 50.593023255813954,
          "velocity": 0.30708661417322836
        },
        {
          "duration": 0.02325581395349019,
          "durationTicks": 2,
          "midi": 80,
          "name": "G#5",
          "ticks": 4351,
          "time": 50.593023255813954,
          "velocity": 0.23622047244094488
        },
        {
          "duration": 0.011627906976748648,
          "durationTicks": 1,
          "midi": 60,
          "name": "C4",
          "ticks": 4352,
          "time": 50.604651162790695,
          "velocity": 0.5433070866141733
        },
        {
          "duration": 0.08139534883721211,
          "durationTicks": 7,
          "midi": 63,
          "name": "D#4",
          "ticks": 4352,
          "time": 50.604651162790695,
          "velocity": 0.6220472440944882
        },
        {
          "duration": 0.13953488372093403,
          "durationTicks": 12,
          "midi": 66,
          "name": "F#4",
          "ticks": 4352,
          "time": 50.604651162790695,
          "velocity": 0.5196850393700787
        },
        {
          "duration": 0.12790697674418539,
          "durationTicks": 11,
          "midi": 81,
          "name": "A5",
          "ticks": 4352,
          "time": 50.604651162790695,
          "velocity": 0.2440944881889764
        },
        {
          "duration": 0.11627906976744384,
          "durationTicks": 10,
          "midi": 85,
          "name": "C#6",
          "ticks": 4352,
          "time": 50.604651162790695,
          "velocity": 0.1732283464566929
        },
        {
          "duration": 0.11627906976743674,
          "durationTicks": 10,
          "midi": 47,
          "name": "B2",
          "ticks": 4353,
          "time": 50.616279069767444,
          "velocity": 0.4566929133858268
        },
        {
          "duration": 0.11627906976743674,
          "durationTicks": 10,
          "midi": 59,
          "name": "B3",
          "ticks": 4353,
          "time": 50.616279069767444,
          "velocity": 0.5984251968503937
        },
        {
          "duration": 0.04651162790698038,
          "durationTicks": 4,
          "midi": 58,
          "name": "A#3",
          "ticks": 4368,
          "time": 50.7906976744186,
          "velocity": 0.4409448818897638
        },
        {
          "duration": 0.03488372093023173,
          "durationTicks": 3,
          "midi": 64,
          "name": "E4",
          "ticks": 4370,
          "time": 50.81395348837209,
          "velocity": 0.6299212598425197
        },
        {
          "duration": 0.04651162790698038,
          "durationTicks": 4,
          "midi": 71,
          "name": "B4",
          "ticks": 4370,
          "time": 50.81395348837209,
          "velocity": 0.2283464566929134
        },
        {
          "duration": 0.1279069767441925,
          "durationTicks": 11,
          "midi": 68,
          "name": "G#4",
          "ticks": 4371,
          "time": 50.825581395348834,
          "velocity": 0.48031496062992124
        },
        {
          "duration": 0.1279069767441925,
          "durationTicks": 11,
          "midi": 73,
          "name": "C#5",
          "ticks": 4371,
          "time": 50.825581395348834,
          "velocity": 0.2755905511811024
        },
        {
          "duration": 0.1279069767441925,
          "durationTicks": 11,
          "midi": 77,
          "name": "F5",
          "ticks": 4371,
          "time": 50.825581395348834,
          "velocity": 0.30708661417322836
        },
        {
          "duration": 0.011627906976741542,
          "durationTicks": 1,
          "midi": 48,
          "name": "C3",
          "ticks": 4372,
          "time": 50.83720930232558,
          "velocity": 0.5354330708661418
        },
        {
          "duration": 0.09302325581395365,
          "durationTicks": 8,
          "midi": 49,
          "name": "C#3",
          "ticks": 4373,
          "time": 50.848837209302324,
          "velocity": 0.5118110236220472
        },
        {
          "duration": 0.04651162790698038,
          "durationTicks": 4,
          "midi": 54,
          "name": "F#3",
          "ticks": 4373,
          "time": 50.848837209302324,
          "velocity": 0.4881889763779528
        },
        {
          "duration": 0.02325581395349019,
          "durationTicks": 2,
          "midi": 63,
          "name": "D#4",
          "ticks": 4373,
          "time": 50.848837209302324,
          "velocity": 0.6692913385826772
        },
        {
          "duration": 0.09302325581395365,
          "durationTicks": 8,
          "midi": 61,
          "name": "C#4",
          "ticks": 4374,
          "time": 50.86046511627907,
          "velocity": 0.6220472440944882
        },
        {
          "duration": 0.03488372093023173,
          "durationTicks": 3,
          "midi": 54,
          "name": "F#3",
          "ticks": 4378,
          "time": 50.906976744186046,
          "velocity": 0.5118110236220472
        },
        {
          "duration": 0.03488372093023173,
          "durationTicks": 3,
          "midi": 50,
          "name": "D3",
          "ticks": 4381,
          "time": 50.94186046511628,
          "velocity": 0.5275590551181102
        },
        {
          "duration": 0.13953488372093403,
          "durationTicks": 12,
          "midi": 79,
          "name": "G5",
          "ticks": 4381,
          "time": 50.94186046511628,
          "velocity": 0.28346456692913385
        },
        {
          "duration": 0.13953488372093403,
          "durationTicks": 12,
          "midi": 87,
          "name": "D#6",
          "ticks": 4381,
          "time": 50.94186046511628,
          "velocity": 0.2992125984251969
        },
        {
          "duration": 0.011627906976741542,
          "durationTicks": 1,
          "midi": 62,
          "name": "D4",
          "ticks": 4382,
          "time": 50.95348837209303,
          "velocity": 0.5433070866141733
        },
        {
          "duration": 0.1046511627906952,
          "durationTicks": 9,
          "midi": 70,
          "name": "A#4",
          "ticks": 4382,
          "time": 50.95348837209303,
          "velocity": 0.4251968503937008
        },
        {
          "duration": 0.11627906976743674,
          "durationTicks": 10,
          "midi": 75,
          "name": "D#5",
          "ticks": 4382,
          "time": 50.95348837209303,
          "velocity": 0.2047244094488189
        },
        {
          "duration": 0.09302325581395365,
          "durationTicks": 8,
          "midi": 63,
          "name": "D#4",
          "ticks": 4383,
          "time": 50.96511627906977,
          "velocity": 0.5905511811023622
        },
        {
          "duration": 0.09302325581395365,
          "durationTicks": 8,
          "midi": 51,
          "name": "D#3",
          "ticks": 4384,
          "time": 50.97674418604651,
          "velocity": 0.5433070866141733
        },
        {
          "duration": 0.13953488372093403,
          "durationTicks": 12,
          "midi": 81,
          "name": "A5",
          "ticks": 4390,
          "time": 51.04651162790697,
          "velocity": 0.33070866141732286
        },
        {
          "duration": 0.011627906976741542,
          "durationTicks": 1,
          "midi": 64,
          "name": "E4",
          "ticks": 4391,
          "time": 51.05813953488372,
          "velocity": 0.5905511811023622
        },
        {
          "duration": 0.12790697674418539,
          "durationTicks": 11,
          "midi": 77,
          "name": "F5",
          "ticks": 4391,
          "time": 51.05813953488372,
          "velocity": 0.2440944881889764
        },
        {
          "duration": 0.2906976744186025,
          "durationTicks": 25,
          "midi": 84,
          "name": "C6",
          "ticks": 4391,
          "time": 51.05813953488372,
          "velocity": 0.4094488188976378
        },
        {
          "duration": 0.03488372093023173,
          "durationTicks": 3,
          "midi": 86,
          "name": "D6",
          "ticks": 4391,
          "time": 51.05813953488372,
          "velocity": 0.16535433070866143
        },
        {
          "duration": 0.12790697674418539,
          "durationTicks": 11,
          "midi": 89,
          "name": "F6",
          "ticks": 4391,
          "time": 51.05813953488372,
          "velocity": 0.25196850393700787
        },
        {
          "duration": 0.011627906976748648,
          "durationTicks": 1,
          "midi": 52,
          "name": "E3",
          "ticks": 4392,
          "time": 51.06976744186046,
          "velocity": 0.5669291338582677
        },
        {
          "duration": 0.11627906976744384,
          "durationTicks": 10,
          "midi": 65,
          "name": "F4",
          "ticks": 4392,
          "time": 51.06976744186046,
          "velocity": 0.6299212598425197
        },
        {
          "duration": 0.17441860465116577,
          "durationTicks": 15,
          "midi": 72,
          "name": "C5",
          "ticks": 4392,
          "time": 51.06976744186046,
          "velocity": 0.4409448818897638
        },
        {
          "duration": 0.11627906976743674,
          "durationTicks": 10,
          "midi": 53,
          "name": "F3",
          "ticks": 4393,
          "time": 51.08139534883721,
          "velocity": 0.5984251968503937
        },
        {
          "duration": 0.023255813953483084,
          "durationTicks": 2,
          "midi": 61,
          "name": "C#4",
          "ticks": 4393,
          "time": 51.08139534883721,
          "velocity": 0.2440944881889764
        },
        {
          "duration": 0.24418604651162923,
          "durationTicks": 21,
          "midi": 87,
          "name": "D#6",
          "ticks": 4394,
          "time": 51.093023255813954,
          "velocity": 0.3700787401574803
        },
        {
          "duration": 0.15116279069767558,
          "durationTicks": 13,
          "midi": 75,
          "name": "D#5",
          "ticks": 4400,
          "time": 51.16279069767442,
          "velocity": 0.4409448818897638
        },
        {
          "duration": 0.11627906976743674,
          "durationTicks": 10,
          "midi": 63,
          "name": "D#4",
          "ticks": 4401,
          "time": 51.174418604651166,
          "velocity": 0.6299212598425197
        },
        {
          "duration": 0.11627906976743674,
          "durationTicks": 10,
          "midi": 68,
          "name": "G#4",
          "ticks": 4401,
          "time": 51.174418604651166,
          "velocity": 0.5590551181102362
        },
        {
          "duration": 0.22093023255813904,
          "durationTicks": 19,
          "midi": 92,
          "name": "G#6",
          "ticks": 4402,
          "time": 51.18604651162791,
          "velocity": 0.2125984251968504
        },
        {
          "duration": 0.09302325581395365,
          "durationTicks": 8,
          "midi": 56,
          "name": "G#3",
          "ticks": 4403,
          "time": 51.19767441860465,
          "velocity": 0.47244094488188976
        },
        {
          "duration": 0.03488372093023173,
          "durationTicks": 3,
          "midi": 90,
          "name": "F#6",
          "ticks": 4404,
          "time": 51.2093023255814,
          "velocity": 0.2125984251968504
        },
        {
          "duration": 0.05813953488372192,
          "durationTicks": 5,
          "midi": 90,
          "name": "F#6",
          "ticks": 4408,
          "time": 51.25581395348837,
          "velocity": 0.3464566929133858
        },
        {
          "duration": 0.02325581395349019,
          "durationTicks": 2,
          "midi": 64,
          "name": "E4",
          "ticks": 4410,
          "time": 51.27906976744186,
          "velocity": 0.49606299212598426
        },
        {
          "duration": 0.03488372093023173,
          "durationTicks": 3,
          "midi": 79,
          "name": "G5",
          "ticks": 4410,
          "time": 51.27906976744186,
          "velocity": 0.18110236220472442
        },
        {
          "duration": 0.046511627906973274,
          "durationTicks": 4,
          "midi": 85,
          "name": "C#6",
          "ticks": 4410,
          "time": 51.27906976744186,
          "velocity": 0.2047244094488189
        },
        {
          "duration": 0.03488372093023173,
          "durationTicks": 3,
          "midi": 50,
          "name": "D3",
          "ticks": 4411,
          "time": 51.2906976744186,
          "velocity": 0.6456692913385826
        },
        {
          "duration": 0.02325581395349019,
          "durationTicks": 2,
          "midi": 67,
          "name": "G4",
          "ticks": 4411,
          "time": 51.2906976744186,
          "velocity": 0.49606299212598426
        },
        {
          "duration": 0.12790697674418539,
          "durationTicks": 11,
          "midi": 73,
          "name": "C#5",
          "ticks": 4411,
          "time": 51.2906976744186,
          "velocity": 0.2755905511811024
        },
        {
          "duration": 0.12790697674418539,
          "durationTicks": 11,
          "midi": 77,
          "name": "F5",
          "ticks": 4411,
          "time": 51.2906976744186,
          "velocity": 0.2992125984251969
        },
        {
          "duration": 0.05813953488372192,
          "durationTicks": 5,
          "midi": 83,
          "name": "B5",
          "ticks": 4411,
          "time": 51.2906976744186,
          "velocity": 0.1889763779527559
        },
        {
          "duration": 0.011627906976741542,
          "durationTicks": 1,
          "midi": 63,
          "name": "D#4",
          "ticks": 4412,
          "time": 51.30232558139535,
          "velocity": 0.6141732283464567
        },
        {
          "duration": 0.1046511627906952,
          "durationTicks": 9,
          "midi": 61,
          "name": "C#4",
          "ticks": 4413,
          "time": 51.31395348837209,
          "velocity": 0.6377952755905512
        },
        {
          "duration": 0.12790697674418539,
          "durationTicks": 11,
          "midi": 68,
          "name": "G#4",
          "ticks": 4413,
          "time": 51.31395348837209,
          "velocity": 0.4881889763779528
        },
        {
          "duration": 0.011627906976741542,
          "durationTicks": 1,
          "midi": 53,
          "name": "F3",
          "ticks": 4415,
          "time": 51.33720930232558,
          "velocity": 0.5196850393700787
        },
        {
          "duration": 0.03488372093023173,
          "durationTicks": 3,
          "midi": 93,
          "name": "A6",
          "ticks": 4415,
          "time": 51.33720930232558,
          "velocity": 0.07086614173228346
        },
        {
          "duration": 0.011627906976748648,
          "durationTicks": 1,
          "midi": 51,
          "name": "D#3",
          "ticks": 4416,
          "time": 51.348837209302324,
          "velocity": 0.6456692913385826
        },
        {
          "duration": 0.04651162790698038,
          "durationTicks": 4,
          "midi": 82,
          "name": "A#5",
          "ticks": 4416,
          "time": 51.348837209302324,
          "velocity": 0.1968503937007874
        },
        {
          "duration": 0.17441860465116577,
          "durationTicks": 15,
          "midi": 85,
          "name": "C#6",
          "ticks": 4416,
          "time": 51.348837209302324,
          "velocity": 0.2755905511811024
        },
        {
          "duration": 0.023255813953483084,
          "durationTicks": 2,
          "midi": 50,
          "name": "D3",
          "ticks": 4417,
          "time": 51.36046511627907,
          "velocity": 0.6692913385826772
        },
        {
          "duration": 0.03488372093023173,
          "durationTicks": 3,
          "midi": 93,
          "name": "A6",
          "ticks": 4419,
          "time": 51.383720930232556,
          "velocity": 0.10236220472440945
        },
        {
          "duration": 0.011627906976741542,
          "durationTicks": 1,
          "midi": 53,
          "name": "F3",
          "ticks": 4420,
          "time": 51.395348837209305,
          "velocity": 0.5354330708661418
        },
        {
          "duration": 0.11627906976744384,
          "durationTicks": 10,
          "midi": 51,
          "name": "D#3",
          "ticks": 4421,
          "time": 51.406976744186046,
          "velocity": 0.6220472440944882
        },
        {
          "duration": 0.12790697674418539,
          "durationTicks": 11,
          "midi": 79,
          "name": "G5",
          "ticks": 4421,
          "time": 51.406976744186046,
          "velocity": 0.28346456692913385
        },
        {
          "duration": 0.11627906976744384,
          "durationTicks": 10,
          "midi": 82,
          "name": "A#5",
          "ticks": 4421,
          "time": 51.406976744186046,
          "velocity": 0.2125984251968504
        },
        {
          "duration": 0.011627906976748648,
          "durationTicks": 1,
          "midi": 62,
          "name": "D4",
          "ticks": 4422,
          "time": 51.41860465116279,
          "velocity": 0.5984251968503937
        },
        {
          "duration": 0.1046511627907023,
          "durationTicks": 9,
          "midi": 70,
          "name": "A#4",
          "ticks": 4422,
          "time": 51.41860465116279,
          "velocity": 0.4330708661417323
        },
        {
          "duration": 0.11627906976744384,
          "durationTicks": 10,
          "midi": 75,
          "name": "D#5",
          "ticks": 4422,
          "time": 51.41860465116279,
          "velocity": 0.2283464566929134
        },
        {
          "duration": 0.418604651162795,
          "durationTicks": 36,
          "midi": 87,
          "name": "D#6",
          "ticks": 4422,
          "time": 51.41860465116279,
          "velocity": 0.33070866141732286
        },
        {
          "duration": 0.13953488372093403,
          "durationTicks": 12,
          "midi": 81,
          "name": "A5",
          "ticks": 4430,
          "time": 51.51162790697674,
          "velocity": 0.29133858267716534
        },
        {
          "duration": 0.2674418604651194,
          "durationTicks": 23,
          "midi": 84,
          "name": "C6",
          "ticks": 4430,
          "time": 51.51162790697674,
          "velocity": 0.3779527559055118
        },
        {
          "duration": 0.011627906976741542,
          "durationTicks": 1,
          "midi": 64,
          "name": "E4",
          "ticks": 4431,
          "time": 51.52325581395349,
          "velocity": 0.6692913385826772
        },
        {
          "duration": 0.1860465116279073,
          "durationTicks": 16,
          "midi": 72,
          "name": "C5",
          "ticks": 4431,
          "time": 51.52325581395349,
          "velocity": 0.4566929133858268
        },
        {
          "duration": 0.12790697674418539,
          "durationTicks": 11,
          "midi": 77,
          "name": "F5",
          "ticks": 4431,
          "time": 51.52325581395349,
          "velocity": 0.2283464566929134
        },
        {
          "duration": 0.011627906976741542,
          "durationTicks": 1,
          "midi": 48,
          "name": "C3",
          "ticks": 4432,
          "time": 51.53488372093023,
          "velocity": 0.5748031496062992
        },
        {
          "duration": 0.011627906976741542,
          "durationTicks": 1,
          "midi": 63,
          "name": "D#4",
          "ticks": 4432,
          "time": 51.53488372093023,
          "velocity": 0.6062992125984252
        },
        {
          "duration": 0.11627906976744384,
          "durationTicks": 10,
          "midi": 65,
          "name": "F4",
          "ticks": 4432,
          "time": 51.53488372093023,
          "velocity": 0.6220472440944882
        },
        {
          "duration": 0.011627906976748648,
          "durationTicks": 1,
          "midi": 50,
          "name": "D3",
          "ticks": 4433,
          "time": 51.54651162790697,
          "velocity": 0.6062992125984252
        },
        {
          "duration": 0.046511627906973274,
          "durationTicks": 4,
          "midi": 49,
          "name": "C#3",
          "ticks": 4434,
          "time": 51.55813953488372,
          "velocity": 0.6141732283464567
        },
        {
          "duration": 0.011627906976748648,
          "durationTicks": 1,
          "midi": 50,
          "name": "D3",
          "ticks": 4438,
          "time": 51.604651162790695,
          "velocity": 0.5905511811023622
        },
        {
          "duration": 0.02325581395349019,
          "durationTicks": 2,
          "midi": 61,
          "name": "C#4",
          "ticks": 4438,
          "time": 51.604651162790695,
          "velocity": 0.36220472440944884
        },
        {
          "duration": 0.06976744186046346,
          "durationTicks": 6,
          "midi": 49,
          "name": "C#3",
          "ticks": 4439,
          "time": 51.616279069767444,
          "velocity": 0.6220472440944882
        },
        {
          "duration": 0.16279069767441712,
          "durationTicks": 14,
          "midi": 68,
          "name": "G#4",
          "ticks": 4439,
          "time": 51.616279069767444,
          "velocity": 0.5905511811023622
        },
        {
          "duration": 0.12790697674418539,
          "durationTicks": 11,
          "midi": 75,
          "name": "D#5",
          "ticks": 4440,
          "time": 51.627906976744185,
          "velocity": 0.44881889763779526
        },
        {
          "duration": 0.1279069767441925,
          "durationTicks": 11,
          "midi": 56,
          "name": "G#3",
          "ticks": 4441,
          "time": 51.63953488372093,
          "velocity": 0.5354330708661418
        },
        {
          "duration": 0.05813953488372192,
          "durationTicks": 5,
          "midi": 90,
          "name": "F#6",
          "ticks": 4441,
          "time": 51.63953488372093,
          "velocity": 0.29133858267716534
        },
        {
          "duration": 0.23255813953488058,
          "durationTicks": 20,
          "midi": 92,
          "name": "G#6",
          "ticks": 4442,
          "time": 51.651162790697676,
          "velocity": 0.2755905511811024
        },
        {
          "duration": 0.04651162790698038,
          "durationTicks": 4,
          "midi": 65,
          "name": "F4",
          "ticks": 4443,
          "time": 51.66279069767442,
          "velocity": 0.30708661417322836
        },
        {
          "duration": 0.02325581395349019,
          "durationTicks": 2,
          "midi": 50,
          "name": "D3",
          "ticks": 4445,
          "time": 51.68604651162791,
          "velocity": 0.25984251968503935
        },
        {
          "duration": 0.03488372093023173,
          "durationTicks": 3,
          "midi": 90,
          "name": "F#6",
          "ticks": 4447,
          "time": 51.7093023255814,
          "velocity": 0.2047244094488189
        },
        {
          "duration": 0.02325581395349019,
          "durationTicks": 2,
          "midi": 62,
          "name": "D4",
          "ticks": 4450,
          "time": 51.74418604651163,
          "velocity": 0.5826771653543307
        },
        {
          "duration": 0.15116279069767558,
          "durationTicks": 13,
          "midi": 77,
          "name": "F5",
          "ticks": 4450,
          "time": 51.74418604651163,
          "velocity": 0.4330708661417323
        },
        {
          "duration": 0.13953488372092693,
          "durationTicks": 12,
          "midi": 82,
          "name": "A#5",
          "ticks": 4450,
          "time": 51.74418604651163,
          "velocity": 0.30708661417322836
        },
        {
          "duration": 0.13953488372092693,
          "durationTicks": 12,
          "midi": 86,
          "name": "D6",
          "ticks": 4450,
          "time": 51.74418604651163,
          "velocity": 0.4330708661417323
        },
        {
          "duration": 0.13953488372092693,
          "durationTicks": 12,
          "midi": 94,
          "name": "A#6",
          "ticks": 4450,
          "time": 51.74418604651163,
          "velocity": 0.4330708661417323
        },
        {
          "duration": 0.12790697674418539,
          "durationTicks": 11,
          "midi": 91,
          "name": "G6",
          "ticks": 4451,
          "time": 51.75581395348837,
          "velocity": 0.14173228346456693
        },
        {
          "duration": 0.011627906976741542,
          "durationTicks": 1,
          "midi": 44,
          "name": "G#2",
          "ticks": 4452,
          "time": 51.76744186046512,
          "velocity": 0.5511811023622047
        },
        {
          "duration": 0.11627906976743674,
          "durationTicks": 10,
          "midi": 58,
          "name": "A#3",
          "ticks": 4452,
          "time": 51.76744186046512,
          "velocity": 0.5826771653543307
        },
        {
          "duration": 0.11627906976743674,
          "durationTicks": 10,
          "midi": 63,
          "name": "D#4",
          "ticks": 4452,
          "time": 51.76744186046512,
          "velocity": 0.6141732283464567
        },
        {
          "duration": 0.08139534883721211,
          "durationTicks": 7,
          "midi": 46,
          "name": "A#2",
          "ticks": 4453,
          "time": 51.77906976744186,
          "velocity": 0.5669291338582677
        },
        {
          "duration": 0.03488372093023173,
          "durationTicks": 3,
          "midi": 96,
          "name": "C7",
          "ticks": 4458,
          "time": 51.83720930232558,
          "velocity": 0.11811023622047244
        },
        {
          "duration": 0.011627906976741542,
          "durationTicks": 1,
          "midi": 45,
          "name": "A2",
          "ticks": 4460,
          "time": 51.86046511627907,
          "velocity": 0.5511811023622047
        },
        {
          "duration": 0.011627906976741542,
          "durationTicks": 1,
          "midi": 44,
          "name": "G#2",
          "ticks": 4461,
          "time": 51.872093023255815,
          "velocity": 0.5275590551181102
        },
        {
          "duration": 0.15116279069767558,
          "durationTicks": 13,
          "midi": 79,
          "name": "G5",
          "ticks": 4461,
          "time": 51.872093023255815,
          "velocity": 0.29133858267716534
        },
        {
          "duration": 0.011627906976748648,
          "durationTicks": 1,
          "midi": 47,
          "name": "B2",
          "ticks": 4462,
          "time": 51.883720930232556,
          "velocity": 0.5826771653543307
        },
        {
          "duration": 0.1046511627906952,
          "durationTicks": 9,
          "midi": 48,
          "name": "C3",
          "ticks": 4463,
          "time": 51.895348837209305,
          "velocity": 0.6377952755905512
        },
        {
          "duration": 0.09302325581395365,
          "durationTicks": 8,
          "midi": 68,
          "name": "G#4",
          "ticks": 4463,
          "time": 51.895348837209305,
          "velocity": 0.2677165354330709
        },
        {
          "duration": 0.09302325581395365,
          "durationTicks": 8,
          "midi": 70,
          "name": "A#4",
          "ticks": 4467,
          "time": 51.94186046511628,
          "velocity": 0.11023622047244094
        },
        {
          "duration": 0.25581395348837077,
          "durationTicks": 22,
          "midi": 82,
          "name": "A#5",
          "ticks": 4471,
          "time": 51.98837209302326,
          "velocity": 0.33858267716535434
        },
        {
          "duration": 0.011627906976741542,
          "durationTicks": 1,
          "midi": 50,
          "name": "D3",
          "ticks": 4472,
          "time": 52,
          "velocity": 0.5748031496062992
        },
        {
          "duration": 0.09302325581395365,
          "durationTicks": 8,
          "midi": 63,
          "name": "D#4",
          "ticks": 4472,
          "time": 52,
          "velocity": 0.3937007874015748
        },
        {
          "duration": 0.09302325581395365,
          "durationTicks": 8,
          "midi": 51,
          "name": "D#3",
          "ticks": 4473,
          "time": 52.01162790697674,
          "velocity": 0.5433070866141733
        },
        {
          "duration": 0.03488372093023173,
          "durationTicks": 3,
          "midi": 86,
          "name": "D6",
          "ticks": 4473,
          "time": 52.01162790697674,
          "velocity": 0.07086614173228346
        },
        {
          "duration": 0.15116279069766847,
          "durationTicks": 13,
          "midi": 75,
          "name": "D#5",
          "ticks": 4479,
          "time": 52.08139534883721,
          "velocity": 0.4330708661417323
        },
        {
          "duration": 0.03488372093023173,
          "durationTicks": 3,
          "midi": 79,
          "name": "G5",
          "ticks": 4479,
          "time": 52.08139534883721,
          "velocity": 0.15748031496062992
        },
        {
          "duration": 0.011627906976741542,
          "durationTicks": 1,
          "midi": 64,
          "name": "E4",
          "ticks": 4480,
          "time": 52.093023255813954,
          "velocity": 0.5354330708661418
        },
        {
          "duration": 0.12790697674418539,
          "durationTicks": 11,
          "midi": 77,
          "name": "F5",
          "ticks": 4480,
          "time": 52.093023255813954,
          "velocity": 0.3779527559055118
        },
        {
          "duration": 0.13953488372092693,
          "durationTicks": 12,
          "midi": 86,
          "name": "D6",
          "ticks": 4480,
          "time": 52.093023255813954,
          "velocity": 0.33858267716535434
        },
        {
          "duration": 0.16279069767441712,
          "durationTicks": 14,
          "midi": 94,
          "name": "A#6",
          "ticks": 4480,
          "time": 52.093023255813954,
          "velocity": 0.3464566929133858
        },
        {
          "duration": 0.02325581395349019,
          "durationTicks": 2,
          "midi": 54,
          "name": "F#3",
          "ticks": 4481,
          "time": 52.104651162790695,
          "velocity": 0.5196850393700787
        },
        {
          "duration": 0.2674418604651194,
          "durationTicks": 23,
          "midi": 63,
          "name": "D#4",
          "ticks": 4481,
          "time": 52.104651162790695,
          "velocity": 0.6535433070866141
        },
        {
          "duration": 0.12790697674418539,
          "durationTicks": 11,
          "midi": 70,
          "name": "A#4",
          "ticks": 4481,
          "time": 52.104651162790695,
          "velocity": 0.5118110236220472
        },
        {
          "duration": 0.12790697674418539,
          "durationTicks": 11,
          "midi": 84,
          "name": "C6",
          "ticks": 4481,
          "time": 52.104651162790695,
          "velocity": 0.2125984251968504
        },
        {
          "duration": 0.1046511627907023,
          "durationTicks": 9,
          "midi": 92,
          "name": "G#6",
          "ticks": 4481,
          "time": 52.104651162790695,
          "velocity": 0.30708661417322836
        },
        {
          "duration": 0.09302325581395365,
          "durationTicks": 8,
          "midi": 58,
          "name": "A#3",
          "ticks": 4482,
          "time": 52.116279069767444,
          "velocity": 0.4409448818897638
        },
        {
          "duration": 0.11627906976744384,
          "durationTicks": 10,
          "midi": 53,
          "name": "F3",
          "ticks": 4483,
          "time": 52.127906976744185,
          "velocity": 0.5511811023622047
        },
        {
          "duration": 0.081395348837205,
          "durationTicks": 7,
          "midi": 91,
          "name": "G6",
          "ticks": 4485,
          "time": 52.151162790697676,
          "velocity": 0.15748031496062992
        },
        {
          "duration": 0.02325581395349019,
          "durationTicks": 2,
          "midi": 68,
          "name": "G#4",
          "ticks": 4488,
          "time": 52.18604651162791,
          "velocity": 0.23622047244094488
        },
        {
          "duration": 0.02325581395349019,
          "durationTicks": 2,
          "midi": 29,
          "name": "F1",
          "ticks": 4491,
          "time": 52.22093023255814,
          "velocity": 0.3779527559055118
        },
        {
          "duration": 0.02325581395349019,
          "durationTicks": 2,
          "midi": 45,
          "name": "A2",
          "ticks": 4491,
          "time": 52.22093023255814,
          "velocity": 0.5433070866141733
        },
        {
          "duration": 0.12790697674418539,
          "durationTicks": 11,
          "midi": 58,
          "name": "A#3",
          "ticks": 4491,
          "time": 52.22093023255814,
          "velocity": 0.49606299212598426
        },
        {
          "duration": 0.15116279069767558,
          "durationTicks": 13,
          "midi": 77,
          "name": "F5",
          "ticks": 4492,
          "time": 52.23255813953488,
          "velocity": 0.2755905511811024
        },
        {
          "duration": 0.081395348837205,
          "durationTicks": 7,
          "midi": 46,
          "name": "A#2",
          "ticks": 4493,
          "time": 52.24418604651163,
          "velocity": 0.5511811023622047
        },
        {
          "duration": 0.43023255813953654,
          "durationTicks": 37,
          "midi": 70,
          "name": "A#4",
          "ticks": 4493,
          "time": 52.24418604651163,
          "velocity": 0.5196850393700787
        },
        {
          "duration": 0.011627906976748648,
          "durationTicks": 1,
          "midi": 45,
          "name": "A2",
          "ticks": 4500,
          "time": 52.325581395348834,
          "velocity": 0.5354330708661418
        },
        {
          "duration": 0.011627906976741542,
          "durationTicks": 1,
          "midi": 44,
          "name": "G#2",
          "ticks": 4501,
          "time": 52.33720930232558,
          "velocity": 0.5275590551181102
        },
        {
          "duration": 0.13953488372092693,
          "durationTicks": 12,
          "midi": 79,
          "name": "G5",
          "ticks": 4501,
          "time": 52.33720930232558,
          "velocity": 0.31496062992125984
        },
        {
          "duration": 0.011627906976748648,
          "durationTicks": 1,
          "midi": 47,
          "name": "B2",
          "ticks": 4502,
          "time": 52.348837209302324,
          "velocity": 0.5984251968503937
        },
        {
          "duration": 0.09302325581395365,
          "durationTicks": 8,
          "midi": 60,
          "name": "C4",
          "ticks": 4502,
          "time": 52.348837209302324,
          "velocity": 0.36220472440944884
        },
        {
          "duration": 0.08139534883721211,
          "durationTicks": 7,
          "midi": 67,
          "name": "G4",
          "ticks": 4502,
          "time": 52.348837209302324,
          "velocity": 0.12598425196850394
        },
        {
          "duration": 0.1046511627906952,
          "durationTicks": 9,
          "midi": 48,
          "name": "C3",
          "ticks": 4503,
          "time": 52.36046511627907,
          "velocity": 0.6299212598425197
        },
        {
          "duration": 0.16279069767442422,
          "durationTicks": 14,
          "midi": 75,
          "name": "D#5",
          "ticks": 4508,
          "time": 52.41860465116279,
          "velocity": 0.41732283464566927
        },
        {
          "duration": 0.02325581395349019,
          "durationTicks": 2,
          "midi": 64,
          "name": "E4",
          "ticks": 4509,
          "time": 52.43023255813954,
          "velocity": 0.47244094488188976
        },
        {
          "duration": 0.15116279069767558,
          "durationTicks": 13,
          "midi": 77,
          "name": "F5",
          "ticks": 4510,
          "time": 52.44186046511628,
          "velocity": 0.4094488188976378
        },
        {
          "duration": 0.13953488372093403,
          "durationTicks": 12,
          "midi": 86,
          "name": "D6",
          "ticks": 4510,
          "time": 52.44186046511628,
          "velocity": 0.4409448818897638
        },
        {
          "duration": 0.16279069767441712,
          "durationTicks": 14,
          "midi": 94,
          "name": "A#6",
          "ticks": 4510,
          "time": 52.44186046511628,
          "velocity": 0.3228346456692913
        },
        {
          "duration": 0.13953488372092693,
          "durationTicks": 12,
          "midi": 63,
          "name": "D#4",
          "ticks": 4511,
          "time": 52.45348837209303,
          "velocity": 0.5905511811023622
        },
        {
          "duration": 0.12790697674418539,
          "durationTicks": 11,
          "midi": 92,
          "name": "G#6",
          "ticks": 4511,
          "time": 52.45348837209303,
          "velocity": 0.25196850393700787
        },
        {
          "duration": 0.011627906976741542,
          "durationTicks": 1,
          "midi": 50,
          "name": "D3",
          "ticks": 4512,
          "time": 52.46511627906977,
          "velocity": 0.5590551181102362
        },
        {
          "duration": 0.1046511627906952,
          "durationTicks": 9,
          "midi": 58,
          "name": "A#3",
          "ticks": 4512,
          "time": 52.46511627906977,
          "velocity": 0.4409448818897638
        },
        {
          "duration": 0.09302325581395365,
          "durationTicks": 8,
          "midi": 51,
          "name": "D#3",
          "ticks": 4513,
          "time": 52.47674418604651,
          "velocity": 0.5590551181102362
        },
        {
          "duration": 0.09302325581395365,
          "durationTicks": 8,
          "midi": 53,
          "name": "F3",
          "ticks": 4522,
          "time": 52.58139534883721,
          "velocity": 0.5669291338582677
        },
        {
          "duration": 0.046511627906973274,
          "durationTicks": 4,
          "midi": 58,
          "name": "A#3",
          "ticks": 4523,
          "time": 52.593023255813954,
          "velocity": 0.13385826771653545
        },
        {
          "duration": 0.06976744186046346,
          "durationTicks": 6,
          "midi": 84,
          "name": "C6",
          "ticks": 4526,
          "time": 52.627906976744185,
          "velocity": 0.2283464566929134
        },
        {
          "duration": 0.02325581395349019,
          "durationTicks": 2,
          "midi": 72,
          "name": "C5",
          "ticks": 4529,
          "time": 52.66279069767442,
          "velocity": 0.3858267716535433
        },
        {
          "duration": 0.011627906976741542,
          "durationTicks": 1,
          "midi": 54,
          "name": "F#3",
          "ticks": 4530,
          "time": 52.674418604651166,
          "velocity": 0.5196850393700787
        },
        {
          "duration": 0.011627906976741542,
          "durationTicks": 1,
          "midi": 64,
          "name": "E4",
          "ticks": 4530,
          "time": 52.674418604651166,
          "velocity": 0.5433070866141733
        },
        {
          "duration": 0.22093023255813904,
          "durationTicks": 19,
          "midi": 67,
          "name": "G4",
          "ticks": 4530,
          "time": 52.674418604651166,
          "velocity": 0.5590551181102362
        },
        {
          "duration": 0.12790697674418539,
          "durationTicks": 11,
          "midi": 80,
          "name": "G#5",
          "ticks": 4530,
          "time": 52.674418604651166,
          "velocity": 0.2440944881889764
        },
        {
          "duration": 0.13953488372092693,
          "durationTicks": 12,
          "midi": 83,
          "name": "B5",
          "ticks": 4530,
          "time": 52.674418604651166,
          "velocity": 0.30708661417322836
        },
        {
          "duration": 0.12790697674418539,
          "durationTicks": 11,
          "midi": 86,
          "name": "D6",
          "ticks": 4530,
          "time": 52.674418604651166,
          "velocity": 0.29133858267716534
        },
        {
          "duration": 0.03488372093023173,
          "durationTicks": 3,
          "midi": 88,
          "name": "E6",
          "ticks": 4530,
          "time": 52.674418604651166,
          "velocity": 0.2992125984251969
        },
        {
          "duration": 0.011627906976741542,
          "durationTicks": 1,
          "midi": 60,
          "name": "C4",
          "ticks": 4531,
          "time": 52.68604651162791,
          "velocity": 0.5275590551181102
        },
        {
          "duration": 0.03488372093023173,
          "durationTicks": 3,
          "midi": 63,
          "name": "D#4",
          "ticks": 4531,
          "time": 52.68604651162791,
          "velocity": 0.6377952755905512
        },
        {
          "duration": 0.12790697674418539,
          "durationTicks": 11,
          "midi": 73,
          "name": "C#5",
          "ticks": 4531,
          "time": 52.68604651162791,
          "velocity": 0.4409448818897638
        },
        {
          "duration": 0.12790697674418539,
          "durationTicks": 11,
          "midi": 92,
          "name": "G#6",
          "ticks": 4531,
          "time": 52.68604651162791,
          "velocity": 0.29133858267716534
        },
        {
          "duration": 0.011627906976748648,
          "durationTicks": 1,
          "midi": 45,
          "name": "A2",
          "ticks": 4532,
          "time": 52.69767441860465,
          "velocity": 0.5590551181102362
        },
        {
          "duration": 0.081395348837205,
          "durationTicks": 7,
          "midi": 46,
          "name": "A#2",
          "ticks": 4533,
          "time": 52.7093023255814,
          "velocity": 0.5669291338582677
        },
        {
          "duration": 0.081395348837205,
          "durationTicks": 7,
          "midi": 61,
          "name": "C#4",
          "ticks": 4533,
          "time": 52.7093023255814,
          "velocity": 0.5590551181102362
        },
        {
          "duration": 0.11627906976743674,
          "durationTicks": 10,
          "midi": 70,
          "name": "A#4",
          "ticks": 4533,
          "time": 52.7093023255814,
          "velocity": 0.1889763779527559
        },
        {
          "duration": 0.13953488372092693,
          "durationTicks": 12,
          "midi": 89,
          "name": "F6",
          "ticks": 4533,
          "time": 52.7093023255814,
          "velocity": 0.4094488188976378
        },
        {
          "duration": 0.06976744186047057,
          "durationTicks": 6,
          "midi": 91,
          "name": "G6",
          "ticks": 4535,
          "time": 52.73255813953488,
          "velocity": 0.2125984251968504
        },
        {
          "duration": 0.011627906976748648,
          "durationTicks": 1,
          "midi": 45,
          "name": "A2",
          "ticks": 4540,
          "time": 52.7906976744186,
          "velocity": 0.5433070866141733
        },
        {
          "duration": 0.011627906976741542,
          "durationTicks": 1,
          "midi": 44,
          "name": "G#2",
          "ticks": 4541,
          "time": 52.80232558139535,
          "velocity": 0.5433070866141733
        },
        {
          "duration": 0.1046511627906952,
          "durationTicks": 9,
          "midi": 48,
          "name": "C3",
          "ticks": 4542,
          "time": 52.81395348837209,
          "velocity": 0.6535433070866141
        },
        {
          "duration": 0.023255813953483084,
          "durationTicks": 2,
          "midi": 54,
          "name": "F#3",
          "ticks": 4549,
          "time": 52.895348837209305,
          "velocity": 0.3464566929133858
        },
        {
          "duration": 0.046511627906973274,
          "durationTicks": 4,
          "midi": 74,
          "name": "D5",
          "ticks": 4549,
          "time": 52.895348837209305,
          "velocity": 0.2283464566929134
        },
        {
          "duration": 0.023255813953483084,
          "durationTicks": 2,
          "midi": 76,
          "name": "E5",
          "ticks": 4549,
          "time": 52.895348837209305,
          "velocity": 0.23622047244094488
        },
        {
          "duration": 0.13953488372092693,
          "durationTicks": 12,
          "midi": 82,
          "name": "A#5",
          "ticks": 4549,
          "time": 52.895348837209305,
          "velocity": 0.2677165354330709
        },
        {
          "duration": 0.03488372093023173,
          "durationTicks": 3,
          "midi": 84,
          "name": "C6",
          "ticks": 4549,
          "time": 52.895348837209305,
          "velocity": 0.2125984251968504
        },
        {
          "duration": 0.09302325581395365,
          "durationTicks": 8,
          "midi": 86,
          "name": "D6",
          "ticks": 4549,
          "time": 52.895348837209305,
          "velocity": 0.2283464566929134
        },
        {
          "duration": 0.09302325581395365,
          "durationTicks": 8,
          "midi": 65,
          "name": "F4",
          "ticks": 4550,
          "time": 52.906976744186046,
          "velocity": 0.6456692913385826
        },
        {
          "duration": 0.011627906976748648,
          "durationTicks": 1,
          "midi": 49,
          "name": "C#3",
          "ticks": 4551,
          "time": 52.91860465116279,
          "velocity": 0.6141732283464567
        },
        {
          "duration": 0.1046511627907023,
          "durationTicks": 9,
          "midi": 70,
          "name": "A#4",
          "ticks": 4551,
          "time": 52.91860465116279,
          "velocity": 0.2677165354330709
        },
        {
          "duration": 0.011627906976741542,
          "durationTicks": 1,
          "midi": 50,
          "name": "D3",
          "ticks": 4552,
          "time": 52.93023255813954,
          "velocity": 0.5669291338582677
        },
        {
          "duration": 0.08139534883721211,
          "durationTicks": 7,
          "midi": 51,
          "name": "D#3",
          "ticks": 4553,
          "time": 52.94186046511628,
          "velocity": 0.5826771653543307
        },
        {
          "duration": 0.081395348837205,
          "durationTicks": 7,
          "midi": 63,
          "name": "D#4",
          "ticks": 4557,
          "time": 52.98837209302326,
          "velocity": 0.6377952755905512
        },
        {
          "duration": 0.48837209302325846,
          "durationTicks": 42,
          "midi": 67,
          "name": "G4",
          "ticks": 4559,
          "time": 53.01162790697674,
          "velocity": 0.5748031496062992
        },
        {
          "duration": 0.03488372093023173,
          "durationTicks": 3,
          "midi": 73,
          "name": "C#5",
          "ticks": 4559,
          "time": 53.01162790697674,
          "velocity": 0.3937007874015748
        },
        {
          "duration": 0.13953488372093403,
          "durationTicks": 12,
          "midi": 80,
          "name": "G#5",
          "ticks": 4559,
          "time": 53.01162790697674,
          "velocity": 0.1968503937007874
        },
        {
          "duration": 0.15116279069767558,
          "durationTicks": 13,
          "midi": 83,
          "name": "B5",
          "ticks": 4559,
          "time": 53.01162790697674,
          "velocity": 0.25196850393700787
        },
        {
          "duration": 0.15116279069767558,
          "durationTicks": 13,
          "midi": 86,
          "name": "D6",
          "ticks": 4559,
          "time": 53.01162790697674,
          "velocity": 0.18110236220472442
        },
        {
          "duration": 0.023255813953483084,
          "durationTicks": 2,
          "midi": 50,
          "name": "D3",
          "ticks": 4560,
          "time": 53.02325581395349,
          "velocity": 0.5354330708661418
        },
        {
          "duration": 0.09302325581395365,
          "durationTicks": 8,
          "midi": 84,
          "name": "C6",
          "ticks": 4560,
          "time": 53.02325581395349,
          "velocity": 0.2125984251968504
        },
        {
          "duration": 0.05813953488372192,
          "durationTicks": 5,
          "midi": 89,
          "name": "F6",
          "ticks": 4560,
          "time": 53.02325581395349,
          "velocity": 0.29133858267716534
        },
        {
          "duration": 0.02325581395349019,
          "durationTicks": 2,
          "midi": 74,
          "name": "D5",
          "ticks": 4561,
          "time": 53.03488372093023,
          "velocity": 0.44881889763779526
        },
        {
          "duration": 0.09302325581395365,
          "durationTicks": 8,
          "midi": 91,
          "name": "G6",
          "ticks": 4561,
          "time": 53.03488372093023,
          "velocity": 0.25196850393700787
        },
        {
          "duration": 0.1046511627906952,
          "durationTicks": 9,
          "midi": 92,
          "name": "G#6",
          "ticks": 4561,
          "time": 53.03488372093023,
          "velocity": 0.3228346456692913
        },
        {
          "duration": 0.011627906976748648,
          "durationTicks": 1,
          "midi": 52,
          "name": "E3",
          "ticks": 4562,
          "time": 53.04651162790697,
          "velocity": 0.5905511811023622
        },
        {
          "duration": 0.09302325581395365,
          "durationTicks": 8,
          "midi": 53,
          "name": "F3",
          "ticks": 4563,
          "time": 53.05813953488372,
          "velocity": 0.6220472440944882
        },
        {
          "duration": 0.09302325581395365,
          "durationTicks": 8,
          "midi": 61,
          "name": "C#4",
          "ticks": 4563,
          "time": 53.05813953488372,
          "velocity": 0.5748031496062992
        },
        {
          "duration": 0.08139534883721211,
          "durationTicks": 7,
          "midi": 89,
          "name": "F6",
          "ticks": 4567,
          "time": 53.104651162790695,
          "velocity": 0.2125984251968504
        },
        {
          "duration": 0.011627906976741542,
          "durationTicks": 1,
          "midi": 54,
          "name": "F#3",
          "ticks": 4571,
          "time": 53.151162790697676,
          "velocity": 0.5905511811023622
        },
        {
          "duration": 0.17441860465116577,
          "durationTicks": 15,
          "midi": 55,
          "name": "G3",
          "ticks": 4572,
          "time": 53.16279069767442,
          "velocity": 0.5669291338582677
        },
        {
          "duration": 0.04651162790698038,
          "durationTicks": 4,
          "midi": 61,
          "name": "C#4",
          "ticks": 4575,
          "time": 53.19767441860465,
          "velocity": 0.10236220472440945
        },
        {
          "duration": 0.03488372093023173,
          "durationTicks": 3,
          "midi": 73,
          "name": "C#5",
          "ticks": 4580,
          "time": 53.25581395348837,
          "velocity": 0.07086614173228346
        },
        {
          "duration": 0.1046511627906952,
          "durationTicks": 9,
          "midi": 61,
          "name": "C#4",
          "ticks": 4581,
          "time": 53.26744186046512,
          "velocity": 0.3464566929133858
        },
        {
          "duration": 0.08139534883721211,
          "durationTicks": 7,
          "midi": 48,
          "name": "C3",
          "ticks": 4582,
          "time": 53.27906976744186,
          "velocity": 0.09448818897637795
        },
        {
          "duration": 0.16279069767441712,
          "durationTicks": 14,
          "midi": 73,
          "name": "C#5",
          "ticks": 4589,
          "time": 53.36046511627907,
          "velocity": 0.4566929133858268
        },
        {
          "duration": 0.03488372093023173,
          "durationTicks": 3,
          "midi": 77,
          "name": "F5",
          "ticks": 4589,
          "time": 53.36046511627907,
          "velocity": 0.1732283464566929
        },
        {
          "duration": 0.03488372093023173,
          "durationTicks": 3,
          "midi": 80,
          "name": "G#5",
          "ticks": 4589,
          "time": 53.36046511627907,
          "velocity": 0.23622047244094488
        },
        {
          "duration": 0.15116279069766847,
          "durationTicks": 13,
          "midi": 83,
          "name": "B5",
          "ticks": 4589,
          "time": 53.36046511627907,
          "velocity": 0.2992125984251969
        },
        {
          "duration": 0.13953488372092693,
          "durationTicks": 12,
          "midi": 86,
          "name": "D6",
          "ticks": 4589,
          "time": 53.36046511627907,
          "velocity": 0.29133858267716534
        },
        {
          "duration": 0.03488372093023173,
          "durationTicks": 3,
          "midi": 88,
          "name": "E6",
          "ticks": 4589,
          "time": 53.36046511627907,
          "velocity": 0.1968503937007874
        },
        {
          "duration": 0.011627906976741542,
          "durationTicks": 1,
          "midi": 64,
          "name": "E4",
          "ticks": 4590,
          "time": 53.372093023255815,
          "velocity": 0.5748031496062992
        },
        {
          "duration": 0.5,
          "durationTicks": 43,
          "midi": 87,
          "name": "D#6",
          "ticks": 4590,
          "time": 53.372093023255815,
          "velocity": 0.3937007874015748
        },
        {
          "duration": 0.12790697674418539,
          "durationTicks": 11,
          "midi": 91,
          "name": "G6",
          "ticks": 4590,
          "time": 53.372093023255815,
          "velocity": 0.2204724409448819
        },
        {
          "duration": 0.12790697674418539,
          "durationTicks": 11,
          "midi": 92,
          "name": "G#6",
          "ticks": 4590,
          "time": 53.372093023255815,
          "velocity": 0.3228346456692913
        },
        {
          "duration": 0.03488372093023173,
          "durationTicks": 3,
          "midi": 55,
          "name": "G3",
          "ticks": 4591,
          "time": 53.383720930232556,
          "velocity": 0.5905511811023622
        },
        {
          "duration": 0.05813953488372192,
          "durationTicks": 5,
          "midi": 63,
          "name": "D#4",
          "ticks": 4591,
          "time": 53.383720930232556,
          "velocity": 0.6220472440944882
        },
        {
          "duration": 0.13953488372092693,
          "durationTicks": 12,
          "midi": 89,
          "name": "F6",
          "ticks": 4592,
          "time": 53.395348837209305,
          "velocity": 0.4015748031496063
        },
        {
          "duration": 0.09302325581395365,
          "durationTicks": 8,
          "midi": 80,
          "name": "G#5",
          "ticks": 4593,
          "time": 53.406976744186046,
          "velocity": 0.18110236220472442
        },
        {
          "duration": 0.03488372093023173,
          "durationTicks": 3,
          "midi": 93,
          "name": "A6",
          "ticks": 4593,
          "time": 53.406976744186046,
          "velocity": 0.12598425196850394
        },
        {
          "duration": 0.02325581395349019,
          "durationTicks": 2,
          "midi": 56,
          "name": "G#3",
          "ticks": 4594,
          "time": 53.41860465116279,
          "velocity": 0.48031496062992124
        },
        {
          "duration": 0.06976744186046346,
          "durationTicks": 6,
          "midi": 61,
          "name": "C#4",
          "ticks": 4595,
          "time": 53.43023255813954,
          "velocity": 0.5590551181102362
        },
        {
          "duration": 0.3953488372092977,
          "durationTicks": 34,
          "midi": 56,
          "name": "G#3",
          "ticks": 4597,
          "time": 53.45348837209303,
          "velocity": 0.5905511811023622
        },
        {
          "duration": 0.03488372093023173,
          "durationTicks": 3,
          "midi": 74,
          "name": "D5",
          "ticks": 4603,
          "time": 53.52325581395349,
          "velocity": 0.08661417322834646
        },
        {
          "duration": 0.04651162790698038,
          "durationTicks": 4,
          "midi": 61,
          "name": "C#4",
          "ticks": 4605,
          "time": 53.54651162790697,
          "velocity": 0.16535433070866143
        },
        {
          "duration": 0.16279069767441712,
          "durationTicks": 14,
          "midi": 75,
          "name": "D#5",
          "ticks": 4608,
          "time": 53.58139534883721,
          "velocity": 0.4094488188976378
        },
        {
          "duration": 0.3488372093023244,
          "durationTicks": 30,
          "midi": 71,
          "name": "B4",
          "ticks": 4609,
          "time": 53.593023255813954,
          "velocity": 0.5354330708661418
        },
        {
          "duration": 0.13953488372092693,
          "durationTicks": 12,
          "midi": 78,
          "name": "F#5",
          "ticks": 4609,
          "time": 53.593023255813954,
          "velocity": 0.4015748031496063
        },
        {
          "duration": 0.13953488372093403,
          "durationTicks": 12,
          "midi": 63,
          "name": "D#4",
          "ticks": 4610,
          "time": 53.604651162790695,
          "velocity": 0.6692913385826772
        },
        {
          "duration": 0.12790697674418539,
          "durationTicks": 11,
          "midi": 82,
          "name": "A#5",
          "ticks": 4610,
          "time": 53.604651162790695,
          "velocity": 0.18110236220472442
        },
        {
          "duration": 0.12790697674418539,
          "durationTicks": 11,
          "midi": 94,
          "name": "A#6",
          "ticks": 4610,
          "time": 53.604651162790695,
          "velocity": 0.33070866141732286
        },
        {
          "duration": 0.11627906976744384,
          "durationTicks": 10,
          "midi": 95,
          "name": "B6",
          "ticks": 4610,
          "time": 53.604651162790695,
          "velocity": 0.2047244094488189
        },
        {
          "duration": 0.06976744186046346,
          "durationTicks": 6,
          "midi": 93,
          "name": "A6",
          "ticks": 4611,
          "time": 53.616279069767444,
          "velocity": 0.33070866141732286
        },
        {
          "duration": 0.046511627906973274,
          "durationTicks": 4,
          "midi": 91,
          "name": "G6",
          "ticks": 4614,
          "time": 53.651162790697676,
          "velocity": 0.2047244094488189
        },
        {
          "duration": 0.12790697674418539,
          "durationTicks": 11,
          "midi": 84,
          "name": "C6",
          "ticks": 4620,
          "time": 53.72093023255814,
          "velocity": 0.10236220472440945
        },
        {
          "duration": 0.1046511627906952,
          "durationTicks": 9,
          "midi": 75,
          "name": "D#5",
          "ticks": 4625,
          "time": 53.77906976744186,
          "velocity": 0.08661417322834646
        },
        {
          "duration": 0.011627906976748648,
          "durationTicks": 1,
          "midi": 55,
          "name": "G3",
          "ticks": 4631,
          "time": 53.848837209302324,
          "velocity": 0.5354330708661418
        },
        {
          "duration": 0.09302325581395365,
          "durationTicks": 8,
          "midi": 66,
          "name": "F#4",
          "ticks": 4631,
          "time": 53.848837209302324,
          "velocity": 0.3700787401574803
        },
        {
          "duration": 0.06976744186046346,
          "durationTicks": 6,
          "midi": 85,
          "name": "C#6",
          "ticks": 4631,
          "time": 53.848837209302324,
          "velocity": 0.07086614173228346
        },
        {
          "duration": 0.11627906976743674,
          "durationTicks": 10,
          "midi": 54,
          "name": "F#3",
          "ticks": 4632,
          "time": 53.86046511627907,
          "velocity": 0.5275590551181102
        },
        {
          "duration": 0.05813953488372192,
          "durationTicks": 5,
          "midi": 63,
          "name": "D#4",
          "ticks": 4633,
          "time": 53.872093023255815,
          "velocity": 0.1968503937007874
        },
        {
          "duration": 0.1860465116279073,
          "durationTicks": 16,
          "midi": 75,
          "name": "D#5",
          "ticks": 4638,
          "time": 53.93023255813954,
          "velocity": 0.4251968503937008
        },
        {
          "duration": 0.03488372093023173,
          "durationTicks": 3,
          "midi": 85,
          "name": "C#6",
          "ticks": 4638,
          "time": 53.93023255813954,
          "velocity": 0.2047244094488189
        },
        {
          "duration": 0.16279069767441712,
          "durationTicks": 14,
          "midi": 78,
          "name": "F#5",
          "ticks": 4639,
          "time": 53.94186046511628,
          "velocity": 0.41732283464566927
        },
        {
          "duration": 0.11627906976744384,
          "durationTicks": 10,
          "midi": 82,
          "name": "A#5",
          "ticks": 4639,
          "time": 53.94186046511628,
          "velocity": 0.2204724409448819
        },
        {
          "duration": 0.13953488372093403,
          "durationTicks": 12,
          "midi": 83,
          "name": "B5",
          "ticks": 4639,
          "time": 53.94186046511628,
          "velocity": 0.23622047244094488
        },
        {
          "duration": 0.13953488372093403,
          "durationTicks": 12,
          "midi": 87,
          "name": "D#6",
          "ticks": 4639,
          "time": 53.94186046511628,
          "velocity": 0.49606299212598426
        },
        {
          "duration": 0.16279069767441712,
          "durationTicks": 14,
          "midi": 94,
          "name": "A#6",
          "ticks": 4639,
          "time": 53.94186046511628,
          "velocity": 0.31496062992125984
        },
        {
          "duration": 0.19767441860464885,
          "durationTicks": 17,
          "midi": 63,
          "name": "D#4",
          "ticks": 4640,
          "time": 53.95348837209303,
          "velocity": 0.6299212598425197
        },
        {
          "duration": 0.1860465116279002,
          "durationTicks": 16,
          "midi": 71,
          "name": "B4",
          "ticks": 4640,
          "time": 53.95348837209303,
          "velocity": 0.5275590551181102
        },
        {
          "duration": 0.03488372093023173,
          "durationTicks": 3,
          "midi": 91,
          "name": "G6",
          "ticks": 4640,
          "time": 53.95348837209303,
          "velocity": 0.14960629921259844
        },
        {
          "duration": 0.11627906976743674,
          "durationTicks": 10,
          "midi": 93,
          "name": "A6",
          "ticks": 4640,
          "time": 53.95348837209303,
          "velocity": 0.2677165354330709
        },
        {
          "duration": 0.09302325581395365,
          "durationTicks": 8,
          "midi": 59,
          "name": "B3",
          "ticks": 4642,
          "time": 53.97674418604651,
          "velocity": 0.4330708661417323
        },
        {
          "duration": 0.03488372093023884,
          "durationTicks": 3,
          "midi": 91,
          "name": "G6",
          "ticks": 4648,
          "time": 54.04651162790697,
          "velocity": 0.1889763779527559
        },
        {
          "duration": 0.1860465116279073,
          "durationTicks": 16,
          "midi": 51,
          "name": "D#3",
          "ticks": 4650,
          "time": 54.06976744186046,
          "velocity": 0.5590551181102362
        },
        {
          "duration": 0.11627906976743674,
          "durationTicks": 10,
          "midi": 82,
          "name": "A#5",
          "ticks": 4651,
          "time": 54.08139534883721,
          "velocity": 0.10236220472440945
        },
        {
          "duration": 0.03488372093023173,
          "durationTicks": 3,
          "midi": 87,
          "name": "D#6",
          "ticks": 4659,
          "time": 54.174418604651166,
          "velocity": 0.11811023622047244
        },
        {
          "duration": 0.3372093023255829,
          "durationTicks": 29,
          "midi": 71,
          "name": "B4",
          "ticks": 4660,
          "time": 54.18604651162791,
          "velocity": 0.5511811023622047
        },
        {
          "duration": 0.06976744186046346,
          "durationTicks": 6,
          "midi": 59,
          "name": "B3",
          "ticks": 4662,
          "time": 54.2093023255814,
          "velocity": 0.10236220472440945
        },
        {
          "duration": 0.15116279069767558,
          "durationTicks": 13,
          "midi": 75,
          "name": "D#5",
          "ticks": 4668,
          "time": 54.27906976744186,
          "velocity": 0.4409448818897638
        },
        {
          "duration": 0.12790697674418539,
          "durationTicks": 11,
          "midi": 78,
          "name": "F#5",
          "ticks": 4669,
          "time": 54.2906976744186,
          "velocity": 0.4094488188976378
        },
        {
          "duration": 0.12790697674418539,
          "durationTicks": 11,
          "midi": 82,
          "name": "A#5",
          "ticks": 4669,
          "time": 54.2906976744186,
          "velocity": 0.2204724409448819
        },
        {
          "duration": 0.13953488372093403,
          "durationTicks": 12,
          "midi": 94,
          "name": "A#6",
          "ticks": 4669,
          "time": 54.2906976744186,
          "velocity": 0.36220472440944884
        },
        {
          "duration": 0.1860465116279073,
          "durationTicks": 16,
          "midi": 48,
          "name": "C3",
          "ticks": 4670,
          "time": 54.30232558139535,
          "velocity": 0.5905511811023622
        },
        {
          "duration": 0.13953488372092693,
          "durationTicks": 12,
          "midi": 63,
          "name": "D#4",
          "ticks": 4670,
          "time": 54.30232558139535,
          "velocity": 0.6456692913385826
        },
        {
          "duration": 0.11627906976743674,
          "durationTicks": 10,
          "midi": 91,
          "name": "G6",
          "ticks": 4670,
          "time": 54.30232558139535,
          "velocity": 0.1889763779527559
        },
        {
          "duration": 0.12790697674418539,
          "durationTicks": 11,
          "midi": 93,
          "name": "A6",
          "ticks": 4670,
          "time": 54.30232558139535,
          "velocity": 0.2992125984251969
        },
        {
          "duration": 0.11627906976743674,
          "durationTicks": 10,
          "midi": 95,
          "name": "B6",
          "ticks": 4670,
          "time": 54.30232558139535,
          "velocity": 0.25984251968503935
        },
        {
          "duration": 0.08139534883721211,
          "durationTicks": 7,
          "midi": 59,
          "name": "B3",
          "ticks": 4672,
          "time": 54.325581395348834,
          "velocity": 0.5039370078740157
        },
        {
          "duration": 0.03488372093023173,
          "durationTicks": 3,
          "midi": 97,
          "name": "C#7",
          "ticks": 4673,
          "time": 54.33720930232558,
          "velocity": 0.12598425196850394
        },
        {
          "duration": 0.08139534883721211,
          "durationTicks": 7,
          "midi": 79,
          "name": "G5",
          "ticks": 4677,
          "time": 54.383720930232556,
          "velocity": 0.25984251968503935
        },
        {
          "duration": 0.046511627906973274,
          "durationTicks": 4,
          "midi": 63,
          "name": "D#4",
          "ticks": 4684,
          "time": 54.46511627906977,
          "velocity": 0.12598425196850394
        },
        {
          "duration": 0.02325581395349019,
          "durationTicks": 2,
          "midi": 52,
          "name": "E3",
          "ticks": 4688,
          "time": 54.51162790697674,
          "velocity": 0.3228346456692913
        },
        {
          "duration": 0.02325581395349019,
          "durationTicks": 2,
          "midi": 58,
          "name": "A#3",
          "ticks": 4688,
          "time": 54.51162790697674,
          "velocity": 0.3779527559055118
        },
        {
          "duration": 0.02325581395349019,
          "durationTicks": 2,
          "midi": 72,
          "name": "C5",
          "ticks": 4688,
          "time": 54.51162790697674,
          "velocity": 0.4409448818897638
        },
        {
          "duration": 0.13953488372093403,
          "durationTicks": 12,
          "midi": 78,
          "name": "F#5",
          "ticks": 4688,
          "time": 54.51162790697674,
          "velocity": 0.2204724409448819
        },
        {
          "duration": 0.011627906976741542,
          "durationTicks": 1,
          "midi": 64,
          "name": "E4",
          "ticks": 4689,
          "time": 54.52325581395349,
          "velocity": 0.5669291338582677
        },
        {
          "duration": 0.13953488372092693,
          "durationTicks": 12,
          "midi": 82,
          "name": "A#5",
          "ticks": 4689,
          "time": 54.52325581395349,
          "velocity": 0.2755905511811024
        },
        {
          "duration": 0.1046511627906952,
          "durationTicks": 9,
          "midi": 85,
          "name": "C#6",
          "ticks": 4689,
          "time": 54.52325581395349,
          "velocity": 0.25196850393700787
        },
        {
          "duration": 0.05813953488372192,
          "durationTicks": 5,
          "midi": 88,
          "name": "E6",
          "ticks": 4689,
          "time": 54.52325581395349,
          "velocity": 0.1889763779527559
        },
        {
          "duration": 0.011627906976741542,
          "durationTicks": 1,
          "midi": 51,
          "name": "D#3",
          "ticks": 4690,
          "time": 54.53488372093023,
          "velocity": 0.5196850393700787
        },
        {
          "duration": 0.05813953488372192,
          "durationTicks": 5,
          "midi": 63,
          "name": "D#4",
          "ticks": 4690,
          "time": 54.53488372093023,
          "velocity": 0.6377952755905512
        },
        {
          "duration": 0.13953488372093403,
          "durationTicks": 12,
          "midi": 66,
          "name": "F#4",
          "ticks": 4690,
          "time": 54.53488372093023,
          "velocity": 0.5748031496062992
        },
        {
          "duration": 0.12790697674418539,
          "durationTicks": 11,
          "midi": 73,
          "name": "C#5",
          "ticks": 4690,
          "time": 54.53488372093023,
          "velocity": 0.5118110236220472
        },
        {
          "duration": 0.13953488372093403,
          "durationTicks": 12,
          "midi": 80,
          "name": "G#5",
          "ticks": 4690,
          "time": 54.53488372093023,
          "velocity": 0.31496062992125984
        },
        {
          "duration": 0.1046511627906952,
          "durationTicks": 9,
          "midi": 92,
          "name": "G#6",
          "ticks": 4690,
          "time": 54.53488372093023,
          "velocity": 0.3700787401574803
        },
        {
          "duration": 0.17441860465116577,
          "durationTicks": 15,
          "midi": 49,
          "name": "C#3",
          "ticks": 4691,
          "time": 54.54651162790697,
          "velocity": 0.5669291338582677
        },
        {
          "duration": 0.1046511627906952,
          "durationTicks": 9,
          "midi": 61,
          "name": "C#4",
          "ticks": 4694,
          "time": 54.58139534883721,
          "velocity": 0.5748031496062992
        },
        {
          "duration": 0.023255813953483084,
          "durationTicks": 2,
          "midi": 87,
          "name": "D#6",
          "ticks": 4694,
          "time": 54.58139534883721,
          "velocity": 0.2283464566929134
        },
        {
          "duration": 0.05813953488372192,
          "durationTicks": 5,
          "midi": 88,
          "name": "E6",
          "ticks": 4696,
          "time": 54.604651162790695,
          "velocity": 0.2204724409448819
        },
        {
          "duration": 0.03488372093023173,
          "durationTicks": 3,
          "midi": 89,
          "name": "F6",
          "ticks": 4698,
          "time": 54.627906976744185,
          "velocity": 0.11023622047244094
        },
        {
          "duration": 0.11627906976744384,
          "durationTicks": 10,
          "midi": 65,
          "name": "F4",
          "ticks": 4709,
          "time": 54.75581395348837,
          "velocity": 0.6062992125984252
        },
        {
          "duration": 0.02325581395349019,
          "durationTicks": 2,
          "midi": 70,
          "name": "A#4",
          "ticks": 4709,
          "time": 54.75581395348837,
          "velocity": 0.2677165354330709
        },
        {
          "duration": 0.023255813953483084,
          "durationTicks": 2,
          "midi": 29,
          "name": "F1",
          "ticks": 4710,
          "time": 54.76744186046512,
          "velocity": 0.3543307086614173
        },
        {
          "duration": 0.12790697674418539,
          "durationTicks": 11,
          "midi": 47,
          "name": "B2",
          "ticks": 4710,
          "time": 54.76744186046512,
          "velocity": 0.5511811023622047
        },
        {
          "duration": 0.12790697674418539,
          "durationTicks": 11,
          "midi": 78,
          "name": "F#5",
          "ticks": 4710,
          "time": 54.76744186046512,
          "velocity": 0.2440944881889764
        },
        {
          "duration": 0.22093023255813904,
          "durationTicks": 19,
          "midi": 73,
          "name": "C#5",
          "ticks": 4712,
          "time": 54.7906976744186,
          "velocity": 0.5196850393700787
        },
        {
          "duration": 0.02325581395349019,
          "durationTicks": 2,
          "midi": 63,
          "name": "D#4",
          "ticks": 4717,
          "time": 54.848837209302324,
          "velocity": 0.4330708661417323
        },
        {
          "duration": 0.13953488372092693,
          "durationTicks": 12,
          "midi": 80,
          "name": "G#5",
          "ticks": 4718,
          "time": 54.86046511627907,
          "velocity": 0.2047244094488189
        },
        {
          "duration": 0.13953488372092693,
          "durationTicks": 12,
          "midi": 82,
          "name": "A#5",
          "ticks": 4718,
          "time": 54.86046511627907,
          "velocity": 0.31496062992125984
        },
        {
          "duration": 0.03488372093023173,
          "durationTicks": 3,
          "midi": 87,
          "name": "D#6",
          "ticks": 4718,
          "time": 54.86046511627907,
          "velocity": 0.1968503937007874
        },
        {
          "duration": 0.011627906976741542,
          "durationTicks": 1,
          "midi": 64,
          "name": "E4",
          "ticks": 4719,
          "time": 54.872093023255815,
          "velocity": 0.5826771653543307
        },
        {
          "duration": 0.12790697674418539,
          "durationTicks": 11,
          "midi": 66,
          "name": "F#4",
          "ticks": 4719,
          "time": 54.872093023255815,
          "velocity": 0.5748031496062992
        },
        {
          "duration": 0.12790697674418539,
          "durationTicks": 11,
          "midi": 90,
          "name": "F#6",
          "ticks": 4719,
          "time": 54.872093023255815,
          "velocity": 0.25196850393700787
        },
        {
          "duration": 0.12790697674418539,
          "durationTicks": 11,
          "midi": 92,
          "name": "G#6",
          "ticks": 4719,
          "time": 54.872093023255815,
          "velocity": 0.3464566929133858
        },
        {
          "duration": 0.11627906976744384,
          "durationTicks": 10,
          "midi": 54,
          "name": "F#3",
          "ticks": 4720,
          "time": 54.883720930232556,
          "velocity": 0.4409448818897638
        },
        {
          "duration": 0.011627906976748648,
          "durationTicks": 1,
          "midi": 60,
          "name": "C4",
          "ticks": 4720,
          "time": 54.883720930232556,
          "velocity": 0.5118110236220472
        },
        {
          "duration": 0.04651162790698038,
          "durationTicks": 4,
          "midi": 63,
          "name": "D#4",
          "ticks": 4720,
          "time": 54.883720930232556,
          "velocity": 0.6377952755905512
        },
        {
          "duration": 0.11627906976744384,
          "durationTicks": 10,
          "midi": 89,
          "name": "F6",
          "ticks": 4720,
          "time": 54.883720930232556,
          "velocity": 0.2125984251968504
        },
        {
          "duration": 0.11627906976743674,
          "durationTicks": 10,
          "midi": 88,
          "name": "E6",
          "ticks": 4721,
          "time": 54.895348837209305,
          "velocity": 0.36220472440944884
        },
        {
          "duration": 0.02325581395349019,
          "durationTicks": 2,
          "midi": 47,
          "name": "B2",
          "ticks": 4722,
          "time": 54.906976744186046,
          "velocity": 0.30708661417322836
        },
        {
          "duration": 0.05813953488372192,
          "durationTicks": 5,
          "midi": 61,
          "name": "C#4",
          "ticks": 4724,
          "time": 54.93023255813954,
          "velocity": 0.5669291338582677
        },
        {
          "duration": 0.011627906976741542,
          "durationTicks": 1,
          "midi": 62,
          "name": "D4",
          "ticks": 4729,
          "time": 54.98837209302326,
          "velocity": 0.6220472440944882
        },
        {
          "duration": 0.13953488372092693,
          "durationTicks": 12,
          "midi": 77,
          "name": "F5",
          "ticks": 4729,
          "time": 54.98837209302326,
          "velocity": 0.2047244094488189
        },
        {
          "duration": 0.011627906976741542,
          "durationTicks": 1,
          "midi": 45,
          "name": "A2",
          "ticks": 4730,
          "time": 55,
          "velocity": 0.5433070866141733
        },
        {
          "duration": 0.16279069767441712,
          "durationTicks": 14,
          "midi": 58,
          "name": "A#3",
          "ticks": 4730,
          "time": 55,
          "velocity": 0.5118110236220472
        },
        {
          "duration": 0.1046511627906952,
          "durationTicks": 9,
          "midi": 63,
          "name": "D#4",
          "ticks": 4730,
          "time": 55,
          "velocity": 0.6299212598425197
        },
        {
          "duration": 0.17441860465116577,
          "durationTicks": 15,
          "midi": 46,
          "name": "A#2",
          "ticks": 4731,
          "time": 55.01162790697674,
          "velocity": 0.5826771653543307
        },
        {
          "duration": 0.081395348837205,
          "durationTicks": 7,
          "midi": 73,
          "name": "C#5",
          "ticks": 4732,
          "time": 55.02325581395349,
          "velocity": 0.07874015748031496
        },
        {
          "duration": 0.02325581395349019,
          "durationTicks": 2,
          "midi": 65,
          "name": "F4",
          "ticks": 4739,
          "time": 55.104651162790695,
          "velocity": 0.25984251968503935
        },
        {
          "duration": 0.4534883720930196,
          "durationTicks": 39,
          "midi": 73,
          "name": "C#5",
          "ticks": 4740,
          "time": 55.116279069767444,
          "velocity": 0.49606299212598426
        },
        {
          "duration": 0.05813953488372192,
          "durationTicks": 5,
          "midi": 61,
          "name": "C#4",
          "ticks": 4743,
          "time": 55.151162790697676,
          "velocity": 0.14173228346456693
        },
        {
          "duration": 0.04651162790698038,
          "durationTicks": 4,
          "midi": 66,
          "name": "F#4",
          "ticks": 4744,
          "time": 55.16279069767442,
          "velocity": 0.16535433070866143
        },
        {
          "duration": 0.13953488372092693,
          "durationTicks": 12,
          "midi": 78,
          "name": "F#5",
          "ticks": 4748,
          "time": 55.2093023255814,
          "velocity": 0.18110236220472442
        },
        {
          "duration": 0.13953488372092693,
          "durationTicks": 12,
          "midi": 80,
          "name": "G#5",
          "ticks": 4748,
          "time": 55.2093023255814,
          "velocity": 0.2047244094488189
        },
        {
          "duration": 0.13953488372092693,
          "durationTicks": 12,
          "midi": 82,
          "name": "A#5",
          "ticks": 4748,
          "time": 55.2093023255814,
          "velocity": 0.2992125984251969
        },
        {
          "duration": 0.011627906976741542,
          "durationTicks": 1,
          "midi": 64,
          "name": "E4",
          "ticks": 4749,
          "time": 55.22093023255814,
          "velocity": 0.5433070866141733
        },
        {
          "duration": 0.12790697674418539,
          "durationTicks": 11,
          "midi": 88,
          "name": "E6",
          "ticks": 4749,
          "time": 55.22093023255814,
          "velocity": 0.3858267716535433
        },
        {
          "duration": 0.12790697674418539,
          "durationTicks": 11,
          "midi": 92,
          "name": "G#6",
          "ticks": 4749,
          "time": 55.22093023255814,
          "velocity": 0.33070866141732286
        },
        {
          "duration": 0.1860465116279073,
          "durationTicks": 16,
          "midi": 44,
          "name": "G#2",
          "ticks": 4750,
          "time": 55.23255813953488,
          "velocity": 0.6299212598425197
        },
        {
          "duration": 0.04651162790698038,
          "durationTicks": 4,
          "midi": 63,
          "name": "D#4",
          "ticks": 4750,
          "time": 55.23255813953488,
          "velocity": 0.6062992125984252
        },
        {
          "duration": 0.2093023255813975,
          "durationTicks": 18,
          "midi": 66,
          "name": "F#4",
          "ticks": 4750,
          "time": 55.23255813953488,
          "velocity": 0.5433070866141733
        },
        {
          "duration": 0.09302325581395365,
          "durationTicks": 8,
          "midi": 89,
          "name": "F6",
          "ticks": 4750,
          "time": 55.23255813953488,
          "velocity": 0.2204724409448819
        },
        {
          "duration": 0.11627906976744384,
          "durationTicks": 10,
          "midi": 90,
          "name": "F#6",
          "ticks": 4750,
          "time": 55.23255813953488,
          "velocity": 0.25984251968503935
        },
        {
          "duration": 0.011627906976741542,
          "durationTicks": 1,
          "midi": 55,
          "name": "G3",
          "ticks": 4753,
          "time": 55.26744186046512,
          "velocity": 0.5669291338582677
        },
        {
          "duration": 0.06976744186046346,
          "durationTicks": 6,
          "midi": 61,
          "name": "C#4",
          "ticks": 4754,
          "time": 55.27906976744186,
          "velocity": 0.5748031496062992
        },
        {
          "duration": 0.023255813953483084,
          "durationTicks": 2,
          "midi": 55,
          "name": "G3",
          "ticks": 4756,
          "time": 55.30232558139535,
          "velocity": 0.5748031496062992
        },
        {
          "duration": 0.05813953488372192,
          "durationTicks": 5,
          "midi": 61,
          "name": "C#4",
          "ticks": 4763,
          "time": 55.383720930232556,
          "velocity": 0.11811023622047244
        },
        {
          "duration": 0.13953488372093403,
          "durationTicks": 12,
          "midi": 77,
          "name": "F5",
          "ticks": 4768,
          "time": 55.44186046511628,
          "velocity": 0.4094488188976378
        },
        {
          "duration": 0.13953488372093403,
          "durationTicks": 12,
          "midi": 82,
          "name": "A#5",
          "ticks": 4768,
          "time": 55.44186046511628,
          "velocity": 0.1889763779527559
        },
        {
          "duration": 0.03488372093023173,
          "durationTicks": 3,
          "midi": 84,
          "name": "C6",
          "ticks": 4768,
          "time": 55.44186046511628,
          "velocity": 0.14960629921259844
        },
        {
          "duration": 0.15116279069767558,
          "durationTicks": 13,
          "midi": 86,
          "name": "D6",
          "ticks": 4768,
          "time": 55.44186046511628,
          "velocity": 0.48031496062992124
        },
        {
          "duration": 0.11627906976743674,
          "durationTicks": 10,
          "midi": 63,
          "name": "D#4",
          "ticks": 4769,
          "time": 55.45348837209303,
          "velocity": 0.6141732283464567
        },
        {
          "duration": 0.13953488372092693,
          "durationTicks": 12,
          "midi": 67,
          "name": "G4",
          "ticks": 4769,
          "time": 55.45348837209303,
          "velocity": 0.5748031496062992
        },
        {
          "duration": 0.12790697674418539,
          "durationTicks": 11,
          "midi": 70,
          "name": "A#4",
          "ticks": 4769,
          "time": 55.45348837209303,
          "velocity": 0.5196850393700787
        },
        {
          "duration": 0.12790697674418539,
          "durationTicks": 11,
          "midi": 92,
          "name": "G#6",
          "ticks": 4769,
          "time": 55.45348837209303,
          "velocity": 0.2992125984251969
        },
        {
          "duration": 0.09302325581395365,
          "durationTicks": 8,
          "midi": 55,
          "name": "G3",
          "ticks": 4770,
          "time": 55.46511627906977,
          "velocity": 0.5748031496062992
        },
        {
          "duration": 0.11627906976744384,
          "durationTicks": 10,
          "midi": 94,
          "name": "A#6",
          "ticks": 4770,
          "time": 55.46511627906977,
          "velocity": 0.2204724409448819
        },
        {
          "duration": 0.08139534883721211,
          "durationTicks": 7,
          "midi": 95,
          "name": "B6",
          "ticks": 4773,
          "time": 55.5,
          "velocity": 0.16535433070866143
        },
        {
          "duration": 0.13953488372092693,
          "durationTicks": 12,
          "midi": 56,
          "name": "G#3",
          "ticks": 4778,
          "time": 55.55813953488372,
          "velocity": 0.5669291338582677
        },
        {
          "duration": 0.12790697674418539,
          "durationTicks": 11,
          "midi": 87,
          "name": "D#6",
          "ticks": 4779,
          "time": 55.56976744186046,
          "velocity": 0.2283464566929134
        },
        {
          "duration": 0.03488372093023173,
          "durationTicks": 3,
          "midi": 75,
          "name": "D#5",
          "ticks": 4786,
          "time": 55.651162790697676,
          "velocity": 0.07086614173228346
        },
        {
          "duration": 0.11627906976743674,
          "durationTicks": 10,
          "midi": 70,
          "name": "A#4",
          "ticks": 4788,
          "time": 55.674418604651166,
          "velocity": 0.33858267716535434
        },
        {
          "duration": 0.27906976744186096,
          "durationTicks": 24,
          "midi": 86,
          "name": "D6",
          "ticks": 4789,
          "time": 55.68604651162791,
          "velocity": 0.3779527559055118
        },
        {
          "duration": 0.03488372093023173,
          "durationTicks": 3,
          "midi": 89,
          "name": "F6",
          "ticks": 4789,
          "time": 55.68604651162791,
          "velocity": 0.11023622047244094
        },
        {
          "duration": 0.2093023255813975,
          "durationTicks": 18,
          "midi": 58,
          "name": "A#3",
          "ticks": 4790,
          "time": 55.69767441860465,
          "velocity": 0.5590551181102362
        },
        {
          "duration": 0.09302325581395365,
          "durationTicks": 8,
          "midi": 73,
          "name": "C#5",
          "ticks": 4790,
          "time": 55.69767441860465,
          "velocity": 0.07874015748031496
        },
        {
          "duration": 0.04651162790698038,
          "durationTicks": 4,
          "midi": 67,
          "name": "G4",
          "ticks": 4793,
          "time": 55.73255813953488,
          "velocity": 0.23622047244094488
        },
        {
          "duration": 0.03488372093023173,
          "durationTicks": 3,
          "midi": 44,
          "name": "G#2",
          "ticks": 4795,
          "time": 55.75581395348837,
          "velocity": 0.11811023622047244
        },
        {
          "duration": 0.16279069767441712,
          "durationTicks": 14,
          "midi": 77,
          "name": "F5",
          "ticks": 4797,
          "time": 55.77906976744186,
          "velocity": 0.41732283464566927
        },
        {
          "duration": 0.011627906976748648,
          "durationTicks": 1,
          "midi": 64,
          "name": "E4",
          "ticks": 4798,
          "time": 55.7906976744186,
          "velocity": 0.5196850393700787
        },
        {
          "duration": 0.25581395348837077,
          "durationTicks": 22,
          "midi": 67,
          "name": "G4",
          "ticks": 4798,
          "time": 55.7906976744186,
          "velocity": 0.5669291338582677
        },
        {
          "duration": 0.02325581395349019,
          "durationTicks": 2,
          "midi": 88,
          "name": "E6",
          "ticks": 4798,
          "time": 55.7906976744186,
          "velocity": 0.2283464566929134
        },
        {
          "duration": 0.081395348837205,
          "durationTicks": 7,
          "midi": 63,
          "name": "D#4",
          "ticks": 4799,
          "time": 55.80232558139535,
          "velocity": 0.6141732283464567
        },
        {
          "duration": 0.12790697674418539,
          "durationTicks": 11,
          "midi": 92,
          "name": "G#6",
          "ticks": 4799,
          "time": 55.80232558139535,
          "velocity": 0.30708661417322836
        },
        {
          "duration": 0.12790697674418539,
          "durationTicks": 11,
          "midi": 94,
          "name": "A#6",
          "ticks": 4799,
          "time": 55.80232558139535,
          "velocity": 0.28346456692913385
        },
        {
          "duration": 0.1046511627906952,
          "durationTicks": 9,
          "midi": 95,
          "name": "B6",
          "ticks": 4800,
          "time": 55.81395348837209,
          "velocity": 0.1968503937007874
        },
        {
          "duration": 0.08139534883721211,
          "durationTicks": 7,
          "midi": 96,
          "name": "C7",
          "ticks": 4801,
          "time": 55.825581395348834,
          "velocity": 0.14173228346456693
        },
        {
          "duration": 0.13953488372092693,
          "durationTicks": 12,
          "midi": 63,
          "name": "D#4",
          "ticks": 4807,
          "time": 55.895348837209305,
          "velocity": 0.6220472440944882
        },
        {
          "duration": 0.03488372093023173,
          "durationTicks": 3,
          "midi": 83,
          "name": "B5",
          "ticks": 4808,
          "time": 55.906976744186046,
          "velocity": 0.13385826771653545
        },
        {
          "duration": 0.11627906976744384,
          "durationTicks": 10,
          "midi": 55,
          "name": "G3",
          "ticks": 4809,
          "time": 55.91860465116279,
          "velocity": 0.5354330708661418
        },
        {
          "duration": 0.03488372093023884,
          "durationTicks": 3,
          "midi": 72,
          "name": "C5",
          "ticks": 4809,
          "time": 55.91860465116279,
          "velocity": 0.23622047244094488
        },
        {
          "duration": 0.03488372093023173,
          "durationTicks": 3,
          "midi": 86,
          "name": "D6",
          "ticks": 4817,
          "time": 56.01162790697674,
          "velocity": 0.11023622047244094
        },
        {
          "duration": 0.11627906976744384,
          "durationTicks": 10,
          "midi": 56,
          "name": "G#3",
          "ticks": 4819,
          "time": 56.03488372093023,
          "velocity": 0.5275590551181102
        },
        {
          "duration": 0.046511627906973274,
          "durationTicks": 4,
          "midi": 70,
          "name": "A#4",
          "ticks": 4821,
          "time": 56.05813953488372,
          "velocity": 0.15748031496062992
        },
        {
          "duration": 0.09302325581395365,
          "durationTicks": 8,
          "midi": 75,
          "name": "D#5",
          "ticks": 4821,
          "time": 56.05813953488372,
          "velocity": 0.2677165354330709
        },
        {
          "duration": 0.3720930232558146,
          "durationTicks": 32,
          "midi": 70,
          "name": "A#4",
          "ticks": 4826,
          "time": 56.116279069767444,
          "velocity": 0.49606299212598426
        },
        {
          "duration": 0.02325581395349019,
          "durationTicks": 2,
          "midi": 64,
          "name": "E4",
          "ticks": 4827,
          "time": 56.127906976744185,
          "velocity": 0.5118110236220472
        },
        {
          "duration": 0.17441860465116577,
          "durationTicks": 15,
          "midi": 77,
          "name": "F5",
          "ticks": 4827,
          "time": 56.127906976744185,
          "velocity": 0.4409448818897638
        },
        {
          "duration": 0.38372093023255616,
          "durationTicks": 33,
          "midi": 79,
          "name": "G5",
          "ticks": 4827,
          "time": 56.127906976744185,
          "velocity": 0.41732283464566927
        },
        {
          "duration": 0.1279069767441925,
          "durationTicks": 11,
          "midi": 94,
          "name": "A#6",
          "ticks": 4828,
          "time": 56.13953488372093,
          "velocity": 0.2283464566929134
        },
        {
          "duration": 0.13953488372092693,
          "durationTicks": 12,
          "midi": 58,
          "name": "A#3",
          "ticks": 4829,
          "time": 56.151162790697676,
          "velocity": 0.5118110236220472
        },
        {
          "duration": 0.11627906976744384,
          "durationTicks": 10,
          "midi": 63,
          "name": "D#4",
          "ticks": 4829,
          "time": 56.151162790697676,
          "velocity": 0.6062992125984252
        },
        {
          "duration": 0.3720930232558146,
          "durationTicks": 32,
          "midi": 67,
          "name": "G4",
          "ticks": 4829,
          "time": 56.151162790697676,
          "velocity": 0.5511811023622047
        },
        {
          "duration": 0.12790697674418539,
          "durationTicks": 11,
          "midi": 86,
          "name": "D6",
          "ticks": 4829,
          "time": 56.151162790697676,
          "velocity": 0.5039370078740157
        },
        {
          "duration": 0.03488372093023173,
          "durationTicks": 3,
          "midi": 92,
          "name": "G#6",
          "ticks": 4829,
          "time": 56.151162790697676,
          "velocity": 0.31496062992125984
        },
        {
          "duration": 0.03488372093023173,
          "durationTicks": 3,
          "midi": 95,
          "name": "B6",
          "ticks": 4829,
          "time": 56.151162790697676,
          "velocity": 0.14960629921259844
        },
        {
          "duration": 0.046511627906973274,
          "durationTicks": 4,
          "midi": 92,
          "name": "G#6",
          "ticks": 4837,
          "time": 56.24418604651163,
          "velocity": 0.2125984251968504
        },
        {
          "duration": 0.09302325581395365,
          "durationTicks": 8,
          "midi": 60,
          "name": "C4",
          "ticks": 4840,
          "time": 56.27906976744186,
          "velocity": 0.4330708661417323
        },
        {
          "duration": 0.03488372093023173,
          "durationTicks": 3,
          "midi": 77,
          "name": "F5",
          "ticks": 4847,
          "time": 56.36046511627907,
          "velocity": 0.1889763779527559
        },
        {
          "duration": 0.16279069767441712,
          "durationTicks": 14,
          "midi": 63,
          "name": "D#4",
          "ticks": 4848,
          "time": 56.372093023255815,
          "velocity": 0.6692913385826772
        },
        {
          "duration": 0.05813953488372192,
          "durationTicks": 5,
          "midi": 74,
          "name": "D5",
          "ticks": 4848,
          "time": 56.372093023255815,
          "velocity": 0.4409448818897638
        },
        {
          "duration": 0.12790697674418539,
          "durationTicks": 11,
          "midi": 83,
          "name": "B5",
          "ticks": 4848,
          "time": 56.372093023255815,
          "velocity": 0.29133858267716534
        },
        {
          "duration": 0.046511627906973274,
          "durationTicks": 4,
          "midi": 88,
          "name": "E6",
          "ticks": 4848,
          "time": 56.372093023255815,
          "velocity": 0.25984251968503935
        },
        {
          "duration": 0.13953488372092693,
          "durationTicks": 12,
          "midi": 94,
          "name": "A#6",
          "ticks": 4848,
          "time": 56.372093023255815,
          "velocity": 0.3464566929133858
        },
        {
          "duration": 0.11627906976744384,
          "durationTicks": 10,
          "midi": 55,
          "name": "G3",
          "ticks": 4849,
          "time": 56.383720930232556,
          "velocity": 0.6062992125984252
        },
        {
          "duration": 0.06976744186047057,
          "durationTicks": 6,
          "midi": 89,
          "name": "F6",
          "ticks": 4852,
          "time": 56.41860465116279,
          "velocity": 0.33858267716535434
        },
        {
          "duration": 0.03488372093023173,
          "durationTicks": 3,
          "midi": 28,
          "name": "E1",
          "ticks": 4858,
          "time": 56.48837209302326,
          "velocity": 0.2047244094488189
        },
        {
          "duration": 0.11627906976744384,
          "durationTicks": 10,
          "midi": 56,
          "name": "G#3",
          "ticks": 4859,
          "time": 56.5,
          "velocity": 0.5590551181102362
        },
        {
          "duration": 0.03488372093023173,
          "durationTicks": 3,
          "midi": 64,
          "name": "E4",
          "ticks": 4862,
          "time": 56.53488372093023,
          "velocity": 0.07086614173228346
        },
        {
          "duration": 0.046511627906973274,
          "durationTicks": 4,
          "midi": 77,
          "name": "F5",
          "ticks": 4867,
          "time": 56.593023255813954,
          "velocity": 0.25196850393700787
        },
        {
          "duration": 0.03488372093023173,
          "durationTicks": 3,
          "midi": 79,
          "name": "G5",
          "ticks": 4867,
          "time": 56.593023255813954,
          "velocity": 0.2283464566929134
        },
        {
          "duration": 0.03488372093023173,
          "durationTicks": 3,
          "midi": 84,
          "name": "C6",
          "ticks": 4867,
          "time": 56.593023255813954,
          "velocity": 0.2204724409448819
        },
        {
          "duration": 0.11627906976744384,
          "durationTicks": 10,
          "midi": 65,
          "name": "F4",
          "ticks": 4868,
          "time": 56.604651162790695,
          "velocity": 0.6299212598425197
        },
        {
          "duration": 0.02325581395349019,
          "durationTicks": 2,
          "midi": 73,
          "name": "C#5",
          "ticks": 4868,
          "time": 56.604651162790695,
          "velocity": 0.25984251968503935
        },
        {
          "duration": 0.02325581395349019,
          "durationTicks": 2,
          "midi": 81,
          "name": "A5",
          "ticks": 4868,
          "time": 56.604651162790695,
          "velocity": 0.2283464566929134
        },
        {
          "duration": 0.011627906976741542,
          "durationTicks": 1,
          "midi": 57,
          "name": "A3",
          "ticks": 4869,
          "time": 56.616279069767444,
          "velocity": 0.5196850393700787
        },
        {
          "duration": 0.1046511627906952,
          "durationTicks": 9,
          "midi": 58,
          "name": "A#3",
          "ticks": 4870,
          "time": 56.627906976744185,
          "velocity": 0.5196850393700787
        },
        {
          "duration": 0.16279069767441712,
          "durationTicks": 14,
          "midi": 86,
          "name": "D6",
          "ticks": 4874,
          "time": 56.674418604651166,
          "velocity": 0.33858267716535434
        },
        {
          "duration": 0.023255813953483084,
          "durationTicks": 2,
          "midi": 62,
          "name": "D4",
          "ticks": 4877,
          "time": 56.7093023255814,
          "velocity": 0.5669291338582677
        },
        {
          "duration": 0.13953488372092693,
          "durationTicks": 12,
          "midi": 67,
          "name": "G4",
          "ticks": 4877,
          "time": 56.7093023255814,
          "velocity": 0.5433070866141733
        },
        {
          "duration": 0.12790697674418539,
          "durationTicks": 11,
          "midi": 83,
          "name": "B5",
          "ticks": 4877,
          "time": 56.7093023255814,
          "velocity": 0.3228346456692913
        },
        {
          "duration": 0.1046511627906952,
          "durationTicks": 9,
          "midi": 87,
          "name": "D#6",
          "ticks": 4878,
          "time": 56.72093023255814,
          "velocity": 0.14960629921259844
        },
        {
          "duration": 0.13953488372093403,
          "durationTicks": 12,
          "midi": 89,
          "name": "F6",
          "ticks": 4878,
          "time": 56.72093023255814,
          "velocity": 0.3779527559055118
        },
        {
          "duration": 0.13953488372093403,
          "durationTicks": 12,
          "midi": 91,
          "name": "G6",
          "ticks": 4878,
          "time": 56.72093023255814,
          "velocity": 0.30708661417322836
        },
        {
          "duration": 0.19767441860464885,
          "durationTicks": 17,
          "midi": 94,
          "name": "A#6",
          "ticks": 4878,
          "time": 56.72093023255814,
          "velocity": 0.33858267716535434
        },
        {
          "duration": 0.16279069767442422,
          "durationTicks": 14,
          "midi": 55,
          "name": "G3",
          "ticks": 4879,
          "time": 56.73255813953488,
          "velocity": 0.48031496062992124
        },
        {
          "duration": 0.19767441860465595,
          "durationTicks": 17,
          "midi": 63,
          "name": "D#4",
          "ticks": 4879,
          "time": 56.73255813953488,
          "velocity": 0.6614173228346457
        },
        {
          "duration": 0.13953488372093403,
          "durationTicks": 12,
          "midi": 72,
          "name": "C5",
          "ticks": 4879,
          "time": 56.73255813953488,
          "velocity": 0.33858267716535434
        },
        {
          "duration": 0.023255813953483084,
          "durationTicks": 2,
          "midi": 60,
          "name": "C4",
          "ticks": 4882,
          "time": 56.76744186046512,
          "velocity": 0.4094488188976378
        },
        {
          "duration": 0.15116279069767558,
          "durationTicks": 13,
          "midi": 82,
          "name": "A#5",
          "ticks": 4886,
          "time": 56.81395348837209,
          "velocity": 0.2992125984251969
        },
        {
          "duration": 0.40697674418604635,
          "durationTicks": 35,
          "midi": 67,
          "name": "G4",
          "ticks": 4892,
          "time": 56.883720930232556,
          "velocity": 0.5511811023622047
        },
        {
          "duration": 0.12790697674418539,
          "durationTicks": 11,
          "midi": 63,
          "name": "D#4",
          "ticks": 4897,
          "time": 56.94186046511628,
          "velocity": 0.3228346456692913
        },
        {
          "duration": 0.04651162790698038,
          "durationTicks": 4,
          "midi": 55,
          "name": "G3",
          "ticks": 4903,
          "time": 57.01162790697674,
          "velocity": 0.11023622047244094
        },
        {
          "duration": 0.02325581395349019,
          "durationTicks": 2,
          "midi": 64,
          "name": "E4",
          "ticks": 4907,
          "time": 57.05813953488372,
          "velocity": 0.5433070866141733
        },
        {
          "duration": 0.15116279069767558,
          "durationTicks": 13,
          "midi": 83,
          "name": "B5",
          "ticks": 4907,
          "time": 57.05813953488372,
          "velocity": 0.2755905511811024
        },
        {
          "duration": 0.13953488372092693,
          "durationTicks": 12,
          "midi": 86,
          "name": "D6",
          "ticks": 4907,
          "time": 57.05813953488372,
          "velocity": 0.23622047244094488
        },
        {
          "duration": 0.02325581395349019,
          "durationTicks": 2,
          "midi": 74,
          "name": "D5",
          "ticks": 4908,
          "time": 57.06976744186046,
          "velocity": 0.4409448818897638
        },
        {
          "duration": 0.12790697674418539,
          "durationTicks": 11,
          "midi": 89,
          "name": "F6",
          "ticks": 4908,
          "time": 57.06976744186046,
          "velocity": 0.2283464566929134
        },
        {
          "duration": 0.17441860465116577,
          "durationTicks": 15,
          "midi": 94,
          "name": "A#6",
          "ticks": 4908,
          "time": 57.06976744186046,
          "velocity": 0.29133858267716534
        },
        {
          "duration": 0.2093023255813904,
          "durationTicks": 18,
          "midi": 55,
          "name": "G3",
          "ticks": 4909,
          "time": 57.08139534883721,
          "velocity": 0.47244094488188976
        },
        {
          "duration": 0.11627906976743674,
          "durationTicks": 10,
          "midi": 63,
          "name": "D#4",
          "ticks": 4909,
          "time": 57.08139534883721,
          "velocity": 0.5826771653543307
        },
        {
          "duration": 0.09302325581395365,
          "durationTicks": 8,
          "midi": 82,
          "name": "A#5",
          "ticks": 4909,
          "time": 57.08139534883721,
          "velocity": 0.2283464566929134
        },
        {
          "duration": 0.06976744186046346,
          "durationTicks": 6,
          "midi": 91,
          "name": "G6",
          "ticks": 4913,
          "time": 57.127906976744185,
          "velocity": 0.2992125984251969
        },
        {
          "duration": 0.02325581395349019,
          "durationTicks": 2,
          "midi": 62,
          "name": "D4",
          "ticks": 4919,
          "time": 57.19767441860465,
          "velocity": 0.3228346456692913
        },
        {
          "duration": 0.32558139534883423,
          "durationTicks": 28,
          "midi": 63,
          "name": "D#4",
          "ticks": 4921,
          "time": 57.22093023255814,
          "velocity": 0.6377952755905512
        },
        {
          "duration": 0.04651162790698038,
          "durationTicks": 4,
          "midi": 94,
          "name": "A#6",
          "ticks": 4924,
          "time": 57.25581395348837,
          "velocity": 0.14960629921259844
        },
        {
          "duration": 0.02325581395349019,
          "durationTicks": 2,
          "midi": 56,
          "name": "G#3",
          "ticks": 4927,
          "time": 57.2906976744186,
          "velocity": 0.33858267716535434
        },
        {
          "duration": 0.1860465116279073,
          "durationTicks": 16,
          "midi": 68,
          "name": "G#4",
          "ticks": 4927,
          "time": 57.2906976744186,
          "velocity": 0.5748031496062992
        },
        {
          "duration": 0.24418604651162923,
          "durationTicks": 21,
          "midi": 71,
          "name": "B4",
          "ticks": 4927,
          "time": 57.2906976744186,
          "velocity": 0.5590551181102362
        },
        {
          "duration": 0.13953488372093403,
          "durationTicks": 12,
          "midi": 78,
          "name": "F#5",
          "ticks": 4927,
          "time": 57.2906976744186,
          "velocity": 0.4094488188976378
        },
        {
          "duration": 0.15116279069767558,
          "durationTicks": 13,
          "midi": 87,
          "name": "D#6",
          "ticks": 4927,
          "time": 57.2906976744186,
          "velocity": 0.41732283464566927
        },
        {
          "duration": 0.03488372093023173,
          "durationTicks": 3,
          "midi": 74,
          "name": "D5",
          "ticks": 4928,
          "time": 57.30232558139535,
          "velocity": 0.2047244094488189
        },
        {
          "duration": 0.081395348837205,
          "durationTicks": 7,
          "midi": 93,
          "name": "A6",
          "ticks": 4928,
          "time": 57.30232558139535,
          "velocity": 0.30708661417322836
        },
        {
          "duration": 0.12790697674418539,
          "durationTicks": 11,
          "midi": 95,
          "name": "B6",
          "ticks": 4928,
          "time": 57.30232558139535,
          "velocity": 0.3228346456692913
        },
        {
          "duration": 0.1046511627906952,
          "durationTicks": 9,
          "midi": 96,
          "name": "C7",
          "ticks": 4929,
          "time": 57.31395348837209,
          "velocity": 0.2204724409448819
        },
        {
          "duration": 0.1046511627907023,
          "durationTicks": 9,
          "midi": 59,
          "name": "B3",
          "ticks": 4930,
          "time": 57.325581395348834,
          "velocity": 0.44881889763779526
        },
        {
          "duration": 0.05813953488372192,
          "durationTicks": 5,
          "midi": 97,
          "name": "C#7",
          "ticks": 4931,
          "time": 57.33720930232558,
          "velocity": 0.14173228346456693
        },
        {
          "duration": 0.06976744186047057,
          "durationTicks": 6,
          "midi": 94,
          "name": "A#6",
          "ticks": 4935,
          "time": 57.383720930232556,
          "velocity": 0.08661417322834646
        },
        {
          "duration": 0.023255813953483084,
          "durationTicks": 2,
          "midi": 93,
          "name": "A6",
          "ticks": 4936,
          "time": 57.395348837209305,
          "velocity": 0.2677165354330709
        },
        {
          "duration": 0.08139534883721211,
          "durationTicks": 7,
          "midi": 59,
          "name": "B3",
          "ticks": 4940,
          "time": 57.44186046511628,
          "velocity": 0.14960629921259844
        },
        {
          "duration": 0.03488372093023173,
          "durationTicks": 3,
          "midi": 67,
          "name": "G4",
          "ticks": 4943,
          "time": 57.47674418604651,
          "velocity": 0.07086614173228346
        },
        {
          "duration": 0.046511627906973274,
          "durationTicks": 4,
          "midi": 82,
          "name": "A#5",
          "ticks": 4945,
          "time": 57.5,
          "velocity": 0.12598425196850394
        },
        {
          "duration": 0.03488372093023173,
          "durationTicks": 3,
          "midi": 54,
          "name": "F#3",
          "ticks": 4947,
          "time": 57.52325581395349,
          "velocity": 0.14173228346456693
        },
        {
          "duration": 0.11627906976743674,
          "durationTicks": 10,
          "midi": 60,
          "name": "C4",
          "ticks": 4947,
          "time": 57.52325581395349,
          "velocity": 0.4094488188976378
        },
        {
          "duration": 0.09302325581395365,
          "durationTicks": 8,
          "midi": 79,
          "name": "G5",
          "ticks": 4950,
          "time": 57.55813953488372,
          "velocity": 0.30708661417322836
        },
        {
          "duration": 0.023255813953483084,
          "durationTicks": 2,
          "midi": 68,
          "name": "G#4",
          "ticks": 4952,
          "time": 57.58139534883721,
          "velocity": 0.2283464566929134
        },
        {
          "duration": 0.03488372093023173,
          "durationTicks": 3,
          "midi": 67,
          "name": "G4",
          "ticks": 4954,
          "time": 57.604651162790695,
          "velocity": 0.15748031496062992
        },
        {
          "duration": 0.2674418604651194,
          "durationTicks": 23,
          "midi": 63,
          "name": "D#4",
          "ticks": 4956,
          "time": 57.627906976744185,
          "velocity": 0.6141732283464567
        },
        {
          "duration": 0.24418604651162923,
          "durationTicks": 21,
          "midi": 68,
          "name": "G#4",
          "ticks": 4957,
          "time": 57.63953488372093,
          "velocity": 0.5354330708661418
        },
        {
          "duration": 0.15116279069767558,
          "durationTicks": 13,
          "midi": 71,
          "name": "B4",
          "ticks": 4957,
          "time": 57.63953488372093,
          "velocity": 0.5433070866141733
        },
        {
          "duration": 0.16279069767442422,
          "durationTicks": 14,
          "midi": 87,
          "name": "D#6",
          "ticks": 4957,
          "time": 57.63953488372093,
          "velocity": 0.5354330708661418
        },
        {
          "duration": 0.11627906976744384,
          "durationTicks": 10,
          "midi": 59,
          "name": "B3",
          "ticks": 4958,
          "time": 57.651162790697676,
          "velocity": 0.4645669291338583
        },
        {
          "duration": 0.12790697674418539,
          "durationTicks": 11,
          "midi": 78,
          "name": "F#5",
          "ticks": 4958,
          "time": 57.651162790697676,
          "velocity": 0.4015748031496063
        },
        {
          "duration": 0.081395348837205,
          "durationTicks": 7,
          "midi": 96,
          "name": "C7",
          "ticks": 4958,
          "time": 57.651162790697676,
          "velocity": 0.09448818897637795
        },
        {
          "duration": 0.03488372093023173,
          "durationTicks": 3,
          "midi": 93,
          "name": "A6",
          "ticks": 4961,
          "time": 57.68604651162791,
          "velocity": 0.16535433070866143
        },
        {
          "duration": 0.04651162790698038,
          "durationTicks": 4,
          "midi": 93,
          "name": "A6",
          "ticks": 4965,
          "time": 57.73255813953488,
          "velocity": 0.23622047244094488
        },
        {
          "duration": 0.16279069767441712,
          "durationTicks": 14,
          "midi": 58,
          "name": "A#3",
          "ticks": 4968,
          "time": 57.76744186046512,
          "velocity": 0.5039370078740157
        },
        {
          "duration": 0.1046511627907023,
          "durationTicks": 9,
          "midi": 71,
          "name": "B4",
          "ticks": 4978,
          "time": 57.883720930232556,
          "velocity": 0.1889763779527559
        },
        {
          "duration": 0.3139534883720927,
          "durationTicks": 27,
          "midi": 68,
          "name": "G#4",
          "ticks": 4980,
          "time": 57.906976744186046,
          "velocity": 0.5196850393700787
        },
        {
          "duration": 0.03488372093023173,
          "durationTicks": 3,
          "midi": 59,
          "name": "B3",
          "ticks": 4984,
          "time": 57.95348837209303,
          "velocity": 0.13385826771653545
        },
        {
          "duration": 0.16279069767441712,
          "durationTicks": 14,
          "midi": 87,
          "name": "D#6",
          "ticks": 4985,
          "time": 57.96511627906977,
          "velocity": 0.44881889763779526
        },
        {
          "duration": 0.15116279069767558,
          "durationTicks": 13,
          "midi": 78,
          "name": "F#5",
          "ticks": 4986,
          "time": 57.97674418604651,
          "velocity": 0.4094488188976378
        },
        {
          "duration": 0.03488372093023173,
          "durationTicks": 3,
          "midi": 57,
          "name": "A3",
          "ticks": 4987,
          "time": 57.98837209302326,
          "velocity": 0.5118110236220472
        },
        {
          "duration": 0.023255813953483084,
          "durationTicks": 2,
          "midi": 75,
          "name": "D#5",
          "ticks": 4987,
          "time": 57.98837209302326,
          "velocity": 0.23622047244094488
        },
        {
          "duration": 0.16279069767441712,
          "durationTicks": 14,
          "midi": 63,
          "name": "D#4",
          "ticks": 4988,
          "time": 58,
          "velocity": 0.5984251968503937
        },
        {
          "duration": 0.22093023255813904,
          "durationTicks": 19,
          "midi": 71,
          "name": "B4",
          "ticks": 4988,
          "time": 58,
          "velocity": 0.5354330708661418
        },
        {
          "duration": 0.12790697674418539,
          "durationTicks": 11,
          "midi": 93,
          "name": "A6",
          "ticks": 4988,
          "time": 58,
          "velocity": 0.31496062992125984
        },
        {
          "duration": 0.11627906976744384,
          "durationTicks": 10,
          "midi": 95,
          "name": "B6",
          "ticks": 4988,
          "time": 58,
          "velocity": 0.2047244094488189
        },
        {
          "duration": 0.13953488372092693,
          "durationTicks": 12,
          "midi": 56,
          "name": "G#3",
          "ticks": 4990,
          "time": 58.02325581395349,
          "velocity": 0.5118110236220472
        },
        {
          "duration": 0.08139534883721211,
          "durationTicks": 7,
          "midi": 96,
          "name": "C7",
          "ticks": 4991,
          "time": 58.03488372093023,
          "velocity": 0.13385826771653545
        },
        {
          "duration": 0.17441860465115866,
          "durationTicks": 15,
          "midi": 87,
          "name": "D#6",
          "ticks": 5003,
          "time": 58.174418604651166,
          "velocity": 0.33858267716535434
        },
        {
          "duration": 0.03488372093023173,
          "durationTicks": 3,
          "midi": 64,
          "name": "E4",
          "ticks": 5006,
          "time": 58.2093023255814,
          "velocity": 0.6614173228346457
        },
        {
          "duration": 0.02325581395349019,
          "durationTicks": 2,
          "midi": 69,
          "name": "A4",
          "ticks": 5007,
          "time": 58.22093023255814,
          "velocity": 0.2992125984251969
        },
        {
          "duration": 0.09302325581395365,
          "durationTicks": 8,
          "midi": 72,
          "name": "C5",
          "ticks": 5007,
          "time": 58.22093023255814,
          "velocity": 0.4566929133858268
        },
        {
          "duration": 0.12790697674418539,
          "durationTicks": 11,
          "midi": 77,
          "name": "F5",
          "ticks": 5007,
          "time": 58.22093023255814,
          "velocity": 0.25196850393700787
        },
        {
          "duration": 0.13953488372093403,
          "durationTicks": 12,
          "midi": 85,
          "name": "C#6",
          "ticks": 5007,
          "time": 58.22093023255814,
          "velocity": 0.18110236220472442
        },
        {
          "duration": 0.12790697674418539,
          "durationTicks": 11,
          "midi": 89,
          "name": "F6",
          "ticks": 5007,
          "time": 58.22093023255814,
          "velocity": 0.2992125984251969
        },
        {
          "duration": 0.13953488372093403,
          "durationTicks": 12,
          "midi": 92,
          "name": "G#6",
          "ticks": 5007,
          "time": 58.22093023255814,
          "velocity": 0.31496062992125984
        },
        {
          "duration": 0.02325581395349019,
          "durationTicks": 2,
          "midi": 53,
          "name": "F3",
          "ticks": 5008,
          "time": 58.23255813953488,
          "velocity": 0.5748031496062992
        },
        {
          "duration": 0.04651162790698038,
          "durationTicks": 4,
          "midi": 91,
          "name": "G6",
          "ticks": 5008,
          "time": 58.23255813953488,
          "velocity": 0.09448818897637795
        },
        {
          "duration": 0.03488372093023173,
          "durationTicks": 3,
          "midi": 63,
          "name": "D#4",
          "ticks": 5009,
          "time": 58.24418604651163,
          "velocity": 0.6456692913385826
        },
        {
          "duration": 0.03488372093023173,
          "durationTicks": 3,
          "midi": 54,
          "name": "F#3",
          "ticks": 5010,
          "time": 58.25581395348837,
          "velocity": 0.5590551181102362
        },
        {
          "duration": 0.081395348837205,
          "durationTicks": 7,
          "midi": 65,
          "name": "F4",
          "ticks": 5011,
          "time": 58.26744186046512,
          "velocity": 0.5748031496062992
        },
        {
          "duration": 0.023255813953483084,
          "durationTicks": 2,
          "midi": 73,
          "name": "C#5",
          "ticks": 5011,
          "time": 58.26744186046512,
          "velocity": 0.3779527559055118
        },
        {
          "duration": 0.09302325581395365,
          "durationTicks": 8,
          "midi": 61,
          "name": "C#4",
          "ticks": 5012,
          "time": 58.27906976744186,
          "velocity": 0.5748031496062992
        },
        {
          "duration": 0.02325581395349019,
          "durationTicks": 2,
          "midi": 55,
          "name": "G3",
          "ticks": 5013,
          "time": 58.2906976744186,
          "velocity": 0.4015748031496063
        },
        {
          "duration": 0.02325581395349019,
          "durationTicks": 2,
          "midi": 54,
          "name": "F#3",
          "ticks": 5015,
          "time": 58.31395348837209,
          "velocity": 0.5511811023622047
        },
        {
          "duration": 0.011627906976741542,
          "durationTicks": 1,
          "midi": 53,
          "name": "F3",
          "ticks": 5017,
          "time": 58.33720930232558,
          "velocity": 0.5433070866141733
        },
        {
          "duration": 0.081395348837205,
          "durationTicks": 7,
          "midi": 72,
          "name": "C5",
          "ticks": 5017,
          "time": 58.33720930232558,
          "velocity": 0.28346456692913385
        },
        {
          "duration": 0.06976744186046346,
          "durationTicks": 6,
          "midi": 54,
          "name": "F#3",
          "ticks": 5018,
          "time": 58.348837209302324,
          "velocity": 0.44881889763779526
        },
        {
          "duration": 0.22093023255813904,
          "durationTicks": 19,
          "midi": 65,
          "name": "F4",
          "ticks": 5019,
          "time": 58.36046511627907,
          "velocity": 0.5905511811023622
        },
        {
          "duration": 0.08139534883721211,
          "durationTicks": 7,
          "midi": 87,
          "name": "D#6",
          "ticks": 5026,
          "time": 58.44186046511628,
          "velocity": 0.2204724409448819
        },
        {
          "duration": 0.23255813953488058,
          "durationTicks": 20,
          "midi": 53,
          "name": "F3",
          "ticks": 5027,
          "time": 58.45348837209303,
          "velocity": 0.5511811023622047
        },
        {
          "duration": 0.1046511627906952,
          "durationTicks": 9,
          "midi": 71,
          "name": "B4",
          "ticks": 5028,
          "time": 58.46511627906977,
          "velocity": 0.23622047244094488
        },
        {
          "duration": 0.23255813953488058,
          "durationTicks": 20,
          "midi": 84,
          "name": "C6",
          "ticks": 5028,
          "time": 58.46511627906977,
          "velocity": 0.2204724409448819
        },
        {
          "duration": 0.081395348837205,
          "durationTicks": 7,
          "midi": 61,
          "name": "C#4",
          "ticks": 5030,
          "time": 58.48837209302326,
          "velocity": 0.2677165354330709
        },
        {
          "duration": 0.05813953488372192,
          "durationTicks": 5,
          "midi": 68,
          "name": "G#4",
          "ticks": 5031,
          "time": 58.5,
          "velocity": 0.13385826771653545
        },
        {
          "duration": 0.081395348837205,
          "durationTicks": 7,
          "midi": 72,
          "name": "C5",
          "ticks": 5036,
          "time": 58.55813953488372,
          "velocity": 0.4645669291338583
        },
        {
          "duration": 0.15116279069767558,
          "durationTicks": 13,
          "midi": 81,
          "name": "A5",
          "ticks": 5036,
          "time": 58.55813953488372,
          "velocity": 0.2755905511811024
        },
        {
          "duration": 0.02325581395349019,
          "durationTicks": 2,
          "midi": 60,
          "name": "C4",
          "ticks": 5037,
          "time": 58.56976744186046,
          "velocity": 0.48031496062992124
        },
        {
          "duration": 0.12790697674418539,
          "durationTicks": 11,
          "midi": 87,
          "name": "D#6",
          "ticks": 5037,
          "time": 58.56976744186046,
          "velocity": 0.23622047244094488
        },
        {
          "duration": 0.011627906976741542,
          "durationTicks": 1,
          "midi": 64,
          "name": "E4",
          "ticks": 5038,
          "time": 58.58139534883721,
          "velocity": 0.6220472440944882
        },
        {
          "duration": 0.11627906976743674,
          "durationTicks": 10,
          "midi": 92,
          "name": "G#6",
          "ticks": 5038,
          "time": 58.58139534883721,
          "velocity": 0.33070866141732286
        },
        {
          "duration": 0.02325581395349019,
          "durationTicks": 2,
          "midi": 63,
          "name": "D#4",
          "ticks": 5039,
          "time": 58.593023255813954,
          "velocity": 0.6456692913385826
        },
        {
          "duration": 0.08139534883721211,
          "durationTicks": 7,
          "midi": 61,
          "name": "C#4",
          "ticks": 5040,
          "time": 58.604651162790695,
          "velocity": 0.5826771653543307
        },
        {
          "duration": 0.081395348837205,
          "durationTicks": 7,
          "midi": 65,
          "name": "F4",
          "ticks": 5041,
          "time": 58.616279069767444,
          "velocity": 0.5669291338582677
        },
        {
          "duration": 0.08139534883721211,
          "durationTicks": 7,
          "midi": 89,
          "name": "F6",
          "ticks": 5042,
          "time": 58.627906976744185,
          "velocity": 0.2677165354330709
        },
        {
          "duration": 0.06976744186046346,
          "durationTicks": 6,
          "midi": 72,
          "name": "C5",
          "ticks": 5046,
          "time": 58.674418604651166,
          "velocity": 0.4094488188976378
        },
        {
          "duration": 0.03488372093023173,
          "durationTicks": 3,
          "midi": 75,
          "name": "D#5",
          "ticks": 5046,
          "time": 58.674418604651166,
          "velocity": 0.18110236220472442
        },
        {
          "duration": 0.03488372093023173,
          "durationTicks": 3,
          "midi": 80,
          "name": "G#5",
          "ticks": 5046,
          "time": 58.674418604651166,
          "velocity": 0.1968503937007874
        },
        {
          "duration": 0.011627906976741542,
          "durationTicks": 1,
          "midi": 62,
          "name": "D4",
          "ticks": 5047,
          "time": 58.68604651162791,
          "velocity": 0.5984251968503937
        },
        {
          "duration": 0.02325581395349019,
          "durationTicks": 2,
          "midi": 29,
          "name": "F1",
          "ticks": 5048,
          "time": 58.69767441860465,
          "velocity": 0.28346456692913385
        },
        {
          "duration": 0.16279069767442422,
          "durationTicks": 14,
          "midi": 51,
          "name": "D#3",
          "ticks": 5048,
          "time": 58.69767441860465,
          "velocity": 0.5669291338582677
        },
        {
          "duration": 0.05813953488372192,
          "durationTicks": 5,
          "midi": 63,
          "name": "D#4",
          "ticks": 5048,
          "time": 58.69767441860465,
          "velocity": 0.5984251968503937
        },
        {
          "duration": 0.12790697674418539,
          "durationTicks": 11,
          "midi": 82,
          "name": "A#5",
          "ticks": 5048,
          "time": 58.69767441860465,
          "velocity": 0.15748031496062992
        },
        {
          "duration": 0.16279069767441712,
          "durationTicks": 14,
          "midi": 65,
          "name": "F4",
          "ticks": 5053,
          "time": 58.75581395348837,
          "velocity": 0.3937007874015748
        },
        {
          "duration": 0.06976744186046346,
          "durationTicks": 6,
          "midi": 61,
          "name": "C#4",
          "ticks": 5060,
          "time": 58.83720930232558,
          "velocity": 0.1889763779527559
        },
        {
          "duration": 0.06976744186046346,
          "durationTicks": 6,
          "midi": 72,
          "name": "C5",
          "ticks": 5066,
          "time": 58.906976744186046,
          "velocity": 0.4566929133858268
        },
        {
          "duration": 0.08139534883721211,
          "durationTicks": 7,
          "midi": 81,
          "name": "A5",
          "ticks": 5066,
          "time": 58.906976744186046,
          "velocity": 0.30708661417322836
        },
        {
          "duration": 0.011627906976748648,
          "durationTicks": 1,
          "midi": 64,
          "name": "E4",
          "ticks": 5067,
          "time": 58.91860465116279,
          "velocity": 0.5826771653543307
        },
        {
          "duration": 0.03488372093023884,
          "durationTicks": 3,
          "midi": 85,
          "name": "C#6",
          "ticks": 5067,
          "time": 58.91860465116279,
          "velocity": 0.11811023622047244
        },
        {
          "duration": 0.2674418604651194,
          "durationTicks": 23,
          "midi": 87,
          "name": "D#6",
          "ticks": 5067,
          "time": 58.91860465116279,
          "velocity": 0.3543307086614173
        },
        {
          "duration": 0.2558139534883779,
          "durationTicks": 22,
          "midi": 89,
          "name": "F6",
          "ticks": 5067,
          "time": 58.91860465116279,
          "velocity": 0.30708661417322836
        },
        {
          "duration": 0.2558139534883779,
          "durationTicks": 22,
          "midi": 92,
          "name": "G#6",
          "ticks": 5067,
          "time": 58.91860465116279,
          "velocity": 0.33070866141732286
        },
        {
          "duration": 0.011627906976741542,
          "durationTicks": 1,
          "midi": 48,
          "name": "C3",
          "ticks": 5068,
          "time": 58.93023255813954,
          "velocity": 0.5669291338582677
        },
        {
          "duration": 0.011627906976741542,
          "durationTicks": 1,
          "midi": 63,
          "name": "D#4",
          "ticks": 5068,
          "time": 58.93023255813954,
          "velocity": 0.6220472440944882
        },
        {
          "duration": 0.02325581395349019,
          "durationTicks": 2,
          "midi": 73,
          "name": "C#5",
          "ticks": 5068,
          "time": 58.93023255813954,
          "velocity": 0.3779527559055118
        },
        {
          "duration": 0.011627906976748648,
          "durationTicks": 1,
          "midi": 50,
          "name": "D3",
          "ticks": 5069,
          "time": 58.94186046511628,
          "velocity": 0.5984251968503937
        },
        {
          "duration": 0.22093023255813904,
          "durationTicks": 19,
          "midi": 61,
          "name": "C#4",
          "ticks": 5069,
          "time": 58.94186046511628,
          "velocity": 0.6062992125984252
        },
        {
          "duration": 0.09302325581394655,
          "durationTicks": 8,
          "midi": 49,
          "name": "C#3",
          "ticks": 5070,
          "time": 58.95348837209303,
          "velocity": 0.6220472440944882
        },
        {
          "duration": 0.011627906976741542,
          "durationTicks": 1,
          "midi": 63,
          "name": "D#4",
          "ticks": 5070,
          "time": 58.95348837209303,
          "velocity": 0.5669291338582677
        },
        {
          "duration": 0.1860465116279073,
          "durationTicks": 16,
          "midi": 65,
          "name": "F4",
          "ticks": 5071,
          "time": 58.96511627906977,
          "velocity": 0.5590551181102362
        },
        {
          "duration": 0.08139534883721211,
          "durationTicks": 7,
          "midi": 80,
          "name": "G#5",
          "ticks": 5072,
          "time": 58.97674418604651,
          "velocity": 0.2755905511811024
        },
        {
          "duration": 0.03488372093023173,
          "durationTicks": 3,
          "midi": 93,
          "name": "A6",
          "ticks": 5077,
          "time": 59.03488372093023,
          "velocity": 0.1968503937007874
        },
        {
          "duration": 0.011627906976748648,
          "durationTicks": 1,
          "midi": 48,
          "name": "C3",
          "ticks": 5078,
          "time": 59.04651162790697,
          "velocity": 0.5275590551181102
        },
        {
          "duration": 0.11627906976744384,
          "durationTicks": 10,
          "midi": 81,
          "name": "A5",
          "ticks": 5078,
          "time": 59.04651162790697,
          "velocity": 0.2755905511811024
        },
        {
          "duration": 0.08139534883721211,
          "durationTicks": 7,
          "midi": 53,
          "name": "F3",
          "ticks": 5080,
          "time": 59.06976744186046,
          "velocity": 0.5354330708661418
        },
        {
          "duration": 0.19767441860465595,
          "durationTicks": 17,
          "midi": 70,
          "name": "A#4",
          "ticks": 5086,
          "time": 59.13953488372093,
          "velocity": 0.5275590551181102
        },
        {
          "duration": 0.13953488372093403,
          "durationTicks": 12,
          "midi": 75,
          "name": "D#5",
          "ticks": 5086,
          "time": 59.13953488372093,
          "velocity": 0.2992125984251969
        },
        {
          "duration": 0.05813953488372192,
          "durationTicks": 5,
          "midi": 79,
          "name": "G5",
          "ticks": 5086,
          "time": 59.13953488372093,
          "velocity": 0.25196850393700787
        },
        {
          "duration": 0.03488372093023884,
          "durationTicks": 3,
          "midi": 90,
          "name": "F#6",
          "ticks": 5086,
          "time": 59.13953488372093,
          "velocity": 0.14960629921259844
        },
        {
          "duration": 0.011627906976741542,
          "durationTicks": 1,
          "midi": 35,
          "name": "B1",
          "ticks": 5087,
          "time": 59.151162790697676,
          "velocity": 0.5984251968503937
        },
        {
          "duration": 0.06976744186046346,
          "durationTicks": 6,
          "midi": 51,
          "name": "D#3",
          "ticks": 5087,
          "time": 59.151162790697676,
          "velocity": 0.6850393700787402
        },
        {
          "duration": 0.011627906976741542,
          "durationTicks": 1,
          "midi": 64,
          "name": "E4",
          "ticks": 5087,
          "time": 59.151162790697676,
          "velocity": 0.5748031496062992
        },
        {
          "duration": 0.02325581395349019,
          "durationTicks": 2,
          "midi": 83,
          "name": "B5",
          "ticks": 5087,
          "time": 59.151162790697676,
          "velocity": 0.2283464566929134
        },
        {
          "duration": 0.011627906976748648,
          "durationTicks": 1,
          "midi": 40,
          "name": "E2",
          "ticks": 5088,
          "time": 59.16279069767442,
          "velocity": 0.6062992125984252
        },
        {
          "duration": 0.03488372093023173,
          "durationTicks": 3,
          "midi": 66,
          "name": "F#4",
          "ticks": 5089,
          "time": 59.174418604651166,
          "velocity": 0.4409448818897638
        },
        {
          "duration": 0.023255813953483084,
          "durationTicks": 2,
          "midi": 81,
          "name": "A5",
          "ticks": 5089,
          "time": 59.174418604651166,
          "velocity": 0.2677165354330709
        },
        {
          "duration": 0.011627906976741542,
          "durationTicks": 1,
          "midi": 43,
          "name": "G2",
          "ticks": 5090,
          "time": 59.18604651162791,
          "velocity": 0.5196850393700787
        },
        {
          "duration": 0.011627906976748648,
          "durationTicks": 1,
          "midi": 42,
          "name": "F#2",
          "ticks": 5091,
          "time": 59.19767441860465,
          "velocity": 0.5984251968503937
        },
        {
          "duration": 0.046511627906973274,
          "durationTicks": 4,
          "midi": 41,
          "name": "F2",
          "ticks": 5092,
          "time": 59.2093023255814,
          "velocity": 0.6456692913385826
        },
        {
          "duration": 0.046511627906973274,
          "durationTicks": 4,
          "midi": 58,
          "name": "A#3",
          "ticks": 5092,
          "time": 59.2093023255814,
          "velocity": 0.3543307086614173
        },
        {
          "duration": 0.046511627906973274,
          "durationTicks": 4,
          "midi": 77,
          "name": "F5",
          "ticks": 5092,
          "time": 59.2093023255814,
          "velocity": 0.13385826771653545
        },
        {
          "duration": 0.011627906976741542,
          "durationTicks": 1,
          "midi": 52,
          "name": "E3",
          "ticks": 5093,
          "time": 59.22093023255814,
          "velocity": 0.5826771653543307
        },
        {
          "duration": 0.06976744186046346,
          "durationTicks": 6,
          "midi": 66,
          "name": "F#4",
          "ticks": 5093,
          "time": 59.22093023255814,
          "velocity": 0.4409448818897638
        },
        {
          "duration": 0.03488372093023884,
          "durationTicks": 3,
          "midi": 51,
          "name": "D#3",
          "ticks": 5094,
          "time": 59.23255813953488,
          "velocity": 0.5118110236220472
        },
        {
          "duration": 0.12790697674418539,
          "durationTicks": 11,
          "midi": 79,
          "name": "G5",
          "ticks": 5096,
          "time": 59.25581395348837,
          "velocity": 0.4015748031496063
        },
        {
          "duration": 0.11627906976743674,
          "durationTicks": 10,
          "midi": 48,
          "name": "C3",
          "ticks": 5097,
          "time": 59.26744186046512,
          "velocity": 0.5590551181102362
        },
        {
          "duration": 0.1046511627906952,
          "durationTicks": 9,
          "midi": 64,
          "name": "E4",
          "ticks": 5098,
          "time": 59.27906976744186,
          "velocity": 0.4015748031496063
        },
        {
          "duration": 0.1046511627906952,
          "durationTicks": 9,
          "midi": 83,
          "name": "B5",
          "ticks": 5098,
          "time": 59.27906976744186,
          "velocity": 0.1889763779527559
        },
        {
          "duration": 0.06976744186046346,
          "durationTicks": 6,
          "midi": 67,
          "name": "G4",
          "ticks": 5100,
          "time": 59.30232558139535,
          "velocity": 0.25984251968503935
        },
        {
          "duration": 0.09302325581395365,
          "durationTicks": 8,
          "midi": 70,
          "name": "A#4",
          "ticks": 5106,
          "time": 59.372093023255815,
          "velocity": 0.5669291338582677
        },
        {
          "duration": 0.24418604651162923,
          "durationTicks": 21,
          "midi": 77,
          "name": "F5",
          "ticks": 5106,
          "time": 59.372093023255815,
          "velocity": 0.4330708661417323
        },
        {
          "duration": 0.03488372093023173,
          "durationTicks": 3,
          "midi": 87,
          "name": "D#6",
          "ticks": 5106,
          "time": 59.372093023255815,
          "velocity": 0.2283464566929134
        },
        {
          "duration": 0.03488372093023173,
          "durationTicks": 3,
          "midi": 88,
          "name": "E6",
          "ticks": 5106,
          "time": 59.372093023255815,
          "velocity": 0.2204724409448819
        },
        {
          "duration": 0.02325581395349019,
          "durationTicks": 2,
          "midi": 45,
          "name": "A2",
          "ticks": 5107,
          "time": 59.383720930232556,
          "velocity": 0.4645669291338583
        },
        {
          "duration": 0.09302325581395365,
          "durationTicks": 8,
          "midi": 58,
          "name": "A#3",
          "ticks": 5107,
          "time": 59.383720930232556,
          "velocity": 0.5590551181102362
        },
        {
          "duration": 0.13953488372093403,
          "durationTicks": 12,
          "midi": 80,
          "name": "G#5",
          "ticks": 5107,
          "time": 59.383720930232556,
          "velocity": 0.2755905511811024
        },
        {
          "duration": 0.05813953488372192,
          "durationTicks": 5,
          "midi": 65,
          "name": "F4",
          "ticks": 5108,
          "time": 59.395348837209305,
          "velocity": 0.25984251968503935
        },
        {
          "duration": 0.1046511627906952,
          "durationTicks": 9,
          "midi": 73,
          "name": "C#5",
          "ticks": 5108,
          "time": 59.395348837209305,
          "velocity": 0.3464566929133858
        },
        {
          "duration": 0.08139534883721211,
          "durationTicks": 7,
          "midi": 46,
          "name": "A#2",
          "ticks": 5109,
          "time": 59.406976744186046,
          "velocity": 0.4566929133858268
        },
        {
          "duration": 0.02325581395349019,
          "durationTicks": 2,
          "midi": 61,
          "name": "C#4",
          "ticks": 5114,
          "time": 59.46511627906977,
          "velocity": 0.3937007874015748
        },
        {
          "duration": 0.03488372093023173,
          "durationTicks": 3,
          "midi": 65,
          "name": "F4",
          "ticks": 5114,
          "time": 59.46511627906977,
          "velocity": 0.4330708661417323
        },
        {
          "duration": 0.2674418604651123,
          "durationTicks": 23,
          "midi": 70,
          "name": "A#4",
          "ticks": 5116,
          "time": 59.48837209302326,
          "velocity": 0.4566929133858268
        },
        {
          "duration": 0.03488372093023173,
          "durationTicks": 3,
          "midi": 83,
          "name": "B5",
          "ticks": 5116,
          "time": 59.48837209302326,
          "velocity": 0.1889763779527559
        },
        {
          "duration": 0.11627906976743674,
          "durationTicks": 10,
          "midi": 90,
          "name": "F#6",
          "ticks": 5116,
          "time": 59.48837209302326,
          "velocity": 0.14173228346456693
        },
        {
          "duration": 0.011627906976741542,
          "durationTicks": 1,
          "midi": 57,
          "name": "A3",
          "ticks": 5117,
          "time": 59.5,
          "velocity": 0.5196850393700787
        },
        {
          "duration": 0.23255813953488058,
          "durationTicks": 20,
          "midi": 63,
          "name": "D#4",
          "ticks": 5117,
          "time": 59.5,
          "velocity": 0.6220472440944882
        },
        {
          "duration": 0.12790697674418539,
          "durationTicks": 11,
          "midi": 74,
          "name": "D5",
          "ticks": 5117,
          "time": 59.5,
          "velocity": 0.41732283464566927
        },
        {
          "duration": 0.08139534883721211,
          "durationTicks": 7,
          "midi": 55,
          "name": "G3",
          "ticks": 5118,
          "time": 59.51162790697674,
          "velocity": 0.5669291338582677
        },
        {
          "duration": 0.03488372093023173,
          "durationTicks": 3,
          "midi": 87,
          "name": "D#6",
          "ticks": 5118,
          "time": 59.51162790697674,
          "velocity": 0.07086614173228346
        },
        {
          "duration": 0.081395348837205,
          "durationTicks": 7,
          "midi": 43,
          "name": "G2",
          "ticks": 5119,
          "time": 59.52325581395349,
          "velocity": 0.49606299212598426
        },
        {
          "duration": 0.06976744186046346,
          "durationTicks": 6,
          "midi": 59,
          "name": "B3",
          "ticks": 5122,
          "time": 59.55813953488372,
          "velocity": 0.5826771653543307
        },
        {
          "duration": 0.023255813953483084,
          "durationTicks": 2,
          "midi": 51,
          "name": "D#3",
          "ticks": 5124,
          "time": 59.58139534883721,
          "velocity": 0.41732283464566927
        },
        {
          "duration": 0.03488372093023173,
          "durationTicks": 3,
          "midi": 78,
          "name": "F#5",
          "ticks": 5125,
          "time": 59.593023255813954,
          "velocity": 0.28346456692913385
        },
        {
          "duration": 0.011627906976748648,
          "durationTicks": 1,
          "midi": 52,
          "name": "E3",
          "ticks": 5126,
          "time": 59.604651162790695,
          "velocity": 0.5118110236220472
        },
        {
          "duration": 0.03488372093023173,
          "durationTicks": 3,
          "midi": 72,
          "name": "C5",
          "ticks": 5126,
          "time": 59.604651162790695,
          "velocity": 0.3464566929133858
        },
        {
          "duration": 0.02325581395349019,
          "durationTicks": 2,
          "midi": 85,
          "name": "C#6",
          "ticks": 5126,
          "time": 59.604651162790695,
          "velocity": 0.25984251968503935
        },
        {
          "duration": 0.02325581395349019,
          "durationTicks": 2,
          "midi": 87,
          "name": "D#6",
          "ticks": 5126,
          "time": 59.604651162790695,
          "velocity": 0.25984251968503935
        },
        {
          "duration": 0.011627906976741542,
          "durationTicks": 1,
          "midi": 36,
          "name": "C2",
          "ticks": 5127,
          "time": 59.616279069767444,
          "velocity": 0.6220472440944882
        },
        {
          "duration": 0.011627906976741542,
          "durationTicks": 1,
          "midi": 51,
          "name": "D#3",
          "ticks": 5127,
          "time": 59.616279069767444,
          "velocity": 0.5669291338582677
        },
        {
          "duration": 0.046511627906973274,
          "durationTicks": 4,
          "midi": 76,
          "name": "E5",
          "ticks": 5127,
          "time": 59.616279069767444,
          "velocity": 0.3543307086614173
        },
        {
          "duration": 0.011627906976741542,
          "durationTicks": 1,
          "midi": 40,
          "name": "E2",
          "ticks": 5128,
          "time": 59.627906976744185,
          "velocity": 0.6062992125984252
        },
        {
          "duration": 0.011627906976741542,
          "durationTicks": 1,
          "midi": 50,
          "name": "D3",
          "ticks": 5128,
          "time": 59.627906976744185,
          "velocity": 0.5826771653543307
        },
        {
          "duration": 0.15116279069767558,
          "durationTicks": 13,
          "midi": 58,
          "name": "A#3",
          "ticks": 5128,
          "time": 59.627906976744185,
          "velocity": 0.5433070866141733
        },
        {
          "duration": 0.011627906976748648,
          "durationTicks": 1,
          "midi": 52,
          "name": "E3",
          "ticks": 5129,
          "time": 59.63953488372093,
          "velocity": 0.5905511811023622
        },
        {
          "duration": 0.05813953488372192,
          "durationTicks": 5,
          "midi": 73,
          "name": "C#5",
          "ticks": 5129,
          "time": 59.63953488372093,
          "velocity": 0.1732283464566929
        },
        {
          "duration": 0.011627906976741542,
          "durationTicks": 1,
          "midi": 43,
          "name": "G2",
          "ticks": 5130,
          "time": 59.651162790697676,
          "velocity": 0.5118110236220472
        },
        {
          "duration": 0.02325581395349019,
          "durationTicks": 2,
          "midi": 51,
          "name": "D#3",
          "ticks": 5130,
          "time": 59.651162790697676,
          "velocity": 0.5354330708661418
        },
        {
          "duration": 0.011627906976748648,
          "durationTicks": 1,
          "midi": 42,
          "name": "F#2",
          "ticks": 5131,
          "time": 59.66279069767442,
          "velocity": 0.6062992125984252
        },
        {
          "duration": 0.058139534883714816,
          "durationTicks": 5,
          "midi": 41,
          "name": "F2",
          "ticks": 5132,
          "time": 59.674418604651166,
          "velocity": 0.6377952755905512
        },
        {
          "duration": 0.046511627906973274,
          "durationTicks": 4,
          "midi": 51,
          "name": "D#3",
          "ticks": 5133,
          "time": 59.68604651162791,
          "velocity": 0.3858267716535433
        },
        {
          "duration": 0.03488372093023173,
          "durationTicks": 3,
          "midi": 77,
          "name": "F5",
          "ticks": 5134,
          "time": 59.69767441860465,
          "velocity": 0.09448818897637795
        },
        {
          "duration": 0.081395348837205,
          "durationTicks": 7,
          "midi": 86,
          "name": "D6",
          "ticks": 5146,
          "time": 59.83720930232558,
          "velocity": 0.2204724409448819
        },
        {
          "duration": 0.02325581395349019,
          "durationTicks": 2,
          "midi": 87,
          "name": "D#6",
          "ticks": 5146,
          "time": 59.83720930232558,
          "velocity": 0.2440944881889764
        },
        {
          "duration": 0.02325581395349019,
          "durationTicks": 2,
          "midi": 48,
          "name": "C3",
          "ticks": 5147,
          "time": 59.848837209302324,
          "velocity": 0.5669291338582677
        },
        {
          "duration": 0.08139534883721211,
          "durationTicks": 7,
          "midi": 55,
          "name": "G3",
          "ticks": 5147,
          "time": 59.848837209302324,
          "velocity": 0.5039370078740157
        },
        {
          "duration": 0.17441860465116577,
          "durationTicks": 15,
          "midi": 63,
          "name": "D#4",
          "ticks": 5147,
          "time": 59.848837209302324,
          "velocity": 0.5905511811023622
        },
        {
          "duration": 0.17441860465116577,
          "durationTicks": 15,
          "midi": 70,
          "name": "A#4",
          "ticks": 5147,
          "time": 59.848837209302324,
          "velocity": 0.5590551181102362
        },
        {
          "duration": 0.09302325581395365,
          "durationTicks": 8,
          "midi": 80,
          "name": "G#5",
          "ticks": 5147,
          "time": 59.848837209302324,
          "velocity": 0.2992125984251969
        },
        {
          "duration": 0.03488372093023173,
          "durationTicks": 3,
          "midi": 81,
          "name": "A5",
          "ticks": 5147,
          "time": 59.848837209302324,
          "velocity": 0.28346456692913385
        },
        {
          "duration": 0.16279069767441712,
          "durationTicks": 14,
          "midi": 77,
          "name": "F5",
          "ticks": 5148,
          "time": 59.86046511627907,
          "velocity": 0.30708661417322836
        },
        {
          "duration": 0.011627906976741542,
          "durationTicks": 1,
          "midi": 49,
          "name": "C#3",
          "ticks": 5149,
          "time": 59.872093023255815,
          "velocity": 0.5826771653543307
        },
        {
          "duration": 0.02325581395349019,
          "durationTicks": 2,
          "midi": 50,
          "name": "D3",
          "ticks": 5150,
          "time": 59.883720930232556,
          "velocity": 0.6062992125984252
        },
        {
          "duration": 0.02325581395349019,
          "durationTicks": 2,
          "midi": 48,
          "name": "C3",
          "ticks": 5152,
          "time": 59.906976744186046,
          "velocity": 0.47244094488188976
        },
        {
          "duration": 0.04651162790698038,
          "durationTicks": 4,
          "midi": 58,
          "name": "A#3",
          "ticks": 5155,
          "time": 59.94186046511628,
          "velocity": 0.36220472440944884
        },
        {
          "duration": 0.023255813953483084,
          "durationTicks": 2,
          "midi": 52,
          "name": "E3",
          "ticks": 5156,
          "time": 59.95348837209303,
          "velocity": 0.3464566929133858
        },
        {
          "duration": 0.11627906976744384,
          "durationTicks": 10,
          "midi": 70,
          "name": "A#4",
          "ticks": 5165,
          "time": 60.05813953488372,
          "velocity": 0.5354330708661418
        },
        {
          "duration": 0.03488372093023173,
          "durationTicks": 3,
          "midi": 78,
          "name": "F#5",
          "ticks": 5165,
          "time": 60.05813953488372,
          "velocity": 0.2677165354330709
        },
        {
          "duration": 0.03488372093023173,
          "durationTicks": 3,
          "midi": 80,
          "name": "G#5",
          "ticks": 5165,
          "time": 60.05813953488372,
          "velocity": 0.25196850393700787
        },
        {
          "duration": 0.03488372093023173,
          "durationTicks": 3,
          "midi": 86,
          "name": "D6",
          "ticks": 5165,
          "time": 60.05813953488372,
          "velocity": 0.25984251968503935
        },
        {
          "duration": 0.13953488372093403,
          "durationTicks": 12,
          "midi": 63,
          "name": "D#4",
          "ticks": 5166,
          "time": 60.06976744186046,
          "velocity": 0.5748031496062992
        },
        {
          "duration": 0.02325581395349019,
          "durationTicks": 2,
          "midi": 81,
          "name": "A5",
          "ticks": 5166,
          "time": 60.06976744186046,
          "velocity": 0.25196850393700787
        },
        {
          "duration": 0.02325581395349019,
          "durationTicks": 2,
          "midi": 85,
          "name": "C#6",
          "ticks": 5166,
          "time": 60.06976744186046,
          "velocity": 0.25984251968503935
        },
        {
          "duration": 0.011627906976741542,
          "durationTicks": 1,
          "midi": 36,
          "name": "C2",
          "ticks": 5167,
          "time": 60.08139534883721,
          "velocity": 0.6141732283464567
        },
        {
          "duration": 0.023255813953483084,
          "durationTicks": 2,
          "midi": 50,
          "name": "D3",
          "ticks": 5167,
          "time": 60.08139534883721,
          "velocity": 0.5275590551181102
        },
        {
          "duration": 0.023255813953483084,
          "durationTicks": 2,
          "midi": 72,
          "name": "C5",
          "ticks": 5167,
          "time": 60.08139534883721,
          "velocity": 0.31496062992125984
        },
        {
          "duration": 0.011627906976741542,
          "durationTicks": 1,
          "midi": 40,
          "name": "E2",
          "ticks": 5168,
          "time": 60.093023255813954,
          "velocity": 0.5905511811023622
        },
        {
          "duration": 0.011627906976748648,
          "durationTicks": 1,
          "midi": 52,
          "name": "E3",
          "ticks": 5169,
          "time": 60.104651162790695,
          "velocity": 0.5669291338582677
        },
        {
          "duration": 0.05813953488372192,
          "durationTicks": 5,
          "midi": 73,
          "name": "C#5",
          "ticks": 5169,
          "time": 60.104651162790695,
          "velocity": 0.15748031496062992
        },
        {
          "duration": 0.011627906976741542,
          "durationTicks": 1,
          "midi": 45,
          "name": "A2",
          "ticks": 5170,
          "time": 60.116279069767444,
          "velocity": 0.5196850393700787
        },
        {
          "duration": 0.023255813953483084,
          "durationTicks": 2,
          "midi": 51,
          "name": "D#3",
          "ticks": 5170,
          "time": 60.116279069767444,
          "velocity": 0.5118110236220472
        },
        {
          "duration": 0.023255813953483084,
          "durationTicks": 2,
          "midi": 54,
          "name": "F#3",
          "ticks": 5170,
          "time": 60.116279069767444,
          "velocity": 0.44881889763779526
        },
        {
          "duration": 0.011627906976741542,
          "durationTicks": 1,
          "midi": 42,
          "name": "F#2",
          "ticks": 5171,
          "time": 60.127906976744185,
          "velocity": 0.6141732283464567
        },
        {
          "duration": 0.05813953488372192,
          "durationTicks": 5,
          "midi": 41,
          "name": "F2",
          "ticks": 5172,
          "time": 60.13953488372093,
          "velocity": 0.6299212598425197
        },
        {
          "duration": 0.02325581395349019,
          "durationTicks": 2,
          "midi": 51,
          "name": "D#3",
          "ticks": 5173,
          "time": 60.151162790697676,
          "velocity": 0.33858267716535434
        },
        {
          "duration": 0.02325581395349019,
          "durationTicks": 2,
          "midi": 40,
          "name": "E2",
          "ticks": 5184,
          "time": 60.27906976744186,
          "velocity": 0.25196850393700787
        },
        {
          "duration": 0.17441860465116577,
          "durationTicks": 15,
          "midi": 70,
          "name": "A#4",
          "ticks": 5185,
          "time": 60.2906976744186,
          "velocity": 0.5590551181102362
        },
        {
          "duration": 0.04651162790698038,
          "durationTicks": 4,
          "midi": 76,
          "name": "E5",
          "ticks": 5185,
          "time": 60.2906976744186,
          "velocity": 0.2992125984251969
        },
        {
          "duration": 0.02325581395349019,
          "durationTicks": 2,
          "midi": 79,
          "name": "G5",
          "ticks": 5185,
          "time": 60.2906976744186,
          "velocity": 0.2755905511811024
        },
        {
          "duration": 0.03488372093023173,
          "durationTicks": 3,
          "midi": 86,
          "name": "D6",
          "ticks": 5185,
          "time": 60.2906976744186,
          "velocity": 0.25984251968503935
        },
        {
          "duration": 0.023255813953483084,
          "durationTicks": 2,
          "midi": 55,
          "name": "G3",
          "ticks": 5186,
          "time": 60.30232558139535,
          "velocity": 0.47244094488188976
        },
        {
          "duration": 0.11627906976743674,
          "durationTicks": 10,
          "midi": 65,
          "name": "F4",
          "ticks": 5186,
          "time": 60.30232558139535,
          "velocity": 0.5905511811023622
        },
        {
          "duration": 0.03488372093023173,
          "durationTicks": 3,
          "midi": 81,
          "name": "A5",
          "ticks": 5186,
          "time": 60.30232558139535,
          "velocity": 0.25196850393700787
        },
        {
          "duration": 0.023255813953483084,
          "durationTicks": 2,
          "midi": 83,
          "name": "B5",
          "ticks": 5186,
          "time": 60.30232558139535,
          "velocity": 0.25196850393700787
        },
        {
          "duration": 0.02325581395349019,
          "durationTicks": 2,
          "midi": 48,
          "name": "C3",
          "ticks": 5187,
          "time": 60.31395348837209,
          "velocity": 0.5905511811023622
        },
        {
          "duration": 0.03488372093023173,
          "durationTicks": 3,
          "midi": 61,
          "name": "C#4",
          "ticks": 5187,
          "time": 60.31395348837209,
          "velocity": 0.4015748031496063
        },
        {
          "duration": 0.03488372093023173,
          "durationTicks": 3,
          "midi": 78,
          "name": "F#5",
          "ticks": 5187,
          "time": 60.31395348837209,
          "velocity": 0.2047244094488189
        },
        {
          "duration": 0.06976744186046346,
          "durationTicks": 6,
          "midi": 80,
          "name": "G#5",
          "ticks": 5187,
          "time": 60.31395348837209,
          "velocity": 0.2125984251968504
        },
        {
          "duration": 0.011627906976741542,
          "durationTicks": 1,
          "midi": 49,
          "name": "C#3",
          "ticks": 5189,
          "time": 60.33720930232558,
          "velocity": 0.5984251968503937
        },
        {
          "duration": 0.011627906976741542,
          "durationTicks": 1,
          "midi": 54,
          "name": "F#3",
          "ticks": 5189,
          "time": 60.33720930232558,
          "velocity": 0.5118110236220472
        },
        {
          "duration": 0.046511627906973274,
          "durationTicks": 4,
          "midi": 58,
          "name": "A#3",
          "ticks": 5189,
          "time": 60.33720930232558,
          "velocity": 0.4330708661417323
        },
        {
          "duration": 0.011627906976748648,
          "durationTicks": 1,
          "midi": 50,
          "name": "D3",
          "ticks": 5190,
          "time": 60.348837209302324,
          "velocity": 0.6377952755905512
        },
        {
          "duration": 0.03488372093023173,
          "durationTicks": 3,
          "midi": 49,
          "name": "C#3",
          "ticks": 5191,
          "time": 60.36046511627907,
          "velocity": 0.5748031496062992
        },
        {
          "duration": 0.13953488372092693,
          "durationTicks": 12,
          "midi": 63,
          "name": "D#4",
          "ticks": 5194,
          "time": 60.395348837209305,
          "velocity": 0.6141732283464567
        },
        {
          "duration": 0.02325581395349019,
          "durationTicks": 2,
          "midi": 59,
          "name": "B3",
          "ticks": 5195,
          "time": 60.406976744186046,
          "velocity": 0.4015748031496063
        },
        {
          "duration": 0.02325581395349019,
          "durationTicks": 2,
          "midi": 52,
          "name": "E3",
          "ticks": 5196,
          "time": 60.41860465116279,
          "velocity": 0.33070866141732286
        },
        {
          "duration": 0.02325581395349019,
          "durationTicks": 2,
          "midi": 58,
          "name": "A#3",
          "ticks": 5197,
          "time": 60.43023255813954,
          "velocity": 0.3858267716535433
        },
        {
          "duration": 0.023255813953483084,
          "durationTicks": 2,
          "midi": 49,
          "name": "C#3",
          "ticks": 5199,
          "time": 60.45348837209303,
          "velocity": 0.23622047244094488
        },
        {
          "duration": 0.023255813953483084,
          "durationTicks": 2,
          "midi": 55,
          "name": "G3",
          "ticks": 5199,
          "time": 60.45348837209303,
          "velocity": 0.2677165354330709
        },
        {
          "duration": 0.11627906976743674,
          "durationTicks": 10,
          "midi": 70,
          "name": "A#4",
          "ticks": 5205,
          "time": 60.52325581395349,
          "velocity": 0.5669291338582677
        },
        {
          "duration": 0.03488372093023173,
          "durationTicks": 3,
          "midi": 77,
          "name": "F5",
          "ticks": 5205,
          "time": 60.52325581395349,
          "velocity": 0.28346456692913385
        },
        {
          "duration": 0.081395348837205,
          "durationTicks": 7,
          "midi": 79,
          "name": "G5",
          "ticks": 5205,
          "time": 60.52325581395349,
          "velocity": 0.29133858267716534
        },
        {
          "duration": 0.05813953488372192,
          "durationTicks": 5,
          "midi": 84,
          "name": "C6",
          "ticks": 5205,
          "time": 60.52325581395349,
          "velocity": 0.2677165354330709
        },
        {
          "duration": 0.03488372093023173,
          "durationTicks": 3,
          "midi": 86,
          "name": "D6",
          "ticks": 5205,
          "time": 60.52325581395349,
          "velocity": 0.25984251968503935
        },
        {
          "duration": 0.03488372093023173,
          "durationTicks": 3,
          "midi": 88,
          "name": "E6",
          "ticks": 5205,
          "time": 60.52325581395349,
          "velocity": 0.25196850393700787
        },
        {
          "duration": 0.011627906976741542,
          "durationTicks": 1,
          "midi": 35,
          "name": "B1",
          "ticks": 5206,
          "time": 60.53488372093023,
          "velocity": 0.6062992125984252
        },
        {
          "duration": 0.02325581395349019,
          "durationTicks": 2,
          "midi": 50,
          "name": "D3",
          "ticks": 5206,
          "time": 60.53488372093023,
          "velocity": 0.6535433070866141
        },
        {
          "duration": 0.03488372093023173,
          "durationTicks": 3,
          "midi": 75,
          "name": "D#5",
          "ticks": 5206,
          "time": 60.53488372093023,
          "velocity": 0.28346456692913385
        },
        {
          "duration": 0.011627906976748648,
          "durationTicks": 1,
          "midi": 36,
          "name": "C2",
          "ticks": 5207,
          "time": 60.54651162790697,
          "velocity": 0.6377952755905512
        },
        {
          "duration": 0.05813953488372192,
          "durationTicks": 5,
          "midi": 63,
          "name": "D#4",
          "ticks": 5207,
          "time": 60.54651162790697,
          "velocity": 0.48031496062992124
        },
        {
          "duration": 0.15116279069767558,
          "durationTicks": 13,
          "midi": 73,
          "name": "C#5",
          "ticks": 5207,
          "time": 60.54651162790697,
          "velocity": 0.3464566929133858
        },
        {
          "duration": 0.011627906976741542,
          "durationTicks": 1,
          "midi": 43,
          "name": "G2",
          "ticks": 5208,
          "time": 60.55813953488372,
          "velocity": 0.5275590551181102
        },
        {
          "duration": 0.06976744186046346,
          "durationTicks": 6,
          "midi": 51,
          "name": "D#3",
          "ticks": 5208,
          "time": 60.55813953488372,
          "velocity": 0.6771653543307087
        },
        {
          "duration": 0.011627906976741542,
          "durationTicks": 1,
          "midi": 43,
          "name": "G2",
          "ticks": 5210,
          "time": 60.58139534883721,
          "velocity": 0.5669291338582677
        },
        {
          "duration": 0.13953488372092693,
          "durationTicks": 12,
          "midi": 66,
          "name": "F#4",
          "ticks": 5210,
          "time": 60.58139534883721,
          "velocity": 0.3779527559055118
        },
        {
          "duration": 0.011627906976741542,
          "durationTicks": 1,
          "midi": 42,
          "name": "F#2",
          "ticks": 5211,
          "time": 60.593023255813954,
          "velocity": 0.6141732283464567
        },
        {
          "duration": 0.04651162790698038,
          "durationTicks": 4,
          "midi": 41,
          "name": "F2",
          "ticks": 5212,
          "time": 60.604651162790695,
          "velocity": 0.6141732283464567
        },
        {
          "duration": 0.02325581395349019,
          "durationTicks": 2,
          "midi": 55,
          "name": "G3",
          "ticks": 5215,
          "time": 60.63953488372093,
          "velocity": 0.3700787401574803
        },
        {
          "duration": 0.02325581395349019,
          "durationTicks": 2,
          "midi": 40,
          "name": "E2",
          "ticks": 5216,
          "time": 60.651162790697676,
          "velocity": 0.25984251968503935
        },
        {
          "duration": 0.02325581395349019,
          "durationTicks": 2,
          "midi": 54,
          "name": "F#3",
          "ticks": 5217,
          "time": 60.66279069767442,
          "velocity": 0.3858267716535433
        },
        {
          "duration": 0.1046511627907023,
          "durationTicks": 9,
          "midi": 70,
          "name": "A#4",
          "ticks": 5225,
          "time": 60.75581395348837,
          "velocity": 0.5590551181102362
        },
        {
          "duration": 0.03488372093023173,
          "durationTicks": 3,
          "midi": 81,
          "name": "A5",
          "ticks": 5225,
          "time": 60.75581395348837,
          "velocity": 0.2755905511811024
        },
        {
          "duration": 0.03488372093023173,
          "durationTicks": 3,
          "midi": 83,
          "name": "B5",
          "ticks": 5225,
          "time": 60.75581395348837,
          "velocity": 0.28346456692913385
        },
        {
          "duration": 0.03488372093023173,
          "durationTicks": 3,
          "midi": 87,
          "name": "D#6",
          "ticks": 5225,
          "time": 60.75581395348837,
          "velocity": 0.25196850393700787
        },
        {
          "duration": 0.03488372093023173,
          "durationTicks": 3,
          "midi": 88,
          "name": "E6",
          "ticks": 5225,
          "time": 60.75581395348837,
          "velocity": 0.25196850393700787
        },
        {
          "duration": 0.11627906976743674,
          "durationTicks": 10,
          "midi": 63,
          "name": "D#4",
          "ticks": 5226,
          "time": 60.76744186046512,
          "velocity": 0.5590551181102362
        },
        {
          "duration": 0.023255813953483084,
          "durationTicks": 2,
          "midi": 77,
          "name": "F5",
          "ticks": 5226,
          "time": 60.76744186046512,
          "velocity": 0.2755905511811024
        },
        {
          "duration": 0.046511627906973274,
          "durationTicks": 4,
          "midi": 51,
          "name": "D#3",
          "ticks": 5229,
          "time": 60.80232558139535,
          "velocity": 0.4645669291338583
        },
        {
          "duration": 0.03488372093023173,
          "durationTicks": 3,
          "midi": 40,
          "name": "E2",
          "ticks": 5230,
          "time": 60.81395348837209,
          "velocity": 0.2047244094488189
        },
        {
          "duration": 0.02325581395349019,
          "durationTicks": 2,
          "midi": 52,
          "name": "E3",
          "ticks": 5233,
          "time": 60.848837209302324,
          "velocity": 0.3543307086614173
        },
        {
          "duration": 0.046511627906973274,
          "durationTicks": 4,
          "midi": 51,
          "name": "D#3",
          "ticks": 5235,
          "time": 60.872093023255815,
          "velocity": 0.33858267716535434
        },
        {
          "duration": 0.046511627906973274,
          "durationTicks": 4,
          "midi": 70,
          "name": "A#4",
          "ticks": 5235,
          "time": 60.872093023255815,
          "velocity": 0.2047244094488189
        },
        {
          "duration": 0.1046511627906952,
          "durationTicks": 9,
          "midi": 63,
          "name": "D#4",
          "ticks": 5237,
          "time": 60.895348837209305,
          "velocity": 0.5118110236220472
        },
        {
          "duration": 0.03488372093023173,
          "durationTicks": 3,
          "midi": 51,
          "name": "D#3",
          "ticks": 5245,
          "time": 60.98837209302326,
          "velocity": 0.6220472440944882
        },
        {
          "duration": 0.03488372093023173,
          "durationTicks": 3,
          "midi": 84,
          "name": "C6",
          "ticks": 5245,
          "time": 60.98837209302326,
          "velocity": 0.25196850393700787
        },
        {
          "duration": 0.03488372093023173,
          "durationTicks": 3,
          "midi": 86,
          "name": "D6",
          "ticks": 5245,
          "time": 60.98837209302326,
          "velocity": 0.25984251968503935
        },
        {
          "duration": 0.03488372093023173,
          "durationTicks": 3,
          "midi": 88,
          "name": "E6",
          "ticks": 5245,
          "time": 60.98837209302326,
          "velocity": 0.2440944881889764
        },
        {
          "duration": 0.011627906976741542,
          "durationTicks": 1,
          "midi": 35,
          "name": "B1",
          "ticks": 5246,
          "time": 61,
          "velocity": 0.5984251968503937
        },
        {
          "duration": 0.02325581395349019,
          "durationTicks": 2,
          "midi": 64,
          "name": "E4",
          "ticks": 5246,
          "time": 61,
          "velocity": 0.6456692913385826
        },
        {
          "duration": 0.046511627906973274,
          "durationTicks": 4,
          "midi": 72,
          "name": "C5",
          "ticks": 5246,
          "time": 61,
          "velocity": 0.5669291338582677
        },
        {
          "duration": 0.05813953488372192,
          "durationTicks": 5,
          "midi": 80,
          "name": "G#5",
          "ticks": 5246,
          "time": 61,
          "velocity": 0.2992125984251969
        },
        {
          "duration": 0.1046511627906952,
          "durationTicks": 9,
          "midi": 83,
          "name": "B5",
          "ticks": 5246,
          "time": 61,
          "velocity": 0.2992125984251969
        },
        {
          "duration": 0.12790697674418539,
          "durationTicks": 11,
          "midi": 90,
          "name": "F#6",
          "ticks": 5246,
          "time": 61,
          "velocity": 0.2204724409448819
        },
        {
          "duration": 0.011627906976748648,
          "durationTicks": 1,
          "midi": 40,
          "name": "E2",
          "ticks": 5247,
          "time": 61.01162790697674,
          "velocity": 0.6141732283464567
        },
        {
          "duration": 0.11627906976744384,
          "durationTicks": 10,
          "midi": 59,
          "name": "B3",
          "ticks": 5247,
          "time": 61.01162790697674,
          "velocity": 0.5196850393700787
        },
        {
          "duration": 0.05813953488372192,
          "durationTicks": 5,
          "midi": 74,
          "name": "D5",
          "ticks": 5247,
          "time": 61.01162790697674,
          "velocity": 0.2125984251968504
        },
        {
          "duration": 0.011627906976741542,
          "durationTicks": 1,
          "midi": 43,
          "name": "G2",
          "ticks": 5248,
          "time": 61.02325581395349,
          "velocity": 0.5275590551181102
        },
        {
          "duration": 0.011627906976741542,
          "durationTicks": 1,
          "midi": 52,
          "name": "E3",
          "ticks": 5248,
          "time": 61.02325581395349,
          "velocity": 0.6771653543307087
        },
        {
          "duration": 0.023255813953483084,
          "durationTicks": 2,
          "midi": 63,
          "name": "D#4",
          "ticks": 5248,
          "time": 61.02325581395349,
          "velocity": 0.5354330708661418
        },
        {
          "duration": 0.11627906976743674,
          "durationTicks": 10,
          "midi": 85,
          "name": "C#6",
          "ticks": 5248,
          "time": 61.02325581395349,
          "velocity": 0.18110236220472442
        },
        {
          "duration": 0.011627906976741542,
          "durationTicks": 1,
          "midi": 53,
          "name": "F3",
          "ticks": 5249,
          "time": 61.03488372093023,
          "velocity": 0.6771653543307087
        },
        {
          "duration": 0.1046511627906952,
          "durationTicks": 9,
          "midi": 78,
          "name": "F#5",
          "ticks": 5249,
          "time": 61.03488372093023,
          "velocity": 0.28346456692913385
        },
        {
          "duration": 0.05813953488372192,
          "durationTicks": 5,
          "midi": 41,
          "name": "F2",
          "ticks": 5250,
          "time": 61.04651162790697,
          "velocity": 0.6614173228346457
        },
        {
          "duration": 0.04651162790698038,
          "durationTicks": 4,
          "midi": 52,
          "name": "E3",
          "ticks": 5250,
          "time": 61.04651162790697,
          "velocity": 0.5826771653543307
        },
        {
          "duration": 0.02325581395349019,
          "durationTicks": 2,
          "midi": 63,
          "name": "D#4",
          "ticks": 5251,
          "time": 61.05813953488372,
          "velocity": 0.5275590551181102
        },
        {
          "duration": 0.04651162790698038,
          "durationTicks": 4,
          "midi": 55,
          "name": "G3",
          "ticks": 5255,
          "time": 61.104651162790695,
          "velocity": 0.44881889763779526
        },
        {
          "duration": 0.15116279069767558,
          "durationTicks": 13,
          "midi": 80,
          "name": "G#5",
          "ticks": 5255,
          "time": 61.104651162790695,
          "velocity": 0.4015748031496063
        },
        {
          "duration": 0.023255813953483084,
          "durationTicks": 2,
          "midi": 48,
          "name": "C3",
          "ticks": 5256,
          "time": 61.116279069767444,
          "velocity": 0.5275590551181102
        },
        {
          "duration": 0.11627906976743674,
          "durationTicks": 10,
          "midi": 68,
          "name": "G#4",
          "ticks": 5256,
          "time": 61.116279069767444,
          "velocity": 0.2125984251968504
        },
        {
          "duration": 0.04651162790698038,
          "durationTicks": 4,
          "midi": 77,
          "name": "F5",
          "ticks": 5257,
          "time": 61.127906976744185,
          "velocity": 0.2440944881889764
        },
        {
          "duration": 0.09302325581395365,
          "durationTicks": 8,
          "midi": 49,
          "name": "C#3",
          "ticks": 5258,
          "time": 61.13953488372093,
          "velocity": 0.5196850393700787
        },
        {
          "duration": 0.023255813953483084,
          "durationTicks": 2,
          "midi": 40,
          "name": "E2",
          "ticks": 5264,
          "time": 61.2093023255814,
          "velocity": 0.3779527559055118
        },
        {
          "duration": 0.12790697674418539,
          "durationTicks": 11,
          "midi": 78,
          "name": "F#5",
          "ticks": 5265,
          "time": 61.22093023255814,
          "velocity": 0.4015748031496063
        },
        {
          "duration": 0.011627906976748648,
          "durationTicks": 1,
          "midi": 60,
          "name": "C4",
          "ticks": 5266,
          "time": 61.23255813953488,
          "velocity": 0.5433070866141733
        },
        {
          "duration": 0.1046511627907023,
          "durationTicks": 9,
          "midi": 66,
          "name": "F#4",
          "ticks": 5266,
          "time": 61.23255813953488,
          "velocity": 0.2992125984251969
        },
        {
          "duration": 0.05813953488372192,
          "durationTicks": 5,
          "midi": 72,
          "name": "C5",
          "ticks": 5266,
          "time": 61.23255813953488,
          "velocity": 0.5905511811023622
        },
        {
          "duration": 0.09302325581395365,
          "durationTicks": 8,
          "midi": 47,
          "name": "B2",
          "ticks": 5267,
          "time": 61.24418604651163,
          "velocity": 0.4645669291338583
        },
        {
          "duration": 0.09302325581395365,
          "durationTicks": 8,
          "midi": 59,
          "name": "B3",
          "ticks": 5267,
          "time": 61.24418604651163,
          "velocity": 0.5433070866141733
        },
        {
          "duration": 0.046511627906973274,
          "durationTicks": 4,
          "midi": 93,
          "name": "A6",
          "ticks": 5267,
          "time": 61.24418604651163,
          "velocity": 0.07086614173228346
        },
        {
          "duration": 0.081395348837205,
          "durationTicks": 7,
          "midi": 74,
          "name": "D5",
          "ticks": 5269,
          "time": 61.26744186046512,
          "velocity": 0.2992125984251969
        },
        {
          "duration": 0.03488372093023173,
          "durationTicks": 3,
          "midi": 62,
          "name": "D4",
          "ticks": 5273,
          "time": 61.31395348837209,
          "velocity": 0.3779527559055118
        },
        {
          "duration": 0.04651162790698038,
          "durationTicks": 4,
          "midi": 81,
          "name": "A5",
          "ticks": 5273,
          "time": 61.31395348837209,
          "velocity": 0.23622047244094488
        },
        {
          "duration": 0.081395348837205,
          "durationTicks": 7,
          "midi": 80,
          "name": "G#5",
          "ticks": 5275,
          "time": 61.33720930232558,
          "velocity": 0.1889763779527559
        },
        {
          "duration": 0.04651162790698038,
          "durationTicks": 4,
          "midi": 56,
          "name": "G#3",
          "ticks": 5276,
          "time": 61.348837209302324,
          "velocity": 0.5669291338582677
        },
        {
          "duration": 0.011627906976748648,
          "durationTicks": 1,
          "midi": 64,
          "name": "E4",
          "ticks": 5276,
          "time": 61.348837209302324,
          "velocity": 0.5118110236220472
        },
        {
          "duration": 0.15116279069767558,
          "durationTicks": 13,
          "midi": 75,
          "name": "D#5",
          "ticks": 5276,
          "time": 61.348837209302324,
          "velocity": 0.4015748031496063
        },
        {
          "duration": 0.09302325581395365,
          "durationTicks": 8,
          "midi": 63,
          "name": "D#4",
          "ticks": 5277,
          "time": 61.36046511627907,
          "velocity": 0.5590551181102362
        },
        {
          "duration": 0.24418604651162212,
          "durationTicks": 21,
          "midi": 78,
          "name": "F#5",
          "ticks": 5277,
          "time": 61.36046511627907,
          "velocity": 0.3700787401574803
        },
        {
          "duration": 0.06976744186046346,
          "durationTicks": 6,
          "midi": 44,
          "name": "G#2",
          "ticks": 5278,
          "time": 61.372093023255815,
          "velocity": 0.4645669291338583
        },
        {
          "duration": 0.19767441860464885,
          "durationTicks": 17,
          "midi": 85,
          "name": "C#6",
          "ticks": 5278,
          "time": 61.372093023255815,
          "velocity": 0.25984251968503935
        },
        {
          "duration": 0.03488372093023173,
          "durationTicks": 3,
          "midi": 73,
          "name": "C#5",
          "ticks": 5279,
          "time": 61.383720930232556,
          "velocity": 0.25984251968503935
        },
        {
          "duration": 0.011627906976741542,
          "durationTicks": 1,
          "midi": 55,
          "name": "G3",
          "ticks": 5280,
          "time": 61.395348837209305,
          "velocity": 0.5669291338582677
        },
        {
          "duration": 0.06976744186046346,
          "durationTicks": 6,
          "midi": 82,
          "name": "A#5",
          "ticks": 5280,
          "time": 61.395348837209305,
          "velocity": 0.2283464566929134
        },
        {
          "duration": 0.03488372093023173,
          "durationTicks": 3,
          "midi": 56,
          "name": "G#3",
          "ticks": 5281,
          "time": 61.406976744186046,
          "velocity": 0.48031496062992124
        },
        {
          "duration": 0.02325581395349019,
          "durationTicks": 2,
          "midi": 73,
          "name": "C#5",
          "ticks": 5283,
          "time": 61.43023255813954,
          "velocity": 0.25196850393700787
        },
        {
          "duration": 0.023255813953483084,
          "durationTicks": 2,
          "midi": 64,
          "name": "E4",
          "ticks": 5285,
          "time": 61.45348837209303,
          "velocity": 0.5196850393700787
        },
        {
          "duration": 0.13953488372092693,
          "durationTicks": 12,
          "midi": 72,
          "name": "C5",
          "ticks": 5285,
          "time": 61.45348837209303,
          "velocity": 0.5511811023622047
        },
        {
          "duration": 0.03488372093023173,
          "durationTicks": 3,
          "midi": 83,
          "name": "B5",
          "ticks": 5285,
          "time": 61.45348837209303,
          "velocity": 0.2125984251968504
        },
        {
          "duration": 0.011627906976741542,
          "durationTicks": 1,
          "midi": 36,
          "name": "C2",
          "ticks": 5286,
          "time": 61.46511627906977,
          "velocity": 0.6062992125984252
        },
        {
          "duration": 0.011627906976741542,
          "durationTicks": 1,
          "midi": 50,
          "name": "D3",
          "ticks": 5286,
          "time": 61.46511627906977,
          "velocity": 0.5196850393700787
        },
        {
          "duration": 0.011627906976748648,
          "durationTicks": 1,
          "midi": 41,
          "name": "F2",
          "ticks": 5287,
          "time": 61.47674418604651,
          "velocity": 0.6141732283464567
        },
        {
          "duration": 0.011627906976748648,
          "durationTicks": 1,
          "midi": 51,
          "name": "D#3",
          "ticks": 5287,
          "time": 61.47674418604651,
          "velocity": 0.5354330708661418
        },
        {
          "duration": 0.09302325581395365,
          "durationTicks": 8,
          "midi": 63,
          "name": "D#4",
          "ticks": 5287,
          "time": 61.47674418604651,
          "velocity": 0.5354330708661418
        },
        {
          "duration": 0.011627906976741542,
          "durationTicks": 1,
          "midi": 43,
          "name": "G2",
          "ticks": 5288,
          "time": 61.48837209302326,
          "velocity": 0.5118110236220472
        },
        {
          "duration": 0.011627906976741542,
          "durationTicks": 1,
          "midi": 53,
          "name": "F3",
          "ticks": 5288,
          "time": 61.48837209302326,
          "velocity": 0.6062992125984252
        },
        {
          "duration": 0.011627906976741542,
          "durationTicks": 1,
          "midi": 45,
          "name": "A2",
          "ticks": 5289,
          "time": 61.5,
          "velocity": 0.5275590551181102
        },
        {
          "duration": 0.11627906976744384,
          "durationTicks": 10,
          "midi": 66,
          "name": "F#4",
          "ticks": 5289,
          "time": 61.5,
          "velocity": 0.3543307086614173
        },
        {
          "duration": 0.046511627906973274,
          "durationTicks": 4,
          "midi": 74,
          "name": "D5",
          "ticks": 5289,
          "time": 61.5,
          "velocity": 0.14173228346456693
        },
        {
          "duration": 0.04651162790698038,
          "durationTicks": 4,
          "midi": 41,
          "name": "F2",
          "ticks": 5290,
          "time": 61.51162790697674,
          "velocity": 0.6850393700787402
        },
        {
          "duration": 0.02325581395349019,
          "durationTicks": 2,
          "midi": 55,
          "name": "G3",
          "ticks": 5294,
          "time": 61.55813953488372,
          "velocity": 0.2677165354330709
        },
        {
          "duration": 0.02325581395349019,
          "durationTicks": 2,
          "midi": 39,
          "name": "D#2",
          "ticks": 5295,
          "time": 61.56976744186046,
          "velocity": 0.3700787401574803
        },
        {
          "duration": 0.03488372093023173,
          "durationTicks": 3,
          "midi": 55,
          "name": "G3",
          "ticks": 5297,
          "time": 61.593023255813954,
          "velocity": 0.14960629921259844
        },
        {
          "duration": 0.02325581395349019,
          "durationTicks": 2,
          "midi": 41,
          "name": "F2",
          "ticks": 5298,
          "time": 61.604651162790695,
          "velocity": 0.30708661417322836
        },
        {
          "duration": 0.04651162790698038,
          "durationTicks": 4,
          "midi": 40,
          "name": "E2",
          "ticks": 5300,
          "time": 61.627906976744185,
          "velocity": 0.2283464566929134
        },
        {
          "duration": 0.023255813953483084,
          "durationTicks": 2,
          "midi": 39,
          "name": "D#2",
          "ticks": 5304,
          "time": 61.674418604651166,
          "velocity": 0.44881889763779526
        },
        {
          "duration": 0.09302325581395365,
          "durationTicks": 8,
          "midi": 72,
          "name": "C5",
          "ticks": 5304,
          "time": 61.674418604651166,
          "velocity": 0.5433070866141733
        },
        {
          "duration": 0.09302325581395365,
          "durationTicks": 8,
          "midi": 80,
          "name": "G#5",
          "ticks": 5305,
          "time": 61.68604651162791,
          "velocity": 0.28346456692913385
        },
        {
          "duration": 0.02325581395349019,
          "durationTicks": 2,
          "midi": 88,
          "name": "E6",
          "ticks": 5305,
          "time": 61.68604651162791,
          "velocity": 0.25196850393700787
        },
        {
          "duration": 0.02325581395349019,
          "durationTicks": 2,
          "midi": 48,
          "name": "C3",
          "ticks": 5306,
          "time": 61.69767441860465,
          "velocity": 0.5748031496062992
        },
        {
          "duration": 0.15116279069767558,
          "durationTicks": 13,
          "midi": 63,
          "name": "D#4",
          "ticks": 5306,
          "time": 61.69767441860465,
          "velocity": 0.6062992125984252
        },
        {
          "duration": 0.12790697674418539,
          "durationTicks": 11,
          "midi": 78,
          "name": "F#5",
          "ticks": 5307,
          "time": 61.7093023255814,
          "velocity": 0.3543307086614173
        },
        {
          "duration": 0.011627906976741542,
          "durationTicks": 1,
          "midi": 50,
          "name": "D3",
          "ticks": 5308,
          "time": 61.72093023255814,
          "velocity": 0.6141732283464567
        },
        {
          "duration": 0.04651162790698038,
          "durationTicks": 4,
          "midi": 49,
          "name": "C#3",
          "ticks": 5309,
          "time": 61.73255813953488,
          "velocity": 0.5984251968503937
        },
        {
          "duration": 0.011627906976748648,
          "durationTicks": 1,
          "midi": 53,
          "name": "F3",
          "ticks": 5309,
          "time": 61.73255813953488,
          "velocity": 0.5354330708661418
        },
        {
          "duration": 0.09302325581395365,
          "durationTicks": 8,
          "midi": 71,
          "name": "B4",
          "ticks": 5310,
          "time": 61.74418604651163,
          "velocity": 0.2677165354330709
        },
        {
          "duration": 0.09302325581395365,
          "durationTicks": 8,
          "midi": 85,
          "name": "C#6",
          "ticks": 5311,
          "time": 61.75581395348837,
          "velocity": 0.08661417322834646
        },
        {
          "duration": 0.081395348837205,
          "durationTicks": 7,
          "midi": 73,
          "name": "C#5",
          "ticks": 5312,
          "time": 61.76744186046512,
          "velocity": 0.2755905511811024
        },
        {
          "duration": 0.03488372093023173,
          "durationTicks": 3,
          "midi": 54,
          "name": "F#3",
          "ticks": 5314,
          "time": 61.7906976744186,
          "velocity": 0.3779527559055118
        },
        {
          "duration": 0.02325581395349019,
          "durationTicks": 2,
          "midi": 60,
          "name": "C4",
          "ticks": 5314,
          "time": 61.7906976744186,
          "velocity": 0.2677165354330709
        },
        {
          "duration": 0.05813953488372192,
          "durationTicks": 5,
          "midi": 59,
          "name": "B3",
          "ticks": 5316,
          "time": 61.81395348837209,
          "velocity": 0.3228346456692913
        },
        {
          "duration": 0.03488372093023884,
          "durationTicks": 3,
          "midi": 55,
          "name": "G3",
          "ticks": 5317,
          "time": 61.825581395348834,
          "velocity": 0.3700787401574803
        },
        {
          "duration": 0.046511627906973274,
          "durationTicks": 4,
          "midi": 77,
          "name": "F5",
          "ticks": 5318,
          "time": 61.83720930232558,
          "velocity": 0.25984251968503935
        },
        {
          "duration": 0.03488372093023173,
          "durationTicks": 3,
          "midi": 59,
          "name": "B3",
          "ticks": 5322,
          "time": 61.883720930232556,
          "velocity": 0.2204724409448819
        },
        {
          "duration": 0.03488372093023173,
          "durationTicks": 3,
          "midi": 81,
          "name": "A5",
          "ticks": 5324,
          "time": 61.906976744186046,
          "velocity": 0.2755905511811024
        },
        {
          "duration": 0.03488372093023173,
          "durationTicks": 3,
          "midi": 83,
          "name": "B5",
          "ticks": 5324,
          "time": 61.906976744186046,
          "velocity": 0.25984251968503935
        },
        {
          "duration": 0.03488372093023173,
          "durationTicks": 3,
          "midi": 84,
          "name": "C6",
          "ticks": 5324,
          "time": 61.906976744186046,
          "velocity": 0.2755905511811024
        },
        {
          "duration": 0.03488372093023173,
          "durationTicks": 3,
          "midi": 87,
          "name": "D#6",
          "ticks": 5324,
          "time": 61.906976744186046,
          "velocity": 0.29133858267716534
        },
        {
          "duration": 0.02325581395349019,
          "durationTicks": 2,
          "midi": 56,
          "name": "G#3",
          "ticks": 5325,
          "time": 61.91860465116279,
          "velocity": 0.44881889763779526
        },
        {
          "duration": 0.12790697674418539,
          "durationTicks": 11,
          "midi": 72,
          "name": "C5",
          "ticks": 5325,
          "time": 61.91860465116279,
          "velocity": 0.5905511811023622
        },
        {
          "duration": 0.02325581395349019,
          "durationTicks": 2,
          "midi": 79,
          "name": "G5",
          "ticks": 5325,
          "time": 61.91860465116279,
          "velocity": 0.2755905511811024
        },
        {
          "duration": 0.02325581395349019,
          "durationTicks": 2,
          "midi": 86,
          "name": "D6",
          "ticks": 5325,
          "time": 61.91860465116279,
          "velocity": 0.28346456692913385
        },
        {
          "duration": 0.011627906976741542,
          "durationTicks": 1,
          "midi": 40,
          "name": "E2",
          "ticks": 5326,
          "time": 61.93023255813954,
          "velocity": 0.5984251968503937
        },
        {
          "duration": 0.12790697674418539,
          "durationTicks": 11,
          "midi": 63,
          "name": "D#4",
          "ticks": 5326,
          "time": 61.93023255813954,
          "velocity": 0.5669291338582677
        },
        {
          "duration": 0.011627906976748648,
          "durationTicks": 1,
          "midi": 41,
          "name": "F2",
          "ticks": 5327,
          "time": 61.94186046511628,
          "velocity": 0.5748031496062992
        },
        {
          "duration": 0.023255813953483084,
          "durationTicks": 2,
          "midi": 44,
          "name": "G#2",
          "ticks": 5328,
          "time": 61.95348837209303,
          "velocity": 0.5196850393700787
        },
        {
          "duration": 0.011627906976741542,
          "durationTicks": 1,
          "midi": 53,
          "name": "F3",
          "ticks": 5328,
          "time": 61.95348837209303,
          "velocity": 0.5590551181102362
        },
        {
          "duration": 0.03488372093023173,
          "durationTicks": 3,
          "midi": 67,
          "name": "G4",
          "ticks": 5328,
          "time": 61.95348837209303,
          "velocity": 0.09448818897637795
        },
        {
          "duration": 0.058139534883714816,
          "durationTicks": 5,
          "midi": 74,
          "name": "D5",
          "ticks": 5328,
          "time": 61.95348837209303,
          "velocity": 0.14960629921259844
        },
        {
          "duration": 0.04651162790698038,
          "durationTicks": 4,
          "midi": 41,
          "name": "F2",
          "ticks": 5330,
          "time": 61.97674418604651,
          "velocity": 0.6614173228346457
        },
        {
          "duration": 0.06976744186046346,
          "durationTicks": 6,
          "midi": 55,
          "name": "G3",
          "ticks": 5334,
          "time": 62.02325581395349,
          "velocity": 0.2677165354330709
        },
        {
          "duration": 0.02325581395349019,
          "durationTicks": 2,
          "midi": 40,
          "name": "E2",
          "ticks": 5336,
          "time": 62.04651162790697,
          "velocity": 0.33858267716535434
        },
        {
          "duration": 0.058139534883714816,
          "durationTicks": 5,
          "midi": 40,
          "name": "E2",
          "ticks": 5339,
          "time": 62.08139534883721,
          "velocity": 0.23622047244094488
        },
        {
          "duration": 0.02325581395349019,
          "durationTicks": 2,
          "midi": 82,
          "name": "A#5",
          "ticks": 5344,
          "time": 62.13953488372093,
          "velocity": 0.23622047244094488
        },
        {
          "duration": 0.03488372093023884,
          "durationTicks": 3,
          "midi": 86,
          "name": "D6",
          "ticks": 5344,
          "time": 62.13953488372093,
          "velocity": 0.2283464566929134
        },
        {
          "duration": 0.11627906976744384,
          "durationTicks": 10,
          "midi": 65,
          "name": "F4",
          "ticks": 5345,
          "time": 62.151162790697676,
          "velocity": 0.6141732283464567
        },
        {
          "duration": 0.06976744186046346,
          "durationTicks": 6,
          "midi": 72,
          "name": "C5",
          "ticks": 5345,
          "time": 62.151162790697676,
          "velocity": 0.5275590551181102
        },
        {
          "duration": 0.02325581395349019,
          "durationTicks": 2,
          "midi": 85,
          "name": "C#6",
          "ticks": 5345,
          "time": 62.151162790697676,
          "velocity": 0.2283464566929134
        },
        {
          "duration": 0.02325581395349019,
          "durationTicks": 2,
          "midi": 48,
          "name": "C3",
          "ticks": 5346,
          "time": 62.16279069767442,
          "velocity": 0.5511811023622047
        },
        {
          "duration": 0.05813953488372192,
          "durationTicks": 5,
          "midi": 61,
          "name": "C#4",
          "ticks": 5346,
          "time": 62.16279069767442,
          "velocity": 0.3937007874015748
        },
        {
          "duration": 0.19767441860465595,
          "durationTicks": 17,
          "midi": 78,
          "name": "F#5",
          "ticks": 5346,
          "time": 62.16279069767442,
          "velocity": 0.44881889763779526
        },
        {
          "duration": 0.08139534883721211,
          "durationTicks": 7,
          "midi": 80,
          "name": "G#5",
          "ticks": 5346,
          "time": 62.16279069767442,
          "velocity": 0.30708661417322836
        },
        {
          "duration": 0.08139534883721211,
          "durationTicks": 7,
          "midi": 83,
          "name": "B5",
          "ticks": 5346,
          "time": 62.16279069767442,
          "velocity": 0.23622047244094488
        },
        {
          "duration": 0.011627906976741542,
          "durationTicks": 1,
          "midi": 49,
          "name": "C#3",
          "ticks": 5348,
          "time": 62.18604651162791,
          "velocity": 0.6062992125984252
        },
        {
          "duration": 0.011627906976748648,
          "durationTicks": 1,
          "midi": 50,
          "name": "D3",
          "ticks": 5349,
          "time": 62.19767441860465,
          "velocity": 0.5905511811023622
        },
        {
          "duration": 0.011627906976741542,
          "durationTicks": 1,
          "midi": 49,
          "name": "C#3",
          "ticks": 5350,
          "time": 62.2093023255814,
          "velocity": 0.5118110236220472
        },
        {
          "duration": 0.09302325581395365,
          "durationTicks": 8,
          "midi": 71,
          "name": "B4",
          "ticks": 5350,
          "time": 62.2093023255814,
          "velocity": 0.3228346456692913
        },
        {
          "duration": 0.03488372093023173,
          "durationTicks": 3,
          "midi": 73,
          "name": "C#5",
          "ticks": 5351,
          "time": 62.22093023255814,
          "velocity": 0.28346456692913385
        },
        {
          "duration": 0.02325581395349019,
          "durationTicks": 2,
          "midi": 50,
          "name": "D3",
          "ticks": 5352,
          "time": 62.23255813953488,
          "velocity": 0.47244094488188976
        },
        {
          "duration": 0.03488372093023884,
          "durationTicks": 3,
          "midi": 59,
          "name": "B3",
          "ticks": 5352,
          "time": 62.23255813953488,
          "velocity": 0.33070866141732286
        },
        {
          "duration": 0.03488372093023173,
          "durationTicks": 3,
          "midi": 49,
          "name": "C#3",
          "ticks": 5353,
          "time": 62.24418604651163,
          "velocity": 0.31496062992125984
        },
        {
          "duration": 0.03488372093023173,
          "durationTicks": 3,
          "midi": 54,
          "name": "F#3",
          "ticks": 5354,
          "time": 62.25581395348837,
          "velocity": 0.31496062992125984
        },
        {
          "duration": 0.03488372093023173,
          "durationTicks": 3,
          "midi": 80,
          "name": "G#5",
          "ticks": 5354,
          "time": 62.25581395348837,
          "velocity": 0.1732283464566929
        },
        {
          "duration": 0.24418604651162212,
          "durationTicks": 21,
          "midi": 63,
          "name": "D#4",
          "ticks": 5355,
          "time": 62.26744186046512,
          "velocity": 0.5905511811023622
        },
        {
          "duration": 0.03488372093023173,
          "durationTicks": 3,
          "midi": 73,
          "name": "C#5",
          "ticks": 5356,
          "time": 62.27906976744186,
          "velocity": 0.2204724409448819
        },
        {
          "duration": 0.04651162790698038,
          "durationTicks": 4,
          "midi": 55,
          "name": "G3",
          "ticks": 5357,
          "time": 62.2906976744186,
          "velocity": 0.33070866141732286
        },
        {
          "duration": 0.03488372093023173,
          "durationTicks": 3,
          "midi": 59,
          "name": "B3",
          "ticks": 5357,
          "time": 62.2906976744186,
          "velocity": 0.3464566929133858
        },
        {
          "duration": 0.03488372093023173,
          "durationTicks": 3,
          "midi": 80,
          "name": "G#5",
          "ticks": 5364,
          "time": 62.372093023255815,
          "velocity": 0.1889763779527559
        },
        {
          "duration": 0.03488372093023173,
          "durationTicks": 3,
          "midi": 85,
          "name": "C#6",
          "ticks": 5364,
          "time": 62.372093023255815,
          "velocity": 0.2125984251968504
        },
        {
          "duration": 0.011627906976748648,
          "durationTicks": 1,
          "midi": 35,
          "name": "B1",
          "ticks": 5365,
          "time": 62.383720930232556,
          "velocity": 0.5826771653543307
        },
        {
          "duration": 0.1046511627907023,
          "durationTicks": 9,
          "midi": 72,
          "name": "C5",
          "ticks": 5365,
          "time": 62.383720930232556,
          "velocity": 0.5590551181102362
        },
        {
          "duration": 0.04651162790698038,
          "durationTicks": 4,
          "midi": 77,
          "name": "F5",
          "ticks": 5365,
          "time": 62.383720930232556,
          "velocity": 0.25196850393700787
        },
        {
          "duration": 0.011627906976741542,
          "durationTicks": 1,
          "midi": 40,
          "name": "E2",
          "ticks": 5366,
          "time": 62.395348837209305,
          "velocity": 0.6220472440944882
        },
        {
          "duration": 0.06976744186046346,
          "durationTicks": 6,
          "midi": 82,
          "name": "A#5",
          "ticks": 5366,
          "time": 62.395348837209305,
          "velocity": 0.1889763779527559
        },
        {
          "duration": 0.011627906976741542,
          "durationTicks": 1,
          "midi": 43,
          "name": "G2",
          "ticks": 5367,
          "time": 62.406976744186046,
          "velocity": 0.5511811023622047
        },
        {
          "duration": 0.011627906976741542,
          "durationTicks": 1,
          "midi": 30,
          "name": "F#1",
          "ticks": 5369,
          "time": 62.43023255813954,
          "velocity": 0.5748031496062992
        },
        {
          "duration": 0.02325581395349019,
          "durationTicks": 2,
          "midi": 51,
          "name": "D#3",
          "ticks": 5369,
          "time": 62.43023255813954,
          "velocity": 0.5433070866141733
        },
        {
          "duration": 0.12790697674418539,
          "durationTicks": 11,
          "midi": 68,
          "name": "G#4",
          "ticks": 5369,
          "time": 62.43023255813954,
          "velocity": 0.2125984251968504
        },
        {
          "duration": 0.04651162790698038,
          "durationTicks": 4,
          "midi": 41,
          "name": "F2",
          "ticks": 5370,
          "time": 62.44186046511628,
          "velocity": 0.6771653543307087
        },
        {
          "duration": 0.011627906976741542,
          "durationTicks": 1,
          "midi": 52,
          "name": "E3",
          "ticks": 5371,
          "time": 62.45348837209303,
          "velocity": 0.5196850393700787
        },
        {
          "duration": 0.03488372093023173,
          "durationTicks": 3,
          "midi": 56,
          "name": "G#3",
          "ticks": 5372,
          "time": 62.46511627906977,
          "velocity": 0.4330708661417323
        },
        {
          "duration": 0.03488372093023173,
          "durationTicks": 3,
          "midi": 56,
          "name": "G#3",
          "ticks": 5376,
          "time": 62.51162790697674,
          "velocity": 0.3464566929133858
        },
        {
          "duration": 0.023255813953483084,
          "durationTicks": 2,
          "midi": 41,
          "name": "F2",
          "ticks": 5377,
          "time": 62.52325581395349,
          "velocity": 0.33070866141732286
        },
        {
          "duration": 0.06976744186047057,
          "durationTicks": 6,
          "midi": 40,
          "name": "E2",
          "ticks": 5379,
          "time": 62.54651162790697,
          "velocity": 0.2992125984251969
        },
        {
          "duration": 0.08139534883721211,
          "durationTicks": 7,
          "midi": 63,
          "name": "D#4",
          "ticks": 5384,
          "time": 62.604651162790695,
          "velocity": 0.5669291338582677
        },
        {
          "duration": 0.08139534883721211,
          "durationTicks": 7,
          "midi": 72,
          "name": "C5",
          "ticks": 5384,
          "time": 62.604651162790695,
          "velocity": 0.5511811023622047
        },
        {
          "duration": 0.03488372093023173,
          "durationTicks": 3,
          "midi": 81,
          "name": "A5",
          "ticks": 5384,
          "time": 62.604651162790695,
          "velocity": 0.1968503937007874
        },
        {
          "duration": 0.27906976744186096,
          "durationTicks": 24,
          "midi": 80,
          "name": "G#5",
          "ticks": 5386,
          "time": 62.627906976744185,
          "velocity": 0.28346456692913385
        },
        {
          "duration": 0.06976744186046346,
          "durationTicks": 6,
          "midi": 54,
          "name": "F#3",
          "ticks": 5388,
          "time": 62.651162790697676,
          "velocity": 0.3937007874015748
        },
        {
          "duration": 0.03488372093023173,
          "durationTicks": 3,
          "midi": 40,
          "name": "E2",
          "ticks": 5390,
          "time": 62.674418604651166,
          "velocity": 0.2047244094488189
        },
        {
          "duration": 0.03488372093023173,
          "durationTicks": 3,
          "midi": 73,
          "name": "C#5",
          "ticks": 5390,
          "time": 62.674418604651166,
          "velocity": 0.29133858267716534
        },
        {
          "duration": 0.16279069767441712,
          "durationTicks": 14,
          "midi": 61,
          "name": "C#4",
          "ticks": 5391,
          "time": 62.68604651162791,
          "velocity": 0.5039370078740157
        },
        {
          "duration": 0.02325581395349019,
          "durationTicks": 2,
          "midi": 54,
          "name": "F#3",
          "ticks": 5395,
          "time": 62.73255813953488,
          "velocity": 0.33070866141732286
        },
        {
          "duration": 0.02325581395349019,
          "durationTicks": 2,
          "midi": 36,
          "name": "C2",
          "ticks": 5404,
          "time": 62.83720930232558,
          "velocity": 0.5905511811023622
        },
        {
          "duration": 0.09302325581395365,
          "durationTicks": 8,
          "midi": 83,
          "name": "B5",
          "ticks": 5404,
          "time": 62.83720930232558,
          "velocity": 0.3228346456692913
        },
        {
          "duration": 0.03488372093023173,
          "durationTicks": 3,
          "midi": 86,
          "name": "D6",
          "ticks": 5404,
          "time": 62.83720930232558,
          "velocity": 0.2440944881889764
        },
        {
          "duration": 0.011627906976748648,
          "durationTicks": 1,
          "midi": 51,
          "name": "D#3",
          "ticks": 5405,
          "time": 62.848837209302324,
          "velocity": 0.5826771653543307
        },
        {
          "duration": 0.04651162790698038,
          "durationTicks": 4,
          "midi": 64,
          "name": "E4",
          "ticks": 5405,
          "time": 62.848837209302324,
          "velocity": 0.6456692913385826
        },
        {
          "duration": 0.1046511627907023,
          "durationTicks": 9,
          "midi": 71,
          "name": "B4",
          "ticks": 5405,
          "time": 62.848837209302324,
          "velocity": 0.28346456692913385
        },
        {
          "duration": 0.1046511627907023,
          "durationTicks": 9,
          "midi": 75,
          "name": "D#5",
          "ticks": 5405,
          "time": 62.848837209302324,
          "velocity": 0.49606299212598426
        },
        {
          "duration": 0.02325581395349019,
          "durationTicks": 2,
          "midi": 78,
          "name": "F#5",
          "ticks": 5405,
          "time": 62.848837209302324,
          "velocity": 0.25984251968503935
        },
        {
          "duration": 0.03488372093023173,
          "durationTicks": 3,
          "midi": 84,
          "name": "C6",
          "ticks": 5405,
          "time": 62.848837209302324,
          "velocity": 0.23622047244094488
        },
        {
          "duration": 0.011627906976741542,
          "durationTicks": 1,
          "midi": 30,
          "name": "F#1",
          "ticks": 5406,
          "time": 62.86046511627907,
          "velocity": 0.5118110236220472
        },
        {
          "duration": 0.023255813953483084,
          "durationTicks": 2,
          "midi": 41,
          "name": "F2",
          "ticks": 5406,
          "time": 62.86046511627907,
          "velocity": 0.6062992125984252
        },
        {
          "duration": 0.03488372093023173,
          "durationTicks": 3,
          "midi": 52,
          "name": "E3",
          "ticks": 5406,
          "time": 62.86046511627907,
          "velocity": 0.6220472440944882
        },
        {
          "duration": 0.011627906976741542,
          "durationTicks": 1,
          "midi": 57,
          "name": "A3",
          "ticks": 5406,
          "time": 62.86046511627907,
          "velocity": 0.5118110236220472
        },
        {
          "duration": 0.046511627906973274,
          "durationTicks": 4,
          "midi": 68,
          "name": "G#4",
          "ticks": 5406,
          "time": 62.86046511627907,
          "velocity": 0.14960629921259844
        },
        {
          "duration": 0.09302325581395365,
          "durationTicks": 8,
          "midi": 77,
          "name": "F5",
          "ticks": 5407,
          "time": 62.872093023255815,
          "velocity": 0.2992125984251969
        },
        {
          "duration": 0.011627906976748648,
          "durationTicks": 1,
          "midi": 38,
          "name": "D2",
          "ticks": 5408,
          "time": 62.883720930232556,
          "velocity": 0.5275590551181102
        },
        {
          "duration": 0.011627906976741542,
          "durationTicks": 1,
          "midi": 41,
          "name": "F2",
          "ticks": 5409,
          "time": 62.895348837209305,
          "velocity": 0.6692913385826772
        },
        {
          "duration": 0.011627906976741542,
          "durationTicks": 1,
          "midi": 57,
          "name": "A3",
          "ticks": 5409,
          "time": 62.895348837209305,
          "velocity": 0.5118110236220472
        },
        {
          "duration": 0.02325581395349019,
          "durationTicks": 2,
          "midi": 42,
          "name": "F#2",
          "ticks": 5410,
          "time": 62.906976744186046,
          "velocity": 0.6929133858267716
        },
        {
          "duration": 0.04651162790698038,
          "durationTicks": 4,
          "midi": 64,
          "name": "E4",
          "ticks": 5410,
          "time": 62.906976744186046,
          "velocity": 0.4881889763779528
        },
        {
          "duration": 0.011627906976741542,
          "durationTicks": 1,
          "midi": 41,
          "name": "F2",
          "ticks": 5412,
          "time": 62.93023255813954,
          "velocity": 0.5354330708661418
        },
        {
          "duration": 0.05813953488372192,
          "durationTicks": 5,
          "midi": 84,
          "name": "C6",
          "ticks": 5412,
          "time": 62.93023255813954,
          "velocity": 0.23622047244094488
        },
        {
          "duration": 0.03488372093023173,
          "durationTicks": 3,
          "midi": 58,
          "name": "A#3",
          "ticks": 5413,
          "time": 62.94186046511628,
          "velocity": 0.4015748031496063
        },
        {
          "duration": 0.15116279069766847,
          "durationTicks": 13,
          "midi": 80,
          "name": "G#5",
          "ticks": 5414,
          "time": 62.95348837209303,
          "velocity": 0.3700787401574803
        },
        {
          "duration": 0.11627906976744384,
          "durationTicks": 10,
          "midi": 68,
          "name": "G#4",
          "ticks": 5415,
          "time": 62.96511627906977,
          "velocity": 0.2204724409448819
        },
        {
          "duration": 0.1046511627907023,
          "durationTicks": 9,
          "midi": 49,
          "name": "C#3",
          "ticks": 5416,
          "time": 62.97674418604651,
          "velocity": 0.5275590551181102
        },
        {
          "duration": 0.05813953488372192,
          "durationTicks": 5,
          "midi": 77,
          "name": "F5",
          "ticks": 5416,
          "time": 62.97674418604651,
          "velocity": 0.2440944881889764
        },
        {
          "duration": 0.1046511627907023,
          "durationTicks": 9,
          "midi": 75,
          "name": "D#5",
          "ticks": 5424,
          "time": 63.06976744186046,
          "velocity": 0.5826771653543307
        },
        {
          "duration": 0.11627906976744384,
          "durationTicks": 10,
          "midi": 78,
          "name": "F#5",
          "ticks": 5424,
          "time": 63.06976744186046,
          "velocity": 0.4251968503937008
        },
        {
          "duration": 0.15116279069767558,
          "durationTicks": 13,
          "midi": 89,
          "name": "F6",
          "ticks": 5424,
          "time": 63.06976744186046,
          "velocity": 0.25196850393700787
        },
        {
          "duration": 0.1046511627906952,
          "durationTicks": 9,
          "midi": 66,
          "name": "F#4",
          "ticks": 5425,
          "time": 63.08139534883721,
          "velocity": 0.30708661417322836
        },
        {
          "duration": 0.023255813953483084,
          "durationTicks": 2,
          "midi": 86,
          "name": "D6",
          "ticks": 5425,
          "time": 63.08139534883721,
          "velocity": 0.2440944881889764
        },
        {
          "duration": 0.09302325581395365,
          "durationTicks": 8,
          "midi": 47,
          "name": "B2",
          "ticks": 5426,
          "time": 63.093023255813954,
          "velocity": 0.4645669291338583
        },
        {
          "duration": 0.03488372093023173,
          "durationTicks": 3,
          "midi": 59,
          "name": "B3",
          "ticks": 5426,
          "time": 63.093023255813954,
          "velocity": 0.6377952755905512
        },
        {
          "duration": 0.046511627906973274,
          "durationTicks": 4,
          "midi": 70,
          "name": "A#4",
          "ticks": 5426,
          "time": 63.093023255813954,
          "velocity": 0.4015748031496063
        },
        {
          "duration": 0.03488372093023173,
          "durationTicks": 3,
          "midi": 58,
          "name": "A#3",
          "ticks": 5429,
          "time": 63.127906976744185,
          "velocity": 0.6220472440944882
        },
        {
          "duration": 0.02325581395349019,
          "durationTicks": 2,
          "midi": 71,
          "name": "B4",
          "ticks": 5429,
          "time": 63.127906976744185,
          "velocity": 0.33070866141732286
        },
        {
          "duration": 0.03488372093023173,
          "durationTicks": 3,
          "midi": 58,
          "name": "A#3",
          "ticks": 5433,
          "time": 63.174418604651166,
          "velocity": 0.5590551181102362
        },
        {
          "duration": 0.22093023255813904,
          "durationTicks": 19,
          "midi": 75,
          "name": "D#5",
          "ticks": 5434,
          "time": 63.18604651162791,
          "velocity": 0.5433070866141733
        },
        {
          "duration": 0.03488372093023173,
          "durationTicks": 3,
          "midi": 84,
          "name": "C6",
          "ticks": 5434,
          "time": 63.18604651162791,
          "velocity": 0.1968503937007874
        },
        {
          "duration": 0.011627906976748648,
          "durationTicks": 1,
          "midi": 64,
          "name": "E4",
          "ticks": 5435,
          "time": 63.19767441860465,
          "velocity": 0.6062992125984252
        },
        {
          "duration": 0.19767441860465595,
          "durationTicks": 17,
          "midi": 68,
          "name": "G#4",
          "ticks": 5435,
          "time": 63.19767441860465,
          "velocity": 0.4566929133858268
        },
        {
          "duration": 0.03488372093023173,
          "durationTicks": 3,
          "midi": 83,
          "name": "B5",
          "ticks": 5435,
          "time": 63.19767441860465,
          "velocity": 0.2047244094488189
        },
        {
          "duration": 0.09302325581395365,
          "durationTicks": 8,
          "midi": 63,
          "name": "D#4",
          "ticks": 5436,
          "time": 63.2093023255814,
          "velocity": 0.6220472440944882
        },
        {
          "duration": 0.08139534883721211,
          "durationTicks": 7,
          "midi": 44,
          "name": "G#2",
          "ticks": 5437,
          "time": 63.22093023255814,
          "velocity": 0.49606299212598426
        },
        {
          "duration": 0.02325581395349019,
          "durationTicks": 2,
          "midi": 59,
          "name": "B3",
          "ticks": 5437,
          "time": 63.22093023255814,
          "velocity": 0.30708661417322836
        },
        {
          "duration": 0.02325581395349019,
          "durationTicks": 2,
          "midi": 53,
          "name": "F3",
          "ticks": 5438,
          "time": 63.23255813953488,
          "velocity": 0.3858267716535433
        },
        {
          "duration": 0.06976744186047057,
          "durationTicks": 6,
          "midi": 77,
          "name": "F5",
          "ticks": 5438,
          "time": 63.23255813953488,
          "velocity": 0.2755905511811024
        },
        {
          "duration": 0.11627906976744384,
          "durationTicks": 10,
          "midi": 84,
          "name": "C6",
          "ticks": 5438,
          "time": 63.23255813953488,
          "velocity": 0.33858267716535434
        },
        {
          "duration": 0.13953488372092693,
          "durationTicks": 12,
          "midi": 72,
          "name": "C5",
          "ticks": 5439,
          "time": 63.24418604651163,
          "velocity": 0.23622047244094488
        },
        {
          "duration": 0.02325581395349019,
          "durationTicks": 2,
          "midi": 55,
          "name": "G3",
          "ticks": 5440,
          "time": 63.25581395348837,
          "velocity": 0.4645669291338583
        },
        {
          "duration": 0.02325581395349019,
          "durationTicks": 2,
          "midi": 55,
          "name": "G3",
          "ticks": 5443,
          "time": 63.2906976744186,
          "velocity": 0.5196850393700787
        },
        {
          "duration": 0.02325581395349019,
          "durationTicks": 2,
          "midi": 78,
          "name": "F#5",
          "ticks": 5443,
          "time": 63.2906976744186,
          "velocity": 0.2992125984251969
        },
        {
          "duration": 0.16279069767442422,
          "durationTicks": 14,
          "midi": 82,
          "name": "A#5",
          "ticks": 5443,
          "time": 63.2906976744186,
          "velocity": 0.2755905511811024
        },
        {
          "duration": 0.046511627906973274,
          "durationTicks": 4,
          "midi": 85,
          "name": "C#6",
          "ticks": 5444,
          "time": 63.30232558139535,
          "velocity": 0.23622047244094488
        },
        {
          "duration": 0.023255813953483084,
          "durationTicks": 2,
          "midi": 86,
          "name": "D6",
          "ticks": 5444,
          "time": 63.30232558139535,
          "velocity": 0.23622047244094488
        },
        {
          "duration": 0.011627906976741542,
          "durationTicks": 1,
          "midi": 40,
          "name": "E2",
          "ticks": 5445,
          "time": 63.31395348837209,
          "velocity": 0.6220472440944882
        },
        {
          "duration": 0.02325581395349019,
          "durationTicks": 2,
          "midi": 58,
          "name": "A#3",
          "ticks": 5445,
          "time": 63.31395348837209,
          "velocity": 0.4566929133858268
        },
        {
          "duration": 0.011627906976741542,
          "durationTicks": 1,
          "midi": 64,
          "name": "E4",
          "ticks": 5445,
          "time": 63.31395348837209,
          "velocity": 0.5275590551181102
        },
        {
          "duration": 0.03488372093023173,
          "durationTicks": 3,
          "midi": 79,
          "name": "G5",
          "ticks": 5445,
          "time": 63.31395348837209,
          "velocity": 0.25984251968503935
        },
        {
          "duration": 0.02325581395349019,
          "durationTicks": 2,
          "midi": 41,
          "name": "F2",
          "ticks": 5446,
          "time": 63.325581395348834,
          "velocity": 0.6141732283464567
        },
        {
          "duration": 0.06976744186047057,
          "durationTicks": 6,
          "midi": 63,
          "name": "D#4",
          "ticks": 5446,
          "time": 63.325581395348834,
          "velocity": 0.5039370078740157
        },
        {
          "duration": 0.04651162790698038,
          "durationTicks": 4,
          "midi": 77,
          "name": "F5",
          "ticks": 5446,
          "time": 63.325581395348834,
          "velocity": 0.2204724409448819
        },
        {
          "duration": 0.011627906976741542,
          "durationTicks": 1,
          "midi": 53,
          "name": "F3",
          "ticks": 5447,
          "time": 63.33720930232558,
          "velocity": 0.6141732283464567
        },
        {
          "duration": 0.011627906976748648,
          "durationTicks": 1,
          "midi": 38,
          "name": "D2",
          "ticks": 5448,
          "time": 63.348837209302324,
          "velocity": 0.5826771653543307
        },
        {
          "duration": 0.011627906976748648,
          "durationTicks": 1,
          "midi": 52,
          "name": "E3",
          "ticks": 5448,
          "time": 63.348837209302324,
          "velocity": 0.6062992125984252
        },
        {
          "duration": 0.011627906976741542,
          "durationTicks": 1,
          "midi": 41,
          "name": "F2",
          "ticks": 5449,
          "time": 63.36046511627907,
          "velocity": 0.6850393700787402
        },
        {
          "duration": 0.023255813953483084,
          "durationTicks": 2,
          "midi": 51,
          "name": "D#3",
          "ticks": 5449,
          "time": 63.36046511627907,
          "velocity": 0.5511811023622047
        },
        {
          "duration": 0.02325581395349019,
          "durationTicks": 2,
          "midi": 42,
          "name": "F#2",
          "ticks": 5450,
          "time": 63.372093023255815,
          "velocity": 0.6850393700787402
        },
        {
          "duration": 0.011627906976748648,
          "durationTicks": 1,
          "midi": 50,
          "name": "D3",
          "ticks": 5451,
          "time": 63.383720930232556,
          "velocity": 0.5118110236220472
        },
        {
          "duration": 0.011627906976741542,
          "durationTicks": 1,
          "midi": 41,
          "name": "F2",
          "ticks": 5452,
          "time": 63.395348837209305,
          "velocity": 0.5196850393700787
        },
        {
          "duration": 0.1046511627906952,
          "durationTicks": 9,
          "midi": 51,
          "name": "D#3",
          "ticks": 5452,
          "time": 63.395348837209305,
          "velocity": 0.5511811023622047
        },
        {
          "duration": 0.02325581395349019,
          "durationTicks": 2,
          "midi": 41,
          "name": "F2",
          "ticks": 5455,
          "time": 63.43023255813954,
          "velocity": 0.36220472440944884
        },
        {
          "duration": 0.023255813953483084,
          "durationTicks": 2,
          "midi": 76,
          "name": "E5",
          "ticks": 5463,
          "time": 63.52325581395349,
          "velocity": 0.4409448818897638
        },
        {
          "duration": 0.011627906976748648,
          "durationTicks": 1,
          "midi": 48,
          "name": "C3",
          "ticks": 5465,
          "time": 63.54651162790697,
          "velocity": 0.5118110236220472
        },
        {
          "duration": 0.06976744186047057,
          "durationTicks": 6,
          "midi": 55,
          "name": "G3",
          "ticks": 5465,
          "time": 63.54651162790697,
          "velocity": 0.5590551181102362
        },
        {
          "duration": 0.1046511627907023,
          "durationTicks": 9,
          "midi": 63,
          "name": "D#4",
          "ticks": 5465,
          "time": 63.54651162790697,
          "velocity": 0.5669291338582677
        },
        {
          "duration": 0.03488372093023884,
          "durationTicks": 3,
          "midi": 69,
          "name": "A4",
          "ticks": 5465,
          "time": 63.54651162790697,
          "velocity": 0.18110236220472442
        },
        {
          "duration": 0.09302325581395365,
          "durationTicks": 8,
          "midi": 80,
          "name": "G#5",
          "ticks": 5465,
          "time": 63.54651162790697,
          "velocity": 0.2755905511811024
        },
        {
          "duration": 0.081395348837205,
          "durationTicks": 7,
          "midi": 49,
          "name": "C#3",
          "ticks": 5466,
          "time": 63.55813953488372,
          "velocity": 0.5590551181102362
        },
        {
          "duration": 0.13953488372092693,
          "durationTicks": 12,
          "midi": 72,
          "name": "C5",
          "ticks": 5466,
          "time": 63.55813953488372,
          "velocity": 0.23622047244094488
        },
        {
          "duration": 0.046511627906973274,
          "durationTicks": 4,
          "midi": 86,
          "name": "D6",
          "ticks": 5466,
          "time": 63.55813953488372,
          "velocity": 0.07086614173228346
        },
        {
          "duration": 0.12790697674418539,
          "durationTicks": 11,
          "midi": 77,
          "name": "F5",
          "ticks": 5467,
          "time": 63.56976744186046,
          "velocity": 0.2677165354330709
        },
        {
          "duration": 0.11627906976743674,
          "durationTicks": 10,
          "midi": 70,
          "name": "A#4",
          "ticks": 5468,
          "time": 63.58139534883721,
          "velocity": 0.2755905511811024
        },
        {
          "duration": 0.11627906976744384,
          "durationTicks": 10,
          "midi": 58,
          "name": "A#3",
          "ticks": 5470,
          "time": 63.604651162790695,
          "velocity": 0.47244094488188976
        },
        {
          "duration": 0.046511627906973274,
          "durationTicks": 4,
          "midi": 65,
          "name": "F4",
          "ticks": 5474,
          "time": 63.651162790697676,
          "velocity": 0.28346456692913385
        },
        {
          "duration": 0.02325581395349019,
          "durationTicks": 2,
          "midi": 83,
          "name": "B5",
          "ticks": 5483,
          "time": 63.75581395348837,
          "velocity": 0.25196850393700787
        },
        {
          "duration": 0.03488372093023173,
          "durationTicks": 3,
          "midi": 86,
          "name": "D6",
          "ticks": 5483,
          "time": 63.75581395348837,
          "velocity": 0.25196850393700787
        },
        {
          "duration": 0.02325581395349019,
          "durationTicks": 2,
          "midi": 87,
          "name": "D#6",
          "ticks": 5483,
          "time": 63.75581395348837,
          "velocity": 0.25984251968503935
        },
        {
          "duration": 0.12790697674418539,
          "durationTicks": 11,
          "midi": 63,
          "name": "D#4",
          "ticks": 5484,
          "time": 63.76744186046512,
          "velocity": 0.5669291338582677
        },
        {
          "duration": 0.011627906976741542,
          "durationTicks": 1,
          "midi": 40,
          "name": "E2",
          "ticks": 5485,
          "time": 63.77906976744186,
          "velocity": 0.6062992125984252
        },
        {
          "duration": 0.08139534883721211,
          "durationTicks": 7,
          "midi": 72,
          "name": "C5",
          "ticks": 5485,
          "time": 63.77906976744186,
          "velocity": 0.1968503937007874
        },
        {
          "duration": 0.011627906976748648,
          "durationTicks": 1,
          "midi": 41,
          "name": "F2",
          "ticks": 5486,
          "time": 63.7906976744186,
          "velocity": 0.5748031496062992
        },
        {
          "duration": 0.011627906976741542,
          "durationTicks": 1,
          "midi": 55,
          "name": "G3",
          "ticks": 5487,
          "time": 63.80232558139535,
          "velocity": 0.5433070866141733
        },
        {
          "duration": 0.046511627906973274,
          "durationTicks": 4,
          "midi": 68,
          "name": "G#4",
          "ticks": 5487,
          "time": 63.80232558139535,
          "velocity": 0.11023622047244094
        },
        {
          "duration": 0.011627906976741542,
          "durationTicks": 1,
          "midi": 39,
          "name": "D#2",
          "ticks": 5488,
          "time": 63.81395348837209,
          "velocity": 0.6062992125984252
        },
        {
          "duration": 0.011627906976748648,
          "durationTicks": 1,
          "midi": 41,
          "name": "F2",
          "ticks": 5489,
          "time": 63.825581395348834,
          "velocity": 0.6850393700787402
        },
        {
          "duration": 0.02325581395349019,
          "durationTicks": 2,
          "midi": 42,
          "name": "F#2",
          "ticks": 5490,
          "time": 63.83720930232558,
          "velocity": 0.6692913385826772
        },
        {
          "duration": 0.02325581395349019,
          "durationTicks": 2,
          "midi": 40,
          "name": "E2",
          "ticks": 5493,
          "time": 63.872093023255815,
          "velocity": 0.4251968503937008
        },
        {
          "duration": 0.03488372093023173,
          "durationTicks": 3,
          "midi": 40,
          "name": "E2",
          "ticks": 5499,
          "time": 63.94186046511628,
          "velocity": 0.14960629921259844
        },
        {
          "duration": 0.10465116279068809,
          "durationTicks": 9,
          "midi": 75,
          "name": "D#5",
          "ticks": 5503,
          "time": 63.98837209302326,
          "velocity": 0.5669291338582677
        },
        {
          "duration": 0.034883720930224626,
          "durationTicks": 3,
          "midi": 86,
          "name": "D6",
          "ticks": 5503,
          "time": 63.98837209302326,
          "velocity": 0.25984251968503935
        },
        {
          "duration": 0.023255813953483084,
          "durationTicks": 2,
          "midi": 55,
          "name": "G3",
          "ticks": 5504,
          "time": 64,
          "velocity": 0.47244094488188976
        },
        {
          "duration": 0.11627906976744384,
          "durationTicks": 10,
          "midi": 65,
          "name": "F4",
          "ticks": 5504,
          "time": 64,
          "velocity": 0.5826771653543307
        },
        {
          "duration": 0.03488372093023884,
          "durationTicks": 3,
          "midi": 81,
          "name": "A5",
          "ticks": 5504,
          "time": 64,
          "velocity": 0.28346456692913385
        },
        {
          "duration": 0.023255813953483084,
          "durationTicks": 2,
          "midi": 82,
          "name": "A#5",
          "ticks": 5504,
          "time": 64,
          "velocity": 0.2677165354330709
        },
        {
          "duration": 0.03488372093023884,
          "durationTicks": 3,
          "midi": 84,
          "name": "C6",
          "ticks": 5504,
          "time": 64,
          "velocity": 0.25984251968503935
        },
        {
          "duration": 0.023255813953483084,
          "durationTicks": 2,
          "midi": 88,
          "name": "E6",
          "ticks": 5504,
          "time": 64,
          "velocity": 0.25196850393700787
        },
        {
          "duration": 0.011627906976741542,
          "durationTicks": 1,
          "midi": 48,
          "name": "C3",
          "ticks": 5505,
          "time": 64.01162790697674,
          "velocity": 0.5433070866141733
        },
        {
          "duration": 0.023255813953497295,
          "durationTicks": 2,
          "midi": 61,
          "name": "C#4",
          "ticks": 5505,
          "time": 64.01162790697674,
          "velocity": 0.4015748031496063
        },
        {
          "duration": 0.023255813953497295,
          "durationTicks": 2,
          "midi": 79,
          "name": "G5",
          "ticks": 5505,
          "time": 64.01162790697674,
          "velocity": 0.25196850393700787
        },
        {
          "duration": 0.011627906976755753,
          "durationTicks": 1,
          "midi": 50,
          "name": "D3",
          "ticks": 5506,
          "time": 64.02325581395348,
          "velocity": 0.5826771653543307
        },
        {
          "duration": 0.011627906976741542,
          "durationTicks": 1,
          "midi": 49,
          "name": "C#3",
          "ticks": 5507,
          "time": 64.03488372093024,
          "velocity": 0.5669291338582677
        },
        {
          "duration": 0.09302325581394655,
          "durationTicks": 8,
          "midi": 70,
          "name": "A#4",
          "ticks": 5507,
          "time": 64.03488372093024,
          "velocity": 0.31496062992125984
        },
        {
          "duration": 0.16279069767441,
          "durationTicks": 14,
          "midi": 72,
          "name": "C5",
          "ticks": 5507,
          "time": 64.03488372093024,
          "velocity": 0.4094488188976378
        },
        {
          "duration": 0.05813953488370771,
          "durationTicks": 5,
          "midi": 80,
          "name": "G#5",
          "ticks": 5507,
          "time": 64.03488372093024,
          "velocity": 0.1732283464566929
        },
        {
          "duration": 0.011627906976741542,
          "durationTicks": 1,
          "midi": 48,
          "name": "C3",
          "ticks": 5508,
          "time": 64.04651162790698,
          "velocity": 0.5590551181102362
        },
        {
          "duration": 0.17441860465116577,
          "durationTicks": 15,
          "midi": 58,
          "name": "A#3",
          "ticks": 5508,
          "time": 64.04651162790698,
          "velocity": 0.5196850393700787
        },
        {
          "duration": 0.04651162790698038,
          "durationTicks": 4,
          "midi": 49,
          "name": "C#3",
          "ticks": 5509,
          "time": 64.05813953488372,
          "velocity": 0.5433070866141733
        },
        {
          "duration": 0.011627906976741542,
          "durationTicks": 1,
          "midi": 64,
          "name": "E4",
          "ticks": 5514,
          "time": 64.11627906976744,
          "velocity": 0.5354330708661418
        },
        {
          "duration": 0.023255813953483084,
          "durationTicks": 2,
          "midi": 53,
          "name": "F3",
          "ticks": 5515,
          "time": 64.12790697674419,
          "velocity": 0.36220472440944884
        },
        {
          "duration": 0.1046511627907023,
          "durationTicks": 9,
          "midi": 63,
          "name": "D#4",
          "ticks": 5515,
          "time": 64.12790697674419,
          "velocity": 0.6062992125984252
        },
        {
          "duration": 0.03488372093023884,
          "durationTicks": 3,
          "midi": 69,
          "name": "A4",
          "ticks": 5515,
          "time": 64.12790697674419,
          "velocity": 0.29133858267716534
        },
        {
          "duration": 0.03488372093023884,
          "durationTicks": 3,
          "midi": 76,
          "name": "E5",
          "ticks": 5516,
          "time": 64.13953488372093,
          "velocity": 0.23622047244094488
        },
        {
          "duration": 0.04651162790698038,
          "durationTicks": 4,
          "midi": 51,
          "name": "D#3",
          "ticks": 5517,
          "time": 64.15116279069767,
          "velocity": 0.1968503937007874
        },
        {
          "duration": 0.023255813953483084,
          "durationTicks": 2,
          "midi": 81,
          "name": "A5",
          "ticks": 5523,
          "time": 64.22093023255815,
          "velocity": 0.3228346456692913
        },
        {
          "duration": 0.034883720930224626,
          "durationTicks": 3,
          "midi": 86,
          "name": "D6",
          "ticks": 5523,
          "time": 64.22093023255815,
          "velocity": 0.25984251968503935
        },
        {
          "duration": 0.034883720930224626,
          "durationTicks": 3,
          "midi": 87,
          "name": "D#6",
          "ticks": 5523,
          "time": 64.22093023255815,
          "velocity": 0.2677165354330709
        },
        {
          "duration": 0.034883720930224626,
          "durationTicks": 3,
          "midi": 88,
          "name": "E6",
          "ticks": 5523,
          "time": 64.22093023255815,
          "velocity": 0.25196850393700787
        },
        {
          "duration": 0.011627906976741542,
          "durationTicks": 1,
          "midi": 36,
          "name": "C2",
          "ticks": 5524,
          "time": 64.23255813953489,
          "velocity": 0.6062992125984252
        },
        {
          "duration": 0.034883720930224626,
          "durationTicks": 3,
          "midi": 50,
          "name": "D3",
          "ticks": 5524,
          "time": 64.23255813953489,
          "velocity": 0.6062992125984252
        },
        {
          "duration": 0.081395348837205,
          "durationTicks": 7,
          "midi": 75,
          "name": "D#5",
          "ticks": 5524,
          "time": 64.23255813953489,
          "velocity": 0.5354330708661418
        },
        {
          "duration": 0.023255813953483084,
          "durationTicks": 2,
          "midi": 83,
          "name": "B5",
          "ticks": 5524,
          "time": 64.23255813953489,
          "velocity": 0.2677165354330709
        },
        {
          "duration": 0.011627906976741542,
          "durationTicks": 1,
          "midi": 30,
          "name": "F#1",
          "ticks": 5525,
          "time": 64.24418604651163,
          "velocity": 0.5826771653543307
        },
        {
          "duration": 0.011627906976741542,
          "durationTicks": 1,
          "midi": 40,
          "name": "E2",
          "ticks": 5525,
          "time": 64.24418604651163,
          "velocity": 0.6141732283464567
        },
        {
          "duration": 0.04651162790698038,
          "durationTicks": 4,
          "midi": 63,
          "name": "D#4",
          "ticks": 5525,
          "time": 64.24418604651163,
          "velocity": 0.5118110236220472
        },
        {
          "duration": 0.06976744186046346,
          "durationTicks": 6,
          "midi": 72,
          "name": "C5",
          "ticks": 5525,
          "time": 64.24418604651163,
          "velocity": 0.18110236220472442
        },
        {
          "duration": 0.081395348837205,
          "durationTicks": 7,
          "midi": 82,
          "name": "A#5",
          "ticks": 5525,
          "time": 64.24418604651163,
          "velocity": 0.2755905511811024
        },
        {
          "duration": 0.011627906976741542,
          "durationTicks": 1,
          "midi": 44,
          "name": "G#2",
          "ticks": 5526,
          "time": 64.25581395348837,
          "velocity": 0.5669291338582677
        },
        {
          "duration": 0.11627906976744384,
          "durationTicks": 10,
          "midi": 68,
          "name": "G#4",
          "ticks": 5526,
          "time": 64.25581395348837,
          "velocity": 0.2992125984251969
        },
        {
          "duration": 0.011627906976741542,
          "durationTicks": 1,
          "midi": 52,
          "name": "E3",
          "ticks": 5527,
          "time": 64.26744186046511,
          "velocity": 0.6535433070866141
        },
        {
          "duration": 0.011627906976755753,
          "durationTicks": 1,
          "midi": 39,
          "name": "D#2",
          "ticks": 5528,
          "time": 64.27906976744185,
          "velocity": 0.6299212598425197
        },
        {
          "duration": 0.023255813953497295,
          "durationTicks": 2,
          "midi": 51,
          "name": "D#3",
          "ticks": 5528,
          "time": 64.27906976744185,
          "velocity": 0.6771653543307087
        },
        {
          "duration": 0.011627906976741542,
          "durationTicks": 1,
          "midi": 41,
          "name": "F2",
          "ticks": 5529,
          "time": 64.29069767441861,
          "velocity": 0.6771653543307087
        },
        {
          "duration": 0.06976744186046346,
          "durationTicks": 6,
          "midi": 61,
          "name": "C#4",
          "ticks": 5529,
          "time": 64.29069767441861,
          "velocity": 0.3543307086614173
        },
        {
          "duration": 0.023255813953483084,
          "durationTicks": 2,
          "midi": 42,
          "name": "F#2",
          "ticks": 5530,
          "time": 64.30232558139535,
          "velocity": 0.6377952755905512
        },
        {
          "duration": 0.023255813953483084,
          "durationTicks": 2,
          "midi": 50,
          "name": "D3",
          "ticks": 5530,
          "time": 64.30232558139535,
          "velocity": 0.5669291338582677
        },
        {
          "duration": 0.023255813953483084,
          "durationTicks": 2,
          "midi": 56,
          "name": "G#3",
          "ticks": 5530,
          "time": 64.30232558139535,
          "velocity": 0.3779527559055118
        },
        {
          "duration": 0.023255813953497295,
          "durationTicks": 2,
          "midi": 52,
          "name": "E3",
          "ticks": 5532,
          "time": 64.32558139534883,
          "velocity": 0.3228346456692913
        },
        {
          "duration": 0.023255813953483084,
          "durationTicks": 2,
          "midi": 41,
          "name": "F2",
          "ticks": 5534,
          "time": 64.34883720930233,
          "velocity": 0.3700787401574803
        },
        {
          "duration": 0.034883720930224626,
          "durationTicks": 3,
          "midi": 50,
          "name": "D3",
          "ticks": 5534,
          "time": 64.34883720930233,
          "velocity": 0.3464566929133858
        },
        {
          "duration": 0.04651162790698038,
          "durationTicks": 4,
          "midi": 61,
          "name": "C#4",
          "ticks": 5536,
          "time": 64.37209302325581,
          "velocity": 0.25196850393700787
        },
        {
          "duration": 0.03488372093023884,
          "durationTicks": 3,
          "midi": 67,
          "name": "G4",
          "ticks": 5536,
          "time": 64.37209302325581,
          "velocity": 0.14173228346456693
        },
        {
          "duration": 0.03488372093023884,
          "durationTicks": 3,
          "midi": 81,
          "name": "A5",
          "ticks": 5543,
          "time": 64.45348837209302,
          "velocity": 0.31496062992125984
        },
        {
          "duration": 0.1860465116279073,
          "durationTicks": 16,
          "midi": 84,
          "name": "C6",
          "ticks": 5543,
          "time": 64.45348837209302,
          "velocity": 0.31496062992125984
        },
        {
          "duration": 0.03488372093023884,
          "durationTicks": 3,
          "midi": 87,
          "name": "D#6",
          "ticks": 5543,
          "time": 64.45348837209302,
          "velocity": 0.2755905511811024
        },
        {
          "duration": 0.03488372093023884,
          "durationTicks": 3,
          "midi": 88,
          "name": "E6",
          "ticks": 5543,
          "time": 64.45348837209302,
          "velocity": 0.2677165354330709
        },
        {
          "duration": 0.2325581395348877,
          "durationTicks": 20,
          "midi": 58,
          "name": "A#3",
          "ticks": 5544,
          "time": 64.46511627906976,
          "velocity": 0.5196850393700787
        },
        {
          "duration": 0.011627906976755753,
          "durationTicks": 1,
          "midi": 64,
          "name": "E4",
          "ticks": 5544,
          "time": 64.46511627906976,
          "velocity": 0.5590551181102362
        },
        {
          "duration": 0.09302325581396076,
          "durationTicks": 8,
          "midi": 75,
          "name": "D#5",
          "ticks": 5544,
          "time": 64.46511627906976,
          "velocity": 0.5511811023622047
        },
        {
          "duration": 0.023255813953497295,
          "durationTicks": 2,
          "midi": 85,
          "name": "C#6",
          "ticks": 5544,
          "time": 64.46511627906976,
          "velocity": 0.2755905511811024
        },
        {
          "duration": 0.255813953488385,
          "durationTicks": 22,
          "midi": 89,
          "name": "F6",
          "ticks": 5544,
          "time": 64.46511627906976,
          "velocity": 0.28346456692913385
        },
        {
          "duration": 0.023255813953497295,
          "durationTicks": 2,
          "midi": 90,
          "name": "F#6",
          "ticks": 5544,
          "time": 64.46511627906976,
          "velocity": 0.2283464566929134
        },
        {
          "duration": 0.05813953488372192,
          "durationTicks": 5,
          "midi": 53,
          "name": "F3",
          "ticks": 5545,
          "time": 64.47674418604652,
          "velocity": 0.4094488188976378
        },
        {
          "duration": 0.10465116279068809,
          "durationTicks": 9,
          "midi": 63,
          "name": "D#4",
          "ticks": 5545,
          "time": 64.47674418604652,
          "velocity": 0.5984251968503937
        },
        {
          "duration": 0.13953488372092693,
          "durationTicks": 12,
          "midi": 72,
          "name": "C5",
          "ticks": 5547,
          "time": 64.5,
          "velocity": 0.3700787401574803
        },
        {
          "duration": 0.023255813953483084,
          "durationTicks": 2,
          "midi": 53,
          "name": "F3",
          "ticks": 5551,
          "time": 64.54651162790698,
          "velocity": 0.3464566929133858
        },
        {
          "duration": 0.023255813953497295,
          "durationTicks": 2,
          "midi": 53,
          "name": "F3",
          "ticks": 5554,
          "time": 64.5813953488372,
          "velocity": 0.3464566929133858
        },
        {
          "duration": 0.06976744186046346,
          "durationTicks": 6,
          "midi": 72,
          "name": "C5",
          "ticks": 5563,
          "time": 64.68604651162791,
          "velocity": 0.5354330708661418
        },
        {
          "duration": 0.03488372093023884,
          "durationTicks": 3,
          "midi": 85,
          "name": "C#6",
          "ticks": 5563,
          "time": 64.68604651162791,
          "velocity": 0.30708661417322836
        },
        {
          "duration": 0.03488372093023884,
          "durationTicks": 3,
          "midi": 87,
          "name": "D#6",
          "ticks": 5563,
          "time": 64.68604651162791,
          "velocity": 0.2677165354330709
        },
        {
          "duration": 0.03488372093023884,
          "durationTicks": 3,
          "midi": 88,
          "name": "E6",
          "ticks": 5563,
          "time": 64.68604651162791,
          "velocity": 0.25196850393700787
        },
        {
          "duration": 0.011627906976741542,
          "durationTicks": 1,
          "midi": 34,
          "name": "A#1",
          "ticks": 5564,
          "time": 64.69767441860465,
          "velocity": 0.5669291338582677
        },
        {
          "duration": 0.023255813953497295,
          "durationTicks": 2,
          "midi": 50,
          "name": "D3",
          "ticks": 5564,
          "time": 64.69767441860465,
          "velocity": 0.6535433070866141
        },
        {
          "duration": 0.011627906976741542,
          "durationTicks": 1,
          "midi": 57,
          "name": "A3",
          "ticks": 5564,
          "time": 64.69767441860465,
          "velocity": 0.5354330708661418
        },
        {
          "duration": 0.09302325581396076,
          "durationTicks": 8,
          "midi": 63,
          "name": "D#4",
          "ticks": 5564,
          "time": 64.69767441860465,
          "velocity": 0.6456692913385826
        },
        {
          "duration": 0.023255813953497295,
          "durationTicks": 2,
          "midi": 76,
          "name": "E5",
          "ticks": 5564,
          "time": 64.69767441860465,
          "velocity": 0.33858267716535434
        },
        {
          "duration": 0.06976744186046346,
          "durationTicks": 6,
          "midi": 79,
          "name": "G5",
          "ticks": 5564,
          "time": 64.69767441860465,
          "velocity": 0.28346456692913385
        },
        {
          "duration": 0.1046511627907023,
          "durationTicks": 9,
          "midi": 82,
          "name": "A#5",
          "ticks": 5564,
          "time": 64.69767441860465,
          "velocity": 0.33070866141732286
        },
        {
          "duration": 0.023255813953497295,
          "durationTicks": 2,
          "midi": 35,
          "name": "B1",
          "ticks": 5565,
          "time": 64.70930232558139,
          "velocity": 0.5905511811023622
        },
        {
          "duration": 0.011627906976741542,
          "durationTicks": 1,
          "midi": 45,
          "name": "A2",
          "ticks": 5566,
          "time": 64.72093023255815,
          "velocity": 0.5275590551181102
        },
        {
          "duration": 0.081395348837205,
          "durationTicks": 7,
          "midi": 51,
          "name": "D#3",
          "ticks": 5566,
          "time": 64.72093023255815,
          "velocity": 0.6535433070866141
        },
        {
          "duration": 0.023255813953483084,
          "durationTicks": 2,
          "midi": 68,
          "name": "G#4",
          "ticks": 5566,
          "time": 64.72093023255815,
          "velocity": 0.30708661417322836
        },
        {
          "duration": 0.011627906976741542,
          "durationTicks": 1,
          "midi": 47,
          "name": "B2",
          "ticks": 5567,
          "time": 64.73255813953489,
          "velocity": 0.5826771653543307
        },
        {
          "duration": 0.023255813953483084,
          "durationTicks": 2,
          "midi": 74,
          "name": "D5",
          "ticks": 5567,
          "time": 64.73255813953489,
          "velocity": 0.30708661417322836
        },
        {
          "duration": 0.011627906976741542,
          "durationTicks": 1,
          "midi": 41,
          "name": "F2",
          "ticks": 5568,
          "time": 64.74418604651163,
          "velocity": 0.6456692913385826
        },
        {
          "duration": 0.023255813953483084,
          "durationTicks": 2,
          "midi": 67,
          "name": "G4",
          "ticks": 5568,
          "time": 64.74418604651163,
          "velocity": 0.31496062992125984
        },
        {
          "duration": 0.05813953488372192,
          "durationTicks": 5,
          "midi": 70,
          "name": "A#4",
          "ticks": 5568,
          "time": 64.74418604651163,
          "velocity": 0.2992125984251969
        },
        {
          "duration": 0.1046511627907023,
          "durationTicks": 9,
          "midi": 87,
          "name": "D#6",
          "ticks": 5568,
          "time": 64.74418604651163,
          "velocity": 0.15748031496062992
        },
        {
          "duration": 0.023255813953483084,
          "durationTicks": 2,
          "midi": 42,
          "name": "F#2",
          "ticks": 5569,
          "time": 64.75581395348837,
          "velocity": 0.6299212598425197
        },
        {
          "duration": 0.04651162790698038,
          "durationTicks": 4,
          "midi": 73,
          "name": "C#5",
          "ticks": 5569,
          "time": 64.75581395348837,
          "velocity": 0.25984251968503935
        },
        {
          "duration": 0.023255813953497295,
          "durationTicks": 2,
          "midi": 56,
          "name": "G#3",
          "ticks": 5570,
          "time": 64.76744186046511,
          "velocity": 0.4645669291338583
        },
        {
          "duration": 0.10465116279068809,
          "durationTicks": 9,
          "midi": 61,
          "name": "C#4",
          "ticks": 5572,
          "time": 64.79069767441861,
          "velocity": 0.5905511811023622
        },
        {
          "duration": 0.023255813953483084,
          "durationTicks": 2,
          "midi": 72,
          "name": "C5",
          "ticks": 5572,
          "time": 64.79069767441861,
          "velocity": 0.2440944881889764
        },
        {
          "duration": 0.12790697674418539,
          "durationTicks": 11,
          "midi": 71,
          "name": "B4",
          "ticks": 5573,
          "time": 64.80232558139535,
          "velocity": 0.47244094488188976
        },
        {
          "duration": 0.11627906976744384,
          "durationTicks": 10,
          "midi": 78,
          "name": "F#5",
          "ticks": 5573,
          "time": 64.80232558139535,
          "velocity": 0.3937007874015748
        },
        {
          "duration": 0.034883720930224626,
          "durationTicks": 3,
          "midi": 92,
          "name": "G#6",
          "ticks": 5573,
          "time": 64.80232558139535,
          "velocity": 0.09448818897637795
        },
        {
          "duration": 0.09302325581396076,
          "durationTicks": 8,
          "midi": 47,
          "name": "B2",
          "ticks": 5575,
          "time": 64.82558139534883,
          "velocity": 0.48031496062992124
        },
        {
          "duration": 0.03488372093023884,
          "durationTicks": 3,
          "midi": 55,
          "name": "G3",
          "ticks": 5576,
          "time": 64.83720930232558,
          "velocity": 0.3464566929133858
        },
        {
          "duration": 0.09302325581396076,
          "durationTicks": 8,
          "midi": 66,
          "name": "F#4",
          "ticks": 5576,
          "time": 64.83720930232558,
          "velocity": 0.30708661417322836
        },
        {
          "duration": 0.19767441860464885,
          "durationTicks": 17,
          "midi": 75,
          "name": "D#5",
          "ticks": 5577,
          "time": 64.84883720930233,
          "velocity": 0.47244094488188976
        },
        {
          "duration": 0.034883720930224626,
          "durationTicks": 3,
          "midi": 84,
          "name": "C6",
          "ticks": 5583,
          "time": 64.9186046511628,
          "velocity": 0.2204724409448819
        },
        {
          "duration": 0.023255813953483084,
          "durationTicks": 2,
          "midi": 29,
          "name": "F1",
          "ticks": 5584,
          "time": 64.93023255813954,
          "velocity": 0.3543307086614173
        },
        {
          "duration": 0.023255813953483084,
          "durationTicks": 2,
          "midi": 55,
          "name": "G3",
          "ticks": 5584,
          "time": 64.93023255813954,
          "velocity": 0.3543307086614173
        },
        {
          "duration": 0.1046511627907023,
          "durationTicks": 9,
          "midi": 63,
          "name": "D#4",
          "ticks": 5584,
          "time": 64.93023255813954,
          "velocity": 0.29133858267716534
        },
        {
          "duration": 0.11627906976744384,
          "durationTicks": 10,
          "midi": 72,
          "name": "C5",
          "ticks": 5584,
          "time": 64.93023255813954,
          "velocity": 0.5984251968503937
        },
        {
          "duration": 0.06976744186046346,
          "durationTicks": 6,
          "midi": 80,
          "name": "G#5",
          "ticks": 5584,
          "time": 64.93023255813954,
          "velocity": 0.2204724409448819
        },
        {
          "duration": 0.1046511627907023,
          "durationTicks": 9,
          "midi": 68,
          "name": "G#4",
          "ticks": 5585,
          "time": 64.94186046511628,
          "velocity": 0.44881889763779526
        },
        {
          "duration": 0.09302325581396076,
          "durationTicks": 8,
          "midi": 44,
          "name": "G#2",
          "ticks": 5586,
          "time": 64.95348837209302,
          "velocity": 0.49606299212598426
        },
        {
          "duration": 0.023255813953483084,
          "durationTicks": 2,
          "midi": 64,
          "name": "E4",
          "ticks": 5593,
          "time": 65.03488372093024,
          "velocity": 0.5748031496062992
        },
        {
          "duration": 0.11627906976742963,
          "durationTicks": 10,
          "midi": 71,
          "name": "B4",
          "ticks": 5593,
          "time": 65.03488372093024,
          "velocity": 0.3937007874015748
        },
        {
          "duration": 0.034883720930224626,
          "durationTicks": 3,
          "midi": 78,
          "name": "F#5",
          "ticks": 5593,
          "time": 65.03488372093024,
          "velocity": 0.15748031496062992
        },
        {
          "duration": 0.011627906976741542,
          "durationTicks": 1,
          "midi": 55,
          "name": "G3",
          "ticks": 5594,
          "time": 65.04651162790698,
          "velocity": 0.5984251968503937
        },
        {
          "duration": 0.09302325581394655,
          "durationTicks": 8,
          "midi": 40,
          "name": "E2",
          "ticks": 5595,
          "time": 65.05813953488372,
          "velocity": 0.4881889763779528
        },
        {
          "duration": 0.011627906976741542,
          "durationTicks": 1,
          "midi": 53,
          "name": "F3",
          "ticks": 5595,
          "time": 65.05813953488372,
          "velocity": 0.6220472440944882
        },
        {
          "duration": 0.034883720930224626,
          "durationTicks": 3,
          "midi": 63,
          "name": "D#4",
          "ticks": 5595,
          "time": 65.05813953488372,
          "velocity": 0.6141732283464567
        },
        {
          "duration": 0.034883720930224626,
          "durationTicks": 3,
          "midi": 86,
          "name": "D6",
          "ticks": 5595,
          "time": 65.05813953488372,
          "velocity": 0.11811023622047244
        },
        {
          "duration": 0.011627906976741542,
          "durationTicks": 1,
          "midi": 52,
          "name": "E3",
          "ticks": 5596,
          "time": 65.06976744186046,
          "velocity": 0.5275590551181102
        },
        {
          "duration": 0.08139534883721922,
          "durationTicks": 7,
          "midi": 55,
          "name": "G3",
          "ticks": 5597,
          "time": 65.0813953488372,
          "velocity": 0.6299212598425197
        },
        {
          "duration": 0.023255813953497295,
          "durationTicks": 2,
          "midi": 61,
          "name": "C#4",
          "ticks": 5597,
          "time": 65.0813953488372,
          "velocity": 0.4881889763779528
        },
        {
          "duration": 0.04651162790698038,
          "durationTicks": 4,
          "midi": 76,
          "name": "E5",
          "ticks": 5598,
          "time": 65.09302325581395,
          "velocity": 0.11811023622047244
        },
        {
          "duration": 0.023255813953483084,
          "durationTicks": 2,
          "midi": 62,
          "name": "D4",
          "ticks": 5599,
          "time": 65.1046511627907,
          "velocity": 0.4881889763779528
        },
        {
          "duration": 0.023255813953483084,
          "durationTicks": 2,
          "midi": 63,
          "name": "D#4",
          "ticks": 5600,
          "time": 65.11627906976744,
          "velocity": 0.4251968503937008
        },
        {
          "duration": 0.04651162790698038,
          "durationTicks": 4,
          "midi": 73,
          "name": "C#5",
          "ticks": 5600,
          "time": 65.11627906976744,
          "velocity": 0.4330708661417323
        },
        {
          "duration": 0.023255813953497295,
          "durationTicks": 2,
          "midi": 61,
          "name": "C#4",
          "ticks": 5602,
          "time": 65.13953488372093,
          "velocity": 0.47244094488188976
        },
        {
          "duration": 0.04651162790698038,
          "durationTicks": 4,
          "midi": 86,
          "name": "D6",
          "ticks": 5602,
          "time": 65.13953488372093,
          "velocity": 0.2440944881889764
        },
        {
          "duration": 0.011627906976741542,
          "durationTicks": 1,
          "midi": 34,
          "name": "A#1",
          "ticks": 5604,
          "time": 65.16279069767442,
          "velocity": 0.5590551181102362
        },
        {
          "duration": 0.034883720930224626,
          "durationTicks": 3,
          "midi": 50,
          "name": "D3",
          "ticks": 5604,
          "time": 65.16279069767442,
          "velocity": 0.5275590551181102
        },
        {
          "duration": 0.011627906976741542,
          "durationTicks": 1,
          "midi": 56,
          "name": "G#3",
          "ticks": 5604,
          "time": 65.16279069767442,
          "velocity": 0.5748031496062992
        },
        {
          "duration": 0.16279069767441,
          "durationTicks": 14,
          "midi": 63,
          "name": "D#4",
          "ticks": 5604,
          "time": 65.16279069767442,
          "velocity": 0.6141732283464567
        },
        {
          "duration": 0.10465116279068809,
          "durationTicks": 9,
          "midi": 72,
          "name": "C5",
          "ticks": 5604,
          "time": 65.16279069767442,
          "velocity": 0.5433070866141733
        },
        {
          "duration": 0.023255813953483084,
          "durationTicks": 2,
          "midi": 76,
          "name": "E5",
          "ticks": 5604,
          "time": 65.16279069767442,
          "velocity": 0.28346456692913385
        },
        {
          "duration": 0.023255813953483084,
          "durationTicks": 2,
          "midi": 81,
          "name": "A5",
          "ticks": 5604,
          "time": 65.16279069767442,
          "velocity": 0.2283464566929134
        },
        {
          "duration": 0.011627906976741542,
          "durationTicks": 1,
          "midi": 35,
          "name": "B1",
          "ticks": 5605,
          "time": 65.17441860465117,
          "velocity": 0.5590551181102362
        },
        {
          "duration": 0.011627906976741542,
          "durationTicks": 1,
          "midi": 55,
          "name": "G3",
          "ticks": 5605,
          "time": 65.17441860465117,
          "velocity": 0.5118110236220472
        },
        {
          "duration": 0.023255813953483084,
          "durationTicks": 2,
          "midi": 74,
          "name": "D5",
          "ticks": 5605,
          "time": 65.17441860465117,
          "velocity": 0.29133858267716534
        },
        {
          "duration": 0.03488372093023884,
          "durationTicks": 3,
          "midi": 70,
          "name": "A#4",
          "ticks": 5606,
          "time": 65.18604651162791,
          "velocity": 0.2125984251968504
        },
        {
          "duration": 0.011627906976741542,
          "durationTicks": 1,
          "midi": 40,
          "name": "E2",
          "ticks": 5607,
          "time": 65.19767441860465,
          "velocity": 0.6062992125984252
        },
        {
          "duration": 0.011627906976741542,
          "durationTicks": 1,
          "midi": 51,
          "name": "D#3",
          "ticks": 5607,
          "time": 65.19767441860465,
          "velocity": 0.5590551181102362
        },
        {
          "duration": 0.11627906976744384,
          "durationTicks": 10,
          "midi": 66,
          "name": "F#4",
          "ticks": 5607,
          "time": 65.19767441860465,
          "velocity": 0.33858267716535434
        },
        {
          "duration": 0.04651162790698038,
          "durationTicks": 4,
          "midi": 41,
          "name": "F2",
          "ticks": 5608,
          "time": 65.20930232558139,
          "velocity": 0.6692913385826772
        },
        {
          "duration": 0.011627906976755753,
          "durationTicks": 1,
          "midi": 52,
          "name": "E3",
          "ticks": 5608,
          "time": 65.20930232558139,
          "velocity": 0.5354330708661418
        },
        {
          "duration": 0.023255813953483084,
          "durationTicks": 2,
          "midi": 55,
          "name": "G3",
          "ticks": 5609,
          "time": 65.22093023255815,
          "velocity": 0.5669291338582677
        },
        {
          "duration": 0.081395348837205,
          "durationTicks": 7,
          "midi": 54,
          "name": "F#3",
          "ticks": 5611,
          "time": 65.24418604651163,
          "velocity": 0.5511811023622047
        },
        {
          "duration": 0.05813953488372192,
          "durationTicks": 5,
          "midi": 85,
          "name": "C#6",
          "ticks": 5611,
          "time": 65.24418604651163,
          "velocity": 0.14960629921259844
        },
        {
          "duration": 0.023255813953497295,
          "durationTicks": 2,
          "midi": 41,
          "name": "F2",
          "ticks": 5614,
          "time": 65.27906976744185,
          "velocity": 0.30708661417322836
        },
        {
          "duration": 0.2674418604651123,
          "durationTicks": 23,
          "midi": 80,
          "name": "G#5",
          "ticks": 5623,
          "time": 65.38372093023256,
          "velocity": 0.3464566929133858
        },
        {
          "duration": 0.081395348837205,
          "durationTicks": 7,
          "midi": 84,
          "name": "C6",
          "ticks": 5623,
          "time": 65.38372093023256,
          "velocity": 0.28346456692913385
        },
        {
          "duration": 0.023255813953497295,
          "durationTicks": 2,
          "midi": 87,
          "name": "D#6",
          "ticks": 5623,
          "time": 65.38372093023256,
          "velocity": 0.2440944881889764
        },
        {
          "duration": 0.023255813953497295,
          "durationTicks": 2,
          "midi": 88,
          "name": "E6",
          "ticks": 5623,
          "time": 65.38372093023256,
          "velocity": 0.2440944881889764
        },
        {
          "duration": 0.023255813953497295,
          "durationTicks": 2,
          "midi": 48,
          "name": "C3",
          "ticks": 5624,
          "time": 65.3953488372093,
          "velocity": 0.5748031496062992
        },
        {
          "duration": 0.06976744186046346,
          "durationTicks": 6,
          "midi": 63,
          "name": "D#4",
          "ticks": 5624,
          "time": 65.3953488372093,
          "velocity": 0.6377952755905512
        },
        {
          "duration": 0.06976744186046346,
          "durationTicks": 6,
          "midi": 72,
          "name": "C5",
          "ticks": 5624,
          "time": 65.3953488372093,
          "velocity": 0.5433070866141733
        },
        {
          "duration": 0.023255813953497295,
          "durationTicks": 2,
          "midi": 77,
          "name": "F5",
          "ticks": 5624,
          "time": 65.3953488372093,
          "velocity": 0.29133858267716534
        },
        {
          "duration": 0.03488372093023884,
          "durationTicks": 3,
          "midi": 78,
          "name": "F#5",
          "ticks": 5624,
          "time": 65.3953488372093,
          "velocity": 0.2125984251968504
        },
        {
          "duration": 0.011627906976741542,
          "durationTicks": 1,
          "midi": 50,
          "name": "D3",
          "ticks": 5626,
          "time": 65.4186046511628,
          "velocity": 0.5984251968503937
        },
        {
          "duration": 0.034883720930224626,
          "durationTicks": 3,
          "midi": 68,
          "name": "G#4",
          "ticks": 5626,
          "time": 65.4186046511628,
          "velocity": 0.25196850393700787
        },
        {
          "duration": 0.1860465116279073,
          "durationTicks": 16,
          "midi": 49,
          "name": "C#3",
          "ticks": 5627,
          "time": 65.43023255813954,
          "velocity": 0.6535433070866141
        },
        {
          "duration": 0.15116279069768268,
          "durationTicks": 13,
          "midi": 68,
          "name": "G#4",
          "ticks": 5630,
          "time": 65.46511627906976,
          "velocity": 0.28346456692913385
        },
        {
          "duration": 0.09302325581396076,
          "durationTicks": 8,
          "midi": 73,
          "name": "C#5",
          "ticks": 5630,
          "time": 65.46511627906976,
          "velocity": 0.28346456692913385
        },
        {
          "duration": 0.04651162790698038,
          "durationTicks": 4,
          "midi": 56,
          "name": "G#3",
          "ticks": 5632,
          "time": 65.48837209302326,
          "velocity": 0.4015748031496063
        },
        {
          "duration": 0.023255813953497295,
          "durationTicks": 2,
          "midi": 30,
          "name": "F#1",
          "ticks": 5635,
          "time": 65.52325581395348,
          "velocity": 0.23622047244094488
        },
        {
          "duration": 0.023255813953483084,
          "durationTicks": 2,
          "midi": 55,
          "name": "G3",
          "ticks": 5636,
          "time": 65.53488372093024,
          "velocity": 0.2755905511811024
        },
        {
          "duration": 0.023255813953483084,
          "durationTicks": 2,
          "midi": 50,
          "name": "D3",
          "ticks": 5643,
          "time": 65.61627906976744,
          "velocity": 0.5748031496062992
        },
        {
          "duration": 0.023255813953483084,
          "durationTicks": 2,
          "midi": 78,
          "name": "F#5",
          "ticks": 5643,
          "time": 65.61627906976744,
          "velocity": 0.2755905511811024
        },
        {
          "duration": 0.023255813953483084,
          "durationTicks": 2,
          "midi": 83,
          "name": "B5",
          "ticks": 5643,
          "time": 65.61627906976744,
          "velocity": 0.2677165354330709
        },
        {
          "duration": 0.023255813953483084,
          "durationTicks": 2,
          "midi": 88,
          "name": "E6",
          "ticks": 5643,
          "time": 65.61627906976744,
          "velocity": 0.25984251968503935
        },
        {
          "duration": 0.023255813953483084,
          "durationTicks": 2,
          "midi": 35,
          "name": "B1",
          "ticks": 5644,
          "time": 65.62790697674419,
          "velocity": 0.5984251968503937
        },
        {
          "duration": 0.15116279069766847,
          "durationTicks": 13,
          "midi": 63,
          "name": "D#4",
          "ticks": 5644,
          "time": 65.62790697674419,
          "velocity": 0.5748031496062992
        },
        {
          "duration": 0.09302325581396076,
          "durationTicks": 8,
          "midi": 72,
          "name": "C5",
          "ticks": 5644,
          "time": 65.62790697674419,
          "velocity": 0.5275590551181102
        },
        {
          "duration": 0.011627906976741542,
          "durationTicks": 1,
          "midi": 43,
          "name": "G2",
          "ticks": 5645,
          "time": 65.63953488372093,
          "velocity": 0.5433070866141733
        },
        {
          "duration": 0.011627906976755753,
          "durationTicks": 1,
          "midi": 45,
          "name": "A2",
          "ticks": 5646,
          "time": 65.65116279069767,
          "velocity": 0.5433070866141733
        },
        {
          "duration": 0.011627906976741542,
          "durationTicks": 1,
          "midi": 41,
          "name": "F2",
          "ticks": 5647,
          "time": 65.66279069767442,
          "velocity": 0.6299212598425197
        },
        {
          "duration": 0.034883720930224626,
          "durationTicks": 3,
          "midi": 51,
          "name": "D#3",
          "ticks": 5647,
          "time": 65.66279069767442,
          "velocity": 0.5511811023622047
        },
        {
          "duration": 0.023255813953483084,
          "durationTicks": 2,
          "midi": 42,
          "name": "F#2",
          "ticks": 5648,
          "time": 65.67441860465117,
          "velocity": 0.6456692913385826
        },
        {
          "duration": 0.05813953488372192,
          "durationTicks": 5,
          "midi": 55,
          "name": "G3",
          "ticks": 5649,
          "time": 65.68604651162791,
          "velocity": 0.41732283464566927
        },
        {
          "duration": 0.034883720930224626,
          "durationTicks": 3,
          "midi": 41,
          "name": "F2",
          "ticks": 5653,
          "time": 65.73255813953489,
          "velocity": 0.28346456692913385
        },
        {
          "duration": 0.06976744186046346,
          "durationTicks": 6,
          "midi": 55,
          "name": "G3",
          "ticks": 5655,
          "time": 65.75581395348837,
          "velocity": 0.13385826771653545
        },
        {
          "duration": 0.1046511627907023,
          "durationTicks": 9,
          "midi": 72,
          "name": "C5",
          "ticks": 5662,
          "time": 65.83720930232558,
          "velocity": 0.5275590551181102
        },
        {
          "duration": 0.03488372093023884,
          "durationTicks": 3,
          "midi": 88,
          "name": "E6",
          "ticks": 5662,
          "time": 65.83720930232558,
          "velocity": 0.2283464566929134
        },
        {
          "duration": 0.11627906976742963,
          "durationTicks": 10,
          "midi": 65,
          "name": "F4",
          "ticks": 5663,
          "time": 65.84883720930233,
          "velocity": 0.6220472440944882
        },
        {
          "duration": 0.023255813953483084,
          "durationTicks": 2,
          "midi": 81,
          "name": "A5",
          "ticks": 5663,
          "time": 65.84883720930233,
          "velocity": 0.25196850393700787
        },
        {
          "duration": 0.023255813953483084,
          "durationTicks": 2,
          "midi": 87,
          "name": "D#6",
          "ticks": 5663,
          "time": 65.84883720930233,
          "velocity": 0.23622047244094488
        },
        {
          "duration": 0.023255813953483084,
          "durationTicks": 2,
          "midi": 48,
          "name": "C3",
          "ticks": 5664,
          "time": 65.86046511627907,
          "velocity": 0.5511811023622047
        },
        {
          "duration": 0.023255813953483084,
          "durationTicks": 2,
          "midi": 62,
          "name": "D4",
          "ticks": 5664,
          "time": 65.86046511627907,
          "velocity": 0.4645669291338583
        },
        {
          "duration": 0.023255813953483084,
          "durationTicks": 2,
          "midi": 76,
          "name": "E5",
          "ticks": 5664,
          "time": 65.86046511627907,
          "velocity": 0.2440944881889764
        },
        {
          "duration": 0.06976744186046346,
          "durationTicks": 6,
          "midi": 80,
          "name": "G#5",
          "ticks": 5664,
          "time": 65.86046511627907,
          "velocity": 0.23622047244094488
        },
        {
          "duration": 0.15116279069766847,
          "durationTicks": 13,
          "midi": 68,
          "name": "G#4",
          "ticks": 5665,
          "time": 65.87209302325581,
          "velocity": 0.3779527559055118
        },
        {
          "duration": 0.011627906976741542,
          "durationTicks": 1,
          "midi": 49,
          "name": "C#3",
          "ticks": 5666,
          "time": 65.88372093023256,
          "velocity": 0.6062992125984252
        },
        {
          "duration": 0.13953488372092693,
          "durationTicks": 12,
          "midi": 75,
          "name": "D#5",
          "ticks": 5666,
          "time": 65.88372093023256,
          "velocity": 0.3700787401574803
        },
        {
          "duration": 0.011627906976755753,
          "durationTicks": 1,
          "midi": 50,
          "name": "D3",
          "ticks": 5667,
          "time": 65.8953488372093,
          "velocity": 0.5984251968503937
        },
        {
          "duration": 0.023255813953483084,
          "durationTicks": 2,
          "midi": 49,
          "name": "C#3",
          "ticks": 5668,
          "time": 65.90697674418605,
          "velocity": 0.5196850393700787
        },
        {
          "duration": 0.034883720930224626,
          "durationTicks": 3,
          "midi": 56,
          "name": "G#3",
          "ticks": 5668,
          "time": 65.90697674418605,
          "velocity": 0.3779527559055118
        },
        {
          "duration": 0.023255813953483084,
          "durationTicks": 2,
          "midi": 60,
          "name": "C4",
          "ticks": 5669,
          "time": 65.9186046511628,
          "velocity": 0.3937007874015748
        },
        {
          "duration": 0.03488372093023884,
          "durationTicks": 3,
          "midi": 49,
          "name": "C#3",
          "ticks": 5671,
          "time": 65.94186046511628,
          "velocity": 0.33858267716535434
        },
        {
          "duration": 0.023255813953483084,
          "durationTicks": 2,
          "midi": 57,
          "name": "A3",
          "ticks": 5671,
          "time": 65.94186046511628,
          "velocity": 0.3779527559055118
        },
        {
          "duration": 0.03488372093023884,
          "durationTicks": 3,
          "midi": 61,
          "name": "C#4",
          "ticks": 5671,
          "time": 65.94186046511628,
          "velocity": 0.5748031496062992
        },
        {
          "duration": 0.03488372093023884,
          "durationTicks": 3,
          "midi": 56,
          "name": "G#3",
          "ticks": 5673,
          "time": 65.96511627906976,
          "velocity": 0.3858267716535433
        },
        {
          "duration": 0.011627906976741542,
          "durationTicks": 1,
          "midi": 62,
          "name": "D4",
          "ticks": 5674,
          "time": 65.97674418604652,
          "velocity": 0.6299212598425197
        },
        {
          "duration": 0.034883720930224626,
          "durationTicks": 3,
          "midi": 72,
          "name": "C5",
          "ticks": 5674,
          "time": 65.97674418604652,
          "velocity": 0.2204724409448819
        },
        {
          "duration": 0.2674418604651123,
          "durationTicks": 23,
          "midi": 63,
          "name": "D#4",
          "ticks": 5675,
          "time": 65.98837209302326,
          "velocity": 0.5669291338582677
        },
        {
          "duration": 0.11627906976744384,
          "durationTicks": 10,
          "midi": 72,
          "name": "C5",
          "ticks": 5682,
          "time": 66.06976744186046,
          "velocity": 0.5275590551181102
        },
        {
          "duration": 0.03488372093023884,
          "durationTicks": 3,
          "midi": 80,
          "name": "G#5",
          "ticks": 5682,
          "time": 66.06976744186046,
          "velocity": 0.25984251968503935
        },
        {
          "duration": 0.03488372093023884,
          "durationTicks": 3,
          "midi": 35,
          "name": "B1",
          "ticks": 5683,
          "time": 66.0813953488372,
          "velocity": 0.6299212598425197
        },
        {
          "duration": 0.023255813953497295,
          "durationTicks": 2,
          "midi": 50,
          "name": "D3",
          "ticks": 5683,
          "time": 66.0813953488372,
          "velocity": 0.6299212598425197
        },
        {
          "duration": 0.023255813953497295,
          "durationTicks": 2,
          "midi": 78,
          "name": "F#5",
          "ticks": 5683,
          "time": 66.0813953488372,
          "velocity": 0.2677165354330709
        },
        {
          "duration": 0.13953488372094114,
          "durationTicks": 12,
          "midi": 82,
          "name": "A#5",
          "ticks": 5684,
          "time": 66.09302325581395,
          "velocity": 0.33858267716535434
        },
        {
          "duration": 0.011627906976741542,
          "durationTicks": 1,
          "midi": 44,
          "name": "G#2",
          "ticks": 5685,
          "time": 66.1046511627907,
          "velocity": 0.5196850393700787
        },
        {
          "duration": 0.16279069767441,
          "durationTicks": 14,
          "midi": 51,
          "name": "D#3",
          "ticks": 5685,
          "time": 66.1046511627907,
          "velocity": 0.6535433070866141
        },
        {
          "duration": 0.12790697674418539,
          "durationTicks": 11,
          "midi": 79,
          "name": "G5",
          "ticks": 5685,
          "time": 66.1046511627907,
          "velocity": 0.25196850393700787
        },
        {
          "duration": 0.011627906976741542,
          "durationTicks": 1,
          "midi": 47,
          "name": "B2",
          "ticks": 5686,
          "time": 66.11627906976744,
          "velocity": 0.5275590551181102
        },
        {
          "duration": 0.13953488372092693,
          "durationTicks": 12,
          "midi": 68,
          "name": "G#4",
          "ticks": 5686,
          "time": 66.11627906976744,
          "velocity": 0.31496062992125984
        },
        {
          "duration": 0.03488372093023884,
          "durationTicks": 3,
          "midi": 42,
          "name": "F#2",
          "ticks": 5687,
          "time": 66.12790697674419,
          "velocity": 0.6299212598425197
        },
        {
          "duration": 0.04651162790698038,
          "durationTicks": 4,
          "midi": 70,
          "name": "A#4",
          "ticks": 5688,
          "time": 66.13953488372093,
          "velocity": 0.15748031496062992
        },
        {
          "duration": 0.034883720930224626,
          "durationTicks": 3,
          "midi": 56,
          "name": "G#3",
          "ticks": 5690,
          "time": 66.16279069767442,
          "velocity": 0.4330708661417323
        },
        {
          "duration": 0.023255813953497295,
          "durationTicks": 2,
          "midi": 41,
          "name": "F2",
          "ticks": 5693,
          "time": 66.19767441860465,
          "velocity": 0.25984251968503935
        },
        {
          "duration": 0.034883720930224626,
          "durationTicks": 3,
          "midi": 58,
          "name": "A#3",
          "ticks": 5696,
          "time": 66.23255813953489,
          "velocity": 0.1889763779527559
        },
        {
          "duration": 0.09302325581394655,
          "durationTicks": 8,
          "midi": 63,
          "name": "D#4",
          "ticks": 5702,
          "time": 66.30232558139535,
          "velocity": 0.5905511811023622
        },
        {
          "duration": 0.023255813953483084,
          "durationTicks": 2,
          "midi": 79,
          "name": "G5",
          "ticks": 5702,
          "time": 66.30232558139535,
          "velocity": 0.2677165354330709
        },
        {
          "duration": 0.034883720930224626,
          "durationTicks": 3,
          "midi": 81,
          "name": "A5",
          "ticks": 5702,
          "time": 66.30232558139535,
          "velocity": 0.2125984251968504
        },
        {
          "duration": 0.034883720930224626,
          "durationTicks": 3,
          "midi": 85,
          "name": "C#6",
          "ticks": 5702,
          "time": 66.30232558139535,
          "velocity": 0.16535433070866143
        },
        {
          "duration": 0.023255813953483084,
          "durationTicks": 2,
          "midi": 29,
          "name": "F1",
          "ticks": 5703,
          "time": 66.31395348837209,
          "velocity": 0.36220472440944884
        },
        {
          "duration": 0.023255813953483084,
          "durationTicks": 2,
          "midi": 48,
          "name": "C3",
          "ticks": 5703,
          "time": 66.31395348837209,
          "velocity": 0.5590551181102362
        },
        {
          "duration": 0.09302325581396076,
          "durationTicks": 8,
          "midi": 72,
          "name": "C5",
          "ticks": 5703,
          "time": 66.31395348837209,
          "velocity": 0.5590551181102362
        },
        {
          "duration": 0.03488372093023884,
          "durationTicks": 3,
          "midi": 77,
          "name": "F5",
          "ticks": 5704,
          "time": 66.32558139534883,
          "velocity": 0.1732283464566929
        },
        {
          "duration": 0.12790697674418539,
          "durationTicks": 11,
          "midi": 80,
          "name": "G#5",
          "ticks": 5704,
          "time": 66.32558139534883,
          "velocity": 0.1968503937007874
        },
        {
          "duration": 0.11627906976744384,
          "durationTicks": 10,
          "midi": 49,
          "name": "C#3",
          "ticks": 5705,
          "time": 66.33720930232558,
          "velocity": 0.5826771653543307
        },
        {
          "duration": 0.023255813953483084,
          "durationTicks": 2,
          "midi": 39,
          "name": "D#2",
          "ticks": 5706,
          "time": 66.34883720930233,
          "velocity": 0.33070866141732286
        },
        {
          "duration": 0.03488372093023884,
          "durationTicks": 3,
          "midi": 68,
          "name": "G#4",
          "ticks": 5710,
          "time": 66.3953488372093,
          "velocity": 0.07874015748031496
        },
        {
          "duration": 0.04651162790696617,
          "durationTicks": 4,
          "midi": 65,
          "name": "F4",
          "ticks": 5711,
          "time": 66.40697674418605,
          "velocity": 0.33858267716535434
        },
        {
          "duration": 0.05813953488372192,
          "durationTicks": 5,
          "midi": 72,
          "name": "C5",
          "ticks": 5712,
          "time": 66.4186046511628,
          "velocity": 0.2677165354330709
        },
        {
          "duration": 0.06976744186046346,
          "durationTicks": 6,
          "midi": 54,
          "name": "F#3",
          "ticks": 5715,
          "time": 66.45348837209302,
          "velocity": 0.3543307086614173
        },
        {
          "duration": 0.023255813953497295,
          "durationTicks": 2,
          "midi": 64,
          "name": "E4",
          "ticks": 5715,
          "time": 66.45348837209302,
          "velocity": 0.28346456692913385
        },
        {
          "duration": 0.023255813953497295,
          "durationTicks": 2,
          "midi": 49,
          "name": "C#3",
          "ticks": 5716,
          "time": 66.46511627906976,
          "velocity": 0.2992125984251969
        },
        {
          "duration": 0.09302325581394655,
          "durationTicks": 8,
          "midi": 82,
          "name": "A#5",
          "ticks": 5722,
          "time": 66.53488372093024,
          "velocity": 0.33858267716535434
        },
        {
          "duration": 0.034883720930224626,
          "durationTicks": 3,
          "midi": 87,
          "name": "D#6",
          "ticks": 5722,
          "time": 66.53488372093024,
          "velocity": 0.2125984251968504
        },
        {
          "duration": 0.011627906976741542,
          "durationTicks": 1,
          "midi": 34,
          "name": "A#1",
          "ticks": 5723,
          "time": 66.54651162790698,
          "velocity": 0.5590551181102362
        },
        {
          "duration": 0.011627906976741542,
          "durationTicks": 1,
          "midi": 51,
          "name": "D#3",
          "ticks": 5723,
          "time": 66.54651162790698,
          "velocity": 0.5826771653543307
        },
        {
          "duration": 0.11627906976744384,
          "durationTicks": 10,
          "midi": 63,
          "name": "D#4",
          "ticks": 5723,
          "time": 66.54651162790698,
          "velocity": 0.5905511811023622
        },
        {
          "duration": 0.15116279069766847,
          "durationTicks": 13,
          "midi": 70,
          "name": "A#4",
          "ticks": 5723,
          "time": 66.54651162790698,
          "velocity": 0.5275590551181102
        },
        {
          "duration": 0.04651162790696617,
          "durationTicks": 4,
          "midi": 79,
          "name": "G5",
          "ticks": 5723,
          "time": 66.54651162790698,
          "velocity": 0.28346456692913385
        },
        {
          "duration": 0.011627906976741542,
          "durationTicks": 1,
          "midi": 36,
          "name": "C2",
          "ticks": 5724,
          "time": 66.55813953488372,
          "velocity": 0.5984251968503937
        },
        {
          "duration": 0.011627906976741542,
          "durationTicks": 1,
          "midi": 50,
          "name": "D3",
          "ticks": 5724,
          "time": 66.55813953488372,
          "velocity": 0.6377952755905512
        },
        {
          "duration": 0.1046511627907023,
          "durationTicks": 9,
          "midi": 66,
          "name": "F#4",
          "ticks": 5724,
          "time": 66.55813953488372,
          "velocity": 0.3858267716535433
        },
        {
          "duration": 0.11627906976744384,
          "durationTicks": 10,
          "midi": 85,
          "name": "C#6",
          "ticks": 5724,
          "time": 66.55813953488372,
          "velocity": 0.14173228346456693
        },
        {
          "duration": 0.011627906976741542,
          "durationTicks": 1,
          "midi": 41,
          "name": "F2",
          "ticks": 5725,
          "time": 66.56976744186046,
          "velocity": 0.5511811023622047
        },
        {
          "duration": 0.1046511627907023,
          "durationTicks": 9,
          "midi": 51,
          "name": "D#3",
          "ticks": 5725,
          "time": 66.56976744186046,
          "velocity": 0.6929133858267716
        },
        {
          "duration": 0.023255813953497295,
          "durationTicks": 2,
          "midi": 43,
          "name": "G2",
          "ticks": 5726,
          "time": 66.5813953488372,
          "velocity": 0.5669291338582677
        },
        {
          "duration": 0.08139534883721922,
          "durationTicks": 7,
          "midi": 58,
          "name": "A#3",
          "ticks": 5726,
          "time": 66.5813953488372,
          "velocity": 0.4251968503937008
        },
        {
          "duration": 0.09302325581396076,
          "durationTicks": 8,
          "midi": 77,
          "name": "F5",
          "ticks": 5726,
          "time": 66.5813953488372,
          "velocity": 0.2755905511811024
        },
        {
          "duration": 0.03488372093023884,
          "durationTicks": 3,
          "midi": 73,
          "name": "C#5",
          "ticks": 5727,
          "time": 66.59302325581395,
          "velocity": 0.13385826771653545
        },
        {
          "duration": 0.05813953488372192,
          "durationTicks": 5,
          "midi": 41,
          "name": "F2",
          "ticks": 5728,
          "time": 66.6046511627907,
          "velocity": 0.6220472440944882
        },
        {
          "duration": 0.12790697674418539,
          "durationTicks": 11,
          "midi": 79,
          "name": "G5",
          "ticks": 5732,
          "time": 66.65116279069767,
          "velocity": 0.3937007874015748
        },
        {
          "duration": 0.10465116279068809,
          "durationTicks": 9,
          "midi": 60,
          "name": "C4",
          "ticks": 5733,
          "time": 66.66279069767442,
          "velocity": 0.5275590551181102
        },
        {
          "duration": 0.10465116279068809,
          "durationTicks": 9,
          "midi": 48,
          "name": "C3",
          "ticks": 5734,
          "time": 66.67441860465117,
          "velocity": 0.5354330708661418
        },
        {
          "duration": 0.10465116279068809,
          "durationTicks": 9,
          "midi": 64,
          "name": "E4",
          "ticks": 5734,
          "time": 66.67441860465117,
          "velocity": 0.36220472440944884
        },
        {
          "duration": 0.10465116279068809,
          "durationTicks": 9,
          "midi": 83,
          "name": "B5",
          "ticks": 5734,
          "time": 66.67441860465117,
          "velocity": 0.1889763779527559
        },
        {
          "duration": 0.06976744186046346,
          "durationTicks": 6,
          "midi": 67,
          "name": "G4",
          "ticks": 5736,
          "time": 66.69767441860465,
          "velocity": 0.25984251968503935
        },
        {
          "duration": 0.08139534883721922,
          "durationTicks": 7,
          "midi": 70,
          "name": "A#4",
          "ticks": 5742,
          "time": 66.76744186046511,
          "velocity": 0.5590551181102362
        },
        {
          "duration": 0.12790697674418539,
          "durationTicks": 11,
          "midi": 77,
          "name": "F5",
          "ticks": 5742,
          "time": 66.76744186046511,
          "velocity": 0.4251968503937008
        },
        {
          "duration": 0.023255813953497295,
          "durationTicks": 2,
          "midi": 29,
          "name": "F1",
          "ticks": 5743,
          "time": 66.77906976744185,
          "velocity": 0.3228346456692913
        },
        {
          "duration": 0.09302325581396076,
          "durationTicks": 8,
          "midi": 58,
          "name": "A#3",
          "ticks": 5743,
          "time": 66.77906976744185,
          "velocity": 0.5511811023622047
        },
        {
          "duration": 0.11627906976744384,
          "durationTicks": 10,
          "midi": 80,
          "name": "G#5",
          "ticks": 5743,
          "time": 66.77906976744185,
          "velocity": 0.2755905511811024
        },
        {
          "duration": 0.10465116279068809,
          "durationTicks": 9,
          "midi": 65,
          "name": "F4",
          "ticks": 5744,
          "time": 66.79069767441861,
          "velocity": 0.4645669291338583
        },
        {
          "duration": 0.10465116279068809,
          "durationTicks": 9,
          "midi": 73,
          "name": "C#5",
          "ticks": 5744,
          "time": 66.79069767441861,
          "velocity": 0.33858267716535434
        },
        {
          "duration": 0.034883720930224626,
          "durationTicks": 3,
          "midi": 46,
          "name": "A#2",
          "ticks": 5745,
          "time": 66.80232558139535,
          "velocity": 0.4566929133858268
        },
        {
          "duration": 0.034883720930224626,
          "durationTicks": 3,
          "midi": 46,
          "name": "A#2",
          "ticks": 5749,
          "time": 66.84883720930233,
          "velocity": 0.3937007874015748
        },
        {
          "duration": 0.023255813953483084,
          "durationTicks": 2,
          "midi": 61,
          "name": "C#4",
          "ticks": 5750,
          "time": 66.86046511627907,
          "velocity": 0.4330708661417323
        },
        {
          "duration": 0.03488372093023884,
          "durationTicks": 3,
          "midi": 70,
          "name": "A#4",
          "ticks": 5751,
          "time": 66.87209302325581,
          "velocity": 0.29133858267716534
        },
        {
          "duration": 0.13953488372092693,
          "durationTicks": 12,
          "midi": 90,
          "name": "F#6",
          "ticks": 5752,
          "time": 66.88372093023256,
          "velocity": 0.25196850393700787
        },
        {
          "duration": 0.011627906976755753,
          "durationTicks": 1,
          "midi": 57,
          "name": "A3",
          "ticks": 5753,
          "time": 66.8953488372093,
          "velocity": 0.5354330708661418
        },
        {
          "duration": 0.2325581395348877,
          "durationTicks": 20,
          "midi": 63,
          "name": "D#4",
          "ticks": 5753,
          "time": 66.8953488372093,
          "velocity": 0.6456692913385826
        },
        {
          "duration": 0.11627906976744384,
          "durationTicks": 10,
          "midi": 74,
          "name": "D5",
          "ticks": 5753,
          "time": 66.8953488372093,
          "velocity": 0.4251968503937008
        },
        {
          "duration": 0.011627906976741542,
          "durationTicks": 1,
          "midi": 55,
          "name": "G3",
          "ticks": 5754,
          "time": 66.90697674418605,
          "velocity": 0.5669291338582677
        },
        {
          "duration": 0.11627906976742963,
          "durationTicks": 10,
          "midi": 59,
          "name": "B3",
          "ticks": 5754,
          "time": 66.90697674418605,
          "velocity": 0.5748031496062992
        },
        {
          "duration": 0.04651162790698038,
          "durationTicks": 4,
          "midi": 55,
          "name": "G3",
          "ticks": 5756,
          "time": 66.93023255813954,
          "velocity": 0.5511811023622047
        },
        {
          "duration": 0.06976744186046346,
          "durationTicks": 6,
          "midi": 70,
          "name": "A#4",
          "ticks": 5756,
          "time": 66.93023255813954,
          "velocity": 0.33858267716535434
        },
        {
          "duration": 0.06976744186046346,
          "durationTicks": 6,
          "midi": 43,
          "name": "G2",
          "ticks": 5757,
          "time": 66.94186046511628,
          "velocity": 0.44881889763779526
        },
        {
          "duration": 0.09302325581396076,
          "durationTicks": 8,
          "midi": 77,
          "name": "F5",
          "ticks": 5758,
          "time": 66.95348837209302,
          "velocity": 0.3543307086614173
        },
        {
          "duration": 0.034883720930224626,
          "durationTicks": 3,
          "midi": 55,
          "name": "G3",
          "ticks": 5761,
          "time": 66.98837209302326,
          "velocity": 0.5511811023622047
        },
        {
          "duration": 0.023255813953483084,
          "durationTicks": 2,
          "midi": 78,
          "name": "F#5",
          "ticks": 5762,
          "time": 67,
          "velocity": 0.2283464566929134
        },
        {
          "duration": 0.011627906976741542,
          "durationTicks": 1,
          "midi": 35,
          "name": "B1",
          "ticks": 5763,
          "time": 67.01162790697674,
          "velocity": 0.5984251968503937
        },
        {
          "duration": 0.011627906976755753,
          "durationTicks": 1,
          "midi": 40,
          "name": "E2",
          "ticks": 5764,
          "time": 67.02325581395348,
          "velocity": 0.6299212598425197
        },
        {
          "duration": 0.011627906976755753,
          "durationTicks": 1,
          "midi": 50,
          "name": "D3",
          "ticks": 5764,
          "time": 67.02325581395348,
          "velocity": 0.5196850393700787
        },
        {
          "duration": 0.011627906976755753,
          "durationTicks": 1,
          "midi": 54,
          "name": "F#3",
          "ticks": 5764,
          "time": 67.02325581395348,
          "velocity": 0.5275590551181102
        },
        {
          "duration": 0.16279069767442422,
          "durationTicks": 14,
          "midi": 58,
          "name": "A#3",
          "ticks": 5764,
          "time": 67.02325581395348,
          "velocity": 0.5590551181102362
        },
        {
          "duration": 0.06976744186046346,
          "durationTicks": 6,
          "midi": 73,
          "name": "C#5",
          "ticks": 5764,
          "time": 67.02325581395348,
          "velocity": 0.14960629921259844
        },
        {
          "duration": 0.034883720930224626,
          "durationTicks": 3,
          "midi": 43,
          "name": "G2",
          "ticks": 5765,
          "time": 67.03488372093024,
          "velocity": 0.6062992125984252
        },
        {
          "duration": 0.011627906976741542,
          "durationTicks": 1,
          "midi": 53,
          "name": "F3",
          "ticks": 5766,
          "time": 67.04651162790698,
          "velocity": 0.5826771653543307
        },
        {
          "duration": 0.023255813953483084,
          "durationTicks": 2,
          "midi": 51,
          "name": "D#3",
          "ticks": 5767,
          "time": 67.05813953488372,
          "velocity": 0.5354330708661418
        },
        {
          "duration": 0.034883720930224626,
          "durationTicks": 3,
          "midi": 77,
          "name": "F5",
          "ticks": 5767,
          "time": 67.05813953488372,
          "velocity": 0.15748031496062992
        },
        {
          "duration": 0.05813953488372192,
          "durationTicks": 5,
          "midi": 41,
          "name": "F2",
          "ticks": 5768,
          "time": 67.06976744186046,
          "velocity": 0.6299212598425197
        },
        {
          "duration": 0.023255813953483084,
          "durationTicks": 2,
          "midi": 40,
          "name": "E2",
          "ticks": 5773,
          "time": 67.12790697674419,
          "velocity": 0.2755905511811024
        },
        {
          "duration": 0.023255813953483084,
          "durationTicks": 2,
          "midi": 64,
          "name": "E4",
          "ticks": 5781,
          "time": 67.22093023255815,
          "velocity": 0.44881889763779526
        },
        {
          "duration": 0.2093023255813904,
          "durationTicks": 18,
          "midi": 70,
          "name": "A#4",
          "ticks": 5781,
          "time": 67.22093023255815,
          "velocity": 0.5511811023622047
        },
        {
          "duration": 0.09302325581394655,
          "durationTicks": 8,
          "midi": 80,
          "name": "G#5",
          "ticks": 5782,
          "time": 67.23255813953489,
          "velocity": 0.25984251968503935
        },
        {
          "duration": 0.081395348837205,
          "durationTicks": 7,
          "midi": 86,
          "name": "D6",
          "ticks": 5782,
          "time": 67.23255813953489,
          "velocity": 0.25196850393700787
        },
        {
          "duration": 0.023255813953483084,
          "durationTicks": 2,
          "midi": 48,
          "name": "C3",
          "ticks": 5783,
          "time": 67.24418604651163,
          "velocity": 0.5826771653543307
        },
        {
          "duration": 0.04651162790698038,
          "durationTicks": 4,
          "midi": 55,
          "name": "G3",
          "ticks": 5783,
          "time": 67.24418604651163,
          "velocity": 0.5196850393700787
        },
        {
          "duration": 0.1860465116279073,
          "durationTicks": 16,
          "midi": 63,
          "name": "D#4",
          "ticks": 5783,
          "time": 67.24418604651163,
          "velocity": 0.5826771653543307
        },
        {
          "duration": 0.023255813953497295,
          "durationTicks": 2,
          "midi": 49,
          "name": "C#3",
          "ticks": 5785,
          "time": 67.26744186046511,
          "velocity": 0.6220472440944882
        },
        {
          "duration": 0.1046511627907023,
          "durationTicks": 9,
          "midi": 77,
          "name": "F5",
          "ticks": 5786,
          "time": 67.27906976744185,
          "velocity": 0.13385826771653545
        },
        {
          "duration": 0.011627906976741542,
          "durationTicks": 1,
          "midi": 50,
          "name": "D3",
          "ticks": 5787,
          "time": 67.29069767441861,
          "velocity": 0.6062992125984252
        },
        {
          "duration": 0.034883720930224626,
          "durationTicks": 3,
          "midi": 49,
          "name": "C#3",
          "ticks": 5788,
          "time": 67.30232558139535,
          "velocity": 0.5039370078740157
        },
        {
          "duration": 0.023255813953483084,
          "durationTicks": 2,
          "midi": 55,
          "name": "G3",
          "ticks": 5788,
          "time": 67.30232558139535,
          "velocity": 0.48031496062992124
        },
        {
          "duration": 0.06976744186046346,
          "durationTicks": 6,
          "midi": 58,
          "name": "A#3",
          "ticks": 5789,
          "time": 67.31395348837209,
          "velocity": 0.3858267716535433
        },
        {
          "duration": 0.023255813953483084,
          "durationTicks": 2,
          "midi": 52,
          "name": "E3",
          "ticks": 5792,
          "time": 67.34883720930233,
          "velocity": 0.3464566929133858
        },
        {
          "duration": 0.03488372093023884,
          "durationTicks": 3,
          "midi": 77,
          "name": "F5",
          "ticks": 5796,
          "time": 67.3953488372093,
          "velocity": 0.15748031496062992
        },
        {
          "duration": 0.12790697674418539,
          "durationTicks": 11,
          "midi": 70,
          "name": "A#4",
          "ticks": 5801,
          "time": 67.45348837209302,
          "velocity": 0.5511811023622047
        },
        {
          "duration": 0.023255813953497295,
          "durationTicks": 2,
          "midi": 78,
          "name": "F#5",
          "ticks": 5802,
          "time": 67.46511627906976,
          "velocity": 0.23622047244094488
        },
        {
          "duration": 0.023255813953497295,
          "durationTicks": 2,
          "midi": 81,
          "name": "A5",
          "ticks": 5802,
          "time": 67.46511627906976,
          "velocity": 0.2283464566929134
        },
        {
          "duration": 0.023255813953497295,
          "durationTicks": 2,
          "midi": 87,
          "name": "D#6",
          "ticks": 5802,
          "time": 67.46511627906976,
          "velocity": 0.2283464566929134
        },
        {
          "duration": 0.011627906976741542,
          "durationTicks": 1,
          "midi": 35,
          "name": "B1",
          "ticks": 5803,
          "time": 67.47674418604652,
          "velocity": 0.6062992125984252
        },
        {
          "duration": 0.023255813953483084,
          "durationTicks": 2,
          "midi": 55,
          "name": "G3",
          "ticks": 5803,
          "time": 67.47674418604652,
          "velocity": 0.47244094488188976
        },
        {
          "duration": 0.13953488372092693,
          "durationTicks": 12,
          "midi": 63,
          "name": "D#4",
          "ticks": 5803,
          "time": 67.47674418604652,
          "velocity": 0.5511811023622047
        },
        {
          "duration": 0.011627906976741542,
          "durationTicks": 1,
          "midi": 40,
          "name": "E2",
          "ticks": 5804,
          "time": 67.48837209302326,
          "velocity": 0.6141732283464567
        },
        {
          "duration": 0.011627906976741542,
          "durationTicks": 1,
          "midi": 50,
          "name": "D3",
          "ticks": 5804,
          "time": 67.48837209302326,
          "velocity": 0.5118110236220472
        },
        {
          "duration": 0.06976744186046346,
          "durationTicks": 6,
          "midi": 73,
          "name": "C#5",
          "ticks": 5804,
          "time": 67.48837209302326,
          "velocity": 0.16535433070866143
        },
        {
          "duration": 0.011627906976741542,
          "durationTicks": 1,
          "midi": 53,
          "name": "F3",
          "ticks": 5805,
          "time": 67.5,
          "velocity": 0.5669291338582677
        },
        {
          "duration": 0.023255813953497295,
          "durationTicks": 2,
          "midi": 51,
          "name": "D#3",
          "ticks": 5806,
          "time": 67.51162790697674,
          "velocity": 0.5196850393700787
        },
        {
          "duration": 0.011627906976755753,
          "durationTicks": 1,
          "midi": 42,
          "name": "F#2",
          "ticks": 5807,
          "time": 67.52325581395348,
          "velocity": 0.5905511811023622
        },
        {
          "duration": 0.05813953488370771,
          "durationTicks": 5,
          "midi": 41,
          "name": "F2",
          "ticks": 5808,
          "time": 67.53488372093024,
          "velocity": 0.6141732283464567
        },
        {
          "duration": 0.034883720930224626,
          "durationTicks": 3,
          "midi": 51,
          "name": "D#3",
          "ticks": 5809,
          "time": 67.54651162790698,
          "velocity": 0.3700787401574803
        },
        {
          "duration": 0.03488372093023884,
          "durationTicks": 3,
          "midi": 84,
          "name": "C6",
          "ticks": 5821,
          "time": 67.68604651162791,
          "velocity": 0.2440944881889764
        },
        {
          "duration": 0.023255813953483084,
          "durationTicks": 2,
          "midi": 86,
          "name": "D6",
          "ticks": 5821,
          "time": 67.68604651162791,
          "velocity": 0.28346456692913385
        },
        {
          "duration": 0.023255813953497295,
          "durationTicks": 2,
          "midi": 55,
          "name": "G3",
          "ticks": 5822,
          "time": 67.69767441860465,
          "velocity": 0.4566929133858268
        },
        {
          "duration": 0.11627906976744384,
          "durationTicks": 10,
          "midi": 65,
          "name": "F4",
          "ticks": 5822,
          "time": 67.69767441860465,
          "velocity": 0.5905511811023622
        },
        {
          "duration": 0.1860465116279073,
          "durationTicks": 16,
          "midi": 70,
          "name": "A#4",
          "ticks": 5822,
          "time": 67.69767441860465,
          "velocity": 0.5748031496062992
        },
        {
          "duration": 0.023255813953497295,
          "durationTicks": 2,
          "midi": 79,
          "name": "G5",
          "ticks": 5822,
          "time": 67.69767441860465,
          "velocity": 0.2755905511811024
        },
        {
          "duration": 0.023255813953497295,
          "durationTicks": 2,
          "midi": 81,
          "name": "A5",
          "ticks": 5822,
          "time": 67.69767441860465,
          "velocity": 0.2283464566929134
        },
        {
          "duration": 0.023255813953497295,
          "durationTicks": 2,
          "midi": 29,
          "name": "F1",
          "ticks": 5823,
          "time": 67.70930232558139,
          "velocity": 0.4251968503937008
        },
        {
          "duration": 0.023255813953497295,
          "durationTicks": 2,
          "midi": 48,
          "name": "C3",
          "ticks": 5823,
          "time": 67.70930232558139,
          "velocity": 0.5748031496062992
        },
        {
          "duration": 0.03488372093023884,
          "durationTicks": 3,
          "midi": 61,
          "name": "C#4",
          "ticks": 5823,
          "time": 67.70930232558139,
          "velocity": 0.3937007874015748
        },
        {
          "duration": 0.03488372093023884,
          "durationTicks": 3,
          "midi": 78,
          "name": "F#5",
          "ticks": 5823,
          "time": 67.70930232558139,
          "velocity": 0.2204724409448819
        },
        {
          "duration": 0.04651162790698038,
          "durationTicks": 4,
          "midi": 85,
          "name": "C#6",
          "ticks": 5823,
          "time": 67.70930232558139,
          "velocity": 0.2047244094488189
        },
        {
          "duration": 0.023255813953483084,
          "durationTicks": 2,
          "midi": 54,
          "name": "F#3",
          "ticks": 5824,
          "time": 67.72093023255815,
          "velocity": 0.49606299212598426
        },
        {
          "duration": 0.06976744186046346,
          "durationTicks": 6,
          "midi": 80,
          "name": "G#5",
          "ticks": 5824,
          "time": 67.72093023255815,
          "velocity": 0.23622047244094488
        },
        {
          "duration": 0.011627906976741542,
          "durationTicks": 1,
          "midi": 49,
          "name": "C#3",
          "ticks": 5825,
          "time": 67.73255813953489,
          "velocity": 0.5826771653543307
        },
        {
          "duration": 0.04651162790696617,
          "durationTicks": 4,
          "midi": 58,
          "name": "A#3",
          "ticks": 5825,
          "time": 67.73255813953489,
          "velocity": 0.4330708661417323
        },
        {
          "duration": 0.011627906976741542,
          "durationTicks": 1,
          "midi": 50,
          "name": "D3",
          "ticks": 5826,
          "time": 67.74418604651163,
          "velocity": 0.6299212598425197
        },
        {
          "duration": 0.03488372093023884,
          "durationTicks": 3,
          "midi": 49,
          "name": "C#3",
          "ticks": 5827,
          "time": 67.75581395348837,
          "velocity": 0.5748031496062992
        },
        {
          "duration": 0.24418604651162923,
          "durationTicks": 21,
          "midi": 63,
          "name": "D#4",
          "ticks": 5830,
          "time": 67.79069767441861,
          "velocity": 0.6299212598425197
        },
        {
          "duration": 0.023255813953483084,
          "durationTicks": 2,
          "midi": 51,
          "name": "D#3",
          "ticks": 5831,
          "time": 67.80232558139535,
          "velocity": 0.3700787401574803
        },
        {
          "duration": 0.023255813953483084,
          "durationTicks": 2,
          "midi": 59,
          "name": "B3",
          "ticks": 5831,
          "time": 67.80232558139535,
          "velocity": 0.3937007874015748
        },
        {
          "duration": 0.023255813953497295,
          "durationTicks": 2,
          "midi": 58,
          "name": "A#3",
          "ticks": 5833,
          "time": 67.82558139534883,
          "velocity": 0.3779527559055118
        },
        {
          "duration": 0.034883720930224626,
          "durationTicks": 3,
          "midi": 78,
          "name": "F#5",
          "ticks": 5841,
          "time": 67.9186046511628,
          "velocity": 0.28346456692913385
        },
        {
          "duration": 0.034883720930224626,
          "durationTicks": 3,
          "midi": 81,
          "name": "A5",
          "ticks": 5841,
          "time": 67.9186046511628,
          "velocity": 0.25984251968503935
        },
        {
          "duration": 0.034883720930224626,
          "durationTicks": 3,
          "midi": 87,
          "name": "D#6",
          "ticks": 5841,
          "time": 67.9186046511628,
          "velocity": 0.28346456692913385
        },
        {
          "duration": 0.023255813953483084,
          "durationTicks": 2,
          "midi": 35,
          "name": "B1",
          "ticks": 5842,
          "time": 67.93023255813954,
          "velocity": 0.6377952755905512
        },
        {
          "duration": 0.023255813953483084,
          "durationTicks": 2,
          "midi": 50,
          "name": "D3",
          "ticks": 5842,
          "time": 67.93023255813954,
          "velocity": 0.6220472440944882
        },
        {
          "duration": 0.11627906976744384,
          "durationTicks": 10,
          "midi": 70,
          "name": "A#4",
          "ticks": 5842,
          "time": 67.93023255813954,
          "velocity": 0.5669291338582677
        },
        {
          "duration": 0.011627906976741542,
          "durationTicks": 1,
          "midi": 40,
          "name": "E2",
          "ticks": 5844,
          "time": 67.95348837209302,
          "velocity": 0.5590551181102362
        },
        {
          "duration": 0.06976744186046346,
          "durationTicks": 6,
          "midi": 51,
          "name": "D#3",
          "ticks": 5844,
          "time": 67.95348837209302,
          "velocity": 0.6614173228346457
        },
        {
          "duration": 0.12790697674418539,
          "durationTicks": 11,
          "midi": 73,
          "name": "C#5",
          "ticks": 5844,
          "time": 67.95348837209302,
          "velocity": 0.30708661417322836
        },
        {
          "duration": 0.05813953488372192,
          "durationTicks": 5,
          "midi": 79,
          "name": "G5",
          "ticks": 5844,
          "time": 67.95348837209302,
          "velocity": 0.18110236220472442
        },
        {
          "duration": 0.011627906976741542,
          "durationTicks": 1,
          "midi": 43,
          "name": "G2",
          "ticks": 5846,
          "time": 67.97674418604652,
          "velocity": 0.5275590551181102
        },
        {
          "duration": 0.011627906976741542,
          "durationTicks": 1,
          "midi": 42,
          "name": "F#2",
          "ticks": 5847,
          "time": 67.98837209302326,
          "velocity": 0.5826771653543307
        },
        {
          "duration": 0.09302325581394655,
          "durationTicks": 8,
          "midi": 66,
          "name": "F#4",
          "ticks": 5847,
          "time": 67.98837209302326,
          "velocity": 0.36220472440944884
        },
        {
          "duration": 0.05813953488372192,
          "durationTicks": 5,
          "midi": 41,
          "name": "F2",
          "ticks": 5848,
          "time": 68,
          "velocity": 0.5905511811023622
        },
        {
          "duration": 0.023255813953483084,
          "durationTicks": 2,
          "midi": 55,
          "name": "G3",
          "ticks": 5852,
          "time": 68.04651162790698,
          "velocity": 0.36220472440944884
        },
        {
          "duration": 0.023255813953497295,
          "durationTicks": 2,
          "midi": 53,
          "name": "F3",
          "ticks": 5855,
          "time": 68.0813953488372,
          "velocity": 0.2677165354330709
        },
        {
          "duration": 0.03488372093023884,
          "durationTicks": 3,
          "midi": 72,
          "name": "C5",
          "ticks": 5855,
          "time": 68.0813953488372,
          "velocity": 0.1732283464566929
        },
        {
          "duration": 0.03488372093023884,
          "durationTicks": 3,
          "midi": 77,
          "name": "F5",
          "ticks": 5861,
          "time": 68.15116279069767,
          "velocity": 0.28346456692913385
        },
        {
          "duration": 0.023255813953497295,
          "durationTicks": 2,
          "midi": 83,
          "name": "B5",
          "ticks": 5861,
          "time": 68.15116279069767,
          "velocity": 0.28346456692913385
        },
        {
          "duration": 0.011627906976741542,
          "durationTicks": 1,
          "midi": 64,
          "name": "E4",
          "ticks": 5862,
          "time": 68.16279069767442,
          "velocity": 0.5196850393700787
        },
        {
          "duration": 0.081395348837205,
          "durationTicks": 7,
          "midi": 70,
          "name": "A#4",
          "ticks": 5862,
          "time": 68.16279069767442,
          "velocity": 0.5826771653543307
        },
        {
          "duration": 0.023255813953483084,
          "durationTicks": 2,
          "midi": 84,
          "name": "C6",
          "ticks": 5862,
          "time": 68.16279069767442,
          "velocity": 0.28346456692913385
        },
        {
          "duration": 0.023255813953483084,
          "durationTicks": 2,
          "midi": 87,
          "name": "D#6",
          "ticks": 5862,
          "time": 68.16279069767442,
          "velocity": 0.28346456692913385
        },
        {
          "duration": 0.09302325581394655,
          "durationTicks": 8,
          "midi": 63,
          "name": "D#4",
          "ticks": 5863,
          "time": 68.17441860465117,
          "velocity": 0.5590551181102362
        },
        {
          "duration": 0.034883720930224626,
          "durationTicks": 3,
          "midi": 81,
          "name": "A5",
          "ticks": 5863,
          "time": 68.17441860465117,
          "velocity": 0.29133858267716534
        },
        {
          "duration": 0.04651162790698038,
          "durationTicks": 4,
          "midi": 51,
          "name": "D#3",
          "ticks": 5865,
          "time": 68.19767441860465,
          "velocity": 0.4409448818897638
        },
        {
          "duration": 0.023255813953483084,
          "durationTicks": 2,
          "midi": 52,
          "name": "E3",
          "ticks": 5869,
          "time": 68.24418604651163,
          "velocity": 0.33070866141732286
        },
        {
          "duration": 0.04651162790698038,
          "durationTicks": 4,
          "midi": 51,
          "name": "D#3",
          "ticks": 5871,
          "time": 68.26744186046511,
          "velocity": 0.33858267716535434
        },
        {
          "duration": 0.06976744186046346,
          "durationTicks": 6,
          "midi": 70,
          "name": "A#4",
          "ticks": 5871,
          "time": 68.26744186046511,
          "velocity": 0.25984251968503935
        },
        {
          "duration": 0.1046511627907023,
          "durationTicks": 9,
          "midi": 63,
          "name": "D#4",
          "ticks": 5872,
          "time": 68.27906976744185,
          "velocity": 0.36220472440944884
        },
        {
          "duration": 0.023255813953497295,
          "durationTicks": 2,
          "midi": 53,
          "name": "F3",
          "ticks": 5881,
          "time": 68.38372093023256,
          "velocity": 0.5748031496062992
        },
        {
          "duration": 0.03488372093023884,
          "durationTicks": 3,
          "midi": 64,
          "name": "E4",
          "ticks": 5881,
          "time": 68.38372093023256,
          "velocity": 0.6535433070866141
        },
        {
          "duration": 0.06976744186046346,
          "durationTicks": 6,
          "midi": 80,
          "name": "G#5",
          "ticks": 5881,
          "time": 68.38372093023256,
          "velocity": 0.2755905511811024
        },
        {
          "duration": 0.05813953488372192,
          "durationTicks": 5,
          "midi": 87,
          "name": "D#6",
          "ticks": 5881,
          "time": 68.38372093023256,
          "velocity": 0.29133858267716534
        },
        {
          "duration": 0.011627906976755753,
          "durationTicks": 1,
          "midi": 35,
          "name": "B1",
          "ticks": 5882,
          "time": 68.3953488372093,
          "velocity": 0.5590551181102362
        },
        {
          "duration": 0.011627906976755753,
          "durationTicks": 1,
          "midi": 58,
          "name": "A#3",
          "ticks": 5882,
          "time": 68.3953488372093,
          "velocity": 0.5354330708661418
        },
        {
          "duration": 0.023255813953497295,
          "durationTicks": 2,
          "midi": 73,
          "name": "C#5",
          "ticks": 5882,
          "time": 68.3953488372093,
          "velocity": 0.33070866141732286
        },
        {
          "duration": 0.13953488372094114,
          "durationTicks": 12,
          "midi": 78,
          "name": "F#5",
          "ticks": 5882,
          "time": 68.3953488372093,
          "velocity": 0.3464566929133858
        },
        {
          "duration": 0.1046511627907023,
          "durationTicks": 9,
          "midi": 83,
          "name": "B5",
          "ticks": 5882,
          "time": 68.3953488372093,
          "velocity": 0.33858267716535434
        },
        {
          "duration": 0.023255813953497295,
          "durationTicks": 2,
          "midi": 88,
          "name": "E6",
          "ticks": 5882,
          "time": 68.3953488372093,
          "velocity": 0.25196850393700787
        },
        {
          "duration": 0.011627906976741542,
          "durationTicks": 1,
          "midi": 40,
          "name": "E2",
          "ticks": 5883,
          "time": 68.40697674418605,
          "velocity": 0.6062992125984252
        },
        {
          "duration": 0.023255813953483084,
          "durationTicks": 2,
          "midi": 51,
          "name": "D#3",
          "ticks": 5883,
          "time": 68.40697674418605,
          "velocity": 0.6614173228346457
        },
        {
          "duration": 0.05813953488370771,
          "durationTicks": 5,
          "midi": 67,
          "name": "G4",
          "ticks": 5883,
          "time": 68.40697674418605,
          "velocity": 0.5433070866141733
        },
        {
          "duration": 0.034883720930224626,
          "durationTicks": 3,
          "midi": 74,
          "name": "D5",
          "ticks": 5883,
          "time": 68.40697674418605,
          "velocity": 0.2283464566929134
        },
        {
          "duration": 0.023255813953483084,
          "durationTicks": 2,
          "midi": 41,
          "name": "F2",
          "ticks": 5884,
          "time": 68.4186046511628,
          "velocity": 0.5590551181102362
        },
        {
          "duration": 0.2093023255813904,
          "durationTicks": 18,
          "midi": 71,
          "name": "B4",
          "ticks": 5884,
          "time": 68.4186046511628,
          "velocity": 0.4251968503937008
        },
        {
          "duration": 0.011627906976741542,
          "durationTicks": 1,
          "midi": 44,
          "name": "G#2",
          "ticks": 5885,
          "time": 68.43023255813954,
          "velocity": 0.5118110236220472
        },
        {
          "duration": 0.011627906976741542,
          "durationTicks": 1,
          "midi": 53,
          "name": "F3",
          "ticks": 5885,
          "time": 68.43023255813954,
          "velocity": 0.6929133858267716
        },
        {
          "duration": 0.1046511627907023,
          "durationTicks": 9,
          "midi": 59,
          "name": "B3",
          "ticks": 5885,
          "time": 68.43023255813954,
          "velocity": 0.5669291338582677
        },
        {
          "duration": 0.09302325581394655,
          "durationTicks": 8,
          "midi": 76,
          "name": "E5",
          "ticks": 5885,
          "time": 68.43023255813954,
          "velocity": 0.1889763779527559
        },
        {
          "duration": 0.11627906976744384,
          "durationTicks": 10,
          "midi": 85,
          "name": "C#6",
          "ticks": 5885,
          "time": 68.43023255813954,
          "velocity": 0.16535433070866143
        },
        {
          "duration": 0.011627906976741542,
          "durationTicks": 1,
          "midi": 30,
          "name": "F#1",
          "ticks": 5886,
          "time": 68.44186046511628,
          "velocity": 0.5748031496062992
        },
        {
          "duration": 0.04651162790698038,
          "durationTicks": 4,
          "midi": 52,
          "name": "E3",
          "ticks": 5886,
          "time": 68.44186046511628,
          "velocity": 0.6299212598425197
        },
        {
          "duration": 0.04651162790698038,
          "durationTicks": 4,
          "midi": 41,
          "name": "F2",
          "ticks": 5887,
          "time": 68.45348837209302,
          "velocity": 0.6692913385826772
        },
        {
          "duration": 0.05813953488372192,
          "durationTicks": 5,
          "midi": 66,
          "name": "F#4",
          "ticks": 5890,
          "time": 68.48837209302326,
          "velocity": 0.36220472440944884
        },
        {
          "duration": 0.023255813953483084,
          "durationTicks": 2,
          "midi": 52,
          "name": "E3",
          "ticks": 5891,
          "time": 68.5,
          "velocity": 0.4881889763779528
        },
        {
          "duration": 0.04651162790698038,
          "durationTicks": 4,
          "midi": 73,
          "name": "C#5",
          "ticks": 5891,
          "time": 68.5,
          "velocity": 0.31496062992125984
        },
        {
          "duration": 0.15116279069766847,
          "durationTicks": 13,
          "midi": 80,
          "name": "G#5",
          "ticks": 5891,
          "time": 68.5,
          "velocity": 0.3700787401574803
        },
        {
          "duration": 0.023255813953497295,
          "durationTicks": 2,
          "midi": 40,
          "name": "E2",
          "ticks": 5892,
          "time": 68.51162790697674,
          "velocity": 0.4330708661417323
        },
        {
          "duration": 0.1046511627907023,
          "durationTicks": 9,
          "midi": 49,
          "name": "C#3",
          "ticks": 5893,
          "time": 68.52325581395348,
          "velocity": 0.5275590551181102
        },
        {
          "duration": 0.011627906976741542,
          "durationTicks": 1,
          "midi": 60,
          "name": "C4",
          "ticks": 5894,
          "time": 68.53488372093024,
          "velocity": 0.5118110236220472
        },
        {
          "duration": 0.09302325581394655,
          "durationTicks": 8,
          "midi": 68,
          "name": "G#4",
          "ticks": 5894,
          "time": 68.53488372093024,
          "velocity": 0.4094488188976378
        },
        {
          "duration": 0.034883720930224626,
          "durationTicks": 3,
          "midi": 77,
          "name": "F5",
          "ticks": 5894,
          "time": 68.53488372093024,
          "velocity": 0.30708661417322836
        },
        {
          "duration": 0.023255813953497295,
          "durationTicks": 2,
          "midi": 40,
          "name": "E2",
          "ticks": 5899,
          "time": 68.59302325581395,
          "velocity": 0.23622047244094488
        },
        {
          "duration": 0.12790697674418539,
          "durationTicks": 11,
          "midi": 67,
          "name": "G4",
          "ticks": 5901,
          "time": 68.61627906976744,
          "velocity": 0.6062992125984252
        },
        {
          "duration": 0.12790697674418539,
          "durationTicks": 11,
          "midi": 78,
          "name": "F#5",
          "ticks": 5901,
          "time": 68.61627906976744,
          "velocity": 0.4015748031496063
        },
        {
          "duration": 0.1046511627907023,
          "durationTicks": 9,
          "midi": 47,
          "name": "B2",
          "ticks": 5902,
          "time": 68.62790697674419,
          "velocity": 0.4645669291338583
        },
        {
          "duration": 0.011627906976741542,
          "durationTicks": 1,
          "midi": 60,
          "name": "C4",
          "ticks": 5902,
          "time": 68.62790697674419,
          "velocity": 0.5354330708661418
        },
        {
          "duration": 0.08139534883721922,
          "durationTicks": 7,
          "midi": 59,
          "name": "B3",
          "ticks": 5903,
          "time": 68.63953488372093,
          "velocity": 0.5433070866141733
        },
        {
          "duration": 0.1046511627907023,
          "durationTicks": 9,
          "midi": 74,
          "name": "D5",
          "ticks": 5903,
          "time": 68.63953488372093,
          "velocity": 0.30708661417322836
        },
        {
          "duration": 0.12790697674418539,
          "durationTicks": 11,
          "midi": 93,
          "name": "A6",
          "ticks": 5903,
          "time": 68.63953488372093,
          "velocity": 0.14173228346456693
        },
        {
          "duration": 0.03488372093023884,
          "durationTicks": 3,
          "midi": 62,
          "name": "D4",
          "ticks": 5909,
          "time": 68.70930232558139,
          "velocity": 0.3779527559055118
        },
        {
          "duration": 0.081395348837205,
          "durationTicks": 7,
          "midi": 80,
          "name": "G#5",
          "ticks": 5911,
          "time": 68.73255813953489,
          "velocity": 0.14173228346456693
        },
        {
          "duration": 0.081395348837205,
          "durationTicks": 7,
          "midi": 82,
          "name": "A#5",
          "ticks": 5911,
          "time": 68.73255813953489,
          "velocity": 0.16535433070866143
        },
        {
          "duration": 0.011627906976741542,
          "durationTicks": 1,
          "midi": 64,
          "name": "E4",
          "ticks": 5912,
          "time": 68.74418604651163,
          "velocity": 0.5511811023622047
        },
        {
          "duration": 0.12790697674418539,
          "durationTicks": 11,
          "midi": 68,
          "name": "G#4",
          "ticks": 5912,
          "time": 68.74418604651163,
          "velocity": 0.5511811023622047
        },
        {
          "duration": 0.16279069767442422,
          "durationTicks": 14,
          "midi": 75,
          "name": "D#5",
          "ticks": 5912,
          "time": 68.74418604651163,
          "velocity": 0.3937007874015748
        },
        {
          "duration": 0.03488372093023884,
          "durationTicks": 3,
          "midi": 56,
          "name": "G#3",
          "ticks": 5913,
          "time": 68.75581395348837,
          "velocity": 0.5748031496062992
        },
        {
          "duration": 0.09302325581396076,
          "durationTicks": 8,
          "midi": 63,
          "name": "D#4",
          "ticks": 5913,
          "time": 68.75581395348837,
          "velocity": 0.5905511811023622
        },
        {
          "duration": 0.2325581395348877,
          "durationTicks": 20,
          "midi": 78,
          "name": "F#5",
          "ticks": 5913,
          "time": 68.75581395348837,
          "velocity": 0.33858267716535434
        },
        {
          "duration": 0.08139534883721922,
          "durationTicks": 7,
          "midi": 44,
          "name": "G#2",
          "ticks": 5914,
          "time": 68.76744186046511,
          "velocity": 0.4566929133858268
        },
        {
          "duration": 0.011627906976741542,
          "durationTicks": 1,
          "midi": 55,
          "name": "G3",
          "ticks": 5916,
          "time": 68.79069767441861,
          "velocity": 0.5669291338582677
        },
        {
          "duration": 0.12790697674418539,
          "durationTicks": 11,
          "midi": 85,
          "name": "C#6",
          "ticks": 5916,
          "time": 68.79069767441861,
          "velocity": 0.25196850393700787
        },
        {
          "duration": 0.04651162790698038,
          "durationTicks": 4,
          "midi": 59,
          "name": "B3",
          "ticks": 5918,
          "time": 68.81395348837209,
          "velocity": 0.5039370078740157
        },
        {
          "duration": 0.03488372093023884,
          "durationTicks": 3,
          "midi": 55,
          "name": "G3",
          "ticks": 5919,
          "time": 68.82558139534883,
          "velocity": 0.4881889763779528
        },
        {
          "duration": 0.023255813953497295,
          "durationTicks": 2,
          "midi": 66,
          "name": "F#4",
          "ticks": 5920,
          "time": 68.83720930232558,
          "velocity": 0.3858267716535433
        },
        {
          "duration": 0.034883720930224626,
          "durationTicks": 3,
          "midi": 82,
          "name": "A#5",
          "ticks": 5921,
          "time": 68.84883720930233,
          "velocity": 0.2125984251968504
        },
        {
          "duration": 0.034883720930224626,
          "durationTicks": 3,
          "midi": 86,
          "name": "D6",
          "ticks": 5921,
          "time": 68.84883720930233,
          "velocity": 0.2283464566929134
        },
        {
          "duration": 0.023255813953483084,
          "durationTicks": 2,
          "midi": 88,
          "name": "E6",
          "ticks": 5921,
          "time": 68.84883720930233,
          "velocity": 0.2283464566929134
        },
        {
          "duration": 0.011627906976741542,
          "durationTicks": 1,
          "midi": 36,
          "name": "C2",
          "ticks": 5922,
          "time": 68.86046511627907,
          "velocity": 0.5826771653543307
        },
        {
          "duration": 0.011627906976741542,
          "durationTicks": 1,
          "midi": 54,
          "name": "F#3",
          "ticks": 5922,
          "time": 68.86046511627907,
          "velocity": 0.5275590551181102
        },
        {
          "duration": 0.011627906976741542,
          "durationTicks": 1,
          "midi": 60,
          "name": "C4",
          "ticks": 5922,
          "time": 68.86046511627907,
          "velocity": 0.5118110236220472
        },
        {
          "duration": 0.011627906976741542,
          "durationTicks": 1,
          "midi": 62,
          "name": "D4",
          "ticks": 5922,
          "time": 68.86046511627907,
          "velocity": 0.5196850393700787
        },
        {
          "duration": 0.011627906976741542,
          "durationTicks": 1,
          "midi": 40,
          "name": "E2",
          "ticks": 5923,
          "time": 68.87209302325581,
          "velocity": 0.6062992125984252
        },
        {
          "duration": 0.023255813953483084,
          "durationTicks": 2,
          "midi": 55,
          "name": "G3",
          "ticks": 5923,
          "time": 68.87209302325581,
          "velocity": 0.5511811023622047
        },
        {
          "duration": 0.13953488372092693,
          "durationTicks": 12,
          "midi": 63,
          "name": "D#4",
          "ticks": 5923,
          "time": 68.87209302325581,
          "velocity": 0.5511811023622047
        },
        {
          "duration": 0.05813953488372192,
          "durationTicks": 5,
          "midi": 67,
          "name": "G4",
          "ticks": 5923,
          "time": 68.87209302325581,
          "velocity": 0.5826771653543307
        },
        {
          "duration": 0.081395348837205,
          "durationTicks": 7,
          "midi": 71,
          "name": "B4",
          "ticks": 5923,
          "time": 68.87209302325581,
          "velocity": 0.31496062992125984
        },
        {
          "duration": 0.03488372093023884,
          "durationTicks": 3,
          "midi": 73,
          "name": "C#5",
          "ticks": 5924,
          "time": 68.88372093023256,
          "velocity": 0.14173228346456693
        },
        {
          "duration": 0.011627906976755753,
          "durationTicks": 1,
          "midi": 53,
          "name": "F3",
          "ticks": 5925,
          "time": 68.8953488372093,
          "velocity": 0.5275590551181102
        },
        {
          "duration": 0.05813953488370771,
          "durationTicks": 5,
          "midi": 41,
          "name": "F2",
          "ticks": 5926,
          "time": 68.90697674418605,
          "velocity": 0.6771653543307087
        },
        {
          "duration": 0.023255813953483084,
          "durationTicks": 2,
          "midi": 52,
          "name": "E3",
          "ticks": 5926,
          "time": 68.90697674418605,
          "velocity": 0.5275590551181102
        },
        {
          "duration": 0.04651162790698038,
          "durationTicks": 4,
          "midi": 55,
          "name": "G3",
          "ticks": 5928,
          "time": 68.93023255813954,
          "velocity": 0.4330708661417323
        },
        {
          "duration": 0.09302325581394655,
          "durationTicks": 8,
          "midi": 66,
          "name": "F#4",
          "ticks": 5928,
          "time": 68.93023255813954,
          "velocity": 0.33070866141732286
        },
        {
          "duration": 0.023255813953497295,
          "durationTicks": 2,
          "midi": 39,
          "name": "D#2",
          "ticks": 5931,
          "time": 68.96511627906976,
          "velocity": 0.3779527559055118
        },
        {
          "duration": 0.023255813953483084,
          "durationTicks": 2,
          "midi": 41,
          "name": "F2",
          "ticks": 5934,
          "time": 69,
          "velocity": 0.30708661417322836
        },
        {
          "duration": 0.05813953488372192,
          "durationTicks": 5,
          "midi": 40,
          "name": "E2",
          "ticks": 5936,
          "time": 69.02325581395348,
          "velocity": 0.2440944881889764
        },
        {
          "duration": 0.15116279069768268,
          "durationTicks": 13,
          "midi": 63,
          "name": "D#4",
          "ticks": 5941,
          "time": 69.0813953488372,
          "velocity": 0.5826771653543307
        },
        {
          "duration": 0.03488372093023884,
          "durationTicks": 3,
          "midi": 77,
          "name": "F5",
          "ticks": 5941,
          "time": 69.0813953488372,
          "velocity": 0.2677165354330709
        },
        {
          "duration": 0.09302325581396076,
          "durationTicks": 8,
          "midi": 80,
          "name": "G#5",
          "ticks": 5941,
          "time": 69.0813953488372,
          "velocity": 0.28346456692913385
        },
        {
          "duration": 0.04651162790698038,
          "durationTicks": 4,
          "midi": 83,
          "name": "B5",
          "ticks": 5941,
          "time": 69.0813953488372,
          "velocity": 0.2440944881889764
        },
        {
          "duration": 0.05813953488372192,
          "durationTicks": 5,
          "midi": 84,
          "name": "C6",
          "ticks": 5941,
          "time": 69.0813953488372,
          "velocity": 0.25984251968503935
        },
        {
          "duration": 0.023255813953497295,
          "durationTicks": 2,
          "midi": 87,
          "name": "D#6",
          "ticks": 5941,
          "time": 69.0813953488372,
          "velocity": 0.23622047244094488
        },
        {
          "duration": 0.023255813953497295,
          "durationTicks": 2,
          "midi": 29,
          "name": "F1",
          "ticks": 5942,
          "time": 69.09302325581395,
          "velocity": 0.4251968503937008
        },
        {
          "duration": 0.023255813953497295,
          "durationTicks": 2,
          "midi": 48,
          "name": "C3",
          "ticks": 5942,
          "time": 69.09302325581395,
          "velocity": 0.5826771653543307
        },
        {
          "duration": 0.1279069767441996,
          "durationTicks": 11,
          "midi": 67,
          "name": "G4",
          "ticks": 5942,
          "time": 69.09302325581395,
          "velocity": 0.5826771653543307
        },
        {
          "duration": 0.15116279069768268,
          "durationTicks": 13,
          "midi": 78,
          "name": "F#5",
          "ticks": 5942,
          "time": 69.09302325581395,
          "velocity": 0.31496062992125984
        },
        {
          "duration": 0.011627906976741542,
          "durationTicks": 1,
          "midi": 50,
          "name": "D3",
          "ticks": 5944,
          "time": 69.11627906976744,
          "velocity": 0.6220472440944882
        },
        {
          "duration": 0.04651162790698038,
          "durationTicks": 4,
          "midi": 49,
          "name": "C#3",
          "ticks": 5945,
          "time": 69.12790697674419,
          "velocity": 0.6141732283464567
        },
        {
          "duration": 0.011627906976741542,
          "durationTicks": 1,
          "midi": 53,
          "name": "F3",
          "ticks": 5945,
          "time": 69.12790697674419,
          "velocity": 0.5511811023622047
        },
        {
          "duration": 0.1046511627907023,
          "durationTicks": 9,
          "midi": 85,
          "name": "C#6",
          "ticks": 5945,
          "time": 69.12790697674419,
          "velocity": 0.2204724409448819
        },
        {
          "duration": 0.11627906976744384,
          "durationTicks": 10,
          "midi": 73,
          "name": "C#5",
          "ticks": 5946,
          "time": 69.13953488372093,
          "velocity": 0.18110236220472442
        },
        {
          "duration": 0.023255813953497295,
          "durationTicks": 2,
          "midi": 54,
          "name": "F#3",
          "ticks": 5947,
          "time": 69.15116279069767,
          "velocity": 0.5039370078740157
        },
        {
          "duration": 0.12790697674418539,
          "durationTicks": 11,
          "midi": 71,
          "name": "B4",
          "ticks": 5947,
          "time": 69.15116279069767,
          "velocity": 0.1732283464566929
        },
        {
          "duration": 0.023255813953483084,
          "durationTicks": 2,
          "midi": 55,
          "name": "G3",
          "ticks": 5949,
          "time": 69.17441860465117,
          "velocity": 0.36220472440944884
        },
        {
          "duration": 0.081395348837205,
          "durationTicks": 7,
          "midi": 54,
          "name": "F#3",
          "ticks": 5951,
          "time": 69.19767441860465,
          "velocity": 0.3937007874015748
        },
        {
          "duration": 0.04651162790698038,
          "durationTicks": 4,
          "midi": 59,
          "name": "B3",
          "ticks": 5951,
          "time": 69.19767441860465,
          "velocity": 0.31496062992125984
        },
        {
          "duration": 0.034883720930224626,
          "durationTicks": 3,
          "midi": 65,
          "name": "F4",
          "ticks": 5953,
          "time": 69.22093023255815,
          "velocity": 0.1968503937007874
        },
        {
          "duration": 0.05813953488372192,
          "durationTicks": 5,
          "midi": 59,
          "name": "B3",
          "ticks": 5956,
          "time": 69.25581395348837,
          "velocity": 0.2440944881889764
        },
        {
          "duration": 0.023255813953483084,
          "durationTicks": 2,
          "midi": 68,
          "name": "G#4",
          "ticks": 5960,
          "time": 69.30232558139535,
          "velocity": 0.48031496062992124
        },
        {
          "duration": 0.023255813953483084,
          "durationTicks": 2,
          "midi": 73,
          "name": "C#5",
          "ticks": 5961,
          "time": 69.31395348837209,
          "velocity": 0.2992125984251969
        },
        {
          "duration": 0.023255813953483084,
          "durationTicks": 2,
          "midi": 76,
          "name": "E5",
          "ticks": 5961,
          "time": 69.31395348837209,
          "velocity": 0.25196850393700787
        },
        {
          "duration": 0.023255813953483084,
          "durationTicks": 2,
          "midi": 78,
          "name": "F#5",
          "ticks": 5961,
          "time": 69.31395348837209,
          "velocity": 0.25196850393700787
        },
        {
          "duration": 0.023255813953483084,
          "durationTicks": 2,
          "midi": 82,
          "name": "A#5",
          "ticks": 5961,
          "time": 69.31395348837209,
          "velocity": 0.25984251968503935
        },
        {
          "duration": 0.023255813953483084,
          "durationTicks": 2,
          "midi": 83,
          "name": "B5",
          "ticks": 5961,
          "time": 69.31395348837209,
          "velocity": 0.25196850393700787
        },
        {
          "duration": 0.023255813953483084,
          "durationTicks": 2,
          "midi": 86,
          "name": "D6",
          "ticks": 5961,
          "time": 69.31395348837209,
          "velocity": 0.25196850393700787
        },
        {
          "duration": 0.011627906976741542,
          "durationTicks": 1,
          "midi": 36,
          "name": "C2",
          "ticks": 5962,
          "time": 69.32558139534883,
          "velocity": 0.5905511811023622
        },
        {
          "duration": 0.023255813953497295,
          "durationTicks": 2,
          "midi": 56,
          "name": "G#3",
          "ticks": 5962,
          "time": 69.32558139534883,
          "velocity": 0.48031496062992124
        },
        {
          "duration": 0.13953488372092693,
          "durationTicks": 12,
          "midi": 63,
          "name": "D#4",
          "ticks": 5962,
          "time": 69.32558139534883,
          "velocity": 0.5590551181102362
        },
        {
          "duration": 0.13953488372092693,
          "durationTicks": 12,
          "midi": 67,
          "name": "G4",
          "ticks": 5962,
          "time": 69.32558139534883,
          "velocity": 0.5748031496062992
        },
        {
          "duration": 0.011627906976755753,
          "durationTicks": 1,
          "midi": 41,
          "name": "F2",
          "ticks": 5963,
          "time": 69.33720930232558,
          "velocity": 0.6062992125984252
        },
        {
          "duration": 0.08139534883721922,
          "durationTicks": 7,
          "midi": 71,
          "name": "B4",
          "ticks": 5963,
          "time": 69.33720930232558,
          "velocity": 0.1889763779527559
        },
        {
          "duration": 0.05813953488372192,
          "durationTicks": 5,
          "midi": 74,
          "name": "D5",
          "ticks": 5963,
          "time": 69.33720930232558,
          "velocity": 0.14960629921259844
        },
        {
          "duration": 0.011627906976741542,
          "durationTicks": 1,
          "midi": 52,
          "name": "E3",
          "ticks": 5964,
          "time": 69.34883720930233,
          "velocity": 0.5748031496062992
        },
        {
          "duration": 0.011627906976741542,
          "durationTicks": 1,
          "midi": 45,
          "name": "A2",
          "ticks": 5965,
          "time": 69.36046511627907,
          "velocity": 0.5196850393700787
        },
        {
          "duration": 0.023255813953483084,
          "durationTicks": 2,
          "midi": 41,
          "name": "F2",
          "ticks": 5966,
          "time": 69.37209302325581,
          "velocity": 0.6692913385826772
        },
        {
          "duration": 0.011627906976755753,
          "durationTicks": 1,
          "midi": 42,
          "name": "F#2",
          "ticks": 5968,
          "time": 69.3953488372093,
          "velocity": 0.6299212598425197
        },
        {
          "duration": 0.011627906976741542,
          "durationTicks": 1,
          "midi": 41,
          "name": "F2",
          "ticks": 5969,
          "time": 69.40697674418605,
          "velocity": 0.5590551181102362
        },
        {
          "duration": 0.04651162790696617,
          "durationTicks": 4,
          "midi": 55,
          "name": "G3",
          "ticks": 5970,
          "time": 69.4186046511628,
          "velocity": 0.28346456692913385
        },
        {
          "duration": 0.023255813953483084,
          "durationTicks": 2,
          "midi": 39,
          "name": "D#2",
          "ticks": 5971,
          "time": 69.43023255813954,
          "velocity": 0.36220472440944884
        },
        {
          "duration": 0.06976744186046346,
          "durationTicks": 6,
          "midi": 40,
          "name": "E2",
          "ticks": 5975,
          "time": 69.47674418604652,
          "velocity": 0.29133858267716534
        },
        {
          "duration": 0.034883720930224626,
          "durationTicks": 3,
          "midi": 81,
          "name": "A5",
          "ticks": 5980,
          "time": 69.53488372093024,
          "velocity": 0.25196850393700787
        },
        {
          "duration": 0.04651162790696617,
          "durationTicks": 4,
          "midi": 84,
          "name": "C6",
          "ticks": 5980,
          "time": 69.53488372093024,
          "velocity": 0.2283464566929134
        },
        {
          "duration": 0.034883720930224626,
          "durationTicks": 3,
          "midi": 48,
          "name": "C3",
          "ticks": 5981,
          "time": 69.54651162790698,
          "velocity": 0.5669291338582677
        },
        {
          "duration": 0.023255813953483084,
          "durationTicks": 2,
          "midi": 67,
          "name": "G4",
          "ticks": 5981,
          "time": 69.54651162790698,
          "velocity": 0.5590551181102362
        },
        {
          "duration": 0.034883720930224626,
          "durationTicks": 3,
          "midi": 29,
          "name": "F1",
          "ticks": 5982,
          "time": 69.55813953488372,
          "velocity": 0.4409448818897638
        },
        {
          "duration": 0.034883720930224626,
          "durationTicks": 3,
          "midi": 65,
          "name": "F4",
          "ticks": 5982,
          "time": 69.55813953488372,
          "velocity": 0.5984251968503937
        },
        {
          "duration": 0.13953488372092693,
          "durationTicks": 12,
          "midi": 73,
          "name": "C#5",
          "ticks": 5982,
          "time": 69.55813953488372,
          "velocity": 0.3228346456692913
        },
        {
          "duration": 0.16279069767442422,
          "durationTicks": 14,
          "midi": 78,
          "name": "F#5",
          "ticks": 5982,
          "time": 69.55813953488372,
          "velocity": 0.3700787401574803
        },
        {
          "duration": 0.06976744186046346,
          "durationTicks": 6,
          "midi": 80,
          "name": "G#5",
          "ticks": 5982,
          "time": 69.55813953488372,
          "velocity": 0.25196850393700787
        },
        {
          "duration": 0.03488372093023884,
          "durationTicks": 3,
          "midi": 61,
          "name": "C#4",
          "ticks": 5983,
          "time": 69.56976744186046,
          "velocity": 0.3937007874015748
        },
        {
          "duration": 0.023255813953497295,
          "durationTicks": 2,
          "midi": 50,
          "name": "D3",
          "ticks": 5984,
          "time": 69.5813953488372,
          "velocity": 0.6299212598425197
        },
        {
          "duration": 0.03488372093023884,
          "durationTicks": 3,
          "midi": 67,
          "name": "G4",
          "ticks": 5984,
          "time": 69.5813953488372,
          "velocity": 0.5118110236220472
        },
        {
          "duration": 0.09302325581396076,
          "durationTicks": 8,
          "midi": 71,
          "name": "B4",
          "ticks": 5984,
          "time": 69.5813953488372,
          "velocity": 0.3543307086614173
        },
        {
          "duration": 0.011627906976741542,
          "durationTicks": 1,
          "midi": 49,
          "name": "C#3",
          "ticks": 5986,
          "time": 69.6046511627907,
          "velocity": 0.5196850393700787
        },
        {
          "duration": 0.023255813953483084,
          "durationTicks": 2,
          "midi": 60,
          "name": "C4",
          "ticks": 5986,
          "time": 69.6046511627907,
          "velocity": 0.36220472440944884
        },
        {
          "duration": 0.05813953488372192,
          "durationTicks": 5,
          "midi": 65,
          "name": "F4",
          "ticks": 5986,
          "time": 69.6046511627907,
          "velocity": 0.4094488188976378
        },
        {
          "duration": 0.023255813953497295,
          "durationTicks": 2,
          "midi": 49,
          "name": "C#3",
          "ticks": 5989,
          "time": 69.63953488372093,
          "velocity": 0.3228346456692913
        },
        {
          "duration": 0.03488372093023884,
          "durationTicks": 3,
          "midi": 80,
          "name": "G#5",
          "ticks": 5990,
          "time": 69.65116279069767,
          "velocity": 0.1968503937007874
        },
        {
          "duration": 0.023255813953483084,
          "durationTicks": 2,
          "midi": 54,
          "name": "F#3",
          "ticks": 5991,
          "time": 69.66279069767442,
          "velocity": 0.29133858267716534
        },
        {
          "duration": 0.24418604651162923,
          "durationTicks": 21,
          "midi": 63,
          "name": "D#4",
          "ticks": 5991,
          "time": 69.66279069767442,
          "velocity": 0.6220472440944882
        },
        {
          "duration": 0.03488372093023884,
          "durationTicks": 3,
          "midi": 55,
          "name": "G3",
          "ticks": 5993,
          "time": 69.68604651162791,
          "velocity": 0.31496062992125984
        },
        {
          "duration": 0.03488372093023884,
          "durationTicks": 3,
          "midi": 59,
          "name": "B3",
          "ticks": 5993,
          "time": 69.68604651162791,
          "velocity": 0.31496062992125984
        },
        {
          "duration": 0.023255813953497295,
          "durationTicks": 2,
          "midi": 68,
          "name": "G#4",
          "ticks": 6000,
          "time": 69.76744186046511,
          "velocity": 0.49606299212598426
        },
        {
          "duration": 0.03488372093023884,
          "durationTicks": 3,
          "midi": 73,
          "name": "C#5",
          "ticks": 6000,
          "time": 69.76744186046511,
          "velocity": 0.29133858267716534
        },
        {
          "duration": 0.04651162790698038,
          "durationTicks": 4,
          "midi": 78,
          "name": "F#5",
          "ticks": 6000,
          "time": 69.76744186046511,
          "velocity": 0.25196850393700787
        },
        {
          "duration": 0.011627906976755753,
          "durationTicks": 1,
          "midi": 35,
          "name": "B1",
          "ticks": 6001,
          "time": 69.77906976744185,
          "velocity": 0.5354330708661418
        },
        {
          "duration": 0.011627906976741542,
          "durationTicks": 1,
          "midi": 36,
          "name": "C2",
          "ticks": 6002,
          "time": 69.79069767441861,
          "velocity": 0.6141732283464567
        },
        {
          "duration": 0.023255813953483084,
          "durationTicks": 2,
          "midi": 56,
          "name": "G#3",
          "ticks": 6002,
          "time": 69.79069767441861,
          "velocity": 0.5039370078740157
        },
        {
          "duration": 0.10465116279068809,
          "durationTicks": 9,
          "midi": 67,
          "name": "G4",
          "ticks": 6002,
          "time": 69.79069767441861,
          "velocity": 0.5669291338582677
        },
        {
          "duration": 0.023255813953483084,
          "durationTicks": 2,
          "midi": 70,
          "name": "A#4",
          "ticks": 6002,
          "time": 69.79069767441861,
          "velocity": 0.30708661417322836
        },
        {
          "duration": 0.011627906976741542,
          "durationTicks": 1,
          "midi": 41,
          "name": "F2",
          "ticks": 6003,
          "time": 69.80232558139535,
          "velocity": 0.5826771653543307
        },
        {
          "duration": 0.023255813953483084,
          "durationTicks": 2,
          "midi": 44,
          "name": "G#2",
          "ticks": 6004,
          "time": 69.81395348837209,
          "velocity": 0.5354330708661418
        },
        {
          "duration": 0.011627906976741542,
          "durationTicks": 1,
          "midi": 55,
          "name": "G3",
          "ticks": 6004,
          "time": 69.81395348837209,
          "velocity": 0.5354330708661418
        },
        {
          "duration": 0.05813953488372192,
          "durationTicks": 5,
          "midi": 71,
          "name": "B4",
          "ticks": 6004,
          "time": 69.81395348837209,
          "velocity": 0.2047244094488189
        },
        {
          "duration": 0.05813953488372192,
          "durationTicks": 5,
          "midi": 82,
          "name": "A#5",
          "ticks": 6004,
          "time": 69.81395348837209,
          "velocity": 0.15748031496062992
        },
        {
          "duration": 0.023255813953497295,
          "durationTicks": 2,
          "midi": 51,
          "name": "D#3",
          "ticks": 6005,
          "time": 69.82558139534883,
          "velocity": 0.5275590551181102
        },
        {
          "duration": 0.04651162790698038,
          "durationTicks": 4,
          "midi": 41,
          "name": "F2",
          "ticks": 6006,
          "time": 69.83720930232558,
          "velocity": 0.6692913385826772
        },
        {
          "duration": 0.011627906976741542,
          "durationTicks": 1,
          "midi": 52,
          "name": "E3",
          "ticks": 6007,
          "time": 69.84883720930233,
          "velocity": 0.5354330708661418
        },
        {
          "duration": 0.03488372093023884,
          "durationTicks": 3,
          "midi": 56,
          "name": "G#3",
          "ticks": 6009,
          "time": 69.87209302325581,
          "velocity": 0.3937007874015748
        },
        {
          "duration": 0.023255813953483084,
          "durationTicks": 2,
          "midi": 40,
          "name": "E2",
          "ticks": 6012,
          "time": 69.90697674418605,
          "velocity": 0.3464566929133858
        },
        {
          "duration": 0.034883720930224626,
          "durationTicks": 3,
          "midi": 56,
          "name": "G#3",
          "ticks": 6013,
          "time": 69.9186046511628,
          "velocity": 0.30708661417322836
        },
        {
          "duration": 0.081395348837205,
          "durationTicks": 7,
          "midi": 40,
          "name": "E2",
          "ticks": 6015,
          "time": 69.94186046511628,
          "velocity": 0.23622047244094488
        },
        {
          "duration": 0.03488372093023884,
          "durationTicks": 3,
          "midi": 75,
          "name": "D#5",
          "ticks": 6020,
          "time": 70,
          "velocity": 0.25984251968503935
        },
        {
          "duration": 0.03488372093023884,
          "durationTicks": 3,
          "midi": 79,
          "name": "G5",
          "ticks": 6020,
          "time": 70,
          "velocity": 0.23622047244094488
        },
        {
          "duration": 0.03488372093023884,
          "durationTicks": 3,
          "midi": 81,
          "name": "A5",
          "ticks": 6020,
          "time": 70,
          "velocity": 0.25984251968503935
        },
        {
          "duration": 0.09302325581396076,
          "durationTicks": 8,
          "midi": 63,
          "name": "D#4",
          "ticks": 6021,
          "time": 70.01162790697674,
          "velocity": 0.5984251968503937
        },
        {
          "duration": 0.011627906976741542,
          "durationTicks": 1,
          "midi": 68,
          "name": "G#4",
          "ticks": 6021,
          "time": 70.01162790697674,
          "velocity": 0.5118110236220472
        },
        {
          "duration": 0.023255813953497295,
          "durationTicks": 2,
          "midi": 72,
          "name": "C5",
          "ticks": 6021,
          "time": 70.01162790697674,
          "velocity": 0.3228346456692913
        },
        {
          "duration": 0.1860465116279073,
          "durationTicks": 16,
          "midi": 85,
          "name": "C#6",
          "ticks": 6021,
          "time": 70.01162790697674,
          "velocity": 0.2677165354330709
        },
        {
          "duration": 0.03488372093023884,
          "durationTicks": 3,
          "midi": 36,
          "name": "C2",
          "ticks": 6022,
          "time": 70.02325581395348,
          "velocity": 0.2992125984251969
        },
        {
          "duration": 0.08139534883721922,
          "durationTicks": 7,
          "midi": 67,
          "name": "G4",
          "ticks": 6022,
          "time": 70.02325581395348,
          "velocity": 0.5354330708661418
        },
        {
          "duration": 0.27906976744186807,
          "durationTicks": 24,
          "midi": 80,
          "name": "G#5",
          "ticks": 6022,
          "time": 70.02325581395348,
          "velocity": 0.28346456692913385
        },
        {
          "duration": 0.2093023255813904,
          "durationTicks": 18,
          "midi": 73,
          "name": "C#5",
          "ticks": 6023,
          "time": 70.03488372093024,
          "velocity": 0.3937007874015748
        },
        {
          "duration": 0.03488372093023884,
          "durationTicks": 3,
          "midi": 41,
          "name": "F2",
          "ticks": 6026,
          "time": 70.06976744186046,
          "velocity": 0.1889763779527559
        },
        {
          "duration": 0.15116279069768268,
          "durationTicks": 13,
          "midi": 61,
          "name": "C#4",
          "ticks": 6028,
          "time": 70.09302325581395,
          "velocity": 0.4094488188976378
        },
        {
          "duration": 0.023255813953483084,
          "durationTicks": 2,
          "midi": 66,
          "name": "F#4",
          "ticks": 6029,
          "time": 70.1046511627907,
          "velocity": 0.2677165354330709
        },
        {
          "duration": 0.034883720930224626,
          "durationTicks": 3,
          "midi": 54,
          "name": "F#3",
          "ticks": 6030,
          "time": 70.11627906976744,
          "velocity": 0.16535433070866143
        },
        {
          "duration": 0.05813953488372192,
          "durationTicks": 5,
          "midi": 66,
          "name": "F#4",
          "ticks": 6032,
          "time": 70.13953488372093,
          "velocity": 0.2440944881889764
        },
        {
          "duration": 0.04651162790698038,
          "durationTicks": 4,
          "midi": 55,
          "name": "G3",
          "ticks": 6033,
          "time": 70.15116279069767,
          "velocity": 0.23622047244094488
        },
        {
          "duration": 0.023255813953483084,
          "durationTicks": 2,
          "midi": 74,
          "name": "D5",
          "ticks": 6040,
          "time": 70.23255813953489,
          "velocity": 0.23622047244094488
        },
        {
          "duration": 0.04651162790696617,
          "durationTicks": 4,
          "midi": 78,
          "name": "F#5",
          "ticks": 6040,
          "time": 70.23255813953489,
          "velocity": 0.25196850393700787
        },
        {
          "duration": 0.034883720930224626,
          "durationTicks": 3,
          "midi": 88,
          "name": "E6",
          "ticks": 6040,
          "time": 70.23255813953489,
          "velocity": 0.2125984251968504
        },
        {
          "duration": 0.034883720930224626,
          "durationTicks": 3,
          "midi": 89,
          "name": "F6",
          "ticks": 6040,
          "time": 70.23255813953489,
          "velocity": 0.1968503937007874
        },
        {
          "duration": 0.011627906976741542,
          "durationTicks": 1,
          "midi": 35,
          "name": "B1",
          "ticks": 6041,
          "time": 70.24418604651163,
          "velocity": 0.5433070866141733
        },
        {
          "duration": 0.011627906976741542,
          "durationTicks": 1,
          "midi": 53,
          "name": "F3",
          "ticks": 6041,
          "time": 70.24418604651163,
          "velocity": 0.5433070866141733
        },
        {
          "duration": 0.023255813953483084,
          "durationTicks": 2,
          "midi": 63,
          "name": "D#4",
          "ticks": 6041,
          "time": 70.24418604651163,
          "velocity": 0.6456692913385826
        },
        {
          "duration": 0.05813953488372192,
          "durationTicks": 5,
          "midi": 72,
          "name": "C5",
          "ticks": 6041,
          "time": 70.24418604651163,
          "velocity": 0.30708661417322836
        },
        {
          "duration": 0.081395348837205,
          "durationTicks": 7,
          "midi": 83,
          "name": "B5",
          "ticks": 6041,
          "time": 70.24418604651163,
          "velocity": 0.33070866141732286
        },
        {
          "duration": 0.011627906976741542,
          "durationTicks": 1,
          "midi": 40,
          "name": "E2",
          "ticks": 6042,
          "time": 70.25581395348837,
          "velocity": 0.5748031496062992
        },
        {
          "duration": 0.04651162790698038,
          "durationTicks": 4,
          "midi": 52,
          "name": "E3",
          "ticks": 6042,
          "time": 70.25581395348837,
          "velocity": 0.6141732283464567
        },
        {
          "duration": 0.11627906976744384,
          "durationTicks": 10,
          "midi": 67,
          "name": "G4",
          "ticks": 6042,
          "time": 70.25581395348837,
          "velocity": 0.5511811023622047
        },
        {
          "duration": 0.04651162790698038,
          "durationTicks": 4,
          "midi": 82,
          "name": "A#5",
          "ticks": 6042,
          "time": 70.25581395348837,
          "velocity": 0.13385826771653545
        },
        {
          "duration": 0.011627906976741542,
          "durationTicks": 1,
          "midi": 41,
          "name": "F2",
          "ticks": 6043,
          "time": 70.26744186046511,
          "velocity": 0.5275590551181102
        },
        {
          "duration": 0.023255813953497295,
          "durationTicks": 2,
          "midi": 40,
          "name": "E2",
          "ticks": 6044,
          "time": 70.27906976744185,
          "velocity": 0.6377952755905512
        },
        {
          "duration": 0.011627906976741542,
          "durationTicks": 1,
          "midi": 41,
          "name": "F2",
          "ticks": 6046,
          "time": 70.30232558139535,
          "velocity": 0.6850393700787402
        },
        {
          "duration": 0.023255813953483084,
          "durationTicks": 2,
          "midi": 56,
          "name": "G#3",
          "ticks": 6046,
          "time": 70.30232558139535,
          "velocity": 0.47244094488188976
        },
        {
          "duration": 0.04651162790698038,
          "durationTicks": 4,
          "midi": 64,
          "name": "E4",
          "ticks": 6046,
          "time": 70.30232558139535,
          "velocity": 0.49606299212598426
        },
        {
          "duration": 0.12790697674418539,
          "durationTicks": 11,
          "midi": 77,
          "name": "F5",
          "ticks": 6046,
          "time": 70.30232558139535,
          "velocity": 0.3464566929133858
        },
        {
          "duration": 0.023255813953483084,
          "durationTicks": 2,
          "midi": 42,
          "name": "F#2",
          "ticks": 6047,
          "time": 70.31395348837209,
          "velocity": 0.6456692913385826
        },
        {
          "duration": 0.023255813953483084,
          "durationTicks": 2,
          "midi": 51,
          "name": "D#3",
          "ticks": 6047,
          "time": 70.31395348837209,
          "velocity": 0.33858267716535434
        },
        {
          "duration": 0.04651162790698038,
          "durationTicks": 4,
          "midi": 82,
          "name": "A#5",
          "ticks": 6048,
          "time": 70.32558139534883,
          "velocity": 0.09448818897637795
        },
        {
          "duration": 0.1046511627907023,
          "durationTicks": 9,
          "midi": 84,
          "name": "C6",
          "ticks": 6048,
          "time": 70.32558139534883,
          "velocity": 0.28346456692913385
        },
        {
          "duration": 0.04651162790698038,
          "durationTicks": 4,
          "midi": 70,
          "name": "A#4",
          "ticks": 6049,
          "time": 70.33720930232558,
          "velocity": 0.2677165354330709
        },
        {
          "duration": 0.08139534883721922,
          "durationTicks": 7,
          "midi": 72,
          "name": "C5",
          "ticks": 6049,
          "time": 70.33720930232558,
          "velocity": 0.3464566929133858
        },
        {
          "duration": 0.13953488372092693,
          "durationTicks": 12,
          "midi": 80,
          "name": "G#5",
          "ticks": 6050,
          "time": 70.34883720930233,
          "velocity": 0.3543307086614173
        },
        {
          "duration": 0.011627906976741542,
          "durationTicks": 1,
          "midi": 52,
          "name": "E3",
          "ticks": 6051,
          "time": 70.36046511627907,
          "velocity": 0.5118110236220472
        },
        {
          "duration": 0.12790697674418539,
          "durationTicks": 11,
          "midi": 61,
          "name": "C#4",
          "ticks": 6051,
          "time": 70.36046511627907,
          "velocity": 0.48031496062992124
        },
        {
          "duration": 0.1046511627907023,
          "durationTicks": 9,
          "midi": 49,
          "name": "C#3",
          "ticks": 6052,
          "time": 70.37209302325581,
          "velocity": 0.5196850393700787
        },
        {
          "duration": 0.1046511627907023,
          "durationTicks": 9,
          "midi": 68,
          "name": "G#4",
          "ticks": 6052,
          "time": 70.37209302325581,
          "velocity": 0.44881889763779526
        },
        {
          "duration": 0.12790697674418539,
          "durationTicks": 11,
          "midi": 78,
          "name": "F#5",
          "ticks": 6060,
          "time": 70.46511627906976,
          "velocity": 0.41732283464566927
        },
        {
          "duration": 0.03488372093023884,
          "durationTicks": 3,
          "midi": 83,
          "name": "B5",
          "ticks": 6060,
          "time": 70.46511627906976,
          "velocity": 0.1889763779527559
        },
        {
          "duration": 0.03488372093023884,
          "durationTicks": 3,
          "midi": 86,
          "name": "D6",
          "ticks": 6060,
          "time": 70.46511627906976,
          "velocity": 0.2125984251968504
        },
        {
          "duration": 0.12790697674418539,
          "durationTicks": 11,
          "midi": 89,
          "name": "F6",
          "ticks": 6060,
          "time": 70.46511627906976,
          "velocity": 0.2440944881889764
        },
        {
          "duration": 0.10465116279068809,
          "durationTicks": 9,
          "midi": 47,
          "name": "B2",
          "ticks": 6061,
          "time": 70.47674418604652,
          "velocity": 0.47244094488188976
        },
        {
          "duration": 0.11627906976742963,
          "durationTicks": 10,
          "midi": 67,
          "name": "G4",
          "ticks": 6061,
          "time": 70.47674418604652,
          "velocity": 0.6299212598425197
        },
        {
          "duration": 0.034883720930224626,
          "durationTicks": 3,
          "midi": 59,
          "name": "B3",
          "ticks": 6062,
          "time": 70.48837209302326,
          "velocity": 0.6377952755905512
        },
        {
          "duration": 0.30232558139535115,
          "durationTicks": 26,
          "midi": 75,
          "name": "D#5",
          "ticks": 6063,
          "time": 70.5,
          "velocity": 0.44881889763779526
        },
        {
          "duration": 0.023255813953497295,
          "durationTicks": 2,
          "midi": 70,
          "name": "A#4",
          "ticks": 6064,
          "time": 70.51162790697674,
          "velocity": 0.3937007874015748
        },
        {
          "duration": 0.03488372093023884,
          "durationTicks": 3,
          "midi": 58,
          "name": "A#3",
          "ticks": 6065,
          "time": 70.52325581395348,
          "velocity": 0.6141732283464567
        },
        {
          "duration": 0.023255813953497295,
          "durationTicks": 2,
          "midi": 71,
          "name": "B4",
          "ticks": 6065,
          "time": 70.52325581395348,
          "velocity": 0.3543307086614173
        },
        {
          "duration": 0.03488372093023884,
          "durationTicks": 3,
          "midi": 58,
          "name": "A#3",
          "ticks": 6069,
          "time": 70.56976744186046,
          "velocity": 0.5590551181102362
        },
        {
          "duration": 0.04651162790698038,
          "durationTicks": 4,
          "midi": 83,
          "name": "B5",
          "ticks": 6070,
          "time": 70.5813953488372,
          "velocity": 0.1968503937007874
        },
        {
          "duration": 0.011627906976755753,
          "durationTicks": 1,
          "midi": 64,
          "name": "E4",
          "ticks": 6071,
          "time": 70.59302325581395,
          "velocity": 0.6062992125984252
        },
        {
          "duration": 0.1279069767441996,
          "durationTicks": 11,
          "midi": 68,
          "name": "G#4",
          "ticks": 6071,
          "time": 70.59302325581395,
          "velocity": 0.5590551181102362
        },
        {
          "duration": 0.2674418604651123,
          "durationTicks": 23,
          "midi": 63,
          "name": "D#4",
          "ticks": 6072,
          "time": 70.6046511627907,
          "velocity": 0.6141732283464567
        },
        {
          "duration": 0.081395348837205,
          "durationTicks": 7,
          "midi": 44,
          "name": "G#2",
          "ticks": 6073,
          "time": 70.61627906976744,
          "velocity": 0.4881889763779528
        },
        {
          "duration": 0.13953488372092693,
          "durationTicks": 12,
          "midi": 72,
          "name": "C5",
          "ticks": 6073,
          "time": 70.61627906976744,
          "velocity": 0.4566929133858268
        },
        {
          "duration": 0.081395348837205,
          "durationTicks": 7,
          "midi": 77,
          "name": "F5",
          "ticks": 6073,
          "time": 70.61627906976744,
          "velocity": 0.28346456692913385
        },
        {
          "duration": 0.023255813953497295,
          "durationTicks": 2,
          "midi": 55,
          "name": "G3",
          "ticks": 6076,
          "time": 70.65116279069767,
          "velocity": 0.4409448818897638
        },
        {
          "duration": 0.011627906976741542,
          "durationTicks": 1,
          "midi": 56,
          "name": "G#3",
          "ticks": 6078,
          "time": 70.67441860465117,
          "velocity": 0.5275590551181102
        },
        {
          "duration": 0.011627906976741542,
          "durationTicks": 1,
          "midi": 55,
          "name": "G3",
          "ticks": 6079,
          "time": 70.68604651162791,
          "velocity": 0.5354330708661418
        },
        {
          "duration": 0.03488372093023884,
          "durationTicks": 3,
          "midi": 56,
          "name": "G#3",
          "ticks": 6080,
          "time": 70.69767441860465,
          "velocity": 0.5905511811023622
        },
        {
          "duration": 0.023255813953497295,
          "durationTicks": 2,
          "midi": 78,
          "name": "F#5",
          "ticks": 6080,
          "time": 70.69767441860465,
          "velocity": 0.2283464566929134
        },
        {
          "duration": 0.13953488372092693,
          "durationTicks": 12,
          "midi": 82,
          "name": "A#5",
          "ticks": 6080,
          "time": 70.69767441860465,
          "velocity": 0.2440944881889764
        },
        {
          "duration": 0.03488372093023884,
          "durationTicks": 3,
          "midi": 85,
          "name": "C#6",
          "ticks": 6080,
          "time": 70.69767441860465,
          "velocity": 0.2440944881889764
        },
        {
          "duration": 0.03488372093023884,
          "durationTicks": 3,
          "midi": 89,
          "name": "F6",
          "ticks": 6080,
          "time": 70.69767441860465,
          "velocity": 0.2047244094488189
        },
        {
          "duration": 0.011627906976755753,
          "durationTicks": 1,
          "midi": 36,
          "name": "C2",
          "ticks": 6081,
          "time": 70.70930232558139,
          "velocity": 0.6062992125984252
        },
        {
          "duration": 0.04651162790698038,
          "durationTicks": 4,
          "midi": 79,
          "name": "G5",
          "ticks": 6081,
          "time": 70.70930232558139,
          "velocity": 0.25984251968503935
        },
        {
          "duration": 0.023255813953483084,
          "durationTicks": 2,
          "midi": 41,
          "name": "F2",
          "ticks": 6082,
          "time": 70.72093023255815,
          "velocity": 0.6062992125984252
        },
        {
          "duration": 0.12790697674418539,
          "durationTicks": 11,
          "midi": 67,
          "name": "G4",
          "ticks": 6082,
          "time": 70.72093023255815,
          "velocity": 0.5669291338582677
        },
        {
          "duration": 0.011627906976741542,
          "durationTicks": 1,
          "midi": 51,
          "name": "D#3",
          "ticks": 6083,
          "time": 70.73255813953489,
          "velocity": 0.5905511811023622
        },
        {
          "duration": 0.011627906976741542,
          "durationTicks": 1,
          "midi": 38,
          "name": "D2",
          "ticks": 6084,
          "time": 70.74418604651163,
          "velocity": 0.5433070866141733
        },
        {
          "duration": 0.011627906976741542,
          "durationTicks": 1,
          "midi": 52,
          "name": "E3",
          "ticks": 6084,
          "time": 70.74418604651163,
          "velocity": 0.6299212598425197
        },
        {
          "duration": 0.023255813953483084,
          "durationTicks": 2,
          "midi": 56,
          "name": "G#3",
          "ticks": 6084,
          "time": 70.74418604651163,
          "velocity": 0.5669291338582677
        },
        {
          "duration": 0.011627906976741542,
          "durationTicks": 1,
          "midi": 41,
          "name": "F2",
          "ticks": 6085,
          "time": 70.75581395348837,
          "velocity": 0.6771653543307087
        },
        {
          "duration": 0.023255813953483084,
          "durationTicks": 2,
          "midi": 51,
          "name": "D#3",
          "ticks": 6085,
          "time": 70.75581395348837,
          "velocity": 0.5905511811023622
        },
        {
          "duration": 0.023255813953497295,
          "durationTicks": 2,
          "midi": 42,
          "name": "F#2",
          "ticks": 6086,
          "time": 70.76744186046511,
          "velocity": 0.6929133858267716
        },
        {
          "duration": 0.011627906976741542,
          "durationTicks": 1,
          "midi": 55,
          "name": "G3",
          "ticks": 6086,
          "time": 70.76744186046511,
          "velocity": 0.5118110236220472
        },
        {
          "duration": 0.011627906976755753,
          "durationTicks": 1,
          "midi": 50,
          "name": "D3",
          "ticks": 6087,
          "time": 70.77906976744185,
          "velocity": 0.5196850393700787
        },
        {
          "duration": 0.011627906976741542,
          "durationTicks": 1,
          "midi": 41,
          "name": "F2",
          "ticks": 6088,
          "time": 70.79069767441861,
          "velocity": 0.5511811023622047
        },
        {
          "duration": 0.10465116279068809,
          "durationTicks": 9,
          "midi": 51,
          "name": "D#3",
          "ticks": 6088,
          "time": 70.79069767441861,
          "velocity": 0.5748031496062992
        },
        {
          "duration": 0.023255813953483084,
          "durationTicks": 2,
          "midi": 40,
          "name": "E2",
          "ticks": 6089,
          "time": 70.80232558139535,
          "velocity": 0.44881889763779526
        },
        {
          "duration": 0.023255813953497295,
          "durationTicks": 2,
          "midi": 41,
          "name": "F2",
          "ticks": 6091,
          "time": 70.82558139534883,
          "velocity": 0.3464566929133858
        },
        {
          "duration": 0.03488372093023884,
          "durationTicks": 3,
          "midi": 40,
          "name": "E2",
          "ticks": 6095,
          "time": 70.87209302325581,
          "velocity": 0.14960629921259844
        },
        {
          "duration": 0.15116279069766847,
          "durationTicks": 13,
          "midi": 63,
          "name": "D#4",
          "ticks": 6100,
          "time": 70.93023255813954,
          "velocity": 0.5748031496062992
        },
        {
          "duration": 0.023255813953483084,
          "durationTicks": 2,
          "midi": 68,
          "name": "G#4",
          "ticks": 6100,
          "time": 70.93023255813954,
          "velocity": 0.5275590551181102
        },
        {
          "duration": 0.15116279069766847,
          "durationTicks": 13,
          "midi": 77,
          "name": "F5",
          "ticks": 6100,
          "time": 70.93023255813954,
          "velocity": 0.3228346456692913
        },
        {
          "duration": 0.04651162790698038,
          "durationTicks": 4,
          "midi": 83,
          "name": "B5",
          "ticks": 6100,
          "time": 70.93023255813954,
          "velocity": 0.1968503937007874
        },
        {
          "duration": 0.09302325581394655,
          "durationTicks": 8,
          "midi": 86,
          "name": "D6",
          "ticks": 6100,
          "time": 70.93023255813954,
          "velocity": 0.25984251968503935
        },
        {
          "duration": 0.023255813953483084,
          "durationTicks": 2,
          "midi": 48,
          "name": "C3",
          "ticks": 6101,
          "time": 70.94186046511628,
          "velocity": 0.5905511811023622
        },
        {
          "duration": 0.06976744186046346,
          "durationTicks": 6,
          "midi": 55,
          "name": "G3",
          "ticks": 6101,
          "time": 70.94186046511628,
          "velocity": 0.5826771653543307
        },
        {
          "duration": 0.023255813953483084,
          "durationTicks": 2,
          "midi": 73,
          "name": "C#5",
          "ticks": 6101,
          "time": 70.94186046511628,
          "velocity": 0.25196850393700787
        },
        {
          "duration": 0.023255813953483084,
          "durationTicks": 2,
          "midi": 74,
          "name": "D5",
          "ticks": 6101,
          "time": 70.94186046511628,
          "velocity": 0.2440944881889764
        },
        {
          "duration": 0.15116279069768268,
          "durationTicks": 13,
          "midi": 72,
          "name": "C5",
          "ticks": 6102,
          "time": 70.95348837209302,
          "velocity": 0.3228346456692913
        },
        {
          "duration": 0.06976744186047767,
          "durationTicks": 6,
          "midi": 49,
          "name": "C#3",
          "ticks": 6103,
          "time": 70.96511627906976,
          "velocity": 0.5984251968503937
        },
        {
          "duration": 0.11627906976744384,
          "durationTicks": 10,
          "midi": 70,
          "name": "A#4",
          "ticks": 6103,
          "time": 70.96511627906976,
          "velocity": 0.25196850393700787
        },
        {
          "duration": 0.034883720930224626,
          "durationTicks": 3,
          "midi": 58,
          "name": "A#3",
          "ticks": 6109,
          "time": 71.03488372093024,
          "velocity": 0.3543307086614173
        },
        {
          "duration": 0.023255813953483084,
          "durationTicks": 2,
          "midi": 54,
          "name": "F#3",
          "ticks": 6110,
          "time": 71.04651162790698,
          "velocity": 0.36220472440944884
        },
        {
          "duration": 0.03488372093023884,
          "durationTicks": 3,
          "midi": 59,
          "name": "B3",
          "ticks": 6112,
          "time": 71.06976744186046,
          "velocity": 0.30708661417322836
        },
        {
          "duration": 0.03488372093023884,
          "durationTicks": 3,
          "midi": 54,
          "name": "F#3",
          "ticks": 6113,
          "time": 71.0813953488372,
          "velocity": 0.23622047244094488
        },
        {
          "duration": 0.03488372093023884,
          "durationTicks": 3,
          "midi": 63,
          "name": "D#4",
          "ticks": 6114,
          "time": 71.09302325581395,
          "velocity": 0.10236220472440945
        },
        {
          "duration": 0.023255813953497295,
          "durationTicks": 2,
          "midi": 62,
          "name": "D4",
          "ticks": 6119,
          "time": 71.15116279069767,
          "velocity": 0.4566929133858268
        },
        {
          "duration": 0.011627906976741542,
          "durationTicks": 1,
          "midi": 40,
          "name": "E2",
          "ticks": 6121,
          "time": 71.17441860465117,
          "velocity": 0.5905511811023622
        },
        {
          "duration": 0.023255813953483084,
          "durationTicks": 2,
          "midi": 57,
          "name": "A3",
          "ticks": 6121,
          "time": 71.17441860465117,
          "velocity": 0.4881889763779528
        },
        {
          "duration": 0.13953488372092693,
          "durationTicks": 12,
          "midi": 63,
          "name": "D#4",
          "ticks": 6121,
          "time": 71.17441860465117,
          "velocity": 0.5826771653543307
        },
        {
          "duration": 0.12790697674418539,
          "durationTicks": 11,
          "midi": 67,
          "name": "G4",
          "ticks": 6121,
          "time": 71.17441860465117,
          "velocity": 0.5433070866141733
        },
        {
          "duration": 0.081395348837205,
          "durationTicks": 7,
          "midi": 72,
          "name": "C5",
          "ticks": 6121,
          "time": 71.17441860465117,
          "velocity": 0.31496062992125984
        },
        {
          "duration": 0.023255813953483084,
          "durationTicks": 2,
          "midi": 41,
          "name": "F2",
          "ticks": 6122,
          "time": 71.18604651162791,
          "velocity": 0.5984251968503937
        },
        {
          "duration": 0.011627906976741542,
          "durationTicks": 1,
          "midi": 55,
          "name": "G3",
          "ticks": 6123,
          "time": 71.19767441860465,
          "velocity": 0.5511811023622047
        },
        {
          "duration": 0.011627906976755753,
          "durationTicks": 1,
          "midi": 38,
          "name": "D2",
          "ticks": 6124,
          "time": 71.20930232558139,
          "velocity": 0.5748031496062992
        },
        {
          "duration": 0.023255813953497295,
          "durationTicks": 2,
          "midi": 53,
          "name": "F3",
          "ticks": 6124,
          "time": 71.20930232558139,
          "velocity": 0.4881889763779528
        },
        {
          "duration": 0.011627906976741542,
          "durationTicks": 1,
          "midi": 41,
          "name": "F2",
          "ticks": 6125,
          "time": 71.22093023255815,
          "velocity": 0.6771653543307087
        },
        {
          "duration": 0.023255813953483084,
          "durationTicks": 2,
          "midi": 42,
          "name": "F#2",
          "ticks": 6126,
          "time": 71.23255813953489,
          "velocity": 0.6850393700787402
        },
        {
          "duration": 0.011627906976741542,
          "durationTicks": 1,
          "midi": 41,
          "name": "F2",
          "ticks": 6128,
          "time": 71.25581395348837,
          "velocity": 0.5196850393700787
        },
        {
          "duration": 0.023255813953497295,
          "durationTicks": 2,
          "midi": 40,
          "name": "E2",
          "ticks": 6129,
          "time": 71.26744186046511,
          "velocity": 0.4409448818897638
        },
        {
          "duration": 0.023255813953483084,
          "durationTicks": 2,
          "midi": 41,
          "name": "F2",
          "ticks": 6131,
          "time": 71.29069767441861,
          "velocity": 0.3543307086614173
        },
        {
          "duration": 0.03488372093023884,
          "durationTicks": 3,
          "midi": 40,
          "name": "E2",
          "ticks": 6135,
          "time": 71.33720930232558,
          "velocity": 0.15748031496062992
        },
        {
          "duration": 0.023255813953483084,
          "durationTicks": 2,
          "midi": 39,
          "name": "D#2",
          "ticks": 6138,
          "time": 71.37209302325581,
          "velocity": 0.2440944881889764
        },
        {
          "duration": 0.023255813953497295,
          "durationTicks": 2,
          "midi": 68,
          "name": "G#4",
          "ticks": 6139,
          "time": 71.38372093023256,
          "velocity": 0.5275590551181102
        },
        {
          "duration": 0.081395348837205,
          "durationTicks": 7,
          "midi": 78,
          "name": "F#5",
          "ticks": 6139,
          "time": 71.38372093023256,
          "velocity": 0.23622047244094488
        },
        {
          "duration": 0.03488372093023884,
          "durationTicks": 3,
          "midi": 86,
          "name": "D6",
          "ticks": 6139,
          "time": 71.38372093023256,
          "velocity": 0.25984251968503935
        },
        {
          "duration": 0.023255813953497295,
          "durationTicks": 2,
          "midi": 55,
          "name": "G3",
          "ticks": 6140,
          "time": 71.3953488372093,
          "velocity": 0.4645669291338583
        },
        {
          "duration": 0.06976744186046346,
          "durationTicks": 6,
          "midi": 65,
          "name": "F4",
          "ticks": 6140,
          "time": 71.3953488372093,
          "velocity": 0.5984251968503937
        },
        {
          "duration": 0.03488372093023884,
          "durationTicks": 3,
          "midi": 81,
          "name": "A5",
          "ticks": 6140,
          "time": 71.3953488372093,
          "velocity": 0.2283464566929134
        },
        {
          "duration": 0.023255813953497295,
          "durationTicks": 2,
          "midi": 83,
          "name": "B5",
          "ticks": 6140,
          "time": 71.3953488372093,
          "velocity": 0.23622047244094488
        },
        {
          "duration": 0.011627906976741542,
          "durationTicks": 1,
          "midi": 48,
          "name": "C3",
          "ticks": 6141,
          "time": 71.40697674418605,
          "velocity": 0.5354330708661418
        },
        {
          "duration": 0.011627906976741542,
          "durationTicks": 1,
          "midi": 67,
          "name": "G4",
          "ticks": 6141,
          "time": 71.40697674418605,
          "velocity": 0.5669291338582677
        },
        {
          "duration": 0.12790697674418539,
          "durationTicks": 11,
          "midi": 80,
          "name": "G#5",
          "ticks": 6141,
          "time": 71.40697674418605,
          "velocity": 0.2677165354330709
        },
        {
          "duration": 0.06976744186046346,
          "durationTicks": 6,
          "midi": 82,
          "name": "A#5",
          "ticks": 6141,
          "time": 71.40697674418605,
          "velocity": 0.18110236220472442
        },
        {
          "duration": 0.05813953488370771,
          "durationTicks": 5,
          "midi": 85,
          "name": "C#6",
          "ticks": 6141,
          "time": 71.40697674418605,
          "velocity": 0.1889763779527559
        },
        {
          "duration": 0.081395348837205,
          "durationTicks": 7,
          "midi": 49,
          "name": "C#3",
          "ticks": 6142,
          "time": 71.4186046511628,
          "velocity": 0.5826771653543307
        },
        {
          "duration": 0.13953488372092693,
          "durationTicks": 12,
          "midi": 84,
          "name": "C6",
          "ticks": 6144,
          "time": 71.44186046511628,
          "velocity": 0.33070866141732286
        },
        {
          "duration": 0.06976744186047767,
          "durationTicks": 6,
          "midi": 72,
          "name": "C5",
          "ticks": 6146,
          "time": 71.46511627906976,
          "velocity": 0.29133858267716534
        },
        {
          "duration": 0.05813953488372192,
          "durationTicks": 5,
          "midi": 58,
          "name": "A#3",
          "ticks": 6147,
          "time": 71.47674418604652,
          "velocity": 0.44881889763779526
        },
        {
          "duration": 0.034883720930224626,
          "durationTicks": 3,
          "midi": 54,
          "name": "F#3",
          "ticks": 6148,
          "time": 71.48837209302326,
          "velocity": 0.33858267716535434
        },
        {
          "duration": 0.023255813953483084,
          "durationTicks": 2,
          "midi": 65,
          "name": "F4",
          "ticks": 6148,
          "time": 71.48837209302326,
          "velocity": 0.3228346456692913
        },
        {
          "duration": 0.2093023255814046,
          "durationTicks": 18,
          "midi": 63,
          "name": "D#4",
          "ticks": 6150,
          "time": 71.51162790697674,
          "velocity": 0.6220472440944882
        },
        {
          "duration": 0.023255813953497295,
          "durationTicks": 2,
          "midi": 53,
          "name": "F3",
          "ticks": 6151,
          "time": 71.52325581395348,
          "velocity": 0.36220472440944884
        },
        {
          "duration": 0.034883720930224626,
          "durationTicks": 3,
          "midi": 59,
          "name": "B3",
          "ticks": 6152,
          "time": 71.53488372093024,
          "velocity": 0.3779527559055118
        },
        {
          "duration": 0.03488372093023884,
          "durationTicks": 3,
          "midi": 58,
          "name": "A#3",
          "ticks": 6155,
          "time": 71.56976744186046,
          "velocity": 0.09448818897637795
        },
        {
          "duration": 0.023255813953483084,
          "durationTicks": 2,
          "midi": 68,
          "name": "G#4",
          "ticks": 6159,
          "time": 71.61627906976744,
          "velocity": 0.5039370078740157
        },
        {
          "duration": 0.034883720930224626,
          "durationTicks": 3,
          "midi": 78,
          "name": "F#5",
          "ticks": 6159,
          "time": 71.61627906976744,
          "velocity": 0.2677165354330709
        },
        {
          "duration": 0.023255813953483084,
          "durationTicks": 2,
          "midi": 81,
          "name": "A5",
          "ticks": 6159,
          "time": 71.61627906976744,
          "velocity": 0.2677165354330709
        },
        {
          "duration": 0.034883720930224626,
          "durationTicks": 3,
          "midi": 84,
          "name": "C6",
          "ticks": 6159,
          "time": 71.61627906976744,
          "velocity": 0.25196850393700787
        },
        {
          "duration": 0.034883720930224626,
          "durationTicks": 3,
          "midi": 86,
          "name": "D6",
          "ticks": 6159,
          "time": 71.61627906976744,
          "velocity": 0.25984251968503935
        },
        {
          "duration": 0.011627906976741542,
          "durationTicks": 1,
          "midi": 36,
          "name": "C2",
          "ticks": 6160,
          "time": 71.62790697674419,
          "velocity": 0.5669291338582677
        },
        {
          "duration": 0.03488372093023884,
          "durationTicks": 3,
          "midi": 50,
          "name": "D3",
          "ticks": 6160,
          "time": 71.62790697674419,
          "velocity": 0.5984251968503937
        },
        {
          "duration": 0.023255813953483084,
          "durationTicks": 2,
          "midi": 77,
          "name": "F5",
          "ticks": 6160,
          "time": 71.62790697674419,
          "velocity": 0.23622047244094488
        },
        {
          "duration": 0.023255813953483084,
          "durationTicks": 2,
          "midi": 87,
          "name": "D#6",
          "ticks": 6160,
          "time": 71.62790697674419,
          "velocity": 0.2440944881889764
        },
        {
          "duration": 0.011627906976741542,
          "durationTicks": 1,
          "midi": 40,
          "name": "E2",
          "ticks": 6161,
          "time": 71.63953488372093,
          "velocity": 0.6141732283464567
        },
        {
          "duration": 0.023255813953497295,
          "durationTicks": 2,
          "midi": 57,
          "name": "A3",
          "ticks": 6161,
          "time": 71.63953488372093,
          "velocity": 0.4645669291338583
        },
        {
          "duration": 0.11627906976744384,
          "durationTicks": 10,
          "midi": 67,
          "name": "G4",
          "ticks": 6161,
          "time": 71.63953488372093,
          "velocity": 0.5826771653543307
        },
        {
          "duration": 0.06976744186046346,
          "durationTicks": 6,
          "midi": 72,
          "name": "C5",
          "ticks": 6161,
          "time": 71.63953488372093,
          "velocity": 0.2992125984251969
        },
        {
          "duration": 0.06976744186046346,
          "durationTicks": 6,
          "midi": 82,
          "name": "A#5",
          "ticks": 6161,
          "time": 71.63953488372093,
          "velocity": 0.2755905511811024
        },
        {
          "duration": 0.011627906976755753,
          "durationTicks": 1,
          "midi": 43,
          "name": "G2",
          "ticks": 6162,
          "time": 71.65116279069767,
          "velocity": 0.5826771653543307
        },
        {
          "duration": 0.011627906976741542,
          "durationTicks": 1,
          "midi": 52,
          "name": "E3",
          "ticks": 6163,
          "time": 71.66279069767442,
          "velocity": 0.6377952755905512
        },
        {
          "duration": 0.034883720930224626,
          "durationTicks": 3,
          "midi": 70,
          "name": "A#4",
          "ticks": 6163,
          "time": 71.66279069767442,
          "velocity": 0.12598425196850394
        },
        {
          "duration": 0.011627906976741542,
          "durationTicks": 1,
          "midi": 38,
          "name": "D2",
          "ticks": 6164,
          "time": 71.67441860465117,
          "velocity": 0.5984251968503937
        },
        {
          "duration": 0.023255813953483084,
          "durationTicks": 2,
          "midi": 51,
          "name": "D#3",
          "ticks": 6164,
          "time": 71.67441860465117,
          "velocity": 0.6692913385826772
        },
        {
          "duration": 0.12790697674418539,
          "durationTicks": 11,
          "midi": 80,
          "name": "G#5",
          "ticks": 6164,
          "time": 71.67441860465117,
          "velocity": 0.1968503937007874
        },
        {
          "duration": 0.011627906976741542,
          "durationTicks": 1,
          "midi": 41,
          "name": "F2",
          "ticks": 6165,
          "time": 71.68604651162791,
          "velocity": 0.6692913385826772
        },
        {
          "duration": 0.023255813953497295,
          "durationTicks": 2,
          "midi": 42,
          "name": "F#2",
          "ticks": 6166,
          "time": 71.69767441860465,
          "velocity": 0.6535433070866141
        },
        {
          "duration": 0.081395348837205,
          "durationTicks": 7,
          "midi": 50,
          "name": "D3",
          "ticks": 6166,
          "time": 71.69767441860465,
          "velocity": 0.5905511811023622
        },
        {
          "duration": 0.023255813953497295,
          "durationTicks": 2,
          "midi": 56,
          "name": "G#3",
          "ticks": 6166,
          "time": 71.69767441860465,
          "velocity": 0.3858267716535433
        },
        {
          "duration": 0.023255813953497295,
          "durationTicks": 2,
          "midi": 60,
          "name": "C4",
          "ticks": 6167,
          "time": 71.70930232558139,
          "velocity": 0.25984251968503935
        },
        {
          "duration": 0.023255813953483084,
          "durationTicks": 2,
          "midi": 61,
          "name": "C#4",
          "ticks": 6169,
          "time": 71.73255813953489,
          "velocity": 0.29133858267716534
        },
        {
          "duration": 0.023255813953483084,
          "durationTicks": 2,
          "midi": 41,
          "name": "F2",
          "ticks": 6171,
          "time": 71.75581395348837,
          "velocity": 0.3228346456692913
        },
        {
          "duration": 0.03488372093023884,
          "durationTicks": 3,
          "midi": 51,
          "name": "D#3",
          "ticks": 6173,
          "time": 71.77906976744185,
          "velocity": 0.2283464566929134
        },
        {
          "duration": 0.023255813953483084,
          "durationTicks": 2,
          "midi": 40,
          "name": "E2",
          "ticks": 6179,
          "time": 71.84883720930233,
          "velocity": 0.25984251968503935
        },
        {
          "duration": 0.023255813953483084,
          "durationTicks": 2,
          "midi": 68,
          "name": "G#4",
          "ticks": 6179,
          "time": 71.84883720930233,
          "velocity": 0.5511811023622047
        },
        {
          "duration": 0.034883720930224626,
          "durationTicks": 3,
          "midi": 77,
          "name": "F5",
          "ticks": 6179,
          "time": 71.84883720930233,
          "velocity": 0.2755905511811024
        },
        {
          "duration": 0.034883720930224626,
          "durationTicks": 3,
          "midi": 86,
          "name": "D6",
          "ticks": 6179,
          "time": 71.84883720930233,
          "velocity": 0.28346456692913385
        },
        {
          "duration": 0.23255813953487348,
          "durationTicks": 20,
          "midi": 58,
          "name": "A#3",
          "ticks": 6180,
          "time": 71.86046511627907,
          "velocity": 0.5196850393700787
        },
        {
          "duration": 0.081395348837205,
          "durationTicks": 7,
          "midi": 63,
          "name": "D#4",
          "ticks": 6180,
          "time": 71.86046511627907,
          "velocity": 0.5590551181102362
        },
        {
          "duration": 0.023255813953483084,
          "durationTicks": 2,
          "midi": 81,
          "name": "A5",
          "ticks": 6180,
          "time": 71.86046511627907,
          "velocity": 0.2440944881889764
        },
        {
          "duration": 0.023255813953483084,
          "durationTicks": 2,
          "midi": 30,
          "name": "F#1",
          "ticks": 6181,
          "time": 71.87209302325581,
          "velocity": 0.28346456692913385
        },
        {
          "duration": 0.06976744186046346,
          "durationTicks": 6,
          "midi": 67,
          "name": "G4",
          "ticks": 6181,
          "time": 71.87209302325581,
          "velocity": 0.5905511811023622
        },
        {
          "duration": 0.023255813953497295,
          "durationTicks": 2,
          "midi": 53,
          "name": "F3",
          "ticks": 6183,
          "time": 71.8953488372093,
          "velocity": 0.44881889763779526
        },
        {
          "duration": 0.10465116279068809,
          "durationTicks": 9,
          "midi": 84,
          "name": "C6",
          "ticks": 6184,
          "time": 71.90697674418605,
          "velocity": 0.2047244094488189
        },
        {
          "duration": 0.023255813953483084,
          "durationTicks": 2,
          "midi": 54,
          "name": "F#3",
          "ticks": 6185,
          "time": 71.9186046511628,
          "velocity": 0.36220472440944884
        },
        {
          "duration": 0.06976744186046346,
          "durationTicks": 6,
          "midi": 72,
          "name": "C5",
          "ticks": 6186,
          "time": 71.93023255813954,
          "velocity": 0.25984251968503935
        },
        {
          "duration": 0.023255813953483084,
          "durationTicks": 2,
          "midi": 53,
          "name": "F3",
          "ticks": 6187,
          "time": 71.94186046511628,
          "velocity": 0.3543307086614173
        },
        {
          "duration": 0.08139534883721922,
          "durationTicks": 7,
          "midi": 65,
          "name": "F4",
          "ticks": 6189,
          "time": 71.96511627906976,
          "velocity": 0.33070866141732286
        },
        {
          "duration": 0.023255813953483084,
          "durationTicks": 2,
          "midi": 53,
          "name": "F3",
          "ticks": 6190,
          "time": 71.97674418604652,
          "velocity": 0.3700787401574803
        },
        {
          "duration": 0.06976744186046346,
          "durationTicks": 6,
          "midi": 79,
          "name": "G5",
          "ticks": 6199,
          "time": 72.0813953488372,
          "velocity": 0.2755905511811024
        },
        {
          "duration": 0.12790697674418539,
          "durationTicks": 11,
          "midi": 87,
          "name": "D#6",
          "ticks": 6199,
          "time": 72.0813953488372,
          "velocity": 0.29133858267716534
        },
        {
          "duration": 0.03488372093023884,
          "durationTicks": 3,
          "midi": 89,
          "name": "F6",
          "ticks": 6199,
          "time": 72.0813953488372,
          "velocity": 0.2440944881889764
        },
        {
          "duration": 0.03488372093023884,
          "durationTicks": 3,
          "midi": 90,
          "name": "F#6",
          "ticks": 6199,
          "time": 72.0813953488372,
          "velocity": 0.18110236220472442
        },
        {
          "duration": 0.011627906976755753,
          "durationTicks": 1,
          "midi": 34,
          "name": "A#1",
          "ticks": 6200,
          "time": 72.09302325581395,
          "velocity": 0.5590551181102362
        },
        {
          "duration": 0.023255813953497295,
          "durationTicks": 2,
          "midi": 50,
          "name": "D3",
          "ticks": 6200,
          "time": 72.09302325581395,
          "velocity": 0.6456692913385826
        },
        {
          "duration": 0.011627906976755753,
          "durationTicks": 1,
          "midi": 57,
          "name": "A3",
          "ticks": 6200,
          "time": 72.09302325581395,
          "velocity": 0.5433070866141733
        },
        {
          "duration": 0.09302325581396076,
          "durationTicks": 8,
          "midi": 63,
          "name": "D#4",
          "ticks": 6200,
          "time": 72.09302325581395,
          "velocity": 0.6456692913385826
        },
        {
          "duration": 0.05813953488372192,
          "durationTicks": 5,
          "midi": 73,
          "name": "C#5",
          "ticks": 6200,
          "time": 72.09302325581395,
          "velocity": 0.33858267716535434
        },
        {
          "duration": 0.023255813953497295,
          "durationTicks": 2,
          "midi": 76,
          "name": "E5",
          "ticks": 6200,
          "time": 72.09302325581395,
          "velocity": 0.2755905511811024
        },
        {
          "duration": 0.023255813953497295,
          "durationTicks": 2,
          "midi": 83,
          "name": "B5",
          "ticks": 6200,
          "time": 72.09302325581395,
          "velocity": 0.2677165354330709
        },
        {
          "duration": 0.023255813953497295,
          "durationTicks": 2,
          "midi": 88,
          "name": "E6",
          "ticks": 6200,
          "time": 72.09302325581395,
          "velocity": 0.2755905511811024
        },
        {
          "duration": 0.023255813953483084,
          "durationTicks": 2,
          "midi": 35,
          "name": "B1",
          "ticks": 6201,
          "time": 72.1046511627907,
          "velocity": 0.5905511811023622
        },
        {
          "duration": 0.11627906976744384,
          "durationTicks": 10,
          "midi": 68,
          "name": "G#4",
          "ticks": 6201,
          "time": 72.1046511627907,
          "velocity": 0.5590551181102362
        },
        {
          "duration": 0.011627906976741542,
          "durationTicks": 1,
          "midi": 45,
          "name": "A2",
          "ticks": 6202,
          "time": 72.11627906976744,
          "velocity": 0.5433070866141733
        },
        {
          "duration": 0.09302325581394655,
          "durationTicks": 8,
          "midi": 51,
          "name": "D#3",
          "ticks": 6202,
          "time": 72.11627906976744,
          "velocity": 0.6456692913385826
        },
        {
          "duration": 0.011627906976741542,
          "durationTicks": 1,
          "midi": 47,
          "name": "B2",
          "ticks": 6203,
          "time": 72.12790697674419,
          "velocity": 0.5748031496062992
        },
        {
          "duration": 0.03488372093023884,
          "durationTicks": 3,
          "midi": 42,
          "name": "F#2",
          "ticks": 6204,
          "time": 72.13953488372093,
          "velocity": 0.6456692913385826
        },
        {
          "duration": 0.023255813953497295,
          "durationTicks": 2,
          "midi": 70,
          "name": "A#4",
          "ticks": 6204,
          "time": 72.13953488372093,
          "velocity": 0.23622047244094488
        },
        {
          "duration": 0.081395348837205,
          "durationTicks": 7,
          "midi": 61,
          "name": "C#4",
          "ticks": 6206,
          "time": 72.16279069767442,
          "velocity": 0.5669291338582677
        },
        {
          "duration": 0.023255813953483084,
          "durationTicks": 2,
          "midi": 56,
          "name": "G#3",
          "ticks": 6207,
          "time": 72.17441860465117,
          "velocity": 0.4251968503937008
        },
        {
          "duration": 0.034883720930224626,
          "durationTicks": 3,
          "midi": 70,
          "name": "A#4",
          "ticks": 6207,
          "time": 72.17441860465117,
          "velocity": 0.2047244094488189
        },
        {
          "duration": 0.023255813953483084,
          "durationTicks": 2,
          "midi": 44,
          "name": "G#2",
          "ticks": 6208,
          "time": 72.18604651162791,
          "velocity": 0.3543307086614173
        },
        {
          "duration": 0.1860465116279073,
          "durationTicks": 16,
          "midi": 71,
          "name": "B4",
          "ticks": 6209,
          "time": 72.19767441860465,
          "velocity": 0.4409448818897638
        },
        {
          "duration": 0.12790697674418539,
          "durationTicks": 11,
          "midi": 78,
          "name": "F#5",
          "ticks": 6209,
          "time": 72.19767441860465,
          "velocity": 0.4015748031496063
        },
        {
          "duration": 0.09302325581394655,
          "durationTicks": 8,
          "midi": 47,
          "name": "B2",
          "ticks": 6211,
          "time": 72.22093023255815,
          "velocity": 0.4881889763779528
        },
        {
          "duration": 0.034883720930224626,
          "durationTicks": 3,
          "midi": 55,
          "name": "G3",
          "ticks": 6212,
          "time": 72.23255813953489,
          "velocity": 0.30708661417322836
        },
        {
          "duration": 0.09302325581394655,
          "durationTicks": 8,
          "midi": 66,
          "name": "F#4",
          "ticks": 6212,
          "time": 72.23255813953489,
          "velocity": 0.3228346456692913
        },
        {
          "duration": 0.034883720930224626,
          "durationTicks": 3,
          "midi": 60,
          "name": "C4",
          "ticks": 6213,
          "time": 72.24418604651163,
          "velocity": 0.3700787401574803
        },
        {
          "duration": 0.09302325581396076,
          "durationTicks": 8,
          "midi": 80,
          "name": "G#5",
          "ticks": 6219,
          "time": 72.31395348837209,
          "velocity": 0.18110236220472442
        },
        {
          "duration": 0.023255813953497295,
          "durationTicks": 2,
          "midi": 29,
          "name": "F1",
          "ticks": 6220,
          "time": 72.32558139534883,
          "velocity": 0.3543307086614173
        },
        {
          "duration": 0.023255813953497295,
          "durationTicks": 2,
          "midi": 55,
          "name": "G3",
          "ticks": 6220,
          "time": 72.32558139534883,
          "velocity": 0.3464566929133858
        },
        {
          "duration": 0.04651162790698038,
          "durationTicks": 4,
          "midi": 68,
          "name": "G#4",
          "ticks": 6220,
          "time": 72.32558139534883,
          "velocity": 0.5039370078740157
        },
        {
          "duration": 0.09302325581396076,
          "durationTicks": 8,
          "midi": 63,
          "name": "D#4",
          "ticks": 6221,
          "time": 72.33720930232558,
          "velocity": 0.2755905511811024
        },
        {
          "duration": 0.09302325581394655,
          "durationTicks": 8,
          "midi": 44,
          "name": "G#2",
          "ticks": 6222,
          "time": 72.34883720930233,
          "velocity": 0.49606299212598426
        },
        {
          "duration": 0.023255813953497295,
          "durationTicks": 2,
          "midi": 55,
          "name": "G3",
          "ticks": 6225,
          "time": 72.38372093023256,
          "velocity": 0.3779527559055118
        },
        {
          "duration": 0.05813953488372192,
          "durationTicks": 5,
          "midi": 68,
          "name": "G#4",
          "ticks": 6225,
          "time": 72.38372093023256,
          "velocity": 0.4015748031496063
        },
        {
          "duration": 0.03488372093023884,
          "durationTicks": 3,
          "midi": 72,
          "name": "C5",
          "ticks": 6225,
          "time": 72.38372093023256,
          "velocity": 0.16535433070866143
        },
        {
          "duration": 0.034883720930224626,
          "durationTicks": 3,
          "midi": 56,
          "name": "G#3",
          "ticks": 6227,
          "time": 72.40697674418605,
          "velocity": 0.49606299212598426
        },
        {
          "duration": 0.12790697674418539,
          "durationTicks": 11,
          "midi": 71,
          "name": "B4",
          "ticks": 6228,
          "time": 72.4186046511628,
          "velocity": 0.4094488188976378
        },
        {
          "duration": 0.023255813953483084,
          "durationTicks": 2,
          "midi": 64,
          "name": "E4",
          "ticks": 6229,
          "time": 72.43023255813954,
          "velocity": 0.6062992125984252
        },
        {
          "duration": 0.034883720930224626,
          "durationTicks": 3,
          "midi": 78,
          "name": "F#5",
          "ticks": 6229,
          "time": 72.43023255813954,
          "velocity": 0.16535433070866143
        },
        {
          "duration": 0.011627906976741542,
          "durationTicks": 1,
          "midi": 55,
          "name": "G3",
          "ticks": 6230,
          "time": 72.44186046511628,
          "velocity": 0.5984251968503937
        },
        {
          "duration": 0.09302325581396076,
          "durationTicks": 8,
          "midi": 40,
          "name": "E2",
          "ticks": 6231,
          "time": 72.45348837209302,
          "velocity": 0.4881889763779528
        },
        {
          "duration": 0.011627906976741542,
          "durationTicks": 1,
          "midi": 53,
          "name": "F3",
          "ticks": 6231,
          "time": 72.45348837209302,
          "velocity": 0.6141732283464567
        },
        {
          "duration": 0.08139534883721922,
          "durationTicks": 7,
          "midi": 63,
          "name": "D#4",
          "ticks": 6231,
          "time": 72.45348837209302,
          "velocity": 0.6299212598425197
        },
        {
          "duration": 0.023255813953497295,
          "durationTicks": 2,
          "midi": 68,
          "name": "G#4",
          "ticks": 6231,
          "time": 72.45348837209302,
          "velocity": 0.2992125984251969
        },
        {
          "duration": 0.03488372093023884,
          "durationTicks": 3,
          "midi": 86,
          "name": "D6",
          "ticks": 6231,
          "time": 72.45348837209302,
          "velocity": 0.11811023622047244
        },
        {
          "duration": 0.011627906976755753,
          "durationTicks": 1,
          "midi": 52,
          "name": "E3",
          "ticks": 6232,
          "time": 72.46511627906976,
          "velocity": 0.5354330708661418
        },
        {
          "duration": 0.011627906976741542,
          "durationTicks": 1,
          "midi": 51,
          "name": "D#3",
          "ticks": 6233,
          "time": 72.47674418604652,
          "velocity": 0.5590551181102362
        },
        {
          "duration": 0.06976744186046346,
          "durationTicks": 6,
          "midi": 67,
          "name": "G4",
          "ticks": 6233,
          "time": 72.47674418604652,
          "velocity": 0.3779527559055118
        },
        {
          "duration": 0.034883720930224626,
          "durationTicks": 3,
          "midi": 87,
          "name": "D#6",
          "ticks": 6233,
          "time": 72.47674418604652,
          "velocity": 0.13385826771653545
        },
        {
          "duration": 0.09302325581394655,
          "durationTicks": 8,
          "midi": 55,
          "name": "G3",
          "ticks": 6234,
          "time": 72.48837209302326,
          "velocity": 0.6062992125984252
        },
        {
          "duration": 0.081395348837205,
          "durationTicks": 7,
          "midi": 86,
          "name": "D6",
          "ticks": 6235,
          "time": 72.5,
          "velocity": 0.2440944881889764
        },
        {
          "duration": 0.023255813953483084,
          "durationTicks": 2,
          "midi": 62,
          "name": "D4",
          "ticks": 6238,
          "time": 72.53488372093024,
          "velocity": 0.41732283464566927
        },
        {
          "duration": 0.023255813953483084,
          "durationTicks": 2,
          "midi": 81,
          "name": "A5",
          "ticks": 6239,
          "time": 72.54651162790698,
          "velocity": 0.23622047244094488
        },
        {
          "duration": 0.034883720930224626,
          "durationTicks": 3,
          "midi": 83,
          "name": "B5",
          "ticks": 6239,
          "time": 72.54651162790698,
          "velocity": 0.2283464566929134
        },
        {
          "duration": 0.05813953488372192,
          "durationTicks": 5,
          "midi": 85,
          "name": "C#6",
          "ticks": 6239,
          "time": 72.54651162790698,
          "velocity": 0.23622047244094488
        },
        {
          "duration": 0.034883720930224626,
          "durationTicks": 3,
          "midi": 88,
          "name": "E6",
          "ticks": 6239,
          "time": 72.54651162790698,
          "velocity": 0.2440944881889764
        },
        {
          "duration": 0.011627906976741542,
          "durationTicks": 1,
          "midi": 34,
          "name": "A#1",
          "ticks": 6240,
          "time": 72.55813953488372,
          "velocity": 0.5511811023622047
        },
        {
          "duration": 0.034883720930224626,
          "durationTicks": 3,
          "midi": 50,
          "name": "D3",
          "ticks": 6240,
          "time": 72.55813953488372,
          "velocity": 0.5118110236220472
        },
        {
          "duration": 0.16279069767442422,
          "durationTicks": 14,
          "midi": 63,
          "name": "D#4",
          "ticks": 6240,
          "time": 72.55813953488372,
          "velocity": 0.5826771653543307
        },
        {
          "duration": 0.011627906976741542,
          "durationTicks": 1,
          "midi": 69,
          "name": "A4",
          "ticks": 6240,
          "time": 72.55813953488372,
          "velocity": 0.5354330708661418
        },
        {
          "duration": 0.023255813953483084,
          "durationTicks": 2,
          "midi": 78,
          "name": "F#5",
          "ticks": 6240,
          "time": 72.55813953488372,
          "velocity": 0.25984251968503935
        },
        {
          "duration": 0.011627906976741542,
          "durationTicks": 1,
          "midi": 35,
          "name": "B1",
          "ticks": 6241,
          "time": 72.56976744186046,
          "velocity": 0.5511811023622047
        },
        {
          "duration": 0.06976744186046346,
          "durationTicks": 6,
          "midi": 68,
          "name": "G#4",
          "ticks": 6241,
          "time": 72.56976744186046,
          "velocity": 0.5275590551181102
        },
        {
          "duration": 0.023255813953483084,
          "durationTicks": 2,
          "midi": 73,
          "name": "C#5",
          "ticks": 6241,
          "time": 72.56976744186046,
          "velocity": 0.2283464566929134
        },
        {
          "duration": 0.05813953488372192,
          "durationTicks": 5,
          "midi": 41,
          "name": "F2",
          "ticks": 6243,
          "time": 72.59302325581395,
          "velocity": 0.6614173228346457
        },
        {
          "duration": 0.011627906976755753,
          "durationTicks": 1,
          "midi": 52,
          "name": "E3",
          "ticks": 6243,
          "time": 72.59302325581395,
          "velocity": 0.5590551181102362
        },
        {
          "duration": 0.034883720930224626,
          "durationTicks": 3,
          "midi": 74,
          "name": "D5",
          "ticks": 6244,
          "time": 72.6046511627907,
          "velocity": 0.15748031496062992
        },
        {
          "duration": 0.011627906976741542,
          "durationTicks": 1,
          "midi": 54,
          "name": "F#3",
          "ticks": 6245,
          "time": 72.61627906976744,
          "velocity": 0.5511811023622047
        },
        {
          "duration": 0.011627906976741542,
          "durationTicks": 1,
          "midi": 55,
          "name": "G3",
          "ticks": 6246,
          "time": 72.62790697674419,
          "velocity": 0.5669291338582677
        },
        {
          "duration": 0.08139534883721922,
          "durationTicks": 7,
          "midi": 54,
          "name": "F#3",
          "ticks": 6247,
          "time": 72.63953488372093,
          "velocity": 0.5354330708661418
        },
        {
          "duration": 0.023255813953483084,
          "durationTicks": 2,
          "midi": 41,
          "name": "F2",
          "ticks": 6250,
          "time": 72.67441860465117,
          "velocity": 0.33070866141732286
        },
        {
          "duration": 0.023255813953497295,
          "durationTicks": 2,
          "midi": 62,
          "name": "D4",
          "ticks": 6258,
          "time": 72.76744186046511,
          "velocity": 0.41732283464566927
        },
        {
          "duration": 0.023255813953497295,
          "durationTicks": 2,
          "midi": 69,
          "name": "A4",
          "ticks": 6258,
          "time": 72.76744186046511,
          "velocity": 0.47244094488188976
        },
        {
          "duration": 0.03488372093023884,
          "durationTicks": 3,
          "midi": 48,
          "name": "C3",
          "ticks": 6259,
          "time": 72.77906976744185,
          "velocity": 0.5748031496062992
        },
        {
          "duration": 0.023255813953497295,
          "durationTicks": 2,
          "midi": 77,
          "name": "F5",
          "ticks": 6259,
          "time": 72.77906976744185,
          "velocity": 0.2677165354330709
        },
        {
          "duration": 0.023255813953497295,
          "durationTicks": 2,
          "midi": 85,
          "name": "C#6",
          "ticks": 6259,
          "time": 72.77906976744185,
          "velocity": 0.23622047244094488
        },
        {
          "duration": 0.023255813953497295,
          "durationTicks": 2,
          "midi": 87,
          "name": "D#6",
          "ticks": 6259,
          "time": 72.77906976744185,
          "velocity": 0.23622047244094488
        },
        {
          "duration": 0.09302325581394655,
          "durationTicks": 8,
          "midi": 63,
          "name": "D#4",
          "ticks": 6260,
          "time": 72.79069767441861,
          "velocity": 0.5826771653543307
        },
        {
          "duration": 0.3372093023255758,
          "durationTicks": 29,
          "midi": 68,
          "name": "G#4",
          "ticks": 6260,
          "time": 72.79069767441861,
          "velocity": 0.5748031496062992
        },
        {
          "duration": 0.13953488372092693,
          "durationTicks": 12,
          "midi": 73,
          "name": "C#5",
          "ticks": 6260,
          "time": 72.79069767441861,
          "velocity": 0.2677165354330709
        },
        {
          "duration": 0.011627906976741542,
          "durationTicks": 1,
          "midi": 50,
          "name": "D3",
          "ticks": 6262,
          "time": 72.81395348837209,
          "velocity": 0.5984251968503937
        },
        {
          "duration": 0.1860465116279073,
          "durationTicks": 16,
          "midi": 49,
          "name": "C#3",
          "ticks": 6263,
          "time": 72.82558139534883,
          "velocity": 0.6614173228346457
        },
        {
          "duration": 0.023255813953483084,
          "durationTicks": 2,
          "midi": 57,
          "name": "A3",
          "ticks": 6266,
          "time": 72.86046511627907,
          "velocity": 0.29133858267716534
        },
        {
          "duration": 0.05813953488372192,
          "durationTicks": 5,
          "midi": 56,
          "name": "G#3",
          "ticks": 6268,
          "time": 72.88372093023256,
          "velocity": 0.36220472440944884
        },
        {
          "duration": 0.03488372093023884,
          "durationTicks": 3,
          "midi": 50,
          "name": "D3",
          "ticks": 6279,
          "time": 73.01162790697674,
          "velocity": 0.5905511811023622
        },
        {
          "duration": 0.023255813953497295,
          "durationTicks": 2,
          "midi": 76,
          "name": "E5",
          "ticks": 6279,
          "time": 73.01162790697674,
          "velocity": 0.2755905511811024
        },
        {
          "duration": 0.023255813953497295,
          "durationTicks": 2,
          "midi": 79,
          "name": "G5",
          "ticks": 6279,
          "time": 73.01162790697674,
          "velocity": 0.2755905511811024
        },
        {
          "duration": 0.023255813953497295,
          "durationTicks": 2,
          "midi": 81,
          "name": "A5",
          "ticks": 6279,
          "time": 73.01162790697674,
          "velocity": 0.25984251968503935
        },
        {
          "duration": 0.023255813953497295,
          "durationTicks": 2,
          "midi": 84,
          "name": "C6",
          "ticks": 6279,
          "time": 73.01162790697674,
          "velocity": 0.25984251968503935
        },
        {
          "duration": 0.023255813953497295,
          "durationTicks": 2,
          "midi": 85,
          "name": "C#6",
          "ticks": 6279,
          "time": 73.01162790697674,
          "velocity": 0.2755905511811024
        },
        {
          "duration": 0.023255813953497295,
          "durationTicks": 2,
          "midi": 87,
          "name": "D#6",
          "ticks": 6279,
          "time": 73.01162790697674,
          "velocity": 0.25196850393700787
        },
        {
          "duration": 0.011627906976755753,
          "durationTicks": 1,
          "midi": 35,
          "name": "B1",
          "ticks": 6280,
          "time": 73.02325581395348,
          "velocity": 0.6062992125984252
        },
        {
          "duration": 0.13953488372094114,
          "durationTicks": 12,
          "midi": 63,
          "name": "D#4",
          "ticks": 6280,
          "time": 73.02325581395348,
          "velocity": 0.5826771653543307
        },
        {
          "duration": 0.06976744186046346,
          "durationTicks": 6,
          "midi": 74,
          "name": "D5",
          "ticks": 6280,
          "time": 73.02325581395348,
          "velocity": 0.30708661417322836
        },
        {
          "duration": 0.011627906976741542,
          "durationTicks": 1,
          "midi": 36,
          "name": "C2",
          "ticks": 6281,
          "time": 73.03488372093024,
          "velocity": 0.5669291338582677
        },
        {
          "duration": 0.011627906976741542,
          "durationTicks": 1,
          "midi": 43,
          "name": "G2",
          "ticks": 6281,
          "time": 73.03488372093024,
          "velocity": 0.5511811023622047
        },
        {
          "duration": 0.011627906976741542,
          "durationTicks": 1,
          "midi": 45,
          "name": "A2",
          "ticks": 6282,
          "time": 73.04651162790698,
          "velocity": 0.5511811023622047
        },
        {
          "duration": 0.023255813953483084,
          "durationTicks": 2,
          "midi": 55,
          "name": "G3",
          "ticks": 6282,
          "time": 73.04651162790698,
          "velocity": 0.5118110236220472
        },
        {
          "duration": 0.011627906976741542,
          "durationTicks": 1,
          "midi": 41,
          "name": "F2",
          "ticks": 6283,
          "time": 73.05813953488372,
          "velocity": 0.6456692913385826
        },
        {
          "duration": 0.034883720930224626,
          "durationTicks": 3,
          "midi": 51,
          "name": "D#3",
          "ticks": 6283,
          "time": 73.05813953488372,
          "velocity": 0.5511811023622047
        },
        {
          "duration": 0.03488372093023884,
          "durationTicks": 3,
          "midi": 42,
          "name": "F#2",
          "ticks": 6284,
          "time": 73.06976744186046,
          "velocity": 0.6771653543307087
        },
        {
          "duration": 0.13953488372094114,
          "durationTicks": 12,
          "midi": 55,
          "name": "G3",
          "ticks": 6285,
          "time": 73.0813953488372,
          "velocity": 0.4566929133858268
        },
        {
          "duration": 0.03488372093023884,
          "durationTicks": 3,
          "midi": 41,
          "name": "F2",
          "ticks": 6289,
          "time": 73.12790697674419,
          "velocity": 0.33070866141732286
        },
        {
          "duration": 0.09302325581394655,
          "durationTicks": 8,
          "midi": 80,
          "name": "G#5",
          "ticks": 6298,
          "time": 73.23255813953489,
          "velocity": 0.2992125984251969
        },
        {
          "duration": 0.023255813953483084,
          "durationTicks": 2,
          "midi": 82,
          "name": "A#5",
          "ticks": 6298,
          "time": 73.23255813953489,
          "velocity": 0.2677165354330709
        },
        {
          "duration": 0.034883720930224626,
          "durationTicks": 3,
          "midi": 85,
          "name": "C#6",
          "ticks": 6298,
          "time": 73.23255813953489,
          "velocity": 0.2204724409448819
        },
        {
          "duration": 0.1046511627907023,
          "durationTicks": 9,
          "midi": 65,
          "name": "F4",
          "ticks": 6299,
          "time": 73.24418604651163,
          "velocity": 0.5984251968503937
        },
        {
          "duration": 0.023255813953483084,
          "durationTicks": 2,
          "midi": 76,
          "name": "E5",
          "ticks": 6299,
          "time": 73.24418604651163,
          "velocity": 0.2755905511811024
        },
        {
          "duration": 0.023255813953483084,
          "durationTicks": 2,
          "midi": 48,
          "name": "C3",
          "ticks": 6300,
          "time": 73.25581395348837,
          "velocity": 0.5669291338582677
        },
        {
          "duration": 0.1046511627907023,
          "durationTicks": 9,
          "midi": 68,
          "name": "G#4",
          "ticks": 6300,
          "time": 73.25581395348837,
          "velocity": 0.5511811023622047
        },
        {
          "duration": 0.06976744186046346,
          "durationTicks": 6,
          "midi": 83,
          "name": "B5",
          "ticks": 6300,
          "time": 73.25581395348837,
          "velocity": 0.2204724409448819
        },
        {
          "duration": 0.03488372093023884,
          "durationTicks": 3,
          "midi": 61,
          "name": "C#4",
          "ticks": 6301,
          "time": 73.26744186046511,
          "velocity": 0.3543307086614173
        },
        {
          "duration": 0.023255813953497295,
          "durationTicks": 2,
          "midi": 39,
          "name": "D#2",
          "ticks": 6302,
          "time": 73.27906976744185,
          "velocity": 0.3700787401574803
        },
        {
          "duration": 0.011627906976755753,
          "durationTicks": 1,
          "midi": 49,
          "name": "C#3",
          "ticks": 6302,
          "time": 73.27906976744185,
          "velocity": 0.6220472440944882
        },
        {
          "duration": 0.08139534883721922,
          "durationTicks": 7,
          "midi": 75,
          "name": "D#5",
          "ticks": 6302,
          "time": 73.27906976744185,
          "velocity": 0.2283464566929134
        },
        {
          "duration": 0.011627906976741542,
          "durationTicks": 1,
          "midi": 50,
          "name": "D3",
          "ticks": 6303,
          "time": 73.29069767441861,
          "velocity": 0.6220472440944882
        },
        {
          "duration": 0.023255813953483084,
          "durationTicks": 2,
          "midi": 49,
          "name": "C#3",
          "ticks": 6304,
          "time": 73.30232558139535,
          "velocity": 0.5433070866141733
        },
        {
          "duration": 0.03488372093023884,
          "durationTicks": 3,
          "midi": 49,
          "name": "C#3",
          "ticks": 6307,
          "time": 73.33720930232558,
          "velocity": 0.3543307086614173
        },
        {
          "duration": 0.03488372093023884,
          "durationTicks": 3,
          "midi": 57,
          "name": "A3",
          "ticks": 6307,
          "time": 73.33720930232558,
          "velocity": 0.23622047244094488
        },
        {
          "duration": 0.023255813953483084,
          "durationTicks": 2,
          "midi": 72,
          "name": "C5",
          "ticks": 6308,
          "time": 73.34883720930233,
          "velocity": 0.23622047244094488
        },
        {
          "duration": 0.2906976744185954,
          "durationTicks": 25,
          "midi": 63,
          "name": "D#4",
          "ticks": 6309,
          "time": 73.36046511627907,
          "velocity": 0.6141732283464567
        },
        {
          "duration": 0.04651162790698038,
          "durationTicks": 4,
          "midi": 56,
          "name": "G#3",
          "ticks": 6310,
          "time": 73.37209302325581,
          "velocity": 0.28346456692913385
        },
        {
          "duration": 0.023255813953483084,
          "durationTicks": 2,
          "midi": 68,
          "name": "G#4",
          "ticks": 6310,
          "time": 73.37209302325581,
          "velocity": 0.33858267716535434
        },
        {
          "duration": 0.09302325581396076,
          "durationTicks": 8,
          "midi": 49,
          "name": "C#3",
          "ticks": 6311,
          "time": 73.38372093023256,
          "velocity": 0.2204724409448819
        },
        {
          "duration": 0.03488372093023884,
          "durationTicks": 3,
          "midi": 67,
          "name": "G4",
          "ticks": 6312,
          "time": 73.3953488372093,
          "velocity": 0.14960629921259844
        },
        {
          "duration": 0.03488372093023884,
          "durationTicks": 3,
          "midi": 80,
          "name": "G#5",
          "ticks": 6318,
          "time": 73.46511627906976,
          "velocity": 0.2125984251968504
        },
        {
          "duration": 0.034883720930224626,
          "durationTicks": 3,
          "midi": 35,
          "name": "B1",
          "ticks": 6319,
          "time": 73.47674418604652,
          "velocity": 0.6220472440944882
        },
        {
          "duration": 0.023255813953483084,
          "durationTicks": 2,
          "midi": 50,
          "name": "D3",
          "ticks": 6319,
          "time": 73.47674418604652,
          "velocity": 0.6299212598425197
        },
        {
          "duration": 0.023255813953483084,
          "durationTicks": 2,
          "midi": 73,
          "name": "C#5",
          "ticks": 6319,
          "time": 73.47674418604652,
          "velocity": 0.29133858267716534
        },
        {
          "duration": 0.023255813953483084,
          "durationTicks": 2,
          "midi": 78,
          "name": "F#5",
          "ticks": 6319,
          "time": 73.47674418604652,
          "velocity": 0.2283464566929134
        },
        {
          "duration": 0.13953488372092693,
          "durationTicks": 12,
          "midi": 68,
          "name": "G#4",
          "ticks": 6320,
          "time": 73.48837209302326,
          "velocity": 0.5669291338582677
        },
        {
          "duration": 0.06976744186046346,
          "durationTicks": 6,
          "midi": 82,
          "name": "A#5",
          "ticks": 6320,
          "time": 73.48837209302326,
          "velocity": 0.1889763779527559
        },
        {
          "duration": 0.011627906976741542,
          "durationTicks": 1,
          "midi": 44,
          "name": "G#2",
          "ticks": 6321,
          "time": 73.5,
          "velocity": 0.5118110236220472
        },
        {
          "duration": 0.13953488372092693,
          "durationTicks": 12,
          "midi": 51,
          "name": "D#3",
          "ticks": 6321,
          "time": 73.5,
          "velocity": 0.6614173228346457
        },
        {
          "duration": 0.05813953488372192,
          "durationTicks": 5,
          "midi": 74,
          "name": "D5",
          "ticks": 6321,
          "time": 73.5,
          "velocity": 0.18110236220472442
        },
        {
          "duration": 0.06976744186046346,
          "durationTicks": 6,
          "midi": 79,
          "name": "G5",
          "ticks": 6321,
          "time": 73.5,
          "velocity": 0.18110236220472442
        },
        {
          "duration": 0.011627906976741542,
          "durationTicks": 1,
          "midi": 47,
          "name": "B2",
          "ticks": 6322,
          "time": 73.51162790697674,
          "velocity": 0.5275590551181102
        },
        {
          "duration": 0.11627906976744384,
          "durationTicks": 10,
          "midi": 87,
          "name": "D#6",
          "ticks": 6322,
          "time": 73.51162790697674,
          "velocity": 0.13385826771653545
        },
        {
          "duration": 0.03488372093023884,
          "durationTicks": 3,
          "midi": 42,
          "name": "F#2",
          "ticks": 6323,
          "time": 73.52325581395348,
          "velocity": 0.6299212598425197
        },
        {
          "duration": 0.03488372093023884,
          "durationTicks": 3,
          "midi": 41,
          "name": "F2",
          "ticks": 6329,
          "time": 73.59302325581395,
          "velocity": 0.2677165354330709
        },
        {
          "duration": 0.023255813953483084,
          "durationTicks": 2,
          "midi": 57,
          "name": "A3",
          "ticks": 6330,
          "time": 73.6046511627907,
          "velocity": 0.2440944881889764
        },
        {
          "duration": 0.023255813953483084,
          "durationTicks": 2,
          "midi": 56,
          "name": "G#3",
          "ticks": 6332,
          "time": 73.62790697674419,
          "velocity": 0.2992125984251969
        },
        {
          "duration": 0.03488372093023884,
          "durationTicks": 3,
          "midi": 67,
          "name": "G4",
          "ticks": 6332,
          "time": 73.62790697674419,
          "velocity": 0.10236220472440945
        },
        {
          "duration": 0.1046511627907023,
          "durationTicks": 9,
          "midi": 63,
          "name": "D#4",
          "ticks": 6338,
          "time": 73.69767441860465,
          "velocity": 0.5984251968503937
        },
        {
          "duration": 0.023255813953497295,
          "durationTicks": 2,
          "midi": 69,
          "name": "A4",
          "ticks": 6338,
          "time": 73.69767441860465,
          "velocity": 0.5118110236220472
        },
        {
          "duration": 0.023255813953497295,
          "durationTicks": 2,
          "midi": 79,
          "name": "G5",
          "ticks": 6338,
          "time": 73.69767441860465,
          "velocity": 0.28346456692913385
        },
        {
          "duration": 0.03488372093023884,
          "durationTicks": 3,
          "midi": 85,
          "name": "C#6",
          "ticks": 6338,
          "time": 73.69767441860465,
          "velocity": 0.18110236220472442
        },
        {
          "duration": 0.023255813953497295,
          "durationTicks": 2,
          "midi": 29,
          "name": "F1",
          "ticks": 6339,
          "time": 73.70930232558139,
          "velocity": 0.3543307086614173
        },
        {
          "duration": 0.023255813953497295,
          "durationTicks": 2,
          "midi": 48,
          "name": "C3",
          "ticks": 6339,
          "time": 73.70930232558139,
          "velocity": 0.5433070866141733
        },
        {
          "duration": 0.11627906976742963,
          "durationTicks": 10,
          "midi": 68,
          "name": "G#4",
          "ticks": 6340,
          "time": 73.72093023255815,
          "velocity": 0.5354330708661418
        },
        {
          "duration": 0.09302325581394655,
          "durationTicks": 8,
          "midi": 77,
          "name": "F5",
          "ticks": 6340,
          "time": 73.72093023255815,
          "velocity": 0.14173228346456693
        },
        {
          "duration": 0.11627906976744384,
          "durationTicks": 10,
          "midi": 49,
          "name": "C#3",
          "ticks": 6341,
          "time": 73.73255813953489,
          "velocity": 0.5590551181102362
        },
        {
          "duration": 0.13953488372092693,
          "durationTicks": 12,
          "midi": 84,
          "name": "C6",
          "ticks": 6341,
          "time": 73.73255813953489,
          "velocity": 0.23622047244094488
        },
        {
          "duration": 0.13953488372092693,
          "durationTicks": 12,
          "midi": 72,
          "name": "C5",
          "ticks": 6342,
          "time": 73.74418604651163,
          "velocity": 0.13385826771653545
        },
        {
          "duration": 0.034883720930224626,
          "durationTicks": 3,
          "midi": 50,
          "name": "D3",
          "ticks": 6358,
          "time": 73.93023255813954,
          "velocity": 0.6299212598425197
        },
        {
          "duration": 0.17441860465116577,
          "durationTicks": 15,
          "midi": 70,
          "name": "A#4",
          "ticks": 6358,
          "time": 73.93023255813954,
          "velocity": 0.5354330708661418
        },
        {
          "duration": 0.13953488372092693,
          "durationTicks": 12,
          "midi": 85,
          "name": "C#6",
          "ticks": 6358,
          "time": 73.93023255813954,
          "velocity": 0.2440944881889764
        },
        {
          "duration": 0.023255813953483084,
          "durationTicks": 2,
          "midi": 87,
          "name": "D#6",
          "ticks": 6358,
          "time": 73.93023255813954,
          "velocity": 0.23622047244094488
        },
        {
          "duration": 0.011627906976741542,
          "durationTicks": 1,
          "midi": 30,
          "name": "F#1",
          "ticks": 6359,
          "time": 73.94186046511628,
          "velocity": 0.5354330708661418
        },
        {
          "duration": 0.11627906976744384,
          "durationTicks": 10,
          "midi": 63,
          "name": "D#4",
          "ticks": 6359,
          "time": 73.94186046511628,
          "velocity": 0.6062992125984252
        },
        {
          "duration": 0.03488372093023884,
          "durationTicks": 3,
          "midi": 81,
          "name": "A5",
          "ticks": 6359,
          "time": 73.94186046511628,
          "velocity": 0.2125984251968504
        },
        {
          "duration": 0.023255813953483084,
          "durationTicks": 2,
          "midi": 86,
          "name": "D6",
          "ticks": 6359,
          "time": 73.94186046511628,
          "velocity": 0.2440944881889764
        },
        {
          "duration": 0.011627906976741542,
          "durationTicks": 1,
          "midi": 35,
          "name": "B1",
          "ticks": 6360,
          "time": 73.95348837209302,
          "velocity": 0.5905511811023622
        },
        {
          "duration": 0.06976744186046346,
          "durationTicks": 6,
          "midi": 73,
          "name": "C#5",
          "ticks": 6360,
          "time": 73.95348837209302,
          "velocity": 0.30708661417322836
        },
        {
          "duration": 0.1046511627907023,
          "durationTicks": 9,
          "midi": 78,
          "name": "F#5",
          "ticks": 6360,
          "time": 73.95348837209302,
          "velocity": 0.33858267716535434
        },
        {
          "duration": 0.011627906976755753,
          "durationTicks": 1,
          "midi": 41,
          "name": "F2",
          "ticks": 6361,
          "time": 73.96511627906976,
          "velocity": 0.5275590551181102
        },
        {
          "duration": 0.09302325581396076,
          "durationTicks": 8,
          "midi": 51,
          "name": "D#3",
          "ticks": 6361,
          "time": 73.96511627906976,
          "velocity": 0.6456692913385826
        },
        {
          "duration": 0.023255813953483084,
          "durationTicks": 2,
          "midi": 43,
          "name": "G2",
          "ticks": 6362,
          "time": 73.97674418604652,
          "velocity": 0.5590551181102362
        },
        {
          "duration": 0.10465116279068809,
          "durationTicks": 9,
          "midi": 66,
          "name": "F#4",
          "ticks": 6362,
          "time": 73.97674418604652,
          "velocity": 0.3543307086614173
        },
        {
          "duration": 0.10465116279068809,
          "durationTicks": 9,
          "midi": 77,
          "name": "F5",
          "ticks": 6362,
          "time": 73.97674418604652,
          "velocity": 0.3464566929133858
        },
        {
          "duration": 0.04651162790698038,
          "durationTicks": 4,
          "midi": 41,
          "name": "F2",
          "ticks": 6364,
          "time": 74,
          "velocity": 0.6299212598425197
        },
        {
          "duration": 0.03488372093023884,
          "durationTicks": 3,
          "midi": 58,
          "name": "A#3",
          "ticks": 6366,
          "time": 74.02325581395348,
          "velocity": 0.3228346456692913
        },
        {
          "duration": 0.11627906976744384,
          "durationTicks": 10,
          "midi": 79,
          "name": "G5",
          "ticks": 6368,
          "time": 74.04651162790698,
          "velocity": 0.4094488188976378
        },
        {
          "duration": 0.1046511627907023,
          "durationTicks": 9,
          "midi": 48,
          "name": "C3",
          "ticks": 6369,
          "time": 74.05813953488372,
          "velocity": 0.5511811023622047
        },
        {
          "duration": 0.11627906976744384,
          "durationTicks": 10,
          "midi": 64,
          "name": "E4",
          "ticks": 6370,
          "time": 74.06976744186046,
          "velocity": 0.3937007874015748
        },
        {
          "duration": 0.09302325581396076,
          "durationTicks": 8,
          "midi": 83,
          "name": "B5",
          "ticks": 6370,
          "time": 74.06976744186046,
          "velocity": 0.14960629921259844
        },
        {
          "duration": 0.05813953488372192,
          "durationTicks": 5,
          "midi": 67,
          "name": "G4",
          "ticks": 6373,
          "time": 74.1046511627907,
          "velocity": 0.2283464566929134
        },
        {
          "duration": 0.13953488372092693,
          "durationTicks": 12,
          "midi": 70,
          "name": "A#4",
          "ticks": 6378,
          "time": 74.16279069767442,
          "velocity": 0.5511811023622047
        },
        {
          "duration": 0.12790697674418539,
          "durationTicks": 11,
          "midi": 77,
          "name": "F5",
          "ticks": 6378,
          "time": 74.16279069767442,
          "velocity": 0.41732283464566927
        },
        {
          "duration": 0.034883720930224626,
          "durationTicks": 3,
          "midi": 92,
          "name": "G#6",
          "ticks": 6378,
          "time": 74.16279069767442,
          "velocity": 0.13385826771653545
        },
        {
          "duration": 0.023255813953483084,
          "durationTicks": 2,
          "midi": 29,
          "name": "F1",
          "ticks": 6379,
          "time": 74.17441860465117,
          "velocity": 0.3228346456692913
        },
        {
          "duration": 0.09302325581394655,
          "durationTicks": 8,
          "midi": 58,
          "name": "A#3",
          "ticks": 6379,
          "time": 74.17441860465117,
          "velocity": 0.5590551181102362
        },
        {
          "duration": 0.1046511627907023,
          "durationTicks": 9,
          "midi": 65,
          "name": "F4",
          "ticks": 6380,
          "time": 74.18604651162791,
          "velocity": 0.4566929133858268
        },
        {
          "duration": 0.13953488372092693,
          "durationTicks": 12,
          "midi": 80,
          "name": "G#5",
          "ticks": 6380,
          "time": 74.18604651162791,
          "velocity": 0.2204724409448819
        },
        {
          "duration": 0.081395348837205,
          "durationTicks": 7,
          "midi": 46,
          "name": "A#2",
          "ticks": 6381,
          "time": 74.19767441860465,
          "velocity": 0.4645669291338583
        },
        {
          "duration": 0.09302325581396076,
          "durationTicks": 8,
          "midi": 73,
          "name": "C#5",
          "ticks": 6381,
          "time": 74.19767441860465,
          "velocity": 0.33070866141732286
        },
        {
          "duration": 0.023255813953483084,
          "durationTicks": 2,
          "midi": 61,
          "name": "C#4",
          "ticks": 6386,
          "time": 74.25581395348837,
          "velocity": 0.4094488188976378
        },
        {
          "duration": 0.03488372093023884,
          "durationTicks": 3,
          "midi": 83,
          "name": "B5",
          "ticks": 6388,
          "time": 74.27906976744185,
          "velocity": 0.1889763779527559
        },
        {
          "duration": 0.13953488372094114,
          "durationTicks": 12,
          "midi": 90,
          "name": "F#6",
          "ticks": 6388,
          "time": 74.27906976744185,
          "velocity": 0.2047244094488189
        },
        {
          "duration": 0.011627906976741542,
          "durationTicks": 1,
          "midi": 57,
          "name": "A3",
          "ticks": 6389,
          "time": 74.29069767441861,
          "velocity": 0.5275590551181102
        },
        {
          "duration": 0.10465116279068809,
          "durationTicks": 9,
          "midi": 63,
          "name": "D#4",
          "ticks": 6389,
          "time": 74.29069767441861,
          "velocity": 0.6456692913385826
        },
        {
          "duration": 0.11627906976744384,
          "durationTicks": 10,
          "midi": 74,
          "name": "D5",
          "ticks": 6389,
          "time": 74.29069767441861,
          "velocity": 0.41732283464566927
        },
        {
          "duration": 0.12790697674418539,
          "durationTicks": 11,
          "midi": 55,
          "name": "G3",
          "ticks": 6390,
          "time": 74.30232558139535,
          "velocity": 0.5590551181102362
        },
        {
          "duration": 0.09302325581394655,
          "durationTicks": 8,
          "midi": 59,
          "name": "B3",
          "ticks": 6390,
          "time": 74.30232558139535,
          "velocity": 0.5433070866141733
        },
        {
          "duration": 0.11627906976744384,
          "durationTicks": 10,
          "midi": 77,
          "name": "F5",
          "ticks": 6390,
          "time": 74.30232558139535,
          "velocity": 0.3228346456692913
        },
        {
          "duration": 0.081395348837205,
          "durationTicks": 7,
          "midi": 43,
          "name": "G2",
          "ticks": 6391,
          "time": 74.31395348837209,
          "velocity": 0.4881889763779528
        },
        {
          "duration": 0.05813953488372192,
          "durationTicks": 5,
          "midi": 70,
          "name": "A#4",
          "ticks": 6392,
          "time": 74.32558139534883,
          "velocity": 0.36220472440944884
        },
        {
          "duration": 0.023255813953497295,
          "durationTicks": 2,
          "midi": 69,
          "name": "A4",
          "ticks": 6397,
          "time": 74.38372093023256,
          "velocity": 0.3700787401574803
        },
        {
          "duration": 0.023255813953497295,
          "durationTicks": 2,
          "midi": 60,
          "name": "C4",
          "ticks": 6398,
          "time": 74.3953488372093,
          "velocity": 0.5118110236220472
        },
        {
          "duration": 0.023255813953497295,
          "durationTicks": 2,
          "midi": 71,
          "name": "B4",
          "ticks": 6398,
          "time": 74.3953488372093,
          "velocity": 0.48031496062992124
        },
        {
          "duration": 0.011627906976741542,
          "durationTicks": 1,
          "midi": 35,
          "name": "B1",
          "ticks": 6399,
          "time": 74.40697674418605,
          "velocity": 0.5984251968503937
        },
        {
          "duration": 0.011627906976741542,
          "durationTicks": 1,
          "midi": 48,
          "name": "C3",
          "ticks": 6399,
          "time": 74.40697674418605,
          "velocity": 0.5275590551181102
        },
        {
          "duration": 0.11627906976742963,
          "durationTicks": 10,
          "midi": 63,
          "name": "D#4",
          "ticks": 6399,
          "time": 74.40697674418605,
          "velocity": 0.5433070866141733
        },
        {
          "duration": 0.011627906976741542,
          "durationTicks": 1,
          "midi": 40,
          "name": "E2",
          "ticks": 6400,
          "time": 74.4186046511628,
          "velocity": 0.6299212598425197
        },
        {
          "duration": 0.011627906976741542,
          "durationTicks": 1,
          "midi": 50,
          "name": "D3",
          "ticks": 6400,
          "time": 74.4186046511628,
          "velocity": 0.5196850393700787
        },
        {
          "duration": 0.16279069767441,
          "durationTicks": 14,
          "midi": 58,
          "name": "A#3",
          "ticks": 6400,
          "time": 74.4186046511628,
          "velocity": 0.5196850393700787
        },
        {
          "duration": 0.06976744186046346,
          "durationTicks": 6,
          "midi": 73,
          "name": "C#5",
          "ticks": 6400,
          "time": 74.4186046511628,
          "velocity": 0.15748031496062992
        },
        {
          "duration": 0.023255813953483084,
          "durationTicks": 2,
          "midi": 76,
          "name": "E5",
          "ticks": 6400,
          "time": 74.4186046511628,
          "velocity": 0.2440944881889764
        },
        {
          "duration": 0.011627906976741542,
          "durationTicks": 1,
          "midi": 41,
          "name": "F2",
          "ticks": 6401,
          "time": 74.43023255813954,
          "velocity": 0.5196850393700787
        },
        {
          "duration": 0.011627906976741542,
          "durationTicks": 1,
          "midi": 54,
          "name": "F#3",
          "ticks": 6401,
          "time": 74.43023255813954,
          "velocity": 0.5905511811023622
        },
        {
          "duration": 0.011627906976741542,
          "durationTicks": 1,
          "midi": 43,
          "name": "G2",
          "ticks": 6402,
          "time": 74.44186046511628,
          "velocity": 0.5196850393700787
        },
        {
          "duration": 0.03488372093023884,
          "durationTicks": 3,
          "midi": 51,
          "name": "D#3",
          "ticks": 6402,
          "time": 74.44186046511628,
          "velocity": 0.5748031496062992
        },
        {
          "duration": 0.011627906976741542,
          "durationTicks": 1,
          "midi": 42,
          "name": "F#2",
          "ticks": 6403,
          "time": 74.45348837209302,
          "velocity": 0.6062992125984252
        },
        {
          "duration": 0.05813953488372192,
          "durationTicks": 5,
          "midi": 41,
          "name": "F2",
          "ticks": 6404,
          "time": 74.46511627906976,
          "velocity": 0.6456692913385826
        },
        {
          "duration": 0.03488372093023884,
          "durationTicks": 3,
          "midi": 40,
          "name": "E2",
          "ticks": 6409,
          "time": 74.52325581395348,
          "velocity": 0.2755905511811024
        },
        {
          "duration": 0.19767441860464885,
          "durationTicks": 17,
          "midi": 70,
          "name": "A#4",
          "ticks": 6418,
          "time": 74.62790697674419,
          "velocity": 0.5590551181102362
        },
        {
          "duration": 0.1860465116279073,
          "durationTicks": 16,
          "midi": 77,
          "name": "F5",
          "ticks": 6418,
          "time": 74.62790697674419,
          "velocity": 0.25196850393700787
        },
        {
          "duration": 0.081395348837205,
          "durationTicks": 7,
          "midi": 80,
          "name": "G#5",
          "ticks": 6418,
          "time": 74.62790697674419,
          "velocity": 0.23622047244094488
        },
        {
          "duration": 0.081395348837205,
          "durationTicks": 7,
          "midi": 86,
          "name": "D6",
          "ticks": 6418,
          "time": 74.62790697674419,
          "velocity": 0.2204724409448819
        },
        {
          "duration": 0.023255813953497295,
          "durationTicks": 2,
          "midi": 29,
          "name": "F1",
          "ticks": 6419,
          "time": 74.63953488372093,
          "velocity": 0.4094488188976378
        },
        {
          "duration": 0.023255813953497295,
          "durationTicks": 2,
          "midi": 48,
          "name": "C3",
          "ticks": 6419,
          "time": 74.63953488372093,
          "velocity": 0.5984251968503937
        },
        {
          "duration": 0.08139534883721922,
          "durationTicks": 7,
          "midi": 55,
          "name": "G3",
          "ticks": 6419,
          "time": 74.63953488372093,
          "velocity": 0.5433070866141733
        },
        {
          "duration": 0.12790697674418539,
          "durationTicks": 11,
          "midi": 63,
          "name": "D#4",
          "ticks": 6419,
          "time": 74.63953488372093,
          "velocity": 0.5748031496062992
        },
        {
          "duration": 0.023255813953497295,
          "durationTicks": 2,
          "midi": 81,
          "name": "A5",
          "ticks": 6420,
          "time": 74.65116279069767,
          "velocity": 0.23622047244094488
        },
        {
          "duration": 0.05813953488372192,
          "durationTicks": 5,
          "midi": 49,
          "name": "C#3",
          "ticks": 6421,
          "time": 74.66279069767442,
          "velocity": 0.5984251968503937
        },
        {
          "duration": 0.023255813953483084,
          "durationTicks": 2,
          "midi": 51,
          "name": "D#3",
          "ticks": 6427,
          "time": 74.73255813953489,
          "velocity": 0.33070866141732286
        },
        {
          "duration": 0.04651162790698038,
          "durationTicks": 4,
          "midi": 58,
          "name": "A#3",
          "ticks": 6429,
          "time": 74.75581395348837,
          "velocity": 0.25984251968503935
        },
        {
          "duration": 0.05813953488372192,
          "durationTicks": 5,
          "midi": 51,
          "name": "D#3",
          "ticks": 6432,
          "time": 74.79069767441861,
          "velocity": 0.16535433070866143
        },
        {
          "duration": 0.023255813953483084,
          "durationTicks": 2,
          "midi": 76,
          "name": "E5",
          "ticks": 6438,
          "time": 74.86046511627907,
          "velocity": 0.2283464566929134
        },
        {
          "duration": 0.011627906976741542,
          "durationTicks": 1,
          "midi": 36,
          "name": "C2",
          "ticks": 6439,
          "time": 74.87209302325581,
          "velocity": 0.6141732283464567
        },
        {
          "duration": 0.023255813953483084,
          "durationTicks": 2,
          "midi": 55,
          "name": "G3",
          "ticks": 6439,
          "time": 74.87209302325581,
          "velocity": 0.5039370078740157
        },
        {
          "duration": 0.13953488372092693,
          "durationTicks": 12,
          "midi": 63,
          "name": "D#4",
          "ticks": 6439,
          "time": 74.87209302325581,
          "velocity": 0.5354330708661418
        },
        {
          "duration": 0.09302325581394655,
          "durationTicks": 8,
          "midi": 70,
          "name": "A#4",
          "ticks": 6439,
          "time": 74.87209302325581,
          "velocity": 0.5354330708661418
        },
        {
          "duration": 0.081395348837205,
          "durationTicks": 7,
          "midi": 73,
          "name": "C#5",
          "ticks": 6439,
          "time": 74.87209302325581,
          "velocity": 0.33070866141732286
        },
        {
          "duration": 0.011627906976741542,
          "durationTicks": 1,
          "midi": 40,
          "name": "E2",
          "ticks": 6440,
          "time": 74.88372093023256,
          "velocity": 0.6220472440944882
        },
        {
          "duration": 0.011627906976741542,
          "durationTicks": 1,
          "midi": 50,
          "name": "D3",
          "ticks": 6440,
          "time": 74.88372093023256,
          "velocity": 0.5354330708661418
        },
        {
          "duration": 0.011627906976755753,
          "durationTicks": 1,
          "midi": 42,
          "name": "F#2",
          "ticks": 6441,
          "time": 74.8953488372093,
          "velocity": 0.5196850393700787
        },
        {
          "duration": 0.011627906976755753,
          "durationTicks": 1,
          "midi": 53,
          "name": "F3",
          "ticks": 6441,
          "time": 74.8953488372093,
          "velocity": 0.5905511811023622
        },
        {
          "duration": 0.011627906976741542,
          "durationTicks": 1,
          "midi": 43,
          "name": "G2",
          "ticks": 6442,
          "time": 74.90697674418605,
          "velocity": 0.5196850393700787
        },
        {
          "duration": 0.023255813953483084,
          "durationTicks": 2,
          "midi": 51,
          "name": "D#3",
          "ticks": 6442,
          "time": 74.90697674418605,
          "velocity": 0.5354330708661418
        },
        {
          "duration": 0.011627906976741542,
          "durationTicks": 1,
          "midi": 42,
          "name": "F#2",
          "ticks": 6443,
          "time": 74.9186046511628,
          "velocity": 0.6220472440944882
        },
        {
          "duration": 0.05813953488372192,
          "durationTicks": 5,
          "midi": 41,
          "name": "F2",
          "ticks": 6444,
          "time": 74.93023255813954,
          "velocity": 0.6456692913385826
        },
        {
          "duration": 0.011627906976741542,
          "durationTicks": 1,
          "midi": 52,
          "name": "E3",
          "ticks": 6444,
          "time": 74.93023255813954,
          "velocity": 0.5118110236220472
        },
        {
          "duration": 0.04651162790698038,
          "durationTicks": 4,
          "midi": 51,
          "name": "D#3",
          "ticks": 6445,
          "time": 74.94186046511628,
          "velocity": 0.41732283464566927
        },
        {
          "duration": 0.03488372093023884,
          "durationTicks": 3,
          "midi": 79,
          "name": "G5",
          "ticks": 6457,
          "time": 75.0813953488372,
          "velocity": 0.2677165354330709
        },
        {
          "duration": 0.03488372093023884,
          "durationTicks": 3,
          "midi": 81,
          "name": "A5",
          "ticks": 6457,
          "time": 75.0813953488372,
          "velocity": 0.23622047244094488
        },
        {
          "duration": 0.04651162790698038,
          "durationTicks": 4,
          "midi": 83,
          "name": "B5",
          "ticks": 6457,
          "time": 75.0813953488372,
          "velocity": 0.2440944881889764
        },
        {
          "duration": 0.023255813953497295,
          "durationTicks": 2,
          "midi": 86,
          "name": "D6",
          "ticks": 6457,
          "time": 75.0813953488372,
          "velocity": 0.25196850393700787
        },
        {
          "duration": 0.023255813953497295,
          "durationTicks": 2,
          "midi": 55,
          "name": "G3",
          "ticks": 6458,
          "time": 75.09302325581395,
          "velocity": 0.47244094488188976
        },
        {
          "duration": 0.11627906976744384,
          "durationTicks": 10,
          "midi": 65,
          "name": "F4",
          "ticks": 6458,
          "time": 75.09302325581395,
          "velocity": 0.5748031496062992
        },
        {
          "duration": 0.13953488372094114,
          "durationTicks": 12,
          "midi": 70,
          "name": "A#4",
          "ticks": 6458,
          "time": 75.09302325581395,
          "velocity": 0.5905511811023622
        },
        {
          "duration": 0.023255813953483084,
          "durationTicks": 2,
          "midi": 48,
          "name": "C3",
          "ticks": 6459,
          "time": 75.1046511627907,
          "velocity": 0.5826771653543307
        },
        {
          "duration": 0.04651162790696617,
          "durationTicks": 4,
          "midi": 61,
          "name": "C#4",
          "ticks": 6459,
          "time": 75.1046511627907,
          "velocity": 0.4015748031496063
        },
        {
          "duration": 0.081395348837205,
          "durationTicks": 7,
          "midi": 80,
          "name": "G#5",
          "ticks": 6459,
          "time": 75.1046511627907,
          "velocity": 0.2440944881889764
        },
        {
          "duration": 0.05813953488372192,
          "durationTicks": 5,
          "midi": 85,
          "name": "C#6",
          "ticks": 6459,
          "time": 75.1046511627907,
          "velocity": 0.18110236220472442
        },
        {
          "duration": 0.011627906976741542,
          "durationTicks": 1,
          "midi": 49,
          "name": "C#3",
          "ticks": 6461,
          "time": 75.12790697674419,
          "velocity": 0.5905511811023622
        },
        {
          "duration": 0.011627906976741542,
          "durationTicks": 1,
          "midi": 50,
          "name": "D3",
          "ticks": 6462,
          "time": 75.13953488372093,
          "velocity": 0.5826771653543307
        },
        {
          "duration": 0.03488372093023884,
          "durationTicks": 3,
          "midi": 49,
          "name": "C#3",
          "ticks": 6463,
          "time": 75.15116279069767,
          "velocity": 0.5354330708661418
        },
        {
          "duration": 0.023255813953497295,
          "durationTicks": 2,
          "midi": 54,
          "name": "F#3",
          "ticks": 6463,
          "time": 75.15116279069767,
          "velocity": 0.4645669291338583
        },
        {
          "duration": 0.10465116279068809,
          "durationTicks": 9,
          "midi": 58,
          "name": "A#3",
          "ticks": 6465,
          "time": 75.17441860465117,
          "velocity": 0.41732283464566927
        },
        {
          "duration": 0.2325581395348877,
          "durationTicks": 20,
          "midi": 63,
          "name": "D#4",
          "ticks": 6468,
          "time": 75.20930232558139,
          "velocity": 0.5905511811023622
        },
        {
          "duration": 0.05813953488370771,
          "durationTicks": 5,
          "midi": 51,
          "name": "D#3",
          "ticks": 6469,
          "time": 75.22093023255815,
          "velocity": 0.3937007874015748
        },
        {
          "duration": 0.023255813953483084,
          "durationTicks": 2,
          "midi": 51,
          "name": "D#3",
          "ticks": 6477,
          "time": 75.31395348837209,
          "velocity": 0.4881889763779528
        },
        {
          "duration": 0.03488372093023884,
          "durationTicks": 3,
          "midi": 86,
          "name": "D6",
          "ticks": 6477,
          "time": 75.31395348837209,
          "velocity": 0.2677165354330709
        },
        {
          "duration": 0.03488372093023884,
          "durationTicks": 3,
          "midi": 87,
          "name": "D#6",
          "ticks": 6477,
          "time": 75.31395348837209,
          "velocity": 0.2755905511811024
        },
        {
          "duration": 0.023255813953497295,
          "durationTicks": 2,
          "midi": 35,
          "name": "B1",
          "ticks": 6478,
          "time": 75.32558139534883,
          "velocity": 0.6377952755905512
        },
        {
          "duration": 0.09302325581396076,
          "durationTicks": 8,
          "midi": 70,
          "name": "A#4",
          "ticks": 6478,
          "time": 75.32558139534883,
          "velocity": 0.5590551181102362
        },
        {
          "duration": 0.023255813953497295,
          "durationTicks": 2,
          "midi": 78,
          "name": "F#5",
          "ticks": 6478,
          "time": 75.32558139534883,
          "velocity": 0.2992125984251969
        },
        {
          "duration": 0.023255813953497295,
          "durationTicks": 2,
          "midi": 81,
          "name": "A5",
          "ticks": 6478,
          "time": 75.32558139534883,
          "velocity": 0.2992125984251969
        },
        {
          "duration": 0.023255813953497295,
          "durationTicks": 2,
          "midi": 84,
          "name": "C6",
          "ticks": 6478,
          "time": 75.32558139534883,
          "velocity": 0.25984251968503935
        },
        {
          "duration": 0.011627906976755753,
          "durationTicks": 1,
          "midi": 50,
          "name": "D3",
          "ticks": 6479,
          "time": 75.33720930232558,
          "velocity": 0.6141732283464567
        },
        {
          "duration": 0.011627906976741542,
          "durationTicks": 1,
          "midi": 40,
          "name": "E2",
          "ticks": 6480,
          "time": 75.34883720930233,
          "velocity": 0.5511811023622047
        },
        {
          "duration": 0.081395348837205,
          "durationTicks": 7,
          "midi": 51,
          "name": "D#3",
          "ticks": 6480,
          "time": 75.34883720930233,
          "velocity": 0.6535433070866141
        },
        {
          "duration": 0.06976744186046346,
          "durationTicks": 6,
          "midi": 73,
          "name": "C#5",
          "ticks": 6480,
          "time": 75.34883720930233,
          "velocity": 0.25984251968503935
        },
        {
          "duration": 0.06976744186046346,
          "durationTicks": 6,
          "midi": 79,
          "name": "G5",
          "ticks": 6480,
          "time": 75.34883720930233,
          "velocity": 0.23622047244094488
        },
        {
          "duration": 0.011627906976741542,
          "durationTicks": 1,
          "midi": 43,
          "name": "G2",
          "ticks": 6482,
          "time": 75.37209302325581,
          "velocity": 0.5275590551181102
        },
        {
          "duration": 0.011627906976741542,
          "durationTicks": 1,
          "midi": 42,
          "name": "F#2",
          "ticks": 6483,
          "time": 75.38372093023256,
          "velocity": 0.6062992125984252
        },
        {
          "duration": 0.05813953488372192,
          "durationTicks": 5,
          "midi": 41,
          "name": "F2",
          "ticks": 6484,
          "time": 75.3953488372093,
          "velocity": 0.6062992125984252
        },
        {
          "duration": 0.09302325581394655,
          "durationTicks": 8,
          "midi": 66,
          "name": "F#4",
          "ticks": 6485,
          "time": 75.40697674418605,
          "velocity": 0.23622047244094488
        },
        {
          "duration": 0.03488372093023884,
          "durationTicks": 3,
          "midi": 54,
          "name": "F#3",
          "ticks": 6488,
          "time": 75.44186046511628,
          "velocity": 0.36220472440944884
        },
        {
          "duration": 0.04651162790698038,
          "durationTicks": 4,
          "midi": 73,
          "name": "C#5",
          "ticks": 6490,
          "time": 75.46511627906976,
          "velocity": 0.13385826771653545
        },
        {
          "duration": 0.034883720930224626,
          "durationTicks": 3,
          "midi": 86,
          "name": "D6",
          "ticks": 6497,
          "time": 75.54651162790698,
          "velocity": 0.2755905511811024
        },
        {
          "duration": 0.023255813953483084,
          "durationTicks": 2,
          "midi": 28,
          "name": "E1",
          "ticks": 6498,
          "time": 75.55813953488372,
          "velocity": 0.2755905511811024
        },
        {
          "duration": 0.22093023255813193,
          "durationTicks": 19,
          "midi": 63,
          "name": "D#4",
          "ticks": 6498,
          "time": 75.55813953488372,
          "velocity": 0.5748031496062992
        },
        {
          "duration": 0.16279069767442422,
          "durationTicks": 14,
          "midi": 70,
          "name": "A#4",
          "ticks": 6498,
          "time": 75.55813953488372,
          "velocity": 0.5669291338582677
        },
        {
          "duration": 0.023255813953483084,
          "durationTicks": 2,
          "midi": 76,
          "name": "E5",
          "ticks": 6498,
          "time": 75.55813953488372,
          "velocity": 0.28346456692913385
        },
        {
          "duration": 0.06976744186046346,
          "durationTicks": 6,
          "midi": 51,
          "name": "D#3",
          "ticks": 6502,
          "time": 75.6046511627907,
          "velocity": 0.4330708661417323
        },
        {
          "duration": 0.023255813953483084,
          "durationTicks": 2,
          "midi": 51,
          "name": "D#3",
          "ticks": 6509,
          "time": 75.68604651162791,
          "velocity": 0.3779527559055118
        },
        {
          "duration": 0.04651162790698038,
          "durationTicks": 4,
          "midi": 50,
          "name": "D3",
          "ticks": 6511,
          "time": 75.70930232558139,
          "velocity": 0.25984251968503935
        },
        {
          "duration": 0.03488372093023884,
          "durationTicks": 3,
          "midi": 64,
          "name": "E4",
          "ticks": 6517,
          "time": 75.77906976744185,
          "velocity": 0.6535433070866141
        },
        {
          "duration": 0.06976744186047767,
          "durationTicks": 6,
          "midi": 80,
          "name": "G#5",
          "ticks": 6517,
          "time": 75.77906976744185,
          "velocity": 0.2755905511811024
        },
        {
          "duration": 0.03488372093023884,
          "durationTicks": 3,
          "midi": 87,
          "name": "D#6",
          "ticks": 6517,
          "time": 75.77906976744185,
          "velocity": 0.28346456692913385
        },
        {
          "duration": 0.03488372093023884,
          "durationTicks": 3,
          "midi": 88,
          "name": "E6",
          "ticks": 6517,
          "time": 75.77906976744185,
          "velocity": 0.2755905511811024
        },
        {
          "duration": 0.011627906976741542,
          "durationTicks": 1,
          "midi": 35,
          "name": "B1",
          "ticks": 6518,
          "time": 75.79069767441861,
          "velocity": 0.5669291338582677
        },
        {
          "duration": 0.011627906976741542,
          "durationTicks": 1,
          "midi": 53,
          "name": "F3",
          "ticks": 6518,
          "time": 75.79069767441861,
          "velocity": 0.5748031496062992
        },
        {
          "duration": 0.04651162790696617,
          "durationTicks": 4,
          "midi": 72,
          "name": "C5",
          "ticks": 6518,
          "time": 75.79069767441861,
          "velocity": 0.5511811023622047
        },
        {
          "duration": 0.13953488372092693,
          "durationTicks": 12,
          "midi": 78,
          "name": "F#5",
          "ticks": 6518,
          "time": 75.79069767441861,
          "velocity": 0.36220472440944884
        },
        {
          "duration": 0.11627906976744384,
          "durationTicks": 10,
          "midi": 83,
          "name": "B5",
          "ticks": 6518,
          "time": 75.79069767441861,
          "velocity": 0.29133858267716534
        },
        {
          "duration": 0.023255813953483084,
          "durationTicks": 2,
          "midi": 86,
          "name": "D6",
          "ticks": 6518,
          "time": 75.79069767441861,
          "velocity": 0.29133858267716534
        },
        {
          "duration": 0.011627906976741542,
          "durationTicks": 1,
          "midi": 40,
          "name": "E2",
          "ticks": 6519,
          "time": 75.80232558139535,
          "velocity": 0.5984251968503937
        },
        {
          "duration": 0.011627906976741542,
          "durationTicks": 1,
          "midi": 51,
          "name": "D#3",
          "ticks": 6519,
          "time": 75.80232558139535,
          "velocity": 0.6141732283464567
        },
        {
          "duration": 0.06976744186046346,
          "durationTicks": 6,
          "midi": 59,
          "name": "B3",
          "ticks": 6519,
          "time": 75.80232558139535,
          "velocity": 0.5039370078740157
        },
        {
          "duration": 0.023255813953483084,
          "durationTicks": 2,
          "midi": 44,
          "name": "G#2",
          "ticks": 6520,
          "time": 75.81395348837209,
          "velocity": 0.5433070866141733
        },
        {
          "duration": 0.011627906976741542,
          "durationTicks": 1,
          "midi": 52,
          "name": "E3",
          "ticks": 6520,
          "time": 75.81395348837209,
          "velocity": 0.6614173228346457
        },
        {
          "duration": 0.081395348837205,
          "durationTicks": 7,
          "midi": 63,
          "name": "D#4",
          "ticks": 6520,
          "time": 75.81395348837209,
          "velocity": 0.5826771653543307
        },
        {
          "duration": 0.011627906976741542,
          "durationTicks": 1,
          "midi": 53,
          "name": "F3",
          "ticks": 6521,
          "time": 75.82558139534883,
          "velocity": 0.6692913385826772
        },
        {
          "duration": 0.03488372093023884,
          "durationTicks": 3,
          "midi": 74,
          "name": "D5",
          "ticks": 6521,
          "time": 75.82558139534883,
          "velocity": 0.16535433070866143
        },
        {
          "duration": 0.13953488372092693,
          "durationTicks": 12,
          "midi": 85,
          "name": "C#6",
          "ticks": 6521,
          "time": 75.82558139534883,
          "velocity": 0.1968503937007874
        },
        {
          "duration": 0.011627906976755753,
          "durationTicks": 1,
          "midi": 29,
          "name": "F1",
          "ticks": 6522,
          "time": 75.83720930232558,
          "velocity": 0.5590551181102362
        },
        {
          "duration": 0.011627906976755753,
          "durationTicks": 1,
          "midi": 52,
          "name": "E3",
          "ticks": 6522,
          "time": 75.83720930232558,
          "velocity": 0.5826771653543307
        },
        {
          "duration": 0.011627906976755753,
          "durationTicks": 1,
          "midi": 55,
          "name": "G3",
          "ticks": 6522,
          "time": 75.83720930232558,
          "velocity": 0.5196850393700787
        },
        {
          "duration": 0.04651162790696617,
          "durationTicks": 4,
          "midi": 41,
          "name": "F2",
          "ticks": 6523,
          "time": 75.84883720930233,
          "velocity": 0.6535433070866141
        },
        {
          "duration": 0.011627906976741542,
          "durationTicks": 1,
          "midi": 51,
          "name": "D#3",
          "ticks": 6523,
          "time": 75.84883720930233,
          "velocity": 0.6220472440944882
        },
        {
          "duration": 0.023255813953497295,
          "durationTicks": 2,
          "midi": 52,
          "name": "E3",
          "ticks": 6526,
          "time": 75.88372093023256,
          "velocity": 0.4566929133858268
        },
        {
          "duration": 0.023255813953497295,
          "durationTicks": 2,
          "midi": 59,
          "name": "B3",
          "ticks": 6527,
          "time": 75.8953488372093,
          "velocity": 0.4094488188976378
        },
        {
          "duration": 0.15116279069768268,
          "durationTicks": 13,
          "midi": 80,
          "name": "G#5",
          "ticks": 6527,
          "time": 75.8953488372093,
          "velocity": 0.3779527559055118
        },
        {
          "duration": 0.023255813953483084,
          "durationTicks": 2,
          "midi": 48,
          "name": "C3",
          "ticks": 6528,
          "time": 75.90697674418605,
          "velocity": 0.5354330708661418
        },
        {
          "duration": 0.023255813953483084,
          "durationTicks": 2,
          "midi": 54,
          "name": "F#3",
          "ticks": 6528,
          "time": 75.90697674418605,
          "velocity": 0.47244094488188976
        },
        {
          "duration": 0.05813953488372192,
          "durationTicks": 5,
          "midi": 61,
          "name": "C#4",
          "ticks": 6529,
          "time": 75.9186046511628,
          "velocity": 0.44881889763779526
        },
        {
          "duration": 0.10465116279068809,
          "durationTicks": 9,
          "midi": 68,
          "name": "G#4",
          "ticks": 6529,
          "time": 75.9186046511628,
          "velocity": 0.2440944881889764
        },
        {
          "duration": 0.09302325581394655,
          "durationTicks": 8,
          "midi": 49,
          "name": "C#3",
          "ticks": 6530,
          "time": 75.93023255813954,
          "velocity": 0.5118110236220472
        },
        {
          "duration": 0.081395348837205,
          "durationTicks": 7,
          "midi": 77,
          "name": "F5",
          "ticks": 6530,
          "time": 75.93023255813954,
          "velocity": 0.36220472440944884
        },
        {
          "duration": 0.023255813953483084,
          "durationTicks": 2,
          "midi": 60,
          "name": "C4",
          "ticks": 6534,
          "time": 75.97674418604652,
          "velocity": 0.33070866141732286
        },
        {
          "duration": 0.06976744186046346,
          "durationTicks": 6,
          "midi": 72,
          "name": "C5",
          "ticks": 6537,
          "time": 76.01162790697674,
          "velocity": 0.5905511811023622
        },
        {
          "duration": 0.12790697674418539,
          "durationTicks": 11,
          "midi": 78,
          "name": "F#5",
          "ticks": 6537,
          "time": 76.01162790697674,
          "velocity": 0.4251968503937008
        },
        {
          "duration": 0.03488372093023884,
          "durationTicks": 3,
          "midi": 83,
          "name": "B5",
          "ticks": 6537,
          "time": 76.01162790697674,
          "velocity": 0.2125984251968504
        },
        {
          "duration": 0.03488372093023884,
          "durationTicks": 3,
          "midi": 85,
          "name": "C#6",
          "ticks": 6537,
          "time": 76.01162790697674,
          "velocity": 0.2440944881889764
        },
        {
          "duration": 0.011627906976755753,
          "durationTicks": 1,
          "midi": 60,
          "name": "C4",
          "ticks": 6538,
          "time": 76.02325581395348,
          "velocity": 0.5354330708661418
        },
        {
          "duration": 0.1046511627907023,
          "durationTicks": 9,
          "midi": 66,
          "name": "F#4",
          "ticks": 6538,
          "time": 76.02325581395348,
          "velocity": 0.30708661417322836
        },
        {
          "duration": 0.13953488372094114,
          "durationTicks": 12,
          "midi": 81,
          "name": "A5",
          "ticks": 6538,
          "time": 76.02325581395348,
          "velocity": 0.25196850393700787
        },
        {
          "duration": 0.023255813953497295,
          "durationTicks": 2,
          "midi": 87,
          "name": "D#6",
          "ticks": 6538,
          "time": 76.02325581395348,
          "velocity": 0.2440944881889764
        },
        {
          "duration": 0.081395348837205,
          "durationTicks": 7,
          "midi": 59,
          "name": "B3",
          "ticks": 6539,
          "time": 76.03488372093024,
          "velocity": 0.5433070866141733
        },
        {
          "duration": 0.081395348837205,
          "durationTicks": 7,
          "midi": 47,
          "name": "B2",
          "ticks": 6540,
          "time": 76.04651162790698,
          "velocity": 0.48031496062992124
        },
        {
          "duration": 0.081395348837205,
          "durationTicks": 7,
          "midi": 74,
          "name": "D5",
          "ticks": 6541,
          "time": 76.05813953488372,
          "velocity": 0.30708661417322836
        },
        {
          "duration": 0.034883720930224626,
          "durationTicks": 3,
          "midi": 62,
          "name": "D4",
          "ticks": 6545,
          "time": 76.1046511627907,
          "velocity": 0.3858267716535433
        },
        {
          "duration": 0.023255813953483084,
          "durationTicks": 2,
          "midi": 55,
          "name": "G3",
          "ticks": 6547,
          "time": 76.12790697674419,
          "velocity": 0.4881889763779528
        },
        {
          "duration": 0.09302325581396076,
          "durationTicks": 8,
          "midi": 80,
          "name": "G#5",
          "ticks": 6547,
          "time": 76.12790697674419,
          "velocity": 0.1732283464566929
        },
        {
          "duration": 0.011627906976741542,
          "durationTicks": 1,
          "midi": 64,
          "name": "E4",
          "ticks": 6548,
          "time": 76.13953488372093,
          "velocity": 0.5354330708661418
        },
        {
          "duration": 0.1046511627907023,
          "durationTicks": 9,
          "midi": 68,
          "name": "G#4",
          "ticks": 6548,
          "time": 76.13953488372093,
          "velocity": 0.3937007874015748
        },
        {
          "duration": 0.11627906976744384,
          "durationTicks": 10,
          "midi": 75,
          "name": "D#5",
          "ticks": 6548,
          "time": 76.13953488372093,
          "velocity": 0.3937007874015748
        },
        {
          "duration": 0.04651162790698038,
          "durationTicks": 4,
          "midi": 56,
          "name": "G#3",
          "ticks": 6549,
          "time": 76.15116279069767,
          "velocity": 0.5826771653543307
        },
        {
          "duration": 0.09302325581396076,
          "durationTicks": 8,
          "midi": 63,
          "name": "D#4",
          "ticks": 6549,
          "time": 76.15116279069767,
          "velocity": 0.5748031496062992
        },
        {
          "duration": 0.1046511627907023,
          "durationTicks": 9,
          "midi": 78,
          "name": "F#5",
          "ticks": 6549,
          "time": 76.15116279069767,
          "velocity": 0.3228346456692913
        },
        {
          "duration": 0.12790697674418539,
          "durationTicks": 11,
          "midi": 82,
          "name": "A#5",
          "ticks": 6549,
          "time": 76.15116279069767,
          "velocity": 0.2755905511811024
        },
        {
          "duration": 0.081395348837205,
          "durationTicks": 7,
          "midi": 44,
          "name": "G#2",
          "ticks": 6550,
          "time": 76.16279069767442,
          "velocity": 0.4881889763779528
        },
        {
          "duration": 0.10465116279068809,
          "durationTicks": 9,
          "midi": 73,
          "name": "C#5",
          "ticks": 6550,
          "time": 76.16279069767442,
          "velocity": 0.5433070866141733
        },
        {
          "duration": 0.023255813953497295,
          "durationTicks": 2,
          "midi": 55,
          "name": "G3",
          "ticks": 6553,
          "time": 76.19767441860465,
          "velocity": 0.5748031496062992
        },
        {
          "duration": 0.04651162790696617,
          "durationTicks": 4,
          "midi": 54,
          "name": "F#3",
          "ticks": 6555,
          "time": 76.22093023255815,
          "velocity": 0.5039370078740157
        },
        {
          "duration": 0.023255813953483084,
          "durationTicks": 2,
          "midi": 59,
          "name": "B3",
          "ticks": 6556,
          "time": 76.23255813953489,
          "velocity": 0.4251968503937008
        },
        {
          "duration": 0.023255813953483084,
          "durationTicks": 2,
          "midi": 62,
          "name": "D4",
          "ticks": 6557,
          "time": 76.24418604651163,
          "velocity": 0.5354330708661418
        },
        {
          "duration": 0.034883720930224626,
          "durationTicks": 3,
          "midi": 86,
          "name": "D6",
          "ticks": 6557,
          "time": 76.24418604651163,
          "velocity": 0.2440944881889764
        },
        {
          "duration": 0.023255813953483084,
          "durationTicks": 2,
          "midi": 88,
          "name": "E6",
          "ticks": 6557,
          "time": 76.24418604651163,
          "velocity": 0.2283464566929134
        },
        {
          "duration": 0.011627906976741542,
          "durationTicks": 1,
          "midi": 36,
          "name": "C2",
          "ticks": 6558,
          "time": 76.25581395348837,
          "velocity": 0.5905511811023622
        },
        {
          "duration": 0.023255813953483084,
          "durationTicks": 2,
          "midi": 51,
          "name": "D#3",
          "ticks": 6558,
          "time": 76.25581395348837,
          "velocity": 0.49606299212598426
        },
        {
          "duration": 0.023255813953483084,
          "durationTicks": 2,
          "midi": 76,
          "name": "E5",
          "ticks": 6558,
          "time": 76.25581395348837,
          "velocity": 0.30708661417322836
        },
        {
          "duration": 0.023255813953483084,
          "durationTicks": 2,
          "midi": 81,
          "name": "A5",
          "ticks": 6558,
          "time": 76.25581395348837,
          "velocity": 0.2440944881889764
        },
        {
          "duration": 0.011627906976741542,
          "durationTicks": 1,
          "midi": 40,
          "name": "E2",
          "ticks": 6559,
          "time": 76.26744186046511,
          "velocity": 0.6062992125984252
        },
        {
          "duration": 0.011627906976741542,
          "durationTicks": 1,
          "midi": 55,
          "name": "G3",
          "ticks": 6559,
          "time": 76.26744186046511,
          "velocity": 0.5511811023622047
        },
        {
          "duration": 0.11627906976744384,
          "durationTicks": 10,
          "midi": 63,
          "name": "D#4",
          "ticks": 6559,
          "time": 76.26744186046511,
          "velocity": 0.5669291338582677
        },
        {
          "duration": 0.06976744186046346,
          "durationTicks": 6,
          "midi": 72,
          "name": "C5",
          "ticks": 6559,
          "time": 76.26744186046511,
          "velocity": 0.5354330708661418
        },
        {
          "duration": 0.03488372093023884,
          "durationTicks": 3,
          "midi": 78,
          "name": "F#5",
          "ticks": 6559,
          "time": 76.26744186046511,
          "velocity": 0.31496062992125984
        },
        {
          "duration": 0.011627906976755753,
          "durationTicks": 1,
          "midi": 43,
          "name": "G2",
          "ticks": 6560,
          "time": 76.27906976744185,
          "velocity": 0.5118110236220472
        },
        {
          "duration": 0.011627906976755753,
          "durationTicks": 1,
          "midi": 53,
          "name": "F3",
          "ticks": 6560,
          "time": 76.27906976744185,
          "velocity": 0.6062992125984252
        },
        {
          "duration": 0.011627906976741542,
          "durationTicks": 1,
          "midi": 54,
          "name": "F#3",
          "ticks": 6561,
          "time": 76.29069767441861,
          "velocity": 0.5590551181102362
        },
        {
          "duration": 0.04651162790696617,
          "durationTicks": 4,
          "midi": 74,
          "name": "D5",
          "ticks": 6561,
          "time": 76.29069767441861,
          "velocity": 0.13385826771653545
        },
        {
          "duration": 0.05813953488372192,
          "durationTicks": 5,
          "midi": 41,
          "name": "F2",
          "ticks": 6562,
          "time": 76.30232558139535,
          "velocity": 0.6771653543307087
        },
        {
          "duration": 0.034883720930224626,
          "durationTicks": 3,
          "midi": 55,
          "name": "G3",
          "ticks": 6562,
          "time": 76.30232558139535,
          "velocity": 0.5354330708661418
        },
        {
          "duration": 0.081395348837205,
          "durationTicks": 7,
          "midi": 55,
          "name": "G3",
          "ticks": 6566,
          "time": 76.34883720930233,
          "velocity": 0.31496062992125984
        },
        {
          "duration": 0.023255813953483084,
          "durationTicks": 2,
          "midi": 39,
          "name": "D#2",
          "ticks": 6567,
          "time": 76.36046511627907,
          "velocity": 0.3779527559055118
        },
        {
          "duration": 0.06976744186046346,
          "durationTicks": 6,
          "midi": 40,
          "name": "E2",
          "ticks": 6571,
          "time": 76.40697674418605,
          "velocity": 0.25196850393700787
        },
        {
          "duration": 0.023255813953497295,
          "durationTicks": 2,
          "midi": 73,
          "name": "C#5",
          "ticks": 6576,
          "time": 76.46511627906976,
          "velocity": 0.4566929133858268
        },
        {
          "duration": 0.05813953488372192,
          "durationTicks": 5,
          "midi": 81,
          "name": "A5",
          "ticks": 6577,
          "time": 76.47674418604652,
          "velocity": 0.25196850393700787
        },
        {
          "duration": 0.04651162790696617,
          "durationTicks": 4,
          "midi": 83,
          "name": "B5",
          "ticks": 6577,
          "time": 76.47674418604652,
          "velocity": 0.25196850393700787
        },
        {
          "duration": 0.023255813953483084,
          "durationTicks": 2,
          "midi": 86,
          "name": "D6",
          "ticks": 6577,
          "time": 76.47674418604652,
          "velocity": 0.2440944881889764
        },
        {
          "duration": 0.023255813953483084,
          "durationTicks": 2,
          "midi": 88,
          "name": "E6",
          "ticks": 6577,
          "time": 76.47674418604652,
          "velocity": 0.25984251968503935
        },
        {
          "duration": 0.023255813953483084,
          "durationTicks": 2,
          "midi": 48,
          "name": "C3",
          "ticks": 6578,
          "time": 76.48837209302326,
          "velocity": 0.5826771653543307
        },
        {
          "duration": 0.16279069767441,
          "durationTicks": 14,
          "midi": 63,
          "name": "D#4",
          "ticks": 6578,
          "time": 76.48837209302326,
          "velocity": 0.5905511811023622
        },
        {
          "duration": 0.09302325581394655,
          "durationTicks": 8,
          "midi": 72,
          "name": "C5",
          "ticks": 6578,
          "time": 76.48837209302326,
          "velocity": 0.5511811023622047
        },
        {
          "duration": 0.023255813953483084,
          "durationTicks": 2,
          "midi": 77,
          "name": "F5",
          "ticks": 6578,
          "time": 76.48837209302326,
          "velocity": 0.2755905511811024
        },
        {
          "duration": 0.023255813953483084,
          "durationTicks": 2,
          "midi": 82,
          "name": "A#5",
          "ticks": 6578,
          "time": 76.48837209302326,
          "velocity": 0.2283464566929134
        },
        {
          "duration": 0.011627906976741542,
          "durationTicks": 1,
          "midi": 50,
          "name": "D3",
          "ticks": 6580,
          "time": 76.51162790697674,
          "velocity": 0.6141732283464567
        },
        {
          "duration": 0.13953488372092693,
          "durationTicks": 12,
          "midi": 78,
          "name": "F#5",
          "ticks": 6580,
          "time": 76.51162790697674,
          "velocity": 0.3543307086614173
        },
        {
          "duration": 0.03488372093023884,
          "durationTicks": 3,
          "midi": 80,
          "name": "G#5",
          "ticks": 6580,
          "time": 76.51162790697674,
          "velocity": 0.10236220472440945
        },
        {
          "duration": 0.04651162790698038,
          "durationTicks": 4,
          "midi": 49,
          "name": "C#3",
          "ticks": 6581,
          "time": 76.52325581395348,
          "velocity": 0.5905511811023622
        },
        {
          "duration": 0.011627906976755753,
          "durationTicks": 1,
          "midi": 53,
          "name": "F3",
          "ticks": 6581,
          "time": 76.52325581395348,
          "velocity": 0.5275590551181102
        },
        {
          "duration": 0.023255813953483084,
          "durationTicks": 2,
          "midi": 60,
          "name": "C4",
          "ticks": 6583,
          "time": 76.54651162790698,
          "velocity": 0.4094488188976378
        },
        {
          "duration": 0.081395348837205,
          "durationTicks": 7,
          "midi": 59,
          "name": "B3",
          "ticks": 6585,
          "time": 76.56976744186046,
          "velocity": 0.3543307086614173
        },
        {
          "duration": 0.03488372093023884,
          "durationTicks": 3,
          "midi": 54,
          "name": "F#3",
          "ticks": 6586,
          "time": 76.5813953488372,
          "velocity": 0.33858267716535434
        },
        {
          "duration": 0.05813953488372192,
          "durationTicks": 5,
          "midi": 73,
          "name": "C#5",
          "ticks": 6586,
          "time": 76.5813953488372,
          "velocity": 0.25984251968503935
        },
        {
          "duration": 0.03488372093023884,
          "durationTicks": 3,
          "midi": 66,
          "name": "F#4",
          "ticks": 6591,
          "time": 76.63953488372093,
          "velocity": 0.10236220472440945
        },
        {
          "duration": 0.023255813953497295,
          "durationTicks": 2,
          "midi": 73,
          "name": "C#5",
          "ticks": 6596,
          "time": 76.69767441860465,
          "velocity": 0.4409448818897638
        },
        {
          "duration": 0.03488372093023884,
          "durationTicks": 3,
          "midi": 77,
          "name": "F5",
          "ticks": 6596,
          "time": 76.69767441860465,
          "velocity": 0.2992125984251969
        },
        {
          "duration": 0.023255813953497295,
          "durationTicks": 2,
          "midi": 79,
          "name": "G5",
          "ticks": 6597,
          "time": 76.70930232558139,
          "velocity": 0.28346456692913385
        },
        {
          "duration": 0.023255813953497295,
          "durationTicks": 2,
          "midi": 81,
          "name": "A5",
          "ticks": 6597,
          "time": 76.70930232558139,
          "velocity": 0.28346456692913385
        },
        {
          "duration": 0.023255813953497295,
          "durationTicks": 2,
          "midi": 87,
          "name": "D#6",
          "ticks": 6597,
          "time": 76.70930232558139,
          "velocity": 0.23622047244094488
        },
        {
          "duration": 0.023255813953497295,
          "durationTicks": 2,
          "midi": 88,
          "name": "E6",
          "ticks": 6597,
          "time": 76.70930232558139,
          "velocity": 0.2283464566929134
        },
        {
          "duration": 0.011627906976741542,
          "durationTicks": 1,
          "midi": 36,
          "name": "C2",
          "ticks": 6598,
          "time": 76.72093023255815,
          "velocity": 0.5984251968503937
        },
        {
          "duration": 0.023255813953483084,
          "durationTicks": 2,
          "midi": 56,
          "name": "G#3",
          "ticks": 6598,
          "time": 76.72093023255815,
          "velocity": 0.4881889763779528
        },
        {
          "duration": 0.13953488372092693,
          "durationTicks": 12,
          "midi": 63,
          "name": "D#4",
          "ticks": 6598,
          "time": 76.72093023255815,
          "velocity": 0.5905511811023622
        },
        {
          "duration": 0.09302325581394655,
          "durationTicks": 8,
          "midi": 72,
          "name": "C5",
          "ticks": 6598,
          "time": 76.72093023255815,
          "velocity": 0.5275590551181102
        },
        {
          "duration": 0.011627906976741542,
          "durationTicks": 1,
          "midi": 41,
          "name": "F2",
          "ticks": 6599,
          "time": 76.73255813953489,
          "velocity": 0.6062992125984252
        },
        {
          "duration": 0.05813953488372192,
          "durationTicks": 5,
          "midi": 74,
          "name": "D5",
          "ticks": 6599,
          "time": 76.73255813953489,
          "velocity": 0.18110236220472442
        },
        {
          "duration": 0.011627906976741542,
          "durationTicks": 1,
          "midi": 52,
          "name": "E3",
          "ticks": 6600,
          "time": 76.74418604651163,
          "velocity": 0.5826771653543307
        },
        {
          "duration": 0.04651162790698038,
          "durationTicks": 4,
          "midi": 67,
          "name": "G4",
          "ticks": 6600,
          "time": 76.74418604651163,
          "velocity": 0.11811023622047244
        },
        {
          "duration": 0.011627906976741542,
          "durationTicks": 1,
          "midi": 45,
          "name": "A2",
          "ticks": 6601,
          "time": 76.75581395348837,
          "velocity": 0.5118110236220472
        },
        {
          "duration": 0.04651162790698038,
          "durationTicks": 4,
          "midi": 41,
          "name": "F2",
          "ticks": 6602,
          "time": 76.76744186046511,
          "velocity": 0.6771653543307087
        },
        {
          "duration": 0.04651162790698038,
          "durationTicks": 4,
          "midi": 55,
          "name": "G3",
          "ticks": 6606,
          "time": 76.81395348837209,
          "velocity": 0.2992125984251969
        },
        {
          "duration": 0.023255813953497295,
          "durationTicks": 2,
          "midi": 39,
          "name": "D#2",
          "ticks": 6607,
          "time": 76.82558139534883,
          "velocity": 0.3700787401574803
        },
        {
          "duration": 0.06976744186046346,
          "durationTicks": 6,
          "midi": 40,
          "name": "E2",
          "ticks": 6611,
          "time": 76.87209302325581,
          "velocity": 0.2992125984251969
        },
        {
          "duration": 0.06976744186046346,
          "durationTicks": 6,
          "midi": 72,
          "name": "C5",
          "ticks": 6616,
          "time": 76.93023255813954,
          "velocity": 0.5275590551181102
        },
        {
          "duration": 0.034883720930224626,
          "durationTicks": 3,
          "midi": 81,
          "name": "A5",
          "ticks": 6616,
          "time": 76.93023255813954,
          "velocity": 0.2440944881889764
        },
        {
          "duration": 0.1046511627907023,
          "durationTicks": 9,
          "midi": 83,
          "name": "B5",
          "ticks": 6616,
          "time": 76.93023255813954,
          "velocity": 0.28346456692913385
        },
        {
          "duration": 0.03488372093023884,
          "durationTicks": 3,
          "midi": 30,
          "name": "F#1",
          "ticks": 6617,
          "time": 76.94186046511628,
          "velocity": 0.44881889763779526
        },
        {
          "duration": 0.03488372093023884,
          "durationTicks": 3,
          "midi": 48,
          "name": "C3",
          "ticks": 6617,
          "time": 76.94186046511628,
          "velocity": 0.5748031496062992
        },
        {
          "duration": 0.11627906976744384,
          "durationTicks": 10,
          "midi": 65,
          "name": "F4",
          "ticks": 6617,
          "time": 76.94186046511628,
          "velocity": 0.5984251968503937
        },
        {
          "duration": 0.081395348837205,
          "durationTicks": 7,
          "midi": 80,
          "name": "G#5",
          "ticks": 6617,
          "time": 76.94186046511628,
          "velocity": 0.2992125984251969
        },
        {
          "duration": 0.05813953488372192,
          "durationTicks": 5,
          "midi": 61,
          "name": "C#4",
          "ticks": 6618,
          "time": 76.95348837209302,
          "velocity": 0.41732283464566927
        },
        {
          "duration": 0.023255813953483084,
          "durationTicks": 2,
          "midi": 50,
          "name": "D3",
          "ticks": 6620,
          "time": 76.97674418604652,
          "velocity": 0.6377952755905512
        },
        {
          "duration": 0.10465116279068809,
          "durationTicks": 9,
          "midi": 85,
          "name": "C#6",
          "ticks": 6621,
          "time": 76.98837209302326,
          "velocity": 0.1732283464566929
        },
        {
          "duration": 0.011627906976741542,
          "durationTicks": 1,
          "midi": 49,
          "name": "C#3",
          "ticks": 6622,
          "time": 77,
          "velocity": 0.5354330708661418
        },
        {
          "duration": 0.06976744186046346,
          "durationTicks": 6,
          "midi": 78,
          "name": "F#5",
          "ticks": 6622,
          "time": 77,
          "velocity": 0.2755905511811024
        },
        {
          "duration": 0.03488372093023884,
          "durationTicks": 3,
          "midi": 59,
          "name": "B3",
          "ticks": 6624,
          "time": 77.02325581395348,
          "velocity": 0.2755905511811024
        },
        {
          "duration": 0.03488372093023884,
          "durationTicks": 3,
          "midi": 71,
          "name": "B4",
          "ticks": 6624,
          "time": 77.02325581395348,
          "velocity": 0.3228346456692913
        },
        {
          "duration": 0.034883720930224626,
          "durationTicks": 3,
          "midi": 49,
          "name": "C#3",
          "ticks": 6625,
          "time": 77.03488372093024,
          "velocity": 0.33858267716535434
        },
        {
          "duration": 0.24418604651162923,
          "durationTicks": 21,
          "midi": 63,
          "name": "D#4",
          "ticks": 6627,
          "time": 77.05813953488372,
          "velocity": 0.6062992125984252
        },
        {
          "duration": 0.023255813953483084,
          "durationTicks": 2,
          "midi": 71,
          "name": "B4",
          "ticks": 6628,
          "time": 77.06976744186046,
          "velocity": 0.3228346456692913
        },
        {
          "duration": 0.023255813953483084,
          "durationTicks": 2,
          "midi": 72,
          "name": "C5",
          "ticks": 6628,
          "time": 77.06976744186046,
          "velocity": 0.28346456692913385
        },
        {
          "duration": 0.04651162790698038,
          "durationTicks": 4,
          "midi": 78,
          "name": "F#5",
          "ticks": 6629,
          "time": 77.0813953488372,
          "velocity": 0.2125984251968504
        },
        {
          "duration": 0.03488372093023884,
          "durationTicks": 3,
          "midi": 55,
          "name": "G3",
          "ticks": 6630,
          "time": 77.09302325581395,
          "velocity": 0.2677165354330709
        },
        {
          "duration": 0.03488372093023884,
          "durationTicks": 3,
          "midi": 70,
          "name": "A#4",
          "ticks": 6630,
          "time": 77.09302325581395,
          "velocity": 0.2047244094488189
        },
        {
          "duration": 0.023255813953483084,
          "durationTicks": 2,
          "midi": 59,
          "name": "B3",
          "ticks": 6631,
          "time": 77.1046511627907,
          "velocity": 0.29133858267716534
        },
        {
          "duration": 0.11627906976742963,
          "durationTicks": 10,
          "midi": 72,
          "name": "C5",
          "ticks": 6636,
          "time": 77.16279069767442,
          "velocity": 0.5669291338582677
        },
        {
          "duration": 0.034883720930224626,
          "durationTicks": 3,
          "midi": 80,
          "name": "G#5",
          "ticks": 6636,
          "time": 77.16279069767442,
          "velocity": 0.2440944881889764
        },
        {
          "duration": 0.011627906976741542,
          "durationTicks": 1,
          "midi": 35,
          "name": "B1",
          "ticks": 6637,
          "time": 77.17441860465117,
          "velocity": 0.5433070866141733
        },
        {
          "duration": 0.023255813953483084,
          "durationTicks": 2,
          "midi": 77,
          "name": "F5",
          "ticks": 6637,
          "time": 77.17441860465117,
          "velocity": 0.25984251968503935
        },
        {
          "duration": 0.023255813953483084,
          "durationTicks": 2,
          "midi": 81,
          "name": "A5",
          "ticks": 6637,
          "time": 77.17441860465117,
          "velocity": 0.2440944881889764
        },
        {
          "duration": 0.023255813953483084,
          "durationTicks": 2,
          "midi": 83,
          "name": "B5",
          "ticks": 6637,
          "time": 77.17441860465117,
          "velocity": 0.23622047244094488
        },
        {
          "duration": 0.011627906976741542,
          "durationTicks": 1,
          "midi": 36,
          "name": "C2",
          "ticks": 6638,
          "time": 77.18604651162791,
          "velocity": 0.6220472440944882
        },
        {
          "duration": 0.023255813953483084,
          "durationTicks": 2,
          "midi": 56,
          "name": "G#3",
          "ticks": 6638,
          "time": 77.18604651162791,
          "velocity": 0.49606299212598426
        },
        {
          "duration": 0.06976744186046346,
          "durationTicks": 6,
          "midi": 82,
          "name": "A#5",
          "ticks": 6638,
          "time": 77.18604651162791,
          "velocity": 0.15748031496062992
        },
        {
          "duration": 0.011627906976741542,
          "durationTicks": 1,
          "midi": 41,
          "name": "F2",
          "ticks": 6639,
          "time": 77.19767441860465,
          "velocity": 0.5826771653543307
        },
        {
          "duration": 0.023255813953497295,
          "durationTicks": 2,
          "midi": 44,
          "name": "G#2",
          "ticks": 6640,
          "time": 77.20930232558139,
          "velocity": 0.5511811023622047
        },
        {
          "duration": 0.011627906976755753,
          "durationTicks": 1,
          "midi": 55,
          "name": "G3",
          "ticks": 6640,
          "time": 77.20930232558139,
          "velocity": 0.5354330708661418
        },
        {
          "duration": 0.11627906976744384,
          "durationTicks": 10,
          "midi": 68,
          "name": "G#4",
          "ticks": 6640,
          "time": 77.20930232558139,
          "velocity": 0.3228346456692913
        },
        {
          "duration": 0.03488372093023884,
          "durationTicks": 3,
          "midi": 74,
          "name": "D5",
          "ticks": 6640,
          "time": 77.20930232558139,
          "velocity": 0.2440944881889764
        },
        {
          "duration": 0.023255813953483084,
          "durationTicks": 2,
          "midi": 51,
          "name": "D#3",
          "ticks": 6641,
          "time": 77.22093023255815,
          "velocity": 0.5354330708661418
        },
        {
          "duration": 0.10465116279068809,
          "durationTicks": 9,
          "midi": 87,
          "name": "D#6",
          "ticks": 6641,
          "time": 77.22093023255815,
          "velocity": 0.10236220472440945
        },
        {
          "duration": 0.011627906976741542,
          "durationTicks": 1,
          "midi": 42,
          "name": "F#2",
          "ticks": 6642,
          "time": 77.23255813953489,
          "velocity": 0.6535433070866141
        },
        {
          "duration": 0.034883720930224626,
          "durationTicks": 3,
          "midi": 41,
          "name": "F2",
          "ticks": 6643,
          "time": 77.24418604651163,
          "velocity": 0.6614173228346457
        },
        {
          "duration": 0.011627906976741542,
          "durationTicks": 1,
          "midi": 52,
          "name": "E3",
          "ticks": 6643,
          "time": 77.24418604651163,
          "velocity": 0.5511811023622047
        },
        {
          "duration": 0.03488372093023884,
          "durationTicks": 3,
          "midi": 56,
          "name": "G#3",
          "ticks": 6645,
          "time": 77.26744186046511,
          "velocity": 0.3858267716535433
        },
        {
          "duration": 0.023255813953483084,
          "durationTicks": 2,
          "midi": 41,
          "name": "F2",
          "ticks": 6649,
          "time": 77.31395348837209,
          "velocity": 0.3228346456692913
        },
        {
          "duration": 0.03488372093023884,
          "durationTicks": 3,
          "midi": 56,
          "name": "G#3",
          "ticks": 6649,
          "time": 77.31395348837209,
          "velocity": 0.2992125984251969
        },
        {
          "duration": 0.06976744186047767,
          "durationTicks": 6,
          "midi": 40,
          "name": "E2",
          "ticks": 6651,
          "time": 77.33720930232558,
          "velocity": 0.2440944881889764
        },
        {
          "duration": 0.03488372093023884,
          "durationTicks": 3,
          "midi": 79,
          "name": "G5",
          "ticks": 6656,
          "time": 77.3953488372093,
          "velocity": 0.25196850393700787
        },
        {
          "duration": 0.03488372093023884,
          "durationTicks": 3,
          "midi": 81,
          "name": "A5",
          "ticks": 6656,
          "time": 77.3953488372093,
          "velocity": 0.25984251968503935
        },
        {
          "duration": 0.03488372093023884,
          "durationTicks": 3,
          "midi": 89,
          "name": "F6",
          "ticks": 6656,
          "time": 77.3953488372093,
          "velocity": 0.18110236220472442
        },
        {
          "duration": 0.09302325581394655,
          "durationTicks": 8,
          "midi": 63,
          "name": "D#4",
          "ticks": 6657,
          "time": 77.40697674418605,
          "velocity": 0.5748031496062992
        },
        {
          "duration": 0.081395348837205,
          "durationTicks": 7,
          "midi": 72,
          "name": "C5",
          "ticks": 6657,
          "time": 77.40697674418605,
          "velocity": 0.5433070866141733
        },
        {
          "duration": 0.023255813953483084,
          "durationTicks": 2,
          "midi": 36,
          "name": "C2",
          "ticks": 6658,
          "time": 77.4186046511628,
          "velocity": 0.2992125984251969
        },
        {
          "duration": 0.24418604651162923,
          "durationTicks": 21,
          "midi": 80,
          "name": "G#5",
          "ticks": 6658,
          "time": 77.4186046511628,
          "velocity": 0.30708661417322836
        },
        {
          "duration": 0.11627906976744384,
          "durationTicks": 10,
          "midi": 66,
          "name": "F#4",
          "ticks": 6660,
          "time": 77.44186046511628,
          "velocity": 0.3543307086614173
        },
        {
          "duration": 0.11627906976744384,
          "durationTicks": 10,
          "midi": 85,
          "name": "C#6",
          "ticks": 6660,
          "time": 77.44186046511628,
          "velocity": 0.16535433070866143
        },
        {
          "duration": 0.08139534883721922,
          "durationTicks": 7,
          "midi": 54,
          "name": "F#3",
          "ticks": 6662,
          "time": 77.46511627906976,
          "velocity": 0.23622047244094488
        },
        {
          "duration": 0.16279069767441,
          "durationTicks": 14,
          "midi": 73,
          "name": "C#5",
          "ticks": 6663,
          "time": 77.47674418604652,
          "velocity": 0.2755905511811024
        },
        {
          "duration": 0.15116279069766847,
          "durationTicks": 13,
          "midi": 61,
          "name": "C#4",
          "ticks": 6664,
          "time": 77.48837209302326,
          "velocity": 0.4015748031496063
        },
        {
          "duration": 0.023255813953483084,
          "durationTicks": 2,
          "midi": 54,
          "name": "F#3",
          "ticks": 6670,
          "time": 77.55813953488372,
          "velocity": 0.23622047244094488
        },
        {
          "duration": 0.034883720930224626,
          "durationTicks": 3,
          "midi": 65,
          "name": "F4",
          "ticks": 6670,
          "time": 77.55813953488372,
          "velocity": 0.2125984251968504
        },
        {
          "duration": 0.09302325581396076,
          "durationTicks": 8,
          "midi": 83,
          "name": "B5",
          "ticks": 6676,
          "time": 77.62790697674419,
          "velocity": 0.3464566929133858
        },
        {
          "duration": 0.03488372093023884,
          "durationTicks": 3,
          "midi": 86,
          "name": "D6",
          "ticks": 6676,
          "time": 77.62790697674419,
          "velocity": 0.2755905511811024
        },
        {
          "duration": 0.03488372093023884,
          "durationTicks": 3,
          "midi": 87,
          "name": "D#6",
          "ticks": 6676,
          "time": 77.62790697674419,
          "velocity": 0.2677165354330709
        },
        {
          "duration": 0.03488372093023884,
          "durationTicks": 3,
          "midi": 89,
          "name": "F6",
          "ticks": 6676,
          "time": 77.62790697674419,
          "velocity": 0.2677165354330709
        },
        {
          "duration": 0.03488372093023884,
          "durationTicks": 3,
          "midi": 91,
          "name": "G6",
          "ticks": 6676,
          "time": 77.62790697674419,
          "velocity": 0.16535433070866143
        },
        {
          "duration": 0.011627906976741542,
          "durationTicks": 1,
          "midi": 35,
          "name": "B1",
          "ticks": 6677,
          "time": 77.63953488372093,
          "velocity": 0.5511811023622047
        },
        {
          "duration": 0.011627906976741542,
          "durationTicks": 1,
          "midi": 51,
          "name": "D#3",
          "ticks": 6677,
          "time": 77.63953488372093,
          "velocity": 0.5511811023622047
        },
        {
          "duration": 0.04651162790698038,
          "durationTicks": 4,
          "midi": 64,
          "name": "E4",
          "ticks": 6677,
          "time": 77.63953488372093,
          "velocity": 0.6614173228346457
        },
        {
          "duration": 0.04651162790698038,
          "durationTicks": 4,
          "midi": 75,
          "name": "D#5",
          "ticks": 6677,
          "time": 77.63953488372093,
          "velocity": 0.5354330708661418
        },
        {
          "duration": 0.03488372093023884,
          "durationTicks": 3,
          "midi": 78,
          "name": "F#5",
          "ticks": 6677,
          "time": 77.63953488372093,
          "velocity": 0.30708661417322836
        },
        {
          "duration": 0.011627906976755753,
          "durationTicks": 1,
          "midi": 40,
          "name": "E2",
          "ticks": 6678,
          "time": 77.65116279069767,
          "velocity": 0.5826771653543307
        },
        {
          "duration": 0.08139534883721922,
          "durationTicks": 7,
          "midi": 52,
          "name": "E3",
          "ticks": 6678,
          "time": 77.65116279069767,
          "velocity": 0.6141732283464567
        },
        {
          "duration": 0.12790697674418539,
          "durationTicks": 11,
          "midi": 82,
          "name": "A#5",
          "ticks": 6678,
          "time": 77.65116279069767,
          "velocity": 0.23622047244094488
        },
        {
          "duration": 0.011627906976741542,
          "durationTicks": 1,
          "midi": 41,
          "name": "F2",
          "ticks": 6679,
          "time": 77.66279069767442,
          "velocity": 0.5275590551181102
        },
        {
          "duration": 0.034883720930224626,
          "durationTicks": 3,
          "midi": 72,
          "name": "C5",
          "ticks": 6679,
          "time": 77.66279069767442,
          "velocity": 0.29133858267716534
        },
        {
          "duration": 0.023255813953483084,
          "durationTicks": 2,
          "midi": 40,
          "name": "E2",
          "ticks": 6680,
          "time": 77.67441860465117,
          "velocity": 0.6220472440944882
        },
        {
          "duration": 0.034883720930224626,
          "durationTicks": 3,
          "midi": 56,
          "name": "G#3",
          "ticks": 6680,
          "time": 77.67441860465117,
          "velocity": 0.47244094488188976
        },
        {
          "duration": 0.023255813953483084,
          "durationTicks": 2,
          "midi": 70,
          "name": "A#4",
          "ticks": 6680,
          "time": 77.67441860465117,
          "velocity": 0.25984251968503935
        },
        {
          "duration": 0.09302325581394655,
          "durationTicks": 8,
          "midi": 77,
          "name": "F5",
          "ticks": 6681,
          "time": 77.68604651162791,
          "velocity": 0.31496062992125984
        },
        {
          "duration": 0.011627906976741542,
          "durationTicks": 1,
          "midi": 41,
          "name": "F2",
          "ticks": 6682,
          "time": 77.69767441860465,
          "velocity": 0.6771653543307087
        },
        {
          "duration": 0.023255813953497295,
          "durationTicks": 2,
          "midi": 71,
          "name": "B4",
          "ticks": 6682,
          "time": 77.69767441860465,
          "velocity": 0.31496062992125984
        },
        {
          "duration": 0.023255813953497295,
          "durationTicks": 2,
          "midi": 42,
          "name": "F#2",
          "ticks": 6683,
          "time": 77.70930232558139,
          "velocity": 0.6377952755905512
        },
        {
          "duration": 0.023255813953497295,
          "durationTicks": 2,
          "midi": 63,
          "name": "D#4",
          "ticks": 6683,
          "time": 77.70930232558139,
          "velocity": 0.48031496062992124
        },
        {
          "duration": 0.08139534883721922,
          "durationTicks": 7,
          "midi": 70,
          "name": "A#4",
          "ticks": 6683,
          "time": 77.70930232558139,
          "velocity": 0.2755905511811024
        },
        {
          "duration": 0.09302325581396076,
          "durationTicks": 8,
          "midi": 84,
          "name": "C6",
          "ticks": 6683,
          "time": 77.70930232558139,
          "velocity": 0.2125984251968504
        },
        {
          "duration": 0.023255813953483084,
          "durationTicks": 2,
          "midi": 40,
          "name": "E2",
          "ticks": 6685,
          "time": 77.73255813953489,
          "velocity": 0.44881889763779526
        },
        {
          "duration": 0.12790697674418539,
          "durationTicks": 11,
          "midi": 80,
          "name": "G#5",
          "ticks": 6686,
          "time": 77.74418604651163,
          "velocity": 0.41732283464566927
        },
        {
          "duration": 0.023255813953483084,
          "durationTicks": 2,
          "midi": 48,
          "name": "C3",
          "ticks": 6687,
          "time": 77.75581395348837,
          "velocity": 0.5196850393700787
        },
        {
          "duration": 0.1046511627907023,
          "durationTicks": 9,
          "midi": 73,
          "name": "C#5",
          "ticks": 6687,
          "time": 77.75581395348837,
          "velocity": 0.14960629921259844
        },
        {
          "duration": 0.06976744186046346,
          "durationTicks": 6,
          "midi": 61,
          "name": "C#4",
          "ticks": 6688,
          "time": 77.76744186046511,
          "velocity": 0.4566929133858268
        },
        {
          "duration": 0.04651162790698038,
          "durationTicks": 4,
          "midi": 72,
          "name": "C5",
          "ticks": 6688,
          "time": 77.76744186046511,
          "velocity": 0.1968503937007874
        },
        {
          "duration": 0.08139534883721922,
          "durationTicks": 7,
          "midi": 49,
          "name": "C#3",
          "ticks": 6689,
          "time": 77.77906976744185,
          "velocity": 0.5354330708661418
        },
        {
          "duration": 0.081395348837205,
          "durationTicks": 7,
          "midi": 68,
          "name": "G#4",
          "ticks": 6690,
          "time": 77.79069767441861,
          "velocity": 0.2204724409448819
        },
        {
          "duration": 0.034883720930224626,
          "durationTicks": 3,
          "midi": 77,
          "name": "F5",
          "ticks": 6691,
          "time": 77.80232558139535,
          "velocity": 0.14960629921259844
        },
        {
          "duration": 0.023255813953497295,
          "durationTicks": 2,
          "midi": 60,
          "name": "C4",
          "ticks": 6694,
          "time": 77.83720930232558,
          "velocity": 0.2440944881889764
        },
        {
          "duration": 0.023255813953483084,
          "durationTicks": 2,
          "midi": 50,
          "name": "D3",
          "ticks": 6696,
          "time": 77.86046511627907,
          "velocity": 0.4330708661417323
        },
        {
          "duration": 0.23255813953487348,
          "durationTicks": 20,
          "midi": 75,
          "name": "D#5",
          "ticks": 6696,
          "time": 77.86046511627907,
          "velocity": 0.5984251968503937
        },
        {
          "duration": 0.034883720930224626,
          "durationTicks": 3,
          "midi": 85,
          "name": "C#6",
          "ticks": 6696,
          "time": 77.86046511627907,
          "velocity": 0.23622047244094488
        },
        {
          "duration": 0.023255813953483084,
          "durationTicks": 2,
          "midi": 88,
          "name": "E6",
          "ticks": 6696,
          "time": 77.86046511627907,
          "velocity": 0.25984251968503935
        },
        {
          "duration": 0.023255813953483084,
          "durationTicks": 2,
          "midi": 29,
          "name": "F1",
          "ticks": 6697,
          "time": 77.87209302325581,
          "velocity": 0.3228346456692913
        },
        {
          "duration": 0.1046511627907023,
          "durationTicks": 9,
          "midi": 66,
          "name": "F#4",
          "ticks": 6697,
          "time": 77.87209302325581,
          "velocity": 0.2992125984251969
        },
        {
          "duration": 0.1046511627907023,
          "durationTicks": 9,
          "midi": 78,
          "name": "F#5",
          "ticks": 6697,
          "time": 77.87209302325581,
          "velocity": 0.4409448818897638
        },
        {
          "duration": 0.04651162790698038,
          "durationTicks": 4,
          "midi": 59,
          "name": "B3",
          "ticks": 6698,
          "time": 77.88372093023256,
          "velocity": 0.6141732283464567
        },
        {
          "duration": 0.09302325581396076,
          "durationTicks": 8,
          "midi": 47,
          "name": "B2",
          "ticks": 6699,
          "time": 77.8953488372093,
          "velocity": 0.4881889763779528
        },
        {
          "duration": 0.081395348837205,
          "durationTicks": 7,
          "midi": 70,
          "name": "A#4",
          "ticks": 6701,
          "time": 77.9186046511628,
          "velocity": 0.3700787401574803
        },
        {
          "duration": 0.081395348837205,
          "durationTicks": 7,
          "midi": 58,
          "name": "A#3",
          "ticks": 6702,
          "time": 77.93023255813954,
          "velocity": 0.5275590551181102
        },
        {
          "duration": 0.023255813953483084,
          "durationTicks": 2,
          "midi": 64,
          "name": "E4",
          "ticks": 6706,
          "time": 77.97674418604652,
          "velocity": 0.6062992125984252
        },
        {
          "duration": 0.034883720930224626,
          "durationTicks": 3,
          "midi": 89,
          "name": "F6",
          "ticks": 6706,
          "time": 77.97674418604652,
          "velocity": 0.1889763779527559
        },
        {
          "duration": 0.13953488372092693,
          "durationTicks": 12,
          "midi": 68,
          "name": "G#4",
          "ticks": 6707,
          "time": 77.98837209302326,
          "velocity": 0.44881889763779526
        },
        {
          "duration": 0.27906976744185386,
          "durationTicks": 24,
          "midi": 63,
          "name": "D#4",
          "ticks": 6708,
          "time": 78,
          "velocity": 0.6299212598425197
        },
        {
          "duration": 0.04651162790698038,
          "durationTicks": 4,
          "midi": 78,
          "name": "F#5",
          "ticks": 6708,
          "time": 78,
          "velocity": 0.2283464566929134
        },
        {
          "duration": 0.023255813953497295,
          "durationTicks": 2,
          "midi": 28,
          "name": "E1",
          "ticks": 6709,
          "time": 78.01162790697674,
          "velocity": 0.23622047244094488
        },
        {
          "duration": 0.081395348837205,
          "durationTicks": 7,
          "midi": 44,
          "name": "G#2",
          "ticks": 6709,
          "time": 78.01162790697674,
          "velocity": 0.48031496062992124
        },
        {
          "duration": 0.03488372093023884,
          "durationTicks": 3,
          "midi": 58,
          "name": "A#3",
          "ticks": 6710,
          "time": 78.02325581395348,
          "velocity": 0.33858267716535434
        },
        {
          "duration": 0.08139534883721922,
          "durationTicks": 7,
          "midi": 77,
          "name": "F5",
          "ticks": 6710,
          "time": 78.02325581395348,
          "velocity": 0.2992125984251969
        },
        {
          "duration": 0.16279069767441,
          "durationTicks": 14,
          "midi": 72,
          "name": "C5",
          "ticks": 6711,
          "time": 78.03488372093024,
          "velocity": 0.2677165354330709
        },
        {
          "duration": 0.05813953488372192,
          "durationTicks": 5,
          "midi": 56,
          "name": "G#3",
          "ticks": 6713,
          "time": 78.05813953488372,
          "velocity": 0.5590551181102362
        },
        {
          "duration": 0.023255813953497295,
          "durationTicks": 2,
          "midi": 78,
          "name": "F#5",
          "ticks": 6716,
          "time": 78.09302325581395,
          "velocity": 0.29133858267716534
        },
        {
          "duration": 0.03488372093023884,
          "durationTicks": 3,
          "midi": 81,
          "name": "A5",
          "ticks": 6716,
          "time": 78.09302325581395,
          "velocity": 0.2677165354330709
        },
        {
          "duration": 0.03488372093023884,
          "durationTicks": 3,
          "midi": 88,
          "name": "E6",
          "ticks": 6716,
          "time": 78.09302325581395,
          "velocity": 0.25196850393700787
        },
        {
          "duration": 0.011627906976741542,
          "durationTicks": 1,
          "midi": 36,
          "name": "C2",
          "ticks": 6717,
          "time": 78.1046511627907,
          "velocity": 0.5984251968503937
        },
        {
          "duration": 0.023255813953483084,
          "durationTicks": 2,
          "midi": 79,
          "name": "G5",
          "ticks": 6717,
          "time": 78.1046511627907,
          "velocity": 0.29133858267716534
        },
        {
          "duration": 0.12790697674418539,
          "durationTicks": 11,
          "midi": 82,
          "name": "A#5",
          "ticks": 6717,
          "time": 78.1046511627907,
          "velocity": 0.30708661417322836
        },
        {
          "duration": 0.023255813953483084,
          "durationTicks": 2,
          "midi": 83,
          "name": "B5",
          "ticks": 6717,
          "time": 78.1046511627907,
          "velocity": 0.23622047244094488
        },
        {
          "duration": 0.023255813953483084,
          "durationTicks": 2,
          "midi": 86,
          "name": "D6",
          "ticks": 6717,
          "time": 78.1046511627907,
          "velocity": 0.23622047244094488
        },
        {
          "duration": 0.011627906976741542,
          "durationTicks": 1,
          "midi": 40,
          "name": "E2",
          "ticks": 6718,
          "time": 78.11627906976744,
          "velocity": 0.5984251968503937
        },
        {
          "duration": 0.011627906976741542,
          "durationTicks": 1,
          "midi": 57,
          "name": "A3",
          "ticks": 6718,
          "time": 78.11627906976744,
          "velocity": 0.5196850393700787
        },
        {
          "duration": 0.011627906976741542,
          "durationTicks": 1,
          "midi": 53,
          "name": "F3",
          "ticks": 6719,
          "time": 78.12790697674419,
          "velocity": 0.6062992125984252
        },
        {
          "duration": 0.05813953488372192,
          "durationTicks": 5,
          "midi": 70,
          "name": "A#4",
          "ticks": 6719,
          "time": 78.12790697674419,
          "velocity": 0.11811023622047244
        },
        {
          "duration": 0.011627906976741542,
          "durationTicks": 1,
          "midi": 38,
          "name": "D2",
          "ticks": 6720,
          "time": 78.13953488372093,
          "velocity": 0.5354330708661418
        },
        {
          "duration": 0.023255813953497295,
          "durationTicks": 2,
          "midi": 52,
          "name": "E3",
          "ticks": 6720,
          "time": 78.13953488372093,
          "velocity": 0.6377952755905512
        },
        {
          "duration": 0.023255813953497295,
          "durationTicks": 2,
          "midi": 56,
          "name": "G#3",
          "ticks": 6720,
          "time": 78.13953488372093,
          "velocity": 0.5511811023622047
        },
        {
          "duration": 0.011627906976755753,
          "durationTicks": 1,
          "midi": 41,
          "name": "F2",
          "ticks": 6721,
          "time": 78.15116279069767,
          "velocity": 0.6692913385826772
        },
        {
          "duration": 0.023255813953483084,
          "durationTicks": 2,
          "midi": 42,
          "name": "F#2",
          "ticks": 6722,
          "time": 78.16279069767442,
          "velocity": 0.6929133858267716
        },
        {
          "duration": 0.011627906976741542,
          "durationTicks": 1,
          "midi": 51,
          "name": "D#3",
          "ticks": 6722,
          "time": 78.16279069767442,
          "velocity": 0.5275590551181102
        },
        {
          "duration": 0.011627906976741542,
          "durationTicks": 1,
          "midi": 55,
          "name": "G3",
          "ticks": 6722,
          "time": 78.16279069767442,
          "velocity": 0.5118110236220472
        },
        {
          "duration": 0.011627906976741542,
          "durationTicks": 1,
          "midi": 50,
          "name": "D3",
          "ticks": 6723,
          "time": 78.17441860465117,
          "velocity": 0.5196850393700787
        },
        {
          "duration": 0.034883720930224626,
          "durationTicks": 3,
          "midi": 56,
          "name": "G#3",
          "ticks": 6723,
          "time": 78.17441860465117,
          "velocity": 0.4015748031496063
        },
        {
          "duration": 0.011627906976741542,
          "durationTicks": 1,
          "midi": 41,
          "name": "F2",
          "ticks": 6724,
          "time": 78.18604651162791,
          "velocity": 0.5354330708661418
        },
        {
          "duration": 0.11627906976744384,
          "durationTicks": 10,
          "midi": 51,
          "name": "D#3",
          "ticks": 6724,
          "time": 78.18604651162791,
          "velocity": 0.5669291338582677
        },
        {
          "duration": 0.023255813953497295,
          "durationTicks": 2,
          "midi": 40,
          "name": "E2",
          "ticks": 6725,
          "time": 78.19767441860465,
          "velocity": 0.4330708661417323
        },
        {
          "duration": 0.023255813953483084,
          "durationTicks": 2,
          "midi": 41,
          "name": "F2",
          "ticks": 6727,
          "time": 78.22093023255815,
          "velocity": 0.3543307086614173
        },
        {
          "duration": 0.023255813953483084,
          "durationTicks": 2,
          "midi": 64,
          "name": "E4",
          "ticks": 6735,
          "time": 78.31395348837209,
          "velocity": 0.4330708661417323
        },
        {
          "duration": 0.09302325581396076,
          "durationTicks": 8,
          "midi": 75,
          "name": "D#5",
          "ticks": 6736,
          "time": 78.32558139534883,
          "velocity": 0.5590551181102362
        },
        {
          "duration": 0.08139534883721922,
          "durationTicks": 7,
          "midi": 80,
          "name": "G#5",
          "ticks": 6736,
          "time": 78.32558139534883,
          "velocity": 0.2677165354330709
        },
        {
          "duration": 0.08139534883721922,
          "durationTicks": 7,
          "midi": 86,
          "name": "D6",
          "ticks": 6736,
          "time": 78.32558139534883,
          "velocity": 0.23622047244094488
        },
        {
          "duration": 0.023255813953497295,
          "durationTicks": 2,
          "midi": 48,
          "name": "C3",
          "ticks": 6737,
          "time": 78.33720930232558,
          "velocity": 0.6062992125984252
        },
        {
          "duration": 0.1046511627907023,
          "durationTicks": 9,
          "midi": 55,
          "name": "G3",
          "ticks": 6737,
          "time": 78.33720930232558,
          "velocity": 0.5748031496062992
        },
        {
          "duration": 0.11627906976744384,
          "durationTicks": 10,
          "midi": 63,
          "name": "D#4",
          "ticks": 6737,
          "time": 78.33720930232558,
          "velocity": 0.5748031496062992
        },
        {
          "duration": 0.023255813953497295,
          "durationTicks": 2,
          "midi": 78,
          "name": "F#5",
          "ticks": 6737,
          "time": 78.33720930232558,
          "velocity": 0.25196850393700787
        },
        {
          "duration": 0.03488372093023884,
          "durationTicks": 3,
          "midi": 83,
          "name": "B5",
          "ticks": 6737,
          "time": 78.33720930232558,
          "velocity": 0.14960629921259844
        },
        {
          "duration": 0.023255813953483084,
          "durationTicks": 2,
          "midi": 69,
          "name": "A4",
          "ticks": 6738,
          "time": 78.34883720930233,
          "velocity": 0.2440944881889764
        },
        {
          "duration": 0.11627906976742963,
          "durationTicks": 10,
          "midi": 72,
          "name": "C5",
          "ticks": 6738,
          "time": 78.34883720930233,
          "velocity": 0.2440944881889764
        },
        {
          "duration": 0.05813953488372192,
          "durationTicks": 5,
          "midi": 49,
          "name": "C#3",
          "ticks": 6739,
          "time": 78.36046511627907,
          "velocity": 0.6062992125984252
        },
        {
          "duration": 0.13953488372092693,
          "durationTicks": 12,
          "midi": 70,
          "name": "A#4",
          "ticks": 6740,
          "time": 78.37209302325581,
          "velocity": 0.3228346456692913
        },
        {
          "duration": 0.12790697674418539,
          "durationTicks": 11,
          "midi": 77,
          "name": "F5",
          "ticks": 6740,
          "time": 78.37209302325581,
          "velocity": 0.1889763779527559
        },
        {
          "duration": 0.06976744186046346,
          "durationTicks": 6,
          "midi": 58,
          "name": "A#3",
          "ticks": 6747,
          "time": 78.45348837209302,
          "velocity": 0.29133858267716534
        },
        {
          "duration": 0.034883720930224626,
          "durationTicks": 3,
          "midi": 53,
          "name": "F3",
          "ticks": 6749,
          "time": 78.47674418604652,
          "velocity": 0.31496062992125984
        },
        {
          "duration": 0.09302325581394655,
          "durationTicks": 8,
          "midi": 75,
          "name": "D#5",
          "ticks": 6756,
          "time": 78.55813953488372,
          "velocity": 0.5590551181102362
        },
        {
          "duration": 0.011627906976741542,
          "durationTicks": 1,
          "midi": 40,
          "name": "E2",
          "ticks": 6757,
          "time": 78.56976744186046,
          "velocity": 0.6062992125984252
        },
        {
          "duration": 0.023255813953483084,
          "durationTicks": 2,
          "midi": 57,
          "name": "A3",
          "ticks": 6757,
          "time": 78.56976744186046,
          "velocity": 0.5118110236220472
        },
        {
          "duration": 0.15116279069768268,
          "durationTicks": 13,
          "midi": 63,
          "name": "D#4",
          "ticks": 6757,
          "time": 78.56976744186046,
          "velocity": 0.5748031496062992
        },
        {
          "duration": 0.023255813953483084,
          "durationTicks": 2,
          "midi": 67,
          "name": "G4",
          "ticks": 6757,
          "time": 78.56976744186046,
          "velocity": 0.2283464566929134
        },
        {
          "duration": 0.081395348837205,
          "durationTicks": 7,
          "midi": 72,
          "name": "C5",
          "ticks": 6757,
          "time": 78.56976744186046,
          "velocity": 0.16535433070866143
        },
        {
          "duration": 0.023255813953497295,
          "durationTicks": 2,
          "midi": 41,
          "name": "F2",
          "ticks": 6758,
          "time": 78.5813953488372,
          "velocity": 0.6062992125984252
        },
        {
          "duration": 0.011627906976741542,
          "durationTicks": 1,
          "midi": 52,
          "name": "E3",
          "ticks": 6758,
          "time": 78.5813953488372,
          "velocity": 0.5275590551181102
        },
        {
          "duration": 0.011627906976755753,
          "durationTicks": 1,
          "midi": 55,
          "name": "G3",
          "ticks": 6759,
          "time": 78.59302325581395,
          "velocity": 0.5826771653543307
        },
        {
          "duration": 0.05813953488372192,
          "durationTicks": 5,
          "midi": 68,
          "name": "G#4",
          "ticks": 6759,
          "time": 78.59302325581395,
          "velocity": 0.12598425196850394
        },
        {
          "duration": 0.011627906976741542,
          "durationTicks": 1,
          "midi": 38,
          "name": "D2",
          "ticks": 6760,
          "time": 78.6046511627907,
          "velocity": 0.5905511811023622
        },
        {
          "duration": 0.023255813953483084,
          "durationTicks": 2,
          "midi": 53,
          "name": "F3",
          "ticks": 6760,
          "time": 78.6046511627907,
          "velocity": 0.5275590551181102
        },
        {
          "duration": 0.011627906976741542,
          "durationTicks": 1,
          "midi": 41,
          "name": "F2",
          "ticks": 6761,
          "time": 78.61627906976744,
          "velocity": 0.6929133858267716
        },
        {
          "duration": 0.023255813953483084,
          "durationTicks": 2,
          "midi": 42,
          "name": "F#2",
          "ticks": 6762,
          "time": 78.62790697674419,
          "velocity": 0.6929133858267716
        },
        {
          "duration": 0.011627906976741542,
          "durationTicks": 1,
          "midi": 55,
          "name": "G3",
          "ticks": 6762,
          "time": 78.62790697674419,
          "velocity": 0.5118110236220472
        },
        {
          "duration": 0.011627906976755753,
          "durationTicks": 1,
          "midi": 41,
          "name": "F2",
          "ticks": 6764,
          "time": 78.65116279069767,
          "velocity": 0.5196850393700787
        },
        {
          "duration": 0.023255813953483084,
          "durationTicks": 2,
          "midi": 41,
          "name": "F2",
          "ticks": 6767,
          "time": 78.68604651162791,
          "velocity": 0.3700787401574803
        },
        {
          "duration": 0.034883720930224626,
          "durationTicks": 3,
          "midi": 40,
          "name": "E2",
          "ticks": 6771,
          "time": 78.73255813953489,
          "velocity": 0.16535433070866143
        },
        {
          "duration": 0.023255813953497295,
          "durationTicks": 2,
          "midi": 39,
          "name": "D#2",
          "ticks": 6774,
          "time": 78.76744186046511,
          "velocity": 0.2677165354330709
        },
        {
          "duration": 0.03488372093023884,
          "durationTicks": 3,
          "midi": 84,
          "name": "C6",
          "ticks": 6775,
          "time": 78.77906976744185,
          "velocity": 0.25984251968503935
        },
        {
          "duration": 0.03488372093023884,
          "durationTicks": 3,
          "midi": 86,
          "name": "D6",
          "ticks": 6775,
          "time": 78.77906976744185,
          "velocity": 0.25984251968503935
        },
        {
          "duration": 0.023255813953483084,
          "durationTicks": 2,
          "midi": 55,
          "name": "G3",
          "ticks": 6776,
          "time": 78.79069767441861,
          "velocity": 0.4881889763779528
        },
        {
          "duration": 0.11627906976744384,
          "durationTicks": 10,
          "midi": 65,
          "name": "F4",
          "ticks": 6776,
          "time": 78.79069767441861,
          "velocity": 0.5984251968503937
        },
        {
          "duration": 0.09302325581394655,
          "durationTicks": 8,
          "midi": 75,
          "name": "D#5",
          "ticks": 6776,
          "time": 78.79069767441861,
          "velocity": 0.5669291338582677
        },
        {
          "duration": 0.023255813953483084,
          "durationTicks": 2,
          "midi": 48,
          "name": "C3",
          "ticks": 6777,
          "time": 78.80232558139535,
          "velocity": 0.5905511811023622
        },
        {
          "duration": 0.034883720930224626,
          "durationTicks": 3,
          "midi": 78,
          "name": "F#5",
          "ticks": 6777,
          "time": 78.80232558139535,
          "velocity": 0.23622047244094488
        },
        {
          "duration": 0.081395348837205,
          "durationTicks": 7,
          "midi": 80,
          "name": "G#5",
          "ticks": 6777,
          "time": 78.80232558139535,
          "velocity": 0.2440944881889764
        },
        {
          "duration": 0.034883720930224626,
          "durationTicks": 3,
          "midi": 83,
          "name": "B5",
          "ticks": 6777,
          "time": 78.80232558139535,
          "velocity": 0.18110236220472442
        },
        {
          "duration": 0.06976744186046346,
          "durationTicks": 6,
          "midi": 85,
          "name": "C#6",
          "ticks": 6777,
          "time": 78.80232558139535,
          "velocity": 0.2204724409448819
        },
        {
          "duration": 0.05813953488372192,
          "durationTicks": 5,
          "midi": 61,
          "name": "C#4",
          "ticks": 6778,
          "time": 78.81395348837209,
          "velocity": 0.4015748031496063
        },
        {
          "duration": 0.03488372093023884,
          "durationTicks": 3,
          "midi": 49,
          "name": "C#3",
          "ticks": 6779,
          "time": 78.82558139534883,
          "velocity": 0.5905511811023622
        },
        {
          "duration": 0.08139534883721922,
          "durationTicks": 7,
          "midi": 70,
          "name": "A#4",
          "ticks": 6779,
          "time": 78.82558139534883,
          "velocity": 0.2677165354330709
        },
        {
          "duration": 0.06976744186046346,
          "durationTicks": 6,
          "midi": 72,
          "name": "C5",
          "ticks": 6779,
          "time": 78.82558139534883,
          "velocity": 0.25196850393700787
        },
        {
          "duration": 0.011627906976741542,
          "durationTicks": 1,
          "midi": 50,
          "name": "D3",
          "ticks": 6782,
          "time": 78.86046511627907,
          "velocity": 0.5118110236220472
        },
        {
          "duration": 0.034883720930224626,
          "durationTicks": 3,
          "midi": 58,
          "name": "A#3",
          "ticks": 6782,
          "time": 78.86046511627907,
          "velocity": 0.33858267716535434
        },
        {
          "duration": 0.023255813953497295,
          "durationTicks": 2,
          "midi": 59,
          "name": "B3",
          "ticks": 6785,
          "time": 78.8953488372093,
          "velocity": 0.3858267716535433
        },
        {
          "duration": 0.03488372093023884,
          "durationTicks": 3,
          "midi": 80,
          "name": "G#5",
          "ticks": 6785,
          "time": 78.8953488372093,
          "velocity": 0.1732283464566929
        },
        {
          "duration": 0.25581395348837077,
          "durationTicks": 22,
          "midi": 63,
          "name": "D#4",
          "ticks": 6786,
          "time": 78.90697674418605,
          "velocity": 0.6299212598425197
        },
        {
          "duration": 0.034883720930224626,
          "durationTicks": 3,
          "midi": 58,
          "name": "A#3",
          "ticks": 6787,
          "time": 78.9186046511628,
          "velocity": 0.3543307086614173
        },
        {
          "duration": 0.05813953488372192,
          "durationTicks": 5,
          "midi": 84,
          "name": "C6",
          "ticks": 6787,
          "time": 78.9186046511628,
          "velocity": 0.15748031496062992
        },
        {
          "duration": 0.034883720930224626,
          "durationTicks": 3,
          "midi": 53,
          "name": "F3",
          "ticks": 6788,
          "time": 78.93023255813954,
          "velocity": 0.3543307086614173
        },
        {
          "duration": 0.04651162790698038,
          "durationTicks": 4,
          "midi": 76,
          "name": "E5",
          "ticks": 6789,
          "time": 78.94186046511628,
          "velocity": 0.25984251968503935
        },
        {
          "duration": 0.03488372093023884,
          "durationTicks": 3,
          "midi": 87,
          "name": "D#6",
          "ticks": 6795,
          "time": 79.01162790697674,
          "velocity": 0.30708661417322836
        },
        {
          "duration": 0.023255813953497295,
          "durationTicks": 2,
          "midi": 36,
          "name": "C2",
          "ticks": 6796,
          "time": 79.02325581395348,
          "velocity": 0.6141732283464567
        },
        {
          "duration": 0.03488372093023884,
          "durationTicks": 3,
          "midi": 50,
          "name": "D3",
          "ticks": 6796,
          "time": 79.02325581395348,
          "velocity": 0.6141732283464567
        },
        {
          "duration": 0.08139534883721922,
          "durationTicks": 7,
          "midi": 70,
          "name": "A#4",
          "ticks": 6796,
          "time": 79.02325581395348,
          "velocity": 0.1732283464566929
        },
        {
          "duration": 0.023255813953497295,
          "durationTicks": 2,
          "midi": 81,
          "name": "A5",
          "ticks": 6796,
          "time": 79.02325581395348,
          "velocity": 0.3228346456692913
        },
        {
          "duration": 0.081395348837205,
          "durationTicks": 7,
          "midi": 72,
          "name": "C5",
          "ticks": 6797,
          "time": 79.03488372093024,
          "velocity": 0.14960629921259844
        },
        {
          "duration": 0.023255813953483084,
          "durationTicks": 2,
          "midi": 78,
          "name": "F#5",
          "ticks": 6797,
          "time": 79.03488372093024,
          "velocity": 0.2992125984251969
        },
        {
          "duration": 0.09302325581394655,
          "durationTicks": 8,
          "midi": 82,
          "name": "A#5",
          "ticks": 6797,
          "time": 79.03488372093024,
          "velocity": 0.33858267716535434
        },
        {
          "duration": 0.011627906976741542,
          "durationTicks": 1,
          "midi": 41,
          "name": "F2",
          "ticks": 6798,
          "time": 79.04651162790698,
          "velocity": 0.5748031496062992
        },
        {
          "duration": 0.034883720930224626,
          "durationTicks": 3,
          "midi": 51,
          "name": "D#3",
          "ticks": 6799,
          "time": 79.05813953488372,
          "velocity": 0.6929133858267716
        },
        {
          "duration": 0.011627906976741542,
          "durationTicks": 1,
          "midi": 38,
          "name": "D2",
          "ticks": 6800,
          "time": 79.06976744186046,
          "velocity": 0.5984251968503937
        },
        {
          "duration": 0.13953488372092693,
          "durationTicks": 12,
          "midi": 80,
          "name": "G#5",
          "ticks": 6800,
          "time": 79.06976744186046,
          "velocity": 0.2992125984251969
        },
        {
          "duration": 0.011627906976741542,
          "durationTicks": 1,
          "midi": 41,
          "name": "F2",
          "ticks": 6801,
          "time": 79.0813953488372,
          "velocity": 0.6771653543307087
        },
        {
          "duration": 0.023255813953497295,
          "durationTicks": 2,
          "midi": 42,
          "name": "F#2",
          "ticks": 6802,
          "time": 79.09302325581395,
          "velocity": 0.6535433070866141
        },
        {
          "duration": 0.011627906976755753,
          "durationTicks": 1,
          "midi": 50,
          "name": "D3",
          "ticks": 6802,
          "time": 79.09302325581395,
          "velocity": 0.5354330708661418
        },
        {
          "duration": 0.023255813953497295,
          "durationTicks": 2,
          "midi": 56,
          "name": "G#3",
          "ticks": 6802,
          "time": 79.09302325581395,
          "velocity": 0.3937007874015748
        },
        {
          "duration": 0.05813953488372192,
          "durationTicks": 5,
          "midi": 50,
          "name": "D3",
          "ticks": 6805,
          "time": 79.12790697674419,
          "velocity": 0.4409448818897638
        },
        {
          "duration": 0.03488372093023884,
          "durationTicks": 3,
          "midi": 56,
          "name": "G#3",
          "ticks": 6805,
          "time": 79.12790697674419,
          "velocity": 0.07874015748031496
        },
        {
          "duration": 0.023255813953497295,
          "durationTicks": 2,
          "midi": 41,
          "name": "F2",
          "ticks": 6806,
          "time": 79.13953488372093,
          "velocity": 0.3700787401574803
        },
        {
          "duration": 0.023255813953483084,
          "durationTicks": 2,
          "midi": 64,
          "name": "E4",
          "ticks": 6815,
          "time": 79.24418604651163,
          "velocity": 0.5354330708661418
        },
        {
          "duration": 0.023255813953483084,
          "durationTicks": 2,
          "midi": 85,
          "name": "C#6",
          "ticks": 6815,
          "time": 79.24418604651163,
          "velocity": 0.29133858267716534
        },
        {
          "duration": 0.034883720930224626,
          "durationTicks": 3,
          "midi": 86,
          "name": "D6",
          "ticks": 6815,
          "time": 79.24418604651163,
          "velocity": 0.2992125984251969
        },
        {
          "duration": 0.2325581395348877,
          "durationTicks": 20,
          "midi": 58,
          "name": "A#3",
          "ticks": 6816,
          "time": 79.25581395348837,
          "velocity": 0.5118110236220472
        },
        {
          "duration": 0.09302325581396076,
          "durationTicks": 8,
          "midi": 75,
          "name": "D#5",
          "ticks": 6816,
          "time": 79.25581395348837,
          "velocity": 0.5826771653543307
        },
        {
          "duration": 0.023255813953483084,
          "durationTicks": 2,
          "midi": 78,
          "name": "F#5",
          "ticks": 6816,
          "time": 79.25581395348837,
          "velocity": 0.33070866141732286
        },
        {
          "duration": 0.19767441860464885,
          "durationTicks": 17,
          "midi": 89,
          "name": "F6",
          "ticks": 6816,
          "time": 79.25581395348837,
          "velocity": 0.2283464566929134
        },
        {
          "duration": 0.023255813953497295,
          "durationTicks": 2,
          "midi": 29,
          "name": "F1",
          "ticks": 6817,
          "time": 79.26744186046511,
          "velocity": 0.2755905511811024
        },
        {
          "duration": 0.023255813953497295,
          "durationTicks": 2,
          "midi": 47,
          "name": "B2",
          "ticks": 6817,
          "time": 79.26744186046511,
          "velocity": 0.28346456692913385
        },
        {
          "duration": 0.12790697674418539,
          "durationTicks": 11,
          "midi": 63,
          "name": "D#4",
          "ticks": 6817,
          "time": 79.26744186046511,
          "velocity": 0.5748031496062992
        },
        {
          "duration": 0.11627906976744384,
          "durationTicks": 10,
          "midi": 53,
          "name": "F3",
          "ticks": 6819,
          "time": 79.29069767441861,
          "velocity": 0.4409448818897638
        },
        {
          "duration": 0.11627906976744384,
          "durationTicks": 10,
          "midi": 84,
          "name": "C6",
          "ticks": 6819,
          "time": 79.29069767441861,
          "velocity": 0.25196850393700787
        },
        {
          "duration": 0.13953488372092693,
          "durationTicks": 12,
          "midi": 77,
          "name": "F5",
          "ticks": 6824,
          "time": 79.34883720930233,
          "velocity": 0.25984251968503935
        },
        {
          "duration": 0.023255813953483084,
          "durationTicks": 2,
          "midi": 54,
          "name": "F#3",
          "ticks": 6829,
          "time": 79.40697674418605,
          "velocity": 0.2755905511811024
        },
        {
          "duration": 0.09302325581394655,
          "durationTicks": 8,
          "midi": 72,
          "name": "C5",
          "ticks": 6835,
          "time": 79.47674418604652,
          "velocity": 0.5590551181102362
        },
        {
          "duration": 0.06976744186046346,
          "durationTicks": 6,
          "midi": 79,
          "name": "G5",
          "ticks": 6835,
          "time": 79.47674418604652,
          "velocity": 0.2992125984251969
        },
        {
          "duration": 0.023255813953483084,
          "durationTicks": 2,
          "midi": 83,
          "name": "B5",
          "ticks": 6835,
          "time": 79.47674418604652,
          "velocity": 0.2755905511811024
        },
        {
          "duration": 0.011627906976741542,
          "durationTicks": 1,
          "midi": 30,
          "name": "F#1",
          "ticks": 6836,
          "time": 79.48837209302326,
          "velocity": 0.5590551181102362
        },
        {
          "duration": 0.011627906976741542,
          "durationTicks": 1,
          "midi": 51,
          "name": "D#3",
          "ticks": 6836,
          "time": 79.48837209302326,
          "velocity": 0.5748031496062992
        },
        {
          "duration": 0.011627906976741542,
          "durationTicks": 1,
          "midi": 57,
          "name": "A3",
          "ticks": 6836,
          "time": 79.48837209302326,
          "velocity": 0.5275590551181102
        },
        {
          "duration": 0.04651162790698038,
          "durationTicks": 4,
          "midi": 63,
          "name": "D#4",
          "ticks": 6836,
          "time": 79.48837209302326,
          "velocity": 0.6299212598425197
        },
        {
          "duration": 0.12790697674418539,
          "durationTicks": 11,
          "midi": 82,
          "name": "A#5",
          "ticks": 6836,
          "time": 79.48837209302326,
          "velocity": 0.3464566929133858
        },
        {
          "duration": 0.023255813953483084,
          "durationTicks": 2,
          "midi": 85,
          "name": "C#6",
          "ticks": 6836,
          "time": 79.48837209302326,
          "velocity": 0.2992125984251969
        },
        {
          "duration": 0.023255813953483084,
          "durationTicks": 2,
          "midi": 87,
          "name": "D#6",
          "ticks": 6836,
          "time": 79.48837209302326,
          "velocity": 0.29133858267716534
        },
        {
          "duration": 0.13953488372092693,
          "durationTicks": 12,
          "midi": 92,
          "name": "G#6",
          "ticks": 6836,
          "time": 79.48837209302326,
          "velocity": 0.12598425196850394
        },
        {
          "duration": 0.023255813953483084,
          "durationTicks": 2,
          "midi": 35,
          "name": "B1",
          "ticks": 6837,
          "time": 79.5,
          "velocity": 0.5905511811023622
        },
        {
          "duration": 0.011627906976741542,
          "durationTicks": 1,
          "midi": 50,
          "name": "D3",
          "ticks": 6837,
          "time": 79.5,
          "velocity": 0.6456692913385826
        },
        {
          "duration": 0.11627906976744384,
          "durationTicks": 10,
          "midi": 80,
          "name": "G#5",
          "ticks": 6837,
          "time": 79.5,
          "velocity": 0.1889763779527559
        },
        {
          "duration": 0.023255813953497295,
          "durationTicks": 2,
          "midi": 44,
          "name": "G#2",
          "ticks": 6838,
          "time": 79.51162790697674,
          "velocity": 0.5669291338582677
        },
        {
          "duration": 0.09302325581396076,
          "durationTicks": 8,
          "midi": 51,
          "name": "D#3",
          "ticks": 6838,
          "time": 79.51162790697674,
          "velocity": 0.6456692913385826
        },
        {
          "duration": 0.12790697674418539,
          "durationTicks": 11,
          "midi": 68,
          "name": "G#4",
          "ticks": 6838,
          "time": 79.51162790697674,
          "velocity": 0.33858267716535434
        },
        {
          "duration": 0.09302325581396076,
          "durationTicks": 8,
          "midi": 70,
          "name": "A#4",
          "ticks": 6838,
          "time": 79.51162790697674,
          "velocity": 0.30708661417322836
        },
        {
          "duration": 0.011627906976755753,
          "durationTicks": 1,
          "midi": 55,
          "name": "G3",
          "ticks": 6839,
          "time": 79.52325581395348,
          "velocity": 0.5433070866141733
        },
        {
          "duration": 0.023255813953483084,
          "durationTicks": 2,
          "midi": 42,
          "name": "F#2",
          "ticks": 6840,
          "time": 79.53488372093024,
          "velocity": 0.6377952755905512
        },
        {
          "duration": 0.011627906976741542,
          "durationTicks": 1,
          "midi": 62,
          "name": "D4",
          "ticks": 6840,
          "time": 79.53488372093024,
          "velocity": 0.5826771653543307
        },
        {
          "duration": 0.023255813953483084,
          "durationTicks": 2,
          "midi": 41,
          "name": "F2",
          "ticks": 6842,
          "time": 79.55813953488372,
          "velocity": 0.5511811023622047
        },
        {
          "duration": 0.03488372093023884,
          "durationTicks": 3,
          "midi": 56,
          "name": "G#3",
          "ticks": 6843,
          "time": 79.56976744186046,
          "velocity": 0.47244094488188976
        },
        {
          "duration": 0.023255813953483084,
          "durationTicks": 2,
          "midi": 62,
          "name": "D4",
          "ticks": 6843,
          "time": 79.56976744186046,
          "velocity": 0.4566929133858268
        },
        {
          "duration": 0.023255813953497295,
          "durationTicks": 2,
          "midi": 39,
          "name": "D#2",
          "ticks": 6844,
          "time": 79.5813953488372,
          "velocity": 0.3464566929133858
        },
        {
          "duration": 0.023255813953497295,
          "durationTicks": 2,
          "midi": 72,
          "name": "C5",
          "ticks": 6844,
          "time": 79.5813953488372,
          "velocity": 0.2283464566929134
        },
        {
          "duration": 0.1279069767441996,
          "durationTicks": 11,
          "midi": 78,
          "name": "F#5",
          "ticks": 6845,
          "time": 79.59302325581395,
          "velocity": 0.4015748031496063
        },
        {
          "duration": 0.10465116279068809,
          "durationTicks": 9,
          "midi": 71,
          "name": "B4",
          "ticks": 6846,
          "time": 79.6046511627907,
          "velocity": 0.4330708661417323
        },
        {
          "duration": 0.1046511627907023,
          "durationTicks": 9,
          "midi": 47,
          "name": "B2",
          "ticks": 6847,
          "time": 79.61627906976744,
          "velocity": 0.4566929133858268
        },
        {
          "duration": 0.023255813953483084,
          "durationTicks": 2,
          "midi": 58,
          "name": "A#3",
          "ticks": 6848,
          "time": 79.62790697674419,
          "velocity": 0.4330708661417323
        },
        {
          "duration": 0.023255813953497295,
          "durationTicks": 2,
          "midi": 56,
          "name": "G#3",
          "ticks": 6850,
          "time": 79.65116279069767,
          "velocity": 0.25984251968503935
        },
        {
          "duration": 0.06976744186047767,
          "durationTicks": 6,
          "midi": 66,
          "name": "F#4",
          "ticks": 6850,
          "time": 79.65116279069767,
          "velocity": 0.2992125984251969
        },
        {
          "duration": 0.023255813953483084,
          "durationTicks": 2,
          "midi": 60,
          "name": "C4",
          "ticks": 6852,
          "time": 79.67441860465117,
          "velocity": 0.33858267716535434
        },
        {
          "duration": 0.03488372093023884,
          "durationTicks": 3,
          "midi": 82,
          "name": "A#5",
          "ticks": 6855,
          "time": 79.70930232558139,
          "velocity": 0.2125984251968504
        },
        {
          "duration": 0.023255813953483084,
          "durationTicks": 2,
          "midi": 29,
          "name": "F1",
          "ticks": 6856,
          "time": 79.72093023255815,
          "velocity": 0.33070866141732286
        },
        {
          "duration": 0.11627906976742963,
          "durationTicks": 10,
          "midi": 72,
          "name": "C5",
          "ticks": 6856,
          "time": 79.72093023255815,
          "velocity": 0.5984251968503937
        },
        {
          "duration": 0.081395348837205,
          "durationTicks": 7,
          "midi": 80,
          "name": "G#5",
          "ticks": 6856,
          "time": 79.72093023255815,
          "velocity": 0.25196850393700787
        },
        {
          "duration": 0.023255813953483084,
          "durationTicks": 2,
          "midi": 85,
          "name": "C#6",
          "ticks": 6856,
          "time": 79.72093023255815,
          "velocity": 0.2283464566929134
        },
        {
          "duration": 0.034883720930224626,
          "durationTicks": 3,
          "midi": 44,
          "name": "G#2",
          "ticks": 6857,
          "time": 79.73255813953489,
          "velocity": 0.48031496062992124
        },
        {
          "duration": 0.09302325581394655,
          "durationTicks": 8,
          "midi": 63,
          "name": "D#4",
          "ticks": 6857,
          "time": 79.73255813953489,
          "velocity": 0.25984251968503935
        },
        {
          "duration": 0.10465116279068809,
          "durationTicks": 9,
          "midi": 68,
          "name": "G#4",
          "ticks": 6857,
          "time": 79.73255813953489,
          "velocity": 0.4566929133858268
        },
        {
          "duration": 0.05813953488372192,
          "durationTicks": 5,
          "midi": 44,
          "name": "G#2",
          "ticks": 6861,
          "time": 79.77906976744185,
          "velocity": 0.4409448818897638
        },
        {
          "duration": 0.023255813953497295,
          "durationTicks": 2,
          "midi": 55,
          "name": "G3",
          "ticks": 6861,
          "time": 79.77906976744185,
          "velocity": 0.3700787401574803
        },
        {
          "duration": 0.034883720930224626,
          "durationTicks": 3,
          "midi": 56,
          "name": "G#3",
          "ticks": 6863,
          "time": 79.80232558139535,
          "velocity": 0.49606299212598426
        },
        {
          "duration": 0.04651162790698038,
          "durationTicks": 4,
          "midi": 78,
          "name": "F#5",
          "ticks": 6865,
          "time": 79.82558139534883,
          "velocity": 0.16535433070866143
        },
        {
          "duration": 0.011627906976755753,
          "durationTicks": 1,
          "midi": 55,
          "name": "G3",
          "ticks": 6866,
          "time": 79.83720930232558,
          "velocity": 0.5984251968503937
        },
        {
          "duration": 0.011627906976755753,
          "durationTicks": 1,
          "midi": 64,
          "name": "E4",
          "ticks": 6866,
          "time": 79.83720930232558,
          "velocity": 0.5984251968503937
        },
        {
          "duration": 0.1046511627907023,
          "durationTicks": 9,
          "midi": 71,
          "name": "B4",
          "ticks": 6866,
          "time": 79.83720930232558,
          "velocity": 0.3937007874015748
        },
        {
          "duration": 0.023255813953497295,
          "durationTicks": 2,
          "midi": 74,
          "name": "D5",
          "ticks": 6866,
          "time": 79.83720930232558,
          "velocity": 0.23622047244094488
        },
        {
          "duration": 0.11627906976744384,
          "durationTicks": 10,
          "midi": 86,
          "name": "D6",
          "ticks": 6866,
          "time": 79.83720930232558,
          "velocity": 0.25984251968503935
        },
        {
          "duration": 0.09302325581394655,
          "durationTicks": 8,
          "midi": 40,
          "name": "E2",
          "ticks": 6867,
          "time": 79.84883720930233,
          "velocity": 0.49606299212598426
        },
        {
          "duration": 0.011627906976741542,
          "durationTicks": 1,
          "midi": 53,
          "name": "F3",
          "ticks": 6867,
          "time": 79.84883720930233,
          "velocity": 0.5984251968503937
        },
        {
          "duration": 0.034883720930224626,
          "durationTicks": 3,
          "midi": 63,
          "name": "D#4",
          "ticks": 6867,
          "time": 79.84883720930233,
          "velocity": 0.6377952755905512
        },
        {
          "duration": 0.023255813953483084,
          "durationTicks": 2,
          "midi": 52,
          "name": "E3",
          "ticks": 6868,
          "time": 79.86046511627907,
          "velocity": 0.5826771653543307
        },
        {
          "duration": 0.04651162790698038,
          "durationTicks": 4,
          "midi": 67,
          "name": "G4",
          "ticks": 6868,
          "time": 79.86046511627907,
          "velocity": 0.3937007874015748
        },
        {
          "duration": 0.011627906976741542,
          "durationTicks": 1,
          "midi": 53,
          "name": "F3",
          "ticks": 6870,
          "time": 79.88372093023256,
          "velocity": 0.5748031496062992
        },
        {
          "duration": 0.08139534883721922,
          "durationTicks": 7,
          "midi": 55,
          "name": "G3",
          "ticks": 6871,
          "time": 79.8953488372093,
          "velocity": 0.6220472440944882
        },
        {
          "duration": 0.023255813953497295,
          "durationTicks": 2,
          "midi": 63,
          "name": "D#4",
          "ticks": 6871,
          "time": 79.8953488372093,
          "velocity": 0.5039370078740157
        },
        {
          "duration": 0.05813953488370771,
          "durationTicks": 5,
          "midi": 68,
          "name": "G#4",
          "ticks": 6872,
          "time": 79.90697674418605,
          "velocity": 0.3858267716535433
        },
        {
          "duration": 0.04651162790696617,
          "durationTicks": 4,
          "midi": 73,
          "name": "C#5",
          "ticks": 6872,
          "time": 79.90697674418605,
          "velocity": 0.44881889763779526
        },
        {
          "duration": 0.023255813953483084,
          "durationTicks": 2,
          "midi": 61,
          "name": "C#4",
          "ticks": 6874,
          "time": 79.93023255813954,
          "velocity": 0.5511811023622047
        },
        {
          "duration": 0.03488372093023884,
          "durationTicks": 3,
          "midi": 79,
          "name": "G5",
          "ticks": 6875,
          "time": 79.94186046511628,
          "velocity": 0.2440944881889764
        },
        {
          "duration": 0.03488372093023884,
          "durationTicks": 3,
          "midi": 87,
          "name": "D#6",
          "ticks": 6875,
          "time": 79.94186046511628,
          "velocity": 0.25984251968503935
        },
        {
          "duration": 0.03488372093023884,
          "durationTicks": 3,
          "midi": 89,
          "name": "F6",
          "ticks": 6875,
          "time": 79.94186046511628,
          "velocity": 0.23622047244094488
        },
        {
          "duration": 0.011627906976741542,
          "durationTicks": 1,
          "midi": 34,
          "name": "A#1",
          "ticks": 6876,
          "time": 79.95348837209302,
          "velocity": 0.5748031496062992
        },
        {
          "duration": 0.03488372093023884,
          "durationTicks": 3,
          "midi": 50,
          "name": "D3",
          "ticks": 6876,
          "time": 79.95348837209302,
          "velocity": 0.5354330708661418
        },
        {
          "duration": 0.011627906976741542,
          "durationTicks": 1,
          "midi": 62,
          "name": "D4",
          "ticks": 6876,
          "time": 79.95348837209302,
          "velocity": 0.5826771653543307
        },
        {
          "duration": 0.12790697674418539,
          "durationTicks": 11,
          "midi": 72,
          "name": "C5",
          "ticks": 6876,
          "time": 79.95348837209302,
          "velocity": 0.5826771653543307
        },
        {
          "duration": 0.023255813953497295,
          "durationTicks": 2,
          "midi": 75,
          "name": "D#5",
          "ticks": 6876,
          "time": 79.95348837209302,
          "velocity": 0.33070866141732286
        },
        {
          "duration": 0.023255813953497295,
          "durationTicks": 2,
          "midi": 81,
          "name": "A5",
          "ticks": 6876,
          "time": 79.95348837209302,
          "velocity": 0.2283464566929134
        },
        {
          "duration": 0.011627906976755753,
          "durationTicks": 1,
          "midi": 35,
          "name": "B1",
          "ticks": 6877,
          "time": 79.96511627906976,
          "velocity": 0.5826771653543307
        },
        {
          "duration": 0.15116279069768268,
          "durationTicks": 13,
          "midi": 63,
          "name": "D#4",
          "ticks": 6877,
          "time": 79.96511627906976,
          "velocity": 0.5669291338582677
        },
        {
          "duration": 0.034883720930224626,
          "durationTicks": 3,
          "midi": 41,
          "name": "F2",
          "ticks": 6879,
          "time": 79.98837209302326,
          "velocity": 0.6771653543307087
        },
        {
          "duration": 0.011627906976741542,
          "durationTicks": 1,
          "midi": 52,
          "name": "E3",
          "ticks": 6879,
          "time": 79.98837209302326,
          "velocity": 0.5669291338582677
        },
        {
          "duration": 0.11627906976744384,
          "durationTicks": 10,
          "midi": 66,
          "name": "F#4",
          "ticks": 6879,
          "time": 79.98837209302326,
          "velocity": 0.3543307086614173
        },
        {
          "duration": 0.011627906976741542,
          "durationTicks": 1,
          "midi": 54,
          "name": "F#3",
          "ticks": 6880,
          "time": 80,
          "velocity": 0.5669291338582677
        },
        {
          "duration": 0.011627906976741542,
          "durationTicks": 1,
          "midi": 55,
          "name": "G3",
          "ticks": 6881,
          "time": 80.01162790697674,
          "velocity": 0.5590551181102362
        },
        {
          "duration": 0.011627906976755753,
          "durationTicks": 1,
          "midi": 42,
          "name": "F#2",
          "ticks": 6882,
          "time": 80.02325581395348,
          "velocity": 0.5511811023622047
        },
        {
          "duration": 0.09302325581396076,
          "durationTicks": 8,
          "midi": 54,
          "name": "F#3",
          "ticks": 6882,
          "time": 80.02325581395348,
          "velocity": 0.5669291338582677
        },
        {
          "duration": 0.023255813953483084,
          "durationTicks": 2,
          "midi": 41,
          "name": "F2",
          "ticks": 6886,
          "time": 80.06976744186046,
          "velocity": 0.33858267716535434
        },
        {
          "duration": 0.081395348837205,
          "durationTicks": 7,
          "midi": 80,
          "name": "G#5",
          "ticks": 6895,
          "time": 80.17441860465117,
          "velocity": 0.28346456692913385
        },
        {
          "duration": 0.023255813953483084,
          "durationTicks": 2,
          "midi": 85,
          "name": "C#6",
          "ticks": 6895,
          "time": 80.17441860465117,
          "velocity": 0.25984251968503935
        },
        {
          "duration": 0.023255813953483084,
          "durationTicks": 2,
          "midi": 86,
          "name": "D6",
          "ticks": 6895,
          "time": 80.17441860465117,
          "velocity": 0.25196850393700787
        },
        {
          "duration": 0.023255813953483084,
          "durationTicks": 2,
          "midi": 88,
          "name": "E6",
          "ticks": 6895,
          "time": 80.17441860465117,
          "velocity": 0.25196850393700787
        },
        {
          "duration": 0.023255813953483084,
          "durationTicks": 2,
          "midi": 29,
          "name": "F1",
          "ticks": 6896,
          "time": 80.18604651162791,
          "velocity": 0.4251968503937008
        },
        {
          "duration": 0.023255813953483084,
          "durationTicks": 2,
          "midi": 48,
          "name": "C3",
          "ticks": 6896,
          "time": 80.18604651162791,
          "velocity": 0.5826771653543307
        },
        {
          "duration": 0.023255813953483084,
          "durationTicks": 2,
          "midi": 54,
          "name": "F#3",
          "ticks": 6896,
          "time": 80.18604651162791,
          "velocity": 0.5433070866141733
        },
        {
          "duration": 0.04651162790698038,
          "durationTicks": 4,
          "midi": 63,
          "name": "D#4",
          "ticks": 6896,
          "time": 80.18604651162791,
          "velocity": 0.5984251968503937
        },
        {
          "duration": 0.11627906976744384,
          "durationTicks": 10,
          "midi": 72,
          "name": "C5",
          "ticks": 6896,
          "time": 80.18604651162791,
          "velocity": 0.5590551181102362
        },
        {
          "duration": 0.023255813953483084,
          "durationTicks": 2,
          "midi": 77,
          "name": "F5",
          "ticks": 6896,
          "time": 80.18604651162791,
          "velocity": 0.30708661417322836
        },
        {
          "duration": 0.2093023255814046,
          "durationTicks": 18,
          "midi": 68,
          "name": "G#4",
          "ticks": 6897,
          "time": 80.19767441860465,
          "velocity": 0.31496062992125984
        },
        {
          "duration": 0.011627906976755753,
          "durationTicks": 1,
          "midi": 50,
          "name": "D3",
          "ticks": 6898,
          "time": 80.20930232558139,
          "velocity": 0.6062992125984252
        },
        {
          "duration": 0.1860465116279073,
          "durationTicks": 16,
          "midi": 49,
          "name": "C#3",
          "ticks": 6899,
          "time": 80.22093023255815,
          "velocity": 0.6535433070866141
        },
        {
          "duration": 0.03488372093023884,
          "durationTicks": 3,
          "midi": 56,
          "name": "G#3",
          "ticks": 6902,
          "time": 80.25581395348837,
          "velocity": 0.4251968503937008
        },
        {
          "duration": 0.1046511627907023,
          "durationTicks": 9,
          "midi": 75,
          "name": "D#5",
          "ticks": 6902,
          "time": 80.25581395348837,
          "velocity": 0.1889763779527559
        },
        {
          "duration": 0.023255813953483084,
          "durationTicks": 2,
          "midi": 56,
          "name": "G#3",
          "ticks": 6906,
          "time": 80.30232558139535,
          "velocity": 0.4330708661417323
        },
        {
          "duration": 0.023255813953497295,
          "durationTicks": 2,
          "midi": 57,
          "name": "A3",
          "ticks": 6908,
          "time": 80.32558139534883,
          "velocity": 0.3700787401574803
        },
        {
          "duration": 0.03488372093023884,
          "durationTicks": 3,
          "midi": 56,
          "name": "G#3",
          "ticks": 6914,
          "time": 80.3953488372093,
          "velocity": 0.4645669291338583
        },
        {
          "duration": 0.12790697674418539,
          "durationTicks": 11,
          "midi": 72,
          "name": "C5",
          "ticks": 6914,
          "time": 80.3953488372093,
          "velocity": 0.5669291338582677
        },
        {
          "duration": 0.023255813953483084,
          "durationTicks": 2,
          "midi": 50,
          "name": "D3",
          "ticks": 6915,
          "time": 80.40697674418605,
          "velocity": 0.5826771653543307
        },
        {
          "duration": 0.023255813953483084,
          "durationTicks": 2,
          "midi": 83,
          "name": "B5",
          "ticks": 6915,
          "time": 80.40697674418605,
          "velocity": 0.25984251968503935
        },
        {
          "duration": 0.023255813953483084,
          "durationTicks": 2,
          "midi": 86,
          "name": "D6",
          "ticks": 6915,
          "time": 80.40697674418605,
          "velocity": 0.2677165354330709
        },
        {
          "duration": 0.023255813953483084,
          "durationTicks": 2,
          "midi": 87,
          "name": "D#6",
          "ticks": 6915,
          "time": 80.40697674418605,
          "velocity": 0.2677165354330709
        },
        {
          "duration": 0.023255813953483084,
          "durationTicks": 2,
          "midi": 89,
          "name": "F6",
          "ticks": 6915,
          "time": 80.40697674418605,
          "velocity": 0.25984251968503935
        },
        {
          "duration": 0.011627906976741542,
          "durationTicks": 1,
          "midi": 35,
          "name": "B1",
          "ticks": 6916,
          "time": 80.4186046511628,
          "velocity": 0.5984251968503937
        },
        {
          "duration": 0.13953488372092693,
          "durationTicks": 12,
          "midi": 63,
          "name": "D#4",
          "ticks": 6916,
          "time": 80.4186046511628,
          "velocity": 0.5748031496062992
        },
        {
          "duration": 0.011627906976741542,
          "durationTicks": 1,
          "midi": 36,
          "name": "C2",
          "ticks": 6917,
          "time": 80.43023255813954,
          "velocity": 0.5590551181102362
        },
        {
          "duration": 0.011627906976741542,
          "durationTicks": 1,
          "midi": 43,
          "name": "G2",
          "ticks": 6917,
          "time": 80.43023255813954,
          "velocity": 0.5433070866141733
        },
        {
          "duration": 0.011627906976741542,
          "durationTicks": 1,
          "midi": 45,
          "name": "A2",
          "ticks": 6918,
          "time": 80.44186046511628,
          "velocity": 0.5433070866141733
        },
        {
          "duration": 0.04651162790698038,
          "durationTicks": 4,
          "midi": 41,
          "name": "F2",
          "ticks": 6919,
          "time": 80.45348837209302,
          "velocity": 0.6692913385826772
        },
        {
          "duration": 0.03488372093023884,
          "durationTicks": 3,
          "midi": 51,
          "name": "D#3",
          "ticks": 6919,
          "time": 80.45348837209302,
          "velocity": 0.5511811023622047
        },
        {
          "duration": 0.12790697674418539,
          "durationTicks": 11,
          "midi": 55,
          "name": "G3",
          "ticks": 6921,
          "time": 80.47674418604652,
          "velocity": 0.4409448818897638
        },
        {
          "duration": 0.03488372093023884,
          "durationTicks": 3,
          "midi": 41,
          "name": "F2",
          "ticks": 6925,
          "time": 80.52325581395348,
          "velocity": 0.3228346456692913
        },
        {
          "duration": 0.11627906976744384,
          "durationTicks": 10,
          "midi": 65,
          "name": "F4",
          "ticks": 6935,
          "time": 80.63953488372093,
          "velocity": 0.6062992125984252
        },
        {
          "duration": 0.11627906976744384,
          "durationTicks": 10,
          "midi": 72,
          "name": "C5",
          "ticks": 6935,
          "time": 80.63953488372093,
          "velocity": 0.5590551181102362
        },
        {
          "duration": 0.11627906976744384,
          "durationTicks": 10,
          "midi": 80,
          "name": "G#5",
          "ticks": 6935,
          "time": 80.63953488372093,
          "velocity": 0.2755905511811024
        },
        {
          "duration": 0.09302325581396076,
          "durationTicks": 8,
          "midi": 83,
          "name": "B5",
          "ticks": 6935,
          "time": 80.63953488372093,
          "velocity": 0.2677165354330709
        },
        {
          "duration": 0.023255813953497295,
          "durationTicks": 2,
          "midi": 86,
          "name": "D6",
          "ticks": 6935,
          "time": 80.63953488372093,
          "velocity": 0.2677165354330709
        },
        {
          "duration": 0.023255813953497295,
          "durationTicks": 2,
          "midi": 48,
          "name": "C3",
          "ticks": 6936,
          "time": 80.65116279069767,
          "velocity": 0.5511811023622047
        },
        {
          "duration": 0.08139534883721922,
          "durationTicks": 7,
          "midi": 61,
          "name": "C#4",
          "ticks": 6936,
          "time": 80.65116279069767,
          "velocity": 0.4566929133858268
        },
        {
          "duration": 0.023255813953497295,
          "durationTicks": 2,
          "midi": 76,
          "name": "E5",
          "ticks": 6936,
          "time": 80.65116279069767,
          "velocity": 0.2755905511811024
        },
        {
          "duration": 0.011627906976741542,
          "durationTicks": 1,
          "midi": 49,
          "name": "C#3",
          "ticks": 6938,
          "time": 80.67441860465117,
          "velocity": 0.6141732283464567
        },
        {
          "duration": 0.12790697674418539,
          "durationTicks": 11,
          "midi": 75,
          "name": "D#5",
          "ticks": 6938,
          "time": 80.67441860465117,
          "velocity": 0.28346456692913385
        },
        {
          "duration": 0.011627906976741542,
          "durationTicks": 1,
          "midi": 50,
          "name": "D3",
          "ticks": 6939,
          "time": 80.68604651162791,
          "velocity": 0.6377952755905512
        },
        {
          "duration": 0.011627906976741542,
          "durationTicks": 1,
          "midi": 49,
          "name": "C#3",
          "ticks": 6940,
          "time": 80.69767441860465,
          "velocity": 0.5354330708661418
        },
        {
          "duration": 0.04651162790698038,
          "durationTicks": 4,
          "midi": 68,
          "name": "G#4",
          "ticks": 6941,
          "time": 80.70930232558139,
          "velocity": 0.15748031496062992
        },
        {
          "duration": 0.023255813953483084,
          "durationTicks": 2,
          "midi": 50,
          "name": "D3",
          "ticks": 6942,
          "time": 80.72093023255815,
          "velocity": 0.4645669291338583
        },
        {
          "duration": 0.023255813953483084,
          "durationTicks": 2,
          "midi": 57,
          "name": "A3",
          "ticks": 6944,
          "time": 80.74418604651163,
          "velocity": 0.4015748031496063
        },
        {
          "duration": 0.023255813953483084,
          "durationTicks": 2,
          "midi": 61,
          "name": "C#4",
          "ticks": 6944,
          "time": 80.74418604651163,
          "velocity": 0.5669291338582677
        },
        {
          "duration": 0.08139534883721922,
          "durationTicks": 7,
          "midi": 56,
          "name": "G#3",
          "ticks": 6946,
          "time": 80.76744186046511,
          "velocity": 0.3858267716535433
        },
        {
          "duration": 0.1860465116279073,
          "durationTicks": 16,
          "midi": 63,
          "name": "D#4",
          "ticks": 6946,
          "time": 80.76744186046511,
          "velocity": 0.6141732283464567
        },
        {
          "duration": 0.04651162790698038,
          "durationTicks": 4,
          "midi": 49,
          "name": "C#3",
          "ticks": 6950,
          "time": 80.81395348837209,
          "velocity": 0.08661417322834646
        },
        {
          "duration": 0.11627906976744384,
          "durationTicks": 10,
          "midi": 72,
          "name": "C5",
          "ticks": 6954,
          "time": 80.86046511627907,
          "velocity": 0.5590551181102362
        },
        {
          "duration": 0.034883720930224626,
          "durationTicks": 3,
          "midi": 81,
          "name": "A5",
          "ticks": 6954,
          "time": 80.86046511627907,
          "velocity": 0.2755905511811024
        },
        {
          "duration": 0.034883720930224626,
          "durationTicks": 3,
          "midi": 85,
          "name": "C#6",
          "ticks": 6954,
          "time": 80.86046511627907,
          "velocity": 0.23622047244094488
        },
        {
          "duration": 0.011627906976741542,
          "durationTicks": 1,
          "midi": 36,
          "name": "C2",
          "ticks": 6955,
          "time": 80.87209302325581,
          "velocity": 0.5669291338582677
        },
        {
          "duration": 0.023255813953483084,
          "durationTicks": 2,
          "midi": 50,
          "name": "D3",
          "ticks": 6955,
          "time": 80.87209302325581,
          "velocity": 0.6456692913385826
        },
        {
          "duration": 0.03488372093023884,
          "durationTicks": 3,
          "midi": 78,
          "name": "F#5",
          "ticks": 6955,
          "time": 80.87209302325581,
          "velocity": 0.2755905511811024
        },
        {
          "duration": 0.023255813953497295,
          "durationTicks": 2,
          "midi": 35,
          "name": "B1",
          "ticks": 6956,
          "time": 80.88372093023256,
          "velocity": 0.6299212598425197
        },
        {
          "duration": 0.12790697674418539,
          "durationTicks": 11,
          "midi": 82,
          "name": "A#5",
          "ticks": 6956,
          "time": 80.88372093023256,
          "velocity": 0.2992125984251969
        },
        {
          "duration": 0.011627906976755753,
          "durationTicks": 1,
          "midi": 44,
          "name": "G#2",
          "ticks": 6957,
          "time": 80.8953488372093,
          "velocity": 0.5196850393700787
        },
        {
          "duration": 0.17441860465116577,
          "durationTicks": 15,
          "midi": 51,
          "name": "D#3",
          "ticks": 6957,
          "time": 80.8953488372093,
          "velocity": 0.6692913385826772
        },
        {
          "duration": 0.023255813953483084,
          "durationTicks": 2,
          "midi": 42,
          "name": "F#2",
          "ticks": 6959,
          "time": 80.9186046511628,
          "velocity": 0.6377952755905512
        },
        {
          "duration": 0.034883720930224626,
          "durationTicks": 3,
          "midi": 79,
          "name": "G5",
          "ticks": 6959,
          "time": 80.9186046511628,
          "velocity": 0.08661417322834646
        },
        {
          "duration": 0.023255813953483084,
          "durationTicks": 2,
          "midi": 41,
          "name": "F2",
          "ticks": 6961,
          "time": 80.94186046511628,
          "velocity": 0.5748031496062992
        },
        {
          "duration": 0.1046511627907023,
          "durationTicks": 9,
          "midi": 68,
          "name": "G#4",
          "ticks": 6961,
          "time": 80.94186046511628,
          "velocity": 0.2440944881889764
        },
        {
          "duration": 0.023255813953483084,
          "durationTicks": 2,
          "midi": 56,
          "name": "G#3",
          "ticks": 6964,
          "time": 80.97674418604652,
          "velocity": 0.4015748031496063
        },
        {
          "duration": 0.023255813953483084,
          "durationTicks": 2,
          "midi": 41,
          "name": "F2",
          "ticks": 6966,
          "time": 81,
          "velocity": 0.25984251968503935
        },
        {
          "duration": 0.023255813953483084,
          "durationTicks": 2,
          "midi": 57,
          "name": "A3",
          "ticks": 6966,
          "time": 81,
          "velocity": 0.33858267716535434
        },
        {
          "duration": 0.04651162790698038,
          "durationTicks": 4,
          "midi": 56,
          "name": "G#3",
          "ticks": 6968,
          "time": 81.02325581395348,
          "velocity": 0.2125984251968504
        },
        {
          "duration": 0.03488372093023884,
          "durationTicks": 3,
          "midi": 88,
          "name": "E6",
          "ticks": 6974,
          "time": 81.09302325581395,
          "velocity": 0.23622047244094488
        },
        {
          "duration": 0.081395348837205,
          "durationTicks": 7,
          "midi": 63,
          "name": "D#4",
          "ticks": 6975,
          "time": 81.1046511627907,
          "velocity": 0.6141732283464567
        },
        {
          "duration": 0.15116279069766847,
          "durationTicks": 13,
          "midi": 72,
          "name": "C5",
          "ticks": 6975,
          "time": 81.1046511627907,
          "velocity": 0.5354330708661418
        },
        {
          "duration": 0.011627906976741542,
          "durationTicks": 1,
          "midi": 48,
          "name": "C3",
          "ticks": 6976,
          "time": 81.11627906976744,
          "velocity": 0.5354330708661418
        },
        {
          "duration": 0.13953488372092693,
          "durationTicks": 12,
          "midi": 80,
          "name": "G#5",
          "ticks": 6976,
          "time": 81.11627906976744,
          "velocity": 0.1968503937007874
        },
        {
          "duration": 0.13953488372092693,
          "durationTicks": 12,
          "midi": 49,
          "name": "C#3",
          "ticks": 6977,
          "time": 81.12790697674419,
          "velocity": 0.5826771653543307
        },
        {
          "duration": 0.06976744186046346,
          "durationTicks": 6,
          "midi": 65,
          "name": "F4",
          "ticks": 6985,
          "time": 81.22093023255815,
          "velocity": 0.2047244094488189
        },
        {
          "duration": 0.04651162790698038,
          "durationTicks": 4,
          "midi": 54,
          "name": "F#3",
          "ticks": 6990,
          "time": 81.27906976744185,
          "velocity": 0.11811023622047244
        },
        {
          "duration": 0.06976744186046346,
          "durationTicks": 6,
          "midi": 70,
          "name": "A#4",
          "ticks": 6994,
          "time": 81.32558139534883,
          "velocity": 0.5433070866141733
        },
        {
          "duration": 0.12790697674418539,
          "durationTicks": 11,
          "midi": 75,
          "name": "D#5",
          "ticks": 6994,
          "time": 81.32558139534883,
          "velocity": 0.30708661417322836
        },
        {
          "duration": 0.03488372093023884,
          "durationTicks": 3,
          "midi": 86,
          "name": "D6",
          "ticks": 6994,
          "time": 81.32558139534883,
          "velocity": 0.2755905511811024
        },
        {
          "duration": 0.011627906976755753,
          "durationTicks": 1,
          "midi": 34,
          "name": "A#1",
          "ticks": 6995,
          "time": 81.33720930232558,
          "velocity": 0.5354330708661418
        },
        {
          "duration": 0.011627906976755753,
          "durationTicks": 1,
          "midi": 51,
          "name": "D#3",
          "ticks": 6995,
          "time": 81.33720930232558,
          "velocity": 0.5669291338582677
        },
        {
          "duration": 0.11627906976744384,
          "durationTicks": 10,
          "midi": 63,
          "name": "D#4",
          "ticks": 6995,
          "time": 81.33720930232558,
          "velocity": 0.6141732283464567
        },
        {
          "duration": 0.04651162790698038,
          "durationTicks": 4,
          "midi": 79,
          "name": "G5",
          "ticks": 6995,
          "time": 81.33720930232558,
          "velocity": 0.30708661417322836
        },
        {
          "duration": 0.03488372093023884,
          "durationTicks": 3,
          "midi": 81,
          "name": "A5",
          "ticks": 6995,
          "time": 81.33720930232558,
          "velocity": 0.2204724409448819
        },
        {
          "duration": 0.023255813953497295,
          "durationTicks": 2,
          "midi": 84,
          "name": "C6",
          "ticks": 6995,
          "time": 81.33720930232558,
          "velocity": 0.2440944881889764
        },
        {
          "duration": 0.023255813953497295,
          "durationTicks": 2,
          "midi": 88,
          "name": "E6",
          "ticks": 6995,
          "time": 81.33720930232558,
          "velocity": 0.2440944881889764
        },
        {
          "duration": 0.011627906976741542,
          "durationTicks": 1,
          "midi": 35,
          "name": "B1",
          "ticks": 6996,
          "time": 81.34883720930233,
          "velocity": 0.5905511811023622
        },
        {
          "duration": 0.011627906976741542,
          "durationTicks": 1,
          "midi": 50,
          "name": "D3",
          "ticks": 6996,
          "time": 81.34883720930233,
          "velocity": 0.6299212598425197
        },
        {
          "duration": 0.034883720930224626,
          "durationTicks": 3,
          "midi": 73,
          "name": "C#5",
          "ticks": 6996,
          "time": 81.34883720930233,
          "velocity": 0.3464566929133858
        },
        {
          "duration": 0.011627906976741542,
          "durationTicks": 1,
          "midi": 41,
          "name": "F2",
          "ticks": 6997,
          "time": 81.36046511627907,
          "velocity": 0.5275590551181102
        },
        {
          "duration": 0.09302325581394655,
          "durationTicks": 8,
          "midi": 51,
          "name": "D#3",
          "ticks": 6997,
          "time": 81.36046511627907,
          "velocity": 0.6771653543307087
        },
        {
          "duration": 0.15116279069766847,
          "durationTicks": 13,
          "midi": 77,
          "name": "F5",
          "ticks": 6997,
          "time": 81.36046511627907,
          "velocity": 0.41732283464566927
        },
        {
          "duration": 0.081395348837205,
          "durationTicks": 7,
          "midi": 78,
          "name": "F#5",
          "ticks": 6997,
          "time": 81.36046511627907,
          "velocity": 0.3228346456692913
        },
        {
          "duration": 0.023255813953483084,
          "durationTicks": 2,
          "midi": 43,
          "name": "G2",
          "ticks": 6998,
          "time": 81.37209302325581,
          "velocity": 0.5511811023622047
        },
        {
          "duration": 0.09302325581394655,
          "durationTicks": 8,
          "midi": 58,
          "name": "A#3",
          "ticks": 6998,
          "time": 81.37209302325581,
          "velocity": 0.4566929133858268
        },
        {
          "duration": 0.09302325581394655,
          "durationTicks": 8,
          "midi": 66,
          "name": "F#4",
          "ticks": 6998,
          "time": 81.37209302325581,
          "velocity": 0.3543307086614173
        },
        {
          "duration": 0.04651162790698038,
          "durationTicks": 4,
          "midi": 41,
          "name": "F2",
          "ticks": 7000,
          "time": 81.3953488372093,
          "velocity": 0.6220472440944882
        },
        {
          "duration": 0.023255813953497295,
          "durationTicks": 2,
          "midi": 69,
          "name": "A4",
          "ticks": 7000,
          "time": 81.3953488372093,
          "velocity": 0.30708661417322836
        },
        {
          "duration": 0.12790697674418539,
          "durationTicks": 11,
          "midi": 79,
          "name": "G5",
          "ticks": 7004,
          "time": 81.44186046511628,
          "velocity": 0.4015748031496063
        },
        {
          "duration": 0.11627906976744384,
          "durationTicks": 10,
          "midi": 48,
          "name": "C3",
          "ticks": 7005,
          "time": 81.45348837209302,
          "velocity": 0.5669291338582677
        },
        {
          "duration": 0.12790697674418539,
          "durationTicks": 11,
          "midi": 83,
          "name": "B5",
          "ticks": 7006,
          "time": 81.46511627906976,
          "velocity": 0.29133858267716534
        },
        {
          "duration": 0.09302325581394655,
          "durationTicks": 8,
          "midi": 64,
          "name": "E4",
          "ticks": 7008,
          "time": 81.48837209302326,
          "velocity": 0.3543307086614173
        },
        {
          "duration": 0.06976744186046346,
          "durationTicks": 6,
          "midi": 67,
          "name": "G4",
          "ticks": 7008,
          "time": 81.48837209302326,
          "velocity": 0.25984251968503935
        },
        {
          "duration": 0.04651162790698038,
          "durationTicks": 4,
          "midi": 70,
          "name": "A#4",
          "ticks": 7009,
          "time": 81.5,
          "velocity": 0.14960629921259844
        },
        {
          "duration": 0.023255813953483084,
          "durationTicks": 2,
          "midi": 81,
          "name": "A5",
          "ticks": 7014,
          "time": 81.55813953488372,
          "velocity": 0.2755905511811024
        },
        {
          "duration": 0.034883720930224626,
          "durationTicks": 3,
          "midi": 89,
          "name": "F6",
          "ticks": 7014,
          "time": 81.55813953488372,
          "velocity": 0.2440944881889764
        },
        {
          "duration": 0.023255813953483084,
          "durationTicks": 2,
          "midi": 45,
          "name": "A2",
          "ticks": 7015,
          "time": 81.56976744186046,
          "velocity": 0.4566929133858268
        },
        {
          "duration": 0.1046511627907023,
          "durationTicks": 9,
          "midi": 58,
          "name": "A#3",
          "ticks": 7015,
          "time": 81.56976744186046,
          "velocity": 0.5511811023622047
        },
        {
          "duration": 0.1046511627907023,
          "durationTicks": 9,
          "midi": 70,
          "name": "A#4",
          "ticks": 7015,
          "time": 81.56976744186046,
          "velocity": 0.5748031496062992
        },
        {
          "duration": 0.11627906976744384,
          "durationTicks": 10,
          "midi": 77,
          "name": "F5",
          "ticks": 7015,
          "time": 81.56976744186046,
          "velocity": 0.4330708661417323
        },
        {
          "duration": 0.023255813953483084,
          "durationTicks": 2,
          "midi": 87,
          "name": "D#6",
          "ticks": 7015,
          "time": 81.56976744186046,
          "velocity": 0.25196850393700787
        },
        {
          "duration": 0.05813953488372192,
          "durationTicks": 5,
          "midi": 92,
          "name": "G#6",
          "ticks": 7015,
          "time": 81.56976744186046,
          "velocity": 0.10236220472440945
        },
        {
          "duration": 0.1046511627907023,
          "durationTicks": 9,
          "midi": 65,
          "name": "F4",
          "ticks": 7016,
          "time": 81.5813953488372,
          "velocity": 0.44881889763779526
        },
        {
          "duration": 0.09302325581396076,
          "durationTicks": 8,
          "midi": 80,
          "name": "G#5",
          "ticks": 7016,
          "time": 81.5813953488372,
          "velocity": 0.2283464566929134
        },
        {
          "duration": 0.08139534883721922,
          "durationTicks": 7,
          "midi": 46,
          "name": "A#2",
          "ticks": 7017,
          "time": 81.59302325581395,
          "velocity": 0.4566929133858268
        },
        {
          "duration": 0.09302325581396076,
          "durationTicks": 8,
          "midi": 73,
          "name": "C#5",
          "ticks": 7017,
          "time": 81.59302325581395,
          "velocity": 0.29133858267716534
        },
        {
          "duration": 0.03488372093023884,
          "durationTicks": 3,
          "midi": 61,
          "name": "C#4",
          "ticks": 7021,
          "time": 81.63953488372093,
          "velocity": 0.3700787401574803
        },
        {
          "duration": 0.04651162790698038,
          "durationTicks": 4,
          "midi": 81,
          "name": "A5",
          "ticks": 7024,
          "time": 81.67441860465117,
          "velocity": 0.1889763779527559
        },
        {
          "duration": 0.034883720930224626,
          "durationTicks": 3,
          "midi": 83,
          "name": "B5",
          "ticks": 7024,
          "time": 81.67441860465117,
          "velocity": 0.18110236220472442
        },
        {
          "duration": 0.09302325581394655,
          "durationTicks": 8,
          "midi": 55,
          "name": "G3",
          "ticks": 7025,
          "time": 81.68604651162791,
          "velocity": 0.5669291338582677
        },
        {
          "duration": 0.1046511627907023,
          "durationTicks": 9,
          "midi": 63,
          "name": "D#4",
          "ticks": 7025,
          "time": 81.68604651162791,
          "velocity": 0.6220472440944882
        },
        {
          "duration": 0.11627906976744384,
          "durationTicks": 10,
          "midi": 74,
          "name": "D5",
          "ticks": 7025,
          "time": 81.68604651162791,
          "velocity": 0.4094488188976378
        },
        {
          "duration": 0.03488372093023884,
          "durationTicks": 3,
          "midi": 76,
          "name": "E5",
          "ticks": 7025,
          "time": 81.68604651162791,
          "velocity": 0.2204724409448819
        },
        {
          "duration": 0.03488372093023884,
          "durationTicks": 3,
          "midi": 71,
          "name": "B4",
          "ticks": 7026,
          "time": 81.69767441860465,
          "velocity": 0.2677165354330709
        },
        {
          "duration": 0.04651162790698038,
          "durationTicks": 4,
          "midi": 78,
          "name": "F#5",
          "ticks": 7026,
          "time": 81.69767441860465,
          "velocity": 0.2047244094488189
        },
        {
          "duration": 0.023255813953483084,
          "durationTicks": 2,
          "midi": 44,
          "name": "G#2",
          "ticks": 7028,
          "time": 81.72093023255815,
          "velocity": 0.5039370078740157
        },
        {
          "duration": 0.06976744186046346,
          "durationTicks": 6,
          "midi": 59,
          "name": "B3",
          "ticks": 7028,
          "time": 81.72093023255815,
          "velocity": 0.5196850393700787
        },
        {
          "duration": 0.06976744186046346,
          "durationTicks": 6,
          "midi": 70,
          "name": "A#4",
          "ticks": 7028,
          "time": 81.72093023255815,
          "velocity": 0.3228346456692913
        },
        {
          "duration": 0.15116279069766847,
          "durationTicks": 13,
          "midi": 77,
          "name": "F5",
          "ticks": 7028,
          "time": 81.72093023255815,
          "velocity": 0.3700787401574803
        },
        {
          "duration": 0.04651162790698038,
          "durationTicks": 4,
          "midi": 43,
          "name": "G2",
          "ticks": 7030,
          "time": 81.74418604651163,
          "velocity": 0.4330708661417323
        },
        {
          "duration": 0.023255813953497295,
          "durationTicks": 2,
          "midi": 50,
          "name": "D3",
          "ticks": 7033,
          "time": 81.77906976744185,
          "velocity": 0.4015748031496063
        },
        {
          "duration": 0.03488372093023884,
          "durationTicks": 3,
          "midi": 78,
          "name": "F#5",
          "ticks": 7033,
          "time": 81.77906976744185,
          "velocity": 0.25196850393700787
        },
        {
          "duration": 0.023255813953483084,
          "durationTicks": 2,
          "midi": 71,
          "name": "B4",
          "ticks": 7034,
          "time": 81.79069767441861,
          "velocity": 0.49606299212598426
        },
        {
          "duration": 0.034883720930224626,
          "durationTicks": 3,
          "midi": 87,
          "name": "D#6",
          "ticks": 7034,
          "time": 81.79069767441861,
          "velocity": 0.2125984251968504
        },
        {
          "duration": 0.011627906976741542,
          "durationTicks": 1,
          "midi": 35,
          "name": "B1",
          "ticks": 7035,
          "time": 81.80232558139535,
          "velocity": 0.5984251968503937
        },
        {
          "duration": 0.023255813953483084,
          "durationTicks": 2,
          "midi": 49,
          "name": "C#3",
          "ticks": 7035,
          "time": 81.80232558139535,
          "velocity": 0.5039370078740157
        },
        {
          "duration": 0.011627906976741542,
          "durationTicks": 1,
          "midi": 55,
          "name": "G3",
          "ticks": 7035,
          "time": 81.80232558139535,
          "velocity": 0.5118110236220472
        },
        {
          "duration": 0.011627906976741542,
          "durationTicks": 1,
          "midi": 59,
          "name": "B3",
          "ticks": 7035,
          "time": 81.80232558139535,
          "velocity": 0.5275590551181102
        },
        {
          "duration": 0.11627906976744384,
          "durationTicks": 10,
          "midi": 63,
          "name": "D#4",
          "ticks": 7035,
          "time": 81.80232558139535,
          "velocity": 0.5511811023622047
        },
        {
          "duration": 0.011627906976741542,
          "durationTicks": 1,
          "midi": 40,
          "name": "E2",
          "ticks": 7036,
          "time": 81.81395348837209,
          "velocity": 0.6220472440944882
        },
        {
          "duration": 0.023255813953483084,
          "durationTicks": 2,
          "midi": 54,
          "name": "F#3",
          "ticks": 7036,
          "time": 81.81395348837209,
          "velocity": 0.5669291338582677
        },
        {
          "duration": 0.16279069767442422,
          "durationTicks": 14,
          "midi": 58,
          "name": "A#3",
          "ticks": 7036,
          "time": 81.81395348837209,
          "velocity": 0.5511811023622047
        },
        {
          "duration": 0.011627906976741542,
          "durationTicks": 1,
          "midi": 41,
          "name": "F2",
          "ticks": 7037,
          "time": 81.82558139534883,
          "velocity": 0.5196850393700787
        },
        {
          "duration": 0.05813953488372192,
          "durationTicks": 5,
          "midi": 73,
          "name": "C#5",
          "ticks": 7037,
          "time": 81.82558139534883,
          "velocity": 0.14173228346456693
        },
        {
          "duration": 0.023255813953497295,
          "durationTicks": 2,
          "midi": 43,
          "name": "G2",
          "ticks": 7038,
          "time": 81.83720930232558,
          "velocity": 0.5984251968503937
        },
        {
          "duration": 0.011627906976755753,
          "durationTicks": 1,
          "midi": 53,
          "name": "F3",
          "ticks": 7038,
          "time": 81.83720930232558,
          "velocity": 0.5433070866141733
        },
        {
          "duration": 0.05813953488372192,
          "durationTicks": 5,
          "midi": 41,
          "name": "F2",
          "ticks": 7040,
          "time": 81.86046511627907,
          "velocity": 0.6456692913385826
        },
        {
          "duration": 0.023255813953483084,
          "durationTicks": 2,
          "midi": 40,
          "name": "E2",
          "ticks": 7045,
          "time": 81.9186046511628,
          "velocity": 0.28346456692913385
        },
        {
          "duration": 0.06976744186046346,
          "durationTicks": 6,
          "midi": 80,
          "name": "G#5",
          "ticks": 7054,
          "time": 82.02325581395348,
          "velocity": 0.25196850393700787
        },
        {
          "duration": 0.03488372093023884,
          "durationTicks": 3,
          "midi": 83,
          "name": "B5",
          "ticks": 7054,
          "time": 82.02325581395348,
          "velocity": 0.2125984251968504
        },
        {
          "duration": 0.09302325581396076,
          "durationTicks": 8,
          "midi": 86,
          "name": "D6",
          "ticks": 7054,
          "time": 82.02325581395348,
          "velocity": 0.2047244094488189
        },
        {
          "duration": 0.011627906976741542,
          "durationTicks": 1,
          "midi": 47,
          "name": "B2",
          "ticks": 7055,
          "time": 82.03488372093024,
          "velocity": 0.5118110236220472
        },
        {
          "duration": 0.081395348837205,
          "durationTicks": 7,
          "midi": 55,
          "name": "G3",
          "ticks": 7055,
          "time": 82.03488372093024,
          "velocity": 0.5590551181102362
        },
        {
          "duration": 0.13953488372092693,
          "durationTicks": 12,
          "midi": 63,
          "name": "D#4",
          "ticks": 7055,
          "time": 82.03488372093024,
          "velocity": 0.6062992125984252
        },
        {
          "duration": 0.17441860465115155,
          "durationTicks": 15,
          "midi": 70,
          "name": "A#4",
          "ticks": 7055,
          "time": 82.03488372093024,
          "velocity": 0.5511811023622047
        },
        {
          "duration": 0.023255813953483084,
          "durationTicks": 2,
          "midi": 77,
          "name": "F5",
          "ticks": 7055,
          "time": 82.03488372093024,
          "velocity": 0.25196850393700787
        },
        {
          "duration": 0.011627906976741542,
          "durationTicks": 1,
          "midi": 48,
          "name": "C3",
          "ticks": 7056,
          "time": 82.04651162790698,
          "velocity": 0.5905511811023622
        },
        {
          "duration": 0.023255813953483084,
          "durationTicks": 2,
          "midi": 81,
          "name": "A5",
          "ticks": 7056,
          "time": 82.04651162790698,
          "velocity": 0.25196850393700787
        },
        {
          "duration": 0.04651162790698038,
          "durationTicks": 4,
          "midi": 49,
          "name": "C#3",
          "ticks": 7057,
          "time": 82.05813953488372,
          "velocity": 0.6220472440944882
        },
        {
          "duration": 0.11627906976744384,
          "durationTicks": 10,
          "midi": 77,
          "name": "F5",
          "ticks": 7058,
          "time": 82.06976744186046,
          "velocity": 0.29133858267716534
        },
        {
          "duration": 0.023255813953483084,
          "durationTicks": 2,
          "midi": 51,
          "name": "D#3",
          "ticks": 7063,
          "time": 82.12790697674419,
          "velocity": 0.4330708661417323
        },
        {
          "duration": 0.05813953488372192,
          "durationTicks": 5,
          "midi": 58,
          "name": "A#3",
          "ticks": 7063,
          "time": 82.12790697674419,
          "velocity": 0.3937007874015748
        },
        {
          "duration": 0.034883720930224626,
          "durationTicks": 3,
          "midi": 51,
          "name": "D#3",
          "ticks": 7066,
          "time": 82.16279069767442,
          "velocity": 0.4015748031496063
        },
        {
          "duration": 0.023255813953483084,
          "durationTicks": 2,
          "midi": 50,
          "name": "D3",
          "ticks": 7073,
          "time": 82.24418604651163,
          "velocity": 0.41732283464566927
        },
        {
          "duration": 0.11627906976744384,
          "durationTicks": 10,
          "midi": 70,
          "name": "A#4",
          "ticks": 7074,
          "time": 82.25581395348837,
          "velocity": 0.5511811023622047
        },
        {
          "duration": 0.023255813953483084,
          "durationTicks": 2,
          "midi": 76,
          "name": "E5",
          "ticks": 7074,
          "time": 82.25581395348837,
          "velocity": 0.25196850393700787
        },
        {
          "duration": 0.023255813953483084,
          "durationTicks": 2,
          "midi": 78,
          "name": "F#5",
          "ticks": 7074,
          "time": 82.25581395348837,
          "velocity": 0.2283464566929134
        },
        {
          "duration": 0.011627906976741542,
          "durationTicks": 1,
          "midi": 36,
          "name": "C2",
          "ticks": 7075,
          "time": 82.26744186046511,
          "velocity": 0.6220472440944882
        },
        {
          "duration": 0.023255813953497295,
          "durationTicks": 2,
          "midi": 55,
          "name": "G3",
          "ticks": 7075,
          "time": 82.26744186046511,
          "velocity": 0.5196850393700787
        },
        {
          "duration": 0.13953488372094114,
          "durationTicks": 12,
          "midi": 63,
          "name": "D#4",
          "ticks": 7075,
          "time": 82.26744186046511,
          "velocity": 0.5275590551181102
        },
        {
          "duration": 0.08139534883721922,
          "durationTicks": 7,
          "midi": 73,
          "name": "C#5",
          "ticks": 7075,
          "time": 82.26744186046511,
          "velocity": 0.3228346456692913
        },
        {
          "duration": 0.011627906976755753,
          "durationTicks": 1,
          "midi": 40,
          "name": "E2",
          "ticks": 7076,
          "time": 82.27906976744185,
          "velocity": 0.6220472440944882
        },
        {
          "duration": 0.011627906976755753,
          "durationTicks": 1,
          "midi": 50,
          "name": "D3",
          "ticks": 7076,
          "time": 82.27906976744185,
          "velocity": 0.5511811023622047
        },
        {
          "duration": 0.011627906976741542,
          "durationTicks": 1,
          "midi": 42,
          "name": "F#2",
          "ticks": 7077,
          "time": 82.29069767441861,
          "velocity": 0.5196850393700787
        },
        {
          "duration": 0.011627906976741542,
          "durationTicks": 1,
          "midi": 53,
          "name": "F3",
          "ticks": 7077,
          "time": 82.29069767441861,
          "velocity": 0.6062992125984252
        },
        {
          "duration": 0.011627906976741542,
          "durationTicks": 1,
          "midi": 43,
          "name": "G2",
          "ticks": 7078,
          "time": 82.30232558139535,
          "velocity": 0.5275590551181102
        },
        {
          "duration": 0.023255813953483084,
          "durationTicks": 2,
          "midi": 51,
          "name": "D#3",
          "ticks": 7078,
          "time": 82.30232558139535,
          "velocity": 0.5590551181102362
        },
        {
          "duration": 0.011627906976741542,
          "durationTicks": 1,
          "midi": 42,
          "name": "F#2",
          "ticks": 7079,
          "time": 82.31395348837209,
          "velocity": 0.6299212598425197
        },
        {
          "duration": 0.05813953488372192,
          "durationTicks": 5,
          "midi": 41,
          "name": "F2",
          "ticks": 7080,
          "time": 82.32558139534883,
          "velocity": 0.6535433070866141
        },
        {
          "duration": 0.011627906976741542,
          "durationTicks": 1,
          "midi": 52,
          "name": "E3",
          "ticks": 7080,
          "time": 82.32558139534883,
          "velocity": 0.5354330708661418
        },
        {
          "duration": 0.023255813953497295,
          "durationTicks": 2,
          "midi": 51,
          "name": "D#3",
          "ticks": 7081,
          "time": 82.33720930232558,
          "velocity": 0.41732283464566927
        },
        {
          "duration": 0.09302325581394655,
          "durationTicks": 8,
          "midi": 70,
          "name": "A#4",
          "ticks": 7093,
          "time": 82.47674418604652,
          "velocity": 0.5511811023622047
        },
        {
          "duration": 0.11627906976744384,
          "durationTicks": 10,
          "midi": 65,
          "name": "F4",
          "ticks": 7094,
          "time": 82.48837209302326,
          "velocity": 0.6141732283464567
        },
        {
          "duration": 0.023255813953483084,
          "durationTicks": 2,
          "midi": 78,
          "name": "F#5",
          "ticks": 7094,
          "time": 82.48837209302326,
          "velocity": 0.2440944881889764
        },
        {
          "duration": 0.09302325581394655,
          "durationTicks": 8,
          "midi": 80,
          "name": "G#5",
          "ticks": 7094,
          "time": 82.48837209302326,
          "velocity": 0.2677165354330709
        },
        {
          "duration": 0.09302325581394655,
          "durationTicks": 8,
          "midi": 85,
          "name": "C#6",
          "ticks": 7094,
          "time": 82.48837209302326,
          "velocity": 0.25196850393700787
        },
        {
          "duration": 0.023255813953483084,
          "durationTicks": 2,
          "midi": 48,
          "name": "C3",
          "ticks": 7095,
          "time": 82.5,
          "velocity": 0.6062992125984252
        },
        {
          "duration": 0.04651162790698038,
          "durationTicks": 4,
          "midi": 73,
          "name": "C#5",
          "ticks": 7096,
          "time": 82.51162790697674,
          "velocity": 0.09448818897637795
        },
        {
          "duration": 0.03488372093023884,
          "durationTicks": 3,
          "midi": 49,
          "name": "C#3",
          "ticks": 7097,
          "time": 82.52325581395348,
          "velocity": 0.6220472440944882
        },
        {
          "duration": 0.011627906976755753,
          "durationTicks": 1,
          "midi": 54,
          "name": "F#3",
          "ticks": 7097,
          "time": 82.52325581395348,
          "velocity": 0.5118110236220472
        },
        {
          "duration": 0.04651162790696617,
          "durationTicks": 4,
          "midi": 58,
          "name": "A#3",
          "ticks": 7098,
          "time": 82.53488372093024,
          "velocity": 0.4330708661417323
        },
        {
          "duration": 0.011627906976741542,
          "durationTicks": 1,
          "midi": 53,
          "name": "F3",
          "ticks": 7099,
          "time": 82.54651162790698,
          "velocity": 0.5275590551181102
        },
        {
          "duration": 0.023255813953483084,
          "durationTicks": 2,
          "midi": 50,
          "name": "D3",
          "ticks": 7101,
          "time": 82.56976744186046,
          "velocity": 0.5354330708661418
        },
        {
          "duration": 0.023255813953497295,
          "durationTicks": 2,
          "midi": 59,
          "name": "B3",
          "ticks": 7102,
          "time": 82.5813953488372,
          "velocity": 0.3937007874015748
        },
        {
          "duration": 0.11627906976744384,
          "durationTicks": 10,
          "midi": 70,
          "name": "A#4",
          "ticks": 7102,
          "time": 82.5813953488372,
          "velocity": 0.3858267716535433
        },
        {
          "duration": 0.023255813953497295,
          "durationTicks": 2,
          "midi": 52,
          "name": "E3",
          "ticks": 7103,
          "time": 82.59302325581395,
          "velocity": 0.41732283464566927
        },
        {
          "duration": 0.05813953488372192,
          "durationTicks": 5,
          "midi": 58,
          "name": "A#3",
          "ticks": 7104,
          "time": 82.6046511627907,
          "velocity": 0.4094488188976378
        },
        {
          "duration": 0.24418604651162923,
          "durationTicks": 21,
          "midi": 63,
          "name": "D#4",
          "ticks": 7104,
          "time": 82.6046511627907,
          "velocity": 0.5905511811023622
        },
        {
          "duration": 0.05813953488372192,
          "durationTicks": 5,
          "midi": 51,
          "name": "D#3",
          "ticks": 7105,
          "time": 82.61627906976744,
          "velocity": 0.4251968503937008
        },
        {
          "duration": 0.03488372093023884,
          "durationTicks": 3,
          "midi": 77,
          "name": "F5",
          "ticks": 7113,
          "time": 82.70930232558139,
          "velocity": 0.29133858267716534
        },
        {
          "duration": 0.1046511627907023,
          "durationTicks": 9,
          "midi": 82,
          "name": "A#5",
          "ticks": 7113,
          "time": 82.70930232558139,
          "velocity": 0.33858267716535434
        },
        {
          "duration": 0.03488372093023884,
          "durationTicks": 3,
          "midi": 86,
          "name": "D6",
          "ticks": 7113,
          "time": 82.70930232558139,
          "velocity": 0.2440944881889764
        },
        {
          "duration": 0.03488372093023884,
          "durationTicks": 3,
          "midi": 87,
          "name": "D#6",
          "ticks": 7113,
          "time": 82.70930232558139,
          "velocity": 0.25196850393700787
        },
        {
          "duration": 0.023255813953483084,
          "durationTicks": 2,
          "midi": 35,
          "name": "B1",
          "ticks": 7114,
          "time": 82.72093023255815,
          "velocity": 0.6456692913385826
        },
        {
          "duration": 0.023255813953483084,
          "durationTicks": 2,
          "midi": 50,
          "name": "D3",
          "ticks": 7114,
          "time": 82.72093023255815,
          "velocity": 0.6220472440944882
        },
        {
          "duration": 0.09302325581394655,
          "durationTicks": 8,
          "midi": 70,
          "name": "A#4",
          "ticks": 7114,
          "time": 82.72093023255815,
          "velocity": 0.5748031496062992
        },
        {
          "duration": 0.081395348837205,
          "durationTicks": 7,
          "midi": 79,
          "name": "G5",
          "ticks": 7114,
          "time": 82.72093023255815,
          "velocity": 0.29133858267716534
        },
        {
          "duration": 0.034883720930224626,
          "durationTicks": 3,
          "midi": 84,
          "name": "C6",
          "ticks": 7114,
          "time": 82.72093023255815,
          "velocity": 0.25196850393700787
        },
        {
          "duration": 0.023255813953483084,
          "durationTicks": 2,
          "midi": 88,
          "name": "E6",
          "ticks": 7114,
          "time": 82.72093023255815,
          "velocity": 0.25196850393700787
        },
        {
          "duration": 0.011627906976741542,
          "durationTicks": 1,
          "midi": 40,
          "name": "E2",
          "ticks": 7116,
          "time": 82.74418604651163,
          "velocity": 0.5590551181102362
        },
        {
          "duration": 0.06976744186046346,
          "durationTicks": 6,
          "midi": 51,
          "name": "D#3",
          "ticks": 7116,
          "time": 82.74418604651163,
          "velocity": 0.6771653543307087
        },
        {
          "duration": 0.06976744186046346,
          "durationTicks": 6,
          "midi": 73,
          "name": "C#5",
          "ticks": 7116,
          "time": 82.74418604651163,
          "velocity": 0.2047244094488189
        },
        {
          "duration": 0.011627906976741542,
          "durationTicks": 1,
          "midi": 43,
          "name": "G2",
          "ticks": 7118,
          "time": 82.76744186046511,
          "velocity": 0.5354330708661418
        },
        {
          "duration": 0.011627906976755753,
          "durationTicks": 1,
          "midi": 42,
          "name": "F#2",
          "ticks": 7119,
          "time": 82.77906976744185,
          "velocity": 0.6062992125984252
        },
        {
          "duration": 0.09302325581396076,
          "durationTicks": 8,
          "midi": 66,
          "name": "F#4",
          "ticks": 7119,
          "time": 82.77906976744185,
          "velocity": 0.31496062992125984
        },
        {
          "duration": 0.05813953488372192,
          "durationTicks": 5,
          "midi": 41,
          "name": "F2",
          "ticks": 7120,
          "time": 82.79069767441861,
          "velocity": 0.6141732283464567
        },
        {
          "duration": 0.05813953488372192,
          "durationTicks": 5,
          "midi": 54,
          "name": "F#3",
          "ticks": 7121,
          "time": 82.80232558139535,
          "velocity": 0.4566929133858268
        },
        {
          "duration": 0.03488372093023884,
          "durationTicks": 3,
          "midi": 73,
          "name": "C#5",
          "ticks": 7124,
          "time": 82.83720930232558,
          "velocity": 0.12598425196850394
        },
        {
          "duration": 0.04651162790698038,
          "durationTicks": 4,
          "midi": 55,
          "name": "G3",
          "ticks": 7126,
          "time": 82.86046511627907,
          "velocity": 0.41732283464566927
        },
        {
          "duration": 0.023255813953483084,
          "durationTicks": 2,
          "midi": 40,
          "name": "E2",
          "ticks": 7133,
          "time": 82.94186046511628,
          "velocity": 0.25196850393700787
        },
        {
          "duration": 0.24418604651162923,
          "durationTicks": 21,
          "midi": 82,
          "name": "A#5",
          "ticks": 7133,
          "time": 82.94186046511628,
          "velocity": 0.30708661417322836
        },
        {
          "duration": 0.09302325581396076,
          "durationTicks": 8,
          "midi": 63,
          "name": "D#4",
          "ticks": 7134,
          "time": 82.95348837209302,
          "velocity": 0.5669291338582677
        },
        {
          "duration": 0.1046511627907023,
          "durationTicks": 9,
          "midi": 70,
          "name": "A#4",
          "ticks": 7134,
          "time": 82.95348837209302,
          "velocity": 0.5826771653543307
        },
        {
          "duration": 0.023255813953497295,
          "durationTicks": 2,
          "midi": 78,
          "name": "F#5",
          "ticks": 7134,
          "time": 82.95348837209302,
          "velocity": 0.28346456692913385
        },
        {
          "duration": 0.023255813953497295,
          "durationTicks": 2,
          "midi": 80,
          "name": "G#5",
          "ticks": 7134,
          "time": 82.95348837209302,
          "velocity": 0.2755905511811024
        },
        {
          "duration": 0.023255813953497295,
          "durationTicks": 2,
          "midi": 87,
          "name": "D#6",
          "ticks": 7134,
          "time": 82.95348837209302,
          "velocity": 0.25196850393700787
        },
        {
          "duration": 0.17441860465116577,
          "durationTicks": 15,
          "midi": 51,
          "name": "D#3",
          "ticks": 7137,
          "time": 82.98837209302326,
          "velocity": 0.4881889763779528
        },
        {
          "duration": 0.04651162790698038,
          "durationTicks": 4,
          "midi": 70,
          "name": "A#4",
          "ticks": 7144,
          "time": 83.06976744186046,
          "velocity": 0.1968503937007874
        },
        {
          "duration": 0.034883720930224626,
          "durationTicks": 3,
          "midi": 64,
          "name": "E4",
          "ticks": 7153,
          "time": 83.17441860465117,
          "velocity": 0.6456692913385826
        },
        {
          "duration": 0.023255813953483084,
          "durationTicks": 2,
          "midi": 68,
          "name": "G#4",
          "ticks": 7153,
          "time": 83.17441860465117,
          "velocity": 0.4881889763779528
        },
        {
          "duration": 0.05813953488372192,
          "durationTicks": 5,
          "midi": 73,
          "name": "C#5",
          "ticks": 7153,
          "time": 83.17441860465117,
          "velocity": 0.30708661417322836
        },
        {
          "duration": 0.15116279069766847,
          "durationTicks": 13,
          "midi": 78,
          "name": "F#5",
          "ticks": 7153,
          "time": 83.17441860465117,
          "velocity": 0.31496062992125984
        },
        {
          "duration": 0.034883720930224626,
          "durationTicks": 3,
          "midi": 86,
          "name": "D6",
          "ticks": 7153,
          "time": 83.17441860465117,
          "velocity": 0.2283464566929134
        },
        {
          "duration": 0.034883720930224626,
          "durationTicks": 3,
          "midi": 88,
          "name": "E6",
          "ticks": 7153,
          "time": 83.17441860465117,
          "velocity": 0.25196850393700787
        },
        {
          "duration": 0.034883720930224626,
          "durationTicks": 3,
          "midi": 91,
          "name": "G6",
          "ticks": 7153,
          "time": 83.17441860465117,
          "velocity": 0.16535433070866143
        },
        {
          "duration": 0.011627906976741542,
          "durationTicks": 1,
          "midi": 35,
          "name": "B1",
          "ticks": 7154,
          "time": 83.18604651162791,
          "velocity": 0.5433070866141733
        },
        {
          "duration": 0.011627906976741542,
          "durationTicks": 1,
          "midi": 53,
          "name": "F3",
          "ticks": 7154,
          "time": 83.18604651162791,
          "velocity": 0.5590551181102362
        },
        {
          "duration": 0.011627906976741542,
          "durationTicks": 1,
          "midi": 58,
          "name": "A#3",
          "ticks": 7154,
          "time": 83.18604651162791,
          "velocity": 0.5118110236220472
        },
        {
          "duration": 0.1046511627907023,
          "durationTicks": 9,
          "midi": 83,
          "name": "B5",
          "ticks": 7154,
          "time": 83.18604651162791,
          "velocity": 0.30708661417322836
        },
        {
          "duration": 0.011627906976741542,
          "durationTicks": 1,
          "midi": 39,
          "name": "D#2",
          "ticks": 7155,
          "time": 83.19767441860465,
          "velocity": 0.5826771653543307
        },
        {
          "duration": 0.05813953488372192,
          "durationTicks": 5,
          "midi": 52,
          "name": "E3",
          "ticks": 7155,
          "time": 83.19767441860465,
          "velocity": 0.6377952755905512
        },
        {
          "duration": 0.04651162790698038,
          "durationTicks": 4,
          "midi": 67,
          "name": "G4",
          "ticks": 7155,
          "time": 83.19767441860465,
          "velocity": 0.5275590551181102
        },
        {
          "duration": 0.15116279069768268,
          "durationTicks": 13,
          "midi": 71,
          "name": "B4",
          "ticks": 7155,
          "time": 83.19767441860465,
          "velocity": 0.48031496062992124
        },
        {
          "duration": 0.011627906976755753,
          "durationTicks": 1,
          "midi": 41,
          "name": "F2",
          "ticks": 7156,
          "time": 83.20930232558139,
          "velocity": 0.5196850393700787
        },
        {
          "duration": 0.04651162790698038,
          "durationTicks": 4,
          "midi": 63,
          "name": "D#4",
          "ticks": 7156,
          "time": 83.20930232558139,
          "velocity": 0.5669291338582677
        },
        {
          "duration": 0.09302325581394655,
          "durationTicks": 8,
          "midi": 76,
          "name": "E5",
          "ticks": 7157,
          "time": 83.22093023255815,
          "velocity": 0.1889763779527559
        },
        {
          "duration": 0.011627906976741542,
          "durationTicks": 1,
          "midi": 29,
          "name": "F1",
          "ticks": 7158,
          "time": 83.23255813953489,
          "velocity": 0.5511811023622047
        },
        {
          "duration": 0.04651162790698038,
          "durationTicks": 4,
          "midi": 41,
          "name": "F2",
          "ticks": 7159,
          "time": 83.24418604651163,
          "velocity": 0.6535433070866141
        },
        {
          "duration": 0.06976744186046346,
          "durationTicks": 6,
          "midi": 59,
          "name": "B3",
          "ticks": 7160,
          "time": 83.25581395348837,
          "velocity": 0.5433070866141733
        },
        {
          "duration": 0.023255813953497295,
          "durationTicks": 2,
          "midi": 55,
          "name": "G3",
          "ticks": 7161,
          "time": 83.26744186046511,
          "velocity": 0.4881889763779528
        },
        {
          "duration": 0.023255813953497295,
          "durationTicks": 2,
          "midi": 66,
          "name": "F#4",
          "ticks": 7162,
          "time": 83.27906976744185,
          "velocity": 0.3464566929133858
        },
        {
          "duration": 0.15116279069768268,
          "durationTicks": 13,
          "midi": 73,
          "name": "C#5",
          "ticks": 7162,
          "time": 83.27906976744185,
          "velocity": 0.31496062992125984
        },
        {
          "duration": 0.034883720930224626,
          "durationTicks": 3,
          "midi": 54,
          "name": "F#3",
          "ticks": 7163,
          "time": 83.29069767441861,
          "velocity": 0.47244094488188976
        },
        {
          "duration": 0.15116279069766847,
          "durationTicks": 13,
          "midi": 80,
          "name": "G#5",
          "ticks": 7163,
          "time": 83.29069767441861,
          "velocity": 0.41732283464566927
        },
        {
          "duration": 0.023255813953483084,
          "durationTicks": 2,
          "midi": 48,
          "name": "C3",
          "ticks": 7164,
          "time": 83.30232558139535,
          "velocity": 0.5196850393700787
        },
        {
          "duration": 0.04651162790698038,
          "durationTicks": 4,
          "midi": 77,
          "name": "F5",
          "ticks": 7165,
          "time": 83.31395348837209,
          "velocity": 0.29133858267716534
        },
        {
          "duration": 0.09302325581396076,
          "durationTicks": 8,
          "midi": 49,
          "name": "C#3",
          "ticks": 7166,
          "time": 83.32558139534883,
          "velocity": 0.5039370078740157
        },
        {
          "duration": 0.03488372093023884,
          "durationTicks": 3,
          "midi": 65,
          "name": "F4",
          "ticks": 7167,
          "time": 83.33720930232558,
          "velocity": 0.14173228346456693
        },
        {
          "duration": 0.08139534883721922,
          "durationTicks": 7,
          "midi": 68,
          "name": "G#4",
          "ticks": 7167,
          "time": 83.33720930232558,
          "velocity": 0.36220472440944884
        },
        {
          "duration": 0.023255813953497295,
          "durationTicks": 2,
          "midi": 40,
          "name": "E2",
          "ticks": 7172,
          "time": 83.3953488372093,
          "velocity": 0.33858267716535434
        },
        {
          "duration": 0.03488372093023884,
          "durationTicks": 3,
          "midi": 61,
          "name": "C#4",
          "ticks": 7172,
          "time": 83.3953488372093,
          "velocity": 0.5039370078740157
        },
        {
          "duration": 0.10465116279068809,
          "durationTicks": 9,
          "midi": 67,
          "name": "G4",
          "ticks": 7173,
          "time": 83.40697674418605,
          "velocity": 0.6220472440944882
        },
        {
          "duration": 0.034883720930224626,
          "durationTicks": 3,
          "midi": 88,
          "name": "E6",
          "ticks": 7173,
          "time": 83.40697674418605,
          "velocity": 0.1889763779527559
        },
        {
          "duration": 0.11627906976744384,
          "durationTicks": 10,
          "midi": 78,
          "name": "F#5",
          "ticks": 7174,
          "time": 83.4186046511628,
          "velocity": 0.4015748031496063
        },
        {
          "duration": 0.15116279069766847,
          "durationTicks": 13,
          "midi": 81,
          "name": "A5",
          "ticks": 7174,
          "time": 83.4186046511628,
          "velocity": 0.1968503937007874
        },
        {
          "duration": 0.1046511627907023,
          "durationTicks": 9,
          "midi": 47,
          "name": "B2",
          "ticks": 7175,
          "time": 83.43023255813954,
          "velocity": 0.4645669291338583
        },
        {
          "duration": 0.081395348837205,
          "durationTicks": 7,
          "midi": 59,
          "name": "B3",
          "ticks": 7175,
          "time": 83.43023255813954,
          "velocity": 0.5433070866141733
        },
        {
          "duration": 0.1046511627907023,
          "durationTicks": 9,
          "midi": 74,
          "name": "D5",
          "ticks": 7175,
          "time": 83.43023255813954,
          "velocity": 0.2677165354330709
        },
        {
          "duration": 0.023255813953483084,
          "durationTicks": 2,
          "midi": 62,
          "name": "D4",
          "ticks": 7181,
          "time": 83.5,
          "velocity": 0.36220472440944884
        },
        {
          "duration": 0.03488372093023884,
          "durationTicks": 3,
          "midi": 84,
          "name": "C6",
          "ticks": 7183,
          "time": 83.52325581395348,
          "velocity": 0.09448818897637795
        },
        {
          "duration": 0.06976744186046346,
          "durationTicks": 6,
          "midi": 56,
          "name": "G#3",
          "ticks": 7184,
          "time": 83.53488372093024,
          "velocity": 0.5511811023622047
        },
        {
          "duration": 0.011627906976741542,
          "durationTicks": 1,
          "midi": 64,
          "name": "E4",
          "ticks": 7184,
          "time": 83.53488372093024,
          "velocity": 0.5511811023622047
        },
        {
          "duration": 0.15116279069766847,
          "durationTicks": 13,
          "midi": 75,
          "name": "D#5",
          "ticks": 7184,
          "time": 83.53488372093024,
          "velocity": 0.3779527559055118
        },
        {
          "duration": 0.25581395348837077,
          "durationTicks": 22,
          "midi": 85,
          "name": "C#6",
          "ticks": 7184,
          "time": 83.53488372093024,
          "velocity": 0.25984251968503935
        },
        {
          "duration": 0.09302325581394655,
          "durationTicks": 8,
          "midi": 44,
          "name": "G#2",
          "ticks": 7185,
          "time": 83.54651162790698,
          "velocity": 0.49606299212598426
        },
        {
          "duration": 0.09302325581394655,
          "durationTicks": 8,
          "midi": 63,
          "name": "D#4",
          "ticks": 7185,
          "time": 83.54651162790698,
          "velocity": 0.5826771653543307
        },
        {
          "duration": 0.09302325581394655,
          "durationTicks": 8,
          "midi": 78,
          "name": "F#5",
          "ticks": 7185,
          "time": 83.54651162790698,
          "velocity": 0.3543307086614173
        },
        {
          "duration": 0.09302325581394655,
          "durationTicks": 8,
          "midi": 94,
          "name": "A#6",
          "ticks": 7185,
          "time": 83.54651162790698,
          "velocity": 0.13385826771653545
        },
        {
          "duration": 0.1046511627907023,
          "durationTicks": 9,
          "midi": 73,
          "name": "C#5",
          "ticks": 7186,
          "time": 83.55813953488372,
          "velocity": 0.31496062992125984
        },
        {
          "duration": 0.11627906976744384,
          "durationTicks": 10,
          "midi": 82,
          "name": "A#5",
          "ticks": 7186,
          "time": 83.55813953488372,
          "velocity": 0.2677165354330709
        },
        {
          "duration": 0.04651162790698038,
          "durationTicks": 4,
          "midi": 66,
          "name": "F#4",
          "ticks": 7187,
          "time": 83.56976744186046,
          "velocity": 0.3464566929133858
        },
        {
          "duration": 0.023255813953483084,
          "durationTicks": 2,
          "midi": 55,
          "name": "G3",
          "ticks": 7190,
          "time": 83.6046511627907,
          "velocity": 0.5354330708661418
        },
        {
          "duration": 0.023255813953483084,
          "durationTicks": 2,
          "midi": 66,
          "name": "F#4",
          "ticks": 7192,
          "time": 83.62790697674419,
          "velocity": 0.41732283464566927
        },
        {
          "duration": 0.023255813953497295,
          "durationTicks": 2,
          "midi": 68,
          "name": "G#4",
          "ticks": 7193,
          "time": 83.63953488372093,
          "velocity": 0.5511811023622047
        },
        {
          "duration": 0.023255813953497295,
          "durationTicks": 2,
          "midi": 70,
          "name": "A#4",
          "ticks": 7193,
          "time": 83.63953488372093,
          "velocity": 0.41732283464566927
        },
        {
          "duration": 0.03488372093023884,
          "durationTicks": 3,
          "midi": 86,
          "name": "D6",
          "ticks": 7193,
          "time": 83.63953488372093,
          "velocity": 0.2440944881889764
        },
        {
          "duration": 0.03488372093023884,
          "durationTicks": 3,
          "midi": 90,
          "name": "F#6",
          "ticks": 7193,
          "time": 83.63953488372093,
          "velocity": 0.15748031496062992
        },
        {
          "duration": 0.011627906976755753,
          "durationTicks": 1,
          "midi": 36,
          "name": "C2",
          "ticks": 7194,
          "time": 83.65116279069767,
          "velocity": 0.5826771653543307
        },
        {
          "duration": 0.023255813953497295,
          "durationTicks": 2,
          "midi": 51,
          "name": "D#3",
          "ticks": 7194,
          "time": 83.65116279069767,
          "velocity": 0.5039370078740157
        },
        {
          "duration": 0.011627906976755753,
          "durationTicks": 1,
          "midi": 62,
          "name": "D4",
          "ticks": 7194,
          "time": 83.65116279069767,
          "velocity": 0.5275590551181102
        },
        {
          "duration": 0.13953488372094114,
          "durationTicks": 12,
          "midi": 78,
          "name": "F#5",
          "ticks": 7194,
          "time": 83.65116279069767,
          "velocity": 0.31496062992125984
        },
        {
          "duration": 0.023255813953497295,
          "durationTicks": 2,
          "midi": 88,
          "name": "E6",
          "ticks": 7194,
          "time": 83.65116279069767,
          "velocity": 0.23622047244094488
        },
        {
          "duration": 0.011627906976741542,
          "durationTicks": 1,
          "midi": 40,
          "name": "E2",
          "ticks": 7195,
          "time": 83.66279069767442,
          "velocity": 0.5984251968503937
        },
        {
          "duration": 0.023255813953483084,
          "durationTicks": 2,
          "midi": 58,
          "name": "A#3",
          "ticks": 7195,
          "time": 83.66279069767442,
          "velocity": 0.3779527559055118
        },
        {
          "duration": 0.11627906976742963,
          "durationTicks": 10,
          "midi": 63,
          "name": "D#4",
          "ticks": 7195,
          "time": 83.66279069767442,
          "velocity": 0.5511811023622047
        },
        {
          "duration": 0.05813953488372192,
          "durationTicks": 5,
          "midi": 67,
          "name": "G4",
          "ticks": 7195,
          "time": 83.66279069767442,
          "velocity": 0.5748031496062992
        },
        {
          "duration": 0.081395348837205,
          "durationTicks": 7,
          "midi": 71,
          "name": "B4",
          "ticks": 7195,
          "time": 83.66279069767442,
          "velocity": 0.33858267716535434
        },
        {
          "duration": 0.011627906976741542,
          "durationTicks": 1,
          "midi": 52,
          "name": "E3",
          "ticks": 7196,
          "time": 83.67441860465117,
          "velocity": 0.5748031496062992
        },
        {
          "duration": 0.06976744186046346,
          "durationTicks": 6,
          "midi": 41,
          "name": "F2",
          "ticks": 7197,
          "time": 83.68604651162791,
          "velocity": 0.6771653543307087
        },
        {
          "duration": 0.023255813953497295,
          "durationTicks": 2,
          "midi": 52,
          "name": "E3",
          "ticks": 7198,
          "time": 83.69767441860465,
          "velocity": 0.5196850393700787
        },
        {
          "duration": 0.09302325581394655,
          "durationTicks": 8,
          "midi": 66,
          "name": "F#4",
          "ticks": 7200,
          "time": 83.72093023255815,
          "velocity": 0.3464566929133858
        },
        {
          "duration": 0.034883720930224626,
          "durationTicks": 3,
          "midi": 55,
          "name": "G3",
          "ticks": 7201,
          "time": 83.73255813953489,
          "velocity": 0.30708661417322836
        },
        {
          "duration": 0.023255813953483084,
          "durationTicks": 2,
          "midi": 39,
          "name": "D#2",
          "ticks": 7203,
          "time": 83.75581395348837,
          "velocity": 0.3858267716535433
        },
        {
          "duration": 0.04651162790698038,
          "durationTicks": 4,
          "midi": 55,
          "name": "G3",
          "ticks": 7205,
          "time": 83.77906976744185,
          "velocity": 0.10236220472440945
        },
        {
          "duration": 0.05813953488372192,
          "durationTicks": 5,
          "midi": 40,
          "name": "E2",
          "ticks": 7207,
          "time": 83.80232558139535,
          "velocity": 0.25196850393700787
        },
        {
          "duration": 0.023255813953483084,
          "durationTicks": 2,
          "midi": 39,
          "name": "D#2",
          "ticks": 7212,
          "time": 83.86046511627907,
          "velocity": 0.41732283464566927
        },
        {
          "duration": 0.11627906976744384,
          "durationTicks": 10,
          "midi": 63,
          "name": "D#4",
          "ticks": 7213,
          "time": 83.87209302325581,
          "velocity": 0.6141732283464567
        },
        {
          "duration": 0.023255813953483084,
          "durationTicks": 2,
          "midi": 68,
          "name": "G#4",
          "ticks": 7213,
          "time": 83.87209302325581,
          "velocity": 0.5433070866141733
        },
        {
          "duration": 0.05813953488372192,
          "durationTicks": 5,
          "midi": 84,
          "name": "C6",
          "ticks": 7213,
          "time": 83.87209302325581,
          "velocity": 0.30708661417322836
        },
        {
          "duration": 0.03488372093023884,
          "durationTicks": 3,
          "midi": 87,
          "name": "D#6",
          "ticks": 7213,
          "time": 83.87209302325581,
          "velocity": 0.2677165354330709
        },
        {
          "duration": 0.023255813953497295,
          "durationTicks": 2,
          "midi": 48,
          "name": "C3",
          "ticks": 7214,
          "time": 83.88372093023256,
          "velocity": 0.5748031496062992
        },
        {
          "duration": 0.023255813953497295,
          "durationTicks": 2,
          "midi": 77,
          "name": "F5",
          "ticks": 7214,
          "time": 83.88372093023256,
          "velocity": 0.2677165354330709
        },
        {
          "duration": 0.03488372093023884,
          "durationTicks": 3,
          "midi": 83,
          "name": "B5",
          "ticks": 7214,
          "time": 83.88372093023256,
          "velocity": 0.2440944881889764
        },
        {
          "duration": 0.023255813953497295,
          "durationTicks": 2,
          "midi": 86,
          "name": "D6",
          "ticks": 7214,
          "time": 83.88372093023256,
          "velocity": 0.25984251968503935
        },
        {
          "duration": 0.04651162790698038,
          "durationTicks": 4,
          "midi": 67,
          "name": "G4",
          "ticks": 7215,
          "time": 83.8953488372093,
          "velocity": 0.5748031496062992
        },
        {
          "duration": 0.13953488372094114,
          "durationTicks": 12,
          "midi": 78,
          "name": "F#5",
          "ticks": 7215,
          "time": 83.8953488372093,
          "velocity": 0.3464566929133858
        },
        {
          "duration": 0.011627906976741542,
          "durationTicks": 1,
          "midi": 50,
          "name": "D3",
          "ticks": 7216,
          "time": 83.90697674418605,
          "velocity": 0.6141732283464567
        },
        {
          "duration": 0.011627906976741542,
          "durationTicks": 1,
          "midi": 49,
          "name": "C#3",
          "ticks": 7217,
          "time": 83.9186046511628,
          "velocity": 0.5826771653543307
        },
        {
          "duration": 0.13953488372092693,
          "durationTicks": 12,
          "midi": 73,
          "name": "C#5",
          "ticks": 7217,
          "time": 83.9186046511628,
          "velocity": 0.29133858267716534
        },
        {
          "duration": 0.011627906976741542,
          "durationTicks": 1,
          "midi": 48,
          "name": "C3",
          "ticks": 7218,
          "time": 83.93023255813954,
          "velocity": 0.5905511811023622
        },
        {
          "duration": 0.081395348837205,
          "durationTicks": 7,
          "midi": 71,
          "name": "B4",
          "ticks": 7218,
          "time": 83.93023255813954,
          "velocity": 0.31496062992125984
        },
        {
          "duration": 0.011627906976741542,
          "durationTicks": 1,
          "midi": 50,
          "name": "D3",
          "ticks": 7219,
          "time": 83.94186046511628,
          "velocity": 0.5669291338582677
        },
        {
          "duration": 0.023255813953483084,
          "durationTicks": 2,
          "midi": 66,
          "name": "F#4",
          "ticks": 7219,
          "time": 83.94186046511628,
          "velocity": 0.4566929133858268
        },
        {
          "duration": 0.06976744186046346,
          "durationTicks": 6,
          "midi": 54,
          "name": "F#3",
          "ticks": 7220,
          "time": 83.95348837209302,
          "velocity": 0.4566929133858268
        },
        {
          "duration": 0.023255813953497295,
          "durationTicks": 2,
          "midi": 60,
          "name": "C4",
          "ticks": 7220,
          "time": 83.95348837209302,
          "velocity": 0.3779527559055118
        },
        {
          "duration": 0.04651162790696617,
          "durationTicks": 4,
          "midi": 59,
          "name": "B3",
          "ticks": 7222,
          "time": 83.97674418604652,
          "velocity": 0.3937007874015748
        },
        {
          "duration": 0.04651162790698038,
          "durationTicks": 4,
          "midi": 70,
          "name": "A#4",
          "ticks": 7225,
          "time": 84.01162790697674,
          "velocity": 0.2677165354330709
        },
        {
          "duration": 0.05813953488372192,
          "durationTicks": 5,
          "midi": 65,
          "name": "F4",
          "ticks": 7226,
          "time": 84.02325581395348,
          "velocity": 0.2125984251968504
        },
        {
          "duration": 0.023255813953483084,
          "durationTicks": 2,
          "midi": 55,
          "name": "G3",
          "ticks": 7227,
          "time": 84.03488372093024,
          "velocity": 0.25196850393700787
        },
        {
          "duration": 0.03488372093023884,
          "durationTicks": 3,
          "midi": 55,
          "name": "G3",
          "ticks": 7230,
          "time": 84.06976744186046,
          "velocity": 0.09448818897637795
        },
        {
          "duration": 0.023255813953497295,
          "durationTicks": 2,
          "midi": 68,
          "name": "G#4",
          "ticks": 7232,
          "time": 84.09302325581395,
          "velocity": 0.4881889763779528
        },
        {
          "duration": 0.034883720930224626,
          "durationTicks": 3,
          "midi": 56,
          "name": "G#3",
          "ticks": 7233,
          "time": 84.1046511627907,
          "velocity": 0.48031496062992124
        },
        {
          "duration": 0.023255813953483084,
          "durationTicks": 2,
          "midi": 73,
          "name": "C#5",
          "ticks": 7233,
          "time": 84.1046511627907,
          "velocity": 0.30708661417322836
        },
        {
          "duration": 0.023255813953483084,
          "durationTicks": 2,
          "midi": 76,
          "name": "E5",
          "ticks": 7233,
          "time": 84.1046511627907,
          "velocity": 0.25984251968503935
        },
        {
          "duration": 0.023255813953483084,
          "durationTicks": 2,
          "midi": 82,
          "name": "A#5",
          "ticks": 7233,
          "time": 84.1046511627907,
          "velocity": 0.2440944881889764
        },
        {
          "duration": 0.023255813953483084,
          "durationTicks": 2,
          "midi": 86,
          "name": "D6",
          "ticks": 7233,
          "time": 84.1046511627907,
          "velocity": 0.25984251968503935
        },
        {
          "duration": 0.011627906976741542,
          "durationTicks": 1,
          "midi": 36,
          "name": "C2",
          "ticks": 7234,
          "time": 84.11627906976744,
          "velocity": 0.5905511811023622
        },
        {
          "duration": 0.13953488372092693,
          "durationTicks": 12,
          "midi": 63,
          "name": "D#4",
          "ticks": 7234,
          "time": 84.11627906976744,
          "velocity": 0.5748031496062992
        },
        {
          "duration": 0.12790697674418539,
          "durationTicks": 11,
          "midi": 67,
          "name": "G4",
          "ticks": 7234,
          "time": 84.11627906976744,
          "velocity": 0.5748031496062992
        },
        {
          "duration": 0.011627906976741542,
          "durationTicks": 1,
          "midi": 41,
          "name": "F2",
          "ticks": 7235,
          "time": 84.12790697674419,
          "velocity": 0.6062992125984252
        },
        {
          "duration": 0.06976744186046346,
          "durationTicks": 6,
          "midi": 71,
          "name": "B4",
          "ticks": 7235,
          "time": 84.12790697674419,
          "velocity": 0.1889763779527559
        },
        {
          "duration": 0.05813953488372192,
          "durationTicks": 5,
          "midi": 74,
          "name": "D5",
          "ticks": 7235,
          "time": 84.12790697674419,
          "velocity": 0.14173228346456693
        },
        {
          "duration": 0.011627906976741542,
          "durationTicks": 1,
          "midi": 52,
          "name": "E3",
          "ticks": 7236,
          "time": 84.13953488372093,
          "velocity": 0.5748031496062992
        },
        {
          "duration": 0.04651162790696617,
          "durationTicks": 4,
          "midi": 41,
          "name": "F2",
          "ticks": 7238,
          "time": 84.16279069767442,
          "velocity": 0.6692913385826772
        },
        {
          "duration": 0.06976744186046346,
          "durationTicks": 6,
          "midi": 55,
          "name": "G3",
          "ticks": 7242,
          "time": 84.20930232558139,
          "velocity": 0.28346456692913385
        },
        {
          "duration": 0.023255813953483084,
          "durationTicks": 2,
          "midi": 39,
          "name": "D#2",
          "ticks": 7243,
          "time": 84.22093023255815,
          "velocity": 0.36220472440944884
        },
        {
          "duration": 0.05813953488372192,
          "durationTicks": 5,
          "midi": 40,
          "name": "E2",
          "ticks": 7247,
          "time": 84.26744186046511,
          "velocity": 0.23622047244094488
        },
        {
          "duration": 0.023255813953497295,
          "durationTicks": 2,
          "midi": 78,
          "name": "F#5",
          "ticks": 7253,
          "time": 84.33720930232558,
          "velocity": 0.2440944881889764
        },
        {
          "duration": 0.023255813953497295,
          "durationTicks": 2,
          "midi": 85,
          "name": "C#6",
          "ticks": 7253,
          "time": 84.33720930232558,
          "velocity": 0.2677165354330709
        },
        {
          "duration": 0.023255813953497295,
          "durationTicks": 2,
          "midi": 87,
          "name": "D#6",
          "ticks": 7253,
          "time": 84.33720930232558,
          "velocity": 0.2755905511811024
        },
        {
          "duration": 0.034883720930224626,
          "durationTicks": 3,
          "midi": 48,
          "name": "C3",
          "ticks": 7254,
          "time": 84.34883720930233,
          "velocity": 0.5905511811023622
        },
        {
          "duration": 0.023255813953483084,
          "durationTicks": 2,
          "midi": 58,
          "name": "A#3",
          "ticks": 7254,
          "time": 84.34883720930233,
          "velocity": 0.25984251968503935
        },
        {
          "duration": 0.023255813953483084,
          "durationTicks": 2,
          "midi": 62,
          "name": "D4",
          "ticks": 7254,
          "time": 84.34883720930233,
          "velocity": 0.41732283464566927
        },
        {
          "duration": 0.04651162790696617,
          "durationTicks": 4,
          "midi": 65,
          "name": "F4",
          "ticks": 7254,
          "time": 84.34883720930233,
          "velocity": 0.6141732283464567
        },
        {
          "duration": 0.011627906976741542,
          "durationTicks": 1,
          "midi": 68,
          "name": "G#4",
          "ticks": 7254,
          "time": 84.34883720930233,
          "velocity": 0.5590551181102362
        },
        {
          "duration": 0.17441860465115155,
          "durationTicks": 15,
          "midi": 73,
          "name": "C#5",
          "ticks": 7254,
          "time": 84.34883720930233,
          "velocity": 0.3779527559055118
        },
        {
          "duration": 0.04651162790696617,
          "durationTicks": 4,
          "midi": 79,
          "name": "G5",
          "ticks": 7254,
          "time": 84.34883720930233,
          "velocity": 0.2283464566929134
        },
        {
          "duration": 0.034883720930224626,
          "durationTicks": 3,
          "midi": 81,
          "name": "A5",
          "ticks": 7254,
          "time": 84.34883720930233,
          "velocity": 0.1968503937007874
        },
        {
          "duration": 0.034883720930224626,
          "durationTicks": 3,
          "midi": 84,
          "name": "C6",
          "ticks": 7254,
          "time": 84.34883720930233,
          "velocity": 0.2283464566929134
        },
        {
          "duration": 0.011627906976741542,
          "durationTicks": 1,
          "midi": 67,
          "name": "G4",
          "ticks": 7255,
          "time": 84.36046511627907,
          "velocity": 0.5669291338582677
        },
        {
          "duration": 0.034883720930224626,
          "durationTicks": 3,
          "midi": 70,
          "name": "A#4",
          "ticks": 7255,
          "time": 84.36046511627907,
          "velocity": 0.28346456692913385
        },
        {
          "duration": 0.13953488372092693,
          "durationTicks": 12,
          "midi": 78,
          "name": "F#5",
          "ticks": 7256,
          "time": 84.37209302325581,
          "velocity": 0.33858267716535434
        },
        {
          "duration": 0.011627906976741542,
          "durationTicks": 1,
          "midi": 50,
          "name": "D3",
          "ticks": 7257,
          "time": 84.38372093023256,
          "velocity": 0.6299212598425197
        },
        {
          "duration": 0.04651162790698038,
          "durationTicks": 4,
          "midi": 67,
          "name": "G4",
          "ticks": 7257,
          "time": 84.38372093023256,
          "velocity": 0.4566929133858268
        },
        {
          "duration": 0.023255813953497295,
          "durationTicks": 2,
          "midi": 49,
          "name": "C#3",
          "ticks": 7258,
          "time": 84.3953488372093,
          "velocity": 0.5511811023622047
        },
        {
          "duration": 0.011627906976755753,
          "durationTicks": 1,
          "midi": 53,
          "name": "F3",
          "ticks": 7258,
          "time": 84.3953488372093,
          "velocity": 0.5354330708661418
        },
        {
          "duration": 0.05813953488372192,
          "durationTicks": 5,
          "midi": 71,
          "name": "B4",
          "ticks": 7258,
          "time": 84.3953488372093,
          "velocity": 0.29133858267716534
        },
        {
          "duration": 0.034883720930224626,
          "durationTicks": 3,
          "midi": 65,
          "name": "F4",
          "ticks": 7259,
          "time": 84.40697674418605,
          "velocity": 0.4015748031496063
        },
        {
          "duration": 0.023255813953483084,
          "durationTicks": 2,
          "midi": 60,
          "name": "C4",
          "ticks": 7260,
          "time": 84.4186046511628,
          "velocity": 0.3779527559055118
        },
        {
          "duration": 0.023255813953483084,
          "durationTicks": 2,
          "midi": 54,
          "name": "F#3",
          "ticks": 7262,
          "time": 84.44186046511628,
          "velocity": 0.4330708661417323
        },
        {
          "duration": 0.023255813953483084,
          "durationTicks": 2,
          "midi": 68,
          "name": "G#4",
          "ticks": 7262,
          "time": 84.44186046511628,
          "velocity": 0.2440944881889764
        },
        {
          "duration": 0.011627906976741542,
          "durationTicks": 1,
          "midi": 62,
          "name": "D4",
          "ticks": 7263,
          "time": 84.45348837209302,
          "velocity": 0.5118110236220472
        },
        {
          "duration": 0.09302325581396076,
          "durationTicks": 8,
          "midi": 55,
          "name": "G3",
          "ticks": 7264,
          "time": 84.46511627906976,
          "velocity": 0.4330708661417323
        },
        {
          "duration": 0.023255813953497295,
          "durationTicks": 2,
          "midi": 59,
          "name": "B3",
          "ticks": 7264,
          "time": 84.46511627906976,
          "velocity": 0.3858267716535433
        },
        {
          "duration": 0.2325581395348877,
          "durationTicks": 20,
          "midi": 63,
          "name": "D#4",
          "ticks": 7264,
          "time": 84.46511627906976,
          "velocity": 0.5905511811023622
        },
        {
          "duration": 0.04651162790698038,
          "durationTicks": 4,
          "midi": 70,
          "name": "A#4",
          "ticks": 7264,
          "time": 84.46511627906976,
          "velocity": 0.29133858267716534
        },
        {
          "duration": 0.023255813953483084,
          "durationTicks": 2,
          "midi": 35,
          "name": "B1",
          "ticks": 7272,
          "time": 84.55813953488372,
          "velocity": 0.5433070866141733
        },
        {
          "duration": 0.04651162790698038,
          "durationTicks": 4,
          "midi": 73,
          "name": "C#5",
          "ticks": 7272,
          "time": 84.55813953488372,
          "velocity": 0.31496062992125984
        },
        {
          "duration": 0.034883720930224626,
          "durationTicks": 3,
          "midi": 78,
          "name": "F#5",
          "ticks": 7272,
          "time": 84.55813953488372,
          "velocity": 0.23622047244094488
        },
        {
          "duration": 0.034883720930224626,
          "durationTicks": 3,
          "midi": 80,
          "name": "G#5",
          "ticks": 7272,
          "time": 84.55813953488372,
          "velocity": 0.2125984251968504
        },
        {
          "duration": 0.09302325581394655,
          "durationTicks": 8,
          "midi": 82,
          "name": "A#5",
          "ticks": 7272,
          "time": 84.55813953488372,
          "velocity": 0.25196850393700787
        },
        {
          "duration": 0.04651162790698038,
          "durationTicks": 4,
          "midi": 86,
          "name": "D6",
          "ticks": 7272,
          "time": 84.55813953488372,
          "velocity": 0.2440944881889764
        },
        {
          "duration": 0.034883720930224626,
          "durationTicks": 3,
          "midi": 87,
          "name": "D#6",
          "ticks": 7272,
          "time": 84.55813953488372,
          "velocity": 0.2440944881889764
        },
        {
          "duration": 0.011627906976741542,
          "durationTicks": 1,
          "midi": 68,
          "name": "G#4",
          "ticks": 7273,
          "time": 84.56976744186046,
          "velocity": 0.5196850393700787
        },
        {
          "duration": 0.023255813953483084,
          "durationTicks": 2,
          "midi": 84,
          "name": "C6",
          "ticks": 7273,
          "time": 84.56976744186046,
          "velocity": 0.2283464566929134
        },
        {
          "duration": 0.011627906976741542,
          "durationTicks": 1,
          "midi": 36,
          "name": "C2",
          "ticks": 7274,
          "time": 84.5813953488372,
          "velocity": 0.6220472440944882
        },
        {
          "duration": 0.023255813953497295,
          "durationTicks": 2,
          "midi": 56,
          "name": "G#3",
          "ticks": 7274,
          "time": 84.5813953488372,
          "velocity": 0.49606299212598426
        },
        {
          "duration": 0.1046511627907023,
          "durationTicks": 9,
          "midi": 67,
          "name": "G4",
          "ticks": 7274,
          "time": 84.5813953488372,
          "velocity": 0.5826771653543307
        },
        {
          "duration": 0.011627906976755753,
          "durationTicks": 1,
          "midi": 41,
          "name": "F2",
          "ticks": 7275,
          "time": 84.59302325581395,
          "velocity": 0.5905511811023622
        },
        {
          "duration": 0.06976744186047767,
          "durationTicks": 6,
          "midi": 71,
          "name": "B4",
          "ticks": 7275,
          "time": 84.59302325581395,
          "velocity": 0.2283464566929134
        },
        {
          "duration": 0.023255813953483084,
          "durationTicks": 2,
          "midi": 44,
          "name": "G#2",
          "ticks": 7276,
          "time": 84.6046511627907,
          "velocity": 0.5511811023622047
        },
        {
          "duration": 0.023255813953483084,
          "durationTicks": 2,
          "midi": 51,
          "name": "D#3",
          "ticks": 7277,
          "time": 84.61627906976744,
          "velocity": 0.5669291338582677
        },
        {
          "duration": 0.04651162790698038,
          "durationTicks": 4,
          "midi": 41,
          "name": "F2",
          "ticks": 7278,
          "time": 84.62790697674419,
          "velocity": 0.6850393700787402
        },
        {
          "duration": 0.023255813953497295,
          "durationTicks": 2,
          "midi": 52,
          "name": "E3",
          "ticks": 7279,
          "time": 84.63953488372093,
          "velocity": 0.5669291338582677
        },
        {
          "duration": 0.023255813953497295,
          "durationTicks": 2,
          "midi": 56,
          "name": "G#3",
          "ticks": 7280,
          "time": 84.65116279069767,
          "velocity": 0.44881889763779526
        },
        {
          "duration": 0.034883720930224626,
          "durationTicks": 3,
          "midi": 51,
          "name": "D#3",
          "ticks": 7281,
          "time": 84.66279069767442,
          "velocity": 0.3779527559055118
        },
        {
          "duration": 0.023255813953483084,
          "durationTicks": 2,
          "midi": 57,
          "name": "A3",
          "ticks": 7282,
          "time": 84.67441860465117,
          "velocity": 0.33070866141732286
        },
        {
          "duration": 0.04651162790698038,
          "durationTicks": 4,
          "midi": 68,
          "name": "G#4",
          "ticks": 7283,
          "time": 84.68604651162791,
          "velocity": 0.2204724409448819
        },
        {
          "duration": 0.023255813953497295,
          "durationTicks": 2,
          "midi": 40,
          "name": "E2",
          "ticks": 7284,
          "time": 84.69767441860465,
          "velocity": 0.36220472440944884
        },
        {
          "duration": 0.023255813953497295,
          "durationTicks": 2,
          "midi": 55,
          "name": "G3",
          "ticks": 7285,
          "time": 84.70930232558139,
          "velocity": 0.33858267716535434
        },
        {
          "duration": 0.05813953488372192,
          "durationTicks": 5,
          "midi": 40,
          "name": "E2",
          "ticks": 7287,
          "time": 84.73255813953489,
          "velocity": 0.25196850393700787
        },
        {
          "duration": 0.034883720930224626,
          "durationTicks": 3,
          "midi": 75,
          "name": "D#5",
          "ticks": 7292,
          "time": 84.79069767441861,
          "velocity": 0.2755905511811024
        },
        {
          "duration": 0.09302325581394655,
          "durationTicks": 8,
          "midi": 63,
          "name": "D#4",
          "ticks": 7293,
          "time": 84.80232558139535,
          "velocity": 0.5905511811023622
        },
        {
          "duration": 0.011627906976741542,
          "durationTicks": 1,
          "midi": 68,
          "name": "G#4",
          "ticks": 7293,
          "time": 84.80232558139535,
          "velocity": 0.5118110236220472
        },
        {
          "duration": 0.034883720930224626,
          "durationTicks": 3,
          "midi": 81,
          "name": "A5",
          "ticks": 7293,
          "time": 84.80232558139535,
          "velocity": 0.2204724409448819
        },
        {
          "duration": 0.081395348837205,
          "durationTicks": 7,
          "midi": 67,
          "name": "G4",
          "ticks": 7294,
          "time": 84.81395348837209,
          "velocity": 0.5748031496062992
        },
        {
          "duration": 0.17441860465116577,
          "durationTicks": 15,
          "midi": 85,
          "name": "C#6",
          "ticks": 7294,
          "time": 84.81395348837209,
          "velocity": 0.2677165354330709
        },
        {
          "duration": 0.2325581395348877,
          "durationTicks": 20,
          "midi": 73,
          "name": "C#5",
          "ticks": 7295,
          "time": 84.82558139534883,
          "velocity": 0.3937007874015748
        },
        {
          "duration": 0.1046511627907023,
          "durationTicks": 9,
          "midi": 54,
          "name": "F#3",
          "ticks": 7296,
          "time": 84.83720930232558,
          "velocity": 0.48031496062992124
        },
        {
          "duration": 0.25581395348837077,
          "durationTicks": 22,
          "midi": 80,
          "name": "G#5",
          "ticks": 7296,
          "time": 84.83720930232558,
          "velocity": 0.33858267716535434
        },
        {
          "duration": 0.15116279069768268,
          "durationTicks": 13,
          "midi": 61,
          "name": "C#4",
          "ticks": 7300,
          "time": 84.88372093023256,
          "velocity": 0.4566929133858268
        },
        {
          "duration": 0.09302325581396076,
          "durationTicks": 8,
          "midi": 55,
          "name": "G3",
          "ticks": 7305,
          "time": 84.94186046511628,
          "velocity": 0.4330708661417323
        },
        {
          "duration": 0.023255813953497295,
          "durationTicks": 2,
          "midi": 68,
          "name": "G#4",
          "ticks": 7312,
          "time": 85.02325581395348,
          "velocity": 0.5039370078740157
        },
        {
          "duration": 0.03488372093023884,
          "durationTicks": 3,
          "midi": 78,
          "name": "F#5",
          "ticks": 7312,
          "time": 85.02325581395348,
          "velocity": 0.1968503937007874
        },
        {
          "duration": 0.03488372093023884,
          "durationTicks": 3,
          "midi": 88,
          "name": "E6",
          "ticks": 7312,
          "time": 85.02325581395348,
          "velocity": 0.25196850393700787
        },
        {
          "duration": 0.011627906976741542,
          "durationTicks": 1,
          "midi": 35,
          "name": "B1",
          "ticks": 7313,
          "time": 85.03488372093024,
          "velocity": 0.5354330708661418
        },
        {
          "duration": 0.011627906976741542,
          "durationTicks": 1,
          "midi": 53,
          "name": "F3",
          "ticks": 7313,
          "time": 85.03488372093024,
          "velocity": 0.5433070866141733
        },
        {
          "duration": 0.011627906976741542,
          "durationTicks": 1,
          "midi": 62,
          "name": "D4",
          "ticks": 7313,
          "time": 85.03488372093024,
          "velocity": 0.5984251968503937
        },
        {
          "duration": 0.034883720930224626,
          "durationTicks": 3,
          "midi": 76,
          "name": "E5",
          "ticks": 7313,
          "time": 85.03488372093024,
          "velocity": 0.25984251968503935
        },
        {
          "duration": 0.04651162790696617,
          "durationTicks": 4,
          "midi": 83,
          "name": "B5",
          "ticks": 7313,
          "time": 85.03488372093024,
          "velocity": 0.3228346456692913
        },
        {
          "duration": 0.023255813953483084,
          "durationTicks": 2,
          "midi": 86,
          "name": "D6",
          "ticks": 7313,
          "time": 85.03488372093024,
          "velocity": 0.25196850393700787
        },
        {
          "duration": 0.011627906976741542,
          "durationTicks": 1,
          "midi": 40,
          "name": "E2",
          "ticks": 7314,
          "time": 85.04651162790698,
          "velocity": 0.5748031496062992
        },
        {
          "duration": 0.023255813953483084,
          "durationTicks": 2,
          "midi": 52,
          "name": "E3",
          "ticks": 7314,
          "time": 85.04651162790698,
          "velocity": 0.6377952755905512
        },
        {
          "duration": 0.011627906976741542,
          "durationTicks": 1,
          "midi": 57,
          "name": "A3",
          "ticks": 7314,
          "time": 85.04651162790698,
          "velocity": 0.5118110236220472
        },
        {
          "duration": 0.034883720930224626,
          "durationTicks": 3,
          "midi": 63,
          "name": "D#4",
          "ticks": 7314,
          "time": 85.04651162790698,
          "velocity": 0.6535433070866141
        },
        {
          "duration": 0.06976744186046346,
          "durationTicks": 6,
          "midi": 67,
          "name": "G4",
          "ticks": 7314,
          "time": 85.04651162790698,
          "velocity": 0.5590551181102362
        },
        {
          "duration": 0.011627906976741542,
          "durationTicks": 1,
          "midi": 44,
          "name": "G#2",
          "ticks": 7315,
          "time": 85.05813953488372,
          "velocity": 0.5275590551181102
        },
        {
          "duration": 0.023255813953483084,
          "durationTicks": 2,
          "midi": 40,
          "name": "E2",
          "ticks": 7316,
          "time": 85.06976744186046,
          "velocity": 0.6299212598425197
        },
        {
          "duration": 0.011627906976741542,
          "durationTicks": 1,
          "midi": 53,
          "name": "F3",
          "ticks": 7316,
          "time": 85.06976744186046,
          "velocity": 0.6141732283464567
        },
        {
          "duration": 0.12790697674418539,
          "durationTicks": 11,
          "midi": 70,
          "name": "A#4",
          "ticks": 7316,
          "time": 85.06976744186046,
          "velocity": 0.3779527559055118
        },
        {
          "duration": 0.15116279069768268,
          "durationTicks": 13,
          "midi": 77,
          "name": "F5",
          "ticks": 7316,
          "time": 85.06976744186046,
          "velocity": 0.41732283464566927
        },
        {
          "duration": 0.023255813953483084,
          "durationTicks": 2,
          "midi": 84,
          "name": "C6",
          "ticks": 7316,
          "time": 85.06976744186046,
          "velocity": 0.25196850393700787
        },
        {
          "duration": 0.011627906976755753,
          "durationTicks": 1,
          "midi": 41,
          "name": "F2",
          "ticks": 7318,
          "time": 85.09302325581395,
          "velocity": 0.6850393700787402
        },
        {
          "duration": 0.011627906976755753,
          "durationTicks": 1,
          "midi": 56,
          "name": "G#3",
          "ticks": 7318,
          "time": 85.09302325581395,
          "velocity": 0.5196850393700787
        },
        {
          "duration": 0.023255813953497295,
          "durationTicks": 2,
          "midi": 64,
          "name": "E4",
          "ticks": 7318,
          "time": 85.09302325581395,
          "velocity": 0.5669291338582677
        },
        {
          "duration": 0.023255813953497295,
          "durationTicks": 2,
          "midi": 83,
          "name": "B5",
          "ticks": 7318,
          "time": 85.09302325581395,
          "velocity": 0.25196850393700787
        },
        {
          "duration": 0.023255813953483084,
          "durationTicks": 2,
          "midi": 42,
          "name": "F#2",
          "ticks": 7319,
          "time": 85.1046511627907,
          "velocity": 0.6456692913385826
        },
        {
          "duration": 0.09302325581394655,
          "durationTicks": 8,
          "midi": 84,
          "name": "C6",
          "ticks": 7319,
          "time": 85.1046511627907,
          "velocity": 0.2677165354330709
        },
        {
          "duration": 0.04651162790698038,
          "durationTicks": 4,
          "midi": 53,
          "name": "F3",
          "ticks": 7320,
          "time": 85.11627906976744,
          "velocity": 0.47244094488188976
        },
        {
          "duration": 0.023255813953483084,
          "durationTicks": 2,
          "midi": 41,
          "name": "F2",
          "ticks": 7321,
          "time": 85.12790697674419,
          "velocity": 0.4409448818897638
        },
        {
          "duration": 0.03488372093023884,
          "durationTicks": 3,
          "midi": 58,
          "name": "A#3",
          "ticks": 7321,
          "time": 85.12790697674419,
          "velocity": 0.4566929133858268
        },
        {
          "duration": 0.03488372093023884,
          "durationTicks": 3,
          "midi": 67,
          "name": "G4",
          "ticks": 7321,
          "time": 85.12790697674419,
          "velocity": 0.2440944881889764
        },
        {
          "duration": 0.023255813953497295,
          "durationTicks": 2,
          "midi": 72,
          "name": "C5",
          "ticks": 7322,
          "time": 85.13953488372093,
          "velocity": 0.29133858267716534
        },
        {
          "duration": 0.15116279069768268,
          "durationTicks": 13,
          "midi": 80,
          "name": "G#5",
          "ticks": 7322,
          "time": 85.13953488372093,
          "velocity": 0.4330708661417323
        },
        {
          "duration": 0.10465116279068809,
          "durationTicks": 9,
          "midi": 49,
          "name": "C#3",
          "ticks": 7324,
          "time": 85.16279069767442,
          "velocity": 0.5354330708661418
        },
        {
          "duration": 0.034883720930224626,
          "durationTicks": 3,
          "midi": 73,
          "name": "C#5",
          "ticks": 7324,
          "time": 85.16279069767442,
          "velocity": 0.11023622047244094
        },
        {
          "duration": 0.06976744186046346,
          "durationTicks": 6,
          "midi": 68,
          "name": "G#4",
          "ticks": 7327,
          "time": 85.19767441860465,
          "velocity": 0.3700787401574803
        },
        {
          "duration": 0.12790697674418539,
          "durationTicks": 11,
          "midi": 67,
          "name": "G4",
          "ticks": 7332,
          "time": 85.25581395348837,
          "velocity": 0.6220472440944882
        },
        {
          "duration": 0.05813953488372192,
          "durationTicks": 5,
          "midi": 83,
          "name": "B5",
          "ticks": 7332,
          "time": 85.25581395348837,
          "velocity": 0.1968503937007874
        },
        {
          "duration": 0.1046511627907023,
          "durationTicks": 9,
          "midi": 78,
          "name": "F#5",
          "ticks": 7333,
          "time": 85.26744186046511,
          "velocity": 0.4094488188976378
        },
        {
          "duration": 0.09302325581396076,
          "durationTicks": 8,
          "midi": 47,
          "name": "B2",
          "ticks": 7334,
          "time": 85.27906976744185,
          "velocity": 0.4645669291338583
        },
        {
          "duration": 0.04651162790698038,
          "durationTicks": 4,
          "midi": 59,
          "name": "B3",
          "ticks": 7334,
          "time": 85.27906976744185,
          "velocity": 0.6141732283464567
        },
        {
          "duration": 0.11627906976744384,
          "durationTicks": 10,
          "midi": 89,
          "name": "F6",
          "ticks": 7334,
          "time": 85.27906976744185,
          "velocity": 0.16535433070866143
        },
        {
          "duration": 0.19767441860464885,
          "durationTicks": 17,
          "midi": 75,
          "name": "D#5",
          "ticks": 7336,
          "time": 85.30232558139535,
          "velocity": 0.4330708661417323
        },
        {
          "duration": 0.04651162790698038,
          "durationTicks": 4,
          "midi": 70,
          "name": "A#4",
          "ticks": 7337,
          "time": 85.31395348837209,
          "velocity": 0.36220472440944884
        },
        {
          "duration": 0.023255813953497295,
          "durationTicks": 2,
          "midi": 58,
          "name": "A#3",
          "ticks": 7338,
          "time": 85.32558139534883,
          "velocity": 0.47244094488188976
        },
        {
          "duration": 0.09302325581394655,
          "durationTicks": 8,
          "midi": 58,
          "name": "A#3",
          "ticks": 7341,
          "time": 85.36046511627907,
          "velocity": 0.5039370078740157
        },
        {
          "duration": 0.19767441860464885,
          "durationTicks": 17,
          "midi": 77,
          "name": "F5",
          "ticks": 7341,
          "time": 85.36046511627907,
          "velocity": 0.36220472440944884
        },
        {
          "duration": 0.023255813953483084,
          "durationTicks": 2,
          "midi": 64,
          "name": "E4",
          "ticks": 7342,
          "time": 85.37209302325581,
          "velocity": 0.6141732283464567
        },
        {
          "duration": 0.04651162790698038,
          "durationTicks": 4,
          "midi": 82,
          "name": "A#5",
          "ticks": 7342,
          "time": 85.37209302325581,
          "velocity": 0.1889763779527559
        },
        {
          "duration": 0.1860465116279073,
          "durationTicks": 16,
          "midi": 84,
          "name": "C6",
          "ticks": 7342,
          "time": 85.37209302325581,
          "velocity": 0.3228346456692913
        },
        {
          "duration": 0.12790697674418539,
          "durationTicks": 11,
          "midi": 68,
          "name": "G#4",
          "ticks": 7343,
          "time": 85.38372093023256,
          "velocity": 0.5511811023622047
        },
        {
          "duration": 0.1860465116279073,
          "durationTicks": 16,
          "midi": 63,
          "name": "D#4",
          "ticks": 7344,
          "time": 85.3953488372093,
          "velocity": 0.6299212598425197
        },
        {
          "duration": 0.034883720930224626,
          "durationTicks": 3,
          "midi": 53,
          "name": "F3",
          "ticks": 7345,
          "time": 85.40697674418605,
          "velocity": 0.4330708661417323
        },
        {
          "duration": 0.06976744186046346,
          "durationTicks": 6,
          "midi": 72,
          "name": "C5",
          "ticks": 7345,
          "time": 85.40697674418605,
          "velocity": 0.28346456692913385
        },
        {
          "duration": 0.06976744186046346,
          "durationTicks": 6,
          "midi": 44,
          "name": "G#2",
          "ticks": 7346,
          "time": 85.4186046511628,
          "velocity": 0.4881889763779528
        },
        {
          "duration": 0.023255813953497295,
          "durationTicks": 2,
          "midi": 53,
          "name": "F3",
          "ticks": 7349,
          "time": 85.45348837209302,
          "velocity": 0.3858267716535433
        },
        {
          "duration": 0.023255813953483084,
          "durationTicks": 2,
          "midi": 55,
          "name": "G3",
          "ticks": 7351,
          "time": 85.47674418604652,
          "velocity": 0.4881889763779528
        },
        {
          "duration": 0.023255813953483084,
          "durationTicks": 2,
          "midi": 74,
          "name": "D5",
          "ticks": 7352,
          "time": 85.48837209302326,
          "velocity": 0.30708661417322836
        },
        {
          "duration": 0.034883720930224626,
          "durationTicks": 3,
          "midi": 78,
          "name": "F#5",
          "ticks": 7352,
          "time": 85.48837209302326,
          "velocity": 0.2440944881889764
        },
        {
          "duration": 0.023255813953483084,
          "durationTicks": 2,
          "midi": 81,
          "name": "A5",
          "ticks": 7352,
          "time": 85.48837209302326,
          "velocity": 0.2283464566929134
        },
        {
          "duration": 0.011627906976741542,
          "durationTicks": 1,
          "midi": 36,
          "name": "C2",
          "ticks": 7353,
          "time": 85.5,
          "velocity": 0.5984251968503937
        },
        {
          "duration": 0.023255813953483084,
          "durationTicks": 2,
          "midi": 57,
          "name": "A3",
          "ticks": 7353,
          "time": 85.5,
          "velocity": 0.5669291338582677
        },
        {
          "duration": 0.011627906976741542,
          "durationTicks": 1,
          "midi": 30,
          "name": "F#1",
          "ticks": 7354,
          "time": 85.51162790697674,
          "velocity": 0.5275590551181102
        },
        {
          "duration": 0.011627906976741542,
          "durationTicks": 1,
          "midi": 40,
          "name": "E2",
          "ticks": 7354,
          "time": 85.51162790697674,
          "velocity": 0.5905511811023622
        },
        {
          "duration": 0.11627906976744384,
          "durationTicks": 10,
          "midi": 67,
          "name": "G4",
          "ticks": 7354,
          "time": 85.51162790697674,
          "velocity": 0.5590551181102362
        },
        {
          "duration": 0.03488372093023884,
          "durationTicks": 3,
          "midi": 70,
          "name": "A#4",
          "ticks": 7354,
          "time": 85.51162790697674,
          "velocity": 0.33858267716535434
        },
        {
          "duration": 0.05813953488372192,
          "durationTicks": 5,
          "midi": 72,
          "name": "C5",
          "ticks": 7354,
          "time": 85.51162790697674,
          "velocity": 0.1889763779527559
        },
        {
          "duration": 0.011627906976755753,
          "durationTicks": 1,
          "midi": 51,
          "name": "D#3",
          "ticks": 7355,
          "time": 85.52325581395348,
          "velocity": 0.5590551181102362
        },
        {
          "duration": 0.011627906976741542,
          "durationTicks": 1,
          "midi": 38,
          "name": "D2",
          "ticks": 7356,
          "time": 85.53488372093024,
          "velocity": 0.5196850393700787
        },
        {
          "duration": 0.023255813953483084,
          "durationTicks": 2,
          "midi": 52,
          "name": "E3",
          "ticks": 7356,
          "time": 85.53488372093024,
          "velocity": 0.5984251968503937
        },
        {
          "duration": 0.023255813953483084,
          "durationTicks": 2,
          "midi": 56,
          "name": "G#3",
          "ticks": 7356,
          "time": 85.53488372093024,
          "velocity": 0.47244094488188976
        },
        {
          "duration": 0.011627906976741542,
          "durationTicks": 1,
          "midi": 41,
          "name": "F2",
          "ticks": 7357,
          "time": 85.54651162790698,
          "velocity": 0.6614173228346457
        },
        {
          "duration": 0.023255813953483084,
          "durationTicks": 2,
          "midi": 42,
          "name": "F#2",
          "ticks": 7358,
          "time": 85.55813953488372,
          "velocity": 0.6771653543307087
        },
        {
          "duration": 0.011627906976741542,
          "durationTicks": 1,
          "midi": 55,
          "name": "G3",
          "ticks": 7358,
          "time": 85.55813953488372,
          "velocity": 0.5118110236220472
        },
        {
          "duration": 0.011627906976741542,
          "durationTicks": 1,
          "midi": 41,
          "name": "F2",
          "ticks": 7360,
          "time": 85.5813953488372,
          "velocity": 0.5354330708661418
        },
        {
          "duration": 0.1046511627907023,
          "durationTicks": 9,
          "midi": 51,
          "name": "D#3",
          "ticks": 7360,
          "time": 85.5813953488372,
          "velocity": 0.5433070866141733
        },
        {
          "duration": 0.023255813953497295,
          "durationTicks": 2,
          "midi": 40,
          "name": "E2",
          "ticks": 7361,
          "time": 85.59302325581395,
          "velocity": 0.4330708661417323
        },
        {
          "duration": 0.023255813953483084,
          "durationTicks": 2,
          "midi": 41,
          "name": "F2",
          "ticks": 7363,
          "time": 85.61627906976744,
          "velocity": 0.3543307086614173
        },
        {
          "duration": 0.03488372093023884,
          "durationTicks": 3,
          "midi": 40,
          "name": "E2",
          "ticks": 7365,
          "time": 85.63953488372093,
          "velocity": 0.2047244094488189
        },
        {
          "duration": 0.023255813953483084,
          "durationTicks": 2,
          "midi": 68,
          "name": "G#4",
          "ticks": 7372,
          "time": 85.72093023255815,
          "velocity": 0.49606299212598426
        },
        {
          "duration": 0.06976744186046346,
          "durationTicks": 6,
          "midi": 55,
          "name": "G3",
          "ticks": 7373,
          "time": 85.73255813953489,
          "velocity": 0.5748031496062992
        },
        {
          "duration": 0.05813953488372192,
          "durationTicks": 5,
          "midi": 63,
          "name": "D#4",
          "ticks": 7373,
          "time": 85.73255813953489,
          "velocity": 0.5748031496062992
        },
        {
          "duration": 0.081395348837205,
          "durationTicks": 7,
          "midi": 86,
          "name": "D6",
          "ticks": 7373,
          "time": 85.73255813953489,
          "velocity": 0.1968503937007874
        },
        {
          "duration": 0.011627906976741542,
          "durationTicks": 1,
          "midi": 48,
          "name": "C3",
          "ticks": 7374,
          "time": 85.74418604651163,
          "velocity": 0.5748031496062992
        },
        {
          "duration": 0.13953488372092693,
          "durationTicks": 12,
          "midi": 77,
          "name": "F5",
          "ticks": 7374,
          "time": 85.74418604651163,
          "velocity": 0.2755905511811024
        },
        {
          "duration": 0.05813953488372192,
          "durationTicks": 5,
          "midi": 49,
          "name": "C#3",
          "ticks": 7375,
          "time": 85.75581395348837,
          "velocity": 0.5984251968503937
        },
        {
          "duration": 0.11627906976744384,
          "durationTicks": 10,
          "midi": 70,
          "name": "A#4",
          "ticks": 7375,
          "time": 85.75581395348837,
          "velocity": 0.29133858267716534
        },
        {
          "duration": 0.12790697674418539,
          "durationTicks": 11,
          "midi": 72,
          "name": "C5",
          "ticks": 7375,
          "time": 85.75581395348837,
          "velocity": 0.2677165354330709
        },
        {
          "duration": 0.023255813953483084,
          "durationTicks": 2,
          "midi": 63,
          "name": "D#4",
          "ticks": 7379,
          "time": 85.80232558139535,
          "velocity": 0.3937007874015748
        },
        {
          "duration": 0.023255813953497295,
          "durationTicks": 2,
          "midi": 54,
          "name": "F#3",
          "ticks": 7381,
          "time": 85.82558139534883,
          "velocity": 0.4566929133858268
        },
        {
          "duration": 0.03488372093023884,
          "durationTicks": 3,
          "midi": 65,
          "name": "F4",
          "ticks": 7381,
          "time": 85.82558139534883,
          "velocity": 0.29133858267716534
        },
        {
          "duration": 0.03488372093023884,
          "durationTicks": 3,
          "midi": 58,
          "name": "A#3",
          "ticks": 7382,
          "time": 85.83720930232558,
          "velocity": 0.3937007874015748
        },
        {
          "duration": 0.023255813953483084,
          "durationTicks": 2,
          "midi": 53,
          "name": "F3",
          "ticks": 7383,
          "time": 85.84883720930233,
          "velocity": 0.3779527559055118
        },
        {
          "duration": 0.034883720930224626,
          "durationTicks": 3,
          "midi": 64,
          "name": "E4",
          "ticks": 7384,
          "time": 85.86046511627907,
          "velocity": 0.2755905511811024
        },
        {
          "duration": 0.023255813953497295,
          "durationTicks": 2,
          "midi": 55,
          "name": "G3",
          "ticks": 7386,
          "time": 85.88372093023256,
          "velocity": 0.31496062992125984
        },
        {
          "duration": 0.023255813953483084,
          "durationTicks": 2,
          "midi": 68,
          "name": "G#4",
          "ticks": 7391,
          "time": 85.94186046511628,
          "velocity": 0.4645669291338583
        },
        {
          "duration": 0.011627906976755753,
          "durationTicks": 1,
          "midi": 40,
          "name": "E2",
          "ticks": 7393,
          "time": 85.96511627906976,
          "velocity": 0.6062992125984252
        },
        {
          "duration": 0.023255813953497295,
          "durationTicks": 2,
          "midi": 57,
          "name": "A3",
          "ticks": 7393,
          "time": 85.96511627906976,
          "velocity": 0.5118110236220472
        },
        {
          "duration": 0.13953488372094114,
          "durationTicks": 12,
          "midi": 63,
          "name": "D#4",
          "ticks": 7393,
          "time": 85.96511627906976,
          "velocity": 0.5748031496062992
        },
        {
          "duration": 0.13953488372094114,
          "durationTicks": 12,
          "midi": 67,
          "name": "G4",
          "ticks": 7393,
          "time": 85.96511627906976,
          "velocity": 0.5748031496062992
        },
        {
          "duration": 0.08139534883721922,
          "durationTicks": 7,
          "midi": 72,
          "name": "C5",
          "ticks": 7393,
          "time": 85.96511627906976,
          "velocity": 0.31496062992125984
        },
        {
          "duration": 0.023255813953483084,
          "durationTicks": 2,
          "midi": 41,
          "name": "F2",
          "ticks": 7394,
          "time": 85.97674418604652,
          "velocity": 0.6062992125984252
        },
        {
          "duration": 0.011627906976741542,
          "durationTicks": 1,
          "midi": 52,
          "name": "E3",
          "ticks": 7394,
          "time": 85.97674418604652,
          "velocity": 0.5196850393700787
        },
        {
          "duration": 0.011627906976741542,
          "durationTicks": 1,
          "midi": 55,
          "name": "G3",
          "ticks": 7395,
          "time": 85.98837209302326,
          "velocity": 0.5826771653543307
        },
        {
          "duration": 0.011627906976741542,
          "durationTicks": 1,
          "midi": 38,
          "name": "D2",
          "ticks": 7396,
          "time": 86,
          "velocity": 0.5905511811023622
        },
        {
          "duration": 0.023255813953483084,
          "durationTicks": 2,
          "midi": 53,
          "name": "F3",
          "ticks": 7396,
          "time": 86,
          "velocity": 0.5196850393700787
        },
        {
          "duration": 0.011627906976741542,
          "durationTicks": 1,
          "midi": 56,
          "name": "G#3",
          "ticks": 7396,
          "time": 86,
          "velocity": 0.5118110236220472
        },
        {
          "duration": 0.011627906976741542,
          "durationTicks": 1,
          "midi": 41,
          "name": "F2",
          "ticks": 7397,
          "time": 86.01162790697674,
          "velocity": 0.6929133858267716
        },
        {
          "duration": 0.023255813953497295,
          "durationTicks": 2,
          "midi": 42,
          "name": "F#2",
          "ticks": 7398,
          "time": 86.02325581395348,
          "velocity": 0.6929133858267716
        },
        {
          "duration": 0.011627906976741542,
          "durationTicks": 1,
          "midi": 41,
          "name": "F2",
          "ticks": 7400,
          "time": 86.04651162790698,
          "velocity": 0.5196850393700787
        },
        {
          "duration": 0.04651162790698038,
          "durationTicks": 4,
          "midi": 56,
          "name": "G#3",
          "ticks": 7401,
          "time": 86.05813953488372,
          "velocity": 0.1889763779527559
        },
        {
          "duration": 0.023255813953497295,
          "durationTicks": 2,
          "midi": 41,
          "name": "F2",
          "ticks": 7403,
          "time": 86.0813953488372,
          "velocity": 0.36220472440944884
        },
        {
          "duration": 0.03488372093023884,
          "durationTicks": 3,
          "midi": 40,
          "name": "E2",
          "ticks": 7407,
          "time": 86.12790697674419,
          "velocity": 0.16535433070866143
        },
        {
          "duration": 0.034883720930224626,
          "durationTicks": 3,
          "midi": 65,
          "name": "F4",
          "ticks": 7411,
          "time": 86.17441860465117,
          "velocity": 0.5590551181102362
        },
        {
          "duration": 0.023255813953483084,
          "durationTicks": 2,
          "midi": 67,
          "name": "G4",
          "ticks": 7411,
          "time": 86.17441860465117,
          "velocity": 0.4566929133858268
        },
        {
          "duration": 0.03488372093023884,
          "durationTicks": 3,
          "midi": 73,
          "name": "C#5",
          "ticks": 7412,
          "time": 86.18604651162791,
          "velocity": 0.2755905511811024
        },
        {
          "duration": 0.03488372093023884,
          "durationTicks": 3,
          "midi": 78,
          "name": "F#5",
          "ticks": 7412,
          "time": 86.18604651162791,
          "velocity": 0.23622047244094488
        },
        {
          "duration": 0.081395348837205,
          "durationTicks": 7,
          "midi": 80,
          "name": "G#5",
          "ticks": 7412,
          "time": 86.18604651162791,
          "velocity": 0.2677165354330709
        },
        {
          "duration": 0.023255813953483084,
          "durationTicks": 2,
          "midi": 82,
          "name": "A#5",
          "ticks": 7412,
          "time": 86.18604651162791,
          "velocity": 0.2440944881889764
        },
        {
          "duration": 0.023255813953497295,
          "durationTicks": 2,
          "midi": 48,
          "name": "C3",
          "ticks": 7413,
          "time": 86.19767441860465,
          "velocity": 0.6062992125984252
        },
        {
          "duration": 0.011627906976741542,
          "durationTicks": 1,
          "midi": 68,
          "name": "G#4",
          "ticks": 7413,
          "time": 86.19767441860465,
          "velocity": 0.5433070866141733
        },
        {
          "duration": 0.05813953488372192,
          "durationTicks": 5,
          "midi": 61,
          "name": "C#4",
          "ticks": 7414,
          "time": 86.20930232558139,
          "velocity": 0.4409448818897638
        },
        {
          "duration": 0.04651162790698038,
          "durationTicks": 4,
          "midi": 67,
          "name": "G4",
          "ticks": 7414,
          "time": 86.20930232558139,
          "velocity": 0.5905511811023622
        },
        {
          "duration": 0.034883720930224626,
          "durationTicks": 3,
          "midi": 49,
          "name": "C#3",
          "ticks": 7415,
          "time": 86.22093023255815,
          "velocity": 0.6141732283464567
        },
        {
          "duration": 0.011627906976741542,
          "durationTicks": 1,
          "midi": 54,
          "name": "F#3",
          "ticks": 7415,
          "time": 86.22093023255815,
          "velocity": 0.5118110236220472
        },
        {
          "duration": 0.081395348837205,
          "durationTicks": 7,
          "midi": 70,
          "name": "A#4",
          "ticks": 7415,
          "time": 86.22093023255815,
          "velocity": 0.23622047244094488
        },
        {
          "duration": 0.081395348837205,
          "durationTicks": 7,
          "midi": 72,
          "name": "C5",
          "ticks": 7415,
          "time": 86.22093023255815,
          "velocity": 0.2047244094488189
        },
        {
          "duration": 0.06976744186046346,
          "durationTicks": 6,
          "midi": 65,
          "name": "F4",
          "ticks": 7416,
          "time": 86.23255813953489,
          "velocity": 0.4645669291338583
        },
        {
          "duration": 0.011627906976741542,
          "durationTicks": 1,
          "midi": 54,
          "name": "F#3",
          "ticks": 7417,
          "time": 86.24418604651163,
          "velocity": 0.5275590551181102
        },
        {
          "duration": 0.09302325581394655,
          "durationTicks": 8,
          "midi": 58,
          "name": "A#3",
          "ticks": 7417,
          "time": 86.24418604651163,
          "velocity": 0.4330708661417323
        },
        {
          "duration": 0.06976744186046346,
          "durationTicks": 6,
          "midi": 84,
          "name": "C6",
          "ticks": 7417,
          "time": 86.24418604651163,
          "velocity": 0.23622047244094488
        },
        {
          "duration": 0.011627906976741542,
          "durationTicks": 1,
          "midi": 50,
          "name": "D3",
          "ticks": 7418,
          "time": 86.25581395348837,
          "velocity": 0.5590551181102362
        },
        {
          "duration": 0.03488372093023884,
          "durationTicks": 3,
          "midi": 54,
          "name": "F#3",
          "ticks": 7419,
          "time": 86.26744186046511,
          "velocity": 0.5039370078740157
        },
        {
          "duration": 0.04651162790698038,
          "durationTicks": 4,
          "midi": 53,
          "name": "F3",
          "ticks": 7422,
          "time": 86.30232558139535,
          "velocity": 0.4881889763779528
        },
        {
          "duration": 0.2093023255813904,
          "durationTicks": 18,
          "midi": 63,
          "name": "D#4",
          "ticks": 7422,
          "time": 86.30232558139535,
          "velocity": 0.6377952755905512
        },
        {
          "duration": 0.023255813953483084,
          "durationTicks": 2,
          "midi": 73,
          "name": "C#5",
          "ticks": 7422,
          "time": 86.30232558139535,
          "velocity": 0.2283464566929134
        },
        {
          "duration": 0.034883720930224626,
          "durationTicks": 3,
          "midi": 54,
          "name": "F#3",
          "ticks": 7426,
          "time": 86.34883720930233,
          "velocity": 0.25196850393700787
        },
        {
          "duration": 0.06976744186046346,
          "durationTicks": 6,
          "midi": 79,
          "name": "G5",
          "ticks": 7431,
          "time": 86.40697674418605,
          "velocity": 0.2677165354330709
        },
        {
          "duration": 0.11627906976742963,
          "durationTicks": 10,
          "midi": 82,
          "name": "A#5",
          "ticks": 7431,
          "time": 86.40697674418605,
          "velocity": 0.33070866141732286
        },
        {
          "duration": 0.034883720930224626,
          "durationTicks": 3,
          "midi": 85,
          "name": "C#6",
          "ticks": 7431,
          "time": 86.40697674418605,
          "velocity": 0.2677165354330709
        },
        {
          "duration": 0.023255813953483084,
          "durationTicks": 2,
          "midi": 86,
          "name": "D6",
          "ticks": 7431,
          "time": 86.40697674418605,
          "velocity": 0.25984251968503935
        },
        {
          "duration": 0.011627906976741542,
          "durationTicks": 1,
          "midi": 36,
          "name": "C2",
          "ticks": 7432,
          "time": 86.4186046511628,
          "velocity": 0.5826771653543307
        },
        {
          "duration": 0.034883720930224626,
          "durationTicks": 3,
          "midi": 50,
          "name": "D3",
          "ticks": 7432,
          "time": 86.4186046511628,
          "velocity": 0.6456692913385826
        },
        {
          "duration": 0.023255813953483084,
          "durationTicks": 2,
          "midi": 88,
          "name": "E6",
          "ticks": 7432,
          "time": 86.4186046511628,
          "velocity": 0.25196850393700787
        },
        {
          "duration": 0.011627906976741542,
          "durationTicks": 1,
          "midi": 40,
          "name": "E2",
          "ticks": 7433,
          "time": 86.43023255813954,
          "velocity": 0.6299212598425197
        },
        {
          "duration": 0.023255813953483084,
          "durationTicks": 2,
          "midi": 57,
          "name": "A3",
          "ticks": 7433,
          "time": 86.43023255813954,
          "velocity": 0.49606299212598426
        },
        {
          "duration": 0.09302325581394655,
          "durationTicks": 8,
          "midi": 67,
          "name": "G4",
          "ticks": 7433,
          "time": 86.43023255813954,
          "velocity": 0.5669291338582677
        },
        {
          "duration": 0.06976744186046346,
          "durationTicks": 6,
          "midi": 72,
          "name": "C5",
          "ticks": 7433,
          "time": 86.43023255813954,
          "velocity": 0.2992125984251969
        },
        {
          "duration": 0.011627906976741542,
          "durationTicks": 1,
          "midi": 41,
          "name": "F2",
          "ticks": 7434,
          "time": 86.44186046511628,
          "velocity": 0.5905511811023622
        },
        {
          "duration": 0.03488372093023884,
          "durationTicks": 3,
          "midi": 51,
          "name": "D#3",
          "ticks": 7435,
          "time": 86.45348837209302,
          "velocity": 0.7244094488188977
        },
        {
          "duration": 0.011627906976755753,
          "durationTicks": 1,
          "midi": 38,
          "name": "D2",
          "ticks": 7436,
          "time": 86.46511627906976,
          "velocity": 0.6062992125984252
        },
        {
          "duration": 0.023255813953497295,
          "durationTicks": 2,
          "midi": 60,
          "name": "C4",
          "ticks": 7436,
          "time": 86.46511627906976,
          "velocity": 0.3228346456692913
        },
        {
          "duration": 0.011627906976741542,
          "durationTicks": 1,
          "midi": 41,
          "name": "F2",
          "ticks": 7437,
          "time": 86.47674418604652,
          "velocity": 0.6850393700787402
        },
        {
          "duration": 0.11627906976742963,
          "durationTicks": 10,
          "midi": 80,
          "name": "G#5",
          "ticks": 7437,
          "time": 86.47674418604652,
          "velocity": 0.1732283464566929
        },
        {
          "duration": 0.023255813953483084,
          "durationTicks": 2,
          "midi": 42,
          "name": "F#2",
          "ticks": 7438,
          "time": 86.48837209302326,
          "velocity": 0.6614173228346457
        },
        {
          "duration": 0.023255813953483084,
          "durationTicks": 2,
          "midi": 56,
          "name": "G#3",
          "ticks": 7438,
          "time": 86.48837209302326,
          "velocity": 0.4094488188976378
        },
        {
          "duration": 0.04651162790698038,
          "durationTicks": 4,
          "midi": 61,
          "name": "C#4",
          "ticks": 7440,
          "time": 86.51162790697674,
          "velocity": 0.2204724409448819
        },
        {
          "duration": 0.05813953488372192,
          "durationTicks": 5,
          "midi": 50,
          "name": "D3",
          "ticks": 7441,
          "time": 86.52325581395348,
          "velocity": 0.49606299212598426
        },
        {
          "duration": 0.05813953488372192,
          "durationTicks": 5,
          "midi": 68,
          "name": "G#4",
          "ticks": 7441,
          "time": 86.52325581395348,
          "velocity": 0.2283464566929134
        },
        {
          "duration": 0.023255813953497295,
          "durationTicks": 2,
          "midi": 38,
          "name": "D2",
          "ticks": 7451,
          "time": 86.63953488372093,
          "velocity": 0.3228346456692913
        },
        {
          "duration": 0.023255813953497295,
          "durationTicks": 2,
          "midi": 62,
          "name": "D4",
          "ticks": 7451,
          "time": 86.63953488372093,
          "velocity": 0.5196850393700787
        },
        {
          "duration": 0.023255813953497295,
          "durationTicks": 2,
          "midi": 68,
          "name": "G#4",
          "ticks": 7451,
          "time": 86.63953488372093,
          "velocity": 0.49606299212598426
        },
        {
          "duration": 0.03488372093023884,
          "durationTicks": 3,
          "midi": 77,
          "name": "F5",
          "ticks": 7451,
          "time": 86.63953488372093,
          "velocity": 0.2677165354330709
        },
        {
          "duration": 0.023255813953497295,
          "durationTicks": 2,
          "midi": 78,
          "name": "F#5",
          "ticks": 7451,
          "time": 86.63953488372093,
          "velocity": 0.25984251968503935
        },
        {
          "duration": 0.03488372093023884,
          "durationTicks": 3,
          "midi": 81,
          "name": "A5",
          "ticks": 7451,
          "time": 86.63953488372093,
          "velocity": 0.25196850393700787
        },
        {
          "duration": 0.03488372093023884,
          "durationTicks": 3,
          "midi": 84,
          "name": "C6",
          "ticks": 7451,
          "time": 86.63953488372093,
          "velocity": 0.23622047244094488
        },
        {
          "duration": 0.03488372093023884,
          "durationTicks": 3,
          "midi": 85,
          "name": "C#6",
          "ticks": 7451,
          "time": 86.63953488372093,
          "velocity": 0.23622047244094488
        },
        {
          "duration": 0.03488372093023884,
          "durationTicks": 3,
          "midi": 88,
          "name": "E6",
          "ticks": 7451,
          "time": 86.63953488372093,
          "velocity": 0.23622047244094488
        },
        {
          "duration": 0.03488372093023884,
          "durationTicks": 3,
          "midi": 72,
          "name": "C5",
          "ticks": 7452,
          "time": 86.65116279069767,
          "velocity": 0.29133858267716534
        },
        {
          "duration": 0.023255813953497295,
          "durationTicks": 2,
          "midi": 83,
          "name": "B5",
          "ticks": 7452,
          "time": 86.65116279069767,
          "velocity": 0.23622047244094488
        },
        {
          "duration": 0.023255813953483084,
          "durationTicks": 2,
          "midi": 40,
          "name": "E2",
          "ticks": 7453,
          "time": 86.66279069767442,
          "velocity": 0.2992125984251969
        },
        {
          "duration": 0.22093023255813193,
          "durationTicks": 19,
          "midi": 58,
          "name": "A#3",
          "ticks": 7453,
          "time": 86.66279069767442,
          "velocity": 0.4881889763779528
        },
        {
          "duration": 0.10465116279068809,
          "durationTicks": 9,
          "midi": 63,
          "name": "D#4",
          "ticks": 7453,
          "time": 86.66279069767442,
          "velocity": 0.5905511811023622
        },
        {
          "duration": 0.081395348837205,
          "durationTicks": 7,
          "midi": 67,
          "name": "G4",
          "ticks": 7453,
          "time": 86.66279069767442,
          "velocity": 0.5511811023622047
        },
        {
          "duration": 0.023255813953483084,
          "durationTicks": 2,
          "midi": 69,
          "name": "A4",
          "ticks": 7453,
          "time": 86.66279069767442,
          "velocity": 0.3700787401574803
        },
        {
          "duration": 0.12790697674418539,
          "durationTicks": 11,
          "midi": 53,
          "name": "F3",
          "ticks": 7455,
          "time": 86.68604651162791,
          "velocity": 0.47244094488188976
        },
        {
          "duration": 0.06976744186046346,
          "durationTicks": 6,
          "midi": 72,
          "name": "C5",
          "ticks": 7458,
          "time": 86.72093023255815,
          "velocity": 0.25196850393700787
        },
        {
          "duration": 0.09302325581394655,
          "durationTicks": 8,
          "midi": 77,
          "name": "F5",
          "ticks": 7464,
          "time": 86.79069767441861,
          "velocity": 0.2125984251968504
        },
        {
          "duration": 0.06976744186047767,
          "durationTicks": 6,
          "midi": 89,
          "name": "F6",
          "ticks": 7468,
          "time": 86.83720930232558,
          "velocity": 0.2125984251968504
        },
        {
          "duration": 0.023255813953483084,
          "durationTicks": 2,
          "midi": 62,
          "name": "D4",
          "ticks": 7471,
          "time": 86.87209302325581,
          "velocity": 0.5748031496062992
        },
        {
          "duration": 0.023255813953483084,
          "durationTicks": 2,
          "midi": 69,
          "name": "A4",
          "ticks": 7471,
          "time": 86.87209302325581,
          "velocity": 0.5118110236220472
        },
        {
          "duration": 0.04651162790698038,
          "durationTicks": 4,
          "midi": 72,
          "name": "C5",
          "ticks": 7471,
          "time": 86.87209302325581,
          "velocity": 0.2992125984251969
        },
        {
          "duration": 0.04651162790698038,
          "durationTicks": 4,
          "midi": 79,
          "name": "G5",
          "ticks": 7471,
          "time": 86.87209302325581,
          "velocity": 0.23622047244094488
        },
        {
          "duration": 0.13953488372092693,
          "durationTicks": 12,
          "midi": 82,
          "name": "A#5",
          "ticks": 7471,
          "time": 86.87209302325581,
          "velocity": 0.33858267716535434
        },
        {
          "duration": 0.03488372093023884,
          "durationTicks": 3,
          "midi": 85,
          "name": "C#6",
          "ticks": 7471,
          "time": 86.87209302325581,
          "velocity": 0.25984251968503935
        },
        {
          "duration": 0.03488372093023884,
          "durationTicks": 3,
          "midi": 86,
          "name": "D6",
          "ticks": 7471,
          "time": 86.87209302325581,
          "velocity": 0.2440944881889764
        },
        {
          "duration": 0.03488372093023884,
          "durationTicks": 3,
          "midi": 88,
          "name": "E6",
          "ticks": 7471,
          "time": 86.87209302325581,
          "velocity": 0.23622047244094488
        },
        {
          "duration": 0.03488372093023884,
          "durationTicks": 3,
          "midi": 90,
          "name": "F#6",
          "ticks": 7471,
          "time": 86.87209302325581,
          "velocity": 0.16535433070866143
        },
        {
          "duration": 0.011627906976741542,
          "durationTicks": 1,
          "midi": 30,
          "name": "F#1",
          "ticks": 7472,
          "time": 86.88372093023256,
          "velocity": 0.5433070866141733
        },
        {
          "duration": 0.023255813953497295,
          "durationTicks": 2,
          "midi": 50,
          "name": "D3",
          "ticks": 7472,
          "time": 86.88372093023256,
          "velocity": 0.6456692913385826
        },
        {
          "duration": 0.13953488372092693,
          "durationTicks": 12,
          "midi": 80,
          "name": "G#5",
          "ticks": 7472,
          "time": 86.88372093023256,
          "velocity": 0.23622047244094488
        },
        {
          "duration": 0.023255813953497295,
          "durationTicks": 2,
          "midi": 83,
          "name": "B5",
          "ticks": 7472,
          "time": 86.88372093023256,
          "velocity": 0.2677165354330709
        },
        {
          "duration": 0.023255813953497295,
          "durationTicks": 2,
          "midi": 35,
          "name": "B1",
          "ticks": 7473,
          "time": 86.8953488372093,
          "velocity": 0.5748031496062992
        },
        {
          "duration": 0.03488372093023884,
          "durationTicks": 3,
          "midi": 63,
          "name": "D#4",
          "ticks": 7473,
          "time": 86.8953488372093,
          "velocity": 0.6141732283464567
        },
        {
          "duration": 0.11627906976744384,
          "durationTicks": 10,
          "midi": 68,
          "name": "G#4",
          "ticks": 7473,
          "time": 86.8953488372093,
          "velocity": 0.5669291338582677
        },
        {
          "duration": 0.011627906976741542,
          "durationTicks": 1,
          "midi": 45,
          "name": "A2",
          "ticks": 7474,
          "time": 86.90697674418605,
          "velocity": 0.5196850393700787
        },
        {
          "duration": 0.09302325581394655,
          "durationTicks": 8,
          "midi": 51,
          "name": "D#3",
          "ticks": 7474,
          "time": 86.90697674418605,
          "velocity": 0.6456692913385826
        },
        {
          "duration": 0.011627906976741542,
          "durationTicks": 1,
          "midi": 47,
          "name": "B2",
          "ticks": 7475,
          "time": 86.9186046511628,
          "velocity": 0.5511811023622047
        },
        {
          "duration": 0.011627906976741542,
          "durationTicks": 1,
          "midi": 55,
          "name": "G3",
          "ticks": 7475,
          "time": 86.9186046511628,
          "velocity": 0.5433070866141733
        },
        {
          "duration": 0.011627906976741542,
          "durationTicks": 1,
          "midi": 42,
          "name": "F#2",
          "ticks": 7476,
          "time": 86.93023255813954,
          "velocity": 0.6377952755905512
        },
        {
          "duration": 0.011627906976741542,
          "durationTicks": 1,
          "midi": 62,
          "name": "D4",
          "ticks": 7476,
          "time": 86.93023255813954,
          "velocity": 0.5590551181102362
        },
        {
          "duration": 0.06976744186046346,
          "durationTicks": 6,
          "midi": 70,
          "name": "A#4",
          "ticks": 7476,
          "time": 86.93023255813954,
          "velocity": 0.30708661417322836
        },
        {
          "duration": 0.03488372093023884,
          "durationTicks": 3,
          "midi": 41,
          "name": "F2",
          "ticks": 7477,
          "time": 86.94186046511628,
          "velocity": 0.6299212598425197
        },
        {
          "duration": 0.023255813953483084,
          "durationTicks": 2,
          "midi": 57,
          "name": "A3",
          "ticks": 7477,
          "time": 86.94186046511628,
          "velocity": 0.3858267716535433
        },
        {
          "duration": 0.03488372093023884,
          "durationTicks": 3,
          "midi": 74,
          "name": "D5",
          "ticks": 7477,
          "time": 86.94186046511628,
          "velocity": 0.25196850393700787
        },
        {
          "duration": 0.05813953488372192,
          "durationTicks": 5,
          "midi": 73,
          "name": "C#5",
          "ticks": 7478,
          "time": 86.95348837209302,
          "velocity": 0.25984251968503935
        },
        {
          "duration": 0.04651162790696617,
          "durationTicks": 4,
          "midi": 56,
          "name": "G#3",
          "ticks": 7480,
          "time": 86.97674418604652,
          "velocity": 0.4881889763779528
        },
        {
          "duration": 0.034883720930224626,
          "durationTicks": 3,
          "midi": 61,
          "name": "C#4",
          "ticks": 7480,
          "time": 86.97674418604652,
          "velocity": 0.47244094488188976
        },
        {
          "duration": 0.25581395348837077,
          "durationTicks": 22,
          "midi": 75,
          "name": "D#5",
          "ticks": 7480,
          "time": 86.97674418604652,
          "velocity": 0.4409448818897638
        },
        {
          "duration": 0.17441860465116577,
          "durationTicks": 15,
          "midi": 71,
          "name": "B4",
          "ticks": 7482,
          "time": 87,
          "velocity": 0.4251968503937008
        },
        {
          "duration": 0.11627906976744384,
          "durationTicks": 10,
          "midi": 78,
          "name": "F#5",
          "ticks": 7482,
          "time": 87,
          "velocity": 0.3858267716535433
        },
        {
          "duration": 0.1046511627907023,
          "durationTicks": 9,
          "midi": 47,
          "name": "B2",
          "ticks": 7483,
          "time": 87.01162790697674,
          "velocity": 0.4645669291338583
        },
        {
          "duration": 0.09302325581396076,
          "durationTicks": 8,
          "midi": 66,
          "name": "F#4",
          "ticks": 7484,
          "time": 87.02325581395348,
          "velocity": 0.2992125984251969
        },
        {
          "duration": 0.06976744186046346,
          "durationTicks": 6,
          "midi": 68,
          "name": "G#4",
          "ticks": 7491,
          "time": 87.1046511627907,
          "velocity": 0.5433070866141733
        },
        {
          "duration": 0.034883720930224626,
          "durationTicks": 3,
          "midi": 88,
          "name": "E6",
          "ticks": 7491,
          "time": 87.1046511627907,
          "velocity": 0.1889763779527559
        },
        {
          "duration": 0.034883720930224626,
          "durationTicks": 3,
          "midi": 89,
          "name": "F6",
          "ticks": 7491,
          "time": 87.1046511627907,
          "velocity": 0.1889763779527559
        },
        {
          "duration": 0.09302325581396076,
          "durationTicks": 8,
          "midi": 63,
          "name": "D#4",
          "ticks": 7493,
          "time": 87.12790697674419,
          "velocity": 0.30708661417322836
        },
        {
          "duration": 0.08139534883721922,
          "durationTicks": 7,
          "midi": 44,
          "name": "G#2",
          "ticks": 7494,
          "time": 87.13953488372093,
          "velocity": 0.49606299212598426
        },
        {
          "duration": 0.04651162790698038,
          "durationTicks": 4,
          "midi": 72,
          "name": "C5",
          "ticks": 7497,
          "time": 87.17441860465117,
          "velocity": 0.16535433070866143
        },
        {
          "duration": 0.04651162790698038,
          "durationTicks": 4,
          "midi": 68,
          "name": "G#4",
          "ticks": 7498,
          "time": 87.18604651162791,
          "velocity": 0.3228346456692913
        },
        {
          "duration": 0.023255813953483084,
          "durationTicks": 2,
          "midi": 64,
          "name": "E4",
          "ticks": 7501,
          "time": 87.22093023255815,
          "velocity": 0.5984251968503937
        },
        {
          "duration": 0.10465116279068809,
          "durationTicks": 9,
          "midi": 71,
          "name": "B4",
          "ticks": 7501,
          "time": 87.22093023255815,
          "velocity": 0.4015748031496063
        },
        {
          "duration": 0.034883720930224626,
          "durationTicks": 3,
          "midi": 78,
          "name": "F#5",
          "ticks": 7501,
          "time": 87.22093023255815,
          "velocity": 0.16535433070866143
        },
        {
          "duration": 0.023255813953483084,
          "durationTicks": 2,
          "midi": 53,
          "name": "F3",
          "ticks": 7502,
          "time": 87.23255813953489,
          "velocity": 0.5748031496062992
        },
        {
          "duration": 0.034883720930224626,
          "durationTicks": 3,
          "midi": 67,
          "name": "G4",
          "ticks": 7502,
          "time": 87.23255813953489,
          "velocity": 0.3700787401574803
        },
        {
          "duration": 0.023255813953483084,
          "durationTicks": 2,
          "midi": 74,
          "name": "D5",
          "ticks": 7502,
          "time": 87.23255813953489,
          "velocity": 0.25984251968503935
        },
        {
          "duration": 0.09302325581394655,
          "durationTicks": 8,
          "midi": 40,
          "name": "E2",
          "ticks": 7503,
          "time": 87.24418604651163,
          "velocity": 0.5039370078740157
        },
        {
          "duration": 0.04651162790698038,
          "durationTicks": 4,
          "midi": 63,
          "name": "D#4",
          "ticks": 7503,
          "time": 87.24418604651163,
          "velocity": 0.6377952755905512
        },
        {
          "duration": 0.023255813953483084,
          "durationTicks": 2,
          "midi": 56,
          "name": "G#3",
          "ticks": 7504,
          "time": 87.25581395348837,
          "velocity": 0.5590551181102362
        },
        {
          "duration": 0.03488372093023884,
          "durationTicks": 3,
          "midi": 76,
          "name": "E5",
          "ticks": 7505,
          "time": 87.26744186046511,
          "velocity": 0.1732283464566929
        },
        {
          "duration": 0.011627906976755753,
          "durationTicks": 1,
          "midi": 53,
          "name": "F3",
          "ticks": 7506,
          "time": 87.27906976744185,
          "velocity": 0.5826771653543307
        },
        {
          "duration": 0.04651162790698038,
          "durationTicks": 4,
          "midi": 67,
          "name": "G4",
          "ticks": 7506,
          "time": 87.27906976744185,
          "velocity": 0.3700787401574803
        },
        {
          "duration": 0.011627906976741542,
          "durationTicks": 1,
          "midi": 56,
          "name": "G#3",
          "ticks": 7508,
          "time": 87.30232558139535,
          "velocity": 0.5826771653543307
        },
        {
          "duration": 0.023255813953483084,
          "durationTicks": 2,
          "midi": 62,
          "name": "D4",
          "ticks": 7508,
          "time": 87.30232558139535,
          "velocity": 0.5039370078740157
        },
        {
          "duration": 0.023255813953483084,
          "durationTicks": 2,
          "midi": 55,
          "name": "G3",
          "ticks": 7509,
          "time": 87.31395348837209,
          "velocity": 0.6141732283464567
        },
        {
          "duration": 0.04651162790698038,
          "durationTicks": 4,
          "midi": 73,
          "name": "C#5",
          "ticks": 7509,
          "time": 87.31395348837209,
          "velocity": 0.31496062992125984
        },
        {
          "duration": 0.04651162790698038,
          "durationTicks": 4,
          "midi": 86,
          "name": "D6",
          "ticks": 7510,
          "time": 87.32558139534883,
          "velocity": 0.23622047244094488
        },
        {
          "duration": 0.023255813953497295,
          "durationTicks": 2,
          "midi": 62,
          "name": "D4",
          "ticks": 7511,
          "time": 87.33720930232558,
          "velocity": 0.5433070866141733
        },
        {
          "duration": 0.1046511627907023,
          "durationTicks": 9,
          "midi": 68,
          "name": "G#4",
          "ticks": 7511,
          "time": 87.33720930232558,
          "velocity": 0.5748031496062992
        },
        {
          "duration": 0.011627906976741542,
          "durationTicks": 1,
          "midi": 34,
          "name": "A#1",
          "ticks": 7512,
          "time": 87.34883720930233,
          "velocity": 0.5748031496062992
        },
        {
          "duration": 0.034883720930224626,
          "durationTicks": 3,
          "midi": 50,
          "name": "D3",
          "ticks": 7512,
          "time": 87.34883720930233,
          "velocity": 0.5196850393700787
        },
        {
          "duration": 0.011627906976741542,
          "durationTicks": 1,
          "midi": 35,
          "name": "B1",
          "ticks": 7513,
          "time": 87.36046511627907,
          "velocity": 0.5748031496062992
        },
        {
          "duration": 0.15116279069766847,
          "durationTicks": 13,
          "midi": 63,
          "name": "D#4",
          "ticks": 7513,
          "time": 87.36046511627907,
          "velocity": 0.5905511811023622
        },
        {
          "duration": 0.034883720930224626,
          "durationTicks": 3,
          "midi": 72,
          "name": "C5",
          "ticks": 7513,
          "time": 87.36046511627907,
          "velocity": 0.1732283464566929
        },
        {
          "duration": 0.023255813953483084,
          "durationTicks": 2,
          "midi": 57,
          "name": "A3",
          "ticks": 7514,
          "time": 87.37209302325581,
          "velocity": 0.4409448818897638
        },
        {
          "duration": 0.05813953488372192,
          "durationTicks": 5,
          "midi": 41,
          "name": "F2",
          "ticks": 7515,
          "time": 87.38372093023256,
          "velocity": 0.6614173228346457
        },
        {
          "duration": 0.011627906976741542,
          "durationTicks": 1,
          "midi": 52,
          "name": "E3",
          "ticks": 7515,
          "time": 87.38372093023256,
          "velocity": 0.5433070866141733
        },
        {
          "duration": 0.011627906976755753,
          "durationTicks": 1,
          "midi": 54,
          "name": "F#3",
          "ticks": 7516,
          "time": 87.3953488372093,
          "velocity": 0.5354330708661418
        },
        {
          "duration": 0.011627906976741542,
          "durationTicks": 1,
          "midi": 55,
          "name": "G3",
          "ticks": 7517,
          "time": 87.40697674418605,
          "velocity": 0.5433070866141733
        },
        {
          "duration": 0.09302325581394655,
          "durationTicks": 8,
          "midi": 66,
          "name": "F#4",
          "ticks": 7517,
          "time": 87.40697674418605,
          "velocity": 0.3228346456692913
        },
        {
          "duration": 0.09302325581394655,
          "durationTicks": 8,
          "midi": 54,
          "name": "F#3",
          "ticks": 7518,
          "time": 87.4186046511628,
          "velocity": 0.5511811023622047
        },
        {
          "duration": 0.023255813953483084,
          "durationTicks": 2,
          "midi": 39,
          "name": "D#2",
          "ticks": 7520,
          "time": 87.44186046511628,
          "velocity": 0.3228346456692913
        },
        {
          "duration": 0.023255813953497295,
          "durationTicks": 2,
          "midi": 41,
          "name": "F2",
          "ticks": 7522,
          "time": 87.46511627906976,
          "velocity": 0.33858267716535434
        },
        {
          "duration": 0.034883720930224626,
          "durationTicks": 3,
          "midi": 40,
          "name": "E2",
          "ticks": 7524,
          "time": 87.48837209302326,
          "velocity": 0.18110236220472442
        },
        {
          "duration": 0.25581395348837077,
          "durationTicks": 22,
          "midi": 80,
          "name": "G#5",
          "ticks": 7531,
          "time": 87.56976744186046,
          "velocity": 0.28346456692913385
        },
        {
          "duration": 0.09302325581396076,
          "durationTicks": 8,
          "midi": 84,
          "name": "C6",
          "ticks": 7531,
          "time": 87.56976744186046,
          "velocity": 0.30708661417322836
        },
        {
          "duration": 0.15116279069768268,
          "durationTicks": 13,
          "midi": 87,
          "name": "D#6",
          "ticks": 7531,
          "time": 87.56976744186046,
          "velocity": 0.28346456692913385
        },
        {
          "duration": 0.023255813953497295,
          "durationTicks": 2,
          "midi": 48,
          "name": "C3",
          "ticks": 7532,
          "time": 87.5813953488372,
          "velocity": 0.5748031496062992
        },
        {
          "duration": 0.023255813953497295,
          "durationTicks": 2,
          "midi": 54,
          "name": "F#3",
          "ticks": 7532,
          "time": 87.5813953488372,
          "velocity": 0.49606299212598426
        },
        {
          "duration": 0.04651162790698038,
          "durationTicks": 4,
          "midi": 63,
          "name": "D#4",
          "ticks": 7532,
          "time": 87.5813953488372,
          "velocity": 0.6062992125984252
        },
        {
          "duration": 0.011627906976741542,
          "durationTicks": 1,
          "midi": 69,
          "name": "A4",
          "ticks": 7532,
          "time": 87.5813953488372,
          "velocity": 0.5748031496062992
        },
        {
          "duration": 0.03488372093023884,
          "durationTicks": 3,
          "midi": 77,
          "name": "F5",
          "ticks": 7532,
          "time": 87.5813953488372,
          "velocity": 0.28346456692913385
        },
        {
          "duration": 0.023255813953497295,
          "durationTicks": 2,
          "midi": 83,
          "name": "B5",
          "ticks": 7532,
          "time": 87.5813953488372,
          "velocity": 0.2283464566929134
        },
        {
          "duration": 0.13953488372094114,
          "durationTicks": 12,
          "midi": 68,
          "name": "G#4",
          "ticks": 7533,
          "time": 87.59302325581395,
          "velocity": 0.5905511811023622
        },
        {
          "duration": 0.13953488372094114,
          "durationTicks": 12,
          "midi": 73,
          "name": "C#5",
          "ticks": 7533,
          "time": 87.59302325581395,
          "velocity": 0.23622047244094488
        },
        {
          "duration": 0.011627906976741542,
          "durationTicks": 1,
          "midi": 50,
          "name": "D3",
          "ticks": 7534,
          "time": 87.6046511627907,
          "velocity": 0.6220472440944882
        },
        {
          "duration": 0.011627906976741542,
          "durationTicks": 1,
          "midi": 49,
          "name": "C#3",
          "ticks": 7535,
          "time": 87.61627906976744,
          "velocity": 0.5826771653543307
        },
        {
          "duration": 0.011627906976741542,
          "durationTicks": 1,
          "midi": 54,
          "name": "F#3",
          "ticks": 7535,
          "time": 87.61627906976744,
          "velocity": 0.5275590551181102
        },
        {
          "duration": 0.011627906976741542,
          "durationTicks": 1,
          "midi": 48,
          "name": "C3",
          "ticks": 7536,
          "time": 87.62790697674419,
          "velocity": 0.6062992125984252
        },
        {
          "duration": 0.011627906976741542,
          "durationTicks": 1,
          "midi": 50,
          "name": "D3",
          "ticks": 7537,
          "time": 87.63953488372093,
          "velocity": 0.5984251968503937
        },
        {
          "duration": 0.011627906976741542,
          "durationTicks": 1,
          "midi": 54,
          "name": "F#3",
          "ticks": 7537,
          "time": 87.63953488372093,
          "velocity": 0.5275590551181102
        },
        {
          "duration": 0.06976744186046346,
          "durationTicks": 6,
          "midi": 61,
          "name": "C#4",
          "ticks": 7537,
          "time": 87.63953488372093,
          "velocity": 0.5590551181102362
        },
        {
          "duration": 0.04651162790698038,
          "durationTicks": 4,
          "midi": 49,
          "name": "C#3",
          "ticks": 7538,
          "time": 87.65116279069767,
          "velocity": 0.5905511811023622
        },
        {
          "duration": 0.06976744186047767,
          "durationTicks": 6,
          "midi": 56,
          "name": "G#3",
          "ticks": 7538,
          "time": 87.65116279069767,
          "velocity": 0.5196850393700787
        },
        {
          "duration": 0.023255813953497295,
          "durationTicks": 2,
          "midi": 50,
          "name": "D3",
          "ticks": 7542,
          "time": 87.69767441860465,
          "velocity": 0.5905511811023622
        },
        {
          "duration": 0.081395348837205,
          "durationTicks": 7,
          "midi": 49,
          "name": "C#3",
          "ticks": 7544,
          "time": 87.72093023255815,
          "velocity": 0.6062992125984252
        },
        {
          "duration": 0.04651162790696617,
          "durationTicks": 4,
          "midi": 57,
          "name": "A3",
          "ticks": 7544,
          "time": 87.72093023255815,
          "velocity": 0.4330708661417323
        },
        {
          "duration": 0.1860465116279073,
          "durationTicks": 16,
          "midi": 68,
          "name": "G#4",
          "ticks": 7546,
          "time": 87.74418604651163,
          "velocity": 0.5669291338582677
        },
        {
          "duration": 0.034883720930224626,
          "durationTicks": 3,
          "midi": 50,
          "name": "D3",
          "ticks": 7551,
          "time": 87.80232558139535,
          "velocity": 0.5905511811023622
        },
        {
          "duration": 0.023255813953483084,
          "durationTicks": 2,
          "midi": 76,
          "name": "E5",
          "ticks": 7551,
          "time": 87.80232558139535,
          "velocity": 0.2677165354330709
        },
        {
          "duration": 0.023255813953483084,
          "durationTicks": 2,
          "midi": 78,
          "name": "F#5",
          "ticks": 7551,
          "time": 87.80232558139535,
          "velocity": 0.2440944881889764
        },
        {
          "duration": 0.023255813953483084,
          "durationTicks": 2,
          "midi": 86,
          "name": "D6",
          "ticks": 7551,
          "time": 87.80232558139535,
          "velocity": 0.2677165354330709
        },
        {
          "duration": 0.011627906976741542,
          "durationTicks": 1,
          "midi": 35,
          "name": "B1",
          "ticks": 7552,
          "time": 87.81395348837209,
          "velocity": 0.6062992125984252
        },
        {
          "duration": 0.13953488372092693,
          "durationTicks": 12,
          "midi": 63,
          "name": "D#4",
          "ticks": 7552,
          "time": 87.81395348837209,
          "velocity": 0.5511811023622047
        },
        {
          "duration": 0.06976744186046346,
          "durationTicks": 6,
          "midi": 74,
          "name": "D5",
          "ticks": 7552,
          "time": 87.81395348837209,
          "velocity": 0.31496062992125984
        },
        {
          "duration": 0.011627906976741542,
          "durationTicks": 1,
          "midi": 36,
          "name": "C2",
          "ticks": 7553,
          "time": 87.82558139534883,
          "velocity": 0.5669291338582677
        },
        {
          "duration": 0.011627906976741542,
          "durationTicks": 1,
          "midi": 43,
          "name": "G2",
          "ticks": 7553,
          "time": 87.82558139534883,
          "velocity": 0.5511811023622047
        },
        {
          "duration": 0.011627906976755753,
          "durationTicks": 1,
          "midi": 45,
          "name": "A2",
          "ticks": 7554,
          "time": 87.83720930232558,
          "velocity": 0.5433070866141733
        },
        {
          "duration": 0.011627906976755753,
          "durationTicks": 1,
          "midi": 52,
          "name": "E3",
          "ticks": 7554,
          "time": 87.83720930232558,
          "velocity": 0.5196850393700787
        },
        {
          "duration": 0.023255813953497295,
          "durationTicks": 2,
          "midi": 55,
          "name": "G3",
          "ticks": 7554,
          "time": 87.83720930232558,
          "velocity": 0.5275590551181102
        },
        {
          "duration": 0.011627906976741542,
          "durationTicks": 1,
          "midi": 41,
          "name": "F2",
          "ticks": 7555,
          "time": 87.84883720930233,
          "velocity": 0.6377952755905512
        },
        {
          "duration": 0.034883720930224626,
          "durationTicks": 3,
          "midi": 51,
          "name": "D#3",
          "ticks": 7555,
          "time": 87.84883720930233,
          "velocity": 0.5590551181102362
        },
        {
          "duration": 0.023255813953483084,
          "durationTicks": 2,
          "midi": 42,
          "name": "F#2",
          "ticks": 7556,
          "time": 87.86046511627907,
          "velocity": 0.6692913385826772
        },
        {
          "duration": 0.05813953488372192,
          "durationTicks": 5,
          "midi": 55,
          "name": "G3",
          "ticks": 7557,
          "time": 87.87209302325581,
          "velocity": 0.4330708661417323
        },
        {
          "duration": 0.011627906976741542,
          "durationTicks": 1,
          "midi": 41,
          "name": "F2",
          "ticks": 7558,
          "time": 87.88372093023256,
          "velocity": 0.5196850393700787
        },
        {
          "duration": 0.04651162790696617,
          "durationTicks": 4,
          "midi": 41,
          "name": "F2",
          "ticks": 7561,
          "time": 87.9186046511628,
          "velocity": 0.3228346456692913
        },
        {
          "duration": 0.09302325581396076,
          "durationTicks": 8,
          "midi": 55,
          "name": "G3",
          "ticks": 7563,
          "time": 87.94186046511628,
          "velocity": 0.15748031496062992
        },
        {
          "duration": 0.17441860465116577,
          "durationTicks": 15,
          "midi": 68,
          "name": "G#4",
          "ticks": 7570,
          "time": 88.02325581395348,
          "velocity": 0.5826771653543307
        },
        {
          "duration": 0.034883720930224626,
          "durationTicks": 3,
          "midi": 48,
          "name": "C3",
          "ticks": 7571,
          "time": 88.03488372093024,
          "velocity": 0.5590551181102362
        },
        {
          "duration": 0.11627906976742963,
          "durationTicks": 10,
          "midi": 65,
          "name": "F4",
          "ticks": 7571,
          "time": 88.03488372093024,
          "velocity": 0.6141732283464567
        },
        {
          "duration": 0.023255813953483084,
          "durationTicks": 2,
          "midi": 81,
          "name": "A5",
          "ticks": 7571,
          "time": 88.03488372093024,
          "velocity": 0.2283464566929134
        },
        {
          "duration": 0.023255813953483084,
          "durationTicks": 2,
          "midi": 82,
          "name": "A#5",
          "ticks": 7571,
          "time": 88.03488372093024,
          "velocity": 0.23622047244094488
        },
        {
          "duration": 0.023255813953483084,
          "durationTicks": 2,
          "midi": 85,
          "name": "C#6",
          "ticks": 7571,
          "time": 88.03488372093024,
          "velocity": 0.2755905511811024
        },
        {
          "duration": 0.023255813953483084,
          "durationTicks": 2,
          "midi": 86,
          "name": "D6",
          "ticks": 7571,
          "time": 88.03488372093024,
          "velocity": 0.2755905511811024
        },
        {
          "duration": 0.06976744186046346,
          "durationTicks": 6,
          "midi": 83,
          "name": "B5",
          "ticks": 7572,
          "time": 88.04651162790698,
          "velocity": 0.25196850393700787
        },
        {
          "duration": 0.011627906976741542,
          "durationTicks": 1,
          "midi": 53,
          "name": "F3",
          "ticks": 7573,
          "time": 88.05813953488372,
          "velocity": 0.5118110236220472
        },
        {
          "duration": 0.011627906976741542,
          "durationTicks": 1,
          "midi": 49,
          "name": "C#3",
          "ticks": 7574,
          "time": 88.06976744186046,
          "velocity": 0.6299212598425197
        },
        {
          "duration": 0.011627906976741542,
          "durationTicks": 1,
          "midi": 50,
          "name": "D3",
          "ticks": 7575,
          "time": 88.0813953488372,
          "velocity": 0.6456692913385826
        },
        {
          "duration": 0.03488372093023884,
          "durationTicks": 3,
          "midi": 56,
          "name": "G#3",
          "ticks": 7575,
          "time": 88.0813953488372,
          "velocity": 0.4409448818897638
        },
        {
          "duration": 0.08139534883721922,
          "durationTicks": 7,
          "midi": 61,
          "name": "C#4",
          "ticks": 7575,
          "time": 88.0813953488372,
          "velocity": 0.5826771653543307
        },
        {
          "duration": 0.011627906976755753,
          "durationTicks": 1,
          "midi": 49,
          "name": "C#3",
          "ticks": 7576,
          "time": 88.09302325581395,
          "velocity": 0.5590551181102362
        },
        {
          "duration": 0.023255813953483084,
          "durationTicks": 2,
          "midi": 50,
          "name": "D3",
          "ticks": 7578,
          "time": 88.11627906976744,
          "velocity": 0.5118110236220472
        },
        {
          "duration": 0.034883720930224626,
          "durationTicks": 3,
          "midi": 75,
          "name": "D#5",
          "ticks": 7578,
          "time": 88.11627906976744,
          "velocity": 0.16535433070866143
        },
        {
          "duration": 0.06976744186046346,
          "durationTicks": 6,
          "midi": 87,
          "name": "D#6",
          "ticks": 7578,
          "time": 88.11627906976744,
          "velocity": 0.16535433070866143
        },
        {
          "duration": 0.023255813953483084,
          "durationTicks": 2,
          "midi": 56,
          "name": "G#3",
          "ticks": 7579,
          "time": 88.12790697674419,
          "velocity": 0.44881889763779526
        },
        {
          "duration": 0.023255813953497295,
          "durationTicks": 2,
          "midi": 49,
          "name": "C#3",
          "ticks": 7580,
          "time": 88.13953488372093,
          "velocity": 0.2755905511811024
        },
        {
          "duration": 0.023255813953483084,
          "durationTicks": 2,
          "midi": 56,
          "name": "G#3",
          "ticks": 7582,
          "time": 88.16279069767442,
          "velocity": 0.4409448818897638
        },
        {
          "duration": 0.011627906976741542,
          "durationTicks": 1,
          "midi": 62,
          "name": "D4",
          "ticks": 7582,
          "time": 88.16279069767442,
          "velocity": 0.6062992125984252
        },
        {
          "duration": 0.05813953488372192,
          "durationTicks": 5,
          "midi": 75,
          "name": "D#5",
          "ticks": 7582,
          "time": 88.16279069767442,
          "velocity": 0.1732283464566929
        },
        {
          "duration": 0.16279069767441,
          "durationTicks": 14,
          "midi": 63,
          "name": "D#4",
          "ticks": 7583,
          "time": 88.17441860465117,
          "velocity": 0.5433070866141733
        },
        {
          "duration": 0.023255813953483084,
          "durationTicks": 2,
          "midi": 57,
          "name": "A3",
          "ticks": 7584,
          "time": 88.18604651162791,
          "velocity": 0.33070866141732286
        },
        {
          "duration": 0.034883720930224626,
          "durationTicks": 3,
          "midi": 49,
          "name": "C#3",
          "ticks": 7588,
          "time": 88.23255813953489,
          "velocity": 0.23622047244094488
        },
        {
          "duration": 0.023255813953483084,
          "durationTicks": 2,
          "midi": 58,
          "name": "A#3",
          "ticks": 7590,
          "time": 88.25581395348837,
          "velocity": 0.30708661417322836
        },
        {
          "duration": 0.023255813953483084,
          "durationTicks": 2,
          "midi": 69,
          "name": "A4",
          "ticks": 7590,
          "time": 88.25581395348837,
          "velocity": 0.5118110236220472
        },
        {
          "duration": 0.04651162790698038,
          "durationTicks": 4,
          "midi": 83,
          "name": "B5",
          "ticks": 7590,
          "time": 88.25581395348837,
          "velocity": 0.2125984251968504
        },
        {
          "duration": 0.03488372093023884,
          "durationTicks": 3,
          "midi": 87,
          "name": "D#6",
          "ticks": 7590,
          "time": 88.25581395348837,
          "velocity": 0.25196850393700787
        },
        {
          "duration": 0.011627906976741542,
          "durationTicks": 1,
          "midi": 36,
          "name": "C2",
          "ticks": 7591,
          "time": 88.26744186046511,
          "velocity": 0.5669291338582677
        },
        {
          "duration": 0.023255813953497295,
          "durationTicks": 2,
          "midi": 50,
          "name": "D3",
          "ticks": 7591,
          "time": 88.26744186046511,
          "velocity": 0.6456692913385826
        },
        {
          "duration": 0.023255813953497295,
          "durationTicks": 2,
          "midi": 76,
          "name": "E5",
          "ticks": 7591,
          "time": 88.26744186046511,
          "velocity": 0.2677165354330709
        },
        {
          "duration": 0.023255813953497295,
          "durationTicks": 2,
          "midi": 35,
          "name": "B1",
          "ticks": 7592,
          "time": 88.27906976744185,
          "velocity": 0.6299212598425197
        },
        {
          "duration": 0.1860465116279073,
          "durationTicks": 16,
          "midi": 68,
          "name": "G#4",
          "ticks": 7592,
          "time": 88.27906976744185,
          "velocity": 0.5669291338582677
        },
        {
          "duration": 0.05813953488372192,
          "durationTicks": 5,
          "midi": 74,
          "name": "D5",
          "ticks": 7592,
          "time": 88.27906976744185,
          "velocity": 0.2755905511811024
        },
        {
          "duration": 0.11627906976744384,
          "durationTicks": 10,
          "midi": 79,
          "name": "G5",
          "ticks": 7592,
          "time": 88.27906976744185,
          "velocity": 0.18110236220472442
        },
        {
          "duration": 0.011627906976741542,
          "durationTicks": 1,
          "midi": 44,
          "name": "G#2",
          "ticks": 7593,
          "time": 88.29069767441861,
          "velocity": 0.5275590551181102
        },
        {
          "duration": 0.17441860465115155,
          "durationTicks": 15,
          "midi": 51,
          "name": "D#3",
          "ticks": 7593,
          "time": 88.29069767441861,
          "velocity": 0.6771653543307087
        },
        {
          "duration": 0.11627906976744384,
          "durationTicks": 10,
          "midi": 82,
          "name": "A#5",
          "ticks": 7594,
          "time": 88.30232558139535,
          "velocity": 0.16535433070866143
        },
        {
          "duration": 0.11627906976744384,
          "durationTicks": 10,
          "midi": 87,
          "name": "D#6",
          "ticks": 7594,
          "time": 88.30232558139535,
          "velocity": 0.15748031496062992
        },
        {
          "duration": 0.023255813953483084,
          "durationTicks": 2,
          "midi": 42,
          "name": "F#2",
          "ticks": 7595,
          "time": 88.31395348837209,
          "velocity": 0.6377952755905512
        },
        {
          "duration": 0.023255813953497295,
          "durationTicks": 2,
          "midi": 41,
          "name": "F2",
          "ticks": 7597,
          "time": 88.33720930232558,
          "velocity": 0.5826771653543307
        },
        {
          "duration": 0.04651162790698038,
          "durationTicks": 4,
          "midi": 56,
          "name": "G#3",
          "ticks": 7599,
          "time": 88.36046511627907,
          "velocity": 0.4330708661417323
        },
        {
          "duration": 0.03488372093023884,
          "durationTicks": 3,
          "midi": 41,
          "name": "F2",
          "ticks": 7601,
          "time": 88.38372093023256,
          "velocity": 0.2755905511811024
        },
        {
          "duration": 0.023255813953483084,
          "durationTicks": 2,
          "midi": 57,
          "name": "A3",
          "ticks": 7603,
          "time": 88.40697674418605,
          "velocity": 0.36220472440944884
        },
        {
          "duration": 0.04651162790698038,
          "durationTicks": 4,
          "midi": 56,
          "name": "G#3",
          "ticks": 7605,
          "time": 88.43023255813954,
          "velocity": 0.18110236220472442
        },
        {
          "duration": 0.023255813953483084,
          "durationTicks": 2,
          "midi": 40,
          "name": "E2",
          "ticks": 7609,
          "time": 88.47674418604652,
          "velocity": 0.23622047244094488
        },
        {
          "duration": 0.034883720930224626,
          "durationTicks": 3,
          "midi": 76,
          "name": "E5",
          "ticks": 7610,
          "time": 88.48837209302326,
          "velocity": 0.29133858267716534
        },
        {
          "duration": 0.034883720930224626,
          "durationTicks": 3,
          "midi": 87,
          "name": "D#6",
          "ticks": 7610,
          "time": 88.48837209302326,
          "velocity": 0.25196850393700787
        },
        {
          "duration": 0.081395348837205,
          "durationTicks": 7,
          "midi": 63,
          "name": "D#4",
          "ticks": 7611,
          "time": 88.5,
          "velocity": 0.6062992125984252
        },
        {
          "duration": 0.011627906976741542,
          "durationTicks": 1,
          "midi": 69,
          "name": "A4",
          "ticks": 7611,
          "time": 88.5,
          "velocity": 0.5196850393700787
        },
        {
          "duration": 0.15116279069766847,
          "durationTicks": 13,
          "midi": 80,
          "name": "G#5",
          "ticks": 7611,
          "time": 88.5,
          "velocity": 0.29133858267716534
        },
        {
          "duration": 0.011627906976741542,
          "durationTicks": 1,
          "midi": 48,
          "name": "C3",
          "ticks": 7612,
          "time": 88.51162790697674,
          "velocity": 0.5511811023622047
        },
        {
          "duration": 0.11627906976744384,
          "durationTicks": 10,
          "midi": 68,
          "name": "G#4",
          "ticks": 7612,
          "time": 88.51162790697674,
          "velocity": 0.5748031496062992
        },
        {
          "duration": 0.03488372093023884,
          "durationTicks": 3,
          "midi": 77,
          "name": "F5",
          "ticks": 7612,
          "time": 88.51162790697674,
          "velocity": 0.2047244094488189
        },
        {
          "duration": 0.16279069767442422,
          "durationTicks": 14,
          "midi": 49,
          "name": "C#3",
          "ticks": 7613,
          "time": 88.52325581395348,
          "velocity": 0.5984251968503937
        },
        {
          "duration": 0.11627906976742963,
          "durationTicks": 10,
          "midi": 84,
          "name": "C6",
          "ticks": 7614,
          "time": 88.53488372093024,
          "velocity": 0.2204724409448819
        },
        {
          "duration": 0.1046511627907023,
          "durationTicks": 9,
          "midi": 72,
          "name": "C5",
          "ticks": 7616,
          "time": 88.55813953488372,
          "velocity": 0.2047244094488189
        }
      ],
      "endOfTrackTicks": 7627
    }
  ]
}
