{
  "header": {
    "keySignatures": [],
    "meta": [],
    "name": "",
    "ppq": 384,
    "tempos": [
      {
        "bpm": 130.00013000013,
        "ticks": 0
      }
    ],
    "timeSignatures": [
      {
        "ticks": 0,
        "timeSignature": [
          1,
          4
        ],
        "measures": 0
      }
    ]
  },
  "tracks": [
    {
      "channel": 0,
      "controlChanges": {},
      "pitchBends": [],
      "instrument": {
        "family": "piano",
        "number": 0,
        "name": "acoustic grand piano"
      },
      "name": "Elec. Piano (Classic)",
      "notes": [
        {
          "duration": 0.11538449999999999,
          "durationTicks": 96,
          "midi": 66,
          "name": "F#4",
          "ticks": 0,
          "time": 0,
          "velocity": 0.4094488188976378
        },
        {
          "duration": 0.11538449999999999,
          "durationTicks": 96,
          "midi": 64,
          "name": "E4",
          "ticks": 96,
          "time": 0.11538449999999999,
          "velocity": 0.4094488188976378
        },
        {
          "duration": 0.11538449999999997,
          "durationTicks": 96,
          "midi": 61,
          "name": "C#4",
          "ticks": 192,
          "time": 0.23076899999999997,
          "velocity": 0.4094488188976378
        },
        {
          "duration": 0.1153845,
          "durationTicks": 96,
          "midi": 59,
          "name": "B3",
          "ticks": 288,
          "time": 0.34615349999999995,
          "velocity": 0.4094488188976378
        },
        {
          "duration": 0.11538449999999995,
          "durationTicks": 96,
          "midi": 58,
          "name": "A#3",
          "ticks": 384,
          "time": 0.46153799999999995,
          "velocity": 0.4094488188976378
        },
        {
          "duration": 0.1153845,
          "durationTicks": 96,
          "midi": 51,
          "name": "D#3",
          "ticks": 576,
          "time": 0.6923069999999999,
          "velocity": 0.4094488188976378
        },
        {
          "duration": 0.11538449999999989,
          "durationTicks": 96,
          "midi": 51,
          "name": "D#3",
          "ticks": 768,
          "time": 0.9230759999999999,
          "velocity": 0.4094488188976378
        },
        {
          "duration": 0.1153845,
          "durationTicks": 96,
          "midi": 51,
          "name": "D#3",
          "ticks": 960,
          "time": 1.1538449999999998,
          "velocity": 0.4094488188976378
        },
        {
          "duration": 0.1153845,
          "durationTicks": 96,
          "midi": 51,
          "name": "D#3",
          "ticks": 1056,
          "time": 1.2692294999999998,
          "velocity": 0.4094488188976378
        },
        {
          "duration": 0.230769,
          "durationTicks": 192,
          "midi": 63,
          "name": "D#4",
          "ticks": 1344,
          "time": 1.6153829999999998,
          "velocity": 0.4094488188976378
        },
        {
          "duration": 0.1153845,
          "durationTicks": 96,
          "midi": 59,
          "name": "B3",
          "ticks": 1536,
          "time": 1.8461519999999998,
          "velocity": 0.4094488188976378
        },
        {
          "duration": 0.11538449999999978,
          "durationTicks": 96,
          "midi": 61,
          "name": "C#4",
          "ticks": 1632,
          "time": 1.9615364999999998,
          "velocity": 0.4094488188976378
        },
        {
          "duration": 0.11538450000000022,
          "durationTicks": 96,
          "midi": 62,
          "name": "D4",
          "ticks": 1728,
          "time": 2.0769209999999996,
          "velocity": 0.4094488188976378
        },
        {
          "duration": 0.11538449999999978,
          "durationTicks": 96,
          "midi": 63,
          "name": "D#4",
          "ticks": 1824,
          "time": 2.1923055,
          "velocity": 0.4094488188976378
        },
        {
          "duration": 0.11538450000000022,
          "durationTicks": 96,
          "midi": 66,
          "name": "F#4",
          "ticks": 1920,
          "time": 2.3076899999999996,
          "velocity": 0.4094488188976378
        },
        {
          "duration": 0.11538450000000022,
          "durationTicks": 96,
          "midi": 51,
          "name": "D#3",
          "ticks": 2112,
          "time": 2.5384589999999996,
          "velocity": 0.4094488188976378
        },
        {
          "duration": 0.11538450000000022,
          "durationTicks": 96,
          "midi": 51,
          "name": "D#3",
          "ticks": 2304,
          "time": 2.7692279999999996,
          "velocity": 0.4094488188976378
        },
        {
          "duration": 0.11538450000000022,
          "durationTicks": 96,
          "midi": 51,
          "name": "D#3",
          "ticks": 2496,
          "time": 2.9999969999999996,
          "velocity": 0.4094488188976378
        },
        {
          "duration": 0.11538449999999978,
          "durationTicks": 96,
          "midi": 51,
          "name": "D#3",
          "ticks": 2592,
          "time": 3.1153815,
          "velocity": 0.4094488188976378
        },
        {
          "duration": 0.230769,
          "durationTicks": 192,
          "midi": 61,
          "name": "C#4",
          "ticks": 2880,
          "time": 3.4615349999999996,
          "velocity": 0.4094488188976378
        },
        {
          "duration": 0.11538449999999978,
          "durationTicks": 96,
          "midi": 63,
          "name": "D#4",
          "ticks": 3072,
          "time": 3.6923039999999996,
          "velocity": 0.4094488188976378
        },
        {
          "duration": 0.11538450000000022,
          "durationTicks": 96,
          "midi": 61,
          "name": "C#4",
          "ticks": 3168,
          "time": 3.8076884999999994,
          "velocity": 0.4094488188976378
        },
        {
          "duration": 0.11538450000000022,
          "durationTicks": 96,
          "midi": 58,
          "name": "A#3",
          "ticks": 3264,
          "time": 3.9230729999999996,
          "velocity": 0.4094488188976378
        },
        {
          "duration": 0.11538449999999933,
          "durationTicks": 96,
          "midi": 56,
          "name": "G#3",
          "ticks": 3360,
          "time": 4.0384575,
          "velocity": 0.4094488188976378
        },
        {
          "duration": 0.11538450000000022,
          "durationTicks": 96,
          "midi": 51,
          "name": "D#3",
          "ticks": 3648,
          "time": 4.384611,
          "velocity": 0.4094488188976378
        },
        {
          "duration": 0.11538450000000022,
          "durationTicks": 96,
          "midi": 51,
          "name": "D#3",
          "ticks": 3840,
          "time": 4.615379999999999,
          "velocity": 0.4094488188976378
        },
        {
          "duration": 0.11538450000000022,
          "durationTicks": 96,
          "midi": 51,
          "name": "D#3",
          "ticks": 4032,
          "time": 4.846149,
          "velocity": 0.4094488188976378
        },
        {
          "duration": 0.11538449999999933,
          "durationTicks": 96,
          "midi": 51,
          "name": "D#3",
          "ticks": 4128,
          "time": 4.9615335,
          "velocity": 0.4094488188976378
        },
        {
          "duration": 0.23076899999999956,
          "durationTicks": 192,
          "midi": 58,
          "name": "A#3",
          "ticks": 4416,
          "time": 5.307687,
          "velocity": 0.4094488188976378
        },
        {
          "duration": 0.11538450000000022,
          "durationTicks": 96,
          "midi": 61,
          "name": "C#4",
          "ticks": 4608,
          "time": 5.538455999999999,
          "velocity": 0.4094488188976378
        },
        {
          "duration": 0.11538450000000022,
          "durationTicks": 96,
          "midi": 59,
          "name": "B3",
          "ticks": 4704,
          "time": 5.653840499999999,
          "velocity": 0.4094488188976378
        },
        {
          "duration": 0.11538449999999933,
          "durationTicks": 96,
          "midi": 56,
          "name": "G#3",
          "ticks": 4800,
          "time": 5.769225,
          "velocity": 0.4094488188976378
        },
        {
          "duration": 0.11538450000000022,
          "durationTicks": 96,
          "midi": 55,
          "name": "G3",
          "ticks": 4896,
          "time": 5.884609499999999,
          "velocity": 0.4094488188976378
        },
        {
          "duration": 0.11538450000000022,
          "durationTicks": 96,
          "midi": 54,
          "name": "F#3",
          "ticks": 4992,
          "time": 5.999993999999999,
          "velocity": 0.4094488188976378
        },
        {
          "duration": 0.11538449999999933,
          "durationTicks": 96,
          "midi": 49,
          "name": "C#3",
          "ticks": 5184,
          "time": 6.230763,
          "velocity": 0.4094488188976378
        },
        {
          "duration": 0.11538450000000022,
          "durationTicks": 96,
          "midi": 49,
          "name": "C#3",
          "ticks": 5280,
          "time": 6.346147499999999,
          "velocity": 0.4094488188976378
        },
        {
          "duration": 0.11538449999999933,
          "durationTicks": 96,
          "midi": 52,
          "name": "E3",
          "ticks": 5568,
          "time": 6.692301,
          "velocity": 0.4094488188976378
        },
        {
          "duration": 0.11538450000000022,
          "durationTicks": 96,
          "midi": 51,
          "name": "D#3",
          "ticks": 5760,
          "time": 6.923069999999999,
          "velocity": 0.4094488188976378
        },
        {
          "duration": 0.11538449999999933,
          "durationTicks": 96,
          "midi": 49,
          "name": "C#3",
          "ticks": 5952,
          "time": 7.153839,
          "velocity": 0.4094488188976378
        },
        {
          "duration": 0.11538450000000022,
          "durationTicks": 96,
          "midi": 66,
          "name": "F#4",
          "ticks": 6144,
          "time": 7.384607999999999,
          "velocity": 0.4094488188976378
        },
        {
          "duration": 0.11538450000000022,
          "durationTicks": 96,
          "midi": 51,
          "name": "D#3",
          "ticks": 6144,
          "time": 7.384607999999999,
          "velocity": 0.4094488188976378
        },
        {
          "duration": 0.11538449999999933,
          "durationTicks": 96,
          "midi": 48,
          "name": "C3",
          "ticks": 6240,
          "time": 7.499992499999999,
          "velocity": 0.4094488188976378
        },
        {
          "duration": 0.11538449999999933,
          "durationTicks": 96,
          "midi": 64,
          "name": "E4",
          "ticks": 6240,
          "time": 7.499992499999999,
          "velocity": 0.4094488188976378
        },
        {
          "duration": 0.11538450000000022,
          "durationTicks": 96,
          "midi": 61,
          "name": "C#4",
          "ticks": 6336,
          "time": 7.615376999999999,
          "velocity": 0.4094488188976378
        },
        {
          "duration": 0.11538450000000022,
          "durationTicks": 96,
          "midi": 46,
          "name": "A#2",
          "ticks": 6336,
          "time": 7.615376999999999,
          "velocity": 0.4094488188976378
        },
        {
          "duration": 0.11538450000000022,
          "durationTicks": 96,
          "midi": 59,
          "name": "B3",
          "ticks": 6432,
          "time": 7.730761499999999,
          "velocity": 0.4094488188976378
        },
        {
          "duration": 0.11538450000000022,
          "durationTicks": 96,
          "midi": 43,
          "name": "G2",
          "ticks": 6432,
          "time": 7.730761499999999,
          "velocity": 0.4094488188976378
        },
        {
          "duration": 0.11538450000000022,
          "durationTicks": 96,
          "midi": 42,
          "name": "F#2",
          "ticks": 6528,
          "time": 7.846145999999999,
          "velocity": 0.4094488188976378
        },
        {
          "duration": 0.11538450000000022,
          "durationTicks": 96,
          "midi": 58,
          "name": "A#3",
          "ticks": 6528,
          "time": 7.846145999999999,
          "velocity": 0.4094488188976378
        },
        {
          "duration": 0.11538449999999933,
          "durationTicks": 96,
          "midi": 51,
          "name": "D#3",
          "ticks": 6720,
          "time": 8.076915,
          "velocity": 0.4094488188976378
        },
        {
          "duration": 0.11538450000000111,
          "durationTicks": 96,
          "midi": 51,
          "name": "D#3",
          "ticks": 6912,
          "time": 8.307683999999998,
          "velocity": 0.4094488188976378
        },
        {
          "duration": 0.11538450000000111,
          "durationTicks": 96,
          "midi": 51,
          "name": "D#3",
          "ticks": 7104,
          "time": 8.538452999999999,
          "velocity": 0.4094488188976378
        },
        {
          "duration": 0.11538449999999933,
          "durationTicks": 96,
          "midi": 51,
          "name": "D#3",
          "ticks": 7200,
          "time": 8.6538375,
          "velocity": 0.4094488188976378
        },
        {
          "duration": 0.23076899999999867,
          "durationTicks": 192,
          "midi": 63,
          "name": "D#4",
          "ticks": 7488,
          "time": 8.999991,
          "velocity": 0.4094488188976378
        },
        {
          "duration": 0.11538450000000111,
          "durationTicks": 96,
          "midi": 52,
          "name": "E3",
          "ticks": 7680,
          "time": 9.230759999999998,
          "velocity": 0.4094488188976378
        },
        {
          "duration": 0.11538450000000111,
          "durationTicks": 96,
          "midi": 59,
          "name": "B3",
          "ticks": 7680,
          "time": 9.230759999999998,
          "velocity": 0.4094488188976378
        },
        {
          "duration": 0.11538449999999933,
          "durationTicks": 96,
          "midi": 61,
          "name": "C#4",
          "ticks": 7776,
          "time": 9.3461445,
          "velocity": 0.4094488188976378
        },
        {
          "duration": 0.11538449999999933,
          "durationTicks": 96,
          "midi": 49,
          "name": "C#3",
          "ticks": 7776,
          "time": 9.3461445,
          "velocity": 0.4094488188976378
        },
        {
          "duration": 0.11538449999999933,
          "durationTicks": 96,
          "midi": 62,
          "name": "D4",
          "ticks": 7872,
          "time": 9.461528999999999,
          "velocity": 0.4094488188976378
        },
        {
          "duration": 0.11538449999999933,
          "durationTicks": 96,
          "midi": 47,
          "name": "B2",
          "ticks": 7872,
          "time": 9.461528999999999,
          "velocity": 0.4094488188976378
        },
        {
          "duration": 0.11538450000000111,
          "durationTicks": 96,
          "midi": 44,
          "name": "G#2",
          "ticks": 7968,
          "time": 9.576913499999998,
          "velocity": 0.4094488188976378
        },
        {
          "duration": 0.11538450000000111,
          "durationTicks": 96,
          "midi": 63,
          "name": "D#4",
          "ticks": 7968,
          "time": 9.576913499999998,
          "velocity": 0.4094488188976378
        },
        {
          "duration": 0.11538449999999933,
          "durationTicks": 96,
          "midi": 43,
          "name": "G2",
          "ticks": 8064,
          "time": 9.692298,
          "velocity": 0.4094488188976378
        },
        {
          "duration": 0.11538449999999933,
          "durationTicks": 96,
          "midi": 66,
          "name": "F#4",
          "ticks": 8064,
          "time": 9.692298,
          "velocity": 0.4094488188976378
        },
        {
          "duration": 0.11538449999999933,
          "durationTicks": 96,
          "midi": 51,
          "name": "D#3",
          "ticks": 8256,
          "time": 9.923067,
          "velocity": 0.4094488188976378
        },
        {
          "duration": 0.11538450000000111,
          "durationTicks": 96,
          "midi": 51,
          "name": "D#3",
          "ticks": 8448,
          "time": 10.153835999999998,
          "velocity": 0.4094488188976378
        },
        {
          "duration": 0.11538449999999933,
          "durationTicks": 96,
          "midi": 51,
          "name": "D#3",
          "ticks": 8640,
          "time": 10.384604999999999,
          "velocity": 0.4094488188976378
        },
        {
          "duration": 0.11538450000000111,
          "durationTicks": 96,
          "midi": 51,
          "name": "D#3",
          "ticks": 8736,
          "time": 10.499989499999998,
          "velocity": 0.4094488188976378
        },
        {
          "duration": 0.23076899999999867,
          "durationTicks": 192,
          "midi": 61,
          "name": "C#4",
          "ticks": 9024,
          "time": 10.846143,
          "velocity": 0.4094488188976378
        },
        {
          "duration": 0.11538450000000111,
          "durationTicks": 96,
          "midi": 63,
          "name": "D#4",
          "ticks": 9216,
          "time": 11.076911999999998,
          "velocity": 0.4094488188976378
        },
        {
          "duration": 0.11538450000000111,
          "durationTicks": 96,
          "midi": 52,
          "name": "E3",
          "ticks": 9216,
          "time": 11.076911999999998,
          "velocity": 0.4094488188976378
        },
        {
          "duration": 0.11538449999999933,
          "durationTicks": 96,
          "midi": 49,
          "name": "C#3",
          "ticks": 9312,
          "time": 11.1922965,
          "velocity": 0.4094488188976378
        },
        {
          "duration": 0.11538449999999933,
          "durationTicks": 96,
          "midi": 61,
          "name": "C#4",
          "ticks": 9312,
          "time": 11.1922965,
          "velocity": 0.4094488188976378
        },
        {
          "duration": 0.11538449999999933,
          "durationTicks": 96,
          "midi": 46,
          "name": "A#2",
          "ticks": 9408,
          "time": 11.307680999999999,
          "velocity": 0.4094488188976378
        },
        {
          "duration": 0.11538449999999933,
          "durationTicks": 96,
          "midi": 58,
          "name": "A#3",
          "ticks": 9408,
          "time": 11.307680999999999,
          "velocity": 0.4094488188976378
        },
        {
          "duration": 0.11538450000000111,
          "durationTicks": 96,
          "midi": 56,
          "name": "G#3",
          "ticks": 9504,
          "time": 11.423065499999998,
          "velocity": 0.4094488188976378
        },
        {
          "duration": 0.11538450000000111,
          "durationTicks": 96,
          "midi": 44,
          "name": "G#2",
          "ticks": 9504,
          "time": 11.423065499999998,
          "velocity": 0.4094488188976378
        },
        {
          "duration": 0.11538450000000111,
          "durationTicks": 96,
          "midi": 51,
          "name": "D#3",
          "ticks": 9792,
          "time": 11.769218999999998,
          "velocity": 0.4094488188976378
        },
        {
          "duration": 0.11538450000000111,
          "durationTicks": 96,
          "midi": 51,
          "name": "D#3",
          "ticks": 9984,
          "time": 11.999987999999998,
          "velocity": 0.4094488188976378
        },
        {
          "duration": 0.11538449999999933,
          "durationTicks": 96,
          "midi": 51,
          "name": "D#3",
          "ticks": 10176,
          "time": 12.230756999999999,
          "velocity": 0.4094488188976378
        },
        {
          "duration": 0.11538450000000111,
          "durationTicks": 96,
          "midi": 51,
          "name": "D#3",
          "ticks": 10272,
          "time": 12.346141499999998,
          "velocity": 0.4094488188976378
        },
        {
          "duration": 0.23076900000000045,
          "durationTicks": 192,
          "midi": 58,
          "name": "A#3",
          "ticks": 10560,
          "time": 12.692294999999998,
          "velocity": 0.4094488188976378
        },
        {
          "duration": 0.11538449999999933,
          "durationTicks": 96,
          "midi": 61,
          "name": "C#4",
          "ticks": 10752,
          "time": 12.923063999999998,
          "velocity": 0.4094488188976378
        },
        {
          "duration": 0.11538449999999933,
          "durationTicks": 96,
          "midi": 51,
          "name": "D#3",
          "ticks": 10752,
          "time": 12.923063999999998,
          "velocity": 0.4094488188976378
        },
        {
          "duration": 0.11538450000000111,
          "durationTicks": 96,
          "midi": 59,
          "name": "B3",
          "ticks": 10848,
          "time": 13.038448499999998,
          "velocity": 0.4094488188976378
        },
        {
          "duration": 0.11538450000000111,
          "durationTicks": 96,
          "midi": 47,
          "name": "B2",
          "ticks": 10848,
          "time": 13.038448499999998,
          "velocity": 0.4094488188976378
        },
        {
          "duration": 0.11538449999999933,
          "durationTicks": 96,
          "midi": 44,
          "name": "G#2",
          "ticks": 10944,
          "time": 13.153832999999999,
          "velocity": 0.4094488188976378
        },
        {
          "duration": 0.11538449999999933,
          "durationTicks": 96,
          "midi": 56,
          "name": "G#3",
          "ticks": 10944,
          "time": 13.153832999999999,
          "velocity": 0.4094488188976378
        },
        {
          "duration": 0.11538450000000111,
          "durationTicks": 96,
          "midi": 55,
          "name": "G3",
          "ticks": 11040,
          "time": 13.269217499999998,
          "velocity": 0.4094488188976378
        },
        {
          "duration": 0.11538449999999933,
          "durationTicks": 96,
          "midi": 54,
          "name": "F#3",
          "ticks": 11136,
          "time": 13.384602,
          "velocity": 0.4094488188976378
        },
        {
          "duration": 0.11538450000000111,
          "durationTicks": 96,
          "midi": 49,
          "name": "C#3",
          "ticks": 11328,
          "time": 13.615370999999998,
          "velocity": 0.4094488188976378
        },
        {
          "duration": 0.11538449999999933,
          "durationTicks": 96,
          "midi": 49,
          "name": "C#3",
          "ticks": 11424,
          "time": 13.730755499999999,
          "velocity": 0.4094488188976378
        },
        {
          "duration": 0.11538449999999933,
          "durationTicks": 96,
          "midi": 52,
          "name": "E3",
          "ticks": 11712,
          "time": 14.076908999999999,
          "velocity": 0.4094488188976378
        },
        {
          "duration": 0.11538449999999933,
          "durationTicks": 96,
          "midi": 51,
          "name": "D#3",
          "ticks": 11904,
          "time": 14.307678,
          "velocity": 0.4094488188976378
        },
        {
          "duration": 0.11538450000000111,
          "durationTicks": 96,
          "midi": 49,
          "name": "C#3",
          "ticks": 12096,
          "time": 14.538446999999998,
          "velocity": 0.4094488188976378
        },
        {
          "duration": 0.11538449999999933,
          "durationTicks": 96,
          "midi": 66,
          "name": "F#4",
          "ticks": 12288,
          "time": 14.769215999999998,
          "velocity": 0.4094488188976378
        },
        {
          "duration": 0.11538449999999933,
          "durationTicks": 96,
          "midi": 70,
          "name": "A#4",
          "ticks": 12288,
          "time": 14.769215999999998,
          "velocity": 0.4094488188976378
        },
        {
          "duration": 0.11538450000000111,
          "durationTicks": 96,
          "midi": 64,
          "name": "E4",
          "ticks": 12384,
          "time": 14.884600499999998,
          "velocity": 0.4094488188976378
        },
        {
          "duration": 0.11538449999999933,
          "durationTicks": 96,
          "midi": 61,
          "name": "C#4",
          "ticks": 12480,
          "time": 14.999984999999999,
          "velocity": 0.4094488188976378
        },
        {
          "duration": 0.11538449999999933,
          "durationTicks": 96,
          "midi": 70,
          "name": "A#4",
          "ticks": 12576,
          "time": 15.115369499999998,
          "velocity": 0.4094488188976378
        },
        {
          "duration": 0.11538449999999933,
          "durationTicks": 96,
          "midi": 59,
          "name": "B3",
          "ticks": 12576,
          "time": 15.115369499999998,
          "velocity": 0.4094488188976378
        },
        {
          "duration": 0.11538450000000111,
          "durationTicks": 96,
          "midi": 58,
          "name": "A#3",
          "ticks": 12672,
          "time": 15.230753999999997,
          "velocity": 0.4094488188976378
        },
        {
          "duration": 0.23076900000000045,
          "durationTicks": 192,
          "midi": 70,
          "name": "A#4",
          "ticks": 12864,
          "time": 15.461522999999998,
          "velocity": 0.4094488188976378
        },
        {
          "duration": 0.23076900000000045,
          "durationTicks": 192,
          "midi": 70,
          "name": "A#4",
          "ticks": 13248,
          "time": 15.923060999999999,
          "velocity": 0.4094488188976378
        },
        {
          "duration": 0.23076899999999867,
          "durationTicks": 192,
          "midi": 66,
          "name": "F#4",
          "ticks": 13440,
          "time": 16.15383,
          "velocity": 0.4094488188976378
        },
        {
          "duration": 0.23076899999999867,
          "durationTicks": 192,
          "midi": 63,
          "name": "D#4",
          "ticks": 13632,
          "time": 16.384598999999998,
          "velocity": 0.4094488188976378
        },
        {
          "duration": 0.11538450000000111,
          "durationTicks": 96,
          "midi": 59,
          "name": "B3",
          "ticks": 13824,
          "time": 16.615367999999997,
          "velocity": 0.4094488188976378
        },
        {
          "duration": 0.11538450000000111,
          "durationTicks": 96,
          "midi": 71,
          "name": "B4",
          "ticks": 13824,
          "time": 16.615367999999997,
          "velocity": 0.4094488188976378
        },
        {
          "duration": 0.11538450000000111,
          "durationTicks": 96,
          "midi": 66,
          "name": "F#4",
          "ticks": 13824,
          "time": 16.615367999999997,
          "velocity": 0.4094488188976378
        },
        {
          "duration": 0.11538450000000111,
          "durationTicks": 96,
          "midi": 61,
          "name": "C#4",
          "ticks": 13920,
          "time": 16.730752499999998,
          "velocity": 0.4094488188976378
        },
        {
          "duration": 0.11538449999999756,
          "durationTicks": 96,
          "midi": 62,
          "name": "D4",
          "ticks": 14016,
          "time": 16.846137,
          "velocity": 0.4094488188976378
        },
        {
          "duration": 0.11538450000000111,
          "durationTicks": 96,
          "midi": 71,
          "name": "B4",
          "ticks": 14112,
          "time": 16.961521499999996,
          "velocity": 0.4094488188976378
        },
        {
          "duration": 0.11538450000000111,
          "durationTicks": 96,
          "midi": 66,
          "name": "F#4",
          "ticks": 14112,
          "time": 16.961521499999996,
          "velocity": 0.4094488188976378
        },
        {
          "duration": 0.11538450000000111,
          "durationTicks": 96,
          "midi": 63,
          "name": "D#4",
          "ticks": 14112,
          "time": 16.961521499999996,
          "velocity": 0.4094488188976378
        },
        {
          "duration": 0.11538450000000111,
          "durationTicks": 96,
          "midi": 66,
          "name": "F#4",
          "ticks": 14208,
          "time": 17.076905999999997,
          "velocity": 0.4094488188976378
        },
        {
          "duration": 0.23076899999999867,
          "durationTicks": 192,
          "midi": 66,
          "name": "F#4",
          "ticks": 14400,
          "time": 17.307675,
          "velocity": 0.4094488188976378
        },
        {
          "duration": 0.23076899999999867,
          "durationTicks": 192,
          "midi": 71,
          "name": "B4",
          "ticks": 14400,
          "time": 17.307675,
          "velocity": 0.4094488188976378
        },
        {
          "duration": 0.11538450000000111,
          "durationTicks": 96,
          "midi": 66,
          "name": "F#4",
          "ticks": 14784,
          "time": 17.769212999999997,
          "velocity": 0.4094488188976378
        },
        {
          "duration": 0.11538450000000111,
          "durationTicks": 96,
          "midi": 71,
          "name": "B4",
          "ticks": 14784,
          "time": 17.769212999999997,
          "velocity": 0.4094488188976378
        },
        {
          "duration": 0.11538449999999756,
          "durationTicks": 96,
          "midi": 68,
          "name": "G#4",
          "ticks": 14976,
          "time": 17.999982,
          "velocity": 0.4094488188976378
        },
        {
          "duration": 0.11538449999999756,
          "durationTicks": 96,
          "midi": 63,
          "name": "D#4",
          "ticks": 14976,
          "time": 17.999982,
          "velocity": 0.4094488188976378
        },
        {
          "duration": 0.23076899999999867,
          "durationTicks": 192,
          "midi": 61,
          "name": "C#4",
          "ticks": 15168,
          "time": 18.230750999999998,
          "velocity": 0.4094488188976378
        },
        {
          "duration": 0.11538450000000111,
          "durationTicks": 96,
          "midi": 70,
          "name": "A#4",
          "ticks": 15360,
          "time": 18.461519999999997,
          "velocity": 0.4094488188976378
        },
        {
          "duration": 0.11538450000000111,
          "durationTicks": 96,
          "midi": 65,
          "name": "F4",
          "ticks": 15360,
          "time": 18.461519999999997,
          "velocity": 0.4094488188976378
        },
        {
          "duration": 0.11538450000000111,
          "durationTicks": 96,
          "midi": 58,
          "name": "A#3",
          "ticks": 15360,
          "time": 18.461519999999997,
          "velocity": 0.4094488188976378
        },
        {
          "duration": 0.11538450000000111,
          "durationTicks": 96,
          "midi": 63,
          "name": "D#4",
          "ticks": 15360,
          "time": 18.461519999999997,
          "velocity": 0.4094488188976378
        },
        {
          "duration": 0.11538450000000111,
          "durationTicks": 96,
          "midi": 61,
          "name": "C#4",
          "ticks": 15456,
          "time": 18.576904499999998,
          "velocity": 0.4094488188976378
        },
        {
          "duration": 0.11538449999999756,
          "durationTicks": 96,
          "midi": 58,
          "name": "A#3",
          "ticks": 15552,
          "time": 18.692289,
          "velocity": 0.4094488188976378
        },
        {
          "duration": 0.11538450000000111,
          "durationTicks": 96,
          "midi": 65,
          "name": "F4",
          "ticks": 15648,
          "time": 18.807673499999996,
          "velocity": 0.4094488188976378
        },
        {
          "duration": 0.11538450000000111,
          "durationTicks": 96,
          "midi": 56,
          "name": "G#3",
          "ticks": 15648,
          "time": 18.807673499999996,
          "velocity": 0.4094488188976378
        },
        {
          "duration": 0.11538450000000111,
          "durationTicks": 96,
          "midi": 70,
          "name": "A#4",
          "ticks": 15648,
          "time": 18.807673499999996,
          "velocity": 0.4094488188976378
        },
        {
          "duration": 0.23076900000000222,
          "durationTicks": 192,
          "midi": 65,
          "name": "F4",
          "ticks": 15936,
          "time": 19.153826999999996,
          "velocity": 0.4094488188976378
        },
        {
          "duration": 0.23076900000000222,
          "durationTicks": 192,
          "midi": 70,
          "name": "A#4",
          "ticks": 15936,
          "time": 19.153826999999996,
          "velocity": 0.4094488188976378
        },
        {
          "duration": 0.11538450000000111,
          "durationTicks": 96,
          "midi": 71,
          "name": "B4",
          "ticks": 16320,
          "time": 19.615364999999997,
          "velocity": 0.4094488188976378
        },
        {
          "duration": 0.11538450000000111,
          "durationTicks": 96,
          "midi": 65,
          "name": "F4",
          "ticks": 16320,
          "time": 19.615364999999997,
          "velocity": 0.4094488188976378
        },
        {
          "duration": 0.23076899999999867,
          "durationTicks": 192,
          "midi": 49,
          "name": "C#3",
          "ticks": 16512,
          "time": 19.846134,
          "velocity": 0.4094488188976378
        },
        {
          "duration": 0.11538450000000111,
          "durationTicks": 96,
          "midi": 65,
          "name": "F4",
          "ticks": 16704,
          "time": 20.076902999999998,
          "velocity": 0.4094488188976378
        },
        {
          "duration": 0.11538450000000111,
          "durationTicks": 96,
          "midi": 53,
          "name": "F3",
          "ticks": 16704,
          "time": 20.076902999999998,
          "velocity": 0.4094488188976378
        },
        {
          "duration": 0.11538450000000111,
          "durationTicks": 96,
          "midi": 73,
          "name": "C#5",
          "ticks": 16896,
          "time": 20.307671999999997,
          "velocity": 0.4094488188976378
        },
        {
          "duration": 0.11538450000000111,
          "durationTicks": 96,
          "midi": 68,
          "name": "G#4",
          "ticks": 16896,
          "time": 20.307671999999997,
          "velocity": 0.4094488188976378
        },
        {
          "duration": 0.11538450000000111,
          "durationTicks": 96,
          "midi": 61,
          "name": "C#4",
          "ticks": 16896,
          "time": 20.307671999999997,
          "velocity": 0.4094488188976378
        },
        {
          "duration": 0.11538450000000111,
          "durationTicks": 96,
          "midi": 59,
          "name": "B3",
          "ticks": 16992,
          "time": 20.423056499999998,
          "velocity": 0.4094488188976378
        },
        {
          "duration": 0.11538449999999756,
          "durationTicks": 96,
          "midi": 56,
          "name": "G#3",
          "ticks": 17088,
          "time": 20.538441,
          "velocity": 0.4094488188976378
        },
        {
          "duration": 0.11538450000000111,
          "durationTicks": 96,
          "midi": 68,
          "name": "G#4",
          "ticks": 17184,
          "time": 20.653825499999996,
          "velocity": 0.4094488188976378
        },
        {
          "duration": 0.11538450000000111,
          "durationTicks": 96,
          "midi": 73,
          "name": "C#5",
          "ticks": 17184,
          "time": 20.653825499999996,
          "velocity": 0.4094488188976378
        },
        {
          "duration": 0.11538450000000111,
          "durationTicks": 96,
          "midi": 55,
          "name": "G3",
          "ticks": 17184,
          "time": 20.653825499999996,
          "velocity": 0.4094488188976378
        },
        {
          "duration": 0.11538450000000111,
          "durationTicks": 96,
          "midi": 54,
          "name": "F#3",
          "ticks": 17280,
          "time": 20.769209999999998,
          "velocity": 0.4094488188976378
        },
        {
          "duration": 0.11538450000000111,
          "durationTicks": 96,
          "midi": 61,
          "name": "C#4",
          "ticks": 17472,
          "time": 20.999978999999996,
          "velocity": 0.4094488188976378
        },
        {
          "duration": 0.11538450000000111,
          "durationTicks": 96,
          "midi": 53,
          "name": "F3",
          "ticks": 17472,
          "time": 20.999978999999996,
          "velocity": 0.4094488188976378
        },
        {
          "duration": 0.11538450000000111,
          "durationTicks": 96,
          "midi": 49,
          "name": "C#3",
          "ticks": 17472,
          "time": 20.999978999999996,
          "velocity": 0.4094488188976378
        },
        {
          "duration": 0.11538450000000111,
          "durationTicks": 96,
          "midi": 49,
          "name": "C#3",
          "ticks": 17568,
          "time": 21.115363499999997,
          "velocity": 0.4094488188976378
        },
        {
          "duration": 0.11538450000000111,
          "durationTicks": 96,
          "midi": 68,
          "name": "G#4",
          "ticks": 17856,
          "time": 21.461516999999997,
          "velocity": 0.4094488188976378
        },
        {
          "duration": 0.11538450000000111,
          "durationTicks": 96,
          "midi": 52,
          "name": "E3",
          "ticks": 17856,
          "time": 21.461516999999997,
          "velocity": 0.4094488188976378
        },
        {
          "duration": 0.11538450000000111,
          "durationTicks": 96,
          "midi": 56,
          "name": "G#3",
          "ticks": 17856,
          "time": 21.461516999999997,
          "velocity": 0.4094488188976378
        },
        {
          "duration": 0.11538449999999756,
          "durationTicks": 96,
          "midi": 63,
          "name": "D#4",
          "ticks": 18048,
          "time": 21.692286,
          "velocity": 0.4094488188976378
        },
        {
          "duration": 0.11538449999999756,
          "durationTicks": 96,
          "midi": 51,
          "name": "D#3",
          "ticks": 18048,
          "time": 21.692286,
          "velocity": 0.4094488188976378
        },
        {
          "duration": 0.11538449999999756,
          "durationTicks": 96,
          "midi": 56,
          "name": "G#3",
          "ticks": 18048,
          "time": 21.692286,
          "velocity": 0.4094488188976378
        },
        {
          "duration": 0.11538450000000111,
          "durationTicks": 96,
          "midi": 49,
          "name": "C#3",
          "ticks": 18240,
          "time": 21.923054999999998,
          "velocity": 0.4094488188976378
        },
        {
          "duration": 0.11538450000000111,
          "durationTicks": 96,
          "midi": 53,
          "name": "F3",
          "ticks": 18240,
          "time": 21.923054999999998,
          "velocity": 0.4094488188976378
        },
        {
          "duration": 0.11538450000000111,
          "durationTicks": 96,
          "midi": 61,
          "name": "C#4",
          "ticks": 18240,
          "time": 21.923054999999998,
          "velocity": 0.4094488188976378
        },
        {
          "duration": 0.11538450000000111,
          "durationTicks": 96,
          "midi": 66,
          "name": "F#4",
          "ticks": 18432,
          "time": 22.153823999999997,
          "velocity": 0.4094488188976378
        },
        {
          "duration": 0.11538450000000111,
          "durationTicks": 96,
          "midi": 70,
          "name": "A#4",
          "ticks": 18432,
          "time": 22.153823999999997,
          "velocity": 0.4094488188976378
        },
        {
          "duration": 0.11538450000000111,
          "durationTicks": 96,
          "midi": 64,
          "name": "E4",
          "ticks": 18528,
          "time": 22.269208499999998,
          "velocity": 0.4094488188976378
        },
        {
          "duration": 0.11538449999999756,
          "durationTicks": 96,
          "midi": 61,
          "name": "C#4",
          "ticks": 18624,
          "time": 22.384593,
          "velocity": 0.4094488188976378
        },
        {
          "duration": 0.11538450000000111,
          "durationTicks": 96,
          "midi": 59,
          "name": "B3",
          "ticks": 18720,
          "time": 22.499977499999996,
          "velocity": 0.4094488188976378
        },
        {
          "duration": 0.11538450000000111,
          "durationTicks": 96,
          "midi": 70,
          "name": "A#4",
          "ticks": 18720,
          "time": 22.499977499999996,
          "velocity": 0.4094488188976378
        },
        {
          "duration": 0.11538450000000111,
          "durationTicks": 96,
          "midi": 58,
          "name": "A#3",
          "ticks": 18816,
          "time": 22.615361999999998,
          "velocity": 0.4094488188976378
        },
        {
          "duration": 0.23076900000000222,
          "durationTicks": 192,
          "midi": 70,
          "name": "A#4",
          "ticks": 19008,
          "time": 22.846130999999996,
          "velocity": 0.4094488188976378
        },
        {
          "duration": 0.23076899999999867,
          "durationTicks": 192,
          "midi": 70,
          "name": "A#4",
          "ticks": 19392,
          "time": 23.307668999999997,
          "velocity": 0.4094488188976378
        },
        {
          "duration": 0.23076900000000222,
          "durationTicks": 192,
          "midi": 66,
          "name": "F#4",
          "ticks": 19584,
          "time": 23.538437999999996,
          "velocity": 0.4094488188976378
        },
        {
          "duration": 0.23076899999999867,
          "durationTicks": 192,
          "midi": 63,
          "name": "D#4",
          "ticks": 19776,
          "time": 23.769206999999998,
          "velocity": 0.4094488188976378
        },
        {
          "duration": 0.11538450000000111,
          "durationTicks": 96,
          "midi": 59,
          "name": "B3",
          "ticks": 19968,
          "time": 23.999975999999997,
          "velocity": 0.4094488188976378
        },
        {
          "duration": 0.11538450000000111,
          "durationTicks": 96,
          "midi": 71,
          "name": "B4",
          "ticks": 19968,
          "time": 23.999975999999997,
          "velocity": 0.4094488188976378
        },
        {
          "duration": 0.11538450000000111,
          "durationTicks": 96,
          "midi": 66,
          "name": "F#4",
          "ticks": 19968,
          "time": 23.999975999999997,
          "velocity": 0.4094488188976378
        },
        {
          "duration": 0.11538450000000111,
          "durationTicks": 96,
          "midi": 61,
          "name": "C#4",
          "ticks": 20064,
          "time": 24.115360499999998,
          "velocity": 0.4094488188976378
        },
        {
          "duration": 0.11538449999999756,
          "durationTicks": 96,
          "midi": 62,
          "name": "D4",
          "ticks": 20160,
          "time": 24.230745,
          "velocity": 0.4094488188976378
        },
        {
          "duration": 0.11538450000000111,
          "durationTicks": 96,
          "midi": 63,
          "name": "D#4",
          "ticks": 20256,
          "time": 24.346129499999996,
          "velocity": 0.4094488188976378
        },
        {
          "duration": 0.11538450000000111,
          "durationTicks": 96,
          "midi": 66,
          "name": "F#4",
          "ticks": 20256,
          "time": 24.346129499999996,
          "velocity": 0.4094488188976378
        },
        {
          "duration": 0.11538450000000111,
          "durationTicks": 96,
          "midi": 71,
          "name": "B4",
          "ticks": 20256,
          "time": 24.346129499999996,
          "velocity": 0.4094488188976378
        },
        {
          "duration": 0.11538450000000111,
          "durationTicks": 96,
          "midi": 66,
          "name": "F#4",
          "ticks": 20352,
          "time": 24.461513999999998,
          "velocity": 0.4094488188976378
        },
        {
          "duration": 0.23076900000000222,
          "durationTicks": 192,
          "midi": 66,
          "name": "F#4",
          "ticks": 20544,
          "time": 24.692282999999996,
          "velocity": 0.4094488188976378
        },
        {
          "duration": 0.23076900000000222,
          "durationTicks": 192,
          "midi": 71,
          "name": "B4",
          "ticks": 20544,
          "time": 24.692282999999996,
          "velocity": 0.4094488188976378
        },
        {
          "duration": 0.11538450000000111,
          "durationTicks": 96,
          "midi": 71,
          "name": "B4",
          "ticks": 20928,
          "time": 25.153820999999997,
          "velocity": 0.4094488188976378
        },
        {
          "duration": 0.11538450000000111,
          "durationTicks": 96,
          "midi": 66,
          "name": "F#4",
          "ticks": 20928,
          "time": 25.153820999999997,
          "velocity": 0.4094488188976378
        },
        {
          "duration": 0.11538450000000111,
          "durationTicks": 96,
          "midi": 63,
          "name": "D#4",
          "ticks": 21120,
          "time": 25.384589999999996,
          "velocity": 0.4094488188976378
        },
        {
          "duration": 0.11538450000000111,
          "durationTicks": 96,
          "midi": 68,
          "name": "G#4",
          "ticks": 21120,
          "time": 25.384589999999996,
          "velocity": 0.4094488188976378
        },
        {
          "duration": 0.23076899999999867,
          "durationTicks": 192,
          "midi": 61,
          "name": "C#4",
          "ticks": 21312,
          "time": 25.615358999999998,
          "velocity": 0.4094488188976378
        },
        {
          "duration": 0.11538450000000111,
          "durationTicks": 96,
          "midi": 63,
          "name": "D#4",
          "ticks": 21504,
          "time": 25.846127999999997,
          "velocity": 0.4094488188976378
        },
        {
          "duration": 0.11538450000000111,
          "durationTicks": 96,
          "midi": 65,
          "name": "F4",
          "ticks": 21504,
          "time": 25.846127999999997,
          "velocity": 0.4094488188976378
        },
        {
          "duration": 0.11538450000000111,
          "durationTicks": 96,
          "midi": 70,
          "name": "A#4",
          "ticks": 21504,
          "time": 25.846127999999997,
          "velocity": 0.4094488188976378
        },
        {
          "duration": 0.11538450000000111,
          "durationTicks": 96,
          "midi": 58,
          "name": "A#3",
          "ticks": 21504,
          "time": 25.846127999999997,
          "velocity": 0.4094488188976378
        },
        {
          "duration": 0.11538449999999756,
          "durationTicks": 96,
          "midi": 61,
          "name": "C#4",
          "ticks": 21600,
          "time": 25.961512499999998,
          "velocity": 0.4094488188976378
        },
        {
          "duration": 0.11538450000000111,
          "durationTicks": 96,
          "midi": 58,
          "name": "A#3",
          "ticks": 21696,
          "time": 26.076896999999995,
          "velocity": 0.4094488188976378
        },
        {
          "duration": 0.11538450000000111,
          "durationTicks": 96,
          "midi": 70,
          "name": "A#4",
          "ticks": 21792,
          "time": 26.192281499999996,
          "velocity": 0.4094488188976378
        },
        {
          "duration": 0.11538450000000111,
          "durationTicks": 96,
          "midi": 56,
          "name": "G#3",
          "ticks": 21792,
          "time": 26.192281499999996,
          "velocity": 0.4094488188976378
        },
        {
          "duration": 0.11538450000000111,
          "durationTicks": 96,
          "midi": 65,
          "name": "F4",
          "ticks": 21792,
          "time": 26.192281499999996,
          "velocity": 0.4094488188976378
        },
        {
          "duration": 0.23076900000000222,
          "durationTicks": 192,
          "midi": 70,
          "name": "A#4",
          "ticks": 22080,
          "time": 26.538434999999996,
          "velocity": 0.4094488188976378
        },
        {
          "duration": 0.23076900000000222,
          "durationTicks": 192,
          "midi": 65,
          "name": "F4",
          "ticks": 22080,
          "time": 26.538434999999996,
          "velocity": 0.4094488188976378
        },
        {
          "duration": 0.11538450000000111,
          "durationTicks": 96,
          "midi": 71,
          "name": "B4",
          "ticks": 22464,
          "time": 26.999972999999997,
          "velocity": 0.4094488188976378
        },
        {
          "duration": 0.11538450000000111,
          "durationTicks": 96,
          "midi": 65,
          "name": "F4",
          "ticks": 22464,
          "time": 26.999972999999997,
          "velocity": 0.4094488188976378
        },
        {
          "duration": 0.23076900000000222,
          "durationTicks": 192,
          "midi": 49,
          "name": "C#3",
          "ticks": 22656,
          "time": 27.230741999999996,
          "velocity": 0.4094488188976378
        },
        {
          "duration": 0.11538449999999756,
          "durationTicks": 96,
          "midi": 65,
          "name": "F4",
          "ticks": 22848,
          "time": 27.461510999999998,
          "velocity": 0.4094488188976378
        },
        {
          "duration": 0.11538449999999756,
          "durationTicks": 96,
          "midi": 53,
          "name": "F3",
          "ticks": 22848,
          "time": 27.461510999999998,
          "velocity": 0.4094488188976378
        },
        {
          "duration": 0.11538450000000111,
          "durationTicks": 96,
          "midi": 61,
          "name": "C#4",
          "ticks": 23040,
          "time": 27.692279999999997,
          "velocity": 0.4094488188976378
        },
        {
          "duration": 0.11538450000000111,
          "durationTicks": 96,
          "midi": 73,
          "name": "C#5",
          "ticks": 23040,
          "time": 27.692279999999997,
          "velocity": 0.4094488188976378
        },
        {
          "duration": 0.11538450000000111,
          "durationTicks": 96,
          "midi": 68,
          "name": "G#4",
          "ticks": 23040,
          "time": 27.692279999999997,
          "velocity": 0.4094488188976378
        },
        {
          "duration": 0.11538449999999756,
          "durationTicks": 96,
          "midi": 59,
          "name": "B3",
          "ticks": 23136,
          "time": 27.807664499999998,
          "velocity": 0.4094488188976378
        },
        {
          "duration": 0.11538450000000111,
          "durationTicks": 96,
          "midi": 56,
          "name": "G#3",
          "ticks": 23232,
          "time": 27.923048999999995,
          "velocity": 0.4094488188976378
        },
        {
          "duration": 0.11538450000000111,
          "durationTicks": 96,
          "midi": 68,
          "name": "G#4",
          "ticks": 23328,
          "time": 28.038433499999996,
          "velocity": 0.4094488188976378
        },
        {
          "duration": 0.11538450000000111,
          "durationTicks": 96,
          "midi": 55,
          "name": "G3",
          "ticks": 23328,
          "time": 28.038433499999996,
          "velocity": 0.4094488188976378
        },
        {
          "duration": 0.11538450000000111,
          "durationTicks": 96,
          "midi": 73,
          "name": "C#5",
          "ticks": 23328,
          "time": 28.038433499999996,
          "velocity": 0.4094488188976378
        },
        {
          "duration": 0.11538449999999756,
          "durationTicks": 96,
          "midi": 54,
          "name": "F#3",
          "ticks": 23424,
          "time": 28.153817999999998,
          "velocity": 0.4094488188976378
        },
        {
          "duration": 0.11538450000000111,
          "durationTicks": 96,
          "midi": 53,
          "name": "F3",
          "ticks": 23616,
          "time": 28.384586999999996,
          "velocity": 0.4094488188976378
        },
        {
          "duration": 0.11538450000000111,
          "durationTicks": 96,
          "midi": 49,
          "name": "C#3",
          "ticks": 23616,
          "time": 28.384586999999996,
          "velocity": 0.4094488188976378
        },
        {
          "duration": 0.11538450000000111,
          "durationTicks": 96,
          "midi": 61,
          "name": "C#4",
          "ticks": 23616,
          "time": 28.384586999999996,
          "velocity": 0.4094488188976378
        },
        {
          "duration": 0.11538450000000111,
          "durationTicks": 96,
          "midi": 49,
          "name": "C#3",
          "ticks": 23712,
          "time": 28.499971499999997,
          "velocity": 0.4094488188976378
        },
        {
          "duration": 0.11538450000000111,
          "durationTicks": 96,
          "midi": 56,
          "name": "G#3",
          "ticks": 24000,
          "time": 28.846124999999997,
          "velocity": 0.4094488188976378
        },
        {
          "duration": 0.11538450000000111,
          "durationTicks": 96,
          "midi": 68,
          "name": "G#4",
          "ticks": 24000,
          "time": 28.846124999999997,
          "velocity": 0.4094488188976378
        },
        {
          "duration": 0.11538450000000111,
          "durationTicks": 96,
          "midi": 52,
          "name": "E3",
          "ticks": 24000,
          "time": 28.846124999999997,
          "velocity": 0.4094488188976378
        },
        {
          "duration": 0.11538450000000111,
          "durationTicks": 96,
          "midi": 51,
          "name": "D#3",
          "ticks": 24192,
          "time": 29.076893999999996,
          "velocity": 0.4094488188976378
        },
        {
          "duration": 0.11538450000000111,
          "durationTicks": 96,
          "midi": 63,
          "name": "D#4",
          "ticks": 24192,
          "time": 29.076893999999996,
          "velocity": 0.4094488188976378
        },
        {
          "duration": 0.11538450000000111,
          "durationTicks": 96,
          "midi": 56,
          "name": "G#3",
          "ticks": 24192,
          "time": 29.076893999999996,
          "velocity": 0.4094488188976378
        },
        {
          "duration": 0.11538449999999756,
          "durationTicks": 96,
          "midi": 49,
          "name": "C#3",
          "ticks": 24384,
          "time": 29.307662999999998,
          "velocity": 0.4094488188976378
        },
        {
          "duration": 0.11538449999999756,
          "durationTicks": 96,
          "midi": 61,
          "name": "C#4",
          "ticks": 24384,
          "time": 29.307662999999998,
          "velocity": 0.4094488188976378
        },
        {
          "duration": 0.11538449999999756,
          "durationTicks": 96,
          "midi": 53,
          "name": "F3",
          "ticks": 24384,
          "time": 29.307662999999998,
          "velocity": 0.4094488188976378
        },
        {
          "duration": 0.11538450000000111,
          "durationTicks": 96,
          "midi": 66,
          "name": "F#4",
          "ticks": 24576,
          "time": 29.538431999999997,
          "velocity": 0.4094488188976378
        },
        {
          "duration": 0.11538450000000111,
          "durationTicks": 96,
          "midi": 70,
          "name": "A#4",
          "ticks": 24576,
          "time": 29.538431999999997,
          "velocity": 0.4094488188976378
        },
        {
          "duration": 0.11538449999999756,
          "durationTicks": 96,
          "midi": 64,
          "name": "E4",
          "ticks": 24672,
          "time": 29.653816499999998,
          "velocity": 0.4094488188976378
        },
        {
          "duration": 0.11538450000000111,
          "durationTicks": 96,
          "midi": 75,
          "name": "D#5",
          "ticks": 24768,
          "time": 29.769200999999995,
          "velocity": 0.4094488188976378
        },
        {
          "duration": 0.11538450000000111,
          "durationTicks": 96,
          "midi": 61,
          "name": "C#4",
          "ticks": 24768,
          "time": 29.769200999999995,
          "velocity": 0.4094488188976378
        },
        {
          "duration": 0.11538450000000111,
          "durationTicks": 96,
          "midi": 70,
          "name": "A#4",
          "ticks": 24864,
          "time": 29.884585499999996,
          "velocity": 0.4094488188976378
        },
        {
          "duration": 0.11538450000000111,
          "durationTicks": 96,
          "midi": 59,
          "name": "B3",
          "ticks": 24864,
          "time": 29.884585499999996,
          "velocity": 0.4094488188976378
        },
        {
          "duration": 0.11538449999999756,
          "durationTicks": 96,
          "midi": 58,
          "name": "A#3",
          "ticks": 24960,
          "time": 29.999969999999998,
          "velocity": 0.4094488188976378
        },
        {
          "duration": 0.11538449999999756,
          "durationTicks": 96,
          "midi": 75,
          "name": "D#5",
          "ticks": 24960,
          "time": 29.999969999999998,
          "velocity": 0.4094488188976378
        },
        {
          "duration": 0.23076899999999867,
          "durationTicks": 192,
          "midi": 70,
          "name": "A#4",
          "ticks": 25152,
          "time": 30.230738999999996,
          "velocity": 0.4094488188976378
        },
        {
          "duration": 0.11538450000000111,
          "durationTicks": 96,
          "midi": 75,
          "name": "D#5",
          "ticks": 25152,
          "time": 30.230738999999996,
          "velocity": 0.4094488188976378
        },
        {
          "duration": 0.11538450000000111,
          "durationTicks": 96,
          "midi": 75,
          "name": "D#5",
          "ticks": 25344,
          "time": 30.461507999999995,
          "velocity": 0.4094488188976378
        },
        {
          "duration": 0.23076899999999867,
          "durationTicks": 192,
          "midi": 70,
          "name": "A#4",
          "ticks": 25536,
          "time": 30.692276999999997,
          "velocity": 0.4094488188976378
        },
        {
          "duration": 0.23076900000000222,
          "durationTicks": 192,
          "midi": 66,
          "name": "F#4",
          "ticks": 25728,
          "time": 30.923045999999996,
          "velocity": 0.4094488188976378
        },
        {
          "duration": 0.23076899999999867,
          "durationTicks": 192,
          "midi": 72,
          "name": "C5",
          "ticks": 25920,
          "time": 31.153814999999998,
          "velocity": 0.4094488188976378
        },
        {
          "duration": 0.23076899999999867,
          "durationTicks": 192,
          "midi": 63,
          "name": "D#4",
          "ticks": 25920,
          "time": 31.153814999999998,
          "velocity": 0.4094488188976378
        },
        {
          "duration": 0.11538450000000111,
          "durationTicks": 96,
          "midi": 77,
          "name": "F5",
          "ticks": 26112,
          "time": 31.384583999999997,
          "velocity": 0.4094488188976378
        },
        {
          "duration": 0.11538450000000111,
          "durationTicks": 96,
          "midi": 71,
          "name": "B4",
          "ticks": 26112,
          "time": 31.384583999999997,
          "velocity": 0.4094488188976378
        },
        {
          "duration": 0.11538450000000111,
          "durationTicks": 96,
          "midi": 61,
          "name": "C#4",
          "ticks": 26112,
          "time": 31.384583999999997,
          "velocity": 0.4094488188976378
        },
        {
          "duration": 0.11538450000000111,
          "durationTicks": 96,
          "midi": 66,
          "name": "F#4",
          "ticks": 26112,
          "time": 31.384583999999997,
          "velocity": 0.4094488188976378
        },
        {
          "duration": 0.11538449999999756,
          "durationTicks": 96,
          "midi": 61,
          "name": "C#4",
          "ticks": 26208,
          "time": 31.499968499999998,
          "velocity": 0.4094488188976378
        },
        {
          "duration": 0.11538450000000111,
          "durationTicks": 96,
          "midi": 62,
          "name": "D4",
          "ticks": 26304,
          "time": 31.615352999999995,
          "velocity": 0.4094488188976378
        },
        {
          "duration": 0.11538450000000111,
          "durationTicks": 96,
          "midi": 75,
          "name": "D#5",
          "ticks": 26304,
          "time": 31.615352999999995,
          "velocity": 0.4094488188976378
        },
        {
          "duration": 0.11538450000000111,
          "durationTicks": 96,
          "midi": 66,
          "name": "F#4",
          "ticks": 26400,
          "time": 31.730737499999996,
          "velocity": 0.4094488188976378
        },
        {
          "duration": 0.11538450000000111,
          "durationTicks": 96,
          "midi": 71,
          "name": "B4",
          "ticks": 26400,
          "time": 31.730737499999996,
          "velocity": 0.4094488188976378
        },
        {
          "duration": 0.11538450000000111,
          "durationTicks": 96,
          "midi": 63,
          "name": "D#4",
          "ticks": 26400,
          "time": 31.730737499999996,
          "velocity": 0.4094488188976378
        },
        {
          "duration": 0.23076899999999867,
          "durationTicks": 192,
          "midi": 66,
          "name": "F#4",
          "ticks": 26496,
          "time": 31.846121999999998,
          "velocity": 0.4094488188976378
        },
        {
          "duration": 0.11538449999999756,
          "durationTicks": 96,
          "midi": 75,
          "name": "D#5",
          "ticks": 26496,
          "time": 31.846121999999998,
          "velocity": 0.4094488188976378
        },
        {
          "duration": 0.23076900000000222,
          "durationTicks": 192,
          "midi": 66,
          "name": "F#4",
          "ticks": 26688,
          "time": 32.076890999999996,
          "velocity": 0.4094488188976378
        },
        {
          "duration": 0.23076900000000222,
          "durationTicks": 192,
          "midi": 71,
          "name": "B4",
          "ticks": 26688,
          "time": 32.076890999999996,
          "velocity": 0.4094488188976378
        },
        {
          "duration": 0.11538450000000466,
          "durationTicks": 96,
          "midi": 73,
          "name": "C#5",
          "ticks": 27072,
          "time": 32.538428999999994,
          "velocity": 0.4094488188976378
        },
        {
          "duration": 0.11538450000000466,
          "durationTicks": 96,
          "midi": 66,
          "name": "F#4",
          "ticks": 27072,
          "time": 32.538428999999994,
          "velocity": 0.4094488188976378
        },
        {
          "duration": 0.11538450000000466,
          "durationTicks": 96,
          "midi": 71,
          "name": "B4",
          "ticks": 27072,
          "time": 32.538428999999994,
          "velocity": 0.4094488188976378
        },
        {
          "duration": 0.11538449999999756,
          "durationTicks": 96,
          "midi": 73,
          "name": "C#5",
          "ticks": 27168,
          "time": 32.6538135,
          "velocity": 0.4094488188976378
        },
        {
          "duration": 0.11538449999999756,
          "durationTicks": 96,
          "midi": 63,
          "name": "D#4",
          "ticks": 27264,
          "time": 32.769197999999996,
          "velocity": 0.4094488188976378
        },
        {
          "duration": 0.11538449999999756,
          "durationTicks": 96,
          "midi": 68,
          "name": "G#4",
          "ticks": 27264,
          "time": 32.769197999999996,
          "velocity": 0.4094488188976378
        },
        {
          "duration": 0.23076900000000222,
          "durationTicks": 192,
          "midi": 76,
          "name": "E5",
          "ticks": 27264,
          "time": 32.769197999999996,
          "velocity": 0.4094488188976378
        },
        {
          "duration": 0.23076899999999512,
          "durationTicks": 192,
          "midi": 78,
          "name": "F#5",
          "ticks": 27456,
          "time": 32.999967,
          "velocity": 0.4094488188976378
        },
        {
          "duration": 0.23076899999999512,
          "durationTicks": 192,
          "midi": 61,
          "name": "C#4",
          "ticks": 27456,
          "time": 32.999967,
          "velocity": 0.4094488188976378
        },
        {
          "duration": 0.11538450000000466,
          "durationTicks": 96,
          "midi": 58,
          "name": "A#3",
          "ticks": 27648,
          "time": 33.23073599999999,
          "velocity": 0.4094488188976378
        },
        {
          "duration": 0.11538450000000466,
          "durationTicks": 96,
          "midi": 70,
          "name": "A#4",
          "ticks": 27648,
          "time": 33.23073599999999,
          "velocity": 0.4094488188976378
        },
        {
          "duration": 0.11538450000000466,
          "durationTicks": 96,
          "midi": 65,
          "name": "F4",
          "ticks": 27648,
          "time": 33.23073599999999,
          "velocity": 0.4094488188976378
        },
        {
          "duration": 0.11538450000000466,
          "durationTicks": 96,
          "midi": 63,
          "name": "D#4",
          "ticks": 27648,
          "time": 33.23073599999999,
          "velocity": 0.4094488188976378
        },
        {
          "duration": 0.11538449999999756,
          "durationTicks": 96,
          "midi": 61,
          "name": "C#4",
          "ticks": 27744,
          "time": 33.3461205,
          "velocity": 0.4094488188976378
        },
        {
          "duration": 0.11538449999999756,
          "durationTicks": 96,
          "midi": 77,
          "name": "F5",
          "ticks": 27840,
          "time": 33.461504999999995,
          "velocity": 0.4094488188976378
        },
        {
          "duration": 0.11538449999999756,
          "durationTicks": 96,
          "midi": 58,
          "name": "A#3",
          "ticks": 27840,
          "time": 33.461504999999995,
          "velocity": 0.4094488188976378
        },
        {
          "duration": 0.11538450000000466,
          "durationTicks": 96,
          "midi": 65,
          "name": "F4",
          "ticks": 27936,
          "time": 33.57688949999999,
          "velocity": 0.4094488188976378
        },
        {
          "duration": 0.11538450000000466,
          "durationTicks": 96,
          "midi": 70,
          "name": "A#4",
          "ticks": 27936,
          "time": 33.57688949999999,
          "velocity": 0.4094488188976378
        },
        {
          "duration": 0.11538450000000466,
          "durationTicks": 96,
          "midi": 56,
          "name": "G#3",
          "ticks": 27936,
          "time": 33.57688949999999,
          "velocity": 0.4094488188976378
        },
        {
          "duration": 0.23076899999999512,
          "durationTicks": 192,
          "midi": 76,
          "name": "E5",
          "ticks": 28032,
          "time": 33.692274,
          "velocity": 0.4094488188976378
        },
        {
          "duration": 0.23076900000000222,
          "durationTicks": 192,
          "midi": 65,
          "name": "F4",
          "ticks": 28224,
          "time": 33.92304299999999,
          "velocity": 0.4094488188976378
        },
        {
          "duration": 0.23076900000000222,
          "durationTicks": 192,
          "midi": 70,
          "name": "A#4",
          "ticks": 28224,
          "time": 33.92304299999999,
          "velocity": 0.4094488188976378
        },
        {
          "duration": 0.23076900000000222,
          "durationTicks": 192,
          "midi": 73,
          "name": "C#5",
          "ticks": 28416,
          "time": 34.153811999999995,
          "velocity": 0.4094488188976378
        },
        {
          "duration": 0.11538449999999756,
          "durationTicks": 96,
          "midi": 65,
          "name": "F4",
          "ticks": 28608,
          "time": 34.384581,
          "velocity": 0.4094488188976378
        },
        {
          "duration": 0.23076900000000222,
          "durationTicks": 192,
          "midi": 71,
          "name": "B4",
          "ticks": 28608,
          "time": 34.384581,
          "velocity": 0.4094488188976378
        },
        {
          "duration": 0.23076899999999512,
          "durationTicks": 192,
          "midi": 49,
          "name": "C#3",
          "ticks": 28800,
          "time": 34.61535,
          "velocity": 0.4094488188976378
        },
        {
          "duration": 0.23076900000000222,
          "durationTicks": 192,
          "midi": 69,
          "name": "A4",
          "ticks": 28992,
          "time": 34.846118999999995,
          "velocity": 0.4094488188976378
        },
        {
          "duration": 0.11538450000000466,
          "durationTicks": 96,
          "midi": 65,
          "name": "F4",
          "ticks": 28992,
          "time": 34.846118999999995,
          "velocity": 0.4094488188976378
        },
        {
          "duration": 0.11538450000000466,
          "durationTicks": 96,
          "midi": 53,
          "name": "F3",
          "ticks": 28992,
          "time": 34.846118999999995,
          "velocity": 0.4094488188976378
        },
        {
          "duration": 0.11538449999999756,
          "durationTicks": 96,
          "midi": 73,
          "name": "C#5",
          "ticks": 29184,
          "time": 35.076888,
          "velocity": 0.4094488188976378
        },
        {
          "duration": 0.11538449999999756,
          "durationTicks": 96,
          "midi": 68,
          "name": "G#4",
          "ticks": 29184,
          "time": 35.076888,
          "velocity": 0.4094488188976378
        },
        {
          "duration": 0.11538449999999756,
          "durationTicks": 96,
          "midi": 61,
          "name": "C#4",
          "ticks": 29184,
          "time": 35.076888,
          "velocity": 0.4094488188976378
        },
        {
          "duration": 0.11538450000000466,
          "durationTicks": 96,
          "midi": 59,
          "name": "B3",
          "ticks": 29280,
          "time": 35.192272499999994,
          "velocity": 0.4094488188976378
        },
        {
          "duration": 0.11538449999999756,
          "durationTicks": 96,
          "midi": 71,
          "name": "B4",
          "ticks": 29376,
          "time": 35.307657,
          "velocity": 0.4094488188976378
        },
        {
          "duration": 0.11538449999999756,
          "durationTicks": 96,
          "midi": 56,
          "name": "G#3",
          "ticks": 29376,
          "time": 35.307657,
          "velocity": 0.4094488188976378
        },
        {
          "duration": 0.11538449999999756,
          "durationTicks": 96,
          "midi": 73,
          "name": "C#5",
          "ticks": 29472,
          "time": 35.4230415,
          "velocity": 0.4094488188976378
        },
        {
          "duration": 0.11538449999999756,
          "durationTicks": 96,
          "midi": 68,
          "name": "G#4",
          "ticks": 29472,
          "time": 35.4230415,
          "velocity": 0.4094488188976378
        },
        {
          "duration": 0.11538449999999756,
          "durationTicks": 96,
          "midi": 55,
          "name": "G3",
          "ticks": 29472,
          "time": 35.4230415,
          "velocity": 0.4094488188976378
        },
        {
          "duration": 0.23076900000000222,
          "durationTicks": 192,
          "midi": 54,
          "name": "F#3",
          "ticks": 29568,
          "time": 35.538425999999994,
          "velocity": 0.4094488188976378
        },
        {
          "duration": 0.23076900000000222,
          "durationTicks": 192,
          "midi": 71,
          "name": "B4",
          "ticks": 29568,
          "time": 35.538425999999994,
          "velocity": 0.4094488188976378
        },
        {
          "duration": 0.11538449999999756,
          "durationTicks": 96,
          "midi": 53,
          "name": "F3",
          "ticks": 29760,
          "time": 35.769194999999996,
          "velocity": 0.4094488188976378
        },
        {
          "duration": 0.11538449999999756,
          "durationTicks": 96,
          "midi": 49,
          "name": "C#3",
          "ticks": 29760,
          "time": 35.769194999999996,
          "velocity": 0.4094488188976378
        },
        {
          "duration": 0.11538450000000466,
          "durationTicks": 96,
          "midi": 49,
          "name": "C#3",
          "ticks": 29856,
          "time": 35.884579499999994,
          "velocity": 0.4094488188976378
        },
        {
          "duration": 0.11538450000000466,
          "durationTicks": 96,
          "midi": 56,
          "name": "G#3",
          "ticks": 30144,
          "time": 36.230732999999994,
          "velocity": 0.4094488188976378
        },
        {
          "duration": 0.11538450000000466,
          "durationTicks": 96,
          "midi": 52,
          "name": "E3",
          "ticks": 30144,
          "time": 36.230732999999994,
          "velocity": 0.4094488188976378
        },
        {
          "duration": 0.11538450000000466,
          "durationTicks": 96,
          "midi": 68,
          "name": "G#4",
          "ticks": 30144,
          "time": 36.230732999999994,
          "velocity": 0.4094488188976378
        },
        {
          "duration": 0.11538449999999756,
          "durationTicks": 96,
          "midi": 56,
          "name": "G#3",
          "ticks": 30336,
          "time": 36.461501999999996,
          "velocity": 0.4094488188976378
        },
        {
          "duration": 0.11538449999999756,
          "durationTicks": 96,
          "midi": 51,
          "name": "D#3",
          "ticks": 30336,
          "time": 36.461501999999996,
          "velocity": 0.4094488188976378
        },
        {
          "duration": 0.11538449999999756,
          "durationTicks": 96,
          "midi": 63,
          "name": "D#4",
          "ticks": 30336,
          "time": 36.461501999999996,
          "velocity": 0.4094488188976378
        },
        {
          "duration": 0.11538449999999756,
          "durationTicks": 96,
          "midi": 53,
          "name": "F3",
          "ticks": 30528,
          "time": 36.692271,
          "velocity": 0.4094488188976378
        },
        {
          "duration": 0.11538449999999756,
          "durationTicks": 96,
          "midi": 49,
          "name": "C#3",
          "ticks": 30528,
          "time": 36.692271,
          "velocity": 0.4094488188976378
        },
        {
          "duration": 0.11538449999999756,
          "durationTicks": 96,
          "midi": 61,
          "name": "C#4",
          "ticks": 30528,
          "time": 36.692271,
          "velocity": 0.4094488188976378
        },
        {
          "duration": 0.11538450000000466,
          "durationTicks": 96,
          "midi": 70,
          "name": "A#4",
          "ticks": 30720,
          "time": 36.92303999999999,
          "velocity": 0.4094488188976378
        },
        {
          "duration": 0.11538450000000466,
          "durationTicks": 96,
          "midi": 66,
          "name": "F#4",
          "ticks": 30720,
          "time": 36.92303999999999,
          "velocity": 0.4094488188976378
        },
        {
          "duration": 0.11538449999999756,
          "durationTicks": 96,
          "midi": 64,
          "name": "E4",
          "ticks": 30816,
          "time": 37.0384245,
          "velocity": 0.4094488188976378
        },
        {
          "duration": 0.11538449999999756,
          "durationTicks": 96,
          "midi": 79,
          "name": "G5",
          "ticks": 30912,
          "time": 37.153808999999995,
          "velocity": 0.4094488188976378
        },
        {
          "duration": 0.11538449999999756,
          "durationTicks": 96,
          "midi": 73,
          "name": "C#5",
          "ticks": 30912,
          "time": 37.153808999999995,
          "velocity": 0.4094488188976378
        },
        {
          "duration": 0.11538449999999756,
          "durationTicks": 96,
          "midi": 61,
          "name": "C#4",
          "ticks": 30912,
          "time": 37.153808999999995,
          "velocity": 0.4094488188976378
        },
        {
          "duration": 0.11538450000000466,
          "durationTicks": 96,
          "midi": 59,
          "name": "B3",
          "ticks": 31008,
          "time": 37.26919349999999,
          "velocity": 0.4094488188976378
        },
        {
          "duration": 0.11538450000000466,
          "durationTicks": 96,
          "midi": 70,
          "name": "A#4",
          "ticks": 31008,
          "time": 37.26919349999999,
          "velocity": 0.4094488188976378
        },
        {
          "duration": 0.11538449999999756,
          "durationTicks": 96,
          "midi": 79,
          "name": "G5",
          "ticks": 31104,
          "time": 37.384578,
          "velocity": 0.4094488188976378
        },
        {
          "duration": 0.11538449999999756,
          "durationTicks": 96,
          "midi": 73,
          "name": "C#5",
          "ticks": 31104,
          "time": 37.384578,
          "velocity": 0.4094488188976378
        },
        {
          "duration": 0.11538449999999756,
          "durationTicks": 96,
          "midi": 58,
          "name": "A#3",
          "ticks": 31104,
          "time": 37.384578,
          "velocity": 0.4094488188976378
        },
        {
          "duration": 0.23076900000000222,
          "durationTicks": 192,
          "midi": 70,
          "name": "A#4",
          "ticks": 31296,
          "time": 37.61534699999999,
          "velocity": 0.4094488188976378
        },
        {
          "duration": 0.11538450000000466,
          "durationTicks": 96,
          "midi": 73,
          "name": "C#5",
          "ticks": 31296,
          "time": 37.61534699999999,
          "velocity": 0.4094488188976378
        },
        {
          "duration": 0.11538450000000466,
          "durationTicks": 96,
          "midi": 79,
          "name": "G5",
          "ticks": 31296,
          "time": 37.61534699999999,
          "velocity": 0.4094488188976378
        },
        {
          "duration": 0.11538449999999756,
          "durationTicks": 96,
          "midi": 73,
          "name": "C#5",
          "ticks": 31488,
          "time": 37.846115999999995,
          "velocity": 0.4094488188976378
        },
        {
          "duration": 0.11538449999999756,
          "durationTicks": 96,
          "midi": 79,
          "name": "G5",
          "ticks": 31488,
          "time": 37.846115999999995,
          "velocity": 0.4094488188976378
        },
        {
          "duration": 0.23076899999999512,
          "durationTicks": 192,
          "midi": 70,
          "name": "A#4",
          "ticks": 31680,
          "time": 38.076885,
          "velocity": 0.4094488188976378
        },
        {
          "duration": 0.23076900000000222,
          "durationTicks": 192,
          "midi": 66,
          "name": "F#4",
          "ticks": 31872,
          "time": 38.30765399999999,
          "velocity": 0.4094488188976378
        },
        {
          "duration": 0.11538450000000466,
          "durationTicks": 96,
          "midi": 76,
          "name": "E5",
          "ticks": 32064,
          "time": 38.538422999999995,
          "velocity": 0.4094488188976378
        },
        {
          "duration": 0.11538450000000466,
          "durationTicks": 96,
          "midi": 71,
          "name": "B4",
          "ticks": 32064,
          "time": 38.538422999999995,
          "velocity": 0.4094488188976378
        },
        {
          "duration": 0.23076900000000222,
          "durationTicks": 192,
          "midi": 63,
          "name": "D#4",
          "ticks": 32064,
          "time": 38.538422999999995,
          "velocity": 0.4094488188976378
        },
        {
          "duration": 0.11538449999999756,
          "durationTicks": 96,
          "midi": 75,
          "name": "D#5",
          "ticks": 32256,
          "time": 38.769192,
          "velocity": 0.4094488188976378
        },
        {
          "duration": 0.11538449999999756,
          "durationTicks": 96,
          "midi": 71,
          "name": "B4",
          "ticks": 32256,
          "time": 38.769192,
          "velocity": 0.4094488188976378
        },
        {
          "duration": 0.11538449999999756,
          "durationTicks": 96,
          "midi": 66,
          "name": "F#4",
          "ticks": 32256,
          "time": 38.769192,
          "velocity": 0.4094488188976378
        },
        {
          "duration": 0.11538449999999756,
          "durationTicks": 96,
          "midi": 80,
          "name": "G#5",
          "ticks": 32256,
          "time": 38.769192,
          "velocity": 0.4094488188976378
        },
        {
          "duration": 0.11538450000000466,
          "durationTicks": 96,
          "midi": 61,
          "name": "C#4",
          "ticks": 32352,
          "time": 38.884576499999994,
          "velocity": 0.4094488188976378
        },
        {
          "duration": 0.11538449999999756,
          "durationTicks": 96,
          "midi": 71,
          "name": "B4",
          "ticks": 32448,
          "time": 38.999961,
          "velocity": 0.4094488188976378
        },
        {
          "duration": 0.11538449999999756,
          "durationTicks": 96,
          "midi": 78,
          "name": "F#5",
          "ticks": 32448,
          "time": 38.999961,
          "velocity": 0.4094488188976378
        },
        {
          "duration": 0.11538449999999756,
          "durationTicks": 96,
          "midi": 62,
          "name": "D4",
          "ticks": 32448,
          "time": 38.999961,
          "velocity": 0.4094488188976378
        },
        {
          "duration": 0.11538449999999756,
          "durationTicks": 96,
          "midi": 63,
          "name": "D#4",
          "ticks": 32544,
          "time": 39.1153455,
          "velocity": 0.4094488188976378
        },
        {
          "duration": 0.11538449999999756,
          "durationTicks": 96,
          "midi": 66,
          "name": "F#4",
          "ticks": 32544,
          "time": 39.1153455,
          "velocity": 0.4094488188976378
        },
        {
          "duration": 0.11538449999999756,
          "durationTicks": 96,
          "midi": 71,
          "name": "B4",
          "ticks": 32544,
          "time": 39.1153455,
          "velocity": 0.4094488188976378
        },
        {
          "duration": 0.11538450000000466,
          "durationTicks": 96,
          "midi": 68,
          "name": "G#4",
          "ticks": 32640,
          "time": 39.230729999999994,
          "velocity": 0.4094488188976378
        },
        {
          "duration": 0.11538450000000466,
          "durationTicks": 96,
          "midi": 75,
          "name": "D#5",
          "ticks": 32640,
          "time": 39.230729999999994,
          "velocity": 0.4094488188976378
        },
        {
          "duration": 0.23076900000000222,
          "durationTicks": 192,
          "midi": 66,
          "name": "F#4",
          "ticks": 32640,
          "time": 39.230729999999994,
          "velocity": 0.4094488188976378
        },
        {
          "duration": 0.23076900000000222,
          "durationTicks": 192,
          "midi": 71,
          "name": "B4",
          "ticks": 32832,
          "time": 39.461498999999996,
          "velocity": 0.4094488188976378
        },
        {
          "duration": 0.23076900000000222,
          "durationTicks": 192,
          "midi": 66,
          "name": "F#4",
          "ticks": 32832,
          "time": 39.461498999999996,
          "velocity": 0.4094488188976378
        },
        {
          "duration": 0.11538450000000466,
          "durationTicks": 96,
          "midi": 75,
          "name": "D#5",
          "ticks": 33216,
          "time": 39.923036999999994,
          "velocity": 0.4094488188976378
        },
        {
          "duration": 0.11538450000000466,
          "durationTicks": 96,
          "midi": 71,
          "name": "B4",
          "ticks": 33216,
          "time": 39.923036999999994,
          "velocity": 0.4094488188976378
        },
        {
          "duration": 0.11538450000000466,
          "durationTicks": 96,
          "midi": 66,
          "name": "F#4",
          "ticks": 33216,
          "time": 39.923036999999994,
          "velocity": 0.4094488188976378
        },
        {
          "duration": 0.11538450000000466,
          "durationTicks": 96,
          "midi": 69,
          "name": "A4",
          "ticks": 33216,
          "time": 39.923036999999994,
          "velocity": 0.4094488188976378
        },
        {
          "duration": 0.11538449999999756,
          "durationTicks": 96,
          "midi": 75,
          "name": "D#5",
          "ticks": 33312,
          "time": 40.0384215,
          "velocity": 0.4094488188976378
        },
        {
          "duration": 0.11538449999999756,
          "durationTicks": 96,
          "midi": 69,
          "name": "A4",
          "ticks": 33312,
          "time": 40.0384215,
          "velocity": 0.4094488188976378
        },
        {
          "duration": 0.11538449999999756,
          "durationTicks": 96,
          "midi": 68,
          "name": "G#4",
          "ticks": 33408,
          "time": 40.153805999999996,
          "velocity": 0.4094488188976378
        },
        {
          "duration": 0.23076900000000222,
          "durationTicks": 192,
          "midi": 75,
          "name": "D#5",
          "ticks": 33408,
          "time": 40.153805999999996,
          "velocity": 0.4094488188976378
        },
        {
          "duration": 0.23076900000000222,
          "durationTicks": 192,
          "midi": 80,
          "name": "G#5",
          "ticks": 33408,
          "time": 40.153805999999996,
          "velocity": 0.4094488188976378
        },
        {
          "duration": 0.23076899999999512,
          "durationTicks": 192,
          "midi": 81,
          "name": "A5",
          "ticks": 33600,
          "time": 40.384575,
          "velocity": 0.4094488188976378
        },
        {
          "duration": 0.23076899999999512,
          "durationTicks": 192,
          "midi": 76,
          "name": "E5",
          "ticks": 33600,
          "time": 40.384575,
          "velocity": 0.4094488188976378
        },
        {
          "duration": 0.23076899999999512,
          "durationTicks": 192,
          "midi": 61,
          "name": "C#4",
          "ticks": 33600,
          "time": 40.384575,
          "velocity": 0.4094488188976378
        },
        {
          "duration": 0.11538450000000466,
          "durationTicks": 96,
          "midi": 70,
          "name": "A#4",
          "ticks": 33792,
          "time": 40.61534399999999,
          "velocity": 0.4094488188976378
        },
        {
          "duration": 0.11538450000000466,
          "durationTicks": 96,
          "midi": 58,
          "name": "A#3",
          "ticks": 33792,
          "time": 40.61534399999999,
          "velocity": 0.4094488188976378
        },
        {
          "duration": 0.11538450000000466,
          "durationTicks": 96,
          "midi": 63,
          "name": "D#4",
          "ticks": 33792,
          "time": 40.61534399999999,
          "velocity": 0.4094488188976378
        },
        {
          "duration": 0.11538450000000466,
          "durationTicks": 96,
          "midi": 65,
          "name": "F4",
          "ticks": 33792,
          "time": 40.61534399999999,
          "velocity": 0.4094488188976378
        },
        {
          "duration": 0.11538449999999756,
          "durationTicks": 96,
          "midi": 61,
          "name": "C#4",
          "ticks": 33888,
          "time": 40.7307285,
          "velocity": 0.4094488188976378
        },
        {
          "duration": 0.11538449999999756,
          "durationTicks": 96,
          "midi": 58,
          "name": "A#3",
          "ticks": 33984,
          "time": 40.846112999999995,
          "velocity": 0.4094488188976378
        },
        {
          "duration": 0.11538450000000466,
          "durationTicks": 96,
          "midi": 70,
          "name": "A#4",
          "ticks": 34080,
          "time": 40.96149749999999,
          "velocity": 0.4094488188976378
        },
        {
          "duration": 0.11538450000000466,
          "durationTicks": 96,
          "midi": 56,
          "name": "G#3",
          "ticks": 34080,
          "time": 40.96149749999999,
          "velocity": 0.4094488188976378
        },
        {
          "duration": 0.11538450000000466,
          "durationTicks": 96,
          "midi": 65,
          "name": "F4",
          "ticks": 34080,
          "time": 40.96149749999999,
          "velocity": 0.4094488188976378
        },
        {
          "duration": 0.23076899999999512,
          "durationTicks": 192,
          "midi": 74,
          "name": "D5",
          "ticks": 34176,
          "time": 41.076882,
          "velocity": 0.4094488188976378
        },
        {
          "duration": 0.23076899999999512,
          "durationTicks": 192,
          "midi": 79,
          "name": "G5",
          "ticks": 34176,
          "time": 41.076882,
          "velocity": 0.4094488188976378
        },
        {
          "duration": 0.23076900000000222,
          "durationTicks": 192,
          "midi": 65,
          "name": "F4",
          "ticks": 34368,
          "time": 41.30765099999999,
          "velocity": 0.4094488188976378
        },
        {
          "duration": 0.23076900000000222,
          "durationTicks": 192,
          "midi": 70,
          "name": "A#4",
          "ticks": 34368,
          "time": 41.30765099999999,
          "velocity": 0.4094488188976378
        },
        {
          "duration": 0.23076900000000222,
          "durationTicks": 192,
          "midi": 73,
          "name": "C#5",
          "ticks": 34560,
          "time": 41.538419999999995,
          "velocity": 0.4094488188976378
        },
        {
          "duration": 0.23076900000000222,
          "durationTicks": 192,
          "midi": 78,
          "name": "F#5",
          "ticks": 34560,
          "time": 41.538419999999995,
          "velocity": 0.4094488188976378
        },
        {
          "duration": 0.23076899999999512,
          "durationTicks": 192,
          "midi": 76,
          "name": "E5",
          "ticks": 34752,
          "time": 41.769189,
          "velocity": 0.4094488188976378
        },
        {
          "duration": 0.11538449999999756,
          "durationTicks": 96,
          "midi": 65,
          "name": "F4",
          "ticks": 34752,
          "time": 41.769189,
          "velocity": 0.4094488188976378
        },
        {
          "duration": 0.11538449999999756,
          "durationTicks": 96,
          "midi": 71,
          "name": "B4",
          "ticks": 34752,
          "time": 41.769189,
          "velocity": 0.4094488188976378
        },
        {
          "duration": 0.23076900000000222,
          "durationTicks": 192,
          "midi": 49,
          "name": "C#3",
          "ticks": 34944,
          "time": 41.99995799999999,
          "velocity": 0.4094488188976378
        },
        {
          "duration": 0.11538449999999756,
          "durationTicks": 96,
          "midi": 53,
          "name": "F3",
          "ticks": 35136,
          "time": 42.230726999999995,
          "velocity": 0.4094488188976378
        },
        {
          "duration": 0.23076900000000222,
          "durationTicks": 192,
          "midi": 73,
          "name": "C#5",
          "ticks": 35136,
          "time": 42.230726999999995,
          "velocity": 0.4094488188976378
        },
        {
          "duration": 0.23076900000000222,
          "durationTicks": 192,
          "midi": 69,
          "name": "A4",
          "ticks": 35136,
          "time": 42.230726999999995,
          "velocity": 0.4094488188976378
        },
        {
          "duration": 0.11538449999999756,
          "durationTicks": 96,
          "midi": 65,
          "name": "F4",
          "ticks": 35136,
          "time": 42.230726999999995,
          "velocity": 0.4094488188976378
        },
        {
          "duration": 0.11538449999999756,
          "durationTicks": 96,
          "midi": 73,
          "name": "C#5",
          "ticks": 35328,
          "time": 42.461496,
          "velocity": 0.4094488188976378
        },
        {
          "duration": 0.11538449999999756,
          "durationTicks": 96,
          "midi": 68,
          "name": "G#4",
          "ticks": 35328,
          "time": 42.461496,
          "velocity": 0.4094488188976378
        },
        {
          "duration": 0.11538449999999756,
          "durationTicks": 96,
          "midi": 61,
          "name": "C#4",
          "ticks": 35328,
          "time": 42.461496,
          "velocity": 0.4094488188976378
        },
        {
          "duration": 0.11538449999999756,
          "durationTicks": 96,
          "midi": 59,
          "name": "B3",
          "ticks": 35424,
          "time": 42.576880499999994,
          "velocity": 0.4094488188976378
        },
        {
          "duration": 0.11538450000000466,
          "durationTicks": 96,
          "midi": 56,
          "name": "G#3",
          "ticks": 35520,
          "time": 42.69226499999999,
          "velocity": 0.4094488188976378
        },
        {
          "duration": 0.11538450000000466,
          "durationTicks": 96,
          "midi": 71,
          "name": "B4",
          "ticks": 35520,
          "time": 42.69226499999999,
          "velocity": 0.4094488188976378
        },
        {
          "duration": 0.11538450000000466,
          "durationTicks": 96,
          "midi": 68,
          "name": "G#4",
          "ticks": 35520,
          "time": 42.69226499999999,
          "velocity": 0.4094488188976378
        },
        {
          "duration": 0.11538449999999756,
          "durationTicks": 96,
          "midi": 73,
          "name": "C#5",
          "ticks": 35616,
          "time": 42.8076495,
          "velocity": 0.4094488188976378
        },
        {
          "duration": 0.11538449999999756,
          "durationTicks": 96,
          "midi": 55,
          "name": "G3",
          "ticks": 35616,
          "time": 42.8076495,
          "velocity": 0.4094488188976378
        },
        {
          "duration": 0.11538449999999756,
          "durationTicks": 96,
          "midi": 68,
          "name": "G#4",
          "ticks": 35616,
          "time": 42.8076495,
          "velocity": 0.4094488188976378
        },
        {
          "duration": 0.23076900000000222,
          "durationTicks": 192,
          "midi": 54,
          "name": "F#3",
          "ticks": 35712,
          "time": 42.923033999999994,
          "velocity": 0.4094488188976378
        },
        {
          "duration": 0.11538449999999756,
          "durationTicks": 96,
          "midi": 71,
          "name": "B4",
          "ticks": 35712,
          "time": 42.923033999999994,
          "velocity": 0.4094488188976378
        },
        {
          "duration": 0.11538449999999756,
          "durationTicks": 96,
          "midi": 68,
          "name": "G#4",
          "ticks": 35712,
          "time": 42.923033999999994,
          "velocity": 0.4094488188976378
        },
        {
          "duration": 0.11538449999999756,
          "durationTicks": 96,
          "midi": 71,
          "name": "B4",
          "ticks": 35904,
          "time": 43.153802999999996,
          "velocity": 0.4094488188976378
        },
        {
          "duration": 0.11538449999999756,
          "durationTicks": 96,
          "midi": 61,
          "name": "C#4",
          "ticks": 35904,
          "time": 43.153802999999996,
          "velocity": 0.4094488188976378
        },
        {
          "duration": 0.11538449999999756,
          "durationTicks": 96,
          "midi": 53,
          "name": "F3",
          "ticks": 35904,
          "time": 43.153802999999996,
          "velocity": 0.4094488188976378
        },
        {
          "duration": 0.11538449999999756,
          "durationTicks": 96,
          "midi": 68,
          "name": "G#4",
          "ticks": 35904,
          "time": 43.153802999999996,
          "velocity": 0.4094488188976378
        },
        {
          "duration": 0.11538449999999756,
          "durationTicks": 96,
          "midi": 49,
          "name": "C#3",
          "ticks": 35904,
          "time": 43.153802999999996,
          "velocity": 0.4094488188976378
        },
        {
          "duration": 0.11538450000000466,
          "durationTicks": 96,
          "midi": 49,
          "name": "C#3",
          "ticks": 36000,
          "time": 43.269187499999994,
          "velocity": 0.4094488188976378
        },
        {
          "duration": 0.11538449999999756,
          "durationTicks": 96,
          "midi": 71,
          "name": "B4",
          "ticks": 36096,
          "time": 43.384572,
          "velocity": 0.4094488188976378
        },
        {
          "duration": 0.11538449999999756,
          "durationTicks": 96,
          "midi": 68,
          "name": "G#4",
          "ticks": 36096,
          "time": 43.384572,
          "velocity": 0.4094488188976378
        },
        {
          "duration": 0.11538450000000466,
          "durationTicks": 96,
          "midi": 61,
          "name": "C#4",
          "ticks": 36288,
          "time": 43.615340999999994,
          "velocity": 0.4094488188976378
        },
        {
          "duration": 0.11538450000000466,
          "durationTicks": 96,
          "midi": 68,
          "name": "G#4",
          "ticks": 36288,
          "time": 43.615340999999994,
          "velocity": 0.4094488188976378
        },
        {
          "duration": 0.11538450000000466,
          "durationTicks": 96,
          "midi": 52,
          "name": "E3",
          "ticks": 36288,
          "time": 43.615340999999994,
          "velocity": 0.4094488188976378
        },
        {
          "duration": 0.11538450000000466,
          "durationTicks": 96,
          "midi": 71,
          "name": "B4",
          "ticks": 36288,
          "time": 43.615340999999994,
          "velocity": 0.4094488188976378
        },
        {
          "duration": 0.11538450000000466,
          "durationTicks": 96,
          "midi": 56,
          "name": "G#3",
          "ticks": 36288,
          "time": 43.615340999999994,
          "velocity": 0.4094488188976378
        },
        {
          "duration": 0.11538449999999756,
          "durationTicks": 96,
          "midi": 51,
          "name": "D#3",
          "ticks": 36480,
          "time": 43.846109999999996,
          "velocity": 0.4094488188976378
        },
        {
          "duration": 0.11538449999999756,
          "durationTicks": 96,
          "midi": 63,
          "name": "D#4",
          "ticks": 36480,
          "time": 43.846109999999996,
          "velocity": 0.4094488188976378
        },
        {
          "duration": 0.11538449999999756,
          "durationTicks": 96,
          "midi": 68,
          "name": "G#4",
          "ticks": 36480,
          "time": 43.846109999999996,
          "velocity": 0.4094488188976378
        },
        {
          "duration": 0.11538449999999756,
          "durationTicks": 96,
          "midi": 71,
          "name": "B4",
          "ticks": 36480,
          "time": 43.846109999999996,
          "velocity": 0.4094488188976378
        },
        {
          "duration": 0.11538449999999756,
          "durationTicks": 96,
          "midi": 56,
          "name": "G#3",
          "ticks": 36480,
          "time": 43.846109999999996,
          "velocity": 0.4094488188976378
        },
        {
          "duration": 0.11538449999999756,
          "durationTicks": 96,
          "midi": 71,
          "name": "B4",
          "ticks": 36672,
          "time": 44.076879,
          "velocity": 0.4094488188976378
        },
        {
          "duration": 0.11538449999999756,
          "durationTicks": 96,
          "midi": 68,
          "name": "G#4",
          "ticks": 36672,
          "time": 44.076879,
          "velocity": 0.4094488188976378
        },
        {
          "duration": 0.11538449999999756,
          "durationTicks": 96,
          "midi": 61,
          "name": "C#4",
          "ticks": 36672,
          "time": 44.076879,
          "velocity": 0.4094488188976378
        },
        {
          "duration": 0.11538449999999756,
          "durationTicks": 96,
          "midi": 53,
          "name": "F3",
          "ticks": 36672,
          "time": 44.076879,
          "velocity": 0.4094488188976378
        },
        {
          "duration": 0.11538449999999756,
          "durationTicks": 96,
          "midi": 49,
          "name": "C#3",
          "ticks": 36672,
          "time": 44.076879,
          "velocity": 0.4094488188976378
        },
        {
          "duration": 0.11538449999999756,
          "durationTicks": 96,
          "midi": 55,
          "name": "G3",
          "ticks": 37056,
          "time": 44.538416999999995,
          "velocity": 0.4094488188976378
        },
        {
          "duration": 0.11538449999999756,
          "durationTicks": 96,
          "midi": 55,
          "name": "G3",
          "ticks": 37248,
          "time": 44.769186,
          "velocity": 0.4094488188976378
        },
        {
          "duration": 0.11538450000000466,
          "durationTicks": 96,
          "midi": 55,
          "name": "G3",
          "ticks": 37440,
          "time": 44.99995499999999,
          "velocity": 0.4094488188976378
        },
        {
          "duration": 0.11538449999999756,
          "durationTicks": 96,
          "midi": 55,
          "name": "G3",
          "ticks": 37632,
          "time": 45.230723999999995,
          "velocity": 0.4094488188976378
        },
        {
          "duration": 0.11538449999999756,
          "durationTicks": 96,
          "midi": 51,
          "name": "D#3",
          "ticks": 38208,
          "time": 45.923030999999995,
          "velocity": 0.4094488188976378
        },
        {
          "duration": 0.11538449999999756,
          "durationTicks": 96,
          "midi": 56,
          "name": "G#3",
          "ticks": 38400,
          "time": 46.1538,
          "velocity": 0.4094488188976378
        },
        {
          "duration": 0.11538449999999756,
          "durationTicks": 96,
          "midi": 49,
          "name": "C#3",
          "ticks": 38976,
          "time": 46.846106999999996,
          "velocity": 0.4094488188976378
        },
        {
          "duration": 0.11538450000000466,
          "durationTicks": 96,
          "midi": 51,
          "name": "D#3",
          "ticks": 39168,
          "time": 47.07687599999999,
          "velocity": 0.4094488188976378
        },
        {
          "duration": 0.11538449999999756,
          "durationTicks": 96,
          "midi": 49,
          "name": "C#3",
          "ticks": 39360,
          "time": 47.307644999999994,
          "velocity": 0.4094488188976378
        },
        {
          "duration": 0.11538449999999756,
          "durationTicks": 96,
          "midi": 54,
          "name": "F#3",
          "ticks": 39552,
          "time": 47.538413999999996,
          "velocity": 0.4094488188976378
        },
        {
          "duration": 0.46153799999999734,
          "durationTicks": 384,
          "midi": 58,
          "name": "A#3",
          "ticks": 39744,
          "time": 47.769183,
          "velocity": 0.4094488188976378
        },
        {
          "duration": 0.11538449999999756,
          "durationTicks": 96,
          "midi": 54,
          "name": "F#3",
          "ticks": 40128,
          "time": 48.230720999999996,
          "velocity": 0.4094488188976378
        },
        {
          "duration": 0.11538449999999756,
          "durationTicks": 96,
          "midi": 54,
          "name": "F#3",
          "ticks": 40320,
          "time": 48.46149,
          "velocity": 0.4094488188976378
        },
        {
          "duration": 0.11538449999999756,
          "durationTicks": 96,
          "midi": 61,
          "name": "C#4",
          "ticks": 40320,
          "time": 48.46149,
          "velocity": 0.4094488188976378
        },
        {
          "duration": 0.11538450000000466,
          "durationTicks": 96,
          "midi": 54,
          "name": "F#3",
          "ticks": 40512,
          "time": 48.69225899999999,
          "velocity": 0.4094488188976378
        },
        {
          "duration": 0.11538450000000466,
          "durationTicks": 96,
          "midi": 60,
          "name": "C4",
          "ticks": 40512,
          "time": 48.69225899999999,
          "velocity": 0.4094488188976378
        },
        {
          "duration": 0.11538449999999756,
          "durationTicks": 96,
          "midi": 58,
          "name": "A#3",
          "ticks": 40704,
          "time": 48.923027999999995,
          "velocity": 0.4094488188976378
        },
        {
          "duration": 0.11538449999999756,
          "durationTicks": 96,
          "midi": 54,
          "name": "F#3",
          "ticks": 40704,
          "time": 48.923027999999995,
          "velocity": 0.4094488188976378
        },
        {
          "duration": 0.23076900000000222,
          "durationTicks": 192,
          "midi": 58,
          "name": "A#3",
          "ticks": 41088,
          "time": 49.38456599999999,
          "velocity": 0.4094488188976378
        },
        {
          "duration": 0.23076900000000222,
          "durationTicks": 192,
          "midi": 64,
          "name": "E4",
          "ticks": 41088,
          "time": 49.38456599999999,
          "velocity": 0.4094488188976378
        },
        {
          "duration": 0.11538449999999756,
          "durationTicks": 96,
          "midi": 47,
          "name": "B2",
          "ticks": 41472,
          "time": 49.846104,
          "velocity": 0.4094488188976378
        },
        {
          "duration": 0.11538449999999756,
          "durationTicks": 96,
          "midi": 51,
          "name": "D#3",
          "ticks": 41472,
          "time": 49.846104,
          "velocity": 0.4094488188976378
        },
        {
          "duration": 0.11538450000000466,
          "durationTicks": 96,
          "midi": 47,
          "name": "B2",
          "ticks": 41664,
          "time": 50.07687299999999,
          "velocity": 0.4094488188976378
        },
        {
          "duration": 0.11538450000000466,
          "durationTicks": 96,
          "midi": 51,
          "name": "D#3",
          "ticks": 41664,
          "time": 50.07687299999999,
          "velocity": 0.4094488188976378
        },
        {
          "duration": 0.11538449999999756,
          "durationTicks": 96,
          "midi": 46,
          "name": "A#2",
          "ticks": 41856,
          "time": 50.307641999999994,
          "velocity": 0.4094488188976378
        },
        {
          "duration": 0.11538449999999756,
          "durationTicks": 96,
          "midi": 51,
          "name": "D#3",
          "ticks": 41856,
          "time": 50.307641999999994,
          "velocity": 0.4094488188976378
        },
        {
          "duration": 0.11538449999999756,
          "durationTicks": 96,
          "midi": 51,
          "name": "D#3",
          "ticks": 42048,
          "time": 50.538410999999996,
          "velocity": 0.4094488188976378
        },
        {
          "duration": 0.11538449999999756,
          "durationTicks": 96,
          "midi": 44,
          "name": "G#2",
          "ticks": 42048,
          "time": 50.538410999999996,
          "velocity": 0.4094488188976378
        },
        {
          "duration": 0.11538449999999756,
          "durationTicks": 96,
          "midi": 63,
          "name": "D#4",
          "ticks": 43008,
          "time": 51.69225599999999,
          "velocity": 0.4094488188976378
        },
        {
          "duration": 0.11538449999999756,
          "durationTicks": 96,
          "midi": 63,
          "name": "D#4",
          "ticks": 43296,
          "time": 52.03840949999999,
          "velocity": 0.4094488188976378
        },
        {
          "duration": 0.11538450000000466,
          "durationTicks": 96,
          "midi": 63,
          "name": "D#4",
          "ticks": 43584,
          "time": 52.38456299999999,
          "velocity": 0.4094488188976378
        },
        {
          "duration": 0.11538449999999756,
          "durationTicks": 96,
          "midi": 55,
          "name": "G3",
          "ticks": 43776,
          "time": 52.615331999999995,
          "velocity": 0.4094488188976378
        },
        {
          "duration": 0.11538449999999756,
          "durationTicks": 96,
          "midi": 61,
          "name": "C#4",
          "ticks": 43776,
          "time": 52.615331999999995,
          "velocity": 0.4094488188976378
        },
        {
          "duration": 0.11538449999999756,
          "durationTicks": 96,
          "midi": 61,
          "name": "C#4",
          "ticks": 44064,
          "time": 52.961485499999995,
          "velocity": 0.4094488188976378
        },
        {
          "duration": 0.11538449999999756,
          "durationTicks": 96,
          "midi": 55,
          "name": "G3",
          "ticks": 44064,
          "time": 52.961485499999995,
          "velocity": 0.4094488188976378
        },
        {
          "duration": 0.11538449999999756,
          "durationTicks": 96,
          "midi": 61,
          "name": "C#4",
          "ticks": 44352,
          "time": 53.307638999999995,
          "velocity": 0.4094488188976378
        },
        {
          "duration": 0.11538449999999756,
          "durationTicks": 96,
          "midi": 55,
          "name": "G3",
          "ticks": 44352,
          "time": 53.307638999999995,
          "velocity": 0.4094488188976378
        },
        {
          "duration": 0.11538449999999756,
          "durationTicks": 96,
          "midi": 59,
          "name": "B3",
          "ticks": 44544,
          "time": 53.538408,
          "velocity": 0.4094488188976378
        },
        {
          "duration": 0.11538449999999756,
          "durationTicks": 96,
          "midi": 63,
          "name": "D#4",
          "ticks": 44544,
          "time": 53.538408,
          "velocity": 0.4094488188976378
        },
        {
          "duration": 0.11538449999999756,
          "durationTicks": 96,
          "midi": 63,
          "name": "D#4",
          "ticks": 44832,
          "time": 53.8845615,
          "velocity": 0.4094488188976378
        },
        {
          "duration": 0.11538449999999756,
          "durationTicks": 96,
          "midi": 59,
          "name": "B3",
          "ticks": 44832,
          "time": 53.8845615,
          "velocity": 0.4094488188976378
        },
        {
          "duration": 0.11538449999999756,
          "durationTicks": 96,
          "midi": 59,
          "name": "B3",
          "ticks": 45120,
          "time": 54.230715,
          "velocity": 0.4094488188976378
        },
        {
          "duration": 0.11538449999999756,
          "durationTicks": 96,
          "midi": 63,
          "name": "D#4",
          "ticks": 45120,
          "time": 54.230715,
          "velocity": 0.4094488188976378
        },
        {
          "duration": 0.11538450000000466,
          "durationTicks": 96,
          "midi": 61,
          "name": "C#4",
          "ticks": 45312,
          "time": 54.46148399999999,
          "velocity": 0.4094488188976378
        },
        {
          "duration": 0.11538450000000466,
          "durationTicks": 96,
          "midi": 54,
          "name": "F#3",
          "ticks": 45312,
          "time": 54.46148399999999,
          "velocity": 0.4094488188976378
        },
        {
          "duration": 0.11538450000000466,
          "durationTicks": 96,
          "midi": 61,
          "name": "C#4",
          "ticks": 45600,
          "time": 54.80763749999999,
          "velocity": 0.4094488188976378
        },
        {
          "duration": 0.11538450000000466,
          "durationTicks": 96,
          "midi": 54,
          "name": "F#3",
          "ticks": 45600,
          "time": 54.80763749999999,
          "velocity": 0.4094488188976378
        },
        {
          "duration": 0.11538450000000466,
          "durationTicks": 96,
          "midi": 54,
          "name": "F#3",
          "ticks": 45888,
          "time": 55.15379099999999,
          "velocity": 0.4094488188976378
        },
        {
          "duration": 0.11538450000000466,
          "durationTicks": 96,
          "midi": 61,
          "name": "C#4",
          "ticks": 45888,
          "time": 55.15379099999999,
          "velocity": 0.4094488188976378
        },
        {
          "duration": 0.11538449999999756,
          "durationTicks": 96,
          "midi": 67,
          "name": "G4",
          "ticks": 46080,
          "time": 55.38455999999999,
          "velocity": 0.4094488188976378
        },
        {
          "duration": 0.11538449999999756,
          "durationTicks": 96,
          "midi": 58,
          "name": "A#3",
          "ticks": 46080,
          "time": 55.38455999999999,
          "velocity": 0.4094488188976378
        },
        {
          "duration": 0.11538449999999756,
          "durationTicks": 96,
          "midi": 67,
          "name": "G4",
          "ticks": 46368,
          "time": 55.73071349999999,
          "velocity": 0.4094488188976378
        },
        {
          "duration": 0.11538449999999756,
          "durationTicks": 96,
          "midi": 58,
          "name": "A#3",
          "ticks": 46368,
          "time": 55.73071349999999,
          "velocity": 0.4094488188976378
        },
        {
          "duration": 0.11538449999999756,
          "durationTicks": 96,
          "midi": 58,
          "name": "A#3",
          "ticks": 46656,
          "time": 56.07686699999999,
          "velocity": 0.4094488188976378
        },
        {
          "duration": 0.11538449999999756,
          "durationTicks": 96,
          "midi": 67,
          "name": "G4",
          "ticks": 46656,
          "time": 56.07686699999999,
          "velocity": 0.4094488188976378
        },
        {
          "duration": 0.11538449999999756,
          "durationTicks": 96,
          "midi": 63,
          "name": "D#4",
          "ticks": 46848,
          "time": 56.307635999999995,
          "velocity": 0.4094488188976378
        },
        {
          "duration": 0.11538449999999756,
          "durationTicks": 96,
          "midi": 55,
          "name": "G3",
          "ticks": 46848,
          "time": 56.307635999999995,
          "velocity": 0.4094488188976378
        },
        {
          "duration": 0.11538449999999756,
          "durationTicks": 96,
          "midi": 55,
          "name": "G3",
          "ticks": 47136,
          "time": 56.653789499999995,
          "velocity": 0.4094488188976378
        },
        {
          "duration": 0.11538449999999756,
          "durationTicks": 96,
          "midi": 63,
          "name": "D#4",
          "ticks": 47136,
          "time": 56.653789499999995,
          "velocity": 0.4094488188976378
        },
        {
          "duration": 0.11538449999999756,
          "durationTicks": 96,
          "midi": 63,
          "name": "D#4",
          "ticks": 47424,
          "time": 56.999942999999995,
          "velocity": 0.4094488188976378
        },
        {
          "duration": 0.11538449999999756,
          "durationTicks": 96,
          "midi": 55,
          "name": "G3",
          "ticks": 47424,
          "time": 56.999942999999995,
          "velocity": 0.4094488188976378
        },
        {
          "duration": 0.11538449999999756,
          "durationTicks": 96,
          "midi": 63,
          "name": "D#4",
          "ticks": 47616,
          "time": 57.230712,
          "velocity": 0.4094488188976378
        },
        {
          "duration": 0.11538449999999756,
          "durationTicks": 96,
          "midi": 59,
          "name": "B3",
          "ticks": 47616,
          "time": 57.230712,
          "velocity": 0.4094488188976378
        },
        {
          "duration": 0.11538449999999756,
          "durationTicks": 96,
          "midi": 68,
          "name": "G#4",
          "ticks": 47616,
          "time": 57.230712,
          "velocity": 0.4094488188976378
        },
        {
          "duration": 0.11538449999999756,
          "durationTicks": 96,
          "midi": 63,
          "name": "D#4",
          "ticks": 47904,
          "time": 57.5768655,
          "velocity": 0.4094488188976378
        },
        {
          "duration": 0.11538449999999756,
          "durationTicks": 96,
          "midi": 68,
          "name": "G#4",
          "ticks": 47904,
          "time": 57.5768655,
          "velocity": 0.4094488188976378
        },
        {
          "duration": 0.11538449999999756,
          "durationTicks": 96,
          "midi": 59,
          "name": "B3",
          "ticks": 47904,
          "time": 57.5768655,
          "velocity": 0.4094488188976378
        },
        {
          "duration": 0.11538449999999756,
          "durationTicks": 96,
          "midi": 68,
          "name": "G#4",
          "ticks": 48192,
          "time": 57.923019,
          "velocity": 0.4094488188976378
        },
        {
          "duration": 0.11538449999999756,
          "durationTicks": 96,
          "midi": 63,
          "name": "D#4",
          "ticks": 48192,
          "time": 57.923019,
          "velocity": 0.4094488188976378
        },
        {
          "duration": 0.11538449999999756,
          "durationTicks": 96,
          "midi": 59,
          "name": "B3",
          "ticks": 48192,
          "time": 57.923019,
          "velocity": 0.4094488188976378
        },
        {
          "duration": 0.11538450000000466,
          "durationTicks": 96,
          "midi": 53,
          "name": "F3",
          "ticks": 48384,
          "time": 58.15378799999999,
          "velocity": 0.4094488188976378
        },
        {
          "duration": 0.11538450000000466,
          "durationTicks": 96,
          "midi": 56,
          "name": "G#3",
          "ticks": 48384,
          "time": 58.15378799999999,
          "velocity": 0.4094488188976378
        },
        {
          "duration": 0.11538450000000466,
          "durationTicks": 96,
          "midi": 61,
          "name": "C#4",
          "ticks": 48384,
          "time": 58.15378799999999,
          "velocity": 0.4094488188976378
        },
        {
          "duration": 0.11538450000000466,
          "durationTicks": 96,
          "midi": 61,
          "name": "C#4",
          "ticks": 48672,
          "time": 58.49994149999999,
          "velocity": 0.4094488188976378
        },
        {
          "duration": 0.11538450000000466,
          "durationTicks": 96,
          "midi": 56,
          "name": "G#3",
          "ticks": 48672,
          "time": 58.49994149999999,
          "velocity": 0.4094488188976378
        },
        {
          "duration": 0.11538450000000466,
          "durationTicks": 96,
          "midi": 53,
          "name": "F3",
          "ticks": 48672,
          "time": 58.49994149999999,
          "velocity": 0.4094488188976378
        },
        {
          "duration": 0.11538450000000466,
          "durationTicks": 96,
          "midi": 61,
          "name": "C#4",
          "ticks": 48960,
          "time": 58.84609499999999,
          "velocity": 0.4094488188976378
        },
        {
          "duration": 0.11538450000000466,
          "durationTicks": 96,
          "midi": 56,
          "name": "G#3",
          "ticks": 48960,
          "time": 58.84609499999999,
          "velocity": 0.4094488188976378
        },
        {
          "duration": 0.11538450000000466,
          "durationTicks": 96,
          "midi": 53,
          "name": "F3",
          "ticks": 48960,
          "time": 58.84609499999999,
          "velocity": 0.4094488188976378
        }
      ],
      "endOfTrackTicks": 49056
    },
    {
      "channel": 1,
      "controlChanges": {},
      "pitchBends": [],
      "instrument": {
        "family": "piano",
        "number": 0,
        "name": "acoustic grand piano"
      },
      "name": "Grand Piano (Classic)",
      "notes": [
        {
          "duration": 0.11538449999999999,
          "durationTicks": 96,
          "midi": 42,
          "name": "F#2",
          "ticks": 0,
          "time": 0,
          "velocity": 0.3937007874015748
        },
        {
          "duration": 0.1153845,
          "durationTicks": 96,
          "midi": 51,
          "name": "D#3",
          "ticks": 288,
          "time": 0.34615349999999995,
          "velocity": 0.3937007874015748
        },
        {
          "duration": 0.11538449999999995,
          "durationTicks": 96,
          "midi": 51,
          "name": "D#3",
          "ticks": 384,
          "time": 0.46153799999999995,
          "velocity": 0.3937007874015748
        },
        {
          "duration": 0.11538449999999995,
          "durationTicks": 96,
          "midi": 42,
          "name": "F#2",
          "ticks": 384,
          "time": 0.46153799999999995,
          "velocity": 0.3937007874015748
        },
        {
          "duration": 0.1153845,
          "durationTicks": 96,
          "midi": 55,
          "name": "G3",
          "ticks": 576,
          "time": 0.6923069999999999,
          "velocity": 0.3937007874015748
        },
        {
          "duration": 0.1153845,
          "durationTicks": 96,
          "midi": 49,
          "name": "C#3",
          "ticks": 576,
          "time": 0.6923069999999999,
          "velocity": 0.3937007874015748
        },
        {
          "duration": 0.11538449999999989,
          "durationTicks": 96,
          "midi": 42,
          "name": "F#2",
          "ticks": 768,
          "time": 0.9230759999999999,
          "velocity": 0.3937007874015748
        },
        {
          "duration": 0.1153845,
          "durationTicks": 96,
          "midi": 54,
          "name": "F#3",
          "ticks": 960,
          "time": 1.1538449999999998,
          "velocity": 0.3937007874015748
        },
        {
          "duration": 0.1153845,
          "durationTicks": 96,
          "midi": 49,
          "name": "C#3",
          "ticks": 960,
          "time": 1.1538449999999998,
          "velocity": 0.3937007874015748
        },
        {
          "duration": 0.1153845,
          "durationTicks": 96,
          "midi": 49,
          "name": "C#3",
          "ticks": 1152,
          "time": 1.3846139999999998,
          "velocity": 0.3937007874015748
        },
        {
          "duration": 0.1153845,
          "durationTicks": 96,
          "midi": 42,
          "name": "F#2",
          "ticks": 1152,
          "time": 1.3846139999999998,
          "velocity": 0.3937007874015748
        },
        {
          "duration": 0.1153845,
          "durationTicks": 96,
          "midi": 49,
          "name": "C#3",
          "ticks": 1344,
          "time": 1.6153829999999998,
          "velocity": 0.3937007874015748
        },
        {
          "duration": 0.1153845,
          "durationTicks": 96,
          "midi": 43,
          "name": "G2",
          "ticks": 1536,
          "time": 1.8461519999999998,
          "velocity": 0.3937007874015748
        },
        {
          "duration": 0.11538449999999978,
          "durationTicks": 96,
          "midi": 51,
          "name": "D#3",
          "ticks": 1824,
          "time": 2.1923055,
          "velocity": 0.3937007874015748
        },
        {
          "duration": 0.11538450000000022,
          "durationTicks": 96,
          "midi": 51,
          "name": "D#3",
          "ticks": 1920,
          "time": 2.3076899999999996,
          "velocity": 0.3937007874015748
        },
        {
          "duration": 0.11538450000000022,
          "durationTicks": 96,
          "midi": 43,
          "name": "G2",
          "ticks": 1920,
          "time": 2.3076899999999996,
          "velocity": 0.3937007874015748
        },
        {
          "duration": 0.11538450000000022,
          "durationTicks": 96,
          "midi": 49,
          "name": "C#3",
          "ticks": 2112,
          "time": 2.5384589999999996,
          "velocity": 0.3937007874015748
        },
        {
          "duration": 0.11538450000000022,
          "durationTicks": 96,
          "midi": 53,
          "name": "F3",
          "ticks": 2112,
          "time": 2.5384589999999996,
          "velocity": 0.3937007874015748
        },
        {
          "duration": 0.11538450000000022,
          "durationTicks": 96,
          "midi": 43,
          "name": "G2",
          "ticks": 2304,
          "time": 2.7692279999999996,
          "velocity": 0.3937007874015748
        },
        {
          "duration": 0.11538450000000022,
          "durationTicks": 96,
          "midi": 52,
          "name": "E3",
          "ticks": 2496,
          "time": 2.9999969999999996,
          "velocity": 0.3937007874015748
        },
        {
          "duration": 0.11538450000000022,
          "durationTicks": 96,
          "midi": 49,
          "name": "C#3",
          "ticks": 2496,
          "time": 2.9999969999999996,
          "velocity": 0.3937007874015748
        },
        {
          "duration": 0.11538450000000022,
          "durationTicks": 96,
          "midi": 51,
          "name": "D#3",
          "ticks": 2688,
          "time": 3.2307659999999996,
          "velocity": 0.3937007874015748
        },
        {
          "duration": 0.11538450000000022,
          "durationTicks": 96,
          "midi": 43,
          "name": "G2",
          "ticks": 2688,
          "time": 3.2307659999999996,
          "velocity": 0.3937007874015748
        },
        {
          "duration": 0.11538450000000022,
          "durationTicks": 96,
          "midi": 51,
          "name": "D#3",
          "ticks": 2880,
          "time": 3.4615349999999996,
          "velocity": 0.3937007874015748
        },
        {
          "duration": 0.11538449999999978,
          "durationTicks": 96,
          "midi": 44,
          "name": "G#2",
          "ticks": 3072,
          "time": 3.6923039999999996,
          "velocity": 0.3937007874015748
        },
        {
          "duration": 0.11538449999999933,
          "durationTicks": 96,
          "midi": 51,
          "name": "D#3",
          "ticks": 3360,
          "time": 4.0384575,
          "velocity": 0.3937007874015748
        },
        {
          "duration": 0.11538450000000022,
          "durationTicks": 96,
          "midi": 44,
          "name": "G#2",
          "ticks": 3456,
          "time": 4.153841999999999,
          "velocity": 0.3937007874015748
        },
        {
          "duration": 0.11538450000000022,
          "durationTicks": 96,
          "midi": 51,
          "name": "D#3",
          "ticks": 3456,
          "time": 4.153841999999999,
          "velocity": 0.3937007874015748
        },
        {
          "duration": 0.11538450000000022,
          "durationTicks": 96,
          "midi": 55,
          "name": "G3",
          "ticks": 3648,
          "time": 4.384611,
          "velocity": 0.3937007874015748
        },
        {
          "duration": 0.11538450000000022,
          "durationTicks": 96,
          "midi": 49,
          "name": "C#3",
          "ticks": 3648,
          "time": 4.384611,
          "velocity": 0.3937007874015748
        },
        {
          "duration": 0.11538450000000022,
          "durationTicks": 96,
          "midi": 44,
          "name": "G#2",
          "ticks": 3840,
          "time": 4.615379999999999,
          "velocity": 0.3937007874015748
        },
        {
          "duration": 0.11538450000000022,
          "durationTicks": 96,
          "midi": 54,
          "name": "F#3",
          "ticks": 4032,
          "time": 4.846149,
          "velocity": 0.3937007874015748
        },
        {
          "duration": 0.11538450000000022,
          "durationTicks": 96,
          "midi": 49,
          "name": "C#3",
          "ticks": 4032,
          "time": 4.846149,
          "velocity": 0.3937007874015748
        },
        {
          "duration": 0.11538450000000022,
          "durationTicks": 96,
          "midi": 51,
          "name": "D#3",
          "ticks": 4224,
          "time": 5.076917999999999,
          "velocity": 0.3937007874015748
        },
        {
          "duration": 0.11538450000000022,
          "durationTicks": 96,
          "midi": 44,
          "name": "G#2",
          "ticks": 4224,
          "time": 5.076917999999999,
          "velocity": 0.3937007874015748
        },
        {
          "duration": 0.11538450000000022,
          "durationTicks": 96,
          "midi": 51,
          "name": "D#3",
          "ticks": 4416,
          "time": 5.307687,
          "velocity": 0.3937007874015748
        },
        {
          "duration": 0.11538450000000022,
          "durationTicks": 96,
          "midi": 43,
          "name": "G2",
          "ticks": 4608,
          "time": 5.538455999999999,
          "velocity": 0.3937007874015748
        },
        {
          "duration": 0.11538450000000022,
          "durationTicks": 96,
          "midi": 51,
          "name": "D#3",
          "ticks": 4896,
          "time": 5.884609499999999,
          "velocity": 0.3937007874015748
        },
        {
          "duration": 0.11538450000000022,
          "durationTicks": 96,
          "midi": 51,
          "name": "D#3",
          "ticks": 4992,
          "time": 5.999993999999999,
          "velocity": 0.3937007874015748
        },
        {
          "duration": 0.11538450000000022,
          "durationTicks": 96,
          "midi": 43,
          "name": "G2",
          "ticks": 4992,
          "time": 5.999993999999999,
          "velocity": 0.3937007874015748
        },
        {
          "duration": 0.11538449999999933,
          "durationTicks": 96,
          "midi": 49,
          "name": "C#3",
          "ticks": 5184,
          "time": 6.230763,
          "velocity": 0.3937007874015748
        },
        {
          "duration": 0.11538449999999933,
          "durationTicks": 96,
          "midi": 51,
          "name": "D#3",
          "ticks": 5184,
          "time": 6.230763,
          "velocity": 0.3937007874015748
        },
        {
          "duration": 0.11538450000000022,
          "durationTicks": 96,
          "midi": 51,
          "name": "D#3",
          "ticks": 5376,
          "time": 6.461531999999999,
          "velocity": 0.3937007874015748
        },
        {
          "duration": 0.11538450000000022,
          "durationTicks": 96,
          "midi": 43,
          "name": "G2",
          "ticks": 5376,
          "time": 6.461531999999999,
          "velocity": 0.3937007874015748
        },
        {
          "duration": 0.11538449999999933,
          "durationTicks": 96,
          "midi": 51,
          "name": "D#3",
          "ticks": 5568,
          "time": 6.692301,
          "velocity": 0.3937007874015748
        },
        {
          "duration": 0.11538450000000022,
          "durationTicks": 96,
          "midi": 51,
          "name": "D#3",
          "ticks": 5664,
          "time": 6.807685499999999,
          "velocity": 0.3937007874015748
        },
        {
          "duration": 0.11538450000000022,
          "durationTicks": 96,
          "midi": 43,
          "name": "G2",
          "ticks": 5760,
          "time": 6.923069999999999,
          "velocity": 0.3937007874015748
        },
        {
          "duration": 0.11538450000000022,
          "durationTicks": 96,
          "midi": 51,
          "name": "D#3",
          "ticks": 5760,
          "time": 6.923069999999999,
          "velocity": 0.3937007874015748
        },
        {
          "duration": 0.11538449999999933,
          "durationTicks": 96,
          "midi": 51,
          "name": "D#3",
          "ticks": 5952,
          "time": 7.153839,
          "velocity": 0.3937007874015748
        },
        {
          "duration": 0.11538450000000022,
          "durationTicks": 96,
          "midi": 42,
          "name": "F#2",
          "ticks": 6144,
          "time": 7.384607999999999,
          "velocity": 0.3937007874015748
        },
        {
          "duration": 0.11538450000000022,
          "durationTicks": 96,
          "midi": 51,
          "name": "D#3",
          "ticks": 6432,
          "time": 7.730761499999999,
          "velocity": 0.3937007874015748
        },
        {
          "duration": 0.11538450000000022,
          "durationTicks": 96,
          "midi": 51,
          "name": "D#3",
          "ticks": 6528,
          "time": 7.846145999999999,
          "velocity": 0.3937007874015748
        },
        {
          "duration": 0.11538450000000022,
          "durationTicks": 96,
          "midi": 42,
          "name": "F#2",
          "ticks": 6528,
          "time": 7.846145999999999,
          "velocity": 0.3937007874015748
        },
        {
          "duration": 0.11538449999999933,
          "durationTicks": 96,
          "midi": 55,
          "name": "G3",
          "ticks": 6720,
          "time": 8.076915,
          "velocity": 0.3937007874015748
        },
        {
          "duration": 0.11538449999999933,
          "durationTicks": 96,
          "midi": 49,
          "name": "C#3",
          "ticks": 6720,
          "time": 8.076915,
          "velocity": 0.3937007874015748
        },
        {
          "duration": 0.11538450000000111,
          "durationTicks": 96,
          "midi": 42,
          "name": "F#2",
          "ticks": 6912,
          "time": 8.307683999999998,
          "velocity": 0.3937007874015748
        },
        {
          "duration": 0.11538450000000111,
          "durationTicks": 96,
          "midi": 54,
          "name": "F#3",
          "ticks": 7104,
          "time": 8.538452999999999,
          "velocity": 0.3937007874015748
        },
        {
          "duration": 0.11538450000000111,
          "durationTicks": 96,
          "midi": 49,
          "name": "C#3",
          "ticks": 7104,
          "time": 8.538452999999999,
          "velocity": 0.3937007874015748
        },
        {
          "duration": 0.11538449999999933,
          "durationTicks": 96,
          "midi": 42,
          "name": "F#2",
          "ticks": 7296,
          "time": 8.769222,
          "velocity": 0.3937007874015748
        },
        {
          "duration": 0.11538449999999933,
          "durationTicks": 96,
          "midi": 49,
          "name": "C#3",
          "ticks": 7296,
          "time": 8.769222,
          "velocity": 0.3937007874015748
        },
        {
          "duration": 0.11538449999999933,
          "durationTicks": 96,
          "midi": 49,
          "name": "C#3",
          "ticks": 7488,
          "time": 8.999991,
          "velocity": 0.3937007874015748
        },
        {
          "duration": 0.11538450000000111,
          "durationTicks": 96,
          "midi": 43,
          "name": "G2",
          "ticks": 7680,
          "time": 9.230759999999998,
          "velocity": 0.3937007874015748
        },
        {
          "duration": 0.11538450000000111,
          "durationTicks": 96,
          "midi": 51,
          "name": "D#3",
          "ticks": 7968,
          "time": 9.576913499999998,
          "velocity": 0.3937007874015748
        },
        {
          "duration": 0.11538449999999933,
          "durationTicks": 96,
          "midi": 51,
          "name": "D#3",
          "ticks": 8064,
          "time": 9.692298,
          "velocity": 0.3937007874015748
        },
        {
          "duration": 0.11538449999999933,
          "durationTicks": 96,
          "midi": 43,
          "name": "G2",
          "ticks": 8064,
          "time": 9.692298,
          "velocity": 0.3937007874015748
        },
        {
          "duration": 0.11538449999999933,
          "durationTicks": 96,
          "midi": 49,
          "name": "C#3",
          "ticks": 8256,
          "time": 9.923067,
          "velocity": 0.3937007874015748
        },
        {
          "duration": 0.11538449999999933,
          "durationTicks": 96,
          "midi": 53,
          "name": "F3",
          "ticks": 8256,
          "time": 9.923067,
          "velocity": 0.3937007874015748
        },
        {
          "duration": 0.11538450000000111,
          "durationTicks": 96,
          "midi": 43,
          "name": "G2",
          "ticks": 8448,
          "time": 10.153835999999998,
          "velocity": 0.3937007874015748
        },
        {
          "duration": 0.11538449999999933,
          "durationTicks": 96,
          "midi": 52,
          "name": "E3",
          "ticks": 8640,
          "time": 10.384604999999999,
          "velocity": 0.3937007874015748
        },
        {
          "duration": 0.11538449999999933,
          "durationTicks": 96,
          "midi": 49,
          "name": "C#3",
          "ticks": 8640,
          "time": 10.384604999999999,
          "velocity": 0.3937007874015748
        },
        {
          "duration": 0.11538449999999933,
          "durationTicks": 96,
          "midi": 51,
          "name": "D#3",
          "ticks": 8832,
          "time": 10.615374,
          "velocity": 0.3937007874015748
        },
        {
          "duration": 0.11538449999999933,
          "durationTicks": 96,
          "midi": 43,
          "name": "G2",
          "ticks": 8832,
          "time": 10.615374,
          "velocity": 0.3937007874015748
        },
        {
          "duration": 0.11538449999999933,
          "durationTicks": 96,
          "midi": 51,
          "name": "D#3",
          "ticks": 9024,
          "time": 10.846143,
          "velocity": 0.3937007874015748
        },
        {
          "duration": 0.11538450000000111,
          "durationTicks": 96,
          "midi": 44,
          "name": "G#2",
          "ticks": 9216,
          "time": 11.076911999999998,
          "velocity": 0.3937007874015748
        },
        {
          "duration": 0.11538450000000111,
          "durationTicks": 96,
          "midi": 51,
          "name": "D#3",
          "ticks": 9504,
          "time": 11.423065499999998,
          "velocity": 0.3937007874015748
        },
        {
          "duration": 0.11538449999999933,
          "durationTicks": 96,
          "midi": 44,
          "name": "G#2",
          "ticks": 9600,
          "time": 11.53845,
          "velocity": 0.3937007874015748
        },
        {
          "duration": 0.11538449999999933,
          "durationTicks": 96,
          "midi": 51,
          "name": "D#3",
          "ticks": 9600,
          "time": 11.53845,
          "velocity": 0.3937007874015748
        },
        {
          "duration": 0.11538450000000111,
          "durationTicks": 96,
          "midi": 55,
          "name": "G3",
          "ticks": 9792,
          "time": 11.769218999999998,
          "velocity": 0.3937007874015748
        },
        {
          "duration": 0.11538450000000111,
          "durationTicks": 96,
          "midi": 49,
          "name": "C#3",
          "ticks": 9792,
          "time": 11.769218999999998,
          "velocity": 0.3937007874015748
        },
        {
          "duration": 0.11538450000000111,
          "durationTicks": 96,
          "midi": 44,
          "name": "G#2",
          "ticks": 9984,
          "time": 11.999987999999998,
          "velocity": 0.3937007874015748
        },
        {
          "duration": 0.11538449999999933,
          "durationTicks": 96,
          "midi": 54,
          "name": "F#3",
          "ticks": 10176,
          "time": 12.230756999999999,
          "velocity": 0.3937007874015748
        },
        {
          "duration": 0.11538449999999933,
          "durationTicks": 96,
          "midi": 49,
          "name": "C#3",
          "ticks": 10176,
          "time": 12.230756999999999,
          "velocity": 0.3937007874015748
        },
        {
          "duration": 0.11538449999999933,
          "durationTicks": 96,
          "midi": 44,
          "name": "G#2",
          "ticks": 10368,
          "time": 12.461526,
          "velocity": 0.3937007874015748
        },
        {
          "duration": 0.11538449999999933,
          "durationTicks": 96,
          "midi": 51,
          "name": "D#3",
          "ticks": 10368,
          "time": 12.461526,
          "velocity": 0.3937007874015748
        },
        {
          "duration": 0.11538450000000111,
          "durationTicks": 96,
          "midi": 51,
          "name": "D#3",
          "ticks": 10560,
          "time": 12.692294999999998,
          "velocity": 0.3937007874015748
        },
        {
          "duration": 0.11538449999999933,
          "durationTicks": 96,
          "midi": 43,
          "name": "G2",
          "ticks": 10752,
          "time": 12.923063999999998,
          "velocity": 0.3937007874015748
        },
        {
          "duration": 0.11538450000000111,
          "durationTicks": 96,
          "midi": 51,
          "name": "D#3",
          "ticks": 11040,
          "time": 13.269217499999998,
          "velocity": 0.3937007874015748
        },
        {
          "duration": 0.11538449999999933,
          "durationTicks": 96,
          "midi": 51,
          "name": "D#3",
          "ticks": 11136,
          "time": 13.384602,
          "velocity": 0.3937007874015748
        },
        {
          "duration": 0.11538449999999933,
          "durationTicks": 96,
          "midi": 43,
          "name": "G2",
          "ticks": 11136,
          "time": 13.384602,
          "velocity": 0.3937007874015748
        },
        {
          "duration": 0.11538450000000111,
          "durationTicks": 96,
          "midi": 51,
          "name": "D#3",
          "ticks": 11328,
          "time": 13.615370999999998,
          "velocity": 0.3937007874015748
        },
        {
          "duration": 0.11538450000000111,
          "durationTicks": 96,
          "midi": 49,
          "name": "C#3",
          "ticks": 11328,
          "time": 13.615370999999998,
          "velocity": 0.3937007874015748
        },
        {
          "duration": 0.11538449999999933,
          "durationTicks": 96,
          "midi": 51,
          "name": "D#3",
          "ticks": 11520,
          "time": 13.846139999999998,
          "velocity": 0.3937007874015748
        },
        {
          "duration": 0.11538449999999933,
          "durationTicks": 96,
          "midi": 43,
          "name": "G2",
          "ticks": 11520,
          "time": 13.846139999999998,
          "velocity": 0.3937007874015748
        },
        {
          "duration": 0.11538449999999933,
          "durationTicks": 96,
          "midi": 51,
          "name": "D#3",
          "ticks": 11712,
          "time": 14.076908999999999,
          "velocity": 0.3937007874015748
        },
        {
          "duration": 0.11538450000000111,
          "durationTicks": 96,
          "midi": 51,
          "name": "D#3",
          "ticks": 11808,
          "time": 14.192293499999998,
          "velocity": 0.3937007874015748
        },
        {
          "duration": 0.11538449999999933,
          "durationTicks": 96,
          "midi": 43,
          "name": "G2",
          "ticks": 11904,
          "time": 14.307678,
          "velocity": 0.3937007874015748
        },
        {
          "duration": 0.11538449999999933,
          "durationTicks": 96,
          "midi": 51,
          "name": "D#3",
          "ticks": 11904,
          "time": 14.307678,
          "velocity": 0.3937007874015748
        },
        {
          "duration": 0.11538450000000111,
          "durationTicks": 96,
          "midi": 51,
          "name": "D#3",
          "ticks": 12096,
          "time": 14.538446999999998,
          "velocity": 0.3937007874015748
        },
        {
          "duration": 0.11538449999999933,
          "durationTicks": 96,
          "midi": 42,
          "name": "F#2",
          "ticks": 12288,
          "time": 14.769215999999998,
          "velocity": 0.3937007874015748
        },
        {
          "duration": 0.11538449999999933,
          "durationTicks": 96,
          "midi": 58,
          "name": "A#3",
          "ticks": 12288,
          "time": 14.769215999999998,
          "velocity": 0.3937007874015748
        },
        {
          "duration": 0.11538449999999933,
          "durationTicks": 96,
          "midi": 58,
          "name": "A#3",
          "ticks": 12480,
          "time": 14.999984999999999,
          "velocity": 0.3937007874015748
        },
        {
          "duration": 0.11538449999999933,
          "durationTicks": 96,
          "midi": 51,
          "name": "D#3",
          "ticks": 12576,
          "time": 15.115369499999998,
          "velocity": 0.3937007874015748
        },
        {
          "duration": 0.11538450000000111,
          "durationTicks": 96,
          "midi": 59,
          "name": "B3",
          "ticks": 12672,
          "time": 15.230753999999997,
          "velocity": 0.3937007874015748
        },
        {
          "duration": 0.11538450000000111,
          "durationTicks": 96,
          "midi": 42,
          "name": "F#2",
          "ticks": 12672,
          "time": 15.230753999999997,
          "velocity": 0.3937007874015748
        },
        {
          "duration": 0.11538450000000111,
          "durationTicks": 96,
          "midi": 59,
          "name": "B3",
          "ticks": 12864,
          "time": 15.461522999999998,
          "velocity": 0.3937007874015748
        },
        {
          "duration": 0.11538450000000111,
          "durationTicks": 96,
          "midi": 49,
          "name": "C#3",
          "ticks": 12864,
          "time": 15.461522999999998,
          "velocity": 0.3937007874015748
        },
        {
          "duration": 0.11538450000000111,
          "durationTicks": 96,
          "midi": 55,
          "name": "G3",
          "ticks": 12864,
          "time": 15.461522999999998,
          "velocity": 0.3937007874015748
        },
        {
          "duration": 0.11538449999999933,
          "durationTicks": 96,
          "midi": 59,
          "name": "B3",
          "ticks": 13056,
          "time": 15.692291999999998,
          "velocity": 0.3937007874015748
        },
        {
          "duration": 0.11538449999999933,
          "durationTicks": 96,
          "midi": 42,
          "name": "F#2",
          "ticks": 13056,
          "time": 15.692291999999998,
          "velocity": 0.3937007874015748
        },
        {
          "duration": 0.11538449999999933,
          "durationTicks": 96,
          "midi": 54,
          "name": "F#3",
          "ticks": 13248,
          "time": 15.923060999999999,
          "velocity": 0.3937007874015748
        },
        {
          "duration": 0.11538449999999933,
          "durationTicks": 96,
          "midi": 59,
          "name": "B3",
          "ticks": 13248,
          "time": 15.923060999999999,
          "velocity": 0.3937007874015748
        },
        {
          "duration": 0.11538449999999933,
          "durationTicks": 96,
          "midi": 49,
          "name": "C#3",
          "ticks": 13248,
          "time": 15.923060999999999,
          "velocity": 0.3937007874015748
        },
        {
          "duration": 0.11538449999999756,
          "durationTicks": 96,
          "midi": 51,
          "name": "D#3",
          "ticks": 13440,
          "time": 16.15383,
          "velocity": 0.3937007874015748
        },
        {
          "duration": 0.11538449999999756,
          "durationTicks": 96,
          "midi": 59,
          "name": "B3",
          "ticks": 13440,
          "time": 16.15383,
          "velocity": 0.3937007874015748
        },
        {
          "duration": 0.11538449999999756,
          "durationTicks": 96,
          "midi": 42,
          "name": "F#2",
          "ticks": 13440,
          "time": 16.15383,
          "velocity": 0.3937007874015748
        },
        {
          "duration": 0.23076899999999867,
          "durationTicks": 192,
          "midi": 59,
          "name": "B3",
          "ticks": 13632,
          "time": 16.384598999999998,
          "velocity": 0.3937007874015748
        },
        {
          "duration": 0.11538450000000111,
          "durationTicks": 96,
          "midi": 61,
          "name": "C#4",
          "ticks": 13824,
          "time": 16.615367999999997,
          "velocity": 0.3937007874015748
        },
        {
          "duration": 0.11538450000000111,
          "durationTicks": 96,
          "midi": 43,
          "name": "G2",
          "ticks": 13824,
          "time": 16.615367999999997,
          "velocity": 0.3937007874015748
        },
        {
          "duration": 0.11538449999999756,
          "durationTicks": 96,
          "midi": 61,
          "name": "C#4",
          "ticks": 14016,
          "time": 16.846137,
          "velocity": 0.3937007874015748
        },
        {
          "duration": 0.11538450000000111,
          "durationTicks": 96,
          "midi": 51,
          "name": "D#3",
          "ticks": 14208,
          "time": 17.076905999999997,
          "velocity": 0.3937007874015748
        },
        {
          "duration": 0.11538450000000111,
          "durationTicks": 96,
          "midi": 43,
          "name": "G2",
          "ticks": 14208,
          "time": 17.076905999999997,
          "velocity": 0.3937007874015748
        },
        {
          "duration": 0.11538450000000111,
          "durationTicks": 96,
          "midi": 61,
          "name": "C#4",
          "ticks": 14208,
          "time": 17.076905999999997,
          "velocity": 0.3937007874015748
        },
        {
          "duration": 0.11538449999999756,
          "durationTicks": 96,
          "midi": 49,
          "name": "C#3",
          "ticks": 14400,
          "time": 17.307675,
          "velocity": 0.3937007874015748
        },
        {
          "duration": 0.11538449999999756,
          "durationTicks": 96,
          "midi": 53,
          "name": "F3",
          "ticks": 14400,
          "time": 17.307675,
          "velocity": 0.3937007874015748
        },
        {
          "duration": 0.11538449999999756,
          "durationTicks": 96,
          "midi": 61,
          "name": "C#4",
          "ticks": 14400,
          "time": 17.307675,
          "velocity": 0.3937007874015748
        },
        {
          "duration": 0.11538450000000111,
          "durationTicks": 96,
          "midi": 43,
          "name": "G2",
          "ticks": 14592,
          "time": 17.538444,
          "velocity": 0.3937007874015748
        },
        {
          "duration": 0.11538450000000111,
          "durationTicks": 96,
          "midi": 61,
          "name": "C#4",
          "ticks": 14592,
          "time": 17.538444,
          "velocity": 0.3937007874015748
        },
        {
          "duration": 0.11538450000000111,
          "durationTicks": 96,
          "midi": 52,
          "name": "E3",
          "ticks": 14784,
          "time": 17.769212999999997,
          "velocity": 0.3937007874015748
        },
        {
          "duration": 0.11538450000000111,
          "durationTicks": 96,
          "midi": 49,
          "name": "C#3",
          "ticks": 14784,
          "time": 17.769212999999997,
          "velocity": 0.3937007874015748
        },
        {
          "duration": 0.11538450000000111,
          "durationTicks": 96,
          "midi": 61,
          "name": "C#4",
          "ticks": 14784,
          "time": 17.769212999999997,
          "velocity": 0.3937007874015748
        },
        {
          "duration": 0.11538449999999756,
          "durationTicks": 96,
          "midi": 61,
          "name": "C#4",
          "ticks": 14976,
          "time": 17.999982,
          "velocity": 0.3937007874015748
        },
        {
          "duration": 0.11538449999999756,
          "durationTicks": 96,
          "midi": 51,
          "name": "D#3",
          "ticks": 14976,
          "time": 17.999982,
          "velocity": 0.3937007874015748
        },
        {
          "duration": 0.11538449999999756,
          "durationTicks": 96,
          "midi": 43,
          "name": "G2",
          "ticks": 14976,
          "time": 17.999982,
          "velocity": 0.3937007874015748
        },
        {
          "duration": 0.23076899999999867,
          "durationTicks": 192,
          "midi": 61,
          "name": "C#4",
          "ticks": 15168,
          "time": 18.230750999999998,
          "velocity": 0.3937007874015748
        },
        {
          "duration": 0.11538450000000111,
          "durationTicks": 96,
          "midi": 44,
          "name": "G#2",
          "ticks": 15360,
          "time": 18.461519999999997,
          "velocity": 0.3937007874015748
        },
        {
          "duration": 0.11538450000000111,
          "durationTicks": 96,
          "midi": 63,
          "name": "D#4",
          "ticks": 15360,
          "time": 18.461519999999997,
          "velocity": 0.3937007874015748
        },
        {
          "duration": 0.11538449999999756,
          "durationTicks": 96,
          "midi": 63,
          "name": "D#4",
          "ticks": 15552,
          "time": 18.692289,
          "velocity": 0.3937007874015748
        },
        {
          "duration": 0.11538450000000111,
          "durationTicks": 96,
          "midi": 44,
          "name": "G#2",
          "ticks": 15744,
          "time": 18.923057999999997,
          "velocity": 0.3937007874015748
        },
        {
          "duration": 0.11538450000000111,
          "durationTicks": 96,
          "midi": 51,
          "name": "D#3",
          "ticks": 15744,
          "time": 18.923057999999997,
          "velocity": 0.3937007874015748
        },
        {
          "duration": 0.11538450000000111,
          "durationTicks": 96,
          "midi": 63,
          "name": "D#4",
          "ticks": 15744,
          "time": 18.923057999999997,
          "velocity": 0.3937007874015748
        },
        {
          "duration": 0.11538450000000111,
          "durationTicks": 96,
          "midi": 63,
          "name": "D#4",
          "ticks": 15936,
          "time": 19.153826999999996,
          "velocity": 0.3937007874015748
        },
        {
          "duration": 0.11538450000000111,
          "durationTicks": 96,
          "midi": 55,
          "name": "G3",
          "ticks": 15936,
          "time": 19.153826999999996,
          "velocity": 0.3937007874015748
        },
        {
          "duration": 0.11538450000000111,
          "durationTicks": 96,
          "midi": 49,
          "name": "C#3",
          "ticks": 15936,
          "time": 19.153826999999996,
          "velocity": 0.3937007874015748
        },
        {
          "duration": 0.11538450000000111,
          "durationTicks": 96,
          "midi": 44,
          "name": "G#2",
          "ticks": 16128,
          "time": 19.384596,
          "velocity": 0.3937007874015748
        },
        {
          "duration": 0.11538450000000111,
          "durationTicks": 96,
          "midi": 63,
          "name": "D#4",
          "ticks": 16128,
          "time": 19.384596,
          "velocity": 0.3937007874015748
        },
        {
          "duration": 0.11538450000000111,
          "durationTicks": 96,
          "midi": 63,
          "name": "D#4",
          "ticks": 16320,
          "time": 19.615364999999997,
          "velocity": 0.3937007874015748
        },
        {
          "duration": 0.11538450000000111,
          "durationTicks": 96,
          "midi": 49,
          "name": "C#3",
          "ticks": 16320,
          "time": 19.615364999999997,
          "velocity": 0.3937007874015748
        },
        {
          "duration": 0.11538450000000111,
          "durationTicks": 96,
          "midi": 54,
          "name": "F#3",
          "ticks": 16320,
          "time": 19.615364999999997,
          "velocity": 0.3937007874015748
        },
        {
          "duration": 0.11538449999999756,
          "durationTicks": 96,
          "midi": 51,
          "name": "D#3",
          "ticks": 16512,
          "time": 19.846134,
          "velocity": 0.3937007874015748
        },
        {
          "duration": 0.11538449999999756,
          "durationTicks": 96,
          "midi": 63,
          "name": "D#4",
          "ticks": 16512,
          "time": 19.846134,
          "velocity": 0.3937007874015748
        },
        {
          "duration": 0.11538449999999756,
          "durationTicks": 96,
          "midi": 44,
          "name": "G#2",
          "ticks": 16512,
          "time": 19.846134,
          "velocity": 0.3937007874015748
        },
        {
          "duration": 0.11538450000000111,
          "durationTicks": 96,
          "midi": 63,
          "name": "D#4",
          "ticks": 16704,
          "time": 20.076902999999998,
          "velocity": 0.3937007874015748
        },
        {
          "duration": 0.11538450000000111,
          "durationTicks": 96,
          "midi": 61,
          "name": "C#4",
          "ticks": 16896,
          "time": 20.307671999999997,
          "velocity": 0.3937007874015748
        },
        {
          "duration": 0.11538450000000111,
          "durationTicks": 96,
          "midi": 43,
          "name": "G2",
          "ticks": 16896,
          "time": 20.307671999999997,
          "velocity": 0.3937007874015748
        },
        {
          "duration": 0.11538449999999756,
          "durationTicks": 96,
          "midi": 61,
          "name": "C#4",
          "ticks": 17088,
          "time": 20.538441,
          "velocity": 0.3937007874015748
        },
        {
          "duration": 0.11538450000000111,
          "durationTicks": 96,
          "midi": 51,
          "name": "D#3",
          "ticks": 17280,
          "time": 20.769209999999998,
          "velocity": 0.3937007874015748
        },
        {
          "duration": 0.11538450000000111,
          "durationTicks": 96,
          "midi": 43,
          "name": "G2",
          "ticks": 17280,
          "time": 20.769209999999998,
          "velocity": 0.3937007874015748
        },
        {
          "duration": 0.11538450000000111,
          "durationTicks": 96,
          "midi": 61,
          "name": "C#4",
          "ticks": 17280,
          "time": 20.769209999999998,
          "velocity": 0.3937007874015748
        },
        {
          "duration": 0.11538450000000111,
          "durationTicks": 96,
          "midi": 61,
          "name": "C#4",
          "ticks": 17472,
          "time": 20.999978999999996,
          "velocity": 0.3937007874015748
        },
        {
          "duration": 0.11538449999999756,
          "durationTicks": 96,
          "midi": 61,
          "name": "C#4",
          "ticks": 17664,
          "time": 21.230748,
          "velocity": 0.3937007874015748
        },
        {
          "duration": 0.11538449999999756,
          "durationTicks": 96,
          "midi": 43,
          "name": "G2",
          "ticks": 17664,
          "time": 21.230748,
          "velocity": 0.3937007874015748
        },
        {
          "duration": 0.11538449999999756,
          "durationTicks": 96,
          "midi": 51,
          "name": "D#3",
          "ticks": 17664,
          "time": 21.230748,
          "velocity": 0.3937007874015748
        },
        {
          "duration": 0.11538450000000111,
          "durationTicks": 96,
          "midi": 61,
          "name": "C#4",
          "ticks": 17856,
          "time": 21.461516999999997,
          "velocity": 0.3937007874015748
        },
        {
          "duration": 0.11538449999999756,
          "durationTicks": 96,
          "midi": 51,
          "name": "D#3",
          "ticks": 18048,
          "time": 21.692286,
          "velocity": 0.3937007874015748
        },
        {
          "duration": 0.11538449999999756,
          "durationTicks": 96,
          "midi": 61,
          "name": "C#4",
          "ticks": 18048,
          "time": 21.692286,
          "velocity": 0.3937007874015748
        },
        {
          "duration": 0.11538449999999756,
          "durationTicks": 96,
          "midi": 43,
          "name": "G2",
          "ticks": 18048,
          "time": 21.692286,
          "velocity": 0.3937007874015748
        },
        {
          "duration": 0.11538450000000111,
          "durationTicks": 96,
          "midi": 61,
          "name": "C#4",
          "ticks": 18240,
          "time": 21.923054999999998,
          "velocity": 0.3937007874015748
        },
        {
          "duration": 0.11538450000000111,
          "durationTicks": 96,
          "midi": 42,
          "name": "F#2",
          "ticks": 18432,
          "time": 22.153823999999997,
          "velocity": 0.3937007874015748
        },
        {
          "duration": 0.11538450000000111,
          "durationTicks": 96,
          "midi": 58,
          "name": "A#3",
          "ticks": 18432,
          "time": 22.153823999999997,
          "velocity": 0.3937007874015748
        },
        {
          "duration": 0.11538449999999756,
          "durationTicks": 96,
          "midi": 58,
          "name": "A#3",
          "ticks": 18624,
          "time": 22.384593,
          "velocity": 0.3937007874015748
        },
        {
          "duration": 0.11538450000000111,
          "durationTicks": 96,
          "midi": 51,
          "name": "D#3",
          "ticks": 18720,
          "time": 22.499977499999996,
          "velocity": 0.3937007874015748
        },
        {
          "duration": 0.11538450000000111,
          "durationTicks": 96,
          "midi": 59,
          "name": "B3",
          "ticks": 18816,
          "time": 22.615361999999998,
          "velocity": 0.3937007874015748
        },
        {
          "duration": 0.11538450000000111,
          "durationTicks": 96,
          "midi": 42,
          "name": "F#2",
          "ticks": 18816,
          "time": 22.615361999999998,
          "velocity": 0.3937007874015748
        },
        {
          "duration": 0.11538450000000111,
          "durationTicks": 96,
          "midi": 49,
          "name": "C#3",
          "ticks": 19008,
          "time": 22.846130999999996,
          "velocity": 0.3937007874015748
        },
        {
          "duration": 0.11538450000000111,
          "durationTicks": 96,
          "midi": 55,
          "name": "G3",
          "ticks": 19008,
          "time": 22.846130999999996,
          "velocity": 0.3937007874015748
        },
        {
          "duration": 0.11538450000000111,
          "durationTicks": 96,
          "midi": 59,
          "name": "B3",
          "ticks": 19008,
          "time": 22.846130999999996,
          "velocity": 0.3937007874015748
        },
        {
          "duration": 0.11538449999999756,
          "durationTicks": 96,
          "midi": 59,
          "name": "B3",
          "ticks": 19200,
          "time": 23.0769,
          "velocity": 0.3937007874015748
        },
        {
          "duration": 0.11538449999999756,
          "durationTicks": 96,
          "midi": 42,
          "name": "F#2",
          "ticks": 19200,
          "time": 23.0769,
          "velocity": 0.3937007874015748
        },
        {
          "duration": 0.11538450000000111,
          "durationTicks": 96,
          "midi": 59,
          "name": "B3",
          "ticks": 19392,
          "time": 23.307668999999997,
          "velocity": 0.3937007874015748
        },
        {
          "duration": 0.11538450000000111,
          "durationTicks": 96,
          "midi": 54,
          "name": "F#3",
          "ticks": 19392,
          "time": 23.307668999999997,
          "velocity": 0.3937007874015748
        },
        {
          "duration": 0.11538450000000111,
          "durationTicks": 96,
          "midi": 49,
          "name": "C#3",
          "ticks": 19392,
          "time": 23.307668999999997,
          "velocity": 0.3937007874015748
        },
        {
          "duration": 0.11538450000000111,
          "durationTicks": 96,
          "midi": 42,
          "name": "F#2",
          "ticks": 19584,
          "time": 23.538437999999996,
          "velocity": 0.3937007874015748
        },
        {
          "duration": 0.11538450000000111,
          "durationTicks": 96,
          "midi": 59,
          "name": "B3",
          "ticks": 19584,
          "time": 23.538437999999996,
          "velocity": 0.3937007874015748
        },
        {
          "duration": 0.11538450000000111,
          "durationTicks": 96,
          "midi": 51,
          "name": "D#3",
          "ticks": 19584,
          "time": 23.538437999999996,
          "velocity": 0.3937007874015748
        },
        {
          "duration": 0.23076899999999867,
          "durationTicks": 192,
          "midi": 59,
          "name": "B3",
          "ticks": 19776,
          "time": 23.769206999999998,
          "velocity": 0.3937007874015748
        },
        {
          "duration": 0.11538450000000111,
          "durationTicks": 96,
          "midi": 61,
          "name": "C#4",
          "ticks": 19968,
          "time": 23.999975999999997,
          "velocity": 0.3937007874015748
        },
        {
          "duration": 0.11538450000000111,
          "durationTicks": 96,
          "midi": 43,
          "name": "G2",
          "ticks": 19968,
          "time": 23.999975999999997,
          "velocity": 0.3937007874015748
        },
        {
          "duration": 0.11538449999999756,
          "durationTicks": 96,
          "midi": 61,
          "name": "C#4",
          "ticks": 20160,
          "time": 24.230745,
          "velocity": 0.3937007874015748
        },
        {
          "duration": 0.11538450000000111,
          "durationTicks": 96,
          "midi": 43,
          "name": "G2",
          "ticks": 20352,
          "time": 24.461513999999998,
          "velocity": 0.3937007874015748
        },
        {
          "duration": 0.11538450000000111,
          "durationTicks": 96,
          "midi": 51,
          "name": "D#3",
          "ticks": 20352,
          "time": 24.461513999999998,
          "velocity": 0.3937007874015748
        },
        {
          "duration": 0.11538450000000111,
          "durationTicks": 96,
          "midi": 61,
          "name": "C#4",
          "ticks": 20352,
          "time": 24.461513999999998,
          "velocity": 0.3937007874015748
        },
        {
          "duration": 0.11538450000000111,
          "durationTicks": 96,
          "midi": 61,
          "name": "C#4",
          "ticks": 20544,
          "time": 24.692282999999996,
          "velocity": 0.3937007874015748
        },
        {
          "duration": 0.11538450000000111,
          "durationTicks": 96,
          "midi": 53,
          "name": "F3",
          "ticks": 20544,
          "time": 24.692282999999996,
          "velocity": 0.3937007874015748
        },
        {
          "duration": 0.11538450000000111,
          "durationTicks": 96,
          "midi": 49,
          "name": "C#3",
          "ticks": 20544,
          "time": 24.692282999999996,
          "velocity": 0.3937007874015748
        },
        {
          "duration": 0.11538449999999756,
          "durationTicks": 96,
          "midi": 61,
          "name": "C#4",
          "ticks": 20736,
          "time": 24.923052,
          "velocity": 0.3937007874015748
        },
        {
          "duration": 0.11538449999999756,
          "durationTicks": 96,
          "midi": 43,
          "name": "G2",
          "ticks": 20736,
          "time": 24.923052,
          "velocity": 0.3937007874015748
        },
        {
          "duration": 0.11538450000000111,
          "durationTicks": 96,
          "midi": 49,
          "name": "C#3",
          "ticks": 20928,
          "time": 25.153820999999997,
          "velocity": 0.3937007874015748
        },
        {
          "duration": 0.11538450000000111,
          "durationTicks": 96,
          "midi": 52,
          "name": "E3",
          "ticks": 20928,
          "time": 25.153820999999997,
          "velocity": 0.3937007874015748
        },
        {
          "duration": 0.11538450000000111,
          "durationTicks": 96,
          "midi": 61,
          "name": "C#4",
          "ticks": 20928,
          "time": 25.153820999999997,
          "velocity": 0.3937007874015748
        },
        {
          "duration": 0.11538450000000111,
          "durationTicks": 96,
          "midi": 43,
          "name": "G2",
          "ticks": 21120,
          "time": 25.384589999999996,
          "velocity": 0.3937007874015748
        },
        {
          "duration": 0.11538450000000111,
          "durationTicks": 96,
          "midi": 51,
          "name": "D#3",
          "ticks": 21120,
          "time": 25.384589999999996,
          "velocity": 0.3937007874015748
        },
        {
          "duration": 0.11538450000000111,
          "durationTicks": 96,
          "midi": 61,
          "name": "C#4",
          "ticks": 21120,
          "time": 25.384589999999996,
          "velocity": 0.3937007874015748
        },
        {
          "duration": 0.23076899999999867,
          "durationTicks": 192,
          "midi": 61,
          "name": "C#4",
          "ticks": 21312,
          "time": 25.615358999999998,
          "velocity": 0.3937007874015748
        },
        {
          "duration": 0.11538450000000111,
          "durationTicks": 96,
          "midi": 44,
          "name": "G#2",
          "ticks": 21504,
          "time": 25.846127999999997,
          "velocity": 0.3937007874015748
        },
        {
          "duration": 0.11538450000000111,
          "durationTicks": 96,
          "midi": 63,
          "name": "D#4",
          "ticks": 21504,
          "time": 25.846127999999997,
          "velocity": 0.3937007874015748
        },
        {
          "duration": 0.11538450000000111,
          "durationTicks": 96,
          "midi": 63,
          "name": "D#4",
          "ticks": 21696,
          "time": 26.076896999999995,
          "velocity": 0.3937007874015748
        },
        {
          "duration": 0.11538450000000111,
          "durationTicks": 96,
          "midi": 63,
          "name": "D#4",
          "ticks": 21888,
          "time": 26.307665999999998,
          "velocity": 0.3937007874015748
        },
        {
          "duration": 0.11538450000000111,
          "durationTicks": 96,
          "midi": 44,
          "name": "G#2",
          "ticks": 21888,
          "time": 26.307665999999998,
          "velocity": 0.3937007874015748
        },
        {
          "duration": 0.11538450000000111,
          "durationTicks": 96,
          "midi": 51,
          "name": "D#3",
          "ticks": 21888,
          "time": 26.307665999999998,
          "velocity": 0.3937007874015748
        },
        {
          "duration": 0.11538450000000111,
          "durationTicks": 96,
          "midi": 63,
          "name": "D#4",
          "ticks": 22080,
          "time": 26.538434999999996,
          "velocity": 0.3937007874015748
        },
        {
          "duration": 0.11538450000000111,
          "durationTicks": 96,
          "midi": 49,
          "name": "C#3",
          "ticks": 22080,
          "time": 26.538434999999996,
          "velocity": 0.3937007874015748
        },
        {
          "duration": 0.11538450000000111,
          "durationTicks": 96,
          "midi": 55,
          "name": "G3",
          "ticks": 22080,
          "time": 26.538434999999996,
          "velocity": 0.3937007874015748
        },
        {
          "duration": 0.11538449999999756,
          "durationTicks": 96,
          "midi": 63,
          "name": "D#4",
          "ticks": 22272,
          "time": 26.769204,
          "velocity": 0.3937007874015748
        },
        {
          "duration": 0.11538449999999756,
          "durationTicks": 96,
          "midi": 44,
          "name": "G#2",
          "ticks": 22272,
          "time": 26.769204,
          "velocity": 0.3937007874015748
        },
        {
          "duration": 0.11538450000000111,
          "durationTicks": 96,
          "midi": 54,
          "name": "F#3",
          "ticks": 22464,
          "time": 26.999972999999997,
          "velocity": 0.3937007874015748
        },
        {
          "duration": 0.11538450000000111,
          "durationTicks": 96,
          "midi": 49,
          "name": "C#3",
          "ticks": 22464,
          "time": 26.999972999999997,
          "velocity": 0.3937007874015748
        },
        {
          "duration": 0.11538450000000111,
          "durationTicks": 96,
          "midi": 63,
          "name": "D#4",
          "ticks": 22464,
          "time": 26.999972999999997,
          "velocity": 0.3937007874015748
        },
        {
          "duration": 0.11538450000000111,
          "durationTicks": 96,
          "midi": 44,
          "name": "G#2",
          "ticks": 22656,
          "time": 27.230741999999996,
          "velocity": 0.3937007874015748
        },
        {
          "duration": 0.11538450000000111,
          "durationTicks": 96,
          "midi": 63,
          "name": "D#4",
          "ticks": 22656,
          "time": 27.230741999999996,
          "velocity": 0.3937007874015748
        },
        {
          "duration": 0.11538450000000111,
          "durationTicks": 96,
          "midi": 51,
          "name": "D#3",
          "ticks": 22656,
          "time": 27.230741999999996,
          "velocity": 0.3937007874015748
        },
        {
          "duration": 0.11538449999999756,
          "durationTicks": 96,
          "midi": 63,
          "name": "D#4",
          "ticks": 22848,
          "time": 27.461510999999998,
          "velocity": 0.3937007874015748
        },
        {
          "duration": 0.11538450000000111,
          "durationTicks": 96,
          "midi": 61,
          "name": "C#4",
          "ticks": 23040,
          "time": 27.692279999999997,
          "velocity": 0.3937007874015748
        },
        {
          "duration": 0.11538450000000111,
          "durationTicks": 96,
          "midi": 43,
          "name": "G2",
          "ticks": 23040,
          "time": 27.692279999999997,
          "velocity": 0.3937007874015748
        },
        {
          "duration": 0.11538450000000111,
          "durationTicks": 96,
          "midi": 61,
          "name": "C#4",
          "ticks": 23232,
          "time": 27.923048999999995,
          "velocity": 0.3937007874015748
        },
        {
          "duration": 0.11538449999999756,
          "durationTicks": 96,
          "midi": 51,
          "name": "D#3",
          "ticks": 23424,
          "time": 28.153817999999998,
          "velocity": 0.3937007874015748
        },
        {
          "duration": 0.11538449999999756,
          "durationTicks": 96,
          "midi": 61,
          "name": "C#4",
          "ticks": 23424,
          "time": 28.153817999999998,
          "velocity": 0.3937007874015748
        },
        {
          "duration": 0.11538449999999756,
          "durationTicks": 96,
          "midi": 43,
          "name": "G2",
          "ticks": 23424,
          "time": 28.153817999999998,
          "velocity": 0.3937007874015748
        },
        {
          "duration": 0.11538450000000111,
          "durationTicks": 96,
          "midi": 61,
          "name": "C#4",
          "ticks": 23616,
          "time": 28.384586999999996,
          "velocity": 0.3937007874015748
        },
        {
          "duration": 0.11538449999999756,
          "durationTicks": 96,
          "midi": 51,
          "name": "D#3",
          "ticks": 23808,
          "time": 28.615356,
          "velocity": 0.3937007874015748
        },
        {
          "duration": 0.11538449999999756,
          "durationTicks": 96,
          "midi": 61,
          "name": "C#4",
          "ticks": 23808,
          "time": 28.615356,
          "velocity": 0.3937007874015748
        },
        {
          "duration": 0.11538449999999756,
          "durationTicks": 96,
          "midi": 43,
          "name": "G2",
          "ticks": 23808,
          "time": 28.615356,
          "velocity": 0.3937007874015748
        },
        {
          "duration": 0.11538450000000111,
          "durationTicks": 96,
          "midi": 61,
          "name": "C#4",
          "ticks": 24000,
          "time": 28.846124999999997,
          "velocity": 0.3937007874015748
        },
        {
          "duration": 0.11538450000000111,
          "durationTicks": 96,
          "midi": 51,
          "name": "D#3",
          "ticks": 24192,
          "time": 29.076893999999996,
          "velocity": 0.3937007874015748
        },
        {
          "duration": 0.11538450000000111,
          "durationTicks": 96,
          "midi": 43,
          "name": "G2",
          "ticks": 24192,
          "time": 29.076893999999996,
          "velocity": 0.3937007874015748
        },
        {
          "duration": 0.11538450000000111,
          "durationTicks": 96,
          "midi": 61,
          "name": "C#4",
          "ticks": 24192,
          "time": 29.076893999999996,
          "velocity": 0.3937007874015748
        },
        {
          "duration": 0.11538449999999756,
          "durationTicks": 96,
          "midi": 61,
          "name": "C#4",
          "ticks": 24384,
          "time": 29.307662999999998,
          "velocity": 0.3937007874015748
        },
        {
          "duration": 0.11538450000000111,
          "durationTicks": 96,
          "midi": 42,
          "name": "F#2",
          "ticks": 24576,
          "time": 29.538431999999997,
          "velocity": 0.3937007874015748
        },
        {
          "duration": 0.11538450000000111,
          "durationTicks": 96,
          "midi": 58,
          "name": "A#3",
          "ticks": 24576,
          "time": 29.538431999999997,
          "velocity": 0.3937007874015748
        },
        {
          "duration": 0.11538450000000111,
          "durationTicks": 96,
          "midi": 58,
          "name": "A#3",
          "ticks": 24768,
          "time": 29.769200999999995,
          "velocity": 0.3937007874015748
        },
        {
          "duration": 0.11538450000000111,
          "durationTicks": 96,
          "midi": 51,
          "name": "D#3",
          "ticks": 24864,
          "time": 29.884585499999996,
          "velocity": 0.3937007874015748
        },
        {
          "duration": 0.11538449999999756,
          "durationTicks": 96,
          "midi": 59,
          "name": "B3",
          "ticks": 24960,
          "time": 29.999969999999998,
          "velocity": 0.3937007874015748
        },
        {
          "duration": 0.11538449999999756,
          "durationTicks": 96,
          "midi": 42,
          "name": "F#2",
          "ticks": 24960,
          "time": 29.999969999999998,
          "velocity": 0.3937007874015748
        },
        {
          "duration": 0.11538450000000111,
          "durationTicks": 96,
          "midi": 55,
          "name": "G3",
          "ticks": 25152,
          "time": 30.230738999999996,
          "velocity": 0.3937007874015748
        },
        {
          "duration": 0.11538450000000111,
          "durationTicks": 96,
          "midi": 49,
          "name": "C#3",
          "ticks": 25152,
          "time": 30.230738999999996,
          "velocity": 0.3937007874015748
        },
        {
          "duration": 0.11538450000000111,
          "durationTicks": 96,
          "midi": 59,
          "name": "B3",
          "ticks": 25152,
          "time": 30.230738999999996,
          "velocity": 0.3937007874015748
        },
        {
          "duration": 0.11538450000000111,
          "durationTicks": 96,
          "midi": 42,
          "name": "F#2",
          "ticks": 25344,
          "time": 30.461507999999995,
          "velocity": 0.3937007874015748
        },
        {
          "duration": 0.11538450000000111,
          "durationTicks": 96,
          "midi": 59,
          "name": "B3",
          "ticks": 25344,
          "time": 30.461507999999995,
          "velocity": 0.3937007874015748
        },
        {
          "duration": 0.11538450000000111,
          "durationTicks": 96,
          "midi": 49,
          "name": "C#3",
          "ticks": 25536,
          "time": 30.692276999999997,
          "velocity": 0.3937007874015748
        },
        {
          "duration": 0.11538450000000111,
          "durationTicks": 96,
          "midi": 54,
          "name": "F#3",
          "ticks": 25536,
          "time": 30.692276999999997,
          "velocity": 0.3937007874015748
        },
        {
          "duration": 0.11538450000000111,
          "durationTicks": 96,
          "midi": 59,
          "name": "B3",
          "ticks": 25536,
          "time": 30.692276999999997,
          "velocity": 0.3937007874015748
        },
        {
          "duration": 0.11538450000000111,
          "durationTicks": 96,
          "midi": 59,
          "name": "B3",
          "ticks": 25728,
          "time": 30.923045999999996,
          "velocity": 0.3937007874015748
        },
        {
          "duration": 0.11538450000000111,
          "durationTicks": 96,
          "midi": 51,
          "name": "D#3",
          "ticks": 25728,
          "time": 30.923045999999996,
          "velocity": 0.3937007874015748
        },
        {
          "duration": 0.11538450000000111,
          "durationTicks": 96,
          "midi": 42,
          "name": "F#2",
          "ticks": 25728,
          "time": 30.923045999999996,
          "velocity": 0.3937007874015748
        },
        {
          "duration": 0.23076899999999867,
          "durationTicks": 192,
          "midi": 59,
          "name": "B3",
          "ticks": 25920,
          "time": 31.153814999999998,
          "velocity": 0.3937007874015748
        },
        {
          "duration": 0.11538450000000111,
          "durationTicks": 96,
          "midi": 61,
          "name": "C#4",
          "ticks": 26112,
          "time": 31.384583999999997,
          "velocity": 0.3937007874015748
        },
        {
          "duration": 0.11538450000000111,
          "durationTicks": 96,
          "midi": 43,
          "name": "G2",
          "ticks": 26112,
          "time": 31.384583999999997,
          "velocity": 0.3937007874015748
        },
        {
          "duration": 0.11538450000000111,
          "durationTicks": 96,
          "midi": 61,
          "name": "C#4",
          "ticks": 26304,
          "time": 31.615352999999995,
          "velocity": 0.3937007874015748
        },
        {
          "duration": 0.11538449999999756,
          "durationTicks": 96,
          "midi": 43,
          "name": "G2",
          "ticks": 26496,
          "time": 31.846121999999998,
          "velocity": 0.3937007874015748
        },
        {
          "duration": 0.11538449999999756,
          "durationTicks": 96,
          "midi": 61,
          "name": "C#4",
          "ticks": 26496,
          "time": 31.846121999999998,
          "velocity": 0.3937007874015748
        },
        {
          "duration": 0.11538449999999756,
          "durationTicks": 96,
          "midi": 51,
          "name": "D#3",
          "ticks": 26496,
          "time": 31.846121999999998,
          "velocity": 0.3937007874015748
        },
        {
          "duration": 0.11538449999999756,
          "durationTicks": 96,
          "midi": 49,
          "name": "C#3",
          "ticks": 26688,
          "time": 32.076890999999996,
          "velocity": 0.3937007874015748
        },
        {
          "duration": 0.11538449999999756,
          "durationTicks": 96,
          "midi": 61,
          "name": "C#4",
          "ticks": 26688,
          "time": 32.076890999999996,
          "velocity": 0.3937007874015748
        },
        {
          "duration": 0.11538449999999756,
          "durationTicks": 96,
          "midi": 53,
          "name": "F3",
          "ticks": 26688,
          "time": 32.076890999999996,
          "velocity": 0.3937007874015748
        },
        {
          "duration": 0.11538449999999756,
          "durationTicks": 96,
          "midi": 43,
          "name": "G2",
          "ticks": 26880,
          "time": 32.30766,
          "velocity": 0.3937007874015748
        },
        {
          "duration": 0.11538449999999756,
          "durationTicks": 96,
          "midi": 61,
          "name": "C#4",
          "ticks": 26880,
          "time": 32.30766,
          "velocity": 0.3937007874015748
        },
        {
          "duration": 0.11538450000000466,
          "durationTicks": 96,
          "midi": 52,
          "name": "E3",
          "ticks": 27072,
          "time": 32.538428999999994,
          "velocity": 0.3937007874015748
        },
        {
          "duration": 0.11538450000000466,
          "durationTicks": 96,
          "midi": 61,
          "name": "C#4",
          "ticks": 27072,
          "time": 32.538428999999994,
          "velocity": 0.3937007874015748
        },
        {
          "duration": 0.11538450000000466,
          "durationTicks": 96,
          "midi": 49,
          "name": "C#3",
          "ticks": 27072,
          "time": 32.538428999999994,
          "velocity": 0.3937007874015748
        },
        {
          "duration": 0.11538449999999756,
          "durationTicks": 96,
          "midi": 61,
          "name": "C#4",
          "ticks": 27264,
          "time": 32.769197999999996,
          "velocity": 0.3937007874015748
        },
        {
          "duration": 0.11538449999999756,
          "durationTicks": 96,
          "midi": 51,
          "name": "D#3",
          "ticks": 27264,
          "time": 32.769197999999996,
          "velocity": 0.3937007874015748
        },
        {
          "duration": 0.11538449999999756,
          "durationTicks": 96,
          "midi": 43,
          "name": "G2",
          "ticks": 27264,
          "time": 32.769197999999996,
          "velocity": 0.3937007874015748
        },
        {
          "duration": 0.23076899999999512,
          "durationTicks": 192,
          "midi": 61,
          "name": "C#4",
          "ticks": 27456,
          "time": 32.999967,
          "velocity": 0.3937007874015748
        },
        {
          "duration": 0.11538450000000466,
          "durationTicks": 96,
          "midi": 44,
          "name": "G#2",
          "ticks": 27648,
          "time": 33.23073599999999,
          "velocity": 0.3937007874015748
        },
        {
          "duration": 0.11538450000000466,
          "durationTicks": 96,
          "midi": 63,
          "name": "D#4",
          "ticks": 27648,
          "time": 33.23073599999999,
          "velocity": 0.3937007874015748
        },
        {
          "duration": 0.11538449999999756,
          "durationTicks": 96,
          "midi": 63,
          "name": "D#4",
          "ticks": 27840,
          "time": 33.461504999999995,
          "velocity": 0.3937007874015748
        },
        {
          "duration": 0.11538449999999756,
          "durationTicks": 96,
          "midi": 51,
          "name": "D#3",
          "ticks": 28032,
          "time": 33.692274,
          "velocity": 0.3937007874015748
        },
        {
          "duration": 0.11538449999999756,
          "durationTicks": 96,
          "midi": 63,
          "name": "D#4",
          "ticks": 28032,
          "time": 33.692274,
          "velocity": 0.3937007874015748
        },
        {
          "duration": 0.11538449999999756,
          "durationTicks": 96,
          "midi": 44,
          "name": "G#2",
          "ticks": 28032,
          "time": 33.692274,
          "velocity": 0.3937007874015748
        },
        {
          "duration": 0.11538450000000466,
          "durationTicks": 96,
          "midi": 49,
          "name": "C#3",
          "ticks": 28224,
          "time": 33.92304299999999,
          "velocity": 0.3937007874015748
        },
        {
          "duration": 0.11538450000000466,
          "durationTicks": 96,
          "midi": 55,
          "name": "G3",
          "ticks": 28224,
          "time": 33.92304299999999,
          "velocity": 0.3937007874015748
        },
        {
          "duration": 0.11538450000000466,
          "durationTicks": 96,
          "midi": 63,
          "name": "D#4",
          "ticks": 28224,
          "time": 33.92304299999999,
          "velocity": 0.3937007874015748
        },
        {
          "duration": 0.11538450000000466,
          "durationTicks": 96,
          "midi": 63,
          "name": "D#4",
          "ticks": 28416,
          "time": 34.153811999999995,
          "velocity": 0.3937007874015748
        },
        {
          "duration": 0.11538450000000466,
          "durationTicks": 96,
          "midi": 44,
          "name": "G#2",
          "ticks": 28416,
          "time": 34.153811999999995,
          "velocity": 0.3937007874015748
        },
        {
          "duration": 0.11538449999999756,
          "durationTicks": 96,
          "midi": 63,
          "name": "D#4",
          "ticks": 28608,
          "time": 34.384581,
          "velocity": 0.3937007874015748
        },
        {
          "duration": 0.11538449999999756,
          "durationTicks": 96,
          "midi": 54,
          "name": "F#3",
          "ticks": 28608,
          "time": 34.384581,
          "velocity": 0.3937007874015748
        },
        {
          "duration": 0.11538449999999756,
          "durationTicks": 96,
          "midi": 49,
          "name": "C#3",
          "ticks": 28608,
          "time": 34.384581,
          "velocity": 0.3937007874015748
        },
        {
          "duration": 0.11538449999999756,
          "durationTicks": 96,
          "midi": 63,
          "name": "D#4",
          "ticks": 28800,
          "time": 34.61535,
          "velocity": 0.3937007874015748
        },
        {
          "duration": 0.11538449999999756,
          "durationTicks": 96,
          "midi": 44,
          "name": "G#2",
          "ticks": 28800,
          "time": 34.61535,
          "velocity": 0.3937007874015748
        },
        {
          "duration": 0.11538449999999756,
          "durationTicks": 96,
          "midi": 51,
          "name": "D#3",
          "ticks": 28800,
          "time": 34.61535,
          "velocity": 0.3937007874015748
        },
        {
          "duration": 0.11538450000000466,
          "durationTicks": 96,
          "midi": 63,
          "name": "D#4",
          "ticks": 28992,
          "time": 34.846118999999995,
          "velocity": 0.3937007874015748
        },
        {
          "duration": 0.11538449999999756,
          "durationTicks": 96,
          "midi": 43,
          "name": "G2",
          "ticks": 29184,
          "time": 35.076888,
          "velocity": 0.3937007874015748
        },
        {
          "duration": 0.11538449999999756,
          "durationTicks": 96,
          "midi": 61,
          "name": "C#4",
          "ticks": 29184,
          "time": 35.076888,
          "velocity": 0.3937007874015748
        },
        {
          "duration": 0.11538449999999756,
          "durationTicks": 96,
          "midi": 61,
          "name": "C#4",
          "ticks": 29376,
          "time": 35.307657,
          "velocity": 0.3937007874015748
        },
        {
          "duration": 0.11538450000000466,
          "durationTicks": 96,
          "midi": 61,
          "name": "C#4",
          "ticks": 29568,
          "time": 35.538425999999994,
          "velocity": 0.3937007874015748
        },
        {
          "duration": 0.11538450000000466,
          "durationTicks": 96,
          "midi": 51,
          "name": "D#3",
          "ticks": 29568,
          "time": 35.538425999999994,
          "velocity": 0.3937007874015748
        },
        {
          "duration": 0.11538450000000466,
          "durationTicks": 96,
          "midi": 43,
          "name": "G2",
          "ticks": 29568,
          "time": 35.538425999999994,
          "velocity": 0.3937007874015748
        },
        {
          "duration": 0.11538449999999756,
          "durationTicks": 96,
          "midi": 61,
          "name": "C#4",
          "ticks": 29760,
          "time": 35.769194999999996,
          "velocity": 0.3937007874015748
        },
        {
          "duration": 0.11538449999999756,
          "durationTicks": 96,
          "midi": 43,
          "name": "G2",
          "ticks": 29952,
          "time": 35.999964,
          "velocity": 0.3937007874015748
        },
        {
          "duration": 0.11538449999999756,
          "durationTicks": 96,
          "midi": 61,
          "name": "C#4",
          "ticks": 29952,
          "time": 35.999964,
          "velocity": 0.3937007874015748
        },
        {
          "duration": 0.11538449999999756,
          "durationTicks": 96,
          "midi": 51,
          "name": "D#3",
          "ticks": 29952,
          "time": 35.999964,
          "velocity": 0.3937007874015748
        },
        {
          "duration": 0.11538450000000466,
          "durationTicks": 96,
          "midi": 61,
          "name": "C#4",
          "ticks": 30144,
          "time": 36.230732999999994,
          "velocity": 0.3937007874015748
        },
        {
          "duration": 0.11538449999999756,
          "durationTicks": 96,
          "midi": 43,
          "name": "G2",
          "ticks": 30336,
          "time": 36.461501999999996,
          "velocity": 0.3937007874015748
        },
        {
          "duration": 0.11538449999999756,
          "durationTicks": 96,
          "midi": 61,
          "name": "C#4",
          "ticks": 30336,
          "time": 36.461501999999996,
          "velocity": 0.3937007874015748
        },
        {
          "duration": 0.11538449999999756,
          "durationTicks": 96,
          "midi": 51,
          "name": "D#3",
          "ticks": 30336,
          "time": 36.461501999999996,
          "velocity": 0.3937007874015748
        },
        {
          "duration": 0.11538449999999756,
          "durationTicks": 96,
          "midi": 61,
          "name": "C#4",
          "ticks": 30528,
          "time": 36.692271,
          "velocity": 0.3937007874015748
        },
        {
          "duration": 0.11538450000000466,
          "durationTicks": 96,
          "midi": 42,
          "name": "F#2",
          "ticks": 30720,
          "time": 36.92303999999999,
          "velocity": 0.3937007874015748
        },
        {
          "duration": 0.11538450000000466,
          "durationTicks": 96,
          "midi": 58,
          "name": "A#3",
          "ticks": 30720,
          "time": 36.92303999999999,
          "velocity": 0.3937007874015748
        },
        {
          "duration": 0.11538449999999756,
          "durationTicks": 96,
          "midi": 58,
          "name": "A#3",
          "ticks": 30912,
          "time": 37.153808999999995,
          "velocity": 0.3937007874015748
        },
        {
          "duration": 0.11538450000000466,
          "durationTicks": 96,
          "midi": 51,
          "name": "D#3",
          "ticks": 31008,
          "time": 37.26919349999999,
          "velocity": 0.3937007874015748
        },
        {
          "duration": 0.11538449999999756,
          "durationTicks": 96,
          "midi": 59,
          "name": "B3",
          "ticks": 31104,
          "time": 37.384578,
          "velocity": 0.3937007874015748
        },
        {
          "duration": 0.11538449999999756,
          "durationTicks": 96,
          "midi": 42,
          "name": "F#2",
          "ticks": 31104,
          "time": 37.384578,
          "velocity": 0.3937007874015748
        },
        {
          "duration": 0.11538450000000466,
          "durationTicks": 96,
          "midi": 59,
          "name": "B3",
          "ticks": 31296,
          "time": 37.61534699999999,
          "velocity": 0.3937007874015748
        },
        {
          "duration": 0.11538450000000466,
          "durationTicks": 96,
          "midi": 55,
          "name": "G3",
          "ticks": 31296,
          "time": 37.61534699999999,
          "velocity": 0.3937007874015748
        },
        {
          "duration": 0.11538450000000466,
          "durationTicks": 96,
          "midi": 49,
          "name": "C#3",
          "ticks": 31296,
          "time": 37.61534699999999,
          "velocity": 0.3937007874015748
        },
        {
          "duration": 0.11538449999999756,
          "durationTicks": 96,
          "midi": 42,
          "name": "F#2",
          "ticks": 31488,
          "time": 37.846115999999995,
          "velocity": 0.3937007874015748
        },
        {
          "duration": 0.11538449999999756,
          "durationTicks": 96,
          "midi": 59,
          "name": "B3",
          "ticks": 31488,
          "time": 37.846115999999995,
          "velocity": 0.3937007874015748
        },
        {
          "duration": 0.11538449999999756,
          "durationTicks": 96,
          "midi": 59,
          "name": "B3",
          "ticks": 31680,
          "time": 38.076885,
          "velocity": 0.3937007874015748
        },
        {
          "duration": 0.11538449999999756,
          "durationTicks": 96,
          "midi": 54,
          "name": "F#3",
          "ticks": 31680,
          "time": 38.076885,
          "velocity": 0.3937007874015748
        },
        {
          "duration": 0.11538449999999756,
          "durationTicks": 96,
          "midi": 49,
          "name": "C#3",
          "ticks": 31680,
          "time": 38.076885,
          "velocity": 0.3937007874015748
        },
        {
          "duration": 0.11538450000000466,
          "durationTicks": 96,
          "midi": 51,
          "name": "D#3",
          "ticks": 31872,
          "time": 38.30765399999999,
          "velocity": 0.3937007874015748
        },
        {
          "duration": 0.11538450000000466,
          "durationTicks": 96,
          "midi": 59,
          "name": "B3",
          "ticks": 31872,
          "time": 38.30765399999999,
          "velocity": 0.3937007874015748
        },
        {
          "duration": 0.11538450000000466,
          "durationTicks": 96,
          "midi": 42,
          "name": "F#2",
          "ticks": 31872,
          "time": 38.30765399999999,
          "velocity": 0.3937007874015748
        },
        {
          "duration": 0.23076900000000222,
          "durationTicks": 192,
          "midi": 59,
          "name": "B3",
          "ticks": 32064,
          "time": 38.538422999999995,
          "velocity": 0.3937007874015748
        },
        {
          "duration": 0.11538449999999756,
          "durationTicks": 96,
          "midi": 61,
          "name": "C#4",
          "ticks": 32256,
          "time": 38.769192,
          "velocity": 0.3937007874015748
        },
        {
          "duration": 0.11538449999999756,
          "durationTicks": 96,
          "midi": 43,
          "name": "G2",
          "ticks": 32256,
          "time": 38.769192,
          "velocity": 0.3937007874015748
        },
        {
          "duration": 0.11538449999999756,
          "durationTicks": 96,
          "midi": 61,
          "name": "C#4",
          "ticks": 32448,
          "time": 38.999961,
          "velocity": 0.3937007874015748
        },
        {
          "duration": 0.11538450000000466,
          "durationTicks": 96,
          "midi": 51,
          "name": "D#3",
          "ticks": 32640,
          "time": 39.230729999999994,
          "velocity": 0.3937007874015748
        },
        {
          "duration": 0.11538450000000466,
          "durationTicks": 96,
          "midi": 43,
          "name": "G2",
          "ticks": 32640,
          "time": 39.230729999999994,
          "velocity": 0.3937007874015748
        },
        {
          "duration": 0.11538450000000466,
          "durationTicks": 96,
          "midi": 61,
          "name": "C#4",
          "ticks": 32640,
          "time": 39.230729999999994,
          "velocity": 0.3937007874015748
        },
        {
          "duration": 0.11538449999999756,
          "durationTicks": 96,
          "midi": 49,
          "name": "C#3",
          "ticks": 32832,
          "time": 39.461498999999996,
          "velocity": 0.3937007874015748
        },
        {
          "duration": 0.11538449999999756,
          "durationTicks": 96,
          "midi": 53,
          "name": "F3",
          "ticks": 32832,
          "time": 39.461498999999996,
          "velocity": 0.3937007874015748
        },
        {
          "duration": 0.11538449999999756,
          "durationTicks": 96,
          "midi": 61,
          "name": "C#4",
          "ticks": 32832,
          "time": 39.461498999999996,
          "velocity": 0.3937007874015748
        },
        {
          "duration": 0.11538449999999756,
          "durationTicks": 96,
          "midi": 61,
          "name": "C#4",
          "ticks": 33024,
          "time": 39.692268,
          "velocity": 0.3937007874015748
        },
        {
          "duration": 0.11538449999999756,
          "durationTicks": 96,
          "midi": 43,
          "name": "G2",
          "ticks": 33024,
          "time": 39.692268,
          "velocity": 0.3937007874015748
        },
        {
          "duration": 0.11538450000000466,
          "durationTicks": 96,
          "midi": 49,
          "name": "C#3",
          "ticks": 33216,
          "time": 39.923036999999994,
          "velocity": 0.3937007874015748
        },
        {
          "duration": 0.11538450000000466,
          "durationTicks": 96,
          "midi": 52,
          "name": "E3",
          "ticks": 33216,
          "time": 39.923036999999994,
          "velocity": 0.3937007874015748
        },
        {
          "duration": 0.11538450000000466,
          "durationTicks": 96,
          "midi": 61,
          "name": "C#4",
          "ticks": 33216,
          "time": 39.923036999999994,
          "velocity": 0.3937007874015748
        },
        {
          "duration": 0.11538449999999756,
          "durationTicks": 96,
          "midi": 61,
          "name": "C#4",
          "ticks": 33408,
          "time": 40.153805999999996,
          "velocity": 0.3937007874015748
        },
        {
          "duration": 0.11538449999999756,
          "durationTicks": 96,
          "midi": 51,
          "name": "D#3",
          "ticks": 33408,
          "time": 40.153805999999996,
          "velocity": 0.3937007874015748
        },
        {
          "duration": 0.11538449999999756,
          "durationTicks": 96,
          "midi": 43,
          "name": "G2",
          "ticks": 33408,
          "time": 40.153805999999996,
          "velocity": 0.3937007874015748
        },
        {
          "duration": 0.23076899999999512,
          "durationTicks": 192,
          "midi": 61,
          "name": "C#4",
          "ticks": 33600,
          "time": 40.384575,
          "velocity": 0.3937007874015748
        },
        {
          "duration": 0.11538450000000466,
          "durationTicks": 96,
          "midi": 44,
          "name": "G#2",
          "ticks": 33792,
          "time": 40.61534399999999,
          "velocity": 0.3937007874015748
        },
        {
          "duration": 0.11538450000000466,
          "durationTicks": 96,
          "midi": 63,
          "name": "D#4",
          "ticks": 33792,
          "time": 40.61534399999999,
          "velocity": 0.3937007874015748
        },
        {
          "duration": 0.11538449999999756,
          "durationTicks": 96,
          "midi": 63,
          "name": "D#4",
          "ticks": 33984,
          "time": 40.846112999999995,
          "velocity": 0.3937007874015748
        },
        {
          "duration": 0.11538449999999756,
          "durationTicks": 96,
          "midi": 44,
          "name": "G#2",
          "ticks": 34176,
          "time": 41.076882,
          "velocity": 0.3937007874015748
        },
        {
          "duration": 0.11538449999999756,
          "durationTicks": 96,
          "midi": 63,
          "name": "D#4",
          "ticks": 34176,
          "time": 41.076882,
          "velocity": 0.3937007874015748
        },
        {
          "duration": 0.11538449999999756,
          "durationTicks": 96,
          "midi": 51,
          "name": "D#3",
          "ticks": 34176,
          "time": 41.076882,
          "velocity": 0.3937007874015748
        },
        {
          "duration": 0.11538450000000466,
          "durationTicks": 96,
          "midi": 49,
          "name": "C#3",
          "ticks": 34368,
          "time": 41.30765099999999,
          "velocity": 0.3937007874015748
        },
        {
          "duration": 0.11538450000000466,
          "durationTicks": 96,
          "midi": 55,
          "name": "G3",
          "ticks": 34368,
          "time": 41.30765099999999,
          "velocity": 0.3937007874015748
        },
        {
          "duration": 0.11538450000000466,
          "durationTicks": 96,
          "midi": 63,
          "name": "D#4",
          "ticks": 34368,
          "time": 41.30765099999999,
          "velocity": 0.3937007874015748
        },
        {
          "duration": 0.11538449999999756,
          "durationTicks": 96,
          "midi": 63,
          "name": "D#4",
          "ticks": 34560,
          "time": 41.538419999999995,
          "velocity": 0.3937007874015748
        },
        {
          "duration": 0.11538449999999756,
          "durationTicks": 96,
          "midi": 44,
          "name": "G#2",
          "ticks": 34560,
          "time": 41.538419999999995,
          "velocity": 0.3937007874015748
        },
        {
          "duration": 0.11538449999999756,
          "durationTicks": 96,
          "midi": 63,
          "name": "D#4",
          "ticks": 34752,
          "time": 41.769189,
          "velocity": 0.3937007874015748
        },
        {
          "duration": 0.11538449999999756,
          "durationTicks": 96,
          "midi": 49,
          "name": "C#3",
          "ticks": 34752,
          "time": 41.769189,
          "velocity": 0.3937007874015748
        },
        {
          "duration": 0.11538449999999756,
          "durationTicks": 96,
          "midi": 54,
          "name": "F#3",
          "ticks": 34752,
          "time": 41.769189,
          "velocity": 0.3937007874015748
        },
        {
          "duration": 0.11538450000000466,
          "durationTicks": 96,
          "midi": 51,
          "name": "D#3",
          "ticks": 34944,
          "time": 41.99995799999999,
          "velocity": 0.3937007874015748
        },
        {
          "duration": 0.11538450000000466,
          "durationTicks": 96,
          "midi": 63,
          "name": "D#4",
          "ticks": 34944,
          "time": 41.99995799999999,
          "velocity": 0.3937007874015748
        },
        {
          "duration": 0.11538450000000466,
          "durationTicks": 96,
          "midi": 44,
          "name": "G#2",
          "ticks": 34944,
          "time": 41.99995799999999,
          "velocity": 0.3937007874015748
        },
        {
          "duration": 0.11538449999999756,
          "durationTicks": 96,
          "midi": 63,
          "name": "D#4",
          "ticks": 35136,
          "time": 42.230726999999995,
          "velocity": 0.3937007874015748
        },
        {
          "duration": 0.11538449999999756,
          "durationTicks": 96,
          "midi": 61,
          "name": "C#4",
          "ticks": 35328,
          "time": 42.461496,
          "velocity": 0.3937007874015748
        },
        {
          "duration": 0.11538449999999756,
          "durationTicks": 96,
          "midi": 43,
          "name": "G2",
          "ticks": 35328,
          "time": 42.461496,
          "velocity": 0.3937007874015748
        },
        {
          "duration": 0.11538450000000466,
          "durationTicks": 96,
          "midi": 61,
          "name": "C#4",
          "ticks": 35520,
          "time": 42.69226499999999,
          "velocity": 0.3937007874015748
        },
        {
          "duration": 0.11538449999999756,
          "durationTicks": 96,
          "midi": 43,
          "name": "G2",
          "ticks": 35712,
          "time": 42.923033999999994,
          "velocity": 0.3937007874015748
        },
        {
          "duration": 0.11538449999999756,
          "durationTicks": 96,
          "midi": 61,
          "name": "C#4",
          "ticks": 35712,
          "time": 42.923033999999994,
          "velocity": 0.3937007874015748
        },
        {
          "duration": 0.11538449999999756,
          "durationTicks": 96,
          "midi": 51,
          "name": "D#3",
          "ticks": 35712,
          "time": 42.923033999999994,
          "velocity": 0.3937007874015748
        },
        {
          "duration": 0.11538449999999756,
          "durationTicks": 96,
          "midi": 61,
          "name": "C#4",
          "ticks": 35904,
          "time": 43.153802999999996,
          "velocity": 0.3937007874015748
        },
        {
          "duration": 0.11538449999999756,
          "durationTicks": 96,
          "midi": 43,
          "name": "G2",
          "ticks": 36096,
          "time": 43.384572,
          "velocity": 0.3937007874015748
        },
        {
          "duration": 0.11538449999999756,
          "durationTicks": 96,
          "midi": 61,
          "name": "C#4",
          "ticks": 36096,
          "time": 43.384572,
          "velocity": 0.3937007874015748
        },
        {
          "duration": 0.11538449999999756,
          "durationTicks": 96,
          "midi": 51,
          "name": "D#3",
          "ticks": 36096,
          "time": 43.384572,
          "velocity": 0.3937007874015748
        },
        {
          "duration": 0.11538450000000466,
          "durationTicks": 96,
          "midi": 61,
          "name": "C#4",
          "ticks": 36288,
          "time": 43.615340999999994,
          "velocity": 0.3937007874015748
        },
        {
          "duration": 0.11538449999999756,
          "durationTicks": 96,
          "midi": 51,
          "name": "D#3",
          "ticks": 36480,
          "time": 43.846109999999996,
          "velocity": 0.3937007874015748
        },
        {
          "duration": 0.11538449999999756,
          "durationTicks": 96,
          "midi": 61,
          "name": "C#4",
          "ticks": 36480,
          "time": 43.846109999999996,
          "velocity": 0.3937007874015748
        },
        {
          "duration": 0.11538449999999756,
          "durationTicks": 96,
          "midi": 43,
          "name": "G2",
          "ticks": 36480,
          "time": 43.846109999999996,
          "velocity": 0.3937007874015748
        },
        {
          "duration": 0.11538449999999756,
          "durationTicks": 96,
          "midi": 61,
          "name": "C#4",
          "ticks": 36672,
          "time": 44.076879,
          "velocity": 0.3937007874015748
        },
        {
          "duration": 0.11538450000000466,
          "durationTicks": 96,
          "midi": 46,
          "name": "A#2",
          "ticks": 36864,
          "time": 44.30764799999999,
          "velocity": 0.3937007874015748
        },
        {
          "duration": 0.11538449999999756,
          "durationTicks": 96,
          "midi": 48,
          "name": "C3",
          "ticks": 36960,
          "time": 44.4230325,
          "velocity": 0.3937007874015748
        },
        {
          "duration": 0.11538449999999756,
          "durationTicks": 96,
          "midi": 51,
          "name": "D#3",
          "ticks": 37056,
          "time": 44.538416999999995,
          "velocity": 0.3937007874015748
        },
        {
          "duration": 0.11538450000000466,
          "durationTicks": 96,
          "midi": 53,
          "name": "F3",
          "ticks": 37152,
          "time": 44.65380149999999,
          "velocity": 0.3937007874015748
        },
        {
          "duration": 0.11538449999999756,
          "durationTicks": 96,
          "midi": 46,
          "name": "A#2",
          "ticks": 37248,
          "time": 44.769186,
          "velocity": 0.3937007874015748
        },
        {
          "duration": 0.11538449999999756,
          "durationTicks": 96,
          "midi": 48,
          "name": "C3",
          "ticks": 37344,
          "time": 44.884570499999995,
          "velocity": 0.3937007874015748
        },
        {
          "duration": 0.11538450000000466,
          "durationTicks": 96,
          "midi": 51,
          "name": "D#3",
          "ticks": 37440,
          "time": 44.99995499999999,
          "velocity": 0.3937007874015748
        },
        {
          "duration": 0.11538449999999756,
          "durationTicks": 96,
          "midi": 53,
          "name": "F3",
          "ticks": 37536,
          "time": 45.1153395,
          "velocity": 0.3937007874015748
        },
        {
          "duration": 0.11538449999999756,
          "durationTicks": 96,
          "midi": 46,
          "name": "A#2",
          "ticks": 37632,
          "time": 45.230723999999995,
          "velocity": 0.3937007874015748
        },
        {
          "duration": 0.11538450000000466,
          "durationTicks": 96,
          "midi": 48,
          "name": "C3",
          "ticks": 37728,
          "time": 45.34610849999999,
          "velocity": 0.3937007874015748
        },
        {
          "duration": 0.11538449999999756,
          "durationTicks": 96,
          "midi": 51,
          "name": "D#3",
          "ticks": 37824,
          "time": 45.461493,
          "velocity": 0.3937007874015748
        },
        {
          "duration": 0.11538449999999756,
          "durationTicks": 96,
          "midi": 53,
          "name": "F3",
          "ticks": 37920,
          "time": 45.576877499999995,
          "velocity": 0.3937007874015748
        },
        {
          "duration": 0.11538450000000466,
          "durationTicks": 96,
          "midi": 55,
          "name": "G3",
          "ticks": 38016,
          "time": 45.69226199999999,
          "velocity": 0.3937007874015748
        },
        {
          "duration": 0.46153799999999734,
          "durationTicks": 384,
          "midi": 55,
          "name": "G3",
          "ticks": 38208,
          "time": 45.923030999999995,
          "velocity": 0.3937007874015748
        },
        {
          "duration": 0.11538450000000466,
          "durationTicks": 96,
          "midi": 54,
          "name": "F#3",
          "ticks": 38592,
          "time": 46.38456899999999,
          "velocity": 0.3937007874015748
        },
        {
          "duration": 0.11538449999999756,
          "durationTicks": 96,
          "midi": 51,
          "name": "D#3",
          "ticks": 38784,
          "time": 46.615337999999994,
          "velocity": 0.3937007874015748
        },
        {
          "duration": 0.11538449999999756,
          "durationTicks": 96,
          "midi": 47,
          "name": "B2",
          "ticks": 38976,
          "time": 46.846106999999996,
          "velocity": 0.3937007874015748
        },
        {
          "duration": 0.11538450000000466,
          "durationTicks": 96,
          "midi": 49,
          "name": "C#3",
          "ticks": 39168,
          "time": 47.07687599999999,
          "velocity": 0.3937007874015748
        },
        {
          "duration": 0.11538449999999756,
          "durationTicks": 96,
          "midi": 47,
          "name": "B2",
          "ticks": 39360,
          "time": 47.307644999999994,
          "velocity": 0.3937007874015748
        },
        {
          "duration": 0.11538449999999756,
          "durationTicks": 96,
          "midi": 46,
          "name": "A#2",
          "ticks": 39552,
          "time": 47.538413999999996,
          "velocity": 0.3937007874015748
        },
        {
          "duration": 0.11538449999999756,
          "durationTicks": 96,
          "midi": 44,
          "name": "G#2",
          "ticks": 39744,
          "time": 47.769183,
          "velocity": 0.3937007874015748
        },
        {
          "duration": 0.23076900000000222,
          "durationTicks": 192,
          "midi": 55,
          "name": "G3",
          "ticks": 39936,
          "time": 47.99995199999999,
          "velocity": 0.3937007874015748
        },
        {
          "duration": 0.11538449999999756,
          "durationTicks": 96,
          "midi": 62,
          "name": "D4",
          "ticks": 40128,
          "time": 48.230720999999996,
          "velocity": 0.3937007874015748
        },
        {
          "duration": 0.11538450000000466,
          "durationTicks": 96,
          "midi": 61,
          "name": "C#4",
          "ticks": 40224,
          "time": 48.34610549999999,
          "velocity": 0.3937007874015748
        },
        {
          "duration": 0.11538449999999756,
          "durationTicks": 96,
          "midi": 60,
          "name": "C4",
          "ticks": 40320,
          "time": 48.46149,
          "velocity": 0.3937007874015748
        },
        {
          "duration": 0.11538449999999756,
          "durationTicks": 96,
          "midi": 56,
          "name": "G#3",
          "ticks": 40416,
          "time": 48.576874499999995,
          "velocity": 0.3937007874015748
        },
        {
          "duration": 0.11538450000000466,
          "durationTicks": 96,
          "midi": 59,
          "name": "B3",
          "ticks": 40512,
          "time": 48.69225899999999,
          "velocity": 0.3937007874015748
        },
        {
          "duration": 0.11538449999999756,
          "durationTicks": 96,
          "midi": 60,
          "name": "C4",
          "ticks": 40608,
          "time": 48.8076435,
          "velocity": 0.3937007874015748
        },
        {
          "duration": 0.11538449999999756,
          "durationTicks": 96,
          "midi": 63,
          "name": "D#4",
          "ticks": 40704,
          "time": 48.923027999999995,
          "velocity": 0.3937007874015748
        },
        {
          "duration": 0.11538450000000466,
          "durationTicks": 96,
          "midi": 56,
          "name": "G#3",
          "ticks": 40800,
          "time": 49.03841249999999,
          "velocity": 0.3937007874015748
        },
        {
          "duration": 0.11538449999999756,
          "durationTicks": 96,
          "midi": 58,
          "name": "A#3",
          "ticks": 40896,
          "time": 49.153797,
          "velocity": 0.3937007874015748
        },
        {
          "duration": 0.11538449999999756,
          "durationTicks": 96,
          "midi": 60,
          "name": "C4",
          "ticks": 40992,
          "time": 49.269181499999995,
          "velocity": 0.3937007874015748
        },
        {
          "duration": 0.11538450000000466,
          "durationTicks": 96,
          "midi": 63,
          "name": "D#4",
          "ticks": 41088,
          "time": 49.38456599999999,
          "velocity": 0.3937007874015748
        },
        {
          "duration": 0.6923069999999996,
          "durationTicks": 576,
          "midi": 63,
          "name": "D#4",
          "ticks": 41280,
          "time": 49.615334999999995,
          "velocity": 0.3937007874015748
        },
        {
          "duration": 0.11538450000000466,
          "durationTicks": 96,
          "midi": 49,
          "name": "C#3",
          "ticks": 42240,
          "time": 50.76917999999999,
          "velocity": 0.3937007874015748
        },
        {
          "duration": 0.11538449999999756,
          "durationTicks": 96,
          "midi": 51,
          "name": "D#3",
          "ticks": 42336,
          "time": 50.884564499999996,
          "velocity": 0.3937007874015748
        },
        {
          "duration": 0.11538449999999756,
          "durationTicks": 96,
          "midi": 53,
          "name": "F3",
          "ticks": 42432,
          "time": 50.999948999999994,
          "velocity": 0.3937007874015748
        },
        {
          "duration": 0.11538450000000466,
          "durationTicks": 96,
          "midi": 56,
          "name": "G#3",
          "ticks": 42528,
          "time": 51.11533349999999,
          "velocity": 0.3937007874015748
        },
        {
          "duration": 0.11538449999999756,
          "durationTicks": 96,
          "midi": 49,
          "name": "C#3",
          "ticks": 42624,
          "time": 51.230717999999996,
          "velocity": 0.3937007874015748
        },
        {
          "duration": 0.11538449999999756,
          "durationTicks": 96,
          "midi": 51,
          "name": "D#3",
          "ticks": 42720,
          "time": 51.34610249999999,
          "velocity": 0.3937007874015748
        },
        {
          "duration": 0.11538450000000466,
          "durationTicks": 96,
          "midi": 47,
          "name": "B2",
          "ticks": 42816,
          "time": 51.46148699999999,
          "velocity": 0.3937007874015748
        },
        {
          "duration": 0.11538450000000466,
          "durationTicks": 96,
          "midi": 53,
          "name": "F3",
          "ticks": 42816,
          "time": 51.46148699999999,
          "velocity": 0.3937007874015748
        },
        {
          "duration": 0.11538449999999756,
          "durationTicks": 96,
          "midi": 56,
          "name": "G#3",
          "ticks": 42912,
          "time": 51.576871499999996,
          "velocity": 0.3937007874015748
        },
        {
          "duration": 0.11538449999999756,
          "durationTicks": 96,
          "midi": 46,
          "name": "A#2",
          "ticks": 43008,
          "time": 51.69225599999999,
          "velocity": 0.3937007874015748
        },
        {
          "duration": 0.11538450000000466,
          "durationTicks": 96,
          "midi": 48,
          "name": "C3",
          "ticks": 43104,
          "time": 51.80764049999999,
          "velocity": 0.3937007874015748
        },
        {
          "duration": 0.11538449999999756,
          "durationTicks": 96,
          "midi": 51,
          "name": "D#3",
          "ticks": 43200,
          "time": 51.923024999999996,
          "velocity": 0.3937007874015748
        },
        {
          "duration": 0.11538449999999756,
          "durationTicks": 96,
          "midi": 53,
          "name": "F3",
          "ticks": 43296,
          "time": 52.03840949999999,
          "velocity": 0.3937007874015748
        },
        {
          "duration": 0.11538450000000466,
          "durationTicks": 96,
          "midi": 46,
          "name": "A#2",
          "ticks": 43392,
          "time": 52.15379399999999,
          "velocity": 0.3937007874015748
        },
        {
          "duration": 0.11538449999999756,
          "durationTicks": 96,
          "midi": 48,
          "name": "C3",
          "ticks": 43488,
          "time": 52.269178499999995,
          "velocity": 0.3937007874015748
        },
        {
          "duration": 0.11538450000000466,
          "durationTicks": 96,
          "midi": 51,
          "name": "D#3",
          "ticks": 43584,
          "time": 52.38456299999999,
          "velocity": 0.3937007874015748
        },
        {
          "duration": 0.11538449999999756,
          "durationTicks": 96,
          "midi": 53,
          "name": "F3",
          "ticks": 43680,
          "time": 52.4999475,
          "velocity": 0.3937007874015748
        },
        {
          "duration": 0.11538449999999756,
          "durationTicks": 96,
          "midi": 46,
          "name": "A#2",
          "ticks": 43776,
          "time": 52.615331999999995,
          "velocity": 0.3937007874015748
        },
        {
          "duration": 0.11538450000000466,
          "durationTicks": 96,
          "midi": 48,
          "name": "C3",
          "ticks": 43872,
          "time": 52.73071649999999,
          "velocity": 0.3937007874015748
        },
        {
          "duration": 0.11538449999999756,
          "durationTicks": 96,
          "midi": 51,
          "name": "D#3",
          "ticks": 43968,
          "time": 52.846101,
          "velocity": 0.3937007874015748
        },
        {
          "duration": 0.11538449999999756,
          "durationTicks": 96,
          "midi": 53,
          "name": "F3",
          "ticks": 44064,
          "time": 52.961485499999995,
          "velocity": 0.3937007874015748
        },
        {
          "duration": 0.11538450000000466,
          "durationTicks": 96,
          "midi": 55,
          "name": "G3",
          "ticks": 44160,
          "time": 53.07686999999999,
          "velocity": 0.3937007874015748
        },
        {
          "duration": 0.46153799999999734,
          "durationTicks": 384,
          "midi": 56,
          "name": "G#3",
          "ticks": 44352,
          "time": 53.307638999999995,
          "velocity": 0.3937007874015748
        },
        {
          "duration": 0.11538450000000466,
          "durationTicks": 96,
          "midi": 54,
          "name": "F#3",
          "ticks": 44736,
          "time": 53.76917699999999,
          "velocity": 0.3937007874015748
        },
        {
          "duration": 0.11538449999999756,
          "durationTicks": 96,
          "midi": 51,
          "name": "D#3",
          "ticks": 44928,
          "time": 53.999945999999994,
          "velocity": 0.3937007874015748
        },
        {
          "duration": 0.11538449999999756,
          "durationTicks": 96,
          "midi": 47,
          "name": "B2",
          "ticks": 45120,
          "time": 54.230715,
          "velocity": 0.3937007874015748
        },
        {
          "duration": 0.11538450000000466,
          "durationTicks": 96,
          "midi": 49,
          "name": "C#3",
          "ticks": 45312,
          "time": 54.46148399999999,
          "velocity": 0.3937007874015748
        },
        {
          "duration": 0.11538449999999756,
          "durationTicks": 96,
          "midi": 47,
          "name": "B2",
          "ticks": 45504,
          "time": 54.692252999999994,
          "velocity": 0.3937007874015748
        },
        {
          "duration": 0.11538449999999756,
          "durationTicks": 96,
          "midi": 46,
          "name": "A#2",
          "ticks": 45696,
          "time": 54.923021999999996,
          "velocity": 0.3937007874015748
        },
        {
          "duration": 0.11538450000000466,
          "durationTicks": 96,
          "midi": 44,
          "name": "G#2",
          "ticks": 45888,
          "time": 55.15379099999999,
          "velocity": 0.3937007874015748
        },
        {
          "duration": 0.11538449999999756,
          "durationTicks": 96,
          "midi": 55,
          "name": "G3",
          "ticks": 46080,
          "time": 55.38455999999999,
          "velocity": 0.3937007874015748
        },
        {
          "duration": 0.11538450000000466,
          "durationTicks": 96,
          "midi": 56,
          "name": "G#3",
          "ticks": 46176,
          "time": 55.49994449999999,
          "velocity": 0.3937007874015748
        },
        {
          "duration": 0.11538449999999756,
          "durationTicks": 96,
          "midi": 58,
          "name": "A#3",
          "ticks": 46272,
          "time": 55.615328999999996,
          "velocity": 0.3937007874015748
        },
        {
          "duration": 0.11538449999999756,
          "durationTicks": 96,
          "midi": 58,
          "name": "A#3",
          "ticks": 46368,
          "time": 55.73071349999999,
          "velocity": 0.3937007874015748
        },
        {
          "duration": 0.11538450000000466,
          "durationTicks": 96,
          "midi": 55,
          "name": "G3",
          "ticks": 46464,
          "time": 55.84609799999999,
          "velocity": 0.3937007874015748
        },
        {
          "duration": 0.11538449999999756,
          "durationTicks": 96,
          "midi": 56,
          "name": "G#3",
          "ticks": 46560,
          "time": 55.961482499999995,
          "velocity": 0.3937007874015748
        },
        {
          "duration": 0.11538449999999756,
          "durationTicks": 96,
          "midi": 58,
          "name": "A#3",
          "ticks": 46656,
          "time": 56.07686699999999,
          "velocity": 0.3937007874015748
        },
        {
          "duration": 0.11538450000000466,
          "durationTicks": 96,
          "midi": 60,
          "name": "C4",
          "ticks": 46752,
          "time": 56.19225149999999,
          "velocity": 0.3937007874015748
        },
        {
          "duration": 0.11538449999999756,
          "durationTicks": 96,
          "midi": 55,
          "name": "G3",
          "ticks": 46848,
          "time": 56.307635999999995,
          "velocity": 0.3937007874015748
        },
        {
          "duration": 0.11538449999999756,
          "durationTicks": 96,
          "midi": 56,
          "name": "G#3",
          "ticks": 46944,
          "time": 56.42302049999999,
          "velocity": 0.3937007874015748
        },
        {
          "duration": 0.23076900000000222,
          "durationTicks": 192,
          "midi": 58,
          "name": "A#3",
          "ticks": 47040,
          "time": 56.53840499999999,
          "velocity": 0.3937007874015748
        },
        {
          "duration": 0.11538449999999756,
          "durationTicks": 96,
          "midi": 59,
          "name": "B3",
          "ticks": 47616,
          "time": 57.230712,
          "velocity": 0.3937007874015748
        },
        {
          "duration": 0.11538450000000466,
          "durationTicks": 96,
          "midi": 60,
          "name": "C4",
          "ticks": 47808,
          "time": 57.46148099999999,
          "velocity": 0.3937007874015748
        },
        {
          "duration": 0.11538449999999756,
          "durationTicks": 96,
          "midi": 58,
          "name": "A#3",
          "ticks": 48000,
          "time": 57.692249999999994,
          "velocity": 0.3937007874015748
        },
        {
          "duration": 0.11538449999999756,
          "durationTicks": 96,
          "midi": 56,
          "name": "G#3",
          "ticks": 48192,
          "time": 57.923019,
          "velocity": 0.3937007874015748
        },
        {
          "duration": 0.11538450000000466,
          "durationTicks": 96,
          "midi": 53,
          "name": "F3",
          "ticks": 48384,
          "time": 58.15378799999999,
          "velocity": 0.3937007874015748
        },
        {
          "duration": 0.11538449999999756,
          "durationTicks": 96,
          "midi": 53,
          "name": "F3",
          "ticks": 48576,
          "time": 58.384556999999994,
          "velocity": 0.3937007874015748
        },
        {
          "duration": 0.11538449999999756,
          "durationTicks": 96,
          "midi": 51,
          "name": "D#3",
          "ticks": 48768,
          "time": 58.615325999999996,
          "velocity": 0.3937007874015748
        },
        {
          "duration": 0.11538450000000466,
          "durationTicks": 96,
          "midi": 49,
          "name": "C#3",
          "ticks": 48960,
          "time": 58.84609499999999,
          "velocity": 0.3937007874015748
        }
      ],
      "endOfTrackTicks": 49056
    }
  ]
}
