{
  "header": {
    "keySignatures": [],
    "meta": [],
    "name": "",
    "ppq": 384,
    "tempos": [
      {
        "bpm": 300,
        "ticks": 0
      }
    ],
    "timeSignatures": [
      {
        "ticks": 0,
        "timeSignature": [
          1,
          4
        ],
        "measures": 0
      }
    ]
  },
  "tracks": [
    {
      "channel": 0,
      "controlChanges": {},
      "pitchBends": [],
      "instrument": {
        "family": "piano",
        "number": 0,
        "name": "acoustic grand piano"
      },
      "name": "Elec. Piano (Classic)",
      "notes": [
        {
          "duration": 0.17500000000000002,
          "durationTicks": 336,
          "midi": 73,
          "name": "C#5",
          "ticks": 0,
          "time": 0,
          "velocity": 0.48031496062992124
        },
        {
          "duration": 0.175,
          "durationTicks": 336,
          "midi": 68,
          "name": "G#4",
          "ticks": 384,
          "time": 0.2,
          "velocity": 0.48031496062992124
        },
        {
          "duration": 0.17500000000000004,
          "durationTicks": 336,
          "midi": 69,
          "name": "A4",
          "ticks": 768,
          "time": 0.4,
          "velocity": 0.48031496062992124
        },
        {
          "duration": 0.17499999999999993,
          "durationTicks": 336,
          "midi": 66,
          "name": "F#4",
          "ticks": 1152,
          "time": 0.6000000000000001,
          "velocity": 0.48031496062992124
        },
        {
          "duration": 0.17500000000000004,
          "durationTicks": 336,
          "midi": 68,
          "name": "G#4",
          "ticks": 1536,
          "time": 0.8,
          "velocity": 0.48031496062992124
        },
        {
          "duration": 0.17500000000000004,
          "durationTicks": 336,
          "midi": 73,
          "name": "C#5",
          "ticks": 1920,
          "time": 1,
          "velocity": 0.48031496062992124
        },
        {
          "duration": 0.07499999999999996,
          "durationTicks": 144,
          "midi": 68,
          "name": "G#4",
          "ticks": 2304,
          "time": 1.2000000000000002,
          "velocity": 0.48031496062992124
        },
        {
          "duration": 0.07499999999999996,
          "durationTicks": 144,
          "midi": 66,
          "name": "F#4",
          "ticks": 2496,
          "time": 1.3,
          "velocity": 0.48031496062992124
        },
        {
          "duration": 0.17500000000000004,
          "durationTicks": 336,
          "midi": 64,
          "name": "E4",
          "ticks": 2688,
          "time": 1.4000000000000001,
          "velocity": 0.48031496062992124
        },
        {
          "duration": 0.17500000000000004,
          "durationTicks": 336,
          "midi": 63,
          "name": "D#4",
          "ticks": 3072,
          "time": 1.6,
          "velocity": 0.48031496062992124
        },
        {
          "duration": 0.17500000000000004,
          "durationTicks": 336,
          "midi": 66,
          "name": "F#4",
          "ticks": 3456,
          "time": 1.8,
          "velocity": 0.48031496062992124
        },
        {
          "duration": 0.07500000000000018,
          "durationTicks": 144,
          "midi": 64,
          "name": "E4",
          "ticks": 3840,
          "time": 2,
          "velocity": 0.48031496062992124
        },
        {
          "duration": 0.07500000000000018,
          "durationTicks": 144,
          "midi": 63,
          "name": "D#4",
          "ticks": 4032,
          "time": 2.1,
          "velocity": 0.48031496062992124
        },
        {
          "duration": 0.17499999999999982,
          "durationTicks": 336,
          "midi": 60,
          "name": "C4",
          "ticks": 4224,
          "time": 2.2,
          "velocity": 0.48031496062992124
        },
        {
          "duration": 0.17499999999999982,
          "durationTicks": 336,
          "midi": 61,
          "name": "C#4",
          "ticks": 4608,
          "time": 2.4000000000000004,
          "velocity": 0.48031496062992124
        },
        {
          "duration": 0.17500000000000027,
          "durationTicks": 336,
          "midi": 69,
          "name": "A4",
          "ticks": 4992,
          "time": 2.6,
          "velocity": 0.48031496062992124
        },
        {
          "duration": 0.07499999999999973,
          "durationTicks": 144,
          "midi": 68,
          "name": "G#4",
          "ticks": 5376,
          "time": 2.8000000000000003,
          "velocity": 0.48031496062992124
        },
        {
          "duration": 0.07499999999999973,
          "durationTicks": 144,
          "midi": 66,
          "name": "F#4",
          "ticks": 5568,
          "time": 2.9000000000000004,
          "velocity": 0.48031496062992124
        },
        {
          "duration": 0.17500000000000027,
          "durationTicks": 336,
          "midi": 68,
          "name": "G#4",
          "ticks": 5760,
          "time": 3,
          "velocity": 0.48031496062992124
        },
        {
          "duration": 0.17500000000000027,
          "durationTicks": 336,
          "midi": 64,
          "name": "E4",
          "ticks": 5760,
          "time": 3,
          "velocity": 0.48031496062992124
        },
        {
          "duration": 0.17499999999999982,
          "durationTicks": 336,
          "midi": 63,
          "name": "D#4",
          "ticks": 6144,
          "time": 3.2,
          "velocity": 0.48031496062992124
        },
        {
          "duration": 0.17499999999999982,
          "durationTicks": 336,
          "midi": 60,
          "name": "C4",
          "ticks": 6528,
          "time": 3.4000000000000004,
          "velocity": 0.48031496062992124
        },
        {
          "duration": 0.07500000000000018,
          "durationTicks": 144,
          "midi": 69,
          "name": "A4",
          "ticks": 6912,
          "time": 3.6,
          "velocity": 0.48031496062992124
        },
        {
          "duration": 0.07500000000000018,
          "durationTicks": 144,
          "midi": 68,
          "name": "G#4",
          "ticks": 7104,
          "time": 3.7,
          "velocity": 0.48031496062992124
        },
        {
          "duration": 0.17499999999999982,
          "durationTicks": 336,
          "midi": 66,
          "name": "F#4",
          "ticks": 7296,
          "time": 3.8000000000000003,
          "velocity": 0.48031496062992124
        },
        {
          "duration": 0.17499999999999982,
          "durationTicks": 336,
          "midi": 68,
          "name": "G#4",
          "ticks": 7680,
          "time": 4,
          "velocity": 0.48031496062992124
        },
        {
          "duration": 0.17499999999999982,
          "durationTicks": 336,
          "midi": 73,
          "name": "C#5",
          "ticks": 8064,
          "time": 4.2,
          "velocity": 0.48031496062992124
        },
        {
          "duration": 0.07500000000000018,
          "durationTicks": 144,
          "midi": 76,
          "name": "E5",
          "ticks": 8448,
          "time": 4.4,
          "velocity": 0.48031496062992124
        },
        {
          "duration": 0.07500000000000018,
          "durationTicks": 144,
          "midi": 75,
          "name": "D#5",
          "ticks": 8640,
          "time": 4.5,
          "velocity": 0.48031496062992124
        },
        {
          "duration": 0.17499999999999982,
          "durationTicks": 336,
          "midi": 73,
          "name": "C#5",
          "ticks": 8832,
          "time": 4.6000000000000005,
          "velocity": 0.48031496062992124
        },
        {
          "duration": 0.07499999999999929,
          "durationTicks": 144,
          "midi": 76,
          "name": "E5",
          "ticks": 9216,
          "time": 4.800000000000001,
          "velocity": 0.48031496062992124
        },
        {
          "duration": 0.07500000000000018,
          "durationTicks": 144,
          "midi": 75,
          "name": "D#5",
          "ticks": 9408,
          "time": 4.9,
          "velocity": 0.48031496062992124
        },
        {
          "duration": 0.07500000000000018,
          "durationTicks": 144,
          "midi": 73,
          "name": "C#5",
          "ticks": 9600,
          "time": 5,
          "velocity": 0.48031496062992124
        },
        {
          "duration": 0.07500000000000018,
          "durationTicks": 144,
          "midi": 71,
          "name": "B4",
          "ticks": 9792,
          "time": 5.1000000000000005,
          "velocity": 0.48031496062992124
        },
        {
          "duration": 0.07500000000000018,
          "durationTicks": 144,
          "midi": 69,
          "name": "A4",
          "ticks": 9984,
          "time": 5.2,
          "velocity": 0.48031496062992124
        },
        {
          "duration": 0.07499999999999929,
          "durationTicks": 144,
          "midi": 66,
          "name": "F#4",
          "ticks": 10176,
          "time": 5.300000000000001,
          "velocity": 0.48031496062992124
        },
        {
          "duration": 0.07500000000000018,
          "durationTicks": 144,
          "midi": 63,
          "name": "D#4",
          "ticks": 10368,
          "time": 5.4,
          "velocity": 0.48031496062992124
        },
        {
          "duration": 0.07500000000000018,
          "durationTicks": 144,
          "midi": 60,
          "name": "C4",
          "ticks": 10560,
          "time": 5.5,
          "velocity": 0.48031496062992124
        },
        {
          "duration": 0.17499999999999982,
          "durationTicks": 336,
          "midi": 68,
          "name": "G#4",
          "ticks": 10752,
          "time": 5.6000000000000005,
          "velocity": 0.48031496062992124
        },
        {
          "duration": 0.17499999999999982,
          "durationTicks": 336,
          "midi": 69,
          "name": "A4",
          "ticks": 11136,
          "time": 5.800000000000001,
          "velocity": 0.48031496062992124
        },
        {
          "duration": 0.27500000000000036,
          "durationTicks": 528,
          "midi": 68,
          "name": "G#4",
          "ticks": 11520,
          "time": 6,
          "velocity": 0.48031496062992124
        },
        {
          "duration": 0.07499999999999929,
          "durationTicks": 144,
          "midi": 75,
          "name": "D#5",
          "ticks": 12096,
          "time": 6.300000000000001,
          "velocity": 0.48031496062992124
        },
        {
          "duration": 0.17499999999999982,
          "durationTicks": 336,
          "midi": 73,
          "name": "C#5",
          "ticks": 12288,
          "time": 6.4,
          "velocity": 0.48031496062992124
        },
        {
          "duration": 0.17499999999999982,
          "durationTicks": 336,
          "midi": 76,
          "name": "E5",
          "ticks": 12288,
          "time": 6.4,
          "velocity": 0.48031496062992124
        },
        {
          "duration": 0.17499999999999982,
          "durationTicks": 336,
          "midi": 68,
          "name": "G#4",
          "ticks": 12672,
          "time": 6.6000000000000005,
          "velocity": 0.48031496062992124
        },
        {
          "duration": 0.17499999999999982,
          "durationTicks": 336,
          "midi": 73,
          "name": "C#5",
          "ticks": 12672,
          "time": 6.6000000000000005,
          "velocity": 0.48031496062992124
        },
        {
          "duration": 0.17499999999999982,
          "durationTicks": 336,
          "midi": 75,
          "name": "D#5",
          "ticks": 13056,
          "time": 6.800000000000001,
          "velocity": 0.48031496062992124
        },
        {
          "duration": 0.17499999999999982,
          "durationTicks": 336,
          "midi": 69,
          "name": "A4",
          "ticks": 13056,
          "time": 6.800000000000001,
          "velocity": 0.48031496062992124
        },
        {
          "duration": 0.1750000000000007,
          "durationTicks": 336,
          "midi": 66,
          "name": "F#4",
          "ticks": 13440,
          "time": 7,
          "velocity": 0.48031496062992124
        },
        {
          "duration": 0.1750000000000007,
          "durationTicks": 336,
          "midi": 72,
          "name": "C5",
          "ticks": 13440,
          "time": 7,
          "velocity": 0.48031496062992124
        },
        {
          "duration": 0.17499999999999982,
          "durationTicks": 336,
          "midi": 68,
          "name": "G#4",
          "ticks": 13824,
          "time": 7.2,
          "velocity": 0.48031496062992124
        },
        {
          "duration": 0.17499999999999982,
          "durationTicks": 336,
          "midi": 73,
          "name": "C#5",
          "ticks": 13824,
          "time": 7.2,
          "velocity": 0.48031496062992124
        },
        {
          "duration": 0.17499999999999982,
          "durationTicks": 336,
          "midi": 73,
          "name": "C#5",
          "ticks": 14208,
          "time": 7.4,
          "velocity": 0.48031496062992124
        },
        {
          "duration": 0.17499999999999982,
          "durationTicks": 336,
          "midi": 76,
          "name": "E5",
          "ticks": 14208,
          "time": 7.4,
          "velocity": 0.48031496062992124
        },
        {
          "duration": 0.07500000000000018,
          "durationTicks": 144,
          "midi": 68,
          "name": "G#4",
          "ticks": 14592,
          "time": 7.6000000000000005,
          "velocity": 0.48031496062992124
        },
        {
          "duration": 0.07500000000000018,
          "durationTicks": 144,
          "midi": 73,
          "name": "C#5",
          "ticks": 14592,
          "time": 7.6000000000000005,
          "velocity": 0.48031496062992124
        },
        {
          "duration": 0.07500000000000018,
          "durationTicks": 144,
          "midi": 66,
          "name": "F#4",
          "ticks": 14784,
          "time": 7.7,
          "velocity": 0.48031496062992124
        },
        {
          "duration": 0.07500000000000018,
          "durationTicks": 144,
          "midi": 72,
          "name": "C5",
          "ticks": 14784,
          "time": 7.7,
          "velocity": 0.48031496062992124
        },
        {
          "duration": 0.17499999999999982,
          "durationTicks": 336,
          "midi": 64,
          "name": "E4",
          "ticks": 14976,
          "time": 7.800000000000001,
          "velocity": 0.48031496062992124
        },
        {
          "duration": 0.17499999999999982,
          "durationTicks": 336,
          "midi": 73,
          "name": "C#5",
          "ticks": 14976,
          "time": 7.800000000000001,
          "velocity": 0.48031496062992124
        },
        {
          "duration": 0.1750000000000007,
          "durationTicks": 336,
          "midi": 72,
          "name": "C5",
          "ticks": 15360,
          "time": 8,
          "velocity": 0.48031496062992124
        },
        {
          "duration": 0.1750000000000007,
          "durationTicks": 336,
          "midi": 63,
          "name": "D#4",
          "ticks": 15360,
          "time": 8,
          "velocity": 0.48031496062992124
        },
        {
          "duration": 0.17499999999999893,
          "durationTicks": 336,
          "midi": 66,
          "name": "F#4",
          "ticks": 15744,
          "time": 8.200000000000001,
          "velocity": 0.48031496062992124
        },
        {
          "duration": 0.17499999999999893,
          "durationTicks": 336,
          "midi": 75,
          "name": "D#5",
          "ticks": 15744,
          "time": 8.200000000000001,
          "velocity": 0.48031496062992124
        },
        {
          "duration": 0.07499999999999929,
          "durationTicks": 144,
          "midi": 64,
          "name": "E4",
          "ticks": 16128,
          "time": 8.4,
          "velocity": 0.48031496062992124
        },
        {
          "duration": 0.07499999999999929,
          "durationTicks": 144,
          "midi": 72,
          "name": "C5",
          "ticks": 16128,
          "time": 8.4,
          "velocity": 0.48031496062992124
        },
        {
          "duration": 0.07500000000000107,
          "durationTicks": 144,
          "midi": 69,
          "name": "A4",
          "ticks": 16320,
          "time": 8.5,
          "velocity": 0.48031496062992124
        },
        {
          "duration": 0.07500000000000107,
          "durationTicks": 144,
          "midi": 63,
          "name": "D#4",
          "ticks": 16320,
          "time": 8.5,
          "velocity": 0.48031496062992124
        },
        {
          "duration": 0.1750000000000007,
          "durationTicks": 336,
          "midi": 60,
          "name": "C4",
          "ticks": 16512,
          "time": 8.6,
          "velocity": 0.48031496062992124
        },
        {
          "duration": 0.1750000000000007,
          "durationTicks": 336,
          "midi": 66,
          "name": "F#4",
          "ticks": 16512,
          "time": 8.6,
          "velocity": 0.48031496062992124
        },
        {
          "duration": 0.17499999999999893,
          "durationTicks": 336,
          "midi": 68,
          "name": "G#4",
          "ticks": 16896,
          "time": 8.8,
          "velocity": 0.48031496062992124
        },
        {
          "duration": 0.17499999999999893,
          "durationTicks": 336,
          "midi": 61,
          "name": "C#4",
          "ticks": 16896,
          "time": 8.8,
          "velocity": 0.48031496062992124
        },
        {
          "duration": 0.1750000000000007,
          "durationTicks": 336,
          "midi": 76,
          "name": "E5",
          "ticks": 17280,
          "time": 9,
          "velocity": 0.48031496062992124
        },
        {
          "duration": 0.1750000000000007,
          "durationTicks": 336,
          "midi": 69,
          "name": "A4",
          "ticks": 17280,
          "time": 9,
          "velocity": 0.48031496062992124
        },
        {
          "duration": 0.07499999999999929,
          "durationTicks": 144,
          "midi": 68,
          "name": "G#4",
          "ticks": 17664,
          "time": 9.200000000000001,
          "velocity": 0.48031496062992124
        },
        {
          "duration": 0.07499999999999929,
          "durationTicks": 144,
          "midi": 73,
          "name": "C#5",
          "ticks": 17664,
          "time": 9.200000000000001,
          "velocity": 0.48031496062992124
        },
        {
          "duration": 0.07499999999999929,
          "durationTicks": 144,
          "midi": 66,
          "name": "F#4",
          "ticks": 17856,
          "time": 9.3,
          "velocity": 0.48031496062992124
        },
        {
          "duration": 0.07499999999999929,
          "durationTicks": 144,
          "midi": 72,
          "name": "C5",
          "ticks": 17856,
          "time": 9.3,
          "velocity": 0.48031496062992124
        },
        {
          "duration": 0.1750000000000007,
          "durationTicks": 336,
          "midi": 64,
          "name": "E4",
          "ticks": 18048,
          "time": 9.4,
          "velocity": 0.48031496062992124
        },
        {
          "duration": 0.1750000000000007,
          "durationTicks": 336,
          "midi": 73,
          "name": "C#5",
          "ticks": 18048,
          "time": 9.4,
          "velocity": 0.48031496062992124
        },
        {
          "duration": 0.17499999999999893,
          "durationTicks": 336,
          "midi": 72,
          "name": "C5",
          "ticks": 18432,
          "time": 9.600000000000001,
          "velocity": 0.48031496062992124
        },
        {
          "duration": 0.17499999999999893,
          "durationTicks": 336,
          "midi": 63,
          "name": "D#4",
          "ticks": 18432,
          "time": 9.600000000000001,
          "velocity": 0.48031496062992124
        },
        {
          "duration": 0.1750000000000007,
          "durationTicks": 336,
          "midi": 60,
          "name": "C4",
          "ticks": 18816,
          "time": 9.8,
          "velocity": 0.48031496062992124
        },
        {
          "duration": 0.1750000000000007,
          "durationTicks": 336,
          "midi": 68,
          "name": "G#4",
          "ticks": 18816,
          "time": 9.8,
          "velocity": 0.48031496062992124
        },
        {
          "duration": 0.07500000000000107,
          "durationTicks": 144,
          "midi": 76,
          "name": "E5",
          "ticks": 19200,
          "time": 10,
          "velocity": 0.48031496062992124
        },
        {
          "duration": 0.07500000000000107,
          "durationTicks": 144,
          "midi": 69,
          "name": "A4",
          "ticks": 19200,
          "time": 10,
          "velocity": 0.48031496062992124
        },
        {
          "duration": 0.07499999999999929,
          "durationTicks": 144,
          "midi": 75,
          "name": "D#5",
          "ticks": 19392,
          "time": 10.100000000000001,
          "velocity": 0.48031496062992124
        },
        {
          "duration": 0.07499999999999929,
          "durationTicks": 144,
          "midi": 68,
          "name": "G#4",
          "ticks": 19392,
          "time": 10.100000000000001,
          "velocity": 0.48031496062992124
        },
        {
          "duration": 0.17499999999999893,
          "durationTicks": 336,
          "midi": 72,
          "name": "C5",
          "ticks": 19584,
          "time": 10.200000000000001,
          "velocity": 0.48031496062992124
        },
        {
          "duration": 0.17499999999999893,
          "durationTicks": 336,
          "midi": 66,
          "name": "F#4",
          "ticks": 19584,
          "time": 10.200000000000001,
          "velocity": 0.48031496062992124
        },
        {
          "duration": 0.1750000000000007,
          "durationTicks": 336,
          "midi": 68,
          "name": "G#4",
          "ticks": 19968,
          "time": 10.4,
          "velocity": 0.48031496062992124
        },
        {
          "duration": 0.1750000000000007,
          "durationTicks": 336,
          "midi": 73,
          "name": "C#5",
          "ticks": 19968,
          "time": 10.4,
          "velocity": 0.48031496062992124
        },
        {
          "duration": 0.17499999999999893,
          "durationTicks": 336,
          "midi": 73,
          "name": "C#5",
          "ticks": 20352,
          "time": 10.600000000000001,
          "velocity": 0.48031496062992124
        },
        {
          "duration": 0.17499999999999893,
          "durationTicks": 336,
          "midi": 80,
          "name": "G#5",
          "ticks": 20352,
          "time": 10.600000000000001,
          "velocity": 0.48031496062992124
        },
        {
          "duration": 0.07499999999999929,
          "durationTicks": 144,
          "midi": 76,
          "name": "E5",
          "ticks": 20736,
          "time": 10.8,
          "velocity": 0.48031496062992124
        },
        {
          "duration": 0.07499999999999929,
          "durationTicks": 144,
          "midi": 83,
          "name": "B5",
          "ticks": 20736,
          "time": 10.8,
          "velocity": 0.48031496062992124
        },
        {
          "duration": 0.07500000000000107,
          "durationTicks": 144,
          "midi": 81,
          "name": "A5",
          "ticks": 20928,
          "time": 10.9,
          "velocity": 0.48031496062992124
        },
        {
          "duration": 0.07500000000000107,
          "durationTicks": 144,
          "midi": 75,
          "name": "D#5",
          "ticks": 20928,
          "time": 10.9,
          "velocity": 0.48031496062992124
        },
        {
          "duration": 0.1750000000000007,
          "durationTicks": 336,
          "midi": 80,
          "name": "G#5",
          "ticks": 21120,
          "time": 11,
          "velocity": 0.48031496062992124
        },
        {
          "duration": 0.1750000000000007,
          "durationTicks": 336,
          "midi": 73,
          "name": "C#5",
          "ticks": 21120,
          "time": 11,
          "velocity": 0.48031496062992124
        },
        {
          "duration": 0.07499999999999929,
          "durationTicks": 144,
          "midi": 81,
          "name": "A5",
          "ticks": 21504,
          "time": 11.200000000000001,
          "velocity": 0.48031496062992124
        },
        {
          "duration": 0.17499999999999893,
          "durationTicks": 336,
          "midi": 76,
          "name": "E5",
          "ticks": 21504,
          "time": 11.200000000000001,
          "velocity": 0.48031496062992124
        },
        {
          "duration": 0.07499999999999929,
          "durationTicks": 144,
          "midi": 80,
          "name": "G#5",
          "ticks": 21696,
          "time": 11.3,
          "velocity": 0.48031496062992124
        },
        {
          "duration": 0.07500000000000107,
          "durationTicks": 144,
          "midi": 81,
          "name": "A5",
          "ticks": 21888,
          "time": 11.4,
          "velocity": 0.48031496062992124
        },
        {
          "duration": 0.1750000000000007,
          "durationTicks": 336,
          "midi": 73,
          "name": "C#5",
          "ticks": 21888,
          "time": 11.4,
          "velocity": 0.48031496062992124
        },
        {
          "duration": 0.07500000000000107,
          "durationTicks": 144,
          "midi": 80,
          "name": "G#5",
          "ticks": 22080,
          "time": 11.5,
          "velocity": 0.48031496062992124
        },
        {
          "duration": 0.17499999999999893,
          "durationTicks": 336,
          "midi": 69,
          "name": "A4",
          "ticks": 22272,
          "time": 11.600000000000001,
          "velocity": 0.48031496062992124
        },
        {
          "duration": 0.07499999999999929,
          "durationTicks": 144,
          "midi": 78,
          "name": "F#5",
          "ticks": 22272,
          "time": 11.600000000000001,
          "velocity": 0.48031496062992124
        },
        {
          "duration": 0.07499999999999929,
          "durationTicks": 144,
          "midi": 76,
          "name": "E5",
          "ticks": 22464,
          "time": 11.700000000000001,
          "velocity": 0.48031496062992124
        },
        {
          "duration": 0.07499999999999929,
          "durationTicks": 144,
          "midi": 75,
          "name": "D#5",
          "ticks": 22656,
          "time": 11.8,
          "velocity": 0.48031496062992124
        },
        {
          "duration": 0.1750000000000007,
          "durationTicks": 336,
          "midi": 63,
          "name": "D#4",
          "ticks": 22656,
          "time": 11.8,
          "velocity": 0.48031496062992124
        },
        {
          "duration": 0.07500000000000107,
          "durationTicks": 144,
          "midi": 73,
          "name": "C#5",
          "ticks": 22848,
          "time": 11.9,
          "velocity": 0.48031496062992124
        },
        {
          "duration": 0.1750000000000007,
          "durationTicks": 336,
          "midi": 72,
          "name": "C5",
          "ticks": 23040,
          "time": 12,
          "velocity": 0.48031496062992124
        },
        {
          "duration": 0.1750000000000007,
          "durationTicks": 336,
          "midi": 60,
          "name": "C4",
          "ticks": 23040,
          "time": 12,
          "velocity": 0.48031496062992124
        },
        {
          "duration": 0.17499999999999893,
          "durationTicks": 336,
          "midi": 69,
          "name": "A4",
          "ticks": 23424,
          "time": 12.200000000000001,
          "velocity": 0.48031496062992124
        },
        {
          "duration": 0.17499999999999893,
          "durationTicks": 336,
          "midi": 80,
          "name": "G#5",
          "ticks": 23424,
          "time": 12.200000000000001,
          "velocity": 0.48031496062992124
        },
        {
          "duration": 0.1750000000000007,
          "durationTicks": 336,
          "midi": 61,
          "name": "C#4",
          "ticks": 23808,
          "time": 12.4,
          "velocity": 0.48031496062992124
        },
        {
          "duration": 0.1750000000000007,
          "durationTicks": 336,
          "midi": 73,
          "name": "C#5",
          "ticks": 23808,
          "time": 12.4,
          "velocity": 0.48031496062992124
        },
        {
          "duration": 0.07499999999999929,
          "durationTicks": 144,
          "midi": 72,
          "name": "C5",
          "ticks": 24384,
          "time": 12.700000000000001,
          "velocity": 0.48031496062992124
        },
        {
          "duration": 0.1750000000000007,
          "durationTicks": 336,
          "midi": 73,
          "name": "C#5",
          "ticks": 24576,
          "time": 12.8,
          "velocity": 0.48031496062992124
        },
        {
          "duration": 0.1750000000000007,
          "durationTicks": 336,
          "midi": 68,
          "name": "G#4",
          "ticks": 24960,
          "time": 13,
          "velocity": 0.48031496062992124
        },
        {
          "duration": 0.17499999999999893,
          "durationTicks": 336,
          "midi": 69,
          "name": "A4",
          "ticks": 25344,
          "time": 13.200000000000001,
          "velocity": 0.48031496062992124
        },
        {
          "duration": 0.1750000000000007,
          "durationTicks": 336,
          "midi": 66,
          "name": "F#4",
          "ticks": 25728,
          "time": 13.4,
          "velocity": 0.48031496062992124
        },
        {
          "duration": 0.17499999999999893,
          "durationTicks": 336,
          "midi": 68,
          "name": "G#4",
          "ticks": 26112,
          "time": 13.600000000000001,
          "velocity": 0.48031496062992124
        },
        {
          "duration": 0.1750000000000007,
          "durationTicks": 336,
          "midi": 73,
          "name": "C#5",
          "ticks": 26496,
          "time": 13.8,
          "velocity": 0.48031496062992124
        },
        {
          "duration": 0.07500000000000107,
          "durationTicks": 144,
          "midi": 68,
          "name": "G#4",
          "ticks": 26880,
          "time": 14,
          "velocity": 0.48031496062992124
        },
        {
          "duration": 0.07499999999999929,
          "durationTicks": 144,
          "midi": 66,
          "name": "F#4",
          "ticks": 27072,
          "time": 14.100000000000001,
          "velocity": 0.48031496062992124
        },
        {
          "duration": 0.17499999999999893,
          "durationTicks": 336,
          "midi": 64,
          "name": "E4",
          "ticks": 27264,
          "time": 14.200000000000001,
          "velocity": 0.48031496062992124
        },
        {
          "duration": 0.1750000000000007,
          "durationTicks": 336,
          "midi": 63,
          "name": "D#4",
          "ticks": 27648,
          "time": 14.4,
          "velocity": 0.48031496062992124
        },
        {
          "duration": 0.17499999999999893,
          "durationTicks": 336,
          "midi": 66,
          "name": "F#4",
          "ticks": 28032,
          "time": 14.600000000000001,
          "velocity": 0.48031496062992124
        },
        {
          "duration": 0.07499999999999929,
          "durationTicks": 144,
          "midi": 64,
          "name": "E4",
          "ticks": 28416,
          "time": 14.8,
          "velocity": 0.48031496062992124
        },
        {
          "duration": 0.07500000000000107,
          "durationTicks": 144,
          "midi": 63,
          "name": "D#4",
          "ticks": 28608,
          "time": 14.9,
          "velocity": 0.48031496062992124
        },
        {
          "duration": 0.1750000000000007,
          "durationTicks": 336,
          "midi": 60,
          "name": "C4",
          "ticks": 28800,
          "time": 15,
          "velocity": 0.48031496062992124
        },
        {
          "duration": 0.17499999999999893,
          "durationTicks": 336,
          "midi": 61,
          "name": "C#4",
          "ticks": 29184,
          "time": 15.200000000000001,
          "velocity": 0.48031496062992124
        },
        {
          "duration": 0.1750000000000007,
          "durationTicks": 336,
          "midi": 69,
          "name": "A4",
          "ticks": 29568,
          "time": 15.4,
          "velocity": 0.48031496062992124
        },
        {
          "duration": 0.07499999999999929,
          "durationTicks": 144,
          "midi": 68,
          "name": "G#4",
          "ticks": 29952,
          "time": 15.600000000000001,
          "velocity": 0.48031496062992124
        },
        {
          "duration": 0.07499999999999929,
          "durationTicks": 144,
          "midi": 66,
          "name": "F#4",
          "ticks": 30144,
          "time": 15.700000000000001,
          "velocity": 0.48031496062992124
        },
        {
          "duration": 0.1750000000000007,
          "durationTicks": 336,
          "midi": 68,
          "name": "G#4",
          "ticks": 30336,
          "time": 15.8,
          "velocity": 0.48031496062992124
        },
        {
          "duration": 0.1750000000000007,
          "durationTicks": 336,
          "midi": 64,
          "name": "E4",
          "ticks": 30336,
          "time": 15.8,
          "velocity": 0.48031496062992124
        },
        {
          "duration": 0.1750000000000007,
          "durationTicks": 336,
          "midi": 63,
          "name": "D#4",
          "ticks": 30720,
          "time": 16,
          "velocity": 0.48031496062992124
        },
        {
          "duration": 0.1750000000000007,
          "durationTicks": 336,
          "midi": 60,
          "name": "C4",
          "ticks": 31104,
          "time": 16.2,
          "velocity": 0.48031496062992124
        },
        {
          "duration": 0.07499999999999929,
          "durationTicks": 144,
          "midi": 69,
          "name": "A4",
          "ticks": 31488,
          "time": 16.400000000000002,
          "velocity": 0.48031496062992124
        },
        {
          "duration": 0.07499999999999929,
          "durationTicks": 144,
          "midi": 68,
          "name": "G#4",
          "ticks": 31680,
          "time": 16.5,
          "velocity": 0.48031496062992124
        },
        {
          "duration": 0.1750000000000007,
          "durationTicks": 336,
          "midi": 66,
          "name": "F#4",
          "ticks": 31872,
          "time": 16.6,
          "velocity": 0.48031496062992124
        },
        {
          "duration": 0.1750000000000007,
          "durationTicks": 336,
          "midi": 68,
          "name": "G#4",
          "ticks": 32256,
          "time": 16.8,
          "velocity": 0.48031496062992124
        },
        {
          "duration": 0.1750000000000007,
          "durationTicks": 336,
          "midi": 73,
          "name": "C#5",
          "ticks": 32640,
          "time": 17,
          "velocity": 0.48031496062992124
        },
        {
          "duration": 0.07500000000000284,
          "durationTicks": 144,
          "midi": 76,
          "name": "E5",
          "ticks": 33024,
          "time": 17.2,
          "velocity": 0.48031496062992124
        },
        {
          "duration": 0.07499999999999929,
          "durationTicks": 144,
          "midi": 75,
          "name": "D#5",
          "ticks": 33216,
          "time": 17.3,
          "velocity": 0.48031496062992124
        },
        {
          "duration": 0.17499999999999716,
          "durationTicks": 336,
          "midi": 73,
          "name": "C#5",
          "ticks": 33408,
          "time": 17.400000000000002,
          "velocity": 0.48031496062992124
        },
        {
          "duration": 0.07499999999999929,
          "durationTicks": 144,
          "midi": 76,
          "name": "E5",
          "ticks": 33792,
          "time": 17.6,
          "velocity": 0.48031496062992124
        },
        {
          "duration": 0.07500000000000284,
          "durationTicks": 144,
          "midi": 75,
          "name": "D#5",
          "ticks": 33984,
          "time": 17.7,
          "velocity": 0.48031496062992124
        },
        {
          "duration": 0.07499999999999929,
          "durationTicks": 144,
          "midi": 73,
          "name": "C#5",
          "ticks": 34176,
          "time": 17.8,
          "velocity": 0.48031496062992124
        },
        {
          "duration": 0.07499999999999929,
          "durationTicks": 144,
          "midi": 72,
          "name": "C5",
          "ticks": 34368,
          "time": 17.900000000000002,
          "velocity": 0.48031496062992124
        },
        {
          "duration": 0.07499999999999929,
          "durationTicks": 144,
          "midi": 69,
          "name": "A4",
          "ticks": 34560,
          "time": 18,
          "velocity": 0.48031496062992124
        },
        {
          "duration": 0.07499999999999929,
          "durationTicks": 144,
          "midi": 66,
          "name": "F#4",
          "ticks": 34752,
          "time": 18.1,
          "velocity": 0.48031496062992124
        },
        {
          "duration": 0.07500000000000284,
          "durationTicks": 144,
          "midi": 63,
          "name": "D#4",
          "ticks": 34944,
          "time": 18.2,
          "velocity": 0.48031496062992124
        },
        {
          "duration": 0.07499999999999929,
          "durationTicks": 144,
          "midi": 60,
          "name": "C4",
          "ticks": 35136,
          "time": 18.3,
          "velocity": 0.48031496062992124
        },
        {
          "duration": 0.17499999999999716,
          "durationTicks": 336,
          "midi": 68,
          "name": "G#4",
          "ticks": 35328,
          "time": 18.400000000000002,
          "velocity": 0.48031496062992124
        },
        {
          "duration": 0.1750000000000007,
          "durationTicks": 336,
          "midi": 69,
          "name": "A4",
          "ticks": 35712,
          "time": 18.6,
          "velocity": 0.48031496062992124
        },
        {
          "duration": 0.1750000000000007,
          "durationTicks": 336,
          "midi": 68,
          "name": "G#4",
          "ticks": 36096,
          "time": 18.8,
          "velocity": 0.48031496062992124
        },
        {
          "duration": 0.07499999999999929,
          "durationTicks": 144,
          "midi": 72,
          "name": "C5",
          "ticks": 36480,
          "time": 19,
          "velocity": 0.48031496062992124
        },
        {
          "duration": 0.07499999999999929,
          "durationTicks": 144,
          "midi": 75,
          "name": "D#5",
          "ticks": 36672,
          "time": 19.1,
          "velocity": 0.48031496062992124
        },
        {
          "duration": 0.17499999999999716,
          "durationTicks": 336,
          "midi": 73,
          "name": "C#5",
          "ticks": 36864,
          "time": 19.200000000000003,
          "velocity": 0.48031496062992124
        },
        {
          "duration": 0.1750000000000007,
          "durationTicks": 336,
          "midi": 68,
          "name": "G#4",
          "ticks": 37248,
          "time": 19.400000000000002,
          "velocity": 0.48031496062992124
        },
        {
          "duration": 0.1750000000000007,
          "durationTicks": 336,
          "midi": 69,
          "name": "A4",
          "ticks": 37632,
          "time": 19.6,
          "velocity": 0.48031496062992124
        },
        {
          "duration": 0.1750000000000007,
          "durationTicks": 336,
          "midi": 66,
          "name": "F#4",
          "ticks": 38016,
          "time": 19.8,
          "velocity": 0.48031496062992124
        },
        {
          "duration": 0.1750000000000007,
          "durationTicks": 336,
          "midi": 68,
          "name": "G#4",
          "ticks": 38400,
          "time": 20,
          "velocity": 0.48031496062992124
        },
        {
          "duration": 0.17499999999999716,
          "durationTicks": 336,
          "midi": 73,
          "name": "C#5",
          "ticks": 38784,
          "time": 20.200000000000003,
          "velocity": 0.48031496062992124
        },
        {
          "duration": 0.07499999999999929,
          "durationTicks": 144,
          "midi": 68,
          "name": "G#4",
          "ticks": 39168,
          "time": 20.400000000000002,
          "velocity": 0.48031496062992124
        },
        {
          "duration": 0.07500000000000284,
          "durationTicks": 144,
          "midi": 66,
          "name": "F#4",
          "ticks": 39360,
          "time": 20.5,
          "velocity": 0.48031496062992124
        },
        {
          "duration": 0.1750000000000007,
          "durationTicks": 336,
          "midi": 64,
          "name": "E4",
          "ticks": 39552,
          "time": 20.6,
          "velocity": 0.48031496062992124
        },
        {
          "duration": 0.1750000000000007,
          "durationTicks": 336,
          "midi": 63,
          "name": "D#4",
          "ticks": 39936,
          "time": 20.8,
          "velocity": 0.48031496062992124
        },
        {
          "duration": 0.1750000000000007,
          "durationTicks": 336,
          "midi": 66,
          "name": "F#4",
          "ticks": 40320,
          "time": 21,
          "velocity": 0.48031496062992124
        },
        {
          "duration": 0.07499999999999929,
          "durationTicks": 144,
          "midi": 64,
          "name": "E4",
          "ticks": 40704,
          "time": 21.200000000000003,
          "velocity": 0.48031496062992124
        },
        {
          "duration": 0.07499999999999929,
          "durationTicks": 144,
          "midi": 63,
          "name": "D#4",
          "ticks": 40896,
          "time": 21.3,
          "velocity": 0.48031496062992124
        },
        {
          "duration": 0.1750000000000007,
          "durationTicks": 336,
          "midi": 60,
          "name": "C4",
          "ticks": 41088,
          "time": 21.400000000000002,
          "velocity": 0.48031496062992124
        },
        {
          "duration": 0.1750000000000007,
          "durationTicks": 336,
          "midi": 61,
          "name": "C#4",
          "ticks": 41472,
          "time": 21.6,
          "velocity": 0.48031496062992124
        },
        {
          "duration": 0.1750000000000007,
          "durationTicks": 336,
          "midi": 69,
          "name": "A4",
          "ticks": 41856,
          "time": 21.8,
          "velocity": 0.48031496062992124
        },
        {
          "duration": 0.07500000000000284,
          "durationTicks": 144,
          "midi": 68,
          "name": "G#4",
          "ticks": 42240,
          "time": 22,
          "velocity": 0.48031496062992124
        },
        {
          "duration": 0.07499999999999929,
          "durationTicks": 144,
          "midi": 66,
          "name": "F#4",
          "ticks": 42432,
          "time": 22.1,
          "velocity": 0.48031496062992124
        },
        {
          "duration": 0.17499999999999716,
          "durationTicks": 336,
          "midi": 64,
          "name": "E4",
          "ticks": 42624,
          "time": 22.200000000000003,
          "velocity": 0.48031496062992124
        },
        {
          "duration": 0.1750000000000007,
          "durationTicks": 336,
          "midi": 63,
          "name": "D#4",
          "ticks": 43008,
          "time": 22.400000000000002,
          "velocity": 0.48031496062992124
        },
        {
          "duration": 0.1750000000000007,
          "durationTicks": 336,
          "midi": 60,
          "name": "C4",
          "ticks": 43392,
          "time": 22.6,
          "velocity": 0.48031496062992124
        },
        {
          "duration": 0.07499999999999929,
          "durationTicks": 144,
          "midi": 69,
          "name": "A4",
          "ticks": 43776,
          "time": 22.8,
          "velocity": 0.48031496062992124
        },
        {
          "duration": 0.07499999999999929,
          "durationTicks": 144,
          "midi": 68,
          "name": "G#4",
          "ticks": 43968,
          "time": 22.900000000000002,
          "velocity": 0.48031496062992124
        },
        {
          "duration": 0.1750000000000007,
          "durationTicks": 336,
          "midi": 66,
          "name": "F#4",
          "ticks": 44160,
          "time": 23,
          "velocity": 0.48031496062992124
        },
        {
          "duration": 0.17499999999999716,
          "durationTicks": 336,
          "midi": 68,
          "name": "G#4",
          "ticks": 44544,
          "time": 23.200000000000003,
          "velocity": 0.48031496062992124
        },
        {
          "duration": 0.1750000000000007,
          "durationTicks": 336,
          "midi": 73,
          "name": "C#5",
          "ticks": 44928,
          "time": 23.400000000000002,
          "velocity": 0.48031496062992124
        },
        {
          "duration": 0.07499999999999929,
          "durationTicks": 144,
          "midi": 76,
          "name": "E5",
          "ticks": 45312,
          "time": 23.6,
          "velocity": 0.48031496062992124
        },
        {
          "duration": 0.07499999999999929,
          "durationTicks": 144,
          "midi": 75,
          "name": "D#5",
          "ticks": 45504,
          "time": 23.700000000000003,
          "velocity": 0.48031496062992124
        },
        {
          "duration": 0.1750000000000007,
          "durationTicks": 336,
          "midi": 73,
          "name": "C#5",
          "ticks": 45696,
          "time": 23.8,
          "velocity": 0.48031496062992124
        },
        {
          "duration": 0.07500000000000284,
          "durationTicks": 144,
          "midi": 69,
          "name": "A4",
          "ticks": 46080,
          "time": 24,
          "velocity": 0.48031496062992124
        },
        {
          "duration": 0.07499999999999929,
          "durationTicks": 144,
          "midi": 68,
          "name": "G#4",
          "ticks": 46272,
          "time": 24.1,
          "velocity": 0.48031496062992124
        },
        {
          "duration": 0.07499999999999929,
          "durationTicks": 144,
          "midi": 69,
          "name": "A4",
          "ticks": 46464,
          "time": 24.200000000000003,
          "velocity": 0.48031496062992124
        },
        {
          "duration": 0.07499999999999929,
          "durationTicks": 144,
          "midi": 68,
          "name": "G#4",
          "ticks": 46656,
          "time": 24.3,
          "velocity": 0.48031496062992124
        },
        {
          "duration": 0.07499999999999929,
          "durationTicks": 144,
          "midi": 66,
          "name": "F#4",
          "ticks": 46848,
          "time": 24.400000000000002,
          "velocity": 0.48031496062992124
        },
        {
          "duration": 0.07500000000000284,
          "durationTicks": 144,
          "midi": 64,
          "name": "E4",
          "ticks": 47040,
          "time": 24.5,
          "velocity": 0.48031496062992124
        },
        {
          "duration": 0.07499999999999929,
          "durationTicks": 144,
          "midi": 63,
          "name": "D#4",
          "ticks": 47232,
          "time": 24.6,
          "velocity": 0.48031496062992124
        },
        {
          "duration": 0.07499999999999929,
          "durationTicks": 144,
          "midi": 61,
          "name": "C#4",
          "ticks": 47424,
          "time": 24.700000000000003,
          "velocity": 0.48031496062992124
        },
        {
          "duration": 0.1750000000000007,
          "durationTicks": 336,
          "midi": 60,
          "name": "C4",
          "ticks": 47616,
          "time": 24.8,
          "velocity": 0.48031496062992124
        },
        {
          "duration": 0.1750000000000007,
          "durationTicks": 336,
          "midi": 68,
          "name": "G#4",
          "ticks": 48000,
          "time": 25,
          "velocity": 0.48031496062992124
        },
        {
          "duration": 0.17499999999999716,
          "durationTicks": 336,
          "midi": 61,
          "name": "C#4",
          "ticks": 48384,
          "time": 25.200000000000003,
          "velocity": 0.48031496062992124
        },
        {
          "duration": 0.5749999999999993,
          "durationTicks": 1104,
          "midi": 64,
          "name": "E4",
          "ticks": 49152,
          "time": 25.6,
          "velocity": 0.48031496062992124
        },
        {
          "duration": 0.17499999999999716,
          "durationTicks": 336,
          "midi": 66,
          "name": "F#4",
          "ticks": 50304,
          "time": 26.200000000000003,
          "velocity": 0.48031496062992124
        },
        {
          "duration": 0.5749999999999993,
          "durationTicks": 1104,
          "midi": 64,
          "name": "E4",
          "ticks": 50688,
          "time": 26.400000000000002,
          "velocity": 0.48031496062992124
        },
        {
          "duration": 0.1750000000000007,
          "durationTicks": 336,
          "midi": 61,
          "name": "C#4",
          "ticks": 51840,
          "time": 27,
          "velocity": 0.48031496062992124
        },
        {
          "duration": 0.17499999999999716,
          "durationTicks": 336,
          "midi": 64,
          "name": "E4",
          "ticks": 52224,
          "time": 27.200000000000003,
          "velocity": 0.48031496062992124
        },
        {
          "duration": 0.07499999999999929,
          "durationTicks": 144,
          "midi": 66,
          "name": "F#4",
          "ticks": 52608,
          "time": 27.400000000000002,
          "velocity": 0.48031496062992124
        },
        {
          "duration": 0.27500000000000213,
          "durationTicks": 528,
          "midi": 64,
          "name": "E4",
          "ticks": 52800,
          "time": 27.5,
          "velocity": 0.48031496062992124
        },
        {
          "duration": 0.1750000000000007,
          "durationTicks": 336,
          "midi": 61,
          "name": "C#4",
          "ticks": 53376,
          "time": 27.8,
          "velocity": 0.48031496062992124
        },
        {
          "duration": 0.1750000000000007,
          "durationTicks": 336,
          "midi": 64,
          "name": "E4",
          "ticks": 53760,
          "time": 28,
          "velocity": 0.48031496062992124
        },
        {
          "duration": 0.07499999999999929,
          "durationTicks": 144,
          "midi": 66,
          "name": "F#4",
          "ticks": 54144,
          "time": 28.200000000000003,
          "velocity": 0.48031496062992124
        },
        {
          "duration": 0.1750000000000007,
          "durationTicks": 336,
          "midi": 68,
          "name": "G#4",
          "ticks": 54336,
          "time": 28.3,
          "velocity": 0.48031496062992124
        },
        {
          "duration": 0.07500000000000284,
          "durationTicks": 144,
          "midi": 66,
          "name": "F#4",
          "ticks": 54720,
          "time": 28.5,
          "velocity": 0.48031496062992124
        },
        {
          "duration": 0.07499999999999929,
          "durationTicks": 144,
          "midi": 64,
          "name": "E4",
          "ticks": 54912,
          "time": 28.6,
          "velocity": 0.48031496062992124
        },
        {
          "duration": 0.07499999999999929,
          "durationTicks": 144,
          "midi": 63,
          "name": "D#4",
          "ticks": 55104,
          "time": 28.700000000000003,
          "velocity": 0.48031496062992124
        },
        {
          "duration": 0.07499999999999929,
          "durationTicks": 144,
          "midi": 61,
          "name": "C#4",
          "ticks": 55296,
          "time": 28.8,
          "velocity": 0.48031496062992124
        },
        {
          "duration": 0.07500000000000284,
          "durationTicks": 144,
          "midi": 57,
          "name": "A3",
          "ticks": 55680,
          "time": 29,
          "velocity": 0.48031496062992124
        },
        {
          "duration": 0.07499999999999929,
          "durationTicks": 144,
          "midi": 61,
          "name": "C#4",
          "ticks": 56064,
          "time": 29.200000000000003,
          "velocity": 0.48031496062992124
        },
        {
          "duration": 0.07499999999999929,
          "durationTicks": 144,
          "midi": 57,
          "name": "A3",
          "ticks": 56448,
          "time": 29.400000000000002,
          "velocity": 0.48031496062992124
        },
        {
          "duration": 0.07499999999999929,
          "durationTicks": 144,
          "midi": 61,
          "name": "C#4",
          "ticks": 56832,
          "time": 29.6,
          "velocity": 0.48031496062992124
        },
        {
          "duration": 0.07499999999999929,
          "durationTicks": 144,
          "midi": 57,
          "name": "A3",
          "ticks": 57024,
          "time": 29.700000000000003,
          "velocity": 0.48031496062992124
        },
        {
          "duration": 0.07499999999999929,
          "durationTicks": 144,
          "midi": 63,
          "name": "D#4",
          "ticks": 57216,
          "time": 29.8,
          "velocity": 0.48031496062992124
        },
        {
          "duration": 0.07499999999999929,
          "durationTicks": 144,
          "midi": 57,
          "name": "A3",
          "ticks": 57408,
          "time": 29.900000000000002,
          "velocity": 0.48031496062992124
        },
        {
          "duration": 0.07500000000000284,
          "durationTicks": 144,
          "midi": 64,
          "name": "E4",
          "ticks": 57600,
          "time": 30,
          "velocity": 0.48031496062992124
        },
        {
          "duration": 0.07499999999999929,
          "durationTicks": 144,
          "midi": 57,
          "name": "A3",
          "ticks": 57792,
          "time": 30.1,
          "velocity": 0.48031496062992124
        },
        {
          "duration": 0.07499999999999929,
          "durationTicks": 144,
          "midi": 66,
          "name": "F#4",
          "ticks": 57984,
          "time": 30.200000000000003,
          "velocity": 0.48031496062992124
        },
        {
          "duration": 0.07499999999999929,
          "durationTicks": 144,
          "midi": 61,
          "name": "C#4",
          "ticks": 58176,
          "time": 30.3,
          "velocity": 0.48031496062992124
        },
        {
          "duration": 0.07499999999999929,
          "durationTicks": 144,
          "midi": 68,
          "name": "G#4",
          "ticks": 58368,
          "time": 30.400000000000002,
          "velocity": 0.48031496062992124
        },
        {
          "duration": 0.07500000000000284,
          "durationTicks": 144,
          "midi": 66,
          "name": "F#4",
          "ticks": 58560,
          "time": 30.5,
          "velocity": 0.48031496062992124
        },
        {
          "duration": 0.07499999999999929,
          "durationTicks": 144,
          "midi": 64,
          "name": "E4",
          "ticks": 58752,
          "time": 30.6,
          "velocity": 0.48031496062992124
        },
        {
          "duration": 0.07499999999999929,
          "durationTicks": 144,
          "midi": 66,
          "name": "F#4",
          "ticks": 58944,
          "time": 30.700000000000003,
          "velocity": 0.48031496062992124
        },
        {
          "duration": 0.07499999999999929,
          "durationTicks": 144,
          "midi": 64,
          "name": "E4",
          "ticks": 59136,
          "time": 30.8,
          "velocity": 0.48031496062992124
        },
        {
          "duration": 0.07499999999999929,
          "durationTicks": 144,
          "midi": 61,
          "name": "C#4",
          "ticks": 59328,
          "time": 30.900000000000002,
          "velocity": 0.48031496062992124
        },
        {
          "duration": 0.07500000000000284,
          "durationTicks": 144,
          "midi": 64,
          "name": "E4",
          "ticks": 59520,
          "time": 31,
          "velocity": 0.48031496062992124
        },
        {
          "duration": 0.07499999999999929,
          "durationTicks": 144,
          "midi": 66,
          "name": "F#4",
          "ticks": 59712,
          "time": 31.1,
          "velocity": 0.48031496062992124
        },
        {
          "duration": 0.17499999999999716,
          "durationTicks": 336,
          "midi": 56,
          "name": "G#3",
          "ticks": 59904,
          "time": 31.200000000000003,
          "velocity": 0.48031496062992124
        },
        {
          "duration": 0.17499999999999716,
          "durationTicks": 336,
          "midi": 68,
          "name": "G#4",
          "ticks": 59904,
          "time": 31.200000000000003,
          "velocity": 0.48031496062992124
        },
        {
          "duration": 0.1750000000000007,
          "durationTicks": 336,
          "midi": 67,
          "name": "G4",
          "ticks": 60288,
          "time": 31.400000000000002,
          "velocity": 0.48031496062992124
        },
        {
          "duration": 0.1750000000000007,
          "durationTicks": 336,
          "midi": 59,
          "name": "B3",
          "ticks": 60288,
          "time": 31.400000000000002,
          "velocity": 0.48031496062992124
        },
        {
          "duration": 0.1750000000000007,
          "durationTicks": 336,
          "midi": 66,
          "name": "F#4",
          "ticks": 60672,
          "time": 31.6,
          "velocity": 0.48031496062992124
        },
        {
          "duration": 0.1750000000000007,
          "durationTicks": 336,
          "midi": 54,
          "name": "F#3",
          "ticks": 60672,
          "time": 31.6,
          "velocity": 0.48031496062992124
        },
        {
          "duration": 0.1750000000000007,
          "durationTicks": 336,
          "midi": 65,
          "name": "F4",
          "ticks": 61056,
          "time": 31.8,
          "velocity": 0.48031496062992124
        },
        {
          "duration": 0.1750000000000007,
          "durationTicks": 336,
          "midi": 56,
          "name": "G#3",
          "ticks": 61056,
          "time": 31.8,
          "velocity": 0.48031496062992124
        },
        {
          "duration": 0.5750000000000028,
          "durationTicks": 1104,
          "midi": 56,
          "name": "G#3",
          "ticks": 61440,
          "time": 32,
          "velocity": 0.48031496062992124
        },
        {
          "duration": 0.5750000000000028,
          "durationTicks": 1104,
          "midi": 64,
          "name": "E4",
          "ticks": 61440,
          "time": 32,
          "velocity": 0.48031496062992124
        },
        {
          "duration": 0.17499999999999716,
          "durationTicks": 336,
          "midi": 66,
          "name": "F#4",
          "ticks": 62592,
          "time": 32.6,
          "velocity": 0.48031496062992124
        },
        {
          "duration": 0.17499999999999716,
          "durationTicks": 336,
          "midi": 57,
          "name": "A3",
          "ticks": 62592,
          "time": 32.6,
          "velocity": 0.48031496062992124
        },
        {
          "duration": 0.5749999999999957,
          "durationTicks": 1104,
          "midi": 64,
          "name": "E4",
          "ticks": 62976,
          "time": 32.800000000000004,
          "velocity": 0.48031496062992124
        },
        {
          "duration": 0.5749999999999957,
          "durationTicks": 1104,
          "midi": 56,
          "name": "G#3",
          "ticks": 62976,
          "time": 32.800000000000004,
          "velocity": 0.48031496062992124
        },
        {
          "duration": 0.17500000000000426,
          "durationTicks": 336,
          "midi": 61,
          "name": "C#4",
          "ticks": 64128,
          "time": 33.4,
          "velocity": 0.48031496062992124
        },
        {
          "duration": 0.17500000000000426,
          "durationTicks": 336,
          "midi": 54,
          "name": "F#3",
          "ticks": 64128,
          "time": 33.4,
          "velocity": 0.48031496062992124
        },
        {
          "duration": 0.17499999999999716,
          "durationTicks": 336,
          "midi": 64,
          "name": "E4",
          "ticks": 64512,
          "time": 33.6,
          "velocity": 0.48031496062992124
        },
        {
          "duration": 0.17499999999999716,
          "durationTicks": 336,
          "midi": 52,
          "name": "E3",
          "ticks": 64512,
          "time": 33.6,
          "velocity": 0.48031496062992124
        },
        {
          "duration": 0.07499999999999574,
          "durationTicks": 144,
          "midi": 54,
          "name": "F#3",
          "ticks": 64896,
          "time": 33.800000000000004,
          "velocity": 0.48031496062992124
        },
        {
          "duration": 0.07499999999999574,
          "durationTicks": 144,
          "midi": 66,
          "name": "F#4",
          "ticks": 64896,
          "time": 33.800000000000004,
          "velocity": 0.48031496062992124
        },
        {
          "duration": 0.2750000000000057,
          "durationTicks": 528,
          "midi": 64,
          "name": "E4",
          "ticks": 65088,
          "time": 33.9,
          "velocity": 0.48031496062992124
        },
        {
          "duration": 0.2750000000000057,
          "durationTicks": 528,
          "midi": 56,
          "name": "G#3",
          "ticks": 65088,
          "time": 33.9,
          "velocity": 0.48031496062992124
        },
        {
          "duration": 0.17499999999999716,
          "durationTicks": 336,
          "midi": 61,
          "name": "C#4",
          "ticks": 65664,
          "time": 34.2,
          "velocity": 0.48031496062992124
        },
        {
          "duration": 0.17499999999999716,
          "durationTicks": 336,
          "midi": 54,
          "name": "F#3",
          "ticks": 65664,
          "time": 34.2,
          "velocity": 0.48031496062992124
        },
        {
          "duration": 0.17500000000000426,
          "durationTicks": 336,
          "midi": 64,
          "name": "E4",
          "ticks": 66048,
          "time": 34.4,
          "velocity": 0.48031496062992124
        },
        {
          "duration": 0.17500000000000426,
          "durationTicks": 336,
          "midi": 52,
          "name": "E3",
          "ticks": 66048,
          "time": 34.4,
          "velocity": 0.48031496062992124
        },
        {
          "duration": 0.07500000000000284,
          "durationTicks": 144,
          "midi": 54,
          "name": "F#3",
          "ticks": 66432,
          "time": 34.6,
          "velocity": 0.48031496062992124
        },
        {
          "duration": 0.07500000000000284,
          "durationTicks": 144,
          "midi": 66,
          "name": "F#4",
          "ticks": 66432,
          "time": 34.6,
          "velocity": 0.48031496062992124
        },
        {
          "duration": 0.17499999999999716,
          "durationTicks": 336,
          "midi": 73,
          "name": "C#5",
          "ticks": 66624,
          "time": 34.7,
          "velocity": 0.48031496062992124
        },
        {
          "duration": 0.17499999999999716,
          "durationTicks": 336,
          "midi": 51,
          "name": "D#3",
          "ticks": 66624,
          "time": 34.7,
          "velocity": 0.48031496062992124
        },
        {
          "duration": 0.07500000000000284,
          "durationTicks": 144,
          "midi": 66,
          "name": "F#4",
          "ticks": 67008,
          "time": 34.9,
          "velocity": 0.48031496062992124
        },
        {
          "duration": 0.07500000000000284,
          "durationTicks": 144,
          "midi": 54,
          "name": "F#3",
          "ticks": 67008,
          "time": 34.9,
          "velocity": 0.48031496062992124
        },
        {
          "duration": 0.07500000000000284,
          "durationTicks": 144,
          "midi": 64,
          "name": "E4",
          "ticks": 67200,
          "time": 35,
          "velocity": 0.48031496062992124
        },
        {
          "duration": 0.07500000000000284,
          "durationTicks": 144,
          "midi": 52,
          "name": "E3",
          "ticks": 67200,
          "time": 35,
          "velocity": 0.48031496062992124
        },
        {
          "duration": 0.07500000000000284,
          "durationTicks": 144,
          "midi": 51,
          "name": "D#3",
          "ticks": 67392,
          "time": 35.1,
          "velocity": 0.48031496062992124
        },
        {
          "duration": 0.07500000000000284,
          "durationTicks": 144,
          "midi": 63,
          "name": "D#4",
          "ticks": 67392,
          "time": 35.1,
          "velocity": 0.48031496062992124
        },
        {
          "duration": 0.07499999999999574,
          "durationTicks": 144,
          "midi": 61,
          "name": "C#4",
          "ticks": 67584,
          "time": 35.2,
          "velocity": 0.48031496062992124
        },
        {
          "duration": 0.17499999999999716,
          "durationTicks": 336,
          "midi": 52,
          "name": "E3",
          "ticks": 67584,
          "time": 35.2,
          "velocity": 0.48031496062992124
        },
        {
          "duration": 0.07500000000000284,
          "durationTicks": 144,
          "midi": 57,
          "name": "A3",
          "ticks": 67968,
          "time": 35.4,
          "velocity": 0.48031496062992124
        },
        {
          "duration": 0.17500000000000426,
          "durationTicks": 336,
          "midi": 54,
          "name": "F#3",
          "ticks": 67968,
          "time": 35.4,
          "velocity": 0.48031496062992124
        },
        {
          "duration": 0.07500000000000284,
          "durationTicks": 144,
          "midi": 61,
          "name": "C#4",
          "ticks": 68352,
          "time": 35.6,
          "velocity": 0.48031496062992124
        },
        {
          "duration": 0.17499999999999716,
          "durationTicks": 336,
          "midi": 52,
          "name": "E3",
          "ticks": 68352,
          "time": 35.6,
          "velocity": 0.48031496062992124
        },
        {
          "duration": 0.07499999999999574,
          "durationTicks": 144,
          "midi": 57,
          "name": "A3",
          "ticks": 68736,
          "time": 35.800000000000004,
          "velocity": 0.48031496062992124
        },
        {
          "duration": 0.17499999999999716,
          "durationTicks": 336,
          "midi": 54,
          "name": "F#3",
          "ticks": 68736,
          "time": 35.800000000000004,
          "velocity": 0.48031496062992124
        },
        {
          "duration": 0.07500000000000284,
          "durationTicks": 144,
          "midi": 61,
          "name": "C#4",
          "ticks": 69120,
          "time": 36,
          "velocity": 0.48031496062992124
        },
        {
          "duration": 0.17500000000000426,
          "durationTicks": 336,
          "midi": 52,
          "name": "E3",
          "ticks": 69120,
          "time": 36,
          "velocity": 0.48031496062992124
        },
        {
          "duration": 0.17499999999999716,
          "durationTicks": 336,
          "midi": 54,
          "name": "F#3",
          "ticks": 69504,
          "time": 36.2,
          "velocity": 0.48031496062992124
        },
        {
          "duration": 0.07499999999999574,
          "durationTicks": 144,
          "midi": 63,
          "name": "D#4",
          "ticks": 69504,
          "time": 36.2,
          "velocity": 0.48031496062992124
        },
        {
          "duration": 0.17500000000000426,
          "durationTicks": 336,
          "midi": 56,
          "name": "G#3",
          "ticks": 69888,
          "time": 36.4,
          "velocity": 0.48031496062992124
        },
        {
          "duration": 0.07500000000000284,
          "durationTicks": 144,
          "midi": 64,
          "name": "E4",
          "ticks": 69888,
          "time": 36.4,
          "velocity": 0.48031496062992124
        },
        {
          "duration": 0.07500000000000284,
          "durationTicks": 144,
          "midi": 66,
          "name": "F#4",
          "ticks": 70272,
          "time": 36.6,
          "velocity": 0.48031496062992124
        },
        {
          "duration": 0.17499999999999716,
          "durationTicks": 336,
          "midi": 59,
          "name": "B3",
          "ticks": 70272,
          "time": 36.6,
          "velocity": 0.48031496062992124
        },
        {
          "duration": 0.07499999999999574,
          "durationTicks": 144,
          "midi": 61,
          "name": "C#4",
          "ticks": 70656,
          "time": 36.800000000000004,
          "velocity": 0.48031496062992124
        },
        {
          "duration": 0.07499999999999574,
          "durationTicks": 144,
          "midi": 68,
          "name": "G#4",
          "ticks": 70656,
          "time": 36.800000000000004,
          "velocity": 0.48031496062992124
        },
        {
          "duration": 0.07500000000000284,
          "durationTicks": 144,
          "midi": 59,
          "name": "B3",
          "ticks": 70848,
          "time": 36.9,
          "velocity": 0.48031496062992124
        },
        {
          "duration": 0.07500000000000284,
          "durationTicks": 144,
          "midi": 71,
          "name": "B4",
          "ticks": 70848,
          "time": 36.9,
          "velocity": 0.48031496062992124
        },
        {
          "duration": 0.07500000000000284,
          "durationTicks": 144,
          "midi": 68,
          "name": "G#4",
          "ticks": 71040,
          "time": 37,
          "velocity": 0.48031496062992124
        },
        {
          "duration": 0.07500000000000284,
          "durationTicks": 144,
          "midi": 61,
          "name": "C#4",
          "ticks": 71040,
          "time": 37,
          "velocity": 0.48031496062992124
        },
        {
          "duration": 0.07500000000000284,
          "durationTicks": 144,
          "midi": 66,
          "name": "F#4",
          "ticks": 71232,
          "time": 37.1,
          "velocity": 0.48031496062992124
        },
        {
          "duration": 0.07500000000000284,
          "durationTicks": 144,
          "midi": 59,
          "name": "B3",
          "ticks": 71232,
          "time": 37.1,
          "velocity": 0.48031496062992124
        },
        {
          "duration": 0.07499999999999574,
          "durationTicks": 144,
          "midi": 68,
          "name": "G#4",
          "ticks": 71424,
          "time": 37.2,
          "velocity": 0.48031496062992124
        },
        {
          "duration": 0.07499999999999574,
          "durationTicks": 144,
          "midi": 56,
          "name": "G#3",
          "ticks": 71424,
          "time": 37.2,
          "velocity": 0.48031496062992124
        },
        {
          "duration": 0.07499999999999574,
          "durationTicks": 144,
          "midi": 66,
          "name": "F#4",
          "ticks": 71616,
          "time": 37.300000000000004,
          "velocity": 0.48031496062992124
        },
        {
          "duration": 0.07499999999999574,
          "durationTicks": 144,
          "midi": 54,
          "name": "F#3",
          "ticks": 71616,
          "time": 37.300000000000004,
          "velocity": 0.48031496062992124
        },
        {
          "duration": 0.07500000000000284,
          "durationTicks": 144,
          "midi": 56,
          "name": "G#3",
          "ticks": 71808,
          "time": 37.4,
          "velocity": 0.48031496062992124
        },
        {
          "duration": 0.07500000000000284,
          "durationTicks": 144,
          "midi": 64,
          "name": "E4",
          "ticks": 71808,
          "time": 37.4,
          "velocity": 0.48031496062992124
        },
        {
          "duration": 0.07500000000000284,
          "durationTicks": 144,
          "midi": 57,
          "name": "A3",
          "ticks": 72000,
          "time": 37.5,
          "velocity": 0.48031496062992124
        },
        {
          "duration": 0.07500000000000284,
          "durationTicks": 144,
          "midi": 66,
          "name": "F#4",
          "ticks": 72000,
          "time": 37.5,
          "velocity": 0.48031496062992124
        },
        {
          "duration": 0.17499999999999716,
          "durationTicks": 336,
          "midi": 68,
          "name": "G#4",
          "ticks": 72192,
          "time": 37.6,
          "velocity": 0.48031496062992124
        },
        {
          "duration": 0.17499999999999716,
          "durationTicks": 336,
          "midi": 56,
          "name": "G#3",
          "ticks": 72192,
          "time": 37.6,
          "velocity": 0.48031496062992124
        },
        {
          "duration": 0.17499999999999716,
          "durationTicks": 336,
          "midi": 59,
          "name": "B3",
          "ticks": 72576,
          "time": 37.800000000000004,
          "velocity": 0.48031496062992124
        },
        {
          "duration": 0.17499999999999716,
          "durationTicks": 336,
          "midi": 71,
          "name": "B4",
          "ticks": 72576,
          "time": 37.800000000000004,
          "velocity": 0.48031496062992124
        },
        {
          "duration": 0.17500000000000426,
          "durationTicks": 336,
          "midi": 61,
          "name": "C#4",
          "ticks": 72960,
          "time": 38,
          "velocity": 0.48031496062992124
        },
        {
          "duration": 0.17500000000000426,
          "durationTicks": 336,
          "midi": 73,
          "name": "C#5",
          "ticks": 72960,
          "time": 38,
          "velocity": 0.48031496062992124
        },
        {
          "duration": 0.17499999999999716,
          "durationTicks": 336,
          "midi": 75,
          "name": "D#5",
          "ticks": 73344,
          "time": 38.2,
          "velocity": 0.48031496062992124
        },
        {
          "duration": 0.17499999999999716,
          "durationTicks": 336,
          "midi": 63,
          "name": "D#4",
          "ticks": 73344,
          "time": 38.2,
          "velocity": 0.48031496062992124
        },
        {
          "duration": 0.17499999999999716,
          "durationTicks": 336,
          "midi": 76,
          "name": "E5",
          "ticks": 73728,
          "time": 38.400000000000006,
          "velocity": 0.48031496062992124
        },
        {
          "duration": 0.7749999999999986,
          "durationTicks": 1488,
          "midi": 64,
          "name": "E4",
          "ticks": 73728,
          "time": 38.400000000000006,
          "velocity": 0.48031496062992124
        },
        {
          "duration": 0.7749999999999986,
          "durationTicks": 1488,
          "midi": 57,
          "name": "A3",
          "ticks": 75264,
          "time": 39.2,
          "velocity": 0.48031496062992124
        },
        {
          "duration": 0.17500000000000426,
          "durationTicks": 336,
          "midi": 76,
          "name": "E5",
          "ticks": 76800,
          "time": 40,
          "velocity": 0.48031496062992124
        },
        {
          "duration": 0.7750000000000057,
          "durationTicks": 1488,
          "midi": 64,
          "name": "E4",
          "ticks": 76800,
          "time": 40,
          "velocity": 0.48031496062992124
        },
        {
          "duration": 0.7749999999999986,
          "durationTicks": 1488,
          "midi": 56,
          "name": "G#3",
          "ticks": 78336,
          "time": 40.800000000000004,
          "velocity": 0.48031496062992124
        },
        {
          "duration": 0.17500000000000426,
          "durationTicks": 336,
          "midi": 76,
          "name": "E5",
          "ticks": 79872,
          "time": 41.6,
          "velocity": 0.48031496062992124
        },
        {
          "duration": 0.7749999999999986,
          "durationTicks": 1488,
          "midi": 64,
          "name": "E4",
          "ticks": 79872,
          "time": 41.6,
          "velocity": 0.48031496062992124
        },
        {
          "duration": 0.7749999999999986,
          "durationTicks": 1488,
          "midi": 57,
          "name": "A3",
          "ticks": 81408,
          "time": 42.400000000000006,
          "velocity": 0.48031496062992124
        },
        {
          "duration": 0.17499999999999716,
          "durationTicks": 336,
          "midi": 76,
          "name": "E5",
          "ticks": 82944,
          "time": 43.2,
          "velocity": 0.48031496062992124
        },
        {
          "duration": 0.7749999999999986,
          "durationTicks": 1488,
          "midi": 64,
          "name": "E4",
          "ticks": 82944,
          "time": 43.2,
          "velocity": 0.48031496062992124
        },
        {
          "duration": 0.7750000000000057,
          "durationTicks": 1488,
          "midi": 56,
          "name": "G#3",
          "ticks": 84480,
          "time": 44,
          "velocity": 0.48031496062992124
        },
        {
          "duration": 3.174999999999997,
          "durationTicks": 6096,
          "midi": 68,
          "name": "G#4",
          "ticks": 86016,
          "time": 44.800000000000004,
          "velocity": 0.48031496062992124
        },
        {
          "duration": 0.22500000000000142,
          "durationTicks": 432,
          "midi": 56,
          "name": "G#3",
          "ticks": 86016,
          "time": 44.800000000000004,
          "velocity": 0.48031496062992124
        },
        {
          "duration": 0.22500000000000142,
          "durationTicks": 432,
          "midi": 56,
          "name": "G#3",
          "ticks": 86592,
          "time": 45.1,
          "velocity": 0.48031496062992124
        },
        {
          "duration": 0.22499999999999432,
          "durationTicks": 432,
          "midi": 56,
          "name": "G#3",
          "ticks": 87168,
          "time": 45.400000000000006,
          "velocity": 0.48031496062992124
        },
        {
          "duration": 0.22500000000000142,
          "durationTicks": 432,
          "midi": 56,
          "name": "G#3",
          "ticks": 87744,
          "time": 45.7,
          "velocity": 0.48031496062992124
        },
        {
          "duration": 0.125,
          "durationTicks": 240,
          "midi": 56,
          "name": "G#3",
          "ticks": 88320,
          "time": 46,
          "velocity": 0.48031496062992124
        },
        {
          "duration": 0.125,
          "durationTicks": 240,
          "midi": 56,
          "name": "G#3",
          "ticks": 88704,
          "time": 46.2,
          "velocity": 0.48031496062992124
        },
        {
          "duration": 0.22499999999999432,
          "durationTicks": 432,
          "midi": 56,
          "name": "G#3",
          "ticks": 89088,
          "time": 46.400000000000006,
          "velocity": 0.48031496062992124
        },
        {
          "duration": 0.22500000000000142,
          "durationTicks": 432,
          "midi": 56,
          "name": "G#3",
          "ticks": 89664,
          "time": 46.7,
          "velocity": 0.48031496062992124
        },
        {
          "duration": 0.22500000000000142,
          "durationTicks": 432,
          "midi": 56,
          "name": "G#3",
          "ticks": 90240,
          "time": 47,
          "velocity": 0.48031496062992124
        },
        {
          "duration": 0.22500000000000142,
          "durationTicks": 432,
          "midi": 56,
          "name": "G#3",
          "ticks": 90816,
          "time": 47.300000000000004,
          "velocity": 0.48031496062992124
        },
        {
          "duration": 0.125,
          "durationTicks": 240,
          "midi": 56,
          "name": "G#3",
          "ticks": 91392,
          "time": 47.6,
          "velocity": 0.48031496062992124
        },
        {
          "duration": 0.125,
          "durationTicks": 240,
          "midi": 56,
          "name": "G#3",
          "ticks": 91776,
          "time": 47.800000000000004,
          "velocity": 0.48031496062992124
        },
        {
          "duration": 0.22500000000000142,
          "durationTicks": 432,
          "midi": 54,
          "name": "F#3",
          "ticks": 92160,
          "time": 48,
          "velocity": 0.48031496062992124
        },
        {
          "duration": 1.5750000000000028,
          "durationTicks": 3024,
          "midi": 66,
          "name": "F#4",
          "ticks": 92160,
          "time": 48,
          "velocity": 0.48031496062992124
        },
        {
          "duration": 0.22500000000000142,
          "durationTicks": 432,
          "midi": 54,
          "name": "F#3",
          "ticks": 92736,
          "time": 48.300000000000004,
          "velocity": 0.48031496062992124
        },
        {
          "duration": 0.22500000000000142,
          "durationTicks": 432,
          "midi": 54,
          "name": "F#3",
          "ticks": 93312,
          "time": 48.6,
          "velocity": 0.48031496062992124
        },
        {
          "duration": 0.22499999999999432,
          "durationTicks": 432,
          "midi": 54,
          "name": "F#3",
          "ticks": 93888,
          "time": 48.900000000000006,
          "velocity": 0.48031496062992124
        },
        {
          "duration": 0.125,
          "durationTicks": 240,
          "midi": 54,
          "name": "F#3",
          "ticks": 94464,
          "time": 49.2,
          "velocity": 0.48031496062992124
        },
        {
          "duration": 0.125,
          "durationTicks": 240,
          "midi": 54,
          "name": "F#3",
          "ticks": 94848,
          "time": 49.400000000000006,
          "velocity": 0.48031496062992124
        },
        {
          "duration": 0.22500000000000142,
          "durationTicks": 432,
          "midi": 52,
          "name": "E3",
          "ticks": 95232,
          "time": 49.6,
          "velocity": 0.48031496062992124
        },
        {
          "duration": 0.5750000000000028,
          "durationTicks": 1104,
          "midi": 64,
          "name": "E4",
          "ticks": 95232,
          "time": 49.6,
          "velocity": 0.48031496062992124
        },
        {
          "duration": 0.22499999999999432,
          "durationTicks": 432,
          "midi": 52,
          "name": "E3",
          "ticks": 95808,
          "time": 49.900000000000006,
          "velocity": 0.48031496062992124
        },
        {
          "duration": 0.9750000000000014,
          "durationTicks": 1872,
          "midi": 63,
          "name": "D#4",
          "ticks": 96384,
          "time": 50.2,
          "velocity": 0.48031496062992124
        },
        {
          "duration": 0.22500000000000142,
          "durationTicks": 432,
          "midi": 51,
          "name": "D#3",
          "ticks": 96384,
          "time": 50.2,
          "velocity": 0.48031496062992124
        },
        {
          "duration": 0.22500000000000142,
          "durationTicks": 432,
          "midi": 51,
          "name": "D#3",
          "ticks": 96960,
          "time": 50.5,
          "velocity": 0.48031496062992124
        },
        {
          "duration": 0.125,
          "durationTicks": 240,
          "midi": 51,
          "name": "D#3",
          "ticks": 97536,
          "time": 50.800000000000004,
          "velocity": 0.48031496062992124
        },
        {
          "duration": 0.125,
          "durationTicks": 240,
          "midi": 51,
          "name": "D#3",
          "ticks": 97920,
          "time": 51,
          "velocity": 0.48031496062992124
        },
        {
          "duration": 0.17499999999999716,
          "durationTicks": 336,
          "midi": 74,
          "name": "D5",
          "ticks": 98304,
          "time": 51.2,
          "velocity": 0.48031496062992124
        },
        {
          "duration": 0.07500000000000284,
          "durationTicks": 144,
          "midi": 57,
          "name": "A3",
          "ticks": 98304,
          "time": 51.2,
          "velocity": 0.48031496062992124
        },
        {
          "duration": 0.17499999999999716,
          "durationTicks": 336,
          "midi": 69,
          "name": "A4",
          "ticks": 98688,
          "time": 51.400000000000006,
          "velocity": 0.48031496062992124
        },
        {
          "duration": 0.07500000000000284,
          "durationTicks": 144,
          "midi": 57,
          "name": "A3",
          "ticks": 98880,
          "time": 51.5,
          "velocity": 0.48031496062992124
        },
        {
          "duration": 0.17500000000000426,
          "durationTicks": 336,
          "midi": 70,
          "name": "A#4",
          "ticks": 99072,
          "time": 51.6,
          "velocity": 0.48031496062992124
        },
        {
          "duration": 0.07499999999999574,
          "durationTicks": 144,
          "midi": 57,
          "name": "A3",
          "ticks": 99456,
          "time": 51.800000000000004,
          "velocity": 0.48031496062992124
        },
        {
          "duration": 0.17499999999999716,
          "durationTicks": 336,
          "midi": 67,
          "name": "G4",
          "ticks": 99456,
          "time": 51.800000000000004,
          "velocity": 0.48031496062992124
        },
        {
          "duration": 0.17500000000000426,
          "durationTicks": 336,
          "midi": 69,
          "name": "A4",
          "ticks": 99840,
          "time": 52,
          "velocity": 0.48031496062992124
        },
        {
          "duration": 0.07500000000000284,
          "durationTicks": 144,
          "midi": 57,
          "name": "A3",
          "ticks": 100032,
          "time": 52.1,
          "velocity": 0.48031496062992124
        },
        {
          "duration": 0.17499999999999716,
          "durationTicks": 336,
          "midi": 74,
          "name": "D5",
          "ticks": 100224,
          "time": 52.2,
          "velocity": 0.48031496062992124
        },
        {
          "duration": 0.07499999999999574,
          "durationTicks": 144,
          "midi": 57,
          "name": "A3",
          "ticks": 100608,
          "time": 52.400000000000006,
          "velocity": 0.48031496062992124
        },
        {
          "duration": 0.07499999999999574,
          "durationTicks": 144,
          "midi": 69,
          "name": "A4",
          "ticks": 100608,
          "time": 52.400000000000006,
          "velocity": 0.48031496062992124
        },
        {
          "duration": 0.07500000000000284,
          "durationTicks": 144,
          "midi": 67,
          "name": "G4",
          "ticks": 100800,
          "time": 52.5,
          "velocity": 0.48031496062992124
        },
        {
          "duration": 0.07500000000000284,
          "durationTicks": 144,
          "midi": 57,
          "name": "A3",
          "ticks": 100992,
          "time": 52.6,
          "velocity": 0.48031496062992124
        },
        {
          "duration": 0.17500000000000426,
          "durationTicks": 336,
          "midi": 65,
          "name": "F4",
          "ticks": 100992,
          "time": 52.6,
          "velocity": 0.48031496062992124
        },
        {
          "duration": 0.17499999999999716,
          "durationTicks": 336,
          "midi": 64,
          "name": "E4",
          "ticks": 101376,
          "time": 52.800000000000004,
          "velocity": 0.48031496062992124
        },
        {
          "duration": 0.07499999999999574,
          "durationTicks": 144,
          "midi": 57,
          "name": "A3",
          "ticks": 101376,
          "time": 52.800000000000004,
          "velocity": 0.48031496062992124
        },
        {
          "duration": 0.17500000000000426,
          "durationTicks": 336,
          "midi": 67,
          "name": "G4",
          "ticks": 101760,
          "time": 53,
          "velocity": 0.48031496062992124
        },
        {
          "duration": 0.07500000000000284,
          "durationTicks": 144,
          "midi": 57,
          "name": "A3",
          "ticks": 101952,
          "time": 53.1,
          "velocity": 0.48031496062992124
        },
        {
          "duration": 0.07500000000000284,
          "durationTicks": 144,
          "midi": 65,
          "name": "F4",
          "ticks": 102144,
          "time": 53.2,
          "velocity": 0.48031496062992124
        },
        {
          "duration": 0.07499999999999574,
          "durationTicks": 144,
          "midi": 64,
          "name": "E4",
          "ticks": 102336,
          "time": 53.300000000000004,
          "velocity": 0.48031496062992124
        },
        {
          "duration": 0.07499999999999574,
          "durationTicks": 144,
          "midi": 57,
          "name": "A3",
          "ticks": 102528,
          "time": 53.400000000000006,
          "velocity": 0.48031496062992124
        },
        {
          "duration": 0.17499999999999716,
          "durationTicks": 336,
          "midi": 61,
          "name": "C#4",
          "ticks": 102528,
          "time": 53.400000000000006,
          "velocity": 0.48031496062992124
        },
        {
          "duration": 0.17500000000000426,
          "durationTicks": 336,
          "midi": 62,
          "name": "D4",
          "ticks": 102912,
          "time": 53.6,
          "velocity": 0.48031496062992124
        },
        {
          "duration": 0.07500000000000284,
          "durationTicks": 144,
          "midi": 57,
          "name": "A3",
          "ticks": 103104,
          "time": 53.7,
          "velocity": 0.48031496062992124
        },
        {
          "duration": 0.17499999999999716,
          "durationTicks": 336,
          "midi": 70,
          "name": "A#4",
          "ticks": 103296,
          "time": 53.800000000000004,
          "velocity": 0.48031496062992124
        },
        {
          "duration": 0.07500000000000284,
          "durationTicks": 144,
          "midi": 69,
          "name": "A4",
          "ticks": 103680,
          "time": 54,
          "velocity": 0.48031496062992124
        },
        {
          "duration": 0.07500000000000284,
          "durationTicks": 144,
          "midi": 57,
          "name": "A3",
          "ticks": 103680,
          "time": 54,
          "velocity": 0.48031496062992124
        },
        {
          "duration": 0.07500000000000284,
          "durationTicks": 144,
          "midi": 67,
          "name": "G4",
          "ticks": 103872,
          "time": 54.1,
          "velocity": 0.48031496062992124
        },
        {
          "duration": 0.17499999999999716,
          "durationTicks": 336,
          "midi": 69,
          "name": "A4",
          "ticks": 104064,
          "time": 54.2,
          "velocity": 0.48031496062992124
        },
        {
          "duration": 0.07500000000000284,
          "durationTicks": 144,
          "midi": 57,
          "name": "A3",
          "ticks": 104064,
          "time": 54.2,
          "velocity": 0.48031496062992124
        },
        {
          "duration": 0.17499999999999716,
          "durationTicks": 336,
          "midi": 64,
          "name": "E4",
          "ticks": 104448,
          "time": 54.400000000000006,
          "velocity": 0.48031496062992124
        },
        {
          "duration": 0.07499999999999574,
          "durationTicks": 144,
          "midi": 55,
          "name": "G3",
          "ticks": 104448,
          "time": 54.400000000000006,
          "velocity": 0.48031496062992124
        },
        {
          "duration": 0.17500000000000426,
          "durationTicks": 336,
          "midi": 61,
          "name": "C#4",
          "ticks": 104832,
          "time": 54.6,
          "velocity": 0.48031496062992124
        },
        {
          "duration": 0.07500000000000284,
          "durationTicks": 144,
          "midi": 55,
          "name": "G3",
          "ticks": 105024,
          "time": 54.7,
          "velocity": 0.48031496062992124
        },
        {
          "duration": 0.07499999999999574,
          "durationTicks": 144,
          "midi": 70,
          "name": "A#4",
          "ticks": 105216,
          "time": 54.800000000000004,
          "velocity": 0.48031496062992124
        },
        {
          "duration": 0.07499999999999574,
          "durationTicks": 144,
          "midi": 69,
          "name": "A4",
          "ticks": 105408,
          "time": 54.900000000000006,
          "velocity": 0.48031496062992124
        },
        {
          "duration": 0.07500000000000284,
          "durationTicks": 144,
          "midi": 55,
          "name": "G3",
          "ticks": 105600,
          "time": 55,
          "velocity": 0.48031496062992124
        },
        {
          "duration": 0.17500000000000426,
          "durationTicks": 336,
          "midi": 67,
          "name": "G4",
          "ticks": 105600,
          "time": 55,
          "velocity": 0.48031496062992124
        },
        {
          "duration": 0.17499999999999716,
          "durationTicks": 336,
          "midi": 69,
          "name": "A4",
          "ticks": 105984,
          "time": 55.2,
          "velocity": 0.48031496062992124
        },
        {
          "duration": 0.07499999999999574,
          "durationTicks": 144,
          "midi": 55,
          "name": "G3",
          "ticks": 106176,
          "time": 55.300000000000004,
          "velocity": 0.48031496062992124
        },
        {
          "duration": 0.17499999999999716,
          "durationTicks": 336,
          "midi": 74,
          "name": "D5",
          "ticks": 106368,
          "time": 55.400000000000006,
          "velocity": 0.48031496062992124
        },
        {
          "duration": 0.07500000000000284,
          "durationTicks": 144,
          "midi": 77,
          "name": "F5",
          "ticks": 106752,
          "time": 55.6,
          "velocity": 0.48031496062992124
        },
        {
          "duration": 0.07500000000000284,
          "durationTicks": 144,
          "midi": 55,
          "name": "G3",
          "ticks": 106752,
          "time": 55.6,
          "velocity": 0.48031496062992124
        },
        {
          "duration": 0.07500000000000284,
          "durationTicks": 144,
          "midi": 76,
          "name": "E5",
          "ticks": 106944,
          "time": 55.7,
          "velocity": 0.48031496062992124
        },
        {
          "duration": 0.17499999999999716,
          "durationTicks": 336,
          "midi": 74,
          "name": "D5",
          "ticks": 107136,
          "time": 55.800000000000004,
          "velocity": 0.48031496062992124
        },
        {
          "duration": 0.07499999999999574,
          "durationTicks": 144,
          "midi": 55,
          "name": "G3",
          "ticks": 107136,
          "time": 55.800000000000004,
          "velocity": 0.48031496062992124
        },
        {
          "duration": 0.07500000000000284,
          "durationTicks": 144,
          "midi": 53,
          "name": "F3",
          "ticks": 107520,
          "time": 56,
          "velocity": 0.48031496062992124
        },
        {
          "duration": 0.17500000000000426,
          "durationTicks": 336,
          "midi": 77,
          "name": "F5",
          "ticks": 107520,
          "time": 56,
          "velocity": 0.48031496062992124
        },
        {
          "duration": 0.17499999999999716,
          "durationTicks": 336,
          "midi": 74,
          "name": "D5",
          "ticks": 107904,
          "time": 56.2,
          "velocity": 0.48031496062992124
        },
        {
          "duration": 0.07499999999999574,
          "durationTicks": 144,
          "midi": 53,
          "name": "F3",
          "ticks": 108096,
          "time": 56.300000000000004,
          "velocity": 0.48031496062992124
        },
        {
          "duration": 0.07499999999999574,
          "durationTicks": 144,
          "midi": 70,
          "name": "A#4",
          "ticks": 108288,
          "time": 56.400000000000006,
          "velocity": 0.48031496062992124
        },
        {
          "duration": 0.07500000000000284,
          "durationTicks": 144,
          "midi": 67,
          "name": "G4",
          "ticks": 108480,
          "time": 56.5,
          "velocity": 0.48031496062992124
        },
        {
          "duration": 0.07500000000000284,
          "durationTicks": 144,
          "midi": 52,
          "name": "E3",
          "ticks": 108672,
          "time": 56.6,
          "velocity": 0.48031496062992124
        },
        {
          "duration": 0.17500000000000426,
          "durationTicks": 336,
          "midi": 64,
          "name": "E4",
          "ticks": 108672,
          "time": 56.6,
          "velocity": 0.48031496062992124
        },
        {
          "duration": 0.17499999999999716,
          "durationTicks": 336,
          "midi": 69,
          "name": "A4",
          "ticks": 109056,
          "time": 56.800000000000004,
          "velocity": 0.48031496062992124
        },
        {
          "duration": 0.07499999999999574,
          "durationTicks": 144,
          "midi": 52,
          "name": "E3",
          "ticks": 109248,
          "time": 56.900000000000006,
          "velocity": 0.48031496062992124
        },
        {
          "duration": 0.17500000000000426,
          "durationTicks": 336,
          "midi": 70,
          "name": "A#4",
          "ticks": 109440,
          "time": 57,
          "velocity": 0.48031496062992124
        },
        {
          "duration": 0.07500000000000284,
          "durationTicks": 144,
          "midi": 52,
          "name": "E3",
          "ticks": 109824,
          "time": 57.2,
          "velocity": 0.48031496062992124
        },
        {
          "duration": 0.2749999999999986,
          "durationTicks": 528,
          "midi": 69,
          "name": "A4",
          "ticks": 109824,
          "time": 57.2,
          "velocity": 0.48031496062992124
        },
        {
          "duration": 0.07499999999999574,
          "durationTicks": 144,
          "midi": 52,
          "name": "E3",
          "ticks": 110208,
          "time": 57.400000000000006,
          "velocity": 0.48031496062992124
        },
        {
          "duration": 0.07500000000000284,
          "durationTicks": 144,
          "midi": 76,
          "name": "E5",
          "ticks": 110400,
          "time": 57.5,
          "velocity": 0.48031496062992124
        },
        {
          "duration": 0.07500000000000284,
          "durationTicks": 144,
          "midi": 77,
          "name": "F5",
          "ticks": 110592,
          "time": 57.6,
          "velocity": 0.48031496062992124
        },
        {
          "duration": 0.07500000000000284,
          "durationTicks": 144,
          "midi": 74,
          "name": "D5",
          "ticks": 110592,
          "time": 57.6,
          "velocity": 0.48031496062992124
        },
        {
          "duration": 0.07499999999999574,
          "durationTicks": 144,
          "midi": 69,
          "name": "A4",
          "ticks": 110976,
          "time": 57.800000000000004,
          "velocity": 0.48031496062992124
        },
        {
          "duration": 0.07499999999999574,
          "durationTicks": 144,
          "midi": 74,
          "name": "D5",
          "ticks": 110976,
          "time": 57.800000000000004,
          "velocity": 0.48031496062992124
        },
        {
          "duration": 0.07500000000000284,
          "durationTicks": 144,
          "midi": 70,
          "name": "A#4",
          "ticks": 111360,
          "time": 58,
          "velocity": 0.48031496062992124
        },
        {
          "duration": 0.07500000000000284,
          "durationTicks": 144,
          "midi": 76,
          "name": "E5",
          "ticks": 111360,
          "time": 58,
          "velocity": 0.48031496062992124
        },
        {
          "duration": 0.07500000000000284,
          "durationTicks": 144,
          "midi": 67,
          "name": "G4",
          "ticks": 111744,
          "time": 58.2,
          "velocity": 0.48031496062992124
        },
        {
          "duration": 0.07500000000000284,
          "durationTicks": 144,
          "midi": 73,
          "name": "C#5",
          "ticks": 111744,
          "time": 58.2,
          "velocity": 0.48031496062992124
        },
        {
          "duration": 0.07499999999999574,
          "durationTicks": 144,
          "midi": 74,
          "name": "D5",
          "ticks": 112128,
          "time": 58.400000000000006,
          "velocity": 0.48031496062992124
        },
        {
          "duration": 0.07499999999999574,
          "durationTicks": 144,
          "midi": 69,
          "name": "A4",
          "ticks": 112128,
          "time": 58.400000000000006,
          "velocity": 0.48031496062992124
        },
        {
          "duration": 0.07500000000000284,
          "durationTicks": 144,
          "midi": 74,
          "name": "D5",
          "ticks": 112512,
          "time": 58.6,
          "velocity": 0.48031496062992124
        },
        {
          "duration": 0.07500000000000284,
          "durationTicks": 144,
          "midi": 77,
          "name": "F5",
          "ticks": 112512,
          "time": 58.6,
          "velocity": 0.48031496062992124
        },
        {
          "duration": 0.07499999999999574,
          "durationTicks": 144,
          "midi": 69,
          "name": "A4",
          "ticks": 112896,
          "time": 58.800000000000004,
          "velocity": 0.48031496062992124
        },
        {
          "duration": 0.07499999999999574,
          "durationTicks": 144,
          "midi": 74,
          "name": "D5",
          "ticks": 112896,
          "time": 58.800000000000004,
          "velocity": 0.48031496062992124
        },
        {
          "duration": 0.07499999999999574,
          "durationTicks": 144,
          "midi": 67,
          "name": "G4",
          "ticks": 113088,
          "time": 58.900000000000006,
          "velocity": 0.48031496062992124
        },
        {
          "duration": 0.07499999999999574,
          "durationTicks": 144,
          "midi": 73,
          "name": "C#5",
          "ticks": 113088,
          "time": 58.900000000000006,
          "velocity": 0.48031496062992124
        },
        {
          "duration": 0.17500000000000426,
          "durationTicks": 336,
          "midi": 65,
          "name": "F4",
          "ticks": 113280,
          "time": 59,
          "velocity": 0.48031496062992124
        },
        {
          "duration": 0.17500000000000426,
          "durationTicks": 336,
          "midi": 74,
          "name": "D5",
          "ticks": 113280,
          "time": 59,
          "velocity": 0.48031496062992124
        },
        {
          "duration": 0.07500000000000284,
          "durationTicks": 144,
          "midi": 73,
          "name": "C#5",
          "ticks": 113664,
          "time": 59.2,
          "velocity": 0.48031496062992124
        },
        {
          "duration": 0.07500000000000284,
          "durationTicks": 144,
          "midi": 64,
          "name": "E4",
          "ticks": 113664,
          "time": 59.2,
          "velocity": 0.48031496062992124
        },
        {
          "duration": 0.07499999999999574,
          "durationTicks": 144,
          "midi": 76,
          "name": "E5",
          "ticks": 114048,
          "time": 59.400000000000006,
          "velocity": 0.48031496062992124
        },
        {
          "duration": 0.07499999999999574,
          "durationTicks": 144,
          "midi": 67,
          "name": "G4",
          "ticks": 114048,
          "time": 59.400000000000006,
          "velocity": 0.48031496062992124
        },
        {
          "duration": 0.07500000000000284,
          "durationTicks": 144,
          "midi": 73,
          "name": "C#5",
          "ticks": 114432,
          "time": 59.6,
          "velocity": 0.48031496062992124
        },
        {
          "duration": 0.07500000000000284,
          "durationTicks": 144,
          "midi": 65,
          "name": "F4",
          "ticks": 114432,
          "time": 59.6,
          "velocity": 0.48031496062992124
        },
        {
          "duration": 0.07500000000000284,
          "durationTicks": 144,
          "midi": 64,
          "name": "E4",
          "ticks": 114624,
          "time": 59.7,
          "velocity": 0.48031496062992124
        },
        {
          "duration": 0.07500000000000284,
          "durationTicks": 144,
          "midi": 70,
          "name": "A#4",
          "ticks": 114624,
          "time": 59.7,
          "velocity": 0.48031496062992124
        },
        {
          "duration": 0.17499999999999716,
          "durationTicks": 336,
          "midi": 61,
          "name": "C#4",
          "ticks": 114816,
          "time": 59.800000000000004,
          "velocity": 0.48031496062992124
        },
        {
          "duration": 0.17499999999999716,
          "durationTicks": 336,
          "midi": 67,
          "name": "G4",
          "ticks": 114816,
          "time": 59.800000000000004,
          "velocity": 0.48031496062992124
        },
        {
          "duration": 0.07500000000000284,
          "durationTicks": 144,
          "midi": 62,
          "name": "D4",
          "ticks": 115200,
          "time": 60,
          "velocity": 0.48031496062992124
        },
        {
          "duration": 0.07500000000000284,
          "durationTicks": 144,
          "midi": 69,
          "name": "A4",
          "ticks": 115200,
          "time": 60,
          "velocity": 0.48031496062992124
        },
        {
          "duration": 0.07500000000000284,
          "durationTicks": 144,
          "midi": 70,
          "name": "A#4",
          "ticks": 115584,
          "time": 60.2,
          "velocity": 0.48031496062992124
        },
        {
          "duration": 0.07500000000000284,
          "durationTicks": 144,
          "midi": 77,
          "name": "F5",
          "ticks": 115584,
          "time": 60.2,
          "velocity": 0.48031496062992124
        },
        {
          "duration": 0.07499999999999574,
          "durationTicks": 144,
          "midi": 74,
          "name": "D5",
          "ticks": 115968,
          "time": 60.400000000000006,
          "velocity": 0.48031496062992124
        },
        {
          "duration": 0.07499999999999574,
          "durationTicks": 144,
          "midi": 69,
          "name": "A4",
          "ticks": 115968,
          "time": 60.400000000000006,
          "velocity": 0.48031496062992124
        },
        {
          "duration": 0.07500000000000284,
          "durationTicks": 144,
          "midi": 67,
          "name": "G4",
          "ticks": 116160,
          "time": 60.5,
          "velocity": 0.48031496062992124
        },
        {
          "duration": 0.07500000000000284,
          "durationTicks": 144,
          "midi": 73,
          "name": "C#5",
          "ticks": 116160,
          "time": 60.5,
          "velocity": 0.48031496062992124
        },
        {
          "duration": 0.17500000000000426,
          "durationTicks": 336,
          "midi": 74,
          "name": "D5",
          "ticks": 116352,
          "time": 60.6,
          "velocity": 0.48031496062992124
        },
        {
          "duration": 0.17500000000000426,
          "durationTicks": 336,
          "midi": 69,
          "name": "A4",
          "ticks": 116352,
          "time": 60.6,
          "velocity": 0.48031496062992124
        },
        {
          "duration": 0.07499999999999574,
          "durationTicks": 144,
          "midi": 73,
          "name": "C#5",
          "ticks": 116736,
          "time": 60.800000000000004,
          "velocity": 0.48031496062992124
        },
        {
          "duration": 0.07499999999999574,
          "durationTicks": 144,
          "midi": 64,
          "name": "E4",
          "ticks": 116736,
          "time": 60.800000000000004,
          "velocity": 0.48031496062992124
        },
        {
          "duration": 0.07500000000000284,
          "durationTicks": 144,
          "midi": 61,
          "name": "C#4",
          "ticks": 117120,
          "time": 61,
          "velocity": 0.48031496062992124
        },
        {
          "duration": 0.07500000000000284,
          "durationTicks": 144,
          "midi": 69,
          "name": "A4",
          "ticks": 117120,
          "time": 61,
          "velocity": 0.48031496062992124
        },
        {
          "duration": 0.07500000000000284,
          "durationTicks": 144,
          "midi": 77,
          "name": "F5",
          "ticks": 117504,
          "time": 61.2,
          "velocity": 0.48031496062992124
        },
        {
          "duration": 0.07500000000000284,
          "durationTicks": 144,
          "midi": 70,
          "name": "A#4",
          "ticks": 117504,
          "time": 61.2,
          "velocity": 0.48031496062992124
        },
        {
          "duration": 0.07499999999999574,
          "durationTicks": 144,
          "midi": 69,
          "name": "A4",
          "ticks": 117696,
          "time": 61.300000000000004,
          "velocity": 0.48031496062992124
        },
        {
          "duration": 0.07499999999999574,
          "durationTicks": 144,
          "midi": 76,
          "name": "E5",
          "ticks": 117696,
          "time": 61.300000000000004,
          "velocity": 0.48031496062992124
        },
        {
          "duration": 0.17499999999999716,
          "durationTicks": 336,
          "midi": 67,
          "name": "G4",
          "ticks": 117888,
          "time": 61.400000000000006,
          "velocity": 0.48031496062992124
        },
        {
          "duration": 0.17499999999999716,
          "durationTicks": 336,
          "midi": 73,
          "name": "C#5",
          "ticks": 117888,
          "time": 61.400000000000006,
          "velocity": 0.48031496062992124
        },
        {
          "duration": 0.07500000000000284,
          "durationTicks": 144,
          "midi": 69,
          "name": "A4",
          "ticks": 118272,
          "time": 61.6,
          "velocity": 0.48031496062992124
        },
        {
          "duration": 0.07500000000000284,
          "durationTicks": 144,
          "midi": 74,
          "name": "D5",
          "ticks": 118272,
          "time": 61.6,
          "velocity": 0.48031496062992124
        },
        {
          "duration": 0.07499999999999574,
          "durationTicks": 144,
          "midi": 81,
          "name": "A5",
          "ticks": 118656,
          "time": 61.800000000000004,
          "velocity": 0.48031496062992124
        },
        {
          "duration": 0.07499999999999574,
          "durationTicks": 144,
          "midi": 74,
          "name": "D5",
          "ticks": 118656,
          "time": 61.800000000000004,
          "velocity": 0.48031496062992124
        },
        {
          "duration": 0.07500000000000284,
          "durationTicks": 144,
          "midi": 84,
          "name": "C6",
          "ticks": 119040,
          "time": 62,
          "velocity": 0.48031496062992124
        },
        {
          "duration": 0.07500000000000284,
          "durationTicks": 144,
          "midi": 77,
          "name": "F5",
          "ticks": 119040,
          "time": 62,
          "velocity": 0.48031496062992124
        },
        {
          "duration": 0.07500000000000284,
          "durationTicks": 144,
          "midi": 76,
          "name": "E5",
          "ticks": 119232,
          "time": 62.1,
          "velocity": 0.48031496062992124
        },
        {
          "duration": 0.07500000000000284,
          "durationTicks": 144,
          "midi": 82,
          "name": "A#5",
          "ticks": 119232,
          "time": 62.1,
          "velocity": 0.48031496062992124
        },
        {
          "duration": 0.17499999999999716,
          "durationTicks": 336,
          "midi": 74,
          "name": "D5",
          "ticks": 119424,
          "time": 62.2,
          "velocity": 0.48031496062992124
        },
        {
          "duration": 0.17499999999999716,
          "durationTicks": 336,
          "midi": 81,
          "name": "A5",
          "ticks": 119424,
          "time": 62.2,
          "velocity": 0.48031496062992124
        },
        {
          "duration": 0.07499999999999574,
          "durationTicks": 144,
          "midi": 82,
          "name": "A#5",
          "ticks": 119808,
          "time": 62.400000000000006,
          "velocity": 0.48031496062992124
        },
        {
          "duration": 0.17499999999999716,
          "durationTicks": 336,
          "midi": 77,
          "name": "F5",
          "ticks": 119808,
          "time": 62.400000000000006,
          "velocity": 0.48031496062992124
        },
        {
          "duration": 0.07500000000000284,
          "durationTicks": 144,
          "midi": 81,
          "name": "A5",
          "ticks": 120000,
          "time": 62.5,
          "velocity": 0.48031496062992124
        },
        {
          "duration": 0.07500000000000284,
          "durationTicks": 144,
          "midi": 82,
          "name": "A#5",
          "ticks": 120192,
          "time": 62.6,
          "velocity": 0.48031496062992124
        },
        {
          "duration": 0.17500000000000426,
          "durationTicks": 336,
          "midi": 74,
          "name": "D5",
          "ticks": 120192,
          "time": 62.6,
          "velocity": 0.48031496062992124
        },
        {
          "duration": 0.07500000000000284,
          "durationTicks": 144,
          "midi": 81,
          "name": "A5",
          "ticks": 120384,
          "time": 62.7,
          "velocity": 0.48031496062992124
        },
        {
          "duration": 0.07499999999999574,
          "durationTicks": 144,
          "midi": 70,
          "name": "A#4",
          "ticks": 120576,
          "time": 62.800000000000004,
          "velocity": 0.48031496062992124
        },
        {
          "duration": 0.07499999999999574,
          "durationTicks": 144,
          "midi": 79,
          "name": "G5",
          "ticks": 120576,
          "time": 62.800000000000004,
          "velocity": 0.48031496062992124
        },
        {
          "duration": 0.07499999999999574,
          "durationTicks": 144,
          "midi": 67,
          "name": "G4",
          "ticks": 120768,
          "time": 62.900000000000006,
          "velocity": 0.48031496062992124
        },
        {
          "duration": 0.07499999999999574,
          "durationTicks": 144,
          "midi": 77,
          "name": "F5",
          "ticks": 120768,
          "time": 62.900000000000006,
          "velocity": 0.48031496062992124
        },
        {
          "duration": 0.07500000000000284,
          "durationTicks": 144,
          "midi": 76,
          "name": "E5",
          "ticks": 120960,
          "time": 63,
          "velocity": 0.48031496062992124
        },
        {
          "duration": 0.17500000000000426,
          "durationTicks": 336,
          "midi": 64,
          "name": "E4",
          "ticks": 120960,
          "time": 63,
          "velocity": 0.48031496062992124
        },
        {
          "duration": 0.07500000000000284,
          "durationTicks": 144,
          "midi": 74,
          "name": "D5",
          "ticks": 121152,
          "time": 63.1,
          "velocity": 0.48031496062992124
        },
        {
          "duration": 0.17499999999999716,
          "durationTicks": 336,
          "midi": 61,
          "name": "C#4",
          "ticks": 121344,
          "time": 63.2,
          "velocity": 0.48031496062992124
        },
        {
          "duration": 0.17499999999999716,
          "durationTicks": 336,
          "midi": 73,
          "name": "C#5",
          "ticks": 121344,
          "time": 63.2,
          "velocity": 0.48031496062992124
        },
        {
          "duration": 0.17499999999999716,
          "durationTicks": 336,
          "midi": 81,
          "name": "A5",
          "ticks": 121728,
          "time": 63.400000000000006,
          "velocity": 0.48031496062992124
        },
        {
          "duration": 0.17499999999999716,
          "durationTicks": 336,
          "midi": 70,
          "name": "A#4",
          "ticks": 121728,
          "time": 63.400000000000006,
          "velocity": 0.48031496062992124
        },
        {
          "duration": 0.17500000000000426,
          "durationTicks": 336,
          "midi": 62,
          "name": "D4",
          "ticks": 122112,
          "time": 63.6,
          "velocity": 0.48031496062992124
        },
        {
          "duration": 0.17500000000000426,
          "durationTicks": 336,
          "midi": 74,
          "name": "D5",
          "ticks": 122112,
          "time": 63.6,
          "velocity": 0.48031496062992124
        },
        {
          "duration": 0.07499999999999574,
          "durationTicks": 144,
          "midi": 73,
          "name": "C#5",
          "ticks": 122688,
          "time": 63.900000000000006,
          "velocity": 0.48031496062992124
        },
        {
          "duration": 0.17499999999999716,
          "durationTicks": 336,
          "midi": 74,
          "name": "D5",
          "ticks": 122880,
          "time": 64,
          "velocity": 0.48031496062992124
        },
        {
          "duration": 0.17499999999999716,
          "durationTicks": 336,
          "midi": 69,
          "name": "A4",
          "ticks": 123264,
          "time": 64.2,
          "velocity": 0.48031496062992124
        },
        {
          "duration": 0.17499999999999716,
          "durationTicks": 336,
          "midi": 70,
          "name": "A#4",
          "ticks": 123648,
          "time": 64.4,
          "velocity": 0.48031496062992124
        },
        {
          "duration": 0.17499999999999716,
          "durationTicks": 336,
          "midi": 67,
          "name": "G4",
          "ticks": 124032,
          "time": 64.60000000000001,
          "velocity": 0.48031496062992124
        },
        {
          "duration": 0.17500000000001137,
          "durationTicks": 336,
          "midi": 69,
          "name": "A4",
          "ticks": 124416,
          "time": 64.8,
          "velocity": 0.48031496062992124
        },
        {
          "duration": 0.17499999999999716,
          "durationTicks": 336,
          "midi": 74,
          "name": "D5",
          "ticks": 124800,
          "time": 65,
          "velocity": 0.48031496062992124
        },
        {
          "duration": 0.07500000000000284,
          "durationTicks": 144,
          "midi": 69,
          "name": "A4",
          "ticks": 125184,
          "time": 65.2,
          "velocity": 0.48031496062992124
        },
        {
          "duration": 0.07500000000000284,
          "durationTicks": 144,
          "midi": 67,
          "name": "G4",
          "ticks": 125376,
          "time": 65.3,
          "velocity": 0.48031496062992124
        },
        {
          "duration": 0.17499999999999716,
          "durationTicks": 336,
          "midi": 65,
          "name": "F4",
          "ticks": 125568,
          "time": 65.4,
          "velocity": 0.48031496062992124
        },
        {
          "duration": 0.17499999999999716,
          "durationTicks": 336,
          "midi": 64,
          "name": "E4",
          "ticks": 125952,
          "time": 65.60000000000001,
          "velocity": 0.48031496062992124
        },
        {
          "duration": 0.17500000000001137,
          "durationTicks": 336,
          "midi": 67,
          "name": "G4",
          "ticks": 126336,
          "time": 65.8,
          "velocity": 0.48031496062992124
        },
        {
          "duration": 0.07500000000000284,
          "durationTicks": 144,
          "midi": 65,
          "name": "F4",
          "ticks": 126720,
          "time": 66,
          "velocity": 0.48031496062992124
        },
        {
          "duration": 0.07499999999998863,
          "durationTicks": 144,
          "midi": 64,
          "name": "E4",
          "ticks": 126912,
          "time": 66.10000000000001,
          "velocity": 0.48031496062992124
        },
        {
          "duration": 0.17499999999999716,
          "durationTicks": 336,
          "midi": 61,
          "name": "C#4",
          "ticks": 127104,
          "time": 66.2,
          "velocity": 0.48031496062992124
        },
        {
          "duration": 0.17499999999999716,
          "durationTicks": 336,
          "midi": 62,
          "name": "D4",
          "ticks": 127488,
          "time": 66.4,
          "velocity": 0.48031496062992124
        },
        {
          "duration": 0.17499999999999716,
          "durationTicks": 336,
          "midi": 70,
          "name": "A#4",
          "ticks": 127872,
          "time": 66.60000000000001,
          "velocity": 0.48031496062992124
        },
        {
          "duration": 0.07500000000000284,
          "durationTicks": 144,
          "midi": 69,
          "name": "A4",
          "ticks": 128256,
          "time": 66.8,
          "velocity": 0.48031496062992124
        },
        {
          "duration": 0.07500000000000284,
          "durationTicks": 144,
          "midi": 67,
          "name": "G4",
          "ticks": 128448,
          "time": 66.9,
          "velocity": 0.48031496062992124
        },
        {
          "duration": 0.17499999999999716,
          "durationTicks": 336,
          "midi": 69,
          "name": "A4",
          "ticks": 128640,
          "time": 67,
          "velocity": 0.48031496062992124
        },
        {
          "duration": 0.17499999999999716,
          "durationTicks": 336,
          "midi": 65,
          "name": "F4",
          "ticks": 128640,
          "time": 67,
          "velocity": 0.48031496062992124
        },
        {
          "duration": 0.17499999999999716,
          "durationTicks": 336,
          "midi": 64,
          "name": "E4",
          "ticks": 129024,
          "time": 67.2,
          "velocity": 0.48031496062992124
        },
        {
          "duration": 0.17499999999999716,
          "durationTicks": 336,
          "midi": 61,
          "name": "C#4",
          "ticks": 129408,
          "time": 67.4,
          "velocity": 0.48031496062992124
        },
        {
          "duration": 0.07499999999998863,
          "durationTicks": 144,
          "midi": 70,
          "name": "A#4",
          "ticks": 129792,
          "time": 67.60000000000001,
          "velocity": 0.48031496062992124
        },
        {
          "duration": 0.07500000000000284,
          "durationTicks": 144,
          "midi": 69,
          "name": "A4",
          "ticks": 129984,
          "time": 67.7,
          "velocity": 0.48031496062992124
        },
        {
          "duration": 0.17500000000001137,
          "durationTicks": 336,
          "midi": 67,
          "name": "G4",
          "ticks": 130176,
          "time": 67.8,
          "velocity": 0.48031496062992124
        },
        {
          "duration": 0.17499999999999716,
          "durationTicks": 336,
          "midi": 69,
          "name": "A4",
          "ticks": 130560,
          "time": 68,
          "velocity": 0.48031496062992124
        },
        {
          "duration": 0.17499999999999716,
          "durationTicks": 336,
          "midi": 74,
          "name": "D5",
          "ticks": 130944,
          "time": 68.2,
          "velocity": 0.48031496062992124
        },
        {
          "duration": 0.07500000000000284,
          "durationTicks": 144,
          "midi": 77,
          "name": "F5",
          "ticks": 131328,
          "time": 68.4,
          "velocity": 0.48031496062992124
        },
        {
          "duration": 0.07500000000000284,
          "durationTicks": 144,
          "midi": 76,
          "name": "E5",
          "ticks": 131520,
          "time": 68.5,
          "velocity": 0.48031496062992124
        },
        {
          "duration": 0.17499999999999716,
          "durationTicks": 336,
          "midi": 74,
          "name": "D5",
          "ticks": 131712,
          "time": 68.60000000000001,
          "velocity": 0.48031496062992124
        },
        {
          "duration": 0.07500000000000284,
          "durationTicks": 144,
          "midi": 77,
          "name": "F5",
          "ticks": 132096,
          "time": 68.8,
          "velocity": 0.48031496062992124
        },
        {
          "duration": 0.07500000000000284,
          "durationTicks": 144,
          "midi": 76,
          "name": "E5",
          "ticks": 132288,
          "time": 68.9,
          "velocity": 0.48031496062992124
        },
        {
          "duration": 0.07500000000000284,
          "durationTicks": 144,
          "midi": 74,
          "name": "D5",
          "ticks": 132480,
          "time": 69,
          "velocity": 0.48031496062992124
        },
        {
          "duration": 0.07499999999998863,
          "durationTicks": 144,
          "midi": 73,
          "name": "C#5",
          "ticks": 132672,
          "time": 69.10000000000001,
          "velocity": 0.48031496062992124
        },
        {
          "duration": 0.07500000000000284,
          "durationTicks": 144,
          "midi": 70,
          "name": "A#4",
          "ticks": 132864,
          "time": 69.2,
          "velocity": 0.48031496062992124
        },
        {
          "duration": 0.07500000000000284,
          "durationTicks": 144,
          "midi": 67,
          "name": "G4",
          "ticks": 133056,
          "time": 69.3,
          "velocity": 0.48031496062992124
        },
        {
          "duration": 0.07500000000000284,
          "durationTicks": 144,
          "midi": 64,
          "name": "E4",
          "ticks": 133248,
          "time": 69.4,
          "velocity": 0.48031496062992124
        },
        {
          "duration": 0.07500000000000284,
          "durationTicks": 144,
          "midi": 61,
          "name": "C#4",
          "ticks": 133440,
          "time": 69.5,
          "velocity": 0.48031496062992124
        },
        {
          "duration": 0.17499999999999716,
          "durationTicks": 336,
          "midi": 69,
          "name": "A4",
          "ticks": 133632,
          "time": 69.60000000000001,
          "velocity": 0.48031496062992124
        },
        {
          "duration": 0.17500000000001137,
          "durationTicks": 336,
          "midi": 70,
          "name": "A#4",
          "ticks": 134016,
          "time": 69.8,
          "velocity": 0.48031496062992124
        },
        {
          "duration": 0.17499999999999716,
          "durationTicks": 336,
          "midi": 69,
          "name": "A4",
          "ticks": 134400,
          "time": 70,
          "velocity": 0.48031496062992124
        },
        {
          "duration": 0.07500000000000284,
          "durationTicks": 144,
          "midi": 73,
          "name": "C#5",
          "ticks": 134784,
          "time": 70.2,
          "velocity": 0.48031496062992124
        },
        {
          "duration": 0.07500000000000284,
          "durationTicks": 144,
          "midi": 76,
          "name": "E5",
          "ticks": 134976,
          "time": 70.3,
          "velocity": 0.48031496062992124
        },
        {
          "duration": 0.17499999999999716,
          "durationTicks": 336,
          "midi": 74,
          "name": "D5",
          "ticks": 135168,
          "time": 70.4,
          "velocity": 0.48031496062992124
        },
        {
          "duration": 0.17499999999999716,
          "durationTicks": 336,
          "midi": 69,
          "name": "A4",
          "ticks": 135552,
          "time": 70.60000000000001,
          "velocity": 0.48031496062992124
        },
        {
          "duration": 0.17500000000001137,
          "durationTicks": 336,
          "midi": 70,
          "name": "A#4",
          "ticks": 135936,
          "time": 70.8,
          "velocity": 0.48031496062992124
        },
        {
          "duration": 0.17499999999999716,
          "durationTicks": 336,
          "midi": 67,
          "name": "G4",
          "ticks": 136320,
          "time": 71,
          "velocity": 0.48031496062992124
        },
        {
          "duration": 0.17499999999999716,
          "durationTicks": 336,
          "midi": 69,
          "name": "A4",
          "ticks": 136704,
          "time": 71.2,
          "velocity": 0.48031496062992124
        },
        {
          "duration": 0.17499999999999716,
          "durationTicks": 336,
          "midi": 74,
          "name": "D5",
          "ticks": 137088,
          "time": 71.4,
          "velocity": 0.48031496062992124
        },
        {
          "duration": 0.07499999999998863,
          "durationTicks": 144,
          "midi": 69,
          "name": "A4",
          "ticks": 137472,
          "time": 71.60000000000001,
          "velocity": 0.48031496062992124
        },
        {
          "duration": 0.07500000000000284,
          "durationTicks": 144,
          "midi": 67,
          "name": "G4",
          "ticks": 137664,
          "time": 71.7,
          "velocity": 0.48031496062992124
        },
        {
          "duration": 0.17500000000001137,
          "durationTicks": 336,
          "midi": 65,
          "name": "F4",
          "ticks": 137856,
          "time": 71.8,
          "velocity": 0.48031496062992124
        },
        {
          "duration": 0.17499999999999716,
          "durationTicks": 336,
          "midi": 64,
          "name": "E4",
          "ticks": 138240,
          "time": 72,
          "velocity": 0.48031496062992124
        },
        {
          "duration": 0.17499999999999716,
          "durationTicks": 336,
          "midi": 67,
          "name": "G4",
          "ticks": 138624,
          "time": 72.2,
          "velocity": 0.48031496062992124
        },
        {
          "duration": 0.07500000000000284,
          "durationTicks": 144,
          "midi": 65,
          "name": "F4",
          "ticks": 139008,
          "time": 72.4,
          "velocity": 0.48031496062992124
        },
        {
          "duration": 0.07500000000000284,
          "durationTicks": 144,
          "midi": 64,
          "name": "E4",
          "ticks": 139200,
          "time": 72.5,
          "velocity": 0.48031496062992124
        },
        {
          "duration": 0.17499999999999716,
          "durationTicks": 336,
          "midi": 61,
          "name": "C#4",
          "ticks": 139392,
          "time": 72.60000000000001,
          "velocity": 0.48031496062992124
        },
        {
          "duration": 0.17500000000001137,
          "durationTicks": 336,
          "midi": 62,
          "name": "D4",
          "ticks": 139776,
          "time": 72.8,
          "velocity": 0.48031496062992124
        },
        {
          "duration": 0.17499999999999716,
          "durationTicks": 336,
          "midi": 70,
          "name": "A#4",
          "ticks": 140160,
          "time": 73,
          "velocity": 0.48031496062992124
        },
        {
          "duration": 0.07500000000000284,
          "durationTicks": 144,
          "midi": 69,
          "name": "A4",
          "ticks": 140544,
          "time": 73.2,
          "velocity": 0.48031496062992124
        },
        {
          "duration": 0.07500000000000284,
          "durationTicks": 144,
          "midi": 67,
          "name": "G4",
          "ticks": 140736,
          "time": 73.3,
          "velocity": 0.48031496062992124
        },
        {
          "duration": 0.17499999999999716,
          "durationTicks": 336,
          "midi": 65,
          "name": "F4",
          "ticks": 140928,
          "time": 73.4,
          "velocity": 0.48031496062992124
        },
        {
          "duration": 0.17499999999999716,
          "durationTicks": 336,
          "midi": 64,
          "name": "E4",
          "ticks": 141312,
          "time": 73.60000000000001,
          "velocity": 0.48031496062992124
        },
        {
          "duration": 0.17500000000001137,
          "durationTicks": 336,
          "midi": 61,
          "name": "C#4",
          "ticks": 141696,
          "time": 73.8,
          "velocity": 0.48031496062992124
        },
        {
          "duration": 0.07500000000000284,
          "durationTicks": 144,
          "midi": 70,
          "name": "A#4",
          "ticks": 142080,
          "time": 74,
          "velocity": 0.48031496062992124
        },
        {
          "duration": 0.07499999999998863,
          "durationTicks": 144,
          "midi": 69,
          "name": "A4",
          "ticks": 142272,
          "time": 74.10000000000001,
          "velocity": 0.48031496062992124
        },
        {
          "duration": 0.17499999999999716,
          "durationTicks": 336,
          "midi": 67,
          "name": "G4",
          "ticks": 142464,
          "time": 74.2,
          "velocity": 0.48031496062992124
        },
        {
          "duration": 0.17499999999999716,
          "durationTicks": 336,
          "midi": 69,
          "name": "A4",
          "ticks": 142848,
          "time": 74.4,
          "velocity": 0.48031496062992124
        },
        {
          "duration": 0.17499999999999716,
          "durationTicks": 336,
          "midi": 74,
          "name": "D5",
          "ticks": 143232,
          "time": 74.60000000000001,
          "velocity": 0.48031496062992124
        },
        {
          "duration": 0.07500000000000284,
          "durationTicks": 144,
          "midi": 77,
          "name": "F5",
          "ticks": 143616,
          "time": 74.8,
          "velocity": 0.48031496062992124
        },
        {
          "duration": 0.07500000000000284,
          "durationTicks": 144,
          "midi": 76,
          "name": "E5",
          "ticks": 143808,
          "time": 74.9,
          "velocity": 0.48031496062992124
        },
        {
          "duration": 0.17499999999999716,
          "durationTicks": 336,
          "midi": 74,
          "name": "D5",
          "ticks": 144000,
          "time": 75,
          "velocity": 0.48031496062992124
        },
        {
          "duration": 0.07500000000000284,
          "durationTicks": 144,
          "midi": 70,
          "name": "A#4",
          "ticks": 144384,
          "time": 75.2,
          "velocity": 0.48031496062992124
        },
        {
          "duration": 0.07500000000000284,
          "durationTicks": 144,
          "midi": 69,
          "name": "A4",
          "ticks": 144576,
          "time": 75.3,
          "velocity": 0.48031496062992124
        },
        {
          "duration": 0.07500000000000284,
          "durationTicks": 144,
          "midi": 70,
          "name": "A#4",
          "ticks": 144768,
          "time": 75.4,
          "velocity": 0.48031496062992124
        },
        {
          "duration": 0.07500000000000284,
          "durationTicks": 144,
          "midi": 69,
          "name": "A4",
          "ticks": 144960,
          "time": 75.5,
          "velocity": 0.48031496062992124
        },
        {
          "duration": 0.07499999999998863,
          "durationTicks": 144,
          "midi": 67,
          "name": "G4",
          "ticks": 145152,
          "time": 75.60000000000001,
          "velocity": 0.48031496062992124
        },
        {
          "duration": 0.07500000000000284,
          "durationTicks": 144,
          "midi": 65,
          "name": "F4",
          "ticks": 145344,
          "time": 75.7,
          "velocity": 0.48031496062992124
        },
        {
          "duration": 0.07500000000000284,
          "durationTicks": 144,
          "midi": 64,
          "name": "E4",
          "ticks": 145536,
          "time": 75.8,
          "velocity": 0.48031496062992124
        },
        {
          "duration": 0.07500000000000284,
          "durationTicks": 144,
          "midi": 62,
          "name": "D4",
          "ticks": 145728,
          "time": 75.9,
          "velocity": 0.48031496062992124
        },
        {
          "duration": 0.17499999999999716,
          "durationTicks": 336,
          "midi": 61,
          "name": "C#4",
          "ticks": 145920,
          "time": 76,
          "velocity": 0.48031496062992124
        },
        {
          "duration": 0.17499999999999716,
          "durationTicks": 336,
          "midi": 69,
          "name": "A4",
          "ticks": 146304,
          "time": 76.2,
          "velocity": 0.48031496062992124
        },
        {
          "duration": 0.17499999999999716,
          "durationTicks": 336,
          "midi": 62,
          "name": "D4",
          "ticks": 146688,
          "time": 76.4,
          "velocity": 0.48031496062992124
        },
        {
          "duration": 0.5749999999999886,
          "durationTicks": 1104,
          "midi": 65,
          "name": "F4",
          "ticks": 147456,
          "time": 76.80000000000001,
          "velocity": 0.48031496062992124
        },
        {
          "duration": 0.17499999999999716,
          "durationTicks": 336,
          "midi": 67,
          "name": "G4",
          "ticks": 148608,
          "time": 77.4,
          "velocity": 0.48031496062992124
        },
        {
          "duration": 0.5750000000000028,
          "durationTicks": 1104,
          "midi": 65,
          "name": "F4",
          "ticks": 148992,
          "time": 77.60000000000001,
          "velocity": 0.48031496062992124
        },
        {
          "duration": 0.17499999999999716,
          "durationTicks": 336,
          "midi": 62,
          "name": "D4",
          "ticks": 150144,
          "time": 78.2,
          "velocity": 0.48031496062992124
        },
        {
          "duration": 0.17499999999999716,
          "durationTicks": 336,
          "midi": 65,
          "name": "F4",
          "ticks": 150528,
          "time": 78.4,
          "velocity": 0.48031496062992124
        },
        {
          "duration": 0.07500000000000284,
          "durationTicks": 144,
          "midi": 67,
          "name": "G4",
          "ticks": 150912,
          "time": 78.60000000000001,
          "velocity": 0.48031496062992124
        },
        {
          "duration": 0.2750000000000057,
          "durationTicks": 528,
          "midi": 65,
          "name": "F4",
          "ticks": 151104,
          "time": 78.7,
          "velocity": 0.48031496062992124
        },
        {
          "duration": 0.17500000000001137,
          "durationTicks": 336,
          "midi": 62,
          "name": "D4",
          "ticks": 151680,
          "time": 79,
          "velocity": 0.48031496062992124
        },
        {
          "duration": 0.17499999999999716,
          "durationTicks": 336,
          "midi": 65,
          "name": "F4",
          "ticks": 152064,
          "time": 79.2,
          "velocity": 0.48031496062992124
        },
        {
          "duration": 0.07500000000000284,
          "durationTicks": 144,
          "midi": 67,
          "name": "G4",
          "ticks": 152448,
          "time": 79.4,
          "velocity": 0.48031496062992124
        },
        {
          "duration": 0.17500000000001137,
          "durationTicks": 336,
          "midi": 69,
          "name": "A4",
          "ticks": 152640,
          "time": 79.5,
          "velocity": 0.48031496062992124
        },
        {
          "duration": 0.07500000000000284,
          "durationTicks": 144,
          "midi": 67,
          "name": "G4",
          "ticks": 153024,
          "time": 79.7,
          "velocity": 0.48031496062992124
        },
        {
          "duration": 0.07499999999998863,
          "durationTicks": 144,
          "midi": 65,
          "name": "F4",
          "ticks": 153216,
          "time": 79.80000000000001,
          "velocity": 0.48031496062992124
        },
        {
          "duration": 0.07500000000000284,
          "durationTicks": 144,
          "midi": 64,
          "name": "E4",
          "ticks": 153408,
          "time": 79.9,
          "velocity": 0.48031496062992124
        },
        {
          "duration": 0.07500000000000284,
          "durationTicks": 144,
          "midi": 62,
          "name": "D4",
          "ticks": 153600,
          "time": 80,
          "velocity": 0.48031496062992124
        },
        {
          "duration": 0.07500000000000284,
          "durationTicks": 144,
          "midi": 58,
          "name": "A#3",
          "ticks": 153984,
          "time": 80.2,
          "velocity": 0.48031496062992124
        },
        {
          "duration": 0.07500000000000284,
          "durationTicks": 144,
          "midi": 62,
          "name": "D4",
          "ticks": 154368,
          "time": 80.4,
          "velocity": 0.48031496062992124
        },
        {
          "duration": 0.07500000000000284,
          "durationTicks": 144,
          "midi": 58,
          "name": "A#3",
          "ticks": 154752,
          "time": 80.60000000000001,
          "velocity": 0.48031496062992124
        },
        {
          "duration": 0.07499999999998863,
          "durationTicks": 144,
          "midi": 62,
          "name": "D4",
          "ticks": 155136,
          "time": 80.80000000000001,
          "velocity": 0.48031496062992124
        },
        {
          "duration": 0.07500000000000284,
          "durationTicks": 144,
          "midi": 58,
          "name": "A#3",
          "ticks": 155328,
          "time": 80.9,
          "velocity": 0.48031496062992124
        },
        {
          "duration": 0.07500000000000284,
          "durationTicks": 144,
          "midi": 64,
          "name": "E4",
          "ticks": 155520,
          "time": 81,
          "velocity": 0.48031496062992124
        },
        {
          "duration": 0.07500000000000284,
          "durationTicks": 144,
          "midi": 58,
          "name": "A#3",
          "ticks": 155712,
          "time": 81.10000000000001,
          "velocity": 0.48031496062992124
        },
        {
          "duration": 0.07500000000000284,
          "durationTicks": 144,
          "midi": 65,
          "name": "F4",
          "ticks": 155904,
          "time": 81.2,
          "velocity": 0.48031496062992124
        },
        {
          "duration": 0.07499999999998863,
          "durationTicks": 144,
          "midi": 58,
          "name": "A#3",
          "ticks": 156096,
          "time": 81.30000000000001,
          "velocity": 0.48031496062992124
        },
        {
          "duration": 0.07500000000000284,
          "durationTicks": 144,
          "midi": 67,
          "name": "G4",
          "ticks": 156288,
          "time": 81.4,
          "velocity": 0.48031496062992124
        },
        {
          "duration": 0.07500000000000284,
          "durationTicks": 144,
          "midi": 62,
          "name": "D4",
          "ticks": 156480,
          "time": 81.5,
          "velocity": 0.48031496062992124
        },
        {
          "duration": 0.07500000000000284,
          "durationTicks": 144,
          "midi": 69,
          "name": "A4",
          "ticks": 156672,
          "time": 81.60000000000001,
          "velocity": 0.48031496062992124
        },
        {
          "duration": 0.07500000000000284,
          "durationTicks": 144,
          "midi": 67,
          "name": "G4",
          "ticks": 156864,
          "time": 81.7,
          "velocity": 0.48031496062992124
        },
        {
          "duration": 0.07499999999998863,
          "durationTicks": 144,
          "midi": 65,
          "name": "F4",
          "ticks": 157056,
          "time": 81.80000000000001,
          "velocity": 0.48031496062992124
        },
        {
          "duration": 0.07500000000000284,
          "durationTicks": 144,
          "midi": 67,
          "name": "G4",
          "ticks": 157248,
          "time": 81.9,
          "velocity": 0.48031496062992124
        },
        {
          "duration": 0.07500000000000284,
          "durationTicks": 144,
          "midi": 65,
          "name": "F4",
          "ticks": 157440,
          "time": 82,
          "velocity": 0.48031496062992124
        },
        {
          "duration": 0.07500000000000284,
          "durationTicks": 144,
          "midi": 62,
          "name": "D4",
          "ticks": 157632,
          "time": 82.10000000000001,
          "velocity": 0.48031496062992124
        },
        {
          "duration": 0.07500000000000284,
          "durationTicks": 144,
          "midi": 65,
          "name": "F4",
          "ticks": 157824,
          "time": 82.2,
          "velocity": 0.48031496062992124
        },
        {
          "duration": 0.07499999999998863,
          "durationTicks": 144,
          "midi": 67,
          "name": "G4",
          "ticks": 158016,
          "time": 82.30000000000001,
          "velocity": 0.48031496062992124
        },
        {
          "duration": 0.17499999999999716,
          "durationTicks": 336,
          "midi": 69,
          "name": "A4",
          "ticks": 158208,
          "time": 82.4,
          "velocity": 0.48031496062992124
        },
        {
          "duration": 0.17499999999999716,
          "durationTicks": 336,
          "midi": 57,
          "name": "A3",
          "ticks": 158208,
          "time": 82.4,
          "velocity": 0.48031496062992124
        },
        {
          "duration": 0.17499999999999716,
          "durationTicks": 336,
          "midi": 60,
          "name": "C4",
          "ticks": 158592,
          "time": 82.60000000000001,
          "velocity": 0.48031496062992124
        },
        {
          "duration": 0.17499999999999716,
          "durationTicks": 336,
          "midi": 68,
          "name": "G#4",
          "ticks": 158592,
          "time": 82.60000000000001,
          "velocity": 0.48031496062992124
        },
        {
          "duration": 0.17499999999999716,
          "durationTicks": 336,
          "midi": 55,
          "name": "G3",
          "ticks": 158976,
          "time": 82.80000000000001,
          "velocity": 0.48031496062992124
        },
        {
          "duration": 0.17499999999999716,
          "durationTicks": 336,
          "midi": 67,
          "name": "G4",
          "ticks": 158976,
          "time": 82.80000000000001,
          "velocity": 0.48031496062992124
        },
        {
          "duration": 0.17500000000001137,
          "durationTicks": 336,
          "midi": 66,
          "name": "F#4",
          "ticks": 159360,
          "time": 83,
          "velocity": 0.48031496062992124
        },
        {
          "duration": 0.17500000000001137,
          "durationTicks": 336,
          "midi": 57,
          "name": "A3",
          "ticks": 159360,
          "time": 83,
          "velocity": 0.48031496062992124
        },
        {
          "duration": 0.5750000000000028,
          "durationTicks": 1104,
          "midi": 57,
          "name": "A3",
          "ticks": 159744,
          "time": 83.2,
          "velocity": 0.48031496062992124
        },
        {
          "duration": 0.5750000000000028,
          "durationTicks": 1104,
          "midi": 65,
          "name": "F4",
          "ticks": 159744,
          "time": 83.2,
          "velocity": 0.48031496062992124
        },
        {
          "duration": 0.17499999999999716,
          "durationTicks": 336,
          "midi": 67,
          "name": "G4",
          "ticks": 160896,
          "time": 83.80000000000001,
          "velocity": 0.48031496062992124
        },
        {
          "duration": 0.17499999999999716,
          "durationTicks": 336,
          "midi": 58,
          "name": "A#3",
          "ticks": 160896,
          "time": 83.80000000000001,
          "velocity": 0.48031496062992124
        },
        {
          "duration": 0.5750000000000028,
          "durationTicks": 1104,
          "midi": 65,
          "name": "F4",
          "ticks": 161280,
          "time": 84,
          "velocity": 0.48031496062992124
        },
        {
          "duration": 0.5750000000000028,
          "durationTicks": 1104,
          "midi": 57,
          "name": "A3",
          "ticks": 161280,
          "time": 84,
          "velocity": 0.48031496062992124
        },
        {
          "duration": 0.17499999999999716,
          "durationTicks": 336,
          "midi": 55,
          "name": "G3",
          "ticks": 162432,
          "time": 84.60000000000001,
          "velocity": 0.48031496062992124
        },
        {
          "duration": 0.17499999999999716,
          "durationTicks": 336,
          "midi": 62,
          "name": "D4",
          "ticks": 162432,
          "time": 84.60000000000001,
          "velocity": 0.48031496062992124
        },
        {
          "duration": 0.17499999999999716,
          "durationTicks": 336,
          "midi": 53,
          "name": "F3",
          "ticks": 162816,
          "time": 84.80000000000001,
          "velocity": 0.48031496062992124
        },
        {
          "duration": 0.17499999999999716,
          "durationTicks": 336,
          "midi": 65,
          "name": "F4",
          "ticks": 162816,
          "time": 84.80000000000001,
          "velocity": 0.48031496062992124
        },
        {
          "duration": 0.07500000000000284,
          "durationTicks": 144,
          "midi": 67,
          "name": "G4",
          "ticks": 163200,
          "time": 85,
          "velocity": 0.48031496062992124
        },
        {
          "duration": 0.07500000000000284,
          "durationTicks": 144,
          "midi": 55,
          "name": "G3",
          "ticks": 163200,
          "time": 85,
          "velocity": 0.48031496062992124
        },
        {
          "duration": 0.2749999999999915,
          "durationTicks": 528,
          "midi": 65,
          "name": "F4",
          "ticks": 163392,
          "time": 85.10000000000001,
          "velocity": 0.48031496062992124
        },
        {
          "duration": 0.2749999999999915,
          "durationTicks": 528,
          "midi": 57,
          "name": "A3",
          "ticks": 163392,
          "time": 85.10000000000001,
          "velocity": 0.48031496062992124
        },
        {
          "duration": 0.17499999999999716,
          "durationTicks": 336,
          "midi": 55,
          "name": "G3",
          "ticks": 163968,
          "time": 85.4,
          "velocity": 0.48031496062992124
        },
        {
          "duration": 0.17499999999999716,
          "durationTicks": 336,
          "midi": 62,
          "name": "D4",
          "ticks": 163968,
          "time": 85.4,
          "velocity": 0.48031496062992124
        },
        {
          "duration": 0.17499999999999716,
          "durationTicks": 336,
          "midi": 65,
          "name": "F4",
          "ticks": 164352,
          "time": 85.60000000000001,
          "velocity": 0.48031496062992124
        },
        {
          "duration": 0.17499999999999716,
          "durationTicks": 336,
          "midi": 53,
          "name": "F3",
          "ticks": 164352,
          "time": 85.60000000000001,
          "velocity": 0.48031496062992124
        },
        {
          "duration": 0.07499999999998863,
          "durationTicks": 144,
          "midi": 55,
          "name": "G3",
          "ticks": 164736,
          "time": 85.80000000000001,
          "velocity": 0.48031496062992124
        },
        {
          "duration": 0.07499999999998863,
          "durationTicks": 144,
          "midi": 67,
          "name": "G4",
          "ticks": 164736,
          "time": 85.80000000000001,
          "velocity": 0.48031496062992124
        },
        {
          "duration": 0.17499999999999716,
          "durationTicks": 336,
          "midi": 52,
          "name": "E3",
          "ticks": 164928,
          "time": 85.9,
          "velocity": 0.48031496062992124
        },
        {
          "duration": 0.17499999999999716,
          "durationTicks": 336,
          "midi": 74,
          "name": "D5",
          "ticks": 164928,
          "time": 85.9,
          "velocity": 0.48031496062992124
        },
        {
          "duration": 0.07500000000000284,
          "durationTicks": 144,
          "midi": 67,
          "name": "G4",
          "ticks": 165312,
          "time": 86.10000000000001,
          "velocity": 0.48031496062992124
        },
        {
          "duration": 0.07500000000000284,
          "durationTicks": 144,
          "midi": 55,
          "name": "G3",
          "ticks": 165312,
          "time": 86.10000000000001,
          "velocity": 0.48031496062992124
        },
        {
          "duration": 0.07500000000000284,
          "durationTicks": 144,
          "midi": 65,
          "name": "F4",
          "ticks": 165504,
          "time": 86.2,
          "velocity": 0.48031496062992124
        },
        {
          "duration": 0.07500000000000284,
          "durationTicks": 144,
          "midi": 53,
          "name": "F3",
          "ticks": 165504,
          "time": 86.2,
          "velocity": 0.48031496062992124
        },
        {
          "duration": 0.07499999999998863,
          "durationTicks": 144,
          "midi": 52,
          "name": "E3",
          "ticks": 165696,
          "time": 86.30000000000001,
          "velocity": 0.48031496062992124
        },
        {
          "duration": 0.07499999999998863,
          "durationTicks": 144,
          "midi": 64,
          "name": "E4",
          "ticks": 165696,
          "time": 86.30000000000001,
          "velocity": 0.48031496062992124
        },
        {
          "duration": 0.07500000000000284,
          "durationTicks": 144,
          "midi": 62,
          "name": "D4",
          "ticks": 165888,
          "time": 86.4,
          "velocity": 0.48031496062992124
        },
        {
          "duration": 0.17499999999999716,
          "durationTicks": 336,
          "midi": 53,
          "name": "F3",
          "ticks": 165888,
          "time": 86.4,
          "velocity": 0.48031496062992124
        },
        {
          "duration": 0.07500000000000284,
          "durationTicks": 144,
          "midi": 58,
          "name": "A#3",
          "ticks": 166272,
          "time": 86.60000000000001,
          "velocity": 0.48031496062992124
        },
        {
          "duration": 0.17499999999999716,
          "durationTicks": 336,
          "midi": 55,
          "name": "G3",
          "ticks": 166272,
          "time": 86.60000000000001,
          "velocity": 0.48031496062992124
        },
        {
          "duration": 0.07499999999998863,
          "durationTicks": 144,
          "midi": 62,
          "name": "D4",
          "ticks": 166656,
          "time": 86.80000000000001,
          "velocity": 0.48031496062992124
        },
        {
          "duration": 0.17499999999999716,
          "durationTicks": 336,
          "midi": 53,
          "name": "F3",
          "ticks": 166656,
          "time": 86.80000000000001,
          "velocity": 0.48031496062992124
        },
        {
          "duration": 0.17500000000001137,
          "durationTicks": 336,
          "midi": 55,
          "name": "G3",
          "ticks": 167040,
          "time": 87,
          "velocity": 0.48031496062992124
        },
        {
          "duration": 0.07500000000000284,
          "durationTicks": 144,
          "midi": 58,
          "name": "A#3",
          "ticks": 167040,
          "time": 87,
          "velocity": 0.48031496062992124
        },
        {
          "duration": 0.07500000000000284,
          "durationTicks": 144,
          "midi": 62,
          "name": "D4",
          "ticks": 167424,
          "time": 87.2,
          "velocity": 0.48031496062992124
        },
        {
          "duration": 0.17499999999999716,
          "durationTicks": 336,
          "midi": 53,
          "name": "F3",
          "ticks": 167424,
          "time": 87.2,
          "velocity": 0.48031496062992124
        },
        {
          "duration": 0.07500000000000284,
          "durationTicks": 144,
          "midi": 64,
          "name": "E4",
          "ticks": 167808,
          "time": 87.4,
          "velocity": 0.48031496062992124
        },
        {
          "duration": 0.17499999999999716,
          "durationTicks": 336,
          "midi": 55,
          "name": "G3",
          "ticks": 167808,
          "time": 87.4,
          "velocity": 0.48031496062992124
        },
        {
          "duration": 0.17499999999999716,
          "durationTicks": 336,
          "midi": 57,
          "name": "A3",
          "ticks": 168192,
          "time": 87.60000000000001,
          "velocity": 0.48031496062992124
        },
        {
          "duration": 0.07500000000000284,
          "durationTicks": 144,
          "midi": 65,
          "name": "F4",
          "ticks": 168192,
          "time": 87.60000000000001,
          "velocity": 0.48031496062992124
        },
        {
          "duration": 0.17499999999999716,
          "durationTicks": 336,
          "midi": 60,
          "name": "C4",
          "ticks": 168576,
          "time": 87.80000000000001,
          "velocity": 0.48031496062992124
        },
        {
          "duration": 0.07499999999998863,
          "durationTicks": 144,
          "midi": 67,
          "name": "G4",
          "ticks": 168576,
          "time": 87.80000000000001,
          "velocity": 0.48031496062992124
        },
        {
          "duration": 0.07500000000000284,
          "durationTicks": 144,
          "midi": 69,
          "name": "A4",
          "ticks": 168960,
          "time": 88,
          "velocity": 0.48031496062992124
        },
        {
          "duration": 0.07500000000000284,
          "durationTicks": 144,
          "midi": 62,
          "name": "D4",
          "ticks": 168960,
          "time": 88,
          "velocity": 0.48031496062992124
        },
        {
          "duration": 0.07500000000000284,
          "durationTicks": 144,
          "midi": 60,
          "name": "C4",
          "ticks": 169152,
          "time": 88.10000000000001,
          "velocity": 0.48031496062992124
        },
        {
          "duration": 0.07500000000000284,
          "durationTicks": 144,
          "midi": 72,
          "name": "C5",
          "ticks": 169152,
          "time": 88.10000000000001,
          "velocity": 0.48031496062992124
        },
        {
          "duration": 0.07500000000000284,
          "durationTicks": 144,
          "midi": 69,
          "name": "A4",
          "ticks": 169344,
          "time": 88.2,
          "velocity": 0.48031496062992124
        },
        {
          "duration": 0.07500000000000284,
          "durationTicks": 144,
          "midi": 62,
          "name": "D4",
          "ticks": 169344,
          "time": 88.2,
          "velocity": 0.48031496062992124
        },
        {
          "duration": 0.07499999999998863,
          "durationTicks": 144,
          "midi": 60,
          "name": "C4",
          "ticks": 169536,
          "time": 88.30000000000001,
          "velocity": 0.48031496062992124
        },
        {
          "duration": 0.07499999999998863,
          "durationTicks": 144,
          "midi": 67,
          "name": "G4",
          "ticks": 169536,
          "time": 88.30000000000001,
          "velocity": 0.48031496062992124
        },
        {
          "duration": 0.07500000000000284,
          "durationTicks": 144,
          "midi": 69,
          "name": "A4",
          "ticks": 169728,
          "time": 88.4,
          "velocity": 0.48031496062992124
        },
        {
          "duration": 0.07500000000000284,
          "durationTicks": 144,
          "midi": 57,
          "name": "A3",
          "ticks": 169728,
          "time": 88.4,
          "velocity": 0.48031496062992124
        },
        {
          "duration": 0.07500000000000284,
          "durationTicks": 144,
          "midi": 67,
          "name": "G4",
          "ticks": 169920,
          "time": 88.5,
          "velocity": 0.48031496062992124
        },
        {
          "duration": 0.07500000000000284,
          "durationTicks": 144,
          "midi": 55,
          "name": "G3",
          "ticks": 169920,
          "time": 88.5,
          "velocity": 0.48031496062992124
        },
        {
          "duration": 0.07500000000000284,
          "durationTicks": 144,
          "midi": 65,
          "name": "F4",
          "ticks": 170112,
          "time": 88.60000000000001,
          "velocity": 0.48031496062992124
        },
        {
          "duration": 0.07500000000000284,
          "durationTicks": 144,
          "midi": 57,
          "name": "A3",
          "ticks": 170112,
          "time": 88.60000000000001,
          "velocity": 0.48031496062992124
        },
        {
          "duration": 0.07500000000000284,
          "durationTicks": 144,
          "midi": 58,
          "name": "A#3",
          "ticks": 170304,
          "time": 88.7,
          "velocity": 0.48031496062992124
        },
        {
          "duration": 0.07500000000000284,
          "durationTicks": 144,
          "midi": 67,
          "name": "G4",
          "ticks": 170304,
          "time": 88.7,
          "velocity": 0.48031496062992124
        },
        {
          "duration": 0.17499999999999716,
          "durationTicks": 336,
          "midi": 57,
          "name": "A3",
          "ticks": 170496,
          "time": 88.80000000000001,
          "velocity": 0.48031496062992124
        },
        {
          "duration": 0.17499999999999716,
          "durationTicks": 336,
          "midi": 69,
          "name": "A4",
          "ticks": 170496,
          "time": 88.80000000000001,
          "velocity": 0.48031496062992124
        },
        {
          "duration": 0.17500000000001137,
          "durationTicks": 336,
          "midi": 60,
          "name": "C4",
          "ticks": 170880,
          "time": 89,
          "velocity": 0.48031496062992124
        },
        {
          "duration": 0.17500000000001137,
          "durationTicks": 336,
          "midi": 72,
          "name": "C5",
          "ticks": 170880,
          "time": 89,
          "velocity": 0.48031496062992124
        },
        {
          "duration": 0.17499999999999716,
          "durationTicks": 336,
          "midi": 74,
          "name": "D5",
          "ticks": 171264,
          "time": 89.2,
          "velocity": 0.48031496062992124
        },
        {
          "duration": 0.17499999999999716,
          "durationTicks": 336,
          "midi": 62,
          "name": "D4",
          "ticks": 171264,
          "time": 89.2,
          "velocity": 0.48031496062992124
        },
        {
          "duration": 0.17499999999999716,
          "durationTicks": 336,
          "midi": 76,
          "name": "E5",
          "ticks": 171648,
          "time": 89.4,
          "velocity": 0.48031496062992124
        },
        {
          "duration": 0.17499999999999716,
          "durationTicks": 336,
          "midi": 64,
          "name": "E4",
          "ticks": 171648,
          "time": 89.4,
          "velocity": 0.48031496062992124
        },
        {
          "duration": 0.7749999999999915,
          "durationTicks": 1488,
          "midi": 65,
          "name": "F4",
          "ticks": 172032,
          "time": 89.60000000000001,
          "velocity": 0.48031496062992124
        },
        {
          "duration": 0.17499999999999716,
          "durationTicks": 336,
          "midi": 77,
          "name": "F5",
          "ticks": 172032,
          "time": 89.60000000000001,
          "velocity": 0.48031496062992124
        },
        {
          "duration": 0.7750000000000057,
          "durationTicks": 1488,
          "midi": 58,
          "name": "A#3",
          "ticks": 173568,
          "time": 90.4,
          "velocity": 0.48031496062992124
        },
        {
          "duration": 0.17499999999999716,
          "durationTicks": 336,
          "midi": 77,
          "name": "F5",
          "ticks": 175104,
          "time": 91.2,
          "velocity": 0.48031496062992124
        },
        {
          "duration": 0.7750000000000057,
          "durationTicks": 1488,
          "midi": 65,
          "name": "F4",
          "ticks": 175104,
          "time": 91.2,
          "velocity": 0.48031496062992124
        },
        {
          "duration": 0.7750000000000057,
          "durationTicks": 1488,
          "midi": 57,
          "name": "A3",
          "ticks": 176640,
          "time": 92,
          "velocity": 0.48031496062992124
        },
        {
          "duration": 0.7749999999999915,
          "durationTicks": 1488,
          "midi": 65,
          "name": "F4",
          "ticks": 178176,
          "time": 92.80000000000001,
          "velocity": 0.48031496062992124
        },
        {
          "duration": 0.17499999999999716,
          "durationTicks": 336,
          "midi": 77,
          "name": "F5",
          "ticks": 178176,
          "time": 92.80000000000001,
          "velocity": 0.48031496062992124
        },
        {
          "duration": 0.7749999999999915,
          "durationTicks": 1488,
          "midi": 58,
          "name": "A#3",
          "ticks": 179712,
          "time": 93.60000000000001,
          "velocity": 0.48031496062992124
        },
        {
          "duration": 0.17499999999999716,
          "durationTicks": 336,
          "midi": 77,
          "name": "F5",
          "ticks": 181248,
          "time": 94.4,
          "velocity": 0.48031496062992124
        },
        {
          "duration": 0.7750000000000057,
          "durationTicks": 1488,
          "midi": 65,
          "name": "F4",
          "ticks": 181248,
          "time": 94.4,
          "velocity": 0.48031496062992124
        },
        {
          "duration": 0.7750000000000057,
          "durationTicks": 1488,
          "midi": 57,
          "name": "A3",
          "ticks": 182784,
          "time": 95.2,
          "velocity": 0.48031496062992124
        },
        {
          "duration": 0.22500000000000853,
          "durationTicks": 432,
          "midi": 57,
          "name": "A3",
          "ticks": 184320,
          "time": 96,
          "velocity": 0.48031496062992124
        },
        {
          "duration": 3.1750000000000114,
          "durationTicks": 6096,
          "midi": 69,
          "name": "A4",
          "ticks": 184320,
          "time": 96,
          "velocity": 0.48031496062992124
        },
        {
          "duration": 0.22499999999999432,
          "durationTicks": 432,
          "midi": 57,
          "name": "A3",
          "ticks": 184896,
          "time": 96.30000000000001,
          "velocity": 0.48031496062992124
        },
        {
          "duration": 0.22499999999999432,
          "durationTicks": 432,
          "midi": 57,
          "name": "A3",
          "ticks": 185472,
          "time": 96.60000000000001,
          "velocity": 0.48031496062992124
        },
        {
          "duration": 0.22499999999999432,
          "durationTicks": 432,
          "midi": 57,
          "name": "A3",
          "ticks": 186048,
          "time": 96.9,
          "velocity": 0.48031496062992124
        },
        {
          "duration": 0.125,
          "durationTicks": 240,
          "midi": 57,
          "name": "A3",
          "ticks": 186624,
          "time": 97.2,
          "velocity": 0.48031496062992124
        },
        {
          "duration": 0.125,
          "durationTicks": 240,
          "midi": 57,
          "name": "A3",
          "ticks": 187008,
          "time": 97.4,
          "velocity": 0.48031496062992124
        },
        {
          "duration": 0.22499999999999432,
          "durationTicks": 432,
          "midi": 57,
          "name": "A3",
          "ticks": 187392,
          "time": 97.60000000000001,
          "velocity": 0.48031496062992124
        },
        {
          "duration": 0.22499999999999432,
          "durationTicks": 432,
          "midi": 57,
          "name": "A3",
          "ticks": 187968,
          "time": 97.9,
          "velocity": 0.48031496062992124
        },
        {
          "duration": 0.22500000000000853,
          "durationTicks": 432,
          "midi": 57,
          "name": "A3",
          "ticks": 188544,
          "time": 98.2,
          "velocity": 0.48031496062992124
        },
        {
          "duration": 0.22500000000000853,
          "durationTicks": 432,
          "midi": 57,
          "name": "A3",
          "ticks": 189120,
          "time": 98.5,
          "velocity": 0.48031496062992124
        },
        {
          "duration": 0.125,
          "durationTicks": 240,
          "midi": 57,
          "name": "A3",
          "ticks": 189696,
          "time": 98.80000000000001,
          "velocity": 0.48031496062992124
        },
        {
          "duration": 0.125,
          "durationTicks": 240,
          "midi": 57,
          "name": "A3",
          "ticks": 190080,
          "time": 99,
          "velocity": 0.48031496062992124
        },
        {
          "duration": 0.22500000000000853,
          "durationTicks": 432,
          "midi": 55,
          "name": "G3",
          "ticks": 190464,
          "time": 99.2,
          "velocity": 0.48031496062992124
        },
        {
          "duration": 1.5750000000000028,
          "durationTicks": 3024,
          "midi": 67,
          "name": "G4",
          "ticks": 190464,
          "time": 99.2,
          "velocity": 0.48031496062992124
        },
        {
          "duration": 0.22500000000000853,
          "durationTicks": 432,
          "midi": 55,
          "name": "G3",
          "ticks": 191040,
          "time": 99.5,
          "velocity": 0.48031496062992124
        },
        {
          "duration": 0.22499999999999432,
          "durationTicks": 432,
          "midi": 55,
          "name": "G3",
          "ticks": 191616,
          "time": 99.80000000000001,
          "velocity": 0.48031496062992124
        },
        {
          "duration": 0.22499999999999432,
          "durationTicks": 432,
          "midi": 55,
          "name": "G3",
          "ticks": 192192,
          "time": 100.10000000000001,
          "velocity": 0.48031496062992124
        },
        {
          "duration": 0.125,
          "durationTicks": 240,
          "midi": 55,
          "name": "G3",
          "ticks": 192768,
          "time": 100.4,
          "velocity": 0.48031496062992124
        },
        {
          "duration": 0.125,
          "durationTicks": 240,
          "midi": 55,
          "name": "G3",
          "ticks": 193152,
          "time": 100.60000000000001,
          "velocity": 0.48031496062992124
        },
        {
          "duration": 0.5749999999999886,
          "durationTicks": 1104,
          "midi": 65,
          "name": "F4",
          "ticks": 193536,
          "time": 100.80000000000001,
          "velocity": 0.48031496062992124
        },
        {
          "duration": 0.22499999999999432,
          "durationTicks": 432,
          "midi": 53,
          "name": "F3",
          "ticks": 193536,
          "time": 100.80000000000001,
          "velocity": 0.48031496062992124
        },
        {
          "duration": 0.22499999999999432,
          "durationTicks": 432,
          "midi": 53,
          "name": "F3",
          "ticks": 194112,
          "time": 101.10000000000001,
          "velocity": 0.48031496062992124
        },
        {
          "duration": 0.22499999999999432,
          "durationTicks": 432,
          "midi": 52,
          "name": "E3",
          "ticks": 194688,
          "time": 101.4,
          "velocity": 0.48031496062992124
        },
        {
          "duration": 0.9749999999999943,
          "durationTicks": 1872,
          "midi": 64,
          "name": "E4",
          "ticks": 194688,
          "time": 101.4,
          "velocity": 0.48031496062992124
        },
        {
          "duration": 0.22500000000000853,
          "durationTicks": 432,
          "midi": 52,
          "name": "E3",
          "ticks": 195264,
          "time": 101.7,
          "velocity": 0.48031496062992124
        },
        {
          "duration": 0.125,
          "durationTicks": 240,
          "midi": 52,
          "name": "E3",
          "ticks": 195840,
          "time": 102,
          "velocity": 0.48031496062992124
        },
        {
          "duration": 0.125,
          "durationTicks": 240,
          "midi": 52,
          "name": "E3",
          "ticks": 196224,
          "time": 102.2,
          "velocity": 0.48031496062992124
        },
        {
          "duration": 0.17499999999999716,
          "durationTicks": 336,
          "midi": 75,
          "name": "D#5",
          "ticks": 196608,
          "time": 102.4,
          "velocity": 0.48031496062992124
        },
        {
          "duration": 0.07500000000000284,
          "durationTicks": 144,
          "midi": 58,
          "name": "A#3",
          "ticks": 196608,
          "time": 102.4,
          "velocity": 0.48031496062992124
        },
        {
          "duration": 0.17499999999999716,
          "durationTicks": 336,
          "midi": 70,
          "name": "A#4",
          "ticks": 196992,
          "time": 102.60000000000001,
          "velocity": 0.48031496062992124
        },
        {
          "duration": 0.07500000000000284,
          "durationTicks": 144,
          "midi": 58,
          "name": "A#3",
          "ticks": 197184,
          "time": 102.7,
          "velocity": 0.48031496062992124
        },
        {
          "duration": 0.17499999999999716,
          "durationTicks": 336,
          "midi": 71,
          "name": "B4",
          "ticks": 197376,
          "time": 102.80000000000001,
          "velocity": 0.48031496062992124
        },
        {
          "duration": 0.17500000000001137,
          "durationTicks": 336,
          "midi": 68,
          "name": "G#4",
          "ticks": 197760,
          "time": 103,
          "velocity": 0.48031496062992124
        },
        {
          "duration": 0.07500000000000284,
          "durationTicks": 144,
          "midi": 58,
          "name": "A#3",
          "ticks": 197760,
          "time": 103,
          "velocity": 0.48031496062992124
        },
        {
          "duration": 0.17499999999999716,
          "durationTicks": 336,
          "midi": 70,
          "name": "A#4",
          "ticks": 198144,
          "time": 103.2,
          "velocity": 0.48031496062992124
        },
        {
          "duration": 0.07499999999998863,
          "durationTicks": 144,
          "midi": 58,
          "name": "A#3",
          "ticks": 198336,
          "time": 103.30000000000001,
          "velocity": 0.48031496062992124
        },
        {
          "duration": 0.17499999999999716,
          "durationTicks": 336,
          "midi": 75,
          "name": "D#5",
          "ticks": 198528,
          "time": 103.4,
          "velocity": 0.48031496062992124
        },
        {
          "duration": 0.07500000000000284,
          "durationTicks": 144,
          "midi": 70,
          "name": "A#4",
          "ticks": 198912,
          "time": 103.60000000000001,
          "velocity": 0.48031496062992124
        },
        {
          "duration": 0.07500000000000284,
          "durationTicks": 144,
          "midi": 58,
          "name": "A#3",
          "ticks": 198912,
          "time": 103.60000000000001,
          "velocity": 0.48031496062992124
        },
        {
          "duration": 0.07500000000000284,
          "durationTicks": 144,
          "midi": 68,
          "name": "G#4",
          "ticks": 199104,
          "time": 103.7,
          "velocity": 0.48031496062992124
        },
        {
          "duration": 0.07499999999998863,
          "durationTicks": 144,
          "midi": 58,
          "name": "A#3",
          "ticks": 199296,
          "time": 103.80000000000001,
          "velocity": 0.48031496062992124
        },
        {
          "duration": 0.17499999999999716,
          "durationTicks": 336,
          "midi": 66,
          "name": "F#4",
          "ticks": 199296,
          "time": 103.80000000000001,
          "velocity": 0.48031496062992124
        },
        {
          "duration": 0.07500000000000284,
          "durationTicks": 144,
          "midi": 58,
          "name": "A#3",
          "ticks": 199680,
          "time": 104,
          "velocity": 0.48031496062992124
        },
        {
          "duration": 0.17500000000001137,
          "durationTicks": 336,
          "midi": 65,
          "name": "F4",
          "ticks": 199680,
          "time": 104,
          "velocity": 0.48031496062992124
        },
        {
          "duration": 0.17499999999999716,
          "durationTicks": 336,
          "midi": 68,
          "name": "G#4",
          "ticks": 200064,
          "time": 104.2,
          "velocity": 0.48031496062992124
        },
        {
          "duration": 0.07499999999998863,
          "durationTicks": 144,
          "midi": 58,
          "name": "A#3",
          "ticks": 200256,
          "time": 104.30000000000001,
          "velocity": 0.48031496062992124
        },
        {
          "duration": 0.07500000000000284,
          "durationTicks": 144,
          "midi": 66,
          "name": "F#4",
          "ticks": 200448,
          "time": 104.4,
          "velocity": 0.48031496062992124
        },
        {
          "duration": 0.07500000000000284,
          "durationTicks": 144,
          "midi": 65,
          "name": "F4",
          "ticks": 200640,
          "time": 104.5,
          "velocity": 0.48031496062992124
        },
        {
          "duration": 0.07500000000000284,
          "durationTicks": 144,
          "midi": 58,
          "name": "A#3",
          "ticks": 200832,
          "time": 104.60000000000001,
          "velocity": 0.48031496062992124
        },
        {
          "duration": 0.17499999999999716,
          "durationTicks": 336,
          "midi": 62,
          "name": "D4",
          "ticks": 200832,
          "time": 104.60000000000001,
          "velocity": 0.48031496062992124
        },
        {
          "duration": 0.17499999999999716,
          "durationTicks": 336,
          "midi": 63,
          "name": "D#4",
          "ticks": 201216,
          "time": 104.80000000000001,
          "velocity": 0.48031496062992124
        },
        {
          "duration": 0.07500000000000284,
          "durationTicks": 144,
          "midi": 58,
          "name": "A#3",
          "ticks": 201408,
          "time": 104.9,
          "velocity": 0.48031496062992124
        },
        {
          "duration": 0.17500000000001137,
          "durationTicks": 336,
          "midi": 71,
          "name": "B4",
          "ticks": 201600,
          "time": 105,
          "velocity": 0.48031496062992124
        },
        {
          "duration": 0.07500000000000284,
          "durationTicks": 144,
          "midi": 70,
          "name": "A#4",
          "ticks": 201984,
          "time": 105.2,
          "velocity": 0.48031496062992124
        },
        {
          "duration": 0.07500000000000284,
          "durationTicks": 144,
          "midi": 58,
          "name": "A#3",
          "ticks": 201984,
          "time": 105.2,
          "velocity": 0.48031496062992124
        },
        {
          "duration": 0.07499999999998863,
          "durationTicks": 144,
          "midi": 68,
          "name": "G#4",
          "ticks": 202176,
          "time": 105.30000000000001,
          "velocity": 0.48031496062992124
        },
        {
          "duration": 0.07500000000000284,
          "durationTicks": 144,
          "midi": 58,
          "name": "A#3",
          "ticks": 202368,
          "time": 105.4,
          "velocity": 0.48031496062992124
        },
        {
          "duration": 0.17499999999999716,
          "durationTicks": 336,
          "midi": 70,
          "name": "A#4",
          "ticks": 202368,
          "time": 105.4,
          "velocity": 0.48031496062992124
        },
        {
          "duration": 0.17499999999999716,
          "durationTicks": 336,
          "midi": 65,
          "name": "F4",
          "ticks": 202752,
          "time": 105.60000000000001,
          "velocity": 0.48031496062992124
        },
        {
          "duration": 0.07500000000000284,
          "durationTicks": 144,
          "midi": 56,
          "name": "G#3",
          "ticks": 202752,
          "time": 105.60000000000001,
          "velocity": 0.48031496062992124
        },
        {
          "duration": 0.17499999999999716,
          "durationTicks": 336,
          "midi": 62,
          "name": "D4",
          "ticks": 203136,
          "time": 105.80000000000001,
          "velocity": 0.48031496062992124
        },
        {
          "duration": 0.07500000000000284,
          "durationTicks": 144,
          "midi": 56,
          "name": "G#3",
          "ticks": 203328,
          "time": 105.9,
          "velocity": 0.48031496062992124
        },
        {
          "duration": 0.07500000000000284,
          "durationTicks": 144,
          "midi": 71,
          "name": "B4",
          "ticks": 203520,
          "time": 106,
          "velocity": 0.48031496062992124
        },
        {
          "duration": 0.07500000000000284,
          "durationTicks": 144,
          "midi": 70,
          "name": "A#4",
          "ticks": 203712,
          "time": 106.10000000000001,
          "velocity": 0.48031496062992124
        },
        {
          "duration": 0.07500000000000284,
          "durationTicks": 144,
          "midi": 56,
          "name": "G#3",
          "ticks": 203904,
          "time": 106.2,
          "velocity": 0.48031496062992124
        },
        {
          "duration": 0.17499999999999716,
          "durationTicks": 336,
          "midi": 68,
          "name": "G#4",
          "ticks": 203904,
          "time": 106.2,
          "velocity": 0.48031496062992124
        },
        {
          "duration": 0.17499999999999716,
          "durationTicks": 336,
          "midi": 70,
          "name": "A#4",
          "ticks": 204288,
          "time": 106.4,
          "velocity": 0.48031496062992124
        },
        {
          "duration": 0.07500000000000284,
          "durationTicks": 144,
          "midi": 56,
          "name": "G#3",
          "ticks": 204480,
          "time": 106.5,
          "velocity": 0.48031496062992124
        },
        {
          "duration": 0.17499999999999716,
          "durationTicks": 336,
          "midi": 75,
          "name": "D#5",
          "ticks": 204672,
          "time": 106.60000000000001,
          "velocity": 0.48031496062992124
        },
        {
          "duration": 0.07499999999998863,
          "durationTicks": 144,
          "midi": 78,
          "name": "F#5",
          "ticks": 205056,
          "time": 106.80000000000001,
          "velocity": 0.48031496062992124
        },
        {
          "duration": 0.07499999999998863,
          "durationTicks": 144,
          "midi": 56,
          "name": "G#3",
          "ticks": 205056,
          "time": 106.80000000000001,
          "velocity": 0.48031496062992124
        },
        {
          "duration": 0.07500000000000284,
          "durationTicks": 144,
          "midi": 77,
          "name": "F5",
          "ticks": 205248,
          "time": 106.9,
          "velocity": 0.48031496062992124
        },
        {
          "duration": 0.07500000000000284,
          "durationTicks": 144,
          "midi": 56,
          "name": "G#3",
          "ticks": 205440,
          "time": 107,
          "velocity": 0.48031496062992124
        },
        {
          "duration": 0.17500000000001137,
          "durationTicks": 336,
          "midi": 75,
          "name": "D#5",
          "ticks": 205440,
          "time": 107,
          "velocity": 0.48031496062992124
        },
        {
          "duration": 0.07500000000000284,
          "durationTicks": 144,
          "midi": 54,
          "name": "F#3",
          "ticks": 205824,
          "time": 107.2,
          "velocity": 0.48031496062992124
        },
        {
          "duration": 0.17499999999999716,
          "durationTicks": 336,
          "midi": 78,
          "name": "F#5",
          "ticks": 205824,
          "time": 107.2,
          "velocity": 0.48031496062992124
        },
        {
          "duration": 0.17499999999999716,
          "durationTicks": 336,
          "midi": 75,
          "name": "D#5",
          "ticks": 206208,
          "time": 107.4,
          "velocity": 0.48031496062992124
        },
        {
          "duration": 0.07500000000000284,
          "durationTicks": 144,
          "midi": 54,
          "name": "F#3",
          "ticks": 206400,
          "time": 107.5,
          "velocity": 0.48031496062992124
        },
        {
          "duration": 0.07500000000000284,
          "durationTicks": 144,
          "midi": 71,
          "name": "B4",
          "ticks": 206592,
          "time": 107.60000000000001,
          "velocity": 0.48031496062992124
        },
        {
          "duration": 0.07500000000000284,
          "durationTicks": 144,
          "midi": 68,
          "name": "G#4",
          "ticks": 206784,
          "time": 107.7,
          "velocity": 0.48031496062992124
        },
        {
          "duration": 0.17499999999999716,
          "durationTicks": 336,
          "midi": 65,
          "name": "F4",
          "ticks": 206976,
          "time": 107.80000000000001,
          "velocity": 0.48031496062992124
        },
        {
          "duration": 0.07499999999998863,
          "durationTicks": 144,
          "midi": 53,
          "name": "F3",
          "ticks": 206976,
          "time": 107.80000000000001,
          "velocity": 0.48031496062992124
        },
        {
          "duration": 0.17500000000001137,
          "durationTicks": 336,
          "midi": 70,
          "name": "A#4",
          "ticks": 207360,
          "time": 108,
          "velocity": 0.48031496062992124
        },
        {
          "duration": 0.07500000000000284,
          "durationTicks": 144,
          "midi": 53,
          "name": "F3",
          "ticks": 207552,
          "time": 108.10000000000001,
          "velocity": 0.48031496062992124
        },
        {
          "duration": 0.17499999999999716,
          "durationTicks": 336,
          "midi": 71,
          "name": "B4",
          "ticks": 207744,
          "time": 108.2,
          "velocity": 0.48031496062992124
        },
        {
          "duration": 0.2750000000000057,
          "durationTicks": 528,
          "midi": 70,
          "name": "A#4",
          "ticks": 208128,
          "time": 108.4,
          "velocity": 0.48031496062992124
        },
        {
          "duration": 0.07500000000000284,
          "durationTicks": 144,
          "midi": 53,
          "name": "F3",
          "ticks": 208128,
          "time": 108.4,
          "velocity": 0.48031496062992124
        },
        {
          "duration": 0.07500000000000284,
          "durationTicks": 144,
          "midi": 53,
          "name": "F3",
          "ticks": 208512,
          "time": 108.60000000000001,
          "velocity": 0.48031496062992124
        },
        {
          "duration": 0.07500000000000284,
          "durationTicks": 144,
          "midi": 77,
          "name": "F5",
          "ticks": 208704,
          "time": 108.7,
          "velocity": 0.48031496062992124
        },
        {
          "duration": 0.07499999999998863,
          "durationTicks": 144,
          "midi": 75,
          "name": "D#5",
          "ticks": 208896,
          "time": 108.80000000000001,
          "velocity": 0.48031496062992124
        },
        {
          "duration": 0.07499999999998863,
          "durationTicks": 144,
          "midi": 78,
          "name": "F#5",
          "ticks": 208896,
          "time": 108.80000000000001,
          "velocity": 0.48031496062992124
        },
        {
          "duration": 0.07500000000000284,
          "durationTicks": 144,
          "midi": 70,
          "name": "A#4",
          "ticks": 209280,
          "time": 109,
          "velocity": 0.48031496062992124
        },
        {
          "duration": 0.07500000000000284,
          "durationTicks": 144,
          "midi": 75,
          "name": "D#5",
          "ticks": 209280,
          "time": 109,
          "velocity": 0.48031496062992124
        },
        {
          "duration": 0.07500000000000284,
          "durationTicks": 144,
          "midi": 71,
          "name": "B4",
          "ticks": 209664,
          "time": 109.2,
          "velocity": 0.48031496062992124
        },
        {
          "duration": 0.07500000000000284,
          "durationTicks": 144,
          "midi": 77,
          "name": "F5",
          "ticks": 209664,
          "time": 109.2,
          "velocity": 0.48031496062992124
        },
        {
          "duration": 0.07500000000000284,
          "durationTicks": 144,
          "midi": 74,
          "name": "D5",
          "ticks": 210048,
          "time": 109.4,
          "velocity": 0.48031496062992124
        },
        {
          "duration": 0.07500000000000284,
          "durationTicks": 144,
          "midi": 68,
          "name": "G#4",
          "ticks": 210048,
          "time": 109.4,
          "velocity": 0.48031496062992124
        },
        {
          "duration": 0.07500000000000284,
          "durationTicks": 144,
          "midi": 75,
          "name": "D#5",
          "ticks": 210432,
          "time": 109.60000000000001,
          "velocity": 0.48031496062992124
        },
        {
          "duration": 0.07500000000000284,
          "durationTicks": 144,
          "midi": 70,
          "name": "A#4",
          "ticks": 210432,
          "time": 109.60000000000001,
          "velocity": 0.48031496062992124
        },
        {
          "duration": 0.07499999999998863,
          "durationTicks": 144,
          "midi": 75,
          "name": "D#5",
          "ticks": 210816,
          "time": 109.80000000000001,
          "velocity": 0.48031496062992124
        },
        {
          "duration": 0.07499999999998863,
          "durationTicks": 144,
          "midi": 78,
          "name": "F#5",
          "ticks": 210816,
          "time": 109.80000000000001,
          "velocity": 0.48031496062992124
        },
        {
          "duration": 0.07500000000000284,
          "durationTicks": 144,
          "midi": 70,
          "name": "A#4",
          "ticks": 211200,
          "time": 110,
          "velocity": 0.48031496062992124
        },
        {
          "duration": 0.07500000000000284,
          "durationTicks": 144,
          "midi": 75,
          "name": "D#5",
          "ticks": 211200,
          "time": 110,
          "velocity": 0.48031496062992124
        },
        {
          "duration": 0.07500000000000284,
          "durationTicks": 144,
          "midi": 74,
          "name": "D5",
          "ticks": 211392,
          "time": 110.10000000000001,
          "velocity": 0.48031496062992124
        },
        {
          "duration": 0.07500000000000284,
          "durationTicks": 144,
          "midi": 68,
          "name": "G#4",
          "ticks": 211392,
          "time": 110.10000000000001,
          "velocity": 0.48031496062992124
        },
        {
          "duration": 0.17499999999999716,
          "durationTicks": 336,
          "midi": 75,
          "name": "D#5",
          "ticks": 211584,
          "time": 110.2,
          "velocity": 0.48031496062992124
        },
        {
          "duration": 0.17499999999999716,
          "durationTicks": 336,
          "midi": 66,
          "name": "F#4",
          "ticks": 211584,
          "time": 110.2,
          "velocity": 0.48031496062992124
        },
        {
          "duration": 0.07500000000000284,
          "durationTicks": 144,
          "midi": 65,
          "name": "F4",
          "ticks": 211968,
          "time": 110.4,
          "velocity": 0.48031496062992124
        },
        {
          "duration": 0.07500000000000284,
          "durationTicks": 144,
          "midi": 74,
          "name": "D5",
          "ticks": 211968,
          "time": 110.4,
          "velocity": 0.48031496062992124
        },
        {
          "duration": 0.07500000000000284,
          "durationTicks": 144,
          "midi": 68,
          "name": "G#4",
          "ticks": 212352,
          "time": 110.60000000000001,
          "velocity": 0.48031496062992124
        },
        {
          "duration": 0.07500000000000284,
          "durationTicks": 144,
          "midi": 77,
          "name": "F5",
          "ticks": 212352,
          "time": 110.60000000000001,
          "velocity": 0.48031496062992124
        },
        {
          "duration": 0.07499999999998863,
          "durationTicks": 144,
          "midi": 66,
          "name": "F#4",
          "ticks": 212736,
          "time": 110.80000000000001,
          "velocity": 0.48031496062992124
        },
        {
          "duration": 0.07499999999998863,
          "durationTicks": 144,
          "midi": 74,
          "name": "D5",
          "ticks": 212736,
          "time": 110.80000000000001,
          "velocity": 0.48031496062992124
        },
        {
          "duration": 0.07500000000000284,
          "durationTicks": 144,
          "midi": 71,
          "name": "B4",
          "ticks": 212928,
          "time": 110.9,
          "velocity": 0.48031496062992124
        },
        {
          "duration": 0.07500000000000284,
          "durationTicks": 144,
          "midi": 65,
          "name": "F4",
          "ticks": 212928,
          "time": 110.9,
          "velocity": 0.48031496062992124
        },
        {
          "duration": 0.17500000000001137,
          "durationTicks": 336,
          "midi": 68,
          "name": "G#4",
          "ticks": 213120,
          "time": 111,
          "velocity": 0.48031496062992124
        },
        {
          "duration": 0.17500000000001137,
          "durationTicks": 336,
          "midi": 62,
          "name": "D4",
          "ticks": 213120,
          "time": 111,
          "velocity": 0.48031496062992124
        },
        {
          "duration": 0.07500000000000284,
          "durationTicks": 144,
          "midi": 63,
          "name": "D#4",
          "ticks": 213504,
          "time": 111.2,
          "velocity": 0.48031496062992124
        },
        {
          "duration": 0.07500000000000284,
          "durationTicks": 144,
          "midi": 70,
          "name": "A#4",
          "ticks": 213504,
          "time": 111.2,
          "velocity": 0.48031496062992124
        },
        {
          "duration": 0.07500000000000284,
          "durationTicks": 144,
          "midi": 71,
          "name": "B4",
          "ticks": 213888,
          "time": 111.4,
          "velocity": 0.48031496062992124
        },
        {
          "duration": 0.07500000000000284,
          "durationTicks": 144,
          "midi": 78,
          "name": "F#5",
          "ticks": 213888,
          "time": 111.4,
          "velocity": 0.48031496062992124
        },
        {
          "duration": 0.07500000000000284,
          "durationTicks": 144,
          "midi": 70,
          "name": "A#4",
          "ticks": 214272,
          "time": 111.60000000000001,
          "velocity": 0.48031496062992124
        },
        {
          "duration": 0.07500000000000284,
          "durationTicks": 144,
          "midi": 75,
          "name": "D#5",
          "ticks": 214272,
          "time": 111.60000000000001,
          "velocity": 0.48031496062992124
        },
        {
          "duration": 0.07500000000000284,
          "durationTicks": 144,
          "midi": 68,
          "name": "G#4",
          "ticks": 214464,
          "time": 111.7,
          "velocity": 0.48031496062992124
        },
        {
          "duration": 0.07500000000000284,
          "durationTicks": 144,
          "midi": 74,
          "name": "D5",
          "ticks": 214464,
          "time": 111.7,
          "velocity": 0.48031496062992124
        },
        {
          "duration": 0.17499999999999716,
          "durationTicks": 336,
          "midi": 70,
          "name": "A#4",
          "ticks": 214656,
          "time": 111.80000000000001,
          "velocity": 0.48031496062992124
        },
        {
          "duration": 0.17499999999999716,
          "durationTicks": 336,
          "midi": 75,
          "name": "D#5",
          "ticks": 214656,
          "time": 111.80000000000001,
          "velocity": 0.48031496062992124
        },
        {
          "duration": 0.07500000000000284,
          "durationTicks": 144,
          "midi": 74,
          "name": "D5",
          "ticks": 215040,
          "time": 112,
          "velocity": 0.48031496062992124
        },
        {
          "duration": 0.07500000000000284,
          "durationTicks": 144,
          "midi": 65,
          "name": "F4",
          "ticks": 215040,
          "time": 112,
          "velocity": 0.48031496062992124
        },
        {
          "duration": 0.07500000000000284,
          "durationTicks": 144,
          "midi": 70,
          "name": "A#4",
          "ticks": 215424,
          "time": 112.2,
          "velocity": 0.48031496062992124
        },
        {
          "duration": 0.07500000000000284,
          "durationTicks": 144,
          "midi": 62,
          "name": "D4",
          "ticks": 215424,
          "time": 112.2,
          "velocity": 0.48031496062992124
        },
        {
          "duration": 0.07500000000000284,
          "durationTicks": 144,
          "midi": 71,
          "name": "B4",
          "ticks": 215808,
          "time": 112.4,
          "velocity": 0.48031496062992124
        },
        {
          "duration": 0.07500000000000284,
          "durationTicks": 144,
          "midi": 78,
          "name": "F#5",
          "ticks": 215808,
          "time": 112.4,
          "velocity": 0.48031496062992124
        },
        {
          "duration": 0.07500000000000284,
          "durationTicks": 144,
          "midi": 70,
          "name": "A#4",
          "ticks": 216000,
          "time": 112.5,
          "velocity": 0.48031496062992124
        },
        {
          "duration": 0.07500000000000284,
          "durationTicks": 144,
          "midi": 77,
          "name": "F5",
          "ticks": 216000,
          "time": 112.5,
          "velocity": 0.48031496062992124
        },
        {
          "duration": 0.17499999999999716,
          "durationTicks": 336,
          "midi": 74,
          "name": "D5",
          "ticks": 216192,
          "time": 112.60000000000001,
          "velocity": 0.48031496062992124
        },
        {
          "duration": 0.17499999999999716,
          "durationTicks": 336,
          "midi": 68,
          "name": "G#4",
          "ticks": 216192,
          "time": 112.60000000000001,
          "velocity": 0.48031496062992124
        },
        {
          "duration": 0.07499999999998863,
          "durationTicks": 144,
          "midi": 75,
          "name": "D#5",
          "ticks": 216576,
          "time": 112.80000000000001,
          "velocity": 0.48031496062992124
        },
        {
          "duration": 0.07499999999998863,
          "durationTicks": 144,
          "midi": 70,
          "name": "A#4",
          "ticks": 216576,
          "time": 112.80000000000001,
          "velocity": 0.48031496062992124
        },
        {
          "duration": 0.07500000000000284,
          "durationTicks": 144,
          "midi": 75,
          "name": "D#5",
          "ticks": 216960,
          "time": 113,
          "velocity": 0.48031496062992124
        },
        {
          "duration": 0.07500000000000284,
          "durationTicks": 144,
          "midi": 82,
          "name": "A#5",
          "ticks": 216960,
          "time": 113,
          "velocity": 0.48031496062992124
        },
        {
          "duration": 0.07500000000000284,
          "durationTicks": 144,
          "midi": 85,
          "name": "C#6",
          "ticks": 217344,
          "time": 113.2,
          "velocity": 0.48031496062992124
        },
        {
          "duration": 0.07500000000000284,
          "durationTicks": 144,
          "midi": 78,
          "name": "F#5",
          "ticks": 217344,
          "time": 113.2,
          "velocity": 0.48031496062992124
        },
        {
          "duration": 0.07499999999998863,
          "durationTicks": 144,
          "midi": 83,
          "name": "B5",
          "ticks": 217536,
          "time": 113.30000000000001,
          "velocity": 0.48031496062992124
        },
        {
          "duration": 0.07499999999998863,
          "durationTicks": 144,
          "midi": 77,
          "name": "F5",
          "ticks": 217536,
          "time": 113.30000000000001,
          "velocity": 0.48031496062992124
        },
        {
          "duration": 0.17499999999999716,
          "durationTicks": 336,
          "midi": 82,
          "name": "A#5",
          "ticks": 217728,
          "time": 113.4,
          "velocity": 0.48031496062992124
        },
        {
          "duration": 0.17499999999999716,
          "durationTicks": 336,
          "midi": 75,
          "name": "D#5",
          "ticks": 217728,
          "time": 113.4,
          "velocity": 0.48031496062992124
        },
        {
          "duration": 0.07500000000000284,
          "durationTicks": 144,
          "midi": 83,
          "name": "B5",
          "ticks": 218112,
          "time": 113.60000000000001,
          "velocity": 0.48031496062992124
        },
        {
          "duration": 0.17499999999999716,
          "durationTicks": 336,
          "midi": 78,
          "name": "F#5",
          "ticks": 218112,
          "time": 113.60000000000001,
          "velocity": 0.48031496062992124
        },
        {
          "duration": 0.07500000000000284,
          "durationTicks": 144,
          "midi": 82,
          "name": "A#5",
          "ticks": 218304,
          "time": 113.7,
          "velocity": 0.48031496062992124
        },
        {
          "duration": 0.07499999999998863,
          "durationTicks": 144,
          "midi": 83,
          "name": "B5",
          "ticks": 218496,
          "time": 113.80000000000001,
          "velocity": 0.48031496062992124
        },
        {
          "duration": 0.17499999999999716,
          "durationTicks": 336,
          "midi": 75,
          "name": "D#5",
          "ticks": 218496,
          "time": 113.80000000000001,
          "velocity": 0.48031496062992124
        },
        {
          "duration": 0.07500000000000284,
          "durationTicks": 144,
          "midi": 82,
          "name": "A#5",
          "ticks": 218688,
          "time": 113.9,
          "velocity": 0.48031496062992124
        },
        {
          "duration": 0.07500000000000284,
          "durationTicks": 144,
          "midi": 80,
          "name": "G#5",
          "ticks": 218880,
          "time": 114,
          "velocity": 0.48031496062992124
        },
        {
          "duration": 0.07500000000000284,
          "durationTicks": 144,
          "midi": 71,
          "name": "B4",
          "ticks": 218880,
          "time": 114,
          "velocity": 0.48031496062992124
        },
        {
          "duration": 0.07500000000000284,
          "durationTicks": 144,
          "midi": 78,
          "name": "F#5",
          "ticks": 219072,
          "time": 114.10000000000001,
          "velocity": 0.48031496062992124
        },
        {
          "duration": 0.07500000000000284,
          "durationTicks": 144,
          "midi": 68,
          "name": "G#4",
          "ticks": 219072,
          "time": 114.10000000000001,
          "velocity": 0.48031496062992124
        },
        {
          "duration": 0.17499999999999716,
          "durationTicks": 336,
          "midi": 65,
          "name": "F4",
          "ticks": 219264,
          "time": 114.2,
          "velocity": 0.48031496062992124
        },
        {
          "duration": 0.07500000000000284,
          "durationTicks": 144,
          "midi": 77,
          "name": "F5",
          "ticks": 219264,
          "time": 114.2,
          "velocity": 0.48031496062992124
        },
        {
          "duration": 0.07499999999998863,
          "durationTicks": 144,
          "midi": 75,
          "name": "D#5",
          "ticks": 219456,
          "time": 114.30000000000001,
          "velocity": 0.48031496062992124
        },
        {
          "duration": 0.17499999999999716,
          "durationTicks": 336,
          "midi": 62,
          "name": "D4",
          "ticks": 219648,
          "time": 114.4,
          "velocity": 0.48031496062992124
        },
        {
          "duration": 0.17499999999999716,
          "durationTicks": 336,
          "midi": 74,
          "name": "D5",
          "ticks": 219648,
          "time": 114.4,
          "velocity": 0.48031496062992124
        },
        {
          "duration": 0.17499999999999716,
          "durationTicks": 336,
          "midi": 71,
          "name": "B4",
          "ticks": 220032,
          "time": 114.60000000000001,
          "velocity": 0.48031496062992124
        },
        {
          "duration": 0.17499999999999716,
          "durationTicks": 336,
          "midi": 82,
          "name": "A#5",
          "ticks": 220032,
          "time": 114.60000000000001,
          "velocity": 0.48031496062992124
        },
        {
          "duration": 0.17499999999999716,
          "durationTicks": 336,
          "midi": 63,
          "name": "D#4",
          "ticks": 220416,
          "time": 114.80000000000001,
          "velocity": 0.48031496062992124
        },
        {
          "duration": 0.17499999999999716,
          "durationTicks": 336,
          "midi": 75,
          "name": "D#5",
          "ticks": 220416,
          "time": 114.80000000000001,
          "velocity": 0.48031496062992124
        }
      ],
      "endOfTrackTicks": 220752
    },
    {
      "channel": 1,
      "controlChanges": {},
      "pitchBends": [],
      "instrument": {
        "family": "piano",
        "number": 0,
        "name": "acoustic grand piano"
      },
      "name": "Grand Piano (Classic)",
      "notes": [
        {
          "duration": 0.17500000000000002,
          "durationTicks": 336,
          "midi": 49,
          "name": "C#3",
          "ticks": 0,
          "time": 0,
          "velocity": 0.4881889763779528
        },
        {
          "duration": 0.175,
          "durationTicks": 336,
          "midi": 61,
          "name": "C#4",
          "ticks": 384,
          "time": 0.2,
          "velocity": 0.4881889763779528
        },
        {
          "duration": 0.17500000000000004,
          "durationTicks": 336,
          "midi": 52,
          "name": "E3",
          "ticks": 768,
          "time": 0.4,
          "velocity": 0.4881889763779528
        },
        {
          "duration": 0.17500000000000004,
          "durationTicks": 336,
          "midi": 49,
          "name": "C#3",
          "ticks": 768,
          "time": 0.4,
          "velocity": 0.4881889763779528
        },
        {
          "duration": 0.17499999999999993,
          "durationTicks": 336,
          "midi": 61,
          "name": "C#4",
          "ticks": 1152,
          "time": 0.6000000000000001,
          "velocity": 0.4881889763779528
        },
        {
          "duration": 0.17500000000000004,
          "durationTicks": 336,
          "midi": 57,
          "name": "A3",
          "ticks": 1536,
          "time": 0.8,
          "velocity": 0.4881889763779528
        },
        {
          "duration": 0.17500000000000004,
          "durationTicks": 336,
          "midi": 49,
          "name": "C#3",
          "ticks": 1536,
          "time": 0.8,
          "velocity": 0.4881889763779528
        },
        {
          "duration": 0.17500000000000004,
          "durationTicks": 336,
          "midi": 61,
          "name": "C#4",
          "ticks": 1920,
          "time": 1,
          "velocity": 0.4881889763779528
        },
        {
          "duration": 0.17499999999999982,
          "durationTicks": 336,
          "midi": 49,
          "name": "C#3",
          "ticks": 2304,
          "time": 1.2000000000000002,
          "velocity": 0.4881889763779528
        },
        {
          "duration": 0.17499999999999982,
          "durationTicks": 336,
          "midi": 52,
          "name": "E3",
          "ticks": 2304,
          "time": 1.2000000000000002,
          "velocity": 0.4881889763779528
        },
        {
          "duration": 0.17500000000000004,
          "durationTicks": 336,
          "midi": 61,
          "name": "C#4",
          "ticks": 2688,
          "time": 1.4000000000000001,
          "velocity": 0.4881889763779528
        },
        {
          "duration": 0.17500000000000004,
          "durationTicks": 336,
          "midi": 48,
          "name": "C3",
          "ticks": 3072,
          "time": 1.6,
          "velocity": 0.4881889763779528
        },
        {
          "duration": 0.17500000000000004,
          "durationTicks": 336,
          "midi": 60,
          "name": "C4",
          "ticks": 3456,
          "time": 1.8,
          "velocity": 0.4881889763779528
        },
        {
          "duration": 0.17500000000000027,
          "durationTicks": 336,
          "midi": 48,
          "name": "C3",
          "ticks": 3840,
          "time": 2,
          "velocity": 0.4881889763779528
        },
        {
          "duration": 0.17500000000000027,
          "durationTicks": 336,
          "midi": 52,
          "name": "E3",
          "ticks": 3840,
          "time": 2,
          "velocity": 0.4881889763779528
        },
        {
          "duration": 0.17499999999999982,
          "durationTicks": 336,
          "midi": 60,
          "name": "C4",
          "ticks": 4224,
          "time": 2.2,
          "velocity": 0.4881889763779528
        },
        {
          "duration": 0.17499999999999982,
          "durationTicks": 336,
          "midi": 57,
          "name": "A3",
          "ticks": 4608,
          "time": 2.4000000000000004,
          "velocity": 0.4881889763779528
        },
        {
          "duration": 0.17499999999999982,
          "durationTicks": 336,
          "midi": 49,
          "name": "C#3",
          "ticks": 4608,
          "time": 2.4000000000000004,
          "velocity": 0.4881889763779528
        },
        {
          "duration": 0.17500000000000027,
          "durationTicks": 336,
          "midi": 61,
          "name": "C#4",
          "ticks": 4992,
          "time": 2.6,
          "velocity": 0.4881889763779528
        },
        {
          "duration": 0.17499999999999982,
          "durationTicks": 336,
          "midi": 49,
          "name": "C#3",
          "ticks": 5376,
          "time": 2.8000000000000003,
          "velocity": 0.4881889763779528
        },
        {
          "duration": 0.17499999999999982,
          "durationTicks": 336,
          "midi": 56,
          "name": "G#3",
          "ticks": 5376,
          "time": 2.8000000000000003,
          "velocity": 0.4881889763779528
        },
        {
          "duration": 0.17500000000000027,
          "durationTicks": 336,
          "midi": 61,
          "name": "C#4",
          "ticks": 5760,
          "time": 3,
          "velocity": 0.4881889763779528
        },
        {
          "duration": 0.17499999999999982,
          "durationTicks": 336,
          "midi": 44,
          "name": "G#2",
          "ticks": 6144,
          "time": 3.2,
          "velocity": 0.4881889763779528
        },
        {
          "duration": 0.17499999999999982,
          "durationTicks": 336,
          "midi": 48,
          "name": "C3",
          "ticks": 6144,
          "time": 3.2,
          "velocity": 0.4881889763779528
        },
        {
          "duration": 0.17499999999999982,
          "durationTicks": 336,
          "midi": 56,
          "name": "G#3",
          "ticks": 6528,
          "time": 3.4000000000000004,
          "velocity": 0.4881889763779528
        },
        {
          "duration": 0.17500000000000027,
          "durationTicks": 336,
          "midi": 44,
          "name": "G#2",
          "ticks": 6912,
          "time": 3.6,
          "velocity": 0.4881889763779528
        },
        {
          "duration": 0.17500000000000027,
          "durationTicks": 336,
          "midi": 51,
          "name": "D#3",
          "ticks": 6912,
          "time": 3.6,
          "velocity": 0.4881889763779528
        },
        {
          "duration": 0.17499999999999982,
          "durationTicks": 336,
          "midi": 56,
          "name": "G#3",
          "ticks": 7296,
          "time": 3.8000000000000003,
          "velocity": 0.4881889763779528
        },
        {
          "duration": 0.17499999999999982,
          "durationTicks": 336,
          "midi": 56,
          "name": "G#3",
          "ticks": 7680,
          "time": 4,
          "velocity": 0.4881889763779528
        },
        {
          "duration": 0.17499999999999982,
          "durationTicks": 336,
          "midi": 49,
          "name": "C#3",
          "ticks": 7680,
          "time": 4,
          "velocity": 0.4881889763779528
        },
        {
          "duration": 0.17499999999999982,
          "durationTicks": 336,
          "midi": 61,
          "name": "C#4",
          "ticks": 8064,
          "time": 4.2,
          "velocity": 0.4881889763779528
        },
        {
          "duration": 0.17499999999999982,
          "durationTicks": 336,
          "midi": 51,
          "name": "D#3",
          "ticks": 8448,
          "time": 4.4,
          "velocity": 0.4881889763779528
        },
        {
          "duration": 0.17499999999999982,
          "durationTicks": 336,
          "midi": 49,
          "name": "C#3",
          "ticks": 8448,
          "time": 4.4,
          "velocity": 0.4881889763779528
        },
        {
          "duration": 0.17499999999999982,
          "durationTicks": 336,
          "midi": 61,
          "name": "C#4",
          "ticks": 8832,
          "time": 4.6000000000000005,
          "velocity": 0.4881889763779528
        },
        {
          "duration": 0.17499999999999982,
          "durationTicks": 336,
          "midi": 52,
          "name": "E3",
          "ticks": 9216,
          "time": 4.800000000000001,
          "velocity": 0.4881889763779528
        },
        {
          "duration": 0.17499999999999982,
          "durationTicks": 336,
          "midi": 45,
          "name": "A2",
          "ticks": 9216,
          "time": 4.800000000000001,
          "velocity": 0.4881889763779528
        },
        {
          "duration": 0.1750000000000007,
          "durationTicks": 336,
          "midi": 57,
          "name": "A3",
          "ticks": 9600,
          "time": 5,
          "velocity": 0.4881889763779528
        },
        {
          "duration": 0.17499999999999982,
          "durationTicks": 336,
          "midi": 54,
          "name": "F#3",
          "ticks": 9984,
          "time": 5.2,
          "velocity": 0.4881889763779528
        },
        {
          "duration": 0.17499999999999982,
          "durationTicks": 336,
          "midi": 45,
          "name": "A2",
          "ticks": 9984,
          "time": 5.2,
          "velocity": 0.4881889763779528
        },
        {
          "duration": 0.17499999999999982,
          "durationTicks": 336,
          "midi": 57,
          "name": "A3",
          "ticks": 10368,
          "time": 5.4,
          "velocity": 0.4881889763779528
        },
        {
          "duration": 0.17499999999999982,
          "durationTicks": 336,
          "midi": 56,
          "name": "G#3",
          "ticks": 10752,
          "time": 5.6000000000000005,
          "velocity": 0.4881889763779528
        },
        {
          "duration": 0.17499999999999982,
          "durationTicks": 336,
          "midi": 44,
          "name": "G#2",
          "ticks": 10752,
          "time": 5.6000000000000005,
          "velocity": 0.4881889763779528
        },
        {
          "duration": 0.17499999999999982,
          "durationTicks": 336,
          "midi": 57,
          "name": "A3",
          "ticks": 11136,
          "time": 5.800000000000001,
          "velocity": 0.4881889763779528
        },
        {
          "duration": 0.1750000000000007,
          "durationTicks": 336,
          "midi": 56,
          "name": "G#3",
          "ticks": 11520,
          "time": 6,
          "velocity": 0.4881889763779528
        },
        {
          "duration": 0.1750000000000007,
          "durationTicks": 336,
          "midi": 51,
          "name": "D#3",
          "ticks": 11520,
          "time": 6,
          "velocity": 0.4881889763779528
        },
        {
          "duration": 0.17499999999999982,
          "durationTicks": 336,
          "midi": 44,
          "name": "G#2",
          "ticks": 11904,
          "time": 6.2,
          "velocity": 0.4881889763779528
        },
        {
          "duration": 0.17499999999999982,
          "durationTicks": 336,
          "midi": 49,
          "name": "C#3",
          "ticks": 12288,
          "time": 6.4,
          "velocity": 0.4881889763779528
        },
        {
          "duration": 0.17499999999999982,
          "durationTicks": 336,
          "midi": 61,
          "name": "C#4",
          "ticks": 12672,
          "time": 6.6000000000000005,
          "velocity": 0.4881889763779528
        },
        {
          "duration": 0.17499999999999982,
          "durationTicks": 336,
          "midi": 51,
          "name": "D#3",
          "ticks": 12672,
          "time": 6.6000000000000005,
          "velocity": 0.4881889763779528
        },
        {
          "duration": 0.17499999999999982,
          "durationTicks": 336,
          "midi": 49,
          "name": "C#3",
          "ticks": 13056,
          "time": 6.800000000000001,
          "velocity": 0.4881889763779528
        },
        {
          "duration": 0.17499999999999982,
          "durationTicks": 336,
          "midi": 52,
          "name": "E3",
          "ticks": 13056,
          "time": 6.800000000000001,
          "velocity": 0.4881889763779528
        },
        {
          "duration": 0.1750000000000007,
          "durationTicks": 336,
          "midi": 54,
          "name": "F#3",
          "ticks": 13440,
          "time": 7,
          "velocity": 0.4881889763779528
        },
        {
          "duration": 0.1750000000000007,
          "durationTicks": 336,
          "midi": 61,
          "name": "C#4",
          "ticks": 13440,
          "time": 7,
          "velocity": 0.4881889763779528
        },
        {
          "duration": 0.17499999999999982,
          "durationTicks": 336,
          "midi": 49,
          "name": "C#3",
          "ticks": 13824,
          "time": 7.2,
          "velocity": 0.4881889763779528
        },
        {
          "duration": 0.17499999999999982,
          "durationTicks": 336,
          "midi": 57,
          "name": "A3",
          "ticks": 13824,
          "time": 7.2,
          "velocity": 0.4881889763779528
        },
        {
          "duration": 0.17499999999999982,
          "durationTicks": 336,
          "midi": 56,
          "name": "G#3",
          "ticks": 14208,
          "time": 7.4,
          "velocity": 0.4881889763779528
        },
        {
          "duration": 0.17499999999999982,
          "durationTicks": 336,
          "midi": 61,
          "name": "C#4",
          "ticks": 14208,
          "time": 7.4,
          "velocity": 0.4881889763779528
        },
        {
          "duration": 0.17499999999999982,
          "durationTicks": 336,
          "midi": 49,
          "name": "C#3",
          "ticks": 14592,
          "time": 7.6000000000000005,
          "velocity": 0.4881889763779528
        },
        {
          "duration": 0.17499999999999982,
          "durationTicks": 336,
          "midi": 52,
          "name": "E3",
          "ticks": 14592,
          "time": 7.6000000000000005,
          "velocity": 0.4881889763779528
        },
        {
          "duration": 0.17499999999999982,
          "durationTicks": 336,
          "midi": 49,
          "name": "C#3",
          "ticks": 14784,
          "time": 7.7,
          "velocity": 0.4881889763779528
        },
        {
          "duration": 0.17499999999999982,
          "durationTicks": 336,
          "midi": 61,
          "name": "C#4",
          "ticks": 14976,
          "time": 7.800000000000001,
          "velocity": 0.4881889763779528
        },
        {
          "duration": 0.17499999999999982,
          "durationTicks": 336,
          "midi": 51,
          "name": "D#3",
          "ticks": 14976,
          "time": 7.800000000000001,
          "velocity": 0.4881889763779528
        },
        {
          "duration": 0.1750000000000007,
          "durationTicks": 336,
          "midi": 48,
          "name": "C3",
          "ticks": 15360,
          "time": 8,
          "velocity": 0.4881889763779528
        },
        {
          "duration": 0.17499999999999893,
          "durationTicks": 336,
          "midi": 60,
          "name": "C4",
          "ticks": 15744,
          "time": 8.200000000000001,
          "velocity": 0.4881889763779528
        },
        {
          "duration": 0.17499999999999893,
          "durationTicks": 336,
          "midi": 51,
          "name": "D#3",
          "ticks": 15744,
          "time": 8.200000000000001,
          "velocity": 0.4881889763779528
        },
        {
          "duration": 0.1750000000000007,
          "durationTicks": 336,
          "midi": 48,
          "name": "C3",
          "ticks": 16128,
          "time": 8.4,
          "velocity": 0.4881889763779528
        },
        {
          "duration": 0.1750000000000007,
          "durationTicks": 336,
          "midi": 52,
          "name": "E3",
          "ticks": 16128,
          "time": 8.4,
          "velocity": 0.4881889763779528
        },
        {
          "duration": 0.1750000000000007,
          "durationTicks": 336,
          "midi": 48,
          "name": "C3",
          "ticks": 16320,
          "time": 8.5,
          "velocity": 0.4881889763779528
        },
        {
          "duration": 0.1750000000000007,
          "durationTicks": 336,
          "midi": 54,
          "name": "F#3",
          "ticks": 16512,
          "time": 8.6,
          "velocity": 0.4881889763779528
        },
        {
          "duration": 0.1750000000000007,
          "durationTicks": 336,
          "midi": 60,
          "name": "C4",
          "ticks": 16512,
          "time": 8.6,
          "velocity": 0.4881889763779528
        },
        {
          "duration": 0.17499999999999893,
          "durationTicks": 336,
          "midi": 57,
          "name": "A3",
          "ticks": 16896,
          "time": 8.8,
          "velocity": 0.4881889763779528
        },
        {
          "duration": 0.17499999999999893,
          "durationTicks": 336,
          "midi": 49,
          "name": "C#3",
          "ticks": 16896,
          "time": 8.8,
          "velocity": 0.4881889763779528
        },
        {
          "duration": 0.1750000000000007,
          "durationTicks": 336,
          "midi": 61,
          "name": "C#4",
          "ticks": 17280,
          "time": 9,
          "velocity": 0.4881889763779528
        },
        {
          "duration": 0.1750000000000007,
          "durationTicks": 336,
          "midi": 54,
          "name": "F#3",
          "ticks": 17280,
          "time": 9,
          "velocity": 0.4881889763779528
        },
        {
          "duration": 0.17499999999999893,
          "durationTicks": 336,
          "midi": 56,
          "name": "G#3",
          "ticks": 17664,
          "time": 9.200000000000001,
          "velocity": 0.4881889763779528
        },
        {
          "duration": 0.17499999999999893,
          "durationTicks": 336,
          "midi": 49,
          "name": "C#3",
          "ticks": 17664,
          "time": 9.200000000000001,
          "velocity": 0.4881889763779528
        },
        {
          "duration": 0.17499999999999893,
          "durationTicks": 336,
          "midi": 49,
          "name": "C#3",
          "ticks": 17856,
          "time": 9.3,
          "velocity": 0.4881889763779528
        },
        {
          "duration": 0.1750000000000007,
          "durationTicks": 336,
          "midi": 61,
          "name": "C#4",
          "ticks": 18048,
          "time": 9.4,
          "velocity": 0.4881889763779528
        },
        {
          "duration": 0.1750000000000007,
          "durationTicks": 336,
          "midi": 52,
          "name": "E3",
          "ticks": 18048,
          "time": 9.4,
          "velocity": 0.4881889763779528
        },
        {
          "duration": 0.17499999999999893,
          "durationTicks": 336,
          "midi": 48,
          "name": "C3",
          "ticks": 18432,
          "time": 9.600000000000001,
          "velocity": 0.4881889763779528
        },
        {
          "duration": 0.17499999999999893,
          "durationTicks": 336,
          "midi": 44,
          "name": "G#2",
          "ticks": 18432,
          "time": 9.600000000000001,
          "velocity": 0.4881889763779528
        },
        {
          "duration": 0.1750000000000007,
          "durationTicks": 336,
          "midi": 49,
          "name": "C#3",
          "ticks": 18816,
          "time": 9.8,
          "velocity": 0.4881889763779528
        },
        {
          "duration": 0.1750000000000007,
          "durationTicks": 336,
          "midi": 56,
          "name": "G#3",
          "ticks": 18816,
          "time": 9.8,
          "velocity": 0.4881889763779528
        },
        {
          "duration": 0.1750000000000007,
          "durationTicks": 336,
          "midi": 51,
          "name": "D#3",
          "ticks": 19200,
          "time": 10,
          "velocity": 0.4881889763779528
        },
        {
          "duration": 0.1750000000000007,
          "durationTicks": 336,
          "midi": 44,
          "name": "G#2",
          "ticks": 19200,
          "time": 10,
          "velocity": 0.4881889763779528
        },
        {
          "duration": 0.17499999999999893,
          "durationTicks": 336,
          "midi": 44,
          "name": "G#2",
          "ticks": 19392,
          "time": 10.100000000000001,
          "velocity": 0.4881889763779528
        },
        {
          "duration": 0.17499999999999893,
          "durationTicks": 336,
          "midi": 56,
          "name": "G#3",
          "ticks": 19584,
          "time": 10.200000000000001,
          "velocity": 0.4881889763779528
        },
        {
          "duration": 0.17499999999999893,
          "durationTicks": 336,
          "midi": 54,
          "name": "F#3",
          "ticks": 19584,
          "time": 10.200000000000001,
          "velocity": 0.4881889763779528
        },
        {
          "duration": 0.1750000000000007,
          "durationTicks": 336,
          "midi": 49,
          "name": "C#3",
          "ticks": 19968,
          "time": 10.4,
          "velocity": 0.4881889763779528
        },
        {
          "duration": 0.1750000000000007,
          "durationTicks": 336,
          "midi": 56,
          "name": "G#3",
          "ticks": 19968,
          "time": 10.4,
          "velocity": 0.4881889763779528
        },
        {
          "duration": 0.17499999999999893,
          "durationTicks": 336,
          "midi": 54,
          "name": "F#3",
          "ticks": 20352,
          "time": 10.600000000000001,
          "velocity": 0.4881889763779528
        },
        {
          "duration": 0.17499999999999893,
          "durationTicks": 336,
          "midi": 61,
          "name": "C#4",
          "ticks": 20352,
          "time": 10.600000000000001,
          "velocity": 0.4881889763779528
        },
        {
          "duration": 0.1750000000000007,
          "durationTicks": 336,
          "midi": 52,
          "name": "E3",
          "ticks": 20736,
          "time": 10.8,
          "velocity": 0.4881889763779528
        },
        {
          "duration": 0.1750000000000007,
          "durationTicks": 336,
          "midi": 49,
          "name": "C#3",
          "ticks": 20736,
          "time": 10.8,
          "velocity": 0.4881889763779528
        },
        {
          "duration": 0.1750000000000007,
          "durationTicks": 336,
          "midi": 49,
          "name": "C#3",
          "ticks": 20928,
          "time": 10.9,
          "velocity": 0.4881889763779528
        },
        {
          "duration": 0.1750000000000007,
          "durationTicks": 336,
          "midi": 61,
          "name": "C#4",
          "ticks": 21120,
          "time": 11,
          "velocity": 0.4881889763779528
        },
        {
          "duration": 0.1750000000000007,
          "durationTicks": 336,
          "midi": 51,
          "name": "D#3",
          "ticks": 21120,
          "time": 11,
          "velocity": 0.4881889763779528
        },
        {
          "duration": 0.17499999999999893,
          "durationTicks": 336,
          "midi": 45,
          "name": "A2",
          "ticks": 21504,
          "time": 11.200000000000001,
          "velocity": 0.4881889763779528
        },
        {
          "duration": 0.17499999999999893,
          "durationTicks": 336,
          "midi": 52,
          "name": "E3",
          "ticks": 21504,
          "time": 11.200000000000001,
          "velocity": 0.4881889763779528
        },
        {
          "duration": 0.1750000000000007,
          "durationTicks": 336,
          "midi": 57,
          "name": "A3",
          "ticks": 21888,
          "time": 11.4,
          "velocity": 0.4881889763779528
        },
        {
          "duration": 0.1750000000000007,
          "durationTicks": 336,
          "midi": 54,
          "name": "F#3",
          "ticks": 21888,
          "time": 11.4,
          "velocity": 0.4881889763779528
        },
        {
          "duration": 0.17499999999999893,
          "durationTicks": 336,
          "midi": 45,
          "name": "A2",
          "ticks": 22272,
          "time": 11.600000000000001,
          "velocity": 0.4881889763779528
        },
        {
          "duration": 0.17499999999999893,
          "durationTicks": 336,
          "midi": 52,
          "name": "E3",
          "ticks": 22272,
          "time": 11.600000000000001,
          "velocity": 0.4881889763779528
        },
        {
          "duration": 0.1750000000000007,
          "durationTicks": 336,
          "midi": 54,
          "name": "F#3",
          "ticks": 22656,
          "time": 11.8,
          "velocity": 0.4881889763779528
        },
        {
          "duration": 0.1750000000000007,
          "durationTicks": 336,
          "midi": 57,
          "name": "A3",
          "ticks": 22656,
          "time": 11.8,
          "velocity": 0.4881889763779528
        },
        {
          "duration": 0.1750000000000007,
          "durationTicks": 336,
          "midi": 48,
          "name": "C3",
          "ticks": 23040,
          "time": 12,
          "velocity": 0.4881889763779528
        },
        {
          "duration": 0.1750000000000007,
          "durationTicks": 336,
          "midi": 44,
          "name": "G#2",
          "ticks": 23040,
          "time": 12,
          "velocity": 0.4881889763779528
        },
        {
          "duration": 0.17499999999999893,
          "durationTicks": 336,
          "midi": 57,
          "name": "A3",
          "ticks": 23424,
          "time": 12.200000000000001,
          "velocity": 0.4881889763779528
        },
        {
          "duration": 0.17499999999999893,
          "durationTicks": 336,
          "midi": 51,
          "name": "D#3",
          "ticks": 23424,
          "time": 12.200000000000001,
          "velocity": 0.4881889763779528
        },
        {
          "duration": 0.1750000000000007,
          "durationTicks": 336,
          "midi": 56,
          "name": "G#3",
          "ticks": 23808,
          "time": 12.4,
          "velocity": 0.4881889763779528
        },
        {
          "duration": 0.1750000000000007,
          "durationTicks": 336,
          "midi": 49,
          "name": "C#3",
          "ticks": 23808,
          "time": 12.4,
          "velocity": 0.4881889763779528
        },
        {
          "duration": 0.07499999999999929,
          "durationTicks": 144,
          "midi": 49,
          "name": "C#3",
          "ticks": 24576,
          "time": 12.8,
          "velocity": 0.4881889763779528
        },
        {
          "duration": 0.07499999999999929,
          "durationTicks": 144,
          "midi": 61,
          "name": "C#4",
          "ticks": 24576,
          "time": 12.8,
          "velocity": 0.4881889763779528
        },
        {
          "duration": 0.07500000000000107,
          "durationTicks": 144,
          "midi": 56,
          "name": "G#3",
          "ticks": 24768,
          "time": 12.9,
          "velocity": 0.4881889763779528
        },
        {
          "duration": 0.07500000000000107,
          "durationTicks": 144,
          "midi": 56,
          "name": "G#3",
          "ticks": 24960,
          "time": 13,
          "velocity": 0.4881889763779528
        },
        {
          "duration": 0.07499999999999929,
          "durationTicks": 144,
          "midi": 49,
          "name": "C#3",
          "ticks": 25152,
          "time": 13.100000000000001,
          "velocity": 0.4881889763779528
        },
        {
          "duration": 0.17499999999999893,
          "durationTicks": 336,
          "midi": 61,
          "name": "C#4",
          "ticks": 25344,
          "time": 13.200000000000001,
          "velocity": 0.4881889763779528
        },
        {
          "duration": 0.07499999999999929,
          "durationTicks": 144,
          "midi": 56,
          "name": "G#3",
          "ticks": 25536,
          "time": 13.3,
          "velocity": 0.4881889763779528
        },
        {
          "duration": 0.07500000000000107,
          "durationTicks": 144,
          "midi": 52,
          "name": "E3",
          "ticks": 25728,
          "time": 13.4,
          "velocity": 0.4881889763779528
        },
        {
          "duration": 0.07500000000000107,
          "durationTicks": 144,
          "midi": 56,
          "name": "G#3",
          "ticks": 25920,
          "time": 13.5,
          "velocity": 0.4881889763779528
        },
        {
          "duration": 0.07499999999999929,
          "durationTicks": 144,
          "midi": 61,
          "name": "C#4",
          "ticks": 26112,
          "time": 13.600000000000001,
          "velocity": 0.4881889763779528
        },
        {
          "duration": 0.07499999999999929,
          "durationTicks": 144,
          "midi": 49,
          "name": "C#3",
          "ticks": 26112,
          "time": 13.600000000000001,
          "velocity": 0.4881889763779528
        },
        {
          "duration": 0.07499999999999929,
          "durationTicks": 144,
          "midi": 56,
          "name": "G#3",
          "ticks": 26304,
          "time": 13.700000000000001,
          "velocity": 0.4881889763779528
        },
        {
          "duration": 0.07499999999999929,
          "durationTicks": 144,
          "midi": 49,
          "name": "C#3",
          "ticks": 26496,
          "time": 13.8,
          "velocity": 0.4881889763779528
        },
        {
          "duration": 0.07499999999999929,
          "durationTicks": 144,
          "midi": 61,
          "name": "C#4",
          "ticks": 26496,
          "time": 13.8,
          "velocity": 0.4881889763779528
        },
        {
          "duration": 0.07500000000000107,
          "durationTicks": 144,
          "midi": 56,
          "name": "G#3",
          "ticks": 26688,
          "time": 13.9,
          "velocity": 0.4881889763779528
        },
        {
          "duration": 0.1750000000000007,
          "durationTicks": 336,
          "midi": 61,
          "name": "C#4",
          "ticks": 26880,
          "time": 14,
          "velocity": 0.4881889763779528
        },
        {
          "duration": 0.07499999999999929,
          "durationTicks": 144,
          "midi": 54,
          "name": "F#3",
          "ticks": 27072,
          "time": 14.100000000000001,
          "velocity": 0.4881889763779528
        },
        {
          "duration": 0.07499999999999929,
          "durationTicks": 144,
          "midi": 56,
          "name": "G#3",
          "ticks": 27264,
          "time": 14.200000000000001,
          "velocity": 0.4881889763779528
        },
        {
          "duration": 0.07499999999999929,
          "durationTicks": 144,
          "midi": 54,
          "name": "F#3",
          "ticks": 27456,
          "time": 14.3,
          "velocity": 0.4881889763779528
        },
        {
          "duration": 0.07500000000000107,
          "durationTicks": 144,
          "midi": 60,
          "name": "C4",
          "ticks": 27648,
          "time": 14.4,
          "velocity": 0.4881889763779528
        },
        {
          "duration": 0.07500000000000107,
          "durationTicks": 144,
          "midi": 48,
          "name": "C3",
          "ticks": 27648,
          "time": 14.4,
          "velocity": 0.4881889763779528
        },
        {
          "duration": 0.07500000000000107,
          "durationTicks": 144,
          "midi": 54,
          "name": "F#3",
          "ticks": 27840,
          "time": 14.5,
          "velocity": 0.4881889763779528
        },
        {
          "duration": 0.07499999999999929,
          "durationTicks": 144,
          "midi": 54,
          "name": "F#3",
          "ticks": 28032,
          "time": 14.600000000000001,
          "velocity": 0.4881889763779528
        },
        {
          "duration": 0.07499999999999929,
          "durationTicks": 144,
          "midi": 48,
          "name": "C3",
          "ticks": 28224,
          "time": 14.700000000000001,
          "velocity": 0.4881889763779528
        },
        {
          "duration": 0.07499999999999929,
          "durationTicks": 144,
          "midi": 60,
          "name": "C4",
          "ticks": 28416,
          "time": 14.8,
          "velocity": 0.4881889763779528
        },
        {
          "duration": 0.07500000000000107,
          "durationTicks": 144,
          "midi": 54,
          "name": "F#3",
          "ticks": 28608,
          "time": 14.9,
          "velocity": 0.4881889763779528
        },
        {
          "duration": 0.07500000000000107,
          "durationTicks": 144,
          "midi": 48,
          "name": "C3",
          "ticks": 28800,
          "time": 15,
          "velocity": 0.4881889763779528
        },
        {
          "duration": 0.07499999999999929,
          "durationTicks": 144,
          "midi": 54,
          "name": "F#3",
          "ticks": 28992,
          "time": 15.100000000000001,
          "velocity": 0.4881889763779528
        },
        {
          "duration": 0.07499999999999929,
          "durationTicks": 144,
          "midi": 49,
          "name": "C#3",
          "ticks": 29184,
          "time": 15.200000000000001,
          "velocity": 0.4881889763779528
        },
        {
          "duration": 0.07499999999999929,
          "durationTicks": 144,
          "midi": 61,
          "name": "C#4",
          "ticks": 29184,
          "time": 15.200000000000001,
          "velocity": 0.4881889763779528
        },
        {
          "duration": 0.07499999999999929,
          "durationTicks": 144,
          "midi": 56,
          "name": "G#3",
          "ticks": 29376,
          "time": 15.3,
          "velocity": 0.4881889763779528
        },
        {
          "duration": 0.07500000000000107,
          "durationTicks": 144,
          "midi": 61,
          "name": "C#4",
          "ticks": 29568,
          "time": 15.4,
          "velocity": 0.4881889763779528
        },
        {
          "duration": 0.07500000000000107,
          "durationTicks": 144,
          "midi": 49,
          "name": "C#3",
          "ticks": 29568,
          "time": 15.4,
          "velocity": 0.4881889763779528
        },
        {
          "duration": 0.07500000000000107,
          "durationTicks": 144,
          "midi": 56,
          "name": "G#3",
          "ticks": 29760,
          "time": 15.5,
          "velocity": 0.4881889763779528
        },
        {
          "duration": 0.07499999999999929,
          "durationTicks": 144,
          "midi": 61,
          "name": "C#4",
          "ticks": 29952,
          "time": 15.600000000000001,
          "velocity": 0.4881889763779528
        },
        {
          "duration": 0.07499999999999929,
          "durationTicks": 144,
          "midi": 56,
          "name": "G#3",
          "ticks": 30144,
          "time": 15.700000000000001,
          "velocity": 0.4881889763779528
        },
        {
          "duration": 0.07499999999999929,
          "durationTicks": 144,
          "midi": 52,
          "name": "E3",
          "ticks": 30336,
          "time": 15.8,
          "velocity": 0.4881889763779528
        },
        {
          "duration": 0.07500000000000107,
          "durationTicks": 144,
          "midi": 56,
          "name": "G#3",
          "ticks": 30528,
          "time": 15.9,
          "velocity": 0.4881889763779528
        },
        {
          "duration": 0.07499999999999929,
          "durationTicks": 144,
          "midi": 48,
          "name": "C3",
          "ticks": 30720,
          "time": 16,
          "velocity": 0.4881889763779528
        },
        {
          "duration": 0.07499999999999929,
          "durationTicks": 144,
          "midi": 60,
          "name": "C4",
          "ticks": 30720,
          "time": 16,
          "velocity": 0.4881889763779528
        },
        {
          "duration": 0.07499999999999929,
          "durationTicks": 144,
          "midi": 51,
          "name": "D#3",
          "ticks": 30912,
          "time": 16.1,
          "velocity": 0.4881889763779528
        },
        {
          "duration": 0.07500000000000284,
          "durationTicks": 144,
          "midi": 48,
          "name": "C3",
          "ticks": 31104,
          "time": 16.2,
          "velocity": 0.4881889763779528
        },
        {
          "duration": 0.07499999999999929,
          "durationTicks": 144,
          "midi": 51,
          "name": "D#3",
          "ticks": 31296,
          "time": 16.3,
          "velocity": 0.4881889763779528
        },
        {
          "duration": 0.07499999999999929,
          "durationTicks": 144,
          "midi": 60,
          "name": "C4",
          "ticks": 31488,
          "time": 16.400000000000002,
          "velocity": 0.4881889763779528
        },
        {
          "duration": 0.07499999999999929,
          "durationTicks": 144,
          "midi": 51,
          "name": "D#3",
          "ticks": 31680,
          "time": 16.5,
          "velocity": 0.4881889763779528
        },
        {
          "duration": 0.07499999999999929,
          "durationTicks": 144,
          "midi": 60,
          "name": "C4",
          "ticks": 31872,
          "time": 16.6,
          "velocity": 0.4881889763779528
        },
        {
          "duration": 0.07499999999999929,
          "durationTicks": 144,
          "midi": 48,
          "name": "C3",
          "ticks": 31872,
          "time": 16.6,
          "velocity": 0.4881889763779528
        },
        {
          "duration": 0.07500000000000284,
          "durationTicks": 144,
          "midi": 51,
          "name": "D#3",
          "ticks": 32064,
          "time": 16.7,
          "velocity": 0.4881889763779528
        },
        {
          "duration": 0.07499999999999929,
          "durationTicks": 144,
          "midi": 49,
          "name": "C#3",
          "ticks": 32256,
          "time": 16.8,
          "velocity": 0.4881889763779528
        },
        {
          "duration": 0.07499999999999929,
          "durationTicks": 144,
          "midi": 61,
          "name": "C#4",
          "ticks": 32256,
          "time": 16.8,
          "velocity": 0.4881889763779528
        },
        {
          "duration": 0.07499999999999929,
          "durationTicks": 144,
          "midi": 52,
          "name": "E3",
          "ticks": 32448,
          "time": 16.900000000000002,
          "velocity": 0.4881889763779528
        },
        {
          "duration": 0.07499999999999929,
          "durationTicks": 144,
          "midi": 49,
          "name": "C#3",
          "ticks": 32640,
          "time": 17,
          "velocity": 0.4881889763779528
        },
        {
          "duration": 0.07499999999999929,
          "durationTicks": 144,
          "midi": 61,
          "name": "C#4",
          "ticks": 32640,
          "time": 17,
          "velocity": 0.4881889763779528
        },
        {
          "duration": 0.07499999999999929,
          "durationTicks": 144,
          "midi": 52,
          "name": "E3",
          "ticks": 32832,
          "time": 17.1,
          "velocity": 0.4881889763779528
        },
        {
          "duration": 0.07500000000000284,
          "durationTicks": 144,
          "midi": 61,
          "name": "C#4",
          "ticks": 33024,
          "time": 17.2,
          "velocity": 0.4881889763779528
        },
        {
          "duration": 0.07499999999999929,
          "durationTicks": 144,
          "midi": 52,
          "name": "E3",
          "ticks": 33216,
          "time": 17.3,
          "velocity": 0.4881889763779528
        },
        {
          "duration": 0.07499999999999929,
          "durationTicks": 144,
          "midi": 61,
          "name": "C#4",
          "ticks": 33408,
          "time": 17.400000000000002,
          "velocity": 0.4881889763779528
        },
        {
          "duration": 0.07499999999999929,
          "durationTicks": 144,
          "midi": 49,
          "name": "C#3",
          "ticks": 33408,
          "time": 17.400000000000002,
          "velocity": 0.4881889763779528
        },
        {
          "duration": 0.07499999999999929,
          "durationTicks": 144,
          "midi": 52,
          "name": "E3",
          "ticks": 33600,
          "time": 17.5,
          "velocity": 0.4881889763779528
        },
        {
          "duration": 0.07499999999999929,
          "durationTicks": 144,
          "midi": 57,
          "name": "A3",
          "ticks": 33792,
          "time": 17.6,
          "velocity": 0.4881889763779528
        },
        {
          "duration": 0.07499999999999929,
          "durationTicks": 144,
          "midi": 45,
          "name": "A2",
          "ticks": 33792,
          "time": 17.6,
          "velocity": 0.4881889763779528
        },
        {
          "duration": 0.07500000000000284,
          "durationTicks": 144,
          "midi": 52,
          "name": "E3",
          "ticks": 33984,
          "time": 17.7,
          "velocity": 0.4881889763779528
        },
        {
          "duration": 0.07499999999999929,
          "durationTicks": 144,
          "midi": 45,
          "name": "A2",
          "ticks": 34176,
          "time": 17.8,
          "velocity": 0.4881889763779528
        },
        {
          "duration": 0.07499999999999929,
          "durationTicks": 144,
          "midi": 57,
          "name": "A3",
          "ticks": 34176,
          "time": 17.8,
          "velocity": 0.4881889763779528
        },
        {
          "duration": 0.07499999999999929,
          "durationTicks": 144,
          "midi": 52,
          "name": "E3",
          "ticks": 34368,
          "time": 17.900000000000002,
          "velocity": 0.4881889763779528
        },
        {
          "duration": 0.07499999999999929,
          "durationTicks": 144,
          "midi": 57,
          "name": "A3",
          "ticks": 34560,
          "time": 18,
          "velocity": 0.4881889763779528
        },
        {
          "duration": 0.07499999999999929,
          "durationTicks": 144,
          "midi": 52,
          "name": "E3",
          "ticks": 34752,
          "time": 18.1,
          "velocity": 0.4881889763779528
        },
        {
          "duration": 0.07500000000000284,
          "durationTicks": 144,
          "midi": 57,
          "name": "A3",
          "ticks": 34944,
          "time": 18.2,
          "velocity": 0.4881889763779528
        },
        {
          "duration": 0.07499999999999929,
          "durationTicks": 144,
          "midi": 52,
          "name": "E3",
          "ticks": 35136,
          "time": 18.3,
          "velocity": 0.4881889763779528
        },
        {
          "duration": 0.07499999999999929,
          "durationTicks": 144,
          "midi": 60,
          "name": "C4",
          "ticks": 35328,
          "time": 18.400000000000002,
          "velocity": 0.4881889763779528
        },
        {
          "duration": 0.07499999999999929,
          "durationTicks": 144,
          "midi": 48,
          "name": "C3",
          "ticks": 35328,
          "time": 18.400000000000002,
          "velocity": 0.4881889763779528
        },
        {
          "duration": 0.07499999999999929,
          "durationTicks": 144,
          "midi": 51,
          "name": "D#3",
          "ticks": 35520,
          "time": 18.5,
          "velocity": 0.4881889763779528
        },
        {
          "duration": 0.07499999999999929,
          "durationTicks": 144,
          "midi": 57,
          "name": "A3",
          "ticks": 35712,
          "time": 18.6,
          "velocity": 0.4881889763779528
        },
        {
          "duration": 0.07500000000000284,
          "durationTicks": 144,
          "midi": 51,
          "name": "D#3",
          "ticks": 35904,
          "time": 18.7,
          "velocity": 0.4881889763779528
        },
        {
          "duration": 0.07499999999999929,
          "durationTicks": 144,
          "midi": 56,
          "name": "G#3",
          "ticks": 36096,
          "time": 18.8,
          "velocity": 0.4881889763779528
        },
        {
          "duration": 0.07499999999999929,
          "durationTicks": 144,
          "midi": 57,
          "name": "A3",
          "ticks": 36288,
          "time": 18.900000000000002,
          "velocity": 0.4881889763779528
        },
        {
          "duration": 0.07499999999999929,
          "durationTicks": 144,
          "midi": 56,
          "name": "G#3",
          "ticks": 36480,
          "time": 19,
          "velocity": 0.4881889763779528
        },
        {
          "duration": 0.07499999999999929,
          "durationTicks": 144,
          "midi": 54,
          "name": "F#3",
          "ticks": 36672,
          "time": 19.1,
          "velocity": 0.4881889763779528
        },
        {
          "duration": 0.07499999999999929,
          "durationTicks": 144,
          "midi": 49,
          "name": "C#3",
          "ticks": 36864,
          "time": 19.200000000000003,
          "velocity": 0.4881889763779528
        },
        {
          "duration": 0.07499999999999929,
          "durationTicks": 144,
          "midi": 61,
          "name": "C#4",
          "ticks": 36864,
          "time": 19.200000000000003,
          "velocity": 0.4881889763779528
        },
        {
          "duration": 0.07499999999999929,
          "durationTicks": 144,
          "midi": 56,
          "name": "G#3",
          "ticks": 37056,
          "time": 19.3,
          "velocity": 0.4881889763779528
        },
        {
          "duration": 0.07499999999999929,
          "durationTicks": 144,
          "midi": 56,
          "name": "G#3",
          "ticks": 37248,
          "time": 19.400000000000002,
          "velocity": 0.4881889763779528
        },
        {
          "duration": 0.07500000000000284,
          "durationTicks": 144,
          "midi": 49,
          "name": "C#3",
          "ticks": 37440,
          "time": 19.5,
          "velocity": 0.4881889763779528
        },
        {
          "duration": 0.07499999999999929,
          "durationTicks": 144,
          "midi": 61,
          "name": "C#4",
          "ticks": 37632,
          "time": 19.6,
          "velocity": 0.4881889763779528
        },
        {
          "duration": 0.07499999999999929,
          "durationTicks": 144,
          "midi": 56,
          "name": "G#3",
          "ticks": 37824,
          "time": 19.700000000000003,
          "velocity": 0.4881889763779528
        },
        {
          "duration": 0.07499999999999929,
          "durationTicks": 144,
          "midi": 52,
          "name": "E3",
          "ticks": 38016,
          "time": 19.8,
          "velocity": 0.4881889763779528
        },
        {
          "duration": 0.07499999999999929,
          "durationTicks": 144,
          "midi": 56,
          "name": "G#3",
          "ticks": 38208,
          "time": 19.900000000000002,
          "velocity": 0.4881889763779528
        },
        {
          "duration": 0.07500000000000284,
          "durationTicks": 144,
          "midi": 61,
          "name": "C#4",
          "ticks": 38400,
          "time": 20,
          "velocity": 0.4881889763779528
        },
        {
          "duration": 0.07500000000000284,
          "durationTicks": 144,
          "midi": 49,
          "name": "C#3",
          "ticks": 38400,
          "time": 20,
          "velocity": 0.4881889763779528
        },
        {
          "duration": 0.07499999999999929,
          "durationTicks": 144,
          "midi": 56,
          "name": "G#3",
          "ticks": 38592,
          "time": 20.1,
          "velocity": 0.4881889763779528
        },
        {
          "duration": 0.07499999999999929,
          "durationTicks": 144,
          "midi": 61,
          "name": "C#4",
          "ticks": 38784,
          "time": 20.200000000000003,
          "velocity": 0.4881889763779528
        },
        {
          "duration": 0.07499999999999929,
          "durationTicks": 144,
          "midi": 49,
          "name": "C#3",
          "ticks": 38784,
          "time": 20.200000000000003,
          "velocity": 0.4881889763779528
        },
        {
          "duration": 0.07499999999999929,
          "durationTicks": 144,
          "midi": 56,
          "name": "G#3",
          "ticks": 38976,
          "time": 20.3,
          "velocity": 0.4881889763779528
        },
        {
          "duration": 0.07499999999999929,
          "durationTicks": 144,
          "midi": 61,
          "name": "C#4",
          "ticks": 39168,
          "time": 20.400000000000002,
          "velocity": 0.4881889763779528
        },
        {
          "duration": 0.07500000000000284,
          "durationTicks": 144,
          "midi": 54,
          "name": "F#3",
          "ticks": 39360,
          "time": 20.5,
          "velocity": 0.4881889763779528
        },
        {
          "duration": 0.07499999999999929,
          "durationTicks": 144,
          "midi": 56,
          "name": "G#3",
          "ticks": 39552,
          "time": 20.6,
          "velocity": 0.4881889763779528
        },
        {
          "duration": 0.07499999999999929,
          "durationTicks": 144,
          "midi": 54,
          "name": "F#3",
          "ticks": 39744,
          "time": 20.700000000000003,
          "velocity": 0.4881889763779528
        },
        {
          "duration": 0.07499999999999929,
          "durationTicks": 144,
          "midi": 48,
          "name": "C3",
          "ticks": 39936,
          "time": 20.8,
          "velocity": 0.4881889763779528
        },
        {
          "duration": 0.07499999999999929,
          "durationTicks": 144,
          "midi": 60,
          "name": "C4",
          "ticks": 39936,
          "time": 20.8,
          "velocity": 0.4881889763779528
        },
        {
          "duration": 0.07499999999999929,
          "durationTicks": 144,
          "midi": 54,
          "name": "F#3",
          "ticks": 40128,
          "time": 20.900000000000002,
          "velocity": 0.4881889763779528
        },
        {
          "duration": 0.07500000000000284,
          "durationTicks": 144,
          "midi": 54,
          "name": "F#3",
          "ticks": 40320,
          "time": 21,
          "velocity": 0.4881889763779528
        },
        {
          "duration": 0.07499999999999929,
          "durationTicks": 144,
          "midi": 48,
          "name": "C3",
          "ticks": 40512,
          "time": 21.1,
          "velocity": 0.4881889763779528
        },
        {
          "duration": 0.07499999999999929,
          "durationTicks": 144,
          "midi": 60,
          "name": "C4",
          "ticks": 40704,
          "time": 21.200000000000003,
          "velocity": 0.4881889763779528
        },
        {
          "duration": 0.07499999999999929,
          "durationTicks": 144,
          "midi": 54,
          "name": "F#3",
          "ticks": 40896,
          "time": 21.3,
          "velocity": 0.4881889763779528
        },
        {
          "duration": 0.07499999999999929,
          "durationTicks": 144,
          "midi": 48,
          "name": "C3",
          "ticks": 41088,
          "time": 21.400000000000002,
          "velocity": 0.4881889763779528
        },
        {
          "duration": 0.07500000000000284,
          "durationTicks": 144,
          "midi": 54,
          "name": "F#3",
          "ticks": 41280,
          "time": 21.5,
          "velocity": 0.4881889763779528
        },
        {
          "duration": 0.07499999999999929,
          "durationTicks": 144,
          "midi": 61,
          "name": "C#4",
          "ticks": 41472,
          "time": 21.6,
          "velocity": 0.4881889763779528
        },
        {
          "duration": 0.07499999999999929,
          "durationTicks": 144,
          "midi": 49,
          "name": "C#3",
          "ticks": 41472,
          "time": 21.6,
          "velocity": 0.4881889763779528
        },
        {
          "duration": 0.07499999999999929,
          "durationTicks": 144,
          "midi": 56,
          "name": "G#3",
          "ticks": 41664,
          "time": 21.700000000000003,
          "velocity": 0.4881889763779528
        },
        {
          "duration": 0.07499999999999929,
          "durationTicks": 144,
          "midi": 49,
          "name": "C#3",
          "ticks": 41856,
          "time": 21.8,
          "velocity": 0.4881889763779528
        },
        {
          "duration": 0.07499999999999929,
          "durationTicks": 144,
          "midi": 61,
          "name": "C#4",
          "ticks": 41856,
          "time": 21.8,
          "velocity": 0.4881889763779528
        },
        {
          "duration": 0.07499999999999929,
          "durationTicks": 144,
          "midi": 56,
          "name": "G#3",
          "ticks": 42048,
          "time": 21.900000000000002,
          "velocity": 0.4881889763779528
        },
        {
          "duration": 0.07500000000000284,
          "durationTicks": 144,
          "midi": 61,
          "name": "C#4",
          "ticks": 42240,
          "time": 22,
          "velocity": 0.4881889763779528
        },
        {
          "duration": 0.07499999999999929,
          "durationTicks": 144,
          "midi": 56,
          "name": "G#3",
          "ticks": 42432,
          "time": 22.1,
          "velocity": 0.4881889763779528
        },
        {
          "duration": 0.07499999999999929,
          "durationTicks": 144,
          "midi": 52,
          "name": "E3",
          "ticks": 42624,
          "time": 22.200000000000003,
          "velocity": 0.4881889763779528
        },
        {
          "duration": 0.07499999999999929,
          "durationTicks": 144,
          "midi": 56,
          "name": "G#3",
          "ticks": 42816,
          "time": 22.3,
          "velocity": 0.4881889763779528
        },
        {
          "duration": 0.07499999999999929,
          "durationTicks": 144,
          "midi": 60,
          "name": "C4",
          "ticks": 43008,
          "time": 22.400000000000002,
          "velocity": 0.4881889763779528
        },
        {
          "duration": 0.07499999999999929,
          "durationTicks": 144,
          "midi": 48,
          "name": "C3",
          "ticks": 43008,
          "time": 22.400000000000002,
          "velocity": 0.4881889763779528
        },
        {
          "duration": 0.07500000000000284,
          "durationTicks": 144,
          "midi": 51,
          "name": "D#3",
          "ticks": 43200,
          "time": 22.5,
          "velocity": 0.4881889763779528
        },
        {
          "duration": 0.07499999999999929,
          "durationTicks": 144,
          "midi": 48,
          "name": "C3",
          "ticks": 43392,
          "time": 22.6,
          "velocity": 0.4881889763779528
        },
        {
          "duration": 0.07499999999999929,
          "durationTicks": 144,
          "midi": 51,
          "name": "D#3",
          "ticks": 43584,
          "time": 22.700000000000003,
          "velocity": 0.4881889763779528
        },
        {
          "duration": 0.07499999999999929,
          "durationTicks": 144,
          "midi": 60,
          "name": "C4",
          "ticks": 43776,
          "time": 22.8,
          "velocity": 0.4881889763779528
        },
        {
          "duration": 0.07499999999999929,
          "durationTicks": 144,
          "midi": 51,
          "name": "D#3",
          "ticks": 43968,
          "time": 22.900000000000002,
          "velocity": 0.4881889763779528
        },
        {
          "duration": 0.07500000000000284,
          "durationTicks": 144,
          "midi": 60,
          "name": "C4",
          "ticks": 44160,
          "time": 23,
          "velocity": 0.4881889763779528
        },
        {
          "duration": 0.07500000000000284,
          "durationTicks": 144,
          "midi": 48,
          "name": "C3",
          "ticks": 44160,
          "time": 23,
          "velocity": 0.4881889763779528
        },
        {
          "duration": 0.07499999999999929,
          "durationTicks": 144,
          "midi": 51,
          "name": "D#3",
          "ticks": 44352,
          "time": 23.1,
          "velocity": 0.4881889763779528
        },
        {
          "duration": 0.07499999999999929,
          "durationTicks": 144,
          "midi": 61,
          "name": "C#4",
          "ticks": 44544,
          "time": 23.200000000000003,
          "velocity": 0.4881889763779528
        },
        {
          "duration": 0.07499999999999929,
          "durationTicks": 144,
          "midi": 49,
          "name": "C#3",
          "ticks": 44544,
          "time": 23.200000000000003,
          "velocity": 0.4881889763779528
        },
        {
          "duration": 0.07499999999999929,
          "durationTicks": 144,
          "midi": 52,
          "name": "E3",
          "ticks": 44736,
          "time": 23.3,
          "velocity": 0.4881889763779528
        },
        {
          "duration": 0.07499999999999929,
          "durationTicks": 144,
          "midi": 61,
          "name": "C#4",
          "ticks": 44928,
          "time": 23.400000000000002,
          "velocity": 0.4881889763779528
        },
        {
          "duration": 0.07499999999999929,
          "durationTicks": 144,
          "midi": 49,
          "name": "C#3",
          "ticks": 44928,
          "time": 23.400000000000002,
          "velocity": 0.4881889763779528
        },
        {
          "duration": 0.07500000000000284,
          "durationTicks": 144,
          "midi": 52,
          "name": "E3",
          "ticks": 45120,
          "time": 23.5,
          "velocity": 0.4881889763779528
        },
        {
          "duration": 0.07499999999999929,
          "durationTicks": 144,
          "midi": 61,
          "name": "C#4",
          "ticks": 45312,
          "time": 23.6,
          "velocity": 0.4881889763779528
        },
        {
          "duration": 0.07499999999999929,
          "durationTicks": 144,
          "midi": 52,
          "name": "E3",
          "ticks": 45504,
          "time": 23.700000000000003,
          "velocity": 0.4881889763779528
        },
        {
          "duration": 0.07499999999999929,
          "durationTicks": 144,
          "midi": 61,
          "name": "C#4",
          "ticks": 45696,
          "time": 23.8,
          "velocity": 0.4881889763779528
        },
        {
          "duration": 0.07499999999999929,
          "durationTicks": 144,
          "midi": 49,
          "name": "C#3",
          "ticks": 45696,
          "time": 23.8,
          "velocity": 0.4881889763779528
        },
        {
          "duration": 0.07499999999999929,
          "durationTicks": 144,
          "midi": 52,
          "name": "E3",
          "ticks": 45888,
          "time": 23.900000000000002,
          "velocity": 0.4881889763779528
        },
        {
          "duration": 0.07500000000000284,
          "durationTicks": 144,
          "midi": 57,
          "name": "A3",
          "ticks": 46080,
          "time": 24,
          "velocity": 0.4881889763779528
        },
        {
          "duration": 0.07500000000000284,
          "durationTicks": 144,
          "midi": 45,
          "name": "A2",
          "ticks": 46080,
          "time": 24,
          "velocity": 0.4881889763779528
        },
        {
          "duration": 0.07499999999999929,
          "durationTicks": 144,
          "midi": 52,
          "name": "E3",
          "ticks": 46272,
          "time": 24.1,
          "velocity": 0.4881889763779528
        },
        {
          "duration": 0.07499999999999929,
          "durationTicks": 144,
          "midi": 45,
          "name": "A2",
          "ticks": 46464,
          "time": 24.200000000000003,
          "velocity": 0.4881889763779528
        },
        {
          "duration": 0.07499999999999929,
          "durationTicks": 144,
          "midi": 57,
          "name": "A3",
          "ticks": 46464,
          "time": 24.200000000000003,
          "velocity": 0.4881889763779528
        },
        {
          "duration": 0.07499999999999929,
          "durationTicks": 144,
          "midi": 52,
          "name": "E3",
          "ticks": 46656,
          "time": 24.3,
          "velocity": 0.4881889763779528
        },
        {
          "duration": 0.07499999999999929,
          "durationTicks": 144,
          "midi": 57,
          "name": "A3",
          "ticks": 46848,
          "time": 24.400000000000002,
          "velocity": 0.4881889763779528
        },
        {
          "duration": 0.07500000000000284,
          "durationTicks": 144,
          "midi": 52,
          "name": "E3",
          "ticks": 47040,
          "time": 24.5,
          "velocity": 0.4881889763779528
        },
        {
          "duration": 0.07499999999999929,
          "durationTicks": 144,
          "midi": 57,
          "name": "A3",
          "ticks": 47232,
          "time": 24.6,
          "velocity": 0.4881889763779528
        },
        {
          "duration": 0.07499999999999929,
          "durationTicks": 144,
          "midi": 52,
          "name": "E3",
          "ticks": 47424,
          "time": 24.700000000000003,
          "velocity": 0.4881889763779528
        },
        {
          "duration": 0.07499999999999929,
          "durationTicks": 144,
          "midi": 60,
          "name": "C4",
          "ticks": 47616,
          "time": 24.8,
          "velocity": 0.4881889763779528
        },
        {
          "duration": 0.07499999999999929,
          "durationTicks": 144,
          "midi": 48,
          "name": "C3",
          "ticks": 47616,
          "time": 24.8,
          "velocity": 0.4881889763779528
        },
        {
          "duration": 0.07499999999999929,
          "durationTicks": 144,
          "midi": 51,
          "name": "D#3",
          "ticks": 47808,
          "time": 24.900000000000002,
          "velocity": 0.4881889763779528
        },
        {
          "duration": 0.07500000000000284,
          "durationTicks": 144,
          "midi": 57,
          "name": "A3",
          "ticks": 48000,
          "time": 25,
          "velocity": 0.4881889763779528
        },
        {
          "duration": 0.07499999999999929,
          "durationTicks": 144,
          "midi": 51,
          "name": "D#3",
          "ticks": 48192,
          "time": 25.1,
          "velocity": 0.4881889763779528
        },
        {
          "duration": 0.07499999999999929,
          "durationTicks": 144,
          "midi": 49,
          "name": "C#3",
          "ticks": 48384,
          "time": 25.200000000000003,
          "velocity": 0.4881889763779528
        },
        {
          "duration": 0.07499999999999929,
          "durationTicks": 144,
          "midi": 47,
          "name": "B2",
          "ticks": 48576,
          "time": 25.3,
          "velocity": 0.4881889763779528
        },
        {
          "duration": 0.07499999999999929,
          "durationTicks": 144,
          "midi": 44,
          "name": "G#2",
          "ticks": 48768,
          "time": 25.400000000000002,
          "velocity": 0.4881889763779528
        },
        {
          "duration": 0.07500000000000284,
          "durationTicks": 144,
          "midi": 42,
          "name": "F#2",
          "ticks": 48960,
          "time": 25.5,
          "velocity": 0.4881889763779528
        },
        {
          "duration": 0.07499999999999929,
          "durationTicks": 144,
          "midi": 45,
          "name": "A2",
          "ticks": 49152,
          "time": 25.6,
          "velocity": 0.4881889763779528
        },
        {
          "duration": 0.07499999999999929,
          "durationTicks": 144,
          "midi": 40,
          "name": "E2",
          "ticks": 49344,
          "time": 25.700000000000003,
          "velocity": 0.4881889763779528
        },
        {
          "duration": 0.1750000000000007,
          "durationTicks": 336,
          "midi": 57,
          "name": "A3",
          "ticks": 49536,
          "time": 25.8,
          "velocity": 0.4881889763779528
        },
        {
          "duration": 0.07499999999999929,
          "durationTicks": 144,
          "midi": 45,
          "name": "A2",
          "ticks": 49536,
          "time": 25.8,
          "velocity": 0.4881889763779528
        },
        {
          "duration": 0.07499999999999929,
          "durationTicks": 144,
          "midi": 40,
          "name": "E2",
          "ticks": 49728,
          "time": 25.900000000000002,
          "velocity": 0.4881889763779528
        },
        {
          "duration": 0.07500000000000284,
          "durationTicks": 144,
          "midi": 45,
          "name": "A2",
          "ticks": 49920,
          "time": 26,
          "velocity": 0.4881889763779528
        },
        {
          "duration": 0.07500000000000284,
          "durationTicks": 144,
          "midi": 56,
          "name": "G#3",
          "ticks": 49920,
          "time": 26,
          "velocity": 0.4881889763779528
        },
        {
          "duration": 0.07499999999999929,
          "durationTicks": 144,
          "midi": 54,
          "name": "F#3",
          "ticks": 50112,
          "time": 26.1,
          "velocity": 0.4881889763779528
        },
        {
          "duration": 0.07499999999999929,
          "durationTicks": 144,
          "midi": 52,
          "name": "E3",
          "ticks": 50304,
          "time": 26.200000000000003,
          "velocity": 0.4881889763779528
        },
        {
          "duration": 0.07499999999999929,
          "durationTicks": 144,
          "midi": 57,
          "name": "A3",
          "ticks": 50304,
          "time": 26.200000000000003,
          "velocity": 0.4881889763779528
        },
        {
          "duration": 0.07499999999999929,
          "durationTicks": 144,
          "midi": 49,
          "name": "C#3",
          "ticks": 50496,
          "time": 26.3,
          "velocity": 0.4881889763779528
        },
        {
          "duration": 0.07499999999999929,
          "durationTicks": 144,
          "midi": 45,
          "name": "A2",
          "ticks": 50688,
          "time": 26.400000000000002,
          "velocity": 0.4881889763779528
        },
        {
          "duration": 0.07500000000000284,
          "durationTicks": 144,
          "midi": 40,
          "name": "E2",
          "ticks": 50880,
          "time": 26.5,
          "velocity": 0.4881889763779528
        },
        {
          "duration": 0.1750000000000007,
          "durationTicks": 336,
          "midi": 57,
          "name": "A3",
          "ticks": 51072,
          "time": 26.6,
          "velocity": 0.4881889763779528
        },
        {
          "duration": 0.07499999999999929,
          "durationTicks": 144,
          "midi": 45,
          "name": "A2",
          "ticks": 51072,
          "time": 26.6,
          "velocity": 0.4881889763779528
        },
        {
          "duration": 0.07499999999999929,
          "durationTicks": 144,
          "midi": 40,
          "name": "E2",
          "ticks": 51264,
          "time": 26.700000000000003,
          "velocity": 0.4881889763779528
        },
        {
          "duration": 0.07499999999999929,
          "durationTicks": 144,
          "midi": 45,
          "name": "A2",
          "ticks": 51456,
          "time": 26.8,
          "velocity": 0.4881889763779528
        },
        {
          "duration": 0.07499999999999929,
          "durationTicks": 144,
          "midi": 56,
          "name": "G#3",
          "ticks": 51456,
          "time": 26.8,
          "velocity": 0.4881889763779528
        },
        {
          "duration": 0.07499999999999929,
          "durationTicks": 144,
          "midi": 54,
          "name": "F#3",
          "ticks": 51648,
          "time": 26.900000000000002,
          "velocity": 0.4881889763779528
        },
        {
          "duration": 0.07500000000000284,
          "durationTicks": 144,
          "midi": 52,
          "name": "E3",
          "ticks": 51840,
          "time": 27,
          "velocity": 0.4881889763779528
        },
        {
          "duration": 0.07500000000000284,
          "durationTicks": 144,
          "midi": 57,
          "name": "A3",
          "ticks": 51840,
          "time": 27,
          "velocity": 0.4881889763779528
        },
        {
          "duration": 0.07499999999999929,
          "durationTicks": 144,
          "midi": 49,
          "name": "C#3",
          "ticks": 52032,
          "time": 27.1,
          "velocity": 0.4881889763779528
        },
        {
          "duration": 0.07499999999999929,
          "durationTicks": 144,
          "midi": 44,
          "name": "G#2",
          "ticks": 52224,
          "time": 27.200000000000003,
          "velocity": 0.4881889763779528
        },
        {
          "duration": 0.07499999999999929,
          "durationTicks": 144,
          "midi": 39,
          "name": "D#2",
          "ticks": 52416,
          "time": 27.3,
          "velocity": 0.4881889763779528
        },
        {
          "duration": 0.1750000000000007,
          "durationTicks": 336,
          "midi": 56,
          "name": "G#3",
          "ticks": 52608,
          "time": 27.400000000000002,
          "velocity": 0.4881889763779528
        },
        {
          "duration": 0.07499999999999929,
          "durationTicks": 144,
          "midi": 44,
          "name": "G#2",
          "ticks": 52608,
          "time": 27.400000000000002,
          "velocity": 0.4881889763779528
        },
        {
          "duration": 0.07500000000000284,
          "durationTicks": 144,
          "midi": 39,
          "name": "D#2",
          "ticks": 52800,
          "time": 27.5,
          "velocity": 0.4881889763779528
        },
        {
          "duration": 0.07499999999999929,
          "durationTicks": 144,
          "midi": 54,
          "name": "F#3",
          "ticks": 52992,
          "time": 27.6,
          "velocity": 0.4881889763779528
        },
        {
          "duration": 0.07499999999999929,
          "durationTicks": 144,
          "midi": 44,
          "name": "G#2",
          "ticks": 52992,
          "time": 27.6,
          "velocity": 0.4881889763779528
        },
        {
          "duration": 0.07499999999999929,
          "durationTicks": 144,
          "midi": 52,
          "name": "E3",
          "ticks": 53184,
          "time": 27.700000000000003,
          "velocity": 0.4881889763779528
        },
        {
          "duration": 0.07499999999999929,
          "durationTicks": 144,
          "midi": 51,
          "name": "D#3",
          "ticks": 53376,
          "time": 27.8,
          "velocity": 0.4881889763779528
        },
        {
          "duration": 0.07499999999999929,
          "durationTicks": 144,
          "midi": 56,
          "name": "G#3",
          "ticks": 53376,
          "time": 27.8,
          "velocity": 0.4881889763779528
        },
        {
          "duration": 0.07499999999999929,
          "durationTicks": 144,
          "midi": 48,
          "name": "C3",
          "ticks": 53568,
          "time": 27.900000000000002,
          "velocity": 0.4881889763779528
        },
        {
          "duration": 0.07500000000000284,
          "durationTicks": 144,
          "midi": 44,
          "name": "G#2",
          "ticks": 53760,
          "time": 28,
          "velocity": 0.4881889763779528
        },
        {
          "duration": 0.07499999999999929,
          "durationTicks": 144,
          "midi": 39,
          "name": "D#2",
          "ticks": 53952,
          "time": 28.1,
          "velocity": 0.4881889763779528
        },
        {
          "duration": 0.07499999999999929,
          "durationTicks": 144,
          "midi": 44,
          "name": "G#2",
          "ticks": 54144,
          "time": 28.200000000000003,
          "velocity": 0.4881889763779528
        },
        {
          "duration": 0.17499999999999716,
          "durationTicks": 336,
          "midi": 56,
          "name": "G#3",
          "ticks": 54144,
          "time": 28.200000000000003,
          "velocity": 0.4881889763779528
        },
        {
          "duration": 0.07499999999999929,
          "durationTicks": 144,
          "midi": 39,
          "name": "D#2",
          "ticks": 54336,
          "time": 28.3,
          "velocity": 0.4881889763779528
        },
        {
          "duration": 0.07499999999999929,
          "durationTicks": 144,
          "midi": 44,
          "name": "G#2",
          "ticks": 54528,
          "time": 28.400000000000002,
          "velocity": 0.4881889763779528
        },
        {
          "duration": 0.07499999999999929,
          "durationTicks": 144,
          "midi": 54,
          "name": "F#3",
          "ticks": 54528,
          "time": 28.400000000000002,
          "velocity": 0.4881889763779528
        },
        {
          "duration": 0.07500000000000284,
          "durationTicks": 144,
          "midi": 52,
          "name": "E3",
          "ticks": 54720,
          "time": 28.5,
          "velocity": 0.4881889763779528
        },
        {
          "duration": 0.07499999999999929,
          "durationTicks": 144,
          "midi": 56,
          "name": "G#3",
          "ticks": 54912,
          "time": 28.6,
          "velocity": 0.4881889763779528
        },
        {
          "duration": 0.07499999999999929,
          "durationTicks": 144,
          "midi": 51,
          "name": "D#3",
          "ticks": 54912,
          "time": 28.6,
          "velocity": 0.4881889763779528
        },
        {
          "duration": 0.07499999999999929,
          "durationTicks": 144,
          "midi": 48,
          "name": "C3",
          "ticks": 55104,
          "time": 28.700000000000003,
          "velocity": 0.4881889763779528
        },
        {
          "duration": 0.07499999999999929,
          "durationTicks": 144,
          "midi": 42,
          "name": "F#2",
          "ticks": 55296,
          "time": 28.8,
          "velocity": 0.4881889763779528
        },
        {
          "duration": 0.07499999999999929,
          "durationTicks": 144,
          "midi": 45,
          "name": "A2",
          "ticks": 55488,
          "time": 28.900000000000002,
          "velocity": 0.4881889763779528
        },
        {
          "duration": 0.07499999999999929,
          "durationTicks": 144,
          "midi": 61,
          "name": "C#4",
          "ticks": 55488,
          "time": 28.900000000000002,
          "velocity": 0.4881889763779528
        },
        {
          "duration": 0.07500000000000284,
          "durationTicks": 144,
          "midi": 42,
          "name": "F#2",
          "ticks": 55680,
          "time": 29,
          "velocity": 0.4881889763779528
        },
        {
          "duration": 0.07499999999999929,
          "durationTicks": 144,
          "midi": 57,
          "name": "A3",
          "ticks": 55872,
          "time": 29.1,
          "velocity": 0.4881889763779528
        },
        {
          "duration": 0.07499999999999929,
          "durationTicks": 144,
          "midi": 45,
          "name": "A2",
          "ticks": 55872,
          "time": 29.1,
          "velocity": 0.4881889763779528
        },
        {
          "duration": 0.07499999999999929,
          "durationTicks": 144,
          "midi": 42,
          "name": "F#2",
          "ticks": 56064,
          "time": 29.200000000000003,
          "velocity": 0.4881889763779528
        },
        {
          "duration": 0.17499999999999716,
          "durationTicks": 336,
          "midi": 49,
          "name": "C#3",
          "ticks": 56064,
          "time": 29.200000000000003,
          "velocity": 0.4881889763779528
        },
        {
          "duration": 0.07499999999999929,
          "durationTicks": 144,
          "midi": 61,
          "name": "C#4",
          "ticks": 56256,
          "time": 29.3,
          "velocity": 0.4881889763779528
        },
        {
          "duration": 0.07499999999999929,
          "durationTicks": 144,
          "midi": 45,
          "name": "A2",
          "ticks": 56256,
          "time": 29.3,
          "velocity": 0.4881889763779528
        },
        {
          "duration": 0.07499999999999929,
          "durationTicks": 144,
          "midi": 45,
          "name": "A2",
          "ticks": 56448,
          "time": 29.400000000000002,
          "velocity": 0.4881889763779528
        },
        {
          "duration": 0.7749999999999986,
          "durationTicks": 1488,
          "midi": 54,
          "name": "F#3",
          "ticks": 56448,
          "time": 29.400000000000002,
          "velocity": 0.4881889763779528
        },
        {
          "duration": 0.07500000000000284,
          "durationTicks": 144,
          "midi": 57,
          "name": "A3",
          "ticks": 56640,
          "time": 29.5,
          "velocity": 0.4881889763779528
        },
        {
          "duration": 0.07500000000000284,
          "durationTicks": 144,
          "midi": 45,
          "name": "A2",
          "ticks": 56640,
          "time": 29.5,
          "velocity": 0.4881889763779528
        },
        {
          "duration": 0.07499999999999929,
          "durationTicks": 144,
          "midi": 42,
          "name": "F#2",
          "ticks": 56832,
          "time": 29.6,
          "velocity": 0.4881889763779528
        },
        {
          "duration": 0.07499999999999929,
          "durationTicks": 144,
          "midi": 45,
          "name": "A2",
          "ticks": 57024,
          "time": 29.700000000000003,
          "velocity": 0.4881889763779528
        },
        {
          "duration": 0.07499999999999929,
          "durationTicks": 144,
          "midi": 42,
          "name": "F#2",
          "ticks": 57216,
          "time": 29.8,
          "velocity": 0.4881889763779528
        },
        {
          "duration": 0.07499999999999929,
          "durationTicks": 144,
          "midi": 45,
          "name": "A2",
          "ticks": 57408,
          "time": 29.900000000000002,
          "velocity": 0.4881889763779528
        },
        {
          "duration": 0.07500000000000284,
          "durationTicks": 144,
          "midi": 45,
          "name": "A2",
          "ticks": 57600,
          "time": 30,
          "velocity": 0.4881889763779528
        },
        {
          "duration": 0.07500000000000284,
          "durationTicks": 144,
          "midi": 42,
          "name": "F#2",
          "ticks": 57600,
          "time": 30,
          "velocity": 0.4881889763779528
        },
        {
          "duration": 0.07499999999999929,
          "durationTicks": 144,
          "midi": 45,
          "name": "A2",
          "ticks": 57792,
          "time": 30.1,
          "velocity": 0.4881889763779528
        },
        {
          "duration": 0.07499999999999929,
          "durationTicks": 144,
          "midi": 49,
          "name": "C#3",
          "ticks": 57984,
          "time": 30.200000000000003,
          "velocity": 0.4881889763779528
        },
        {
          "duration": 0.07499999999999929,
          "durationTicks": 144,
          "midi": 42,
          "name": "F#2",
          "ticks": 58176,
          "time": 30.3,
          "velocity": 0.4881889763779528
        },
        {
          "duration": 0.4250000000000007,
          "durationTicks": 816,
          "midi": 52,
          "name": "E3",
          "ticks": 58176,
          "time": 30.3,
          "velocity": 0.4881889763779528
        },
        {
          "duration": 0.07499999999999929,
          "durationTicks": 144,
          "midi": 40,
          "name": "E2",
          "ticks": 58368,
          "time": 30.400000000000002,
          "velocity": 0.4881889763779528
        },
        {
          "duration": 0.07500000000000284,
          "durationTicks": 144,
          "midi": 42,
          "name": "F#2",
          "ticks": 58560,
          "time": 30.5,
          "velocity": 0.4881889763779528
        },
        {
          "duration": 0.07499999999999929,
          "durationTicks": 144,
          "midi": 40,
          "name": "E2",
          "ticks": 58752,
          "time": 30.6,
          "velocity": 0.4881889763779528
        },
        {
          "duration": 0.07499999999999929,
          "durationTicks": 144,
          "midi": 42,
          "name": "F#2",
          "ticks": 58944,
          "time": 30.700000000000003,
          "velocity": 0.4881889763779528
        },
        {
          "duration": 0.07499999999999929,
          "durationTicks": 144,
          "midi": 40,
          "name": "E2",
          "ticks": 59136,
          "time": 30.8,
          "velocity": 0.4881889763779528
        },
        {
          "duration": 0.07499999999999929,
          "durationTicks": 144,
          "midi": 52,
          "name": "E3",
          "ticks": 59136,
          "time": 30.8,
          "velocity": 0.4881889763779528
        },
        {
          "duration": 0.07499999999999929,
          "durationTicks": 144,
          "midi": 42,
          "name": "F#2",
          "ticks": 59328,
          "time": 30.900000000000002,
          "velocity": 0.4881889763779528
        },
        {
          "duration": 0.07500000000000284,
          "durationTicks": 144,
          "midi": 54,
          "name": "F#3",
          "ticks": 59520,
          "time": 31,
          "velocity": 0.4881889763779528
        },
        {
          "duration": 0.07500000000000284,
          "durationTicks": 144,
          "midi": 52,
          "name": "E3",
          "ticks": 59520,
          "time": 31,
          "velocity": 0.4881889763779528
        },
        {
          "duration": 0.07499999999999929,
          "durationTicks": 144,
          "midi": 42,
          "name": "F#2",
          "ticks": 59712,
          "time": 31.1,
          "velocity": 0.4881889763779528
        },
        {
          "duration": 0.07499999999999929,
          "durationTicks": 144,
          "midi": 44,
          "name": "G#2",
          "ticks": 59904,
          "time": 31.200000000000003,
          "velocity": 0.4881889763779528
        },
        {
          "duration": 0.07499999999999929,
          "durationTicks": 144,
          "midi": 47,
          "name": "B2",
          "ticks": 60096,
          "time": 31.3,
          "velocity": 0.4881889763779528
        },
        {
          "duration": 0.07499999999999929,
          "durationTicks": 144,
          "midi": 55,
          "name": "G3",
          "ticks": 60288,
          "time": 31.400000000000002,
          "velocity": 0.4881889763779528
        },
        {
          "duration": 0.07499999999999929,
          "durationTicks": 144,
          "midi": 40,
          "name": "E2",
          "ticks": 60288,
          "time": 31.400000000000002,
          "velocity": 0.4881889763779528
        },
        {
          "duration": 0.07500000000000284,
          "durationTicks": 144,
          "midi": 44,
          "name": "G#2",
          "ticks": 60480,
          "time": 31.5,
          "velocity": 0.4881889763779528
        },
        {
          "duration": 0.07499999999999929,
          "durationTicks": 144,
          "midi": 42,
          "name": "F#2",
          "ticks": 60672,
          "time": 31.6,
          "velocity": 0.4881889763779528
        },
        {
          "duration": 0.07499999999999929,
          "durationTicks": 144,
          "midi": 44,
          "name": "G#2",
          "ticks": 60864,
          "time": 31.700000000000003,
          "velocity": 0.4881889763779528
        },
        {
          "duration": 0.07499999999999929,
          "durationTicks": 144,
          "midi": 40,
          "name": "E2",
          "ticks": 61056,
          "time": 31.8,
          "velocity": 0.4881889763779528
        },
        {
          "duration": 0.07499999999999929,
          "durationTicks": 144,
          "midi": 53,
          "name": "F3",
          "ticks": 61056,
          "time": 31.8,
          "velocity": 0.4881889763779528
        },
        {
          "duration": 0.07499999999999929,
          "durationTicks": 144,
          "midi": 42,
          "name": "F#2",
          "ticks": 61248,
          "time": 31.900000000000002,
          "velocity": 0.4881889763779528
        },
        {
          "duration": 0.07500000000000284,
          "durationTicks": 144,
          "midi": 45,
          "name": "A2",
          "ticks": 61440,
          "time": 32,
          "velocity": 0.4881889763779528
        },
        {
          "duration": 0.07500000000000284,
          "durationTicks": 144,
          "midi": 40,
          "name": "E2",
          "ticks": 61632,
          "time": 32.1,
          "velocity": 0.4881889763779528
        },
        {
          "duration": 0.17499999999999716,
          "durationTicks": 336,
          "midi": 57,
          "name": "A3",
          "ticks": 61824,
          "time": 32.2,
          "velocity": 0.4881889763779528
        },
        {
          "duration": 0.07499999999999574,
          "durationTicks": 144,
          "midi": 45,
          "name": "A2",
          "ticks": 61824,
          "time": 32.2,
          "velocity": 0.4881889763779528
        },
        {
          "duration": 0.07499999999999574,
          "durationTicks": 144,
          "midi": 40,
          "name": "E2",
          "ticks": 62016,
          "time": 32.300000000000004,
          "velocity": 0.4881889763779528
        },
        {
          "duration": 0.07500000000000284,
          "durationTicks": 144,
          "midi": 45,
          "name": "A2",
          "ticks": 62208,
          "time": 32.4,
          "velocity": 0.4881889763779528
        },
        {
          "duration": 0.07500000000000284,
          "durationTicks": 144,
          "midi": 56,
          "name": "G#3",
          "ticks": 62208,
          "time": 32.4,
          "velocity": 0.4881889763779528
        },
        {
          "duration": 0.07500000000000284,
          "durationTicks": 144,
          "midi": 54,
          "name": "F#3",
          "ticks": 62400,
          "time": 32.5,
          "velocity": 0.4881889763779528
        },
        {
          "duration": 0.07500000000000284,
          "durationTicks": 144,
          "midi": 52,
          "name": "E3",
          "ticks": 62592,
          "time": 32.6,
          "velocity": 0.4881889763779528
        },
        {
          "duration": 0.07500000000000284,
          "durationTicks": 144,
          "midi": 57,
          "name": "A3",
          "ticks": 62592,
          "time": 32.6,
          "velocity": 0.4881889763779528
        },
        {
          "duration": 0.07499999999999574,
          "durationTicks": 144,
          "midi": 49,
          "name": "C#3",
          "ticks": 62784,
          "time": 32.7,
          "velocity": 0.4881889763779528
        },
        {
          "duration": 0.07499999999999574,
          "durationTicks": 144,
          "midi": 45,
          "name": "A2",
          "ticks": 62976,
          "time": 32.800000000000004,
          "velocity": 0.4881889763779528
        },
        {
          "duration": 0.07500000000000284,
          "durationTicks": 144,
          "midi": 40,
          "name": "E2",
          "ticks": 63168,
          "time": 32.9,
          "velocity": 0.4881889763779528
        },
        {
          "duration": 0.17500000000000426,
          "durationTicks": 336,
          "midi": 57,
          "name": "A3",
          "ticks": 63360,
          "time": 33,
          "velocity": 0.4881889763779528
        },
        {
          "duration": 0.07500000000000284,
          "durationTicks": 144,
          "midi": 45,
          "name": "A2",
          "ticks": 63360,
          "time": 33,
          "velocity": 0.4881889763779528
        },
        {
          "duration": 0.07500000000000284,
          "durationTicks": 144,
          "midi": 40,
          "name": "E2",
          "ticks": 63552,
          "time": 33.1,
          "velocity": 0.4881889763779528
        },
        {
          "duration": 0.07499999999999574,
          "durationTicks": 144,
          "midi": 56,
          "name": "G#3",
          "ticks": 63744,
          "time": 33.2,
          "velocity": 0.4881889763779528
        },
        {
          "duration": 0.07499999999999574,
          "durationTicks": 144,
          "midi": 45,
          "name": "A2",
          "ticks": 63744,
          "time": 33.2,
          "velocity": 0.4881889763779528
        },
        {
          "duration": 0.07499999999999574,
          "durationTicks": 144,
          "midi": 54,
          "name": "F#3",
          "ticks": 63936,
          "time": 33.300000000000004,
          "velocity": 0.4881889763779528
        },
        {
          "duration": 0.07500000000000284,
          "durationTicks": 144,
          "midi": 57,
          "name": "A3",
          "ticks": 64128,
          "time": 33.4,
          "velocity": 0.4881889763779528
        },
        {
          "duration": 0.07500000000000284,
          "durationTicks": 144,
          "midi": 52,
          "name": "E3",
          "ticks": 64128,
          "time": 33.4,
          "velocity": 0.4881889763779528
        },
        {
          "duration": 0.07500000000000284,
          "durationTicks": 144,
          "midi": 49,
          "name": "C#3",
          "ticks": 64320,
          "time": 33.5,
          "velocity": 0.4881889763779528
        },
        {
          "duration": 0.07500000000000284,
          "durationTicks": 144,
          "midi": 44,
          "name": "G#2",
          "ticks": 64512,
          "time": 33.6,
          "velocity": 0.4881889763779528
        },
        {
          "duration": 0.07499999999999574,
          "durationTicks": 144,
          "midi": 39,
          "name": "D#2",
          "ticks": 64704,
          "time": 33.7,
          "velocity": 0.4881889763779528
        },
        {
          "duration": 0.17499999999999716,
          "durationTicks": 336,
          "midi": 56,
          "name": "G#3",
          "ticks": 64896,
          "time": 33.800000000000004,
          "velocity": 0.4881889763779528
        },
        {
          "duration": 0.07499999999999574,
          "durationTicks": 144,
          "midi": 44,
          "name": "G#2",
          "ticks": 64896,
          "time": 33.800000000000004,
          "velocity": 0.4881889763779528
        },
        {
          "duration": 0.07500000000000284,
          "durationTicks": 144,
          "midi": 39,
          "name": "D#2",
          "ticks": 65088,
          "time": 33.9,
          "velocity": 0.4881889763779528
        },
        {
          "duration": 0.07500000000000284,
          "durationTicks": 144,
          "midi": 44,
          "name": "G#2",
          "ticks": 65280,
          "time": 34,
          "velocity": 0.4881889763779528
        },
        {
          "duration": 0.07500000000000284,
          "durationTicks": 144,
          "midi": 54,
          "name": "F#3",
          "ticks": 65280,
          "time": 34,
          "velocity": 0.4881889763779528
        },
        {
          "duration": 0.07500000000000284,
          "durationTicks": 144,
          "midi": 52,
          "name": "E3",
          "ticks": 65472,
          "time": 34.1,
          "velocity": 0.4881889763779528
        },
        {
          "duration": 0.07499999999999574,
          "durationTicks": 144,
          "midi": 56,
          "name": "G#3",
          "ticks": 65664,
          "time": 34.2,
          "velocity": 0.4881889763779528
        },
        {
          "duration": 0.07499999999999574,
          "durationTicks": 144,
          "midi": 51,
          "name": "D#3",
          "ticks": 65664,
          "time": 34.2,
          "velocity": 0.4881889763779528
        },
        {
          "duration": 0.07499999999999574,
          "durationTicks": 144,
          "midi": 48,
          "name": "C3",
          "ticks": 65856,
          "time": 34.300000000000004,
          "velocity": 0.4881889763779528
        },
        {
          "duration": 0.07500000000000284,
          "durationTicks": 144,
          "midi": 44,
          "name": "G#2",
          "ticks": 66048,
          "time": 34.4,
          "velocity": 0.4881889763779528
        },
        {
          "duration": 0.07500000000000284,
          "durationTicks": 144,
          "midi": 39,
          "name": "D#2",
          "ticks": 66240,
          "time": 34.5,
          "velocity": 0.4881889763779528
        },
        {
          "duration": 0.17499999999999716,
          "durationTicks": 336,
          "midi": 56,
          "name": "G#3",
          "ticks": 66432,
          "time": 34.6,
          "velocity": 0.4881889763779528
        },
        {
          "duration": 0.07500000000000284,
          "durationTicks": 144,
          "midi": 44,
          "name": "G#2",
          "ticks": 66432,
          "time": 34.6,
          "velocity": 0.4881889763779528
        },
        {
          "duration": 0.07499999999999574,
          "durationTicks": 144,
          "midi": 39,
          "name": "D#2",
          "ticks": 66624,
          "time": 34.7,
          "velocity": 0.4881889763779528
        },
        {
          "duration": 0.07499999999999574,
          "durationTicks": 144,
          "midi": 44,
          "name": "G#2",
          "ticks": 66816,
          "time": 34.800000000000004,
          "velocity": 0.4881889763779528
        },
        {
          "duration": 0.07499999999999574,
          "durationTicks": 144,
          "midi": 54,
          "name": "F#3",
          "ticks": 66816,
          "time": 34.800000000000004,
          "velocity": 0.4881889763779528
        },
        {
          "duration": 0.07500000000000284,
          "durationTicks": 144,
          "midi": 52,
          "name": "E3",
          "ticks": 67008,
          "time": 34.9,
          "velocity": 0.4881889763779528
        },
        {
          "duration": 0.07500000000000284,
          "durationTicks": 144,
          "midi": 56,
          "name": "G#3",
          "ticks": 67200,
          "time": 35,
          "velocity": 0.4881889763779528
        },
        {
          "duration": 0.07500000000000284,
          "durationTicks": 144,
          "midi": 51,
          "name": "D#3",
          "ticks": 67200,
          "time": 35,
          "velocity": 0.4881889763779528
        },
        {
          "duration": 0.07500000000000284,
          "durationTicks": 144,
          "midi": 48,
          "name": "C3",
          "ticks": 67392,
          "time": 35.1,
          "velocity": 0.4881889763779528
        },
        {
          "duration": 0.07499999999999574,
          "durationTicks": 144,
          "midi": 42,
          "name": "F#2",
          "ticks": 67584,
          "time": 35.2,
          "velocity": 0.4881889763779528
        },
        {
          "duration": 0.07499999999999574,
          "durationTicks": 144,
          "midi": 61,
          "name": "C#4",
          "ticks": 67776,
          "time": 35.300000000000004,
          "velocity": 0.4881889763779528
        },
        {
          "duration": 0.07499999999999574,
          "durationTicks": 144,
          "midi": 45,
          "name": "A2",
          "ticks": 67776,
          "time": 35.300000000000004,
          "velocity": 0.4881889763779528
        },
        {
          "duration": 0.07500000000000284,
          "durationTicks": 144,
          "midi": 42,
          "name": "F#2",
          "ticks": 67968,
          "time": 35.4,
          "velocity": 0.4881889763779528
        },
        {
          "duration": 0.07500000000000284,
          "durationTicks": 144,
          "midi": 57,
          "name": "A3",
          "ticks": 68160,
          "time": 35.5,
          "velocity": 0.4881889763779528
        },
        {
          "duration": 0.07500000000000284,
          "durationTicks": 144,
          "midi": 45,
          "name": "A2",
          "ticks": 68160,
          "time": 35.5,
          "velocity": 0.4881889763779528
        },
        {
          "duration": 0.07500000000000284,
          "durationTicks": 144,
          "midi": 49,
          "name": "C#3",
          "ticks": 68352,
          "time": 35.6,
          "velocity": 0.4881889763779528
        },
        {
          "duration": 0.07500000000000284,
          "durationTicks": 144,
          "midi": 42,
          "name": "F#2",
          "ticks": 68352,
          "time": 35.6,
          "velocity": 0.4881889763779528
        },
        {
          "duration": 0.07499999999999574,
          "durationTicks": 144,
          "midi": 61,
          "name": "C#4",
          "ticks": 68544,
          "time": 35.7,
          "velocity": 0.4881889763779528
        },
        {
          "duration": 0.07499999999999574,
          "durationTicks": 144,
          "midi": 45,
          "name": "A2",
          "ticks": 68544,
          "time": 35.7,
          "velocity": 0.4881889763779528
        },
        {
          "duration": 0.07499999999999574,
          "durationTicks": 144,
          "midi": 45,
          "name": "A2",
          "ticks": 68736,
          "time": 35.800000000000004,
          "velocity": 0.4881889763779528
        },
        {
          "duration": 0.07499999999999574,
          "durationTicks": 144,
          "midi": 54,
          "name": "F#3",
          "ticks": 68736,
          "time": 35.800000000000004,
          "velocity": 0.4881889763779528
        },
        {
          "duration": 0.07500000000000284,
          "durationTicks": 144,
          "midi": 45,
          "name": "A2",
          "ticks": 68928,
          "time": 35.9,
          "velocity": 0.4881889763779528
        },
        {
          "duration": 0.07500000000000284,
          "durationTicks": 144,
          "midi": 57,
          "name": "A3",
          "ticks": 68928,
          "time": 35.9,
          "velocity": 0.4881889763779528
        },
        {
          "duration": 0.07500000000000284,
          "durationTicks": 144,
          "midi": 42,
          "name": "F#2",
          "ticks": 69120,
          "time": 36,
          "velocity": 0.4881889763779528
        },
        {
          "duration": 0.07500000000000284,
          "durationTicks": 144,
          "midi": 45,
          "name": "A2",
          "ticks": 69312,
          "time": 36.1,
          "velocity": 0.4881889763779528
        },
        {
          "duration": 0.07500000000000284,
          "durationTicks": 144,
          "midi": 57,
          "name": "A3",
          "ticks": 69312,
          "time": 36.1,
          "velocity": 0.4881889763779528
        },
        {
          "duration": 0.07499999999999574,
          "durationTicks": 144,
          "midi": 42,
          "name": "F#2",
          "ticks": 69504,
          "time": 36.2,
          "velocity": 0.4881889763779528
        },
        {
          "duration": 0.07499999999999574,
          "durationTicks": 144,
          "midi": 45,
          "name": "A2",
          "ticks": 69696,
          "time": 36.300000000000004,
          "velocity": 0.4881889763779528
        },
        {
          "duration": 0.07499999999999574,
          "durationTicks": 144,
          "midi": 57,
          "name": "A3",
          "ticks": 69696,
          "time": 36.300000000000004,
          "velocity": 0.4881889763779528
        },
        {
          "duration": 0.07500000000000284,
          "durationTicks": 144,
          "midi": 45,
          "name": "A2",
          "ticks": 69888,
          "time": 36.4,
          "velocity": 0.4881889763779528
        },
        {
          "duration": 0.07500000000000284,
          "durationTicks": 144,
          "midi": 42,
          "name": "F#2",
          "ticks": 69888,
          "time": 36.4,
          "velocity": 0.4881889763779528
        },
        {
          "duration": 0.07500000000000284,
          "durationTicks": 144,
          "midi": 45,
          "name": "A2",
          "ticks": 70080,
          "time": 36.5,
          "velocity": 0.4881889763779528
        },
        {
          "duration": 0.07500000000000284,
          "durationTicks": 144,
          "midi": 57,
          "name": "A3",
          "ticks": 70080,
          "time": 36.5,
          "velocity": 0.4881889763779528
        },
        {
          "duration": 0.07500000000000284,
          "durationTicks": 144,
          "midi": 54,
          "name": "F#3",
          "ticks": 70272,
          "time": 36.6,
          "velocity": 0.4881889763779528
        },
        {
          "duration": 0.07500000000000284,
          "durationTicks": 144,
          "midi": 49,
          "name": "C#3",
          "ticks": 70272,
          "time": 36.6,
          "velocity": 0.4881889763779528
        },
        {
          "duration": 0.07499999999999574,
          "durationTicks": 144,
          "midi": 57,
          "name": "A3",
          "ticks": 70464,
          "time": 36.7,
          "velocity": 0.4881889763779528
        },
        {
          "duration": 0.07499999999999574,
          "durationTicks": 144,
          "midi": 42,
          "name": "F#2",
          "ticks": 70464,
          "time": 36.7,
          "velocity": 0.4881889763779528
        },
        {
          "duration": 0.07499999999999574,
          "durationTicks": 144,
          "midi": 40,
          "name": "E2",
          "ticks": 70656,
          "time": 36.800000000000004,
          "velocity": 0.4881889763779528
        },
        {
          "duration": 0.07500000000000284,
          "durationTicks": 144,
          "midi": 42,
          "name": "F#2",
          "ticks": 70848,
          "time": 36.9,
          "velocity": 0.4881889763779528
        },
        {
          "duration": 0.07500000000000284,
          "durationTicks": 144,
          "midi": 40,
          "name": "E2",
          "ticks": 71040,
          "time": 37,
          "velocity": 0.4881889763779528
        },
        {
          "duration": 0.07500000000000284,
          "durationTicks": 144,
          "midi": 42,
          "name": "F#2",
          "ticks": 71232,
          "time": 37.1,
          "velocity": 0.4881889763779528
        },
        {
          "duration": 0.07499999999999574,
          "durationTicks": 144,
          "midi": 40,
          "name": "E2",
          "ticks": 71424,
          "time": 37.2,
          "velocity": 0.4881889763779528
        },
        {
          "duration": 0.07499999999999574,
          "durationTicks": 144,
          "midi": 42,
          "name": "F#2",
          "ticks": 71616,
          "time": 37.300000000000004,
          "velocity": 0.4881889763779528
        },
        {
          "duration": 0.17500000000000426,
          "durationTicks": 336,
          "midi": 52,
          "name": "E3",
          "ticks": 71808,
          "time": 37.4,
          "velocity": 0.4881889763779528
        },
        {
          "duration": 0.07500000000000284,
          "durationTicks": 144,
          "midi": 40,
          "name": "E2",
          "ticks": 71808,
          "time": 37.4,
          "velocity": 0.4881889763779528
        },
        {
          "duration": 0.07500000000000284,
          "durationTicks": 144,
          "midi": 42,
          "name": "F#2",
          "ticks": 72000,
          "time": 37.5,
          "velocity": 0.4881889763779528
        },
        {
          "duration": 0.17499999999999716,
          "durationTicks": 336,
          "midi": 56,
          "name": "G#3",
          "ticks": 72192,
          "time": 37.6,
          "velocity": 0.4881889763779528
        },
        {
          "duration": 0.07500000000000284,
          "durationTicks": 144,
          "midi": 44,
          "name": "G#2",
          "ticks": 72192,
          "time": 37.6,
          "velocity": 0.4881889763779528
        },
        {
          "duration": 0.07499999999999574,
          "durationTicks": 144,
          "midi": 44,
          "name": "G#2",
          "ticks": 72384,
          "time": 37.7,
          "velocity": 0.4881889763779528
        },
        {
          "duration": 0.17499999999999716,
          "durationTicks": 336,
          "midi": 55,
          "name": "G3",
          "ticks": 72576,
          "time": 37.800000000000004,
          "velocity": 0.4881889763779528
        },
        {
          "duration": 0.07500000000000284,
          "durationTicks": 144,
          "midi": 47,
          "name": "B2",
          "ticks": 72768,
          "time": 37.9,
          "velocity": 0.4881889763779528
        },
        {
          "duration": 0.07500000000000284,
          "durationTicks": 144,
          "midi": 42,
          "name": "F#2",
          "ticks": 72960,
          "time": 38,
          "velocity": 0.4881889763779528
        },
        {
          "duration": 0.17500000000000426,
          "durationTicks": 336,
          "midi": 54,
          "name": "F#3",
          "ticks": 72960,
          "time": 38,
          "velocity": 0.4881889763779528
        },
        {
          "duration": 0.07500000000000284,
          "durationTicks": 144,
          "midi": 49,
          "name": "C#3",
          "ticks": 73152,
          "time": 38.1,
          "velocity": 0.4881889763779528
        },
        {
          "duration": 0.17499999999999716,
          "durationTicks": 336,
          "midi": 53,
          "name": "F3",
          "ticks": 73344,
          "time": 38.2,
          "velocity": 0.4881889763779528
        },
        {
          "duration": 0.07499999999999574,
          "durationTicks": 144,
          "midi": 51,
          "name": "D#3",
          "ticks": 73536,
          "time": 38.300000000000004,
          "velocity": 0.4881889763779528
        },
        {
          "duration": 0.07499999999999574,
          "durationTicks": 144,
          "midi": 52,
          "name": "E3",
          "ticks": 73728,
          "time": 38.400000000000006,
          "velocity": 0.4881889763779528
        },
        {
          "duration": 0.07500000000000284,
          "durationTicks": 144,
          "midi": 52,
          "name": "E3",
          "ticks": 74112,
          "time": 38.6,
          "velocity": 0.4881889763779528
        },
        {
          "duration": 0.875,
          "durationTicks": 1680,
          "midi": 52,
          "name": "E3",
          "ticks": 74496,
          "time": 38.800000000000004,
          "velocity": 0.4881889763779528
        },
        {
          "duration": 0.07500000000000284,
          "durationTicks": 144,
          "midi": 64,
          "name": "E4",
          "ticks": 74880,
          "time": 39,
          "velocity": 0.4881889763779528
        },
        {
          "duration": 0.07500000000000284,
          "durationTicks": 144,
          "midi": 64,
          "name": "E4",
          "ticks": 75264,
          "time": 39.2,
          "velocity": 0.4881889763779528
        },
        {
          "duration": 0.07499999999999574,
          "durationTicks": 144,
          "midi": 73,
          "name": "C#5",
          "ticks": 75648,
          "time": 39.400000000000006,
          "velocity": 0.4881889763779528
        },
        {
          "duration": 0.07500000000000284,
          "durationTicks": 144,
          "midi": 73,
          "name": "C#5",
          "ticks": 76032,
          "time": 39.6,
          "velocity": 0.4881889763779528
        },
        {
          "duration": 0.07499999999999574,
          "durationTicks": 144,
          "midi": 52,
          "name": "E3",
          "ticks": 76416,
          "time": 39.800000000000004,
          "velocity": 0.4881889763779528
        },
        {
          "duration": 0.07500000000000284,
          "durationTicks": 144,
          "midi": 51,
          "name": "D#3",
          "ticks": 76800,
          "time": 40,
          "velocity": 0.4881889763779528
        },
        {
          "duration": 0.07500000000000284,
          "durationTicks": 144,
          "midi": 51,
          "name": "D#3",
          "ticks": 77184,
          "time": 40.2,
          "velocity": 0.4881889763779528
        },
        {
          "duration": 0.875,
          "durationTicks": 1680,
          "midi": 51,
          "name": "D#3",
          "ticks": 77568,
          "time": 40.400000000000006,
          "velocity": 0.4881889763779528
        },
        {
          "duration": 0.07500000000000284,
          "durationTicks": 144,
          "midi": 63,
          "name": "D#4",
          "ticks": 77952,
          "time": 40.6,
          "velocity": 0.4881889763779528
        },
        {
          "duration": 0.07499999999999574,
          "durationTicks": 144,
          "midi": 63,
          "name": "D#4",
          "ticks": 78336,
          "time": 40.800000000000004,
          "velocity": 0.4881889763779528
        },
        {
          "duration": 0.07500000000000284,
          "durationTicks": 144,
          "midi": 72,
          "name": "C5",
          "ticks": 78720,
          "time": 41,
          "velocity": 0.4881889763779528
        },
        {
          "duration": 0.07500000000000284,
          "durationTicks": 144,
          "midi": 72,
          "name": "C5",
          "ticks": 79104,
          "time": 41.2,
          "velocity": 0.4881889763779528
        },
        {
          "duration": 0.07499999999999574,
          "durationTicks": 144,
          "midi": 51,
          "name": "D#3",
          "ticks": 79488,
          "time": 41.400000000000006,
          "velocity": 0.4881889763779528
        },
        {
          "duration": 0.07500000000000284,
          "durationTicks": 144,
          "midi": 52,
          "name": "E3",
          "ticks": 79872,
          "time": 41.6,
          "velocity": 0.4881889763779528
        },
        {
          "duration": 0.07499999999999574,
          "durationTicks": 144,
          "midi": 52,
          "name": "E3",
          "ticks": 80256,
          "time": 41.800000000000004,
          "velocity": 0.4881889763779528
        },
        {
          "duration": 0.875,
          "durationTicks": 1680,
          "midi": 52,
          "name": "E3",
          "ticks": 80640,
          "time": 42,
          "velocity": 0.4881889763779528
        },
        {
          "duration": 0.07500000000000284,
          "durationTicks": 144,
          "midi": 64,
          "name": "E4",
          "ticks": 81024,
          "time": 42.2,
          "velocity": 0.4881889763779528
        },
        {
          "duration": 0.07499999999999574,
          "durationTicks": 144,
          "midi": 64,
          "name": "E4",
          "ticks": 81408,
          "time": 42.400000000000006,
          "velocity": 0.4881889763779528
        },
        {
          "duration": 0.07500000000000284,
          "durationTicks": 144,
          "midi": 73,
          "name": "C#5",
          "ticks": 81792,
          "time": 42.6,
          "velocity": 0.4881889763779528
        },
        {
          "duration": 0.07499999999999574,
          "durationTicks": 144,
          "midi": 73,
          "name": "C#5",
          "ticks": 82176,
          "time": 42.800000000000004,
          "velocity": 0.4881889763779528
        },
        {
          "duration": 0.07500000000000284,
          "durationTicks": 144,
          "midi": 52,
          "name": "E3",
          "ticks": 82560,
          "time": 43,
          "velocity": 0.4881889763779528
        },
        {
          "duration": 0.07500000000000284,
          "durationTicks": 144,
          "midi": 51,
          "name": "D#3",
          "ticks": 82944,
          "time": 43.2,
          "velocity": 0.4881889763779528
        },
        {
          "duration": 0.07499999999999574,
          "durationTicks": 144,
          "midi": 51,
          "name": "D#3",
          "ticks": 83328,
          "time": 43.400000000000006,
          "velocity": 0.4881889763779528
        },
        {
          "duration": 0.875,
          "durationTicks": 1680,
          "midi": 51,
          "name": "D#3",
          "ticks": 83712,
          "time": 43.6,
          "velocity": 0.4881889763779528
        },
        {
          "duration": 0.07499999999999574,
          "durationTicks": 144,
          "midi": 63,
          "name": "D#4",
          "ticks": 84096,
          "time": 43.800000000000004,
          "velocity": 0.4881889763779528
        },
        {
          "duration": 0.07500000000000284,
          "durationTicks": 144,
          "midi": 63,
          "name": "D#4",
          "ticks": 84480,
          "time": 44,
          "velocity": 0.4881889763779528
        },
        {
          "duration": 0.07500000000000284,
          "durationTicks": 144,
          "midi": 72,
          "name": "C5",
          "ticks": 84864,
          "time": 44.2,
          "velocity": 0.4881889763779528
        },
        {
          "duration": 0.07499999999999574,
          "durationTicks": 144,
          "midi": 72,
          "name": "C5",
          "ticks": 85248,
          "time": 44.400000000000006,
          "velocity": 0.4881889763779528
        },
        {
          "duration": 0.17500000000000426,
          "durationTicks": 336,
          "midi": 51,
          "name": "D#3",
          "ticks": 85632,
          "time": 44.6,
          "velocity": 0.4881889763779528
        },
        {
          "duration": 0.17499999999999716,
          "durationTicks": 336,
          "midi": 52,
          "name": "E3",
          "ticks": 86016,
          "time": 44.800000000000004,
          "velocity": 0.4881889763779528
        },
        {
          "duration": 0.07500000000000284,
          "durationTicks": 144,
          "midi": 45,
          "name": "A2",
          "ticks": 86400,
          "time": 45,
          "velocity": 0.4881889763779528
        },
        {
          "duration": 0.17500000000000426,
          "durationTicks": 336,
          "midi": 49,
          "name": "C#3",
          "ticks": 86592,
          "time": 45.1,
          "velocity": 0.4881889763779528
        },
        {
          "duration": 0.07499999999999574,
          "durationTicks": 144,
          "midi": 45,
          "name": "A2",
          "ticks": 86976,
          "time": 45.300000000000004,
          "velocity": 0.4881889763779528
        },
        {
          "duration": 0.17499999999999716,
          "durationTicks": 336,
          "midi": 54,
          "name": "F#3",
          "ticks": 87168,
          "time": 45.400000000000006,
          "velocity": 0.4881889763779528
        },
        {
          "duration": 0.07500000000000284,
          "durationTicks": 144,
          "midi": 45,
          "name": "A2",
          "ticks": 87552,
          "time": 45.6,
          "velocity": 0.4881889763779528
        },
        {
          "duration": 0.17499999999999716,
          "durationTicks": 336,
          "midi": 52,
          "name": "E3",
          "ticks": 87744,
          "time": 45.7,
          "velocity": 0.4881889763779528
        },
        {
          "duration": 0.07499999999999574,
          "durationTicks": 144,
          "midi": 45,
          "name": "A2",
          "ticks": 88128,
          "time": 45.900000000000006,
          "velocity": 0.4881889763779528
        },
        {
          "duration": 0.17500000000000426,
          "durationTicks": 336,
          "midi": 51,
          "name": "D#3",
          "ticks": 88320,
          "time": 46,
          "velocity": 0.4881889763779528
        },
        {
          "duration": 0.17499999999999716,
          "durationTicks": 336,
          "midi": 52,
          "name": "E3",
          "ticks": 88704,
          "time": 46.2,
          "velocity": 0.4881889763779528
        },
        {
          "duration": 0.17499999999999716,
          "durationTicks": 336,
          "midi": 51,
          "name": "D#3",
          "ticks": 89088,
          "time": 46.400000000000006,
          "velocity": 0.4881889763779528
        },
        {
          "duration": 0.07500000000000284,
          "durationTicks": 144,
          "midi": 52,
          "name": "E3",
          "ticks": 89472,
          "time": 46.6,
          "velocity": 0.4881889763779528
        },
        {
          "duration": 0.17499999999999716,
          "durationTicks": 336,
          "midi": 44,
          "name": "G#2",
          "ticks": 89664,
          "time": 46.7,
          "velocity": 0.4881889763779528
        },
        {
          "duration": 0.07499999999999574,
          "durationTicks": 144,
          "midi": 56,
          "name": "G#3",
          "ticks": 90048,
          "time": 46.900000000000006,
          "velocity": 0.4881889763779528
        },
        {
          "duration": 0.17500000000000426,
          "durationTicks": 336,
          "midi": 44,
          "name": "G#2",
          "ticks": 90240,
          "time": 47,
          "velocity": 0.4881889763779528
        },
        {
          "duration": 0.07500000000000284,
          "durationTicks": 144,
          "midi": 52,
          "name": "E3",
          "ticks": 90624,
          "time": 47.2,
          "velocity": 0.4881889763779528
        },
        {
          "duration": 0.17499999999999716,
          "durationTicks": 336,
          "midi": 47,
          "name": "B2",
          "ticks": 90816,
          "time": 47.300000000000004,
          "velocity": 0.4881889763779528
        },
        {
          "duration": 0.07500000000000284,
          "durationTicks": 144,
          "midi": 52,
          "name": "E3",
          "ticks": 91200,
          "time": 47.5,
          "velocity": 0.4881889763779528
        },
        {
          "duration": 0.17500000000000426,
          "durationTicks": 336,
          "midi": 54,
          "name": "F#3",
          "ticks": 91392,
          "time": 47.6,
          "velocity": 0.4881889763779528
        },
        {
          "duration": 0.17499999999999716,
          "durationTicks": 336,
          "midi": 52,
          "name": "E3",
          "ticks": 91776,
          "time": 47.800000000000004,
          "velocity": 0.4881889763779528
        },
        {
          "duration": 0.17500000000000426,
          "durationTicks": 336,
          "midi": 52,
          "name": "E3",
          "ticks": 92160,
          "time": 48,
          "velocity": 0.4881889763779528
        },
        {
          "duration": 0.07500000000000284,
          "durationTicks": 144,
          "midi": 45,
          "name": "A2",
          "ticks": 92544,
          "time": 48.2,
          "velocity": 0.4881889763779528
        },
        {
          "duration": 0.17499999999999716,
          "durationTicks": 336,
          "midi": 49,
          "name": "C#3",
          "ticks": 92736,
          "time": 48.300000000000004,
          "velocity": 0.4881889763779528
        },
        {
          "duration": 0.07500000000000284,
          "durationTicks": 144,
          "midi": 45,
          "name": "A2",
          "ticks": 93120,
          "time": 48.5,
          "velocity": 0.4881889763779528
        },
        {
          "duration": 0.17500000000000426,
          "durationTicks": 336,
          "midi": 54,
          "name": "F#3",
          "ticks": 93312,
          "time": 48.6,
          "velocity": 0.4881889763779528
        },
        {
          "duration": 0.07499999999999574,
          "durationTicks": 144,
          "midi": 45,
          "name": "A2",
          "ticks": 93696,
          "time": 48.800000000000004,
          "velocity": 0.4881889763779528
        },
        {
          "duration": 0.17499999999999716,
          "durationTicks": 336,
          "midi": 52,
          "name": "E3",
          "ticks": 93888,
          "time": 48.900000000000006,
          "velocity": 0.4881889763779528
        },
        {
          "duration": 0.07500000000000284,
          "durationTicks": 144,
          "midi": 45,
          "name": "A2",
          "ticks": 94272,
          "time": 49.1,
          "velocity": 0.4881889763779528
        },
        {
          "duration": 0.17499999999999716,
          "durationTicks": 336,
          "midi": 51,
          "name": "D#3",
          "ticks": 94464,
          "time": 49.2,
          "velocity": 0.4881889763779528
        },
        {
          "duration": 0.17499999999999716,
          "durationTicks": 336,
          "midi": 52,
          "name": "E3",
          "ticks": 94848,
          "time": 49.400000000000006,
          "velocity": 0.4881889763779528
        },
        {
          "duration": 0.17500000000000426,
          "durationTicks": 336,
          "midi": 51,
          "name": "D#3",
          "ticks": 95232,
          "time": 49.6,
          "velocity": 0.4881889763779528
        },
        {
          "duration": 0.07499999999999574,
          "durationTicks": 144,
          "midi": 52,
          "name": "E3",
          "ticks": 95616,
          "time": 49.800000000000004,
          "velocity": 0.4881889763779528
        },
        {
          "duration": 0.17499999999999716,
          "durationTicks": 336,
          "midi": 44,
          "name": "G#2",
          "ticks": 95808,
          "time": 49.900000000000006,
          "velocity": 0.4881889763779528
        },
        {
          "duration": 0.07500000000000284,
          "durationTicks": 144,
          "midi": 56,
          "name": "G#3",
          "ticks": 96192,
          "time": 50.1,
          "velocity": 0.4881889763779528
        },
        {
          "duration": 0.17499999999999716,
          "durationTicks": 336,
          "midi": 44,
          "name": "G#2",
          "ticks": 96384,
          "time": 50.2,
          "velocity": 0.4881889763779528
        },
        {
          "duration": 0.07499999999999574,
          "durationTicks": 144,
          "midi": 52,
          "name": "E3",
          "ticks": 96768,
          "time": 50.400000000000006,
          "velocity": 0.4881889763779528
        },
        {
          "duration": 0.17500000000000426,
          "durationTicks": 336,
          "midi": 47,
          "name": "B2",
          "ticks": 96960,
          "time": 50.5,
          "velocity": 0.4881889763779528
        },
        {
          "duration": 0.07500000000000284,
          "durationTicks": 144,
          "midi": 52,
          "name": "E3",
          "ticks": 97344,
          "time": 50.7,
          "velocity": 0.4881889763779528
        },
        {
          "duration": 0.17499999999999716,
          "durationTicks": 336,
          "midi": 54,
          "name": "F#3",
          "ticks": 97536,
          "time": 50.800000000000004,
          "velocity": 0.4881889763779528
        },
        {
          "duration": 0.17500000000000426,
          "durationTicks": 336,
          "midi": 52,
          "name": "E3",
          "ticks": 97920,
          "time": 51,
          "velocity": 0.4881889763779528
        },
        {
          "duration": 0.17499999999999716,
          "durationTicks": 336,
          "midi": 53,
          "name": "F3",
          "ticks": 98304,
          "time": 51.2,
          "velocity": 0.4881889763779528
        },
        {
          "duration": 0.07499999999999574,
          "durationTicks": 144,
          "midi": 46,
          "name": "A#2",
          "ticks": 98688,
          "time": 51.400000000000006,
          "velocity": 0.4881889763779528
        },
        {
          "duration": 0.17500000000000426,
          "durationTicks": 336,
          "midi": 50,
          "name": "D3",
          "ticks": 98880,
          "time": 51.5,
          "velocity": 0.4881889763779528
        },
        {
          "duration": 0.07500000000000284,
          "durationTicks": 144,
          "midi": 46,
          "name": "A#2",
          "ticks": 99264,
          "time": 51.7,
          "velocity": 0.4881889763779528
        },
        {
          "duration": 0.17499999999999716,
          "durationTicks": 336,
          "midi": 55,
          "name": "G3",
          "ticks": 99456,
          "time": 51.800000000000004,
          "velocity": 0.4881889763779528
        },
        {
          "duration": 0.07500000000000284,
          "durationTicks": 144,
          "midi": 46,
          "name": "A#2",
          "ticks": 99840,
          "time": 52,
          "velocity": 0.4881889763779528
        },
        {
          "duration": 0.17500000000000426,
          "durationTicks": 336,
          "midi": 53,
          "name": "F3",
          "ticks": 100032,
          "time": 52.1,
          "velocity": 0.4881889763779528
        },
        {
          "duration": 0.07499999999999574,
          "durationTicks": 144,
          "midi": 46,
          "name": "A#2",
          "ticks": 100416,
          "time": 52.300000000000004,
          "velocity": 0.4881889763779528
        },
        {
          "duration": 0.17499999999999716,
          "durationTicks": 336,
          "midi": 52,
          "name": "E3",
          "ticks": 100608,
          "time": 52.400000000000006,
          "velocity": 0.4881889763779528
        },
        {
          "duration": 0.17500000000000426,
          "durationTicks": 336,
          "midi": 53,
          "name": "F3",
          "ticks": 100992,
          "time": 52.6,
          "velocity": 0.4881889763779528
        },
        {
          "duration": 0.17499999999999716,
          "durationTicks": 336,
          "midi": 52,
          "name": "E3",
          "ticks": 101376,
          "time": 52.800000000000004,
          "velocity": 0.4881889763779528
        },
        {
          "duration": 0.07500000000000284,
          "durationTicks": 144,
          "midi": 53,
          "name": "F3",
          "ticks": 101760,
          "time": 53,
          "velocity": 0.4881889763779528
        },
        {
          "duration": 0.17500000000000426,
          "durationTicks": 336,
          "midi": 45,
          "name": "A2",
          "ticks": 101952,
          "time": 53.1,
          "velocity": 0.4881889763779528
        },
        {
          "duration": 0.07499999999999574,
          "durationTicks": 144,
          "midi": 57,
          "name": "A3",
          "ticks": 102336,
          "time": 53.300000000000004,
          "velocity": 0.4881889763779528
        },
        {
          "duration": 0.17499999999999716,
          "durationTicks": 336,
          "midi": 45,
          "name": "A2",
          "ticks": 102528,
          "time": 53.400000000000006,
          "velocity": 0.4881889763779528
        },
        {
          "duration": 0.07500000000000284,
          "durationTicks": 144,
          "midi": 53,
          "name": "F3",
          "ticks": 102912,
          "time": 53.6,
          "velocity": 0.4881889763779528
        },
        {
          "duration": 0.17499999999999716,
          "durationTicks": 336,
          "midi": 48,
          "name": "C3",
          "ticks": 103104,
          "time": 53.7,
          "velocity": 0.4881889763779528
        },
        {
          "duration": 0.07499999999999574,
          "durationTicks": 144,
          "midi": 53,
          "name": "F3",
          "ticks": 103488,
          "time": 53.900000000000006,
          "velocity": 0.4881889763779528
        },
        {
          "duration": 0.17500000000000426,
          "durationTicks": 336,
          "midi": 55,
          "name": "G3",
          "ticks": 103680,
          "time": 54,
          "velocity": 0.4881889763779528
        },
        {
          "duration": 0.17499999999999716,
          "durationTicks": 336,
          "midi": 53,
          "name": "F3",
          "ticks": 104064,
          "time": 54.2,
          "velocity": 0.4881889763779528
        },
        {
          "duration": 0.17499999999999716,
          "durationTicks": 336,
          "midi": 53,
          "name": "F3",
          "ticks": 104448,
          "time": 54.400000000000006,
          "velocity": 0.4881889763779528
        },
        {
          "duration": 0.07500000000000284,
          "durationTicks": 144,
          "midi": 46,
          "name": "A#2",
          "ticks": 104832,
          "time": 54.6,
          "velocity": 0.4881889763779528
        },
        {
          "duration": 0.17499999999999716,
          "durationTicks": 336,
          "midi": 50,
          "name": "D3",
          "ticks": 105024,
          "time": 54.7,
          "velocity": 0.4881889763779528
        },
        {
          "duration": 0.07499999999999574,
          "durationTicks": 144,
          "midi": 46,
          "name": "A#2",
          "ticks": 105408,
          "time": 54.900000000000006,
          "velocity": 0.4881889763779528
        },
        {
          "duration": 0.17500000000000426,
          "durationTicks": 336,
          "midi": 55,
          "name": "G3",
          "ticks": 105600,
          "time": 55,
          "velocity": 0.4881889763779528
        },
        {
          "duration": 0.07500000000000284,
          "durationTicks": 144,
          "midi": 46,
          "name": "A#2",
          "ticks": 105984,
          "time": 55.2,
          "velocity": 0.4881889763779528
        },
        {
          "duration": 0.17499999999999716,
          "durationTicks": 336,
          "midi": 53,
          "name": "F3",
          "ticks": 106176,
          "time": 55.300000000000004,
          "velocity": 0.4881889763779528
        },
        {
          "duration": 0.07500000000000284,
          "durationTicks": 144,
          "midi": 46,
          "name": "A#2",
          "ticks": 106560,
          "time": 55.5,
          "velocity": 0.4881889763779528
        },
        {
          "duration": 0.17500000000000426,
          "durationTicks": 336,
          "midi": 52,
          "name": "E3",
          "ticks": 106752,
          "time": 55.6,
          "velocity": 0.4881889763779528
        },
        {
          "duration": 0.17499999999999716,
          "durationTicks": 336,
          "midi": 53,
          "name": "F3",
          "ticks": 107136,
          "time": 55.800000000000004,
          "velocity": 0.4881889763779528
        },
        {
          "duration": 0.17500000000000426,
          "durationTicks": 336,
          "midi": 52,
          "name": "E3",
          "ticks": 107520,
          "time": 56,
          "velocity": 0.4881889763779528
        },
        {
          "duration": 0.07500000000000284,
          "durationTicks": 144,
          "midi": 53,
          "name": "F3",
          "ticks": 107904,
          "time": 56.2,
          "velocity": 0.4881889763779528
        },
        {
          "duration": 0.17499999999999716,
          "durationTicks": 336,
          "midi": 45,
          "name": "A2",
          "ticks": 108096,
          "time": 56.300000000000004,
          "velocity": 0.4881889763779528
        },
        {
          "duration": 0.07500000000000284,
          "durationTicks": 144,
          "midi": 57,
          "name": "A3",
          "ticks": 108480,
          "time": 56.5,
          "velocity": 0.4881889763779528
        },
        {
          "duration": 0.17500000000000426,
          "durationTicks": 336,
          "midi": 45,
          "name": "A2",
          "ticks": 108672,
          "time": 56.6,
          "velocity": 0.4881889763779528
        },
        {
          "duration": 0.07499999999999574,
          "durationTicks": 144,
          "midi": 53,
          "name": "F3",
          "ticks": 109056,
          "time": 56.800000000000004,
          "velocity": 0.4881889763779528
        },
        {
          "duration": 0.17499999999999716,
          "durationTicks": 336,
          "midi": 48,
          "name": "C3",
          "ticks": 109248,
          "time": 56.900000000000006,
          "velocity": 0.4881889763779528
        },
        {
          "duration": 0.07500000000000284,
          "durationTicks": 144,
          "midi": 53,
          "name": "F3",
          "ticks": 109632,
          "time": 57.1,
          "velocity": 0.4881889763779528
        },
        {
          "duration": 0.17499999999999716,
          "durationTicks": 336,
          "midi": 55,
          "name": "G3",
          "ticks": 109824,
          "time": 57.2,
          "velocity": 0.4881889763779528
        },
        {
          "duration": 0.17499999999999716,
          "durationTicks": 336,
          "midi": 53,
          "name": "F3",
          "ticks": 110208,
          "time": 57.400000000000006,
          "velocity": 0.4881889763779528
        },
        {
          "duration": 0.2749999999999986,
          "durationTicks": 528,
          "midi": 58,
          "name": "A#3",
          "ticks": 110592,
          "time": 57.6,
          "velocity": 0.4881889763779528
        },
        {
          "duration": 0.2750000000000057,
          "durationTicks": 528,
          "midi": 58,
          "name": "A#3",
          "ticks": 111360,
          "time": 58,
          "velocity": 0.4881889763779528
        },
        {
          "duration": 0.2749999999999986,
          "durationTicks": 528,
          "midi": 58,
          "name": "A#3",
          "ticks": 112128,
          "time": 58.400000000000006,
          "velocity": 0.4881889763779528
        },
        {
          "duration": 0.2749999999999986,
          "durationTicks": 528,
          "midi": 58,
          "name": "A#3",
          "ticks": 112896,
          "time": 58.800000000000004,
          "velocity": 0.4881889763779528
        },
        {
          "duration": 0.2749999999999986,
          "durationTicks": 528,
          "midi": 58,
          "name": "A#3",
          "ticks": 113664,
          "time": 59.2,
          "velocity": 0.4881889763779528
        },
        {
          "duration": 0.2749999999999986,
          "durationTicks": 528,
          "midi": 58,
          "name": "A#3",
          "ticks": 114432,
          "time": 59.6,
          "velocity": 0.4881889763779528
        },
        {
          "duration": 0.2750000000000057,
          "durationTicks": 528,
          "midi": 58,
          "name": "A#3",
          "ticks": 115200,
          "time": 60,
          "velocity": 0.4881889763779528
        },
        {
          "duration": 0.2749999999999986,
          "durationTicks": 528,
          "midi": 58,
          "name": "A#3",
          "ticks": 115968,
          "time": 60.400000000000006,
          "velocity": 0.4881889763779528
        },
        {
          "duration": 0.2749999999999986,
          "durationTicks": 528,
          "midi": 57,
          "name": "A3",
          "ticks": 116736,
          "time": 60.800000000000004,
          "velocity": 0.4881889763779528
        },
        {
          "duration": 0.2749999999999986,
          "durationTicks": 528,
          "midi": 57,
          "name": "A3",
          "ticks": 117504,
          "time": 61.2,
          "velocity": 0.4881889763779528
        },
        {
          "duration": 0.2749999999999986,
          "durationTicks": 528,
          "midi": 57,
          "name": "A3",
          "ticks": 118272,
          "time": 61.6,
          "velocity": 0.4881889763779528
        },
        {
          "duration": 0.2750000000000057,
          "durationTicks": 528,
          "midi": 57,
          "name": "A3",
          "ticks": 119040,
          "time": 62,
          "velocity": 0.4881889763779528
        },
        {
          "duration": 0.2749999999999986,
          "durationTicks": 528,
          "midi": 58,
          "name": "A#3",
          "ticks": 119808,
          "time": 62.400000000000006,
          "velocity": 0.4881889763779528
        },
        {
          "duration": 0.2749999999999986,
          "durationTicks": 528,
          "midi": 57,
          "name": "A3",
          "ticks": 120576,
          "time": 62.800000000000004,
          "velocity": 0.4881889763779528
        },
        {
          "duration": 0.2749999999999986,
          "durationTicks": 528,
          "midi": 49,
          "name": "C#3",
          "ticks": 121344,
          "time": 63.2,
          "velocity": 0.4881889763779528
        },
        {
          "duration": 0.2749999999999986,
          "durationTicks": 528,
          "midi": 50,
          "name": "D3",
          "ticks": 122112,
          "time": 63.6,
          "velocity": 0.4881889763779528
        },
        {
          "duration": 0.07500000000000284,
          "durationTicks": 144,
          "midi": 62,
          "name": "D4",
          "ticks": 122880,
          "time": 64,
          "velocity": 0.4881889763779528
        },
        {
          "duration": 0.07500000000000284,
          "durationTicks": 144,
          "midi": 50,
          "name": "D3",
          "ticks": 122880,
          "time": 64,
          "velocity": 0.4881889763779528
        },
        {
          "duration": 0.07499999999998863,
          "durationTicks": 144,
          "midi": 57,
          "name": "A3",
          "ticks": 123072,
          "time": 64.10000000000001,
          "velocity": 0.4881889763779528
        },
        {
          "duration": 0.07500000000000284,
          "durationTicks": 144,
          "midi": 57,
          "name": "A3",
          "ticks": 123264,
          "time": 64.2,
          "velocity": 0.4881889763779528
        },
        {
          "duration": 0.07500000000000284,
          "durationTicks": 144,
          "midi": 50,
          "name": "D3",
          "ticks": 123456,
          "time": 64.3,
          "velocity": 0.4881889763779528
        },
        {
          "duration": 0.17499999999999716,
          "durationTicks": 336,
          "midi": 62,
          "name": "D4",
          "ticks": 123648,
          "time": 64.4,
          "velocity": 0.4881889763779528
        },
        {
          "duration": 0.07500000000000284,
          "durationTicks": 144,
          "midi": 57,
          "name": "A3",
          "ticks": 123840,
          "time": 64.5,
          "velocity": 0.4881889763779528
        },
        {
          "duration": 0.07499999999998863,
          "durationTicks": 144,
          "midi": 53,
          "name": "F3",
          "ticks": 124032,
          "time": 64.60000000000001,
          "velocity": 0.4881889763779528
        },
        {
          "duration": 0.07500000000000284,
          "durationTicks": 144,
          "midi": 57,
          "name": "A3",
          "ticks": 124224,
          "time": 64.7,
          "velocity": 0.4881889763779528
        },
        {
          "duration": 0.07500000000000284,
          "durationTicks": 144,
          "midi": 62,
          "name": "D4",
          "ticks": 124416,
          "time": 64.8,
          "velocity": 0.4881889763779528
        },
        {
          "duration": 0.07500000000000284,
          "durationTicks": 144,
          "midi": 50,
          "name": "D3",
          "ticks": 124416,
          "time": 64.8,
          "velocity": 0.4881889763779528
        },
        {
          "duration": 0.07500000000000284,
          "durationTicks": 144,
          "midi": 57,
          "name": "A3",
          "ticks": 124608,
          "time": 64.9,
          "velocity": 0.4881889763779528
        },
        {
          "duration": 0.07500000000000284,
          "durationTicks": 144,
          "midi": 62,
          "name": "D4",
          "ticks": 124800,
          "time": 65,
          "velocity": 0.4881889763779528
        },
        {
          "duration": 0.07500000000000284,
          "durationTicks": 144,
          "midi": 50,
          "name": "D3",
          "ticks": 124800,
          "time": 65,
          "velocity": 0.4881889763779528
        },
        {
          "duration": 0.07499999999998863,
          "durationTicks": 144,
          "midi": 57,
          "name": "A3",
          "ticks": 124992,
          "time": 65.10000000000001,
          "velocity": 0.4881889763779528
        },
        {
          "duration": 0.17499999999999716,
          "durationTicks": 336,
          "midi": 62,
          "name": "D4",
          "ticks": 125184,
          "time": 65.2,
          "velocity": 0.4881889763779528
        },
        {
          "duration": 0.07500000000000284,
          "durationTicks": 144,
          "midi": 55,
          "name": "G3",
          "ticks": 125376,
          "time": 65.3,
          "velocity": 0.4881889763779528
        },
        {
          "duration": 0.07500000000000284,
          "durationTicks": 144,
          "midi": 57,
          "name": "A3",
          "ticks": 125568,
          "time": 65.4,
          "velocity": 0.4881889763779528
        },
        {
          "duration": 0.07500000000000284,
          "durationTicks": 144,
          "midi": 55,
          "name": "G3",
          "ticks": 125760,
          "time": 65.5,
          "velocity": 0.4881889763779528
        },
        {
          "duration": 0.07499999999998863,
          "durationTicks": 144,
          "midi": 49,
          "name": "C#3",
          "ticks": 125952,
          "time": 65.60000000000001,
          "velocity": 0.4881889763779528
        },
        {
          "duration": 0.07499999999998863,
          "durationTicks": 144,
          "midi": 61,
          "name": "C#4",
          "ticks": 125952,
          "time": 65.60000000000001,
          "velocity": 0.4881889763779528
        },
        {
          "duration": 0.07500000000000284,
          "durationTicks": 144,
          "midi": 55,
          "name": "G3",
          "ticks": 126144,
          "time": 65.7,
          "velocity": 0.4881889763779528
        },
        {
          "duration": 0.07500000000000284,
          "durationTicks": 144,
          "midi": 55,
          "name": "G3",
          "ticks": 126336,
          "time": 65.8,
          "velocity": 0.4881889763779528
        },
        {
          "duration": 0.07500000000000284,
          "durationTicks": 144,
          "midi": 49,
          "name": "C#3",
          "ticks": 126528,
          "time": 65.9,
          "velocity": 0.4881889763779528
        },
        {
          "duration": 0.07500000000000284,
          "durationTicks": 144,
          "midi": 61,
          "name": "C#4",
          "ticks": 126720,
          "time": 66,
          "velocity": 0.4881889763779528
        },
        {
          "duration": 0.07499999999998863,
          "durationTicks": 144,
          "midi": 55,
          "name": "G3",
          "ticks": 126912,
          "time": 66.10000000000001,
          "velocity": 0.4881889763779528
        },
        {
          "duration": 0.07500000000000284,
          "durationTicks": 144,
          "midi": 49,
          "name": "C#3",
          "ticks": 127104,
          "time": 66.2,
          "velocity": 0.4881889763779528
        },
        {
          "duration": 0.07500000000000284,
          "durationTicks": 144,
          "midi": 55,
          "name": "G3",
          "ticks": 127296,
          "time": 66.3,
          "velocity": 0.4881889763779528
        },
        {
          "duration": 0.07500000000000284,
          "durationTicks": 144,
          "midi": 50,
          "name": "D3",
          "ticks": 127488,
          "time": 66.4,
          "velocity": 0.4881889763779528
        },
        {
          "duration": 0.07500000000000284,
          "durationTicks": 144,
          "midi": 62,
          "name": "D4",
          "ticks": 127488,
          "time": 66.4,
          "velocity": 0.4881889763779528
        },
        {
          "duration": 0.07500000000000284,
          "durationTicks": 144,
          "midi": 57,
          "name": "A3",
          "ticks": 127680,
          "time": 66.5,
          "velocity": 0.4881889763779528
        },
        {
          "duration": 0.07499999999998863,
          "durationTicks": 144,
          "midi": 62,
          "name": "D4",
          "ticks": 127872,
          "time": 66.60000000000001,
          "velocity": 0.4881889763779528
        },
        {
          "duration": 0.07499999999998863,
          "durationTicks": 144,
          "midi": 50,
          "name": "D3",
          "ticks": 127872,
          "time": 66.60000000000001,
          "velocity": 0.4881889763779528
        },
        {
          "duration": 0.07500000000000284,
          "durationTicks": 144,
          "midi": 57,
          "name": "A3",
          "ticks": 128064,
          "time": 66.7,
          "velocity": 0.4881889763779528
        },
        {
          "duration": 0.07500000000000284,
          "durationTicks": 144,
          "midi": 62,
          "name": "D4",
          "ticks": 128256,
          "time": 66.8,
          "velocity": 0.4881889763779528
        },
        {
          "duration": 0.07500000000000284,
          "durationTicks": 144,
          "midi": 57,
          "name": "A3",
          "ticks": 128448,
          "time": 66.9,
          "velocity": 0.4881889763779528
        },
        {
          "duration": 0.07500000000000284,
          "durationTicks": 144,
          "midi": 53,
          "name": "F3",
          "ticks": 128640,
          "time": 67,
          "velocity": 0.4881889763779528
        },
        {
          "duration": 0.07499999999998863,
          "durationTicks": 144,
          "midi": 57,
          "name": "A3",
          "ticks": 128832,
          "time": 67.10000000000001,
          "velocity": 0.4881889763779528
        },
        {
          "duration": 0.07500000000000284,
          "durationTicks": 144,
          "midi": 49,
          "name": "C#3",
          "ticks": 129024,
          "time": 67.2,
          "velocity": 0.4881889763779528
        },
        {
          "duration": 0.07500000000000284,
          "durationTicks": 144,
          "midi": 61,
          "name": "C#4",
          "ticks": 129024,
          "time": 67.2,
          "velocity": 0.4881889763779528
        },
        {
          "duration": 0.07500000000000284,
          "durationTicks": 144,
          "midi": 52,
          "name": "E3",
          "ticks": 129216,
          "time": 67.3,
          "velocity": 0.4881889763779528
        },
        {
          "duration": 0.07500000000000284,
          "durationTicks": 144,
          "midi": 49,
          "name": "C#3",
          "ticks": 129408,
          "time": 67.4,
          "velocity": 0.4881889763779528
        },
        {
          "duration": 0.07500000000000284,
          "durationTicks": 144,
          "midi": 52,
          "name": "E3",
          "ticks": 129600,
          "time": 67.5,
          "velocity": 0.4881889763779528
        },
        {
          "duration": 0.07499999999998863,
          "durationTicks": 144,
          "midi": 61,
          "name": "C#4",
          "ticks": 129792,
          "time": 67.60000000000001,
          "velocity": 0.4881889763779528
        },
        {
          "duration": 0.07500000000000284,
          "durationTicks": 144,
          "midi": 52,
          "name": "E3",
          "ticks": 129984,
          "time": 67.7,
          "velocity": 0.4881889763779528
        },
        {
          "duration": 0.07500000000000284,
          "durationTicks": 144,
          "midi": 61,
          "name": "C#4",
          "ticks": 130176,
          "time": 67.8,
          "velocity": 0.4881889763779528
        },
        {
          "duration": 0.07500000000000284,
          "durationTicks": 144,
          "midi": 49,
          "name": "C#3",
          "ticks": 130176,
          "time": 67.8,
          "velocity": 0.4881889763779528
        },
        {
          "duration": 0.07500000000000284,
          "durationTicks": 144,
          "midi": 52,
          "name": "E3",
          "ticks": 130368,
          "time": 67.9,
          "velocity": 0.4881889763779528
        },
        {
          "duration": 0.07500000000000284,
          "durationTicks": 144,
          "midi": 62,
          "name": "D4",
          "ticks": 130560,
          "time": 68,
          "velocity": 0.4881889763779528
        },
        {
          "duration": 0.07500000000000284,
          "durationTicks": 144,
          "midi": 50,
          "name": "D3",
          "ticks": 130560,
          "time": 68,
          "velocity": 0.4881889763779528
        },
        {
          "duration": 0.07499999999998863,
          "durationTicks": 144,
          "midi": 53,
          "name": "F3",
          "ticks": 130752,
          "time": 68.10000000000001,
          "velocity": 0.4881889763779528
        },
        {
          "duration": 0.07500000000000284,
          "durationTicks": 144,
          "midi": 50,
          "name": "D3",
          "ticks": 130944,
          "time": 68.2,
          "velocity": 0.4881889763779528
        },
        {
          "duration": 0.07500000000000284,
          "durationTicks": 144,
          "midi": 62,
          "name": "D4",
          "ticks": 130944,
          "time": 68.2,
          "velocity": 0.4881889763779528
        },
        {
          "duration": 0.07500000000000284,
          "durationTicks": 144,
          "midi": 53,
          "name": "F3",
          "ticks": 131136,
          "time": 68.3,
          "velocity": 0.4881889763779528
        },
        {
          "duration": 0.07500000000000284,
          "durationTicks": 144,
          "midi": 62,
          "name": "D4",
          "ticks": 131328,
          "time": 68.4,
          "velocity": 0.4881889763779528
        },
        {
          "duration": 0.07500000000000284,
          "durationTicks": 144,
          "midi": 53,
          "name": "F3",
          "ticks": 131520,
          "time": 68.5,
          "velocity": 0.4881889763779528
        },
        {
          "duration": 0.07499999999998863,
          "durationTicks": 144,
          "midi": 50,
          "name": "D3",
          "ticks": 131712,
          "time": 68.60000000000001,
          "velocity": 0.4881889763779528
        },
        {
          "duration": 0.07499999999998863,
          "durationTicks": 144,
          "midi": 62,
          "name": "D4",
          "ticks": 131712,
          "time": 68.60000000000001,
          "velocity": 0.4881889763779528
        },
        {
          "duration": 0.07500000000000284,
          "durationTicks": 144,
          "midi": 53,
          "name": "F3",
          "ticks": 131904,
          "time": 68.7,
          "velocity": 0.4881889763779528
        },
        {
          "duration": 0.07500000000000284,
          "durationTicks": 144,
          "midi": 58,
          "name": "A#3",
          "ticks": 132096,
          "time": 68.8,
          "velocity": 0.4881889763779528
        },
        {
          "duration": 0.07500000000000284,
          "durationTicks": 144,
          "midi": 46,
          "name": "A#2",
          "ticks": 132096,
          "time": 68.8,
          "velocity": 0.4881889763779528
        },
        {
          "duration": 0.07500000000000284,
          "durationTicks": 144,
          "midi": 53,
          "name": "F3",
          "ticks": 132288,
          "time": 68.9,
          "velocity": 0.4881889763779528
        },
        {
          "duration": 0.07500000000000284,
          "durationTicks": 144,
          "midi": 58,
          "name": "A#3",
          "ticks": 132480,
          "time": 69,
          "velocity": 0.4881889763779528
        },
        {
          "duration": 0.07500000000000284,
          "durationTicks": 144,
          "midi": 46,
          "name": "A#2",
          "ticks": 132480,
          "time": 69,
          "velocity": 0.4881889763779528
        },
        {
          "duration": 0.07499999999998863,
          "durationTicks": 144,
          "midi": 53,
          "name": "F3",
          "ticks": 132672,
          "time": 69.10000000000001,
          "velocity": 0.4881889763779528
        },
        {
          "duration": 0.07500000000000284,
          "durationTicks": 144,
          "midi": 58,
          "name": "A#3",
          "ticks": 132864,
          "time": 69.2,
          "velocity": 0.4881889763779528
        },
        {
          "duration": 0.07500000000000284,
          "durationTicks": 144,
          "midi": 53,
          "name": "F3",
          "ticks": 133056,
          "time": 69.3,
          "velocity": 0.4881889763779528
        },
        {
          "duration": 0.07500000000000284,
          "durationTicks": 144,
          "midi": 58,
          "name": "A#3",
          "ticks": 133248,
          "time": 69.4,
          "velocity": 0.4881889763779528
        },
        {
          "duration": 0.07500000000000284,
          "durationTicks": 144,
          "midi": 53,
          "name": "F3",
          "ticks": 133440,
          "time": 69.5,
          "velocity": 0.4881889763779528
        },
        {
          "duration": 0.07499999999998863,
          "durationTicks": 144,
          "midi": 61,
          "name": "C#4",
          "ticks": 133632,
          "time": 69.60000000000001,
          "velocity": 0.4881889763779528
        },
        {
          "duration": 0.07499999999998863,
          "durationTicks": 144,
          "midi": 49,
          "name": "C#3",
          "ticks": 133632,
          "time": 69.60000000000001,
          "velocity": 0.4881889763779528
        },
        {
          "duration": 0.07500000000000284,
          "durationTicks": 144,
          "midi": 52,
          "name": "E3",
          "ticks": 133824,
          "time": 69.7,
          "velocity": 0.4881889763779528
        },
        {
          "duration": 0.07500000000000284,
          "durationTicks": 144,
          "midi": 58,
          "name": "A#3",
          "ticks": 134016,
          "time": 69.8,
          "velocity": 0.4881889763779528
        },
        {
          "duration": 0.07500000000000284,
          "durationTicks": 144,
          "midi": 52,
          "name": "E3",
          "ticks": 134208,
          "time": 69.9,
          "velocity": 0.4881889763779528
        },
        {
          "duration": 0.07500000000000284,
          "durationTicks": 144,
          "midi": 57,
          "name": "A3",
          "ticks": 134400,
          "time": 70,
          "velocity": 0.4881889763779528
        },
        {
          "duration": 0.07499999999998863,
          "durationTicks": 144,
          "midi": 58,
          "name": "A#3",
          "ticks": 134592,
          "time": 70.10000000000001,
          "velocity": 0.4881889763779528
        },
        {
          "duration": 0.07500000000000284,
          "durationTicks": 144,
          "midi": 57,
          "name": "A3",
          "ticks": 134784,
          "time": 70.2,
          "velocity": 0.4881889763779528
        },
        {
          "duration": 0.07500000000000284,
          "durationTicks": 144,
          "midi": 55,
          "name": "G3",
          "ticks": 134976,
          "time": 70.3,
          "velocity": 0.4881889763779528
        },
        {
          "duration": 0.07500000000000284,
          "durationTicks": 144,
          "midi": 62,
          "name": "D4",
          "ticks": 135168,
          "time": 70.4,
          "velocity": 0.4881889763779528
        },
        {
          "duration": 0.07500000000000284,
          "durationTicks": 144,
          "midi": 50,
          "name": "D3",
          "ticks": 135168,
          "time": 70.4,
          "velocity": 0.4881889763779528
        },
        {
          "duration": 0.07500000000000284,
          "durationTicks": 144,
          "midi": 57,
          "name": "A3",
          "ticks": 135360,
          "time": 70.5,
          "velocity": 0.4881889763779528
        },
        {
          "duration": 0.07499999999998863,
          "durationTicks": 144,
          "midi": 57,
          "name": "A3",
          "ticks": 135552,
          "time": 70.60000000000001,
          "velocity": 0.4881889763779528
        },
        {
          "duration": 0.07500000000000284,
          "durationTicks": 144,
          "midi": 50,
          "name": "D3",
          "ticks": 135744,
          "time": 70.7,
          "velocity": 0.4881889763779528
        },
        {
          "duration": 0.07500000000000284,
          "durationTicks": 144,
          "midi": 62,
          "name": "D4",
          "ticks": 135936,
          "time": 70.8,
          "velocity": 0.4881889763779528
        },
        {
          "duration": 0.07500000000000284,
          "durationTicks": 144,
          "midi": 57,
          "name": "A3",
          "ticks": 136128,
          "time": 70.9,
          "velocity": 0.4881889763779528
        },
        {
          "duration": 0.07500000000000284,
          "durationTicks": 144,
          "midi": 53,
          "name": "F3",
          "ticks": 136320,
          "time": 71,
          "velocity": 0.4881889763779528
        },
        {
          "duration": 0.07499999999998863,
          "durationTicks": 144,
          "midi": 57,
          "name": "A3",
          "ticks": 136512,
          "time": 71.10000000000001,
          "velocity": 0.4881889763779528
        },
        {
          "duration": 0.07500000000000284,
          "durationTicks": 144,
          "midi": 50,
          "name": "D3",
          "ticks": 136704,
          "time": 71.2,
          "velocity": 0.4881889763779528
        },
        {
          "duration": 0.07500000000000284,
          "durationTicks": 144,
          "midi": 62,
          "name": "D4",
          "ticks": 136704,
          "time": 71.2,
          "velocity": 0.4881889763779528
        },
        {
          "duration": 0.07500000000000284,
          "durationTicks": 144,
          "midi": 57,
          "name": "A3",
          "ticks": 136896,
          "time": 71.3,
          "velocity": 0.4881889763779528
        },
        {
          "duration": 0.07500000000000284,
          "durationTicks": 144,
          "midi": 62,
          "name": "D4",
          "ticks": 137088,
          "time": 71.4,
          "velocity": 0.4881889763779528
        },
        {
          "duration": 0.07500000000000284,
          "durationTicks": 144,
          "midi": 50,
          "name": "D3",
          "ticks": 137088,
          "time": 71.4,
          "velocity": 0.4881889763779528
        },
        {
          "duration": 0.07500000000000284,
          "durationTicks": 144,
          "midi": 57,
          "name": "A3",
          "ticks": 137280,
          "time": 71.5,
          "velocity": 0.4881889763779528
        },
        {
          "duration": 0.07499999999998863,
          "durationTicks": 144,
          "midi": 62,
          "name": "D4",
          "ticks": 137472,
          "time": 71.60000000000001,
          "velocity": 0.4881889763779528
        },
        {
          "duration": 0.07500000000000284,
          "durationTicks": 144,
          "midi": 55,
          "name": "G3",
          "ticks": 137664,
          "time": 71.7,
          "velocity": 0.4881889763779528
        },
        {
          "duration": 0.07500000000000284,
          "durationTicks": 144,
          "midi": 57,
          "name": "A3",
          "ticks": 137856,
          "time": 71.8,
          "velocity": 0.4881889763779528
        },
        {
          "duration": 0.07500000000000284,
          "durationTicks": 144,
          "midi": 55,
          "name": "G3",
          "ticks": 138048,
          "time": 71.9,
          "velocity": 0.4881889763779528
        },
        {
          "duration": 0.07500000000000284,
          "durationTicks": 144,
          "midi": 49,
          "name": "C#3",
          "ticks": 138240,
          "time": 72,
          "velocity": 0.4881889763779528
        },
        {
          "duration": 0.07500000000000284,
          "durationTicks": 144,
          "midi": 61,
          "name": "C#4",
          "ticks": 138240,
          "time": 72,
          "velocity": 0.4881889763779528
        },
        {
          "duration": 0.07499999999998863,
          "durationTicks": 144,
          "midi": 55,
          "name": "G3",
          "ticks": 138432,
          "time": 72.10000000000001,
          "velocity": 0.4881889763779528
        },
        {
          "duration": 0.07500000000000284,
          "durationTicks": 144,
          "midi": 55,
          "name": "G3",
          "ticks": 138624,
          "time": 72.2,
          "velocity": 0.4881889763779528
        },
        {
          "duration": 0.07500000000000284,
          "durationTicks": 144,
          "midi": 49,
          "name": "C#3",
          "ticks": 138816,
          "time": 72.3,
          "velocity": 0.4881889763779528
        },
        {
          "duration": 0.07500000000000284,
          "durationTicks": 144,
          "midi": 61,
          "name": "C#4",
          "ticks": 139008,
          "time": 72.4,
          "velocity": 0.4881889763779528
        },
        {
          "duration": 0.07500000000000284,
          "durationTicks": 144,
          "midi": 55,
          "name": "G3",
          "ticks": 139200,
          "time": 72.5,
          "velocity": 0.4881889763779528
        },
        {
          "duration": 0.07499999999998863,
          "durationTicks": 144,
          "midi": 49,
          "name": "C#3",
          "ticks": 139392,
          "time": 72.60000000000001,
          "velocity": 0.4881889763779528
        },
        {
          "duration": 0.07500000000000284,
          "durationTicks": 144,
          "midi": 55,
          "name": "G3",
          "ticks": 139584,
          "time": 72.7,
          "velocity": 0.4881889763779528
        },
        {
          "duration": 0.07500000000000284,
          "durationTicks": 144,
          "midi": 50,
          "name": "D3",
          "ticks": 139776,
          "time": 72.8,
          "velocity": 0.4881889763779528
        },
        {
          "duration": 0.07500000000000284,
          "durationTicks": 144,
          "midi": 62,
          "name": "D4",
          "ticks": 139776,
          "time": 72.8,
          "velocity": 0.4881889763779528
        },
        {
          "duration": 0.07500000000000284,
          "durationTicks": 144,
          "midi": 57,
          "name": "A3",
          "ticks": 139968,
          "time": 72.9,
          "velocity": 0.4881889763779528
        },
        {
          "duration": 0.07500000000000284,
          "durationTicks": 144,
          "midi": 62,
          "name": "D4",
          "ticks": 140160,
          "time": 73,
          "velocity": 0.4881889763779528
        },
        {
          "duration": 0.07500000000000284,
          "durationTicks": 144,
          "midi": 50,
          "name": "D3",
          "ticks": 140160,
          "time": 73,
          "velocity": 0.4881889763779528
        },
        {
          "duration": 0.07499999999998863,
          "durationTicks": 144,
          "midi": 57,
          "name": "A3",
          "ticks": 140352,
          "time": 73.10000000000001,
          "velocity": 0.4881889763779528
        },
        {
          "duration": 0.07500000000000284,
          "durationTicks": 144,
          "midi": 62,
          "name": "D4",
          "ticks": 140544,
          "time": 73.2,
          "velocity": 0.4881889763779528
        },
        {
          "duration": 0.07500000000000284,
          "durationTicks": 144,
          "midi": 57,
          "name": "A3",
          "ticks": 140736,
          "time": 73.3,
          "velocity": 0.4881889763779528
        },
        {
          "duration": 0.07500000000000284,
          "durationTicks": 144,
          "midi": 53,
          "name": "F3",
          "ticks": 140928,
          "time": 73.4,
          "velocity": 0.4881889763779528
        },
        {
          "duration": 0.07500000000000284,
          "durationTicks": 144,
          "midi": 57,
          "name": "A3",
          "ticks": 141120,
          "time": 73.5,
          "velocity": 0.4881889763779528
        },
        {
          "duration": 0.07499999999998863,
          "durationTicks": 144,
          "midi": 61,
          "name": "C#4",
          "ticks": 141312,
          "time": 73.60000000000001,
          "velocity": 0.4881889763779528
        },
        {
          "duration": 0.07499999999998863,
          "durationTicks": 144,
          "midi": 49,
          "name": "C#3",
          "ticks": 141312,
          "time": 73.60000000000001,
          "velocity": 0.4881889763779528
        },
        {
          "duration": 0.07500000000000284,
          "durationTicks": 144,
          "midi": 52,
          "name": "E3",
          "ticks": 141504,
          "time": 73.7,
          "velocity": 0.4881889763779528
        },
        {
          "duration": 0.07500000000000284,
          "durationTicks": 144,
          "midi": 49,
          "name": "C#3",
          "ticks": 141696,
          "time": 73.8,
          "velocity": 0.4881889763779528
        },
        {
          "duration": 0.07500000000000284,
          "durationTicks": 144,
          "midi": 52,
          "name": "E3",
          "ticks": 141888,
          "time": 73.9,
          "velocity": 0.4881889763779528
        },
        {
          "duration": 0.07500000000000284,
          "durationTicks": 144,
          "midi": 61,
          "name": "C#4",
          "ticks": 142080,
          "time": 74,
          "velocity": 0.4881889763779528
        },
        {
          "duration": 0.07499999999998863,
          "durationTicks": 144,
          "midi": 52,
          "name": "E3",
          "ticks": 142272,
          "time": 74.10000000000001,
          "velocity": 0.4881889763779528
        },
        {
          "duration": 0.07500000000000284,
          "durationTicks": 144,
          "midi": 49,
          "name": "C#3",
          "ticks": 142464,
          "time": 74.2,
          "velocity": 0.4881889763779528
        },
        {
          "duration": 0.07500000000000284,
          "durationTicks": 144,
          "midi": 61,
          "name": "C#4",
          "ticks": 142464,
          "time": 74.2,
          "velocity": 0.4881889763779528
        },
        {
          "duration": 0.07500000000000284,
          "durationTicks": 144,
          "midi": 52,
          "name": "E3",
          "ticks": 142656,
          "time": 74.3,
          "velocity": 0.4881889763779528
        },
        {
          "duration": 0.07500000000000284,
          "durationTicks": 144,
          "midi": 62,
          "name": "D4",
          "ticks": 142848,
          "time": 74.4,
          "velocity": 0.4881889763779528
        },
        {
          "duration": 0.07500000000000284,
          "durationTicks": 144,
          "midi": 50,
          "name": "D3",
          "ticks": 142848,
          "time": 74.4,
          "velocity": 0.4881889763779528
        },
        {
          "duration": 0.07500000000000284,
          "durationTicks": 144,
          "midi": 53,
          "name": "F3",
          "ticks": 143040,
          "time": 74.5,
          "velocity": 0.4881889763779528
        },
        {
          "duration": 0.07499999999998863,
          "durationTicks": 144,
          "midi": 50,
          "name": "D3",
          "ticks": 143232,
          "time": 74.60000000000001,
          "velocity": 0.4881889763779528
        },
        {
          "duration": 0.07499999999998863,
          "durationTicks": 144,
          "midi": 62,
          "name": "D4",
          "ticks": 143232,
          "time": 74.60000000000001,
          "velocity": 0.4881889763779528
        },
        {
          "duration": 0.07500000000000284,
          "durationTicks": 144,
          "midi": 53,
          "name": "F3",
          "ticks": 143424,
          "time": 74.7,
          "velocity": 0.4881889763779528
        },
        {
          "duration": 0.07500000000000284,
          "durationTicks": 144,
          "midi": 62,
          "name": "D4",
          "ticks": 143616,
          "time": 74.8,
          "velocity": 0.4881889763779528
        },
        {
          "duration": 0.07500000000000284,
          "durationTicks": 144,
          "midi": 53,
          "name": "F3",
          "ticks": 143808,
          "time": 74.9,
          "velocity": 0.4881889763779528
        },
        {
          "duration": 0.07500000000000284,
          "durationTicks": 144,
          "midi": 50,
          "name": "D3",
          "ticks": 144000,
          "time": 75,
          "velocity": 0.4881889763779528
        },
        {
          "duration": 0.07500000000000284,
          "durationTicks": 144,
          "midi": 62,
          "name": "D4",
          "ticks": 144000,
          "time": 75,
          "velocity": 0.4881889763779528
        },
        {
          "duration": 0.07499999999998863,
          "durationTicks": 144,
          "midi": 53,
          "name": "F3",
          "ticks": 144192,
          "time": 75.10000000000001,
          "velocity": 0.4881889763779528
        },
        {
          "duration": 0.07500000000000284,
          "durationTicks": 144,
          "midi": 58,
          "name": "A#3",
          "ticks": 144384,
          "time": 75.2,
          "velocity": 0.4881889763779528
        },
        {
          "duration": 0.07500000000000284,
          "durationTicks": 144,
          "midi": 46,
          "name": "A#2",
          "ticks": 144384,
          "time": 75.2,
          "velocity": 0.4881889763779528
        },
        {
          "duration": 0.07500000000000284,
          "durationTicks": 144,
          "midi": 53,
          "name": "F3",
          "ticks": 144576,
          "time": 75.3,
          "velocity": 0.4881889763779528
        },
        {
          "duration": 0.07500000000000284,
          "durationTicks": 144,
          "midi": 46,
          "name": "A#2",
          "ticks": 144768,
          "time": 75.4,
          "velocity": 0.4881889763779528
        },
        {
          "duration": 0.07500000000000284,
          "durationTicks": 144,
          "midi": 58,
          "name": "A#3",
          "ticks": 144768,
          "time": 75.4,
          "velocity": 0.4881889763779528
        },
        {
          "duration": 0.07500000000000284,
          "durationTicks": 144,
          "midi": 53,
          "name": "F3",
          "ticks": 144960,
          "time": 75.5,
          "velocity": 0.4881889763779528
        },
        {
          "duration": 0.07499999999998863,
          "durationTicks": 144,
          "midi": 58,
          "name": "A#3",
          "ticks": 145152,
          "time": 75.60000000000001,
          "velocity": 0.4881889763779528
        },
        {
          "duration": 0.07500000000000284,
          "durationTicks": 144,
          "midi": 53,
          "name": "F3",
          "ticks": 145344,
          "time": 75.7,
          "velocity": 0.4881889763779528
        },
        {
          "duration": 0.07500000000000284,
          "durationTicks": 144,
          "midi": 58,
          "name": "A#3",
          "ticks": 145536,
          "time": 75.8,
          "velocity": 0.4881889763779528
        },
        {
          "duration": 0.07500000000000284,
          "durationTicks": 144,
          "midi": 53,
          "name": "F3",
          "ticks": 145728,
          "time": 75.9,
          "velocity": 0.4881889763779528
        },
        {
          "duration": 0.07500000000000284,
          "durationTicks": 144,
          "midi": 49,
          "name": "C#3",
          "ticks": 145920,
          "time": 76,
          "velocity": 0.4881889763779528
        },
        {
          "duration": 0.07500000000000284,
          "durationTicks": 144,
          "midi": 61,
          "name": "C#4",
          "ticks": 145920,
          "time": 76,
          "velocity": 0.4881889763779528
        },
        {
          "duration": 0.07499999999998863,
          "durationTicks": 144,
          "midi": 52,
          "name": "E3",
          "ticks": 146112,
          "time": 76.10000000000001,
          "velocity": 0.4881889763779528
        },
        {
          "duration": 0.07500000000000284,
          "durationTicks": 144,
          "midi": 58,
          "name": "A#3",
          "ticks": 146304,
          "time": 76.2,
          "velocity": 0.4881889763779528
        },
        {
          "duration": 0.07500000000000284,
          "durationTicks": 144,
          "midi": 52,
          "name": "E3",
          "ticks": 146496,
          "time": 76.3,
          "velocity": 0.4881889763779528
        },
        {
          "duration": 0.07500000000000284,
          "durationTicks": 144,
          "midi": 50,
          "name": "D3",
          "ticks": 146688,
          "time": 76.4,
          "velocity": 0.4881889763779528
        },
        {
          "duration": 0.07500000000000284,
          "durationTicks": 144,
          "midi": 48,
          "name": "C3",
          "ticks": 146880,
          "time": 76.5,
          "velocity": 0.4881889763779528
        },
        {
          "duration": 0.07499999999998863,
          "durationTicks": 144,
          "midi": 45,
          "name": "A2",
          "ticks": 147072,
          "time": 76.60000000000001,
          "velocity": 0.4881889763779528
        },
        {
          "duration": 0.07500000000000284,
          "durationTicks": 144,
          "midi": 43,
          "name": "G2",
          "ticks": 147264,
          "time": 76.7,
          "velocity": 0.4881889763779528
        },
        {
          "duration": 0.07499999999998863,
          "durationTicks": 144,
          "midi": 46,
          "name": "A#2",
          "ticks": 147456,
          "time": 76.80000000000001,
          "velocity": 0.4881889763779528
        },
        {
          "duration": 0.07500000000000284,
          "durationTicks": 144,
          "midi": 41,
          "name": "F2",
          "ticks": 147648,
          "time": 76.9,
          "velocity": 0.4881889763779528
        },
        {
          "duration": 0.07500000000000284,
          "durationTicks": 144,
          "midi": 46,
          "name": "A#2",
          "ticks": 147840,
          "time": 77,
          "velocity": 0.4881889763779528
        },
        {
          "duration": 0.17500000000001137,
          "durationTicks": 336,
          "midi": 58,
          "name": "A#3",
          "ticks": 147840,
          "time": 77,
          "velocity": 0.4881889763779528
        },
        {
          "duration": 0.07500000000000284,
          "durationTicks": 144,
          "midi": 41,
          "name": "F2",
          "ticks": 148032,
          "time": 77.10000000000001,
          "velocity": 0.4881889763779528
        },
        {
          "duration": 0.07500000000000284,
          "durationTicks": 144,
          "midi": 46,
          "name": "A#2",
          "ticks": 148224,
          "time": 77.2,
          "velocity": 0.4881889763779528
        },
        {
          "duration": 0.07500000000000284,
          "durationTicks": 144,
          "midi": 57,
          "name": "A3",
          "ticks": 148224,
          "time": 77.2,
          "velocity": 0.4881889763779528
        },
        {
          "duration": 0.07499999999998863,
          "durationTicks": 144,
          "midi": 55,
          "name": "G3",
          "ticks": 148416,
          "time": 77.30000000000001,
          "velocity": 0.4881889763779528
        },
        {
          "duration": 0.07500000000000284,
          "durationTicks": 144,
          "midi": 58,
          "name": "A#3",
          "ticks": 148608,
          "time": 77.4,
          "velocity": 0.4881889763779528
        },
        {
          "duration": 0.07500000000000284,
          "durationTicks": 144,
          "midi": 53,
          "name": "F3",
          "ticks": 148608,
          "time": 77.4,
          "velocity": 0.4881889763779528
        },
        {
          "duration": 0.07500000000000284,
          "durationTicks": 144,
          "midi": 50,
          "name": "D3",
          "ticks": 148800,
          "time": 77.5,
          "velocity": 0.4881889763779528
        },
        {
          "duration": 0.07500000000000284,
          "durationTicks": 144,
          "midi": 46,
          "name": "A#2",
          "ticks": 148992,
          "time": 77.60000000000001,
          "velocity": 0.4881889763779528
        },
        {
          "duration": 0.07500000000000284,
          "durationTicks": 144,
          "midi": 41,
          "name": "F2",
          "ticks": 149184,
          "time": 77.7,
          "velocity": 0.4881889763779528
        },
        {
          "duration": 0.17499999999999716,
          "durationTicks": 336,
          "midi": 58,
          "name": "A#3",
          "ticks": 149376,
          "time": 77.80000000000001,
          "velocity": 0.4881889763779528
        },
        {
          "duration": 0.07499999999998863,
          "durationTicks": 144,
          "midi": 46,
          "name": "A#2",
          "ticks": 149376,
          "time": 77.80000000000001,
          "velocity": 0.4881889763779528
        },
        {
          "duration": 0.07500000000000284,
          "durationTicks": 144,
          "midi": 41,
          "name": "F2",
          "ticks": 149568,
          "time": 77.9,
          "velocity": 0.4881889763779528
        },
        {
          "duration": 0.07500000000000284,
          "durationTicks": 144,
          "midi": 46,
          "name": "A#2",
          "ticks": 149760,
          "time": 78,
          "velocity": 0.4881889763779528
        },
        {
          "duration": 0.07500000000000284,
          "durationTicks": 144,
          "midi": 57,
          "name": "A3",
          "ticks": 149760,
          "time": 78,
          "velocity": 0.4881889763779528
        },
        {
          "duration": 0.07500000000000284,
          "durationTicks": 144,
          "midi": 55,
          "name": "G3",
          "ticks": 149952,
          "time": 78.10000000000001,
          "velocity": 0.4881889763779528
        },
        {
          "duration": 0.07500000000000284,
          "durationTicks": 144,
          "midi": 58,
          "name": "A#3",
          "ticks": 150144,
          "time": 78.2,
          "velocity": 0.4881889763779528
        },
        {
          "duration": 0.07500000000000284,
          "durationTicks": 144,
          "midi": 53,
          "name": "F3",
          "ticks": 150144,
          "time": 78.2,
          "velocity": 0.4881889763779528
        },
        {
          "duration": 0.07499999999998863,
          "durationTicks": 144,
          "midi": 50,
          "name": "D3",
          "ticks": 150336,
          "time": 78.30000000000001,
          "velocity": 0.4881889763779528
        },
        {
          "duration": 0.07500000000000284,
          "durationTicks": 144,
          "midi": 45,
          "name": "A2",
          "ticks": 150528,
          "time": 78.4,
          "velocity": 0.4881889763779528
        },
        {
          "duration": 0.07500000000000284,
          "durationTicks": 144,
          "midi": 40,
          "name": "E2",
          "ticks": 150720,
          "time": 78.5,
          "velocity": 0.4881889763779528
        },
        {
          "duration": 0.17499999999999716,
          "durationTicks": 336,
          "midi": 57,
          "name": "A3",
          "ticks": 150912,
          "time": 78.60000000000001,
          "velocity": 0.4881889763779528
        },
        {
          "duration": 0.07500000000000284,
          "durationTicks": 144,
          "midi": 45,
          "name": "A2",
          "ticks": 150912,
          "time": 78.60000000000001,
          "velocity": 0.4881889763779528
        },
        {
          "duration": 0.07500000000000284,
          "durationTicks": 144,
          "midi": 40,
          "name": "E2",
          "ticks": 151104,
          "time": 78.7,
          "velocity": 0.4881889763779528
        },
        {
          "duration": 0.07499999999998863,
          "durationTicks": 144,
          "midi": 45,
          "name": "A2",
          "ticks": 151296,
          "time": 78.80000000000001,
          "velocity": 0.4881889763779528
        },
        {
          "duration": 0.07499999999998863,
          "durationTicks": 144,
          "midi": 55,
          "name": "G3",
          "ticks": 151296,
          "time": 78.80000000000001,
          "velocity": 0.4881889763779528
        },
        {
          "duration": 0.07500000000000284,
          "durationTicks": 144,
          "midi": 53,
          "name": "F3",
          "ticks": 151488,
          "time": 78.9,
          "velocity": 0.4881889763779528
        },
        {
          "duration": 0.07500000000000284,
          "durationTicks": 144,
          "midi": 57,
          "name": "A3",
          "ticks": 151680,
          "time": 79,
          "velocity": 0.4881889763779528
        },
        {
          "duration": 0.07500000000000284,
          "durationTicks": 144,
          "midi": 52,
          "name": "E3",
          "ticks": 151680,
          "time": 79,
          "velocity": 0.4881889763779528
        },
        {
          "duration": 0.07500000000000284,
          "durationTicks": 144,
          "midi": 49,
          "name": "C#3",
          "ticks": 151872,
          "time": 79.10000000000001,
          "velocity": 0.4881889763779528
        },
        {
          "duration": 0.07500000000000284,
          "durationTicks": 144,
          "midi": 45,
          "name": "A2",
          "ticks": 152064,
          "time": 79.2,
          "velocity": 0.4881889763779528
        },
        {
          "duration": 0.07499999999998863,
          "durationTicks": 144,
          "midi": 40,
          "name": "E2",
          "ticks": 152256,
          "time": 79.30000000000001,
          "velocity": 0.4881889763779528
        },
        {
          "duration": 0.17499999999999716,
          "durationTicks": 336,
          "midi": 57,
          "name": "A3",
          "ticks": 152448,
          "time": 79.4,
          "velocity": 0.4881889763779528
        },
        {
          "duration": 0.07500000000000284,
          "durationTicks": 144,
          "midi": 45,
          "name": "A2",
          "ticks": 152448,
          "time": 79.4,
          "velocity": 0.4881889763779528
        },
        {
          "duration": 0.07500000000000284,
          "durationTicks": 144,
          "midi": 40,
          "name": "E2",
          "ticks": 152640,
          "time": 79.5,
          "velocity": 0.4881889763779528
        },
        {
          "duration": 0.07500000000000284,
          "durationTicks": 144,
          "midi": 55,
          "name": "G3",
          "ticks": 152832,
          "time": 79.60000000000001,
          "velocity": 0.4881889763779528
        },
        {
          "duration": 0.07500000000000284,
          "durationTicks": 144,
          "midi": 45,
          "name": "A2",
          "ticks": 152832,
          "time": 79.60000000000001,
          "velocity": 0.4881889763779528
        },
        {
          "duration": 0.07500000000000284,
          "durationTicks": 144,
          "midi": 53,
          "name": "F3",
          "ticks": 153024,
          "time": 79.7,
          "velocity": 0.4881889763779528
        },
        {
          "duration": 0.07499999999998863,
          "durationTicks": 144,
          "midi": 57,
          "name": "A3",
          "ticks": 153216,
          "time": 79.80000000000001,
          "velocity": 0.4881889763779528
        },
        {
          "duration": 0.07499999999998863,
          "durationTicks": 144,
          "midi": 52,
          "name": "E3",
          "ticks": 153216,
          "time": 79.80000000000001,
          "velocity": 0.4881889763779528
        },
        {
          "duration": 0.07500000000000284,
          "durationTicks": 144,
          "midi": 49,
          "name": "C#3",
          "ticks": 153408,
          "time": 79.9,
          "velocity": 0.4881889763779528
        },
        {
          "duration": 0.07500000000000284,
          "durationTicks": 144,
          "midi": 43,
          "name": "G2",
          "ticks": 153600,
          "time": 80,
          "velocity": 0.4881889763779528
        },
        {
          "duration": 0.07500000000000284,
          "durationTicks": 144,
          "midi": 62,
          "name": "D4",
          "ticks": 153792,
          "time": 80.10000000000001,
          "velocity": 0.4881889763779528
        },
        {
          "duration": 0.07500000000000284,
          "durationTicks": 144,
          "midi": 46,
          "name": "A#2",
          "ticks": 153792,
          "time": 80.10000000000001,
          "velocity": 0.4881889763779528
        },
        {
          "duration": 0.07500000000000284,
          "durationTicks": 144,
          "midi": 43,
          "name": "G2",
          "ticks": 153984,
          "time": 80.2,
          "velocity": 0.4881889763779528
        },
        {
          "duration": 0.07499999999998863,
          "durationTicks": 144,
          "midi": 58,
          "name": "A#3",
          "ticks": 154176,
          "time": 80.30000000000001,
          "velocity": 0.4881889763779528
        },
        {
          "duration": 0.07499999999998863,
          "durationTicks": 144,
          "midi": 46,
          "name": "A#2",
          "ticks": 154176,
          "time": 80.30000000000001,
          "velocity": 0.4881889763779528
        },
        {
          "duration": 0.07500000000000284,
          "durationTicks": 144,
          "midi": 43,
          "name": "G2",
          "ticks": 154368,
          "time": 80.4,
          "velocity": 0.4881889763779528
        },
        {
          "duration": 0.17499999999999716,
          "durationTicks": 336,
          "midi": 50,
          "name": "D3",
          "ticks": 154368,
          "time": 80.4,
          "velocity": 0.4881889763779528
        },
        {
          "duration": 0.07500000000000284,
          "durationTicks": 144,
          "midi": 46,
          "name": "A#2",
          "ticks": 154560,
          "time": 80.5,
          "velocity": 0.4881889763779528
        },
        {
          "duration": 0.07500000000000284,
          "durationTicks": 144,
          "midi": 62,
          "name": "D4",
          "ticks": 154560,
          "time": 80.5,
          "velocity": 0.4881889763779528
        },
        {
          "duration": 0.7749999999999915,
          "durationTicks": 1488,
          "midi": 55,
          "name": "G3",
          "ticks": 154752,
          "time": 80.60000000000001,
          "velocity": 0.4881889763779528
        },
        {
          "duration": 0.07500000000000284,
          "durationTicks": 144,
          "midi": 46,
          "name": "A#2",
          "ticks": 154752,
          "time": 80.60000000000001,
          "velocity": 0.4881889763779528
        },
        {
          "duration": 0.07500000000000284,
          "durationTicks": 144,
          "midi": 58,
          "name": "A#3",
          "ticks": 154944,
          "time": 80.7,
          "velocity": 0.4881889763779528
        },
        {
          "duration": 0.07500000000000284,
          "durationTicks": 144,
          "midi": 46,
          "name": "A#2",
          "ticks": 154944,
          "time": 80.7,
          "velocity": 0.4881889763779528
        },
        {
          "duration": 0.07499999999998863,
          "durationTicks": 144,
          "midi": 43,
          "name": "G2",
          "ticks": 155136,
          "time": 80.80000000000001,
          "velocity": 0.4881889763779528
        },
        {
          "duration": 0.07500000000000284,
          "durationTicks": 144,
          "midi": 46,
          "name": "A#2",
          "ticks": 155328,
          "time": 80.9,
          "velocity": 0.4881889763779528
        },
        {
          "duration": 0.07500000000000284,
          "durationTicks": 144,
          "midi": 43,
          "name": "G2",
          "ticks": 155520,
          "time": 81,
          "velocity": 0.4881889763779528
        },
        {
          "duration": 0.07500000000000284,
          "durationTicks": 144,
          "midi": 46,
          "name": "A#2",
          "ticks": 155712,
          "time": 81.10000000000001,
          "velocity": 0.4881889763779528
        },
        {
          "duration": 0.07500000000000284,
          "durationTicks": 144,
          "midi": 43,
          "name": "G2",
          "ticks": 155904,
          "time": 81.2,
          "velocity": 0.4881889763779528
        },
        {
          "duration": 0.07500000000000284,
          "durationTicks": 144,
          "midi": 46,
          "name": "A#2",
          "ticks": 155904,
          "time": 81.2,
          "velocity": 0.4881889763779528
        },
        {
          "duration": 0.07499999999998863,
          "durationTicks": 144,
          "midi": 46,
          "name": "A#2",
          "ticks": 156096,
          "time": 81.30000000000001,
          "velocity": 0.4881889763779528
        },
        {
          "duration": 0.07500000000000284,
          "durationTicks": 144,
          "midi": 50,
          "name": "D3",
          "ticks": 156288,
          "time": 81.4,
          "velocity": 0.4881889763779528
        },
        {
          "duration": 0.07500000000000284,
          "durationTicks": 144,
          "midi": 43,
          "name": "G2",
          "ticks": 156480,
          "time": 81.5,
          "velocity": 0.4881889763779528
        },
        {
          "duration": 0.42500000000001137,
          "durationTicks": 816,
          "midi": 53,
          "name": "F3",
          "ticks": 156480,
          "time": 81.5,
          "velocity": 0.4881889763779528
        },
        {
          "duration": 0.07500000000000284,
          "durationTicks": 144,
          "midi": 41,
          "name": "F2",
          "ticks": 156672,
          "time": 81.60000000000001,
          "velocity": 0.4881889763779528
        },
        {
          "duration": 0.07500000000000284,
          "durationTicks": 144,
          "midi": 43,
          "name": "G2",
          "ticks": 156864,
          "time": 81.7,
          "velocity": 0.4881889763779528
        },
        {
          "duration": 0.07499999999998863,
          "durationTicks": 144,
          "midi": 41,
          "name": "F2",
          "ticks": 157056,
          "time": 81.80000000000001,
          "velocity": 0.4881889763779528
        },
        {
          "duration": 0.07500000000000284,
          "durationTicks": 144,
          "midi": 43,
          "name": "G2",
          "ticks": 157248,
          "time": 81.9,
          "velocity": 0.4881889763779528
        },
        {
          "duration": 0.07500000000000284,
          "durationTicks": 144,
          "midi": 53,
          "name": "F3",
          "ticks": 157440,
          "time": 82,
          "velocity": 0.4881889763779528
        },
        {
          "duration": 0.07500000000000284,
          "durationTicks": 144,
          "midi": 41,
          "name": "F2",
          "ticks": 157440,
          "time": 82,
          "velocity": 0.4881889763779528
        },
        {
          "duration": 0.07500000000000284,
          "durationTicks": 144,
          "midi": 43,
          "name": "G2",
          "ticks": 157632,
          "time": 82.10000000000001,
          "velocity": 0.4881889763779528
        },
        {
          "duration": 0.07500000000000284,
          "durationTicks": 144,
          "midi": 53,
          "name": "F3",
          "ticks": 157824,
          "time": 82.2,
          "velocity": 0.4881889763779528
        },
        {
          "duration": 0.07500000000000284,
          "durationTicks": 144,
          "midi": 55,
          "name": "G3",
          "ticks": 157824,
          "time": 82.2,
          "velocity": 0.4881889763779528
        },
        {
          "duration": 0.07499999999998863,
          "durationTicks": 144,
          "midi": 43,
          "name": "G2",
          "ticks": 158016,
          "time": 82.30000000000001,
          "velocity": 0.4881889763779528
        },
        {
          "duration": 0.07500000000000284,
          "durationTicks": 144,
          "midi": 45,
          "name": "A2",
          "ticks": 158208,
          "time": 82.4,
          "velocity": 0.4881889763779528
        },
        {
          "duration": 0.07500000000000284,
          "durationTicks": 144,
          "midi": 48,
          "name": "C3",
          "ticks": 158400,
          "time": 82.5,
          "velocity": 0.4881889763779528
        },
        {
          "duration": 0.07500000000000284,
          "durationTicks": 144,
          "midi": 41,
          "name": "F2",
          "ticks": 158592,
          "time": 82.60000000000001,
          "velocity": 0.4881889763779528
        },
        {
          "duration": 0.07500000000000284,
          "durationTicks": 144,
          "midi": 56,
          "name": "G#3",
          "ticks": 158592,
          "time": 82.60000000000001,
          "velocity": 0.4881889763779528
        },
        {
          "duration": 0.07500000000000284,
          "durationTicks": 144,
          "midi": 45,
          "name": "A2",
          "ticks": 158784,
          "time": 82.7,
          "velocity": 0.4881889763779528
        },
        {
          "duration": 0.07499999999998863,
          "durationTicks": 144,
          "midi": 43,
          "name": "G2",
          "ticks": 158976,
          "time": 82.80000000000001,
          "velocity": 0.4881889763779528
        },
        {
          "duration": 0.07500000000000284,
          "durationTicks": 144,
          "midi": 45,
          "name": "A2",
          "ticks": 159168,
          "time": 82.9,
          "velocity": 0.4881889763779528
        },
        {
          "duration": 0.07500000000000284,
          "durationTicks": 144,
          "midi": 54,
          "name": "F#3",
          "ticks": 159360,
          "time": 83,
          "velocity": 0.4881889763779528
        },
        {
          "duration": 0.07500000000000284,
          "durationTicks": 144,
          "midi": 41,
          "name": "F2",
          "ticks": 159360,
          "time": 83,
          "velocity": 0.4881889763779528
        },
        {
          "duration": 0.07500000000000284,
          "durationTicks": 144,
          "midi": 43,
          "name": "G2",
          "ticks": 159552,
          "time": 83.10000000000001,
          "velocity": 0.4881889763779528
        },
        {
          "duration": 0.07500000000000284,
          "durationTicks": 144,
          "midi": 46,
          "name": "A#2",
          "ticks": 159744,
          "time": 83.2,
          "velocity": 0.4881889763779528
        },
        {
          "duration": 0.07499999999998863,
          "durationTicks": 144,
          "midi": 41,
          "name": "F2",
          "ticks": 159936,
          "time": 83.30000000000001,
          "velocity": 0.4881889763779528
        },
        {
          "duration": 0.07500000000000284,
          "durationTicks": 144,
          "midi": 46,
          "name": "A#2",
          "ticks": 160128,
          "time": 83.4,
          "velocity": 0.4881889763779528
        },
        {
          "duration": 0.17499999999999716,
          "durationTicks": 336,
          "midi": 58,
          "name": "A#3",
          "ticks": 160128,
          "time": 83.4,
          "velocity": 0.4881889763779528
        },
        {
          "duration": 0.07500000000000284,
          "durationTicks": 144,
          "midi": 41,
          "name": "F2",
          "ticks": 160320,
          "time": 83.5,
          "velocity": 0.4881889763779528
        },
        {
          "duration": 0.07500000000000284,
          "durationTicks": 144,
          "midi": 46,
          "name": "A#2",
          "ticks": 160512,
          "time": 83.60000000000001,
          "velocity": 0.4881889763779528
        },
        {
          "duration": 0.07500000000000284,
          "durationTicks": 144,
          "midi": 57,
          "name": "A3",
          "ticks": 160512,
          "time": 83.60000000000001,
          "velocity": 0.4881889763779528
        },
        {
          "duration": 0.07500000000000284,
          "durationTicks": 144,
          "midi": 55,
          "name": "G3",
          "ticks": 160704,
          "time": 83.7,
          "velocity": 0.4881889763779528
        },
        {
          "duration": 0.07499999999998863,
          "durationTicks": 144,
          "midi": 58,
          "name": "A#3",
          "ticks": 160896,
          "time": 83.80000000000001,
          "velocity": 0.4881889763779528
        },
        {
          "duration": 0.07499999999998863,
          "durationTicks": 144,
          "midi": 53,
          "name": "F3",
          "ticks": 160896,
          "time": 83.80000000000001,
          "velocity": 0.4881889763779528
        },
        {
          "duration": 0.07500000000000284,
          "durationTicks": 144,
          "midi": 50,
          "name": "D3",
          "ticks": 161088,
          "time": 83.9,
          "velocity": 0.4881889763779528
        },
        {
          "duration": 0.07500000000000284,
          "durationTicks": 144,
          "midi": 46,
          "name": "A#2",
          "ticks": 161280,
          "time": 84,
          "velocity": 0.4881889763779528
        },
        {
          "duration": 0.07500000000000284,
          "durationTicks": 144,
          "midi": 41,
          "name": "F2",
          "ticks": 161472,
          "time": 84.10000000000001,
          "velocity": 0.4881889763779528
        },
        {
          "duration": 0.17499999999999716,
          "durationTicks": 336,
          "midi": 58,
          "name": "A#3",
          "ticks": 161664,
          "time": 84.2,
          "velocity": 0.4881889763779528
        },
        {
          "duration": 0.07500000000000284,
          "durationTicks": 144,
          "midi": 46,
          "name": "A#2",
          "ticks": 161664,
          "time": 84.2,
          "velocity": 0.4881889763779528
        },
        {
          "duration": 0.07499999999998863,
          "durationTicks": 144,
          "midi": 41,
          "name": "F2",
          "ticks": 161856,
          "time": 84.30000000000001,
          "velocity": 0.4881889763779528
        },
        {
          "duration": 0.07500000000000284,
          "durationTicks": 144,
          "midi": 57,
          "name": "A3",
          "ticks": 162048,
          "time": 84.4,
          "velocity": 0.4881889763779528
        },
        {
          "duration": 0.07500000000000284,
          "durationTicks": 144,
          "midi": 46,
          "name": "A#2",
          "ticks": 162048,
          "time": 84.4,
          "velocity": 0.4881889763779528
        },
        {
          "duration": 0.07500000000000284,
          "durationTicks": 144,
          "midi": 55,
          "name": "G3",
          "ticks": 162240,
          "time": 84.5,
          "velocity": 0.4881889763779528
        },
        {
          "duration": 0.07500000000000284,
          "durationTicks": 144,
          "midi": 53,
          "name": "F3",
          "ticks": 162432,
          "time": 84.60000000000001,
          "velocity": 0.4881889763779528
        },
        {
          "duration": 0.07500000000000284,
          "durationTicks": 144,
          "midi": 58,
          "name": "A#3",
          "ticks": 162432,
          "time": 84.60000000000001,
          "velocity": 0.4881889763779528
        },
        {
          "duration": 0.07500000000000284,
          "durationTicks": 144,
          "midi": 50,
          "name": "D3",
          "ticks": 162624,
          "time": 84.7,
          "velocity": 0.4881889763779528
        },
        {
          "duration": 0.07499999999998863,
          "durationTicks": 144,
          "midi": 45,
          "name": "A2",
          "ticks": 162816,
          "time": 84.80000000000001,
          "velocity": 0.4881889763779528
        },
        {
          "duration": 0.07500000000000284,
          "durationTicks": 144,
          "midi": 40,
          "name": "E2",
          "ticks": 163008,
          "time": 84.9,
          "velocity": 0.4881889763779528
        },
        {
          "duration": 0.17500000000001137,
          "durationTicks": 336,
          "midi": 57,
          "name": "A3",
          "ticks": 163200,
          "time": 85,
          "velocity": 0.4881889763779528
        },
        {
          "duration": 0.07500000000000284,
          "durationTicks": 144,
          "midi": 45,
          "name": "A2",
          "ticks": 163200,
          "time": 85,
          "velocity": 0.4881889763779528
        },
        {
          "duration": 0.07500000000000284,
          "durationTicks": 144,
          "midi": 40,
          "name": "E2",
          "ticks": 163392,
          "time": 85.10000000000001,
          "velocity": 0.4881889763779528
        },
        {
          "duration": 0.07500000000000284,
          "durationTicks": 144,
          "midi": 45,
          "name": "A2",
          "ticks": 163584,
          "time": 85.2,
          "velocity": 0.4881889763779528
        },
        {
          "duration": 0.07500000000000284,
          "durationTicks": 144,
          "midi": 55,
          "name": "G3",
          "ticks": 163584,
          "time": 85.2,
          "velocity": 0.4881889763779528
        },
        {
          "duration": 0.07499999999998863,
          "durationTicks": 144,
          "midi": 53,
          "name": "F3",
          "ticks": 163776,
          "time": 85.30000000000001,
          "velocity": 0.4881889763779528
        },
        {
          "duration": 0.07500000000000284,
          "durationTicks": 144,
          "midi": 57,
          "name": "A3",
          "ticks": 163968,
          "time": 85.4,
          "velocity": 0.4881889763779528
        },
        {
          "duration": 0.07500000000000284,
          "durationTicks": 144,
          "midi": 52,
          "name": "E3",
          "ticks": 163968,
          "time": 85.4,
          "velocity": 0.4881889763779528
        },
        {
          "duration": 0.07500000000000284,
          "durationTicks": 144,
          "midi": 49,
          "name": "C#3",
          "ticks": 164160,
          "time": 85.5,
          "velocity": 0.4881889763779528
        },
        {
          "duration": 0.07500000000000284,
          "durationTicks": 144,
          "midi": 45,
          "name": "A2",
          "ticks": 164352,
          "time": 85.60000000000001,
          "velocity": 0.4881889763779528
        },
        {
          "duration": 0.07500000000000284,
          "durationTicks": 144,
          "midi": 40,
          "name": "E2",
          "ticks": 164544,
          "time": 85.7,
          "velocity": 0.4881889763779528
        },
        {
          "duration": 0.07499999999998863,
          "durationTicks": 144,
          "midi": 45,
          "name": "A2",
          "ticks": 164736,
          "time": 85.80000000000001,
          "velocity": 0.4881889763779528
        },
        {
          "duration": 0.17499999999999716,
          "durationTicks": 336,
          "midi": 57,
          "name": "A3",
          "ticks": 164736,
          "time": 85.80000000000001,
          "velocity": 0.4881889763779528
        },
        {
          "duration": 0.07500000000000284,
          "durationTicks": 144,
          "midi": 40,
          "name": "E2",
          "ticks": 164928,
          "time": 85.9,
          "velocity": 0.4881889763779528
        },
        {
          "duration": 0.07500000000000284,
          "durationTicks": 144,
          "midi": 45,
          "name": "A2",
          "ticks": 165120,
          "time": 86,
          "velocity": 0.4881889763779528
        },
        {
          "duration": 0.07500000000000284,
          "durationTicks": 144,
          "midi": 55,
          "name": "G3",
          "ticks": 165120,
          "time": 86,
          "velocity": 0.4881889763779528
        },
        {
          "duration": 0.07500000000000284,
          "durationTicks": 144,
          "midi": 53,
          "name": "F3",
          "ticks": 165312,
          "time": 86.10000000000001,
          "velocity": 0.4881889763779528
        },
        {
          "duration": 0.07500000000000284,
          "durationTicks": 144,
          "midi": 52,
          "name": "E3",
          "ticks": 165504,
          "time": 86.2,
          "velocity": 0.4881889763779528
        },
        {
          "duration": 0.07500000000000284,
          "durationTicks": 144,
          "midi": 57,
          "name": "A3",
          "ticks": 165504,
          "time": 86.2,
          "velocity": 0.4881889763779528
        },
        {
          "duration": 0.07499999999998863,
          "durationTicks": 144,
          "midi": 49,
          "name": "C#3",
          "ticks": 165696,
          "time": 86.30000000000001,
          "velocity": 0.4881889763779528
        },
        {
          "duration": 0.07500000000000284,
          "durationTicks": 144,
          "midi": 43,
          "name": "G2",
          "ticks": 165888,
          "time": 86.4,
          "velocity": 0.4881889763779528
        },
        {
          "duration": 0.07500000000000284,
          "durationTicks": 144,
          "midi": 46,
          "name": "A#2",
          "ticks": 166080,
          "time": 86.5,
          "velocity": 0.4881889763779528
        },
        {
          "duration": 0.07500000000000284,
          "durationTicks": 144,
          "midi": 62,
          "name": "D4",
          "ticks": 166080,
          "time": 86.5,
          "velocity": 0.4881889763779528
        },
        {
          "duration": 0.07500000000000284,
          "durationTicks": 144,
          "midi": 43,
          "name": "G2",
          "ticks": 166272,
          "time": 86.60000000000001,
          "velocity": 0.4881889763779528
        },
        {
          "duration": 0.07500000000000284,
          "durationTicks": 144,
          "midi": 46,
          "name": "A#2",
          "ticks": 166464,
          "time": 86.7,
          "velocity": 0.4881889763779528
        },
        {
          "duration": 0.07500000000000284,
          "durationTicks": 144,
          "midi": 58,
          "name": "A#3",
          "ticks": 166464,
          "time": 86.7,
          "velocity": 0.4881889763779528
        },
        {
          "duration": 0.07499999999998863,
          "durationTicks": 144,
          "midi": 43,
          "name": "G2",
          "ticks": 166656,
          "time": 86.80000000000001,
          "velocity": 0.4881889763779528
        },
        {
          "duration": 0.07499999999998863,
          "durationTicks": 144,
          "midi": 50,
          "name": "D3",
          "ticks": 166656,
          "time": 86.80000000000001,
          "velocity": 0.4881889763779528
        },
        {
          "duration": 0.07500000000000284,
          "durationTicks": 144,
          "midi": 62,
          "name": "D4",
          "ticks": 166848,
          "time": 86.9,
          "velocity": 0.4881889763779528
        },
        {
          "duration": 0.07500000000000284,
          "durationTicks": 144,
          "midi": 46,
          "name": "A#2",
          "ticks": 166848,
          "time": 86.9,
          "velocity": 0.4881889763779528
        },
        {
          "duration": 0.07500000000000284,
          "durationTicks": 144,
          "midi": 46,
          "name": "A#2",
          "ticks": 167040,
          "time": 87,
          "velocity": 0.4881889763779528
        },
        {
          "duration": 0.07500000000000284,
          "durationTicks": 144,
          "midi": 55,
          "name": "G3",
          "ticks": 167040,
          "time": 87,
          "velocity": 0.4881889763779528
        },
        {
          "duration": 0.07500000000000284,
          "durationTicks": 144,
          "midi": 46,
          "name": "A#2",
          "ticks": 167232,
          "time": 87.10000000000001,
          "velocity": 0.4881889763779528
        },
        {
          "duration": 0.07500000000000284,
          "durationTicks": 144,
          "midi": 58,
          "name": "A#3",
          "ticks": 167232,
          "time": 87.10000000000001,
          "velocity": 0.4881889763779528
        },
        {
          "duration": 0.07500000000000284,
          "durationTicks": 144,
          "midi": 43,
          "name": "G2",
          "ticks": 167424,
          "time": 87.2,
          "velocity": 0.4881889763779528
        },
        {
          "duration": 0.07499999999998863,
          "durationTicks": 144,
          "midi": 58,
          "name": "A#3",
          "ticks": 167616,
          "time": 87.30000000000001,
          "velocity": 0.4881889763779528
        },
        {
          "duration": 0.07499999999998863,
          "durationTicks": 144,
          "midi": 46,
          "name": "A#2",
          "ticks": 167616,
          "time": 87.30000000000001,
          "velocity": 0.4881889763779528
        },
        {
          "duration": 0.07500000000000284,
          "durationTicks": 144,
          "midi": 43,
          "name": "G2",
          "ticks": 167808,
          "time": 87.4,
          "velocity": 0.4881889763779528
        },
        {
          "duration": 0.07500000000000284,
          "durationTicks": 144,
          "midi": 46,
          "name": "A#2",
          "ticks": 168000,
          "time": 87.5,
          "velocity": 0.4881889763779528
        },
        {
          "duration": 0.07500000000000284,
          "durationTicks": 144,
          "midi": 58,
          "name": "A#3",
          "ticks": 168000,
          "time": 87.5,
          "velocity": 0.4881889763779528
        },
        {
          "duration": 0.07500000000000284,
          "durationTicks": 144,
          "midi": 46,
          "name": "A#2",
          "ticks": 168192,
          "time": 87.60000000000001,
          "velocity": 0.4881889763779528
        },
        {
          "duration": 0.07500000000000284,
          "durationTicks": 144,
          "midi": 43,
          "name": "G2",
          "ticks": 168192,
          "time": 87.60000000000001,
          "velocity": 0.4881889763779528
        },
        {
          "duration": 0.07500000000000284,
          "durationTicks": 144,
          "midi": 46,
          "name": "A#2",
          "ticks": 168384,
          "time": 87.7,
          "velocity": 0.4881889763779528
        },
        {
          "duration": 0.07500000000000284,
          "durationTicks": 144,
          "midi": 58,
          "name": "A#3",
          "ticks": 168384,
          "time": 87.7,
          "velocity": 0.4881889763779528
        },
        {
          "duration": 0.07499999999998863,
          "durationTicks": 144,
          "midi": 55,
          "name": "G3",
          "ticks": 168576,
          "time": 87.80000000000001,
          "velocity": 0.4881889763779528
        },
        {
          "duration": 0.07499999999998863,
          "durationTicks": 144,
          "midi": 50,
          "name": "D3",
          "ticks": 168576,
          "time": 87.80000000000001,
          "velocity": 0.4881889763779528
        },
        {
          "duration": 0.07500000000000284,
          "durationTicks": 144,
          "midi": 43,
          "name": "G2",
          "ticks": 168768,
          "time": 87.9,
          "velocity": 0.4881889763779528
        },
        {
          "duration": 0.07500000000000284,
          "durationTicks": 144,
          "midi": 58,
          "name": "A#3",
          "ticks": 168768,
          "time": 87.9,
          "velocity": 0.4881889763779528
        },
        {
          "duration": 0.07500000000000284,
          "durationTicks": 144,
          "midi": 41,
          "name": "F2",
          "ticks": 168960,
          "time": 88,
          "velocity": 0.4881889763779528
        },
        {
          "duration": 0.07500000000000284,
          "durationTicks": 144,
          "midi": 43,
          "name": "G2",
          "ticks": 169152,
          "time": 88.10000000000001,
          "velocity": 0.4881889763779528
        },
        {
          "duration": 0.07500000000000284,
          "durationTicks": 144,
          "midi": 41,
          "name": "F2",
          "ticks": 169344,
          "time": 88.2,
          "velocity": 0.4881889763779528
        },
        {
          "duration": 0.07499999999998863,
          "durationTicks": 144,
          "midi": 43,
          "name": "G2",
          "ticks": 169536,
          "time": 88.30000000000001,
          "velocity": 0.4881889763779528
        },
        {
          "duration": 0.07500000000000284,
          "durationTicks": 144,
          "midi": 41,
          "name": "F2",
          "ticks": 169728,
          "time": 88.4,
          "velocity": 0.4881889763779528
        },
        {
          "duration": 0.07500000000000284,
          "durationTicks": 144,
          "midi": 43,
          "name": "G2",
          "ticks": 169920,
          "time": 88.5,
          "velocity": 0.4881889763779528
        },
        {
          "duration": 0.07500000000000284,
          "durationTicks": 144,
          "midi": 41,
          "name": "F2",
          "ticks": 170112,
          "time": 88.60000000000001,
          "velocity": 0.4881889763779528
        },
        {
          "duration": 0.17499999999999716,
          "durationTicks": 336,
          "midi": 53,
          "name": "F3",
          "ticks": 170112,
          "time": 88.60000000000001,
          "velocity": 0.4881889763779528
        },
        {
          "duration": 0.07500000000000284,
          "durationTicks": 144,
          "midi": 43,
          "name": "G2",
          "ticks": 170304,
          "time": 88.7,
          "velocity": 0.4881889763779528
        },
        {
          "duration": 0.07499999999998863,
          "durationTicks": 144,
          "midi": 45,
          "name": "A2",
          "ticks": 170496,
          "time": 88.80000000000001,
          "velocity": 0.4881889763779528
        },
        {
          "duration": 0.17499999999999716,
          "durationTicks": 336,
          "midi": 57,
          "name": "A3",
          "ticks": 170496,
          "time": 88.80000000000001,
          "velocity": 0.4881889763779528
        },
        {
          "duration": 0.07500000000000284,
          "durationTicks": 144,
          "midi": 45,
          "name": "A2",
          "ticks": 170688,
          "time": 88.9,
          "velocity": 0.4881889763779528
        },
        {
          "duration": 0.17500000000001137,
          "durationTicks": 336,
          "midi": 56,
          "name": "G#3",
          "ticks": 170880,
          "time": 89,
          "velocity": 0.4881889763779528
        },
        {
          "duration": 0.07500000000000284,
          "durationTicks": 144,
          "midi": 48,
          "name": "C3",
          "ticks": 171072,
          "time": 89.10000000000001,
          "velocity": 0.4881889763779528
        },
        {
          "duration": 0.07500000000000284,
          "durationTicks": 144,
          "midi": 43,
          "name": "G2",
          "ticks": 171264,
          "time": 89.2,
          "velocity": 0.4881889763779528
        },
        {
          "duration": 0.17499999999999716,
          "durationTicks": 336,
          "midi": 55,
          "name": "G3",
          "ticks": 171264,
          "time": 89.2,
          "velocity": 0.4881889763779528
        },
        {
          "duration": 0.07499999999998863,
          "durationTicks": 144,
          "midi": 50,
          "name": "D3",
          "ticks": 171456,
          "time": 89.30000000000001,
          "velocity": 0.4881889763779528
        },
        {
          "duration": 0.17499999999999716,
          "durationTicks": 336,
          "midi": 54,
          "name": "F#3",
          "ticks": 171648,
          "time": 89.4,
          "velocity": 0.4881889763779528
        },
        {
          "duration": 0.07500000000000284,
          "durationTicks": 144,
          "midi": 52,
          "name": "E3",
          "ticks": 171840,
          "time": 89.5,
          "velocity": 0.4881889763779528
        },
        {
          "duration": 0.07500000000000284,
          "durationTicks": 144,
          "midi": 53,
          "name": "F3",
          "ticks": 172032,
          "time": 89.60000000000001,
          "velocity": 0.4881889763779528
        },
        {
          "duration": 0.07499999999998863,
          "durationTicks": 144,
          "midi": 53,
          "name": "F3",
          "ticks": 172416,
          "time": 89.80000000000001,
          "velocity": 0.4881889763779528
        },
        {
          "duration": 0.875,
          "durationTicks": 1680,
          "midi": 53,
          "name": "F3",
          "ticks": 172800,
          "time": 90,
          "velocity": 0.4881889763779528
        },
        {
          "duration": 0.07500000000000284,
          "durationTicks": 144,
          "midi": 65,
          "name": "F4",
          "ticks": 173184,
          "time": 90.2,
          "velocity": 0.4881889763779528
        },
        {
          "duration": 0.07500000000000284,
          "durationTicks": 144,
          "midi": 65,
          "name": "F4",
          "ticks": 173568,
          "time": 90.4,
          "velocity": 0.4881889763779528
        },
        {
          "duration": 0.07500000000000284,
          "durationTicks": 144,
          "midi": 74,
          "name": "D5",
          "ticks": 173952,
          "time": 90.60000000000001,
          "velocity": 0.4881889763779528
        },
        {
          "duration": 0.07499999999998863,
          "durationTicks": 144,
          "midi": 74,
          "name": "D5",
          "ticks": 174336,
          "time": 90.80000000000001,
          "velocity": 0.4881889763779528
        },
        {
          "duration": 0.07500000000000284,
          "durationTicks": 144,
          "midi": 53,
          "name": "F3",
          "ticks": 174720,
          "time": 91,
          "velocity": 0.4881889763779528
        },
        {
          "duration": 0.07500000000000284,
          "durationTicks": 144,
          "midi": 52,
          "name": "E3",
          "ticks": 175104,
          "time": 91.2,
          "velocity": 0.4881889763779528
        },
        {
          "duration": 0.07500000000000284,
          "durationTicks": 144,
          "midi": 52,
          "name": "E3",
          "ticks": 175488,
          "time": 91.4,
          "velocity": 0.4881889763779528
        },
        {
          "duration": 0.875,
          "durationTicks": 1680,
          "midi": 52,
          "name": "E3",
          "ticks": 175872,
          "time": 91.60000000000001,
          "velocity": 0.4881889763779528
        },
        {
          "duration": 0.07499999999998863,
          "durationTicks": 144,
          "midi": 64,
          "name": "E4",
          "ticks": 176256,
          "time": 91.80000000000001,
          "velocity": 0.4881889763779528
        },
        {
          "duration": 0.07500000000000284,
          "durationTicks": 144,
          "midi": 64,
          "name": "E4",
          "ticks": 176640,
          "time": 92,
          "velocity": 0.4881889763779528
        },
        {
          "duration": 0.07500000000000284,
          "durationTicks": 144,
          "midi": 73,
          "name": "C#5",
          "ticks": 177024,
          "time": 92.2,
          "velocity": 0.4881889763779528
        },
        {
          "duration": 0.07500000000000284,
          "durationTicks": 144,
          "midi": 73,
          "name": "C#5",
          "ticks": 177408,
          "time": 92.4,
          "velocity": 0.4881889763779528
        },
        {
          "duration": 0.07500000000000284,
          "durationTicks": 144,
          "midi": 52,
          "name": "E3",
          "ticks": 177792,
          "time": 92.60000000000001,
          "velocity": 0.4881889763779528
        },
        {
          "duration": 0.07499999999998863,
          "durationTicks": 144,
          "midi": 53,
          "name": "F3",
          "ticks": 178176,
          "time": 92.80000000000001,
          "velocity": 0.4881889763779528
        },
        {
          "duration": 0.07500000000000284,
          "durationTicks": 144,
          "midi": 53,
          "name": "F3",
          "ticks": 178560,
          "time": 93,
          "velocity": 0.4881889763779528
        },
        {
          "duration": 0.875,
          "durationTicks": 1680,
          "midi": 53,
          "name": "F3",
          "ticks": 178944,
          "time": 93.2,
          "velocity": 0.4881889763779528
        },
        {
          "duration": 0.07500000000000284,
          "durationTicks": 144,
          "midi": 65,
          "name": "F4",
          "ticks": 179328,
          "time": 93.4,
          "velocity": 0.4881889763779528
        },
        {
          "duration": 0.07500000000000284,
          "durationTicks": 144,
          "midi": 65,
          "name": "F4",
          "ticks": 179712,
          "time": 93.60000000000001,
          "velocity": 0.4881889763779528
        },
        {
          "duration": 0.07499999999998863,
          "durationTicks": 144,
          "midi": 74,
          "name": "D5",
          "ticks": 180096,
          "time": 93.80000000000001,
          "velocity": 0.4881889763779528
        },
        {
          "duration": 0.07500000000000284,
          "durationTicks": 144,
          "midi": 74,
          "name": "D5",
          "ticks": 180480,
          "time": 94,
          "velocity": 0.4881889763779528
        },
        {
          "duration": 0.07500000000000284,
          "durationTicks": 144,
          "midi": 53,
          "name": "F3",
          "ticks": 180864,
          "time": 94.2,
          "velocity": 0.4881889763779528
        },
        {
          "duration": 0.07500000000000284,
          "durationTicks": 144,
          "midi": 52,
          "name": "E3",
          "ticks": 181248,
          "time": 94.4,
          "velocity": 0.4881889763779528
        },
        {
          "duration": 0.07500000000000284,
          "durationTicks": 144,
          "midi": 52,
          "name": "E3",
          "ticks": 181632,
          "time": 94.60000000000001,
          "velocity": 0.4881889763779528
        },
        {
          "duration": 0.875,
          "durationTicks": 1680,
          "midi": 52,
          "name": "E3",
          "ticks": 182016,
          "time": 94.80000000000001,
          "velocity": 0.4881889763779528
        },
        {
          "duration": 0.07500000000000284,
          "durationTicks": 144,
          "midi": 64,
          "name": "E4",
          "ticks": 182400,
          "time": 95,
          "velocity": 0.4881889763779528
        },
        {
          "duration": 0.07500000000000284,
          "durationTicks": 144,
          "midi": 64,
          "name": "E4",
          "ticks": 182784,
          "time": 95.2,
          "velocity": 0.4881889763779528
        },
        {
          "duration": 0.07500000000000284,
          "durationTicks": 144,
          "midi": 73,
          "name": "C#5",
          "ticks": 183168,
          "time": 95.4,
          "velocity": 0.4881889763779528
        },
        {
          "duration": 0.07500000000000284,
          "durationTicks": 144,
          "midi": 73,
          "name": "C#5",
          "ticks": 183552,
          "time": 95.60000000000001,
          "velocity": 0.4881889763779528
        },
        {
          "duration": 0.17499999999999716,
          "durationTicks": 336,
          "midi": 52,
          "name": "E3",
          "ticks": 183936,
          "time": 95.80000000000001,
          "velocity": 0.4881889763779528
        },
        {
          "duration": 0.17500000000001137,
          "durationTicks": 336,
          "midi": 53,
          "name": "F3",
          "ticks": 184320,
          "time": 96,
          "velocity": 0.4881889763779528
        },
        {
          "duration": 0.07500000000000284,
          "durationTicks": 144,
          "midi": 46,
          "name": "A#2",
          "ticks": 184704,
          "time": 96.2,
          "velocity": 0.4881889763779528
        },
        {
          "duration": 0.17499999999999716,
          "durationTicks": 336,
          "midi": 50,
          "name": "D3",
          "ticks": 184896,
          "time": 96.30000000000001,
          "velocity": 0.4881889763779528
        },
        {
          "duration": 0.07500000000000284,
          "durationTicks": 144,
          "midi": 46,
          "name": "A#2",
          "ticks": 185280,
          "time": 96.5,
          "velocity": 0.4881889763779528
        },
        {
          "duration": 0.17499999999999716,
          "durationTicks": 336,
          "midi": 55,
          "name": "G3",
          "ticks": 185472,
          "time": 96.60000000000001,
          "velocity": 0.4881889763779528
        },
        {
          "duration": 0.07499999999998863,
          "durationTicks": 144,
          "midi": 46,
          "name": "A#2",
          "ticks": 185856,
          "time": 96.80000000000001,
          "velocity": 0.4881889763779528
        },
        {
          "duration": 0.17499999999999716,
          "durationTicks": 336,
          "midi": 53,
          "name": "F3",
          "ticks": 186048,
          "time": 96.9,
          "velocity": 0.4881889763779528
        },
        {
          "duration": 0.07500000000000284,
          "durationTicks": 144,
          "midi": 46,
          "name": "A#2",
          "ticks": 186432,
          "time": 97.10000000000001,
          "velocity": 0.4881889763779528
        },
        {
          "duration": 0.17499999999999716,
          "durationTicks": 336,
          "midi": 52,
          "name": "E3",
          "ticks": 186624,
          "time": 97.2,
          "velocity": 0.4881889763779528
        },
        {
          "duration": 0.17499999999999716,
          "durationTicks": 336,
          "midi": 53,
          "name": "F3",
          "ticks": 187008,
          "time": 97.4,
          "velocity": 0.4881889763779528
        },
        {
          "duration": 0.17499999999999716,
          "durationTicks": 336,
          "midi": 52,
          "name": "E3",
          "ticks": 187392,
          "time": 97.60000000000001,
          "velocity": 0.4881889763779528
        },
        {
          "duration": 0.07499999999998863,
          "durationTicks": 144,
          "midi": 53,
          "name": "F3",
          "ticks": 187776,
          "time": 97.80000000000001,
          "velocity": 0.4881889763779528
        },
        {
          "duration": 0.17499999999999716,
          "durationTicks": 336,
          "midi": 45,
          "name": "A2",
          "ticks": 187968,
          "time": 97.9,
          "velocity": 0.4881889763779528
        },
        {
          "duration": 0.07500000000000284,
          "durationTicks": 144,
          "midi": 57,
          "name": "A3",
          "ticks": 188352,
          "time": 98.10000000000001,
          "velocity": 0.4881889763779528
        },
        {
          "duration": 0.17499999999999716,
          "durationTicks": 336,
          "midi": 45,
          "name": "A2",
          "ticks": 188544,
          "time": 98.2,
          "velocity": 0.4881889763779528
        },
        {
          "duration": 0.07500000000000284,
          "durationTicks": 144,
          "midi": 53,
          "name": "F3",
          "ticks": 188928,
          "time": 98.4,
          "velocity": 0.4881889763779528
        },
        {
          "duration": 0.17500000000001137,
          "durationTicks": 336,
          "midi": 48,
          "name": "C3",
          "ticks": 189120,
          "time": 98.5,
          "velocity": 0.4881889763779528
        },
        {
          "duration": 0.07500000000000284,
          "durationTicks": 144,
          "midi": 53,
          "name": "F3",
          "ticks": 189504,
          "time": 98.7,
          "velocity": 0.4881889763779528
        },
        {
          "duration": 0.17499999999999716,
          "durationTicks": 336,
          "midi": 55,
          "name": "G3",
          "ticks": 189696,
          "time": 98.80000000000001,
          "velocity": 0.4881889763779528
        },
        {
          "duration": 0.17500000000001137,
          "durationTicks": 336,
          "midi": 53,
          "name": "F3",
          "ticks": 190080,
          "time": 99,
          "velocity": 0.4881889763779528
        },
        {
          "duration": 0.17499999999999716,
          "durationTicks": 336,
          "midi": 53,
          "name": "F3",
          "ticks": 190464,
          "time": 99.2,
          "velocity": 0.4881889763779528
        },
        {
          "duration": 0.07500000000000284,
          "durationTicks": 144,
          "midi": 46,
          "name": "A#2",
          "ticks": 190848,
          "time": 99.4,
          "velocity": 0.4881889763779528
        },
        {
          "duration": 0.17500000000001137,
          "durationTicks": 336,
          "midi": 50,
          "name": "D3",
          "ticks": 191040,
          "time": 99.5,
          "velocity": 0.4881889763779528
        },
        {
          "duration": 0.07500000000000284,
          "durationTicks": 144,
          "midi": 46,
          "name": "A#2",
          "ticks": 191424,
          "time": 99.7,
          "velocity": 0.4881889763779528
        },
        {
          "duration": 0.17499999999999716,
          "durationTicks": 336,
          "midi": 55,
          "name": "G3",
          "ticks": 191616,
          "time": 99.80000000000001,
          "velocity": 0.4881889763779528
        },
        {
          "duration": 0.07500000000000284,
          "durationTicks": 144,
          "midi": 46,
          "name": "A#2",
          "ticks": 192000,
          "time": 100,
          "velocity": 0.4881889763779528
        },
        {
          "duration": 0.17499999999999716,
          "durationTicks": 336,
          "midi": 53,
          "name": "F3",
          "ticks": 192192,
          "time": 100.10000000000001,
          "velocity": 0.4881889763779528
        },
        {
          "duration": 0.07499999999998863,
          "durationTicks": 144,
          "midi": 46,
          "name": "A#2",
          "ticks": 192576,
          "time": 100.30000000000001,
          "velocity": 0.4881889763779528
        },
        {
          "duration": 0.17499999999999716,
          "durationTicks": 336,
          "midi": 52,
          "name": "E3",
          "ticks": 192768,
          "time": 100.4,
          "velocity": 0.4881889763779528
        },
        {
          "duration": 0.17499999999999716,
          "durationTicks": 336,
          "midi": 53,
          "name": "F3",
          "ticks": 193152,
          "time": 100.60000000000001,
          "velocity": 0.4881889763779528
        },
        {
          "duration": 0.17499999999999716,
          "durationTicks": 336,
          "midi": 52,
          "name": "E3",
          "ticks": 193536,
          "time": 100.80000000000001,
          "velocity": 0.4881889763779528
        },
        {
          "duration": 0.07500000000000284,
          "durationTicks": 144,
          "midi": 53,
          "name": "F3",
          "ticks": 193920,
          "time": 101,
          "velocity": 0.4881889763779528
        },
        {
          "duration": 0.17499999999999716,
          "durationTicks": 336,
          "midi": 45,
          "name": "A2",
          "ticks": 194112,
          "time": 101.10000000000001,
          "velocity": 0.4881889763779528
        },
        {
          "duration": 0.07499999999998863,
          "durationTicks": 144,
          "midi": 57,
          "name": "A3",
          "ticks": 194496,
          "time": 101.30000000000001,
          "velocity": 0.4881889763779528
        },
        {
          "duration": 0.17499999999999716,
          "durationTicks": 336,
          "midi": 45,
          "name": "A2",
          "ticks": 194688,
          "time": 101.4,
          "velocity": 0.4881889763779528
        },
        {
          "duration": 0.07500000000000284,
          "durationTicks": 144,
          "midi": 53,
          "name": "F3",
          "ticks": 195072,
          "time": 101.60000000000001,
          "velocity": 0.4881889763779528
        },
        {
          "duration": 0.17499999999999716,
          "durationTicks": 336,
          "midi": 48,
          "name": "C3",
          "ticks": 195264,
          "time": 101.7,
          "velocity": 0.4881889763779528
        },
        {
          "duration": 0.07500000000000284,
          "durationTicks": 144,
          "midi": 53,
          "name": "F3",
          "ticks": 195648,
          "time": 101.9,
          "velocity": 0.4881889763779528
        },
        {
          "duration": 0.17500000000001137,
          "durationTicks": 336,
          "midi": 55,
          "name": "G3",
          "ticks": 195840,
          "time": 102,
          "velocity": 0.4881889763779528
        },
        {
          "duration": 0.17499999999999716,
          "durationTicks": 336,
          "midi": 53,
          "name": "F3",
          "ticks": 196224,
          "time": 102.2,
          "velocity": 0.4881889763779528
        },
        {
          "duration": 0.17499999999999716,
          "durationTicks": 336,
          "midi": 54,
          "name": "F#3",
          "ticks": 196608,
          "time": 102.4,
          "velocity": 0.4881889763779528
        },
        {
          "duration": 0.07500000000000284,
          "durationTicks": 144,
          "midi": 47,
          "name": "B2",
          "ticks": 196992,
          "time": 102.60000000000001,
          "velocity": 0.4881889763779528
        },
        {
          "duration": 0.17499999999999716,
          "durationTicks": 336,
          "midi": 51,
          "name": "D#3",
          "ticks": 197184,
          "time": 102.7,
          "velocity": 0.4881889763779528
        },
        {
          "duration": 0.07500000000000284,
          "durationTicks": 144,
          "midi": 47,
          "name": "B2",
          "ticks": 197568,
          "time": 102.9,
          "velocity": 0.4881889763779528
        },
        {
          "duration": 0.17500000000001137,
          "durationTicks": 336,
          "midi": 56,
          "name": "G#3",
          "ticks": 197760,
          "time": 103,
          "velocity": 0.4881889763779528
        },
        {
          "duration": 0.07500000000000284,
          "durationTicks": 144,
          "midi": 47,
          "name": "B2",
          "ticks": 198144,
          "time": 103.2,
          "velocity": 0.4881889763779528
        },
        {
          "duration": 0.17499999999999716,
          "durationTicks": 336,
          "midi": 54,
          "name": "F#3",
          "ticks": 198336,
          "time": 103.30000000000001,
          "velocity": 0.4881889763779528
        },
        {
          "duration": 0.07500000000000284,
          "durationTicks": 144,
          "midi": 47,
          "name": "B2",
          "ticks": 198720,
          "time": 103.5,
          "velocity": 0.4881889763779528
        },
        {
          "duration": 0.17499999999999716,
          "durationTicks": 336,
          "midi": 53,
          "name": "F3",
          "ticks": 198912,
          "time": 103.60000000000001,
          "velocity": 0.4881889763779528
        },
        {
          "duration": 0.17499999999999716,
          "durationTicks": 336,
          "midi": 54,
          "name": "F#3",
          "ticks": 199296,
          "time": 103.80000000000001,
          "velocity": 0.4881889763779528
        },
        {
          "duration": 0.17500000000001137,
          "durationTicks": 336,
          "midi": 53,
          "name": "F3",
          "ticks": 199680,
          "time": 104,
          "velocity": 0.4881889763779528
        },
        {
          "duration": 0.07500000000000284,
          "durationTicks": 144,
          "midi": 54,
          "name": "F#3",
          "ticks": 200064,
          "time": 104.2,
          "velocity": 0.4881889763779528
        },
        {
          "duration": 0.17499999999999716,
          "durationTicks": 336,
          "midi": 46,
          "name": "A#2",
          "ticks": 200256,
          "time": 104.30000000000001,
          "velocity": 0.4881889763779528
        },
        {
          "duration": 0.07500000000000284,
          "durationTicks": 144,
          "midi": 58,
          "name": "A#3",
          "ticks": 200640,
          "time": 104.5,
          "velocity": 0.4881889763779528
        },
        {
          "duration": 0.17499999999999716,
          "durationTicks": 336,
          "midi": 46,
          "name": "A#2",
          "ticks": 200832,
          "time": 104.60000000000001,
          "velocity": 0.4881889763779528
        },
        {
          "duration": 0.07499999999998863,
          "durationTicks": 144,
          "midi": 54,
          "name": "F#3",
          "ticks": 201216,
          "time": 104.80000000000001,
          "velocity": 0.4881889763779528
        },
        {
          "duration": 0.17499999999999716,
          "durationTicks": 336,
          "midi": 49,
          "name": "C#3",
          "ticks": 201408,
          "time": 104.9,
          "velocity": 0.4881889763779528
        },
        {
          "duration": 0.07500000000000284,
          "durationTicks": 144,
          "midi": 54,
          "name": "F#3",
          "ticks": 201792,
          "time": 105.10000000000001,
          "velocity": 0.4881889763779528
        },
        {
          "duration": 0.17499999999999716,
          "durationTicks": 336,
          "midi": 56,
          "name": "G#3",
          "ticks": 201984,
          "time": 105.2,
          "velocity": 0.4881889763779528
        },
        {
          "duration": 0.17499999999999716,
          "durationTicks": 336,
          "midi": 54,
          "name": "F#3",
          "ticks": 202368,
          "time": 105.4,
          "velocity": 0.4881889763779528
        },
        {
          "duration": 0.17499999999999716,
          "durationTicks": 336,
          "midi": 54,
          "name": "F#3",
          "ticks": 202752,
          "time": 105.60000000000001,
          "velocity": 0.4881889763779528
        },
        {
          "duration": 0.07499999999998863,
          "durationTicks": 144,
          "midi": 47,
          "name": "B2",
          "ticks": 203136,
          "time": 105.80000000000001,
          "velocity": 0.4881889763779528
        },
        {
          "duration": 0.17499999999999716,
          "durationTicks": 336,
          "midi": 51,
          "name": "D#3",
          "ticks": 203328,
          "time": 105.9,
          "velocity": 0.4881889763779528
        },
        {
          "duration": 0.07500000000000284,
          "durationTicks": 144,
          "midi": 47,
          "name": "B2",
          "ticks": 203712,
          "time": 106.10000000000001,
          "velocity": 0.4881889763779528
        },
        {
          "duration": 0.17499999999999716,
          "durationTicks": 336,
          "midi": 56,
          "name": "G#3",
          "ticks": 203904,
          "time": 106.2,
          "velocity": 0.4881889763779528
        },
        {
          "duration": 0.07500000000000284,
          "durationTicks": 144,
          "midi": 47,
          "name": "B2",
          "ticks": 204288,
          "time": 106.4,
          "velocity": 0.4881889763779528
        },
        {
          "duration": 0.17500000000001137,
          "durationTicks": 336,
          "midi": 54,
          "name": "F#3",
          "ticks": 204480,
          "time": 106.5,
          "velocity": 0.4881889763779528
        },
        {
          "duration": 0.07500000000000284,
          "durationTicks": 144,
          "midi": 47,
          "name": "B2",
          "ticks": 204864,
          "time": 106.7,
          "velocity": 0.4881889763779528
        },
        {
          "duration": 0.17499999999999716,
          "durationTicks": 336,
          "midi": 53,
          "name": "F3",
          "ticks": 205056,
          "time": 106.80000000000001,
          "velocity": 0.4881889763779528
        },
        {
          "duration": 0.17500000000001137,
          "durationTicks": 336,
          "midi": 54,
          "name": "F#3",
          "ticks": 205440,
          "time": 107,
          "velocity": 0.4881889763779528
        },
        {
          "duration": 0.17499999999999716,
          "durationTicks": 336,
          "midi": 53,
          "name": "F3",
          "ticks": 205824,
          "time": 107.2,
          "velocity": 0.4881889763779528
        },
        {
          "duration": 0.07500000000000284,
          "durationTicks": 144,
          "midi": 54,
          "name": "F#3",
          "ticks": 206208,
          "time": 107.4,
          "velocity": 0.4881889763779528
        },
        {
          "duration": 0.17500000000001137,
          "durationTicks": 336,
          "midi": 46,
          "name": "A#2",
          "ticks": 206400,
          "time": 107.5,
          "velocity": 0.4881889763779528
        },
        {
          "duration": 0.07500000000000284,
          "durationTicks": 144,
          "midi": 58,
          "name": "A#3",
          "ticks": 206784,
          "time": 107.7,
          "velocity": 0.4881889763779528
        },
        {
          "duration": 0.17499999999999716,
          "durationTicks": 336,
          "midi": 46,
          "name": "A#2",
          "ticks": 206976,
          "time": 107.80000000000001,
          "velocity": 0.4881889763779528
        },
        {
          "duration": 0.07500000000000284,
          "durationTicks": 144,
          "midi": 54,
          "name": "F#3",
          "ticks": 207360,
          "time": 108,
          "velocity": 0.4881889763779528
        },
        {
          "duration": 0.17499999999999716,
          "durationTicks": 336,
          "midi": 49,
          "name": "C#3",
          "ticks": 207552,
          "time": 108.10000000000001,
          "velocity": 0.4881889763779528
        },
        {
          "duration": 0.07499999999998863,
          "durationTicks": 144,
          "midi": 54,
          "name": "F#3",
          "ticks": 207936,
          "time": 108.30000000000001,
          "velocity": 0.4881889763779528
        },
        {
          "duration": 0.17499999999999716,
          "durationTicks": 336,
          "midi": 56,
          "name": "G#3",
          "ticks": 208128,
          "time": 108.4,
          "velocity": 0.4881889763779528
        },
        {
          "duration": 0.17499999999999716,
          "durationTicks": 336,
          "midi": 54,
          "name": "F#3",
          "ticks": 208512,
          "time": 108.60000000000001,
          "velocity": 0.4881889763779528
        },
        {
          "duration": 0.2749999999999915,
          "durationTicks": 528,
          "midi": 59,
          "name": "B3",
          "ticks": 208896,
          "time": 108.80000000000001,
          "velocity": 0.4881889763779528
        },
        {
          "duration": 0.2750000000000057,
          "durationTicks": 528,
          "midi": 59,
          "name": "B3",
          "ticks": 209664,
          "time": 109.2,
          "velocity": 0.4881889763779528
        },
        {
          "duration": 0.2749999999999915,
          "durationTicks": 528,
          "midi": 59,
          "name": "B3",
          "ticks": 210432,
          "time": 109.60000000000001,
          "velocity": 0.4881889763779528
        },
        {
          "duration": 0.2750000000000057,
          "durationTicks": 528,
          "midi": 59,
          "name": "B3",
          "ticks": 211200,
          "time": 110,
          "velocity": 0.4881889763779528
        },
        {
          "duration": 0.2750000000000057,
          "durationTicks": 528,
          "midi": 59,
          "name": "B3",
          "ticks": 211968,
          "time": 110.4,
          "velocity": 0.4881889763779528
        },
        {
          "duration": 0.2749999999999915,
          "durationTicks": 528,
          "midi": 59,
          "name": "B3",
          "ticks": 212736,
          "time": 110.80000000000001,
          "velocity": 0.4881889763779528
        },
        {
          "duration": 0.2750000000000057,
          "durationTicks": 528,
          "midi": 59,
          "name": "B3",
          "ticks": 213504,
          "time": 111.2,
          "velocity": 0.4881889763779528
        },
        {
          "duration": 0.2749999999999915,
          "durationTicks": 528,
          "midi": 59,
          "name": "B3",
          "ticks": 214272,
          "time": 111.60000000000001,
          "velocity": 0.4881889763779528
        },
        {
          "duration": 0.2750000000000057,
          "durationTicks": 528,
          "midi": 58,
          "name": "A#3",
          "ticks": 215040,
          "time": 112,
          "velocity": 0.4881889763779528
        },
        {
          "duration": 0.2750000000000057,
          "durationTicks": 528,
          "midi": 58,
          "name": "A#3",
          "ticks": 215808,
          "time": 112.4,
          "velocity": 0.4881889763779528
        },
        {
          "duration": 0.2749999999999915,
          "durationTicks": 528,
          "midi": 58,
          "name": "A#3",
          "ticks": 216576,
          "time": 112.80000000000001,
          "velocity": 0.4881889763779528
        },
        {
          "duration": 0.2750000000000057,
          "durationTicks": 528,
          "midi": 58,
          "name": "A#3",
          "ticks": 217344,
          "time": 113.2,
          "velocity": 0.4881889763779528
        },
        {
          "duration": 0.2749999999999915,
          "durationTicks": 528,
          "midi": 61,
          "name": "C#4",
          "ticks": 218112,
          "time": 113.60000000000001,
          "velocity": 0.4881889763779528
        },
        {
          "duration": 0.2750000000000057,
          "durationTicks": 528,
          "midi": 61,
          "name": "C#4",
          "ticks": 218880,
          "time": 114,
          "velocity": 0.4881889763779528
        },
        {
          "duration": 0.17499999999999716,
          "durationTicks": 336,
          "midi": 58,
          "name": "A#3",
          "ticks": 219648,
          "time": 114.4,
          "velocity": 0.4881889763779528
        },
        {
          "duration": 0.17499999999999716,
          "durationTicks": 336,
          "midi": 66,
          "name": "F#4",
          "ticks": 220032,
          "time": 114.60000000000001,
          "velocity": 0.4881889763779528
        }
      ],
      "endOfTrackTicks": 220368
    },
    {
      "channel": 2,
      "controlChanges": {},
      "pitchBends": [],
      "instrument": {
        "family": "piano",
        "number": 3,
        "name": "honky-tonk piano"
      },
      "name": "Ragtime Piano",
      "notes": [
        {
          "duration": 0.2,
          "durationTicks": 384,
          "midi": 52,
          "name": "E3",
          "ticks": 0,
          "time": 0,
          "velocity": 0.5118110236220472
        },
        {
          "duration": 0.2,
          "durationTicks": 384,
          "midi": 56,
          "name": "G#3",
          "ticks": 384,
          "time": 0.2,
          "velocity": 0.5118110236220472
        },
        {
          "duration": 0.20000000000000007,
          "durationTicks": 384,
          "midi": 52,
          "name": "E3",
          "ticks": 768,
          "time": 0.4,
          "velocity": 0.5118110236220472
        },
        {
          "duration": 0.19999999999999996,
          "durationTicks": 384,
          "midi": 56,
          "name": "G#3",
          "ticks": 1152,
          "time": 0.6000000000000001,
          "velocity": 0.5118110236220472
        },
        {
          "duration": 0.19999999999999996,
          "durationTicks": 384,
          "midi": 52,
          "name": "E3",
          "ticks": 1536,
          "time": 0.8,
          "velocity": 0.5118110236220472
        },
        {
          "duration": 0.20000000000000018,
          "durationTicks": 384,
          "midi": 56,
          "name": "G#3",
          "ticks": 1920,
          "time": 1,
          "velocity": 0.5118110236220472
        },
        {
          "duration": 0.19999999999999996,
          "durationTicks": 384,
          "midi": 52,
          "name": "E3",
          "ticks": 2304,
          "time": 1.2000000000000002,
          "velocity": 0.5118110236220472
        },
        {
          "duration": 0.19999999999999996,
          "durationTicks": 384,
          "midi": 56,
          "name": "G#3",
          "ticks": 2688,
          "time": 1.4000000000000001,
          "velocity": 0.5118110236220472
        },
        {
          "duration": 0.19999999999999996,
          "durationTicks": 384,
          "midi": 51,
          "name": "D#3",
          "ticks": 3072,
          "time": 1.6,
          "velocity": 0.5118110236220472
        },
        {
          "duration": 0.19999999999999996,
          "durationTicks": 384,
          "midi": 54,
          "name": "F#3",
          "ticks": 3456,
          "time": 1.8,
          "velocity": 0.5118110236220472
        },
        {
          "duration": 0.20000000000000018,
          "durationTicks": 384,
          "midi": 51,
          "name": "D#3",
          "ticks": 3840,
          "time": 2,
          "velocity": 0.5118110236220472
        },
        {
          "duration": 0.20000000000000018,
          "durationTicks": 384,
          "midi": 54,
          "name": "F#3",
          "ticks": 4224,
          "time": 2.2,
          "velocity": 0.5118110236220472
        },
        {
          "duration": 0.19999999999999973,
          "durationTicks": 384,
          "midi": 49,
          "name": "C#3",
          "ticks": 4608,
          "time": 2.4000000000000004,
          "velocity": 0.5118110236220472
        },
        {
          "duration": 0.20000000000000018,
          "durationTicks": 384,
          "midi": 52,
          "name": "E3",
          "ticks": 4992,
          "time": 2.6,
          "velocity": 0.5118110236220472
        },
        {
          "duration": 0.19999999999999973,
          "durationTicks": 384,
          "midi": 49,
          "name": "C#3",
          "ticks": 5376,
          "time": 2.8000000000000003,
          "velocity": 0.5118110236220472
        },
        {
          "duration": 0.20000000000000018,
          "durationTicks": 384,
          "midi": 52,
          "name": "E3",
          "ticks": 5760,
          "time": 3,
          "velocity": 0.5118110236220472
        },
        {
          "duration": 0.20000000000000018,
          "durationTicks": 384,
          "midi": 48,
          "name": "C3",
          "ticks": 6144,
          "time": 3.2,
          "velocity": 0.5118110236220472
        },
        {
          "duration": 0.19999999999999973,
          "durationTicks": 384,
          "midi": 51,
          "name": "D#3",
          "ticks": 6528,
          "time": 3.4000000000000004,
          "velocity": 0.5118110236220472
        },
        {
          "duration": 0.19999999999999973,
          "durationTicks": 384,
          "midi": 51,
          "name": "D#3",
          "ticks": 6528,
          "time": 3.4000000000000004,
          "velocity": 0.5118110236220472
        },
        {
          "duration": 0.20000000000000018,
          "durationTicks": 384,
          "midi": 48,
          "name": "C3",
          "ticks": 6912,
          "time": 3.6,
          "velocity": 0.5118110236220472
        },
        {
          "duration": 0.19999999999999973,
          "durationTicks": 384,
          "midi": 51,
          "name": "D#3",
          "ticks": 7296,
          "time": 3.8000000000000003,
          "velocity": 0.5118110236220472
        },
        {
          "duration": 0.20000000000000018,
          "durationTicks": 384,
          "midi": 49,
          "name": "C#3",
          "ticks": 7680,
          "time": 4,
          "velocity": 0.5118110236220472
        },
        {
          "duration": 0.20000000000000018,
          "durationTicks": 384,
          "midi": 52,
          "name": "E3",
          "ticks": 8064,
          "time": 4.2,
          "velocity": 0.5118110236220472
        },
        {
          "duration": 0.20000000000000018,
          "durationTicks": 384,
          "midi": 52,
          "name": "E3",
          "ticks": 8064,
          "time": 4.2,
          "velocity": 0.5118110236220472
        },
        {
          "duration": 0.20000000000000018,
          "durationTicks": 384,
          "midi": 49,
          "name": "C#3",
          "ticks": 8448,
          "time": 4.4,
          "velocity": 0.5118110236220472
        },
        {
          "duration": 0.20000000000000018,
          "durationTicks": 384,
          "midi": 52,
          "name": "E3",
          "ticks": 8832,
          "time": 4.6000000000000005,
          "velocity": 0.5118110236220472
        },
        {
          "duration": 0.1999999999999993,
          "durationTicks": 384,
          "midi": 54,
          "name": "F#3",
          "ticks": 9216,
          "time": 4.800000000000001,
          "velocity": 0.5118110236220472
        },
        {
          "duration": 0.20000000000000018,
          "durationTicks": 384,
          "midi": 57,
          "name": "A3",
          "ticks": 9600,
          "time": 5,
          "velocity": 0.5118110236220472
        },
        {
          "duration": 0.20000000000000018,
          "durationTicks": 384,
          "midi": 54,
          "name": "F#3",
          "ticks": 9984,
          "time": 5.2,
          "velocity": 0.5118110236220472
        },
        {
          "duration": 0.20000000000000018,
          "durationTicks": 384,
          "midi": 57,
          "name": "A3",
          "ticks": 10368,
          "time": 5.4,
          "velocity": 0.5118110236220472
        },
        {
          "duration": 0.20000000000000018,
          "durationTicks": 384,
          "midi": 56,
          "name": "G#3",
          "ticks": 10752,
          "time": 5.6000000000000005,
          "velocity": 0.5118110236220472
        },
        {
          "duration": 0.1999999999999993,
          "durationTicks": 384,
          "midi": 54,
          "name": "F#3",
          "ticks": 11136,
          "time": 5.800000000000001,
          "velocity": 0.5118110236220472
        },
        {
          "duration": 0.20000000000000018,
          "durationTicks": 384,
          "midi": 52,
          "name": "E3",
          "ticks": 11520,
          "time": 6,
          "velocity": 0.5118110236220472
        },
        {
          "duration": 0.20000000000000018,
          "durationTicks": 384,
          "midi": 51,
          "name": "D#3",
          "ticks": 11904,
          "time": 6.2,
          "velocity": 0.5118110236220472
        },
        {
          "duration": 0.20000000000000018,
          "durationTicks": 384,
          "midi": 52,
          "name": "E3",
          "ticks": 12288,
          "time": 6.4,
          "velocity": 0.5118110236220472
        },
        {
          "duration": 0.20000000000000018,
          "durationTicks": 384,
          "midi": 56,
          "name": "G#3",
          "ticks": 12672,
          "time": 6.6000000000000005,
          "velocity": 0.5118110236220472
        },
        {
          "duration": 0.1999999999999993,
          "durationTicks": 384,
          "midi": 52,
          "name": "E3",
          "ticks": 13056,
          "time": 6.800000000000001,
          "velocity": 0.5118110236220472
        },
        {
          "duration": 0.20000000000000018,
          "durationTicks": 384,
          "midi": 56,
          "name": "G#3",
          "ticks": 13440,
          "time": 7,
          "velocity": 0.5118110236220472
        },
        {
          "duration": 0.20000000000000018,
          "durationTicks": 384,
          "midi": 52,
          "name": "E3",
          "ticks": 13824,
          "time": 7.2,
          "velocity": 0.5118110236220472
        },
        {
          "duration": 0.20000000000000018,
          "durationTicks": 384,
          "midi": 56,
          "name": "G#3",
          "ticks": 14208,
          "time": 7.4,
          "velocity": 0.5118110236220472
        },
        {
          "duration": 0.20000000000000018,
          "durationTicks": 384,
          "midi": 52,
          "name": "E3",
          "ticks": 14592,
          "time": 7.6000000000000005,
          "velocity": 0.5118110236220472
        },
        {
          "duration": 0.1999999999999993,
          "durationTicks": 384,
          "midi": 56,
          "name": "G#3",
          "ticks": 14976,
          "time": 7.800000000000001,
          "velocity": 0.5118110236220472
        },
        {
          "duration": 0.20000000000000107,
          "durationTicks": 384,
          "midi": 51,
          "name": "D#3",
          "ticks": 15360,
          "time": 8,
          "velocity": 0.5118110236220472
        },
        {
          "duration": 0.1999999999999993,
          "durationTicks": 384,
          "midi": 54,
          "name": "F#3",
          "ticks": 15744,
          "time": 8.200000000000001,
          "velocity": 0.5118110236220472
        },
        {
          "duration": 0.1999999999999993,
          "durationTicks": 384,
          "midi": 51,
          "name": "D#3",
          "ticks": 16128,
          "time": 8.4,
          "velocity": 0.5118110236220472
        },
        {
          "duration": 0.20000000000000107,
          "durationTicks": 384,
          "midi": 54,
          "name": "F#3",
          "ticks": 16512,
          "time": 8.6,
          "velocity": 0.5118110236220472
        },
        {
          "duration": 0.1999999999999993,
          "durationTicks": 384,
          "midi": 49,
          "name": "C#3",
          "ticks": 16896,
          "time": 8.8,
          "velocity": 0.5118110236220472
        },
        {
          "duration": 0.20000000000000107,
          "durationTicks": 384,
          "midi": 52,
          "name": "E3",
          "ticks": 17280,
          "time": 9,
          "velocity": 0.5118110236220472
        },
        {
          "duration": 0.1999999999999993,
          "durationTicks": 384,
          "midi": 49,
          "name": "C#3",
          "ticks": 17664,
          "time": 9.200000000000001,
          "velocity": 0.5118110236220472
        },
        {
          "duration": 0.20000000000000107,
          "durationTicks": 384,
          "midi": 52,
          "name": "E3",
          "ticks": 18048,
          "time": 9.4,
          "velocity": 0.5118110236220472
        },
        {
          "duration": 0.1999999999999993,
          "durationTicks": 384,
          "midi": 48,
          "name": "C3",
          "ticks": 18432,
          "time": 9.600000000000001,
          "velocity": 0.5118110236220472
        },
        {
          "duration": 0.1999999999999993,
          "durationTicks": 384,
          "midi": 51,
          "name": "D#3",
          "ticks": 18816,
          "time": 9.8,
          "velocity": 0.5118110236220472
        },
        {
          "duration": 0.1999999999999993,
          "durationTicks": 384,
          "midi": 51,
          "name": "D#3",
          "ticks": 18816,
          "time": 9.8,
          "velocity": 0.5118110236220472
        },
        {
          "duration": 0.20000000000000107,
          "durationTicks": 384,
          "midi": 48,
          "name": "C3",
          "ticks": 19200,
          "time": 10,
          "velocity": 0.5118110236220472
        },
        {
          "duration": 0.1999999999999993,
          "durationTicks": 384,
          "midi": 51,
          "name": "D#3",
          "ticks": 19584,
          "time": 10.200000000000001,
          "velocity": 0.5118110236220472
        },
        {
          "duration": 0.20000000000000107,
          "durationTicks": 384,
          "midi": 49,
          "name": "C#3",
          "ticks": 19968,
          "time": 10.4,
          "velocity": 0.5118110236220472
        },
        {
          "duration": 0.1999999999999993,
          "durationTicks": 384,
          "midi": 52,
          "name": "E3",
          "ticks": 20352,
          "time": 10.600000000000001,
          "velocity": 0.5118110236220472
        },
        {
          "duration": 0.1999999999999993,
          "durationTicks": 384,
          "midi": 52,
          "name": "E3",
          "ticks": 20352,
          "time": 10.600000000000001,
          "velocity": 0.5118110236220472
        },
        {
          "duration": 0.1999999999999993,
          "durationTicks": 384,
          "midi": 49,
          "name": "C#3",
          "ticks": 20736,
          "time": 10.8,
          "velocity": 0.5118110236220472
        },
        {
          "duration": 0.20000000000000107,
          "durationTicks": 384,
          "midi": 52,
          "name": "E3",
          "ticks": 21120,
          "time": 11,
          "velocity": 0.5118110236220472
        },
        {
          "duration": 0.1999999999999993,
          "durationTicks": 384,
          "midi": 54,
          "name": "F#3",
          "ticks": 21504,
          "time": 11.200000000000001,
          "velocity": 0.5118110236220472
        },
        {
          "duration": 0.20000000000000107,
          "durationTicks": 384,
          "midi": 57,
          "name": "A3",
          "ticks": 21888,
          "time": 11.4,
          "velocity": 0.5118110236220472
        },
        {
          "duration": 0.1999999999999993,
          "durationTicks": 384,
          "midi": 54,
          "name": "F#3",
          "ticks": 22272,
          "time": 11.600000000000001,
          "velocity": 0.5118110236220472
        },
        {
          "duration": 0.1999999999999993,
          "durationTicks": 384,
          "midi": 57,
          "name": "A3",
          "ticks": 22656,
          "time": 11.8,
          "velocity": 0.5118110236220472
        },
        {
          "duration": 0.20000000000000107,
          "durationTicks": 384,
          "midi": 56,
          "name": "G#3",
          "ticks": 23040,
          "time": 12,
          "velocity": 0.5118110236220472
        },
        {
          "duration": 0.1999999999999993,
          "durationTicks": 384,
          "midi": 54,
          "name": "F#3",
          "ticks": 23424,
          "time": 12.200000000000001,
          "velocity": 0.5118110236220472
        },
        {
          "duration": 0.20000000000000107,
          "durationTicks": 384,
          "midi": 52,
          "name": "E3",
          "ticks": 23808,
          "time": 12.4,
          "velocity": 0.5118110236220472
        },
        {
          "duration": 0.1999999999999993,
          "durationTicks": 384,
          "midi": 51,
          "name": "D#3",
          "ticks": 24192,
          "time": 12.600000000000001,
          "velocity": 0.5118110236220472
        },
        {
          "duration": 0.1999999999999993,
          "durationTicks": 384,
          "midi": 52,
          "name": "E3",
          "ticks": 24576,
          "time": 12.8,
          "velocity": 0.5118110236220472
        },
        {
          "duration": 0.20000000000000107,
          "durationTicks": 384,
          "midi": 56,
          "name": "G#3",
          "ticks": 24960,
          "time": 13,
          "velocity": 0.5118110236220472
        },
        {
          "duration": 0.1999999999999993,
          "durationTicks": 384,
          "midi": 52,
          "name": "E3",
          "ticks": 25344,
          "time": 13.200000000000001,
          "velocity": 0.5118110236220472
        },
        {
          "duration": 0.20000000000000107,
          "durationTicks": 384,
          "midi": 56,
          "name": "G#3",
          "ticks": 25728,
          "time": 13.4,
          "velocity": 0.5118110236220472
        },
        {
          "duration": 0.1999999999999993,
          "durationTicks": 384,
          "midi": 52,
          "name": "E3",
          "ticks": 26112,
          "time": 13.600000000000001,
          "velocity": 0.5118110236220472
        },
        {
          "duration": 0.1999999999999993,
          "durationTicks": 384,
          "midi": 56,
          "name": "G#3",
          "ticks": 26496,
          "time": 13.8,
          "velocity": 0.5118110236220472
        },
        {
          "duration": 0.20000000000000107,
          "durationTicks": 384,
          "midi": 52,
          "name": "E3",
          "ticks": 26880,
          "time": 14,
          "velocity": 0.5118110236220472
        },
        {
          "duration": 0.1999999999999993,
          "durationTicks": 384,
          "midi": 56,
          "name": "G#3",
          "ticks": 27264,
          "time": 14.200000000000001,
          "velocity": 0.5118110236220472
        },
        {
          "duration": 0.20000000000000107,
          "durationTicks": 384,
          "midi": 51,
          "name": "D#3",
          "ticks": 27648,
          "time": 14.4,
          "velocity": 0.5118110236220472
        },
        {
          "duration": 0.1999999999999993,
          "durationTicks": 384,
          "midi": 54,
          "name": "F#3",
          "ticks": 28032,
          "time": 14.600000000000001,
          "velocity": 0.5118110236220472
        },
        {
          "duration": 0.1999999999999993,
          "durationTicks": 384,
          "midi": 51,
          "name": "D#3",
          "ticks": 28416,
          "time": 14.8,
          "velocity": 0.5118110236220472
        },
        {
          "duration": 0.20000000000000107,
          "durationTicks": 384,
          "midi": 54,
          "name": "F#3",
          "ticks": 28800,
          "time": 15,
          "velocity": 0.5118110236220472
        },
        {
          "duration": 0.1999999999999993,
          "durationTicks": 384,
          "midi": 49,
          "name": "C#3",
          "ticks": 29184,
          "time": 15.200000000000001,
          "velocity": 0.5118110236220472
        },
        {
          "duration": 0.20000000000000107,
          "durationTicks": 384,
          "midi": 52,
          "name": "E3",
          "ticks": 29568,
          "time": 15.4,
          "velocity": 0.5118110236220472
        },
        {
          "duration": 0.1999999999999993,
          "durationTicks": 384,
          "midi": 49,
          "name": "C#3",
          "ticks": 29952,
          "time": 15.600000000000001,
          "velocity": 0.5118110236220472
        },
        {
          "duration": 0.1999999999999993,
          "durationTicks": 384,
          "midi": 52,
          "name": "E3",
          "ticks": 30336,
          "time": 15.8,
          "velocity": 0.5118110236220472
        },
        {
          "duration": 0.1999999999999993,
          "durationTicks": 384,
          "midi": 48,
          "name": "C3",
          "ticks": 30720,
          "time": 16,
          "velocity": 0.5118110236220472
        },
        {
          "duration": 0.20000000000000284,
          "durationTicks": 384,
          "midi": 51,
          "name": "D#3",
          "ticks": 31104,
          "time": 16.2,
          "velocity": 0.5118110236220472
        },
        {
          "duration": 0.20000000000000284,
          "durationTicks": 384,
          "midi": 51,
          "name": "D#3",
          "ticks": 31104,
          "time": 16.2,
          "velocity": 0.5118110236220472
        },
        {
          "duration": 0.1999999999999993,
          "durationTicks": 384,
          "midi": 48,
          "name": "C3",
          "ticks": 31488,
          "time": 16.400000000000002,
          "velocity": 0.5118110236220472
        },
        {
          "duration": 0.1999999999999993,
          "durationTicks": 384,
          "midi": 51,
          "name": "D#3",
          "ticks": 31872,
          "time": 16.6,
          "velocity": 0.5118110236220472
        },
        {
          "duration": 0.1999999999999993,
          "durationTicks": 384,
          "midi": 49,
          "name": "C#3",
          "ticks": 32256,
          "time": 16.8,
          "velocity": 0.5118110236220472
        },
        {
          "duration": 0.1999999999999993,
          "durationTicks": 384,
          "midi": 52,
          "name": "E3",
          "ticks": 32640,
          "time": 17,
          "velocity": 0.5118110236220472
        },
        {
          "duration": 0.1999999999999993,
          "durationTicks": 384,
          "midi": 52,
          "name": "E3",
          "ticks": 32640,
          "time": 17,
          "velocity": 0.5118110236220472
        },
        {
          "duration": 0.20000000000000284,
          "durationTicks": 384,
          "midi": 49,
          "name": "C#3",
          "ticks": 33024,
          "time": 17.2,
          "velocity": 0.5118110236220472
        },
        {
          "duration": 0.1999999999999993,
          "durationTicks": 384,
          "midi": 52,
          "name": "E3",
          "ticks": 33408,
          "time": 17.400000000000002,
          "velocity": 0.5118110236220472
        },
        {
          "duration": 0.1999999999999993,
          "durationTicks": 384,
          "midi": 54,
          "name": "F#3",
          "ticks": 33792,
          "time": 17.6,
          "velocity": 0.5118110236220472
        },
        {
          "duration": 0.1999999999999993,
          "durationTicks": 384,
          "midi": 57,
          "name": "A3",
          "ticks": 34176,
          "time": 17.8,
          "velocity": 0.5118110236220472
        },
        {
          "duration": 0.1999999999999993,
          "durationTicks": 384,
          "midi": 54,
          "name": "F#3",
          "ticks": 34560,
          "time": 18,
          "velocity": 0.5118110236220472
        },
        {
          "duration": 0.20000000000000284,
          "durationTicks": 384,
          "midi": 57,
          "name": "A3",
          "ticks": 34944,
          "time": 18.2,
          "velocity": 0.5118110236220472
        },
        {
          "duration": 0.1999999999999993,
          "durationTicks": 384,
          "midi": 56,
          "name": "G#3",
          "ticks": 35328,
          "time": 18.400000000000002,
          "velocity": 0.5118110236220472
        },
        {
          "duration": 0.1999999999999993,
          "durationTicks": 384,
          "midi": 54,
          "name": "F#3",
          "ticks": 35712,
          "time": 18.6,
          "velocity": 0.5118110236220472
        },
        {
          "duration": 0.1999999999999993,
          "durationTicks": 384,
          "midi": 52,
          "name": "E3",
          "ticks": 36096,
          "time": 18.8,
          "velocity": 0.5118110236220472
        },
        {
          "duration": 0.20000000000000284,
          "durationTicks": 384,
          "midi": 51,
          "name": "D#3",
          "ticks": 36480,
          "time": 19,
          "velocity": 0.5118110236220472
        },
        {
          "duration": 0.1999999999999993,
          "durationTicks": 384,
          "midi": 52,
          "name": "E3",
          "ticks": 36864,
          "time": 19.200000000000003,
          "velocity": 0.5118110236220472
        },
        {
          "duration": 0.1999999999999993,
          "durationTicks": 384,
          "midi": 56,
          "name": "G#3",
          "ticks": 37248,
          "time": 19.400000000000002,
          "velocity": 0.5118110236220472
        },
        {
          "duration": 0.1999999999999993,
          "durationTicks": 384,
          "midi": 52,
          "name": "E3",
          "ticks": 37632,
          "time": 19.6,
          "velocity": 0.5118110236220472
        },
        {
          "duration": 0.1999999999999993,
          "durationTicks": 384,
          "midi": 56,
          "name": "G#3",
          "ticks": 38016,
          "time": 19.8,
          "velocity": 0.5118110236220472
        },
        {
          "duration": 0.20000000000000284,
          "durationTicks": 384,
          "midi": 52,
          "name": "E3",
          "ticks": 38400,
          "time": 20,
          "velocity": 0.5118110236220472
        },
        {
          "duration": 0.1999999999999993,
          "durationTicks": 384,
          "midi": 56,
          "name": "G#3",
          "ticks": 38784,
          "time": 20.200000000000003,
          "velocity": 0.5118110236220472
        },
        {
          "duration": 0.1999999999999993,
          "durationTicks": 384,
          "midi": 52,
          "name": "E3",
          "ticks": 39168,
          "time": 20.400000000000002,
          "velocity": 0.5118110236220472
        },
        {
          "duration": 0.1999999999999993,
          "durationTicks": 384,
          "midi": 56,
          "name": "G#3",
          "ticks": 39552,
          "time": 20.6,
          "velocity": 0.5118110236220472
        },
        {
          "duration": 0.1999999999999993,
          "durationTicks": 384,
          "midi": 51,
          "name": "D#3",
          "ticks": 39936,
          "time": 20.8,
          "velocity": 0.5118110236220472
        },
        {
          "duration": 0.20000000000000284,
          "durationTicks": 384,
          "midi": 54,
          "name": "F#3",
          "ticks": 40320,
          "time": 21,
          "velocity": 0.5118110236220472
        },
        {
          "duration": 0.1999999999999993,
          "durationTicks": 384,
          "midi": 51,
          "name": "D#3",
          "ticks": 40704,
          "time": 21.200000000000003,
          "velocity": 0.5118110236220472
        },
        {
          "duration": 0.1999999999999993,
          "durationTicks": 384,
          "midi": 54,
          "name": "F#3",
          "ticks": 41088,
          "time": 21.400000000000002,
          "velocity": 0.5118110236220472
        },
        {
          "duration": 0.1999999999999993,
          "durationTicks": 384,
          "midi": 49,
          "name": "C#3",
          "ticks": 41472,
          "time": 21.6,
          "velocity": 0.5118110236220472
        },
        {
          "duration": 0.1999999999999993,
          "durationTicks": 384,
          "midi": 52,
          "name": "E3",
          "ticks": 41856,
          "time": 21.8,
          "velocity": 0.5118110236220472
        },
        {
          "duration": 0.20000000000000284,
          "durationTicks": 384,
          "midi": 49,
          "name": "C#3",
          "ticks": 42240,
          "time": 22,
          "velocity": 0.5118110236220472
        },
        {
          "duration": 0.1999999999999993,
          "durationTicks": 384,
          "midi": 52,
          "name": "E3",
          "ticks": 42624,
          "time": 22.200000000000003,
          "velocity": 0.5118110236220472
        },
        {
          "duration": 0.1999999999999993,
          "durationTicks": 384,
          "midi": 48,
          "name": "C3",
          "ticks": 43008,
          "time": 22.400000000000002,
          "velocity": 0.5118110236220472
        },
        {
          "duration": 0.1999999999999993,
          "durationTicks": 384,
          "midi": 51,
          "name": "D#3",
          "ticks": 43392,
          "time": 22.6,
          "velocity": 0.5118110236220472
        },
        {
          "duration": 0.1999999999999993,
          "durationTicks": 384,
          "midi": 51,
          "name": "D#3",
          "ticks": 43392,
          "time": 22.6,
          "velocity": 0.5118110236220472
        },
        {
          "duration": 0.1999999999999993,
          "durationTicks": 384,
          "midi": 48,
          "name": "C3",
          "ticks": 43776,
          "time": 22.8,
          "velocity": 0.5118110236220472
        },
        {
          "duration": 0.20000000000000284,
          "durationTicks": 384,
          "midi": 51,
          "name": "D#3",
          "ticks": 44160,
          "time": 23,
          "velocity": 0.5118110236220472
        },
        {
          "duration": 0.1999999999999993,
          "durationTicks": 384,
          "midi": 49,
          "name": "C#3",
          "ticks": 44544,
          "time": 23.200000000000003,
          "velocity": 0.5118110236220472
        },
        {
          "duration": 0.1999999999999993,
          "durationTicks": 384,
          "midi": 52,
          "name": "E3",
          "ticks": 44928,
          "time": 23.400000000000002,
          "velocity": 0.5118110236220472
        },
        {
          "duration": 0.1999999999999993,
          "durationTicks": 384,
          "midi": 52,
          "name": "E3",
          "ticks": 44928,
          "time": 23.400000000000002,
          "velocity": 0.5118110236220472
        },
        {
          "duration": 0.1999999999999993,
          "durationTicks": 384,
          "midi": 49,
          "name": "C#3",
          "ticks": 45312,
          "time": 23.6,
          "velocity": 0.5118110236220472
        },
        {
          "duration": 0.1999999999999993,
          "durationTicks": 384,
          "midi": 52,
          "name": "E3",
          "ticks": 45696,
          "time": 23.8,
          "velocity": 0.5118110236220472
        },
        {
          "duration": 0.20000000000000284,
          "durationTicks": 384,
          "midi": 54,
          "name": "F#3",
          "ticks": 46080,
          "time": 24,
          "velocity": 0.5118110236220472
        },
        {
          "duration": 0.1999999999999993,
          "durationTicks": 384,
          "midi": 57,
          "name": "A3",
          "ticks": 46464,
          "time": 24.200000000000003,
          "velocity": 0.5118110236220472
        },
        {
          "duration": 0.1999999999999993,
          "durationTicks": 384,
          "midi": 54,
          "name": "F#3",
          "ticks": 46848,
          "time": 24.400000000000002,
          "velocity": 0.5118110236220472
        },
        {
          "duration": 0.1999999999999993,
          "durationTicks": 384,
          "midi": 57,
          "name": "A3",
          "ticks": 47232,
          "time": 24.6,
          "velocity": 0.5118110236220472
        },
        {
          "duration": 0.1999999999999993,
          "durationTicks": 384,
          "midi": 56,
          "name": "G#3",
          "ticks": 47616,
          "time": 24.8,
          "velocity": 0.5118110236220472
        },
        {
          "duration": 0.20000000000000284,
          "durationTicks": 384,
          "midi": 54,
          "name": "F#3",
          "ticks": 48000,
          "time": 25,
          "velocity": 0.5118110236220472
        },
        {
          "duration": 0.1999999999999993,
          "durationTicks": 384,
          "midi": 52,
          "name": "E3",
          "ticks": 48384,
          "time": 25.200000000000003,
          "velocity": 0.5118110236220472
        },
        {
          "duration": 0.1999999999999993,
          "durationTicks": 384,
          "midi": 51,
          "name": "D#3",
          "ticks": 48768,
          "time": 25.400000000000002,
          "velocity": 0.5118110236220472
        },
        {
          "duration": 0.1999999999999993,
          "durationTicks": 384,
          "midi": 52,
          "name": "E3",
          "ticks": 49152,
          "time": 25.6,
          "velocity": 0.5118110236220472
        },
        {
          "duration": 0.1999999999999993,
          "durationTicks": 384,
          "midi": 49,
          "name": "C#3",
          "ticks": 49536,
          "time": 25.8,
          "velocity": 0.5118110236220472
        },
        {
          "duration": 0.20000000000000284,
          "durationTicks": 384,
          "midi": 52,
          "name": "E3",
          "ticks": 49920,
          "time": 26,
          "velocity": 0.5118110236220472
        },
        {
          "duration": 0.1999999999999993,
          "durationTicks": 384,
          "midi": 54,
          "name": "F#3",
          "ticks": 50304,
          "time": 26.200000000000003,
          "velocity": 0.5118110236220472
        },
        {
          "duration": 0.1999999999999993,
          "durationTicks": 384,
          "midi": 52,
          "name": "E3",
          "ticks": 50688,
          "time": 26.400000000000002,
          "velocity": 0.5118110236220472
        },
        {
          "duration": 0.1999999999999993,
          "durationTicks": 384,
          "midi": 49,
          "name": "C#3",
          "ticks": 51072,
          "time": 26.6,
          "velocity": 0.5118110236220472
        },
        {
          "duration": 0.1999999999999993,
          "durationTicks": 384,
          "midi": 52,
          "name": "E3",
          "ticks": 51456,
          "time": 26.8,
          "velocity": 0.5118110236220472
        },
        {
          "duration": 0.20000000000000284,
          "durationTicks": 384,
          "midi": 44,
          "name": "G#2",
          "ticks": 51840,
          "time": 27,
          "velocity": 0.5118110236220472
        },
        {
          "duration": 0.1999999999999993,
          "durationTicks": 384,
          "midi": 52,
          "name": "E3",
          "ticks": 52224,
          "time": 27.200000000000003,
          "velocity": 0.5118110236220472
        },
        {
          "duration": 0.1999999999999993,
          "durationTicks": 384,
          "midi": 54,
          "name": "F#3",
          "ticks": 52608,
          "time": 27.400000000000002,
          "velocity": 0.5118110236220472
        },
        {
          "duration": 0.1999999999999993,
          "durationTicks": 384,
          "midi": 52,
          "name": "E3",
          "ticks": 52992,
          "time": 27.6,
          "velocity": 0.5118110236220472
        },
        {
          "duration": 0.1999999999999993,
          "durationTicks": 384,
          "midi": 49,
          "name": "C#3",
          "ticks": 53376,
          "time": 27.8,
          "velocity": 0.5118110236220472
        },
        {
          "duration": 0.20000000000000284,
          "durationTicks": 384,
          "midi": 52,
          "name": "E3",
          "ticks": 53760,
          "time": 28,
          "velocity": 0.5118110236220472
        },
        {
          "duration": 0.1999999999999993,
          "durationTicks": 384,
          "midi": 54,
          "name": "F#3",
          "ticks": 54144,
          "time": 28.200000000000003,
          "velocity": 0.5118110236220472
        },
        {
          "duration": 0.09999999999999787,
          "durationTicks": 192,
          "midi": 56,
          "name": "G#3",
          "ticks": 54528,
          "time": 28.400000000000002,
          "velocity": 0.5118110236220472
        },
        {
          "duration": 0.10000000000000142,
          "durationTicks": 192,
          "midi": 54,
          "name": "F#3",
          "ticks": 54720,
          "time": 28.5,
          "velocity": 0.5118110236220472
        },
        {
          "duration": 0.10000000000000142,
          "durationTicks": 192,
          "midi": 52,
          "name": "E3",
          "ticks": 54912,
          "time": 28.6,
          "velocity": 0.5118110236220472
        },
        {
          "duration": 0.09999999999999787,
          "durationTicks": 192,
          "midi": 51,
          "name": "D#3",
          "ticks": 55104,
          "time": 28.700000000000003,
          "velocity": 0.5118110236220472
        },
        {
          "duration": 0.1999999999999993,
          "durationTicks": 384,
          "midi": 49,
          "name": "C#3",
          "ticks": 55296,
          "time": 28.8,
          "velocity": 0.5118110236220472
        },
        {
          "duration": 0.20000000000000284,
          "durationTicks": 384,
          "midi": 45,
          "name": "A2",
          "ticks": 55680,
          "time": 29,
          "velocity": 0.5118110236220472
        },
        {
          "duration": 0.1999999999999993,
          "durationTicks": 384,
          "midi": 49,
          "name": "C#3",
          "ticks": 56064,
          "time": 29.200000000000003,
          "velocity": 0.5118110236220472
        },
        {
          "duration": 0.1999999999999993,
          "durationTicks": 384,
          "midi": 45,
          "name": "A2",
          "ticks": 56448,
          "time": 29.400000000000002,
          "velocity": 0.5118110236220472
        },
        {
          "duration": 0.1999999999999993,
          "durationTicks": 384,
          "midi": 49,
          "name": "C#3",
          "ticks": 56832,
          "time": 29.6,
          "velocity": 0.5118110236220472
        },
        {
          "duration": 0.1999999999999993,
          "durationTicks": 384,
          "midi": 51,
          "name": "D#3",
          "ticks": 57216,
          "time": 29.8,
          "velocity": 0.5118110236220472
        },
        {
          "duration": 0.20000000000000284,
          "durationTicks": 384,
          "midi": 52,
          "name": "E3",
          "ticks": 57600,
          "time": 30,
          "velocity": 0.5118110236220472
        },
        {
          "duration": 0.1999999999999993,
          "durationTicks": 384,
          "midi": 54,
          "name": "F#3",
          "ticks": 57984,
          "time": 30.200000000000003,
          "velocity": 0.5118110236220472
        },
        {
          "duration": 0.1999999999999993,
          "durationTicks": 384,
          "midi": 56,
          "name": "G#3",
          "ticks": 58368,
          "time": 30.400000000000002,
          "velocity": 0.5118110236220472
        },
        {
          "duration": 0.1999999999999993,
          "durationTicks": 384,
          "midi": 54,
          "name": "F#3",
          "ticks": 58752,
          "time": 30.6,
          "velocity": 0.5118110236220472
        },
        {
          "duration": 0.1999999999999993,
          "durationTicks": 384,
          "midi": 52,
          "name": "E3",
          "ticks": 59136,
          "time": 30.8,
          "velocity": 0.5118110236220472
        },
        {
          "duration": 0.20000000000000284,
          "durationTicks": 384,
          "midi": 44,
          "name": "G#2",
          "ticks": 59520,
          "time": 31,
          "velocity": 0.5118110236220472
        },
        {
          "duration": 0.1999999999999993,
          "durationTicks": 384,
          "midi": 56,
          "name": "G#3",
          "ticks": 59904,
          "time": 31.200000000000003,
          "velocity": 0.5118110236220472
        },
        {
          "duration": 0.1999999999999993,
          "durationTicks": 384,
          "midi": 55,
          "name": "G3",
          "ticks": 60288,
          "time": 31.400000000000002,
          "velocity": 0.5118110236220472
        },
        {
          "duration": 0.1999999999999993,
          "durationTicks": 384,
          "midi": 54,
          "name": "F#3",
          "ticks": 60672,
          "time": 31.6,
          "velocity": 0.5118110236220472
        },
        {
          "duration": 0.1999999999999993,
          "durationTicks": 384,
          "midi": 53,
          "name": "F3",
          "ticks": 61056,
          "time": 31.8,
          "velocity": 0.5118110236220472
        },
        {
          "duration": 0.20000000000000284,
          "durationTicks": 384,
          "midi": 52,
          "name": "E3",
          "ticks": 61440,
          "time": 32,
          "velocity": 0.5118110236220472
        },
        {
          "duration": 0.19999999999999574,
          "durationTicks": 384,
          "midi": 49,
          "name": "C#3",
          "ticks": 61824,
          "time": 32.2,
          "velocity": 0.5118110236220472
        },
        {
          "duration": 0.20000000000000284,
          "durationTicks": 384,
          "midi": 52,
          "name": "E3",
          "ticks": 62208,
          "time": 32.4,
          "velocity": 0.5118110236220472
        },
        {
          "duration": 0.20000000000000284,
          "durationTicks": 384,
          "midi": 54,
          "name": "F#3",
          "ticks": 62592,
          "time": 32.6,
          "velocity": 0.5118110236220472
        },
        {
          "duration": 0.19999999999999574,
          "durationTicks": 384,
          "midi": 52,
          "name": "E3",
          "ticks": 62976,
          "time": 32.800000000000004,
          "velocity": 0.5118110236220472
        },
        {
          "duration": 0.20000000000000284,
          "durationTicks": 384,
          "midi": 49,
          "name": "C#3",
          "ticks": 63360,
          "time": 33,
          "velocity": 0.5118110236220472
        },
        {
          "duration": 0.19999999999999574,
          "durationTicks": 384,
          "midi": 52,
          "name": "E3",
          "ticks": 63744,
          "time": 33.2,
          "velocity": 0.5118110236220472
        },
        {
          "duration": 0.20000000000000284,
          "durationTicks": 384,
          "midi": 44,
          "name": "G#2",
          "ticks": 64128,
          "time": 33.4,
          "velocity": 0.5118110236220472
        },
        {
          "duration": 0.20000000000000284,
          "durationTicks": 384,
          "midi": 52,
          "name": "E3",
          "ticks": 64512,
          "time": 33.6,
          "velocity": 0.5118110236220472
        },
        {
          "duration": 0.19999999999999574,
          "durationTicks": 384,
          "midi": 54,
          "name": "F#3",
          "ticks": 64896,
          "time": 33.800000000000004,
          "velocity": 0.5118110236220472
        },
        {
          "duration": 0.20000000000000284,
          "durationTicks": 384,
          "midi": 52,
          "name": "E3",
          "ticks": 65280,
          "time": 34,
          "velocity": 0.5118110236220472
        },
        {
          "duration": 0.19999999999999574,
          "durationTicks": 384,
          "midi": 49,
          "name": "C#3",
          "ticks": 65664,
          "time": 34.2,
          "velocity": 0.5118110236220472
        },
        {
          "duration": 0.20000000000000284,
          "durationTicks": 384,
          "midi": 52,
          "name": "E3",
          "ticks": 66048,
          "time": 34.4,
          "velocity": 0.5118110236220472
        },
        {
          "duration": 0.20000000000000284,
          "durationTicks": 384,
          "midi": 54,
          "name": "F#3",
          "ticks": 66432,
          "time": 34.6,
          "velocity": 0.5118110236220472
        },
        {
          "duration": 0.09999999999999432,
          "durationTicks": 192,
          "midi": 61,
          "name": "C#4",
          "ticks": 66816,
          "time": 34.800000000000004,
          "velocity": 0.5118110236220472
        },
        {
          "duration": 0.10000000000000142,
          "durationTicks": 192,
          "midi": 56,
          "name": "G#3",
          "ticks": 67008,
          "time": 34.9,
          "velocity": 0.5118110236220472
        },
        {
          "duration": 0.10000000000000142,
          "durationTicks": 192,
          "midi": 54,
          "name": "F#3",
          "ticks": 67200,
          "time": 35,
          "velocity": 0.5118110236220472
        },
        {
          "duration": 0.10000000000000142,
          "durationTicks": 192,
          "midi": 52,
          "name": "E3",
          "ticks": 67392,
          "time": 35.1,
          "velocity": 0.5118110236220472
        },
        {
          "duration": 0.19999999999999574,
          "durationTicks": 384,
          "midi": 49,
          "name": "C#3",
          "ticks": 67584,
          "time": 35.2,
          "velocity": 0.5118110236220472
        },
        {
          "duration": 0.20000000000000284,
          "durationTicks": 384,
          "midi": 45,
          "name": "A2",
          "ticks": 67968,
          "time": 35.4,
          "velocity": 0.5118110236220472
        },
        {
          "duration": 0.20000000000000284,
          "durationTicks": 384,
          "midi": 49,
          "name": "C#3",
          "ticks": 68352,
          "time": 35.6,
          "velocity": 0.5118110236220472
        },
        {
          "duration": 0.19999999999999574,
          "durationTicks": 384,
          "midi": 45,
          "name": "A2",
          "ticks": 68736,
          "time": 35.800000000000004,
          "velocity": 0.5118110236220472
        },
        {
          "duration": 0.20000000000000284,
          "durationTicks": 384,
          "midi": 49,
          "name": "C#3",
          "ticks": 69120,
          "time": 36,
          "velocity": 0.5118110236220472
        },
        {
          "duration": 0.19999999999999574,
          "durationTicks": 384,
          "midi": 51,
          "name": "D#3",
          "ticks": 69504,
          "time": 36.2,
          "velocity": 0.5118110236220472
        },
        {
          "duration": 0.20000000000000284,
          "durationTicks": 384,
          "midi": 52,
          "name": "E3",
          "ticks": 69888,
          "time": 36.4,
          "velocity": 0.5118110236220472
        },
        {
          "duration": 0.20000000000000284,
          "durationTicks": 384,
          "midi": 54,
          "name": "F#3",
          "ticks": 70272,
          "time": 36.6,
          "velocity": 0.5118110236220472
        },
        {
          "duration": 0.19999999999999574,
          "durationTicks": 384,
          "midi": 56,
          "name": "G#3",
          "ticks": 70656,
          "time": 36.800000000000004,
          "velocity": 0.5118110236220472
        },
        {
          "duration": 0.20000000000000284,
          "durationTicks": 384,
          "midi": 54,
          "name": "F#3",
          "ticks": 71040,
          "time": 37,
          "velocity": 0.5118110236220472
        },
        {
          "duration": 0.19999999999999574,
          "durationTicks": 384,
          "midi": 52,
          "name": "E3",
          "ticks": 71424,
          "time": 37.2,
          "velocity": 0.5118110236220472
        },
        {
          "duration": 0.20000000000000284,
          "durationTicks": 384,
          "midi": 44,
          "name": "G#2",
          "ticks": 71808,
          "time": 37.4,
          "velocity": 0.5118110236220472
        },
        {
          "duration": 0.20000000000000284,
          "durationTicks": 384,
          "midi": 56,
          "name": "G#3",
          "ticks": 72192,
          "time": 37.6,
          "velocity": 0.5118110236220472
        },
        {
          "duration": 0.19999999999999574,
          "durationTicks": 384,
          "midi": 55,
          "name": "G3",
          "ticks": 72576,
          "time": 37.800000000000004,
          "velocity": 0.5118110236220472
        },
        {
          "duration": 0.20000000000000284,
          "durationTicks": 384,
          "midi": 54,
          "name": "F#3",
          "ticks": 72960,
          "time": 38,
          "velocity": 0.5118110236220472
        },
        {
          "duration": 0.20000000000000284,
          "durationTicks": 384,
          "midi": 53,
          "name": "F3",
          "ticks": 73344,
          "time": 38.2,
          "velocity": 0.5118110236220472
        },
        {
          "duration": 0.7999999999999972,
          "durationTicks": 1536,
          "midi": 52,
          "name": "E3",
          "ticks": 73728,
          "time": 38.400000000000006,
          "velocity": 0.5118110236220472
        },
        {
          "duration": 0.7999999999999972,
          "durationTicks": 1536,
          "midi": 57,
          "name": "A3",
          "ticks": 75264,
          "time": 39.2,
          "velocity": 0.5118110236220472
        },
        {
          "duration": 0.8000000000000043,
          "durationTicks": 1536,
          "midi": 51,
          "name": "D#3",
          "ticks": 76800,
          "time": 40,
          "velocity": 0.5118110236220472
        },
        {
          "duration": 0.7999999999999972,
          "durationTicks": 1536,
          "midi": 56,
          "name": "G#3",
          "ticks": 78336,
          "time": 40.800000000000004,
          "velocity": 0.5118110236220472
        },
        {
          "duration": 0.8000000000000043,
          "durationTicks": 1536,
          "midi": 52,
          "name": "E3",
          "ticks": 79872,
          "time": 41.6,
          "velocity": 0.5118110236220472
        },
        {
          "duration": 0.7999999999999972,
          "durationTicks": 1536,
          "midi": 57,
          "name": "A3",
          "ticks": 81408,
          "time": 42.400000000000006,
          "velocity": 0.5118110236220472
        },
        {
          "duration": 0.7999999999999972,
          "durationTicks": 1536,
          "midi": 51,
          "name": "D#3",
          "ticks": 82944,
          "time": 43.2,
          "velocity": 0.5118110236220472
        },
        {
          "duration": 0.4000000000000057,
          "durationTicks": 768,
          "midi": 56,
          "name": "G#3",
          "ticks": 84480,
          "time": 44,
          "velocity": 0.5118110236220472
        },
        {
          "duration": 0.3999999999999986,
          "durationTicks": 768,
          "midi": 54,
          "name": "F#3",
          "ticks": 85248,
          "time": 44.400000000000006,
          "velocity": 0.5118110236220472
        },
        {
          "duration": 0.10000000000000142,
          "durationTicks": 192,
          "midi": 44,
          "name": "G#2",
          "ticks": 85824,
          "time": 44.7,
          "velocity": 0.5118110236220472
        },
        {
          "duration": 0.19999999999999574,
          "durationTicks": 384,
          "midi": 68,
          "name": "G#4",
          "ticks": 86016,
          "time": 44.800000000000004,
          "velocity": 0.5118110236220472
        },
        {
          "duration": 0.10000000000000142,
          "durationTicks": 192,
          "midi": 52,
          "name": "E3",
          "ticks": 86016,
          "time": 44.800000000000004,
          "velocity": 0.5118110236220472
        },
        {
          "duration": 0.09999999999999432,
          "durationTicks": 192,
          "midi": 51,
          "name": "D#3",
          "ticks": 86208,
          "time": 44.900000000000006,
          "velocity": 0.5118110236220472
        },
        {
          "duration": 0.10000000000000142,
          "durationTicks": 192,
          "midi": 69,
          "name": "A4",
          "ticks": 86400,
          "time": 45,
          "velocity": 0.5118110236220472
        },
        {
          "duration": 0.10000000000000142,
          "durationTicks": 192,
          "midi": 49,
          "name": "C#3",
          "ticks": 86400,
          "time": 45,
          "velocity": 0.5118110236220472
        },
        {
          "duration": 0.10000000000000142,
          "durationTicks": 192,
          "midi": 56,
          "name": "G#3",
          "ticks": 86592,
          "time": 45.1,
          "velocity": 0.5118110236220472
        },
        {
          "duration": 0.20000000000000284,
          "durationTicks": 384,
          "midi": 68,
          "name": "G#4",
          "ticks": 86592,
          "time": 45.1,
          "velocity": 0.5118110236220472
        },
        {
          "duration": 0.10000000000000142,
          "durationTicks": 192,
          "midi": 54,
          "name": "F#3",
          "ticks": 86784,
          "time": 45.2,
          "velocity": 0.5118110236220472
        },
        {
          "duration": 0.10000000000000142,
          "durationTicks": 192,
          "midi": 69,
          "name": "A4",
          "ticks": 86976,
          "time": 45.300000000000004,
          "velocity": 0.5118110236220472
        },
        {
          "duration": 0.10000000000000142,
          "durationTicks": 192,
          "midi": 52,
          "name": "E3",
          "ticks": 86976,
          "time": 45.300000000000004,
          "velocity": 0.5118110236220472
        },
        {
          "duration": 0.19999999999999574,
          "durationTicks": 384,
          "midi": 68,
          "name": "G#4",
          "ticks": 87168,
          "time": 45.400000000000006,
          "velocity": 0.5118110236220472
        },
        {
          "duration": 0.09999999999999432,
          "durationTicks": 192,
          "midi": 59,
          "name": "B3",
          "ticks": 87168,
          "time": 45.400000000000006,
          "velocity": 0.5118110236220472
        },
        {
          "duration": 0.10000000000000142,
          "durationTicks": 192,
          "midi": 57,
          "name": "A3",
          "ticks": 87360,
          "time": 45.5,
          "velocity": 0.5118110236220472
        },
        {
          "duration": 0.10000000000000142,
          "durationTicks": 192,
          "midi": 69,
          "name": "A4",
          "ticks": 87552,
          "time": 45.6,
          "velocity": 0.5118110236220472
        },
        {
          "duration": 0.10000000000000142,
          "durationTicks": 192,
          "midi": 56,
          "name": "G#3",
          "ticks": 87552,
          "time": 45.6,
          "velocity": 0.5118110236220472
        },
        {
          "duration": 0.10000000000000142,
          "durationTicks": 192,
          "midi": 57,
          "name": "A3",
          "ticks": 87744,
          "time": 45.7,
          "velocity": 0.5118110236220472
        },
        {
          "duration": 0.20000000000000284,
          "durationTicks": 384,
          "midi": 68,
          "name": "G#4",
          "ticks": 87744,
          "time": 45.7,
          "velocity": 0.5118110236220472
        },
        {
          "duration": 0.10000000000000142,
          "durationTicks": 192,
          "midi": 56,
          "name": "G#3",
          "ticks": 87936,
          "time": 45.800000000000004,
          "velocity": 0.5118110236220472
        },
        {
          "duration": 0.09999999999999432,
          "durationTicks": 192,
          "midi": 69,
          "name": "A4",
          "ticks": 88128,
          "time": 45.900000000000006,
          "velocity": 0.5118110236220472
        },
        {
          "duration": 0.09999999999999432,
          "durationTicks": 192,
          "midi": 54,
          "name": "F#3",
          "ticks": 88128,
          "time": 45.900000000000006,
          "velocity": 0.5118110236220472
        },
        {
          "duration": 0.20000000000000284,
          "durationTicks": 384,
          "midi": 68,
          "name": "G#4",
          "ticks": 88320,
          "time": 46,
          "velocity": 0.5118110236220472
        },
        {
          "duration": 0.10000000000000142,
          "durationTicks": 192,
          "midi": 52,
          "name": "E3",
          "ticks": 88320,
          "time": 46,
          "velocity": 0.5118110236220472
        },
        {
          "duration": 0.10000000000000142,
          "durationTicks": 192,
          "midi": 54,
          "name": "F#3",
          "ticks": 88512,
          "time": 46.1,
          "velocity": 0.5118110236220472
        },
        {
          "duration": 0.10000000000000142,
          "durationTicks": 192,
          "midi": 49,
          "name": "C#3",
          "ticks": 88704,
          "time": 46.2,
          "velocity": 0.5118110236220472
        },
        {
          "duration": 0.20000000000000284,
          "durationTicks": 384,
          "midi": 69,
          "name": "A4",
          "ticks": 88704,
          "time": 46.2,
          "velocity": 0.5118110236220472
        },
        {
          "duration": 0.10000000000000142,
          "durationTicks": 192,
          "midi": 44,
          "name": "G#2",
          "ticks": 88896,
          "time": 46.300000000000004,
          "velocity": 0.5118110236220472
        },
        {
          "duration": 0.09999999999999432,
          "durationTicks": 192,
          "midi": 52,
          "name": "E3",
          "ticks": 89088,
          "time": 46.400000000000006,
          "velocity": 0.5118110236220472
        },
        {
          "duration": 0.19999999999999574,
          "durationTicks": 384,
          "midi": 68,
          "name": "G#4",
          "ticks": 89088,
          "time": 46.400000000000006,
          "velocity": 0.5118110236220472
        },
        {
          "duration": 0.10000000000000142,
          "durationTicks": 192,
          "midi": 51,
          "name": "D#3",
          "ticks": 89280,
          "time": 46.5,
          "velocity": 0.5118110236220472
        },
        {
          "duration": 0.10000000000000142,
          "durationTicks": 192,
          "midi": 49,
          "name": "C#3",
          "ticks": 89472,
          "time": 46.6,
          "velocity": 0.5118110236220472
        },
        {
          "duration": 0.10000000000000142,
          "durationTicks": 192,
          "midi": 69,
          "name": "A4",
          "ticks": 89472,
          "time": 46.6,
          "velocity": 0.5118110236220472
        },
        {
          "duration": 0.10000000000000142,
          "durationTicks": 192,
          "midi": 56,
          "name": "G#3",
          "ticks": 89664,
          "time": 46.7,
          "velocity": 0.5118110236220472
        },
        {
          "duration": 0.20000000000000284,
          "durationTicks": 384,
          "midi": 68,
          "name": "G#4",
          "ticks": 89664,
          "time": 46.7,
          "velocity": 0.5118110236220472
        },
        {
          "duration": 0.10000000000000142,
          "durationTicks": 192,
          "midi": 54,
          "name": "F#3",
          "ticks": 89856,
          "time": 46.800000000000004,
          "velocity": 0.5118110236220472
        },
        {
          "duration": 0.09999999999999432,
          "durationTicks": 192,
          "midi": 69,
          "name": "A4",
          "ticks": 90048,
          "time": 46.900000000000006,
          "velocity": 0.5118110236220472
        },
        {
          "duration": 0.09999999999999432,
          "durationTicks": 192,
          "midi": 52,
          "name": "E3",
          "ticks": 90048,
          "time": 46.900000000000006,
          "velocity": 0.5118110236220472
        },
        {
          "duration": 0.10000000000000142,
          "durationTicks": 192,
          "midi": 59,
          "name": "B3",
          "ticks": 90240,
          "time": 47,
          "velocity": 0.5118110236220472
        },
        {
          "duration": 0.20000000000000284,
          "durationTicks": 384,
          "midi": 68,
          "name": "G#4",
          "ticks": 90240,
          "time": 47,
          "velocity": 0.5118110236220472
        },
        {
          "duration": 0.10000000000000142,
          "durationTicks": 192,
          "midi": 57,
          "name": "A3",
          "ticks": 90432,
          "time": 47.1,
          "velocity": 0.5118110236220472
        },
        {
          "duration": 0.10000000000000142,
          "durationTicks": 192,
          "midi": 69,
          "name": "A4",
          "ticks": 90624,
          "time": 47.2,
          "velocity": 0.5118110236220472
        },
        {
          "duration": 0.10000000000000142,
          "durationTicks": 192,
          "midi": 56,
          "name": "G#3",
          "ticks": 90624,
          "time": 47.2,
          "velocity": 0.5118110236220472
        },
        {
          "duration": 0.19999999999999574,
          "durationTicks": 384,
          "midi": 68,
          "name": "G#4",
          "ticks": 90816,
          "time": 47.300000000000004,
          "velocity": 0.5118110236220472
        },
        {
          "duration": 0.10000000000000142,
          "durationTicks": 192,
          "midi": 57,
          "name": "A3",
          "ticks": 90816,
          "time": 47.300000000000004,
          "velocity": 0.5118110236220472
        },
        {
          "duration": 0.09999999999999432,
          "durationTicks": 192,
          "midi": 56,
          "name": "G#3",
          "ticks": 91008,
          "time": 47.400000000000006,
          "velocity": 0.5118110236220472
        },
        {
          "duration": 0.10000000000000142,
          "durationTicks": 192,
          "midi": 69,
          "name": "A4",
          "ticks": 91200,
          "time": 47.5,
          "velocity": 0.5118110236220472
        },
        {
          "duration": 0.10000000000000142,
          "durationTicks": 192,
          "midi": 54,
          "name": "F#3",
          "ticks": 91200,
          "time": 47.5,
          "velocity": 0.5118110236220472
        },
        {
          "duration": 0.20000000000000284,
          "durationTicks": 384,
          "midi": 68,
          "name": "G#4",
          "ticks": 91392,
          "time": 47.6,
          "velocity": 0.5118110236220472
        },
        {
          "duration": 0.10000000000000142,
          "durationTicks": 192,
          "midi": 52,
          "name": "E3",
          "ticks": 91392,
          "time": 47.6,
          "velocity": 0.5118110236220472
        },
        {
          "duration": 0.10000000000000142,
          "durationTicks": 192,
          "midi": 54,
          "name": "F#3",
          "ticks": 91584,
          "time": 47.7,
          "velocity": 0.5118110236220472
        },
        {
          "duration": 0.10000000000000142,
          "durationTicks": 192,
          "midi": 44,
          "name": "G#2",
          "ticks": 91776,
          "time": 47.800000000000004,
          "velocity": 0.5118110236220472
        },
        {
          "duration": 0.19999999999999574,
          "durationTicks": 384,
          "midi": 69,
          "name": "A4",
          "ticks": 91776,
          "time": 47.800000000000004,
          "velocity": 0.5118110236220472
        },
        {
          "duration": 0.09999999999999432,
          "durationTicks": 192,
          "midi": 49,
          "name": "C#3",
          "ticks": 91968,
          "time": 47.900000000000006,
          "velocity": 0.5118110236220472
        },
        {
          "duration": 0.20000000000000284,
          "durationTicks": 384,
          "midi": 66,
          "name": "F#4",
          "ticks": 92160,
          "time": 48,
          "velocity": 0.5118110236220472
        },
        {
          "duration": 0.10000000000000142,
          "durationTicks": 192,
          "midi": 52,
          "name": "E3",
          "ticks": 92160,
          "time": 48,
          "velocity": 0.5118110236220472
        },
        {
          "duration": 0.10000000000000142,
          "durationTicks": 192,
          "midi": 51,
          "name": "D#3",
          "ticks": 92352,
          "time": 48.1,
          "velocity": 0.5118110236220472
        },
        {
          "duration": 0.10000000000000142,
          "durationTicks": 192,
          "midi": 68,
          "name": "G#4",
          "ticks": 92544,
          "time": 48.2,
          "velocity": 0.5118110236220472
        },
        {
          "duration": 0.10000000000000142,
          "durationTicks": 192,
          "midi": 49,
          "name": "C#3",
          "ticks": 92544,
          "time": 48.2,
          "velocity": 0.5118110236220472
        },
        {
          "duration": 0.19999999999999574,
          "durationTicks": 384,
          "midi": 66,
          "name": "F#4",
          "ticks": 92736,
          "time": 48.300000000000004,
          "velocity": 0.5118110236220472
        },
        {
          "duration": 0.10000000000000142,
          "durationTicks": 192,
          "midi": 56,
          "name": "G#3",
          "ticks": 92736,
          "time": 48.300000000000004,
          "velocity": 0.5118110236220472
        },
        {
          "duration": 0.09999999999999432,
          "durationTicks": 192,
          "midi": 54,
          "name": "F#3",
          "ticks": 92928,
          "time": 48.400000000000006,
          "velocity": 0.5118110236220472
        },
        {
          "duration": 0.10000000000000142,
          "durationTicks": 192,
          "midi": 68,
          "name": "G#4",
          "ticks": 93120,
          "time": 48.5,
          "velocity": 0.5118110236220472
        },
        {
          "duration": 0.10000000000000142,
          "durationTicks": 192,
          "midi": 52,
          "name": "E3",
          "ticks": 93120,
          "time": 48.5,
          "velocity": 0.5118110236220472
        },
        {
          "duration": 0.10000000000000142,
          "durationTicks": 192,
          "midi": 59,
          "name": "B3",
          "ticks": 93312,
          "time": 48.6,
          "velocity": 0.5118110236220472
        },
        {
          "duration": 0.20000000000000284,
          "durationTicks": 384,
          "midi": 66,
          "name": "F#4",
          "ticks": 93312,
          "time": 48.6,
          "velocity": 0.5118110236220472
        },
        {
          "duration": 0.10000000000000142,
          "durationTicks": 192,
          "midi": 57,
          "name": "A3",
          "ticks": 93504,
          "time": 48.7,
          "velocity": 0.5118110236220472
        },
        {
          "duration": 0.10000000000000142,
          "durationTicks": 192,
          "midi": 68,
          "name": "G#4",
          "ticks": 93696,
          "time": 48.800000000000004,
          "velocity": 0.5118110236220472
        },
        {
          "duration": 0.10000000000000142,
          "durationTicks": 192,
          "midi": 56,
          "name": "G#3",
          "ticks": 93696,
          "time": 48.800000000000004,
          "velocity": 0.5118110236220472
        },
        {
          "duration": 0.09999999999999432,
          "durationTicks": 192,
          "midi": 57,
          "name": "A3",
          "ticks": 93888,
          "time": 48.900000000000006,
          "velocity": 0.5118110236220472
        },
        {
          "duration": 0.19999999999999574,
          "durationTicks": 384,
          "midi": 66,
          "name": "F#4",
          "ticks": 93888,
          "time": 48.900000000000006,
          "velocity": 0.5118110236220472
        },
        {
          "duration": 0.10000000000000142,
          "durationTicks": 192,
          "midi": 56,
          "name": "G#3",
          "ticks": 94080,
          "time": 49,
          "velocity": 0.5118110236220472
        },
        {
          "duration": 0.10000000000000142,
          "durationTicks": 192,
          "midi": 54,
          "name": "F#3",
          "ticks": 94272,
          "time": 49.1,
          "velocity": 0.5118110236220472
        },
        {
          "duration": 0.10000000000000142,
          "durationTicks": 192,
          "midi": 68,
          "name": "G#4",
          "ticks": 94272,
          "time": 49.1,
          "velocity": 0.5118110236220472
        },
        {
          "duration": 0.20000000000000284,
          "durationTicks": 384,
          "midi": 66,
          "name": "F#4",
          "ticks": 94464,
          "time": 49.2,
          "velocity": 0.5118110236220472
        },
        {
          "duration": 0.10000000000000142,
          "durationTicks": 192,
          "midi": 52,
          "name": "E3",
          "ticks": 94464,
          "time": 49.2,
          "velocity": 0.5118110236220472
        },
        {
          "duration": 0.10000000000000142,
          "durationTicks": 192,
          "midi": 54,
          "name": "F#3",
          "ticks": 94656,
          "time": 49.300000000000004,
          "velocity": 0.5118110236220472
        },
        {
          "duration": 0.09999999999999432,
          "durationTicks": 192,
          "midi": 49,
          "name": "C#3",
          "ticks": 94848,
          "time": 49.400000000000006,
          "velocity": 0.5118110236220472
        },
        {
          "duration": 0.19999999999999574,
          "durationTicks": 384,
          "midi": 68,
          "name": "G#4",
          "ticks": 94848,
          "time": 49.400000000000006,
          "velocity": 0.5118110236220472
        },
        {
          "duration": 0.10000000000000142,
          "durationTicks": 192,
          "midi": 44,
          "name": "G#2",
          "ticks": 95040,
          "time": 49.5,
          "velocity": 0.5118110236220472
        },
        {
          "duration": 0.20000000000000284,
          "durationTicks": 384,
          "midi": 64,
          "name": "E4",
          "ticks": 95232,
          "time": 49.6,
          "velocity": 0.5118110236220472
        },
        {
          "duration": 0.10000000000000142,
          "durationTicks": 192,
          "midi": 52,
          "name": "E3",
          "ticks": 95232,
          "time": 49.6,
          "velocity": 0.5118110236220472
        },
        {
          "duration": 0.10000000000000142,
          "durationTicks": 192,
          "midi": 51,
          "name": "D#3",
          "ticks": 95424,
          "time": 49.7,
          "velocity": 0.5118110236220472
        },
        {
          "duration": 0.10000000000000142,
          "durationTicks": 192,
          "midi": 49,
          "name": "C#3",
          "ticks": 95616,
          "time": 49.800000000000004,
          "velocity": 0.5118110236220472
        },
        {
          "duration": 0.10000000000000142,
          "durationTicks": 192,
          "midi": 68,
          "name": "G#4",
          "ticks": 95616,
          "time": 49.800000000000004,
          "velocity": 0.5118110236220472
        },
        {
          "duration": 0.09999999999999432,
          "durationTicks": 192,
          "midi": 56,
          "name": "G#3",
          "ticks": 95808,
          "time": 49.900000000000006,
          "velocity": 0.5118110236220472
        },
        {
          "duration": 0.19999999999999574,
          "durationTicks": 384,
          "midi": 64,
          "name": "E4",
          "ticks": 95808,
          "time": 49.900000000000006,
          "velocity": 0.5118110236220472
        },
        {
          "duration": 0.10000000000000142,
          "durationTicks": 192,
          "midi": 54,
          "name": "F#3",
          "ticks": 96000,
          "time": 50,
          "velocity": 0.5118110236220472
        },
        {
          "duration": 0.10000000000000142,
          "durationTicks": 192,
          "midi": 68,
          "name": "G#4",
          "ticks": 96192,
          "time": 50.1,
          "velocity": 0.5118110236220472
        },
        {
          "duration": 0.10000000000000142,
          "durationTicks": 192,
          "midi": 52,
          "name": "E3",
          "ticks": 96192,
          "time": 50.1,
          "velocity": 0.5118110236220472
        },
        {
          "duration": 0.10000000000000142,
          "durationTicks": 192,
          "midi": 59,
          "name": "B3",
          "ticks": 96384,
          "time": 50.2,
          "velocity": 0.5118110236220472
        },
        {
          "duration": 0.20000000000000284,
          "durationTicks": 384,
          "midi": 63,
          "name": "D#4",
          "ticks": 96384,
          "time": 50.2,
          "velocity": 0.5118110236220472
        },
        {
          "duration": 0.10000000000000142,
          "durationTicks": 192,
          "midi": 57,
          "name": "A3",
          "ticks": 96576,
          "time": 50.300000000000004,
          "velocity": 0.5118110236220472
        },
        {
          "duration": 0.09999999999999432,
          "durationTicks": 192,
          "midi": 66,
          "name": "F#4",
          "ticks": 96768,
          "time": 50.400000000000006,
          "velocity": 0.5118110236220472
        },
        {
          "duration": 0.09999999999999432,
          "durationTicks": 192,
          "midi": 56,
          "name": "G#3",
          "ticks": 96768,
          "time": 50.400000000000006,
          "velocity": 0.5118110236220472
        },
        {
          "duration": 0.10000000000000142,
          "durationTicks": 192,
          "midi": 57,
          "name": "A3",
          "ticks": 96960,
          "time": 50.5,
          "velocity": 0.5118110236220472
        },
        {
          "duration": 0.20000000000000284,
          "durationTicks": 384,
          "midi": 63,
          "name": "D#4",
          "ticks": 96960,
          "time": 50.5,
          "velocity": 0.5118110236220472
        },
        {
          "duration": 0.10000000000000142,
          "durationTicks": 192,
          "midi": 56,
          "name": "G#3",
          "ticks": 97152,
          "time": 50.6,
          "velocity": 0.5118110236220472
        },
        {
          "duration": 0.10000000000000142,
          "durationTicks": 192,
          "midi": 66,
          "name": "F#4",
          "ticks": 97344,
          "time": 50.7,
          "velocity": 0.5118110236220472
        },
        {
          "duration": 0.10000000000000142,
          "durationTicks": 192,
          "midi": 54,
          "name": "F#3",
          "ticks": 97344,
          "time": 50.7,
          "velocity": 0.5118110236220472
        },
        {
          "duration": 0.19999999999999574,
          "durationTicks": 384,
          "midi": 63,
          "name": "D#4",
          "ticks": 97536,
          "time": 50.800000000000004,
          "velocity": 0.5118110236220472
        },
        {
          "duration": 0.10000000000000142,
          "durationTicks": 192,
          "midi": 52,
          "name": "E3",
          "ticks": 97536,
          "time": 50.800000000000004,
          "velocity": 0.5118110236220472
        },
        {
          "duration": 0.09999999999999432,
          "durationTicks": 192,
          "midi": 54,
          "name": "F#3",
          "ticks": 97728,
          "time": 50.900000000000006,
          "velocity": 0.5118110236220472
        },
        {
          "duration": 0.20000000000000284,
          "durationTicks": 384,
          "midi": 61,
          "name": "C#4",
          "ticks": 97920,
          "time": 51,
          "velocity": 0.5118110236220472
        },
        {
          "duration": 0.10000000000000142,
          "durationTicks": 192,
          "midi": 44,
          "name": "G#2",
          "ticks": 97920,
          "time": 51,
          "velocity": 0.5118110236220472
        },
        {
          "duration": 0.10000000000000142,
          "durationTicks": 192,
          "midi": 49,
          "name": "C#3",
          "ticks": 98112,
          "time": 51.1,
          "velocity": 0.5118110236220472
        },
        {
          "duration": 0.20000000000000284,
          "durationTicks": 384,
          "midi": 69,
          "name": "A4",
          "ticks": 98304,
          "time": 51.2,
          "velocity": 0.5118110236220472
        },
        {
          "duration": 0.10000000000000142,
          "durationTicks": 192,
          "midi": 53,
          "name": "F3",
          "ticks": 98304,
          "time": 51.2,
          "velocity": 0.5118110236220472
        },
        {
          "duration": 0.10000000000000142,
          "durationTicks": 192,
          "midi": 52,
          "name": "E3",
          "ticks": 98496,
          "time": 51.300000000000004,
          "velocity": 0.5118110236220472
        },
        {
          "duration": 0.09999999999999432,
          "durationTicks": 192,
          "midi": 70,
          "name": "A#4",
          "ticks": 98688,
          "time": 51.400000000000006,
          "velocity": 0.5118110236220472
        },
        {
          "duration": 0.09999999999999432,
          "durationTicks": 192,
          "midi": 50,
          "name": "D3",
          "ticks": 98688,
          "time": 51.400000000000006,
          "velocity": 0.5118110236220472
        },
        {
          "duration": 0.10000000000000142,
          "durationTicks": 192,
          "midi": 57,
          "name": "A3",
          "ticks": 98880,
          "time": 51.5,
          "velocity": 0.5118110236220472
        },
        {
          "duration": 0.20000000000000284,
          "durationTicks": 384,
          "midi": 69,
          "name": "A4",
          "ticks": 98880,
          "time": 51.5,
          "velocity": 0.5118110236220472
        },
        {
          "duration": 0.10000000000000142,
          "durationTicks": 192,
          "midi": 55,
          "name": "G3",
          "ticks": 99072,
          "time": 51.6,
          "velocity": 0.5118110236220472
        },
        {
          "duration": 0.10000000000000142,
          "durationTicks": 192,
          "midi": 70,
          "name": "A#4",
          "ticks": 99264,
          "time": 51.7,
          "velocity": 0.5118110236220472
        },
        {
          "duration": 0.10000000000000142,
          "durationTicks": 192,
          "midi": 53,
          "name": "F3",
          "ticks": 99264,
          "time": 51.7,
          "velocity": 0.5118110236220472
        },
        {
          "duration": 0.19999999999999574,
          "durationTicks": 384,
          "midi": 69,
          "name": "A4",
          "ticks": 99456,
          "time": 51.800000000000004,
          "velocity": 0.5118110236220472
        },
        {
          "duration": 0.10000000000000142,
          "durationTicks": 192,
          "midi": 60,
          "name": "C4",
          "ticks": 99456,
          "time": 51.800000000000004,
          "velocity": 0.5118110236220472
        },
        {
          "duration": 0.09999999999999432,
          "durationTicks": 192,
          "midi": 58,
          "name": "A#3",
          "ticks": 99648,
          "time": 51.900000000000006,
          "velocity": 0.5118110236220472
        },
        {
          "duration": 0.10000000000000142,
          "durationTicks": 192,
          "midi": 57,
          "name": "A3",
          "ticks": 99840,
          "time": 52,
          "velocity": 0.5118110236220472
        },
        {
          "duration": 0.10000000000000142,
          "durationTicks": 192,
          "midi": 70,
          "name": "A#4",
          "ticks": 99840,
          "time": 52,
          "velocity": 0.5118110236220472
        },
        {
          "duration": 0.20000000000000284,
          "durationTicks": 384,
          "midi": 69,
          "name": "A4",
          "ticks": 100032,
          "time": 52.1,
          "velocity": 0.5118110236220472
        },
        {
          "duration": 0.10000000000000142,
          "durationTicks": 192,
          "midi": 58,
          "name": "A#3",
          "ticks": 100032,
          "time": 52.1,
          "velocity": 0.5118110236220472
        },
        {
          "duration": 0.10000000000000142,
          "durationTicks": 192,
          "midi": 57,
          "name": "A3",
          "ticks": 100224,
          "time": 52.2,
          "velocity": 0.5118110236220472
        },
        {
          "duration": 0.10000000000000142,
          "durationTicks": 192,
          "midi": 55,
          "name": "G3",
          "ticks": 100416,
          "time": 52.300000000000004,
          "velocity": 0.5118110236220472
        },
        {
          "duration": 0.10000000000000142,
          "durationTicks": 192,
          "midi": 70,
          "name": "A#4",
          "ticks": 100416,
          "time": 52.300000000000004,
          "velocity": 0.5118110236220472
        },
        {
          "duration": 0.09999999999999432,
          "durationTicks": 192,
          "midi": 53,
          "name": "F3",
          "ticks": 100608,
          "time": 52.400000000000006,
          "velocity": 0.5118110236220472
        },
        {
          "duration": 0.19999999999999574,
          "durationTicks": 384,
          "midi": 69,
          "name": "A4",
          "ticks": 100608,
          "time": 52.400000000000006,
          "velocity": 0.5118110236220472
        },
        {
          "duration": 0.10000000000000142,
          "durationTicks": 192,
          "midi": 55,
          "name": "G3",
          "ticks": 100800,
          "time": 52.5,
          "velocity": 0.5118110236220472
        },
        {
          "duration": 0.20000000000000284,
          "durationTicks": 384,
          "midi": 70,
          "name": "A#4",
          "ticks": 100992,
          "time": 52.6,
          "velocity": 0.5118110236220472
        },
        {
          "duration": 0.10000000000000142,
          "durationTicks": 192,
          "midi": 50,
          "name": "D3",
          "ticks": 100992,
          "time": 52.6,
          "velocity": 0.5118110236220472
        },
        {
          "duration": 0.10000000000000142,
          "durationTicks": 192,
          "midi": 45,
          "name": "A2",
          "ticks": 101184,
          "time": 52.7,
          "velocity": 0.5118110236220472
        },
        {
          "duration": 0.19999999999999574,
          "durationTicks": 384,
          "midi": 69,
          "name": "A4",
          "ticks": 101376,
          "time": 52.800000000000004,
          "velocity": 0.5118110236220472
        },
        {
          "duration": 0.10000000000000142,
          "durationTicks": 192,
          "midi": 53,
          "name": "F3",
          "ticks": 101376,
          "time": 52.800000000000004,
          "velocity": 0.5118110236220472
        },
        {
          "duration": 0.09999999999999432,
          "durationTicks": 192,
          "midi": 52,
          "name": "E3",
          "ticks": 101568,
          "time": 52.900000000000006,
          "velocity": 0.5118110236220472
        },
        {
          "duration": 0.10000000000000142,
          "durationTicks": 192,
          "midi": 70,
          "name": "A#4",
          "ticks": 101760,
          "time": 53,
          "velocity": 0.5118110236220472
        },
        {
          "duration": 0.10000000000000142,
          "durationTicks": 192,
          "midi": 50,
          "name": "D3",
          "ticks": 101760,
          "time": 53,
          "velocity": 0.5118110236220472
        },
        {
          "duration": 0.10000000000000142,
          "durationTicks": 192,
          "midi": 57,
          "name": "A3",
          "ticks": 101952,
          "time": 53.1,
          "velocity": 0.5118110236220472
        },
        {
          "duration": 0.20000000000000284,
          "durationTicks": 384,
          "midi": 69,
          "name": "A4",
          "ticks": 101952,
          "time": 53.1,
          "velocity": 0.5118110236220472
        },
        {
          "duration": 0.10000000000000142,
          "durationTicks": 192,
          "midi": 55,
          "name": "G3",
          "ticks": 102144,
          "time": 53.2,
          "velocity": 0.5118110236220472
        },
        {
          "duration": 0.10000000000000142,
          "durationTicks": 192,
          "midi": 53,
          "name": "F3",
          "ticks": 102336,
          "time": 53.300000000000004,
          "velocity": 0.5118110236220472
        },
        {
          "duration": 0.10000000000000142,
          "durationTicks": 192,
          "midi": 70,
          "name": "A#4",
          "ticks": 102336,
          "time": 53.300000000000004,
          "velocity": 0.5118110236220472
        },
        {
          "duration": 0.09999999999999432,
          "durationTicks": 192,
          "midi": 60,
          "name": "C4",
          "ticks": 102528,
          "time": 53.400000000000006,
          "velocity": 0.5118110236220472
        },
        {
          "duration": 0.19999999999999574,
          "durationTicks": 384,
          "midi": 69,
          "name": "A4",
          "ticks": 102528,
          "time": 53.400000000000006,
          "velocity": 0.5118110236220472
        },
        {
          "duration": 0.10000000000000142,
          "durationTicks": 192,
          "midi": 58,
          "name": "A#3",
          "ticks": 102720,
          "time": 53.5,
          "velocity": 0.5118110236220472
        },
        {
          "duration": 0.10000000000000142,
          "durationTicks": 192,
          "midi": 70,
          "name": "A#4",
          "ticks": 102912,
          "time": 53.6,
          "velocity": 0.5118110236220472
        },
        {
          "duration": 0.10000000000000142,
          "durationTicks": 192,
          "midi": 57,
          "name": "A3",
          "ticks": 102912,
          "time": 53.6,
          "velocity": 0.5118110236220472
        },
        {
          "duration": 0.10000000000000142,
          "durationTicks": 192,
          "midi": 58,
          "name": "A#3",
          "ticks": 103104,
          "time": 53.7,
          "velocity": 0.5118110236220472
        },
        {
          "duration": 0.20000000000000284,
          "durationTicks": 384,
          "midi": 69,
          "name": "A4",
          "ticks": 103104,
          "time": 53.7,
          "velocity": 0.5118110236220472
        },
        {
          "duration": 0.10000000000000142,
          "durationTicks": 192,
          "midi": 57,
          "name": "A3",
          "ticks": 103296,
          "time": 53.800000000000004,
          "velocity": 0.5118110236220472
        },
        {
          "duration": 0.09999999999999432,
          "durationTicks": 192,
          "midi": 70,
          "name": "A#4",
          "ticks": 103488,
          "time": 53.900000000000006,
          "velocity": 0.5118110236220472
        },
        {
          "duration": 0.09999999999999432,
          "durationTicks": 192,
          "midi": 55,
          "name": "G3",
          "ticks": 103488,
          "time": 53.900000000000006,
          "velocity": 0.5118110236220472
        },
        {
          "duration": 0.10000000000000142,
          "durationTicks": 192,
          "midi": 53,
          "name": "F3",
          "ticks": 103680,
          "time": 54,
          "velocity": 0.5118110236220472
        },
        {
          "duration": 0.20000000000000284,
          "durationTicks": 384,
          "midi": 69,
          "name": "A4",
          "ticks": 103680,
          "time": 54,
          "velocity": 0.5118110236220472
        },
        {
          "duration": 0.10000000000000142,
          "durationTicks": 192,
          "midi": 55,
          "name": "G3",
          "ticks": 103872,
          "time": 54.1,
          "velocity": 0.5118110236220472
        },
        {
          "duration": 0.10000000000000142,
          "durationTicks": 192,
          "midi": 45,
          "name": "A2",
          "ticks": 104064,
          "time": 54.2,
          "velocity": 0.5118110236220472
        },
        {
          "duration": 0.20000000000000284,
          "durationTicks": 384,
          "midi": 70,
          "name": "A#4",
          "ticks": 104064,
          "time": 54.2,
          "velocity": 0.5118110236220472
        },
        {
          "duration": 0.10000000000000142,
          "durationTicks": 192,
          "midi": 50,
          "name": "D3",
          "ticks": 104256,
          "time": 54.300000000000004,
          "velocity": 0.5118110236220472
        },
        {
          "duration": 0.09999999999999432,
          "durationTicks": 192,
          "midi": 53,
          "name": "F3",
          "ticks": 104448,
          "time": 54.400000000000006,
          "velocity": 0.5118110236220472
        },
        {
          "duration": 0.19999999999999574,
          "durationTicks": 384,
          "midi": 67,
          "name": "G4",
          "ticks": 104448,
          "time": 54.400000000000006,
          "velocity": 0.5118110236220472
        },
        {
          "duration": 0.10000000000000142,
          "durationTicks": 192,
          "midi": 52,
          "name": "E3",
          "ticks": 104640,
          "time": 54.5,
          "velocity": 0.5118110236220472
        },
        {
          "duration": 0.10000000000000142,
          "durationTicks": 192,
          "midi": 50,
          "name": "D3",
          "ticks": 104832,
          "time": 54.6,
          "velocity": 0.5118110236220472
        },
        {
          "duration": 0.10000000000000142,
          "durationTicks": 192,
          "midi": 69,
          "name": "A4",
          "ticks": 104832,
          "time": 54.6,
          "velocity": 0.5118110236220472
        },
        {
          "duration": 0.20000000000000284,
          "durationTicks": 384,
          "midi": 67,
          "name": "G4",
          "ticks": 105024,
          "time": 54.7,
          "velocity": 0.5118110236220472
        },
        {
          "duration": 0.10000000000000142,
          "durationTicks": 192,
          "midi": 57,
          "name": "A3",
          "ticks": 105024,
          "time": 54.7,
          "velocity": 0.5118110236220472
        },
        {
          "duration": 0.10000000000000142,
          "durationTicks": 192,
          "midi": 55,
          "name": "G3",
          "ticks": 105216,
          "time": 54.800000000000004,
          "velocity": 0.5118110236220472
        },
        {
          "duration": 0.09999999999999432,
          "durationTicks": 192,
          "midi": 69,
          "name": "A4",
          "ticks": 105408,
          "time": 54.900000000000006,
          "velocity": 0.5118110236220472
        },
        {
          "duration": 0.09999999999999432,
          "durationTicks": 192,
          "midi": 53,
          "name": "F3",
          "ticks": 105408,
          "time": 54.900000000000006,
          "velocity": 0.5118110236220472
        },
        {
          "duration": 0.20000000000000284,
          "durationTicks": 384,
          "midi": 67,
          "name": "G4",
          "ticks": 105600,
          "time": 55,
          "velocity": 0.5118110236220472
        },
        {
          "duration": 0.10000000000000142,
          "durationTicks": 192,
          "midi": 60,
          "name": "C4",
          "ticks": 105600,
          "time": 55,
          "velocity": 0.5118110236220472
        },
        {
          "duration": 0.10000000000000142,
          "durationTicks": 192,
          "midi": 58,
          "name": "A#3",
          "ticks": 105792,
          "time": 55.1,
          "velocity": 0.5118110236220472
        },
        {
          "duration": 0.10000000000000142,
          "durationTicks": 192,
          "midi": 69,
          "name": "A4",
          "ticks": 105984,
          "time": 55.2,
          "velocity": 0.5118110236220472
        },
        {
          "duration": 0.10000000000000142,
          "durationTicks": 192,
          "midi": 57,
          "name": "A3",
          "ticks": 105984,
          "time": 55.2,
          "velocity": 0.5118110236220472
        },
        {
          "duration": 0.19999999999999574,
          "durationTicks": 384,
          "midi": 67,
          "name": "G4",
          "ticks": 106176,
          "time": 55.300000000000004,
          "velocity": 0.5118110236220472
        },
        {
          "duration": 0.10000000000000142,
          "durationTicks": 192,
          "midi": 58,
          "name": "A#3",
          "ticks": 106176,
          "time": 55.300000000000004,
          "velocity": 0.5118110236220472
        },
        {
          "duration": 0.09999999999999432,
          "durationTicks": 192,
          "midi": 57,
          "name": "A3",
          "ticks": 106368,
          "time": 55.400000000000006,
          "velocity": 0.5118110236220472
        },
        {
          "duration": 0.10000000000000142,
          "durationTicks": 192,
          "midi": 55,
          "name": "G3",
          "ticks": 106560,
          "time": 55.5,
          "velocity": 0.5118110236220472
        },
        {
          "duration": 0.10000000000000142,
          "durationTicks": 192,
          "midi": 69,
          "name": "A4",
          "ticks": 106560,
          "time": 55.5,
          "velocity": 0.5118110236220472
        },
        {
          "duration": 0.10000000000000142,
          "durationTicks": 192,
          "midi": 53,
          "name": "F3",
          "ticks": 106752,
          "time": 55.6,
          "velocity": 0.5118110236220472
        },
        {
          "duration": 0.20000000000000284,
          "durationTicks": 384,
          "midi": 67,
          "name": "G4",
          "ticks": 106752,
          "time": 55.6,
          "velocity": 0.5118110236220472
        },
        {
          "duration": 0.10000000000000142,
          "durationTicks": 192,
          "midi": 55,
          "name": "G3",
          "ticks": 106944,
          "time": 55.7,
          "velocity": 0.5118110236220472
        },
        {
          "duration": 0.10000000000000142,
          "durationTicks": 192,
          "midi": 50,
          "name": "D3",
          "ticks": 107136,
          "time": 55.800000000000004,
          "velocity": 0.5118110236220472
        },
        {
          "duration": 0.19999999999999574,
          "durationTicks": 384,
          "midi": 69,
          "name": "A4",
          "ticks": 107136,
          "time": 55.800000000000004,
          "velocity": 0.5118110236220472
        },
        {
          "duration": 0.09999999999999432,
          "durationTicks": 192,
          "midi": 45,
          "name": "A2",
          "ticks": 107328,
          "time": 55.900000000000006,
          "velocity": 0.5118110236220472
        },
        {
          "duration": 0.20000000000000284,
          "durationTicks": 384,
          "midi": 65,
          "name": "F4",
          "ticks": 107520,
          "time": 56,
          "velocity": 0.5118110236220472
        },
        {
          "duration": 0.10000000000000142,
          "durationTicks": 192,
          "midi": 53,
          "name": "F3",
          "ticks": 107520,
          "time": 56,
          "velocity": 0.5118110236220472
        },
        {
          "duration": 0.10000000000000142,
          "durationTicks": 192,
          "midi": 52,
          "name": "E3",
          "ticks": 107712,
          "time": 56.1,
          "velocity": 0.5118110236220472
        },
        {
          "duration": 0.10000000000000142,
          "durationTicks": 192,
          "midi": 69,
          "name": "A4",
          "ticks": 107904,
          "time": 56.2,
          "velocity": 0.5118110236220472
        },
        {
          "duration": 0.10000000000000142,
          "durationTicks": 192,
          "midi": 50,
          "name": "D3",
          "ticks": 107904,
          "time": 56.2,
          "velocity": 0.5118110236220472
        },
        {
          "duration": 0.19999999999999574,
          "durationTicks": 384,
          "midi": 65,
          "name": "F4",
          "ticks": 108096,
          "time": 56.300000000000004,
          "velocity": 0.5118110236220472
        },
        {
          "duration": 0.10000000000000142,
          "durationTicks": 192,
          "midi": 57,
          "name": "A3",
          "ticks": 108096,
          "time": 56.300000000000004,
          "velocity": 0.5118110236220472
        },
        {
          "duration": 0.09999999999999432,
          "durationTicks": 192,
          "midi": 55,
          "name": "G3",
          "ticks": 108288,
          "time": 56.400000000000006,
          "velocity": 0.5118110236220472
        },
        {
          "duration": 0.10000000000000142,
          "durationTicks": 192,
          "midi": 53,
          "name": "F3",
          "ticks": 108480,
          "time": 56.5,
          "velocity": 0.5118110236220472
        },
        {
          "duration": 0.10000000000000142,
          "durationTicks": 192,
          "midi": 69,
          "name": "A4",
          "ticks": 108480,
          "time": 56.5,
          "velocity": 0.5118110236220472
        },
        {
          "duration": 0.20000000000000284,
          "durationTicks": 384,
          "midi": 64,
          "name": "E4",
          "ticks": 108672,
          "time": 56.6,
          "velocity": 0.5118110236220472
        },
        {
          "duration": 0.10000000000000142,
          "durationTicks": 192,
          "midi": 60,
          "name": "C4",
          "ticks": 108672,
          "time": 56.6,
          "velocity": 0.5118110236220472
        },
        {
          "duration": 0.10000000000000142,
          "durationTicks": 192,
          "midi": 58,
          "name": "A#3",
          "ticks": 108864,
          "time": 56.7,
          "velocity": 0.5118110236220472
        },
        {
          "duration": 0.10000000000000142,
          "durationTicks": 192,
          "midi": 67,
          "name": "G4",
          "ticks": 109056,
          "time": 56.800000000000004,
          "velocity": 0.5118110236220472
        },
        {
          "duration": 0.10000000000000142,
          "durationTicks": 192,
          "midi": 57,
          "name": "A3",
          "ticks": 109056,
          "time": 56.800000000000004,
          "velocity": 0.5118110236220472
        },
        {
          "duration": 0.09999999999999432,
          "durationTicks": 192,
          "midi": 58,
          "name": "A#3",
          "ticks": 109248,
          "time": 56.900000000000006,
          "velocity": 0.5118110236220472
        },
        {
          "duration": 0.19999999999999574,
          "durationTicks": 384,
          "midi": 64,
          "name": "E4",
          "ticks": 109248,
          "time": 56.900000000000006,
          "velocity": 0.5118110236220472
        },
        {
          "duration": 0.10000000000000142,
          "durationTicks": 192,
          "midi": 57,
          "name": "A3",
          "ticks": 109440,
          "time": 57,
          "velocity": 0.5118110236220472
        },
        {
          "duration": 0.10000000000000142,
          "durationTicks": 192,
          "midi": 67,
          "name": "G4",
          "ticks": 109632,
          "time": 57.1,
          "velocity": 0.5118110236220472
        },
        {
          "duration": 0.10000000000000142,
          "durationTicks": 192,
          "midi": 55,
          "name": "G3",
          "ticks": 109632,
          "time": 57.1,
          "velocity": 0.5118110236220472
        },
        {
          "duration": 0.20000000000000284,
          "durationTicks": 384,
          "midi": 64,
          "name": "E4",
          "ticks": 109824,
          "time": 57.2,
          "velocity": 0.5118110236220472
        },
        {
          "duration": 0.10000000000000142,
          "durationTicks": 192,
          "midi": 53,
          "name": "F3",
          "ticks": 109824,
          "time": 57.2,
          "velocity": 0.5118110236220472
        },
        {
          "duration": 0.10000000000000142,
          "durationTicks": 192,
          "midi": 55,
          "name": "G3",
          "ticks": 110016,
          "time": 57.300000000000004,
          "velocity": 0.5118110236220472
        },
        {
          "duration": 0.19999999999999574,
          "durationTicks": 384,
          "midi": 62,
          "name": "D4",
          "ticks": 110208,
          "time": 57.400000000000006,
          "velocity": 0.5118110236220472
        },
        {
          "duration": 0.09999999999999432,
          "durationTicks": 192,
          "midi": 45,
          "name": "A2",
          "ticks": 110208,
          "time": 57.400000000000006,
          "velocity": 0.5118110236220472
        },
        {
          "duration": 0.10000000000000142,
          "durationTicks": 192,
          "midi": 50,
          "name": "D3",
          "ticks": 110400,
          "time": 57.5,
          "velocity": 0.5118110236220472
        },
        {
          "duration": 0.05000000000000426,
          "durationTicks": 96,
          "midi": 77,
          "name": "F5",
          "ticks": 110592,
          "time": 57.6,
          "velocity": 0.5118110236220472
        },
        {
          "duration": 0.10000000000000142,
          "durationTicks": 192,
          "midi": 53,
          "name": "F3",
          "ticks": 110592,
          "time": 57.6,
          "velocity": 0.5118110236220472
        },
        {
          "duration": 0.10000000000000142,
          "durationTicks": 192,
          "midi": 52,
          "name": "E3",
          "ticks": 110784,
          "time": 57.7,
          "velocity": 0.5118110236220472
        },
        {
          "duration": 0.04999999999999716,
          "durationTicks": 96,
          "midi": 74,
          "name": "D5",
          "ticks": 110976,
          "time": 57.800000000000004,
          "velocity": 0.5118110236220472
        },
        {
          "duration": 0.10000000000000142,
          "durationTicks": 192,
          "midi": 50,
          "name": "D3",
          "ticks": 110976,
          "time": 57.800000000000004,
          "velocity": 0.5118110236220472
        },
        {
          "duration": 0.09999999999999432,
          "durationTicks": 192,
          "midi": 57,
          "name": "A3",
          "ticks": 111168,
          "time": 57.900000000000006,
          "velocity": 0.5118110236220472
        },
        {
          "duration": 0.05000000000000426,
          "durationTicks": 96,
          "midi": 76,
          "name": "E5",
          "ticks": 111360,
          "time": 58,
          "velocity": 0.5118110236220472
        },
        {
          "duration": 0.10000000000000142,
          "durationTicks": 192,
          "midi": 55,
          "name": "G3",
          "ticks": 111360,
          "time": 58,
          "velocity": 0.5118110236220472
        },
        {
          "duration": 0.10000000000000142,
          "durationTicks": 192,
          "midi": 53,
          "name": "F3",
          "ticks": 111552,
          "time": 58.1,
          "velocity": 0.5118110236220472
        },
        {
          "duration": 0.04999999999999716,
          "durationTicks": 96,
          "midi": 73,
          "name": "C#5",
          "ticks": 111744,
          "time": 58.2,
          "velocity": 0.5118110236220472
        },
        {
          "duration": 0.10000000000000142,
          "durationTicks": 192,
          "midi": 60,
          "name": "C4",
          "ticks": 111744,
          "time": 58.2,
          "velocity": 0.5118110236220472
        },
        {
          "duration": 0.10000000000000142,
          "durationTicks": 192,
          "midi": 58,
          "name": "A#3",
          "ticks": 111936,
          "time": 58.300000000000004,
          "velocity": 0.5118110236220472
        },
        {
          "duration": 0.09999999999999432,
          "durationTicks": 192,
          "midi": 57,
          "name": "A3",
          "ticks": 112128,
          "time": 58.400000000000006,
          "velocity": 0.5118110236220472
        },
        {
          "duration": 0.04999999999999716,
          "durationTicks": 96,
          "midi": 74,
          "name": "D5",
          "ticks": 112128,
          "time": 58.400000000000006,
          "velocity": 0.5118110236220472
        },
        {
          "duration": 0.10000000000000142,
          "durationTicks": 192,
          "midi": 58,
          "name": "A#3",
          "ticks": 112320,
          "time": 58.5,
          "velocity": 0.5118110236220472
        },
        {
          "duration": 0.05000000000000426,
          "durationTicks": 96,
          "midi": 77,
          "name": "F5",
          "ticks": 112512,
          "time": 58.6,
          "velocity": 0.5118110236220472
        },
        {
          "duration": 0.10000000000000142,
          "durationTicks": 192,
          "midi": 57,
          "name": "A3",
          "ticks": 112512,
          "time": 58.6,
          "velocity": 0.5118110236220472
        },
        {
          "duration": 0.10000000000000142,
          "durationTicks": 192,
          "midi": 55,
          "name": "G3",
          "ticks": 112704,
          "time": 58.7,
          "velocity": 0.5118110236220472
        },
        {
          "duration": 0.10000000000000142,
          "durationTicks": 192,
          "midi": 53,
          "name": "F3",
          "ticks": 112896,
          "time": 58.800000000000004,
          "velocity": 0.5118110236220472
        },
        {
          "duration": 0.04999999999999716,
          "durationTicks": 96,
          "midi": 74,
          "name": "D5",
          "ticks": 112896,
          "time": 58.800000000000004,
          "velocity": 0.5118110236220472
        },
        {
          "duration": 0.04999999999999716,
          "durationTicks": 96,
          "midi": 73,
          "name": "C#5",
          "ticks": 113088,
          "time": 58.900000000000006,
          "velocity": 0.5118110236220472
        },
        {
          "duration": 0.09999999999999432,
          "durationTicks": 192,
          "midi": 55,
          "name": "G3",
          "ticks": 113088,
          "time": 58.900000000000006,
          "velocity": 0.5118110236220472
        },
        {
          "duration": 0.05000000000000426,
          "durationTicks": 96,
          "midi": 74,
          "name": "D5",
          "ticks": 113280,
          "time": 59,
          "velocity": 0.5118110236220472
        },
        {
          "duration": 0.10000000000000142,
          "durationTicks": 192,
          "midi": 50,
          "name": "D3",
          "ticks": 113280,
          "time": 59,
          "velocity": 0.5118110236220472
        },
        {
          "duration": 0.10000000000000142,
          "durationTicks": 192,
          "midi": 45,
          "name": "A2",
          "ticks": 113472,
          "time": 59.1,
          "velocity": 0.5118110236220472
        },
        {
          "duration": 0.04999999999999716,
          "durationTicks": 96,
          "midi": 73,
          "name": "C#5",
          "ticks": 113664,
          "time": 59.2,
          "velocity": 0.5118110236220472
        },
        {
          "duration": 0.10000000000000142,
          "durationTicks": 192,
          "midi": 53,
          "name": "F3",
          "ticks": 113664,
          "time": 59.2,
          "velocity": 0.5118110236220472
        },
        {
          "duration": 0.10000000000000142,
          "durationTicks": 192,
          "midi": 52,
          "name": "E3",
          "ticks": 113856,
          "time": 59.300000000000004,
          "velocity": 0.5118110236220472
        },
        {
          "duration": 0.04999999999999716,
          "durationTicks": 96,
          "midi": 76,
          "name": "E5",
          "ticks": 114048,
          "time": 59.400000000000006,
          "velocity": 0.5118110236220472
        },
        {
          "duration": 0.09999999999999432,
          "durationTicks": 192,
          "midi": 50,
          "name": "D3",
          "ticks": 114048,
          "time": 59.400000000000006,
          "velocity": 0.5118110236220472
        },
        {
          "duration": 0.10000000000000142,
          "durationTicks": 192,
          "midi": 57,
          "name": "A3",
          "ticks": 114240,
          "time": 59.5,
          "velocity": 0.5118110236220472
        },
        {
          "duration": 0.10000000000000142,
          "durationTicks": 192,
          "midi": 55,
          "name": "G3",
          "ticks": 114432,
          "time": 59.6,
          "velocity": 0.5118110236220472
        },
        {
          "duration": 0.05000000000000426,
          "durationTicks": 96,
          "midi": 73,
          "name": "C#5",
          "ticks": 114432,
          "time": 59.6,
          "velocity": 0.5118110236220472
        },
        {
          "duration": 0.10000000000000142,
          "durationTicks": 192,
          "midi": 53,
          "name": "F3",
          "ticks": 114624,
          "time": 59.7,
          "velocity": 0.5118110236220472
        },
        {
          "duration": 0.04999999999999716,
          "durationTicks": 96,
          "midi": 67,
          "name": "G4",
          "ticks": 114624,
          "time": 59.7,
          "velocity": 0.5118110236220472
        },
        {
          "duration": 0.04999999999999716,
          "durationTicks": 96,
          "midi": 70,
          "name": "A#4",
          "ticks": 114816,
          "time": 59.800000000000004,
          "velocity": 0.5118110236220472
        },
        {
          "duration": 0.10000000000000142,
          "durationTicks": 192,
          "midi": 60,
          "name": "C4",
          "ticks": 114816,
          "time": 59.800000000000004,
          "velocity": 0.5118110236220472
        },
        {
          "duration": 0.09999999999999432,
          "durationTicks": 192,
          "midi": 58,
          "name": "A#3",
          "ticks": 115008,
          "time": 59.900000000000006,
          "velocity": 0.5118110236220472
        },
        {
          "duration": 0.05000000000000426,
          "durationTicks": 96,
          "midi": 62,
          "name": "D4",
          "ticks": 115200,
          "time": 60,
          "velocity": 0.5118110236220472
        },
        {
          "duration": 0.05000000000000426,
          "durationTicks": 96,
          "midi": 69,
          "name": "A4",
          "ticks": 115200,
          "time": 60,
          "velocity": 0.5118110236220472
        },
        {
          "duration": 0.10000000000000142,
          "durationTicks": 192,
          "midi": 57,
          "name": "A3",
          "ticks": 115200,
          "time": 60,
          "velocity": 0.5118110236220472
        },
        {
          "duration": 0.10000000000000142,
          "durationTicks": 192,
          "midi": 58,
          "name": "A#3",
          "ticks": 115392,
          "time": 60.1,
          "velocity": 0.5118110236220472
        },
        {
          "duration": 0.04999999999999716,
          "durationTicks": 96,
          "midi": 77,
          "name": "F5",
          "ticks": 115584,
          "time": 60.2,
          "velocity": 0.5118110236220472
        },
        {
          "duration": 0.04999999999999716,
          "durationTicks": 96,
          "midi": 70,
          "name": "A#4",
          "ticks": 115584,
          "time": 60.2,
          "velocity": 0.5118110236220472
        },
        {
          "duration": 0.10000000000000142,
          "durationTicks": 192,
          "midi": 57,
          "name": "A3",
          "ticks": 115584,
          "time": 60.2,
          "velocity": 0.5118110236220472
        },
        {
          "duration": 0.10000000000000142,
          "durationTicks": 192,
          "midi": 55,
          "name": "G3",
          "ticks": 115776,
          "time": 60.300000000000004,
          "velocity": 0.5118110236220472
        },
        {
          "duration": 0.09999999999999432,
          "durationTicks": 192,
          "midi": 53,
          "name": "F3",
          "ticks": 115968,
          "time": 60.400000000000006,
          "velocity": 0.5118110236220472
        },
        {
          "duration": 0.04999999999999716,
          "durationTicks": 96,
          "midi": 74,
          "name": "D5",
          "ticks": 115968,
          "time": 60.400000000000006,
          "velocity": 0.5118110236220472
        },
        {
          "duration": 0.04999999999999716,
          "durationTicks": 96,
          "midi": 69,
          "name": "A4",
          "ticks": 115968,
          "time": 60.400000000000006,
          "velocity": 0.5118110236220472
        },
        {
          "duration": 0.05000000000000426,
          "durationTicks": 96,
          "midi": 73,
          "name": "C#5",
          "ticks": 116160,
          "time": 60.5,
          "velocity": 0.5118110236220472
        },
        {
          "duration": 0.05000000000000426,
          "durationTicks": 96,
          "midi": 67,
          "name": "G4",
          "ticks": 116160,
          "time": 60.5,
          "velocity": 0.5118110236220472
        },
        {
          "duration": 0.10000000000000142,
          "durationTicks": 192,
          "midi": 55,
          "name": "G3",
          "ticks": 116160,
          "time": 60.5,
          "velocity": 0.5118110236220472
        },
        {
          "duration": 0.05000000000000426,
          "durationTicks": 96,
          "midi": 74,
          "name": "D5",
          "ticks": 116352,
          "time": 60.6,
          "velocity": 0.5118110236220472
        },
        {
          "duration": 0.05000000000000426,
          "durationTicks": 96,
          "midi": 65,
          "name": "F4",
          "ticks": 116352,
          "time": 60.6,
          "velocity": 0.5118110236220472
        },
        {
          "duration": 0.10000000000000142,
          "durationTicks": 192,
          "midi": 45,
          "name": "A2",
          "ticks": 116352,
          "time": 60.6,
          "velocity": 0.5118110236220472
        },
        {
          "duration": 0.04999999999999716,
          "durationTicks": 96,
          "midi": 64,
          "name": "E4",
          "ticks": 116736,
          "time": 60.800000000000004,
          "velocity": 0.5118110236220472
        },
        {
          "duration": 0.04999999999999716,
          "durationTicks": 96,
          "midi": 73,
          "name": "C#5",
          "ticks": 116736,
          "time": 60.800000000000004,
          "velocity": 0.5118110236220472
        },
        {
          "duration": 0.05000000000000426,
          "durationTicks": 96,
          "midi": 69,
          "name": "A4",
          "ticks": 117120,
          "time": 61,
          "velocity": 0.5118110236220472
        },
        {
          "duration": 0.05000000000000426,
          "durationTicks": 96,
          "midi": 61,
          "name": "C#4",
          "ticks": 117120,
          "time": 61,
          "velocity": 0.5118110236220472
        },
        {
          "duration": 0.04999999999999716,
          "durationTicks": 96,
          "midi": 70,
          "name": "A#4",
          "ticks": 117504,
          "time": 61.2,
          "velocity": 0.5118110236220472
        },
        {
          "duration": 0.04999999999999716,
          "durationTicks": 96,
          "midi": 77,
          "name": "F5",
          "ticks": 117504,
          "time": 61.2,
          "velocity": 0.5118110236220472
        },
        {
          "duration": 0.04999999999999716,
          "durationTicks": 96,
          "midi": 76,
          "name": "E5",
          "ticks": 117696,
          "time": 61.300000000000004,
          "velocity": 0.5118110236220472
        },
        {
          "duration": 0.04999999999999716,
          "durationTicks": 96,
          "midi": 69,
          "name": "A4",
          "ticks": 117696,
          "time": 61.300000000000004,
          "velocity": 0.5118110236220472
        },
        {
          "duration": 0.04999999999999716,
          "durationTicks": 96,
          "midi": 73,
          "name": "C#5",
          "ticks": 117888,
          "time": 61.400000000000006,
          "velocity": 0.5118110236220472
        },
        {
          "duration": 0.04999999999999716,
          "durationTicks": 96,
          "midi": 67,
          "name": "G4",
          "ticks": 117888,
          "time": 61.400000000000006,
          "velocity": 0.5118110236220472
        },
        {
          "duration": 0.05000000000000426,
          "durationTicks": 96,
          "midi": 69,
          "name": "A4",
          "ticks": 118272,
          "time": 61.6,
          "velocity": 0.5118110236220472
        },
        {
          "duration": 0.04999999999999716,
          "durationTicks": 96,
          "midi": 74,
          "name": "D5",
          "ticks": 118656,
          "time": 61.800000000000004,
          "velocity": 0.5118110236220472
        },
        {
          "duration": 0.05000000000000426,
          "durationTicks": 96,
          "midi": 77,
          "name": "F5",
          "ticks": 119040,
          "time": 62,
          "velocity": 0.5118110236220472
        },
        {
          "duration": 0.05000000000000426,
          "durationTicks": 96,
          "midi": 76,
          "name": "E5",
          "ticks": 119232,
          "time": 62.1,
          "velocity": 0.5118110236220472
        },
        {
          "duration": 0.04999999999999716,
          "durationTicks": 96,
          "midi": 74,
          "name": "D5",
          "ticks": 119424,
          "time": 62.2,
          "velocity": 0.5118110236220472
        },
        {
          "duration": 0.04999999999999716,
          "durationTicks": 96,
          "midi": 77,
          "name": "F5",
          "ticks": 119808,
          "time": 62.400000000000006,
          "velocity": 0.5118110236220472
        },
        {
          "duration": 0.04999999999999716,
          "durationTicks": 96,
          "midi": 82,
          "name": "A#5",
          "ticks": 119808,
          "time": 62.400000000000006,
          "velocity": 0.5118110236220472
        },
        {
          "duration": 0.05000000000000426,
          "durationTicks": 96,
          "midi": 81,
          "name": "A5",
          "ticks": 120000,
          "time": 62.5,
          "velocity": 0.5118110236220472
        },
        {
          "duration": 0.04999999999999716,
          "durationTicks": 96,
          "midi": 82,
          "name": "A#5",
          "ticks": 120096,
          "time": 62.550000000000004,
          "velocity": 0.5118110236220472
        },
        {
          "duration": 0.05000000000000426,
          "durationTicks": 96,
          "midi": 81,
          "name": "A5",
          "ticks": 120192,
          "time": 62.6,
          "velocity": 0.5118110236220472
        },
        {
          "duration": 0.05000000000000426,
          "durationTicks": 96,
          "midi": 77,
          "name": "F5",
          "ticks": 120480,
          "time": 62.75,
          "velocity": 0.5118110236220472
        },
        {
          "duration": 0.04999999999999716,
          "durationTicks": 96,
          "midi": 79,
          "name": "G5",
          "ticks": 120576,
          "time": 62.800000000000004,
          "velocity": 0.5118110236220472
        },
        {
          "duration": 0.04999999999999716,
          "durationTicks": 96,
          "midi": 77,
          "name": "F5",
          "ticks": 120768,
          "time": 62.900000000000006,
          "velocity": 0.5118110236220472
        },
        {
          "duration": 0.05000000000000426,
          "durationTicks": 96,
          "midi": 76,
          "name": "E5",
          "ticks": 120960,
          "time": 63,
          "velocity": 0.5118110236220472
        },
        {
          "duration": 0.05000000000000426,
          "durationTicks": 96,
          "midi": 74,
          "name": "D5",
          "ticks": 121152,
          "time": 63.1,
          "velocity": 0.5118110236220472
        },
        {
          "duration": 0.04999999999999716,
          "durationTicks": 96,
          "midi": 73,
          "name": "C#5",
          "ticks": 121344,
          "time": 63.2,
          "velocity": 0.5118110236220472
        },
        {
          "duration": 0.04999999999999716,
          "durationTicks": 96,
          "midi": 81,
          "name": "A5",
          "ticks": 121728,
          "time": 63.400000000000006,
          "velocity": 0.5118110236220472
        },
        {
          "duration": 0.05000000000000426,
          "durationTicks": 96,
          "midi": 74,
          "name": "D5",
          "ticks": 122112,
          "time": 63.6,
          "velocity": 0.5118110236220472
        },
        {
          "duration": 0.04999999999999716,
          "durationTicks": 96,
          "midi": 73,
          "name": "C#5",
          "ticks": 122688,
          "time": 63.900000000000006,
          "velocity": 0.5118110236220472
        },
        {
          "duration": 0.20000000000000284,
          "durationTicks": 384,
          "midi": 53,
          "name": "F3",
          "ticks": 122880,
          "time": 64,
          "velocity": 0.5118110236220472
        },
        {
          "duration": 0.20000000000000284,
          "durationTicks": 384,
          "midi": 57,
          "name": "A3",
          "ticks": 123264,
          "time": 64.2,
          "velocity": 0.5118110236220472
        },
        {
          "duration": 0.20000000000000284,
          "durationTicks": 384,
          "midi": 53,
          "name": "F3",
          "ticks": 123648,
          "time": 64.4,
          "velocity": 0.5118110236220472
        },
        {
          "duration": 0.19999999999998863,
          "durationTicks": 384,
          "midi": 57,
          "name": "A3",
          "ticks": 124032,
          "time": 64.60000000000001,
          "velocity": 0.5118110236220472
        },
        {
          "duration": 0.20000000000000284,
          "durationTicks": 384,
          "midi": 53,
          "name": "F3",
          "ticks": 124416,
          "time": 64.8,
          "velocity": 0.5118110236220472
        },
        {
          "duration": 0.20000000000000284,
          "durationTicks": 384,
          "midi": 57,
          "name": "A3",
          "ticks": 124800,
          "time": 65,
          "velocity": 0.5118110236220472
        },
        {
          "duration": 0.20000000000000284,
          "durationTicks": 384,
          "midi": 53,
          "name": "F3",
          "ticks": 125184,
          "time": 65.2,
          "velocity": 0.5118110236220472
        },
        {
          "duration": 0.20000000000000284,
          "durationTicks": 384,
          "midi": 57,
          "name": "A3",
          "ticks": 125568,
          "time": 65.4,
          "velocity": 0.5118110236220472
        },
        {
          "duration": 0.19999999999998863,
          "durationTicks": 384,
          "midi": 52,
          "name": "E3",
          "ticks": 125952,
          "time": 65.60000000000001,
          "velocity": 0.5118110236220472
        },
        {
          "duration": 0.20000000000000284,
          "durationTicks": 384,
          "midi": 55,
          "name": "G3",
          "ticks": 126336,
          "time": 65.8,
          "velocity": 0.5118110236220472
        },
        {
          "duration": 0.20000000000000284,
          "durationTicks": 384,
          "midi": 52,
          "name": "E3",
          "ticks": 126720,
          "time": 66,
          "velocity": 0.5118110236220472
        },
        {
          "duration": 0.20000000000000284,
          "durationTicks": 384,
          "midi": 55,
          "name": "G3",
          "ticks": 127104,
          "time": 66.2,
          "velocity": 0.5118110236220472
        },
        {
          "duration": 0.20000000000000284,
          "durationTicks": 384,
          "midi": 50,
          "name": "D3",
          "ticks": 127488,
          "time": 66.4,
          "velocity": 0.5118110236220472
        },
        {
          "duration": 0.19999999999998863,
          "durationTicks": 384,
          "midi": 53,
          "name": "F3",
          "ticks": 127872,
          "time": 66.60000000000001,
          "velocity": 0.5118110236220472
        },
        {
          "duration": 0.20000000000000284,
          "durationTicks": 384,
          "midi": 50,
          "name": "D3",
          "ticks": 128256,
          "time": 66.8,
          "velocity": 0.5118110236220472
        },
        {
          "duration": 0.20000000000000284,
          "durationTicks": 384,
          "midi": 53,
          "name": "F3",
          "ticks": 128640,
          "time": 67,
          "velocity": 0.5118110236220472
        },
        {
          "duration": 0.20000000000000284,
          "durationTicks": 384,
          "midi": 49,
          "name": "C#3",
          "ticks": 129024,
          "time": 67.2,
          "velocity": 0.5118110236220472
        },
        {
          "duration": 0.20000000000000284,
          "durationTicks": 384,
          "midi": 52,
          "name": "E3",
          "ticks": 129408,
          "time": 67.4,
          "velocity": 0.5118110236220472
        },
        {
          "duration": 0.20000000000000284,
          "durationTicks": 384,
          "midi": 52,
          "name": "E3",
          "ticks": 129408,
          "time": 67.4,
          "velocity": 0.5118110236220472
        },
        {
          "duration": 0.19999999999998863,
          "durationTicks": 384,
          "midi": 49,
          "name": "C#3",
          "ticks": 129792,
          "time": 67.60000000000001,
          "velocity": 0.5118110236220472
        },
        {
          "duration": 0.20000000000000284,
          "durationTicks": 384,
          "midi": 52,
          "name": "E3",
          "ticks": 130176,
          "time": 67.8,
          "velocity": 0.5118110236220472
        },
        {
          "duration": 0.20000000000000284,
          "durationTicks": 384,
          "midi": 50,
          "name": "D3",
          "ticks": 130560,
          "time": 68,
          "velocity": 0.5118110236220472
        },
        {
          "duration": 0.20000000000000284,
          "durationTicks": 384,
          "midi": 53,
          "name": "F3",
          "ticks": 130944,
          "time": 68.2,
          "velocity": 0.5118110236220472
        },
        {
          "duration": 0.20000000000000284,
          "durationTicks": 384,
          "midi": 53,
          "name": "F3",
          "ticks": 130944,
          "time": 68.2,
          "velocity": 0.5118110236220472
        },
        {
          "duration": 0.20000000000000284,
          "durationTicks": 384,
          "midi": 50,
          "name": "D3",
          "ticks": 131328,
          "time": 68.4,
          "velocity": 0.5118110236220472
        },
        {
          "duration": 0.19999999999998863,
          "durationTicks": 384,
          "midi": 53,
          "name": "F3",
          "ticks": 131712,
          "time": 68.60000000000001,
          "velocity": 0.5118110236220472
        },
        {
          "duration": 0.20000000000000284,
          "durationTicks": 384,
          "midi": 55,
          "name": "G3",
          "ticks": 132096,
          "time": 68.8,
          "velocity": 0.5118110236220472
        },
        {
          "duration": 0.20000000000000284,
          "durationTicks": 384,
          "midi": 58,
          "name": "A#3",
          "ticks": 132480,
          "time": 69,
          "velocity": 0.5118110236220472
        },
        {
          "duration": 0.20000000000000284,
          "durationTicks": 384,
          "midi": 55,
          "name": "G3",
          "ticks": 132864,
          "time": 69.2,
          "velocity": 0.5118110236220472
        },
        {
          "duration": 0.20000000000000284,
          "durationTicks": 384,
          "midi": 58,
          "name": "A#3",
          "ticks": 133248,
          "time": 69.4,
          "velocity": 0.5118110236220472
        },
        {
          "duration": 0.19999999999998863,
          "durationTicks": 384,
          "midi": 57,
          "name": "A3",
          "ticks": 133632,
          "time": 69.60000000000001,
          "velocity": 0.5118110236220472
        },
        {
          "duration": 0.20000000000000284,
          "durationTicks": 384,
          "midi": 55,
          "name": "G3",
          "ticks": 134016,
          "time": 69.8,
          "velocity": 0.5118110236220472
        },
        {
          "duration": 0.20000000000000284,
          "durationTicks": 384,
          "midi": 53,
          "name": "F3",
          "ticks": 134400,
          "time": 70,
          "velocity": 0.5118110236220472
        },
        {
          "duration": 0.20000000000000284,
          "durationTicks": 384,
          "midi": 52,
          "name": "E3",
          "ticks": 134784,
          "time": 70.2,
          "velocity": 0.5118110236220472
        },
        {
          "duration": 0.20000000000000284,
          "durationTicks": 384,
          "midi": 53,
          "name": "F3",
          "ticks": 135168,
          "time": 70.4,
          "velocity": 0.5118110236220472
        },
        {
          "duration": 0.19999999999998863,
          "durationTicks": 384,
          "midi": 57,
          "name": "A3",
          "ticks": 135552,
          "time": 70.60000000000001,
          "velocity": 0.5118110236220472
        },
        {
          "duration": 0.20000000000000284,
          "durationTicks": 384,
          "midi": 53,
          "name": "F3",
          "ticks": 135936,
          "time": 70.8,
          "velocity": 0.5118110236220472
        },
        {
          "duration": 0.20000000000000284,
          "durationTicks": 384,
          "midi": 57,
          "name": "A3",
          "ticks": 136320,
          "time": 71,
          "velocity": 0.5118110236220472
        },
        {
          "duration": 0.20000000000000284,
          "durationTicks": 384,
          "midi": 53,
          "name": "F3",
          "ticks": 136704,
          "time": 71.2,
          "velocity": 0.5118110236220472
        },
        {
          "duration": 0.20000000000000284,
          "durationTicks": 384,
          "midi": 57,
          "name": "A3",
          "ticks": 137088,
          "time": 71.4,
          "velocity": 0.5118110236220472
        },
        {
          "duration": 0.19999999999998863,
          "durationTicks": 384,
          "midi": 53,
          "name": "F3",
          "ticks": 137472,
          "time": 71.60000000000001,
          "velocity": 0.5118110236220472
        },
        {
          "duration": 0.20000000000000284,
          "durationTicks": 384,
          "midi": 57,
          "name": "A3",
          "ticks": 137856,
          "time": 71.8,
          "velocity": 0.5118110236220472
        },
        {
          "duration": 0.20000000000000284,
          "durationTicks": 384,
          "midi": 52,
          "name": "E3",
          "ticks": 138240,
          "time": 72,
          "velocity": 0.5118110236220472
        },
        {
          "duration": 0.20000000000000284,
          "durationTicks": 384,
          "midi": 55,
          "name": "G3",
          "ticks": 138624,
          "time": 72.2,
          "velocity": 0.5118110236220472
        },
        {
          "duration": 0.20000000000000284,
          "durationTicks": 384,
          "midi": 52,
          "name": "E3",
          "ticks": 139008,
          "time": 72.4,
          "velocity": 0.5118110236220472
        },
        {
          "duration": 0.19999999999998863,
          "durationTicks": 384,
          "midi": 55,
          "name": "G3",
          "ticks": 139392,
          "time": 72.60000000000001,
          "velocity": 0.5118110236220472
        },
        {
          "duration": 0.20000000000000284,
          "durationTicks": 384,
          "midi": 50,
          "name": "D3",
          "ticks": 139776,
          "time": 72.8,
          "velocity": 0.5118110236220472
        },
        {
          "duration": 0.20000000000000284,
          "durationTicks": 384,
          "midi": 53,
          "name": "F3",
          "ticks": 140160,
          "time": 73,
          "velocity": 0.5118110236220472
        },
        {
          "duration": 0.20000000000000284,
          "durationTicks": 384,
          "midi": 50,
          "name": "D3",
          "ticks": 140544,
          "time": 73.2,
          "velocity": 0.5118110236220472
        },
        {
          "duration": 0.20000000000000284,
          "durationTicks": 384,
          "midi": 53,
          "name": "F3",
          "ticks": 140928,
          "time": 73.4,
          "velocity": 0.5118110236220472
        },
        {
          "duration": 0.19999999999998863,
          "durationTicks": 384,
          "midi": 49,
          "name": "C#3",
          "ticks": 141312,
          "time": 73.60000000000001,
          "velocity": 0.5118110236220472
        },
        {
          "duration": 0.20000000000000284,
          "durationTicks": 384,
          "midi": 52,
          "name": "E3",
          "ticks": 141696,
          "time": 73.8,
          "velocity": 0.5118110236220472
        },
        {
          "duration": 0.20000000000000284,
          "durationTicks": 384,
          "midi": 52,
          "name": "E3",
          "ticks": 141696,
          "time": 73.8,
          "velocity": 0.5118110236220472
        },
        {
          "duration": 0.20000000000000284,
          "durationTicks": 384,
          "midi": 49,
          "name": "C#3",
          "ticks": 142080,
          "time": 74,
          "velocity": 0.5118110236220472
        },
        {
          "duration": 0.20000000000000284,
          "durationTicks": 384,
          "midi": 52,
          "name": "E3",
          "ticks": 142464,
          "time": 74.2,
          "velocity": 0.5118110236220472
        },
        {
          "duration": 0.20000000000000284,
          "durationTicks": 384,
          "midi": 50,
          "name": "D3",
          "ticks": 142848,
          "time": 74.4,
          "velocity": 0.5118110236220472
        },
        {
          "duration": 0.19999999999998863,
          "durationTicks": 384,
          "midi": 53,
          "name": "F3",
          "ticks": 143232,
          "time": 74.60000000000001,
          "velocity": 0.5118110236220472
        },
        {
          "duration": 0.19999999999998863,
          "durationTicks": 384,
          "midi": 53,
          "name": "F3",
          "ticks": 143232,
          "time": 74.60000000000001,
          "velocity": 0.5118110236220472
        },
        {
          "duration": 0.20000000000000284,
          "durationTicks": 384,
          "midi": 50,
          "name": "D3",
          "ticks": 143616,
          "time": 74.8,
          "velocity": 0.5118110236220472
        },
        {
          "duration": 0.20000000000000284,
          "durationTicks": 384,
          "midi": 53,
          "name": "F3",
          "ticks": 144000,
          "time": 75,
          "velocity": 0.5118110236220472
        },
        {
          "duration": 0.20000000000000284,
          "durationTicks": 384,
          "midi": 55,
          "name": "G3",
          "ticks": 144384,
          "time": 75.2,
          "velocity": 0.5118110236220472
        },
        {
          "duration": 0.20000000000000284,
          "durationTicks": 384,
          "midi": 58,
          "name": "A#3",
          "ticks": 144768,
          "time": 75.4,
          "velocity": 0.5118110236220472
        },
        {
          "duration": 0.19999999999998863,
          "durationTicks": 384,
          "midi": 55,
          "name": "G3",
          "ticks": 145152,
          "time": 75.60000000000001,
          "velocity": 0.5118110236220472
        },
        {
          "duration": 0.20000000000000284,
          "durationTicks": 384,
          "midi": 58,
          "name": "A#3",
          "ticks": 145536,
          "time": 75.8,
          "velocity": 0.5118110236220472
        },
        {
          "duration": 0.20000000000000284,
          "durationTicks": 384,
          "midi": 57,
          "name": "A3",
          "ticks": 145920,
          "time": 76,
          "velocity": 0.5118110236220472
        },
        {
          "duration": 0.20000000000000284,
          "durationTicks": 384,
          "midi": 55,
          "name": "G3",
          "ticks": 146304,
          "time": 76.2,
          "velocity": 0.5118110236220472
        },
        {
          "duration": 0.20000000000000284,
          "durationTicks": 384,
          "midi": 53,
          "name": "F3",
          "ticks": 146688,
          "time": 76.4,
          "velocity": 0.5118110236220472
        },
        {
          "duration": 0.20000000000000284,
          "durationTicks": 384,
          "midi": 52,
          "name": "E3",
          "ticks": 147072,
          "time": 76.60000000000001,
          "velocity": 0.5118110236220472
        },
        {
          "duration": 0.19999999999998863,
          "durationTicks": 384,
          "midi": 53,
          "name": "F3",
          "ticks": 147456,
          "time": 76.80000000000001,
          "velocity": 0.5118110236220472
        },
        {
          "duration": 0.20000000000000284,
          "durationTicks": 384,
          "midi": 50,
          "name": "D3",
          "ticks": 147840,
          "time": 77,
          "velocity": 0.5118110236220472
        },
        {
          "duration": 0.20000000000000284,
          "durationTicks": 384,
          "midi": 53,
          "name": "F3",
          "ticks": 148224,
          "time": 77.2,
          "velocity": 0.5118110236220472
        },
        {
          "duration": 0.20000000000000284,
          "durationTicks": 384,
          "midi": 55,
          "name": "G3",
          "ticks": 148608,
          "time": 77.4,
          "velocity": 0.5118110236220472
        },
        {
          "duration": 0.20000000000000284,
          "durationTicks": 384,
          "midi": 53,
          "name": "F3",
          "ticks": 148992,
          "time": 77.60000000000001,
          "velocity": 0.5118110236220472
        },
        {
          "duration": 0.19999999999998863,
          "durationTicks": 384,
          "midi": 50,
          "name": "D3",
          "ticks": 149376,
          "time": 77.80000000000001,
          "velocity": 0.5118110236220472
        },
        {
          "duration": 0.20000000000000284,
          "durationTicks": 384,
          "midi": 53,
          "name": "F3",
          "ticks": 149760,
          "time": 78,
          "velocity": 0.5118110236220472
        },
        {
          "duration": 0.20000000000000284,
          "durationTicks": 384,
          "midi": 45,
          "name": "A2",
          "ticks": 150144,
          "time": 78.2,
          "velocity": 0.5118110236220472
        },
        {
          "duration": 0.20000000000000284,
          "durationTicks": 384,
          "midi": 53,
          "name": "F3",
          "ticks": 150528,
          "time": 78.4,
          "velocity": 0.5118110236220472
        },
        {
          "duration": 0.20000000000000284,
          "durationTicks": 384,
          "midi": 55,
          "name": "G3",
          "ticks": 150912,
          "time": 78.60000000000001,
          "velocity": 0.5118110236220472
        },
        {
          "duration": 0.19999999999998863,
          "durationTicks": 384,
          "midi": 53,
          "name": "F3",
          "ticks": 151296,
          "time": 78.80000000000001,
          "velocity": 0.5118110236220472
        },
        {
          "duration": 0.20000000000000284,
          "durationTicks": 384,
          "midi": 50,
          "name": "D3",
          "ticks": 151680,
          "time": 79,
          "velocity": 0.5118110236220472
        },
        {
          "duration": 0.20000000000000284,
          "durationTicks": 384,
          "midi": 53,
          "name": "F3",
          "ticks": 152064,
          "time": 79.2,
          "velocity": 0.5118110236220472
        },
        {
          "duration": 0.20000000000000284,
          "durationTicks": 384,
          "midi": 55,
          "name": "G3",
          "ticks": 152448,
          "time": 79.4,
          "velocity": 0.5118110236220472
        },
        {
          "duration": 0.09999999999999432,
          "durationTicks": 192,
          "midi": 57,
          "name": "A3",
          "ticks": 152832,
          "time": 79.60000000000001,
          "velocity": 0.5118110236220472
        },
        {
          "duration": 0.10000000000000853,
          "durationTicks": 192,
          "midi": 55,
          "name": "G3",
          "ticks": 153024,
          "time": 79.7,
          "velocity": 0.5118110236220472
        },
        {
          "duration": 0.09999999999999432,
          "durationTicks": 192,
          "midi": 53,
          "name": "F3",
          "ticks": 153216,
          "time": 79.80000000000001,
          "velocity": 0.5118110236220472
        },
        {
          "duration": 0.09999999999999432,
          "durationTicks": 192,
          "midi": 52,
          "name": "E3",
          "ticks": 153408,
          "time": 79.9,
          "velocity": 0.5118110236220472
        },
        {
          "duration": 0.20000000000000284,
          "durationTicks": 384,
          "midi": 50,
          "name": "D3",
          "ticks": 153600,
          "time": 80,
          "velocity": 0.5118110236220472
        },
        {
          "duration": 0.20000000000000284,
          "durationTicks": 384,
          "midi": 46,
          "name": "A#2",
          "ticks": 153984,
          "time": 80.2,
          "velocity": 0.5118110236220472
        },
        {
          "duration": 0.20000000000000284,
          "durationTicks": 384,
          "midi": 50,
          "name": "D3",
          "ticks": 154368,
          "time": 80.4,
          "velocity": 0.5118110236220472
        },
        {
          "duration": 0.20000000000000284,
          "durationTicks": 384,
          "midi": 46,
          "name": "A#2",
          "ticks": 154752,
          "time": 80.60000000000001,
          "velocity": 0.5118110236220472
        },
        {
          "duration": 0.19999999999998863,
          "durationTicks": 384,
          "midi": 50,
          "name": "D3",
          "ticks": 155136,
          "time": 80.80000000000001,
          "velocity": 0.5118110236220472
        },
        {
          "duration": 0.20000000000000284,
          "durationTicks": 384,
          "midi": 52,
          "name": "E3",
          "ticks": 155520,
          "time": 81,
          "velocity": 0.5118110236220472
        },
        {
          "duration": 0.20000000000000284,
          "durationTicks": 384,
          "midi": 53,
          "name": "F3",
          "ticks": 155904,
          "time": 81.2,
          "velocity": 0.5118110236220472
        },
        {
          "duration": 0.20000000000000284,
          "durationTicks": 384,
          "midi": 55,
          "name": "G3",
          "ticks": 156288,
          "time": 81.4,
          "velocity": 0.5118110236220472
        },
        {
          "duration": 0.20000000000000284,
          "durationTicks": 384,
          "midi": 57,
          "name": "A3",
          "ticks": 156672,
          "time": 81.60000000000001,
          "velocity": 0.5118110236220472
        },
        {
          "duration": 0.19999999999998863,
          "durationTicks": 384,
          "midi": 55,
          "name": "G3",
          "ticks": 157056,
          "time": 81.80000000000001,
          "velocity": 0.5118110236220472
        },
        {
          "duration": 0.20000000000000284,
          "durationTicks": 384,
          "midi": 53,
          "name": "F3",
          "ticks": 157440,
          "time": 82,
          "velocity": 0.5118110236220472
        },
        {
          "duration": 0.20000000000000284,
          "durationTicks": 384,
          "midi": 45,
          "name": "A2",
          "ticks": 157824,
          "time": 82.2,
          "velocity": 0.5118110236220472
        },
        {
          "duration": 0.20000000000000284,
          "durationTicks": 384,
          "midi": 57,
          "name": "A3",
          "ticks": 158208,
          "time": 82.4,
          "velocity": 0.5118110236220472
        },
        {
          "duration": 0.20000000000000284,
          "durationTicks": 384,
          "midi": 56,
          "name": "G#3",
          "ticks": 158592,
          "time": 82.60000000000001,
          "velocity": 0.5118110236220472
        },
        {
          "duration": 0.19999999999998863,
          "durationTicks": 384,
          "midi": 55,
          "name": "G3",
          "ticks": 158976,
          "time": 82.80000000000001,
          "velocity": 0.5118110236220472
        },
        {
          "duration": 0.20000000000000284,
          "durationTicks": 384,
          "midi": 54,
          "name": "F#3",
          "ticks": 159360,
          "time": 83,
          "velocity": 0.5118110236220472
        },
        {
          "duration": 0.20000000000000284,
          "durationTicks": 384,
          "midi": 53,
          "name": "F3",
          "ticks": 159744,
          "time": 83.2,
          "velocity": 0.5118110236220472
        },
        {
          "duration": 0.20000000000000284,
          "durationTicks": 384,
          "midi": 50,
          "name": "D3",
          "ticks": 160128,
          "time": 83.4,
          "velocity": 0.5118110236220472
        },
        {
          "duration": 0.20000000000000284,
          "durationTicks": 384,
          "midi": 53,
          "name": "F3",
          "ticks": 160512,
          "time": 83.60000000000001,
          "velocity": 0.5118110236220472
        },
        {
          "duration": 0.19999999999998863,
          "durationTicks": 384,
          "midi": 55,
          "name": "G3",
          "ticks": 160896,
          "time": 83.80000000000001,
          "velocity": 0.5118110236220472
        },
        {
          "duration": 0.20000000000000284,
          "durationTicks": 384,
          "midi": 53,
          "name": "F3",
          "ticks": 161280,
          "time": 84,
          "velocity": 0.5118110236220472
        },
        {
          "duration": 0.20000000000000284,
          "durationTicks": 384,
          "midi": 50,
          "name": "D3",
          "ticks": 161664,
          "time": 84.2,
          "velocity": 0.5118110236220472
        },
        {
          "duration": 0.20000000000000284,
          "durationTicks": 384,
          "midi": 53,
          "name": "F3",
          "ticks": 162048,
          "time": 84.4,
          "velocity": 0.5118110236220472
        },
        {
          "duration": 0.20000000000000284,
          "durationTicks": 384,
          "midi": 45,
          "name": "A2",
          "ticks": 162432,
          "time": 84.60000000000001,
          "velocity": 0.5118110236220472
        },
        {
          "duration": 0.19999999999998863,
          "durationTicks": 384,
          "midi": 53,
          "name": "F3",
          "ticks": 162816,
          "time": 84.80000000000001,
          "velocity": 0.5118110236220472
        },
        {
          "duration": 0.20000000000000284,
          "durationTicks": 384,
          "midi": 55,
          "name": "G3",
          "ticks": 163200,
          "time": 85,
          "velocity": 0.5118110236220472
        },
        {
          "duration": 0.20000000000000284,
          "durationTicks": 384,
          "midi": 53,
          "name": "F3",
          "ticks": 163584,
          "time": 85.2,
          "velocity": 0.5118110236220472
        },
        {
          "duration": 0.20000000000000284,
          "durationTicks": 384,
          "midi": 50,
          "name": "D3",
          "ticks": 163968,
          "time": 85.4,
          "velocity": 0.5118110236220472
        },
        {
          "duration": 0.20000000000000284,
          "durationTicks": 384,
          "midi": 53,
          "name": "F3",
          "ticks": 164352,
          "time": 85.60000000000001,
          "velocity": 0.5118110236220472
        },
        {
          "duration": 0.19999999999998863,
          "durationTicks": 384,
          "midi": 55,
          "name": "G3",
          "ticks": 164736,
          "time": 85.80000000000001,
          "velocity": 0.5118110236220472
        },
        {
          "duration": 0.10000000000000853,
          "durationTicks": 192,
          "midi": 62,
          "name": "D4",
          "ticks": 165120,
          "time": 86,
          "velocity": 0.5118110236220472
        },
        {
          "duration": 0.09999999999999432,
          "durationTicks": 192,
          "midi": 57,
          "name": "A3",
          "ticks": 165312,
          "time": 86.10000000000001,
          "velocity": 0.5118110236220472
        },
        {
          "duration": 0.10000000000000853,
          "durationTicks": 192,
          "midi": 55,
          "name": "G3",
          "ticks": 165504,
          "time": 86.2,
          "velocity": 0.5118110236220472
        },
        {
          "duration": 0.09999999999999432,
          "durationTicks": 192,
          "midi": 53,
          "name": "F3",
          "ticks": 165696,
          "time": 86.30000000000001,
          "velocity": 0.5118110236220472
        },
        {
          "duration": 0.20000000000000284,
          "durationTicks": 384,
          "midi": 50,
          "name": "D3",
          "ticks": 165888,
          "time": 86.4,
          "velocity": 0.5118110236220472
        },
        {
          "duration": 0.20000000000000284,
          "durationTicks": 384,
          "midi": 46,
          "name": "A#2",
          "ticks": 166272,
          "time": 86.60000000000001,
          "velocity": 0.5118110236220472
        },
        {
          "duration": 0.19999999999998863,
          "durationTicks": 384,
          "midi": 50,
          "name": "D3",
          "ticks": 166656,
          "time": 86.80000000000001,
          "velocity": 0.5118110236220472
        },
        {
          "duration": 0.20000000000000284,
          "durationTicks": 384,
          "midi": 46,
          "name": "A#2",
          "ticks": 167040,
          "time": 87,
          "velocity": 0.5118110236220472
        },
        {
          "duration": 0.20000000000000284,
          "durationTicks": 384,
          "midi": 50,
          "name": "D3",
          "ticks": 167424,
          "time": 87.2,
          "velocity": 0.5118110236220472
        },
        {
          "duration": 0.20000000000000284,
          "durationTicks": 384,
          "midi": 52,
          "name": "E3",
          "ticks": 167808,
          "time": 87.4,
          "velocity": 0.5118110236220472
        },
        {
          "duration": 0.20000000000000284,
          "durationTicks": 384,
          "midi": 53,
          "name": "F3",
          "ticks": 168192,
          "time": 87.60000000000001,
          "velocity": 0.5118110236220472
        },
        {
          "duration": 0.19999999999998863,
          "durationTicks": 384,
          "midi": 55,
          "name": "G3",
          "ticks": 168576,
          "time": 87.80000000000001,
          "velocity": 0.5118110236220472
        },
        {
          "duration": 0.20000000000000284,
          "durationTicks": 384,
          "midi": 57,
          "name": "A3",
          "ticks": 168960,
          "time": 88,
          "velocity": 0.5118110236220472
        },
        {
          "duration": 0.20000000000000284,
          "durationTicks": 384,
          "midi": 55,
          "name": "G3",
          "ticks": 169344,
          "time": 88.2,
          "velocity": 0.5118110236220472
        },
        {
          "duration": 0.20000000000000284,
          "durationTicks": 384,
          "midi": 53,
          "name": "F3",
          "ticks": 169728,
          "time": 88.4,
          "velocity": 0.5118110236220472
        },
        {
          "duration": 0.20000000000000284,
          "durationTicks": 384,
          "midi": 45,
          "name": "A2",
          "ticks": 170112,
          "time": 88.60000000000001,
          "velocity": 0.5118110236220472
        },
        {
          "duration": 0.19999999999998863,
          "durationTicks": 384,
          "midi": 57,
          "name": "A3",
          "ticks": 170496,
          "time": 88.80000000000001,
          "velocity": 0.5118110236220472
        },
        {
          "duration": 0.20000000000000284,
          "durationTicks": 384,
          "midi": 56,
          "name": "G#3",
          "ticks": 170880,
          "time": 89,
          "velocity": 0.5118110236220472
        },
        {
          "duration": 0.20000000000000284,
          "durationTicks": 384,
          "midi": 55,
          "name": "G3",
          "ticks": 171264,
          "time": 89.2,
          "velocity": 0.5118110236220472
        },
        {
          "duration": 0.20000000000000284,
          "durationTicks": 384,
          "midi": 54,
          "name": "F#3",
          "ticks": 171648,
          "time": 89.4,
          "velocity": 0.5118110236220472
        },
        {
          "duration": 0.7999999999999972,
          "durationTicks": 1536,
          "midi": 53,
          "name": "F3",
          "ticks": 172032,
          "time": 89.60000000000001,
          "velocity": 0.5118110236220472
        },
        {
          "duration": 0.7999999999999972,
          "durationTicks": 1536,
          "midi": 58,
          "name": "A#3",
          "ticks": 173568,
          "time": 90.4,
          "velocity": 0.5118110236220472
        },
        {
          "duration": 0.7999999999999972,
          "durationTicks": 1536,
          "midi": 52,
          "name": "E3",
          "ticks": 175104,
          "time": 91.2,
          "velocity": 0.5118110236220472
        },
        {
          "duration": 0.8000000000000114,
          "durationTicks": 1536,
          "midi": 57,
          "name": "A3",
          "ticks": 176640,
          "time": 92,
          "velocity": 0.5118110236220472
        },
        {
          "duration": 0.7999999999999972,
          "durationTicks": 1536,
          "midi": 53,
          "name": "F3",
          "ticks": 178176,
          "time": 92.80000000000001,
          "velocity": 0.5118110236220472
        },
        {
          "duration": 0.7999999999999972,
          "durationTicks": 1536,
          "midi": 58,
          "name": "A#3",
          "ticks": 179712,
          "time": 93.60000000000001,
          "velocity": 0.5118110236220472
        },
        {
          "duration": 0.7999999999999972,
          "durationTicks": 1536,
          "midi": 52,
          "name": "E3",
          "ticks": 181248,
          "time": 94.4,
          "velocity": 0.5118110236220472
        },
        {
          "duration": 0.4000000000000057,
          "durationTicks": 768,
          "midi": 57,
          "name": "A3",
          "ticks": 182784,
          "time": 95.2,
          "velocity": 0.5118110236220472
        },
        {
          "duration": 0.3999999999999915,
          "durationTicks": 768,
          "midi": 55,
          "name": "G3",
          "ticks": 183552,
          "time": 95.60000000000001,
          "velocity": 0.5118110236220472
        },
        {
          "duration": 0.09999999999999432,
          "durationTicks": 192,
          "midi": 45,
          "name": "A2",
          "ticks": 184128,
          "time": 95.9,
          "velocity": 0.5118110236220472
        },
        {
          "duration": 0.20000000000000284,
          "durationTicks": 384,
          "midi": 69,
          "name": "A4",
          "ticks": 184320,
          "time": 96,
          "velocity": 0.5118110236220472
        },
        {
          "duration": 0.10000000000000853,
          "durationTicks": 192,
          "midi": 53,
          "name": "F3",
          "ticks": 184320,
          "time": 96,
          "velocity": 0.5118110236220472
        },
        {
          "duration": 0.09999999999999432,
          "durationTicks": 192,
          "midi": 52,
          "name": "E3",
          "ticks": 184512,
          "time": 96.10000000000001,
          "velocity": 0.5118110236220472
        },
        {
          "duration": 0.10000000000000853,
          "durationTicks": 192,
          "midi": 50,
          "name": "D3",
          "ticks": 184704,
          "time": 96.2,
          "velocity": 0.5118110236220472
        },
        {
          "duration": 0.10000000000000853,
          "durationTicks": 192,
          "midi": 70,
          "name": "A#4",
          "ticks": 184704,
          "time": 96.2,
          "velocity": 0.5118110236220472
        },
        {
          "duration": 0.09999999999999432,
          "durationTicks": 192,
          "midi": 57,
          "name": "A3",
          "ticks": 184896,
          "time": 96.30000000000001,
          "velocity": 0.5118110236220472
        },
        {
          "duration": 0.19999999999998863,
          "durationTicks": 384,
          "midi": 69,
          "name": "A4",
          "ticks": 184896,
          "time": 96.30000000000001,
          "velocity": 0.5118110236220472
        },
        {
          "duration": 0.09999999999999432,
          "durationTicks": 192,
          "midi": 55,
          "name": "G3",
          "ticks": 185088,
          "time": 96.4,
          "velocity": 0.5118110236220472
        },
        {
          "duration": 0.10000000000000853,
          "durationTicks": 192,
          "midi": 70,
          "name": "A#4",
          "ticks": 185280,
          "time": 96.5,
          "velocity": 0.5118110236220472
        },
        {
          "duration": 0.10000000000000853,
          "durationTicks": 192,
          "midi": 53,
          "name": "F3",
          "ticks": 185280,
          "time": 96.5,
          "velocity": 0.5118110236220472
        },
        {
          "duration": 0.20000000000000284,
          "durationTicks": 384,
          "midi": 69,
          "name": "A4",
          "ticks": 185472,
          "time": 96.60000000000001,
          "velocity": 0.5118110236220472
        },
        {
          "duration": 0.09999999999999432,
          "durationTicks": 192,
          "midi": 60,
          "name": "C4",
          "ticks": 185472,
          "time": 96.60000000000001,
          "velocity": 0.5118110236220472
        },
        {
          "duration": 0.10000000000000853,
          "durationTicks": 192,
          "midi": 58,
          "name": "A#3",
          "ticks": 185664,
          "time": 96.7,
          "velocity": 0.5118110236220472
        },
        {
          "duration": 0.09999999999999432,
          "durationTicks": 192,
          "midi": 57,
          "name": "A3",
          "ticks": 185856,
          "time": 96.80000000000001,
          "velocity": 0.5118110236220472
        },
        {
          "duration": 0.09999999999999432,
          "durationTicks": 192,
          "midi": 70,
          "name": "A#4",
          "ticks": 185856,
          "time": 96.80000000000001,
          "velocity": 0.5118110236220472
        },
        {
          "duration": 0.20000000000000284,
          "durationTicks": 384,
          "midi": 69,
          "name": "A4",
          "ticks": 186048,
          "time": 96.9,
          "velocity": 0.5118110236220472
        },
        {
          "duration": 0.09999999999999432,
          "durationTicks": 192,
          "midi": 58,
          "name": "A#3",
          "ticks": 186048,
          "time": 96.9,
          "velocity": 0.5118110236220472
        },
        {
          "duration": 0.10000000000000853,
          "durationTicks": 192,
          "midi": 57,
          "name": "A3",
          "ticks": 186240,
          "time": 97,
          "velocity": 0.5118110236220472
        },
        {
          "duration": 0.09999999999999432,
          "durationTicks": 192,
          "midi": 70,
          "name": "A#4",
          "ticks": 186432,
          "time": 97.10000000000001,
          "velocity": 0.5118110236220472
        },
        {
          "duration": 0.09999999999999432,
          "durationTicks": 192,
          "midi": 55,
          "name": "G3",
          "ticks": 186432,
          "time": 97.10000000000001,
          "velocity": 0.5118110236220472
        },
        {
          "duration": 0.20000000000000284,
          "durationTicks": 384,
          "midi": 69,
          "name": "A4",
          "ticks": 186624,
          "time": 97.2,
          "velocity": 0.5118110236220472
        },
        {
          "duration": 0.10000000000000853,
          "durationTicks": 192,
          "midi": 53,
          "name": "F3",
          "ticks": 186624,
          "time": 97.2,
          "velocity": 0.5118110236220472
        },
        {
          "duration": 0.09999999999999432,
          "durationTicks": 192,
          "midi": 55,
          "name": "G3",
          "ticks": 186816,
          "time": 97.30000000000001,
          "velocity": 0.5118110236220472
        },
        {
          "duration": 0.09999999999999432,
          "durationTicks": 192,
          "midi": 50,
          "name": "D3",
          "ticks": 187008,
          "time": 97.4,
          "velocity": 0.5118110236220472
        },
        {
          "duration": 0.20000000000000284,
          "durationTicks": 384,
          "midi": 70,
          "name": "A#4",
          "ticks": 187008,
          "time": 97.4,
          "velocity": 0.5118110236220472
        },
        {
          "duration": 0.10000000000000853,
          "durationTicks": 192,
          "midi": 45,
          "name": "A2",
          "ticks": 187200,
          "time": 97.5,
          "velocity": 0.5118110236220472
        },
        {
          "duration": 0.20000000000000284,
          "durationTicks": 384,
          "midi": 69,
          "name": "A4",
          "ticks": 187392,
          "time": 97.60000000000001,
          "velocity": 0.5118110236220472
        },
        {
          "duration": 0.09999999999999432,
          "durationTicks": 192,
          "midi": 53,
          "name": "F3",
          "ticks": 187392,
          "time": 97.60000000000001,
          "velocity": 0.5118110236220472
        },
        {
          "duration": 0.10000000000000853,
          "durationTicks": 192,
          "midi": 52,
          "name": "E3",
          "ticks": 187584,
          "time": 97.7,
          "velocity": 0.5118110236220472
        },
        {
          "duration": 0.09999999999999432,
          "durationTicks": 192,
          "midi": 50,
          "name": "D3",
          "ticks": 187776,
          "time": 97.80000000000001,
          "velocity": 0.5118110236220472
        },
        {
          "duration": 0.09999999999999432,
          "durationTicks": 192,
          "midi": 70,
          "name": "A#4",
          "ticks": 187776,
          "time": 97.80000000000001,
          "velocity": 0.5118110236220472
        },
        {
          "duration": 0.20000000000000284,
          "durationTicks": 384,
          "midi": 69,
          "name": "A4",
          "ticks": 187968,
          "time": 97.9,
          "velocity": 0.5118110236220472
        },
        {
          "duration": 0.09999999999999432,
          "durationTicks": 192,
          "midi": 57,
          "name": "A3",
          "ticks": 187968,
          "time": 97.9,
          "velocity": 0.5118110236220472
        },
        {
          "duration": 0.10000000000000853,
          "durationTicks": 192,
          "midi": 55,
          "name": "G3",
          "ticks": 188160,
          "time": 98,
          "velocity": 0.5118110236220472
        },
        {
          "duration": 0.09999999999999432,
          "durationTicks": 192,
          "midi": 70,
          "name": "A#4",
          "ticks": 188352,
          "time": 98.10000000000001,
          "velocity": 0.5118110236220472
        },
        {
          "duration": 0.09999999999999432,
          "durationTicks": 192,
          "midi": 53,
          "name": "F3",
          "ticks": 188352,
          "time": 98.10000000000001,
          "velocity": 0.5118110236220472
        },
        {
          "duration": 0.20000000000000284,
          "durationTicks": 384,
          "midi": 69,
          "name": "A4",
          "ticks": 188544,
          "time": 98.2,
          "velocity": 0.5118110236220472
        },
        {
          "duration": 0.10000000000000853,
          "durationTicks": 192,
          "midi": 60,
          "name": "C4",
          "ticks": 188544,
          "time": 98.2,
          "velocity": 0.5118110236220472
        },
        {
          "duration": 0.09999999999999432,
          "durationTicks": 192,
          "midi": 58,
          "name": "A#3",
          "ticks": 188736,
          "time": 98.30000000000001,
          "velocity": 0.5118110236220472
        },
        {
          "duration": 0.09999999999999432,
          "durationTicks": 192,
          "midi": 57,
          "name": "A3",
          "ticks": 188928,
          "time": 98.4,
          "velocity": 0.5118110236220472
        },
        {
          "duration": 0.09999999999999432,
          "durationTicks": 192,
          "midi": 70,
          "name": "A#4",
          "ticks": 188928,
          "time": 98.4,
          "velocity": 0.5118110236220472
        },
        {
          "duration": 0.10000000000000853,
          "durationTicks": 192,
          "midi": 58,
          "name": "A#3",
          "ticks": 189120,
          "time": 98.5,
          "velocity": 0.5118110236220472
        },
        {
          "duration": 0.20000000000000284,
          "durationTicks": 384,
          "midi": 69,
          "name": "A4",
          "ticks": 189120,
          "time": 98.5,
          "velocity": 0.5118110236220472
        },
        {
          "duration": 0.09999999999999432,
          "durationTicks": 192,
          "midi": 57,
          "name": "A3",
          "ticks": 189312,
          "time": 98.60000000000001,
          "velocity": 0.5118110236220472
        },
        {
          "duration": 0.10000000000000853,
          "durationTicks": 192,
          "midi": 55,
          "name": "G3",
          "ticks": 189504,
          "time": 98.7,
          "velocity": 0.5118110236220472
        },
        {
          "duration": 0.10000000000000853,
          "durationTicks": 192,
          "midi": 70,
          "name": "A#4",
          "ticks": 189504,
          "time": 98.7,
          "velocity": 0.5118110236220472
        },
        {
          "duration": 0.09999999999999432,
          "durationTicks": 192,
          "midi": 53,
          "name": "F3",
          "ticks": 189696,
          "time": 98.80000000000001,
          "velocity": 0.5118110236220472
        },
        {
          "duration": 0.19999999999998863,
          "durationTicks": 384,
          "midi": 69,
          "name": "A4",
          "ticks": 189696,
          "time": 98.80000000000001,
          "velocity": 0.5118110236220472
        },
        {
          "duration": 0.09999999999999432,
          "durationTicks": 192,
          "midi": 55,
          "name": "G3",
          "ticks": 189888,
          "time": 98.9,
          "velocity": 0.5118110236220472
        },
        {
          "duration": 0.10000000000000853,
          "durationTicks": 192,
          "midi": 45,
          "name": "A2",
          "ticks": 190080,
          "time": 99,
          "velocity": 0.5118110236220472
        },
        {
          "duration": 0.20000000000000284,
          "durationTicks": 384,
          "midi": 70,
          "name": "A#4",
          "ticks": 190080,
          "time": 99,
          "velocity": 0.5118110236220472
        },
        {
          "duration": 0.09999999999999432,
          "durationTicks": 192,
          "midi": 50,
          "name": "D3",
          "ticks": 190272,
          "time": 99.10000000000001,
          "velocity": 0.5118110236220472
        },
        {
          "duration": 0.20000000000000284,
          "durationTicks": 384,
          "midi": 67,
          "name": "G4",
          "ticks": 190464,
          "time": 99.2,
          "velocity": 0.5118110236220472
        },
        {
          "duration": 0.10000000000000853,
          "durationTicks": 192,
          "midi": 53,
          "name": "F3",
          "ticks": 190464,
          "time": 99.2,
          "velocity": 0.5118110236220472
        },
        {
          "duration": 0.09999999999999432,
          "durationTicks": 192,
          "midi": 52,
          "name": "E3",
          "ticks": 190656,
          "time": 99.30000000000001,
          "velocity": 0.5118110236220472
        },
        {
          "duration": 0.09999999999999432,
          "durationTicks": 192,
          "midi": 50,
          "name": "D3",
          "ticks": 190848,
          "time": 99.4,
          "velocity": 0.5118110236220472
        },
        {
          "duration": 0.09999999999999432,
          "durationTicks": 192,
          "midi": 69,
          "name": "A4",
          "ticks": 190848,
          "time": 99.4,
          "velocity": 0.5118110236220472
        },
        {
          "duration": 0.10000000000000853,
          "durationTicks": 192,
          "midi": 57,
          "name": "A3",
          "ticks": 191040,
          "time": 99.5,
          "velocity": 0.5118110236220472
        },
        {
          "duration": 0.20000000000000284,
          "durationTicks": 384,
          "midi": 67,
          "name": "G4",
          "ticks": 191040,
          "time": 99.5,
          "velocity": 0.5118110236220472
        },
        {
          "duration": 0.09999999999999432,
          "durationTicks": 192,
          "midi": 55,
          "name": "G3",
          "ticks": 191232,
          "time": 99.60000000000001,
          "velocity": 0.5118110236220472
        },
        {
          "duration": 0.10000000000000853,
          "durationTicks": 192,
          "midi": 53,
          "name": "F3",
          "ticks": 191424,
          "time": 99.7,
          "velocity": 0.5118110236220472
        },
        {
          "duration": 0.10000000000000853,
          "durationTicks": 192,
          "midi": 69,
          "name": "A4",
          "ticks": 191424,
          "time": 99.7,
          "velocity": 0.5118110236220472
        },
        {
          "duration": 0.19999999999998863,
          "durationTicks": 384,
          "midi": 67,
          "name": "G4",
          "ticks": 191616,
          "time": 99.80000000000001,
          "velocity": 0.5118110236220472
        },
        {
          "duration": 0.09999999999999432,
          "durationTicks": 192,
          "midi": 60,
          "name": "C4",
          "ticks": 191616,
          "time": 99.80000000000001,
          "velocity": 0.5118110236220472
        },
        {
          "duration": 0.09999999999999432,
          "durationTicks": 192,
          "midi": 58,
          "name": "A#3",
          "ticks": 191808,
          "time": 99.9,
          "velocity": 0.5118110236220472
        },
        {
          "duration": 0.10000000000000853,
          "durationTicks": 192,
          "midi": 69,
          "name": "A4",
          "ticks": 192000,
          "time": 100,
          "velocity": 0.5118110236220472
        },
        {
          "duration": 0.10000000000000853,
          "durationTicks": 192,
          "midi": 57,
          "name": "A3",
          "ticks": 192000,
          "time": 100,
          "velocity": 0.5118110236220472
        },
        {
          "duration": 0.20000000000000284,
          "durationTicks": 384,
          "midi": 67,
          "name": "G4",
          "ticks": 192192,
          "time": 100.10000000000001,
          "velocity": 0.5118110236220472
        },
        {
          "duration": 0.09999999999999432,
          "durationTicks": 192,
          "midi": 58,
          "name": "A#3",
          "ticks": 192192,
          "time": 100.10000000000001,
          "velocity": 0.5118110236220472
        },
        {
          "duration": 0.10000000000000853,
          "durationTicks": 192,
          "midi": 57,
          "name": "A3",
          "ticks": 192384,
          "time": 100.2,
          "velocity": 0.5118110236220472
        },
        {
          "duration": 0.09999999999999432,
          "durationTicks": 192,
          "midi": 55,
          "name": "G3",
          "ticks": 192576,
          "time": 100.30000000000001,
          "velocity": 0.5118110236220472
        },
        {
          "duration": 0.09999999999999432,
          "durationTicks": 192,
          "midi": 69,
          "name": "A4",
          "ticks": 192576,
          "time": 100.30000000000001,
          "velocity": 0.5118110236220472
        },
        {
          "duration": 0.09999999999999432,
          "durationTicks": 192,
          "midi": 53,
          "name": "F3",
          "ticks": 192768,
          "time": 100.4,
          "velocity": 0.5118110236220472
        },
        {
          "duration": 0.20000000000000284,
          "durationTicks": 384,
          "midi": 67,
          "name": "G4",
          "ticks": 192768,
          "time": 100.4,
          "velocity": 0.5118110236220472
        },
        {
          "duration": 0.10000000000000853,
          "durationTicks": 192,
          "midi": 55,
          "name": "G3",
          "ticks": 192960,
          "time": 100.5,
          "velocity": 0.5118110236220472
        },
        {
          "duration": 0.20000000000000284,
          "durationTicks": 384,
          "midi": 69,
          "name": "A4",
          "ticks": 193152,
          "time": 100.60000000000001,
          "velocity": 0.5118110236220472
        },
        {
          "duration": 0.09999999999999432,
          "durationTicks": 192,
          "midi": 50,
          "name": "D3",
          "ticks": 193152,
          "time": 100.60000000000001,
          "velocity": 0.5118110236220472
        },
        {
          "duration": 0.10000000000000853,
          "durationTicks": 192,
          "midi": 45,
          "name": "A2",
          "ticks": 193344,
          "time": 100.7,
          "velocity": 0.5118110236220472
        },
        {
          "duration": 0.19999999999998863,
          "durationTicks": 384,
          "midi": 65,
          "name": "F4",
          "ticks": 193536,
          "time": 100.80000000000001,
          "velocity": 0.5118110236220472
        },
        {
          "duration": 0.09999999999999432,
          "durationTicks": 192,
          "midi": 53,
          "name": "F3",
          "ticks": 193536,
          "time": 100.80000000000001,
          "velocity": 0.5118110236220472
        },
        {
          "duration": 0.09999999999999432,
          "durationTicks": 192,
          "midi": 52,
          "name": "E3",
          "ticks": 193728,
          "time": 100.9,
          "velocity": 0.5118110236220472
        },
        {
          "duration": 0.10000000000000853,
          "durationTicks": 192,
          "midi": 50,
          "name": "D3",
          "ticks": 193920,
          "time": 101,
          "velocity": 0.5118110236220472
        },
        {
          "duration": 0.10000000000000853,
          "durationTicks": 192,
          "midi": 69,
          "name": "A4",
          "ticks": 193920,
          "time": 101,
          "velocity": 0.5118110236220472
        },
        {
          "duration": 0.20000000000000284,
          "durationTicks": 384,
          "midi": 65,
          "name": "F4",
          "ticks": 194112,
          "time": 101.10000000000001,
          "velocity": 0.5118110236220472
        },
        {
          "duration": 0.09999999999999432,
          "durationTicks": 192,
          "midi": 57,
          "name": "A3",
          "ticks": 194112,
          "time": 101.10000000000001,
          "velocity": 0.5118110236220472
        },
        {
          "duration": 0.10000000000000853,
          "durationTicks": 192,
          "midi": 55,
          "name": "G3",
          "ticks": 194304,
          "time": 101.2,
          "velocity": 0.5118110236220472
        },
        {
          "duration": 0.09999999999999432,
          "durationTicks": 192,
          "midi": 69,
          "name": "A4",
          "ticks": 194496,
          "time": 101.30000000000001,
          "velocity": 0.5118110236220472
        },
        {
          "duration": 0.09999999999999432,
          "durationTicks": 192,
          "midi": 53,
          "name": "F3",
          "ticks": 194496,
          "time": 101.30000000000001,
          "velocity": 0.5118110236220472
        },
        {
          "duration": 0.09999999999999432,
          "durationTicks": 192,
          "midi": 60,
          "name": "C4",
          "ticks": 194688,
          "time": 101.4,
          "velocity": 0.5118110236220472
        },
        {
          "duration": 0.20000000000000284,
          "durationTicks": 384,
          "midi": 64,
          "name": "E4",
          "ticks": 194688,
          "time": 101.4,
          "velocity": 0.5118110236220472
        },
        {
          "duration": 0.10000000000000853,
          "durationTicks": 192,
          "midi": 58,
          "name": "A#3",
          "ticks": 194880,
          "time": 101.5,
          "velocity": 0.5118110236220472
        },
        {
          "duration": 0.09999999999999432,
          "durationTicks": 192,
          "midi": 57,
          "name": "A3",
          "ticks": 195072,
          "time": 101.60000000000001,
          "velocity": 0.5118110236220472
        },
        {
          "duration": 0.09999999999999432,
          "durationTicks": 192,
          "midi": 67,
          "name": "G4",
          "ticks": 195072,
          "time": 101.60000000000001,
          "velocity": 0.5118110236220472
        },
        {
          "duration": 0.10000000000000853,
          "durationTicks": 192,
          "midi": 58,
          "name": "A#3",
          "ticks": 195264,
          "time": 101.7,
          "velocity": 0.5118110236220472
        },
        {
          "duration": 0.20000000000000284,
          "durationTicks": 384,
          "midi": 64,
          "name": "E4",
          "ticks": 195264,
          "time": 101.7,
          "velocity": 0.5118110236220472
        },
        {
          "duration": 0.09999999999999432,
          "durationTicks": 192,
          "midi": 57,
          "name": "A3",
          "ticks": 195456,
          "time": 101.80000000000001,
          "velocity": 0.5118110236220472
        },
        {
          "duration": 0.09999999999999432,
          "durationTicks": 192,
          "midi": 67,
          "name": "G4",
          "ticks": 195648,
          "time": 101.9,
          "velocity": 0.5118110236220472
        },
        {
          "duration": 0.09999999999999432,
          "durationTicks": 192,
          "midi": 55,
          "name": "G3",
          "ticks": 195648,
          "time": 101.9,
          "velocity": 0.5118110236220472
        },
        {
          "duration": 0.10000000000000853,
          "durationTicks": 192,
          "midi": 53,
          "name": "F3",
          "ticks": 195840,
          "time": 102,
          "velocity": 0.5118110236220472
        },
        {
          "duration": 0.20000000000000284,
          "durationTicks": 384,
          "midi": 64,
          "name": "E4",
          "ticks": 195840,
          "time": 102,
          "velocity": 0.5118110236220472
        },
        {
          "duration": 0.09999999999999432,
          "durationTicks": 192,
          "midi": 55,
          "name": "G3",
          "ticks": 196032,
          "time": 102.10000000000001,
          "velocity": 0.5118110236220472
        },
        {
          "duration": 0.10000000000000853,
          "durationTicks": 192,
          "midi": 45,
          "name": "A2",
          "ticks": 196224,
          "time": 102.2,
          "velocity": 0.5118110236220472
        },
        {
          "duration": 0.20000000000000284,
          "durationTicks": 384,
          "midi": 62,
          "name": "D4",
          "ticks": 196224,
          "time": 102.2,
          "velocity": 0.5118110236220472
        },
        {
          "duration": 0.09999999999999432,
          "durationTicks": 192,
          "midi": 50,
          "name": "D3",
          "ticks": 196416,
          "time": 102.30000000000001,
          "velocity": 0.5118110236220472
        },
        {
          "duration": 0.20000000000000284,
          "durationTicks": 384,
          "midi": 70,
          "name": "A#4",
          "ticks": 196608,
          "time": 102.4,
          "velocity": 0.5118110236220472
        },
        {
          "duration": 0.09999999999999432,
          "durationTicks": 192,
          "midi": 54,
          "name": "F#3",
          "ticks": 196608,
          "time": 102.4,
          "velocity": 0.5118110236220472
        },
        {
          "duration": 0.10000000000000853,
          "durationTicks": 192,
          "midi": 53,
          "name": "F3",
          "ticks": 196800,
          "time": 102.5,
          "velocity": 0.5118110236220472
        },
        {
          "duration": 0.09999999999999432,
          "durationTicks": 192,
          "midi": 51,
          "name": "D#3",
          "ticks": 196992,
          "time": 102.60000000000001,
          "velocity": 0.5118110236220472
        },
        {
          "duration": 0.09999999999999432,
          "durationTicks": 192,
          "midi": 71,
          "name": "B4",
          "ticks": 196992,
          "time": 102.60000000000001,
          "velocity": 0.5118110236220472
        },
        {
          "duration": 0.20000000000000284,
          "durationTicks": 384,
          "midi": 70,
          "name": "A#4",
          "ticks": 197184,
          "time": 102.7,
          "velocity": 0.5118110236220472
        },
        {
          "duration": 0.10000000000000853,
          "durationTicks": 192,
          "midi": 58,
          "name": "A#3",
          "ticks": 197184,
          "time": 102.7,
          "velocity": 0.5118110236220472
        },
        {
          "duration": 0.09999999999999432,
          "durationTicks": 192,
          "midi": 56,
          "name": "G#3",
          "ticks": 197376,
          "time": 102.80000000000001,
          "velocity": 0.5118110236220472
        },
        {
          "duration": 0.09999999999999432,
          "durationTicks": 192,
          "midi": 54,
          "name": "F#3",
          "ticks": 197568,
          "time": 102.9,
          "velocity": 0.5118110236220472
        },
        {
          "duration": 0.09999999999999432,
          "durationTicks": 192,
          "midi": 71,
          "name": "B4",
          "ticks": 197568,
          "time": 102.9,
          "velocity": 0.5118110236220472
        },
        {
          "duration": 0.10000000000000853,
          "durationTicks": 192,
          "midi": 61,
          "name": "C#4",
          "ticks": 197760,
          "time": 103,
          "velocity": 0.5118110236220472
        },
        {
          "duration": 0.20000000000000284,
          "durationTicks": 384,
          "midi": 70,
          "name": "A#4",
          "ticks": 197760,
          "time": 103,
          "velocity": 0.5118110236220472
        },
        {
          "duration": 0.09999999999999432,
          "durationTicks": 192,
          "midi": 59,
          "name": "B3",
          "ticks": 197952,
          "time": 103.10000000000001,
          "velocity": 0.5118110236220472
        },
        {
          "duration": 0.10000000000000853,
          "durationTicks": 192,
          "midi": 58,
          "name": "A#3",
          "ticks": 198144,
          "time": 103.2,
          "velocity": 0.5118110236220472
        },
        {
          "duration": 0.10000000000000853,
          "durationTicks": 192,
          "midi": 71,
          "name": "B4",
          "ticks": 198144,
          "time": 103.2,
          "velocity": 0.5118110236220472
        },
        {
          "duration": 0.19999999999998863,
          "durationTicks": 384,
          "midi": 70,
          "name": "A#4",
          "ticks": 198336,
          "time": 103.30000000000001,
          "velocity": 0.5118110236220472
        },
        {
          "duration": 0.09999999999999432,
          "durationTicks": 192,
          "midi": 59,
          "name": "B3",
          "ticks": 198336,
          "time": 103.30000000000001,
          "velocity": 0.5118110236220472
        },
        {
          "duration": 0.09999999999999432,
          "durationTicks": 192,
          "midi": 58,
          "name": "A#3",
          "ticks": 198528,
          "time": 103.4,
          "velocity": 0.5118110236220472
        },
        {
          "duration": 0.10000000000000853,
          "durationTicks": 192,
          "midi": 56,
          "name": "G#3",
          "ticks": 198720,
          "time": 103.5,
          "velocity": 0.5118110236220472
        },
        {
          "duration": 0.10000000000000853,
          "durationTicks": 192,
          "midi": 71,
          "name": "B4",
          "ticks": 198720,
          "time": 103.5,
          "velocity": 0.5118110236220472
        },
        {
          "duration": 0.20000000000000284,
          "durationTicks": 384,
          "midi": 70,
          "name": "A#4",
          "ticks": 198912,
          "time": 103.60000000000001,
          "velocity": 0.5118110236220472
        },
        {
          "duration": 0.09999999999999432,
          "durationTicks": 192,
          "midi": 54,
          "name": "F#3",
          "ticks": 198912,
          "time": 103.60000000000001,
          "velocity": 0.5118110236220472
        },
        {
          "duration": 0.10000000000000853,
          "durationTicks": 192,
          "midi": 56,
          "name": "G#3",
          "ticks": 199104,
          "time": 103.7,
          "velocity": 0.5118110236220472
        },
        {
          "duration": 0.09999999999999432,
          "durationTicks": 192,
          "midi": 51,
          "name": "D#3",
          "ticks": 199296,
          "time": 103.80000000000001,
          "velocity": 0.5118110236220472
        },
        {
          "duration": 0.19999999999998863,
          "durationTicks": 384,
          "midi": 71,
          "name": "B4",
          "ticks": 199296,
          "time": 103.80000000000001,
          "velocity": 0.5118110236220472
        },
        {
          "duration": 0.09999999999999432,
          "durationTicks": 192,
          "midi": 46,
          "name": "A#2",
          "ticks": 199488,
          "time": 103.9,
          "velocity": 0.5118110236220472
        },
        {
          "duration": 0.10000000000000853,
          "durationTicks": 192,
          "midi": 54,
          "name": "F#3",
          "ticks": 199680,
          "time": 104,
          "velocity": 0.5118110236220472
        },
        {
          "duration": 0.20000000000000284,
          "durationTicks": 384,
          "midi": 70,
          "name": "A#4",
          "ticks": 199680,
          "time": 104,
          "velocity": 0.5118110236220472
        },
        {
          "duration": 0.09999999999999432,
          "durationTicks": 192,
          "midi": 53,
          "name": "F3",
          "ticks": 199872,
          "time": 104.10000000000001,
          "velocity": 0.5118110236220472
        },
        {
          "duration": 0.10000000000000853,
          "durationTicks": 192,
          "midi": 71,
          "name": "B4",
          "ticks": 200064,
          "time": 104.2,
          "velocity": 0.5118110236220472
        },
        {
          "duration": 0.10000000000000853,
          "durationTicks": 192,
          "midi": 51,
          "name": "D#3",
          "ticks": 200064,
          "time": 104.2,
          "velocity": 0.5118110236220472
        },
        {
          "duration": 0.19999999999998863,
          "durationTicks": 384,
          "midi": 70,
          "name": "A#4",
          "ticks": 200256,
          "time": 104.30000000000001,
          "velocity": 0.5118110236220472
        },
        {
          "duration": 0.09999999999999432,
          "durationTicks": 192,
          "midi": 58,
          "name": "A#3",
          "ticks": 200256,
          "time": 104.30000000000001,
          "velocity": 0.5118110236220472
        },
        {
          "duration": 0.09999999999999432,
          "durationTicks": 192,
          "midi": 56,
          "name": "G#3",
          "ticks": 200448,
          "time": 104.4,
          "velocity": 0.5118110236220472
        },
        {
          "duration": 0.10000000000000853,
          "durationTicks": 192,
          "midi": 71,
          "name": "B4",
          "ticks": 200640,
          "time": 104.5,
          "velocity": 0.5118110236220472
        },
        {
          "duration": 0.10000000000000853,
          "durationTicks": 192,
          "midi": 54,
          "name": "F#3",
          "ticks": 200640,
          "time": 104.5,
          "velocity": 0.5118110236220472
        },
        {
          "duration": 0.20000000000000284,
          "durationTicks": 384,
          "midi": 70,
          "name": "A#4",
          "ticks": 200832,
          "time": 104.60000000000001,
          "velocity": 0.5118110236220472
        },
        {
          "duration": 0.09999999999999432,
          "durationTicks": 192,
          "midi": 61,
          "name": "C#4",
          "ticks": 200832,
          "time": 104.60000000000001,
          "velocity": 0.5118110236220472
        },
        {
          "duration": 0.10000000000000853,
          "durationTicks": 192,
          "midi": 59,
          "name": "B3",
          "ticks": 201024,
          "time": 104.7,
          "velocity": 0.5118110236220472
        },
        {
          "duration": 0.09999999999999432,
          "durationTicks": 192,
          "midi": 71,
          "name": "B4",
          "ticks": 201216,
          "time": 104.80000000000001,
          "velocity": 0.5118110236220472
        },
        {
          "duration": 0.09999999999999432,
          "durationTicks": 192,
          "midi": 58,
          "name": "A#3",
          "ticks": 201216,
          "time": 104.80000000000001,
          "velocity": 0.5118110236220472
        },
        {
          "duration": 0.20000000000000284,
          "durationTicks": 384,
          "midi": 70,
          "name": "A#4",
          "ticks": 201408,
          "time": 104.9,
          "velocity": 0.5118110236220472
        },
        {
          "duration": 0.09999999999999432,
          "durationTicks": 192,
          "midi": 59,
          "name": "B3",
          "ticks": 201408,
          "time": 104.9,
          "velocity": 0.5118110236220472
        },
        {
          "duration": 0.10000000000000853,
          "durationTicks": 192,
          "midi": 58,
          "name": "A#3",
          "ticks": 201600,
          "time": 105,
          "velocity": 0.5118110236220472
        },
        {
          "duration": 0.09999999999999432,
          "durationTicks": 192,
          "midi": 71,
          "name": "B4",
          "ticks": 201792,
          "time": 105.10000000000001,
          "velocity": 0.5118110236220472
        },
        {
          "duration": 0.09999999999999432,
          "durationTicks": 192,
          "midi": 56,
          "name": "G#3",
          "ticks": 201792,
          "time": 105.10000000000001,
          "velocity": 0.5118110236220472
        },
        {
          "duration": 0.20000000000000284,
          "durationTicks": 384,
          "midi": 70,
          "name": "A#4",
          "ticks": 201984,
          "time": 105.2,
          "velocity": 0.5118110236220472
        },
        {
          "duration": 0.10000000000000853,
          "durationTicks": 192,
          "midi": 54,
          "name": "F#3",
          "ticks": 201984,
          "time": 105.2,
          "velocity": 0.5118110236220472
        },
        {
          "duration": 0.09999999999999432,
          "durationTicks": 192,
          "midi": 56,
          "name": "G#3",
          "ticks": 202176,
          "time": 105.30000000000001,
          "velocity": 0.5118110236220472
        },
        {
          "duration": 0.20000000000000284,
          "durationTicks": 384,
          "midi": 71,
          "name": "B4",
          "ticks": 202368,
          "time": 105.4,
          "velocity": 0.5118110236220472
        },
        {
          "duration": 0.09999999999999432,
          "durationTicks": 192,
          "midi": 46,
          "name": "A#2",
          "ticks": 202368,
          "time": 105.4,
          "velocity": 0.5118110236220472
        },
        {
          "duration": 0.10000000000000853,
          "durationTicks": 192,
          "midi": 51,
          "name": "D#3",
          "ticks": 202560,
          "time": 105.5,
          "velocity": 0.5118110236220472
        },
        {
          "duration": 0.20000000000000284,
          "durationTicks": 384,
          "midi": 68,
          "name": "G#4",
          "ticks": 202752,
          "time": 105.60000000000001,
          "velocity": 0.5118110236220472
        },
        {
          "duration": 0.09999999999999432,
          "durationTicks": 192,
          "midi": 54,
          "name": "F#3",
          "ticks": 202752,
          "time": 105.60000000000001,
          "velocity": 0.5118110236220472
        },
        {
          "duration": 0.10000000000000853,
          "durationTicks": 192,
          "midi": 53,
          "name": "F3",
          "ticks": 202944,
          "time": 105.7,
          "velocity": 0.5118110236220472
        },
        {
          "duration": 0.09999999999999432,
          "durationTicks": 192,
          "midi": 70,
          "name": "A#4",
          "ticks": 203136,
          "time": 105.80000000000001,
          "velocity": 0.5118110236220472
        },
        {
          "duration": 0.09999999999999432,
          "durationTicks": 192,
          "midi": 51,
          "name": "D#3",
          "ticks": 203136,
          "time": 105.80000000000001,
          "velocity": 0.5118110236220472
        },
        {
          "duration": 0.20000000000000284,
          "durationTicks": 384,
          "midi": 68,
          "name": "G#4",
          "ticks": 203328,
          "time": 105.9,
          "velocity": 0.5118110236220472
        },
        {
          "duration": 0.09999999999999432,
          "durationTicks": 192,
          "midi": 58,
          "name": "A#3",
          "ticks": 203328,
          "time": 105.9,
          "velocity": 0.5118110236220472
        },
        {
          "duration": 0.10000000000000853,
          "durationTicks": 192,
          "midi": 56,
          "name": "G#3",
          "ticks": 203520,
          "time": 106,
          "velocity": 0.5118110236220472
        },
        {
          "duration": 0.09999999999999432,
          "durationTicks": 192,
          "midi": 54,
          "name": "F#3",
          "ticks": 203712,
          "time": 106.10000000000001,
          "velocity": 0.5118110236220472
        },
        {
          "duration": 0.09999999999999432,
          "durationTicks": 192,
          "midi": 70,
          "name": "A#4",
          "ticks": 203712,
          "time": 106.10000000000001,
          "velocity": 0.5118110236220472
        },
        {
          "duration": 0.20000000000000284,
          "durationTicks": 384,
          "midi": 68,
          "name": "G#4",
          "ticks": 203904,
          "time": 106.2,
          "velocity": 0.5118110236220472
        },
        {
          "duration": 0.10000000000000853,
          "durationTicks": 192,
          "midi": 61,
          "name": "C#4",
          "ticks": 203904,
          "time": 106.2,
          "velocity": 0.5118110236220472
        },
        {
          "duration": 0.09999999999999432,
          "durationTicks": 192,
          "midi": 59,
          "name": "B3",
          "ticks": 204096,
          "time": 106.30000000000001,
          "velocity": 0.5118110236220472
        },
        {
          "duration": 0.09999999999999432,
          "durationTicks": 192,
          "midi": 58,
          "name": "A#3",
          "ticks": 204288,
          "time": 106.4,
          "velocity": 0.5118110236220472
        },
        {
          "duration": 0.09999999999999432,
          "durationTicks": 192,
          "midi": 70,
          "name": "A#4",
          "ticks": 204288,
          "time": 106.4,
          "velocity": 0.5118110236220472
        },
        {
          "duration": 0.20000000000000284,
          "durationTicks": 384,
          "midi": 68,
          "name": "G#4",
          "ticks": 204480,
          "time": 106.5,
          "velocity": 0.5118110236220472
        },
        {
          "duration": 0.10000000000000853,
          "durationTicks": 192,
          "midi": 59,
          "name": "B3",
          "ticks": 204480,
          "time": 106.5,
          "velocity": 0.5118110236220472
        },
        {
          "duration": 0.09999999999999432,
          "durationTicks": 192,
          "midi": 58,
          "name": "A#3",
          "ticks": 204672,
          "time": 106.60000000000001,
          "velocity": 0.5118110236220472
        },
        {
          "duration": 0.10000000000000853,
          "durationTicks": 192,
          "midi": 56,
          "name": "G#3",
          "ticks": 204864,
          "time": 106.7,
          "velocity": 0.5118110236220472
        },
        {
          "duration": 0.10000000000000853,
          "durationTicks": 192,
          "midi": 70,
          "name": "A#4",
          "ticks": 204864,
          "time": 106.7,
          "velocity": 0.5118110236220472
        },
        {
          "duration": 0.09999999999999432,
          "durationTicks": 192,
          "midi": 54,
          "name": "F#3",
          "ticks": 205056,
          "time": 106.80000000000001,
          "velocity": 0.5118110236220472
        },
        {
          "duration": 0.19999999999998863,
          "durationTicks": 384,
          "midi": 68,
          "name": "G#4",
          "ticks": 205056,
          "time": 106.80000000000001,
          "velocity": 0.5118110236220472
        },
        {
          "duration": 0.09999999999999432,
          "durationTicks": 192,
          "midi": 56,
          "name": "G#3",
          "ticks": 205248,
          "time": 106.9,
          "velocity": 0.5118110236220472
        },
        {
          "duration": 0.10000000000000853,
          "durationTicks": 192,
          "midi": 51,
          "name": "D#3",
          "ticks": 205440,
          "time": 107,
          "velocity": 0.5118110236220472
        },
        {
          "duration": 0.20000000000000284,
          "durationTicks": 384,
          "midi": 70,
          "name": "A#4",
          "ticks": 205440,
          "time": 107,
          "velocity": 0.5118110236220472
        },
        {
          "duration": 0.09999999999999432,
          "durationTicks": 192,
          "midi": 46,
          "name": "A#2",
          "ticks": 205632,
          "time": 107.10000000000001,
          "velocity": 0.5118110236220472
        },
        {
          "duration": 0.20000000000000284,
          "durationTicks": 384,
          "midi": 66,
          "name": "F#4",
          "ticks": 205824,
          "time": 107.2,
          "velocity": 0.5118110236220472
        },
        {
          "duration": 0.10000000000000853,
          "durationTicks": 192,
          "midi": 54,
          "name": "F#3",
          "ticks": 205824,
          "time": 107.2,
          "velocity": 0.5118110236220472
        },
        {
          "duration": 0.09999999999999432,
          "durationTicks": 192,
          "midi": 53,
          "name": "F3",
          "ticks": 206016,
          "time": 107.30000000000001,
          "velocity": 0.5118110236220472
        },
        {
          "duration": 0.09999999999999432,
          "durationTicks": 192,
          "midi": 70,
          "name": "A#4",
          "ticks": 206208,
          "time": 107.4,
          "velocity": 0.5118110236220472
        },
        {
          "duration": 0.09999999999999432,
          "durationTicks": 192,
          "midi": 51,
          "name": "D#3",
          "ticks": 206208,
          "time": 107.4,
          "velocity": 0.5118110236220472
        },
        {
          "duration": 0.10000000000000853,
          "durationTicks": 192,
          "midi": 58,
          "name": "A#3",
          "ticks": 206400,
          "time": 107.5,
          "velocity": 0.5118110236220472
        },
        {
          "duration": 0.20000000000000284,
          "durationTicks": 384,
          "midi": 66,
          "name": "F#4",
          "ticks": 206400,
          "time": 107.5,
          "velocity": 0.5118110236220472
        },
        {
          "duration": 0.09999999999999432,
          "durationTicks": 192,
          "midi": 56,
          "name": "G#3",
          "ticks": 206592,
          "time": 107.60000000000001,
          "velocity": 0.5118110236220472
        },
        {
          "duration": 0.10000000000000853,
          "durationTicks": 192,
          "midi": 54,
          "name": "F#3",
          "ticks": 206784,
          "time": 107.7,
          "velocity": 0.5118110236220472
        },
        {
          "duration": 0.10000000000000853,
          "durationTicks": 192,
          "midi": 70,
          "name": "A#4",
          "ticks": 206784,
          "time": 107.7,
          "velocity": 0.5118110236220472
        },
        {
          "duration": 0.19999999999998863,
          "durationTicks": 384,
          "midi": 65,
          "name": "F4",
          "ticks": 206976,
          "time": 107.80000000000001,
          "velocity": 0.5118110236220472
        },
        {
          "duration": 0.09999999999999432,
          "durationTicks": 192,
          "midi": 61,
          "name": "C#4",
          "ticks": 206976,
          "time": 107.80000000000001,
          "velocity": 0.5118110236220472
        },
        {
          "duration": 0.09999999999999432,
          "durationTicks": 192,
          "midi": 59,
          "name": "B3",
          "ticks": 207168,
          "time": 107.9,
          "velocity": 0.5118110236220472
        },
        {
          "duration": 0.10000000000000853,
          "durationTicks": 192,
          "midi": 58,
          "name": "A#3",
          "ticks": 207360,
          "time": 108,
          "velocity": 0.5118110236220472
        },
        {
          "duration": 0.10000000000000853,
          "durationTicks": 192,
          "midi": 68,
          "name": "G#4",
          "ticks": 207360,
          "time": 108,
          "velocity": 0.5118110236220472
        },
        {
          "duration": 0.09999999999999432,
          "durationTicks": 192,
          "midi": 59,
          "name": "B3",
          "ticks": 207552,
          "time": 108.10000000000001,
          "velocity": 0.5118110236220472
        },
        {
          "duration": 0.20000000000000284,
          "durationTicks": 384,
          "midi": 65,
          "name": "F4",
          "ticks": 207552,
          "time": 108.10000000000001,
          "velocity": 0.5118110236220472
        },
        {
          "duration": 0.10000000000000853,
          "durationTicks": 192,
          "midi": 58,
          "name": "A#3",
          "ticks": 207744,
          "time": 108.2,
          "velocity": 0.5118110236220472
        },
        {
          "duration": 0.09999999999999432,
          "durationTicks": 192,
          "midi": 56,
          "name": "G#3",
          "ticks": 207936,
          "time": 108.30000000000001,
          "velocity": 0.5118110236220472
        },
        {
          "duration": 0.09999999999999432,
          "durationTicks": 192,
          "midi": 68,
          "name": "G#4",
          "ticks": 207936,
          "time": 108.30000000000001,
          "velocity": 0.5118110236220472
        },
        {
          "duration": 0.20000000000000284,
          "durationTicks": 384,
          "midi": 65,
          "name": "F4",
          "ticks": 208128,
          "time": 108.4,
          "velocity": 0.5118110236220472
        },
        {
          "duration": 0.09999999999999432,
          "durationTicks": 192,
          "midi": 54,
          "name": "F#3",
          "ticks": 208128,
          "time": 108.4,
          "velocity": 0.5118110236220472
        },
        {
          "duration": 0.10000000000000853,
          "durationTicks": 192,
          "midi": 56,
          "name": "G#3",
          "ticks": 208320,
          "time": 108.5,
          "velocity": 0.5118110236220472
        },
        {
          "duration": 0.20000000000000284,
          "durationTicks": 384,
          "midi": 63,
          "name": "D#4",
          "ticks": 208512,
          "time": 108.60000000000001,
          "velocity": 0.5118110236220472
        },
        {
          "duration": 0.09999999999999432,
          "durationTicks": 192,
          "midi": 46,
          "name": "A#2",
          "ticks": 208512,
          "time": 108.60000000000001,
          "velocity": 0.5118110236220472
        },
        {
          "duration": 0.10000000000000853,
          "durationTicks": 192,
          "midi": 51,
          "name": "D#3",
          "ticks": 208704,
          "time": 108.7,
          "velocity": 0.5118110236220472
        },
        {
          "duration": 0.04999999999999716,
          "durationTicks": 96,
          "midi": 78,
          "name": "F#5",
          "ticks": 208896,
          "time": 108.80000000000001,
          "velocity": 0.5118110236220472
        },
        {
          "duration": 0.09999999999999432,
          "durationTicks": 192,
          "midi": 54,
          "name": "F#3",
          "ticks": 208896,
          "time": 108.80000000000001,
          "velocity": 0.5118110236220472
        },
        {
          "duration": 0.09999999999999432,
          "durationTicks": 192,
          "midi": 53,
          "name": "F3",
          "ticks": 209088,
          "time": 108.9,
          "velocity": 0.5118110236220472
        },
        {
          "duration": 0.10000000000000853,
          "durationTicks": 192,
          "midi": 51,
          "name": "D#3",
          "ticks": 209280,
          "time": 109,
          "velocity": 0.5118110236220472
        },
        {
          "duration": 0.05000000000001137,
          "durationTicks": 96,
          "midi": 75,
          "name": "D#5",
          "ticks": 209280,
          "time": 109,
          "velocity": 0.5118110236220472
        },
        {
          "duration": 0.09999999999999432,
          "durationTicks": 192,
          "midi": 58,
          "name": "A#3",
          "ticks": 209472,
          "time": 109.10000000000001,
          "velocity": 0.5118110236220472
        },
        {
          "duration": 0.10000000000000853,
          "durationTicks": 192,
          "midi": 56,
          "name": "G#3",
          "ticks": 209664,
          "time": 109.2,
          "velocity": 0.5118110236220472
        },
        {
          "duration": 0.04999999999999716,
          "durationTicks": 96,
          "midi": 77,
          "name": "F5",
          "ticks": 209664,
          "time": 109.2,
          "velocity": 0.5118110236220472
        },
        {
          "duration": 0.09999999999999432,
          "durationTicks": 192,
          "midi": 54,
          "name": "F#3",
          "ticks": 209856,
          "time": 109.30000000000001,
          "velocity": 0.5118110236220472
        },
        {
          "duration": 0.04999999999999716,
          "durationTicks": 96,
          "midi": 74,
          "name": "D5",
          "ticks": 210048,
          "time": 109.4,
          "velocity": 0.5118110236220472
        },
        {
          "duration": 0.09999999999999432,
          "durationTicks": 192,
          "midi": 61,
          "name": "C#4",
          "ticks": 210048,
          "time": 109.4,
          "velocity": 0.5118110236220472
        },
        {
          "duration": 0.10000000000000853,
          "durationTicks": 192,
          "midi": 59,
          "name": "B3",
          "ticks": 210240,
          "time": 109.5,
          "velocity": 0.5118110236220472
        },
        {
          "duration": 0.09999999999999432,
          "durationTicks": 192,
          "midi": 58,
          "name": "A#3",
          "ticks": 210432,
          "time": 109.60000000000001,
          "velocity": 0.5118110236220472
        },
        {
          "duration": 0.04999999999999716,
          "durationTicks": 96,
          "midi": 75,
          "name": "D#5",
          "ticks": 210432,
          "time": 109.60000000000001,
          "velocity": 0.5118110236220472
        },
        {
          "duration": 0.10000000000000853,
          "durationTicks": 192,
          "midi": 59,
          "name": "B3",
          "ticks": 210624,
          "time": 109.7,
          "velocity": 0.5118110236220472
        },
        {
          "duration": 0.04999999999999716,
          "durationTicks": 96,
          "midi": 78,
          "name": "F#5",
          "ticks": 210816,
          "time": 109.80000000000001,
          "velocity": 0.5118110236220472
        },
        {
          "duration": 0.09999999999999432,
          "durationTicks": 192,
          "midi": 58,
          "name": "A#3",
          "ticks": 210816,
          "time": 109.80000000000001,
          "velocity": 0.5118110236220472
        },
        {
          "duration": 0.09999999999999432,
          "durationTicks": 192,
          "midi": 56,
          "name": "G#3",
          "ticks": 211008,
          "time": 109.9,
          "velocity": 0.5118110236220472
        },
        {
          "duration": 0.10000000000000853,
          "durationTicks": 192,
          "midi": 54,
          "name": "F#3",
          "ticks": 211200,
          "time": 110,
          "velocity": 0.5118110236220472
        },
        {
          "duration": 0.05000000000001137,
          "durationTicks": 96,
          "midi": 75,
          "name": "D#5",
          "ticks": 211200,
          "time": 110,
          "velocity": 0.5118110236220472
        },
        {
          "duration": 0.04999999999999716,
          "durationTicks": 96,
          "midi": 74,
          "name": "D5",
          "ticks": 211392,
          "time": 110.10000000000001,
          "velocity": 0.5118110236220472
        },
        {
          "duration": 0.09999999999999432,
          "durationTicks": 192,
          "midi": 56,
          "name": "G#3",
          "ticks": 211392,
          "time": 110.10000000000001,
          "velocity": 0.5118110236220472
        },
        {
          "duration": 0.10000000000000853,
          "durationTicks": 192,
          "midi": 51,
          "name": "D#3",
          "ticks": 211584,
          "time": 110.2,
          "velocity": 0.5118110236220472
        },
        {
          "duration": 0.04999999999999716,
          "durationTicks": 96,
          "midi": 75,
          "name": "D#5",
          "ticks": 211584,
          "time": 110.2,
          "velocity": 0.5118110236220472
        },
        {
          "duration": 0.09999999999999432,
          "durationTicks": 192,
          "midi": 46,
          "name": "A#2",
          "ticks": 211776,
          "time": 110.30000000000001,
          "velocity": 0.5118110236220472
        },
        {
          "duration": 0.09999999999999432,
          "durationTicks": 192,
          "midi": 54,
          "name": "F#3",
          "ticks": 211968,
          "time": 110.4,
          "velocity": 0.5118110236220472
        },
        {
          "duration": 0.04999999999999716,
          "durationTicks": 96,
          "midi": 74,
          "name": "D5",
          "ticks": 211968,
          "time": 110.4,
          "velocity": 0.5118110236220472
        },
        {
          "duration": 0.10000000000000853,
          "durationTicks": 192,
          "midi": 53,
          "name": "F3",
          "ticks": 212160,
          "time": 110.5,
          "velocity": 0.5118110236220472
        },
        {
          "duration": 0.09999999999999432,
          "durationTicks": 192,
          "midi": 51,
          "name": "D#3",
          "ticks": 212352,
          "time": 110.60000000000001,
          "velocity": 0.5118110236220472
        },
        {
          "duration": 0.04999999999999716,
          "durationTicks": 96,
          "midi": 77,
          "name": "F5",
          "ticks": 212352,
          "time": 110.60000000000001,
          "velocity": 0.5118110236220472
        },
        {
          "duration": 0.10000000000000853,
          "durationTicks": 192,
          "midi": 58,
          "name": "A#3",
          "ticks": 212544,
          "time": 110.7,
          "velocity": 0.5118110236220472
        },
        {
          "duration": 0.04999999999999716,
          "durationTicks": 96,
          "midi": 74,
          "name": "D5",
          "ticks": 212736,
          "time": 110.80000000000001,
          "velocity": 0.5118110236220472
        },
        {
          "duration": 0.09999999999999432,
          "durationTicks": 192,
          "midi": 56,
          "name": "G#3",
          "ticks": 212736,
          "time": 110.80000000000001,
          "velocity": 0.5118110236220472
        },
        {
          "duration": 0.09999999999999432,
          "durationTicks": 192,
          "midi": 54,
          "name": "F#3",
          "ticks": 212928,
          "time": 110.9,
          "velocity": 0.5118110236220472
        },
        {
          "duration": 0.04999999999999716,
          "durationTicks": 96,
          "midi": 68,
          "name": "G#4",
          "ticks": 212928,
          "time": 110.9,
          "velocity": 0.5118110236220472
        },
        {
          "duration": 0.05000000000001137,
          "durationTicks": 96,
          "midi": 71,
          "name": "B4",
          "ticks": 213120,
          "time": 111,
          "velocity": 0.5118110236220472
        },
        {
          "duration": 0.10000000000000853,
          "durationTicks": 192,
          "midi": 61,
          "name": "C#4",
          "ticks": 213120,
          "time": 111,
          "velocity": 0.5118110236220472
        },
        {
          "duration": 0.09999999999999432,
          "durationTicks": 192,
          "midi": 59,
          "name": "B3",
          "ticks": 213312,
          "time": 111.10000000000001,
          "velocity": 0.5118110236220472
        },
        {
          "duration": 0.10000000000000853,
          "durationTicks": 192,
          "midi": 58,
          "name": "A#3",
          "ticks": 213504,
          "time": 111.2,
          "velocity": 0.5118110236220472
        },
        {
          "duration": 0.04999999999999716,
          "durationTicks": 96,
          "midi": 70,
          "name": "A#4",
          "ticks": 213504,
          "time": 111.2,
          "velocity": 0.5118110236220472
        },
        {
          "duration": 0.04999999999999716,
          "durationTicks": 96,
          "midi": 63,
          "name": "D#4",
          "ticks": 213504,
          "time": 111.2,
          "velocity": 0.5118110236220472
        },
        {
          "duration": 0.09999999999999432,
          "durationTicks": 192,
          "midi": 59,
          "name": "B3",
          "ticks": 213696,
          "time": 111.30000000000001,
          "velocity": 0.5118110236220472
        },
        {
          "duration": 0.04999999999999716,
          "durationTicks": 96,
          "midi": 71,
          "name": "B4",
          "ticks": 213888,
          "time": 111.4,
          "velocity": 0.5118110236220472
        },
        {
          "duration": 0.09999999999999432,
          "durationTicks": 192,
          "midi": 58,
          "name": "A#3",
          "ticks": 213888,
          "time": 111.4,
          "velocity": 0.5118110236220472
        },
        {
          "duration": 0.04999999999999716,
          "durationTicks": 96,
          "midi": 78,
          "name": "F#5",
          "ticks": 213888,
          "time": 111.4,
          "velocity": 0.5118110236220472
        },
        {
          "duration": 0.10000000000000853,
          "durationTicks": 192,
          "midi": 56,
          "name": "G#3",
          "ticks": 214080,
          "time": 111.5,
          "velocity": 0.5118110236220472
        },
        {
          "duration": 0.04999999999999716,
          "durationTicks": 96,
          "midi": 70,
          "name": "A#4",
          "ticks": 214272,
          "time": 111.60000000000001,
          "velocity": 0.5118110236220472
        },
        {
          "duration": 0.04999999999999716,
          "durationTicks": 96,
          "midi": 75,
          "name": "D#5",
          "ticks": 214272,
          "time": 111.60000000000001,
          "velocity": 0.5118110236220472
        },
        {
          "duration": 0.09999999999999432,
          "durationTicks": 192,
          "midi": 54,
          "name": "F#3",
          "ticks": 214272,
          "time": 111.60000000000001,
          "velocity": 0.5118110236220472
        },
        {
          "duration": 0.04999999999999716,
          "durationTicks": 96,
          "midi": 68,
          "name": "G#4",
          "ticks": 214464,
          "time": 111.7,
          "velocity": 0.5118110236220472
        },
        {
          "duration": 0.10000000000000853,
          "durationTicks": 192,
          "midi": 56,
          "name": "G#3",
          "ticks": 214464,
          "time": 111.7,
          "velocity": 0.5118110236220472
        },
        {
          "duration": 0.04999999999999716,
          "durationTicks": 96,
          "midi": 74,
          "name": "D5",
          "ticks": 214464,
          "time": 111.7,
          "velocity": 0.5118110236220472
        },
        {
          "duration": 0.04999999999999716,
          "durationTicks": 96,
          "midi": 75,
          "name": "D#5",
          "ticks": 214656,
          "time": 111.80000000000001,
          "velocity": 0.5118110236220472
        },
        {
          "duration": 0.04999999999999716,
          "durationTicks": 96,
          "midi": 66,
          "name": "F#4",
          "ticks": 214656,
          "time": 111.80000000000001,
          "velocity": 0.5118110236220472
        },
        {
          "duration": 0.09999999999999432,
          "durationTicks": 192,
          "midi": 46,
          "name": "A#2",
          "ticks": 214656,
          "time": 111.80000000000001,
          "velocity": 0.5118110236220472
        },
        {
          "duration": 0.05000000000001137,
          "durationTicks": 96,
          "midi": 65,
          "name": "F4",
          "ticks": 215040,
          "time": 112,
          "velocity": 0.5118110236220472
        },
        {
          "duration": 0.05000000000001137,
          "durationTicks": 96,
          "midi": 74,
          "name": "D5",
          "ticks": 215040,
          "time": 112,
          "velocity": 0.5118110236220472
        },
        {
          "duration": 0.04999999999999716,
          "durationTicks": 96,
          "midi": 70,
          "name": "A#4",
          "ticks": 215424,
          "time": 112.2,
          "velocity": 0.5118110236220472
        },
        {
          "duration": 0.04999999999999716,
          "durationTicks": 96,
          "midi": 62,
          "name": "D4",
          "ticks": 215424,
          "time": 112.2,
          "velocity": 0.5118110236220472
        },
        {
          "duration": 0.04999999999999716,
          "durationTicks": 96,
          "midi": 78,
          "name": "F#5",
          "ticks": 215808,
          "time": 112.4,
          "velocity": 0.5118110236220472
        },
        {
          "duration": 0.04999999999999716,
          "durationTicks": 96,
          "midi": 71,
          "name": "B4",
          "ticks": 215808,
          "time": 112.4,
          "velocity": 0.5118110236220472
        },
        {
          "duration": 0.05000000000001137,
          "durationTicks": 96,
          "midi": 70,
          "name": "A#4",
          "ticks": 216000,
          "time": 112.5,
          "velocity": 0.5118110236220472
        },
        {
          "duration": 0.05000000000001137,
          "durationTicks": 96,
          "midi": 77,
          "name": "F5",
          "ticks": 216000,
          "time": 112.5,
          "velocity": 0.5118110236220472
        },
        {
          "duration": 0.04999999999999716,
          "durationTicks": 96,
          "midi": 74,
          "name": "D5",
          "ticks": 216192,
          "time": 112.60000000000001,
          "velocity": 0.5118110236220472
        },
        {
          "duration": 0.04999999999999716,
          "durationTicks": 96,
          "midi": 68,
          "name": "G#4",
          "ticks": 216192,
          "time": 112.60000000000001,
          "velocity": 0.5118110236220472
        },
        {
          "duration": 0.04999999999999716,
          "durationTicks": 96,
          "midi": 70,
          "name": "A#4",
          "ticks": 216576,
          "time": 112.80000000000001,
          "velocity": 0.5118110236220472
        },
        {
          "duration": 0.05000000000001137,
          "durationTicks": 96,
          "midi": 75,
          "name": "D#5",
          "ticks": 216960,
          "time": 113,
          "velocity": 0.5118110236220472
        },
        {
          "duration": 0.04999999999999716,
          "durationTicks": 96,
          "midi": 78,
          "name": "F#5",
          "ticks": 217344,
          "time": 113.2,
          "velocity": 0.5118110236220472
        },
        {
          "duration": 0.04999999999999716,
          "durationTicks": 96,
          "midi": 77,
          "name": "F5",
          "ticks": 217536,
          "time": 113.30000000000001,
          "velocity": 0.5118110236220472
        },
        {
          "duration": 0.04999999999999716,
          "durationTicks": 96,
          "midi": 75,
          "name": "D#5",
          "ticks": 217728,
          "time": 113.4,
          "velocity": 0.5118110236220472
        },
        {
          "duration": 0.04999999999999716,
          "durationTicks": 96,
          "midi": 83,
          "name": "B5",
          "ticks": 218112,
          "time": 113.60000000000001,
          "velocity": 0.5118110236220472
        },
        {
          "duration": 0.04999999999999716,
          "durationTicks": 96,
          "midi": 78,
          "name": "F#5",
          "ticks": 218112,
          "time": 113.60000000000001,
          "velocity": 0.5118110236220472
        },
        {
          "duration": 0.04999999999999716,
          "durationTicks": 96,
          "midi": 82,
          "name": "A#5",
          "ticks": 218304,
          "time": 113.7,
          "velocity": 0.5118110236220472
        },
        {
          "duration": 0.05000000000001137,
          "durationTicks": 96,
          "midi": 83,
          "name": "B5",
          "ticks": 218400,
          "time": 113.75,
          "velocity": 0.5118110236220472
        },
        {
          "duration": 0.04999999999999716,
          "durationTicks": 96,
          "midi": 82,
          "name": "A#5",
          "ticks": 218496,
          "time": 113.80000000000001,
          "velocity": 0.5118110236220472
        },
        {
          "duration": 0.04999999999999716,
          "durationTicks": 96,
          "midi": 78,
          "name": "F#5",
          "ticks": 218784,
          "time": 113.95,
          "velocity": 0.5118110236220472
        },
        {
          "duration": 0.05000000000001137,
          "durationTicks": 96,
          "midi": 80,
          "name": "G#5",
          "ticks": 218880,
          "time": 114,
          "velocity": 0.5118110236220472
        },
        {
          "duration": 0.04999999999999716,
          "durationTicks": 96,
          "midi": 78,
          "name": "F#5",
          "ticks": 219072,
          "time": 114.10000000000001,
          "velocity": 0.5118110236220472
        },
        {
          "duration": 0.04999999999999716,
          "durationTicks": 96,
          "midi": 77,
          "name": "F5",
          "ticks": 219264,
          "time": 114.2,
          "velocity": 0.5118110236220472
        },
        {
          "duration": 0.04999999999999716,
          "durationTicks": 96,
          "midi": 75,
          "name": "D#5",
          "ticks": 219456,
          "time": 114.30000000000001,
          "velocity": 0.5118110236220472
        },
        {
          "duration": 0.04999999999999716,
          "durationTicks": 96,
          "midi": 74,
          "name": "D5",
          "ticks": 219648,
          "time": 114.4,
          "velocity": 0.5118110236220472
        },
        {
          "duration": 0.04999999999999716,
          "durationTicks": 96,
          "midi": 82,
          "name": "A#5",
          "ticks": 220032,
          "time": 114.60000000000001,
          "velocity": 0.5118110236220472
        },
        {
          "duration": 0.04999999999999716,
          "durationTicks": 96,
          "midi": 75,
          "name": "D#5",
          "ticks": 220416,
          "time": 114.80000000000001,
          "velocity": 0.5118110236220472
        }
      ],
      "endOfTrackTicks": 220512
    }
  ]
}
