{
  "header": {
    "keySignatures": [],
    "meta": [],
    "name": "",
    "ppq": 384,
    "tempos": [
      {
        "bpm": 190.0002850004275,
        "ticks": 0
      }
    ],
    "timeSignatures": [
      {
        "ticks": 0,
        "timeSignature": [
          1,
          4
        ],
        "measures": 0
      }
    ]
  },
  "tracks": [
    {
      "channel": 9,
      "controlChanges": {},
      "pitchBends": [],
      "instrument": {
        "family": "drums",
        "number": 0,
        "name": "standard kit"
      },
      "name": "Drum Kit",
      "notes": [
        {
          "duration": 0.0789472499999988,
          "durationTicks": 96,
          "midi": 44,
          "name": "G#2",
          "ticks": 24576,
          "time": 20.210496,
          "velocity": 0.14173228346456693
        },
        {
          "duration": 0.0789472499999988,
          "durationTicks": 96,
          "midi": 42,
          "name": "F#2",
          "ticks": 24576,
          "time": 20.210496,
          "velocity": 0.14173228346456693
        },
        {
          "duration": 0.0789472499999988,
          "durationTicks": 96,
          "midi": 42,
          "name": "F#2",
          "ticks": 24768,
          "time": 20.3683905,
          "velocity": 0.14173228346456693
        },
        {
          "duration": 0.07894725000000236,
          "durationTicks": 96,
          "midi": 36,
          "name": "C2",
          "ticks": 24960,
          "time": 20.526284999999998,
          "velocity": 0.14173228346456693
        },
        {
          "duration": 0.07894725000000236,
          "durationTicks": 96,
          "midi": 38,
          "name": "D2",
          "ticks": 24960,
          "time": 20.526284999999998,
          "velocity": 0.14173228346456693
        },
        {
          "duration": 0.0789472499999988,
          "durationTicks": 96,
          "midi": 42,
          "name": "F#2",
          "ticks": 25152,
          "time": 20.6841795,
          "velocity": 0.14173228346456693
        },
        {
          "duration": 0.0789472499999988,
          "durationTicks": 96,
          "midi": 44,
          "name": "G#2",
          "ticks": 25152,
          "time": 20.6841795,
          "velocity": 0.14173228346456693
        },
        {
          "duration": 0.0789472499999988,
          "durationTicks": 96,
          "midi": 42,
          "name": "F#2",
          "ticks": 25344,
          "time": 20.842074,
          "velocity": 0.14173228346456693
        },
        {
          "duration": 0.0789472499999988,
          "durationTicks": 96,
          "midi": 44,
          "name": "G#2",
          "ticks": 25344,
          "time": 20.842074,
          "velocity": 0.14173228346456693
        },
        {
          "duration": 0.07894725000000236,
          "durationTicks": 96,
          "midi": 44,
          "name": "G#2",
          "ticks": 25536,
          "time": 20.999968499999998,
          "velocity": 0.14173228346456693
        },
        {
          "duration": 0.07894725000000236,
          "durationTicks": 96,
          "midi": 36,
          "name": "C2",
          "ticks": 25536,
          "time": 20.999968499999998,
          "velocity": 0.14173228346456693
        },
        {
          "duration": 0.07894725000000236,
          "durationTicks": 96,
          "midi": 38,
          "name": "D2",
          "ticks": 25536,
          "time": 20.999968499999998,
          "velocity": 0.14173228346456693
        },
        {
          "duration": 0.0789472499999988,
          "durationTicks": 96,
          "midi": 42,
          "name": "F#2",
          "ticks": 25728,
          "time": 21.157863,
          "velocity": 0.14173228346456693
        },
        {
          "duration": 0.0789472499999988,
          "durationTicks": 96,
          "midi": 42,
          "name": "F#2",
          "ticks": 25920,
          "time": 21.3157575,
          "velocity": 0.14173228346456693
        },
        {
          "duration": 0.0789472499999988,
          "durationTicks": 96,
          "midi": 36,
          "name": "C2",
          "ticks": 25920,
          "time": 21.3157575,
          "velocity": 0.14173228346456693
        },
        {
          "duration": 0.0789472499999988,
          "durationTicks": 96,
          "midi": 38,
          "name": "D2",
          "ticks": 25920,
          "time": 21.3157575,
          "velocity": 0.14173228346456693
        },
        {
          "duration": 0.07894725000000236,
          "durationTicks": 96,
          "midi": 44,
          "name": "G#2",
          "ticks": 26112,
          "time": 21.473651999999998,
          "velocity": 0.14173228346456693
        },
        {
          "duration": 0.07894725000000236,
          "durationTicks": 96,
          "midi": 42,
          "name": "F#2",
          "ticks": 26112,
          "time": 21.473651999999998,
          "velocity": 0.14173228346456693
        },
        {
          "duration": 0.0789472499999988,
          "durationTicks": 96,
          "midi": 42,
          "name": "F#2",
          "ticks": 26304,
          "time": 21.6315465,
          "velocity": 0.14173228346456693
        },
        {
          "duration": 0.0789472499999988,
          "durationTicks": 96,
          "midi": 36,
          "name": "C2",
          "ticks": 26496,
          "time": 21.789441,
          "velocity": 0.14173228346456693
        },
        {
          "duration": 0.0789472499999988,
          "durationTicks": 96,
          "midi": 38,
          "name": "D2",
          "ticks": 26496,
          "time": 21.789441,
          "velocity": 0.14173228346456693
        },
        {
          "duration": 0.07894725000000236,
          "durationTicks": 96,
          "midi": 42,
          "name": "F#2",
          "ticks": 26688,
          "time": 21.947335499999998,
          "velocity": 0.14173228346456693
        },
        {
          "duration": 0.07894725000000236,
          "durationTicks": 96,
          "midi": 44,
          "name": "G#2",
          "ticks": 26688,
          "time": 21.947335499999998,
          "velocity": 0.14173228346456693
        },
        {
          "duration": 0.0789472499999988,
          "durationTicks": 96,
          "midi": 42,
          "name": "F#2",
          "ticks": 26880,
          "time": 22.10523,
          "velocity": 0.14173228346456693
        },
        {
          "duration": 0.0789472499999988,
          "durationTicks": 96,
          "midi": 44,
          "name": "G#2",
          "ticks": 26880,
          "time": 22.10523,
          "velocity": 0.14173228346456693
        },
        {
          "duration": 0.0789472499999988,
          "durationTicks": 96,
          "midi": 36,
          "name": "C2",
          "ticks": 27072,
          "time": 22.2631245,
          "velocity": 0.14173228346456693
        },
        {
          "duration": 0.0789472499999988,
          "durationTicks": 96,
          "midi": 44,
          "name": "G#2",
          "ticks": 27072,
          "time": 22.2631245,
          "velocity": 0.14173228346456693
        },
        {
          "duration": 0.0789472499999988,
          "durationTicks": 96,
          "midi": 38,
          "name": "D2",
          "ticks": 27072,
          "time": 22.2631245,
          "velocity": 0.14173228346456693
        },
        {
          "duration": 0.07894725000000236,
          "durationTicks": 96,
          "midi": 42,
          "name": "F#2",
          "ticks": 27264,
          "time": 22.421018999999998,
          "velocity": 0.14173228346456693
        },
        {
          "duration": 0.0789472499999988,
          "durationTicks": 96,
          "midi": 42,
          "name": "F#2",
          "ticks": 27456,
          "time": 22.5789135,
          "velocity": 0.14173228346456693
        },
        {
          "duration": 0.0789472499999988,
          "durationTicks": 96,
          "midi": 36,
          "name": "C2",
          "ticks": 27456,
          "time": 22.5789135,
          "velocity": 0.14173228346456693
        },
        {
          "duration": 0.0789472499999988,
          "durationTicks": 96,
          "midi": 38,
          "name": "D2",
          "ticks": 27456,
          "time": 22.5789135,
          "velocity": 0.14173228346456693
        },
        {
          "duration": 0.0789472499999988,
          "durationTicks": 96,
          "midi": 42,
          "name": "F#2",
          "ticks": 27648,
          "time": 22.736808,
          "velocity": 0.14173228346456693
        },
        {
          "duration": 0.0789472499999988,
          "durationTicks": 96,
          "midi": 44,
          "name": "G#2",
          "ticks": 27648,
          "time": 22.736808,
          "velocity": 0.14173228346456693
        },
        {
          "duration": 0.07894725000000236,
          "durationTicks": 96,
          "midi": 42,
          "name": "F#2",
          "ticks": 27840,
          "time": 22.894702499999998,
          "velocity": 0.14173228346456693
        },
        {
          "duration": 0.0789472499999988,
          "durationTicks": 96,
          "midi": 38,
          "name": "D2",
          "ticks": 28032,
          "time": 23.052597,
          "velocity": 0.14173228346456693
        },
        {
          "duration": 0.0789472499999988,
          "durationTicks": 96,
          "midi": 36,
          "name": "C2",
          "ticks": 28032,
          "time": 23.052597,
          "velocity": 0.14173228346456693
        },
        {
          "duration": 0.0789472499999988,
          "durationTicks": 96,
          "midi": 42,
          "name": "F#2",
          "ticks": 28224,
          "time": 23.2104915,
          "velocity": 0.14173228346456693
        },
        {
          "duration": 0.0789472499999988,
          "durationTicks": 96,
          "midi": 44,
          "name": "G#2",
          "ticks": 28224,
          "time": 23.2104915,
          "velocity": 0.14173228346456693
        },
        {
          "duration": 0.07894725000000236,
          "durationTicks": 96,
          "midi": 42,
          "name": "F#2",
          "ticks": 28416,
          "time": 23.368385999999997,
          "velocity": 0.14173228346456693
        },
        {
          "duration": 0.07894725000000236,
          "durationTicks": 96,
          "midi": 44,
          "name": "G#2",
          "ticks": 28416,
          "time": 23.368385999999997,
          "velocity": 0.14173228346456693
        },
        {
          "duration": 0.0789472499999988,
          "durationTicks": 96,
          "midi": 36,
          "name": "C2",
          "ticks": 28608,
          "time": 23.5262805,
          "velocity": 0.14173228346456693
        },
        {
          "duration": 0.0789472499999988,
          "durationTicks": 96,
          "midi": 38,
          "name": "D2",
          "ticks": 28608,
          "time": 23.5262805,
          "velocity": 0.14173228346456693
        },
        {
          "duration": 0.0789472499999988,
          "durationTicks": 96,
          "midi": 44,
          "name": "G#2",
          "ticks": 28608,
          "time": 23.5262805,
          "velocity": 0.14173228346456693
        },
        {
          "duration": 0.0789472499999988,
          "durationTicks": 96,
          "midi": 42,
          "name": "F#2",
          "ticks": 28800,
          "time": 23.684175,
          "velocity": 0.14173228346456693
        },
        {
          "duration": 0.07894725000000236,
          "durationTicks": 96,
          "midi": 42,
          "name": "F#2",
          "ticks": 28992,
          "time": 23.842069499999997,
          "velocity": 0.14173228346456693
        },
        {
          "duration": 0.07894725000000236,
          "durationTicks": 96,
          "midi": 38,
          "name": "D2",
          "ticks": 28992,
          "time": 23.842069499999997,
          "velocity": 0.14173228346456693
        },
        {
          "duration": 0.07894725000000236,
          "durationTicks": 96,
          "midi": 36,
          "name": "C2",
          "ticks": 28992,
          "time": 23.842069499999997,
          "velocity": 0.14173228346456693
        },
        {
          "duration": 0.0789472499999988,
          "durationTicks": 96,
          "midi": 44,
          "name": "G#2",
          "ticks": 29184,
          "time": 23.999964,
          "velocity": 0.14173228346456693
        },
        {
          "duration": 0.0789472499999988,
          "durationTicks": 96,
          "midi": 42,
          "name": "F#2",
          "ticks": 29184,
          "time": 23.999964,
          "velocity": 0.14173228346456693
        },
        {
          "duration": 0.0789472499999988,
          "durationTicks": 96,
          "midi": 42,
          "name": "F#2",
          "ticks": 29376,
          "time": 24.1578585,
          "velocity": 0.14173228346456693
        },
        {
          "duration": 0.07894725000000236,
          "durationTicks": 96,
          "midi": 36,
          "name": "C2",
          "ticks": 29568,
          "time": 24.315752999999997,
          "velocity": 0.14173228346456693
        },
        {
          "duration": 0.07894725000000236,
          "durationTicks": 96,
          "midi": 38,
          "name": "D2",
          "ticks": 29568,
          "time": 24.315752999999997,
          "velocity": 0.14173228346456693
        },
        {
          "duration": 0.0789472499999988,
          "durationTicks": 96,
          "midi": 44,
          "name": "G#2",
          "ticks": 29760,
          "time": 24.4736475,
          "velocity": 0.14173228346456693
        },
        {
          "duration": 0.0789472499999988,
          "durationTicks": 96,
          "midi": 42,
          "name": "F#2",
          "ticks": 29760,
          "time": 24.4736475,
          "velocity": 0.14173228346456693
        },
        {
          "duration": 0.0789472499999988,
          "durationTicks": 96,
          "midi": 42,
          "name": "F#2",
          "ticks": 29952,
          "time": 24.631542,
          "velocity": 0.14173228346456693
        },
        {
          "duration": 0.0789472499999988,
          "durationTicks": 96,
          "midi": 44,
          "name": "G#2",
          "ticks": 29952,
          "time": 24.631542,
          "velocity": 0.14173228346456693
        },
        {
          "duration": 0.07894725000000236,
          "durationTicks": 96,
          "midi": 36,
          "name": "C2",
          "ticks": 30144,
          "time": 24.789436499999997,
          "velocity": 0.14173228346456693
        },
        {
          "duration": 0.07894725000000236,
          "durationTicks": 96,
          "midi": 44,
          "name": "G#2",
          "ticks": 30144,
          "time": 24.789436499999997,
          "velocity": 0.14173228346456693
        },
        {
          "duration": 0.07894725000000236,
          "durationTicks": 96,
          "midi": 38,
          "name": "D2",
          "ticks": 30144,
          "time": 24.789436499999997,
          "velocity": 0.14173228346456693
        },
        {
          "duration": 0.0789472499999988,
          "durationTicks": 96,
          "midi": 42,
          "name": "F#2",
          "ticks": 30336,
          "time": 24.947331,
          "velocity": 0.14173228346456693
        },
        {
          "duration": 0.0789472499999988,
          "durationTicks": 96,
          "midi": 36,
          "name": "C2",
          "ticks": 30528,
          "time": 25.1052255,
          "velocity": 0.14173228346456693
        },
        {
          "duration": 0.0789472499999988,
          "durationTicks": 96,
          "midi": 38,
          "name": "D2",
          "ticks": 30528,
          "time": 25.1052255,
          "velocity": 0.14173228346456693
        },
        {
          "duration": 0.0789472499999988,
          "durationTicks": 96,
          "midi": 42,
          "name": "F#2",
          "ticks": 30528,
          "time": 25.1052255,
          "velocity": 0.14173228346456693
        },
        {
          "duration": 0.0789472499999988,
          "durationTicks": 96,
          "midi": 42,
          "name": "F#2",
          "ticks": 30720,
          "time": 25.26312,
          "velocity": 0.14173228346456693
        },
        {
          "duration": 0.0789472499999988,
          "durationTicks": 96,
          "midi": 44,
          "name": "G#2",
          "ticks": 30720,
          "time": 25.26312,
          "velocity": 0.14173228346456693
        },
        {
          "duration": 0.07894725000000236,
          "durationTicks": 96,
          "midi": 42,
          "name": "F#2",
          "ticks": 30912,
          "time": 25.4210145,
          "velocity": 0.14173228346456693
        },
        {
          "duration": 0.0789472499999988,
          "durationTicks": 96,
          "midi": 38,
          "name": "D2",
          "ticks": 31104,
          "time": 25.578909,
          "velocity": 0.14173228346456693
        },
        {
          "duration": 0.0789472499999988,
          "durationTicks": 96,
          "midi": 36,
          "name": "C2",
          "ticks": 31104,
          "time": 25.578909,
          "velocity": 0.14173228346456693
        },
        {
          "duration": 0.0789472499999988,
          "durationTicks": 96,
          "midi": 42,
          "name": "F#2",
          "ticks": 31296,
          "time": 25.7368035,
          "velocity": 0.14173228346456693
        },
        {
          "duration": 0.0789472499999988,
          "durationTicks": 96,
          "midi": 44,
          "name": "G#2",
          "ticks": 31296,
          "time": 25.7368035,
          "velocity": 0.14173228346456693
        },
        {
          "duration": 0.07894725000000236,
          "durationTicks": 96,
          "midi": 44,
          "name": "G#2",
          "ticks": 31488,
          "time": 25.894697999999998,
          "velocity": 0.14173228346456693
        },
        {
          "duration": 0.07894725000000236,
          "durationTicks": 96,
          "midi": 42,
          "name": "F#2",
          "ticks": 31488,
          "time": 25.894697999999998,
          "velocity": 0.14173228346456693
        },
        {
          "duration": 0.0789472499999988,
          "durationTicks": 96,
          "midi": 44,
          "name": "G#2",
          "ticks": 31680,
          "time": 26.0525925,
          "velocity": 0.14173228346456693
        },
        {
          "duration": 0.0789472499999988,
          "durationTicks": 96,
          "midi": 38,
          "name": "D2",
          "ticks": 31680,
          "time": 26.0525925,
          "velocity": 0.14173228346456693
        },
        {
          "duration": 0.0789472499999988,
          "durationTicks": 96,
          "midi": 36,
          "name": "C2",
          "ticks": 31680,
          "time": 26.0525925,
          "velocity": 0.14173228346456693
        },
        {
          "duration": 0.0789472499999988,
          "durationTicks": 96,
          "midi": 42,
          "name": "F#2",
          "ticks": 31872,
          "time": 26.210487,
          "velocity": 0.14173228346456693
        },
        {
          "duration": 0.07894725000000236,
          "durationTicks": 96,
          "midi": 38,
          "name": "D2",
          "ticks": 32064,
          "time": 26.368381499999998,
          "velocity": 0.14173228346456693
        },
        {
          "duration": 0.07894725000000236,
          "durationTicks": 96,
          "midi": 36,
          "name": "C2",
          "ticks": 32064,
          "time": 26.368381499999998,
          "velocity": 0.14173228346456693
        },
        {
          "duration": 0.07894725000000236,
          "durationTicks": 96,
          "midi": 42,
          "name": "F#2",
          "ticks": 32064,
          "time": 26.368381499999998,
          "velocity": 0.14173228346456693
        },
        {
          "duration": 0.0789472499999988,
          "durationTicks": 96,
          "midi": 42,
          "name": "F#2",
          "ticks": 32256,
          "time": 26.526276,
          "velocity": 0.14173228346456693
        },
        {
          "duration": 0.0789472499999988,
          "durationTicks": 96,
          "midi": 44,
          "name": "G#2",
          "ticks": 32256,
          "time": 26.526276,
          "velocity": 0.14173228346456693
        },
        {
          "duration": 0.0789472499999988,
          "durationTicks": 96,
          "midi": 42,
          "name": "F#2",
          "ticks": 32448,
          "time": 26.6841705,
          "velocity": 0.14173228346456693
        },
        {
          "duration": 0.07894725000000236,
          "durationTicks": 96,
          "midi": 38,
          "name": "D2",
          "ticks": 32640,
          "time": 26.842064999999998,
          "velocity": 0.14173228346456693
        },
        {
          "duration": 0.07894725000000236,
          "durationTicks": 96,
          "midi": 36,
          "name": "C2",
          "ticks": 32640,
          "time": 26.842064999999998,
          "velocity": 0.14173228346456693
        },
        {
          "duration": 0.0789472499999988,
          "durationTicks": 96,
          "midi": 44,
          "name": "G#2",
          "ticks": 32832,
          "time": 26.9999595,
          "velocity": 0.14173228346456693
        },
        {
          "duration": 0.0789472499999988,
          "durationTicks": 96,
          "midi": 42,
          "name": "F#2",
          "ticks": 32832,
          "time": 26.9999595,
          "velocity": 0.14173228346456693
        },
        {
          "duration": 0.0789472499999988,
          "durationTicks": 96,
          "midi": 42,
          "name": "F#2",
          "ticks": 33024,
          "time": 27.157854,
          "velocity": 0.14173228346456693
        },
        {
          "duration": 0.0789472499999988,
          "durationTicks": 96,
          "midi": 44,
          "name": "G#2",
          "ticks": 33024,
          "time": 27.157854,
          "velocity": 0.14173228346456693
        },
        {
          "duration": 0.07894725000000236,
          "durationTicks": 96,
          "midi": 36,
          "name": "C2",
          "ticks": 33216,
          "time": 27.315748499999998,
          "velocity": 0.14173228346456693
        },
        {
          "duration": 0.07894725000000236,
          "durationTicks": 96,
          "midi": 44,
          "name": "G#2",
          "ticks": 33216,
          "time": 27.315748499999998,
          "velocity": 0.14173228346456693
        },
        {
          "duration": 0.07894725000000236,
          "durationTicks": 96,
          "midi": 38,
          "name": "D2",
          "ticks": 33216,
          "time": 27.315748499999998,
          "velocity": 0.14173228346456693
        },
        {
          "duration": 0.0789472499999988,
          "durationTicks": 96,
          "midi": 42,
          "name": "F#2",
          "ticks": 33408,
          "time": 27.473643,
          "velocity": 0.14173228346456693
        },
        {
          "duration": 0.0789472499999988,
          "durationTicks": 96,
          "midi": 38,
          "name": "D2",
          "ticks": 33600,
          "time": 27.6315375,
          "velocity": 0.14173228346456693
        },
        {
          "duration": 0.0789472499999988,
          "durationTicks": 96,
          "midi": 42,
          "name": "F#2",
          "ticks": 33600,
          "time": 27.6315375,
          "velocity": 0.14173228346456693
        },
        {
          "duration": 0.0789472499999988,
          "durationTicks": 96,
          "midi": 36,
          "name": "C2",
          "ticks": 33600,
          "time": 27.6315375,
          "velocity": 0.14173228346456693
        },
        {
          "duration": 0.07894725000000236,
          "durationTicks": 96,
          "midi": 44,
          "name": "G#2",
          "ticks": 33792,
          "time": 27.789431999999998,
          "velocity": 0.14173228346456693
        },
        {
          "duration": 0.07894725000000236,
          "durationTicks": 96,
          "midi": 42,
          "name": "F#2",
          "ticks": 33792,
          "time": 27.789431999999998,
          "velocity": 0.14173228346456693
        },
        {
          "duration": 0.0789472499999988,
          "durationTicks": 96,
          "midi": 42,
          "name": "F#2",
          "ticks": 33984,
          "time": 27.9473265,
          "velocity": 0.14173228346456693
        },
        {
          "duration": 0.0789472499999988,
          "durationTicks": 96,
          "midi": 36,
          "name": "C2",
          "ticks": 34176,
          "time": 28.105221,
          "velocity": 0.14173228346456693
        },
        {
          "duration": 0.0789472499999988,
          "durationTicks": 96,
          "midi": 38,
          "name": "D2",
          "ticks": 34176,
          "time": 28.105221,
          "velocity": 0.14173228346456693
        },
        {
          "duration": 0.07894725000000236,
          "durationTicks": 96,
          "midi": 44,
          "name": "G#2",
          "ticks": 34368,
          "time": 28.263115499999998,
          "velocity": 0.14173228346456693
        },
        {
          "duration": 0.07894725000000236,
          "durationTicks": 96,
          "midi": 42,
          "name": "F#2",
          "ticks": 34368,
          "time": 28.263115499999998,
          "velocity": 0.14173228346456693
        },
        {
          "duration": 0.0789472499999988,
          "durationTicks": 96,
          "midi": 42,
          "name": "F#2",
          "ticks": 34560,
          "time": 28.42101,
          "velocity": 0.14173228346456693
        },
        {
          "duration": 0.0789472499999988,
          "durationTicks": 96,
          "midi": 44,
          "name": "G#2",
          "ticks": 34560,
          "time": 28.42101,
          "velocity": 0.14173228346456693
        },
        {
          "duration": 0.0789472499999988,
          "durationTicks": 96,
          "midi": 44,
          "name": "G#2",
          "ticks": 34752,
          "time": 28.5789045,
          "velocity": 0.14173228346456693
        },
        {
          "duration": 0.0789472499999988,
          "durationTicks": 96,
          "midi": 36,
          "name": "C2",
          "ticks": 34752,
          "time": 28.5789045,
          "velocity": 0.14173228346456693
        },
        {
          "duration": 0.0789472499999988,
          "durationTicks": 96,
          "midi": 38,
          "name": "D2",
          "ticks": 34752,
          "time": 28.5789045,
          "velocity": 0.14173228346456693
        },
        {
          "duration": 0.07894725000000236,
          "durationTicks": 96,
          "midi": 42,
          "name": "F#2",
          "ticks": 34944,
          "time": 28.736798999999998,
          "velocity": 0.14173228346456693
        },
        {
          "duration": 0.0789472499999988,
          "durationTicks": 96,
          "midi": 36,
          "name": "C2",
          "ticks": 35136,
          "time": 28.8946935,
          "velocity": 0.14173228346456693
        },
        {
          "duration": 0.0789472499999988,
          "durationTicks": 96,
          "midi": 38,
          "name": "D2",
          "ticks": 35136,
          "time": 28.8946935,
          "velocity": 0.14173228346456693
        },
        {
          "duration": 0.0789472499999988,
          "durationTicks": 96,
          "midi": 42,
          "name": "F#2",
          "ticks": 35136,
          "time": 28.8946935,
          "velocity": 0.14173228346456693
        },
        {
          "duration": 0.0789472499999988,
          "durationTicks": 96,
          "midi": 44,
          "name": "G#2",
          "ticks": 35328,
          "time": 29.052588,
          "velocity": 0.14173228346456693
        },
        {
          "duration": 0.0789472499999988,
          "durationTicks": 96,
          "midi": 42,
          "name": "F#2",
          "ticks": 35328,
          "time": 29.052588,
          "velocity": 0.14173228346456693
        },
        {
          "duration": 0.07894725000000236,
          "durationTicks": 96,
          "midi": 42,
          "name": "F#2",
          "ticks": 35520,
          "time": 29.210482499999998,
          "velocity": 0.14173228346456693
        },
        {
          "duration": 0.0789472499999988,
          "durationTicks": 96,
          "midi": 36,
          "name": "C2",
          "ticks": 35712,
          "time": 29.368377,
          "velocity": 0.14173228346456693
        },
        {
          "duration": 0.0789472499999988,
          "durationTicks": 96,
          "midi": 38,
          "name": "D2",
          "ticks": 35712,
          "time": 29.368377,
          "velocity": 0.14173228346456693
        },
        {
          "duration": 0.0789472499999988,
          "durationTicks": 96,
          "midi": 44,
          "name": "G#2",
          "ticks": 35904,
          "time": 29.5262715,
          "velocity": 0.14173228346456693
        },
        {
          "duration": 0.0789472499999988,
          "durationTicks": 96,
          "midi": 42,
          "name": "F#2",
          "ticks": 35904,
          "time": 29.5262715,
          "velocity": 0.14173228346456693
        },
        {
          "duration": 0.07894725000000236,
          "durationTicks": 96,
          "midi": 42,
          "name": "F#2",
          "ticks": 36096,
          "time": 29.684165999999998,
          "velocity": 0.14173228346456693
        },
        {
          "duration": 0.07894725000000236,
          "durationTicks": 96,
          "midi": 44,
          "name": "G#2",
          "ticks": 36096,
          "time": 29.684165999999998,
          "velocity": 0.14173228346456693
        },
        {
          "duration": 0.0789472499999988,
          "durationTicks": 96,
          "midi": 38,
          "name": "D2",
          "ticks": 36288,
          "time": 29.8420605,
          "velocity": 0.14173228346456693
        },
        {
          "duration": 0.0789472499999988,
          "durationTicks": 96,
          "midi": 36,
          "name": "C2",
          "ticks": 36288,
          "time": 29.8420605,
          "velocity": 0.14173228346456693
        },
        {
          "duration": 0.0789472499999988,
          "durationTicks": 96,
          "midi": 44,
          "name": "G#2",
          "ticks": 36288,
          "time": 29.8420605,
          "velocity": 0.14173228346456693
        },
        {
          "duration": 0.0789472499999988,
          "durationTicks": 96,
          "midi": 42,
          "name": "F#2",
          "ticks": 36480,
          "time": 29.999955,
          "velocity": 0.14173228346456693
        },
        {
          "duration": 0.07894725000000236,
          "durationTicks": 96,
          "midi": 38,
          "name": "D2",
          "ticks": 36672,
          "time": 30.157849499999998,
          "velocity": 0.14173228346456693
        },
        {
          "duration": 0.07894725000000236,
          "durationTicks": 96,
          "midi": 42,
          "name": "F#2",
          "ticks": 36672,
          "time": 30.157849499999998,
          "velocity": 0.14173228346456693
        },
        {
          "duration": 0.07894725000000236,
          "durationTicks": 96,
          "midi": 36,
          "name": "C2",
          "ticks": 36672,
          "time": 30.157849499999998,
          "velocity": 0.14173228346456693
        },
        {
          "duration": 0.0789472499999988,
          "durationTicks": 96,
          "midi": 42,
          "name": "F#2",
          "ticks": 36864,
          "time": 30.315744,
          "velocity": 0.14173228346456693
        },
        {
          "duration": 0.0789472499999988,
          "durationTicks": 96,
          "midi": 44,
          "name": "G#2",
          "ticks": 36864,
          "time": 30.315744,
          "velocity": 0.14173228346456693
        },
        {
          "duration": 0.0789472499999988,
          "durationTicks": 96,
          "midi": 42,
          "name": "F#2",
          "ticks": 37056,
          "time": 30.4736385,
          "velocity": 0.14173228346456693
        },
        {
          "duration": 0.07894725000000236,
          "durationTicks": 96,
          "midi": 38,
          "name": "D2",
          "ticks": 37248,
          "time": 30.631532999999997,
          "velocity": 0.14173228346456693
        },
        {
          "duration": 0.07894725000000236,
          "durationTicks": 96,
          "midi": 36,
          "name": "C2",
          "ticks": 37248,
          "time": 30.631532999999997,
          "velocity": 0.14173228346456693
        },
        {
          "duration": 0.0789472499999988,
          "durationTicks": 96,
          "midi": 42,
          "name": "F#2",
          "ticks": 37440,
          "time": 30.7894275,
          "velocity": 0.14173228346456693
        },
        {
          "duration": 0.0789472499999988,
          "durationTicks": 96,
          "midi": 44,
          "name": "G#2",
          "ticks": 37440,
          "time": 30.7894275,
          "velocity": 0.14173228346456693
        },
        {
          "duration": 0.0789472499999988,
          "durationTicks": 96,
          "midi": 42,
          "name": "F#2",
          "ticks": 37632,
          "time": 30.947322,
          "velocity": 0.14173228346456693
        },
        {
          "duration": 0.0789472499999988,
          "durationTicks": 96,
          "midi": 44,
          "name": "G#2",
          "ticks": 37632,
          "time": 30.947322,
          "velocity": 0.14173228346456693
        },
        {
          "duration": 0.07894725000000236,
          "durationTicks": 96,
          "midi": 36,
          "name": "C2",
          "ticks": 37824,
          "time": 31.105216499999997,
          "velocity": 0.14173228346456693
        },
        {
          "duration": 0.07894725000000236,
          "durationTicks": 96,
          "midi": 38,
          "name": "D2",
          "ticks": 37824,
          "time": 31.105216499999997,
          "velocity": 0.14173228346456693
        },
        {
          "duration": 0.07894725000000236,
          "durationTicks": 96,
          "midi": 44,
          "name": "G#2",
          "ticks": 37824,
          "time": 31.105216499999997,
          "velocity": 0.14173228346456693
        },
        {
          "duration": 0.0789472499999988,
          "durationTicks": 96,
          "midi": 42,
          "name": "F#2",
          "ticks": 38016,
          "time": 31.263111,
          "velocity": 0.14173228346456693
        },
        {
          "duration": 0.0789472499999988,
          "durationTicks": 96,
          "midi": 38,
          "name": "D2",
          "ticks": 38208,
          "time": 31.4210055,
          "velocity": 0.14173228346456693
        },
        {
          "duration": 0.0789472499999988,
          "durationTicks": 96,
          "midi": 36,
          "name": "C2",
          "ticks": 38208,
          "time": 31.4210055,
          "velocity": 0.14173228346456693
        },
        {
          "duration": 0.0789472499999988,
          "durationTicks": 96,
          "midi": 42,
          "name": "F#2",
          "ticks": 38208,
          "time": 31.4210055,
          "velocity": 0.14173228346456693
        },
        {
          "duration": 0.07894725000000236,
          "durationTicks": 96,
          "midi": 44,
          "name": "G#2",
          "ticks": 38400,
          "time": 31.578899999999997,
          "velocity": 0.14173228346456693
        },
        {
          "duration": 0.07894725000000236,
          "durationTicks": 96,
          "midi": 42,
          "name": "F#2",
          "ticks": 38400,
          "time": 31.578899999999997,
          "velocity": 0.14173228346456693
        },
        {
          "duration": 0.0789472499999988,
          "durationTicks": 96,
          "midi": 42,
          "name": "F#2",
          "ticks": 38592,
          "time": 31.7367945,
          "velocity": 0.14173228346456693
        },
        {
          "duration": 0.0789472499999988,
          "durationTicks": 96,
          "midi": 36,
          "name": "C2",
          "ticks": 38784,
          "time": 31.894689,
          "velocity": 0.14173228346456693
        },
        {
          "duration": 0.0789472499999988,
          "durationTicks": 96,
          "midi": 38,
          "name": "D2",
          "ticks": 38784,
          "time": 31.894689,
          "velocity": 0.14173228346456693
        },
        {
          "duration": 0.0789472499999988,
          "durationTicks": 96,
          "midi": 42,
          "name": "F#2",
          "ticks": 38976,
          "time": 32.0525835,
          "velocity": 0.14173228346456693
        },
        {
          "duration": 0.0789472499999988,
          "durationTicks": 96,
          "midi": 44,
          "name": "G#2",
          "ticks": 38976,
          "time": 32.0525835,
          "velocity": 0.14173228346456693
        },
        {
          "duration": 0.0789472499999988,
          "durationTicks": 96,
          "midi": 44,
          "name": "G#2",
          "ticks": 39168,
          "time": 32.210478,
          "velocity": 0.14173228346456693
        },
        {
          "duration": 0.0789472499999988,
          "durationTicks": 96,
          "midi": 42,
          "name": "F#2",
          "ticks": 39168,
          "time": 32.210478,
          "velocity": 0.14173228346456693
        },
        {
          "duration": 0.0789472499999988,
          "durationTicks": 96,
          "midi": 44,
          "name": "G#2",
          "ticks": 39360,
          "time": 32.3683725,
          "velocity": 0.14173228346456693
        },
        {
          "duration": 0.0789472499999988,
          "durationTicks": 96,
          "midi": 36,
          "name": "C2",
          "ticks": 39360,
          "time": 32.3683725,
          "velocity": 0.14173228346456693
        },
        {
          "duration": 0.0789472499999988,
          "durationTicks": 96,
          "midi": 38,
          "name": "D2",
          "ticks": 39360,
          "time": 32.3683725,
          "velocity": 0.14173228346456693
        },
        {
          "duration": 0.0789472499999988,
          "durationTicks": 96,
          "midi": 42,
          "name": "F#2",
          "ticks": 39552,
          "time": 32.526267,
          "velocity": 0.14173228346456693
        },
        {
          "duration": 0.0789472499999988,
          "durationTicks": 96,
          "midi": 38,
          "name": "D2",
          "ticks": 39744,
          "time": 32.6841615,
          "velocity": 0.14173228346456693
        },
        {
          "duration": 0.0789472499999988,
          "durationTicks": 96,
          "midi": 42,
          "name": "F#2",
          "ticks": 39744,
          "time": 32.6841615,
          "velocity": 0.14173228346456693
        },
        {
          "duration": 0.0789472499999988,
          "durationTicks": 96,
          "midi": 36,
          "name": "C2",
          "ticks": 39744,
          "time": 32.6841615,
          "velocity": 0.14173228346456693
        },
        {
          "duration": 0.0789472499999988,
          "durationTicks": 96,
          "midi": 44,
          "name": "G#2",
          "ticks": 39936,
          "time": 32.842056,
          "velocity": 0.14173228346456693
        },
        {
          "duration": 0.0789472499999988,
          "durationTicks": 96,
          "midi": 42,
          "name": "F#2",
          "ticks": 39936,
          "time": 32.842056,
          "velocity": 0.14173228346456693
        },
        {
          "duration": 0.0789472499999988,
          "durationTicks": 96,
          "midi": 42,
          "name": "F#2",
          "ticks": 40128,
          "time": 32.9999505,
          "velocity": 0.14173228346456693
        },
        {
          "duration": 0.0789472499999988,
          "durationTicks": 96,
          "midi": 36,
          "name": "C2",
          "ticks": 40320,
          "time": 33.157845,
          "velocity": 0.14173228346456693
        },
        {
          "duration": 0.0789472499999988,
          "durationTicks": 96,
          "midi": 38,
          "name": "D2",
          "ticks": 40320,
          "time": 33.157845,
          "velocity": 0.14173228346456693
        },
        {
          "duration": 0.0789472499999988,
          "durationTicks": 96,
          "midi": 44,
          "name": "G#2",
          "ticks": 40512,
          "time": 33.3157395,
          "velocity": 0.14173228346456693
        },
        {
          "duration": 0.0789472499999988,
          "durationTicks": 96,
          "midi": 42,
          "name": "F#2",
          "ticks": 40512,
          "time": 33.3157395,
          "velocity": 0.14173228346456693
        },
        {
          "duration": 0.0789472499999988,
          "durationTicks": 96,
          "midi": 42,
          "name": "F#2",
          "ticks": 40704,
          "time": 33.473634,
          "velocity": 0.14173228346456693
        },
        {
          "duration": 0.0789472499999988,
          "durationTicks": 96,
          "midi": 44,
          "name": "G#2",
          "ticks": 40704,
          "time": 33.473634,
          "velocity": 0.14173228346456693
        },
        {
          "duration": 0.0789472499999988,
          "durationTicks": 96,
          "midi": 44,
          "name": "G#2",
          "ticks": 40896,
          "time": 33.6315285,
          "velocity": 0.14173228346456693
        },
        {
          "duration": 0.0789472499999988,
          "durationTicks": 96,
          "midi": 38,
          "name": "D2",
          "ticks": 40896,
          "time": 33.6315285,
          "velocity": 0.14173228346456693
        },
        {
          "duration": 0.0789472499999988,
          "durationTicks": 96,
          "midi": 36,
          "name": "C2",
          "ticks": 40896,
          "time": 33.6315285,
          "velocity": 0.14173228346456693
        },
        {
          "duration": 0.0789472499999988,
          "durationTicks": 96,
          "midi": 42,
          "name": "F#2",
          "ticks": 41088,
          "time": 33.789423,
          "velocity": 0.14173228346456693
        },
        {
          "duration": 0.0789472499999988,
          "durationTicks": 96,
          "midi": 36,
          "name": "C2",
          "ticks": 41280,
          "time": 33.9473175,
          "velocity": 0.14173228346456693
        },
        {
          "duration": 0.0789472499999988,
          "durationTicks": 96,
          "midi": 42,
          "name": "F#2",
          "ticks": 41280,
          "time": 33.9473175,
          "velocity": 0.14173228346456693
        },
        {
          "duration": 0.0789472499999988,
          "durationTicks": 96,
          "midi": 38,
          "name": "D2",
          "ticks": 41280,
          "time": 33.9473175,
          "velocity": 0.14173228346456693
        },
        {
          "duration": 0.0789472499999988,
          "durationTicks": 96,
          "midi": 42,
          "name": "F#2",
          "ticks": 41472,
          "time": 34.105212,
          "velocity": 0.14173228346456693
        },
        {
          "duration": 0.0789472499999988,
          "durationTicks": 96,
          "midi": 44,
          "name": "G#2",
          "ticks": 41472,
          "time": 34.105212,
          "velocity": 0.14173228346456693
        },
        {
          "duration": 0.0789472499999988,
          "durationTicks": 96,
          "midi": 42,
          "name": "F#2",
          "ticks": 41664,
          "time": 34.2631065,
          "velocity": 0.14173228346456693
        },
        {
          "duration": 0.0789472499999988,
          "durationTicks": 96,
          "midi": 38,
          "name": "D2",
          "ticks": 41856,
          "time": 34.421001,
          "velocity": 0.14173228346456693
        },
        {
          "duration": 0.0789472499999988,
          "durationTicks": 96,
          "midi": 36,
          "name": "C2",
          "ticks": 41856,
          "time": 34.421001,
          "velocity": 0.14173228346456693
        },
        {
          "duration": 0.0789472499999988,
          "durationTicks": 96,
          "midi": 44,
          "name": "G#2",
          "ticks": 42048,
          "time": 34.5788955,
          "velocity": 0.14173228346456693
        },
        {
          "duration": 0.0789472499999988,
          "durationTicks": 96,
          "midi": 42,
          "name": "F#2",
          "ticks": 42048,
          "time": 34.5788955,
          "velocity": 0.14173228346456693
        },
        {
          "duration": 0.0789472499999988,
          "durationTicks": 96,
          "midi": 44,
          "name": "G#2",
          "ticks": 42240,
          "time": 34.73679,
          "velocity": 0.14173228346456693
        },
        {
          "duration": 0.0789472499999988,
          "durationTicks": 96,
          "midi": 42,
          "name": "F#2",
          "ticks": 42240,
          "time": 34.73679,
          "velocity": 0.14173228346456693
        },
        {
          "duration": 0.0789472499999988,
          "durationTicks": 96,
          "midi": 36,
          "name": "C2",
          "ticks": 42432,
          "time": 34.8946845,
          "velocity": 0.14173228346456693
        },
        {
          "duration": 0.0789472499999988,
          "durationTicks": 96,
          "midi": 44,
          "name": "G#2",
          "ticks": 42432,
          "time": 34.8946845,
          "velocity": 0.14173228346456693
        },
        {
          "duration": 0.0789472499999988,
          "durationTicks": 96,
          "midi": 38,
          "name": "D2",
          "ticks": 42432,
          "time": 34.8946845,
          "velocity": 0.14173228346456693
        },
        {
          "duration": 0.0789472499999988,
          "durationTicks": 96,
          "midi": 42,
          "name": "F#2",
          "ticks": 42624,
          "time": 35.052579,
          "velocity": 0.14173228346456693
        },
        {
          "duration": 0.0789472499999988,
          "durationTicks": 96,
          "midi": 36,
          "name": "C2",
          "ticks": 42816,
          "time": 35.2104735,
          "velocity": 0.14173228346456693
        },
        {
          "duration": 0.0789472499999988,
          "durationTicks": 96,
          "midi": 38,
          "name": "D2",
          "ticks": 42816,
          "time": 35.2104735,
          "velocity": 0.14173228346456693
        },
        {
          "duration": 0.0789472499999988,
          "durationTicks": 96,
          "midi": 42,
          "name": "F#2",
          "ticks": 42816,
          "time": 35.2104735,
          "velocity": 0.14173228346456693
        },
        {
          "duration": 0.0789472499999988,
          "durationTicks": 96,
          "midi": 44,
          "name": "G#2",
          "ticks": 43008,
          "time": 35.368368,
          "velocity": 0.14173228346456693
        },
        {
          "duration": 0.0789472499999988,
          "durationTicks": 96,
          "midi": 42,
          "name": "F#2",
          "ticks": 43008,
          "time": 35.368368,
          "velocity": 0.14173228346456693
        },
        {
          "duration": 0.0789472499999988,
          "durationTicks": 96,
          "midi": 42,
          "name": "F#2",
          "ticks": 43200,
          "time": 35.5262625,
          "velocity": 0.14173228346456693
        },
        {
          "duration": 0.0789472499999988,
          "durationTicks": 96,
          "midi": 36,
          "name": "C2",
          "ticks": 43392,
          "time": 35.684157,
          "velocity": 0.14173228346456693
        },
        {
          "duration": 0.0789472499999988,
          "durationTicks": 96,
          "midi": 38,
          "name": "D2",
          "ticks": 43392,
          "time": 35.684157,
          "velocity": 0.14173228346456693
        },
        {
          "duration": 0.0789472499999988,
          "durationTicks": 96,
          "midi": 44,
          "name": "G#2",
          "ticks": 43584,
          "time": 35.8420515,
          "velocity": 0.14173228346456693
        },
        {
          "duration": 0.0789472499999988,
          "durationTicks": 96,
          "midi": 42,
          "name": "F#2",
          "ticks": 43584,
          "time": 35.8420515,
          "velocity": 0.14173228346456693
        },
        {
          "duration": 0.0789472499999988,
          "durationTicks": 96,
          "midi": 44,
          "name": "G#2",
          "ticks": 43776,
          "time": 35.999946,
          "velocity": 0.14173228346456693
        },
        {
          "duration": 0.0789472499999988,
          "durationTicks": 96,
          "midi": 42,
          "name": "F#2",
          "ticks": 43776,
          "time": 35.999946,
          "velocity": 0.14173228346456693
        },
        {
          "duration": 0.0789472499999988,
          "durationTicks": 96,
          "midi": 36,
          "name": "C2",
          "ticks": 43968,
          "time": 36.1578405,
          "velocity": 0.14173228346456693
        },
        {
          "duration": 0.0789472499999988,
          "durationTicks": 96,
          "midi": 44,
          "name": "G#2",
          "ticks": 43968,
          "time": 36.1578405,
          "velocity": 0.14173228346456693
        },
        {
          "duration": 0.0789472499999988,
          "durationTicks": 96,
          "midi": 38,
          "name": "D2",
          "ticks": 43968,
          "time": 36.1578405,
          "velocity": 0.14173228346456693
        },
        {
          "duration": 0.0789472499999988,
          "durationTicks": 96,
          "midi": 42,
          "name": "F#2",
          "ticks": 44160,
          "time": 36.315735,
          "velocity": 0.14173228346456693
        },
        {
          "duration": 0.0789472499999988,
          "durationTicks": 96,
          "midi": 38,
          "name": "D2",
          "ticks": 44352,
          "time": 36.4736295,
          "velocity": 0.14173228346456693
        },
        {
          "duration": 0.0789472499999988,
          "durationTicks": 96,
          "midi": 42,
          "name": "F#2",
          "ticks": 44352,
          "time": 36.4736295,
          "velocity": 0.14173228346456693
        },
        {
          "duration": 0.0789472499999988,
          "durationTicks": 96,
          "midi": 36,
          "name": "C2",
          "ticks": 44352,
          "time": 36.4736295,
          "velocity": 0.14173228346456693
        },
        {
          "duration": 0.0789472499999988,
          "durationTicks": 96,
          "midi": 44,
          "name": "G#2",
          "ticks": 44544,
          "time": 36.631524,
          "velocity": 0.14173228346456693
        },
        {
          "duration": 0.0789472499999988,
          "durationTicks": 96,
          "midi": 42,
          "name": "F#2",
          "ticks": 44544,
          "time": 36.631524,
          "velocity": 0.14173228346456693
        },
        {
          "duration": 0.0789472499999988,
          "durationTicks": 96,
          "midi": 42,
          "name": "F#2",
          "ticks": 44736,
          "time": 36.7894185,
          "velocity": 0.14173228346456693
        },
        {
          "duration": 0.0789472499999988,
          "durationTicks": 96,
          "midi": 38,
          "name": "D2",
          "ticks": 44928,
          "time": 36.947313,
          "velocity": 0.14173228346456693
        },
        {
          "duration": 0.0789472499999988,
          "durationTicks": 96,
          "midi": 36,
          "name": "C2",
          "ticks": 44928,
          "time": 36.947313,
          "velocity": 0.14173228346456693
        },
        {
          "duration": 0.0789472499999988,
          "durationTicks": 96,
          "midi": 44,
          "name": "G#2",
          "ticks": 45120,
          "time": 37.1052075,
          "velocity": 0.14173228346456693
        },
        {
          "duration": 0.0789472499999988,
          "durationTicks": 96,
          "midi": 42,
          "name": "F#2",
          "ticks": 45120,
          "time": 37.1052075,
          "velocity": 0.14173228346456693
        },
        {
          "duration": 0.0789472499999988,
          "durationTicks": 96,
          "midi": 44,
          "name": "G#2",
          "ticks": 45312,
          "time": 37.263101999999996,
          "velocity": 0.14173228346456693
        },
        {
          "duration": 0.0789472499999988,
          "durationTicks": 96,
          "midi": 42,
          "name": "F#2",
          "ticks": 45312,
          "time": 37.263101999999996,
          "velocity": 0.14173228346456693
        },
        {
          "duration": 0.0789472499999988,
          "durationTicks": 96,
          "midi": 44,
          "name": "G#2",
          "ticks": 45504,
          "time": 37.4209965,
          "velocity": 0.14173228346456693
        },
        {
          "duration": 0.0789472499999988,
          "durationTicks": 96,
          "midi": 38,
          "name": "D2",
          "ticks": 45504,
          "time": 37.4209965,
          "velocity": 0.14173228346456693
        },
        {
          "duration": 0.0789472499999988,
          "durationTicks": 96,
          "midi": 36,
          "name": "C2",
          "ticks": 45504,
          "time": 37.4209965,
          "velocity": 0.14173228346456693
        },
        {
          "duration": 0.0789472499999988,
          "durationTicks": 96,
          "midi": 42,
          "name": "F#2",
          "ticks": 45696,
          "time": 37.578891,
          "velocity": 0.14173228346456693
        },
        {
          "duration": 0.0789472499999988,
          "durationTicks": 96,
          "midi": 36,
          "name": "C2",
          "ticks": 45888,
          "time": 37.736785499999996,
          "velocity": 0.14173228346456693
        },
        {
          "duration": 0.0789472499999988,
          "durationTicks": 96,
          "midi": 38,
          "name": "D2",
          "ticks": 45888,
          "time": 37.736785499999996,
          "velocity": 0.14173228346456693
        },
        {
          "duration": 0.0789472499999988,
          "durationTicks": 96,
          "midi": 42,
          "name": "F#2",
          "ticks": 45888,
          "time": 37.736785499999996,
          "velocity": 0.14173228346456693
        },
        {
          "duration": 0.0789472499999988,
          "durationTicks": 96,
          "midi": 42,
          "name": "F#2",
          "ticks": 46080,
          "time": 37.89468,
          "velocity": 0.14173228346456693
        },
        {
          "duration": 0.0789472499999988,
          "durationTicks": 96,
          "midi": 44,
          "name": "G#2",
          "ticks": 46080,
          "time": 37.89468,
          "velocity": 0.14173228346456693
        },
        {
          "duration": 0.0789472499999988,
          "durationTicks": 96,
          "midi": 42,
          "name": "F#2",
          "ticks": 46272,
          "time": 38.0525745,
          "velocity": 0.14173228346456693
        },
        {
          "duration": 0.0789472499999988,
          "durationTicks": 96,
          "midi": 36,
          "name": "C2",
          "ticks": 46464,
          "time": 38.210468999999996,
          "velocity": 0.14173228346456693
        },
        {
          "duration": 0.0789472499999988,
          "durationTicks": 96,
          "midi": 38,
          "name": "D2",
          "ticks": 46464,
          "time": 38.210468999999996,
          "velocity": 0.14173228346456693
        },
        {
          "duration": 0.0789472499999988,
          "durationTicks": 96,
          "midi": 44,
          "name": "G#2",
          "ticks": 46656,
          "time": 38.3683635,
          "velocity": 0.14173228346456693
        },
        {
          "duration": 0.0789472499999988,
          "durationTicks": 96,
          "midi": 42,
          "name": "F#2",
          "ticks": 46656,
          "time": 38.3683635,
          "velocity": 0.14173228346456693
        },
        {
          "duration": 0.0789472499999988,
          "durationTicks": 96,
          "midi": 42,
          "name": "F#2",
          "ticks": 46848,
          "time": 38.526258,
          "velocity": 0.14173228346456693
        },
        {
          "duration": 0.0789472499999988,
          "durationTicks": 96,
          "midi": 44,
          "name": "G#2",
          "ticks": 46848,
          "time": 38.526258,
          "velocity": 0.14173228346456693
        },
        {
          "duration": 0.0789472499999988,
          "durationTicks": 96,
          "midi": 38,
          "name": "D2",
          "ticks": 47040,
          "time": 38.684152499999996,
          "velocity": 0.14173228346456693
        },
        {
          "duration": 0.0789472499999988,
          "durationTicks": 96,
          "midi": 44,
          "name": "G#2",
          "ticks": 47040,
          "time": 38.684152499999996,
          "velocity": 0.14173228346456693
        },
        {
          "duration": 0.0789472499999988,
          "durationTicks": 96,
          "midi": 36,
          "name": "C2",
          "ticks": 47040,
          "time": 38.684152499999996,
          "velocity": 0.14173228346456693
        },
        {
          "duration": 0.0789472499999988,
          "durationTicks": 96,
          "midi": 42,
          "name": "F#2",
          "ticks": 47232,
          "time": 38.842047,
          "velocity": 0.14173228346456693
        },
        {
          "duration": 0.0789472499999988,
          "durationTicks": 96,
          "midi": 38,
          "name": "D2",
          "ticks": 47424,
          "time": 38.9999415,
          "velocity": 0.14173228346456693
        },
        {
          "duration": 0.0789472499999988,
          "durationTicks": 96,
          "midi": 36,
          "name": "C2",
          "ticks": 47424,
          "time": 38.9999415,
          "velocity": 0.14173228346456693
        },
        {
          "duration": 0.0789472499999988,
          "durationTicks": 96,
          "midi": 42,
          "name": "F#2",
          "ticks": 47424,
          "time": 38.9999415,
          "velocity": 0.14173228346456693
        },
        {
          "duration": 0.0789472499999988,
          "durationTicks": 96,
          "midi": 44,
          "name": "G#2",
          "ticks": 47616,
          "time": 39.157835999999996,
          "velocity": 0.14173228346456693
        },
        {
          "duration": 0.0789472499999988,
          "durationTicks": 96,
          "midi": 42,
          "name": "F#2",
          "ticks": 47616,
          "time": 39.157835999999996,
          "velocity": 0.14173228346456693
        },
        {
          "duration": 0.0789472499999988,
          "durationTicks": 96,
          "midi": 42,
          "name": "F#2",
          "ticks": 47808,
          "time": 39.3157305,
          "velocity": 0.14173228346456693
        },
        {
          "duration": 0.0789472499999988,
          "durationTicks": 96,
          "midi": 36,
          "name": "C2",
          "ticks": 48000,
          "time": 39.473625,
          "velocity": 0.14173228346456693
        },
        {
          "duration": 0.0789472499999988,
          "durationTicks": 96,
          "midi": 38,
          "name": "D2",
          "ticks": 48000,
          "time": 39.473625,
          "velocity": 0.14173228346456693
        },
        {
          "duration": 0.0789472499999988,
          "durationTicks": 96,
          "midi": 44,
          "name": "G#2",
          "ticks": 48192,
          "time": 39.631519499999996,
          "velocity": 0.14173228346456693
        },
        {
          "duration": 0.0789472499999988,
          "durationTicks": 96,
          "midi": 42,
          "name": "F#2",
          "ticks": 48192,
          "time": 39.631519499999996,
          "velocity": 0.14173228346456693
        },
        {
          "duration": 0.0789472499999988,
          "durationTicks": 96,
          "midi": 44,
          "name": "G#2",
          "ticks": 48384,
          "time": 39.789414,
          "velocity": 0.14173228346456693
        },
        {
          "duration": 0.0789472499999988,
          "durationTicks": 96,
          "midi": 42,
          "name": "F#2",
          "ticks": 48384,
          "time": 39.789414,
          "velocity": 0.14173228346456693
        },
        {
          "duration": 0.0789472499999988,
          "durationTicks": 96,
          "midi": 44,
          "name": "G#2",
          "ticks": 48576,
          "time": 39.9473085,
          "velocity": 0.14173228346456693
        },
        {
          "duration": 0.0789472499999988,
          "durationTicks": 96,
          "midi": 38,
          "name": "D2",
          "ticks": 48576,
          "time": 39.9473085,
          "velocity": 0.14173228346456693
        },
        {
          "duration": 0.0789472499999988,
          "durationTicks": 96,
          "midi": 36,
          "name": "C2",
          "ticks": 48576,
          "time": 39.9473085,
          "velocity": 0.14173228346456693
        },
        {
          "duration": 0.0789472499999988,
          "durationTicks": 96,
          "midi": 42,
          "name": "F#2",
          "ticks": 48768,
          "time": 40.105202999999996,
          "velocity": 0.14173228346456693
        },
        {
          "duration": 0.0789472499999988,
          "durationTicks": 96,
          "midi": 42,
          "name": "F#2",
          "ticks": 48960,
          "time": 40.2630975,
          "velocity": 0.14173228346456693
        },
        {
          "duration": 0.0789472499999988,
          "durationTicks": 96,
          "midi": 36,
          "name": "C2",
          "ticks": 48960,
          "time": 40.2630975,
          "velocity": 0.14173228346456693
        },
        {
          "duration": 0.0789472499999988,
          "durationTicks": 96,
          "midi": 38,
          "name": "D2",
          "ticks": 48960,
          "time": 40.2630975,
          "velocity": 0.14173228346456693
        },
        {
          "duration": 0.0789472499999988,
          "durationTicks": 96,
          "midi": 44,
          "name": "G#2",
          "ticks": 49152,
          "time": 40.420992,
          "velocity": 0.14173228346456693
        },
        {
          "duration": 0.0789472499999988,
          "durationTicks": 96,
          "midi": 42,
          "name": "F#2",
          "ticks": 49152,
          "time": 40.420992,
          "velocity": 0.14173228346456693
        },
        {
          "duration": 0.07894725000000591,
          "durationTicks": 96,
          "midi": 42,
          "name": "F#2",
          "ticks": 49344,
          "time": 40.578886499999996,
          "velocity": 0.14173228346456693
        },
        {
          "duration": 0.0789472499999988,
          "durationTicks": 96,
          "midi": 36,
          "name": "C2",
          "ticks": 49536,
          "time": 40.736781,
          "velocity": 0.14173228346456693
        },
        {
          "duration": 0.0789472499999988,
          "durationTicks": 96,
          "midi": 38,
          "name": "D2",
          "ticks": 49536,
          "time": 40.736781,
          "velocity": 0.14173228346456693
        },
        {
          "duration": 0.0789472499999988,
          "durationTicks": 96,
          "midi": 44,
          "name": "G#2",
          "ticks": 49728,
          "time": 40.8946755,
          "velocity": 0.14173228346456693
        },
        {
          "duration": 0.0789472499999988,
          "durationTicks": 96,
          "midi": 42,
          "name": "F#2",
          "ticks": 49728,
          "time": 40.8946755,
          "velocity": 0.14173228346456693
        },
        {
          "duration": 0.07894725000000591,
          "durationTicks": 96,
          "midi": 42,
          "name": "F#2",
          "ticks": 49920,
          "time": 41.052569999999996,
          "velocity": 0.14173228346456693
        },
        {
          "duration": 0.07894725000000591,
          "durationTicks": 96,
          "midi": 44,
          "name": "G#2",
          "ticks": 49920,
          "time": 41.052569999999996,
          "velocity": 0.14173228346456693
        },
        {
          "duration": 0.0789472499999988,
          "durationTicks": 96,
          "midi": 38,
          "name": "D2",
          "ticks": 50112,
          "time": 41.2104645,
          "velocity": 0.14173228346456693
        },
        {
          "duration": 0.0789472499999988,
          "durationTicks": 96,
          "midi": 36,
          "name": "C2",
          "ticks": 50112,
          "time": 41.2104645,
          "velocity": 0.14173228346456693
        },
        {
          "duration": 0.0789472499999988,
          "durationTicks": 96,
          "midi": 44,
          "name": "G#2",
          "ticks": 50112,
          "time": 41.2104645,
          "velocity": 0.14173228346456693
        },
        {
          "duration": 0.0789472499999988,
          "durationTicks": 96,
          "midi": 42,
          "name": "F#2",
          "ticks": 50304,
          "time": 41.368359,
          "velocity": 0.14173228346456693
        },
        {
          "duration": 0.07894725000000591,
          "durationTicks": 96,
          "midi": 38,
          "name": "D2",
          "ticks": 50496,
          "time": 41.526253499999996,
          "velocity": 0.14173228346456693
        },
        {
          "duration": 0.07894725000000591,
          "durationTicks": 96,
          "midi": 42,
          "name": "F#2",
          "ticks": 50496,
          "time": 41.526253499999996,
          "velocity": 0.14173228346456693
        },
        {
          "duration": 0.07894725000000591,
          "durationTicks": 96,
          "midi": 36,
          "name": "C2",
          "ticks": 50496,
          "time": 41.526253499999996,
          "velocity": 0.14173228346456693
        },
        {
          "duration": 0.0789472499999988,
          "durationTicks": 96,
          "midi": 42,
          "name": "F#2",
          "ticks": 50688,
          "time": 41.684148,
          "velocity": 0.14173228346456693
        },
        {
          "duration": 0.0789472499999988,
          "durationTicks": 96,
          "midi": 44,
          "name": "G#2",
          "ticks": 50688,
          "time": 41.684148,
          "velocity": 0.14173228346456693
        },
        {
          "duration": 0.0789472499999988,
          "durationTicks": 96,
          "midi": 42,
          "name": "F#2",
          "ticks": 50880,
          "time": 41.8420425,
          "velocity": 0.14173228346456693
        },
        {
          "duration": 0.07894725000000591,
          "durationTicks": 96,
          "midi": 36,
          "name": "C2",
          "ticks": 51072,
          "time": 41.999936999999996,
          "velocity": 0.14173228346456693
        },
        {
          "duration": 0.07894725000000591,
          "durationTicks": 96,
          "midi": 38,
          "name": "D2",
          "ticks": 51072,
          "time": 41.999936999999996,
          "velocity": 0.14173228346456693
        },
        {
          "duration": 0.0789472499999988,
          "durationTicks": 96,
          "midi": 44,
          "name": "G#2",
          "ticks": 51264,
          "time": 42.1578315,
          "velocity": 0.14173228346456693
        },
        {
          "duration": 0.0789472499999988,
          "durationTicks": 96,
          "midi": 42,
          "name": "F#2",
          "ticks": 51264,
          "time": 42.1578315,
          "velocity": 0.14173228346456693
        },
        {
          "duration": 0.0789472499999988,
          "durationTicks": 96,
          "midi": 42,
          "name": "F#2",
          "ticks": 51456,
          "time": 42.315726,
          "velocity": 0.14173228346456693
        },
        {
          "duration": 0.0789472499999988,
          "durationTicks": 96,
          "midi": 44,
          "name": "G#2",
          "ticks": 51456,
          "time": 42.315726,
          "velocity": 0.14173228346456693
        },
        {
          "duration": 0.07894725000000591,
          "durationTicks": 96,
          "midi": 44,
          "name": "G#2",
          "ticks": 51648,
          "time": 42.473620499999996,
          "velocity": 0.14173228346456693
        },
        {
          "duration": 0.07894725000000591,
          "durationTicks": 96,
          "midi": 36,
          "name": "C2",
          "ticks": 51648,
          "time": 42.473620499999996,
          "velocity": 0.14173228346456693
        },
        {
          "duration": 0.07894725000000591,
          "durationTicks": 96,
          "midi": 38,
          "name": "D2",
          "ticks": 51648,
          "time": 42.473620499999996,
          "velocity": 0.14173228346456693
        },
        {
          "duration": 0.0789472499999988,
          "durationTicks": 96,
          "midi": 42,
          "name": "F#2",
          "ticks": 51840,
          "time": 42.631515,
          "velocity": 0.14173228346456693
        },
        {
          "duration": 0.0789472499999988,
          "durationTicks": 96,
          "midi": 42,
          "name": "F#2",
          "ticks": 52032,
          "time": 42.7894095,
          "velocity": 0.14173228346456693
        },
        {
          "duration": 0.0789472499999988,
          "durationTicks": 96,
          "midi": 36,
          "name": "C2",
          "ticks": 52032,
          "time": 42.7894095,
          "velocity": 0.14173228346456693
        },
        {
          "duration": 0.0789472499999988,
          "durationTicks": 96,
          "midi": 38,
          "name": "D2",
          "ticks": 52032,
          "time": 42.7894095,
          "velocity": 0.14173228346456693
        },
        {
          "duration": 0.07894725000000591,
          "durationTicks": 96,
          "midi": 44,
          "name": "G#2",
          "ticks": 52224,
          "time": 42.947303999999995,
          "velocity": 0.14173228346456693
        },
        {
          "duration": 0.07894725000000591,
          "durationTicks": 96,
          "midi": 42,
          "name": "F#2",
          "ticks": 52224,
          "time": 42.947303999999995,
          "velocity": 0.14173228346456693
        },
        {
          "duration": 0.0789472499999988,
          "durationTicks": 96,
          "midi": 42,
          "name": "F#2",
          "ticks": 52416,
          "time": 43.1051985,
          "velocity": 0.14173228346456693
        },
        {
          "duration": 0.0789472499999988,
          "durationTicks": 96,
          "midi": 38,
          "name": "D2",
          "ticks": 52608,
          "time": 43.263093,
          "velocity": 0.14173228346456693
        },
        {
          "duration": 0.0789472499999988,
          "durationTicks": 96,
          "midi": 36,
          "name": "C2",
          "ticks": 52608,
          "time": 43.263093,
          "velocity": 0.14173228346456693
        },
        {
          "duration": 0.07894725000000591,
          "durationTicks": 96,
          "midi": 44,
          "name": "G#2",
          "ticks": 52800,
          "time": 43.420987499999995,
          "velocity": 0.14173228346456693
        },
        {
          "duration": 0.07894725000000591,
          "durationTicks": 96,
          "midi": 42,
          "name": "F#2",
          "ticks": 52800,
          "time": 43.420987499999995,
          "velocity": 0.14173228346456693
        },
        {
          "duration": 0.0789472499999988,
          "durationTicks": 96,
          "midi": 42,
          "name": "F#2",
          "ticks": 52992,
          "time": 43.578882,
          "velocity": 0.14173228346456693
        },
        {
          "duration": 0.0789472499999988,
          "durationTicks": 96,
          "midi": 44,
          "name": "G#2",
          "ticks": 52992,
          "time": 43.578882,
          "velocity": 0.14173228346456693
        },
        {
          "duration": 0.0789472499999988,
          "durationTicks": 96,
          "midi": 38,
          "name": "D2",
          "ticks": 53184,
          "time": 43.7367765,
          "velocity": 0.14173228346456693
        },
        {
          "duration": 0.0789472499999988,
          "durationTicks": 96,
          "midi": 36,
          "name": "C2",
          "ticks": 53184,
          "time": 43.7367765,
          "velocity": 0.14173228346456693
        },
        {
          "duration": 0.0789472499999988,
          "durationTicks": 96,
          "midi": 44,
          "name": "G#2",
          "ticks": 53184,
          "time": 43.7367765,
          "velocity": 0.14173228346456693
        },
        {
          "duration": 0.07894725000000591,
          "durationTicks": 96,
          "midi": 42,
          "name": "F#2",
          "ticks": 53376,
          "time": 43.894670999999995,
          "velocity": 0.14173228346456693
        },
        {
          "duration": 0.0789472499999988,
          "durationTicks": 96,
          "midi": 38,
          "name": "D2",
          "ticks": 53568,
          "time": 44.0525655,
          "velocity": 0.14173228346456693
        },
        {
          "duration": 0.0789472499999988,
          "durationTicks": 96,
          "midi": 36,
          "name": "C2",
          "ticks": 53568,
          "time": 44.0525655,
          "velocity": 0.14173228346456693
        },
        {
          "duration": 0.0789472499999988,
          "durationTicks": 96,
          "midi": 42,
          "name": "F#2",
          "ticks": 53568,
          "time": 44.0525655,
          "velocity": 0.14173228346456693
        },
        {
          "duration": 0.0789472499999988,
          "durationTicks": 96,
          "midi": 42,
          "name": "F#2",
          "ticks": 53760,
          "time": 44.21046,
          "velocity": 0.14173228346456693
        },
        {
          "duration": 0.0789472499999988,
          "durationTicks": 96,
          "midi": 44,
          "name": "G#2",
          "ticks": 53760,
          "time": 44.21046,
          "velocity": 0.14173228346456693
        },
        {
          "duration": 0.07894725000000591,
          "durationTicks": 96,
          "midi": 42,
          "name": "F#2",
          "ticks": 53952,
          "time": 44.368354499999995,
          "velocity": 0.14173228346456693
        },
        {
          "duration": 0.0789472499999988,
          "durationTicks": 96,
          "midi": 38,
          "name": "D2",
          "ticks": 54144,
          "time": 44.526249,
          "velocity": 0.14173228346456693
        },
        {
          "duration": 0.0789472499999988,
          "durationTicks": 96,
          "midi": 36,
          "name": "C2",
          "ticks": 54144,
          "time": 44.526249,
          "velocity": 0.14173228346456693
        },
        {
          "duration": 0.0789472499999988,
          "durationTicks": 96,
          "midi": 44,
          "name": "G#2",
          "ticks": 54336,
          "time": 44.6841435,
          "velocity": 0.14173228346456693
        },
        {
          "duration": 0.0789472499999988,
          "durationTicks": 96,
          "midi": 42,
          "name": "F#2",
          "ticks": 54336,
          "time": 44.6841435,
          "velocity": 0.14173228346456693
        },
        {
          "duration": 0.07894725000000591,
          "durationTicks": 96,
          "midi": 44,
          "name": "G#2",
          "ticks": 54528,
          "time": 44.842037999999995,
          "velocity": 0.14173228346456693
        },
        {
          "duration": 0.07894725000000591,
          "durationTicks": 96,
          "midi": 42,
          "name": "F#2",
          "ticks": 54528,
          "time": 44.842037999999995,
          "velocity": 0.14173228346456693
        },
        {
          "duration": 0.0789472499999988,
          "durationTicks": 96,
          "midi": 44,
          "name": "G#2",
          "ticks": 54720,
          "time": 44.9999325,
          "velocity": 0.14173228346456693
        },
        {
          "duration": 0.0789472499999988,
          "durationTicks": 96,
          "midi": 36,
          "name": "C2",
          "ticks": 54720,
          "time": 44.9999325,
          "velocity": 0.14173228346456693
        },
        {
          "duration": 0.0789472499999988,
          "durationTicks": 96,
          "midi": 38,
          "name": "D2",
          "ticks": 54720,
          "time": 44.9999325,
          "velocity": 0.14173228346456693
        },
        {
          "duration": 0.0789472499999988,
          "durationTicks": 96,
          "midi": 42,
          "name": "F#2",
          "ticks": 54912,
          "time": 45.157827,
          "velocity": 0.14173228346456693
        },
        {
          "duration": 0.07894725000000591,
          "durationTicks": 96,
          "midi": 38,
          "name": "D2",
          "ticks": 55104,
          "time": 45.315721499999995,
          "velocity": 0.14173228346456693
        },
        {
          "duration": 0.07894725000000591,
          "durationTicks": 96,
          "midi": 42,
          "name": "F#2",
          "ticks": 55104,
          "time": 45.315721499999995,
          "velocity": 0.14173228346456693
        },
        {
          "duration": 0.07894725000000591,
          "durationTicks": 96,
          "midi": 36,
          "name": "C2",
          "ticks": 55104,
          "time": 45.315721499999995,
          "velocity": 0.14173228346456693
        },
        {
          "duration": 0.0789472499999988,
          "durationTicks": 96,
          "midi": 44,
          "name": "G#2",
          "ticks": 55296,
          "time": 45.473616,
          "velocity": 0.14173228346456693
        },
        {
          "duration": 0.0789472499999988,
          "durationTicks": 96,
          "midi": 42,
          "name": "F#2",
          "ticks": 55296,
          "time": 45.473616,
          "velocity": 0.14173228346456693
        },
        {
          "duration": 0.0789472499999988,
          "durationTicks": 96,
          "midi": 42,
          "name": "F#2",
          "ticks": 55488,
          "time": 45.6315105,
          "velocity": 0.14173228346456693
        },
        {
          "duration": 0.07894725000000591,
          "durationTicks": 96,
          "midi": 36,
          "name": "C2",
          "ticks": 55680,
          "time": 45.789404999999995,
          "velocity": 0.14173228346456693
        },
        {
          "duration": 0.07894725000000591,
          "durationTicks": 96,
          "midi": 38,
          "name": "D2",
          "ticks": 55680,
          "time": 45.789404999999995,
          "velocity": 0.14173228346456693
        },
        {
          "duration": 0.0789472499999988,
          "durationTicks": 96,
          "midi": 44,
          "name": "G#2",
          "ticks": 55872,
          "time": 45.9472995,
          "velocity": 0.14173228346456693
        },
        {
          "duration": 0.0789472499999988,
          "durationTicks": 96,
          "midi": 42,
          "name": "F#2",
          "ticks": 55872,
          "time": 45.9472995,
          "velocity": 0.14173228346456693
        },
        {
          "duration": 0.0789472499999988,
          "durationTicks": 96,
          "midi": 44,
          "name": "G#2",
          "ticks": 56064,
          "time": 46.105194,
          "velocity": 0.14173228346456693
        },
        {
          "duration": 0.0789472499999988,
          "durationTicks": 96,
          "midi": 42,
          "name": "F#2",
          "ticks": 56064,
          "time": 46.105194,
          "velocity": 0.14173228346456693
        },
        {
          "duration": 0.07894725000000591,
          "durationTicks": 96,
          "midi": 44,
          "name": "G#2",
          "ticks": 56256,
          "time": 46.263088499999995,
          "velocity": 0.14173228346456693
        },
        {
          "duration": 0.07894725000000591,
          "durationTicks": 96,
          "midi": 36,
          "name": "C2",
          "ticks": 56256,
          "time": 46.263088499999995,
          "velocity": 0.14173228346456693
        },
        {
          "duration": 0.07894725000000591,
          "durationTicks": 96,
          "midi": 38,
          "name": "D2",
          "ticks": 56256,
          "time": 46.263088499999995,
          "velocity": 0.14173228346456693
        },
        {
          "duration": 0.0789472499999988,
          "durationTicks": 96,
          "midi": 42,
          "name": "F#2",
          "ticks": 56448,
          "time": 46.420983,
          "velocity": 0.14173228346456693
        },
        {
          "duration": 0.0789472499999988,
          "durationTicks": 96,
          "midi": 38,
          "name": "D2",
          "ticks": 56640,
          "time": 46.5788775,
          "velocity": 0.14173228346456693
        },
        {
          "duration": 0.0789472499999988,
          "durationTicks": 96,
          "midi": 42,
          "name": "F#2",
          "ticks": 56640,
          "time": 46.5788775,
          "velocity": 0.14173228346456693
        },
        {
          "duration": 0.0789472499999988,
          "durationTicks": 96,
          "midi": 36,
          "name": "C2",
          "ticks": 56640,
          "time": 46.5788775,
          "velocity": 0.14173228346456693
        },
        {
          "duration": 0.07894725000000591,
          "durationTicks": 96,
          "midi": 44,
          "name": "G#2",
          "ticks": 56832,
          "time": 46.736771999999995,
          "velocity": 0.14173228346456693
        },
        {
          "duration": 0.07894725000000591,
          "durationTicks": 96,
          "midi": 42,
          "name": "F#2",
          "ticks": 56832,
          "time": 46.736771999999995,
          "velocity": 0.14173228346456693
        },
        {
          "duration": 0.0789472499999988,
          "durationTicks": 96,
          "midi": 42,
          "name": "F#2",
          "ticks": 57024,
          "time": 46.8946665,
          "velocity": 0.14173228346456693
        },
        {
          "duration": 0.0789472499999988,
          "durationTicks": 96,
          "midi": 36,
          "name": "C2",
          "ticks": 57216,
          "time": 47.052561,
          "velocity": 0.14173228346456693
        },
        {
          "duration": 0.0789472499999988,
          "durationTicks": 96,
          "midi": 38,
          "name": "D2",
          "ticks": 57216,
          "time": 47.052561,
          "velocity": 0.14173228346456693
        },
        {
          "duration": 0.07894725000000591,
          "durationTicks": 96,
          "midi": 42,
          "name": "F#2",
          "ticks": 57408,
          "time": 47.210455499999995,
          "velocity": 0.14173228346456693
        },
        {
          "duration": 0.07894725000000591,
          "durationTicks": 96,
          "midi": 44,
          "name": "G#2",
          "ticks": 57408,
          "time": 47.210455499999995,
          "velocity": 0.14173228346456693
        },
        {
          "duration": 0.0789472499999988,
          "durationTicks": 96,
          "midi": 42,
          "name": "F#2",
          "ticks": 57600,
          "time": 47.36835,
          "velocity": 0.14173228346456693
        },
        {
          "duration": 0.0789472499999988,
          "durationTicks": 96,
          "midi": 44,
          "name": "G#2",
          "ticks": 57600,
          "time": 47.36835,
          "velocity": 0.14173228346456693
        },
        {
          "duration": 0.0789472499999988,
          "durationTicks": 96,
          "midi": 38,
          "name": "D2",
          "ticks": 57792,
          "time": 47.5262445,
          "velocity": 0.14173228346456693
        },
        {
          "duration": 0.0789472499999988,
          "durationTicks": 96,
          "midi": 44,
          "name": "G#2",
          "ticks": 57792,
          "time": 47.5262445,
          "velocity": 0.14173228346456693
        },
        {
          "duration": 0.0789472499999988,
          "durationTicks": 96,
          "midi": 36,
          "name": "C2",
          "ticks": 57792,
          "time": 47.5262445,
          "velocity": 0.14173228346456693
        },
        {
          "duration": 0.07894725000000591,
          "durationTicks": 96,
          "midi": 42,
          "name": "F#2",
          "ticks": 57984,
          "time": 47.684138999999995,
          "velocity": 0.14173228346456693
        },
        {
          "duration": 0.0789472499999988,
          "durationTicks": 96,
          "midi": 36,
          "name": "C2",
          "ticks": 58176,
          "time": 47.8420335,
          "velocity": 0.14173228346456693
        },
        {
          "duration": 0.0789472499999988,
          "durationTicks": 96,
          "midi": 38,
          "name": "D2",
          "ticks": 58176,
          "time": 47.8420335,
          "velocity": 0.14173228346456693
        },
        {
          "duration": 0.0789472499999988,
          "durationTicks": 96,
          "midi": 42,
          "name": "F#2",
          "ticks": 58176,
          "time": 47.8420335,
          "velocity": 0.14173228346456693
        },
        {
          "duration": 0.0789472499999988,
          "durationTicks": 96,
          "midi": 44,
          "name": "G#2",
          "ticks": 58368,
          "time": 47.999928,
          "velocity": 0.14173228346456693
        },
        {
          "duration": 0.0789472499999988,
          "durationTicks": 96,
          "midi": 42,
          "name": "F#2",
          "ticks": 58368,
          "time": 47.999928,
          "velocity": 0.14173228346456693
        },
        {
          "duration": 0.07894725000000591,
          "durationTicks": 96,
          "midi": 42,
          "name": "F#2",
          "ticks": 58560,
          "time": 48.157822499999995,
          "velocity": 0.14173228346456693
        },
        {
          "duration": 0.0789472499999988,
          "durationTicks": 96,
          "midi": 38,
          "name": "D2",
          "ticks": 58752,
          "time": 48.315717,
          "velocity": 0.14173228346456693
        },
        {
          "duration": 0.0789472499999988,
          "durationTicks": 96,
          "midi": 36,
          "name": "C2",
          "ticks": 58752,
          "time": 48.315717,
          "velocity": 0.14173228346456693
        },
        {
          "duration": 0.0789472499999988,
          "durationTicks": 96,
          "midi": 44,
          "name": "G#2",
          "ticks": 58944,
          "time": 48.4736115,
          "velocity": 0.14173228346456693
        },
        {
          "duration": 0.0789472499999988,
          "durationTicks": 96,
          "midi": 42,
          "name": "F#2",
          "ticks": 58944,
          "time": 48.4736115,
          "velocity": 0.14173228346456693
        },
        {
          "duration": 0.07894725000000591,
          "durationTicks": 96,
          "midi": 42,
          "name": "F#2",
          "ticks": 59136,
          "time": 48.631505999999995,
          "velocity": 0.14173228346456693
        },
        {
          "duration": 0.07894725000000591,
          "durationTicks": 96,
          "midi": 44,
          "name": "G#2",
          "ticks": 59136,
          "time": 48.631505999999995,
          "velocity": 0.14173228346456693
        },
        {
          "duration": 0.0789472499999988,
          "durationTicks": 96,
          "midi": 44,
          "name": "G#2",
          "ticks": 59328,
          "time": 48.7894005,
          "velocity": 0.14173228346456693
        },
        {
          "duration": 0.0789472499999988,
          "durationTicks": 96,
          "midi": 36,
          "name": "C2",
          "ticks": 59328,
          "time": 48.7894005,
          "velocity": 0.14173228346456693
        },
        {
          "duration": 0.0789472499999988,
          "durationTicks": 96,
          "midi": 38,
          "name": "D2",
          "ticks": 59328,
          "time": 48.7894005,
          "velocity": 0.14173228346456693
        },
        {
          "duration": 0.0789472499999988,
          "durationTicks": 96,
          "midi": 42,
          "name": "F#2",
          "ticks": 59520,
          "time": 48.947295,
          "velocity": 0.14173228346456693
        },
        {
          "duration": 0.07894725000000591,
          "durationTicks": 96,
          "midi": 38,
          "name": "D2",
          "ticks": 59712,
          "time": 49.105189499999994,
          "velocity": 0.14173228346456693
        },
        {
          "duration": 0.07894725000000591,
          "durationTicks": 96,
          "midi": 36,
          "name": "C2",
          "ticks": 59712,
          "time": 49.105189499999994,
          "velocity": 0.14173228346456693
        },
        {
          "duration": 0.07894725000000591,
          "durationTicks": 96,
          "midi": 42,
          "name": "F#2",
          "ticks": 59712,
          "time": 49.105189499999994,
          "velocity": 0.14173228346456693
        },
        {
          "duration": 0.0789472499999988,
          "durationTicks": 96,
          "midi": 44,
          "name": "G#2",
          "ticks": 59904,
          "time": 49.263084,
          "velocity": 0.14173228346456693
        },
        {
          "duration": 0.0789472499999988,
          "durationTicks": 96,
          "midi": 42,
          "name": "F#2",
          "ticks": 59904,
          "time": 49.263084,
          "velocity": 0.14173228346456693
        },
        {
          "duration": 0.0789472499999988,
          "durationTicks": 96,
          "midi": 42,
          "name": "F#2",
          "ticks": 60096,
          "time": 49.4209785,
          "velocity": 0.14173228346456693
        },
        {
          "duration": 0.07894725000000591,
          "durationTicks": 96,
          "midi": 38,
          "name": "D2",
          "ticks": 60288,
          "time": 49.578872999999994,
          "velocity": 0.14173228346456693
        },
        {
          "duration": 0.07894725000000591,
          "durationTicks": 96,
          "midi": 36,
          "name": "C2",
          "ticks": 60288,
          "time": 49.578872999999994,
          "velocity": 0.14173228346456693
        },
        {
          "duration": 0.0789472499999988,
          "durationTicks": 96,
          "midi": 44,
          "name": "G#2",
          "ticks": 60480,
          "time": 49.7367675,
          "velocity": 0.14173228346456693
        },
        {
          "duration": 0.0789472499999988,
          "durationTicks": 96,
          "midi": 42,
          "name": "F#2",
          "ticks": 60480,
          "time": 49.7367675,
          "velocity": 0.14173228346456693
        },
        {
          "duration": 0.0789472499999988,
          "durationTicks": 96,
          "midi": 44,
          "name": "G#2",
          "ticks": 60672,
          "time": 49.894662,
          "velocity": 0.14173228346456693
        },
        {
          "duration": 0.0789472499999988,
          "durationTicks": 96,
          "midi": 42,
          "name": "F#2",
          "ticks": 60672,
          "time": 49.894662,
          "velocity": 0.14173228346456693
        },
        {
          "duration": 0.07894725000000591,
          "durationTicks": 96,
          "midi": 44,
          "name": "G#2",
          "ticks": 60864,
          "time": 50.052556499999994,
          "velocity": 0.14173228346456693
        },
        {
          "duration": 0.07894725000000591,
          "durationTicks": 96,
          "midi": 38,
          "name": "D2",
          "ticks": 60864,
          "time": 50.052556499999994,
          "velocity": 0.14173228346456693
        },
        {
          "duration": 0.07894725000000591,
          "durationTicks": 96,
          "midi": 36,
          "name": "C2",
          "ticks": 60864,
          "time": 50.052556499999994,
          "velocity": 0.14173228346456693
        },
        {
          "duration": 0.0789472499999988,
          "durationTicks": 96,
          "midi": 42,
          "name": "F#2",
          "ticks": 61056,
          "time": 50.210451,
          "velocity": 0.14173228346456693
        },
        {
          "duration": 0.0789472499999988,
          "durationTicks": 96,
          "midi": 36,
          "name": "C2",
          "ticks": 61248,
          "time": 50.3683455,
          "velocity": 0.14173228346456693
        },
        {
          "duration": 0.0789472499999988,
          "durationTicks": 96,
          "midi": 42,
          "name": "F#2",
          "ticks": 61248,
          "time": 50.3683455,
          "velocity": 0.14173228346456693
        },
        {
          "duration": 0.0789472499999988,
          "durationTicks": 96,
          "midi": 38,
          "name": "D2",
          "ticks": 61248,
          "time": 50.3683455,
          "velocity": 0.14173228346456693
        },
        {
          "duration": 0.0789472499999988,
          "durationTicks": 96,
          "midi": 42,
          "name": "F#2",
          "ticks": 61440,
          "time": 50.52624,
          "velocity": 0.14173228346456693
        },
        {
          "duration": 0.0789472499999988,
          "durationTicks": 96,
          "midi": 44,
          "name": "G#2",
          "ticks": 61440,
          "time": 50.52624,
          "velocity": 0.14173228346456693
        },
        {
          "duration": 0.0789472499999988,
          "durationTicks": 96,
          "midi": 42,
          "name": "F#2",
          "ticks": 61632,
          "time": 50.6841345,
          "velocity": 0.14173228346456693
        },
        {
          "duration": 0.0789472499999988,
          "durationTicks": 96,
          "midi": 38,
          "name": "D2",
          "ticks": 61824,
          "time": 50.842029,
          "velocity": 0.14173228346456693
        },
        {
          "duration": 0.0789472499999988,
          "durationTicks": 96,
          "midi": 36,
          "name": "C2",
          "ticks": 61824,
          "time": 50.842029,
          "velocity": 0.14173228346456693
        },
        {
          "duration": 0.0789472499999988,
          "durationTicks": 96,
          "midi": 44,
          "name": "G#2",
          "ticks": 62016,
          "time": 50.9999235,
          "velocity": 0.14173228346456693
        },
        {
          "duration": 0.0789472499999988,
          "durationTicks": 96,
          "midi": 42,
          "name": "F#2",
          "ticks": 62016,
          "time": 50.9999235,
          "velocity": 0.14173228346456693
        },
        {
          "duration": 0.0789472499999988,
          "durationTicks": 96,
          "midi": 44,
          "name": "G#2",
          "ticks": 62208,
          "time": 51.157818,
          "velocity": 0.14173228346456693
        },
        {
          "duration": 0.0789472499999988,
          "durationTicks": 96,
          "midi": 42,
          "name": "F#2",
          "ticks": 62208,
          "time": 51.157818,
          "velocity": 0.14173228346456693
        },
        {
          "duration": 0.0789472499999988,
          "durationTicks": 96,
          "midi": 38,
          "name": "D2",
          "ticks": 62400,
          "time": 51.3157125,
          "velocity": 0.14173228346456693
        },
        {
          "duration": 0.0789472499999988,
          "durationTicks": 96,
          "midi": 36,
          "name": "C2",
          "ticks": 62400,
          "time": 51.3157125,
          "velocity": 0.14173228346456693
        },
        {
          "duration": 0.0789472499999988,
          "durationTicks": 96,
          "midi": 44,
          "name": "G#2",
          "ticks": 62400,
          "time": 51.3157125,
          "velocity": 0.14173228346456693
        },
        {
          "duration": 0.0789472499999988,
          "durationTicks": 96,
          "midi": 42,
          "name": "F#2",
          "ticks": 62592,
          "time": 51.473607,
          "velocity": 0.14173228346456693
        },
        {
          "duration": 0.0789472499999988,
          "durationTicks": 96,
          "midi": 42,
          "name": "F#2",
          "ticks": 62784,
          "time": 51.6315015,
          "velocity": 0.14173228346456693
        },
        {
          "duration": 0.0789472499999988,
          "durationTicks": 96,
          "midi": 36,
          "name": "C2",
          "ticks": 62784,
          "time": 51.6315015,
          "velocity": 0.14173228346456693
        },
        {
          "duration": 0.0789472499999988,
          "durationTicks": 96,
          "midi": 38,
          "name": "D2",
          "ticks": 62784,
          "time": 51.6315015,
          "velocity": 0.14173228346456693
        },
        {
          "duration": 0.0789472499999988,
          "durationTicks": 96,
          "midi": 44,
          "name": "G#2",
          "ticks": 62976,
          "time": 51.789395999999996,
          "velocity": 0.14173228346456693
        },
        {
          "duration": 0.0789472499999988,
          "durationTicks": 96,
          "midi": 42,
          "name": "F#2",
          "ticks": 62976,
          "time": 51.789395999999996,
          "velocity": 0.14173228346456693
        },
        {
          "duration": 0.0789472499999988,
          "durationTicks": 96,
          "midi": 42,
          "name": "F#2",
          "ticks": 63168,
          "time": 51.9472905,
          "velocity": 0.14173228346456693
        },
        {
          "duration": 0.0789472499999988,
          "durationTicks": 96,
          "midi": 36,
          "name": "C2",
          "ticks": 63360,
          "time": 52.105185,
          "velocity": 0.14173228346456693
        },
        {
          "duration": 0.0789472499999988,
          "durationTicks": 96,
          "midi": 38,
          "name": "D2",
          "ticks": 63360,
          "time": 52.105185,
          "velocity": 0.14173228346456693
        },
        {
          "duration": 0.0789472499999988,
          "durationTicks": 96,
          "midi": 42,
          "name": "F#2",
          "ticks": 63552,
          "time": 52.263079499999996,
          "velocity": 0.14173228346456693
        },
        {
          "duration": 0.0789472499999988,
          "durationTicks": 96,
          "midi": 44,
          "name": "G#2",
          "ticks": 63552,
          "time": 52.263079499999996,
          "velocity": 0.14173228346456693
        },
        {
          "duration": 0.0789472499999988,
          "durationTicks": 96,
          "midi": 44,
          "name": "G#2",
          "ticks": 63744,
          "time": 52.420974,
          "velocity": 0.14173228346456693
        },
        {
          "duration": 0.0789472499999988,
          "durationTicks": 96,
          "midi": 42,
          "name": "F#2",
          "ticks": 63744,
          "time": 52.420974,
          "velocity": 0.14173228346456693
        },
        {
          "duration": 0.0789472499999988,
          "durationTicks": 96,
          "midi": 36,
          "name": "C2",
          "ticks": 63936,
          "time": 52.5788685,
          "velocity": 0.14173228346456693
        },
        {
          "duration": 0.0789472499999988,
          "durationTicks": 96,
          "midi": 38,
          "name": "D2",
          "ticks": 63936,
          "time": 52.5788685,
          "velocity": 0.14173228346456693
        },
        {
          "duration": 0.0789472499999988,
          "durationTicks": 96,
          "midi": 44,
          "name": "G#2",
          "ticks": 63936,
          "time": 52.5788685,
          "velocity": 0.14173228346456693
        },
        {
          "duration": 0.0789472499999988,
          "durationTicks": 96,
          "midi": 42,
          "name": "F#2",
          "ticks": 64128,
          "time": 52.736762999999996,
          "velocity": 0.14173228346456693
        },
        {
          "duration": 0.0789472499999988,
          "durationTicks": 96,
          "midi": 36,
          "name": "C2",
          "ticks": 64320,
          "time": 52.8946575,
          "velocity": 0.14173228346456693
        },
        {
          "duration": 0.0789472499999988,
          "durationTicks": 96,
          "midi": 42,
          "name": "F#2",
          "ticks": 64320,
          "time": 52.8946575,
          "velocity": 0.14173228346456693
        },
        {
          "duration": 0.0789472499999988,
          "durationTicks": 96,
          "midi": 38,
          "name": "D2",
          "ticks": 64320,
          "time": 52.8946575,
          "velocity": 0.14173228346456693
        },
        {
          "duration": 0.0789472499999988,
          "durationTicks": 96,
          "midi": 44,
          "name": "G#2",
          "ticks": 64512,
          "time": 53.052552,
          "velocity": 0.14173228346456693
        },
        {
          "duration": 0.0789472499999988,
          "durationTicks": 96,
          "midi": 42,
          "name": "F#2",
          "ticks": 64512,
          "time": 53.052552,
          "velocity": 0.14173228346456693
        },
        {
          "duration": 0.0789472499999988,
          "durationTicks": 96,
          "midi": 42,
          "name": "F#2",
          "ticks": 64704,
          "time": 53.210446499999996,
          "velocity": 0.14173228346456693
        },
        {
          "duration": 0.0789472499999988,
          "durationTicks": 96,
          "midi": 38,
          "name": "D2",
          "ticks": 64896,
          "time": 53.368341,
          "velocity": 0.14173228346456693
        },
        {
          "duration": 0.0789472499999988,
          "durationTicks": 96,
          "midi": 36,
          "name": "C2",
          "ticks": 64896,
          "time": 53.368341,
          "velocity": 0.14173228346456693
        },
        {
          "duration": 0.0789472499999988,
          "durationTicks": 96,
          "midi": 42,
          "name": "F#2",
          "ticks": 65088,
          "time": 53.5262355,
          "velocity": 0.14173228346456693
        },
        {
          "duration": 0.0789472499999988,
          "durationTicks": 96,
          "midi": 44,
          "name": "G#2",
          "ticks": 65088,
          "time": 53.5262355,
          "velocity": 0.14173228346456693
        },
        {
          "duration": 0.0789472499999988,
          "durationTicks": 96,
          "midi": 42,
          "name": "F#2",
          "ticks": 65280,
          "time": 53.684129999999996,
          "velocity": 0.14173228346456693
        },
        {
          "duration": 0.0789472499999988,
          "durationTicks": 96,
          "midi": 44,
          "name": "G#2",
          "ticks": 65280,
          "time": 53.684129999999996,
          "velocity": 0.14173228346456693
        },
        {
          "duration": 0.0789472499999988,
          "durationTicks": 96,
          "midi": 36,
          "name": "C2",
          "ticks": 65472,
          "time": 53.8420245,
          "velocity": 0.14173228346456693
        },
        {
          "duration": 0.0789472499999988,
          "durationTicks": 96,
          "midi": 38,
          "name": "D2",
          "ticks": 65472,
          "time": 53.8420245,
          "velocity": 0.14173228346456693
        },
        {
          "duration": 0.0789472499999988,
          "durationTicks": 96,
          "midi": 44,
          "name": "G#2",
          "ticks": 65472,
          "time": 53.8420245,
          "velocity": 0.14173228346456693
        },
        {
          "duration": 0.0789472499999988,
          "durationTicks": 96,
          "midi": 42,
          "name": "F#2",
          "ticks": 65664,
          "time": 53.999919,
          "velocity": 0.14173228346456693
        },
        {
          "duration": 0.0789472499999988,
          "durationTicks": 96,
          "midi": 42,
          "name": "F#2",
          "ticks": 65856,
          "time": 54.157813499999996,
          "velocity": 0.14173228346456693
        },
        {
          "duration": 0.0789472499999988,
          "durationTicks": 96,
          "midi": 36,
          "name": "C2",
          "ticks": 65856,
          "time": 54.157813499999996,
          "velocity": 0.14173228346456693
        },
        {
          "duration": 0.0789472499999988,
          "durationTicks": 96,
          "midi": 38,
          "name": "D2",
          "ticks": 65856,
          "time": 54.157813499999996,
          "velocity": 0.14173228346456693
        },
        {
          "duration": 0.0789472499999988,
          "durationTicks": 96,
          "midi": 44,
          "name": "G#2",
          "ticks": 66048,
          "time": 54.315708,
          "velocity": 0.14173228346456693
        },
        {
          "duration": 0.0789472499999988,
          "durationTicks": 96,
          "midi": 42,
          "name": "F#2",
          "ticks": 66048,
          "time": 54.315708,
          "velocity": 0.14173228346456693
        },
        {
          "duration": 0.0789472499999988,
          "durationTicks": 96,
          "midi": 42,
          "name": "F#2",
          "ticks": 66240,
          "time": 54.4736025,
          "velocity": 0.14173228346456693
        },
        {
          "duration": 0.0789472499999988,
          "durationTicks": 96,
          "midi": 36,
          "name": "C2",
          "ticks": 66432,
          "time": 54.631496999999996,
          "velocity": 0.14173228346456693
        },
        {
          "duration": 0.0789472499999988,
          "durationTicks": 96,
          "midi": 38,
          "name": "D2",
          "ticks": 66432,
          "time": 54.631496999999996,
          "velocity": 0.14173228346456693
        },
        {
          "duration": 0.0789472499999988,
          "durationTicks": 96,
          "midi": 44,
          "name": "G#2",
          "ticks": 66624,
          "time": 54.7893915,
          "velocity": 0.14173228346456693
        },
        {
          "duration": 0.0789472499999988,
          "durationTicks": 96,
          "midi": 42,
          "name": "F#2",
          "ticks": 66624,
          "time": 54.7893915,
          "velocity": 0.14173228346456693
        },
        {
          "duration": 0.0789472499999988,
          "durationTicks": 96,
          "midi": 42,
          "name": "F#2",
          "ticks": 66816,
          "time": 54.947286,
          "velocity": 0.14173228346456693
        },
        {
          "duration": 0.0789472499999988,
          "durationTicks": 96,
          "midi": 44,
          "name": "G#2",
          "ticks": 66816,
          "time": 54.947286,
          "velocity": 0.14173228346456693
        },
        {
          "duration": 0.0789472499999988,
          "durationTicks": 96,
          "midi": 44,
          "name": "G#2",
          "ticks": 67008,
          "time": 55.105180499999996,
          "velocity": 0.14173228346456693
        },
        {
          "duration": 0.0789472499999988,
          "durationTicks": 96,
          "midi": 36,
          "name": "C2",
          "ticks": 67008,
          "time": 55.105180499999996,
          "velocity": 0.14173228346456693
        },
        {
          "duration": 0.0789472499999988,
          "durationTicks": 96,
          "midi": 38,
          "name": "D2",
          "ticks": 67008,
          "time": 55.105180499999996,
          "velocity": 0.14173228346456693
        },
        {
          "duration": 0.0789472499999988,
          "durationTicks": 96,
          "midi": 42,
          "name": "F#2",
          "ticks": 67200,
          "time": 55.263075,
          "velocity": 0.14173228346456693
        },
        {
          "duration": 0.0789472499999988,
          "durationTicks": 96,
          "midi": 38,
          "name": "D2",
          "ticks": 67392,
          "time": 55.4209695,
          "velocity": 0.14173228346456693
        },
        {
          "duration": 0.0789472499999988,
          "durationTicks": 96,
          "midi": 36,
          "name": "C2",
          "ticks": 67392,
          "time": 55.4209695,
          "velocity": 0.14173228346456693
        },
        {
          "duration": 0.0789472499999988,
          "durationTicks": 96,
          "midi": 42,
          "name": "F#2",
          "ticks": 67392,
          "time": 55.4209695,
          "velocity": 0.14173228346456693
        },
        {
          "duration": 0.0789472499999988,
          "durationTicks": 96,
          "midi": 44,
          "name": "G#2",
          "ticks": 67584,
          "time": 55.578863999999996,
          "velocity": 0.14173228346456693
        },
        {
          "duration": 0.0789472499999988,
          "durationTicks": 96,
          "midi": 42,
          "name": "F#2",
          "ticks": 67584,
          "time": 55.578863999999996,
          "velocity": 0.14173228346456693
        },
        {
          "duration": 0.0789472499999988,
          "durationTicks": 96,
          "midi": 42,
          "name": "F#2",
          "ticks": 67776,
          "time": 55.7367585,
          "velocity": 0.14173228346456693
        },
        {
          "duration": 0.0789472499999988,
          "durationTicks": 96,
          "midi": 36,
          "name": "C2",
          "ticks": 67968,
          "time": 55.894653,
          "velocity": 0.14173228346456693
        },
        {
          "duration": 0.0789472499999988,
          "durationTicks": 96,
          "midi": 38,
          "name": "D2",
          "ticks": 67968,
          "time": 55.894653,
          "velocity": 0.14173228346456693
        },
        {
          "duration": 0.0789472499999988,
          "durationTicks": 96,
          "midi": 42,
          "name": "F#2",
          "ticks": 68160,
          "time": 56.052547499999996,
          "velocity": 0.14173228346456693
        },
        {
          "duration": 0.0789472499999988,
          "durationTicks": 96,
          "midi": 44,
          "name": "G#2",
          "ticks": 68160,
          "time": 56.052547499999996,
          "velocity": 0.14173228346456693
        },
        {
          "duration": 0.0789472499999988,
          "durationTicks": 96,
          "midi": 42,
          "name": "F#2",
          "ticks": 68352,
          "time": 56.210442,
          "velocity": 0.14173228346456693
        },
        {
          "duration": 0.0789472499999988,
          "durationTicks": 96,
          "midi": 44,
          "name": "G#2",
          "ticks": 68352,
          "time": 56.210442,
          "velocity": 0.14173228346456693
        },
        {
          "duration": 0.0789472499999988,
          "durationTicks": 96,
          "midi": 38,
          "name": "D2",
          "ticks": 68544,
          "time": 56.3683365,
          "velocity": 0.14173228346456693
        },
        {
          "duration": 0.0789472499999988,
          "durationTicks": 96,
          "midi": 36,
          "name": "C2",
          "ticks": 68544,
          "time": 56.3683365,
          "velocity": 0.14173228346456693
        },
        {
          "duration": 0.0789472499999988,
          "durationTicks": 96,
          "midi": 44,
          "name": "G#2",
          "ticks": 68544,
          "time": 56.3683365,
          "velocity": 0.14173228346456693
        },
        {
          "duration": 0.0789472499999988,
          "durationTicks": 96,
          "midi": 42,
          "name": "F#2",
          "ticks": 68736,
          "time": 56.526230999999996,
          "velocity": 0.14173228346456693
        },
        {
          "duration": 0.0789472499999988,
          "durationTicks": 96,
          "midi": 38,
          "name": "D2",
          "ticks": 68928,
          "time": 56.6841255,
          "velocity": 0.14173228346456693
        },
        {
          "duration": 0.0789472499999988,
          "durationTicks": 96,
          "midi": 36,
          "name": "C2",
          "ticks": 68928,
          "time": 56.6841255,
          "velocity": 0.14173228346456693
        },
        {
          "duration": 0.0789472499999988,
          "durationTicks": 96,
          "midi": 42,
          "name": "F#2",
          "ticks": 68928,
          "time": 56.6841255,
          "velocity": 0.14173228346456693
        },
        {
          "duration": 0.0789472499999988,
          "durationTicks": 96,
          "midi": 44,
          "name": "G#2",
          "ticks": 69120,
          "time": 56.84202,
          "velocity": 0.14173228346456693
        },
        {
          "duration": 0.0789472499999988,
          "durationTicks": 96,
          "midi": 42,
          "name": "F#2",
          "ticks": 69120,
          "time": 56.84202,
          "velocity": 0.14173228346456693
        },
        {
          "duration": 0.0789472499999988,
          "durationTicks": 96,
          "midi": 42,
          "name": "F#2",
          "ticks": 69312,
          "time": 56.999914499999996,
          "velocity": 0.14173228346456693
        },
        {
          "duration": 0.0789472499999988,
          "durationTicks": 96,
          "midi": 36,
          "name": "C2",
          "ticks": 69504,
          "time": 57.157809,
          "velocity": 0.14173228346456693
        },
        {
          "duration": 0.0789472499999988,
          "durationTicks": 96,
          "midi": 38,
          "name": "D2",
          "ticks": 69504,
          "time": 57.157809,
          "velocity": 0.14173228346456693
        },
        {
          "duration": 0.0789472499999988,
          "durationTicks": 96,
          "midi": 44,
          "name": "G#2",
          "ticks": 69696,
          "time": 57.3157035,
          "velocity": 0.14173228346456693
        },
        {
          "duration": 0.0789472499999988,
          "durationTicks": 96,
          "midi": 42,
          "name": "F#2",
          "ticks": 69696,
          "time": 57.3157035,
          "velocity": 0.14173228346456693
        },
        {
          "duration": 0.0789472499999988,
          "durationTicks": 96,
          "midi": 42,
          "name": "F#2",
          "ticks": 69888,
          "time": 57.473597999999996,
          "velocity": 0.14173228346456693
        },
        {
          "duration": 0.0789472499999988,
          "durationTicks": 96,
          "midi": 44,
          "name": "G#2",
          "ticks": 69888,
          "time": 57.473597999999996,
          "velocity": 0.14173228346456693
        },
        {
          "duration": 0.0789472499999988,
          "durationTicks": 96,
          "midi": 38,
          "name": "D2",
          "ticks": 70080,
          "time": 57.6314925,
          "velocity": 0.14173228346456693
        },
        {
          "duration": 0.0789472499999988,
          "durationTicks": 96,
          "midi": 36,
          "name": "C2",
          "ticks": 70080,
          "time": 57.6314925,
          "velocity": 0.14173228346456693
        },
        {
          "duration": 0.0789472499999988,
          "durationTicks": 96,
          "midi": 44,
          "name": "G#2",
          "ticks": 70080,
          "time": 57.6314925,
          "velocity": 0.14173228346456693
        },
        {
          "duration": 0.0789472499999988,
          "durationTicks": 96,
          "midi": 42,
          "name": "F#2",
          "ticks": 70272,
          "time": 57.789387,
          "velocity": 0.14173228346456693
        },
        {
          "duration": 0.0789472499999988,
          "durationTicks": 96,
          "midi": 42,
          "name": "F#2",
          "ticks": 70464,
          "time": 57.947281499999995,
          "velocity": 0.14173228346456693
        },
        {
          "duration": 0.0789472499999988,
          "durationTicks": 96,
          "midi": 36,
          "name": "C2",
          "ticks": 70464,
          "time": 57.947281499999995,
          "velocity": 0.14173228346456693
        },
        {
          "duration": 0.0789472499999988,
          "durationTicks": 96,
          "midi": 38,
          "name": "D2",
          "ticks": 70464,
          "time": 57.947281499999995,
          "velocity": 0.14173228346456693
        },
        {
          "duration": 0.0789472499999988,
          "durationTicks": 96,
          "midi": 42,
          "name": "F#2",
          "ticks": 73728,
          "time": 60.631488,
          "velocity": 0.1889763779527559
        },
        {
          "duration": 0.0789472499999988,
          "durationTicks": 96,
          "midi": 35,
          "name": "B1",
          "ticks": 73728,
          "time": 60.631488,
          "velocity": 0.1889763779527559
        },
        {
          "duration": 0.0789472499999988,
          "durationTicks": 96,
          "midi": 44,
          "name": "G#2",
          "ticks": 73728,
          "time": 60.631488,
          "velocity": 0.1889763779527559
        },
        {
          "duration": 0.07894725000000591,
          "durationTicks": 96,
          "midi": 42,
          "name": "F#2",
          "ticks": 73920,
          "time": 60.789382499999995,
          "velocity": 0.14173228346456693
        },
        {
          "duration": 0.0789472499999988,
          "durationTicks": 96,
          "midi": 38,
          "name": "D2",
          "ticks": 74112,
          "time": 60.947277,
          "velocity": 0.14173228346456693
        },
        {
          "duration": 0.0789472499999988,
          "durationTicks": 96,
          "midi": 36,
          "name": "C2",
          "ticks": 74112,
          "time": 60.947277,
          "velocity": 0.14173228346456693
        },
        {
          "duration": 0.0789472499999988,
          "durationTicks": 96,
          "midi": 44,
          "name": "G#2",
          "ticks": 74304,
          "time": 61.1051715,
          "velocity": 0.14173228346456693
        },
        {
          "duration": 0.0789472499999988,
          "durationTicks": 96,
          "midi": 42,
          "name": "F#2",
          "ticks": 74304,
          "time": 61.1051715,
          "velocity": 0.14173228346456693
        },
        {
          "duration": 0.0789472499999988,
          "durationTicks": 96,
          "midi": 36,
          "name": "C2",
          "ticks": 74304,
          "time": 61.1051715,
          "velocity": 0.14173228346456693
        },
        {
          "duration": 0.0789472499999988,
          "durationTicks": 96,
          "midi": 38,
          "name": "D2",
          "ticks": 74304,
          "time": 61.1051715,
          "velocity": 0.14173228346456693
        },
        {
          "duration": 0.07894725000000591,
          "durationTicks": 96,
          "midi": 44,
          "name": "G#2",
          "ticks": 74496,
          "time": 61.263065999999995,
          "velocity": 0.14173228346456693
        },
        {
          "duration": 0.07894725000000591,
          "durationTicks": 96,
          "midi": 42,
          "name": "F#2",
          "ticks": 74496,
          "time": 61.263065999999995,
          "velocity": 0.14173228346456693
        },
        {
          "duration": 0.0789472499999988,
          "durationTicks": 96,
          "midi": 44,
          "name": "G#2",
          "ticks": 74688,
          "time": 61.4209605,
          "velocity": 0.14173228346456693
        },
        {
          "duration": 0.0789472499999988,
          "durationTicks": 96,
          "midi": 38,
          "name": "D2",
          "ticks": 74880,
          "time": 61.578855,
          "velocity": 0.14173228346456693
        },
        {
          "duration": 0.0789472499999988,
          "durationTicks": 96,
          "midi": 36,
          "name": "C2",
          "ticks": 74880,
          "time": 61.578855,
          "velocity": 0.14173228346456693
        },
        {
          "duration": 0.0789472499999988,
          "durationTicks": 96,
          "midi": 42,
          "name": "F#2",
          "ticks": 74880,
          "time": 61.578855,
          "velocity": 0.14173228346456693
        },
        {
          "duration": 0.0789472499999988,
          "durationTicks": 96,
          "midi": 40,
          "name": "E2",
          "ticks": 74880,
          "time": 61.578855,
          "velocity": 0.14173228346456693
        },
        {
          "duration": 0.07894725000000591,
          "durationTicks": 96,
          "midi": 42,
          "name": "F#2",
          "ticks": 75072,
          "time": 61.736749499999995,
          "velocity": 0.14173228346456693
        },
        {
          "duration": 0.0789472499999988,
          "durationTicks": 96,
          "midi": 42,
          "name": "F#2",
          "ticks": 75264,
          "time": 61.894644,
          "velocity": 0.14173228346456693
        },
        {
          "duration": 0.0789472499999988,
          "durationTicks": 96,
          "midi": 35,
          "name": "B1",
          "ticks": 75264,
          "time": 61.894644,
          "velocity": 0.14173228346456693
        },
        {
          "duration": 0.0789472499999988,
          "durationTicks": 96,
          "midi": 44,
          "name": "G#2",
          "ticks": 75264,
          "time": 61.894644,
          "velocity": 0.14173228346456693
        },
        {
          "duration": 0.0789472499999988,
          "durationTicks": 96,
          "midi": 42,
          "name": "F#2",
          "ticks": 75456,
          "time": 62.0525385,
          "velocity": 0.14173228346456693
        },
        {
          "duration": 0.07894725000000591,
          "durationTicks": 96,
          "midi": 36,
          "name": "C2",
          "ticks": 75648,
          "time": 62.210432999999995,
          "velocity": 0.14173228346456693
        },
        {
          "duration": 0.07894725000000591,
          "durationTicks": 96,
          "midi": 38,
          "name": "D2",
          "ticks": 75648,
          "time": 62.210432999999995,
          "velocity": 0.14173228346456693
        },
        {
          "duration": 0.0789472499999988,
          "durationTicks": 96,
          "midi": 44,
          "name": "G#2",
          "ticks": 75840,
          "time": 62.3683275,
          "velocity": 0.14173228346456693
        },
        {
          "duration": 0.0789472499999988,
          "durationTicks": 96,
          "midi": 42,
          "name": "F#2",
          "ticks": 75840,
          "time": 62.3683275,
          "velocity": 0.14173228346456693
        },
        {
          "duration": 0.0789472499999988,
          "durationTicks": 96,
          "midi": 38,
          "name": "D2",
          "ticks": 75840,
          "time": 62.3683275,
          "velocity": 0.14173228346456693
        },
        {
          "duration": 0.0789472499999988,
          "durationTicks": 96,
          "midi": 36,
          "name": "C2",
          "ticks": 75840,
          "time": 62.3683275,
          "velocity": 0.14173228346456693
        },
        {
          "duration": 0.0789472499999988,
          "durationTicks": 96,
          "midi": 42,
          "name": "F#2",
          "ticks": 76032,
          "time": 62.526222,
          "velocity": 0.14173228346456693
        },
        {
          "duration": 0.0789472499999988,
          "durationTicks": 96,
          "midi": 44,
          "name": "G#2",
          "ticks": 76032,
          "time": 62.526222,
          "velocity": 0.14173228346456693
        },
        {
          "duration": 0.07894725000000591,
          "durationTicks": 96,
          "midi": 44,
          "name": "G#2",
          "ticks": 76224,
          "time": 62.684116499999995,
          "velocity": 0.14173228346456693
        },
        {
          "duration": 0.0789472499999988,
          "durationTicks": 96,
          "midi": 42,
          "name": "F#2",
          "ticks": 76416,
          "time": 62.842011,
          "velocity": 0.14173228346456693
        },
        {
          "duration": 0.0789472499999988,
          "durationTicks": 96,
          "midi": 36,
          "name": "C2",
          "ticks": 76416,
          "time": 62.842011,
          "velocity": 0.14173228346456693
        },
        {
          "duration": 0.0789472499999988,
          "durationTicks": 96,
          "midi": 40,
          "name": "E2",
          "ticks": 76416,
          "time": 62.842011,
          "velocity": 0.14173228346456693
        },
        {
          "duration": 0.0789472499999988,
          "durationTicks": 96,
          "midi": 38,
          "name": "D2",
          "ticks": 76416,
          "time": 62.842011,
          "velocity": 0.14173228346456693
        },
        {
          "duration": 0.0789472499999988,
          "durationTicks": 96,
          "midi": 42,
          "name": "F#2",
          "ticks": 76608,
          "time": 62.9999055,
          "velocity": 0.14173228346456693
        },
        {
          "duration": 0.07894725000000591,
          "durationTicks": 96,
          "midi": 44,
          "name": "G#2",
          "ticks": 76800,
          "time": 63.157799999999995,
          "velocity": 0.14173228346456693
        },
        {
          "duration": 0.07894725000000591,
          "durationTicks": 96,
          "midi": 42,
          "name": "F#2",
          "ticks": 76800,
          "time": 63.157799999999995,
          "velocity": 0.14173228346456693
        },
        {
          "duration": 0.07894725000000591,
          "durationTicks": 96,
          "midi": 35,
          "name": "B1",
          "ticks": 76800,
          "time": 63.157799999999995,
          "velocity": 0.14173228346456693
        },
        {
          "duration": 0.0789472499999988,
          "durationTicks": 96,
          "midi": 42,
          "name": "F#2",
          "ticks": 76992,
          "time": 63.3156945,
          "velocity": 0.14173228346456693
        },
        {
          "duration": 0.0789472499999988,
          "durationTicks": 96,
          "midi": 38,
          "name": "D2",
          "ticks": 77184,
          "time": 63.473589,
          "velocity": 0.14173228346456693
        },
        {
          "duration": 0.0789472499999988,
          "durationTicks": 96,
          "midi": 36,
          "name": "C2",
          "ticks": 77184,
          "time": 63.473589,
          "velocity": 0.14173228346456693
        },
        {
          "duration": 0.07894725000000591,
          "durationTicks": 96,
          "midi": 42,
          "name": "F#2",
          "ticks": 77376,
          "time": 63.631483499999995,
          "velocity": 0.14173228346456693
        },
        {
          "duration": 0.07894725000000591,
          "durationTicks": 96,
          "midi": 44,
          "name": "G#2",
          "ticks": 77376,
          "time": 63.631483499999995,
          "velocity": 0.14173228346456693
        },
        {
          "duration": 0.07894725000000591,
          "durationTicks": 96,
          "midi": 38,
          "name": "D2",
          "ticks": 77376,
          "time": 63.631483499999995,
          "velocity": 0.14173228346456693
        },
        {
          "duration": 0.07894725000000591,
          "durationTicks": 96,
          "midi": 36,
          "name": "C2",
          "ticks": 77376,
          "time": 63.631483499999995,
          "velocity": 0.14173228346456693
        },
        {
          "duration": 0.0789472499999988,
          "durationTicks": 96,
          "midi": 42,
          "name": "F#2",
          "ticks": 77568,
          "time": 63.789378,
          "velocity": 0.14173228346456693
        },
        {
          "duration": 0.0789472499999988,
          "durationTicks": 96,
          "midi": 44,
          "name": "G#2",
          "ticks": 77568,
          "time": 63.789378,
          "velocity": 0.14173228346456693
        },
        {
          "duration": 0.0789472499999988,
          "durationTicks": 96,
          "midi": 44,
          "name": "G#2",
          "ticks": 77760,
          "time": 63.9472725,
          "velocity": 0.14173228346456693
        },
        {
          "duration": 0.0789472499999988,
          "durationTicks": 96,
          "midi": 40,
          "name": "E2",
          "ticks": 77952,
          "time": 64.105167,
          "velocity": 0.14173228346456693
        },
        {
          "duration": 0.0789472499999988,
          "durationTicks": 96,
          "midi": 38,
          "name": "D2",
          "ticks": 77952,
          "time": 64.105167,
          "velocity": 0.14173228346456693
        },
        {
          "duration": 0.0789472499999988,
          "durationTicks": 96,
          "midi": 42,
          "name": "F#2",
          "ticks": 77952,
          "time": 64.105167,
          "velocity": 0.14173228346456693
        },
        {
          "duration": 0.0789472499999988,
          "durationTicks": 96,
          "midi": 36,
          "name": "C2",
          "ticks": 77952,
          "time": 64.105167,
          "velocity": 0.14173228346456693
        },
        {
          "duration": 0.0789472499999988,
          "durationTicks": 96,
          "midi": 42,
          "name": "F#2",
          "ticks": 78144,
          "time": 64.26306149999999,
          "velocity": 0.14173228346456693
        },
        {
          "duration": 0.0789472499999988,
          "durationTicks": 96,
          "midi": 42,
          "name": "F#2",
          "ticks": 78336,
          "time": 64.420956,
          "velocity": 0.14173228346456693
        },
        {
          "duration": 0.0789472499999988,
          "durationTicks": 96,
          "midi": 35,
          "name": "B1",
          "ticks": 78336,
          "time": 64.420956,
          "velocity": 0.14173228346456693
        },
        {
          "duration": 0.0789472499999988,
          "durationTicks": 96,
          "midi": 44,
          "name": "G#2",
          "ticks": 78336,
          "time": 64.420956,
          "velocity": 0.14173228346456693
        },
        {
          "duration": 0.0789472499999988,
          "durationTicks": 96,
          "midi": 42,
          "name": "F#2",
          "ticks": 78528,
          "time": 64.5788505,
          "velocity": 0.14173228346456693
        },
        {
          "duration": 0.0789472499999988,
          "durationTicks": 96,
          "midi": 36,
          "name": "C2",
          "ticks": 78720,
          "time": 64.736745,
          "velocity": 0.14173228346456693
        },
        {
          "duration": 0.0789472499999988,
          "durationTicks": 96,
          "midi": 38,
          "name": "D2",
          "ticks": 78720,
          "time": 64.736745,
          "velocity": 0.14173228346456693
        },
        {
          "duration": 0.0789472499999988,
          "durationTicks": 96,
          "midi": 44,
          "name": "G#2",
          "ticks": 78912,
          "time": 64.8946395,
          "velocity": 0.14173228346456693
        },
        {
          "duration": 0.0789472499999988,
          "durationTicks": 96,
          "midi": 38,
          "name": "D2",
          "ticks": 78912,
          "time": 64.8946395,
          "velocity": 0.14173228346456693
        },
        {
          "duration": 0.0789472499999988,
          "durationTicks": 96,
          "midi": 42,
          "name": "F#2",
          "ticks": 78912,
          "time": 64.8946395,
          "velocity": 0.14173228346456693
        },
        {
          "duration": 0.0789472499999988,
          "durationTicks": 96,
          "midi": 36,
          "name": "C2",
          "ticks": 78912,
          "time": 64.8946395,
          "velocity": 0.14173228346456693
        },
        {
          "duration": 0.0789472499999988,
          "durationTicks": 96,
          "midi": 42,
          "name": "F#2",
          "ticks": 79104,
          "time": 65.052534,
          "velocity": 0.14173228346456693
        },
        {
          "duration": 0.0789472499999988,
          "durationTicks": 96,
          "midi": 44,
          "name": "G#2",
          "ticks": 79104,
          "time": 65.052534,
          "velocity": 0.14173228346456693
        },
        {
          "duration": 0.0789472499999988,
          "durationTicks": 96,
          "midi": 44,
          "name": "G#2",
          "ticks": 79296,
          "time": 65.21042849999999,
          "velocity": 0.14173228346456693
        },
        {
          "duration": 0.0789472499999988,
          "durationTicks": 96,
          "midi": 42,
          "name": "F#2",
          "ticks": 79488,
          "time": 65.368323,
          "velocity": 0.14173228346456693
        },
        {
          "duration": 0.0789472499999988,
          "durationTicks": 96,
          "midi": 38,
          "name": "D2",
          "ticks": 79488,
          "time": 65.368323,
          "velocity": 0.14173228346456693
        },
        {
          "duration": 0.0789472499999988,
          "durationTicks": 96,
          "midi": 36,
          "name": "C2",
          "ticks": 79488,
          "time": 65.368323,
          "velocity": 0.14173228346456693
        },
        {
          "duration": 0.0789472499999988,
          "durationTicks": 96,
          "midi": 40,
          "name": "E2",
          "ticks": 79488,
          "time": 65.368323,
          "velocity": 0.14173228346456693
        },
        {
          "duration": 0.0789472499999988,
          "durationTicks": 96,
          "midi": 42,
          "name": "F#2",
          "ticks": 79680,
          "time": 65.5262175,
          "velocity": 0.14173228346456693
        },
        {
          "duration": 0.0789472499999988,
          "durationTicks": 96,
          "midi": 42,
          "name": "F#2",
          "ticks": 79872,
          "time": 65.684112,
          "velocity": 0.14173228346456693
        },
        {
          "duration": 0.0789472499999988,
          "durationTicks": 96,
          "midi": 35,
          "name": "B1",
          "ticks": 79872,
          "time": 65.684112,
          "velocity": 0.14173228346456693
        },
        {
          "duration": 0.0789472499999988,
          "durationTicks": 96,
          "midi": 44,
          "name": "G#2",
          "ticks": 79872,
          "time": 65.684112,
          "velocity": 0.14173228346456693
        },
        {
          "duration": 0.0789472499999988,
          "durationTicks": 96,
          "midi": 42,
          "name": "F#2",
          "ticks": 80064,
          "time": 65.8420065,
          "velocity": 0.14173228346456693
        },
        {
          "duration": 0.0789472499999988,
          "durationTicks": 96,
          "midi": 38,
          "name": "D2",
          "ticks": 80256,
          "time": 65.999901,
          "velocity": 0.14173228346456693
        },
        {
          "duration": 0.0789472499999988,
          "durationTicks": 96,
          "midi": 36,
          "name": "C2",
          "ticks": 80256,
          "time": 65.999901,
          "velocity": 0.14173228346456693
        },
        {
          "duration": 0.0789472499999988,
          "durationTicks": 96,
          "midi": 42,
          "name": "F#2",
          "ticks": 80448,
          "time": 66.15779549999999,
          "velocity": 0.14173228346456693
        },
        {
          "duration": 0.0789472499999988,
          "durationTicks": 96,
          "midi": 38,
          "name": "D2",
          "ticks": 80448,
          "time": 66.15779549999999,
          "velocity": 0.14173228346456693
        },
        {
          "duration": 0.0789472499999988,
          "durationTicks": 96,
          "midi": 44,
          "name": "G#2",
          "ticks": 80448,
          "time": 66.15779549999999,
          "velocity": 0.14173228346456693
        },
        {
          "duration": 0.0789472499999988,
          "durationTicks": 96,
          "midi": 36,
          "name": "C2",
          "ticks": 80448,
          "time": 66.15779549999999,
          "velocity": 0.14173228346456693
        },
        {
          "duration": 0.0789472499999988,
          "durationTicks": 96,
          "midi": 42,
          "name": "F#2",
          "ticks": 80640,
          "time": 66.31569,
          "velocity": 0.14173228346456693
        },
        {
          "duration": 0.0789472499999988,
          "durationTicks": 96,
          "midi": 44,
          "name": "G#2",
          "ticks": 80640,
          "time": 66.31569,
          "velocity": 0.14173228346456693
        },
        {
          "duration": 0.0789472499999988,
          "durationTicks": 96,
          "midi": 44,
          "name": "G#2",
          "ticks": 80832,
          "time": 66.4735845,
          "velocity": 0.14173228346456693
        },
        {
          "duration": 0.0789472499999988,
          "durationTicks": 96,
          "midi": 40,
          "name": "E2",
          "ticks": 81024,
          "time": 66.631479,
          "velocity": 0.14173228346456693
        },
        {
          "duration": 0.0789472499999988,
          "durationTicks": 96,
          "midi": 36,
          "name": "C2",
          "ticks": 81024,
          "time": 66.631479,
          "velocity": 0.14173228346456693
        },
        {
          "duration": 0.0789472499999988,
          "durationTicks": 96,
          "midi": 38,
          "name": "D2",
          "ticks": 81024,
          "time": 66.631479,
          "velocity": 0.14173228346456693
        },
        {
          "duration": 0.0789472499999988,
          "durationTicks": 96,
          "midi": 42,
          "name": "F#2",
          "ticks": 81024,
          "time": 66.631479,
          "velocity": 0.14173228346456693
        },
        {
          "duration": 0.0789472499999988,
          "durationTicks": 96,
          "midi": 42,
          "name": "F#2",
          "ticks": 81216,
          "time": 66.7893735,
          "velocity": 0.14173228346456693
        },
        {
          "duration": 0.0789472499999988,
          "durationTicks": 96,
          "midi": 42,
          "name": "F#2",
          "ticks": 81408,
          "time": 66.947268,
          "velocity": 0.14173228346456693
        },
        {
          "duration": 0.0789472499999988,
          "durationTicks": 96,
          "midi": 44,
          "name": "G#2",
          "ticks": 81408,
          "time": 66.947268,
          "velocity": 0.14173228346456693
        },
        {
          "duration": 0.0789472499999988,
          "durationTicks": 96,
          "midi": 35,
          "name": "B1",
          "ticks": 81408,
          "time": 66.947268,
          "velocity": 0.14173228346456693
        },
        {
          "duration": 0.0789472499999988,
          "durationTicks": 96,
          "midi": 42,
          "name": "F#2",
          "ticks": 81600,
          "time": 67.10516249999999,
          "velocity": 0.14173228346456693
        },
        {
          "duration": 0.0789472499999988,
          "durationTicks": 96,
          "midi": 38,
          "name": "D2",
          "ticks": 81792,
          "time": 67.263057,
          "velocity": 0.14173228346456693
        },
        {
          "duration": 0.0789472499999988,
          "durationTicks": 96,
          "midi": 36,
          "name": "C2",
          "ticks": 81792,
          "time": 67.263057,
          "velocity": 0.14173228346456693
        },
        {
          "duration": 0.0789472499999988,
          "durationTicks": 96,
          "midi": 36,
          "name": "C2",
          "ticks": 81984,
          "time": 67.4209515,
          "velocity": 0.14173228346456693
        },
        {
          "duration": 0.0789472499999988,
          "durationTicks": 96,
          "midi": 38,
          "name": "D2",
          "ticks": 81984,
          "time": 67.4209515,
          "velocity": 0.14173228346456693
        },
        {
          "duration": 0.0789472499999988,
          "durationTicks": 96,
          "midi": 44,
          "name": "G#2",
          "ticks": 81984,
          "time": 67.4209515,
          "velocity": 0.14173228346456693
        },
        {
          "duration": 0.0789472499999988,
          "durationTicks": 96,
          "midi": 42,
          "name": "F#2",
          "ticks": 81984,
          "time": 67.4209515,
          "velocity": 0.14173228346456693
        },
        {
          "duration": 0.0789472499999988,
          "durationTicks": 96,
          "midi": 42,
          "name": "F#2",
          "ticks": 82176,
          "time": 67.578846,
          "velocity": 0.14173228346456693
        },
        {
          "duration": 0.0789472499999988,
          "durationTicks": 96,
          "midi": 44,
          "name": "G#2",
          "ticks": 82176,
          "time": 67.578846,
          "velocity": 0.14173228346456693
        },
        {
          "duration": 0.0789472499999988,
          "durationTicks": 96,
          "midi": 44,
          "name": "G#2",
          "ticks": 82368,
          "time": 67.7367405,
          "velocity": 0.14173228346456693
        },
        {
          "duration": 0.0789472499999988,
          "durationTicks": 96,
          "midi": 36,
          "name": "C2",
          "ticks": 82560,
          "time": 67.894635,
          "velocity": 0.14173228346456693
        },
        {
          "duration": 0.0789472499999988,
          "durationTicks": 96,
          "midi": 38,
          "name": "D2",
          "ticks": 82560,
          "time": 67.894635,
          "velocity": 0.14173228346456693
        },
        {
          "duration": 0.0789472499999988,
          "durationTicks": 96,
          "midi": 42,
          "name": "F#2",
          "ticks": 82560,
          "time": 67.894635,
          "velocity": 0.14173228346456693
        },
        {
          "duration": 0.0789472499999988,
          "durationTicks": 96,
          "midi": 40,
          "name": "E2",
          "ticks": 82560,
          "time": 67.894635,
          "velocity": 0.14173228346456693
        },
        {
          "duration": 0.0789472499999988,
          "durationTicks": 96,
          "midi": 42,
          "name": "F#2",
          "ticks": 82752,
          "time": 68.05252949999999,
          "velocity": 0.14173228346456693
        },
        {
          "duration": 0.0789472499999988,
          "durationTicks": 96,
          "midi": 44,
          "name": "G#2",
          "ticks": 82944,
          "time": 68.210424,
          "velocity": 0.14173228346456693
        },
        {
          "duration": 0.0789472499999988,
          "durationTicks": 96,
          "midi": 35,
          "name": "B1",
          "ticks": 82944,
          "time": 68.210424,
          "velocity": 0.14173228346456693
        },
        {
          "duration": 0.0789472499999988,
          "durationTicks": 96,
          "midi": 42,
          "name": "F#2",
          "ticks": 82944,
          "time": 68.210424,
          "velocity": 0.14173228346456693
        },
        {
          "duration": 0.0789472499999988,
          "durationTicks": 96,
          "midi": 42,
          "name": "F#2",
          "ticks": 83136,
          "time": 68.3683185,
          "velocity": 0.14173228346456693
        },
        {
          "duration": 0.0789472499999988,
          "durationTicks": 96,
          "midi": 38,
          "name": "D2",
          "ticks": 83328,
          "time": 68.526213,
          "velocity": 0.14173228346456693
        },
        {
          "duration": 0.0789472499999988,
          "durationTicks": 96,
          "midi": 36,
          "name": "C2",
          "ticks": 83328,
          "time": 68.526213,
          "velocity": 0.14173228346456693
        },
        {
          "duration": 0.0789472499999988,
          "durationTicks": 96,
          "midi": 44,
          "name": "G#2",
          "ticks": 83520,
          "time": 68.6841075,
          "velocity": 0.14173228346456693
        },
        {
          "duration": 0.0789472499999988,
          "durationTicks": 96,
          "midi": 38,
          "name": "D2",
          "ticks": 83520,
          "time": 68.6841075,
          "velocity": 0.14173228346456693
        },
        {
          "duration": 0.0789472499999988,
          "durationTicks": 96,
          "midi": 36,
          "name": "C2",
          "ticks": 83520,
          "time": 68.6841075,
          "velocity": 0.14173228346456693
        },
        {
          "duration": 0.0789472499999988,
          "durationTicks": 96,
          "midi": 42,
          "name": "F#2",
          "ticks": 83520,
          "time": 68.6841075,
          "velocity": 0.14173228346456693
        },
        {
          "duration": 0.0789472499999988,
          "durationTicks": 96,
          "midi": 42,
          "name": "F#2",
          "ticks": 83712,
          "time": 68.842002,
          "velocity": 0.14173228346456693
        },
        {
          "duration": 0.0789472499999988,
          "durationTicks": 96,
          "midi": 44,
          "name": "G#2",
          "ticks": 83712,
          "time": 68.842002,
          "velocity": 0.14173228346456693
        },
        {
          "duration": 0.0789472499999988,
          "durationTicks": 96,
          "midi": 44,
          "name": "G#2",
          "ticks": 83904,
          "time": 68.99989649999999,
          "velocity": 0.14173228346456693
        },
        {
          "duration": 0.0789472499999988,
          "durationTicks": 96,
          "midi": 40,
          "name": "E2",
          "ticks": 84096,
          "time": 69.157791,
          "velocity": 0.14173228346456693
        },
        {
          "duration": 0.0789472499999988,
          "durationTicks": 96,
          "midi": 36,
          "name": "C2",
          "ticks": 84096,
          "time": 69.157791,
          "velocity": 0.14173228346456693
        },
        {
          "duration": 0.0789472499999988,
          "durationTicks": 96,
          "midi": 38,
          "name": "D2",
          "ticks": 84096,
          "time": 69.157791,
          "velocity": 0.14173228346456693
        },
        {
          "duration": 0.0789472499999988,
          "durationTicks": 96,
          "midi": 42,
          "name": "F#2",
          "ticks": 84096,
          "time": 69.157791,
          "velocity": 0.14173228346456693
        },
        {
          "duration": 0.0789472499999988,
          "durationTicks": 96,
          "midi": 42,
          "name": "F#2",
          "ticks": 84288,
          "time": 69.3156855,
          "velocity": 0.14173228346456693
        },
        {
          "duration": 0.0789472499999988,
          "durationTicks": 96,
          "midi": 44,
          "name": "G#2",
          "ticks": 84480,
          "time": 69.47358,
          "velocity": 0.14173228346456693
        },
        {
          "duration": 0.0789472499999988,
          "durationTicks": 96,
          "midi": 35,
          "name": "B1",
          "ticks": 84480,
          "time": 69.47358,
          "velocity": 0.14173228346456693
        },
        {
          "duration": 0.0789472499999988,
          "durationTicks": 96,
          "midi": 42,
          "name": "F#2",
          "ticks": 84480,
          "time": 69.47358,
          "velocity": 0.14173228346456693
        },
        {
          "duration": 0.0789472499999988,
          "durationTicks": 96,
          "midi": 42,
          "name": "F#2",
          "ticks": 84672,
          "time": 69.6314745,
          "velocity": 0.14173228346456693
        },
        {
          "duration": 0.0789472499999988,
          "durationTicks": 96,
          "midi": 38,
          "name": "D2",
          "ticks": 84864,
          "time": 69.789369,
          "velocity": 0.14173228346456693
        },
        {
          "duration": 0.0789472499999988,
          "durationTicks": 96,
          "midi": 36,
          "name": "C2",
          "ticks": 84864,
          "time": 69.789369,
          "velocity": 0.14173228346456693
        },
        {
          "duration": 0.0789472499999988,
          "durationTicks": 96,
          "midi": 38,
          "name": "D2",
          "ticks": 85056,
          "time": 69.94726349999999,
          "velocity": 0.14173228346456693
        },
        {
          "duration": 0.0789472499999988,
          "durationTicks": 96,
          "midi": 36,
          "name": "C2",
          "ticks": 85056,
          "time": 69.94726349999999,
          "velocity": 0.14173228346456693
        },
        {
          "duration": 0.0789472499999988,
          "durationTicks": 96,
          "midi": 44,
          "name": "G#2",
          "ticks": 85056,
          "time": 69.94726349999999,
          "velocity": 0.14173228346456693
        },
        {
          "duration": 0.0789472499999988,
          "durationTicks": 96,
          "midi": 42,
          "name": "F#2",
          "ticks": 85056,
          "time": 69.94726349999999,
          "velocity": 0.14173228346456693
        },
        {
          "duration": 0.0789472499999988,
          "durationTicks": 96,
          "midi": 44,
          "name": "G#2",
          "ticks": 85248,
          "time": 70.105158,
          "velocity": 0.14173228346456693
        },
        {
          "duration": 0.0789472499999988,
          "durationTicks": 96,
          "midi": 42,
          "name": "F#2",
          "ticks": 85248,
          "time": 70.105158,
          "velocity": 0.14173228346456693
        },
        {
          "duration": 0.0789472499999988,
          "durationTicks": 96,
          "midi": 44,
          "name": "G#2",
          "ticks": 85440,
          "time": 70.2630525,
          "velocity": 0.14173228346456693
        },
        {
          "duration": 0.0789472499999988,
          "durationTicks": 96,
          "midi": 38,
          "name": "D2",
          "ticks": 85632,
          "time": 70.420947,
          "velocity": 0.14173228346456693
        },
        {
          "duration": 0.0789472499999988,
          "durationTicks": 96,
          "midi": 36,
          "name": "C2",
          "ticks": 85632,
          "time": 70.420947,
          "velocity": 0.14173228346456693
        },
        {
          "duration": 0.0789472499999988,
          "durationTicks": 96,
          "midi": 42,
          "name": "F#2",
          "ticks": 85632,
          "time": 70.420947,
          "velocity": 0.14173228346456693
        },
        {
          "duration": 0.0789472499999988,
          "durationTicks": 96,
          "midi": 40,
          "name": "E2",
          "ticks": 85632,
          "time": 70.420947,
          "velocity": 0.14173228346456693
        },
        {
          "duration": 0.0789472499999988,
          "durationTicks": 96,
          "midi": 42,
          "name": "F#2",
          "ticks": 85824,
          "time": 70.5788415,
          "velocity": 0.14173228346456693
        },
        {
          "duration": 0.0789472499999988,
          "durationTicks": 96,
          "midi": 42,
          "name": "F#2",
          "ticks": 86016,
          "time": 70.736736,
          "velocity": 0.14173228346456693
        },
        {
          "duration": 0.0789472499999988,
          "durationTicks": 96,
          "midi": 35,
          "name": "B1",
          "ticks": 86016,
          "time": 70.736736,
          "velocity": 0.14173228346456693
        },
        {
          "duration": 0.0789472499999988,
          "durationTicks": 96,
          "midi": 44,
          "name": "G#2",
          "ticks": 86016,
          "time": 70.736736,
          "velocity": 0.14173228346456693
        },
        {
          "duration": 0.07894725000001301,
          "durationTicks": 96,
          "midi": 42,
          "name": "F#2",
          "ticks": 86208,
          "time": 70.89463049999999,
          "velocity": 0.14173228346456693
        },
        {
          "duration": 0.0789472499999988,
          "durationTicks": 96,
          "midi": 36,
          "name": "C2",
          "ticks": 86400,
          "time": 71.052525,
          "velocity": 0.14173228346456693
        },
        {
          "duration": 0.0789472499999988,
          "durationTicks": 96,
          "midi": 38,
          "name": "D2",
          "ticks": 86400,
          "time": 71.052525,
          "velocity": 0.14173228346456693
        },
        {
          "duration": 0.0789472499999988,
          "durationTicks": 96,
          "midi": 44,
          "name": "G#2",
          "ticks": 86592,
          "time": 71.2104195,
          "velocity": 0.14173228346456693
        },
        {
          "duration": 0.0789472499999988,
          "durationTicks": 96,
          "midi": 42,
          "name": "F#2",
          "ticks": 86592,
          "time": 71.2104195,
          "velocity": 0.14173228346456693
        },
        {
          "duration": 0.0789472499999988,
          "durationTicks": 96,
          "midi": 38,
          "name": "D2",
          "ticks": 86592,
          "time": 71.2104195,
          "velocity": 0.14173228346456693
        },
        {
          "duration": 0.0789472499999988,
          "durationTicks": 96,
          "midi": 36,
          "name": "C2",
          "ticks": 86592,
          "time": 71.2104195,
          "velocity": 0.14173228346456693
        },
        {
          "duration": 0.0789472499999988,
          "durationTicks": 96,
          "midi": 42,
          "name": "F#2",
          "ticks": 86784,
          "time": 71.368314,
          "velocity": 0.14173228346456693
        },
        {
          "duration": 0.0789472499999988,
          "durationTicks": 96,
          "midi": 44,
          "name": "G#2",
          "ticks": 86784,
          "time": 71.368314,
          "velocity": 0.14173228346456693
        },
        {
          "duration": 0.0789472499999988,
          "durationTicks": 96,
          "midi": 44,
          "name": "G#2",
          "ticks": 86976,
          "time": 71.5262085,
          "velocity": 0.14173228346456693
        },
        {
          "duration": 0.0789472499999988,
          "durationTicks": 96,
          "midi": 42,
          "name": "F#2",
          "ticks": 87168,
          "time": 71.684103,
          "velocity": 0.14173228346456693
        },
        {
          "duration": 0.0789472499999988,
          "durationTicks": 96,
          "midi": 40,
          "name": "E2",
          "ticks": 87168,
          "time": 71.684103,
          "velocity": 0.14173228346456693
        },
        {
          "duration": 0.0789472499999988,
          "durationTicks": 96,
          "midi": 36,
          "name": "C2",
          "ticks": 87168,
          "time": 71.684103,
          "velocity": 0.14173228346456693
        },
        {
          "duration": 0.0789472499999988,
          "durationTicks": 96,
          "midi": 38,
          "name": "D2",
          "ticks": 87168,
          "time": 71.684103,
          "velocity": 0.14173228346456693
        },
        {
          "duration": 0.07894725000001301,
          "durationTicks": 96,
          "midi": 42,
          "name": "F#2",
          "ticks": 87360,
          "time": 71.84199749999999,
          "velocity": 0.14173228346456693
        },
        {
          "duration": 0.0789472499999988,
          "durationTicks": 96,
          "midi": 44,
          "name": "G#2",
          "ticks": 87552,
          "time": 71.999892,
          "velocity": 0.14173228346456693
        },
        {
          "duration": 0.0789472499999988,
          "durationTicks": 96,
          "midi": 42,
          "name": "F#2",
          "ticks": 87552,
          "time": 71.999892,
          "velocity": 0.14173228346456693
        },
        {
          "duration": 0.0789472499999988,
          "durationTicks": 96,
          "midi": 35,
          "name": "B1",
          "ticks": 87552,
          "time": 71.999892,
          "velocity": 0.14173228346456693
        },
        {
          "duration": 0.0789472499999988,
          "durationTicks": 96,
          "midi": 42,
          "name": "F#2",
          "ticks": 87744,
          "time": 72.1577865,
          "velocity": 0.14173228346456693
        },
        {
          "duration": 0.0789472499999988,
          "durationTicks": 96,
          "midi": 36,
          "name": "C2",
          "ticks": 87936,
          "time": 72.315681,
          "velocity": 0.14173228346456693
        },
        {
          "duration": 0.0789472499999988,
          "durationTicks": 96,
          "midi": 38,
          "name": "D2",
          "ticks": 87936,
          "time": 72.315681,
          "velocity": 0.14173228346456693
        },
        {
          "duration": 0.0789472499999988,
          "durationTicks": 96,
          "midi": 42,
          "name": "F#2",
          "ticks": 88128,
          "time": 72.4735755,
          "velocity": 0.14173228346456693
        },
        {
          "duration": 0.0789472499999988,
          "durationTicks": 96,
          "midi": 38,
          "name": "D2",
          "ticks": 88128,
          "time": 72.4735755,
          "velocity": 0.14173228346456693
        },
        {
          "duration": 0.0789472499999988,
          "durationTicks": 96,
          "midi": 36,
          "name": "C2",
          "ticks": 88128,
          "time": 72.4735755,
          "velocity": 0.14173228346456693
        },
        {
          "duration": 0.0789472499999988,
          "durationTicks": 96,
          "midi": 44,
          "name": "G#2",
          "ticks": 88128,
          "time": 72.4735755,
          "velocity": 0.14173228346456693
        },
        {
          "duration": 0.0789472499999988,
          "durationTicks": 96,
          "midi": 42,
          "name": "F#2",
          "ticks": 88320,
          "time": 72.63147,
          "velocity": 0.14173228346456693
        },
        {
          "duration": 0.0789472499999988,
          "durationTicks": 96,
          "midi": 44,
          "name": "G#2",
          "ticks": 88320,
          "time": 72.63147,
          "velocity": 0.14173228346456693
        },
        {
          "duration": 0.07894725000001301,
          "durationTicks": 96,
          "midi": 44,
          "name": "G#2",
          "ticks": 88512,
          "time": 72.78936449999999,
          "velocity": 0.14173228346456693
        },
        {
          "duration": 0.0789472499999988,
          "durationTicks": 96,
          "midi": 40,
          "name": "E2",
          "ticks": 88704,
          "time": 72.947259,
          "velocity": 0.14173228346456693
        },
        {
          "duration": 0.0789472499999988,
          "durationTicks": 96,
          "midi": 42,
          "name": "F#2",
          "ticks": 88704,
          "time": 72.947259,
          "velocity": 0.14173228346456693
        },
        {
          "duration": 0.0789472499999988,
          "durationTicks": 96,
          "midi": 38,
          "name": "D2",
          "ticks": 88704,
          "time": 72.947259,
          "velocity": 0.14173228346456693
        },
        {
          "duration": 0.0789472499999988,
          "durationTicks": 96,
          "midi": 36,
          "name": "C2",
          "ticks": 88704,
          "time": 72.947259,
          "velocity": 0.14173228346456693
        },
        {
          "duration": 0.0789472499999988,
          "durationTicks": 96,
          "midi": 42,
          "name": "F#2",
          "ticks": 88896,
          "time": 73.1051535,
          "velocity": 0.14173228346456693
        },
        {
          "duration": 0.0789472499999988,
          "durationTicks": 96,
          "midi": 44,
          "name": "G#2",
          "ticks": 89088,
          "time": 73.263048,
          "velocity": 0.14173228346456693
        },
        {
          "duration": 0.0789472499999988,
          "durationTicks": 96,
          "midi": 42,
          "name": "F#2",
          "ticks": 89088,
          "time": 73.263048,
          "velocity": 0.14173228346456693
        },
        {
          "duration": 0.0789472499999988,
          "durationTicks": 96,
          "midi": 35,
          "name": "B1",
          "ticks": 89088,
          "time": 73.263048,
          "velocity": 0.14173228346456693
        },
        {
          "duration": 0.0789472499999988,
          "durationTicks": 96,
          "midi": 42,
          "name": "F#2",
          "ticks": 89280,
          "time": 73.4209425,
          "velocity": 0.14173228346456693
        },
        {
          "duration": 0.0789472499999988,
          "durationTicks": 96,
          "midi": 38,
          "name": "D2",
          "ticks": 89472,
          "time": 73.578837,
          "velocity": 0.14173228346456693
        },
        {
          "duration": 0.0789472499999988,
          "durationTicks": 96,
          "midi": 36,
          "name": "C2",
          "ticks": 89472,
          "time": 73.578837,
          "velocity": 0.14173228346456693
        },
        {
          "duration": 0.07894725000001301,
          "durationTicks": 96,
          "midi": 38,
          "name": "D2",
          "ticks": 89664,
          "time": 73.73673149999999,
          "velocity": 0.14173228346456693
        },
        {
          "duration": 0.07894725000001301,
          "durationTicks": 96,
          "midi": 42,
          "name": "F#2",
          "ticks": 89664,
          "time": 73.73673149999999,
          "velocity": 0.14173228346456693
        },
        {
          "duration": 0.07894725000001301,
          "durationTicks": 96,
          "midi": 44,
          "name": "G#2",
          "ticks": 89664,
          "time": 73.73673149999999,
          "velocity": 0.14173228346456693
        },
        {
          "duration": 0.07894725000001301,
          "durationTicks": 96,
          "midi": 36,
          "name": "C2",
          "ticks": 89664,
          "time": 73.73673149999999,
          "velocity": 0.14173228346456693
        },
        {
          "duration": 0.0789472499999988,
          "durationTicks": 96,
          "midi": 42,
          "name": "F#2",
          "ticks": 89856,
          "time": 73.894626,
          "velocity": 0.14173228346456693
        },
        {
          "duration": 0.0789472499999988,
          "durationTicks": 96,
          "midi": 44,
          "name": "G#2",
          "ticks": 89856,
          "time": 73.894626,
          "velocity": 0.14173228346456693
        },
        {
          "duration": 0.0789472499999988,
          "durationTicks": 96,
          "midi": 44,
          "name": "G#2",
          "ticks": 90048,
          "time": 74.0525205,
          "velocity": 0.14173228346456693
        },
        {
          "duration": 0.0789472499999988,
          "durationTicks": 96,
          "midi": 38,
          "name": "D2",
          "ticks": 90240,
          "time": 74.210415,
          "velocity": 0.14173228346456693
        },
        {
          "duration": 0.0789472499999988,
          "durationTicks": 96,
          "midi": 42,
          "name": "F#2",
          "ticks": 90240,
          "time": 74.210415,
          "velocity": 0.14173228346456693
        },
        {
          "duration": 0.0789472499999988,
          "durationTicks": 96,
          "midi": 36,
          "name": "C2",
          "ticks": 90240,
          "time": 74.210415,
          "velocity": 0.14173228346456693
        },
        {
          "duration": 0.0789472499999988,
          "durationTicks": 96,
          "midi": 40,
          "name": "E2",
          "ticks": 90240,
          "time": 74.210415,
          "velocity": 0.14173228346456693
        },
        {
          "duration": 0.0789472499999988,
          "durationTicks": 96,
          "midi": 42,
          "name": "F#2",
          "ticks": 90432,
          "time": 74.3683095,
          "velocity": 0.14173228346456693
        },
        {
          "duration": 0.0789472499999988,
          "durationTicks": 96,
          "midi": 44,
          "name": "G#2",
          "ticks": 90624,
          "time": 74.52620399999999,
          "velocity": 0.14173228346456693
        },
        {
          "duration": 0.0789472499999988,
          "durationTicks": 96,
          "midi": 35,
          "name": "B1",
          "ticks": 90624,
          "time": 74.52620399999999,
          "velocity": 0.14173228346456693
        },
        {
          "duration": 0.0789472499999988,
          "durationTicks": 96,
          "midi": 42,
          "name": "F#2",
          "ticks": 90624,
          "time": 74.52620399999999,
          "velocity": 0.14173228346456693
        },
        {
          "duration": 0.07894725000001301,
          "durationTicks": 96,
          "midi": 42,
          "name": "F#2",
          "ticks": 90816,
          "time": 74.68409849999999,
          "velocity": 0.14173228346456693
        },
        {
          "duration": 0.0789472499999988,
          "durationTicks": 96,
          "midi": 36,
          "name": "C2",
          "ticks": 91008,
          "time": 74.841993,
          "velocity": 0.14173228346456693
        },
        {
          "duration": 0.0789472499999988,
          "durationTicks": 96,
          "midi": 38,
          "name": "D2",
          "ticks": 91008,
          "time": 74.841993,
          "velocity": 0.14173228346456693
        },
        {
          "duration": 0.0789472499999988,
          "durationTicks": 96,
          "midi": 44,
          "name": "G#2",
          "ticks": 91200,
          "time": 74.9998875,
          "velocity": 0.14173228346456693
        },
        {
          "duration": 0.0789472499999988,
          "durationTicks": 96,
          "midi": 38,
          "name": "D2",
          "ticks": 91200,
          "time": 74.9998875,
          "velocity": 0.14173228346456693
        },
        {
          "duration": 0.0789472499999988,
          "durationTicks": 96,
          "midi": 36,
          "name": "C2",
          "ticks": 91200,
          "time": 74.9998875,
          "velocity": 0.14173228346456693
        },
        {
          "duration": 0.0789472499999988,
          "durationTicks": 96,
          "midi": 42,
          "name": "F#2",
          "ticks": 91200,
          "time": 74.9998875,
          "velocity": 0.14173228346456693
        },
        {
          "duration": 0.0789472499999988,
          "durationTicks": 96,
          "midi": 42,
          "name": "F#2",
          "ticks": 91392,
          "time": 75.157782,
          "velocity": 0.14173228346456693
        },
        {
          "duration": 0.0789472499999988,
          "durationTicks": 96,
          "midi": 44,
          "name": "G#2",
          "ticks": 91392,
          "time": 75.157782,
          "velocity": 0.14173228346456693
        },
        {
          "duration": 0.0789472499999988,
          "durationTicks": 96,
          "midi": 44,
          "name": "G#2",
          "ticks": 91584,
          "time": 75.3156765,
          "velocity": 0.14173228346456693
        },
        {
          "duration": 0.0789472499999988,
          "durationTicks": 96,
          "midi": 42,
          "name": "F#2",
          "ticks": 91776,
          "time": 75.47357099999999,
          "velocity": 0.14173228346456693
        },
        {
          "duration": 0.0789472499999988,
          "durationTicks": 96,
          "midi": 40,
          "name": "E2",
          "ticks": 91776,
          "time": 75.47357099999999,
          "velocity": 0.14173228346456693
        },
        {
          "duration": 0.0789472499999988,
          "durationTicks": 96,
          "midi": 38,
          "name": "D2",
          "ticks": 91776,
          "time": 75.47357099999999,
          "velocity": 0.14173228346456693
        },
        {
          "duration": 0.0789472499999988,
          "durationTicks": 96,
          "midi": 36,
          "name": "C2",
          "ticks": 91776,
          "time": 75.47357099999999,
          "velocity": 0.14173228346456693
        },
        {
          "duration": 0.07894725000001301,
          "durationTicks": 96,
          "midi": 42,
          "name": "F#2",
          "ticks": 91968,
          "time": 75.63146549999999,
          "velocity": 0.14173228346456693
        },
        {
          "duration": 0.0789472499999988,
          "durationTicks": 96,
          "midi": 42,
          "name": "F#2",
          "ticks": 92160,
          "time": 75.78936,
          "velocity": 0.14173228346456693
        },
        {
          "duration": 0.0789472499999988,
          "durationTicks": 96,
          "midi": 44,
          "name": "G#2",
          "ticks": 92160,
          "time": 75.78936,
          "velocity": 0.14173228346456693
        },
        {
          "duration": 0.0789472499999988,
          "durationTicks": 96,
          "midi": 35,
          "name": "B1",
          "ticks": 92160,
          "time": 75.78936,
          "velocity": 0.14173228346456693
        },
        {
          "duration": 0.0789472499999988,
          "durationTicks": 96,
          "midi": 42,
          "name": "F#2",
          "ticks": 92352,
          "time": 75.9472545,
          "velocity": 0.14173228346456693
        },
        {
          "duration": 0.0789472499999988,
          "durationTicks": 96,
          "midi": 36,
          "name": "C2",
          "ticks": 92544,
          "time": 76.105149,
          "velocity": 0.14173228346456693
        },
        {
          "duration": 0.0789472499999988,
          "durationTicks": 96,
          "midi": 38,
          "name": "D2",
          "ticks": 92544,
          "time": 76.105149,
          "velocity": 0.14173228346456693
        },
        {
          "duration": 0.0789472499999988,
          "durationTicks": 96,
          "midi": 42,
          "name": "F#2",
          "ticks": 92736,
          "time": 76.2630435,
          "velocity": 0.14173228346456693
        },
        {
          "duration": 0.0789472499999988,
          "durationTicks": 96,
          "midi": 36,
          "name": "C2",
          "ticks": 92736,
          "time": 76.2630435,
          "velocity": 0.14173228346456693
        },
        {
          "duration": 0.0789472499999988,
          "durationTicks": 96,
          "midi": 38,
          "name": "D2",
          "ticks": 92736,
          "time": 76.2630435,
          "velocity": 0.14173228346456693
        },
        {
          "duration": 0.0789472499999988,
          "durationTicks": 96,
          "midi": 44,
          "name": "G#2",
          "ticks": 92736,
          "time": 76.2630435,
          "velocity": 0.14173228346456693
        },
        {
          "duration": 0.0789472499999988,
          "durationTicks": 96,
          "midi": 42,
          "name": "F#2",
          "ticks": 92928,
          "time": 76.42093799999999,
          "velocity": 0.14173228346456693
        },
        {
          "duration": 0.0789472499999988,
          "durationTicks": 96,
          "midi": 44,
          "name": "G#2",
          "ticks": 92928,
          "time": 76.42093799999999,
          "velocity": 0.14173228346456693
        },
        {
          "duration": 0.07894725000001301,
          "durationTicks": 96,
          "midi": 44,
          "name": "G#2",
          "ticks": 93120,
          "time": 76.57883249999999,
          "velocity": 0.14173228346456693
        },
        {
          "duration": 0.0789472499999988,
          "durationTicks": 96,
          "midi": 38,
          "name": "D2",
          "ticks": 93312,
          "time": 76.736727,
          "velocity": 0.14173228346456693
        },
        {
          "duration": 0.0789472499999988,
          "durationTicks": 96,
          "midi": 42,
          "name": "F#2",
          "ticks": 93312,
          "time": 76.736727,
          "velocity": 0.14173228346456693
        },
        {
          "duration": 0.0789472499999988,
          "durationTicks": 96,
          "midi": 40,
          "name": "E2",
          "ticks": 93312,
          "time": 76.736727,
          "velocity": 0.14173228346456693
        },
        {
          "duration": 0.0789472499999988,
          "durationTicks": 96,
          "midi": 36,
          "name": "C2",
          "ticks": 93312,
          "time": 76.736727,
          "velocity": 0.14173228346456693
        },
        {
          "duration": 0.0789472499999988,
          "durationTicks": 96,
          "midi": 42,
          "name": "F#2",
          "ticks": 93504,
          "time": 76.8946215,
          "velocity": 0.14173228346456693
        },
        {
          "duration": 0.0789472499999988,
          "durationTicks": 96,
          "midi": 44,
          "name": "G#2",
          "ticks": 93696,
          "time": 77.052516,
          "velocity": 0.14173228346456693
        },
        {
          "duration": 0.0789472499999988,
          "durationTicks": 96,
          "midi": 42,
          "name": "F#2",
          "ticks": 93696,
          "time": 77.052516,
          "velocity": 0.14173228346456693
        },
        {
          "duration": 0.0789472499999988,
          "durationTicks": 96,
          "midi": 35,
          "name": "B1",
          "ticks": 93696,
          "time": 77.052516,
          "velocity": 0.14173228346456693
        },
        {
          "duration": 0.0789472499999988,
          "durationTicks": 96,
          "midi": 42,
          "name": "F#2",
          "ticks": 93888,
          "time": 77.2104105,
          "velocity": 0.14173228346456693
        },
        {
          "duration": 0.0789472499999988,
          "durationTicks": 96,
          "midi": 36,
          "name": "C2",
          "ticks": 94080,
          "time": 77.36830499999999,
          "velocity": 0.14173228346456693
        },
        {
          "duration": 0.0789472499999988,
          "durationTicks": 96,
          "midi": 38,
          "name": "D2",
          "ticks": 94080,
          "time": 77.36830499999999,
          "velocity": 0.14173228346456693
        },
        {
          "duration": 0.07894725000001301,
          "durationTicks": 96,
          "midi": 42,
          "name": "F#2",
          "ticks": 94272,
          "time": 77.52619949999999,
          "velocity": 0.14173228346456693
        },
        {
          "duration": 0.07894725000001301,
          "durationTicks": 96,
          "midi": 36,
          "name": "C2",
          "ticks": 94272,
          "time": 77.52619949999999,
          "velocity": 0.14173228346456693
        },
        {
          "duration": 0.07894725000001301,
          "durationTicks": 96,
          "midi": 44,
          "name": "G#2",
          "ticks": 94272,
          "time": 77.52619949999999,
          "velocity": 0.14173228346456693
        },
        {
          "duration": 0.07894725000001301,
          "durationTicks": 96,
          "midi": 38,
          "name": "D2",
          "ticks": 94272,
          "time": 77.52619949999999,
          "velocity": 0.14173228346456693
        },
        {
          "duration": 0.0789472499999988,
          "durationTicks": 96,
          "midi": 42,
          "name": "F#2",
          "ticks": 94464,
          "time": 77.684094,
          "velocity": 0.14173228346456693
        },
        {
          "duration": 0.0789472499999988,
          "durationTicks": 96,
          "midi": 44,
          "name": "G#2",
          "ticks": 94464,
          "time": 77.684094,
          "velocity": 0.14173228346456693
        },
        {
          "duration": 0.0789472499999988,
          "durationTicks": 96,
          "midi": 44,
          "name": "G#2",
          "ticks": 94656,
          "time": 77.8419885,
          "velocity": 0.14173228346456693
        },
        {
          "duration": 0.0789472499999988,
          "durationTicks": 96,
          "midi": 42,
          "name": "F#2",
          "ticks": 94848,
          "time": 77.999883,
          "velocity": 0.14173228346456693
        },
        {
          "duration": 0.0789472499999988,
          "durationTicks": 96,
          "midi": 38,
          "name": "D2",
          "ticks": 94848,
          "time": 77.999883,
          "velocity": 0.14173228346456693
        },
        {
          "duration": 0.0789472499999988,
          "durationTicks": 96,
          "midi": 36,
          "name": "C2",
          "ticks": 94848,
          "time": 77.999883,
          "velocity": 0.14173228346456693
        },
        {
          "duration": 0.0789472499999988,
          "durationTicks": 96,
          "midi": 40,
          "name": "E2",
          "ticks": 94848,
          "time": 77.999883,
          "velocity": 0.14173228346456693
        },
        {
          "duration": 0.0789472499999988,
          "durationTicks": 96,
          "midi": 42,
          "name": "F#2",
          "ticks": 95040,
          "time": 78.1577775,
          "velocity": 0.14173228346456693
        },
        {
          "duration": 0.0789472499999988,
          "durationTicks": 96,
          "midi": 35,
          "name": "B1",
          "ticks": 95232,
          "time": 78.31567199999999,
          "velocity": 0.14173228346456693
        },
        {
          "duration": 0.0789472499999988,
          "durationTicks": 96,
          "midi": 42,
          "name": "F#2",
          "ticks": 95232,
          "time": 78.31567199999999,
          "velocity": 0.14173228346456693
        },
        {
          "duration": 0.0789472499999988,
          "durationTicks": 96,
          "midi": 44,
          "name": "G#2",
          "ticks": 95232,
          "time": 78.31567199999999,
          "velocity": 0.14173228346456693
        },
        {
          "duration": 0.07894725000001301,
          "durationTicks": 96,
          "midi": 42,
          "name": "F#2",
          "ticks": 95424,
          "time": 78.47356649999999,
          "velocity": 0.14173228346456693
        },
        {
          "duration": 0.0789472499999988,
          "durationTicks": 96,
          "midi": 38,
          "name": "D2",
          "ticks": 95616,
          "time": 78.631461,
          "velocity": 0.14173228346456693
        },
        {
          "duration": 0.0789472499999988,
          "durationTicks": 96,
          "midi": 36,
          "name": "C2",
          "ticks": 95616,
          "time": 78.631461,
          "velocity": 0.14173228346456693
        },
        {
          "duration": 0.0789472499999988,
          "durationTicks": 96,
          "midi": 36,
          "name": "C2",
          "ticks": 95808,
          "time": 78.7893555,
          "velocity": 0.14173228346456693
        },
        {
          "duration": 0.0789472499999988,
          "durationTicks": 96,
          "midi": 38,
          "name": "D2",
          "ticks": 95808,
          "time": 78.7893555,
          "velocity": 0.14173228346456693
        },
        {
          "duration": 0.0789472499999988,
          "durationTicks": 96,
          "midi": 42,
          "name": "F#2",
          "ticks": 95808,
          "time": 78.7893555,
          "velocity": 0.14173228346456693
        },
        {
          "duration": 0.0789472499999988,
          "durationTicks": 96,
          "midi": 44,
          "name": "G#2",
          "ticks": 95808,
          "time": 78.7893555,
          "velocity": 0.14173228346456693
        },
        {
          "duration": 0.0789472499999988,
          "durationTicks": 96,
          "midi": 42,
          "name": "F#2",
          "ticks": 96000,
          "time": 78.94725,
          "velocity": 0.14173228346456693
        },
        {
          "duration": 0.0789472499999988,
          "durationTicks": 96,
          "midi": 44,
          "name": "G#2",
          "ticks": 96000,
          "time": 78.94725,
          "velocity": 0.14173228346456693
        },
        {
          "duration": 0.0789472499999988,
          "durationTicks": 96,
          "midi": 44,
          "name": "G#2",
          "ticks": 96192,
          "time": 79.1051445,
          "velocity": 0.14173228346456693
        },
        {
          "duration": 0.0789472499999988,
          "durationTicks": 96,
          "midi": 40,
          "name": "E2",
          "ticks": 96384,
          "time": 79.26303899999999,
          "velocity": 0.14173228346456693
        },
        {
          "duration": 0.0789472499999988,
          "durationTicks": 96,
          "midi": 38,
          "name": "D2",
          "ticks": 96384,
          "time": 79.26303899999999,
          "velocity": 0.14173228346456693
        },
        {
          "duration": 0.0789472499999988,
          "durationTicks": 96,
          "midi": 36,
          "name": "C2",
          "ticks": 96384,
          "time": 79.26303899999999,
          "velocity": 0.14173228346456693
        },
        {
          "duration": 0.0789472499999988,
          "durationTicks": 96,
          "midi": 42,
          "name": "F#2",
          "ticks": 96384,
          "time": 79.26303899999999,
          "velocity": 0.14173228346456693
        },
        {
          "duration": 0.07894725000001301,
          "durationTicks": 96,
          "midi": 42,
          "name": "F#2",
          "ticks": 96576,
          "time": 79.42093349999999,
          "velocity": 0.14173228346456693
        },
        {
          "duration": 0.0789472499999988,
          "durationTicks": 96,
          "midi": 35,
          "name": "B1",
          "ticks": 96768,
          "time": 79.578828,
          "velocity": 0.14173228346456693
        },
        {
          "duration": 0.0789472499999988,
          "durationTicks": 96,
          "midi": 42,
          "name": "F#2",
          "ticks": 96768,
          "time": 79.578828,
          "velocity": 0.14173228346456693
        },
        {
          "duration": 0.0789472499999988,
          "durationTicks": 96,
          "midi": 44,
          "name": "G#2",
          "ticks": 96768,
          "time": 79.578828,
          "velocity": 0.14173228346456693
        },
        {
          "duration": 0.0789472499999988,
          "durationTicks": 96,
          "midi": 42,
          "name": "F#2",
          "ticks": 96960,
          "time": 79.7367225,
          "velocity": 0.14173228346456693
        },
        {
          "duration": 0.0789472499999988,
          "durationTicks": 96,
          "midi": 36,
          "name": "C2",
          "ticks": 97152,
          "time": 79.894617,
          "velocity": 0.14173228346456693
        },
        {
          "duration": 0.0789472499999988,
          "durationTicks": 96,
          "midi": 38,
          "name": "D2",
          "ticks": 97152,
          "time": 79.894617,
          "velocity": 0.14173228346456693
        },
        {
          "duration": 0.0789472499999988,
          "durationTicks": 96,
          "midi": 42,
          "name": "F#2",
          "ticks": 97344,
          "time": 80.0525115,
          "velocity": 0.14173228346456693
        },
        {
          "duration": 0.0789472499999988,
          "durationTicks": 96,
          "midi": 44,
          "name": "G#2",
          "ticks": 97344,
          "time": 80.0525115,
          "velocity": 0.14173228346456693
        },
        {
          "duration": 0.0789472499999988,
          "durationTicks": 96,
          "midi": 36,
          "name": "C2",
          "ticks": 97344,
          "time": 80.0525115,
          "velocity": 0.14173228346456693
        },
        {
          "duration": 0.0789472499999988,
          "durationTicks": 96,
          "midi": 38,
          "name": "D2",
          "ticks": 97344,
          "time": 80.0525115,
          "velocity": 0.14173228346456693
        },
        {
          "duration": 0.0789472499999988,
          "durationTicks": 96,
          "midi": 44,
          "name": "G#2",
          "ticks": 97536,
          "time": 80.21040599999999,
          "velocity": 0.14173228346456693
        },
        {
          "duration": 0.0789472499999988,
          "durationTicks": 96,
          "midi": 42,
          "name": "F#2",
          "ticks": 97536,
          "time": 80.21040599999999,
          "velocity": 0.14173228346456693
        },
        {
          "duration": 0.07894725000001301,
          "durationTicks": 96,
          "midi": 44,
          "name": "G#2",
          "ticks": 97728,
          "time": 80.36830049999999,
          "velocity": 0.14173228346456693
        },
        {
          "duration": 0.0789472499999988,
          "durationTicks": 96,
          "midi": 36,
          "name": "C2",
          "ticks": 97920,
          "time": 80.526195,
          "velocity": 0.14173228346456693
        },
        {
          "duration": 0.0789472499999988,
          "durationTicks": 96,
          "midi": 40,
          "name": "E2",
          "ticks": 97920,
          "time": 80.526195,
          "velocity": 0.14173228346456693
        },
        {
          "duration": 0.0789472499999988,
          "durationTicks": 96,
          "midi": 42,
          "name": "F#2",
          "ticks": 97920,
          "time": 80.526195,
          "velocity": 0.14173228346456693
        },
        {
          "duration": 0.0789472499999988,
          "durationTicks": 96,
          "midi": 38,
          "name": "D2",
          "ticks": 97920,
          "time": 80.526195,
          "velocity": 0.14173228346456693
        },
        {
          "duration": 0.0789472499999988,
          "durationTicks": 96,
          "midi": 42,
          "name": "F#2",
          "ticks": 98112,
          "time": 80.6840895,
          "velocity": 0.14173228346456693
        },
        {
          "duration": 0.0789472499999988,
          "durationTicks": 96,
          "midi": 44,
          "name": "G#2",
          "ticks": 98304,
          "time": 80.841984,
          "velocity": 0.14173228346456693
        },
        {
          "duration": 0.0789472499999988,
          "durationTicks": 96,
          "midi": 35,
          "name": "B1",
          "ticks": 98304,
          "time": 80.841984,
          "velocity": 0.14173228346456693
        },
        {
          "duration": 0.0789472499999988,
          "durationTicks": 96,
          "midi": 42,
          "name": "F#2",
          "ticks": 98304,
          "time": 80.841984,
          "velocity": 0.14173228346456693
        },
        {
          "duration": 0.0789472499999988,
          "durationTicks": 96,
          "midi": 42,
          "name": "F#2",
          "ticks": 98496,
          "time": 80.9998785,
          "velocity": 0.14173228346456693
        },
        {
          "duration": 0.0789472499999988,
          "durationTicks": 96,
          "midi": 38,
          "name": "D2",
          "ticks": 98688,
          "time": 81.15777299999999,
          "velocity": 0.14173228346456693
        },
        {
          "duration": 0.0789472499999988,
          "durationTicks": 96,
          "midi": 36,
          "name": "C2",
          "ticks": 98688,
          "time": 81.15777299999999,
          "velocity": 0.14173228346456693
        },
        {
          "duration": 0.0789472499999988,
          "durationTicks": 96,
          "midi": 36,
          "name": "C2",
          "ticks": 98880,
          "time": 81.3156675,
          "velocity": 0.14173228346456693
        },
        {
          "duration": 0.0789472499999988,
          "durationTicks": 96,
          "midi": 42,
          "name": "F#2",
          "ticks": 98880,
          "time": 81.3156675,
          "velocity": 0.14173228346456693
        },
        {
          "duration": 0.0789472499999988,
          "durationTicks": 96,
          "midi": 44,
          "name": "G#2",
          "ticks": 98880,
          "time": 81.3156675,
          "velocity": 0.14173228346456693
        },
        {
          "duration": 0.0789472499999988,
          "durationTicks": 96,
          "midi": 38,
          "name": "D2",
          "ticks": 98880,
          "time": 81.3156675,
          "velocity": 0.14173228346456693
        },
        {
          "duration": 0.0789472499999988,
          "durationTicks": 96,
          "midi": 44,
          "name": "G#2",
          "ticks": 99072,
          "time": 81.473562,
          "velocity": 0.14173228346456693
        },
        {
          "duration": 0.0789472499999988,
          "durationTicks": 96,
          "midi": 42,
          "name": "F#2",
          "ticks": 99072,
          "time": 81.473562,
          "velocity": 0.14173228346456693
        },
        {
          "duration": 0.0789472499999988,
          "durationTicks": 96,
          "midi": 44,
          "name": "G#2",
          "ticks": 99264,
          "time": 81.6314565,
          "velocity": 0.14173228346456693
        },
        {
          "duration": 0.0789472499999988,
          "durationTicks": 96,
          "midi": 36,
          "name": "C2",
          "ticks": 99456,
          "time": 81.789351,
          "velocity": 0.14173228346456693
        },
        {
          "duration": 0.0789472499999988,
          "durationTicks": 96,
          "midi": 40,
          "name": "E2",
          "ticks": 99456,
          "time": 81.789351,
          "velocity": 0.14173228346456693
        },
        {
          "duration": 0.0789472499999988,
          "durationTicks": 96,
          "midi": 38,
          "name": "D2",
          "ticks": 99456,
          "time": 81.789351,
          "velocity": 0.14173228346456693
        },
        {
          "duration": 0.0789472499999988,
          "durationTicks": 96,
          "midi": 42,
          "name": "F#2",
          "ticks": 99456,
          "time": 81.789351,
          "velocity": 0.14173228346456693
        },
        {
          "duration": 0.0789472499999988,
          "durationTicks": 96,
          "midi": 42,
          "name": "F#2",
          "ticks": 99648,
          "time": 81.9472455,
          "velocity": 0.14173228346456693
        },
        {
          "duration": 0.0789472499999988,
          "durationTicks": 96,
          "midi": 35,
          "name": "B1",
          "ticks": 99840,
          "time": 82.10513999999999,
          "velocity": 0.14173228346456693
        },
        {
          "duration": 0.0789472499999988,
          "durationTicks": 96,
          "midi": 42,
          "name": "F#2",
          "ticks": 99840,
          "time": 82.10513999999999,
          "velocity": 0.14173228346456693
        },
        {
          "duration": 0.0789472499999988,
          "durationTicks": 96,
          "midi": 44,
          "name": "G#2",
          "ticks": 99840,
          "time": 82.10513999999999,
          "velocity": 0.14173228346456693
        },
        {
          "duration": 0.0789472499999988,
          "durationTicks": 96,
          "midi": 42,
          "name": "F#2",
          "ticks": 100032,
          "time": 82.2630345,
          "velocity": 0.14173228346456693
        },
        {
          "duration": 0.0789472499999988,
          "durationTicks": 96,
          "midi": 36,
          "name": "C2",
          "ticks": 100224,
          "time": 82.420929,
          "velocity": 0.14173228346456693
        },
        {
          "duration": 0.0789472499999988,
          "durationTicks": 96,
          "midi": 38,
          "name": "D2",
          "ticks": 100224,
          "time": 82.420929,
          "velocity": 0.14173228346456693
        },
        {
          "duration": 0.0789472499999988,
          "durationTicks": 96,
          "midi": 36,
          "name": "C2",
          "ticks": 100416,
          "time": 82.5788235,
          "velocity": 0.14173228346456693
        },
        {
          "duration": 0.0789472499999988,
          "durationTicks": 96,
          "midi": 38,
          "name": "D2",
          "ticks": 100416,
          "time": 82.5788235,
          "velocity": 0.14173228346456693
        },
        {
          "duration": 0.0789472499999988,
          "durationTicks": 96,
          "midi": 42,
          "name": "F#2",
          "ticks": 100416,
          "time": 82.5788235,
          "velocity": 0.14173228346456693
        },
        {
          "duration": 0.0789472499999988,
          "durationTicks": 96,
          "midi": 44,
          "name": "G#2",
          "ticks": 100416,
          "time": 82.5788235,
          "velocity": 0.14173228346456693
        },
        {
          "duration": 0.0789472499999988,
          "durationTicks": 96,
          "midi": 44,
          "name": "G#2",
          "ticks": 100608,
          "time": 82.736718,
          "velocity": 0.14173228346456693
        },
        {
          "duration": 0.0789472499999988,
          "durationTicks": 96,
          "midi": 42,
          "name": "F#2",
          "ticks": 100608,
          "time": 82.736718,
          "velocity": 0.14173228346456693
        },
        {
          "duration": 0.0789472499999988,
          "durationTicks": 96,
          "midi": 44,
          "name": "G#2",
          "ticks": 100800,
          "time": 82.8946125,
          "velocity": 0.14173228346456693
        },
        {
          "duration": 0.0789472499999988,
          "durationTicks": 96,
          "midi": 38,
          "name": "D2",
          "ticks": 100992,
          "time": 83.05250699999999,
          "velocity": 0.14173228346456693
        },
        {
          "duration": 0.0789472499999988,
          "durationTicks": 96,
          "midi": 42,
          "name": "F#2",
          "ticks": 100992,
          "time": 83.05250699999999,
          "velocity": 0.14173228346456693
        },
        {
          "duration": 0.0789472499999988,
          "durationTicks": 96,
          "midi": 40,
          "name": "E2",
          "ticks": 100992,
          "time": 83.05250699999999,
          "velocity": 0.14173228346456693
        },
        {
          "duration": 0.0789472499999988,
          "durationTicks": 96,
          "midi": 36,
          "name": "C2",
          "ticks": 100992,
          "time": 83.05250699999999,
          "velocity": 0.14173228346456693
        },
        {
          "duration": 0.0789472499999988,
          "durationTicks": 96,
          "midi": 42,
          "name": "F#2",
          "ticks": 101184,
          "time": 83.2104015,
          "velocity": 0.14173228346456693
        },
        {
          "duration": 0.0789472499999988,
          "durationTicks": 96,
          "midi": 44,
          "name": "G#2",
          "ticks": 101376,
          "time": 83.368296,
          "velocity": 0.14173228346456693
        },
        {
          "duration": 0.0789472499999988,
          "durationTicks": 96,
          "midi": 42,
          "name": "F#2",
          "ticks": 101376,
          "time": 83.368296,
          "velocity": 0.14173228346456693
        },
        {
          "duration": 0.0789472499999988,
          "durationTicks": 96,
          "midi": 35,
          "name": "B1",
          "ticks": 101376,
          "time": 83.368296,
          "velocity": 0.14173228346456693
        },
        {
          "duration": 0.0789472499999988,
          "durationTicks": 96,
          "midi": 42,
          "name": "F#2",
          "ticks": 101568,
          "time": 83.5261905,
          "velocity": 0.14173228346456693
        },
        {
          "duration": 0.0789472499999988,
          "durationTicks": 96,
          "midi": 36,
          "name": "C2",
          "ticks": 101760,
          "time": 83.684085,
          "velocity": 0.14173228346456693
        },
        {
          "duration": 0.0789472499999988,
          "durationTicks": 96,
          "midi": 38,
          "name": "D2",
          "ticks": 101760,
          "time": 83.684085,
          "velocity": 0.14173228346456693
        },
        {
          "duration": 0.0789472499999988,
          "durationTicks": 96,
          "midi": 44,
          "name": "G#2",
          "ticks": 101952,
          "time": 83.8419795,
          "velocity": 0.14173228346456693
        },
        {
          "duration": 0.0789472499999988,
          "durationTicks": 96,
          "midi": 36,
          "name": "C2",
          "ticks": 101952,
          "time": 83.8419795,
          "velocity": 0.14173228346456693
        },
        {
          "duration": 0.0789472499999988,
          "durationTicks": 96,
          "midi": 38,
          "name": "D2",
          "ticks": 101952,
          "time": 83.8419795,
          "velocity": 0.14173228346456693
        },
        {
          "duration": 0.0789472499999988,
          "durationTicks": 96,
          "midi": 42,
          "name": "F#2",
          "ticks": 101952,
          "time": 83.8419795,
          "velocity": 0.14173228346456693
        },
        {
          "duration": 0.0789472499999988,
          "durationTicks": 96,
          "midi": 42,
          "name": "F#2",
          "ticks": 102144,
          "time": 83.99987399999999,
          "velocity": 0.14173228346456693
        },
        {
          "duration": 0.0789472499999988,
          "durationTicks": 96,
          "midi": 44,
          "name": "G#2",
          "ticks": 102144,
          "time": 83.99987399999999,
          "velocity": 0.14173228346456693
        },
        {
          "duration": 0.0789472499999988,
          "durationTicks": 96,
          "midi": 44,
          "name": "G#2",
          "ticks": 102336,
          "time": 84.1577685,
          "velocity": 0.14173228346456693
        },
        {
          "duration": 0.0789472499999988,
          "durationTicks": 96,
          "midi": 40,
          "name": "E2",
          "ticks": 102528,
          "time": 84.315663,
          "velocity": 0.14173228346456693
        },
        {
          "duration": 0.0789472499999988,
          "durationTicks": 96,
          "midi": 42,
          "name": "F#2",
          "ticks": 102528,
          "time": 84.315663,
          "velocity": 0.14173228346456693
        },
        {
          "duration": 0.0789472499999988,
          "durationTicks": 96,
          "midi": 36,
          "name": "C2",
          "ticks": 102528,
          "time": 84.315663,
          "velocity": 0.14173228346456693
        },
        {
          "duration": 0.0789472499999988,
          "durationTicks": 96,
          "midi": 38,
          "name": "D2",
          "ticks": 102528,
          "time": 84.315663,
          "velocity": 0.14173228346456693
        },
        {
          "duration": 0.0789472499999988,
          "durationTicks": 96,
          "midi": 42,
          "name": "F#2",
          "ticks": 102720,
          "time": 84.4735575,
          "velocity": 0.14173228346456693
        },
        {
          "duration": 0.0789472499999988,
          "durationTicks": 96,
          "midi": 35,
          "name": "B1",
          "ticks": 102912,
          "time": 84.631452,
          "velocity": 0.14173228346456693
        },
        {
          "duration": 0.0789472499999988,
          "durationTicks": 96,
          "midi": 44,
          "name": "G#2",
          "ticks": 102912,
          "time": 84.631452,
          "velocity": 0.14173228346456693
        },
        {
          "duration": 0.0789472499999988,
          "durationTicks": 96,
          "midi": 42,
          "name": "F#2",
          "ticks": 102912,
          "time": 84.631452,
          "velocity": 0.14173228346456693
        },
        {
          "duration": 0.0789472499999988,
          "durationTicks": 96,
          "midi": 42,
          "name": "F#2",
          "ticks": 103104,
          "time": 84.7893465,
          "velocity": 0.14173228346456693
        },
        {
          "duration": 0.0789472499999988,
          "durationTicks": 96,
          "midi": 36,
          "name": "C2",
          "ticks": 103296,
          "time": 84.94724099999999,
          "velocity": 0.14173228346456693
        },
        {
          "duration": 0.0789472499999988,
          "durationTicks": 96,
          "midi": 38,
          "name": "D2",
          "ticks": 103296,
          "time": 84.94724099999999,
          "velocity": 0.14173228346456693
        },
        {
          "duration": 0.0789472499999988,
          "durationTicks": 96,
          "midi": 36,
          "name": "C2",
          "ticks": 103488,
          "time": 85.1051355,
          "velocity": 0.14173228346456693
        },
        {
          "duration": 0.0789472499999988,
          "durationTicks": 96,
          "midi": 38,
          "name": "D2",
          "ticks": 103488,
          "time": 85.1051355,
          "velocity": 0.14173228346456693
        },
        {
          "duration": 0.0789472499999988,
          "durationTicks": 96,
          "midi": 44,
          "name": "G#2",
          "ticks": 103488,
          "time": 85.1051355,
          "velocity": 0.14173228346456693
        },
        {
          "duration": 0.0789472499999988,
          "durationTicks": 96,
          "midi": 42,
          "name": "F#2",
          "ticks": 103488,
          "time": 85.1051355,
          "velocity": 0.14173228346456693
        },
        {
          "duration": 0.0789472499999988,
          "durationTicks": 96,
          "midi": 44,
          "name": "G#2",
          "ticks": 103680,
          "time": 85.26303,
          "velocity": 0.14173228346456693
        },
        {
          "duration": 0.0789472499999988,
          "durationTicks": 96,
          "midi": 42,
          "name": "F#2",
          "ticks": 103680,
          "time": 85.26303,
          "velocity": 0.14173228346456693
        },
        {
          "duration": 0.0789472499999988,
          "durationTicks": 96,
          "midi": 44,
          "name": "G#2",
          "ticks": 103872,
          "time": 85.4209245,
          "velocity": 0.14173228346456693
        },
        {
          "duration": 0.0789472499999988,
          "durationTicks": 96,
          "midi": 40,
          "name": "E2",
          "ticks": 104064,
          "time": 85.578819,
          "velocity": 0.14173228346456693
        },
        {
          "duration": 0.0789472499999988,
          "durationTicks": 96,
          "midi": 36,
          "name": "C2",
          "ticks": 104064,
          "time": 85.578819,
          "velocity": 0.14173228346456693
        },
        {
          "duration": 0.0789472499999988,
          "durationTicks": 96,
          "midi": 38,
          "name": "D2",
          "ticks": 104064,
          "time": 85.578819,
          "velocity": 0.14173228346456693
        },
        {
          "duration": 0.0789472499999988,
          "durationTicks": 96,
          "midi": 42,
          "name": "F#2",
          "ticks": 104064,
          "time": 85.578819,
          "velocity": 0.14173228346456693
        },
        {
          "duration": 0.0789472499999988,
          "durationTicks": 96,
          "midi": 42,
          "name": "F#2",
          "ticks": 104256,
          "time": 85.7367135,
          "velocity": 0.14173228346456693
        },
        {
          "duration": 0.0789472499999988,
          "durationTicks": 96,
          "midi": 42,
          "name": "F#2",
          "ticks": 104448,
          "time": 85.89460799999999,
          "velocity": 0.14173228346456693
        },
        {
          "duration": 0.0789472499999988,
          "durationTicks": 96,
          "midi": 44,
          "name": "G#2",
          "ticks": 104448,
          "time": 85.89460799999999,
          "velocity": 0.14173228346456693
        },
        {
          "duration": 0.0789472499999988,
          "durationTicks": 96,
          "midi": 35,
          "name": "B1",
          "ticks": 104448,
          "time": 85.89460799999999,
          "velocity": 0.14173228346456693
        },
        {
          "duration": 0.0789472499999988,
          "durationTicks": 96,
          "midi": 42,
          "name": "F#2",
          "ticks": 104640,
          "time": 86.0525025,
          "velocity": 0.14173228346456693
        },
        {
          "duration": 0.0789472499999988,
          "durationTicks": 96,
          "midi": 36,
          "name": "C2",
          "ticks": 104832,
          "time": 86.210397,
          "velocity": 0.14173228346456693
        },
        {
          "duration": 0.0789472499999988,
          "durationTicks": 96,
          "midi": 38,
          "name": "D2",
          "ticks": 104832,
          "time": 86.210397,
          "velocity": 0.14173228346456693
        },
        {
          "duration": 0.0789472499999988,
          "durationTicks": 96,
          "midi": 36,
          "name": "C2",
          "ticks": 105024,
          "time": 86.3682915,
          "velocity": 0.14173228346456693
        },
        {
          "duration": 0.0789472499999988,
          "durationTicks": 96,
          "midi": 44,
          "name": "G#2",
          "ticks": 105024,
          "time": 86.3682915,
          "velocity": 0.14173228346456693
        },
        {
          "duration": 0.0789472499999988,
          "durationTicks": 96,
          "midi": 38,
          "name": "D2",
          "ticks": 105024,
          "time": 86.3682915,
          "velocity": 0.14173228346456693
        },
        {
          "duration": 0.0789472499999988,
          "durationTicks": 96,
          "midi": 42,
          "name": "F#2",
          "ticks": 105024,
          "time": 86.3682915,
          "velocity": 0.14173228346456693
        },
        {
          "duration": 0.0789472499999988,
          "durationTicks": 96,
          "midi": 42,
          "name": "F#2",
          "ticks": 105216,
          "time": 86.526186,
          "velocity": 0.14173228346456693
        },
        {
          "duration": 0.0789472499999988,
          "durationTicks": 96,
          "midi": 44,
          "name": "G#2",
          "ticks": 105216,
          "time": 86.526186,
          "velocity": 0.14173228346456693
        },
        {
          "duration": 0.0789472499999988,
          "durationTicks": 96,
          "midi": 44,
          "name": "G#2",
          "ticks": 105408,
          "time": 86.6840805,
          "velocity": 0.14173228346456693
        },
        {
          "duration": 0.0789472499999988,
          "durationTicks": 96,
          "midi": 40,
          "name": "E2",
          "ticks": 105600,
          "time": 86.84197499999999,
          "velocity": 0.14173228346456693
        },
        {
          "duration": 0.0789472499999988,
          "durationTicks": 96,
          "midi": 36,
          "name": "C2",
          "ticks": 105600,
          "time": 86.84197499999999,
          "velocity": 0.14173228346456693
        },
        {
          "duration": 0.0789472499999988,
          "durationTicks": 96,
          "midi": 42,
          "name": "F#2",
          "ticks": 105600,
          "time": 86.84197499999999,
          "velocity": 0.14173228346456693
        },
        {
          "duration": 0.0789472499999988,
          "durationTicks": 96,
          "midi": 38,
          "name": "D2",
          "ticks": 105600,
          "time": 86.84197499999999,
          "velocity": 0.14173228346456693
        },
        {
          "duration": 0.0789472499999988,
          "durationTicks": 96,
          "midi": 42,
          "name": "F#2",
          "ticks": 105792,
          "time": 86.9998695,
          "velocity": 0.14173228346456693
        },
        {
          "duration": 0.0789472499999988,
          "durationTicks": 96,
          "midi": 35,
          "name": "B1",
          "ticks": 105984,
          "time": 87.157764,
          "velocity": 0.14173228346456693
        },
        {
          "duration": 0.0789472499999988,
          "durationTicks": 96,
          "midi": 44,
          "name": "G#2",
          "ticks": 105984,
          "time": 87.157764,
          "velocity": 0.14173228346456693
        },
        {
          "duration": 0.0789472499999988,
          "durationTicks": 96,
          "midi": 42,
          "name": "F#2",
          "ticks": 105984,
          "time": 87.157764,
          "velocity": 0.14173228346456693
        },
        {
          "duration": 0.0789472499999988,
          "durationTicks": 96,
          "midi": 42,
          "name": "F#2",
          "ticks": 106176,
          "time": 87.3156585,
          "velocity": 0.14173228346456693
        },
        {
          "duration": 0.0789472499999988,
          "durationTicks": 96,
          "midi": 38,
          "name": "D2",
          "ticks": 106368,
          "time": 87.473553,
          "velocity": 0.14173228346456693
        },
        {
          "duration": 0.0789472499999988,
          "durationTicks": 96,
          "midi": 36,
          "name": "C2",
          "ticks": 106368,
          "time": 87.473553,
          "velocity": 0.14173228346456693
        },
        {
          "duration": 0.0789472499999988,
          "durationTicks": 96,
          "midi": 44,
          "name": "G#2",
          "ticks": 106560,
          "time": 87.6314475,
          "velocity": 0.14173228346456693
        },
        {
          "duration": 0.0789472499999988,
          "durationTicks": 96,
          "midi": 42,
          "name": "F#2",
          "ticks": 106560,
          "time": 87.6314475,
          "velocity": 0.14173228346456693
        },
        {
          "duration": 0.0789472499999988,
          "durationTicks": 96,
          "midi": 38,
          "name": "D2",
          "ticks": 106560,
          "time": 87.6314475,
          "velocity": 0.14173228346456693
        },
        {
          "duration": 0.0789472499999988,
          "durationTicks": 96,
          "midi": 36,
          "name": "C2",
          "ticks": 106560,
          "time": 87.6314475,
          "velocity": 0.14173228346456693
        },
        {
          "duration": 0.0789472499999988,
          "durationTicks": 96,
          "midi": 44,
          "name": "G#2",
          "ticks": 106752,
          "time": 87.78934199999999,
          "velocity": 0.14173228346456693
        },
        {
          "duration": 0.0789472499999988,
          "durationTicks": 96,
          "midi": 42,
          "name": "F#2",
          "ticks": 106752,
          "time": 87.78934199999999,
          "velocity": 0.14173228346456693
        },
        {
          "duration": 0.0789472499999988,
          "durationTicks": 96,
          "midi": 44,
          "name": "G#2",
          "ticks": 106944,
          "time": 87.9472365,
          "velocity": 0.14173228346456693
        },
        {
          "duration": 0.0789472499999988,
          "durationTicks": 96,
          "midi": 38,
          "name": "D2",
          "ticks": 107136,
          "time": 88.105131,
          "velocity": 0.14173228346456693
        },
        {
          "duration": 0.0789472499999988,
          "durationTicks": 96,
          "midi": 40,
          "name": "E2",
          "ticks": 107136,
          "time": 88.105131,
          "velocity": 0.14173228346456693
        },
        {
          "duration": 0.0789472499999988,
          "durationTicks": 96,
          "midi": 36,
          "name": "C2",
          "ticks": 107136,
          "time": 88.105131,
          "velocity": 0.14173228346456693
        },
        {
          "duration": 0.0789472499999988,
          "durationTicks": 96,
          "midi": 42,
          "name": "F#2",
          "ticks": 107136,
          "time": 88.105131,
          "velocity": 0.14173228346456693
        },
        {
          "duration": 0.0789472499999988,
          "durationTicks": 96,
          "midi": 42,
          "name": "F#2",
          "ticks": 107328,
          "time": 88.2630255,
          "velocity": 0.14173228346456693
        },
        {
          "duration": 0.0789472499999988,
          "durationTicks": 96,
          "midi": 35,
          "name": "B1",
          "ticks": 107520,
          "time": 88.42092,
          "velocity": 0.14173228346456693
        },
        {
          "duration": 0.0789472499999988,
          "durationTicks": 96,
          "midi": 44,
          "name": "G#2",
          "ticks": 107520,
          "time": 88.42092,
          "velocity": 0.14173228346456693
        },
        {
          "duration": 0.0789472499999988,
          "durationTicks": 96,
          "midi": 42,
          "name": "F#2",
          "ticks": 107520,
          "time": 88.42092,
          "velocity": 0.14173228346456693
        },
        {
          "duration": 0.0789472499999988,
          "durationTicks": 96,
          "midi": 42,
          "name": "F#2",
          "ticks": 107712,
          "time": 88.5788145,
          "velocity": 0.14173228346456693
        },
        {
          "duration": 0.0789472499999988,
          "durationTicks": 96,
          "midi": 38,
          "name": "D2",
          "ticks": 107904,
          "time": 88.73670899999999,
          "velocity": 0.14173228346456693
        },
        {
          "duration": 0.0789472499999988,
          "durationTicks": 96,
          "midi": 36,
          "name": "C2",
          "ticks": 107904,
          "time": 88.73670899999999,
          "velocity": 0.14173228346456693
        },
        {
          "duration": 0.0789472499999988,
          "durationTicks": 96,
          "midi": 44,
          "name": "G#2",
          "ticks": 108096,
          "time": 88.8946035,
          "velocity": 0.14173228346456693
        },
        {
          "duration": 0.0789472499999988,
          "durationTicks": 96,
          "midi": 38,
          "name": "D2",
          "ticks": 108096,
          "time": 88.8946035,
          "velocity": 0.14173228346456693
        },
        {
          "duration": 0.0789472499999988,
          "durationTicks": 96,
          "midi": 42,
          "name": "F#2",
          "ticks": 108096,
          "time": 88.8946035,
          "velocity": 0.14173228346456693
        },
        {
          "duration": 0.0789472499999988,
          "durationTicks": 96,
          "midi": 36,
          "name": "C2",
          "ticks": 108096,
          "time": 88.8946035,
          "velocity": 0.14173228346456693
        },
        {
          "duration": 0.0789472499999988,
          "durationTicks": 96,
          "midi": 42,
          "name": "F#2",
          "ticks": 108288,
          "time": 89.052498,
          "velocity": 0.14173228346456693
        },
        {
          "duration": 0.0789472499999988,
          "durationTicks": 96,
          "midi": 44,
          "name": "G#2",
          "ticks": 108288,
          "time": 89.052498,
          "velocity": 0.14173228346456693
        },
        {
          "duration": 0.0789472499999988,
          "durationTicks": 96,
          "midi": 44,
          "name": "G#2",
          "ticks": 108480,
          "time": 89.2103925,
          "velocity": 0.14173228346456693
        },
        {
          "duration": 0.0789472499999988,
          "durationTicks": 96,
          "midi": 42,
          "name": "F#2",
          "ticks": 108672,
          "time": 89.368287,
          "velocity": 0.14173228346456693
        },
        {
          "duration": 0.0789472499999988,
          "durationTicks": 96,
          "midi": 36,
          "name": "C2",
          "ticks": 108672,
          "time": 89.368287,
          "velocity": 0.14173228346456693
        },
        {
          "duration": 0.0789472499999988,
          "durationTicks": 96,
          "midi": 40,
          "name": "E2",
          "ticks": 108672,
          "time": 89.368287,
          "velocity": 0.14173228346456693
        },
        {
          "duration": 0.0789472499999988,
          "durationTicks": 96,
          "midi": 38,
          "name": "D2",
          "ticks": 108672,
          "time": 89.368287,
          "velocity": 0.14173228346456693
        },
        {
          "duration": 0.0789472499999988,
          "durationTicks": 96,
          "midi": 42,
          "name": "F#2",
          "ticks": 108864,
          "time": 89.52618149999999,
          "velocity": 0.14173228346456693
        },
        {
          "duration": 0.0789472499999988,
          "durationTicks": 96,
          "midi": 42,
          "name": "F#2",
          "ticks": 109056,
          "time": 89.68407599999999,
          "velocity": 0.14173228346456693
        },
        {
          "duration": 0.0789472499999988,
          "durationTicks": 96,
          "midi": 35,
          "name": "B1",
          "ticks": 109056,
          "time": 89.68407599999999,
          "velocity": 0.14173228346456693
        },
        {
          "duration": 0.0789472499999988,
          "durationTicks": 96,
          "midi": 44,
          "name": "G#2",
          "ticks": 109056,
          "time": 89.68407599999999,
          "velocity": 0.14173228346456693
        },
        {
          "duration": 0.0789472499999988,
          "durationTicks": 96,
          "midi": 42,
          "name": "F#2",
          "ticks": 109248,
          "time": 89.8419705,
          "velocity": 0.14173228346456693
        },
        {
          "duration": 0.0789472499999988,
          "durationTicks": 96,
          "midi": 38,
          "name": "D2",
          "ticks": 109440,
          "time": 89.999865,
          "velocity": 0.14173228346456693
        },
        {
          "duration": 0.0789472499999988,
          "durationTicks": 96,
          "midi": 36,
          "name": "C2",
          "ticks": 109440,
          "time": 89.999865,
          "velocity": 0.14173228346456693
        },
        {
          "duration": 0.0789472499999988,
          "durationTicks": 96,
          "midi": 44,
          "name": "G#2",
          "ticks": 109632,
          "time": 90.1577595,
          "velocity": 0.14173228346456693
        },
        {
          "duration": 0.0789472499999988,
          "durationTicks": 96,
          "midi": 36,
          "name": "C2",
          "ticks": 109632,
          "time": 90.1577595,
          "velocity": 0.14173228346456693
        },
        {
          "duration": 0.0789472499999988,
          "durationTicks": 96,
          "midi": 42,
          "name": "F#2",
          "ticks": 109632,
          "time": 90.1577595,
          "velocity": 0.14173228346456693
        },
        {
          "duration": 0.0789472499999988,
          "durationTicks": 96,
          "midi": 38,
          "name": "D2",
          "ticks": 109632,
          "time": 90.1577595,
          "velocity": 0.14173228346456693
        },
        {
          "duration": 0.0789472499999988,
          "durationTicks": 96,
          "midi": 44,
          "name": "G#2",
          "ticks": 109824,
          "time": 90.315654,
          "velocity": 0.14173228346456693
        },
        {
          "duration": 0.0789472499999988,
          "durationTicks": 96,
          "midi": 42,
          "name": "F#2",
          "ticks": 109824,
          "time": 90.315654,
          "velocity": 0.14173228346456693
        },
        {
          "duration": 0.0789472499999988,
          "durationTicks": 96,
          "midi": 44,
          "name": "G#2",
          "ticks": 110016,
          "time": 90.47354849999999,
          "velocity": 0.14173228346456693
        },
        {
          "duration": 0.0789472499999988,
          "durationTicks": 96,
          "midi": 40,
          "name": "E2",
          "ticks": 110208,
          "time": 90.63144299999999,
          "velocity": 0.14173228346456693
        },
        {
          "duration": 0.0789472499999988,
          "durationTicks": 96,
          "midi": 38,
          "name": "D2",
          "ticks": 110208,
          "time": 90.63144299999999,
          "velocity": 0.14173228346456693
        },
        {
          "duration": 0.0789472499999988,
          "durationTicks": 96,
          "midi": 36,
          "name": "C2",
          "ticks": 110208,
          "time": 90.63144299999999,
          "velocity": 0.14173228346456693
        },
        {
          "duration": 0.0789472499999988,
          "durationTicks": 96,
          "midi": 42,
          "name": "F#2",
          "ticks": 110208,
          "time": 90.63144299999999,
          "velocity": 0.14173228346456693
        },
        {
          "duration": 0.0789472499999988,
          "durationTicks": 96,
          "midi": 42,
          "name": "F#2",
          "ticks": 110400,
          "time": 90.7893375,
          "velocity": 0.14173228346456693
        },
        {
          "duration": 0.0789472499999988,
          "durationTicks": 96,
          "midi": 44,
          "name": "G#2",
          "ticks": 110592,
          "time": 90.947232,
          "velocity": 0.14173228346456693
        },
        {
          "duration": 0.0789472499999988,
          "durationTicks": 96,
          "midi": 35,
          "name": "B1",
          "ticks": 110592,
          "time": 90.947232,
          "velocity": 0.14173228346456693
        },
        {
          "duration": 0.0789472499999988,
          "durationTicks": 96,
          "midi": 42,
          "name": "F#2",
          "ticks": 110592,
          "time": 90.947232,
          "velocity": 0.14173228346456693
        },
        {
          "duration": 0.0789472499999988,
          "durationTicks": 96,
          "midi": 42,
          "name": "F#2",
          "ticks": 110784,
          "time": 91.1051265,
          "velocity": 0.14173228346456693
        },
        {
          "duration": 0.0789472499999988,
          "durationTicks": 96,
          "midi": 38,
          "name": "D2",
          "ticks": 110976,
          "time": 91.263021,
          "velocity": 0.14173228346456693
        },
        {
          "duration": 0.0789472499999988,
          "durationTicks": 96,
          "midi": 36,
          "name": "C2",
          "ticks": 110976,
          "time": 91.263021,
          "velocity": 0.14173228346456693
        },
        {
          "duration": 0.0789472499999988,
          "durationTicks": 96,
          "midi": 44,
          "name": "G#2",
          "ticks": 111168,
          "time": 91.42091549999999,
          "velocity": 0.14173228346456693
        },
        {
          "duration": 0.0789472499999988,
          "durationTicks": 96,
          "midi": 42,
          "name": "F#2",
          "ticks": 111168,
          "time": 91.42091549999999,
          "velocity": 0.14173228346456693
        },
        {
          "duration": 0.0789472499999988,
          "durationTicks": 96,
          "midi": 36,
          "name": "C2",
          "ticks": 111168,
          "time": 91.42091549999999,
          "velocity": 0.14173228346456693
        },
        {
          "duration": 0.0789472499999988,
          "durationTicks": 96,
          "midi": 38,
          "name": "D2",
          "ticks": 111168,
          "time": 91.42091549999999,
          "velocity": 0.14173228346456693
        },
        {
          "duration": 0.07894725000001301,
          "durationTicks": 96,
          "midi": 44,
          "name": "G#2",
          "ticks": 111360,
          "time": 91.57880999999999,
          "velocity": 0.14173228346456693
        },
        {
          "duration": 0.07894725000001301,
          "durationTicks": 96,
          "midi": 42,
          "name": "F#2",
          "ticks": 111360,
          "time": 91.57880999999999,
          "velocity": 0.14173228346456693
        },
        {
          "duration": 0.0789472499999988,
          "durationTicks": 96,
          "midi": 44,
          "name": "G#2",
          "ticks": 111552,
          "time": 91.7367045,
          "velocity": 0.14173228346456693
        },
        {
          "duration": 0.0789472499999988,
          "durationTicks": 96,
          "midi": 42,
          "name": "F#2",
          "ticks": 111744,
          "time": 91.894599,
          "velocity": 0.14173228346456693
        },
        {
          "duration": 0.0789472499999988,
          "durationTicks": 96,
          "midi": 36,
          "name": "C2",
          "ticks": 111744,
          "time": 91.894599,
          "velocity": 0.14173228346456693
        },
        {
          "duration": 0.0789472499999988,
          "durationTicks": 96,
          "midi": 40,
          "name": "E2",
          "ticks": 111744,
          "time": 91.894599,
          "velocity": 0.14173228346456693
        },
        {
          "duration": 0.0789472499999988,
          "durationTicks": 96,
          "midi": 38,
          "name": "D2",
          "ticks": 111744,
          "time": 91.894599,
          "velocity": 0.14173228346456693
        },
        {
          "duration": 0.0789472499999988,
          "durationTicks": 96,
          "midi": 42,
          "name": "F#2",
          "ticks": 111936,
          "time": 92.0524935,
          "velocity": 0.14173228346456693
        },
        {
          "duration": 0.0789472499999988,
          "durationTicks": 96,
          "midi": 35,
          "name": "B1",
          "ticks": 112128,
          "time": 92.210388,
          "velocity": 0.14173228346456693
        },
        {
          "duration": 0.0789472499999988,
          "durationTicks": 96,
          "midi": 42,
          "name": "F#2",
          "ticks": 112128,
          "time": 92.210388,
          "velocity": 0.14173228346456693
        },
        {
          "duration": 0.0789472499999988,
          "durationTicks": 96,
          "midi": 44,
          "name": "G#2",
          "ticks": 112128,
          "time": 92.210388,
          "velocity": 0.14173228346456693
        },
        {
          "duration": 0.0789472499999988,
          "durationTicks": 96,
          "midi": 42,
          "name": "F#2",
          "ticks": 112320,
          "time": 92.36828249999999,
          "velocity": 0.14173228346456693
        },
        {
          "duration": 0.07894725000001301,
          "durationTicks": 96,
          "midi": 36,
          "name": "C2",
          "ticks": 112512,
          "time": 92.52617699999999,
          "velocity": 0.14173228346456693
        },
        {
          "duration": 0.07894725000001301,
          "durationTicks": 96,
          "midi": 38,
          "name": "D2",
          "ticks": 112512,
          "time": 92.52617699999999,
          "velocity": 0.14173228346456693
        },
        {
          "duration": 0.0789472499999988,
          "durationTicks": 96,
          "midi": 44,
          "name": "G#2",
          "ticks": 112704,
          "time": 92.6840715,
          "velocity": 0.14173228346456693
        },
        {
          "duration": 0.0789472499999988,
          "durationTicks": 96,
          "midi": 42,
          "name": "F#2",
          "ticks": 112704,
          "time": 92.6840715,
          "velocity": 0.14173228346456693
        },
        {
          "duration": 0.0789472499999988,
          "durationTicks": 96,
          "midi": 36,
          "name": "C2",
          "ticks": 112704,
          "time": 92.6840715,
          "velocity": 0.14173228346456693
        },
        {
          "duration": 0.0789472499999988,
          "durationTicks": 96,
          "midi": 38,
          "name": "D2",
          "ticks": 112704,
          "time": 92.6840715,
          "velocity": 0.14173228346456693
        },
        {
          "duration": 0.0789472499999988,
          "durationTicks": 96,
          "midi": 42,
          "name": "F#2",
          "ticks": 112896,
          "time": 92.841966,
          "velocity": 0.14173228346456693
        },
        {
          "duration": 0.0789472499999988,
          "durationTicks": 96,
          "midi": 44,
          "name": "G#2",
          "ticks": 112896,
          "time": 92.841966,
          "velocity": 0.14173228346456693
        },
        {
          "duration": 0.0789472499999988,
          "durationTicks": 96,
          "midi": 44,
          "name": "G#2",
          "ticks": 113088,
          "time": 92.9998605,
          "velocity": 0.14173228346456693
        },
        {
          "duration": 0.0789472499999988,
          "durationTicks": 96,
          "midi": 40,
          "name": "E2",
          "ticks": 113280,
          "time": 93.157755,
          "velocity": 0.14173228346456693
        },
        {
          "duration": 0.0789472499999988,
          "durationTicks": 96,
          "midi": 38,
          "name": "D2",
          "ticks": 113280,
          "time": 93.157755,
          "velocity": 0.14173228346456693
        },
        {
          "duration": 0.0789472499999988,
          "durationTicks": 96,
          "midi": 36,
          "name": "C2",
          "ticks": 113280,
          "time": 93.157755,
          "velocity": 0.14173228346456693
        },
        {
          "duration": 0.0789472499999988,
          "durationTicks": 96,
          "midi": 42,
          "name": "F#2",
          "ticks": 113280,
          "time": 93.157755,
          "velocity": 0.14173228346456693
        },
        {
          "duration": 0.0789472499999988,
          "durationTicks": 96,
          "midi": 42,
          "name": "F#2",
          "ticks": 113472,
          "time": 93.31564949999999,
          "velocity": 0.14173228346456693
        },
        {
          "duration": 0.07894725000001301,
          "durationTicks": 96,
          "midi": 35,
          "name": "B1",
          "ticks": 113664,
          "time": 93.47354399999999,
          "velocity": 0.14173228346456693
        },
        {
          "duration": 0.07894725000001301,
          "durationTicks": 96,
          "midi": 42,
          "name": "F#2",
          "ticks": 113664,
          "time": 93.47354399999999,
          "velocity": 0.14173228346456693
        },
        {
          "duration": 0.07894725000001301,
          "durationTicks": 96,
          "midi": 44,
          "name": "G#2",
          "ticks": 113664,
          "time": 93.47354399999999,
          "velocity": 0.14173228346456693
        },
        {
          "duration": 0.0789472499999988,
          "durationTicks": 96,
          "midi": 42,
          "name": "F#2",
          "ticks": 113856,
          "time": 93.6314385,
          "velocity": 0.14173228346456693
        },
        {
          "duration": 0.0789472499999988,
          "durationTicks": 96,
          "midi": 36,
          "name": "C2",
          "ticks": 114048,
          "time": 93.789333,
          "velocity": 0.14173228346456693
        },
        {
          "duration": 0.0789472499999988,
          "durationTicks": 96,
          "midi": 38,
          "name": "D2",
          "ticks": 114048,
          "time": 93.789333,
          "velocity": 0.14173228346456693
        },
        {
          "duration": 0.0789472499999988,
          "durationTicks": 96,
          "midi": 44,
          "name": "G#2",
          "ticks": 114240,
          "time": 93.9472275,
          "velocity": 0.14173228346456693
        },
        {
          "duration": 0.0789472499999988,
          "durationTicks": 96,
          "midi": 42,
          "name": "F#2",
          "ticks": 114240,
          "time": 93.9472275,
          "velocity": 0.14173228346456693
        },
        {
          "duration": 0.0789472499999988,
          "durationTicks": 96,
          "midi": 38,
          "name": "D2",
          "ticks": 114240,
          "time": 93.9472275,
          "velocity": 0.14173228346456693
        },
        {
          "duration": 0.0789472499999988,
          "durationTicks": 96,
          "midi": 36,
          "name": "C2",
          "ticks": 114240,
          "time": 93.9472275,
          "velocity": 0.14173228346456693
        },
        {
          "duration": 0.0789472499999988,
          "durationTicks": 96,
          "midi": 42,
          "name": "F#2",
          "ticks": 114432,
          "time": 94.105122,
          "velocity": 0.14173228346456693
        },
        {
          "duration": 0.0789472499999988,
          "durationTicks": 96,
          "midi": 44,
          "name": "G#2",
          "ticks": 114432,
          "time": 94.105122,
          "velocity": 0.14173228346456693
        },
        {
          "duration": 0.0789472499999988,
          "durationTicks": 96,
          "midi": 44,
          "name": "G#2",
          "ticks": 114624,
          "time": 94.26301649999999,
          "velocity": 0.14173228346456693
        },
        {
          "duration": 0.07894725000001301,
          "durationTicks": 96,
          "midi": 42,
          "name": "F#2",
          "ticks": 114816,
          "time": 94.42091099999999,
          "velocity": 0.14173228346456693
        },
        {
          "duration": 0.07894725000001301,
          "durationTicks": 96,
          "midi": 36,
          "name": "C2",
          "ticks": 114816,
          "time": 94.42091099999999,
          "velocity": 0.14173228346456693
        },
        {
          "duration": 0.07894725000001301,
          "durationTicks": 96,
          "midi": 40,
          "name": "E2",
          "ticks": 114816,
          "time": 94.42091099999999,
          "velocity": 0.14173228346456693
        },
        {
          "duration": 0.07894725000001301,
          "durationTicks": 96,
          "midi": 38,
          "name": "D2",
          "ticks": 114816,
          "time": 94.42091099999999,
          "velocity": 0.14173228346456693
        },
        {
          "duration": 0.0789472499999988,
          "durationTicks": 96,
          "midi": 42,
          "name": "F#2",
          "ticks": 115008,
          "time": 94.5788055,
          "velocity": 0.14173228346456693
        },
        {
          "duration": 0.0789472499999988,
          "durationTicks": 96,
          "midi": 35,
          "name": "B1",
          "ticks": 115200,
          "time": 94.7367,
          "velocity": 0.14173228346456693
        },
        {
          "duration": 0.0789472499999988,
          "durationTicks": 96,
          "midi": 42,
          "name": "F#2",
          "ticks": 115200,
          "time": 94.7367,
          "velocity": 0.14173228346456693
        },
        {
          "duration": 0.0789472499999988,
          "durationTicks": 96,
          "midi": 44,
          "name": "G#2",
          "ticks": 115200,
          "time": 94.7367,
          "velocity": 0.14173228346456693
        },
        {
          "duration": 0.0789472499999988,
          "durationTicks": 96,
          "midi": 42,
          "name": "F#2",
          "ticks": 115392,
          "time": 94.8945945,
          "velocity": 0.14173228346456693
        },
        {
          "duration": 0.0789472499999988,
          "durationTicks": 96,
          "midi": 36,
          "name": "C2",
          "ticks": 115584,
          "time": 95.052489,
          "velocity": 0.14173228346456693
        },
        {
          "duration": 0.0789472499999988,
          "durationTicks": 96,
          "midi": 38,
          "name": "D2",
          "ticks": 115584,
          "time": 95.052489,
          "velocity": 0.14173228346456693
        },
        {
          "duration": 0.0789472499999988,
          "durationTicks": 96,
          "midi": 42,
          "name": "F#2",
          "ticks": 115776,
          "time": 95.21038349999999,
          "velocity": 0.14173228346456693
        },
        {
          "duration": 0.0789472499999988,
          "durationTicks": 96,
          "midi": 44,
          "name": "G#2",
          "ticks": 115776,
          "time": 95.21038349999999,
          "velocity": 0.14173228346456693
        },
        {
          "duration": 0.0789472499999988,
          "durationTicks": 96,
          "midi": 38,
          "name": "D2",
          "ticks": 115776,
          "time": 95.21038349999999,
          "velocity": 0.14173228346456693
        },
        {
          "duration": 0.0789472499999988,
          "durationTicks": 96,
          "midi": 36,
          "name": "C2",
          "ticks": 115776,
          "time": 95.21038349999999,
          "velocity": 0.14173228346456693
        },
        {
          "duration": 0.07894725000001301,
          "durationTicks": 96,
          "midi": 42,
          "name": "F#2",
          "ticks": 115968,
          "time": 95.36827799999999,
          "velocity": 0.14173228346456693
        },
        {
          "duration": 0.07894725000001301,
          "durationTicks": 96,
          "midi": 44,
          "name": "G#2",
          "ticks": 115968,
          "time": 95.36827799999999,
          "velocity": 0.14173228346456693
        },
        {
          "duration": 0.0789472499999988,
          "durationTicks": 96,
          "midi": 44,
          "name": "G#2",
          "ticks": 116160,
          "time": 95.5261725,
          "velocity": 0.14173228346456693
        },
        {
          "duration": 0.0789472499999988,
          "durationTicks": 96,
          "midi": 38,
          "name": "D2",
          "ticks": 116352,
          "time": 95.684067,
          "velocity": 0.14173228346456693
        },
        {
          "duration": 0.0789472499999988,
          "durationTicks": 96,
          "midi": 36,
          "name": "C2",
          "ticks": 116352,
          "time": 95.684067,
          "velocity": 0.14173228346456693
        },
        {
          "duration": 0.0789472499999988,
          "durationTicks": 96,
          "midi": 42,
          "name": "F#2",
          "ticks": 116352,
          "time": 95.684067,
          "velocity": 0.14173228346456693
        },
        {
          "duration": 0.0789472499999988,
          "durationTicks": 96,
          "midi": 40,
          "name": "E2",
          "ticks": 116352,
          "time": 95.684067,
          "velocity": 0.14173228346456693
        },
        {
          "duration": 0.0789472499999988,
          "durationTicks": 96,
          "midi": 42,
          "name": "F#2",
          "ticks": 116544,
          "time": 95.8419615,
          "velocity": 0.14173228346456693
        },
        {
          "duration": 0.0789472499999988,
          "durationTicks": 96,
          "midi": 35,
          "name": "B1",
          "ticks": 116736,
          "time": 95.999856,
          "velocity": 0.14173228346456693
        },
        {
          "duration": 0.0789472499999988,
          "durationTicks": 96,
          "midi": 42,
          "name": "F#2",
          "ticks": 116736,
          "time": 95.999856,
          "velocity": 0.14173228346456693
        },
        {
          "duration": 0.0789472499999988,
          "durationTicks": 96,
          "midi": 44,
          "name": "G#2",
          "ticks": 116736,
          "time": 95.999856,
          "velocity": 0.14173228346456693
        },
        {
          "duration": 0.0789472499999988,
          "durationTicks": 96,
          "midi": 42,
          "name": "F#2",
          "ticks": 116928,
          "time": 96.15775049999999,
          "velocity": 0.14173228346456693
        },
        {
          "duration": 0.07894725000001301,
          "durationTicks": 96,
          "midi": 36,
          "name": "C2",
          "ticks": 117120,
          "time": 96.31564499999999,
          "velocity": 0.14173228346456693
        },
        {
          "duration": 0.07894725000001301,
          "durationTicks": 96,
          "midi": 38,
          "name": "D2",
          "ticks": 117120,
          "time": 96.31564499999999,
          "velocity": 0.14173228346456693
        },
        {
          "duration": 0.0789472499999988,
          "durationTicks": 96,
          "midi": 36,
          "name": "C2",
          "ticks": 117312,
          "time": 96.4735395,
          "velocity": 0.14173228346456693
        },
        {
          "duration": 0.0789472499999988,
          "durationTicks": 96,
          "midi": 42,
          "name": "F#2",
          "ticks": 117312,
          "time": 96.4735395,
          "velocity": 0.14173228346456693
        },
        {
          "duration": 0.0789472499999988,
          "durationTicks": 96,
          "midi": 38,
          "name": "D2",
          "ticks": 117312,
          "time": 96.4735395,
          "velocity": 0.14173228346456693
        },
        {
          "duration": 0.0789472499999988,
          "durationTicks": 96,
          "midi": 44,
          "name": "G#2",
          "ticks": 117312,
          "time": 96.4735395,
          "velocity": 0.14173228346456693
        },
        {
          "duration": 0.0789472499999988,
          "durationTicks": 96,
          "midi": 42,
          "name": "F#2",
          "ticks": 117504,
          "time": 96.631434,
          "velocity": 0.14173228346456693
        },
        {
          "duration": 0.0789472499999988,
          "durationTicks": 96,
          "midi": 44,
          "name": "G#2",
          "ticks": 117504,
          "time": 96.631434,
          "velocity": 0.14173228346456693
        },
        {
          "duration": 0.0789472499999988,
          "durationTicks": 96,
          "midi": 44,
          "name": "G#2",
          "ticks": 117696,
          "time": 96.7893285,
          "velocity": 0.14173228346456693
        },
        {
          "duration": 0.0789472499999988,
          "durationTicks": 96,
          "midi": 42,
          "name": "F#2",
          "ticks": 117888,
          "time": 96.947223,
          "velocity": 0.14173228346456693
        },
        {
          "duration": 0.0789472499999988,
          "durationTicks": 96,
          "midi": 40,
          "name": "E2",
          "ticks": 117888,
          "time": 96.947223,
          "velocity": 0.14173228346456693
        },
        {
          "duration": 0.0789472499999988,
          "durationTicks": 96,
          "midi": 38,
          "name": "D2",
          "ticks": 117888,
          "time": 96.947223,
          "velocity": 0.14173228346456693
        },
        {
          "duration": 0.0789472499999988,
          "durationTicks": 96,
          "midi": 36,
          "name": "C2",
          "ticks": 117888,
          "time": 96.947223,
          "velocity": 0.14173228346456693
        },
        {
          "duration": 0.0789472499999988,
          "durationTicks": 96,
          "midi": 42,
          "name": "F#2",
          "ticks": 118080,
          "time": 97.10511749999999,
          "velocity": 0.14173228346456693
        },
        {
          "duration": 0.07894725000001301,
          "durationTicks": 96,
          "midi": 35,
          "name": "B1",
          "ticks": 118272,
          "time": 97.26301199999999,
          "velocity": 0.14173228346456693
        },
        {
          "duration": 0.07894725000001301,
          "durationTicks": 96,
          "midi": 42,
          "name": "F#2",
          "ticks": 118272,
          "time": 97.26301199999999,
          "velocity": 0.14173228346456693
        },
        {
          "duration": 0.07894725000001301,
          "durationTicks": 96,
          "midi": 44,
          "name": "G#2",
          "ticks": 118272,
          "time": 97.26301199999999,
          "velocity": 0.14173228346456693
        },
        {
          "duration": 0.0789472499999988,
          "durationTicks": 96,
          "midi": 42,
          "name": "F#2",
          "ticks": 118464,
          "time": 97.4209065,
          "velocity": 0.14173228346456693
        },
        {
          "duration": 0.0789472499999988,
          "durationTicks": 96,
          "midi": 36,
          "name": "C2",
          "ticks": 118656,
          "time": 97.578801,
          "velocity": 0.14173228346456693
        },
        {
          "duration": 0.0789472499999988,
          "durationTicks": 96,
          "midi": 38,
          "name": "D2",
          "ticks": 118656,
          "time": 97.578801,
          "velocity": 0.14173228346456693
        },
        {
          "duration": 0.0789472499999988,
          "durationTicks": 96,
          "midi": 38,
          "name": "D2",
          "ticks": 118848,
          "time": 97.7366955,
          "velocity": 0.14173228346456693
        },
        {
          "duration": 0.0789472499999988,
          "durationTicks": 96,
          "midi": 42,
          "name": "F#2",
          "ticks": 118848,
          "time": 97.7366955,
          "velocity": 0.14173228346456693
        },
        {
          "duration": 0.0789472499999988,
          "durationTicks": 96,
          "midi": 36,
          "name": "C2",
          "ticks": 118848,
          "time": 97.7366955,
          "velocity": 0.14173228346456693
        },
        {
          "duration": 0.0789472499999988,
          "durationTicks": 96,
          "midi": 44,
          "name": "G#2",
          "ticks": 118848,
          "time": 97.7366955,
          "velocity": 0.14173228346456693
        },
        {
          "duration": 0.0789472499999988,
          "durationTicks": 96,
          "midi": 42,
          "name": "F#2",
          "ticks": 119040,
          "time": 97.89459,
          "velocity": 0.14173228346456693
        },
        {
          "duration": 0.0789472499999988,
          "durationTicks": 96,
          "midi": 44,
          "name": "G#2",
          "ticks": 119040,
          "time": 97.89459,
          "velocity": 0.14173228346456693
        },
        {
          "duration": 0.0789472499999988,
          "durationTicks": 96,
          "midi": 44,
          "name": "G#2",
          "ticks": 119232,
          "time": 98.05248449999999,
          "velocity": 0.14173228346456693
        },
        {
          "duration": 0.07894725000001301,
          "durationTicks": 96,
          "midi": 42,
          "name": "F#2",
          "ticks": 119424,
          "time": 98.21037899999999,
          "velocity": 0.14173228346456693
        },
        {
          "duration": 0.07894725000001301,
          "durationTicks": 96,
          "midi": 40,
          "name": "E2",
          "ticks": 119424,
          "time": 98.21037899999999,
          "velocity": 0.14173228346456693
        },
        {
          "duration": 0.07894725000001301,
          "durationTicks": 96,
          "midi": 38,
          "name": "D2",
          "ticks": 119424,
          "time": 98.21037899999999,
          "velocity": 0.14173228346456693
        },
        {
          "duration": 0.07894725000001301,
          "durationTicks": 96,
          "midi": 36,
          "name": "C2",
          "ticks": 119424,
          "time": 98.21037899999999,
          "velocity": 0.14173228346456693
        },
        {
          "duration": 0.0789472499999988,
          "durationTicks": 96,
          "midi": 42,
          "name": "F#2",
          "ticks": 119616,
          "time": 98.3682735,
          "velocity": 0.14173228346456693
        },
        {
          "duration": 0.0789472499999988,
          "durationTicks": 96,
          "midi": 42,
          "name": "F#2",
          "ticks": 119808,
          "time": 98.526168,
          "velocity": 0.14173228346456693
        },
        {
          "duration": 0.0789472499999988,
          "durationTicks": 96,
          "midi": 44,
          "name": "G#2",
          "ticks": 119808,
          "time": 98.526168,
          "velocity": 0.14173228346456693
        },
        {
          "duration": 0.0789472499999988,
          "durationTicks": 96,
          "midi": 35,
          "name": "B1",
          "ticks": 119808,
          "time": 98.526168,
          "velocity": 0.14173228346456693
        },
        {
          "duration": 0.0789472499999988,
          "durationTicks": 96,
          "midi": 42,
          "name": "F#2",
          "ticks": 120000,
          "time": 98.6840625,
          "velocity": 0.14173228346456693
        },
        {
          "duration": 0.0789472499999988,
          "durationTicks": 96,
          "midi": 38,
          "name": "D2",
          "ticks": 120192,
          "time": 98.841957,
          "velocity": 0.14173228346456693
        },
        {
          "duration": 0.0789472499999988,
          "durationTicks": 96,
          "midi": 36,
          "name": "C2",
          "ticks": 120192,
          "time": 98.841957,
          "velocity": 0.14173228346456693
        },
        {
          "duration": 0.0789472499999988,
          "durationTicks": 96,
          "midi": 38,
          "name": "D2",
          "ticks": 120384,
          "time": 98.99985149999999,
          "velocity": 0.14173228346456693
        },
        {
          "duration": 0.0789472499999988,
          "durationTicks": 96,
          "midi": 36,
          "name": "C2",
          "ticks": 120384,
          "time": 98.99985149999999,
          "velocity": 0.14173228346456693
        },
        {
          "duration": 0.0789472499999988,
          "durationTicks": 96,
          "midi": 42,
          "name": "F#2",
          "ticks": 120384,
          "time": 98.99985149999999,
          "velocity": 0.14173228346456693
        },
        {
          "duration": 0.0789472499999988,
          "durationTicks": 96,
          "midi": 44,
          "name": "G#2",
          "ticks": 120384,
          "time": 98.99985149999999,
          "velocity": 0.14173228346456693
        },
        {
          "duration": 0.07894725000001301,
          "durationTicks": 96,
          "midi": 44,
          "name": "G#2",
          "ticks": 120576,
          "time": 99.15774599999999,
          "velocity": 0.14173228346456693
        },
        {
          "duration": 0.07894725000001301,
          "durationTicks": 96,
          "midi": 42,
          "name": "F#2",
          "ticks": 120576,
          "time": 99.15774599999999,
          "velocity": 0.14173228346456693
        },
        {
          "duration": 0.0789472499999988,
          "durationTicks": 96,
          "midi": 44,
          "name": "G#2",
          "ticks": 120768,
          "time": 99.3156405,
          "velocity": 0.14173228346456693
        },
        {
          "duration": 0.0789472499999988,
          "durationTicks": 96,
          "midi": 38,
          "name": "D2",
          "ticks": 120960,
          "time": 99.473535,
          "velocity": 0.14173228346456693
        },
        {
          "duration": 0.0789472499999988,
          "durationTicks": 96,
          "midi": 36,
          "name": "C2",
          "ticks": 120960,
          "time": 99.473535,
          "velocity": 0.14173228346456693
        },
        {
          "duration": 0.0789472499999988,
          "durationTicks": 96,
          "midi": 40,
          "name": "E2",
          "ticks": 120960,
          "time": 99.473535,
          "velocity": 0.14173228346456693
        },
        {
          "duration": 0.0789472499999988,
          "durationTicks": 96,
          "midi": 42,
          "name": "F#2",
          "ticks": 120960,
          "time": 99.473535,
          "velocity": 0.14173228346456693
        },
        {
          "duration": 0.0789472499999988,
          "durationTicks": 96,
          "midi": 42,
          "name": "F#2",
          "ticks": 121152,
          "time": 99.6314295,
          "velocity": 0.14173228346456693
        },
        {
          "duration": 0.0789472499999988,
          "durationTicks": 96,
          "midi": 44,
          "name": "G#2",
          "ticks": 121344,
          "time": 99.789324,
          "velocity": 0.14173228346456693
        },
        {
          "duration": 0.0789472499999988,
          "durationTicks": 96,
          "midi": 42,
          "name": "F#2",
          "ticks": 121344,
          "time": 99.789324,
          "velocity": 0.14173228346456693
        },
        {
          "duration": 0.0789472499999988,
          "durationTicks": 96,
          "midi": 35,
          "name": "B1",
          "ticks": 121344,
          "time": 99.789324,
          "velocity": 0.14173228346456693
        },
        {
          "duration": 0.0789472499999988,
          "durationTicks": 96,
          "midi": 42,
          "name": "F#2",
          "ticks": 121536,
          "time": 99.94721849999999,
          "velocity": 0.14173228346456693
        },
        {
          "duration": 0.07894725000001301,
          "durationTicks": 96,
          "midi": 38,
          "name": "D2",
          "ticks": 121728,
          "time": 100.10511299999999,
          "velocity": 0.14173228346456693
        },
        {
          "duration": 0.07894725000001301,
          "durationTicks": 96,
          "midi": 36,
          "name": "C2",
          "ticks": 121728,
          "time": 100.10511299999999,
          "velocity": 0.14173228346456693
        },
        {
          "duration": 0.0789472499999988,
          "durationTicks": 96,
          "midi": 36,
          "name": "C2",
          "ticks": 121920,
          "time": 100.2630075,
          "velocity": 0.14173228346456693
        },
        {
          "duration": 0.0789472499999988,
          "durationTicks": 96,
          "midi": 42,
          "name": "F#2",
          "ticks": 121920,
          "time": 100.2630075,
          "velocity": 0.14173228346456693
        },
        {
          "duration": 0.0789472499999988,
          "durationTicks": 96,
          "midi": 44,
          "name": "G#2",
          "ticks": 121920,
          "time": 100.2630075,
          "velocity": 0.14173228346456693
        },
        {
          "duration": 0.0789472499999988,
          "durationTicks": 96,
          "midi": 38,
          "name": "D2",
          "ticks": 121920,
          "time": 100.2630075,
          "velocity": 0.14173228346456693
        },
        {
          "duration": 0.0789472499999988,
          "durationTicks": 96,
          "midi": 42,
          "name": "F#2",
          "ticks": 122112,
          "time": 100.420902,
          "velocity": 0.14173228346456693
        },
        {
          "duration": 0.0789472499999988,
          "durationTicks": 96,
          "midi": 44,
          "name": "G#2",
          "ticks": 122112,
          "time": 100.420902,
          "velocity": 0.14173228346456693
        },
        {
          "duration": 0.0789472499999988,
          "durationTicks": 96,
          "midi": 44,
          "name": "G#2",
          "ticks": 122304,
          "time": 100.5787965,
          "velocity": 0.14173228346456693
        },
        {
          "duration": 0.0789472499999988,
          "durationTicks": 96,
          "midi": 42,
          "name": "F#2",
          "ticks": 122496,
          "time": 100.736691,
          "velocity": 0.14173228346456693
        },
        {
          "duration": 0.0789472499999988,
          "durationTicks": 96,
          "midi": 40,
          "name": "E2",
          "ticks": 122496,
          "time": 100.736691,
          "velocity": 0.14173228346456693
        },
        {
          "duration": 0.0789472499999988,
          "durationTicks": 96,
          "midi": 38,
          "name": "D2",
          "ticks": 122496,
          "time": 100.736691,
          "velocity": 0.14173228346456693
        },
        {
          "duration": 0.0789472499999988,
          "durationTicks": 96,
          "midi": 36,
          "name": "C2",
          "ticks": 122496,
          "time": 100.736691,
          "velocity": 0.14173228346456693
        },
        {
          "duration": 0.0789472499999988,
          "durationTicks": 96,
          "midi": 42,
          "name": "F#2",
          "ticks": 122688,
          "time": 100.89458549999999,
          "velocity": 0.14173228346456693
        },
        {
          "duration": 0.0789472499999988,
          "durationTicks": 96,
          "midi": 35,
          "name": "B1",
          "ticks": 122880,
          "time": 101.05248,
          "velocity": 0.14173228346456693
        },
        {
          "duration": 0.0789472499999988,
          "durationTicks": 96,
          "midi": 42,
          "name": "F#2",
          "ticks": 122880,
          "time": 101.05248,
          "velocity": 0.14173228346456693
        },
        {
          "duration": 0.0789472499999988,
          "durationTicks": 96,
          "midi": 44,
          "name": "G#2",
          "ticks": 122880,
          "time": 101.05248,
          "velocity": 0.14173228346456693
        },
        {
          "duration": 0.0789472499999988,
          "durationTicks": 96,
          "midi": 42,
          "name": "F#2",
          "ticks": 123072,
          "time": 101.2103745,
          "velocity": 0.14173228346456693
        },
        {
          "duration": 0.0789472499999988,
          "durationTicks": 96,
          "midi": 36,
          "name": "C2",
          "ticks": 123264,
          "time": 101.368269,
          "velocity": 0.14173228346456693
        },
        {
          "duration": 0.0789472499999988,
          "durationTicks": 96,
          "midi": 38,
          "name": "D2",
          "ticks": 123264,
          "time": 101.368269,
          "velocity": 0.14173228346456693
        },
        {
          "duration": 0.0789472499999988,
          "durationTicks": 96,
          "midi": 38,
          "name": "D2",
          "ticks": 123456,
          "time": 101.5261635,
          "velocity": 0.14173228346456693
        },
        {
          "duration": 0.0789472499999988,
          "durationTicks": 96,
          "midi": 36,
          "name": "C2",
          "ticks": 123456,
          "time": 101.5261635,
          "velocity": 0.14173228346456693
        },
        {
          "duration": 0.0789472499999988,
          "durationTicks": 96,
          "midi": 44,
          "name": "G#2",
          "ticks": 123456,
          "time": 101.5261635,
          "velocity": 0.14173228346456693
        },
        {
          "duration": 0.0789472499999988,
          "durationTicks": 96,
          "midi": 42,
          "name": "F#2",
          "ticks": 123456,
          "time": 101.5261635,
          "velocity": 0.14173228346456693
        },
        {
          "duration": 0.0789472499999988,
          "durationTicks": 96,
          "midi": 42,
          "name": "F#2",
          "ticks": 123648,
          "time": 101.684058,
          "velocity": 0.14173228346456693
        },
        {
          "duration": 0.0789472499999988,
          "durationTicks": 96,
          "midi": 44,
          "name": "G#2",
          "ticks": 123648,
          "time": 101.684058,
          "velocity": 0.14173228346456693
        },
        {
          "duration": 0.0789472499999988,
          "durationTicks": 96,
          "midi": 44,
          "name": "G#2",
          "ticks": 123840,
          "time": 101.84195249999999,
          "velocity": 0.14173228346456693
        },
        {
          "duration": 0.0789472499999988,
          "durationTicks": 96,
          "midi": 42,
          "name": "F#2",
          "ticks": 124032,
          "time": 101.999847,
          "velocity": 0.14173228346456693
        },
        {
          "duration": 0.0789472499999988,
          "durationTicks": 96,
          "midi": 38,
          "name": "D2",
          "ticks": 124032,
          "time": 101.999847,
          "velocity": 0.14173228346456693
        },
        {
          "duration": 0.0789472499999988,
          "durationTicks": 96,
          "midi": 36,
          "name": "C2",
          "ticks": 124032,
          "time": 101.999847,
          "velocity": 0.14173228346456693
        },
        {
          "duration": 0.0789472499999988,
          "durationTicks": 96,
          "midi": 40,
          "name": "E2",
          "ticks": 124032,
          "time": 101.999847,
          "velocity": 0.14173228346456693
        },
        {
          "duration": 0.0789472499999988,
          "durationTicks": 96,
          "midi": 42,
          "name": "F#2",
          "ticks": 124224,
          "time": 102.1577415,
          "velocity": 0.14173228346456693
        },
        {
          "duration": 0.0789472499999988,
          "durationTicks": 96,
          "midi": 35,
          "name": "B1",
          "ticks": 124416,
          "time": 102.315636,
          "velocity": 0.14173228346456693
        },
        {
          "duration": 0.0789472499999988,
          "durationTicks": 96,
          "midi": 42,
          "name": "F#2",
          "ticks": 124416,
          "time": 102.315636,
          "velocity": 0.14173228346456693
        },
        {
          "duration": 0.0789472499999988,
          "durationTicks": 96,
          "midi": 44,
          "name": "G#2",
          "ticks": 124416,
          "time": 102.315636,
          "velocity": 0.14173228346456693
        },
        {
          "duration": 0.0789472499999988,
          "durationTicks": 96,
          "midi": 42,
          "name": "F#2",
          "ticks": 124608,
          "time": 102.4735305,
          "velocity": 0.14173228346456693
        },
        {
          "duration": 0.0789472499999988,
          "durationTicks": 96,
          "midi": 38,
          "name": "D2",
          "ticks": 124800,
          "time": 102.631425,
          "velocity": 0.14173228346456693
        },
        {
          "duration": 0.0789472499999988,
          "durationTicks": 96,
          "midi": 36,
          "name": "C2",
          "ticks": 124800,
          "time": 102.631425,
          "velocity": 0.14173228346456693
        },
        {
          "duration": 0.0789472499999988,
          "durationTicks": 96,
          "midi": 42,
          "name": "F#2",
          "ticks": 124992,
          "time": 102.78931949999999,
          "velocity": 0.14173228346456693
        },
        {
          "duration": 0.0789472499999988,
          "durationTicks": 96,
          "midi": 36,
          "name": "C2",
          "ticks": 124992,
          "time": 102.78931949999999,
          "velocity": 0.14173228346456693
        },
        {
          "duration": 0.0789472499999988,
          "durationTicks": 96,
          "midi": 44,
          "name": "G#2",
          "ticks": 124992,
          "time": 102.78931949999999,
          "velocity": 0.14173228346456693
        },
        {
          "duration": 0.0789472499999988,
          "durationTicks": 96,
          "midi": 38,
          "name": "D2",
          "ticks": 124992,
          "time": 102.78931949999999,
          "velocity": 0.14173228346456693
        },
        {
          "duration": 0.0789472499999988,
          "durationTicks": 96,
          "midi": 42,
          "name": "F#2",
          "ticks": 125184,
          "time": 102.947214,
          "velocity": 0.14173228346456693
        },
        {
          "duration": 0.0789472499999988,
          "durationTicks": 96,
          "midi": 44,
          "name": "G#2",
          "ticks": 125184,
          "time": 102.947214,
          "velocity": 0.14173228346456693
        },
        {
          "duration": 0.0789472499999988,
          "durationTicks": 96,
          "midi": 44,
          "name": "G#2",
          "ticks": 125376,
          "time": 103.1051085,
          "velocity": 0.14173228346456693
        },
        {
          "duration": 0.0789472499999988,
          "durationTicks": 96,
          "midi": 42,
          "name": "F#2",
          "ticks": 125568,
          "time": 103.263003,
          "velocity": 0.14173228346456693
        },
        {
          "duration": 0.0789472499999988,
          "durationTicks": 96,
          "midi": 36,
          "name": "C2",
          "ticks": 125568,
          "time": 103.263003,
          "velocity": 0.14173228346456693
        },
        {
          "duration": 0.0789472499999988,
          "durationTicks": 96,
          "midi": 38,
          "name": "D2",
          "ticks": 125568,
          "time": 103.263003,
          "velocity": 0.14173228346456693
        },
        {
          "duration": 0.0789472499999988,
          "durationTicks": 96,
          "midi": 40,
          "name": "E2",
          "ticks": 125568,
          "time": 103.263003,
          "velocity": 0.14173228346456693
        },
        {
          "duration": 0.0789472499999988,
          "durationTicks": 96,
          "midi": 42,
          "name": "F#2",
          "ticks": 125760,
          "time": 103.4208975,
          "velocity": 0.14173228346456693
        },
        {
          "duration": 0.0789472499999988,
          "durationTicks": 96,
          "midi": 44,
          "name": "G#2",
          "ticks": 125952,
          "time": 103.57879199999999,
          "velocity": 0.14173228346456693
        },
        {
          "duration": 0.0789472499999988,
          "durationTicks": 96,
          "midi": 35,
          "name": "B1",
          "ticks": 125952,
          "time": 103.57879199999999,
          "velocity": 0.14173228346456693
        },
        {
          "duration": 0.0789472499999988,
          "durationTicks": 96,
          "midi": 42,
          "name": "F#2",
          "ticks": 125952,
          "time": 103.57879199999999,
          "velocity": 0.14173228346456693
        },
        {
          "duration": 0.0789472499999988,
          "durationTicks": 96,
          "midi": 42,
          "name": "F#2",
          "ticks": 126144,
          "time": 103.73668649999999,
          "velocity": 0.14173228346456693
        },
        {
          "duration": 0.0789472499999988,
          "durationTicks": 96,
          "midi": 36,
          "name": "C2",
          "ticks": 126336,
          "time": 103.894581,
          "velocity": 0.14173228346456693
        },
        {
          "duration": 0.0789472499999988,
          "durationTicks": 96,
          "midi": 38,
          "name": "D2",
          "ticks": 126336,
          "time": 103.894581,
          "velocity": 0.14173228346456693
        },
        {
          "duration": 0.0789472499999988,
          "durationTicks": 96,
          "midi": 38,
          "name": "D2",
          "ticks": 126528,
          "time": 104.0524755,
          "velocity": 0.14173228346456693
        },
        {
          "duration": 0.0789472499999988,
          "durationTicks": 96,
          "midi": 42,
          "name": "F#2",
          "ticks": 126528,
          "time": 104.0524755,
          "velocity": 0.14173228346456693
        },
        {
          "duration": 0.0789472499999988,
          "durationTicks": 96,
          "midi": 44,
          "name": "G#2",
          "ticks": 126528,
          "time": 104.0524755,
          "velocity": 0.14173228346456693
        },
        {
          "duration": 0.0789472499999988,
          "durationTicks": 96,
          "midi": 36,
          "name": "C2",
          "ticks": 126528,
          "time": 104.0524755,
          "velocity": 0.14173228346456693
        },
        {
          "duration": 0.0789472499999988,
          "durationTicks": 96,
          "midi": 42,
          "name": "F#2",
          "ticks": 126720,
          "time": 104.21037,
          "velocity": 0.14173228346456693
        },
        {
          "duration": 0.0789472499999988,
          "durationTicks": 96,
          "midi": 44,
          "name": "G#2",
          "ticks": 126720,
          "time": 104.21037,
          "velocity": 0.14173228346456693
        },
        {
          "duration": 0.0789472499999988,
          "durationTicks": 96,
          "midi": 44,
          "name": "G#2",
          "ticks": 126912,
          "time": 104.3682645,
          "velocity": 0.14173228346456693
        },
        {
          "duration": 0.0789472499999988,
          "durationTicks": 96,
          "midi": 42,
          "name": "F#2",
          "ticks": 127104,
          "time": 104.52615899999999,
          "velocity": 0.14173228346456693
        },
        {
          "duration": 0.0789472499999988,
          "durationTicks": 96,
          "midi": 36,
          "name": "C2",
          "ticks": 127104,
          "time": 104.52615899999999,
          "velocity": 0.14173228346456693
        },
        {
          "duration": 0.0789472499999988,
          "durationTicks": 96,
          "midi": 38,
          "name": "D2",
          "ticks": 127104,
          "time": 104.52615899999999,
          "velocity": 0.14173228346456693
        },
        {
          "duration": 0.0789472499999988,
          "durationTicks": 96,
          "midi": 40,
          "name": "E2",
          "ticks": 127104,
          "time": 104.52615899999999,
          "velocity": 0.14173228346456693
        },
        {
          "duration": 0.0789472499999988,
          "durationTicks": 96,
          "midi": 42,
          "name": "F#2",
          "ticks": 127296,
          "time": 104.68405349999999,
          "velocity": 0.14173228346456693
        },
        {
          "duration": 0.0789472499999988,
          "durationTicks": 96,
          "midi": 35,
          "name": "B1",
          "ticks": 127488,
          "time": 104.841948,
          "velocity": 0.14173228346456693
        },
        {
          "duration": 0.0789472499999988,
          "durationTicks": 96,
          "midi": 42,
          "name": "F#2",
          "ticks": 127488,
          "time": 104.841948,
          "velocity": 0.14173228346456693
        },
        {
          "duration": 0.0789472499999988,
          "durationTicks": 96,
          "midi": 44,
          "name": "G#2",
          "ticks": 127488,
          "time": 104.841948,
          "velocity": 0.14173228346456693
        },
        {
          "duration": 0.0789472499999988,
          "durationTicks": 96,
          "midi": 42,
          "name": "F#2",
          "ticks": 127680,
          "time": 104.9998425,
          "velocity": 0.14173228346456693
        },
        {
          "duration": 0.0789472499999988,
          "durationTicks": 96,
          "midi": 36,
          "name": "C2",
          "ticks": 127872,
          "time": 105.157737,
          "velocity": 0.14173228346456693
        },
        {
          "duration": 0.0789472499999988,
          "durationTicks": 96,
          "midi": 38,
          "name": "D2",
          "ticks": 127872,
          "time": 105.157737,
          "velocity": 0.14173228346456693
        },
        {
          "duration": 0.0789472499999988,
          "durationTicks": 96,
          "midi": 44,
          "name": "G#2",
          "ticks": 128064,
          "time": 105.3156315,
          "velocity": 0.14173228346456693
        },
        {
          "duration": 0.0789472499999988,
          "durationTicks": 96,
          "midi": 38,
          "name": "D2",
          "ticks": 128064,
          "time": 105.3156315,
          "velocity": 0.14173228346456693
        },
        {
          "duration": 0.0789472499999988,
          "durationTicks": 96,
          "midi": 36,
          "name": "C2",
          "ticks": 128064,
          "time": 105.3156315,
          "velocity": 0.14173228346456693
        },
        {
          "duration": 0.0789472499999988,
          "durationTicks": 96,
          "midi": 42,
          "name": "F#2",
          "ticks": 128064,
          "time": 105.3156315,
          "velocity": 0.14173228346456693
        },
        {
          "duration": 0.0789472499999988,
          "durationTicks": 96,
          "midi": 42,
          "name": "F#2",
          "ticks": 128256,
          "time": 105.47352599999999,
          "velocity": 0.14173228346456693
        },
        {
          "duration": 0.0789472499999988,
          "durationTicks": 96,
          "midi": 44,
          "name": "G#2",
          "ticks": 128256,
          "time": 105.47352599999999,
          "velocity": 0.14173228346456693
        },
        {
          "duration": 0.0789472499999988,
          "durationTicks": 96,
          "midi": 44,
          "name": "G#2",
          "ticks": 128448,
          "time": 105.63142049999999,
          "velocity": 0.14173228346456693
        },
        {
          "duration": 0.0789472499999988,
          "durationTicks": 96,
          "midi": 36,
          "name": "C2",
          "ticks": 128640,
          "time": 105.789315,
          "velocity": 0.14173228346456693
        },
        {
          "duration": 0.0789472499999988,
          "durationTicks": 96,
          "midi": 42,
          "name": "F#2",
          "ticks": 128640,
          "time": 105.789315,
          "velocity": 0.14173228346456693
        },
        {
          "duration": 0.0789472499999988,
          "durationTicks": 96,
          "midi": 38,
          "name": "D2",
          "ticks": 128640,
          "time": 105.789315,
          "velocity": 0.14173228346456693
        },
        {
          "duration": 0.0789472499999988,
          "durationTicks": 96,
          "midi": 40,
          "name": "E2",
          "ticks": 128640,
          "time": 105.789315,
          "velocity": 0.14173228346456693
        },
        {
          "duration": 0.0789472499999988,
          "durationTicks": 96,
          "midi": 42,
          "name": "F#2",
          "ticks": 128832,
          "time": 105.9472095,
          "velocity": 0.14173228346456693
        },
        {
          "duration": 0.0789472499999988,
          "durationTicks": 96,
          "midi": 44,
          "name": "G#2",
          "ticks": 129024,
          "time": 106.105104,
          "velocity": 0.14173228346456693
        },
        {
          "duration": 0.0789472499999988,
          "durationTicks": 96,
          "midi": 35,
          "name": "B1",
          "ticks": 129024,
          "time": 106.105104,
          "velocity": 0.14173228346456693
        },
        {
          "duration": 0.0789472499999988,
          "durationTicks": 96,
          "midi": 42,
          "name": "F#2",
          "ticks": 129024,
          "time": 106.105104,
          "velocity": 0.14173228346456693
        },
        {
          "duration": 0.0789472499999988,
          "durationTicks": 96,
          "midi": 42,
          "name": "F#2",
          "ticks": 129216,
          "time": 106.2629985,
          "velocity": 0.14173228346456693
        },
        {
          "duration": 0.0789472499999988,
          "durationTicks": 96,
          "midi": 36,
          "name": "C2",
          "ticks": 129408,
          "time": 106.42089299999999,
          "velocity": 0.14173228346456693
        },
        {
          "duration": 0.0789472499999988,
          "durationTicks": 96,
          "midi": 38,
          "name": "D2",
          "ticks": 129408,
          "time": 106.42089299999999,
          "velocity": 0.14173228346456693
        },
        {
          "duration": 0.0789472499999988,
          "durationTicks": 96,
          "midi": 44,
          "name": "G#2",
          "ticks": 129600,
          "time": 106.57878749999999,
          "velocity": 0.14173228346456693
        },
        {
          "duration": 0.0789472499999988,
          "durationTicks": 96,
          "midi": 38,
          "name": "D2",
          "ticks": 129600,
          "time": 106.57878749999999,
          "velocity": 0.14173228346456693
        },
        {
          "duration": 0.0789472499999988,
          "durationTicks": 96,
          "midi": 36,
          "name": "C2",
          "ticks": 129600,
          "time": 106.57878749999999,
          "velocity": 0.14173228346456693
        },
        {
          "duration": 0.0789472499999988,
          "durationTicks": 96,
          "midi": 42,
          "name": "F#2",
          "ticks": 129600,
          "time": 106.57878749999999,
          "velocity": 0.14173228346456693
        },
        {
          "duration": 0.0789472499999988,
          "durationTicks": 96,
          "midi": 42,
          "name": "F#2",
          "ticks": 129792,
          "time": 106.736682,
          "velocity": 0.14173228346456693
        },
        {
          "duration": 0.0789472499999988,
          "durationTicks": 96,
          "midi": 44,
          "name": "G#2",
          "ticks": 129792,
          "time": 106.736682,
          "velocity": 0.14173228346456693
        },
        {
          "duration": 0.0789472499999988,
          "durationTicks": 96,
          "midi": 44,
          "name": "G#2",
          "ticks": 129984,
          "time": 106.8945765,
          "velocity": 0.14173228346456693
        },
        {
          "duration": 0.0789472499999988,
          "durationTicks": 96,
          "midi": 42,
          "name": "F#2",
          "ticks": 130176,
          "time": 107.052471,
          "velocity": 0.14173228346456693
        },
        {
          "duration": 0.0789472499999988,
          "durationTicks": 96,
          "midi": 40,
          "name": "E2",
          "ticks": 130176,
          "time": 107.052471,
          "velocity": 0.14173228346456693
        },
        {
          "duration": 0.0789472499999988,
          "durationTicks": 96,
          "midi": 38,
          "name": "D2",
          "ticks": 130176,
          "time": 107.052471,
          "velocity": 0.14173228346456693
        },
        {
          "duration": 0.0789472499999988,
          "durationTicks": 96,
          "midi": 36,
          "name": "C2",
          "ticks": 130176,
          "time": 107.052471,
          "velocity": 0.14173228346456693
        },
        {
          "duration": 0.0789472499999988,
          "durationTicks": 96,
          "midi": 42,
          "name": "F#2",
          "ticks": 130368,
          "time": 107.2103655,
          "velocity": 0.14173228346456693
        },
        {
          "duration": 0.0789472499999988,
          "durationTicks": 96,
          "midi": 44,
          "name": "G#2",
          "ticks": 130560,
          "time": 107.36825999999999,
          "velocity": 0.14173228346456693
        },
        {
          "duration": 0.0789472499999988,
          "durationTicks": 96,
          "midi": 35,
          "name": "B1",
          "ticks": 130560,
          "time": 107.36825999999999,
          "velocity": 0.14173228346456693
        },
        {
          "duration": 0.0789472499999988,
          "durationTicks": 96,
          "midi": 42,
          "name": "F#2",
          "ticks": 130560,
          "time": 107.36825999999999,
          "velocity": 0.14173228346456693
        },
        {
          "duration": 0.0789472499999988,
          "durationTicks": 96,
          "midi": 42,
          "name": "F#2",
          "ticks": 130752,
          "time": 107.52615449999999,
          "velocity": 0.14173228346456693
        },
        {
          "duration": 0.0789472499999988,
          "durationTicks": 96,
          "midi": 36,
          "name": "C2",
          "ticks": 130944,
          "time": 107.684049,
          "velocity": 0.14173228346456693
        },
        {
          "duration": 0.0789472499999988,
          "durationTicks": 96,
          "midi": 38,
          "name": "D2",
          "ticks": 130944,
          "time": 107.684049,
          "velocity": 0.14173228346456693
        },
        {
          "duration": 0.0789472499999988,
          "durationTicks": 96,
          "midi": 38,
          "name": "D2",
          "ticks": 131136,
          "time": 107.8419435,
          "velocity": 0.14173228346456693
        },
        {
          "duration": 0.0789472499999988,
          "durationTicks": 96,
          "midi": 42,
          "name": "F#2",
          "ticks": 131136,
          "time": 107.8419435,
          "velocity": 0.14173228346456693
        },
        {
          "duration": 0.0789472499999988,
          "durationTicks": 96,
          "midi": 44,
          "name": "G#2",
          "ticks": 131136,
          "time": 107.8419435,
          "velocity": 0.14173228346456693
        },
        {
          "duration": 0.0789472499999988,
          "durationTicks": 96,
          "midi": 36,
          "name": "C2",
          "ticks": 131136,
          "time": 107.8419435,
          "velocity": 0.14173228346456693
        },
        {
          "duration": 0.0789472499999988,
          "durationTicks": 96,
          "midi": 42,
          "name": "F#2",
          "ticks": 131328,
          "time": 107.999838,
          "velocity": 0.14173228346456693
        },
        {
          "duration": 0.0789472499999988,
          "durationTicks": 96,
          "midi": 44,
          "name": "G#2",
          "ticks": 131328,
          "time": 107.999838,
          "velocity": 0.14173228346456693
        },
        {
          "duration": 0.0789472499999988,
          "durationTicks": 96,
          "midi": 44,
          "name": "G#2",
          "ticks": 131520,
          "time": 108.1577325,
          "velocity": 0.14173228346456693
        },
        {
          "duration": 0.0789472499999988,
          "durationTicks": 96,
          "midi": 36,
          "name": "C2",
          "ticks": 131712,
          "time": 108.31562699999999,
          "velocity": 0.14173228346456693
        },
        {
          "duration": 0.0789472499999988,
          "durationTicks": 96,
          "midi": 42,
          "name": "F#2",
          "ticks": 131712,
          "time": 108.31562699999999,
          "velocity": 0.14173228346456693
        },
        {
          "duration": 0.0789472499999988,
          "durationTicks": 96,
          "midi": 40,
          "name": "E2",
          "ticks": 131712,
          "time": 108.31562699999999,
          "velocity": 0.14173228346456693
        },
        {
          "duration": 0.0789472499999988,
          "durationTicks": 96,
          "midi": 38,
          "name": "D2",
          "ticks": 131712,
          "time": 108.31562699999999,
          "velocity": 0.14173228346456693
        },
        {
          "duration": 0.0789472499999988,
          "durationTicks": 96,
          "midi": 42,
          "name": "F#2",
          "ticks": 131904,
          "time": 108.47352149999999,
          "velocity": 0.14173228346456693
        },
        {
          "duration": 0.0789472499999988,
          "durationTicks": 96,
          "midi": 35,
          "name": "B1",
          "ticks": 132096,
          "time": 108.631416,
          "velocity": 0.14173228346456693
        },
        {
          "duration": 0.0789472499999988,
          "durationTicks": 96,
          "midi": 42,
          "name": "F#2",
          "ticks": 132096,
          "time": 108.631416,
          "velocity": 0.14173228346456693
        },
        {
          "duration": 0.0789472499999988,
          "durationTicks": 96,
          "midi": 44,
          "name": "G#2",
          "ticks": 132096,
          "time": 108.631416,
          "velocity": 0.14173228346456693
        },
        {
          "duration": 0.0789472499999988,
          "durationTicks": 96,
          "midi": 42,
          "name": "F#2",
          "ticks": 132288,
          "time": 108.7893105,
          "velocity": 0.14173228346456693
        },
        {
          "duration": 0.0789472499999988,
          "durationTicks": 96,
          "midi": 38,
          "name": "D2",
          "ticks": 132480,
          "time": 108.947205,
          "velocity": 0.14173228346456693
        },
        {
          "duration": 0.0789472499999988,
          "durationTicks": 96,
          "midi": 36,
          "name": "C2",
          "ticks": 132480,
          "time": 108.947205,
          "velocity": 0.14173228346456693
        },
        {
          "duration": 0.0789472499999988,
          "durationTicks": 96,
          "midi": 38,
          "name": "D2",
          "ticks": 132672,
          "time": 109.1050995,
          "velocity": 0.14173228346456693
        },
        {
          "duration": 0.0789472499999988,
          "durationTicks": 96,
          "midi": 42,
          "name": "F#2",
          "ticks": 132672,
          "time": 109.1050995,
          "velocity": 0.14173228346456693
        },
        {
          "duration": 0.0789472499999988,
          "durationTicks": 96,
          "midi": 36,
          "name": "C2",
          "ticks": 132672,
          "time": 109.1050995,
          "velocity": 0.14173228346456693
        },
        {
          "duration": 0.0789472499999988,
          "durationTicks": 96,
          "midi": 44,
          "name": "G#2",
          "ticks": 132672,
          "time": 109.1050995,
          "velocity": 0.14173228346456693
        },
        {
          "duration": 0.0789472499999988,
          "durationTicks": 96,
          "midi": 42,
          "name": "F#2",
          "ticks": 132864,
          "time": 109.26299399999999,
          "velocity": 0.14173228346456693
        },
        {
          "duration": 0.0789472499999988,
          "durationTicks": 96,
          "midi": 44,
          "name": "G#2",
          "ticks": 132864,
          "time": 109.26299399999999,
          "velocity": 0.14173228346456693
        },
        {
          "duration": 0.0789472499999988,
          "durationTicks": 96,
          "midi": 44,
          "name": "G#2",
          "ticks": 133056,
          "time": 109.42088849999999,
          "velocity": 0.14173228346456693
        },
        {
          "duration": 0.0789472499999988,
          "durationTicks": 96,
          "midi": 36,
          "name": "C2",
          "ticks": 133248,
          "time": 109.578783,
          "velocity": 0.14173228346456693
        },
        {
          "duration": 0.0789472499999988,
          "durationTicks": 96,
          "midi": 42,
          "name": "F#2",
          "ticks": 133248,
          "time": 109.578783,
          "velocity": 0.14173228346456693
        },
        {
          "duration": 0.0789472499999988,
          "durationTicks": 96,
          "midi": 40,
          "name": "E2",
          "ticks": 133248,
          "time": 109.578783,
          "velocity": 0.14173228346456693
        },
        {
          "duration": 0.0789472499999988,
          "durationTicks": 96,
          "midi": 38,
          "name": "D2",
          "ticks": 133248,
          "time": 109.578783,
          "velocity": 0.14173228346456693
        },
        {
          "duration": 0.0789472499999988,
          "durationTicks": 96,
          "midi": 42,
          "name": "F#2",
          "ticks": 133440,
          "time": 109.7366775,
          "velocity": 0.14173228346456693
        },
        {
          "duration": 0.0789472499999988,
          "durationTicks": 96,
          "midi": 35,
          "name": "B1",
          "ticks": 133632,
          "time": 109.894572,
          "velocity": 0.14173228346456693
        },
        {
          "duration": 0.0789472499999988,
          "durationTicks": 96,
          "midi": 42,
          "name": "F#2",
          "ticks": 133632,
          "time": 109.894572,
          "velocity": 0.14173228346456693
        },
        {
          "duration": 0.0789472499999988,
          "durationTicks": 96,
          "midi": 44,
          "name": "G#2",
          "ticks": 133632,
          "time": 109.894572,
          "velocity": 0.14173228346456693
        },
        {
          "duration": 0.0789472499999988,
          "durationTicks": 96,
          "midi": 42,
          "name": "F#2",
          "ticks": 133824,
          "time": 110.0524665,
          "velocity": 0.14173228346456693
        },
        {
          "duration": 0.0789472499999988,
          "durationTicks": 96,
          "midi": 38,
          "name": "D2",
          "ticks": 134016,
          "time": 110.21036099999999,
          "velocity": 0.14173228346456693
        },
        {
          "duration": 0.0789472499999988,
          "durationTicks": 96,
          "midi": 36,
          "name": "C2",
          "ticks": 134016,
          "time": 110.21036099999999,
          "velocity": 0.14173228346456693
        },
        {
          "duration": 0.0789472499999988,
          "durationTicks": 96,
          "midi": 44,
          "name": "G#2",
          "ticks": 134208,
          "time": 110.36825549999999,
          "velocity": 0.14173228346456693
        },
        {
          "duration": 0.0789472499999988,
          "durationTicks": 96,
          "midi": 42,
          "name": "F#2",
          "ticks": 134208,
          "time": 110.36825549999999,
          "velocity": 0.14173228346456693
        },
        {
          "duration": 0.0789472499999988,
          "durationTicks": 96,
          "midi": 36,
          "name": "C2",
          "ticks": 134208,
          "time": 110.36825549999999,
          "velocity": 0.14173228346456693
        },
        {
          "duration": 0.0789472499999988,
          "durationTicks": 96,
          "midi": 38,
          "name": "D2",
          "ticks": 134208,
          "time": 110.36825549999999,
          "velocity": 0.14173228346456693
        },
        {
          "duration": 0.0789472499999988,
          "durationTicks": 96,
          "midi": 42,
          "name": "F#2",
          "ticks": 134400,
          "time": 110.52615,
          "velocity": 0.14173228346456693
        },
        {
          "duration": 0.0789472499999988,
          "durationTicks": 96,
          "midi": 44,
          "name": "G#2",
          "ticks": 134400,
          "time": 110.52615,
          "velocity": 0.14173228346456693
        },
        {
          "duration": 0.0789472499999988,
          "durationTicks": 96,
          "midi": 44,
          "name": "G#2",
          "ticks": 134592,
          "time": 110.6840445,
          "velocity": 0.14173228346456693
        },
        {
          "duration": 0.0789472499999988,
          "durationTicks": 96,
          "midi": 38,
          "name": "D2",
          "ticks": 134784,
          "time": 110.841939,
          "velocity": 0.14173228346456693
        },
        {
          "duration": 0.0789472499999988,
          "durationTicks": 96,
          "midi": 36,
          "name": "C2",
          "ticks": 134784,
          "time": 110.841939,
          "velocity": 0.14173228346456693
        },
        {
          "duration": 0.0789472499999988,
          "durationTicks": 96,
          "midi": 42,
          "name": "F#2",
          "ticks": 134784,
          "time": 110.841939,
          "velocity": 0.14173228346456693
        },
        {
          "duration": 0.0789472499999988,
          "durationTicks": 96,
          "midi": 40,
          "name": "E2",
          "ticks": 134784,
          "time": 110.841939,
          "velocity": 0.14173228346456693
        },
        {
          "duration": 0.0789472499999988,
          "durationTicks": 96,
          "midi": 42,
          "name": "F#2",
          "ticks": 134976,
          "time": 110.9998335,
          "velocity": 0.14173228346456693
        }
      ],
      "endOfTrackTicks": 135072
    },
    {
      "channel": 0,
      "controlChanges": {},
      "pitchBends": [],
      "instrument": {
        "family": "synth lead",
        "number": 80,
        "name": "lead 1 (square)"
      },
      "name": "Smooth Synth",
      "notes": [
        {
          "duration": 0.07894725000000058,
          "durationTicks": 96,
          "midi": 60,
          "name": "C4",
          "ticks": 12288,
          "time": 10.105248,
          "velocity": 0.6771653543307087
        },
        {
          "duration": 0.07894725000000058,
          "durationTicks": 96,
          "midi": 72,
          "name": "C5",
          "ticks": 12288,
          "time": 10.105248,
          "velocity": 0.6771653543307087
        },
        {
          "duration": 0.07894725000000058,
          "durationTicks": 96,
          "midi": 77,
          "name": "F5",
          "ticks": 12288,
          "time": 10.105248,
          "velocity": 0.6771653543307087
        },
        {
          "duration": 0.07894725000000058,
          "durationTicks": 96,
          "midi": 65,
          "name": "F4",
          "ticks": 12288,
          "time": 10.105248,
          "velocity": 0.6771653543307087
        },
        {
          "duration": 0.0789472499999988,
          "durationTicks": 96,
          "midi": 65,
          "name": "F4",
          "ticks": 12384,
          "time": 10.18419525,
          "velocity": 0.6771653543307087
        },
        {
          "duration": 0.0789472499999988,
          "durationTicks": 96,
          "midi": 60,
          "name": "C4",
          "ticks": 12384,
          "time": 10.18419525,
          "velocity": 0.6771653543307087
        },
        {
          "duration": 0.0789472499999988,
          "durationTicks": 96,
          "midi": 77,
          "name": "F5",
          "ticks": 12384,
          "time": 10.18419525,
          "velocity": 0.6771653543307087
        },
        {
          "duration": 0.0789472499999988,
          "durationTicks": 96,
          "midi": 72,
          "name": "C5",
          "ticks": 12384,
          "time": 10.18419525,
          "velocity": 0.6771653543307087
        },
        {
          "duration": 0.07894725000000058,
          "durationTicks": 96,
          "midi": 60,
          "name": "C4",
          "ticks": 12480,
          "time": 10.263142499999999,
          "velocity": 0.6771653543307087
        },
        {
          "duration": 0.07894725000000058,
          "durationTicks": 96,
          "midi": 65,
          "name": "F4",
          "ticks": 12480,
          "time": 10.263142499999999,
          "velocity": 0.6771653543307087
        },
        {
          "duration": 0.07894725000000058,
          "durationTicks": 96,
          "midi": 77,
          "name": "F5",
          "ticks": 12480,
          "time": 10.263142499999999,
          "velocity": 0.6771653543307087
        },
        {
          "duration": 0.07894725000000058,
          "durationTicks": 96,
          "midi": 72,
          "name": "C5",
          "ticks": 12480,
          "time": 10.263142499999999,
          "velocity": 0.6771653543307087
        },
        {
          "duration": 0.07894725000000058,
          "durationTicks": 96,
          "midi": 65,
          "name": "F4",
          "ticks": 12576,
          "time": 10.34208975,
          "velocity": 0.6771653543307087
        },
        {
          "duration": 0.07894725000000058,
          "durationTicks": 96,
          "midi": 72,
          "name": "C5",
          "ticks": 12576,
          "time": 10.34208975,
          "velocity": 0.6771653543307087
        },
        {
          "duration": 0.07894725000000058,
          "durationTicks": 96,
          "midi": 77,
          "name": "F5",
          "ticks": 12576,
          "time": 10.34208975,
          "velocity": 0.6771653543307087
        },
        {
          "duration": 0.07894725000000058,
          "durationTicks": 96,
          "midi": 60,
          "name": "C4",
          "ticks": 12576,
          "time": 10.34208975,
          "velocity": 0.6771653543307087
        },
        {
          "duration": 0.0789472499999988,
          "durationTicks": 96,
          "midi": 72,
          "name": "C5",
          "ticks": 12672,
          "time": 10.421037,
          "velocity": 0.6771653543307087
        },
        {
          "duration": 0.0789472499999988,
          "durationTicks": 96,
          "midi": 60,
          "name": "C4",
          "ticks": 12672,
          "time": 10.421037,
          "velocity": 0.6771653543307087
        },
        {
          "duration": 0.0789472499999988,
          "durationTicks": 96,
          "midi": 77,
          "name": "F5",
          "ticks": 12672,
          "time": 10.421037,
          "velocity": 0.6771653543307087
        },
        {
          "duration": 0.0789472499999988,
          "durationTicks": 96,
          "midi": 65,
          "name": "F4",
          "ticks": 12672,
          "time": 10.421037,
          "velocity": 0.6771653543307087
        },
        {
          "duration": 0.07894725000000058,
          "durationTicks": 96,
          "midi": 72,
          "name": "C5",
          "ticks": 12768,
          "time": 10.499984249999999,
          "velocity": 0.6771653543307087
        },
        {
          "duration": 0.07894725000000058,
          "durationTicks": 96,
          "midi": 65,
          "name": "F4",
          "ticks": 12768,
          "time": 10.499984249999999,
          "velocity": 0.6771653543307087
        },
        {
          "duration": 0.07894725000000058,
          "durationTicks": 96,
          "midi": 77,
          "name": "F5",
          "ticks": 12768,
          "time": 10.499984249999999,
          "velocity": 0.6771653543307087
        },
        {
          "duration": 0.07894725000000058,
          "durationTicks": 96,
          "midi": 60,
          "name": "C4",
          "ticks": 12768,
          "time": 10.499984249999999,
          "velocity": 0.6771653543307087
        },
        {
          "duration": 0.07894725000000058,
          "durationTicks": 96,
          "midi": 77,
          "name": "F5",
          "ticks": 12864,
          "time": 10.5789315,
          "velocity": 0.6771653543307087
        },
        {
          "duration": 0.07894725000000058,
          "durationTicks": 96,
          "midi": 72,
          "name": "C5",
          "ticks": 12864,
          "time": 10.5789315,
          "velocity": 0.6771653543307087
        },
        {
          "duration": 0.07894725000000058,
          "durationTicks": 96,
          "midi": 65,
          "name": "F4",
          "ticks": 12864,
          "time": 10.5789315,
          "velocity": 0.6771653543307087
        },
        {
          "duration": 0.07894725000000058,
          "durationTicks": 96,
          "midi": 60,
          "name": "C4",
          "ticks": 12864,
          "time": 10.5789315,
          "velocity": 0.6771653543307087
        },
        {
          "duration": 0.0789472499999988,
          "durationTicks": 96,
          "midi": 72,
          "name": "C5",
          "ticks": 12960,
          "time": 10.65787875,
          "velocity": 0.6771653543307087
        },
        {
          "duration": 0.0789472499999988,
          "durationTicks": 96,
          "midi": 77,
          "name": "F5",
          "ticks": 12960,
          "time": 10.65787875,
          "velocity": 0.6771653543307087
        },
        {
          "duration": 0.0789472499999988,
          "durationTicks": 96,
          "midi": 65,
          "name": "F4",
          "ticks": 12960,
          "time": 10.65787875,
          "velocity": 0.6771653543307087
        },
        {
          "duration": 0.0789472499999988,
          "durationTicks": 96,
          "midi": 60,
          "name": "C4",
          "ticks": 12960,
          "time": 10.65787875,
          "velocity": 0.6771653543307087
        },
        {
          "duration": 0.07894725000000058,
          "durationTicks": 96,
          "midi": 65,
          "name": "F4",
          "ticks": 13056,
          "time": 10.736825999999999,
          "velocity": 0.6771653543307087
        },
        {
          "duration": 0.07894725000000058,
          "durationTicks": 96,
          "midi": 72,
          "name": "C5",
          "ticks": 13056,
          "time": 10.736825999999999,
          "velocity": 0.6771653543307087
        },
        {
          "duration": 0.07894725000000058,
          "durationTicks": 96,
          "midi": 77,
          "name": "F5",
          "ticks": 13056,
          "time": 10.736825999999999,
          "velocity": 0.6771653543307087
        },
        {
          "duration": 0.07894725000000058,
          "durationTicks": 96,
          "midi": 60,
          "name": "C4",
          "ticks": 13056,
          "time": 10.736825999999999,
          "velocity": 0.6771653543307087
        },
        {
          "duration": 0.07894725000000058,
          "durationTicks": 96,
          "midi": 72,
          "name": "C5",
          "ticks": 13152,
          "time": 10.81577325,
          "velocity": 0.6771653543307087
        },
        {
          "duration": 0.07894725000000058,
          "durationTicks": 96,
          "midi": 60,
          "name": "C4",
          "ticks": 13152,
          "time": 10.81577325,
          "velocity": 0.6771653543307087
        },
        {
          "duration": 0.07894725000000058,
          "durationTicks": 96,
          "midi": 77,
          "name": "F5",
          "ticks": 13152,
          "time": 10.81577325,
          "velocity": 0.6771653543307087
        },
        {
          "duration": 0.07894725000000058,
          "durationTicks": 96,
          "midi": 65,
          "name": "F4",
          "ticks": 13152,
          "time": 10.81577325,
          "velocity": 0.6771653543307087
        },
        {
          "duration": 0.0789472499999988,
          "durationTicks": 96,
          "midi": 65,
          "name": "F4",
          "ticks": 13248,
          "time": 10.8947205,
          "velocity": 0.6771653543307087
        },
        {
          "duration": 0.0789472499999988,
          "durationTicks": 96,
          "midi": 60,
          "name": "C4",
          "ticks": 13248,
          "time": 10.8947205,
          "velocity": 0.6771653543307087
        },
        {
          "duration": 0.0789472499999988,
          "durationTicks": 96,
          "midi": 72,
          "name": "C5",
          "ticks": 13248,
          "time": 10.8947205,
          "velocity": 0.6771653543307087
        },
        {
          "duration": 0.0789472499999988,
          "durationTicks": 96,
          "midi": 77,
          "name": "F5",
          "ticks": 13248,
          "time": 10.8947205,
          "velocity": 0.6771653543307087
        },
        {
          "duration": 0.07894725000000058,
          "durationTicks": 96,
          "midi": 72,
          "name": "C5",
          "ticks": 13344,
          "time": 10.973667749999999,
          "velocity": 0.6771653543307087
        },
        {
          "duration": 0.07894725000000058,
          "durationTicks": 96,
          "midi": 77,
          "name": "F5",
          "ticks": 13344,
          "time": 10.973667749999999,
          "velocity": 0.6771653543307087
        },
        {
          "duration": 0.07894725000000058,
          "durationTicks": 96,
          "midi": 65,
          "name": "F4",
          "ticks": 13344,
          "time": 10.973667749999999,
          "velocity": 0.6771653543307087
        },
        {
          "duration": 0.07894725000000058,
          "durationTicks": 96,
          "midi": 60,
          "name": "C4",
          "ticks": 13344,
          "time": 10.973667749999999,
          "velocity": 0.6771653543307087
        },
        {
          "duration": 0.07894725000000058,
          "durationTicks": 96,
          "midi": 65,
          "name": "F4",
          "ticks": 13440,
          "time": 11.052615,
          "velocity": 0.6771653543307087
        },
        {
          "duration": 0.07894725000000058,
          "durationTicks": 96,
          "midi": 77,
          "name": "F5",
          "ticks": 13440,
          "time": 11.052615,
          "velocity": 0.6771653543307087
        },
        {
          "duration": 0.07894725000000058,
          "durationTicks": 96,
          "midi": 60,
          "name": "C4",
          "ticks": 13440,
          "time": 11.052615,
          "velocity": 0.6771653543307087
        },
        {
          "duration": 0.07894725000000058,
          "durationTicks": 96,
          "midi": 72,
          "name": "C5",
          "ticks": 13440,
          "time": 11.052615,
          "velocity": 0.6771653543307087
        },
        {
          "duration": 0.0789472499999988,
          "durationTicks": 96,
          "midi": 72,
          "name": "C5",
          "ticks": 13536,
          "time": 11.13156225,
          "velocity": 0.6771653543307087
        },
        {
          "duration": 0.0789472499999988,
          "durationTicks": 96,
          "midi": 65,
          "name": "F4",
          "ticks": 13536,
          "time": 11.13156225,
          "velocity": 0.6771653543307087
        },
        {
          "duration": 0.0789472499999988,
          "durationTicks": 96,
          "midi": 77,
          "name": "F5",
          "ticks": 13536,
          "time": 11.13156225,
          "velocity": 0.6771653543307087
        },
        {
          "duration": 0.0789472499999988,
          "durationTicks": 96,
          "midi": 60,
          "name": "C4",
          "ticks": 13536,
          "time": 11.13156225,
          "velocity": 0.6771653543307087
        },
        {
          "duration": 0.07894725000000058,
          "durationTicks": 96,
          "midi": 72,
          "name": "C5",
          "ticks": 13632,
          "time": 11.210509499999999,
          "velocity": 0.6771653543307087
        },
        {
          "duration": 0.07894725000000058,
          "durationTicks": 96,
          "midi": 60,
          "name": "C4",
          "ticks": 13632,
          "time": 11.210509499999999,
          "velocity": 0.6771653543307087
        },
        {
          "duration": 0.07894725000000058,
          "durationTicks": 96,
          "midi": 65,
          "name": "F4",
          "ticks": 13632,
          "time": 11.210509499999999,
          "velocity": 0.6771653543307087
        },
        {
          "duration": 0.07894725000000058,
          "durationTicks": 96,
          "midi": 77,
          "name": "F5",
          "ticks": 13632,
          "time": 11.210509499999999,
          "velocity": 0.6771653543307087
        },
        {
          "duration": 0.07894725000000058,
          "durationTicks": 96,
          "midi": 60,
          "name": "C4",
          "ticks": 13728,
          "time": 11.28945675,
          "velocity": 0.6771653543307087
        },
        {
          "duration": 0.07894725000000058,
          "durationTicks": 96,
          "midi": 72,
          "name": "C5",
          "ticks": 13728,
          "time": 11.28945675,
          "velocity": 0.6771653543307087
        },
        {
          "duration": 0.07894725000000058,
          "durationTicks": 96,
          "midi": 77,
          "name": "F5",
          "ticks": 13728,
          "time": 11.28945675,
          "velocity": 0.6771653543307087
        },
        {
          "duration": 0.07894725000000058,
          "durationTicks": 96,
          "midi": 65,
          "name": "F4",
          "ticks": 13728,
          "time": 11.28945675,
          "velocity": 0.6771653543307087
        },
        {
          "duration": 0.0789472499999988,
          "durationTicks": 96,
          "midi": 60,
          "name": "C4",
          "ticks": 13824,
          "time": 11.368404,
          "velocity": 0.6771653543307087
        },
        {
          "duration": 0.0789472499999988,
          "durationTicks": 96,
          "midi": 65,
          "name": "F4",
          "ticks": 13824,
          "time": 11.368404,
          "velocity": 0.6771653543307087
        },
        {
          "duration": 0.0789472499999988,
          "durationTicks": 96,
          "midi": 77,
          "name": "F5",
          "ticks": 13824,
          "time": 11.368404,
          "velocity": 0.6771653543307087
        },
        {
          "duration": 0.0789472499999988,
          "durationTicks": 96,
          "midi": 72,
          "name": "C5",
          "ticks": 13824,
          "time": 11.368404,
          "velocity": 0.6771653543307087
        },
        {
          "duration": 0.07894725000000058,
          "durationTicks": 96,
          "midi": 77,
          "name": "F5",
          "ticks": 13920,
          "time": 11.447351249999999,
          "velocity": 0.6771653543307087
        },
        {
          "duration": 0.07894725000000058,
          "durationTicks": 96,
          "midi": 72,
          "name": "C5",
          "ticks": 13920,
          "time": 11.447351249999999,
          "velocity": 0.6771653543307087
        },
        {
          "duration": 0.07894725000000058,
          "durationTicks": 96,
          "midi": 60,
          "name": "C4",
          "ticks": 13920,
          "time": 11.447351249999999,
          "velocity": 0.6771653543307087
        },
        {
          "duration": 0.07894725000000058,
          "durationTicks": 96,
          "midi": 65,
          "name": "F4",
          "ticks": 13920,
          "time": 11.447351249999999,
          "velocity": 0.6771653543307087
        },
        {
          "duration": 0.07894725000000058,
          "durationTicks": 96,
          "midi": 72,
          "name": "C5",
          "ticks": 14016,
          "time": 11.5262985,
          "velocity": 0.6771653543307087
        },
        {
          "duration": 0.07894725000000058,
          "durationTicks": 96,
          "midi": 77,
          "name": "F5",
          "ticks": 14016,
          "time": 11.5262985,
          "velocity": 0.6771653543307087
        },
        {
          "duration": 0.07894725000000058,
          "durationTicks": 96,
          "midi": 60,
          "name": "C4",
          "ticks": 14016,
          "time": 11.5262985,
          "velocity": 0.6771653543307087
        },
        {
          "duration": 0.07894725000000058,
          "durationTicks": 96,
          "midi": 65,
          "name": "F4",
          "ticks": 14016,
          "time": 11.5262985,
          "velocity": 0.6771653543307087
        },
        {
          "duration": 0.0789472499999988,
          "durationTicks": 96,
          "midi": 60,
          "name": "C4",
          "ticks": 14112,
          "time": 11.60524575,
          "velocity": 0.6771653543307087
        },
        {
          "duration": 0.0789472499999988,
          "durationTicks": 96,
          "midi": 65,
          "name": "F4",
          "ticks": 14112,
          "time": 11.60524575,
          "velocity": 0.6771653543307087
        },
        {
          "duration": 0.0789472499999988,
          "durationTicks": 96,
          "midi": 72,
          "name": "C5",
          "ticks": 14112,
          "time": 11.60524575,
          "velocity": 0.6771653543307087
        },
        {
          "duration": 0.0789472499999988,
          "durationTicks": 96,
          "midi": 77,
          "name": "F5",
          "ticks": 14112,
          "time": 11.60524575,
          "velocity": 0.6771653543307087
        },
        {
          "duration": 0.07894725000000058,
          "durationTicks": 96,
          "midi": 65,
          "name": "F4",
          "ticks": 14208,
          "time": 11.684192999999999,
          "velocity": 0.6771653543307087
        },
        {
          "duration": 0.07894725000000058,
          "durationTicks": 96,
          "midi": 60,
          "name": "C4",
          "ticks": 14208,
          "time": 11.684192999999999,
          "velocity": 0.6771653543307087
        },
        {
          "duration": 0.07894725000000058,
          "durationTicks": 96,
          "midi": 72,
          "name": "C5",
          "ticks": 14208,
          "time": 11.684192999999999,
          "velocity": 0.6771653543307087
        },
        {
          "duration": 0.07894725000000058,
          "durationTicks": 96,
          "midi": 77,
          "name": "F5",
          "ticks": 14208,
          "time": 11.684192999999999,
          "velocity": 0.6771653543307087
        },
        {
          "duration": 0.07894725000000058,
          "durationTicks": 96,
          "midi": 77,
          "name": "F5",
          "ticks": 14304,
          "time": 11.76314025,
          "velocity": 0.6771653543307087
        },
        {
          "duration": 0.07894725000000058,
          "durationTicks": 96,
          "midi": 65,
          "name": "F4",
          "ticks": 14304,
          "time": 11.76314025,
          "velocity": 0.6771653543307087
        },
        {
          "duration": 0.07894725000000058,
          "durationTicks": 96,
          "midi": 60,
          "name": "C4",
          "ticks": 14304,
          "time": 11.76314025,
          "velocity": 0.6771653543307087
        },
        {
          "duration": 0.07894725000000058,
          "durationTicks": 96,
          "midi": 72,
          "name": "C5",
          "ticks": 14304,
          "time": 11.76314025,
          "velocity": 0.6771653543307087
        },
        {
          "duration": 0.0789472499999988,
          "durationTicks": 96,
          "midi": 60,
          "name": "C4",
          "ticks": 14400,
          "time": 11.8420875,
          "velocity": 0.6771653543307087
        },
        {
          "duration": 0.0789472499999988,
          "durationTicks": 96,
          "midi": 72,
          "name": "C5",
          "ticks": 14400,
          "time": 11.8420875,
          "velocity": 0.6771653543307087
        },
        {
          "duration": 0.0789472499999988,
          "durationTicks": 96,
          "midi": 65,
          "name": "F4",
          "ticks": 14400,
          "time": 11.8420875,
          "velocity": 0.6771653543307087
        },
        {
          "duration": 0.0789472499999988,
          "durationTicks": 96,
          "midi": 77,
          "name": "F5",
          "ticks": 14400,
          "time": 11.8420875,
          "velocity": 0.6771653543307087
        },
        {
          "duration": 0.07894725000000058,
          "durationTicks": 96,
          "midi": 60,
          "name": "C4",
          "ticks": 14496,
          "time": 11.921034749999999,
          "velocity": 0.6771653543307087
        },
        {
          "duration": 0.07894725000000058,
          "durationTicks": 96,
          "midi": 72,
          "name": "C5",
          "ticks": 14496,
          "time": 11.921034749999999,
          "velocity": 0.6771653543307087
        },
        {
          "duration": 0.07894725000000058,
          "durationTicks": 96,
          "midi": 77,
          "name": "F5",
          "ticks": 14496,
          "time": 11.921034749999999,
          "velocity": 0.6771653543307087
        },
        {
          "duration": 0.07894725000000058,
          "durationTicks": 96,
          "midi": 65,
          "name": "F4",
          "ticks": 14496,
          "time": 11.921034749999999,
          "velocity": 0.6771653543307087
        },
        {
          "duration": 0.07894725000000058,
          "durationTicks": 96,
          "midi": 60,
          "name": "C4",
          "ticks": 14592,
          "time": 11.999982,
          "velocity": 0.6771653543307087
        },
        {
          "duration": 0.07894725000000058,
          "durationTicks": 96,
          "midi": 65,
          "name": "F4",
          "ticks": 14592,
          "time": 11.999982,
          "velocity": 0.6771653543307087
        },
        {
          "duration": 0.07894725000000058,
          "durationTicks": 96,
          "midi": 72,
          "name": "C5",
          "ticks": 14592,
          "time": 11.999982,
          "velocity": 0.6771653543307087
        },
        {
          "duration": 0.07894725000000058,
          "durationTicks": 96,
          "midi": 77,
          "name": "F5",
          "ticks": 14592,
          "time": 11.999982,
          "velocity": 0.6771653543307087
        },
        {
          "duration": 0.0789472499999988,
          "durationTicks": 96,
          "midi": 65,
          "name": "F4",
          "ticks": 14688,
          "time": 12.07892925,
          "velocity": 0.6771653543307087
        },
        {
          "duration": 0.0789472499999988,
          "durationTicks": 96,
          "midi": 77,
          "name": "F5",
          "ticks": 14688,
          "time": 12.07892925,
          "velocity": 0.6771653543307087
        },
        {
          "duration": 0.0789472499999988,
          "durationTicks": 96,
          "midi": 72,
          "name": "C5",
          "ticks": 14688,
          "time": 12.07892925,
          "velocity": 0.6771653543307087
        },
        {
          "duration": 0.0789472499999988,
          "durationTicks": 96,
          "midi": 60,
          "name": "C4",
          "ticks": 14688,
          "time": 12.07892925,
          "velocity": 0.6771653543307087
        },
        {
          "duration": 0.07894725000000058,
          "durationTicks": 96,
          "midi": 72,
          "name": "C5",
          "ticks": 14784,
          "time": 12.157876499999999,
          "velocity": 0.6771653543307087
        },
        {
          "duration": 0.07894725000000058,
          "durationTicks": 96,
          "midi": 65,
          "name": "F4",
          "ticks": 14784,
          "time": 12.157876499999999,
          "velocity": 0.6771653543307087
        },
        {
          "duration": 0.07894725000000058,
          "durationTicks": 96,
          "midi": 60,
          "name": "C4",
          "ticks": 14784,
          "time": 12.157876499999999,
          "velocity": 0.6771653543307087
        },
        {
          "duration": 0.07894725000000058,
          "durationTicks": 96,
          "midi": 77,
          "name": "F5",
          "ticks": 14784,
          "time": 12.157876499999999,
          "velocity": 0.6771653543307087
        },
        {
          "duration": 0.07894725000000058,
          "durationTicks": 96,
          "midi": 77,
          "name": "F5",
          "ticks": 14880,
          "time": 12.23682375,
          "velocity": 0.6771653543307087
        },
        {
          "duration": 0.07894725000000058,
          "durationTicks": 96,
          "midi": 60,
          "name": "C4",
          "ticks": 14880,
          "time": 12.23682375,
          "velocity": 0.6771653543307087
        },
        {
          "duration": 0.07894725000000058,
          "durationTicks": 96,
          "midi": 72,
          "name": "C5",
          "ticks": 14880,
          "time": 12.23682375,
          "velocity": 0.6771653543307087
        },
        {
          "duration": 0.07894725000000058,
          "durationTicks": 96,
          "midi": 65,
          "name": "F4",
          "ticks": 14880,
          "time": 12.23682375,
          "velocity": 0.6771653543307087
        },
        {
          "duration": 0.0789472499999988,
          "durationTicks": 96,
          "midi": 65,
          "name": "F4",
          "ticks": 14976,
          "time": 12.315771,
          "velocity": 0.6771653543307087
        },
        {
          "duration": 0.0789472499999988,
          "durationTicks": 96,
          "midi": 77,
          "name": "F5",
          "ticks": 14976,
          "time": 12.315771,
          "velocity": 0.6771653543307087
        },
        {
          "duration": 0.0789472499999988,
          "durationTicks": 96,
          "midi": 72,
          "name": "C5",
          "ticks": 14976,
          "time": 12.315771,
          "velocity": 0.6771653543307087
        },
        {
          "duration": 0.0789472499999988,
          "durationTicks": 96,
          "midi": 60,
          "name": "C4",
          "ticks": 14976,
          "time": 12.315771,
          "velocity": 0.6771653543307087
        },
        {
          "duration": 0.07894725000000058,
          "durationTicks": 96,
          "midi": 72,
          "name": "C5",
          "ticks": 15072,
          "time": 12.394718249999999,
          "velocity": 0.6771653543307087
        },
        {
          "duration": 0.07894725000000058,
          "durationTicks": 96,
          "midi": 65,
          "name": "F4",
          "ticks": 15072,
          "time": 12.394718249999999,
          "velocity": 0.6771653543307087
        },
        {
          "duration": 0.07894725000000058,
          "durationTicks": 96,
          "midi": 77,
          "name": "F5",
          "ticks": 15072,
          "time": 12.394718249999999,
          "velocity": 0.6771653543307087
        },
        {
          "duration": 0.07894725000000058,
          "durationTicks": 96,
          "midi": 60,
          "name": "C4",
          "ticks": 15072,
          "time": 12.394718249999999,
          "velocity": 0.6771653543307087
        },
        {
          "duration": 0.07894725000000058,
          "durationTicks": 96,
          "midi": 60,
          "name": "C4",
          "ticks": 15168,
          "time": 12.4736655,
          "velocity": 0.6771653543307087
        },
        {
          "duration": 0.07894725000000058,
          "durationTicks": 96,
          "midi": 65,
          "name": "F4",
          "ticks": 15168,
          "time": 12.4736655,
          "velocity": 0.6771653543307087
        },
        {
          "duration": 0.07894725000000058,
          "durationTicks": 96,
          "midi": 72,
          "name": "C5",
          "ticks": 15168,
          "time": 12.4736655,
          "velocity": 0.6771653543307087
        },
        {
          "duration": 0.07894725000000058,
          "durationTicks": 96,
          "midi": 77,
          "name": "F5",
          "ticks": 15168,
          "time": 12.4736655,
          "velocity": 0.6771653543307087
        },
        {
          "duration": 0.07894725000000058,
          "durationTicks": 96,
          "midi": 77,
          "name": "F5",
          "ticks": 15264,
          "time": 12.55261275,
          "velocity": 0.6771653543307087
        },
        {
          "duration": 0.07894725000000058,
          "durationTicks": 96,
          "midi": 72,
          "name": "C5",
          "ticks": 15264,
          "time": 12.55261275,
          "velocity": 0.6771653543307087
        },
        {
          "duration": 0.07894725000000058,
          "durationTicks": 96,
          "midi": 60,
          "name": "C4",
          "ticks": 15264,
          "time": 12.55261275,
          "velocity": 0.6771653543307087
        },
        {
          "duration": 0.07894725000000058,
          "durationTicks": 96,
          "midi": 65,
          "name": "F4",
          "ticks": 15264,
          "time": 12.55261275,
          "velocity": 0.6771653543307087
        },
        {
          "duration": 0.0789472499999988,
          "durationTicks": 96,
          "midi": 72,
          "name": "C5",
          "ticks": 15360,
          "time": 12.63156,
          "velocity": 0.6771653543307087
        },
        {
          "duration": 0.0789472499999988,
          "durationTicks": 96,
          "midi": 68,
          "name": "G#4",
          "ticks": 15360,
          "time": 12.63156,
          "velocity": 0.6771653543307087
        },
        {
          "duration": 0.0789472499999988,
          "durationTicks": 96,
          "midi": 60,
          "name": "C4",
          "ticks": 15360,
          "time": 12.63156,
          "velocity": 0.6771653543307087
        },
        {
          "duration": 0.0789472499999988,
          "durationTicks": 96,
          "midi": 80,
          "name": "G#5",
          "ticks": 15360,
          "time": 12.63156,
          "velocity": 0.6771653543307087
        },
        {
          "duration": 0.07894725000000058,
          "durationTicks": 96,
          "midi": 72,
          "name": "C5",
          "ticks": 15456,
          "time": 12.71050725,
          "velocity": 0.6771653543307087
        },
        {
          "duration": 0.07894725000000058,
          "durationTicks": 96,
          "midi": 80,
          "name": "G#5",
          "ticks": 15456,
          "time": 12.71050725,
          "velocity": 0.6771653543307087
        },
        {
          "duration": 0.07894725000000058,
          "durationTicks": 96,
          "midi": 68,
          "name": "G#4",
          "ticks": 15456,
          "time": 12.71050725,
          "velocity": 0.6771653543307087
        },
        {
          "duration": 0.07894725000000058,
          "durationTicks": 96,
          "midi": 60,
          "name": "C4",
          "ticks": 15456,
          "time": 12.71050725,
          "velocity": 0.6771653543307087
        },
        {
          "duration": 0.07894725000000058,
          "durationTicks": 96,
          "midi": 72,
          "name": "C5",
          "ticks": 15552,
          "time": 12.7894545,
          "velocity": 0.6771653543307087
        },
        {
          "duration": 0.07894725000000058,
          "durationTicks": 96,
          "midi": 80,
          "name": "G#5",
          "ticks": 15552,
          "time": 12.7894545,
          "velocity": 0.6771653543307087
        },
        {
          "duration": 0.07894725000000058,
          "durationTicks": 96,
          "midi": 60,
          "name": "C4",
          "ticks": 15552,
          "time": 12.7894545,
          "velocity": 0.6771653543307087
        },
        {
          "duration": 0.07894725000000058,
          "durationTicks": 96,
          "midi": 68,
          "name": "G#4",
          "ticks": 15552,
          "time": 12.7894545,
          "velocity": 0.6771653543307087
        },
        {
          "duration": 0.0789472499999988,
          "durationTicks": 96,
          "midi": 72,
          "name": "C5",
          "ticks": 15648,
          "time": 12.86840175,
          "velocity": 0.6771653543307087
        },
        {
          "duration": 0.0789472499999988,
          "durationTicks": 96,
          "midi": 60,
          "name": "C4",
          "ticks": 15648,
          "time": 12.86840175,
          "velocity": 0.6771653543307087
        },
        {
          "duration": 0.0789472499999988,
          "durationTicks": 96,
          "midi": 68,
          "name": "G#4",
          "ticks": 15648,
          "time": 12.86840175,
          "velocity": 0.6771653543307087
        },
        {
          "duration": 0.0789472499999988,
          "durationTicks": 96,
          "midi": 80,
          "name": "G#5",
          "ticks": 15648,
          "time": 12.86840175,
          "velocity": 0.6771653543307087
        },
        {
          "duration": 0.07894725000000058,
          "durationTicks": 96,
          "midi": 68,
          "name": "G#4",
          "ticks": 15744,
          "time": 12.947348999999999,
          "velocity": 0.6771653543307087
        },
        {
          "duration": 0.07894725000000058,
          "durationTicks": 96,
          "midi": 80,
          "name": "G#5",
          "ticks": 15744,
          "time": 12.947348999999999,
          "velocity": 0.6771653543307087
        },
        {
          "duration": 0.07894725000000058,
          "durationTicks": 96,
          "midi": 72,
          "name": "C5",
          "ticks": 15744,
          "time": 12.947348999999999,
          "velocity": 0.6771653543307087
        },
        {
          "duration": 0.07894725000000058,
          "durationTicks": 96,
          "midi": 60,
          "name": "C4",
          "ticks": 15744,
          "time": 12.947348999999999,
          "velocity": 0.6771653543307087
        },
        {
          "duration": 0.07894725000000058,
          "durationTicks": 96,
          "midi": 68,
          "name": "G#4",
          "ticks": 15840,
          "time": 13.02629625,
          "velocity": 0.6771653543307087
        },
        {
          "duration": 0.07894725000000058,
          "durationTicks": 96,
          "midi": 60,
          "name": "C4",
          "ticks": 15840,
          "time": 13.02629625,
          "velocity": 0.6771653543307087
        },
        {
          "duration": 0.07894725000000058,
          "durationTicks": 96,
          "midi": 72,
          "name": "C5",
          "ticks": 15840,
          "time": 13.02629625,
          "velocity": 0.6771653543307087
        },
        {
          "duration": 0.07894725000000058,
          "durationTicks": 96,
          "midi": 80,
          "name": "G#5",
          "ticks": 15840,
          "time": 13.02629625,
          "velocity": 0.6771653543307087
        },
        {
          "duration": 0.0789472499999988,
          "durationTicks": 96,
          "midi": 72,
          "name": "C5",
          "ticks": 15936,
          "time": 13.1052435,
          "velocity": 0.6771653543307087
        },
        {
          "duration": 0.0789472499999988,
          "durationTicks": 96,
          "midi": 80,
          "name": "G#5",
          "ticks": 15936,
          "time": 13.1052435,
          "velocity": 0.6771653543307087
        },
        {
          "duration": 0.0789472499999988,
          "durationTicks": 96,
          "midi": 60,
          "name": "C4",
          "ticks": 15936,
          "time": 13.1052435,
          "velocity": 0.6771653543307087
        },
        {
          "duration": 0.0789472499999988,
          "durationTicks": 96,
          "midi": 68,
          "name": "G#4",
          "ticks": 15936,
          "time": 13.1052435,
          "velocity": 0.6771653543307087
        },
        {
          "duration": 0.07894725000000058,
          "durationTicks": 96,
          "midi": 60,
          "name": "C4",
          "ticks": 16032,
          "time": 13.184190749999999,
          "velocity": 0.6771653543307087
        },
        {
          "duration": 0.07894725000000058,
          "durationTicks": 96,
          "midi": 72,
          "name": "C5",
          "ticks": 16032,
          "time": 13.184190749999999,
          "velocity": 0.6771653543307087
        },
        {
          "duration": 0.07894725000000058,
          "durationTicks": 96,
          "midi": 80,
          "name": "G#5",
          "ticks": 16032,
          "time": 13.184190749999999,
          "velocity": 0.6771653543307087
        },
        {
          "duration": 0.07894725000000058,
          "durationTicks": 96,
          "midi": 68,
          "name": "G#4",
          "ticks": 16032,
          "time": 13.184190749999999,
          "velocity": 0.6771653543307087
        },
        {
          "duration": 0.07894725000000058,
          "durationTicks": 96,
          "midi": 80,
          "name": "G#5",
          "ticks": 16128,
          "time": 13.263138,
          "velocity": 0.6771653543307087
        },
        {
          "duration": 0.07894725000000058,
          "durationTicks": 96,
          "midi": 72,
          "name": "C5",
          "ticks": 16128,
          "time": 13.263138,
          "velocity": 0.6771653543307087
        },
        {
          "duration": 0.07894725000000058,
          "durationTicks": 96,
          "midi": 60,
          "name": "C4",
          "ticks": 16128,
          "time": 13.263138,
          "velocity": 0.6771653543307087
        },
        {
          "duration": 0.07894725000000058,
          "durationTicks": 96,
          "midi": 68,
          "name": "G#4",
          "ticks": 16128,
          "time": 13.263138,
          "velocity": 0.6771653543307087
        },
        {
          "duration": 0.0789472499999988,
          "durationTicks": 96,
          "midi": 80,
          "name": "G#5",
          "ticks": 16224,
          "time": 13.34208525,
          "velocity": 0.6771653543307087
        },
        {
          "duration": 0.0789472499999988,
          "durationTicks": 96,
          "midi": 68,
          "name": "G#4",
          "ticks": 16224,
          "time": 13.34208525,
          "velocity": 0.6771653543307087
        },
        {
          "duration": 0.0789472499999988,
          "durationTicks": 96,
          "midi": 72,
          "name": "C5",
          "ticks": 16224,
          "time": 13.34208525,
          "velocity": 0.6771653543307087
        },
        {
          "duration": 0.0789472499999988,
          "durationTicks": 96,
          "midi": 60,
          "name": "C4",
          "ticks": 16224,
          "time": 13.34208525,
          "velocity": 0.6771653543307087
        },
        {
          "duration": 0.07894725000000058,
          "durationTicks": 96,
          "midi": 80,
          "name": "G#5",
          "ticks": 16320,
          "time": 13.421032499999999,
          "velocity": 0.6771653543307087
        },
        {
          "duration": 0.07894725000000058,
          "durationTicks": 96,
          "midi": 60,
          "name": "C4",
          "ticks": 16320,
          "time": 13.421032499999999,
          "velocity": 0.6771653543307087
        },
        {
          "duration": 0.07894725000000058,
          "durationTicks": 96,
          "midi": 72,
          "name": "C5",
          "ticks": 16320,
          "time": 13.421032499999999,
          "velocity": 0.6771653543307087
        },
        {
          "duration": 0.07894725000000058,
          "durationTicks": 96,
          "midi": 68,
          "name": "G#4",
          "ticks": 16320,
          "time": 13.421032499999999,
          "velocity": 0.6771653543307087
        },
        {
          "duration": 0.07894725000000058,
          "durationTicks": 96,
          "midi": 72,
          "name": "C5",
          "ticks": 16416,
          "time": 13.49997975,
          "velocity": 0.6771653543307087
        },
        {
          "duration": 0.07894725000000058,
          "durationTicks": 96,
          "midi": 68,
          "name": "G#4",
          "ticks": 16416,
          "time": 13.49997975,
          "velocity": 0.6771653543307087
        },
        {
          "duration": 0.07894725000000058,
          "durationTicks": 96,
          "midi": 60,
          "name": "C4",
          "ticks": 16416,
          "time": 13.49997975,
          "velocity": 0.6771653543307087
        },
        {
          "duration": 0.07894725000000058,
          "durationTicks": 96,
          "midi": 80,
          "name": "G#5",
          "ticks": 16416,
          "time": 13.49997975,
          "velocity": 0.6771653543307087
        },
        {
          "duration": 0.0789472499999988,
          "durationTicks": 96,
          "midi": 72,
          "name": "C5",
          "ticks": 16512,
          "time": 13.578927,
          "velocity": 0.6771653543307087
        },
        {
          "duration": 0.0789472499999988,
          "durationTicks": 96,
          "midi": 60,
          "name": "C4",
          "ticks": 16512,
          "time": 13.578927,
          "velocity": 0.6771653543307087
        },
        {
          "duration": 0.0789472499999988,
          "durationTicks": 96,
          "midi": 68,
          "name": "G#4",
          "ticks": 16512,
          "time": 13.578927,
          "velocity": 0.6771653543307087
        },
        {
          "duration": 0.0789472499999988,
          "durationTicks": 96,
          "midi": 80,
          "name": "G#5",
          "ticks": 16512,
          "time": 13.578927,
          "velocity": 0.6771653543307087
        },
        {
          "duration": 0.07894725000000058,
          "durationTicks": 96,
          "midi": 80,
          "name": "G#5",
          "ticks": 16608,
          "time": 13.657874249999999,
          "velocity": 0.6771653543307087
        },
        {
          "duration": 0.07894725000000058,
          "durationTicks": 96,
          "midi": 72,
          "name": "C5",
          "ticks": 16608,
          "time": 13.657874249999999,
          "velocity": 0.6771653543307087
        },
        {
          "duration": 0.07894725000000058,
          "durationTicks": 96,
          "midi": 60,
          "name": "C4",
          "ticks": 16608,
          "time": 13.657874249999999,
          "velocity": 0.6771653543307087
        },
        {
          "duration": 0.07894725000000058,
          "durationTicks": 96,
          "midi": 68,
          "name": "G#4",
          "ticks": 16608,
          "time": 13.657874249999999,
          "velocity": 0.6771653543307087
        },
        {
          "duration": 0.07894725000000058,
          "durationTicks": 96,
          "midi": 68,
          "name": "G#4",
          "ticks": 16704,
          "time": 13.7368215,
          "velocity": 0.6771653543307087
        },
        {
          "duration": 0.07894725000000058,
          "durationTicks": 96,
          "midi": 80,
          "name": "G#5",
          "ticks": 16704,
          "time": 13.7368215,
          "velocity": 0.6771653543307087
        },
        {
          "duration": 0.07894725000000058,
          "durationTicks": 96,
          "midi": 72,
          "name": "C5",
          "ticks": 16704,
          "time": 13.7368215,
          "velocity": 0.6771653543307087
        },
        {
          "duration": 0.07894725000000058,
          "durationTicks": 96,
          "midi": 60,
          "name": "C4",
          "ticks": 16704,
          "time": 13.7368215,
          "velocity": 0.6771653543307087
        },
        {
          "duration": 0.0789472499999988,
          "durationTicks": 96,
          "midi": 60,
          "name": "C4",
          "ticks": 16800,
          "time": 13.81576875,
          "velocity": 0.6771653543307087
        },
        {
          "duration": 0.0789472499999988,
          "durationTicks": 96,
          "midi": 68,
          "name": "G#4",
          "ticks": 16800,
          "time": 13.81576875,
          "velocity": 0.6771653543307087
        },
        {
          "duration": 0.0789472499999988,
          "durationTicks": 96,
          "midi": 80,
          "name": "G#5",
          "ticks": 16800,
          "time": 13.81576875,
          "velocity": 0.6771653543307087
        },
        {
          "duration": 0.0789472499999988,
          "durationTicks": 96,
          "midi": 72,
          "name": "C5",
          "ticks": 16800,
          "time": 13.81576875,
          "velocity": 0.6771653543307087
        },
        {
          "duration": 0.07894725000000058,
          "durationTicks": 96,
          "midi": 67,
          "name": "G4",
          "ticks": 16896,
          "time": 13.894715999999999,
          "velocity": 0.6771653543307087
        },
        {
          "duration": 0.07894725000000058,
          "durationTicks": 96,
          "midi": 72,
          "name": "C5",
          "ticks": 16896,
          "time": 13.894715999999999,
          "velocity": 0.6771653543307087
        },
        {
          "duration": 0.07894725000000058,
          "durationTicks": 96,
          "midi": 79,
          "name": "G5",
          "ticks": 16896,
          "time": 13.894715999999999,
          "velocity": 0.6771653543307087
        },
        {
          "duration": 0.07894725000000058,
          "durationTicks": 96,
          "midi": 60,
          "name": "C4",
          "ticks": 16896,
          "time": 13.894715999999999,
          "velocity": 0.6771653543307087
        },
        {
          "duration": 0.07894725000000058,
          "durationTicks": 96,
          "midi": 79,
          "name": "G5",
          "ticks": 16992,
          "time": 13.97366325,
          "velocity": 0.6771653543307087
        },
        {
          "duration": 0.07894725000000058,
          "durationTicks": 96,
          "midi": 67,
          "name": "G4",
          "ticks": 16992,
          "time": 13.97366325,
          "velocity": 0.6771653543307087
        },
        {
          "duration": 0.07894725000000058,
          "durationTicks": 96,
          "midi": 72,
          "name": "C5",
          "ticks": 16992,
          "time": 13.97366325,
          "velocity": 0.6771653543307087
        },
        {
          "duration": 0.07894725000000058,
          "durationTicks": 96,
          "midi": 60,
          "name": "C4",
          "ticks": 16992,
          "time": 13.97366325,
          "velocity": 0.6771653543307087
        },
        {
          "duration": 0.0789472499999988,
          "durationTicks": 96,
          "midi": 79,
          "name": "G5",
          "ticks": 17088,
          "time": 14.0526105,
          "velocity": 0.6771653543307087
        },
        {
          "duration": 0.0789472499999988,
          "durationTicks": 96,
          "midi": 60,
          "name": "C4",
          "ticks": 17088,
          "time": 14.0526105,
          "velocity": 0.6771653543307087
        },
        {
          "duration": 0.0789472499999988,
          "durationTicks": 96,
          "midi": 67,
          "name": "G4",
          "ticks": 17088,
          "time": 14.0526105,
          "velocity": 0.6771653543307087
        },
        {
          "duration": 0.0789472499999988,
          "durationTicks": 96,
          "midi": 72,
          "name": "C5",
          "ticks": 17088,
          "time": 14.0526105,
          "velocity": 0.6771653543307087
        },
        {
          "duration": 0.07894725000000058,
          "durationTicks": 96,
          "midi": 79,
          "name": "G5",
          "ticks": 17184,
          "time": 14.131557749999999,
          "velocity": 0.6771653543307087
        },
        {
          "duration": 0.07894725000000058,
          "durationTicks": 96,
          "midi": 60,
          "name": "C4",
          "ticks": 17184,
          "time": 14.131557749999999,
          "velocity": 0.6771653543307087
        },
        {
          "duration": 0.07894725000000058,
          "durationTicks": 96,
          "midi": 72,
          "name": "C5",
          "ticks": 17184,
          "time": 14.131557749999999,
          "velocity": 0.6771653543307087
        },
        {
          "duration": 0.07894725000000058,
          "durationTicks": 96,
          "midi": 67,
          "name": "G4",
          "ticks": 17184,
          "time": 14.131557749999999,
          "velocity": 0.6771653543307087
        },
        {
          "duration": 0.07894725000000058,
          "durationTicks": 96,
          "midi": 60,
          "name": "C4",
          "ticks": 17280,
          "time": 14.210505,
          "velocity": 0.6771653543307087
        },
        {
          "duration": 0.07894725000000058,
          "durationTicks": 96,
          "midi": 67,
          "name": "G4",
          "ticks": 17280,
          "time": 14.210505,
          "velocity": 0.6771653543307087
        },
        {
          "duration": 0.07894725000000058,
          "durationTicks": 96,
          "midi": 72,
          "name": "C5",
          "ticks": 17280,
          "time": 14.210505,
          "velocity": 0.6771653543307087
        },
        {
          "duration": 0.07894725000000058,
          "durationTicks": 96,
          "midi": 79,
          "name": "G5",
          "ticks": 17280,
          "time": 14.210505,
          "velocity": 0.6771653543307087
        },
        {
          "duration": 0.0789472499999988,
          "durationTicks": 96,
          "midi": 72,
          "name": "C5",
          "ticks": 17376,
          "time": 14.28945225,
          "velocity": 0.6771653543307087
        },
        {
          "duration": 0.0789472499999988,
          "durationTicks": 96,
          "midi": 60,
          "name": "C4",
          "ticks": 17376,
          "time": 14.28945225,
          "velocity": 0.6771653543307087
        },
        {
          "duration": 0.0789472499999988,
          "durationTicks": 96,
          "midi": 67,
          "name": "G4",
          "ticks": 17376,
          "time": 14.28945225,
          "velocity": 0.6771653543307087
        },
        {
          "duration": 0.0789472499999988,
          "durationTicks": 96,
          "midi": 79,
          "name": "G5",
          "ticks": 17376,
          "time": 14.28945225,
          "velocity": 0.6771653543307087
        },
        {
          "duration": 0.07894725000000058,
          "durationTicks": 96,
          "midi": 79,
          "name": "G5",
          "ticks": 17472,
          "time": 14.368399499999999,
          "velocity": 0.6771653543307087
        },
        {
          "duration": 0.07894725000000058,
          "durationTicks": 96,
          "midi": 72,
          "name": "C5",
          "ticks": 17472,
          "time": 14.368399499999999,
          "velocity": 0.6771653543307087
        },
        {
          "duration": 0.07894725000000058,
          "durationTicks": 96,
          "midi": 60,
          "name": "C4",
          "ticks": 17472,
          "time": 14.368399499999999,
          "velocity": 0.6771653543307087
        },
        {
          "duration": 0.07894725000000058,
          "durationTicks": 96,
          "midi": 67,
          "name": "G4",
          "ticks": 17472,
          "time": 14.368399499999999,
          "velocity": 0.6771653543307087
        },
        {
          "duration": 0.07894725000000058,
          "durationTicks": 96,
          "midi": 60,
          "name": "C4",
          "ticks": 17568,
          "time": 14.44734675,
          "velocity": 0.6771653543307087
        },
        {
          "duration": 0.07894725000000058,
          "durationTicks": 96,
          "midi": 72,
          "name": "C5",
          "ticks": 17568,
          "time": 14.44734675,
          "velocity": 0.6771653543307087
        },
        {
          "duration": 0.07894725000000058,
          "durationTicks": 96,
          "midi": 67,
          "name": "G4",
          "ticks": 17568,
          "time": 14.44734675,
          "velocity": 0.6771653543307087
        },
        {
          "duration": 0.07894725000000058,
          "durationTicks": 96,
          "midi": 79,
          "name": "G5",
          "ticks": 17568,
          "time": 14.44734675,
          "velocity": 0.6771653543307087
        },
        {
          "duration": 0.0789472499999988,
          "durationTicks": 96,
          "midi": 67,
          "name": "G4",
          "ticks": 17664,
          "time": 14.526294,
          "velocity": 0.6771653543307087
        },
        {
          "duration": 0.0789472499999988,
          "durationTicks": 96,
          "midi": 60,
          "name": "C4",
          "ticks": 17664,
          "time": 14.526294,
          "velocity": 0.6771653543307087
        },
        {
          "duration": 0.0789472499999988,
          "durationTicks": 96,
          "midi": 79,
          "name": "G5",
          "ticks": 17664,
          "time": 14.526294,
          "velocity": 0.6771653543307087
        },
        {
          "duration": 0.0789472499999988,
          "durationTicks": 96,
          "midi": 72,
          "name": "C5",
          "ticks": 17664,
          "time": 14.526294,
          "velocity": 0.6771653543307087
        },
        {
          "duration": 0.07894725000000058,
          "durationTicks": 96,
          "midi": 60,
          "name": "C4",
          "ticks": 17760,
          "time": 14.605241249999999,
          "velocity": 0.6771653543307087
        },
        {
          "duration": 0.07894725000000058,
          "durationTicks": 96,
          "midi": 67,
          "name": "G4",
          "ticks": 17760,
          "time": 14.605241249999999,
          "velocity": 0.6771653543307087
        },
        {
          "duration": 0.07894725000000058,
          "durationTicks": 96,
          "midi": 79,
          "name": "G5",
          "ticks": 17760,
          "time": 14.605241249999999,
          "velocity": 0.6771653543307087
        },
        {
          "duration": 0.07894725000000058,
          "durationTicks": 96,
          "midi": 72,
          "name": "C5",
          "ticks": 17760,
          "time": 14.605241249999999,
          "velocity": 0.6771653543307087
        },
        {
          "duration": 0.07894725000000058,
          "durationTicks": 96,
          "midi": 60,
          "name": "C4",
          "ticks": 17856,
          "time": 14.6841885,
          "velocity": 0.6771653543307087
        },
        {
          "duration": 0.07894725000000058,
          "durationTicks": 96,
          "midi": 79,
          "name": "G5",
          "ticks": 17856,
          "time": 14.6841885,
          "velocity": 0.6771653543307087
        },
        {
          "duration": 0.07894725000000058,
          "durationTicks": 96,
          "midi": 72,
          "name": "C5",
          "ticks": 17856,
          "time": 14.6841885,
          "velocity": 0.6771653543307087
        },
        {
          "duration": 0.07894725000000058,
          "durationTicks": 96,
          "midi": 67,
          "name": "G4",
          "ticks": 17856,
          "time": 14.6841885,
          "velocity": 0.6771653543307087
        },
        {
          "duration": 0.0789472499999988,
          "durationTicks": 96,
          "midi": 79,
          "name": "G5",
          "ticks": 17952,
          "time": 14.76313575,
          "velocity": 0.6771653543307087
        },
        {
          "duration": 0.0789472499999988,
          "durationTicks": 96,
          "midi": 72,
          "name": "C5",
          "ticks": 17952,
          "time": 14.76313575,
          "velocity": 0.6771653543307087
        },
        {
          "duration": 0.0789472499999988,
          "durationTicks": 96,
          "midi": 67,
          "name": "G4",
          "ticks": 17952,
          "time": 14.76313575,
          "velocity": 0.6771653543307087
        },
        {
          "duration": 0.0789472499999988,
          "durationTicks": 96,
          "midi": 60,
          "name": "C4",
          "ticks": 17952,
          "time": 14.76313575,
          "velocity": 0.6771653543307087
        },
        {
          "duration": 0.07894725000000058,
          "durationTicks": 96,
          "midi": 79,
          "name": "G5",
          "ticks": 18048,
          "time": 14.842082999999999,
          "velocity": 0.6771653543307087
        },
        {
          "duration": 0.07894725000000058,
          "durationTicks": 96,
          "midi": 67,
          "name": "G4",
          "ticks": 18048,
          "time": 14.842082999999999,
          "velocity": 0.6771653543307087
        },
        {
          "duration": 0.07894725000000058,
          "durationTicks": 96,
          "midi": 72,
          "name": "C5",
          "ticks": 18048,
          "time": 14.842082999999999,
          "velocity": 0.6771653543307087
        },
        {
          "duration": 0.07894725000000058,
          "durationTicks": 96,
          "midi": 60,
          "name": "C4",
          "ticks": 18048,
          "time": 14.842082999999999,
          "velocity": 0.6771653543307087
        },
        {
          "duration": 0.07894725000000058,
          "durationTicks": 96,
          "midi": 67,
          "name": "G4",
          "ticks": 18144,
          "time": 14.92103025,
          "velocity": 0.6771653543307087
        },
        {
          "duration": 0.07894725000000058,
          "durationTicks": 96,
          "midi": 60,
          "name": "C4",
          "ticks": 18144,
          "time": 14.92103025,
          "velocity": 0.6771653543307087
        },
        {
          "duration": 0.07894725000000058,
          "durationTicks": 96,
          "midi": 79,
          "name": "G5",
          "ticks": 18144,
          "time": 14.92103025,
          "velocity": 0.6771653543307087
        },
        {
          "duration": 0.07894725000000058,
          "durationTicks": 96,
          "midi": 72,
          "name": "C5",
          "ticks": 18144,
          "time": 14.92103025,
          "velocity": 0.6771653543307087
        },
        {
          "duration": 0.0789472499999988,
          "durationTicks": 96,
          "midi": 79,
          "name": "G5",
          "ticks": 18240,
          "time": 14.9999775,
          "velocity": 0.6771653543307087
        },
        {
          "duration": 0.0789472499999988,
          "durationTicks": 96,
          "midi": 67,
          "name": "G4",
          "ticks": 18240,
          "time": 14.9999775,
          "velocity": 0.6771653543307087
        },
        {
          "duration": 0.0789472499999988,
          "durationTicks": 96,
          "midi": 72,
          "name": "C5",
          "ticks": 18240,
          "time": 14.9999775,
          "velocity": 0.6771653543307087
        },
        {
          "duration": 0.0789472499999988,
          "durationTicks": 96,
          "midi": 60,
          "name": "C4",
          "ticks": 18240,
          "time": 14.9999775,
          "velocity": 0.6771653543307087
        },
        {
          "duration": 0.07894725000000058,
          "durationTicks": 96,
          "midi": 60,
          "name": "C4",
          "ticks": 18336,
          "time": 15.078924749999999,
          "velocity": 0.6771653543307087
        },
        {
          "duration": 0.07894725000000058,
          "durationTicks": 96,
          "midi": 72,
          "name": "C5",
          "ticks": 18336,
          "time": 15.078924749999999,
          "velocity": 0.6771653543307087
        },
        {
          "duration": 0.07894725000000058,
          "durationTicks": 96,
          "midi": 67,
          "name": "G4",
          "ticks": 18336,
          "time": 15.078924749999999,
          "velocity": 0.6771653543307087
        },
        {
          "duration": 0.07894725000000058,
          "durationTicks": 96,
          "midi": 79,
          "name": "G5",
          "ticks": 18336,
          "time": 15.078924749999999,
          "velocity": 0.6771653543307087
        },
        {
          "duration": 0.07894725000000058,
          "durationTicks": 96,
          "midi": 72,
          "name": "C5",
          "ticks": 18432,
          "time": 15.157872,
          "velocity": 0.6771653543307087
        },
        {
          "duration": 0.07894725000000058,
          "durationTicks": 96,
          "midi": 77,
          "name": "F5",
          "ticks": 18432,
          "time": 15.157872,
          "velocity": 0.6771653543307087
        },
        {
          "duration": 0.07894725000000058,
          "durationTicks": 96,
          "midi": 60,
          "name": "C4",
          "ticks": 18432,
          "time": 15.157872,
          "velocity": 0.6771653543307087
        },
        {
          "duration": 0.07894725000000058,
          "durationTicks": 96,
          "midi": 65,
          "name": "F4",
          "ticks": 18432,
          "time": 15.157872,
          "velocity": 0.6771653543307087
        },
        {
          "duration": 0.0789472499999988,
          "durationTicks": 96,
          "midi": 65,
          "name": "F4",
          "ticks": 18528,
          "time": 15.23681925,
          "velocity": 0.6771653543307087
        },
        {
          "duration": 0.0789472499999988,
          "durationTicks": 96,
          "midi": 77,
          "name": "F5",
          "ticks": 18528,
          "time": 15.23681925,
          "velocity": 0.6771653543307087
        },
        {
          "duration": 0.0789472499999988,
          "durationTicks": 96,
          "midi": 72,
          "name": "C5",
          "ticks": 18528,
          "time": 15.23681925,
          "velocity": 0.6771653543307087
        },
        {
          "duration": 0.0789472499999988,
          "durationTicks": 96,
          "midi": 60,
          "name": "C4",
          "ticks": 18528,
          "time": 15.23681925,
          "velocity": 0.6771653543307087
        },
        {
          "duration": 0.07894725000000058,
          "durationTicks": 96,
          "midi": 77,
          "name": "F5",
          "ticks": 18624,
          "time": 15.315766499999999,
          "velocity": 0.6771653543307087
        },
        {
          "duration": 0.07894725000000058,
          "durationTicks": 96,
          "midi": 65,
          "name": "F4",
          "ticks": 18624,
          "time": 15.315766499999999,
          "velocity": 0.6771653543307087
        },
        {
          "duration": 0.07894725000000058,
          "durationTicks": 96,
          "midi": 60,
          "name": "C4",
          "ticks": 18624,
          "time": 15.315766499999999,
          "velocity": 0.6771653543307087
        },
        {
          "duration": 0.07894725000000058,
          "durationTicks": 96,
          "midi": 72,
          "name": "C5",
          "ticks": 18624,
          "time": 15.315766499999999,
          "velocity": 0.6771653543307087
        },
        {
          "duration": 0.07894725000000058,
          "durationTicks": 96,
          "midi": 65,
          "name": "F4",
          "ticks": 18720,
          "time": 15.39471375,
          "velocity": 0.6771653543307087
        },
        {
          "duration": 0.07894725000000058,
          "durationTicks": 96,
          "midi": 77,
          "name": "F5",
          "ticks": 18720,
          "time": 15.39471375,
          "velocity": 0.6771653543307087
        },
        {
          "duration": 0.07894725000000058,
          "durationTicks": 96,
          "midi": 72,
          "name": "C5",
          "ticks": 18720,
          "time": 15.39471375,
          "velocity": 0.6771653543307087
        },
        {
          "duration": 0.07894725000000058,
          "durationTicks": 96,
          "midi": 60,
          "name": "C4",
          "ticks": 18720,
          "time": 15.39471375,
          "velocity": 0.6771653543307087
        },
        {
          "duration": 0.0789472499999988,
          "durationTicks": 96,
          "midi": 77,
          "name": "F5",
          "ticks": 18816,
          "time": 15.473661,
          "velocity": 0.6771653543307087
        },
        {
          "duration": 0.0789472499999988,
          "durationTicks": 96,
          "midi": 65,
          "name": "F4",
          "ticks": 18816,
          "time": 15.473661,
          "velocity": 0.6771653543307087
        },
        {
          "duration": 0.0789472499999988,
          "durationTicks": 96,
          "midi": 72,
          "name": "C5",
          "ticks": 18816,
          "time": 15.473661,
          "velocity": 0.6771653543307087
        },
        {
          "duration": 0.0789472499999988,
          "durationTicks": 96,
          "midi": 60,
          "name": "C4",
          "ticks": 18816,
          "time": 15.473661,
          "velocity": 0.6771653543307087
        },
        {
          "duration": 0.07894725000000058,
          "durationTicks": 96,
          "midi": 60,
          "name": "C4",
          "ticks": 18912,
          "time": 15.552608249999999,
          "velocity": 0.6771653543307087
        },
        {
          "duration": 0.07894725000000058,
          "durationTicks": 96,
          "midi": 77,
          "name": "F5",
          "ticks": 18912,
          "time": 15.552608249999999,
          "velocity": 0.6771653543307087
        },
        {
          "duration": 0.07894725000000058,
          "durationTicks": 96,
          "midi": 65,
          "name": "F4",
          "ticks": 18912,
          "time": 15.552608249999999,
          "velocity": 0.6771653543307087
        },
        {
          "duration": 0.07894725000000058,
          "durationTicks": 96,
          "midi": 72,
          "name": "C5",
          "ticks": 18912,
          "time": 15.552608249999999,
          "velocity": 0.6771653543307087
        },
        {
          "duration": 0.07894725000000058,
          "durationTicks": 96,
          "midi": 72,
          "name": "C5",
          "ticks": 19008,
          "time": 15.6315555,
          "velocity": 0.6771653543307087
        },
        {
          "duration": 0.07894725000000058,
          "durationTicks": 96,
          "midi": 60,
          "name": "C4",
          "ticks": 19008,
          "time": 15.6315555,
          "velocity": 0.6771653543307087
        },
        {
          "duration": 0.07894725000000058,
          "durationTicks": 96,
          "midi": 77,
          "name": "F5",
          "ticks": 19008,
          "time": 15.6315555,
          "velocity": 0.6771653543307087
        },
        {
          "duration": 0.07894725000000058,
          "durationTicks": 96,
          "midi": 65,
          "name": "F4",
          "ticks": 19008,
          "time": 15.6315555,
          "velocity": 0.6771653543307087
        },
        {
          "duration": 0.0789472499999988,
          "durationTicks": 96,
          "midi": 72,
          "name": "C5",
          "ticks": 19104,
          "time": 15.71050275,
          "velocity": 0.6771653543307087
        },
        {
          "duration": 0.0789472499999988,
          "durationTicks": 96,
          "midi": 65,
          "name": "F4",
          "ticks": 19104,
          "time": 15.71050275,
          "velocity": 0.6771653543307087
        },
        {
          "duration": 0.0789472499999988,
          "durationTicks": 96,
          "midi": 60,
          "name": "C4",
          "ticks": 19104,
          "time": 15.71050275,
          "velocity": 0.6771653543307087
        },
        {
          "duration": 0.0789472499999988,
          "durationTicks": 96,
          "midi": 77,
          "name": "F5",
          "ticks": 19104,
          "time": 15.71050275,
          "velocity": 0.6771653543307087
        },
        {
          "duration": 0.07894725000000058,
          "durationTicks": 96,
          "midi": 65,
          "name": "F4",
          "ticks": 19200,
          "time": 15.789449999999999,
          "velocity": 0.6771653543307087
        },
        {
          "duration": 0.07894725000000058,
          "durationTicks": 96,
          "midi": 72,
          "name": "C5",
          "ticks": 19200,
          "time": 15.789449999999999,
          "velocity": 0.6771653543307087
        },
        {
          "duration": 0.07894725000000058,
          "durationTicks": 96,
          "midi": 60,
          "name": "C4",
          "ticks": 19200,
          "time": 15.789449999999999,
          "velocity": 0.6771653543307087
        },
        {
          "duration": 0.07894725000000058,
          "durationTicks": 96,
          "midi": 77,
          "name": "F5",
          "ticks": 19200,
          "time": 15.789449999999999,
          "velocity": 0.6771653543307087
        },
        {
          "duration": 0.07894725000000058,
          "durationTicks": 96,
          "midi": 77,
          "name": "F5",
          "ticks": 19296,
          "time": 15.86839725,
          "velocity": 0.6771653543307087
        },
        {
          "duration": 0.07894725000000058,
          "durationTicks": 96,
          "midi": 60,
          "name": "C4",
          "ticks": 19296,
          "time": 15.86839725,
          "velocity": 0.6771653543307087
        },
        {
          "duration": 0.07894725000000058,
          "durationTicks": 96,
          "midi": 65,
          "name": "F4",
          "ticks": 19296,
          "time": 15.86839725,
          "velocity": 0.6771653543307087
        },
        {
          "duration": 0.07894725000000058,
          "durationTicks": 96,
          "midi": 72,
          "name": "C5",
          "ticks": 19296,
          "time": 15.86839725,
          "velocity": 0.6771653543307087
        },
        {
          "duration": 0.0789472499999988,
          "durationTicks": 96,
          "midi": 65,
          "name": "F4",
          "ticks": 19392,
          "time": 15.9473445,
          "velocity": 0.6771653543307087
        },
        {
          "duration": 0.0789472499999988,
          "durationTicks": 96,
          "midi": 72,
          "name": "C5",
          "ticks": 19392,
          "time": 15.9473445,
          "velocity": 0.6771653543307087
        },
        {
          "duration": 0.0789472499999988,
          "durationTicks": 96,
          "midi": 60,
          "name": "C4",
          "ticks": 19392,
          "time": 15.9473445,
          "velocity": 0.6771653543307087
        },
        {
          "duration": 0.0789472499999988,
          "durationTicks": 96,
          "midi": 77,
          "name": "F5",
          "ticks": 19392,
          "time": 15.9473445,
          "velocity": 0.6771653543307087
        },
        {
          "duration": 0.07894725000000236,
          "durationTicks": 96,
          "midi": 72,
          "name": "C5",
          "ticks": 19488,
          "time": 16.02629175,
          "velocity": 0.6771653543307087
        },
        {
          "duration": 0.07894725000000236,
          "durationTicks": 96,
          "midi": 65,
          "name": "F4",
          "ticks": 19488,
          "time": 16.02629175,
          "velocity": 0.6771653543307087
        },
        {
          "duration": 0.07894725000000236,
          "durationTicks": 96,
          "midi": 60,
          "name": "C4",
          "ticks": 19488,
          "time": 16.02629175,
          "velocity": 0.6771653543307087
        },
        {
          "duration": 0.07894725000000236,
          "durationTicks": 96,
          "midi": 77,
          "name": "F5",
          "ticks": 19488,
          "time": 16.02629175,
          "velocity": 0.6771653543307087
        },
        {
          "duration": 0.0789472499999988,
          "durationTicks": 96,
          "midi": 77,
          "name": "F5",
          "ticks": 19584,
          "time": 16.105239,
          "velocity": 0.6771653543307087
        },
        {
          "duration": 0.0789472499999988,
          "durationTicks": 96,
          "midi": 72,
          "name": "C5",
          "ticks": 19584,
          "time": 16.105239,
          "velocity": 0.6771653543307087
        },
        {
          "duration": 0.0789472499999988,
          "durationTicks": 96,
          "midi": 60,
          "name": "C4",
          "ticks": 19584,
          "time": 16.105239,
          "velocity": 0.6771653543307087
        },
        {
          "duration": 0.0789472499999988,
          "durationTicks": 96,
          "midi": 65,
          "name": "F4",
          "ticks": 19584,
          "time": 16.105239,
          "velocity": 0.6771653543307087
        },
        {
          "duration": 0.0789472499999988,
          "durationTicks": 96,
          "midi": 77,
          "name": "F5",
          "ticks": 19680,
          "time": 16.18418625,
          "velocity": 0.6771653543307087
        },
        {
          "duration": 0.0789472499999988,
          "durationTicks": 96,
          "midi": 60,
          "name": "C4",
          "ticks": 19680,
          "time": 16.18418625,
          "velocity": 0.6771653543307087
        },
        {
          "duration": 0.0789472499999988,
          "durationTicks": 96,
          "midi": 65,
          "name": "F4",
          "ticks": 19680,
          "time": 16.18418625,
          "velocity": 0.6771653543307087
        },
        {
          "duration": 0.0789472499999988,
          "durationTicks": 96,
          "midi": 72,
          "name": "C5",
          "ticks": 19680,
          "time": 16.18418625,
          "velocity": 0.6771653543307087
        },
        {
          "duration": 0.07894725000000236,
          "durationTicks": 96,
          "midi": 72,
          "name": "C5",
          "ticks": 19776,
          "time": 16.2631335,
          "velocity": 0.6771653543307087
        },
        {
          "duration": 0.07894725000000236,
          "durationTicks": 96,
          "midi": 77,
          "name": "F5",
          "ticks": 19776,
          "time": 16.2631335,
          "velocity": 0.6771653543307087
        },
        {
          "duration": 0.07894725000000236,
          "durationTicks": 96,
          "midi": 60,
          "name": "C4",
          "ticks": 19776,
          "time": 16.2631335,
          "velocity": 0.6771653543307087
        },
        {
          "duration": 0.07894725000000236,
          "durationTicks": 96,
          "midi": 65,
          "name": "F4",
          "ticks": 19776,
          "time": 16.2631335,
          "velocity": 0.6771653543307087
        },
        {
          "duration": 0.0789472499999988,
          "durationTicks": 96,
          "midi": 72,
          "name": "C5",
          "ticks": 19872,
          "time": 16.34208075,
          "velocity": 0.6771653543307087
        },
        {
          "duration": 0.0789472499999988,
          "durationTicks": 96,
          "midi": 65,
          "name": "F4",
          "ticks": 19872,
          "time": 16.34208075,
          "velocity": 0.6771653543307087
        },
        {
          "duration": 0.0789472499999988,
          "durationTicks": 96,
          "midi": 60,
          "name": "C4",
          "ticks": 19872,
          "time": 16.34208075,
          "velocity": 0.6771653543307087
        },
        {
          "duration": 0.0789472499999988,
          "durationTicks": 96,
          "midi": 77,
          "name": "F5",
          "ticks": 19872,
          "time": 16.34208075,
          "velocity": 0.6771653543307087
        },
        {
          "duration": 0.0789472499999988,
          "durationTicks": 96,
          "midi": 60,
          "name": "C4",
          "ticks": 19968,
          "time": 16.421028,
          "velocity": 0.6771653543307087
        },
        {
          "duration": 0.0789472499999988,
          "durationTicks": 96,
          "midi": 72,
          "name": "C5",
          "ticks": 19968,
          "time": 16.421028,
          "velocity": 0.6771653543307087
        },
        {
          "duration": 0.0789472499999988,
          "durationTicks": 96,
          "midi": 65,
          "name": "F4",
          "ticks": 19968,
          "time": 16.421028,
          "velocity": 0.6771653543307087
        },
        {
          "duration": 0.0789472499999988,
          "durationTicks": 96,
          "midi": 77,
          "name": "F5",
          "ticks": 19968,
          "time": 16.421028,
          "velocity": 0.6771653543307087
        },
        {
          "duration": 0.07894725000000236,
          "durationTicks": 96,
          "midi": 72,
          "name": "C5",
          "ticks": 20064,
          "time": 16.49997525,
          "velocity": 0.6771653543307087
        },
        {
          "duration": 0.07894725000000236,
          "durationTicks": 96,
          "midi": 77,
          "name": "F5",
          "ticks": 20064,
          "time": 16.49997525,
          "velocity": 0.6771653543307087
        },
        {
          "duration": 0.07894725000000236,
          "durationTicks": 96,
          "midi": 65,
          "name": "F4",
          "ticks": 20064,
          "time": 16.49997525,
          "velocity": 0.6771653543307087
        },
        {
          "duration": 0.07894725000000236,
          "durationTicks": 96,
          "midi": 60,
          "name": "C4",
          "ticks": 20064,
          "time": 16.49997525,
          "velocity": 0.6771653543307087
        },
        {
          "duration": 0.0789472499999988,
          "durationTicks": 96,
          "midi": 60,
          "name": "C4",
          "ticks": 20160,
          "time": 16.5789225,
          "velocity": 0.6771653543307087
        },
        {
          "duration": 0.0789472499999988,
          "durationTicks": 96,
          "midi": 72,
          "name": "C5",
          "ticks": 20160,
          "time": 16.5789225,
          "velocity": 0.6771653543307087
        },
        {
          "duration": 0.0789472499999988,
          "durationTicks": 96,
          "midi": 77,
          "name": "F5",
          "ticks": 20160,
          "time": 16.5789225,
          "velocity": 0.6771653543307087
        },
        {
          "duration": 0.0789472499999988,
          "durationTicks": 96,
          "midi": 65,
          "name": "F4",
          "ticks": 20160,
          "time": 16.5789225,
          "velocity": 0.6771653543307087
        },
        {
          "duration": 0.0789472499999988,
          "durationTicks": 96,
          "midi": 77,
          "name": "F5",
          "ticks": 20256,
          "time": 16.65786975,
          "velocity": 0.6771653543307087
        },
        {
          "duration": 0.0789472499999988,
          "durationTicks": 96,
          "midi": 72,
          "name": "C5",
          "ticks": 20256,
          "time": 16.65786975,
          "velocity": 0.6771653543307087
        },
        {
          "duration": 0.0789472499999988,
          "durationTicks": 96,
          "midi": 60,
          "name": "C4",
          "ticks": 20256,
          "time": 16.65786975,
          "velocity": 0.6771653543307087
        },
        {
          "duration": 0.0789472499999988,
          "durationTicks": 96,
          "midi": 65,
          "name": "F4",
          "ticks": 20256,
          "time": 16.65786975,
          "velocity": 0.6771653543307087
        },
        {
          "duration": 0.07894725000000236,
          "durationTicks": 96,
          "midi": 72,
          "name": "C5",
          "ticks": 20352,
          "time": 16.736817,
          "velocity": 0.6771653543307087
        },
        {
          "duration": 0.07894725000000236,
          "durationTicks": 96,
          "midi": 77,
          "name": "F5",
          "ticks": 20352,
          "time": 16.736817,
          "velocity": 0.6771653543307087
        },
        {
          "duration": 0.07894725000000236,
          "durationTicks": 96,
          "midi": 60,
          "name": "C4",
          "ticks": 20352,
          "time": 16.736817,
          "velocity": 0.6771653543307087
        },
        {
          "duration": 0.07894725000000236,
          "durationTicks": 96,
          "midi": 65,
          "name": "F4",
          "ticks": 20352,
          "time": 16.736817,
          "velocity": 0.6771653543307087
        },
        {
          "duration": 0.0789472499999988,
          "durationTicks": 96,
          "midi": 60,
          "name": "C4",
          "ticks": 20448,
          "time": 16.81576425,
          "velocity": 0.6771653543307087
        },
        {
          "duration": 0.0789472499999988,
          "durationTicks": 96,
          "midi": 65,
          "name": "F4",
          "ticks": 20448,
          "time": 16.81576425,
          "velocity": 0.6771653543307087
        },
        {
          "duration": 0.0789472499999988,
          "durationTicks": 96,
          "midi": 77,
          "name": "F5",
          "ticks": 20448,
          "time": 16.81576425,
          "velocity": 0.6771653543307087
        },
        {
          "duration": 0.0789472499999988,
          "durationTicks": 96,
          "midi": 72,
          "name": "C5",
          "ticks": 20448,
          "time": 16.81576425,
          "velocity": 0.6771653543307087
        },
        {
          "duration": 0.0789472499999988,
          "durationTicks": 96,
          "midi": 60,
          "name": "C4",
          "ticks": 20544,
          "time": 16.8947115,
          "velocity": 0.6771653543307087
        },
        {
          "duration": 0.0789472499999988,
          "durationTicks": 96,
          "midi": 77,
          "name": "F5",
          "ticks": 20544,
          "time": 16.8947115,
          "velocity": 0.6771653543307087
        },
        {
          "duration": 0.0789472499999988,
          "durationTicks": 96,
          "midi": 65,
          "name": "F4",
          "ticks": 20544,
          "time": 16.8947115,
          "velocity": 0.6771653543307087
        },
        {
          "duration": 0.0789472499999988,
          "durationTicks": 96,
          "midi": 72,
          "name": "C5",
          "ticks": 20544,
          "time": 16.8947115,
          "velocity": 0.6771653543307087
        },
        {
          "duration": 0.07894725000000236,
          "durationTicks": 96,
          "midi": 60,
          "name": "C4",
          "ticks": 20640,
          "time": 16.97365875,
          "velocity": 0.6771653543307087
        },
        {
          "duration": 0.07894725000000236,
          "durationTicks": 96,
          "midi": 72,
          "name": "C5",
          "ticks": 20640,
          "time": 16.97365875,
          "velocity": 0.6771653543307087
        },
        {
          "duration": 0.07894725000000236,
          "durationTicks": 96,
          "midi": 65,
          "name": "F4",
          "ticks": 20640,
          "time": 16.97365875,
          "velocity": 0.6771653543307087
        },
        {
          "duration": 0.07894725000000236,
          "durationTicks": 96,
          "midi": 77,
          "name": "F5",
          "ticks": 20640,
          "time": 16.97365875,
          "velocity": 0.6771653543307087
        },
        {
          "duration": 0.0789472499999988,
          "durationTicks": 96,
          "midi": 72,
          "name": "C5",
          "ticks": 20736,
          "time": 17.052606,
          "velocity": 0.6771653543307087
        },
        {
          "duration": 0.0789472499999988,
          "durationTicks": 96,
          "midi": 77,
          "name": "F5",
          "ticks": 20736,
          "time": 17.052606,
          "velocity": 0.6771653543307087
        },
        {
          "duration": 0.0789472499999988,
          "durationTicks": 96,
          "midi": 60,
          "name": "C4",
          "ticks": 20736,
          "time": 17.052606,
          "velocity": 0.6771653543307087
        },
        {
          "duration": 0.0789472499999988,
          "durationTicks": 96,
          "midi": 65,
          "name": "F4",
          "ticks": 20736,
          "time": 17.052606,
          "velocity": 0.6771653543307087
        },
        {
          "duration": 0.0789472499999988,
          "durationTicks": 96,
          "midi": 77,
          "name": "F5",
          "ticks": 20832,
          "time": 17.13155325,
          "velocity": 0.6771653543307087
        },
        {
          "duration": 0.0789472499999988,
          "durationTicks": 96,
          "midi": 60,
          "name": "C4",
          "ticks": 20832,
          "time": 17.13155325,
          "velocity": 0.6771653543307087
        },
        {
          "duration": 0.0789472499999988,
          "durationTicks": 96,
          "midi": 72,
          "name": "C5",
          "ticks": 20832,
          "time": 17.13155325,
          "velocity": 0.6771653543307087
        },
        {
          "duration": 0.0789472499999988,
          "durationTicks": 96,
          "midi": 65,
          "name": "F4",
          "ticks": 20832,
          "time": 17.13155325,
          "velocity": 0.6771653543307087
        },
        {
          "duration": 0.07894725000000236,
          "durationTicks": 96,
          "midi": 60,
          "name": "C4",
          "ticks": 20928,
          "time": 17.2105005,
          "velocity": 0.6771653543307087
        },
        {
          "duration": 0.07894725000000236,
          "durationTicks": 96,
          "midi": 72,
          "name": "C5",
          "ticks": 20928,
          "time": 17.2105005,
          "velocity": 0.6771653543307087
        },
        {
          "duration": 0.07894725000000236,
          "durationTicks": 96,
          "midi": 77,
          "name": "F5",
          "ticks": 20928,
          "time": 17.2105005,
          "velocity": 0.6771653543307087
        },
        {
          "duration": 0.07894725000000236,
          "durationTicks": 96,
          "midi": 65,
          "name": "F4",
          "ticks": 20928,
          "time": 17.2105005,
          "velocity": 0.6771653543307087
        },
        {
          "duration": 0.0789472499999988,
          "durationTicks": 96,
          "midi": 72,
          "name": "C5",
          "ticks": 21024,
          "time": 17.28944775,
          "velocity": 0.6771653543307087
        },
        {
          "duration": 0.0789472499999988,
          "durationTicks": 96,
          "midi": 65,
          "name": "F4",
          "ticks": 21024,
          "time": 17.28944775,
          "velocity": 0.6771653543307087
        },
        {
          "duration": 0.0789472499999988,
          "durationTicks": 96,
          "midi": 77,
          "name": "F5",
          "ticks": 21024,
          "time": 17.28944775,
          "velocity": 0.6771653543307087
        },
        {
          "duration": 0.0789472499999988,
          "durationTicks": 96,
          "midi": 60,
          "name": "C4",
          "ticks": 21024,
          "time": 17.28944775,
          "velocity": 0.6771653543307087
        },
        {
          "duration": 0.0789472499999988,
          "durationTicks": 96,
          "midi": 65,
          "name": "F4",
          "ticks": 21120,
          "time": 17.368395,
          "velocity": 0.6771653543307087
        },
        {
          "duration": 0.0789472499999988,
          "durationTicks": 96,
          "midi": 77,
          "name": "F5",
          "ticks": 21120,
          "time": 17.368395,
          "velocity": 0.6771653543307087
        },
        {
          "duration": 0.0789472499999988,
          "durationTicks": 96,
          "midi": 60,
          "name": "C4",
          "ticks": 21120,
          "time": 17.368395,
          "velocity": 0.6771653543307087
        },
        {
          "duration": 0.0789472499999988,
          "durationTicks": 96,
          "midi": 72,
          "name": "C5",
          "ticks": 21120,
          "time": 17.368395,
          "velocity": 0.6771653543307087
        },
        {
          "duration": 0.07894725000000236,
          "durationTicks": 96,
          "midi": 65,
          "name": "F4",
          "ticks": 21216,
          "time": 17.44734225,
          "velocity": 0.6771653543307087
        },
        {
          "duration": 0.07894725000000236,
          "durationTicks": 96,
          "midi": 60,
          "name": "C4",
          "ticks": 21216,
          "time": 17.44734225,
          "velocity": 0.6771653543307087
        },
        {
          "duration": 0.07894725000000236,
          "durationTicks": 96,
          "midi": 72,
          "name": "C5",
          "ticks": 21216,
          "time": 17.44734225,
          "velocity": 0.6771653543307087
        },
        {
          "duration": 0.07894725000000236,
          "durationTicks": 96,
          "midi": 77,
          "name": "F5",
          "ticks": 21216,
          "time": 17.44734225,
          "velocity": 0.6771653543307087
        },
        {
          "duration": 0.0789472499999988,
          "durationTicks": 96,
          "midi": 72,
          "name": "C5",
          "ticks": 21312,
          "time": 17.5262895,
          "velocity": 0.6771653543307087
        },
        {
          "duration": 0.0789472499999988,
          "durationTicks": 96,
          "midi": 77,
          "name": "F5",
          "ticks": 21312,
          "time": 17.5262895,
          "velocity": 0.6771653543307087
        },
        {
          "duration": 0.0789472499999988,
          "durationTicks": 96,
          "midi": 65,
          "name": "F4",
          "ticks": 21312,
          "time": 17.5262895,
          "velocity": 0.6771653543307087
        },
        {
          "duration": 0.0789472499999988,
          "durationTicks": 96,
          "midi": 60,
          "name": "C4",
          "ticks": 21312,
          "time": 17.5262895,
          "velocity": 0.6771653543307087
        },
        {
          "duration": 0.0789472499999988,
          "durationTicks": 96,
          "midi": 60,
          "name": "C4",
          "ticks": 21408,
          "time": 17.60523675,
          "velocity": 0.6771653543307087
        },
        {
          "duration": 0.0789472499999988,
          "durationTicks": 96,
          "midi": 77,
          "name": "F5",
          "ticks": 21408,
          "time": 17.60523675,
          "velocity": 0.6771653543307087
        },
        {
          "duration": 0.0789472499999988,
          "durationTicks": 96,
          "midi": 72,
          "name": "C5",
          "ticks": 21408,
          "time": 17.60523675,
          "velocity": 0.6771653543307087
        },
        {
          "duration": 0.0789472499999988,
          "durationTicks": 96,
          "midi": 65,
          "name": "F4",
          "ticks": 21408,
          "time": 17.60523675,
          "velocity": 0.6771653543307087
        },
        {
          "duration": 0.07894725000000236,
          "durationTicks": 96,
          "midi": 74,
          "name": "D5",
          "ticks": 21504,
          "time": 17.684184,
          "velocity": 0.6771653543307087
        },
        {
          "duration": 0.07894725000000236,
          "durationTicks": 96,
          "midi": 62,
          "name": "D4",
          "ticks": 21504,
          "time": 17.684184,
          "velocity": 0.6771653543307087
        },
        {
          "duration": 0.07894725000000236,
          "durationTicks": 96,
          "midi": 69,
          "name": "A4",
          "ticks": 21504,
          "time": 17.684184,
          "velocity": 0.6771653543307087
        },
        {
          "duration": 0.07894725000000236,
          "durationTicks": 96,
          "midi": 77,
          "name": "F5",
          "ticks": 21504,
          "time": 17.684184,
          "velocity": 0.6771653543307087
        },
        {
          "duration": 0.07894725000000236,
          "durationTicks": 96,
          "midi": 65,
          "name": "F4",
          "ticks": 21504,
          "time": 17.684184,
          "velocity": 0.6771653543307087
        },
        {
          "duration": 0.07894725000000236,
          "durationTicks": 96,
          "midi": 81,
          "name": "A5",
          "ticks": 21504,
          "time": 17.684184,
          "velocity": 0.6771653543307087
        },
        {
          "duration": 0.0789472499999988,
          "durationTicks": 96,
          "midi": 77,
          "name": "F5",
          "ticks": 21600,
          "time": 17.76313125,
          "velocity": 0.6771653543307087
        },
        {
          "duration": 0.0789472499999988,
          "durationTicks": 96,
          "midi": 81,
          "name": "A5",
          "ticks": 21600,
          "time": 17.76313125,
          "velocity": 0.6771653543307087
        },
        {
          "duration": 0.0789472499999988,
          "durationTicks": 96,
          "midi": 74,
          "name": "D5",
          "ticks": 21600,
          "time": 17.76313125,
          "velocity": 0.6771653543307087
        },
        {
          "duration": 0.0789472499999988,
          "durationTicks": 96,
          "midi": 69,
          "name": "A4",
          "ticks": 21600,
          "time": 17.76313125,
          "velocity": 0.6771653543307087
        },
        {
          "duration": 0.0789472499999988,
          "durationTicks": 96,
          "midi": 65,
          "name": "F4",
          "ticks": 21600,
          "time": 17.76313125,
          "velocity": 0.6771653543307087
        },
        {
          "duration": 0.0789472499999988,
          "durationTicks": 96,
          "midi": 62,
          "name": "D4",
          "ticks": 21600,
          "time": 17.76313125,
          "velocity": 0.6771653543307087
        },
        {
          "duration": 0.0789472499999988,
          "durationTicks": 96,
          "midi": 69,
          "name": "A4",
          "ticks": 21696,
          "time": 17.8420785,
          "velocity": 0.6771653543307087
        },
        {
          "duration": 0.0789472499999988,
          "durationTicks": 96,
          "midi": 65,
          "name": "F4",
          "ticks": 21696,
          "time": 17.8420785,
          "velocity": 0.6771653543307087
        },
        {
          "duration": 0.0789472499999988,
          "durationTicks": 96,
          "midi": 81,
          "name": "A5",
          "ticks": 21696,
          "time": 17.8420785,
          "velocity": 0.6771653543307087
        },
        {
          "duration": 0.0789472499999988,
          "durationTicks": 96,
          "midi": 77,
          "name": "F5",
          "ticks": 21696,
          "time": 17.8420785,
          "velocity": 0.6771653543307087
        },
        {
          "duration": 0.0789472499999988,
          "durationTicks": 96,
          "midi": 74,
          "name": "D5",
          "ticks": 21696,
          "time": 17.8420785,
          "velocity": 0.6771653543307087
        },
        {
          "duration": 0.0789472499999988,
          "durationTicks": 96,
          "midi": 62,
          "name": "D4",
          "ticks": 21696,
          "time": 17.8420785,
          "velocity": 0.6771653543307087
        },
        {
          "duration": 0.07894725000000236,
          "durationTicks": 96,
          "midi": 62,
          "name": "D4",
          "ticks": 21792,
          "time": 17.92102575,
          "velocity": 0.6771653543307087
        },
        {
          "duration": 0.07894725000000236,
          "durationTicks": 96,
          "midi": 74,
          "name": "D5",
          "ticks": 21792,
          "time": 17.92102575,
          "velocity": 0.6771653543307087
        },
        {
          "duration": 0.07894725000000236,
          "durationTicks": 96,
          "midi": 77,
          "name": "F5",
          "ticks": 21792,
          "time": 17.92102575,
          "velocity": 0.6771653543307087
        },
        {
          "duration": 0.07894725000000236,
          "durationTicks": 96,
          "midi": 65,
          "name": "F4",
          "ticks": 21792,
          "time": 17.92102575,
          "velocity": 0.6771653543307087
        },
        {
          "duration": 0.07894725000000236,
          "durationTicks": 96,
          "midi": 81,
          "name": "A5",
          "ticks": 21792,
          "time": 17.92102575,
          "velocity": 0.6771653543307087
        },
        {
          "duration": 0.07894725000000236,
          "durationTicks": 96,
          "midi": 69,
          "name": "A4",
          "ticks": 21792,
          "time": 17.92102575,
          "velocity": 0.6771653543307087
        },
        {
          "duration": 0.0789472499999988,
          "durationTicks": 96,
          "midi": 69,
          "name": "A4",
          "ticks": 21888,
          "time": 17.999973,
          "velocity": 0.6771653543307087
        },
        {
          "duration": 0.0789472499999988,
          "durationTicks": 96,
          "midi": 65,
          "name": "F4",
          "ticks": 21888,
          "time": 17.999973,
          "velocity": 0.6771653543307087
        },
        {
          "duration": 0.0789472499999988,
          "durationTicks": 96,
          "midi": 77,
          "name": "F5",
          "ticks": 21888,
          "time": 17.999973,
          "velocity": 0.6771653543307087
        },
        {
          "duration": 0.0789472499999988,
          "durationTicks": 96,
          "midi": 74,
          "name": "D5",
          "ticks": 21888,
          "time": 17.999973,
          "velocity": 0.6771653543307087
        },
        {
          "duration": 0.0789472499999988,
          "durationTicks": 96,
          "midi": 81,
          "name": "A5",
          "ticks": 21888,
          "time": 17.999973,
          "velocity": 0.6771653543307087
        },
        {
          "duration": 0.0789472499999988,
          "durationTicks": 96,
          "midi": 62,
          "name": "D4",
          "ticks": 21888,
          "time": 17.999973,
          "velocity": 0.6771653543307087
        },
        {
          "duration": 0.0789472499999988,
          "durationTicks": 96,
          "midi": 81,
          "name": "A5",
          "ticks": 21984,
          "time": 18.07892025,
          "velocity": 0.6771653543307087
        },
        {
          "duration": 0.0789472499999988,
          "durationTicks": 96,
          "midi": 62,
          "name": "D4",
          "ticks": 21984,
          "time": 18.07892025,
          "velocity": 0.6771653543307087
        },
        {
          "duration": 0.0789472499999988,
          "durationTicks": 96,
          "midi": 69,
          "name": "A4",
          "ticks": 21984,
          "time": 18.07892025,
          "velocity": 0.6771653543307087
        },
        {
          "duration": 0.0789472499999988,
          "durationTicks": 96,
          "midi": 74,
          "name": "D5",
          "ticks": 21984,
          "time": 18.07892025,
          "velocity": 0.6771653543307087
        },
        {
          "duration": 0.0789472499999988,
          "durationTicks": 96,
          "midi": 77,
          "name": "F5",
          "ticks": 21984,
          "time": 18.07892025,
          "velocity": 0.6771653543307087
        },
        {
          "duration": 0.0789472499999988,
          "durationTicks": 96,
          "midi": 65,
          "name": "F4",
          "ticks": 21984,
          "time": 18.07892025,
          "velocity": 0.6771653543307087
        },
        {
          "duration": 0.07894725000000236,
          "durationTicks": 96,
          "midi": 81,
          "name": "A5",
          "ticks": 22080,
          "time": 18.1578675,
          "velocity": 0.6771653543307087
        },
        {
          "duration": 0.07894725000000236,
          "durationTicks": 96,
          "midi": 74,
          "name": "D5",
          "ticks": 22080,
          "time": 18.1578675,
          "velocity": 0.6771653543307087
        },
        {
          "duration": 0.07894725000000236,
          "durationTicks": 96,
          "midi": 65,
          "name": "F4",
          "ticks": 22080,
          "time": 18.1578675,
          "velocity": 0.6771653543307087
        },
        {
          "duration": 0.07894725000000236,
          "durationTicks": 96,
          "midi": 69,
          "name": "A4",
          "ticks": 22080,
          "time": 18.1578675,
          "velocity": 0.6771653543307087
        },
        {
          "duration": 0.07894725000000236,
          "durationTicks": 96,
          "midi": 62,
          "name": "D4",
          "ticks": 22080,
          "time": 18.1578675,
          "velocity": 0.6771653543307087
        },
        {
          "duration": 0.07894725000000236,
          "durationTicks": 96,
          "midi": 77,
          "name": "F5",
          "ticks": 22080,
          "time": 18.1578675,
          "velocity": 0.6771653543307087
        },
        {
          "duration": 0.0789472499999988,
          "durationTicks": 96,
          "midi": 65,
          "name": "F4",
          "ticks": 22176,
          "time": 18.23681475,
          "velocity": 0.6771653543307087
        },
        {
          "duration": 0.0789472499999988,
          "durationTicks": 96,
          "midi": 69,
          "name": "A4",
          "ticks": 22176,
          "time": 18.23681475,
          "velocity": 0.6771653543307087
        },
        {
          "duration": 0.0789472499999988,
          "durationTicks": 96,
          "midi": 77,
          "name": "F5",
          "ticks": 22176,
          "time": 18.23681475,
          "velocity": 0.6771653543307087
        },
        {
          "duration": 0.0789472499999988,
          "durationTicks": 96,
          "midi": 81,
          "name": "A5",
          "ticks": 22176,
          "time": 18.23681475,
          "velocity": 0.6771653543307087
        },
        {
          "duration": 0.0789472499999988,
          "durationTicks": 96,
          "midi": 62,
          "name": "D4",
          "ticks": 22176,
          "time": 18.23681475,
          "velocity": 0.6771653543307087
        },
        {
          "duration": 0.0789472499999988,
          "durationTicks": 96,
          "midi": 74,
          "name": "D5",
          "ticks": 22176,
          "time": 18.23681475,
          "velocity": 0.6771653543307087
        },
        {
          "duration": 0.0789472499999988,
          "durationTicks": 96,
          "midi": 69,
          "name": "A4",
          "ticks": 22272,
          "time": 18.315762,
          "velocity": 0.6771653543307087
        },
        {
          "duration": 0.0789472499999988,
          "durationTicks": 96,
          "midi": 74,
          "name": "D5",
          "ticks": 22272,
          "time": 18.315762,
          "velocity": 0.6771653543307087
        },
        {
          "duration": 0.0789472499999988,
          "durationTicks": 96,
          "midi": 65,
          "name": "F4",
          "ticks": 22272,
          "time": 18.315762,
          "velocity": 0.6771653543307087
        },
        {
          "duration": 0.0789472499999988,
          "durationTicks": 96,
          "midi": 81,
          "name": "A5",
          "ticks": 22272,
          "time": 18.315762,
          "velocity": 0.6771653543307087
        },
        {
          "duration": 0.0789472499999988,
          "durationTicks": 96,
          "midi": 77,
          "name": "F5",
          "ticks": 22272,
          "time": 18.315762,
          "velocity": 0.6771653543307087
        },
        {
          "duration": 0.0789472499999988,
          "durationTicks": 96,
          "midi": 62,
          "name": "D4",
          "ticks": 22272,
          "time": 18.315762,
          "velocity": 0.6771653543307087
        },
        {
          "duration": 0.07894725000000236,
          "durationTicks": 96,
          "midi": 69,
          "name": "A4",
          "ticks": 22368,
          "time": 18.39470925,
          "velocity": 0.6771653543307087
        },
        {
          "duration": 0.07894725000000236,
          "durationTicks": 96,
          "midi": 77,
          "name": "F5",
          "ticks": 22368,
          "time": 18.39470925,
          "velocity": 0.6771653543307087
        },
        {
          "duration": 0.07894725000000236,
          "durationTicks": 96,
          "midi": 74,
          "name": "D5",
          "ticks": 22368,
          "time": 18.39470925,
          "velocity": 0.6771653543307087
        },
        {
          "duration": 0.07894725000000236,
          "durationTicks": 96,
          "midi": 62,
          "name": "D4",
          "ticks": 22368,
          "time": 18.39470925,
          "velocity": 0.6771653543307087
        },
        {
          "duration": 0.07894725000000236,
          "durationTicks": 96,
          "midi": 81,
          "name": "A5",
          "ticks": 22368,
          "time": 18.39470925,
          "velocity": 0.6771653543307087
        },
        {
          "duration": 0.07894725000000236,
          "durationTicks": 96,
          "midi": 65,
          "name": "F4",
          "ticks": 22368,
          "time": 18.39470925,
          "velocity": 0.6771653543307087
        },
        {
          "duration": 0.0789472499999988,
          "durationTicks": 96,
          "midi": 74,
          "name": "D5",
          "ticks": 22464,
          "time": 18.4736565,
          "velocity": 0.6771653543307087
        },
        {
          "duration": 0.0789472499999988,
          "durationTicks": 96,
          "midi": 62,
          "name": "D4",
          "ticks": 22464,
          "time": 18.4736565,
          "velocity": 0.6771653543307087
        },
        {
          "duration": 0.0789472499999988,
          "durationTicks": 96,
          "midi": 77,
          "name": "F5",
          "ticks": 22464,
          "time": 18.4736565,
          "velocity": 0.6771653543307087
        },
        {
          "duration": 0.0789472499999988,
          "durationTicks": 96,
          "midi": 81,
          "name": "A5",
          "ticks": 22464,
          "time": 18.4736565,
          "velocity": 0.6771653543307087
        },
        {
          "duration": 0.0789472499999988,
          "durationTicks": 96,
          "midi": 69,
          "name": "A4",
          "ticks": 22464,
          "time": 18.4736565,
          "velocity": 0.6771653543307087
        },
        {
          "duration": 0.0789472499999988,
          "durationTicks": 96,
          "midi": 65,
          "name": "F4",
          "ticks": 22464,
          "time": 18.4736565,
          "velocity": 0.6771653543307087
        },
        {
          "duration": 0.0789472499999988,
          "durationTicks": 96,
          "midi": 65,
          "name": "F4",
          "ticks": 22560,
          "time": 18.55260375,
          "velocity": 0.6771653543307087
        },
        {
          "duration": 0.0789472499999988,
          "durationTicks": 96,
          "midi": 77,
          "name": "F5",
          "ticks": 22560,
          "time": 18.55260375,
          "velocity": 0.6771653543307087
        },
        {
          "duration": 0.0789472499999988,
          "durationTicks": 96,
          "midi": 62,
          "name": "D4",
          "ticks": 22560,
          "time": 18.55260375,
          "velocity": 0.6771653543307087
        },
        {
          "duration": 0.0789472499999988,
          "durationTicks": 96,
          "midi": 81,
          "name": "A5",
          "ticks": 22560,
          "time": 18.55260375,
          "velocity": 0.6771653543307087
        },
        {
          "duration": 0.0789472499999988,
          "durationTicks": 96,
          "midi": 74,
          "name": "D5",
          "ticks": 22560,
          "time": 18.55260375,
          "velocity": 0.6771653543307087
        },
        {
          "duration": 0.0789472499999988,
          "durationTicks": 96,
          "midi": 69,
          "name": "A4",
          "ticks": 22560,
          "time": 18.55260375,
          "velocity": 0.6771653543307087
        },
        {
          "duration": 0.07894725000000236,
          "durationTicks": 96,
          "midi": 81,
          "name": "A5",
          "ticks": 22656,
          "time": 18.631550999999998,
          "velocity": 0.6771653543307087
        },
        {
          "duration": 0.07894725000000236,
          "durationTicks": 96,
          "midi": 74,
          "name": "D5",
          "ticks": 22656,
          "time": 18.631550999999998,
          "velocity": 0.6771653543307087
        },
        {
          "duration": 0.07894725000000236,
          "durationTicks": 96,
          "midi": 69,
          "name": "A4",
          "ticks": 22656,
          "time": 18.631550999999998,
          "velocity": 0.6771653543307087
        },
        {
          "duration": 0.07894725000000236,
          "durationTicks": 96,
          "midi": 77,
          "name": "F5",
          "ticks": 22656,
          "time": 18.631550999999998,
          "velocity": 0.6771653543307087
        },
        {
          "duration": 0.07894725000000236,
          "durationTicks": 96,
          "midi": 65,
          "name": "F4",
          "ticks": 22656,
          "time": 18.631550999999998,
          "velocity": 0.6771653543307087
        },
        {
          "duration": 0.07894725000000236,
          "durationTicks": 96,
          "midi": 62,
          "name": "D4",
          "ticks": 22656,
          "time": 18.631550999999998,
          "velocity": 0.6771653543307087
        },
        {
          "duration": 0.0789472499999988,
          "durationTicks": 96,
          "midi": 69,
          "name": "A4",
          "ticks": 22752,
          "time": 18.71049825,
          "velocity": 0.6771653543307087
        },
        {
          "duration": 0.0789472499999988,
          "durationTicks": 96,
          "midi": 81,
          "name": "A5",
          "ticks": 22752,
          "time": 18.71049825,
          "velocity": 0.6771653543307087
        },
        {
          "duration": 0.0789472499999988,
          "durationTicks": 96,
          "midi": 77,
          "name": "F5",
          "ticks": 22752,
          "time": 18.71049825,
          "velocity": 0.6771653543307087
        },
        {
          "duration": 0.0789472499999988,
          "durationTicks": 96,
          "midi": 62,
          "name": "D4",
          "ticks": 22752,
          "time": 18.71049825,
          "velocity": 0.6771653543307087
        },
        {
          "duration": 0.0789472499999988,
          "durationTicks": 96,
          "midi": 74,
          "name": "D5",
          "ticks": 22752,
          "time": 18.71049825,
          "velocity": 0.6771653543307087
        },
        {
          "duration": 0.0789472499999988,
          "durationTicks": 96,
          "midi": 65,
          "name": "F4",
          "ticks": 22752,
          "time": 18.71049825,
          "velocity": 0.6771653543307087
        },
        {
          "duration": 0.0789472499999988,
          "durationTicks": 96,
          "midi": 81,
          "name": "A5",
          "ticks": 22848,
          "time": 18.7894455,
          "velocity": 0.6771653543307087
        },
        {
          "duration": 0.0789472499999988,
          "durationTicks": 96,
          "midi": 62,
          "name": "D4",
          "ticks": 22848,
          "time": 18.7894455,
          "velocity": 0.6771653543307087
        },
        {
          "duration": 0.0789472499999988,
          "durationTicks": 96,
          "midi": 77,
          "name": "F5",
          "ticks": 22848,
          "time": 18.7894455,
          "velocity": 0.6771653543307087
        },
        {
          "duration": 0.0789472499999988,
          "durationTicks": 96,
          "midi": 69,
          "name": "A4",
          "ticks": 22848,
          "time": 18.7894455,
          "velocity": 0.6771653543307087
        },
        {
          "duration": 0.0789472499999988,
          "durationTicks": 96,
          "midi": 65,
          "name": "F4",
          "ticks": 22848,
          "time": 18.7894455,
          "velocity": 0.6771653543307087
        },
        {
          "duration": 0.0789472499999988,
          "durationTicks": 96,
          "midi": 74,
          "name": "D5",
          "ticks": 22848,
          "time": 18.7894455,
          "velocity": 0.6771653543307087
        },
        {
          "duration": 0.07894725000000236,
          "durationTicks": 96,
          "midi": 74,
          "name": "D5",
          "ticks": 22944,
          "time": 18.868392749999998,
          "velocity": 0.6771653543307087
        },
        {
          "duration": 0.07894725000000236,
          "durationTicks": 96,
          "midi": 81,
          "name": "A5",
          "ticks": 22944,
          "time": 18.868392749999998,
          "velocity": 0.6771653543307087
        },
        {
          "duration": 0.07894725000000236,
          "durationTicks": 96,
          "midi": 69,
          "name": "A4",
          "ticks": 22944,
          "time": 18.868392749999998,
          "velocity": 0.6771653543307087
        },
        {
          "duration": 0.07894725000000236,
          "durationTicks": 96,
          "midi": 77,
          "name": "F5",
          "ticks": 22944,
          "time": 18.868392749999998,
          "velocity": 0.6771653543307087
        },
        {
          "duration": 0.07894725000000236,
          "durationTicks": 96,
          "midi": 65,
          "name": "F4",
          "ticks": 22944,
          "time": 18.868392749999998,
          "velocity": 0.6771653543307087
        },
        {
          "duration": 0.07894725000000236,
          "durationTicks": 96,
          "midi": 62,
          "name": "D4",
          "ticks": 22944,
          "time": 18.868392749999998,
          "velocity": 0.6771653543307087
        },
        {
          "duration": 0.0789472499999988,
          "durationTicks": 96,
          "midi": 62,
          "name": "D4",
          "ticks": 23040,
          "time": 18.94734,
          "velocity": 0.6771653543307087
        },
        {
          "duration": 0.0789472499999988,
          "durationTicks": 96,
          "midi": 77,
          "name": "F5",
          "ticks": 23040,
          "time": 18.94734,
          "velocity": 0.6771653543307087
        },
        {
          "duration": 0.0789472499999988,
          "durationTicks": 96,
          "midi": 81,
          "name": "A5",
          "ticks": 23040,
          "time": 18.94734,
          "velocity": 0.6771653543307087
        },
        {
          "duration": 0.0789472499999988,
          "durationTicks": 96,
          "midi": 74,
          "name": "D5",
          "ticks": 23040,
          "time": 18.94734,
          "velocity": 0.6771653543307087
        },
        {
          "duration": 0.0789472499999988,
          "durationTicks": 96,
          "midi": 65,
          "name": "F4",
          "ticks": 23040,
          "time": 18.94734,
          "velocity": 0.6771653543307087
        },
        {
          "duration": 0.0789472499999988,
          "durationTicks": 96,
          "midi": 69,
          "name": "A4",
          "ticks": 23040,
          "time": 18.94734,
          "velocity": 0.6771653543307087
        },
        {
          "duration": 0.0789472499999988,
          "durationTicks": 96,
          "midi": 74,
          "name": "D5",
          "ticks": 23136,
          "time": 19.02628725,
          "velocity": 0.6771653543307087
        },
        {
          "duration": 0.0789472499999988,
          "durationTicks": 96,
          "midi": 69,
          "name": "A4",
          "ticks": 23136,
          "time": 19.02628725,
          "velocity": 0.6771653543307087
        },
        {
          "duration": 0.0789472499999988,
          "durationTicks": 96,
          "midi": 62,
          "name": "D4",
          "ticks": 23136,
          "time": 19.02628725,
          "velocity": 0.6771653543307087
        },
        {
          "duration": 0.0789472499999988,
          "durationTicks": 96,
          "midi": 65,
          "name": "F4",
          "ticks": 23136,
          "time": 19.02628725,
          "velocity": 0.6771653543307087
        },
        {
          "duration": 0.0789472499999988,
          "durationTicks": 96,
          "midi": 81,
          "name": "A5",
          "ticks": 23136,
          "time": 19.02628725,
          "velocity": 0.6771653543307087
        },
        {
          "duration": 0.0789472499999988,
          "durationTicks": 96,
          "midi": 77,
          "name": "F5",
          "ticks": 23136,
          "time": 19.02628725,
          "velocity": 0.6771653543307087
        },
        {
          "duration": 0.07894725000000236,
          "durationTicks": 96,
          "midi": 62,
          "name": "D4",
          "ticks": 23232,
          "time": 19.105234499999998,
          "velocity": 0.6771653543307087
        },
        {
          "duration": 0.07894725000000236,
          "durationTicks": 96,
          "midi": 74,
          "name": "D5",
          "ticks": 23232,
          "time": 19.105234499999998,
          "velocity": 0.6771653543307087
        },
        {
          "duration": 0.07894725000000236,
          "durationTicks": 96,
          "midi": 81,
          "name": "A5",
          "ticks": 23232,
          "time": 19.105234499999998,
          "velocity": 0.6771653543307087
        },
        {
          "duration": 0.07894725000000236,
          "durationTicks": 96,
          "midi": 77,
          "name": "F5",
          "ticks": 23232,
          "time": 19.105234499999998,
          "velocity": 0.6771653543307087
        },
        {
          "duration": 0.07894725000000236,
          "durationTicks": 96,
          "midi": 65,
          "name": "F4",
          "ticks": 23232,
          "time": 19.105234499999998,
          "velocity": 0.6771653543307087
        },
        {
          "duration": 0.07894725000000236,
          "durationTicks": 96,
          "midi": 69,
          "name": "A4",
          "ticks": 23232,
          "time": 19.105234499999998,
          "velocity": 0.6771653543307087
        },
        {
          "duration": 0.0789472499999988,
          "durationTicks": 96,
          "midi": 74,
          "name": "D5",
          "ticks": 23328,
          "time": 19.18418175,
          "velocity": 0.6771653543307087
        },
        {
          "duration": 0.0789472499999988,
          "durationTicks": 96,
          "midi": 69,
          "name": "A4",
          "ticks": 23328,
          "time": 19.18418175,
          "velocity": 0.6771653543307087
        },
        {
          "duration": 0.0789472499999988,
          "durationTicks": 96,
          "midi": 81,
          "name": "A5",
          "ticks": 23328,
          "time": 19.18418175,
          "velocity": 0.6771653543307087
        },
        {
          "duration": 0.0789472499999988,
          "durationTicks": 96,
          "midi": 65,
          "name": "F4",
          "ticks": 23328,
          "time": 19.18418175,
          "velocity": 0.6771653543307087
        },
        {
          "duration": 0.0789472499999988,
          "durationTicks": 96,
          "midi": 62,
          "name": "D4",
          "ticks": 23328,
          "time": 19.18418175,
          "velocity": 0.6771653543307087
        },
        {
          "duration": 0.0789472499999988,
          "durationTicks": 96,
          "midi": 77,
          "name": "F5",
          "ticks": 23328,
          "time": 19.18418175,
          "velocity": 0.6771653543307087
        },
        {
          "duration": 0.0789472499999988,
          "durationTicks": 96,
          "midi": 62,
          "name": "D4",
          "ticks": 23424,
          "time": 19.263129,
          "velocity": 0.6771653543307087
        },
        {
          "duration": 0.0789472499999988,
          "durationTicks": 96,
          "midi": 74,
          "name": "D5",
          "ticks": 23424,
          "time": 19.263129,
          "velocity": 0.6771653543307087
        },
        {
          "duration": 0.0789472499999988,
          "durationTicks": 96,
          "midi": 77,
          "name": "F5",
          "ticks": 23424,
          "time": 19.263129,
          "velocity": 0.6771653543307087
        },
        {
          "duration": 0.0789472499999988,
          "durationTicks": 96,
          "midi": 69,
          "name": "A4",
          "ticks": 23424,
          "time": 19.263129,
          "velocity": 0.6771653543307087
        },
        {
          "duration": 0.0789472499999988,
          "durationTicks": 96,
          "midi": 65,
          "name": "F4",
          "ticks": 23424,
          "time": 19.263129,
          "velocity": 0.6771653543307087
        },
        {
          "duration": 0.0789472499999988,
          "durationTicks": 96,
          "midi": 81,
          "name": "A5",
          "ticks": 23424,
          "time": 19.263129,
          "velocity": 0.6771653543307087
        },
        {
          "duration": 0.07894725000000236,
          "durationTicks": 96,
          "midi": 65,
          "name": "F4",
          "ticks": 23520,
          "time": 19.342076249999998,
          "velocity": 0.6771653543307087
        },
        {
          "duration": 0.07894725000000236,
          "durationTicks": 96,
          "midi": 62,
          "name": "D4",
          "ticks": 23520,
          "time": 19.342076249999998,
          "velocity": 0.6771653543307087
        },
        {
          "duration": 0.07894725000000236,
          "durationTicks": 96,
          "midi": 74,
          "name": "D5",
          "ticks": 23520,
          "time": 19.342076249999998,
          "velocity": 0.6771653543307087
        },
        {
          "duration": 0.07894725000000236,
          "durationTicks": 96,
          "midi": 77,
          "name": "F5",
          "ticks": 23520,
          "time": 19.342076249999998,
          "velocity": 0.6771653543307087
        },
        {
          "duration": 0.07894725000000236,
          "durationTicks": 96,
          "midi": 69,
          "name": "A4",
          "ticks": 23520,
          "time": 19.342076249999998,
          "velocity": 0.6771653543307087
        },
        {
          "duration": 0.07894725000000236,
          "durationTicks": 96,
          "midi": 81,
          "name": "A5",
          "ticks": 23520,
          "time": 19.342076249999998,
          "velocity": 0.6771653543307087
        },
        {
          "duration": 0.0789472499999988,
          "durationTicks": 96,
          "midi": 77,
          "name": "F5",
          "ticks": 23616,
          "time": 19.4210235,
          "velocity": 0.6771653543307087
        },
        {
          "duration": 0.0789472499999988,
          "durationTicks": 96,
          "midi": 74,
          "name": "D5",
          "ticks": 23616,
          "time": 19.4210235,
          "velocity": 0.6771653543307087
        },
        {
          "duration": 0.0789472499999988,
          "durationTicks": 96,
          "midi": 69,
          "name": "A4",
          "ticks": 23616,
          "time": 19.4210235,
          "velocity": 0.6771653543307087
        },
        {
          "duration": 0.0789472499999988,
          "durationTicks": 96,
          "midi": 81,
          "name": "A5",
          "ticks": 23616,
          "time": 19.4210235,
          "velocity": 0.6771653543307087
        },
        {
          "duration": 0.0789472499999988,
          "durationTicks": 96,
          "midi": 65,
          "name": "F4",
          "ticks": 23616,
          "time": 19.4210235,
          "velocity": 0.6771653543307087
        },
        {
          "duration": 0.0789472499999988,
          "durationTicks": 96,
          "midi": 62,
          "name": "D4",
          "ticks": 23616,
          "time": 19.4210235,
          "velocity": 0.6771653543307087
        },
        {
          "duration": 0.0789472499999988,
          "durationTicks": 96,
          "midi": 69,
          "name": "A4",
          "ticks": 23712,
          "time": 19.49997075,
          "velocity": 0.6771653543307087
        },
        {
          "duration": 0.0789472499999988,
          "durationTicks": 96,
          "midi": 62,
          "name": "D4",
          "ticks": 23712,
          "time": 19.49997075,
          "velocity": 0.6771653543307087
        },
        {
          "duration": 0.0789472499999988,
          "durationTicks": 96,
          "midi": 77,
          "name": "F5",
          "ticks": 23712,
          "time": 19.49997075,
          "velocity": 0.6771653543307087
        },
        {
          "duration": 0.0789472499999988,
          "durationTicks": 96,
          "midi": 65,
          "name": "F4",
          "ticks": 23712,
          "time": 19.49997075,
          "velocity": 0.6771653543307087
        },
        {
          "duration": 0.0789472499999988,
          "durationTicks": 96,
          "midi": 74,
          "name": "D5",
          "ticks": 23712,
          "time": 19.49997075,
          "velocity": 0.6771653543307087
        },
        {
          "duration": 0.0789472499999988,
          "durationTicks": 96,
          "midi": 81,
          "name": "A5",
          "ticks": 23712,
          "time": 19.49997075,
          "velocity": 0.6771653543307087
        },
        {
          "duration": 0.07894725000000236,
          "durationTicks": 96,
          "midi": 77,
          "name": "F5",
          "ticks": 23808,
          "time": 19.578917999999998,
          "velocity": 0.6771653543307087
        },
        {
          "duration": 0.07894725000000236,
          "durationTicks": 96,
          "midi": 62,
          "name": "D4",
          "ticks": 23808,
          "time": 19.578917999999998,
          "velocity": 0.6771653543307087
        },
        {
          "duration": 0.07894725000000236,
          "durationTicks": 96,
          "midi": 74,
          "name": "D5",
          "ticks": 23808,
          "time": 19.578917999999998,
          "velocity": 0.6771653543307087
        },
        {
          "duration": 0.07894725000000236,
          "durationTicks": 96,
          "midi": 65,
          "name": "F4",
          "ticks": 23808,
          "time": 19.578917999999998,
          "velocity": 0.6771653543307087
        },
        {
          "duration": 0.07894725000000236,
          "durationTicks": 96,
          "midi": 81,
          "name": "A5",
          "ticks": 23808,
          "time": 19.578917999999998,
          "velocity": 0.6771653543307087
        },
        {
          "duration": 0.07894725000000236,
          "durationTicks": 96,
          "midi": 69,
          "name": "A4",
          "ticks": 23808,
          "time": 19.578917999999998,
          "velocity": 0.6771653543307087
        },
        {
          "duration": 0.0789472499999988,
          "durationTicks": 96,
          "midi": 74,
          "name": "D5",
          "ticks": 23904,
          "time": 19.65786525,
          "velocity": 0.6771653543307087
        },
        {
          "duration": 0.0789472499999988,
          "durationTicks": 96,
          "midi": 69,
          "name": "A4",
          "ticks": 23904,
          "time": 19.65786525,
          "velocity": 0.6771653543307087
        },
        {
          "duration": 0.0789472499999988,
          "durationTicks": 96,
          "midi": 62,
          "name": "D4",
          "ticks": 23904,
          "time": 19.65786525,
          "velocity": 0.6771653543307087
        },
        {
          "duration": 0.0789472499999988,
          "durationTicks": 96,
          "midi": 65,
          "name": "F4",
          "ticks": 23904,
          "time": 19.65786525,
          "velocity": 0.6771653543307087
        },
        {
          "duration": 0.0789472499999988,
          "durationTicks": 96,
          "midi": 81,
          "name": "A5",
          "ticks": 23904,
          "time": 19.65786525,
          "velocity": 0.6771653543307087
        },
        {
          "duration": 0.0789472499999988,
          "durationTicks": 96,
          "midi": 77,
          "name": "F5",
          "ticks": 23904,
          "time": 19.65786525,
          "velocity": 0.6771653543307087
        },
        {
          "duration": 0.0789472499999988,
          "durationTicks": 96,
          "midi": 74,
          "name": "D5",
          "ticks": 24000,
          "time": 19.7368125,
          "velocity": 0.6771653543307087
        },
        {
          "duration": 0.0789472499999988,
          "durationTicks": 96,
          "midi": 69,
          "name": "A4",
          "ticks": 24000,
          "time": 19.7368125,
          "velocity": 0.6771653543307087
        },
        {
          "duration": 0.0789472499999988,
          "durationTicks": 96,
          "midi": 77,
          "name": "F5",
          "ticks": 24000,
          "time": 19.7368125,
          "velocity": 0.6771653543307087
        },
        {
          "duration": 0.0789472499999988,
          "durationTicks": 96,
          "midi": 62,
          "name": "D4",
          "ticks": 24000,
          "time": 19.7368125,
          "velocity": 0.6771653543307087
        },
        {
          "duration": 0.0789472499999988,
          "durationTicks": 96,
          "midi": 81,
          "name": "A5",
          "ticks": 24000,
          "time": 19.7368125,
          "velocity": 0.6771653543307087
        },
        {
          "duration": 0.0789472499999988,
          "durationTicks": 96,
          "midi": 65,
          "name": "F4",
          "ticks": 24000,
          "time": 19.7368125,
          "velocity": 0.6771653543307087
        },
        {
          "duration": 0.07894725000000236,
          "durationTicks": 96,
          "midi": 77,
          "name": "F5",
          "ticks": 24096,
          "time": 19.815759749999998,
          "velocity": 0.6771653543307087
        },
        {
          "duration": 0.07894725000000236,
          "durationTicks": 96,
          "midi": 69,
          "name": "A4",
          "ticks": 24096,
          "time": 19.815759749999998,
          "velocity": 0.6771653543307087
        },
        {
          "duration": 0.07894725000000236,
          "durationTicks": 96,
          "midi": 62,
          "name": "D4",
          "ticks": 24096,
          "time": 19.815759749999998,
          "velocity": 0.6771653543307087
        },
        {
          "duration": 0.07894725000000236,
          "durationTicks": 96,
          "midi": 65,
          "name": "F4",
          "ticks": 24096,
          "time": 19.815759749999998,
          "velocity": 0.6771653543307087
        },
        {
          "duration": 0.07894725000000236,
          "durationTicks": 96,
          "midi": 81,
          "name": "A5",
          "ticks": 24096,
          "time": 19.815759749999998,
          "velocity": 0.6771653543307087
        },
        {
          "duration": 0.07894725000000236,
          "durationTicks": 96,
          "midi": 74,
          "name": "D5",
          "ticks": 24096,
          "time": 19.815759749999998,
          "velocity": 0.6771653543307087
        },
        {
          "duration": 0.0789472499999988,
          "durationTicks": 96,
          "midi": 69,
          "name": "A4",
          "ticks": 24192,
          "time": 19.894707,
          "velocity": 0.6771653543307087
        },
        {
          "duration": 0.0789472499999988,
          "durationTicks": 96,
          "midi": 74,
          "name": "D5",
          "ticks": 24192,
          "time": 19.894707,
          "velocity": 0.6771653543307087
        },
        {
          "duration": 0.0789472499999988,
          "durationTicks": 96,
          "midi": 77,
          "name": "F5",
          "ticks": 24192,
          "time": 19.894707,
          "velocity": 0.6771653543307087
        },
        {
          "duration": 0.0789472499999988,
          "durationTicks": 96,
          "midi": 81,
          "name": "A5",
          "ticks": 24192,
          "time": 19.894707,
          "velocity": 0.6771653543307087
        },
        {
          "duration": 0.0789472499999988,
          "durationTicks": 96,
          "midi": 65,
          "name": "F4",
          "ticks": 24192,
          "time": 19.894707,
          "velocity": 0.6771653543307087
        },
        {
          "duration": 0.0789472499999988,
          "durationTicks": 96,
          "midi": 62,
          "name": "D4",
          "ticks": 24192,
          "time": 19.894707,
          "velocity": 0.6771653543307087
        },
        {
          "duration": 0.0789472499999988,
          "durationTicks": 96,
          "midi": 74,
          "name": "D5",
          "ticks": 24288,
          "time": 19.97365425,
          "velocity": 0.6771653543307087
        },
        {
          "duration": 0.0789472499999988,
          "durationTicks": 96,
          "midi": 62,
          "name": "D4",
          "ticks": 24288,
          "time": 19.97365425,
          "velocity": 0.6771653543307087
        },
        {
          "duration": 0.0789472499999988,
          "durationTicks": 96,
          "midi": 65,
          "name": "F4",
          "ticks": 24288,
          "time": 19.97365425,
          "velocity": 0.6771653543307087
        },
        {
          "duration": 0.0789472499999988,
          "durationTicks": 96,
          "midi": 77,
          "name": "F5",
          "ticks": 24288,
          "time": 19.97365425,
          "velocity": 0.6771653543307087
        },
        {
          "duration": 0.0789472499999988,
          "durationTicks": 96,
          "midi": 69,
          "name": "A4",
          "ticks": 24288,
          "time": 19.97365425,
          "velocity": 0.6771653543307087
        },
        {
          "duration": 0.0789472499999988,
          "durationTicks": 96,
          "midi": 81,
          "name": "A5",
          "ticks": 24288,
          "time": 19.97365425,
          "velocity": 0.6771653543307087
        },
        {
          "duration": 0.07894725000000236,
          "durationTicks": 96,
          "midi": 74,
          "name": "D5",
          "ticks": 24384,
          "time": 20.052601499999998,
          "velocity": 0.6771653543307087
        },
        {
          "duration": 0.07894725000000236,
          "durationTicks": 96,
          "midi": 81,
          "name": "A5",
          "ticks": 24384,
          "time": 20.052601499999998,
          "velocity": 0.6771653543307087
        },
        {
          "duration": 0.07894725000000236,
          "durationTicks": 96,
          "midi": 62,
          "name": "D4",
          "ticks": 24384,
          "time": 20.052601499999998,
          "velocity": 0.6771653543307087
        },
        {
          "duration": 0.07894725000000236,
          "durationTicks": 96,
          "midi": 65,
          "name": "F4",
          "ticks": 24384,
          "time": 20.052601499999998,
          "velocity": 0.6771653543307087
        },
        {
          "duration": 0.07894725000000236,
          "durationTicks": 96,
          "midi": 69,
          "name": "A4",
          "ticks": 24384,
          "time": 20.052601499999998,
          "velocity": 0.6771653543307087
        },
        {
          "duration": 0.07894725000000236,
          "durationTicks": 96,
          "midi": 77,
          "name": "F5",
          "ticks": 24384,
          "time": 20.052601499999998,
          "velocity": 0.6771653543307087
        },
        {
          "duration": 0.0789472499999988,
          "durationTicks": 96,
          "midi": 65,
          "name": "F4",
          "ticks": 24480,
          "time": 20.13154875,
          "velocity": 0.6771653543307087
        },
        {
          "duration": 0.0789472499999988,
          "durationTicks": 96,
          "midi": 81,
          "name": "A5",
          "ticks": 24480,
          "time": 20.13154875,
          "velocity": 0.6771653543307087
        },
        {
          "duration": 0.0789472499999988,
          "durationTicks": 96,
          "midi": 69,
          "name": "A4",
          "ticks": 24480,
          "time": 20.13154875,
          "velocity": 0.6771653543307087
        },
        {
          "duration": 0.0789472499999988,
          "durationTicks": 96,
          "midi": 74,
          "name": "D5",
          "ticks": 24480,
          "time": 20.13154875,
          "velocity": 0.6771653543307087
        },
        {
          "duration": 0.0789472499999988,
          "durationTicks": 96,
          "midi": 62,
          "name": "D4",
          "ticks": 24480,
          "time": 20.13154875,
          "velocity": 0.6771653543307087
        },
        {
          "duration": 0.0789472499999988,
          "durationTicks": 96,
          "midi": 77,
          "name": "F5",
          "ticks": 24480,
          "time": 20.13154875,
          "velocity": 0.6771653543307087
        },
        {
          "duration": 0.0789472499999988,
          "durationTicks": 96,
          "midi": 53,
          "name": "F3",
          "ticks": 73728,
          "time": 60.631488,
          "velocity": 0.8818897637795275
        },
        {
          "duration": 0.0789472499999988,
          "durationTicks": 96,
          "midi": 65,
          "name": "F4",
          "ticks": 73728,
          "time": 60.631488,
          "velocity": 0.8818897637795275
        },
        {
          "duration": 0.0789472499999988,
          "durationTicks": 96,
          "midi": 53,
          "name": "F3",
          "ticks": 73824,
          "time": 60.710435249999996,
          "velocity": 0.6771653543307087
        },
        {
          "duration": 0.0789472499999988,
          "durationTicks": 96,
          "midi": 65,
          "name": "F4",
          "ticks": 73824,
          "time": 60.710435249999996,
          "velocity": 0.6771653543307087
        },
        {
          "duration": 0.07894725000000591,
          "durationTicks": 96,
          "midi": 65,
          "name": "F4",
          "ticks": 73920,
          "time": 60.789382499999995,
          "velocity": 0.6771653543307087
        },
        {
          "duration": 0.07894725000000591,
          "durationTicks": 96,
          "midi": 53,
          "name": "F3",
          "ticks": 73920,
          "time": 60.789382499999995,
          "velocity": 0.6771653543307087
        },
        {
          "duration": 0.0789472499999988,
          "durationTicks": 96,
          "midi": 65,
          "name": "F4",
          "ticks": 74016,
          "time": 60.86832975,
          "velocity": 0.6771653543307087
        },
        {
          "duration": 0.0789472499999988,
          "durationTicks": 96,
          "midi": 53,
          "name": "F3",
          "ticks": 74016,
          "time": 60.86832975,
          "velocity": 0.6771653543307087
        },
        {
          "duration": 0.0789472499999988,
          "durationTicks": 96,
          "midi": 53,
          "name": "F3",
          "ticks": 74112,
          "time": 60.947277,
          "velocity": 0.6771653543307087
        },
        {
          "duration": 0.0789472499999988,
          "durationTicks": 96,
          "midi": 65,
          "name": "F4",
          "ticks": 74112,
          "time": 60.947277,
          "velocity": 0.6771653543307087
        },
        {
          "duration": 0.0789472499999988,
          "durationTicks": 96,
          "midi": 53,
          "name": "F3",
          "ticks": 74208,
          "time": 61.02622425,
          "velocity": 0.6771653543307087
        },
        {
          "duration": 0.0789472499999988,
          "durationTicks": 96,
          "midi": 65,
          "name": "F4",
          "ticks": 74208,
          "time": 61.02622425,
          "velocity": 0.6771653543307087
        },
        {
          "duration": 0.0789472499999988,
          "durationTicks": 96,
          "midi": 53,
          "name": "F3",
          "ticks": 74304,
          "time": 61.1051715,
          "velocity": 0.6771653543307087
        },
        {
          "duration": 0.0789472499999988,
          "durationTicks": 96,
          "midi": 65,
          "name": "F4",
          "ticks": 74304,
          "time": 61.1051715,
          "velocity": 0.6771653543307087
        },
        {
          "duration": 0.0789472499999988,
          "durationTicks": 96,
          "midi": 53,
          "name": "F3",
          "ticks": 74400,
          "time": 61.184118749999996,
          "velocity": 0.6771653543307087
        },
        {
          "duration": 0.0789472499999988,
          "durationTicks": 96,
          "midi": 65,
          "name": "F4",
          "ticks": 74400,
          "time": 61.184118749999996,
          "velocity": 0.6771653543307087
        },
        {
          "duration": 0.07894725000000591,
          "durationTicks": 96,
          "midi": 53,
          "name": "F3",
          "ticks": 74496,
          "time": 61.263065999999995,
          "velocity": 0.6771653543307087
        },
        {
          "duration": 0.07894725000000591,
          "durationTicks": 96,
          "midi": 65,
          "name": "F4",
          "ticks": 74496,
          "time": 61.263065999999995,
          "velocity": 0.6771653543307087
        },
        {
          "duration": 0.0789472499999988,
          "durationTicks": 96,
          "midi": 53,
          "name": "F3",
          "ticks": 74592,
          "time": 61.34201325,
          "velocity": 0.6771653543307087
        },
        {
          "duration": 0.0789472499999988,
          "durationTicks": 96,
          "midi": 65,
          "name": "F4",
          "ticks": 74592,
          "time": 61.34201325,
          "velocity": 0.6771653543307087
        },
        {
          "duration": 0.0789472499999988,
          "durationTicks": 96,
          "midi": 53,
          "name": "F3",
          "ticks": 74688,
          "time": 61.4209605,
          "velocity": 0.6771653543307087
        },
        {
          "duration": 0.0789472499999988,
          "durationTicks": 96,
          "midi": 65,
          "name": "F4",
          "ticks": 74688,
          "time": 61.4209605,
          "velocity": 0.6771653543307087
        },
        {
          "duration": 0.0789472499999988,
          "durationTicks": 96,
          "midi": 65,
          "name": "F4",
          "ticks": 74784,
          "time": 61.49990775,
          "velocity": 0.6771653543307087
        },
        {
          "duration": 0.0789472499999988,
          "durationTicks": 96,
          "midi": 53,
          "name": "F3",
          "ticks": 74784,
          "time": 61.49990775,
          "velocity": 0.6771653543307087
        },
        {
          "duration": 0.0789472499999988,
          "durationTicks": 96,
          "midi": 53,
          "name": "F3",
          "ticks": 74880,
          "time": 61.578855,
          "velocity": 0.6771653543307087
        },
        {
          "duration": 0.0789472499999988,
          "durationTicks": 96,
          "midi": 65,
          "name": "F4",
          "ticks": 74880,
          "time": 61.578855,
          "velocity": 0.6771653543307087
        },
        {
          "duration": 0.0789472499999988,
          "durationTicks": 96,
          "midi": 53,
          "name": "F3",
          "ticks": 74976,
          "time": 61.657802249999996,
          "velocity": 0.6771653543307087
        },
        {
          "duration": 0.0789472499999988,
          "durationTicks": 96,
          "midi": 65,
          "name": "F4",
          "ticks": 74976,
          "time": 61.657802249999996,
          "velocity": 0.6771653543307087
        },
        {
          "duration": 0.07894725000000591,
          "durationTicks": 96,
          "midi": 65,
          "name": "F4",
          "ticks": 75072,
          "time": 61.736749499999995,
          "velocity": 0.6771653543307087
        },
        {
          "duration": 0.07894725000000591,
          "durationTicks": 96,
          "midi": 53,
          "name": "F3",
          "ticks": 75072,
          "time": 61.736749499999995,
          "velocity": 0.6771653543307087
        },
        {
          "duration": 0.0789472499999988,
          "durationTicks": 96,
          "midi": 53,
          "name": "F3",
          "ticks": 75168,
          "time": 61.81569675,
          "velocity": 0.6771653543307087
        },
        {
          "duration": 0.0789472499999988,
          "durationTicks": 96,
          "midi": 65,
          "name": "F4",
          "ticks": 75168,
          "time": 61.81569675,
          "velocity": 0.6771653543307087
        },
        {
          "duration": 0.0789472499999988,
          "durationTicks": 96,
          "midi": 53,
          "name": "F3",
          "ticks": 75264,
          "time": 61.894644,
          "velocity": 0.6771653543307087
        },
        {
          "duration": 0.0789472499999988,
          "durationTicks": 96,
          "midi": 65,
          "name": "F4",
          "ticks": 75264,
          "time": 61.894644,
          "velocity": 0.6771653543307087
        },
        {
          "duration": 0.0789472499999988,
          "durationTicks": 96,
          "midi": 65,
          "name": "F4",
          "ticks": 75360,
          "time": 61.97359125,
          "velocity": 0.6771653543307087
        },
        {
          "duration": 0.0789472499999988,
          "durationTicks": 96,
          "midi": 53,
          "name": "F3",
          "ticks": 75360,
          "time": 61.97359125,
          "velocity": 0.6771653543307087
        },
        {
          "duration": 0.0789472499999988,
          "durationTicks": 96,
          "midi": 53,
          "name": "F3",
          "ticks": 75456,
          "time": 62.0525385,
          "velocity": 0.6771653543307087
        },
        {
          "duration": 0.0789472499999988,
          "durationTicks": 96,
          "midi": 65,
          "name": "F4",
          "ticks": 75456,
          "time": 62.0525385,
          "velocity": 0.6771653543307087
        },
        {
          "duration": 0.0789472499999988,
          "durationTicks": 96,
          "midi": 65,
          "name": "F4",
          "ticks": 75552,
          "time": 62.131485749999996,
          "velocity": 0.6771653543307087
        },
        {
          "duration": 0.0789472499999988,
          "durationTicks": 96,
          "midi": 53,
          "name": "F3",
          "ticks": 75552,
          "time": 62.131485749999996,
          "velocity": 0.6771653543307087
        },
        {
          "duration": 0.07894725000000591,
          "durationTicks": 96,
          "midi": 53,
          "name": "F3",
          "ticks": 75648,
          "time": 62.210432999999995,
          "velocity": 0.6771653543307087
        },
        {
          "duration": 0.07894725000000591,
          "durationTicks": 96,
          "midi": 65,
          "name": "F4",
          "ticks": 75648,
          "time": 62.210432999999995,
          "velocity": 0.6771653543307087
        },
        {
          "duration": 0.0789472499999988,
          "durationTicks": 96,
          "midi": 53,
          "name": "F3",
          "ticks": 75744,
          "time": 62.28938025,
          "velocity": 0.6771653543307087
        },
        {
          "duration": 0.0789472499999988,
          "durationTicks": 96,
          "midi": 65,
          "name": "F4",
          "ticks": 75744,
          "time": 62.28938025,
          "velocity": 0.6771653543307087
        },
        {
          "duration": 0.0789472499999988,
          "durationTicks": 96,
          "midi": 65,
          "name": "F4",
          "ticks": 75840,
          "time": 62.3683275,
          "velocity": 0.6771653543307087
        },
        {
          "duration": 0.0789472499999988,
          "durationTicks": 96,
          "midi": 53,
          "name": "F3",
          "ticks": 75840,
          "time": 62.3683275,
          "velocity": 0.6771653543307087
        },
        {
          "duration": 0.0789472499999988,
          "durationTicks": 96,
          "midi": 65,
          "name": "F4",
          "ticks": 75936,
          "time": 62.44727475,
          "velocity": 0.6771653543307087
        },
        {
          "duration": 0.0789472499999988,
          "durationTicks": 96,
          "midi": 53,
          "name": "F3",
          "ticks": 75936,
          "time": 62.44727475,
          "velocity": 0.6771653543307087
        },
        {
          "duration": 0.0789472499999988,
          "durationTicks": 96,
          "midi": 55,
          "name": "G3",
          "ticks": 76032,
          "time": 62.526222,
          "velocity": 0.6771653543307087
        },
        {
          "duration": 0.0789472499999988,
          "durationTicks": 96,
          "midi": 67,
          "name": "G4",
          "ticks": 76032,
          "time": 62.526222,
          "velocity": 0.6771653543307087
        },
        {
          "duration": 0.0789472499999988,
          "durationTicks": 96,
          "midi": 55,
          "name": "G3",
          "ticks": 76128,
          "time": 62.605169249999996,
          "velocity": 0.6771653543307087
        },
        {
          "duration": 0.0789472499999988,
          "durationTicks": 96,
          "midi": 67,
          "name": "G4",
          "ticks": 76128,
          "time": 62.605169249999996,
          "velocity": 0.6771653543307087
        },
        {
          "duration": 0.07894725000000591,
          "durationTicks": 96,
          "midi": 55,
          "name": "G3",
          "ticks": 76224,
          "time": 62.684116499999995,
          "velocity": 0.6771653543307087
        },
        {
          "duration": 0.07894725000000591,
          "durationTicks": 96,
          "midi": 67,
          "name": "G4",
          "ticks": 76224,
          "time": 62.684116499999995,
          "velocity": 0.6771653543307087
        },
        {
          "duration": 0.0789472499999988,
          "durationTicks": 96,
          "midi": 67,
          "name": "G4",
          "ticks": 76320,
          "time": 62.76306375,
          "velocity": 0.6771653543307087
        },
        {
          "duration": 0.0789472499999988,
          "durationTicks": 96,
          "midi": 55,
          "name": "G3",
          "ticks": 76320,
          "time": 62.76306375,
          "velocity": 0.6771653543307087
        },
        {
          "duration": 0.0789472499999988,
          "durationTicks": 96,
          "midi": 55,
          "name": "G3",
          "ticks": 76416,
          "time": 62.842011,
          "velocity": 0.6771653543307087
        },
        {
          "duration": 0.0789472499999988,
          "durationTicks": 96,
          "midi": 67,
          "name": "G4",
          "ticks": 76416,
          "time": 62.842011,
          "velocity": 0.6771653543307087
        },
        {
          "duration": 0.0789472499999988,
          "durationTicks": 96,
          "midi": 67,
          "name": "G4",
          "ticks": 76512,
          "time": 62.92095825,
          "velocity": 0.6771653543307087
        },
        {
          "duration": 0.0789472499999988,
          "durationTicks": 96,
          "midi": 55,
          "name": "G3",
          "ticks": 76512,
          "time": 62.92095825,
          "velocity": 0.6771653543307087
        },
        {
          "duration": 0.0789472499999988,
          "durationTicks": 96,
          "midi": 55,
          "name": "G3",
          "ticks": 76608,
          "time": 62.9999055,
          "velocity": 0.6771653543307087
        },
        {
          "duration": 0.0789472499999988,
          "durationTicks": 96,
          "midi": 67,
          "name": "G4",
          "ticks": 76608,
          "time": 62.9999055,
          "velocity": 0.6771653543307087
        },
        {
          "duration": 0.0789472499999988,
          "durationTicks": 96,
          "midi": 67,
          "name": "G4",
          "ticks": 76704,
          "time": 63.078852749999996,
          "velocity": 0.6771653543307087
        },
        {
          "duration": 0.0789472499999988,
          "durationTicks": 96,
          "midi": 55,
          "name": "G3",
          "ticks": 76704,
          "time": 63.078852749999996,
          "velocity": 0.6771653543307087
        },
        {
          "duration": 0.07894725000000591,
          "durationTicks": 96,
          "midi": 68,
          "name": "G#4",
          "ticks": 76800,
          "time": 63.157799999999995,
          "velocity": 0.6771653543307087
        },
        {
          "duration": 0.07894725000000591,
          "durationTicks": 96,
          "midi": 56,
          "name": "G#3",
          "ticks": 76800,
          "time": 63.157799999999995,
          "velocity": 0.6771653543307087
        },
        {
          "duration": 0.0789472499999988,
          "durationTicks": 96,
          "midi": 68,
          "name": "G#4",
          "ticks": 76896,
          "time": 63.23674725,
          "velocity": 0.6771653543307087
        },
        {
          "duration": 0.0789472499999988,
          "durationTicks": 96,
          "midi": 56,
          "name": "G#3",
          "ticks": 76896,
          "time": 63.23674725,
          "velocity": 0.6771653543307087
        },
        {
          "duration": 0.0789472499999988,
          "durationTicks": 96,
          "midi": 68,
          "name": "G#4",
          "ticks": 76992,
          "time": 63.3156945,
          "velocity": 0.6771653543307087
        },
        {
          "duration": 0.0789472499999988,
          "durationTicks": 96,
          "midi": 56,
          "name": "G#3",
          "ticks": 76992,
          "time": 63.3156945,
          "velocity": 0.6771653543307087
        },
        {
          "duration": 0.0789472499999988,
          "durationTicks": 96,
          "midi": 68,
          "name": "G#4",
          "ticks": 77088,
          "time": 63.39464175,
          "velocity": 0.6771653543307087
        },
        {
          "duration": 0.0789472499999988,
          "durationTicks": 96,
          "midi": 56,
          "name": "G#3",
          "ticks": 77088,
          "time": 63.39464175,
          "velocity": 0.6771653543307087
        },
        {
          "duration": 0.0789472499999988,
          "durationTicks": 96,
          "midi": 68,
          "name": "G#4",
          "ticks": 77184,
          "time": 63.473589,
          "velocity": 0.6771653543307087
        },
        {
          "duration": 0.0789472499999988,
          "durationTicks": 96,
          "midi": 56,
          "name": "G#3",
          "ticks": 77184,
          "time": 63.473589,
          "velocity": 0.6771653543307087
        },
        {
          "duration": 0.0789472499999988,
          "durationTicks": 96,
          "midi": 68,
          "name": "G#4",
          "ticks": 77280,
          "time": 63.552536249999996,
          "velocity": 0.6771653543307087
        },
        {
          "duration": 0.0789472499999988,
          "durationTicks": 96,
          "midi": 56,
          "name": "G#3",
          "ticks": 77280,
          "time": 63.552536249999996,
          "velocity": 0.6771653543307087
        },
        {
          "duration": 0.07894725000000591,
          "durationTicks": 96,
          "midi": 68,
          "name": "G#4",
          "ticks": 77376,
          "time": 63.631483499999995,
          "velocity": 0.6771653543307087
        },
        {
          "duration": 0.07894725000000591,
          "durationTicks": 96,
          "midi": 56,
          "name": "G#3",
          "ticks": 77376,
          "time": 63.631483499999995,
          "velocity": 0.6771653543307087
        },
        {
          "duration": 0.0789472499999988,
          "durationTicks": 96,
          "midi": 56,
          "name": "G#3",
          "ticks": 77472,
          "time": 63.71043075,
          "velocity": 0.6771653543307087
        },
        {
          "duration": 0.0789472499999988,
          "durationTicks": 96,
          "midi": 68,
          "name": "G#4",
          "ticks": 77472,
          "time": 63.71043075,
          "velocity": 0.6771653543307087
        },
        {
          "duration": 0.0789472499999988,
          "durationTicks": 96,
          "midi": 56,
          "name": "G#3",
          "ticks": 77568,
          "time": 63.789378,
          "velocity": 0.6771653543307087
        },
        {
          "duration": 0.0789472499999988,
          "durationTicks": 96,
          "midi": 68,
          "name": "G#4",
          "ticks": 77568,
          "time": 63.789378,
          "velocity": 0.6771653543307087
        },
        {
          "duration": 0.0789472499999988,
          "durationTicks": 96,
          "midi": 68,
          "name": "G#4",
          "ticks": 77664,
          "time": 63.86832525,
          "velocity": 0.6771653543307087
        },
        {
          "duration": 0.0789472499999988,
          "durationTicks": 96,
          "midi": 56,
          "name": "G#3",
          "ticks": 77664,
          "time": 63.86832525,
          "velocity": 0.6771653543307087
        },
        {
          "duration": 0.0789472499999988,
          "durationTicks": 96,
          "midi": 56,
          "name": "G#3",
          "ticks": 77760,
          "time": 63.9472725,
          "velocity": 0.6771653543307087
        },
        {
          "duration": 0.0789472499999988,
          "durationTicks": 96,
          "midi": 68,
          "name": "G#4",
          "ticks": 77760,
          "time": 63.9472725,
          "velocity": 0.6771653543307087
        },
        {
          "duration": 0.0789472499999988,
          "durationTicks": 96,
          "midi": 68,
          "name": "G#4",
          "ticks": 77856,
          "time": 64.02621975,
          "velocity": 0.6771653543307087
        },
        {
          "duration": 0.0789472499999988,
          "durationTicks": 96,
          "midi": 56,
          "name": "G#3",
          "ticks": 77856,
          "time": 64.02621975,
          "velocity": 0.6771653543307087
        },
        {
          "duration": 0.0789472499999988,
          "durationTicks": 96,
          "midi": 68,
          "name": "G#4",
          "ticks": 77952,
          "time": 64.105167,
          "velocity": 0.6771653543307087
        },
        {
          "duration": 0.0789472499999988,
          "durationTicks": 96,
          "midi": 56,
          "name": "G#3",
          "ticks": 77952,
          "time": 64.105167,
          "velocity": 0.6771653543307087
        },
        {
          "duration": 0.0789472499999988,
          "durationTicks": 96,
          "midi": 56,
          "name": "G#3",
          "ticks": 78048,
          "time": 64.18411425,
          "velocity": 0.6771653543307087
        },
        {
          "duration": 0.0789472499999988,
          "durationTicks": 96,
          "midi": 68,
          "name": "G#4",
          "ticks": 78048,
          "time": 64.18411425,
          "velocity": 0.6771653543307087
        },
        {
          "duration": 0.0789472499999988,
          "durationTicks": 96,
          "midi": 56,
          "name": "G#3",
          "ticks": 78144,
          "time": 64.26306149999999,
          "velocity": 0.6771653543307087
        },
        {
          "duration": 0.0789472499999988,
          "durationTicks": 96,
          "midi": 68,
          "name": "G#4",
          "ticks": 78144,
          "time": 64.26306149999999,
          "velocity": 0.6771653543307087
        },
        {
          "duration": 0.07894725000001301,
          "durationTicks": 96,
          "midi": 68,
          "name": "G#4",
          "ticks": 78240,
          "time": 64.34200874999999,
          "velocity": 0.6771653543307087
        },
        {
          "duration": 0.07894725000001301,
          "durationTicks": 96,
          "midi": 56,
          "name": "G#3",
          "ticks": 78240,
          "time": 64.34200874999999,
          "velocity": 0.6771653543307087
        },
        {
          "duration": 0.0789472499999988,
          "durationTicks": 96,
          "midi": 48,
          "name": "C3",
          "ticks": 78336,
          "time": 64.420956,
          "velocity": 0.6771653543307087
        },
        {
          "duration": 0.0789472499999988,
          "durationTicks": 96,
          "midi": 60,
          "name": "C4",
          "ticks": 78336,
          "time": 64.420956,
          "velocity": 0.6771653543307087
        },
        {
          "duration": 0.0789472499999988,
          "durationTicks": 96,
          "midi": 60,
          "name": "C4",
          "ticks": 78432,
          "time": 64.49990325,
          "velocity": 0.6771653543307087
        },
        {
          "duration": 0.0789472499999988,
          "durationTicks": 96,
          "midi": 48,
          "name": "C3",
          "ticks": 78432,
          "time": 64.49990325,
          "velocity": 0.6771653543307087
        },
        {
          "duration": 0.0789472499999988,
          "durationTicks": 96,
          "midi": 48,
          "name": "C3",
          "ticks": 78528,
          "time": 64.5788505,
          "velocity": 0.6771653543307087
        },
        {
          "duration": 0.0789472499999988,
          "durationTicks": 96,
          "midi": 60,
          "name": "C4",
          "ticks": 78528,
          "time": 64.5788505,
          "velocity": 0.6771653543307087
        },
        {
          "duration": 0.0789472499999988,
          "durationTicks": 96,
          "midi": 48,
          "name": "C3",
          "ticks": 78624,
          "time": 64.65779775,
          "velocity": 0.6771653543307087
        },
        {
          "duration": 0.0789472499999988,
          "durationTicks": 96,
          "midi": 60,
          "name": "C4",
          "ticks": 78624,
          "time": 64.65779775,
          "velocity": 0.6771653543307087
        },
        {
          "duration": 0.0789472499999988,
          "durationTicks": 96,
          "midi": 60,
          "name": "C4",
          "ticks": 78720,
          "time": 64.736745,
          "velocity": 0.6771653543307087
        },
        {
          "duration": 0.0789472499999988,
          "durationTicks": 96,
          "midi": 48,
          "name": "C3",
          "ticks": 78720,
          "time": 64.736745,
          "velocity": 0.6771653543307087
        },
        {
          "duration": 0.0789472499999988,
          "durationTicks": 96,
          "midi": 48,
          "name": "C3",
          "ticks": 78816,
          "time": 64.81569225,
          "velocity": 0.6771653543307087
        },
        {
          "duration": 0.0789472499999988,
          "durationTicks": 96,
          "midi": 60,
          "name": "C4",
          "ticks": 78816,
          "time": 64.81569225,
          "velocity": 0.6771653543307087
        },
        {
          "duration": 0.0789472499999988,
          "durationTicks": 96,
          "midi": 60,
          "name": "C4",
          "ticks": 78912,
          "time": 64.8946395,
          "velocity": 0.6771653543307087
        },
        {
          "duration": 0.0789472499999988,
          "durationTicks": 96,
          "midi": 48,
          "name": "C3",
          "ticks": 78912,
          "time": 64.8946395,
          "velocity": 0.6771653543307087
        },
        {
          "duration": 0.0789472499999988,
          "durationTicks": 96,
          "midi": 60,
          "name": "C4",
          "ticks": 79008,
          "time": 64.97358675,
          "velocity": 0.6771653543307087
        },
        {
          "duration": 0.0789472499999988,
          "durationTicks": 96,
          "midi": 48,
          "name": "C3",
          "ticks": 79008,
          "time": 64.97358675,
          "velocity": 0.6771653543307087
        },
        {
          "duration": 0.0789472499999988,
          "durationTicks": 96,
          "midi": 48,
          "name": "C3",
          "ticks": 79104,
          "time": 65.052534,
          "velocity": 0.6771653543307087
        },
        {
          "duration": 0.0789472499999988,
          "durationTicks": 96,
          "midi": 60,
          "name": "C4",
          "ticks": 79104,
          "time": 65.052534,
          "velocity": 0.6771653543307087
        },
        {
          "duration": 0.0789472499999988,
          "durationTicks": 96,
          "midi": 60,
          "name": "C4",
          "ticks": 79200,
          "time": 65.13148125,
          "velocity": 0.6771653543307087
        },
        {
          "duration": 0.0789472499999988,
          "durationTicks": 96,
          "midi": 48,
          "name": "C3",
          "ticks": 79200,
          "time": 65.13148125,
          "velocity": 0.6771653543307087
        },
        {
          "duration": 0.0789472499999988,
          "durationTicks": 96,
          "midi": 60,
          "name": "C4",
          "ticks": 79296,
          "time": 65.21042849999999,
          "velocity": 0.6771653543307087
        },
        {
          "duration": 0.0789472499999988,
          "durationTicks": 96,
          "midi": 48,
          "name": "C3",
          "ticks": 79296,
          "time": 65.21042849999999,
          "velocity": 0.6771653543307087
        },
        {
          "duration": 0.07894725000001301,
          "durationTicks": 96,
          "midi": 60,
          "name": "C4",
          "ticks": 79392,
          "time": 65.28937574999999,
          "velocity": 0.6771653543307087
        },
        {
          "duration": 0.07894725000001301,
          "durationTicks": 96,
          "midi": 48,
          "name": "C3",
          "ticks": 79392,
          "time": 65.28937574999999,
          "velocity": 0.6771653543307087
        },
        {
          "duration": 0.0789472499999988,
          "durationTicks": 96,
          "midi": 60,
          "name": "C4",
          "ticks": 79488,
          "time": 65.368323,
          "velocity": 0.6771653543307087
        },
        {
          "duration": 0.0789472499999988,
          "durationTicks": 96,
          "midi": 48,
          "name": "C3",
          "ticks": 79488,
          "time": 65.368323,
          "velocity": 0.6771653543307087
        },
        {
          "duration": 0.0789472499999988,
          "durationTicks": 96,
          "midi": 60,
          "name": "C4",
          "ticks": 79584,
          "time": 65.44727025,
          "velocity": 0.6771653543307087
        },
        {
          "duration": 0.0789472499999988,
          "durationTicks": 96,
          "midi": 48,
          "name": "C3",
          "ticks": 79584,
          "time": 65.44727025,
          "velocity": 0.6771653543307087
        },
        {
          "duration": 0.0789472499999988,
          "durationTicks": 96,
          "midi": 60,
          "name": "C4",
          "ticks": 79680,
          "time": 65.5262175,
          "velocity": 0.6771653543307087
        },
        {
          "duration": 0.0789472499999988,
          "durationTicks": 96,
          "midi": 48,
          "name": "C3",
          "ticks": 79680,
          "time": 65.5262175,
          "velocity": 0.6771653543307087
        },
        {
          "duration": 0.0789472499999988,
          "durationTicks": 96,
          "midi": 48,
          "name": "C3",
          "ticks": 79776,
          "time": 65.60516475,
          "velocity": 0.6771653543307087
        },
        {
          "duration": 0.0789472499999988,
          "durationTicks": 96,
          "midi": 60,
          "name": "C4",
          "ticks": 79776,
          "time": 65.60516475,
          "velocity": 0.6771653543307087
        },
        {
          "duration": 0.0789472499999988,
          "durationTicks": 96,
          "midi": 65,
          "name": "F4",
          "ticks": 79872,
          "time": 65.684112,
          "velocity": 0.6771653543307087
        },
        {
          "duration": 0.0789472499999988,
          "durationTicks": 96,
          "midi": 77,
          "name": "F5",
          "ticks": 79872,
          "time": 65.684112,
          "velocity": 0.6771653543307087
        },
        {
          "duration": 0.0789472499999988,
          "durationTicks": 96,
          "midi": 65,
          "name": "F4",
          "ticks": 79968,
          "time": 65.76305925,
          "velocity": 0.6771653543307087
        },
        {
          "duration": 0.0789472499999988,
          "durationTicks": 96,
          "midi": 77,
          "name": "F5",
          "ticks": 79968,
          "time": 65.76305925,
          "velocity": 0.6771653543307087
        },
        {
          "duration": 0.0789472499999988,
          "durationTicks": 96,
          "midi": 77,
          "name": "F5",
          "ticks": 80064,
          "time": 65.8420065,
          "velocity": 0.6771653543307087
        },
        {
          "duration": 0.0789472499999988,
          "durationTicks": 96,
          "midi": 65,
          "name": "F4",
          "ticks": 80064,
          "time": 65.8420065,
          "velocity": 0.6771653543307087
        },
        {
          "duration": 0.0789472499999988,
          "durationTicks": 96,
          "midi": 77,
          "name": "F5",
          "ticks": 80160,
          "time": 65.92095375,
          "velocity": 0.6771653543307087
        },
        {
          "duration": 0.0789472499999988,
          "durationTicks": 96,
          "midi": 65,
          "name": "F4",
          "ticks": 80160,
          "time": 65.92095375,
          "velocity": 0.6771653543307087
        },
        {
          "duration": 0.0789472499999988,
          "durationTicks": 96,
          "midi": 65,
          "name": "F4",
          "ticks": 80256,
          "time": 65.999901,
          "velocity": 0.6771653543307087
        },
        {
          "duration": 0.0789472499999988,
          "durationTicks": 96,
          "midi": 77,
          "name": "F5",
          "ticks": 80256,
          "time": 65.999901,
          "velocity": 0.6771653543307087
        },
        {
          "duration": 0.0789472499999988,
          "durationTicks": 96,
          "midi": 65,
          "name": "F4",
          "ticks": 80352,
          "time": 66.07884825,
          "velocity": 0.6771653543307087
        },
        {
          "duration": 0.0789472499999988,
          "durationTicks": 96,
          "midi": 77,
          "name": "F5",
          "ticks": 80352,
          "time": 66.07884825,
          "velocity": 0.6771653543307087
        },
        {
          "duration": 0.0789472499999988,
          "durationTicks": 96,
          "midi": 77,
          "name": "F5",
          "ticks": 80448,
          "time": 66.15779549999999,
          "velocity": 0.6771653543307087
        },
        {
          "duration": 0.0789472499999988,
          "durationTicks": 96,
          "midi": 65,
          "name": "F4",
          "ticks": 80448,
          "time": 66.15779549999999,
          "velocity": 0.6771653543307087
        },
        {
          "duration": 0.07894725000001301,
          "durationTicks": 96,
          "midi": 77,
          "name": "F5",
          "ticks": 80544,
          "time": 66.23674274999999,
          "velocity": 0.6771653543307087
        },
        {
          "duration": 0.07894725000001301,
          "durationTicks": 96,
          "midi": 65,
          "name": "F4",
          "ticks": 80544,
          "time": 66.23674274999999,
          "velocity": 0.6771653543307087
        },
        {
          "duration": 0.0789472499999988,
          "durationTicks": 96,
          "midi": 65,
          "name": "F4",
          "ticks": 80640,
          "time": 66.31569,
          "velocity": 0.6771653543307087
        },
        {
          "duration": 0.0789472499999988,
          "durationTicks": 96,
          "midi": 77,
          "name": "F5",
          "ticks": 80640,
          "time": 66.31569,
          "velocity": 0.6771653543307087
        },
        {
          "duration": 0.0789472499999988,
          "durationTicks": 96,
          "midi": 65,
          "name": "F4",
          "ticks": 80736,
          "time": 66.39463725,
          "velocity": 0.6771653543307087
        },
        {
          "duration": 0.0789472499999988,
          "durationTicks": 96,
          "midi": 77,
          "name": "F5",
          "ticks": 80736,
          "time": 66.39463725,
          "velocity": 0.6771653543307087
        },
        {
          "duration": 0.0789472499999988,
          "durationTicks": 96,
          "midi": 65,
          "name": "F4",
          "ticks": 80832,
          "time": 66.4735845,
          "velocity": 0.6771653543307087
        },
        {
          "duration": 0.0789472499999988,
          "durationTicks": 96,
          "midi": 77,
          "name": "F5",
          "ticks": 80832,
          "time": 66.4735845,
          "velocity": 0.6771653543307087
        },
        {
          "duration": 0.0789472499999988,
          "durationTicks": 96,
          "midi": 65,
          "name": "F4",
          "ticks": 80928,
          "time": 66.55253175,
          "velocity": 0.6771653543307087
        },
        {
          "duration": 0.0789472499999988,
          "durationTicks": 96,
          "midi": 77,
          "name": "F5",
          "ticks": 80928,
          "time": 66.55253175,
          "velocity": 0.6771653543307087
        },
        {
          "duration": 0.0789472499999988,
          "durationTicks": 96,
          "midi": 77,
          "name": "F5",
          "ticks": 81024,
          "time": 66.631479,
          "velocity": 0.6771653543307087
        },
        {
          "duration": 0.0789472499999988,
          "durationTicks": 96,
          "midi": 65,
          "name": "F4",
          "ticks": 81024,
          "time": 66.631479,
          "velocity": 0.6771653543307087
        },
        {
          "duration": 0.0789472499999988,
          "durationTicks": 96,
          "midi": 65,
          "name": "F4",
          "ticks": 81120,
          "time": 66.71042625,
          "velocity": 0.6771653543307087
        },
        {
          "duration": 0.0789472499999988,
          "durationTicks": 96,
          "midi": 77,
          "name": "F5",
          "ticks": 81120,
          "time": 66.71042625,
          "velocity": 0.6771653543307087
        },
        {
          "duration": 0.0789472499999988,
          "durationTicks": 96,
          "midi": 77,
          "name": "F5",
          "ticks": 81216,
          "time": 66.7893735,
          "velocity": 0.6771653543307087
        },
        {
          "duration": 0.0789472499999988,
          "durationTicks": 96,
          "midi": 65,
          "name": "F4",
          "ticks": 81216,
          "time": 66.7893735,
          "velocity": 0.6771653543307087
        },
        {
          "duration": 0.0789472499999988,
          "durationTicks": 96,
          "midi": 77,
          "name": "F5",
          "ticks": 81312,
          "time": 66.86832075,
          "velocity": 0.6771653543307087
        },
        {
          "duration": 0.0789472499999988,
          "durationTicks": 96,
          "midi": 65,
          "name": "F4",
          "ticks": 81312,
          "time": 66.86832075,
          "velocity": 0.6771653543307087
        },
        {
          "duration": 0.0789472499999988,
          "durationTicks": 96,
          "midi": 65,
          "name": "F4",
          "ticks": 81408,
          "time": 66.947268,
          "velocity": 0.6771653543307087
        },
        {
          "duration": 0.0789472499999988,
          "durationTicks": 96,
          "midi": 77,
          "name": "F5",
          "ticks": 81408,
          "time": 66.947268,
          "velocity": 0.6771653543307087
        },
        {
          "duration": 0.0789472499999988,
          "durationTicks": 96,
          "midi": 77,
          "name": "F5",
          "ticks": 81504,
          "time": 67.02621524999999,
          "velocity": 0.6771653543307087
        },
        {
          "duration": 0.0789472499999988,
          "durationTicks": 96,
          "midi": 65,
          "name": "F4",
          "ticks": 81504,
          "time": 67.02621524999999,
          "velocity": 0.6771653543307087
        },
        {
          "duration": 0.0789472499999988,
          "durationTicks": 96,
          "midi": 77,
          "name": "F5",
          "ticks": 81600,
          "time": 67.10516249999999,
          "velocity": 0.6771653543307087
        },
        {
          "duration": 0.0789472499999988,
          "durationTicks": 96,
          "midi": 65,
          "name": "F4",
          "ticks": 81600,
          "time": 67.10516249999999,
          "velocity": 0.6771653543307087
        },
        {
          "duration": 0.07894725000001301,
          "durationTicks": 96,
          "midi": 77,
          "name": "F5",
          "ticks": 81696,
          "time": 67.18410974999999,
          "velocity": 0.6771653543307087
        },
        {
          "duration": 0.07894725000001301,
          "durationTicks": 96,
          "midi": 65,
          "name": "F4",
          "ticks": 81696,
          "time": 67.18410974999999,
          "velocity": 0.6771653543307087
        },
        {
          "duration": 0.0789472499999988,
          "durationTicks": 96,
          "midi": 77,
          "name": "F5",
          "ticks": 81792,
          "time": 67.263057,
          "velocity": 0.6771653543307087
        },
        {
          "duration": 0.0789472499999988,
          "durationTicks": 96,
          "midi": 65,
          "name": "F4",
          "ticks": 81792,
          "time": 67.263057,
          "velocity": 0.6771653543307087
        },
        {
          "duration": 0.0789472499999988,
          "durationTicks": 96,
          "midi": 77,
          "name": "F5",
          "ticks": 81888,
          "time": 67.34200425,
          "velocity": 0.6771653543307087
        },
        {
          "duration": 0.0789472499999988,
          "durationTicks": 96,
          "midi": 65,
          "name": "F4",
          "ticks": 81888,
          "time": 67.34200425,
          "velocity": 0.6771653543307087
        },
        {
          "duration": 0.0789472499999988,
          "durationTicks": 96,
          "midi": 77,
          "name": "F5",
          "ticks": 81984,
          "time": 67.4209515,
          "velocity": 0.6771653543307087
        },
        {
          "duration": 0.0789472499999988,
          "durationTicks": 96,
          "midi": 65,
          "name": "F4",
          "ticks": 81984,
          "time": 67.4209515,
          "velocity": 0.6771653543307087
        },
        {
          "duration": 0.0789472499999988,
          "durationTicks": 96,
          "midi": 65,
          "name": "F4",
          "ticks": 82080,
          "time": 67.49989875,
          "velocity": 0.6771653543307087
        },
        {
          "duration": 0.0789472499999988,
          "durationTicks": 96,
          "midi": 77,
          "name": "F5",
          "ticks": 82080,
          "time": 67.49989875,
          "velocity": 0.6771653543307087
        },
        {
          "duration": 0.0789472499999988,
          "durationTicks": 96,
          "midi": 67,
          "name": "G4",
          "ticks": 82176,
          "time": 67.578846,
          "velocity": 0.6771653543307087
        },
        {
          "duration": 0.0789472499999988,
          "durationTicks": 96,
          "midi": 55,
          "name": "G3",
          "ticks": 82176,
          "time": 67.578846,
          "velocity": 0.6771653543307087
        },
        {
          "duration": 0.0789472499999988,
          "durationTicks": 96,
          "midi": 67,
          "name": "G4",
          "ticks": 82272,
          "time": 67.65779325,
          "velocity": 0.6771653543307087
        },
        {
          "duration": 0.0789472499999988,
          "durationTicks": 96,
          "midi": 55,
          "name": "G3",
          "ticks": 82272,
          "time": 67.65779325,
          "velocity": 0.6771653543307087
        },
        {
          "duration": 0.0789472499999988,
          "durationTicks": 96,
          "midi": 67,
          "name": "G4",
          "ticks": 82368,
          "time": 67.7367405,
          "velocity": 0.6771653543307087
        },
        {
          "duration": 0.0789472499999988,
          "durationTicks": 96,
          "midi": 55,
          "name": "G3",
          "ticks": 82368,
          "time": 67.7367405,
          "velocity": 0.6771653543307087
        },
        {
          "duration": 0.0789472499999988,
          "durationTicks": 96,
          "midi": 67,
          "name": "G4",
          "ticks": 82464,
          "time": 67.81568775,
          "velocity": 0.6771653543307087
        },
        {
          "duration": 0.0789472499999988,
          "durationTicks": 96,
          "midi": 55,
          "name": "G3",
          "ticks": 82464,
          "time": 67.81568775,
          "velocity": 0.6771653543307087
        },
        {
          "duration": 0.0789472499999988,
          "durationTicks": 96,
          "midi": 55,
          "name": "G3",
          "ticks": 82560,
          "time": 67.894635,
          "velocity": 0.6771653543307087
        },
        {
          "duration": 0.0789472499999988,
          "durationTicks": 96,
          "midi": 67,
          "name": "G4",
          "ticks": 82560,
          "time": 67.894635,
          "velocity": 0.6771653543307087
        },
        {
          "duration": 0.0789472499999988,
          "durationTicks": 96,
          "midi": 55,
          "name": "G3",
          "ticks": 82656,
          "time": 67.97358224999999,
          "velocity": 0.6771653543307087
        },
        {
          "duration": 0.0789472499999988,
          "durationTicks": 96,
          "midi": 67,
          "name": "G4",
          "ticks": 82656,
          "time": 67.97358224999999,
          "velocity": 0.6771653543307087
        },
        {
          "duration": 0.0789472499999988,
          "durationTicks": 96,
          "midi": 55,
          "name": "G3",
          "ticks": 82752,
          "time": 68.05252949999999,
          "velocity": 0.6771653543307087
        },
        {
          "duration": 0.0789472499999988,
          "durationTicks": 96,
          "midi": 67,
          "name": "G4",
          "ticks": 82752,
          "time": 68.05252949999999,
          "velocity": 0.6771653543307087
        },
        {
          "duration": 0.07894725000001301,
          "durationTicks": 96,
          "midi": 55,
          "name": "G3",
          "ticks": 82848,
          "time": 68.13147674999999,
          "velocity": 0.6771653543307087
        },
        {
          "duration": 0.07894725000001301,
          "durationTicks": 96,
          "midi": 67,
          "name": "G4",
          "ticks": 82848,
          "time": 68.13147674999999,
          "velocity": 0.6771653543307087
        },
        {
          "duration": 0.0789472499999988,
          "durationTicks": 96,
          "midi": 65,
          "name": "F4",
          "ticks": 82944,
          "time": 68.210424,
          "velocity": 0.6771653543307087
        },
        {
          "duration": 0.0789472499999988,
          "durationTicks": 96,
          "midi": 53,
          "name": "F3",
          "ticks": 82944,
          "time": 68.210424,
          "velocity": 0.6771653543307087
        },
        {
          "duration": 0.0789472499999988,
          "durationTicks": 96,
          "midi": 65,
          "name": "F4",
          "ticks": 83040,
          "time": 68.28937125,
          "velocity": 0.6771653543307087
        },
        {
          "duration": 0.0789472499999988,
          "durationTicks": 96,
          "midi": 53,
          "name": "F3",
          "ticks": 83040,
          "time": 68.28937125,
          "velocity": 0.6771653543307087
        },
        {
          "duration": 0.0789472499999988,
          "durationTicks": 96,
          "midi": 65,
          "name": "F4",
          "ticks": 83136,
          "time": 68.3683185,
          "velocity": 0.6771653543307087
        },
        {
          "duration": 0.0789472499999988,
          "durationTicks": 96,
          "midi": 53,
          "name": "F3",
          "ticks": 83136,
          "time": 68.3683185,
          "velocity": 0.6771653543307087
        },
        {
          "duration": 0.0789472499999988,
          "durationTicks": 96,
          "midi": 65,
          "name": "F4",
          "ticks": 83232,
          "time": 68.44726575,
          "velocity": 0.6771653543307087
        },
        {
          "duration": 0.0789472499999988,
          "durationTicks": 96,
          "midi": 53,
          "name": "F3",
          "ticks": 83232,
          "time": 68.44726575,
          "velocity": 0.6771653543307087
        },
        {
          "duration": 0.0789472499999988,
          "durationTicks": 96,
          "midi": 65,
          "name": "F4",
          "ticks": 83328,
          "time": 68.526213,
          "velocity": 0.6771653543307087
        },
        {
          "duration": 0.0789472499999988,
          "durationTicks": 96,
          "midi": 53,
          "name": "F3",
          "ticks": 83328,
          "time": 68.526213,
          "velocity": 0.6771653543307087
        },
        {
          "duration": 0.0789472499999988,
          "durationTicks": 96,
          "midi": 53,
          "name": "F3",
          "ticks": 83424,
          "time": 68.60516025,
          "velocity": 0.6771653543307087
        },
        {
          "duration": 0.0789472499999988,
          "durationTicks": 96,
          "midi": 65,
          "name": "F4",
          "ticks": 83424,
          "time": 68.60516025,
          "velocity": 0.6771653543307087
        },
        {
          "duration": 0.0789472499999988,
          "durationTicks": 96,
          "midi": 53,
          "name": "F3",
          "ticks": 83520,
          "time": 68.6841075,
          "velocity": 0.6771653543307087
        },
        {
          "duration": 0.0789472499999988,
          "durationTicks": 96,
          "midi": 65,
          "name": "F4",
          "ticks": 83520,
          "time": 68.6841075,
          "velocity": 0.6771653543307087
        },
        {
          "duration": 0.0789472499999988,
          "durationTicks": 96,
          "midi": 53,
          "name": "F3",
          "ticks": 83616,
          "time": 68.76305475,
          "velocity": 0.6771653543307087
        },
        {
          "duration": 0.0789472499999988,
          "durationTicks": 96,
          "midi": 65,
          "name": "F4",
          "ticks": 83616,
          "time": 68.76305475,
          "velocity": 0.6771653543307087
        },
        {
          "duration": 0.0789472499999988,
          "durationTicks": 96,
          "midi": 53,
          "name": "F3",
          "ticks": 83712,
          "time": 68.842002,
          "velocity": 0.6771653543307087
        },
        {
          "duration": 0.0789472499999988,
          "durationTicks": 96,
          "midi": 65,
          "name": "F4",
          "ticks": 83712,
          "time": 68.842002,
          "velocity": 0.6771653543307087
        },
        {
          "duration": 0.0789472499999988,
          "durationTicks": 96,
          "midi": 53,
          "name": "F3",
          "ticks": 83808,
          "time": 68.92094924999999,
          "velocity": 0.6771653543307087
        },
        {
          "duration": 0.0789472499999988,
          "durationTicks": 96,
          "midi": 65,
          "name": "F4",
          "ticks": 83808,
          "time": 68.92094924999999,
          "velocity": 0.6771653543307087
        },
        {
          "duration": 0.0789472499999988,
          "durationTicks": 96,
          "midi": 53,
          "name": "F3",
          "ticks": 83904,
          "time": 68.99989649999999,
          "velocity": 0.6771653543307087
        },
        {
          "duration": 0.0789472499999988,
          "durationTicks": 96,
          "midi": 65,
          "name": "F4",
          "ticks": 83904,
          "time": 68.99989649999999,
          "velocity": 0.6771653543307087
        },
        {
          "duration": 0.07894725000001301,
          "durationTicks": 96,
          "midi": 53,
          "name": "F3",
          "ticks": 84000,
          "time": 69.07884374999999,
          "velocity": 0.6771653543307087
        },
        {
          "duration": 0.07894725000001301,
          "durationTicks": 96,
          "midi": 65,
          "name": "F4",
          "ticks": 84000,
          "time": 69.07884374999999,
          "velocity": 0.6771653543307087
        },
        {
          "duration": 0.0789472499999988,
          "durationTicks": 96,
          "midi": 53,
          "name": "F3",
          "ticks": 84096,
          "time": 69.157791,
          "velocity": 0.6771653543307087
        },
        {
          "duration": 0.0789472499999988,
          "durationTicks": 96,
          "midi": 65,
          "name": "F4",
          "ticks": 84096,
          "time": 69.157791,
          "velocity": 0.6771653543307087
        },
        {
          "duration": 0.0789472499999988,
          "durationTicks": 96,
          "midi": 53,
          "name": "F3",
          "ticks": 84192,
          "time": 69.23673825,
          "velocity": 0.6771653543307087
        },
        {
          "duration": 0.0789472499999988,
          "durationTicks": 96,
          "midi": 65,
          "name": "F4",
          "ticks": 84192,
          "time": 69.23673825,
          "velocity": 0.6771653543307087
        },
        {
          "duration": 0.0789472499999988,
          "durationTicks": 96,
          "midi": 65,
          "name": "F4",
          "ticks": 84288,
          "time": 69.3156855,
          "velocity": 0.6771653543307087
        },
        {
          "duration": 0.0789472499999988,
          "durationTicks": 96,
          "midi": 53,
          "name": "F3",
          "ticks": 84288,
          "time": 69.3156855,
          "velocity": 0.6771653543307087
        },
        {
          "duration": 0.0789472499999988,
          "durationTicks": 96,
          "midi": 53,
          "name": "F3",
          "ticks": 84384,
          "time": 69.39463275,
          "velocity": 0.6771653543307087
        },
        {
          "duration": 0.0789472499999988,
          "durationTicks": 96,
          "midi": 65,
          "name": "F4",
          "ticks": 84384,
          "time": 69.39463275,
          "velocity": 0.6771653543307087
        },
        {
          "duration": 0.0789472499999988,
          "durationTicks": 96,
          "midi": 64,
          "name": "E4",
          "ticks": 84480,
          "time": 69.47358,
          "velocity": 0.6771653543307087
        },
        {
          "duration": 0.0789472499999988,
          "durationTicks": 96,
          "midi": 52,
          "name": "E3",
          "ticks": 84480,
          "time": 69.47358,
          "velocity": 0.6771653543307087
        },
        {
          "duration": 0.0789472499999988,
          "durationTicks": 96,
          "midi": 52,
          "name": "E3",
          "ticks": 84576,
          "time": 69.55252725,
          "velocity": 0.6771653543307087
        },
        {
          "duration": 0.0789472499999988,
          "durationTicks": 96,
          "midi": 64,
          "name": "E4",
          "ticks": 84576,
          "time": 69.55252725,
          "velocity": 0.6771653543307087
        },
        {
          "duration": 0.0789472499999988,
          "durationTicks": 96,
          "midi": 64,
          "name": "E4",
          "ticks": 84672,
          "time": 69.6314745,
          "velocity": 0.6771653543307087
        },
        {
          "duration": 0.0789472499999988,
          "durationTicks": 96,
          "midi": 52,
          "name": "E3",
          "ticks": 84672,
          "time": 69.6314745,
          "velocity": 0.6771653543307087
        },
        {
          "duration": 0.0789472499999988,
          "durationTicks": 96,
          "midi": 64,
          "name": "E4",
          "ticks": 84768,
          "time": 69.71042175,
          "velocity": 0.6771653543307087
        },
        {
          "duration": 0.0789472499999988,
          "durationTicks": 96,
          "midi": 52,
          "name": "E3",
          "ticks": 84768,
          "time": 69.71042175,
          "velocity": 0.6771653543307087
        },
        {
          "duration": 0.0789472499999988,
          "durationTicks": 96,
          "midi": 64,
          "name": "E4",
          "ticks": 84864,
          "time": 69.789369,
          "velocity": 0.6771653543307087
        },
        {
          "duration": 0.0789472499999988,
          "durationTicks": 96,
          "midi": 52,
          "name": "E3",
          "ticks": 84864,
          "time": 69.789369,
          "velocity": 0.6771653543307087
        },
        {
          "duration": 0.0789472499999988,
          "durationTicks": 96,
          "midi": 52,
          "name": "E3",
          "ticks": 84960,
          "time": 69.86831624999999,
          "velocity": 0.6771653543307087
        },
        {
          "duration": 0.0789472499999988,
          "durationTicks": 96,
          "midi": 64,
          "name": "E4",
          "ticks": 84960,
          "time": 69.86831624999999,
          "velocity": 0.6771653543307087
        },
        {
          "duration": 0.0789472499999988,
          "durationTicks": 96,
          "midi": 64,
          "name": "E4",
          "ticks": 85056,
          "time": 69.94726349999999,
          "velocity": 0.6771653543307087
        },
        {
          "duration": 0.0789472499999988,
          "durationTicks": 96,
          "midi": 52,
          "name": "E3",
          "ticks": 85056,
          "time": 69.94726349999999,
          "velocity": 0.6771653543307087
        },
        {
          "duration": 0.07894725000001301,
          "durationTicks": 96,
          "midi": 64,
          "name": "E4",
          "ticks": 85152,
          "time": 70.02621074999999,
          "velocity": 0.6771653543307087
        },
        {
          "duration": 0.07894725000001301,
          "durationTicks": 96,
          "midi": 52,
          "name": "E3",
          "ticks": 85152,
          "time": 70.02621074999999,
          "velocity": 0.6771653543307087
        },
        {
          "duration": 0.0789472499999988,
          "durationTicks": 96,
          "midi": 67,
          "name": "G4",
          "ticks": 85248,
          "time": 70.105158,
          "velocity": 0.6771653543307087
        },
        {
          "duration": 0.0789472499999988,
          "durationTicks": 96,
          "midi": 55,
          "name": "G3",
          "ticks": 85248,
          "time": 70.105158,
          "velocity": 0.6771653543307087
        },
        {
          "duration": 0.0789472499999988,
          "durationTicks": 96,
          "midi": 67,
          "name": "G4",
          "ticks": 85344,
          "time": 70.18410525,
          "velocity": 0.6771653543307087
        },
        {
          "duration": 0.0789472499999988,
          "durationTicks": 96,
          "midi": 55,
          "name": "G3",
          "ticks": 85344,
          "time": 70.18410525,
          "velocity": 0.6771653543307087
        },
        {
          "duration": 0.0789472499999988,
          "durationTicks": 96,
          "midi": 55,
          "name": "G3",
          "ticks": 85440,
          "time": 70.2630525,
          "velocity": 0.6771653543307087
        },
        {
          "duration": 0.0789472499999988,
          "durationTicks": 96,
          "midi": 67,
          "name": "G4",
          "ticks": 85440,
          "time": 70.2630525,
          "velocity": 0.6771653543307087
        },
        {
          "duration": 0.0789472499999988,
          "durationTicks": 96,
          "midi": 67,
          "name": "G4",
          "ticks": 85536,
          "time": 70.34199975,
          "velocity": 0.6771653543307087
        },
        {
          "duration": 0.0789472499999988,
          "durationTicks": 96,
          "midi": 55,
          "name": "G3",
          "ticks": 85536,
          "time": 70.34199975,
          "velocity": 0.6771653543307087
        },
        {
          "duration": 0.0789472499999988,
          "durationTicks": 96,
          "midi": 55,
          "name": "G3",
          "ticks": 85632,
          "time": 70.420947,
          "velocity": 0.6771653543307087
        },
        {
          "duration": 0.0789472499999988,
          "durationTicks": 96,
          "midi": 67,
          "name": "G4",
          "ticks": 85632,
          "time": 70.420947,
          "velocity": 0.6771653543307087
        },
        {
          "duration": 0.0789472499999988,
          "durationTicks": 96,
          "midi": 55,
          "name": "G3",
          "ticks": 85728,
          "time": 70.49989425,
          "velocity": 0.6771653543307087
        },
        {
          "duration": 0.0789472499999988,
          "durationTicks": 96,
          "midi": 67,
          "name": "G4",
          "ticks": 85728,
          "time": 70.49989425,
          "velocity": 0.6771653543307087
        },
        {
          "duration": 0.0789472499999988,
          "durationTicks": 96,
          "midi": 67,
          "name": "G4",
          "ticks": 85824,
          "time": 70.5788415,
          "velocity": 0.6771653543307087
        },
        {
          "duration": 0.0789472499999988,
          "durationTicks": 96,
          "midi": 55,
          "name": "G3",
          "ticks": 85824,
          "time": 70.5788415,
          "velocity": 0.6771653543307087
        },
        {
          "duration": 0.0789472499999988,
          "durationTicks": 96,
          "midi": 67,
          "name": "G4",
          "ticks": 85920,
          "time": 70.65778875,
          "velocity": 0.6771653543307087
        },
        {
          "duration": 0.0789472499999988,
          "durationTicks": 96,
          "midi": 55,
          "name": "G3",
          "ticks": 85920,
          "time": 70.65778875,
          "velocity": 0.6771653543307087
        },
        {
          "duration": 0.0789472499999988,
          "durationTicks": 96,
          "midi": 65,
          "name": "F4",
          "ticks": 86016,
          "time": 70.736736,
          "velocity": 0.6771653543307087
        },
        {
          "duration": 0.0789472499999988,
          "durationTicks": 96,
          "midi": 53,
          "name": "F3",
          "ticks": 86016,
          "time": 70.736736,
          "velocity": 0.6771653543307087
        },
        {
          "duration": 0.0789472499999988,
          "durationTicks": 96,
          "midi": 53,
          "name": "F3",
          "ticks": 86112,
          "time": 70.81568324999999,
          "velocity": 0.6771653543307087
        },
        {
          "duration": 0.0789472499999988,
          "durationTicks": 96,
          "midi": 65,
          "name": "F4",
          "ticks": 86112,
          "time": 70.81568324999999,
          "velocity": 0.6771653543307087
        },
        {
          "duration": 0.07894725000001301,
          "durationTicks": 96,
          "midi": 53,
          "name": "F3",
          "ticks": 86208,
          "time": 70.89463049999999,
          "velocity": 0.6771653543307087
        },
        {
          "duration": 0.07894725000001301,
          "durationTicks": 96,
          "midi": 65,
          "name": "F4",
          "ticks": 86208,
          "time": 70.89463049999999,
          "velocity": 0.6771653543307087
        },
        {
          "duration": 0.0789472499999988,
          "durationTicks": 96,
          "midi": 53,
          "name": "F3",
          "ticks": 86304,
          "time": 70.97357775,
          "velocity": 0.6771653543307087
        },
        {
          "duration": 0.0789472499999988,
          "durationTicks": 96,
          "midi": 65,
          "name": "F4",
          "ticks": 86304,
          "time": 70.97357775,
          "velocity": 0.6771653543307087
        },
        {
          "duration": 0.0789472499999988,
          "durationTicks": 96,
          "midi": 65,
          "name": "F4",
          "ticks": 86400,
          "time": 71.052525,
          "velocity": 0.6771653543307087
        },
        {
          "duration": 0.0789472499999988,
          "durationTicks": 96,
          "midi": 53,
          "name": "F3",
          "ticks": 86400,
          "time": 71.052525,
          "velocity": 0.6771653543307087
        },
        {
          "duration": 0.0789472499999988,
          "durationTicks": 96,
          "midi": 53,
          "name": "F3",
          "ticks": 86496,
          "time": 71.13147225,
          "velocity": 0.6771653543307087
        },
        {
          "duration": 0.0789472499999988,
          "durationTicks": 96,
          "midi": 65,
          "name": "F4",
          "ticks": 86496,
          "time": 71.13147225,
          "velocity": 0.6771653543307087
        },
        {
          "duration": 0.0789472499999988,
          "durationTicks": 96,
          "midi": 53,
          "name": "F3",
          "ticks": 86592,
          "time": 71.2104195,
          "velocity": 0.6771653543307087
        },
        {
          "duration": 0.0789472499999988,
          "durationTicks": 96,
          "midi": 65,
          "name": "F4",
          "ticks": 86592,
          "time": 71.2104195,
          "velocity": 0.6771653543307087
        },
        {
          "duration": 0.0789472499999988,
          "durationTicks": 96,
          "midi": 65,
          "name": "F4",
          "ticks": 86688,
          "time": 71.28936675,
          "velocity": 0.6771653543307087
        },
        {
          "duration": 0.0789472499999988,
          "durationTicks": 96,
          "midi": 53,
          "name": "F3",
          "ticks": 86688,
          "time": 71.28936675,
          "velocity": 0.6771653543307087
        },
        {
          "duration": 0.0789472499999988,
          "durationTicks": 96,
          "midi": 53,
          "name": "F3",
          "ticks": 86784,
          "time": 71.368314,
          "velocity": 0.6771653543307087
        },
        {
          "duration": 0.0789472499999988,
          "durationTicks": 96,
          "midi": 65,
          "name": "F4",
          "ticks": 86784,
          "time": 71.368314,
          "velocity": 0.6771653543307087
        },
        {
          "duration": 0.0789472499999988,
          "durationTicks": 96,
          "midi": 65,
          "name": "F4",
          "ticks": 86880,
          "time": 71.44726125,
          "velocity": 0.6771653543307087
        },
        {
          "duration": 0.0789472499999988,
          "durationTicks": 96,
          "midi": 53,
          "name": "F3",
          "ticks": 86880,
          "time": 71.44726125,
          "velocity": 0.6771653543307087
        },
        {
          "duration": 0.0789472499999988,
          "durationTicks": 96,
          "midi": 53,
          "name": "F3",
          "ticks": 86976,
          "time": 71.5262085,
          "velocity": 0.6771653543307087
        },
        {
          "duration": 0.0789472499999988,
          "durationTicks": 96,
          "midi": 65,
          "name": "F4",
          "ticks": 86976,
          "time": 71.5262085,
          "velocity": 0.6771653543307087
        },
        {
          "duration": 0.0789472499999988,
          "durationTicks": 96,
          "midi": 53,
          "name": "F3",
          "ticks": 87072,
          "time": 71.60515575,
          "velocity": 0.6771653543307087
        },
        {
          "duration": 0.0789472499999988,
          "durationTicks": 96,
          "midi": 65,
          "name": "F4",
          "ticks": 87072,
          "time": 71.60515575,
          "velocity": 0.6771653543307087
        },
        {
          "duration": 0.0789472499999988,
          "durationTicks": 96,
          "midi": 65,
          "name": "F4",
          "ticks": 87168,
          "time": 71.684103,
          "velocity": 0.6771653543307087
        },
        {
          "duration": 0.0789472499999988,
          "durationTicks": 96,
          "midi": 53,
          "name": "F3",
          "ticks": 87168,
          "time": 71.684103,
          "velocity": 0.6771653543307087
        },
        {
          "duration": 0.0789472499999988,
          "durationTicks": 96,
          "midi": 53,
          "name": "F3",
          "ticks": 87264,
          "time": 71.76305024999999,
          "velocity": 0.6771653543307087
        },
        {
          "duration": 0.0789472499999988,
          "durationTicks": 96,
          "midi": 65,
          "name": "F4",
          "ticks": 87264,
          "time": 71.76305024999999,
          "velocity": 0.6771653543307087
        },
        {
          "duration": 0.07894725000001301,
          "durationTicks": 96,
          "midi": 53,
          "name": "F3",
          "ticks": 87360,
          "time": 71.84199749999999,
          "velocity": 0.6771653543307087
        },
        {
          "duration": 0.07894725000001301,
          "durationTicks": 96,
          "midi": 65,
          "name": "F4",
          "ticks": 87360,
          "time": 71.84199749999999,
          "velocity": 0.6771653543307087
        },
        {
          "duration": 0.0789472499999988,
          "durationTicks": 96,
          "midi": 53,
          "name": "F3",
          "ticks": 87456,
          "time": 71.92094475,
          "velocity": 0.6771653543307087
        },
        {
          "duration": 0.0789472499999988,
          "durationTicks": 96,
          "midi": 65,
          "name": "F4",
          "ticks": 87456,
          "time": 71.92094475,
          "velocity": 0.6771653543307087
        },
        {
          "duration": 0.0789472499999988,
          "durationTicks": 96,
          "midi": 65,
          "name": "F4",
          "ticks": 87552,
          "time": 71.999892,
          "velocity": 0.6771653543307087
        },
        {
          "duration": 0.0789472499999988,
          "durationTicks": 96,
          "midi": 53,
          "name": "F3",
          "ticks": 87552,
          "time": 71.999892,
          "velocity": 0.6771653543307087
        },
        {
          "duration": 0.0789472499999988,
          "durationTicks": 96,
          "midi": 53,
          "name": "F3",
          "ticks": 87648,
          "time": 72.07883925,
          "velocity": 0.6771653543307087
        },
        {
          "duration": 0.0789472499999988,
          "durationTicks": 96,
          "midi": 65,
          "name": "F4",
          "ticks": 87648,
          "time": 72.07883925,
          "velocity": 0.6771653543307087
        },
        {
          "duration": 0.0789472499999988,
          "durationTicks": 96,
          "midi": 65,
          "name": "F4",
          "ticks": 87744,
          "time": 72.1577865,
          "velocity": 0.6771653543307087
        },
        {
          "duration": 0.0789472499999988,
          "durationTicks": 96,
          "midi": 53,
          "name": "F3",
          "ticks": 87744,
          "time": 72.1577865,
          "velocity": 0.6771653543307087
        },
        {
          "duration": 0.0789472499999988,
          "durationTicks": 96,
          "midi": 53,
          "name": "F3",
          "ticks": 87840,
          "time": 72.23673375,
          "velocity": 0.6771653543307087
        },
        {
          "duration": 0.0789472499999988,
          "durationTicks": 96,
          "midi": 65,
          "name": "F4",
          "ticks": 87840,
          "time": 72.23673375,
          "velocity": 0.6771653543307087
        },
        {
          "duration": 0.0789472499999988,
          "durationTicks": 96,
          "midi": 53,
          "name": "F3",
          "ticks": 87936,
          "time": 72.315681,
          "velocity": 0.6771653543307087
        },
        {
          "duration": 0.0789472499999988,
          "durationTicks": 96,
          "midi": 65,
          "name": "F4",
          "ticks": 87936,
          "time": 72.315681,
          "velocity": 0.6771653543307087
        },
        {
          "duration": 0.0789472499999988,
          "durationTicks": 96,
          "midi": 65,
          "name": "F4",
          "ticks": 88032,
          "time": 72.39462825,
          "velocity": 0.6771653543307087
        },
        {
          "duration": 0.0789472499999988,
          "durationTicks": 96,
          "midi": 53,
          "name": "F3",
          "ticks": 88032,
          "time": 72.39462825,
          "velocity": 0.6771653543307087
        },
        {
          "duration": 0.0789472499999988,
          "durationTicks": 96,
          "midi": 65,
          "name": "F4",
          "ticks": 88128,
          "time": 72.4735755,
          "velocity": 0.6771653543307087
        },
        {
          "duration": 0.0789472499999988,
          "durationTicks": 96,
          "midi": 53,
          "name": "F3",
          "ticks": 88128,
          "time": 72.4735755,
          "velocity": 0.6771653543307087
        },
        {
          "duration": 0.0789472499999988,
          "durationTicks": 96,
          "midi": 53,
          "name": "F3",
          "ticks": 88224,
          "time": 72.55252275,
          "velocity": 0.6771653543307087
        },
        {
          "duration": 0.0789472499999988,
          "durationTicks": 96,
          "midi": 65,
          "name": "F4",
          "ticks": 88224,
          "time": 72.55252275,
          "velocity": 0.6771653543307087
        },
        {
          "duration": 0.0789472499999988,
          "durationTicks": 96,
          "midi": 55,
          "name": "G3",
          "ticks": 88320,
          "time": 72.63147,
          "velocity": 0.6771653543307087
        },
        {
          "duration": 0.0789472499999988,
          "durationTicks": 96,
          "midi": 67,
          "name": "G4",
          "ticks": 88320,
          "time": 72.63147,
          "velocity": 0.6771653543307087
        },
        {
          "duration": 0.0789472499999988,
          "durationTicks": 96,
          "midi": 67,
          "name": "G4",
          "ticks": 88416,
          "time": 72.71041724999999,
          "velocity": 0.6771653543307087
        },
        {
          "duration": 0.0789472499999988,
          "durationTicks": 96,
          "midi": 55,
          "name": "G3",
          "ticks": 88416,
          "time": 72.71041724999999,
          "velocity": 0.6771653543307087
        },
        {
          "duration": 0.07894725000001301,
          "durationTicks": 96,
          "midi": 67,
          "name": "G4",
          "ticks": 88512,
          "time": 72.78936449999999,
          "velocity": 0.6771653543307087
        },
        {
          "duration": 0.07894725000001301,
          "durationTicks": 96,
          "midi": 55,
          "name": "G3",
          "ticks": 88512,
          "time": 72.78936449999999,
          "velocity": 0.6771653543307087
        },
        {
          "duration": 0.0789472499999988,
          "durationTicks": 96,
          "midi": 67,
          "name": "G4",
          "ticks": 88608,
          "time": 72.86831175,
          "velocity": 0.6771653543307087
        },
        {
          "duration": 0.0789472499999988,
          "durationTicks": 96,
          "midi": 55,
          "name": "G3",
          "ticks": 88608,
          "time": 72.86831175,
          "velocity": 0.6771653543307087
        },
        {
          "duration": 0.0789472499999988,
          "durationTicks": 96,
          "midi": 67,
          "name": "G4",
          "ticks": 88704,
          "time": 72.947259,
          "velocity": 0.6771653543307087
        },
        {
          "duration": 0.0789472499999988,
          "durationTicks": 96,
          "midi": 55,
          "name": "G3",
          "ticks": 88704,
          "time": 72.947259,
          "velocity": 0.6771653543307087
        },
        {
          "duration": 0.0789472499999988,
          "durationTicks": 96,
          "midi": 67,
          "name": "G4",
          "ticks": 88800,
          "time": 73.02620625,
          "velocity": 0.6771653543307087
        },
        {
          "duration": 0.0789472499999988,
          "durationTicks": 96,
          "midi": 55,
          "name": "G3",
          "ticks": 88800,
          "time": 73.02620625,
          "velocity": 0.6771653543307087
        },
        {
          "duration": 0.0789472499999988,
          "durationTicks": 96,
          "midi": 55,
          "name": "G3",
          "ticks": 88896,
          "time": 73.1051535,
          "velocity": 0.6771653543307087
        },
        {
          "duration": 0.0789472499999988,
          "durationTicks": 96,
          "midi": 67,
          "name": "G4",
          "ticks": 88896,
          "time": 73.1051535,
          "velocity": 0.6771653543307087
        },
        {
          "duration": 0.0789472499999988,
          "durationTicks": 96,
          "midi": 67,
          "name": "G4",
          "ticks": 88992,
          "time": 73.18410075,
          "velocity": 0.6771653543307087
        },
        {
          "duration": 0.0789472499999988,
          "durationTicks": 96,
          "midi": 55,
          "name": "G3",
          "ticks": 88992,
          "time": 73.18410075,
          "velocity": 0.6771653543307087
        },
        {
          "duration": 0.0789472499999988,
          "durationTicks": 96,
          "midi": 68,
          "name": "G#4",
          "ticks": 89088,
          "time": 73.263048,
          "velocity": 0.6771653543307087
        },
        {
          "duration": 0.0789472499999988,
          "durationTicks": 96,
          "midi": 56,
          "name": "G#3",
          "ticks": 89088,
          "time": 73.263048,
          "velocity": 0.6771653543307087
        },
        {
          "duration": 0.0789472499999988,
          "durationTicks": 96,
          "midi": 56,
          "name": "G#3",
          "ticks": 89184,
          "time": 73.34199525,
          "velocity": 0.6771653543307087
        },
        {
          "duration": 0.0789472499999988,
          "durationTicks": 96,
          "midi": 68,
          "name": "G#4",
          "ticks": 89184,
          "time": 73.34199525,
          "velocity": 0.6771653543307087
        },
        {
          "duration": 0.0789472499999988,
          "durationTicks": 96,
          "midi": 68,
          "name": "G#4",
          "ticks": 89280,
          "time": 73.4209425,
          "velocity": 0.6771653543307087
        },
        {
          "duration": 0.0789472499999988,
          "durationTicks": 96,
          "midi": 56,
          "name": "G#3",
          "ticks": 89280,
          "time": 73.4209425,
          "velocity": 0.6771653543307087
        },
        {
          "duration": 0.0789472499999988,
          "durationTicks": 96,
          "midi": 56,
          "name": "G#3",
          "ticks": 89376,
          "time": 73.49988975,
          "velocity": 0.6771653543307087
        },
        {
          "duration": 0.0789472499999988,
          "durationTicks": 96,
          "midi": 68,
          "name": "G#4",
          "ticks": 89376,
          "time": 73.49988975,
          "velocity": 0.6771653543307087
        },
        {
          "duration": 0.0789472499999988,
          "durationTicks": 96,
          "midi": 68,
          "name": "G#4",
          "ticks": 89472,
          "time": 73.578837,
          "velocity": 0.6771653543307087
        },
        {
          "duration": 0.0789472499999988,
          "durationTicks": 96,
          "midi": 56,
          "name": "G#3",
          "ticks": 89472,
          "time": 73.578837,
          "velocity": 0.6771653543307087
        },
        {
          "duration": 0.0789472499999988,
          "durationTicks": 96,
          "midi": 68,
          "name": "G#4",
          "ticks": 89568,
          "time": 73.65778424999999,
          "velocity": 0.6771653543307087
        },
        {
          "duration": 0.0789472499999988,
          "durationTicks": 96,
          "midi": 56,
          "name": "G#3",
          "ticks": 89568,
          "time": 73.65778424999999,
          "velocity": 0.6771653543307087
        },
        {
          "duration": 0.07894725000001301,
          "durationTicks": 96,
          "midi": 56,
          "name": "G#3",
          "ticks": 89664,
          "time": 73.73673149999999,
          "velocity": 0.6771653543307087
        },
        {
          "duration": 0.07894725000001301,
          "durationTicks": 96,
          "midi": 68,
          "name": "G#4",
          "ticks": 89664,
          "time": 73.73673149999999,
          "velocity": 0.6771653543307087
        },
        {
          "duration": 0.0789472499999988,
          "durationTicks": 96,
          "midi": 68,
          "name": "G#4",
          "ticks": 89760,
          "time": 73.81567875,
          "velocity": 0.6771653543307087
        },
        {
          "duration": 0.0789472499999988,
          "durationTicks": 96,
          "midi": 56,
          "name": "G#3",
          "ticks": 89760,
          "time": 73.81567875,
          "velocity": 0.6771653543307087
        },
        {
          "duration": 0.0789472499999988,
          "durationTicks": 96,
          "midi": 68,
          "name": "G#4",
          "ticks": 89856,
          "time": 73.894626,
          "velocity": 0.6771653543307087
        },
        {
          "duration": 0.0789472499999988,
          "durationTicks": 96,
          "midi": 56,
          "name": "G#3",
          "ticks": 89856,
          "time": 73.894626,
          "velocity": 0.6771653543307087
        },
        {
          "duration": 0.0789472499999988,
          "durationTicks": 96,
          "midi": 68,
          "name": "G#4",
          "ticks": 89952,
          "time": 73.97357325,
          "velocity": 0.6771653543307087
        },
        {
          "duration": 0.0789472499999988,
          "durationTicks": 96,
          "midi": 56,
          "name": "G#3",
          "ticks": 89952,
          "time": 73.97357325,
          "velocity": 0.6771653543307087
        },
        {
          "duration": 0.0789472499999988,
          "durationTicks": 96,
          "midi": 56,
          "name": "G#3",
          "ticks": 90048,
          "time": 74.0525205,
          "velocity": 0.6771653543307087
        },
        {
          "duration": 0.0789472499999988,
          "durationTicks": 96,
          "midi": 68,
          "name": "G#4",
          "ticks": 90048,
          "time": 74.0525205,
          "velocity": 0.6771653543307087
        },
        {
          "duration": 0.0789472499999988,
          "durationTicks": 96,
          "midi": 68,
          "name": "G#4",
          "ticks": 90144,
          "time": 74.13146775,
          "velocity": 0.6771653543307087
        },
        {
          "duration": 0.0789472499999988,
          "durationTicks": 96,
          "midi": 56,
          "name": "G#3",
          "ticks": 90144,
          "time": 74.13146775,
          "velocity": 0.6771653543307087
        },
        {
          "duration": 0.0789472499999988,
          "durationTicks": 96,
          "midi": 68,
          "name": "G#4",
          "ticks": 90240,
          "time": 74.210415,
          "velocity": 0.6771653543307087
        },
        {
          "duration": 0.0789472499999988,
          "durationTicks": 96,
          "midi": 56,
          "name": "G#3",
          "ticks": 90240,
          "time": 74.210415,
          "velocity": 0.6771653543307087
        },
        {
          "duration": 0.0789472499999988,
          "durationTicks": 96,
          "midi": 56,
          "name": "G#3",
          "ticks": 90336,
          "time": 74.28936225,
          "velocity": 0.6771653543307087
        },
        {
          "duration": 0.0789472499999988,
          "durationTicks": 96,
          "midi": 68,
          "name": "G#4",
          "ticks": 90336,
          "time": 74.28936225,
          "velocity": 0.6771653543307087
        },
        {
          "duration": 0.0789472499999988,
          "durationTicks": 96,
          "midi": 68,
          "name": "G#4",
          "ticks": 90432,
          "time": 74.3683095,
          "velocity": 0.6771653543307087
        },
        {
          "duration": 0.0789472499999988,
          "durationTicks": 96,
          "midi": 56,
          "name": "G#3",
          "ticks": 90432,
          "time": 74.3683095,
          "velocity": 0.6771653543307087
        },
        {
          "duration": 0.0789472499999988,
          "durationTicks": 96,
          "midi": 68,
          "name": "G#4",
          "ticks": 90528,
          "time": 74.44725675,
          "velocity": 0.6771653543307087
        },
        {
          "duration": 0.0789472499999988,
          "durationTicks": 96,
          "midi": 56,
          "name": "G#3",
          "ticks": 90528,
          "time": 74.44725675,
          "velocity": 0.6771653543307087
        },
        {
          "duration": 0.0789472499999988,
          "durationTicks": 96,
          "midi": 56,
          "name": "G#3",
          "ticks": 90624,
          "time": 74.52620399999999,
          "velocity": 0.6771653543307087
        },
        {
          "duration": 0.0789472499999988,
          "durationTicks": 96,
          "midi": 68,
          "name": "G#4",
          "ticks": 90624,
          "time": 74.52620399999999,
          "velocity": 0.6771653543307087
        },
        {
          "duration": 0.0789472499999988,
          "durationTicks": 96,
          "midi": 68,
          "name": "G#4",
          "ticks": 90720,
          "time": 74.60515124999999,
          "velocity": 0.6771653543307087
        },
        {
          "duration": 0.0789472499999988,
          "durationTicks": 96,
          "midi": 56,
          "name": "G#3",
          "ticks": 90720,
          "time": 74.60515124999999,
          "velocity": 0.6771653543307087
        },
        {
          "duration": 0.07894725000001301,
          "durationTicks": 96,
          "midi": 56,
          "name": "G#3",
          "ticks": 90816,
          "time": 74.68409849999999,
          "velocity": 0.6771653543307087
        },
        {
          "duration": 0.07894725000001301,
          "durationTicks": 96,
          "midi": 68,
          "name": "G#4",
          "ticks": 90816,
          "time": 74.68409849999999,
          "velocity": 0.6771653543307087
        },
        {
          "duration": 0.0789472499999988,
          "durationTicks": 96,
          "midi": 56,
          "name": "G#3",
          "ticks": 90912,
          "time": 74.76304575,
          "velocity": 0.6771653543307087
        },
        {
          "duration": 0.0789472499999988,
          "durationTicks": 96,
          "midi": 68,
          "name": "G#4",
          "ticks": 90912,
          "time": 74.76304575,
          "velocity": 0.6771653543307087
        },
        {
          "duration": 0.0789472499999988,
          "durationTicks": 96,
          "midi": 68,
          "name": "G#4",
          "ticks": 91008,
          "time": 74.841993,
          "velocity": 0.6771653543307087
        },
        {
          "duration": 0.0789472499999988,
          "durationTicks": 96,
          "midi": 56,
          "name": "G#3",
          "ticks": 91008,
          "time": 74.841993,
          "velocity": 0.6771653543307087
        },
        {
          "duration": 0.0789472499999988,
          "durationTicks": 96,
          "midi": 56,
          "name": "G#3",
          "ticks": 91104,
          "time": 74.92094025,
          "velocity": 0.6771653543307087
        },
        {
          "duration": 0.0789472499999988,
          "durationTicks": 96,
          "midi": 68,
          "name": "G#4",
          "ticks": 91104,
          "time": 74.92094025,
          "velocity": 0.6771653543307087
        },
        {
          "duration": 0.0789472499999988,
          "durationTicks": 96,
          "midi": 68,
          "name": "G#4",
          "ticks": 91200,
          "time": 74.9998875,
          "velocity": 0.6771653543307087
        },
        {
          "duration": 0.0789472499999988,
          "durationTicks": 96,
          "midi": 56,
          "name": "G#3",
          "ticks": 91200,
          "time": 74.9998875,
          "velocity": 0.6771653543307087
        },
        {
          "duration": 0.0789472499999988,
          "durationTicks": 96,
          "midi": 68,
          "name": "G#4",
          "ticks": 91296,
          "time": 75.07883475,
          "velocity": 0.6771653543307087
        },
        {
          "duration": 0.0789472499999988,
          "durationTicks": 96,
          "midi": 56,
          "name": "G#3",
          "ticks": 91296,
          "time": 75.07883475,
          "velocity": 0.6771653543307087
        },
        {
          "duration": 0.0789472499999988,
          "durationTicks": 96,
          "midi": 63,
          "name": "D#4",
          "ticks": 91392,
          "time": 75.157782,
          "velocity": 0.6771653543307087
        },
        {
          "duration": 0.0789472499999988,
          "durationTicks": 96,
          "midi": 75,
          "name": "D#5",
          "ticks": 91392,
          "time": 75.157782,
          "velocity": 0.6771653543307087
        },
        {
          "duration": 0.0789472499999988,
          "durationTicks": 96,
          "midi": 75,
          "name": "D#5",
          "ticks": 91488,
          "time": 75.23672925,
          "velocity": 0.6771653543307087
        },
        {
          "duration": 0.0789472499999988,
          "durationTicks": 96,
          "midi": 63,
          "name": "D#4",
          "ticks": 91488,
          "time": 75.23672925,
          "velocity": 0.6771653543307087
        },
        {
          "duration": 0.0789472499999988,
          "durationTicks": 96,
          "midi": 63,
          "name": "D#4",
          "ticks": 91584,
          "time": 75.3156765,
          "velocity": 0.6771653543307087
        },
        {
          "duration": 0.0789472499999988,
          "durationTicks": 96,
          "midi": 75,
          "name": "D#5",
          "ticks": 91584,
          "time": 75.3156765,
          "velocity": 0.6771653543307087
        },
        {
          "duration": 0.0789472499999988,
          "durationTicks": 96,
          "midi": 63,
          "name": "D#4",
          "ticks": 91680,
          "time": 75.39462375,
          "velocity": 0.6771653543307087
        },
        {
          "duration": 0.0789472499999988,
          "durationTicks": 96,
          "midi": 75,
          "name": "D#5",
          "ticks": 91680,
          "time": 75.39462375,
          "velocity": 0.6771653543307087
        },
        {
          "duration": 0.0789472499999988,
          "durationTicks": 96,
          "midi": 63,
          "name": "D#4",
          "ticks": 91776,
          "time": 75.47357099999999,
          "velocity": 0.6771653543307087
        },
        {
          "duration": 0.0789472499999988,
          "durationTicks": 96,
          "midi": 75,
          "name": "D#5",
          "ticks": 91776,
          "time": 75.47357099999999,
          "velocity": 0.6771653543307087
        },
        {
          "duration": 0.0789472499999988,
          "durationTicks": 96,
          "midi": 63,
          "name": "D#4",
          "ticks": 91872,
          "time": 75.55251824999999,
          "velocity": 0.6771653543307087
        },
        {
          "duration": 0.0789472499999988,
          "durationTicks": 96,
          "midi": 75,
          "name": "D#5",
          "ticks": 91872,
          "time": 75.55251824999999,
          "velocity": 0.6771653543307087
        },
        {
          "duration": 0.07894725000001301,
          "durationTicks": 96,
          "midi": 63,
          "name": "D#4",
          "ticks": 91968,
          "time": 75.63146549999999,
          "velocity": 0.6771653543307087
        },
        {
          "duration": 0.07894725000001301,
          "durationTicks": 96,
          "midi": 75,
          "name": "D#5",
          "ticks": 91968,
          "time": 75.63146549999999,
          "velocity": 0.6771653543307087
        },
        {
          "duration": 0.0789472499999988,
          "durationTicks": 96,
          "midi": 75,
          "name": "D#5",
          "ticks": 92064,
          "time": 75.71041275,
          "velocity": 0.6771653543307087
        },
        {
          "duration": 0.0789472499999988,
          "durationTicks": 96,
          "midi": 63,
          "name": "D#4",
          "ticks": 92064,
          "time": 75.71041275,
          "velocity": 0.6771653543307087
        },
        {
          "duration": 0.0789472499999988,
          "durationTicks": 96,
          "midi": 77,
          "name": "F5",
          "ticks": 92160,
          "time": 75.78936,
          "velocity": 0.6771653543307087
        },
        {
          "duration": 0.0789472499999988,
          "durationTicks": 96,
          "midi": 65,
          "name": "F4",
          "ticks": 92160,
          "time": 75.78936,
          "velocity": 0.6771653543307087
        },
        {
          "duration": 0.0789472499999988,
          "durationTicks": 96,
          "midi": 65,
          "name": "F4",
          "ticks": 92256,
          "time": 75.86830725,
          "velocity": 0.6771653543307087
        },
        {
          "duration": 0.0789472499999988,
          "durationTicks": 96,
          "midi": 77,
          "name": "F5",
          "ticks": 92256,
          "time": 75.86830725,
          "velocity": 0.6771653543307087
        },
        {
          "duration": 0.0789472499999988,
          "durationTicks": 96,
          "midi": 65,
          "name": "F4",
          "ticks": 92352,
          "time": 75.9472545,
          "velocity": 0.6771653543307087
        },
        {
          "duration": 0.0789472499999988,
          "durationTicks": 96,
          "midi": 77,
          "name": "F5",
          "ticks": 92352,
          "time": 75.9472545,
          "velocity": 0.6771653543307087
        },
        {
          "duration": 0.0789472499999988,
          "durationTicks": 96,
          "midi": 77,
          "name": "F5",
          "ticks": 92448,
          "time": 76.02620175,
          "velocity": 0.6771653543307087
        },
        {
          "duration": 0.0789472499999988,
          "durationTicks": 96,
          "midi": 65,
          "name": "F4",
          "ticks": 92448,
          "time": 76.02620175,
          "velocity": 0.6771653543307087
        },
        {
          "duration": 0.0789472499999988,
          "durationTicks": 96,
          "midi": 65,
          "name": "F4",
          "ticks": 92544,
          "time": 76.105149,
          "velocity": 0.6771653543307087
        },
        {
          "duration": 0.0789472499999988,
          "durationTicks": 96,
          "midi": 77,
          "name": "F5",
          "ticks": 92544,
          "time": 76.105149,
          "velocity": 0.6771653543307087
        },
        {
          "duration": 0.0789472499999988,
          "durationTicks": 96,
          "midi": 65,
          "name": "F4",
          "ticks": 92640,
          "time": 76.18409625,
          "velocity": 0.6771653543307087
        },
        {
          "duration": 0.0789472499999988,
          "durationTicks": 96,
          "midi": 77,
          "name": "F5",
          "ticks": 92640,
          "time": 76.18409625,
          "velocity": 0.6771653543307087
        },
        {
          "duration": 0.0789472499999988,
          "durationTicks": 96,
          "midi": 77,
          "name": "F5",
          "ticks": 92736,
          "time": 76.2630435,
          "velocity": 0.6771653543307087
        },
        {
          "duration": 0.0789472499999988,
          "durationTicks": 96,
          "midi": 65,
          "name": "F4",
          "ticks": 92736,
          "time": 76.2630435,
          "velocity": 0.6771653543307087
        },
        {
          "duration": 0.0789472499999988,
          "durationTicks": 96,
          "midi": 65,
          "name": "F4",
          "ticks": 92832,
          "time": 76.34199075,
          "velocity": 0.6771653543307087
        },
        {
          "duration": 0.0789472499999988,
          "durationTicks": 96,
          "midi": 77,
          "name": "F5",
          "ticks": 92832,
          "time": 76.34199075,
          "velocity": 0.6771653543307087
        },
        {
          "duration": 0.0789472499999988,
          "durationTicks": 96,
          "midi": 77,
          "name": "F5",
          "ticks": 92928,
          "time": 76.42093799999999,
          "velocity": 0.6771653543307087
        },
        {
          "duration": 0.0789472499999988,
          "durationTicks": 96,
          "midi": 65,
          "name": "F4",
          "ticks": 92928,
          "time": 76.42093799999999,
          "velocity": 0.6771653543307087
        },
        {
          "duration": 0.0789472499999988,
          "durationTicks": 96,
          "midi": 65,
          "name": "F4",
          "ticks": 93024,
          "time": 76.49988524999999,
          "velocity": 0.6771653543307087
        },
        {
          "duration": 0.0789472499999988,
          "durationTicks": 96,
          "midi": 77,
          "name": "F5",
          "ticks": 93024,
          "time": 76.49988524999999,
          "velocity": 0.6771653543307087
        },
        {
          "duration": 0.07894725000001301,
          "durationTicks": 96,
          "midi": 77,
          "name": "F5",
          "ticks": 93120,
          "time": 76.57883249999999,
          "velocity": 0.6771653543307087
        },
        {
          "duration": 0.07894725000001301,
          "durationTicks": 96,
          "midi": 65,
          "name": "F4",
          "ticks": 93120,
          "time": 76.57883249999999,
          "velocity": 0.6771653543307087
        },
        {
          "duration": 0.0789472499999988,
          "durationTicks": 96,
          "midi": 77,
          "name": "F5",
          "ticks": 93216,
          "time": 76.65777975,
          "velocity": 0.6771653543307087
        },
        {
          "duration": 0.0789472499999988,
          "durationTicks": 96,
          "midi": 65,
          "name": "F4",
          "ticks": 93216,
          "time": 76.65777975,
          "velocity": 0.6771653543307087
        },
        {
          "duration": 0.0789472499999988,
          "durationTicks": 96,
          "midi": 77,
          "name": "F5",
          "ticks": 93312,
          "time": 76.736727,
          "velocity": 0.6771653543307087
        },
        {
          "duration": 0.0789472499999988,
          "durationTicks": 96,
          "midi": 65,
          "name": "F4",
          "ticks": 93312,
          "time": 76.736727,
          "velocity": 0.6771653543307087
        },
        {
          "duration": 0.0789472499999988,
          "durationTicks": 96,
          "midi": 77,
          "name": "F5",
          "ticks": 93408,
          "time": 76.81567425,
          "velocity": 0.6771653543307087
        },
        {
          "duration": 0.0789472499999988,
          "durationTicks": 96,
          "midi": 65,
          "name": "F4",
          "ticks": 93408,
          "time": 76.81567425,
          "velocity": 0.6771653543307087
        },
        {
          "duration": 0.0789472499999988,
          "durationTicks": 96,
          "midi": 77,
          "name": "F5",
          "ticks": 93504,
          "time": 76.8946215,
          "velocity": 0.6771653543307087
        },
        {
          "duration": 0.0789472499999988,
          "durationTicks": 96,
          "midi": 65,
          "name": "F4",
          "ticks": 93504,
          "time": 76.8946215,
          "velocity": 0.6771653543307087
        },
        {
          "duration": 0.0789472499999988,
          "durationTicks": 96,
          "midi": 77,
          "name": "F5",
          "ticks": 93600,
          "time": 76.97356875,
          "velocity": 0.6771653543307087
        },
        {
          "duration": 0.0789472499999988,
          "durationTicks": 96,
          "midi": 65,
          "name": "F4",
          "ticks": 93600,
          "time": 76.97356875,
          "velocity": 0.6771653543307087
        },
        {
          "duration": 0.0789472499999988,
          "durationTicks": 96,
          "midi": 77,
          "name": "F5",
          "ticks": 93696,
          "time": 77.052516,
          "velocity": 0.6771653543307087
        },
        {
          "duration": 0.0789472499999988,
          "durationTicks": 96,
          "midi": 65,
          "name": "F4",
          "ticks": 93696,
          "time": 77.052516,
          "velocity": 0.6771653543307087
        },
        {
          "duration": 0.0789472499999988,
          "durationTicks": 96,
          "midi": 65,
          "name": "F4",
          "ticks": 93792,
          "time": 77.13146325,
          "velocity": 0.6771653543307087
        },
        {
          "duration": 0.0789472499999988,
          "durationTicks": 96,
          "midi": 77,
          "name": "F5",
          "ticks": 93792,
          "time": 77.13146325,
          "velocity": 0.6771653543307087
        },
        {
          "duration": 0.0789472499999988,
          "durationTicks": 96,
          "midi": 65,
          "name": "F4",
          "ticks": 93888,
          "time": 77.2104105,
          "velocity": 0.6771653543307087
        },
        {
          "duration": 0.0789472499999988,
          "durationTicks": 96,
          "midi": 77,
          "name": "F5",
          "ticks": 93888,
          "time": 77.2104105,
          "velocity": 0.6771653543307087
        },
        {
          "duration": 0.0789472499999988,
          "durationTicks": 96,
          "midi": 77,
          "name": "F5",
          "ticks": 93984,
          "time": 77.28935775,
          "velocity": 0.6771653543307087
        },
        {
          "duration": 0.0789472499999988,
          "durationTicks": 96,
          "midi": 65,
          "name": "F4",
          "ticks": 93984,
          "time": 77.28935775,
          "velocity": 0.6771653543307087
        },
        {
          "duration": 0.0789472499999988,
          "durationTicks": 96,
          "midi": 77,
          "name": "F5",
          "ticks": 94080,
          "time": 77.36830499999999,
          "velocity": 0.6771653543307087
        },
        {
          "duration": 0.0789472499999988,
          "durationTicks": 96,
          "midi": 65,
          "name": "F4",
          "ticks": 94080,
          "time": 77.36830499999999,
          "velocity": 0.6771653543307087
        },
        {
          "duration": 0.0789472499999988,
          "durationTicks": 96,
          "midi": 77,
          "name": "F5",
          "ticks": 94176,
          "time": 77.44725224999999,
          "velocity": 0.6771653543307087
        },
        {
          "duration": 0.0789472499999988,
          "durationTicks": 96,
          "midi": 65,
          "name": "F4",
          "ticks": 94176,
          "time": 77.44725224999999,
          "velocity": 0.6771653543307087
        },
        {
          "duration": 0.07894725000001301,
          "durationTicks": 96,
          "midi": 65,
          "name": "F4",
          "ticks": 94272,
          "time": 77.52619949999999,
          "velocity": 0.6771653543307087
        },
        {
          "duration": 0.07894725000001301,
          "durationTicks": 96,
          "midi": 77,
          "name": "F5",
          "ticks": 94272,
          "time": 77.52619949999999,
          "velocity": 0.6771653543307087
        },
        {
          "duration": 0.0789472499999988,
          "durationTicks": 96,
          "midi": 77,
          "name": "F5",
          "ticks": 94368,
          "time": 77.60514675,
          "velocity": 0.6771653543307087
        },
        {
          "duration": 0.0789472499999988,
          "durationTicks": 96,
          "midi": 65,
          "name": "F4",
          "ticks": 94368,
          "time": 77.60514675,
          "velocity": 0.6771653543307087
        },
        {
          "duration": 0.0789472499999988,
          "durationTicks": 96,
          "midi": 67,
          "name": "G4",
          "ticks": 94464,
          "time": 77.684094,
          "velocity": 0.6771653543307087
        },
        {
          "duration": 0.0789472499999988,
          "durationTicks": 96,
          "midi": 55,
          "name": "G3",
          "ticks": 94464,
          "time": 77.684094,
          "velocity": 0.6771653543307087
        },
        {
          "duration": 0.0789472499999988,
          "durationTicks": 96,
          "midi": 67,
          "name": "G4",
          "ticks": 94560,
          "time": 77.76304125,
          "velocity": 0.6771653543307087
        },
        {
          "duration": 0.0789472499999988,
          "durationTicks": 96,
          "midi": 55,
          "name": "G3",
          "ticks": 94560,
          "time": 77.76304125,
          "velocity": 0.6771653543307087
        },
        {
          "duration": 0.0789472499999988,
          "durationTicks": 96,
          "midi": 55,
          "name": "G3",
          "ticks": 94656,
          "time": 77.8419885,
          "velocity": 0.6771653543307087
        },
        {
          "duration": 0.0789472499999988,
          "durationTicks": 96,
          "midi": 67,
          "name": "G4",
          "ticks": 94656,
          "time": 77.8419885,
          "velocity": 0.6771653543307087
        },
        {
          "duration": 0.0789472499999988,
          "durationTicks": 96,
          "midi": 67,
          "name": "G4",
          "ticks": 94752,
          "time": 77.92093575,
          "velocity": 0.6771653543307087
        },
        {
          "duration": 0.0789472499999988,
          "durationTicks": 96,
          "midi": 55,
          "name": "G3",
          "ticks": 94752,
          "time": 77.92093575,
          "velocity": 0.6771653543307087
        },
        {
          "duration": 0.0789472499999988,
          "durationTicks": 96,
          "midi": 55,
          "name": "G3",
          "ticks": 94848,
          "time": 77.999883,
          "velocity": 0.6771653543307087
        },
        {
          "duration": 0.0789472499999988,
          "durationTicks": 96,
          "midi": 67,
          "name": "G4",
          "ticks": 94848,
          "time": 77.999883,
          "velocity": 0.6771653543307087
        },
        {
          "duration": 0.0789472499999988,
          "durationTicks": 96,
          "midi": 55,
          "name": "G3",
          "ticks": 94944,
          "time": 78.07883025,
          "velocity": 0.6771653543307087
        },
        {
          "duration": 0.0789472499999988,
          "durationTicks": 96,
          "midi": 67,
          "name": "G4",
          "ticks": 94944,
          "time": 78.07883025,
          "velocity": 0.6771653543307087
        },
        {
          "duration": 0.0789472499999988,
          "durationTicks": 96,
          "midi": 55,
          "name": "G3",
          "ticks": 95040,
          "time": 78.1577775,
          "velocity": 0.6771653543307087
        },
        {
          "duration": 0.0789472499999988,
          "durationTicks": 96,
          "midi": 67,
          "name": "G4",
          "ticks": 95040,
          "time": 78.1577775,
          "velocity": 0.6771653543307087
        },
        {
          "duration": 0.0789472499999988,
          "durationTicks": 96,
          "midi": 55,
          "name": "G3",
          "ticks": 95136,
          "time": 78.23672475,
          "velocity": 0.6771653543307087
        },
        {
          "duration": 0.0789472499999988,
          "durationTicks": 96,
          "midi": 67,
          "name": "G4",
          "ticks": 95136,
          "time": 78.23672475,
          "velocity": 0.6771653543307087
        },
        {
          "duration": 0.0789472499999988,
          "durationTicks": 96,
          "midi": 65,
          "name": "F4",
          "ticks": 95232,
          "time": 78.31567199999999,
          "velocity": 0.6771653543307087
        },
        {
          "duration": 0.0789472499999988,
          "durationTicks": 96,
          "midi": 53,
          "name": "F3",
          "ticks": 95232,
          "time": 78.31567199999999,
          "velocity": 0.6771653543307087
        },
        {
          "duration": 0.0789472499999988,
          "durationTicks": 96,
          "midi": 65,
          "name": "F4",
          "ticks": 95328,
          "time": 78.39461924999999,
          "velocity": 0.6771653543307087
        },
        {
          "duration": 0.0789472499999988,
          "durationTicks": 96,
          "midi": 53,
          "name": "F3",
          "ticks": 95328,
          "time": 78.39461924999999,
          "velocity": 0.6771653543307087
        },
        {
          "duration": 0.07894725000001301,
          "durationTicks": 96,
          "midi": 53,
          "name": "F3",
          "ticks": 95424,
          "time": 78.47356649999999,
          "velocity": 0.6771653543307087
        },
        {
          "duration": 0.07894725000001301,
          "durationTicks": 96,
          "midi": 65,
          "name": "F4",
          "ticks": 95424,
          "time": 78.47356649999999,
          "velocity": 0.6771653543307087
        },
        {
          "duration": 0.0789472499999988,
          "durationTicks": 96,
          "midi": 65,
          "name": "F4",
          "ticks": 95520,
          "time": 78.55251375,
          "velocity": 0.6771653543307087
        },
        {
          "duration": 0.0789472499999988,
          "durationTicks": 96,
          "midi": 53,
          "name": "F3",
          "ticks": 95520,
          "time": 78.55251375,
          "velocity": 0.6771653543307087
        },
        {
          "duration": 0.0789472499999988,
          "durationTicks": 96,
          "midi": 53,
          "name": "F3",
          "ticks": 95616,
          "time": 78.631461,
          "velocity": 0.6771653543307087
        },
        {
          "duration": 0.0789472499999988,
          "durationTicks": 96,
          "midi": 65,
          "name": "F4",
          "ticks": 95616,
          "time": 78.631461,
          "velocity": 0.6771653543307087
        },
        {
          "duration": 0.0789472499999988,
          "durationTicks": 96,
          "midi": 53,
          "name": "F3",
          "ticks": 95712,
          "time": 78.71040825,
          "velocity": 0.6771653543307087
        },
        {
          "duration": 0.0789472499999988,
          "durationTicks": 96,
          "midi": 65,
          "name": "F4",
          "ticks": 95712,
          "time": 78.71040825,
          "velocity": 0.6771653543307087
        },
        {
          "duration": 0.0789472499999988,
          "durationTicks": 96,
          "midi": 65,
          "name": "F4",
          "ticks": 95808,
          "time": 78.7893555,
          "velocity": 0.6771653543307087
        },
        {
          "duration": 0.0789472499999988,
          "durationTicks": 96,
          "midi": 53,
          "name": "F3",
          "ticks": 95808,
          "time": 78.7893555,
          "velocity": 0.6771653543307087
        },
        {
          "duration": 0.0789472499999988,
          "durationTicks": 96,
          "midi": 53,
          "name": "F3",
          "ticks": 95904,
          "time": 78.86830275,
          "velocity": 0.6771653543307087
        },
        {
          "duration": 0.0789472499999988,
          "durationTicks": 96,
          "midi": 65,
          "name": "F4",
          "ticks": 95904,
          "time": 78.86830275,
          "velocity": 0.6771653543307087
        },
        {
          "duration": 0.0789472499999988,
          "durationTicks": 96,
          "midi": 65,
          "name": "F4",
          "ticks": 96000,
          "time": 78.94725,
          "velocity": 0.6771653543307087
        },
        {
          "duration": 0.0789472499999988,
          "durationTicks": 96,
          "midi": 53,
          "name": "F3",
          "ticks": 96000,
          "time": 78.94725,
          "velocity": 0.6771653543307087
        },
        {
          "duration": 0.0789472499999988,
          "durationTicks": 96,
          "midi": 65,
          "name": "F4",
          "ticks": 96096,
          "time": 79.02619725,
          "velocity": 0.6771653543307087
        },
        {
          "duration": 0.0789472499999988,
          "durationTicks": 96,
          "midi": 53,
          "name": "F3",
          "ticks": 96096,
          "time": 79.02619725,
          "velocity": 0.6771653543307087
        },
        {
          "duration": 0.0789472499999988,
          "durationTicks": 96,
          "midi": 53,
          "name": "F3",
          "ticks": 96192,
          "time": 79.1051445,
          "velocity": 0.6771653543307087
        },
        {
          "duration": 0.0789472499999988,
          "durationTicks": 96,
          "midi": 65,
          "name": "F4",
          "ticks": 96192,
          "time": 79.1051445,
          "velocity": 0.6771653543307087
        },
        {
          "duration": 0.0789472499999988,
          "durationTicks": 96,
          "midi": 65,
          "name": "F4",
          "ticks": 96288,
          "time": 79.18409175,
          "velocity": 0.6771653543307087
        },
        {
          "duration": 0.0789472499999988,
          "durationTicks": 96,
          "midi": 53,
          "name": "F3",
          "ticks": 96288,
          "time": 79.18409175,
          "velocity": 0.6771653543307087
        },
        {
          "duration": 0.0789472499999988,
          "durationTicks": 96,
          "midi": 53,
          "name": "F3",
          "ticks": 96384,
          "time": 79.26303899999999,
          "velocity": 0.6771653543307087
        },
        {
          "duration": 0.0789472499999988,
          "durationTicks": 96,
          "midi": 65,
          "name": "F4",
          "ticks": 96384,
          "time": 79.26303899999999,
          "velocity": 0.6771653543307087
        },
        {
          "duration": 0.0789472499999988,
          "durationTicks": 96,
          "midi": 53,
          "name": "F3",
          "ticks": 96480,
          "time": 79.34198624999999,
          "velocity": 0.6771653543307087
        },
        {
          "duration": 0.0789472499999988,
          "durationTicks": 96,
          "midi": 65,
          "name": "F4",
          "ticks": 96480,
          "time": 79.34198624999999,
          "velocity": 0.6771653543307087
        },
        {
          "duration": 0.07894725000001301,
          "durationTicks": 96,
          "midi": 65,
          "name": "F4",
          "ticks": 96576,
          "time": 79.42093349999999,
          "velocity": 0.6771653543307087
        },
        {
          "duration": 0.07894725000001301,
          "durationTicks": 96,
          "midi": 53,
          "name": "F3",
          "ticks": 96576,
          "time": 79.42093349999999,
          "velocity": 0.6771653543307087
        },
        {
          "duration": 0.0789472499999988,
          "durationTicks": 96,
          "midi": 53,
          "name": "F3",
          "ticks": 96672,
          "time": 79.49988075,
          "velocity": 0.6771653543307087
        },
        {
          "duration": 0.0789472499999988,
          "durationTicks": 96,
          "midi": 65,
          "name": "F4",
          "ticks": 96672,
          "time": 79.49988075,
          "velocity": 0.6771653543307087
        },
        {
          "duration": 0.0789472499999988,
          "durationTicks": 96,
          "midi": 52,
          "name": "E3",
          "ticks": 96768,
          "time": 79.578828,
          "velocity": 0.6771653543307087
        },
        {
          "duration": 0.0789472499999988,
          "durationTicks": 96,
          "midi": 64,
          "name": "E4",
          "ticks": 96768,
          "time": 79.578828,
          "velocity": 0.6771653543307087
        },
        {
          "duration": 0.0789472499999988,
          "durationTicks": 96,
          "midi": 64,
          "name": "E4",
          "ticks": 96864,
          "time": 79.65777525,
          "velocity": 0.6771653543307087
        },
        {
          "duration": 0.0789472499999988,
          "durationTicks": 96,
          "midi": 52,
          "name": "E3",
          "ticks": 96864,
          "time": 79.65777525,
          "velocity": 0.6771653543307087
        },
        {
          "duration": 0.0789472499999988,
          "durationTicks": 96,
          "midi": 52,
          "name": "E3",
          "ticks": 96960,
          "time": 79.7367225,
          "velocity": 0.6771653543307087
        },
        {
          "duration": 0.0789472499999988,
          "durationTicks": 96,
          "midi": 64,
          "name": "E4",
          "ticks": 96960,
          "time": 79.7367225,
          "velocity": 0.6771653543307087
        },
        {
          "duration": 0.0789472499999988,
          "durationTicks": 96,
          "midi": 52,
          "name": "E3",
          "ticks": 97056,
          "time": 79.81566975,
          "velocity": 0.6771653543307087
        },
        {
          "duration": 0.0789472499999988,
          "durationTicks": 96,
          "midi": 64,
          "name": "E4",
          "ticks": 97056,
          "time": 79.81566975,
          "velocity": 0.6771653543307087
        },
        {
          "duration": 0.0789472499999988,
          "durationTicks": 96,
          "midi": 52,
          "name": "E3",
          "ticks": 97152,
          "time": 79.894617,
          "velocity": 0.6771653543307087
        },
        {
          "duration": 0.0789472499999988,
          "durationTicks": 96,
          "midi": 64,
          "name": "E4",
          "ticks": 97152,
          "time": 79.894617,
          "velocity": 0.6771653543307087
        },
        {
          "duration": 0.0789472499999988,
          "durationTicks": 96,
          "midi": 64,
          "name": "E4",
          "ticks": 97248,
          "time": 79.97356425,
          "velocity": 0.6771653543307087
        },
        {
          "duration": 0.0789472499999988,
          "durationTicks": 96,
          "midi": 52,
          "name": "E3",
          "ticks": 97248,
          "time": 79.97356425,
          "velocity": 0.6771653543307087
        },
        {
          "duration": 0.0789472499999988,
          "durationTicks": 96,
          "midi": 64,
          "name": "E4",
          "ticks": 97344,
          "time": 80.0525115,
          "velocity": 0.6771653543307087
        },
        {
          "duration": 0.0789472499999988,
          "durationTicks": 96,
          "midi": 52,
          "name": "E3",
          "ticks": 97344,
          "time": 80.0525115,
          "velocity": 0.6771653543307087
        },
        {
          "duration": 0.0789472499999988,
          "durationTicks": 96,
          "midi": 52,
          "name": "E3",
          "ticks": 97440,
          "time": 80.13145875,
          "velocity": 0.6771653543307087
        },
        {
          "duration": 0.0789472499999988,
          "durationTicks": 96,
          "midi": 64,
          "name": "E4",
          "ticks": 97440,
          "time": 80.13145875,
          "velocity": 0.6771653543307087
        },
        {
          "duration": 0.0789472499999988,
          "durationTicks": 96,
          "midi": 67,
          "name": "G4",
          "ticks": 97536,
          "time": 80.21040599999999,
          "velocity": 0.6771653543307087
        },
        {
          "duration": 0.0789472499999988,
          "durationTicks": 96,
          "midi": 55,
          "name": "G3",
          "ticks": 97536,
          "time": 80.21040599999999,
          "velocity": 0.6771653543307087
        },
        {
          "duration": 0.0789472499999988,
          "durationTicks": 96,
          "midi": 55,
          "name": "G3",
          "ticks": 97632,
          "time": 80.28935324999999,
          "velocity": 0.6771653543307087
        },
        {
          "duration": 0.0789472499999988,
          "durationTicks": 96,
          "midi": 67,
          "name": "G4",
          "ticks": 97632,
          "time": 80.28935324999999,
          "velocity": 0.6771653543307087
        },
        {
          "duration": 0.07894725000001301,
          "durationTicks": 96,
          "midi": 55,
          "name": "G3",
          "ticks": 97728,
          "time": 80.36830049999999,
          "velocity": 0.6771653543307087
        },
        {
          "duration": 0.07894725000001301,
          "durationTicks": 96,
          "midi": 67,
          "name": "G4",
          "ticks": 97728,
          "time": 80.36830049999999,
          "velocity": 0.6771653543307087
        },
        {
          "duration": 0.0789472499999988,
          "durationTicks": 96,
          "midi": 67,
          "name": "G4",
          "ticks": 97824,
          "time": 80.44724775,
          "velocity": 0.6771653543307087
        },
        {
          "duration": 0.0789472499999988,
          "durationTicks": 96,
          "midi": 55,
          "name": "G3",
          "ticks": 97824,
          "time": 80.44724775,
          "velocity": 0.6771653543307087
        },
        {
          "duration": 0.0789472499999988,
          "durationTicks": 96,
          "midi": 67,
          "name": "G4",
          "ticks": 97920,
          "time": 80.526195,
          "velocity": 0.6771653543307087
        },
        {
          "duration": 0.0789472499999988,
          "durationTicks": 96,
          "midi": 55,
          "name": "G3",
          "ticks": 97920,
          "time": 80.526195,
          "velocity": 0.6771653543307087
        },
        {
          "duration": 0.0789472499999988,
          "durationTicks": 96,
          "midi": 55,
          "name": "G3",
          "ticks": 98016,
          "time": 80.60514225,
          "velocity": 0.6771653543307087
        },
        {
          "duration": 0.0789472499999988,
          "durationTicks": 96,
          "midi": 67,
          "name": "G4",
          "ticks": 98016,
          "time": 80.60514225,
          "velocity": 0.6771653543307087
        },
        {
          "duration": 0.0789472499999988,
          "durationTicks": 96,
          "midi": 55,
          "name": "G3",
          "ticks": 98112,
          "time": 80.6840895,
          "velocity": 0.6771653543307087
        },
        {
          "duration": 0.0789472499999988,
          "durationTicks": 96,
          "midi": 67,
          "name": "G4",
          "ticks": 98112,
          "time": 80.6840895,
          "velocity": 0.6771653543307087
        },
        {
          "duration": 0.0789472499999988,
          "durationTicks": 96,
          "midi": 55,
          "name": "G3",
          "ticks": 98208,
          "time": 80.76303675,
          "velocity": 0.6771653543307087
        },
        {
          "duration": 0.0789472499999988,
          "durationTicks": 96,
          "midi": 67,
          "name": "G4",
          "ticks": 98208,
          "time": 80.76303675,
          "velocity": 0.6771653543307087
        },
        {
          "duration": 0.0789472499999988,
          "durationTicks": 96,
          "midi": 65,
          "name": "F4",
          "ticks": 98304,
          "time": 80.841984,
          "velocity": 0.6771653543307087
        },
        {
          "duration": 0.0789472499999988,
          "durationTicks": 96,
          "midi": 53,
          "name": "F3",
          "ticks": 98304,
          "time": 80.841984,
          "velocity": 0.6771653543307087
        },
        {
          "duration": 0.0789472499999988,
          "durationTicks": 96,
          "midi": 53,
          "name": "F3",
          "ticks": 98400,
          "time": 80.92093125,
          "velocity": 0.6771653543307087
        },
        {
          "duration": 0.0789472499999988,
          "durationTicks": 96,
          "midi": 65,
          "name": "F4",
          "ticks": 98400,
          "time": 80.92093125,
          "velocity": 0.6771653543307087
        },
        {
          "duration": 0.0789472499999988,
          "durationTicks": 96,
          "midi": 53,
          "name": "F3",
          "ticks": 98496,
          "time": 80.9998785,
          "velocity": 0.6771653543307087
        },
        {
          "duration": 0.0789472499999988,
          "durationTicks": 96,
          "midi": 65,
          "name": "F4",
          "ticks": 98496,
          "time": 80.9998785,
          "velocity": 0.6771653543307087
        },
        {
          "duration": 0.0789472499999988,
          "durationTicks": 96,
          "midi": 53,
          "name": "F3",
          "ticks": 98592,
          "time": 81.07882575,
          "velocity": 0.6771653543307087
        },
        {
          "duration": 0.0789472499999988,
          "durationTicks": 96,
          "midi": 65,
          "name": "F4",
          "ticks": 98592,
          "time": 81.07882575,
          "velocity": 0.6771653543307087
        },
        {
          "duration": 0.0789472499999988,
          "durationTicks": 96,
          "midi": 65,
          "name": "F4",
          "ticks": 98688,
          "time": 81.15777299999999,
          "velocity": 0.6771653543307087
        },
        {
          "duration": 0.0789472499999988,
          "durationTicks": 96,
          "midi": 53,
          "name": "F3",
          "ticks": 98688,
          "time": 81.15777299999999,
          "velocity": 0.6771653543307087
        },
        {
          "duration": 0.07894725000001301,
          "durationTicks": 96,
          "midi": 65,
          "name": "F4",
          "ticks": 98784,
          "time": 81.23672024999999,
          "velocity": 0.6771653543307087
        },
        {
          "duration": 0.07894725000001301,
          "durationTicks": 96,
          "midi": 53,
          "name": "F3",
          "ticks": 98784,
          "time": 81.23672024999999,
          "velocity": 0.6771653543307087
        },
        {
          "duration": 0.0789472499999988,
          "durationTicks": 96,
          "midi": 65,
          "name": "F4",
          "ticks": 98880,
          "time": 81.3156675,
          "velocity": 0.6771653543307087
        },
        {
          "duration": 0.0789472499999988,
          "durationTicks": 96,
          "midi": 53,
          "name": "F3",
          "ticks": 98880,
          "time": 81.3156675,
          "velocity": 0.6771653543307087
        },
        {
          "duration": 0.0789472499999988,
          "durationTicks": 96,
          "midi": 53,
          "name": "F3",
          "ticks": 98976,
          "time": 81.39461475,
          "velocity": 0.6771653543307087
        },
        {
          "duration": 0.0789472499999988,
          "durationTicks": 96,
          "midi": 65,
          "name": "F4",
          "ticks": 98976,
          "time": 81.39461475,
          "velocity": 0.6771653543307087
        },
        {
          "duration": 0.0789472499999988,
          "durationTicks": 96,
          "midi": 65,
          "name": "F4",
          "ticks": 99072,
          "time": 81.473562,
          "velocity": 0.6771653543307087
        },
        {
          "duration": 0.0789472499999988,
          "durationTicks": 96,
          "midi": 53,
          "name": "F3",
          "ticks": 99072,
          "time": 81.473562,
          "velocity": 0.6771653543307087
        },
        {
          "duration": 0.0789472499999988,
          "durationTicks": 96,
          "midi": 65,
          "name": "F4",
          "ticks": 99168,
          "time": 81.55250925,
          "velocity": 0.6771653543307087
        },
        {
          "duration": 0.0789472499999988,
          "durationTicks": 96,
          "midi": 53,
          "name": "F3",
          "ticks": 99168,
          "time": 81.55250925,
          "velocity": 0.6771653543307087
        },
        {
          "duration": 0.0789472499999988,
          "durationTicks": 96,
          "midi": 65,
          "name": "F4",
          "ticks": 99264,
          "time": 81.6314565,
          "velocity": 0.6771653543307087
        },
        {
          "duration": 0.0789472499999988,
          "durationTicks": 96,
          "midi": 53,
          "name": "F3",
          "ticks": 99264,
          "time": 81.6314565,
          "velocity": 0.6771653543307087
        },
        {
          "duration": 0.0789472499999988,
          "durationTicks": 96,
          "midi": 65,
          "name": "F4",
          "ticks": 99360,
          "time": 81.71040375,
          "velocity": 0.6771653543307087
        },
        {
          "duration": 0.0789472499999988,
          "durationTicks": 96,
          "midi": 53,
          "name": "F3",
          "ticks": 99360,
          "time": 81.71040375,
          "velocity": 0.6771653543307087
        },
        {
          "duration": 0.0789472499999988,
          "durationTicks": 96,
          "midi": 53,
          "name": "F3",
          "ticks": 99456,
          "time": 81.789351,
          "velocity": 0.6771653543307087
        },
        {
          "duration": 0.0789472499999988,
          "durationTicks": 96,
          "midi": 65,
          "name": "F4",
          "ticks": 99456,
          "time": 81.789351,
          "velocity": 0.6771653543307087
        },
        {
          "duration": 0.0789472499999988,
          "durationTicks": 96,
          "midi": 53,
          "name": "F3",
          "ticks": 99552,
          "time": 81.86829825,
          "velocity": 0.6771653543307087
        },
        {
          "duration": 0.0789472499999988,
          "durationTicks": 96,
          "midi": 65,
          "name": "F4",
          "ticks": 99552,
          "time": 81.86829825,
          "velocity": 0.6771653543307087
        },
        {
          "duration": 0.0789472499999988,
          "durationTicks": 96,
          "midi": 53,
          "name": "F3",
          "ticks": 99648,
          "time": 81.9472455,
          "velocity": 0.6771653543307087
        },
        {
          "duration": 0.0789472499999988,
          "durationTicks": 96,
          "midi": 65,
          "name": "F4",
          "ticks": 99648,
          "time": 81.9472455,
          "velocity": 0.6771653543307087
        },
        {
          "duration": 0.0789472499999988,
          "durationTicks": 96,
          "midi": 65,
          "name": "F4",
          "ticks": 99744,
          "time": 82.02619274999999,
          "velocity": 0.6771653543307087
        },
        {
          "duration": 0.0789472499999988,
          "durationTicks": 96,
          "midi": 53,
          "name": "F3",
          "ticks": 99744,
          "time": 82.02619274999999,
          "velocity": 0.6771653543307087
        },
        {
          "duration": 0.0789472499999988,
          "durationTicks": 96,
          "midi": 53,
          "name": "F3",
          "ticks": 99840,
          "time": 82.10513999999999,
          "velocity": 0.6771653543307087
        },
        {
          "duration": 0.0789472499999988,
          "durationTicks": 96,
          "midi": 65,
          "name": "F4",
          "ticks": 99840,
          "time": 82.10513999999999,
          "velocity": 0.6771653543307087
        },
        {
          "duration": 0.07894725000001301,
          "durationTicks": 96,
          "midi": 65,
          "name": "F4",
          "ticks": 99936,
          "time": 82.18408724999999,
          "velocity": 0.6771653543307087
        },
        {
          "duration": 0.07894725000001301,
          "durationTicks": 96,
          "midi": 53,
          "name": "F3",
          "ticks": 99936,
          "time": 82.18408724999999,
          "velocity": 0.6771653543307087
        },
        {
          "duration": 0.0789472499999988,
          "durationTicks": 96,
          "midi": 53,
          "name": "F3",
          "ticks": 100032,
          "time": 82.2630345,
          "velocity": 0.6771653543307087
        },
        {
          "duration": 0.0789472499999988,
          "durationTicks": 96,
          "midi": 65,
          "name": "F4",
          "ticks": 100032,
          "time": 82.2630345,
          "velocity": 0.6771653543307087
        },
        {
          "duration": 0.0789472499999988,
          "durationTicks": 96,
          "midi": 53,
          "name": "F3",
          "ticks": 100128,
          "time": 82.34198175,
          "velocity": 0.6771653543307087
        },
        {
          "duration": 0.0789472499999988,
          "durationTicks": 96,
          "midi": 65,
          "name": "F4",
          "ticks": 100128,
          "time": 82.34198175,
          "velocity": 0.6771653543307087
        },
        {
          "duration": 0.0789472499999988,
          "durationTicks": 96,
          "midi": 53,
          "name": "F3",
          "ticks": 100224,
          "time": 82.420929,
          "velocity": 0.6771653543307087
        },
        {
          "duration": 0.0789472499999988,
          "durationTicks": 96,
          "midi": 65,
          "name": "F4",
          "ticks": 100224,
          "time": 82.420929,
          "velocity": 0.6771653543307087
        },
        {
          "duration": 0.0789472499999988,
          "durationTicks": 96,
          "midi": 65,
          "name": "F4",
          "ticks": 100320,
          "time": 82.49987625,
          "velocity": 0.6771653543307087
        },
        {
          "duration": 0.0789472499999988,
          "durationTicks": 96,
          "midi": 53,
          "name": "F3",
          "ticks": 100320,
          "time": 82.49987625,
          "velocity": 0.6771653543307087
        },
        {
          "duration": 0.0789472499999988,
          "durationTicks": 96,
          "midi": 65,
          "name": "F4",
          "ticks": 100416,
          "time": 82.5788235,
          "velocity": 0.6771653543307087
        },
        {
          "duration": 0.0789472499999988,
          "durationTicks": 96,
          "midi": 53,
          "name": "F3",
          "ticks": 100416,
          "time": 82.5788235,
          "velocity": 0.6771653543307087
        },
        {
          "duration": 0.0789472499999988,
          "durationTicks": 96,
          "midi": 65,
          "name": "F4",
          "ticks": 100512,
          "time": 82.65777075,
          "velocity": 0.6771653543307087
        },
        {
          "duration": 0.0789472499999988,
          "durationTicks": 96,
          "midi": 53,
          "name": "F3",
          "ticks": 100512,
          "time": 82.65777075,
          "velocity": 0.6771653543307087
        },
        {
          "duration": 0.0789472499999988,
          "durationTicks": 96,
          "midi": 55,
          "name": "G3",
          "ticks": 100608,
          "time": 82.736718,
          "velocity": 0.6771653543307087
        },
        {
          "duration": 0.0789472499999988,
          "durationTicks": 96,
          "midi": 67,
          "name": "G4",
          "ticks": 100608,
          "time": 82.736718,
          "velocity": 0.6771653543307087
        },
        {
          "duration": 0.0789472499999988,
          "durationTicks": 96,
          "midi": 55,
          "name": "G3",
          "ticks": 100704,
          "time": 82.81566525,
          "velocity": 0.6771653543307087
        },
        {
          "duration": 0.0789472499999988,
          "durationTicks": 96,
          "midi": 67,
          "name": "G4",
          "ticks": 100704,
          "time": 82.81566525,
          "velocity": 0.6771653543307087
        },
        {
          "duration": 0.0789472499999988,
          "durationTicks": 96,
          "midi": 67,
          "name": "G4",
          "ticks": 100800,
          "time": 82.8946125,
          "velocity": 0.6771653543307087
        },
        {
          "duration": 0.0789472499999988,
          "durationTicks": 96,
          "midi": 55,
          "name": "G3",
          "ticks": 100800,
          "time": 82.8946125,
          "velocity": 0.6771653543307087
        },
        {
          "duration": 0.0789472499999988,
          "durationTicks": 96,
          "midi": 55,
          "name": "G3",
          "ticks": 100896,
          "time": 82.97355974999999,
          "velocity": 0.6771653543307087
        },
        {
          "duration": 0.0789472499999988,
          "durationTicks": 96,
          "midi": 67,
          "name": "G4",
          "ticks": 100896,
          "time": 82.97355974999999,
          "velocity": 0.6771653543307087
        },
        {
          "duration": 0.0789472499999988,
          "durationTicks": 96,
          "midi": 55,
          "name": "G3",
          "ticks": 100992,
          "time": 83.05250699999999,
          "velocity": 0.6771653543307087
        },
        {
          "duration": 0.0789472499999988,
          "durationTicks": 96,
          "midi": 67,
          "name": "G4",
          "ticks": 100992,
          "time": 83.05250699999999,
          "velocity": 0.6771653543307087
        },
        {
          "duration": 0.07894725000001301,
          "durationTicks": 96,
          "midi": 67,
          "name": "G4",
          "ticks": 101088,
          "time": 83.13145424999999,
          "velocity": 0.6771653543307087
        },
        {
          "duration": 0.07894725000001301,
          "durationTicks": 96,
          "midi": 55,
          "name": "G3",
          "ticks": 101088,
          "time": 83.13145424999999,
          "velocity": 0.6771653543307087
        },
        {
          "duration": 0.0789472499999988,
          "durationTicks": 96,
          "midi": 67,
          "name": "G4",
          "ticks": 101184,
          "time": 83.2104015,
          "velocity": 0.6771653543307087
        },
        {
          "duration": 0.0789472499999988,
          "durationTicks": 96,
          "midi": 55,
          "name": "G3",
          "ticks": 101184,
          "time": 83.2104015,
          "velocity": 0.6771653543307087
        },
        {
          "duration": 0.0789472499999988,
          "durationTicks": 96,
          "midi": 55,
          "name": "G3",
          "ticks": 101280,
          "time": 83.28934875,
          "velocity": 0.6771653543307087
        },
        {
          "duration": 0.0789472499999988,
          "durationTicks": 96,
          "midi": 67,
          "name": "G4",
          "ticks": 101280,
          "time": 83.28934875,
          "velocity": 0.6771653543307087
        },
        {
          "duration": 0.0789472499999988,
          "durationTicks": 96,
          "midi": 68,
          "name": "G#4",
          "ticks": 101376,
          "time": 83.368296,
          "velocity": 0.6771653543307087
        },
        {
          "duration": 0.0789472499999988,
          "durationTicks": 96,
          "midi": 56,
          "name": "G#3",
          "ticks": 101376,
          "time": 83.368296,
          "velocity": 0.6771653543307087
        },
        {
          "duration": 0.0789472499999988,
          "durationTicks": 96,
          "midi": 56,
          "name": "G#3",
          "ticks": 101472,
          "time": 83.44724325,
          "velocity": 0.6771653543307087
        },
        {
          "duration": 0.0789472499999988,
          "durationTicks": 96,
          "midi": 68,
          "name": "G#4",
          "ticks": 101472,
          "time": 83.44724325,
          "velocity": 0.6771653543307087
        },
        {
          "duration": 0.0789472499999988,
          "durationTicks": 96,
          "midi": 68,
          "name": "G#4",
          "ticks": 101568,
          "time": 83.5261905,
          "velocity": 0.6771653543307087
        },
        {
          "duration": 0.0789472499999988,
          "durationTicks": 96,
          "midi": 56,
          "name": "G#3",
          "ticks": 101568,
          "time": 83.5261905,
          "velocity": 0.6771653543307087
        },
        {
          "duration": 0.0789472499999988,
          "durationTicks": 96,
          "midi": 68,
          "name": "G#4",
          "ticks": 101664,
          "time": 83.60513775,
          "velocity": 0.6771653543307087
        },
        {
          "duration": 0.0789472499999988,
          "durationTicks": 96,
          "midi": 56,
          "name": "G#3",
          "ticks": 101664,
          "time": 83.60513775,
          "velocity": 0.6771653543307087
        },
        {
          "duration": 0.0789472499999988,
          "durationTicks": 96,
          "midi": 68,
          "name": "G#4",
          "ticks": 101760,
          "time": 83.684085,
          "velocity": 0.6771653543307087
        },
        {
          "duration": 0.0789472499999988,
          "durationTicks": 96,
          "midi": 56,
          "name": "G#3",
          "ticks": 101760,
          "time": 83.684085,
          "velocity": 0.6771653543307087
        },
        {
          "duration": 0.0789472499999988,
          "durationTicks": 96,
          "midi": 56,
          "name": "G#3",
          "ticks": 101856,
          "time": 83.76303225,
          "velocity": 0.6771653543307087
        },
        {
          "duration": 0.0789472499999988,
          "durationTicks": 96,
          "midi": 68,
          "name": "G#4",
          "ticks": 101856,
          "time": 83.76303225,
          "velocity": 0.6771653543307087
        },
        {
          "duration": 0.0789472499999988,
          "durationTicks": 96,
          "midi": 68,
          "name": "G#4",
          "ticks": 101952,
          "time": 83.8419795,
          "velocity": 0.6771653543307087
        },
        {
          "duration": 0.0789472499999988,
          "durationTicks": 96,
          "midi": 56,
          "name": "G#3",
          "ticks": 101952,
          "time": 83.8419795,
          "velocity": 0.6771653543307087
        },
        {
          "duration": 0.0789472499999988,
          "durationTicks": 96,
          "midi": 56,
          "name": "G#3",
          "ticks": 102048,
          "time": 83.92092674999999,
          "velocity": 0.6771653543307087
        },
        {
          "duration": 0.0789472499999988,
          "durationTicks": 96,
          "midi": 68,
          "name": "G#4",
          "ticks": 102048,
          "time": 83.92092674999999,
          "velocity": 0.6771653543307087
        },
        {
          "duration": 0.0789472499999988,
          "durationTicks": 96,
          "midi": 68,
          "name": "G#4",
          "ticks": 102144,
          "time": 83.99987399999999,
          "velocity": 0.6771653543307087
        },
        {
          "duration": 0.0789472499999988,
          "durationTicks": 96,
          "midi": 56,
          "name": "G#3",
          "ticks": 102144,
          "time": 83.99987399999999,
          "velocity": 0.6771653543307087
        },
        {
          "duration": 0.07894725000001301,
          "durationTicks": 96,
          "midi": 56,
          "name": "G#3",
          "ticks": 102240,
          "time": 84.07882124999999,
          "velocity": 0.6771653543307087
        },
        {
          "duration": 0.07894725000001301,
          "durationTicks": 96,
          "midi": 68,
          "name": "G#4",
          "ticks": 102240,
          "time": 84.07882124999999,
          "velocity": 0.6771653543307087
        },
        {
          "duration": 0.0789472499999988,
          "durationTicks": 96,
          "midi": 68,
          "name": "G#4",
          "ticks": 102336,
          "time": 84.1577685,
          "velocity": 0.6771653543307087
        },
        {
          "duration": 0.0789472499999988,
          "durationTicks": 96,
          "midi": 56,
          "name": "G#3",
          "ticks": 102336,
          "time": 84.1577685,
          "velocity": 0.6771653543307087
        },
        {
          "duration": 0.0789472499999988,
          "durationTicks": 96,
          "midi": 68,
          "name": "G#4",
          "ticks": 102432,
          "time": 84.23671575,
          "velocity": 0.6771653543307087
        },
        {
          "duration": 0.0789472499999988,
          "durationTicks": 96,
          "midi": 56,
          "name": "G#3",
          "ticks": 102432,
          "time": 84.23671575,
          "velocity": 0.6771653543307087
        },
        {
          "duration": 0.0789472499999988,
          "durationTicks": 96,
          "midi": 68,
          "name": "G#4",
          "ticks": 102528,
          "time": 84.315663,
          "velocity": 0.6771653543307087
        },
        {
          "duration": 0.0789472499999988,
          "durationTicks": 96,
          "midi": 56,
          "name": "G#3",
          "ticks": 102528,
          "time": 84.315663,
          "velocity": 0.6771653543307087
        },
        {
          "duration": 0.0789472499999988,
          "durationTicks": 96,
          "midi": 68,
          "name": "G#4",
          "ticks": 102624,
          "time": 84.39461025,
          "velocity": 0.6771653543307087
        },
        {
          "duration": 0.0789472499999988,
          "durationTicks": 96,
          "midi": 56,
          "name": "G#3",
          "ticks": 102624,
          "time": 84.39461025,
          "velocity": 0.6771653543307087
        },
        {
          "duration": 0.0789472499999988,
          "durationTicks": 96,
          "midi": 56,
          "name": "G#3",
          "ticks": 102720,
          "time": 84.4735575,
          "velocity": 0.6771653543307087
        },
        {
          "duration": 0.0789472499999988,
          "durationTicks": 96,
          "midi": 68,
          "name": "G#4",
          "ticks": 102720,
          "time": 84.4735575,
          "velocity": 0.6771653543307087
        },
        {
          "duration": 0.0789472499999988,
          "durationTicks": 96,
          "midi": 68,
          "name": "G#4",
          "ticks": 102816,
          "time": 84.55250475,
          "velocity": 0.6771653543307087
        },
        {
          "duration": 0.0789472499999988,
          "durationTicks": 96,
          "midi": 56,
          "name": "G#3",
          "ticks": 102816,
          "time": 84.55250475,
          "velocity": 0.6771653543307087
        },
        {
          "duration": 0.0789472499999988,
          "durationTicks": 96,
          "midi": 56,
          "name": "G#3",
          "ticks": 102912,
          "time": 84.631452,
          "velocity": 0.6771653543307087
        },
        {
          "duration": 0.0789472499999988,
          "durationTicks": 96,
          "midi": 68,
          "name": "G#4",
          "ticks": 102912,
          "time": 84.631452,
          "velocity": 0.6771653543307087
        },
        {
          "duration": 0.0789472499999988,
          "durationTicks": 96,
          "midi": 68,
          "name": "G#4",
          "ticks": 103008,
          "time": 84.71039925,
          "velocity": 0.6771653543307087
        },
        {
          "duration": 0.0789472499999988,
          "durationTicks": 96,
          "midi": 56,
          "name": "G#3",
          "ticks": 103008,
          "time": 84.71039925,
          "velocity": 0.6771653543307087
        },
        {
          "duration": 0.0789472499999988,
          "durationTicks": 96,
          "midi": 68,
          "name": "G#4",
          "ticks": 103104,
          "time": 84.7893465,
          "velocity": 0.6771653543307087
        },
        {
          "duration": 0.0789472499999988,
          "durationTicks": 96,
          "midi": 56,
          "name": "G#3",
          "ticks": 103104,
          "time": 84.7893465,
          "velocity": 0.6771653543307087
        },
        {
          "duration": 0.0789472499999988,
          "durationTicks": 96,
          "midi": 68,
          "name": "G#4",
          "ticks": 103200,
          "time": 84.86829374999999,
          "velocity": 0.6771653543307087
        },
        {
          "duration": 0.0789472499999988,
          "durationTicks": 96,
          "midi": 56,
          "name": "G#3",
          "ticks": 103200,
          "time": 84.86829374999999,
          "velocity": 0.6771653543307087
        },
        {
          "duration": 0.0789472499999988,
          "durationTicks": 96,
          "midi": 56,
          "name": "G#3",
          "ticks": 103296,
          "time": 84.94724099999999,
          "velocity": 0.6771653543307087
        },
        {
          "duration": 0.0789472499999988,
          "durationTicks": 96,
          "midi": 68,
          "name": "G#4",
          "ticks": 103296,
          "time": 84.94724099999999,
          "velocity": 0.6771653543307087
        },
        {
          "duration": 0.07894725000001301,
          "durationTicks": 96,
          "midi": 56,
          "name": "G#3",
          "ticks": 103392,
          "time": 85.02618824999999,
          "velocity": 0.6771653543307087
        },
        {
          "duration": 0.07894725000001301,
          "durationTicks": 96,
          "midi": 68,
          "name": "G#4",
          "ticks": 103392,
          "time": 85.02618824999999,
          "velocity": 0.6771653543307087
        },
        {
          "duration": 0.0789472499999988,
          "durationTicks": 96,
          "midi": 68,
          "name": "G#4",
          "ticks": 103488,
          "time": 85.1051355,
          "velocity": 0.6771653543307087
        },
        {
          "duration": 0.0789472499999988,
          "durationTicks": 96,
          "midi": 56,
          "name": "G#3",
          "ticks": 103488,
          "time": 85.1051355,
          "velocity": 0.6771653543307087
        },
        {
          "duration": 0.0789472499999988,
          "durationTicks": 96,
          "midi": 68,
          "name": "G#4",
          "ticks": 103584,
          "time": 85.18408275,
          "velocity": 0.6771653543307087
        },
        {
          "duration": 0.0789472499999988,
          "durationTicks": 96,
          "midi": 56,
          "name": "G#3",
          "ticks": 103584,
          "time": 85.18408275,
          "velocity": 0.6771653543307087
        },
        {
          "duration": 0.0789472499999988,
          "durationTicks": 96,
          "midi": 63,
          "name": "D#4",
          "ticks": 103680,
          "time": 85.26303,
          "velocity": 0.6771653543307087
        },
        {
          "duration": 0.0789472499999988,
          "durationTicks": 96,
          "midi": 75,
          "name": "D#5",
          "ticks": 103680,
          "time": 85.26303,
          "velocity": 0.6771653543307087
        },
        {
          "duration": 0.0789472499999988,
          "durationTicks": 96,
          "midi": 75,
          "name": "D#5",
          "ticks": 103776,
          "time": 85.34197725,
          "velocity": 0.6771653543307087
        },
        {
          "duration": 0.0789472499999988,
          "durationTicks": 96,
          "midi": 63,
          "name": "D#4",
          "ticks": 103776,
          "time": 85.34197725,
          "velocity": 0.6771653543307087
        },
        {
          "duration": 0.0789472499999988,
          "durationTicks": 96,
          "midi": 63,
          "name": "D#4",
          "ticks": 103872,
          "time": 85.4209245,
          "velocity": 0.6771653543307087
        },
        {
          "duration": 0.0789472499999988,
          "durationTicks": 96,
          "midi": 75,
          "name": "D#5",
          "ticks": 103872,
          "time": 85.4209245,
          "velocity": 0.6771653543307087
        },
        {
          "duration": 0.0789472499999988,
          "durationTicks": 96,
          "midi": 75,
          "name": "D#5",
          "ticks": 103968,
          "time": 85.49987175,
          "velocity": 0.6771653543307087
        },
        {
          "duration": 0.0789472499999988,
          "durationTicks": 96,
          "midi": 63,
          "name": "D#4",
          "ticks": 103968,
          "time": 85.49987175,
          "velocity": 0.6771653543307087
        },
        {
          "duration": 0.0789472499999988,
          "durationTicks": 96,
          "midi": 75,
          "name": "D#5",
          "ticks": 104064,
          "time": 85.578819,
          "velocity": 0.6771653543307087
        },
        {
          "duration": 0.0789472499999988,
          "durationTicks": 96,
          "midi": 63,
          "name": "D#4",
          "ticks": 104064,
          "time": 85.578819,
          "velocity": 0.6771653543307087
        },
        {
          "duration": 0.0789472499999988,
          "durationTicks": 96,
          "midi": 75,
          "name": "D#5",
          "ticks": 104160,
          "time": 85.65776625,
          "velocity": 0.6771653543307087
        },
        {
          "duration": 0.0789472499999988,
          "durationTicks": 96,
          "midi": 63,
          "name": "D#4",
          "ticks": 104160,
          "time": 85.65776625,
          "velocity": 0.6771653543307087
        },
        {
          "duration": 0.0789472499999988,
          "durationTicks": 96,
          "midi": 75,
          "name": "D#5",
          "ticks": 104256,
          "time": 85.7367135,
          "velocity": 0.6771653543307087
        },
        {
          "duration": 0.0789472499999988,
          "durationTicks": 96,
          "midi": 63,
          "name": "D#4",
          "ticks": 104256,
          "time": 85.7367135,
          "velocity": 0.6771653543307087
        },
        {
          "duration": 0.0789472499999988,
          "durationTicks": 96,
          "midi": 63,
          "name": "D#4",
          "ticks": 104352,
          "time": 85.81566074999999,
          "velocity": 0.6771653543307087
        },
        {
          "duration": 0.0789472499999988,
          "durationTicks": 96,
          "midi": 75,
          "name": "D#5",
          "ticks": 104352,
          "time": 85.81566074999999,
          "velocity": 0.6771653543307087
        },
        {
          "duration": 0.0789472499999988,
          "durationTicks": 96,
          "midi": 65,
          "name": "F4",
          "ticks": 104448,
          "time": 85.89460799999999,
          "velocity": 0.6771653543307087
        },
        {
          "duration": 0.0789472499999988,
          "durationTicks": 96,
          "midi": 77,
          "name": "F5",
          "ticks": 104448,
          "time": 85.89460799999999,
          "velocity": 0.6771653543307087
        },
        {
          "duration": 0.07894725000001301,
          "durationTicks": 96,
          "midi": 65,
          "name": "F4",
          "ticks": 104544,
          "time": 85.97355524999999,
          "velocity": 0.6771653543307087
        },
        {
          "duration": 0.07894725000001301,
          "durationTicks": 96,
          "midi": 77,
          "name": "F5",
          "ticks": 104544,
          "time": 85.97355524999999,
          "velocity": 0.6771653543307087
        },
        {
          "duration": 0.0789472499999988,
          "durationTicks": 96,
          "midi": 65,
          "name": "F4",
          "ticks": 104640,
          "time": 86.0525025,
          "velocity": 0.6771653543307087
        },
        {
          "duration": 0.0789472499999988,
          "durationTicks": 96,
          "midi": 77,
          "name": "F5",
          "ticks": 104640,
          "time": 86.0525025,
          "velocity": 0.6771653543307087
        },
        {
          "duration": 0.0789472499999988,
          "durationTicks": 96,
          "midi": 77,
          "name": "F5",
          "ticks": 104736,
          "time": 86.13144975,
          "velocity": 0.6771653543307087
        },
        {
          "duration": 0.0789472499999988,
          "durationTicks": 96,
          "midi": 65,
          "name": "F4",
          "ticks": 104736,
          "time": 86.13144975,
          "velocity": 0.6771653543307087
        },
        {
          "duration": 0.0789472499999988,
          "durationTicks": 96,
          "midi": 77,
          "name": "F5",
          "ticks": 104832,
          "time": 86.210397,
          "velocity": 0.6771653543307087
        },
        {
          "duration": 0.0789472499999988,
          "durationTicks": 96,
          "midi": 65,
          "name": "F4",
          "ticks": 104832,
          "time": 86.210397,
          "velocity": 0.6771653543307087
        },
        {
          "duration": 0.0789472499999988,
          "durationTicks": 96,
          "midi": 77,
          "name": "F5",
          "ticks": 104928,
          "time": 86.28934425,
          "velocity": 0.6771653543307087
        },
        {
          "duration": 0.0789472499999988,
          "durationTicks": 96,
          "midi": 65,
          "name": "F4",
          "ticks": 104928,
          "time": 86.28934425,
          "velocity": 0.6771653543307087
        },
        {
          "duration": 0.0789472499999988,
          "durationTicks": 96,
          "midi": 65,
          "name": "F4",
          "ticks": 105024,
          "time": 86.3682915,
          "velocity": 0.6771653543307087
        },
        {
          "duration": 0.0789472499999988,
          "durationTicks": 96,
          "midi": 77,
          "name": "F5",
          "ticks": 105024,
          "time": 86.3682915,
          "velocity": 0.6771653543307087
        },
        {
          "duration": 0.0789472499999988,
          "durationTicks": 96,
          "midi": 77,
          "name": "F5",
          "ticks": 105120,
          "time": 86.44723875,
          "velocity": 0.6771653543307087
        },
        {
          "duration": 0.0789472499999988,
          "durationTicks": 96,
          "midi": 65,
          "name": "F4",
          "ticks": 105120,
          "time": 86.44723875,
          "velocity": 0.6771653543307087
        },
        {
          "duration": 0.0789472499999988,
          "durationTicks": 96,
          "midi": 77,
          "name": "F5",
          "ticks": 105216,
          "time": 86.526186,
          "velocity": 0.6771653543307087
        },
        {
          "duration": 0.0789472499999988,
          "durationTicks": 96,
          "midi": 65,
          "name": "F4",
          "ticks": 105216,
          "time": 86.526186,
          "velocity": 0.6771653543307087
        },
        {
          "duration": 0.0789472499999988,
          "durationTicks": 96,
          "midi": 77,
          "name": "F5",
          "ticks": 105312,
          "time": 86.60513325,
          "velocity": 0.6771653543307087
        },
        {
          "duration": 0.0789472499999988,
          "durationTicks": 96,
          "midi": 65,
          "name": "F4",
          "ticks": 105312,
          "time": 86.60513325,
          "velocity": 0.6771653543307087
        },
        {
          "duration": 0.0789472499999988,
          "durationTicks": 96,
          "midi": 65,
          "name": "F4",
          "ticks": 105408,
          "time": 86.6840805,
          "velocity": 0.6771653543307087
        },
        {
          "duration": 0.0789472499999988,
          "durationTicks": 96,
          "midi": 77,
          "name": "F5",
          "ticks": 105408,
          "time": 86.6840805,
          "velocity": 0.6771653543307087
        },
        {
          "duration": 0.0789472499999988,
          "durationTicks": 96,
          "midi": 77,
          "name": "F5",
          "ticks": 105504,
          "time": 86.76302774999999,
          "velocity": 0.6771653543307087
        },
        {
          "duration": 0.0789472499999988,
          "durationTicks": 96,
          "midi": 65,
          "name": "F4",
          "ticks": 105504,
          "time": 86.76302774999999,
          "velocity": 0.6771653543307087
        },
        {
          "duration": 0.0789472499999988,
          "durationTicks": 96,
          "midi": 65,
          "name": "F4",
          "ticks": 105600,
          "time": 86.84197499999999,
          "velocity": 0.6771653543307087
        },
        {
          "duration": 0.0789472499999988,
          "durationTicks": 96,
          "midi": 77,
          "name": "F5",
          "ticks": 105600,
          "time": 86.84197499999999,
          "velocity": 0.6771653543307087
        },
        {
          "duration": 0.07894725000001301,
          "durationTicks": 96,
          "midi": 77,
          "name": "F5",
          "ticks": 105696,
          "time": 86.92092224999999,
          "velocity": 0.6771653543307087
        },
        {
          "duration": 0.07894725000001301,
          "durationTicks": 96,
          "midi": 65,
          "name": "F4",
          "ticks": 105696,
          "time": 86.92092224999999,
          "velocity": 0.6771653543307087
        },
        {
          "duration": 0.0789472499999988,
          "durationTicks": 96,
          "midi": 77,
          "name": "F5",
          "ticks": 105792,
          "time": 86.9998695,
          "velocity": 0.6771653543307087
        },
        {
          "duration": 0.0789472499999988,
          "durationTicks": 96,
          "midi": 65,
          "name": "F4",
          "ticks": 105792,
          "time": 86.9998695,
          "velocity": 0.6771653543307087
        },
        {
          "duration": 0.0789472499999988,
          "durationTicks": 96,
          "midi": 65,
          "name": "F4",
          "ticks": 105888,
          "time": 87.07881675,
          "velocity": 0.6771653543307087
        },
        {
          "duration": 0.0789472499999988,
          "durationTicks": 96,
          "midi": 77,
          "name": "F5",
          "ticks": 105888,
          "time": 87.07881675,
          "velocity": 0.6771653543307087
        },
        {
          "duration": 0.0789472499999988,
          "durationTicks": 96,
          "midi": 65,
          "name": "F4",
          "ticks": 105984,
          "time": 87.157764,
          "velocity": 0.6771653543307087
        },
        {
          "duration": 0.0789472499999988,
          "durationTicks": 96,
          "midi": 77,
          "name": "F5",
          "ticks": 105984,
          "time": 87.157764,
          "velocity": 0.6771653543307087
        },
        {
          "duration": 0.0789472499999988,
          "durationTicks": 96,
          "midi": 77,
          "name": "F5",
          "ticks": 106080,
          "time": 87.23671125,
          "velocity": 0.6771653543307087
        },
        {
          "duration": 0.0789472499999988,
          "durationTicks": 96,
          "midi": 65,
          "name": "F4",
          "ticks": 106080,
          "time": 87.23671125,
          "velocity": 0.6771653543307087
        },
        {
          "duration": 0.0789472499999988,
          "durationTicks": 96,
          "midi": 77,
          "name": "F5",
          "ticks": 106176,
          "time": 87.3156585,
          "velocity": 0.6771653543307087
        },
        {
          "duration": 0.0789472499999988,
          "durationTicks": 96,
          "midi": 65,
          "name": "F4",
          "ticks": 106176,
          "time": 87.3156585,
          "velocity": 0.6771653543307087
        },
        {
          "duration": 0.0789472499999988,
          "durationTicks": 96,
          "midi": 65,
          "name": "F4",
          "ticks": 106272,
          "time": 87.39460575,
          "velocity": 0.6771653543307087
        },
        {
          "duration": 0.0789472499999988,
          "durationTicks": 96,
          "midi": 77,
          "name": "F5",
          "ticks": 106272,
          "time": 87.39460575,
          "velocity": 0.6771653543307087
        },
        {
          "duration": 0.0789472499999988,
          "durationTicks": 96,
          "midi": 77,
          "name": "F5",
          "ticks": 106368,
          "time": 87.473553,
          "velocity": 0.6771653543307087
        },
        {
          "duration": 0.0789472499999988,
          "durationTicks": 96,
          "midi": 65,
          "name": "F4",
          "ticks": 106368,
          "time": 87.473553,
          "velocity": 0.6771653543307087
        },
        {
          "duration": 0.0789472499999988,
          "durationTicks": 96,
          "midi": 65,
          "name": "F4",
          "ticks": 106464,
          "time": 87.55250025,
          "velocity": 0.6771653543307087
        },
        {
          "duration": 0.0789472499999988,
          "durationTicks": 96,
          "midi": 77,
          "name": "F5",
          "ticks": 106464,
          "time": 87.55250025,
          "velocity": 0.6771653543307087
        },
        {
          "duration": 0.0789472499999988,
          "durationTicks": 96,
          "midi": 65,
          "name": "F4",
          "ticks": 106560,
          "time": 87.6314475,
          "velocity": 0.6771653543307087
        },
        {
          "duration": 0.0789472499999988,
          "durationTicks": 96,
          "midi": 77,
          "name": "F5",
          "ticks": 106560,
          "time": 87.6314475,
          "velocity": 0.6771653543307087
        },
        {
          "duration": 0.0789472499999988,
          "durationTicks": 96,
          "midi": 77,
          "name": "F5",
          "ticks": 106656,
          "time": 87.71039474999999,
          "velocity": 0.6771653543307087
        },
        {
          "duration": 0.0789472499999988,
          "durationTicks": 96,
          "midi": 65,
          "name": "F4",
          "ticks": 106656,
          "time": 87.71039474999999,
          "velocity": 0.6771653543307087
        },
        {
          "duration": 0.0789472499999988,
          "durationTicks": 96,
          "midi": 55,
          "name": "G3",
          "ticks": 106752,
          "time": 87.78934199999999,
          "velocity": 0.6771653543307087
        },
        {
          "duration": 0.0789472499999988,
          "durationTicks": 96,
          "midi": 67,
          "name": "G4",
          "ticks": 106752,
          "time": 87.78934199999999,
          "velocity": 0.6771653543307087
        },
        {
          "duration": 0.07894725000001301,
          "durationTicks": 96,
          "midi": 55,
          "name": "G3",
          "ticks": 106848,
          "time": 87.86828924999999,
          "velocity": 0.6771653543307087
        },
        {
          "duration": 0.07894725000001301,
          "durationTicks": 96,
          "midi": 67,
          "name": "G4",
          "ticks": 106848,
          "time": 87.86828924999999,
          "velocity": 0.6771653543307087
        },
        {
          "duration": 0.0789472499999988,
          "durationTicks": 96,
          "midi": 67,
          "name": "G4",
          "ticks": 106944,
          "time": 87.9472365,
          "velocity": 0.6771653543307087
        },
        {
          "duration": 0.0789472499999988,
          "durationTicks": 96,
          "midi": 55,
          "name": "G3",
          "ticks": 106944,
          "time": 87.9472365,
          "velocity": 0.6771653543307087
        },
        {
          "duration": 0.0789472499999988,
          "durationTicks": 96,
          "midi": 67,
          "name": "G4",
          "ticks": 107040,
          "time": 88.02618375,
          "velocity": 0.6771653543307087
        },
        {
          "duration": 0.0789472499999988,
          "durationTicks": 96,
          "midi": 55,
          "name": "G3",
          "ticks": 107040,
          "time": 88.02618375,
          "velocity": 0.6771653543307087
        },
        {
          "duration": 0.0789472499999988,
          "durationTicks": 96,
          "midi": 67,
          "name": "G4",
          "ticks": 107136,
          "time": 88.105131,
          "velocity": 0.6771653543307087
        },
        {
          "duration": 0.0789472499999988,
          "durationTicks": 96,
          "midi": 55,
          "name": "G3",
          "ticks": 107136,
          "time": 88.105131,
          "velocity": 0.6771653543307087
        },
        {
          "duration": 0.0789472499999988,
          "durationTicks": 96,
          "midi": 67,
          "name": "G4",
          "ticks": 107232,
          "time": 88.18407825,
          "velocity": 0.6771653543307087
        },
        {
          "duration": 0.0789472499999988,
          "durationTicks": 96,
          "midi": 55,
          "name": "G3",
          "ticks": 107232,
          "time": 88.18407825,
          "velocity": 0.6771653543307087
        },
        {
          "duration": 0.0789472499999988,
          "durationTicks": 96,
          "midi": 55,
          "name": "G3",
          "ticks": 107328,
          "time": 88.2630255,
          "velocity": 0.6771653543307087
        },
        {
          "duration": 0.0789472499999988,
          "durationTicks": 96,
          "midi": 67,
          "name": "G4",
          "ticks": 107328,
          "time": 88.2630255,
          "velocity": 0.6771653543307087
        },
        {
          "duration": 0.0789472499999988,
          "durationTicks": 96,
          "midi": 67,
          "name": "G4",
          "ticks": 107424,
          "time": 88.34197275,
          "velocity": 0.6771653543307087
        },
        {
          "duration": 0.0789472499999988,
          "durationTicks": 96,
          "midi": 55,
          "name": "G3",
          "ticks": 107424,
          "time": 88.34197275,
          "velocity": 0.6771653543307087
        },
        {
          "duration": 0.0789472499999988,
          "durationTicks": 96,
          "midi": 53,
          "name": "F3",
          "ticks": 107520,
          "time": 88.42092,
          "velocity": 0.6771653543307087
        },
        {
          "duration": 0.0789472499999988,
          "durationTicks": 96,
          "midi": 65,
          "name": "F4",
          "ticks": 107520,
          "time": 88.42092,
          "velocity": 0.6771653543307087
        },
        {
          "duration": 0.0789472499999988,
          "durationTicks": 96,
          "midi": 65,
          "name": "F4",
          "ticks": 107616,
          "time": 88.49986725,
          "velocity": 0.6771653543307087
        },
        {
          "duration": 0.0789472499999988,
          "durationTicks": 96,
          "midi": 53,
          "name": "F3",
          "ticks": 107616,
          "time": 88.49986725,
          "velocity": 0.6771653543307087
        },
        {
          "duration": 0.0789472499999988,
          "durationTicks": 96,
          "midi": 65,
          "name": "F4",
          "ticks": 107712,
          "time": 88.5788145,
          "velocity": 0.6771653543307087
        },
        {
          "duration": 0.0789472499999988,
          "durationTicks": 96,
          "midi": 53,
          "name": "F3",
          "ticks": 107712,
          "time": 88.5788145,
          "velocity": 0.6771653543307087
        },
        {
          "duration": 0.0789472499999988,
          "durationTicks": 96,
          "midi": 53,
          "name": "F3",
          "ticks": 107808,
          "time": 88.65776174999999,
          "velocity": 0.6771653543307087
        },
        {
          "duration": 0.0789472499999988,
          "durationTicks": 96,
          "midi": 65,
          "name": "F4",
          "ticks": 107808,
          "time": 88.65776174999999,
          "velocity": 0.6771653543307087
        },
        {
          "duration": 0.0789472499999988,
          "durationTicks": 96,
          "midi": 65,
          "name": "F4",
          "ticks": 107904,
          "time": 88.73670899999999,
          "velocity": 0.6771653543307087
        },
        {
          "duration": 0.0789472499999988,
          "durationTicks": 96,
          "midi": 53,
          "name": "F3",
          "ticks": 107904,
          "time": 88.73670899999999,
          "velocity": 0.6771653543307087
        },
        {
          "duration": 0.07894725000001301,
          "durationTicks": 96,
          "midi": 53,
          "name": "F3",
          "ticks": 108000,
          "time": 88.81565624999999,
          "velocity": 0.6771653543307087
        },
        {
          "duration": 0.07894725000001301,
          "durationTicks": 96,
          "midi": 65,
          "name": "F4",
          "ticks": 108000,
          "time": 88.81565624999999,
          "velocity": 0.6771653543307087
        },
        {
          "duration": 0.0789472499999988,
          "durationTicks": 96,
          "midi": 53,
          "name": "F3",
          "ticks": 108096,
          "time": 88.8946035,
          "velocity": 0.6771653543307087
        },
        {
          "duration": 0.0789472499999988,
          "durationTicks": 96,
          "midi": 65,
          "name": "F4",
          "ticks": 108096,
          "time": 88.8946035,
          "velocity": 0.6771653543307087
        },
        {
          "duration": 0.0789472499999988,
          "durationTicks": 96,
          "midi": 65,
          "name": "F4",
          "ticks": 108192,
          "time": 88.97355075,
          "velocity": 0.6771653543307087
        },
        {
          "duration": 0.0789472499999988,
          "durationTicks": 96,
          "midi": 53,
          "name": "F3",
          "ticks": 108192,
          "time": 88.97355075,
          "velocity": 0.6771653543307087
        },
        {
          "duration": 0.0789472499999988,
          "durationTicks": 96,
          "midi": 53,
          "name": "F3",
          "ticks": 108288,
          "time": 89.052498,
          "velocity": 0.6771653543307087
        },
        {
          "duration": 0.0789472499999988,
          "durationTicks": 96,
          "midi": 65,
          "name": "F4",
          "ticks": 108288,
          "time": 89.052498,
          "velocity": 0.6771653543307087
        },
        {
          "duration": 0.0789472499999988,
          "durationTicks": 96,
          "midi": 65,
          "name": "F4",
          "ticks": 108384,
          "time": 89.13144525,
          "velocity": 0.6771653543307087
        },
        {
          "duration": 0.0789472499999988,
          "durationTicks": 96,
          "midi": 53,
          "name": "F3",
          "ticks": 108384,
          "time": 89.13144525,
          "velocity": 0.6771653543307087
        },
        {
          "duration": 0.0789472499999988,
          "durationTicks": 96,
          "midi": 53,
          "name": "F3",
          "ticks": 108480,
          "time": 89.2103925,
          "velocity": 0.6771653543307087
        },
        {
          "duration": 0.0789472499999988,
          "durationTicks": 96,
          "midi": 65,
          "name": "F4",
          "ticks": 108480,
          "time": 89.2103925,
          "velocity": 0.6771653543307087
        },
        {
          "duration": 0.0789472499999988,
          "durationTicks": 96,
          "midi": 53,
          "name": "F3",
          "ticks": 108576,
          "time": 89.28933975,
          "velocity": 0.6771653543307087
        },
        {
          "duration": 0.0789472499999988,
          "durationTicks": 96,
          "midi": 65,
          "name": "F4",
          "ticks": 108576,
          "time": 89.28933975,
          "velocity": 0.6771653543307087
        },
        {
          "duration": 0.0789472499999988,
          "durationTicks": 96,
          "midi": 53,
          "name": "F3",
          "ticks": 108672,
          "time": 89.368287,
          "velocity": 0.6771653543307087
        },
        {
          "duration": 0.0789472499999988,
          "durationTicks": 96,
          "midi": 65,
          "name": "F4",
          "ticks": 108672,
          "time": 89.368287,
          "velocity": 0.6771653543307087
        },
        {
          "duration": 0.0789472499999988,
          "durationTicks": 96,
          "midi": 53,
          "name": "F3",
          "ticks": 108768,
          "time": 89.44723425,
          "velocity": 0.6771653543307087
        },
        {
          "duration": 0.0789472499999988,
          "durationTicks": 96,
          "midi": 65,
          "name": "F4",
          "ticks": 108768,
          "time": 89.44723425,
          "velocity": 0.6771653543307087
        },
        {
          "duration": 0.0789472499999988,
          "durationTicks": 96,
          "midi": 53,
          "name": "F3",
          "ticks": 108864,
          "time": 89.52618149999999,
          "velocity": 0.6771653543307087
        },
        {
          "duration": 0.0789472499999988,
          "durationTicks": 96,
          "midi": 65,
          "name": "F4",
          "ticks": 108864,
          "time": 89.52618149999999,
          "velocity": 0.6771653543307087
        },
        {
          "duration": 0.0789472499999988,
          "durationTicks": 96,
          "midi": 65,
          "name": "F4",
          "ticks": 108960,
          "time": 89.60512874999999,
          "velocity": 0.6771653543307087
        },
        {
          "duration": 0.0789472499999988,
          "durationTicks": 96,
          "midi": 53,
          "name": "F3",
          "ticks": 108960,
          "time": 89.60512874999999,
          "velocity": 0.6771653543307087
        },
        {
          "duration": 0.0789472499999988,
          "durationTicks": 96,
          "midi": 52,
          "name": "E3",
          "ticks": 109056,
          "time": 89.68407599999999,
          "velocity": 0.6771653543307087
        },
        {
          "duration": 0.0789472499999988,
          "durationTicks": 96,
          "midi": 64,
          "name": "E4",
          "ticks": 109056,
          "time": 89.68407599999999,
          "velocity": 0.6771653543307087
        },
        {
          "duration": 0.07894725000001301,
          "durationTicks": 96,
          "midi": 64,
          "name": "E4",
          "ticks": 109152,
          "time": 89.76302324999999,
          "velocity": 0.6771653543307087
        },
        {
          "duration": 0.07894725000001301,
          "durationTicks": 96,
          "midi": 52,
          "name": "E3",
          "ticks": 109152,
          "time": 89.76302324999999,
          "velocity": 0.6771653543307087
        },
        {
          "duration": 0.0789472499999988,
          "durationTicks": 96,
          "midi": 64,
          "name": "E4",
          "ticks": 109248,
          "time": 89.8419705,
          "velocity": 0.6771653543307087
        },
        {
          "duration": 0.0789472499999988,
          "durationTicks": 96,
          "midi": 52,
          "name": "E3",
          "ticks": 109248,
          "time": 89.8419705,
          "velocity": 0.6771653543307087
        },
        {
          "duration": 0.0789472499999988,
          "durationTicks": 96,
          "midi": 64,
          "name": "E4",
          "ticks": 109344,
          "time": 89.92091775,
          "velocity": 0.6771653543307087
        },
        {
          "duration": 0.0789472499999988,
          "durationTicks": 96,
          "midi": 52,
          "name": "E3",
          "ticks": 109344,
          "time": 89.92091775,
          "velocity": 0.6771653543307087
        },
        {
          "duration": 0.0789472499999988,
          "durationTicks": 96,
          "midi": 64,
          "name": "E4",
          "ticks": 109440,
          "time": 89.999865,
          "velocity": 0.6771653543307087
        },
        {
          "duration": 0.0789472499999988,
          "durationTicks": 96,
          "midi": 52,
          "name": "E3",
          "ticks": 109440,
          "time": 89.999865,
          "velocity": 0.6771653543307087
        },
        {
          "duration": 0.0789472499999988,
          "durationTicks": 96,
          "midi": 52,
          "name": "E3",
          "ticks": 109536,
          "time": 90.07881225,
          "velocity": 0.6771653543307087
        },
        {
          "duration": 0.0789472499999988,
          "durationTicks": 96,
          "midi": 64,
          "name": "E4",
          "ticks": 109536,
          "time": 90.07881225,
          "velocity": 0.6771653543307087
        },
        {
          "duration": 0.0789472499999988,
          "durationTicks": 96,
          "midi": 52,
          "name": "E3",
          "ticks": 109632,
          "time": 90.1577595,
          "velocity": 0.6771653543307087
        },
        {
          "duration": 0.0789472499999988,
          "durationTicks": 96,
          "midi": 64,
          "name": "E4",
          "ticks": 109632,
          "time": 90.1577595,
          "velocity": 0.6771653543307087
        },
        {
          "duration": 0.0789472499999988,
          "durationTicks": 96,
          "midi": 64,
          "name": "E4",
          "ticks": 109728,
          "time": 90.23670675,
          "velocity": 0.6771653543307087
        },
        {
          "duration": 0.0789472499999988,
          "durationTicks": 96,
          "midi": 52,
          "name": "E3",
          "ticks": 109728,
          "time": 90.23670675,
          "velocity": 0.6771653543307087
        },
        {
          "duration": 0.0789472499999988,
          "durationTicks": 96,
          "midi": 55,
          "name": "G3",
          "ticks": 109824,
          "time": 90.315654,
          "velocity": 0.6771653543307087
        },
        {
          "duration": 0.0789472499999988,
          "durationTicks": 96,
          "midi": 67,
          "name": "G4",
          "ticks": 109824,
          "time": 90.315654,
          "velocity": 0.6771653543307087
        },
        {
          "duration": 0.0789472499999988,
          "durationTicks": 96,
          "midi": 55,
          "name": "G3",
          "ticks": 109920,
          "time": 90.39460125,
          "velocity": 0.6771653543307087
        },
        {
          "duration": 0.0789472499999988,
          "durationTicks": 96,
          "midi": 67,
          "name": "G4",
          "ticks": 109920,
          "time": 90.39460125,
          "velocity": 0.6771653543307087
        },
        {
          "duration": 0.0789472499999988,
          "durationTicks": 96,
          "midi": 67,
          "name": "G4",
          "ticks": 110016,
          "time": 90.47354849999999,
          "velocity": 0.6771653543307087
        },
        {
          "duration": 0.0789472499999988,
          "durationTicks": 96,
          "midi": 55,
          "name": "G3",
          "ticks": 110016,
          "time": 90.47354849999999,
          "velocity": 0.6771653543307087
        },
        {
          "duration": 0.0789472499999988,
          "durationTicks": 96,
          "midi": 67,
          "name": "G4",
          "ticks": 110112,
          "time": 90.55249574999999,
          "velocity": 0.6771653543307087
        },
        {
          "duration": 0.0789472499999988,
          "durationTicks": 96,
          "midi": 55,
          "name": "G3",
          "ticks": 110112,
          "time": 90.55249574999999,
          "velocity": 0.6771653543307087
        },
        {
          "duration": 0.0789472499999988,
          "durationTicks": 96,
          "midi": 55,
          "name": "G3",
          "ticks": 110208,
          "time": 90.63144299999999,
          "velocity": 0.6771653543307087
        },
        {
          "duration": 0.0789472499999988,
          "durationTicks": 96,
          "midi": 67,
          "name": "G4",
          "ticks": 110208,
          "time": 90.63144299999999,
          "velocity": 0.6771653543307087
        },
        {
          "duration": 0.07894725000001301,
          "durationTicks": 96,
          "midi": 55,
          "name": "G3",
          "ticks": 110304,
          "time": 90.71039024999999,
          "velocity": 0.6771653543307087
        },
        {
          "duration": 0.07894725000001301,
          "durationTicks": 96,
          "midi": 67,
          "name": "G4",
          "ticks": 110304,
          "time": 90.71039024999999,
          "velocity": 0.6771653543307087
        },
        {
          "duration": 0.0789472499999988,
          "durationTicks": 96,
          "midi": 55,
          "name": "G3",
          "ticks": 110400,
          "time": 90.7893375,
          "velocity": 0.6771653543307087
        },
        {
          "duration": 0.0789472499999988,
          "durationTicks": 96,
          "midi": 67,
          "name": "G4",
          "ticks": 110400,
          "time": 90.7893375,
          "velocity": 0.6771653543307087
        },
        {
          "duration": 0.0789472499999988,
          "durationTicks": 96,
          "midi": 67,
          "name": "G4",
          "ticks": 110496,
          "time": 90.86828475,
          "velocity": 0.6771653543307087
        },
        {
          "duration": 0.0789472499999988,
          "durationTicks": 96,
          "midi": 55,
          "name": "G3",
          "ticks": 110496,
          "time": 90.86828475,
          "velocity": 0.6771653543307087
        },
        {
          "duration": 0.0789472499999988,
          "durationTicks": 96,
          "midi": 65,
          "name": "F4",
          "ticks": 110592,
          "time": 90.947232,
          "velocity": 0.6771653543307087
        },
        {
          "duration": 0.0789472499999988,
          "durationTicks": 96,
          "midi": 53,
          "name": "F3",
          "ticks": 110592,
          "time": 90.947232,
          "velocity": 0.6771653543307087
        },
        {
          "duration": 0.0789472499999988,
          "durationTicks": 96,
          "midi": 65,
          "name": "F4",
          "ticks": 110688,
          "time": 91.02617925,
          "velocity": 0.6771653543307087
        },
        {
          "duration": 0.0789472499999988,
          "durationTicks": 96,
          "midi": 53,
          "name": "F3",
          "ticks": 110688,
          "time": 91.02617925,
          "velocity": 0.6771653543307087
        },
        {
          "duration": 0.0789472499999988,
          "durationTicks": 96,
          "midi": 65,
          "name": "F4",
          "ticks": 110784,
          "time": 91.1051265,
          "velocity": 0.6771653543307087
        },
        {
          "duration": 0.0789472499999988,
          "durationTicks": 96,
          "midi": 53,
          "name": "F3",
          "ticks": 110784,
          "time": 91.1051265,
          "velocity": 0.6771653543307087
        },
        {
          "duration": 0.0789472499999988,
          "durationTicks": 96,
          "midi": 65,
          "name": "F4",
          "ticks": 110880,
          "time": 91.18407375,
          "velocity": 0.6771653543307087
        },
        {
          "duration": 0.0789472499999988,
          "durationTicks": 96,
          "midi": 53,
          "name": "F3",
          "ticks": 110880,
          "time": 91.18407375,
          "velocity": 0.6771653543307087
        },
        {
          "duration": 0.0789472499999988,
          "durationTicks": 96,
          "midi": 53,
          "name": "F3",
          "ticks": 110976,
          "time": 91.263021,
          "velocity": 0.6771653543307087
        },
        {
          "duration": 0.0789472499999988,
          "durationTicks": 96,
          "midi": 65,
          "name": "F4",
          "ticks": 110976,
          "time": 91.263021,
          "velocity": 0.6771653543307087
        },
        {
          "duration": 0.0789472499999988,
          "durationTicks": 96,
          "midi": 65,
          "name": "F4",
          "ticks": 111072,
          "time": 91.34196825,
          "velocity": 0.6771653543307087
        },
        {
          "duration": 0.0789472499999988,
          "durationTicks": 96,
          "midi": 53,
          "name": "F3",
          "ticks": 111072,
          "time": 91.34196825,
          "velocity": 0.6771653543307087
        },
        {
          "duration": 0.0789472499999988,
          "durationTicks": 96,
          "midi": 65,
          "name": "F4",
          "ticks": 111168,
          "time": 91.42091549999999,
          "velocity": 0.6771653543307087
        },
        {
          "duration": 0.0789472499999988,
          "durationTicks": 96,
          "midi": 53,
          "name": "F3",
          "ticks": 111168,
          "time": 91.42091549999999,
          "velocity": 0.6771653543307087
        },
        {
          "duration": 0.0789472499999988,
          "durationTicks": 96,
          "midi": 65,
          "name": "F4",
          "ticks": 111264,
          "time": 91.49986274999999,
          "velocity": 0.6771653543307087
        },
        {
          "duration": 0.0789472499999988,
          "durationTicks": 96,
          "midi": 53,
          "name": "F3",
          "ticks": 111264,
          "time": 91.49986274999999,
          "velocity": 0.6771653543307087
        },
        {
          "duration": 0.07894725000001301,
          "durationTicks": 96,
          "midi": 65,
          "name": "F4",
          "ticks": 111360,
          "time": 91.57880999999999,
          "velocity": 0.6771653543307087
        },
        {
          "duration": 0.07894725000001301,
          "durationTicks": 96,
          "midi": 53,
          "name": "F3",
          "ticks": 111360,
          "time": 91.57880999999999,
          "velocity": 0.6771653543307087
        },
        {
          "duration": 0.0789472499999988,
          "durationTicks": 96,
          "midi": 65,
          "name": "F4",
          "ticks": 111456,
          "time": 91.65775725,
          "velocity": 0.6771653543307087
        },
        {
          "duration": 0.0789472499999988,
          "durationTicks": 96,
          "midi": 53,
          "name": "F3",
          "ticks": 111456,
          "time": 91.65775725,
          "velocity": 0.6771653543307087
        },
        {
          "duration": 0.0789472499999988,
          "durationTicks": 96,
          "midi": 65,
          "name": "F4",
          "ticks": 111552,
          "time": 91.7367045,
          "velocity": 0.6771653543307087
        },
        {
          "duration": 0.0789472499999988,
          "durationTicks": 96,
          "midi": 53,
          "name": "F3",
          "ticks": 111552,
          "time": 91.7367045,
          "velocity": 0.6771653543307087
        },
        {
          "duration": 0.0789472499999988,
          "durationTicks": 96,
          "midi": 65,
          "name": "F4",
          "ticks": 111648,
          "time": 91.81565175,
          "velocity": 0.6771653543307087
        },
        {
          "duration": 0.0789472499999988,
          "durationTicks": 96,
          "midi": 53,
          "name": "F3",
          "ticks": 111648,
          "time": 91.81565175,
          "velocity": 0.6771653543307087
        },
        {
          "duration": 0.0789472499999988,
          "durationTicks": 96,
          "midi": 65,
          "name": "F4",
          "ticks": 111744,
          "time": 91.894599,
          "velocity": 0.6771653543307087
        },
        {
          "duration": 0.0789472499999988,
          "durationTicks": 96,
          "midi": 53,
          "name": "F3",
          "ticks": 111744,
          "time": 91.894599,
          "velocity": 0.6771653543307087
        },
        {
          "duration": 0.0789472499999988,
          "durationTicks": 96,
          "midi": 65,
          "name": "F4",
          "ticks": 111840,
          "time": 91.97354625,
          "velocity": 0.6771653543307087
        },
        {
          "duration": 0.0789472499999988,
          "durationTicks": 96,
          "midi": 53,
          "name": "F3",
          "ticks": 111840,
          "time": 91.97354625,
          "velocity": 0.6771653543307087
        },
        {
          "duration": 0.0789472499999988,
          "durationTicks": 96,
          "midi": 53,
          "name": "F3",
          "ticks": 111936,
          "time": 92.0524935,
          "velocity": 0.6771653543307087
        },
        {
          "duration": 0.0789472499999988,
          "durationTicks": 96,
          "midi": 65,
          "name": "F4",
          "ticks": 111936,
          "time": 92.0524935,
          "velocity": 0.6771653543307087
        },
        {
          "duration": 0.0789472499999988,
          "durationTicks": 96,
          "midi": 53,
          "name": "F3",
          "ticks": 112032,
          "time": 92.13144075,
          "velocity": 0.6771653543307087
        },
        {
          "duration": 0.0789472499999988,
          "durationTicks": 96,
          "midi": 65,
          "name": "F4",
          "ticks": 112032,
          "time": 92.13144075,
          "velocity": 0.6771653543307087
        },
        {
          "duration": 0.0789472499999988,
          "durationTicks": 96,
          "midi": 53,
          "name": "F3",
          "ticks": 112128,
          "time": 92.210388,
          "velocity": 0.6771653543307087
        },
        {
          "duration": 0.0789472499999988,
          "durationTicks": 96,
          "midi": 65,
          "name": "F4",
          "ticks": 112128,
          "time": 92.210388,
          "velocity": 0.6771653543307087
        },
        {
          "duration": 0.0789472499999988,
          "durationTicks": 96,
          "midi": 65,
          "name": "F4",
          "ticks": 112224,
          "time": 92.28933525,
          "velocity": 0.6771653543307087
        },
        {
          "duration": 0.0789472499999988,
          "durationTicks": 96,
          "midi": 53,
          "name": "F3",
          "ticks": 112224,
          "time": 92.28933525,
          "velocity": 0.6771653543307087
        },
        {
          "duration": 0.0789472499999988,
          "durationTicks": 96,
          "midi": 65,
          "name": "F4",
          "ticks": 112320,
          "time": 92.36828249999999,
          "velocity": 0.6771653543307087
        },
        {
          "duration": 0.0789472499999988,
          "durationTicks": 96,
          "midi": 53,
          "name": "F3",
          "ticks": 112320,
          "time": 92.36828249999999,
          "velocity": 0.6771653543307087
        },
        {
          "duration": 0.0789472499999988,
          "durationTicks": 96,
          "midi": 65,
          "name": "F4",
          "ticks": 112416,
          "time": 92.44722974999999,
          "velocity": 0.6771653543307087
        },
        {
          "duration": 0.0789472499999988,
          "durationTicks": 96,
          "midi": 53,
          "name": "F3",
          "ticks": 112416,
          "time": 92.44722974999999,
          "velocity": 0.6771653543307087
        },
        {
          "duration": 0.07894725000001301,
          "durationTicks": 96,
          "midi": 53,
          "name": "F3",
          "ticks": 112512,
          "time": 92.52617699999999,
          "velocity": 0.6771653543307087
        },
        {
          "duration": 0.07894725000001301,
          "durationTicks": 96,
          "midi": 65,
          "name": "F4",
          "ticks": 112512,
          "time": 92.52617699999999,
          "velocity": 0.6771653543307087
        },
        {
          "duration": 0.0789472499999988,
          "durationTicks": 96,
          "midi": 65,
          "name": "F4",
          "ticks": 112608,
          "time": 92.60512425,
          "velocity": 0.6771653543307087
        },
        {
          "duration": 0.0789472499999988,
          "durationTicks": 96,
          "midi": 53,
          "name": "F3",
          "ticks": 112608,
          "time": 92.60512425,
          "velocity": 0.6771653543307087
        },
        {
          "duration": 0.0789472499999988,
          "durationTicks": 96,
          "midi": 65,
          "name": "F4",
          "ticks": 112704,
          "time": 92.6840715,
          "velocity": 0.6771653543307087
        },
        {
          "duration": 0.0789472499999988,
          "durationTicks": 96,
          "midi": 53,
          "name": "F3",
          "ticks": 112704,
          "time": 92.6840715,
          "velocity": 0.6771653543307087
        },
        {
          "duration": 0.0789472499999988,
          "durationTicks": 96,
          "midi": 53,
          "name": "F3",
          "ticks": 112800,
          "time": 92.76301875,
          "velocity": 0.6771653543307087
        },
        {
          "duration": 0.0789472499999988,
          "durationTicks": 96,
          "midi": 65,
          "name": "F4",
          "ticks": 112800,
          "time": 92.76301875,
          "velocity": 0.6771653543307087
        },
        {
          "duration": 0.0789472499999988,
          "durationTicks": 96,
          "midi": 67,
          "name": "G4",
          "ticks": 112896,
          "time": 92.841966,
          "velocity": 0.6771653543307087
        },
        {
          "duration": 0.0789472499999988,
          "durationTicks": 96,
          "midi": 55,
          "name": "G3",
          "ticks": 112896,
          "time": 92.841966,
          "velocity": 0.6771653543307087
        },
        {
          "duration": 0.0789472499999988,
          "durationTicks": 96,
          "midi": 55,
          "name": "G3",
          "ticks": 112992,
          "time": 92.92091325,
          "velocity": 0.6771653543307087
        },
        {
          "duration": 0.0789472499999988,
          "durationTicks": 96,
          "midi": 67,
          "name": "G4",
          "ticks": 112992,
          "time": 92.92091325,
          "velocity": 0.6771653543307087
        },
        {
          "duration": 0.0789472499999988,
          "durationTicks": 96,
          "midi": 67,
          "name": "G4",
          "ticks": 113088,
          "time": 92.9998605,
          "velocity": 0.6771653543307087
        },
        {
          "duration": 0.0789472499999988,
          "durationTicks": 96,
          "midi": 55,
          "name": "G3",
          "ticks": 113088,
          "time": 92.9998605,
          "velocity": 0.6771653543307087
        },
        {
          "duration": 0.0789472499999988,
          "durationTicks": 96,
          "midi": 55,
          "name": "G3",
          "ticks": 113184,
          "time": 93.07880775,
          "velocity": 0.6771653543307087
        },
        {
          "duration": 0.0789472499999988,
          "durationTicks": 96,
          "midi": 67,
          "name": "G4",
          "ticks": 113184,
          "time": 93.07880775,
          "velocity": 0.6771653543307087
        },
        {
          "duration": 0.0789472499999988,
          "durationTicks": 96,
          "midi": 67,
          "name": "G4",
          "ticks": 113280,
          "time": 93.157755,
          "velocity": 0.6771653543307087
        },
        {
          "duration": 0.0789472499999988,
          "durationTicks": 96,
          "midi": 55,
          "name": "G3",
          "ticks": 113280,
          "time": 93.157755,
          "velocity": 0.6771653543307087
        },
        {
          "duration": 0.0789472499999988,
          "durationTicks": 96,
          "midi": 55,
          "name": "G3",
          "ticks": 113376,
          "time": 93.23670225,
          "velocity": 0.6771653543307087
        },
        {
          "duration": 0.0789472499999988,
          "durationTicks": 96,
          "midi": 67,
          "name": "G4",
          "ticks": 113376,
          "time": 93.23670225,
          "velocity": 0.6771653543307087
        },
        {
          "duration": 0.0789472499999988,
          "durationTicks": 96,
          "midi": 67,
          "name": "G4",
          "ticks": 113472,
          "time": 93.31564949999999,
          "velocity": 0.6771653543307087
        },
        {
          "duration": 0.0789472499999988,
          "durationTicks": 96,
          "midi": 55,
          "name": "G3",
          "ticks": 113472,
          "time": 93.31564949999999,
          "velocity": 0.6771653543307087
        },
        {
          "duration": 0.0789472499999988,
          "durationTicks": 96,
          "midi": 67,
          "name": "G4",
          "ticks": 113568,
          "time": 93.39459674999999,
          "velocity": 0.6771653543307087
        },
        {
          "duration": 0.0789472499999988,
          "durationTicks": 96,
          "midi": 55,
          "name": "G3",
          "ticks": 113568,
          "time": 93.39459674999999,
          "velocity": 0.6771653543307087
        },
        {
          "duration": 0.07894725000001301,
          "durationTicks": 96,
          "midi": 56,
          "name": "G#3",
          "ticks": 113664,
          "time": 93.47354399999999,
          "velocity": 0.6771653543307087
        },
        {
          "duration": 0.07894725000001301,
          "durationTicks": 96,
          "midi": 68,
          "name": "G#4",
          "ticks": 113664,
          "time": 93.47354399999999,
          "velocity": 0.6771653543307087
        },
        {
          "duration": 0.0789472499999988,
          "durationTicks": 96,
          "midi": 68,
          "name": "G#4",
          "ticks": 113760,
          "time": 93.55249125,
          "velocity": 0.6771653543307087
        },
        {
          "duration": 0.0789472499999988,
          "durationTicks": 96,
          "midi": 56,
          "name": "G#3",
          "ticks": 113760,
          "time": 93.55249125,
          "velocity": 0.6771653543307087
        },
        {
          "duration": 0.0789472499999988,
          "durationTicks": 96,
          "midi": 56,
          "name": "G#3",
          "ticks": 113856,
          "time": 93.6314385,
          "velocity": 0.6771653543307087
        },
        {
          "duration": 0.0789472499999988,
          "durationTicks": 96,
          "midi": 68,
          "name": "G#4",
          "ticks": 113856,
          "time": 93.6314385,
          "velocity": 0.6771653543307087
        },
        {
          "duration": 0.0789472499999988,
          "durationTicks": 96,
          "midi": 56,
          "name": "G#3",
          "ticks": 113952,
          "time": 93.71038575,
          "velocity": 0.6771653543307087
        },
        {
          "duration": 0.0789472499999988,
          "durationTicks": 96,
          "midi": 68,
          "name": "G#4",
          "ticks": 113952,
          "time": 93.71038575,
          "velocity": 0.6771653543307087
        },
        {
          "duration": 0.0789472499999988,
          "durationTicks": 96,
          "midi": 68,
          "name": "G#4",
          "ticks": 114048,
          "time": 93.789333,
          "velocity": 0.6771653543307087
        },
        {
          "duration": 0.0789472499999988,
          "durationTicks": 96,
          "midi": 56,
          "name": "G#3",
          "ticks": 114048,
          "time": 93.789333,
          "velocity": 0.6771653543307087
        },
        {
          "duration": 0.0789472499999988,
          "durationTicks": 96,
          "midi": 68,
          "name": "G#4",
          "ticks": 114144,
          "time": 93.86828025,
          "velocity": 0.6771653543307087
        },
        {
          "duration": 0.0789472499999988,
          "durationTicks": 96,
          "midi": 56,
          "name": "G#3",
          "ticks": 114144,
          "time": 93.86828025,
          "velocity": 0.6771653543307087
        },
        {
          "duration": 0.0789472499999988,
          "durationTicks": 96,
          "midi": 56,
          "name": "G#3",
          "ticks": 114240,
          "time": 93.9472275,
          "velocity": 0.6771653543307087
        },
        {
          "duration": 0.0789472499999988,
          "durationTicks": 96,
          "midi": 68,
          "name": "G#4",
          "ticks": 114240,
          "time": 93.9472275,
          "velocity": 0.6771653543307087
        },
        {
          "duration": 0.0789472499999988,
          "durationTicks": 96,
          "midi": 56,
          "name": "G#3",
          "ticks": 114336,
          "time": 94.02617475,
          "velocity": 0.6771653543307087
        },
        {
          "duration": 0.0789472499999988,
          "durationTicks": 96,
          "midi": 68,
          "name": "G#4",
          "ticks": 114336,
          "time": 94.02617475,
          "velocity": 0.6771653543307087
        },
        {
          "duration": 0.0789472499999988,
          "durationTicks": 96,
          "midi": 56,
          "name": "G#3",
          "ticks": 114432,
          "time": 94.105122,
          "velocity": 0.6771653543307087
        },
        {
          "duration": 0.0789472499999988,
          "durationTicks": 96,
          "midi": 68,
          "name": "G#4",
          "ticks": 114432,
          "time": 94.105122,
          "velocity": 0.6771653543307087
        },
        {
          "duration": 0.0789472499999988,
          "durationTicks": 96,
          "midi": 68,
          "name": "G#4",
          "ticks": 114528,
          "time": 94.18406925,
          "velocity": 0.6771653543307087
        },
        {
          "duration": 0.0789472499999988,
          "durationTicks": 96,
          "midi": 56,
          "name": "G#3",
          "ticks": 114528,
          "time": 94.18406925,
          "velocity": 0.6771653543307087
        },
        {
          "duration": 0.0789472499999988,
          "durationTicks": 96,
          "midi": 68,
          "name": "G#4",
          "ticks": 114624,
          "time": 94.26301649999999,
          "velocity": 0.6771653543307087
        },
        {
          "duration": 0.0789472499999988,
          "durationTicks": 96,
          "midi": 56,
          "name": "G#3",
          "ticks": 114624,
          "time": 94.26301649999999,
          "velocity": 0.6771653543307087
        },
        {
          "duration": 0.0789472499999988,
          "durationTicks": 96,
          "midi": 56,
          "name": "G#3",
          "ticks": 114720,
          "time": 94.34196374999999,
          "velocity": 0.6771653543307087
        },
        {
          "duration": 0.0789472499999988,
          "durationTicks": 96,
          "midi": 68,
          "name": "G#4",
          "ticks": 114720,
          "time": 94.34196374999999,
          "velocity": 0.6771653543307087
        },
        {
          "duration": 0.07894725000001301,
          "durationTicks": 96,
          "midi": 56,
          "name": "G#3",
          "ticks": 114816,
          "time": 94.42091099999999,
          "velocity": 0.6771653543307087
        },
        {
          "duration": 0.07894725000001301,
          "durationTicks": 96,
          "midi": 68,
          "name": "G#4",
          "ticks": 114816,
          "time": 94.42091099999999,
          "velocity": 0.6771653543307087
        },
        {
          "duration": 0.0789472499999988,
          "durationTicks": 96,
          "midi": 68,
          "name": "G#4",
          "ticks": 114912,
          "time": 94.49985825,
          "velocity": 0.6771653543307087
        },
        {
          "duration": 0.0789472499999988,
          "durationTicks": 96,
          "midi": 56,
          "name": "G#3",
          "ticks": 114912,
          "time": 94.49985825,
          "velocity": 0.6771653543307087
        },
        {
          "duration": 0.0789472499999988,
          "durationTicks": 96,
          "midi": 68,
          "name": "G#4",
          "ticks": 115008,
          "time": 94.5788055,
          "velocity": 0.6771653543307087
        },
        {
          "duration": 0.0789472499999988,
          "durationTicks": 96,
          "midi": 56,
          "name": "G#3",
          "ticks": 115008,
          "time": 94.5788055,
          "velocity": 0.6771653543307087
        },
        {
          "duration": 0.0789472499999988,
          "durationTicks": 96,
          "midi": 68,
          "name": "G#4",
          "ticks": 115104,
          "time": 94.65775275,
          "velocity": 0.6771653543307087
        },
        {
          "duration": 0.0789472499999988,
          "durationTicks": 96,
          "midi": 56,
          "name": "G#3",
          "ticks": 115104,
          "time": 94.65775275,
          "velocity": 0.6771653543307087
        },
        {
          "duration": 0.0789472499999988,
          "durationTicks": 96,
          "midi": 56,
          "name": "G#3",
          "ticks": 115200,
          "time": 94.7367,
          "velocity": 0.6771653543307087
        },
        {
          "duration": 0.0789472499999988,
          "durationTicks": 96,
          "midi": 68,
          "name": "G#4",
          "ticks": 115200,
          "time": 94.7367,
          "velocity": 0.6771653543307087
        },
        {
          "duration": 0.0789472499999988,
          "durationTicks": 96,
          "midi": 68,
          "name": "G#4",
          "ticks": 115296,
          "time": 94.81564725,
          "velocity": 0.6771653543307087
        },
        {
          "duration": 0.0789472499999988,
          "durationTicks": 96,
          "midi": 56,
          "name": "G#3",
          "ticks": 115296,
          "time": 94.81564725,
          "velocity": 0.6771653543307087
        },
        {
          "duration": 0.0789472499999988,
          "durationTicks": 96,
          "midi": 68,
          "name": "G#4",
          "ticks": 115392,
          "time": 94.8945945,
          "velocity": 0.6771653543307087
        },
        {
          "duration": 0.0789472499999988,
          "durationTicks": 96,
          "midi": 56,
          "name": "G#3",
          "ticks": 115392,
          "time": 94.8945945,
          "velocity": 0.6771653543307087
        },
        {
          "duration": 0.0789472499999988,
          "durationTicks": 96,
          "midi": 56,
          "name": "G#3",
          "ticks": 115488,
          "time": 94.97354175,
          "velocity": 0.6771653543307087
        },
        {
          "duration": 0.0789472499999988,
          "durationTicks": 96,
          "midi": 68,
          "name": "G#4",
          "ticks": 115488,
          "time": 94.97354175,
          "velocity": 0.6771653543307087
        },
        {
          "duration": 0.0789472499999988,
          "durationTicks": 96,
          "midi": 56,
          "name": "G#3",
          "ticks": 115584,
          "time": 95.052489,
          "velocity": 0.6771653543307087
        },
        {
          "duration": 0.0789472499999988,
          "durationTicks": 96,
          "midi": 68,
          "name": "G#4",
          "ticks": 115584,
          "time": 95.052489,
          "velocity": 0.6771653543307087
        },
        {
          "duration": 0.0789472499999988,
          "durationTicks": 96,
          "midi": 56,
          "name": "G#3",
          "ticks": 115680,
          "time": 95.13143625,
          "velocity": 0.6771653543307087
        },
        {
          "duration": 0.0789472499999988,
          "durationTicks": 96,
          "midi": 68,
          "name": "G#4",
          "ticks": 115680,
          "time": 95.13143625,
          "velocity": 0.6771653543307087
        },
        {
          "duration": 0.0789472499999988,
          "durationTicks": 96,
          "midi": 68,
          "name": "G#4",
          "ticks": 115776,
          "time": 95.21038349999999,
          "velocity": 0.6771653543307087
        },
        {
          "duration": 0.0789472499999988,
          "durationTicks": 96,
          "midi": 56,
          "name": "G#3",
          "ticks": 115776,
          "time": 95.21038349999999,
          "velocity": 0.6771653543307087
        },
        {
          "duration": 0.0789472499999988,
          "durationTicks": 96,
          "midi": 56,
          "name": "G#3",
          "ticks": 115872,
          "time": 95.28933074999999,
          "velocity": 0.6771653543307087
        },
        {
          "duration": 0.0789472499999988,
          "durationTicks": 96,
          "midi": 68,
          "name": "G#4",
          "ticks": 115872,
          "time": 95.28933074999999,
          "velocity": 0.6771653543307087
        },
        {
          "duration": 0.07894725000001301,
          "durationTicks": 96,
          "midi": 63,
          "name": "D#4",
          "ticks": 115968,
          "time": 95.36827799999999,
          "velocity": 0.6771653543307087
        },
        {
          "duration": 0.07894725000001301,
          "durationTicks": 96,
          "midi": 75,
          "name": "D#5",
          "ticks": 115968,
          "time": 95.36827799999999,
          "velocity": 0.6771653543307087
        },
        {
          "duration": 0.0789472499999988,
          "durationTicks": 96,
          "midi": 63,
          "name": "D#4",
          "ticks": 116064,
          "time": 95.44722525,
          "velocity": 0.6771653543307087
        },
        {
          "duration": 0.0789472499999988,
          "durationTicks": 96,
          "midi": 75,
          "name": "D#5",
          "ticks": 116064,
          "time": 95.44722525,
          "velocity": 0.6771653543307087
        },
        {
          "duration": 0.0789472499999988,
          "durationTicks": 96,
          "midi": 63,
          "name": "D#4",
          "ticks": 116160,
          "time": 95.5261725,
          "velocity": 0.6771653543307087
        },
        {
          "duration": 0.0789472499999988,
          "durationTicks": 96,
          "midi": 75,
          "name": "D#5",
          "ticks": 116160,
          "time": 95.5261725,
          "velocity": 0.6771653543307087
        },
        {
          "duration": 0.0789472499999988,
          "durationTicks": 96,
          "midi": 75,
          "name": "D#5",
          "ticks": 116256,
          "time": 95.60511975,
          "velocity": 0.6771653543307087
        },
        {
          "duration": 0.0789472499999988,
          "durationTicks": 96,
          "midi": 63,
          "name": "D#4",
          "ticks": 116256,
          "time": 95.60511975,
          "velocity": 0.6771653543307087
        },
        {
          "duration": 0.0789472499999988,
          "durationTicks": 96,
          "midi": 63,
          "name": "D#4",
          "ticks": 116352,
          "time": 95.684067,
          "velocity": 0.6771653543307087
        },
        {
          "duration": 0.0789472499999988,
          "durationTicks": 96,
          "midi": 75,
          "name": "D#5",
          "ticks": 116352,
          "time": 95.684067,
          "velocity": 0.6771653543307087
        },
        {
          "duration": 0.0789472499999988,
          "durationTicks": 96,
          "midi": 63,
          "name": "D#4",
          "ticks": 116448,
          "time": 95.76301425,
          "velocity": 0.6771653543307087
        },
        {
          "duration": 0.0789472499999988,
          "durationTicks": 96,
          "midi": 75,
          "name": "D#5",
          "ticks": 116448,
          "time": 95.76301425,
          "velocity": 0.6771653543307087
        },
        {
          "duration": 0.0789472499999988,
          "durationTicks": 96,
          "midi": 63,
          "name": "D#4",
          "ticks": 116544,
          "time": 95.8419615,
          "velocity": 0.6771653543307087
        },
        {
          "duration": 0.0789472499999988,
          "durationTicks": 96,
          "midi": 75,
          "name": "D#5",
          "ticks": 116544,
          "time": 95.8419615,
          "velocity": 0.6771653543307087
        },
        {
          "duration": 0.0789472499999988,
          "durationTicks": 96,
          "midi": 63,
          "name": "D#4",
          "ticks": 116640,
          "time": 95.92090875,
          "velocity": 0.6771653543307087
        },
        {
          "duration": 0.0789472499999988,
          "durationTicks": 96,
          "midi": 75,
          "name": "D#5",
          "ticks": 116640,
          "time": 95.92090875,
          "velocity": 0.6771653543307087
        },
        {
          "duration": 0.0789472499999988,
          "durationTicks": 96,
          "midi": 77,
          "name": "F5",
          "ticks": 116736,
          "time": 95.999856,
          "velocity": 0.6771653543307087
        },
        {
          "duration": 0.0789472499999988,
          "durationTicks": 96,
          "midi": 65,
          "name": "F4",
          "ticks": 116736,
          "time": 95.999856,
          "velocity": 0.6771653543307087
        },
        {
          "duration": 0.0789472499999988,
          "durationTicks": 96,
          "midi": 65,
          "name": "F4",
          "ticks": 116832,
          "time": 96.07880324999999,
          "velocity": 0.6771653543307087
        },
        {
          "duration": 0.0789472499999988,
          "durationTicks": 96,
          "midi": 77,
          "name": "F5",
          "ticks": 116832,
          "time": 96.07880324999999,
          "velocity": 0.6771653543307087
        },
        {
          "duration": 0.0789472499999988,
          "durationTicks": 96,
          "midi": 65,
          "name": "F4",
          "ticks": 116928,
          "time": 96.15775049999999,
          "velocity": 0.6771653543307087
        },
        {
          "duration": 0.0789472499999988,
          "durationTicks": 96,
          "midi": 77,
          "name": "F5",
          "ticks": 116928,
          "time": 96.15775049999999,
          "velocity": 0.6771653543307087
        },
        {
          "duration": 0.0789472499999988,
          "durationTicks": 96,
          "midi": 77,
          "name": "F5",
          "ticks": 117024,
          "time": 96.23669774999999,
          "velocity": 0.6771653543307087
        },
        {
          "duration": 0.0789472499999988,
          "durationTicks": 96,
          "midi": 65,
          "name": "F4",
          "ticks": 117024,
          "time": 96.23669774999999,
          "velocity": 0.6771653543307087
        },
        {
          "duration": 0.07894725000001301,
          "durationTicks": 96,
          "midi": 65,
          "name": "F4",
          "ticks": 117120,
          "time": 96.31564499999999,
          "velocity": 0.6771653543307087
        },
        {
          "duration": 0.07894725000001301,
          "durationTicks": 96,
          "midi": 77,
          "name": "F5",
          "ticks": 117120,
          "time": 96.31564499999999,
          "velocity": 0.6771653543307087
        },
        {
          "duration": 0.0789472499999988,
          "durationTicks": 96,
          "midi": 65,
          "name": "F4",
          "ticks": 117216,
          "time": 96.39459225,
          "velocity": 0.6771653543307087
        },
        {
          "duration": 0.0789472499999988,
          "durationTicks": 96,
          "midi": 77,
          "name": "F5",
          "ticks": 117216,
          "time": 96.39459225,
          "velocity": 0.6771653543307087
        },
        {
          "duration": 0.0789472499999988,
          "durationTicks": 96,
          "midi": 77,
          "name": "F5",
          "ticks": 117312,
          "time": 96.4735395,
          "velocity": 0.6771653543307087
        },
        {
          "duration": 0.0789472499999988,
          "durationTicks": 96,
          "midi": 65,
          "name": "F4",
          "ticks": 117312,
          "time": 96.4735395,
          "velocity": 0.6771653543307087
        },
        {
          "duration": 0.0789472499999988,
          "durationTicks": 96,
          "midi": 77,
          "name": "F5",
          "ticks": 117408,
          "time": 96.55248675,
          "velocity": 0.6771653543307087
        },
        {
          "duration": 0.0789472499999988,
          "durationTicks": 96,
          "midi": 65,
          "name": "F4",
          "ticks": 117408,
          "time": 96.55248675,
          "velocity": 0.6771653543307087
        },
        {
          "duration": 0.0789472499999988,
          "durationTicks": 96,
          "midi": 65,
          "name": "F4",
          "ticks": 117504,
          "time": 96.631434,
          "velocity": 0.6771653543307087
        },
        {
          "duration": 0.0789472499999988,
          "durationTicks": 96,
          "midi": 77,
          "name": "F5",
          "ticks": 117504,
          "time": 96.631434,
          "velocity": 0.6771653543307087
        },
        {
          "duration": 0.0789472499999988,
          "durationTicks": 96,
          "midi": 65,
          "name": "F4",
          "ticks": 117600,
          "time": 96.71038125,
          "velocity": 0.6771653543307087
        },
        {
          "duration": 0.0789472499999988,
          "durationTicks": 96,
          "midi": 77,
          "name": "F5",
          "ticks": 117600,
          "time": 96.71038125,
          "velocity": 0.6771653543307087
        },
        {
          "duration": 0.0789472499999988,
          "durationTicks": 96,
          "midi": 65,
          "name": "F4",
          "ticks": 117696,
          "time": 96.7893285,
          "velocity": 0.6771653543307087
        },
        {
          "duration": 0.0789472499999988,
          "durationTicks": 96,
          "midi": 77,
          "name": "F5",
          "ticks": 117696,
          "time": 96.7893285,
          "velocity": 0.6771653543307087
        },
        {
          "duration": 0.0789472499999988,
          "durationTicks": 96,
          "midi": 77,
          "name": "F5",
          "ticks": 117792,
          "time": 96.86827575,
          "velocity": 0.6771653543307087
        },
        {
          "duration": 0.0789472499999988,
          "durationTicks": 96,
          "midi": 65,
          "name": "F4",
          "ticks": 117792,
          "time": 96.86827575,
          "velocity": 0.6771653543307087
        },
        {
          "duration": 0.0789472499999988,
          "durationTicks": 96,
          "midi": 77,
          "name": "F5",
          "ticks": 117888,
          "time": 96.947223,
          "velocity": 0.6771653543307087
        },
        {
          "duration": 0.0789472499999988,
          "durationTicks": 96,
          "midi": 65,
          "name": "F4",
          "ticks": 117888,
          "time": 96.947223,
          "velocity": 0.6771653543307087
        },
        {
          "duration": 0.0789472499999988,
          "durationTicks": 96,
          "midi": 65,
          "name": "F4",
          "ticks": 117984,
          "time": 97.02617024999999,
          "velocity": 0.6771653543307087
        },
        {
          "duration": 0.0789472499999988,
          "durationTicks": 96,
          "midi": 77,
          "name": "F5",
          "ticks": 117984,
          "time": 97.02617024999999,
          "velocity": 0.6771653543307087
        },
        {
          "duration": 0.0789472499999988,
          "durationTicks": 96,
          "midi": 65,
          "name": "F4",
          "ticks": 118080,
          "time": 97.10511749999999,
          "velocity": 0.6771653543307087
        },
        {
          "duration": 0.0789472499999988,
          "durationTicks": 96,
          "midi": 77,
          "name": "F5",
          "ticks": 118080,
          "time": 97.10511749999999,
          "velocity": 0.6771653543307087
        },
        {
          "duration": 0.0789472499999988,
          "durationTicks": 96,
          "midi": 77,
          "name": "F5",
          "ticks": 118176,
          "time": 97.18406474999999,
          "velocity": 0.6771653543307087
        },
        {
          "duration": 0.0789472499999988,
          "durationTicks": 96,
          "midi": 65,
          "name": "F4",
          "ticks": 118176,
          "time": 97.18406474999999,
          "velocity": 0.6771653543307087
        },
        {
          "duration": 0.07894725000001301,
          "durationTicks": 96,
          "midi": 65,
          "name": "F4",
          "ticks": 118272,
          "time": 97.26301199999999,
          "velocity": 0.6771653543307087
        },
        {
          "duration": 0.07894725000001301,
          "durationTicks": 96,
          "midi": 77,
          "name": "F5",
          "ticks": 118272,
          "time": 97.26301199999999,
          "velocity": 0.6771653543307087
        },
        {
          "duration": 0.0789472499999988,
          "durationTicks": 96,
          "midi": 77,
          "name": "F5",
          "ticks": 118368,
          "time": 97.34195925,
          "velocity": 0.6771653543307087
        },
        {
          "duration": 0.0789472499999988,
          "durationTicks": 96,
          "midi": 65,
          "name": "F4",
          "ticks": 118368,
          "time": 97.34195925,
          "velocity": 0.6771653543307087
        },
        {
          "duration": 0.0789472499999988,
          "durationTicks": 96,
          "midi": 65,
          "name": "F4",
          "ticks": 118464,
          "time": 97.4209065,
          "velocity": 0.6771653543307087
        },
        {
          "duration": 0.0789472499999988,
          "durationTicks": 96,
          "midi": 77,
          "name": "F5",
          "ticks": 118464,
          "time": 97.4209065,
          "velocity": 0.6771653543307087
        },
        {
          "duration": 0.0789472499999988,
          "durationTicks": 96,
          "midi": 65,
          "name": "F4",
          "ticks": 118560,
          "time": 97.49985375,
          "velocity": 0.6771653543307087
        },
        {
          "duration": 0.0789472499999988,
          "durationTicks": 96,
          "midi": 77,
          "name": "F5",
          "ticks": 118560,
          "time": 97.49985375,
          "velocity": 0.6771653543307087
        },
        {
          "duration": 0.0789472499999988,
          "durationTicks": 96,
          "midi": 65,
          "name": "F4",
          "ticks": 118656,
          "time": 97.578801,
          "velocity": 0.6771653543307087
        },
        {
          "duration": 0.0789472499999988,
          "durationTicks": 96,
          "midi": 77,
          "name": "F5",
          "ticks": 118656,
          "time": 97.578801,
          "velocity": 0.6771653543307087
        },
        {
          "duration": 0.0789472499999988,
          "durationTicks": 96,
          "midi": 77,
          "name": "F5",
          "ticks": 118752,
          "time": 97.65774825,
          "velocity": 0.6771653543307087
        },
        {
          "duration": 0.0789472499999988,
          "durationTicks": 96,
          "midi": 65,
          "name": "F4",
          "ticks": 118752,
          "time": 97.65774825,
          "velocity": 0.6771653543307087
        },
        {
          "duration": 0.0789472499999988,
          "durationTicks": 96,
          "midi": 77,
          "name": "F5",
          "ticks": 118848,
          "time": 97.7366955,
          "velocity": 0.6771653543307087
        },
        {
          "duration": 0.0789472499999988,
          "durationTicks": 96,
          "midi": 65,
          "name": "F4",
          "ticks": 118848,
          "time": 97.7366955,
          "velocity": 0.6771653543307087
        },
        {
          "duration": 0.0789472499999988,
          "durationTicks": 96,
          "midi": 77,
          "name": "F5",
          "ticks": 118944,
          "time": 97.81564275,
          "velocity": 0.6771653543307087
        },
        {
          "duration": 0.0789472499999988,
          "durationTicks": 96,
          "midi": 65,
          "name": "F4",
          "ticks": 118944,
          "time": 97.81564275,
          "velocity": 0.6771653543307087
        },
        {
          "duration": 0.0789472499999988,
          "durationTicks": 96,
          "midi": 67,
          "name": "G4",
          "ticks": 119040,
          "time": 97.89459,
          "velocity": 0.6771653543307087
        },
        {
          "duration": 0.0789472499999988,
          "durationTicks": 96,
          "midi": 55,
          "name": "G3",
          "ticks": 119040,
          "time": 97.89459,
          "velocity": 0.6771653543307087
        },
        {
          "duration": 0.0789472499999988,
          "durationTicks": 96,
          "midi": 55,
          "name": "G3",
          "ticks": 119136,
          "time": 97.97353724999999,
          "velocity": 0.6771653543307087
        },
        {
          "duration": 0.0789472499999988,
          "durationTicks": 96,
          "midi": 67,
          "name": "G4",
          "ticks": 119136,
          "time": 97.97353724999999,
          "velocity": 0.6771653543307087
        },
        {
          "duration": 0.0789472499999988,
          "durationTicks": 96,
          "midi": 67,
          "name": "G4",
          "ticks": 119232,
          "time": 98.05248449999999,
          "velocity": 0.6771653543307087
        },
        {
          "duration": 0.0789472499999988,
          "durationTicks": 96,
          "midi": 55,
          "name": "G3",
          "ticks": 119232,
          "time": 98.05248449999999,
          "velocity": 0.6771653543307087
        },
        {
          "duration": 0.0789472499999988,
          "durationTicks": 96,
          "midi": 67,
          "name": "G4",
          "ticks": 119328,
          "time": 98.13143174999999,
          "velocity": 0.6771653543307087
        },
        {
          "duration": 0.0789472499999988,
          "durationTicks": 96,
          "midi": 55,
          "name": "G3",
          "ticks": 119328,
          "time": 98.13143174999999,
          "velocity": 0.6771653543307087
        },
        {
          "duration": 0.07894725000001301,
          "durationTicks": 96,
          "midi": 67,
          "name": "G4",
          "ticks": 119424,
          "time": 98.21037899999999,
          "velocity": 0.6771653543307087
        },
        {
          "duration": 0.07894725000001301,
          "durationTicks": 96,
          "midi": 55,
          "name": "G3",
          "ticks": 119424,
          "time": 98.21037899999999,
          "velocity": 0.6771653543307087
        },
        {
          "duration": 0.0789472499999988,
          "durationTicks": 96,
          "midi": 55,
          "name": "G3",
          "ticks": 119520,
          "time": 98.28932625,
          "velocity": 0.6771653543307087
        },
        {
          "duration": 0.0789472499999988,
          "durationTicks": 96,
          "midi": 67,
          "name": "G4",
          "ticks": 119520,
          "time": 98.28932625,
          "velocity": 0.6771653543307087
        },
        {
          "duration": 0.0789472499999988,
          "durationTicks": 96,
          "midi": 67,
          "name": "G4",
          "ticks": 119616,
          "time": 98.3682735,
          "velocity": 0.6771653543307087
        },
        {
          "duration": 0.0789472499999988,
          "durationTicks": 96,
          "midi": 55,
          "name": "G3",
          "ticks": 119616,
          "time": 98.3682735,
          "velocity": 0.6771653543307087
        },
        {
          "duration": 0.0789472499999988,
          "durationTicks": 96,
          "midi": 55,
          "name": "G3",
          "ticks": 119712,
          "time": 98.44722075,
          "velocity": 0.6771653543307087
        },
        {
          "duration": 0.0789472499999988,
          "durationTicks": 96,
          "midi": 67,
          "name": "G4",
          "ticks": 119712,
          "time": 98.44722075,
          "velocity": 0.6771653543307087
        },
        {
          "duration": 0.0789472499999988,
          "durationTicks": 96,
          "midi": 65,
          "name": "F4",
          "ticks": 119808,
          "time": 98.526168,
          "velocity": 0.6771653543307087
        },
        {
          "duration": 0.0789472499999988,
          "durationTicks": 96,
          "midi": 53,
          "name": "F3",
          "ticks": 119808,
          "time": 98.526168,
          "velocity": 0.6771653543307087
        },
        {
          "duration": 0.0789472499999988,
          "durationTicks": 96,
          "midi": 53,
          "name": "F3",
          "ticks": 119904,
          "time": 98.60511525,
          "velocity": 0.6771653543307087
        },
        {
          "duration": 0.0789472499999988,
          "durationTicks": 96,
          "midi": 65,
          "name": "F4",
          "ticks": 119904,
          "time": 98.60511525,
          "velocity": 0.6771653543307087
        },
        {
          "duration": 0.0789472499999988,
          "durationTicks": 96,
          "midi": 53,
          "name": "F3",
          "ticks": 120000,
          "time": 98.6840625,
          "velocity": 0.6771653543307087
        },
        {
          "duration": 0.0789472499999988,
          "durationTicks": 96,
          "midi": 65,
          "name": "F4",
          "ticks": 120000,
          "time": 98.6840625,
          "velocity": 0.6771653543307087
        },
        {
          "duration": 0.0789472499999988,
          "durationTicks": 96,
          "midi": 65,
          "name": "F4",
          "ticks": 120096,
          "time": 98.76300975,
          "velocity": 0.6771653543307087
        },
        {
          "duration": 0.0789472499999988,
          "durationTicks": 96,
          "midi": 53,
          "name": "F3",
          "ticks": 120096,
          "time": 98.76300975,
          "velocity": 0.6771653543307087
        },
        {
          "duration": 0.0789472499999988,
          "durationTicks": 96,
          "midi": 53,
          "name": "F3",
          "ticks": 120192,
          "time": 98.841957,
          "velocity": 0.6771653543307087
        },
        {
          "duration": 0.0789472499999988,
          "durationTicks": 96,
          "midi": 65,
          "name": "F4",
          "ticks": 120192,
          "time": 98.841957,
          "velocity": 0.6771653543307087
        },
        {
          "duration": 0.0789472499999988,
          "durationTicks": 96,
          "midi": 65,
          "name": "F4",
          "ticks": 120288,
          "time": 98.92090424999999,
          "velocity": 0.6771653543307087
        },
        {
          "duration": 0.0789472499999988,
          "durationTicks": 96,
          "midi": 53,
          "name": "F3",
          "ticks": 120288,
          "time": 98.92090424999999,
          "velocity": 0.6771653543307087
        },
        {
          "duration": 0.0789472499999988,
          "durationTicks": 96,
          "midi": 65,
          "name": "F4",
          "ticks": 120384,
          "time": 98.99985149999999,
          "velocity": 0.6771653543307087
        },
        {
          "duration": 0.0789472499999988,
          "durationTicks": 96,
          "midi": 53,
          "name": "F3",
          "ticks": 120384,
          "time": 98.99985149999999,
          "velocity": 0.6771653543307087
        },
        {
          "duration": 0.0789472499999988,
          "durationTicks": 96,
          "midi": 53,
          "name": "F3",
          "ticks": 120480,
          "time": 99.07879874999999,
          "velocity": 0.6771653543307087
        },
        {
          "duration": 0.0789472499999988,
          "durationTicks": 96,
          "midi": 65,
          "name": "F4",
          "ticks": 120480,
          "time": 99.07879874999999,
          "velocity": 0.6771653543307087
        },
        {
          "duration": 0.07894725000001301,
          "durationTicks": 96,
          "midi": 53,
          "name": "F3",
          "ticks": 120576,
          "time": 99.15774599999999,
          "velocity": 0.6771653543307087
        },
        {
          "duration": 0.07894725000001301,
          "durationTicks": 96,
          "midi": 65,
          "name": "F4",
          "ticks": 120576,
          "time": 99.15774599999999,
          "velocity": 0.6771653543307087
        },
        {
          "duration": 0.0789472499999988,
          "durationTicks": 96,
          "midi": 53,
          "name": "F3",
          "ticks": 120672,
          "time": 99.23669325,
          "velocity": 0.6771653543307087
        },
        {
          "duration": 0.0789472499999988,
          "durationTicks": 96,
          "midi": 65,
          "name": "F4",
          "ticks": 120672,
          "time": 99.23669325,
          "velocity": 0.6771653543307087
        },
        {
          "duration": 0.0789472499999988,
          "durationTicks": 96,
          "midi": 65,
          "name": "F4",
          "ticks": 120768,
          "time": 99.3156405,
          "velocity": 0.6771653543307087
        },
        {
          "duration": 0.0789472499999988,
          "durationTicks": 96,
          "midi": 53,
          "name": "F3",
          "ticks": 120768,
          "time": 99.3156405,
          "velocity": 0.6771653543307087
        },
        {
          "duration": 0.0789472499999988,
          "durationTicks": 96,
          "midi": 53,
          "name": "F3",
          "ticks": 120864,
          "time": 99.39458775,
          "velocity": 0.6771653543307087
        },
        {
          "duration": 0.0789472499999988,
          "durationTicks": 96,
          "midi": 65,
          "name": "F4",
          "ticks": 120864,
          "time": 99.39458775,
          "velocity": 0.6771653543307087
        },
        {
          "duration": 0.0789472499999988,
          "durationTicks": 96,
          "midi": 53,
          "name": "F3",
          "ticks": 120960,
          "time": 99.473535,
          "velocity": 0.6771653543307087
        },
        {
          "duration": 0.0789472499999988,
          "durationTicks": 96,
          "midi": 65,
          "name": "F4",
          "ticks": 120960,
          "time": 99.473535,
          "velocity": 0.6771653543307087
        },
        {
          "duration": 0.0789472499999988,
          "durationTicks": 96,
          "midi": 65,
          "name": "F4",
          "ticks": 121056,
          "time": 99.55248225,
          "velocity": 0.6771653543307087
        },
        {
          "duration": 0.0789472499999988,
          "durationTicks": 96,
          "midi": 53,
          "name": "F3",
          "ticks": 121056,
          "time": 99.55248225,
          "velocity": 0.6771653543307087
        },
        {
          "duration": 0.0789472499999988,
          "durationTicks": 96,
          "midi": 65,
          "name": "F4",
          "ticks": 121152,
          "time": 99.6314295,
          "velocity": 0.6771653543307087
        },
        {
          "duration": 0.0789472499999988,
          "durationTicks": 96,
          "midi": 53,
          "name": "F3",
          "ticks": 121152,
          "time": 99.6314295,
          "velocity": 0.6771653543307087
        },
        {
          "duration": 0.0789472499999988,
          "durationTicks": 96,
          "midi": 53,
          "name": "F3",
          "ticks": 121248,
          "time": 99.71037675,
          "velocity": 0.6771653543307087
        },
        {
          "duration": 0.0789472499999988,
          "durationTicks": 96,
          "midi": 65,
          "name": "F4",
          "ticks": 121248,
          "time": 99.71037675,
          "velocity": 0.6771653543307087
        },
        {
          "duration": 0.0789472499999988,
          "durationTicks": 96,
          "midi": 52,
          "name": "E3",
          "ticks": 121344,
          "time": 99.789324,
          "velocity": 0.6771653543307087
        },
        {
          "duration": 0.0789472499999988,
          "durationTicks": 96,
          "midi": 64,
          "name": "E4",
          "ticks": 121344,
          "time": 99.789324,
          "velocity": 0.6771653543307087
        },
        {
          "duration": 0.0789472499999988,
          "durationTicks": 96,
          "midi": 64,
          "name": "E4",
          "ticks": 121440,
          "time": 99.86827124999999,
          "velocity": 0.6771653543307087
        },
        {
          "duration": 0.0789472499999988,
          "durationTicks": 96,
          "midi": 52,
          "name": "E3",
          "ticks": 121440,
          "time": 99.86827124999999,
          "velocity": 0.6771653543307087
        },
        {
          "duration": 0.0789472499999988,
          "durationTicks": 96,
          "midi": 52,
          "name": "E3",
          "ticks": 121536,
          "time": 99.94721849999999,
          "velocity": 0.6771653543307087
        },
        {
          "duration": 0.0789472499999988,
          "durationTicks": 96,
          "midi": 64,
          "name": "E4",
          "ticks": 121536,
          "time": 99.94721849999999,
          "velocity": 0.6771653543307087
        },
        {
          "duration": 0.0789472499999988,
          "durationTicks": 96,
          "midi": 64,
          "name": "E4",
          "ticks": 121632,
          "time": 100.02616574999999,
          "velocity": 0.6771653543307087
        },
        {
          "duration": 0.0789472499999988,
          "durationTicks": 96,
          "midi": 52,
          "name": "E3",
          "ticks": 121632,
          "time": 100.02616574999999,
          "velocity": 0.6771653543307087
        },
        {
          "duration": 0.07894725000001301,
          "durationTicks": 96,
          "midi": 64,
          "name": "E4",
          "ticks": 121728,
          "time": 100.10511299999999,
          "velocity": 0.6771653543307087
        },
        {
          "duration": 0.07894725000001301,
          "durationTicks": 96,
          "midi": 52,
          "name": "E3",
          "ticks": 121728,
          "time": 100.10511299999999,
          "velocity": 0.6771653543307087
        },
        {
          "duration": 0.0789472499999988,
          "durationTicks": 96,
          "midi": 52,
          "name": "E3",
          "ticks": 121824,
          "time": 100.18406025,
          "velocity": 0.6771653543307087
        },
        {
          "duration": 0.0789472499999988,
          "durationTicks": 96,
          "midi": 64,
          "name": "E4",
          "ticks": 121824,
          "time": 100.18406025,
          "velocity": 0.6771653543307087
        },
        {
          "duration": 0.0789472499999988,
          "durationTicks": 96,
          "midi": 52,
          "name": "E3",
          "ticks": 121920,
          "time": 100.2630075,
          "velocity": 0.6771653543307087
        },
        {
          "duration": 0.0789472499999988,
          "durationTicks": 96,
          "midi": 64,
          "name": "E4",
          "ticks": 121920,
          "time": 100.2630075,
          "velocity": 0.6771653543307087
        },
        {
          "duration": 0.0789472499999988,
          "durationTicks": 96,
          "midi": 52,
          "name": "E3",
          "ticks": 122016,
          "time": 100.34195475,
          "velocity": 0.6771653543307087
        },
        {
          "duration": 0.0789472499999988,
          "durationTicks": 96,
          "midi": 64,
          "name": "E4",
          "ticks": 122016,
          "time": 100.34195475,
          "velocity": 0.6771653543307087
        },
        {
          "duration": 0.0789472499999988,
          "durationTicks": 96,
          "midi": 55,
          "name": "G3",
          "ticks": 122112,
          "time": 100.420902,
          "velocity": 0.6771653543307087
        },
        {
          "duration": 0.0789472499999988,
          "durationTicks": 96,
          "midi": 67,
          "name": "G4",
          "ticks": 122112,
          "time": 100.420902,
          "velocity": 0.6771653543307087
        },
        {
          "duration": 0.0789472499999988,
          "durationTicks": 96,
          "midi": 55,
          "name": "G3",
          "ticks": 122208,
          "time": 100.49984925,
          "velocity": 0.6771653543307087
        },
        {
          "duration": 0.0789472499999988,
          "durationTicks": 96,
          "midi": 67,
          "name": "G4",
          "ticks": 122208,
          "time": 100.49984925,
          "velocity": 0.6771653543307087
        },
        {
          "duration": 0.0789472499999988,
          "durationTicks": 96,
          "midi": 55,
          "name": "G3",
          "ticks": 122304,
          "time": 100.5787965,
          "velocity": 0.6771653543307087
        },
        {
          "duration": 0.0789472499999988,
          "durationTicks": 96,
          "midi": 67,
          "name": "G4",
          "ticks": 122304,
          "time": 100.5787965,
          "velocity": 0.6771653543307087
        },
        {
          "duration": 0.0789472499999988,
          "durationTicks": 96,
          "midi": 67,
          "name": "G4",
          "ticks": 122400,
          "time": 100.65774375,
          "velocity": 0.6771653543307087
        },
        {
          "duration": 0.0789472499999988,
          "durationTicks": 96,
          "midi": 55,
          "name": "G3",
          "ticks": 122400,
          "time": 100.65774375,
          "velocity": 0.6771653543307087
        },
        {
          "duration": 0.0789472499999988,
          "durationTicks": 96,
          "midi": 67,
          "name": "G4",
          "ticks": 122496,
          "time": 100.736691,
          "velocity": 0.6771653543307087
        },
        {
          "duration": 0.0789472499999988,
          "durationTicks": 96,
          "midi": 55,
          "name": "G3",
          "ticks": 122496,
          "time": 100.736691,
          "velocity": 0.6771653543307087
        },
        {
          "duration": 0.0789472499999988,
          "durationTicks": 96,
          "midi": 67,
          "name": "G4",
          "ticks": 122592,
          "time": 100.81563824999999,
          "velocity": 0.6771653543307087
        },
        {
          "duration": 0.0789472499999988,
          "durationTicks": 96,
          "midi": 55,
          "name": "G3",
          "ticks": 122592,
          "time": 100.81563824999999,
          "velocity": 0.6771653543307087
        },
        {
          "duration": 0.0789472499999988,
          "durationTicks": 96,
          "midi": 67,
          "name": "G4",
          "ticks": 122688,
          "time": 100.89458549999999,
          "velocity": 0.6771653543307087
        },
        {
          "duration": 0.0789472499999988,
          "durationTicks": 96,
          "midi": 55,
          "name": "G3",
          "ticks": 122688,
          "time": 100.89458549999999,
          "velocity": 0.6771653543307087
        },
        {
          "duration": 0.07894725000001301,
          "durationTicks": 96,
          "midi": 55,
          "name": "G3",
          "ticks": 122784,
          "time": 100.97353274999999,
          "velocity": 0.6771653543307087
        },
        {
          "duration": 0.07894725000001301,
          "durationTicks": 96,
          "midi": 67,
          "name": "G4",
          "ticks": 122784,
          "time": 100.97353274999999,
          "velocity": 0.6771653543307087
        },
        {
          "duration": 0.0789472499999988,
          "durationTicks": 96,
          "midi": 53,
          "name": "F3",
          "ticks": 122880,
          "time": 101.05248,
          "velocity": 0.6771653543307087
        },
        {
          "duration": 0.0789472499999988,
          "durationTicks": 96,
          "midi": 65,
          "name": "F4",
          "ticks": 122880,
          "time": 101.05248,
          "velocity": 0.6771653543307087
        },
        {
          "duration": 0.0789472499999988,
          "durationTicks": 96,
          "midi": 53,
          "name": "F3",
          "ticks": 122976,
          "time": 101.13142725,
          "velocity": 0.6771653543307087
        },
        {
          "duration": 0.0789472499999988,
          "durationTicks": 96,
          "midi": 65,
          "name": "F4",
          "ticks": 122976,
          "time": 101.13142725,
          "velocity": 0.6771653543307087
        },
        {
          "duration": 0.0789472499999988,
          "durationTicks": 96,
          "midi": 65,
          "name": "F4",
          "ticks": 123072,
          "time": 101.2103745,
          "velocity": 0.6771653543307087
        },
        {
          "duration": 0.0789472499999988,
          "durationTicks": 96,
          "midi": 53,
          "name": "F3",
          "ticks": 123072,
          "time": 101.2103745,
          "velocity": 0.6771653543307087
        },
        {
          "duration": 0.0789472499999988,
          "durationTicks": 96,
          "midi": 65,
          "name": "F4",
          "ticks": 123168,
          "time": 101.28932175,
          "velocity": 0.6771653543307087
        },
        {
          "duration": 0.0789472499999988,
          "durationTicks": 96,
          "midi": 53,
          "name": "F3",
          "ticks": 123168,
          "time": 101.28932175,
          "velocity": 0.6771653543307087
        },
        {
          "duration": 0.0789472499999988,
          "durationTicks": 96,
          "midi": 53,
          "name": "F3",
          "ticks": 123264,
          "time": 101.368269,
          "velocity": 0.6771653543307087
        },
        {
          "duration": 0.0789472499999988,
          "durationTicks": 96,
          "midi": 65,
          "name": "F4",
          "ticks": 123264,
          "time": 101.368269,
          "velocity": 0.6771653543307087
        },
        {
          "duration": 0.0789472499999988,
          "durationTicks": 96,
          "midi": 53,
          "name": "F3",
          "ticks": 123360,
          "time": 101.44721625,
          "velocity": 0.6771653543307087
        },
        {
          "duration": 0.0789472499999988,
          "durationTicks": 96,
          "midi": 65,
          "name": "F4",
          "ticks": 123360,
          "time": 101.44721625,
          "velocity": 0.6771653543307087
        },
        {
          "duration": 0.0789472499999988,
          "durationTicks": 96,
          "midi": 53,
          "name": "F3",
          "ticks": 123456,
          "time": 101.5261635,
          "velocity": 0.6771653543307087
        },
        {
          "duration": 0.0789472499999988,
          "durationTicks": 96,
          "midi": 65,
          "name": "F4",
          "ticks": 123456,
          "time": 101.5261635,
          "velocity": 0.6771653543307087
        },
        {
          "duration": 0.0789472499999988,
          "durationTicks": 96,
          "midi": 53,
          "name": "F3",
          "ticks": 123552,
          "time": 101.60511075,
          "velocity": 0.6771653543307087
        },
        {
          "duration": 0.0789472499999988,
          "durationTicks": 96,
          "midi": 65,
          "name": "F4",
          "ticks": 123552,
          "time": 101.60511075,
          "velocity": 0.6771653543307087
        },
        {
          "duration": 0.0789472499999988,
          "durationTicks": 96,
          "midi": 65,
          "name": "F4",
          "ticks": 123648,
          "time": 101.684058,
          "velocity": 0.6771653543307087
        },
        {
          "duration": 0.0789472499999988,
          "durationTicks": 96,
          "midi": 53,
          "name": "F3",
          "ticks": 123648,
          "time": 101.684058,
          "velocity": 0.6771653543307087
        },
        {
          "duration": 0.0789472499999988,
          "durationTicks": 96,
          "midi": 53,
          "name": "F3",
          "ticks": 123744,
          "time": 101.76300524999999,
          "velocity": 0.6771653543307087
        },
        {
          "duration": 0.0789472499999988,
          "durationTicks": 96,
          "midi": 65,
          "name": "F4",
          "ticks": 123744,
          "time": 101.76300524999999,
          "velocity": 0.6771653543307087
        },
        {
          "duration": 0.0789472499999988,
          "durationTicks": 96,
          "midi": 65,
          "name": "F4",
          "ticks": 123840,
          "time": 101.84195249999999,
          "velocity": 0.6771653543307087
        },
        {
          "duration": 0.0789472499999988,
          "durationTicks": 96,
          "midi": 53,
          "name": "F3",
          "ticks": 123840,
          "time": 101.84195249999999,
          "velocity": 0.6771653543307087
        },
        {
          "duration": 0.07894725000001301,
          "durationTicks": 96,
          "midi": 53,
          "name": "F3",
          "ticks": 123936,
          "time": 101.92089974999999,
          "velocity": 0.6771653543307087
        },
        {
          "duration": 0.07894725000001301,
          "durationTicks": 96,
          "midi": 65,
          "name": "F4",
          "ticks": 123936,
          "time": 101.92089974999999,
          "velocity": 0.6771653543307087
        },
        {
          "duration": 0.0789472499999988,
          "durationTicks": 96,
          "midi": 53,
          "name": "F3",
          "ticks": 124032,
          "time": 101.999847,
          "velocity": 0.6771653543307087
        },
        {
          "duration": 0.0789472499999988,
          "durationTicks": 96,
          "midi": 65,
          "name": "F4",
          "ticks": 124032,
          "time": 101.999847,
          "velocity": 0.6771653543307087
        },
        {
          "duration": 0.0789472499999988,
          "durationTicks": 96,
          "midi": 65,
          "name": "F4",
          "ticks": 124128,
          "time": 102.07879425,
          "velocity": 0.6771653543307087
        },
        {
          "duration": 0.0789472499999988,
          "durationTicks": 96,
          "midi": 53,
          "name": "F3",
          "ticks": 124128,
          "time": 102.07879425,
          "velocity": 0.6771653543307087
        },
        {
          "duration": 0.0789472499999988,
          "durationTicks": 96,
          "midi": 53,
          "name": "F3",
          "ticks": 124224,
          "time": 102.1577415,
          "velocity": 0.6771653543307087
        },
        {
          "duration": 0.0789472499999988,
          "durationTicks": 96,
          "midi": 65,
          "name": "F4",
          "ticks": 124224,
          "time": 102.1577415,
          "velocity": 0.6771653543307087
        },
        {
          "duration": 0.0789472499999988,
          "durationTicks": 96,
          "midi": 53,
          "name": "F3",
          "ticks": 124320,
          "time": 102.23668875,
          "velocity": 0.6771653543307087
        },
        {
          "duration": 0.0789472499999988,
          "durationTicks": 96,
          "midi": 65,
          "name": "F4",
          "ticks": 124320,
          "time": 102.23668875,
          "velocity": 0.6771653543307087
        },
        {
          "duration": 0.0789472499999988,
          "durationTicks": 96,
          "midi": 65,
          "name": "F4",
          "ticks": 124416,
          "time": 102.315636,
          "velocity": 0.6771653543307087
        },
        {
          "duration": 0.0789472499999988,
          "durationTicks": 96,
          "midi": 53,
          "name": "F3",
          "ticks": 124416,
          "time": 102.315636,
          "velocity": 0.6771653543307087
        },
        {
          "duration": 0.0789472499999988,
          "durationTicks": 96,
          "midi": 65,
          "name": "F4",
          "ticks": 124512,
          "time": 102.39458325,
          "velocity": 0.6771653543307087
        },
        {
          "duration": 0.0789472499999988,
          "durationTicks": 96,
          "midi": 53,
          "name": "F3",
          "ticks": 124512,
          "time": 102.39458325,
          "velocity": 0.6771653543307087
        },
        {
          "duration": 0.0789472499999988,
          "durationTicks": 96,
          "midi": 53,
          "name": "F3",
          "ticks": 124608,
          "time": 102.4735305,
          "velocity": 0.6771653543307087
        },
        {
          "duration": 0.0789472499999988,
          "durationTicks": 96,
          "midi": 65,
          "name": "F4",
          "ticks": 124608,
          "time": 102.4735305,
          "velocity": 0.6771653543307087
        },
        {
          "duration": 0.0789472499999988,
          "durationTicks": 96,
          "midi": 53,
          "name": "F3",
          "ticks": 124704,
          "time": 102.55247775,
          "velocity": 0.6771653543307087
        },
        {
          "duration": 0.0789472499999988,
          "durationTicks": 96,
          "midi": 65,
          "name": "F4",
          "ticks": 124704,
          "time": 102.55247775,
          "velocity": 0.6771653543307087
        },
        {
          "duration": 0.0789472499999988,
          "durationTicks": 96,
          "midi": 65,
          "name": "F4",
          "ticks": 124800,
          "time": 102.631425,
          "velocity": 0.6771653543307087
        },
        {
          "duration": 0.0789472499999988,
          "durationTicks": 96,
          "midi": 53,
          "name": "F3",
          "ticks": 124800,
          "time": 102.631425,
          "velocity": 0.6771653543307087
        },
        {
          "duration": 0.0789472499999988,
          "durationTicks": 96,
          "midi": 53,
          "name": "F3",
          "ticks": 124896,
          "time": 102.71037224999999,
          "velocity": 0.6771653543307087
        },
        {
          "duration": 0.0789472499999988,
          "durationTicks": 96,
          "midi": 65,
          "name": "F4",
          "ticks": 124896,
          "time": 102.71037224999999,
          "velocity": 0.6771653543307087
        },
        {
          "duration": 0.0789472499999988,
          "durationTicks": 96,
          "midi": 65,
          "name": "F4",
          "ticks": 124992,
          "time": 102.78931949999999,
          "velocity": 0.6771653543307087
        },
        {
          "duration": 0.0789472499999988,
          "durationTicks": 96,
          "midi": 53,
          "name": "F3",
          "ticks": 124992,
          "time": 102.78931949999999,
          "velocity": 0.6771653543307087
        },
        {
          "duration": 0.07894725000001301,
          "durationTicks": 96,
          "midi": 65,
          "name": "F4",
          "ticks": 125088,
          "time": 102.86826674999999,
          "velocity": 0.6771653543307087
        },
        {
          "duration": 0.07894725000001301,
          "durationTicks": 96,
          "midi": 53,
          "name": "F3",
          "ticks": 125088,
          "time": 102.86826674999999,
          "velocity": 0.6771653543307087
        },
        {
          "duration": 0.0789472499999988,
          "durationTicks": 96,
          "midi": 55,
          "name": "G3",
          "ticks": 125184,
          "time": 102.947214,
          "velocity": 0.6771653543307087
        },
        {
          "duration": 0.0789472499999988,
          "durationTicks": 96,
          "midi": 67,
          "name": "G4",
          "ticks": 125184,
          "time": 102.947214,
          "velocity": 0.6771653543307087
        },
        {
          "duration": 0.0789472499999988,
          "durationTicks": 96,
          "midi": 67,
          "name": "G4",
          "ticks": 125280,
          "time": 103.02616125,
          "velocity": 0.6771653543307087
        },
        {
          "duration": 0.0789472499999988,
          "durationTicks": 96,
          "midi": 55,
          "name": "G3",
          "ticks": 125280,
          "time": 103.02616125,
          "velocity": 0.6771653543307087
        },
        {
          "duration": 0.0789472499999988,
          "durationTicks": 96,
          "midi": 67,
          "name": "G4",
          "ticks": 125376,
          "time": 103.1051085,
          "velocity": 0.6771653543307087
        },
        {
          "duration": 0.0789472499999988,
          "durationTicks": 96,
          "midi": 55,
          "name": "G3",
          "ticks": 125376,
          "time": 103.1051085,
          "velocity": 0.6771653543307087
        },
        {
          "duration": 0.0789472499999988,
          "durationTicks": 96,
          "midi": 67,
          "name": "G4",
          "ticks": 125472,
          "time": 103.18405575,
          "velocity": 0.6771653543307087
        },
        {
          "duration": 0.0789472499999988,
          "durationTicks": 96,
          "midi": 55,
          "name": "G3",
          "ticks": 125472,
          "time": 103.18405575,
          "velocity": 0.6771653543307087
        },
        {
          "duration": 0.0789472499999988,
          "durationTicks": 96,
          "midi": 67,
          "name": "G4",
          "ticks": 125568,
          "time": 103.263003,
          "velocity": 0.6771653543307087
        },
        {
          "duration": 0.0789472499999988,
          "durationTicks": 96,
          "midi": 55,
          "name": "G3",
          "ticks": 125568,
          "time": 103.263003,
          "velocity": 0.6771653543307087
        },
        {
          "duration": 0.0789472499999988,
          "durationTicks": 96,
          "midi": 55,
          "name": "G3",
          "ticks": 125664,
          "time": 103.34195025,
          "velocity": 0.6771653543307087
        },
        {
          "duration": 0.0789472499999988,
          "durationTicks": 96,
          "midi": 67,
          "name": "G4",
          "ticks": 125664,
          "time": 103.34195025,
          "velocity": 0.6771653543307087
        },
        {
          "duration": 0.0789472499999988,
          "durationTicks": 96,
          "midi": 55,
          "name": "G3",
          "ticks": 125760,
          "time": 103.4208975,
          "velocity": 0.6771653543307087
        },
        {
          "duration": 0.0789472499999988,
          "durationTicks": 96,
          "midi": 67,
          "name": "G4",
          "ticks": 125760,
          "time": 103.4208975,
          "velocity": 0.6771653543307087
        },
        {
          "duration": 0.0789472499999988,
          "durationTicks": 96,
          "midi": 67,
          "name": "G4",
          "ticks": 125856,
          "time": 103.49984475,
          "velocity": 0.6771653543307087
        },
        {
          "duration": 0.0789472499999988,
          "durationTicks": 96,
          "midi": 55,
          "name": "G3",
          "ticks": 125856,
          "time": 103.49984475,
          "velocity": 0.6771653543307087
        },
        {
          "duration": 0.0789472499999988,
          "durationTicks": 96,
          "midi": 68,
          "name": "G#4",
          "ticks": 125952,
          "time": 103.57879199999999,
          "velocity": 0.6771653543307087
        },
        {
          "duration": 0.0789472499999988,
          "durationTicks": 96,
          "midi": 56,
          "name": "G#3",
          "ticks": 125952,
          "time": 103.57879199999999,
          "velocity": 0.6771653543307087
        },
        {
          "duration": 0.0789472499999988,
          "durationTicks": 96,
          "midi": 56,
          "name": "G#3",
          "ticks": 126048,
          "time": 103.65773924999999,
          "velocity": 0.6771653543307087
        },
        {
          "duration": 0.0789472499999988,
          "durationTicks": 96,
          "midi": 68,
          "name": "G#4",
          "ticks": 126048,
          "time": 103.65773924999999,
          "velocity": 0.6771653543307087
        },
        {
          "duration": 0.0789472499999988,
          "durationTicks": 96,
          "midi": 68,
          "name": "G#4",
          "ticks": 126144,
          "time": 103.73668649999999,
          "velocity": 0.6771653543307087
        },
        {
          "duration": 0.0789472499999988,
          "durationTicks": 96,
          "midi": 56,
          "name": "G#3",
          "ticks": 126144,
          "time": 103.73668649999999,
          "velocity": 0.6771653543307087
        },
        {
          "duration": 0.07894725000001301,
          "durationTicks": 96,
          "midi": 56,
          "name": "G#3",
          "ticks": 126240,
          "time": 103.81563374999999,
          "velocity": 0.6771653543307087
        },
        {
          "duration": 0.07894725000001301,
          "durationTicks": 96,
          "midi": 68,
          "name": "G#4",
          "ticks": 126240,
          "time": 103.81563374999999,
          "velocity": 0.6771653543307087
        },
        {
          "duration": 0.0789472499999988,
          "durationTicks": 96,
          "midi": 68,
          "name": "G#4",
          "ticks": 126336,
          "time": 103.894581,
          "velocity": 0.6771653543307087
        },
        {
          "duration": 0.0789472499999988,
          "durationTicks": 96,
          "midi": 56,
          "name": "G#3",
          "ticks": 126336,
          "time": 103.894581,
          "velocity": 0.6771653543307087
        },
        {
          "duration": 0.0789472499999988,
          "durationTicks": 96,
          "midi": 56,
          "name": "G#3",
          "ticks": 126432,
          "time": 103.97352825,
          "velocity": 0.6771653543307087
        },
        {
          "duration": 0.0789472499999988,
          "durationTicks": 96,
          "midi": 68,
          "name": "G#4",
          "ticks": 126432,
          "time": 103.97352825,
          "velocity": 0.6771653543307087
        },
        {
          "duration": 0.0789472499999988,
          "durationTicks": 96,
          "midi": 68,
          "name": "G#4",
          "ticks": 126528,
          "time": 104.0524755,
          "velocity": 0.6771653543307087
        },
        {
          "duration": 0.0789472499999988,
          "durationTicks": 96,
          "midi": 56,
          "name": "G#3",
          "ticks": 126528,
          "time": 104.0524755,
          "velocity": 0.6771653543307087
        },
        {
          "duration": 0.0789472499999988,
          "durationTicks": 96,
          "midi": 68,
          "name": "G#4",
          "ticks": 126624,
          "time": 104.13142275,
          "velocity": 0.6771653543307087
        },
        {
          "duration": 0.0789472499999988,
          "durationTicks": 96,
          "midi": 56,
          "name": "G#3",
          "ticks": 126624,
          "time": 104.13142275,
          "velocity": 0.6771653543307087
        },
        {
          "duration": 0.0789472499999988,
          "durationTicks": 96,
          "midi": 56,
          "name": "G#3",
          "ticks": 126720,
          "time": 104.21037,
          "velocity": 0.6771653543307087
        },
        {
          "duration": 0.0789472499999988,
          "durationTicks": 96,
          "midi": 68,
          "name": "G#4",
          "ticks": 126720,
          "time": 104.21037,
          "velocity": 0.6771653543307087
        },
        {
          "duration": 0.0789472499999988,
          "durationTicks": 96,
          "midi": 68,
          "name": "G#4",
          "ticks": 126816,
          "time": 104.28931725,
          "velocity": 0.6771653543307087
        },
        {
          "duration": 0.0789472499999988,
          "durationTicks": 96,
          "midi": 56,
          "name": "G#3",
          "ticks": 126816,
          "time": 104.28931725,
          "velocity": 0.6771653543307087
        },
        {
          "duration": 0.0789472499999988,
          "durationTicks": 96,
          "midi": 56,
          "name": "G#3",
          "ticks": 126912,
          "time": 104.3682645,
          "velocity": 0.6771653543307087
        },
        {
          "duration": 0.0789472499999988,
          "durationTicks": 96,
          "midi": 68,
          "name": "G#4",
          "ticks": 126912,
          "time": 104.3682645,
          "velocity": 0.6771653543307087
        },
        {
          "duration": 0.0789472499999988,
          "durationTicks": 96,
          "midi": 56,
          "name": "G#3",
          "ticks": 127008,
          "time": 104.44721175,
          "velocity": 0.6771653543307087
        },
        {
          "duration": 0.0789472499999988,
          "durationTicks": 96,
          "midi": 68,
          "name": "G#4",
          "ticks": 127008,
          "time": 104.44721175,
          "velocity": 0.6771653543307087
        },
        {
          "duration": 0.0789472499999988,
          "durationTicks": 96,
          "midi": 56,
          "name": "G#3",
          "ticks": 127104,
          "time": 104.52615899999999,
          "velocity": 0.6771653543307087
        },
        {
          "duration": 0.0789472499999988,
          "durationTicks": 96,
          "midi": 68,
          "name": "G#4",
          "ticks": 127104,
          "time": 104.52615899999999,
          "velocity": 0.6771653543307087
        },
        {
          "duration": 0.0789472499999988,
          "durationTicks": 96,
          "midi": 56,
          "name": "G#3",
          "ticks": 127200,
          "time": 104.60510624999999,
          "velocity": 0.6771653543307087
        },
        {
          "duration": 0.0789472499999988,
          "durationTicks": 96,
          "midi": 68,
          "name": "G#4",
          "ticks": 127200,
          "time": 104.60510624999999,
          "velocity": 0.6771653543307087
        },
        {
          "duration": 0.0789472499999988,
          "durationTicks": 96,
          "midi": 56,
          "name": "G#3",
          "ticks": 127296,
          "time": 104.68405349999999,
          "velocity": 0.6771653543307087
        },
        {
          "duration": 0.0789472499999988,
          "durationTicks": 96,
          "midi": 68,
          "name": "G#4",
          "ticks": 127296,
          "time": 104.68405349999999,
          "velocity": 0.6771653543307087
        },
        {
          "duration": 0.07894725000001301,
          "durationTicks": 96,
          "midi": 56,
          "name": "G#3",
          "ticks": 127392,
          "time": 104.76300074999999,
          "velocity": 0.6771653543307087
        },
        {
          "duration": 0.07894725000001301,
          "durationTicks": 96,
          "midi": 68,
          "name": "G#4",
          "ticks": 127392,
          "time": 104.76300074999999,
          "velocity": 0.6771653543307087
        },
        {
          "duration": 0.0789472499999988,
          "durationTicks": 96,
          "midi": 56,
          "name": "G#3",
          "ticks": 127488,
          "time": 104.841948,
          "velocity": 0.6771653543307087
        },
        {
          "duration": 0.0789472499999988,
          "durationTicks": 96,
          "midi": 68,
          "name": "G#4",
          "ticks": 127488,
          "time": 104.841948,
          "velocity": 0.6771653543307087
        },
        {
          "duration": 0.0789472499999988,
          "durationTicks": 96,
          "midi": 68,
          "name": "G#4",
          "ticks": 127584,
          "time": 104.92089525,
          "velocity": 0.6771653543307087
        },
        {
          "duration": 0.0789472499999988,
          "durationTicks": 96,
          "midi": 56,
          "name": "G#3",
          "ticks": 127584,
          "time": 104.92089525,
          "velocity": 0.6771653543307087
        },
        {
          "duration": 0.0789472499999988,
          "durationTicks": 96,
          "midi": 68,
          "name": "G#4",
          "ticks": 127680,
          "time": 104.9998425,
          "velocity": 0.6771653543307087
        },
        {
          "duration": 0.0789472499999988,
          "durationTicks": 96,
          "midi": 56,
          "name": "G#3",
          "ticks": 127680,
          "time": 104.9998425,
          "velocity": 0.6771653543307087
        },
        {
          "duration": 0.0789472499999988,
          "durationTicks": 96,
          "midi": 56,
          "name": "G#3",
          "ticks": 127776,
          "time": 105.07878975,
          "velocity": 0.6771653543307087
        },
        {
          "duration": 0.0789472499999988,
          "durationTicks": 96,
          "midi": 68,
          "name": "G#4",
          "ticks": 127776,
          "time": 105.07878975,
          "velocity": 0.6771653543307087
        },
        {
          "duration": 0.0789472499999988,
          "durationTicks": 96,
          "midi": 68,
          "name": "G#4",
          "ticks": 127872,
          "time": 105.157737,
          "velocity": 0.6771653543307087
        },
        {
          "duration": 0.0789472499999988,
          "durationTicks": 96,
          "midi": 56,
          "name": "G#3",
          "ticks": 127872,
          "time": 105.157737,
          "velocity": 0.6771653543307087
        },
        {
          "duration": 0.0789472499999988,
          "durationTicks": 96,
          "midi": 56,
          "name": "G#3",
          "ticks": 127968,
          "time": 105.23668425,
          "velocity": 0.6771653543307087
        },
        {
          "duration": 0.0789472499999988,
          "durationTicks": 96,
          "midi": 68,
          "name": "G#4",
          "ticks": 127968,
          "time": 105.23668425,
          "velocity": 0.6771653543307087
        },
        {
          "duration": 0.0789472499999988,
          "durationTicks": 96,
          "midi": 68,
          "name": "G#4",
          "ticks": 128064,
          "time": 105.3156315,
          "velocity": 0.6771653543307087
        },
        {
          "duration": 0.0789472499999988,
          "durationTicks": 96,
          "midi": 56,
          "name": "G#3",
          "ticks": 128064,
          "time": 105.3156315,
          "velocity": 0.6771653543307087
        },
        {
          "duration": 0.0789472499999988,
          "durationTicks": 96,
          "midi": 56,
          "name": "G#3",
          "ticks": 128160,
          "time": 105.39457875,
          "velocity": 0.6771653543307087
        },
        {
          "duration": 0.0789472499999988,
          "durationTicks": 96,
          "midi": 68,
          "name": "G#4",
          "ticks": 128160,
          "time": 105.39457875,
          "velocity": 0.6771653543307087
        },
        {
          "duration": 0.0789472499999988,
          "durationTicks": 96,
          "midi": 63,
          "name": "D#4",
          "ticks": 128256,
          "time": 105.47352599999999,
          "velocity": 0.6771653543307087
        },
        {
          "duration": 0.0789472499999988,
          "durationTicks": 96,
          "midi": 75,
          "name": "D#5",
          "ticks": 128256,
          "time": 105.47352599999999,
          "velocity": 0.6771653543307087
        },
        {
          "duration": 0.0789472499999988,
          "durationTicks": 96,
          "midi": 75,
          "name": "D#5",
          "ticks": 128352,
          "time": 105.55247324999999,
          "velocity": 0.6771653543307087
        },
        {
          "duration": 0.0789472499999988,
          "durationTicks": 96,
          "midi": 63,
          "name": "D#4",
          "ticks": 128352,
          "time": 105.55247324999999,
          "velocity": 0.6771653543307087
        },
        {
          "duration": 0.0789472499999988,
          "durationTicks": 96,
          "midi": 75,
          "name": "D#5",
          "ticks": 128448,
          "time": 105.63142049999999,
          "velocity": 0.6771653543307087
        },
        {
          "duration": 0.0789472499999988,
          "durationTicks": 96,
          "midi": 63,
          "name": "D#4",
          "ticks": 128448,
          "time": 105.63142049999999,
          "velocity": 0.6771653543307087
        },
        {
          "duration": 0.07894725000001301,
          "durationTicks": 96,
          "midi": 63,
          "name": "D#4",
          "ticks": 128544,
          "time": 105.71036774999999,
          "velocity": 0.6771653543307087
        },
        {
          "duration": 0.07894725000001301,
          "durationTicks": 96,
          "midi": 75,
          "name": "D#5",
          "ticks": 128544,
          "time": 105.71036774999999,
          "velocity": 0.6771653543307087
        },
        {
          "duration": 0.0789472499999988,
          "durationTicks": 96,
          "midi": 75,
          "name": "D#5",
          "ticks": 128640,
          "time": 105.789315,
          "velocity": 0.6771653543307087
        },
        {
          "duration": 0.0789472499999988,
          "durationTicks": 96,
          "midi": 63,
          "name": "D#4",
          "ticks": 128640,
          "time": 105.789315,
          "velocity": 0.6771653543307087
        },
        {
          "duration": 0.0789472499999988,
          "durationTicks": 96,
          "midi": 75,
          "name": "D#5",
          "ticks": 128736,
          "time": 105.86826225,
          "velocity": 0.6771653543307087
        },
        {
          "duration": 0.0789472499999988,
          "durationTicks": 96,
          "midi": 63,
          "name": "D#4",
          "ticks": 128736,
          "time": 105.86826225,
          "velocity": 0.6771653543307087
        },
        {
          "duration": 0.0789472499999988,
          "durationTicks": 96,
          "midi": 63,
          "name": "D#4",
          "ticks": 128832,
          "time": 105.9472095,
          "velocity": 0.6771653543307087
        },
        {
          "duration": 0.0789472499999988,
          "durationTicks": 96,
          "midi": 75,
          "name": "D#5",
          "ticks": 128832,
          "time": 105.9472095,
          "velocity": 0.6771653543307087
        },
        {
          "duration": 0.0789472499999988,
          "durationTicks": 96,
          "midi": 75,
          "name": "D#5",
          "ticks": 128928,
          "time": 106.02615675,
          "velocity": 0.6771653543307087
        },
        {
          "duration": 0.0789472499999988,
          "durationTicks": 96,
          "midi": 63,
          "name": "D#4",
          "ticks": 128928,
          "time": 106.02615675,
          "velocity": 0.6771653543307087
        },
        {
          "duration": 0.0789472499999988,
          "durationTicks": 96,
          "midi": 65,
          "name": "F4",
          "ticks": 129024,
          "time": 106.105104,
          "velocity": 0.6771653543307087
        },
        {
          "duration": 0.0789472499999988,
          "durationTicks": 96,
          "midi": 77,
          "name": "F5",
          "ticks": 129024,
          "time": 106.105104,
          "velocity": 0.6771653543307087
        },
        {
          "duration": 0.0789472499999988,
          "durationTicks": 96,
          "midi": 65,
          "name": "F4",
          "ticks": 129120,
          "time": 106.18405125,
          "velocity": 0.6771653543307087
        },
        {
          "duration": 0.0789472499999988,
          "durationTicks": 96,
          "midi": 77,
          "name": "F5",
          "ticks": 129120,
          "time": 106.18405125,
          "velocity": 0.6771653543307087
        },
        {
          "duration": 0.0789472499999988,
          "durationTicks": 96,
          "midi": 77,
          "name": "F5",
          "ticks": 129216,
          "time": 106.2629985,
          "velocity": 0.6771653543307087
        },
        {
          "duration": 0.0789472499999988,
          "durationTicks": 96,
          "midi": 65,
          "name": "F4",
          "ticks": 129216,
          "time": 106.2629985,
          "velocity": 0.6771653543307087
        },
        {
          "duration": 0.0789472499999988,
          "durationTicks": 96,
          "midi": 77,
          "name": "F5",
          "ticks": 129312,
          "time": 106.34194575,
          "velocity": 0.6771653543307087
        },
        {
          "duration": 0.0789472499999988,
          "durationTicks": 96,
          "midi": 65,
          "name": "F4",
          "ticks": 129312,
          "time": 106.34194575,
          "velocity": 0.6771653543307087
        },
        {
          "duration": 0.0789472499999988,
          "durationTicks": 96,
          "midi": 65,
          "name": "F4",
          "ticks": 129408,
          "time": 106.42089299999999,
          "velocity": 0.6771653543307087
        },
        {
          "duration": 0.0789472499999988,
          "durationTicks": 96,
          "midi": 77,
          "name": "F5",
          "ticks": 129408,
          "time": 106.42089299999999,
          "velocity": 0.6771653543307087
        },
        {
          "duration": 0.0789472499999988,
          "durationTicks": 96,
          "midi": 65,
          "name": "F4",
          "ticks": 129504,
          "time": 106.49984024999999,
          "velocity": 0.6771653543307087
        },
        {
          "duration": 0.0789472499999988,
          "durationTicks": 96,
          "midi": 77,
          "name": "F5",
          "ticks": 129504,
          "time": 106.49984024999999,
          "velocity": 0.6771653543307087
        },
        {
          "duration": 0.0789472499999988,
          "durationTicks": 96,
          "midi": 65,
          "name": "F4",
          "ticks": 129600,
          "time": 106.57878749999999,
          "velocity": 0.6771653543307087
        },
        {
          "duration": 0.0789472499999988,
          "durationTicks": 96,
          "midi": 77,
          "name": "F5",
          "ticks": 129600,
          "time": 106.57878749999999,
          "velocity": 0.6771653543307087
        },
        {
          "duration": 0.07894725000001301,
          "durationTicks": 96,
          "midi": 65,
          "name": "F4",
          "ticks": 129696,
          "time": 106.65773474999999,
          "velocity": 0.6771653543307087
        },
        {
          "duration": 0.07894725000001301,
          "durationTicks": 96,
          "midi": 77,
          "name": "F5",
          "ticks": 129696,
          "time": 106.65773474999999,
          "velocity": 0.6771653543307087
        },
        {
          "duration": 0.0789472499999988,
          "durationTicks": 96,
          "midi": 65,
          "name": "F4",
          "ticks": 129792,
          "time": 106.736682,
          "velocity": 0.6771653543307087
        },
        {
          "duration": 0.0789472499999988,
          "durationTicks": 96,
          "midi": 77,
          "name": "F5",
          "ticks": 129792,
          "time": 106.736682,
          "velocity": 0.6771653543307087
        },
        {
          "duration": 0.0789472499999988,
          "durationTicks": 96,
          "midi": 77,
          "name": "F5",
          "ticks": 129888,
          "time": 106.81562925,
          "velocity": 0.6771653543307087
        },
        {
          "duration": 0.0789472499999988,
          "durationTicks": 96,
          "midi": 65,
          "name": "F4",
          "ticks": 129888,
          "time": 106.81562925,
          "velocity": 0.6771653543307087
        },
        {
          "duration": 0.0789472499999988,
          "durationTicks": 96,
          "midi": 65,
          "name": "F4",
          "ticks": 129984,
          "time": 106.8945765,
          "velocity": 0.6771653543307087
        },
        {
          "duration": 0.0789472499999988,
          "durationTicks": 96,
          "midi": 77,
          "name": "F5",
          "ticks": 129984,
          "time": 106.8945765,
          "velocity": 0.6771653543307087
        },
        {
          "duration": 0.0789472499999988,
          "durationTicks": 96,
          "midi": 65,
          "name": "F4",
          "ticks": 130080,
          "time": 106.97352375,
          "velocity": 0.6771653543307087
        },
        {
          "duration": 0.0789472499999988,
          "durationTicks": 96,
          "midi": 77,
          "name": "F5",
          "ticks": 130080,
          "time": 106.97352375,
          "velocity": 0.6771653543307087
        },
        {
          "duration": 0.0789472499999988,
          "durationTicks": 96,
          "midi": 65,
          "name": "F4",
          "ticks": 130176,
          "time": 107.052471,
          "velocity": 0.6771653543307087
        },
        {
          "duration": 0.0789472499999988,
          "durationTicks": 96,
          "midi": 77,
          "name": "F5",
          "ticks": 130176,
          "time": 107.052471,
          "velocity": 0.6771653543307087
        },
        {
          "duration": 0.0789472499999988,
          "durationTicks": 96,
          "midi": 65,
          "name": "F4",
          "ticks": 130272,
          "time": 107.13141825,
          "velocity": 0.6771653543307087
        },
        {
          "duration": 0.0789472499999988,
          "durationTicks": 96,
          "midi": 77,
          "name": "F5",
          "ticks": 130272,
          "time": 107.13141825,
          "velocity": 0.6771653543307087
        },
        {
          "duration": 0.0789472499999988,
          "durationTicks": 96,
          "midi": 77,
          "name": "F5",
          "ticks": 130368,
          "time": 107.2103655,
          "velocity": 0.6771653543307087
        },
        {
          "duration": 0.0789472499999988,
          "durationTicks": 96,
          "midi": 65,
          "name": "F4",
          "ticks": 130368,
          "time": 107.2103655,
          "velocity": 0.6771653543307087
        },
        {
          "duration": 0.0789472499999988,
          "durationTicks": 96,
          "midi": 65,
          "name": "F4",
          "ticks": 130464,
          "time": 107.28931275,
          "velocity": 0.6771653543307087
        },
        {
          "duration": 0.0789472499999988,
          "durationTicks": 96,
          "midi": 77,
          "name": "F5",
          "ticks": 130464,
          "time": 107.28931275,
          "velocity": 0.6771653543307087
        },
        {
          "duration": 0.0789472499999988,
          "durationTicks": 96,
          "midi": 77,
          "name": "F5",
          "ticks": 130560,
          "time": 107.36825999999999,
          "velocity": 0.6771653543307087
        },
        {
          "duration": 0.0789472499999988,
          "durationTicks": 96,
          "midi": 65,
          "name": "F4",
          "ticks": 130560,
          "time": 107.36825999999999,
          "velocity": 0.6771653543307087
        },
        {
          "duration": 0.0789472499999988,
          "durationTicks": 96,
          "midi": 65,
          "name": "F4",
          "ticks": 130656,
          "time": 107.44720724999999,
          "velocity": 0.6771653543307087
        },
        {
          "duration": 0.0789472499999988,
          "durationTicks": 96,
          "midi": 77,
          "name": "F5",
          "ticks": 130656,
          "time": 107.44720724999999,
          "velocity": 0.6771653543307087
        },
        {
          "duration": 0.0789472499999988,
          "durationTicks": 96,
          "midi": 65,
          "name": "F4",
          "ticks": 130752,
          "time": 107.52615449999999,
          "velocity": 0.6771653543307087
        },
        {
          "duration": 0.0789472499999988,
          "durationTicks": 96,
          "midi": 77,
          "name": "F5",
          "ticks": 130752,
          "time": 107.52615449999999,
          "velocity": 0.6771653543307087
        },
        {
          "duration": 0.07894725000001301,
          "durationTicks": 96,
          "midi": 65,
          "name": "F4",
          "ticks": 130848,
          "time": 107.60510174999999,
          "velocity": 0.6771653543307087
        },
        {
          "duration": 0.07894725000001301,
          "durationTicks": 96,
          "midi": 77,
          "name": "F5",
          "ticks": 130848,
          "time": 107.60510174999999,
          "velocity": 0.6771653543307087
        },
        {
          "duration": 0.0789472499999988,
          "durationTicks": 96,
          "midi": 77,
          "name": "F5",
          "ticks": 130944,
          "time": 107.684049,
          "velocity": 0.6771653543307087
        },
        {
          "duration": 0.0789472499999988,
          "durationTicks": 96,
          "midi": 65,
          "name": "F4",
          "ticks": 130944,
          "time": 107.684049,
          "velocity": 0.6771653543307087
        },
        {
          "duration": 0.0789472499999988,
          "durationTicks": 96,
          "midi": 65,
          "name": "F4",
          "ticks": 131040,
          "time": 107.76299625,
          "velocity": 0.6771653543307087
        },
        {
          "duration": 0.0789472499999988,
          "durationTicks": 96,
          "midi": 77,
          "name": "F5",
          "ticks": 131040,
          "time": 107.76299625,
          "velocity": 0.6771653543307087
        },
        {
          "duration": 0.0789472499999988,
          "durationTicks": 96,
          "midi": 65,
          "name": "F4",
          "ticks": 131136,
          "time": 107.8419435,
          "velocity": 0.6771653543307087
        },
        {
          "duration": 0.0789472499999988,
          "durationTicks": 96,
          "midi": 77,
          "name": "F5",
          "ticks": 131136,
          "time": 107.8419435,
          "velocity": 0.6771653543307087
        },
        {
          "duration": 0.0789472499999988,
          "durationTicks": 96,
          "midi": 77,
          "name": "F5",
          "ticks": 131232,
          "time": 107.92089075,
          "velocity": 0.6771653543307087
        },
        {
          "duration": 0.0789472499999988,
          "durationTicks": 96,
          "midi": 65,
          "name": "F4",
          "ticks": 131232,
          "time": 107.92089075,
          "velocity": 0.6771653543307087
        },
        {
          "duration": 0.0789472499999988,
          "durationTicks": 96,
          "midi": 55,
          "name": "G3",
          "ticks": 131328,
          "time": 107.999838,
          "velocity": 0.6771653543307087
        },
        {
          "duration": 0.0789472499999988,
          "durationTicks": 96,
          "midi": 67,
          "name": "G4",
          "ticks": 131328,
          "time": 107.999838,
          "velocity": 0.6771653543307087
        },
        {
          "duration": 0.0789472499999988,
          "durationTicks": 96,
          "midi": 67,
          "name": "G4",
          "ticks": 131424,
          "time": 108.07878525,
          "velocity": 0.6771653543307087
        },
        {
          "duration": 0.0789472499999988,
          "durationTicks": 96,
          "midi": 55,
          "name": "G3",
          "ticks": 131424,
          "time": 108.07878525,
          "velocity": 0.6771653543307087
        },
        {
          "duration": 0.0789472499999988,
          "durationTicks": 96,
          "midi": 67,
          "name": "G4",
          "ticks": 131520,
          "time": 108.1577325,
          "velocity": 0.6771653543307087
        },
        {
          "duration": 0.0789472499999988,
          "durationTicks": 96,
          "midi": 55,
          "name": "G3",
          "ticks": 131520,
          "time": 108.1577325,
          "velocity": 0.6771653543307087
        },
        {
          "duration": 0.0789472499999988,
          "durationTicks": 96,
          "midi": 55,
          "name": "G3",
          "ticks": 131616,
          "time": 108.23667975,
          "velocity": 0.6771653543307087
        },
        {
          "duration": 0.0789472499999988,
          "durationTicks": 96,
          "midi": 67,
          "name": "G4",
          "ticks": 131616,
          "time": 108.23667975,
          "velocity": 0.6771653543307087
        },
        {
          "duration": 0.0789472499999988,
          "durationTicks": 96,
          "midi": 67,
          "name": "G4",
          "ticks": 131712,
          "time": 108.31562699999999,
          "velocity": 0.6771653543307087
        },
        {
          "duration": 0.0789472499999988,
          "durationTicks": 96,
          "midi": 55,
          "name": "G3",
          "ticks": 131712,
          "time": 108.31562699999999,
          "velocity": 0.6771653543307087
        },
        {
          "duration": 0.0789472499999988,
          "durationTicks": 96,
          "midi": 55,
          "name": "G3",
          "ticks": 131808,
          "time": 108.39457424999999,
          "velocity": 0.6771653543307087
        },
        {
          "duration": 0.0789472499999988,
          "durationTicks": 96,
          "midi": 67,
          "name": "G4",
          "ticks": 131808,
          "time": 108.39457424999999,
          "velocity": 0.6771653543307087
        },
        {
          "duration": 0.0789472499999988,
          "durationTicks": 96,
          "midi": 55,
          "name": "G3",
          "ticks": 131904,
          "time": 108.47352149999999,
          "velocity": 0.6771653543307087
        },
        {
          "duration": 0.0789472499999988,
          "durationTicks": 96,
          "midi": 67,
          "name": "G4",
          "ticks": 131904,
          "time": 108.47352149999999,
          "velocity": 0.6771653543307087
        },
        {
          "duration": 0.07894725000001301,
          "durationTicks": 96,
          "midi": 67,
          "name": "G4",
          "ticks": 132000,
          "time": 108.55246874999999,
          "velocity": 0.6771653543307087
        },
        {
          "duration": 0.07894725000001301,
          "durationTicks": 96,
          "midi": 55,
          "name": "G3",
          "ticks": 132000,
          "time": 108.55246874999999,
          "velocity": 0.6771653543307087
        },
        {
          "duration": 0.0789472499999988,
          "durationTicks": 96,
          "midi": 53,
          "name": "F3",
          "ticks": 132096,
          "time": 108.631416,
          "velocity": 0.6771653543307087
        },
        {
          "duration": 0.0789472499999988,
          "durationTicks": 96,
          "midi": 65,
          "name": "F4",
          "ticks": 132096,
          "time": 108.631416,
          "velocity": 0.6771653543307087
        },
        {
          "duration": 0.0789472499999988,
          "durationTicks": 96,
          "midi": 53,
          "name": "F3",
          "ticks": 132192,
          "time": 108.71036325,
          "velocity": 0.6771653543307087
        },
        {
          "duration": 0.0789472499999988,
          "durationTicks": 96,
          "midi": 65,
          "name": "F4",
          "ticks": 132192,
          "time": 108.71036325,
          "velocity": 0.6771653543307087
        },
        {
          "duration": 0.0789472499999988,
          "durationTicks": 96,
          "midi": 53,
          "name": "F3",
          "ticks": 132288,
          "time": 108.7893105,
          "velocity": 0.6771653543307087
        },
        {
          "duration": 0.0789472499999988,
          "durationTicks": 96,
          "midi": 65,
          "name": "F4",
          "ticks": 132288,
          "time": 108.7893105,
          "velocity": 0.6771653543307087
        },
        {
          "duration": 0.0789472499999988,
          "durationTicks": 96,
          "midi": 65,
          "name": "F4",
          "ticks": 132384,
          "time": 108.86825775,
          "velocity": 0.6771653543307087
        },
        {
          "duration": 0.0789472499999988,
          "durationTicks": 96,
          "midi": 53,
          "name": "F3",
          "ticks": 132384,
          "time": 108.86825775,
          "velocity": 0.6771653543307087
        },
        {
          "duration": 0.0789472499999988,
          "durationTicks": 96,
          "midi": 53,
          "name": "F3",
          "ticks": 132480,
          "time": 108.947205,
          "velocity": 0.6771653543307087
        },
        {
          "duration": 0.0789472499999988,
          "durationTicks": 96,
          "midi": 65,
          "name": "F4",
          "ticks": 132480,
          "time": 108.947205,
          "velocity": 0.6771653543307087
        },
        {
          "duration": 0.0789472499999988,
          "durationTicks": 96,
          "midi": 53,
          "name": "F3",
          "ticks": 132576,
          "time": 109.02615225,
          "velocity": 0.6771653543307087
        },
        {
          "duration": 0.0789472499999988,
          "durationTicks": 96,
          "midi": 65,
          "name": "F4",
          "ticks": 132576,
          "time": 109.02615225,
          "velocity": 0.6771653543307087
        },
        {
          "duration": 0.0789472499999988,
          "durationTicks": 96,
          "midi": 53,
          "name": "F3",
          "ticks": 132672,
          "time": 109.1050995,
          "velocity": 0.6771653543307087
        },
        {
          "duration": 0.0789472499999988,
          "durationTicks": 96,
          "midi": 65,
          "name": "F4",
          "ticks": 132672,
          "time": 109.1050995,
          "velocity": 0.6771653543307087
        },
        {
          "duration": 0.0789472499999988,
          "durationTicks": 96,
          "midi": 65,
          "name": "F4",
          "ticks": 132768,
          "time": 109.18404675,
          "velocity": 0.6771653543307087
        },
        {
          "duration": 0.0789472499999988,
          "durationTicks": 96,
          "midi": 53,
          "name": "F3",
          "ticks": 132768,
          "time": 109.18404675,
          "velocity": 0.6771653543307087
        },
        {
          "duration": 0.0789472499999988,
          "durationTicks": 96,
          "midi": 65,
          "name": "F4",
          "ticks": 132864,
          "time": 109.26299399999999,
          "velocity": 0.6771653543307087
        },
        {
          "duration": 0.0789472499999988,
          "durationTicks": 96,
          "midi": 53,
          "name": "F3",
          "ticks": 132864,
          "time": 109.26299399999999,
          "velocity": 0.6771653543307087
        },
        {
          "duration": 0.0789472499999988,
          "durationTicks": 96,
          "midi": 53,
          "name": "F3",
          "ticks": 132960,
          "time": 109.34194124999999,
          "velocity": 0.6771653543307087
        },
        {
          "duration": 0.0789472499999988,
          "durationTicks": 96,
          "midi": 65,
          "name": "F4",
          "ticks": 132960,
          "time": 109.34194124999999,
          "velocity": 0.6771653543307087
        },
        {
          "duration": 0.0789472499999988,
          "durationTicks": 96,
          "midi": 65,
          "name": "F4",
          "ticks": 133056,
          "time": 109.42088849999999,
          "velocity": 0.6771653543307087
        },
        {
          "duration": 0.0789472499999988,
          "durationTicks": 96,
          "midi": 53,
          "name": "F3",
          "ticks": 133056,
          "time": 109.42088849999999,
          "velocity": 0.6771653543307087
        },
        {
          "duration": 0.07894725000001301,
          "durationTicks": 96,
          "midi": 53,
          "name": "F3",
          "ticks": 133152,
          "time": 109.49983574999999,
          "velocity": 0.6771653543307087
        },
        {
          "duration": 0.07894725000001301,
          "durationTicks": 96,
          "midi": 65,
          "name": "F4",
          "ticks": 133152,
          "time": 109.49983574999999,
          "velocity": 0.6771653543307087
        },
        {
          "duration": 0.0789472499999988,
          "durationTicks": 96,
          "midi": 53,
          "name": "F3",
          "ticks": 133248,
          "time": 109.578783,
          "velocity": 0.6771653543307087
        },
        {
          "duration": 0.0789472499999988,
          "durationTicks": 96,
          "midi": 65,
          "name": "F4",
          "ticks": 133248,
          "time": 109.578783,
          "velocity": 0.6771653543307087
        },
        {
          "duration": 0.0789472499999988,
          "durationTicks": 96,
          "midi": 53,
          "name": "F3",
          "ticks": 133344,
          "time": 109.65773025,
          "velocity": 0.6771653543307087
        },
        {
          "duration": 0.0789472499999988,
          "durationTicks": 96,
          "midi": 65,
          "name": "F4",
          "ticks": 133344,
          "time": 109.65773025,
          "velocity": 0.6771653543307087
        },
        {
          "duration": 0.0789472499999988,
          "durationTicks": 96,
          "midi": 65,
          "name": "F4",
          "ticks": 133440,
          "time": 109.7366775,
          "velocity": 0.6771653543307087
        },
        {
          "duration": 0.0789472499999988,
          "durationTicks": 96,
          "midi": 53,
          "name": "F3",
          "ticks": 133440,
          "time": 109.7366775,
          "velocity": 0.6771653543307087
        },
        {
          "duration": 0.0789472499999988,
          "durationTicks": 96,
          "midi": 65,
          "name": "F4",
          "ticks": 133536,
          "time": 109.81562475,
          "velocity": 0.6771653543307087
        },
        {
          "duration": 0.0789472499999988,
          "durationTicks": 96,
          "midi": 53,
          "name": "F3",
          "ticks": 133536,
          "time": 109.81562475,
          "velocity": 0.6771653543307087
        },
        {
          "duration": 0.0789472499999988,
          "durationTicks": 96,
          "midi": 52,
          "name": "E3",
          "ticks": 133632,
          "time": 109.894572,
          "velocity": 0.6771653543307087
        },
        {
          "duration": 0.0789472499999988,
          "durationTicks": 96,
          "midi": 64,
          "name": "E4",
          "ticks": 133632,
          "time": 109.894572,
          "velocity": 0.6771653543307087
        },
        {
          "duration": 0.0789472499999988,
          "durationTicks": 96,
          "midi": 52,
          "name": "E3",
          "ticks": 133728,
          "time": 109.97351925,
          "velocity": 0.6771653543307087
        },
        {
          "duration": 0.0789472499999988,
          "durationTicks": 96,
          "midi": 64,
          "name": "E4",
          "ticks": 133728,
          "time": 109.97351925,
          "velocity": 0.6771653543307087
        },
        {
          "duration": 0.0789472499999988,
          "durationTicks": 96,
          "midi": 64,
          "name": "E4",
          "ticks": 133824,
          "time": 110.0524665,
          "velocity": 0.6771653543307087
        },
        {
          "duration": 0.0789472499999988,
          "durationTicks": 96,
          "midi": 52,
          "name": "E3",
          "ticks": 133824,
          "time": 110.0524665,
          "velocity": 0.6771653543307087
        },
        {
          "duration": 0.0789472499999988,
          "durationTicks": 96,
          "midi": 64,
          "name": "E4",
          "ticks": 133920,
          "time": 110.13141375,
          "velocity": 0.6771653543307087
        },
        {
          "duration": 0.0789472499999988,
          "durationTicks": 96,
          "midi": 52,
          "name": "E3",
          "ticks": 133920,
          "time": 110.13141375,
          "velocity": 0.6771653543307087
        },
        {
          "duration": 0.0789472499999988,
          "durationTicks": 96,
          "midi": 52,
          "name": "E3",
          "ticks": 134016,
          "time": 110.21036099999999,
          "velocity": 0.6771653543307087
        },
        {
          "duration": 0.0789472499999988,
          "durationTicks": 96,
          "midi": 64,
          "name": "E4",
          "ticks": 134016,
          "time": 110.21036099999999,
          "velocity": 0.6771653543307087
        },
        {
          "duration": 0.0789472499999988,
          "durationTicks": 96,
          "midi": 52,
          "name": "E3",
          "ticks": 134112,
          "time": 110.28930824999999,
          "velocity": 0.6771653543307087
        },
        {
          "duration": 0.0789472499999988,
          "durationTicks": 96,
          "midi": 64,
          "name": "E4",
          "ticks": 134112,
          "time": 110.28930824999999,
          "velocity": 0.6771653543307087
        },
        {
          "duration": 0.0789472499999988,
          "durationTicks": 96,
          "midi": 52,
          "name": "E3",
          "ticks": 134208,
          "time": 110.36825549999999,
          "velocity": 0.6771653543307087
        },
        {
          "duration": 0.0789472499999988,
          "durationTicks": 96,
          "midi": 64,
          "name": "E4",
          "ticks": 134208,
          "time": 110.36825549999999,
          "velocity": 0.6771653543307087
        },
        {
          "duration": 0.07894725000001301,
          "durationTicks": 96,
          "midi": 52,
          "name": "E3",
          "ticks": 134304,
          "time": 110.44720274999999,
          "velocity": 0.6771653543307087
        },
        {
          "duration": 0.07894725000001301,
          "durationTicks": 96,
          "midi": 64,
          "name": "E4",
          "ticks": 134304,
          "time": 110.44720274999999,
          "velocity": 0.6771653543307087
        },
        {
          "duration": 0.0789472499999988,
          "durationTicks": 96,
          "midi": 55,
          "name": "G3",
          "ticks": 134400,
          "time": 110.52615,
          "velocity": 0.6771653543307087
        },
        {
          "duration": 0.0789472499999988,
          "durationTicks": 96,
          "midi": 67,
          "name": "G4",
          "ticks": 134400,
          "time": 110.52615,
          "velocity": 0.6771653543307087
        },
        {
          "duration": 0.0789472499999988,
          "durationTicks": 96,
          "midi": 55,
          "name": "G3",
          "ticks": 134496,
          "time": 110.60509725,
          "velocity": 0.6771653543307087
        },
        {
          "duration": 0.0789472499999988,
          "durationTicks": 96,
          "midi": 67,
          "name": "G4",
          "ticks": 134496,
          "time": 110.60509725,
          "velocity": 0.6771653543307087
        },
        {
          "duration": 0.0789472499999988,
          "durationTicks": 96,
          "midi": 55,
          "name": "G3",
          "ticks": 134592,
          "time": 110.6840445,
          "velocity": 0.6771653543307087
        },
        {
          "duration": 0.0789472499999988,
          "durationTicks": 96,
          "midi": 67,
          "name": "G4",
          "ticks": 134592,
          "time": 110.6840445,
          "velocity": 0.6771653543307087
        },
        {
          "duration": 0.0789472499999988,
          "durationTicks": 96,
          "midi": 67,
          "name": "G4",
          "ticks": 134688,
          "time": 110.76299175,
          "velocity": 0.6771653543307087
        },
        {
          "duration": 0.0789472499999988,
          "durationTicks": 96,
          "midi": 55,
          "name": "G3",
          "ticks": 134688,
          "time": 110.76299175,
          "velocity": 0.6771653543307087
        },
        {
          "duration": 0.0789472499999988,
          "durationTicks": 96,
          "midi": 55,
          "name": "G3",
          "ticks": 134784,
          "time": 110.841939,
          "velocity": 0.6771653543307087
        },
        {
          "duration": 0.0789472499999988,
          "durationTicks": 96,
          "midi": 67,
          "name": "G4",
          "ticks": 134784,
          "time": 110.841939,
          "velocity": 0.6771653543307087
        },
        {
          "duration": 0.0789472499999988,
          "durationTicks": 96,
          "midi": 67,
          "name": "G4",
          "ticks": 134880,
          "time": 110.92088625,
          "velocity": 0.6771653543307087
        },
        {
          "duration": 0.0789472499999988,
          "durationTicks": 96,
          "midi": 55,
          "name": "G3",
          "ticks": 134880,
          "time": 110.92088625,
          "velocity": 0.6771653543307087
        },
        {
          "duration": 0.0789472499999988,
          "durationTicks": 96,
          "midi": 55,
          "name": "G3",
          "ticks": 134976,
          "time": 110.9998335,
          "velocity": 0.6771653543307087
        },
        {
          "duration": 0.0789472499999988,
          "durationTicks": 96,
          "midi": 67,
          "name": "G4",
          "ticks": 134976,
          "time": 110.9998335,
          "velocity": 0.6771653543307087
        }
      ],
      "endOfTrackTicks": 135072
    },
    {
      "channel": 1,
      "controlChanges": {},
      "pitchBends": [],
      "instrument": {
        "family": "bass",
        "number": 32,
        "name": "acoustic bass"
      },
      "name": "Bass (Classic)",
      "notes": [
        {
          "duration": 0.0789472499999988,
          "durationTicks": 96,
          "midi": 34,
          "name": "A#1",
          "ticks": 73728,
          "time": 60.631488,
          "velocity": 0.8267716535433071
        },
        {
          "duration": 0.07894725000000591,
          "durationTicks": 96,
          "midi": 41,
          "name": "F2",
          "ticks": 73920,
          "time": 60.789382499999995,
          "velocity": 0.6377952755905512
        },
        {
          "duration": 0.0789472499999988,
          "durationTicks": 96,
          "midi": 29,
          "name": "F1",
          "ticks": 74112,
          "time": 60.947277,
          "velocity": 0.6377952755905512
        },
        {
          "duration": 0.0789472499999988,
          "durationTicks": 96,
          "midi": 41,
          "name": "F2",
          "ticks": 74304,
          "time": 61.1051715,
          "velocity": 0.6377952755905512
        },
        {
          "duration": 0.07894725000000591,
          "durationTicks": 96,
          "midi": 34,
          "name": "A#1",
          "ticks": 74496,
          "time": 61.263065999999995,
          "velocity": 0.6377952755905512
        },
        {
          "duration": 0.0789472499999988,
          "durationTicks": 96,
          "midi": 41,
          "name": "F2",
          "ticks": 74688,
          "time": 61.4209605,
          "velocity": 0.6377952755905512
        },
        {
          "duration": 0.0789472499999988,
          "durationTicks": 96,
          "midi": 29,
          "name": "F1",
          "ticks": 74880,
          "time": 61.578855,
          "velocity": 0.6377952755905512
        },
        {
          "duration": 0.07894725000000591,
          "durationTicks": 96,
          "midi": 41,
          "name": "F2",
          "ticks": 75072,
          "time": 61.736749499999995,
          "velocity": 0.6377952755905512
        },
        {
          "duration": 0.0789472499999988,
          "durationTicks": 96,
          "midi": 34,
          "name": "A#1",
          "ticks": 75264,
          "time": 61.894644,
          "velocity": 0.6377952755905512
        },
        {
          "duration": 0.0789472499999988,
          "durationTicks": 96,
          "midi": 41,
          "name": "F2",
          "ticks": 75456,
          "time": 62.0525385,
          "velocity": 0.6377952755905512
        },
        {
          "duration": 0.07894725000000591,
          "durationTicks": 96,
          "midi": 29,
          "name": "F1",
          "ticks": 75648,
          "time": 62.210432999999995,
          "velocity": 0.6377952755905512
        },
        {
          "duration": 0.0789472499999988,
          "durationTicks": 96,
          "midi": 41,
          "name": "F2",
          "ticks": 75840,
          "time": 62.3683275,
          "velocity": 0.6377952755905512
        },
        {
          "duration": 0.0789472499999988,
          "durationTicks": 96,
          "midi": 34,
          "name": "A#1",
          "ticks": 76032,
          "time": 62.526222,
          "velocity": 0.6377952755905512
        },
        {
          "duration": 0.07894725000000591,
          "durationTicks": 96,
          "midi": 41,
          "name": "F2",
          "ticks": 76224,
          "time": 62.684116499999995,
          "velocity": 0.6377952755905512
        },
        {
          "duration": 0.0789472499999988,
          "durationTicks": 96,
          "midi": 29,
          "name": "F1",
          "ticks": 76416,
          "time": 62.842011,
          "velocity": 0.6377952755905512
        },
        {
          "duration": 0.0789472499999988,
          "durationTicks": 96,
          "midi": 41,
          "name": "F2",
          "ticks": 76608,
          "time": 62.9999055,
          "velocity": 0.6377952755905512
        },
        {
          "duration": 0.07894725000000591,
          "durationTicks": 96,
          "midi": 36,
          "name": "C2",
          "ticks": 76800,
          "time": 63.157799999999995,
          "velocity": 0.6377952755905512
        },
        {
          "duration": 0.0789472499999988,
          "durationTicks": 96,
          "midi": 44,
          "name": "G#2",
          "ticks": 76992,
          "time": 63.3156945,
          "velocity": 0.6377952755905512
        },
        {
          "duration": 0.0789472499999988,
          "durationTicks": 96,
          "midi": 32,
          "name": "G#1",
          "ticks": 77184,
          "time": 63.473589,
          "velocity": 0.6377952755905512
        },
        {
          "duration": 0.07894725000000591,
          "durationTicks": 96,
          "midi": 44,
          "name": "G#2",
          "ticks": 77376,
          "time": 63.631483499999995,
          "velocity": 0.6377952755905512
        },
        {
          "duration": 0.0789472499999988,
          "durationTicks": 96,
          "midi": 36,
          "name": "C2",
          "ticks": 77568,
          "time": 63.789378,
          "velocity": 0.6377952755905512
        },
        {
          "duration": 0.0789472499999988,
          "durationTicks": 96,
          "midi": 44,
          "name": "G#2",
          "ticks": 77760,
          "time": 63.9472725,
          "velocity": 0.6377952755905512
        },
        {
          "duration": 0.0789472499999988,
          "durationTicks": 96,
          "midi": 32,
          "name": "G#1",
          "ticks": 77952,
          "time": 64.105167,
          "velocity": 0.6377952755905512
        },
        {
          "duration": 0.0789472499999988,
          "durationTicks": 96,
          "midi": 44,
          "name": "G#2",
          "ticks": 78144,
          "time": 64.26306149999999,
          "velocity": 0.6377952755905512
        },
        {
          "duration": 0.0789472499999988,
          "durationTicks": 96,
          "midi": 36,
          "name": "C2",
          "ticks": 78336,
          "time": 64.420956,
          "velocity": 0.6377952755905512
        },
        {
          "duration": 0.0789472499999988,
          "durationTicks": 96,
          "midi": 44,
          "name": "G#2",
          "ticks": 78528,
          "time": 64.5788505,
          "velocity": 0.6377952755905512
        },
        {
          "duration": 0.0789472499999988,
          "durationTicks": 96,
          "midi": 32,
          "name": "G#1",
          "ticks": 78720,
          "time": 64.736745,
          "velocity": 0.6377952755905512
        },
        {
          "duration": 0.0789472499999988,
          "durationTicks": 96,
          "midi": 44,
          "name": "G#2",
          "ticks": 78912,
          "time": 64.8946395,
          "velocity": 0.6377952755905512
        },
        {
          "duration": 0.0789472499999988,
          "durationTicks": 96,
          "midi": 36,
          "name": "C2",
          "ticks": 79104,
          "time": 65.052534,
          "velocity": 0.6377952755905512
        },
        {
          "duration": 0.0789472499999988,
          "durationTicks": 96,
          "midi": 44,
          "name": "G#2",
          "ticks": 79296,
          "time": 65.21042849999999,
          "velocity": 0.6377952755905512
        },
        {
          "duration": 0.0789472499999988,
          "durationTicks": 96,
          "midi": 32,
          "name": "G#1",
          "ticks": 79488,
          "time": 65.368323,
          "velocity": 0.6377952755905512
        },
        {
          "duration": 0.0789472499999988,
          "durationTicks": 96,
          "midi": 44,
          "name": "G#2",
          "ticks": 79680,
          "time": 65.5262175,
          "velocity": 0.6377952755905512
        },
        {
          "duration": 0.0789472499999988,
          "durationTicks": 96,
          "midi": 37,
          "name": "C#2",
          "ticks": 79872,
          "time": 65.684112,
          "velocity": 0.6377952755905512
        },
        {
          "duration": 0.0789472499999988,
          "durationTicks": 96,
          "midi": 44,
          "name": "G#2",
          "ticks": 80064,
          "time": 65.8420065,
          "velocity": 0.6377952755905512
        },
        {
          "duration": 0.0789472499999988,
          "durationTicks": 96,
          "midi": 32,
          "name": "G#1",
          "ticks": 80256,
          "time": 65.999901,
          "velocity": 0.6377952755905512
        },
        {
          "duration": 0.0789472499999988,
          "durationTicks": 96,
          "midi": 44,
          "name": "G#2",
          "ticks": 80448,
          "time": 66.15779549999999,
          "velocity": 0.6377952755905512
        },
        {
          "duration": 0.0789472499999988,
          "durationTicks": 96,
          "midi": 37,
          "name": "C#2",
          "ticks": 80640,
          "time": 66.31569,
          "velocity": 0.6377952755905512
        },
        {
          "duration": 0.0789472499999988,
          "durationTicks": 96,
          "midi": 44,
          "name": "G#2",
          "ticks": 80832,
          "time": 66.4735845,
          "velocity": 0.6377952755905512
        },
        {
          "duration": 0.0789472499999988,
          "durationTicks": 96,
          "midi": 32,
          "name": "G#1",
          "ticks": 81024,
          "time": 66.631479,
          "velocity": 0.6377952755905512
        },
        {
          "duration": 0.0789472499999988,
          "durationTicks": 96,
          "midi": 44,
          "name": "G#2",
          "ticks": 81216,
          "time": 66.7893735,
          "velocity": 0.6377952755905512
        },
        {
          "duration": 0.0789472499999988,
          "durationTicks": 96,
          "midi": 37,
          "name": "C#2",
          "ticks": 81408,
          "time": 66.947268,
          "velocity": 0.6377952755905512
        },
        {
          "duration": 0.0789472499999988,
          "durationTicks": 96,
          "midi": 44,
          "name": "G#2",
          "ticks": 81600,
          "time": 67.10516249999999,
          "velocity": 0.6377952755905512
        },
        {
          "duration": 0.0789472499999988,
          "durationTicks": 96,
          "midi": 32,
          "name": "G#1",
          "ticks": 81792,
          "time": 67.263057,
          "velocity": 0.6377952755905512
        },
        {
          "duration": 0.0789472499999988,
          "durationTicks": 96,
          "midi": 44,
          "name": "G#2",
          "ticks": 81984,
          "time": 67.4209515,
          "velocity": 0.6377952755905512
        },
        {
          "duration": 0.0789472499999988,
          "durationTicks": 96,
          "midi": 37,
          "name": "C#2",
          "ticks": 82176,
          "time": 67.578846,
          "velocity": 0.6377952755905512
        },
        {
          "duration": 0.0789472499999988,
          "durationTicks": 96,
          "midi": 44,
          "name": "G#2",
          "ticks": 82368,
          "time": 67.7367405,
          "velocity": 0.6377952755905512
        },
        {
          "duration": 0.0789472499999988,
          "durationTicks": 96,
          "midi": 32,
          "name": "G#1",
          "ticks": 82560,
          "time": 67.894635,
          "velocity": 0.6377952755905512
        },
        {
          "duration": 0.0789472499999988,
          "durationTicks": 96,
          "midi": 44,
          "name": "G#2",
          "ticks": 82752,
          "time": 68.05252949999999,
          "velocity": 0.6377952755905512
        },
        {
          "duration": 0.0789472499999988,
          "durationTicks": 96,
          "midi": 37,
          "name": "C#2",
          "ticks": 82944,
          "time": 68.210424,
          "velocity": 0.6377952755905512
        },
        {
          "duration": 0.0789472499999988,
          "durationTicks": 96,
          "midi": 44,
          "name": "G#2",
          "ticks": 83136,
          "time": 68.3683185,
          "velocity": 0.6377952755905512
        },
        {
          "duration": 0.0789472499999988,
          "durationTicks": 96,
          "midi": 32,
          "name": "G#1",
          "ticks": 83328,
          "time": 68.526213,
          "velocity": 0.6377952755905512
        },
        {
          "duration": 0.0789472499999988,
          "durationTicks": 96,
          "midi": 44,
          "name": "G#2",
          "ticks": 83520,
          "time": 68.6841075,
          "velocity": 0.6377952755905512
        },
        {
          "duration": 0.0789472499999988,
          "durationTicks": 96,
          "midi": 37,
          "name": "C#2",
          "ticks": 83712,
          "time": 68.842002,
          "velocity": 0.6377952755905512
        },
        {
          "duration": 0.0789472499999988,
          "durationTicks": 96,
          "midi": 44,
          "name": "G#2",
          "ticks": 83904,
          "time": 68.99989649999999,
          "velocity": 0.6377952755905512
        },
        {
          "duration": 0.0789472499999988,
          "durationTicks": 96,
          "midi": 32,
          "name": "G#1",
          "ticks": 84096,
          "time": 69.157791,
          "velocity": 0.6377952755905512
        },
        {
          "duration": 0.0789472499999988,
          "durationTicks": 96,
          "midi": 44,
          "name": "G#2",
          "ticks": 84288,
          "time": 69.3156855,
          "velocity": 0.6377952755905512
        },
        {
          "duration": 0.0789472499999988,
          "durationTicks": 96,
          "midi": 36,
          "name": "C2",
          "ticks": 84480,
          "time": 69.47358,
          "velocity": 0.6377952755905512
        },
        {
          "duration": 0.0789472499999988,
          "durationTicks": 96,
          "midi": 43,
          "name": "G2",
          "ticks": 84672,
          "time": 69.6314745,
          "velocity": 0.6377952755905512
        },
        {
          "duration": 0.0789472499999988,
          "durationTicks": 96,
          "midi": 31,
          "name": "G1",
          "ticks": 84864,
          "time": 69.789369,
          "velocity": 0.6377952755905512
        },
        {
          "duration": 0.0789472499999988,
          "durationTicks": 96,
          "midi": 43,
          "name": "G2",
          "ticks": 85056,
          "time": 69.94726349999999,
          "velocity": 0.6377952755905512
        },
        {
          "duration": 0.0789472499999988,
          "durationTicks": 96,
          "midi": 36,
          "name": "C2",
          "ticks": 85248,
          "time": 70.105158,
          "velocity": 0.6377952755905512
        },
        {
          "duration": 0.0789472499999988,
          "durationTicks": 96,
          "midi": 43,
          "name": "G2",
          "ticks": 85440,
          "time": 70.2630525,
          "velocity": 0.6377952755905512
        },
        {
          "duration": 0.0789472499999988,
          "durationTicks": 96,
          "midi": 31,
          "name": "G1",
          "ticks": 85632,
          "time": 70.420947,
          "velocity": 0.6377952755905512
        },
        {
          "duration": 0.0789472499999988,
          "durationTicks": 96,
          "midi": 43,
          "name": "G2",
          "ticks": 85824,
          "time": 70.5788415,
          "velocity": 0.6377952755905512
        },
        {
          "duration": 0.0789472499999988,
          "durationTicks": 96,
          "midi": 34,
          "name": "A#1",
          "ticks": 86016,
          "time": 70.736736,
          "velocity": 0.6377952755905512
        },
        {
          "duration": 0.07894725000001301,
          "durationTicks": 96,
          "midi": 41,
          "name": "F2",
          "ticks": 86208,
          "time": 70.89463049999999,
          "velocity": 0.6377952755905512
        },
        {
          "duration": 0.0789472499999988,
          "durationTicks": 96,
          "midi": 29,
          "name": "F1",
          "ticks": 86400,
          "time": 71.052525,
          "velocity": 0.6377952755905512
        },
        {
          "duration": 0.0789472499999988,
          "durationTicks": 96,
          "midi": 41,
          "name": "F2",
          "ticks": 86592,
          "time": 71.2104195,
          "velocity": 0.6377952755905512
        },
        {
          "duration": 0.0789472499999988,
          "durationTicks": 96,
          "midi": 34,
          "name": "A#1",
          "ticks": 86784,
          "time": 71.368314,
          "velocity": 0.6377952755905512
        },
        {
          "duration": 0.0789472499999988,
          "durationTicks": 96,
          "midi": 41,
          "name": "F2",
          "ticks": 86976,
          "time": 71.5262085,
          "velocity": 0.6377952755905512
        },
        {
          "duration": 0.0789472499999988,
          "durationTicks": 96,
          "midi": 29,
          "name": "F1",
          "ticks": 87168,
          "time": 71.684103,
          "velocity": 0.6377952755905512
        },
        {
          "duration": 0.07894725000001301,
          "durationTicks": 96,
          "midi": 41,
          "name": "F2",
          "ticks": 87360,
          "time": 71.84199749999999,
          "velocity": 0.6377952755905512
        },
        {
          "duration": 0.0789472499999988,
          "durationTicks": 96,
          "midi": 34,
          "name": "A#1",
          "ticks": 87552,
          "time": 71.999892,
          "velocity": 0.6377952755905512
        },
        {
          "duration": 0.0789472499999988,
          "durationTicks": 96,
          "midi": 41,
          "name": "F2",
          "ticks": 87744,
          "time": 72.1577865,
          "velocity": 0.6377952755905512
        },
        {
          "duration": 0.0789472499999988,
          "durationTicks": 96,
          "midi": 29,
          "name": "F1",
          "ticks": 87936,
          "time": 72.315681,
          "velocity": 0.6377952755905512
        },
        {
          "duration": 0.0789472499999988,
          "durationTicks": 96,
          "midi": 41,
          "name": "F2",
          "ticks": 88128,
          "time": 72.4735755,
          "velocity": 0.6377952755905512
        },
        {
          "duration": 0.0789472499999988,
          "durationTicks": 96,
          "midi": 34,
          "name": "A#1",
          "ticks": 88320,
          "time": 72.63147,
          "velocity": 0.6377952755905512
        },
        {
          "duration": 0.07894725000001301,
          "durationTicks": 96,
          "midi": 41,
          "name": "F2",
          "ticks": 88512,
          "time": 72.78936449999999,
          "velocity": 0.6377952755905512
        },
        {
          "duration": 0.0789472499999988,
          "durationTicks": 96,
          "midi": 29,
          "name": "F1",
          "ticks": 88704,
          "time": 72.947259,
          "velocity": 0.6377952755905512
        },
        {
          "duration": 0.0789472499999988,
          "durationTicks": 96,
          "midi": 41,
          "name": "F2",
          "ticks": 88896,
          "time": 73.1051535,
          "velocity": 0.6377952755905512
        },
        {
          "duration": 0.0789472499999988,
          "durationTicks": 96,
          "midi": 36,
          "name": "C2",
          "ticks": 89088,
          "time": 73.263048,
          "velocity": 0.6377952755905512
        },
        {
          "duration": 0.0789472499999988,
          "durationTicks": 96,
          "midi": 44,
          "name": "G#2",
          "ticks": 89280,
          "time": 73.4209425,
          "velocity": 0.6377952755905512
        },
        {
          "duration": 0.0789472499999988,
          "durationTicks": 96,
          "midi": 32,
          "name": "G#1",
          "ticks": 89472,
          "time": 73.578837,
          "velocity": 0.6377952755905512
        },
        {
          "duration": 0.07894725000001301,
          "durationTicks": 96,
          "midi": 44,
          "name": "G#2",
          "ticks": 89664,
          "time": 73.73673149999999,
          "velocity": 0.6377952755905512
        },
        {
          "duration": 0.0789472499999988,
          "durationTicks": 96,
          "midi": 36,
          "name": "C2",
          "ticks": 89856,
          "time": 73.894626,
          "velocity": 0.6377952755905512
        },
        {
          "duration": 0.0789472499999988,
          "durationTicks": 96,
          "midi": 44,
          "name": "G#2",
          "ticks": 90048,
          "time": 74.0525205,
          "velocity": 0.6377952755905512
        },
        {
          "duration": 0.0789472499999988,
          "durationTicks": 96,
          "midi": 32,
          "name": "G#1",
          "ticks": 90240,
          "time": 74.210415,
          "velocity": 0.6377952755905512
        },
        {
          "duration": 0.0789472499999988,
          "durationTicks": 96,
          "midi": 44,
          "name": "G#2",
          "ticks": 90432,
          "time": 74.3683095,
          "velocity": 0.6377952755905512
        },
        {
          "duration": 0.0789472499999988,
          "durationTicks": 96,
          "midi": 36,
          "name": "C2",
          "ticks": 90624,
          "time": 74.52620399999999,
          "velocity": 0.6377952755905512
        },
        {
          "duration": 0.07894725000001301,
          "durationTicks": 96,
          "midi": 44,
          "name": "G#2",
          "ticks": 90816,
          "time": 74.68409849999999,
          "velocity": 0.6377952755905512
        },
        {
          "duration": 0.0789472499999988,
          "durationTicks": 96,
          "midi": 32,
          "name": "G#1",
          "ticks": 91008,
          "time": 74.841993,
          "velocity": 0.6377952755905512
        },
        {
          "duration": 0.0789472499999988,
          "durationTicks": 96,
          "midi": 44,
          "name": "G#2",
          "ticks": 91200,
          "time": 74.9998875,
          "velocity": 0.6377952755905512
        },
        {
          "duration": 0.0789472499999988,
          "durationTicks": 96,
          "midi": 36,
          "name": "C2",
          "ticks": 91392,
          "time": 75.157782,
          "velocity": 0.6377952755905512
        },
        {
          "duration": 0.0789472499999988,
          "durationTicks": 96,
          "midi": 44,
          "name": "G#2",
          "ticks": 91584,
          "time": 75.3156765,
          "velocity": 0.6377952755905512
        },
        {
          "duration": 0.0789472499999988,
          "durationTicks": 96,
          "midi": 32,
          "name": "G#1",
          "ticks": 91776,
          "time": 75.47357099999999,
          "velocity": 0.6377952755905512
        },
        {
          "duration": 0.07894725000001301,
          "durationTicks": 96,
          "midi": 44,
          "name": "G#2",
          "ticks": 91968,
          "time": 75.63146549999999,
          "velocity": 0.6377952755905512
        },
        {
          "duration": 0.0789472499999988,
          "durationTicks": 96,
          "midi": 37,
          "name": "C#2",
          "ticks": 92160,
          "time": 75.78936,
          "velocity": 0.6377952755905512
        },
        {
          "duration": 0.0789472499999988,
          "durationTicks": 96,
          "midi": 44,
          "name": "G#2",
          "ticks": 92352,
          "time": 75.9472545,
          "velocity": 0.6377952755905512
        },
        {
          "duration": 0.0789472499999988,
          "durationTicks": 96,
          "midi": 32,
          "name": "G#1",
          "ticks": 92544,
          "time": 76.105149,
          "velocity": 0.6377952755905512
        },
        {
          "duration": 0.0789472499999988,
          "durationTicks": 96,
          "midi": 44,
          "name": "G#2",
          "ticks": 92736,
          "time": 76.2630435,
          "velocity": 0.6377952755905512
        },
        {
          "duration": 0.0789472499999988,
          "durationTicks": 96,
          "midi": 37,
          "name": "C#2",
          "ticks": 92928,
          "time": 76.42093799999999,
          "velocity": 0.6377952755905512
        },
        {
          "duration": 0.07894725000001301,
          "durationTicks": 96,
          "midi": 44,
          "name": "G#2",
          "ticks": 93120,
          "time": 76.57883249999999,
          "velocity": 0.6377952755905512
        },
        {
          "duration": 0.0789472499999988,
          "durationTicks": 96,
          "midi": 32,
          "name": "G#1",
          "ticks": 93312,
          "time": 76.736727,
          "velocity": 0.6377952755905512
        },
        {
          "duration": 0.0789472499999988,
          "durationTicks": 96,
          "midi": 44,
          "name": "G#2",
          "ticks": 93504,
          "time": 76.8946215,
          "velocity": 0.6377952755905512
        },
        {
          "duration": 0.0789472499999988,
          "durationTicks": 96,
          "midi": 37,
          "name": "C#2",
          "ticks": 93696,
          "time": 77.052516,
          "velocity": 0.6377952755905512
        },
        {
          "duration": 0.0789472499999988,
          "durationTicks": 96,
          "midi": 44,
          "name": "G#2",
          "ticks": 93888,
          "time": 77.2104105,
          "velocity": 0.6377952755905512
        },
        {
          "duration": 0.0789472499999988,
          "durationTicks": 96,
          "midi": 32,
          "name": "G#1",
          "ticks": 94080,
          "time": 77.36830499999999,
          "velocity": 0.6377952755905512
        },
        {
          "duration": 0.07894725000001301,
          "durationTicks": 96,
          "midi": 44,
          "name": "G#2",
          "ticks": 94272,
          "time": 77.52619949999999,
          "velocity": 0.6377952755905512
        },
        {
          "duration": 0.0789472499999988,
          "durationTicks": 96,
          "midi": 37,
          "name": "C#2",
          "ticks": 94464,
          "time": 77.684094,
          "velocity": 0.6377952755905512
        },
        {
          "duration": 0.0789472499999988,
          "durationTicks": 96,
          "midi": 44,
          "name": "G#2",
          "ticks": 94656,
          "time": 77.8419885,
          "velocity": 0.6377952755905512
        },
        {
          "duration": 0.0789472499999988,
          "durationTicks": 96,
          "midi": 32,
          "name": "G#1",
          "ticks": 94848,
          "time": 77.999883,
          "velocity": 0.6377952755905512
        },
        {
          "duration": 0.0789472499999988,
          "durationTicks": 96,
          "midi": 44,
          "name": "G#2",
          "ticks": 95040,
          "time": 78.1577775,
          "velocity": 0.6377952755905512
        },
        {
          "duration": 0.0789472499999988,
          "durationTicks": 96,
          "midi": 37,
          "name": "C#2",
          "ticks": 95232,
          "time": 78.31567199999999,
          "velocity": 0.6377952755905512
        },
        {
          "duration": 0.07894725000001301,
          "durationTicks": 96,
          "midi": 44,
          "name": "G#2",
          "ticks": 95424,
          "time": 78.47356649999999,
          "velocity": 0.6377952755905512
        },
        {
          "duration": 0.0789472499999988,
          "durationTicks": 96,
          "midi": 32,
          "name": "G#1",
          "ticks": 95616,
          "time": 78.631461,
          "velocity": 0.6377952755905512
        },
        {
          "duration": 0.0789472499999988,
          "durationTicks": 96,
          "midi": 44,
          "name": "G#2",
          "ticks": 95808,
          "time": 78.7893555,
          "velocity": 0.6377952755905512
        },
        {
          "duration": 0.0789472499999988,
          "durationTicks": 96,
          "midi": 37,
          "name": "C#2",
          "ticks": 96000,
          "time": 78.94725,
          "velocity": 0.6377952755905512
        },
        {
          "duration": 0.0789472499999988,
          "durationTicks": 96,
          "midi": 44,
          "name": "G#2",
          "ticks": 96192,
          "time": 79.1051445,
          "velocity": 0.6377952755905512
        },
        {
          "duration": 0.0789472499999988,
          "durationTicks": 96,
          "midi": 32,
          "name": "G#1",
          "ticks": 96384,
          "time": 79.26303899999999,
          "velocity": 0.6377952755905512
        },
        {
          "duration": 0.07894725000001301,
          "durationTicks": 96,
          "midi": 44,
          "name": "G#2",
          "ticks": 96576,
          "time": 79.42093349999999,
          "velocity": 0.6377952755905512
        },
        {
          "duration": 0.0789472499999988,
          "durationTicks": 96,
          "midi": 36,
          "name": "C2",
          "ticks": 96768,
          "time": 79.578828,
          "velocity": 0.6377952755905512
        },
        {
          "duration": 0.0789472499999988,
          "durationTicks": 96,
          "midi": 43,
          "name": "G2",
          "ticks": 96960,
          "time": 79.7367225,
          "velocity": 0.6377952755905512
        },
        {
          "duration": 0.0789472499999988,
          "durationTicks": 96,
          "midi": 31,
          "name": "G1",
          "ticks": 97152,
          "time": 79.894617,
          "velocity": 0.6377952755905512
        },
        {
          "duration": 0.0789472499999988,
          "durationTicks": 96,
          "midi": 43,
          "name": "G2",
          "ticks": 97344,
          "time": 80.0525115,
          "velocity": 0.6377952755905512
        },
        {
          "duration": 0.0789472499999988,
          "durationTicks": 96,
          "midi": 36,
          "name": "C2",
          "ticks": 97536,
          "time": 80.21040599999999,
          "velocity": 0.6377952755905512
        },
        {
          "duration": 0.07894725000001301,
          "durationTicks": 96,
          "midi": 43,
          "name": "G2",
          "ticks": 97728,
          "time": 80.36830049999999,
          "velocity": 0.6377952755905512
        },
        {
          "duration": 0.0789472499999988,
          "durationTicks": 96,
          "midi": 31,
          "name": "G1",
          "ticks": 97920,
          "time": 80.526195,
          "velocity": 0.6377952755905512
        },
        {
          "duration": 0.0789472499999988,
          "durationTicks": 96,
          "midi": 43,
          "name": "G2",
          "ticks": 98112,
          "time": 80.6840895,
          "velocity": 0.6377952755905512
        },
        {
          "duration": 0.0789472499999988,
          "durationTicks": 96,
          "midi": 34,
          "name": "A#1",
          "ticks": 98304,
          "time": 80.841984,
          "velocity": 0.6377952755905512
        },
        {
          "duration": 0.0789472499999988,
          "durationTicks": 96,
          "midi": 41,
          "name": "F2",
          "ticks": 98496,
          "time": 80.9998785,
          "velocity": 0.6377952755905512
        },
        {
          "duration": 0.0789472499999988,
          "durationTicks": 96,
          "midi": 29,
          "name": "F1",
          "ticks": 98688,
          "time": 81.15777299999999,
          "velocity": 0.6377952755905512
        },
        {
          "duration": 0.0789472499999988,
          "durationTicks": 96,
          "midi": 41,
          "name": "F2",
          "ticks": 98880,
          "time": 81.3156675,
          "velocity": 0.6377952755905512
        },
        {
          "duration": 0.0789472499999988,
          "durationTicks": 96,
          "midi": 34,
          "name": "A#1",
          "ticks": 99072,
          "time": 81.473562,
          "velocity": 0.6377952755905512
        },
        {
          "duration": 0.0789472499999988,
          "durationTicks": 96,
          "midi": 41,
          "name": "F2",
          "ticks": 99264,
          "time": 81.6314565,
          "velocity": 0.6377952755905512
        },
        {
          "duration": 0.0789472499999988,
          "durationTicks": 96,
          "midi": 29,
          "name": "F1",
          "ticks": 99456,
          "time": 81.789351,
          "velocity": 0.6377952755905512
        },
        {
          "duration": 0.0789472499999988,
          "durationTicks": 96,
          "midi": 41,
          "name": "F2",
          "ticks": 99648,
          "time": 81.9472455,
          "velocity": 0.6377952755905512
        },
        {
          "duration": 0.0789472499999988,
          "durationTicks": 96,
          "midi": 34,
          "name": "A#1",
          "ticks": 99840,
          "time": 82.10513999999999,
          "velocity": 0.6377952755905512
        },
        {
          "duration": 0.0789472499999988,
          "durationTicks": 96,
          "midi": 41,
          "name": "F2",
          "ticks": 100032,
          "time": 82.2630345,
          "velocity": 0.6377952755905512
        },
        {
          "duration": 0.0789472499999988,
          "durationTicks": 96,
          "midi": 29,
          "name": "F1",
          "ticks": 100224,
          "time": 82.420929,
          "velocity": 0.6377952755905512
        },
        {
          "duration": 0.0789472499999988,
          "durationTicks": 96,
          "midi": 41,
          "name": "F2",
          "ticks": 100416,
          "time": 82.5788235,
          "velocity": 0.6377952755905512
        },
        {
          "duration": 0.0789472499999988,
          "durationTicks": 96,
          "midi": 34,
          "name": "A#1",
          "ticks": 100608,
          "time": 82.736718,
          "velocity": 0.6377952755905512
        },
        {
          "duration": 0.0789472499999988,
          "durationTicks": 96,
          "midi": 41,
          "name": "F2",
          "ticks": 100800,
          "time": 82.8946125,
          "velocity": 0.6377952755905512
        },
        {
          "duration": 0.0789472499999988,
          "durationTicks": 96,
          "midi": 29,
          "name": "F1",
          "ticks": 100992,
          "time": 83.05250699999999,
          "velocity": 0.6377952755905512
        },
        {
          "duration": 0.0789472499999988,
          "durationTicks": 96,
          "midi": 41,
          "name": "F2",
          "ticks": 101184,
          "time": 83.2104015,
          "velocity": 0.6377952755905512
        },
        {
          "duration": 0.0789472499999988,
          "durationTicks": 96,
          "midi": 36,
          "name": "C2",
          "ticks": 101376,
          "time": 83.368296,
          "velocity": 0.6377952755905512
        },
        {
          "duration": 0.0789472499999988,
          "durationTicks": 96,
          "midi": 44,
          "name": "G#2",
          "ticks": 101568,
          "time": 83.5261905,
          "velocity": 0.6377952755905512
        },
        {
          "duration": 0.0789472499999988,
          "durationTicks": 96,
          "midi": 32,
          "name": "G#1",
          "ticks": 101760,
          "time": 83.684085,
          "velocity": 0.6377952755905512
        },
        {
          "duration": 0.0789472499999988,
          "durationTicks": 96,
          "midi": 44,
          "name": "G#2",
          "ticks": 101952,
          "time": 83.8419795,
          "velocity": 0.6377952755905512
        },
        {
          "duration": 0.0789472499999988,
          "durationTicks": 96,
          "midi": 36,
          "name": "C2",
          "ticks": 102144,
          "time": 83.99987399999999,
          "velocity": 0.6377952755905512
        },
        {
          "duration": 0.0789472499999988,
          "durationTicks": 96,
          "midi": 44,
          "name": "G#2",
          "ticks": 102336,
          "time": 84.1577685,
          "velocity": 0.6377952755905512
        },
        {
          "duration": 0.0789472499999988,
          "durationTicks": 96,
          "midi": 32,
          "name": "G#1",
          "ticks": 102528,
          "time": 84.315663,
          "velocity": 0.6377952755905512
        },
        {
          "duration": 0.0789472499999988,
          "durationTicks": 96,
          "midi": 44,
          "name": "G#2",
          "ticks": 102720,
          "time": 84.4735575,
          "velocity": 0.6377952755905512
        },
        {
          "duration": 0.0789472499999988,
          "durationTicks": 96,
          "midi": 36,
          "name": "C2",
          "ticks": 102912,
          "time": 84.631452,
          "velocity": 0.6377952755905512
        },
        {
          "duration": 0.0789472499999988,
          "durationTicks": 96,
          "midi": 44,
          "name": "G#2",
          "ticks": 103104,
          "time": 84.7893465,
          "velocity": 0.6377952755905512
        },
        {
          "duration": 0.0789472499999988,
          "durationTicks": 96,
          "midi": 32,
          "name": "G#1",
          "ticks": 103296,
          "time": 84.94724099999999,
          "velocity": 0.6377952755905512
        },
        {
          "duration": 0.0789472499999988,
          "durationTicks": 96,
          "midi": 44,
          "name": "G#2",
          "ticks": 103488,
          "time": 85.1051355,
          "velocity": 0.6377952755905512
        },
        {
          "duration": 0.0789472499999988,
          "durationTicks": 96,
          "midi": 36,
          "name": "C2",
          "ticks": 103680,
          "time": 85.26303,
          "velocity": 0.6377952755905512
        },
        {
          "duration": 0.0789472499999988,
          "durationTicks": 96,
          "midi": 44,
          "name": "G#2",
          "ticks": 103872,
          "time": 85.4209245,
          "velocity": 0.6377952755905512
        },
        {
          "duration": 0.0789472499999988,
          "durationTicks": 96,
          "midi": 32,
          "name": "G#1",
          "ticks": 104064,
          "time": 85.578819,
          "velocity": 0.6377952755905512
        },
        {
          "duration": 0.0789472499999988,
          "durationTicks": 96,
          "midi": 44,
          "name": "G#2",
          "ticks": 104256,
          "time": 85.7367135,
          "velocity": 0.6377952755905512
        },
        {
          "duration": 0.0789472499999988,
          "durationTicks": 96,
          "midi": 37,
          "name": "C#2",
          "ticks": 104448,
          "time": 85.89460799999999,
          "velocity": 0.6377952755905512
        },
        {
          "duration": 0.0789472499999988,
          "durationTicks": 96,
          "midi": 44,
          "name": "G#2",
          "ticks": 104640,
          "time": 86.0525025,
          "velocity": 0.6377952755905512
        },
        {
          "duration": 0.0789472499999988,
          "durationTicks": 96,
          "midi": 32,
          "name": "G#1",
          "ticks": 104832,
          "time": 86.210397,
          "velocity": 0.6377952755905512
        },
        {
          "duration": 0.0789472499999988,
          "durationTicks": 96,
          "midi": 44,
          "name": "G#2",
          "ticks": 105024,
          "time": 86.3682915,
          "velocity": 0.6377952755905512
        },
        {
          "duration": 0.0789472499999988,
          "durationTicks": 96,
          "midi": 37,
          "name": "C#2",
          "ticks": 105216,
          "time": 86.526186,
          "velocity": 0.6377952755905512
        },
        {
          "duration": 0.0789472499999988,
          "durationTicks": 96,
          "midi": 44,
          "name": "G#2",
          "ticks": 105408,
          "time": 86.6840805,
          "velocity": 0.6377952755905512
        },
        {
          "duration": 0.0789472499999988,
          "durationTicks": 96,
          "midi": 32,
          "name": "G#1",
          "ticks": 105600,
          "time": 86.84197499999999,
          "velocity": 0.6377952755905512
        },
        {
          "duration": 0.0789472499999988,
          "durationTicks": 96,
          "midi": 44,
          "name": "G#2",
          "ticks": 105792,
          "time": 86.9998695,
          "velocity": 0.6377952755905512
        },
        {
          "duration": 0.0789472499999988,
          "durationTicks": 96,
          "midi": 37,
          "name": "C#2",
          "ticks": 105984,
          "time": 87.157764,
          "velocity": 0.6377952755905512
        },
        {
          "duration": 0.0789472499999988,
          "durationTicks": 96,
          "midi": 44,
          "name": "G#2",
          "ticks": 106176,
          "time": 87.3156585,
          "velocity": 0.6377952755905512
        },
        {
          "duration": 0.0789472499999988,
          "durationTicks": 96,
          "midi": 32,
          "name": "G#1",
          "ticks": 106368,
          "time": 87.473553,
          "velocity": 0.6377952755905512
        },
        {
          "duration": 0.0789472499999988,
          "durationTicks": 96,
          "midi": 44,
          "name": "G#2",
          "ticks": 106560,
          "time": 87.6314475,
          "velocity": 0.6377952755905512
        },
        {
          "duration": 0.0789472499999988,
          "durationTicks": 96,
          "midi": 37,
          "name": "C#2",
          "ticks": 106752,
          "time": 87.78934199999999,
          "velocity": 0.6377952755905512
        },
        {
          "duration": 0.0789472499999988,
          "durationTicks": 96,
          "midi": 44,
          "name": "G#2",
          "ticks": 106944,
          "time": 87.9472365,
          "velocity": 0.6377952755905512
        },
        {
          "duration": 0.0789472499999988,
          "durationTicks": 96,
          "midi": 32,
          "name": "G#1",
          "ticks": 107136,
          "time": 88.105131,
          "velocity": 0.6377952755905512
        },
        {
          "duration": 0.0789472499999988,
          "durationTicks": 96,
          "midi": 44,
          "name": "G#2",
          "ticks": 107328,
          "time": 88.2630255,
          "velocity": 0.6377952755905512
        },
        {
          "duration": 0.0789472499999988,
          "durationTicks": 96,
          "midi": 37,
          "name": "C#2",
          "ticks": 107520,
          "time": 88.42092,
          "velocity": 0.6377952755905512
        },
        {
          "duration": 0.0789472499999988,
          "durationTicks": 96,
          "midi": 44,
          "name": "G#2",
          "ticks": 107712,
          "time": 88.5788145,
          "velocity": 0.6377952755905512
        },
        {
          "duration": 0.0789472499999988,
          "durationTicks": 96,
          "midi": 32,
          "name": "G#1",
          "ticks": 107904,
          "time": 88.73670899999999,
          "velocity": 0.6377952755905512
        },
        {
          "duration": 0.0789472499999988,
          "durationTicks": 96,
          "midi": 44,
          "name": "G#2",
          "ticks": 108096,
          "time": 88.8946035,
          "velocity": 0.6377952755905512
        },
        {
          "duration": 0.0789472499999988,
          "durationTicks": 96,
          "midi": 37,
          "name": "C#2",
          "ticks": 108288,
          "time": 89.052498,
          "velocity": 0.6377952755905512
        },
        {
          "duration": 0.0789472499999988,
          "durationTicks": 96,
          "midi": 44,
          "name": "G#2",
          "ticks": 108480,
          "time": 89.2103925,
          "velocity": 0.6377952755905512
        },
        {
          "duration": 0.0789472499999988,
          "durationTicks": 96,
          "midi": 32,
          "name": "G#1",
          "ticks": 108672,
          "time": 89.368287,
          "velocity": 0.6377952755905512
        },
        {
          "duration": 0.0789472499999988,
          "durationTicks": 96,
          "midi": 44,
          "name": "G#2",
          "ticks": 108864,
          "time": 89.52618149999999,
          "velocity": 0.6377952755905512
        },
        {
          "duration": 0.0789472499999988,
          "durationTicks": 96,
          "midi": 36,
          "name": "C2",
          "ticks": 109056,
          "time": 89.68407599999999,
          "velocity": 0.6377952755905512
        },
        {
          "duration": 0.0789472499999988,
          "durationTicks": 96,
          "midi": 43,
          "name": "G2",
          "ticks": 109248,
          "time": 89.8419705,
          "velocity": 0.6377952755905512
        },
        {
          "duration": 0.0789472499999988,
          "durationTicks": 96,
          "midi": 31,
          "name": "G1",
          "ticks": 109440,
          "time": 89.999865,
          "velocity": 0.6377952755905512
        },
        {
          "duration": 0.0789472499999988,
          "durationTicks": 96,
          "midi": 43,
          "name": "G2",
          "ticks": 109632,
          "time": 90.1577595,
          "velocity": 0.6377952755905512
        },
        {
          "duration": 0.0789472499999988,
          "durationTicks": 96,
          "midi": 36,
          "name": "C2",
          "ticks": 109824,
          "time": 90.315654,
          "velocity": 0.6377952755905512
        },
        {
          "duration": 0.0789472499999988,
          "durationTicks": 96,
          "midi": 43,
          "name": "G2",
          "ticks": 110016,
          "time": 90.47354849999999,
          "velocity": 0.6377952755905512
        },
        {
          "duration": 0.0789472499999988,
          "durationTicks": 96,
          "midi": 31,
          "name": "G1",
          "ticks": 110208,
          "time": 90.63144299999999,
          "velocity": 0.6377952755905512
        },
        {
          "duration": 0.0789472499999988,
          "durationTicks": 96,
          "midi": 43,
          "name": "G2",
          "ticks": 110400,
          "time": 90.7893375,
          "velocity": 0.6377952755905512
        },
        {
          "duration": 0.0789472499999988,
          "durationTicks": 96,
          "midi": 34,
          "name": "A#1",
          "ticks": 110592,
          "time": 90.947232,
          "velocity": 0.6377952755905512
        },
        {
          "duration": 0.0789472499999988,
          "durationTicks": 96,
          "midi": 41,
          "name": "F2",
          "ticks": 110784,
          "time": 91.1051265,
          "velocity": 0.6377952755905512
        },
        {
          "duration": 0.0789472499999988,
          "durationTicks": 96,
          "midi": 29,
          "name": "F1",
          "ticks": 110976,
          "time": 91.263021,
          "velocity": 0.6377952755905512
        },
        {
          "duration": 0.0789472499999988,
          "durationTicks": 96,
          "midi": 41,
          "name": "F2",
          "ticks": 111168,
          "time": 91.42091549999999,
          "velocity": 0.6377952755905512
        },
        {
          "duration": 0.07894725000001301,
          "durationTicks": 96,
          "midi": 34,
          "name": "A#1",
          "ticks": 111360,
          "time": 91.57880999999999,
          "velocity": 0.6377952755905512
        },
        {
          "duration": 0.0789472499999988,
          "durationTicks": 96,
          "midi": 41,
          "name": "F2",
          "ticks": 111552,
          "time": 91.7367045,
          "velocity": 0.6377952755905512
        },
        {
          "duration": 0.0789472499999988,
          "durationTicks": 96,
          "midi": 29,
          "name": "F1",
          "ticks": 111744,
          "time": 91.894599,
          "velocity": 0.6377952755905512
        },
        {
          "duration": 0.0789472499999988,
          "durationTicks": 96,
          "midi": 41,
          "name": "F2",
          "ticks": 111936,
          "time": 92.0524935,
          "velocity": 0.6377952755905512
        },
        {
          "duration": 0.0789472499999988,
          "durationTicks": 96,
          "midi": 34,
          "name": "A#1",
          "ticks": 112128,
          "time": 92.210388,
          "velocity": 0.6377952755905512
        },
        {
          "duration": 0.0789472499999988,
          "durationTicks": 96,
          "midi": 41,
          "name": "F2",
          "ticks": 112320,
          "time": 92.36828249999999,
          "velocity": 0.6377952755905512
        },
        {
          "duration": 0.07894725000001301,
          "durationTicks": 96,
          "midi": 29,
          "name": "F1",
          "ticks": 112512,
          "time": 92.52617699999999,
          "velocity": 0.6377952755905512
        },
        {
          "duration": 0.0789472499999988,
          "durationTicks": 96,
          "midi": 41,
          "name": "F2",
          "ticks": 112704,
          "time": 92.6840715,
          "velocity": 0.6377952755905512
        },
        {
          "duration": 0.0789472499999988,
          "durationTicks": 96,
          "midi": 34,
          "name": "A#1",
          "ticks": 112896,
          "time": 92.841966,
          "velocity": 0.6377952755905512
        },
        {
          "duration": 0.0789472499999988,
          "durationTicks": 96,
          "midi": 41,
          "name": "F2",
          "ticks": 113088,
          "time": 92.9998605,
          "velocity": 0.6377952755905512
        },
        {
          "duration": 0.0789472499999988,
          "durationTicks": 96,
          "midi": 29,
          "name": "F1",
          "ticks": 113280,
          "time": 93.157755,
          "velocity": 0.6377952755905512
        },
        {
          "duration": 0.0789472499999988,
          "durationTicks": 96,
          "midi": 41,
          "name": "F2",
          "ticks": 113472,
          "time": 93.31564949999999,
          "velocity": 0.6377952755905512
        },
        {
          "duration": 0.07894725000001301,
          "durationTicks": 96,
          "midi": 36,
          "name": "C2",
          "ticks": 113664,
          "time": 93.47354399999999,
          "velocity": 0.6377952755905512
        },
        {
          "duration": 0.0789472499999988,
          "durationTicks": 96,
          "midi": 44,
          "name": "G#2",
          "ticks": 113856,
          "time": 93.6314385,
          "velocity": 0.6377952755905512
        },
        {
          "duration": 0.0789472499999988,
          "durationTicks": 96,
          "midi": 32,
          "name": "G#1",
          "ticks": 114048,
          "time": 93.789333,
          "velocity": 0.6377952755905512
        },
        {
          "duration": 0.0789472499999988,
          "durationTicks": 96,
          "midi": 44,
          "name": "G#2",
          "ticks": 114240,
          "time": 93.9472275,
          "velocity": 0.6377952755905512
        },
        {
          "duration": 0.0789472499999988,
          "durationTicks": 96,
          "midi": 36,
          "name": "C2",
          "ticks": 114432,
          "time": 94.105122,
          "velocity": 0.6377952755905512
        },
        {
          "duration": 0.0789472499999988,
          "durationTicks": 96,
          "midi": 44,
          "name": "G#2",
          "ticks": 114624,
          "time": 94.26301649999999,
          "velocity": 0.6377952755905512
        },
        {
          "duration": 0.07894725000001301,
          "durationTicks": 96,
          "midi": 32,
          "name": "G#1",
          "ticks": 114816,
          "time": 94.42091099999999,
          "velocity": 0.6377952755905512
        },
        {
          "duration": 0.0789472499999988,
          "durationTicks": 96,
          "midi": 44,
          "name": "G#2",
          "ticks": 115008,
          "time": 94.5788055,
          "velocity": 0.6377952755905512
        },
        {
          "duration": 0.0789472499999988,
          "durationTicks": 96,
          "midi": 36,
          "name": "C2",
          "ticks": 115200,
          "time": 94.7367,
          "velocity": 0.6377952755905512
        },
        {
          "duration": 0.0789472499999988,
          "durationTicks": 96,
          "midi": 44,
          "name": "G#2",
          "ticks": 115392,
          "time": 94.8945945,
          "velocity": 0.6377952755905512
        },
        {
          "duration": 0.0789472499999988,
          "durationTicks": 96,
          "midi": 32,
          "name": "G#1",
          "ticks": 115584,
          "time": 95.052489,
          "velocity": 0.6377952755905512
        },
        {
          "duration": 0.0789472499999988,
          "durationTicks": 96,
          "midi": 44,
          "name": "G#2",
          "ticks": 115776,
          "time": 95.21038349999999,
          "velocity": 0.6377952755905512
        },
        {
          "duration": 0.07894725000001301,
          "durationTicks": 96,
          "midi": 36,
          "name": "C2",
          "ticks": 115968,
          "time": 95.36827799999999,
          "velocity": 0.6377952755905512
        },
        {
          "duration": 0.0789472499999988,
          "durationTicks": 96,
          "midi": 44,
          "name": "G#2",
          "ticks": 116160,
          "time": 95.5261725,
          "velocity": 0.6377952755905512
        },
        {
          "duration": 0.0789472499999988,
          "durationTicks": 96,
          "midi": 32,
          "name": "G#1",
          "ticks": 116352,
          "time": 95.684067,
          "velocity": 0.6377952755905512
        },
        {
          "duration": 0.0789472499999988,
          "durationTicks": 96,
          "midi": 44,
          "name": "G#2",
          "ticks": 116544,
          "time": 95.8419615,
          "velocity": 0.6377952755905512
        },
        {
          "duration": 0.0789472499999988,
          "durationTicks": 96,
          "midi": 37,
          "name": "C#2",
          "ticks": 116736,
          "time": 95.999856,
          "velocity": 0.6377952755905512
        },
        {
          "duration": 0.0789472499999988,
          "durationTicks": 96,
          "midi": 44,
          "name": "G#2",
          "ticks": 116928,
          "time": 96.15775049999999,
          "velocity": 0.6377952755905512
        },
        {
          "duration": 0.07894725000001301,
          "durationTicks": 96,
          "midi": 32,
          "name": "G#1",
          "ticks": 117120,
          "time": 96.31564499999999,
          "velocity": 0.6377952755905512
        },
        {
          "duration": 0.0789472499999988,
          "durationTicks": 96,
          "midi": 44,
          "name": "G#2",
          "ticks": 117312,
          "time": 96.4735395,
          "velocity": 0.6377952755905512
        },
        {
          "duration": 0.0789472499999988,
          "durationTicks": 96,
          "midi": 37,
          "name": "C#2",
          "ticks": 117504,
          "time": 96.631434,
          "velocity": 0.6377952755905512
        },
        {
          "duration": 0.0789472499999988,
          "durationTicks": 96,
          "midi": 44,
          "name": "G#2",
          "ticks": 117696,
          "time": 96.7893285,
          "velocity": 0.6377952755905512
        },
        {
          "duration": 0.0789472499999988,
          "durationTicks": 96,
          "midi": 32,
          "name": "G#1",
          "ticks": 117888,
          "time": 96.947223,
          "velocity": 0.6377952755905512
        },
        {
          "duration": 0.0789472499999988,
          "durationTicks": 96,
          "midi": 44,
          "name": "G#2",
          "ticks": 118080,
          "time": 97.10511749999999,
          "velocity": 0.6377952755905512
        },
        {
          "duration": 0.07894725000001301,
          "durationTicks": 96,
          "midi": 37,
          "name": "C#2",
          "ticks": 118272,
          "time": 97.26301199999999,
          "velocity": 0.6377952755905512
        },
        {
          "duration": 0.0789472499999988,
          "durationTicks": 96,
          "midi": 44,
          "name": "G#2",
          "ticks": 118464,
          "time": 97.4209065,
          "velocity": 0.6377952755905512
        },
        {
          "duration": 0.0789472499999988,
          "durationTicks": 96,
          "midi": 32,
          "name": "G#1",
          "ticks": 118656,
          "time": 97.578801,
          "velocity": 0.6377952755905512
        },
        {
          "duration": 0.0789472499999988,
          "durationTicks": 96,
          "midi": 44,
          "name": "G#2",
          "ticks": 118848,
          "time": 97.7366955,
          "velocity": 0.6377952755905512
        },
        {
          "duration": 0.0789472499999988,
          "durationTicks": 96,
          "midi": 37,
          "name": "C#2",
          "ticks": 119040,
          "time": 97.89459,
          "velocity": 0.6377952755905512
        },
        {
          "duration": 0.0789472499999988,
          "durationTicks": 96,
          "midi": 44,
          "name": "G#2",
          "ticks": 119232,
          "time": 98.05248449999999,
          "velocity": 0.6377952755905512
        },
        {
          "duration": 0.07894725000001301,
          "durationTicks": 96,
          "midi": 32,
          "name": "G#1",
          "ticks": 119424,
          "time": 98.21037899999999,
          "velocity": 0.6377952755905512
        },
        {
          "duration": 0.0789472499999988,
          "durationTicks": 96,
          "midi": 44,
          "name": "G#2",
          "ticks": 119616,
          "time": 98.3682735,
          "velocity": 0.6377952755905512
        },
        {
          "duration": 0.0789472499999988,
          "durationTicks": 96,
          "midi": 37,
          "name": "C#2",
          "ticks": 119808,
          "time": 98.526168,
          "velocity": 0.6377952755905512
        },
        {
          "duration": 0.0789472499999988,
          "durationTicks": 96,
          "midi": 44,
          "name": "G#2",
          "ticks": 120000,
          "time": 98.6840625,
          "velocity": 0.6377952755905512
        },
        {
          "duration": 0.0789472499999988,
          "durationTicks": 96,
          "midi": 32,
          "name": "G#1",
          "ticks": 120192,
          "time": 98.841957,
          "velocity": 0.6377952755905512
        },
        {
          "duration": 0.0789472499999988,
          "durationTicks": 96,
          "midi": 44,
          "name": "G#2",
          "ticks": 120384,
          "time": 98.99985149999999,
          "velocity": 0.6377952755905512
        },
        {
          "duration": 0.07894725000001301,
          "durationTicks": 96,
          "midi": 37,
          "name": "C#2",
          "ticks": 120576,
          "time": 99.15774599999999,
          "velocity": 0.6377952755905512
        },
        {
          "duration": 0.0789472499999988,
          "durationTicks": 96,
          "midi": 44,
          "name": "G#2",
          "ticks": 120768,
          "time": 99.3156405,
          "velocity": 0.6377952755905512
        },
        {
          "duration": 0.0789472499999988,
          "durationTicks": 96,
          "midi": 32,
          "name": "G#1",
          "ticks": 120960,
          "time": 99.473535,
          "velocity": 0.6377952755905512
        },
        {
          "duration": 0.0789472499999988,
          "durationTicks": 96,
          "midi": 44,
          "name": "G#2",
          "ticks": 121152,
          "time": 99.6314295,
          "velocity": 0.6377952755905512
        },
        {
          "duration": 0.0789472499999988,
          "durationTicks": 96,
          "midi": 36,
          "name": "C2",
          "ticks": 121344,
          "time": 99.789324,
          "velocity": 0.6377952755905512
        },
        {
          "duration": 0.0789472499999988,
          "durationTicks": 96,
          "midi": 43,
          "name": "G2",
          "ticks": 121536,
          "time": 99.94721849999999,
          "velocity": 0.6377952755905512
        },
        {
          "duration": 0.07894725000001301,
          "durationTicks": 96,
          "midi": 31,
          "name": "G1",
          "ticks": 121728,
          "time": 100.10511299999999,
          "velocity": 0.6377952755905512
        },
        {
          "duration": 0.0789472499999988,
          "durationTicks": 96,
          "midi": 43,
          "name": "G2",
          "ticks": 121920,
          "time": 100.2630075,
          "velocity": 0.6377952755905512
        },
        {
          "duration": 0.0789472499999988,
          "durationTicks": 96,
          "midi": 36,
          "name": "C2",
          "ticks": 122112,
          "time": 100.420902,
          "velocity": 0.6377952755905512
        },
        {
          "duration": 0.0789472499999988,
          "durationTicks": 96,
          "midi": 43,
          "name": "G2",
          "ticks": 122304,
          "time": 100.5787965,
          "velocity": 0.6377952755905512
        },
        {
          "duration": 0.0789472499999988,
          "durationTicks": 96,
          "midi": 31,
          "name": "G1",
          "ticks": 122496,
          "time": 100.736691,
          "velocity": 0.6377952755905512
        },
        {
          "duration": 0.0789472499999988,
          "durationTicks": 96,
          "midi": 43,
          "name": "G2",
          "ticks": 122688,
          "time": 100.89458549999999,
          "velocity": 0.6377952755905512
        },
        {
          "duration": 0.0789472499999988,
          "durationTicks": 96,
          "midi": 34,
          "name": "A#1",
          "ticks": 122880,
          "time": 101.05248,
          "velocity": 0.6377952755905512
        },
        {
          "duration": 0.0789472499999988,
          "durationTicks": 96,
          "midi": 41,
          "name": "F2",
          "ticks": 123072,
          "time": 101.2103745,
          "velocity": 0.6377952755905512
        },
        {
          "duration": 0.0789472499999988,
          "durationTicks": 96,
          "midi": 29,
          "name": "F1",
          "ticks": 123264,
          "time": 101.368269,
          "velocity": 0.6377952755905512
        },
        {
          "duration": 0.0789472499999988,
          "durationTicks": 96,
          "midi": 41,
          "name": "F2",
          "ticks": 123456,
          "time": 101.5261635,
          "velocity": 0.6377952755905512
        },
        {
          "duration": 0.0789472499999988,
          "durationTicks": 96,
          "midi": 34,
          "name": "A#1",
          "ticks": 123648,
          "time": 101.684058,
          "velocity": 0.6377952755905512
        },
        {
          "duration": 0.0789472499999988,
          "durationTicks": 96,
          "midi": 41,
          "name": "F2",
          "ticks": 123840,
          "time": 101.84195249999999,
          "velocity": 0.6377952755905512
        },
        {
          "duration": 0.0789472499999988,
          "durationTicks": 96,
          "midi": 29,
          "name": "F1",
          "ticks": 124032,
          "time": 101.999847,
          "velocity": 0.6377952755905512
        },
        {
          "duration": 0.0789472499999988,
          "durationTicks": 96,
          "midi": 41,
          "name": "F2",
          "ticks": 124224,
          "time": 102.1577415,
          "velocity": 0.6377952755905512
        },
        {
          "duration": 0.0789472499999988,
          "durationTicks": 96,
          "midi": 34,
          "name": "A#1",
          "ticks": 124416,
          "time": 102.315636,
          "velocity": 0.6377952755905512
        },
        {
          "duration": 0.0789472499999988,
          "durationTicks": 96,
          "midi": 41,
          "name": "F2",
          "ticks": 124608,
          "time": 102.4735305,
          "velocity": 0.6377952755905512
        },
        {
          "duration": 0.0789472499999988,
          "durationTicks": 96,
          "midi": 29,
          "name": "F1",
          "ticks": 124800,
          "time": 102.631425,
          "velocity": 0.6377952755905512
        },
        {
          "duration": 0.0789472499999988,
          "durationTicks": 96,
          "midi": 41,
          "name": "F2",
          "ticks": 124992,
          "time": 102.78931949999999,
          "velocity": 0.6377952755905512
        },
        {
          "duration": 0.0789472499999988,
          "durationTicks": 96,
          "midi": 34,
          "name": "A#1",
          "ticks": 125184,
          "time": 102.947214,
          "velocity": 0.6377952755905512
        },
        {
          "duration": 0.0789472499999988,
          "durationTicks": 96,
          "midi": 41,
          "name": "F2",
          "ticks": 125376,
          "time": 103.1051085,
          "velocity": 0.6377952755905512
        },
        {
          "duration": 0.0789472499999988,
          "durationTicks": 96,
          "midi": 29,
          "name": "F1",
          "ticks": 125568,
          "time": 103.263003,
          "velocity": 0.6377952755905512
        },
        {
          "duration": 0.0789472499999988,
          "durationTicks": 96,
          "midi": 41,
          "name": "F2",
          "ticks": 125760,
          "time": 103.4208975,
          "velocity": 0.6377952755905512
        },
        {
          "duration": 0.0789472499999988,
          "durationTicks": 96,
          "midi": 36,
          "name": "C2",
          "ticks": 125952,
          "time": 103.57879199999999,
          "velocity": 0.6377952755905512
        },
        {
          "duration": 0.0789472499999988,
          "durationTicks": 96,
          "midi": 44,
          "name": "G#2",
          "ticks": 126144,
          "time": 103.73668649999999,
          "velocity": 0.6377952755905512
        },
        {
          "duration": 0.0789472499999988,
          "durationTicks": 96,
          "midi": 32,
          "name": "G#1",
          "ticks": 126336,
          "time": 103.894581,
          "velocity": 0.6377952755905512
        },
        {
          "duration": 0.0789472499999988,
          "durationTicks": 96,
          "midi": 44,
          "name": "G#2",
          "ticks": 126528,
          "time": 104.0524755,
          "velocity": 0.6377952755905512
        },
        {
          "duration": 0.0789472499999988,
          "durationTicks": 96,
          "midi": 36,
          "name": "C2",
          "ticks": 126720,
          "time": 104.21037,
          "velocity": 0.6377952755905512
        },
        {
          "duration": 0.0789472499999988,
          "durationTicks": 96,
          "midi": 44,
          "name": "G#2",
          "ticks": 126912,
          "time": 104.3682645,
          "velocity": 0.6377952755905512
        },
        {
          "duration": 0.0789472499999988,
          "durationTicks": 96,
          "midi": 32,
          "name": "G#1",
          "ticks": 127104,
          "time": 104.52615899999999,
          "velocity": 0.6377952755905512
        },
        {
          "duration": 0.0789472499999988,
          "durationTicks": 96,
          "midi": 44,
          "name": "G#2",
          "ticks": 127296,
          "time": 104.68405349999999,
          "velocity": 0.6377952755905512
        },
        {
          "duration": 0.0789472499999988,
          "durationTicks": 96,
          "midi": 36,
          "name": "C2",
          "ticks": 127488,
          "time": 104.841948,
          "velocity": 0.6377952755905512
        },
        {
          "duration": 0.0789472499999988,
          "durationTicks": 96,
          "midi": 44,
          "name": "G#2",
          "ticks": 127680,
          "time": 104.9998425,
          "velocity": 0.6377952755905512
        },
        {
          "duration": 0.0789472499999988,
          "durationTicks": 96,
          "midi": 32,
          "name": "G#1",
          "ticks": 127872,
          "time": 105.157737,
          "velocity": 0.6377952755905512
        },
        {
          "duration": 0.0789472499999988,
          "durationTicks": 96,
          "midi": 44,
          "name": "G#2",
          "ticks": 128064,
          "time": 105.3156315,
          "velocity": 0.6377952755905512
        },
        {
          "duration": 0.0789472499999988,
          "durationTicks": 96,
          "midi": 36,
          "name": "C2",
          "ticks": 128256,
          "time": 105.47352599999999,
          "velocity": 0.6377952755905512
        },
        {
          "duration": 0.0789472499999988,
          "durationTicks": 96,
          "midi": 44,
          "name": "G#2",
          "ticks": 128448,
          "time": 105.63142049999999,
          "velocity": 0.6377952755905512
        },
        {
          "duration": 0.0789472499999988,
          "durationTicks": 96,
          "midi": 32,
          "name": "G#1",
          "ticks": 128640,
          "time": 105.789315,
          "velocity": 0.6377952755905512
        },
        {
          "duration": 0.0789472499999988,
          "durationTicks": 96,
          "midi": 44,
          "name": "G#2",
          "ticks": 128832,
          "time": 105.9472095,
          "velocity": 0.6377952755905512
        },
        {
          "duration": 0.0789472499999988,
          "durationTicks": 96,
          "midi": 37,
          "name": "C#2",
          "ticks": 129024,
          "time": 106.105104,
          "velocity": 0.6377952755905512
        },
        {
          "duration": 0.0789472499999988,
          "durationTicks": 96,
          "midi": 44,
          "name": "G#2",
          "ticks": 129216,
          "time": 106.2629985,
          "velocity": 0.6377952755905512
        },
        {
          "duration": 0.0789472499999988,
          "durationTicks": 96,
          "midi": 32,
          "name": "G#1",
          "ticks": 129408,
          "time": 106.42089299999999,
          "velocity": 0.6377952755905512
        },
        {
          "duration": 0.0789472499999988,
          "durationTicks": 96,
          "midi": 44,
          "name": "G#2",
          "ticks": 129600,
          "time": 106.57878749999999,
          "velocity": 0.6377952755905512
        },
        {
          "duration": 0.0789472499999988,
          "durationTicks": 96,
          "midi": 37,
          "name": "C#2",
          "ticks": 129792,
          "time": 106.736682,
          "velocity": 0.6377952755905512
        },
        {
          "duration": 0.0789472499999988,
          "durationTicks": 96,
          "midi": 44,
          "name": "G#2",
          "ticks": 129984,
          "time": 106.8945765,
          "velocity": 0.6377952755905512
        },
        {
          "duration": 0.0789472499999988,
          "durationTicks": 96,
          "midi": 32,
          "name": "G#1",
          "ticks": 130176,
          "time": 107.052471,
          "velocity": 0.6377952755905512
        },
        {
          "duration": 0.0789472499999988,
          "durationTicks": 96,
          "midi": 44,
          "name": "G#2",
          "ticks": 130368,
          "time": 107.2103655,
          "velocity": 0.6377952755905512
        },
        {
          "duration": 0.0789472499999988,
          "durationTicks": 96,
          "midi": 37,
          "name": "C#2",
          "ticks": 130560,
          "time": 107.36825999999999,
          "velocity": 0.6377952755905512
        },
        {
          "duration": 0.0789472499999988,
          "durationTicks": 96,
          "midi": 44,
          "name": "G#2",
          "ticks": 130752,
          "time": 107.52615449999999,
          "velocity": 0.6377952755905512
        },
        {
          "duration": 0.0789472499999988,
          "durationTicks": 96,
          "midi": 32,
          "name": "G#1",
          "ticks": 130944,
          "time": 107.684049,
          "velocity": 0.6377952755905512
        },
        {
          "duration": 0.0789472499999988,
          "durationTicks": 96,
          "midi": 44,
          "name": "G#2",
          "ticks": 131136,
          "time": 107.8419435,
          "velocity": 0.6377952755905512
        },
        {
          "duration": 0.0789472499999988,
          "durationTicks": 96,
          "midi": 37,
          "name": "C#2",
          "ticks": 131328,
          "time": 107.999838,
          "velocity": 0.6377952755905512
        },
        {
          "duration": 0.0789472499999988,
          "durationTicks": 96,
          "midi": 44,
          "name": "G#2",
          "ticks": 131520,
          "time": 108.1577325,
          "velocity": 0.6377952755905512
        },
        {
          "duration": 0.0789472499999988,
          "durationTicks": 96,
          "midi": 32,
          "name": "G#1",
          "ticks": 131712,
          "time": 108.31562699999999,
          "velocity": 0.6377952755905512
        },
        {
          "duration": 0.0789472499999988,
          "durationTicks": 96,
          "midi": 44,
          "name": "G#2",
          "ticks": 131904,
          "time": 108.47352149999999,
          "velocity": 0.6377952755905512
        },
        {
          "duration": 0.0789472499999988,
          "durationTicks": 96,
          "midi": 37,
          "name": "C#2",
          "ticks": 132096,
          "time": 108.631416,
          "velocity": 0.6377952755905512
        },
        {
          "duration": 0.0789472499999988,
          "durationTicks": 96,
          "midi": 44,
          "name": "G#2",
          "ticks": 132288,
          "time": 108.7893105,
          "velocity": 0.6377952755905512
        },
        {
          "duration": 0.0789472499999988,
          "durationTicks": 96,
          "midi": 32,
          "name": "G#1",
          "ticks": 132480,
          "time": 108.947205,
          "velocity": 0.6377952755905512
        },
        {
          "duration": 0.0789472499999988,
          "durationTicks": 96,
          "midi": 44,
          "name": "G#2",
          "ticks": 132672,
          "time": 109.1050995,
          "velocity": 0.6377952755905512
        },
        {
          "duration": 0.0789472499999988,
          "durationTicks": 96,
          "midi": 37,
          "name": "C#2",
          "ticks": 132864,
          "time": 109.26299399999999,
          "velocity": 0.6377952755905512
        },
        {
          "duration": 0.0789472499999988,
          "durationTicks": 96,
          "midi": 44,
          "name": "G#2",
          "ticks": 133056,
          "time": 109.42088849999999,
          "velocity": 0.6377952755905512
        },
        {
          "duration": 0.0789472499999988,
          "durationTicks": 96,
          "midi": 32,
          "name": "G#1",
          "ticks": 133248,
          "time": 109.578783,
          "velocity": 0.6377952755905512
        },
        {
          "duration": 0.0789472499999988,
          "durationTicks": 96,
          "midi": 44,
          "name": "G#2",
          "ticks": 133440,
          "time": 109.7366775,
          "velocity": 0.6377952755905512
        },
        {
          "duration": 0.0789472499999988,
          "durationTicks": 96,
          "midi": 36,
          "name": "C2",
          "ticks": 133632,
          "time": 109.894572,
          "velocity": 0.6377952755905512
        },
        {
          "duration": 0.0789472499999988,
          "durationTicks": 96,
          "midi": 43,
          "name": "G2",
          "ticks": 133824,
          "time": 110.0524665,
          "velocity": 0.6377952755905512
        },
        {
          "duration": 0.0789472499999988,
          "durationTicks": 96,
          "midi": 31,
          "name": "G1",
          "ticks": 134016,
          "time": 110.21036099999999,
          "velocity": 0.6377952755905512
        },
        {
          "duration": 0.0789472499999988,
          "durationTicks": 96,
          "midi": 43,
          "name": "G2",
          "ticks": 134208,
          "time": 110.36825549999999,
          "velocity": 0.6377952755905512
        },
        {
          "duration": 0.0789472499999988,
          "durationTicks": 96,
          "midi": 36,
          "name": "C2",
          "ticks": 134400,
          "time": 110.52615,
          "velocity": 0.6377952755905512
        },
        {
          "duration": 0.0789472499999988,
          "durationTicks": 96,
          "midi": 43,
          "name": "G2",
          "ticks": 134592,
          "time": 110.6840445,
          "velocity": 0.6377952755905512
        },
        {
          "duration": 0.0789472499999988,
          "durationTicks": 96,
          "midi": 31,
          "name": "G1",
          "ticks": 134784,
          "time": 110.841939,
          "velocity": 0.6377952755905512
        },
        {
          "duration": 0.0789472499999988,
          "durationTicks": 96,
          "midi": 43,
          "name": "G2",
          "ticks": 134976,
          "time": 110.9998335,
          "velocity": 0.6377952755905512
        }
      ],
      "endOfTrackTicks": 135072
    },
    {
      "channel": 2,
      "controlChanges": {},
      "pitchBends": [],
      "instrument": {
        "family": "brass",
        "number": 60,
        "name": "french horn"
      },
      "name": "French Horn",
      "notes": [
        {
          "duration": 0.0789472499999988,
          "durationTicks": 96,
          "midi": 46,
          "name": "A#2",
          "ticks": 73728,
          "time": 60.631488,
          "velocity": 0.8818897637795275
        },
        {
          "duration": 0.0789472499999988,
          "durationTicks": 96,
          "midi": 46,
          "name": "A#2",
          "ticks": 73728,
          "time": 60.631488,
          "velocity": 0.8818897637795275
        },
        {
          "duration": 0.0789472499999988,
          "durationTicks": 96,
          "midi": 46,
          "name": "A#2",
          "ticks": 74112,
          "time": 60.947277,
          "velocity": 0.4015748031496063
        },
        {
          "duration": 0.0789472499999988,
          "durationTicks": 96,
          "midi": 46,
          "name": "A#2",
          "ticks": 74112,
          "time": 60.947277,
          "velocity": 0.4015748031496063
        },
        {
          "duration": 0.0789472499999988,
          "durationTicks": 96,
          "midi": 41,
          "name": "F2",
          "ticks": 74112,
          "time": 60.947277,
          "velocity": 0.33858267716535434
        },
        {
          "duration": 0.07894725000000591,
          "durationTicks": 96,
          "midi": 46,
          "name": "A#2",
          "ticks": 74496,
          "time": 61.263065999999995,
          "velocity": 0.6771653543307087
        },
        {
          "duration": 0.07894725000000591,
          "durationTicks": 96,
          "midi": 46,
          "name": "A#2",
          "ticks": 74496,
          "time": 61.263065999999995,
          "velocity": 0.6771653543307087
        },
        {
          "duration": 0.0789472499999988,
          "durationTicks": 96,
          "midi": 46,
          "name": "A#2",
          "ticks": 74880,
          "time": 61.578855,
          "velocity": 0.4015748031496063
        },
        {
          "duration": 0.0789472499999988,
          "durationTicks": 96,
          "midi": 41,
          "name": "F2",
          "ticks": 74880,
          "time": 61.578855,
          "velocity": 0.33858267716535434
        },
        {
          "duration": 0.0789472499999988,
          "durationTicks": 96,
          "midi": 46,
          "name": "A#2",
          "ticks": 74880,
          "time": 61.578855,
          "velocity": 0.4015748031496063
        },
        {
          "duration": 0.0789472499999988,
          "durationTicks": 96,
          "midi": 46,
          "name": "A#2",
          "ticks": 75264,
          "time": 61.894644,
          "velocity": 0.6771653543307087
        },
        {
          "duration": 0.0789472499999988,
          "durationTicks": 96,
          "midi": 46,
          "name": "A#2",
          "ticks": 75264,
          "time": 61.894644,
          "velocity": 0.6771653543307087
        },
        {
          "duration": 0.07894725000000591,
          "durationTicks": 96,
          "midi": 41,
          "name": "F2",
          "ticks": 75648,
          "time": 62.210432999999995,
          "velocity": 0.33858267716535434
        },
        {
          "duration": 0.07894725000000591,
          "durationTicks": 96,
          "midi": 46,
          "name": "A#2",
          "ticks": 75648,
          "time": 62.210432999999995,
          "velocity": 0.4015748031496063
        },
        {
          "duration": 0.07894725000000591,
          "durationTicks": 96,
          "midi": 46,
          "name": "A#2",
          "ticks": 75648,
          "time": 62.210432999999995,
          "velocity": 0.4015748031496063
        },
        {
          "duration": 0.0789472499999988,
          "durationTicks": 96,
          "midi": 46,
          "name": "A#2",
          "ticks": 76032,
          "time": 62.526222,
          "velocity": 0.6771653543307087
        },
        {
          "duration": 0.0789472499999988,
          "durationTicks": 96,
          "midi": 46,
          "name": "A#2",
          "ticks": 76032,
          "time": 62.526222,
          "velocity": 0.6771653543307087
        },
        {
          "duration": 0.0789472499999988,
          "durationTicks": 96,
          "midi": 46,
          "name": "A#2",
          "ticks": 76416,
          "time": 62.842011,
          "velocity": 0.4015748031496063
        },
        {
          "duration": 0.0789472499999988,
          "durationTicks": 96,
          "midi": 46,
          "name": "A#2",
          "ticks": 76416,
          "time": 62.842011,
          "velocity": 0.4015748031496063
        },
        {
          "duration": 0.0789472499999988,
          "durationTicks": 96,
          "midi": 41,
          "name": "F2",
          "ticks": 76416,
          "time": 62.842011,
          "velocity": 0.33858267716535434
        },
        {
          "duration": 0.07894725000000591,
          "durationTicks": 96,
          "midi": 48,
          "name": "C3",
          "ticks": 76800,
          "time": 63.157799999999995,
          "velocity": 0.6771653543307087
        },
        {
          "duration": 0.07894725000000591,
          "durationTicks": 96,
          "midi": 48,
          "name": "C3",
          "ticks": 76800,
          "time": 63.157799999999995,
          "velocity": 0.6771653543307087
        },
        {
          "duration": 0.0789472499999988,
          "durationTicks": 96,
          "midi": 48,
          "name": "C3",
          "ticks": 77184,
          "time": 63.473589,
          "velocity": 0.4015748031496063
        },
        {
          "duration": 0.0789472499999988,
          "durationTicks": 96,
          "midi": 48,
          "name": "C3",
          "ticks": 77184,
          "time": 63.473589,
          "velocity": 0.4015748031496063
        },
        {
          "duration": 0.0789472499999988,
          "durationTicks": 96,
          "midi": 44,
          "name": "G#2",
          "ticks": 77184,
          "time": 63.473589,
          "velocity": 0.33858267716535434
        },
        {
          "duration": 0.0789472499999988,
          "durationTicks": 96,
          "midi": 48,
          "name": "C3",
          "ticks": 77568,
          "time": 63.789378,
          "velocity": 0.6771653543307087
        },
        {
          "duration": 0.0789472499999988,
          "durationTicks": 96,
          "midi": 48,
          "name": "C3",
          "ticks": 77568,
          "time": 63.789378,
          "velocity": 0.6771653543307087
        },
        {
          "duration": 0.0789472499999988,
          "durationTicks": 96,
          "midi": 44,
          "name": "G#2",
          "ticks": 77952,
          "time": 64.105167,
          "velocity": 0.33858267716535434
        },
        {
          "duration": 0.0789472499999988,
          "durationTicks": 96,
          "midi": 48,
          "name": "C3",
          "ticks": 77952,
          "time": 64.105167,
          "velocity": 0.4015748031496063
        },
        {
          "duration": 0.0789472499999988,
          "durationTicks": 96,
          "midi": 48,
          "name": "C3",
          "ticks": 77952,
          "time": 64.105167,
          "velocity": 0.4015748031496063
        },
        {
          "duration": 0.0789472499999988,
          "durationTicks": 96,
          "midi": 48,
          "name": "C3",
          "ticks": 78336,
          "time": 64.420956,
          "velocity": 0.6771653543307087
        },
        {
          "duration": 0.0789472499999988,
          "durationTicks": 96,
          "midi": 48,
          "name": "C3",
          "ticks": 78336,
          "time": 64.420956,
          "velocity": 0.6771653543307087
        },
        {
          "duration": 0.0789472499999988,
          "durationTicks": 96,
          "midi": 48,
          "name": "C3",
          "ticks": 78720,
          "time": 64.736745,
          "velocity": 0.4015748031496063
        },
        {
          "duration": 0.0789472499999988,
          "durationTicks": 96,
          "midi": 48,
          "name": "C3",
          "ticks": 78720,
          "time": 64.736745,
          "velocity": 0.4015748031496063
        },
        {
          "duration": 0.0789472499999988,
          "durationTicks": 96,
          "midi": 44,
          "name": "G#2",
          "ticks": 78720,
          "time": 64.736745,
          "velocity": 0.33858267716535434
        },
        {
          "duration": 0.0789472499999988,
          "durationTicks": 96,
          "midi": 48,
          "name": "C3",
          "ticks": 79104,
          "time": 65.052534,
          "velocity": 0.6771653543307087
        },
        {
          "duration": 0.0789472499999988,
          "durationTicks": 96,
          "midi": 48,
          "name": "C3",
          "ticks": 79104,
          "time": 65.052534,
          "velocity": 0.6771653543307087
        },
        {
          "duration": 0.0789472499999988,
          "durationTicks": 96,
          "midi": 44,
          "name": "G#2",
          "ticks": 79488,
          "time": 65.368323,
          "velocity": 0.33858267716535434
        },
        {
          "duration": 0.0789472499999988,
          "durationTicks": 96,
          "midi": 48,
          "name": "C3",
          "ticks": 79488,
          "time": 65.368323,
          "velocity": 0.4015748031496063
        },
        {
          "duration": 0.0789472499999988,
          "durationTicks": 96,
          "midi": 48,
          "name": "C3",
          "ticks": 79488,
          "time": 65.368323,
          "velocity": 0.4015748031496063
        },
        {
          "duration": 0.0789472499999988,
          "durationTicks": 96,
          "midi": 49,
          "name": "C#3",
          "ticks": 79872,
          "time": 65.684112,
          "velocity": 0.6771653543307087
        },
        {
          "duration": 0.0789472499999988,
          "durationTicks": 96,
          "midi": 49,
          "name": "C#3",
          "ticks": 79872,
          "time": 65.684112,
          "velocity": 0.6771653543307087
        },
        {
          "duration": 0.0789472499999988,
          "durationTicks": 96,
          "midi": 49,
          "name": "C#3",
          "ticks": 80256,
          "time": 65.999901,
          "velocity": 0.4015748031496063
        },
        {
          "duration": 0.0789472499999988,
          "durationTicks": 96,
          "midi": 44,
          "name": "G#2",
          "ticks": 80256,
          "time": 65.999901,
          "velocity": 0.33858267716535434
        },
        {
          "duration": 0.0789472499999988,
          "durationTicks": 96,
          "midi": 49,
          "name": "C#3",
          "ticks": 80256,
          "time": 65.999901,
          "velocity": 0.4015748031496063
        },
        {
          "duration": 0.0789472499999988,
          "durationTicks": 96,
          "midi": 49,
          "name": "C#3",
          "ticks": 80640,
          "time": 66.31569,
          "velocity": 0.6771653543307087
        },
        {
          "duration": 0.0789472499999988,
          "durationTicks": 96,
          "midi": 49,
          "name": "C#3",
          "ticks": 80640,
          "time": 66.31569,
          "velocity": 0.6771653543307087
        },
        {
          "duration": 0.0789472499999988,
          "durationTicks": 96,
          "midi": 49,
          "name": "C#3",
          "ticks": 81024,
          "time": 66.631479,
          "velocity": 0.4015748031496063
        },
        {
          "duration": 0.0789472499999988,
          "durationTicks": 96,
          "midi": 44,
          "name": "G#2",
          "ticks": 81024,
          "time": 66.631479,
          "velocity": 0.33858267716535434
        },
        {
          "duration": 0.0789472499999988,
          "durationTicks": 96,
          "midi": 49,
          "name": "C#3",
          "ticks": 81024,
          "time": 66.631479,
          "velocity": 0.4015748031496063
        },
        {
          "duration": 0.0789472499999988,
          "durationTicks": 96,
          "midi": 49,
          "name": "C#3",
          "ticks": 81408,
          "time": 66.947268,
          "velocity": 0.6771653543307087
        },
        {
          "duration": 0.0789472499999988,
          "durationTicks": 96,
          "midi": 49,
          "name": "C#3",
          "ticks": 81408,
          "time": 66.947268,
          "velocity": 0.6771653543307087
        },
        {
          "duration": 0.0789472499999988,
          "durationTicks": 96,
          "midi": 49,
          "name": "C#3",
          "ticks": 81792,
          "time": 67.263057,
          "velocity": 0.4015748031496063
        },
        {
          "duration": 0.0789472499999988,
          "durationTicks": 96,
          "midi": 49,
          "name": "C#3",
          "ticks": 81792,
          "time": 67.263057,
          "velocity": 0.4015748031496063
        },
        {
          "duration": 0.0789472499999988,
          "durationTicks": 96,
          "midi": 44,
          "name": "G#2",
          "ticks": 81792,
          "time": 67.263057,
          "velocity": 0.33858267716535434
        },
        {
          "duration": 0.0789472499999988,
          "durationTicks": 96,
          "midi": 49,
          "name": "C#3",
          "ticks": 82176,
          "time": 67.578846,
          "velocity": 0.6771653543307087
        },
        {
          "duration": 0.0789472499999988,
          "durationTicks": 96,
          "midi": 49,
          "name": "C#3",
          "ticks": 82176,
          "time": 67.578846,
          "velocity": 0.6771653543307087
        },
        {
          "duration": 0.0789472499999988,
          "durationTicks": 96,
          "midi": 49,
          "name": "C#3",
          "ticks": 82560,
          "time": 67.894635,
          "velocity": 0.4015748031496063
        },
        {
          "duration": 0.0789472499999988,
          "durationTicks": 96,
          "midi": 49,
          "name": "C#3",
          "ticks": 82560,
          "time": 67.894635,
          "velocity": 0.4015748031496063
        },
        {
          "duration": 0.0789472499999988,
          "durationTicks": 96,
          "midi": 44,
          "name": "G#2",
          "ticks": 82560,
          "time": 67.894635,
          "velocity": 0.33858267716535434
        },
        {
          "duration": 0.0789472499999988,
          "durationTicks": 96,
          "midi": 49,
          "name": "C#3",
          "ticks": 82944,
          "time": 68.210424,
          "velocity": 0.6771653543307087
        },
        {
          "duration": 0.0789472499999988,
          "durationTicks": 96,
          "midi": 49,
          "name": "C#3",
          "ticks": 82944,
          "time": 68.210424,
          "velocity": 0.6771653543307087
        },
        {
          "duration": 0.0789472499999988,
          "durationTicks": 96,
          "midi": 49,
          "name": "C#3",
          "ticks": 83328,
          "time": 68.526213,
          "velocity": 0.4015748031496063
        },
        {
          "duration": 0.0789472499999988,
          "durationTicks": 96,
          "midi": 44,
          "name": "G#2",
          "ticks": 83328,
          "time": 68.526213,
          "velocity": 0.33858267716535434
        },
        {
          "duration": 0.0789472499999988,
          "durationTicks": 96,
          "midi": 49,
          "name": "C#3",
          "ticks": 83328,
          "time": 68.526213,
          "velocity": 0.4015748031496063
        },
        {
          "duration": 0.0789472499999988,
          "durationTicks": 96,
          "midi": 49,
          "name": "C#3",
          "ticks": 83712,
          "time": 68.842002,
          "velocity": 0.6771653543307087
        },
        {
          "duration": 0.0789472499999988,
          "durationTicks": 96,
          "midi": 49,
          "name": "C#3",
          "ticks": 83712,
          "time": 68.842002,
          "velocity": 0.6771653543307087
        },
        {
          "duration": 0.0789472499999988,
          "durationTicks": 96,
          "midi": 49,
          "name": "C#3",
          "ticks": 84096,
          "time": 69.157791,
          "velocity": 0.4015748031496063
        },
        {
          "duration": 0.0789472499999988,
          "durationTicks": 96,
          "midi": 49,
          "name": "C#3",
          "ticks": 84096,
          "time": 69.157791,
          "velocity": 0.4015748031496063
        },
        {
          "duration": 0.0789472499999988,
          "durationTicks": 96,
          "midi": 44,
          "name": "G#2",
          "ticks": 84096,
          "time": 69.157791,
          "velocity": 0.33858267716535434
        },
        {
          "duration": 0.0789472499999988,
          "durationTicks": 96,
          "midi": 48,
          "name": "C3",
          "ticks": 84480,
          "time": 69.47358,
          "velocity": 0.6771653543307087
        },
        {
          "duration": 0.0789472499999988,
          "durationTicks": 96,
          "midi": 48,
          "name": "C3",
          "ticks": 84480,
          "time": 69.47358,
          "velocity": 0.6771653543307087
        },
        {
          "duration": 0.0789472499999988,
          "durationTicks": 96,
          "midi": 48,
          "name": "C3",
          "ticks": 84864,
          "time": 69.789369,
          "velocity": 0.4015748031496063
        },
        {
          "duration": 0.0789472499999988,
          "durationTicks": 96,
          "midi": 43,
          "name": "G2",
          "ticks": 84864,
          "time": 69.789369,
          "velocity": 0.33858267716535434
        },
        {
          "duration": 0.0789472499999988,
          "durationTicks": 96,
          "midi": 48,
          "name": "C3",
          "ticks": 84864,
          "time": 69.789369,
          "velocity": 0.4015748031496063
        },
        {
          "duration": 0.0789472499999988,
          "durationTicks": 96,
          "midi": 48,
          "name": "C3",
          "ticks": 85248,
          "time": 70.105158,
          "velocity": 0.6771653543307087
        },
        {
          "duration": 0.0789472499999988,
          "durationTicks": 96,
          "midi": 48,
          "name": "C3",
          "ticks": 85248,
          "time": 70.105158,
          "velocity": 0.6771653543307087
        },
        {
          "duration": 0.0789472499999988,
          "durationTicks": 96,
          "midi": 48,
          "name": "C3",
          "ticks": 85632,
          "time": 70.420947,
          "velocity": 0.4015748031496063
        },
        {
          "duration": 0.0789472499999988,
          "durationTicks": 96,
          "midi": 48,
          "name": "C3",
          "ticks": 85632,
          "time": 70.420947,
          "velocity": 0.4015748031496063
        },
        {
          "duration": 0.0789472499999988,
          "durationTicks": 96,
          "midi": 43,
          "name": "G2",
          "ticks": 85632,
          "time": 70.420947,
          "velocity": 0.33858267716535434
        },
        {
          "duration": 0.0789472499999988,
          "durationTicks": 96,
          "midi": 46,
          "name": "A#2",
          "ticks": 86016,
          "time": 70.736736,
          "velocity": 0.6771653543307087
        },
        {
          "duration": 0.0789472499999988,
          "durationTicks": 96,
          "midi": 46,
          "name": "A#2",
          "ticks": 86016,
          "time": 70.736736,
          "velocity": 0.6771653543307087
        },
        {
          "duration": 0.0789472499999988,
          "durationTicks": 96,
          "midi": 41,
          "name": "F2",
          "ticks": 86400,
          "time": 71.052525,
          "velocity": 0.33858267716535434
        },
        {
          "duration": 0.0789472499999988,
          "durationTicks": 96,
          "midi": 46,
          "name": "A#2",
          "ticks": 86400,
          "time": 71.052525,
          "velocity": 0.4015748031496063
        },
        {
          "duration": 0.0789472499999988,
          "durationTicks": 96,
          "midi": 46,
          "name": "A#2",
          "ticks": 86400,
          "time": 71.052525,
          "velocity": 0.4015748031496063
        },
        {
          "duration": 0.0789472499999988,
          "durationTicks": 96,
          "midi": 46,
          "name": "A#2",
          "ticks": 86784,
          "time": 71.368314,
          "velocity": 0.6771653543307087
        },
        {
          "duration": 0.0789472499999988,
          "durationTicks": 96,
          "midi": 46,
          "name": "A#2",
          "ticks": 86784,
          "time": 71.368314,
          "velocity": 0.6771653543307087
        },
        {
          "duration": 0.0789472499999988,
          "durationTicks": 96,
          "midi": 46,
          "name": "A#2",
          "ticks": 87168,
          "time": 71.684103,
          "velocity": 0.4015748031496063
        },
        {
          "duration": 0.0789472499999988,
          "durationTicks": 96,
          "midi": 41,
          "name": "F2",
          "ticks": 87168,
          "time": 71.684103,
          "velocity": 0.33858267716535434
        },
        {
          "duration": 0.0789472499999988,
          "durationTicks": 96,
          "midi": 46,
          "name": "A#2",
          "ticks": 87168,
          "time": 71.684103,
          "velocity": 0.4015748031496063
        },
        {
          "duration": 0.0789472499999988,
          "durationTicks": 96,
          "midi": 46,
          "name": "A#2",
          "ticks": 87552,
          "time": 71.999892,
          "velocity": 0.6771653543307087
        },
        {
          "duration": 0.0789472499999988,
          "durationTicks": 96,
          "midi": 46,
          "name": "A#2",
          "ticks": 87552,
          "time": 71.999892,
          "velocity": 0.6771653543307087
        },
        {
          "duration": 0.0789472499999988,
          "durationTicks": 96,
          "midi": 46,
          "name": "A#2",
          "ticks": 87936,
          "time": 72.315681,
          "velocity": 0.4015748031496063
        },
        {
          "duration": 0.0789472499999988,
          "durationTicks": 96,
          "midi": 41,
          "name": "F2",
          "ticks": 87936,
          "time": 72.315681,
          "velocity": 0.33858267716535434
        },
        {
          "duration": 0.0789472499999988,
          "durationTicks": 96,
          "midi": 46,
          "name": "A#2",
          "ticks": 87936,
          "time": 72.315681,
          "velocity": 0.4015748031496063
        },
        {
          "duration": 0.0789472499999988,
          "durationTicks": 96,
          "midi": 46,
          "name": "A#2",
          "ticks": 88320,
          "time": 72.63147,
          "velocity": 0.6771653543307087
        },
        {
          "duration": 0.0789472499999988,
          "durationTicks": 96,
          "midi": 46,
          "name": "A#2",
          "ticks": 88320,
          "time": 72.63147,
          "velocity": 0.6771653543307087
        },
        {
          "duration": 0.0789472499999988,
          "durationTicks": 96,
          "midi": 41,
          "name": "F2",
          "ticks": 88704,
          "time": 72.947259,
          "velocity": 0.33858267716535434
        },
        {
          "duration": 0.0789472499999988,
          "durationTicks": 96,
          "midi": 46,
          "name": "A#2",
          "ticks": 88704,
          "time": 72.947259,
          "velocity": 0.4015748031496063
        },
        {
          "duration": 0.0789472499999988,
          "durationTicks": 96,
          "midi": 46,
          "name": "A#2",
          "ticks": 88704,
          "time": 72.947259,
          "velocity": 0.4015748031496063
        },
        {
          "duration": 0.0789472499999988,
          "durationTicks": 96,
          "midi": 48,
          "name": "C3",
          "ticks": 89088,
          "time": 73.263048,
          "velocity": 0.6771653543307087
        },
        {
          "duration": 0.0789472499999988,
          "durationTicks": 96,
          "midi": 48,
          "name": "C3",
          "ticks": 89088,
          "time": 73.263048,
          "velocity": 0.6771653543307087
        },
        {
          "duration": 0.0789472499999988,
          "durationTicks": 96,
          "midi": 48,
          "name": "C3",
          "ticks": 89472,
          "time": 73.578837,
          "velocity": 0.4015748031496063
        },
        {
          "duration": 0.0789472499999988,
          "durationTicks": 96,
          "midi": 44,
          "name": "G#2",
          "ticks": 89472,
          "time": 73.578837,
          "velocity": 0.33858267716535434
        },
        {
          "duration": 0.0789472499999988,
          "durationTicks": 96,
          "midi": 48,
          "name": "C3",
          "ticks": 89472,
          "time": 73.578837,
          "velocity": 0.4015748031496063
        },
        {
          "duration": 0.0789472499999988,
          "durationTicks": 96,
          "midi": 48,
          "name": "C3",
          "ticks": 89856,
          "time": 73.894626,
          "velocity": 0.6771653543307087
        },
        {
          "duration": 0.0789472499999988,
          "durationTicks": 96,
          "midi": 48,
          "name": "C3",
          "ticks": 89856,
          "time": 73.894626,
          "velocity": 0.6771653543307087
        },
        {
          "duration": 0.0789472499999988,
          "durationTicks": 96,
          "midi": 48,
          "name": "C3",
          "ticks": 90240,
          "time": 74.210415,
          "velocity": 0.4015748031496063
        },
        {
          "duration": 0.0789472499999988,
          "durationTicks": 96,
          "midi": 44,
          "name": "G#2",
          "ticks": 90240,
          "time": 74.210415,
          "velocity": 0.33858267716535434
        },
        {
          "duration": 0.0789472499999988,
          "durationTicks": 96,
          "midi": 48,
          "name": "C3",
          "ticks": 90240,
          "time": 74.210415,
          "velocity": 0.4015748031496063
        },
        {
          "duration": 0.0789472499999988,
          "durationTicks": 96,
          "midi": 48,
          "name": "C3",
          "ticks": 90624,
          "time": 74.52620399999999,
          "velocity": 0.6771653543307087
        },
        {
          "duration": 0.0789472499999988,
          "durationTicks": 96,
          "midi": 48,
          "name": "C3",
          "ticks": 90624,
          "time": 74.52620399999999,
          "velocity": 0.6771653543307087
        },
        {
          "duration": 0.0789472499999988,
          "durationTicks": 96,
          "midi": 48,
          "name": "C3",
          "ticks": 91008,
          "time": 74.841993,
          "velocity": 0.4015748031496063
        },
        {
          "duration": 0.0789472499999988,
          "durationTicks": 96,
          "midi": 44,
          "name": "G#2",
          "ticks": 91008,
          "time": 74.841993,
          "velocity": 0.33858267716535434
        },
        {
          "duration": 0.0789472499999988,
          "durationTicks": 96,
          "midi": 48,
          "name": "C3",
          "ticks": 91008,
          "time": 74.841993,
          "velocity": 0.4015748031496063
        },
        {
          "duration": 0.0789472499999988,
          "durationTicks": 96,
          "midi": 48,
          "name": "C3",
          "ticks": 91392,
          "time": 75.157782,
          "velocity": 0.6771653543307087
        },
        {
          "duration": 0.0789472499999988,
          "durationTicks": 96,
          "midi": 48,
          "name": "C3",
          "ticks": 91392,
          "time": 75.157782,
          "velocity": 0.6771653543307087
        },
        {
          "duration": 0.0789472499999988,
          "durationTicks": 96,
          "midi": 48,
          "name": "C3",
          "ticks": 91776,
          "time": 75.47357099999999,
          "velocity": 0.4015748031496063
        },
        {
          "duration": 0.0789472499999988,
          "durationTicks": 96,
          "midi": 48,
          "name": "C3",
          "ticks": 91776,
          "time": 75.47357099999999,
          "velocity": 0.4015748031496063
        },
        {
          "duration": 0.0789472499999988,
          "durationTicks": 96,
          "midi": 44,
          "name": "G#2",
          "ticks": 91776,
          "time": 75.47357099999999,
          "velocity": 0.33858267716535434
        },
        {
          "duration": 0.0789472499999988,
          "durationTicks": 96,
          "midi": 49,
          "name": "C#3",
          "ticks": 92160,
          "time": 75.78936,
          "velocity": 0.6771653543307087
        },
        {
          "duration": 0.0789472499999988,
          "durationTicks": 96,
          "midi": 49,
          "name": "C#3",
          "ticks": 92160,
          "time": 75.78936,
          "velocity": 0.6771653543307087
        },
        {
          "duration": 0.0789472499999988,
          "durationTicks": 96,
          "midi": 49,
          "name": "C#3",
          "ticks": 92544,
          "time": 76.105149,
          "velocity": 0.4015748031496063
        },
        {
          "duration": 0.0789472499999988,
          "durationTicks": 96,
          "midi": 49,
          "name": "C#3",
          "ticks": 92544,
          "time": 76.105149,
          "velocity": 0.4015748031496063
        },
        {
          "duration": 0.0789472499999988,
          "durationTicks": 96,
          "midi": 44,
          "name": "G#2",
          "ticks": 92544,
          "time": 76.105149,
          "velocity": 0.33858267716535434
        },
        {
          "duration": 0.0789472499999988,
          "durationTicks": 96,
          "midi": 49,
          "name": "C#3",
          "ticks": 92928,
          "time": 76.42093799999999,
          "velocity": 0.6771653543307087
        },
        {
          "duration": 0.0789472499999988,
          "durationTicks": 96,
          "midi": 49,
          "name": "C#3",
          "ticks": 92928,
          "time": 76.42093799999999,
          "velocity": 0.6771653543307087
        },
        {
          "duration": 0.0789472499999988,
          "durationTicks": 96,
          "midi": 49,
          "name": "C#3",
          "ticks": 93312,
          "time": 76.736727,
          "velocity": 0.4015748031496063
        },
        {
          "duration": 0.0789472499999988,
          "durationTicks": 96,
          "midi": 44,
          "name": "G#2",
          "ticks": 93312,
          "time": 76.736727,
          "velocity": 0.33858267716535434
        },
        {
          "duration": 0.0789472499999988,
          "durationTicks": 96,
          "midi": 49,
          "name": "C#3",
          "ticks": 93312,
          "time": 76.736727,
          "velocity": 0.4015748031496063
        },
        {
          "duration": 0.0789472499999988,
          "durationTicks": 96,
          "midi": 49,
          "name": "C#3",
          "ticks": 93696,
          "time": 77.052516,
          "velocity": 0.6771653543307087
        },
        {
          "duration": 0.0789472499999988,
          "durationTicks": 96,
          "midi": 49,
          "name": "C#3",
          "ticks": 93696,
          "time": 77.052516,
          "velocity": 0.6771653543307087
        },
        {
          "duration": 0.0789472499999988,
          "durationTicks": 96,
          "midi": 49,
          "name": "C#3",
          "ticks": 94080,
          "time": 77.36830499999999,
          "velocity": 0.4015748031496063
        },
        {
          "duration": 0.0789472499999988,
          "durationTicks": 96,
          "midi": 49,
          "name": "C#3",
          "ticks": 94080,
          "time": 77.36830499999999,
          "velocity": 0.4015748031496063
        },
        {
          "duration": 0.0789472499999988,
          "durationTicks": 96,
          "midi": 44,
          "name": "G#2",
          "ticks": 94080,
          "time": 77.36830499999999,
          "velocity": 0.33858267716535434
        },
        {
          "duration": 0.0789472499999988,
          "durationTicks": 96,
          "midi": 49,
          "name": "C#3",
          "ticks": 94464,
          "time": 77.684094,
          "velocity": 0.6771653543307087
        },
        {
          "duration": 0.0789472499999988,
          "durationTicks": 96,
          "midi": 49,
          "name": "C#3",
          "ticks": 94464,
          "time": 77.684094,
          "velocity": 0.6771653543307087
        },
        {
          "duration": 0.0789472499999988,
          "durationTicks": 96,
          "midi": 49,
          "name": "C#3",
          "ticks": 94848,
          "time": 77.999883,
          "velocity": 0.4015748031496063
        },
        {
          "duration": 0.0789472499999988,
          "durationTicks": 96,
          "midi": 44,
          "name": "G#2",
          "ticks": 94848,
          "time": 77.999883,
          "velocity": 0.33858267716535434
        },
        {
          "duration": 0.0789472499999988,
          "durationTicks": 96,
          "midi": 49,
          "name": "C#3",
          "ticks": 94848,
          "time": 77.999883,
          "velocity": 0.4015748031496063
        },
        {
          "duration": 0.0789472499999988,
          "durationTicks": 96,
          "midi": 49,
          "name": "C#3",
          "ticks": 95232,
          "time": 78.31567199999999,
          "velocity": 0.6771653543307087
        },
        {
          "duration": 0.0789472499999988,
          "durationTicks": 96,
          "midi": 49,
          "name": "C#3",
          "ticks": 95232,
          "time": 78.31567199999999,
          "velocity": 0.6771653543307087
        },
        {
          "duration": 0.0789472499999988,
          "durationTicks": 96,
          "midi": 49,
          "name": "C#3",
          "ticks": 95616,
          "time": 78.631461,
          "velocity": 0.4015748031496063
        },
        {
          "duration": 0.0789472499999988,
          "durationTicks": 96,
          "midi": 44,
          "name": "G#2",
          "ticks": 95616,
          "time": 78.631461,
          "velocity": 0.33858267716535434
        },
        {
          "duration": 0.0789472499999988,
          "durationTicks": 96,
          "midi": 49,
          "name": "C#3",
          "ticks": 95616,
          "time": 78.631461,
          "velocity": 0.4015748031496063
        },
        {
          "duration": 0.0789472499999988,
          "durationTicks": 96,
          "midi": 49,
          "name": "C#3",
          "ticks": 96000,
          "time": 78.94725,
          "velocity": 0.6771653543307087
        },
        {
          "duration": 0.0789472499999988,
          "durationTicks": 96,
          "midi": 49,
          "name": "C#3",
          "ticks": 96000,
          "time": 78.94725,
          "velocity": 0.6771653543307087
        },
        {
          "duration": 0.0789472499999988,
          "durationTicks": 96,
          "midi": 44,
          "name": "G#2",
          "ticks": 96384,
          "time": 79.26303899999999,
          "velocity": 0.33858267716535434
        },
        {
          "duration": 0.0789472499999988,
          "durationTicks": 96,
          "midi": 49,
          "name": "C#3",
          "ticks": 96384,
          "time": 79.26303899999999,
          "velocity": 0.4015748031496063
        },
        {
          "duration": 0.0789472499999988,
          "durationTicks": 96,
          "midi": 49,
          "name": "C#3",
          "ticks": 96384,
          "time": 79.26303899999999,
          "velocity": 0.4015748031496063
        },
        {
          "duration": 0.0789472499999988,
          "durationTicks": 96,
          "midi": 48,
          "name": "C3",
          "ticks": 96768,
          "time": 79.578828,
          "velocity": 0.6771653543307087
        },
        {
          "duration": 0.0789472499999988,
          "durationTicks": 96,
          "midi": 48,
          "name": "C3",
          "ticks": 96768,
          "time": 79.578828,
          "velocity": 0.6771653543307087
        },
        {
          "duration": 0.0789472499999988,
          "durationTicks": 96,
          "midi": 43,
          "name": "G2",
          "ticks": 97152,
          "time": 79.894617,
          "velocity": 0.33858267716535434
        },
        {
          "duration": 0.0789472499999988,
          "durationTicks": 96,
          "midi": 48,
          "name": "C3",
          "ticks": 97152,
          "time": 79.894617,
          "velocity": 0.4015748031496063
        },
        {
          "duration": 0.0789472499999988,
          "durationTicks": 96,
          "midi": 48,
          "name": "C3",
          "ticks": 97152,
          "time": 79.894617,
          "velocity": 0.4015748031496063
        },
        {
          "duration": 0.0789472499999988,
          "durationTicks": 96,
          "midi": 48,
          "name": "C3",
          "ticks": 97536,
          "time": 80.21040599999999,
          "velocity": 0.6771653543307087
        },
        {
          "duration": 0.0789472499999988,
          "durationTicks": 96,
          "midi": 48,
          "name": "C3",
          "ticks": 97536,
          "time": 80.21040599999999,
          "velocity": 0.6771653543307087
        },
        {
          "duration": 0.0789472499999988,
          "durationTicks": 96,
          "midi": 48,
          "name": "C3",
          "ticks": 97920,
          "time": 80.526195,
          "velocity": 0.4015748031496063
        },
        {
          "duration": 0.0789472499999988,
          "durationTicks": 96,
          "midi": 48,
          "name": "C3",
          "ticks": 97920,
          "time": 80.526195,
          "velocity": 0.4015748031496063
        },
        {
          "duration": 0.0789472499999988,
          "durationTicks": 96,
          "midi": 43,
          "name": "G2",
          "ticks": 97920,
          "time": 80.526195,
          "velocity": 0.33858267716535434
        },
        {
          "duration": 0.0789472499999988,
          "durationTicks": 96,
          "midi": 46,
          "name": "A#2",
          "ticks": 98304,
          "time": 80.841984,
          "velocity": 0.6771653543307087
        },
        {
          "duration": 0.0789472499999988,
          "durationTicks": 96,
          "midi": 46,
          "name": "A#2",
          "ticks": 98304,
          "time": 80.841984,
          "velocity": 0.6771653543307087
        },
        {
          "duration": 0.0789472499999988,
          "durationTicks": 96,
          "midi": 41,
          "name": "F2",
          "ticks": 98688,
          "time": 81.15777299999999,
          "velocity": 0.33858267716535434
        },
        {
          "duration": 0.0789472499999988,
          "durationTicks": 96,
          "midi": 46,
          "name": "A#2",
          "ticks": 98688,
          "time": 81.15777299999999,
          "velocity": 0.4015748031496063
        },
        {
          "duration": 0.0789472499999988,
          "durationTicks": 96,
          "midi": 46,
          "name": "A#2",
          "ticks": 98688,
          "time": 81.15777299999999,
          "velocity": 0.4015748031496063
        },
        {
          "duration": 0.0789472499999988,
          "durationTicks": 96,
          "midi": 46,
          "name": "A#2",
          "ticks": 99072,
          "time": 81.473562,
          "velocity": 0.6771653543307087
        },
        {
          "duration": 0.0789472499999988,
          "durationTicks": 96,
          "midi": 46,
          "name": "A#2",
          "ticks": 99072,
          "time": 81.473562,
          "velocity": 0.6771653543307087
        },
        {
          "duration": 0.0789472499999988,
          "durationTicks": 96,
          "midi": 46,
          "name": "A#2",
          "ticks": 99456,
          "time": 81.789351,
          "velocity": 0.4015748031496063
        },
        {
          "duration": 0.0789472499999988,
          "durationTicks": 96,
          "midi": 46,
          "name": "A#2",
          "ticks": 99456,
          "time": 81.789351,
          "velocity": 0.4015748031496063
        },
        {
          "duration": 0.0789472499999988,
          "durationTicks": 96,
          "midi": 41,
          "name": "F2",
          "ticks": 99456,
          "time": 81.789351,
          "velocity": 0.33858267716535434
        },
        {
          "duration": 0.0789472499999988,
          "durationTicks": 96,
          "midi": 46,
          "name": "A#2",
          "ticks": 99840,
          "time": 82.10513999999999,
          "velocity": 0.6771653543307087
        },
        {
          "duration": 0.0789472499999988,
          "durationTicks": 96,
          "midi": 46,
          "name": "A#2",
          "ticks": 99840,
          "time": 82.10513999999999,
          "velocity": 0.6771653543307087
        },
        {
          "duration": 0.0789472499999988,
          "durationTicks": 96,
          "midi": 46,
          "name": "A#2",
          "ticks": 100224,
          "time": 82.420929,
          "velocity": 0.4015748031496063
        },
        {
          "duration": 0.0789472499999988,
          "durationTicks": 96,
          "midi": 46,
          "name": "A#2",
          "ticks": 100224,
          "time": 82.420929,
          "velocity": 0.4015748031496063
        },
        {
          "duration": 0.0789472499999988,
          "durationTicks": 96,
          "midi": 41,
          "name": "F2",
          "ticks": 100224,
          "time": 82.420929,
          "velocity": 0.33858267716535434
        },
        {
          "duration": 0.0789472499999988,
          "durationTicks": 96,
          "midi": 46,
          "name": "A#2",
          "ticks": 100608,
          "time": 82.736718,
          "velocity": 0.6771653543307087
        },
        {
          "duration": 0.0789472499999988,
          "durationTicks": 96,
          "midi": 46,
          "name": "A#2",
          "ticks": 100608,
          "time": 82.736718,
          "velocity": 0.6771653543307087
        },
        {
          "duration": 0.0789472499999988,
          "durationTicks": 96,
          "midi": 41,
          "name": "F2",
          "ticks": 100992,
          "time": 83.05250699999999,
          "velocity": 0.33858267716535434
        },
        {
          "duration": 0.0789472499999988,
          "durationTicks": 96,
          "midi": 46,
          "name": "A#2",
          "ticks": 100992,
          "time": 83.05250699999999,
          "velocity": 0.4015748031496063
        },
        {
          "duration": 0.0789472499999988,
          "durationTicks": 96,
          "midi": 46,
          "name": "A#2",
          "ticks": 100992,
          "time": 83.05250699999999,
          "velocity": 0.4015748031496063
        },
        {
          "duration": 0.0789472499999988,
          "durationTicks": 96,
          "midi": 48,
          "name": "C3",
          "ticks": 101376,
          "time": 83.368296,
          "velocity": 0.6771653543307087
        },
        {
          "duration": 0.0789472499999988,
          "durationTicks": 96,
          "midi": 48,
          "name": "C3",
          "ticks": 101376,
          "time": 83.368296,
          "velocity": 0.6771653543307087
        },
        {
          "duration": 0.0789472499999988,
          "durationTicks": 96,
          "midi": 48,
          "name": "C3",
          "ticks": 101760,
          "time": 83.684085,
          "velocity": 0.4015748031496063
        },
        {
          "duration": 0.0789472499999988,
          "durationTicks": 96,
          "midi": 44,
          "name": "G#2",
          "ticks": 101760,
          "time": 83.684085,
          "velocity": 0.33858267716535434
        },
        {
          "duration": 0.0789472499999988,
          "durationTicks": 96,
          "midi": 48,
          "name": "C3",
          "ticks": 101760,
          "time": 83.684085,
          "velocity": 0.4015748031496063
        },
        {
          "duration": 0.0789472499999988,
          "durationTicks": 96,
          "midi": 48,
          "name": "C3",
          "ticks": 102144,
          "time": 83.99987399999999,
          "velocity": 0.6771653543307087
        },
        {
          "duration": 0.0789472499999988,
          "durationTicks": 96,
          "midi": 48,
          "name": "C3",
          "ticks": 102144,
          "time": 83.99987399999999,
          "velocity": 0.6771653543307087
        },
        {
          "duration": 0.0789472499999988,
          "durationTicks": 96,
          "midi": 44,
          "name": "G#2",
          "ticks": 102528,
          "time": 84.315663,
          "velocity": 0.33858267716535434
        },
        {
          "duration": 0.0789472499999988,
          "durationTicks": 96,
          "midi": 48,
          "name": "C3",
          "ticks": 102528,
          "time": 84.315663,
          "velocity": 0.4015748031496063
        },
        {
          "duration": 0.0789472499999988,
          "durationTicks": 96,
          "midi": 48,
          "name": "C3",
          "ticks": 102528,
          "time": 84.315663,
          "velocity": 0.4015748031496063
        },
        {
          "duration": 0.0789472499999988,
          "durationTicks": 96,
          "midi": 48,
          "name": "C3",
          "ticks": 102912,
          "time": 84.631452,
          "velocity": 0.6771653543307087
        },
        {
          "duration": 0.0789472499999988,
          "durationTicks": 96,
          "midi": 48,
          "name": "C3",
          "ticks": 102912,
          "time": 84.631452,
          "velocity": 0.6771653543307087
        },
        {
          "duration": 0.0789472499999988,
          "durationTicks": 96,
          "midi": 48,
          "name": "C3",
          "ticks": 103296,
          "time": 84.94724099999999,
          "velocity": 0.4015748031496063
        },
        {
          "duration": 0.0789472499999988,
          "durationTicks": 96,
          "midi": 44,
          "name": "G#2",
          "ticks": 103296,
          "time": 84.94724099999999,
          "velocity": 0.33858267716535434
        },
        {
          "duration": 0.0789472499999988,
          "durationTicks": 96,
          "midi": 48,
          "name": "C3",
          "ticks": 103296,
          "time": 84.94724099999999,
          "velocity": 0.4015748031496063
        },
        {
          "duration": 0.0789472499999988,
          "durationTicks": 96,
          "midi": 48,
          "name": "C3",
          "ticks": 103680,
          "time": 85.26303,
          "velocity": 0.6771653543307087
        },
        {
          "duration": 0.0789472499999988,
          "durationTicks": 96,
          "midi": 48,
          "name": "C3",
          "ticks": 103680,
          "time": 85.26303,
          "velocity": 0.6771653543307087
        },
        {
          "duration": 0.0789472499999988,
          "durationTicks": 96,
          "midi": 44,
          "name": "G#2",
          "ticks": 104064,
          "time": 85.578819,
          "velocity": 0.33858267716535434
        },
        {
          "duration": 0.0789472499999988,
          "durationTicks": 96,
          "midi": 48,
          "name": "C3",
          "ticks": 104064,
          "time": 85.578819,
          "velocity": 0.4015748031496063
        },
        {
          "duration": 0.0789472499999988,
          "durationTicks": 96,
          "midi": 48,
          "name": "C3",
          "ticks": 104064,
          "time": 85.578819,
          "velocity": 0.4015748031496063
        },
        {
          "duration": 0.0789472499999988,
          "durationTicks": 96,
          "midi": 49,
          "name": "C#3",
          "ticks": 104448,
          "time": 85.89460799999999,
          "velocity": 0.6771653543307087
        },
        {
          "duration": 0.0789472499999988,
          "durationTicks": 96,
          "midi": 49,
          "name": "C#3",
          "ticks": 104448,
          "time": 85.89460799999999,
          "velocity": 0.6771653543307087
        },
        {
          "duration": 0.0789472499999988,
          "durationTicks": 96,
          "midi": 44,
          "name": "G#2",
          "ticks": 104832,
          "time": 86.210397,
          "velocity": 0.33858267716535434
        },
        {
          "duration": 0.0789472499999988,
          "durationTicks": 96,
          "midi": 49,
          "name": "C#3",
          "ticks": 104832,
          "time": 86.210397,
          "velocity": 0.4015748031496063
        },
        {
          "duration": 0.0789472499999988,
          "durationTicks": 96,
          "midi": 49,
          "name": "C#3",
          "ticks": 104832,
          "time": 86.210397,
          "velocity": 0.4015748031496063
        },
        {
          "duration": 0.0789472499999988,
          "durationTicks": 96,
          "midi": 49,
          "name": "C#3",
          "ticks": 105216,
          "time": 86.526186,
          "velocity": 0.6771653543307087
        },
        {
          "duration": 0.0789472499999988,
          "durationTicks": 96,
          "midi": 49,
          "name": "C#3",
          "ticks": 105216,
          "time": 86.526186,
          "velocity": 0.6771653543307087
        },
        {
          "duration": 0.0789472499999988,
          "durationTicks": 96,
          "midi": 49,
          "name": "C#3",
          "ticks": 105600,
          "time": 86.84197499999999,
          "velocity": 0.4015748031496063
        },
        {
          "duration": 0.0789472499999988,
          "durationTicks": 96,
          "midi": 49,
          "name": "C#3",
          "ticks": 105600,
          "time": 86.84197499999999,
          "velocity": 0.4015748031496063
        },
        {
          "duration": 0.0789472499999988,
          "durationTicks": 96,
          "midi": 44,
          "name": "G#2",
          "ticks": 105600,
          "time": 86.84197499999999,
          "velocity": 0.33858267716535434
        },
        {
          "duration": 0.0789472499999988,
          "durationTicks": 96,
          "midi": 49,
          "name": "C#3",
          "ticks": 105984,
          "time": 87.157764,
          "velocity": 0.6771653543307087
        },
        {
          "duration": 0.0789472499999988,
          "durationTicks": 96,
          "midi": 49,
          "name": "C#3",
          "ticks": 105984,
          "time": 87.157764,
          "velocity": 0.6771653543307087
        },
        {
          "duration": 0.0789472499999988,
          "durationTicks": 96,
          "midi": 49,
          "name": "C#3",
          "ticks": 106368,
          "time": 87.473553,
          "velocity": 0.4015748031496063
        },
        {
          "duration": 0.0789472499999988,
          "durationTicks": 96,
          "midi": 44,
          "name": "G#2",
          "ticks": 106368,
          "time": 87.473553,
          "velocity": 0.33858267716535434
        },
        {
          "duration": 0.0789472499999988,
          "durationTicks": 96,
          "midi": 49,
          "name": "C#3",
          "ticks": 106368,
          "time": 87.473553,
          "velocity": 0.4015748031496063
        },
        {
          "duration": 0.0789472499999988,
          "durationTicks": 96,
          "midi": 49,
          "name": "C#3",
          "ticks": 106752,
          "time": 87.78934199999999,
          "velocity": 0.6771653543307087
        },
        {
          "duration": 0.0789472499999988,
          "durationTicks": 96,
          "midi": 49,
          "name": "C#3",
          "ticks": 106752,
          "time": 87.78934199999999,
          "velocity": 0.6771653543307087
        },
        {
          "duration": 0.0789472499999988,
          "durationTicks": 96,
          "midi": 49,
          "name": "C#3",
          "ticks": 107136,
          "time": 88.105131,
          "velocity": 0.4015748031496063
        },
        {
          "duration": 0.0789472499999988,
          "durationTicks": 96,
          "midi": 49,
          "name": "C#3",
          "ticks": 107136,
          "time": 88.105131,
          "velocity": 0.4015748031496063
        },
        {
          "duration": 0.0789472499999988,
          "durationTicks": 96,
          "midi": 44,
          "name": "G#2",
          "ticks": 107136,
          "time": 88.105131,
          "velocity": 0.33858267716535434
        },
        {
          "duration": 0.0789472499999988,
          "durationTicks": 96,
          "midi": 49,
          "name": "C#3",
          "ticks": 107520,
          "time": 88.42092,
          "velocity": 0.6771653543307087
        },
        {
          "duration": 0.0789472499999988,
          "durationTicks": 96,
          "midi": 49,
          "name": "C#3",
          "ticks": 107520,
          "time": 88.42092,
          "velocity": 0.6771653543307087
        },
        {
          "duration": 0.0789472499999988,
          "durationTicks": 96,
          "midi": 44,
          "name": "G#2",
          "ticks": 107904,
          "time": 88.73670899999999,
          "velocity": 0.33858267716535434
        },
        {
          "duration": 0.0789472499999988,
          "durationTicks": 96,
          "midi": 49,
          "name": "C#3",
          "ticks": 107904,
          "time": 88.73670899999999,
          "velocity": 0.4015748031496063
        },
        {
          "duration": 0.0789472499999988,
          "durationTicks": 96,
          "midi": 49,
          "name": "C#3",
          "ticks": 107904,
          "time": 88.73670899999999,
          "velocity": 0.4015748031496063
        },
        {
          "duration": 0.0789472499999988,
          "durationTicks": 96,
          "midi": 49,
          "name": "C#3",
          "ticks": 108288,
          "time": 89.052498,
          "velocity": 0.6771653543307087
        },
        {
          "duration": 0.0789472499999988,
          "durationTicks": 96,
          "midi": 49,
          "name": "C#3",
          "ticks": 108288,
          "time": 89.052498,
          "velocity": 0.6771653543307087
        },
        {
          "duration": 0.0789472499999988,
          "durationTicks": 96,
          "midi": 49,
          "name": "C#3",
          "ticks": 108672,
          "time": 89.368287,
          "velocity": 0.4015748031496063
        },
        {
          "duration": 0.0789472499999988,
          "durationTicks": 96,
          "midi": 49,
          "name": "C#3",
          "ticks": 108672,
          "time": 89.368287,
          "velocity": 0.4015748031496063
        },
        {
          "duration": 0.0789472499999988,
          "durationTicks": 96,
          "midi": 44,
          "name": "G#2",
          "ticks": 108672,
          "time": 89.368287,
          "velocity": 0.33858267716535434
        },
        {
          "duration": 0.0789472499999988,
          "durationTicks": 96,
          "midi": 48,
          "name": "C3",
          "ticks": 109056,
          "time": 89.68407599999999,
          "velocity": 0.6771653543307087
        },
        {
          "duration": 0.0789472499999988,
          "durationTicks": 96,
          "midi": 48,
          "name": "C3",
          "ticks": 109056,
          "time": 89.68407599999999,
          "velocity": 0.6771653543307087
        },
        {
          "duration": 0.0789472499999988,
          "durationTicks": 96,
          "midi": 43,
          "name": "G2",
          "ticks": 109440,
          "time": 89.999865,
          "velocity": 0.33858267716535434
        },
        {
          "duration": 0.0789472499999988,
          "durationTicks": 96,
          "midi": 48,
          "name": "C3",
          "ticks": 109440,
          "time": 89.999865,
          "velocity": 0.4015748031496063
        },
        {
          "duration": 0.0789472499999988,
          "durationTicks": 96,
          "midi": 48,
          "name": "C3",
          "ticks": 109440,
          "time": 89.999865,
          "velocity": 0.4015748031496063
        },
        {
          "duration": 0.0789472499999988,
          "durationTicks": 96,
          "midi": 48,
          "name": "C3",
          "ticks": 109824,
          "time": 90.315654,
          "velocity": 0.6771653543307087
        },
        {
          "duration": 0.0789472499999988,
          "durationTicks": 96,
          "midi": 48,
          "name": "C3",
          "ticks": 109824,
          "time": 90.315654,
          "velocity": 0.6771653543307087
        },
        {
          "duration": 0.0789472499999988,
          "durationTicks": 96,
          "midi": 48,
          "name": "C3",
          "ticks": 110208,
          "time": 90.63144299999999,
          "velocity": 0.4015748031496063
        },
        {
          "duration": 0.0789472499999988,
          "durationTicks": 96,
          "midi": 48,
          "name": "C3",
          "ticks": 110208,
          "time": 90.63144299999999,
          "velocity": 0.4015748031496063
        },
        {
          "duration": 0.0789472499999988,
          "durationTicks": 96,
          "midi": 43,
          "name": "G2",
          "ticks": 110208,
          "time": 90.63144299999999,
          "velocity": 0.33858267716535434
        },
        {
          "duration": 0.0789472499999988,
          "durationTicks": 96,
          "midi": 46,
          "name": "A#2",
          "ticks": 110592,
          "time": 90.947232,
          "velocity": 0.6771653543307087
        },
        {
          "duration": 0.0789472499999988,
          "durationTicks": 96,
          "midi": 46,
          "name": "A#2",
          "ticks": 110592,
          "time": 90.947232,
          "velocity": 0.6771653543307087
        },
        {
          "duration": 0.0789472499999988,
          "durationTicks": 96,
          "midi": 41,
          "name": "F2",
          "ticks": 110976,
          "time": 91.263021,
          "velocity": 0.33858267716535434
        },
        {
          "duration": 0.0789472499999988,
          "durationTicks": 96,
          "midi": 46,
          "name": "A#2",
          "ticks": 110976,
          "time": 91.263021,
          "velocity": 0.4015748031496063
        },
        {
          "duration": 0.0789472499999988,
          "durationTicks": 96,
          "midi": 46,
          "name": "A#2",
          "ticks": 110976,
          "time": 91.263021,
          "velocity": 0.4015748031496063
        },
        {
          "duration": 0.07894725000001301,
          "durationTicks": 96,
          "midi": 46,
          "name": "A#2",
          "ticks": 111360,
          "time": 91.57880999999999,
          "velocity": 0.6771653543307087
        },
        {
          "duration": 0.07894725000001301,
          "durationTicks": 96,
          "midi": 46,
          "name": "A#2",
          "ticks": 111360,
          "time": 91.57880999999999,
          "velocity": 0.6771653543307087
        },
        {
          "duration": 0.0789472499999988,
          "durationTicks": 96,
          "midi": 46,
          "name": "A#2",
          "ticks": 111744,
          "time": 91.894599,
          "velocity": 0.4015748031496063
        },
        {
          "duration": 0.0789472499999988,
          "durationTicks": 96,
          "midi": 46,
          "name": "A#2",
          "ticks": 111744,
          "time": 91.894599,
          "velocity": 0.4015748031496063
        },
        {
          "duration": 0.0789472499999988,
          "durationTicks": 96,
          "midi": 41,
          "name": "F2",
          "ticks": 111744,
          "time": 91.894599,
          "velocity": 0.33858267716535434
        },
        {
          "duration": 0.0789472499999988,
          "durationTicks": 96,
          "midi": 46,
          "name": "A#2",
          "ticks": 112128,
          "time": 92.210388,
          "velocity": 0.6771653543307087
        },
        {
          "duration": 0.0789472499999988,
          "durationTicks": 96,
          "midi": 46,
          "name": "A#2",
          "ticks": 112128,
          "time": 92.210388,
          "velocity": 0.6771653543307087
        },
        {
          "duration": 0.07894725000001301,
          "durationTicks": 96,
          "midi": 41,
          "name": "F2",
          "ticks": 112512,
          "time": 92.52617699999999,
          "velocity": 0.33858267716535434
        },
        {
          "duration": 0.07894725000001301,
          "durationTicks": 96,
          "midi": 46,
          "name": "A#2",
          "ticks": 112512,
          "time": 92.52617699999999,
          "velocity": 0.4015748031496063
        },
        {
          "duration": 0.07894725000001301,
          "durationTicks": 96,
          "midi": 46,
          "name": "A#2",
          "ticks": 112512,
          "time": 92.52617699999999,
          "velocity": 0.4015748031496063
        },
        {
          "duration": 0.0789472499999988,
          "durationTicks": 96,
          "midi": 46,
          "name": "A#2",
          "ticks": 112896,
          "time": 92.841966,
          "velocity": 0.6771653543307087
        },
        {
          "duration": 0.0789472499999988,
          "durationTicks": 96,
          "midi": 46,
          "name": "A#2",
          "ticks": 112896,
          "time": 92.841966,
          "velocity": 0.6771653543307087
        },
        {
          "duration": 0.0789472499999988,
          "durationTicks": 96,
          "midi": 46,
          "name": "A#2",
          "ticks": 113280,
          "time": 93.157755,
          "velocity": 0.4015748031496063
        },
        {
          "duration": 0.0789472499999988,
          "durationTicks": 96,
          "midi": 41,
          "name": "F2",
          "ticks": 113280,
          "time": 93.157755,
          "velocity": 0.33858267716535434
        },
        {
          "duration": 0.0789472499999988,
          "durationTicks": 96,
          "midi": 46,
          "name": "A#2",
          "ticks": 113280,
          "time": 93.157755,
          "velocity": 0.4015748031496063
        },
        {
          "duration": 0.07894725000001301,
          "durationTicks": 96,
          "midi": 48,
          "name": "C3",
          "ticks": 113664,
          "time": 93.47354399999999,
          "velocity": 0.6771653543307087
        },
        {
          "duration": 0.07894725000001301,
          "durationTicks": 96,
          "midi": 48,
          "name": "C3",
          "ticks": 113664,
          "time": 93.47354399999999,
          "velocity": 0.6771653543307087
        },
        {
          "duration": 0.0789472499999988,
          "durationTicks": 96,
          "midi": 48,
          "name": "C3",
          "ticks": 114048,
          "time": 93.789333,
          "velocity": 0.4015748031496063
        },
        {
          "duration": 0.0789472499999988,
          "durationTicks": 96,
          "midi": 48,
          "name": "C3",
          "ticks": 114048,
          "time": 93.789333,
          "velocity": 0.4015748031496063
        },
        {
          "duration": 0.0789472499999988,
          "durationTicks": 96,
          "midi": 44,
          "name": "G#2",
          "ticks": 114048,
          "time": 93.789333,
          "velocity": 0.33858267716535434
        },
        {
          "duration": 0.0789472499999988,
          "durationTicks": 96,
          "midi": 48,
          "name": "C3",
          "ticks": 114432,
          "time": 94.105122,
          "velocity": 0.6771653543307087
        },
        {
          "duration": 0.0789472499999988,
          "durationTicks": 96,
          "midi": 48,
          "name": "C3",
          "ticks": 114432,
          "time": 94.105122,
          "velocity": 0.6771653543307087
        },
        {
          "duration": 0.07894725000001301,
          "durationTicks": 96,
          "midi": 44,
          "name": "G#2",
          "ticks": 114816,
          "time": 94.42091099999999,
          "velocity": 0.33858267716535434
        },
        {
          "duration": 0.07894725000001301,
          "durationTicks": 96,
          "midi": 48,
          "name": "C3",
          "ticks": 114816,
          "time": 94.42091099999999,
          "velocity": 0.4015748031496063
        },
        {
          "duration": 0.07894725000001301,
          "durationTicks": 96,
          "midi": 48,
          "name": "C3",
          "ticks": 114816,
          "time": 94.42091099999999,
          "velocity": 0.4015748031496063
        },
        {
          "duration": 0.0789472499999988,
          "durationTicks": 96,
          "midi": 48,
          "name": "C3",
          "ticks": 115200,
          "time": 94.7367,
          "velocity": 0.6771653543307087
        },
        {
          "duration": 0.0789472499999988,
          "durationTicks": 96,
          "midi": 48,
          "name": "C3",
          "ticks": 115200,
          "time": 94.7367,
          "velocity": 0.6771653543307087
        },
        {
          "duration": 0.0789472499999988,
          "durationTicks": 96,
          "midi": 48,
          "name": "C3",
          "ticks": 115584,
          "time": 95.052489,
          "velocity": 0.4015748031496063
        },
        {
          "duration": 0.0789472499999988,
          "durationTicks": 96,
          "midi": 44,
          "name": "G#2",
          "ticks": 115584,
          "time": 95.052489,
          "velocity": 0.33858267716535434
        },
        {
          "duration": 0.0789472499999988,
          "durationTicks": 96,
          "midi": 48,
          "name": "C3",
          "ticks": 115584,
          "time": 95.052489,
          "velocity": 0.4015748031496063
        },
        {
          "duration": 0.07894725000001301,
          "durationTicks": 96,
          "midi": 48,
          "name": "C3",
          "ticks": 115968,
          "time": 95.36827799999999,
          "velocity": 0.6771653543307087
        },
        {
          "duration": 0.07894725000001301,
          "durationTicks": 96,
          "midi": 48,
          "name": "C3",
          "ticks": 115968,
          "time": 95.36827799999999,
          "velocity": 0.6771653543307087
        },
        {
          "duration": 0.0789472499999988,
          "durationTicks": 96,
          "midi": 48,
          "name": "C3",
          "ticks": 116352,
          "time": 95.684067,
          "velocity": 0.4015748031496063
        },
        {
          "duration": 0.0789472499999988,
          "durationTicks": 96,
          "midi": 48,
          "name": "C3",
          "ticks": 116352,
          "time": 95.684067,
          "velocity": 0.4015748031496063
        },
        {
          "duration": 0.0789472499999988,
          "durationTicks": 96,
          "midi": 44,
          "name": "G#2",
          "ticks": 116352,
          "time": 95.684067,
          "velocity": 0.33858267716535434
        },
        {
          "duration": 0.0789472499999988,
          "durationTicks": 96,
          "midi": 49,
          "name": "C#3",
          "ticks": 116736,
          "time": 95.999856,
          "velocity": 0.6771653543307087
        },
        {
          "duration": 0.0789472499999988,
          "durationTicks": 96,
          "midi": 49,
          "name": "C#3",
          "ticks": 116736,
          "time": 95.999856,
          "velocity": 0.6771653543307087
        },
        {
          "duration": 0.07894725000001301,
          "durationTicks": 96,
          "midi": 49,
          "name": "C#3",
          "ticks": 117120,
          "time": 96.31564499999999,
          "velocity": 0.4015748031496063
        },
        {
          "duration": 0.07894725000001301,
          "durationTicks": 96,
          "midi": 44,
          "name": "G#2",
          "ticks": 117120,
          "time": 96.31564499999999,
          "velocity": 0.33858267716535434
        },
        {
          "duration": 0.07894725000001301,
          "durationTicks": 96,
          "midi": 49,
          "name": "C#3",
          "ticks": 117120,
          "time": 96.31564499999999,
          "velocity": 0.4015748031496063
        },
        {
          "duration": 0.0789472499999988,
          "durationTicks": 96,
          "midi": 49,
          "name": "C#3",
          "ticks": 117504,
          "time": 96.631434,
          "velocity": 0.6771653543307087
        },
        {
          "duration": 0.0789472499999988,
          "durationTicks": 96,
          "midi": 49,
          "name": "C#3",
          "ticks": 117504,
          "time": 96.631434,
          "velocity": 0.6771653543307087
        },
        {
          "duration": 0.0789472499999988,
          "durationTicks": 96,
          "midi": 44,
          "name": "G#2",
          "ticks": 117888,
          "time": 96.947223,
          "velocity": 0.33858267716535434
        },
        {
          "duration": 0.0789472499999988,
          "durationTicks": 96,
          "midi": 49,
          "name": "C#3",
          "ticks": 117888,
          "time": 96.947223,
          "velocity": 0.4015748031496063
        },
        {
          "duration": 0.0789472499999988,
          "durationTicks": 96,
          "midi": 49,
          "name": "C#3",
          "ticks": 117888,
          "time": 96.947223,
          "velocity": 0.4015748031496063
        },
        {
          "duration": 0.07894725000001301,
          "durationTicks": 96,
          "midi": 49,
          "name": "C#3",
          "ticks": 118272,
          "time": 97.26301199999999,
          "velocity": 0.6771653543307087
        },
        {
          "duration": 0.07894725000001301,
          "durationTicks": 96,
          "midi": 49,
          "name": "C#3",
          "ticks": 118272,
          "time": 97.26301199999999,
          "velocity": 0.6771653543307087
        },
        {
          "duration": 0.0789472499999988,
          "durationTicks": 96,
          "midi": 44,
          "name": "G#2",
          "ticks": 118656,
          "time": 97.578801,
          "velocity": 0.33858267716535434
        },
        {
          "duration": 0.0789472499999988,
          "durationTicks": 96,
          "midi": 49,
          "name": "C#3",
          "ticks": 118656,
          "time": 97.578801,
          "velocity": 0.4015748031496063
        },
        {
          "duration": 0.0789472499999988,
          "durationTicks": 96,
          "midi": 49,
          "name": "C#3",
          "ticks": 118656,
          "time": 97.578801,
          "velocity": 0.4015748031496063
        },
        {
          "duration": 0.0789472499999988,
          "durationTicks": 96,
          "midi": 49,
          "name": "C#3",
          "ticks": 119040,
          "time": 97.89459,
          "velocity": 0.6771653543307087
        },
        {
          "duration": 0.0789472499999988,
          "durationTicks": 96,
          "midi": 49,
          "name": "C#3",
          "ticks": 119040,
          "time": 97.89459,
          "velocity": 0.6771653543307087
        },
        {
          "duration": 0.07894725000001301,
          "durationTicks": 96,
          "midi": 49,
          "name": "C#3",
          "ticks": 119424,
          "time": 98.21037899999999,
          "velocity": 0.4015748031496063
        },
        {
          "duration": 0.07894725000001301,
          "durationTicks": 96,
          "midi": 49,
          "name": "C#3",
          "ticks": 119424,
          "time": 98.21037899999999,
          "velocity": 0.4015748031496063
        },
        {
          "duration": 0.07894725000001301,
          "durationTicks": 96,
          "midi": 44,
          "name": "G#2",
          "ticks": 119424,
          "time": 98.21037899999999,
          "velocity": 0.33858267716535434
        },
        {
          "duration": 0.0789472499999988,
          "durationTicks": 96,
          "midi": 49,
          "name": "C#3",
          "ticks": 119808,
          "time": 98.526168,
          "velocity": 0.6771653543307087
        },
        {
          "duration": 0.0789472499999988,
          "durationTicks": 96,
          "midi": 49,
          "name": "C#3",
          "ticks": 119808,
          "time": 98.526168,
          "velocity": 0.6771653543307087
        },
        {
          "duration": 0.0789472499999988,
          "durationTicks": 96,
          "midi": 49,
          "name": "C#3",
          "ticks": 120192,
          "time": 98.841957,
          "velocity": 0.4015748031496063
        },
        {
          "duration": 0.0789472499999988,
          "durationTicks": 96,
          "midi": 44,
          "name": "G#2",
          "ticks": 120192,
          "time": 98.841957,
          "velocity": 0.33858267716535434
        },
        {
          "duration": 0.0789472499999988,
          "durationTicks": 96,
          "midi": 49,
          "name": "C#3",
          "ticks": 120192,
          "time": 98.841957,
          "velocity": 0.4015748031496063
        },
        {
          "duration": 0.07894725000001301,
          "durationTicks": 96,
          "midi": 49,
          "name": "C#3",
          "ticks": 120576,
          "time": 99.15774599999999,
          "velocity": 0.6771653543307087
        },
        {
          "duration": 0.07894725000001301,
          "durationTicks": 96,
          "midi": 49,
          "name": "C#3",
          "ticks": 120576,
          "time": 99.15774599999999,
          "velocity": 0.6771653543307087
        },
        {
          "duration": 0.0789472499999988,
          "durationTicks": 96,
          "midi": 44,
          "name": "G#2",
          "ticks": 120960,
          "time": 99.473535,
          "velocity": 0.33858267716535434
        },
        {
          "duration": 0.0789472499999988,
          "durationTicks": 96,
          "midi": 49,
          "name": "C#3",
          "ticks": 120960,
          "time": 99.473535,
          "velocity": 0.4015748031496063
        },
        {
          "duration": 0.0789472499999988,
          "durationTicks": 96,
          "midi": 49,
          "name": "C#3",
          "ticks": 120960,
          "time": 99.473535,
          "velocity": 0.4015748031496063
        },
        {
          "duration": 0.0789472499999988,
          "durationTicks": 96,
          "midi": 48,
          "name": "C3",
          "ticks": 121344,
          "time": 99.789324,
          "velocity": 0.6771653543307087
        },
        {
          "duration": 0.0789472499999988,
          "durationTicks": 96,
          "midi": 48,
          "name": "C3",
          "ticks": 121344,
          "time": 99.789324,
          "velocity": 0.6771653543307087
        },
        {
          "duration": 0.07894725000001301,
          "durationTicks": 96,
          "midi": 48,
          "name": "C3",
          "ticks": 121728,
          "time": 100.10511299999999,
          "velocity": 0.4015748031496063
        },
        {
          "duration": 0.07894725000001301,
          "durationTicks": 96,
          "midi": 48,
          "name": "C3",
          "ticks": 121728,
          "time": 100.10511299999999,
          "velocity": 0.4015748031496063
        },
        {
          "duration": 0.07894725000001301,
          "durationTicks": 96,
          "midi": 43,
          "name": "G2",
          "ticks": 121728,
          "time": 100.10511299999999,
          "velocity": 0.33858267716535434
        },
        {
          "duration": 0.0789472499999988,
          "durationTicks": 96,
          "midi": 48,
          "name": "C3",
          "ticks": 122112,
          "time": 100.420902,
          "velocity": 0.6771653543307087
        },
        {
          "duration": 0.0789472499999988,
          "durationTicks": 96,
          "midi": 48,
          "name": "C3",
          "ticks": 122112,
          "time": 100.420902,
          "velocity": 0.6771653543307087
        },
        {
          "duration": 0.0789472499999988,
          "durationTicks": 96,
          "midi": 48,
          "name": "C3",
          "ticks": 122496,
          "time": 100.736691,
          "velocity": 0.4015748031496063
        },
        {
          "duration": 0.0789472499999988,
          "durationTicks": 96,
          "midi": 48,
          "name": "C3",
          "ticks": 122496,
          "time": 100.736691,
          "velocity": 0.4015748031496063
        },
        {
          "duration": 0.0789472499999988,
          "durationTicks": 96,
          "midi": 43,
          "name": "G2",
          "ticks": 122496,
          "time": 100.736691,
          "velocity": 0.33858267716535434
        },
        {
          "duration": 0.0789472499999988,
          "durationTicks": 96,
          "midi": 46,
          "name": "A#2",
          "ticks": 122880,
          "time": 101.05248,
          "velocity": 0.6771653543307087
        },
        {
          "duration": 0.0789472499999988,
          "durationTicks": 96,
          "midi": 46,
          "name": "A#2",
          "ticks": 122880,
          "time": 101.05248,
          "velocity": 0.6771653543307087
        },
        {
          "duration": 0.0789472499999988,
          "durationTicks": 96,
          "midi": 46,
          "name": "A#2",
          "ticks": 123264,
          "time": 101.368269,
          "velocity": 0.4015748031496063
        },
        {
          "duration": 0.0789472499999988,
          "durationTicks": 96,
          "midi": 41,
          "name": "F2",
          "ticks": 123264,
          "time": 101.368269,
          "velocity": 0.33858267716535434
        },
        {
          "duration": 0.0789472499999988,
          "durationTicks": 96,
          "midi": 46,
          "name": "A#2",
          "ticks": 123264,
          "time": 101.368269,
          "velocity": 0.4015748031496063
        },
        {
          "duration": 0.0789472499999988,
          "durationTicks": 96,
          "midi": 46,
          "name": "A#2",
          "ticks": 123648,
          "time": 101.684058,
          "velocity": 0.6771653543307087
        },
        {
          "duration": 0.0789472499999988,
          "durationTicks": 96,
          "midi": 46,
          "name": "A#2",
          "ticks": 123648,
          "time": 101.684058,
          "velocity": 0.6771653543307087
        },
        {
          "duration": 0.0789472499999988,
          "durationTicks": 96,
          "midi": 46,
          "name": "A#2",
          "ticks": 124032,
          "time": 101.999847,
          "velocity": 0.4015748031496063
        },
        {
          "duration": 0.0789472499999988,
          "durationTicks": 96,
          "midi": 41,
          "name": "F2",
          "ticks": 124032,
          "time": 101.999847,
          "velocity": 0.33858267716535434
        },
        {
          "duration": 0.0789472499999988,
          "durationTicks": 96,
          "midi": 46,
          "name": "A#2",
          "ticks": 124032,
          "time": 101.999847,
          "velocity": 0.4015748031496063
        },
        {
          "duration": 0.0789472499999988,
          "durationTicks": 96,
          "midi": 46,
          "name": "A#2",
          "ticks": 124416,
          "time": 102.315636,
          "velocity": 0.6771653543307087
        },
        {
          "duration": 0.0789472499999988,
          "durationTicks": 96,
          "midi": 46,
          "name": "A#2",
          "ticks": 124416,
          "time": 102.315636,
          "velocity": 0.6771653543307087
        },
        {
          "duration": 0.0789472499999988,
          "durationTicks": 96,
          "midi": 41,
          "name": "F2",
          "ticks": 124800,
          "time": 102.631425,
          "velocity": 0.33858267716535434
        },
        {
          "duration": 0.0789472499999988,
          "durationTicks": 96,
          "midi": 46,
          "name": "A#2",
          "ticks": 124800,
          "time": 102.631425,
          "velocity": 0.4015748031496063
        },
        {
          "duration": 0.0789472499999988,
          "durationTicks": 96,
          "midi": 46,
          "name": "A#2",
          "ticks": 124800,
          "time": 102.631425,
          "velocity": 0.4015748031496063
        },
        {
          "duration": 0.0789472499999988,
          "durationTicks": 96,
          "midi": 46,
          "name": "A#2",
          "ticks": 125184,
          "time": 102.947214,
          "velocity": 0.6771653543307087
        },
        {
          "duration": 0.0789472499999988,
          "durationTicks": 96,
          "midi": 46,
          "name": "A#2",
          "ticks": 125184,
          "time": 102.947214,
          "velocity": 0.6771653543307087
        },
        {
          "duration": 0.0789472499999988,
          "durationTicks": 96,
          "midi": 46,
          "name": "A#2",
          "ticks": 125568,
          "time": 103.263003,
          "velocity": 0.4015748031496063
        },
        {
          "duration": 0.0789472499999988,
          "durationTicks": 96,
          "midi": 46,
          "name": "A#2",
          "ticks": 125568,
          "time": 103.263003,
          "velocity": 0.4015748031496063
        },
        {
          "duration": 0.0789472499999988,
          "durationTicks": 96,
          "midi": 41,
          "name": "F2",
          "ticks": 125568,
          "time": 103.263003,
          "velocity": 0.33858267716535434
        },
        {
          "duration": 0.0789472499999988,
          "durationTicks": 96,
          "midi": 48,
          "name": "C3",
          "ticks": 125952,
          "time": 103.57879199999999,
          "velocity": 0.6771653543307087
        },
        {
          "duration": 0.0789472499999988,
          "durationTicks": 96,
          "midi": 48,
          "name": "C3",
          "ticks": 125952,
          "time": 103.57879199999999,
          "velocity": 0.6771653543307087
        },
        {
          "duration": 0.0789472499999988,
          "durationTicks": 96,
          "midi": 44,
          "name": "G#2",
          "ticks": 126336,
          "time": 103.894581,
          "velocity": 0.33858267716535434
        },
        {
          "duration": 0.0789472499999988,
          "durationTicks": 96,
          "midi": 48,
          "name": "C3",
          "ticks": 126336,
          "time": 103.894581,
          "velocity": 0.4015748031496063
        },
        {
          "duration": 0.0789472499999988,
          "durationTicks": 96,
          "midi": 48,
          "name": "C3",
          "ticks": 126336,
          "time": 103.894581,
          "velocity": 0.4015748031496063
        },
        {
          "duration": 0.0789472499999988,
          "durationTicks": 96,
          "midi": 48,
          "name": "C3",
          "ticks": 126720,
          "time": 104.21037,
          "velocity": 0.6771653543307087
        },
        {
          "duration": 0.0789472499999988,
          "durationTicks": 96,
          "midi": 48,
          "name": "C3",
          "ticks": 126720,
          "time": 104.21037,
          "velocity": 0.6771653543307087
        },
        {
          "duration": 0.0789472499999988,
          "durationTicks": 96,
          "midi": 48,
          "name": "C3",
          "ticks": 127104,
          "time": 104.52615899999999,
          "velocity": 0.4015748031496063
        },
        {
          "duration": 0.0789472499999988,
          "durationTicks": 96,
          "midi": 48,
          "name": "C3",
          "ticks": 127104,
          "time": 104.52615899999999,
          "velocity": 0.4015748031496063
        },
        {
          "duration": 0.0789472499999988,
          "durationTicks": 96,
          "midi": 44,
          "name": "G#2",
          "ticks": 127104,
          "time": 104.52615899999999,
          "velocity": 0.33858267716535434
        },
        {
          "duration": 0.0789472499999988,
          "durationTicks": 96,
          "midi": 48,
          "name": "C3",
          "ticks": 127488,
          "time": 104.841948,
          "velocity": 0.6771653543307087
        },
        {
          "duration": 0.0789472499999988,
          "durationTicks": 96,
          "midi": 48,
          "name": "C3",
          "ticks": 127488,
          "time": 104.841948,
          "velocity": 0.6771653543307087
        },
        {
          "duration": 0.0789472499999988,
          "durationTicks": 96,
          "midi": 48,
          "name": "C3",
          "ticks": 127872,
          "time": 105.157737,
          "velocity": 0.4015748031496063
        },
        {
          "duration": 0.0789472499999988,
          "durationTicks": 96,
          "midi": 44,
          "name": "G#2",
          "ticks": 127872,
          "time": 105.157737,
          "velocity": 0.33858267716535434
        },
        {
          "duration": 0.0789472499999988,
          "durationTicks": 96,
          "midi": 48,
          "name": "C3",
          "ticks": 127872,
          "time": 105.157737,
          "velocity": 0.4015748031496063
        },
        {
          "duration": 0.0789472499999988,
          "durationTicks": 96,
          "midi": 48,
          "name": "C3",
          "ticks": 128256,
          "time": 105.47352599999999,
          "velocity": 0.6771653543307087
        },
        {
          "duration": 0.0789472499999988,
          "durationTicks": 96,
          "midi": 48,
          "name": "C3",
          "ticks": 128256,
          "time": 105.47352599999999,
          "velocity": 0.6771653543307087
        },
        {
          "duration": 0.0789472499999988,
          "durationTicks": 96,
          "midi": 48,
          "name": "C3",
          "ticks": 128640,
          "time": 105.789315,
          "velocity": 0.4015748031496063
        },
        {
          "duration": 0.0789472499999988,
          "durationTicks": 96,
          "midi": 44,
          "name": "G#2",
          "ticks": 128640,
          "time": 105.789315,
          "velocity": 0.33858267716535434
        },
        {
          "duration": 0.0789472499999988,
          "durationTicks": 96,
          "midi": 48,
          "name": "C3",
          "ticks": 128640,
          "time": 105.789315,
          "velocity": 0.4015748031496063
        },
        {
          "duration": 0.0789472499999988,
          "durationTicks": 96,
          "midi": 49,
          "name": "C#3",
          "ticks": 129024,
          "time": 106.105104,
          "velocity": 0.6771653543307087
        },
        {
          "duration": 0.0789472499999988,
          "durationTicks": 96,
          "midi": 49,
          "name": "C#3",
          "ticks": 129024,
          "time": 106.105104,
          "velocity": 0.6771653543307087
        },
        {
          "duration": 0.0789472499999988,
          "durationTicks": 96,
          "midi": 44,
          "name": "G#2",
          "ticks": 129408,
          "time": 106.42089299999999,
          "velocity": 0.33858267716535434
        },
        {
          "duration": 0.0789472499999988,
          "durationTicks": 96,
          "midi": 49,
          "name": "C#3",
          "ticks": 129408,
          "time": 106.42089299999999,
          "velocity": 0.4015748031496063
        },
        {
          "duration": 0.0789472499999988,
          "durationTicks": 96,
          "midi": 49,
          "name": "C#3",
          "ticks": 129408,
          "time": 106.42089299999999,
          "velocity": 0.4015748031496063
        },
        {
          "duration": 0.0789472499999988,
          "durationTicks": 96,
          "midi": 49,
          "name": "C#3",
          "ticks": 129792,
          "time": 106.736682,
          "velocity": 0.6771653543307087
        },
        {
          "duration": 0.0789472499999988,
          "durationTicks": 96,
          "midi": 49,
          "name": "C#3",
          "ticks": 129792,
          "time": 106.736682,
          "velocity": 0.6771653543307087
        },
        {
          "duration": 0.0789472499999988,
          "durationTicks": 96,
          "midi": 44,
          "name": "G#2",
          "ticks": 130176,
          "time": 107.052471,
          "velocity": 0.33858267716535434
        },
        {
          "duration": 0.0789472499999988,
          "durationTicks": 96,
          "midi": 49,
          "name": "C#3",
          "ticks": 130176,
          "time": 107.052471,
          "velocity": 0.4015748031496063
        },
        {
          "duration": 0.0789472499999988,
          "durationTicks": 96,
          "midi": 49,
          "name": "C#3",
          "ticks": 130176,
          "time": 107.052471,
          "velocity": 0.4015748031496063
        },
        {
          "duration": 0.0789472499999988,
          "durationTicks": 96,
          "midi": 49,
          "name": "C#3",
          "ticks": 130560,
          "time": 107.36825999999999,
          "velocity": 0.6771653543307087
        },
        {
          "duration": 0.0789472499999988,
          "durationTicks": 96,
          "midi": 49,
          "name": "C#3",
          "ticks": 130560,
          "time": 107.36825999999999,
          "velocity": 0.6771653543307087
        },
        {
          "duration": 0.0789472499999988,
          "durationTicks": 96,
          "midi": 49,
          "name": "C#3",
          "ticks": 130944,
          "time": 107.684049,
          "velocity": 0.4015748031496063
        },
        {
          "duration": 0.0789472499999988,
          "durationTicks": 96,
          "midi": 44,
          "name": "G#2",
          "ticks": 130944,
          "time": 107.684049,
          "velocity": 0.33858267716535434
        },
        {
          "duration": 0.0789472499999988,
          "durationTicks": 96,
          "midi": 49,
          "name": "C#3",
          "ticks": 130944,
          "time": 107.684049,
          "velocity": 0.4015748031496063
        },
        {
          "duration": 0.0789472499999988,
          "durationTicks": 96,
          "midi": 49,
          "name": "C#3",
          "ticks": 131328,
          "time": 107.999838,
          "velocity": 0.6771653543307087
        },
        {
          "duration": 0.0789472499999988,
          "durationTicks": 96,
          "midi": 49,
          "name": "C#3",
          "ticks": 131328,
          "time": 107.999838,
          "velocity": 0.6771653543307087
        },
        {
          "duration": 0.0789472499999988,
          "durationTicks": 96,
          "midi": 49,
          "name": "C#3",
          "ticks": 131712,
          "time": 108.31562699999999,
          "velocity": 0.4015748031496063
        },
        {
          "duration": 0.0789472499999988,
          "durationTicks": 96,
          "midi": 44,
          "name": "G#2",
          "ticks": 131712,
          "time": 108.31562699999999,
          "velocity": 0.33858267716535434
        },
        {
          "duration": 0.0789472499999988,
          "durationTicks": 96,
          "midi": 49,
          "name": "C#3",
          "ticks": 131712,
          "time": 108.31562699999999,
          "velocity": 0.4015748031496063
        },
        {
          "duration": 0.0789472499999988,
          "durationTicks": 96,
          "midi": 49,
          "name": "C#3",
          "ticks": 132096,
          "time": 108.631416,
          "velocity": 0.6771653543307087
        },
        {
          "duration": 0.0789472499999988,
          "durationTicks": 96,
          "midi": 49,
          "name": "C#3",
          "ticks": 132096,
          "time": 108.631416,
          "velocity": 0.6771653543307087
        },
        {
          "duration": 0.0789472499999988,
          "durationTicks": 96,
          "midi": 49,
          "name": "C#3",
          "ticks": 132480,
          "time": 108.947205,
          "velocity": 0.4015748031496063
        },
        {
          "duration": 0.0789472499999988,
          "durationTicks": 96,
          "midi": 49,
          "name": "C#3",
          "ticks": 132480,
          "time": 108.947205,
          "velocity": 0.4015748031496063
        },
        {
          "duration": 0.0789472499999988,
          "durationTicks": 96,
          "midi": 44,
          "name": "G#2",
          "ticks": 132480,
          "time": 108.947205,
          "velocity": 0.33858267716535434
        },
        {
          "duration": 0.0789472499999988,
          "durationTicks": 96,
          "midi": 49,
          "name": "C#3",
          "ticks": 132864,
          "time": 109.26299399999999,
          "velocity": 0.6771653543307087
        },
        {
          "duration": 0.0789472499999988,
          "durationTicks": 96,
          "midi": 49,
          "name": "C#3",
          "ticks": 132864,
          "time": 109.26299399999999,
          "velocity": 0.6771653543307087
        },
        {
          "duration": 0.0789472499999988,
          "durationTicks": 96,
          "midi": 49,
          "name": "C#3",
          "ticks": 133248,
          "time": 109.578783,
          "velocity": 0.4015748031496063
        },
        {
          "duration": 0.0789472499999988,
          "durationTicks": 96,
          "midi": 49,
          "name": "C#3",
          "ticks": 133248,
          "time": 109.578783,
          "velocity": 0.4015748031496063
        },
        {
          "duration": 0.0789472499999988,
          "durationTicks": 96,
          "midi": 44,
          "name": "G#2",
          "ticks": 133248,
          "time": 109.578783,
          "velocity": 0.33858267716535434
        },
        {
          "duration": 0.0789472499999988,
          "durationTicks": 96,
          "midi": 48,
          "name": "C3",
          "ticks": 133632,
          "time": 109.894572,
          "velocity": 0.6771653543307087
        },
        {
          "duration": 0.0789472499999988,
          "durationTicks": 96,
          "midi": 48,
          "name": "C3",
          "ticks": 133632,
          "time": 109.894572,
          "velocity": 0.6771653543307087
        },
        {
          "duration": 0.0789472499999988,
          "durationTicks": 96,
          "midi": 48,
          "name": "C3",
          "ticks": 134016,
          "time": 110.21036099999999,
          "velocity": 0.4015748031496063
        },
        {
          "duration": 0.0789472499999988,
          "durationTicks": 96,
          "midi": 43,
          "name": "G2",
          "ticks": 134016,
          "time": 110.21036099999999,
          "velocity": 0.33858267716535434
        },
        {
          "duration": 0.0789472499999988,
          "durationTicks": 96,
          "midi": 48,
          "name": "C3",
          "ticks": 134016,
          "time": 110.21036099999999,
          "velocity": 0.4015748031496063
        },
        {
          "duration": 0.0789472499999988,
          "durationTicks": 96,
          "midi": 48,
          "name": "C3",
          "ticks": 134400,
          "time": 110.52615,
          "velocity": 0.6771653543307087
        },
        {
          "duration": 0.0789472499999988,
          "durationTicks": 96,
          "midi": 48,
          "name": "C3",
          "ticks": 134400,
          "time": 110.52615,
          "velocity": 0.6771653543307087
        },
        {
          "duration": 0.0789472499999988,
          "durationTicks": 96,
          "midi": 43,
          "name": "G2",
          "ticks": 134784,
          "time": 110.841939,
          "velocity": 0.33858267716535434
        },
        {
          "duration": 0.0789472499999988,
          "durationTicks": 96,
          "midi": 48,
          "name": "C3",
          "ticks": 134784,
          "time": 110.841939,
          "velocity": 0.4015748031496063
        },
        {
          "duration": 0.0789472499999988,
          "durationTicks": 96,
          "midi": 48,
          "name": "C3",
          "ticks": 134784,
          "time": 110.841939,
          "velocity": 0.4015748031496063
        }
      ],
      "endOfTrackTicks": 134880
    },
    {
      "channel": 3,
      "controlChanges": {},
      "pitchBends": [],
      "instrument": {
        "family": "brass",
        "number": 57,
        "name": "trombone"
      },
      "name": "Trombone",
      "notes": [
        {
          "duration": 0.0789472499999988,
          "durationTicks": 96,
          "midi": 46,
          "name": "A#2",
          "ticks": 73728,
          "time": 60.631488,
          "velocity": 0.49606299212598426
        },
        {
          "duration": 0.0789472499999988,
          "durationTicks": 96,
          "midi": 41,
          "name": "F2",
          "ticks": 74112,
          "time": 60.947277,
          "velocity": 0.25984251968503935
        },
        {
          "duration": 0.07894725000000591,
          "durationTicks": 96,
          "midi": 46,
          "name": "A#2",
          "ticks": 74496,
          "time": 61.263065999999995,
          "velocity": 0.3779527559055118
        },
        {
          "duration": 0.0789472499999988,
          "durationTicks": 96,
          "midi": 46,
          "name": "A#2",
          "ticks": 74880,
          "time": 61.578855,
          "velocity": 0.2992125984251969
        },
        {
          "duration": 0.0789472499999988,
          "durationTicks": 96,
          "midi": 41,
          "name": "F2",
          "ticks": 74880,
          "time": 61.578855,
          "velocity": 0.25984251968503935
        },
        {
          "duration": 0.07894725000000591,
          "durationTicks": 96,
          "midi": 41,
          "name": "F2",
          "ticks": 75072,
          "time": 61.736749499999995,
          "velocity": 0.25984251968503935
        },
        {
          "duration": 0.0789472499999988,
          "durationTicks": 96,
          "midi": 46,
          "name": "A#2",
          "ticks": 75264,
          "time": 61.894644,
          "velocity": 0.3779527559055118
        },
        {
          "duration": 0.07894725000000591,
          "durationTicks": 96,
          "midi": 41,
          "name": "F2",
          "ticks": 75648,
          "time": 62.210432999999995,
          "velocity": 0.25984251968503935
        },
        {
          "duration": 0.0789472499999988,
          "durationTicks": 96,
          "midi": 46,
          "name": "A#2",
          "ticks": 76032,
          "time": 62.526222,
          "velocity": 0.3779527559055118
        },
        {
          "duration": 0.0789472499999988,
          "durationTicks": 96,
          "midi": 46,
          "name": "A#2",
          "ticks": 76416,
          "time": 62.842011,
          "velocity": 0.2992125984251969
        },
        {
          "duration": 0.0789472499999988,
          "durationTicks": 96,
          "midi": 41,
          "name": "F2",
          "ticks": 76416,
          "time": 62.842011,
          "velocity": 0.25984251968503935
        },
        {
          "duration": 0.0789472499999988,
          "durationTicks": 96,
          "midi": 41,
          "name": "F2",
          "ticks": 76608,
          "time": 62.9999055,
          "velocity": 0.25984251968503935
        },
        {
          "duration": 0.07894725000000591,
          "durationTicks": 96,
          "midi": 48,
          "name": "C3",
          "ticks": 76800,
          "time": 63.157799999999995,
          "velocity": 0.3779527559055118
        },
        {
          "duration": 0.0789472499999988,
          "durationTicks": 96,
          "midi": 44,
          "name": "G#2",
          "ticks": 77184,
          "time": 63.473589,
          "velocity": 0.25984251968503935
        },
        {
          "duration": 0.0789472499999988,
          "durationTicks": 96,
          "midi": 48,
          "name": "C3",
          "ticks": 77568,
          "time": 63.789378,
          "velocity": 0.3779527559055118
        },
        {
          "duration": 0.0789472499999988,
          "durationTicks": 96,
          "midi": 48,
          "name": "C3",
          "ticks": 77952,
          "time": 64.105167,
          "velocity": 0.2992125984251969
        },
        {
          "duration": 0.0789472499999988,
          "durationTicks": 96,
          "midi": 44,
          "name": "G#2",
          "ticks": 77952,
          "time": 64.105167,
          "velocity": 0.25984251968503935
        },
        {
          "duration": 0.0789472499999988,
          "durationTicks": 96,
          "midi": 44,
          "name": "G#2",
          "ticks": 78144,
          "time": 64.26306149999999,
          "velocity": 0.25984251968503935
        },
        {
          "duration": 0.0789472499999988,
          "durationTicks": 96,
          "midi": 48,
          "name": "C3",
          "ticks": 78336,
          "time": 64.420956,
          "velocity": 0.3779527559055118
        },
        {
          "duration": 0.0789472499999988,
          "durationTicks": 96,
          "midi": 44,
          "name": "G#2",
          "ticks": 78720,
          "time": 64.736745,
          "velocity": 0.25984251968503935
        },
        {
          "duration": 0.0789472499999988,
          "durationTicks": 96,
          "midi": 48,
          "name": "C3",
          "ticks": 79104,
          "time": 65.052534,
          "velocity": 0.3779527559055118
        },
        {
          "duration": 0.0789472499999988,
          "durationTicks": 96,
          "midi": 48,
          "name": "C3",
          "ticks": 79488,
          "time": 65.368323,
          "velocity": 0.2992125984251969
        },
        {
          "duration": 0.0789472499999988,
          "durationTicks": 96,
          "midi": 44,
          "name": "G#2",
          "ticks": 79488,
          "time": 65.368323,
          "velocity": 0.25984251968503935
        },
        {
          "duration": 0.0789472499999988,
          "durationTicks": 96,
          "midi": 44,
          "name": "G#2",
          "ticks": 79680,
          "time": 65.5262175,
          "velocity": 0.25984251968503935
        },
        {
          "duration": 0.0789472499999988,
          "durationTicks": 96,
          "midi": 49,
          "name": "C#3",
          "ticks": 79872,
          "time": 65.684112,
          "velocity": 0.3779527559055118
        },
        {
          "duration": 0.0789472499999988,
          "durationTicks": 96,
          "midi": 44,
          "name": "G#2",
          "ticks": 80256,
          "time": 65.999901,
          "velocity": 0.25984251968503935
        },
        {
          "duration": 0.0789472499999988,
          "durationTicks": 96,
          "midi": 49,
          "name": "C#3",
          "ticks": 80640,
          "time": 66.31569,
          "velocity": 0.3779527559055118
        },
        {
          "duration": 0.0789472499999988,
          "durationTicks": 96,
          "midi": 44,
          "name": "G#2",
          "ticks": 81024,
          "time": 66.631479,
          "velocity": 0.25984251968503935
        },
        {
          "duration": 0.0789472499999988,
          "durationTicks": 96,
          "midi": 49,
          "name": "C#3",
          "ticks": 81024,
          "time": 66.631479,
          "velocity": 0.2992125984251969
        },
        {
          "duration": 0.0789472499999988,
          "durationTicks": 96,
          "midi": 44,
          "name": "G#2",
          "ticks": 81216,
          "time": 66.7893735,
          "velocity": 0.25984251968503935
        },
        {
          "duration": 0.0789472499999988,
          "durationTicks": 96,
          "midi": 49,
          "name": "C#3",
          "ticks": 81408,
          "time": 66.947268,
          "velocity": 0.3779527559055118
        },
        {
          "duration": 0.0789472499999988,
          "durationTicks": 96,
          "midi": 44,
          "name": "G#2",
          "ticks": 81792,
          "time": 67.263057,
          "velocity": 0.25984251968503935
        },
        {
          "duration": 0.0789472499999988,
          "durationTicks": 96,
          "midi": 49,
          "name": "C#3",
          "ticks": 82176,
          "time": 67.578846,
          "velocity": 0.3779527559055118
        },
        {
          "duration": 0.0789472499999988,
          "durationTicks": 96,
          "midi": 49,
          "name": "C#3",
          "ticks": 82560,
          "time": 67.894635,
          "velocity": 0.2992125984251969
        },
        {
          "duration": 0.0789472499999988,
          "durationTicks": 96,
          "midi": 44,
          "name": "G#2",
          "ticks": 82560,
          "time": 67.894635,
          "velocity": 0.25984251968503935
        },
        {
          "duration": 0.0789472499999988,
          "durationTicks": 96,
          "midi": 44,
          "name": "G#2",
          "ticks": 82752,
          "time": 68.05252949999999,
          "velocity": 0.25984251968503935
        },
        {
          "duration": 0.0789472499999988,
          "durationTicks": 96,
          "midi": 49,
          "name": "C#3",
          "ticks": 82944,
          "time": 68.210424,
          "velocity": 0.3779527559055118
        },
        {
          "duration": 0.0789472499999988,
          "durationTicks": 96,
          "midi": 44,
          "name": "G#2",
          "ticks": 83328,
          "time": 68.526213,
          "velocity": 0.25984251968503935
        },
        {
          "duration": 0.0789472499999988,
          "durationTicks": 96,
          "midi": 49,
          "name": "C#3",
          "ticks": 83712,
          "time": 68.842002,
          "velocity": 0.3779527559055118
        },
        {
          "duration": 0.0789472499999988,
          "durationTicks": 96,
          "midi": 44,
          "name": "G#2",
          "ticks": 84096,
          "time": 69.157791,
          "velocity": 0.25984251968503935
        },
        {
          "duration": 0.0789472499999988,
          "durationTicks": 96,
          "midi": 49,
          "name": "C#3",
          "ticks": 84096,
          "time": 69.157791,
          "velocity": 0.2992125984251969
        },
        {
          "duration": 0.0789472499999988,
          "durationTicks": 96,
          "midi": 44,
          "name": "G#2",
          "ticks": 84288,
          "time": 69.3156855,
          "velocity": 0.25984251968503935
        },
        {
          "duration": 0.0789472499999988,
          "durationTicks": 96,
          "midi": 48,
          "name": "C3",
          "ticks": 84480,
          "time": 69.47358,
          "velocity": 0.3779527559055118
        },
        {
          "duration": 0.0789472499999988,
          "durationTicks": 96,
          "midi": 43,
          "name": "G2",
          "ticks": 84864,
          "time": 69.789369,
          "velocity": 0.25984251968503935
        },
        {
          "duration": 0.0789472499999988,
          "durationTicks": 96,
          "midi": 48,
          "name": "C3",
          "ticks": 85248,
          "time": 70.105158,
          "velocity": 0.3779527559055118
        },
        {
          "duration": 0.0789472499999988,
          "durationTicks": 96,
          "midi": 48,
          "name": "C3",
          "ticks": 85632,
          "time": 70.420947,
          "velocity": 0.2992125984251969
        },
        {
          "duration": 0.0789472499999988,
          "durationTicks": 96,
          "midi": 43,
          "name": "G2",
          "ticks": 85632,
          "time": 70.420947,
          "velocity": 0.25984251968503935
        },
        {
          "duration": 0.0789472499999988,
          "durationTicks": 96,
          "midi": 43,
          "name": "G2",
          "ticks": 85824,
          "time": 70.5788415,
          "velocity": 0.25984251968503935
        },
        {
          "duration": 0.0789472499999988,
          "durationTicks": 96,
          "midi": 46,
          "name": "A#2",
          "ticks": 86016,
          "time": 70.736736,
          "velocity": 0.3779527559055118
        },
        {
          "duration": 0.0789472499999988,
          "durationTicks": 96,
          "midi": 41,
          "name": "F2",
          "ticks": 86400,
          "time": 71.052525,
          "velocity": 0.25984251968503935
        },
        {
          "duration": 0.0789472499999988,
          "durationTicks": 96,
          "midi": 46,
          "name": "A#2",
          "ticks": 86784,
          "time": 71.368314,
          "velocity": 0.3779527559055118
        },
        {
          "duration": 0.0789472499999988,
          "durationTicks": 96,
          "midi": 46,
          "name": "A#2",
          "ticks": 87168,
          "time": 71.684103,
          "velocity": 0.2992125984251969
        },
        {
          "duration": 0.0789472499999988,
          "durationTicks": 96,
          "midi": 41,
          "name": "F2",
          "ticks": 87168,
          "time": 71.684103,
          "velocity": 0.25984251968503935
        },
        {
          "duration": 0.07894725000001301,
          "durationTicks": 96,
          "midi": 41,
          "name": "F2",
          "ticks": 87360,
          "time": 71.84199749999999,
          "velocity": 0.25984251968503935
        },
        {
          "duration": 0.0789472499999988,
          "durationTicks": 96,
          "midi": 46,
          "name": "A#2",
          "ticks": 87552,
          "time": 71.999892,
          "velocity": 0.3779527559055118
        },
        {
          "duration": 0.0789472499999988,
          "durationTicks": 96,
          "midi": 41,
          "name": "F2",
          "ticks": 87936,
          "time": 72.315681,
          "velocity": 0.25984251968503935
        },
        {
          "duration": 0.0789472499999988,
          "durationTicks": 96,
          "midi": 46,
          "name": "A#2",
          "ticks": 88320,
          "time": 72.63147,
          "velocity": 0.3779527559055118
        },
        {
          "duration": 0.0789472499999988,
          "durationTicks": 96,
          "midi": 41,
          "name": "F2",
          "ticks": 88704,
          "time": 72.947259,
          "velocity": 0.25984251968503935
        },
        {
          "duration": 0.0789472499999988,
          "durationTicks": 96,
          "midi": 46,
          "name": "A#2",
          "ticks": 88704,
          "time": 72.947259,
          "velocity": 0.2992125984251969
        },
        {
          "duration": 0.0789472499999988,
          "durationTicks": 96,
          "midi": 41,
          "name": "F2",
          "ticks": 88896,
          "time": 73.1051535,
          "velocity": 0.25984251968503935
        },
        {
          "duration": 0.0789472499999988,
          "durationTicks": 96,
          "midi": 48,
          "name": "C3",
          "ticks": 89088,
          "time": 73.263048,
          "velocity": 0.3779527559055118
        },
        {
          "duration": 0.0789472499999988,
          "durationTicks": 96,
          "midi": 44,
          "name": "G#2",
          "ticks": 89472,
          "time": 73.578837,
          "velocity": 0.25984251968503935
        },
        {
          "duration": 0.0789472499999988,
          "durationTicks": 96,
          "midi": 48,
          "name": "C3",
          "ticks": 89856,
          "time": 73.894626,
          "velocity": 0.3779527559055118
        },
        {
          "duration": 0.0789472499999988,
          "durationTicks": 96,
          "midi": 44,
          "name": "G#2",
          "ticks": 90240,
          "time": 74.210415,
          "velocity": 0.25984251968503935
        },
        {
          "duration": 0.0789472499999988,
          "durationTicks": 96,
          "midi": 48,
          "name": "C3",
          "ticks": 90240,
          "time": 74.210415,
          "velocity": 0.2992125984251969
        },
        {
          "duration": 0.0789472499999988,
          "durationTicks": 96,
          "midi": 44,
          "name": "G#2",
          "ticks": 90432,
          "time": 74.3683095,
          "velocity": 0.25984251968503935
        },
        {
          "duration": 0.0789472499999988,
          "durationTicks": 96,
          "midi": 48,
          "name": "C3",
          "ticks": 90624,
          "time": 74.52620399999999,
          "velocity": 0.3779527559055118
        },
        {
          "duration": 0.0789472499999988,
          "durationTicks": 96,
          "midi": 44,
          "name": "G#2",
          "ticks": 91008,
          "time": 74.841993,
          "velocity": 0.25984251968503935
        },
        {
          "duration": 0.0789472499999988,
          "durationTicks": 96,
          "midi": 48,
          "name": "C3",
          "ticks": 91392,
          "time": 75.157782,
          "velocity": 0.3779527559055118
        },
        {
          "duration": 0.0789472499999988,
          "durationTicks": 96,
          "midi": 44,
          "name": "G#2",
          "ticks": 91776,
          "time": 75.47357099999999,
          "velocity": 0.25984251968503935
        },
        {
          "duration": 0.0789472499999988,
          "durationTicks": 96,
          "midi": 48,
          "name": "C3",
          "ticks": 91776,
          "time": 75.47357099999999,
          "velocity": 0.2992125984251969
        },
        {
          "duration": 0.07894725000001301,
          "durationTicks": 96,
          "midi": 44,
          "name": "G#2",
          "ticks": 91968,
          "time": 75.63146549999999,
          "velocity": 0.25984251968503935
        },
        {
          "duration": 0.0789472499999988,
          "durationTicks": 96,
          "midi": 49,
          "name": "C#3",
          "ticks": 92160,
          "time": 75.78936,
          "velocity": 0.3779527559055118
        },
        {
          "duration": 0.0789472499999988,
          "durationTicks": 96,
          "midi": 44,
          "name": "G#2",
          "ticks": 92544,
          "time": 76.105149,
          "velocity": 0.25984251968503935
        },
        {
          "duration": 0.0789472499999988,
          "durationTicks": 96,
          "midi": 49,
          "name": "C#3",
          "ticks": 92928,
          "time": 76.42093799999999,
          "velocity": 0.3779527559055118
        },
        {
          "duration": 0.0789472499999988,
          "durationTicks": 96,
          "midi": 49,
          "name": "C#3",
          "ticks": 93312,
          "time": 76.736727,
          "velocity": 0.2992125984251969
        },
        {
          "duration": 0.0789472499999988,
          "durationTicks": 96,
          "midi": 44,
          "name": "G#2",
          "ticks": 93312,
          "time": 76.736727,
          "velocity": 0.25984251968503935
        },
        {
          "duration": 0.0789472499999988,
          "durationTicks": 96,
          "midi": 44,
          "name": "G#2",
          "ticks": 93504,
          "time": 76.8946215,
          "velocity": 0.25984251968503935
        },
        {
          "duration": 0.0789472499999988,
          "durationTicks": 96,
          "midi": 49,
          "name": "C#3",
          "ticks": 93696,
          "time": 77.052516,
          "velocity": 0.3779527559055118
        },
        {
          "duration": 0.0789472499999988,
          "durationTicks": 96,
          "midi": 44,
          "name": "G#2",
          "ticks": 94080,
          "time": 77.36830499999999,
          "velocity": 0.25984251968503935
        },
        {
          "duration": 0.0789472499999988,
          "durationTicks": 96,
          "midi": 49,
          "name": "C#3",
          "ticks": 94464,
          "time": 77.684094,
          "velocity": 0.3779527559055118
        },
        {
          "duration": 0.0789472499999988,
          "durationTicks": 96,
          "midi": 44,
          "name": "G#2",
          "ticks": 94848,
          "time": 77.999883,
          "velocity": 0.25984251968503935
        },
        {
          "duration": 0.0789472499999988,
          "durationTicks": 96,
          "midi": 49,
          "name": "C#3",
          "ticks": 94848,
          "time": 77.999883,
          "velocity": 0.2992125984251969
        },
        {
          "duration": 0.0789472499999988,
          "durationTicks": 96,
          "midi": 44,
          "name": "G#2",
          "ticks": 95040,
          "time": 78.1577775,
          "velocity": 0.25984251968503935
        },
        {
          "duration": 0.0789472499999988,
          "durationTicks": 96,
          "midi": 49,
          "name": "C#3",
          "ticks": 95232,
          "time": 78.31567199999999,
          "velocity": 0.3779527559055118
        },
        {
          "duration": 0.0789472499999988,
          "durationTicks": 96,
          "midi": 44,
          "name": "G#2",
          "ticks": 95616,
          "time": 78.631461,
          "velocity": 0.25984251968503935
        },
        {
          "duration": 0.0789472499999988,
          "durationTicks": 96,
          "midi": 49,
          "name": "C#3",
          "ticks": 96000,
          "time": 78.94725,
          "velocity": 0.3779527559055118
        },
        {
          "duration": 0.0789472499999988,
          "durationTicks": 96,
          "midi": 49,
          "name": "C#3",
          "ticks": 96384,
          "time": 79.26303899999999,
          "velocity": 0.2992125984251969
        },
        {
          "duration": 0.0789472499999988,
          "durationTicks": 96,
          "midi": 44,
          "name": "G#2",
          "ticks": 96384,
          "time": 79.26303899999999,
          "velocity": 0.25984251968503935
        },
        {
          "duration": 0.07894725000001301,
          "durationTicks": 96,
          "midi": 44,
          "name": "G#2",
          "ticks": 96576,
          "time": 79.42093349999999,
          "velocity": 0.25984251968503935
        },
        {
          "duration": 0.0789472499999988,
          "durationTicks": 96,
          "midi": 48,
          "name": "C3",
          "ticks": 96768,
          "time": 79.578828,
          "velocity": 0.3779527559055118
        },
        {
          "duration": 0.0789472499999988,
          "durationTicks": 96,
          "midi": 43,
          "name": "G2",
          "ticks": 97152,
          "time": 79.894617,
          "velocity": 0.25984251968503935
        },
        {
          "duration": 0.0789472499999988,
          "durationTicks": 96,
          "midi": 48,
          "name": "C3",
          "ticks": 97536,
          "time": 80.21040599999999,
          "velocity": 0.3779527559055118
        },
        {
          "duration": 0.0789472499999988,
          "durationTicks": 96,
          "midi": 48,
          "name": "C3",
          "ticks": 97920,
          "time": 80.526195,
          "velocity": 0.2992125984251969
        },
        {
          "duration": 0.0789472499999988,
          "durationTicks": 96,
          "midi": 43,
          "name": "G2",
          "ticks": 97920,
          "time": 80.526195,
          "velocity": 0.25984251968503935
        },
        {
          "duration": 0.0789472499999988,
          "durationTicks": 96,
          "midi": 43,
          "name": "G2",
          "ticks": 98112,
          "time": 80.6840895,
          "velocity": 0.25984251968503935
        },
        {
          "duration": 0.0789472499999988,
          "durationTicks": 96,
          "midi": 46,
          "name": "A#2",
          "ticks": 98304,
          "time": 80.841984,
          "velocity": 0.3779527559055118
        },
        {
          "duration": 0.0789472499999988,
          "durationTicks": 96,
          "midi": 41,
          "name": "F2",
          "ticks": 98688,
          "time": 81.15777299999999,
          "velocity": 0.25984251968503935
        },
        {
          "duration": 0.0789472499999988,
          "durationTicks": 96,
          "midi": 46,
          "name": "A#2",
          "ticks": 99072,
          "time": 81.473562,
          "velocity": 0.3779527559055118
        },
        {
          "duration": 0.0789472499999988,
          "durationTicks": 96,
          "midi": 46,
          "name": "A#2",
          "ticks": 99456,
          "time": 81.789351,
          "velocity": 0.2992125984251969
        },
        {
          "duration": 0.0789472499999988,
          "durationTicks": 96,
          "midi": 41,
          "name": "F2",
          "ticks": 99456,
          "time": 81.789351,
          "velocity": 0.25984251968503935
        },
        {
          "duration": 0.0789472499999988,
          "durationTicks": 96,
          "midi": 41,
          "name": "F2",
          "ticks": 99648,
          "time": 81.9472455,
          "velocity": 0.25984251968503935
        },
        {
          "duration": 0.0789472499999988,
          "durationTicks": 96,
          "midi": 46,
          "name": "A#2",
          "ticks": 99840,
          "time": 82.10513999999999,
          "velocity": 0.3779527559055118
        },
        {
          "duration": 0.0789472499999988,
          "durationTicks": 96,
          "midi": 41,
          "name": "F2",
          "ticks": 100224,
          "time": 82.420929,
          "velocity": 0.25984251968503935
        },
        {
          "duration": 0.0789472499999988,
          "durationTicks": 96,
          "midi": 46,
          "name": "A#2",
          "ticks": 100608,
          "time": 82.736718,
          "velocity": 0.3779527559055118
        },
        {
          "duration": 0.0789472499999988,
          "durationTicks": 96,
          "midi": 46,
          "name": "A#2",
          "ticks": 100992,
          "time": 83.05250699999999,
          "velocity": 0.2992125984251969
        },
        {
          "duration": 0.0789472499999988,
          "durationTicks": 96,
          "midi": 41,
          "name": "F2",
          "ticks": 100992,
          "time": 83.05250699999999,
          "velocity": 0.25984251968503935
        },
        {
          "duration": 0.0789472499999988,
          "durationTicks": 96,
          "midi": 41,
          "name": "F2",
          "ticks": 101184,
          "time": 83.2104015,
          "velocity": 0.25984251968503935
        },
        {
          "duration": 0.0789472499999988,
          "durationTicks": 96,
          "midi": 48,
          "name": "C3",
          "ticks": 101376,
          "time": 83.368296,
          "velocity": 0.3779527559055118
        },
        {
          "duration": 0.0789472499999988,
          "durationTicks": 96,
          "midi": 44,
          "name": "G#2",
          "ticks": 101760,
          "time": 83.684085,
          "velocity": 0.25984251968503935
        },
        {
          "duration": 0.0789472499999988,
          "durationTicks": 96,
          "midi": 48,
          "name": "C3",
          "ticks": 102144,
          "time": 83.99987399999999,
          "velocity": 0.3779527559055118
        },
        {
          "duration": 0.0789472499999988,
          "durationTicks": 96,
          "midi": 48,
          "name": "C3",
          "ticks": 102528,
          "time": 84.315663,
          "velocity": 0.2992125984251969
        },
        {
          "duration": 0.0789472499999988,
          "durationTicks": 96,
          "midi": 44,
          "name": "G#2",
          "ticks": 102528,
          "time": 84.315663,
          "velocity": 0.25984251968503935
        },
        {
          "duration": 0.0789472499999988,
          "durationTicks": 96,
          "midi": 44,
          "name": "G#2",
          "ticks": 102720,
          "time": 84.4735575,
          "velocity": 0.25984251968503935
        },
        {
          "duration": 0.0789472499999988,
          "durationTicks": 96,
          "midi": 48,
          "name": "C3",
          "ticks": 102912,
          "time": 84.631452,
          "velocity": 0.3779527559055118
        },
        {
          "duration": 0.0789472499999988,
          "durationTicks": 96,
          "midi": 44,
          "name": "G#2",
          "ticks": 103296,
          "time": 84.94724099999999,
          "velocity": 0.25984251968503935
        },
        {
          "duration": 0.0789472499999988,
          "durationTicks": 96,
          "midi": 48,
          "name": "C3",
          "ticks": 103680,
          "time": 85.26303,
          "velocity": 0.3779527559055118
        },
        {
          "duration": 0.0789472499999988,
          "durationTicks": 96,
          "midi": 44,
          "name": "G#2",
          "ticks": 104064,
          "time": 85.578819,
          "velocity": 0.25984251968503935
        },
        {
          "duration": 0.0789472499999988,
          "durationTicks": 96,
          "midi": 48,
          "name": "C3",
          "ticks": 104064,
          "time": 85.578819,
          "velocity": 0.2992125984251969
        },
        {
          "duration": 0.0789472499999988,
          "durationTicks": 96,
          "midi": 44,
          "name": "G#2",
          "ticks": 104256,
          "time": 85.7367135,
          "velocity": 0.25984251968503935
        },
        {
          "duration": 0.0789472499999988,
          "durationTicks": 96,
          "midi": 49,
          "name": "C#3",
          "ticks": 104448,
          "time": 85.89460799999999,
          "velocity": 0.3779527559055118
        },
        {
          "duration": 0.0789472499999988,
          "durationTicks": 96,
          "midi": 44,
          "name": "G#2",
          "ticks": 104832,
          "time": 86.210397,
          "velocity": 0.25984251968503935
        },
        {
          "duration": 0.0789472499999988,
          "durationTicks": 96,
          "midi": 49,
          "name": "C#3",
          "ticks": 105216,
          "time": 86.526186,
          "velocity": 0.3779527559055118
        },
        {
          "duration": 0.0789472499999988,
          "durationTicks": 96,
          "midi": 49,
          "name": "C#3",
          "ticks": 105600,
          "time": 86.84197499999999,
          "velocity": 0.2992125984251969
        },
        {
          "duration": 0.0789472499999988,
          "durationTicks": 96,
          "midi": 44,
          "name": "G#2",
          "ticks": 105600,
          "time": 86.84197499999999,
          "velocity": 0.25984251968503935
        },
        {
          "duration": 0.0789472499999988,
          "durationTicks": 96,
          "midi": 44,
          "name": "G#2",
          "ticks": 105792,
          "time": 86.9998695,
          "velocity": 0.25984251968503935
        },
        {
          "duration": 0.0789472499999988,
          "durationTicks": 96,
          "midi": 49,
          "name": "C#3",
          "ticks": 105984,
          "time": 87.157764,
          "velocity": 0.3779527559055118
        },
        {
          "duration": 0.0789472499999988,
          "durationTicks": 96,
          "midi": 44,
          "name": "G#2",
          "ticks": 106368,
          "time": 87.473553,
          "velocity": 0.25984251968503935
        },
        {
          "duration": 0.0789472499999988,
          "durationTicks": 96,
          "midi": 49,
          "name": "C#3",
          "ticks": 106752,
          "time": 87.78934199999999,
          "velocity": 0.3779527559055118
        },
        {
          "duration": 0.0789472499999988,
          "durationTicks": 96,
          "midi": 49,
          "name": "C#3",
          "ticks": 107136,
          "time": 88.105131,
          "velocity": 0.2992125984251969
        },
        {
          "duration": 0.0789472499999988,
          "durationTicks": 96,
          "midi": 44,
          "name": "G#2",
          "ticks": 107136,
          "time": 88.105131,
          "velocity": 0.25984251968503935
        },
        {
          "duration": 0.0789472499999988,
          "durationTicks": 96,
          "midi": 44,
          "name": "G#2",
          "ticks": 107328,
          "time": 88.2630255,
          "velocity": 0.25984251968503935
        },
        {
          "duration": 0.0789472499999988,
          "durationTicks": 96,
          "midi": 49,
          "name": "C#3",
          "ticks": 107520,
          "time": 88.42092,
          "velocity": 0.3779527559055118
        },
        {
          "duration": 0.0789472499999988,
          "durationTicks": 96,
          "midi": 44,
          "name": "G#2",
          "ticks": 107904,
          "time": 88.73670899999999,
          "velocity": 0.25984251968503935
        },
        {
          "duration": 0.0789472499999988,
          "durationTicks": 96,
          "midi": 49,
          "name": "C#3",
          "ticks": 108288,
          "time": 89.052498,
          "velocity": 0.3779527559055118
        },
        {
          "duration": 0.0789472499999988,
          "durationTicks": 96,
          "midi": 49,
          "name": "C#3",
          "ticks": 108672,
          "time": 89.368287,
          "velocity": 0.2992125984251969
        },
        {
          "duration": 0.0789472499999988,
          "durationTicks": 96,
          "midi": 44,
          "name": "G#2",
          "ticks": 108672,
          "time": 89.368287,
          "velocity": 0.25984251968503935
        },
        {
          "duration": 0.0789472499999988,
          "durationTicks": 96,
          "midi": 44,
          "name": "G#2",
          "ticks": 108864,
          "time": 89.52618149999999,
          "velocity": 0.25984251968503935
        },
        {
          "duration": 0.0789472499999988,
          "durationTicks": 96,
          "midi": 48,
          "name": "C3",
          "ticks": 109056,
          "time": 89.68407599999999,
          "velocity": 0.3779527559055118
        },
        {
          "duration": 0.0789472499999988,
          "durationTicks": 96,
          "midi": 43,
          "name": "G2",
          "ticks": 109440,
          "time": 89.999865,
          "velocity": 0.25984251968503935
        },
        {
          "duration": 0.0789472499999988,
          "durationTicks": 96,
          "midi": 48,
          "name": "C3",
          "ticks": 109824,
          "time": 90.315654,
          "velocity": 0.3779527559055118
        },
        {
          "duration": 0.0789472499999988,
          "durationTicks": 96,
          "midi": 43,
          "name": "G2",
          "ticks": 110208,
          "time": 90.63144299999999,
          "velocity": 0.25984251968503935
        },
        {
          "duration": 0.0789472499999988,
          "durationTicks": 96,
          "midi": 48,
          "name": "C3",
          "ticks": 110208,
          "time": 90.63144299999999,
          "velocity": 0.2992125984251969
        },
        {
          "duration": 0.0789472499999988,
          "durationTicks": 96,
          "midi": 43,
          "name": "G2",
          "ticks": 110400,
          "time": 90.7893375,
          "velocity": 0.25984251968503935
        },
        {
          "duration": 0.0789472499999988,
          "durationTicks": 96,
          "midi": 46,
          "name": "A#2",
          "ticks": 110592,
          "time": 90.947232,
          "velocity": 0.3779527559055118
        },
        {
          "duration": 0.0789472499999988,
          "durationTicks": 96,
          "midi": 41,
          "name": "F2",
          "ticks": 110976,
          "time": 91.263021,
          "velocity": 0.25984251968503935
        },
        {
          "duration": 0.07894725000001301,
          "durationTicks": 96,
          "midi": 46,
          "name": "A#2",
          "ticks": 111360,
          "time": 91.57880999999999,
          "velocity": 0.3779527559055118
        },
        {
          "duration": 0.0789472499999988,
          "durationTicks": 96,
          "midi": 46,
          "name": "A#2",
          "ticks": 111744,
          "time": 91.894599,
          "velocity": 0.2992125984251969
        },
        {
          "duration": 0.0789472499999988,
          "durationTicks": 96,
          "midi": 41,
          "name": "F2",
          "ticks": 111744,
          "time": 91.894599,
          "velocity": 0.25984251968503935
        },
        {
          "duration": 0.0789472499999988,
          "durationTicks": 96,
          "midi": 41,
          "name": "F2",
          "ticks": 111936,
          "time": 92.0524935,
          "velocity": 0.25984251968503935
        },
        {
          "duration": 0.0789472499999988,
          "durationTicks": 96,
          "midi": 46,
          "name": "A#2",
          "ticks": 112128,
          "time": 92.210388,
          "velocity": 0.3779527559055118
        },
        {
          "duration": 0.07894725000001301,
          "durationTicks": 96,
          "midi": 41,
          "name": "F2",
          "ticks": 112512,
          "time": 92.52617699999999,
          "velocity": 0.25984251968503935
        },
        {
          "duration": 0.0789472499999988,
          "durationTicks": 96,
          "midi": 46,
          "name": "A#2",
          "ticks": 112896,
          "time": 92.841966,
          "velocity": 0.3779527559055118
        },
        {
          "duration": 0.0789472499999988,
          "durationTicks": 96,
          "midi": 41,
          "name": "F2",
          "ticks": 113280,
          "time": 93.157755,
          "velocity": 0.25984251968503935
        },
        {
          "duration": 0.0789472499999988,
          "durationTicks": 96,
          "midi": 46,
          "name": "A#2",
          "ticks": 113280,
          "time": 93.157755,
          "velocity": 0.2992125984251969
        },
        {
          "duration": 0.0789472499999988,
          "durationTicks": 96,
          "midi": 41,
          "name": "F2",
          "ticks": 113472,
          "time": 93.31564949999999,
          "velocity": 0.25984251968503935
        },
        {
          "duration": 0.07894725000001301,
          "durationTicks": 96,
          "midi": 48,
          "name": "C3",
          "ticks": 113664,
          "time": 93.47354399999999,
          "velocity": 0.3779527559055118
        },
        {
          "duration": 0.0789472499999988,
          "durationTicks": 96,
          "midi": 44,
          "name": "G#2",
          "ticks": 114048,
          "time": 93.789333,
          "velocity": 0.25984251968503935
        },
        {
          "duration": 0.0789472499999988,
          "durationTicks": 96,
          "midi": 48,
          "name": "C3",
          "ticks": 114432,
          "time": 94.105122,
          "velocity": 0.3779527559055118
        },
        {
          "duration": 0.07894725000001301,
          "durationTicks": 96,
          "midi": 44,
          "name": "G#2",
          "ticks": 114816,
          "time": 94.42091099999999,
          "velocity": 0.25984251968503935
        },
        {
          "duration": 0.07894725000001301,
          "durationTicks": 96,
          "midi": 48,
          "name": "C3",
          "ticks": 114816,
          "time": 94.42091099999999,
          "velocity": 0.2992125984251969
        },
        {
          "duration": 0.0789472499999988,
          "durationTicks": 96,
          "midi": 44,
          "name": "G#2",
          "ticks": 115008,
          "time": 94.5788055,
          "velocity": 0.25984251968503935
        },
        {
          "duration": 0.0789472499999988,
          "durationTicks": 96,
          "midi": 48,
          "name": "C3",
          "ticks": 115200,
          "time": 94.7367,
          "velocity": 0.3779527559055118
        },
        {
          "duration": 0.0789472499999988,
          "durationTicks": 96,
          "midi": 44,
          "name": "G#2",
          "ticks": 115584,
          "time": 95.052489,
          "velocity": 0.25984251968503935
        },
        {
          "duration": 0.07894725000001301,
          "durationTicks": 96,
          "midi": 48,
          "name": "C3",
          "ticks": 115968,
          "time": 95.36827799999999,
          "velocity": 0.3779527559055118
        },
        {
          "duration": 0.0789472499999988,
          "durationTicks": 96,
          "midi": 44,
          "name": "G#2",
          "ticks": 116352,
          "time": 95.684067,
          "velocity": 0.25984251968503935
        },
        {
          "duration": 0.0789472499999988,
          "durationTicks": 96,
          "midi": 48,
          "name": "C3",
          "ticks": 116352,
          "time": 95.684067,
          "velocity": 0.2992125984251969
        },
        {
          "duration": 0.0789472499999988,
          "durationTicks": 96,
          "midi": 44,
          "name": "G#2",
          "ticks": 116544,
          "time": 95.8419615,
          "velocity": 0.25984251968503935
        },
        {
          "duration": 0.0789472499999988,
          "durationTicks": 96,
          "midi": 49,
          "name": "C#3",
          "ticks": 116736,
          "time": 95.999856,
          "velocity": 0.3779527559055118
        },
        {
          "duration": 0.07894725000001301,
          "durationTicks": 96,
          "midi": 44,
          "name": "G#2",
          "ticks": 117120,
          "time": 96.31564499999999,
          "velocity": 0.25984251968503935
        },
        {
          "duration": 0.0789472499999988,
          "durationTicks": 96,
          "midi": 49,
          "name": "C#3",
          "ticks": 117504,
          "time": 96.631434,
          "velocity": 0.3779527559055118
        },
        {
          "duration": 0.0789472499999988,
          "durationTicks": 96,
          "midi": 44,
          "name": "G#2",
          "ticks": 117888,
          "time": 96.947223,
          "velocity": 0.25984251968503935
        },
        {
          "duration": 0.0789472499999988,
          "durationTicks": 96,
          "midi": 49,
          "name": "C#3",
          "ticks": 117888,
          "time": 96.947223,
          "velocity": 0.2992125984251969
        },
        {
          "duration": 0.0789472499999988,
          "durationTicks": 96,
          "midi": 44,
          "name": "G#2",
          "ticks": 118080,
          "time": 97.10511749999999,
          "velocity": 0.25984251968503935
        },
        {
          "duration": 0.07894725000001301,
          "durationTicks": 96,
          "midi": 49,
          "name": "C#3",
          "ticks": 118272,
          "time": 97.26301199999999,
          "velocity": 0.3779527559055118
        },
        {
          "duration": 0.0789472499999988,
          "durationTicks": 96,
          "midi": 44,
          "name": "G#2",
          "ticks": 118656,
          "time": 97.578801,
          "velocity": 0.25984251968503935
        },
        {
          "duration": 0.0789472499999988,
          "durationTicks": 96,
          "midi": 49,
          "name": "C#3",
          "ticks": 119040,
          "time": 97.89459,
          "velocity": 0.3779527559055118
        },
        {
          "duration": 0.07894725000001301,
          "durationTicks": 96,
          "midi": 44,
          "name": "G#2",
          "ticks": 119424,
          "time": 98.21037899999999,
          "velocity": 0.25984251968503935
        },
        {
          "duration": 0.07894725000001301,
          "durationTicks": 96,
          "midi": 49,
          "name": "C#3",
          "ticks": 119424,
          "time": 98.21037899999999,
          "velocity": 0.2992125984251969
        },
        {
          "duration": 0.0789472499999988,
          "durationTicks": 96,
          "midi": 44,
          "name": "G#2",
          "ticks": 119616,
          "time": 98.3682735,
          "velocity": 0.25984251968503935
        },
        {
          "duration": 0.0789472499999988,
          "durationTicks": 96,
          "midi": 49,
          "name": "C#3",
          "ticks": 119808,
          "time": 98.526168,
          "velocity": 0.3779527559055118
        },
        {
          "duration": 0.0789472499999988,
          "durationTicks": 96,
          "midi": 44,
          "name": "G#2",
          "ticks": 120192,
          "time": 98.841957,
          "velocity": 0.25984251968503935
        },
        {
          "duration": 0.07894725000001301,
          "durationTicks": 96,
          "midi": 49,
          "name": "C#3",
          "ticks": 120576,
          "time": 99.15774599999999,
          "velocity": 0.3779527559055118
        },
        {
          "duration": 0.0789472499999988,
          "durationTicks": 96,
          "midi": 44,
          "name": "G#2",
          "ticks": 120960,
          "time": 99.473535,
          "velocity": 0.25984251968503935
        },
        {
          "duration": 0.0789472499999988,
          "durationTicks": 96,
          "midi": 49,
          "name": "C#3",
          "ticks": 120960,
          "time": 99.473535,
          "velocity": 0.2992125984251969
        },
        {
          "duration": 0.0789472499999988,
          "durationTicks": 96,
          "midi": 44,
          "name": "G#2",
          "ticks": 121152,
          "time": 99.6314295,
          "velocity": 0.25984251968503935
        },
        {
          "duration": 0.0789472499999988,
          "durationTicks": 96,
          "midi": 48,
          "name": "C3",
          "ticks": 121344,
          "time": 99.789324,
          "velocity": 0.3779527559055118
        },
        {
          "duration": 0.07894725000001301,
          "durationTicks": 96,
          "midi": 43,
          "name": "G2",
          "ticks": 121728,
          "time": 100.10511299999999,
          "velocity": 0.25984251968503935
        },
        {
          "duration": 0.0789472499999988,
          "durationTicks": 96,
          "midi": 48,
          "name": "C3",
          "ticks": 122112,
          "time": 100.420902,
          "velocity": 0.3779527559055118
        },
        {
          "duration": 0.0789472499999988,
          "durationTicks": 96,
          "midi": 43,
          "name": "G2",
          "ticks": 122496,
          "time": 100.736691,
          "velocity": 0.25984251968503935
        },
        {
          "duration": 0.0789472499999988,
          "durationTicks": 96,
          "midi": 48,
          "name": "C3",
          "ticks": 122496,
          "time": 100.736691,
          "velocity": 0.2992125984251969
        },
        {
          "duration": 0.0789472499999988,
          "durationTicks": 96,
          "midi": 43,
          "name": "G2",
          "ticks": 122688,
          "time": 100.89458549999999,
          "velocity": 0.25984251968503935
        },
        {
          "duration": 0.0789472499999988,
          "durationTicks": 96,
          "midi": 46,
          "name": "A#2",
          "ticks": 122880,
          "time": 101.05248,
          "velocity": 0.3779527559055118
        },
        {
          "duration": 0.0789472499999988,
          "durationTicks": 96,
          "midi": 41,
          "name": "F2",
          "ticks": 123264,
          "time": 101.368269,
          "velocity": 0.25984251968503935
        },
        {
          "duration": 0.0789472499999988,
          "durationTicks": 96,
          "midi": 46,
          "name": "A#2",
          "ticks": 123648,
          "time": 101.684058,
          "velocity": 0.3779527559055118
        },
        {
          "duration": 0.0789472499999988,
          "durationTicks": 96,
          "midi": 41,
          "name": "F2",
          "ticks": 124032,
          "time": 101.999847,
          "velocity": 0.25984251968503935
        },
        {
          "duration": 0.0789472499999988,
          "durationTicks": 96,
          "midi": 46,
          "name": "A#2",
          "ticks": 124032,
          "time": 101.999847,
          "velocity": 0.2992125984251969
        },
        {
          "duration": 0.0789472499999988,
          "durationTicks": 96,
          "midi": 41,
          "name": "F2",
          "ticks": 124224,
          "time": 102.1577415,
          "velocity": 0.25984251968503935
        },
        {
          "duration": 0.0789472499999988,
          "durationTicks": 96,
          "midi": 46,
          "name": "A#2",
          "ticks": 124416,
          "time": 102.315636,
          "velocity": 0.3779527559055118
        },
        {
          "duration": 0.0789472499999988,
          "durationTicks": 96,
          "midi": 41,
          "name": "F2",
          "ticks": 124800,
          "time": 102.631425,
          "velocity": 0.25984251968503935
        },
        {
          "duration": 0.0789472499999988,
          "durationTicks": 96,
          "midi": 46,
          "name": "A#2",
          "ticks": 125184,
          "time": 102.947214,
          "velocity": 0.3779527559055118
        },
        {
          "duration": 0.0789472499999988,
          "durationTicks": 96,
          "midi": 46,
          "name": "A#2",
          "ticks": 125568,
          "time": 103.263003,
          "velocity": 0.2992125984251969
        },
        {
          "duration": 0.0789472499999988,
          "durationTicks": 96,
          "midi": 41,
          "name": "F2",
          "ticks": 125568,
          "time": 103.263003,
          "velocity": 0.25984251968503935
        },
        {
          "duration": 0.0789472499999988,
          "durationTicks": 96,
          "midi": 41,
          "name": "F2",
          "ticks": 125760,
          "time": 103.4208975,
          "velocity": 0.25984251968503935
        },
        {
          "duration": 0.0789472499999988,
          "durationTicks": 96,
          "midi": 48,
          "name": "C3",
          "ticks": 125952,
          "time": 103.57879199999999,
          "velocity": 0.3779527559055118
        },
        {
          "duration": 0.0789472499999988,
          "durationTicks": 96,
          "midi": 44,
          "name": "G#2",
          "ticks": 126336,
          "time": 103.894581,
          "velocity": 0.25984251968503935
        },
        {
          "duration": 0.0789472499999988,
          "durationTicks": 96,
          "midi": 48,
          "name": "C3",
          "ticks": 126720,
          "time": 104.21037,
          "velocity": 0.3779527559055118
        },
        {
          "duration": 0.0789472499999988,
          "durationTicks": 96,
          "midi": 48,
          "name": "C3",
          "ticks": 127104,
          "time": 104.52615899999999,
          "velocity": 0.2992125984251969
        },
        {
          "duration": 0.0789472499999988,
          "durationTicks": 96,
          "midi": 44,
          "name": "G#2",
          "ticks": 127104,
          "time": 104.52615899999999,
          "velocity": 0.25984251968503935
        },
        {
          "duration": 0.0789472499999988,
          "durationTicks": 96,
          "midi": 44,
          "name": "G#2",
          "ticks": 127296,
          "time": 104.68405349999999,
          "velocity": 0.25984251968503935
        },
        {
          "duration": 0.0789472499999988,
          "durationTicks": 96,
          "midi": 48,
          "name": "C3",
          "ticks": 127488,
          "time": 104.841948,
          "velocity": 0.3779527559055118
        },
        {
          "duration": 0.0789472499999988,
          "durationTicks": 96,
          "midi": 44,
          "name": "G#2",
          "ticks": 127872,
          "time": 105.157737,
          "velocity": 0.25984251968503935
        },
        {
          "duration": 0.0789472499999988,
          "durationTicks": 96,
          "midi": 48,
          "name": "C3",
          "ticks": 128256,
          "time": 105.47352599999999,
          "velocity": 0.3779527559055118
        },
        {
          "duration": 0.0789472499999988,
          "durationTicks": 96,
          "midi": 44,
          "name": "G#2",
          "ticks": 128640,
          "time": 105.789315,
          "velocity": 0.25984251968503935
        },
        {
          "duration": 0.0789472499999988,
          "durationTicks": 96,
          "midi": 48,
          "name": "C3",
          "ticks": 128640,
          "time": 105.789315,
          "velocity": 0.2992125984251969
        },
        {
          "duration": 0.0789472499999988,
          "durationTicks": 96,
          "midi": 44,
          "name": "G#2",
          "ticks": 128832,
          "time": 105.9472095,
          "velocity": 0.25984251968503935
        },
        {
          "duration": 0.0789472499999988,
          "durationTicks": 96,
          "midi": 49,
          "name": "C#3",
          "ticks": 129024,
          "time": 106.105104,
          "velocity": 0.3779527559055118
        },
        {
          "duration": 0.0789472499999988,
          "durationTicks": 96,
          "midi": 44,
          "name": "G#2",
          "ticks": 129408,
          "time": 106.42089299999999,
          "velocity": 0.25984251968503935
        },
        {
          "duration": 0.0789472499999988,
          "durationTicks": 96,
          "midi": 49,
          "name": "C#3",
          "ticks": 129792,
          "time": 106.736682,
          "velocity": 0.3779527559055118
        },
        {
          "duration": 0.0789472499999988,
          "durationTicks": 96,
          "midi": 49,
          "name": "C#3",
          "ticks": 130176,
          "time": 107.052471,
          "velocity": 0.2992125984251969
        },
        {
          "duration": 0.0789472499999988,
          "durationTicks": 96,
          "midi": 44,
          "name": "G#2",
          "ticks": 130176,
          "time": 107.052471,
          "velocity": 0.25984251968503935
        },
        {
          "duration": 0.0789472499999988,
          "durationTicks": 96,
          "midi": 44,
          "name": "G#2",
          "ticks": 130368,
          "time": 107.2103655,
          "velocity": 0.25984251968503935
        },
        {
          "duration": 0.0789472499999988,
          "durationTicks": 96,
          "midi": 49,
          "name": "C#3",
          "ticks": 130560,
          "time": 107.36825999999999,
          "velocity": 0.3779527559055118
        },
        {
          "duration": 0.0789472499999988,
          "durationTicks": 96,
          "midi": 44,
          "name": "G#2",
          "ticks": 130944,
          "time": 107.684049,
          "velocity": 0.25984251968503935
        },
        {
          "duration": 0.0789472499999988,
          "durationTicks": 96,
          "midi": 49,
          "name": "C#3",
          "ticks": 131328,
          "time": 107.999838,
          "velocity": 0.3779527559055118
        },
        {
          "duration": 0.0789472499999988,
          "durationTicks": 96,
          "midi": 49,
          "name": "C#3",
          "ticks": 131712,
          "time": 108.31562699999999,
          "velocity": 0.2992125984251969
        },
        {
          "duration": 0.0789472499999988,
          "durationTicks": 96,
          "midi": 44,
          "name": "G#2",
          "ticks": 131712,
          "time": 108.31562699999999,
          "velocity": 0.25984251968503935
        },
        {
          "duration": 0.0789472499999988,
          "durationTicks": 96,
          "midi": 44,
          "name": "G#2",
          "ticks": 131904,
          "time": 108.47352149999999,
          "velocity": 0.25984251968503935
        },
        {
          "duration": 0.0789472499999988,
          "durationTicks": 96,
          "midi": 49,
          "name": "C#3",
          "ticks": 132096,
          "time": 108.631416,
          "velocity": 0.3779527559055118
        },
        {
          "duration": 0.0789472499999988,
          "durationTicks": 96,
          "midi": 44,
          "name": "G#2",
          "ticks": 132480,
          "time": 108.947205,
          "velocity": 0.25984251968503935
        },
        {
          "duration": 0.0789472499999988,
          "durationTicks": 96,
          "midi": 49,
          "name": "C#3",
          "ticks": 132864,
          "time": 109.26299399999999,
          "velocity": 0.3779527559055118
        },
        {
          "duration": 0.0789472499999988,
          "durationTicks": 96,
          "midi": 44,
          "name": "G#2",
          "ticks": 133248,
          "time": 109.578783,
          "velocity": 0.25984251968503935
        },
        {
          "duration": 0.0789472499999988,
          "durationTicks": 96,
          "midi": 49,
          "name": "C#3",
          "ticks": 133248,
          "time": 109.578783,
          "velocity": 0.2992125984251969
        },
        {
          "duration": 0.0789472499999988,
          "durationTicks": 96,
          "midi": 44,
          "name": "G#2",
          "ticks": 133440,
          "time": 109.7366775,
          "velocity": 0.25984251968503935
        },
        {
          "duration": 0.0789472499999988,
          "durationTicks": 96,
          "midi": 48,
          "name": "C3",
          "ticks": 133632,
          "time": 109.894572,
          "velocity": 0.3779527559055118
        },
        {
          "duration": 0.0789472499999988,
          "durationTicks": 96,
          "midi": 43,
          "name": "G2",
          "ticks": 134016,
          "time": 110.21036099999999,
          "velocity": 0.25984251968503935
        },
        {
          "duration": 0.0789472499999988,
          "durationTicks": 96,
          "midi": 48,
          "name": "C3",
          "ticks": 134400,
          "time": 110.52615,
          "velocity": 0.3779527559055118
        },
        {
          "duration": 0.0789472499999988,
          "durationTicks": 96,
          "midi": 43,
          "name": "G2",
          "ticks": 134784,
          "time": 110.841939,
          "velocity": 0.25984251968503935
        },
        {
          "duration": 0.0789472499999988,
          "durationTicks": 96,
          "midi": 48,
          "name": "C3",
          "ticks": 134784,
          "time": 110.841939,
          "velocity": 0.2992125984251969
        },
        {
          "duration": 0.0789472499999988,
          "durationTicks": 96,
          "midi": 43,
          "name": "G2",
          "ticks": 134976,
          "time": 110.9998335,
          "velocity": 0.25984251968503935
        }
      ],
      "endOfTrackTicks": 135072
    },
    {
      "channel": 4,
      "controlChanges": {},
      "pitchBends": [],
      "instrument": {
        "family": "synth lead",
        "number": 82,
        "name": "lead 3 (calliope)"
      },
      "name": "8-Bit Sine",
      "notes": [
        {
          "duration": 0.23684174999999996,
          "durationTicks": 288,
          "midi": 68,
          "name": "G#4",
          "ticks": 24576,
          "time": 20.210496,
          "velocity": 0.47244094488188976
        },
        {
          "duration": 0.11842087500000176,
          "durationTicks": 144,
          "midi": 68,
          "name": "G#4",
          "ticks": 24960,
          "time": 20.526284999999998,
          "velocity": 0.47244094488188976
        },
        {
          "duration": 0.11842087500000176,
          "durationTicks": 144,
          "midi": 70,
          "name": "A#4",
          "ticks": 25152,
          "time": 20.6841795,
          "velocity": 0.47244094488188976
        },
        {
          "duration": 0.23684174999999996,
          "durationTicks": 288,
          "midi": 72,
          "name": "C5",
          "ticks": 25344,
          "time": 20.842074,
          "velocity": 0.47244094488188976
        },
        {
          "duration": 0.23684174999999996,
          "durationTicks": 288,
          "midi": 68,
          "name": "G#4",
          "ticks": 25728,
          "time": 21.157863,
          "velocity": 0.47244094488188976
        },
        {
          "duration": 0.23684174999999996,
          "durationTicks": 288,
          "midi": 70,
          "name": "A#4",
          "ticks": 26112,
          "time": 21.473651999999998,
          "velocity": 0.47244094488188976
        },
        {
          "duration": 0.1184208749999982,
          "durationTicks": 144,
          "midi": 70,
          "name": "A#4",
          "ticks": 26496,
          "time": 21.789441,
          "velocity": 0.47244094488188976
        },
        {
          "duration": 0.11842087500000176,
          "durationTicks": 144,
          "midi": 72,
          "name": "C5",
          "ticks": 26688,
          "time": 21.947335499999998,
          "velocity": 0.47244094488188976
        },
        {
          "duration": 0.23684174999999996,
          "durationTicks": 288,
          "midi": 67,
          "name": "G4",
          "ticks": 26880,
          "time": 22.10523,
          "velocity": 0.47244094488188976
        },
        {
          "duration": 0.23684174999999996,
          "durationTicks": 288,
          "midi": 63,
          "name": "D#4",
          "ticks": 27264,
          "time": 22.421018999999998,
          "velocity": 0.47244094488188976
        },
        {
          "duration": 0.23684174999999996,
          "durationTicks": 288,
          "midi": 68,
          "name": "G#4",
          "ticks": 27648,
          "time": 22.736808,
          "velocity": 0.47244094488188976
        },
        {
          "duration": 0.11842087500000176,
          "durationTicks": 144,
          "midi": 68,
          "name": "G#4",
          "ticks": 28032,
          "time": 23.052597,
          "velocity": 0.47244094488188976
        },
        {
          "duration": 0.1184208749999982,
          "durationTicks": 144,
          "midi": 70,
          "name": "A#4",
          "ticks": 28224,
          "time": 23.2104915,
          "velocity": 0.47244094488188976
        },
        {
          "duration": 0.23684174999999996,
          "durationTicks": 288,
          "midi": 72,
          "name": "C5",
          "ticks": 28416,
          "time": 23.368385999999997,
          "velocity": 0.47244094488188976
        },
        {
          "duration": 0.23684174999999996,
          "durationTicks": 288,
          "midi": 80,
          "name": "G#5",
          "ticks": 28800,
          "time": 23.684175,
          "velocity": 0.47244094488188976
        },
        {
          "duration": 0.31578899999999877,
          "durationTicks": 384,
          "midi": 79,
          "name": "G5",
          "ticks": 29184,
          "time": 23.999964,
          "velocity": 0.47244094488188976
        },
        {
          "duration": 0.3157890000000023,
          "durationTicks": 384,
          "midi": 75,
          "name": "D#5",
          "ticks": 29568,
          "time": 24.315752999999997,
          "velocity": 0.47244094488188976
        },
        {
          "duration": 0.31578899999999877,
          "durationTicks": 384,
          "midi": 70,
          "name": "A#4",
          "ticks": 29952,
          "time": 24.631542,
          "velocity": 0.47244094488188976
        },
        {
          "duration": 0.3157890000000023,
          "durationTicks": 384,
          "midi": 67,
          "name": "G4",
          "ticks": 30336,
          "time": 24.947331,
          "velocity": 0.47244094488188976
        },
        {
          "duration": 0.23684174999999996,
          "durationTicks": 288,
          "midi": 68,
          "name": "G#4",
          "ticks": 30720,
          "time": 25.26312,
          "velocity": 0.47244094488188976
        },
        {
          "duration": 0.1184208749999982,
          "durationTicks": 144,
          "midi": 68,
          "name": "G#4",
          "ticks": 31104,
          "time": 25.578909,
          "velocity": 0.47244094488188976
        },
        {
          "duration": 0.1184208749999982,
          "durationTicks": 144,
          "midi": 70,
          "name": "A#4",
          "ticks": 31296,
          "time": 25.7368035,
          "velocity": 0.47244094488188976
        },
        {
          "duration": 0.23684174999999996,
          "durationTicks": 288,
          "midi": 72,
          "name": "C5",
          "ticks": 31488,
          "time": 25.894697999999998,
          "velocity": 0.47244094488188976
        },
        {
          "duration": 0.23684174999999996,
          "durationTicks": 288,
          "midi": 68,
          "name": "G#4",
          "ticks": 31872,
          "time": 26.210487,
          "velocity": 0.47244094488188976
        },
        {
          "duration": 0.23684174999999996,
          "durationTicks": 288,
          "midi": 70,
          "name": "A#4",
          "ticks": 32256,
          "time": 26.526276,
          "velocity": 0.47244094488188976
        },
        {
          "duration": 0.11842087500000176,
          "durationTicks": 144,
          "midi": 70,
          "name": "A#4",
          "ticks": 32640,
          "time": 26.842064999999998,
          "velocity": 0.47244094488188976
        },
        {
          "duration": 0.1184208749999982,
          "durationTicks": 144,
          "midi": 72,
          "name": "C5",
          "ticks": 32832,
          "time": 26.9999595,
          "velocity": 0.47244094488188976
        },
        {
          "duration": 0.23684174999999996,
          "durationTicks": 288,
          "midi": 67,
          "name": "G4",
          "ticks": 33024,
          "time": 27.157854,
          "velocity": 0.47244094488188976
        },
        {
          "duration": 0.23684174999999996,
          "durationTicks": 288,
          "midi": 63,
          "name": "D#4",
          "ticks": 33408,
          "time": 27.473643,
          "velocity": 0.47244094488188976
        },
        {
          "duration": 0.23684174999999996,
          "durationTicks": 288,
          "midi": 69,
          "name": "A4",
          "ticks": 33792,
          "time": 27.789431999999998,
          "velocity": 0.47244094488188976
        },
        {
          "duration": 0.1184208749999982,
          "durationTicks": 144,
          "midi": 69,
          "name": "A4",
          "ticks": 34176,
          "time": 28.105221,
          "velocity": 0.47244094488188976
        },
        {
          "duration": 0.11842087500000176,
          "durationTicks": 144,
          "midi": 70,
          "name": "A#4",
          "ticks": 34368,
          "time": 28.263115499999998,
          "velocity": 0.47244094488188976
        },
        {
          "duration": 0.23684174999999996,
          "durationTicks": 288,
          "midi": 72,
          "name": "C5",
          "ticks": 34560,
          "time": 28.42101,
          "velocity": 0.47244094488188976
        },
        {
          "duration": 0.23684174999999996,
          "durationTicks": 288,
          "midi": 77,
          "name": "F5",
          "ticks": 34944,
          "time": 28.736798999999998,
          "velocity": 0.47244094488188976
        },
        {
          "duration": 0.31578899999999877,
          "durationTicks": 384,
          "midi": 76,
          "name": "E5",
          "ticks": 35328,
          "time": 29.052588,
          "velocity": 0.47244094488188976
        },
        {
          "duration": 0.31578899999999877,
          "durationTicks": 384,
          "midi": 79,
          "name": "G5",
          "ticks": 35712,
          "time": 29.368377,
          "velocity": 0.47244094488188976
        },
        {
          "duration": 0.4736834999999999,
          "durationTicks": 576,
          "midi": 77,
          "name": "F5",
          "ticks": 36096,
          "time": 29.684165999999998,
          "velocity": 0.47244094488188976
        },
        {
          "duration": 0.23684174999999996,
          "durationTicks": 288,
          "midi": 65,
          "name": "F4",
          "ticks": 36864,
          "time": 30.315744,
          "velocity": 0.47244094488188976
        },
        {
          "duration": 0.23684174999999996,
          "durationTicks": 288,
          "midi": 56,
          "name": "G#3",
          "ticks": 36864,
          "time": 30.315744,
          "velocity": 0.47244094488188976
        },
        {
          "duration": 0.23684174999999996,
          "durationTicks": 288,
          "midi": 53,
          "name": "F3",
          "ticks": 36864,
          "time": 30.315744,
          "velocity": 0.47244094488188976
        },
        {
          "duration": 0.23684174999999996,
          "durationTicks": 288,
          "midi": 68,
          "name": "G#4",
          "ticks": 36864,
          "time": 30.315744,
          "velocity": 0.47244094488188976
        },
        {
          "duration": 0.11842087500000176,
          "durationTicks": 144,
          "midi": 65,
          "name": "F4",
          "ticks": 37248,
          "time": 30.631532999999997,
          "velocity": 0.47244094488188976
        },
        {
          "duration": 0.11842087500000176,
          "durationTicks": 144,
          "midi": 53,
          "name": "F3",
          "ticks": 37248,
          "time": 30.631532999999997,
          "velocity": 0.47244094488188976
        },
        {
          "duration": 0.11842087500000176,
          "durationTicks": 144,
          "midi": 56,
          "name": "G#3",
          "ticks": 37248,
          "time": 30.631532999999997,
          "velocity": 0.47244094488188976
        },
        {
          "duration": 0.11842087500000176,
          "durationTicks": 144,
          "midi": 68,
          "name": "G#4",
          "ticks": 37248,
          "time": 30.631532999999997,
          "velocity": 0.47244094488188976
        },
        {
          "duration": 0.11842087500000176,
          "durationTicks": 144,
          "midi": 70,
          "name": "A#4",
          "ticks": 37440,
          "time": 30.7894275,
          "velocity": 0.47244094488188976
        },
        {
          "duration": 0.11842087500000176,
          "durationTicks": 144,
          "midi": 58,
          "name": "A#3",
          "ticks": 37440,
          "time": 30.7894275,
          "velocity": 0.47244094488188976
        },
        {
          "duration": 0.11842087500000176,
          "durationTicks": 144,
          "midi": 55,
          "name": "G3",
          "ticks": 37440,
          "time": 30.7894275,
          "velocity": 0.47244094488188976
        },
        {
          "duration": 0.11842087500000176,
          "durationTicks": 144,
          "midi": 67,
          "name": "G4",
          "ticks": 37440,
          "time": 30.7894275,
          "velocity": 0.47244094488188976
        },
        {
          "duration": 0.23684174999999996,
          "durationTicks": 288,
          "midi": 68,
          "name": "G#4",
          "ticks": 37632,
          "time": 30.947322,
          "velocity": 0.47244094488188976
        },
        {
          "duration": 0.23684174999999996,
          "durationTicks": 288,
          "midi": 60,
          "name": "C4",
          "ticks": 37632,
          "time": 30.947322,
          "velocity": 0.47244094488188976
        },
        {
          "duration": 0.23684174999999996,
          "durationTicks": 288,
          "midi": 72,
          "name": "C5",
          "ticks": 37632,
          "time": 30.947322,
          "velocity": 0.47244094488188976
        },
        {
          "duration": 0.23684174999999996,
          "durationTicks": 288,
          "midi": 56,
          "name": "G#3",
          "ticks": 37632,
          "time": 30.947322,
          "velocity": 0.47244094488188976
        },
        {
          "duration": 0.23684174999999996,
          "durationTicks": 288,
          "midi": 53,
          "name": "F3",
          "ticks": 38016,
          "time": 31.263111,
          "velocity": 0.47244094488188976
        },
        {
          "duration": 0.23684174999999996,
          "durationTicks": 288,
          "midi": 65,
          "name": "F4",
          "ticks": 38016,
          "time": 31.263111,
          "velocity": 0.47244094488188976
        },
        {
          "duration": 0.23684174999999996,
          "durationTicks": 288,
          "midi": 68,
          "name": "G#4",
          "ticks": 38016,
          "time": 31.263111,
          "velocity": 0.47244094488188976
        },
        {
          "duration": 0.23684174999999996,
          "durationTicks": 288,
          "midi": 56,
          "name": "G#3",
          "ticks": 38016,
          "time": 31.263111,
          "velocity": 0.47244094488188976
        },
        {
          "duration": 0.23684174999999996,
          "durationTicks": 288,
          "midi": 67,
          "name": "G4",
          "ticks": 38400,
          "time": 31.578899999999997,
          "velocity": 0.47244094488188976
        },
        {
          "duration": 0.23684174999999996,
          "durationTicks": 288,
          "midi": 70,
          "name": "A#4",
          "ticks": 38400,
          "time": 31.578899999999997,
          "velocity": 0.47244094488188976
        },
        {
          "duration": 0.23684174999999996,
          "durationTicks": 288,
          "midi": 58,
          "name": "A#3",
          "ticks": 38400,
          "time": 31.578899999999997,
          "velocity": 0.47244094488188976
        },
        {
          "duration": 0.23684174999999996,
          "durationTicks": 288,
          "midi": 55,
          "name": "G3",
          "ticks": 38400,
          "time": 31.578899999999997,
          "velocity": 0.47244094488188976
        },
        {
          "duration": 0.1184208749999982,
          "durationTicks": 144,
          "midi": 70,
          "name": "A#4",
          "ticks": 38784,
          "time": 31.894689,
          "velocity": 0.47244094488188976
        },
        {
          "duration": 0.1184208749999982,
          "durationTicks": 144,
          "midi": 58,
          "name": "A#3",
          "ticks": 38784,
          "time": 31.894689,
          "velocity": 0.47244094488188976
        },
        {
          "duration": 0.1184208749999982,
          "durationTicks": 144,
          "midi": 67,
          "name": "G4",
          "ticks": 38784,
          "time": 31.894689,
          "velocity": 0.47244094488188976
        },
        {
          "duration": 0.1184208749999982,
          "durationTicks": 144,
          "midi": 55,
          "name": "G3",
          "ticks": 38784,
          "time": 31.894689,
          "velocity": 0.47244094488188976
        },
        {
          "duration": 0.1184208749999982,
          "durationTicks": 144,
          "midi": 60,
          "name": "C4",
          "ticks": 38976,
          "time": 32.0525835,
          "velocity": 0.47244094488188976
        },
        {
          "duration": 0.1184208749999982,
          "durationTicks": 144,
          "midi": 72,
          "name": "C5",
          "ticks": 38976,
          "time": 32.0525835,
          "velocity": 0.47244094488188976
        },
        {
          "duration": 0.1184208749999982,
          "durationTicks": 144,
          "midi": 68,
          "name": "G#4",
          "ticks": 38976,
          "time": 32.0525835,
          "velocity": 0.47244094488188976
        },
        {
          "duration": 0.1184208749999982,
          "durationTicks": 144,
          "midi": 56,
          "name": "G#3",
          "ticks": 38976,
          "time": 32.0525835,
          "velocity": 0.47244094488188976
        },
        {
          "duration": 0.2368417499999964,
          "durationTicks": 288,
          "midi": 55,
          "name": "G3",
          "ticks": 39168,
          "time": 32.210478,
          "velocity": 0.47244094488188976
        },
        {
          "duration": 0.2368417499999964,
          "durationTicks": 288,
          "midi": 67,
          "name": "G4",
          "ticks": 39168,
          "time": 32.210478,
          "velocity": 0.47244094488188976
        },
        {
          "duration": 0.2368417499999964,
          "durationTicks": 288,
          "midi": 63,
          "name": "D#4",
          "ticks": 39168,
          "time": 32.210478,
          "velocity": 0.47244094488188976
        },
        {
          "duration": 0.2368417499999964,
          "durationTicks": 288,
          "midi": 51,
          "name": "D#3",
          "ticks": 39168,
          "time": 32.210478,
          "velocity": 0.47244094488188976
        },
        {
          "duration": 0.23684175000000351,
          "durationTicks": 288,
          "midi": 48,
          "name": "C3",
          "ticks": 39552,
          "time": 32.526267,
          "velocity": 0.47244094488188976
        },
        {
          "duration": 0.23684175000000351,
          "durationTicks": 288,
          "midi": 51,
          "name": "D#3",
          "ticks": 39552,
          "time": 32.526267,
          "velocity": 0.47244094488188976
        },
        {
          "duration": 0.23684175000000351,
          "durationTicks": 288,
          "midi": 60,
          "name": "C4",
          "ticks": 39552,
          "time": 32.526267,
          "velocity": 0.47244094488188976
        },
        {
          "duration": 0.23684175000000351,
          "durationTicks": 288,
          "midi": 63,
          "name": "D#4",
          "ticks": 39552,
          "time": 32.526267,
          "velocity": 0.47244094488188976
        },
        {
          "duration": 0.2368417499999964,
          "durationTicks": 288,
          "midi": 51,
          "name": "D#3",
          "ticks": 39936,
          "time": 32.842056,
          "velocity": 0.47244094488188976
        },
        {
          "duration": 0.2368417499999964,
          "durationTicks": 288,
          "midi": 63,
          "name": "D#4",
          "ticks": 39936,
          "time": 32.842056,
          "velocity": 0.47244094488188976
        },
        {
          "duration": 0.2368417499999964,
          "durationTicks": 288,
          "midi": 68,
          "name": "G#4",
          "ticks": 39936,
          "time": 32.842056,
          "velocity": 0.47244094488188976
        },
        {
          "duration": 0.2368417499999964,
          "durationTicks": 288,
          "midi": 56,
          "name": "G#3",
          "ticks": 39936,
          "time": 32.842056,
          "velocity": 0.47244094488188976
        },
        {
          "duration": 0.1184208749999982,
          "durationTicks": 144,
          "midi": 68,
          "name": "G#4",
          "ticks": 40320,
          "time": 33.157845,
          "velocity": 0.47244094488188976
        },
        {
          "duration": 0.1184208749999982,
          "durationTicks": 144,
          "midi": 56,
          "name": "G#3",
          "ticks": 40320,
          "time": 33.157845,
          "velocity": 0.47244094488188976
        },
        {
          "duration": 0.1184208749999982,
          "durationTicks": 144,
          "midi": 51,
          "name": "D#3",
          "ticks": 40320,
          "time": 33.157845,
          "velocity": 0.47244094488188976
        },
        {
          "duration": 0.1184208749999982,
          "durationTicks": 144,
          "midi": 63,
          "name": "D#4",
          "ticks": 40320,
          "time": 33.157845,
          "velocity": 0.47244094488188976
        },
        {
          "duration": 0.1184208749999982,
          "durationTicks": 144,
          "midi": 58,
          "name": "A#3",
          "ticks": 40512,
          "time": 33.3157395,
          "velocity": 0.47244094488188976
        },
        {
          "duration": 0.1184208749999982,
          "durationTicks": 144,
          "midi": 67,
          "name": "G4",
          "ticks": 40512,
          "time": 33.3157395,
          "velocity": 0.47244094488188976
        },
        {
          "duration": 0.1184208749999982,
          "durationTicks": 144,
          "midi": 55,
          "name": "G3",
          "ticks": 40512,
          "time": 33.3157395,
          "velocity": 0.47244094488188976
        },
        {
          "duration": 0.1184208749999982,
          "durationTicks": 144,
          "midi": 70,
          "name": "A#4",
          "ticks": 40512,
          "time": 33.3157395,
          "velocity": 0.47244094488188976
        },
        {
          "duration": 0.23684175000000351,
          "durationTicks": 288,
          "midi": 60,
          "name": "C4",
          "ticks": 40704,
          "time": 33.473634,
          "velocity": 0.47244094488188976
        },
        {
          "duration": 0.23684175000000351,
          "durationTicks": 288,
          "midi": 72,
          "name": "C5",
          "ticks": 40704,
          "time": 33.473634,
          "velocity": 0.47244094488188976
        },
        {
          "duration": 0.23684175000000351,
          "durationTicks": 288,
          "midi": 68,
          "name": "G#4",
          "ticks": 40704,
          "time": 33.473634,
          "velocity": 0.47244094488188976
        },
        {
          "duration": 0.23684175000000351,
          "durationTicks": 288,
          "midi": 56,
          "name": "G#3",
          "ticks": 40704,
          "time": 33.473634,
          "velocity": 0.47244094488188976
        },
        {
          "duration": 0.2368417499999964,
          "durationTicks": 288,
          "midi": 77,
          "name": "F5",
          "ticks": 41088,
          "time": 33.789423,
          "velocity": 0.47244094488188976
        },
        {
          "duration": 0.2368417499999964,
          "durationTicks": 288,
          "midi": 65,
          "name": "F4",
          "ticks": 41088,
          "time": 33.789423,
          "velocity": 0.47244094488188976
        },
        {
          "duration": 0.2368417499999964,
          "durationTicks": 288,
          "midi": 80,
          "name": "G#5",
          "ticks": 41088,
          "time": 33.789423,
          "velocity": 0.47244094488188976
        },
        {
          "duration": 0.2368417499999964,
          "durationTicks": 288,
          "midi": 68,
          "name": "G#4",
          "ticks": 41088,
          "time": 33.789423,
          "velocity": 0.47244094488188976
        },
        {
          "duration": 0.3157889999999952,
          "durationTicks": 384,
          "midi": 63,
          "name": "D#4",
          "ticks": 41472,
          "time": 34.105212,
          "velocity": 0.47244094488188976
        },
        {
          "duration": 0.3157889999999952,
          "durationTicks": 384,
          "midi": 75,
          "name": "D#5",
          "ticks": 41472,
          "time": 34.105212,
          "velocity": 0.47244094488188976
        },
        {
          "duration": 0.3157889999999952,
          "durationTicks": 384,
          "midi": 67,
          "name": "G4",
          "ticks": 41472,
          "time": 34.105212,
          "velocity": 0.47244094488188976
        },
        {
          "duration": 0.3157889999999952,
          "durationTicks": 384,
          "midi": 79,
          "name": "G5",
          "ticks": 41472,
          "time": 34.105212,
          "velocity": 0.47244094488188976
        },
        {
          "duration": 0.3157890000000023,
          "durationTicks": 384,
          "midi": 63,
          "name": "D#4",
          "ticks": 41856,
          "time": 34.421001,
          "velocity": 0.47244094488188976
        },
        {
          "duration": 0.3157890000000023,
          "durationTicks": 384,
          "midi": 75,
          "name": "D#5",
          "ticks": 41856,
          "time": 34.421001,
          "velocity": 0.47244094488188976
        },
        {
          "duration": 0.3157890000000023,
          "durationTicks": 384,
          "midi": 72,
          "name": "C5",
          "ticks": 41856,
          "time": 34.421001,
          "velocity": 0.47244094488188976
        },
        {
          "duration": 0.3157890000000023,
          "durationTicks": 384,
          "midi": 60,
          "name": "C4",
          "ticks": 41856,
          "time": 34.421001,
          "velocity": 0.47244094488188976
        },
        {
          "duration": 0.3157890000000023,
          "durationTicks": 384,
          "midi": 67,
          "name": "G4",
          "ticks": 42240,
          "time": 34.73679,
          "velocity": 0.47244094488188976
        },
        {
          "duration": 0.3157890000000023,
          "durationTicks": 384,
          "midi": 70,
          "name": "A#4",
          "ticks": 42240,
          "time": 34.73679,
          "velocity": 0.47244094488188976
        },
        {
          "duration": 0.3157890000000023,
          "durationTicks": 384,
          "midi": 58,
          "name": "A#3",
          "ticks": 42240,
          "time": 34.73679,
          "velocity": 0.47244094488188976
        },
        {
          "duration": 0.3157890000000023,
          "durationTicks": 384,
          "midi": 55,
          "name": "G3",
          "ticks": 42240,
          "time": 34.73679,
          "velocity": 0.47244094488188976
        },
        {
          "duration": 0.3157889999999952,
          "durationTicks": 384,
          "midi": 51,
          "name": "D#3",
          "ticks": 42624,
          "time": 35.052579,
          "velocity": 0.47244094488188976
        },
        {
          "duration": 0.3157889999999952,
          "durationTicks": 384,
          "midi": 67,
          "name": "G4",
          "ticks": 42624,
          "time": 35.052579,
          "velocity": 0.47244094488188976
        },
        {
          "duration": 0.3157889999999952,
          "durationTicks": 384,
          "midi": 55,
          "name": "G3",
          "ticks": 42624,
          "time": 35.052579,
          "velocity": 0.47244094488188976
        },
        {
          "duration": 0.3157889999999952,
          "durationTicks": 384,
          "midi": 63,
          "name": "D#4",
          "ticks": 42624,
          "time": 35.052579,
          "velocity": 0.47244094488188976
        },
        {
          "duration": 0.23684175000000351,
          "durationTicks": 288,
          "midi": 68,
          "name": "G#4",
          "ticks": 43008,
          "time": 35.368368,
          "velocity": 0.47244094488188976
        },
        {
          "duration": 0.23684175000000351,
          "durationTicks": 288,
          "midi": 65,
          "name": "F4",
          "ticks": 43008,
          "time": 35.368368,
          "velocity": 0.47244094488188976
        },
        {
          "duration": 0.23684175000000351,
          "durationTicks": 288,
          "midi": 53,
          "name": "F3",
          "ticks": 43008,
          "time": 35.368368,
          "velocity": 0.47244094488188976
        },
        {
          "duration": 0.23684175000000351,
          "durationTicks": 288,
          "midi": 56,
          "name": "G#3",
          "ticks": 43008,
          "time": 35.368368,
          "velocity": 0.47244094488188976
        },
        {
          "duration": 0.1184208749999982,
          "durationTicks": 144,
          "midi": 65,
          "name": "F4",
          "ticks": 43392,
          "time": 35.684157,
          "velocity": 0.47244094488188976
        },
        {
          "duration": 0.1184208749999982,
          "durationTicks": 144,
          "midi": 53,
          "name": "F3",
          "ticks": 43392,
          "time": 35.684157,
          "velocity": 0.47244094488188976
        },
        {
          "duration": 0.1184208749999982,
          "durationTicks": 144,
          "midi": 56,
          "name": "G#3",
          "ticks": 43392,
          "time": 35.684157,
          "velocity": 0.47244094488188976
        },
        {
          "duration": 0.1184208749999982,
          "durationTicks": 144,
          "midi": 68,
          "name": "G#4",
          "ticks": 43392,
          "time": 35.684157,
          "velocity": 0.47244094488188976
        },
        {
          "duration": 0.11842087500000531,
          "durationTicks": 144,
          "midi": 67,
          "name": "G4",
          "ticks": 43584,
          "time": 35.8420515,
          "velocity": 0.47244094488188976
        },
        {
          "duration": 0.11842087500000531,
          "durationTicks": 144,
          "midi": 70,
          "name": "A#4",
          "ticks": 43584,
          "time": 35.8420515,
          "velocity": 0.47244094488188976
        },
        {
          "duration": 0.11842087500000531,
          "durationTicks": 144,
          "midi": 58,
          "name": "A#3",
          "ticks": 43584,
          "time": 35.8420515,
          "velocity": 0.47244094488188976
        },
        {
          "duration": 0.11842087500000531,
          "durationTicks": 144,
          "midi": 55,
          "name": "G3",
          "ticks": 43584,
          "time": 35.8420515,
          "velocity": 0.47244094488188976
        },
        {
          "duration": 0.2368417499999964,
          "durationTicks": 288,
          "midi": 68,
          "name": "G#4",
          "ticks": 43776,
          "time": 35.999946,
          "velocity": 0.47244094488188976
        },
        {
          "duration": 0.2368417499999964,
          "durationTicks": 288,
          "midi": 56,
          "name": "G#3",
          "ticks": 43776,
          "time": 35.999946,
          "velocity": 0.47244094488188976
        },
        {
          "duration": 0.2368417499999964,
          "durationTicks": 288,
          "midi": 60,
          "name": "C4",
          "ticks": 43776,
          "time": 35.999946,
          "velocity": 0.47244094488188976
        },
        {
          "duration": 0.2368417499999964,
          "durationTicks": 288,
          "midi": 72,
          "name": "C5",
          "ticks": 43776,
          "time": 35.999946,
          "velocity": 0.47244094488188976
        },
        {
          "duration": 0.23684175000000351,
          "durationTicks": 288,
          "midi": 53,
          "name": "F3",
          "ticks": 44160,
          "time": 36.315735,
          "velocity": 0.47244094488188976
        },
        {
          "duration": 0.23684175000000351,
          "durationTicks": 288,
          "midi": 56,
          "name": "G#3",
          "ticks": 44160,
          "time": 36.315735,
          "velocity": 0.47244094488188976
        },
        {
          "duration": 0.23684175000000351,
          "durationTicks": 288,
          "midi": 68,
          "name": "G#4",
          "ticks": 44160,
          "time": 36.315735,
          "velocity": 0.47244094488188976
        },
        {
          "duration": 0.23684175000000351,
          "durationTicks": 288,
          "midi": 65,
          "name": "F4",
          "ticks": 44160,
          "time": 36.315735,
          "velocity": 0.47244094488188976
        },
        {
          "duration": 0.2368417499999964,
          "durationTicks": 288,
          "midi": 67,
          "name": "G4",
          "ticks": 44544,
          "time": 36.631524,
          "velocity": 0.47244094488188976
        },
        {
          "duration": 0.2368417499999964,
          "durationTicks": 288,
          "midi": 70,
          "name": "A#4",
          "ticks": 44544,
          "time": 36.631524,
          "velocity": 0.47244094488188976
        },
        {
          "duration": 0.2368417499999964,
          "durationTicks": 288,
          "midi": 55,
          "name": "G3",
          "ticks": 44544,
          "time": 36.631524,
          "velocity": 0.47244094488188976
        },
        {
          "duration": 0.2368417499999964,
          "durationTicks": 288,
          "midi": 58,
          "name": "A#3",
          "ticks": 44544,
          "time": 36.631524,
          "velocity": 0.47244094488188976
        },
        {
          "duration": 0.1184208749999982,
          "durationTicks": 144,
          "midi": 70,
          "name": "A#4",
          "ticks": 44928,
          "time": 36.947313,
          "velocity": 0.47244094488188976
        },
        {
          "duration": 0.1184208749999982,
          "durationTicks": 144,
          "midi": 67,
          "name": "G4",
          "ticks": 44928,
          "time": 36.947313,
          "velocity": 0.47244094488188976
        },
        {
          "duration": 0.1184208749999982,
          "durationTicks": 144,
          "midi": 58,
          "name": "A#3",
          "ticks": 44928,
          "time": 36.947313,
          "velocity": 0.47244094488188976
        },
        {
          "duration": 0.1184208749999982,
          "durationTicks": 144,
          "midi": 55,
          "name": "G3",
          "ticks": 44928,
          "time": 36.947313,
          "velocity": 0.47244094488188976
        },
        {
          "duration": 0.1184208749999982,
          "durationTicks": 144,
          "midi": 56,
          "name": "G#3",
          "ticks": 45120,
          "time": 37.1052075,
          "velocity": 0.47244094488188976
        },
        {
          "duration": 0.1184208749999982,
          "durationTicks": 144,
          "midi": 68,
          "name": "G#4",
          "ticks": 45120,
          "time": 37.1052075,
          "velocity": 0.47244094488188976
        },
        {
          "duration": 0.1184208749999982,
          "durationTicks": 144,
          "midi": 60,
          "name": "C4",
          "ticks": 45120,
          "time": 37.1052075,
          "velocity": 0.47244094488188976
        },
        {
          "duration": 0.1184208749999982,
          "durationTicks": 144,
          "midi": 72,
          "name": "C5",
          "ticks": 45120,
          "time": 37.1052075,
          "velocity": 0.47244094488188976
        },
        {
          "duration": 0.23684175000000351,
          "durationTicks": 288,
          "midi": 67,
          "name": "G4",
          "ticks": 45312,
          "time": 37.263101999999996,
          "velocity": 0.47244094488188976
        },
        {
          "duration": 0.23684175000000351,
          "durationTicks": 288,
          "midi": 55,
          "name": "G3",
          "ticks": 45312,
          "time": 37.263101999999996,
          "velocity": 0.47244094488188976
        },
        {
          "duration": 0.23684175000000351,
          "durationTicks": 288,
          "midi": 51,
          "name": "D#3",
          "ticks": 45312,
          "time": 37.263101999999996,
          "velocity": 0.47244094488188976
        },
        {
          "duration": 0.23684175000000351,
          "durationTicks": 288,
          "midi": 63,
          "name": "D#4",
          "ticks": 45312,
          "time": 37.263101999999996,
          "velocity": 0.47244094488188976
        },
        {
          "duration": 0.2368417499999964,
          "durationTicks": 288,
          "midi": 51,
          "name": "D#3",
          "ticks": 45696,
          "time": 37.578891,
          "velocity": 0.47244094488188976
        },
        {
          "duration": 0.2368417499999964,
          "durationTicks": 288,
          "midi": 48,
          "name": "C3",
          "ticks": 45696,
          "time": 37.578891,
          "velocity": 0.47244094488188976
        },
        {
          "duration": 0.2368417499999964,
          "durationTicks": 288,
          "midi": 63,
          "name": "D#4",
          "ticks": 45696,
          "time": 37.578891,
          "velocity": 0.47244094488188976
        },
        {
          "duration": 0.2368417499999964,
          "durationTicks": 288,
          "midi": 60,
          "name": "C4",
          "ticks": 45696,
          "time": 37.578891,
          "velocity": 0.47244094488188976
        },
        {
          "duration": 0.2368417499999964,
          "durationTicks": 288,
          "midi": 57,
          "name": "A3",
          "ticks": 46080,
          "time": 37.89468,
          "velocity": 0.47244094488188976
        },
        {
          "duration": 0.2368417499999964,
          "durationTicks": 288,
          "midi": 53,
          "name": "F3",
          "ticks": 46080,
          "time": 37.89468,
          "velocity": 0.47244094488188976
        },
        {
          "duration": 0.2368417499999964,
          "durationTicks": 288,
          "midi": 65,
          "name": "F4",
          "ticks": 46080,
          "time": 37.89468,
          "velocity": 0.47244094488188976
        },
        {
          "duration": 0.2368417499999964,
          "durationTicks": 288,
          "midi": 69,
          "name": "A4",
          "ticks": 46080,
          "time": 37.89468,
          "velocity": 0.47244094488188976
        },
        {
          "duration": 0.11842087500000531,
          "durationTicks": 144,
          "midi": 65,
          "name": "F4",
          "ticks": 46464,
          "time": 38.210468999999996,
          "velocity": 0.47244094488188976
        },
        {
          "duration": 0.11842087500000531,
          "durationTicks": 144,
          "midi": 57,
          "name": "A3",
          "ticks": 46464,
          "time": 38.210468999999996,
          "velocity": 0.47244094488188976
        },
        {
          "duration": 0.11842087500000531,
          "durationTicks": 144,
          "midi": 69,
          "name": "A4",
          "ticks": 46464,
          "time": 38.210468999999996,
          "velocity": 0.47244094488188976
        },
        {
          "duration": 0.11842087500000531,
          "durationTicks": 144,
          "midi": 53,
          "name": "F3",
          "ticks": 46464,
          "time": 38.210468999999996,
          "velocity": 0.47244094488188976
        },
        {
          "duration": 0.1184208749999982,
          "durationTicks": 144,
          "midi": 70,
          "name": "A#4",
          "ticks": 46656,
          "time": 38.3683635,
          "velocity": 0.47244094488188976
        },
        {
          "duration": 0.1184208749999982,
          "durationTicks": 144,
          "midi": 55,
          "name": "G3",
          "ticks": 46656,
          "time": 38.3683635,
          "velocity": 0.47244094488188976
        },
        {
          "duration": 0.1184208749999982,
          "durationTicks": 144,
          "midi": 67,
          "name": "G4",
          "ticks": 46656,
          "time": 38.3683635,
          "velocity": 0.47244094488188976
        },
        {
          "duration": 0.1184208749999982,
          "durationTicks": 144,
          "midi": 58,
          "name": "A#3",
          "ticks": 46656,
          "time": 38.3683635,
          "velocity": 0.47244094488188976
        },
        {
          "duration": 0.2368417499999964,
          "durationTicks": 288,
          "midi": 60,
          "name": "C4",
          "ticks": 46848,
          "time": 38.526258,
          "velocity": 0.47244094488188976
        },
        {
          "duration": 0.2368417499999964,
          "durationTicks": 288,
          "midi": 72,
          "name": "C5",
          "ticks": 46848,
          "time": 38.526258,
          "velocity": 0.47244094488188976
        },
        {
          "duration": 0.2368417499999964,
          "durationTicks": 288,
          "midi": 57,
          "name": "A3",
          "ticks": 46848,
          "time": 38.526258,
          "velocity": 0.47244094488188976
        },
        {
          "duration": 0.2368417499999964,
          "durationTicks": 288,
          "midi": 69,
          "name": "A4",
          "ticks": 46848,
          "time": 38.526258,
          "velocity": 0.47244094488188976
        },
        {
          "duration": 0.2368417499999964,
          "durationTicks": 288,
          "midi": 65,
          "name": "F4",
          "ticks": 47232,
          "time": 38.842047,
          "velocity": 0.47244094488188976
        },
        {
          "duration": 0.2368417499999964,
          "durationTicks": 288,
          "midi": 60,
          "name": "C4",
          "ticks": 47232,
          "time": 38.842047,
          "velocity": 0.47244094488188976
        },
        {
          "duration": 0.2368417499999964,
          "durationTicks": 288,
          "midi": 77,
          "name": "F5",
          "ticks": 47232,
          "time": 38.842047,
          "velocity": 0.47244094488188976
        },
        {
          "duration": 0.2368417499999964,
          "durationTicks": 288,
          "midi": 72,
          "name": "C5",
          "ticks": 47232,
          "time": 38.842047,
          "velocity": 0.47244094488188976
        },
        {
          "duration": 0.3157890000000023,
          "durationTicks": 384,
          "midi": 71,
          "name": "B4",
          "ticks": 47616,
          "time": 39.157835999999996,
          "velocity": 0.47244094488188976
        },
        {
          "duration": 0.3157890000000023,
          "durationTicks": 384,
          "midi": 64,
          "name": "E4",
          "ticks": 47616,
          "time": 39.157835999999996,
          "velocity": 0.47244094488188976
        },
        {
          "duration": 0.3157890000000023,
          "durationTicks": 384,
          "midi": 76,
          "name": "E5",
          "ticks": 47616,
          "time": 39.157835999999996,
          "velocity": 0.47244094488188976
        },
        {
          "duration": 0.3157890000000023,
          "durationTicks": 384,
          "midi": 59,
          "name": "B3",
          "ticks": 47616,
          "time": 39.157835999999996,
          "velocity": 0.47244094488188976
        },
        {
          "duration": 0.3157890000000023,
          "durationTicks": 384,
          "midi": 74,
          "name": "D5",
          "ticks": 48000,
          "time": 39.473625,
          "velocity": 0.47244094488188976
        },
        {
          "duration": 0.3157890000000023,
          "durationTicks": 384,
          "midi": 62,
          "name": "D4",
          "ticks": 48000,
          "time": 39.473625,
          "velocity": 0.47244094488188976
        },
        {
          "duration": 0.3157890000000023,
          "durationTicks": 384,
          "midi": 79,
          "name": "G5",
          "ticks": 48000,
          "time": 39.473625,
          "velocity": 0.47244094488188976
        },
        {
          "duration": 0.3157890000000023,
          "durationTicks": 384,
          "midi": 67,
          "name": "G4",
          "ticks": 48000,
          "time": 39.473625,
          "velocity": 0.47244094488188976
        },
        {
          "duration": 0.4736834999999999,
          "durationTicks": 576,
          "midi": 77,
          "name": "F5",
          "ticks": 48384,
          "time": 39.789414,
          "velocity": 0.47244094488188976
        },
        {
          "duration": 0.4736834999999999,
          "durationTicks": 576,
          "midi": 60,
          "name": "C4",
          "ticks": 48384,
          "time": 39.789414,
          "velocity": 0.47244094488188976
        },
        {
          "duration": 0.4736834999999999,
          "durationTicks": 576,
          "midi": 65,
          "name": "F4",
          "ticks": 48384,
          "time": 39.789414,
          "velocity": 0.47244094488188976
        },
        {
          "duration": 0.4736834999999999,
          "durationTicks": 576,
          "midi": 72,
          "name": "C5",
          "ticks": 48384,
          "time": 39.789414,
          "velocity": 0.47244094488188976
        },
        {
          "duration": 0.3157889999999952,
          "durationTicks": 384,
          "midi": 65,
          "name": "F4",
          "ticks": 61440,
          "time": 50.52624,
          "velocity": 0.47244094488188976
        },
        {
          "duration": 0.3157890000000023,
          "durationTicks": 384,
          "midi": 72,
          "name": "C5",
          "ticks": 61824,
          "time": 50.842029,
          "velocity": 0.47244094488188976
        },
        {
          "duration": 0.3157890000000023,
          "durationTicks": 384,
          "midi": 70,
          "name": "A#4",
          "ticks": 62208,
          "time": 51.157818,
          "velocity": 0.47244094488188976
        },
        {
          "duration": 0.3157889999999952,
          "durationTicks": 384,
          "midi": 65,
          "name": "F4",
          "ticks": 62592,
          "time": 51.473607,
          "velocity": 0.47244094488188976
        },
        {
          "duration": 0.3157890000000023,
          "durationTicks": 384,
          "midi": 67,
          "name": "G4",
          "ticks": 62976,
          "time": 51.789395999999996,
          "velocity": 0.47244094488188976
        },
        {
          "duration": 0.3157890000000023,
          "durationTicks": 384,
          "midi": 67,
          "name": "G4",
          "ticks": 63552,
          "time": 52.263079499999996,
          "velocity": 0.47244094488188976
        },
        {
          "duration": 0.3157890000000023,
          "durationTicks": 384,
          "midi": 68,
          "name": "G#4",
          "ticks": 64128,
          "time": 52.736762999999996,
          "velocity": 0.47244094488188976
        },
        {
          "duration": 0.3157890000000023,
          "durationTicks": 384,
          "midi": 63,
          "name": "D#4",
          "ticks": 64512,
          "time": 53.052552,
          "velocity": 0.47244094488188976
        },
        {
          "duration": 0.3157889999999952,
          "durationTicks": 384,
          "midi": 72,
          "name": "C5",
          "ticks": 64896,
          "time": 53.368341,
          "velocity": 0.47244094488188976
        },
        {
          "duration": 0.3157890000000023,
          "durationTicks": 384,
          "midi": 70,
          "name": "A#4",
          "ticks": 65280,
          "time": 53.684129999999996,
          "velocity": 0.47244094488188976
        },
        {
          "duration": 0.3157890000000023,
          "durationTicks": 384,
          "midi": 65,
          "name": "F4",
          "ticks": 65664,
          "time": 53.999919,
          "velocity": 0.47244094488188976
        },
        {
          "duration": 0.3157889999999952,
          "durationTicks": 384,
          "midi": 67,
          "name": "G4",
          "ticks": 66048,
          "time": 54.315708,
          "velocity": 0.47244094488188976
        },
        {
          "duration": 0.3157889999999952,
          "durationTicks": 384,
          "midi": 67,
          "name": "G4",
          "ticks": 66624,
          "time": 54.7893915,
          "velocity": 0.47244094488188976
        },
        {
          "duration": 0.3157889999999952,
          "durationTicks": 384,
          "midi": 68,
          "name": "G#4",
          "ticks": 67200,
          "time": 55.263075,
          "velocity": 0.47244094488188976
        },
        {
          "duration": 0.3157890000000023,
          "durationTicks": 384,
          "midi": 65,
          "name": "F4",
          "ticks": 67584,
          "time": 55.578863999999996,
          "velocity": 0.47244094488188976
        },
        {
          "duration": 0.3157890000000023,
          "durationTicks": 384,
          "midi": 72,
          "name": "C5",
          "ticks": 67968,
          "time": 55.894653,
          "velocity": 0.47244094488188976
        },
        {
          "duration": 0.3157889999999952,
          "durationTicks": 384,
          "midi": 70,
          "name": "A#4",
          "ticks": 68352,
          "time": 56.210442,
          "velocity": 0.47244094488188976
        },
        {
          "duration": 0.3157890000000023,
          "durationTicks": 384,
          "midi": 65,
          "name": "F4",
          "ticks": 68736,
          "time": 56.526230999999996,
          "velocity": 0.47244094488188976
        },
        {
          "duration": 0.3157890000000023,
          "durationTicks": 384,
          "midi": 67,
          "name": "G4",
          "ticks": 69120,
          "time": 56.84202,
          "velocity": 0.47244094488188976
        },
        {
          "duration": 0.3157890000000023,
          "durationTicks": 384,
          "midi": 67,
          "name": "G4",
          "ticks": 69696,
          "time": 57.3157035,
          "velocity": 0.47244094488188976
        },
        {
          "duration": 0.3157890000000023,
          "durationTicks": 384,
          "midi": 68,
          "name": "G#4",
          "ticks": 70272,
          "time": 57.789387,
          "velocity": 0.47244094488188976
        },
        {
          "duration": 0.1578944999999976,
          "durationTicks": 192,
          "midi": 69,
          "name": "A4",
          "ticks": 70656,
          "time": 58.105176,
          "velocity": 0.47244094488188976
        },
        {
          "duration": 0.1578944999999976,
          "durationTicks": 192,
          "midi": 81,
          "name": "A5",
          "ticks": 70656,
          "time": 58.105176,
          "velocity": 0.47244094488188976
        },
        {
          "duration": 0.11842087500000531,
          "durationTicks": 144,
          "midi": 81,
          "name": "A5",
          "ticks": 71040,
          "time": 58.420964999999995,
          "velocity": 0.47244094488188976
        },
        {
          "duration": 0.11842087500000531,
          "durationTicks": 144,
          "midi": 69,
          "name": "A4",
          "ticks": 71040,
          "time": 58.420964999999995,
          "velocity": 0.47244094488188976
        },
        {
          "duration": 0.1184208749999982,
          "durationTicks": 144,
          "midi": 70,
          "name": "A#4",
          "ticks": 71232,
          "time": 58.5788595,
          "velocity": 0.47244094488188976
        },
        {
          "duration": 0.1184208749999982,
          "durationTicks": 144,
          "midi": 82,
          "name": "A#5",
          "ticks": 71232,
          "time": 58.5788595,
          "velocity": 0.47244094488188976
        },
        {
          "duration": 0.2368417499999964,
          "durationTicks": 288,
          "midi": 84,
          "name": "C6",
          "ticks": 71424,
          "time": 58.736754,
          "velocity": 0.47244094488188976
        },
        {
          "duration": 0.2368417499999964,
          "durationTicks": 288,
          "midi": 72,
          "name": "C5",
          "ticks": 71424,
          "time": 58.736754,
          "velocity": 0.47244094488188976
        },
        {
          "duration": 0.3157889999999952,
          "durationTicks": 384,
          "midi": 77,
          "name": "F5",
          "ticks": 71808,
          "time": 59.052543,
          "velocity": 0.47244094488188976
        },
        {
          "duration": 0.3157889999999952,
          "durationTicks": 384,
          "midi": 89,
          "name": "F6",
          "ticks": 71808,
          "time": 59.052543,
          "velocity": 0.47244094488188976
        },
        {
          "duration": 0.6315780000000046,
          "durationTicks": 768,
          "midi": 74,
          "name": "D5",
          "ticks": 72192,
          "time": 59.368331999999995,
          "velocity": 0.47244094488188976
        },
        {
          "duration": 0.6315780000000046,
          "durationTicks": 768,
          "midi": 86,
          "name": "D6",
          "ticks": 72192,
          "time": 59.368331999999995,
          "velocity": 0.47244094488188976
        },
        {
          "duration": 0.0986840624999985,
          "durationTicks": 120,
          "midi": 72,
          "name": "C5",
          "ticks": 72960,
          "time": 59.99991,
          "velocity": 0.3779527559055118
        },
        {
          "duration": 0.0986840624999985,
          "durationTicks": 120,
          "midi": 84,
          "name": "C6",
          "ticks": 72960,
          "time": 59.99991,
          "velocity": 0.3779527559055118
        },
        {
          "duration": 0.0986840624999985,
          "durationTicks": 120,
          "midi": 84,
          "name": "C6",
          "ticks": 73152,
          "time": 60.1578045,
          "velocity": 0.47244094488188976
        },
        {
          "duration": 0.0986840624999985,
          "durationTicks": 120,
          "midi": 72,
          "name": "C5",
          "ticks": 73152,
          "time": 60.1578045,
          "velocity": 0.47244094488188976
        },
        {
          "duration": 0.09868406250000561,
          "durationTicks": 120,
          "midi": 84,
          "name": "C6",
          "ticks": 73344,
          "time": 60.315698999999995,
          "velocity": 0.5669291338582677
        },
        {
          "duration": 0.09868406250000561,
          "durationTicks": 120,
          "midi": 72,
          "name": "C5",
          "ticks": 73344,
          "time": 60.315698999999995,
          "velocity": 0.5669291338582677
        },
        {
          "duration": 0.0986840624999985,
          "durationTicks": 120,
          "midi": 72,
          "name": "C5",
          "ticks": 73536,
          "time": 60.4735935,
          "velocity": 0.6614173228346457
        },
        {
          "duration": 0.0986840624999985,
          "durationTicks": 120,
          "midi": 84,
          "name": "C6",
          "ticks": 73536,
          "time": 60.4735935,
          "velocity": 0.6614173228346457
        },
        {
          "duration": 0.1578944999999976,
          "durationTicks": 192,
          "midi": 56,
          "name": "G#3",
          "ticks": 73728,
          "time": 60.631488,
          "velocity": 0.47244094488188976
        },
        {
          "duration": 0.1578944999999976,
          "durationTicks": 192,
          "midi": 68,
          "name": "G#4",
          "ticks": 73728,
          "time": 60.631488,
          "velocity": 0.47244094488188976
        },
        {
          "duration": 0.1578944999999976,
          "durationTicks": 192,
          "midi": 56,
          "name": "G#3",
          "ticks": 74112,
          "time": 60.947277,
          "velocity": 0.47244094488188976
        },
        {
          "duration": 0.1578944999999976,
          "durationTicks": 192,
          "midi": 68,
          "name": "G#4",
          "ticks": 74112,
          "time": 60.947277,
          "velocity": 0.47244094488188976
        },
        {
          "duration": 0.1578944999999976,
          "durationTicks": 192,
          "midi": 70,
          "name": "A#4",
          "ticks": 74304,
          "time": 61.1051715,
          "velocity": 0.47244094488188976
        },
        {
          "duration": 0.1578944999999976,
          "durationTicks": 192,
          "midi": 58,
          "name": "A#3",
          "ticks": 74304,
          "time": 61.1051715,
          "velocity": 0.47244094488188976
        },
        {
          "duration": 0.1578945000000047,
          "durationTicks": 192,
          "midi": 72,
          "name": "C5",
          "ticks": 74496,
          "time": 61.263065999999995,
          "velocity": 0.47244094488188976
        },
        {
          "duration": 0.1578945000000047,
          "durationTicks": 192,
          "midi": 60,
          "name": "C4",
          "ticks": 74496,
          "time": 61.263065999999995,
          "velocity": 0.47244094488188976
        },
        {
          "duration": 0.1578944999999976,
          "durationTicks": 192,
          "midi": 68,
          "name": "G#4",
          "ticks": 74880,
          "time": 61.578855,
          "velocity": 0.47244094488188976
        },
        {
          "duration": 0.1578944999999976,
          "durationTicks": 192,
          "midi": 56,
          "name": "G#3",
          "ticks": 74880,
          "time": 61.578855,
          "velocity": 0.47244094488188976
        },
        {
          "duration": 0.1578944999999976,
          "durationTicks": 192,
          "midi": 70,
          "name": "A#4",
          "ticks": 75264,
          "time": 61.894644,
          "velocity": 0.47244094488188976
        },
        {
          "duration": 0.1578944999999976,
          "durationTicks": 192,
          "midi": 58,
          "name": "A#3",
          "ticks": 75264,
          "time": 61.894644,
          "velocity": 0.47244094488188976
        },
        {
          "duration": 0.1578945000000047,
          "durationTicks": 192,
          "midi": 58,
          "name": "A#3",
          "ticks": 75648,
          "time": 62.210432999999995,
          "velocity": 0.47244094488188976
        },
        {
          "duration": 0.1578945000000047,
          "durationTicks": 192,
          "midi": 70,
          "name": "A#4",
          "ticks": 75648,
          "time": 62.210432999999995,
          "velocity": 0.47244094488188976
        },
        {
          "duration": 0.1578944999999976,
          "durationTicks": 192,
          "midi": 72,
          "name": "C5",
          "ticks": 75840,
          "time": 62.3683275,
          "velocity": 0.47244094488188976
        },
        {
          "duration": 0.1578944999999976,
          "durationTicks": 192,
          "midi": 60,
          "name": "C4",
          "ticks": 75840,
          "time": 62.3683275,
          "velocity": 0.47244094488188976
        },
        {
          "duration": 0.1578944999999976,
          "durationTicks": 192,
          "midi": 55,
          "name": "G3",
          "ticks": 76032,
          "time": 62.526222,
          "velocity": 0.47244094488188976
        },
        {
          "duration": 0.1578944999999976,
          "durationTicks": 192,
          "midi": 67,
          "name": "G4",
          "ticks": 76032,
          "time": 62.526222,
          "velocity": 0.47244094488188976
        },
        {
          "duration": 0.1578944999999976,
          "durationTicks": 192,
          "midi": 63,
          "name": "D#4",
          "ticks": 76416,
          "time": 62.842011,
          "velocity": 0.47244094488188976
        },
        {
          "duration": 0.1578944999999976,
          "durationTicks": 192,
          "midi": 51,
          "name": "D#3",
          "ticks": 76416,
          "time": 62.842011,
          "velocity": 0.47244094488188976
        },
        {
          "duration": 0.1578945000000047,
          "durationTicks": 192,
          "midi": 56,
          "name": "G#3",
          "ticks": 76800,
          "time": 63.157799999999995,
          "velocity": 0.47244094488188976
        },
        {
          "duration": 0.1578945000000047,
          "durationTicks": 192,
          "midi": 68,
          "name": "G#4",
          "ticks": 76800,
          "time": 63.157799999999995,
          "velocity": 0.47244094488188976
        },
        {
          "duration": 0.1578944999999976,
          "durationTicks": 192,
          "midi": 56,
          "name": "G#3",
          "ticks": 77184,
          "time": 63.473589,
          "velocity": 0.47244094488188976
        },
        {
          "duration": 0.1578944999999976,
          "durationTicks": 192,
          "midi": 68,
          "name": "G#4",
          "ticks": 77184,
          "time": 63.473589,
          "velocity": 0.47244094488188976
        },
        {
          "duration": 0.1578945000000047,
          "durationTicks": 192,
          "midi": 70,
          "name": "A#4",
          "ticks": 77376,
          "time": 63.631483499999995,
          "velocity": 0.47244094488188976
        },
        {
          "duration": 0.1578945000000047,
          "durationTicks": 192,
          "midi": 58,
          "name": "A#3",
          "ticks": 77376,
          "time": 63.631483499999995,
          "velocity": 0.47244094488188976
        },
        {
          "duration": 0.1578944999999976,
          "durationTicks": 192,
          "midi": 72,
          "name": "C5",
          "ticks": 77568,
          "time": 63.789378,
          "velocity": 0.47244094488188976
        },
        {
          "duration": 0.1578944999999976,
          "durationTicks": 192,
          "midi": 60,
          "name": "C4",
          "ticks": 77568,
          "time": 63.789378,
          "velocity": 0.47244094488188976
        },
        {
          "duration": 0.1578944999999976,
          "durationTicks": 192,
          "midi": 68,
          "name": "G#4",
          "ticks": 77760,
          "time": 63.9472725,
          "velocity": 0.47244094488188976
        },
        {
          "duration": 0.1578944999999976,
          "durationTicks": 192,
          "midi": 56,
          "name": "G#3",
          "ticks": 77760,
          "time": 63.9472725,
          "velocity": 0.47244094488188976
        },
        {
          "duration": 0.1578944999999976,
          "durationTicks": 192,
          "midi": 72,
          "name": "C5",
          "ticks": 77952,
          "time": 64.105167,
          "velocity": 0.47244094488188976
        },
        {
          "duration": 0.1578944999999976,
          "durationTicks": 192,
          "midi": 60,
          "name": "C4",
          "ticks": 77952,
          "time": 64.105167,
          "velocity": 0.47244094488188976
        },
        {
          "duration": 0.15789450000001182,
          "durationTicks": 192,
          "midi": 68,
          "name": "G#4",
          "ticks": 78144,
          "time": 64.26306149999999,
          "velocity": 0.47244094488188976
        },
        {
          "duration": 0.15789450000001182,
          "durationTicks": 192,
          "midi": 80,
          "name": "G#5",
          "ticks": 78144,
          "time": 64.26306149999999,
          "velocity": 0.47244094488188976
        },
        {
          "duration": 0.3157889999999952,
          "durationTicks": 384,
          "midi": 67,
          "name": "G4",
          "ticks": 78336,
          "time": 64.420956,
          "velocity": 0.47244094488188976
        },
        {
          "duration": 0.3157889999999952,
          "durationTicks": 384,
          "midi": 79,
          "name": "G5",
          "ticks": 78336,
          "time": 64.420956,
          "velocity": 0.47244094488188976
        },
        {
          "duration": 0.3157889999999952,
          "durationTicks": 384,
          "midi": 63,
          "name": "D#4",
          "ticks": 78720,
          "time": 64.736745,
          "velocity": 0.47244094488188976
        },
        {
          "duration": 0.3157889999999952,
          "durationTicks": 384,
          "midi": 75,
          "name": "D#5",
          "ticks": 78720,
          "time": 64.736745,
          "velocity": 0.47244094488188976
        },
        {
          "duration": 0.3157890000000094,
          "durationTicks": 384,
          "midi": 70,
          "name": "A#4",
          "ticks": 79104,
          "time": 65.052534,
          "velocity": 0.47244094488188976
        },
        {
          "duration": 0.3157890000000094,
          "durationTicks": 384,
          "midi": 58,
          "name": "A#3",
          "ticks": 79104,
          "time": 65.052534,
          "velocity": 0.47244094488188976
        },
        {
          "duration": 0.3157889999999952,
          "durationTicks": 384,
          "midi": 55,
          "name": "G3",
          "ticks": 79488,
          "time": 65.368323,
          "velocity": 0.47244094488188976
        },
        {
          "duration": 0.3157889999999952,
          "durationTicks": 384,
          "midi": 67,
          "name": "G4",
          "ticks": 79488,
          "time": 65.368323,
          "velocity": 0.47244094488188976
        },
        {
          "duration": 0.4736834999999928,
          "durationTicks": 576,
          "midi": 68,
          "name": "G#4",
          "ticks": 79872,
          "time": 65.684112,
          "velocity": 0.47244094488188976
        },
        {
          "duration": 0.4736834999999928,
          "durationTicks": 576,
          "midi": 56,
          "name": "G#3",
          "ticks": 79872,
          "time": 65.684112,
          "velocity": 0.47244094488188976
        },
        {
          "duration": 0.15789450000001182,
          "durationTicks": 192,
          "midi": 63,
          "name": "D#4",
          "ticks": 80448,
          "time": 66.15779549999999,
          "velocity": 0.47244094488188976
        },
        {
          "duration": 0.15789450000001182,
          "durationTicks": 192,
          "midi": 75,
          "name": "D#5",
          "ticks": 80448,
          "time": 66.15779549999999,
          "velocity": 0.47244094488188976
        },
        {
          "duration": 0.1578944999999976,
          "durationTicks": 192,
          "midi": 65,
          "name": "F4",
          "ticks": 80640,
          "time": 66.31569,
          "velocity": 0.47244094488188976
        },
        {
          "duration": 0.1578944999999976,
          "durationTicks": 192,
          "midi": 77,
          "name": "F5",
          "ticks": 80640,
          "time": 66.31569,
          "velocity": 0.47244094488188976
        },
        {
          "duration": 0.1578944999999976,
          "durationTicks": 192,
          "midi": 60,
          "name": "C4",
          "ticks": 81024,
          "time": 66.631479,
          "velocity": 0.47244094488188976
        },
        {
          "duration": 0.1578944999999976,
          "durationTicks": 192,
          "midi": 72,
          "name": "C5",
          "ticks": 81024,
          "time": 66.631479,
          "velocity": 0.47244094488188976
        },
        {
          "duration": 0.2368417499999964,
          "durationTicks": 288,
          "midi": 58,
          "name": "A#3",
          "ticks": 81408,
          "time": 66.947268,
          "velocity": 0.47244094488188976
        },
        {
          "duration": 0.2368417499999964,
          "durationTicks": 288,
          "midi": 70,
          "name": "A#4",
          "ticks": 81408,
          "time": 66.947268,
          "velocity": 0.47244094488188976
        },
        {
          "duration": 0.1578944999999976,
          "durationTicks": 192,
          "midi": 58,
          "name": "A#3",
          "ticks": 81792,
          "time": 67.263057,
          "velocity": 0.47244094488188976
        },
        {
          "duration": 0.1578944999999976,
          "durationTicks": 192,
          "midi": 70,
          "name": "A#4",
          "ticks": 81792,
          "time": 67.263057,
          "velocity": 0.47244094488188976
        },
        {
          "duration": 0.1578944999999976,
          "durationTicks": 192,
          "midi": 60,
          "name": "C4",
          "ticks": 81984,
          "time": 67.4209515,
          "velocity": 0.47244094488188976
        },
        {
          "duration": 0.1578944999999976,
          "durationTicks": 192,
          "midi": 72,
          "name": "C5",
          "ticks": 81984,
          "time": 67.4209515,
          "velocity": 0.47244094488188976
        },
        {
          "duration": 0.2368417499999964,
          "durationTicks": 288,
          "midi": 58,
          "name": "A#3",
          "ticks": 82176,
          "time": 67.578846,
          "velocity": 0.47244094488188976
        },
        {
          "duration": 0.2368417499999964,
          "durationTicks": 288,
          "midi": 70,
          "name": "A#4",
          "ticks": 82176,
          "time": 67.578846,
          "velocity": 0.47244094488188976
        },
        {
          "duration": 0.2368417499999964,
          "durationTicks": 288,
          "midi": 56,
          "name": "G#3",
          "ticks": 82560,
          "time": 67.894635,
          "velocity": 0.47244094488188976
        },
        {
          "duration": 0.2368417499999964,
          "durationTicks": 288,
          "midi": 68,
          "name": "G#4",
          "ticks": 82560,
          "time": 67.894635,
          "velocity": 0.47244094488188976
        },
        {
          "duration": 0.2368417499999964,
          "durationTicks": 288,
          "midi": 58,
          "name": "A#3",
          "ticks": 82944,
          "time": 68.210424,
          "velocity": 0.47244094488188976
        },
        {
          "duration": 0.2368417499999964,
          "durationTicks": 288,
          "midi": 70,
          "name": "A#4",
          "ticks": 82944,
          "time": 68.210424,
          "velocity": 0.47244094488188976
        },
        {
          "duration": 0.1578944999999976,
          "durationTicks": 192,
          "midi": 58,
          "name": "A#3",
          "ticks": 83328,
          "time": 68.526213,
          "velocity": 0.47244094488188976
        },
        {
          "duration": 0.1578944999999976,
          "durationTicks": 192,
          "midi": 70,
          "name": "A#4",
          "ticks": 83328,
          "time": 68.526213,
          "velocity": 0.47244094488188976
        },
        {
          "duration": 0.1578944999999976,
          "durationTicks": 192,
          "midi": 60,
          "name": "C4",
          "ticks": 83520,
          "time": 68.6841075,
          "velocity": 0.47244094488188976
        },
        {
          "duration": 0.1578944999999976,
          "durationTicks": 192,
          "midi": 72,
          "name": "C5",
          "ticks": 83520,
          "time": 68.6841075,
          "velocity": 0.47244094488188976
        },
        {
          "duration": 0.2368417499999964,
          "durationTicks": 288,
          "midi": 58,
          "name": "A#3",
          "ticks": 83712,
          "time": 68.842002,
          "velocity": 0.47244094488188976
        },
        {
          "duration": 0.2368417499999964,
          "durationTicks": 288,
          "midi": 70,
          "name": "A#4",
          "ticks": 83712,
          "time": 68.842002,
          "velocity": 0.47244094488188976
        },
        {
          "duration": 0.2368417499999964,
          "durationTicks": 288,
          "midi": 68,
          "name": "G#4",
          "ticks": 84096,
          "time": 69.157791,
          "velocity": 0.47244094488188976
        },
        {
          "duration": 0.2368417499999964,
          "durationTicks": 288,
          "midi": 56,
          "name": "G#3",
          "ticks": 84096,
          "time": 69.157791,
          "velocity": 0.47244094488188976
        },
        {
          "duration": 0.6315780000000046,
          "durationTicks": 768,
          "midi": 58,
          "name": "A#3",
          "ticks": 84480,
          "time": 69.47358,
          "velocity": 0.47244094488188976
        },
        {
          "duration": 0.6315780000000046,
          "durationTicks": 768,
          "midi": 70,
          "name": "A#4",
          "ticks": 84480,
          "time": 69.47358,
          "velocity": 0.47244094488188976
        },
        {
          "duration": 0.6315779999999904,
          "durationTicks": 768,
          "midi": 60,
          "name": "C4",
          "ticks": 85248,
          "time": 70.105158,
          "velocity": 0.47244094488188976
        },
        {
          "duration": 0.6315779999999904,
          "durationTicks": 768,
          "midi": 72,
          "name": "C5",
          "ticks": 85248,
          "time": 70.105158,
          "velocity": 0.47244094488188976
        },
        {
          "duration": 0.1578944999999976,
          "durationTicks": 192,
          "midi": 56,
          "name": "G#3",
          "ticks": 86016,
          "time": 70.736736,
          "velocity": 0.47244094488188976
        },
        {
          "duration": 0.1578944999999976,
          "durationTicks": 192,
          "midi": 68,
          "name": "G#4",
          "ticks": 86016,
          "time": 70.736736,
          "velocity": 0.47244094488188976
        },
        {
          "duration": 0.1578944999999976,
          "durationTicks": 192,
          "midi": 68,
          "name": "G#4",
          "ticks": 86400,
          "time": 71.052525,
          "velocity": 0.47244094488188976
        },
        {
          "duration": 0.1578944999999976,
          "durationTicks": 192,
          "midi": 56,
          "name": "G#3",
          "ticks": 86400,
          "time": 71.052525,
          "velocity": 0.47244094488188976
        },
        {
          "duration": 0.1578944999999976,
          "durationTicks": 192,
          "midi": 58,
          "name": "A#3",
          "ticks": 86592,
          "time": 71.2104195,
          "velocity": 0.47244094488188976
        },
        {
          "duration": 0.1578944999999976,
          "durationTicks": 192,
          "midi": 70,
          "name": "A#4",
          "ticks": 86592,
          "time": 71.2104195,
          "velocity": 0.47244094488188976
        },
        {
          "duration": 0.1578944999999976,
          "durationTicks": 192,
          "midi": 60,
          "name": "C4",
          "ticks": 86784,
          "time": 71.368314,
          "velocity": 0.47244094488188976
        },
        {
          "duration": 0.1578944999999976,
          "durationTicks": 192,
          "midi": 72,
          "name": "C5",
          "ticks": 86784,
          "time": 71.368314,
          "velocity": 0.47244094488188976
        },
        {
          "duration": 0.1578944999999976,
          "durationTicks": 192,
          "midi": 68,
          "name": "G#4",
          "ticks": 87168,
          "time": 71.684103,
          "velocity": 0.47244094488188976
        },
        {
          "duration": 0.1578944999999976,
          "durationTicks": 192,
          "midi": 56,
          "name": "G#3",
          "ticks": 87168,
          "time": 71.684103,
          "velocity": 0.47244094488188976
        },
        {
          "duration": 0.1578944999999976,
          "durationTicks": 192,
          "midi": 58,
          "name": "A#3",
          "ticks": 87552,
          "time": 71.999892,
          "velocity": 0.47244094488188976
        },
        {
          "duration": 0.1578944999999976,
          "durationTicks": 192,
          "midi": 70,
          "name": "A#4",
          "ticks": 87552,
          "time": 71.999892,
          "velocity": 0.47244094488188976
        },
        {
          "duration": 0.1578944999999976,
          "durationTicks": 192,
          "midi": 58,
          "name": "A#3",
          "ticks": 87936,
          "time": 72.315681,
          "velocity": 0.47244094488188976
        },
        {
          "duration": 0.1578944999999976,
          "durationTicks": 192,
          "midi": 70,
          "name": "A#4",
          "ticks": 87936,
          "time": 72.315681,
          "velocity": 0.47244094488188976
        },
        {
          "duration": 0.1578944999999976,
          "durationTicks": 192,
          "midi": 60,
          "name": "C4",
          "ticks": 88128,
          "time": 72.4735755,
          "velocity": 0.47244094488188976
        },
        {
          "duration": 0.1578944999999976,
          "durationTicks": 192,
          "midi": 72,
          "name": "C5",
          "ticks": 88128,
          "time": 72.4735755,
          "velocity": 0.47244094488188976
        },
        {
          "duration": 0.23684175000001062,
          "durationTicks": 288,
          "midi": 55,
          "name": "G3",
          "ticks": 88320,
          "time": 72.63147,
          "velocity": 0.47244094488188976
        },
        {
          "duration": 0.23684175000001062,
          "durationTicks": 288,
          "midi": 67,
          "name": "G4",
          "ticks": 88320,
          "time": 72.63147,
          "velocity": 0.47244094488188976
        },
        {
          "duration": 0.0789472499999988,
          "durationTicks": 96,
          "midi": 56,
          "name": "G#3",
          "ticks": 88608,
          "time": 72.86831175,
          "velocity": 0.47244094488188976
        },
        {
          "duration": 0.0789472499999988,
          "durationTicks": 96,
          "midi": 68,
          "name": "G#4",
          "ticks": 88608,
          "time": 72.86831175,
          "velocity": 0.47244094488188976
        },
        {
          "duration": 0.1578944999999976,
          "durationTicks": 192,
          "midi": 51,
          "name": "D#3",
          "ticks": 88704,
          "time": 72.947259,
          "velocity": 0.47244094488188976
        },
        {
          "duration": 0.1578944999999976,
          "durationTicks": 192,
          "midi": 63,
          "name": "D#4",
          "ticks": 88704,
          "time": 72.947259,
          "velocity": 0.47244094488188976
        },
        {
          "duration": 0.1578944999999976,
          "durationTicks": 192,
          "midi": 55,
          "name": "G3",
          "ticks": 88896,
          "time": 73.1051535,
          "velocity": 0.47244094488188976
        },
        {
          "duration": 0.1578944999999976,
          "durationTicks": 192,
          "midi": 67,
          "name": "G4",
          "ticks": 88896,
          "time": 73.1051535,
          "velocity": 0.47244094488188976
        },
        {
          "duration": 0.1578944999999976,
          "durationTicks": 192,
          "midi": 56,
          "name": "G#3",
          "ticks": 89088,
          "time": 73.263048,
          "velocity": 0.47244094488188976
        },
        {
          "duration": 0.1578944999999976,
          "durationTicks": 192,
          "midi": 68,
          "name": "G#4",
          "ticks": 89088,
          "time": 73.263048,
          "velocity": 0.47244094488188976
        },
        {
          "duration": 0.1578944999999976,
          "durationTicks": 192,
          "midi": 68,
          "name": "G#4",
          "ticks": 89472,
          "time": 73.578837,
          "velocity": 0.47244094488188976
        },
        {
          "duration": 0.1578944999999976,
          "durationTicks": 192,
          "midi": 56,
          "name": "G#3",
          "ticks": 89472,
          "time": 73.578837,
          "velocity": 0.47244094488188976
        },
        {
          "duration": 0.15789450000001182,
          "durationTicks": 192,
          "midi": 58,
          "name": "A#3",
          "ticks": 89664,
          "time": 73.73673149999999,
          "velocity": 0.47244094488188976
        },
        {
          "duration": 0.15789450000001182,
          "durationTicks": 192,
          "midi": 70,
          "name": "A#4",
          "ticks": 89664,
          "time": 73.73673149999999,
          "velocity": 0.47244094488188976
        },
        {
          "duration": 0.1578944999999976,
          "durationTicks": 192,
          "midi": 60,
          "name": "C4",
          "ticks": 89856,
          "time": 73.894626,
          "velocity": 0.47244094488188976
        },
        {
          "duration": 0.1578944999999976,
          "durationTicks": 192,
          "midi": 72,
          "name": "C5",
          "ticks": 89856,
          "time": 73.894626,
          "velocity": 0.47244094488188976
        },
        {
          "duration": 0.1578944999999976,
          "durationTicks": 192,
          "midi": 68,
          "name": "G#4",
          "ticks": 90048,
          "time": 74.0525205,
          "velocity": 0.47244094488188976
        },
        {
          "duration": 0.1578944999999976,
          "durationTicks": 192,
          "midi": 56,
          "name": "G#3",
          "ticks": 90048,
          "time": 74.0525205,
          "velocity": 0.47244094488188976
        },
        {
          "duration": 0.1578944999999976,
          "durationTicks": 192,
          "midi": 60,
          "name": "C4",
          "ticks": 90240,
          "time": 74.210415,
          "velocity": 0.47244094488188976
        },
        {
          "duration": 0.1578944999999976,
          "durationTicks": 192,
          "midi": 72,
          "name": "C5",
          "ticks": 90240,
          "time": 74.210415,
          "velocity": 0.47244094488188976
        },
        {
          "duration": 0.1578944999999976,
          "durationTicks": 192,
          "midi": 68,
          "name": "G#4",
          "ticks": 90432,
          "time": 74.3683095,
          "velocity": 0.47244094488188976
        },
        {
          "duration": 0.1578944999999976,
          "durationTicks": 192,
          "midi": 80,
          "name": "G#5",
          "ticks": 90432,
          "time": 74.3683095,
          "velocity": 0.47244094488188976
        },
        {
          "duration": 0.3157890000000094,
          "durationTicks": 384,
          "midi": 79,
          "name": "G5",
          "ticks": 90624,
          "time": 74.52620399999999,
          "velocity": 0.47244094488188976
        },
        {
          "duration": 0.3157890000000094,
          "durationTicks": 384,
          "midi": 67,
          "name": "G4",
          "ticks": 90624,
          "time": 74.52620399999999,
          "velocity": 0.47244094488188976
        },
        {
          "duration": 0.3157889999999952,
          "durationTicks": 384,
          "midi": 63,
          "name": "D#4",
          "ticks": 91008,
          "time": 74.841993,
          "velocity": 0.47244094488188976
        },
        {
          "duration": 0.3157889999999952,
          "durationTicks": 384,
          "midi": 75,
          "name": "D#5",
          "ticks": 91008,
          "time": 74.841993,
          "velocity": 0.47244094488188976
        },
        {
          "duration": 0.3157889999999952,
          "durationTicks": 384,
          "midi": 58,
          "name": "A#3",
          "ticks": 91392,
          "time": 75.157782,
          "velocity": 0.47244094488188976
        },
        {
          "duration": 0.3157889999999952,
          "durationTicks": 384,
          "midi": 70,
          "name": "A#4",
          "ticks": 91392,
          "time": 75.157782,
          "velocity": 0.47244094488188976
        },
        {
          "duration": 0.3157890000000094,
          "durationTicks": 384,
          "midi": 55,
          "name": "G3",
          "ticks": 91776,
          "time": 75.47357099999999,
          "velocity": 0.47244094488188976
        },
        {
          "duration": 0.3157890000000094,
          "durationTicks": 384,
          "midi": 67,
          "name": "G4",
          "ticks": 91776,
          "time": 75.47357099999999,
          "velocity": 0.47244094488188976
        },
        {
          "duration": 0.4736834999999928,
          "durationTicks": 576,
          "midi": 56,
          "name": "G#3",
          "ticks": 92160,
          "time": 75.78936,
          "velocity": 0.47244094488188976
        },
        {
          "duration": 0.4736834999999928,
          "durationTicks": 576,
          "midi": 68,
          "name": "G#4",
          "ticks": 92160,
          "time": 75.78936,
          "velocity": 0.47244094488188976
        },
        {
          "duration": 0.1578944999999976,
          "durationTicks": 192,
          "midi": 63,
          "name": "D#4",
          "ticks": 92736,
          "time": 76.2630435,
          "velocity": 0.47244094488188976
        },
        {
          "duration": 0.1578944999999976,
          "durationTicks": 192,
          "midi": 75,
          "name": "D#5",
          "ticks": 92736,
          "time": 76.2630435,
          "velocity": 0.47244094488188976
        },
        {
          "duration": 0.1578944999999976,
          "durationTicks": 192,
          "midi": 77,
          "name": "F5",
          "ticks": 92928,
          "time": 76.42093799999999,
          "velocity": 0.47244094488188976
        },
        {
          "duration": 0.1578944999999976,
          "durationTicks": 192,
          "midi": 65,
          "name": "F4",
          "ticks": 92928,
          "time": 76.42093799999999,
          "velocity": 0.47244094488188976
        },
        {
          "duration": 0.1578944999999976,
          "durationTicks": 192,
          "midi": 60,
          "name": "C4",
          "ticks": 93312,
          "time": 76.736727,
          "velocity": 0.47244094488188976
        },
        {
          "duration": 0.1578944999999976,
          "durationTicks": 192,
          "midi": 72,
          "name": "C5",
          "ticks": 93312,
          "time": 76.736727,
          "velocity": 0.47244094488188976
        },
        {
          "duration": 0.2368417499999964,
          "durationTicks": 288,
          "midi": 70,
          "name": "A#4",
          "ticks": 93696,
          "time": 77.052516,
          "velocity": 0.47244094488188976
        },
        {
          "duration": 0.2368417499999964,
          "durationTicks": 288,
          "midi": 58,
          "name": "A#3",
          "ticks": 93696,
          "time": 77.052516,
          "velocity": 0.47244094488188976
        },
        {
          "duration": 0.1578944999999976,
          "durationTicks": 192,
          "midi": 70,
          "name": "A#4",
          "ticks": 94080,
          "time": 77.36830499999999,
          "velocity": 0.47244094488188976
        },
        {
          "duration": 0.1578944999999976,
          "durationTicks": 192,
          "midi": 58,
          "name": "A#3",
          "ticks": 94080,
          "time": 77.36830499999999,
          "velocity": 0.47244094488188976
        },
        {
          "duration": 0.15789450000001182,
          "durationTicks": 192,
          "midi": 72,
          "name": "C5",
          "ticks": 94272,
          "time": 77.52619949999999,
          "velocity": 0.47244094488188976
        },
        {
          "duration": 0.15789450000001182,
          "durationTicks": 192,
          "midi": 60,
          "name": "C4",
          "ticks": 94272,
          "time": 77.52619949999999,
          "velocity": 0.47244094488188976
        },
        {
          "duration": 0.2368417499999964,
          "durationTicks": 288,
          "midi": 58,
          "name": "A#3",
          "ticks": 94464,
          "time": 77.684094,
          "velocity": 0.47244094488188976
        },
        {
          "duration": 0.2368417499999964,
          "durationTicks": 288,
          "midi": 70,
          "name": "A#4",
          "ticks": 94464,
          "time": 77.684094,
          "velocity": 0.47244094488188976
        },
        {
          "duration": 0.2368417499999964,
          "durationTicks": 288,
          "midi": 56,
          "name": "G#3",
          "ticks": 94848,
          "time": 77.999883,
          "velocity": 0.47244094488188976
        },
        {
          "duration": 0.2368417499999964,
          "durationTicks": 288,
          "midi": 68,
          "name": "G#4",
          "ticks": 94848,
          "time": 77.999883,
          "velocity": 0.47244094488188976
        },
        {
          "duration": 0.23684175000001062,
          "durationTicks": 288,
          "midi": 58,
          "name": "A#3",
          "ticks": 95232,
          "time": 78.31567199999999,
          "velocity": 0.47244094488188976
        },
        {
          "duration": 0.23684175000001062,
          "durationTicks": 288,
          "midi": 70,
          "name": "A#4",
          "ticks": 95232,
          "time": 78.31567199999999,
          "velocity": 0.47244094488188976
        },
        {
          "duration": 0.1578944999999976,
          "durationTicks": 192,
          "midi": 70,
          "name": "A#4",
          "ticks": 95616,
          "time": 78.631461,
          "velocity": 0.47244094488188976
        },
        {
          "duration": 0.1578944999999976,
          "durationTicks": 192,
          "midi": 58,
          "name": "A#3",
          "ticks": 95616,
          "time": 78.631461,
          "velocity": 0.47244094488188976
        },
        {
          "duration": 0.1578944999999976,
          "durationTicks": 192,
          "midi": 72,
          "name": "C5",
          "ticks": 95808,
          "time": 78.7893555,
          "velocity": 0.47244094488188976
        },
        {
          "duration": 0.1578944999999976,
          "durationTicks": 192,
          "midi": 60,
          "name": "C4",
          "ticks": 95808,
          "time": 78.7893555,
          "velocity": 0.47244094488188976
        },
        {
          "duration": 0.2368417499999964,
          "durationTicks": 288,
          "midi": 58,
          "name": "A#3",
          "ticks": 96000,
          "time": 78.94725,
          "velocity": 0.47244094488188976
        },
        {
          "duration": 0.2368417499999964,
          "durationTicks": 288,
          "midi": 70,
          "name": "A#4",
          "ticks": 96000,
          "time": 78.94725,
          "velocity": 0.47244094488188976
        },
        {
          "duration": 0.23684175000001062,
          "durationTicks": 288,
          "midi": 56,
          "name": "G#3",
          "ticks": 96384,
          "time": 79.26303899999999,
          "velocity": 0.47244094488188976
        },
        {
          "duration": 0.23684175000001062,
          "durationTicks": 288,
          "midi": 68,
          "name": "G#4",
          "ticks": 96384,
          "time": 79.26303899999999,
          "velocity": 0.47244094488188976
        },
        {
          "duration": 0.6315779999999904,
          "durationTicks": 768,
          "midi": 58,
          "name": "A#3",
          "ticks": 96768,
          "time": 79.578828,
          "velocity": 0.47244094488188976
        },
        {
          "duration": 0.6315779999999904,
          "durationTicks": 768,
          "midi": 70,
          "name": "A#4",
          "ticks": 96768,
          "time": 79.578828,
          "velocity": 0.47244094488188976
        },
        {
          "duration": 0.6315780000000046,
          "durationTicks": 768,
          "midi": 72,
          "name": "C5",
          "ticks": 97536,
          "time": 80.21040599999999,
          "velocity": 0.47244094488188976
        },
        {
          "duration": 0.6315780000000046,
          "durationTicks": 768,
          "midi": 60,
          "name": "C4",
          "ticks": 97536,
          "time": 80.21040599999999,
          "velocity": 0.47244094488188976
        },
        {
          "duration": 0.0789472499999988,
          "durationTicks": 96,
          "midi": 56,
          "name": "G#3",
          "ticks": 98304,
          "time": 80.841984,
          "velocity": 0.47244094488188976
        },
        {
          "duration": 0.0789472499999988,
          "durationTicks": 96,
          "midi": 68,
          "name": "G#4",
          "ticks": 98304,
          "time": 80.841984,
          "velocity": 0.47244094488188976
        },
        {
          "duration": 0.0789472499999988,
          "durationTicks": 96,
          "midi": 65,
          "name": "F4",
          "ticks": 98400,
          "time": 80.92093125,
          "velocity": 0.47244094488188976
        },
        {
          "duration": 0.0789472499999988,
          "durationTicks": 96,
          "midi": 53,
          "name": "F3",
          "ticks": 98400,
          "time": 80.92093125,
          "velocity": 0.47244094488188976
        },
        {
          "duration": 0.0789472499999988,
          "durationTicks": 96,
          "midi": 48,
          "name": "C3",
          "ticks": 98496,
          "time": 80.9998785,
          "velocity": 0.47244094488188976
        },
        {
          "duration": 0.0789472499999988,
          "durationTicks": 96,
          "midi": 60,
          "name": "C4",
          "ticks": 98496,
          "time": 80.9998785,
          "velocity": 0.47244094488188976
        },
        {
          "duration": 0.0789472499999988,
          "durationTicks": 96,
          "midi": 65,
          "name": "F4",
          "ticks": 98592,
          "time": 81.07882575,
          "velocity": 0.47244094488188976
        },
        {
          "duration": 0.0789472499999988,
          "durationTicks": 96,
          "midi": 53,
          "name": "F3",
          "ticks": 98592,
          "time": 81.07882575,
          "velocity": 0.47244094488188976
        },
        {
          "duration": 0.15789450000001182,
          "durationTicks": 192,
          "midi": 68,
          "name": "G#4",
          "ticks": 98688,
          "time": 81.15777299999999,
          "velocity": 0.47244094488188976
        },
        {
          "duration": 0.15789450000001182,
          "durationTicks": 192,
          "midi": 56,
          "name": "G#3",
          "ticks": 98688,
          "time": 81.15777299999999,
          "velocity": 0.47244094488188976
        },
        {
          "duration": 0.1578944999999976,
          "durationTicks": 192,
          "midi": 58,
          "name": "A#3",
          "ticks": 98880,
          "time": 81.3156675,
          "velocity": 0.47244094488188976
        },
        {
          "duration": 0.1578944999999976,
          "durationTicks": 192,
          "midi": 70,
          "name": "A#4",
          "ticks": 98880,
          "time": 81.3156675,
          "velocity": 0.47244094488188976
        },
        {
          "duration": 0.1578944999999976,
          "durationTicks": 192,
          "midi": 72,
          "name": "C5",
          "ticks": 99072,
          "time": 81.473562,
          "velocity": 0.47244094488188976
        },
        {
          "duration": 0.1578944999999976,
          "durationTicks": 192,
          "midi": 60,
          "name": "C4",
          "ticks": 99072,
          "time": 81.473562,
          "velocity": 0.47244094488188976
        },
        {
          "duration": 0.1578944999999976,
          "durationTicks": 192,
          "midi": 56,
          "name": "G#3",
          "ticks": 99456,
          "time": 81.789351,
          "velocity": 0.47244094488188976
        },
        {
          "duration": 0.1578944999999976,
          "durationTicks": 192,
          "midi": 68,
          "name": "G#4",
          "ticks": 99456,
          "time": 81.789351,
          "velocity": 0.47244094488188976
        },
        {
          "duration": 0.0789472499999988,
          "durationTicks": 96,
          "midi": 70,
          "name": "A#4",
          "ticks": 99840,
          "time": 82.10513999999999,
          "velocity": 0.47244094488188976
        },
        {
          "duration": 0.0789472499999988,
          "durationTicks": 96,
          "midi": 58,
          "name": "A#3",
          "ticks": 99840,
          "time": 82.10513999999999,
          "velocity": 0.47244094488188976
        },
        {
          "duration": 0.07894725000001301,
          "durationTicks": 96,
          "midi": 55,
          "name": "G3",
          "ticks": 99936,
          "time": 82.18408724999999,
          "velocity": 0.47244094488188976
        },
        {
          "duration": 0.07894725000001301,
          "durationTicks": 96,
          "midi": 67,
          "name": "G4",
          "ticks": 99936,
          "time": 82.18408724999999,
          "velocity": 0.47244094488188976
        },
        {
          "duration": 0.0789472499999988,
          "durationTicks": 96,
          "midi": 53,
          "name": "F3",
          "ticks": 100032,
          "time": 82.2630345,
          "velocity": 0.47244094488188976
        },
        {
          "duration": 0.0789472499999988,
          "durationTicks": 96,
          "midi": 65,
          "name": "F4",
          "ticks": 100032,
          "time": 82.2630345,
          "velocity": 0.47244094488188976
        },
        {
          "duration": 0.0789472499999988,
          "durationTicks": 96,
          "midi": 55,
          "name": "G3",
          "ticks": 100128,
          "time": 82.34198175,
          "velocity": 0.47244094488188976
        },
        {
          "duration": 0.0789472499999988,
          "durationTicks": 96,
          "midi": 67,
          "name": "G4",
          "ticks": 100128,
          "time": 82.34198175,
          "velocity": 0.47244094488188976
        },
        {
          "duration": 0.1578944999999976,
          "durationTicks": 192,
          "midi": 70,
          "name": "A#4",
          "ticks": 100224,
          "time": 82.420929,
          "velocity": 0.47244094488188976
        },
        {
          "duration": 0.1578944999999976,
          "durationTicks": 192,
          "midi": 58,
          "name": "A#3",
          "ticks": 100224,
          "time": 82.420929,
          "velocity": 0.47244094488188976
        },
        {
          "duration": 0.1578944999999976,
          "durationTicks": 192,
          "midi": 60,
          "name": "C4",
          "ticks": 100416,
          "time": 82.5788235,
          "velocity": 0.47244094488188976
        },
        {
          "duration": 0.1578944999999976,
          "durationTicks": 192,
          "midi": 72,
          "name": "C5",
          "ticks": 100416,
          "time": 82.5788235,
          "velocity": 0.47244094488188976
        },
        {
          "duration": 0.2368417499999964,
          "durationTicks": 288,
          "midi": 67,
          "name": "G4",
          "ticks": 100608,
          "time": 82.736718,
          "velocity": 0.47244094488188976
        },
        {
          "duration": 0.2368417499999964,
          "durationTicks": 288,
          "midi": 55,
          "name": "G3",
          "ticks": 100608,
          "time": 82.736718,
          "velocity": 0.47244094488188976
        },
        {
          "duration": 0.0789472499999988,
          "durationTicks": 96,
          "midi": 68,
          "name": "G#4",
          "ticks": 100896,
          "time": 82.97355974999999,
          "velocity": 0.47244094488188976
        },
        {
          "duration": 0.0789472499999988,
          "durationTicks": 96,
          "midi": 56,
          "name": "G#3",
          "ticks": 100896,
          "time": 82.97355974999999,
          "velocity": 0.47244094488188976
        },
        {
          "duration": 0.15789450000001182,
          "durationTicks": 192,
          "midi": 63,
          "name": "D#4",
          "ticks": 100992,
          "time": 83.05250699999999,
          "velocity": 0.47244094488188976
        },
        {
          "duration": 0.15789450000001182,
          "durationTicks": 192,
          "midi": 51,
          "name": "D#3",
          "ticks": 100992,
          "time": 83.05250699999999,
          "velocity": 0.47244094488188976
        },
        {
          "duration": 0.1578944999999976,
          "durationTicks": 192,
          "midi": 55,
          "name": "G3",
          "ticks": 101184,
          "time": 83.2104015,
          "velocity": 0.47244094488188976
        },
        {
          "duration": 0.1578944999999976,
          "durationTicks": 192,
          "midi": 67,
          "name": "G4",
          "ticks": 101184,
          "time": 83.2104015,
          "velocity": 0.47244094488188976
        },
        {
          "duration": 0.1578944999999976,
          "durationTicks": 192,
          "midi": 56,
          "name": "G#3",
          "ticks": 101376,
          "time": 83.368296,
          "velocity": 0.47244094488188976
        },
        {
          "duration": 0.1578944999999976,
          "durationTicks": 192,
          "midi": 68,
          "name": "G#4",
          "ticks": 101376,
          "time": 83.368296,
          "velocity": 0.47244094488188976
        },
        {
          "duration": 0.1578944999999976,
          "durationTicks": 192,
          "midi": 56,
          "name": "G#3",
          "ticks": 101760,
          "time": 83.684085,
          "velocity": 0.47244094488188976
        },
        {
          "duration": 0.1578944999999976,
          "durationTicks": 192,
          "midi": 68,
          "name": "G#4",
          "ticks": 101760,
          "time": 83.684085,
          "velocity": 0.47244094488188976
        },
        {
          "duration": 0.1578944999999976,
          "durationTicks": 192,
          "midi": 58,
          "name": "A#3",
          "ticks": 101952,
          "time": 83.8419795,
          "velocity": 0.47244094488188976
        },
        {
          "duration": 0.1578944999999976,
          "durationTicks": 192,
          "midi": 70,
          "name": "A#4",
          "ticks": 101952,
          "time": 83.8419795,
          "velocity": 0.47244094488188976
        },
        {
          "duration": 0.15789450000001182,
          "durationTicks": 192,
          "midi": 60,
          "name": "C4",
          "ticks": 102144,
          "time": 83.99987399999999,
          "velocity": 0.47244094488188976
        },
        {
          "duration": 0.15789450000001182,
          "durationTicks": 192,
          "midi": 72,
          "name": "C5",
          "ticks": 102144,
          "time": 83.99987399999999,
          "velocity": 0.47244094488188976
        },
        {
          "duration": 0.1578944999999976,
          "durationTicks": 192,
          "midi": 68,
          "name": "G#4",
          "ticks": 102336,
          "time": 84.1577685,
          "velocity": 0.47244094488188976
        },
        {
          "duration": 0.1578944999999976,
          "durationTicks": 192,
          "midi": 56,
          "name": "G#3",
          "ticks": 102336,
          "time": 84.1577685,
          "velocity": 0.47244094488188976
        },
        {
          "duration": 0.1578944999999976,
          "durationTicks": 192,
          "midi": 60,
          "name": "C4",
          "ticks": 102528,
          "time": 84.315663,
          "velocity": 0.47244094488188976
        },
        {
          "duration": 0.1578944999999976,
          "durationTicks": 192,
          "midi": 72,
          "name": "C5",
          "ticks": 102528,
          "time": 84.315663,
          "velocity": 0.47244094488188976
        },
        {
          "duration": 0.1578944999999976,
          "durationTicks": 192,
          "midi": 68,
          "name": "G#4",
          "ticks": 102720,
          "time": 84.4735575,
          "velocity": 0.47244094488188976
        },
        {
          "duration": 0.1578944999999976,
          "durationTicks": 192,
          "midi": 80,
          "name": "G#5",
          "ticks": 102720,
          "time": 84.4735575,
          "velocity": 0.47244094488188976
        },
        {
          "duration": 0.0789472499999988,
          "durationTicks": 96,
          "midi": 79,
          "name": "G5",
          "ticks": 102912,
          "time": 84.631452,
          "velocity": 0.47244094488188976
        },
        {
          "duration": 0.0789472499999988,
          "durationTicks": 96,
          "midi": 67,
          "name": "G4",
          "ticks": 102912,
          "time": 84.631452,
          "velocity": 0.47244094488188976
        },
        {
          "duration": 0.1184208749999982,
          "durationTicks": 144,
          "midi": 67,
          "name": "G4",
          "ticks": 103008,
          "time": 84.71039925,
          "velocity": 0.47244094488188976
        },
        {
          "duration": 0.1184208749999982,
          "durationTicks": 144,
          "midi": 55,
          "name": "G3",
          "ticks": 103008,
          "time": 84.71039925,
          "velocity": 0.47244094488188976
        },
        {
          "duration": 0.0789472499999988,
          "durationTicks": 96,
          "midi": 67,
          "name": "G4",
          "ticks": 103200,
          "time": 84.86829374999999,
          "velocity": 0.47244094488188976
        },
        {
          "duration": 0.0789472499999988,
          "durationTicks": 96,
          "midi": 55,
          "name": "G3",
          "ticks": 103200,
          "time": 84.86829374999999,
          "velocity": 0.47244094488188976
        },
        {
          "duration": 0.15789450000001182,
          "durationTicks": 192,
          "midi": 75,
          "name": "D#5",
          "ticks": 103296,
          "time": 84.94724099999999,
          "velocity": 0.47244094488188976
        },
        {
          "duration": 0.15789450000001182,
          "durationTicks": 192,
          "midi": 63,
          "name": "D#4",
          "ticks": 103296,
          "time": 84.94724099999999,
          "velocity": 0.47244094488188976
        },
        {
          "duration": 0.0789472499999988,
          "durationTicks": 96,
          "midi": 67,
          "name": "G4",
          "ticks": 103488,
          "time": 85.1051355,
          "velocity": 0.47244094488188976
        },
        {
          "duration": 0.0789472499999988,
          "durationTicks": 96,
          "midi": 55,
          "name": "G3",
          "ticks": 103488,
          "time": 85.1051355,
          "velocity": 0.47244094488188976
        },
        {
          "duration": 0.0789472499999988,
          "durationTicks": 96,
          "midi": 58,
          "name": "A#3",
          "ticks": 103584,
          "time": 85.18408275,
          "velocity": 0.47244094488188976
        },
        {
          "duration": 0.0789472499999988,
          "durationTicks": 96,
          "midi": 70,
          "name": "A#4",
          "ticks": 103584,
          "time": 85.18408275,
          "velocity": 0.47244094488188976
        },
        {
          "duration": 0.1578944999999976,
          "durationTicks": 192,
          "midi": 60,
          "name": "C4",
          "ticks": 103680,
          "time": 85.26303,
          "velocity": 0.47244094488188976
        },
        {
          "duration": 0.1578944999999976,
          "durationTicks": 192,
          "midi": 72,
          "name": "C5",
          "ticks": 103680,
          "time": 85.26303,
          "velocity": 0.47244094488188976
        },
        {
          "duration": 0.0789472499999988,
          "durationTicks": 96,
          "midi": 58,
          "name": "A#3",
          "ticks": 103872,
          "time": 85.4209245,
          "velocity": 0.47244094488188976
        },
        {
          "duration": 0.0789472499999988,
          "durationTicks": 96,
          "midi": 70,
          "name": "A#4",
          "ticks": 103872,
          "time": 85.4209245,
          "velocity": 0.47244094488188976
        },
        {
          "duration": 0.0789472499999988,
          "durationTicks": 96,
          "midi": 60,
          "name": "C4",
          "ticks": 103968,
          "time": 85.49987175,
          "velocity": 0.47244094488188976
        },
        {
          "duration": 0.0789472499999988,
          "durationTicks": 96,
          "midi": 72,
          "name": "C5",
          "ticks": 103968,
          "time": 85.49987175,
          "velocity": 0.47244094488188976
        },
        {
          "duration": 0.1578944999999976,
          "durationTicks": 192,
          "midi": 63,
          "name": "D#4",
          "ticks": 104064,
          "time": 85.578819,
          "velocity": 0.47244094488188976
        },
        {
          "duration": 0.1578944999999976,
          "durationTicks": 192,
          "midi": 75,
          "name": "D#5",
          "ticks": 104064,
          "time": 85.578819,
          "velocity": 0.47244094488188976
        },
        {
          "duration": 0.0789472499999988,
          "durationTicks": 96,
          "midi": 72,
          "name": "C5",
          "ticks": 104256,
          "time": 85.7367135,
          "velocity": 0.47244094488188976
        },
        {
          "duration": 0.0789472499999988,
          "durationTicks": 96,
          "midi": 60,
          "name": "C4",
          "ticks": 104256,
          "time": 85.7367135,
          "velocity": 0.47244094488188976
        },
        {
          "duration": 0.0789472499999988,
          "durationTicks": 96,
          "midi": 75,
          "name": "D#5",
          "ticks": 104352,
          "time": 85.81566074999999,
          "velocity": 0.47244094488188976
        },
        {
          "duration": 0.0789472499999988,
          "durationTicks": 96,
          "midi": 63,
          "name": "D#4",
          "ticks": 104352,
          "time": 85.81566074999999,
          "velocity": 0.47244094488188976
        },
        {
          "duration": 0.3157890000000094,
          "durationTicks": 384,
          "midi": 65,
          "name": "F4",
          "ticks": 104448,
          "time": 85.89460799999999,
          "velocity": 0.47244094488188976
        },
        {
          "duration": 0.3157890000000094,
          "durationTicks": 384,
          "midi": 77,
          "name": "F5",
          "ticks": 104448,
          "time": 85.89460799999999,
          "velocity": 0.47244094488188976
        },
        {
          "duration": 0.1578944999999976,
          "durationTicks": 192,
          "midi": 72,
          "name": "C5",
          "ticks": 104832,
          "time": 86.210397,
          "velocity": 0.47244094488188976
        },
        {
          "duration": 0.1578944999999976,
          "durationTicks": 192,
          "midi": 60,
          "name": "C4",
          "ticks": 104832,
          "time": 86.210397,
          "velocity": 0.47244094488188976
        },
        {
          "duration": 0.1578944999999976,
          "durationTicks": 192,
          "midi": 75,
          "name": "D#5",
          "ticks": 105024,
          "time": 86.3682915,
          "velocity": 0.47244094488188976
        },
        {
          "duration": 0.1578944999999976,
          "durationTicks": 192,
          "midi": 63,
          "name": "D#4",
          "ticks": 105024,
          "time": 86.3682915,
          "velocity": 0.47244094488188976
        },
        {
          "duration": 0.1578944999999976,
          "durationTicks": 192,
          "midi": 65,
          "name": "F4",
          "ticks": 105216,
          "time": 86.526186,
          "velocity": 0.47244094488188976
        },
        {
          "duration": 0.1578944999999976,
          "durationTicks": 192,
          "midi": 77,
          "name": "F5",
          "ticks": 105216,
          "time": 86.526186,
          "velocity": 0.47244094488188976
        },
        {
          "duration": 0.15789450000001182,
          "durationTicks": 192,
          "midi": 72,
          "name": "C5",
          "ticks": 105600,
          "time": 86.84197499999999,
          "velocity": 0.47244094488188976
        },
        {
          "duration": 0.15789450000001182,
          "durationTicks": 192,
          "midi": 60,
          "name": "C4",
          "ticks": 105600,
          "time": 86.84197499999999,
          "velocity": 0.47244094488188976
        },
        {
          "duration": 0.2368417499999964,
          "durationTicks": 288,
          "midi": 58,
          "name": "A#3",
          "ticks": 105984,
          "time": 87.157764,
          "velocity": 0.47244094488188976
        },
        {
          "duration": 0.2368417499999964,
          "durationTicks": 288,
          "midi": 70,
          "name": "A#4",
          "ticks": 105984,
          "time": 87.157764,
          "velocity": 0.47244094488188976
        },
        {
          "duration": 0.1578944999999976,
          "durationTicks": 192,
          "midi": 70,
          "name": "A#4",
          "ticks": 106368,
          "time": 87.473553,
          "velocity": 0.47244094488188976
        },
        {
          "duration": 0.1578944999999976,
          "durationTicks": 192,
          "midi": 58,
          "name": "A#3",
          "ticks": 106368,
          "time": 87.473553,
          "velocity": 0.47244094488188976
        },
        {
          "duration": 0.1578944999999976,
          "durationTicks": 192,
          "midi": 72,
          "name": "C5",
          "ticks": 106560,
          "time": 87.6314475,
          "velocity": 0.47244094488188976
        },
        {
          "duration": 0.1578944999999976,
          "durationTicks": 192,
          "midi": 60,
          "name": "C4",
          "ticks": 106560,
          "time": 87.6314475,
          "velocity": 0.47244094488188976
        },
        {
          "duration": 0.23684175000001062,
          "durationTicks": 288,
          "midi": 70,
          "name": "A#4",
          "ticks": 106752,
          "time": 87.78934199999999,
          "velocity": 0.47244094488188976
        },
        {
          "duration": 0.23684175000001062,
          "durationTicks": 288,
          "midi": 58,
          "name": "A#3",
          "ticks": 106752,
          "time": 87.78934199999999,
          "velocity": 0.47244094488188976
        },
        {
          "duration": 0.2368417499999964,
          "durationTicks": 288,
          "midi": 56,
          "name": "G#3",
          "ticks": 107136,
          "time": 88.105131,
          "velocity": 0.47244094488188976
        },
        {
          "duration": 0.2368417499999964,
          "durationTicks": 288,
          "midi": 68,
          "name": "G#4",
          "ticks": 107136,
          "time": 88.105131,
          "velocity": 0.47244094488188976
        },
        {
          "duration": 0.1578944999999976,
          "durationTicks": 192,
          "midi": 70,
          "name": "A#4",
          "ticks": 107520,
          "time": 88.42092,
          "velocity": 0.47244094488188976
        },
        {
          "duration": 0.1578944999999976,
          "durationTicks": 192,
          "midi": 58,
          "name": "A#3",
          "ticks": 107520,
          "time": 88.42092,
          "velocity": 0.47244094488188976
        },
        {
          "duration": 0.1578944999999976,
          "durationTicks": 192,
          "midi": 56,
          "name": "G#3",
          "ticks": 107712,
          "time": 88.5788145,
          "velocity": 0.47244094488188976
        },
        {
          "duration": 0.1578944999999976,
          "durationTicks": 192,
          "midi": 68,
          "name": "G#4",
          "ticks": 107712,
          "time": 88.5788145,
          "velocity": 0.47244094488188976
        },
        {
          "duration": 0.15789450000001182,
          "durationTicks": 192,
          "midi": 58,
          "name": "A#3",
          "ticks": 107904,
          "time": 88.73670899999999,
          "velocity": 0.47244094488188976
        },
        {
          "duration": 0.15789450000001182,
          "durationTicks": 192,
          "midi": 70,
          "name": "A#4",
          "ticks": 107904,
          "time": 88.73670899999999,
          "velocity": 0.47244094488188976
        },
        {
          "duration": 0.1578944999999976,
          "durationTicks": 192,
          "midi": 72,
          "name": "C5",
          "ticks": 108096,
          "time": 88.8946035,
          "velocity": 0.47244094488188976
        },
        {
          "duration": 0.1578944999999976,
          "durationTicks": 192,
          "midi": 60,
          "name": "C4",
          "ticks": 108096,
          "time": 88.8946035,
          "velocity": 0.47244094488188976
        },
        {
          "duration": 0.1578944999999976,
          "durationTicks": 192,
          "midi": 63,
          "name": "D#4",
          "ticks": 108288,
          "time": 89.052498,
          "velocity": 0.47244094488188976
        },
        {
          "duration": 0.1578944999999976,
          "durationTicks": 192,
          "midi": 75,
          "name": "D#5",
          "ticks": 108288,
          "time": 89.052498,
          "velocity": 0.47244094488188976
        },
        {
          "duration": 0.1578944999999976,
          "durationTicks": 192,
          "midi": 60,
          "name": "C4",
          "ticks": 108480,
          "time": 89.2103925,
          "velocity": 0.47244094488188976
        },
        {
          "duration": 0.1578944999999976,
          "durationTicks": 192,
          "midi": 72,
          "name": "C5",
          "ticks": 108480,
          "time": 89.2103925,
          "velocity": 0.47244094488188976
        },
        {
          "duration": 0.1578944999999976,
          "durationTicks": 192,
          "midi": 68,
          "name": "G#4",
          "ticks": 108672,
          "time": 89.368287,
          "velocity": 0.47244094488188976
        },
        {
          "duration": 0.1578944999999976,
          "durationTicks": 192,
          "midi": 56,
          "name": "G#3",
          "ticks": 108672,
          "time": 89.368287,
          "velocity": 0.47244094488188976
        },
        {
          "duration": 0.1578944999999976,
          "durationTicks": 192,
          "midi": 65,
          "name": "F4",
          "ticks": 108864,
          "time": 89.52618149999999,
          "velocity": 0.47244094488188976
        },
        {
          "duration": 0.1578944999999976,
          "durationTicks": 192,
          "midi": 53,
          "name": "F3",
          "ticks": 108864,
          "time": 89.52618149999999,
          "velocity": 0.47244094488188976
        },
        {
          "duration": 0.0789472499999988,
          "durationTicks": 96,
          "midi": 58,
          "name": "A#3",
          "ticks": 109056,
          "time": 89.68407599999999,
          "velocity": 0.47244094488188976
        },
        {
          "duration": 0.0789472499999988,
          "durationTicks": 96,
          "midi": 70,
          "name": "A#4",
          "ticks": 109056,
          "time": 89.68407599999999,
          "velocity": 0.47244094488188976
        },
        {
          "duration": 0.07894725000001301,
          "durationTicks": 96,
          "midi": 56,
          "name": "G#3",
          "ticks": 109152,
          "time": 89.76302324999999,
          "velocity": 0.47244094488188976
        },
        {
          "duration": 0.07894725000001301,
          "durationTicks": 96,
          "midi": 68,
          "name": "G#4",
          "ticks": 109152,
          "time": 89.76302324999999,
          "velocity": 0.47244094488188976
        },
        {
          "duration": 0.0789472499999988,
          "durationTicks": 96,
          "midi": 65,
          "name": "F4",
          "ticks": 109248,
          "time": 89.8419705,
          "velocity": 0.47244094488188976
        },
        {
          "duration": 0.0789472499999988,
          "durationTicks": 96,
          "midi": 53,
          "name": "F3",
          "ticks": 109248,
          "time": 89.8419705,
          "velocity": 0.47244094488188976
        },
        {
          "duration": 0.0789472499999988,
          "durationTicks": 96,
          "midi": 60,
          "name": "C4",
          "ticks": 109344,
          "time": 89.92091775,
          "velocity": 0.47244094488188976
        },
        {
          "duration": 0.0789472499999988,
          "durationTicks": 96,
          "midi": 48,
          "name": "C3",
          "ticks": 109344,
          "time": 89.92091775,
          "velocity": 0.47244094488188976
        },
        {
          "duration": 0.0789472499999988,
          "durationTicks": 96,
          "midi": 58,
          "name": "A#3",
          "ticks": 109440,
          "time": 89.999865,
          "velocity": 0.47244094488188976
        },
        {
          "duration": 0.0789472499999988,
          "durationTicks": 96,
          "midi": 70,
          "name": "A#4",
          "ticks": 109440,
          "time": 89.999865,
          "velocity": 0.47244094488188976
        },
        {
          "duration": 0.0789472499999988,
          "durationTicks": 96,
          "midi": 56,
          "name": "G#3",
          "ticks": 109536,
          "time": 90.07881225,
          "velocity": 0.47244094488188976
        },
        {
          "duration": 0.0789472499999988,
          "durationTicks": 96,
          "midi": 68,
          "name": "G#4",
          "ticks": 109536,
          "time": 90.07881225,
          "velocity": 0.47244094488188976
        },
        {
          "duration": 0.0789472499999988,
          "durationTicks": 96,
          "midi": 65,
          "name": "F4",
          "ticks": 109632,
          "time": 90.1577595,
          "velocity": 0.47244094488188976
        },
        {
          "duration": 0.0789472499999988,
          "durationTicks": 96,
          "midi": 53,
          "name": "F3",
          "ticks": 109632,
          "time": 90.1577595,
          "velocity": 0.47244094488188976
        },
        {
          "duration": 0.0789472499999988,
          "durationTicks": 96,
          "midi": 60,
          "name": "C4",
          "ticks": 109728,
          "time": 90.23670675,
          "velocity": 0.47244094488188976
        },
        {
          "duration": 0.0789472499999988,
          "durationTicks": 96,
          "midi": 48,
          "name": "C3",
          "ticks": 109728,
          "time": 90.23670675,
          "velocity": 0.47244094488188976
        },
        {
          "duration": 0.0789472499999988,
          "durationTicks": 96,
          "midi": 72,
          "name": "C5",
          "ticks": 109824,
          "time": 90.315654,
          "velocity": 0.47244094488188976
        },
        {
          "duration": 0.0789472499999988,
          "durationTicks": 96,
          "midi": 60,
          "name": "C4",
          "ticks": 109824,
          "time": 90.315654,
          "velocity": 0.47244094488188976
        },
        {
          "duration": 0.0789472499999988,
          "durationTicks": 96,
          "midi": 55,
          "name": "G3",
          "ticks": 109920,
          "time": 90.39460125,
          "velocity": 0.47244094488188976
        },
        {
          "duration": 0.0789472499999988,
          "durationTicks": 96,
          "midi": 67,
          "name": "G4",
          "ticks": 109920,
          "time": 90.39460125,
          "velocity": 0.47244094488188976
        },
        {
          "duration": 0.0789472499999988,
          "durationTicks": 96,
          "midi": 52,
          "name": "E3",
          "ticks": 110016,
          "time": 90.47354849999999,
          "velocity": 0.47244094488188976
        },
        {
          "duration": 0.0789472499999988,
          "durationTicks": 96,
          "midi": 64,
          "name": "E4",
          "ticks": 110016,
          "time": 90.47354849999999,
          "velocity": 0.47244094488188976
        },
        {
          "duration": 0.0789472499999988,
          "durationTicks": 96,
          "midi": 48,
          "name": "C3",
          "ticks": 110112,
          "time": 90.55249574999999,
          "velocity": 0.47244094488188976
        },
        {
          "duration": 0.0789472499999988,
          "durationTicks": 96,
          "midi": 60,
          "name": "C4",
          "ticks": 110112,
          "time": 90.55249574999999,
          "velocity": 0.47244094488188976
        },
        {
          "duration": 0.0789472499999988,
          "durationTicks": 96,
          "midi": 72,
          "name": "C5",
          "ticks": 110208,
          "time": 90.63144299999999,
          "velocity": 0.47244094488188976
        },
        {
          "duration": 0.0789472499999988,
          "durationTicks": 96,
          "midi": 60,
          "name": "C4",
          "ticks": 110208,
          "time": 90.63144299999999,
          "velocity": 0.47244094488188976
        },
        {
          "duration": 0.07894725000001301,
          "durationTicks": 96,
          "midi": 67,
          "name": "G4",
          "ticks": 110304,
          "time": 90.71039024999999,
          "velocity": 0.47244094488188976
        },
        {
          "duration": 0.07894725000001301,
          "durationTicks": 96,
          "midi": 55,
          "name": "G3",
          "ticks": 110304,
          "time": 90.71039024999999,
          "velocity": 0.47244094488188976
        },
        {
          "duration": 0.0789472499999988,
          "durationTicks": 96,
          "midi": 52,
          "name": "E3",
          "ticks": 110400,
          "time": 90.7893375,
          "velocity": 0.47244094488188976
        },
        {
          "duration": 0.0789472499999988,
          "durationTicks": 96,
          "midi": 64,
          "name": "E4",
          "ticks": 110400,
          "time": 90.7893375,
          "velocity": 0.47244094488188976
        },
        {
          "duration": 0.0789472499999988,
          "durationTicks": 96,
          "midi": 48,
          "name": "C3",
          "ticks": 110496,
          "time": 90.86828475,
          "velocity": 0.47244094488188976
        },
        {
          "duration": 0.0789472499999988,
          "durationTicks": 96,
          "midi": 60,
          "name": "C4",
          "ticks": 110496,
          "time": 90.86828475,
          "velocity": 0.47244094488188976
        },
        {
          "duration": 0.0789472499999988,
          "durationTicks": 96,
          "midi": 68,
          "name": "G#4",
          "ticks": 110592,
          "time": 90.947232,
          "velocity": 0.47244094488188976
        },
        {
          "duration": 0.0789472499999988,
          "durationTicks": 96,
          "midi": 56,
          "name": "G#3",
          "ticks": 110592,
          "time": 90.947232,
          "velocity": 0.47244094488188976
        },
        {
          "duration": 0.0789472499999988,
          "durationTicks": 96,
          "midi": 53,
          "name": "F3",
          "ticks": 110688,
          "time": 91.02617925,
          "velocity": 0.47244094488188976
        },
        {
          "duration": 0.0789472499999988,
          "durationTicks": 96,
          "midi": 65,
          "name": "F4",
          "ticks": 110688,
          "time": 91.02617925,
          "velocity": 0.47244094488188976
        },
        {
          "duration": 0.0789472499999988,
          "durationTicks": 96,
          "midi": 48,
          "name": "C3",
          "ticks": 110784,
          "time": 91.1051265,
          "velocity": 0.47244094488188976
        },
        {
          "duration": 0.0789472499999988,
          "durationTicks": 96,
          "midi": 60,
          "name": "C4",
          "ticks": 110784,
          "time": 91.1051265,
          "velocity": 0.47244094488188976
        },
        {
          "duration": 0.0789472499999988,
          "durationTicks": 96,
          "midi": 53,
          "name": "F3",
          "ticks": 110880,
          "time": 91.18407375,
          "velocity": 0.47244094488188976
        },
        {
          "duration": 0.0789472499999988,
          "durationTicks": 96,
          "midi": 65,
          "name": "F4",
          "ticks": 110880,
          "time": 91.18407375,
          "velocity": 0.47244094488188976
        },
        {
          "duration": 0.1578944999999976,
          "durationTicks": 192,
          "midi": 56,
          "name": "G#3",
          "ticks": 110976,
          "time": 91.263021,
          "velocity": 0.47244094488188976
        },
        {
          "duration": 0.1578944999999976,
          "durationTicks": 192,
          "midi": 68,
          "name": "G#4",
          "ticks": 110976,
          "time": 91.263021,
          "velocity": 0.47244094488188976
        },
        {
          "duration": 0.1578944999999976,
          "durationTicks": 192,
          "midi": 70,
          "name": "A#4",
          "ticks": 111168,
          "time": 91.42091549999999,
          "velocity": 0.47244094488188976
        },
        {
          "duration": 0.1578944999999976,
          "durationTicks": 192,
          "midi": 58,
          "name": "A#3",
          "ticks": 111168,
          "time": 91.42091549999999,
          "velocity": 0.47244094488188976
        },
        {
          "duration": 0.15789450000001182,
          "durationTicks": 192,
          "midi": 60,
          "name": "C4",
          "ticks": 111360,
          "time": 91.57880999999999,
          "velocity": 0.47244094488188976
        },
        {
          "duration": 0.15789450000001182,
          "durationTicks": 192,
          "midi": 72,
          "name": "C5",
          "ticks": 111360,
          "time": 91.57880999999999,
          "velocity": 0.47244094488188976
        },
        {
          "duration": 0.1578944999999976,
          "durationTicks": 192,
          "midi": 56,
          "name": "G#3",
          "ticks": 111744,
          "time": 91.894599,
          "velocity": 0.47244094488188976
        },
        {
          "duration": 0.1578944999999976,
          "durationTicks": 192,
          "midi": 68,
          "name": "G#4",
          "ticks": 111744,
          "time": 91.894599,
          "velocity": 0.47244094488188976
        },
        {
          "duration": 0.0789472499999988,
          "durationTicks": 96,
          "midi": 58,
          "name": "A#3",
          "ticks": 112128,
          "time": 92.210388,
          "velocity": 0.47244094488188976
        },
        {
          "duration": 0.0789472499999988,
          "durationTicks": 96,
          "midi": 70,
          "name": "A#4",
          "ticks": 112128,
          "time": 92.210388,
          "velocity": 0.47244094488188976
        },
        {
          "duration": 0.0789472499999988,
          "durationTicks": 96,
          "midi": 67,
          "name": "G4",
          "ticks": 112224,
          "time": 92.28933525,
          "velocity": 0.47244094488188976
        },
        {
          "duration": 0.0789472499999988,
          "durationTicks": 96,
          "midi": 55,
          "name": "G3",
          "ticks": 112224,
          "time": 92.28933525,
          "velocity": 0.47244094488188976
        },
        {
          "duration": 0.0789472499999988,
          "durationTicks": 96,
          "midi": 65,
          "name": "F4",
          "ticks": 112320,
          "time": 92.36828249999999,
          "velocity": 0.47244094488188976
        },
        {
          "duration": 0.0789472499999988,
          "durationTicks": 96,
          "midi": 53,
          "name": "F3",
          "ticks": 112320,
          "time": 92.36828249999999,
          "velocity": 0.47244094488188976
        },
        {
          "duration": 0.0789472499999988,
          "durationTicks": 96,
          "midi": 55,
          "name": "G3",
          "ticks": 112416,
          "time": 92.44722974999999,
          "velocity": 0.47244094488188976
        },
        {
          "duration": 0.0789472499999988,
          "durationTicks": 96,
          "midi": 67,
          "name": "G4",
          "ticks": 112416,
          "time": 92.44722974999999,
          "velocity": 0.47244094488188976
        },
        {
          "duration": 0.15789450000001182,
          "durationTicks": 192,
          "midi": 58,
          "name": "A#3",
          "ticks": 112512,
          "time": 92.52617699999999,
          "velocity": 0.47244094488188976
        },
        {
          "duration": 0.15789450000001182,
          "durationTicks": 192,
          "midi": 70,
          "name": "A#4",
          "ticks": 112512,
          "time": 92.52617699999999,
          "velocity": 0.47244094488188976
        },
        {
          "duration": 0.1578944999999976,
          "durationTicks": 192,
          "midi": 72,
          "name": "C5",
          "ticks": 112704,
          "time": 92.6840715,
          "velocity": 0.47244094488188976
        },
        {
          "duration": 0.1578944999999976,
          "durationTicks": 192,
          "midi": 60,
          "name": "C4",
          "ticks": 112704,
          "time": 92.6840715,
          "velocity": 0.47244094488188976
        },
        {
          "duration": 0.2368417499999964,
          "durationTicks": 288,
          "midi": 55,
          "name": "G3",
          "ticks": 112896,
          "time": 92.841966,
          "velocity": 0.47244094488188976
        },
        {
          "duration": 0.2368417499999964,
          "durationTicks": 288,
          "midi": 67,
          "name": "G4",
          "ticks": 112896,
          "time": 92.841966,
          "velocity": 0.47244094488188976
        },
        {
          "duration": 0.0789472499999988,
          "durationTicks": 96,
          "midi": 68,
          "name": "G#4",
          "ticks": 113184,
          "time": 93.07880775,
          "velocity": 0.47244094488188976
        },
        {
          "duration": 0.0789472499999988,
          "durationTicks": 96,
          "midi": 56,
          "name": "G#3",
          "ticks": 113184,
          "time": 93.07880775,
          "velocity": 0.47244094488188976
        },
        {
          "duration": 0.1578944999999976,
          "durationTicks": 192,
          "midi": 63,
          "name": "D#4",
          "ticks": 113280,
          "time": 93.157755,
          "velocity": 0.47244094488188976
        },
        {
          "duration": 0.1578944999999976,
          "durationTicks": 192,
          "midi": 51,
          "name": "D#3",
          "ticks": 113280,
          "time": 93.157755,
          "velocity": 0.47244094488188976
        },
        {
          "duration": 0.1578944999999976,
          "durationTicks": 192,
          "midi": 67,
          "name": "G4",
          "ticks": 113472,
          "time": 93.31564949999999,
          "velocity": 0.47244094488188976
        },
        {
          "duration": 0.1578944999999976,
          "durationTicks": 192,
          "midi": 55,
          "name": "G3",
          "ticks": 113472,
          "time": 93.31564949999999,
          "velocity": 0.47244094488188976
        },
        {
          "duration": 0.15789450000001182,
          "durationTicks": 192,
          "midi": 56,
          "name": "G#3",
          "ticks": 113664,
          "time": 93.47354399999999,
          "velocity": 0.47244094488188976
        },
        {
          "duration": 0.15789450000001182,
          "durationTicks": 192,
          "midi": 68,
          "name": "G#4",
          "ticks": 113664,
          "time": 93.47354399999999,
          "velocity": 0.47244094488188976
        },
        {
          "duration": 0.1578944999999976,
          "durationTicks": 192,
          "midi": 56,
          "name": "G#3",
          "ticks": 114048,
          "time": 93.789333,
          "velocity": 0.47244094488188976
        },
        {
          "duration": 0.1578944999999976,
          "durationTicks": 192,
          "midi": 68,
          "name": "G#4",
          "ticks": 114048,
          "time": 93.789333,
          "velocity": 0.47244094488188976
        },
        {
          "duration": 0.1578944999999976,
          "durationTicks": 192,
          "midi": 70,
          "name": "A#4",
          "ticks": 114240,
          "time": 93.9472275,
          "velocity": 0.47244094488188976
        },
        {
          "duration": 0.1578944999999976,
          "durationTicks": 192,
          "midi": 58,
          "name": "A#3",
          "ticks": 114240,
          "time": 93.9472275,
          "velocity": 0.47244094488188976
        },
        {
          "duration": 0.1578944999999976,
          "durationTicks": 192,
          "midi": 72,
          "name": "C5",
          "ticks": 114432,
          "time": 94.105122,
          "velocity": 0.47244094488188976
        },
        {
          "duration": 0.1578944999999976,
          "durationTicks": 192,
          "midi": 60,
          "name": "C4",
          "ticks": 114432,
          "time": 94.105122,
          "velocity": 0.47244094488188976
        },
        {
          "duration": 0.1578944999999976,
          "durationTicks": 192,
          "midi": 68,
          "name": "G#4",
          "ticks": 114624,
          "time": 94.26301649999999,
          "velocity": 0.47244094488188976
        },
        {
          "duration": 0.1578944999999976,
          "durationTicks": 192,
          "midi": 56,
          "name": "G#3",
          "ticks": 114624,
          "time": 94.26301649999999,
          "velocity": 0.47244094488188976
        },
        {
          "duration": 0.15789450000001182,
          "durationTicks": 192,
          "midi": 60,
          "name": "C4",
          "ticks": 114816,
          "time": 94.42091099999999,
          "velocity": 0.47244094488188976
        },
        {
          "duration": 0.15789450000001182,
          "durationTicks": 192,
          "midi": 72,
          "name": "C5",
          "ticks": 114816,
          "time": 94.42091099999999,
          "velocity": 0.47244094488188976
        },
        {
          "duration": 0.1578944999999976,
          "durationTicks": 192,
          "midi": 68,
          "name": "G#4",
          "ticks": 115008,
          "time": 94.5788055,
          "velocity": 0.47244094488188976
        },
        {
          "duration": 0.1578944999999976,
          "durationTicks": 192,
          "midi": 80,
          "name": "G#5",
          "ticks": 115008,
          "time": 94.5788055,
          "velocity": 0.47244094488188976
        },
        {
          "duration": 0.0789472499999988,
          "durationTicks": 96,
          "midi": 79,
          "name": "G5",
          "ticks": 115200,
          "time": 94.7367,
          "velocity": 0.47244094488188976
        },
        {
          "duration": 0.0789472499999988,
          "durationTicks": 96,
          "midi": 67,
          "name": "G4",
          "ticks": 115200,
          "time": 94.7367,
          "velocity": 0.47244094488188976
        },
        {
          "duration": 0.1184208749999982,
          "durationTicks": 144,
          "midi": 55,
          "name": "G3",
          "ticks": 115296,
          "time": 94.81564725,
          "velocity": 0.47244094488188976
        },
        {
          "duration": 0.1184208749999982,
          "durationTicks": 144,
          "midi": 67,
          "name": "G4",
          "ticks": 115296,
          "time": 94.81564725,
          "velocity": 0.47244094488188976
        },
        {
          "duration": 0.0789472499999988,
          "durationTicks": 96,
          "midi": 55,
          "name": "G3",
          "ticks": 115488,
          "time": 94.97354175,
          "velocity": 0.47244094488188976
        },
        {
          "duration": 0.0789472499999988,
          "durationTicks": 96,
          "midi": 67,
          "name": "G4",
          "ticks": 115488,
          "time": 94.97354175,
          "velocity": 0.47244094488188976
        },
        {
          "duration": 0.1578944999999976,
          "durationTicks": 192,
          "midi": 63,
          "name": "D#4",
          "ticks": 115584,
          "time": 95.052489,
          "velocity": 0.47244094488188976
        },
        {
          "duration": 0.1578944999999976,
          "durationTicks": 192,
          "midi": 75,
          "name": "D#5",
          "ticks": 115584,
          "time": 95.052489,
          "velocity": 0.47244094488188976
        },
        {
          "duration": 0.0789472499999988,
          "durationTicks": 96,
          "midi": 67,
          "name": "G4",
          "ticks": 115776,
          "time": 95.21038349999999,
          "velocity": 0.47244094488188976
        },
        {
          "duration": 0.0789472499999988,
          "durationTicks": 96,
          "midi": 55,
          "name": "G3",
          "ticks": 115776,
          "time": 95.21038349999999,
          "velocity": 0.47244094488188976
        },
        {
          "duration": 0.0789472499999988,
          "durationTicks": 96,
          "midi": 70,
          "name": "A#4",
          "ticks": 115872,
          "time": 95.28933074999999,
          "velocity": 0.47244094488188976
        },
        {
          "duration": 0.0789472499999988,
          "durationTicks": 96,
          "midi": 58,
          "name": "A#3",
          "ticks": 115872,
          "time": 95.28933074999999,
          "velocity": 0.47244094488188976
        },
        {
          "duration": 0.15789450000001182,
          "durationTicks": 192,
          "midi": 60,
          "name": "C4",
          "ticks": 115968,
          "time": 95.36827799999999,
          "velocity": 0.47244094488188976
        },
        {
          "duration": 0.15789450000001182,
          "durationTicks": 192,
          "midi": 72,
          "name": "C5",
          "ticks": 115968,
          "time": 95.36827799999999,
          "velocity": 0.47244094488188976
        },
        {
          "duration": 0.0789472499999988,
          "durationTicks": 96,
          "midi": 70,
          "name": "A#4",
          "ticks": 116160,
          "time": 95.5261725,
          "velocity": 0.47244094488188976
        },
        {
          "duration": 0.0789472499999988,
          "durationTicks": 96,
          "midi": 58,
          "name": "A#3",
          "ticks": 116160,
          "time": 95.5261725,
          "velocity": 0.47244094488188976
        },
        {
          "duration": 0.0789472499999988,
          "durationTicks": 96,
          "midi": 72,
          "name": "C5",
          "ticks": 116256,
          "time": 95.60511975,
          "velocity": 0.47244094488188976
        },
        {
          "duration": 0.0789472499999988,
          "durationTicks": 96,
          "midi": 60,
          "name": "C4",
          "ticks": 116256,
          "time": 95.60511975,
          "velocity": 0.47244094488188976
        },
        {
          "duration": 0.1578944999999976,
          "durationTicks": 192,
          "midi": 75,
          "name": "D#5",
          "ticks": 116352,
          "time": 95.684067,
          "velocity": 0.47244094488188976
        },
        {
          "duration": 0.1578944999999976,
          "durationTicks": 192,
          "midi": 63,
          "name": "D#4",
          "ticks": 116352,
          "time": 95.684067,
          "velocity": 0.47244094488188976
        },
        {
          "duration": 0.0789472499999988,
          "durationTicks": 96,
          "midi": 72,
          "name": "C5",
          "ticks": 116544,
          "time": 95.8419615,
          "velocity": 0.47244094488188976
        },
        {
          "duration": 0.0789472499999988,
          "durationTicks": 96,
          "midi": 60,
          "name": "C4",
          "ticks": 116544,
          "time": 95.8419615,
          "velocity": 0.47244094488188976
        },
        {
          "duration": 0.0789472499999988,
          "durationTicks": 96,
          "midi": 63,
          "name": "D#4",
          "ticks": 116640,
          "time": 95.92090875,
          "velocity": 0.47244094488188976
        },
        {
          "duration": 0.0789472499999988,
          "durationTicks": 96,
          "midi": 75,
          "name": "D#5",
          "ticks": 116640,
          "time": 95.92090875,
          "velocity": 0.47244094488188976
        },
        {
          "duration": 0.3157889999999952,
          "durationTicks": 384,
          "midi": 77,
          "name": "F5",
          "ticks": 116736,
          "time": 95.999856,
          "velocity": 0.47244094488188976
        },
        {
          "duration": 0.3157889999999952,
          "durationTicks": 384,
          "midi": 65,
          "name": "F4",
          "ticks": 116736,
          "time": 95.999856,
          "velocity": 0.47244094488188976
        },
        {
          "duration": 0.15789450000001182,
          "durationTicks": 192,
          "midi": 60,
          "name": "C4",
          "ticks": 117120,
          "time": 96.31564499999999,
          "velocity": 0.47244094488188976
        },
        {
          "duration": 0.15789450000001182,
          "durationTicks": 192,
          "midi": 72,
          "name": "C5",
          "ticks": 117120,
          "time": 96.31564499999999,
          "velocity": 0.47244094488188976
        },
        {
          "duration": 0.1578944999999976,
          "durationTicks": 192,
          "midi": 75,
          "name": "D#5",
          "ticks": 117312,
          "time": 96.4735395,
          "velocity": 0.47244094488188976
        },
        {
          "duration": 0.1578944999999976,
          "durationTicks": 192,
          "midi": 63,
          "name": "D#4",
          "ticks": 117312,
          "time": 96.4735395,
          "velocity": 0.47244094488188976
        },
        {
          "duration": 0.1578944999999976,
          "durationTicks": 192,
          "midi": 77,
          "name": "F5",
          "ticks": 117504,
          "time": 96.631434,
          "velocity": 0.47244094488188976
        },
        {
          "duration": 0.1578944999999976,
          "durationTicks": 192,
          "midi": 65,
          "name": "F4",
          "ticks": 117504,
          "time": 96.631434,
          "velocity": 0.47244094488188976
        },
        {
          "duration": 0.1578944999999976,
          "durationTicks": 192,
          "midi": 72,
          "name": "C5",
          "ticks": 117888,
          "time": 96.947223,
          "velocity": 0.47244094488188976
        },
        {
          "duration": 0.1578944999999976,
          "durationTicks": 192,
          "midi": 60,
          "name": "C4",
          "ticks": 117888,
          "time": 96.947223,
          "velocity": 0.47244094488188976
        },
        {
          "duration": 0.23684175000001062,
          "durationTicks": 288,
          "midi": 58,
          "name": "A#3",
          "ticks": 118272,
          "time": 97.26301199999999,
          "velocity": 0.47244094488188976
        },
        {
          "duration": 0.23684175000001062,
          "durationTicks": 288,
          "midi": 70,
          "name": "A#4",
          "ticks": 118272,
          "time": 97.26301199999999,
          "velocity": 0.47244094488188976
        },
        {
          "duration": 0.1578944999999976,
          "durationTicks": 192,
          "midi": 58,
          "name": "A#3",
          "ticks": 118656,
          "time": 97.578801,
          "velocity": 0.47244094488188976
        },
        {
          "duration": 0.1578944999999976,
          "durationTicks": 192,
          "midi": 70,
          "name": "A#4",
          "ticks": 118656,
          "time": 97.578801,
          "velocity": 0.47244094488188976
        },
        {
          "duration": 0.1578944999999976,
          "durationTicks": 192,
          "midi": 60,
          "name": "C4",
          "ticks": 118848,
          "time": 97.7366955,
          "velocity": 0.47244094488188976
        },
        {
          "duration": 0.1578944999999976,
          "durationTicks": 192,
          "midi": 72,
          "name": "C5",
          "ticks": 118848,
          "time": 97.7366955,
          "velocity": 0.47244094488188976
        },
        {
          "duration": 0.2368417499999964,
          "durationTicks": 288,
          "midi": 70,
          "name": "A#4",
          "ticks": 119040,
          "time": 97.89459,
          "velocity": 0.47244094488188976
        },
        {
          "duration": 0.2368417499999964,
          "durationTicks": 288,
          "midi": 58,
          "name": "A#3",
          "ticks": 119040,
          "time": 97.89459,
          "velocity": 0.47244094488188976
        },
        {
          "duration": 0.23684175000001062,
          "durationTicks": 288,
          "midi": 56,
          "name": "G#3",
          "ticks": 119424,
          "time": 98.21037899999999,
          "velocity": 0.47244094488188976
        },
        {
          "duration": 0.23684175000001062,
          "durationTicks": 288,
          "midi": 68,
          "name": "G#4",
          "ticks": 119424,
          "time": 98.21037899999999,
          "velocity": 0.47244094488188976
        },
        {
          "duration": 0.1578944999999976,
          "durationTicks": 192,
          "midi": 70,
          "name": "A#4",
          "ticks": 119808,
          "time": 98.526168,
          "velocity": 0.47244094488188976
        },
        {
          "duration": 0.1578944999999976,
          "durationTicks": 192,
          "midi": 58,
          "name": "A#3",
          "ticks": 119808,
          "time": 98.526168,
          "velocity": 0.47244094488188976
        },
        {
          "duration": 0.1578944999999976,
          "durationTicks": 192,
          "midi": 56,
          "name": "G#3",
          "ticks": 120000,
          "time": 98.6840625,
          "velocity": 0.47244094488188976
        },
        {
          "duration": 0.1578944999999976,
          "durationTicks": 192,
          "midi": 68,
          "name": "G#4",
          "ticks": 120000,
          "time": 98.6840625,
          "velocity": 0.47244094488188976
        },
        {
          "duration": 0.1578944999999976,
          "durationTicks": 192,
          "midi": 58,
          "name": "A#3",
          "ticks": 120192,
          "time": 98.841957,
          "velocity": 0.47244094488188976
        },
        {
          "duration": 0.1578944999999976,
          "durationTicks": 192,
          "midi": 70,
          "name": "A#4",
          "ticks": 120192,
          "time": 98.841957,
          "velocity": 0.47244094488188976
        },
        {
          "duration": 0.1578944999999976,
          "durationTicks": 192,
          "midi": 60,
          "name": "C4",
          "ticks": 120384,
          "time": 98.99985149999999,
          "velocity": 0.47244094488188976
        },
        {
          "duration": 0.1578944999999976,
          "durationTicks": 192,
          "midi": 72,
          "name": "C5",
          "ticks": 120384,
          "time": 98.99985149999999,
          "velocity": 0.47244094488188976
        },
        {
          "duration": 0.15789450000001182,
          "durationTicks": 192,
          "midi": 63,
          "name": "D#4",
          "ticks": 120576,
          "time": 99.15774599999999,
          "velocity": 0.47244094488188976
        },
        {
          "duration": 0.15789450000001182,
          "durationTicks": 192,
          "midi": 75,
          "name": "D#5",
          "ticks": 120576,
          "time": 99.15774599999999,
          "velocity": 0.47244094488188976
        },
        {
          "duration": 0.1578944999999976,
          "durationTicks": 192,
          "midi": 60,
          "name": "C4",
          "ticks": 120768,
          "time": 99.3156405,
          "velocity": 0.47244094488188976
        },
        {
          "duration": 0.1578944999999976,
          "durationTicks": 192,
          "midi": 72,
          "name": "C5",
          "ticks": 120768,
          "time": 99.3156405,
          "velocity": 0.47244094488188976
        },
        {
          "duration": 0.1578944999999976,
          "durationTicks": 192,
          "midi": 56,
          "name": "G#3",
          "ticks": 120960,
          "time": 99.473535,
          "velocity": 0.47244094488188976
        },
        {
          "duration": 0.1578944999999976,
          "durationTicks": 192,
          "midi": 68,
          "name": "G#4",
          "ticks": 120960,
          "time": 99.473535,
          "velocity": 0.47244094488188976
        },
        {
          "duration": 0.1578944999999976,
          "durationTicks": 192,
          "midi": 53,
          "name": "F3",
          "ticks": 121152,
          "time": 99.6314295,
          "velocity": 0.47244094488188976
        },
        {
          "duration": 0.1578944999999976,
          "durationTicks": 192,
          "midi": 65,
          "name": "F4",
          "ticks": 121152,
          "time": 99.6314295,
          "velocity": 0.47244094488188976
        },
        {
          "duration": 0.0789472499999988,
          "durationTicks": 96,
          "midi": 70,
          "name": "A#4",
          "ticks": 121344,
          "time": 99.789324,
          "velocity": 0.47244094488188976
        },
        {
          "duration": 0.0789472499999988,
          "durationTicks": 96,
          "midi": 58,
          "name": "A#3",
          "ticks": 121344,
          "time": 99.789324,
          "velocity": 0.47244094488188976
        },
        {
          "duration": 0.0789472499999988,
          "durationTicks": 96,
          "midi": 68,
          "name": "G#4",
          "ticks": 121440,
          "time": 99.86827124999999,
          "velocity": 0.47244094488188976
        },
        {
          "duration": 0.0789472499999988,
          "durationTicks": 96,
          "midi": 56,
          "name": "G#3",
          "ticks": 121440,
          "time": 99.86827124999999,
          "velocity": 0.47244094488188976
        },
        {
          "duration": 0.0789472499999988,
          "durationTicks": 96,
          "midi": 53,
          "name": "F3",
          "ticks": 121536,
          "time": 99.94721849999999,
          "velocity": 0.47244094488188976
        },
        {
          "duration": 0.0789472499999988,
          "durationTicks": 96,
          "midi": 65,
          "name": "F4",
          "ticks": 121536,
          "time": 99.94721849999999,
          "velocity": 0.47244094488188976
        },
        {
          "duration": 0.0789472499999988,
          "durationTicks": 96,
          "midi": 60,
          "name": "C4",
          "ticks": 121632,
          "time": 100.02616574999999,
          "velocity": 0.47244094488188976
        },
        {
          "duration": 0.0789472499999988,
          "durationTicks": 96,
          "midi": 48,
          "name": "C3",
          "ticks": 121632,
          "time": 100.02616574999999,
          "velocity": 0.47244094488188976
        },
        {
          "duration": 0.07894725000001301,
          "durationTicks": 96,
          "midi": 58,
          "name": "A#3",
          "ticks": 121728,
          "time": 100.10511299999999,
          "velocity": 0.47244094488188976
        },
        {
          "duration": 0.07894725000001301,
          "durationTicks": 96,
          "midi": 70,
          "name": "A#4",
          "ticks": 121728,
          "time": 100.10511299999999,
          "velocity": 0.47244094488188976
        },
        {
          "duration": 0.0789472499999988,
          "durationTicks": 96,
          "midi": 56,
          "name": "G#3",
          "ticks": 121824,
          "time": 100.18406025,
          "velocity": 0.47244094488188976
        },
        {
          "duration": 0.0789472499999988,
          "durationTicks": 96,
          "midi": 68,
          "name": "G#4",
          "ticks": 121824,
          "time": 100.18406025,
          "velocity": 0.47244094488188976
        },
        {
          "duration": 0.0789472499999988,
          "durationTicks": 96,
          "midi": 53,
          "name": "F3",
          "ticks": 121920,
          "time": 100.2630075,
          "velocity": 0.47244094488188976
        },
        {
          "duration": 0.0789472499999988,
          "durationTicks": 96,
          "midi": 65,
          "name": "F4",
          "ticks": 121920,
          "time": 100.2630075,
          "velocity": 0.47244094488188976
        },
        {
          "duration": 0.0789472499999988,
          "durationTicks": 96,
          "midi": 48,
          "name": "C3",
          "ticks": 122016,
          "time": 100.34195475,
          "velocity": 0.47244094488188976
        },
        {
          "duration": 0.0789472499999988,
          "durationTicks": 96,
          "midi": 60,
          "name": "C4",
          "ticks": 122016,
          "time": 100.34195475,
          "velocity": 0.47244094488188976
        },
        {
          "duration": 0.0789472499999988,
          "durationTicks": 96,
          "midi": 60,
          "name": "C4",
          "ticks": 122112,
          "time": 100.420902,
          "velocity": 0.47244094488188976
        },
        {
          "duration": 0.0789472499999988,
          "durationTicks": 96,
          "midi": 72,
          "name": "C5",
          "ticks": 122112,
          "time": 100.420902,
          "velocity": 0.47244094488188976
        },
        {
          "duration": 0.0789472499999988,
          "durationTicks": 96,
          "midi": 55,
          "name": "G3",
          "ticks": 122208,
          "time": 100.49984925,
          "velocity": 0.47244094488188976
        },
        {
          "duration": 0.0789472499999988,
          "durationTicks": 96,
          "midi": 67,
          "name": "G4",
          "ticks": 122208,
          "time": 100.49984925,
          "velocity": 0.47244094488188976
        },
        {
          "duration": 0.0789472499999988,
          "durationTicks": 96,
          "midi": 52,
          "name": "E3",
          "ticks": 122304,
          "time": 100.5787965,
          "velocity": 0.47244094488188976
        },
        {
          "duration": 0.0789472499999988,
          "durationTicks": 96,
          "midi": 64,
          "name": "E4",
          "ticks": 122304,
          "time": 100.5787965,
          "velocity": 0.47244094488188976
        },
        {
          "duration": 0.0789472499999988,
          "durationTicks": 96,
          "midi": 60,
          "name": "C4",
          "ticks": 122400,
          "time": 100.65774375,
          "velocity": 0.47244094488188976
        },
        {
          "duration": 0.0789472499999988,
          "durationTicks": 96,
          "midi": 48,
          "name": "C3",
          "ticks": 122400,
          "time": 100.65774375,
          "velocity": 0.47244094488188976
        },
        {
          "duration": 0.0789472499999988,
          "durationTicks": 96,
          "midi": 60,
          "name": "C4",
          "ticks": 122496,
          "time": 100.736691,
          "velocity": 0.47244094488188976
        },
        {
          "duration": 0.0789472499999988,
          "durationTicks": 96,
          "midi": 72,
          "name": "C5",
          "ticks": 122496,
          "time": 100.736691,
          "velocity": 0.47244094488188976
        },
        {
          "duration": 0.0789472499999988,
          "durationTicks": 96,
          "midi": 55,
          "name": "G3",
          "ticks": 122592,
          "time": 100.81563824999999,
          "velocity": 0.47244094488188976
        },
        {
          "duration": 0.0789472499999988,
          "durationTicks": 96,
          "midi": 67,
          "name": "G4",
          "ticks": 122592,
          "time": 100.81563824999999,
          "velocity": 0.47244094488188976
        },
        {
          "duration": 0.0789472499999988,
          "durationTicks": 96,
          "midi": 52,
          "name": "E3",
          "ticks": 122688,
          "time": 100.89458549999999,
          "velocity": 0.47244094488188976
        },
        {
          "duration": 0.0789472499999988,
          "durationTicks": 96,
          "midi": 64,
          "name": "E4",
          "ticks": 122688,
          "time": 100.89458549999999,
          "velocity": 0.47244094488188976
        },
        {
          "duration": 0.07894725000001301,
          "durationTicks": 96,
          "midi": 48,
          "name": "C3",
          "ticks": 122784,
          "time": 100.97353274999999,
          "velocity": 0.47244094488188976
        },
        {
          "duration": 0.07894725000001301,
          "durationTicks": 96,
          "midi": 60,
          "name": "C4",
          "ticks": 122784,
          "time": 100.97353274999999,
          "velocity": 0.47244094488188976
        },
        {
          "duration": 0.0789472499999988,
          "durationTicks": 96,
          "midi": 68,
          "name": "G#4",
          "ticks": 122880,
          "time": 101.05248,
          "velocity": 0.47244094488188976
        },
        {
          "duration": 0.0789472499999988,
          "durationTicks": 96,
          "midi": 56,
          "name": "G#3",
          "ticks": 122880,
          "time": 101.05248,
          "velocity": 0.47244094488188976
        },
        {
          "duration": 0.0789472499999988,
          "durationTicks": 96,
          "midi": 53,
          "name": "F3",
          "ticks": 122976,
          "time": 101.13142725,
          "velocity": 0.47244094488188976
        },
        {
          "duration": 0.0789472499999988,
          "durationTicks": 96,
          "midi": 65,
          "name": "F4",
          "ticks": 122976,
          "time": 101.13142725,
          "velocity": 0.47244094488188976
        },
        {
          "duration": 0.0789472499999988,
          "durationTicks": 96,
          "midi": 60,
          "name": "C4",
          "ticks": 123072,
          "time": 101.2103745,
          "velocity": 0.47244094488188976
        },
        {
          "duration": 0.0789472499999988,
          "durationTicks": 96,
          "midi": 48,
          "name": "C3",
          "ticks": 123072,
          "time": 101.2103745,
          "velocity": 0.47244094488188976
        },
        {
          "duration": 0.0789472499999988,
          "durationTicks": 96,
          "midi": 65,
          "name": "F4",
          "ticks": 123168,
          "time": 101.28932175,
          "velocity": 0.47244094488188976
        },
        {
          "duration": 0.0789472499999988,
          "durationTicks": 96,
          "midi": 53,
          "name": "F3",
          "ticks": 123168,
          "time": 101.28932175,
          "velocity": 0.47244094488188976
        },
        {
          "duration": 0.1578944999999976,
          "durationTicks": 192,
          "midi": 56,
          "name": "G#3",
          "ticks": 123264,
          "time": 101.368269,
          "velocity": 0.47244094488188976
        },
        {
          "duration": 0.1578944999999976,
          "durationTicks": 192,
          "midi": 68,
          "name": "G#4",
          "ticks": 123264,
          "time": 101.368269,
          "velocity": 0.47244094488188976
        },
        {
          "duration": 0.1578944999999976,
          "durationTicks": 192,
          "midi": 70,
          "name": "A#4",
          "ticks": 123456,
          "time": 101.5261635,
          "velocity": 0.47244094488188976
        },
        {
          "duration": 0.1578944999999976,
          "durationTicks": 192,
          "midi": 58,
          "name": "A#3",
          "ticks": 123456,
          "time": 101.5261635,
          "velocity": 0.47244094488188976
        },
        {
          "duration": 0.1578944999999976,
          "durationTicks": 192,
          "midi": 60,
          "name": "C4",
          "ticks": 123648,
          "time": 101.684058,
          "velocity": 0.47244094488188976
        },
        {
          "duration": 0.1578944999999976,
          "durationTicks": 192,
          "midi": 72,
          "name": "C5",
          "ticks": 123648,
          "time": 101.684058,
          "velocity": 0.47244094488188976
        },
        {
          "duration": 0.1578944999999976,
          "durationTicks": 192,
          "midi": 68,
          "name": "G#4",
          "ticks": 124032,
          "time": 101.999847,
          "velocity": 0.47244094488188976
        },
        {
          "duration": 0.1578944999999976,
          "durationTicks": 192,
          "midi": 56,
          "name": "G#3",
          "ticks": 124032,
          "time": 101.999847,
          "velocity": 0.47244094488188976
        },
        {
          "duration": 0.0789472499999988,
          "durationTicks": 96,
          "midi": 58,
          "name": "A#3",
          "ticks": 124416,
          "time": 102.315636,
          "velocity": 0.47244094488188976
        },
        {
          "duration": 0.0789472499999988,
          "durationTicks": 96,
          "midi": 70,
          "name": "A#4",
          "ticks": 124416,
          "time": 102.315636,
          "velocity": 0.47244094488188976
        },
        {
          "duration": 0.0789472499999988,
          "durationTicks": 96,
          "midi": 55,
          "name": "G3",
          "ticks": 124512,
          "time": 102.39458325,
          "velocity": 0.47244094488188976
        },
        {
          "duration": 0.0789472499999988,
          "durationTicks": 96,
          "midi": 67,
          "name": "G4",
          "ticks": 124512,
          "time": 102.39458325,
          "velocity": 0.47244094488188976
        },
        {
          "duration": 0.0789472499999988,
          "durationTicks": 96,
          "midi": 53,
          "name": "F3",
          "ticks": 124608,
          "time": 102.4735305,
          "velocity": 0.47244094488188976
        },
        {
          "duration": 0.0789472499999988,
          "durationTicks": 96,
          "midi": 65,
          "name": "F4",
          "ticks": 124608,
          "time": 102.4735305,
          "velocity": 0.47244094488188976
        },
        {
          "duration": 0.0789472499999988,
          "durationTicks": 96,
          "midi": 67,
          "name": "G4",
          "ticks": 124704,
          "time": 102.55247775,
          "velocity": 0.47244094488188976
        },
        {
          "duration": 0.0789472499999988,
          "durationTicks": 96,
          "midi": 55,
          "name": "G3",
          "ticks": 124704,
          "time": 102.55247775,
          "velocity": 0.47244094488188976
        },
        {
          "duration": 0.1578944999999976,
          "durationTicks": 192,
          "midi": 70,
          "name": "A#4",
          "ticks": 124800,
          "time": 102.631425,
          "velocity": 0.47244094488188976
        },
        {
          "duration": 0.1578944999999976,
          "durationTicks": 192,
          "midi": 58,
          "name": "A#3",
          "ticks": 124800,
          "time": 102.631425,
          "velocity": 0.47244094488188976
        },
        {
          "duration": 0.15789450000001182,
          "durationTicks": 192,
          "midi": 72,
          "name": "C5",
          "ticks": 124992,
          "time": 102.78931949999999,
          "velocity": 0.47244094488188976
        },
        {
          "duration": 0.15789450000001182,
          "durationTicks": 192,
          "midi": 60,
          "name": "C4",
          "ticks": 124992,
          "time": 102.78931949999999,
          "velocity": 0.47244094488188976
        },
        {
          "duration": 0.2368417499999964,
          "durationTicks": 288,
          "midi": 55,
          "name": "G3",
          "ticks": 125184,
          "time": 102.947214,
          "velocity": 0.47244094488188976
        },
        {
          "duration": 0.2368417499999964,
          "durationTicks": 288,
          "midi": 67,
          "name": "G4",
          "ticks": 125184,
          "time": 102.947214,
          "velocity": 0.47244094488188976
        },
        {
          "duration": 0.0789472499999988,
          "durationTicks": 96,
          "midi": 68,
          "name": "G#4",
          "ticks": 125472,
          "time": 103.18405575,
          "velocity": 0.47244094488188976
        },
        {
          "duration": 0.0789472499999988,
          "durationTicks": 96,
          "midi": 56,
          "name": "G#3",
          "ticks": 125472,
          "time": 103.18405575,
          "velocity": 0.47244094488188976
        },
        {
          "duration": 0.1578944999999976,
          "durationTicks": 192,
          "midi": 63,
          "name": "D#4",
          "ticks": 125568,
          "time": 103.263003,
          "velocity": 0.47244094488188976
        },
        {
          "duration": 0.1578944999999976,
          "durationTicks": 192,
          "midi": 51,
          "name": "D#3",
          "ticks": 125568,
          "time": 103.263003,
          "velocity": 0.47244094488188976
        },
        {
          "duration": 0.1578944999999976,
          "durationTicks": 192,
          "midi": 67,
          "name": "G4",
          "ticks": 125760,
          "time": 103.4208975,
          "velocity": 0.47244094488188976
        },
        {
          "duration": 0.1578944999999976,
          "durationTicks": 192,
          "midi": 55,
          "name": "G3",
          "ticks": 125760,
          "time": 103.4208975,
          "velocity": 0.47244094488188976
        },
        {
          "duration": 0.1578944999999976,
          "durationTicks": 192,
          "midi": 68,
          "name": "G#4",
          "ticks": 125952,
          "time": 103.57879199999999,
          "velocity": 0.47244094488188976
        },
        {
          "duration": 0.1578944999999976,
          "durationTicks": 192,
          "midi": 56,
          "name": "G#3",
          "ticks": 125952,
          "time": 103.57879199999999,
          "velocity": 0.47244094488188976
        },
        {
          "duration": 0.1578944999999976,
          "durationTicks": 192,
          "midi": 68,
          "name": "G#4",
          "ticks": 126336,
          "time": 103.894581,
          "velocity": 0.47244094488188976
        },
        {
          "duration": 0.1578944999999976,
          "durationTicks": 192,
          "midi": 56,
          "name": "G#3",
          "ticks": 126336,
          "time": 103.894581,
          "velocity": 0.47244094488188976
        },
        {
          "duration": 0.1578944999999976,
          "durationTicks": 192,
          "midi": 70,
          "name": "A#4",
          "ticks": 126528,
          "time": 104.0524755,
          "velocity": 0.47244094488188976
        },
        {
          "duration": 0.1578944999999976,
          "durationTicks": 192,
          "midi": 58,
          "name": "A#3",
          "ticks": 126528,
          "time": 104.0524755,
          "velocity": 0.47244094488188976
        },
        {
          "duration": 0.1578944999999976,
          "durationTicks": 192,
          "midi": 60,
          "name": "C4",
          "ticks": 126720,
          "time": 104.21037,
          "velocity": 0.47244094488188976
        },
        {
          "duration": 0.1578944999999976,
          "durationTicks": 192,
          "midi": 72,
          "name": "C5",
          "ticks": 126720,
          "time": 104.21037,
          "velocity": 0.47244094488188976
        },
        {
          "duration": 0.1578944999999976,
          "durationTicks": 192,
          "midi": 68,
          "name": "G#4",
          "ticks": 126912,
          "time": 104.3682645,
          "velocity": 0.47244094488188976
        },
        {
          "duration": 0.1578944999999976,
          "durationTicks": 192,
          "midi": 56,
          "name": "G#3",
          "ticks": 126912,
          "time": 104.3682645,
          "velocity": 0.47244094488188976
        },
        {
          "duration": 0.1578944999999976,
          "durationTicks": 192,
          "midi": 60,
          "name": "C4",
          "ticks": 127104,
          "time": 104.52615899999999,
          "velocity": 0.47244094488188976
        },
        {
          "duration": 0.1578944999999976,
          "durationTicks": 192,
          "midi": 72,
          "name": "C5",
          "ticks": 127104,
          "time": 104.52615899999999,
          "velocity": 0.47244094488188976
        },
        {
          "duration": 0.15789450000001182,
          "durationTicks": 192,
          "midi": 80,
          "name": "G#5",
          "ticks": 127296,
          "time": 104.68405349999999,
          "velocity": 0.47244094488188976
        },
        {
          "duration": 0.15789450000001182,
          "durationTicks": 192,
          "midi": 68,
          "name": "G#4",
          "ticks": 127296,
          "time": 104.68405349999999,
          "velocity": 0.47244094488188976
        },
        {
          "duration": 0.0789472499999988,
          "durationTicks": 96,
          "midi": 67,
          "name": "G4",
          "ticks": 127488,
          "time": 104.841948,
          "velocity": 0.47244094488188976
        },
        {
          "duration": 0.0789472499999988,
          "durationTicks": 96,
          "midi": 79,
          "name": "G5",
          "ticks": 127488,
          "time": 104.841948,
          "velocity": 0.47244094488188976
        },
        {
          "duration": 0.1184208749999982,
          "durationTicks": 144,
          "midi": 67,
          "name": "G4",
          "ticks": 127584,
          "time": 104.92089525,
          "velocity": 0.47244094488188976
        },
        {
          "duration": 0.1184208749999982,
          "durationTicks": 144,
          "midi": 55,
          "name": "G3",
          "ticks": 127584,
          "time": 104.92089525,
          "velocity": 0.47244094488188976
        },
        {
          "duration": 0.0789472499999988,
          "durationTicks": 96,
          "midi": 55,
          "name": "G3",
          "ticks": 127776,
          "time": 105.07878975,
          "velocity": 0.47244094488188976
        },
        {
          "duration": 0.0789472499999988,
          "durationTicks": 96,
          "midi": 67,
          "name": "G4",
          "ticks": 127776,
          "time": 105.07878975,
          "velocity": 0.47244094488188976
        },
        {
          "duration": 0.1578944999999976,
          "durationTicks": 192,
          "midi": 63,
          "name": "D#4",
          "ticks": 127872,
          "time": 105.157737,
          "velocity": 0.47244094488188976
        },
        {
          "duration": 0.1578944999999976,
          "durationTicks": 192,
          "midi": 75,
          "name": "D#5",
          "ticks": 127872,
          "time": 105.157737,
          "velocity": 0.47244094488188976
        },
        {
          "duration": 0.0789472499999988,
          "durationTicks": 96,
          "midi": 67,
          "name": "G4",
          "ticks": 128064,
          "time": 105.3156315,
          "velocity": 0.47244094488188976
        },
        {
          "duration": 0.0789472499999988,
          "durationTicks": 96,
          "midi": 55,
          "name": "G3",
          "ticks": 128064,
          "time": 105.3156315,
          "velocity": 0.47244094488188976
        },
        {
          "duration": 0.0789472499999988,
          "durationTicks": 96,
          "midi": 58,
          "name": "A#3",
          "ticks": 128160,
          "time": 105.39457875,
          "velocity": 0.47244094488188976
        },
        {
          "duration": 0.0789472499999988,
          "durationTicks": 96,
          "midi": 70,
          "name": "A#4",
          "ticks": 128160,
          "time": 105.39457875,
          "velocity": 0.47244094488188976
        },
        {
          "duration": 0.1578944999999976,
          "durationTicks": 192,
          "midi": 60,
          "name": "C4",
          "ticks": 128256,
          "time": 105.47352599999999,
          "velocity": 0.47244094488188976
        },
        {
          "duration": 0.1578944999999976,
          "durationTicks": 192,
          "midi": 72,
          "name": "C5",
          "ticks": 128256,
          "time": 105.47352599999999,
          "velocity": 0.47244094488188976
        },
        {
          "duration": 0.0789472499999988,
          "durationTicks": 96,
          "midi": 70,
          "name": "A#4",
          "ticks": 128448,
          "time": 105.63142049999999,
          "velocity": 0.47244094488188976
        },
        {
          "duration": 0.0789472499999988,
          "durationTicks": 96,
          "midi": 58,
          "name": "A#3",
          "ticks": 128448,
          "time": 105.63142049999999,
          "velocity": 0.47244094488188976
        },
        {
          "duration": 0.07894725000001301,
          "durationTicks": 96,
          "midi": 72,
          "name": "C5",
          "ticks": 128544,
          "time": 105.71036774999999,
          "velocity": 0.47244094488188976
        },
        {
          "duration": 0.07894725000001301,
          "durationTicks": 96,
          "midi": 60,
          "name": "C4",
          "ticks": 128544,
          "time": 105.71036774999999,
          "velocity": 0.47244094488188976
        },
        {
          "duration": 0.1578944999999976,
          "durationTicks": 192,
          "midi": 63,
          "name": "D#4",
          "ticks": 128640,
          "time": 105.789315,
          "velocity": 0.47244094488188976
        },
        {
          "duration": 0.1578944999999976,
          "durationTicks": 192,
          "midi": 75,
          "name": "D#5",
          "ticks": 128640,
          "time": 105.789315,
          "velocity": 0.47244094488188976
        },
        {
          "duration": 0.0789472499999988,
          "durationTicks": 96,
          "midi": 72,
          "name": "C5",
          "ticks": 128832,
          "time": 105.9472095,
          "velocity": 0.47244094488188976
        },
        {
          "duration": 0.0789472499999988,
          "durationTicks": 96,
          "midi": 60,
          "name": "C4",
          "ticks": 128832,
          "time": 105.9472095,
          "velocity": 0.47244094488188976
        },
        {
          "duration": 0.0789472499999988,
          "durationTicks": 96,
          "midi": 75,
          "name": "D#5",
          "ticks": 128928,
          "time": 106.02615675,
          "velocity": 0.47244094488188976
        },
        {
          "duration": 0.0789472499999988,
          "durationTicks": 96,
          "midi": 63,
          "name": "D#4",
          "ticks": 128928,
          "time": 106.02615675,
          "velocity": 0.47244094488188976
        },
        {
          "duration": 0.3157889999999952,
          "durationTicks": 384,
          "midi": 65,
          "name": "F4",
          "ticks": 129024,
          "time": 106.105104,
          "velocity": 0.47244094488188976
        },
        {
          "duration": 0.3157889999999952,
          "durationTicks": 384,
          "midi": 77,
          "name": "F5",
          "ticks": 129024,
          "time": 106.105104,
          "velocity": 0.47244094488188976
        },
        {
          "duration": 0.1578944999999976,
          "durationTicks": 192,
          "midi": 72,
          "name": "C5",
          "ticks": 129408,
          "time": 106.42089299999999,
          "velocity": 0.47244094488188976
        },
        {
          "duration": 0.1578944999999976,
          "durationTicks": 192,
          "midi": 60,
          "name": "C4",
          "ticks": 129408,
          "time": 106.42089299999999,
          "velocity": 0.47244094488188976
        },
        {
          "duration": 0.15789450000001182,
          "durationTicks": 192,
          "midi": 63,
          "name": "D#4",
          "ticks": 129600,
          "time": 106.57878749999999,
          "velocity": 0.47244094488188976
        },
        {
          "duration": 0.15789450000001182,
          "durationTicks": 192,
          "midi": 75,
          "name": "D#5",
          "ticks": 129600,
          "time": 106.57878749999999,
          "velocity": 0.47244094488188976
        },
        {
          "duration": 0.1578944999999976,
          "durationTicks": 192,
          "midi": 77,
          "name": "F5",
          "ticks": 129792,
          "time": 106.736682,
          "velocity": 0.47244094488188976
        },
        {
          "duration": 0.1578944999999976,
          "durationTicks": 192,
          "midi": 65,
          "name": "F4",
          "ticks": 129792,
          "time": 106.736682,
          "velocity": 0.47244094488188976
        },
        {
          "duration": 0.1578944999999976,
          "durationTicks": 192,
          "midi": 72,
          "name": "C5",
          "ticks": 130176,
          "time": 107.052471,
          "velocity": 0.47244094488188976
        },
        {
          "duration": 0.1578944999999976,
          "durationTicks": 192,
          "midi": 60,
          "name": "C4",
          "ticks": 130176,
          "time": 107.052471,
          "velocity": 0.47244094488188976
        },
        {
          "duration": 0.2368417499999964,
          "durationTicks": 288,
          "midi": 58,
          "name": "A#3",
          "ticks": 130560,
          "time": 107.36825999999999,
          "velocity": 0.47244094488188976
        },
        {
          "duration": 0.2368417499999964,
          "durationTicks": 288,
          "midi": 70,
          "name": "A#4",
          "ticks": 130560,
          "time": 107.36825999999999,
          "velocity": 0.47244094488188976
        },
        {
          "duration": 0.1578944999999976,
          "durationTicks": 192,
          "midi": 70,
          "name": "A#4",
          "ticks": 130944,
          "time": 107.684049,
          "velocity": 0.47244094488188976
        },
        {
          "duration": 0.1578944999999976,
          "durationTicks": 192,
          "midi": 58,
          "name": "A#3",
          "ticks": 130944,
          "time": 107.684049,
          "velocity": 0.47244094488188976
        },
        {
          "duration": 0.1578944999999976,
          "durationTicks": 192,
          "midi": 60,
          "name": "C4",
          "ticks": 131136,
          "time": 107.8419435,
          "velocity": 0.47244094488188976
        },
        {
          "duration": 0.1578944999999976,
          "durationTicks": 192,
          "midi": 72,
          "name": "C5",
          "ticks": 131136,
          "time": 107.8419435,
          "velocity": 0.47244094488188976
        },
        {
          "duration": 0.2368417499999964,
          "durationTicks": 288,
          "midi": 70,
          "name": "A#4",
          "ticks": 131328,
          "time": 107.999838,
          "velocity": 0.47244094488188976
        },
        {
          "duration": 0.2368417499999964,
          "durationTicks": 288,
          "midi": 58,
          "name": "A#3",
          "ticks": 131328,
          "time": 107.999838,
          "velocity": 0.47244094488188976
        },
        {
          "duration": 0.2368417499999964,
          "durationTicks": 288,
          "midi": 68,
          "name": "G#4",
          "ticks": 131712,
          "time": 108.31562699999999,
          "velocity": 0.47244094488188976
        },
        {
          "duration": 0.2368417499999964,
          "durationTicks": 288,
          "midi": 56,
          "name": "G#3",
          "ticks": 131712,
          "time": 108.31562699999999,
          "velocity": 0.47244094488188976
        },
        {
          "duration": 0.1578944999999976,
          "durationTicks": 192,
          "midi": 70,
          "name": "A#4",
          "ticks": 132096,
          "time": 108.631416,
          "velocity": 0.47244094488188976
        },
        {
          "duration": 0.1578944999999976,
          "durationTicks": 192,
          "midi": 58,
          "name": "A#3",
          "ticks": 132096,
          "time": 108.631416,
          "velocity": 0.47244094488188976
        },
        {
          "duration": 0.1578944999999976,
          "durationTicks": 192,
          "midi": 68,
          "name": "G#4",
          "ticks": 132288,
          "time": 108.7893105,
          "velocity": 0.47244094488188976
        },
        {
          "duration": 0.1578944999999976,
          "durationTicks": 192,
          "midi": 56,
          "name": "G#3",
          "ticks": 132288,
          "time": 108.7893105,
          "velocity": 0.47244094488188976
        },
        {
          "duration": 0.1578944999999976,
          "durationTicks": 192,
          "midi": 58,
          "name": "A#3",
          "ticks": 132480,
          "time": 108.947205,
          "velocity": 0.47244094488188976
        },
        {
          "duration": 0.1578944999999976,
          "durationTicks": 192,
          "midi": 70,
          "name": "A#4",
          "ticks": 132480,
          "time": 108.947205,
          "velocity": 0.47244094488188976
        },
        {
          "duration": 0.1578944999999976,
          "durationTicks": 192,
          "midi": 72,
          "name": "C5",
          "ticks": 132672,
          "time": 109.1050995,
          "velocity": 0.47244094488188976
        },
        {
          "duration": 0.1578944999999976,
          "durationTicks": 192,
          "midi": 60,
          "name": "C4",
          "ticks": 132672,
          "time": 109.1050995,
          "velocity": 0.47244094488188976
        },
        {
          "duration": 0.1578944999999976,
          "durationTicks": 192,
          "midi": 63,
          "name": "D#4",
          "ticks": 132864,
          "time": 109.26299399999999,
          "velocity": 0.47244094488188976
        },
        {
          "duration": 0.1578944999999976,
          "durationTicks": 192,
          "midi": 75,
          "name": "D#5",
          "ticks": 132864,
          "time": 109.26299399999999,
          "velocity": 0.47244094488188976
        },
        {
          "duration": 0.15789450000001182,
          "durationTicks": 192,
          "midi": 60,
          "name": "C4",
          "ticks": 133056,
          "time": 109.42088849999999,
          "velocity": 0.47244094488188976
        },
        {
          "duration": 0.15789450000001182,
          "durationTicks": 192,
          "midi": 72,
          "name": "C5",
          "ticks": 133056,
          "time": 109.42088849999999,
          "velocity": 0.47244094488188976
        },
        {
          "duration": 0.1578944999999976,
          "durationTicks": 192,
          "midi": 68,
          "name": "G#4",
          "ticks": 133248,
          "time": 109.578783,
          "velocity": 0.47244094488188976
        },
        {
          "duration": 0.1578944999999976,
          "durationTicks": 192,
          "midi": 56,
          "name": "G#3",
          "ticks": 133248,
          "time": 109.578783,
          "velocity": 0.47244094488188976
        },
        {
          "duration": 0.1578944999999976,
          "durationTicks": 192,
          "midi": 65,
          "name": "F4",
          "ticks": 133440,
          "time": 109.7366775,
          "velocity": 0.47244094488188976
        },
        {
          "duration": 0.1578944999999976,
          "durationTicks": 192,
          "midi": 53,
          "name": "F3",
          "ticks": 133440,
          "time": 109.7366775,
          "velocity": 0.47244094488188976
        },
        {
          "duration": 0.0789472499999988,
          "durationTicks": 96,
          "midi": 58,
          "name": "A#3",
          "ticks": 133632,
          "time": 109.894572,
          "velocity": 0.47244094488188976
        },
        {
          "duration": 0.0789472499999988,
          "durationTicks": 96,
          "midi": 70,
          "name": "A#4",
          "ticks": 133632,
          "time": 109.894572,
          "velocity": 0.47244094488188976
        },
        {
          "duration": 0.0789472499999988,
          "durationTicks": 96,
          "midi": 56,
          "name": "G#3",
          "ticks": 133728,
          "time": 109.97351925,
          "velocity": 0.47244094488188976
        },
        {
          "duration": 0.0789472499999988,
          "durationTicks": 96,
          "midi": 68,
          "name": "G#4",
          "ticks": 133728,
          "time": 109.97351925,
          "velocity": 0.47244094488188976
        },
        {
          "duration": 0.0789472499999988,
          "durationTicks": 96,
          "midi": 65,
          "name": "F4",
          "ticks": 133824,
          "time": 110.0524665,
          "velocity": 0.47244094488188976
        },
        {
          "duration": 0.0789472499999988,
          "durationTicks": 96,
          "midi": 53,
          "name": "F3",
          "ticks": 133824,
          "time": 110.0524665,
          "velocity": 0.47244094488188976
        },
        {
          "duration": 0.0789472499999988,
          "durationTicks": 96,
          "midi": 48,
          "name": "C3",
          "ticks": 133920,
          "time": 110.13141375,
          "velocity": 0.47244094488188976
        },
        {
          "duration": 0.0789472499999988,
          "durationTicks": 96,
          "midi": 60,
          "name": "C4",
          "ticks": 133920,
          "time": 110.13141375,
          "velocity": 0.47244094488188976
        },
        {
          "duration": 0.0789472499999988,
          "durationTicks": 96,
          "midi": 58,
          "name": "A#3",
          "ticks": 134016,
          "time": 110.21036099999999,
          "velocity": 0.47244094488188976
        },
        {
          "duration": 0.0789472499999988,
          "durationTicks": 96,
          "midi": 70,
          "name": "A#4",
          "ticks": 134016,
          "time": 110.21036099999999,
          "velocity": 0.47244094488188976
        },
        {
          "duration": 0.0789472499999988,
          "durationTicks": 96,
          "midi": 56,
          "name": "G#3",
          "ticks": 134112,
          "time": 110.28930824999999,
          "velocity": 0.47244094488188976
        },
        {
          "duration": 0.0789472499999988,
          "durationTicks": 96,
          "midi": 68,
          "name": "G#4",
          "ticks": 134112,
          "time": 110.28930824999999,
          "velocity": 0.47244094488188976
        },
        {
          "duration": 0.0789472499999988,
          "durationTicks": 96,
          "midi": 53,
          "name": "F3",
          "ticks": 134208,
          "time": 110.36825549999999,
          "velocity": 0.47244094488188976
        },
        {
          "duration": 0.0789472499999988,
          "durationTicks": 96,
          "midi": 65,
          "name": "F4",
          "ticks": 134208,
          "time": 110.36825549999999,
          "velocity": 0.47244094488188976
        },
        {
          "duration": 0.07894725000001301,
          "durationTicks": 96,
          "midi": 48,
          "name": "C3",
          "ticks": 134304,
          "time": 110.44720274999999,
          "velocity": 0.47244094488188976
        },
        {
          "duration": 0.07894725000001301,
          "durationTicks": 96,
          "midi": 60,
          "name": "C4",
          "ticks": 134304,
          "time": 110.44720274999999,
          "velocity": 0.47244094488188976
        },
        {
          "duration": 0.0789472499999988,
          "durationTicks": 96,
          "midi": 60,
          "name": "C4",
          "ticks": 134400,
          "time": 110.52615,
          "velocity": 0.47244094488188976
        },
        {
          "duration": 0.0789472499999988,
          "durationTicks": 96,
          "midi": 72,
          "name": "C5",
          "ticks": 134400,
          "time": 110.52615,
          "velocity": 0.47244094488188976
        },
        {
          "duration": 0.0789472499999988,
          "durationTicks": 96,
          "midi": 55,
          "name": "G3",
          "ticks": 134496,
          "time": 110.60509725,
          "velocity": 0.47244094488188976
        },
        {
          "duration": 0.0789472499999988,
          "durationTicks": 96,
          "midi": 67,
          "name": "G4",
          "ticks": 134496,
          "time": 110.60509725,
          "velocity": 0.47244094488188976
        },
        {
          "duration": 0.0789472499999988,
          "durationTicks": 96,
          "midi": 64,
          "name": "E4",
          "ticks": 134592,
          "time": 110.6840445,
          "velocity": 0.47244094488188976
        },
        {
          "duration": 0.0789472499999988,
          "durationTicks": 96,
          "midi": 52,
          "name": "E3",
          "ticks": 134592,
          "time": 110.6840445,
          "velocity": 0.47244094488188976
        },
        {
          "duration": 0.0789472499999988,
          "durationTicks": 96,
          "midi": 48,
          "name": "C3",
          "ticks": 134688,
          "time": 110.76299175,
          "velocity": 0.47244094488188976
        },
        {
          "duration": 0.0789472499999988,
          "durationTicks": 96,
          "midi": 60,
          "name": "C4",
          "ticks": 134688,
          "time": 110.76299175,
          "velocity": 0.47244094488188976
        },
        {
          "duration": 0.0789472499999988,
          "durationTicks": 96,
          "midi": 72,
          "name": "C5",
          "ticks": 134784,
          "time": 110.841939,
          "velocity": 0.47244094488188976
        },
        {
          "duration": 0.0789472499999988,
          "durationTicks": 96,
          "midi": 60,
          "name": "C4",
          "ticks": 134784,
          "time": 110.841939,
          "velocity": 0.47244094488188976
        },
        {
          "duration": 0.0789472499999988,
          "durationTicks": 96,
          "midi": 55,
          "name": "G3",
          "ticks": 134880,
          "time": 110.92088625,
          "velocity": 0.47244094488188976
        },
        {
          "duration": 0.0789472499999988,
          "durationTicks": 96,
          "midi": 67,
          "name": "G4",
          "ticks": 134880,
          "time": 110.92088625,
          "velocity": 0.47244094488188976
        },
        {
          "duration": 0.0789472499999988,
          "durationTicks": 96,
          "midi": 52,
          "name": "E3",
          "ticks": 134976,
          "time": 110.9998335,
          "velocity": 0.47244094488188976
        },
        {
          "duration": 0.0789472499999988,
          "durationTicks": 96,
          "midi": 64,
          "name": "E4",
          "ticks": 134976,
          "time": 110.9998335,
          "velocity": 0.47244094488188976
        },
        {
          "duration": 0.0394736249999994,
          "durationTicks": 48,
          "midi": 60,
          "name": "C4",
          "ticks": 135072,
          "time": 111.07878074999999,
          "velocity": 0.47244094488188976
        },
        {
          "duration": 0.0394736249999994,
          "durationTicks": 48,
          "midi": 48,
          "name": "C3",
          "ticks": 135072,
          "time": 111.07878074999999,
          "velocity": 0.47244094488188976
        }
      ],
      "endOfTrackTicks": 135120
    },
    {
      "channel": 5,
      "controlChanges": {},
      "pitchBends": [],
      "instrument": {
        "family": "synth lead",
        "number": 80,
        "name": "lead 1 (square)"
      },
      "name": "8-Bit Square",
      "notes": [
        {
          "duration": 0.1578944999999976,
          "durationTicks": 192,
          "midi": 69,
          "name": "A4",
          "ticks": 70656,
          "time": 58.105176,
          "velocity": 0.3937007874015748
        },
        {
          "duration": 0.11842087500000531,
          "durationTicks": 144,
          "midi": 69,
          "name": "A4",
          "ticks": 71040,
          "time": 58.420964999999995,
          "velocity": 0.3937007874015748
        },
        {
          "duration": 0.1184208749999982,
          "durationTicks": 144,
          "midi": 70,
          "name": "A#4",
          "ticks": 71232,
          "time": 58.5788595,
          "velocity": 0.3937007874015748
        },
        {
          "duration": 0.2368417499999964,
          "durationTicks": 288,
          "midi": 72,
          "name": "C5",
          "ticks": 71424,
          "time": 58.736754,
          "velocity": 0.3937007874015748
        },
        {
          "duration": 0.3157889999999952,
          "durationTicks": 384,
          "midi": 77,
          "name": "F5",
          "ticks": 71808,
          "time": 59.052543,
          "velocity": 0.3937007874015748
        },
        {
          "duration": 0.6315780000000046,
          "durationTicks": 768,
          "midi": 74,
          "name": "D5",
          "ticks": 72192,
          "time": 59.368331999999995,
          "velocity": 0.3937007874015748
        },
        {
          "duration": 0.0986840624999985,
          "durationTicks": 120,
          "midi": 72,
          "name": "C5",
          "ticks": 72960,
          "time": 59.99991,
          "velocity": 0.3464566929133858
        },
        {
          "duration": 0.0986840624999985,
          "durationTicks": 120,
          "midi": 72,
          "name": "C5",
          "ticks": 73152,
          "time": 60.1578045,
          "velocity": 0.4330708661417323
        },
        {
          "duration": 0.09868406250000561,
          "durationTicks": 120,
          "midi": 72,
          "name": "C5",
          "ticks": 73344,
          "time": 60.315698999999995,
          "velocity": 0.47244094488188976
        },
        {
          "duration": 0.0986840624999985,
          "durationTicks": 120,
          "midi": 72,
          "name": "C5",
          "ticks": 73536,
          "time": 60.4735935,
          "velocity": 0.5039370078740157
        },
        {
          "duration": 0.1578944999999976,
          "durationTicks": 192,
          "midi": 68,
          "name": "G#4",
          "ticks": 73728,
          "time": 60.631488,
          "velocity": 0.3937007874015748
        },
        {
          "duration": 0.1578944999999976,
          "durationTicks": 192,
          "midi": 68,
          "name": "G#4",
          "ticks": 74112,
          "time": 60.947277,
          "velocity": 0.3937007874015748
        },
        {
          "duration": 0.1578944999999976,
          "durationTicks": 192,
          "midi": 70,
          "name": "A#4",
          "ticks": 74304,
          "time": 61.1051715,
          "velocity": 0.3937007874015748
        },
        {
          "duration": 0.1578945000000047,
          "durationTicks": 192,
          "midi": 72,
          "name": "C5",
          "ticks": 74496,
          "time": 61.263065999999995,
          "velocity": 0.3937007874015748
        },
        {
          "duration": 0.1578944999999976,
          "durationTicks": 192,
          "midi": 68,
          "name": "G#4",
          "ticks": 74880,
          "time": 61.578855,
          "velocity": 0.3937007874015748
        },
        {
          "duration": 0.1578944999999976,
          "durationTicks": 192,
          "midi": 70,
          "name": "A#4",
          "ticks": 75264,
          "time": 61.894644,
          "velocity": 0.3937007874015748
        },
        {
          "duration": 0.1578945000000047,
          "durationTicks": 192,
          "midi": 70,
          "name": "A#4",
          "ticks": 75648,
          "time": 62.210432999999995,
          "velocity": 0.3937007874015748
        },
        {
          "duration": 0.1578944999999976,
          "durationTicks": 192,
          "midi": 72,
          "name": "C5",
          "ticks": 75840,
          "time": 62.3683275,
          "velocity": 0.3937007874015748
        },
        {
          "duration": 0.1578944999999976,
          "durationTicks": 192,
          "midi": 67,
          "name": "G4",
          "ticks": 76032,
          "time": 62.526222,
          "velocity": 0.3937007874015748
        },
        {
          "duration": 0.1578944999999976,
          "durationTicks": 192,
          "midi": 63,
          "name": "D#4",
          "ticks": 76416,
          "time": 62.842011,
          "velocity": 0.3937007874015748
        },
        {
          "duration": 0.1578945000000047,
          "durationTicks": 192,
          "midi": 68,
          "name": "G#4",
          "ticks": 76800,
          "time": 63.157799999999995,
          "velocity": 0.3937007874015748
        },
        {
          "duration": 0.1578944999999976,
          "durationTicks": 192,
          "midi": 68,
          "name": "G#4",
          "ticks": 77184,
          "time": 63.473589,
          "velocity": 0.3937007874015748
        },
        {
          "duration": 0.1578945000000047,
          "durationTicks": 192,
          "midi": 70,
          "name": "A#4",
          "ticks": 77376,
          "time": 63.631483499999995,
          "velocity": 0.3937007874015748
        },
        {
          "duration": 0.1578944999999976,
          "durationTicks": 192,
          "midi": 72,
          "name": "C5",
          "ticks": 77568,
          "time": 63.789378,
          "velocity": 0.3937007874015748
        },
        {
          "duration": 0.1578944999999976,
          "durationTicks": 192,
          "midi": 68,
          "name": "G#4",
          "ticks": 77760,
          "time": 63.9472725,
          "velocity": 0.3937007874015748
        },
        {
          "duration": 0.1578944999999976,
          "durationTicks": 192,
          "midi": 72,
          "name": "C5",
          "ticks": 77952,
          "time": 64.105167,
          "velocity": 0.3937007874015748
        },
        {
          "duration": 0.15789450000001182,
          "durationTicks": 192,
          "midi": 80,
          "name": "G#5",
          "ticks": 78144,
          "time": 64.26306149999999,
          "velocity": 0.3937007874015748
        },
        {
          "duration": 0.3157889999999952,
          "durationTicks": 384,
          "midi": 79,
          "name": "G5",
          "ticks": 78336,
          "time": 64.420956,
          "velocity": 0.3937007874015748
        },
        {
          "duration": 0.3157889999999952,
          "durationTicks": 384,
          "midi": 75,
          "name": "D#5",
          "ticks": 78720,
          "time": 64.736745,
          "velocity": 0.3937007874015748
        },
        {
          "duration": 0.3157890000000094,
          "durationTicks": 384,
          "midi": 70,
          "name": "A#4",
          "ticks": 79104,
          "time": 65.052534,
          "velocity": 0.3937007874015748
        },
        {
          "duration": 0.3157889999999952,
          "durationTicks": 384,
          "midi": 67,
          "name": "G4",
          "ticks": 79488,
          "time": 65.368323,
          "velocity": 0.3937007874015748
        },
        {
          "duration": 0.4736834999999928,
          "durationTicks": 576,
          "midi": 68,
          "name": "G#4",
          "ticks": 79872,
          "time": 65.684112,
          "velocity": 0.3937007874015748
        },
        {
          "duration": 0.15789450000001182,
          "durationTicks": 192,
          "midi": 75,
          "name": "D#5",
          "ticks": 80448,
          "time": 66.15779549999999,
          "velocity": 0.3937007874015748
        },
        {
          "duration": 0.1578944999999976,
          "durationTicks": 192,
          "midi": 77,
          "name": "F5",
          "ticks": 80640,
          "time": 66.31569,
          "velocity": 0.3937007874015748
        },
        {
          "duration": 0.1578944999999976,
          "durationTicks": 192,
          "midi": 72,
          "name": "C5",
          "ticks": 81024,
          "time": 66.631479,
          "velocity": 0.3937007874015748
        },
        {
          "duration": 0.2368417499999964,
          "durationTicks": 288,
          "midi": 70,
          "name": "A#4",
          "ticks": 81408,
          "time": 66.947268,
          "velocity": 0.3937007874015748
        },
        {
          "duration": 0.1578944999999976,
          "durationTicks": 192,
          "midi": 70,
          "name": "A#4",
          "ticks": 81792,
          "time": 67.263057,
          "velocity": 0.3937007874015748
        },
        {
          "duration": 0.1578944999999976,
          "durationTicks": 192,
          "midi": 72,
          "name": "C5",
          "ticks": 81984,
          "time": 67.4209515,
          "velocity": 0.3937007874015748
        },
        {
          "duration": 0.2368417499999964,
          "durationTicks": 288,
          "midi": 70,
          "name": "A#4",
          "ticks": 82176,
          "time": 67.578846,
          "velocity": 0.3937007874015748
        },
        {
          "duration": 0.2368417499999964,
          "durationTicks": 288,
          "midi": 68,
          "name": "G#4",
          "ticks": 82560,
          "time": 67.894635,
          "velocity": 0.3937007874015748
        },
        {
          "duration": 0.2368417499999964,
          "durationTicks": 288,
          "midi": 70,
          "name": "A#4",
          "ticks": 82944,
          "time": 68.210424,
          "velocity": 0.3937007874015748
        },
        {
          "duration": 0.1578944999999976,
          "durationTicks": 192,
          "midi": 70,
          "name": "A#4",
          "ticks": 83328,
          "time": 68.526213,
          "velocity": 0.3937007874015748
        },
        {
          "duration": 0.1578944999999976,
          "durationTicks": 192,
          "midi": 72,
          "name": "C5",
          "ticks": 83520,
          "time": 68.6841075,
          "velocity": 0.3937007874015748
        },
        {
          "duration": 0.2368417499999964,
          "durationTicks": 288,
          "midi": 70,
          "name": "A#4",
          "ticks": 83712,
          "time": 68.842002,
          "velocity": 0.3937007874015748
        },
        {
          "duration": 0.2368417499999964,
          "durationTicks": 288,
          "midi": 68,
          "name": "G#4",
          "ticks": 84096,
          "time": 69.157791,
          "velocity": 0.3937007874015748
        },
        {
          "duration": 0.6315780000000046,
          "durationTicks": 768,
          "midi": 70,
          "name": "A#4",
          "ticks": 84480,
          "time": 69.47358,
          "velocity": 0.3937007874015748
        },
        {
          "duration": 0.6315779999999904,
          "durationTicks": 768,
          "midi": 72,
          "name": "C5",
          "ticks": 85248,
          "time": 70.105158,
          "velocity": 0.3937007874015748
        },
        {
          "duration": 0.1578944999999976,
          "durationTicks": 192,
          "midi": 68,
          "name": "G#4",
          "ticks": 86016,
          "time": 70.736736,
          "velocity": 0.3937007874015748
        },
        {
          "duration": 0.1578944999999976,
          "durationTicks": 192,
          "midi": 68,
          "name": "G#4",
          "ticks": 86400,
          "time": 71.052525,
          "velocity": 0.3937007874015748
        },
        {
          "duration": 0.1578944999999976,
          "durationTicks": 192,
          "midi": 70,
          "name": "A#4",
          "ticks": 86592,
          "time": 71.2104195,
          "velocity": 0.3937007874015748
        },
        {
          "duration": 0.1578944999999976,
          "durationTicks": 192,
          "midi": 72,
          "name": "C5",
          "ticks": 86784,
          "time": 71.368314,
          "velocity": 0.3937007874015748
        },
        {
          "duration": 0.1578944999999976,
          "durationTicks": 192,
          "midi": 68,
          "name": "G#4",
          "ticks": 87168,
          "time": 71.684103,
          "velocity": 0.3937007874015748
        },
        {
          "duration": 0.1578944999999976,
          "durationTicks": 192,
          "midi": 70,
          "name": "A#4",
          "ticks": 87552,
          "time": 71.999892,
          "velocity": 0.3937007874015748
        },
        {
          "duration": 0.1578944999999976,
          "durationTicks": 192,
          "midi": 70,
          "name": "A#4",
          "ticks": 87936,
          "time": 72.315681,
          "velocity": 0.3937007874015748
        },
        {
          "duration": 0.1578944999999976,
          "durationTicks": 192,
          "midi": 72,
          "name": "C5",
          "ticks": 88128,
          "time": 72.4735755,
          "velocity": 0.3937007874015748
        },
        {
          "duration": 0.23684175000001062,
          "durationTicks": 288,
          "midi": 67,
          "name": "G4",
          "ticks": 88320,
          "time": 72.63147,
          "velocity": 0.3937007874015748
        },
        {
          "duration": 0.0789472499999988,
          "durationTicks": 96,
          "midi": 68,
          "name": "G#4",
          "ticks": 88608,
          "time": 72.86831175,
          "velocity": 0.3937007874015748
        },
        {
          "duration": 0.1578944999999976,
          "durationTicks": 192,
          "midi": 63,
          "name": "D#4",
          "ticks": 88704,
          "time": 72.947259,
          "velocity": 0.3937007874015748
        },
        {
          "duration": 0.1578944999999976,
          "durationTicks": 192,
          "midi": 67,
          "name": "G4",
          "ticks": 88896,
          "time": 73.1051535,
          "velocity": 0.3937007874015748
        },
        {
          "duration": 0.1578944999999976,
          "durationTicks": 192,
          "midi": 68,
          "name": "G#4",
          "ticks": 89088,
          "time": 73.263048,
          "velocity": 0.3937007874015748
        },
        {
          "duration": 0.1578944999999976,
          "durationTicks": 192,
          "midi": 68,
          "name": "G#4",
          "ticks": 89472,
          "time": 73.578837,
          "velocity": 0.3937007874015748
        },
        {
          "duration": 0.15789450000001182,
          "durationTicks": 192,
          "midi": 70,
          "name": "A#4",
          "ticks": 89664,
          "time": 73.73673149999999,
          "velocity": 0.3937007874015748
        },
        {
          "duration": 0.1578944999999976,
          "durationTicks": 192,
          "midi": 72,
          "name": "C5",
          "ticks": 89856,
          "time": 73.894626,
          "velocity": 0.3937007874015748
        },
        {
          "duration": 0.1578944999999976,
          "durationTicks": 192,
          "midi": 68,
          "name": "G#4",
          "ticks": 90048,
          "time": 74.0525205,
          "velocity": 0.3937007874015748
        },
        {
          "duration": 0.1578944999999976,
          "durationTicks": 192,
          "midi": 72,
          "name": "C5",
          "ticks": 90240,
          "time": 74.210415,
          "velocity": 0.3937007874015748
        },
        {
          "duration": 0.1578944999999976,
          "durationTicks": 192,
          "midi": 80,
          "name": "G#5",
          "ticks": 90432,
          "time": 74.3683095,
          "velocity": 0.3937007874015748
        },
        {
          "duration": 0.3157890000000094,
          "durationTicks": 384,
          "midi": 79,
          "name": "G5",
          "ticks": 90624,
          "time": 74.52620399999999,
          "velocity": 0.3937007874015748
        },
        {
          "duration": 0.3157889999999952,
          "durationTicks": 384,
          "midi": 75,
          "name": "D#5",
          "ticks": 91008,
          "time": 74.841993,
          "velocity": 0.3937007874015748
        },
        {
          "duration": 0.3157889999999952,
          "durationTicks": 384,
          "midi": 70,
          "name": "A#4",
          "ticks": 91392,
          "time": 75.157782,
          "velocity": 0.3937007874015748
        },
        {
          "duration": 0.3157890000000094,
          "durationTicks": 384,
          "midi": 67,
          "name": "G4",
          "ticks": 91776,
          "time": 75.47357099999999,
          "velocity": 0.3937007874015748
        },
        {
          "duration": 0.4736834999999928,
          "durationTicks": 576,
          "midi": 68,
          "name": "G#4",
          "ticks": 92160,
          "time": 75.78936,
          "velocity": 0.3937007874015748
        },
        {
          "duration": 0.1578944999999976,
          "durationTicks": 192,
          "midi": 75,
          "name": "D#5",
          "ticks": 92736,
          "time": 76.2630435,
          "velocity": 0.3937007874015748
        },
        {
          "duration": 0.1578944999999976,
          "durationTicks": 192,
          "midi": 77,
          "name": "F5",
          "ticks": 92928,
          "time": 76.42093799999999,
          "velocity": 0.3937007874015748
        },
        {
          "duration": 0.1578944999999976,
          "durationTicks": 192,
          "midi": 72,
          "name": "C5",
          "ticks": 93312,
          "time": 76.736727,
          "velocity": 0.3937007874015748
        },
        {
          "duration": 0.2368417499999964,
          "durationTicks": 288,
          "midi": 70,
          "name": "A#4",
          "ticks": 93696,
          "time": 77.052516,
          "velocity": 0.3937007874015748
        },
        {
          "duration": 0.1578944999999976,
          "durationTicks": 192,
          "midi": 70,
          "name": "A#4",
          "ticks": 94080,
          "time": 77.36830499999999,
          "velocity": 0.3937007874015748
        },
        {
          "duration": 0.15789450000001182,
          "durationTicks": 192,
          "midi": 72,
          "name": "C5",
          "ticks": 94272,
          "time": 77.52619949999999,
          "velocity": 0.3937007874015748
        },
        {
          "duration": 0.2368417499999964,
          "durationTicks": 288,
          "midi": 70,
          "name": "A#4",
          "ticks": 94464,
          "time": 77.684094,
          "velocity": 0.3937007874015748
        },
        {
          "duration": 0.2368417499999964,
          "durationTicks": 288,
          "midi": 68,
          "name": "G#4",
          "ticks": 94848,
          "time": 77.999883,
          "velocity": 0.3937007874015748
        },
        {
          "duration": 0.23684175000001062,
          "durationTicks": 288,
          "midi": 70,
          "name": "A#4",
          "ticks": 95232,
          "time": 78.31567199999999,
          "velocity": 0.3937007874015748
        },
        {
          "duration": 0.1578944999999976,
          "durationTicks": 192,
          "midi": 70,
          "name": "A#4",
          "ticks": 95616,
          "time": 78.631461,
          "velocity": 0.3937007874015748
        },
        {
          "duration": 0.1578944999999976,
          "durationTicks": 192,
          "midi": 72,
          "name": "C5",
          "ticks": 95808,
          "time": 78.7893555,
          "velocity": 0.3937007874015748
        },
        {
          "duration": 0.2368417499999964,
          "durationTicks": 288,
          "midi": 70,
          "name": "A#4",
          "ticks": 96000,
          "time": 78.94725,
          "velocity": 0.3937007874015748
        },
        {
          "duration": 0.23684175000001062,
          "durationTicks": 288,
          "midi": 68,
          "name": "G#4",
          "ticks": 96384,
          "time": 79.26303899999999,
          "velocity": 0.3937007874015748
        },
        {
          "duration": 0.6315779999999904,
          "durationTicks": 768,
          "midi": 70,
          "name": "A#4",
          "ticks": 96768,
          "time": 79.578828,
          "velocity": 0.3937007874015748
        },
        {
          "duration": 0.6315780000000046,
          "durationTicks": 768,
          "midi": 72,
          "name": "C5",
          "ticks": 97536,
          "time": 80.21040599999999,
          "velocity": 0.3937007874015748
        },
        {
          "duration": 0.0789472499999988,
          "durationTicks": 96,
          "midi": 68,
          "name": "G#4",
          "ticks": 98304,
          "time": 80.841984,
          "velocity": 0.3937007874015748
        },
        {
          "duration": 0.0789472499999988,
          "durationTicks": 96,
          "midi": 65,
          "name": "F4",
          "ticks": 98400,
          "time": 80.92093125,
          "velocity": 0.3937007874015748
        },
        {
          "duration": 0.0789472499999988,
          "durationTicks": 96,
          "midi": 60,
          "name": "C4",
          "ticks": 98496,
          "time": 80.9998785,
          "velocity": 0.3937007874015748
        },
        {
          "duration": 0.0789472499999988,
          "durationTicks": 96,
          "midi": 65,
          "name": "F4",
          "ticks": 98592,
          "time": 81.07882575,
          "velocity": 0.3937007874015748
        },
        {
          "duration": 0.15789450000001182,
          "durationTicks": 192,
          "midi": 68,
          "name": "G#4",
          "ticks": 98688,
          "time": 81.15777299999999,
          "velocity": 0.3937007874015748
        },
        {
          "duration": 0.1578944999999976,
          "durationTicks": 192,
          "midi": 70,
          "name": "A#4",
          "ticks": 98880,
          "time": 81.3156675,
          "velocity": 0.3937007874015748
        },
        {
          "duration": 0.1578944999999976,
          "durationTicks": 192,
          "midi": 72,
          "name": "C5",
          "ticks": 99072,
          "time": 81.473562,
          "velocity": 0.3937007874015748
        },
        {
          "duration": 0.1578944999999976,
          "durationTicks": 192,
          "midi": 68,
          "name": "G#4",
          "ticks": 99456,
          "time": 81.789351,
          "velocity": 0.3937007874015748
        },
        {
          "duration": 0.0789472499999988,
          "durationTicks": 96,
          "midi": 70,
          "name": "A#4",
          "ticks": 99840,
          "time": 82.10513999999999,
          "velocity": 0.3937007874015748
        },
        {
          "duration": 0.07894725000001301,
          "durationTicks": 96,
          "midi": 67,
          "name": "G4",
          "ticks": 99936,
          "time": 82.18408724999999,
          "velocity": 0.3937007874015748
        },
        {
          "duration": 0.0789472499999988,
          "durationTicks": 96,
          "midi": 65,
          "name": "F4",
          "ticks": 100032,
          "time": 82.2630345,
          "velocity": 0.3937007874015748
        },
        {
          "duration": 0.0789472499999988,
          "durationTicks": 96,
          "midi": 67,
          "name": "G4",
          "ticks": 100128,
          "time": 82.34198175,
          "velocity": 0.3937007874015748
        },
        {
          "duration": 0.1578944999999976,
          "durationTicks": 192,
          "midi": 70,
          "name": "A#4",
          "ticks": 100224,
          "time": 82.420929,
          "velocity": 0.3937007874015748
        },
        {
          "duration": 0.1578944999999976,
          "durationTicks": 192,
          "midi": 72,
          "name": "C5",
          "ticks": 100416,
          "time": 82.5788235,
          "velocity": 0.3937007874015748
        },
        {
          "duration": 0.2368417499999964,
          "durationTicks": 288,
          "midi": 67,
          "name": "G4",
          "ticks": 100608,
          "time": 82.736718,
          "velocity": 0.3937007874015748
        },
        {
          "duration": 0.0789472499999988,
          "durationTicks": 96,
          "midi": 68,
          "name": "G#4",
          "ticks": 100896,
          "time": 82.97355974999999,
          "velocity": 0.3937007874015748
        },
        {
          "duration": 0.15789450000001182,
          "durationTicks": 192,
          "midi": 63,
          "name": "D#4",
          "ticks": 100992,
          "time": 83.05250699999999,
          "velocity": 0.3937007874015748
        },
        {
          "duration": 0.1578944999999976,
          "durationTicks": 192,
          "midi": 67,
          "name": "G4",
          "ticks": 101184,
          "time": 83.2104015,
          "velocity": 0.3937007874015748
        },
        {
          "duration": 0.1578944999999976,
          "durationTicks": 192,
          "midi": 68,
          "name": "G#4",
          "ticks": 101376,
          "time": 83.368296,
          "velocity": 0.3937007874015748
        },
        {
          "duration": 0.1578944999999976,
          "durationTicks": 192,
          "midi": 68,
          "name": "G#4",
          "ticks": 101760,
          "time": 83.684085,
          "velocity": 0.3937007874015748
        },
        {
          "duration": 0.1578944999999976,
          "durationTicks": 192,
          "midi": 70,
          "name": "A#4",
          "ticks": 101952,
          "time": 83.8419795,
          "velocity": 0.3937007874015748
        },
        {
          "duration": 0.15789450000001182,
          "durationTicks": 192,
          "midi": 72,
          "name": "C5",
          "ticks": 102144,
          "time": 83.99987399999999,
          "velocity": 0.3937007874015748
        },
        {
          "duration": 0.1578944999999976,
          "durationTicks": 192,
          "midi": 68,
          "name": "G#4",
          "ticks": 102336,
          "time": 84.1577685,
          "velocity": 0.3937007874015748
        },
        {
          "duration": 0.1578944999999976,
          "durationTicks": 192,
          "midi": 72,
          "name": "C5",
          "ticks": 102528,
          "time": 84.315663,
          "velocity": 0.3937007874015748
        },
        {
          "duration": 0.1578944999999976,
          "durationTicks": 192,
          "midi": 80,
          "name": "G#5",
          "ticks": 102720,
          "time": 84.4735575,
          "velocity": 0.3937007874015748
        },
        {
          "duration": 0.0789472499999988,
          "durationTicks": 96,
          "midi": 79,
          "name": "G5",
          "ticks": 102912,
          "time": 84.631452,
          "velocity": 0.3937007874015748
        },
        {
          "duration": 0.1184208749999982,
          "durationTicks": 144,
          "midi": 67,
          "name": "G4",
          "ticks": 103008,
          "time": 84.71039925,
          "velocity": 0.3937007874015748
        },
        {
          "duration": 0.0789472499999988,
          "durationTicks": 96,
          "midi": 67,
          "name": "G4",
          "ticks": 103200,
          "time": 84.86829374999999,
          "velocity": 0.3937007874015748
        },
        {
          "duration": 0.15789450000001182,
          "durationTicks": 192,
          "midi": 75,
          "name": "D#5",
          "ticks": 103296,
          "time": 84.94724099999999,
          "velocity": 0.3937007874015748
        },
        {
          "duration": 0.0789472499999988,
          "durationTicks": 96,
          "midi": 67,
          "name": "G4",
          "ticks": 103488,
          "time": 85.1051355,
          "velocity": 0.3937007874015748
        },
        {
          "duration": 0.0789472499999988,
          "durationTicks": 96,
          "midi": 70,
          "name": "A#4",
          "ticks": 103584,
          "time": 85.18408275,
          "velocity": 0.3937007874015748
        },
        {
          "duration": 0.1578944999999976,
          "durationTicks": 192,
          "midi": 72,
          "name": "C5",
          "ticks": 103680,
          "time": 85.26303,
          "velocity": 0.3937007874015748
        },
        {
          "duration": 0.0789472499999988,
          "durationTicks": 96,
          "midi": 70,
          "name": "A#4",
          "ticks": 103872,
          "time": 85.4209245,
          "velocity": 0.3937007874015748
        },
        {
          "duration": 0.0789472499999988,
          "durationTicks": 96,
          "midi": 72,
          "name": "C5",
          "ticks": 103968,
          "time": 85.49987175,
          "velocity": 0.3937007874015748
        },
        {
          "duration": 0.1578944999999976,
          "durationTicks": 192,
          "midi": 75,
          "name": "D#5",
          "ticks": 104064,
          "time": 85.578819,
          "velocity": 0.3937007874015748
        },
        {
          "duration": 0.0789472499999988,
          "durationTicks": 96,
          "midi": 72,
          "name": "C5",
          "ticks": 104256,
          "time": 85.7367135,
          "velocity": 0.3937007874015748
        },
        {
          "duration": 0.0789472499999988,
          "durationTicks": 96,
          "midi": 75,
          "name": "D#5",
          "ticks": 104352,
          "time": 85.81566074999999,
          "velocity": 0.3937007874015748
        },
        {
          "duration": 0.3157890000000094,
          "durationTicks": 384,
          "midi": 77,
          "name": "F5",
          "ticks": 104448,
          "time": 85.89460799999999,
          "velocity": 0.3937007874015748
        },
        {
          "duration": 0.1578944999999976,
          "durationTicks": 192,
          "midi": 72,
          "name": "C5",
          "ticks": 104832,
          "time": 86.210397,
          "velocity": 0.3937007874015748
        },
        {
          "duration": 0.1578944999999976,
          "durationTicks": 192,
          "midi": 75,
          "name": "D#5",
          "ticks": 105024,
          "time": 86.3682915,
          "velocity": 0.3937007874015748
        },
        {
          "duration": 0.1578944999999976,
          "durationTicks": 192,
          "midi": 77,
          "name": "F5",
          "ticks": 105216,
          "time": 86.526186,
          "velocity": 0.3937007874015748
        },
        {
          "duration": 0.15789450000001182,
          "durationTicks": 192,
          "midi": 72,
          "name": "C5",
          "ticks": 105600,
          "time": 86.84197499999999,
          "velocity": 0.3937007874015748
        },
        {
          "duration": 0.2368417499999964,
          "durationTicks": 288,
          "midi": 70,
          "name": "A#4",
          "ticks": 105984,
          "time": 87.157764,
          "velocity": 0.3937007874015748
        },
        {
          "duration": 0.1578944999999976,
          "durationTicks": 192,
          "midi": 70,
          "name": "A#4",
          "ticks": 106368,
          "time": 87.473553,
          "velocity": 0.3937007874015748
        },
        {
          "duration": 0.1578944999999976,
          "durationTicks": 192,
          "midi": 72,
          "name": "C5",
          "ticks": 106560,
          "time": 87.6314475,
          "velocity": 0.3937007874015748
        },
        {
          "duration": 0.23684175000001062,
          "durationTicks": 288,
          "midi": 70,
          "name": "A#4",
          "ticks": 106752,
          "time": 87.78934199999999,
          "velocity": 0.3937007874015748
        },
        {
          "duration": 0.2368417499999964,
          "durationTicks": 288,
          "midi": 68,
          "name": "G#4",
          "ticks": 107136,
          "time": 88.105131,
          "velocity": 0.3937007874015748
        },
        {
          "duration": 0.1578944999999976,
          "durationTicks": 192,
          "midi": 70,
          "name": "A#4",
          "ticks": 107520,
          "time": 88.42092,
          "velocity": 0.3937007874015748
        },
        {
          "duration": 0.1578944999999976,
          "durationTicks": 192,
          "midi": 68,
          "name": "G#4",
          "ticks": 107712,
          "time": 88.5788145,
          "velocity": 0.3937007874015748
        },
        {
          "duration": 0.15789450000001182,
          "durationTicks": 192,
          "midi": 70,
          "name": "A#4",
          "ticks": 107904,
          "time": 88.73670899999999,
          "velocity": 0.3937007874015748
        },
        {
          "duration": 0.1578944999999976,
          "durationTicks": 192,
          "midi": 72,
          "name": "C5",
          "ticks": 108096,
          "time": 88.8946035,
          "velocity": 0.3937007874015748
        },
        {
          "duration": 0.1578944999999976,
          "durationTicks": 192,
          "midi": 75,
          "name": "D#5",
          "ticks": 108288,
          "time": 89.052498,
          "velocity": 0.3937007874015748
        },
        {
          "duration": 0.1578944999999976,
          "durationTicks": 192,
          "midi": 72,
          "name": "C5",
          "ticks": 108480,
          "time": 89.2103925,
          "velocity": 0.3937007874015748
        },
        {
          "duration": 0.1578944999999976,
          "durationTicks": 192,
          "midi": 68,
          "name": "G#4",
          "ticks": 108672,
          "time": 89.368287,
          "velocity": 0.3937007874015748
        },
        {
          "duration": 0.1578944999999976,
          "durationTicks": 192,
          "midi": 65,
          "name": "F4",
          "ticks": 108864,
          "time": 89.52618149999999,
          "velocity": 0.3937007874015748
        },
        {
          "duration": 0.0789472499999988,
          "durationTicks": 96,
          "midi": 70,
          "name": "A#4",
          "ticks": 109056,
          "time": 89.68407599999999,
          "velocity": 0.3937007874015748
        },
        {
          "duration": 0.07894725000001301,
          "durationTicks": 96,
          "midi": 68,
          "name": "G#4",
          "ticks": 109152,
          "time": 89.76302324999999,
          "velocity": 0.3937007874015748
        },
        {
          "duration": 0.0789472499999988,
          "durationTicks": 96,
          "midi": 65,
          "name": "F4",
          "ticks": 109248,
          "time": 89.8419705,
          "velocity": 0.3937007874015748
        },
        {
          "duration": 0.0789472499999988,
          "durationTicks": 96,
          "midi": 60,
          "name": "C4",
          "ticks": 109344,
          "time": 89.92091775,
          "velocity": 0.3937007874015748
        },
        {
          "duration": 0.0789472499999988,
          "durationTicks": 96,
          "midi": 70,
          "name": "A#4",
          "ticks": 109440,
          "time": 89.999865,
          "velocity": 0.3937007874015748
        },
        {
          "duration": 0.0789472499999988,
          "durationTicks": 96,
          "midi": 68,
          "name": "G#4",
          "ticks": 109536,
          "time": 90.07881225,
          "velocity": 0.3937007874015748
        },
        {
          "duration": 0.0789472499999988,
          "durationTicks": 96,
          "midi": 65,
          "name": "F4",
          "ticks": 109632,
          "time": 90.1577595,
          "velocity": 0.3937007874015748
        },
        {
          "duration": 0.0789472499999988,
          "durationTicks": 96,
          "midi": 60,
          "name": "C4",
          "ticks": 109728,
          "time": 90.23670675,
          "velocity": 0.3937007874015748
        },
        {
          "duration": 0.0789472499999988,
          "durationTicks": 96,
          "midi": 72,
          "name": "C5",
          "ticks": 109824,
          "time": 90.315654,
          "velocity": 0.3937007874015748
        },
        {
          "duration": 0.0789472499999988,
          "durationTicks": 96,
          "midi": 67,
          "name": "G4",
          "ticks": 109920,
          "time": 90.39460125,
          "velocity": 0.3937007874015748
        },
        {
          "duration": 0.0789472499999988,
          "durationTicks": 96,
          "midi": 64,
          "name": "E4",
          "ticks": 110016,
          "time": 90.47354849999999,
          "velocity": 0.3937007874015748
        },
        {
          "duration": 0.0789472499999988,
          "durationTicks": 96,
          "midi": 60,
          "name": "C4",
          "ticks": 110112,
          "time": 90.55249574999999,
          "velocity": 0.3937007874015748
        },
        {
          "duration": 0.0789472499999988,
          "durationTicks": 96,
          "midi": 72,
          "name": "C5",
          "ticks": 110208,
          "time": 90.63144299999999,
          "velocity": 0.3937007874015748
        },
        {
          "duration": 0.07894725000001301,
          "durationTicks": 96,
          "midi": 67,
          "name": "G4",
          "ticks": 110304,
          "time": 90.71039024999999,
          "velocity": 0.3937007874015748
        },
        {
          "duration": 0.0789472499999988,
          "durationTicks": 96,
          "midi": 64,
          "name": "E4",
          "ticks": 110400,
          "time": 90.7893375,
          "velocity": 0.3937007874015748
        },
        {
          "duration": 0.0789472499999988,
          "durationTicks": 96,
          "midi": 60,
          "name": "C4",
          "ticks": 110496,
          "time": 90.86828475,
          "velocity": 0.3937007874015748
        },
        {
          "duration": 0.0789472499999988,
          "durationTicks": 96,
          "midi": 68,
          "name": "G#4",
          "ticks": 110592,
          "time": 90.947232,
          "velocity": 0.3937007874015748
        },
        {
          "duration": 0.0789472499999988,
          "durationTicks": 96,
          "midi": 65,
          "name": "F4",
          "ticks": 110688,
          "time": 91.02617925,
          "velocity": 0.3937007874015748
        },
        {
          "duration": 0.0789472499999988,
          "durationTicks": 96,
          "midi": 60,
          "name": "C4",
          "ticks": 110784,
          "time": 91.1051265,
          "velocity": 0.3937007874015748
        },
        {
          "duration": 0.0789472499999988,
          "durationTicks": 96,
          "midi": 65,
          "name": "F4",
          "ticks": 110880,
          "time": 91.18407375,
          "velocity": 0.3937007874015748
        },
        {
          "duration": 0.1578944999999976,
          "durationTicks": 192,
          "midi": 68,
          "name": "G#4",
          "ticks": 110976,
          "time": 91.263021,
          "velocity": 0.3937007874015748
        },
        {
          "duration": 0.1578944999999976,
          "durationTicks": 192,
          "midi": 70,
          "name": "A#4",
          "ticks": 111168,
          "time": 91.42091549999999,
          "velocity": 0.3937007874015748
        },
        {
          "duration": 0.15789450000001182,
          "durationTicks": 192,
          "midi": 72,
          "name": "C5",
          "ticks": 111360,
          "time": 91.57880999999999,
          "velocity": 0.3937007874015748
        },
        {
          "duration": 0.1578944999999976,
          "durationTicks": 192,
          "midi": 68,
          "name": "G#4",
          "ticks": 111744,
          "time": 91.894599,
          "velocity": 0.3937007874015748
        },
        {
          "duration": 0.0789472499999988,
          "durationTicks": 96,
          "midi": 70,
          "name": "A#4",
          "ticks": 112128,
          "time": 92.210388,
          "velocity": 0.3937007874015748
        },
        {
          "duration": 0.0789472499999988,
          "durationTicks": 96,
          "midi": 67,
          "name": "G4",
          "ticks": 112224,
          "time": 92.28933525,
          "velocity": 0.3937007874015748
        },
        {
          "duration": 0.0789472499999988,
          "durationTicks": 96,
          "midi": 65,
          "name": "F4",
          "ticks": 112320,
          "time": 92.36828249999999,
          "velocity": 0.3937007874015748
        },
        {
          "duration": 0.0789472499999988,
          "durationTicks": 96,
          "midi": 67,
          "name": "G4",
          "ticks": 112416,
          "time": 92.44722974999999,
          "velocity": 0.3937007874015748
        },
        {
          "duration": 0.15789450000001182,
          "durationTicks": 192,
          "midi": 70,
          "name": "A#4",
          "ticks": 112512,
          "time": 92.52617699999999,
          "velocity": 0.3937007874015748
        },
        {
          "duration": 0.1578944999999976,
          "durationTicks": 192,
          "midi": 72,
          "name": "C5",
          "ticks": 112704,
          "time": 92.6840715,
          "velocity": 0.3937007874015748
        },
        {
          "duration": 0.2368417499999964,
          "durationTicks": 288,
          "midi": 67,
          "name": "G4",
          "ticks": 112896,
          "time": 92.841966,
          "velocity": 0.3937007874015748
        },
        {
          "duration": 0.0789472499999988,
          "durationTicks": 96,
          "midi": 68,
          "name": "G#4",
          "ticks": 113184,
          "time": 93.07880775,
          "velocity": 0.3937007874015748
        },
        {
          "duration": 0.1578944999999976,
          "durationTicks": 192,
          "midi": 63,
          "name": "D#4",
          "ticks": 113280,
          "time": 93.157755,
          "velocity": 0.3937007874015748
        },
        {
          "duration": 0.1578944999999976,
          "durationTicks": 192,
          "midi": 67,
          "name": "G4",
          "ticks": 113472,
          "time": 93.31564949999999,
          "velocity": 0.3937007874015748
        },
        {
          "duration": 0.15789450000001182,
          "durationTicks": 192,
          "midi": 68,
          "name": "G#4",
          "ticks": 113664,
          "time": 93.47354399999999,
          "velocity": 0.3937007874015748
        },
        {
          "duration": 0.1578944999999976,
          "durationTicks": 192,
          "midi": 68,
          "name": "G#4",
          "ticks": 114048,
          "time": 93.789333,
          "velocity": 0.3937007874015748
        },
        {
          "duration": 0.1578944999999976,
          "durationTicks": 192,
          "midi": 70,
          "name": "A#4",
          "ticks": 114240,
          "time": 93.9472275,
          "velocity": 0.3937007874015748
        },
        {
          "duration": 0.1578944999999976,
          "durationTicks": 192,
          "midi": 72,
          "name": "C5",
          "ticks": 114432,
          "time": 94.105122,
          "velocity": 0.3937007874015748
        },
        {
          "duration": 0.1578944999999976,
          "durationTicks": 192,
          "midi": 68,
          "name": "G#4",
          "ticks": 114624,
          "time": 94.26301649999999,
          "velocity": 0.3937007874015748
        },
        {
          "duration": 0.15789450000001182,
          "durationTicks": 192,
          "midi": 72,
          "name": "C5",
          "ticks": 114816,
          "time": 94.42091099999999,
          "velocity": 0.3937007874015748
        },
        {
          "duration": 0.1578944999999976,
          "durationTicks": 192,
          "midi": 80,
          "name": "G#5",
          "ticks": 115008,
          "time": 94.5788055,
          "velocity": 0.3937007874015748
        },
        {
          "duration": 0.0789472499999988,
          "durationTicks": 96,
          "midi": 79,
          "name": "G5",
          "ticks": 115200,
          "time": 94.7367,
          "velocity": 0.3937007874015748
        },
        {
          "duration": 0.1184208749999982,
          "durationTicks": 144,
          "midi": 67,
          "name": "G4",
          "ticks": 115296,
          "time": 94.81564725,
          "velocity": 0.3937007874015748
        },
        {
          "duration": 0.0789472499999988,
          "durationTicks": 96,
          "midi": 67,
          "name": "G4",
          "ticks": 115488,
          "time": 94.97354175,
          "velocity": 0.3937007874015748
        },
        {
          "duration": 0.1578944999999976,
          "durationTicks": 192,
          "midi": 75,
          "name": "D#5",
          "ticks": 115584,
          "time": 95.052489,
          "velocity": 0.3937007874015748
        },
        {
          "duration": 0.0789472499999988,
          "durationTicks": 96,
          "midi": 67,
          "name": "G4",
          "ticks": 115776,
          "time": 95.21038349999999,
          "velocity": 0.3937007874015748
        },
        {
          "duration": 0.0789472499999988,
          "durationTicks": 96,
          "midi": 70,
          "name": "A#4",
          "ticks": 115872,
          "time": 95.28933074999999,
          "velocity": 0.3937007874015748
        },
        {
          "duration": 0.15789450000001182,
          "durationTicks": 192,
          "midi": 72,
          "name": "C5",
          "ticks": 115968,
          "time": 95.36827799999999,
          "velocity": 0.3937007874015748
        },
        {
          "duration": 0.0789472499999988,
          "durationTicks": 96,
          "midi": 70,
          "name": "A#4",
          "ticks": 116160,
          "time": 95.5261725,
          "velocity": 0.3937007874015748
        },
        {
          "duration": 0.0789472499999988,
          "durationTicks": 96,
          "midi": 72,
          "name": "C5",
          "ticks": 116256,
          "time": 95.60511975,
          "velocity": 0.3937007874015748
        },
        {
          "duration": 0.1578944999999976,
          "durationTicks": 192,
          "midi": 75,
          "name": "D#5",
          "ticks": 116352,
          "time": 95.684067,
          "velocity": 0.3937007874015748
        },
        {
          "duration": 0.0789472499999988,
          "durationTicks": 96,
          "midi": 72,
          "name": "C5",
          "ticks": 116544,
          "time": 95.8419615,
          "velocity": 0.3937007874015748
        },
        {
          "duration": 0.0789472499999988,
          "durationTicks": 96,
          "midi": 75,
          "name": "D#5",
          "ticks": 116640,
          "time": 95.92090875,
          "velocity": 0.3937007874015748
        },
        {
          "duration": 0.3157889999999952,
          "durationTicks": 384,
          "midi": 77,
          "name": "F5",
          "ticks": 116736,
          "time": 95.999856,
          "velocity": 0.3937007874015748
        },
        {
          "duration": 0.15789450000001182,
          "durationTicks": 192,
          "midi": 72,
          "name": "C5",
          "ticks": 117120,
          "time": 96.31564499999999,
          "velocity": 0.3937007874015748
        },
        {
          "duration": 0.1578944999999976,
          "durationTicks": 192,
          "midi": 75,
          "name": "D#5",
          "ticks": 117312,
          "time": 96.4735395,
          "velocity": 0.3937007874015748
        },
        {
          "duration": 0.1578944999999976,
          "durationTicks": 192,
          "midi": 77,
          "name": "F5",
          "ticks": 117504,
          "time": 96.631434,
          "velocity": 0.3937007874015748
        },
        {
          "duration": 0.1578944999999976,
          "durationTicks": 192,
          "midi": 72,
          "name": "C5",
          "ticks": 117888,
          "time": 96.947223,
          "velocity": 0.3937007874015748
        },
        {
          "duration": 0.23684175000001062,
          "durationTicks": 288,
          "midi": 70,
          "name": "A#4",
          "ticks": 118272,
          "time": 97.26301199999999,
          "velocity": 0.3937007874015748
        },
        {
          "duration": 0.1578944999999976,
          "durationTicks": 192,
          "midi": 70,
          "name": "A#4",
          "ticks": 118656,
          "time": 97.578801,
          "velocity": 0.3937007874015748
        },
        {
          "duration": 0.1578944999999976,
          "durationTicks": 192,
          "midi": 72,
          "name": "C5",
          "ticks": 118848,
          "time": 97.7366955,
          "velocity": 0.3937007874015748
        },
        {
          "duration": 0.2368417499999964,
          "durationTicks": 288,
          "midi": 70,
          "name": "A#4",
          "ticks": 119040,
          "time": 97.89459,
          "velocity": 0.3937007874015748
        },
        {
          "duration": 0.23684175000001062,
          "durationTicks": 288,
          "midi": 68,
          "name": "G#4",
          "ticks": 119424,
          "time": 98.21037899999999,
          "velocity": 0.3937007874015748
        },
        {
          "duration": 0.1578944999999976,
          "durationTicks": 192,
          "midi": 70,
          "name": "A#4",
          "ticks": 119808,
          "time": 98.526168,
          "velocity": 0.3937007874015748
        },
        {
          "duration": 0.1578944999999976,
          "durationTicks": 192,
          "midi": 68,
          "name": "G#4",
          "ticks": 120000,
          "time": 98.6840625,
          "velocity": 0.3937007874015748
        },
        {
          "duration": 0.1578944999999976,
          "durationTicks": 192,
          "midi": 70,
          "name": "A#4",
          "ticks": 120192,
          "time": 98.841957,
          "velocity": 0.3937007874015748
        },
        {
          "duration": 0.1578944999999976,
          "durationTicks": 192,
          "midi": 72,
          "name": "C5",
          "ticks": 120384,
          "time": 98.99985149999999,
          "velocity": 0.3937007874015748
        },
        {
          "duration": 0.15789450000001182,
          "durationTicks": 192,
          "midi": 75,
          "name": "D#5",
          "ticks": 120576,
          "time": 99.15774599999999,
          "velocity": 0.3937007874015748
        },
        {
          "duration": 0.1578944999999976,
          "durationTicks": 192,
          "midi": 72,
          "name": "C5",
          "ticks": 120768,
          "time": 99.3156405,
          "velocity": 0.3937007874015748
        },
        {
          "duration": 0.1578944999999976,
          "durationTicks": 192,
          "midi": 68,
          "name": "G#4",
          "ticks": 120960,
          "time": 99.473535,
          "velocity": 0.3937007874015748
        },
        {
          "duration": 0.1578944999999976,
          "durationTicks": 192,
          "midi": 65,
          "name": "F4",
          "ticks": 121152,
          "time": 99.6314295,
          "velocity": 0.3937007874015748
        },
        {
          "duration": 0.0789472499999988,
          "durationTicks": 96,
          "midi": 70,
          "name": "A#4",
          "ticks": 121344,
          "time": 99.789324,
          "velocity": 0.3937007874015748
        },
        {
          "duration": 0.0789472499999988,
          "durationTicks": 96,
          "midi": 68,
          "name": "G#4",
          "ticks": 121440,
          "time": 99.86827124999999,
          "velocity": 0.3937007874015748
        },
        {
          "duration": 0.0789472499999988,
          "durationTicks": 96,
          "midi": 65,
          "name": "F4",
          "ticks": 121536,
          "time": 99.94721849999999,
          "velocity": 0.3937007874015748
        },
        {
          "duration": 0.0789472499999988,
          "durationTicks": 96,
          "midi": 60,
          "name": "C4",
          "ticks": 121632,
          "time": 100.02616574999999,
          "velocity": 0.3937007874015748
        },
        {
          "duration": 0.07894725000001301,
          "durationTicks": 96,
          "midi": 70,
          "name": "A#4",
          "ticks": 121728,
          "time": 100.10511299999999,
          "velocity": 0.3937007874015748
        },
        {
          "duration": 0.0789472499999988,
          "durationTicks": 96,
          "midi": 68,
          "name": "G#4",
          "ticks": 121824,
          "time": 100.18406025,
          "velocity": 0.3937007874015748
        },
        {
          "duration": 0.0789472499999988,
          "durationTicks": 96,
          "midi": 65,
          "name": "F4",
          "ticks": 121920,
          "time": 100.2630075,
          "velocity": 0.3937007874015748
        },
        {
          "duration": 0.0789472499999988,
          "durationTicks": 96,
          "midi": 60,
          "name": "C4",
          "ticks": 122016,
          "time": 100.34195475,
          "velocity": 0.3937007874015748
        },
        {
          "duration": 0.0789472499999988,
          "durationTicks": 96,
          "midi": 72,
          "name": "C5",
          "ticks": 122112,
          "time": 100.420902,
          "velocity": 0.3937007874015748
        },
        {
          "duration": 0.0789472499999988,
          "durationTicks": 96,
          "midi": 67,
          "name": "G4",
          "ticks": 122208,
          "time": 100.49984925,
          "velocity": 0.3937007874015748
        },
        {
          "duration": 0.0789472499999988,
          "durationTicks": 96,
          "midi": 64,
          "name": "E4",
          "ticks": 122304,
          "time": 100.5787965,
          "velocity": 0.3937007874015748
        },
        {
          "duration": 0.0789472499999988,
          "durationTicks": 96,
          "midi": 60,
          "name": "C4",
          "ticks": 122400,
          "time": 100.65774375,
          "velocity": 0.3937007874015748
        },
        {
          "duration": 0.0789472499999988,
          "durationTicks": 96,
          "midi": 72,
          "name": "C5",
          "ticks": 122496,
          "time": 100.736691,
          "velocity": 0.3937007874015748
        },
        {
          "duration": 0.0789472499999988,
          "durationTicks": 96,
          "midi": 67,
          "name": "G4",
          "ticks": 122592,
          "time": 100.81563824999999,
          "velocity": 0.3937007874015748
        },
        {
          "duration": 0.0789472499999988,
          "durationTicks": 96,
          "midi": 64,
          "name": "E4",
          "ticks": 122688,
          "time": 100.89458549999999,
          "velocity": 0.3937007874015748
        },
        {
          "duration": 0.07894725000001301,
          "durationTicks": 96,
          "midi": 60,
          "name": "C4",
          "ticks": 122784,
          "time": 100.97353274999999,
          "velocity": 0.3937007874015748
        },
        {
          "duration": 0.0789472499999988,
          "durationTicks": 96,
          "midi": 68,
          "name": "G#4",
          "ticks": 122880,
          "time": 101.05248,
          "velocity": 0.3937007874015748
        },
        {
          "duration": 0.0789472499999988,
          "durationTicks": 96,
          "midi": 65,
          "name": "F4",
          "ticks": 122976,
          "time": 101.13142725,
          "velocity": 0.3937007874015748
        },
        {
          "duration": 0.0789472499999988,
          "durationTicks": 96,
          "midi": 60,
          "name": "C4",
          "ticks": 123072,
          "time": 101.2103745,
          "velocity": 0.3937007874015748
        },
        {
          "duration": 0.0789472499999988,
          "durationTicks": 96,
          "midi": 65,
          "name": "F4",
          "ticks": 123168,
          "time": 101.28932175,
          "velocity": 0.3937007874015748
        },
        {
          "duration": 0.1578944999999976,
          "durationTicks": 192,
          "midi": 68,
          "name": "G#4",
          "ticks": 123264,
          "time": 101.368269,
          "velocity": 0.3937007874015748
        },
        {
          "duration": 0.1578944999999976,
          "durationTicks": 192,
          "midi": 70,
          "name": "A#4",
          "ticks": 123456,
          "time": 101.5261635,
          "velocity": 0.3937007874015748
        },
        {
          "duration": 0.1578944999999976,
          "durationTicks": 192,
          "midi": 72,
          "name": "C5",
          "ticks": 123648,
          "time": 101.684058,
          "velocity": 0.3937007874015748
        },
        {
          "duration": 0.1578944999999976,
          "durationTicks": 192,
          "midi": 68,
          "name": "G#4",
          "ticks": 124032,
          "time": 101.999847,
          "velocity": 0.3937007874015748
        },
        {
          "duration": 0.0789472499999988,
          "durationTicks": 96,
          "midi": 70,
          "name": "A#4",
          "ticks": 124416,
          "time": 102.315636,
          "velocity": 0.3937007874015748
        },
        {
          "duration": 0.0789472499999988,
          "durationTicks": 96,
          "midi": 67,
          "name": "G4",
          "ticks": 124512,
          "time": 102.39458325,
          "velocity": 0.3937007874015748
        },
        {
          "duration": 0.0789472499999988,
          "durationTicks": 96,
          "midi": 65,
          "name": "F4",
          "ticks": 124608,
          "time": 102.4735305,
          "velocity": 0.3937007874015748
        },
        {
          "duration": 0.0789472499999988,
          "durationTicks": 96,
          "midi": 67,
          "name": "G4",
          "ticks": 124704,
          "time": 102.55247775,
          "velocity": 0.3937007874015748
        },
        {
          "duration": 0.1578944999999976,
          "durationTicks": 192,
          "midi": 70,
          "name": "A#4",
          "ticks": 124800,
          "time": 102.631425,
          "velocity": 0.3937007874015748
        },
        {
          "duration": 0.15789450000001182,
          "durationTicks": 192,
          "midi": 72,
          "name": "C5",
          "ticks": 124992,
          "time": 102.78931949999999,
          "velocity": 0.3937007874015748
        },
        {
          "duration": 0.2368417499999964,
          "durationTicks": 288,
          "midi": 67,
          "name": "G4",
          "ticks": 125184,
          "time": 102.947214,
          "velocity": 0.3937007874015748
        },
        {
          "duration": 0.0789472499999988,
          "durationTicks": 96,
          "midi": 68,
          "name": "G#4",
          "ticks": 125472,
          "time": 103.18405575,
          "velocity": 0.3937007874015748
        },
        {
          "duration": 0.1578944999999976,
          "durationTicks": 192,
          "midi": 63,
          "name": "D#4",
          "ticks": 125568,
          "time": 103.263003,
          "velocity": 0.3937007874015748
        },
        {
          "duration": 0.1578944999999976,
          "durationTicks": 192,
          "midi": 67,
          "name": "G4",
          "ticks": 125760,
          "time": 103.4208975,
          "velocity": 0.3937007874015748
        },
        {
          "duration": 0.1578944999999976,
          "durationTicks": 192,
          "midi": 68,
          "name": "G#4",
          "ticks": 125952,
          "time": 103.57879199999999,
          "velocity": 0.3937007874015748
        },
        {
          "duration": 0.1578944999999976,
          "durationTicks": 192,
          "midi": 68,
          "name": "G#4",
          "ticks": 126336,
          "time": 103.894581,
          "velocity": 0.3937007874015748
        },
        {
          "duration": 0.1578944999999976,
          "durationTicks": 192,
          "midi": 70,
          "name": "A#4",
          "ticks": 126528,
          "time": 104.0524755,
          "velocity": 0.3937007874015748
        },
        {
          "duration": 0.1578944999999976,
          "durationTicks": 192,
          "midi": 72,
          "name": "C5",
          "ticks": 126720,
          "time": 104.21037,
          "velocity": 0.3937007874015748
        },
        {
          "duration": 0.1578944999999976,
          "durationTicks": 192,
          "midi": 68,
          "name": "G#4",
          "ticks": 126912,
          "time": 104.3682645,
          "velocity": 0.3937007874015748
        },
        {
          "duration": 0.1578944999999976,
          "durationTicks": 192,
          "midi": 72,
          "name": "C5",
          "ticks": 127104,
          "time": 104.52615899999999,
          "velocity": 0.3937007874015748
        },
        {
          "duration": 0.15789450000001182,
          "durationTicks": 192,
          "midi": 80,
          "name": "G#5",
          "ticks": 127296,
          "time": 104.68405349999999,
          "velocity": 0.3937007874015748
        },
        {
          "duration": 0.0789472499999988,
          "durationTicks": 96,
          "midi": 79,
          "name": "G5",
          "ticks": 127488,
          "time": 104.841948,
          "velocity": 0.3937007874015748
        },
        {
          "duration": 0.1184208749999982,
          "durationTicks": 144,
          "midi": 67,
          "name": "G4",
          "ticks": 127584,
          "time": 104.92089525,
          "velocity": 0.3937007874015748
        },
        {
          "duration": 0.0789472499999988,
          "durationTicks": 96,
          "midi": 67,
          "name": "G4",
          "ticks": 127776,
          "time": 105.07878975,
          "velocity": 0.3937007874015748
        },
        {
          "duration": 0.1578944999999976,
          "durationTicks": 192,
          "midi": 75,
          "name": "D#5",
          "ticks": 127872,
          "time": 105.157737,
          "velocity": 0.3937007874015748
        },
        {
          "duration": 0.0789472499999988,
          "durationTicks": 96,
          "midi": 67,
          "name": "G4",
          "ticks": 128064,
          "time": 105.3156315,
          "velocity": 0.3937007874015748
        },
        {
          "duration": 0.0789472499999988,
          "durationTicks": 96,
          "midi": 70,
          "name": "A#4",
          "ticks": 128160,
          "time": 105.39457875,
          "velocity": 0.3937007874015748
        },
        {
          "duration": 0.1578944999999976,
          "durationTicks": 192,
          "midi": 72,
          "name": "C5",
          "ticks": 128256,
          "time": 105.47352599999999,
          "velocity": 0.3937007874015748
        },
        {
          "duration": 0.0789472499999988,
          "durationTicks": 96,
          "midi": 70,
          "name": "A#4",
          "ticks": 128448,
          "time": 105.63142049999999,
          "velocity": 0.3937007874015748
        },
        {
          "duration": 0.07894725000001301,
          "durationTicks": 96,
          "midi": 72,
          "name": "C5",
          "ticks": 128544,
          "time": 105.71036774999999,
          "velocity": 0.3937007874015748
        },
        {
          "duration": 0.1578944999999976,
          "durationTicks": 192,
          "midi": 75,
          "name": "D#5",
          "ticks": 128640,
          "time": 105.789315,
          "velocity": 0.3937007874015748
        },
        {
          "duration": 0.0789472499999988,
          "durationTicks": 96,
          "midi": 72,
          "name": "C5",
          "ticks": 128832,
          "time": 105.9472095,
          "velocity": 0.3937007874015748
        },
        {
          "duration": 0.0789472499999988,
          "durationTicks": 96,
          "midi": 75,
          "name": "D#5",
          "ticks": 128928,
          "time": 106.02615675,
          "velocity": 0.3937007874015748
        },
        {
          "duration": 0.3157889999999952,
          "durationTicks": 384,
          "midi": 77,
          "name": "F5",
          "ticks": 129024,
          "time": 106.105104,
          "velocity": 0.3937007874015748
        },
        {
          "duration": 0.1578944999999976,
          "durationTicks": 192,
          "midi": 72,
          "name": "C5",
          "ticks": 129408,
          "time": 106.42089299999999,
          "velocity": 0.3937007874015748
        },
        {
          "duration": 0.15789450000001182,
          "durationTicks": 192,
          "midi": 75,
          "name": "D#5",
          "ticks": 129600,
          "time": 106.57878749999999,
          "velocity": 0.3937007874015748
        },
        {
          "duration": 0.1578944999999976,
          "durationTicks": 192,
          "midi": 77,
          "name": "F5",
          "ticks": 129792,
          "time": 106.736682,
          "velocity": 0.3937007874015748
        },
        {
          "duration": 0.1578944999999976,
          "durationTicks": 192,
          "midi": 72,
          "name": "C5",
          "ticks": 130176,
          "time": 107.052471,
          "velocity": 0.3937007874015748
        },
        {
          "duration": 0.2368417499999964,
          "durationTicks": 288,
          "midi": 70,
          "name": "A#4",
          "ticks": 130560,
          "time": 107.36825999999999,
          "velocity": 0.3937007874015748
        },
        {
          "duration": 0.1578944999999976,
          "durationTicks": 192,
          "midi": 70,
          "name": "A#4",
          "ticks": 130944,
          "time": 107.684049,
          "velocity": 0.3937007874015748
        },
        {
          "duration": 0.1578944999999976,
          "durationTicks": 192,
          "midi": 72,
          "name": "C5",
          "ticks": 131136,
          "time": 107.8419435,
          "velocity": 0.3937007874015748
        },
        {
          "duration": 0.2368417499999964,
          "durationTicks": 288,
          "midi": 70,
          "name": "A#4",
          "ticks": 131328,
          "time": 107.999838,
          "velocity": 0.3937007874015748
        },
        {
          "duration": 0.2368417499999964,
          "durationTicks": 288,
          "midi": 68,
          "name": "G#4",
          "ticks": 131712,
          "time": 108.31562699999999,
          "velocity": 0.3937007874015748
        },
        {
          "duration": 0.1578944999999976,
          "durationTicks": 192,
          "midi": 70,
          "name": "A#4",
          "ticks": 132096,
          "time": 108.631416,
          "velocity": 0.3937007874015748
        },
        {
          "duration": 0.1578944999999976,
          "durationTicks": 192,
          "midi": 68,
          "name": "G#4",
          "ticks": 132288,
          "time": 108.7893105,
          "velocity": 0.3937007874015748
        },
        {
          "duration": 0.1578944999999976,
          "durationTicks": 192,
          "midi": 70,
          "name": "A#4",
          "ticks": 132480,
          "time": 108.947205,
          "velocity": 0.3937007874015748
        },
        {
          "duration": 0.1578944999999976,
          "durationTicks": 192,
          "midi": 72,
          "name": "C5",
          "ticks": 132672,
          "time": 109.1050995,
          "velocity": 0.3937007874015748
        },
        {
          "duration": 0.1578944999999976,
          "durationTicks": 192,
          "midi": 75,
          "name": "D#5",
          "ticks": 132864,
          "time": 109.26299399999999,
          "velocity": 0.3937007874015748
        },
        {
          "duration": 0.15789450000001182,
          "durationTicks": 192,
          "midi": 72,
          "name": "C5",
          "ticks": 133056,
          "time": 109.42088849999999,
          "velocity": 0.3937007874015748
        },
        {
          "duration": 0.1578944999999976,
          "durationTicks": 192,
          "midi": 68,
          "name": "G#4",
          "ticks": 133248,
          "time": 109.578783,
          "velocity": 0.3937007874015748
        },
        {
          "duration": 0.1578944999999976,
          "durationTicks": 192,
          "midi": 65,
          "name": "F4",
          "ticks": 133440,
          "time": 109.7366775,
          "velocity": 0.3937007874015748
        },
        {
          "duration": 0.0789472499999988,
          "durationTicks": 96,
          "midi": 70,
          "name": "A#4",
          "ticks": 133632,
          "time": 109.894572,
          "velocity": 0.3937007874015748
        },
        {
          "duration": 0.0789472499999988,
          "durationTicks": 96,
          "midi": 68,
          "name": "G#4",
          "ticks": 133728,
          "time": 109.97351925,
          "velocity": 0.3937007874015748
        },
        {
          "duration": 0.0789472499999988,
          "durationTicks": 96,
          "midi": 65,
          "name": "F4",
          "ticks": 133824,
          "time": 110.0524665,
          "velocity": 0.3937007874015748
        },
        {
          "duration": 0.0789472499999988,
          "durationTicks": 96,
          "midi": 60,
          "name": "C4",
          "ticks": 133920,
          "time": 110.13141375,
          "velocity": 0.3937007874015748
        },
        {
          "duration": 0.0789472499999988,
          "durationTicks": 96,
          "midi": 70,
          "name": "A#4",
          "ticks": 134016,
          "time": 110.21036099999999,
          "velocity": 0.3937007874015748
        },
        {
          "duration": 0.0789472499999988,
          "durationTicks": 96,
          "midi": 68,
          "name": "G#4",
          "ticks": 134112,
          "time": 110.28930824999999,
          "velocity": 0.3937007874015748
        },
        {
          "duration": 0.0789472499999988,
          "durationTicks": 96,
          "midi": 65,
          "name": "F4",
          "ticks": 134208,
          "time": 110.36825549999999,
          "velocity": 0.3937007874015748
        },
        {
          "duration": 0.07894725000001301,
          "durationTicks": 96,
          "midi": 60,
          "name": "C4",
          "ticks": 134304,
          "time": 110.44720274999999,
          "velocity": 0.3937007874015748
        },
        {
          "duration": 0.0789472499999988,
          "durationTicks": 96,
          "midi": 72,
          "name": "C5",
          "ticks": 134400,
          "time": 110.52615,
          "velocity": 0.3937007874015748
        },
        {
          "duration": 0.0789472499999988,
          "durationTicks": 96,
          "midi": 67,
          "name": "G4",
          "ticks": 134496,
          "time": 110.60509725,
          "velocity": 0.3937007874015748
        },
        {
          "duration": 0.0789472499999988,
          "durationTicks": 96,
          "midi": 64,
          "name": "E4",
          "ticks": 134592,
          "time": 110.6840445,
          "velocity": 0.3937007874015748
        },
        {
          "duration": 0.0789472499999988,
          "durationTicks": 96,
          "midi": 60,
          "name": "C4",
          "ticks": 134688,
          "time": 110.76299175,
          "velocity": 0.3937007874015748
        },
        {
          "duration": 0.0789472499999988,
          "durationTicks": 96,
          "midi": 72,
          "name": "C5",
          "ticks": 134784,
          "time": 110.841939,
          "velocity": 0.3937007874015748
        },
        {
          "duration": 0.0789472499999988,
          "durationTicks": 96,
          "midi": 67,
          "name": "G4",
          "ticks": 134880,
          "time": 110.92088625,
          "velocity": 0.3937007874015748
        },
        {
          "duration": 0.0789472499999988,
          "durationTicks": 96,
          "midi": 64,
          "name": "E4",
          "ticks": 134976,
          "time": 110.9998335,
          "velocity": 0.3937007874015748
        },
        {
          "duration": 0.0394736249999994,
          "durationTicks": 48,
          "midi": 60,
          "name": "C4",
          "ticks": 135072,
          "time": 111.07878074999999,
          "velocity": 0.3937007874015748
        }
      ],
      "endOfTrackTicks": 135120
    },
    {
      "channel": 6,
      "controlChanges": {},
      "pitchBends": [],
      "instrument": {
        "family": "synth lead",
        "number": 81,
        "name": "lead 2 (sawtooth)"
      },
      "name": "8-Bit Sawtooth",
      "notes": [
        {
          "duration": 0.15789450000000116,
          "durationTicks": 192,
          "midi": 46,
          "name": "A#2",
          "ticks": 24960,
          "time": 20.526284999999998,
          "velocity": 0.6062992125984252
        },
        {
          "duration": 0.15789450000000116,
          "durationTicks": 192,
          "midi": 46,
          "name": "A#2",
          "ticks": 25536,
          "time": 20.999968499999998,
          "velocity": 0.6062992125984252
        },
        {
          "duration": 0.1578944999999976,
          "durationTicks": 192,
          "midi": 46,
          "name": "A#2",
          "ticks": 26496,
          "time": 21.789441,
          "velocity": 0.6062992125984252
        },
        {
          "duration": 0.1578944999999976,
          "durationTicks": 192,
          "midi": 46,
          "name": "A#2",
          "ticks": 27072,
          "time": 22.2631245,
          "velocity": 0.6062992125984252
        },
        {
          "duration": 0.15789450000000116,
          "durationTicks": 192,
          "midi": 48,
          "name": "C3",
          "ticks": 28032,
          "time": 23.052597,
          "velocity": 0.6062992125984252
        },
        {
          "duration": 0.15789450000000116,
          "durationTicks": 192,
          "midi": 48,
          "name": "C3",
          "ticks": 28608,
          "time": 23.5262805,
          "velocity": 0.6062992125984252
        },
        {
          "duration": 0.15789450000000116,
          "durationTicks": 192,
          "midi": 48,
          "name": "C3",
          "ticks": 29568,
          "time": 24.315752999999997,
          "velocity": 0.6062992125984252
        },
        {
          "duration": 0.15789450000000116,
          "durationTicks": 192,
          "midi": 48,
          "name": "C3",
          "ticks": 30144,
          "time": 24.789436499999997,
          "velocity": 0.6062992125984252
        },
        {
          "duration": 0.15789450000000116,
          "durationTicks": 192,
          "midi": 49,
          "name": "C#3",
          "ticks": 31104,
          "time": 25.578909,
          "velocity": 0.6062992125984252
        },
        {
          "duration": 0.15789450000000116,
          "durationTicks": 192,
          "midi": 49,
          "name": "C#3",
          "ticks": 31680,
          "time": 26.0525925,
          "velocity": 0.6062992125984252
        },
        {
          "duration": 0.15789450000000116,
          "durationTicks": 192,
          "midi": 49,
          "name": "C#3",
          "ticks": 32640,
          "time": 26.842064999999998,
          "velocity": 0.6062992125984252
        },
        {
          "duration": 0.15789450000000116,
          "durationTicks": 192,
          "midi": 49,
          "name": "C#3",
          "ticks": 33216,
          "time": 27.315748499999998,
          "velocity": 0.6062992125984252
        },
        {
          "duration": 0.1578944999999976,
          "durationTicks": 192,
          "midi": 50,
          "name": "D3",
          "ticks": 34176,
          "time": 28.105221,
          "velocity": 0.6062992125984252
        },
        {
          "duration": 0.1578944999999976,
          "durationTicks": 192,
          "midi": 50,
          "name": "D3",
          "ticks": 34752,
          "time": 28.5789045,
          "velocity": 0.6062992125984252
        },
        {
          "duration": 0.15789450000000116,
          "durationTicks": 192,
          "midi": 50,
          "name": "D3",
          "ticks": 35712,
          "time": 29.368377,
          "velocity": 0.6062992125984252
        },
        {
          "duration": 0.15789450000000116,
          "durationTicks": 192,
          "midi": 50,
          "name": "D3",
          "ticks": 36288,
          "time": 29.8420605,
          "velocity": 0.6062992125984252
        },
        {
          "duration": 0.15789450000000116,
          "durationTicks": 192,
          "midi": 46,
          "name": "A#2",
          "ticks": 37248,
          "time": 30.631532999999997,
          "velocity": 0.6062992125984252
        },
        {
          "duration": 0.15789450000000116,
          "durationTicks": 192,
          "midi": 46,
          "name": "A#2",
          "ticks": 37824,
          "time": 31.105216499999997,
          "velocity": 0.6062992125984252
        },
        {
          "duration": 0.1578944999999976,
          "durationTicks": 192,
          "midi": 46,
          "name": "A#2",
          "ticks": 38784,
          "time": 31.894689,
          "velocity": 0.6062992125984252
        },
        {
          "duration": 0.1578944999999976,
          "durationTicks": 192,
          "midi": 46,
          "name": "A#2",
          "ticks": 39360,
          "time": 32.3683725,
          "velocity": 0.6062992125984252
        },
        {
          "duration": 0.1578944999999976,
          "durationTicks": 192,
          "midi": 48,
          "name": "C3",
          "ticks": 40320,
          "time": 33.157845,
          "velocity": 0.6062992125984252
        },
        {
          "duration": 0.1578944999999976,
          "durationTicks": 192,
          "midi": 48,
          "name": "C3",
          "ticks": 40896,
          "time": 33.6315285,
          "velocity": 0.6062992125984252
        },
        {
          "duration": 0.1578945000000047,
          "durationTicks": 192,
          "midi": 48,
          "name": "C3",
          "ticks": 41856,
          "time": 34.421001,
          "velocity": 0.6062992125984252
        },
        {
          "duration": 0.1578945000000047,
          "durationTicks": 192,
          "midi": 48,
          "name": "C3",
          "ticks": 42432,
          "time": 34.8946845,
          "velocity": 0.6062992125984252
        },
        {
          "duration": 0.1578944999999976,
          "durationTicks": 192,
          "midi": 49,
          "name": "C#3",
          "ticks": 43392,
          "time": 35.684157,
          "velocity": 0.6062992125984252
        },
        {
          "duration": 0.1578944999999976,
          "durationTicks": 192,
          "midi": 49,
          "name": "C#3",
          "ticks": 43968,
          "time": 36.1578405,
          "velocity": 0.6062992125984252
        },
        {
          "duration": 0.1578944999999976,
          "durationTicks": 192,
          "midi": 49,
          "name": "C#3",
          "ticks": 44928,
          "time": 36.947313,
          "velocity": 0.6062992125984252
        },
        {
          "duration": 0.1578944999999976,
          "durationTicks": 192,
          "midi": 49,
          "name": "C#3",
          "ticks": 45504,
          "time": 37.4209965,
          "velocity": 0.6062992125984252
        },
        {
          "duration": 0.1578945000000047,
          "durationTicks": 192,
          "midi": 50,
          "name": "D3",
          "ticks": 46464,
          "time": 38.210468999999996,
          "velocity": 0.6062992125984252
        },
        {
          "duration": 0.1578945000000047,
          "durationTicks": 192,
          "midi": 50,
          "name": "D3",
          "ticks": 47040,
          "time": 38.684152499999996,
          "velocity": 0.6062992125984252
        },
        {
          "duration": 0.1578944999999976,
          "durationTicks": 192,
          "midi": 50,
          "name": "D3",
          "ticks": 48000,
          "time": 39.473625,
          "velocity": 0.6062992125984252
        },
        {
          "duration": 0.1578944999999976,
          "durationTicks": 192,
          "midi": 50,
          "name": "D3",
          "ticks": 48576,
          "time": 39.9473085,
          "velocity": 0.6062992125984252
        },
        {
          "duration": 0.6315780000000046,
          "durationTicks": 768,
          "midi": 65,
          "name": "F4",
          "ticks": 49920,
          "time": 41.052569999999996,
          "velocity": 0.6062992125984252
        },
        {
          "duration": 0.6315779999999975,
          "durationTicks": 768,
          "midi": 68,
          "name": "G#4",
          "ticks": 50688,
          "time": 41.684148,
          "velocity": 0.6062992125984252
        },
        {
          "duration": 0.6315779999999975,
          "durationTicks": 768,
          "midi": 72,
          "name": "C5",
          "ticks": 51456,
          "time": 42.315726,
          "velocity": 0.6062992125984252
        },
        {
          "duration": 1.2631560000000022,
          "durationTicks": 1536,
          "midi": 70,
          "name": "A#4",
          "ticks": 52224,
          "time": 42.947303999999995,
          "velocity": 0.6062992125984252
        },
        {
          "duration": 0.6315779999999975,
          "durationTicks": 768,
          "midi": 67,
          "name": "G4",
          "ticks": 53760,
          "time": 44.21046,
          "velocity": 0.6062992125984252
        },
        {
          "duration": 0.6315780000000046,
          "durationTicks": 768,
          "midi": 63,
          "name": "D#4",
          "ticks": 54528,
          "time": 44.842037999999995,
          "velocity": 0.6062992125984252
        },
        {
          "duration": 2.5263119999999972,
          "durationTicks": 3072,
          "midi": 65,
          "name": "F4",
          "ticks": 55296,
          "time": 45.473616,
          "velocity": 0.6062992125984252
        },
        {
          "duration": 2.5263120000000043,
          "durationTicks": 3072,
          "midi": 69,
          "name": "A4",
          "ticks": 58368,
          "time": 47.999928,
          "velocity": 0.6062992125984252
        },
        {
          "duration": 0.6315779999999975,
          "durationTicks": 768,
          "midi": 65,
          "name": "F4",
          "ticks": 62208,
          "time": 51.157818,
          "velocity": 0.6062992125984252
        },
        {
          "duration": 0.6315780000000046,
          "durationTicks": 768,
          "midi": 68,
          "name": "G#4",
          "ticks": 62976,
          "time": 51.789395999999996,
          "velocity": 0.6062992125984252
        },
        {
          "duration": 0.6315779999999975,
          "durationTicks": 768,
          "midi": 72,
          "name": "C5",
          "ticks": 63744,
          "time": 52.420974,
          "velocity": 0.6062992125984252
        },
        {
          "duration": 1.2631560000000022,
          "durationTicks": 1536,
          "midi": 75,
          "name": "D#5",
          "ticks": 64512,
          "time": 53.052552,
          "velocity": 0.6062992125984252
        },
        {
          "duration": 0.6315779999999975,
          "durationTicks": 768,
          "midi": 70,
          "name": "A#4",
          "ticks": 66048,
          "time": 54.315708,
          "velocity": 0.6062992125984252
        },
        {
          "duration": 0.6315779999999975,
          "durationTicks": 768,
          "midi": 67,
          "name": "G4",
          "ticks": 66816,
          "time": 54.947286,
          "velocity": 0.6062992125984252
        },
        {
          "duration": 2.5263120000000043,
          "durationTicks": 3072,
          "midi": 68,
          "name": "G#4",
          "ticks": 67584,
          "time": 55.578863999999996,
          "velocity": 0.6062992125984252
        },
        {
          "duration": 0.1578944999999976,
          "durationTicks": 192,
          "midi": 69,
          "name": "A4",
          "ticks": 70656,
          "time": 58.105176,
          "velocity": 0.6062992125984252
        },
        {
          "duration": 0.11842087500000531,
          "durationTicks": 144,
          "midi": 69,
          "name": "A4",
          "ticks": 71040,
          "time": 58.420964999999995,
          "velocity": 0.6062992125984252
        },
        {
          "duration": 0.1184208749999982,
          "durationTicks": 144,
          "midi": 70,
          "name": "A#4",
          "ticks": 71232,
          "time": 58.5788595,
          "velocity": 0.6062992125984252
        },
        {
          "duration": 0.2368417499999964,
          "durationTicks": 288,
          "midi": 72,
          "name": "C5",
          "ticks": 71424,
          "time": 58.736754,
          "velocity": 0.6062992125984252
        },
        {
          "duration": 0.3157889999999952,
          "durationTicks": 384,
          "midi": 77,
          "name": "F5",
          "ticks": 71808,
          "time": 59.052543,
          "velocity": 0.6062992125984252
        },
        {
          "duration": 0.6315780000000046,
          "durationTicks": 768,
          "midi": 74,
          "name": "D5",
          "ticks": 72192,
          "time": 59.368331999999995,
          "velocity": 0.6062992125984252
        },
        {
          "duration": 0.0986840624999985,
          "durationTicks": 120,
          "midi": 72,
          "name": "C5",
          "ticks": 72960,
          "time": 59.99991,
          "velocity": 0.5511811023622047
        },
        {
          "duration": 0.0986840624999985,
          "durationTicks": 120,
          "midi": 72,
          "name": "C5",
          "ticks": 73152,
          "time": 60.1578045,
          "velocity": 0.6692913385826772
        },
        {
          "duration": 0.09868406250000561,
          "durationTicks": 120,
          "midi": 72,
          "name": "C5",
          "ticks": 73344,
          "time": 60.315698999999995,
          "velocity": 0.7322834645669292
        },
        {
          "duration": 0.0986840624999985,
          "durationTicks": 120,
          "midi": 72,
          "name": "C5",
          "ticks": 73536,
          "time": 60.4735935,
          "velocity": 0.7952755905511811
        },
        {
          "duration": 0.1578944999999976,
          "durationTicks": 192,
          "midi": 68,
          "name": "G#4",
          "ticks": 73728,
          "time": 60.631488,
          "velocity": 0.6692913385826772
        },
        {
          "duration": 0.1578944999999976,
          "durationTicks": 192,
          "midi": 68,
          "name": "G#4",
          "ticks": 74112,
          "time": 60.947277,
          "velocity": 0.6692913385826772
        },
        {
          "duration": 0.1578944999999976,
          "durationTicks": 192,
          "midi": 46,
          "name": "A#2",
          "ticks": 74112,
          "time": 60.947277,
          "velocity": 0.4251968503937008
        },
        {
          "duration": 0.1578944999999976,
          "durationTicks": 192,
          "midi": 70,
          "name": "A#4",
          "ticks": 74304,
          "time": 61.1051715,
          "velocity": 0.6692913385826772
        },
        {
          "duration": 0.1578945000000047,
          "durationTicks": 192,
          "midi": 72,
          "name": "C5",
          "ticks": 74496,
          "time": 61.263065999999995,
          "velocity": 0.6692913385826772
        },
        {
          "duration": 0.1578944999999976,
          "durationTicks": 192,
          "midi": 46,
          "name": "A#2",
          "ticks": 74688,
          "time": 61.4209605,
          "velocity": 0.4251968503937008
        },
        {
          "duration": 0.1578944999999976,
          "durationTicks": 192,
          "midi": 68,
          "name": "G#4",
          "ticks": 74880,
          "time": 61.578855,
          "velocity": 0.6692913385826772
        },
        {
          "duration": 0.1578944999999976,
          "durationTicks": 192,
          "midi": 70,
          "name": "A#4",
          "ticks": 75264,
          "time": 61.894644,
          "velocity": 0.6692913385826772
        },
        {
          "duration": 0.1578945000000047,
          "durationTicks": 192,
          "midi": 70,
          "name": "A#4",
          "ticks": 75648,
          "time": 62.210432999999995,
          "velocity": 0.6692913385826772
        },
        {
          "duration": 0.1578945000000047,
          "durationTicks": 192,
          "midi": 46,
          "name": "A#2",
          "ticks": 75648,
          "time": 62.210432999999995,
          "velocity": 0.4251968503937008
        },
        {
          "duration": 0.1578944999999976,
          "durationTicks": 192,
          "midi": 72,
          "name": "C5",
          "ticks": 75840,
          "time": 62.3683275,
          "velocity": 0.6692913385826772
        },
        {
          "duration": 0.1578944999999976,
          "durationTicks": 192,
          "midi": 67,
          "name": "G4",
          "ticks": 76032,
          "time": 62.526222,
          "velocity": 0.6692913385826772
        },
        {
          "duration": 0.1578945000000047,
          "durationTicks": 192,
          "midi": 46,
          "name": "A#2",
          "ticks": 76224,
          "time": 62.684116499999995,
          "velocity": 0.4251968503937008
        },
        {
          "duration": 0.1578944999999976,
          "durationTicks": 192,
          "midi": 63,
          "name": "D#4",
          "ticks": 76416,
          "time": 62.842011,
          "velocity": 0.6692913385826772
        },
        {
          "duration": 0.1578945000000047,
          "durationTicks": 192,
          "midi": 68,
          "name": "G#4",
          "ticks": 76800,
          "time": 63.157799999999995,
          "velocity": 0.6692913385826772
        },
        {
          "duration": 0.1578944999999976,
          "durationTicks": 192,
          "midi": 48,
          "name": "C3",
          "ticks": 77184,
          "time": 63.473589,
          "velocity": 0.4251968503937008
        },
        {
          "duration": 0.1578944999999976,
          "durationTicks": 192,
          "midi": 68,
          "name": "G#4",
          "ticks": 77184,
          "time": 63.473589,
          "velocity": 0.6692913385826772
        },
        {
          "duration": 0.1578945000000047,
          "durationTicks": 192,
          "midi": 70,
          "name": "A#4",
          "ticks": 77376,
          "time": 63.631483499999995,
          "velocity": 0.6692913385826772
        },
        {
          "duration": 0.1578944999999976,
          "durationTicks": 192,
          "midi": 72,
          "name": "C5",
          "ticks": 77568,
          "time": 63.789378,
          "velocity": 0.6692913385826772
        },
        {
          "duration": 0.1578944999999976,
          "durationTicks": 192,
          "midi": 48,
          "name": "C3",
          "ticks": 77760,
          "time": 63.9472725,
          "velocity": 0.4251968503937008
        },
        {
          "duration": 0.1578944999999976,
          "durationTicks": 192,
          "midi": 68,
          "name": "G#4",
          "ticks": 77760,
          "time": 63.9472725,
          "velocity": 0.6692913385826772
        },
        {
          "duration": 0.1578944999999976,
          "durationTicks": 192,
          "midi": 72,
          "name": "C5",
          "ticks": 77952,
          "time": 64.105167,
          "velocity": 0.6692913385826772
        },
        {
          "duration": 0.15789450000001182,
          "durationTicks": 192,
          "midi": 80,
          "name": "G#5",
          "ticks": 78144,
          "time": 64.26306149999999,
          "velocity": 0.6692913385826772
        },
        {
          "duration": 0.3157889999999952,
          "durationTicks": 384,
          "midi": 79,
          "name": "G5",
          "ticks": 78336,
          "time": 64.420956,
          "velocity": 0.6692913385826772
        },
        {
          "duration": 0.1578944999999976,
          "durationTicks": 192,
          "midi": 48,
          "name": "C3",
          "ticks": 78720,
          "time": 64.736745,
          "velocity": 0.4251968503937008
        },
        {
          "duration": 0.3157889999999952,
          "durationTicks": 384,
          "midi": 75,
          "name": "D#5",
          "ticks": 78720,
          "time": 64.736745,
          "velocity": 0.6692913385826772
        },
        {
          "duration": 0.3157890000000094,
          "durationTicks": 384,
          "midi": 70,
          "name": "A#4",
          "ticks": 79104,
          "time": 65.052534,
          "velocity": 0.6692913385826772
        },
        {
          "duration": 0.15789450000001182,
          "durationTicks": 192,
          "midi": 48,
          "name": "C3",
          "ticks": 79296,
          "time": 65.21042849999999,
          "velocity": 0.4251968503937008
        },
        {
          "duration": 0.3157889999999952,
          "durationTicks": 384,
          "midi": 67,
          "name": "G4",
          "ticks": 79488,
          "time": 65.368323,
          "velocity": 0.6692913385826772
        },
        {
          "duration": 0.4736834999999928,
          "durationTicks": 576,
          "midi": 68,
          "name": "G#4",
          "ticks": 79872,
          "time": 65.684112,
          "velocity": 0.6692913385826772
        },
        {
          "duration": 0.1578944999999976,
          "durationTicks": 192,
          "midi": 49,
          "name": "C#3",
          "ticks": 80256,
          "time": 65.999901,
          "velocity": 0.4251968503937008
        },
        {
          "duration": 0.15789450000001182,
          "durationTicks": 192,
          "midi": 75,
          "name": "D#5",
          "ticks": 80448,
          "time": 66.15779549999999,
          "velocity": 0.6692913385826772
        },
        {
          "duration": 0.1578944999999976,
          "durationTicks": 192,
          "midi": 77,
          "name": "F5",
          "ticks": 80640,
          "time": 66.31569,
          "velocity": 0.6692913385826772
        },
        {
          "duration": 0.1578944999999976,
          "durationTicks": 192,
          "midi": 49,
          "name": "C#3",
          "ticks": 80832,
          "time": 66.4735845,
          "velocity": 0.4251968503937008
        },
        {
          "duration": 0.1578944999999976,
          "durationTicks": 192,
          "midi": 72,
          "name": "C5",
          "ticks": 81024,
          "time": 66.631479,
          "velocity": 0.6692913385826772
        },
        {
          "duration": 0.2368417499999964,
          "durationTicks": 288,
          "midi": 70,
          "name": "A#4",
          "ticks": 81408,
          "time": 66.947268,
          "velocity": 0.6692913385826772
        },
        {
          "duration": 0.1578944999999976,
          "durationTicks": 192,
          "midi": 49,
          "name": "C#3",
          "ticks": 81792,
          "time": 67.263057,
          "velocity": 0.4251968503937008
        },
        {
          "duration": 0.1578944999999976,
          "durationTicks": 192,
          "midi": 70,
          "name": "A#4",
          "ticks": 81792,
          "time": 67.263057,
          "velocity": 0.6692913385826772
        },
        {
          "duration": 0.1578944999999976,
          "durationTicks": 192,
          "midi": 72,
          "name": "C5",
          "ticks": 81984,
          "time": 67.4209515,
          "velocity": 0.6692913385826772
        },
        {
          "duration": 0.2368417499999964,
          "durationTicks": 288,
          "midi": 70,
          "name": "A#4",
          "ticks": 82176,
          "time": 67.578846,
          "velocity": 0.6692913385826772
        },
        {
          "duration": 0.1578944999999976,
          "durationTicks": 192,
          "midi": 49,
          "name": "C#3",
          "ticks": 82368,
          "time": 67.7367405,
          "velocity": 0.4251968503937008
        },
        {
          "duration": 0.2368417499999964,
          "durationTicks": 288,
          "midi": 68,
          "name": "G#4",
          "ticks": 82560,
          "time": 67.894635,
          "velocity": 0.6692913385826772
        },
        {
          "duration": 0.2368417499999964,
          "durationTicks": 288,
          "midi": 70,
          "name": "A#4",
          "ticks": 82944,
          "time": 68.210424,
          "velocity": 0.6692913385826772
        },
        {
          "duration": 0.1578944999999976,
          "durationTicks": 192,
          "midi": 49,
          "name": "C#3",
          "ticks": 83328,
          "time": 68.526213,
          "velocity": 0.4251968503937008
        },
        {
          "duration": 0.1578944999999976,
          "durationTicks": 192,
          "midi": 70,
          "name": "A#4",
          "ticks": 83328,
          "time": 68.526213,
          "velocity": 0.6692913385826772
        },
        {
          "duration": 0.1578944999999976,
          "durationTicks": 192,
          "midi": 72,
          "name": "C5",
          "ticks": 83520,
          "time": 68.6841075,
          "velocity": 0.6692913385826772
        },
        {
          "duration": 0.2368417499999964,
          "durationTicks": 288,
          "midi": 70,
          "name": "A#4",
          "ticks": 83712,
          "time": 68.842002,
          "velocity": 0.6692913385826772
        },
        {
          "duration": 0.15789450000001182,
          "durationTicks": 192,
          "midi": 49,
          "name": "C#3",
          "ticks": 83904,
          "time": 68.99989649999999,
          "velocity": 0.4251968503937008
        },
        {
          "duration": 0.2368417499999964,
          "durationTicks": 288,
          "midi": 68,
          "name": "G#4",
          "ticks": 84096,
          "time": 69.157791,
          "velocity": 0.6692913385826772
        },
        {
          "duration": 0.6315780000000046,
          "durationTicks": 768,
          "midi": 70,
          "name": "A#4",
          "ticks": 84480,
          "time": 69.47358,
          "velocity": 0.6692913385826772
        },
        {
          "duration": 0.1578944999999976,
          "durationTicks": 192,
          "midi": 48,
          "name": "C3",
          "ticks": 84864,
          "time": 69.789369,
          "velocity": 0.4251968503937008
        },
        {
          "duration": 0.6315779999999904,
          "durationTicks": 768,
          "midi": 72,
          "name": "C5",
          "ticks": 85248,
          "time": 70.105158,
          "velocity": 0.6692913385826772
        },
        {
          "duration": 0.1578944999999976,
          "durationTicks": 192,
          "midi": 48,
          "name": "C3",
          "ticks": 85440,
          "time": 70.2630525,
          "velocity": 0.4251968503937008
        },
        {
          "duration": 0.1578944999999976,
          "durationTicks": 192,
          "midi": 68,
          "name": "G#4",
          "ticks": 86016,
          "time": 70.736736,
          "velocity": 0.6692913385826772
        },
        {
          "duration": 0.1578944999999976,
          "durationTicks": 192,
          "midi": 46,
          "name": "A#2",
          "ticks": 86400,
          "time": 71.052525,
          "velocity": 0.4251968503937008
        },
        {
          "duration": 0.1578944999999976,
          "durationTicks": 192,
          "midi": 68,
          "name": "G#4",
          "ticks": 86400,
          "time": 71.052525,
          "velocity": 0.6692913385826772
        },
        {
          "duration": 0.1578944999999976,
          "durationTicks": 192,
          "midi": 70,
          "name": "A#4",
          "ticks": 86592,
          "time": 71.2104195,
          "velocity": 0.6692913385826772
        },
        {
          "duration": 0.1578944999999976,
          "durationTicks": 192,
          "midi": 72,
          "name": "C5",
          "ticks": 86784,
          "time": 71.368314,
          "velocity": 0.6692913385826772
        },
        {
          "duration": 0.1578944999999976,
          "durationTicks": 192,
          "midi": 46,
          "name": "A#2",
          "ticks": 86976,
          "time": 71.5262085,
          "velocity": 0.4251968503937008
        },
        {
          "duration": 0.1578944999999976,
          "durationTicks": 192,
          "midi": 68,
          "name": "G#4",
          "ticks": 87168,
          "time": 71.684103,
          "velocity": 0.6692913385826772
        },
        {
          "duration": 0.1578944999999976,
          "durationTicks": 192,
          "midi": 70,
          "name": "A#4",
          "ticks": 87552,
          "time": 71.999892,
          "velocity": 0.6692913385826772
        },
        {
          "duration": 0.1578944999999976,
          "durationTicks": 192,
          "midi": 46,
          "name": "A#2",
          "ticks": 87936,
          "time": 72.315681,
          "velocity": 0.4251968503937008
        },
        {
          "duration": 0.1578944999999976,
          "durationTicks": 192,
          "midi": 70,
          "name": "A#4",
          "ticks": 87936,
          "time": 72.315681,
          "velocity": 0.6692913385826772
        },
        {
          "duration": 0.1578944999999976,
          "durationTicks": 192,
          "midi": 72,
          "name": "C5",
          "ticks": 88128,
          "time": 72.4735755,
          "velocity": 0.6692913385826772
        },
        {
          "duration": 0.23684175000001062,
          "durationTicks": 288,
          "midi": 67,
          "name": "G4",
          "ticks": 88320,
          "time": 72.63147,
          "velocity": 0.6692913385826772
        },
        {
          "duration": 0.15789450000001182,
          "durationTicks": 192,
          "midi": 46,
          "name": "A#2",
          "ticks": 88512,
          "time": 72.78936449999999,
          "velocity": 0.4251968503937008
        },
        {
          "duration": 0.0789472499999988,
          "durationTicks": 96,
          "midi": 68,
          "name": "G#4",
          "ticks": 88608,
          "time": 72.86831175,
          "velocity": 0.6692913385826772
        },
        {
          "duration": 0.1578944999999976,
          "durationTicks": 192,
          "midi": 63,
          "name": "D#4",
          "ticks": 88704,
          "time": 72.947259,
          "velocity": 0.6692913385826772
        },
        {
          "duration": 0.1578944999999976,
          "durationTicks": 192,
          "midi": 67,
          "name": "G4",
          "ticks": 88896,
          "time": 73.1051535,
          "velocity": 0.6692913385826772
        },
        {
          "duration": 0.1578944999999976,
          "durationTicks": 192,
          "midi": 68,
          "name": "G#4",
          "ticks": 89088,
          "time": 73.263048,
          "velocity": 0.6692913385826772
        },
        {
          "duration": 0.1578944999999976,
          "durationTicks": 192,
          "midi": 68,
          "name": "G#4",
          "ticks": 89472,
          "time": 73.578837,
          "velocity": 0.6692913385826772
        },
        {
          "duration": 0.1578944999999976,
          "durationTicks": 192,
          "midi": 48,
          "name": "C3",
          "ticks": 89472,
          "time": 73.578837,
          "velocity": 0.4251968503937008
        },
        {
          "duration": 0.15789450000001182,
          "durationTicks": 192,
          "midi": 70,
          "name": "A#4",
          "ticks": 89664,
          "time": 73.73673149999999,
          "velocity": 0.6692913385826772
        },
        {
          "duration": 0.1578944999999976,
          "durationTicks": 192,
          "midi": 72,
          "name": "C5",
          "ticks": 89856,
          "time": 73.894626,
          "velocity": 0.6692913385826772
        },
        {
          "duration": 0.1578944999999976,
          "durationTicks": 192,
          "midi": 48,
          "name": "C3",
          "ticks": 90048,
          "time": 74.0525205,
          "velocity": 0.4251968503937008
        },
        {
          "duration": 0.1578944999999976,
          "durationTicks": 192,
          "midi": 68,
          "name": "G#4",
          "ticks": 90048,
          "time": 74.0525205,
          "velocity": 0.6692913385826772
        },
        {
          "duration": 0.1578944999999976,
          "durationTicks": 192,
          "midi": 72,
          "name": "C5",
          "ticks": 90240,
          "time": 74.210415,
          "velocity": 0.6692913385826772
        },
        {
          "duration": 0.1578944999999976,
          "durationTicks": 192,
          "midi": 80,
          "name": "G#5",
          "ticks": 90432,
          "time": 74.3683095,
          "velocity": 0.6692913385826772
        },
        {
          "duration": 0.3157890000000094,
          "durationTicks": 384,
          "midi": 79,
          "name": "G5",
          "ticks": 90624,
          "time": 74.52620399999999,
          "velocity": 0.6692913385826772
        },
        {
          "duration": 0.3157889999999952,
          "durationTicks": 384,
          "midi": 75,
          "name": "D#5",
          "ticks": 91008,
          "time": 74.841993,
          "velocity": 0.6692913385826772
        },
        {
          "duration": 0.1578944999999976,
          "durationTicks": 192,
          "midi": 48,
          "name": "C3",
          "ticks": 91008,
          "time": 74.841993,
          "velocity": 0.4251968503937008
        },
        {
          "duration": 0.3157889999999952,
          "durationTicks": 384,
          "midi": 70,
          "name": "A#4",
          "ticks": 91392,
          "time": 75.157782,
          "velocity": 0.6692913385826772
        },
        {
          "duration": 0.1578944999999976,
          "durationTicks": 192,
          "midi": 48,
          "name": "C3",
          "ticks": 91584,
          "time": 75.3156765,
          "velocity": 0.4251968503937008
        },
        {
          "duration": 0.3157890000000094,
          "durationTicks": 384,
          "midi": 67,
          "name": "G4",
          "ticks": 91776,
          "time": 75.47357099999999,
          "velocity": 0.6692913385826772
        },
        {
          "duration": 0.4736834999999928,
          "durationTicks": 576,
          "midi": 68,
          "name": "G#4",
          "ticks": 92160,
          "time": 75.78936,
          "velocity": 0.6692913385826772
        },
        {
          "duration": 0.1578944999999976,
          "durationTicks": 192,
          "midi": 49,
          "name": "C#3",
          "ticks": 92544,
          "time": 76.105149,
          "velocity": 0.4251968503937008
        },
        {
          "duration": 0.1578944999999976,
          "durationTicks": 192,
          "midi": 75,
          "name": "D#5",
          "ticks": 92736,
          "time": 76.2630435,
          "velocity": 0.6692913385826772
        },
        {
          "duration": 0.1578944999999976,
          "durationTicks": 192,
          "midi": 77,
          "name": "F5",
          "ticks": 92928,
          "time": 76.42093799999999,
          "velocity": 0.6692913385826772
        },
        {
          "duration": 0.15789450000001182,
          "durationTicks": 192,
          "midi": 49,
          "name": "C#3",
          "ticks": 93120,
          "time": 76.57883249999999,
          "velocity": 0.4251968503937008
        },
        {
          "duration": 0.1578944999999976,
          "durationTicks": 192,
          "midi": 72,
          "name": "C5",
          "ticks": 93312,
          "time": 76.736727,
          "velocity": 0.6692913385826772
        },
        {
          "duration": 0.2368417499999964,
          "durationTicks": 288,
          "midi": 70,
          "name": "A#4",
          "ticks": 93696,
          "time": 77.052516,
          "velocity": 0.6692913385826772
        },
        {
          "duration": 0.1578944999999976,
          "durationTicks": 192,
          "midi": 70,
          "name": "A#4",
          "ticks": 94080,
          "time": 77.36830499999999,
          "velocity": 0.6692913385826772
        },
        {
          "duration": 0.1578944999999976,
          "durationTicks": 192,
          "midi": 49,
          "name": "C#3",
          "ticks": 94080,
          "time": 77.36830499999999,
          "velocity": 0.4251968503937008
        },
        {
          "duration": 0.15789450000001182,
          "durationTicks": 192,
          "midi": 72,
          "name": "C5",
          "ticks": 94272,
          "time": 77.52619949999999,
          "velocity": 0.6692913385826772
        },
        {
          "duration": 0.2368417499999964,
          "durationTicks": 288,
          "midi": 70,
          "name": "A#4",
          "ticks": 94464,
          "time": 77.684094,
          "velocity": 0.6692913385826772
        },
        {
          "duration": 0.1578944999999976,
          "durationTicks": 192,
          "midi": 49,
          "name": "C#3",
          "ticks": 94656,
          "time": 77.8419885,
          "velocity": 0.4251968503937008
        },
        {
          "duration": 0.2368417499999964,
          "durationTicks": 288,
          "midi": 68,
          "name": "G#4",
          "ticks": 94848,
          "time": 77.999883,
          "velocity": 0.6692913385826772
        },
        {
          "duration": 0.23684175000001062,
          "durationTicks": 288,
          "midi": 70,
          "name": "A#4",
          "ticks": 95232,
          "time": 78.31567199999999,
          "velocity": 0.6692913385826772
        },
        {
          "duration": 0.1578944999999976,
          "durationTicks": 192,
          "midi": 49,
          "name": "C#3",
          "ticks": 95616,
          "time": 78.631461,
          "velocity": 0.4251968503937008
        },
        {
          "duration": 0.1578944999999976,
          "durationTicks": 192,
          "midi": 70,
          "name": "A#4",
          "ticks": 95616,
          "time": 78.631461,
          "velocity": 0.6692913385826772
        },
        {
          "duration": 0.1578944999999976,
          "durationTicks": 192,
          "midi": 72,
          "name": "C5",
          "ticks": 95808,
          "time": 78.7893555,
          "velocity": 0.6692913385826772
        },
        {
          "duration": 0.2368417499999964,
          "durationTicks": 288,
          "midi": 70,
          "name": "A#4",
          "ticks": 96000,
          "time": 78.94725,
          "velocity": 0.6692913385826772
        },
        {
          "duration": 0.1578944999999976,
          "durationTicks": 192,
          "midi": 49,
          "name": "C#3",
          "ticks": 96192,
          "time": 79.1051445,
          "velocity": 0.4251968503937008
        },
        {
          "duration": 0.23684175000001062,
          "durationTicks": 288,
          "midi": 68,
          "name": "G#4",
          "ticks": 96384,
          "time": 79.26303899999999,
          "velocity": 0.6692913385826772
        },
        {
          "duration": 0.6315779999999904,
          "durationTicks": 768,
          "midi": 70,
          "name": "A#4",
          "ticks": 96768,
          "time": 79.578828,
          "velocity": 0.6692913385826772
        },
        {
          "duration": 0.1578944999999976,
          "durationTicks": 192,
          "midi": 48,
          "name": "C3",
          "ticks": 97152,
          "time": 79.894617,
          "velocity": 0.4251968503937008
        },
        {
          "duration": 0.6315780000000046,
          "durationTicks": 768,
          "midi": 72,
          "name": "C5",
          "ticks": 97536,
          "time": 80.21040599999999,
          "velocity": 0.6692913385826772
        },
        {
          "duration": 0.15789450000001182,
          "durationTicks": 192,
          "midi": 48,
          "name": "C3",
          "ticks": 97728,
          "time": 80.36830049999999,
          "velocity": 0.4251968503937008
        },
        {
          "duration": 0.0789472499999988,
          "durationTicks": 96,
          "midi": 68,
          "name": "G#4",
          "ticks": 98304,
          "time": 80.841984,
          "velocity": 0.6692913385826772
        },
        {
          "duration": 0.0789472499999988,
          "durationTicks": 96,
          "midi": 65,
          "name": "F4",
          "ticks": 98400,
          "time": 80.92093125,
          "velocity": 0.6692913385826772
        },
        {
          "duration": 0.0789472499999988,
          "durationTicks": 96,
          "midi": 60,
          "name": "C4",
          "ticks": 98496,
          "time": 80.9998785,
          "velocity": 0.6692913385826772
        },
        {
          "duration": 0.0789472499999988,
          "durationTicks": 96,
          "midi": 65,
          "name": "F4",
          "ticks": 98592,
          "time": 81.07882575,
          "velocity": 0.6692913385826772
        },
        {
          "duration": 0.15789450000001182,
          "durationTicks": 192,
          "midi": 68,
          "name": "G#4",
          "ticks": 98688,
          "time": 81.15777299999999,
          "velocity": 0.6692913385826772
        },
        {
          "duration": 0.15789450000001182,
          "durationTicks": 192,
          "midi": 46,
          "name": "A#2",
          "ticks": 98688,
          "time": 81.15777299999999,
          "velocity": 0.4251968503937008
        },
        {
          "duration": 0.1578944999999976,
          "durationTicks": 192,
          "midi": 70,
          "name": "A#4",
          "ticks": 98880,
          "time": 81.3156675,
          "velocity": 0.6692913385826772
        },
        {
          "duration": 0.1578944999999976,
          "durationTicks": 192,
          "midi": 72,
          "name": "C5",
          "ticks": 99072,
          "time": 81.473562,
          "velocity": 0.6692913385826772
        },
        {
          "duration": 0.1578944999999976,
          "durationTicks": 192,
          "midi": 46,
          "name": "A#2",
          "ticks": 99264,
          "time": 81.6314565,
          "velocity": 0.4251968503937008
        },
        {
          "duration": 0.1578944999999976,
          "durationTicks": 192,
          "midi": 68,
          "name": "G#4",
          "ticks": 99456,
          "time": 81.789351,
          "velocity": 0.6692913385826772
        },
        {
          "duration": 0.0789472499999988,
          "durationTicks": 96,
          "midi": 70,
          "name": "A#4",
          "ticks": 99840,
          "time": 82.10513999999999,
          "velocity": 0.6692913385826772
        },
        {
          "duration": 0.07894725000001301,
          "durationTicks": 96,
          "midi": 67,
          "name": "G4",
          "ticks": 99936,
          "time": 82.18408724999999,
          "velocity": 0.6692913385826772
        },
        {
          "duration": 0.0789472499999988,
          "durationTicks": 96,
          "midi": 65,
          "name": "F4",
          "ticks": 100032,
          "time": 82.2630345,
          "velocity": 0.6692913385826772
        },
        {
          "duration": 0.0789472499999988,
          "durationTicks": 96,
          "midi": 67,
          "name": "G4",
          "ticks": 100128,
          "time": 82.34198175,
          "velocity": 0.6692913385826772
        },
        {
          "duration": 0.1578944999999976,
          "durationTicks": 192,
          "midi": 46,
          "name": "A#2",
          "ticks": 100224,
          "time": 82.420929,
          "velocity": 0.4251968503937008
        },
        {
          "duration": 0.1578944999999976,
          "durationTicks": 192,
          "midi": 70,
          "name": "A#4",
          "ticks": 100224,
          "time": 82.420929,
          "velocity": 0.6692913385826772
        },
        {
          "duration": 0.1578944999999976,
          "durationTicks": 192,
          "midi": 72,
          "name": "C5",
          "ticks": 100416,
          "time": 82.5788235,
          "velocity": 0.6692913385826772
        },
        {
          "duration": 0.2368417499999964,
          "durationTicks": 288,
          "midi": 67,
          "name": "G4",
          "ticks": 100608,
          "time": 82.736718,
          "velocity": 0.6692913385826772
        },
        {
          "duration": 0.1578944999999976,
          "durationTicks": 192,
          "midi": 46,
          "name": "A#2",
          "ticks": 100800,
          "time": 82.8946125,
          "velocity": 0.4251968503937008
        },
        {
          "duration": 0.0789472499999988,
          "durationTicks": 96,
          "midi": 68,
          "name": "G#4",
          "ticks": 100896,
          "time": 82.97355974999999,
          "velocity": 0.6692913385826772
        },
        {
          "duration": 0.15789450000001182,
          "durationTicks": 192,
          "midi": 63,
          "name": "D#4",
          "ticks": 100992,
          "time": 83.05250699999999,
          "velocity": 0.6692913385826772
        },
        {
          "duration": 0.1578944999999976,
          "durationTicks": 192,
          "midi": 67,
          "name": "G4",
          "ticks": 101184,
          "time": 83.2104015,
          "velocity": 0.6692913385826772
        },
        {
          "duration": 0.1578944999999976,
          "durationTicks": 192,
          "midi": 68,
          "name": "G#4",
          "ticks": 101376,
          "time": 83.368296,
          "velocity": 0.6692913385826772
        },
        {
          "duration": 0.1578944999999976,
          "durationTicks": 192,
          "midi": 68,
          "name": "G#4",
          "ticks": 101760,
          "time": 83.684085,
          "velocity": 0.6692913385826772
        },
        {
          "duration": 0.1578944999999976,
          "durationTicks": 192,
          "midi": 48,
          "name": "C3",
          "ticks": 101760,
          "time": 83.684085,
          "velocity": 0.4251968503937008
        },
        {
          "duration": 0.1578944999999976,
          "durationTicks": 192,
          "midi": 70,
          "name": "A#4",
          "ticks": 101952,
          "time": 83.8419795,
          "velocity": 0.6692913385826772
        },
        {
          "duration": 0.15789450000001182,
          "durationTicks": 192,
          "midi": 72,
          "name": "C5",
          "ticks": 102144,
          "time": 83.99987399999999,
          "velocity": 0.6692913385826772
        },
        {
          "duration": 0.1578944999999976,
          "durationTicks": 192,
          "midi": 48,
          "name": "C3",
          "ticks": 102336,
          "time": 84.1577685,
          "velocity": 0.4251968503937008
        },
        {
          "duration": 0.1578944999999976,
          "durationTicks": 192,
          "midi": 68,
          "name": "G#4",
          "ticks": 102336,
          "time": 84.1577685,
          "velocity": 0.6692913385826772
        },
        {
          "duration": 0.1578944999999976,
          "durationTicks": 192,
          "midi": 72,
          "name": "C5",
          "ticks": 102528,
          "time": 84.315663,
          "velocity": 0.6692913385826772
        },
        {
          "duration": 0.1578944999999976,
          "durationTicks": 192,
          "midi": 80,
          "name": "G#5",
          "ticks": 102720,
          "time": 84.4735575,
          "velocity": 0.6692913385826772
        },
        {
          "duration": 0.0789472499999988,
          "durationTicks": 96,
          "midi": 79,
          "name": "G5",
          "ticks": 102912,
          "time": 84.631452,
          "velocity": 0.6692913385826772
        },
        {
          "duration": 0.1184208749999982,
          "durationTicks": 144,
          "midi": 67,
          "name": "G4",
          "ticks": 103008,
          "time": 84.71039925,
          "velocity": 0.6692913385826772
        },
        {
          "duration": 0.0789472499999988,
          "durationTicks": 96,
          "midi": 67,
          "name": "G4",
          "ticks": 103200,
          "time": 84.86829374999999,
          "velocity": 0.6692913385826772
        },
        {
          "duration": 0.15789450000001182,
          "durationTicks": 192,
          "midi": 48,
          "name": "C3",
          "ticks": 103296,
          "time": 84.94724099999999,
          "velocity": 0.4251968503937008
        },
        {
          "duration": 0.15789450000001182,
          "durationTicks": 192,
          "midi": 75,
          "name": "D#5",
          "ticks": 103296,
          "time": 84.94724099999999,
          "velocity": 0.6692913385826772
        },
        {
          "duration": 0.0789472499999988,
          "durationTicks": 96,
          "midi": 67,
          "name": "G4",
          "ticks": 103488,
          "time": 85.1051355,
          "velocity": 0.6692913385826772
        },
        {
          "duration": 0.0789472499999988,
          "durationTicks": 96,
          "midi": 70,
          "name": "A#4",
          "ticks": 103584,
          "time": 85.18408275,
          "velocity": 0.6692913385826772
        },
        {
          "duration": 0.1578944999999976,
          "durationTicks": 192,
          "midi": 72,
          "name": "C5",
          "ticks": 103680,
          "time": 85.26303,
          "velocity": 0.6692913385826772
        },
        {
          "duration": 0.0789472499999988,
          "durationTicks": 96,
          "midi": 70,
          "name": "A#4",
          "ticks": 103872,
          "time": 85.4209245,
          "velocity": 0.6692913385826772
        },
        {
          "duration": 0.1578944999999976,
          "durationTicks": 192,
          "midi": 48,
          "name": "C3",
          "ticks": 103872,
          "time": 85.4209245,
          "velocity": 0.4251968503937008
        },
        {
          "duration": 0.0789472499999988,
          "durationTicks": 96,
          "midi": 72,
          "name": "C5",
          "ticks": 103968,
          "time": 85.49987175,
          "velocity": 0.6692913385826772
        },
        {
          "duration": 0.1578944999999976,
          "durationTicks": 192,
          "midi": 75,
          "name": "D#5",
          "ticks": 104064,
          "time": 85.578819,
          "velocity": 0.6692913385826772
        },
        {
          "duration": 0.0789472499999988,
          "durationTicks": 96,
          "midi": 72,
          "name": "C5",
          "ticks": 104256,
          "time": 85.7367135,
          "velocity": 0.6692913385826772
        },
        {
          "duration": 0.0789472499999988,
          "durationTicks": 96,
          "midi": 75,
          "name": "D#5",
          "ticks": 104352,
          "time": 85.81566074999999,
          "velocity": 0.6692913385826772
        },
        {
          "duration": 0.3157890000000094,
          "durationTicks": 384,
          "midi": 77,
          "name": "F5",
          "ticks": 104448,
          "time": 85.89460799999999,
          "velocity": 0.6692913385826772
        },
        {
          "duration": 0.1578944999999976,
          "durationTicks": 192,
          "midi": 72,
          "name": "C5",
          "ticks": 104832,
          "time": 86.210397,
          "velocity": 0.6692913385826772
        },
        {
          "duration": 0.1578944999999976,
          "durationTicks": 192,
          "midi": 49,
          "name": "C#3",
          "ticks": 104832,
          "time": 86.210397,
          "velocity": 0.4251968503937008
        },
        {
          "duration": 0.1578944999999976,
          "durationTicks": 192,
          "midi": 75,
          "name": "D#5",
          "ticks": 105024,
          "time": 86.3682915,
          "velocity": 0.6692913385826772
        },
        {
          "duration": 0.1578944999999976,
          "durationTicks": 192,
          "midi": 77,
          "name": "F5",
          "ticks": 105216,
          "time": 86.526186,
          "velocity": 0.6692913385826772
        },
        {
          "duration": 0.1578944999999976,
          "durationTicks": 192,
          "midi": 49,
          "name": "C#3",
          "ticks": 105408,
          "time": 86.6840805,
          "velocity": 0.4251968503937008
        },
        {
          "duration": 0.15789450000001182,
          "durationTicks": 192,
          "midi": 72,
          "name": "C5",
          "ticks": 105600,
          "time": 86.84197499999999,
          "velocity": 0.6692913385826772
        },
        {
          "duration": 0.2368417499999964,
          "durationTicks": 288,
          "midi": 70,
          "name": "A#4",
          "ticks": 105984,
          "time": 87.157764,
          "velocity": 0.6692913385826772
        },
        {
          "duration": 0.1578944999999976,
          "durationTicks": 192,
          "midi": 49,
          "name": "C#3",
          "ticks": 106368,
          "time": 87.473553,
          "velocity": 0.4251968503937008
        },
        {
          "duration": 0.1578944999999976,
          "durationTicks": 192,
          "midi": 70,
          "name": "A#4",
          "ticks": 106368,
          "time": 87.473553,
          "velocity": 0.6692913385826772
        },
        {
          "duration": 0.1578944999999976,
          "durationTicks": 192,
          "midi": 72,
          "name": "C5",
          "ticks": 106560,
          "time": 87.6314475,
          "velocity": 0.6692913385826772
        },
        {
          "duration": 0.23684175000001062,
          "durationTicks": 288,
          "midi": 70,
          "name": "A#4",
          "ticks": 106752,
          "time": 87.78934199999999,
          "velocity": 0.6692913385826772
        },
        {
          "duration": 0.1578944999999976,
          "durationTicks": 192,
          "midi": 49,
          "name": "C#3",
          "ticks": 106944,
          "time": 87.9472365,
          "velocity": 0.4251968503937008
        },
        {
          "duration": 0.2368417499999964,
          "durationTicks": 288,
          "midi": 68,
          "name": "G#4",
          "ticks": 107136,
          "time": 88.105131,
          "velocity": 0.6692913385826772
        },
        {
          "duration": 0.1578944999999976,
          "durationTicks": 192,
          "midi": 70,
          "name": "A#4",
          "ticks": 107520,
          "time": 88.42092,
          "velocity": 0.6692913385826772
        },
        {
          "duration": 0.1578944999999976,
          "durationTicks": 192,
          "midi": 68,
          "name": "G#4",
          "ticks": 107712,
          "time": 88.5788145,
          "velocity": 0.6692913385826772
        },
        {
          "duration": 0.15789450000001182,
          "durationTicks": 192,
          "midi": 70,
          "name": "A#4",
          "ticks": 107904,
          "time": 88.73670899999999,
          "velocity": 0.6692913385826772
        },
        {
          "duration": 0.15789450000001182,
          "durationTicks": 192,
          "midi": 49,
          "name": "C#3",
          "ticks": 107904,
          "time": 88.73670899999999,
          "velocity": 0.4251968503937008
        },
        {
          "duration": 0.1578944999999976,
          "durationTicks": 192,
          "midi": 72,
          "name": "C5",
          "ticks": 108096,
          "time": 88.8946035,
          "velocity": 0.6692913385826772
        },
        {
          "duration": 0.1578944999999976,
          "durationTicks": 192,
          "midi": 75,
          "name": "D#5",
          "ticks": 108288,
          "time": 89.052498,
          "velocity": 0.6692913385826772
        },
        {
          "duration": 0.1578944999999976,
          "durationTicks": 192,
          "midi": 72,
          "name": "C5",
          "ticks": 108480,
          "time": 89.2103925,
          "velocity": 0.6692913385826772
        },
        {
          "duration": 0.1578944999999976,
          "durationTicks": 192,
          "midi": 49,
          "name": "C#3",
          "ticks": 108480,
          "time": 89.2103925,
          "velocity": 0.4251968503937008
        },
        {
          "duration": 0.1578944999999976,
          "durationTicks": 192,
          "midi": 68,
          "name": "G#4",
          "ticks": 108672,
          "time": 89.368287,
          "velocity": 0.6692913385826772
        },
        {
          "duration": 0.1578944999999976,
          "durationTicks": 192,
          "midi": 65,
          "name": "F4",
          "ticks": 108864,
          "time": 89.52618149999999,
          "velocity": 0.6692913385826772
        },
        {
          "duration": 0.0789472499999988,
          "durationTicks": 96,
          "midi": 70,
          "name": "A#4",
          "ticks": 109056,
          "time": 89.68407599999999,
          "velocity": 0.6692913385826772
        },
        {
          "duration": 0.07894725000001301,
          "durationTicks": 96,
          "midi": 68,
          "name": "G#4",
          "ticks": 109152,
          "time": 89.76302324999999,
          "velocity": 0.6692913385826772
        },
        {
          "duration": 0.0789472499999988,
          "durationTicks": 96,
          "midi": 65,
          "name": "F4",
          "ticks": 109248,
          "time": 89.8419705,
          "velocity": 0.6692913385826772
        },
        {
          "duration": 0.0789472499999988,
          "durationTicks": 96,
          "midi": 60,
          "name": "C4",
          "ticks": 109344,
          "time": 89.92091775,
          "velocity": 0.6692913385826772
        },
        {
          "duration": 0.1578944999999976,
          "durationTicks": 192,
          "midi": 48,
          "name": "C3",
          "ticks": 109440,
          "time": 89.999865,
          "velocity": 0.4251968503937008
        },
        {
          "duration": 0.0789472499999988,
          "durationTicks": 96,
          "midi": 70,
          "name": "A#4",
          "ticks": 109440,
          "time": 89.999865,
          "velocity": 0.6692913385826772
        },
        {
          "duration": 0.0789472499999988,
          "durationTicks": 96,
          "midi": 68,
          "name": "G#4",
          "ticks": 109536,
          "time": 90.07881225,
          "velocity": 0.6692913385826772
        },
        {
          "duration": 0.0789472499999988,
          "durationTicks": 96,
          "midi": 65,
          "name": "F4",
          "ticks": 109632,
          "time": 90.1577595,
          "velocity": 0.6692913385826772
        },
        {
          "duration": 0.0789472499999988,
          "durationTicks": 96,
          "midi": 60,
          "name": "C4",
          "ticks": 109728,
          "time": 90.23670675,
          "velocity": 0.6692913385826772
        },
        {
          "duration": 0.0789472499999988,
          "durationTicks": 96,
          "midi": 72,
          "name": "C5",
          "ticks": 109824,
          "time": 90.315654,
          "velocity": 0.6692913385826772
        },
        {
          "duration": 0.0789472499999988,
          "durationTicks": 96,
          "midi": 67,
          "name": "G4",
          "ticks": 109920,
          "time": 90.39460125,
          "velocity": 0.6692913385826772
        },
        {
          "duration": 0.1578944999999976,
          "durationTicks": 192,
          "midi": 48,
          "name": "C3",
          "ticks": 110016,
          "time": 90.47354849999999,
          "velocity": 0.4251968503937008
        },
        {
          "duration": 0.0789472499999988,
          "durationTicks": 96,
          "midi": 64,
          "name": "E4",
          "ticks": 110016,
          "time": 90.47354849999999,
          "velocity": 0.6692913385826772
        },
        {
          "duration": 0.0789472499999988,
          "durationTicks": 96,
          "midi": 60,
          "name": "C4",
          "ticks": 110112,
          "time": 90.55249574999999,
          "velocity": 0.6692913385826772
        },
        {
          "duration": 0.0789472499999988,
          "durationTicks": 96,
          "midi": 72,
          "name": "C5",
          "ticks": 110208,
          "time": 90.63144299999999,
          "velocity": 0.6692913385826772
        },
        {
          "duration": 0.07894725000001301,
          "durationTicks": 96,
          "midi": 67,
          "name": "G4",
          "ticks": 110304,
          "time": 90.71039024999999,
          "velocity": 0.6692913385826772
        },
        {
          "duration": 0.0789472499999988,
          "durationTicks": 96,
          "midi": 64,
          "name": "E4",
          "ticks": 110400,
          "time": 90.7893375,
          "velocity": 0.6692913385826772
        },
        {
          "duration": 0.0789472499999988,
          "durationTicks": 96,
          "midi": 60,
          "name": "C4",
          "ticks": 110496,
          "time": 90.86828475,
          "velocity": 0.6692913385826772
        },
        {
          "duration": 0.0789472499999988,
          "durationTicks": 96,
          "midi": 68,
          "name": "G#4",
          "ticks": 110592,
          "time": 90.947232,
          "velocity": 0.6692913385826772
        },
        {
          "duration": 0.0789472499999988,
          "durationTicks": 96,
          "midi": 65,
          "name": "F4",
          "ticks": 110688,
          "time": 91.02617925,
          "velocity": 0.6692913385826772
        },
        {
          "duration": 0.0789472499999988,
          "durationTicks": 96,
          "midi": 60,
          "name": "C4",
          "ticks": 110784,
          "time": 91.1051265,
          "velocity": 0.6692913385826772
        },
        {
          "duration": 0.0789472499999988,
          "durationTicks": 96,
          "midi": 65,
          "name": "F4",
          "ticks": 110880,
          "time": 91.18407375,
          "velocity": 0.6692913385826772
        },
        {
          "duration": 0.1578944999999976,
          "durationTicks": 192,
          "midi": 46,
          "name": "A#2",
          "ticks": 110976,
          "time": 91.263021,
          "velocity": 0.4251968503937008
        },
        {
          "duration": 0.1578944999999976,
          "durationTicks": 192,
          "midi": 68,
          "name": "G#4",
          "ticks": 110976,
          "time": 91.263021,
          "velocity": 0.6692913385826772
        },
        {
          "duration": 0.1578944999999976,
          "durationTicks": 192,
          "midi": 70,
          "name": "A#4",
          "ticks": 111168,
          "time": 91.42091549999999,
          "velocity": 0.6692913385826772
        },
        {
          "duration": 0.15789450000001182,
          "durationTicks": 192,
          "midi": 72,
          "name": "C5",
          "ticks": 111360,
          "time": 91.57880999999999,
          "velocity": 0.6692913385826772
        },
        {
          "duration": 0.1578944999999976,
          "durationTicks": 192,
          "midi": 46,
          "name": "A#2",
          "ticks": 111552,
          "time": 91.7367045,
          "velocity": 0.4251968503937008
        },
        {
          "duration": 0.1578944999999976,
          "durationTicks": 192,
          "midi": 68,
          "name": "G#4",
          "ticks": 111744,
          "time": 91.894599,
          "velocity": 0.6692913385826772
        },
        {
          "duration": 0.0789472499999988,
          "durationTicks": 96,
          "midi": 70,
          "name": "A#4",
          "ticks": 112128,
          "time": 92.210388,
          "velocity": 0.6692913385826772
        },
        {
          "duration": 0.0789472499999988,
          "durationTicks": 96,
          "midi": 67,
          "name": "G4",
          "ticks": 112224,
          "time": 92.28933525,
          "velocity": 0.6692913385826772
        },
        {
          "duration": 0.0789472499999988,
          "durationTicks": 96,
          "midi": 65,
          "name": "F4",
          "ticks": 112320,
          "time": 92.36828249999999,
          "velocity": 0.6692913385826772
        },
        {
          "duration": 0.0789472499999988,
          "durationTicks": 96,
          "midi": 67,
          "name": "G4",
          "ticks": 112416,
          "time": 92.44722974999999,
          "velocity": 0.6692913385826772
        },
        {
          "duration": 0.15789450000001182,
          "durationTicks": 192,
          "midi": 46,
          "name": "A#2",
          "ticks": 112512,
          "time": 92.52617699999999,
          "velocity": 0.4251968503937008
        },
        {
          "duration": 0.15789450000001182,
          "durationTicks": 192,
          "midi": 70,
          "name": "A#4",
          "ticks": 112512,
          "time": 92.52617699999999,
          "velocity": 0.6692913385826772
        },
        {
          "duration": 0.1578944999999976,
          "durationTicks": 192,
          "midi": 72,
          "name": "C5",
          "ticks": 112704,
          "time": 92.6840715,
          "velocity": 0.6692913385826772
        },
        {
          "duration": 0.2368417499999964,
          "durationTicks": 288,
          "midi": 67,
          "name": "G4",
          "ticks": 112896,
          "time": 92.841966,
          "velocity": 0.6692913385826772
        },
        {
          "duration": 0.1578944999999976,
          "durationTicks": 192,
          "midi": 46,
          "name": "A#2",
          "ticks": 113088,
          "time": 92.9998605,
          "velocity": 0.4251968503937008
        },
        {
          "duration": 0.0789472499999988,
          "durationTicks": 96,
          "midi": 68,
          "name": "G#4",
          "ticks": 113184,
          "time": 93.07880775,
          "velocity": 0.6692913385826772
        },
        {
          "duration": 0.1578944999999976,
          "durationTicks": 192,
          "midi": 63,
          "name": "D#4",
          "ticks": 113280,
          "time": 93.157755,
          "velocity": 0.6692913385826772
        },
        {
          "duration": 0.1578944999999976,
          "durationTicks": 192,
          "midi": 67,
          "name": "G4",
          "ticks": 113472,
          "time": 93.31564949999999,
          "velocity": 0.6692913385826772
        },
        {
          "duration": 0.15789450000001182,
          "durationTicks": 192,
          "midi": 68,
          "name": "G#4",
          "ticks": 113664,
          "time": 93.47354399999999,
          "velocity": 0.6692913385826772
        },
        {
          "duration": 0.1578944999999976,
          "durationTicks": 192,
          "midi": 68,
          "name": "G#4",
          "ticks": 114048,
          "time": 93.789333,
          "velocity": 0.6692913385826772
        },
        {
          "duration": 0.1578944999999976,
          "durationTicks": 192,
          "midi": 48,
          "name": "C3",
          "ticks": 114048,
          "time": 93.789333,
          "velocity": 0.4251968503937008
        },
        {
          "duration": 0.1578944999999976,
          "durationTicks": 192,
          "midi": 70,
          "name": "A#4",
          "ticks": 114240,
          "time": 93.9472275,
          "velocity": 0.6692913385826772
        },
        {
          "duration": 0.1578944999999976,
          "durationTicks": 192,
          "midi": 72,
          "name": "C5",
          "ticks": 114432,
          "time": 94.105122,
          "velocity": 0.6692913385826772
        },
        {
          "duration": 0.1578944999999976,
          "durationTicks": 192,
          "midi": 68,
          "name": "G#4",
          "ticks": 114624,
          "time": 94.26301649999999,
          "velocity": 0.6692913385826772
        },
        {
          "duration": 0.1578944999999976,
          "durationTicks": 192,
          "midi": 48,
          "name": "C3",
          "ticks": 114624,
          "time": 94.26301649999999,
          "velocity": 0.4251968503937008
        },
        {
          "duration": 0.15789450000001182,
          "durationTicks": 192,
          "midi": 72,
          "name": "C5",
          "ticks": 114816,
          "time": 94.42091099999999,
          "velocity": 0.6692913385826772
        },
        {
          "duration": 0.1578944999999976,
          "durationTicks": 192,
          "midi": 80,
          "name": "G#5",
          "ticks": 115008,
          "time": 94.5788055,
          "velocity": 0.6692913385826772
        },
        {
          "duration": 0.0789472499999988,
          "durationTicks": 96,
          "midi": 79,
          "name": "G5",
          "ticks": 115200,
          "time": 94.7367,
          "velocity": 0.6692913385826772
        },
        {
          "duration": 0.1184208749999982,
          "durationTicks": 144,
          "midi": 67,
          "name": "G4",
          "ticks": 115296,
          "time": 94.81564725,
          "velocity": 0.6692913385826772
        },
        {
          "duration": 0.0789472499999988,
          "durationTicks": 96,
          "midi": 67,
          "name": "G4",
          "ticks": 115488,
          "time": 94.97354175,
          "velocity": 0.6692913385826772
        },
        {
          "duration": 0.1578944999999976,
          "durationTicks": 192,
          "midi": 48,
          "name": "C3",
          "ticks": 115584,
          "time": 95.052489,
          "velocity": 0.4251968503937008
        },
        {
          "duration": 0.1578944999999976,
          "durationTicks": 192,
          "midi": 75,
          "name": "D#5",
          "ticks": 115584,
          "time": 95.052489,
          "velocity": 0.6692913385826772
        },
        {
          "duration": 0.0789472499999988,
          "durationTicks": 96,
          "midi": 67,
          "name": "G4",
          "ticks": 115776,
          "time": 95.21038349999999,
          "velocity": 0.6692913385826772
        },
        {
          "duration": 0.0789472499999988,
          "durationTicks": 96,
          "midi": 70,
          "name": "A#4",
          "ticks": 115872,
          "time": 95.28933074999999,
          "velocity": 0.6692913385826772
        },
        {
          "duration": 0.15789450000001182,
          "durationTicks": 192,
          "midi": 72,
          "name": "C5",
          "ticks": 115968,
          "time": 95.36827799999999,
          "velocity": 0.6692913385826772
        },
        {
          "duration": 0.1578944999999976,
          "durationTicks": 192,
          "midi": 48,
          "name": "C3",
          "ticks": 116160,
          "time": 95.5261725,
          "velocity": 0.4251968503937008
        },
        {
          "duration": 0.0789472499999988,
          "durationTicks": 96,
          "midi": 70,
          "name": "A#4",
          "ticks": 116160,
          "time": 95.5261725,
          "velocity": 0.6692913385826772
        },
        {
          "duration": 0.0789472499999988,
          "durationTicks": 96,
          "midi": 72,
          "name": "C5",
          "ticks": 116256,
          "time": 95.60511975,
          "velocity": 0.6692913385826772
        },
        {
          "duration": 0.1578944999999976,
          "durationTicks": 192,
          "midi": 75,
          "name": "D#5",
          "ticks": 116352,
          "time": 95.684067,
          "velocity": 0.6692913385826772
        },
        {
          "duration": 0.0789472499999988,
          "durationTicks": 96,
          "midi": 72,
          "name": "C5",
          "ticks": 116544,
          "time": 95.8419615,
          "velocity": 0.6692913385826772
        },
        {
          "duration": 0.0789472499999988,
          "durationTicks": 96,
          "midi": 75,
          "name": "D#5",
          "ticks": 116640,
          "time": 95.92090875,
          "velocity": 0.6692913385826772
        },
        {
          "duration": 0.3157889999999952,
          "durationTicks": 384,
          "midi": 77,
          "name": "F5",
          "ticks": 116736,
          "time": 95.999856,
          "velocity": 0.6692913385826772
        },
        {
          "duration": 0.15789450000001182,
          "durationTicks": 192,
          "midi": 49,
          "name": "C#3",
          "ticks": 117120,
          "time": 96.31564499999999,
          "velocity": 0.4251968503937008
        },
        {
          "duration": 0.15789450000001182,
          "durationTicks": 192,
          "midi": 72,
          "name": "C5",
          "ticks": 117120,
          "time": 96.31564499999999,
          "velocity": 0.6692913385826772
        },
        {
          "duration": 0.1578944999999976,
          "durationTicks": 192,
          "midi": 75,
          "name": "D#5",
          "ticks": 117312,
          "time": 96.4735395,
          "velocity": 0.6692913385826772
        },
        {
          "duration": 0.1578944999999976,
          "durationTicks": 192,
          "midi": 77,
          "name": "F5",
          "ticks": 117504,
          "time": 96.631434,
          "velocity": 0.6692913385826772
        },
        {
          "duration": 0.1578944999999976,
          "durationTicks": 192,
          "midi": 49,
          "name": "C#3",
          "ticks": 117696,
          "time": 96.7893285,
          "velocity": 0.4251968503937008
        },
        {
          "duration": 0.1578944999999976,
          "durationTicks": 192,
          "midi": 72,
          "name": "C5",
          "ticks": 117888,
          "time": 96.947223,
          "velocity": 0.6692913385826772
        },
        {
          "duration": 0.23684175000001062,
          "durationTicks": 288,
          "midi": 70,
          "name": "A#4",
          "ticks": 118272,
          "time": 97.26301199999999,
          "velocity": 0.6692913385826772
        },
        {
          "duration": 0.1578944999999976,
          "durationTicks": 192,
          "midi": 49,
          "name": "C#3",
          "ticks": 118656,
          "time": 97.578801,
          "velocity": 0.4251968503937008
        },
        {
          "duration": 0.1578944999999976,
          "durationTicks": 192,
          "midi": 70,
          "name": "A#4",
          "ticks": 118656,
          "time": 97.578801,
          "velocity": 0.6692913385826772
        },
        {
          "duration": 0.1578944999999976,
          "durationTicks": 192,
          "midi": 72,
          "name": "C5",
          "ticks": 118848,
          "time": 97.7366955,
          "velocity": 0.6692913385826772
        },
        {
          "duration": 0.2368417499999964,
          "durationTicks": 288,
          "midi": 70,
          "name": "A#4",
          "ticks": 119040,
          "time": 97.89459,
          "velocity": 0.6692913385826772
        },
        {
          "duration": 0.1578944999999976,
          "durationTicks": 192,
          "midi": 49,
          "name": "C#3",
          "ticks": 119232,
          "time": 98.05248449999999,
          "velocity": 0.4251968503937008
        },
        {
          "duration": 0.23684175000001062,
          "durationTicks": 288,
          "midi": 68,
          "name": "G#4",
          "ticks": 119424,
          "time": 98.21037899999999,
          "velocity": 0.6692913385826772
        },
        {
          "duration": 0.1578944999999976,
          "durationTicks": 192,
          "midi": 70,
          "name": "A#4",
          "ticks": 119808,
          "time": 98.526168,
          "velocity": 0.6692913385826772
        },
        {
          "duration": 0.1578944999999976,
          "durationTicks": 192,
          "midi": 68,
          "name": "G#4",
          "ticks": 120000,
          "time": 98.6840625,
          "velocity": 0.6692913385826772
        },
        {
          "duration": 0.1578944999999976,
          "durationTicks": 192,
          "midi": 49,
          "name": "C#3",
          "ticks": 120192,
          "time": 98.841957,
          "velocity": 0.4251968503937008
        },
        {
          "duration": 0.1578944999999976,
          "durationTicks": 192,
          "midi": 70,
          "name": "A#4",
          "ticks": 120192,
          "time": 98.841957,
          "velocity": 0.6692913385826772
        },
        {
          "duration": 0.1578944999999976,
          "durationTicks": 192,
          "midi": 72,
          "name": "C5",
          "ticks": 120384,
          "time": 98.99985149999999,
          "velocity": 0.6692913385826772
        },
        {
          "duration": 0.15789450000001182,
          "durationTicks": 192,
          "midi": 75,
          "name": "D#5",
          "ticks": 120576,
          "time": 99.15774599999999,
          "velocity": 0.6692913385826772
        },
        {
          "duration": 0.1578944999999976,
          "durationTicks": 192,
          "midi": 49,
          "name": "C#3",
          "ticks": 120768,
          "time": 99.3156405,
          "velocity": 0.4251968503937008
        },
        {
          "duration": 0.1578944999999976,
          "durationTicks": 192,
          "midi": 72,
          "name": "C5",
          "ticks": 120768,
          "time": 99.3156405,
          "velocity": 0.6692913385826772
        },
        {
          "duration": 0.1578944999999976,
          "durationTicks": 192,
          "midi": 68,
          "name": "G#4",
          "ticks": 120960,
          "time": 99.473535,
          "velocity": 0.6692913385826772
        },
        {
          "duration": 0.1578944999999976,
          "durationTicks": 192,
          "midi": 65,
          "name": "F4",
          "ticks": 121152,
          "time": 99.6314295,
          "velocity": 0.6692913385826772
        },
        {
          "duration": 0.0789472499999988,
          "durationTicks": 96,
          "midi": 70,
          "name": "A#4",
          "ticks": 121344,
          "time": 99.789324,
          "velocity": 0.6692913385826772
        },
        {
          "duration": 0.0789472499999988,
          "durationTicks": 96,
          "midi": 68,
          "name": "G#4",
          "ticks": 121440,
          "time": 99.86827124999999,
          "velocity": 0.6692913385826772
        },
        {
          "duration": 0.0789472499999988,
          "durationTicks": 96,
          "midi": 65,
          "name": "F4",
          "ticks": 121536,
          "time": 99.94721849999999,
          "velocity": 0.6692913385826772
        },
        {
          "duration": 0.0789472499999988,
          "durationTicks": 96,
          "midi": 60,
          "name": "C4",
          "ticks": 121632,
          "time": 100.02616574999999,
          "velocity": 0.6692913385826772
        },
        {
          "duration": 0.07894725000001301,
          "durationTicks": 96,
          "midi": 70,
          "name": "A#4",
          "ticks": 121728,
          "time": 100.10511299999999,
          "velocity": 0.6692913385826772
        },
        {
          "duration": 0.15789450000001182,
          "durationTicks": 192,
          "midi": 48,
          "name": "C3",
          "ticks": 121728,
          "time": 100.10511299999999,
          "velocity": 0.4251968503937008
        },
        {
          "duration": 0.0789472499999988,
          "durationTicks": 96,
          "midi": 68,
          "name": "G#4",
          "ticks": 121824,
          "time": 100.18406025,
          "velocity": 0.6692913385826772
        },
        {
          "duration": 0.0789472499999988,
          "durationTicks": 96,
          "midi": 65,
          "name": "F4",
          "ticks": 121920,
          "time": 100.2630075,
          "velocity": 0.6692913385826772
        },
        {
          "duration": 0.0789472499999988,
          "durationTicks": 96,
          "midi": 60,
          "name": "C4",
          "ticks": 122016,
          "time": 100.34195475,
          "velocity": 0.6692913385826772
        },
        {
          "duration": 0.0789472499999988,
          "durationTicks": 96,
          "midi": 72,
          "name": "C5",
          "ticks": 122112,
          "time": 100.420902,
          "velocity": 0.6692913385826772
        },
        {
          "duration": 0.0789472499999988,
          "durationTicks": 96,
          "midi": 67,
          "name": "G4",
          "ticks": 122208,
          "time": 100.49984925,
          "velocity": 0.6692913385826772
        },
        {
          "duration": 0.1578944999999976,
          "durationTicks": 192,
          "midi": 48,
          "name": "C3",
          "ticks": 122304,
          "time": 100.5787965,
          "velocity": 0.4251968503937008
        },
        {
          "duration": 0.0789472499999988,
          "durationTicks": 96,
          "midi": 64,
          "name": "E4",
          "ticks": 122304,
          "time": 100.5787965,
          "velocity": 0.6692913385826772
        },
        {
          "duration": 0.0789472499999988,
          "durationTicks": 96,
          "midi": 60,
          "name": "C4",
          "ticks": 122400,
          "time": 100.65774375,
          "velocity": 0.6692913385826772
        },
        {
          "duration": 0.0789472499999988,
          "durationTicks": 96,
          "midi": 72,
          "name": "C5",
          "ticks": 122496,
          "time": 100.736691,
          "velocity": 0.6692913385826772
        },
        {
          "duration": 0.0789472499999988,
          "durationTicks": 96,
          "midi": 67,
          "name": "G4",
          "ticks": 122592,
          "time": 100.81563824999999,
          "velocity": 0.6692913385826772
        },
        {
          "duration": 0.0789472499999988,
          "durationTicks": 96,
          "midi": 64,
          "name": "E4",
          "ticks": 122688,
          "time": 100.89458549999999,
          "velocity": 0.6692913385826772
        },
        {
          "duration": 0.07894725000001301,
          "durationTicks": 96,
          "midi": 60,
          "name": "C4",
          "ticks": 122784,
          "time": 100.97353274999999,
          "velocity": 0.6692913385826772
        },
        {
          "duration": 0.0789472499999988,
          "durationTicks": 96,
          "midi": 68,
          "name": "G#4",
          "ticks": 122880,
          "time": 101.05248,
          "velocity": 0.6692913385826772
        },
        {
          "duration": 0.0789472499999988,
          "durationTicks": 96,
          "midi": 65,
          "name": "F4",
          "ticks": 122976,
          "time": 101.13142725,
          "velocity": 0.6692913385826772
        },
        {
          "duration": 0.0789472499999988,
          "durationTicks": 96,
          "midi": 60,
          "name": "C4",
          "ticks": 123072,
          "time": 101.2103745,
          "velocity": 0.6692913385826772
        },
        {
          "duration": 0.0789472499999988,
          "durationTicks": 96,
          "midi": 65,
          "name": "F4",
          "ticks": 123168,
          "time": 101.28932175,
          "velocity": 0.6692913385826772
        },
        {
          "duration": 0.1578944999999976,
          "durationTicks": 192,
          "midi": 46,
          "name": "A#2",
          "ticks": 123264,
          "time": 101.368269,
          "velocity": 0.4251968503937008
        },
        {
          "duration": 0.1578944999999976,
          "durationTicks": 192,
          "midi": 68,
          "name": "G#4",
          "ticks": 123264,
          "time": 101.368269,
          "velocity": 0.6692913385826772
        },
        {
          "duration": 0.1578944999999976,
          "durationTicks": 192,
          "midi": 70,
          "name": "A#4",
          "ticks": 123456,
          "time": 101.5261635,
          "velocity": 0.6692913385826772
        },
        {
          "duration": 0.1578944999999976,
          "durationTicks": 192,
          "midi": 72,
          "name": "C5",
          "ticks": 123648,
          "time": 101.684058,
          "velocity": 0.6692913385826772
        },
        {
          "duration": 0.15789450000001182,
          "durationTicks": 192,
          "midi": 46,
          "name": "A#2",
          "ticks": 123840,
          "time": 101.84195249999999,
          "velocity": 0.4251968503937008
        },
        {
          "duration": 0.1578944999999976,
          "durationTicks": 192,
          "midi": 68,
          "name": "G#4",
          "ticks": 124032,
          "time": 101.999847,
          "velocity": 0.6692913385826772
        },
        {
          "duration": 0.0789472499999988,
          "durationTicks": 96,
          "midi": 70,
          "name": "A#4",
          "ticks": 124416,
          "time": 102.315636,
          "velocity": 0.6692913385826772
        },
        {
          "duration": 0.0789472499999988,
          "durationTicks": 96,
          "midi": 67,
          "name": "G4",
          "ticks": 124512,
          "time": 102.39458325,
          "velocity": 0.6692913385826772
        },
        {
          "duration": 0.0789472499999988,
          "durationTicks": 96,
          "midi": 65,
          "name": "F4",
          "ticks": 124608,
          "time": 102.4735305,
          "velocity": 0.6692913385826772
        },
        {
          "duration": 0.0789472499999988,
          "durationTicks": 96,
          "midi": 67,
          "name": "G4",
          "ticks": 124704,
          "time": 102.55247775,
          "velocity": 0.6692913385826772
        },
        {
          "duration": 0.1578944999999976,
          "durationTicks": 192,
          "midi": 70,
          "name": "A#4",
          "ticks": 124800,
          "time": 102.631425,
          "velocity": 0.6692913385826772
        },
        {
          "duration": 0.1578944999999976,
          "durationTicks": 192,
          "midi": 46,
          "name": "A#2",
          "ticks": 124800,
          "time": 102.631425,
          "velocity": 0.4251968503937008
        },
        {
          "duration": 0.15789450000001182,
          "durationTicks": 192,
          "midi": 72,
          "name": "C5",
          "ticks": 124992,
          "time": 102.78931949999999,
          "velocity": 0.6692913385826772
        },
        {
          "duration": 0.2368417499999964,
          "durationTicks": 288,
          "midi": 67,
          "name": "G4",
          "ticks": 125184,
          "time": 102.947214,
          "velocity": 0.6692913385826772
        },
        {
          "duration": 0.1578944999999976,
          "durationTicks": 192,
          "midi": 46,
          "name": "A#2",
          "ticks": 125376,
          "time": 103.1051085,
          "velocity": 0.4251968503937008
        },
        {
          "duration": 0.0789472499999988,
          "durationTicks": 96,
          "midi": 68,
          "name": "G#4",
          "ticks": 125472,
          "time": 103.18405575,
          "velocity": 0.6692913385826772
        },
        {
          "duration": 0.1578944999999976,
          "durationTicks": 192,
          "midi": 63,
          "name": "D#4",
          "ticks": 125568,
          "time": 103.263003,
          "velocity": 0.6692913385826772
        },
        {
          "duration": 0.1578944999999976,
          "durationTicks": 192,
          "midi": 67,
          "name": "G4",
          "ticks": 125760,
          "time": 103.4208975,
          "velocity": 0.6692913385826772
        },
        {
          "duration": 0.1578944999999976,
          "durationTicks": 192,
          "midi": 68,
          "name": "G#4",
          "ticks": 125952,
          "time": 103.57879199999999,
          "velocity": 0.6692913385826772
        },
        {
          "duration": 0.1578944999999976,
          "durationTicks": 192,
          "midi": 68,
          "name": "G#4",
          "ticks": 126336,
          "time": 103.894581,
          "velocity": 0.6692913385826772
        },
        {
          "duration": 0.1578944999999976,
          "durationTicks": 192,
          "midi": 48,
          "name": "C3",
          "ticks": 126336,
          "time": 103.894581,
          "velocity": 0.4251968503937008
        },
        {
          "duration": 0.1578944999999976,
          "durationTicks": 192,
          "midi": 70,
          "name": "A#4",
          "ticks": 126528,
          "time": 104.0524755,
          "velocity": 0.6692913385826772
        },
        {
          "duration": 0.1578944999999976,
          "durationTicks": 192,
          "midi": 72,
          "name": "C5",
          "ticks": 126720,
          "time": 104.21037,
          "velocity": 0.6692913385826772
        },
        {
          "duration": 0.1578944999999976,
          "durationTicks": 192,
          "midi": 68,
          "name": "G#4",
          "ticks": 126912,
          "time": 104.3682645,
          "velocity": 0.6692913385826772
        },
        {
          "duration": 0.1578944999999976,
          "durationTicks": 192,
          "midi": 48,
          "name": "C3",
          "ticks": 126912,
          "time": 104.3682645,
          "velocity": 0.4251968503937008
        },
        {
          "duration": 0.1578944999999976,
          "durationTicks": 192,
          "midi": 72,
          "name": "C5",
          "ticks": 127104,
          "time": 104.52615899999999,
          "velocity": 0.6692913385826772
        },
        {
          "duration": 0.15789450000001182,
          "durationTicks": 192,
          "midi": 80,
          "name": "G#5",
          "ticks": 127296,
          "time": 104.68405349999999,
          "velocity": 0.6692913385826772
        },
        {
          "duration": 0.0789472499999988,
          "durationTicks": 96,
          "midi": 79,
          "name": "G5",
          "ticks": 127488,
          "time": 104.841948,
          "velocity": 0.6692913385826772
        },
        {
          "duration": 0.1184208749999982,
          "durationTicks": 144,
          "midi": 67,
          "name": "G4",
          "ticks": 127584,
          "time": 104.92089525,
          "velocity": 0.6692913385826772
        },
        {
          "duration": 0.0789472499999988,
          "durationTicks": 96,
          "midi": 67,
          "name": "G4",
          "ticks": 127776,
          "time": 105.07878975,
          "velocity": 0.6692913385826772
        },
        {
          "duration": 0.1578944999999976,
          "durationTicks": 192,
          "midi": 75,
          "name": "D#5",
          "ticks": 127872,
          "time": 105.157737,
          "velocity": 0.6692913385826772
        },
        {
          "duration": 0.1578944999999976,
          "durationTicks": 192,
          "midi": 48,
          "name": "C3",
          "ticks": 127872,
          "time": 105.157737,
          "velocity": 0.4251968503937008
        },
        {
          "duration": 0.0789472499999988,
          "durationTicks": 96,
          "midi": 67,
          "name": "G4",
          "ticks": 128064,
          "time": 105.3156315,
          "velocity": 0.6692913385826772
        },
        {
          "duration": 0.0789472499999988,
          "durationTicks": 96,
          "midi": 70,
          "name": "A#4",
          "ticks": 128160,
          "time": 105.39457875,
          "velocity": 0.6692913385826772
        },
        {
          "duration": 0.1578944999999976,
          "durationTicks": 192,
          "midi": 72,
          "name": "C5",
          "ticks": 128256,
          "time": 105.47352599999999,
          "velocity": 0.6692913385826772
        },
        {
          "duration": 0.15789450000001182,
          "durationTicks": 192,
          "midi": 48,
          "name": "C3",
          "ticks": 128448,
          "time": 105.63142049999999,
          "velocity": 0.4251968503937008
        },
        {
          "duration": 0.0789472499999988,
          "durationTicks": 96,
          "midi": 70,
          "name": "A#4",
          "ticks": 128448,
          "time": 105.63142049999999,
          "velocity": 0.6692913385826772
        },
        {
          "duration": 0.07894725000001301,
          "durationTicks": 96,
          "midi": 72,
          "name": "C5",
          "ticks": 128544,
          "time": 105.71036774999999,
          "velocity": 0.6692913385826772
        },
        {
          "duration": 0.1578944999999976,
          "durationTicks": 192,
          "midi": 75,
          "name": "D#5",
          "ticks": 128640,
          "time": 105.789315,
          "velocity": 0.6692913385826772
        },
        {
          "duration": 0.0789472499999988,
          "durationTicks": 96,
          "midi": 72,
          "name": "C5",
          "ticks": 128832,
          "time": 105.9472095,
          "velocity": 0.6692913385826772
        },
        {
          "duration": 0.0789472499999988,
          "durationTicks": 96,
          "midi": 75,
          "name": "D#5",
          "ticks": 128928,
          "time": 106.02615675,
          "velocity": 0.6692913385826772
        },
        {
          "duration": 0.3157889999999952,
          "durationTicks": 384,
          "midi": 77,
          "name": "F5",
          "ticks": 129024,
          "time": 106.105104,
          "velocity": 0.6692913385826772
        },
        {
          "duration": 0.1578944999999976,
          "durationTicks": 192,
          "midi": 49,
          "name": "C#3",
          "ticks": 129408,
          "time": 106.42089299999999,
          "velocity": 0.4251968503937008
        },
        {
          "duration": 0.1578944999999976,
          "durationTicks": 192,
          "midi": 72,
          "name": "C5",
          "ticks": 129408,
          "time": 106.42089299999999,
          "velocity": 0.6692913385826772
        },
        {
          "duration": 0.15789450000001182,
          "durationTicks": 192,
          "midi": 75,
          "name": "D#5",
          "ticks": 129600,
          "time": 106.57878749999999,
          "velocity": 0.6692913385826772
        },
        {
          "duration": 0.1578944999999976,
          "durationTicks": 192,
          "midi": 77,
          "name": "F5",
          "ticks": 129792,
          "time": 106.736682,
          "velocity": 0.6692913385826772
        },
        {
          "duration": 0.1578944999999976,
          "durationTicks": 192,
          "midi": 49,
          "name": "C#3",
          "ticks": 129984,
          "time": 106.8945765,
          "velocity": 0.4251968503937008
        },
        {
          "duration": 0.1578944999999976,
          "durationTicks": 192,
          "midi": 72,
          "name": "C5",
          "ticks": 130176,
          "time": 107.052471,
          "velocity": 0.6692913385826772
        },
        {
          "duration": 0.2368417499999964,
          "durationTicks": 288,
          "midi": 70,
          "name": "A#4",
          "ticks": 130560,
          "time": 107.36825999999999,
          "velocity": 0.6692913385826772
        },
        {
          "duration": 0.1578944999999976,
          "durationTicks": 192,
          "midi": 70,
          "name": "A#4",
          "ticks": 130944,
          "time": 107.684049,
          "velocity": 0.6692913385826772
        },
        {
          "duration": 0.1578944999999976,
          "durationTicks": 192,
          "midi": 49,
          "name": "C#3",
          "ticks": 130944,
          "time": 107.684049,
          "velocity": 0.4251968503937008
        },
        {
          "duration": 0.1578944999999976,
          "durationTicks": 192,
          "midi": 72,
          "name": "C5",
          "ticks": 131136,
          "time": 107.8419435,
          "velocity": 0.6692913385826772
        },
        {
          "duration": 0.2368417499999964,
          "durationTicks": 288,
          "midi": 70,
          "name": "A#4",
          "ticks": 131328,
          "time": 107.999838,
          "velocity": 0.6692913385826772
        },
        {
          "duration": 0.1578944999999976,
          "durationTicks": 192,
          "midi": 49,
          "name": "C#3",
          "ticks": 131520,
          "time": 108.1577325,
          "velocity": 0.4251968503937008
        },
        {
          "duration": 0.2368417499999964,
          "durationTicks": 288,
          "midi": 68,
          "name": "G#4",
          "ticks": 131712,
          "time": 108.31562699999999,
          "velocity": 0.6692913385826772
        },
        {
          "duration": 0.1578944999999976,
          "durationTicks": 192,
          "midi": 70,
          "name": "A#4",
          "ticks": 132096,
          "time": 108.631416,
          "velocity": 0.6692913385826772
        },
        {
          "duration": 0.1578944999999976,
          "durationTicks": 192,
          "midi": 68,
          "name": "G#4",
          "ticks": 132288,
          "time": 108.7893105,
          "velocity": 0.6692913385826772
        },
        {
          "duration": 0.1578944999999976,
          "durationTicks": 192,
          "midi": 49,
          "name": "C#3",
          "ticks": 132480,
          "time": 108.947205,
          "velocity": 0.4251968503937008
        },
        {
          "duration": 0.1578944999999976,
          "durationTicks": 192,
          "midi": 70,
          "name": "A#4",
          "ticks": 132480,
          "time": 108.947205,
          "velocity": 0.6692913385826772
        },
        {
          "duration": 0.1578944999999976,
          "durationTicks": 192,
          "midi": 72,
          "name": "C5",
          "ticks": 132672,
          "time": 109.1050995,
          "velocity": 0.6692913385826772
        },
        {
          "duration": 0.1578944999999976,
          "durationTicks": 192,
          "midi": 75,
          "name": "D#5",
          "ticks": 132864,
          "time": 109.26299399999999,
          "velocity": 0.6692913385826772
        },
        {
          "duration": 0.15789450000001182,
          "durationTicks": 192,
          "midi": 72,
          "name": "C5",
          "ticks": 133056,
          "time": 109.42088849999999,
          "velocity": 0.6692913385826772
        },
        {
          "duration": 0.15789450000001182,
          "durationTicks": 192,
          "midi": 49,
          "name": "C#3",
          "ticks": 133056,
          "time": 109.42088849999999,
          "velocity": 0.4251968503937008
        },
        {
          "duration": 0.1578944999999976,
          "durationTicks": 192,
          "midi": 68,
          "name": "G#4",
          "ticks": 133248,
          "time": 109.578783,
          "velocity": 0.6692913385826772
        },
        {
          "duration": 0.1578944999999976,
          "durationTicks": 192,
          "midi": 65,
          "name": "F4",
          "ticks": 133440,
          "time": 109.7366775,
          "velocity": 0.6692913385826772
        },
        {
          "duration": 0.0789472499999988,
          "durationTicks": 96,
          "midi": 70,
          "name": "A#4",
          "ticks": 133632,
          "time": 109.894572,
          "velocity": 0.6692913385826772
        },
        {
          "duration": 0.0789472499999988,
          "durationTicks": 96,
          "midi": 68,
          "name": "G#4",
          "ticks": 133728,
          "time": 109.97351925,
          "velocity": 0.6692913385826772
        },
        {
          "duration": 0.0789472499999988,
          "durationTicks": 96,
          "midi": 65,
          "name": "F4",
          "ticks": 133824,
          "time": 110.0524665,
          "velocity": 0.6692913385826772
        },
        {
          "duration": 0.0789472499999988,
          "durationTicks": 96,
          "midi": 60,
          "name": "C4",
          "ticks": 133920,
          "time": 110.13141375,
          "velocity": 0.6692913385826772
        },
        {
          "duration": 0.0789472499999988,
          "durationTicks": 96,
          "midi": 70,
          "name": "A#4",
          "ticks": 134016,
          "time": 110.21036099999999,
          "velocity": 0.6692913385826772
        },
        {
          "duration": 0.1578944999999976,
          "durationTicks": 192,
          "midi": 48,
          "name": "C3",
          "ticks": 134016,
          "time": 110.21036099999999,
          "velocity": 0.4251968503937008
        },
        {
          "duration": 0.0789472499999988,
          "durationTicks": 96,
          "midi": 68,
          "name": "G#4",
          "ticks": 134112,
          "time": 110.28930824999999,
          "velocity": 0.6692913385826772
        },
        {
          "duration": 0.0789472499999988,
          "durationTicks": 96,
          "midi": 65,
          "name": "F4",
          "ticks": 134208,
          "time": 110.36825549999999,
          "velocity": 0.6692913385826772
        },
        {
          "duration": 0.07894725000001301,
          "durationTicks": 96,
          "midi": 60,
          "name": "C4",
          "ticks": 134304,
          "time": 110.44720274999999,
          "velocity": 0.6692913385826772
        },
        {
          "duration": 0.0789472499999988,
          "durationTicks": 96,
          "midi": 72,
          "name": "C5",
          "ticks": 134400,
          "time": 110.52615,
          "velocity": 0.6692913385826772
        },
        {
          "duration": 0.0789472499999988,
          "durationTicks": 96,
          "midi": 67,
          "name": "G4",
          "ticks": 134496,
          "time": 110.60509725,
          "velocity": 0.6692913385826772
        },
        {
          "duration": 0.0789472499999988,
          "durationTicks": 96,
          "midi": 64,
          "name": "E4",
          "ticks": 134592,
          "time": 110.6840445,
          "velocity": 0.6692913385826772
        },
        {
          "duration": 0.1578944999999976,
          "durationTicks": 192,
          "midi": 48,
          "name": "C3",
          "ticks": 134592,
          "time": 110.6840445,
          "velocity": 0.4251968503937008
        },
        {
          "duration": 0.0789472499999988,
          "durationTicks": 96,
          "midi": 60,
          "name": "C4",
          "ticks": 134688,
          "time": 110.76299175,
          "velocity": 0.6692913385826772
        },
        {
          "duration": 0.0789472499999988,
          "durationTicks": 96,
          "midi": 72,
          "name": "C5",
          "ticks": 134784,
          "time": 110.841939,
          "velocity": 0.6692913385826772
        },
        {
          "duration": 0.0789472499999988,
          "durationTicks": 96,
          "midi": 67,
          "name": "G4",
          "ticks": 134880,
          "time": 110.92088625,
          "velocity": 0.6692913385826772
        },
        {
          "duration": 0.0789472499999988,
          "durationTicks": 96,
          "midi": 64,
          "name": "E4",
          "ticks": 134976,
          "time": 110.9998335,
          "velocity": 0.6692913385826772
        },
        {
          "duration": 0.0394736249999994,
          "durationTicks": 48,
          "midi": 60,
          "name": "C4",
          "ticks": 135072,
          "time": 111.07878074999999,
          "velocity": 0.6692913385826772
        }
      ],
      "endOfTrackTicks": 135120
    },
    {
      "channel": 7,
      "controlChanges": {},
      "pitchBends": [],
      "instrument": {
        "family": "synth lead",
        "number": 87,
        "name": "lead 8 (bass + lead)"
      },
      "name": "8-Bit Triangle",
      "notes": [
        {
          "duration": 0.23684174999999996,
          "durationTicks": 288,
          "midi": 68,
          "name": "G#4",
          "ticks": 24576,
          "time": 20.210496,
          "velocity": 0.5826771653543307
        },
        {
          "duration": 0.23684174999999996,
          "durationTicks": 288,
          "midi": 56,
          "name": "G#3",
          "ticks": 24576,
          "time": 20.210496,
          "velocity": 0.5826771653543307
        },
        {
          "duration": 0.11842087500000176,
          "durationTicks": 144,
          "midi": 68,
          "name": "G#4",
          "ticks": 24960,
          "time": 20.526284999999998,
          "velocity": 0.5826771653543307
        },
        {
          "duration": 0.11842087500000176,
          "durationTicks": 144,
          "midi": 56,
          "name": "G#3",
          "ticks": 24960,
          "time": 20.526284999999998,
          "velocity": 0.5826771653543307
        },
        {
          "duration": 0.11842087500000176,
          "durationTicks": 144,
          "midi": 70,
          "name": "A#4",
          "ticks": 25152,
          "time": 20.6841795,
          "velocity": 0.5826771653543307
        },
        {
          "duration": 0.11842087500000176,
          "durationTicks": 144,
          "midi": 58,
          "name": "A#3",
          "ticks": 25152,
          "time": 20.6841795,
          "velocity": 0.5826771653543307
        },
        {
          "duration": 0.23684174999999996,
          "durationTicks": 288,
          "midi": 60,
          "name": "C4",
          "ticks": 25344,
          "time": 20.842074,
          "velocity": 0.5826771653543307
        },
        {
          "duration": 0.23684174999999996,
          "durationTicks": 288,
          "midi": 72,
          "name": "C5",
          "ticks": 25344,
          "time": 20.842074,
          "velocity": 0.5826771653543307
        },
        {
          "duration": 0.23684174999999996,
          "durationTicks": 288,
          "midi": 68,
          "name": "G#4",
          "ticks": 25728,
          "time": 21.157863,
          "velocity": 0.5826771653543307
        },
        {
          "duration": 0.23684174999999996,
          "durationTicks": 288,
          "midi": 56,
          "name": "G#3",
          "ticks": 25728,
          "time": 21.157863,
          "velocity": 0.5826771653543307
        },
        {
          "duration": 0.23684174999999996,
          "durationTicks": 288,
          "midi": 70,
          "name": "A#4",
          "ticks": 26112,
          "time": 21.473651999999998,
          "velocity": 0.5826771653543307
        },
        {
          "duration": 0.23684174999999996,
          "durationTicks": 288,
          "midi": 58,
          "name": "A#3",
          "ticks": 26112,
          "time": 21.473651999999998,
          "velocity": 0.5826771653543307
        },
        {
          "duration": 0.1184208749999982,
          "durationTicks": 144,
          "midi": 58,
          "name": "A#3",
          "ticks": 26496,
          "time": 21.789441,
          "velocity": 0.5826771653543307
        },
        {
          "duration": 0.1184208749999982,
          "durationTicks": 144,
          "midi": 70,
          "name": "A#4",
          "ticks": 26496,
          "time": 21.789441,
          "velocity": 0.5826771653543307
        },
        {
          "duration": 0.11842087500000176,
          "durationTicks": 144,
          "midi": 72,
          "name": "C5",
          "ticks": 26688,
          "time": 21.947335499999998,
          "velocity": 0.5826771653543307
        },
        {
          "duration": 0.11842087500000176,
          "durationTicks": 144,
          "midi": 60,
          "name": "C4",
          "ticks": 26688,
          "time": 21.947335499999998,
          "velocity": 0.5826771653543307
        },
        {
          "duration": 0.23684174999999996,
          "durationTicks": 288,
          "midi": 55,
          "name": "G3",
          "ticks": 26880,
          "time": 22.10523,
          "velocity": 0.5826771653543307
        },
        {
          "duration": 0.23684174999999996,
          "durationTicks": 288,
          "midi": 67,
          "name": "G4",
          "ticks": 26880,
          "time": 22.10523,
          "velocity": 0.5826771653543307
        },
        {
          "duration": 0.23684174999999996,
          "durationTicks": 288,
          "midi": 63,
          "name": "D#4",
          "ticks": 27264,
          "time": 22.421018999999998,
          "velocity": 0.5826771653543307
        },
        {
          "duration": 0.23684174999999996,
          "durationTicks": 288,
          "midi": 51,
          "name": "D#3",
          "ticks": 27264,
          "time": 22.421018999999998,
          "velocity": 0.5826771653543307
        },
        {
          "duration": 0.23684174999999996,
          "durationTicks": 288,
          "midi": 56,
          "name": "G#3",
          "ticks": 27648,
          "time": 22.736808,
          "velocity": 0.5826771653543307
        },
        {
          "duration": 0.23684174999999996,
          "durationTicks": 288,
          "midi": 68,
          "name": "G#4",
          "ticks": 27648,
          "time": 22.736808,
          "velocity": 0.5826771653543307
        },
        {
          "duration": 0.11842087500000176,
          "durationTicks": 144,
          "midi": 56,
          "name": "G#3",
          "ticks": 28032,
          "time": 23.052597,
          "velocity": 0.5826771653543307
        },
        {
          "duration": 0.11842087500000176,
          "durationTicks": 144,
          "midi": 68,
          "name": "G#4",
          "ticks": 28032,
          "time": 23.052597,
          "velocity": 0.5826771653543307
        },
        {
          "duration": 0.1184208749999982,
          "durationTicks": 144,
          "midi": 70,
          "name": "A#4",
          "ticks": 28224,
          "time": 23.2104915,
          "velocity": 0.5826771653543307
        },
        {
          "duration": 0.1184208749999982,
          "durationTicks": 144,
          "midi": 58,
          "name": "A#3",
          "ticks": 28224,
          "time": 23.2104915,
          "velocity": 0.5826771653543307
        },
        {
          "duration": 0.23684174999999996,
          "durationTicks": 288,
          "midi": 72,
          "name": "C5",
          "ticks": 28416,
          "time": 23.368385999999997,
          "velocity": 0.5826771653543307
        },
        {
          "duration": 0.23684174999999996,
          "durationTicks": 288,
          "midi": 60,
          "name": "C4",
          "ticks": 28416,
          "time": 23.368385999999997,
          "velocity": 0.5826771653543307
        },
        {
          "duration": 0.23684174999999996,
          "durationTicks": 288,
          "midi": 80,
          "name": "G#5",
          "ticks": 28800,
          "time": 23.684175,
          "velocity": 0.5826771653543307
        },
        {
          "duration": 0.23684174999999996,
          "durationTicks": 288,
          "midi": 68,
          "name": "G#4",
          "ticks": 28800,
          "time": 23.684175,
          "velocity": 0.5826771653543307
        },
        {
          "duration": 0.31578899999999877,
          "durationTicks": 384,
          "midi": 67,
          "name": "G4",
          "ticks": 29184,
          "time": 23.999964,
          "velocity": 0.5826771653543307
        },
        {
          "duration": 0.31578899999999877,
          "durationTicks": 384,
          "midi": 79,
          "name": "G5",
          "ticks": 29184,
          "time": 23.999964,
          "velocity": 0.5826771653543307
        },
        {
          "duration": 0.3157890000000023,
          "durationTicks": 384,
          "midi": 63,
          "name": "D#4",
          "ticks": 29568,
          "time": 24.315752999999997,
          "velocity": 0.5826771653543307
        },
        {
          "duration": 0.3157890000000023,
          "durationTicks": 384,
          "midi": 75,
          "name": "D#5",
          "ticks": 29568,
          "time": 24.315752999999997,
          "velocity": 0.5826771653543307
        },
        {
          "duration": 0.31578899999999877,
          "durationTicks": 384,
          "midi": 70,
          "name": "A#4",
          "ticks": 29952,
          "time": 24.631542,
          "velocity": 0.5826771653543307
        },
        {
          "duration": 0.31578899999999877,
          "durationTicks": 384,
          "midi": 58,
          "name": "A#3",
          "ticks": 29952,
          "time": 24.631542,
          "velocity": 0.5826771653543307
        },
        {
          "duration": 0.3157890000000023,
          "durationTicks": 384,
          "midi": 55,
          "name": "G3",
          "ticks": 30336,
          "time": 24.947331,
          "velocity": 0.5826771653543307
        },
        {
          "duration": 0.3157890000000023,
          "durationTicks": 384,
          "midi": 67,
          "name": "G4",
          "ticks": 30336,
          "time": 24.947331,
          "velocity": 0.5826771653543307
        },
        {
          "duration": 0.23684174999999996,
          "durationTicks": 288,
          "midi": 68,
          "name": "G#4",
          "ticks": 30720,
          "time": 25.26312,
          "velocity": 0.5826771653543307
        },
        {
          "duration": 0.23684174999999996,
          "durationTicks": 288,
          "midi": 56,
          "name": "G#3",
          "ticks": 30720,
          "time": 25.26312,
          "velocity": 0.5826771653543307
        },
        {
          "duration": 0.1184208749999982,
          "durationTicks": 144,
          "midi": 56,
          "name": "G#3",
          "ticks": 31104,
          "time": 25.578909,
          "velocity": 0.5826771653543307
        },
        {
          "duration": 0.1184208749999982,
          "durationTicks": 144,
          "midi": 68,
          "name": "G#4",
          "ticks": 31104,
          "time": 25.578909,
          "velocity": 0.5826771653543307
        },
        {
          "duration": 0.1184208749999982,
          "durationTicks": 144,
          "midi": 58,
          "name": "A#3",
          "ticks": 31296,
          "time": 25.7368035,
          "velocity": 0.5826771653543307
        },
        {
          "duration": 0.1184208749999982,
          "durationTicks": 144,
          "midi": 70,
          "name": "A#4",
          "ticks": 31296,
          "time": 25.7368035,
          "velocity": 0.5826771653543307
        },
        {
          "duration": 0.23684174999999996,
          "durationTicks": 288,
          "midi": 72,
          "name": "C5",
          "ticks": 31488,
          "time": 25.894697999999998,
          "velocity": 0.5826771653543307
        },
        {
          "duration": 0.23684174999999996,
          "durationTicks": 288,
          "midi": 60,
          "name": "C4",
          "ticks": 31488,
          "time": 25.894697999999998,
          "velocity": 0.5826771653543307
        },
        {
          "duration": 0.23684174999999996,
          "durationTicks": 288,
          "midi": 68,
          "name": "G#4",
          "ticks": 31872,
          "time": 26.210487,
          "velocity": 0.5826771653543307
        },
        {
          "duration": 0.23684174999999996,
          "durationTicks": 288,
          "midi": 56,
          "name": "G#3",
          "ticks": 31872,
          "time": 26.210487,
          "velocity": 0.5826771653543307
        },
        {
          "duration": 0.23684174999999996,
          "durationTicks": 288,
          "midi": 58,
          "name": "A#3",
          "ticks": 32256,
          "time": 26.526276,
          "velocity": 0.5826771653543307
        },
        {
          "duration": 0.23684174999999996,
          "durationTicks": 288,
          "midi": 70,
          "name": "A#4",
          "ticks": 32256,
          "time": 26.526276,
          "velocity": 0.5826771653543307
        },
        {
          "duration": 0.11842087500000176,
          "durationTicks": 144,
          "midi": 58,
          "name": "A#3",
          "ticks": 32640,
          "time": 26.842064999999998,
          "velocity": 0.5826771653543307
        },
        {
          "duration": 0.11842087500000176,
          "durationTicks": 144,
          "midi": 70,
          "name": "A#4",
          "ticks": 32640,
          "time": 26.842064999999998,
          "velocity": 0.5826771653543307
        },
        {
          "duration": 0.1184208749999982,
          "durationTicks": 144,
          "midi": 60,
          "name": "C4",
          "ticks": 32832,
          "time": 26.9999595,
          "velocity": 0.5826771653543307
        },
        {
          "duration": 0.1184208749999982,
          "durationTicks": 144,
          "midi": 72,
          "name": "C5",
          "ticks": 32832,
          "time": 26.9999595,
          "velocity": 0.5826771653543307
        },
        {
          "duration": 0.23684174999999996,
          "durationTicks": 288,
          "midi": 55,
          "name": "G3",
          "ticks": 33024,
          "time": 27.157854,
          "velocity": 0.5826771653543307
        },
        {
          "duration": 0.23684174999999996,
          "durationTicks": 288,
          "midi": 67,
          "name": "G4",
          "ticks": 33024,
          "time": 27.157854,
          "velocity": 0.5826771653543307
        },
        {
          "duration": 0.23684174999999996,
          "durationTicks": 288,
          "midi": 63,
          "name": "D#4",
          "ticks": 33408,
          "time": 27.473643,
          "velocity": 0.5826771653543307
        },
        {
          "duration": 0.23684174999999996,
          "durationTicks": 288,
          "midi": 51,
          "name": "D#3",
          "ticks": 33408,
          "time": 27.473643,
          "velocity": 0.5826771653543307
        },
        {
          "duration": 0.23684174999999996,
          "durationTicks": 288,
          "midi": 57,
          "name": "A3",
          "ticks": 33792,
          "time": 27.789431999999998,
          "velocity": 0.5826771653543307
        },
        {
          "duration": 0.23684174999999996,
          "durationTicks": 288,
          "midi": 69,
          "name": "A4",
          "ticks": 33792,
          "time": 27.789431999999998,
          "velocity": 0.5826771653543307
        },
        {
          "duration": 0.1184208749999982,
          "durationTicks": 144,
          "midi": 69,
          "name": "A4",
          "ticks": 34176,
          "time": 28.105221,
          "velocity": 0.5826771653543307
        },
        {
          "duration": 0.1184208749999982,
          "durationTicks": 144,
          "midi": 57,
          "name": "A3",
          "ticks": 34176,
          "time": 28.105221,
          "velocity": 0.5826771653543307
        },
        {
          "duration": 0.11842087500000176,
          "durationTicks": 144,
          "midi": 58,
          "name": "A#3",
          "ticks": 34368,
          "time": 28.263115499999998,
          "velocity": 0.5826771653543307
        },
        {
          "duration": 0.11842087500000176,
          "durationTicks": 144,
          "midi": 70,
          "name": "A#4",
          "ticks": 34368,
          "time": 28.263115499999998,
          "velocity": 0.5826771653543307
        },
        {
          "duration": 0.23684174999999996,
          "durationTicks": 288,
          "midi": 60,
          "name": "C4",
          "ticks": 34560,
          "time": 28.42101,
          "velocity": 0.5826771653543307
        },
        {
          "duration": 0.23684174999999996,
          "durationTicks": 288,
          "midi": 72,
          "name": "C5",
          "ticks": 34560,
          "time": 28.42101,
          "velocity": 0.5826771653543307
        },
        {
          "duration": 0.23684174999999996,
          "durationTicks": 288,
          "midi": 65,
          "name": "F4",
          "ticks": 34944,
          "time": 28.736798999999998,
          "velocity": 0.5826771653543307
        },
        {
          "duration": 0.23684174999999996,
          "durationTicks": 288,
          "midi": 77,
          "name": "F5",
          "ticks": 34944,
          "time": 28.736798999999998,
          "velocity": 0.5826771653543307
        },
        {
          "duration": 0.31578899999999877,
          "durationTicks": 384,
          "midi": 64,
          "name": "E4",
          "ticks": 35328,
          "time": 29.052588,
          "velocity": 0.5826771653543307
        },
        {
          "duration": 0.31578899999999877,
          "durationTicks": 384,
          "midi": 76,
          "name": "E5",
          "ticks": 35328,
          "time": 29.052588,
          "velocity": 0.5826771653543307
        },
        {
          "duration": 0.31578899999999877,
          "durationTicks": 384,
          "midi": 79,
          "name": "G5",
          "ticks": 35712,
          "time": 29.368377,
          "velocity": 0.5826771653543307
        },
        {
          "duration": 0.31578899999999877,
          "durationTicks": 384,
          "midi": 67,
          "name": "G4",
          "ticks": 35712,
          "time": 29.368377,
          "velocity": 0.5826771653543307
        },
        {
          "duration": 0.4736834999999999,
          "durationTicks": 576,
          "midi": 77,
          "name": "F5",
          "ticks": 36096,
          "time": 29.684165999999998,
          "velocity": 0.5826771653543307
        },
        {
          "duration": 0.4736834999999999,
          "durationTicks": 576,
          "midi": 65,
          "name": "F4",
          "ticks": 36096,
          "time": 29.684165999999998,
          "velocity": 0.5826771653543307
        },
        {
          "duration": 0.23684174999999996,
          "durationTicks": 288,
          "midi": 65,
          "name": "F4",
          "ticks": 36864,
          "time": 30.315744,
          "velocity": 0.5826771653543307
        },
        {
          "duration": 0.23684174999999996,
          "durationTicks": 288,
          "midi": 56,
          "name": "G#3",
          "ticks": 36864,
          "time": 30.315744,
          "velocity": 0.5826771653543307
        },
        {
          "duration": 0.23684174999999996,
          "durationTicks": 288,
          "midi": 53,
          "name": "F3",
          "ticks": 36864,
          "time": 30.315744,
          "velocity": 0.5826771653543307
        },
        {
          "duration": 0.23684174999999996,
          "durationTicks": 288,
          "midi": 68,
          "name": "G#4",
          "ticks": 36864,
          "time": 30.315744,
          "velocity": 0.5826771653543307
        },
        {
          "duration": 0.11842087500000176,
          "durationTicks": 144,
          "midi": 53,
          "name": "F3",
          "ticks": 37248,
          "time": 30.631532999999997,
          "velocity": 0.5826771653543307
        },
        {
          "duration": 0.11842087500000176,
          "durationTicks": 144,
          "midi": 65,
          "name": "F4",
          "ticks": 37248,
          "time": 30.631532999999997,
          "velocity": 0.5826771653543307
        },
        {
          "duration": 0.11842087500000176,
          "durationTicks": 144,
          "midi": 68,
          "name": "G#4",
          "ticks": 37248,
          "time": 30.631532999999997,
          "velocity": 0.5826771653543307
        },
        {
          "duration": 0.11842087500000176,
          "durationTicks": 144,
          "midi": 56,
          "name": "G#3",
          "ticks": 37248,
          "time": 30.631532999999997,
          "velocity": 0.5826771653543307
        },
        {
          "duration": 0.11842087500000176,
          "durationTicks": 144,
          "midi": 70,
          "name": "A#4",
          "ticks": 37440,
          "time": 30.7894275,
          "velocity": 0.5826771653543307
        },
        {
          "duration": 0.11842087500000176,
          "durationTicks": 144,
          "midi": 58,
          "name": "A#3",
          "ticks": 37440,
          "time": 30.7894275,
          "velocity": 0.5826771653543307
        },
        {
          "duration": 0.11842087500000176,
          "durationTicks": 144,
          "midi": 55,
          "name": "G3",
          "ticks": 37440,
          "time": 30.7894275,
          "velocity": 0.5826771653543307
        },
        {
          "duration": 0.11842087500000176,
          "durationTicks": 144,
          "midi": 67,
          "name": "G4",
          "ticks": 37440,
          "time": 30.7894275,
          "velocity": 0.5826771653543307
        },
        {
          "duration": 0.23684174999999996,
          "durationTicks": 288,
          "midi": 56,
          "name": "G#3",
          "ticks": 37632,
          "time": 30.947322,
          "velocity": 0.5826771653543307
        },
        {
          "duration": 0.23684174999999996,
          "durationTicks": 288,
          "midi": 60,
          "name": "C4",
          "ticks": 37632,
          "time": 30.947322,
          "velocity": 0.5826771653543307
        },
        {
          "duration": 0.23684174999999996,
          "durationTicks": 288,
          "midi": 68,
          "name": "G#4",
          "ticks": 37632,
          "time": 30.947322,
          "velocity": 0.5826771653543307
        },
        {
          "duration": 0.23684174999999996,
          "durationTicks": 288,
          "midi": 72,
          "name": "C5",
          "ticks": 37632,
          "time": 30.947322,
          "velocity": 0.5826771653543307
        },
        {
          "duration": 0.23684174999999996,
          "durationTicks": 288,
          "midi": 68,
          "name": "G#4",
          "ticks": 38016,
          "time": 31.263111,
          "velocity": 0.5826771653543307
        },
        {
          "duration": 0.23684174999999996,
          "durationTicks": 288,
          "midi": 56,
          "name": "G#3",
          "ticks": 38016,
          "time": 31.263111,
          "velocity": 0.5826771653543307
        },
        {
          "duration": 0.23684174999999996,
          "durationTicks": 288,
          "midi": 65,
          "name": "F4",
          "ticks": 38016,
          "time": 31.263111,
          "velocity": 0.5826771653543307
        },
        {
          "duration": 0.23684174999999996,
          "durationTicks": 288,
          "midi": 53,
          "name": "F3",
          "ticks": 38016,
          "time": 31.263111,
          "velocity": 0.5826771653543307
        },
        {
          "duration": 0.23684174999999996,
          "durationTicks": 288,
          "midi": 67,
          "name": "G4",
          "ticks": 38400,
          "time": 31.578899999999997,
          "velocity": 0.5826771653543307
        },
        {
          "duration": 0.23684174999999996,
          "durationTicks": 288,
          "midi": 55,
          "name": "G3",
          "ticks": 38400,
          "time": 31.578899999999997,
          "velocity": 0.5826771653543307
        },
        {
          "duration": 0.23684174999999996,
          "durationTicks": 288,
          "midi": 70,
          "name": "A#4",
          "ticks": 38400,
          "time": 31.578899999999997,
          "velocity": 0.5826771653543307
        },
        {
          "duration": 0.23684174999999996,
          "durationTicks": 288,
          "midi": 58,
          "name": "A#3",
          "ticks": 38400,
          "time": 31.578899999999997,
          "velocity": 0.5826771653543307
        },
        {
          "duration": 0.1184208749999982,
          "durationTicks": 144,
          "midi": 70,
          "name": "A#4",
          "ticks": 38784,
          "time": 31.894689,
          "velocity": 0.5826771653543307
        },
        {
          "duration": 0.1184208749999982,
          "durationTicks": 144,
          "midi": 58,
          "name": "A#3",
          "ticks": 38784,
          "time": 31.894689,
          "velocity": 0.5826771653543307
        },
        {
          "duration": 0.1184208749999982,
          "durationTicks": 144,
          "midi": 55,
          "name": "G3",
          "ticks": 38784,
          "time": 31.894689,
          "velocity": 0.5826771653543307
        },
        {
          "duration": 0.1184208749999982,
          "durationTicks": 144,
          "midi": 67,
          "name": "G4",
          "ticks": 38784,
          "time": 31.894689,
          "velocity": 0.5826771653543307
        },
        {
          "duration": 0.1184208749999982,
          "durationTicks": 144,
          "midi": 68,
          "name": "G#4",
          "ticks": 38976,
          "time": 32.0525835,
          "velocity": 0.5826771653543307
        },
        {
          "duration": 0.1184208749999982,
          "durationTicks": 144,
          "midi": 60,
          "name": "C4",
          "ticks": 38976,
          "time": 32.0525835,
          "velocity": 0.5826771653543307
        },
        {
          "duration": 0.1184208749999982,
          "durationTicks": 144,
          "midi": 56,
          "name": "G#3",
          "ticks": 38976,
          "time": 32.0525835,
          "velocity": 0.5826771653543307
        },
        {
          "duration": 0.1184208749999982,
          "durationTicks": 144,
          "midi": 72,
          "name": "C5",
          "ticks": 38976,
          "time": 32.0525835,
          "velocity": 0.5826771653543307
        },
        {
          "duration": 0.2368417499999964,
          "durationTicks": 288,
          "midi": 51,
          "name": "D#3",
          "ticks": 39168,
          "time": 32.210478,
          "velocity": 0.5826771653543307
        },
        {
          "duration": 0.2368417499999964,
          "durationTicks": 288,
          "midi": 63,
          "name": "D#4",
          "ticks": 39168,
          "time": 32.210478,
          "velocity": 0.5826771653543307
        },
        {
          "duration": 0.2368417499999964,
          "durationTicks": 288,
          "midi": 55,
          "name": "G3",
          "ticks": 39168,
          "time": 32.210478,
          "velocity": 0.5826771653543307
        },
        {
          "duration": 0.2368417499999964,
          "durationTicks": 288,
          "midi": 67,
          "name": "G4",
          "ticks": 39168,
          "time": 32.210478,
          "velocity": 0.5826771653543307
        },
        {
          "duration": 0.23684175000000351,
          "durationTicks": 288,
          "midi": 60,
          "name": "C4",
          "ticks": 39552,
          "time": 32.526267,
          "velocity": 0.5826771653543307
        },
        {
          "duration": 0.23684175000000351,
          "durationTicks": 288,
          "midi": 51,
          "name": "D#3",
          "ticks": 39552,
          "time": 32.526267,
          "velocity": 0.5826771653543307
        },
        {
          "duration": 0.23684175000000351,
          "durationTicks": 288,
          "midi": 48,
          "name": "C3",
          "ticks": 39552,
          "time": 32.526267,
          "velocity": 0.5826771653543307
        },
        {
          "duration": 0.23684175000000351,
          "durationTicks": 288,
          "midi": 63,
          "name": "D#4",
          "ticks": 39552,
          "time": 32.526267,
          "velocity": 0.5826771653543307
        },
        {
          "duration": 0.2368417499999964,
          "durationTicks": 288,
          "midi": 56,
          "name": "G#3",
          "ticks": 39936,
          "time": 32.842056,
          "velocity": 0.5826771653543307
        },
        {
          "duration": 0.2368417499999964,
          "durationTicks": 288,
          "midi": 68,
          "name": "G#4",
          "ticks": 39936,
          "time": 32.842056,
          "velocity": 0.5826771653543307
        },
        {
          "duration": 0.2368417499999964,
          "durationTicks": 288,
          "midi": 51,
          "name": "D#3",
          "ticks": 39936,
          "time": 32.842056,
          "velocity": 0.5826771653543307
        },
        {
          "duration": 0.2368417499999964,
          "durationTicks": 288,
          "midi": 63,
          "name": "D#4",
          "ticks": 39936,
          "time": 32.842056,
          "velocity": 0.5826771653543307
        },
        {
          "duration": 0.1184208749999982,
          "durationTicks": 144,
          "midi": 51,
          "name": "D#3",
          "ticks": 40320,
          "time": 33.157845,
          "velocity": 0.5826771653543307
        },
        {
          "duration": 0.1184208749999982,
          "durationTicks": 144,
          "midi": 63,
          "name": "D#4",
          "ticks": 40320,
          "time": 33.157845,
          "velocity": 0.5826771653543307
        },
        {
          "duration": 0.1184208749999982,
          "durationTicks": 144,
          "midi": 56,
          "name": "G#3",
          "ticks": 40320,
          "time": 33.157845,
          "velocity": 0.5826771653543307
        },
        {
          "duration": 0.1184208749999982,
          "durationTicks": 144,
          "midi": 68,
          "name": "G#4",
          "ticks": 40320,
          "time": 33.157845,
          "velocity": 0.5826771653543307
        },
        {
          "duration": 0.1184208749999982,
          "durationTicks": 144,
          "midi": 58,
          "name": "A#3",
          "ticks": 40512,
          "time": 33.3157395,
          "velocity": 0.5826771653543307
        },
        {
          "duration": 0.1184208749999982,
          "durationTicks": 144,
          "midi": 70,
          "name": "A#4",
          "ticks": 40512,
          "time": 33.3157395,
          "velocity": 0.5826771653543307
        },
        {
          "duration": 0.1184208749999982,
          "durationTicks": 144,
          "midi": 67,
          "name": "G4",
          "ticks": 40512,
          "time": 33.3157395,
          "velocity": 0.5826771653543307
        },
        {
          "duration": 0.1184208749999982,
          "durationTicks": 144,
          "midi": 55,
          "name": "G3",
          "ticks": 40512,
          "time": 33.3157395,
          "velocity": 0.5826771653543307
        },
        {
          "duration": 0.23684175000000351,
          "durationTicks": 288,
          "midi": 68,
          "name": "G#4",
          "ticks": 40704,
          "time": 33.473634,
          "velocity": 0.5826771653543307
        },
        {
          "duration": 0.23684175000000351,
          "durationTicks": 288,
          "midi": 72,
          "name": "C5",
          "ticks": 40704,
          "time": 33.473634,
          "velocity": 0.5826771653543307
        },
        {
          "duration": 0.23684175000000351,
          "durationTicks": 288,
          "midi": 60,
          "name": "C4",
          "ticks": 40704,
          "time": 33.473634,
          "velocity": 0.5826771653543307
        },
        {
          "duration": 0.23684175000000351,
          "durationTicks": 288,
          "midi": 56,
          "name": "G#3",
          "ticks": 40704,
          "time": 33.473634,
          "velocity": 0.5826771653543307
        },
        {
          "duration": 0.2368417499999964,
          "durationTicks": 288,
          "midi": 77,
          "name": "F5",
          "ticks": 41088,
          "time": 33.789423,
          "velocity": 0.5826771653543307
        },
        {
          "duration": 0.2368417499999964,
          "durationTicks": 288,
          "midi": 68,
          "name": "G#4",
          "ticks": 41088,
          "time": 33.789423,
          "velocity": 0.5826771653543307
        },
        {
          "duration": 0.2368417499999964,
          "durationTicks": 288,
          "midi": 80,
          "name": "G#5",
          "ticks": 41088,
          "time": 33.789423,
          "velocity": 0.5826771653543307
        },
        {
          "duration": 0.2368417499999964,
          "durationTicks": 288,
          "midi": 65,
          "name": "F4",
          "ticks": 41088,
          "time": 33.789423,
          "velocity": 0.5826771653543307
        },
        {
          "duration": 0.3157889999999952,
          "durationTicks": 384,
          "midi": 75,
          "name": "D#5",
          "ticks": 41472,
          "time": 34.105212,
          "velocity": 0.5826771653543307
        },
        {
          "duration": 0.3157889999999952,
          "durationTicks": 384,
          "midi": 67,
          "name": "G4",
          "ticks": 41472,
          "time": 34.105212,
          "velocity": 0.5826771653543307
        },
        {
          "duration": 0.3157889999999952,
          "durationTicks": 384,
          "midi": 79,
          "name": "G5",
          "ticks": 41472,
          "time": 34.105212,
          "velocity": 0.5826771653543307
        },
        {
          "duration": 0.3157889999999952,
          "durationTicks": 384,
          "midi": 63,
          "name": "D#4",
          "ticks": 41472,
          "time": 34.105212,
          "velocity": 0.5826771653543307
        },
        {
          "duration": 0.3157890000000023,
          "durationTicks": 384,
          "midi": 75,
          "name": "D#5",
          "ticks": 41856,
          "time": 34.421001,
          "velocity": 0.5826771653543307
        },
        {
          "duration": 0.3157890000000023,
          "durationTicks": 384,
          "midi": 72,
          "name": "C5",
          "ticks": 41856,
          "time": 34.421001,
          "velocity": 0.5826771653543307
        },
        {
          "duration": 0.3157890000000023,
          "durationTicks": 384,
          "midi": 63,
          "name": "D#4",
          "ticks": 41856,
          "time": 34.421001,
          "velocity": 0.5826771653543307
        },
        {
          "duration": 0.3157890000000023,
          "durationTicks": 384,
          "midi": 60,
          "name": "C4",
          "ticks": 41856,
          "time": 34.421001,
          "velocity": 0.5826771653543307
        },
        {
          "duration": 0.3157890000000023,
          "durationTicks": 384,
          "midi": 55,
          "name": "G3",
          "ticks": 42240,
          "time": 34.73679,
          "velocity": 0.5826771653543307
        },
        {
          "duration": 0.3157890000000023,
          "durationTicks": 384,
          "midi": 58,
          "name": "A#3",
          "ticks": 42240,
          "time": 34.73679,
          "velocity": 0.5826771653543307
        },
        {
          "duration": 0.3157890000000023,
          "durationTicks": 384,
          "midi": 67,
          "name": "G4",
          "ticks": 42240,
          "time": 34.73679,
          "velocity": 0.5826771653543307
        },
        {
          "duration": 0.3157890000000023,
          "durationTicks": 384,
          "midi": 70,
          "name": "A#4",
          "ticks": 42240,
          "time": 34.73679,
          "velocity": 0.5826771653543307
        },
        {
          "duration": 0.3157889999999952,
          "durationTicks": 384,
          "midi": 55,
          "name": "G3",
          "ticks": 42624,
          "time": 35.052579,
          "velocity": 0.5826771653543307
        },
        {
          "duration": 0.3157889999999952,
          "durationTicks": 384,
          "midi": 51,
          "name": "D#3",
          "ticks": 42624,
          "time": 35.052579,
          "velocity": 0.5826771653543307
        },
        {
          "duration": 0.3157889999999952,
          "durationTicks": 384,
          "midi": 63,
          "name": "D#4",
          "ticks": 42624,
          "time": 35.052579,
          "velocity": 0.5826771653543307
        },
        {
          "duration": 0.3157889999999952,
          "durationTicks": 384,
          "midi": 67,
          "name": "G4",
          "ticks": 42624,
          "time": 35.052579,
          "velocity": 0.5826771653543307
        },
        {
          "duration": 0.23684175000000351,
          "durationTicks": 288,
          "midi": 68,
          "name": "G#4",
          "ticks": 43008,
          "time": 35.368368,
          "velocity": 0.5826771653543307
        },
        {
          "duration": 0.23684175000000351,
          "durationTicks": 288,
          "midi": 65,
          "name": "F4",
          "ticks": 43008,
          "time": 35.368368,
          "velocity": 0.5826771653543307
        },
        {
          "duration": 0.23684175000000351,
          "durationTicks": 288,
          "midi": 53,
          "name": "F3",
          "ticks": 43008,
          "time": 35.368368,
          "velocity": 0.5826771653543307
        },
        {
          "duration": 0.23684175000000351,
          "durationTicks": 288,
          "midi": 56,
          "name": "G#3",
          "ticks": 43008,
          "time": 35.368368,
          "velocity": 0.5826771653543307
        },
        {
          "duration": 0.1184208749999982,
          "durationTicks": 144,
          "midi": 65,
          "name": "F4",
          "ticks": 43392,
          "time": 35.684157,
          "velocity": 0.5826771653543307
        },
        {
          "duration": 0.1184208749999982,
          "durationTicks": 144,
          "midi": 56,
          "name": "G#3",
          "ticks": 43392,
          "time": 35.684157,
          "velocity": 0.5826771653543307
        },
        {
          "duration": 0.1184208749999982,
          "durationTicks": 144,
          "midi": 53,
          "name": "F3",
          "ticks": 43392,
          "time": 35.684157,
          "velocity": 0.5826771653543307
        },
        {
          "duration": 0.1184208749999982,
          "durationTicks": 144,
          "midi": 68,
          "name": "G#4",
          "ticks": 43392,
          "time": 35.684157,
          "velocity": 0.5826771653543307
        },
        {
          "duration": 0.11842087500000531,
          "durationTicks": 144,
          "midi": 55,
          "name": "G3",
          "ticks": 43584,
          "time": 35.8420515,
          "velocity": 0.5826771653543307
        },
        {
          "duration": 0.11842087500000531,
          "durationTicks": 144,
          "midi": 70,
          "name": "A#4",
          "ticks": 43584,
          "time": 35.8420515,
          "velocity": 0.5826771653543307
        },
        {
          "duration": 0.11842087500000531,
          "durationTicks": 144,
          "midi": 58,
          "name": "A#3",
          "ticks": 43584,
          "time": 35.8420515,
          "velocity": 0.5826771653543307
        },
        {
          "duration": 0.11842087500000531,
          "durationTicks": 144,
          "midi": 67,
          "name": "G4",
          "ticks": 43584,
          "time": 35.8420515,
          "velocity": 0.5826771653543307
        },
        {
          "duration": 0.2368417499999964,
          "durationTicks": 288,
          "midi": 60,
          "name": "C4",
          "ticks": 43776,
          "time": 35.999946,
          "velocity": 0.5826771653543307
        },
        {
          "duration": 0.2368417499999964,
          "durationTicks": 288,
          "midi": 68,
          "name": "G#4",
          "ticks": 43776,
          "time": 35.999946,
          "velocity": 0.5826771653543307
        },
        {
          "duration": 0.2368417499999964,
          "durationTicks": 288,
          "midi": 72,
          "name": "C5",
          "ticks": 43776,
          "time": 35.999946,
          "velocity": 0.5826771653543307
        },
        {
          "duration": 0.2368417499999964,
          "durationTicks": 288,
          "midi": 56,
          "name": "G#3",
          "ticks": 43776,
          "time": 35.999946,
          "velocity": 0.5826771653543307
        },
        {
          "duration": 0.23684175000000351,
          "durationTicks": 288,
          "midi": 53,
          "name": "F3",
          "ticks": 44160,
          "time": 36.315735,
          "velocity": 0.5826771653543307
        },
        {
          "duration": 0.23684175000000351,
          "durationTicks": 288,
          "midi": 56,
          "name": "G#3",
          "ticks": 44160,
          "time": 36.315735,
          "velocity": 0.5826771653543307
        },
        {
          "duration": 0.23684175000000351,
          "durationTicks": 288,
          "midi": 68,
          "name": "G#4",
          "ticks": 44160,
          "time": 36.315735,
          "velocity": 0.5826771653543307
        },
        {
          "duration": 0.23684175000000351,
          "durationTicks": 288,
          "midi": 65,
          "name": "F4",
          "ticks": 44160,
          "time": 36.315735,
          "velocity": 0.5826771653543307
        },
        {
          "duration": 0.2368417499999964,
          "durationTicks": 288,
          "midi": 58,
          "name": "A#3",
          "ticks": 44544,
          "time": 36.631524,
          "velocity": 0.5826771653543307
        },
        {
          "duration": 0.2368417499999964,
          "durationTicks": 288,
          "midi": 70,
          "name": "A#4",
          "ticks": 44544,
          "time": 36.631524,
          "velocity": 0.5826771653543307
        },
        {
          "duration": 0.2368417499999964,
          "durationTicks": 288,
          "midi": 55,
          "name": "G3",
          "ticks": 44544,
          "time": 36.631524,
          "velocity": 0.5826771653543307
        },
        {
          "duration": 0.2368417499999964,
          "durationTicks": 288,
          "midi": 67,
          "name": "G4",
          "ticks": 44544,
          "time": 36.631524,
          "velocity": 0.5826771653543307
        },
        {
          "duration": 0.1184208749999982,
          "durationTicks": 144,
          "midi": 58,
          "name": "A#3",
          "ticks": 44928,
          "time": 36.947313,
          "velocity": 0.5826771653543307
        },
        {
          "duration": 0.1184208749999982,
          "durationTicks": 144,
          "midi": 70,
          "name": "A#4",
          "ticks": 44928,
          "time": 36.947313,
          "velocity": 0.5826771653543307
        },
        {
          "duration": 0.1184208749999982,
          "durationTicks": 144,
          "midi": 67,
          "name": "G4",
          "ticks": 44928,
          "time": 36.947313,
          "velocity": 0.5826771653543307
        },
        {
          "duration": 0.1184208749999982,
          "durationTicks": 144,
          "midi": 55,
          "name": "G3",
          "ticks": 44928,
          "time": 36.947313,
          "velocity": 0.5826771653543307
        },
        {
          "duration": 0.1184208749999982,
          "durationTicks": 144,
          "midi": 60,
          "name": "C4",
          "ticks": 45120,
          "time": 37.1052075,
          "velocity": 0.5826771653543307
        },
        {
          "duration": 0.1184208749999982,
          "durationTicks": 144,
          "midi": 56,
          "name": "G#3",
          "ticks": 45120,
          "time": 37.1052075,
          "velocity": 0.5826771653543307
        },
        {
          "duration": 0.1184208749999982,
          "durationTicks": 144,
          "midi": 72,
          "name": "C5",
          "ticks": 45120,
          "time": 37.1052075,
          "velocity": 0.5826771653543307
        },
        {
          "duration": 0.1184208749999982,
          "durationTicks": 144,
          "midi": 68,
          "name": "G#4",
          "ticks": 45120,
          "time": 37.1052075,
          "velocity": 0.5826771653543307
        },
        {
          "duration": 0.23684175000000351,
          "durationTicks": 288,
          "midi": 55,
          "name": "G3",
          "ticks": 45312,
          "time": 37.263101999999996,
          "velocity": 0.5826771653543307
        },
        {
          "duration": 0.23684175000000351,
          "durationTicks": 288,
          "midi": 67,
          "name": "G4",
          "ticks": 45312,
          "time": 37.263101999999996,
          "velocity": 0.5826771653543307
        },
        {
          "duration": 0.23684175000000351,
          "durationTicks": 288,
          "midi": 63,
          "name": "D#4",
          "ticks": 45312,
          "time": 37.263101999999996,
          "velocity": 0.5826771653543307
        },
        {
          "duration": 0.23684175000000351,
          "durationTicks": 288,
          "midi": 51,
          "name": "D#3",
          "ticks": 45312,
          "time": 37.263101999999996,
          "velocity": 0.5826771653543307
        },
        {
          "duration": 0.2368417499999964,
          "durationTicks": 288,
          "midi": 48,
          "name": "C3",
          "ticks": 45696,
          "time": 37.578891,
          "velocity": 0.5826771653543307
        },
        {
          "duration": 0.2368417499999964,
          "durationTicks": 288,
          "midi": 60,
          "name": "C4",
          "ticks": 45696,
          "time": 37.578891,
          "velocity": 0.5826771653543307
        },
        {
          "duration": 0.2368417499999964,
          "durationTicks": 288,
          "midi": 63,
          "name": "D#4",
          "ticks": 45696,
          "time": 37.578891,
          "velocity": 0.5826771653543307
        },
        {
          "duration": 0.2368417499999964,
          "durationTicks": 288,
          "midi": 51,
          "name": "D#3",
          "ticks": 45696,
          "time": 37.578891,
          "velocity": 0.5826771653543307
        },
        {
          "duration": 0.2368417499999964,
          "durationTicks": 288,
          "midi": 65,
          "name": "F4",
          "ticks": 46080,
          "time": 37.89468,
          "velocity": 0.5826771653543307
        },
        {
          "duration": 0.2368417499999964,
          "durationTicks": 288,
          "midi": 53,
          "name": "F3",
          "ticks": 46080,
          "time": 37.89468,
          "velocity": 0.5826771653543307
        },
        {
          "duration": 0.2368417499999964,
          "durationTicks": 288,
          "midi": 69,
          "name": "A4",
          "ticks": 46080,
          "time": 37.89468,
          "velocity": 0.5826771653543307
        },
        {
          "duration": 0.2368417499999964,
          "durationTicks": 288,
          "midi": 57,
          "name": "A3",
          "ticks": 46080,
          "time": 37.89468,
          "velocity": 0.5826771653543307
        },
        {
          "duration": 0.11842087500000531,
          "durationTicks": 144,
          "midi": 57,
          "name": "A3",
          "ticks": 46464,
          "time": 38.210468999999996,
          "velocity": 0.5826771653543307
        },
        {
          "duration": 0.11842087500000531,
          "durationTicks": 144,
          "midi": 69,
          "name": "A4",
          "ticks": 46464,
          "time": 38.210468999999996,
          "velocity": 0.5826771653543307
        },
        {
          "duration": 0.11842087500000531,
          "durationTicks": 144,
          "midi": 65,
          "name": "F4",
          "ticks": 46464,
          "time": 38.210468999999996,
          "velocity": 0.5826771653543307
        },
        {
          "duration": 0.11842087500000531,
          "durationTicks": 144,
          "midi": 53,
          "name": "F3",
          "ticks": 46464,
          "time": 38.210468999999996,
          "velocity": 0.5826771653543307
        },
        {
          "duration": 0.1184208749999982,
          "durationTicks": 144,
          "midi": 58,
          "name": "A#3",
          "ticks": 46656,
          "time": 38.3683635,
          "velocity": 0.5826771653543307
        },
        {
          "duration": 0.1184208749999982,
          "durationTicks": 144,
          "midi": 67,
          "name": "G4",
          "ticks": 46656,
          "time": 38.3683635,
          "velocity": 0.5826771653543307
        },
        {
          "duration": 0.1184208749999982,
          "durationTicks": 144,
          "midi": 55,
          "name": "G3",
          "ticks": 46656,
          "time": 38.3683635,
          "velocity": 0.5826771653543307
        },
        {
          "duration": 0.1184208749999982,
          "durationTicks": 144,
          "midi": 70,
          "name": "A#4",
          "ticks": 46656,
          "time": 38.3683635,
          "velocity": 0.5826771653543307
        },
        {
          "duration": 0.2368417499999964,
          "durationTicks": 288,
          "midi": 69,
          "name": "A4",
          "ticks": 46848,
          "time": 38.526258,
          "velocity": 0.5826771653543307
        },
        {
          "duration": 0.2368417499999964,
          "durationTicks": 288,
          "midi": 60,
          "name": "C4",
          "ticks": 46848,
          "time": 38.526258,
          "velocity": 0.5826771653543307
        },
        {
          "duration": 0.2368417499999964,
          "durationTicks": 288,
          "midi": 72,
          "name": "C5",
          "ticks": 46848,
          "time": 38.526258,
          "velocity": 0.5826771653543307
        },
        {
          "duration": 0.2368417499999964,
          "durationTicks": 288,
          "midi": 57,
          "name": "A3",
          "ticks": 46848,
          "time": 38.526258,
          "velocity": 0.5826771653543307
        },
        {
          "duration": 0.2368417499999964,
          "durationTicks": 288,
          "midi": 60,
          "name": "C4",
          "ticks": 47232,
          "time": 38.842047,
          "velocity": 0.5826771653543307
        },
        {
          "duration": 0.2368417499999964,
          "durationTicks": 288,
          "midi": 77,
          "name": "F5",
          "ticks": 47232,
          "time": 38.842047,
          "velocity": 0.5826771653543307
        },
        {
          "duration": 0.2368417499999964,
          "durationTicks": 288,
          "midi": 72,
          "name": "C5",
          "ticks": 47232,
          "time": 38.842047,
          "velocity": 0.5826771653543307
        },
        {
          "duration": 0.2368417499999964,
          "durationTicks": 288,
          "midi": 65,
          "name": "F4",
          "ticks": 47232,
          "time": 38.842047,
          "velocity": 0.5826771653543307
        },
        {
          "duration": 0.3157890000000023,
          "durationTicks": 384,
          "midi": 76,
          "name": "E5",
          "ticks": 47616,
          "time": 39.157835999999996,
          "velocity": 0.5826771653543307
        },
        {
          "duration": 0.3157890000000023,
          "durationTicks": 384,
          "midi": 71,
          "name": "B4",
          "ticks": 47616,
          "time": 39.157835999999996,
          "velocity": 0.5826771653543307
        },
        {
          "duration": 0.3157890000000023,
          "durationTicks": 384,
          "midi": 59,
          "name": "B3",
          "ticks": 47616,
          "time": 39.157835999999996,
          "velocity": 0.5826771653543307
        },
        {
          "duration": 0.3157890000000023,
          "durationTicks": 384,
          "midi": 64,
          "name": "E4",
          "ticks": 47616,
          "time": 39.157835999999996,
          "velocity": 0.5826771653543307
        },
        {
          "duration": 0.3157890000000023,
          "durationTicks": 384,
          "midi": 79,
          "name": "G5",
          "ticks": 48000,
          "time": 39.473625,
          "velocity": 0.5826771653543307
        },
        {
          "duration": 0.3157890000000023,
          "durationTicks": 384,
          "midi": 62,
          "name": "D4",
          "ticks": 48000,
          "time": 39.473625,
          "velocity": 0.5826771653543307
        },
        {
          "duration": 0.3157890000000023,
          "durationTicks": 384,
          "midi": 67,
          "name": "G4",
          "ticks": 48000,
          "time": 39.473625,
          "velocity": 0.5826771653543307
        },
        {
          "duration": 0.3157890000000023,
          "durationTicks": 384,
          "midi": 74,
          "name": "D5",
          "ticks": 48000,
          "time": 39.473625,
          "velocity": 0.5826771653543307
        },
        {
          "duration": 0.4736834999999999,
          "durationTicks": 576,
          "midi": 65,
          "name": "F4",
          "ticks": 48384,
          "time": 39.789414,
          "velocity": 0.5826771653543307
        },
        {
          "duration": 0.4736834999999999,
          "durationTicks": 576,
          "midi": 72,
          "name": "C5",
          "ticks": 48384,
          "time": 39.789414,
          "velocity": 0.5826771653543307
        },
        {
          "duration": 0.4736834999999999,
          "durationTicks": 576,
          "midi": 77,
          "name": "F5",
          "ticks": 48384,
          "time": 39.789414,
          "velocity": 0.5826771653543307
        },
        {
          "duration": 0.4736834999999999,
          "durationTicks": 576,
          "midi": 60,
          "name": "C4",
          "ticks": 48384,
          "time": 39.789414,
          "velocity": 0.5826771653543307
        },
        {
          "duration": 0.2368417499999964,
          "durationTicks": 288,
          "midi": 76,
          "name": "E5",
          "ticks": 59904,
          "time": 49.263084,
          "velocity": 0.5826771653543307
        },
        {
          "duration": 0.2368417499999964,
          "durationTicks": 288,
          "midi": 76,
          "name": "E5",
          "ticks": 60480,
          "time": 49.7367675,
          "velocity": 0.5826771653543307
        },
        {
          "duration": 0.2368417499999964,
          "durationTicks": 288,
          "midi": 77,
          "name": "F5",
          "ticks": 61056,
          "time": 50.210451,
          "velocity": 0.5826771653543307
        },
        {
          "duration": 0.3157889999999952,
          "durationTicks": 384,
          "midi": 80,
          "name": "G#5",
          "ticks": 61440,
          "time": 50.52624,
          "velocity": 0.5826771653543307
        },
        {
          "duration": 0.3157890000000023,
          "durationTicks": 384,
          "midi": 79,
          "name": "G5",
          "ticks": 61824,
          "time": 50.842029,
          "velocity": 0.5826771653543307
        },
        {
          "duration": 0.3157890000000023,
          "durationTicks": 384,
          "midi": 77,
          "name": "F5",
          "ticks": 62208,
          "time": 51.157818,
          "velocity": 0.5826771653543307
        },
        {
          "duration": 0.3157889999999952,
          "durationTicks": 384,
          "midi": 72,
          "name": "C5",
          "ticks": 62592,
          "time": 51.473607,
          "velocity": 0.5826771653543307
        },
        {
          "duration": 0.3157890000000023,
          "durationTicks": 384,
          "midi": 79,
          "name": "G5",
          "ticks": 62976,
          "time": 51.789395999999996,
          "velocity": 0.5826771653543307
        },
        {
          "duration": 0.3157890000000023,
          "durationTicks": 384,
          "midi": 79,
          "name": "G5",
          "ticks": 63552,
          "time": 52.263079499999996,
          "velocity": 0.5826771653543307
        },
        {
          "duration": 0.23684175000000351,
          "durationTicks": 288,
          "midi": 80,
          "name": "G#5",
          "ticks": 64128,
          "time": 52.736762999999996,
          "velocity": 0.5826771653543307
        },
        {
          "duration": 0.3157890000000023,
          "durationTicks": 384,
          "midi": 80,
          "name": "G#5",
          "ticks": 64512,
          "time": 53.052552,
          "velocity": 0.5826771653543307
        },
        {
          "duration": 0.3157889999999952,
          "durationTicks": 384,
          "midi": 79,
          "name": "G5",
          "ticks": 64896,
          "time": 53.368341,
          "velocity": 0.5826771653543307
        },
        {
          "duration": 0.3157890000000023,
          "durationTicks": 384,
          "midi": 77,
          "name": "F5",
          "ticks": 65280,
          "time": 53.684129999999996,
          "velocity": 0.5826771653543307
        },
        {
          "duration": 0.3157890000000023,
          "durationTicks": 384,
          "midi": 72,
          "name": "C5",
          "ticks": 65664,
          "time": 53.999919,
          "velocity": 0.5826771653543307
        },
        {
          "duration": 0.3157889999999952,
          "durationTicks": 384,
          "midi": 79,
          "name": "G5",
          "ticks": 66048,
          "time": 54.315708,
          "velocity": 0.5826771653543307
        },
        {
          "duration": 0.3157889999999952,
          "durationTicks": 384,
          "midi": 79,
          "name": "G5",
          "ticks": 66624,
          "time": 54.7893915,
          "velocity": 0.5826771653543307
        },
        {
          "duration": 0.2368417499999964,
          "durationTicks": 288,
          "midi": 80,
          "name": "G#5",
          "ticks": 67200,
          "time": 55.263075,
          "velocity": 0.5826771653543307
        },
        {
          "duration": 0.3157890000000023,
          "durationTicks": 384,
          "midi": 80,
          "name": "G#5",
          "ticks": 67584,
          "time": 55.578863999999996,
          "velocity": 0.5826771653543307
        },
        {
          "duration": 0.3157890000000023,
          "durationTicks": 384,
          "midi": 79,
          "name": "G5",
          "ticks": 67968,
          "time": 55.894653,
          "velocity": 0.5826771653543307
        },
        {
          "duration": 0.3157889999999952,
          "durationTicks": 384,
          "midi": 77,
          "name": "F5",
          "ticks": 68352,
          "time": 56.210442,
          "velocity": 0.5826771653543307
        },
        {
          "duration": 0.3157890000000023,
          "durationTicks": 384,
          "midi": 72,
          "name": "C5",
          "ticks": 68736,
          "time": 56.526230999999996,
          "velocity": 0.5826771653543307
        },
        {
          "duration": 0.3157890000000023,
          "durationTicks": 384,
          "midi": 79,
          "name": "G5",
          "ticks": 69120,
          "time": 56.84202,
          "velocity": 0.5826771653543307
        },
        {
          "duration": 0.3157890000000023,
          "durationTicks": 384,
          "midi": 79,
          "name": "G5",
          "ticks": 69696,
          "time": 57.3157035,
          "velocity": 0.5826771653543307
        },
        {
          "duration": 0.3157890000000023,
          "durationTicks": 384,
          "midi": 80,
          "name": "G#5",
          "ticks": 70272,
          "time": 57.789387,
          "velocity": 0.5826771653543307
        },
        {
          "duration": 0.1578944999999976,
          "durationTicks": 192,
          "midi": 81,
          "name": "A5",
          "ticks": 70656,
          "time": 58.105176,
          "velocity": 0.5826771653543307
        },
        {
          "duration": 0.1578944999999976,
          "durationTicks": 192,
          "midi": 69,
          "name": "A4",
          "ticks": 70656,
          "time": 58.105176,
          "velocity": 0.5826771653543307
        },
        {
          "duration": 0.11842087500000531,
          "durationTicks": 144,
          "midi": 69,
          "name": "A4",
          "ticks": 71040,
          "time": 58.420964999999995,
          "velocity": 0.5826771653543307
        },
        {
          "duration": 0.11842087500000531,
          "durationTicks": 144,
          "midi": 81,
          "name": "A5",
          "ticks": 71040,
          "time": 58.420964999999995,
          "velocity": 0.5826771653543307
        },
        {
          "duration": 0.1184208749999982,
          "durationTicks": 144,
          "midi": 70,
          "name": "A#4",
          "ticks": 71232,
          "time": 58.5788595,
          "velocity": 0.5826771653543307
        },
        {
          "duration": 0.1184208749999982,
          "durationTicks": 144,
          "midi": 82,
          "name": "A#5",
          "ticks": 71232,
          "time": 58.5788595,
          "velocity": 0.5826771653543307
        },
        {
          "duration": 0.2368417499999964,
          "durationTicks": 288,
          "midi": 72,
          "name": "C5",
          "ticks": 71424,
          "time": 58.736754,
          "velocity": 0.5826771653543307
        },
        {
          "duration": 0.2368417499999964,
          "durationTicks": 288,
          "midi": 84,
          "name": "C6",
          "ticks": 71424,
          "time": 58.736754,
          "velocity": 0.5826771653543307
        },
        {
          "duration": 0.3157889999999952,
          "durationTicks": 384,
          "midi": 89,
          "name": "F6",
          "ticks": 71808,
          "time": 59.052543,
          "velocity": 0.5826771653543307
        },
        {
          "duration": 0.3157889999999952,
          "durationTicks": 384,
          "midi": 77,
          "name": "F5",
          "ticks": 71808,
          "time": 59.052543,
          "velocity": 0.5826771653543307
        },
        {
          "duration": 0.6315780000000046,
          "durationTicks": 768,
          "midi": 74,
          "name": "D5",
          "ticks": 72192,
          "time": 59.368331999999995,
          "velocity": 0.5826771653543307
        },
        {
          "duration": 0.6315780000000046,
          "durationTicks": 768,
          "midi": 86,
          "name": "D6",
          "ticks": 72192,
          "time": 59.368331999999995,
          "velocity": 0.5826771653543307
        },
        {
          "duration": 0.0986840624999985,
          "durationTicks": 120,
          "midi": 84,
          "name": "C6",
          "ticks": 72960,
          "time": 59.99991,
          "velocity": 0.4645669291338583
        },
        {
          "duration": 0.0986840624999985,
          "durationTicks": 120,
          "midi": 72,
          "name": "C5",
          "ticks": 72960,
          "time": 59.99991,
          "velocity": 0.4645669291338583
        },
        {
          "duration": 0.0986840624999985,
          "durationTicks": 120,
          "midi": 72,
          "name": "C5",
          "ticks": 73152,
          "time": 60.1578045,
          "velocity": 0.5826771653543307
        },
        {
          "duration": 0.0986840624999985,
          "durationTicks": 120,
          "midi": 84,
          "name": "C6",
          "ticks": 73152,
          "time": 60.1578045,
          "velocity": 0.5826771653543307
        },
        {
          "duration": 0.09868406250000561,
          "durationTicks": 120,
          "midi": 84,
          "name": "C6",
          "ticks": 73344,
          "time": 60.315698999999995,
          "velocity": 0.6929133858267716
        },
        {
          "duration": 0.09868406250000561,
          "durationTicks": 120,
          "midi": 72,
          "name": "C5",
          "ticks": 73344,
          "time": 60.315698999999995,
          "velocity": 0.6929133858267716
        },
        {
          "duration": 0.0986840624999985,
          "durationTicks": 120,
          "midi": 84,
          "name": "C6",
          "ticks": 73536,
          "time": 60.4735935,
          "velocity": 0.8110236220472441
        },
        {
          "duration": 0.0986840624999985,
          "durationTicks": 120,
          "midi": 72,
          "name": "C5",
          "ticks": 73536,
          "time": 60.4735935,
          "velocity": 0.8110236220472441
        },
        {
          "duration": 0.1578944999999976,
          "durationTicks": 192,
          "midi": 80,
          "name": "G#5",
          "ticks": 73728,
          "time": 60.631488,
          "velocity": 0.5826771653543307
        },
        {
          "duration": 0.1578944999999976,
          "durationTicks": 192,
          "midi": 68,
          "name": "G#4",
          "ticks": 73728,
          "time": 60.631488,
          "velocity": 0.5826771653543307
        },
        {
          "duration": 0.1578944999999976,
          "durationTicks": 192,
          "midi": 68,
          "name": "G#4",
          "ticks": 74112,
          "time": 60.947277,
          "velocity": 0.5826771653543307
        },
        {
          "duration": 0.1578944999999976,
          "durationTicks": 192,
          "midi": 80,
          "name": "G#5",
          "ticks": 74112,
          "time": 60.947277,
          "velocity": 0.5826771653543307
        },
        {
          "duration": 0.1578944999999976,
          "durationTicks": 192,
          "midi": 70,
          "name": "A#4",
          "ticks": 74304,
          "time": 61.1051715,
          "velocity": 0.5826771653543307
        },
        {
          "duration": 0.1578944999999976,
          "durationTicks": 192,
          "midi": 82,
          "name": "A#5",
          "ticks": 74304,
          "time": 61.1051715,
          "velocity": 0.5826771653543307
        },
        {
          "duration": 0.1578945000000047,
          "durationTicks": 192,
          "midi": 84,
          "name": "C6",
          "ticks": 74496,
          "time": 61.263065999999995,
          "velocity": 0.5826771653543307
        },
        {
          "duration": 0.1578945000000047,
          "durationTicks": 192,
          "midi": 72,
          "name": "C5",
          "ticks": 74496,
          "time": 61.263065999999995,
          "velocity": 0.5826771653543307
        },
        {
          "duration": 0.1578944999999976,
          "durationTicks": 192,
          "midi": 80,
          "name": "G#5",
          "ticks": 74880,
          "time": 61.578855,
          "velocity": 0.5826771653543307
        },
        {
          "duration": 0.1578944999999976,
          "durationTicks": 192,
          "midi": 68,
          "name": "G#4",
          "ticks": 74880,
          "time": 61.578855,
          "velocity": 0.5826771653543307
        },
        {
          "duration": 0.1578944999999976,
          "durationTicks": 192,
          "midi": 82,
          "name": "A#5",
          "ticks": 75264,
          "time": 61.894644,
          "velocity": 0.5826771653543307
        },
        {
          "duration": 0.1578944999999976,
          "durationTicks": 192,
          "midi": 70,
          "name": "A#4",
          "ticks": 75264,
          "time": 61.894644,
          "velocity": 0.5826771653543307
        },
        {
          "duration": 0.1578945000000047,
          "durationTicks": 192,
          "midi": 70,
          "name": "A#4",
          "ticks": 75648,
          "time": 62.210432999999995,
          "velocity": 0.5826771653543307
        },
        {
          "duration": 0.1578945000000047,
          "durationTicks": 192,
          "midi": 82,
          "name": "A#5",
          "ticks": 75648,
          "time": 62.210432999999995,
          "velocity": 0.5826771653543307
        },
        {
          "duration": 0.1578944999999976,
          "durationTicks": 192,
          "midi": 72,
          "name": "C5",
          "ticks": 75840,
          "time": 62.3683275,
          "velocity": 0.5826771653543307
        },
        {
          "duration": 0.1578944999999976,
          "durationTicks": 192,
          "midi": 84,
          "name": "C6",
          "ticks": 75840,
          "time": 62.3683275,
          "velocity": 0.5826771653543307
        },
        {
          "duration": 0.1578944999999976,
          "durationTicks": 192,
          "midi": 79,
          "name": "G5",
          "ticks": 76032,
          "time": 62.526222,
          "velocity": 0.5826771653543307
        },
        {
          "duration": 0.1578944999999976,
          "durationTicks": 192,
          "midi": 67,
          "name": "G4",
          "ticks": 76032,
          "time": 62.526222,
          "velocity": 0.5826771653543307
        },
        {
          "duration": 0.1578944999999976,
          "durationTicks": 192,
          "midi": 63,
          "name": "D#4",
          "ticks": 76416,
          "time": 62.842011,
          "velocity": 0.5826771653543307
        },
        {
          "duration": 0.1578944999999976,
          "durationTicks": 192,
          "midi": 75,
          "name": "D#5",
          "ticks": 76416,
          "time": 62.842011,
          "velocity": 0.5826771653543307
        },
        {
          "duration": 0.1578945000000047,
          "durationTicks": 192,
          "midi": 80,
          "name": "G#5",
          "ticks": 76800,
          "time": 63.157799999999995,
          "velocity": 0.5826771653543307
        },
        {
          "duration": 0.1578945000000047,
          "durationTicks": 192,
          "midi": 68,
          "name": "G#4",
          "ticks": 76800,
          "time": 63.157799999999995,
          "velocity": 0.5826771653543307
        },
        {
          "duration": 0.1578944999999976,
          "durationTicks": 192,
          "midi": 80,
          "name": "G#5",
          "ticks": 77184,
          "time": 63.473589,
          "velocity": 0.5826771653543307
        },
        {
          "duration": 0.1578944999999976,
          "durationTicks": 192,
          "midi": 68,
          "name": "G#4",
          "ticks": 77184,
          "time": 63.473589,
          "velocity": 0.5826771653543307
        },
        {
          "duration": 0.1578945000000047,
          "durationTicks": 192,
          "midi": 70,
          "name": "A#4",
          "ticks": 77376,
          "time": 63.631483499999995,
          "velocity": 0.5826771653543307
        },
        {
          "duration": 0.1578945000000047,
          "durationTicks": 192,
          "midi": 82,
          "name": "A#5",
          "ticks": 77376,
          "time": 63.631483499999995,
          "velocity": 0.5826771653543307
        },
        {
          "duration": 0.1578944999999976,
          "durationTicks": 192,
          "midi": 84,
          "name": "C6",
          "ticks": 77568,
          "time": 63.789378,
          "velocity": 0.5826771653543307
        },
        {
          "duration": 0.1578944999999976,
          "durationTicks": 192,
          "midi": 72,
          "name": "C5",
          "ticks": 77568,
          "time": 63.789378,
          "velocity": 0.5826771653543307
        },
        {
          "duration": 0.1578944999999976,
          "durationTicks": 192,
          "midi": 68,
          "name": "G#4",
          "ticks": 77760,
          "time": 63.9472725,
          "velocity": 0.5826771653543307
        },
        {
          "duration": 0.1578944999999976,
          "durationTicks": 192,
          "midi": 80,
          "name": "G#5",
          "ticks": 77760,
          "time": 63.9472725,
          "velocity": 0.5826771653543307
        },
        {
          "duration": 0.1578944999999976,
          "durationTicks": 192,
          "midi": 72,
          "name": "C5",
          "ticks": 77952,
          "time": 64.105167,
          "velocity": 0.5826771653543307
        },
        {
          "duration": 0.1578944999999976,
          "durationTicks": 192,
          "midi": 84,
          "name": "C6",
          "ticks": 77952,
          "time": 64.105167,
          "velocity": 0.5826771653543307
        },
        {
          "duration": 0.15789450000001182,
          "durationTicks": 192,
          "midi": 80,
          "name": "G#5",
          "ticks": 78144,
          "time": 64.26306149999999,
          "velocity": 0.5826771653543307
        },
        {
          "duration": 0.15789450000001182,
          "durationTicks": 192,
          "midi": 92,
          "name": "G#6",
          "ticks": 78144,
          "time": 64.26306149999999,
          "velocity": 0.5826771653543307
        },
        {
          "duration": 0.3157889999999952,
          "durationTicks": 384,
          "midi": 91,
          "name": "G6",
          "ticks": 78336,
          "time": 64.420956,
          "velocity": 0.5826771653543307
        },
        {
          "duration": 0.3157889999999952,
          "durationTicks": 384,
          "midi": 79,
          "name": "G5",
          "ticks": 78336,
          "time": 64.420956,
          "velocity": 0.5826771653543307
        },
        {
          "duration": 0.3157889999999952,
          "durationTicks": 384,
          "midi": 75,
          "name": "D#5",
          "ticks": 78720,
          "time": 64.736745,
          "velocity": 0.5826771653543307
        },
        {
          "duration": 0.3157889999999952,
          "durationTicks": 384,
          "midi": 87,
          "name": "D#6",
          "ticks": 78720,
          "time": 64.736745,
          "velocity": 0.5826771653543307
        },
        {
          "duration": 0.3157890000000094,
          "durationTicks": 384,
          "midi": 70,
          "name": "A#4",
          "ticks": 79104,
          "time": 65.052534,
          "velocity": 0.5826771653543307
        },
        {
          "duration": 0.3157890000000094,
          "durationTicks": 384,
          "midi": 82,
          "name": "A#5",
          "ticks": 79104,
          "time": 65.052534,
          "velocity": 0.5826771653543307
        },
        {
          "duration": 0.3157889999999952,
          "durationTicks": 384,
          "midi": 67,
          "name": "G4",
          "ticks": 79488,
          "time": 65.368323,
          "velocity": 0.5826771653543307
        },
        {
          "duration": 0.3157889999999952,
          "durationTicks": 384,
          "midi": 79,
          "name": "G5",
          "ticks": 79488,
          "time": 65.368323,
          "velocity": 0.5826771653543307
        },
        {
          "duration": 0.4736834999999928,
          "durationTicks": 576,
          "midi": 80,
          "name": "G#5",
          "ticks": 79872,
          "time": 65.684112,
          "velocity": 0.5826771653543307
        },
        {
          "duration": 0.4736834999999928,
          "durationTicks": 576,
          "midi": 68,
          "name": "G#4",
          "ticks": 79872,
          "time": 65.684112,
          "velocity": 0.5826771653543307
        },
        {
          "duration": 0.15789450000001182,
          "durationTicks": 192,
          "midi": 75,
          "name": "D#5",
          "ticks": 80448,
          "time": 66.15779549999999,
          "velocity": 0.5826771653543307
        },
        {
          "duration": 0.15789450000001182,
          "durationTicks": 192,
          "midi": 87,
          "name": "D#6",
          "ticks": 80448,
          "time": 66.15779549999999,
          "velocity": 0.5826771653543307
        },
        {
          "duration": 0.1578944999999976,
          "durationTicks": 192,
          "midi": 89,
          "name": "F6",
          "ticks": 80640,
          "time": 66.31569,
          "velocity": 0.5826771653543307
        },
        {
          "duration": 0.1578944999999976,
          "durationTicks": 192,
          "midi": 77,
          "name": "F5",
          "ticks": 80640,
          "time": 66.31569,
          "velocity": 0.5826771653543307
        },
        {
          "duration": 0.1578944999999976,
          "durationTicks": 192,
          "midi": 84,
          "name": "C6",
          "ticks": 81024,
          "time": 66.631479,
          "velocity": 0.5826771653543307
        },
        {
          "duration": 0.1578944999999976,
          "durationTicks": 192,
          "midi": 72,
          "name": "C5",
          "ticks": 81024,
          "time": 66.631479,
          "velocity": 0.5826771653543307
        },
        {
          "duration": 0.2368417499999964,
          "durationTicks": 288,
          "midi": 70,
          "name": "A#4",
          "ticks": 81408,
          "time": 66.947268,
          "velocity": 0.5826771653543307
        },
        {
          "duration": 0.2368417499999964,
          "durationTicks": 288,
          "midi": 82,
          "name": "A#5",
          "ticks": 81408,
          "time": 66.947268,
          "velocity": 0.5826771653543307
        },
        {
          "duration": 0.1578944999999976,
          "durationTicks": 192,
          "midi": 82,
          "name": "A#5",
          "ticks": 81792,
          "time": 67.263057,
          "velocity": 0.5826771653543307
        },
        {
          "duration": 0.1578944999999976,
          "durationTicks": 192,
          "midi": 70,
          "name": "A#4",
          "ticks": 81792,
          "time": 67.263057,
          "velocity": 0.5826771653543307
        },
        {
          "duration": 0.1578944999999976,
          "durationTicks": 192,
          "midi": 84,
          "name": "C6",
          "ticks": 81984,
          "time": 67.4209515,
          "velocity": 0.5826771653543307
        },
        {
          "duration": 0.1578944999999976,
          "durationTicks": 192,
          "midi": 72,
          "name": "C5",
          "ticks": 81984,
          "time": 67.4209515,
          "velocity": 0.5826771653543307
        },
        {
          "duration": 0.2368417499999964,
          "durationTicks": 288,
          "midi": 70,
          "name": "A#4",
          "ticks": 82176,
          "time": 67.578846,
          "velocity": 0.5826771653543307
        },
        {
          "duration": 0.2368417499999964,
          "durationTicks": 288,
          "midi": 82,
          "name": "A#5",
          "ticks": 82176,
          "time": 67.578846,
          "velocity": 0.5826771653543307
        },
        {
          "duration": 0.2368417499999964,
          "durationTicks": 288,
          "midi": 80,
          "name": "G#5",
          "ticks": 82560,
          "time": 67.894635,
          "velocity": 0.5826771653543307
        },
        {
          "duration": 0.2368417499999964,
          "durationTicks": 288,
          "midi": 68,
          "name": "G#4",
          "ticks": 82560,
          "time": 67.894635,
          "velocity": 0.5826771653543307
        },
        {
          "duration": 0.2368417499999964,
          "durationTicks": 288,
          "midi": 82,
          "name": "A#5",
          "ticks": 82944,
          "time": 68.210424,
          "velocity": 0.5826771653543307
        },
        {
          "duration": 0.2368417499999964,
          "durationTicks": 288,
          "midi": 70,
          "name": "A#4",
          "ticks": 82944,
          "time": 68.210424,
          "velocity": 0.5826771653543307
        },
        {
          "duration": 0.1578944999999976,
          "durationTicks": 192,
          "midi": 70,
          "name": "A#4",
          "ticks": 83328,
          "time": 68.526213,
          "velocity": 0.5826771653543307
        },
        {
          "duration": 0.1578944999999976,
          "durationTicks": 192,
          "midi": 82,
          "name": "A#5",
          "ticks": 83328,
          "time": 68.526213,
          "velocity": 0.5826771653543307
        },
        {
          "duration": 0.1578944999999976,
          "durationTicks": 192,
          "midi": 72,
          "name": "C5",
          "ticks": 83520,
          "time": 68.6841075,
          "velocity": 0.5826771653543307
        },
        {
          "duration": 0.1578944999999976,
          "durationTicks": 192,
          "midi": 84,
          "name": "C6",
          "ticks": 83520,
          "time": 68.6841075,
          "velocity": 0.5826771653543307
        },
        {
          "duration": 0.2368417499999964,
          "durationTicks": 288,
          "midi": 82,
          "name": "A#5",
          "ticks": 83712,
          "time": 68.842002,
          "velocity": 0.5826771653543307
        },
        {
          "duration": 0.2368417499999964,
          "durationTicks": 288,
          "midi": 70,
          "name": "A#4",
          "ticks": 83712,
          "time": 68.842002,
          "velocity": 0.5826771653543307
        },
        {
          "duration": 0.2368417499999964,
          "durationTicks": 288,
          "midi": 80,
          "name": "G#5",
          "ticks": 84096,
          "time": 69.157791,
          "velocity": 0.5826771653543307
        },
        {
          "duration": 0.2368417499999964,
          "durationTicks": 288,
          "midi": 68,
          "name": "G#4",
          "ticks": 84096,
          "time": 69.157791,
          "velocity": 0.5826771653543307
        },
        {
          "duration": 0.6315780000000046,
          "durationTicks": 768,
          "midi": 70,
          "name": "A#4",
          "ticks": 84480,
          "time": 69.47358,
          "velocity": 0.5826771653543307
        },
        {
          "duration": 0.6315780000000046,
          "durationTicks": 768,
          "midi": 82,
          "name": "A#5",
          "ticks": 84480,
          "time": 69.47358,
          "velocity": 0.5826771653543307
        },
        {
          "duration": 0.6315779999999904,
          "durationTicks": 768,
          "midi": 72,
          "name": "C5",
          "ticks": 85248,
          "time": 70.105158,
          "velocity": 0.5826771653543307
        },
        {
          "duration": 0.6315779999999904,
          "durationTicks": 768,
          "midi": 84,
          "name": "C6",
          "ticks": 85248,
          "time": 70.105158,
          "velocity": 0.5826771653543307
        },
        {
          "duration": 0.1578944999999976,
          "durationTicks": 192,
          "midi": 80,
          "name": "G#5",
          "ticks": 86016,
          "time": 70.736736,
          "velocity": 0.5826771653543307
        },
        {
          "duration": 0.1578944999999976,
          "durationTicks": 192,
          "midi": 68,
          "name": "G#4",
          "ticks": 86016,
          "time": 70.736736,
          "velocity": 0.5826771653543307
        },
        {
          "duration": 0.1578944999999976,
          "durationTicks": 192,
          "midi": 80,
          "name": "G#5",
          "ticks": 86400,
          "time": 71.052525,
          "velocity": 0.5826771653543307
        },
        {
          "duration": 0.1578944999999976,
          "durationTicks": 192,
          "midi": 68,
          "name": "G#4",
          "ticks": 86400,
          "time": 71.052525,
          "velocity": 0.5826771653543307
        },
        {
          "duration": 0.1578944999999976,
          "durationTicks": 192,
          "midi": 82,
          "name": "A#5",
          "ticks": 86592,
          "time": 71.2104195,
          "velocity": 0.5826771653543307
        },
        {
          "duration": 0.1578944999999976,
          "durationTicks": 192,
          "midi": 70,
          "name": "A#4",
          "ticks": 86592,
          "time": 71.2104195,
          "velocity": 0.5826771653543307
        },
        {
          "duration": 0.1578944999999976,
          "durationTicks": 192,
          "midi": 84,
          "name": "C6",
          "ticks": 86784,
          "time": 71.368314,
          "velocity": 0.5826771653543307
        },
        {
          "duration": 0.1578944999999976,
          "durationTicks": 192,
          "midi": 72,
          "name": "C5",
          "ticks": 86784,
          "time": 71.368314,
          "velocity": 0.5826771653543307
        },
        {
          "duration": 0.1578944999999976,
          "durationTicks": 192,
          "midi": 68,
          "name": "G#4",
          "ticks": 87168,
          "time": 71.684103,
          "velocity": 0.5826771653543307
        },
        {
          "duration": 0.1578944999999976,
          "durationTicks": 192,
          "midi": 80,
          "name": "G#5",
          "ticks": 87168,
          "time": 71.684103,
          "velocity": 0.5826771653543307
        },
        {
          "duration": 0.1578944999999976,
          "durationTicks": 192,
          "midi": 70,
          "name": "A#4",
          "ticks": 87552,
          "time": 71.999892,
          "velocity": 0.5826771653543307
        },
        {
          "duration": 0.1578944999999976,
          "durationTicks": 192,
          "midi": 82,
          "name": "A#5",
          "ticks": 87552,
          "time": 71.999892,
          "velocity": 0.5826771653543307
        },
        {
          "duration": 0.1578944999999976,
          "durationTicks": 192,
          "midi": 70,
          "name": "A#4",
          "ticks": 87936,
          "time": 72.315681,
          "velocity": 0.5826771653543307
        },
        {
          "duration": 0.1578944999999976,
          "durationTicks": 192,
          "midi": 82,
          "name": "A#5",
          "ticks": 87936,
          "time": 72.315681,
          "velocity": 0.5826771653543307
        },
        {
          "duration": 0.1578944999999976,
          "durationTicks": 192,
          "midi": 72,
          "name": "C5",
          "ticks": 88128,
          "time": 72.4735755,
          "velocity": 0.5826771653543307
        },
        {
          "duration": 0.1578944999999976,
          "durationTicks": 192,
          "midi": 84,
          "name": "C6",
          "ticks": 88128,
          "time": 72.4735755,
          "velocity": 0.5826771653543307
        },
        {
          "duration": 0.23684175000001062,
          "durationTicks": 288,
          "midi": 79,
          "name": "G5",
          "ticks": 88320,
          "time": 72.63147,
          "velocity": 0.5826771653543307
        },
        {
          "duration": 0.23684175000001062,
          "durationTicks": 288,
          "midi": 67,
          "name": "G4",
          "ticks": 88320,
          "time": 72.63147,
          "velocity": 0.5826771653543307
        },
        {
          "duration": 0.0789472499999988,
          "durationTicks": 96,
          "midi": 80,
          "name": "G#5",
          "ticks": 88608,
          "time": 72.86831175,
          "velocity": 0.5826771653543307
        },
        {
          "duration": 0.0789472499999988,
          "durationTicks": 96,
          "midi": 68,
          "name": "G#4",
          "ticks": 88608,
          "time": 72.86831175,
          "velocity": 0.5826771653543307
        },
        {
          "duration": 0.1578944999999976,
          "durationTicks": 192,
          "midi": 63,
          "name": "D#4",
          "ticks": 88704,
          "time": 72.947259,
          "velocity": 0.5826771653543307
        },
        {
          "duration": 0.1578944999999976,
          "durationTicks": 192,
          "midi": 75,
          "name": "D#5",
          "ticks": 88704,
          "time": 72.947259,
          "velocity": 0.5826771653543307
        },
        {
          "duration": 0.1578944999999976,
          "durationTicks": 192,
          "midi": 67,
          "name": "G4",
          "ticks": 88896,
          "time": 73.1051535,
          "velocity": 0.5826771653543307
        },
        {
          "duration": 0.1578944999999976,
          "durationTicks": 192,
          "midi": 79,
          "name": "G5",
          "ticks": 88896,
          "time": 73.1051535,
          "velocity": 0.5826771653543307
        },
        {
          "duration": 0.1578944999999976,
          "durationTicks": 192,
          "midi": 80,
          "name": "G#5",
          "ticks": 89088,
          "time": 73.263048,
          "velocity": 0.5826771653543307
        },
        {
          "duration": 0.1578944999999976,
          "durationTicks": 192,
          "midi": 68,
          "name": "G#4",
          "ticks": 89088,
          "time": 73.263048,
          "velocity": 0.5826771653543307
        },
        {
          "duration": 0.1578944999999976,
          "durationTicks": 192,
          "midi": 68,
          "name": "G#4",
          "ticks": 89472,
          "time": 73.578837,
          "velocity": 0.5826771653543307
        },
        {
          "duration": 0.1578944999999976,
          "durationTicks": 192,
          "midi": 80,
          "name": "G#5",
          "ticks": 89472,
          "time": 73.578837,
          "velocity": 0.5826771653543307
        },
        {
          "duration": 0.15789450000001182,
          "durationTicks": 192,
          "midi": 82,
          "name": "A#5",
          "ticks": 89664,
          "time": 73.73673149999999,
          "velocity": 0.5826771653543307
        },
        {
          "duration": 0.15789450000001182,
          "durationTicks": 192,
          "midi": 70,
          "name": "A#4",
          "ticks": 89664,
          "time": 73.73673149999999,
          "velocity": 0.5826771653543307
        },
        {
          "duration": 0.1578944999999976,
          "durationTicks": 192,
          "midi": 72,
          "name": "C5",
          "ticks": 89856,
          "time": 73.894626,
          "velocity": 0.5826771653543307
        },
        {
          "duration": 0.1578944999999976,
          "durationTicks": 192,
          "midi": 84,
          "name": "C6",
          "ticks": 89856,
          "time": 73.894626,
          "velocity": 0.5826771653543307
        },
        {
          "duration": 0.1578944999999976,
          "durationTicks": 192,
          "midi": 80,
          "name": "G#5",
          "ticks": 90048,
          "time": 74.0525205,
          "velocity": 0.5826771653543307
        },
        {
          "duration": 0.1578944999999976,
          "durationTicks": 192,
          "midi": 68,
          "name": "G#4",
          "ticks": 90048,
          "time": 74.0525205,
          "velocity": 0.5826771653543307
        },
        {
          "duration": 0.1578944999999976,
          "durationTicks": 192,
          "midi": 84,
          "name": "C6",
          "ticks": 90240,
          "time": 74.210415,
          "velocity": 0.5826771653543307
        },
        {
          "duration": 0.1578944999999976,
          "durationTicks": 192,
          "midi": 72,
          "name": "C5",
          "ticks": 90240,
          "time": 74.210415,
          "velocity": 0.5826771653543307
        },
        {
          "duration": 0.1578944999999976,
          "durationTicks": 192,
          "midi": 80,
          "name": "G#5",
          "ticks": 90432,
          "time": 74.3683095,
          "velocity": 0.5826771653543307
        },
        {
          "duration": 0.1578944999999976,
          "durationTicks": 192,
          "midi": 92,
          "name": "G#6",
          "ticks": 90432,
          "time": 74.3683095,
          "velocity": 0.5826771653543307
        },
        {
          "duration": 0.3157890000000094,
          "durationTicks": 384,
          "midi": 91,
          "name": "G6",
          "ticks": 90624,
          "time": 74.52620399999999,
          "velocity": 0.5826771653543307
        },
        {
          "duration": 0.3157890000000094,
          "durationTicks": 384,
          "midi": 79,
          "name": "G5",
          "ticks": 90624,
          "time": 74.52620399999999,
          "velocity": 0.5826771653543307
        },
        {
          "duration": 0.3157889999999952,
          "durationTicks": 384,
          "midi": 87,
          "name": "D#6",
          "ticks": 91008,
          "time": 74.841993,
          "velocity": 0.5826771653543307
        },
        {
          "duration": 0.3157889999999952,
          "durationTicks": 384,
          "midi": 75,
          "name": "D#5",
          "ticks": 91008,
          "time": 74.841993,
          "velocity": 0.5826771653543307
        },
        {
          "duration": 0.3157889999999952,
          "durationTicks": 384,
          "midi": 70,
          "name": "A#4",
          "ticks": 91392,
          "time": 75.157782,
          "velocity": 0.5826771653543307
        },
        {
          "duration": 0.3157889999999952,
          "durationTicks": 384,
          "midi": 82,
          "name": "A#5",
          "ticks": 91392,
          "time": 75.157782,
          "velocity": 0.5826771653543307
        },
        {
          "duration": 0.3157890000000094,
          "durationTicks": 384,
          "midi": 79,
          "name": "G5",
          "ticks": 91776,
          "time": 75.47357099999999,
          "velocity": 0.5826771653543307
        },
        {
          "duration": 0.3157890000000094,
          "durationTicks": 384,
          "midi": 67,
          "name": "G4",
          "ticks": 91776,
          "time": 75.47357099999999,
          "velocity": 0.5826771653543307
        },
        {
          "duration": 0.4736834999999928,
          "durationTicks": 576,
          "midi": 68,
          "name": "G#4",
          "ticks": 92160,
          "time": 75.78936,
          "velocity": 0.5826771653543307
        },
        {
          "duration": 0.4736834999999928,
          "durationTicks": 576,
          "midi": 80,
          "name": "G#5",
          "ticks": 92160,
          "time": 75.78936,
          "velocity": 0.5826771653543307
        },
        {
          "duration": 0.1578944999999976,
          "durationTicks": 192,
          "midi": 75,
          "name": "D#5",
          "ticks": 92736,
          "time": 76.2630435,
          "velocity": 0.5826771653543307
        },
        {
          "duration": 0.1578944999999976,
          "durationTicks": 192,
          "midi": 87,
          "name": "D#6",
          "ticks": 92736,
          "time": 76.2630435,
          "velocity": 0.5826771653543307
        },
        {
          "duration": 0.1578944999999976,
          "durationTicks": 192,
          "midi": 89,
          "name": "F6",
          "ticks": 92928,
          "time": 76.42093799999999,
          "velocity": 0.5826771653543307
        },
        {
          "duration": 0.1578944999999976,
          "durationTicks": 192,
          "midi": 77,
          "name": "F5",
          "ticks": 92928,
          "time": 76.42093799999999,
          "velocity": 0.5826771653543307
        },
        {
          "duration": 0.1578944999999976,
          "durationTicks": 192,
          "midi": 84,
          "name": "C6",
          "ticks": 93312,
          "time": 76.736727,
          "velocity": 0.5826771653543307
        },
        {
          "duration": 0.1578944999999976,
          "durationTicks": 192,
          "midi": 72,
          "name": "C5",
          "ticks": 93312,
          "time": 76.736727,
          "velocity": 0.5826771653543307
        },
        {
          "duration": 0.2368417499999964,
          "durationTicks": 288,
          "midi": 82,
          "name": "A#5",
          "ticks": 93696,
          "time": 77.052516,
          "velocity": 0.5826771653543307
        },
        {
          "duration": 0.2368417499999964,
          "durationTicks": 288,
          "midi": 70,
          "name": "A#4",
          "ticks": 93696,
          "time": 77.052516,
          "velocity": 0.5826771653543307
        },
        {
          "duration": 0.1578944999999976,
          "durationTicks": 192,
          "midi": 70,
          "name": "A#4",
          "ticks": 94080,
          "time": 77.36830499999999,
          "velocity": 0.5826771653543307
        },
        {
          "duration": 0.1578944999999976,
          "durationTicks": 192,
          "midi": 82,
          "name": "A#5",
          "ticks": 94080,
          "time": 77.36830499999999,
          "velocity": 0.5826771653543307
        },
        {
          "duration": 0.15789450000001182,
          "durationTicks": 192,
          "midi": 84,
          "name": "C6",
          "ticks": 94272,
          "time": 77.52619949999999,
          "velocity": 0.5826771653543307
        },
        {
          "duration": 0.15789450000001182,
          "durationTicks": 192,
          "midi": 72,
          "name": "C5",
          "ticks": 94272,
          "time": 77.52619949999999,
          "velocity": 0.5826771653543307
        },
        {
          "duration": 0.2368417499999964,
          "durationTicks": 288,
          "midi": 70,
          "name": "A#4",
          "ticks": 94464,
          "time": 77.684094,
          "velocity": 0.5826771653543307
        },
        {
          "duration": 0.2368417499999964,
          "durationTicks": 288,
          "midi": 82,
          "name": "A#5",
          "ticks": 94464,
          "time": 77.684094,
          "velocity": 0.5826771653543307
        },
        {
          "duration": 0.2368417499999964,
          "durationTicks": 288,
          "midi": 68,
          "name": "G#4",
          "ticks": 94848,
          "time": 77.999883,
          "velocity": 0.5826771653543307
        },
        {
          "duration": 0.2368417499999964,
          "durationTicks": 288,
          "midi": 80,
          "name": "G#5",
          "ticks": 94848,
          "time": 77.999883,
          "velocity": 0.5826771653543307
        },
        {
          "duration": 0.23684175000001062,
          "durationTicks": 288,
          "midi": 70,
          "name": "A#4",
          "ticks": 95232,
          "time": 78.31567199999999,
          "velocity": 0.5826771653543307
        },
        {
          "duration": 0.23684175000001062,
          "durationTicks": 288,
          "midi": 82,
          "name": "A#5",
          "ticks": 95232,
          "time": 78.31567199999999,
          "velocity": 0.5826771653543307
        },
        {
          "duration": 0.1578944999999976,
          "durationTicks": 192,
          "midi": 70,
          "name": "A#4",
          "ticks": 95616,
          "time": 78.631461,
          "velocity": 0.5826771653543307
        },
        {
          "duration": 0.1578944999999976,
          "durationTicks": 192,
          "midi": 82,
          "name": "A#5",
          "ticks": 95616,
          "time": 78.631461,
          "velocity": 0.5826771653543307
        },
        {
          "duration": 0.1578944999999976,
          "durationTicks": 192,
          "midi": 72,
          "name": "C5",
          "ticks": 95808,
          "time": 78.7893555,
          "velocity": 0.5826771653543307
        },
        {
          "duration": 0.1578944999999976,
          "durationTicks": 192,
          "midi": 84,
          "name": "C6",
          "ticks": 95808,
          "time": 78.7893555,
          "velocity": 0.5826771653543307
        },
        {
          "duration": 0.2368417499999964,
          "durationTicks": 288,
          "midi": 70,
          "name": "A#4",
          "ticks": 96000,
          "time": 78.94725,
          "velocity": 0.5826771653543307
        },
        {
          "duration": 0.2368417499999964,
          "durationTicks": 288,
          "midi": 82,
          "name": "A#5",
          "ticks": 96000,
          "time": 78.94725,
          "velocity": 0.5826771653543307
        },
        {
          "duration": 0.23684175000001062,
          "durationTicks": 288,
          "midi": 68,
          "name": "G#4",
          "ticks": 96384,
          "time": 79.26303899999999,
          "velocity": 0.5826771653543307
        },
        {
          "duration": 0.23684175000001062,
          "durationTicks": 288,
          "midi": 80,
          "name": "G#5",
          "ticks": 96384,
          "time": 79.26303899999999,
          "velocity": 0.5826771653543307
        },
        {
          "duration": 0.6315779999999904,
          "durationTicks": 768,
          "midi": 82,
          "name": "A#5",
          "ticks": 96768,
          "time": 79.578828,
          "velocity": 0.5826771653543307
        },
        {
          "duration": 0.6315779999999904,
          "durationTicks": 768,
          "midi": 70,
          "name": "A#4",
          "ticks": 96768,
          "time": 79.578828,
          "velocity": 0.5826771653543307
        },
        {
          "duration": 0.6315780000000046,
          "durationTicks": 768,
          "midi": 72,
          "name": "C5",
          "ticks": 97536,
          "time": 80.21040599999999,
          "velocity": 0.5826771653543307
        },
        {
          "duration": 0.6315780000000046,
          "durationTicks": 768,
          "midi": 84,
          "name": "C6",
          "ticks": 97536,
          "time": 80.21040599999999,
          "velocity": 0.5826771653543307
        },
        {
          "duration": 0.0789472499999988,
          "durationTicks": 96,
          "midi": 68,
          "name": "G#4",
          "ticks": 98304,
          "time": 80.841984,
          "velocity": 0.5826771653543307
        },
        {
          "duration": 0.0789472499999988,
          "durationTicks": 96,
          "midi": 80,
          "name": "G#5",
          "ticks": 98304,
          "time": 80.841984,
          "velocity": 0.5826771653543307
        },
        {
          "duration": 0.0789472499999988,
          "durationTicks": 96,
          "midi": 65,
          "name": "F4",
          "ticks": 98400,
          "time": 80.92093125,
          "velocity": 0.5826771653543307
        },
        {
          "duration": 0.0789472499999988,
          "durationTicks": 96,
          "midi": 77,
          "name": "F5",
          "ticks": 98400,
          "time": 80.92093125,
          "velocity": 0.5826771653543307
        },
        {
          "duration": 0.0789472499999988,
          "durationTicks": 96,
          "midi": 72,
          "name": "C5",
          "ticks": 98496,
          "time": 80.9998785,
          "velocity": 0.5826771653543307
        },
        {
          "duration": 0.0789472499999988,
          "durationTicks": 96,
          "midi": 60,
          "name": "C4",
          "ticks": 98496,
          "time": 80.9998785,
          "velocity": 0.5826771653543307
        },
        {
          "duration": 0.0789472499999988,
          "durationTicks": 96,
          "midi": 65,
          "name": "F4",
          "ticks": 98592,
          "time": 81.07882575,
          "velocity": 0.5826771653543307
        },
        {
          "duration": 0.0789472499999988,
          "durationTicks": 96,
          "midi": 77,
          "name": "F5",
          "ticks": 98592,
          "time": 81.07882575,
          "velocity": 0.5826771653543307
        },
        {
          "duration": 0.15789450000001182,
          "durationTicks": 192,
          "midi": 80,
          "name": "G#5",
          "ticks": 98688,
          "time": 81.15777299999999,
          "velocity": 0.5826771653543307
        },
        {
          "duration": 0.15789450000001182,
          "durationTicks": 192,
          "midi": 68,
          "name": "G#4",
          "ticks": 98688,
          "time": 81.15777299999999,
          "velocity": 0.5826771653543307
        },
        {
          "duration": 0.1578944999999976,
          "durationTicks": 192,
          "midi": 70,
          "name": "A#4",
          "ticks": 98880,
          "time": 81.3156675,
          "velocity": 0.5826771653543307
        },
        {
          "duration": 0.1578944999999976,
          "durationTicks": 192,
          "midi": 82,
          "name": "A#5",
          "ticks": 98880,
          "time": 81.3156675,
          "velocity": 0.5826771653543307
        },
        {
          "duration": 0.1578944999999976,
          "durationTicks": 192,
          "midi": 72,
          "name": "C5",
          "ticks": 99072,
          "time": 81.473562,
          "velocity": 0.5826771653543307
        },
        {
          "duration": 0.1578944999999976,
          "durationTicks": 192,
          "midi": 84,
          "name": "C6",
          "ticks": 99072,
          "time": 81.473562,
          "velocity": 0.5826771653543307
        },
        {
          "duration": 0.1578944999999976,
          "durationTicks": 192,
          "midi": 80,
          "name": "G#5",
          "ticks": 99456,
          "time": 81.789351,
          "velocity": 0.5826771653543307
        },
        {
          "duration": 0.1578944999999976,
          "durationTicks": 192,
          "midi": 68,
          "name": "G#4",
          "ticks": 99456,
          "time": 81.789351,
          "velocity": 0.5826771653543307
        },
        {
          "duration": 0.0789472499999988,
          "durationTicks": 96,
          "midi": 70,
          "name": "A#4",
          "ticks": 99840,
          "time": 82.10513999999999,
          "velocity": 0.5826771653543307
        },
        {
          "duration": 0.0789472499999988,
          "durationTicks": 96,
          "midi": 82,
          "name": "A#5",
          "ticks": 99840,
          "time": 82.10513999999999,
          "velocity": 0.5826771653543307
        },
        {
          "duration": 0.07894725000001301,
          "durationTicks": 96,
          "midi": 67,
          "name": "G4",
          "ticks": 99936,
          "time": 82.18408724999999,
          "velocity": 0.5826771653543307
        },
        {
          "duration": 0.07894725000001301,
          "durationTicks": 96,
          "midi": 79,
          "name": "G5",
          "ticks": 99936,
          "time": 82.18408724999999,
          "velocity": 0.5826771653543307
        },
        {
          "duration": 0.0789472499999988,
          "durationTicks": 96,
          "midi": 77,
          "name": "F5",
          "ticks": 100032,
          "time": 82.2630345,
          "velocity": 0.5826771653543307
        },
        {
          "duration": 0.0789472499999988,
          "durationTicks": 96,
          "midi": 65,
          "name": "F4",
          "ticks": 100032,
          "time": 82.2630345,
          "velocity": 0.5826771653543307
        },
        {
          "duration": 0.0789472499999988,
          "durationTicks": 96,
          "midi": 79,
          "name": "G5",
          "ticks": 100128,
          "time": 82.34198175,
          "velocity": 0.5826771653543307
        },
        {
          "duration": 0.0789472499999988,
          "durationTicks": 96,
          "midi": 67,
          "name": "G4",
          "ticks": 100128,
          "time": 82.34198175,
          "velocity": 0.5826771653543307
        },
        {
          "duration": 0.1578944999999976,
          "durationTicks": 192,
          "midi": 70,
          "name": "A#4",
          "ticks": 100224,
          "time": 82.420929,
          "velocity": 0.5826771653543307
        },
        {
          "duration": 0.1578944999999976,
          "durationTicks": 192,
          "midi": 82,
          "name": "A#5",
          "ticks": 100224,
          "time": 82.420929,
          "velocity": 0.5826771653543307
        },
        {
          "duration": 0.1578944999999976,
          "durationTicks": 192,
          "midi": 84,
          "name": "C6",
          "ticks": 100416,
          "time": 82.5788235,
          "velocity": 0.5826771653543307
        },
        {
          "duration": 0.1578944999999976,
          "durationTicks": 192,
          "midi": 72,
          "name": "C5",
          "ticks": 100416,
          "time": 82.5788235,
          "velocity": 0.5826771653543307
        },
        {
          "duration": 0.2368417499999964,
          "durationTicks": 288,
          "midi": 67,
          "name": "G4",
          "ticks": 100608,
          "time": 82.736718,
          "velocity": 0.5826771653543307
        },
        {
          "duration": 0.2368417499999964,
          "durationTicks": 288,
          "midi": 79,
          "name": "G5",
          "ticks": 100608,
          "time": 82.736718,
          "velocity": 0.5826771653543307
        },
        {
          "duration": 0.0789472499999988,
          "durationTicks": 96,
          "midi": 80,
          "name": "G#5",
          "ticks": 100896,
          "time": 82.97355974999999,
          "velocity": 0.5826771653543307
        },
        {
          "duration": 0.0789472499999988,
          "durationTicks": 96,
          "midi": 68,
          "name": "G#4",
          "ticks": 100896,
          "time": 82.97355974999999,
          "velocity": 0.5826771653543307
        },
        {
          "duration": 0.15789450000001182,
          "durationTicks": 192,
          "midi": 75,
          "name": "D#5",
          "ticks": 100992,
          "time": 83.05250699999999,
          "velocity": 0.5826771653543307
        },
        {
          "duration": 0.15789450000001182,
          "durationTicks": 192,
          "midi": 63,
          "name": "D#4",
          "ticks": 100992,
          "time": 83.05250699999999,
          "velocity": 0.5826771653543307
        },
        {
          "duration": 0.1578944999999976,
          "durationTicks": 192,
          "midi": 67,
          "name": "G4",
          "ticks": 101184,
          "time": 83.2104015,
          "velocity": 0.5826771653543307
        },
        {
          "duration": 0.1578944999999976,
          "durationTicks": 192,
          "midi": 79,
          "name": "G5",
          "ticks": 101184,
          "time": 83.2104015,
          "velocity": 0.5826771653543307
        },
        {
          "duration": 0.1578944999999976,
          "durationTicks": 192,
          "midi": 80,
          "name": "G#5",
          "ticks": 101376,
          "time": 83.368296,
          "velocity": 0.5826771653543307
        },
        {
          "duration": 0.1578944999999976,
          "durationTicks": 192,
          "midi": 68,
          "name": "G#4",
          "ticks": 101376,
          "time": 83.368296,
          "velocity": 0.5826771653543307
        },
        {
          "duration": 0.1578944999999976,
          "durationTicks": 192,
          "midi": 68,
          "name": "G#4",
          "ticks": 101760,
          "time": 83.684085,
          "velocity": 0.5826771653543307
        },
        {
          "duration": 0.1578944999999976,
          "durationTicks": 192,
          "midi": 80,
          "name": "G#5",
          "ticks": 101760,
          "time": 83.684085,
          "velocity": 0.5826771653543307
        },
        {
          "duration": 0.1578944999999976,
          "durationTicks": 192,
          "midi": 70,
          "name": "A#4",
          "ticks": 101952,
          "time": 83.8419795,
          "velocity": 0.5826771653543307
        },
        {
          "duration": 0.1578944999999976,
          "durationTicks": 192,
          "midi": 82,
          "name": "A#5",
          "ticks": 101952,
          "time": 83.8419795,
          "velocity": 0.5826771653543307
        },
        {
          "duration": 0.15789450000001182,
          "durationTicks": 192,
          "midi": 84,
          "name": "C6",
          "ticks": 102144,
          "time": 83.99987399999999,
          "velocity": 0.5826771653543307
        },
        {
          "duration": 0.15789450000001182,
          "durationTicks": 192,
          "midi": 72,
          "name": "C5",
          "ticks": 102144,
          "time": 83.99987399999999,
          "velocity": 0.5826771653543307
        },
        {
          "duration": 0.1578944999999976,
          "durationTicks": 192,
          "midi": 68,
          "name": "G#4",
          "ticks": 102336,
          "time": 84.1577685,
          "velocity": 0.5826771653543307
        },
        {
          "duration": 0.1578944999999976,
          "durationTicks": 192,
          "midi": 80,
          "name": "G#5",
          "ticks": 102336,
          "time": 84.1577685,
          "velocity": 0.5826771653543307
        },
        {
          "duration": 0.1578944999999976,
          "durationTicks": 192,
          "midi": 72,
          "name": "C5",
          "ticks": 102528,
          "time": 84.315663,
          "velocity": 0.5826771653543307
        },
        {
          "duration": 0.1578944999999976,
          "durationTicks": 192,
          "midi": 84,
          "name": "C6",
          "ticks": 102528,
          "time": 84.315663,
          "velocity": 0.5826771653543307
        },
        {
          "duration": 0.1578944999999976,
          "durationTicks": 192,
          "midi": 92,
          "name": "G#6",
          "ticks": 102720,
          "time": 84.4735575,
          "velocity": 0.5826771653543307
        },
        {
          "duration": 0.1578944999999976,
          "durationTicks": 192,
          "midi": 80,
          "name": "G#5",
          "ticks": 102720,
          "time": 84.4735575,
          "velocity": 0.5826771653543307
        },
        {
          "duration": 0.0789472499999988,
          "durationTicks": 96,
          "midi": 79,
          "name": "G5",
          "ticks": 102912,
          "time": 84.631452,
          "velocity": 0.5826771653543307
        },
        {
          "duration": 0.0789472499999988,
          "durationTicks": 96,
          "midi": 91,
          "name": "G6",
          "ticks": 102912,
          "time": 84.631452,
          "velocity": 0.5826771653543307
        },
        {
          "duration": 0.1184208749999982,
          "durationTicks": 144,
          "midi": 79,
          "name": "G5",
          "ticks": 103008,
          "time": 84.71039925,
          "velocity": 0.5826771653543307
        },
        {
          "duration": 0.1184208749999982,
          "durationTicks": 144,
          "midi": 67,
          "name": "G4",
          "ticks": 103008,
          "time": 84.71039925,
          "velocity": 0.5826771653543307
        },
        {
          "duration": 0.0789472499999988,
          "durationTicks": 96,
          "midi": 79,
          "name": "G5",
          "ticks": 103200,
          "time": 84.86829374999999,
          "velocity": 0.5826771653543307
        },
        {
          "duration": 0.0789472499999988,
          "durationTicks": 96,
          "midi": 67,
          "name": "G4",
          "ticks": 103200,
          "time": 84.86829374999999,
          "velocity": 0.5826771653543307
        },
        {
          "duration": 0.15789450000001182,
          "durationTicks": 192,
          "midi": 75,
          "name": "D#5",
          "ticks": 103296,
          "time": 84.94724099999999,
          "velocity": 0.5826771653543307
        },
        {
          "duration": 0.15789450000001182,
          "durationTicks": 192,
          "midi": 87,
          "name": "D#6",
          "ticks": 103296,
          "time": 84.94724099999999,
          "velocity": 0.5826771653543307
        },
        {
          "duration": 0.0789472499999988,
          "durationTicks": 96,
          "midi": 67,
          "name": "G4",
          "ticks": 103488,
          "time": 85.1051355,
          "velocity": 0.5826771653543307
        },
        {
          "duration": 0.0789472499999988,
          "durationTicks": 96,
          "midi": 79,
          "name": "G5",
          "ticks": 103488,
          "time": 85.1051355,
          "velocity": 0.5826771653543307
        },
        {
          "duration": 0.0789472499999988,
          "durationTicks": 96,
          "midi": 70,
          "name": "A#4",
          "ticks": 103584,
          "time": 85.18408275,
          "velocity": 0.5826771653543307
        },
        {
          "duration": 0.0789472499999988,
          "durationTicks": 96,
          "midi": 82,
          "name": "A#5",
          "ticks": 103584,
          "time": 85.18408275,
          "velocity": 0.5826771653543307
        },
        {
          "duration": 0.1578944999999976,
          "durationTicks": 192,
          "midi": 84,
          "name": "C6",
          "ticks": 103680,
          "time": 85.26303,
          "velocity": 0.5826771653543307
        },
        {
          "duration": 0.1578944999999976,
          "durationTicks": 192,
          "midi": 72,
          "name": "C5",
          "ticks": 103680,
          "time": 85.26303,
          "velocity": 0.5826771653543307
        },
        {
          "duration": 0.0789472499999988,
          "durationTicks": 96,
          "midi": 70,
          "name": "A#4",
          "ticks": 103872,
          "time": 85.4209245,
          "velocity": 0.5826771653543307
        },
        {
          "duration": 0.0789472499999988,
          "durationTicks": 96,
          "midi": 82,
          "name": "A#5",
          "ticks": 103872,
          "time": 85.4209245,
          "velocity": 0.5826771653543307
        },
        {
          "duration": 0.0789472499999988,
          "durationTicks": 96,
          "midi": 72,
          "name": "C5",
          "ticks": 103968,
          "time": 85.49987175,
          "velocity": 0.5826771653543307
        },
        {
          "duration": 0.0789472499999988,
          "durationTicks": 96,
          "midi": 84,
          "name": "C6",
          "ticks": 103968,
          "time": 85.49987175,
          "velocity": 0.5826771653543307
        },
        {
          "duration": 0.1578944999999976,
          "durationTicks": 192,
          "midi": 87,
          "name": "D#6",
          "ticks": 104064,
          "time": 85.578819,
          "velocity": 0.5826771653543307
        },
        {
          "duration": 0.1578944999999976,
          "durationTicks": 192,
          "midi": 75,
          "name": "D#5",
          "ticks": 104064,
          "time": 85.578819,
          "velocity": 0.5826771653543307
        },
        {
          "duration": 0.0789472499999988,
          "durationTicks": 96,
          "midi": 84,
          "name": "C6",
          "ticks": 104256,
          "time": 85.7367135,
          "velocity": 0.5826771653543307
        },
        {
          "duration": 0.0789472499999988,
          "durationTicks": 96,
          "midi": 72,
          "name": "C5",
          "ticks": 104256,
          "time": 85.7367135,
          "velocity": 0.5826771653543307
        },
        {
          "duration": 0.0789472499999988,
          "durationTicks": 96,
          "midi": 87,
          "name": "D#6",
          "ticks": 104352,
          "time": 85.81566074999999,
          "velocity": 0.5826771653543307
        },
        {
          "duration": 0.0789472499999988,
          "durationTicks": 96,
          "midi": 75,
          "name": "D#5",
          "ticks": 104352,
          "time": 85.81566074999999,
          "velocity": 0.5826771653543307
        },
        {
          "duration": 0.3157890000000094,
          "durationTicks": 384,
          "midi": 89,
          "name": "F6",
          "ticks": 104448,
          "time": 85.89460799999999,
          "velocity": 0.5826771653543307
        },
        {
          "duration": 0.3157890000000094,
          "durationTicks": 384,
          "midi": 77,
          "name": "F5",
          "ticks": 104448,
          "time": 85.89460799999999,
          "velocity": 0.5826771653543307
        },
        {
          "duration": 0.1578944999999976,
          "durationTicks": 192,
          "midi": 84,
          "name": "C6",
          "ticks": 104832,
          "time": 86.210397,
          "velocity": 0.5826771653543307
        },
        {
          "duration": 0.1578944999999976,
          "durationTicks": 192,
          "midi": 72,
          "name": "C5",
          "ticks": 104832,
          "time": 86.210397,
          "velocity": 0.5826771653543307
        },
        {
          "duration": 0.1578944999999976,
          "durationTicks": 192,
          "midi": 75,
          "name": "D#5",
          "ticks": 105024,
          "time": 86.3682915,
          "velocity": 0.5826771653543307
        },
        {
          "duration": 0.1578944999999976,
          "durationTicks": 192,
          "midi": 87,
          "name": "D#6",
          "ticks": 105024,
          "time": 86.3682915,
          "velocity": 0.5826771653543307
        },
        {
          "duration": 0.1578944999999976,
          "durationTicks": 192,
          "midi": 89,
          "name": "F6",
          "ticks": 105216,
          "time": 86.526186,
          "velocity": 0.5826771653543307
        },
        {
          "duration": 0.1578944999999976,
          "durationTicks": 192,
          "midi": 77,
          "name": "F5",
          "ticks": 105216,
          "time": 86.526186,
          "velocity": 0.5826771653543307
        },
        {
          "duration": 0.15789450000001182,
          "durationTicks": 192,
          "midi": 84,
          "name": "C6",
          "ticks": 105600,
          "time": 86.84197499999999,
          "velocity": 0.5826771653543307
        },
        {
          "duration": 0.15789450000001182,
          "durationTicks": 192,
          "midi": 72,
          "name": "C5",
          "ticks": 105600,
          "time": 86.84197499999999,
          "velocity": 0.5826771653543307
        },
        {
          "duration": 0.2368417499999964,
          "durationTicks": 288,
          "midi": 70,
          "name": "A#4",
          "ticks": 105984,
          "time": 87.157764,
          "velocity": 0.5826771653543307
        },
        {
          "duration": 0.2368417499999964,
          "durationTicks": 288,
          "midi": 82,
          "name": "A#5",
          "ticks": 105984,
          "time": 87.157764,
          "velocity": 0.5826771653543307
        },
        {
          "duration": 0.1578944999999976,
          "durationTicks": 192,
          "midi": 82,
          "name": "A#5",
          "ticks": 106368,
          "time": 87.473553,
          "velocity": 0.5826771653543307
        },
        {
          "duration": 0.1578944999999976,
          "durationTicks": 192,
          "midi": 70,
          "name": "A#4",
          "ticks": 106368,
          "time": 87.473553,
          "velocity": 0.5826771653543307
        },
        {
          "duration": 0.1578944999999976,
          "durationTicks": 192,
          "midi": 84,
          "name": "C6",
          "ticks": 106560,
          "time": 87.6314475,
          "velocity": 0.5826771653543307
        },
        {
          "duration": 0.1578944999999976,
          "durationTicks": 192,
          "midi": 72,
          "name": "C5",
          "ticks": 106560,
          "time": 87.6314475,
          "velocity": 0.5826771653543307
        },
        {
          "duration": 0.23684175000001062,
          "durationTicks": 288,
          "midi": 82,
          "name": "A#5",
          "ticks": 106752,
          "time": 87.78934199999999,
          "velocity": 0.5826771653543307
        },
        {
          "duration": 0.23684175000001062,
          "durationTicks": 288,
          "midi": 70,
          "name": "A#4",
          "ticks": 106752,
          "time": 87.78934199999999,
          "velocity": 0.5826771653543307
        },
        {
          "duration": 0.2368417499999964,
          "durationTicks": 288,
          "midi": 80,
          "name": "G#5",
          "ticks": 107136,
          "time": 88.105131,
          "velocity": 0.5826771653543307
        },
        {
          "duration": 0.2368417499999964,
          "durationTicks": 288,
          "midi": 68,
          "name": "G#4",
          "ticks": 107136,
          "time": 88.105131,
          "velocity": 0.5826771653543307
        },
        {
          "duration": 0.1578944999999976,
          "durationTicks": 192,
          "midi": 70,
          "name": "A#4",
          "ticks": 107520,
          "time": 88.42092,
          "velocity": 0.5826771653543307
        },
        {
          "duration": 0.1578944999999976,
          "durationTicks": 192,
          "midi": 82,
          "name": "A#5",
          "ticks": 107520,
          "time": 88.42092,
          "velocity": 0.5826771653543307
        },
        {
          "duration": 0.1578944999999976,
          "durationTicks": 192,
          "midi": 68,
          "name": "G#4",
          "ticks": 107712,
          "time": 88.5788145,
          "velocity": 0.5826771653543307
        },
        {
          "duration": 0.1578944999999976,
          "durationTicks": 192,
          "midi": 80,
          "name": "G#5",
          "ticks": 107712,
          "time": 88.5788145,
          "velocity": 0.5826771653543307
        },
        {
          "duration": 0.15789450000001182,
          "durationTicks": 192,
          "midi": 70,
          "name": "A#4",
          "ticks": 107904,
          "time": 88.73670899999999,
          "velocity": 0.5826771653543307
        },
        {
          "duration": 0.15789450000001182,
          "durationTicks": 192,
          "midi": 82,
          "name": "A#5",
          "ticks": 107904,
          "time": 88.73670899999999,
          "velocity": 0.5826771653543307
        },
        {
          "duration": 0.1578944999999976,
          "durationTicks": 192,
          "midi": 84,
          "name": "C6",
          "ticks": 108096,
          "time": 88.8946035,
          "velocity": 0.5826771653543307
        },
        {
          "duration": 0.1578944999999976,
          "durationTicks": 192,
          "midi": 72,
          "name": "C5",
          "ticks": 108096,
          "time": 88.8946035,
          "velocity": 0.5826771653543307
        },
        {
          "duration": 0.1578944999999976,
          "durationTicks": 192,
          "midi": 87,
          "name": "D#6",
          "ticks": 108288,
          "time": 89.052498,
          "velocity": 0.5826771653543307
        },
        {
          "duration": 0.1578944999999976,
          "durationTicks": 192,
          "midi": 75,
          "name": "D#5",
          "ticks": 108288,
          "time": 89.052498,
          "velocity": 0.5826771653543307
        },
        {
          "duration": 0.1578944999999976,
          "durationTicks": 192,
          "midi": 72,
          "name": "C5",
          "ticks": 108480,
          "time": 89.2103925,
          "velocity": 0.5826771653543307
        },
        {
          "duration": 0.1578944999999976,
          "durationTicks": 192,
          "midi": 84,
          "name": "C6",
          "ticks": 108480,
          "time": 89.2103925,
          "velocity": 0.5826771653543307
        },
        {
          "duration": 0.1578944999999976,
          "durationTicks": 192,
          "midi": 80,
          "name": "G#5",
          "ticks": 108672,
          "time": 89.368287,
          "velocity": 0.5826771653543307
        },
        {
          "duration": 0.1578944999999976,
          "durationTicks": 192,
          "midi": 68,
          "name": "G#4",
          "ticks": 108672,
          "time": 89.368287,
          "velocity": 0.5826771653543307
        },
        {
          "duration": 0.1578944999999976,
          "durationTicks": 192,
          "midi": 77,
          "name": "F5",
          "ticks": 108864,
          "time": 89.52618149999999,
          "velocity": 0.5826771653543307
        },
        {
          "duration": 0.1578944999999976,
          "durationTicks": 192,
          "midi": 65,
          "name": "F4",
          "ticks": 108864,
          "time": 89.52618149999999,
          "velocity": 0.5826771653543307
        },
        {
          "duration": 0.0789472499999988,
          "durationTicks": 96,
          "midi": 82,
          "name": "A#5",
          "ticks": 109056,
          "time": 89.68407599999999,
          "velocity": 0.5826771653543307
        },
        {
          "duration": 0.0789472499999988,
          "durationTicks": 96,
          "midi": 70,
          "name": "A#4",
          "ticks": 109056,
          "time": 89.68407599999999,
          "velocity": 0.5826771653543307
        },
        {
          "duration": 0.07894725000001301,
          "durationTicks": 96,
          "midi": 68,
          "name": "G#4",
          "ticks": 109152,
          "time": 89.76302324999999,
          "velocity": 0.5826771653543307
        },
        {
          "duration": 0.07894725000001301,
          "durationTicks": 96,
          "midi": 80,
          "name": "G#5",
          "ticks": 109152,
          "time": 89.76302324999999,
          "velocity": 0.5826771653543307
        },
        {
          "duration": 0.0789472499999988,
          "durationTicks": 96,
          "midi": 65,
          "name": "F4",
          "ticks": 109248,
          "time": 89.8419705,
          "velocity": 0.5826771653543307
        },
        {
          "duration": 0.0789472499999988,
          "durationTicks": 96,
          "midi": 77,
          "name": "F5",
          "ticks": 109248,
          "time": 89.8419705,
          "velocity": 0.5826771653543307
        },
        {
          "duration": 0.0789472499999988,
          "durationTicks": 96,
          "midi": 72,
          "name": "C5",
          "ticks": 109344,
          "time": 89.92091775,
          "velocity": 0.5826771653543307
        },
        {
          "duration": 0.0789472499999988,
          "durationTicks": 96,
          "midi": 60,
          "name": "C4",
          "ticks": 109344,
          "time": 89.92091775,
          "velocity": 0.5826771653543307
        },
        {
          "duration": 0.0789472499999988,
          "durationTicks": 96,
          "midi": 82,
          "name": "A#5",
          "ticks": 109440,
          "time": 89.999865,
          "velocity": 0.5826771653543307
        },
        {
          "duration": 0.0789472499999988,
          "durationTicks": 96,
          "midi": 70,
          "name": "A#4",
          "ticks": 109440,
          "time": 89.999865,
          "velocity": 0.5826771653543307
        },
        {
          "duration": 0.0789472499999988,
          "durationTicks": 96,
          "midi": 80,
          "name": "G#5",
          "ticks": 109536,
          "time": 90.07881225,
          "velocity": 0.5826771653543307
        },
        {
          "duration": 0.0789472499999988,
          "durationTicks": 96,
          "midi": 68,
          "name": "G#4",
          "ticks": 109536,
          "time": 90.07881225,
          "velocity": 0.5826771653543307
        },
        {
          "duration": 0.0789472499999988,
          "durationTicks": 96,
          "midi": 77,
          "name": "F5",
          "ticks": 109632,
          "time": 90.1577595,
          "velocity": 0.5826771653543307
        },
        {
          "duration": 0.0789472499999988,
          "durationTicks": 96,
          "midi": 65,
          "name": "F4",
          "ticks": 109632,
          "time": 90.1577595,
          "velocity": 0.5826771653543307
        },
        {
          "duration": 0.0789472499999988,
          "durationTicks": 96,
          "midi": 72,
          "name": "C5",
          "ticks": 109728,
          "time": 90.23670675,
          "velocity": 0.5826771653543307
        },
        {
          "duration": 0.0789472499999988,
          "durationTicks": 96,
          "midi": 60,
          "name": "C4",
          "ticks": 109728,
          "time": 90.23670675,
          "velocity": 0.5826771653543307
        },
        {
          "duration": 0.0789472499999988,
          "durationTicks": 96,
          "midi": 72,
          "name": "C5",
          "ticks": 109824,
          "time": 90.315654,
          "velocity": 0.5826771653543307
        },
        {
          "duration": 0.0789472499999988,
          "durationTicks": 96,
          "midi": 84,
          "name": "C6",
          "ticks": 109824,
          "time": 90.315654,
          "velocity": 0.5826771653543307
        },
        {
          "duration": 0.0789472499999988,
          "durationTicks": 96,
          "midi": 67,
          "name": "G4",
          "ticks": 109920,
          "time": 90.39460125,
          "velocity": 0.5826771653543307
        },
        {
          "duration": 0.0789472499999988,
          "durationTicks": 96,
          "midi": 79,
          "name": "G5",
          "ticks": 109920,
          "time": 90.39460125,
          "velocity": 0.5826771653543307
        },
        {
          "duration": 0.0789472499999988,
          "durationTicks": 96,
          "midi": 64,
          "name": "E4",
          "ticks": 110016,
          "time": 90.47354849999999,
          "velocity": 0.5826771653543307
        },
        {
          "duration": 0.0789472499999988,
          "durationTicks": 96,
          "midi": 76,
          "name": "E5",
          "ticks": 110016,
          "time": 90.47354849999999,
          "velocity": 0.5826771653543307
        },
        {
          "duration": 0.0789472499999988,
          "durationTicks": 96,
          "midi": 72,
          "name": "C5",
          "ticks": 110112,
          "time": 90.55249574999999,
          "velocity": 0.5826771653543307
        },
        {
          "duration": 0.0789472499999988,
          "durationTicks": 96,
          "midi": 60,
          "name": "C4",
          "ticks": 110112,
          "time": 90.55249574999999,
          "velocity": 0.5826771653543307
        },
        {
          "duration": 0.0789472499999988,
          "durationTicks": 96,
          "midi": 84,
          "name": "C6",
          "ticks": 110208,
          "time": 90.63144299999999,
          "velocity": 0.5826771653543307
        },
        {
          "duration": 0.0789472499999988,
          "durationTicks": 96,
          "midi": 72,
          "name": "C5",
          "ticks": 110208,
          "time": 90.63144299999999,
          "velocity": 0.5826771653543307
        },
        {
          "duration": 0.07894725000001301,
          "durationTicks": 96,
          "midi": 79,
          "name": "G5",
          "ticks": 110304,
          "time": 90.71039024999999,
          "velocity": 0.5826771653543307
        },
        {
          "duration": 0.07894725000001301,
          "durationTicks": 96,
          "midi": 67,
          "name": "G4",
          "ticks": 110304,
          "time": 90.71039024999999,
          "velocity": 0.5826771653543307
        },
        {
          "duration": 0.0789472499999988,
          "durationTicks": 96,
          "midi": 64,
          "name": "E4",
          "ticks": 110400,
          "time": 90.7893375,
          "velocity": 0.5826771653543307
        },
        {
          "duration": 0.0789472499999988,
          "durationTicks": 96,
          "midi": 76,
          "name": "E5",
          "ticks": 110400,
          "time": 90.7893375,
          "velocity": 0.5826771653543307
        },
        {
          "duration": 0.0789472499999988,
          "durationTicks": 96,
          "midi": 72,
          "name": "C5",
          "ticks": 110496,
          "time": 90.86828475,
          "velocity": 0.5826771653543307
        },
        {
          "duration": 0.0789472499999988,
          "durationTicks": 96,
          "midi": 60,
          "name": "C4",
          "ticks": 110496,
          "time": 90.86828475,
          "velocity": 0.5826771653543307
        },
        {
          "duration": 0.0789472499999988,
          "durationTicks": 96,
          "midi": 80,
          "name": "G#5",
          "ticks": 110592,
          "time": 90.947232,
          "velocity": 0.5826771653543307
        },
        {
          "duration": 0.0789472499999988,
          "durationTicks": 96,
          "midi": 68,
          "name": "G#4",
          "ticks": 110592,
          "time": 90.947232,
          "velocity": 0.5826771653543307
        },
        {
          "duration": 0.0789472499999988,
          "durationTicks": 96,
          "midi": 65,
          "name": "F4",
          "ticks": 110688,
          "time": 91.02617925,
          "velocity": 0.5826771653543307
        },
        {
          "duration": 0.0789472499999988,
          "durationTicks": 96,
          "midi": 77,
          "name": "F5",
          "ticks": 110688,
          "time": 91.02617925,
          "velocity": 0.5826771653543307
        },
        {
          "duration": 0.0789472499999988,
          "durationTicks": 96,
          "midi": 60,
          "name": "C4",
          "ticks": 110784,
          "time": 91.1051265,
          "velocity": 0.5826771653543307
        },
        {
          "duration": 0.0789472499999988,
          "durationTicks": 96,
          "midi": 72,
          "name": "C5",
          "ticks": 110784,
          "time": 91.1051265,
          "velocity": 0.5826771653543307
        },
        {
          "duration": 0.0789472499999988,
          "durationTicks": 96,
          "midi": 65,
          "name": "F4",
          "ticks": 110880,
          "time": 91.18407375,
          "velocity": 0.5826771653543307
        },
        {
          "duration": 0.0789472499999988,
          "durationTicks": 96,
          "midi": 77,
          "name": "F5",
          "ticks": 110880,
          "time": 91.18407375,
          "velocity": 0.5826771653543307
        },
        {
          "duration": 0.1578944999999976,
          "durationTicks": 192,
          "midi": 68,
          "name": "G#4",
          "ticks": 110976,
          "time": 91.263021,
          "velocity": 0.5826771653543307
        },
        {
          "duration": 0.1578944999999976,
          "durationTicks": 192,
          "midi": 80,
          "name": "G#5",
          "ticks": 110976,
          "time": 91.263021,
          "velocity": 0.5826771653543307
        },
        {
          "duration": 0.1578944999999976,
          "durationTicks": 192,
          "midi": 70,
          "name": "A#4",
          "ticks": 111168,
          "time": 91.42091549999999,
          "velocity": 0.5826771653543307
        },
        {
          "duration": 0.1578944999999976,
          "durationTicks": 192,
          "midi": 82,
          "name": "A#5",
          "ticks": 111168,
          "time": 91.42091549999999,
          "velocity": 0.5826771653543307
        },
        {
          "duration": 0.15789450000001182,
          "durationTicks": 192,
          "midi": 84,
          "name": "C6",
          "ticks": 111360,
          "time": 91.57880999999999,
          "velocity": 0.5826771653543307
        },
        {
          "duration": 0.15789450000001182,
          "durationTicks": 192,
          "midi": 72,
          "name": "C5",
          "ticks": 111360,
          "time": 91.57880999999999,
          "velocity": 0.5826771653543307
        },
        {
          "duration": 0.1578944999999976,
          "durationTicks": 192,
          "midi": 80,
          "name": "G#5",
          "ticks": 111744,
          "time": 91.894599,
          "velocity": 0.5826771653543307
        },
        {
          "duration": 0.1578944999999976,
          "durationTicks": 192,
          "midi": 68,
          "name": "G#4",
          "ticks": 111744,
          "time": 91.894599,
          "velocity": 0.5826771653543307
        },
        {
          "duration": 0.0789472499999988,
          "durationTicks": 96,
          "midi": 82,
          "name": "A#5",
          "ticks": 112128,
          "time": 92.210388,
          "velocity": 0.5826771653543307
        },
        {
          "duration": 0.0789472499999988,
          "durationTicks": 96,
          "midi": 70,
          "name": "A#4",
          "ticks": 112128,
          "time": 92.210388,
          "velocity": 0.5826771653543307
        },
        {
          "duration": 0.0789472499999988,
          "durationTicks": 96,
          "midi": 67,
          "name": "G4",
          "ticks": 112224,
          "time": 92.28933525,
          "velocity": 0.5826771653543307
        },
        {
          "duration": 0.0789472499999988,
          "durationTicks": 96,
          "midi": 79,
          "name": "G5",
          "ticks": 112224,
          "time": 92.28933525,
          "velocity": 0.5826771653543307
        },
        {
          "duration": 0.0789472499999988,
          "durationTicks": 96,
          "midi": 77,
          "name": "F5",
          "ticks": 112320,
          "time": 92.36828249999999,
          "velocity": 0.5826771653543307
        },
        {
          "duration": 0.0789472499999988,
          "durationTicks": 96,
          "midi": 65,
          "name": "F4",
          "ticks": 112320,
          "time": 92.36828249999999,
          "velocity": 0.5826771653543307
        },
        {
          "duration": 0.0789472499999988,
          "durationTicks": 96,
          "midi": 79,
          "name": "G5",
          "ticks": 112416,
          "time": 92.44722974999999,
          "velocity": 0.5826771653543307
        },
        {
          "duration": 0.0789472499999988,
          "durationTicks": 96,
          "midi": 67,
          "name": "G4",
          "ticks": 112416,
          "time": 92.44722974999999,
          "velocity": 0.5826771653543307
        },
        {
          "duration": 0.15789450000001182,
          "durationTicks": 192,
          "midi": 82,
          "name": "A#5",
          "ticks": 112512,
          "time": 92.52617699999999,
          "velocity": 0.5826771653543307
        },
        {
          "duration": 0.15789450000001182,
          "durationTicks": 192,
          "midi": 70,
          "name": "A#4",
          "ticks": 112512,
          "time": 92.52617699999999,
          "velocity": 0.5826771653543307
        },
        {
          "duration": 0.1578944999999976,
          "durationTicks": 192,
          "midi": 72,
          "name": "C5",
          "ticks": 112704,
          "time": 92.6840715,
          "velocity": 0.5826771653543307
        },
        {
          "duration": 0.1578944999999976,
          "durationTicks": 192,
          "midi": 84,
          "name": "C6",
          "ticks": 112704,
          "time": 92.6840715,
          "velocity": 0.5826771653543307
        },
        {
          "duration": 0.2368417499999964,
          "durationTicks": 288,
          "midi": 79,
          "name": "G5",
          "ticks": 112896,
          "time": 92.841966,
          "velocity": 0.5826771653543307
        },
        {
          "duration": 0.2368417499999964,
          "durationTicks": 288,
          "midi": 67,
          "name": "G4",
          "ticks": 112896,
          "time": 92.841966,
          "velocity": 0.5826771653543307
        },
        {
          "duration": 0.0789472499999988,
          "durationTicks": 96,
          "midi": 68,
          "name": "G#4",
          "ticks": 113184,
          "time": 93.07880775,
          "velocity": 0.5826771653543307
        },
        {
          "duration": 0.0789472499999988,
          "durationTicks": 96,
          "midi": 80,
          "name": "G#5",
          "ticks": 113184,
          "time": 93.07880775,
          "velocity": 0.5826771653543307
        },
        {
          "duration": 0.1578944999999976,
          "durationTicks": 192,
          "midi": 63,
          "name": "D#4",
          "ticks": 113280,
          "time": 93.157755,
          "velocity": 0.5826771653543307
        },
        {
          "duration": 0.1578944999999976,
          "durationTicks": 192,
          "midi": 75,
          "name": "D#5",
          "ticks": 113280,
          "time": 93.157755,
          "velocity": 0.5826771653543307
        },
        {
          "duration": 0.1578944999999976,
          "durationTicks": 192,
          "midi": 79,
          "name": "G5",
          "ticks": 113472,
          "time": 93.31564949999999,
          "velocity": 0.5826771653543307
        },
        {
          "duration": 0.1578944999999976,
          "durationTicks": 192,
          "midi": 67,
          "name": "G4",
          "ticks": 113472,
          "time": 93.31564949999999,
          "velocity": 0.5826771653543307
        },
        {
          "duration": 0.15789450000001182,
          "durationTicks": 192,
          "midi": 80,
          "name": "G#5",
          "ticks": 113664,
          "time": 93.47354399999999,
          "velocity": 0.5826771653543307
        },
        {
          "duration": 0.15789450000001182,
          "durationTicks": 192,
          "midi": 68,
          "name": "G#4",
          "ticks": 113664,
          "time": 93.47354399999999,
          "velocity": 0.5826771653543307
        },
        {
          "duration": 0.1578944999999976,
          "durationTicks": 192,
          "midi": 80,
          "name": "G#5",
          "ticks": 114048,
          "time": 93.789333,
          "velocity": 0.5826771653543307
        },
        {
          "duration": 0.1578944999999976,
          "durationTicks": 192,
          "midi": 68,
          "name": "G#4",
          "ticks": 114048,
          "time": 93.789333,
          "velocity": 0.5826771653543307
        },
        {
          "duration": 0.1578944999999976,
          "durationTicks": 192,
          "midi": 70,
          "name": "A#4",
          "ticks": 114240,
          "time": 93.9472275,
          "velocity": 0.5826771653543307
        },
        {
          "duration": 0.1578944999999976,
          "durationTicks": 192,
          "midi": 82,
          "name": "A#5",
          "ticks": 114240,
          "time": 93.9472275,
          "velocity": 0.5826771653543307
        },
        {
          "duration": 0.1578944999999976,
          "durationTicks": 192,
          "midi": 84,
          "name": "C6",
          "ticks": 114432,
          "time": 94.105122,
          "velocity": 0.5826771653543307
        },
        {
          "duration": 0.1578944999999976,
          "durationTicks": 192,
          "midi": 72,
          "name": "C5",
          "ticks": 114432,
          "time": 94.105122,
          "velocity": 0.5826771653543307
        },
        {
          "duration": 0.1578944999999976,
          "durationTicks": 192,
          "midi": 68,
          "name": "G#4",
          "ticks": 114624,
          "time": 94.26301649999999,
          "velocity": 0.5826771653543307
        },
        {
          "duration": 0.1578944999999976,
          "durationTicks": 192,
          "midi": 80,
          "name": "G#5",
          "ticks": 114624,
          "time": 94.26301649999999,
          "velocity": 0.5826771653543307
        },
        {
          "duration": 0.15789450000001182,
          "durationTicks": 192,
          "midi": 84,
          "name": "C6",
          "ticks": 114816,
          "time": 94.42091099999999,
          "velocity": 0.5826771653543307
        },
        {
          "duration": 0.15789450000001182,
          "durationTicks": 192,
          "midi": 72,
          "name": "C5",
          "ticks": 114816,
          "time": 94.42091099999999,
          "velocity": 0.5826771653543307
        },
        {
          "duration": 0.1578944999999976,
          "durationTicks": 192,
          "midi": 80,
          "name": "G#5",
          "ticks": 115008,
          "time": 94.5788055,
          "velocity": 0.5826771653543307
        },
        {
          "duration": 0.1578944999999976,
          "durationTicks": 192,
          "midi": 92,
          "name": "G#6",
          "ticks": 115008,
          "time": 94.5788055,
          "velocity": 0.5826771653543307
        },
        {
          "duration": 0.0789472499999988,
          "durationTicks": 96,
          "midi": 91,
          "name": "G6",
          "ticks": 115200,
          "time": 94.7367,
          "velocity": 0.5826771653543307
        },
        {
          "duration": 0.0789472499999988,
          "durationTicks": 96,
          "midi": 79,
          "name": "G5",
          "ticks": 115200,
          "time": 94.7367,
          "velocity": 0.5826771653543307
        },
        {
          "duration": 0.1184208749999982,
          "durationTicks": 144,
          "midi": 67,
          "name": "G4",
          "ticks": 115296,
          "time": 94.81564725,
          "velocity": 0.5826771653543307
        },
        {
          "duration": 0.1184208749999982,
          "durationTicks": 144,
          "midi": 79,
          "name": "G5",
          "ticks": 115296,
          "time": 94.81564725,
          "velocity": 0.5826771653543307
        },
        {
          "duration": 0.0789472499999988,
          "durationTicks": 96,
          "midi": 67,
          "name": "G4",
          "ticks": 115488,
          "time": 94.97354175,
          "velocity": 0.5826771653543307
        },
        {
          "duration": 0.0789472499999988,
          "durationTicks": 96,
          "midi": 79,
          "name": "G5",
          "ticks": 115488,
          "time": 94.97354175,
          "velocity": 0.5826771653543307
        },
        {
          "duration": 0.1578944999999976,
          "durationTicks": 192,
          "midi": 75,
          "name": "D#5",
          "ticks": 115584,
          "time": 95.052489,
          "velocity": 0.5826771653543307
        },
        {
          "duration": 0.1578944999999976,
          "durationTicks": 192,
          "midi": 87,
          "name": "D#6",
          "ticks": 115584,
          "time": 95.052489,
          "velocity": 0.5826771653543307
        },
        {
          "duration": 0.0789472499999988,
          "durationTicks": 96,
          "midi": 67,
          "name": "G4",
          "ticks": 115776,
          "time": 95.21038349999999,
          "velocity": 0.5826771653543307
        },
        {
          "duration": 0.0789472499999988,
          "durationTicks": 96,
          "midi": 79,
          "name": "G5",
          "ticks": 115776,
          "time": 95.21038349999999,
          "velocity": 0.5826771653543307
        },
        {
          "duration": 0.0789472499999988,
          "durationTicks": 96,
          "midi": 82,
          "name": "A#5",
          "ticks": 115872,
          "time": 95.28933074999999,
          "velocity": 0.5826771653543307
        },
        {
          "duration": 0.0789472499999988,
          "durationTicks": 96,
          "midi": 70,
          "name": "A#4",
          "ticks": 115872,
          "time": 95.28933074999999,
          "velocity": 0.5826771653543307
        },
        {
          "duration": 0.15789450000001182,
          "durationTicks": 192,
          "midi": 84,
          "name": "C6",
          "ticks": 115968,
          "time": 95.36827799999999,
          "velocity": 0.5826771653543307
        },
        {
          "duration": 0.15789450000001182,
          "durationTicks": 192,
          "midi": 72,
          "name": "C5",
          "ticks": 115968,
          "time": 95.36827799999999,
          "velocity": 0.5826771653543307
        },
        {
          "duration": 0.0789472499999988,
          "durationTicks": 96,
          "midi": 70,
          "name": "A#4",
          "ticks": 116160,
          "time": 95.5261725,
          "velocity": 0.5826771653543307
        },
        {
          "duration": 0.0789472499999988,
          "durationTicks": 96,
          "midi": 82,
          "name": "A#5",
          "ticks": 116160,
          "time": 95.5261725,
          "velocity": 0.5826771653543307
        },
        {
          "duration": 0.0789472499999988,
          "durationTicks": 96,
          "midi": 72,
          "name": "C5",
          "ticks": 116256,
          "time": 95.60511975,
          "velocity": 0.5826771653543307
        },
        {
          "duration": 0.0789472499999988,
          "durationTicks": 96,
          "midi": 84,
          "name": "C6",
          "ticks": 116256,
          "time": 95.60511975,
          "velocity": 0.5826771653543307
        },
        {
          "duration": 0.1578944999999976,
          "durationTicks": 192,
          "midi": 75,
          "name": "D#5",
          "ticks": 116352,
          "time": 95.684067,
          "velocity": 0.5826771653543307
        },
        {
          "duration": 0.1578944999999976,
          "durationTicks": 192,
          "midi": 87,
          "name": "D#6",
          "ticks": 116352,
          "time": 95.684067,
          "velocity": 0.5826771653543307
        },
        {
          "duration": 0.0789472499999988,
          "durationTicks": 96,
          "midi": 72,
          "name": "C5",
          "ticks": 116544,
          "time": 95.8419615,
          "velocity": 0.5826771653543307
        },
        {
          "duration": 0.0789472499999988,
          "durationTicks": 96,
          "midi": 84,
          "name": "C6",
          "ticks": 116544,
          "time": 95.8419615,
          "velocity": 0.5826771653543307
        },
        {
          "duration": 0.0789472499999988,
          "durationTicks": 96,
          "midi": 87,
          "name": "D#6",
          "ticks": 116640,
          "time": 95.92090875,
          "velocity": 0.5826771653543307
        },
        {
          "duration": 0.0789472499999988,
          "durationTicks": 96,
          "midi": 75,
          "name": "D#5",
          "ticks": 116640,
          "time": 95.92090875,
          "velocity": 0.5826771653543307
        },
        {
          "duration": 0.3157889999999952,
          "durationTicks": 384,
          "midi": 77,
          "name": "F5",
          "ticks": 116736,
          "time": 95.999856,
          "velocity": 0.5826771653543307
        },
        {
          "duration": 0.3157889999999952,
          "durationTicks": 384,
          "midi": 89,
          "name": "F6",
          "ticks": 116736,
          "time": 95.999856,
          "velocity": 0.5826771653543307
        },
        {
          "duration": 0.15789450000001182,
          "durationTicks": 192,
          "midi": 72,
          "name": "C5",
          "ticks": 117120,
          "time": 96.31564499999999,
          "velocity": 0.5826771653543307
        },
        {
          "duration": 0.15789450000001182,
          "durationTicks": 192,
          "midi": 84,
          "name": "C6",
          "ticks": 117120,
          "time": 96.31564499999999,
          "velocity": 0.5826771653543307
        },
        {
          "duration": 0.1578944999999976,
          "durationTicks": 192,
          "midi": 87,
          "name": "D#6",
          "ticks": 117312,
          "time": 96.4735395,
          "velocity": 0.5826771653543307
        },
        {
          "duration": 0.1578944999999976,
          "durationTicks": 192,
          "midi": 75,
          "name": "D#5",
          "ticks": 117312,
          "time": 96.4735395,
          "velocity": 0.5826771653543307
        },
        {
          "duration": 0.1578944999999976,
          "durationTicks": 192,
          "midi": 89,
          "name": "F6",
          "ticks": 117504,
          "time": 96.631434,
          "velocity": 0.5826771653543307
        },
        {
          "duration": 0.1578944999999976,
          "durationTicks": 192,
          "midi": 77,
          "name": "F5",
          "ticks": 117504,
          "time": 96.631434,
          "velocity": 0.5826771653543307
        },
        {
          "duration": 0.1578944999999976,
          "durationTicks": 192,
          "midi": 84,
          "name": "C6",
          "ticks": 117888,
          "time": 96.947223,
          "velocity": 0.5826771653543307
        },
        {
          "duration": 0.1578944999999976,
          "durationTicks": 192,
          "midi": 72,
          "name": "C5",
          "ticks": 117888,
          "time": 96.947223,
          "velocity": 0.5826771653543307
        },
        {
          "duration": 0.23684175000001062,
          "durationTicks": 288,
          "midi": 82,
          "name": "A#5",
          "ticks": 118272,
          "time": 97.26301199999999,
          "velocity": 0.5826771653543307
        },
        {
          "duration": 0.23684175000001062,
          "durationTicks": 288,
          "midi": 70,
          "name": "A#4",
          "ticks": 118272,
          "time": 97.26301199999999,
          "velocity": 0.5826771653543307
        },
        {
          "duration": 0.1578944999999976,
          "durationTicks": 192,
          "midi": 70,
          "name": "A#4",
          "ticks": 118656,
          "time": 97.578801,
          "velocity": 0.5826771653543307
        },
        {
          "duration": 0.1578944999999976,
          "durationTicks": 192,
          "midi": 82,
          "name": "A#5",
          "ticks": 118656,
          "time": 97.578801,
          "velocity": 0.5826771653543307
        },
        {
          "duration": 0.1578944999999976,
          "durationTicks": 192,
          "midi": 84,
          "name": "C6",
          "ticks": 118848,
          "time": 97.7366955,
          "velocity": 0.5826771653543307
        },
        {
          "duration": 0.1578944999999976,
          "durationTicks": 192,
          "midi": 72,
          "name": "C5",
          "ticks": 118848,
          "time": 97.7366955,
          "velocity": 0.5826771653543307
        },
        {
          "duration": 0.2368417499999964,
          "durationTicks": 288,
          "midi": 70,
          "name": "A#4",
          "ticks": 119040,
          "time": 97.89459,
          "velocity": 0.5826771653543307
        },
        {
          "duration": 0.2368417499999964,
          "durationTicks": 288,
          "midi": 82,
          "name": "A#5",
          "ticks": 119040,
          "time": 97.89459,
          "velocity": 0.5826771653543307
        },
        {
          "duration": 0.23684175000001062,
          "durationTicks": 288,
          "midi": 80,
          "name": "G#5",
          "ticks": 119424,
          "time": 98.21037899999999,
          "velocity": 0.5826771653543307
        },
        {
          "duration": 0.23684175000001062,
          "durationTicks": 288,
          "midi": 68,
          "name": "G#4",
          "ticks": 119424,
          "time": 98.21037899999999,
          "velocity": 0.5826771653543307
        },
        {
          "duration": 0.1578944999999976,
          "durationTicks": 192,
          "midi": 70,
          "name": "A#4",
          "ticks": 119808,
          "time": 98.526168,
          "velocity": 0.5826771653543307
        },
        {
          "duration": 0.1578944999999976,
          "durationTicks": 192,
          "midi": 82,
          "name": "A#5",
          "ticks": 119808,
          "time": 98.526168,
          "velocity": 0.5826771653543307
        },
        {
          "duration": 0.1578944999999976,
          "durationTicks": 192,
          "midi": 80,
          "name": "G#5",
          "ticks": 120000,
          "time": 98.6840625,
          "velocity": 0.5826771653543307
        },
        {
          "duration": 0.1578944999999976,
          "durationTicks": 192,
          "midi": 68,
          "name": "G#4",
          "ticks": 120000,
          "time": 98.6840625,
          "velocity": 0.5826771653543307
        },
        {
          "duration": 0.1578944999999976,
          "durationTicks": 192,
          "midi": 70,
          "name": "A#4",
          "ticks": 120192,
          "time": 98.841957,
          "velocity": 0.5826771653543307
        },
        {
          "duration": 0.1578944999999976,
          "durationTicks": 192,
          "midi": 82,
          "name": "A#5",
          "ticks": 120192,
          "time": 98.841957,
          "velocity": 0.5826771653543307
        },
        {
          "duration": 0.1578944999999976,
          "durationTicks": 192,
          "midi": 72,
          "name": "C5",
          "ticks": 120384,
          "time": 98.99985149999999,
          "velocity": 0.5826771653543307
        },
        {
          "duration": 0.1578944999999976,
          "durationTicks": 192,
          "midi": 84,
          "name": "C6",
          "ticks": 120384,
          "time": 98.99985149999999,
          "velocity": 0.5826771653543307
        },
        {
          "duration": 0.15789450000001182,
          "durationTicks": 192,
          "midi": 87,
          "name": "D#6",
          "ticks": 120576,
          "time": 99.15774599999999,
          "velocity": 0.5826771653543307
        },
        {
          "duration": 0.15789450000001182,
          "durationTicks": 192,
          "midi": 75,
          "name": "D#5",
          "ticks": 120576,
          "time": 99.15774599999999,
          "velocity": 0.5826771653543307
        },
        {
          "duration": 0.1578944999999976,
          "durationTicks": 192,
          "midi": 72,
          "name": "C5",
          "ticks": 120768,
          "time": 99.3156405,
          "velocity": 0.5826771653543307
        },
        {
          "duration": 0.1578944999999976,
          "durationTicks": 192,
          "midi": 84,
          "name": "C6",
          "ticks": 120768,
          "time": 99.3156405,
          "velocity": 0.5826771653543307
        },
        {
          "duration": 0.1578944999999976,
          "durationTicks": 192,
          "midi": 68,
          "name": "G#4",
          "ticks": 120960,
          "time": 99.473535,
          "velocity": 0.5826771653543307
        },
        {
          "duration": 0.1578944999999976,
          "durationTicks": 192,
          "midi": 80,
          "name": "G#5",
          "ticks": 120960,
          "time": 99.473535,
          "velocity": 0.5826771653543307
        },
        {
          "duration": 0.1578944999999976,
          "durationTicks": 192,
          "midi": 77,
          "name": "F5",
          "ticks": 121152,
          "time": 99.6314295,
          "velocity": 0.5826771653543307
        },
        {
          "duration": 0.1578944999999976,
          "durationTicks": 192,
          "midi": 65,
          "name": "F4",
          "ticks": 121152,
          "time": 99.6314295,
          "velocity": 0.5826771653543307
        },
        {
          "duration": 0.0789472499999988,
          "durationTicks": 96,
          "midi": 82,
          "name": "A#5",
          "ticks": 121344,
          "time": 99.789324,
          "velocity": 0.5826771653543307
        },
        {
          "duration": 0.0789472499999988,
          "durationTicks": 96,
          "midi": 70,
          "name": "A#4",
          "ticks": 121344,
          "time": 99.789324,
          "velocity": 0.5826771653543307
        },
        {
          "duration": 0.0789472499999988,
          "durationTicks": 96,
          "midi": 68,
          "name": "G#4",
          "ticks": 121440,
          "time": 99.86827124999999,
          "velocity": 0.5826771653543307
        },
        {
          "duration": 0.0789472499999988,
          "durationTicks": 96,
          "midi": 80,
          "name": "G#5",
          "ticks": 121440,
          "time": 99.86827124999999,
          "velocity": 0.5826771653543307
        },
        {
          "duration": 0.0789472499999988,
          "durationTicks": 96,
          "midi": 77,
          "name": "F5",
          "ticks": 121536,
          "time": 99.94721849999999,
          "velocity": 0.5826771653543307
        },
        {
          "duration": 0.0789472499999988,
          "durationTicks": 96,
          "midi": 65,
          "name": "F4",
          "ticks": 121536,
          "time": 99.94721849999999,
          "velocity": 0.5826771653543307
        },
        {
          "duration": 0.0789472499999988,
          "durationTicks": 96,
          "midi": 72,
          "name": "C5",
          "ticks": 121632,
          "time": 100.02616574999999,
          "velocity": 0.5826771653543307
        },
        {
          "duration": 0.0789472499999988,
          "durationTicks": 96,
          "midi": 60,
          "name": "C4",
          "ticks": 121632,
          "time": 100.02616574999999,
          "velocity": 0.5826771653543307
        },
        {
          "duration": 0.07894725000001301,
          "durationTicks": 96,
          "midi": 70,
          "name": "A#4",
          "ticks": 121728,
          "time": 100.10511299999999,
          "velocity": 0.5826771653543307
        },
        {
          "duration": 0.07894725000001301,
          "durationTicks": 96,
          "midi": 82,
          "name": "A#5",
          "ticks": 121728,
          "time": 100.10511299999999,
          "velocity": 0.5826771653543307
        },
        {
          "duration": 0.0789472499999988,
          "durationTicks": 96,
          "midi": 68,
          "name": "G#4",
          "ticks": 121824,
          "time": 100.18406025,
          "velocity": 0.5826771653543307
        },
        {
          "duration": 0.0789472499999988,
          "durationTicks": 96,
          "midi": 80,
          "name": "G#5",
          "ticks": 121824,
          "time": 100.18406025,
          "velocity": 0.5826771653543307
        },
        {
          "duration": 0.0789472499999988,
          "durationTicks": 96,
          "midi": 65,
          "name": "F4",
          "ticks": 121920,
          "time": 100.2630075,
          "velocity": 0.5826771653543307
        },
        {
          "duration": 0.0789472499999988,
          "durationTicks": 96,
          "midi": 77,
          "name": "F5",
          "ticks": 121920,
          "time": 100.2630075,
          "velocity": 0.5826771653543307
        },
        {
          "duration": 0.0789472499999988,
          "durationTicks": 96,
          "midi": 60,
          "name": "C4",
          "ticks": 122016,
          "time": 100.34195475,
          "velocity": 0.5826771653543307
        },
        {
          "duration": 0.0789472499999988,
          "durationTicks": 96,
          "midi": 72,
          "name": "C5",
          "ticks": 122016,
          "time": 100.34195475,
          "velocity": 0.5826771653543307
        },
        {
          "duration": 0.0789472499999988,
          "durationTicks": 96,
          "midi": 84,
          "name": "C6",
          "ticks": 122112,
          "time": 100.420902,
          "velocity": 0.5826771653543307
        },
        {
          "duration": 0.0789472499999988,
          "durationTicks": 96,
          "midi": 72,
          "name": "C5",
          "ticks": 122112,
          "time": 100.420902,
          "velocity": 0.5826771653543307
        },
        {
          "duration": 0.0789472499999988,
          "durationTicks": 96,
          "midi": 67,
          "name": "G4",
          "ticks": 122208,
          "time": 100.49984925,
          "velocity": 0.5826771653543307
        },
        {
          "duration": 0.0789472499999988,
          "durationTicks": 96,
          "midi": 79,
          "name": "G5",
          "ticks": 122208,
          "time": 100.49984925,
          "velocity": 0.5826771653543307
        },
        {
          "duration": 0.0789472499999988,
          "durationTicks": 96,
          "midi": 76,
          "name": "E5",
          "ticks": 122304,
          "time": 100.5787965,
          "velocity": 0.5826771653543307
        },
        {
          "duration": 0.0789472499999988,
          "durationTicks": 96,
          "midi": 64,
          "name": "E4",
          "ticks": 122304,
          "time": 100.5787965,
          "velocity": 0.5826771653543307
        },
        {
          "duration": 0.0789472499999988,
          "durationTicks": 96,
          "midi": 60,
          "name": "C4",
          "ticks": 122400,
          "time": 100.65774375,
          "velocity": 0.5826771653543307
        },
        {
          "duration": 0.0789472499999988,
          "durationTicks": 96,
          "midi": 72,
          "name": "C5",
          "ticks": 122400,
          "time": 100.65774375,
          "velocity": 0.5826771653543307
        },
        {
          "duration": 0.0789472499999988,
          "durationTicks": 96,
          "midi": 72,
          "name": "C5",
          "ticks": 122496,
          "time": 100.736691,
          "velocity": 0.5826771653543307
        },
        {
          "duration": 0.0789472499999988,
          "durationTicks": 96,
          "midi": 84,
          "name": "C6",
          "ticks": 122496,
          "time": 100.736691,
          "velocity": 0.5826771653543307
        },
        {
          "duration": 0.0789472499999988,
          "durationTicks": 96,
          "midi": 67,
          "name": "G4",
          "ticks": 122592,
          "time": 100.81563824999999,
          "velocity": 0.5826771653543307
        },
        {
          "duration": 0.0789472499999988,
          "durationTicks": 96,
          "midi": 79,
          "name": "G5",
          "ticks": 122592,
          "time": 100.81563824999999,
          "velocity": 0.5826771653543307
        },
        {
          "duration": 0.0789472499999988,
          "durationTicks": 96,
          "midi": 64,
          "name": "E4",
          "ticks": 122688,
          "time": 100.89458549999999,
          "velocity": 0.5826771653543307
        },
        {
          "duration": 0.0789472499999988,
          "durationTicks": 96,
          "midi": 76,
          "name": "E5",
          "ticks": 122688,
          "time": 100.89458549999999,
          "velocity": 0.5826771653543307
        },
        {
          "duration": 0.07894725000001301,
          "durationTicks": 96,
          "midi": 72,
          "name": "C5",
          "ticks": 122784,
          "time": 100.97353274999999,
          "velocity": 0.5826771653543307
        },
        {
          "duration": 0.07894725000001301,
          "durationTicks": 96,
          "midi": 60,
          "name": "C4",
          "ticks": 122784,
          "time": 100.97353274999999,
          "velocity": 0.5826771653543307
        },
        {
          "duration": 0.0789472499999988,
          "durationTicks": 96,
          "midi": 68,
          "name": "G#4",
          "ticks": 122880,
          "time": 101.05248,
          "velocity": 0.5826771653543307
        },
        {
          "duration": 0.0789472499999988,
          "durationTicks": 96,
          "midi": 80,
          "name": "G#5",
          "ticks": 122880,
          "time": 101.05248,
          "velocity": 0.5826771653543307
        },
        {
          "duration": 0.0789472499999988,
          "durationTicks": 96,
          "midi": 77,
          "name": "F5",
          "ticks": 122976,
          "time": 101.13142725,
          "velocity": 0.5826771653543307
        },
        {
          "duration": 0.0789472499999988,
          "durationTicks": 96,
          "midi": 65,
          "name": "F4",
          "ticks": 122976,
          "time": 101.13142725,
          "velocity": 0.5826771653543307
        },
        {
          "duration": 0.0789472499999988,
          "durationTicks": 96,
          "midi": 60,
          "name": "C4",
          "ticks": 123072,
          "time": 101.2103745,
          "velocity": 0.5826771653543307
        },
        {
          "duration": 0.0789472499999988,
          "durationTicks": 96,
          "midi": 72,
          "name": "C5",
          "ticks": 123072,
          "time": 101.2103745,
          "velocity": 0.5826771653543307
        },
        {
          "duration": 0.0789472499999988,
          "durationTicks": 96,
          "midi": 77,
          "name": "F5",
          "ticks": 123168,
          "time": 101.28932175,
          "velocity": 0.5826771653543307
        },
        {
          "duration": 0.0789472499999988,
          "durationTicks": 96,
          "midi": 65,
          "name": "F4",
          "ticks": 123168,
          "time": 101.28932175,
          "velocity": 0.5826771653543307
        },
        {
          "duration": 0.1578944999999976,
          "durationTicks": 192,
          "midi": 80,
          "name": "G#5",
          "ticks": 123264,
          "time": 101.368269,
          "velocity": 0.5826771653543307
        },
        {
          "duration": 0.1578944999999976,
          "durationTicks": 192,
          "midi": 68,
          "name": "G#4",
          "ticks": 123264,
          "time": 101.368269,
          "velocity": 0.5826771653543307
        },
        {
          "duration": 0.1578944999999976,
          "durationTicks": 192,
          "midi": 70,
          "name": "A#4",
          "ticks": 123456,
          "time": 101.5261635,
          "velocity": 0.5826771653543307
        },
        {
          "duration": 0.1578944999999976,
          "durationTicks": 192,
          "midi": 82,
          "name": "A#5",
          "ticks": 123456,
          "time": 101.5261635,
          "velocity": 0.5826771653543307
        },
        {
          "duration": 0.1578944999999976,
          "durationTicks": 192,
          "midi": 84,
          "name": "C6",
          "ticks": 123648,
          "time": 101.684058,
          "velocity": 0.5826771653543307
        },
        {
          "duration": 0.1578944999999976,
          "durationTicks": 192,
          "midi": 72,
          "name": "C5",
          "ticks": 123648,
          "time": 101.684058,
          "velocity": 0.5826771653543307
        },
        {
          "duration": 0.1578944999999976,
          "durationTicks": 192,
          "midi": 80,
          "name": "G#5",
          "ticks": 124032,
          "time": 101.999847,
          "velocity": 0.5826771653543307
        },
        {
          "duration": 0.1578944999999976,
          "durationTicks": 192,
          "midi": 68,
          "name": "G#4",
          "ticks": 124032,
          "time": 101.999847,
          "velocity": 0.5826771653543307
        },
        {
          "duration": 0.0789472499999988,
          "durationTicks": 96,
          "midi": 82,
          "name": "A#5",
          "ticks": 124416,
          "time": 102.315636,
          "velocity": 0.5826771653543307
        },
        {
          "duration": 0.0789472499999988,
          "durationTicks": 96,
          "midi": 70,
          "name": "A#4",
          "ticks": 124416,
          "time": 102.315636,
          "velocity": 0.5826771653543307
        },
        {
          "duration": 0.0789472499999988,
          "durationTicks": 96,
          "midi": 79,
          "name": "G5",
          "ticks": 124512,
          "time": 102.39458325,
          "velocity": 0.5826771653543307
        },
        {
          "duration": 0.0789472499999988,
          "durationTicks": 96,
          "midi": 67,
          "name": "G4",
          "ticks": 124512,
          "time": 102.39458325,
          "velocity": 0.5826771653543307
        },
        {
          "duration": 0.0789472499999988,
          "durationTicks": 96,
          "midi": 65,
          "name": "F4",
          "ticks": 124608,
          "time": 102.4735305,
          "velocity": 0.5826771653543307
        },
        {
          "duration": 0.0789472499999988,
          "durationTicks": 96,
          "midi": 77,
          "name": "F5",
          "ticks": 124608,
          "time": 102.4735305,
          "velocity": 0.5826771653543307
        },
        {
          "duration": 0.0789472499999988,
          "durationTicks": 96,
          "midi": 79,
          "name": "G5",
          "ticks": 124704,
          "time": 102.55247775,
          "velocity": 0.5826771653543307
        },
        {
          "duration": 0.0789472499999988,
          "durationTicks": 96,
          "midi": 67,
          "name": "G4",
          "ticks": 124704,
          "time": 102.55247775,
          "velocity": 0.5826771653543307
        },
        {
          "duration": 0.1578944999999976,
          "durationTicks": 192,
          "midi": 70,
          "name": "A#4",
          "ticks": 124800,
          "time": 102.631425,
          "velocity": 0.5826771653543307
        },
        {
          "duration": 0.1578944999999976,
          "durationTicks": 192,
          "midi": 82,
          "name": "A#5",
          "ticks": 124800,
          "time": 102.631425,
          "velocity": 0.5826771653543307
        },
        {
          "duration": 0.15789450000001182,
          "durationTicks": 192,
          "midi": 72,
          "name": "C5",
          "ticks": 124992,
          "time": 102.78931949999999,
          "velocity": 0.5826771653543307
        },
        {
          "duration": 0.15789450000001182,
          "durationTicks": 192,
          "midi": 84,
          "name": "C6",
          "ticks": 124992,
          "time": 102.78931949999999,
          "velocity": 0.5826771653543307
        },
        {
          "duration": 0.2368417499999964,
          "durationTicks": 288,
          "midi": 67,
          "name": "G4",
          "ticks": 125184,
          "time": 102.947214,
          "velocity": 0.5826771653543307
        },
        {
          "duration": 0.2368417499999964,
          "durationTicks": 288,
          "midi": 79,
          "name": "G5",
          "ticks": 125184,
          "time": 102.947214,
          "velocity": 0.5826771653543307
        },
        {
          "duration": 0.0789472499999988,
          "durationTicks": 96,
          "midi": 68,
          "name": "G#4",
          "ticks": 125472,
          "time": 103.18405575,
          "velocity": 0.5826771653543307
        },
        {
          "duration": 0.0789472499999988,
          "durationTicks": 96,
          "midi": 80,
          "name": "G#5",
          "ticks": 125472,
          "time": 103.18405575,
          "velocity": 0.5826771653543307
        },
        {
          "duration": 0.1578944999999976,
          "durationTicks": 192,
          "midi": 63,
          "name": "D#4",
          "ticks": 125568,
          "time": 103.263003,
          "velocity": 0.5826771653543307
        },
        {
          "duration": 0.1578944999999976,
          "durationTicks": 192,
          "midi": 75,
          "name": "D#5",
          "ticks": 125568,
          "time": 103.263003,
          "velocity": 0.5826771653543307
        },
        {
          "duration": 0.1578944999999976,
          "durationTicks": 192,
          "midi": 67,
          "name": "G4",
          "ticks": 125760,
          "time": 103.4208975,
          "velocity": 0.5826771653543307
        },
        {
          "duration": 0.1578944999999976,
          "durationTicks": 192,
          "midi": 79,
          "name": "G5",
          "ticks": 125760,
          "time": 103.4208975,
          "velocity": 0.5826771653543307
        },
        {
          "duration": 0.1578944999999976,
          "durationTicks": 192,
          "midi": 68,
          "name": "G#4",
          "ticks": 125952,
          "time": 103.57879199999999,
          "velocity": 0.5826771653543307
        },
        {
          "duration": 0.1578944999999976,
          "durationTicks": 192,
          "midi": 80,
          "name": "G#5",
          "ticks": 125952,
          "time": 103.57879199999999,
          "velocity": 0.5826771653543307
        },
        {
          "duration": 0.1578944999999976,
          "durationTicks": 192,
          "midi": 68,
          "name": "G#4",
          "ticks": 126336,
          "time": 103.894581,
          "velocity": 0.5826771653543307
        },
        {
          "duration": 0.1578944999999976,
          "durationTicks": 192,
          "midi": 80,
          "name": "G#5",
          "ticks": 126336,
          "time": 103.894581,
          "velocity": 0.5826771653543307
        },
        {
          "duration": 0.1578944999999976,
          "durationTicks": 192,
          "midi": 70,
          "name": "A#4",
          "ticks": 126528,
          "time": 104.0524755,
          "velocity": 0.5826771653543307
        },
        {
          "duration": 0.1578944999999976,
          "durationTicks": 192,
          "midi": 82,
          "name": "A#5",
          "ticks": 126528,
          "time": 104.0524755,
          "velocity": 0.5826771653543307
        },
        {
          "duration": 0.1578944999999976,
          "durationTicks": 192,
          "midi": 72,
          "name": "C5",
          "ticks": 126720,
          "time": 104.21037,
          "velocity": 0.5826771653543307
        },
        {
          "duration": 0.1578944999999976,
          "durationTicks": 192,
          "midi": 84,
          "name": "C6",
          "ticks": 126720,
          "time": 104.21037,
          "velocity": 0.5826771653543307
        },
        {
          "duration": 0.1578944999999976,
          "durationTicks": 192,
          "midi": 68,
          "name": "G#4",
          "ticks": 126912,
          "time": 104.3682645,
          "velocity": 0.5826771653543307
        },
        {
          "duration": 0.1578944999999976,
          "durationTicks": 192,
          "midi": 80,
          "name": "G#5",
          "ticks": 126912,
          "time": 104.3682645,
          "velocity": 0.5826771653543307
        },
        {
          "duration": 0.1578944999999976,
          "durationTicks": 192,
          "midi": 84,
          "name": "C6",
          "ticks": 127104,
          "time": 104.52615899999999,
          "velocity": 0.5826771653543307
        },
        {
          "duration": 0.1578944999999976,
          "durationTicks": 192,
          "midi": 72,
          "name": "C5",
          "ticks": 127104,
          "time": 104.52615899999999,
          "velocity": 0.5826771653543307
        },
        {
          "duration": 0.15789450000001182,
          "durationTicks": 192,
          "midi": 80,
          "name": "G#5",
          "ticks": 127296,
          "time": 104.68405349999999,
          "velocity": 0.5826771653543307
        },
        {
          "duration": 0.15789450000001182,
          "durationTicks": 192,
          "midi": 92,
          "name": "G#6",
          "ticks": 127296,
          "time": 104.68405349999999,
          "velocity": 0.5826771653543307
        },
        {
          "duration": 0.0789472499999988,
          "durationTicks": 96,
          "midi": 79,
          "name": "G5",
          "ticks": 127488,
          "time": 104.841948,
          "velocity": 0.5826771653543307
        },
        {
          "duration": 0.0789472499999988,
          "durationTicks": 96,
          "midi": 91,
          "name": "G6",
          "ticks": 127488,
          "time": 104.841948,
          "velocity": 0.5826771653543307
        },
        {
          "duration": 0.1184208749999982,
          "durationTicks": 144,
          "midi": 67,
          "name": "G4",
          "ticks": 127584,
          "time": 104.92089525,
          "velocity": 0.5826771653543307
        },
        {
          "duration": 0.1184208749999982,
          "durationTicks": 144,
          "midi": 79,
          "name": "G5",
          "ticks": 127584,
          "time": 104.92089525,
          "velocity": 0.5826771653543307
        },
        {
          "duration": 0.0789472499999988,
          "durationTicks": 96,
          "midi": 67,
          "name": "G4",
          "ticks": 127776,
          "time": 105.07878975,
          "velocity": 0.5826771653543307
        },
        {
          "duration": 0.0789472499999988,
          "durationTicks": 96,
          "midi": 79,
          "name": "G5",
          "ticks": 127776,
          "time": 105.07878975,
          "velocity": 0.5826771653543307
        },
        {
          "duration": 0.1578944999999976,
          "durationTicks": 192,
          "midi": 87,
          "name": "D#6",
          "ticks": 127872,
          "time": 105.157737,
          "velocity": 0.5826771653543307
        },
        {
          "duration": 0.1578944999999976,
          "durationTicks": 192,
          "midi": 75,
          "name": "D#5",
          "ticks": 127872,
          "time": 105.157737,
          "velocity": 0.5826771653543307
        },
        {
          "duration": 0.0789472499999988,
          "durationTicks": 96,
          "midi": 67,
          "name": "G4",
          "ticks": 128064,
          "time": 105.3156315,
          "velocity": 0.5826771653543307
        },
        {
          "duration": 0.0789472499999988,
          "durationTicks": 96,
          "midi": 79,
          "name": "G5",
          "ticks": 128064,
          "time": 105.3156315,
          "velocity": 0.5826771653543307
        },
        {
          "duration": 0.0789472499999988,
          "durationTicks": 96,
          "midi": 70,
          "name": "A#4",
          "ticks": 128160,
          "time": 105.39457875,
          "velocity": 0.5826771653543307
        },
        {
          "duration": 0.0789472499999988,
          "durationTicks": 96,
          "midi": 82,
          "name": "A#5",
          "ticks": 128160,
          "time": 105.39457875,
          "velocity": 0.5826771653543307
        },
        {
          "duration": 0.1578944999999976,
          "durationTicks": 192,
          "midi": 84,
          "name": "C6",
          "ticks": 128256,
          "time": 105.47352599999999,
          "velocity": 0.5826771653543307
        },
        {
          "duration": 0.1578944999999976,
          "durationTicks": 192,
          "midi": 72,
          "name": "C5",
          "ticks": 128256,
          "time": 105.47352599999999,
          "velocity": 0.5826771653543307
        },
        {
          "duration": 0.0789472499999988,
          "durationTicks": 96,
          "midi": 70,
          "name": "A#4",
          "ticks": 128448,
          "time": 105.63142049999999,
          "velocity": 0.5826771653543307
        },
        {
          "duration": 0.0789472499999988,
          "durationTicks": 96,
          "midi": 82,
          "name": "A#5",
          "ticks": 128448,
          "time": 105.63142049999999,
          "velocity": 0.5826771653543307
        },
        {
          "duration": 0.07894725000001301,
          "durationTicks": 96,
          "midi": 84,
          "name": "C6",
          "ticks": 128544,
          "time": 105.71036774999999,
          "velocity": 0.5826771653543307
        },
        {
          "duration": 0.07894725000001301,
          "durationTicks": 96,
          "midi": 72,
          "name": "C5",
          "ticks": 128544,
          "time": 105.71036774999999,
          "velocity": 0.5826771653543307
        },
        {
          "duration": 0.1578944999999976,
          "durationTicks": 192,
          "midi": 87,
          "name": "D#6",
          "ticks": 128640,
          "time": 105.789315,
          "velocity": 0.5826771653543307
        },
        {
          "duration": 0.1578944999999976,
          "durationTicks": 192,
          "midi": 75,
          "name": "D#5",
          "ticks": 128640,
          "time": 105.789315,
          "velocity": 0.5826771653543307
        },
        {
          "duration": 0.0789472499999988,
          "durationTicks": 96,
          "midi": 72,
          "name": "C5",
          "ticks": 128832,
          "time": 105.9472095,
          "velocity": 0.5826771653543307
        },
        {
          "duration": 0.0789472499999988,
          "durationTicks": 96,
          "midi": 84,
          "name": "C6",
          "ticks": 128832,
          "time": 105.9472095,
          "velocity": 0.5826771653543307
        },
        {
          "duration": 0.0789472499999988,
          "durationTicks": 96,
          "midi": 75,
          "name": "D#5",
          "ticks": 128928,
          "time": 106.02615675,
          "velocity": 0.5826771653543307
        },
        {
          "duration": 0.0789472499999988,
          "durationTicks": 96,
          "midi": 87,
          "name": "D#6",
          "ticks": 128928,
          "time": 106.02615675,
          "velocity": 0.5826771653543307
        },
        {
          "duration": 0.3157889999999952,
          "durationTicks": 384,
          "midi": 89,
          "name": "F6",
          "ticks": 129024,
          "time": 106.105104,
          "velocity": 0.5826771653543307
        },
        {
          "duration": 0.3157889999999952,
          "durationTicks": 384,
          "midi": 77,
          "name": "F5",
          "ticks": 129024,
          "time": 106.105104,
          "velocity": 0.5826771653543307
        },
        {
          "duration": 0.1578944999999976,
          "durationTicks": 192,
          "midi": 84,
          "name": "C6",
          "ticks": 129408,
          "time": 106.42089299999999,
          "velocity": 0.5826771653543307
        },
        {
          "duration": 0.1578944999999976,
          "durationTicks": 192,
          "midi": 72,
          "name": "C5",
          "ticks": 129408,
          "time": 106.42089299999999,
          "velocity": 0.5826771653543307
        },
        {
          "duration": 0.15789450000001182,
          "durationTicks": 192,
          "midi": 87,
          "name": "D#6",
          "ticks": 129600,
          "time": 106.57878749999999,
          "velocity": 0.5826771653543307
        },
        {
          "duration": 0.15789450000001182,
          "durationTicks": 192,
          "midi": 75,
          "name": "D#5",
          "ticks": 129600,
          "time": 106.57878749999999,
          "velocity": 0.5826771653543307
        },
        {
          "duration": 0.1578944999999976,
          "durationTicks": 192,
          "midi": 77,
          "name": "F5",
          "ticks": 129792,
          "time": 106.736682,
          "velocity": 0.5826771653543307
        },
        {
          "duration": 0.1578944999999976,
          "durationTicks": 192,
          "midi": 89,
          "name": "F6",
          "ticks": 129792,
          "time": 106.736682,
          "velocity": 0.5826771653543307
        },
        {
          "duration": 0.1578944999999976,
          "durationTicks": 192,
          "midi": 84,
          "name": "C6",
          "ticks": 130176,
          "time": 107.052471,
          "velocity": 0.5826771653543307
        },
        {
          "duration": 0.1578944999999976,
          "durationTicks": 192,
          "midi": 72,
          "name": "C5",
          "ticks": 130176,
          "time": 107.052471,
          "velocity": 0.5826771653543307
        },
        {
          "duration": 0.2368417499999964,
          "durationTicks": 288,
          "midi": 70,
          "name": "A#4",
          "ticks": 130560,
          "time": 107.36825999999999,
          "velocity": 0.5826771653543307
        },
        {
          "duration": 0.2368417499999964,
          "durationTicks": 288,
          "midi": 82,
          "name": "A#5",
          "ticks": 130560,
          "time": 107.36825999999999,
          "velocity": 0.5826771653543307
        },
        {
          "duration": 0.1578944999999976,
          "durationTicks": 192,
          "midi": 82,
          "name": "A#5",
          "ticks": 130944,
          "time": 107.684049,
          "velocity": 0.5826771653543307
        },
        {
          "duration": 0.1578944999999976,
          "durationTicks": 192,
          "midi": 70,
          "name": "A#4",
          "ticks": 130944,
          "time": 107.684049,
          "velocity": 0.5826771653543307
        },
        {
          "duration": 0.1578944999999976,
          "durationTicks": 192,
          "midi": 84,
          "name": "C6",
          "ticks": 131136,
          "time": 107.8419435,
          "velocity": 0.5826771653543307
        },
        {
          "duration": 0.1578944999999976,
          "durationTicks": 192,
          "midi": 72,
          "name": "C5",
          "ticks": 131136,
          "time": 107.8419435,
          "velocity": 0.5826771653543307
        },
        {
          "duration": 0.2368417499999964,
          "durationTicks": 288,
          "midi": 82,
          "name": "A#5",
          "ticks": 131328,
          "time": 107.999838,
          "velocity": 0.5826771653543307
        },
        {
          "duration": 0.2368417499999964,
          "durationTicks": 288,
          "midi": 70,
          "name": "A#4",
          "ticks": 131328,
          "time": 107.999838,
          "velocity": 0.5826771653543307
        },
        {
          "duration": 0.2368417499999964,
          "durationTicks": 288,
          "midi": 80,
          "name": "G#5",
          "ticks": 131712,
          "time": 108.31562699999999,
          "velocity": 0.5826771653543307
        },
        {
          "duration": 0.2368417499999964,
          "durationTicks": 288,
          "midi": 68,
          "name": "G#4",
          "ticks": 131712,
          "time": 108.31562699999999,
          "velocity": 0.5826771653543307
        },
        {
          "duration": 0.1578944999999976,
          "durationTicks": 192,
          "midi": 70,
          "name": "A#4",
          "ticks": 132096,
          "time": 108.631416,
          "velocity": 0.5826771653543307
        },
        {
          "duration": 0.1578944999999976,
          "durationTicks": 192,
          "midi": 82,
          "name": "A#5",
          "ticks": 132096,
          "time": 108.631416,
          "velocity": 0.5826771653543307
        },
        {
          "duration": 0.1578944999999976,
          "durationTicks": 192,
          "midi": 80,
          "name": "G#5",
          "ticks": 132288,
          "time": 108.7893105,
          "velocity": 0.5826771653543307
        },
        {
          "duration": 0.1578944999999976,
          "durationTicks": 192,
          "midi": 68,
          "name": "G#4",
          "ticks": 132288,
          "time": 108.7893105,
          "velocity": 0.5826771653543307
        },
        {
          "duration": 0.1578944999999976,
          "durationTicks": 192,
          "midi": 70,
          "name": "A#4",
          "ticks": 132480,
          "time": 108.947205,
          "velocity": 0.5826771653543307
        },
        {
          "duration": 0.1578944999999976,
          "durationTicks": 192,
          "midi": 82,
          "name": "A#5",
          "ticks": 132480,
          "time": 108.947205,
          "velocity": 0.5826771653543307
        },
        {
          "duration": 0.1578944999999976,
          "durationTicks": 192,
          "midi": 72,
          "name": "C5",
          "ticks": 132672,
          "time": 109.1050995,
          "velocity": 0.5826771653543307
        },
        {
          "duration": 0.1578944999999976,
          "durationTicks": 192,
          "midi": 84,
          "name": "C6",
          "ticks": 132672,
          "time": 109.1050995,
          "velocity": 0.5826771653543307
        },
        {
          "duration": 0.1578944999999976,
          "durationTicks": 192,
          "midi": 87,
          "name": "D#6",
          "ticks": 132864,
          "time": 109.26299399999999,
          "velocity": 0.5826771653543307
        },
        {
          "duration": 0.1578944999999976,
          "durationTicks": 192,
          "midi": 75,
          "name": "D#5",
          "ticks": 132864,
          "time": 109.26299399999999,
          "velocity": 0.5826771653543307
        },
        {
          "duration": 0.15789450000001182,
          "durationTicks": 192,
          "midi": 72,
          "name": "C5",
          "ticks": 133056,
          "time": 109.42088849999999,
          "velocity": 0.5826771653543307
        },
        {
          "duration": 0.15789450000001182,
          "durationTicks": 192,
          "midi": 84,
          "name": "C6",
          "ticks": 133056,
          "time": 109.42088849999999,
          "velocity": 0.5826771653543307
        },
        {
          "duration": 0.1578944999999976,
          "durationTicks": 192,
          "midi": 68,
          "name": "G#4",
          "ticks": 133248,
          "time": 109.578783,
          "velocity": 0.5826771653543307
        },
        {
          "duration": 0.1578944999999976,
          "durationTicks": 192,
          "midi": 80,
          "name": "G#5",
          "ticks": 133248,
          "time": 109.578783,
          "velocity": 0.5826771653543307
        },
        {
          "duration": 0.1578944999999976,
          "durationTicks": 192,
          "midi": 65,
          "name": "F4",
          "ticks": 133440,
          "time": 109.7366775,
          "velocity": 0.5826771653543307
        },
        {
          "duration": 0.1578944999999976,
          "durationTicks": 192,
          "midi": 77,
          "name": "F5",
          "ticks": 133440,
          "time": 109.7366775,
          "velocity": 0.5826771653543307
        },
        {
          "duration": 0.0789472499999988,
          "durationTicks": 96,
          "midi": 82,
          "name": "A#5",
          "ticks": 133632,
          "time": 109.894572,
          "velocity": 0.5826771653543307
        },
        {
          "duration": 0.0789472499999988,
          "durationTicks": 96,
          "midi": 70,
          "name": "A#4",
          "ticks": 133632,
          "time": 109.894572,
          "velocity": 0.5826771653543307
        },
        {
          "duration": 0.0789472499999988,
          "durationTicks": 96,
          "midi": 80,
          "name": "G#5",
          "ticks": 133728,
          "time": 109.97351925,
          "velocity": 0.5826771653543307
        },
        {
          "duration": 0.0789472499999988,
          "durationTicks": 96,
          "midi": 68,
          "name": "G#4",
          "ticks": 133728,
          "time": 109.97351925,
          "velocity": 0.5826771653543307
        },
        {
          "duration": 0.0789472499999988,
          "durationTicks": 96,
          "midi": 77,
          "name": "F5",
          "ticks": 133824,
          "time": 110.0524665,
          "velocity": 0.5826771653543307
        },
        {
          "duration": 0.0789472499999988,
          "durationTicks": 96,
          "midi": 65,
          "name": "F4",
          "ticks": 133824,
          "time": 110.0524665,
          "velocity": 0.5826771653543307
        },
        {
          "duration": 0.0789472499999988,
          "durationTicks": 96,
          "midi": 60,
          "name": "C4",
          "ticks": 133920,
          "time": 110.13141375,
          "velocity": 0.5826771653543307
        },
        {
          "duration": 0.0789472499999988,
          "durationTicks": 96,
          "midi": 72,
          "name": "C5",
          "ticks": 133920,
          "time": 110.13141375,
          "velocity": 0.5826771653543307
        },
        {
          "duration": 0.0789472499999988,
          "durationTicks": 96,
          "midi": 82,
          "name": "A#5",
          "ticks": 134016,
          "time": 110.21036099999999,
          "velocity": 0.5826771653543307
        },
        {
          "duration": 0.0789472499999988,
          "durationTicks": 96,
          "midi": 70,
          "name": "A#4",
          "ticks": 134016,
          "time": 110.21036099999999,
          "velocity": 0.5826771653543307
        },
        {
          "duration": 0.0789472499999988,
          "durationTicks": 96,
          "midi": 68,
          "name": "G#4",
          "ticks": 134112,
          "time": 110.28930824999999,
          "velocity": 0.5826771653543307
        },
        {
          "duration": 0.0789472499999988,
          "durationTicks": 96,
          "midi": 80,
          "name": "G#5",
          "ticks": 134112,
          "time": 110.28930824999999,
          "velocity": 0.5826771653543307
        },
        {
          "duration": 0.0789472499999988,
          "durationTicks": 96,
          "midi": 77,
          "name": "F5",
          "ticks": 134208,
          "time": 110.36825549999999,
          "velocity": 0.5826771653543307
        },
        {
          "duration": 0.0789472499999988,
          "durationTicks": 96,
          "midi": 65,
          "name": "F4",
          "ticks": 134208,
          "time": 110.36825549999999,
          "velocity": 0.5826771653543307
        },
        {
          "duration": 0.07894725000001301,
          "durationTicks": 96,
          "midi": 72,
          "name": "C5",
          "ticks": 134304,
          "time": 110.44720274999999,
          "velocity": 0.5826771653543307
        },
        {
          "duration": 0.07894725000001301,
          "durationTicks": 96,
          "midi": 60,
          "name": "C4",
          "ticks": 134304,
          "time": 110.44720274999999,
          "velocity": 0.5826771653543307
        },
        {
          "duration": 0.0789472499999988,
          "durationTicks": 96,
          "midi": 72,
          "name": "C5",
          "ticks": 134400,
          "time": 110.52615,
          "velocity": 0.5826771653543307
        },
        {
          "duration": 0.0789472499999988,
          "durationTicks": 96,
          "midi": 84,
          "name": "C6",
          "ticks": 134400,
          "time": 110.52615,
          "velocity": 0.5826771653543307
        },
        {
          "duration": 0.0789472499999988,
          "durationTicks": 96,
          "midi": 79,
          "name": "G5",
          "ticks": 134496,
          "time": 110.60509725,
          "velocity": 0.5826771653543307
        },
        {
          "duration": 0.0789472499999988,
          "durationTicks": 96,
          "midi": 67,
          "name": "G4",
          "ticks": 134496,
          "time": 110.60509725,
          "velocity": 0.5826771653543307
        },
        {
          "duration": 0.0789472499999988,
          "durationTicks": 96,
          "midi": 76,
          "name": "E5",
          "ticks": 134592,
          "time": 110.6840445,
          "velocity": 0.5826771653543307
        },
        {
          "duration": 0.0789472499999988,
          "durationTicks": 96,
          "midi": 64,
          "name": "E4",
          "ticks": 134592,
          "time": 110.6840445,
          "velocity": 0.5826771653543307
        },
        {
          "duration": 0.0789472499999988,
          "durationTicks": 96,
          "midi": 72,
          "name": "C5",
          "ticks": 134688,
          "time": 110.76299175,
          "velocity": 0.5826771653543307
        },
        {
          "duration": 0.0789472499999988,
          "durationTicks": 96,
          "midi": 60,
          "name": "C4",
          "ticks": 134688,
          "time": 110.76299175,
          "velocity": 0.5826771653543307
        },
        {
          "duration": 0.0789472499999988,
          "durationTicks": 96,
          "midi": 72,
          "name": "C5",
          "ticks": 134784,
          "time": 110.841939,
          "velocity": 0.5826771653543307
        },
        {
          "duration": 0.0789472499999988,
          "durationTicks": 96,
          "midi": 84,
          "name": "C6",
          "ticks": 134784,
          "time": 110.841939,
          "velocity": 0.5826771653543307
        },
        {
          "duration": 0.0789472499999988,
          "durationTicks": 96,
          "midi": 79,
          "name": "G5",
          "ticks": 134880,
          "time": 110.92088625,
          "velocity": 0.5826771653543307
        },
        {
          "duration": 0.0789472499999988,
          "durationTicks": 96,
          "midi": 67,
          "name": "G4",
          "ticks": 134880,
          "time": 110.92088625,
          "velocity": 0.5826771653543307
        },
        {
          "duration": 0.0789472499999988,
          "durationTicks": 96,
          "midi": 76,
          "name": "E5",
          "ticks": 134976,
          "time": 110.9998335,
          "velocity": 0.5826771653543307
        },
        {
          "duration": 0.0789472499999988,
          "durationTicks": 96,
          "midi": 64,
          "name": "E4",
          "ticks": 134976,
          "time": 110.9998335,
          "velocity": 0.5826771653543307
        },
        {
          "duration": 0.0394736249999994,
          "durationTicks": 48,
          "midi": 72,
          "name": "C5",
          "ticks": 135072,
          "time": 111.07878074999999,
          "velocity": 0.5826771653543307
        },
        {
          "duration": 0.0394736249999994,
          "durationTicks": 48,
          "midi": 60,
          "name": "C4",
          "ticks": 135072,
          "time": 111.07878074999999,
          "velocity": 0.5826771653543307
        }
      ],
      "endOfTrackTicks": 135120
    },
    {
      "channel": 8,
      "controlChanges": {},
      "pitchBends": [],
      "instrument": {
        "family": "chromatic percussion",
        "number": 10,
        "name": "music box"
      },
      "name": "Music Box",
      "notes": [
        {
          "duration": 0.0789472499999988,
          "durationTicks": 96,
          "midi": 65,
          "name": "F4",
          "ticks": 49152,
          "time": 40.420992,
          "velocity": 0.18110236220472442
        },
        {
          "duration": 0.0789472499999988,
          "durationTicks": 96,
          "midi": 72,
          "name": "C5",
          "ticks": 49536,
          "time": 40.736781,
          "velocity": 0.18110236220472442
        },
        {
          "duration": 0.07894725000000591,
          "durationTicks": 96,
          "midi": 70,
          "name": "A#4",
          "ticks": 49920,
          "time": 41.052569999999996,
          "velocity": 0.18110236220472442
        },
        {
          "duration": 0.0789472499999988,
          "durationTicks": 96,
          "midi": 65,
          "name": "F4",
          "ticks": 50304,
          "time": 41.368359,
          "velocity": 0.18110236220472442
        },
        {
          "duration": 0.0789472499999988,
          "durationTicks": 96,
          "midi": 67,
          "name": "G4",
          "ticks": 50688,
          "time": 41.684148,
          "velocity": 0.18110236220472442
        },
        {
          "duration": 0.0789472499999988,
          "durationTicks": 96,
          "midi": 67,
          "name": "G4",
          "ticks": 51264,
          "time": 42.1578315,
          "velocity": 0.18110236220472442
        },
        {
          "duration": 0.0789472499999988,
          "durationTicks": 96,
          "midi": 68,
          "name": "G#4",
          "ticks": 51840,
          "time": 42.631515,
          "velocity": 0.18110236220472442
        },
        {
          "duration": 0.07894725000000591,
          "durationTicks": 96,
          "midi": 63,
          "name": "D#4",
          "ticks": 52224,
          "time": 42.947303999999995,
          "velocity": 0.18110236220472442
        },
        {
          "duration": 0.0789472499999988,
          "durationTicks": 96,
          "midi": 72,
          "name": "C5",
          "ticks": 52608,
          "time": 43.263093,
          "velocity": 0.18110236220472442
        },
        {
          "duration": 0.0789472499999988,
          "durationTicks": 96,
          "midi": 70,
          "name": "A#4",
          "ticks": 52992,
          "time": 43.578882,
          "velocity": 0.18110236220472442
        },
        {
          "duration": 0.07894725000000591,
          "durationTicks": 96,
          "midi": 65,
          "name": "F4",
          "ticks": 53376,
          "time": 43.894670999999995,
          "velocity": 0.18110236220472442
        },
        {
          "duration": 0.0789472499999988,
          "durationTicks": 96,
          "midi": 67,
          "name": "G4",
          "ticks": 53760,
          "time": 44.21046,
          "velocity": 0.18110236220472442
        },
        {
          "duration": 0.0789472499999988,
          "durationTicks": 96,
          "midi": 67,
          "name": "G4",
          "ticks": 54336,
          "time": 44.6841435,
          "velocity": 0.18110236220472442
        },
        {
          "duration": 0.0789472499999988,
          "durationTicks": 96,
          "midi": 68,
          "name": "G#4",
          "ticks": 54912,
          "time": 45.157827,
          "velocity": 0.18110236220472442
        },
        {
          "duration": 0.0789472499999988,
          "durationTicks": 96,
          "midi": 65,
          "name": "F4",
          "ticks": 55296,
          "time": 45.473616,
          "velocity": 0.18110236220472442
        },
        {
          "duration": 0.07894725000000591,
          "durationTicks": 96,
          "midi": 72,
          "name": "C5",
          "ticks": 55680,
          "time": 45.789404999999995,
          "velocity": 0.18110236220472442
        },
        {
          "duration": 0.0789472499999988,
          "durationTicks": 96,
          "midi": 70,
          "name": "A#4",
          "ticks": 56064,
          "time": 46.105194,
          "velocity": 0.18110236220472442
        },
        {
          "duration": 0.0789472499999988,
          "durationTicks": 96,
          "midi": 65,
          "name": "F4",
          "ticks": 56448,
          "time": 46.420983,
          "velocity": 0.18110236220472442
        },
        {
          "duration": 0.07894725000000591,
          "durationTicks": 96,
          "midi": 67,
          "name": "G4",
          "ticks": 56832,
          "time": 46.736771999999995,
          "velocity": 0.18110236220472442
        },
        {
          "duration": 0.07894725000000591,
          "durationTicks": 96,
          "midi": 67,
          "name": "G4",
          "ticks": 57408,
          "time": 47.210455499999995,
          "velocity": 0.18110236220472442
        },
        {
          "duration": 0.07894725000000591,
          "durationTicks": 96,
          "midi": 68,
          "name": "G#4",
          "ticks": 57984,
          "time": 47.684138999999995,
          "velocity": 0.18110236220472442
        },
        {
          "duration": 0.0789472499999988,
          "durationTicks": 96,
          "midi": 69,
          "name": "A4",
          "ticks": 58368,
          "time": 47.999928,
          "velocity": 0.18110236220472442
        },
        {
          "duration": 0.0789472499999988,
          "durationTicks": 96,
          "midi": 70,
          "name": "A#4",
          "ticks": 58752,
          "time": 48.315717,
          "velocity": 0.18110236220472442
        },
        {
          "duration": 0.07894725000000591,
          "durationTicks": 96,
          "midi": 69,
          "name": "A4",
          "ticks": 59136,
          "time": 48.631505999999995,
          "velocity": 0.18110236220472442
        },
        {
          "duration": 0.0789472499999988,
          "durationTicks": 96,
          "midi": 65,
          "name": "F4",
          "ticks": 59520,
          "time": 48.947295,
          "velocity": 0.18110236220472442
        },
        {
          "duration": 0.0789472499999988,
          "durationTicks": 96,
          "midi": 64,
          "name": "E4",
          "ticks": 59904,
          "time": 49.263084,
          "velocity": 0.18110236220472442
        },
        {
          "duration": 0.0789472499999988,
          "durationTicks": 96,
          "midi": 64,
          "name": "E4",
          "ticks": 60480,
          "time": 49.7367675,
          "velocity": 0.18110236220472442
        },
        {
          "duration": 0.0789472499999988,
          "durationTicks": 96,
          "midi": 65,
          "name": "F4",
          "ticks": 61056,
          "time": 50.210451,
          "velocity": 0.18110236220472442
        },
        {
          "duration": 0.0789472499999988,
          "durationTicks": 96,
          "midi": 65,
          "name": "F4",
          "ticks": 61440,
          "time": 50.52624,
          "velocity": 0.18110236220472442
        },
        {
          "duration": 0.0789472499999988,
          "durationTicks": 96,
          "midi": 72,
          "name": "C5",
          "ticks": 61824,
          "time": 50.842029,
          "velocity": 0.18110236220472442
        },
        {
          "duration": 0.0789472499999988,
          "durationTicks": 96,
          "midi": 70,
          "name": "A#4",
          "ticks": 62208,
          "time": 51.157818,
          "velocity": 0.18110236220472442
        },
        {
          "duration": 0.0789472499999988,
          "durationTicks": 96,
          "midi": 65,
          "name": "F4",
          "ticks": 62592,
          "time": 51.473607,
          "velocity": 0.18110236220472442
        },
        {
          "duration": 0.0789472499999988,
          "durationTicks": 96,
          "midi": 67,
          "name": "G4",
          "ticks": 62976,
          "time": 51.789395999999996,
          "velocity": 0.18110236220472442
        },
        {
          "duration": 0.0789472499999988,
          "durationTicks": 96,
          "midi": 67,
          "name": "G4",
          "ticks": 63552,
          "time": 52.263079499999996,
          "velocity": 0.18110236220472442
        },
        {
          "duration": 0.0789472499999988,
          "durationTicks": 96,
          "midi": 68,
          "name": "G#4",
          "ticks": 64128,
          "time": 52.736762999999996,
          "velocity": 0.18110236220472442
        },
        {
          "duration": 0.0789472499999988,
          "durationTicks": 96,
          "midi": 63,
          "name": "D#4",
          "ticks": 64512,
          "time": 53.052552,
          "velocity": 0.18110236220472442
        },
        {
          "duration": 0.0789472499999988,
          "durationTicks": 96,
          "midi": 72,
          "name": "C5",
          "ticks": 64896,
          "time": 53.368341,
          "velocity": 0.18110236220472442
        },
        {
          "duration": 0.0789472499999988,
          "durationTicks": 96,
          "midi": 70,
          "name": "A#4",
          "ticks": 65280,
          "time": 53.684129999999996,
          "velocity": 0.18110236220472442
        },
        {
          "duration": 0.0789472499999988,
          "durationTicks": 96,
          "midi": 65,
          "name": "F4",
          "ticks": 65664,
          "time": 53.999919,
          "velocity": 0.18110236220472442
        },
        {
          "duration": 0.0789472499999988,
          "durationTicks": 96,
          "midi": 67,
          "name": "G4",
          "ticks": 66048,
          "time": 54.315708,
          "velocity": 0.18110236220472442
        },
        {
          "duration": 0.0789472499999988,
          "durationTicks": 96,
          "midi": 67,
          "name": "G4",
          "ticks": 66624,
          "time": 54.7893915,
          "velocity": 0.18110236220472442
        },
        {
          "duration": 0.0789472499999988,
          "durationTicks": 96,
          "midi": 68,
          "name": "G#4",
          "ticks": 67200,
          "time": 55.263075,
          "velocity": 0.18110236220472442
        },
        {
          "duration": 0.0789472499999988,
          "durationTicks": 96,
          "midi": 65,
          "name": "F4",
          "ticks": 67584,
          "time": 55.578863999999996,
          "velocity": 0.18110236220472442
        },
        {
          "duration": 0.0789472499999988,
          "durationTicks": 96,
          "midi": 72,
          "name": "C5",
          "ticks": 67968,
          "time": 55.894653,
          "velocity": 0.18110236220472442
        },
        {
          "duration": 0.0789472499999988,
          "durationTicks": 96,
          "midi": 70,
          "name": "A#4",
          "ticks": 68352,
          "time": 56.210442,
          "velocity": 0.18110236220472442
        },
        {
          "duration": 0.0789472499999988,
          "durationTicks": 96,
          "midi": 65,
          "name": "F4",
          "ticks": 68736,
          "time": 56.526230999999996,
          "velocity": 0.18110236220472442
        },
        {
          "duration": 0.0789472499999988,
          "durationTicks": 96,
          "midi": 67,
          "name": "G4",
          "ticks": 69120,
          "time": 56.84202,
          "velocity": 0.18110236220472442
        },
        {
          "duration": 0.0789472499999988,
          "durationTicks": 96,
          "midi": 67,
          "name": "G4",
          "ticks": 69696,
          "time": 57.3157035,
          "velocity": 0.18110236220472442
        },
        {
          "duration": 0.0789472499999988,
          "durationTicks": 96,
          "midi": 68,
          "name": "G#4",
          "ticks": 70272,
          "time": 57.789387,
          "velocity": 0.18110236220472442
        }
      ],
      "endOfTrackTicks": 70368
    },
    {
      "channel": 10,
      "controlChanges": {},
      "pitchBends": [],
      "instrument": {
        "family": "bass",
        "number": 36,
        "name": "slap bass 1"
      },
      "name": "Slap Bass",
      "notes": [
        {
          "duration": 0.0789472499999988,
          "durationTicks": 96,
          "midi": 34,
          "name": "A#1",
          "ticks": 73728,
          "time": 60.631488,
          "velocity": 0.2755905511811024
        },
        {
          "duration": 0.07894725000000591,
          "durationTicks": 96,
          "midi": 34,
          "name": "A#1",
          "ticks": 73920,
          "time": 60.789382499999995,
          "velocity": 0.2125984251968504
        },
        {
          "duration": 0.0789472499999988,
          "durationTicks": 96,
          "midi": 46,
          "name": "A#2",
          "ticks": 74112,
          "time": 60.947277,
          "velocity": 0.2125984251968504
        },
        {
          "duration": 0.0789472499999988,
          "durationTicks": 96,
          "midi": 34,
          "name": "A#1",
          "ticks": 74304,
          "time": 61.1051715,
          "velocity": 0.2125984251968504
        },
        {
          "duration": 0.07894725000000591,
          "durationTicks": 96,
          "midi": 34,
          "name": "A#1",
          "ticks": 74496,
          "time": 61.263065999999995,
          "velocity": 0.2125984251968504
        },
        {
          "duration": 0.0789472499999988,
          "durationTicks": 96,
          "midi": 46,
          "name": "A#2",
          "ticks": 74688,
          "time": 61.4209605,
          "velocity": 0.2125984251968504
        },
        {
          "duration": 0.0789472499999988,
          "durationTicks": 96,
          "midi": 34,
          "name": "A#1",
          "ticks": 74880,
          "time": 61.578855,
          "velocity": 0.2125984251968504
        },
        {
          "duration": 0.07894725000000591,
          "durationTicks": 96,
          "midi": 34,
          "name": "A#1",
          "ticks": 75072,
          "time": 61.736749499999995,
          "velocity": 0.2125984251968504
        },
        {
          "duration": 0.0789472499999988,
          "durationTicks": 96,
          "midi": 34,
          "name": "A#1",
          "ticks": 75264,
          "time": 61.894644,
          "velocity": 0.2125984251968504
        },
        {
          "duration": 0.0789472499999988,
          "durationTicks": 96,
          "midi": 34,
          "name": "A#1",
          "ticks": 75456,
          "time": 62.0525385,
          "velocity": 0.2125984251968504
        },
        {
          "duration": 0.07894725000000591,
          "durationTicks": 96,
          "midi": 46,
          "name": "A#2",
          "ticks": 75648,
          "time": 62.210432999999995,
          "velocity": 0.2125984251968504
        },
        {
          "duration": 0.0789472499999988,
          "durationTicks": 96,
          "midi": 34,
          "name": "A#1",
          "ticks": 75840,
          "time": 62.3683275,
          "velocity": 0.2125984251968504
        },
        {
          "duration": 0.0789472499999988,
          "durationTicks": 96,
          "midi": 34,
          "name": "A#1",
          "ticks": 76032,
          "time": 62.526222,
          "velocity": 0.2125984251968504
        },
        {
          "duration": 0.07894725000000591,
          "durationTicks": 96,
          "midi": 46,
          "name": "A#2",
          "ticks": 76224,
          "time": 62.684116499999995,
          "velocity": 0.2125984251968504
        },
        {
          "duration": 0.0789472499999988,
          "durationTicks": 96,
          "midi": 34,
          "name": "A#1",
          "ticks": 76416,
          "time": 62.842011,
          "velocity": 0.2125984251968504
        },
        {
          "duration": 0.0789472499999988,
          "durationTicks": 96,
          "midi": 34,
          "name": "A#1",
          "ticks": 76608,
          "time": 62.9999055,
          "velocity": 0.2125984251968504
        },
        {
          "duration": 0.07894725000000591,
          "durationTicks": 96,
          "midi": 36,
          "name": "C2",
          "ticks": 76800,
          "time": 63.157799999999995,
          "velocity": 0.2125984251968504
        },
        {
          "duration": 0.0789472499999988,
          "durationTicks": 96,
          "midi": 36,
          "name": "C2",
          "ticks": 76992,
          "time": 63.3156945,
          "velocity": 0.2125984251968504
        },
        {
          "duration": 0.0789472499999988,
          "durationTicks": 96,
          "midi": 48,
          "name": "C3",
          "ticks": 77184,
          "time": 63.473589,
          "velocity": 0.2125984251968504
        },
        {
          "duration": 0.07894725000000591,
          "durationTicks": 96,
          "midi": 36,
          "name": "C2",
          "ticks": 77376,
          "time": 63.631483499999995,
          "velocity": 0.2125984251968504
        },
        {
          "duration": 0.0789472499999988,
          "durationTicks": 96,
          "midi": 36,
          "name": "C2",
          "ticks": 77568,
          "time": 63.789378,
          "velocity": 0.2125984251968504
        },
        {
          "duration": 0.0789472499999988,
          "durationTicks": 96,
          "midi": 48,
          "name": "C3",
          "ticks": 77760,
          "time": 63.9472725,
          "velocity": 0.2125984251968504
        },
        {
          "duration": 0.0789472499999988,
          "durationTicks": 96,
          "midi": 36,
          "name": "C2",
          "ticks": 77952,
          "time": 64.105167,
          "velocity": 0.2125984251968504
        },
        {
          "duration": 0.0789472499999988,
          "durationTicks": 96,
          "midi": 36,
          "name": "C2",
          "ticks": 78144,
          "time": 64.26306149999999,
          "velocity": 0.2125984251968504
        },
        {
          "duration": 0.0789472499999988,
          "durationTicks": 96,
          "midi": 36,
          "name": "C2",
          "ticks": 78336,
          "time": 64.420956,
          "velocity": 0.2125984251968504
        },
        {
          "duration": 0.0789472499999988,
          "durationTicks": 96,
          "midi": 36,
          "name": "C2",
          "ticks": 78528,
          "time": 64.5788505,
          "velocity": 0.2125984251968504
        },
        {
          "duration": 0.0789472499999988,
          "durationTicks": 96,
          "midi": 48,
          "name": "C3",
          "ticks": 78720,
          "time": 64.736745,
          "velocity": 0.2125984251968504
        },
        {
          "duration": 0.0789472499999988,
          "durationTicks": 96,
          "midi": 36,
          "name": "C2",
          "ticks": 78912,
          "time": 64.8946395,
          "velocity": 0.2125984251968504
        },
        {
          "duration": 0.0789472499999988,
          "durationTicks": 96,
          "midi": 36,
          "name": "C2",
          "ticks": 79104,
          "time": 65.052534,
          "velocity": 0.2125984251968504
        },
        {
          "duration": 0.0789472499999988,
          "durationTicks": 96,
          "midi": 48,
          "name": "C3",
          "ticks": 79296,
          "time": 65.21042849999999,
          "velocity": 0.2125984251968504
        },
        {
          "duration": 0.0789472499999988,
          "durationTicks": 96,
          "midi": 36,
          "name": "C2",
          "ticks": 79488,
          "time": 65.368323,
          "velocity": 0.2125984251968504
        },
        {
          "duration": 0.0789472499999988,
          "durationTicks": 96,
          "midi": 36,
          "name": "C2",
          "ticks": 79680,
          "time": 65.5262175,
          "velocity": 0.2125984251968504
        },
        {
          "duration": 0.0789472499999988,
          "durationTicks": 96,
          "midi": 37,
          "name": "C#2",
          "ticks": 79872,
          "time": 65.684112,
          "velocity": 0.2125984251968504
        },
        {
          "duration": 0.0789472499999988,
          "durationTicks": 96,
          "midi": 37,
          "name": "C#2",
          "ticks": 80064,
          "time": 65.8420065,
          "velocity": 0.2125984251968504
        },
        {
          "duration": 0.0789472499999988,
          "durationTicks": 96,
          "midi": 49,
          "name": "C#3",
          "ticks": 80256,
          "time": 65.999901,
          "velocity": 0.2125984251968504
        },
        {
          "duration": 0.0789472499999988,
          "durationTicks": 96,
          "midi": 37,
          "name": "C#2",
          "ticks": 80448,
          "time": 66.15779549999999,
          "velocity": 0.2125984251968504
        },
        {
          "duration": 0.0789472499999988,
          "durationTicks": 96,
          "midi": 37,
          "name": "C#2",
          "ticks": 80640,
          "time": 66.31569,
          "velocity": 0.2125984251968504
        },
        {
          "duration": 0.0789472499999988,
          "durationTicks": 96,
          "midi": 49,
          "name": "C#3",
          "ticks": 80832,
          "time": 66.4735845,
          "velocity": 0.2125984251968504
        },
        {
          "duration": 0.0789472499999988,
          "durationTicks": 96,
          "midi": 37,
          "name": "C#2",
          "ticks": 81024,
          "time": 66.631479,
          "velocity": 0.2125984251968504
        },
        {
          "duration": 0.0789472499999988,
          "durationTicks": 96,
          "midi": 37,
          "name": "C#2",
          "ticks": 81216,
          "time": 66.7893735,
          "velocity": 0.2125984251968504
        },
        {
          "duration": 0.0789472499999988,
          "durationTicks": 96,
          "midi": 37,
          "name": "C#2",
          "ticks": 81408,
          "time": 66.947268,
          "velocity": 0.2125984251968504
        },
        {
          "duration": 0.0789472499999988,
          "durationTicks": 96,
          "midi": 37,
          "name": "C#2",
          "ticks": 81600,
          "time": 67.10516249999999,
          "velocity": 0.2125984251968504
        },
        {
          "duration": 0.0789472499999988,
          "durationTicks": 96,
          "midi": 49,
          "name": "C#3",
          "ticks": 81792,
          "time": 67.263057,
          "velocity": 0.2125984251968504
        },
        {
          "duration": 0.0789472499999988,
          "durationTicks": 96,
          "midi": 37,
          "name": "C#2",
          "ticks": 81984,
          "time": 67.4209515,
          "velocity": 0.2125984251968504
        },
        {
          "duration": 0.0789472499999988,
          "durationTicks": 96,
          "midi": 37,
          "name": "C#2",
          "ticks": 82176,
          "time": 67.578846,
          "velocity": 0.2125984251968504
        },
        {
          "duration": 0.0789472499999988,
          "durationTicks": 96,
          "midi": 49,
          "name": "C#3",
          "ticks": 82368,
          "time": 67.7367405,
          "velocity": 0.2125984251968504
        },
        {
          "duration": 0.0789472499999988,
          "durationTicks": 96,
          "midi": 37,
          "name": "C#2",
          "ticks": 82560,
          "time": 67.894635,
          "velocity": 0.2125984251968504
        },
        {
          "duration": 0.0789472499999988,
          "durationTicks": 96,
          "midi": 37,
          "name": "C#2",
          "ticks": 82752,
          "time": 68.05252949999999,
          "velocity": 0.2125984251968504
        },
        {
          "duration": 0.0789472499999988,
          "durationTicks": 96,
          "midi": 37,
          "name": "C#2",
          "ticks": 82944,
          "time": 68.210424,
          "velocity": 0.2125984251968504
        },
        {
          "duration": 0.0789472499999988,
          "durationTicks": 96,
          "midi": 37,
          "name": "C#2",
          "ticks": 83136,
          "time": 68.3683185,
          "velocity": 0.2125984251968504
        },
        {
          "duration": 0.0789472499999988,
          "durationTicks": 96,
          "midi": 49,
          "name": "C#3",
          "ticks": 83328,
          "time": 68.526213,
          "velocity": 0.2125984251968504
        },
        {
          "duration": 0.0789472499999988,
          "durationTicks": 96,
          "midi": 37,
          "name": "C#2",
          "ticks": 83520,
          "time": 68.6841075,
          "velocity": 0.2125984251968504
        },
        {
          "duration": 0.0789472499999988,
          "durationTicks": 96,
          "midi": 37,
          "name": "C#2",
          "ticks": 83712,
          "time": 68.842002,
          "velocity": 0.2125984251968504
        },
        {
          "duration": 0.0789472499999988,
          "durationTicks": 96,
          "midi": 49,
          "name": "C#3",
          "ticks": 83904,
          "time": 68.99989649999999,
          "velocity": 0.2125984251968504
        },
        {
          "duration": 0.0789472499999988,
          "durationTicks": 96,
          "midi": 37,
          "name": "C#2",
          "ticks": 84096,
          "time": 69.157791,
          "velocity": 0.2125984251968504
        },
        {
          "duration": 0.0789472499999988,
          "durationTicks": 96,
          "midi": 37,
          "name": "C#2",
          "ticks": 84288,
          "time": 69.3156855,
          "velocity": 0.2125984251968504
        },
        {
          "duration": 0.0789472499999988,
          "durationTicks": 96,
          "midi": 36,
          "name": "C2",
          "ticks": 84480,
          "time": 69.47358,
          "velocity": 0.2125984251968504
        },
        {
          "duration": 0.0789472499999988,
          "durationTicks": 96,
          "midi": 36,
          "name": "C2",
          "ticks": 84672,
          "time": 69.6314745,
          "velocity": 0.2125984251968504
        },
        {
          "duration": 0.0789472499999988,
          "durationTicks": 96,
          "midi": 48,
          "name": "C3",
          "ticks": 84864,
          "time": 69.789369,
          "velocity": 0.2125984251968504
        },
        {
          "duration": 0.0789472499999988,
          "durationTicks": 96,
          "midi": 36,
          "name": "C2",
          "ticks": 85056,
          "time": 69.94726349999999,
          "velocity": 0.2125984251968504
        },
        {
          "duration": 0.0789472499999988,
          "durationTicks": 96,
          "midi": 36,
          "name": "C2",
          "ticks": 85248,
          "time": 70.105158,
          "velocity": 0.2125984251968504
        },
        {
          "duration": 0.0789472499999988,
          "durationTicks": 96,
          "midi": 48,
          "name": "C3",
          "ticks": 85440,
          "time": 70.2630525,
          "velocity": 0.2125984251968504
        },
        {
          "duration": 0.0789472499999988,
          "durationTicks": 96,
          "midi": 36,
          "name": "C2",
          "ticks": 85632,
          "time": 70.420947,
          "velocity": 0.2125984251968504
        },
        {
          "duration": 0.0789472499999988,
          "durationTicks": 96,
          "midi": 36,
          "name": "C2",
          "ticks": 85824,
          "time": 70.5788415,
          "velocity": 0.2125984251968504
        },
        {
          "duration": 0.0789472499999988,
          "durationTicks": 96,
          "midi": 34,
          "name": "A#1",
          "ticks": 86016,
          "time": 70.736736,
          "velocity": 0.2125984251968504
        },
        {
          "duration": 0.07894725000001301,
          "durationTicks": 96,
          "midi": 34,
          "name": "A#1",
          "ticks": 86208,
          "time": 70.89463049999999,
          "velocity": 0.2125984251968504
        },
        {
          "duration": 0.0789472499999988,
          "durationTicks": 96,
          "midi": 46,
          "name": "A#2",
          "ticks": 86400,
          "time": 71.052525,
          "velocity": 0.2125984251968504
        },
        {
          "duration": 0.0789472499999988,
          "durationTicks": 96,
          "midi": 34,
          "name": "A#1",
          "ticks": 86592,
          "time": 71.2104195,
          "velocity": 0.2125984251968504
        },
        {
          "duration": 0.0789472499999988,
          "durationTicks": 96,
          "midi": 34,
          "name": "A#1",
          "ticks": 86784,
          "time": 71.368314,
          "velocity": 0.2125984251968504
        },
        {
          "duration": 0.0789472499999988,
          "durationTicks": 96,
          "midi": 46,
          "name": "A#2",
          "ticks": 86976,
          "time": 71.5262085,
          "velocity": 0.2125984251968504
        },
        {
          "duration": 0.0789472499999988,
          "durationTicks": 96,
          "midi": 34,
          "name": "A#1",
          "ticks": 87168,
          "time": 71.684103,
          "velocity": 0.2125984251968504
        },
        {
          "duration": 0.07894725000001301,
          "durationTicks": 96,
          "midi": 34,
          "name": "A#1",
          "ticks": 87360,
          "time": 71.84199749999999,
          "velocity": 0.2125984251968504
        },
        {
          "duration": 0.0789472499999988,
          "durationTicks": 96,
          "midi": 34,
          "name": "A#1",
          "ticks": 87552,
          "time": 71.999892,
          "velocity": 0.2125984251968504
        },
        {
          "duration": 0.0789472499999988,
          "durationTicks": 96,
          "midi": 34,
          "name": "A#1",
          "ticks": 87744,
          "time": 72.1577865,
          "velocity": 0.2125984251968504
        },
        {
          "duration": 0.0789472499999988,
          "durationTicks": 96,
          "midi": 46,
          "name": "A#2",
          "ticks": 87936,
          "time": 72.315681,
          "velocity": 0.2125984251968504
        },
        {
          "duration": 0.0789472499999988,
          "durationTicks": 96,
          "midi": 34,
          "name": "A#1",
          "ticks": 88128,
          "time": 72.4735755,
          "velocity": 0.2125984251968504
        },
        {
          "duration": 0.0789472499999988,
          "durationTicks": 96,
          "midi": 34,
          "name": "A#1",
          "ticks": 88320,
          "time": 72.63147,
          "velocity": 0.2125984251968504
        },
        {
          "duration": 0.07894725000001301,
          "durationTicks": 96,
          "midi": 46,
          "name": "A#2",
          "ticks": 88512,
          "time": 72.78936449999999,
          "velocity": 0.2125984251968504
        },
        {
          "duration": 0.0789472499999988,
          "durationTicks": 96,
          "midi": 34,
          "name": "A#1",
          "ticks": 88704,
          "time": 72.947259,
          "velocity": 0.2125984251968504
        },
        {
          "duration": 0.0789472499999988,
          "durationTicks": 96,
          "midi": 34,
          "name": "A#1",
          "ticks": 88896,
          "time": 73.1051535,
          "velocity": 0.2125984251968504
        },
        {
          "duration": 0.0789472499999988,
          "durationTicks": 96,
          "midi": 36,
          "name": "C2",
          "ticks": 89088,
          "time": 73.263048,
          "velocity": 0.2125984251968504
        },
        {
          "duration": 0.0789472499999988,
          "durationTicks": 96,
          "midi": 36,
          "name": "C2",
          "ticks": 89280,
          "time": 73.4209425,
          "velocity": 0.2125984251968504
        },
        {
          "duration": 0.0789472499999988,
          "durationTicks": 96,
          "midi": 48,
          "name": "C3",
          "ticks": 89472,
          "time": 73.578837,
          "velocity": 0.2125984251968504
        },
        {
          "duration": 0.07894725000001301,
          "durationTicks": 96,
          "midi": 36,
          "name": "C2",
          "ticks": 89664,
          "time": 73.73673149999999,
          "velocity": 0.2125984251968504
        },
        {
          "duration": 0.0789472499999988,
          "durationTicks": 96,
          "midi": 36,
          "name": "C2",
          "ticks": 89856,
          "time": 73.894626,
          "velocity": 0.2125984251968504
        },
        {
          "duration": 0.0789472499999988,
          "durationTicks": 96,
          "midi": 48,
          "name": "C3",
          "ticks": 90048,
          "time": 74.0525205,
          "velocity": 0.2125984251968504
        },
        {
          "duration": 0.0789472499999988,
          "durationTicks": 96,
          "midi": 36,
          "name": "C2",
          "ticks": 90240,
          "time": 74.210415,
          "velocity": 0.2125984251968504
        },
        {
          "duration": 0.0789472499999988,
          "durationTicks": 96,
          "midi": 36,
          "name": "C2",
          "ticks": 90432,
          "time": 74.3683095,
          "velocity": 0.2125984251968504
        },
        {
          "duration": 0.0789472499999988,
          "durationTicks": 96,
          "midi": 36,
          "name": "C2",
          "ticks": 90624,
          "time": 74.52620399999999,
          "velocity": 0.2125984251968504
        },
        {
          "duration": 0.07894725000001301,
          "durationTicks": 96,
          "midi": 36,
          "name": "C2",
          "ticks": 90816,
          "time": 74.68409849999999,
          "velocity": 0.2125984251968504
        },
        {
          "duration": 0.0789472499999988,
          "durationTicks": 96,
          "midi": 48,
          "name": "C3",
          "ticks": 91008,
          "time": 74.841993,
          "velocity": 0.2125984251968504
        },
        {
          "duration": 0.0789472499999988,
          "durationTicks": 96,
          "midi": 36,
          "name": "C2",
          "ticks": 91200,
          "time": 74.9998875,
          "velocity": 0.2125984251968504
        },
        {
          "duration": 0.0789472499999988,
          "durationTicks": 96,
          "midi": 36,
          "name": "C2",
          "ticks": 91392,
          "time": 75.157782,
          "velocity": 0.2125984251968504
        },
        {
          "duration": 0.0789472499999988,
          "durationTicks": 96,
          "midi": 48,
          "name": "C3",
          "ticks": 91584,
          "time": 75.3156765,
          "velocity": 0.2125984251968504
        },
        {
          "duration": 0.0789472499999988,
          "durationTicks": 96,
          "midi": 36,
          "name": "C2",
          "ticks": 91776,
          "time": 75.47357099999999,
          "velocity": 0.2125984251968504
        },
        {
          "duration": 0.07894725000001301,
          "durationTicks": 96,
          "midi": 36,
          "name": "C2",
          "ticks": 91968,
          "time": 75.63146549999999,
          "velocity": 0.2125984251968504
        },
        {
          "duration": 0.0789472499999988,
          "durationTicks": 96,
          "midi": 37,
          "name": "C#2",
          "ticks": 92160,
          "time": 75.78936,
          "velocity": 0.2125984251968504
        },
        {
          "duration": 0.0789472499999988,
          "durationTicks": 96,
          "midi": 37,
          "name": "C#2",
          "ticks": 92352,
          "time": 75.9472545,
          "velocity": 0.2125984251968504
        },
        {
          "duration": 0.0789472499999988,
          "durationTicks": 96,
          "midi": 49,
          "name": "C#3",
          "ticks": 92544,
          "time": 76.105149,
          "velocity": 0.2125984251968504
        },
        {
          "duration": 0.0789472499999988,
          "durationTicks": 96,
          "midi": 37,
          "name": "C#2",
          "ticks": 92736,
          "time": 76.2630435,
          "velocity": 0.2125984251968504
        },
        {
          "duration": 0.0789472499999988,
          "durationTicks": 96,
          "midi": 37,
          "name": "C#2",
          "ticks": 92928,
          "time": 76.42093799999999,
          "velocity": 0.2125984251968504
        },
        {
          "duration": 0.07894725000001301,
          "durationTicks": 96,
          "midi": 49,
          "name": "C#3",
          "ticks": 93120,
          "time": 76.57883249999999,
          "velocity": 0.2125984251968504
        },
        {
          "duration": 0.0789472499999988,
          "durationTicks": 96,
          "midi": 37,
          "name": "C#2",
          "ticks": 93312,
          "time": 76.736727,
          "velocity": 0.2125984251968504
        },
        {
          "duration": 0.0789472499999988,
          "durationTicks": 96,
          "midi": 37,
          "name": "C#2",
          "ticks": 93504,
          "time": 76.8946215,
          "velocity": 0.2125984251968504
        },
        {
          "duration": 0.0789472499999988,
          "durationTicks": 96,
          "midi": 37,
          "name": "C#2",
          "ticks": 93696,
          "time": 77.052516,
          "velocity": 0.2125984251968504
        },
        {
          "duration": 0.0789472499999988,
          "durationTicks": 96,
          "midi": 37,
          "name": "C#2",
          "ticks": 93888,
          "time": 77.2104105,
          "velocity": 0.2125984251968504
        },
        {
          "duration": 0.0789472499999988,
          "durationTicks": 96,
          "midi": 49,
          "name": "C#3",
          "ticks": 94080,
          "time": 77.36830499999999,
          "velocity": 0.2125984251968504
        },
        {
          "duration": 0.07894725000001301,
          "durationTicks": 96,
          "midi": 37,
          "name": "C#2",
          "ticks": 94272,
          "time": 77.52619949999999,
          "velocity": 0.2125984251968504
        },
        {
          "duration": 0.0789472499999988,
          "durationTicks": 96,
          "midi": 37,
          "name": "C#2",
          "ticks": 94464,
          "time": 77.684094,
          "velocity": 0.2125984251968504
        },
        {
          "duration": 0.0789472499999988,
          "durationTicks": 96,
          "midi": 49,
          "name": "C#3",
          "ticks": 94656,
          "time": 77.8419885,
          "velocity": 0.2125984251968504
        },
        {
          "duration": 0.0789472499999988,
          "durationTicks": 96,
          "midi": 37,
          "name": "C#2",
          "ticks": 94848,
          "time": 77.999883,
          "velocity": 0.2125984251968504
        },
        {
          "duration": 0.0789472499999988,
          "durationTicks": 96,
          "midi": 37,
          "name": "C#2",
          "ticks": 95040,
          "time": 78.1577775,
          "velocity": 0.2125984251968504
        },
        {
          "duration": 0.0789472499999988,
          "durationTicks": 96,
          "midi": 37,
          "name": "C#2",
          "ticks": 95232,
          "time": 78.31567199999999,
          "velocity": 0.2125984251968504
        },
        {
          "duration": 0.07894725000001301,
          "durationTicks": 96,
          "midi": 37,
          "name": "C#2",
          "ticks": 95424,
          "time": 78.47356649999999,
          "velocity": 0.2125984251968504
        },
        {
          "duration": 0.0789472499999988,
          "durationTicks": 96,
          "midi": 49,
          "name": "C#3",
          "ticks": 95616,
          "time": 78.631461,
          "velocity": 0.2125984251968504
        },
        {
          "duration": 0.0789472499999988,
          "durationTicks": 96,
          "midi": 37,
          "name": "C#2",
          "ticks": 95808,
          "time": 78.7893555,
          "velocity": 0.2125984251968504
        },
        {
          "duration": 0.0789472499999988,
          "durationTicks": 96,
          "midi": 37,
          "name": "C#2",
          "ticks": 96000,
          "time": 78.94725,
          "velocity": 0.2125984251968504
        },
        {
          "duration": 0.0789472499999988,
          "durationTicks": 96,
          "midi": 49,
          "name": "C#3",
          "ticks": 96192,
          "time": 79.1051445,
          "velocity": 0.2125984251968504
        },
        {
          "duration": 0.0789472499999988,
          "durationTicks": 96,
          "midi": 37,
          "name": "C#2",
          "ticks": 96384,
          "time": 79.26303899999999,
          "velocity": 0.2125984251968504
        },
        {
          "duration": 0.07894725000001301,
          "durationTicks": 96,
          "midi": 37,
          "name": "C#2",
          "ticks": 96576,
          "time": 79.42093349999999,
          "velocity": 0.2125984251968504
        },
        {
          "duration": 0.0789472499999988,
          "durationTicks": 96,
          "midi": 36,
          "name": "C2",
          "ticks": 96768,
          "time": 79.578828,
          "velocity": 0.2125984251968504
        },
        {
          "duration": 0.0789472499999988,
          "durationTicks": 96,
          "midi": 36,
          "name": "C2",
          "ticks": 96960,
          "time": 79.7367225,
          "velocity": 0.2125984251968504
        },
        {
          "duration": 0.0789472499999988,
          "durationTicks": 96,
          "midi": 48,
          "name": "C3",
          "ticks": 97152,
          "time": 79.894617,
          "velocity": 0.2125984251968504
        },
        {
          "duration": 0.0789472499999988,
          "durationTicks": 96,
          "midi": 36,
          "name": "C2",
          "ticks": 97344,
          "time": 80.0525115,
          "velocity": 0.2125984251968504
        },
        {
          "duration": 0.0789472499999988,
          "durationTicks": 96,
          "midi": 36,
          "name": "C2",
          "ticks": 97536,
          "time": 80.21040599999999,
          "velocity": 0.2125984251968504
        },
        {
          "duration": 0.07894725000001301,
          "durationTicks": 96,
          "midi": 48,
          "name": "C3",
          "ticks": 97728,
          "time": 80.36830049999999,
          "velocity": 0.2125984251968504
        },
        {
          "duration": 0.0789472499999988,
          "durationTicks": 96,
          "midi": 36,
          "name": "C2",
          "ticks": 97920,
          "time": 80.526195,
          "velocity": 0.2125984251968504
        },
        {
          "duration": 0.0789472499999988,
          "durationTicks": 96,
          "midi": 36,
          "name": "C2",
          "ticks": 98112,
          "time": 80.6840895,
          "velocity": 0.2125984251968504
        },
        {
          "duration": 0.0789472499999988,
          "durationTicks": 96,
          "midi": 34,
          "name": "A#1",
          "ticks": 98304,
          "time": 80.841984,
          "velocity": 0.2125984251968504
        },
        {
          "duration": 0.0789472499999988,
          "durationTicks": 96,
          "midi": 34,
          "name": "A#1",
          "ticks": 98496,
          "time": 80.9998785,
          "velocity": 0.2125984251968504
        },
        {
          "duration": 0.0789472499999988,
          "durationTicks": 96,
          "midi": 46,
          "name": "A#2",
          "ticks": 98688,
          "time": 81.15777299999999,
          "velocity": 0.2125984251968504
        },
        {
          "duration": 0.0789472499999988,
          "durationTicks": 96,
          "midi": 34,
          "name": "A#1",
          "ticks": 98880,
          "time": 81.3156675,
          "velocity": 0.2125984251968504
        },
        {
          "duration": 0.0789472499999988,
          "durationTicks": 96,
          "midi": 34,
          "name": "A#1",
          "ticks": 99072,
          "time": 81.473562,
          "velocity": 0.2125984251968504
        },
        {
          "duration": 0.0789472499999988,
          "durationTicks": 96,
          "midi": 46,
          "name": "A#2",
          "ticks": 99264,
          "time": 81.6314565,
          "velocity": 0.2125984251968504
        },
        {
          "duration": 0.0789472499999988,
          "durationTicks": 96,
          "midi": 34,
          "name": "A#1",
          "ticks": 99456,
          "time": 81.789351,
          "velocity": 0.2125984251968504
        },
        {
          "duration": 0.0789472499999988,
          "durationTicks": 96,
          "midi": 34,
          "name": "A#1",
          "ticks": 99648,
          "time": 81.9472455,
          "velocity": 0.2125984251968504
        },
        {
          "duration": 0.0789472499999988,
          "durationTicks": 96,
          "midi": 34,
          "name": "A#1",
          "ticks": 99840,
          "time": 82.10513999999999,
          "velocity": 0.2125984251968504
        },
        {
          "duration": 0.0789472499999988,
          "durationTicks": 96,
          "midi": 34,
          "name": "A#1",
          "ticks": 100032,
          "time": 82.2630345,
          "velocity": 0.2125984251968504
        },
        {
          "duration": 0.0789472499999988,
          "durationTicks": 96,
          "midi": 46,
          "name": "A#2",
          "ticks": 100224,
          "time": 82.420929,
          "velocity": 0.2125984251968504
        },
        {
          "duration": 0.0789472499999988,
          "durationTicks": 96,
          "midi": 34,
          "name": "A#1",
          "ticks": 100416,
          "time": 82.5788235,
          "velocity": 0.2125984251968504
        },
        {
          "duration": 0.0789472499999988,
          "durationTicks": 96,
          "midi": 34,
          "name": "A#1",
          "ticks": 100608,
          "time": 82.736718,
          "velocity": 0.2125984251968504
        },
        {
          "duration": 0.0789472499999988,
          "durationTicks": 96,
          "midi": 46,
          "name": "A#2",
          "ticks": 100800,
          "time": 82.8946125,
          "velocity": 0.2125984251968504
        },
        {
          "duration": 0.0789472499999988,
          "durationTicks": 96,
          "midi": 34,
          "name": "A#1",
          "ticks": 100992,
          "time": 83.05250699999999,
          "velocity": 0.2125984251968504
        },
        {
          "duration": 0.0789472499999988,
          "durationTicks": 96,
          "midi": 34,
          "name": "A#1",
          "ticks": 101184,
          "time": 83.2104015,
          "velocity": 0.2125984251968504
        },
        {
          "duration": 0.0789472499999988,
          "durationTicks": 96,
          "midi": 36,
          "name": "C2",
          "ticks": 101376,
          "time": 83.368296,
          "velocity": 0.2125984251968504
        },
        {
          "duration": 0.0789472499999988,
          "durationTicks": 96,
          "midi": 36,
          "name": "C2",
          "ticks": 101568,
          "time": 83.5261905,
          "velocity": 0.2125984251968504
        },
        {
          "duration": 0.0789472499999988,
          "durationTicks": 96,
          "midi": 48,
          "name": "C3",
          "ticks": 101760,
          "time": 83.684085,
          "velocity": 0.2125984251968504
        },
        {
          "duration": 0.0789472499999988,
          "durationTicks": 96,
          "midi": 36,
          "name": "C2",
          "ticks": 101952,
          "time": 83.8419795,
          "velocity": 0.2125984251968504
        },
        {
          "duration": 0.0789472499999988,
          "durationTicks": 96,
          "midi": 36,
          "name": "C2",
          "ticks": 102144,
          "time": 83.99987399999999,
          "velocity": 0.2125984251968504
        },
        {
          "duration": 0.0789472499999988,
          "durationTicks": 96,
          "midi": 48,
          "name": "C3",
          "ticks": 102336,
          "time": 84.1577685,
          "velocity": 0.2125984251968504
        },
        {
          "duration": 0.0789472499999988,
          "durationTicks": 96,
          "midi": 36,
          "name": "C2",
          "ticks": 102528,
          "time": 84.315663,
          "velocity": 0.2125984251968504
        },
        {
          "duration": 0.0789472499999988,
          "durationTicks": 96,
          "midi": 36,
          "name": "C2",
          "ticks": 102720,
          "time": 84.4735575,
          "velocity": 0.2125984251968504
        },
        {
          "duration": 0.0789472499999988,
          "durationTicks": 96,
          "midi": 36,
          "name": "C2",
          "ticks": 102912,
          "time": 84.631452,
          "velocity": 0.2125984251968504
        },
        {
          "duration": 0.0789472499999988,
          "durationTicks": 96,
          "midi": 36,
          "name": "C2",
          "ticks": 103104,
          "time": 84.7893465,
          "velocity": 0.2125984251968504
        },
        {
          "duration": 0.0789472499999988,
          "durationTicks": 96,
          "midi": 48,
          "name": "C3",
          "ticks": 103296,
          "time": 84.94724099999999,
          "velocity": 0.2125984251968504
        },
        {
          "duration": 0.0789472499999988,
          "durationTicks": 96,
          "midi": 36,
          "name": "C2",
          "ticks": 103488,
          "time": 85.1051355,
          "velocity": 0.2125984251968504
        },
        {
          "duration": 0.0789472499999988,
          "durationTicks": 96,
          "midi": 36,
          "name": "C2",
          "ticks": 103680,
          "time": 85.26303,
          "velocity": 0.2125984251968504
        },
        {
          "duration": 0.0789472499999988,
          "durationTicks": 96,
          "midi": 48,
          "name": "C3",
          "ticks": 103872,
          "time": 85.4209245,
          "velocity": 0.2125984251968504
        },
        {
          "duration": 0.0789472499999988,
          "durationTicks": 96,
          "midi": 36,
          "name": "C2",
          "ticks": 104064,
          "time": 85.578819,
          "velocity": 0.2125984251968504
        },
        {
          "duration": 0.0789472499999988,
          "durationTicks": 96,
          "midi": 36,
          "name": "C2",
          "ticks": 104256,
          "time": 85.7367135,
          "velocity": 0.2125984251968504
        },
        {
          "duration": 0.0789472499999988,
          "durationTicks": 96,
          "midi": 37,
          "name": "C#2",
          "ticks": 104448,
          "time": 85.89460799999999,
          "velocity": 0.2125984251968504
        },
        {
          "duration": 0.0789472499999988,
          "durationTicks": 96,
          "midi": 37,
          "name": "C#2",
          "ticks": 104640,
          "time": 86.0525025,
          "velocity": 0.2125984251968504
        },
        {
          "duration": 0.0789472499999988,
          "durationTicks": 96,
          "midi": 49,
          "name": "C#3",
          "ticks": 104832,
          "time": 86.210397,
          "velocity": 0.2125984251968504
        },
        {
          "duration": 0.0789472499999988,
          "durationTicks": 96,
          "midi": 37,
          "name": "C#2",
          "ticks": 105024,
          "time": 86.3682915,
          "velocity": 0.2125984251968504
        },
        {
          "duration": 0.0789472499999988,
          "durationTicks": 96,
          "midi": 37,
          "name": "C#2",
          "ticks": 105216,
          "time": 86.526186,
          "velocity": 0.2125984251968504
        },
        {
          "duration": 0.0789472499999988,
          "durationTicks": 96,
          "midi": 49,
          "name": "C#3",
          "ticks": 105408,
          "time": 86.6840805,
          "velocity": 0.2125984251968504
        },
        {
          "duration": 0.0789472499999988,
          "durationTicks": 96,
          "midi": 37,
          "name": "C#2",
          "ticks": 105600,
          "time": 86.84197499999999,
          "velocity": 0.2125984251968504
        },
        {
          "duration": 0.0789472499999988,
          "durationTicks": 96,
          "midi": 37,
          "name": "C#2",
          "ticks": 105792,
          "time": 86.9998695,
          "velocity": 0.2125984251968504
        },
        {
          "duration": 0.0789472499999988,
          "durationTicks": 96,
          "midi": 37,
          "name": "C#2",
          "ticks": 105984,
          "time": 87.157764,
          "velocity": 0.2125984251968504
        },
        {
          "duration": 0.0789472499999988,
          "durationTicks": 96,
          "midi": 37,
          "name": "C#2",
          "ticks": 106176,
          "time": 87.3156585,
          "velocity": 0.2125984251968504
        },
        {
          "duration": 0.0789472499999988,
          "durationTicks": 96,
          "midi": 49,
          "name": "C#3",
          "ticks": 106368,
          "time": 87.473553,
          "velocity": 0.2125984251968504
        },
        {
          "duration": 0.0789472499999988,
          "durationTicks": 96,
          "midi": 37,
          "name": "C#2",
          "ticks": 106560,
          "time": 87.6314475,
          "velocity": 0.2125984251968504
        },
        {
          "duration": 0.0789472499999988,
          "durationTicks": 96,
          "midi": 37,
          "name": "C#2",
          "ticks": 106752,
          "time": 87.78934199999999,
          "velocity": 0.2125984251968504
        },
        {
          "duration": 0.0789472499999988,
          "durationTicks": 96,
          "midi": 49,
          "name": "C#3",
          "ticks": 106944,
          "time": 87.9472365,
          "velocity": 0.2125984251968504
        },
        {
          "duration": 0.0789472499999988,
          "durationTicks": 96,
          "midi": 37,
          "name": "C#2",
          "ticks": 107136,
          "time": 88.105131,
          "velocity": 0.2125984251968504
        },
        {
          "duration": 0.0789472499999988,
          "durationTicks": 96,
          "midi": 37,
          "name": "C#2",
          "ticks": 107328,
          "time": 88.2630255,
          "velocity": 0.2125984251968504
        },
        {
          "duration": 0.0789472499999988,
          "durationTicks": 96,
          "midi": 37,
          "name": "C#2",
          "ticks": 107520,
          "time": 88.42092,
          "velocity": 0.2125984251968504
        },
        {
          "duration": 0.0789472499999988,
          "durationTicks": 96,
          "midi": 37,
          "name": "C#2",
          "ticks": 107712,
          "time": 88.5788145,
          "velocity": 0.2125984251968504
        },
        {
          "duration": 0.0789472499999988,
          "durationTicks": 96,
          "midi": 49,
          "name": "C#3",
          "ticks": 107904,
          "time": 88.73670899999999,
          "velocity": 0.2125984251968504
        },
        {
          "duration": 0.0789472499999988,
          "durationTicks": 96,
          "midi": 37,
          "name": "C#2",
          "ticks": 108096,
          "time": 88.8946035,
          "velocity": 0.2125984251968504
        },
        {
          "duration": 0.0789472499999988,
          "durationTicks": 96,
          "midi": 37,
          "name": "C#2",
          "ticks": 108288,
          "time": 89.052498,
          "velocity": 0.2125984251968504
        },
        {
          "duration": 0.0789472499999988,
          "durationTicks": 96,
          "midi": 49,
          "name": "C#3",
          "ticks": 108480,
          "time": 89.2103925,
          "velocity": 0.2125984251968504
        },
        {
          "duration": 0.0789472499999988,
          "durationTicks": 96,
          "midi": 37,
          "name": "C#2",
          "ticks": 108672,
          "time": 89.368287,
          "velocity": 0.2125984251968504
        },
        {
          "duration": 0.0789472499999988,
          "durationTicks": 96,
          "midi": 37,
          "name": "C#2",
          "ticks": 108864,
          "time": 89.52618149999999,
          "velocity": 0.2125984251968504
        },
        {
          "duration": 0.0789472499999988,
          "durationTicks": 96,
          "midi": 36,
          "name": "C2",
          "ticks": 109056,
          "time": 89.68407599999999,
          "velocity": 0.2125984251968504
        },
        {
          "duration": 0.0789472499999988,
          "durationTicks": 96,
          "midi": 36,
          "name": "C2",
          "ticks": 109248,
          "time": 89.8419705,
          "velocity": 0.2125984251968504
        },
        {
          "duration": 0.0789472499999988,
          "durationTicks": 96,
          "midi": 48,
          "name": "C3",
          "ticks": 109440,
          "time": 89.999865,
          "velocity": 0.2125984251968504
        },
        {
          "duration": 0.0789472499999988,
          "durationTicks": 96,
          "midi": 36,
          "name": "C2",
          "ticks": 109632,
          "time": 90.1577595,
          "velocity": 0.2125984251968504
        },
        {
          "duration": 0.0789472499999988,
          "durationTicks": 96,
          "midi": 36,
          "name": "C2",
          "ticks": 109824,
          "time": 90.315654,
          "velocity": 0.2125984251968504
        },
        {
          "duration": 0.0789472499999988,
          "durationTicks": 96,
          "midi": 48,
          "name": "C3",
          "ticks": 110016,
          "time": 90.47354849999999,
          "velocity": 0.2125984251968504
        },
        {
          "duration": 0.0789472499999988,
          "durationTicks": 96,
          "midi": 36,
          "name": "C2",
          "ticks": 110208,
          "time": 90.63144299999999,
          "velocity": 0.2125984251968504
        },
        {
          "duration": 0.0789472499999988,
          "durationTicks": 96,
          "midi": 36,
          "name": "C2",
          "ticks": 110400,
          "time": 90.7893375,
          "velocity": 0.2125984251968504
        },
        {
          "duration": 0.0789472499999988,
          "durationTicks": 96,
          "midi": 34,
          "name": "A#1",
          "ticks": 110592,
          "time": 90.947232,
          "velocity": 0.2125984251968504
        },
        {
          "duration": 0.0789472499999988,
          "durationTicks": 96,
          "midi": 34,
          "name": "A#1",
          "ticks": 110784,
          "time": 91.1051265,
          "velocity": 0.2125984251968504
        },
        {
          "duration": 0.0789472499999988,
          "durationTicks": 96,
          "midi": 46,
          "name": "A#2",
          "ticks": 110976,
          "time": 91.263021,
          "velocity": 0.2125984251968504
        },
        {
          "duration": 0.0789472499999988,
          "durationTicks": 96,
          "midi": 34,
          "name": "A#1",
          "ticks": 111168,
          "time": 91.42091549999999,
          "velocity": 0.2125984251968504
        },
        {
          "duration": 0.07894725000001301,
          "durationTicks": 96,
          "midi": 34,
          "name": "A#1",
          "ticks": 111360,
          "time": 91.57880999999999,
          "velocity": 0.2125984251968504
        },
        {
          "duration": 0.0789472499999988,
          "durationTicks": 96,
          "midi": 46,
          "name": "A#2",
          "ticks": 111552,
          "time": 91.7367045,
          "velocity": 0.2125984251968504
        },
        {
          "duration": 0.0789472499999988,
          "durationTicks": 96,
          "midi": 34,
          "name": "A#1",
          "ticks": 111744,
          "time": 91.894599,
          "velocity": 0.2125984251968504
        },
        {
          "duration": 0.0789472499999988,
          "durationTicks": 96,
          "midi": 34,
          "name": "A#1",
          "ticks": 111936,
          "time": 92.0524935,
          "velocity": 0.2125984251968504
        },
        {
          "duration": 0.0789472499999988,
          "durationTicks": 96,
          "midi": 34,
          "name": "A#1",
          "ticks": 112128,
          "time": 92.210388,
          "velocity": 0.2125984251968504
        },
        {
          "duration": 0.0789472499999988,
          "durationTicks": 96,
          "midi": 34,
          "name": "A#1",
          "ticks": 112320,
          "time": 92.36828249999999,
          "velocity": 0.2125984251968504
        },
        {
          "duration": 0.07894725000001301,
          "durationTicks": 96,
          "midi": 46,
          "name": "A#2",
          "ticks": 112512,
          "time": 92.52617699999999,
          "velocity": 0.2125984251968504
        },
        {
          "duration": 0.0789472499999988,
          "durationTicks": 96,
          "midi": 34,
          "name": "A#1",
          "ticks": 112704,
          "time": 92.6840715,
          "velocity": 0.2125984251968504
        },
        {
          "duration": 0.0789472499999988,
          "durationTicks": 96,
          "midi": 34,
          "name": "A#1",
          "ticks": 112896,
          "time": 92.841966,
          "velocity": 0.2125984251968504
        },
        {
          "duration": 0.0789472499999988,
          "durationTicks": 96,
          "midi": 46,
          "name": "A#2",
          "ticks": 113088,
          "time": 92.9998605,
          "velocity": 0.2125984251968504
        },
        {
          "duration": 0.0789472499999988,
          "durationTicks": 96,
          "midi": 34,
          "name": "A#1",
          "ticks": 113280,
          "time": 93.157755,
          "velocity": 0.2125984251968504
        },
        {
          "duration": 0.0789472499999988,
          "durationTicks": 96,
          "midi": 34,
          "name": "A#1",
          "ticks": 113472,
          "time": 93.31564949999999,
          "velocity": 0.2125984251968504
        },
        {
          "duration": 0.07894725000001301,
          "durationTicks": 96,
          "midi": 36,
          "name": "C2",
          "ticks": 113664,
          "time": 93.47354399999999,
          "velocity": 0.2125984251968504
        },
        {
          "duration": 0.0789472499999988,
          "durationTicks": 96,
          "midi": 36,
          "name": "C2",
          "ticks": 113856,
          "time": 93.6314385,
          "velocity": 0.2125984251968504
        },
        {
          "duration": 0.0789472499999988,
          "durationTicks": 96,
          "midi": 48,
          "name": "C3",
          "ticks": 114048,
          "time": 93.789333,
          "velocity": 0.2125984251968504
        },
        {
          "duration": 0.0789472499999988,
          "durationTicks": 96,
          "midi": 36,
          "name": "C2",
          "ticks": 114240,
          "time": 93.9472275,
          "velocity": 0.2125984251968504
        },
        {
          "duration": 0.0789472499999988,
          "durationTicks": 96,
          "midi": 36,
          "name": "C2",
          "ticks": 114432,
          "time": 94.105122,
          "velocity": 0.2125984251968504
        },
        {
          "duration": 0.0789472499999988,
          "durationTicks": 96,
          "midi": 48,
          "name": "C3",
          "ticks": 114624,
          "time": 94.26301649999999,
          "velocity": 0.2125984251968504
        },
        {
          "duration": 0.07894725000001301,
          "durationTicks": 96,
          "midi": 36,
          "name": "C2",
          "ticks": 114816,
          "time": 94.42091099999999,
          "velocity": 0.2125984251968504
        },
        {
          "duration": 0.0789472499999988,
          "durationTicks": 96,
          "midi": 36,
          "name": "C2",
          "ticks": 115008,
          "time": 94.5788055,
          "velocity": 0.2125984251968504
        },
        {
          "duration": 0.0789472499999988,
          "durationTicks": 96,
          "midi": 36,
          "name": "C2",
          "ticks": 115200,
          "time": 94.7367,
          "velocity": 0.2125984251968504
        },
        {
          "duration": 0.0789472499999988,
          "durationTicks": 96,
          "midi": 36,
          "name": "C2",
          "ticks": 115392,
          "time": 94.8945945,
          "velocity": 0.2125984251968504
        },
        {
          "duration": 0.0789472499999988,
          "durationTicks": 96,
          "midi": 48,
          "name": "C3",
          "ticks": 115584,
          "time": 95.052489,
          "velocity": 0.2125984251968504
        },
        {
          "duration": 0.0789472499999988,
          "durationTicks": 96,
          "midi": 36,
          "name": "C2",
          "ticks": 115776,
          "time": 95.21038349999999,
          "velocity": 0.2125984251968504
        },
        {
          "duration": 0.07894725000001301,
          "durationTicks": 96,
          "midi": 36,
          "name": "C2",
          "ticks": 115968,
          "time": 95.36827799999999,
          "velocity": 0.2125984251968504
        },
        {
          "duration": 0.0789472499999988,
          "durationTicks": 96,
          "midi": 48,
          "name": "C3",
          "ticks": 116160,
          "time": 95.5261725,
          "velocity": 0.2125984251968504
        },
        {
          "duration": 0.0789472499999988,
          "durationTicks": 96,
          "midi": 36,
          "name": "C2",
          "ticks": 116352,
          "time": 95.684067,
          "velocity": 0.2125984251968504
        },
        {
          "duration": 0.0789472499999988,
          "durationTicks": 96,
          "midi": 36,
          "name": "C2",
          "ticks": 116544,
          "time": 95.8419615,
          "velocity": 0.2125984251968504
        },
        {
          "duration": 0.0789472499999988,
          "durationTicks": 96,
          "midi": 37,
          "name": "C#2",
          "ticks": 116736,
          "time": 95.999856,
          "velocity": 0.2125984251968504
        },
        {
          "duration": 0.0789472499999988,
          "durationTicks": 96,
          "midi": 37,
          "name": "C#2",
          "ticks": 116928,
          "time": 96.15775049999999,
          "velocity": 0.2125984251968504
        },
        {
          "duration": 0.07894725000001301,
          "durationTicks": 96,
          "midi": 49,
          "name": "C#3",
          "ticks": 117120,
          "time": 96.31564499999999,
          "velocity": 0.2125984251968504
        },
        {
          "duration": 0.0789472499999988,
          "durationTicks": 96,
          "midi": 37,
          "name": "C#2",
          "ticks": 117312,
          "time": 96.4735395,
          "velocity": 0.2125984251968504
        },
        {
          "duration": 0.0789472499999988,
          "durationTicks": 96,
          "midi": 37,
          "name": "C#2",
          "ticks": 117504,
          "time": 96.631434,
          "velocity": 0.2125984251968504
        },
        {
          "duration": 0.0789472499999988,
          "durationTicks": 96,
          "midi": 49,
          "name": "C#3",
          "ticks": 117696,
          "time": 96.7893285,
          "velocity": 0.2125984251968504
        },
        {
          "duration": 0.0789472499999988,
          "durationTicks": 96,
          "midi": 37,
          "name": "C#2",
          "ticks": 117888,
          "time": 96.947223,
          "velocity": 0.2125984251968504
        },
        {
          "duration": 0.0789472499999988,
          "durationTicks": 96,
          "midi": 37,
          "name": "C#2",
          "ticks": 118080,
          "time": 97.10511749999999,
          "velocity": 0.2125984251968504
        },
        {
          "duration": 0.07894725000001301,
          "durationTicks": 96,
          "midi": 37,
          "name": "C#2",
          "ticks": 118272,
          "time": 97.26301199999999,
          "velocity": 0.2125984251968504
        },
        {
          "duration": 0.0789472499999988,
          "durationTicks": 96,
          "midi": 37,
          "name": "C#2",
          "ticks": 118464,
          "time": 97.4209065,
          "velocity": 0.2125984251968504
        },
        {
          "duration": 0.0789472499999988,
          "durationTicks": 96,
          "midi": 49,
          "name": "C#3",
          "ticks": 118656,
          "time": 97.578801,
          "velocity": 0.2125984251968504
        },
        {
          "duration": 0.0789472499999988,
          "durationTicks": 96,
          "midi": 37,
          "name": "C#2",
          "ticks": 118848,
          "time": 97.7366955,
          "velocity": 0.2125984251968504
        },
        {
          "duration": 0.0789472499999988,
          "durationTicks": 96,
          "midi": 37,
          "name": "C#2",
          "ticks": 119040,
          "time": 97.89459,
          "velocity": 0.2125984251968504
        },
        {
          "duration": 0.0789472499999988,
          "durationTicks": 96,
          "midi": 49,
          "name": "C#3",
          "ticks": 119232,
          "time": 98.05248449999999,
          "velocity": 0.2125984251968504
        },
        {
          "duration": 0.07894725000001301,
          "durationTicks": 96,
          "midi": 37,
          "name": "C#2",
          "ticks": 119424,
          "time": 98.21037899999999,
          "velocity": 0.2125984251968504
        },
        {
          "duration": 0.0789472499999988,
          "durationTicks": 96,
          "midi": 37,
          "name": "C#2",
          "ticks": 119616,
          "time": 98.3682735,
          "velocity": 0.2125984251968504
        },
        {
          "duration": 0.0789472499999988,
          "durationTicks": 96,
          "midi": 37,
          "name": "C#2",
          "ticks": 119808,
          "time": 98.526168,
          "velocity": 0.2125984251968504
        },
        {
          "duration": 0.0789472499999988,
          "durationTicks": 96,
          "midi": 37,
          "name": "C#2",
          "ticks": 120000,
          "time": 98.6840625,
          "velocity": 0.2125984251968504
        },
        {
          "duration": 0.0789472499999988,
          "durationTicks": 96,
          "midi": 49,
          "name": "C#3",
          "ticks": 120192,
          "time": 98.841957,
          "velocity": 0.2125984251968504
        },
        {
          "duration": 0.0789472499999988,
          "durationTicks": 96,
          "midi": 37,
          "name": "C#2",
          "ticks": 120384,
          "time": 98.99985149999999,
          "velocity": 0.2125984251968504
        },
        {
          "duration": 0.07894725000001301,
          "durationTicks": 96,
          "midi": 37,
          "name": "C#2",
          "ticks": 120576,
          "time": 99.15774599999999,
          "velocity": 0.2125984251968504
        },
        {
          "duration": 0.0789472499999988,
          "durationTicks": 96,
          "midi": 49,
          "name": "C#3",
          "ticks": 120768,
          "time": 99.3156405,
          "velocity": 0.2125984251968504
        },
        {
          "duration": 0.0789472499999988,
          "durationTicks": 96,
          "midi": 37,
          "name": "C#2",
          "ticks": 120960,
          "time": 99.473535,
          "velocity": 0.2125984251968504
        },
        {
          "duration": 0.0789472499999988,
          "durationTicks": 96,
          "midi": 37,
          "name": "C#2",
          "ticks": 121152,
          "time": 99.6314295,
          "velocity": 0.2125984251968504
        },
        {
          "duration": 0.0789472499999988,
          "durationTicks": 96,
          "midi": 36,
          "name": "C2",
          "ticks": 121344,
          "time": 99.789324,
          "velocity": 0.2125984251968504
        },
        {
          "duration": 0.0789472499999988,
          "durationTicks": 96,
          "midi": 36,
          "name": "C2",
          "ticks": 121536,
          "time": 99.94721849999999,
          "velocity": 0.2125984251968504
        },
        {
          "duration": 0.07894725000001301,
          "durationTicks": 96,
          "midi": 48,
          "name": "C3",
          "ticks": 121728,
          "time": 100.10511299999999,
          "velocity": 0.2125984251968504
        },
        {
          "duration": 0.0789472499999988,
          "durationTicks": 96,
          "midi": 36,
          "name": "C2",
          "ticks": 121920,
          "time": 100.2630075,
          "velocity": 0.2125984251968504
        },
        {
          "duration": 0.0789472499999988,
          "durationTicks": 96,
          "midi": 36,
          "name": "C2",
          "ticks": 122112,
          "time": 100.420902,
          "velocity": 0.2125984251968504
        },
        {
          "duration": 0.0789472499999988,
          "durationTicks": 96,
          "midi": 48,
          "name": "C3",
          "ticks": 122304,
          "time": 100.5787965,
          "velocity": 0.2125984251968504
        },
        {
          "duration": 0.0789472499999988,
          "durationTicks": 96,
          "midi": 36,
          "name": "C2",
          "ticks": 122496,
          "time": 100.736691,
          "velocity": 0.2125984251968504
        },
        {
          "duration": 0.0789472499999988,
          "durationTicks": 96,
          "midi": 36,
          "name": "C2",
          "ticks": 122688,
          "time": 100.89458549999999,
          "velocity": 0.2125984251968504
        },
        {
          "duration": 0.0789472499999988,
          "durationTicks": 96,
          "midi": 34,
          "name": "A#1",
          "ticks": 122880,
          "time": 101.05248,
          "velocity": 0.2125984251968504
        },
        {
          "duration": 0.0789472499999988,
          "durationTicks": 96,
          "midi": 34,
          "name": "A#1",
          "ticks": 123072,
          "time": 101.2103745,
          "velocity": 0.2125984251968504
        },
        {
          "duration": 0.0789472499999988,
          "durationTicks": 96,
          "midi": 46,
          "name": "A#2",
          "ticks": 123264,
          "time": 101.368269,
          "velocity": 0.2125984251968504
        },
        {
          "duration": 0.0789472499999988,
          "durationTicks": 96,
          "midi": 34,
          "name": "A#1",
          "ticks": 123456,
          "time": 101.5261635,
          "velocity": 0.2125984251968504
        },
        {
          "duration": 0.0789472499999988,
          "durationTicks": 96,
          "midi": 34,
          "name": "A#1",
          "ticks": 123648,
          "time": 101.684058,
          "velocity": 0.2125984251968504
        },
        {
          "duration": 0.0789472499999988,
          "durationTicks": 96,
          "midi": 46,
          "name": "A#2",
          "ticks": 123840,
          "time": 101.84195249999999,
          "velocity": 0.2125984251968504
        },
        {
          "duration": 0.0789472499999988,
          "durationTicks": 96,
          "midi": 34,
          "name": "A#1",
          "ticks": 124032,
          "time": 101.999847,
          "velocity": 0.2125984251968504
        },
        {
          "duration": 0.0789472499999988,
          "durationTicks": 96,
          "midi": 34,
          "name": "A#1",
          "ticks": 124224,
          "time": 102.1577415,
          "velocity": 0.2125984251968504
        },
        {
          "duration": 0.0789472499999988,
          "durationTicks": 96,
          "midi": 34,
          "name": "A#1",
          "ticks": 124416,
          "time": 102.315636,
          "velocity": 0.2125984251968504
        },
        {
          "duration": 0.0789472499999988,
          "durationTicks": 96,
          "midi": 34,
          "name": "A#1",
          "ticks": 124608,
          "time": 102.4735305,
          "velocity": 0.2125984251968504
        },
        {
          "duration": 0.0789472499999988,
          "durationTicks": 96,
          "midi": 46,
          "name": "A#2",
          "ticks": 124800,
          "time": 102.631425,
          "velocity": 0.2125984251968504
        },
        {
          "duration": 0.0789472499999988,
          "durationTicks": 96,
          "midi": 34,
          "name": "A#1",
          "ticks": 124992,
          "time": 102.78931949999999,
          "velocity": 0.2125984251968504
        },
        {
          "duration": 0.0789472499999988,
          "durationTicks": 96,
          "midi": 34,
          "name": "A#1",
          "ticks": 125184,
          "time": 102.947214,
          "velocity": 0.2125984251968504
        },
        {
          "duration": 0.0789472499999988,
          "durationTicks": 96,
          "midi": 46,
          "name": "A#2",
          "ticks": 125376,
          "time": 103.1051085,
          "velocity": 0.2125984251968504
        },
        {
          "duration": 0.0789472499999988,
          "durationTicks": 96,
          "midi": 34,
          "name": "A#1",
          "ticks": 125568,
          "time": 103.263003,
          "velocity": 0.2125984251968504
        },
        {
          "duration": 0.0789472499999988,
          "durationTicks": 96,
          "midi": 34,
          "name": "A#1",
          "ticks": 125760,
          "time": 103.4208975,
          "velocity": 0.2125984251968504
        },
        {
          "duration": 0.0789472499999988,
          "durationTicks": 96,
          "midi": 36,
          "name": "C2",
          "ticks": 125952,
          "time": 103.57879199999999,
          "velocity": 0.2125984251968504
        },
        {
          "duration": 0.0789472499999988,
          "durationTicks": 96,
          "midi": 36,
          "name": "C2",
          "ticks": 126144,
          "time": 103.73668649999999,
          "velocity": 0.2125984251968504
        },
        {
          "duration": 0.0789472499999988,
          "durationTicks": 96,
          "midi": 48,
          "name": "C3",
          "ticks": 126336,
          "time": 103.894581,
          "velocity": 0.2125984251968504
        },
        {
          "duration": 0.0789472499999988,
          "durationTicks": 96,
          "midi": 36,
          "name": "C2",
          "ticks": 126528,
          "time": 104.0524755,
          "velocity": 0.2125984251968504
        },
        {
          "duration": 0.0789472499999988,
          "durationTicks": 96,
          "midi": 36,
          "name": "C2",
          "ticks": 126720,
          "time": 104.21037,
          "velocity": 0.2125984251968504
        },
        {
          "duration": 0.0789472499999988,
          "durationTicks": 96,
          "midi": 48,
          "name": "C3",
          "ticks": 126912,
          "time": 104.3682645,
          "velocity": 0.2125984251968504
        },
        {
          "duration": 0.0789472499999988,
          "durationTicks": 96,
          "midi": 36,
          "name": "C2",
          "ticks": 127104,
          "time": 104.52615899999999,
          "velocity": 0.2125984251968504
        },
        {
          "duration": 0.0789472499999988,
          "durationTicks": 96,
          "midi": 36,
          "name": "C2",
          "ticks": 127296,
          "time": 104.68405349999999,
          "velocity": 0.2125984251968504
        },
        {
          "duration": 0.0789472499999988,
          "durationTicks": 96,
          "midi": 36,
          "name": "C2",
          "ticks": 127488,
          "time": 104.841948,
          "velocity": 0.2125984251968504
        },
        {
          "duration": 0.0789472499999988,
          "durationTicks": 96,
          "midi": 36,
          "name": "C2",
          "ticks": 127680,
          "time": 104.9998425,
          "velocity": 0.2125984251968504
        },
        {
          "duration": 0.0789472499999988,
          "durationTicks": 96,
          "midi": 48,
          "name": "C3",
          "ticks": 127872,
          "time": 105.157737,
          "velocity": 0.2125984251968504
        },
        {
          "duration": 0.0789472499999988,
          "durationTicks": 96,
          "midi": 36,
          "name": "C2",
          "ticks": 128064,
          "time": 105.3156315,
          "velocity": 0.2125984251968504
        },
        {
          "duration": 0.0789472499999988,
          "durationTicks": 96,
          "midi": 36,
          "name": "C2",
          "ticks": 128256,
          "time": 105.47352599999999,
          "velocity": 0.2125984251968504
        },
        {
          "duration": 0.0789472499999988,
          "durationTicks": 96,
          "midi": 48,
          "name": "C3",
          "ticks": 128448,
          "time": 105.63142049999999,
          "velocity": 0.2125984251968504
        },
        {
          "duration": 0.0789472499999988,
          "durationTicks": 96,
          "midi": 36,
          "name": "C2",
          "ticks": 128640,
          "time": 105.789315,
          "velocity": 0.2125984251968504
        },
        {
          "duration": 0.0789472499999988,
          "durationTicks": 96,
          "midi": 36,
          "name": "C2",
          "ticks": 128832,
          "time": 105.9472095,
          "velocity": 0.2125984251968504
        },
        {
          "duration": 0.0789472499999988,
          "durationTicks": 96,
          "midi": 37,
          "name": "C#2",
          "ticks": 129024,
          "time": 106.105104,
          "velocity": 0.2125984251968504
        },
        {
          "duration": 0.0789472499999988,
          "durationTicks": 96,
          "midi": 37,
          "name": "C#2",
          "ticks": 129216,
          "time": 106.2629985,
          "velocity": 0.2125984251968504
        },
        {
          "duration": 0.0789472499999988,
          "durationTicks": 96,
          "midi": 49,
          "name": "C#3",
          "ticks": 129408,
          "time": 106.42089299999999,
          "velocity": 0.2125984251968504
        },
        {
          "duration": 0.0789472499999988,
          "durationTicks": 96,
          "midi": 37,
          "name": "C#2",
          "ticks": 129600,
          "time": 106.57878749999999,
          "velocity": 0.2125984251968504
        },
        {
          "duration": 0.0789472499999988,
          "durationTicks": 96,
          "midi": 37,
          "name": "C#2",
          "ticks": 129792,
          "time": 106.736682,
          "velocity": 0.2125984251968504
        },
        {
          "duration": 0.0789472499999988,
          "durationTicks": 96,
          "midi": 49,
          "name": "C#3",
          "ticks": 129984,
          "time": 106.8945765,
          "velocity": 0.2125984251968504
        },
        {
          "duration": 0.0789472499999988,
          "durationTicks": 96,
          "midi": 37,
          "name": "C#2",
          "ticks": 130176,
          "time": 107.052471,
          "velocity": 0.2125984251968504
        },
        {
          "duration": 0.0789472499999988,
          "durationTicks": 96,
          "midi": 37,
          "name": "C#2",
          "ticks": 130368,
          "time": 107.2103655,
          "velocity": 0.2125984251968504
        },
        {
          "duration": 0.0789472499999988,
          "durationTicks": 96,
          "midi": 37,
          "name": "C#2",
          "ticks": 130560,
          "time": 107.36825999999999,
          "velocity": 0.2125984251968504
        },
        {
          "duration": 0.0789472499999988,
          "durationTicks": 96,
          "midi": 37,
          "name": "C#2",
          "ticks": 130752,
          "time": 107.52615449999999,
          "velocity": 0.2125984251968504
        },
        {
          "duration": 0.0789472499999988,
          "durationTicks": 96,
          "midi": 49,
          "name": "C#3",
          "ticks": 130944,
          "time": 107.684049,
          "velocity": 0.2125984251968504
        },
        {
          "duration": 0.0789472499999988,
          "durationTicks": 96,
          "midi": 37,
          "name": "C#2",
          "ticks": 131136,
          "time": 107.8419435,
          "velocity": 0.2125984251968504
        },
        {
          "duration": 0.0789472499999988,
          "durationTicks": 96,
          "midi": 37,
          "name": "C#2",
          "ticks": 131328,
          "time": 107.999838,
          "velocity": 0.2125984251968504
        },
        {
          "duration": 0.0789472499999988,
          "durationTicks": 96,
          "midi": 49,
          "name": "C#3",
          "ticks": 131520,
          "time": 108.1577325,
          "velocity": 0.2125984251968504
        },
        {
          "duration": 0.0789472499999988,
          "durationTicks": 96,
          "midi": 37,
          "name": "C#2",
          "ticks": 131712,
          "time": 108.31562699999999,
          "velocity": 0.2125984251968504
        },
        {
          "duration": 0.0789472499999988,
          "durationTicks": 96,
          "midi": 37,
          "name": "C#2",
          "ticks": 131904,
          "time": 108.47352149999999,
          "velocity": 0.2125984251968504
        },
        {
          "duration": 0.0789472499999988,
          "durationTicks": 96,
          "midi": 37,
          "name": "C#2",
          "ticks": 132096,
          "time": 108.631416,
          "velocity": 0.2125984251968504
        },
        {
          "duration": 0.0789472499999988,
          "durationTicks": 96,
          "midi": 37,
          "name": "C#2",
          "ticks": 132288,
          "time": 108.7893105,
          "velocity": 0.2125984251968504
        },
        {
          "duration": 0.0789472499999988,
          "durationTicks": 96,
          "midi": 49,
          "name": "C#3",
          "ticks": 132480,
          "time": 108.947205,
          "velocity": 0.2125984251968504
        },
        {
          "duration": 0.0789472499999988,
          "durationTicks": 96,
          "midi": 37,
          "name": "C#2",
          "ticks": 132672,
          "time": 109.1050995,
          "velocity": 0.2125984251968504
        },
        {
          "duration": 0.0789472499999988,
          "durationTicks": 96,
          "midi": 37,
          "name": "C#2",
          "ticks": 132864,
          "time": 109.26299399999999,
          "velocity": 0.2125984251968504
        },
        {
          "duration": 0.0789472499999988,
          "durationTicks": 96,
          "midi": 49,
          "name": "C#3",
          "ticks": 133056,
          "time": 109.42088849999999,
          "velocity": 0.2125984251968504
        },
        {
          "duration": 0.0789472499999988,
          "durationTicks": 96,
          "midi": 37,
          "name": "C#2",
          "ticks": 133248,
          "time": 109.578783,
          "velocity": 0.2125984251968504
        },
        {
          "duration": 0.0789472499999988,
          "durationTicks": 96,
          "midi": 37,
          "name": "C#2",
          "ticks": 133440,
          "time": 109.7366775,
          "velocity": 0.2125984251968504
        },
        {
          "duration": 0.0789472499999988,
          "durationTicks": 96,
          "midi": 36,
          "name": "C2",
          "ticks": 133632,
          "time": 109.894572,
          "velocity": 0.2125984251968504
        },
        {
          "duration": 0.0789472499999988,
          "durationTicks": 96,
          "midi": 36,
          "name": "C2",
          "ticks": 133824,
          "time": 110.0524665,
          "velocity": 0.2125984251968504
        },
        {
          "duration": 0.0789472499999988,
          "durationTicks": 96,
          "midi": 48,
          "name": "C3",
          "ticks": 134016,
          "time": 110.21036099999999,
          "velocity": 0.2125984251968504
        },
        {
          "duration": 0.0789472499999988,
          "durationTicks": 96,
          "midi": 36,
          "name": "C2",
          "ticks": 134208,
          "time": 110.36825549999999,
          "velocity": 0.2125984251968504
        },
        {
          "duration": 0.0789472499999988,
          "durationTicks": 96,
          "midi": 36,
          "name": "C2",
          "ticks": 134400,
          "time": 110.52615,
          "velocity": 0.2125984251968504
        },
        {
          "duration": 0.0789472499999988,
          "durationTicks": 96,
          "midi": 48,
          "name": "C3",
          "ticks": 134592,
          "time": 110.6840445,
          "velocity": 0.2125984251968504
        },
        {
          "duration": 0.0789472499999988,
          "durationTicks": 96,
          "midi": 36,
          "name": "C2",
          "ticks": 134784,
          "time": 110.841939,
          "velocity": 0.2125984251968504
        },
        {
          "duration": 0.0789472499999988,
          "durationTicks": 96,
          "midi": 36,
          "name": "C2",
          "ticks": 134976,
          "time": 110.9998335,
          "velocity": 0.2125984251968504
        }
      ],
      "endOfTrackTicks": 135072
    },
    {
      "channel": 11,
      "controlChanges": {},
      "pitchBends": [],
      "instrument": {
        "family": "ensemble",
        "number": 50,
        "name": "synthstrings 1"
      },
      "name": "Pop Synth",
      "notes": [
        {
          "duration": 0.0789472499999988,
          "durationTicks": 96,
          "midi": 34,
          "name": "A#1",
          "ticks": 24576,
          "time": 20.210496,
          "velocity": 0.05511811023622047
        },
        {
          "duration": 0.0789472499999988,
          "durationTicks": 96,
          "midi": 34,
          "name": "A#1",
          "ticks": 24768,
          "time": 20.3683905,
          "velocity": 0.05511811023622047
        },
        {
          "duration": 0.07894725000000236,
          "durationTicks": 96,
          "midi": 46,
          "name": "A#2",
          "ticks": 24960,
          "time": 20.526284999999998,
          "velocity": 0.05511811023622047
        },
        {
          "duration": 0.0789472499999988,
          "durationTicks": 96,
          "midi": 34,
          "name": "A#1",
          "ticks": 25152,
          "time": 20.6841795,
          "velocity": 0.05511811023622047
        },
        {
          "duration": 0.0789472499999988,
          "durationTicks": 96,
          "midi": 34,
          "name": "A#1",
          "ticks": 25344,
          "time": 20.842074,
          "velocity": 0.05511811023622047
        },
        {
          "duration": 0.07894725000000236,
          "durationTicks": 96,
          "midi": 46,
          "name": "A#2",
          "ticks": 25536,
          "time": 20.999968499999998,
          "velocity": 0.05511811023622047
        },
        {
          "duration": 0.0789472499999988,
          "durationTicks": 96,
          "midi": 34,
          "name": "A#1",
          "ticks": 25728,
          "time": 21.157863,
          "velocity": 0.05511811023622047
        },
        {
          "duration": 0.0789472499999988,
          "durationTicks": 96,
          "midi": 34,
          "name": "A#1",
          "ticks": 25920,
          "time": 21.3157575,
          "velocity": 0.05511811023622047
        },
        {
          "duration": 0.07894725000000236,
          "durationTicks": 96,
          "midi": 34,
          "name": "A#1",
          "ticks": 26112,
          "time": 21.473651999999998,
          "velocity": 0.05511811023622047
        },
        {
          "duration": 0.0789472499999988,
          "durationTicks": 96,
          "midi": 34,
          "name": "A#1",
          "ticks": 26304,
          "time": 21.6315465,
          "velocity": 0.05511811023622047
        },
        {
          "duration": 0.0789472499999988,
          "durationTicks": 96,
          "midi": 46,
          "name": "A#2",
          "ticks": 26496,
          "time": 21.789441,
          "velocity": 0.05511811023622047
        },
        {
          "duration": 0.07894725000000236,
          "durationTicks": 96,
          "midi": 34,
          "name": "A#1",
          "ticks": 26688,
          "time": 21.947335499999998,
          "velocity": 0.05511811023622047
        },
        {
          "duration": 0.0789472499999988,
          "durationTicks": 96,
          "midi": 34,
          "name": "A#1",
          "ticks": 26880,
          "time": 22.10523,
          "velocity": 0.05511811023622047
        },
        {
          "duration": 0.0789472499999988,
          "durationTicks": 96,
          "midi": 46,
          "name": "A#2",
          "ticks": 27072,
          "time": 22.2631245,
          "velocity": 0.05511811023622047
        },
        {
          "duration": 0.07894725000000236,
          "durationTicks": 96,
          "midi": 34,
          "name": "A#1",
          "ticks": 27264,
          "time": 22.421018999999998,
          "velocity": 0.05511811023622047
        },
        {
          "duration": 0.0789472499999988,
          "durationTicks": 96,
          "midi": 34,
          "name": "A#1",
          "ticks": 27456,
          "time": 22.5789135,
          "velocity": 0.05511811023622047
        },
        {
          "duration": 0.0789472499999988,
          "durationTicks": 96,
          "midi": 36,
          "name": "C2",
          "ticks": 27648,
          "time": 22.736808,
          "velocity": 0.05511811023622047
        },
        {
          "duration": 0.07894725000000236,
          "durationTicks": 96,
          "midi": 36,
          "name": "C2",
          "ticks": 27840,
          "time": 22.894702499999998,
          "velocity": 0.05511811023622047
        },
        {
          "duration": 0.0789472499999988,
          "durationTicks": 96,
          "midi": 48,
          "name": "C3",
          "ticks": 28032,
          "time": 23.052597,
          "velocity": 0.05511811023622047
        },
        {
          "duration": 0.0789472499999988,
          "durationTicks": 96,
          "midi": 36,
          "name": "C2",
          "ticks": 28224,
          "time": 23.2104915,
          "velocity": 0.05511811023622047
        },
        {
          "duration": 0.07894725000000236,
          "durationTicks": 96,
          "midi": 36,
          "name": "C2",
          "ticks": 28416,
          "time": 23.368385999999997,
          "velocity": 0.05511811023622047
        },
        {
          "duration": 0.0789472499999988,
          "durationTicks": 96,
          "midi": 48,
          "name": "C3",
          "ticks": 28608,
          "time": 23.5262805,
          "velocity": 0.05511811023622047
        },
        {
          "duration": 0.0789472499999988,
          "durationTicks": 96,
          "midi": 36,
          "name": "C2",
          "ticks": 28800,
          "time": 23.684175,
          "velocity": 0.05511811023622047
        },
        {
          "duration": 0.07894725000000236,
          "durationTicks": 96,
          "midi": 36,
          "name": "C2",
          "ticks": 28992,
          "time": 23.842069499999997,
          "velocity": 0.05511811023622047
        },
        {
          "duration": 0.0789472499999988,
          "durationTicks": 96,
          "midi": 36,
          "name": "C2",
          "ticks": 29184,
          "time": 23.999964,
          "velocity": 0.05511811023622047
        },
        {
          "duration": 0.0789472499999988,
          "durationTicks": 96,
          "midi": 36,
          "name": "C2",
          "ticks": 29376,
          "time": 24.1578585,
          "velocity": 0.05511811023622047
        },
        {
          "duration": 0.07894725000000236,
          "durationTicks": 96,
          "midi": 48,
          "name": "C3",
          "ticks": 29568,
          "time": 24.315752999999997,
          "velocity": 0.05511811023622047
        },
        {
          "duration": 0.0789472499999988,
          "durationTicks": 96,
          "midi": 36,
          "name": "C2",
          "ticks": 29760,
          "time": 24.4736475,
          "velocity": 0.05511811023622047
        },
        {
          "duration": 0.0789472499999988,
          "durationTicks": 96,
          "midi": 36,
          "name": "C2",
          "ticks": 29952,
          "time": 24.631542,
          "velocity": 0.05511811023622047
        },
        {
          "duration": 0.07894725000000236,
          "durationTicks": 96,
          "midi": 48,
          "name": "C3",
          "ticks": 30144,
          "time": 24.789436499999997,
          "velocity": 0.05511811023622047
        },
        {
          "duration": 0.0789472499999988,
          "durationTicks": 96,
          "midi": 36,
          "name": "C2",
          "ticks": 30336,
          "time": 24.947331,
          "velocity": 0.05511811023622047
        },
        {
          "duration": 0.0789472499999988,
          "durationTicks": 96,
          "midi": 36,
          "name": "C2",
          "ticks": 30528,
          "time": 25.1052255,
          "velocity": 0.05511811023622047
        },
        {
          "duration": 0.0789472499999988,
          "durationTicks": 96,
          "midi": 37,
          "name": "C#2",
          "ticks": 30720,
          "time": 25.26312,
          "velocity": 0.05511811023622047
        },
        {
          "duration": 0.07894725000000236,
          "durationTicks": 96,
          "midi": 37,
          "name": "C#2",
          "ticks": 30912,
          "time": 25.4210145,
          "velocity": 0.05511811023622047
        },
        {
          "duration": 0.0789472499999988,
          "durationTicks": 96,
          "midi": 49,
          "name": "C#3",
          "ticks": 31104,
          "time": 25.578909,
          "velocity": 0.05511811023622047
        },
        {
          "duration": 0.0789472499999988,
          "durationTicks": 96,
          "midi": 37,
          "name": "C#2",
          "ticks": 31296,
          "time": 25.7368035,
          "velocity": 0.05511811023622047
        },
        {
          "duration": 0.07894725000000236,
          "durationTicks": 96,
          "midi": 37,
          "name": "C#2",
          "ticks": 31488,
          "time": 25.894697999999998,
          "velocity": 0.05511811023622047
        },
        {
          "duration": 0.0789472499999988,
          "durationTicks": 96,
          "midi": 49,
          "name": "C#3",
          "ticks": 31680,
          "time": 26.0525925,
          "velocity": 0.05511811023622047
        },
        {
          "duration": 0.0789472499999988,
          "durationTicks": 96,
          "midi": 37,
          "name": "C#2",
          "ticks": 31872,
          "time": 26.210487,
          "velocity": 0.05511811023622047
        },
        {
          "duration": 0.07894725000000236,
          "durationTicks": 96,
          "midi": 37,
          "name": "C#2",
          "ticks": 32064,
          "time": 26.368381499999998,
          "velocity": 0.05511811023622047
        },
        {
          "duration": 0.0789472499999988,
          "durationTicks": 96,
          "midi": 37,
          "name": "C#2",
          "ticks": 32256,
          "time": 26.526276,
          "velocity": 0.05511811023622047
        },
        {
          "duration": 0.0789472499999988,
          "durationTicks": 96,
          "midi": 37,
          "name": "C#2",
          "ticks": 32448,
          "time": 26.6841705,
          "velocity": 0.05511811023622047
        },
        {
          "duration": 0.07894725000000236,
          "durationTicks": 96,
          "midi": 49,
          "name": "C#3",
          "ticks": 32640,
          "time": 26.842064999999998,
          "velocity": 0.05511811023622047
        },
        {
          "duration": 0.0789472499999988,
          "durationTicks": 96,
          "midi": 37,
          "name": "C#2",
          "ticks": 32832,
          "time": 26.9999595,
          "velocity": 0.05511811023622047
        },
        {
          "duration": 0.0789472499999988,
          "durationTicks": 96,
          "midi": 37,
          "name": "C#2",
          "ticks": 33024,
          "time": 27.157854,
          "velocity": 0.05511811023622047
        },
        {
          "duration": 0.07894725000000236,
          "durationTicks": 96,
          "midi": 49,
          "name": "C#3",
          "ticks": 33216,
          "time": 27.315748499999998,
          "velocity": 0.05511811023622047
        },
        {
          "duration": 0.0789472499999988,
          "durationTicks": 96,
          "midi": 37,
          "name": "C#2",
          "ticks": 33408,
          "time": 27.473643,
          "velocity": 0.05511811023622047
        },
        {
          "duration": 0.0789472499999988,
          "durationTicks": 96,
          "midi": 37,
          "name": "C#2",
          "ticks": 33600,
          "time": 27.6315375,
          "velocity": 0.05511811023622047
        },
        {
          "duration": 0.07894725000000236,
          "durationTicks": 96,
          "midi": 38,
          "name": "D2",
          "ticks": 33792,
          "time": 27.789431999999998,
          "velocity": 0.05511811023622047
        },
        {
          "duration": 0.0789472499999988,
          "durationTicks": 96,
          "midi": 38,
          "name": "D2",
          "ticks": 33984,
          "time": 27.9473265,
          "velocity": 0.05511811023622047
        },
        {
          "duration": 0.0789472499999988,
          "durationTicks": 96,
          "midi": 50,
          "name": "D3",
          "ticks": 34176,
          "time": 28.105221,
          "velocity": 0.05511811023622047
        },
        {
          "duration": 0.07894725000000236,
          "durationTicks": 96,
          "midi": 38,
          "name": "D2",
          "ticks": 34368,
          "time": 28.263115499999998,
          "velocity": 0.05511811023622047
        },
        {
          "duration": 0.0789472499999988,
          "durationTicks": 96,
          "midi": 38,
          "name": "D2",
          "ticks": 34560,
          "time": 28.42101,
          "velocity": 0.05511811023622047
        },
        {
          "duration": 0.0789472499999988,
          "durationTicks": 96,
          "midi": 50,
          "name": "D3",
          "ticks": 34752,
          "time": 28.5789045,
          "velocity": 0.05511811023622047
        },
        {
          "duration": 0.07894725000000236,
          "durationTicks": 96,
          "midi": 38,
          "name": "D2",
          "ticks": 34944,
          "time": 28.736798999999998,
          "velocity": 0.05511811023622047
        },
        {
          "duration": 0.0789472499999988,
          "durationTicks": 96,
          "midi": 38,
          "name": "D2",
          "ticks": 35136,
          "time": 28.8946935,
          "velocity": 0.05511811023622047
        },
        {
          "duration": 0.0789472499999988,
          "durationTicks": 96,
          "midi": 38,
          "name": "D2",
          "ticks": 35328,
          "time": 29.052588,
          "velocity": 0.05511811023622047
        },
        {
          "duration": 0.07894725000000236,
          "durationTicks": 96,
          "midi": 38,
          "name": "D2",
          "ticks": 35520,
          "time": 29.210482499999998,
          "velocity": 0.05511811023622047
        },
        {
          "duration": 0.0789472499999988,
          "durationTicks": 96,
          "midi": 50,
          "name": "D3",
          "ticks": 35712,
          "time": 29.368377,
          "velocity": 0.05511811023622047
        },
        {
          "duration": 0.0789472499999988,
          "durationTicks": 96,
          "midi": 38,
          "name": "D2",
          "ticks": 35904,
          "time": 29.5262715,
          "velocity": 0.05511811023622047
        },
        {
          "duration": 0.07894725000000236,
          "durationTicks": 96,
          "midi": 38,
          "name": "D2",
          "ticks": 36096,
          "time": 29.684165999999998,
          "velocity": 0.05511811023622047
        },
        {
          "duration": 0.0789472499999988,
          "durationTicks": 96,
          "midi": 50,
          "name": "D3",
          "ticks": 36288,
          "time": 29.8420605,
          "velocity": 0.05511811023622047
        },
        {
          "duration": 0.0789472499999988,
          "durationTicks": 96,
          "midi": 38,
          "name": "D2",
          "ticks": 36480,
          "time": 29.999955,
          "velocity": 0.05511811023622047
        },
        {
          "duration": 0.07894725000000236,
          "durationTicks": 96,
          "midi": 38,
          "name": "D2",
          "ticks": 36672,
          "time": 30.157849499999998,
          "velocity": 0.05511811023622047
        },
        {
          "duration": 0.0789472499999988,
          "durationTicks": 96,
          "midi": 34,
          "name": "A#1",
          "ticks": 36864,
          "time": 30.315744,
          "velocity": 0.05511811023622047
        },
        {
          "duration": 0.0789472499999988,
          "durationTicks": 96,
          "midi": 34,
          "name": "A#1",
          "ticks": 37056,
          "time": 30.4736385,
          "velocity": 0.05511811023622047
        },
        {
          "duration": 0.07894725000000236,
          "durationTicks": 96,
          "midi": 46,
          "name": "A#2",
          "ticks": 37248,
          "time": 30.631532999999997,
          "velocity": 0.05511811023622047
        },
        {
          "duration": 0.0789472499999988,
          "durationTicks": 96,
          "midi": 34,
          "name": "A#1",
          "ticks": 37440,
          "time": 30.7894275,
          "velocity": 0.05511811023622047
        },
        {
          "duration": 0.0789472499999988,
          "durationTicks": 96,
          "midi": 34,
          "name": "A#1",
          "ticks": 37632,
          "time": 30.947322,
          "velocity": 0.05511811023622047
        },
        {
          "duration": 0.07894725000000236,
          "durationTicks": 96,
          "midi": 46,
          "name": "A#2",
          "ticks": 37824,
          "time": 31.105216499999997,
          "velocity": 0.05511811023622047
        },
        {
          "duration": 0.0789472499999988,
          "durationTicks": 96,
          "midi": 34,
          "name": "A#1",
          "ticks": 38016,
          "time": 31.263111,
          "velocity": 0.05511811023622047
        },
        {
          "duration": 0.0789472499999988,
          "durationTicks": 96,
          "midi": 34,
          "name": "A#1",
          "ticks": 38208,
          "time": 31.4210055,
          "velocity": 0.05511811023622047
        },
        {
          "duration": 0.07894725000000236,
          "durationTicks": 96,
          "midi": 34,
          "name": "A#1",
          "ticks": 38400,
          "time": 31.578899999999997,
          "velocity": 0.05511811023622047
        },
        {
          "duration": 0.0789472499999988,
          "durationTicks": 96,
          "midi": 34,
          "name": "A#1",
          "ticks": 38592,
          "time": 31.7367945,
          "velocity": 0.05511811023622047
        },
        {
          "duration": 0.0789472499999988,
          "durationTicks": 96,
          "midi": 46,
          "name": "A#2",
          "ticks": 38784,
          "time": 31.894689,
          "velocity": 0.05511811023622047
        },
        {
          "duration": 0.0789472499999988,
          "durationTicks": 96,
          "midi": 34,
          "name": "A#1",
          "ticks": 38976,
          "time": 32.0525835,
          "velocity": 0.05511811023622047
        },
        {
          "duration": 0.0789472499999988,
          "durationTicks": 96,
          "midi": 34,
          "name": "A#1",
          "ticks": 39168,
          "time": 32.210478,
          "velocity": 0.05511811023622047
        },
        {
          "duration": 0.0789472499999988,
          "durationTicks": 96,
          "midi": 46,
          "name": "A#2",
          "ticks": 39360,
          "time": 32.3683725,
          "velocity": 0.05511811023622047
        },
        {
          "duration": 0.0789472499999988,
          "durationTicks": 96,
          "midi": 34,
          "name": "A#1",
          "ticks": 39552,
          "time": 32.526267,
          "velocity": 0.05511811023622047
        },
        {
          "duration": 0.0789472499999988,
          "durationTicks": 96,
          "midi": 34,
          "name": "A#1",
          "ticks": 39744,
          "time": 32.6841615,
          "velocity": 0.05511811023622047
        },
        {
          "duration": 0.0789472499999988,
          "durationTicks": 96,
          "midi": 36,
          "name": "C2",
          "ticks": 39936,
          "time": 32.842056,
          "velocity": 0.05511811023622047
        },
        {
          "duration": 0.0789472499999988,
          "durationTicks": 96,
          "midi": 36,
          "name": "C2",
          "ticks": 40128,
          "time": 32.9999505,
          "velocity": 0.05511811023622047
        },
        {
          "duration": 0.0789472499999988,
          "durationTicks": 96,
          "midi": 48,
          "name": "C3",
          "ticks": 40320,
          "time": 33.157845,
          "velocity": 0.05511811023622047
        },
        {
          "duration": 0.0789472499999988,
          "durationTicks": 96,
          "midi": 36,
          "name": "C2",
          "ticks": 40512,
          "time": 33.3157395,
          "velocity": 0.05511811023622047
        },
        {
          "duration": 0.0789472499999988,
          "durationTicks": 96,
          "midi": 36,
          "name": "C2",
          "ticks": 40704,
          "time": 33.473634,
          "velocity": 0.05511811023622047
        },
        {
          "duration": 0.0789472499999988,
          "durationTicks": 96,
          "midi": 48,
          "name": "C3",
          "ticks": 40896,
          "time": 33.6315285,
          "velocity": 0.05511811023622047
        },
        {
          "duration": 0.0789472499999988,
          "durationTicks": 96,
          "midi": 36,
          "name": "C2",
          "ticks": 41088,
          "time": 33.789423,
          "velocity": 0.05511811023622047
        },
        {
          "duration": 0.0789472499999988,
          "durationTicks": 96,
          "midi": 36,
          "name": "C2",
          "ticks": 41280,
          "time": 33.9473175,
          "velocity": 0.05511811023622047
        },
        {
          "duration": 0.0789472499999988,
          "durationTicks": 96,
          "midi": 36,
          "name": "C2",
          "ticks": 41472,
          "time": 34.105212,
          "velocity": 0.05511811023622047
        },
        {
          "duration": 0.0789472499999988,
          "durationTicks": 96,
          "midi": 36,
          "name": "C2",
          "ticks": 41664,
          "time": 34.2631065,
          "velocity": 0.05511811023622047
        },
        {
          "duration": 0.0789472499999988,
          "durationTicks": 96,
          "midi": 48,
          "name": "C3",
          "ticks": 41856,
          "time": 34.421001,
          "velocity": 0.05511811023622047
        },
        {
          "duration": 0.0789472499999988,
          "durationTicks": 96,
          "midi": 36,
          "name": "C2",
          "ticks": 42048,
          "time": 34.5788955,
          "velocity": 0.05511811023622047
        },
        {
          "duration": 0.0789472499999988,
          "durationTicks": 96,
          "midi": 36,
          "name": "C2",
          "ticks": 42240,
          "time": 34.73679,
          "velocity": 0.05511811023622047
        },
        {
          "duration": 0.0789472499999988,
          "durationTicks": 96,
          "midi": 48,
          "name": "C3",
          "ticks": 42432,
          "time": 34.8946845,
          "velocity": 0.05511811023622047
        },
        {
          "duration": 0.0789472499999988,
          "durationTicks": 96,
          "midi": 36,
          "name": "C2",
          "ticks": 42624,
          "time": 35.052579,
          "velocity": 0.05511811023622047
        },
        {
          "duration": 0.0789472499999988,
          "durationTicks": 96,
          "midi": 36,
          "name": "C2",
          "ticks": 42816,
          "time": 35.2104735,
          "velocity": 0.05511811023622047
        },
        {
          "duration": 0.0789472499999988,
          "durationTicks": 96,
          "midi": 37,
          "name": "C#2",
          "ticks": 43008,
          "time": 35.368368,
          "velocity": 0.05511811023622047
        },
        {
          "duration": 0.0789472499999988,
          "durationTicks": 96,
          "midi": 37,
          "name": "C#2",
          "ticks": 43200,
          "time": 35.5262625,
          "velocity": 0.05511811023622047
        },
        {
          "duration": 0.0789472499999988,
          "durationTicks": 96,
          "midi": 49,
          "name": "C#3",
          "ticks": 43392,
          "time": 35.684157,
          "velocity": 0.05511811023622047
        },
        {
          "duration": 0.0789472499999988,
          "durationTicks": 96,
          "midi": 37,
          "name": "C#2",
          "ticks": 43584,
          "time": 35.8420515,
          "velocity": 0.05511811023622047
        },
        {
          "duration": 0.0789472499999988,
          "durationTicks": 96,
          "midi": 37,
          "name": "C#2",
          "ticks": 43776,
          "time": 35.999946,
          "velocity": 0.05511811023622047
        },
        {
          "duration": 0.0789472499999988,
          "durationTicks": 96,
          "midi": 49,
          "name": "C#3",
          "ticks": 43968,
          "time": 36.1578405,
          "velocity": 0.05511811023622047
        },
        {
          "duration": 0.0789472499999988,
          "durationTicks": 96,
          "midi": 37,
          "name": "C#2",
          "ticks": 44160,
          "time": 36.315735,
          "velocity": 0.05511811023622047
        },
        {
          "duration": 0.0789472499999988,
          "durationTicks": 96,
          "midi": 37,
          "name": "C#2",
          "ticks": 44352,
          "time": 36.4736295,
          "velocity": 0.05511811023622047
        },
        {
          "duration": 0.0789472499999988,
          "durationTicks": 96,
          "midi": 37,
          "name": "C#2",
          "ticks": 44544,
          "time": 36.631524,
          "velocity": 0.05511811023622047
        },
        {
          "duration": 0.0789472499999988,
          "durationTicks": 96,
          "midi": 37,
          "name": "C#2",
          "ticks": 44736,
          "time": 36.7894185,
          "velocity": 0.05511811023622047
        },
        {
          "duration": 0.0789472499999988,
          "durationTicks": 96,
          "midi": 49,
          "name": "C#3",
          "ticks": 44928,
          "time": 36.947313,
          "velocity": 0.05511811023622047
        },
        {
          "duration": 0.0789472499999988,
          "durationTicks": 96,
          "midi": 37,
          "name": "C#2",
          "ticks": 45120,
          "time": 37.1052075,
          "velocity": 0.05511811023622047
        },
        {
          "duration": 0.0789472499999988,
          "durationTicks": 96,
          "midi": 37,
          "name": "C#2",
          "ticks": 45312,
          "time": 37.263101999999996,
          "velocity": 0.05511811023622047
        },
        {
          "duration": 0.0789472499999988,
          "durationTicks": 96,
          "midi": 49,
          "name": "C#3",
          "ticks": 45504,
          "time": 37.4209965,
          "velocity": 0.05511811023622047
        },
        {
          "duration": 0.0789472499999988,
          "durationTicks": 96,
          "midi": 37,
          "name": "C#2",
          "ticks": 45696,
          "time": 37.578891,
          "velocity": 0.05511811023622047
        },
        {
          "duration": 0.0789472499999988,
          "durationTicks": 96,
          "midi": 37,
          "name": "C#2",
          "ticks": 45888,
          "time": 37.736785499999996,
          "velocity": 0.05511811023622047
        },
        {
          "duration": 0.0789472499999988,
          "durationTicks": 96,
          "midi": 38,
          "name": "D2",
          "ticks": 46080,
          "time": 37.89468,
          "velocity": 0.05511811023622047
        },
        {
          "duration": 0.0789472499999988,
          "durationTicks": 96,
          "midi": 38,
          "name": "D2",
          "ticks": 46272,
          "time": 38.0525745,
          "velocity": 0.05511811023622047
        },
        {
          "duration": 0.0789472499999988,
          "durationTicks": 96,
          "midi": 50,
          "name": "D3",
          "ticks": 46464,
          "time": 38.210468999999996,
          "velocity": 0.05511811023622047
        },
        {
          "duration": 0.0789472499999988,
          "durationTicks": 96,
          "midi": 38,
          "name": "D2",
          "ticks": 46656,
          "time": 38.3683635,
          "velocity": 0.05511811023622047
        },
        {
          "duration": 0.0789472499999988,
          "durationTicks": 96,
          "midi": 38,
          "name": "D2",
          "ticks": 46848,
          "time": 38.526258,
          "velocity": 0.05511811023622047
        },
        {
          "duration": 0.0789472499999988,
          "durationTicks": 96,
          "midi": 50,
          "name": "D3",
          "ticks": 47040,
          "time": 38.684152499999996,
          "velocity": 0.05511811023622047
        },
        {
          "duration": 0.0789472499999988,
          "durationTicks": 96,
          "midi": 38,
          "name": "D2",
          "ticks": 47232,
          "time": 38.842047,
          "velocity": 0.05511811023622047
        },
        {
          "duration": 0.0789472499999988,
          "durationTicks": 96,
          "midi": 38,
          "name": "D2",
          "ticks": 47424,
          "time": 38.9999415,
          "velocity": 0.05511811023622047
        },
        {
          "duration": 0.0789472499999988,
          "durationTicks": 96,
          "midi": 38,
          "name": "D2",
          "ticks": 47616,
          "time": 39.157835999999996,
          "velocity": 0.05511811023622047
        },
        {
          "duration": 0.0789472499999988,
          "durationTicks": 96,
          "midi": 38,
          "name": "D2",
          "ticks": 47808,
          "time": 39.3157305,
          "velocity": 0.05511811023622047
        },
        {
          "duration": 0.0789472499999988,
          "durationTicks": 96,
          "midi": 50,
          "name": "D3",
          "ticks": 48000,
          "time": 39.473625,
          "velocity": 0.05511811023622047
        },
        {
          "duration": 0.0789472499999988,
          "durationTicks": 96,
          "midi": 38,
          "name": "D2",
          "ticks": 48192,
          "time": 39.631519499999996,
          "velocity": 0.05511811023622047
        },
        {
          "duration": 0.0789472499999988,
          "durationTicks": 96,
          "midi": 38,
          "name": "D2",
          "ticks": 48384,
          "time": 39.789414,
          "velocity": 0.05511811023622047
        },
        {
          "duration": 0.0789472499999988,
          "durationTicks": 96,
          "midi": 50,
          "name": "D3",
          "ticks": 48576,
          "time": 39.9473085,
          "velocity": 0.05511811023622047
        },
        {
          "duration": 0.0789472499999988,
          "durationTicks": 96,
          "midi": 38,
          "name": "D2",
          "ticks": 48768,
          "time": 40.105202999999996,
          "velocity": 0.05511811023622047
        },
        {
          "duration": 0.0789472499999988,
          "durationTicks": 96,
          "midi": 38,
          "name": "D2",
          "ticks": 48960,
          "time": 40.2630975,
          "velocity": 0.05511811023622047
        },
        {
          "duration": 0.0789472499999988,
          "durationTicks": 96,
          "midi": 34,
          "name": "A#1",
          "ticks": 49152,
          "time": 40.420992,
          "velocity": 0.05511811023622047
        },
        {
          "duration": 0.07894725000000591,
          "durationTicks": 96,
          "midi": 34,
          "name": "A#1",
          "ticks": 49344,
          "time": 40.578886499999996,
          "velocity": 0.05511811023622047
        },
        {
          "duration": 0.0789472499999988,
          "durationTicks": 96,
          "midi": 46,
          "name": "A#2",
          "ticks": 49536,
          "time": 40.736781,
          "velocity": 0.05511811023622047
        },
        {
          "duration": 0.0789472499999988,
          "durationTicks": 96,
          "midi": 34,
          "name": "A#1",
          "ticks": 49728,
          "time": 40.8946755,
          "velocity": 0.05511811023622047
        },
        {
          "duration": 0.07894725000000591,
          "durationTicks": 96,
          "midi": 34,
          "name": "A#1",
          "ticks": 49920,
          "time": 41.052569999999996,
          "velocity": 0.05511811023622047
        },
        {
          "duration": 0.0789472499999988,
          "durationTicks": 96,
          "midi": 46,
          "name": "A#2",
          "ticks": 50112,
          "time": 41.2104645,
          "velocity": 0.05511811023622047
        },
        {
          "duration": 0.0789472499999988,
          "durationTicks": 96,
          "midi": 34,
          "name": "A#1",
          "ticks": 50304,
          "time": 41.368359,
          "velocity": 0.05511811023622047
        },
        {
          "duration": 0.07894725000000591,
          "durationTicks": 96,
          "midi": 34,
          "name": "A#1",
          "ticks": 50496,
          "time": 41.526253499999996,
          "velocity": 0.05511811023622047
        },
        {
          "duration": 0.0789472499999988,
          "durationTicks": 96,
          "midi": 34,
          "name": "A#1",
          "ticks": 50688,
          "time": 41.684148,
          "velocity": 0.05511811023622047
        },
        {
          "duration": 0.0789472499999988,
          "durationTicks": 96,
          "midi": 34,
          "name": "A#1",
          "ticks": 50880,
          "time": 41.8420425,
          "velocity": 0.05511811023622047
        },
        {
          "duration": 0.07894725000000591,
          "durationTicks": 96,
          "midi": 46,
          "name": "A#2",
          "ticks": 51072,
          "time": 41.999936999999996,
          "velocity": 0.05511811023622047
        },
        {
          "duration": 0.0789472499999988,
          "durationTicks": 96,
          "midi": 34,
          "name": "A#1",
          "ticks": 51264,
          "time": 42.1578315,
          "velocity": 0.05511811023622047
        },
        {
          "duration": 0.0789472499999988,
          "durationTicks": 96,
          "midi": 34,
          "name": "A#1",
          "ticks": 51456,
          "time": 42.315726,
          "velocity": 0.05511811023622047
        },
        {
          "duration": 0.07894725000000591,
          "durationTicks": 96,
          "midi": 46,
          "name": "A#2",
          "ticks": 51648,
          "time": 42.473620499999996,
          "velocity": 0.05511811023622047
        },
        {
          "duration": 0.0789472499999988,
          "durationTicks": 96,
          "midi": 34,
          "name": "A#1",
          "ticks": 51840,
          "time": 42.631515,
          "velocity": 0.05511811023622047
        },
        {
          "duration": 0.0789472499999988,
          "durationTicks": 96,
          "midi": 34,
          "name": "A#1",
          "ticks": 52032,
          "time": 42.7894095,
          "velocity": 0.05511811023622047
        },
        {
          "duration": 0.07894725000000591,
          "durationTicks": 96,
          "midi": 36,
          "name": "C2",
          "ticks": 52224,
          "time": 42.947303999999995,
          "velocity": 0.05511811023622047
        },
        {
          "duration": 0.0789472499999988,
          "durationTicks": 96,
          "midi": 36,
          "name": "C2",
          "ticks": 52416,
          "time": 43.1051985,
          "velocity": 0.05511811023622047
        },
        {
          "duration": 0.0789472499999988,
          "durationTicks": 96,
          "midi": 48,
          "name": "C3",
          "ticks": 52608,
          "time": 43.263093,
          "velocity": 0.05511811023622047
        },
        {
          "duration": 0.07894725000000591,
          "durationTicks": 96,
          "midi": 36,
          "name": "C2",
          "ticks": 52800,
          "time": 43.420987499999995,
          "velocity": 0.05511811023622047
        },
        {
          "duration": 0.0789472499999988,
          "durationTicks": 96,
          "midi": 36,
          "name": "C2",
          "ticks": 52992,
          "time": 43.578882,
          "velocity": 0.05511811023622047
        },
        {
          "duration": 0.0789472499999988,
          "durationTicks": 96,
          "midi": 48,
          "name": "C3",
          "ticks": 53184,
          "time": 43.7367765,
          "velocity": 0.05511811023622047
        },
        {
          "duration": 0.07894725000000591,
          "durationTicks": 96,
          "midi": 36,
          "name": "C2",
          "ticks": 53376,
          "time": 43.894670999999995,
          "velocity": 0.05511811023622047
        },
        {
          "duration": 0.0789472499999988,
          "durationTicks": 96,
          "midi": 36,
          "name": "C2",
          "ticks": 53568,
          "time": 44.0525655,
          "velocity": 0.05511811023622047
        },
        {
          "duration": 0.0789472499999988,
          "durationTicks": 96,
          "midi": 36,
          "name": "C2",
          "ticks": 53760,
          "time": 44.21046,
          "velocity": 0.05511811023622047
        },
        {
          "duration": 0.07894725000000591,
          "durationTicks": 96,
          "midi": 36,
          "name": "C2",
          "ticks": 53952,
          "time": 44.368354499999995,
          "velocity": 0.05511811023622047
        },
        {
          "duration": 0.0789472499999988,
          "durationTicks": 96,
          "midi": 48,
          "name": "C3",
          "ticks": 54144,
          "time": 44.526249,
          "velocity": 0.05511811023622047
        },
        {
          "duration": 0.0789472499999988,
          "durationTicks": 96,
          "midi": 36,
          "name": "C2",
          "ticks": 54336,
          "time": 44.6841435,
          "velocity": 0.05511811023622047
        },
        {
          "duration": 0.07894725000000591,
          "durationTicks": 96,
          "midi": 36,
          "name": "C2",
          "ticks": 54528,
          "time": 44.842037999999995,
          "velocity": 0.05511811023622047
        },
        {
          "duration": 0.0789472499999988,
          "durationTicks": 96,
          "midi": 48,
          "name": "C3",
          "ticks": 54720,
          "time": 44.9999325,
          "velocity": 0.05511811023622047
        },
        {
          "duration": 0.0789472499999988,
          "durationTicks": 96,
          "midi": 36,
          "name": "C2",
          "ticks": 54912,
          "time": 45.157827,
          "velocity": 0.05511811023622047
        },
        {
          "duration": 0.07894725000000591,
          "durationTicks": 96,
          "midi": 36,
          "name": "C2",
          "ticks": 55104,
          "time": 45.315721499999995,
          "velocity": 0.05511811023622047
        },
        {
          "duration": 0.0789472499999988,
          "durationTicks": 96,
          "midi": 37,
          "name": "C#2",
          "ticks": 55296,
          "time": 45.473616,
          "velocity": 0.05511811023622047
        },
        {
          "duration": 0.0789472499999988,
          "durationTicks": 96,
          "midi": 37,
          "name": "C#2",
          "ticks": 55488,
          "time": 45.6315105,
          "velocity": 0.05511811023622047
        },
        {
          "duration": 0.07894725000000591,
          "durationTicks": 96,
          "midi": 49,
          "name": "C#3",
          "ticks": 55680,
          "time": 45.789404999999995,
          "velocity": 0.05511811023622047
        },
        {
          "duration": 0.0789472499999988,
          "durationTicks": 96,
          "midi": 37,
          "name": "C#2",
          "ticks": 55872,
          "time": 45.9472995,
          "velocity": 0.05511811023622047
        },
        {
          "duration": 0.0789472499999988,
          "durationTicks": 96,
          "midi": 37,
          "name": "C#2",
          "ticks": 56064,
          "time": 46.105194,
          "velocity": 0.05511811023622047
        },
        {
          "duration": 0.07894725000000591,
          "durationTicks": 96,
          "midi": 49,
          "name": "C#3",
          "ticks": 56256,
          "time": 46.263088499999995,
          "velocity": 0.05511811023622047
        },
        {
          "duration": 0.0789472499999988,
          "durationTicks": 96,
          "midi": 37,
          "name": "C#2",
          "ticks": 56448,
          "time": 46.420983,
          "velocity": 0.05511811023622047
        },
        {
          "duration": 0.0789472499999988,
          "durationTicks": 96,
          "midi": 37,
          "name": "C#2",
          "ticks": 56640,
          "time": 46.5788775,
          "velocity": 0.05511811023622047
        },
        {
          "duration": 0.07894725000000591,
          "durationTicks": 96,
          "midi": 37,
          "name": "C#2",
          "ticks": 56832,
          "time": 46.736771999999995,
          "velocity": 0.05511811023622047
        },
        {
          "duration": 0.0789472499999988,
          "durationTicks": 96,
          "midi": 37,
          "name": "C#2",
          "ticks": 57024,
          "time": 46.8946665,
          "velocity": 0.05511811023622047
        },
        {
          "duration": 0.0789472499999988,
          "durationTicks": 96,
          "midi": 49,
          "name": "C#3",
          "ticks": 57216,
          "time": 47.052561,
          "velocity": 0.05511811023622047
        },
        {
          "duration": 0.07894725000000591,
          "durationTicks": 96,
          "midi": 37,
          "name": "C#2",
          "ticks": 57408,
          "time": 47.210455499999995,
          "velocity": 0.05511811023622047
        },
        {
          "duration": 0.0789472499999988,
          "durationTicks": 96,
          "midi": 37,
          "name": "C#2",
          "ticks": 57600,
          "time": 47.36835,
          "velocity": 0.05511811023622047
        },
        {
          "duration": 0.0789472499999988,
          "durationTicks": 96,
          "midi": 49,
          "name": "C#3",
          "ticks": 57792,
          "time": 47.5262445,
          "velocity": 0.05511811023622047
        },
        {
          "duration": 0.07894725000000591,
          "durationTicks": 96,
          "midi": 37,
          "name": "C#2",
          "ticks": 57984,
          "time": 47.684138999999995,
          "velocity": 0.05511811023622047
        },
        {
          "duration": 0.0789472499999988,
          "durationTicks": 96,
          "midi": 37,
          "name": "C#2",
          "ticks": 58176,
          "time": 47.8420335,
          "velocity": 0.05511811023622047
        },
        {
          "duration": 0.0789472499999988,
          "durationTicks": 96,
          "midi": 38,
          "name": "D2",
          "ticks": 58368,
          "time": 47.999928,
          "velocity": 0.05511811023622047
        },
        {
          "duration": 0.07894725000000591,
          "durationTicks": 96,
          "midi": 38,
          "name": "D2",
          "ticks": 58560,
          "time": 48.157822499999995,
          "velocity": 0.05511811023622047
        },
        {
          "duration": 0.0789472499999988,
          "durationTicks": 96,
          "midi": 50,
          "name": "D3",
          "ticks": 58752,
          "time": 48.315717,
          "velocity": 0.05511811023622047
        },
        {
          "duration": 0.0789472499999988,
          "durationTicks": 96,
          "midi": 38,
          "name": "D2",
          "ticks": 58944,
          "time": 48.4736115,
          "velocity": 0.05511811023622047
        },
        {
          "duration": 0.07894725000000591,
          "durationTicks": 96,
          "midi": 38,
          "name": "D2",
          "ticks": 59136,
          "time": 48.631505999999995,
          "velocity": 0.05511811023622047
        },
        {
          "duration": 0.0789472499999988,
          "durationTicks": 96,
          "midi": 50,
          "name": "D3",
          "ticks": 59328,
          "time": 48.7894005,
          "velocity": 0.05511811023622047
        },
        {
          "duration": 0.0789472499999988,
          "durationTicks": 96,
          "midi": 38,
          "name": "D2",
          "ticks": 59520,
          "time": 48.947295,
          "velocity": 0.05511811023622047
        },
        {
          "duration": 0.07894725000000591,
          "durationTicks": 96,
          "midi": 38,
          "name": "D2",
          "ticks": 59712,
          "time": 49.105189499999994,
          "velocity": 0.05511811023622047
        },
        {
          "duration": 0.0789472499999988,
          "durationTicks": 96,
          "midi": 38,
          "name": "D2",
          "ticks": 59904,
          "time": 49.263084,
          "velocity": 0.05511811023622047
        },
        {
          "duration": 0.0789472499999988,
          "durationTicks": 96,
          "midi": 38,
          "name": "D2",
          "ticks": 60096,
          "time": 49.4209785,
          "velocity": 0.05511811023622047
        },
        {
          "duration": 0.07894725000000591,
          "durationTicks": 96,
          "midi": 50,
          "name": "D3",
          "ticks": 60288,
          "time": 49.578872999999994,
          "velocity": 0.05511811023622047
        },
        {
          "duration": 0.0789472499999988,
          "durationTicks": 96,
          "midi": 38,
          "name": "D2",
          "ticks": 60480,
          "time": 49.7367675,
          "velocity": 0.05511811023622047
        },
        {
          "duration": 0.0789472499999988,
          "durationTicks": 96,
          "midi": 38,
          "name": "D2",
          "ticks": 60672,
          "time": 49.894662,
          "velocity": 0.05511811023622047
        },
        {
          "duration": 0.07894725000000591,
          "durationTicks": 96,
          "midi": 50,
          "name": "D3",
          "ticks": 60864,
          "time": 50.052556499999994,
          "velocity": 0.05511811023622047
        },
        {
          "duration": 0.0789472499999988,
          "durationTicks": 96,
          "midi": 38,
          "name": "D2",
          "ticks": 61056,
          "time": 50.210451,
          "velocity": 0.05511811023622047
        },
        {
          "duration": 0.0789472499999988,
          "durationTicks": 96,
          "midi": 38,
          "name": "D2",
          "ticks": 61248,
          "time": 50.3683455,
          "velocity": 0.05511811023622047
        },
        {
          "duration": 0.0789472499999988,
          "durationTicks": 96,
          "midi": 34,
          "name": "A#1",
          "ticks": 61440,
          "time": 50.52624,
          "velocity": 0.05511811023622047
        },
        {
          "duration": 0.0789472499999988,
          "durationTicks": 96,
          "midi": 34,
          "name": "A#1",
          "ticks": 61632,
          "time": 50.6841345,
          "velocity": 0.05511811023622047
        },
        {
          "duration": 0.0789472499999988,
          "durationTicks": 96,
          "midi": 46,
          "name": "A#2",
          "ticks": 61824,
          "time": 50.842029,
          "velocity": 0.05511811023622047
        },
        {
          "duration": 0.0789472499999988,
          "durationTicks": 96,
          "midi": 34,
          "name": "A#1",
          "ticks": 62016,
          "time": 50.9999235,
          "velocity": 0.05511811023622047
        },
        {
          "duration": 0.0789472499999988,
          "durationTicks": 96,
          "midi": 34,
          "name": "A#1",
          "ticks": 62208,
          "time": 51.157818,
          "velocity": 0.05511811023622047
        },
        {
          "duration": 0.0789472499999988,
          "durationTicks": 96,
          "midi": 46,
          "name": "A#2",
          "ticks": 62400,
          "time": 51.3157125,
          "velocity": 0.05511811023622047
        },
        {
          "duration": 0.0789472499999988,
          "durationTicks": 96,
          "midi": 34,
          "name": "A#1",
          "ticks": 62592,
          "time": 51.473607,
          "velocity": 0.05511811023622047
        },
        {
          "duration": 0.0789472499999988,
          "durationTicks": 96,
          "midi": 34,
          "name": "A#1",
          "ticks": 62784,
          "time": 51.6315015,
          "velocity": 0.05511811023622047
        },
        {
          "duration": 0.0789472499999988,
          "durationTicks": 96,
          "midi": 34,
          "name": "A#1",
          "ticks": 62976,
          "time": 51.789395999999996,
          "velocity": 0.05511811023622047
        },
        {
          "duration": 0.0789472499999988,
          "durationTicks": 96,
          "midi": 34,
          "name": "A#1",
          "ticks": 63168,
          "time": 51.9472905,
          "velocity": 0.05511811023622047
        },
        {
          "duration": 0.0789472499999988,
          "durationTicks": 96,
          "midi": 46,
          "name": "A#2",
          "ticks": 63360,
          "time": 52.105185,
          "velocity": 0.05511811023622047
        },
        {
          "duration": 0.0789472499999988,
          "durationTicks": 96,
          "midi": 34,
          "name": "A#1",
          "ticks": 63552,
          "time": 52.263079499999996,
          "velocity": 0.05511811023622047
        },
        {
          "duration": 0.0789472499999988,
          "durationTicks": 96,
          "midi": 34,
          "name": "A#1",
          "ticks": 63744,
          "time": 52.420974,
          "velocity": 0.05511811023622047
        },
        {
          "duration": 0.0789472499999988,
          "durationTicks": 96,
          "midi": 46,
          "name": "A#2",
          "ticks": 63936,
          "time": 52.5788685,
          "velocity": 0.05511811023622047
        },
        {
          "duration": 0.0789472499999988,
          "durationTicks": 96,
          "midi": 34,
          "name": "A#1",
          "ticks": 64128,
          "time": 52.736762999999996,
          "velocity": 0.05511811023622047
        },
        {
          "duration": 0.0789472499999988,
          "durationTicks": 96,
          "midi": 34,
          "name": "A#1",
          "ticks": 64320,
          "time": 52.8946575,
          "velocity": 0.05511811023622047
        },
        {
          "duration": 0.0789472499999988,
          "durationTicks": 96,
          "midi": 36,
          "name": "C2",
          "ticks": 64512,
          "time": 53.052552,
          "velocity": 0.05511811023622047
        },
        {
          "duration": 0.0789472499999988,
          "durationTicks": 96,
          "midi": 36,
          "name": "C2",
          "ticks": 64704,
          "time": 53.210446499999996,
          "velocity": 0.05511811023622047
        },
        {
          "duration": 0.0789472499999988,
          "durationTicks": 96,
          "midi": 48,
          "name": "C3",
          "ticks": 64896,
          "time": 53.368341,
          "velocity": 0.05511811023622047
        },
        {
          "duration": 0.0789472499999988,
          "durationTicks": 96,
          "midi": 36,
          "name": "C2",
          "ticks": 65088,
          "time": 53.5262355,
          "velocity": 0.05511811023622047
        },
        {
          "duration": 0.0789472499999988,
          "durationTicks": 96,
          "midi": 36,
          "name": "C2",
          "ticks": 65280,
          "time": 53.684129999999996,
          "velocity": 0.05511811023622047
        },
        {
          "duration": 0.0789472499999988,
          "durationTicks": 96,
          "midi": 48,
          "name": "C3",
          "ticks": 65472,
          "time": 53.8420245,
          "velocity": 0.05511811023622047
        },
        {
          "duration": 0.0789472499999988,
          "durationTicks": 96,
          "midi": 36,
          "name": "C2",
          "ticks": 65664,
          "time": 53.999919,
          "velocity": 0.05511811023622047
        },
        {
          "duration": 0.0789472499999988,
          "durationTicks": 96,
          "midi": 36,
          "name": "C2",
          "ticks": 65856,
          "time": 54.157813499999996,
          "velocity": 0.05511811023622047
        },
        {
          "duration": 0.0789472499999988,
          "durationTicks": 96,
          "midi": 36,
          "name": "C2",
          "ticks": 66048,
          "time": 54.315708,
          "velocity": 0.05511811023622047
        },
        {
          "duration": 0.0789472499999988,
          "durationTicks": 96,
          "midi": 36,
          "name": "C2",
          "ticks": 66240,
          "time": 54.4736025,
          "velocity": 0.05511811023622047
        },
        {
          "duration": 0.0789472499999988,
          "durationTicks": 96,
          "midi": 48,
          "name": "C3",
          "ticks": 66432,
          "time": 54.631496999999996,
          "velocity": 0.05511811023622047
        },
        {
          "duration": 0.0789472499999988,
          "durationTicks": 96,
          "midi": 36,
          "name": "C2",
          "ticks": 66624,
          "time": 54.7893915,
          "velocity": 0.05511811023622047
        },
        {
          "duration": 0.0789472499999988,
          "durationTicks": 96,
          "midi": 36,
          "name": "C2",
          "ticks": 66816,
          "time": 54.947286,
          "velocity": 0.05511811023622047
        },
        {
          "duration": 0.0789472499999988,
          "durationTicks": 96,
          "midi": 48,
          "name": "C3",
          "ticks": 67008,
          "time": 55.105180499999996,
          "velocity": 0.05511811023622047
        },
        {
          "duration": 0.0789472499999988,
          "durationTicks": 96,
          "midi": 36,
          "name": "C2",
          "ticks": 67200,
          "time": 55.263075,
          "velocity": 0.05511811023622047
        },
        {
          "duration": 0.0789472499999988,
          "durationTicks": 96,
          "midi": 36,
          "name": "C2",
          "ticks": 67392,
          "time": 55.4209695,
          "velocity": 0.05511811023622047
        },
        {
          "duration": 0.0789472499999988,
          "durationTicks": 96,
          "midi": 37,
          "name": "C#2",
          "ticks": 67584,
          "time": 55.578863999999996,
          "velocity": 0.05511811023622047
        },
        {
          "duration": 0.0789472499999988,
          "durationTicks": 96,
          "midi": 37,
          "name": "C#2",
          "ticks": 67776,
          "time": 55.7367585,
          "velocity": 0.05511811023622047
        },
        {
          "duration": 0.0789472499999988,
          "durationTicks": 96,
          "midi": 49,
          "name": "C#3",
          "ticks": 67968,
          "time": 55.894653,
          "velocity": 0.05511811023622047
        },
        {
          "duration": 0.0789472499999988,
          "durationTicks": 96,
          "midi": 37,
          "name": "C#2",
          "ticks": 68160,
          "time": 56.052547499999996,
          "velocity": 0.05511811023622047
        },
        {
          "duration": 0.0789472499999988,
          "durationTicks": 96,
          "midi": 37,
          "name": "C#2",
          "ticks": 68352,
          "time": 56.210442,
          "velocity": 0.05511811023622047
        },
        {
          "duration": 0.0789472499999988,
          "durationTicks": 96,
          "midi": 49,
          "name": "C#3",
          "ticks": 68544,
          "time": 56.3683365,
          "velocity": 0.05511811023622047
        },
        {
          "duration": 0.0789472499999988,
          "durationTicks": 96,
          "midi": 37,
          "name": "C#2",
          "ticks": 68736,
          "time": 56.526230999999996,
          "velocity": 0.05511811023622047
        },
        {
          "duration": 0.0789472499999988,
          "durationTicks": 96,
          "midi": 37,
          "name": "C#2",
          "ticks": 68928,
          "time": 56.6841255,
          "velocity": 0.05511811023622047
        },
        {
          "duration": 0.0789472499999988,
          "durationTicks": 96,
          "midi": 37,
          "name": "C#2",
          "ticks": 69120,
          "time": 56.84202,
          "velocity": 0.05511811023622047
        },
        {
          "duration": 0.0789472499999988,
          "durationTicks": 96,
          "midi": 37,
          "name": "C#2",
          "ticks": 69312,
          "time": 56.999914499999996,
          "velocity": 0.05511811023622047
        },
        {
          "duration": 0.0789472499999988,
          "durationTicks": 96,
          "midi": 49,
          "name": "C#3",
          "ticks": 69504,
          "time": 57.157809,
          "velocity": 0.05511811023622047
        },
        {
          "duration": 0.0789472499999988,
          "durationTicks": 96,
          "midi": 37,
          "name": "C#2",
          "ticks": 69696,
          "time": 57.3157035,
          "velocity": 0.05511811023622047
        },
        {
          "duration": 0.0789472499999988,
          "durationTicks": 96,
          "midi": 37,
          "name": "C#2",
          "ticks": 69888,
          "time": 57.473597999999996,
          "velocity": 0.05511811023622047
        },
        {
          "duration": 0.0789472499999988,
          "durationTicks": 96,
          "midi": 49,
          "name": "C#3",
          "ticks": 70080,
          "time": 57.6314925,
          "velocity": 0.05511811023622047
        },
        {
          "duration": 0.0789472499999988,
          "durationTicks": 96,
          "midi": 37,
          "name": "C#2",
          "ticks": 70272,
          "time": 57.789387,
          "velocity": 0.05511811023622047
        },
        {
          "duration": 0.0789472499999988,
          "durationTicks": 96,
          "midi": 37,
          "name": "C#2",
          "ticks": 70464,
          "time": 57.947281499999995,
          "velocity": 0.05511811023622047
        },
        {
          "duration": 0.0789472499999988,
          "durationTicks": 96,
          "midi": 34,
          "name": "A#1",
          "ticks": 73728,
          "time": 60.631488,
          "velocity": 0.07874015748031496
        },
        {
          "duration": 0.07894725000000591,
          "durationTicks": 96,
          "midi": 34,
          "name": "A#1",
          "ticks": 73920,
          "time": 60.789382499999995,
          "velocity": 0.05511811023622047
        },
        {
          "duration": 0.0789472499999988,
          "durationTicks": 96,
          "midi": 46,
          "name": "A#2",
          "ticks": 74112,
          "time": 60.947277,
          "velocity": 0.05511811023622047
        },
        {
          "duration": 0.0789472499999988,
          "durationTicks": 96,
          "midi": 34,
          "name": "A#1",
          "ticks": 74304,
          "time": 61.1051715,
          "velocity": 0.05511811023622047
        },
        {
          "duration": 0.07894725000000591,
          "durationTicks": 96,
          "midi": 34,
          "name": "A#1",
          "ticks": 74496,
          "time": 61.263065999999995,
          "velocity": 0.05511811023622047
        },
        {
          "duration": 0.0789472499999988,
          "durationTicks": 96,
          "midi": 46,
          "name": "A#2",
          "ticks": 74688,
          "time": 61.4209605,
          "velocity": 0.05511811023622047
        },
        {
          "duration": 0.0789472499999988,
          "durationTicks": 96,
          "midi": 34,
          "name": "A#1",
          "ticks": 74880,
          "time": 61.578855,
          "velocity": 0.05511811023622047
        },
        {
          "duration": 0.07894725000000591,
          "durationTicks": 96,
          "midi": 34,
          "name": "A#1",
          "ticks": 75072,
          "time": 61.736749499999995,
          "velocity": 0.05511811023622047
        },
        {
          "duration": 0.0789472499999988,
          "durationTicks": 96,
          "midi": 34,
          "name": "A#1",
          "ticks": 75264,
          "time": 61.894644,
          "velocity": 0.05511811023622047
        },
        {
          "duration": 0.0789472499999988,
          "durationTicks": 96,
          "midi": 34,
          "name": "A#1",
          "ticks": 75456,
          "time": 62.0525385,
          "velocity": 0.05511811023622047
        },
        {
          "duration": 0.07894725000000591,
          "durationTicks": 96,
          "midi": 46,
          "name": "A#2",
          "ticks": 75648,
          "time": 62.210432999999995,
          "velocity": 0.05511811023622047
        },
        {
          "duration": 0.0789472499999988,
          "durationTicks": 96,
          "midi": 34,
          "name": "A#1",
          "ticks": 75840,
          "time": 62.3683275,
          "velocity": 0.05511811023622047
        },
        {
          "duration": 0.0789472499999988,
          "durationTicks": 96,
          "midi": 34,
          "name": "A#1",
          "ticks": 76032,
          "time": 62.526222,
          "velocity": 0.05511811023622047
        },
        {
          "duration": 0.07894725000000591,
          "durationTicks": 96,
          "midi": 46,
          "name": "A#2",
          "ticks": 76224,
          "time": 62.684116499999995,
          "velocity": 0.05511811023622047
        },
        {
          "duration": 0.0789472499999988,
          "durationTicks": 96,
          "midi": 34,
          "name": "A#1",
          "ticks": 76416,
          "time": 62.842011,
          "velocity": 0.05511811023622047
        },
        {
          "duration": 0.0789472499999988,
          "durationTicks": 96,
          "midi": 34,
          "name": "A#1",
          "ticks": 76608,
          "time": 62.9999055,
          "velocity": 0.05511811023622047
        },
        {
          "duration": 0.07894725000000591,
          "durationTicks": 96,
          "midi": 36,
          "name": "C2",
          "ticks": 76800,
          "time": 63.157799999999995,
          "velocity": 0.05511811023622047
        },
        {
          "duration": 0.0789472499999988,
          "durationTicks": 96,
          "midi": 36,
          "name": "C2",
          "ticks": 76992,
          "time": 63.3156945,
          "velocity": 0.05511811023622047
        },
        {
          "duration": 0.0789472499999988,
          "durationTicks": 96,
          "midi": 48,
          "name": "C3",
          "ticks": 77184,
          "time": 63.473589,
          "velocity": 0.05511811023622047
        },
        {
          "duration": 0.07894725000000591,
          "durationTicks": 96,
          "midi": 36,
          "name": "C2",
          "ticks": 77376,
          "time": 63.631483499999995,
          "velocity": 0.05511811023622047
        },
        {
          "duration": 0.0789472499999988,
          "durationTicks": 96,
          "midi": 36,
          "name": "C2",
          "ticks": 77568,
          "time": 63.789378,
          "velocity": 0.05511811023622047
        },
        {
          "duration": 0.0789472499999988,
          "durationTicks": 96,
          "midi": 48,
          "name": "C3",
          "ticks": 77760,
          "time": 63.9472725,
          "velocity": 0.05511811023622047
        },
        {
          "duration": 0.0789472499999988,
          "durationTicks": 96,
          "midi": 36,
          "name": "C2",
          "ticks": 77952,
          "time": 64.105167,
          "velocity": 0.05511811023622047
        },
        {
          "duration": 0.0789472499999988,
          "durationTicks": 96,
          "midi": 36,
          "name": "C2",
          "ticks": 78144,
          "time": 64.26306149999999,
          "velocity": 0.05511811023622047
        },
        {
          "duration": 0.0789472499999988,
          "durationTicks": 96,
          "midi": 36,
          "name": "C2",
          "ticks": 78336,
          "time": 64.420956,
          "velocity": 0.05511811023622047
        },
        {
          "duration": 0.0789472499999988,
          "durationTicks": 96,
          "midi": 36,
          "name": "C2",
          "ticks": 78528,
          "time": 64.5788505,
          "velocity": 0.05511811023622047
        },
        {
          "duration": 0.0789472499999988,
          "durationTicks": 96,
          "midi": 48,
          "name": "C3",
          "ticks": 78720,
          "time": 64.736745,
          "velocity": 0.05511811023622047
        },
        {
          "duration": 0.0789472499999988,
          "durationTicks": 96,
          "midi": 36,
          "name": "C2",
          "ticks": 78912,
          "time": 64.8946395,
          "velocity": 0.05511811023622047
        },
        {
          "duration": 0.0789472499999988,
          "durationTicks": 96,
          "midi": 36,
          "name": "C2",
          "ticks": 79104,
          "time": 65.052534,
          "velocity": 0.05511811023622047
        },
        {
          "duration": 0.0789472499999988,
          "durationTicks": 96,
          "midi": 48,
          "name": "C3",
          "ticks": 79296,
          "time": 65.21042849999999,
          "velocity": 0.05511811023622047
        },
        {
          "duration": 0.0789472499999988,
          "durationTicks": 96,
          "midi": 36,
          "name": "C2",
          "ticks": 79488,
          "time": 65.368323,
          "velocity": 0.05511811023622047
        },
        {
          "duration": 0.0789472499999988,
          "durationTicks": 96,
          "midi": 36,
          "name": "C2",
          "ticks": 79680,
          "time": 65.5262175,
          "velocity": 0.05511811023622047
        },
        {
          "duration": 0.0789472499999988,
          "durationTicks": 96,
          "midi": 37,
          "name": "C#2",
          "ticks": 79872,
          "time": 65.684112,
          "velocity": 0.05511811023622047
        },
        {
          "duration": 0.0789472499999988,
          "durationTicks": 96,
          "midi": 37,
          "name": "C#2",
          "ticks": 80064,
          "time": 65.8420065,
          "velocity": 0.05511811023622047
        },
        {
          "duration": 0.0789472499999988,
          "durationTicks": 96,
          "midi": 49,
          "name": "C#3",
          "ticks": 80256,
          "time": 65.999901,
          "velocity": 0.05511811023622047
        },
        {
          "duration": 0.0789472499999988,
          "durationTicks": 96,
          "midi": 37,
          "name": "C#2",
          "ticks": 80448,
          "time": 66.15779549999999,
          "velocity": 0.05511811023622047
        },
        {
          "duration": 0.0789472499999988,
          "durationTicks": 96,
          "midi": 37,
          "name": "C#2",
          "ticks": 80640,
          "time": 66.31569,
          "velocity": 0.05511811023622047
        },
        {
          "duration": 0.0789472499999988,
          "durationTicks": 96,
          "midi": 49,
          "name": "C#3",
          "ticks": 80832,
          "time": 66.4735845,
          "velocity": 0.05511811023622047
        },
        {
          "duration": 0.0789472499999988,
          "durationTicks": 96,
          "midi": 37,
          "name": "C#2",
          "ticks": 81024,
          "time": 66.631479,
          "velocity": 0.05511811023622047
        },
        {
          "duration": 0.0789472499999988,
          "durationTicks": 96,
          "midi": 37,
          "name": "C#2",
          "ticks": 81216,
          "time": 66.7893735,
          "velocity": 0.05511811023622047
        },
        {
          "duration": 0.0789472499999988,
          "durationTicks": 96,
          "midi": 37,
          "name": "C#2",
          "ticks": 81408,
          "time": 66.947268,
          "velocity": 0.05511811023622047
        },
        {
          "duration": 0.0789472499999988,
          "durationTicks": 96,
          "midi": 37,
          "name": "C#2",
          "ticks": 81600,
          "time": 67.10516249999999,
          "velocity": 0.05511811023622047
        },
        {
          "duration": 0.0789472499999988,
          "durationTicks": 96,
          "midi": 49,
          "name": "C#3",
          "ticks": 81792,
          "time": 67.263057,
          "velocity": 0.05511811023622047
        },
        {
          "duration": 0.0789472499999988,
          "durationTicks": 96,
          "midi": 37,
          "name": "C#2",
          "ticks": 81984,
          "time": 67.4209515,
          "velocity": 0.05511811023622047
        },
        {
          "duration": 0.0789472499999988,
          "durationTicks": 96,
          "midi": 37,
          "name": "C#2",
          "ticks": 82176,
          "time": 67.578846,
          "velocity": 0.05511811023622047
        },
        {
          "duration": 0.0789472499999988,
          "durationTicks": 96,
          "midi": 49,
          "name": "C#3",
          "ticks": 82368,
          "time": 67.7367405,
          "velocity": 0.05511811023622047
        },
        {
          "duration": 0.0789472499999988,
          "durationTicks": 96,
          "midi": 37,
          "name": "C#2",
          "ticks": 82560,
          "time": 67.894635,
          "velocity": 0.05511811023622047
        },
        {
          "duration": 0.0789472499999988,
          "durationTicks": 96,
          "midi": 37,
          "name": "C#2",
          "ticks": 82752,
          "time": 68.05252949999999,
          "velocity": 0.05511811023622047
        },
        {
          "duration": 0.0789472499999988,
          "durationTicks": 96,
          "midi": 37,
          "name": "C#2",
          "ticks": 82944,
          "time": 68.210424,
          "velocity": 0.05511811023622047
        },
        {
          "duration": 0.0789472499999988,
          "durationTicks": 96,
          "midi": 37,
          "name": "C#2",
          "ticks": 83136,
          "time": 68.3683185,
          "velocity": 0.05511811023622047
        },
        {
          "duration": 0.0789472499999988,
          "durationTicks": 96,
          "midi": 49,
          "name": "C#3",
          "ticks": 83328,
          "time": 68.526213,
          "velocity": 0.05511811023622047
        },
        {
          "duration": 0.0789472499999988,
          "durationTicks": 96,
          "midi": 37,
          "name": "C#2",
          "ticks": 83520,
          "time": 68.6841075,
          "velocity": 0.05511811023622047
        },
        {
          "duration": 0.0789472499999988,
          "durationTicks": 96,
          "midi": 37,
          "name": "C#2",
          "ticks": 83712,
          "time": 68.842002,
          "velocity": 0.05511811023622047
        },
        {
          "duration": 0.0789472499999988,
          "durationTicks": 96,
          "midi": 49,
          "name": "C#3",
          "ticks": 83904,
          "time": 68.99989649999999,
          "velocity": 0.05511811023622047
        },
        {
          "duration": 0.0789472499999988,
          "durationTicks": 96,
          "midi": 37,
          "name": "C#2",
          "ticks": 84096,
          "time": 69.157791,
          "velocity": 0.05511811023622047
        },
        {
          "duration": 0.0789472499999988,
          "durationTicks": 96,
          "midi": 37,
          "name": "C#2",
          "ticks": 84288,
          "time": 69.3156855,
          "velocity": 0.05511811023622047
        },
        {
          "duration": 0.0789472499999988,
          "durationTicks": 96,
          "midi": 36,
          "name": "C2",
          "ticks": 84480,
          "time": 69.47358,
          "velocity": 0.05511811023622047
        },
        {
          "duration": 0.0789472499999988,
          "durationTicks": 96,
          "midi": 36,
          "name": "C2",
          "ticks": 84672,
          "time": 69.6314745,
          "velocity": 0.05511811023622047
        },
        {
          "duration": 0.0789472499999988,
          "durationTicks": 96,
          "midi": 48,
          "name": "C3",
          "ticks": 84864,
          "time": 69.789369,
          "velocity": 0.05511811023622047
        },
        {
          "duration": 0.0789472499999988,
          "durationTicks": 96,
          "midi": 36,
          "name": "C2",
          "ticks": 85056,
          "time": 69.94726349999999,
          "velocity": 0.05511811023622047
        },
        {
          "duration": 0.0789472499999988,
          "durationTicks": 96,
          "midi": 36,
          "name": "C2",
          "ticks": 85248,
          "time": 70.105158,
          "velocity": 0.05511811023622047
        },
        {
          "duration": 0.0789472499999988,
          "durationTicks": 96,
          "midi": 48,
          "name": "C3",
          "ticks": 85440,
          "time": 70.2630525,
          "velocity": 0.05511811023622047
        },
        {
          "duration": 0.0789472499999988,
          "durationTicks": 96,
          "midi": 36,
          "name": "C2",
          "ticks": 85632,
          "time": 70.420947,
          "velocity": 0.05511811023622047
        },
        {
          "duration": 0.0789472499999988,
          "durationTicks": 96,
          "midi": 36,
          "name": "C2",
          "ticks": 85824,
          "time": 70.5788415,
          "velocity": 0.05511811023622047
        },
        {
          "duration": 0.0789472499999988,
          "durationTicks": 96,
          "midi": 34,
          "name": "A#1",
          "ticks": 86016,
          "time": 70.736736,
          "velocity": 0.05511811023622047
        },
        {
          "duration": 0.07894725000001301,
          "durationTicks": 96,
          "midi": 34,
          "name": "A#1",
          "ticks": 86208,
          "time": 70.89463049999999,
          "velocity": 0.05511811023622047
        },
        {
          "duration": 0.0789472499999988,
          "durationTicks": 96,
          "midi": 46,
          "name": "A#2",
          "ticks": 86400,
          "time": 71.052525,
          "velocity": 0.05511811023622047
        },
        {
          "duration": 0.0789472499999988,
          "durationTicks": 96,
          "midi": 34,
          "name": "A#1",
          "ticks": 86592,
          "time": 71.2104195,
          "velocity": 0.05511811023622047
        },
        {
          "duration": 0.0789472499999988,
          "durationTicks": 96,
          "midi": 34,
          "name": "A#1",
          "ticks": 86784,
          "time": 71.368314,
          "velocity": 0.05511811023622047
        },
        {
          "duration": 0.0789472499999988,
          "durationTicks": 96,
          "midi": 46,
          "name": "A#2",
          "ticks": 86976,
          "time": 71.5262085,
          "velocity": 0.05511811023622047
        },
        {
          "duration": 0.0789472499999988,
          "durationTicks": 96,
          "midi": 34,
          "name": "A#1",
          "ticks": 87168,
          "time": 71.684103,
          "velocity": 0.05511811023622047
        },
        {
          "duration": 0.07894725000001301,
          "durationTicks": 96,
          "midi": 34,
          "name": "A#1",
          "ticks": 87360,
          "time": 71.84199749999999,
          "velocity": 0.05511811023622047
        },
        {
          "duration": 0.0789472499999988,
          "durationTicks": 96,
          "midi": 34,
          "name": "A#1",
          "ticks": 87552,
          "time": 71.999892,
          "velocity": 0.05511811023622047
        },
        {
          "duration": 0.0789472499999988,
          "durationTicks": 96,
          "midi": 34,
          "name": "A#1",
          "ticks": 87744,
          "time": 72.1577865,
          "velocity": 0.05511811023622047
        },
        {
          "duration": 0.0789472499999988,
          "durationTicks": 96,
          "midi": 46,
          "name": "A#2",
          "ticks": 87936,
          "time": 72.315681,
          "velocity": 0.05511811023622047
        },
        {
          "duration": 0.0789472499999988,
          "durationTicks": 96,
          "midi": 34,
          "name": "A#1",
          "ticks": 88128,
          "time": 72.4735755,
          "velocity": 0.05511811023622047
        },
        {
          "duration": 0.0789472499999988,
          "durationTicks": 96,
          "midi": 34,
          "name": "A#1",
          "ticks": 88320,
          "time": 72.63147,
          "velocity": 0.05511811023622047
        },
        {
          "duration": 0.07894725000001301,
          "durationTicks": 96,
          "midi": 46,
          "name": "A#2",
          "ticks": 88512,
          "time": 72.78936449999999,
          "velocity": 0.05511811023622047
        },
        {
          "duration": 0.0789472499999988,
          "durationTicks": 96,
          "midi": 34,
          "name": "A#1",
          "ticks": 88704,
          "time": 72.947259,
          "velocity": 0.05511811023622047
        },
        {
          "duration": 0.0789472499999988,
          "durationTicks": 96,
          "midi": 34,
          "name": "A#1",
          "ticks": 88896,
          "time": 73.1051535,
          "velocity": 0.05511811023622047
        },
        {
          "duration": 0.0789472499999988,
          "durationTicks": 96,
          "midi": 36,
          "name": "C2",
          "ticks": 89088,
          "time": 73.263048,
          "velocity": 0.05511811023622047
        },
        {
          "duration": 0.0789472499999988,
          "durationTicks": 96,
          "midi": 36,
          "name": "C2",
          "ticks": 89280,
          "time": 73.4209425,
          "velocity": 0.05511811023622047
        },
        {
          "duration": 0.0789472499999988,
          "durationTicks": 96,
          "midi": 48,
          "name": "C3",
          "ticks": 89472,
          "time": 73.578837,
          "velocity": 0.05511811023622047
        },
        {
          "duration": 0.07894725000001301,
          "durationTicks": 96,
          "midi": 36,
          "name": "C2",
          "ticks": 89664,
          "time": 73.73673149999999,
          "velocity": 0.05511811023622047
        },
        {
          "duration": 0.0789472499999988,
          "durationTicks": 96,
          "midi": 36,
          "name": "C2",
          "ticks": 89856,
          "time": 73.894626,
          "velocity": 0.05511811023622047
        },
        {
          "duration": 0.0789472499999988,
          "durationTicks": 96,
          "midi": 48,
          "name": "C3",
          "ticks": 90048,
          "time": 74.0525205,
          "velocity": 0.05511811023622047
        },
        {
          "duration": 0.0789472499999988,
          "durationTicks": 96,
          "midi": 36,
          "name": "C2",
          "ticks": 90240,
          "time": 74.210415,
          "velocity": 0.05511811023622047
        },
        {
          "duration": 0.0789472499999988,
          "durationTicks": 96,
          "midi": 36,
          "name": "C2",
          "ticks": 90432,
          "time": 74.3683095,
          "velocity": 0.05511811023622047
        },
        {
          "duration": 0.0789472499999988,
          "durationTicks": 96,
          "midi": 36,
          "name": "C2",
          "ticks": 90624,
          "time": 74.52620399999999,
          "velocity": 0.05511811023622047
        },
        {
          "duration": 0.07894725000001301,
          "durationTicks": 96,
          "midi": 36,
          "name": "C2",
          "ticks": 90816,
          "time": 74.68409849999999,
          "velocity": 0.05511811023622047
        },
        {
          "duration": 0.0789472499999988,
          "durationTicks": 96,
          "midi": 48,
          "name": "C3",
          "ticks": 91008,
          "time": 74.841993,
          "velocity": 0.05511811023622047
        },
        {
          "duration": 0.0789472499999988,
          "durationTicks": 96,
          "midi": 36,
          "name": "C2",
          "ticks": 91200,
          "time": 74.9998875,
          "velocity": 0.05511811023622047
        },
        {
          "duration": 0.0789472499999988,
          "durationTicks": 96,
          "midi": 36,
          "name": "C2",
          "ticks": 91392,
          "time": 75.157782,
          "velocity": 0.05511811023622047
        },
        {
          "duration": 0.0789472499999988,
          "durationTicks": 96,
          "midi": 48,
          "name": "C3",
          "ticks": 91584,
          "time": 75.3156765,
          "velocity": 0.05511811023622047
        },
        {
          "duration": 0.0789472499999988,
          "durationTicks": 96,
          "midi": 36,
          "name": "C2",
          "ticks": 91776,
          "time": 75.47357099999999,
          "velocity": 0.05511811023622047
        },
        {
          "duration": 0.07894725000001301,
          "durationTicks": 96,
          "midi": 36,
          "name": "C2",
          "ticks": 91968,
          "time": 75.63146549999999,
          "velocity": 0.05511811023622047
        },
        {
          "duration": 0.0789472499999988,
          "durationTicks": 96,
          "midi": 37,
          "name": "C#2",
          "ticks": 92160,
          "time": 75.78936,
          "velocity": 0.05511811023622047
        },
        {
          "duration": 0.0789472499999988,
          "durationTicks": 96,
          "midi": 37,
          "name": "C#2",
          "ticks": 92352,
          "time": 75.9472545,
          "velocity": 0.05511811023622047
        },
        {
          "duration": 0.0789472499999988,
          "durationTicks": 96,
          "midi": 49,
          "name": "C#3",
          "ticks": 92544,
          "time": 76.105149,
          "velocity": 0.05511811023622047
        },
        {
          "duration": 0.0789472499999988,
          "durationTicks": 96,
          "midi": 37,
          "name": "C#2",
          "ticks": 92736,
          "time": 76.2630435,
          "velocity": 0.05511811023622047
        },
        {
          "duration": 0.0789472499999988,
          "durationTicks": 96,
          "midi": 37,
          "name": "C#2",
          "ticks": 92928,
          "time": 76.42093799999999,
          "velocity": 0.05511811023622047
        },
        {
          "duration": 0.07894725000001301,
          "durationTicks": 96,
          "midi": 49,
          "name": "C#3",
          "ticks": 93120,
          "time": 76.57883249999999,
          "velocity": 0.05511811023622047
        },
        {
          "duration": 0.0789472499999988,
          "durationTicks": 96,
          "midi": 37,
          "name": "C#2",
          "ticks": 93312,
          "time": 76.736727,
          "velocity": 0.05511811023622047
        },
        {
          "duration": 0.0789472499999988,
          "durationTicks": 96,
          "midi": 37,
          "name": "C#2",
          "ticks": 93504,
          "time": 76.8946215,
          "velocity": 0.05511811023622047
        },
        {
          "duration": 0.0789472499999988,
          "durationTicks": 96,
          "midi": 37,
          "name": "C#2",
          "ticks": 93696,
          "time": 77.052516,
          "velocity": 0.05511811023622047
        },
        {
          "duration": 0.0789472499999988,
          "durationTicks": 96,
          "midi": 37,
          "name": "C#2",
          "ticks": 93888,
          "time": 77.2104105,
          "velocity": 0.05511811023622047
        },
        {
          "duration": 0.0789472499999988,
          "durationTicks": 96,
          "midi": 49,
          "name": "C#3",
          "ticks": 94080,
          "time": 77.36830499999999,
          "velocity": 0.05511811023622047
        },
        {
          "duration": 0.07894725000001301,
          "durationTicks": 96,
          "midi": 37,
          "name": "C#2",
          "ticks": 94272,
          "time": 77.52619949999999,
          "velocity": 0.05511811023622047
        },
        {
          "duration": 0.0789472499999988,
          "durationTicks": 96,
          "midi": 37,
          "name": "C#2",
          "ticks": 94464,
          "time": 77.684094,
          "velocity": 0.05511811023622047
        },
        {
          "duration": 0.0789472499999988,
          "durationTicks": 96,
          "midi": 49,
          "name": "C#3",
          "ticks": 94656,
          "time": 77.8419885,
          "velocity": 0.05511811023622047
        },
        {
          "duration": 0.0789472499999988,
          "durationTicks": 96,
          "midi": 37,
          "name": "C#2",
          "ticks": 94848,
          "time": 77.999883,
          "velocity": 0.05511811023622047
        },
        {
          "duration": 0.0789472499999988,
          "durationTicks": 96,
          "midi": 37,
          "name": "C#2",
          "ticks": 95040,
          "time": 78.1577775,
          "velocity": 0.05511811023622047
        },
        {
          "duration": 0.0789472499999988,
          "durationTicks": 96,
          "midi": 37,
          "name": "C#2",
          "ticks": 95232,
          "time": 78.31567199999999,
          "velocity": 0.05511811023622047
        },
        {
          "duration": 0.07894725000001301,
          "durationTicks": 96,
          "midi": 37,
          "name": "C#2",
          "ticks": 95424,
          "time": 78.47356649999999,
          "velocity": 0.05511811023622047
        },
        {
          "duration": 0.0789472499999988,
          "durationTicks": 96,
          "midi": 49,
          "name": "C#3",
          "ticks": 95616,
          "time": 78.631461,
          "velocity": 0.05511811023622047
        },
        {
          "duration": 0.0789472499999988,
          "durationTicks": 96,
          "midi": 37,
          "name": "C#2",
          "ticks": 95808,
          "time": 78.7893555,
          "velocity": 0.05511811023622047
        },
        {
          "duration": 0.0789472499999988,
          "durationTicks": 96,
          "midi": 37,
          "name": "C#2",
          "ticks": 96000,
          "time": 78.94725,
          "velocity": 0.05511811023622047
        },
        {
          "duration": 0.0789472499999988,
          "durationTicks": 96,
          "midi": 49,
          "name": "C#3",
          "ticks": 96192,
          "time": 79.1051445,
          "velocity": 0.05511811023622047
        },
        {
          "duration": 0.0789472499999988,
          "durationTicks": 96,
          "midi": 37,
          "name": "C#2",
          "ticks": 96384,
          "time": 79.26303899999999,
          "velocity": 0.05511811023622047
        },
        {
          "duration": 0.07894725000001301,
          "durationTicks": 96,
          "midi": 37,
          "name": "C#2",
          "ticks": 96576,
          "time": 79.42093349999999,
          "velocity": 0.05511811023622047
        },
        {
          "duration": 0.0789472499999988,
          "durationTicks": 96,
          "midi": 36,
          "name": "C2",
          "ticks": 96768,
          "time": 79.578828,
          "velocity": 0.05511811023622047
        },
        {
          "duration": 0.0789472499999988,
          "durationTicks": 96,
          "midi": 36,
          "name": "C2",
          "ticks": 96960,
          "time": 79.7367225,
          "velocity": 0.05511811023622047
        },
        {
          "duration": 0.0789472499999988,
          "durationTicks": 96,
          "midi": 48,
          "name": "C3",
          "ticks": 97152,
          "time": 79.894617,
          "velocity": 0.05511811023622047
        },
        {
          "duration": 0.0789472499999988,
          "durationTicks": 96,
          "midi": 36,
          "name": "C2",
          "ticks": 97344,
          "time": 80.0525115,
          "velocity": 0.05511811023622047
        },
        {
          "duration": 0.0789472499999988,
          "durationTicks": 96,
          "midi": 36,
          "name": "C2",
          "ticks": 97536,
          "time": 80.21040599999999,
          "velocity": 0.05511811023622047
        },
        {
          "duration": 0.07894725000001301,
          "durationTicks": 96,
          "midi": 48,
          "name": "C3",
          "ticks": 97728,
          "time": 80.36830049999999,
          "velocity": 0.05511811023622047
        },
        {
          "duration": 0.0789472499999988,
          "durationTicks": 96,
          "midi": 36,
          "name": "C2",
          "ticks": 97920,
          "time": 80.526195,
          "velocity": 0.05511811023622047
        },
        {
          "duration": 0.0789472499999988,
          "durationTicks": 96,
          "midi": 36,
          "name": "C2",
          "ticks": 98112,
          "time": 80.6840895,
          "velocity": 0.05511811023622047
        },
        {
          "duration": 0.0789472499999988,
          "durationTicks": 96,
          "midi": 34,
          "name": "A#1",
          "ticks": 98304,
          "time": 80.841984,
          "velocity": 0.05511811023622047
        },
        {
          "duration": 0.0789472499999988,
          "durationTicks": 96,
          "midi": 34,
          "name": "A#1",
          "ticks": 98496,
          "time": 80.9998785,
          "velocity": 0.05511811023622047
        },
        {
          "duration": 0.0789472499999988,
          "durationTicks": 96,
          "midi": 46,
          "name": "A#2",
          "ticks": 98688,
          "time": 81.15777299999999,
          "velocity": 0.05511811023622047
        },
        {
          "duration": 0.0789472499999988,
          "durationTicks": 96,
          "midi": 34,
          "name": "A#1",
          "ticks": 98880,
          "time": 81.3156675,
          "velocity": 0.05511811023622047
        },
        {
          "duration": 0.0789472499999988,
          "durationTicks": 96,
          "midi": 34,
          "name": "A#1",
          "ticks": 99072,
          "time": 81.473562,
          "velocity": 0.05511811023622047
        },
        {
          "duration": 0.0789472499999988,
          "durationTicks": 96,
          "midi": 46,
          "name": "A#2",
          "ticks": 99264,
          "time": 81.6314565,
          "velocity": 0.05511811023622047
        },
        {
          "duration": 0.0789472499999988,
          "durationTicks": 96,
          "midi": 34,
          "name": "A#1",
          "ticks": 99456,
          "time": 81.789351,
          "velocity": 0.05511811023622047
        },
        {
          "duration": 0.0789472499999988,
          "durationTicks": 96,
          "midi": 34,
          "name": "A#1",
          "ticks": 99648,
          "time": 81.9472455,
          "velocity": 0.05511811023622047
        },
        {
          "duration": 0.0789472499999988,
          "durationTicks": 96,
          "midi": 34,
          "name": "A#1",
          "ticks": 99840,
          "time": 82.10513999999999,
          "velocity": 0.05511811023622047
        },
        {
          "duration": 0.0789472499999988,
          "durationTicks": 96,
          "midi": 34,
          "name": "A#1",
          "ticks": 100032,
          "time": 82.2630345,
          "velocity": 0.05511811023622047
        },
        {
          "duration": 0.0789472499999988,
          "durationTicks": 96,
          "midi": 46,
          "name": "A#2",
          "ticks": 100224,
          "time": 82.420929,
          "velocity": 0.05511811023622047
        },
        {
          "duration": 0.0789472499999988,
          "durationTicks": 96,
          "midi": 34,
          "name": "A#1",
          "ticks": 100416,
          "time": 82.5788235,
          "velocity": 0.05511811023622047
        },
        {
          "duration": 0.0789472499999988,
          "durationTicks": 96,
          "midi": 34,
          "name": "A#1",
          "ticks": 100608,
          "time": 82.736718,
          "velocity": 0.05511811023622047
        },
        {
          "duration": 0.0789472499999988,
          "durationTicks": 96,
          "midi": 46,
          "name": "A#2",
          "ticks": 100800,
          "time": 82.8946125,
          "velocity": 0.05511811023622047
        },
        {
          "duration": 0.0789472499999988,
          "durationTicks": 96,
          "midi": 34,
          "name": "A#1",
          "ticks": 100992,
          "time": 83.05250699999999,
          "velocity": 0.05511811023622047
        },
        {
          "duration": 0.0789472499999988,
          "durationTicks": 96,
          "midi": 34,
          "name": "A#1",
          "ticks": 101184,
          "time": 83.2104015,
          "velocity": 0.05511811023622047
        },
        {
          "duration": 0.0789472499999988,
          "durationTicks": 96,
          "midi": 36,
          "name": "C2",
          "ticks": 101376,
          "time": 83.368296,
          "velocity": 0.05511811023622047
        },
        {
          "duration": 0.0789472499999988,
          "durationTicks": 96,
          "midi": 36,
          "name": "C2",
          "ticks": 101568,
          "time": 83.5261905,
          "velocity": 0.05511811023622047
        },
        {
          "duration": 0.0789472499999988,
          "durationTicks": 96,
          "midi": 48,
          "name": "C3",
          "ticks": 101760,
          "time": 83.684085,
          "velocity": 0.05511811023622047
        },
        {
          "duration": 0.0789472499999988,
          "durationTicks": 96,
          "midi": 36,
          "name": "C2",
          "ticks": 101952,
          "time": 83.8419795,
          "velocity": 0.05511811023622047
        },
        {
          "duration": 0.0789472499999988,
          "durationTicks": 96,
          "midi": 36,
          "name": "C2",
          "ticks": 102144,
          "time": 83.99987399999999,
          "velocity": 0.05511811023622047
        },
        {
          "duration": 0.0789472499999988,
          "durationTicks": 96,
          "midi": 48,
          "name": "C3",
          "ticks": 102336,
          "time": 84.1577685,
          "velocity": 0.05511811023622047
        },
        {
          "duration": 0.0789472499999988,
          "durationTicks": 96,
          "midi": 36,
          "name": "C2",
          "ticks": 102528,
          "time": 84.315663,
          "velocity": 0.05511811023622047
        },
        {
          "duration": 0.0789472499999988,
          "durationTicks": 96,
          "midi": 36,
          "name": "C2",
          "ticks": 102720,
          "time": 84.4735575,
          "velocity": 0.05511811023622047
        },
        {
          "duration": 0.0789472499999988,
          "durationTicks": 96,
          "midi": 36,
          "name": "C2",
          "ticks": 102912,
          "time": 84.631452,
          "velocity": 0.05511811023622047
        },
        {
          "duration": 0.0789472499999988,
          "durationTicks": 96,
          "midi": 36,
          "name": "C2",
          "ticks": 103104,
          "time": 84.7893465,
          "velocity": 0.05511811023622047
        },
        {
          "duration": 0.0789472499999988,
          "durationTicks": 96,
          "midi": 48,
          "name": "C3",
          "ticks": 103296,
          "time": 84.94724099999999,
          "velocity": 0.05511811023622047
        },
        {
          "duration": 0.0789472499999988,
          "durationTicks": 96,
          "midi": 36,
          "name": "C2",
          "ticks": 103488,
          "time": 85.1051355,
          "velocity": 0.05511811023622047
        },
        {
          "duration": 0.0789472499999988,
          "durationTicks": 96,
          "midi": 36,
          "name": "C2",
          "ticks": 103680,
          "time": 85.26303,
          "velocity": 0.05511811023622047
        },
        {
          "duration": 0.0789472499999988,
          "durationTicks": 96,
          "midi": 48,
          "name": "C3",
          "ticks": 103872,
          "time": 85.4209245,
          "velocity": 0.05511811023622047
        },
        {
          "duration": 0.0789472499999988,
          "durationTicks": 96,
          "midi": 36,
          "name": "C2",
          "ticks": 104064,
          "time": 85.578819,
          "velocity": 0.05511811023622047
        },
        {
          "duration": 0.0789472499999988,
          "durationTicks": 96,
          "midi": 36,
          "name": "C2",
          "ticks": 104256,
          "time": 85.7367135,
          "velocity": 0.05511811023622047
        },
        {
          "duration": 0.0789472499999988,
          "durationTicks": 96,
          "midi": 37,
          "name": "C#2",
          "ticks": 104448,
          "time": 85.89460799999999,
          "velocity": 0.05511811023622047
        },
        {
          "duration": 0.0789472499999988,
          "durationTicks": 96,
          "midi": 37,
          "name": "C#2",
          "ticks": 104640,
          "time": 86.0525025,
          "velocity": 0.05511811023622047
        },
        {
          "duration": 0.0789472499999988,
          "durationTicks": 96,
          "midi": 49,
          "name": "C#3",
          "ticks": 104832,
          "time": 86.210397,
          "velocity": 0.05511811023622047
        },
        {
          "duration": 0.0789472499999988,
          "durationTicks": 96,
          "midi": 37,
          "name": "C#2",
          "ticks": 105024,
          "time": 86.3682915,
          "velocity": 0.05511811023622047
        },
        {
          "duration": 0.0789472499999988,
          "durationTicks": 96,
          "midi": 37,
          "name": "C#2",
          "ticks": 105216,
          "time": 86.526186,
          "velocity": 0.05511811023622047
        },
        {
          "duration": 0.0789472499999988,
          "durationTicks": 96,
          "midi": 49,
          "name": "C#3",
          "ticks": 105408,
          "time": 86.6840805,
          "velocity": 0.05511811023622047
        },
        {
          "duration": 0.0789472499999988,
          "durationTicks": 96,
          "midi": 37,
          "name": "C#2",
          "ticks": 105600,
          "time": 86.84197499999999,
          "velocity": 0.05511811023622047
        },
        {
          "duration": 0.0789472499999988,
          "durationTicks": 96,
          "midi": 37,
          "name": "C#2",
          "ticks": 105792,
          "time": 86.9998695,
          "velocity": 0.05511811023622047
        },
        {
          "duration": 0.0789472499999988,
          "durationTicks": 96,
          "midi": 37,
          "name": "C#2",
          "ticks": 105984,
          "time": 87.157764,
          "velocity": 0.05511811023622047
        },
        {
          "duration": 0.0789472499999988,
          "durationTicks": 96,
          "midi": 37,
          "name": "C#2",
          "ticks": 106176,
          "time": 87.3156585,
          "velocity": 0.05511811023622047
        },
        {
          "duration": 0.0789472499999988,
          "durationTicks": 96,
          "midi": 49,
          "name": "C#3",
          "ticks": 106368,
          "time": 87.473553,
          "velocity": 0.05511811023622047
        },
        {
          "duration": 0.0789472499999988,
          "durationTicks": 96,
          "midi": 37,
          "name": "C#2",
          "ticks": 106560,
          "time": 87.6314475,
          "velocity": 0.05511811023622047
        },
        {
          "duration": 0.0789472499999988,
          "durationTicks": 96,
          "midi": 37,
          "name": "C#2",
          "ticks": 106752,
          "time": 87.78934199999999,
          "velocity": 0.05511811023622047
        },
        {
          "duration": 0.0789472499999988,
          "durationTicks": 96,
          "midi": 49,
          "name": "C#3",
          "ticks": 106944,
          "time": 87.9472365,
          "velocity": 0.05511811023622047
        },
        {
          "duration": 0.0789472499999988,
          "durationTicks": 96,
          "midi": 37,
          "name": "C#2",
          "ticks": 107136,
          "time": 88.105131,
          "velocity": 0.05511811023622047
        },
        {
          "duration": 0.0789472499999988,
          "durationTicks": 96,
          "midi": 37,
          "name": "C#2",
          "ticks": 107328,
          "time": 88.2630255,
          "velocity": 0.05511811023622047
        },
        {
          "duration": 0.0789472499999988,
          "durationTicks": 96,
          "midi": 37,
          "name": "C#2",
          "ticks": 107520,
          "time": 88.42092,
          "velocity": 0.05511811023622047
        },
        {
          "duration": 0.0789472499999988,
          "durationTicks": 96,
          "midi": 37,
          "name": "C#2",
          "ticks": 107712,
          "time": 88.5788145,
          "velocity": 0.05511811023622047
        },
        {
          "duration": 0.0789472499999988,
          "durationTicks": 96,
          "midi": 49,
          "name": "C#3",
          "ticks": 107904,
          "time": 88.73670899999999,
          "velocity": 0.05511811023622047
        },
        {
          "duration": 0.0789472499999988,
          "durationTicks": 96,
          "midi": 37,
          "name": "C#2",
          "ticks": 108096,
          "time": 88.8946035,
          "velocity": 0.05511811023622047
        },
        {
          "duration": 0.0789472499999988,
          "durationTicks": 96,
          "midi": 37,
          "name": "C#2",
          "ticks": 108288,
          "time": 89.052498,
          "velocity": 0.05511811023622047
        },
        {
          "duration": 0.0789472499999988,
          "durationTicks": 96,
          "midi": 49,
          "name": "C#3",
          "ticks": 108480,
          "time": 89.2103925,
          "velocity": 0.05511811023622047
        },
        {
          "duration": 0.0789472499999988,
          "durationTicks": 96,
          "midi": 37,
          "name": "C#2",
          "ticks": 108672,
          "time": 89.368287,
          "velocity": 0.05511811023622047
        },
        {
          "duration": 0.0789472499999988,
          "durationTicks": 96,
          "midi": 37,
          "name": "C#2",
          "ticks": 108864,
          "time": 89.52618149999999,
          "velocity": 0.05511811023622047
        },
        {
          "duration": 0.0789472499999988,
          "durationTicks": 96,
          "midi": 36,
          "name": "C2",
          "ticks": 109056,
          "time": 89.68407599999999,
          "velocity": 0.05511811023622047
        },
        {
          "duration": 0.0789472499999988,
          "durationTicks": 96,
          "midi": 36,
          "name": "C2",
          "ticks": 109248,
          "time": 89.8419705,
          "velocity": 0.05511811023622047
        },
        {
          "duration": 0.0789472499999988,
          "durationTicks": 96,
          "midi": 48,
          "name": "C3",
          "ticks": 109440,
          "time": 89.999865,
          "velocity": 0.05511811023622047
        },
        {
          "duration": 0.0789472499999988,
          "durationTicks": 96,
          "midi": 36,
          "name": "C2",
          "ticks": 109632,
          "time": 90.1577595,
          "velocity": 0.05511811023622047
        },
        {
          "duration": 0.0789472499999988,
          "durationTicks": 96,
          "midi": 36,
          "name": "C2",
          "ticks": 109824,
          "time": 90.315654,
          "velocity": 0.05511811023622047
        },
        {
          "duration": 0.0789472499999988,
          "durationTicks": 96,
          "midi": 48,
          "name": "C3",
          "ticks": 110016,
          "time": 90.47354849999999,
          "velocity": 0.05511811023622047
        },
        {
          "duration": 0.0789472499999988,
          "durationTicks": 96,
          "midi": 36,
          "name": "C2",
          "ticks": 110208,
          "time": 90.63144299999999,
          "velocity": 0.05511811023622047
        },
        {
          "duration": 0.0789472499999988,
          "durationTicks": 96,
          "midi": 36,
          "name": "C2",
          "ticks": 110400,
          "time": 90.7893375,
          "velocity": 0.05511811023622047
        },
        {
          "duration": 0.0789472499999988,
          "durationTicks": 96,
          "midi": 34,
          "name": "A#1",
          "ticks": 110592,
          "time": 90.947232,
          "velocity": 0.05511811023622047
        },
        {
          "duration": 0.0789472499999988,
          "durationTicks": 96,
          "midi": 34,
          "name": "A#1",
          "ticks": 110784,
          "time": 91.1051265,
          "velocity": 0.05511811023622047
        },
        {
          "duration": 0.0789472499999988,
          "durationTicks": 96,
          "midi": 46,
          "name": "A#2",
          "ticks": 110976,
          "time": 91.263021,
          "velocity": 0.05511811023622047
        },
        {
          "duration": 0.0789472499999988,
          "durationTicks": 96,
          "midi": 34,
          "name": "A#1",
          "ticks": 111168,
          "time": 91.42091549999999,
          "velocity": 0.05511811023622047
        },
        {
          "duration": 0.07894725000001301,
          "durationTicks": 96,
          "midi": 34,
          "name": "A#1",
          "ticks": 111360,
          "time": 91.57880999999999,
          "velocity": 0.05511811023622047
        },
        {
          "duration": 0.0789472499999988,
          "durationTicks": 96,
          "midi": 46,
          "name": "A#2",
          "ticks": 111552,
          "time": 91.7367045,
          "velocity": 0.05511811023622047
        },
        {
          "duration": 0.0789472499999988,
          "durationTicks": 96,
          "midi": 34,
          "name": "A#1",
          "ticks": 111744,
          "time": 91.894599,
          "velocity": 0.05511811023622047
        },
        {
          "duration": 0.0789472499999988,
          "durationTicks": 96,
          "midi": 34,
          "name": "A#1",
          "ticks": 111936,
          "time": 92.0524935,
          "velocity": 0.05511811023622047
        },
        {
          "duration": 0.0789472499999988,
          "durationTicks": 96,
          "midi": 34,
          "name": "A#1",
          "ticks": 112128,
          "time": 92.210388,
          "velocity": 0.05511811023622047
        },
        {
          "duration": 0.0789472499999988,
          "durationTicks": 96,
          "midi": 34,
          "name": "A#1",
          "ticks": 112320,
          "time": 92.36828249999999,
          "velocity": 0.05511811023622047
        },
        {
          "duration": 0.07894725000001301,
          "durationTicks": 96,
          "midi": 46,
          "name": "A#2",
          "ticks": 112512,
          "time": 92.52617699999999,
          "velocity": 0.05511811023622047
        },
        {
          "duration": 0.0789472499999988,
          "durationTicks": 96,
          "midi": 34,
          "name": "A#1",
          "ticks": 112704,
          "time": 92.6840715,
          "velocity": 0.05511811023622047
        },
        {
          "duration": 0.0789472499999988,
          "durationTicks": 96,
          "midi": 34,
          "name": "A#1",
          "ticks": 112896,
          "time": 92.841966,
          "velocity": 0.05511811023622047
        },
        {
          "duration": 0.0789472499999988,
          "durationTicks": 96,
          "midi": 46,
          "name": "A#2",
          "ticks": 113088,
          "time": 92.9998605,
          "velocity": 0.05511811023622047
        },
        {
          "duration": 0.0789472499999988,
          "durationTicks": 96,
          "midi": 34,
          "name": "A#1",
          "ticks": 113280,
          "time": 93.157755,
          "velocity": 0.05511811023622047
        },
        {
          "duration": 0.0789472499999988,
          "durationTicks": 96,
          "midi": 34,
          "name": "A#1",
          "ticks": 113472,
          "time": 93.31564949999999,
          "velocity": 0.05511811023622047
        },
        {
          "duration": 0.07894725000001301,
          "durationTicks": 96,
          "midi": 36,
          "name": "C2",
          "ticks": 113664,
          "time": 93.47354399999999,
          "velocity": 0.05511811023622047
        },
        {
          "duration": 0.0789472499999988,
          "durationTicks": 96,
          "midi": 36,
          "name": "C2",
          "ticks": 113856,
          "time": 93.6314385,
          "velocity": 0.05511811023622047
        },
        {
          "duration": 0.0789472499999988,
          "durationTicks": 96,
          "midi": 48,
          "name": "C3",
          "ticks": 114048,
          "time": 93.789333,
          "velocity": 0.05511811023622047
        },
        {
          "duration": 0.0789472499999988,
          "durationTicks": 96,
          "midi": 36,
          "name": "C2",
          "ticks": 114240,
          "time": 93.9472275,
          "velocity": 0.05511811023622047
        },
        {
          "duration": 0.0789472499999988,
          "durationTicks": 96,
          "midi": 36,
          "name": "C2",
          "ticks": 114432,
          "time": 94.105122,
          "velocity": 0.05511811023622047
        },
        {
          "duration": 0.0789472499999988,
          "durationTicks": 96,
          "midi": 48,
          "name": "C3",
          "ticks": 114624,
          "time": 94.26301649999999,
          "velocity": 0.05511811023622047
        },
        {
          "duration": 0.07894725000001301,
          "durationTicks": 96,
          "midi": 36,
          "name": "C2",
          "ticks": 114816,
          "time": 94.42091099999999,
          "velocity": 0.05511811023622047
        },
        {
          "duration": 0.0789472499999988,
          "durationTicks": 96,
          "midi": 36,
          "name": "C2",
          "ticks": 115008,
          "time": 94.5788055,
          "velocity": 0.05511811023622047
        },
        {
          "duration": 0.0789472499999988,
          "durationTicks": 96,
          "midi": 36,
          "name": "C2",
          "ticks": 115200,
          "time": 94.7367,
          "velocity": 0.05511811023622047
        },
        {
          "duration": 0.0789472499999988,
          "durationTicks": 96,
          "midi": 36,
          "name": "C2",
          "ticks": 115392,
          "time": 94.8945945,
          "velocity": 0.05511811023622047
        },
        {
          "duration": 0.0789472499999988,
          "durationTicks": 96,
          "midi": 48,
          "name": "C3",
          "ticks": 115584,
          "time": 95.052489,
          "velocity": 0.05511811023622047
        },
        {
          "duration": 0.0789472499999988,
          "durationTicks": 96,
          "midi": 36,
          "name": "C2",
          "ticks": 115776,
          "time": 95.21038349999999,
          "velocity": 0.05511811023622047
        },
        {
          "duration": 0.07894725000001301,
          "durationTicks": 96,
          "midi": 36,
          "name": "C2",
          "ticks": 115968,
          "time": 95.36827799999999,
          "velocity": 0.05511811023622047
        },
        {
          "duration": 0.0789472499999988,
          "durationTicks": 96,
          "midi": 48,
          "name": "C3",
          "ticks": 116160,
          "time": 95.5261725,
          "velocity": 0.05511811023622047
        },
        {
          "duration": 0.0789472499999988,
          "durationTicks": 96,
          "midi": 36,
          "name": "C2",
          "ticks": 116352,
          "time": 95.684067,
          "velocity": 0.05511811023622047
        },
        {
          "duration": 0.0789472499999988,
          "durationTicks": 96,
          "midi": 36,
          "name": "C2",
          "ticks": 116544,
          "time": 95.8419615,
          "velocity": 0.05511811023622047
        },
        {
          "duration": 0.0789472499999988,
          "durationTicks": 96,
          "midi": 37,
          "name": "C#2",
          "ticks": 116736,
          "time": 95.999856,
          "velocity": 0.05511811023622047
        },
        {
          "duration": 0.0789472499999988,
          "durationTicks": 96,
          "midi": 37,
          "name": "C#2",
          "ticks": 116928,
          "time": 96.15775049999999,
          "velocity": 0.05511811023622047
        },
        {
          "duration": 0.07894725000001301,
          "durationTicks": 96,
          "midi": 49,
          "name": "C#3",
          "ticks": 117120,
          "time": 96.31564499999999,
          "velocity": 0.05511811023622047
        },
        {
          "duration": 0.0789472499999988,
          "durationTicks": 96,
          "midi": 37,
          "name": "C#2",
          "ticks": 117312,
          "time": 96.4735395,
          "velocity": 0.05511811023622047
        },
        {
          "duration": 0.0789472499999988,
          "durationTicks": 96,
          "midi": 37,
          "name": "C#2",
          "ticks": 117504,
          "time": 96.631434,
          "velocity": 0.05511811023622047
        },
        {
          "duration": 0.0789472499999988,
          "durationTicks": 96,
          "midi": 49,
          "name": "C#3",
          "ticks": 117696,
          "time": 96.7893285,
          "velocity": 0.05511811023622047
        },
        {
          "duration": 0.0789472499999988,
          "durationTicks": 96,
          "midi": 37,
          "name": "C#2",
          "ticks": 117888,
          "time": 96.947223,
          "velocity": 0.05511811023622047
        },
        {
          "duration": 0.0789472499999988,
          "durationTicks": 96,
          "midi": 37,
          "name": "C#2",
          "ticks": 118080,
          "time": 97.10511749999999,
          "velocity": 0.05511811023622047
        },
        {
          "duration": 0.07894725000001301,
          "durationTicks": 96,
          "midi": 37,
          "name": "C#2",
          "ticks": 118272,
          "time": 97.26301199999999,
          "velocity": 0.05511811023622047
        },
        {
          "duration": 0.0789472499999988,
          "durationTicks": 96,
          "midi": 37,
          "name": "C#2",
          "ticks": 118464,
          "time": 97.4209065,
          "velocity": 0.05511811023622047
        },
        {
          "duration": 0.0789472499999988,
          "durationTicks": 96,
          "midi": 49,
          "name": "C#3",
          "ticks": 118656,
          "time": 97.578801,
          "velocity": 0.05511811023622047
        },
        {
          "duration": 0.0789472499999988,
          "durationTicks": 96,
          "midi": 37,
          "name": "C#2",
          "ticks": 118848,
          "time": 97.7366955,
          "velocity": 0.05511811023622047
        },
        {
          "duration": 0.0789472499999988,
          "durationTicks": 96,
          "midi": 37,
          "name": "C#2",
          "ticks": 119040,
          "time": 97.89459,
          "velocity": 0.05511811023622047
        },
        {
          "duration": 0.0789472499999988,
          "durationTicks": 96,
          "midi": 49,
          "name": "C#3",
          "ticks": 119232,
          "time": 98.05248449999999,
          "velocity": 0.05511811023622047
        },
        {
          "duration": 0.07894725000001301,
          "durationTicks": 96,
          "midi": 37,
          "name": "C#2",
          "ticks": 119424,
          "time": 98.21037899999999,
          "velocity": 0.05511811023622047
        },
        {
          "duration": 0.0789472499999988,
          "durationTicks": 96,
          "midi": 37,
          "name": "C#2",
          "ticks": 119616,
          "time": 98.3682735,
          "velocity": 0.05511811023622047
        },
        {
          "duration": 0.0789472499999988,
          "durationTicks": 96,
          "midi": 37,
          "name": "C#2",
          "ticks": 119808,
          "time": 98.526168,
          "velocity": 0.05511811023622047
        },
        {
          "duration": 0.0789472499999988,
          "durationTicks": 96,
          "midi": 37,
          "name": "C#2",
          "ticks": 120000,
          "time": 98.6840625,
          "velocity": 0.05511811023622047
        },
        {
          "duration": 0.0789472499999988,
          "durationTicks": 96,
          "midi": 49,
          "name": "C#3",
          "ticks": 120192,
          "time": 98.841957,
          "velocity": 0.05511811023622047
        },
        {
          "duration": 0.0789472499999988,
          "durationTicks": 96,
          "midi": 37,
          "name": "C#2",
          "ticks": 120384,
          "time": 98.99985149999999,
          "velocity": 0.05511811023622047
        },
        {
          "duration": 0.07894725000001301,
          "durationTicks": 96,
          "midi": 37,
          "name": "C#2",
          "ticks": 120576,
          "time": 99.15774599999999,
          "velocity": 0.05511811023622047
        },
        {
          "duration": 0.0789472499999988,
          "durationTicks": 96,
          "midi": 49,
          "name": "C#3",
          "ticks": 120768,
          "time": 99.3156405,
          "velocity": 0.05511811023622047
        },
        {
          "duration": 0.0789472499999988,
          "durationTicks": 96,
          "midi": 37,
          "name": "C#2",
          "ticks": 120960,
          "time": 99.473535,
          "velocity": 0.05511811023622047
        },
        {
          "duration": 0.0789472499999988,
          "durationTicks": 96,
          "midi": 37,
          "name": "C#2",
          "ticks": 121152,
          "time": 99.6314295,
          "velocity": 0.05511811023622047
        },
        {
          "duration": 0.0789472499999988,
          "durationTicks": 96,
          "midi": 36,
          "name": "C2",
          "ticks": 121344,
          "time": 99.789324,
          "velocity": 0.05511811023622047
        },
        {
          "duration": 0.0789472499999988,
          "durationTicks": 96,
          "midi": 36,
          "name": "C2",
          "ticks": 121536,
          "time": 99.94721849999999,
          "velocity": 0.05511811023622047
        },
        {
          "duration": 0.07894725000001301,
          "durationTicks": 96,
          "midi": 48,
          "name": "C3",
          "ticks": 121728,
          "time": 100.10511299999999,
          "velocity": 0.05511811023622047
        },
        {
          "duration": 0.0789472499999988,
          "durationTicks": 96,
          "midi": 36,
          "name": "C2",
          "ticks": 121920,
          "time": 100.2630075,
          "velocity": 0.05511811023622047
        },
        {
          "duration": 0.0789472499999988,
          "durationTicks": 96,
          "midi": 36,
          "name": "C2",
          "ticks": 122112,
          "time": 100.420902,
          "velocity": 0.05511811023622047
        },
        {
          "duration": 0.0789472499999988,
          "durationTicks": 96,
          "midi": 48,
          "name": "C3",
          "ticks": 122304,
          "time": 100.5787965,
          "velocity": 0.05511811023622047
        },
        {
          "duration": 0.0789472499999988,
          "durationTicks": 96,
          "midi": 36,
          "name": "C2",
          "ticks": 122496,
          "time": 100.736691,
          "velocity": 0.05511811023622047
        },
        {
          "duration": 0.0789472499999988,
          "durationTicks": 96,
          "midi": 36,
          "name": "C2",
          "ticks": 122688,
          "time": 100.89458549999999,
          "velocity": 0.05511811023622047
        },
        {
          "duration": 0.0789472499999988,
          "durationTicks": 96,
          "midi": 34,
          "name": "A#1",
          "ticks": 122880,
          "time": 101.05248,
          "velocity": 0.05511811023622047
        },
        {
          "duration": 0.0789472499999988,
          "durationTicks": 96,
          "midi": 34,
          "name": "A#1",
          "ticks": 123072,
          "time": 101.2103745,
          "velocity": 0.05511811023622047
        },
        {
          "duration": 0.0789472499999988,
          "durationTicks": 96,
          "midi": 46,
          "name": "A#2",
          "ticks": 123264,
          "time": 101.368269,
          "velocity": 0.05511811023622047
        },
        {
          "duration": 0.0789472499999988,
          "durationTicks": 96,
          "midi": 34,
          "name": "A#1",
          "ticks": 123456,
          "time": 101.5261635,
          "velocity": 0.05511811023622047
        },
        {
          "duration": 0.0789472499999988,
          "durationTicks": 96,
          "midi": 34,
          "name": "A#1",
          "ticks": 123648,
          "time": 101.684058,
          "velocity": 0.05511811023622047
        },
        {
          "duration": 0.0789472499999988,
          "durationTicks": 96,
          "midi": 46,
          "name": "A#2",
          "ticks": 123840,
          "time": 101.84195249999999,
          "velocity": 0.05511811023622047
        },
        {
          "duration": 0.0789472499999988,
          "durationTicks": 96,
          "midi": 34,
          "name": "A#1",
          "ticks": 124032,
          "time": 101.999847,
          "velocity": 0.05511811023622047
        },
        {
          "duration": 0.0789472499999988,
          "durationTicks": 96,
          "midi": 34,
          "name": "A#1",
          "ticks": 124224,
          "time": 102.1577415,
          "velocity": 0.05511811023622047
        },
        {
          "duration": 0.0789472499999988,
          "durationTicks": 96,
          "midi": 34,
          "name": "A#1",
          "ticks": 124416,
          "time": 102.315636,
          "velocity": 0.05511811023622047
        },
        {
          "duration": 0.0789472499999988,
          "durationTicks": 96,
          "midi": 34,
          "name": "A#1",
          "ticks": 124608,
          "time": 102.4735305,
          "velocity": 0.05511811023622047
        },
        {
          "duration": 0.0789472499999988,
          "durationTicks": 96,
          "midi": 46,
          "name": "A#2",
          "ticks": 124800,
          "time": 102.631425,
          "velocity": 0.05511811023622047
        },
        {
          "duration": 0.0789472499999988,
          "durationTicks": 96,
          "midi": 34,
          "name": "A#1",
          "ticks": 124992,
          "time": 102.78931949999999,
          "velocity": 0.05511811023622047
        },
        {
          "duration": 0.0789472499999988,
          "durationTicks": 96,
          "midi": 34,
          "name": "A#1",
          "ticks": 125184,
          "time": 102.947214,
          "velocity": 0.05511811023622047
        },
        {
          "duration": 0.0789472499999988,
          "durationTicks": 96,
          "midi": 46,
          "name": "A#2",
          "ticks": 125376,
          "time": 103.1051085,
          "velocity": 0.05511811023622047
        },
        {
          "duration": 0.0789472499999988,
          "durationTicks": 96,
          "midi": 34,
          "name": "A#1",
          "ticks": 125568,
          "time": 103.263003,
          "velocity": 0.05511811023622047
        },
        {
          "duration": 0.0789472499999988,
          "durationTicks": 96,
          "midi": 34,
          "name": "A#1",
          "ticks": 125760,
          "time": 103.4208975,
          "velocity": 0.05511811023622047
        },
        {
          "duration": 0.0789472499999988,
          "durationTicks": 96,
          "midi": 36,
          "name": "C2",
          "ticks": 125952,
          "time": 103.57879199999999,
          "velocity": 0.05511811023622047
        },
        {
          "duration": 0.0789472499999988,
          "durationTicks": 96,
          "midi": 36,
          "name": "C2",
          "ticks": 126144,
          "time": 103.73668649999999,
          "velocity": 0.05511811023622047
        },
        {
          "duration": 0.0789472499999988,
          "durationTicks": 96,
          "midi": 48,
          "name": "C3",
          "ticks": 126336,
          "time": 103.894581,
          "velocity": 0.05511811023622047
        },
        {
          "duration": 0.0789472499999988,
          "durationTicks": 96,
          "midi": 36,
          "name": "C2",
          "ticks": 126528,
          "time": 104.0524755,
          "velocity": 0.05511811023622047
        },
        {
          "duration": 0.0789472499999988,
          "durationTicks": 96,
          "midi": 36,
          "name": "C2",
          "ticks": 126720,
          "time": 104.21037,
          "velocity": 0.05511811023622047
        },
        {
          "duration": 0.0789472499999988,
          "durationTicks": 96,
          "midi": 48,
          "name": "C3",
          "ticks": 126912,
          "time": 104.3682645,
          "velocity": 0.05511811023622047
        },
        {
          "duration": 0.0789472499999988,
          "durationTicks": 96,
          "midi": 36,
          "name": "C2",
          "ticks": 127104,
          "time": 104.52615899999999,
          "velocity": 0.05511811023622047
        },
        {
          "duration": 0.0789472499999988,
          "durationTicks": 96,
          "midi": 36,
          "name": "C2",
          "ticks": 127296,
          "time": 104.68405349999999,
          "velocity": 0.05511811023622047
        },
        {
          "duration": 0.0789472499999988,
          "durationTicks": 96,
          "midi": 36,
          "name": "C2",
          "ticks": 127488,
          "time": 104.841948,
          "velocity": 0.05511811023622047
        },
        {
          "duration": 0.0789472499999988,
          "durationTicks": 96,
          "midi": 36,
          "name": "C2",
          "ticks": 127680,
          "time": 104.9998425,
          "velocity": 0.05511811023622047
        },
        {
          "duration": 0.0789472499999988,
          "durationTicks": 96,
          "midi": 48,
          "name": "C3",
          "ticks": 127872,
          "time": 105.157737,
          "velocity": 0.05511811023622047
        },
        {
          "duration": 0.0789472499999988,
          "durationTicks": 96,
          "midi": 36,
          "name": "C2",
          "ticks": 128064,
          "time": 105.3156315,
          "velocity": 0.05511811023622047
        },
        {
          "duration": 0.0789472499999988,
          "durationTicks": 96,
          "midi": 36,
          "name": "C2",
          "ticks": 128256,
          "time": 105.47352599999999,
          "velocity": 0.05511811023622047
        },
        {
          "duration": 0.0789472499999988,
          "durationTicks": 96,
          "midi": 48,
          "name": "C3",
          "ticks": 128448,
          "time": 105.63142049999999,
          "velocity": 0.05511811023622047
        },
        {
          "duration": 0.0789472499999988,
          "durationTicks": 96,
          "midi": 36,
          "name": "C2",
          "ticks": 128640,
          "time": 105.789315,
          "velocity": 0.05511811023622047
        },
        {
          "duration": 0.0789472499999988,
          "durationTicks": 96,
          "midi": 36,
          "name": "C2",
          "ticks": 128832,
          "time": 105.9472095,
          "velocity": 0.05511811023622047
        },
        {
          "duration": 0.0789472499999988,
          "durationTicks": 96,
          "midi": 37,
          "name": "C#2",
          "ticks": 129024,
          "time": 106.105104,
          "velocity": 0.05511811023622047
        },
        {
          "duration": 0.0789472499999988,
          "durationTicks": 96,
          "midi": 37,
          "name": "C#2",
          "ticks": 129216,
          "time": 106.2629985,
          "velocity": 0.05511811023622047
        },
        {
          "duration": 0.0789472499999988,
          "durationTicks": 96,
          "midi": 49,
          "name": "C#3",
          "ticks": 129408,
          "time": 106.42089299999999,
          "velocity": 0.05511811023622047
        },
        {
          "duration": 0.0789472499999988,
          "durationTicks": 96,
          "midi": 37,
          "name": "C#2",
          "ticks": 129600,
          "time": 106.57878749999999,
          "velocity": 0.05511811023622047
        },
        {
          "duration": 0.0789472499999988,
          "durationTicks": 96,
          "midi": 37,
          "name": "C#2",
          "ticks": 129792,
          "time": 106.736682,
          "velocity": 0.05511811023622047
        },
        {
          "duration": 0.0789472499999988,
          "durationTicks": 96,
          "midi": 49,
          "name": "C#3",
          "ticks": 129984,
          "time": 106.8945765,
          "velocity": 0.05511811023622047
        },
        {
          "duration": 0.0789472499999988,
          "durationTicks": 96,
          "midi": 37,
          "name": "C#2",
          "ticks": 130176,
          "time": 107.052471,
          "velocity": 0.05511811023622047
        },
        {
          "duration": 0.0789472499999988,
          "durationTicks": 96,
          "midi": 37,
          "name": "C#2",
          "ticks": 130368,
          "time": 107.2103655,
          "velocity": 0.05511811023622047
        },
        {
          "duration": 0.0789472499999988,
          "durationTicks": 96,
          "midi": 37,
          "name": "C#2",
          "ticks": 130560,
          "time": 107.36825999999999,
          "velocity": 0.05511811023622047
        },
        {
          "duration": 0.0789472499999988,
          "durationTicks": 96,
          "midi": 37,
          "name": "C#2",
          "ticks": 130752,
          "time": 107.52615449999999,
          "velocity": 0.05511811023622047
        },
        {
          "duration": 0.0789472499999988,
          "durationTicks": 96,
          "midi": 49,
          "name": "C#3",
          "ticks": 130944,
          "time": 107.684049,
          "velocity": 0.05511811023622047
        },
        {
          "duration": 0.0789472499999988,
          "durationTicks": 96,
          "midi": 37,
          "name": "C#2",
          "ticks": 131136,
          "time": 107.8419435,
          "velocity": 0.05511811023622047
        },
        {
          "duration": 0.0789472499999988,
          "durationTicks": 96,
          "midi": 37,
          "name": "C#2",
          "ticks": 131328,
          "time": 107.999838,
          "velocity": 0.05511811023622047
        },
        {
          "duration": 0.0789472499999988,
          "durationTicks": 96,
          "midi": 49,
          "name": "C#3",
          "ticks": 131520,
          "time": 108.1577325,
          "velocity": 0.05511811023622047
        },
        {
          "duration": 0.0789472499999988,
          "durationTicks": 96,
          "midi": 37,
          "name": "C#2",
          "ticks": 131712,
          "time": 108.31562699999999,
          "velocity": 0.05511811023622047
        },
        {
          "duration": 0.0789472499999988,
          "durationTicks": 96,
          "midi": 37,
          "name": "C#2",
          "ticks": 131904,
          "time": 108.47352149999999,
          "velocity": 0.05511811023622047
        },
        {
          "duration": 0.0789472499999988,
          "durationTicks": 96,
          "midi": 37,
          "name": "C#2",
          "ticks": 132096,
          "time": 108.631416,
          "velocity": 0.05511811023622047
        },
        {
          "duration": 0.0789472499999988,
          "durationTicks": 96,
          "midi": 37,
          "name": "C#2",
          "ticks": 132288,
          "time": 108.7893105,
          "velocity": 0.05511811023622047
        },
        {
          "duration": 0.0789472499999988,
          "durationTicks": 96,
          "midi": 49,
          "name": "C#3",
          "ticks": 132480,
          "time": 108.947205,
          "velocity": 0.05511811023622047
        },
        {
          "duration": 0.0789472499999988,
          "durationTicks": 96,
          "midi": 37,
          "name": "C#2",
          "ticks": 132672,
          "time": 109.1050995,
          "velocity": 0.05511811023622047
        },
        {
          "duration": 0.0789472499999988,
          "durationTicks": 96,
          "midi": 37,
          "name": "C#2",
          "ticks": 132864,
          "time": 109.26299399999999,
          "velocity": 0.05511811023622047
        },
        {
          "duration": 0.0789472499999988,
          "durationTicks": 96,
          "midi": 49,
          "name": "C#3",
          "ticks": 133056,
          "time": 109.42088849999999,
          "velocity": 0.05511811023622047
        },
        {
          "duration": 0.0789472499999988,
          "durationTicks": 96,
          "midi": 37,
          "name": "C#2",
          "ticks": 133248,
          "time": 109.578783,
          "velocity": 0.05511811023622047
        },
        {
          "duration": 0.0789472499999988,
          "durationTicks": 96,
          "midi": 37,
          "name": "C#2",
          "ticks": 133440,
          "time": 109.7366775,
          "velocity": 0.05511811023622047
        },
        {
          "duration": 0.0789472499999988,
          "durationTicks": 96,
          "midi": 36,
          "name": "C2",
          "ticks": 133632,
          "time": 109.894572,
          "velocity": 0.05511811023622047
        },
        {
          "duration": 0.0789472499999988,
          "durationTicks": 96,
          "midi": 36,
          "name": "C2",
          "ticks": 133824,
          "time": 110.0524665,
          "velocity": 0.05511811023622047
        },
        {
          "duration": 0.0789472499999988,
          "durationTicks": 96,
          "midi": 48,
          "name": "C3",
          "ticks": 134016,
          "time": 110.21036099999999,
          "velocity": 0.05511811023622047
        },
        {
          "duration": 0.0789472499999988,
          "durationTicks": 96,
          "midi": 36,
          "name": "C2",
          "ticks": 134208,
          "time": 110.36825549999999,
          "velocity": 0.05511811023622047
        },
        {
          "duration": 0.0789472499999988,
          "durationTicks": 96,
          "midi": 36,
          "name": "C2",
          "ticks": 134400,
          "time": 110.52615,
          "velocity": 0.05511811023622047
        },
        {
          "duration": 0.0789472499999988,
          "durationTicks": 96,
          "midi": 48,
          "name": "C3",
          "ticks": 134592,
          "time": 110.6840445,
          "velocity": 0.05511811023622047
        },
        {
          "duration": 0.0789472499999988,
          "durationTicks": 96,
          "midi": 36,
          "name": "C2",
          "ticks": 134784,
          "time": 110.841939,
          "velocity": 0.05511811023622047
        },
        {
          "duration": 0.0789472499999988,
          "durationTicks": 96,
          "midi": 36,
          "name": "C2",
          "ticks": 134976,
          "time": 110.9998335,
          "velocity": 0.05511811023622047
        }
      ],
      "endOfTrackTicks": 135072
    },
    {
      "channel": 9,
      "controlChanges": {},
      "pitchBends": [],
      "instrument": {
        "family": "drums",
        "number": 0,
        "name": "standard kit"
      },
      "name": "Electric Drum Kit",
      "notes": [
        {
          "duration": 0.0789472499999988,
          "durationTicks": 96,
          "midi": 32,
          "name": "G#1",
          "ticks": 24576,
          "time": 20.210496,
          "velocity": 0.07874015748031496
        },
        {
          "duration": 0.0789472499999988,
          "durationTicks": 96,
          "midi": 35,
          "name": "B1",
          "ticks": 24576,
          "time": 20.210496,
          "velocity": 0.05511811023622047
        },
        {
          "duration": 0.0789472499999988,
          "durationTicks": 96,
          "midi": 42,
          "name": "F#2",
          "ticks": 24576,
          "time": 20.210496,
          "velocity": 0.07874015748031496
        },
        {
          "duration": 0.0789472499999988,
          "durationTicks": 96,
          "midi": 32,
          "name": "G#1",
          "ticks": 24768,
          "time": 20.3683905,
          "velocity": 0.07874015748031496
        },
        {
          "duration": 0.0789472499999988,
          "durationTicks": 96,
          "midi": 42,
          "name": "F#2",
          "ticks": 24768,
          "time": 20.3683905,
          "velocity": 0.07874015748031496
        },
        {
          "duration": 0.07894725000000236,
          "durationTicks": 96,
          "midi": 44,
          "name": "G#2",
          "ticks": 24960,
          "time": 20.526284999999998,
          "velocity": 0.07874015748031496
        },
        {
          "duration": 0.07894725000000236,
          "durationTicks": 96,
          "midi": 42,
          "name": "F#2",
          "ticks": 24960,
          "time": 20.526284999999998,
          "velocity": 0.07874015748031496
        },
        {
          "duration": 0.07894725000000236,
          "durationTicks": 96,
          "midi": 28,
          "name": "E1",
          "ticks": 24960,
          "time": 20.526284999999998,
          "velocity": 0.07874015748031496
        },
        {
          "duration": 0.07894725000000236,
          "durationTicks": 96,
          "midi": 32,
          "name": "G#1",
          "ticks": 24960,
          "time": 20.526284999999998,
          "velocity": 0.07874015748031496
        },
        {
          "duration": 0.07894725000000236,
          "durationTicks": 96,
          "midi": 40,
          "name": "E2",
          "ticks": 24960,
          "time": 20.526284999999998,
          "velocity": 0.07874015748031496
        },
        {
          "duration": 0.0789472499999988,
          "durationTicks": 96,
          "midi": 32,
          "name": "G#1",
          "ticks": 25152,
          "time": 20.6841795,
          "velocity": 0.07874015748031496
        },
        {
          "duration": 0.0789472499999988,
          "durationTicks": 96,
          "midi": 42,
          "name": "F#2",
          "ticks": 25152,
          "time": 20.6841795,
          "velocity": 0.07874015748031496
        },
        {
          "duration": 0.0789472499999988,
          "durationTicks": 96,
          "midi": 32,
          "name": "G#1",
          "ticks": 25344,
          "time": 20.842074,
          "velocity": 0.07874015748031496
        },
        {
          "duration": 0.0789472499999988,
          "durationTicks": 96,
          "midi": 42,
          "name": "F#2",
          "ticks": 25344,
          "time": 20.842074,
          "velocity": 0.07874015748031496
        },
        {
          "duration": 0.07894725000000236,
          "durationTicks": 96,
          "midi": 28,
          "name": "E1",
          "ticks": 25536,
          "time": 20.999968499999998,
          "velocity": 0.07874015748031496
        },
        {
          "duration": 0.07894725000000236,
          "durationTicks": 96,
          "midi": 42,
          "name": "F#2",
          "ticks": 25536,
          "time": 20.999968499999998,
          "velocity": 0.07874015748031496
        },
        {
          "duration": 0.07894725000000236,
          "durationTicks": 96,
          "midi": 40,
          "name": "E2",
          "ticks": 25536,
          "time": 20.999968499999998,
          "velocity": 0.07874015748031496
        },
        {
          "duration": 0.07894725000000236,
          "durationTicks": 96,
          "midi": 32,
          "name": "G#1",
          "ticks": 25536,
          "time": 20.999968499999998,
          "velocity": 0.07874015748031496
        },
        {
          "duration": 0.07894725000000236,
          "durationTicks": 96,
          "midi": 44,
          "name": "G#2",
          "ticks": 25536,
          "time": 20.999968499999998,
          "velocity": 0.07874015748031496
        },
        {
          "duration": 0.0789472499999988,
          "durationTicks": 96,
          "midi": 42,
          "name": "F#2",
          "ticks": 25728,
          "time": 21.157863,
          "velocity": 0.07874015748031496
        },
        {
          "duration": 0.0789472499999988,
          "durationTicks": 96,
          "midi": 32,
          "name": "G#1",
          "ticks": 25728,
          "time": 21.157863,
          "velocity": 0.07874015748031496
        },
        {
          "duration": 0.0789472499999988,
          "durationTicks": 96,
          "midi": 40,
          "name": "E2",
          "ticks": 25920,
          "time": 21.3157575,
          "velocity": 0.07874015748031496
        },
        {
          "duration": 0.0789472499999988,
          "durationTicks": 96,
          "midi": 32,
          "name": "G#1",
          "ticks": 25920,
          "time": 21.3157575,
          "velocity": 0.07874015748031496
        },
        {
          "duration": 0.0789472499999988,
          "durationTicks": 96,
          "midi": 44,
          "name": "G#2",
          "ticks": 25920,
          "time": 21.3157575,
          "velocity": 0.07874015748031496
        },
        {
          "duration": 0.0789472499999988,
          "durationTicks": 96,
          "midi": 42,
          "name": "F#2",
          "ticks": 25920,
          "time": 21.3157575,
          "velocity": 0.07874015748031496
        },
        {
          "duration": 0.0789472499999988,
          "durationTicks": 96,
          "midi": 28,
          "name": "E1",
          "ticks": 25920,
          "time": 21.3157575,
          "velocity": 0.07874015748031496
        },
        {
          "duration": 0.0789472499999988,
          "durationTicks": 96,
          "midi": 42,
          "name": "F#2",
          "ticks": 26016,
          "time": 21.39470475,
          "velocity": 0.07874015748031496
        },
        {
          "duration": 0.07894725000000236,
          "durationTicks": 96,
          "midi": 42,
          "name": "F#2",
          "ticks": 26112,
          "time": 21.473651999999998,
          "velocity": 0.07874015748031496
        },
        {
          "duration": 0.07894725000000236,
          "durationTicks": 96,
          "midi": 35,
          "name": "B1",
          "ticks": 26112,
          "time": 21.473651999999998,
          "velocity": 0.05511811023622047
        },
        {
          "duration": 0.07894725000000236,
          "durationTicks": 96,
          "midi": 32,
          "name": "G#1",
          "ticks": 26112,
          "time": 21.473651999999998,
          "velocity": 0.07874015748031496
        },
        {
          "duration": 0.0789472499999988,
          "durationTicks": 96,
          "midi": 42,
          "name": "F#2",
          "ticks": 26304,
          "time": 21.6315465,
          "velocity": 0.07874015748031496
        },
        {
          "duration": 0.0789472499999988,
          "durationTicks": 96,
          "midi": 32,
          "name": "G#1",
          "ticks": 26304,
          "time": 21.6315465,
          "velocity": 0.07874015748031496
        },
        {
          "duration": 0.0789472499999988,
          "durationTicks": 96,
          "midi": 40,
          "name": "E2",
          "ticks": 26496,
          "time": 21.789441,
          "velocity": 0.07874015748031496
        },
        {
          "duration": 0.0789472499999988,
          "durationTicks": 96,
          "midi": 44,
          "name": "G#2",
          "ticks": 26496,
          "time": 21.789441,
          "velocity": 0.07874015748031496
        },
        {
          "duration": 0.0789472499999988,
          "durationTicks": 96,
          "midi": 28,
          "name": "E1",
          "ticks": 26496,
          "time": 21.789441,
          "velocity": 0.07874015748031496
        },
        {
          "duration": 0.0789472499999988,
          "durationTicks": 96,
          "midi": 32,
          "name": "G#1",
          "ticks": 26496,
          "time": 21.789441,
          "velocity": 0.07874015748031496
        },
        {
          "duration": 0.0789472499999988,
          "durationTicks": 96,
          "midi": 42,
          "name": "F#2",
          "ticks": 26496,
          "time": 21.789441,
          "velocity": 0.07874015748031496
        },
        {
          "duration": 0.07894725000000236,
          "durationTicks": 96,
          "midi": 42,
          "name": "F#2",
          "ticks": 26688,
          "time": 21.947335499999998,
          "velocity": 0.07874015748031496
        },
        {
          "duration": 0.07894725000000236,
          "durationTicks": 96,
          "midi": 32,
          "name": "G#1",
          "ticks": 26688,
          "time": 21.947335499999998,
          "velocity": 0.07874015748031496
        },
        {
          "duration": 0.0789472499999988,
          "durationTicks": 96,
          "midi": 32,
          "name": "G#1",
          "ticks": 26880,
          "time": 22.10523,
          "velocity": 0.07874015748031496
        },
        {
          "duration": 0.0789472499999988,
          "durationTicks": 96,
          "midi": 42,
          "name": "F#2",
          "ticks": 26880,
          "time": 22.10523,
          "velocity": 0.07874015748031496
        },
        {
          "duration": 0.0789472499999988,
          "durationTicks": 96,
          "midi": 40,
          "name": "E2",
          "ticks": 27072,
          "time": 22.2631245,
          "velocity": 0.07874015748031496
        },
        {
          "duration": 0.0789472499999988,
          "durationTicks": 96,
          "midi": 44,
          "name": "G#2",
          "ticks": 27072,
          "time": 22.2631245,
          "velocity": 0.07874015748031496
        },
        {
          "duration": 0.0789472499999988,
          "durationTicks": 96,
          "midi": 32,
          "name": "G#1",
          "ticks": 27072,
          "time": 22.2631245,
          "velocity": 0.07874015748031496
        },
        {
          "duration": 0.0789472499999988,
          "durationTicks": 96,
          "midi": 42,
          "name": "F#2",
          "ticks": 27072,
          "time": 22.2631245,
          "velocity": 0.07874015748031496
        },
        {
          "duration": 0.0789472499999988,
          "durationTicks": 96,
          "midi": 28,
          "name": "E1",
          "ticks": 27072,
          "time": 22.2631245,
          "velocity": 0.07874015748031496
        },
        {
          "duration": 0.07894725000000236,
          "durationTicks": 96,
          "midi": 42,
          "name": "F#2",
          "ticks": 27264,
          "time": 22.421018999999998,
          "velocity": 0.07874015748031496
        },
        {
          "duration": 0.07894725000000236,
          "durationTicks": 96,
          "midi": 32,
          "name": "G#1",
          "ticks": 27264,
          "time": 22.421018999999998,
          "velocity": 0.07874015748031496
        },
        {
          "duration": 0.0789472499999988,
          "durationTicks": 96,
          "midi": 42,
          "name": "F#2",
          "ticks": 27456,
          "time": 22.5789135,
          "velocity": 0.07874015748031496
        },
        {
          "duration": 0.0789472499999988,
          "durationTicks": 96,
          "midi": 44,
          "name": "G#2",
          "ticks": 27456,
          "time": 22.5789135,
          "velocity": 0.07874015748031496
        },
        {
          "duration": 0.0789472499999988,
          "durationTicks": 96,
          "midi": 32,
          "name": "G#1",
          "ticks": 27456,
          "time": 22.5789135,
          "velocity": 0.07874015748031496
        },
        {
          "duration": 0.0789472499999988,
          "durationTicks": 96,
          "midi": 28,
          "name": "E1",
          "ticks": 27456,
          "time": 22.5789135,
          "velocity": 0.07874015748031496
        },
        {
          "duration": 0.0789472499999988,
          "durationTicks": 96,
          "midi": 40,
          "name": "E2",
          "ticks": 27456,
          "time": 22.5789135,
          "velocity": 0.07874015748031496
        },
        {
          "duration": 0.07894725000000236,
          "durationTicks": 96,
          "midi": 42,
          "name": "F#2",
          "ticks": 27552,
          "time": 22.657860749999998,
          "velocity": 0.07874015748031496
        },
        {
          "duration": 0.0789472499999988,
          "durationTicks": 96,
          "midi": 35,
          "name": "B1",
          "ticks": 27648,
          "time": 22.736808,
          "velocity": 0.05511811023622047
        },
        {
          "duration": 0.0789472499999988,
          "durationTicks": 96,
          "midi": 42,
          "name": "F#2",
          "ticks": 27648,
          "time": 22.736808,
          "velocity": 0.07874015748031496
        },
        {
          "duration": 0.0789472499999988,
          "durationTicks": 96,
          "midi": 32,
          "name": "G#1",
          "ticks": 27648,
          "time": 22.736808,
          "velocity": 0.07874015748031496
        },
        {
          "duration": 0.07894725000000236,
          "durationTicks": 96,
          "midi": 42,
          "name": "F#2",
          "ticks": 27840,
          "time": 22.894702499999998,
          "velocity": 0.07874015748031496
        },
        {
          "duration": 0.07894725000000236,
          "durationTicks": 96,
          "midi": 32,
          "name": "G#1",
          "ticks": 27840,
          "time": 22.894702499999998,
          "velocity": 0.07874015748031496
        },
        {
          "duration": 0.0789472499999988,
          "durationTicks": 96,
          "midi": 42,
          "name": "F#2",
          "ticks": 28032,
          "time": 23.052597,
          "velocity": 0.07874015748031496
        },
        {
          "duration": 0.0789472499999988,
          "durationTicks": 96,
          "midi": 40,
          "name": "E2",
          "ticks": 28032,
          "time": 23.052597,
          "velocity": 0.07874015748031496
        },
        {
          "duration": 0.0789472499999988,
          "durationTicks": 96,
          "midi": 44,
          "name": "G#2",
          "ticks": 28032,
          "time": 23.052597,
          "velocity": 0.07874015748031496
        },
        {
          "duration": 0.0789472499999988,
          "durationTicks": 96,
          "midi": 32,
          "name": "G#1",
          "ticks": 28032,
          "time": 23.052597,
          "velocity": 0.07874015748031496
        },
        {
          "duration": 0.0789472499999988,
          "durationTicks": 96,
          "midi": 28,
          "name": "E1",
          "ticks": 28032,
          "time": 23.052597,
          "velocity": 0.07874015748031496
        },
        {
          "duration": 0.0789472499999988,
          "durationTicks": 96,
          "midi": 32,
          "name": "G#1",
          "ticks": 28224,
          "time": 23.2104915,
          "velocity": 0.07874015748031496
        },
        {
          "duration": 0.0789472499999988,
          "durationTicks": 96,
          "midi": 42,
          "name": "F#2",
          "ticks": 28224,
          "time": 23.2104915,
          "velocity": 0.07874015748031496
        },
        {
          "duration": 0.07894725000000236,
          "durationTicks": 96,
          "midi": 32,
          "name": "G#1",
          "ticks": 28416,
          "time": 23.368385999999997,
          "velocity": 0.07874015748031496
        },
        {
          "duration": 0.07894725000000236,
          "durationTicks": 96,
          "midi": 42,
          "name": "F#2",
          "ticks": 28416,
          "time": 23.368385999999997,
          "velocity": 0.07874015748031496
        },
        {
          "duration": 0.0789472499999988,
          "durationTicks": 96,
          "midi": 40,
          "name": "E2",
          "ticks": 28608,
          "time": 23.5262805,
          "velocity": 0.07874015748031496
        },
        {
          "duration": 0.0789472499999988,
          "durationTicks": 96,
          "midi": 32,
          "name": "G#1",
          "ticks": 28608,
          "time": 23.5262805,
          "velocity": 0.07874015748031496
        },
        {
          "duration": 0.0789472499999988,
          "durationTicks": 96,
          "midi": 42,
          "name": "F#2",
          "ticks": 28608,
          "time": 23.5262805,
          "velocity": 0.07874015748031496
        },
        {
          "duration": 0.0789472499999988,
          "durationTicks": 96,
          "midi": 44,
          "name": "G#2",
          "ticks": 28608,
          "time": 23.5262805,
          "velocity": 0.07874015748031496
        },
        {
          "duration": 0.0789472499999988,
          "durationTicks": 96,
          "midi": 28,
          "name": "E1",
          "ticks": 28608,
          "time": 23.5262805,
          "velocity": 0.07874015748031496
        },
        {
          "duration": 0.0789472499999988,
          "durationTicks": 96,
          "midi": 42,
          "name": "F#2",
          "ticks": 28800,
          "time": 23.684175,
          "velocity": 0.07874015748031496
        },
        {
          "duration": 0.0789472499999988,
          "durationTicks": 96,
          "midi": 32,
          "name": "G#1",
          "ticks": 28800,
          "time": 23.684175,
          "velocity": 0.07874015748031496
        },
        {
          "duration": 0.07894725000000236,
          "durationTicks": 96,
          "midi": 42,
          "name": "F#2",
          "ticks": 28992,
          "time": 23.842069499999997,
          "velocity": 0.07874015748031496
        },
        {
          "duration": 0.07894725000000236,
          "durationTicks": 96,
          "midi": 44,
          "name": "G#2",
          "ticks": 28992,
          "time": 23.842069499999997,
          "velocity": 0.07874015748031496
        },
        {
          "duration": 0.07894725000000236,
          "durationTicks": 96,
          "midi": 32,
          "name": "G#1",
          "ticks": 28992,
          "time": 23.842069499999997,
          "velocity": 0.07874015748031496
        },
        {
          "duration": 0.07894725000000236,
          "durationTicks": 96,
          "midi": 40,
          "name": "E2",
          "ticks": 28992,
          "time": 23.842069499999997,
          "velocity": 0.07874015748031496
        },
        {
          "duration": 0.07894725000000236,
          "durationTicks": 96,
          "midi": 28,
          "name": "E1",
          "ticks": 28992,
          "time": 23.842069499999997,
          "velocity": 0.07874015748031496
        },
        {
          "duration": 0.0789472499999988,
          "durationTicks": 96,
          "midi": 42,
          "name": "F#2",
          "ticks": 29088,
          "time": 23.92101675,
          "velocity": 0.07874015748031496
        },
        {
          "duration": 0.0789472499999988,
          "durationTicks": 96,
          "midi": 35,
          "name": "B1",
          "ticks": 29184,
          "time": 23.999964,
          "velocity": 0.05511811023622047
        },
        {
          "duration": 0.0789472499999988,
          "durationTicks": 96,
          "midi": 32,
          "name": "G#1",
          "ticks": 29184,
          "time": 23.999964,
          "velocity": 0.07874015748031496
        },
        {
          "duration": 0.0789472499999988,
          "durationTicks": 96,
          "midi": 42,
          "name": "F#2",
          "ticks": 29184,
          "time": 23.999964,
          "velocity": 0.07874015748031496
        },
        {
          "duration": 0.0789472499999988,
          "durationTicks": 96,
          "midi": 42,
          "name": "F#2",
          "ticks": 29376,
          "time": 24.1578585,
          "velocity": 0.07874015748031496
        },
        {
          "duration": 0.0789472499999988,
          "durationTicks": 96,
          "midi": 32,
          "name": "G#1",
          "ticks": 29376,
          "time": 24.1578585,
          "velocity": 0.07874015748031496
        },
        {
          "duration": 0.07894725000000236,
          "durationTicks": 96,
          "midi": 44,
          "name": "G#2",
          "ticks": 29568,
          "time": 24.315752999999997,
          "velocity": 0.07874015748031496
        },
        {
          "duration": 0.07894725000000236,
          "durationTicks": 96,
          "midi": 28,
          "name": "E1",
          "ticks": 29568,
          "time": 24.315752999999997,
          "velocity": 0.07874015748031496
        },
        {
          "duration": 0.07894725000000236,
          "durationTicks": 96,
          "midi": 32,
          "name": "G#1",
          "ticks": 29568,
          "time": 24.315752999999997,
          "velocity": 0.07874015748031496
        },
        {
          "duration": 0.07894725000000236,
          "durationTicks": 96,
          "midi": 42,
          "name": "F#2",
          "ticks": 29568,
          "time": 24.315752999999997,
          "velocity": 0.07874015748031496
        },
        {
          "duration": 0.07894725000000236,
          "durationTicks": 96,
          "midi": 40,
          "name": "E2",
          "ticks": 29568,
          "time": 24.315752999999997,
          "velocity": 0.07874015748031496
        },
        {
          "duration": 0.0789472499999988,
          "durationTicks": 96,
          "midi": 42,
          "name": "F#2",
          "ticks": 29760,
          "time": 24.4736475,
          "velocity": 0.07874015748031496
        },
        {
          "duration": 0.0789472499999988,
          "durationTicks": 96,
          "midi": 32,
          "name": "G#1",
          "ticks": 29760,
          "time": 24.4736475,
          "velocity": 0.07874015748031496
        },
        {
          "duration": 0.0789472499999988,
          "durationTicks": 96,
          "midi": 42,
          "name": "F#2",
          "ticks": 29952,
          "time": 24.631542,
          "velocity": 0.07874015748031496
        },
        {
          "duration": 0.0789472499999988,
          "durationTicks": 96,
          "midi": 32,
          "name": "G#1",
          "ticks": 29952,
          "time": 24.631542,
          "velocity": 0.07874015748031496
        },
        {
          "duration": 0.07894725000000236,
          "durationTicks": 96,
          "midi": 32,
          "name": "G#1",
          "ticks": 30144,
          "time": 24.789436499999997,
          "velocity": 0.07874015748031496
        },
        {
          "duration": 0.07894725000000236,
          "durationTicks": 96,
          "midi": 42,
          "name": "F#2",
          "ticks": 30144,
          "time": 24.789436499999997,
          "velocity": 0.07874015748031496
        },
        {
          "duration": 0.07894725000000236,
          "durationTicks": 96,
          "midi": 28,
          "name": "E1",
          "ticks": 30144,
          "time": 24.789436499999997,
          "velocity": 0.07874015748031496
        },
        {
          "duration": 0.07894725000000236,
          "durationTicks": 96,
          "midi": 44,
          "name": "G#2",
          "ticks": 30144,
          "time": 24.789436499999997,
          "velocity": 0.07874015748031496
        },
        {
          "duration": 0.07894725000000236,
          "durationTicks": 96,
          "midi": 40,
          "name": "E2",
          "ticks": 30144,
          "time": 24.789436499999997,
          "velocity": 0.07874015748031496
        },
        {
          "duration": 0.0789472499999988,
          "durationTicks": 96,
          "midi": 32,
          "name": "G#1",
          "ticks": 30336,
          "time": 24.947331,
          "velocity": 0.07874015748031496
        },
        {
          "duration": 0.0789472499999988,
          "durationTicks": 96,
          "midi": 42,
          "name": "F#2",
          "ticks": 30336,
          "time": 24.947331,
          "velocity": 0.07874015748031496
        },
        {
          "duration": 0.0789472499999988,
          "durationTicks": 96,
          "midi": 44,
          "name": "G#2",
          "ticks": 30528,
          "time": 25.1052255,
          "velocity": 0.07874015748031496
        },
        {
          "duration": 0.0789472499999988,
          "durationTicks": 96,
          "midi": 42,
          "name": "F#2",
          "ticks": 30528,
          "time": 25.1052255,
          "velocity": 0.07874015748031496
        },
        {
          "duration": 0.0789472499999988,
          "durationTicks": 96,
          "midi": 32,
          "name": "G#1",
          "ticks": 30528,
          "time": 25.1052255,
          "velocity": 0.07874015748031496
        },
        {
          "duration": 0.0789472499999988,
          "durationTicks": 96,
          "midi": 40,
          "name": "E2",
          "ticks": 30528,
          "time": 25.1052255,
          "velocity": 0.07874015748031496
        },
        {
          "duration": 0.0789472499999988,
          "durationTicks": 96,
          "midi": 28,
          "name": "E1",
          "ticks": 30528,
          "time": 25.1052255,
          "velocity": 0.07874015748031496
        },
        {
          "duration": 0.07894725000000236,
          "durationTicks": 96,
          "midi": 42,
          "name": "F#2",
          "ticks": 30624,
          "time": 25.18417275,
          "velocity": 0.07874015748031496
        },
        {
          "duration": 0.0789472499999988,
          "durationTicks": 96,
          "midi": 42,
          "name": "F#2",
          "ticks": 30720,
          "time": 25.26312,
          "velocity": 0.07874015748031496
        },
        {
          "duration": 0.0789472499999988,
          "durationTicks": 96,
          "midi": 35,
          "name": "B1",
          "ticks": 30720,
          "time": 25.26312,
          "velocity": 0.05511811023622047
        },
        {
          "duration": 0.0789472499999988,
          "durationTicks": 96,
          "midi": 32,
          "name": "G#1",
          "ticks": 30720,
          "time": 25.26312,
          "velocity": 0.07874015748031496
        },
        {
          "duration": 0.07894725000000236,
          "durationTicks": 96,
          "midi": 42,
          "name": "F#2",
          "ticks": 30912,
          "time": 25.4210145,
          "velocity": 0.07874015748031496
        },
        {
          "duration": 0.07894725000000236,
          "durationTicks": 96,
          "midi": 32,
          "name": "G#1",
          "ticks": 30912,
          "time": 25.4210145,
          "velocity": 0.07874015748031496
        },
        {
          "duration": 0.0789472499999988,
          "durationTicks": 96,
          "midi": 40,
          "name": "E2",
          "ticks": 31104,
          "time": 25.578909,
          "velocity": 0.07874015748031496
        },
        {
          "duration": 0.0789472499999988,
          "durationTicks": 96,
          "midi": 32,
          "name": "G#1",
          "ticks": 31104,
          "time": 25.578909,
          "velocity": 0.07874015748031496
        },
        {
          "duration": 0.0789472499999988,
          "durationTicks": 96,
          "midi": 44,
          "name": "G#2",
          "ticks": 31104,
          "time": 25.578909,
          "velocity": 0.07874015748031496
        },
        {
          "duration": 0.0789472499999988,
          "durationTicks": 96,
          "midi": 42,
          "name": "F#2",
          "ticks": 31104,
          "time": 25.578909,
          "velocity": 0.07874015748031496
        },
        {
          "duration": 0.0789472499999988,
          "durationTicks": 96,
          "midi": 28,
          "name": "E1",
          "ticks": 31104,
          "time": 25.578909,
          "velocity": 0.07874015748031496
        },
        {
          "duration": 0.0789472499999988,
          "durationTicks": 96,
          "midi": 42,
          "name": "F#2",
          "ticks": 31296,
          "time": 25.7368035,
          "velocity": 0.07874015748031496
        },
        {
          "duration": 0.0789472499999988,
          "durationTicks": 96,
          "midi": 32,
          "name": "G#1",
          "ticks": 31296,
          "time": 25.7368035,
          "velocity": 0.07874015748031496
        },
        {
          "duration": 0.07894725000000236,
          "durationTicks": 96,
          "midi": 42,
          "name": "F#2",
          "ticks": 31488,
          "time": 25.894697999999998,
          "velocity": 0.07874015748031496
        },
        {
          "duration": 0.07894725000000236,
          "durationTicks": 96,
          "midi": 32,
          "name": "G#1",
          "ticks": 31488,
          "time": 25.894697999999998,
          "velocity": 0.07874015748031496
        },
        {
          "duration": 0.0789472499999988,
          "durationTicks": 96,
          "midi": 32,
          "name": "G#1",
          "ticks": 31680,
          "time": 26.0525925,
          "velocity": 0.07874015748031496
        },
        {
          "duration": 0.0789472499999988,
          "durationTicks": 96,
          "midi": 28,
          "name": "E1",
          "ticks": 31680,
          "time": 26.0525925,
          "velocity": 0.07874015748031496
        },
        {
          "duration": 0.0789472499999988,
          "durationTicks": 96,
          "midi": 42,
          "name": "F#2",
          "ticks": 31680,
          "time": 26.0525925,
          "velocity": 0.07874015748031496
        },
        {
          "duration": 0.0789472499999988,
          "durationTicks": 96,
          "midi": 44,
          "name": "G#2",
          "ticks": 31680,
          "time": 26.0525925,
          "velocity": 0.07874015748031496
        },
        {
          "duration": 0.0789472499999988,
          "durationTicks": 96,
          "midi": 40,
          "name": "E2",
          "ticks": 31680,
          "time": 26.0525925,
          "velocity": 0.07874015748031496
        },
        {
          "duration": 0.0789472499999988,
          "durationTicks": 96,
          "midi": 32,
          "name": "G#1",
          "ticks": 31872,
          "time": 26.210487,
          "velocity": 0.07874015748031496
        },
        {
          "duration": 0.0789472499999988,
          "durationTicks": 96,
          "midi": 42,
          "name": "F#2",
          "ticks": 31872,
          "time": 26.210487,
          "velocity": 0.07874015748031496
        },
        {
          "duration": 0.07894725000000236,
          "durationTicks": 96,
          "midi": 40,
          "name": "E2",
          "ticks": 32064,
          "time": 26.368381499999998,
          "velocity": 0.07874015748031496
        },
        {
          "duration": 0.07894725000000236,
          "durationTicks": 96,
          "midi": 32,
          "name": "G#1",
          "ticks": 32064,
          "time": 26.368381499999998,
          "velocity": 0.07874015748031496
        },
        {
          "duration": 0.07894725000000236,
          "durationTicks": 96,
          "midi": 42,
          "name": "F#2",
          "ticks": 32064,
          "time": 26.368381499999998,
          "velocity": 0.07874015748031496
        },
        {
          "duration": 0.07894725000000236,
          "durationTicks": 96,
          "midi": 44,
          "name": "G#2",
          "ticks": 32064,
          "time": 26.368381499999998,
          "velocity": 0.07874015748031496
        },
        {
          "duration": 0.07894725000000236,
          "durationTicks": 96,
          "midi": 28,
          "name": "E1",
          "ticks": 32064,
          "time": 26.368381499999998,
          "velocity": 0.07874015748031496
        },
        {
          "duration": 0.0789472499999988,
          "durationTicks": 96,
          "midi": 42,
          "name": "F#2",
          "ticks": 32160,
          "time": 26.44732875,
          "velocity": 0.07874015748031496
        },
        {
          "duration": 0.0789472499999988,
          "durationTicks": 96,
          "midi": 35,
          "name": "B1",
          "ticks": 32256,
          "time": 26.526276,
          "velocity": 0.05511811023622047
        },
        {
          "duration": 0.0789472499999988,
          "durationTicks": 96,
          "midi": 42,
          "name": "F#2",
          "ticks": 32256,
          "time": 26.526276,
          "velocity": 0.07874015748031496
        },
        {
          "duration": 0.0789472499999988,
          "durationTicks": 96,
          "midi": 32,
          "name": "G#1",
          "ticks": 32256,
          "time": 26.526276,
          "velocity": 0.07874015748031496
        },
        {
          "duration": 0.0789472499999988,
          "durationTicks": 96,
          "midi": 32,
          "name": "G#1",
          "ticks": 32448,
          "time": 26.6841705,
          "velocity": 0.07874015748031496
        },
        {
          "duration": 0.0789472499999988,
          "durationTicks": 96,
          "midi": 42,
          "name": "F#2",
          "ticks": 32448,
          "time": 26.6841705,
          "velocity": 0.07874015748031496
        },
        {
          "duration": 0.07894725000000236,
          "durationTicks": 96,
          "midi": 28,
          "name": "E1",
          "ticks": 32640,
          "time": 26.842064999999998,
          "velocity": 0.07874015748031496
        },
        {
          "duration": 0.07894725000000236,
          "durationTicks": 96,
          "midi": 32,
          "name": "G#1",
          "ticks": 32640,
          "time": 26.842064999999998,
          "velocity": 0.07874015748031496
        },
        {
          "duration": 0.07894725000000236,
          "durationTicks": 96,
          "midi": 40,
          "name": "E2",
          "ticks": 32640,
          "time": 26.842064999999998,
          "velocity": 0.07874015748031496
        },
        {
          "duration": 0.07894725000000236,
          "durationTicks": 96,
          "midi": 44,
          "name": "G#2",
          "ticks": 32640,
          "time": 26.842064999999998,
          "velocity": 0.07874015748031496
        },
        {
          "duration": 0.07894725000000236,
          "durationTicks": 96,
          "midi": 42,
          "name": "F#2",
          "ticks": 32640,
          "time": 26.842064999999998,
          "velocity": 0.07874015748031496
        },
        {
          "duration": 0.0789472499999988,
          "durationTicks": 96,
          "midi": 42,
          "name": "F#2",
          "ticks": 32832,
          "time": 26.9999595,
          "velocity": 0.07874015748031496
        },
        {
          "duration": 0.0789472499999988,
          "durationTicks": 96,
          "midi": 32,
          "name": "G#1",
          "ticks": 32832,
          "time": 26.9999595,
          "velocity": 0.07874015748031496
        },
        {
          "duration": 0.0789472499999988,
          "durationTicks": 96,
          "midi": 32,
          "name": "G#1",
          "ticks": 33024,
          "time": 27.157854,
          "velocity": 0.07874015748031496
        },
        {
          "duration": 0.0789472499999988,
          "durationTicks": 96,
          "midi": 42,
          "name": "F#2",
          "ticks": 33024,
          "time": 27.157854,
          "velocity": 0.07874015748031496
        },
        {
          "duration": 0.07894725000000236,
          "durationTicks": 96,
          "midi": 44,
          "name": "G#2",
          "ticks": 33216,
          "time": 27.315748499999998,
          "velocity": 0.07874015748031496
        },
        {
          "duration": 0.07894725000000236,
          "durationTicks": 96,
          "midi": 42,
          "name": "F#2",
          "ticks": 33216,
          "time": 27.315748499999998,
          "velocity": 0.07874015748031496
        },
        {
          "duration": 0.07894725000000236,
          "durationTicks": 96,
          "midi": 28,
          "name": "E1",
          "ticks": 33216,
          "time": 27.315748499999998,
          "velocity": 0.07874015748031496
        },
        {
          "duration": 0.07894725000000236,
          "durationTicks": 96,
          "midi": 32,
          "name": "G#1",
          "ticks": 33216,
          "time": 27.315748499999998,
          "velocity": 0.07874015748031496
        },
        {
          "duration": 0.07894725000000236,
          "durationTicks": 96,
          "midi": 40,
          "name": "E2",
          "ticks": 33216,
          "time": 27.315748499999998,
          "velocity": 0.07874015748031496
        },
        {
          "duration": 0.0789472499999988,
          "durationTicks": 96,
          "midi": 42,
          "name": "F#2",
          "ticks": 33408,
          "time": 27.473643,
          "velocity": 0.07874015748031496
        },
        {
          "duration": 0.0789472499999988,
          "durationTicks": 96,
          "midi": 32,
          "name": "G#1",
          "ticks": 33408,
          "time": 27.473643,
          "velocity": 0.07874015748031496
        },
        {
          "duration": 0.0789472499999988,
          "durationTicks": 96,
          "midi": 28,
          "name": "E1",
          "ticks": 33600,
          "time": 27.6315375,
          "velocity": 0.07874015748031496
        },
        {
          "duration": 0.0789472499999988,
          "durationTicks": 96,
          "midi": 44,
          "name": "G#2",
          "ticks": 33600,
          "time": 27.6315375,
          "velocity": 0.07874015748031496
        },
        {
          "duration": 0.0789472499999988,
          "durationTicks": 96,
          "midi": 32,
          "name": "G#1",
          "ticks": 33600,
          "time": 27.6315375,
          "velocity": 0.07874015748031496
        },
        {
          "duration": 0.0789472499999988,
          "durationTicks": 96,
          "midi": 42,
          "name": "F#2",
          "ticks": 33600,
          "time": 27.6315375,
          "velocity": 0.07874015748031496
        },
        {
          "duration": 0.0789472499999988,
          "durationTicks": 96,
          "midi": 40,
          "name": "E2",
          "ticks": 33600,
          "time": 27.6315375,
          "velocity": 0.07874015748031496
        },
        {
          "duration": 0.0789472499999988,
          "durationTicks": 96,
          "midi": 42,
          "name": "F#2",
          "ticks": 33696,
          "time": 27.71048475,
          "velocity": 0.07874015748031496
        },
        {
          "duration": 0.07894725000000236,
          "durationTicks": 96,
          "midi": 42,
          "name": "F#2",
          "ticks": 33792,
          "time": 27.789431999999998,
          "velocity": 0.07874015748031496
        },
        {
          "duration": 0.07894725000000236,
          "durationTicks": 96,
          "midi": 32,
          "name": "G#1",
          "ticks": 33792,
          "time": 27.789431999999998,
          "velocity": 0.07874015748031496
        },
        {
          "duration": 0.07894725000000236,
          "durationTicks": 96,
          "midi": 35,
          "name": "B1",
          "ticks": 33792,
          "time": 27.789431999999998,
          "velocity": 0.05511811023622047
        },
        {
          "duration": 0.0789472499999988,
          "durationTicks": 96,
          "midi": 42,
          "name": "F#2",
          "ticks": 33984,
          "time": 27.9473265,
          "velocity": 0.07874015748031496
        },
        {
          "duration": 0.0789472499999988,
          "durationTicks": 96,
          "midi": 32,
          "name": "G#1",
          "ticks": 33984,
          "time": 27.9473265,
          "velocity": 0.07874015748031496
        },
        {
          "duration": 0.0789472499999988,
          "durationTicks": 96,
          "midi": 28,
          "name": "E1",
          "ticks": 34176,
          "time": 28.105221,
          "velocity": 0.07874015748031496
        },
        {
          "duration": 0.0789472499999988,
          "durationTicks": 96,
          "midi": 32,
          "name": "G#1",
          "ticks": 34176,
          "time": 28.105221,
          "velocity": 0.07874015748031496
        },
        {
          "duration": 0.0789472499999988,
          "durationTicks": 96,
          "midi": 40,
          "name": "E2",
          "ticks": 34176,
          "time": 28.105221,
          "velocity": 0.07874015748031496
        },
        {
          "duration": 0.0789472499999988,
          "durationTicks": 96,
          "midi": 44,
          "name": "G#2",
          "ticks": 34176,
          "time": 28.105221,
          "velocity": 0.07874015748031496
        },
        {
          "duration": 0.0789472499999988,
          "durationTicks": 96,
          "midi": 42,
          "name": "F#2",
          "ticks": 34176,
          "time": 28.105221,
          "velocity": 0.07874015748031496
        },
        {
          "duration": 0.07894725000000236,
          "durationTicks": 96,
          "midi": 32,
          "name": "G#1",
          "ticks": 34368,
          "time": 28.263115499999998,
          "velocity": 0.07874015748031496
        },
        {
          "duration": 0.07894725000000236,
          "durationTicks": 96,
          "midi": 42,
          "name": "F#2",
          "ticks": 34368,
          "time": 28.263115499999998,
          "velocity": 0.07874015748031496
        },
        {
          "duration": 0.0789472499999988,
          "durationTicks": 96,
          "midi": 42,
          "name": "F#2",
          "ticks": 34560,
          "time": 28.42101,
          "velocity": 0.07874015748031496
        },
        {
          "duration": 0.0789472499999988,
          "durationTicks": 96,
          "midi": 32,
          "name": "G#1",
          "ticks": 34560,
          "time": 28.42101,
          "velocity": 0.07874015748031496
        },
        {
          "duration": 0.0789472499999988,
          "durationTicks": 96,
          "midi": 40,
          "name": "E2",
          "ticks": 34752,
          "time": 28.5789045,
          "velocity": 0.07874015748031496
        },
        {
          "duration": 0.0789472499999988,
          "durationTicks": 96,
          "midi": 32,
          "name": "G#1",
          "ticks": 34752,
          "time": 28.5789045,
          "velocity": 0.07874015748031496
        },
        {
          "duration": 0.0789472499999988,
          "durationTicks": 96,
          "midi": 28,
          "name": "E1",
          "ticks": 34752,
          "time": 28.5789045,
          "velocity": 0.07874015748031496
        },
        {
          "duration": 0.0789472499999988,
          "durationTicks": 96,
          "midi": 44,
          "name": "G#2",
          "ticks": 34752,
          "time": 28.5789045,
          "velocity": 0.07874015748031496
        },
        {
          "duration": 0.0789472499999988,
          "durationTicks": 96,
          "midi": 42,
          "name": "F#2",
          "ticks": 34752,
          "time": 28.5789045,
          "velocity": 0.07874015748031496
        },
        {
          "duration": 0.07894725000000236,
          "durationTicks": 96,
          "midi": 32,
          "name": "G#1",
          "ticks": 34944,
          "time": 28.736798999999998,
          "velocity": 0.07874015748031496
        },
        {
          "duration": 0.07894725000000236,
          "durationTicks": 96,
          "midi": 42,
          "name": "F#2",
          "ticks": 34944,
          "time": 28.736798999999998,
          "velocity": 0.07874015748031496
        },
        {
          "duration": 0.0789472499999988,
          "durationTicks": 96,
          "midi": 40,
          "name": "E2",
          "ticks": 35136,
          "time": 28.8946935,
          "velocity": 0.07874015748031496
        },
        {
          "duration": 0.0789472499999988,
          "durationTicks": 96,
          "midi": 32,
          "name": "G#1",
          "ticks": 35136,
          "time": 28.8946935,
          "velocity": 0.07874015748031496
        },
        {
          "duration": 0.0789472499999988,
          "durationTicks": 96,
          "midi": 28,
          "name": "E1",
          "ticks": 35136,
          "time": 28.8946935,
          "velocity": 0.07874015748031496
        },
        {
          "duration": 0.0789472499999988,
          "durationTicks": 96,
          "midi": 44,
          "name": "G#2",
          "ticks": 35136,
          "time": 28.8946935,
          "velocity": 0.07874015748031496
        },
        {
          "duration": 0.0789472499999988,
          "durationTicks": 96,
          "midi": 42,
          "name": "F#2",
          "ticks": 35136,
          "time": 28.8946935,
          "velocity": 0.07874015748031496
        },
        {
          "duration": 0.07894725000000236,
          "durationTicks": 96,
          "midi": 42,
          "name": "F#2",
          "ticks": 35232,
          "time": 28.973640749999998,
          "velocity": 0.07874015748031496
        },
        {
          "duration": 0.0789472499999988,
          "durationTicks": 96,
          "midi": 42,
          "name": "F#2",
          "ticks": 35328,
          "time": 29.052588,
          "velocity": 0.07874015748031496
        },
        {
          "duration": 0.0789472499999988,
          "durationTicks": 96,
          "midi": 35,
          "name": "B1",
          "ticks": 35328,
          "time": 29.052588,
          "velocity": 0.05511811023622047
        },
        {
          "duration": 0.0789472499999988,
          "durationTicks": 96,
          "midi": 32,
          "name": "G#1",
          "ticks": 35328,
          "time": 29.052588,
          "velocity": 0.07874015748031496
        },
        {
          "duration": 0.07894725000000236,
          "durationTicks": 96,
          "midi": 32,
          "name": "G#1",
          "ticks": 35520,
          "time": 29.210482499999998,
          "velocity": 0.07874015748031496
        },
        {
          "duration": 0.07894725000000236,
          "durationTicks": 96,
          "midi": 42,
          "name": "F#2",
          "ticks": 35520,
          "time": 29.210482499999998,
          "velocity": 0.07874015748031496
        },
        {
          "duration": 0.0789472499999988,
          "durationTicks": 96,
          "midi": 40,
          "name": "E2",
          "ticks": 35712,
          "time": 29.368377,
          "velocity": 0.07874015748031496
        },
        {
          "duration": 0.0789472499999988,
          "durationTicks": 96,
          "midi": 42,
          "name": "F#2",
          "ticks": 35712,
          "time": 29.368377,
          "velocity": 0.07874015748031496
        },
        {
          "duration": 0.0789472499999988,
          "durationTicks": 96,
          "midi": 28,
          "name": "E1",
          "ticks": 35712,
          "time": 29.368377,
          "velocity": 0.07874015748031496
        },
        {
          "duration": 0.0789472499999988,
          "durationTicks": 96,
          "midi": 32,
          "name": "G#1",
          "ticks": 35712,
          "time": 29.368377,
          "velocity": 0.07874015748031496
        },
        {
          "duration": 0.0789472499999988,
          "durationTicks": 96,
          "midi": 44,
          "name": "G#2",
          "ticks": 35712,
          "time": 29.368377,
          "velocity": 0.07874015748031496
        },
        {
          "duration": 0.0789472499999988,
          "durationTicks": 96,
          "midi": 42,
          "name": "F#2",
          "ticks": 35904,
          "time": 29.5262715,
          "velocity": 0.07874015748031496
        },
        {
          "duration": 0.0789472499999988,
          "durationTicks": 96,
          "midi": 32,
          "name": "G#1",
          "ticks": 35904,
          "time": 29.5262715,
          "velocity": 0.07874015748031496
        },
        {
          "duration": 0.07894725000000236,
          "durationTicks": 96,
          "midi": 32,
          "name": "G#1",
          "ticks": 36096,
          "time": 29.684165999999998,
          "velocity": 0.07874015748031496
        },
        {
          "duration": 0.07894725000000236,
          "durationTicks": 96,
          "midi": 42,
          "name": "F#2",
          "ticks": 36096,
          "time": 29.684165999999998,
          "velocity": 0.07874015748031496
        },
        {
          "duration": 0.0789472499999988,
          "durationTicks": 96,
          "midi": 42,
          "name": "F#2",
          "ticks": 36288,
          "time": 29.8420605,
          "velocity": 0.07874015748031496
        },
        {
          "duration": 0.0789472499999988,
          "durationTicks": 96,
          "midi": 32,
          "name": "G#1",
          "ticks": 36288,
          "time": 29.8420605,
          "velocity": 0.07874015748031496
        },
        {
          "duration": 0.0789472499999988,
          "durationTicks": 96,
          "midi": 40,
          "name": "E2",
          "ticks": 36288,
          "time": 29.8420605,
          "velocity": 0.07874015748031496
        },
        {
          "duration": 0.0789472499999988,
          "durationTicks": 96,
          "midi": 28,
          "name": "E1",
          "ticks": 36288,
          "time": 29.8420605,
          "velocity": 0.07874015748031496
        },
        {
          "duration": 0.0789472499999988,
          "durationTicks": 96,
          "midi": 44,
          "name": "G#2",
          "ticks": 36288,
          "time": 29.8420605,
          "velocity": 0.07874015748031496
        },
        {
          "duration": 0.0789472499999988,
          "durationTicks": 96,
          "midi": 42,
          "name": "F#2",
          "ticks": 36480,
          "time": 29.999955,
          "velocity": 0.07874015748031496
        },
        {
          "duration": 0.0789472499999988,
          "durationTicks": 96,
          "midi": 32,
          "name": "G#1",
          "ticks": 36480,
          "time": 29.999955,
          "velocity": 0.07874015748031496
        },
        {
          "duration": 0.07894725000000236,
          "durationTicks": 96,
          "midi": 28,
          "name": "E1",
          "ticks": 36672,
          "time": 30.157849499999998,
          "velocity": 0.07874015748031496
        },
        {
          "duration": 0.07894725000000236,
          "durationTicks": 96,
          "midi": 32,
          "name": "G#1",
          "ticks": 36672,
          "time": 30.157849499999998,
          "velocity": 0.07874015748031496
        },
        {
          "duration": 0.07894725000000236,
          "durationTicks": 96,
          "midi": 40,
          "name": "E2",
          "ticks": 36672,
          "time": 30.157849499999998,
          "velocity": 0.07874015748031496
        },
        {
          "duration": 0.07894725000000236,
          "durationTicks": 96,
          "midi": 42,
          "name": "F#2",
          "ticks": 36672,
          "time": 30.157849499999998,
          "velocity": 0.07874015748031496
        },
        {
          "duration": 0.07894725000000236,
          "durationTicks": 96,
          "midi": 44,
          "name": "G#2",
          "ticks": 36672,
          "time": 30.157849499999998,
          "velocity": 0.07874015748031496
        },
        {
          "duration": 0.0789472499999988,
          "durationTicks": 96,
          "midi": 42,
          "name": "F#2",
          "ticks": 36768,
          "time": 30.23679675,
          "velocity": 0.07874015748031496
        },
        {
          "duration": 0.0789472499999988,
          "durationTicks": 96,
          "midi": 35,
          "name": "B1",
          "ticks": 36864,
          "time": 30.315744,
          "velocity": 0.05511811023622047
        },
        {
          "duration": 0.0789472499999988,
          "durationTicks": 96,
          "midi": 42,
          "name": "F#2",
          "ticks": 36864,
          "time": 30.315744,
          "velocity": 0.07874015748031496
        },
        {
          "duration": 0.0789472499999988,
          "durationTicks": 96,
          "midi": 32,
          "name": "G#1",
          "ticks": 36864,
          "time": 30.315744,
          "velocity": 0.07874015748031496
        },
        {
          "duration": 0.0789472499999988,
          "durationTicks": 96,
          "midi": 32,
          "name": "G#1",
          "ticks": 37056,
          "time": 30.4736385,
          "velocity": 0.07874015748031496
        },
        {
          "duration": 0.0789472499999988,
          "durationTicks": 96,
          "midi": 42,
          "name": "F#2",
          "ticks": 37056,
          "time": 30.4736385,
          "velocity": 0.07874015748031496
        },
        {
          "duration": 0.07894725000000236,
          "durationTicks": 96,
          "midi": 40,
          "name": "E2",
          "ticks": 37248,
          "time": 30.631532999999997,
          "velocity": 0.07874015748031496
        },
        {
          "duration": 0.07894725000000236,
          "durationTicks": 96,
          "midi": 32,
          "name": "G#1",
          "ticks": 37248,
          "time": 30.631532999999997,
          "velocity": 0.07874015748031496
        },
        {
          "duration": 0.07894725000000236,
          "durationTicks": 96,
          "midi": 42,
          "name": "F#2",
          "ticks": 37248,
          "time": 30.631532999999997,
          "velocity": 0.07874015748031496
        },
        {
          "duration": 0.07894725000000236,
          "durationTicks": 96,
          "midi": 28,
          "name": "E1",
          "ticks": 37248,
          "time": 30.631532999999997,
          "velocity": 0.07874015748031496
        },
        {
          "duration": 0.07894725000000236,
          "durationTicks": 96,
          "midi": 44,
          "name": "G#2",
          "ticks": 37248,
          "time": 30.631532999999997,
          "velocity": 0.07874015748031496
        },
        {
          "duration": 0.0789472499999988,
          "durationTicks": 96,
          "midi": 32,
          "name": "G#1",
          "ticks": 37440,
          "time": 30.7894275,
          "velocity": 0.07874015748031496
        },
        {
          "duration": 0.0789472499999988,
          "durationTicks": 96,
          "midi": 42,
          "name": "F#2",
          "ticks": 37440,
          "time": 30.7894275,
          "velocity": 0.07874015748031496
        },
        {
          "duration": 0.0789472499999988,
          "durationTicks": 96,
          "midi": 32,
          "name": "G#1",
          "ticks": 37632,
          "time": 30.947322,
          "velocity": 0.07874015748031496
        },
        {
          "duration": 0.0789472499999988,
          "durationTicks": 96,
          "midi": 42,
          "name": "F#2",
          "ticks": 37632,
          "time": 30.947322,
          "velocity": 0.07874015748031496
        },
        {
          "duration": 0.07894725000000236,
          "durationTicks": 96,
          "midi": 44,
          "name": "G#2",
          "ticks": 37824,
          "time": 31.105216499999997,
          "velocity": 0.07874015748031496
        },
        {
          "duration": 0.07894725000000236,
          "durationTicks": 96,
          "midi": 42,
          "name": "F#2",
          "ticks": 37824,
          "time": 31.105216499999997,
          "velocity": 0.07874015748031496
        },
        {
          "duration": 0.07894725000000236,
          "durationTicks": 96,
          "midi": 32,
          "name": "G#1",
          "ticks": 37824,
          "time": 31.105216499999997,
          "velocity": 0.07874015748031496
        },
        {
          "duration": 0.07894725000000236,
          "durationTicks": 96,
          "midi": 40,
          "name": "E2",
          "ticks": 37824,
          "time": 31.105216499999997,
          "velocity": 0.07874015748031496
        },
        {
          "duration": 0.07894725000000236,
          "durationTicks": 96,
          "midi": 28,
          "name": "E1",
          "ticks": 37824,
          "time": 31.105216499999997,
          "velocity": 0.07874015748031496
        },
        {
          "duration": 0.0789472499999988,
          "durationTicks": 96,
          "midi": 32,
          "name": "G#1",
          "ticks": 38016,
          "time": 31.263111,
          "velocity": 0.07874015748031496
        },
        {
          "duration": 0.0789472499999988,
          "durationTicks": 96,
          "midi": 42,
          "name": "F#2",
          "ticks": 38016,
          "time": 31.263111,
          "velocity": 0.07874015748031496
        },
        {
          "duration": 0.0789472499999988,
          "durationTicks": 96,
          "midi": 32,
          "name": "G#1",
          "ticks": 38208,
          "time": 31.4210055,
          "velocity": 0.07874015748031496
        },
        {
          "duration": 0.0789472499999988,
          "durationTicks": 96,
          "midi": 44,
          "name": "G#2",
          "ticks": 38208,
          "time": 31.4210055,
          "velocity": 0.07874015748031496
        },
        {
          "duration": 0.0789472499999988,
          "durationTicks": 96,
          "midi": 42,
          "name": "F#2",
          "ticks": 38208,
          "time": 31.4210055,
          "velocity": 0.07874015748031496
        },
        {
          "duration": 0.0789472499999988,
          "durationTicks": 96,
          "midi": 40,
          "name": "E2",
          "ticks": 38208,
          "time": 31.4210055,
          "velocity": 0.07874015748031496
        },
        {
          "duration": 0.0789472499999988,
          "durationTicks": 96,
          "midi": 28,
          "name": "E1",
          "ticks": 38208,
          "time": 31.4210055,
          "velocity": 0.07874015748031496
        },
        {
          "duration": 0.0789472499999988,
          "durationTicks": 96,
          "midi": 42,
          "name": "F#2",
          "ticks": 38304,
          "time": 31.49995275,
          "velocity": 0.07874015748031496
        },
        {
          "duration": 0.07894725000000236,
          "durationTicks": 96,
          "midi": 35,
          "name": "B1",
          "ticks": 38400,
          "time": 31.578899999999997,
          "velocity": 0.05511811023622047
        },
        {
          "duration": 0.07894725000000236,
          "durationTicks": 96,
          "midi": 32,
          "name": "G#1",
          "ticks": 38400,
          "time": 31.578899999999997,
          "velocity": 0.07874015748031496
        },
        {
          "duration": 0.07894725000000236,
          "durationTicks": 96,
          "midi": 42,
          "name": "F#2",
          "ticks": 38400,
          "time": 31.578899999999997,
          "velocity": 0.07874015748031496
        },
        {
          "duration": 0.0789472499999988,
          "durationTicks": 96,
          "midi": 32,
          "name": "G#1",
          "ticks": 38592,
          "time": 31.7367945,
          "velocity": 0.07874015748031496
        },
        {
          "duration": 0.0789472499999988,
          "durationTicks": 96,
          "midi": 42,
          "name": "F#2",
          "ticks": 38592,
          "time": 31.7367945,
          "velocity": 0.07874015748031496
        },
        {
          "duration": 0.0789472499999988,
          "durationTicks": 96,
          "midi": 28,
          "name": "E1",
          "ticks": 38784,
          "time": 31.894689,
          "velocity": 0.07874015748031496
        },
        {
          "duration": 0.0789472499999988,
          "durationTicks": 96,
          "midi": 44,
          "name": "G#2",
          "ticks": 38784,
          "time": 31.894689,
          "velocity": 0.07874015748031496
        },
        {
          "duration": 0.0789472499999988,
          "durationTicks": 96,
          "midi": 32,
          "name": "G#1",
          "ticks": 38784,
          "time": 31.894689,
          "velocity": 0.07874015748031496
        },
        {
          "duration": 0.0789472499999988,
          "durationTicks": 96,
          "midi": 40,
          "name": "E2",
          "ticks": 38784,
          "time": 31.894689,
          "velocity": 0.07874015748031496
        },
        {
          "duration": 0.0789472499999988,
          "durationTicks": 96,
          "midi": 42,
          "name": "F#2",
          "ticks": 38784,
          "time": 31.894689,
          "velocity": 0.07874015748031496
        },
        {
          "duration": 0.0789472499999988,
          "durationTicks": 96,
          "midi": 32,
          "name": "G#1",
          "ticks": 38976,
          "time": 32.0525835,
          "velocity": 0.07874015748031496
        },
        {
          "duration": 0.0789472499999988,
          "durationTicks": 96,
          "midi": 42,
          "name": "F#2",
          "ticks": 38976,
          "time": 32.0525835,
          "velocity": 0.07874015748031496
        },
        {
          "duration": 0.0789472499999988,
          "durationTicks": 96,
          "midi": 42,
          "name": "F#2",
          "ticks": 39168,
          "time": 32.210478,
          "velocity": 0.07874015748031496
        },
        {
          "duration": 0.0789472499999988,
          "durationTicks": 96,
          "midi": 32,
          "name": "G#1",
          "ticks": 39168,
          "time": 32.210478,
          "velocity": 0.07874015748031496
        },
        {
          "duration": 0.0789472499999988,
          "durationTicks": 96,
          "midi": 42,
          "name": "F#2",
          "ticks": 39360,
          "time": 32.3683725,
          "velocity": 0.07874015748031496
        },
        {
          "duration": 0.0789472499999988,
          "durationTicks": 96,
          "midi": 44,
          "name": "G#2",
          "ticks": 39360,
          "time": 32.3683725,
          "velocity": 0.07874015748031496
        },
        {
          "duration": 0.0789472499999988,
          "durationTicks": 96,
          "midi": 28,
          "name": "E1",
          "ticks": 39360,
          "time": 32.3683725,
          "velocity": 0.07874015748031496
        },
        {
          "duration": 0.0789472499999988,
          "durationTicks": 96,
          "midi": 40,
          "name": "E2",
          "ticks": 39360,
          "time": 32.3683725,
          "velocity": 0.07874015748031496
        },
        {
          "duration": 0.0789472499999988,
          "durationTicks": 96,
          "midi": 32,
          "name": "G#1",
          "ticks": 39360,
          "time": 32.3683725,
          "velocity": 0.07874015748031496
        },
        {
          "duration": 0.0789472499999988,
          "durationTicks": 96,
          "midi": 32,
          "name": "G#1",
          "ticks": 39552,
          "time": 32.526267,
          "velocity": 0.07874015748031496
        },
        {
          "duration": 0.0789472499999988,
          "durationTicks": 96,
          "midi": 42,
          "name": "F#2",
          "ticks": 39552,
          "time": 32.526267,
          "velocity": 0.07874015748031496
        },
        {
          "duration": 0.0789472499999988,
          "durationTicks": 96,
          "midi": 32,
          "name": "G#1",
          "ticks": 39744,
          "time": 32.6841615,
          "velocity": 0.07874015748031496
        },
        {
          "duration": 0.0789472499999988,
          "durationTicks": 96,
          "midi": 42,
          "name": "F#2",
          "ticks": 39744,
          "time": 32.6841615,
          "velocity": 0.07874015748031496
        },
        {
          "duration": 0.0789472499999988,
          "durationTicks": 96,
          "midi": 44,
          "name": "G#2",
          "ticks": 39744,
          "time": 32.6841615,
          "velocity": 0.07874015748031496
        },
        {
          "duration": 0.0789472499999988,
          "durationTicks": 96,
          "midi": 28,
          "name": "E1",
          "ticks": 39744,
          "time": 32.6841615,
          "velocity": 0.07874015748031496
        },
        {
          "duration": 0.0789472499999988,
          "durationTicks": 96,
          "midi": 40,
          "name": "E2",
          "ticks": 39744,
          "time": 32.6841615,
          "velocity": 0.07874015748031496
        },
        {
          "duration": 0.0789472499999988,
          "durationTicks": 96,
          "midi": 42,
          "name": "F#2",
          "ticks": 39840,
          "time": 32.76310875,
          "velocity": 0.07874015748031496
        },
        {
          "duration": 0.0789472499999988,
          "durationTicks": 96,
          "midi": 42,
          "name": "F#2",
          "ticks": 39936,
          "time": 32.842056,
          "velocity": 0.07874015748031496
        },
        {
          "duration": 0.0789472499999988,
          "durationTicks": 96,
          "midi": 35,
          "name": "B1",
          "ticks": 39936,
          "time": 32.842056,
          "velocity": 0.05511811023622047
        },
        {
          "duration": 0.0789472499999988,
          "durationTicks": 96,
          "midi": 32,
          "name": "G#1",
          "ticks": 39936,
          "time": 32.842056,
          "velocity": 0.07874015748031496
        },
        {
          "duration": 0.0789472499999988,
          "durationTicks": 96,
          "midi": 32,
          "name": "G#1",
          "ticks": 40128,
          "time": 32.9999505,
          "velocity": 0.07874015748031496
        },
        {
          "duration": 0.0789472499999988,
          "durationTicks": 96,
          "midi": 42,
          "name": "F#2",
          "ticks": 40128,
          "time": 32.9999505,
          "velocity": 0.07874015748031496
        },
        {
          "duration": 0.0789472499999988,
          "durationTicks": 96,
          "midi": 44,
          "name": "G#2",
          "ticks": 40320,
          "time": 33.157845,
          "velocity": 0.07874015748031496
        },
        {
          "duration": 0.0789472499999988,
          "durationTicks": 96,
          "midi": 28,
          "name": "E1",
          "ticks": 40320,
          "time": 33.157845,
          "velocity": 0.07874015748031496
        },
        {
          "duration": 0.0789472499999988,
          "durationTicks": 96,
          "midi": 40,
          "name": "E2",
          "ticks": 40320,
          "time": 33.157845,
          "velocity": 0.07874015748031496
        },
        {
          "duration": 0.0789472499999988,
          "durationTicks": 96,
          "midi": 32,
          "name": "G#1",
          "ticks": 40320,
          "time": 33.157845,
          "velocity": 0.07874015748031496
        },
        {
          "duration": 0.0789472499999988,
          "durationTicks": 96,
          "midi": 42,
          "name": "F#2",
          "ticks": 40320,
          "time": 33.157845,
          "velocity": 0.07874015748031496
        },
        {
          "duration": 0.0789472499999988,
          "durationTicks": 96,
          "midi": 32,
          "name": "G#1",
          "ticks": 40512,
          "time": 33.3157395,
          "velocity": 0.07874015748031496
        },
        {
          "duration": 0.0789472499999988,
          "durationTicks": 96,
          "midi": 42,
          "name": "F#2",
          "ticks": 40512,
          "time": 33.3157395,
          "velocity": 0.07874015748031496
        },
        {
          "duration": 0.0789472499999988,
          "durationTicks": 96,
          "midi": 32,
          "name": "G#1",
          "ticks": 40704,
          "time": 33.473634,
          "velocity": 0.07874015748031496
        },
        {
          "duration": 0.0789472499999988,
          "durationTicks": 96,
          "midi": 42,
          "name": "F#2",
          "ticks": 40704,
          "time": 33.473634,
          "velocity": 0.07874015748031496
        },
        {
          "duration": 0.0789472499999988,
          "durationTicks": 96,
          "midi": 32,
          "name": "G#1",
          "ticks": 40896,
          "time": 33.6315285,
          "velocity": 0.07874015748031496
        },
        {
          "duration": 0.0789472499999988,
          "durationTicks": 96,
          "midi": 28,
          "name": "E1",
          "ticks": 40896,
          "time": 33.6315285,
          "velocity": 0.07874015748031496
        },
        {
          "duration": 0.0789472499999988,
          "durationTicks": 96,
          "midi": 44,
          "name": "G#2",
          "ticks": 40896,
          "time": 33.6315285,
          "velocity": 0.07874015748031496
        },
        {
          "duration": 0.0789472499999988,
          "durationTicks": 96,
          "midi": 42,
          "name": "F#2",
          "ticks": 40896,
          "time": 33.6315285,
          "velocity": 0.07874015748031496
        },
        {
          "duration": 0.0789472499999988,
          "durationTicks": 96,
          "midi": 40,
          "name": "E2",
          "ticks": 40896,
          "time": 33.6315285,
          "velocity": 0.07874015748031496
        },
        {
          "duration": 0.0789472499999988,
          "durationTicks": 96,
          "midi": 42,
          "name": "F#2",
          "ticks": 41088,
          "time": 33.789423,
          "velocity": 0.07874015748031496
        },
        {
          "duration": 0.0789472499999988,
          "durationTicks": 96,
          "midi": 32,
          "name": "G#1",
          "ticks": 41088,
          "time": 33.789423,
          "velocity": 0.07874015748031496
        },
        {
          "duration": 0.0789472499999988,
          "durationTicks": 96,
          "midi": 28,
          "name": "E1",
          "ticks": 41280,
          "time": 33.9473175,
          "velocity": 0.07874015748031496
        },
        {
          "duration": 0.0789472499999988,
          "durationTicks": 96,
          "midi": 40,
          "name": "E2",
          "ticks": 41280,
          "time": 33.9473175,
          "velocity": 0.07874015748031496
        },
        {
          "duration": 0.0789472499999988,
          "durationTicks": 96,
          "midi": 42,
          "name": "F#2",
          "ticks": 41280,
          "time": 33.9473175,
          "velocity": 0.07874015748031496
        },
        {
          "duration": 0.0789472499999988,
          "durationTicks": 96,
          "midi": 44,
          "name": "G#2",
          "ticks": 41280,
          "time": 33.9473175,
          "velocity": 0.07874015748031496
        },
        {
          "duration": 0.0789472499999988,
          "durationTicks": 96,
          "midi": 32,
          "name": "G#1",
          "ticks": 41280,
          "time": 33.9473175,
          "velocity": 0.07874015748031496
        },
        {
          "duration": 0.07894725000000591,
          "durationTicks": 96,
          "midi": 42,
          "name": "F#2",
          "ticks": 41376,
          "time": 34.026264749999996,
          "velocity": 0.07874015748031496
        },
        {
          "duration": 0.0789472499999988,
          "durationTicks": 96,
          "midi": 35,
          "name": "B1",
          "ticks": 41472,
          "time": 34.105212,
          "velocity": 0.05511811023622047
        },
        {
          "duration": 0.0789472499999988,
          "durationTicks": 96,
          "midi": 32,
          "name": "G#1",
          "ticks": 41472,
          "time": 34.105212,
          "velocity": 0.07874015748031496
        },
        {
          "duration": 0.0789472499999988,
          "durationTicks": 96,
          "midi": 42,
          "name": "F#2",
          "ticks": 41472,
          "time": 34.105212,
          "velocity": 0.07874015748031496
        },
        {
          "duration": 0.0789472499999988,
          "durationTicks": 96,
          "midi": 42,
          "name": "F#2",
          "ticks": 41664,
          "time": 34.2631065,
          "velocity": 0.07874015748031496
        },
        {
          "duration": 0.0789472499999988,
          "durationTicks": 96,
          "midi": 32,
          "name": "G#1",
          "ticks": 41664,
          "time": 34.2631065,
          "velocity": 0.07874015748031496
        },
        {
          "duration": 0.0789472499999988,
          "durationTicks": 96,
          "midi": 44,
          "name": "G#2",
          "ticks": 41856,
          "time": 34.421001,
          "velocity": 0.07874015748031496
        },
        {
          "duration": 0.0789472499999988,
          "durationTicks": 96,
          "midi": 28,
          "name": "E1",
          "ticks": 41856,
          "time": 34.421001,
          "velocity": 0.07874015748031496
        },
        {
          "duration": 0.0789472499999988,
          "durationTicks": 96,
          "midi": 42,
          "name": "F#2",
          "ticks": 41856,
          "time": 34.421001,
          "velocity": 0.07874015748031496
        },
        {
          "duration": 0.0789472499999988,
          "durationTicks": 96,
          "midi": 40,
          "name": "E2",
          "ticks": 41856,
          "time": 34.421001,
          "velocity": 0.07874015748031496
        },
        {
          "duration": 0.0789472499999988,
          "durationTicks": 96,
          "midi": 32,
          "name": "G#1",
          "ticks": 41856,
          "time": 34.421001,
          "velocity": 0.07874015748031496
        },
        {
          "duration": 0.0789472499999988,
          "durationTicks": 96,
          "midi": 42,
          "name": "F#2",
          "ticks": 42048,
          "time": 34.5788955,
          "velocity": 0.07874015748031496
        },
        {
          "duration": 0.0789472499999988,
          "durationTicks": 96,
          "midi": 32,
          "name": "G#1",
          "ticks": 42048,
          "time": 34.5788955,
          "velocity": 0.07874015748031496
        },
        {
          "duration": 0.0789472499999988,
          "durationTicks": 96,
          "midi": 32,
          "name": "G#1",
          "ticks": 42240,
          "time": 34.73679,
          "velocity": 0.07874015748031496
        },
        {
          "duration": 0.0789472499999988,
          "durationTicks": 96,
          "midi": 42,
          "name": "F#2",
          "ticks": 42240,
          "time": 34.73679,
          "velocity": 0.07874015748031496
        },
        {
          "duration": 0.0789472499999988,
          "durationTicks": 96,
          "midi": 42,
          "name": "F#2",
          "ticks": 42432,
          "time": 34.8946845,
          "velocity": 0.07874015748031496
        },
        {
          "duration": 0.0789472499999988,
          "durationTicks": 96,
          "midi": 32,
          "name": "G#1",
          "ticks": 42432,
          "time": 34.8946845,
          "velocity": 0.07874015748031496
        },
        {
          "duration": 0.0789472499999988,
          "durationTicks": 96,
          "midi": 28,
          "name": "E1",
          "ticks": 42432,
          "time": 34.8946845,
          "velocity": 0.07874015748031496
        },
        {
          "duration": 0.0789472499999988,
          "durationTicks": 96,
          "midi": 40,
          "name": "E2",
          "ticks": 42432,
          "time": 34.8946845,
          "velocity": 0.07874015748031496
        },
        {
          "duration": 0.0789472499999988,
          "durationTicks": 96,
          "midi": 44,
          "name": "G#2",
          "ticks": 42432,
          "time": 34.8946845,
          "velocity": 0.07874015748031496
        },
        {
          "duration": 0.0789472499999988,
          "durationTicks": 96,
          "midi": 42,
          "name": "F#2",
          "ticks": 42624,
          "time": 35.052579,
          "velocity": 0.07874015748031496
        },
        {
          "duration": 0.0789472499999988,
          "durationTicks": 96,
          "midi": 32,
          "name": "G#1",
          "ticks": 42624,
          "time": 35.052579,
          "velocity": 0.07874015748031496
        },
        {
          "duration": 0.0789472499999988,
          "durationTicks": 96,
          "midi": 28,
          "name": "E1",
          "ticks": 42816,
          "time": 35.2104735,
          "velocity": 0.07874015748031496
        },
        {
          "duration": 0.0789472499999988,
          "durationTicks": 96,
          "midi": 42,
          "name": "F#2",
          "ticks": 42816,
          "time": 35.2104735,
          "velocity": 0.07874015748031496
        },
        {
          "duration": 0.0789472499999988,
          "durationTicks": 96,
          "midi": 44,
          "name": "G#2",
          "ticks": 42816,
          "time": 35.2104735,
          "velocity": 0.07874015748031496
        },
        {
          "duration": 0.0789472499999988,
          "durationTicks": 96,
          "midi": 32,
          "name": "G#1",
          "ticks": 42816,
          "time": 35.2104735,
          "velocity": 0.07874015748031496
        },
        {
          "duration": 0.0789472499999988,
          "durationTicks": 96,
          "midi": 40,
          "name": "E2",
          "ticks": 42816,
          "time": 35.2104735,
          "velocity": 0.07874015748031496
        },
        {
          "duration": 0.0789472499999988,
          "durationTicks": 96,
          "midi": 42,
          "name": "F#2",
          "ticks": 42912,
          "time": 35.28942075,
          "velocity": 0.07874015748031496
        },
        {
          "duration": 0.0789472499999988,
          "durationTicks": 96,
          "midi": 35,
          "name": "B1",
          "ticks": 43008,
          "time": 35.368368,
          "velocity": 0.05511811023622047
        },
        {
          "duration": 0.0789472499999988,
          "durationTicks": 96,
          "midi": 42,
          "name": "F#2",
          "ticks": 43008,
          "time": 35.368368,
          "velocity": 0.07874015748031496
        },
        {
          "duration": 0.0789472499999988,
          "durationTicks": 96,
          "midi": 32,
          "name": "G#1",
          "ticks": 43008,
          "time": 35.368368,
          "velocity": 0.07874015748031496
        },
        {
          "duration": 0.0789472499999988,
          "durationTicks": 96,
          "midi": 42,
          "name": "F#2",
          "ticks": 43200,
          "time": 35.5262625,
          "velocity": 0.07874015748031496
        },
        {
          "duration": 0.0789472499999988,
          "durationTicks": 96,
          "midi": 32,
          "name": "G#1",
          "ticks": 43200,
          "time": 35.5262625,
          "velocity": 0.07874015748031496
        },
        {
          "duration": 0.0789472499999988,
          "durationTicks": 96,
          "midi": 40,
          "name": "E2",
          "ticks": 43392,
          "time": 35.684157,
          "velocity": 0.07874015748031496
        },
        {
          "duration": 0.0789472499999988,
          "durationTicks": 96,
          "midi": 32,
          "name": "G#1",
          "ticks": 43392,
          "time": 35.684157,
          "velocity": 0.07874015748031496
        },
        {
          "duration": 0.0789472499999988,
          "durationTicks": 96,
          "midi": 42,
          "name": "F#2",
          "ticks": 43392,
          "time": 35.684157,
          "velocity": 0.07874015748031496
        },
        {
          "duration": 0.0789472499999988,
          "durationTicks": 96,
          "midi": 44,
          "name": "G#2",
          "ticks": 43392,
          "time": 35.684157,
          "velocity": 0.07874015748031496
        },
        {
          "duration": 0.0789472499999988,
          "durationTicks": 96,
          "midi": 28,
          "name": "E1",
          "ticks": 43392,
          "time": 35.684157,
          "velocity": 0.07874015748031496
        },
        {
          "duration": 0.0789472499999988,
          "durationTicks": 96,
          "midi": 32,
          "name": "G#1",
          "ticks": 43584,
          "time": 35.8420515,
          "velocity": 0.07874015748031496
        },
        {
          "duration": 0.0789472499999988,
          "durationTicks": 96,
          "midi": 42,
          "name": "F#2",
          "ticks": 43584,
          "time": 35.8420515,
          "velocity": 0.07874015748031496
        },
        {
          "duration": 0.0789472499999988,
          "durationTicks": 96,
          "midi": 32,
          "name": "G#1",
          "ticks": 43776,
          "time": 35.999946,
          "velocity": 0.07874015748031496
        },
        {
          "duration": 0.0789472499999988,
          "durationTicks": 96,
          "midi": 42,
          "name": "F#2",
          "ticks": 43776,
          "time": 35.999946,
          "velocity": 0.07874015748031496
        },
        {
          "duration": 0.0789472499999988,
          "durationTicks": 96,
          "midi": 28,
          "name": "E1",
          "ticks": 43968,
          "time": 36.1578405,
          "velocity": 0.07874015748031496
        },
        {
          "duration": 0.0789472499999988,
          "durationTicks": 96,
          "midi": 44,
          "name": "G#2",
          "ticks": 43968,
          "time": 36.1578405,
          "velocity": 0.07874015748031496
        },
        {
          "duration": 0.0789472499999988,
          "durationTicks": 96,
          "midi": 42,
          "name": "F#2",
          "ticks": 43968,
          "time": 36.1578405,
          "velocity": 0.07874015748031496
        },
        {
          "duration": 0.0789472499999988,
          "durationTicks": 96,
          "midi": 32,
          "name": "G#1",
          "ticks": 43968,
          "time": 36.1578405,
          "velocity": 0.07874015748031496
        },
        {
          "duration": 0.0789472499999988,
          "durationTicks": 96,
          "midi": 40,
          "name": "E2",
          "ticks": 43968,
          "time": 36.1578405,
          "velocity": 0.07874015748031496
        },
        {
          "duration": 0.0789472499999988,
          "durationTicks": 96,
          "midi": 32,
          "name": "G#1",
          "ticks": 44160,
          "time": 36.315735,
          "velocity": 0.07874015748031496
        },
        {
          "duration": 0.0789472499999988,
          "durationTicks": 96,
          "midi": 42,
          "name": "F#2",
          "ticks": 44160,
          "time": 36.315735,
          "velocity": 0.07874015748031496
        },
        {
          "duration": 0.0789472499999988,
          "durationTicks": 96,
          "midi": 42,
          "name": "F#2",
          "ticks": 44352,
          "time": 36.4736295,
          "velocity": 0.07874015748031496
        },
        {
          "duration": 0.0789472499999988,
          "durationTicks": 96,
          "midi": 32,
          "name": "G#1",
          "ticks": 44352,
          "time": 36.4736295,
          "velocity": 0.07874015748031496
        },
        {
          "duration": 0.0789472499999988,
          "durationTicks": 96,
          "midi": 28,
          "name": "E1",
          "ticks": 44352,
          "time": 36.4736295,
          "velocity": 0.07874015748031496
        },
        {
          "duration": 0.0789472499999988,
          "durationTicks": 96,
          "midi": 44,
          "name": "G#2",
          "ticks": 44352,
          "time": 36.4736295,
          "velocity": 0.07874015748031496
        },
        {
          "duration": 0.0789472499999988,
          "durationTicks": 96,
          "midi": 40,
          "name": "E2",
          "ticks": 44352,
          "time": 36.4736295,
          "velocity": 0.07874015748031496
        },
        {
          "duration": 0.0789472499999988,
          "durationTicks": 96,
          "midi": 42,
          "name": "F#2",
          "ticks": 44448,
          "time": 36.55257675,
          "velocity": 0.07874015748031496
        },
        {
          "duration": 0.0789472499999988,
          "durationTicks": 96,
          "midi": 35,
          "name": "B1",
          "ticks": 44544,
          "time": 36.631524,
          "velocity": 0.05511811023622047
        },
        {
          "duration": 0.0789472499999988,
          "durationTicks": 96,
          "midi": 32,
          "name": "G#1",
          "ticks": 44544,
          "time": 36.631524,
          "velocity": 0.07874015748031496
        },
        {
          "duration": 0.0789472499999988,
          "durationTicks": 96,
          "midi": 42,
          "name": "F#2",
          "ticks": 44544,
          "time": 36.631524,
          "velocity": 0.07874015748031496
        },
        {
          "duration": 0.0789472499999988,
          "durationTicks": 96,
          "midi": 32,
          "name": "G#1",
          "ticks": 44736,
          "time": 36.7894185,
          "velocity": 0.07874015748031496
        },
        {
          "duration": 0.0789472499999988,
          "durationTicks": 96,
          "midi": 42,
          "name": "F#2",
          "ticks": 44736,
          "time": 36.7894185,
          "velocity": 0.07874015748031496
        },
        {
          "duration": 0.0789472499999988,
          "durationTicks": 96,
          "midi": 44,
          "name": "G#2",
          "ticks": 44928,
          "time": 36.947313,
          "velocity": 0.07874015748031496
        },
        {
          "duration": 0.0789472499999988,
          "durationTicks": 96,
          "midi": 32,
          "name": "G#1",
          "ticks": 44928,
          "time": 36.947313,
          "velocity": 0.07874015748031496
        },
        {
          "duration": 0.0789472499999988,
          "durationTicks": 96,
          "midi": 28,
          "name": "E1",
          "ticks": 44928,
          "time": 36.947313,
          "velocity": 0.07874015748031496
        },
        {
          "duration": 0.0789472499999988,
          "durationTicks": 96,
          "midi": 40,
          "name": "E2",
          "ticks": 44928,
          "time": 36.947313,
          "velocity": 0.07874015748031496
        },
        {
          "duration": 0.0789472499999988,
          "durationTicks": 96,
          "midi": 42,
          "name": "F#2",
          "ticks": 44928,
          "time": 36.947313,
          "velocity": 0.07874015748031496
        },
        {
          "duration": 0.0789472499999988,
          "durationTicks": 96,
          "midi": 32,
          "name": "G#1",
          "ticks": 45120,
          "time": 37.1052075,
          "velocity": 0.07874015748031496
        },
        {
          "duration": 0.0789472499999988,
          "durationTicks": 96,
          "midi": 42,
          "name": "F#2",
          "ticks": 45120,
          "time": 37.1052075,
          "velocity": 0.07874015748031496
        },
        {
          "duration": 0.0789472499999988,
          "durationTicks": 96,
          "midi": 42,
          "name": "F#2",
          "ticks": 45312,
          "time": 37.263101999999996,
          "velocity": 0.07874015748031496
        },
        {
          "duration": 0.0789472499999988,
          "durationTicks": 96,
          "midi": 32,
          "name": "G#1",
          "ticks": 45312,
          "time": 37.263101999999996,
          "velocity": 0.07874015748031496
        },
        {
          "duration": 0.0789472499999988,
          "durationTicks": 96,
          "midi": 42,
          "name": "F#2",
          "ticks": 45504,
          "time": 37.4209965,
          "velocity": 0.07874015748031496
        },
        {
          "duration": 0.0789472499999988,
          "durationTicks": 96,
          "midi": 32,
          "name": "G#1",
          "ticks": 45504,
          "time": 37.4209965,
          "velocity": 0.07874015748031496
        },
        {
          "duration": 0.0789472499999988,
          "durationTicks": 96,
          "midi": 40,
          "name": "E2",
          "ticks": 45504,
          "time": 37.4209965,
          "velocity": 0.07874015748031496
        },
        {
          "duration": 0.0789472499999988,
          "durationTicks": 96,
          "midi": 28,
          "name": "E1",
          "ticks": 45504,
          "time": 37.4209965,
          "velocity": 0.07874015748031496
        },
        {
          "duration": 0.0789472499999988,
          "durationTicks": 96,
          "midi": 44,
          "name": "G#2",
          "ticks": 45504,
          "time": 37.4209965,
          "velocity": 0.07874015748031496
        },
        {
          "duration": 0.0789472499999988,
          "durationTicks": 96,
          "midi": 42,
          "name": "F#2",
          "ticks": 45696,
          "time": 37.578891,
          "velocity": 0.07874015748031496
        },
        {
          "duration": 0.0789472499999988,
          "durationTicks": 96,
          "midi": 32,
          "name": "G#1",
          "ticks": 45696,
          "time": 37.578891,
          "velocity": 0.07874015748031496
        },
        {
          "duration": 0.0789472499999988,
          "durationTicks": 96,
          "midi": 44,
          "name": "G#2",
          "ticks": 45888,
          "time": 37.736785499999996,
          "velocity": 0.07874015748031496
        },
        {
          "duration": 0.0789472499999988,
          "durationTicks": 96,
          "midi": 40,
          "name": "E2",
          "ticks": 45888,
          "time": 37.736785499999996,
          "velocity": 0.07874015748031496
        },
        {
          "duration": 0.0789472499999988,
          "durationTicks": 96,
          "midi": 32,
          "name": "G#1",
          "ticks": 45888,
          "time": 37.736785499999996,
          "velocity": 0.07874015748031496
        },
        {
          "duration": 0.0789472499999988,
          "durationTicks": 96,
          "midi": 42,
          "name": "F#2",
          "ticks": 45888,
          "time": 37.736785499999996,
          "velocity": 0.07874015748031496
        },
        {
          "duration": 0.0789472499999988,
          "durationTicks": 96,
          "midi": 28,
          "name": "E1",
          "ticks": 45888,
          "time": 37.736785499999996,
          "velocity": 0.07874015748031496
        },
        {
          "duration": 0.07894725000000591,
          "durationTicks": 96,
          "midi": 42,
          "name": "F#2",
          "ticks": 45984,
          "time": 37.815732749999995,
          "velocity": 0.07874015748031496
        },
        {
          "duration": 0.0789472499999988,
          "durationTicks": 96,
          "midi": 32,
          "name": "G#1",
          "ticks": 46080,
          "time": 37.89468,
          "velocity": 0.07874015748031496
        },
        {
          "duration": 0.0789472499999988,
          "durationTicks": 96,
          "midi": 35,
          "name": "B1",
          "ticks": 46080,
          "time": 37.89468,
          "velocity": 0.05511811023622047
        },
        {
          "duration": 0.0789472499999988,
          "durationTicks": 96,
          "midi": 42,
          "name": "F#2",
          "ticks": 46080,
          "time": 37.89468,
          "velocity": 0.07874015748031496
        },
        {
          "duration": 0.0789472499999988,
          "durationTicks": 96,
          "midi": 32,
          "name": "G#1",
          "ticks": 46272,
          "time": 38.0525745,
          "velocity": 0.07874015748031496
        },
        {
          "duration": 0.0789472499999988,
          "durationTicks": 96,
          "midi": 42,
          "name": "F#2",
          "ticks": 46272,
          "time": 38.0525745,
          "velocity": 0.07874015748031496
        },
        {
          "duration": 0.0789472499999988,
          "durationTicks": 96,
          "midi": 42,
          "name": "F#2",
          "ticks": 46464,
          "time": 38.210468999999996,
          "velocity": 0.07874015748031496
        },
        {
          "duration": 0.0789472499999988,
          "durationTicks": 96,
          "midi": 28,
          "name": "E1",
          "ticks": 46464,
          "time": 38.210468999999996,
          "velocity": 0.07874015748031496
        },
        {
          "duration": 0.0789472499999988,
          "durationTicks": 96,
          "midi": 40,
          "name": "E2",
          "ticks": 46464,
          "time": 38.210468999999996,
          "velocity": 0.07874015748031496
        },
        {
          "duration": 0.0789472499999988,
          "durationTicks": 96,
          "midi": 44,
          "name": "G#2",
          "ticks": 46464,
          "time": 38.210468999999996,
          "velocity": 0.07874015748031496
        },
        {
          "duration": 0.0789472499999988,
          "durationTicks": 96,
          "midi": 32,
          "name": "G#1",
          "ticks": 46464,
          "time": 38.210468999999996,
          "velocity": 0.07874015748031496
        },
        {
          "duration": 0.0789472499999988,
          "durationTicks": 96,
          "midi": 32,
          "name": "G#1",
          "ticks": 46656,
          "time": 38.3683635,
          "velocity": 0.07874015748031496
        },
        {
          "duration": 0.0789472499999988,
          "durationTicks": 96,
          "midi": 42,
          "name": "F#2",
          "ticks": 46656,
          "time": 38.3683635,
          "velocity": 0.07874015748031496
        },
        {
          "duration": 0.0789472499999988,
          "durationTicks": 96,
          "midi": 42,
          "name": "F#2",
          "ticks": 46848,
          "time": 38.526258,
          "velocity": 0.07874015748031496
        },
        {
          "duration": 0.0789472499999988,
          "durationTicks": 96,
          "midi": 32,
          "name": "G#1",
          "ticks": 46848,
          "time": 38.526258,
          "velocity": 0.07874015748031496
        },
        {
          "duration": 0.0789472499999988,
          "durationTicks": 96,
          "midi": 32,
          "name": "G#1",
          "ticks": 47040,
          "time": 38.684152499999996,
          "velocity": 0.07874015748031496
        },
        {
          "duration": 0.0789472499999988,
          "durationTicks": 96,
          "midi": 42,
          "name": "F#2",
          "ticks": 47040,
          "time": 38.684152499999996,
          "velocity": 0.07874015748031496
        },
        {
          "duration": 0.0789472499999988,
          "durationTicks": 96,
          "midi": 40,
          "name": "E2",
          "ticks": 47040,
          "time": 38.684152499999996,
          "velocity": 0.07874015748031496
        },
        {
          "duration": 0.0789472499999988,
          "durationTicks": 96,
          "midi": 28,
          "name": "E1",
          "ticks": 47040,
          "time": 38.684152499999996,
          "velocity": 0.07874015748031496
        },
        {
          "duration": 0.0789472499999988,
          "durationTicks": 96,
          "midi": 44,
          "name": "G#2",
          "ticks": 47040,
          "time": 38.684152499999996,
          "velocity": 0.07874015748031496
        },
        {
          "duration": 0.0789472499999988,
          "durationTicks": 96,
          "midi": 42,
          "name": "F#2",
          "ticks": 47232,
          "time": 38.842047,
          "velocity": 0.07874015748031496
        },
        {
          "duration": 0.0789472499999988,
          "durationTicks": 96,
          "midi": 32,
          "name": "G#1",
          "ticks": 47232,
          "time": 38.842047,
          "velocity": 0.07874015748031496
        },
        {
          "duration": 0.0789472499999988,
          "durationTicks": 96,
          "midi": 42,
          "name": "F#2",
          "ticks": 47424,
          "time": 38.9999415,
          "velocity": 0.07874015748031496
        },
        {
          "duration": 0.0789472499999988,
          "durationTicks": 96,
          "midi": 40,
          "name": "E2",
          "ticks": 47424,
          "time": 38.9999415,
          "velocity": 0.07874015748031496
        },
        {
          "duration": 0.0789472499999988,
          "durationTicks": 96,
          "midi": 32,
          "name": "G#1",
          "ticks": 47424,
          "time": 38.9999415,
          "velocity": 0.07874015748031496
        },
        {
          "duration": 0.0789472499999988,
          "durationTicks": 96,
          "midi": 44,
          "name": "G#2",
          "ticks": 47424,
          "time": 38.9999415,
          "velocity": 0.07874015748031496
        },
        {
          "duration": 0.0789472499999988,
          "durationTicks": 96,
          "midi": 28,
          "name": "E1",
          "ticks": 47424,
          "time": 38.9999415,
          "velocity": 0.07874015748031496
        },
        {
          "duration": 0.0789472499999988,
          "durationTicks": 96,
          "midi": 42,
          "name": "F#2",
          "ticks": 47520,
          "time": 39.07888875,
          "velocity": 0.07874015748031496
        },
        {
          "duration": 0.0789472499999988,
          "durationTicks": 96,
          "midi": 35,
          "name": "B1",
          "ticks": 47616,
          "time": 39.157835999999996,
          "velocity": 0.05511811023622047
        },
        {
          "duration": 0.0789472499999988,
          "durationTicks": 96,
          "midi": 32,
          "name": "G#1",
          "ticks": 47616,
          "time": 39.157835999999996,
          "velocity": 0.07874015748031496
        },
        {
          "duration": 0.0789472499999988,
          "durationTicks": 96,
          "midi": 42,
          "name": "F#2",
          "ticks": 47616,
          "time": 39.157835999999996,
          "velocity": 0.07874015748031496
        },
        {
          "duration": 0.0789472499999988,
          "durationTicks": 96,
          "midi": 32,
          "name": "G#1",
          "ticks": 47808,
          "time": 39.3157305,
          "velocity": 0.07874015748031496
        },
        {
          "duration": 0.0789472499999988,
          "durationTicks": 96,
          "midi": 42,
          "name": "F#2",
          "ticks": 47808,
          "time": 39.3157305,
          "velocity": 0.07874015748031496
        },
        {
          "duration": 0.0789472499999988,
          "durationTicks": 96,
          "midi": 32,
          "name": "G#1",
          "ticks": 48000,
          "time": 39.473625,
          "velocity": 0.07874015748031496
        },
        {
          "duration": 0.0789472499999988,
          "durationTicks": 96,
          "midi": 28,
          "name": "E1",
          "ticks": 48000,
          "time": 39.473625,
          "velocity": 0.07874015748031496
        },
        {
          "duration": 0.0789472499999988,
          "durationTicks": 96,
          "midi": 44,
          "name": "G#2",
          "ticks": 48000,
          "time": 39.473625,
          "velocity": 0.07874015748031496
        },
        {
          "duration": 0.0789472499999988,
          "durationTicks": 96,
          "midi": 42,
          "name": "F#2",
          "ticks": 48000,
          "time": 39.473625,
          "velocity": 0.07874015748031496
        },
        {
          "duration": 0.0789472499999988,
          "durationTicks": 96,
          "midi": 40,
          "name": "E2",
          "ticks": 48000,
          "time": 39.473625,
          "velocity": 0.07874015748031496
        },
        {
          "duration": 0.0789472499999988,
          "durationTicks": 96,
          "midi": 32,
          "name": "G#1",
          "ticks": 48192,
          "time": 39.631519499999996,
          "velocity": 0.07874015748031496
        },
        {
          "duration": 0.0789472499999988,
          "durationTicks": 96,
          "midi": 42,
          "name": "F#2",
          "ticks": 48192,
          "time": 39.631519499999996,
          "velocity": 0.07874015748031496
        },
        {
          "duration": 0.0789472499999988,
          "durationTicks": 96,
          "midi": 42,
          "name": "F#2",
          "ticks": 48384,
          "time": 39.789414,
          "velocity": 0.07874015748031496
        },
        {
          "duration": 0.0789472499999988,
          "durationTicks": 96,
          "midi": 32,
          "name": "G#1",
          "ticks": 48384,
          "time": 39.789414,
          "velocity": 0.07874015748031496
        },
        {
          "duration": 0.0789472499999988,
          "durationTicks": 96,
          "midi": 28,
          "name": "E1",
          "ticks": 48576,
          "time": 39.9473085,
          "velocity": 0.07874015748031496
        },
        {
          "duration": 0.0789472499999988,
          "durationTicks": 96,
          "midi": 40,
          "name": "E2",
          "ticks": 48576,
          "time": 39.9473085,
          "velocity": 0.07874015748031496
        },
        {
          "duration": 0.0789472499999988,
          "durationTicks": 96,
          "midi": 32,
          "name": "G#1",
          "ticks": 48576,
          "time": 39.9473085,
          "velocity": 0.07874015748031496
        },
        {
          "duration": 0.0789472499999988,
          "durationTicks": 96,
          "midi": 44,
          "name": "G#2",
          "ticks": 48576,
          "time": 39.9473085,
          "velocity": 0.07874015748031496
        },
        {
          "duration": 0.0789472499999988,
          "durationTicks": 96,
          "midi": 42,
          "name": "F#2",
          "ticks": 48576,
          "time": 39.9473085,
          "velocity": 0.07874015748031496
        },
        {
          "duration": 0.0789472499999988,
          "durationTicks": 96,
          "midi": 42,
          "name": "F#2",
          "ticks": 48768,
          "time": 40.105202999999996,
          "velocity": 0.07874015748031496
        },
        {
          "duration": 0.0789472499999988,
          "durationTicks": 96,
          "midi": 32,
          "name": "G#1",
          "ticks": 48768,
          "time": 40.105202999999996,
          "velocity": 0.07874015748031496
        },
        {
          "duration": 0.0789472499999988,
          "durationTicks": 96,
          "midi": 28,
          "name": "E1",
          "ticks": 48960,
          "time": 40.2630975,
          "velocity": 0.07874015748031496
        },
        {
          "duration": 0.0789472499999988,
          "durationTicks": 96,
          "midi": 42,
          "name": "F#2",
          "ticks": 48960,
          "time": 40.2630975,
          "velocity": 0.07874015748031496
        },
        {
          "duration": 0.0789472499999988,
          "durationTicks": 96,
          "midi": 44,
          "name": "G#2",
          "ticks": 48960,
          "time": 40.2630975,
          "velocity": 0.07874015748031496
        },
        {
          "duration": 0.0789472499999988,
          "durationTicks": 96,
          "midi": 32,
          "name": "G#1",
          "ticks": 48960,
          "time": 40.2630975,
          "velocity": 0.07874015748031496
        },
        {
          "duration": 0.0789472499999988,
          "durationTicks": 96,
          "midi": 40,
          "name": "E2",
          "ticks": 48960,
          "time": 40.2630975,
          "velocity": 0.07874015748031496
        },
        {
          "duration": 0.0789472499999988,
          "durationTicks": 96,
          "midi": 42,
          "name": "F#2",
          "ticks": 49056,
          "time": 40.34204475,
          "velocity": 0.07874015748031496
        },
        {
          "duration": 0.0789472499999988,
          "durationTicks": 96,
          "midi": 35,
          "name": "B1",
          "ticks": 49152,
          "time": 40.420992,
          "velocity": 0.05511811023622047
        },
        {
          "duration": 0.0789472499999988,
          "durationTicks": 96,
          "midi": 42,
          "name": "F#2",
          "ticks": 49152,
          "time": 40.420992,
          "velocity": 0.07874015748031496
        },
        {
          "duration": 0.0789472499999988,
          "durationTicks": 96,
          "midi": 32,
          "name": "G#1",
          "ticks": 49152,
          "time": 40.420992,
          "velocity": 0.07874015748031496
        },
        {
          "duration": 0.07894725000000591,
          "durationTicks": 96,
          "midi": 42,
          "name": "F#2",
          "ticks": 49344,
          "time": 40.578886499999996,
          "velocity": 0.07874015748031496
        },
        {
          "duration": 0.07894725000000591,
          "durationTicks": 96,
          "midi": 32,
          "name": "G#1",
          "ticks": 49344,
          "time": 40.578886499999996,
          "velocity": 0.07874015748031496
        },
        {
          "duration": 0.0789472499999988,
          "durationTicks": 96,
          "midi": 28,
          "name": "E1",
          "ticks": 49536,
          "time": 40.736781,
          "velocity": 0.07874015748031496
        },
        {
          "duration": 0.0789472499999988,
          "durationTicks": 96,
          "midi": 40,
          "name": "E2",
          "ticks": 49536,
          "time": 40.736781,
          "velocity": 0.07874015748031496
        },
        {
          "duration": 0.0789472499999988,
          "durationTicks": 96,
          "midi": 42,
          "name": "F#2",
          "ticks": 49536,
          "time": 40.736781,
          "velocity": 0.07874015748031496
        },
        {
          "duration": 0.0789472499999988,
          "durationTicks": 96,
          "midi": 32,
          "name": "G#1",
          "ticks": 49536,
          "time": 40.736781,
          "velocity": 0.07874015748031496
        },
        {
          "duration": 0.0789472499999988,
          "durationTicks": 96,
          "midi": 44,
          "name": "G#2",
          "ticks": 49536,
          "time": 40.736781,
          "velocity": 0.07874015748031496
        },
        {
          "duration": 0.0789472499999988,
          "durationTicks": 96,
          "midi": 42,
          "name": "F#2",
          "ticks": 49728,
          "time": 40.8946755,
          "velocity": 0.07874015748031496
        },
        {
          "duration": 0.0789472499999988,
          "durationTicks": 96,
          "midi": 32,
          "name": "G#1",
          "ticks": 49728,
          "time": 40.8946755,
          "velocity": 0.07874015748031496
        },
        {
          "duration": 0.07894725000000591,
          "durationTicks": 96,
          "midi": 32,
          "name": "G#1",
          "ticks": 49920,
          "time": 41.052569999999996,
          "velocity": 0.07874015748031496
        },
        {
          "duration": 0.07894725000000591,
          "durationTicks": 96,
          "midi": 42,
          "name": "F#2",
          "ticks": 49920,
          "time": 41.052569999999996,
          "velocity": 0.07874015748031496
        },
        {
          "duration": 0.0789472499999988,
          "durationTicks": 96,
          "midi": 40,
          "name": "E2",
          "ticks": 50112,
          "time": 41.2104645,
          "velocity": 0.07874015748031496
        },
        {
          "duration": 0.0789472499999988,
          "durationTicks": 96,
          "midi": 32,
          "name": "G#1",
          "ticks": 50112,
          "time": 41.2104645,
          "velocity": 0.07874015748031496
        },
        {
          "duration": 0.0789472499999988,
          "durationTicks": 96,
          "midi": 42,
          "name": "F#2",
          "ticks": 50112,
          "time": 41.2104645,
          "velocity": 0.07874015748031496
        },
        {
          "duration": 0.0789472499999988,
          "durationTicks": 96,
          "midi": 44,
          "name": "G#2",
          "ticks": 50112,
          "time": 41.2104645,
          "velocity": 0.07874015748031496
        },
        {
          "duration": 0.0789472499999988,
          "durationTicks": 96,
          "midi": 28,
          "name": "E1",
          "ticks": 50112,
          "time": 41.2104645,
          "velocity": 0.07874015748031496
        },
        {
          "duration": 0.0789472499999988,
          "durationTicks": 96,
          "midi": 32,
          "name": "G#1",
          "ticks": 50304,
          "time": 41.368359,
          "velocity": 0.07874015748031496
        },
        {
          "duration": 0.0789472499999988,
          "durationTicks": 96,
          "midi": 42,
          "name": "F#2",
          "ticks": 50304,
          "time": 41.368359,
          "velocity": 0.07874015748031496
        },
        {
          "duration": 0.07894725000000591,
          "durationTicks": 96,
          "midi": 28,
          "name": "E1",
          "ticks": 50496,
          "time": 41.526253499999996,
          "velocity": 0.07874015748031496
        },
        {
          "duration": 0.07894725000000591,
          "durationTicks": 96,
          "midi": 42,
          "name": "F#2",
          "ticks": 50496,
          "time": 41.526253499999996,
          "velocity": 0.07874015748031496
        },
        {
          "duration": 0.07894725000000591,
          "durationTicks": 96,
          "midi": 44,
          "name": "G#2",
          "ticks": 50496,
          "time": 41.526253499999996,
          "velocity": 0.07874015748031496
        },
        {
          "duration": 0.07894725000000591,
          "durationTicks": 96,
          "midi": 32,
          "name": "G#1",
          "ticks": 50496,
          "time": 41.526253499999996,
          "velocity": 0.07874015748031496
        },
        {
          "duration": 0.07894725000000591,
          "durationTicks": 96,
          "midi": 40,
          "name": "E2",
          "ticks": 50496,
          "time": 41.526253499999996,
          "velocity": 0.07874015748031496
        },
        {
          "duration": 0.0789472499999988,
          "durationTicks": 96,
          "midi": 42,
          "name": "F#2",
          "ticks": 50592,
          "time": 41.60520075,
          "velocity": 0.07874015748031496
        },
        {
          "duration": 0.0789472499999988,
          "durationTicks": 96,
          "midi": 32,
          "name": "G#1",
          "ticks": 50688,
          "time": 41.684148,
          "velocity": 0.07874015748031496
        },
        {
          "duration": 0.0789472499999988,
          "durationTicks": 96,
          "midi": 42,
          "name": "F#2",
          "ticks": 50688,
          "time": 41.684148,
          "velocity": 0.07874015748031496
        },
        {
          "duration": 0.0789472499999988,
          "durationTicks": 96,
          "midi": 35,
          "name": "B1",
          "ticks": 50688,
          "time": 41.684148,
          "velocity": 0.05511811023622047
        },
        {
          "duration": 0.0789472499999988,
          "durationTicks": 96,
          "midi": 42,
          "name": "F#2",
          "ticks": 50880,
          "time": 41.8420425,
          "velocity": 0.07874015748031496
        },
        {
          "duration": 0.0789472499999988,
          "durationTicks": 96,
          "midi": 32,
          "name": "G#1",
          "ticks": 50880,
          "time": 41.8420425,
          "velocity": 0.07874015748031496
        },
        {
          "duration": 0.07894725000000591,
          "durationTicks": 96,
          "midi": 32,
          "name": "G#1",
          "ticks": 51072,
          "time": 41.999936999999996,
          "velocity": 0.07874015748031496
        },
        {
          "duration": 0.07894725000000591,
          "durationTicks": 96,
          "midi": 28,
          "name": "E1",
          "ticks": 51072,
          "time": 41.999936999999996,
          "velocity": 0.07874015748031496
        },
        {
          "duration": 0.07894725000000591,
          "durationTicks": 96,
          "midi": 40,
          "name": "E2",
          "ticks": 51072,
          "time": 41.999936999999996,
          "velocity": 0.07874015748031496
        },
        {
          "duration": 0.07894725000000591,
          "durationTicks": 96,
          "midi": 44,
          "name": "G#2",
          "ticks": 51072,
          "time": 41.999936999999996,
          "velocity": 0.07874015748031496
        },
        {
          "duration": 0.07894725000000591,
          "durationTicks": 96,
          "midi": 42,
          "name": "F#2",
          "ticks": 51072,
          "time": 41.999936999999996,
          "velocity": 0.07874015748031496
        },
        {
          "duration": 0.0789472499999988,
          "durationTicks": 96,
          "midi": 42,
          "name": "F#2",
          "ticks": 51264,
          "time": 42.1578315,
          "velocity": 0.07874015748031496
        },
        {
          "duration": 0.0789472499999988,
          "durationTicks": 96,
          "midi": 32,
          "name": "G#1",
          "ticks": 51264,
          "time": 42.1578315,
          "velocity": 0.07874015748031496
        },
        {
          "duration": 0.0789472499999988,
          "durationTicks": 96,
          "midi": 42,
          "name": "F#2",
          "ticks": 51456,
          "time": 42.315726,
          "velocity": 0.07874015748031496
        },
        {
          "duration": 0.0789472499999988,
          "durationTicks": 96,
          "midi": 32,
          "name": "G#1",
          "ticks": 51456,
          "time": 42.315726,
          "velocity": 0.07874015748031496
        },
        {
          "duration": 0.07894725000000591,
          "durationTicks": 96,
          "midi": 42,
          "name": "F#2",
          "ticks": 51648,
          "time": 42.473620499999996,
          "velocity": 0.07874015748031496
        },
        {
          "duration": 0.07894725000000591,
          "durationTicks": 96,
          "midi": 44,
          "name": "G#2",
          "ticks": 51648,
          "time": 42.473620499999996,
          "velocity": 0.07874015748031496
        },
        {
          "duration": 0.07894725000000591,
          "durationTicks": 96,
          "midi": 32,
          "name": "G#1",
          "ticks": 51648,
          "time": 42.473620499999996,
          "velocity": 0.07874015748031496
        },
        {
          "duration": 0.07894725000000591,
          "durationTicks": 96,
          "midi": 28,
          "name": "E1",
          "ticks": 51648,
          "time": 42.473620499999996,
          "velocity": 0.07874015748031496
        },
        {
          "duration": 0.07894725000000591,
          "durationTicks": 96,
          "midi": 40,
          "name": "E2",
          "ticks": 51648,
          "time": 42.473620499999996,
          "velocity": 0.07874015748031496
        },
        {
          "duration": 0.0789472499999988,
          "durationTicks": 96,
          "midi": 42,
          "name": "F#2",
          "ticks": 51840,
          "time": 42.631515,
          "velocity": 0.07874015748031496
        },
        {
          "duration": 0.0789472499999988,
          "durationTicks": 96,
          "midi": 32,
          "name": "G#1",
          "ticks": 51840,
          "time": 42.631515,
          "velocity": 0.07874015748031496
        },
        {
          "duration": 0.0789472499999988,
          "durationTicks": 96,
          "midi": 42,
          "name": "F#2",
          "ticks": 52032,
          "time": 42.7894095,
          "velocity": 0.07874015748031496
        },
        {
          "duration": 0.0789472499999988,
          "durationTicks": 96,
          "midi": 44,
          "name": "G#2",
          "ticks": 52032,
          "time": 42.7894095,
          "velocity": 0.07874015748031496
        },
        {
          "duration": 0.0789472499999988,
          "durationTicks": 96,
          "midi": 28,
          "name": "E1",
          "ticks": 52032,
          "time": 42.7894095,
          "velocity": 0.07874015748031496
        },
        {
          "duration": 0.0789472499999988,
          "durationTicks": 96,
          "midi": 32,
          "name": "G#1",
          "ticks": 52032,
          "time": 42.7894095,
          "velocity": 0.07874015748031496
        },
        {
          "duration": 0.0789472499999988,
          "durationTicks": 96,
          "midi": 40,
          "name": "E2",
          "ticks": 52032,
          "time": 42.7894095,
          "velocity": 0.07874015748031496
        },
        {
          "duration": 0.0789472499999988,
          "durationTicks": 96,
          "midi": 42,
          "name": "F#2",
          "ticks": 52128,
          "time": 42.86835675,
          "velocity": 0.07874015748031496
        },
        {
          "duration": 0.07894725000000591,
          "durationTicks": 96,
          "midi": 35,
          "name": "B1",
          "ticks": 52224,
          "time": 42.947303999999995,
          "velocity": 0.05511811023622047
        },
        {
          "duration": 0.07894725000000591,
          "durationTicks": 96,
          "midi": 32,
          "name": "G#1",
          "ticks": 52224,
          "time": 42.947303999999995,
          "velocity": 0.07874015748031496
        },
        {
          "duration": 0.07894725000000591,
          "durationTicks": 96,
          "midi": 42,
          "name": "F#2",
          "ticks": 52224,
          "time": 42.947303999999995,
          "velocity": 0.07874015748031496
        },
        {
          "duration": 0.0789472499999988,
          "durationTicks": 96,
          "midi": 42,
          "name": "F#2",
          "ticks": 52416,
          "time": 43.1051985,
          "velocity": 0.07874015748031496
        },
        {
          "duration": 0.0789472499999988,
          "durationTicks": 96,
          "midi": 32,
          "name": "G#1",
          "ticks": 52416,
          "time": 43.1051985,
          "velocity": 0.07874015748031496
        },
        {
          "duration": 0.0789472499999988,
          "durationTicks": 96,
          "midi": 40,
          "name": "E2",
          "ticks": 52608,
          "time": 43.263093,
          "velocity": 0.07874015748031496
        },
        {
          "duration": 0.0789472499999988,
          "durationTicks": 96,
          "midi": 42,
          "name": "F#2",
          "ticks": 52608,
          "time": 43.263093,
          "velocity": 0.07874015748031496
        },
        {
          "duration": 0.0789472499999988,
          "durationTicks": 96,
          "midi": 28,
          "name": "E1",
          "ticks": 52608,
          "time": 43.263093,
          "velocity": 0.07874015748031496
        },
        {
          "duration": 0.0789472499999988,
          "durationTicks": 96,
          "midi": 44,
          "name": "G#2",
          "ticks": 52608,
          "time": 43.263093,
          "velocity": 0.07874015748031496
        },
        {
          "duration": 0.0789472499999988,
          "durationTicks": 96,
          "midi": 32,
          "name": "G#1",
          "ticks": 52608,
          "time": 43.263093,
          "velocity": 0.07874015748031496
        },
        {
          "duration": 0.07894725000000591,
          "durationTicks": 96,
          "midi": 32,
          "name": "G#1",
          "ticks": 52800,
          "time": 43.420987499999995,
          "velocity": 0.07874015748031496
        },
        {
          "duration": 0.07894725000000591,
          "durationTicks": 96,
          "midi": 42,
          "name": "F#2",
          "ticks": 52800,
          "time": 43.420987499999995,
          "velocity": 0.07874015748031496
        },
        {
          "duration": 0.0789472499999988,
          "durationTicks": 96,
          "midi": 32,
          "name": "G#1",
          "ticks": 52992,
          "time": 43.578882,
          "velocity": 0.07874015748031496
        },
        {
          "duration": 0.0789472499999988,
          "durationTicks": 96,
          "midi": 42,
          "name": "F#2",
          "ticks": 52992,
          "time": 43.578882,
          "velocity": 0.07874015748031496
        },
        {
          "duration": 0.0789472499999988,
          "durationTicks": 96,
          "midi": 44,
          "name": "G#2",
          "ticks": 53184,
          "time": 43.7367765,
          "velocity": 0.07874015748031496
        },
        {
          "duration": 0.0789472499999988,
          "durationTicks": 96,
          "midi": 28,
          "name": "E1",
          "ticks": 53184,
          "time": 43.7367765,
          "velocity": 0.07874015748031496
        },
        {
          "duration": 0.0789472499999988,
          "durationTicks": 96,
          "midi": 40,
          "name": "E2",
          "ticks": 53184,
          "time": 43.7367765,
          "velocity": 0.07874015748031496
        },
        {
          "duration": 0.0789472499999988,
          "durationTicks": 96,
          "midi": 32,
          "name": "G#1",
          "ticks": 53184,
          "time": 43.7367765,
          "velocity": 0.07874015748031496
        },
        {
          "duration": 0.0789472499999988,
          "durationTicks": 96,
          "midi": 42,
          "name": "F#2",
          "ticks": 53184,
          "time": 43.7367765,
          "velocity": 0.07874015748031496
        },
        {
          "duration": 0.07894725000000591,
          "durationTicks": 96,
          "midi": 42,
          "name": "F#2",
          "ticks": 53376,
          "time": 43.894670999999995,
          "velocity": 0.07874015748031496
        },
        {
          "duration": 0.07894725000000591,
          "durationTicks": 96,
          "midi": 32,
          "name": "G#1",
          "ticks": 53376,
          "time": 43.894670999999995,
          "velocity": 0.07874015748031496
        },
        {
          "duration": 0.0789472499999988,
          "durationTicks": 96,
          "midi": 40,
          "name": "E2",
          "ticks": 53568,
          "time": 44.0525655,
          "velocity": 0.07874015748031496
        },
        {
          "duration": 0.0789472499999988,
          "durationTicks": 96,
          "midi": 42,
          "name": "F#2",
          "ticks": 53568,
          "time": 44.0525655,
          "velocity": 0.07874015748031496
        },
        {
          "duration": 0.0789472499999988,
          "durationTicks": 96,
          "midi": 32,
          "name": "G#1",
          "ticks": 53568,
          "time": 44.0525655,
          "velocity": 0.07874015748031496
        },
        {
          "duration": 0.0789472499999988,
          "durationTicks": 96,
          "midi": 44,
          "name": "G#2",
          "ticks": 53568,
          "time": 44.0525655,
          "velocity": 0.07874015748031496
        },
        {
          "duration": 0.0789472499999988,
          "durationTicks": 96,
          "midi": 28,
          "name": "E1",
          "ticks": 53568,
          "time": 44.0525655,
          "velocity": 0.07874015748031496
        },
        {
          "duration": 0.0789472499999988,
          "durationTicks": 96,
          "midi": 42,
          "name": "F#2",
          "ticks": 53664,
          "time": 44.13151275,
          "velocity": 0.07874015748031496
        },
        {
          "duration": 0.0789472499999988,
          "durationTicks": 96,
          "midi": 32,
          "name": "G#1",
          "ticks": 53760,
          "time": 44.21046,
          "velocity": 0.07874015748031496
        },
        {
          "duration": 0.0789472499999988,
          "durationTicks": 96,
          "midi": 35,
          "name": "B1",
          "ticks": 53760,
          "time": 44.21046,
          "velocity": 0.05511811023622047
        },
        {
          "duration": 0.0789472499999988,
          "durationTicks": 96,
          "midi": 42,
          "name": "F#2",
          "ticks": 53760,
          "time": 44.21046,
          "velocity": 0.07874015748031496
        },
        {
          "duration": 0.07894725000000591,
          "durationTicks": 96,
          "midi": 42,
          "name": "F#2",
          "ticks": 53952,
          "time": 44.368354499999995,
          "velocity": 0.07874015748031496
        },
        {
          "duration": 0.07894725000000591,
          "durationTicks": 96,
          "midi": 32,
          "name": "G#1",
          "ticks": 53952,
          "time": 44.368354499999995,
          "velocity": 0.07874015748031496
        },
        {
          "duration": 0.0789472499999988,
          "durationTicks": 96,
          "midi": 40,
          "name": "E2",
          "ticks": 54144,
          "time": 44.526249,
          "velocity": 0.07874015748031496
        },
        {
          "duration": 0.0789472499999988,
          "durationTicks": 96,
          "midi": 44,
          "name": "G#2",
          "ticks": 54144,
          "time": 44.526249,
          "velocity": 0.07874015748031496
        },
        {
          "duration": 0.0789472499999988,
          "durationTicks": 96,
          "midi": 32,
          "name": "G#1",
          "ticks": 54144,
          "time": 44.526249,
          "velocity": 0.07874015748031496
        },
        {
          "duration": 0.0789472499999988,
          "durationTicks": 96,
          "midi": 28,
          "name": "E1",
          "ticks": 54144,
          "time": 44.526249,
          "velocity": 0.07874015748031496
        },
        {
          "duration": 0.0789472499999988,
          "durationTicks": 96,
          "midi": 42,
          "name": "F#2",
          "ticks": 54144,
          "time": 44.526249,
          "velocity": 0.07874015748031496
        },
        {
          "duration": 0.0789472499999988,
          "durationTicks": 96,
          "midi": 42,
          "name": "F#2",
          "ticks": 54336,
          "time": 44.6841435,
          "velocity": 0.07874015748031496
        },
        {
          "duration": 0.0789472499999988,
          "durationTicks": 96,
          "midi": 32,
          "name": "G#1",
          "ticks": 54336,
          "time": 44.6841435,
          "velocity": 0.07874015748031496
        },
        {
          "duration": 0.07894725000000591,
          "durationTicks": 96,
          "midi": 42,
          "name": "F#2",
          "ticks": 54528,
          "time": 44.842037999999995,
          "velocity": 0.07874015748031496
        },
        {
          "duration": 0.07894725000000591,
          "durationTicks": 96,
          "midi": 32,
          "name": "G#1",
          "ticks": 54528,
          "time": 44.842037999999995,
          "velocity": 0.07874015748031496
        },
        {
          "duration": 0.0789472499999988,
          "durationTicks": 96,
          "midi": 42,
          "name": "F#2",
          "ticks": 54720,
          "time": 44.9999325,
          "velocity": 0.07874015748031496
        },
        {
          "duration": 0.0789472499999988,
          "durationTicks": 96,
          "midi": 44,
          "name": "G#2",
          "ticks": 54720,
          "time": 44.9999325,
          "velocity": 0.07874015748031496
        },
        {
          "duration": 0.0789472499999988,
          "durationTicks": 96,
          "midi": 28,
          "name": "E1",
          "ticks": 54720,
          "time": 44.9999325,
          "velocity": 0.07874015748031496
        },
        {
          "duration": 0.0789472499999988,
          "durationTicks": 96,
          "midi": 32,
          "name": "G#1",
          "ticks": 54720,
          "time": 44.9999325,
          "velocity": 0.07874015748031496
        },
        {
          "duration": 0.0789472499999988,
          "durationTicks": 96,
          "midi": 40,
          "name": "E2",
          "ticks": 54720,
          "time": 44.9999325,
          "velocity": 0.07874015748031496
        },
        {
          "duration": 0.0789472499999988,
          "durationTicks": 96,
          "midi": 42,
          "name": "F#2",
          "ticks": 54912,
          "time": 45.157827,
          "velocity": 0.07874015748031496
        },
        {
          "duration": 0.0789472499999988,
          "durationTicks": 96,
          "midi": 32,
          "name": "G#1",
          "ticks": 54912,
          "time": 45.157827,
          "velocity": 0.07874015748031496
        },
        {
          "duration": 0.07894725000000591,
          "durationTicks": 96,
          "midi": 32,
          "name": "G#1",
          "ticks": 55104,
          "time": 45.315721499999995,
          "velocity": 0.07874015748031496
        },
        {
          "duration": 0.07894725000000591,
          "durationTicks": 96,
          "midi": 42,
          "name": "F#2",
          "ticks": 55104,
          "time": 45.315721499999995,
          "velocity": 0.07874015748031496
        },
        {
          "duration": 0.07894725000000591,
          "durationTicks": 96,
          "midi": 44,
          "name": "G#2",
          "ticks": 55104,
          "time": 45.315721499999995,
          "velocity": 0.07874015748031496
        },
        {
          "duration": 0.07894725000000591,
          "durationTicks": 96,
          "midi": 28,
          "name": "E1",
          "ticks": 55104,
          "time": 45.315721499999995,
          "velocity": 0.07874015748031496
        },
        {
          "duration": 0.07894725000000591,
          "durationTicks": 96,
          "midi": 40,
          "name": "E2",
          "ticks": 55104,
          "time": 45.315721499999995,
          "velocity": 0.07874015748031496
        },
        {
          "duration": 0.0789472499999988,
          "durationTicks": 96,
          "midi": 42,
          "name": "F#2",
          "ticks": 55200,
          "time": 45.39466875,
          "velocity": 0.07874015748031496
        },
        {
          "duration": 0.0789472499999988,
          "durationTicks": 96,
          "midi": 42,
          "name": "F#2",
          "ticks": 55296,
          "time": 45.473616,
          "velocity": 0.07874015748031496
        },
        {
          "duration": 0.0789472499999988,
          "durationTicks": 96,
          "midi": 32,
          "name": "G#1",
          "ticks": 55296,
          "time": 45.473616,
          "velocity": 0.07874015748031496
        },
        {
          "duration": 0.0789472499999988,
          "durationTicks": 96,
          "midi": 35,
          "name": "B1",
          "ticks": 55296,
          "time": 45.473616,
          "velocity": 0.05511811023622047
        },
        {
          "duration": 0.0789472499999988,
          "durationTicks": 96,
          "midi": 42,
          "name": "F#2",
          "ticks": 55488,
          "time": 45.6315105,
          "velocity": 0.07874015748031496
        },
        {
          "duration": 0.0789472499999988,
          "durationTicks": 96,
          "midi": 32,
          "name": "G#1",
          "ticks": 55488,
          "time": 45.6315105,
          "velocity": 0.07874015748031496
        },
        {
          "duration": 0.07894725000000591,
          "durationTicks": 96,
          "midi": 42,
          "name": "F#2",
          "ticks": 55680,
          "time": 45.789404999999995,
          "velocity": 0.07874015748031496
        },
        {
          "duration": 0.07894725000000591,
          "durationTicks": 96,
          "midi": 32,
          "name": "G#1",
          "ticks": 55680,
          "time": 45.789404999999995,
          "velocity": 0.07874015748031496
        },
        {
          "duration": 0.07894725000000591,
          "durationTicks": 96,
          "midi": 44,
          "name": "G#2",
          "ticks": 55680,
          "time": 45.789404999999995,
          "velocity": 0.07874015748031496
        },
        {
          "duration": 0.07894725000000591,
          "durationTicks": 96,
          "midi": 28,
          "name": "E1",
          "ticks": 55680,
          "time": 45.789404999999995,
          "velocity": 0.07874015748031496
        },
        {
          "duration": 0.07894725000000591,
          "durationTicks": 96,
          "midi": 40,
          "name": "E2",
          "ticks": 55680,
          "time": 45.789404999999995,
          "velocity": 0.07874015748031496
        },
        {
          "duration": 0.0789472499999988,
          "durationTicks": 96,
          "midi": 32,
          "name": "G#1",
          "ticks": 55872,
          "time": 45.9472995,
          "velocity": 0.07874015748031496
        },
        {
          "duration": 0.0789472499999988,
          "durationTicks": 96,
          "midi": 42,
          "name": "F#2",
          "ticks": 55872,
          "time": 45.9472995,
          "velocity": 0.07874015748031496
        },
        {
          "duration": 0.0789472499999988,
          "durationTicks": 96,
          "midi": 42,
          "name": "F#2",
          "ticks": 56064,
          "time": 46.105194,
          "velocity": 0.07874015748031496
        },
        {
          "duration": 0.0789472499999988,
          "durationTicks": 96,
          "midi": 32,
          "name": "G#1",
          "ticks": 56064,
          "time": 46.105194,
          "velocity": 0.07874015748031496
        },
        {
          "duration": 0.07894725000000591,
          "durationTicks": 96,
          "midi": 42,
          "name": "F#2",
          "ticks": 56256,
          "time": 46.263088499999995,
          "velocity": 0.07874015748031496
        },
        {
          "duration": 0.07894725000000591,
          "durationTicks": 96,
          "midi": 28,
          "name": "E1",
          "ticks": 56256,
          "time": 46.263088499999995,
          "velocity": 0.07874015748031496
        },
        {
          "duration": 0.07894725000000591,
          "durationTicks": 96,
          "midi": 40,
          "name": "E2",
          "ticks": 56256,
          "time": 46.263088499999995,
          "velocity": 0.07874015748031496
        },
        {
          "duration": 0.07894725000000591,
          "durationTicks": 96,
          "midi": 32,
          "name": "G#1",
          "ticks": 56256,
          "time": 46.263088499999995,
          "velocity": 0.07874015748031496
        },
        {
          "duration": 0.07894725000000591,
          "durationTicks": 96,
          "midi": 44,
          "name": "G#2",
          "ticks": 56256,
          "time": 46.263088499999995,
          "velocity": 0.07874015748031496
        },
        {
          "duration": 0.0789472499999988,
          "durationTicks": 96,
          "midi": 32,
          "name": "G#1",
          "ticks": 56448,
          "time": 46.420983,
          "velocity": 0.07874015748031496
        },
        {
          "duration": 0.0789472499999988,
          "durationTicks": 96,
          "midi": 42,
          "name": "F#2",
          "ticks": 56448,
          "time": 46.420983,
          "velocity": 0.07874015748031496
        },
        {
          "duration": 0.0789472499999988,
          "durationTicks": 96,
          "midi": 42,
          "name": "F#2",
          "ticks": 56640,
          "time": 46.5788775,
          "velocity": 0.07874015748031496
        },
        {
          "duration": 0.0789472499999988,
          "durationTicks": 96,
          "midi": 44,
          "name": "G#2",
          "ticks": 56640,
          "time": 46.5788775,
          "velocity": 0.07874015748031496
        },
        {
          "duration": 0.0789472499999988,
          "durationTicks": 96,
          "midi": 32,
          "name": "G#1",
          "ticks": 56640,
          "time": 46.5788775,
          "velocity": 0.07874015748031496
        },
        {
          "duration": 0.0789472499999988,
          "durationTicks": 96,
          "midi": 40,
          "name": "E2",
          "ticks": 56640,
          "time": 46.5788775,
          "velocity": 0.07874015748031496
        },
        {
          "duration": 0.0789472499999988,
          "durationTicks": 96,
          "midi": 28,
          "name": "E1",
          "ticks": 56640,
          "time": 46.5788775,
          "velocity": 0.07874015748031496
        },
        {
          "duration": 0.0789472499999988,
          "durationTicks": 96,
          "midi": 42,
          "name": "F#2",
          "ticks": 56736,
          "time": 46.657824749999996,
          "velocity": 0.07874015748031496
        },
        {
          "duration": 0.07894725000000591,
          "durationTicks": 96,
          "midi": 42,
          "name": "F#2",
          "ticks": 56832,
          "time": 46.736771999999995,
          "velocity": 0.07874015748031496
        },
        {
          "duration": 0.07894725000000591,
          "durationTicks": 96,
          "midi": 35,
          "name": "B1",
          "ticks": 56832,
          "time": 46.736771999999995,
          "velocity": 0.05511811023622047
        },
        {
          "duration": 0.07894725000000591,
          "durationTicks": 96,
          "midi": 32,
          "name": "G#1",
          "ticks": 56832,
          "time": 46.736771999999995,
          "velocity": 0.07874015748031496
        },
        {
          "duration": 0.0789472499999988,
          "durationTicks": 96,
          "midi": 42,
          "name": "F#2",
          "ticks": 57024,
          "time": 46.8946665,
          "velocity": 0.07874015748031496
        },
        {
          "duration": 0.0789472499999988,
          "durationTicks": 96,
          "midi": 32,
          "name": "G#1",
          "ticks": 57024,
          "time": 46.8946665,
          "velocity": 0.07874015748031496
        },
        {
          "duration": 0.0789472499999988,
          "durationTicks": 96,
          "midi": 40,
          "name": "E2",
          "ticks": 57216,
          "time": 47.052561,
          "velocity": 0.07874015748031496
        },
        {
          "duration": 0.0789472499999988,
          "durationTicks": 96,
          "midi": 42,
          "name": "F#2",
          "ticks": 57216,
          "time": 47.052561,
          "velocity": 0.07874015748031496
        },
        {
          "duration": 0.0789472499999988,
          "durationTicks": 96,
          "midi": 44,
          "name": "G#2",
          "ticks": 57216,
          "time": 47.052561,
          "velocity": 0.07874015748031496
        },
        {
          "duration": 0.0789472499999988,
          "durationTicks": 96,
          "midi": 28,
          "name": "E1",
          "ticks": 57216,
          "time": 47.052561,
          "velocity": 0.07874015748031496
        },
        {
          "duration": 0.0789472499999988,
          "durationTicks": 96,
          "midi": 32,
          "name": "G#1",
          "ticks": 57216,
          "time": 47.052561,
          "velocity": 0.07874015748031496
        },
        {
          "duration": 0.07894725000000591,
          "durationTicks": 96,
          "midi": 32,
          "name": "G#1",
          "ticks": 57408,
          "time": 47.210455499999995,
          "velocity": 0.07874015748031496
        },
        {
          "duration": 0.07894725000000591,
          "durationTicks": 96,
          "midi": 42,
          "name": "F#2",
          "ticks": 57408,
          "time": 47.210455499999995,
          "velocity": 0.07874015748031496
        },
        {
          "duration": 0.0789472499999988,
          "durationTicks": 96,
          "midi": 42,
          "name": "F#2",
          "ticks": 57600,
          "time": 47.36835,
          "velocity": 0.07874015748031496
        },
        {
          "duration": 0.0789472499999988,
          "durationTicks": 96,
          "midi": 32,
          "name": "G#1",
          "ticks": 57600,
          "time": 47.36835,
          "velocity": 0.07874015748031496
        },
        {
          "duration": 0.0789472499999988,
          "durationTicks": 96,
          "midi": 32,
          "name": "G#1",
          "ticks": 57792,
          "time": 47.5262445,
          "velocity": 0.07874015748031496
        },
        {
          "duration": 0.0789472499999988,
          "durationTicks": 96,
          "midi": 28,
          "name": "E1",
          "ticks": 57792,
          "time": 47.5262445,
          "velocity": 0.07874015748031496
        },
        {
          "duration": 0.0789472499999988,
          "durationTicks": 96,
          "midi": 40,
          "name": "E2",
          "ticks": 57792,
          "time": 47.5262445,
          "velocity": 0.07874015748031496
        },
        {
          "duration": 0.0789472499999988,
          "durationTicks": 96,
          "midi": 44,
          "name": "G#2",
          "ticks": 57792,
          "time": 47.5262445,
          "velocity": 0.07874015748031496
        },
        {
          "duration": 0.0789472499999988,
          "durationTicks": 96,
          "midi": 42,
          "name": "F#2",
          "ticks": 57792,
          "time": 47.5262445,
          "velocity": 0.07874015748031496
        },
        {
          "duration": 0.07894725000000591,
          "durationTicks": 96,
          "midi": 42,
          "name": "F#2",
          "ticks": 57984,
          "time": 47.684138999999995,
          "velocity": 0.07874015748031496
        },
        {
          "duration": 0.07894725000000591,
          "durationTicks": 96,
          "midi": 32,
          "name": "G#1",
          "ticks": 57984,
          "time": 47.684138999999995,
          "velocity": 0.07874015748031496
        },
        {
          "duration": 0.0789472499999988,
          "durationTicks": 96,
          "midi": 40,
          "name": "E2",
          "ticks": 58176,
          "time": 47.8420335,
          "velocity": 0.07874015748031496
        },
        {
          "duration": 0.0789472499999988,
          "durationTicks": 96,
          "midi": 28,
          "name": "E1",
          "ticks": 58176,
          "time": 47.8420335,
          "velocity": 0.07874015748031496
        },
        {
          "duration": 0.0789472499999988,
          "durationTicks": 96,
          "midi": 32,
          "name": "G#1",
          "ticks": 58176,
          "time": 47.8420335,
          "velocity": 0.07874015748031496
        },
        {
          "duration": 0.0789472499999988,
          "durationTicks": 96,
          "midi": 42,
          "name": "F#2",
          "ticks": 58176,
          "time": 47.8420335,
          "velocity": 0.07874015748031496
        },
        {
          "duration": 0.0789472499999988,
          "durationTicks": 96,
          "midi": 44,
          "name": "G#2",
          "ticks": 58176,
          "time": 47.8420335,
          "velocity": 0.07874015748031496
        },
        {
          "duration": 0.0789472499999988,
          "durationTicks": 96,
          "midi": 42,
          "name": "F#2",
          "ticks": 58272,
          "time": 47.92098075,
          "velocity": 0.07874015748031496
        },
        {
          "duration": 0.0789472499999988,
          "durationTicks": 96,
          "midi": 35,
          "name": "B1",
          "ticks": 58368,
          "time": 47.999928,
          "velocity": 0.05511811023622047
        },
        {
          "duration": 0.0789472499999988,
          "durationTicks": 96,
          "midi": 32,
          "name": "G#1",
          "ticks": 58368,
          "time": 47.999928,
          "velocity": 0.07874015748031496
        },
        {
          "duration": 0.0789472499999988,
          "durationTicks": 96,
          "midi": 42,
          "name": "F#2",
          "ticks": 58368,
          "time": 47.999928,
          "velocity": 0.07874015748031496
        },
        {
          "duration": 0.07894725000000591,
          "durationTicks": 96,
          "midi": 32,
          "name": "G#1",
          "ticks": 58560,
          "time": 48.157822499999995,
          "velocity": 0.07874015748031496
        },
        {
          "duration": 0.07894725000000591,
          "durationTicks": 96,
          "midi": 42,
          "name": "F#2",
          "ticks": 58560,
          "time": 48.157822499999995,
          "velocity": 0.07874015748031496
        },
        {
          "duration": 0.0789472499999988,
          "durationTicks": 96,
          "midi": 44,
          "name": "G#2",
          "ticks": 58752,
          "time": 48.315717,
          "velocity": 0.07874015748031496
        },
        {
          "duration": 0.0789472499999988,
          "durationTicks": 96,
          "midi": 42,
          "name": "F#2",
          "ticks": 58752,
          "time": 48.315717,
          "velocity": 0.07874015748031496
        },
        {
          "duration": 0.0789472499999988,
          "durationTicks": 96,
          "midi": 40,
          "name": "E2",
          "ticks": 58752,
          "time": 48.315717,
          "velocity": 0.07874015748031496
        },
        {
          "duration": 0.0789472499999988,
          "durationTicks": 96,
          "midi": 32,
          "name": "G#1",
          "ticks": 58752,
          "time": 48.315717,
          "velocity": 0.07874015748031496
        },
        {
          "duration": 0.0789472499999988,
          "durationTicks": 96,
          "midi": 28,
          "name": "E1",
          "ticks": 58752,
          "time": 48.315717,
          "velocity": 0.07874015748031496
        },
        {
          "duration": 0.0789472499999988,
          "durationTicks": 96,
          "midi": 42,
          "name": "F#2",
          "ticks": 58944,
          "time": 48.4736115,
          "velocity": 0.07874015748031496
        },
        {
          "duration": 0.0789472499999988,
          "durationTicks": 96,
          "midi": 32,
          "name": "G#1",
          "ticks": 58944,
          "time": 48.4736115,
          "velocity": 0.07874015748031496
        },
        {
          "duration": 0.07894725000000591,
          "durationTicks": 96,
          "midi": 32,
          "name": "G#1",
          "ticks": 59136,
          "time": 48.631505999999995,
          "velocity": 0.07874015748031496
        },
        {
          "duration": 0.07894725000000591,
          "durationTicks": 96,
          "midi": 42,
          "name": "F#2",
          "ticks": 59136,
          "time": 48.631505999999995,
          "velocity": 0.07874015748031496
        },
        {
          "duration": 0.0789472499999988,
          "durationTicks": 96,
          "midi": 32,
          "name": "G#1",
          "ticks": 59328,
          "time": 48.7894005,
          "velocity": 0.07874015748031496
        },
        {
          "duration": 0.0789472499999988,
          "durationTicks": 96,
          "midi": 28,
          "name": "E1",
          "ticks": 59328,
          "time": 48.7894005,
          "velocity": 0.07874015748031496
        },
        {
          "duration": 0.0789472499999988,
          "durationTicks": 96,
          "midi": 40,
          "name": "E2",
          "ticks": 59328,
          "time": 48.7894005,
          "velocity": 0.07874015748031496
        },
        {
          "duration": 0.0789472499999988,
          "durationTicks": 96,
          "midi": 42,
          "name": "F#2",
          "ticks": 59328,
          "time": 48.7894005,
          "velocity": 0.07874015748031496
        },
        {
          "duration": 0.0789472499999988,
          "durationTicks": 96,
          "midi": 44,
          "name": "G#2",
          "ticks": 59328,
          "time": 48.7894005,
          "velocity": 0.07874015748031496
        },
        {
          "duration": 0.0789472499999988,
          "durationTicks": 96,
          "midi": 32,
          "name": "G#1",
          "ticks": 59520,
          "time": 48.947295,
          "velocity": 0.07874015748031496
        },
        {
          "duration": 0.0789472499999988,
          "durationTicks": 96,
          "midi": 42,
          "name": "F#2",
          "ticks": 59520,
          "time": 48.947295,
          "velocity": 0.07874015748031496
        },
        {
          "duration": 0.07894725000000591,
          "durationTicks": 96,
          "midi": 42,
          "name": "F#2",
          "ticks": 59712,
          "time": 49.105189499999994,
          "velocity": 0.07874015748031496
        },
        {
          "duration": 0.07894725000000591,
          "durationTicks": 96,
          "midi": 44,
          "name": "G#2",
          "ticks": 59712,
          "time": 49.105189499999994,
          "velocity": 0.07874015748031496
        },
        {
          "duration": 0.07894725000000591,
          "durationTicks": 96,
          "midi": 40,
          "name": "E2",
          "ticks": 59712,
          "time": 49.105189499999994,
          "velocity": 0.07874015748031496
        },
        {
          "duration": 0.07894725000000591,
          "durationTicks": 96,
          "midi": 32,
          "name": "G#1",
          "ticks": 59712,
          "time": 49.105189499999994,
          "velocity": 0.07874015748031496
        },
        {
          "duration": 0.07894725000000591,
          "durationTicks": 96,
          "midi": 28,
          "name": "E1",
          "ticks": 59712,
          "time": 49.105189499999994,
          "velocity": 0.07874015748031496
        },
        {
          "duration": 0.0789472499999988,
          "durationTicks": 96,
          "midi": 42,
          "name": "F#2",
          "ticks": 59808,
          "time": 49.18413675,
          "velocity": 0.07874015748031496
        },
        {
          "duration": 0.0789472499999988,
          "durationTicks": 96,
          "midi": 32,
          "name": "G#1",
          "ticks": 59904,
          "time": 49.263084,
          "velocity": 0.07874015748031496
        },
        {
          "duration": 0.0789472499999988,
          "durationTicks": 96,
          "midi": 42,
          "name": "F#2",
          "ticks": 59904,
          "time": 49.263084,
          "velocity": 0.07874015748031496
        },
        {
          "duration": 0.0789472499999988,
          "durationTicks": 96,
          "midi": 35,
          "name": "B1",
          "ticks": 59904,
          "time": 49.263084,
          "velocity": 0.05511811023622047
        },
        {
          "duration": 0.0789472499999988,
          "durationTicks": 96,
          "midi": 42,
          "name": "F#2",
          "ticks": 60096,
          "time": 49.4209785,
          "velocity": 0.07874015748031496
        },
        {
          "duration": 0.0789472499999988,
          "durationTicks": 96,
          "midi": 32,
          "name": "G#1",
          "ticks": 60096,
          "time": 49.4209785,
          "velocity": 0.07874015748031496
        },
        {
          "duration": 0.07894725000000591,
          "durationTicks": 96,
          "midi": 44,
          "name": "G#2",
          "ticks": 60288,
          "time": 49.578872999999994,
          "velocity": 0.07874015748031496
        },
        {
          "duration": 0.07894725000000591,
          "durationTicks": 96,
          "midi": 40,
          "name": "E2",
          "ticks": 60288,
          "time": 49.578872999999994,
          "velocity": 0.07874015748031496
        },
        {
          "duration": 0.07894725000000591,
          "durationTicks": 96,
          "midi": 32,
          "name": "G#1",
          "ticks": 60288,
          "time": 49.578872999999994,
          "velocity": 0.07874015748031496
        },
        {
          "duration": 0.07894725000000591,
          "durationTicks": 96,
          "midi": 28,
          "name": "E1",
          "ticks": 60288,
          "time": 49.578872999999994,
          "velocity": 0.07874015748031496
        },
        {
          "duration": 0.07894725000000591,
          "durationTicks": 96,
          "midi": 42,
          "name": "F#2",
          "ticks": 60288,
          "time": 49.578872999999994,
          "velocity": 0.07874015748031496
        },
        {
          "duration": 0.0789472499999988,
          "durationTicks": 96,
          "midi": 32,
          "name": "G#1",
          "ticks": 60480,
          "time": 49.7367675,
          "velocity": 0.07874015748031496
        },
        {
          "duration": 0.0789472499999988,
          "durationTicks": 96,
          "midi": 42,
          "name": "F#2",
          "ticks": 60480,
          "time": 49.7367675,
          "velocity": 0.07874015748031496
        },
        {
          "duration": 0.0789472499999988,
          "durationTicks": 96,
          "midi": 42,
          "name": "F#2",
          "ticks": 60672,
          "time": 49.894662,
          "velocity": 0.07874015748031496
        },
        {
          "duration": 0.0789472499999988,
          "durationTicks": 96,
          "midi": 32,
          "name": "G#1",
          "ticks": 60672,
          "time": 49.894662,
          "velocity": 0.07874015748031496
        },
        {
          "duration": 0.07894725000000591,
          "durationTicks": 96,
          "midi": 44,
          "name": "G#2",
          "ticks": 60864,
          "time": 50.052556499999994,
          "velocity": 0.07874015748031496
        },
        {
          "duration": 0.07894725000000591,
          "durationTicks": 96,
          "midi": 42,
          "name": "F#2",
          "ticks": 60864,
          "time": 50.052556499999994,
          "velocity": 0.07874015748031496
        },
        {
          "duration": 0.07894725000000591,
          "durationTicks": 96,
          "midi": 32,
          "name": "G#1",
          "ticks": 60864,
          "time": 50.052556499999994,
          "velocity": 0.07874015748031496
        },
        {
          "duration": 0.07894725000000591,
          "durationTicks": 96,
          "midi": 28,
          "name": "E1",
          "ticks": 60864,
          "time": 50.052556499999994,
          "velocity": 0.07874015748031496
        },
        {
          "duration": 0.07894725000000591,
          "durationTicks": 96,
          "midi": 40,
          "name": "E2",
          "ticks": 60864,
          "time": 50.052556499999994,
          "velocity": 0.07874015748031496
        },
        {
          "duration": 0.0789472499999988,
          "durationTicks": 96,
          "midi": 32,
          "name": "G#1",
          "ticks": 61056,
          "time": 50.210451,
          "velocity": 0.07874015748031496
        },
        {
          "duration": 0.0789472499999988,
          "durationTicks": 96,
          "midi": 42,
          "name": "F#2",
          "ticks": 61056,
          "time": 50.210451,
          "velocity": 0.07874015748031496
        },
        {
          "duration": 0.0789472499999988,
          "durationTicks": 96,
          "midi": 28,
          "name": "E1",
          "ticks": 61248,
          "time": 50.3683455,
          "velocity": 0.07874015748031496
        },
        {
          "duration": 0.0789472499999988,
          "durationTicks": 96,
          "midi": 42,
          "name": "F#2",
          "ticks": 61248,
          "time": 50.3683455,
          "velocity": 0.07874015748031496
        },
        {
          "duration": 0.0789472499999988,
          "durationTicks": 96,
          "midi": 40,
          "name": "E2",
          "ticks": 61248,
          "time": 50.3683455,
          "velocity": 0.07874015748031496
        },
        {
          "duration": 0.0789472499999988,
          "durationTicks": 96,
          "midi": 32,
          "name": "G#1",
          "ticks": 61248,
          "time": 50.3683455,
          "velocity": 0.07874015748031496
        },
        {
          "duration": 0.0789472499999988,
          "durationTicks": 96,
          "midi": 44,
          "name": "G#2",
          "ticks": 61248,
          "time": 50.3683455,
          "velocity": 0.07874015748031496
        },
        {
          "duration": 0.07894725000000591,
          "durationTicks": 96,
          "midi": 42,
          "name": "F#2",
          "ticks": 61344,
          "time": 50.447292749999995,
          "velocity": 0.07874015748031496
        },
        {
          "duration": 0.0789472499999988,
          "durationTicks": 96,
          "midi": 32,
          "name": "G#1",
          "ticks": 61440,
          "time": 50.52624,
          "velocity": 0.07874015748031496
        },
        {
          "duration": 0.0789472499999988,
          "durationTicks": 96,
          "midi": 42,
          "name": "F#2",
          "ticks": 61440,
          "time": 50.52624,
          "velocity": 0.07874015748031496
        },
        {
          "duration": 0.0789472499999988,
          "durationTicks": 96,
          "midi": 35,
          "name": "B1",
          "ticks": 61440,
          "time": 50.52624,
          "velocity": 0.05511811023622047
        },
        {
          "duration": 0.0789472499999988,
          "durationTicks": 96,
          "midi": 32,
          "name": "G#1",
          "ticks": 61632,
          "time": 50.6841345,
          "velocity": 0.07874015748031496
        },
        {
          "duration": 0.0789472499999988,
          "durationTicks": 96,
          "midi": 42,
          "name": "F#2",
          "ticks": 61632,
          "time": 50.6841345,
          "velocity": 0.07874015748031496
        },
        {
          "duration": 0.0789472499999988,
          "durationTicks": 96,
          "midi": 42,
          "name": "F#2",
          "ticks": 61824,
          "time": 50.842029,
          "velocity": 0.07874015748031496
        },
        {
          "duration": 0.0789472499999988,
          "durationTicks": 96,
          "midi": 28,
          "name": "E1",
          "ticks": 61824,
          "time": 50.842029,
          "velocity": 0.07874015748031496
        },
        {
          "duration": 0.0789472499999988,
          "durationTicks": 96,
          "midi": 40,
          "name": "E2",
          "ticks": 61824,
          "time": 50.842029,
          "velocity": 0.07874015748031496
        },
        {
          "duration": 0.0789472499999988,
          "durationTicks": 96,
          "midi": 44,
          "name": "G#2",
          "ticks": 61824,
          "time": 50.842029,
          "velocity": 0.07874015748031496
        },
        {
          "duration": 0.0789472499999988,
          "durationTicks": 96,
          "midi": 32,
          "name": "G#1",
          "ticks": 61824,
          "time": 50.842029,
          "velocity": 0.07874015748031496
        },
        {
          "duration": 0.0789472499999988,
          "durationTicks": 96,
          "midi": 32,
          "name": "G#1",
          "ticks": 62016,
          "time": 50.9999235,
          "velocity": 0.07874015748031496
        },
        {
          "duration": 0.0789472499999988,
          "durationTicks": 96,
          "midi": 42,
          "name": "F#2",
          "ticks": 62016,
          "time": 50.9999235,
          "velocity": 0.07874015748031496
        },
        {
          "duration": 0.0789472499999988,
          "durationTicks": 96,
          "midi": 32,
          "name": "G#1",
          "ticks": 62208,
          "time": 51.157818,
          "velocity": 0.07874015748031496
        },
        {
          "duration": 0.0789472499999988,
          "durationTicks": 96,
          "midi": 42,
          "name": "F#2",
          "ticks": 62208,
          "time": 51.157818,
          "velocity": 0.07874015748031496
        },
        {
          "duration": 0.0789472499999988,
          "durationTicks": 96,
          "midi": 28,
          "name": "E1",
          "ticks": 62400,
          "time": 51.3157125,
          "velocity": 0.07874015748031496
        },
        {
          "duration": 0.0789472499999988,
          "durationTicks": 96,
          "midi": 32,
          "name": "G#1",
          "ticks": 62400,
          "time": 51.3157125,
          "velocity": 0.07874015748031496
        },
        {
          "duration": 0.0789472499999988,
          "durationTicks": 96,
          "midi": 40,
          "name": "E2",
          "ticks": 62400,
          "time": 51.3157125,
          "velocity": 0.07874015748031496
        },
        {
          "duration": 0.0789472499999988,
          "durationTicks": 96,
          "midi": 42,
          "name": "F#2",
          "ticks": 62400,
          "time": 51.3157125,
          "velocity": 0.07874015748031496
        },
        {
          "duration": 0.0789472499999988,
          "durationTicks": 96,
          "midi": 44,
          "name": "G#2",
          "ticks": 62400,
          "time": 51.3157125,
          "velocity": 0.07874015748031496
        },
        {
          "duration": 0.0789472499999988,
          "durationTicks": 96,
          "midi": 32,
          "name": "G#1",
          "ticks": 62592,
          "time": 51.473607,
          "velocity": 0.07874015748031496
        },
        {
          "duration": 0.0789472499999988,
          "durationTicks": 96,
          "midi": 42,
          "name": "F#2",
          "ticks": 62592,
          "time": 51.473607,
          "velocity": 0.07874015748031496
        },
        {
          "duration": 0.0789472499999988,
          "durationTicks": 96,
          "midi": 44,
          "name": "G#2",
          "ticks": 62784,
          "time": 51.6315015,
          "velocity": 0.07874015748031496
        },
        {
          "duration": 0.0789472499999988,
          "durationTicks": 96,
          "midi": 28,
          "name": "E1",
          "ticks": 62784,
          "time": 51.6315015,
          "velocity": 0.07874015748031496
        },
        {
          "duration": 0.0789472499999988,
          "durationTicks": 96,
          "midi": 42,
          "name": "F#2",
          "ticks": 62784,
          "time": 51.6315015,
          "velocity": 0.07874015748031496
        },
        {
          "duration": 0.0789472499999988,
          "durationTicks": 96,
          "midi": 40,
          "name": "E2",
          "ticks": 62784,
          "time": 51.6315015,
          "velocity": 0.07874015748031496
        },
        {
          "duration": 0.0789472499999988,
          "durationTicks": 96,
          "midi": 32,
          "name": "G#1",
          "ticks": 62784,
          "time": 51.6315015,
          "velocity": 0.07874015748031496
        },
        {
          "duration": 0.0789472499999988,
          "durationTicks": 96,
          "midi": 42,
          "name": "F#2",
          "ticks": 62880,
          "time": 51.71044875,
          "velocity": 0.07874015748031496
        },
        {
          "duration": 0.0789472499999988,
          "durationTicks": 96,
          "midi": 42,
          "name": "F#2",
          "ticks": 62976,
          "time": 51.789395999999996,
          "velocity": 0.07874015748031496
        },
        {
          "duration": 0.0789472499999988,
          "durationTicks": 96,
          "midi": 35,
          "name": "B1",
          "ticks": 62976,
          "time": 51.789395999999996,
          "velocity": 0.05511811023622047
        },
        {
          "duration": 0.0789472499999988,
          "durationTicks": 96,
          "midi": 32,
          "name": "G#1",
          "ticks": 62976,
          "time": 51.789395999999996,
          "velocity": 0.07874015748031496
        },
        {
          "duration": 0.0789472499999988,
          "durationTicks": 96,
          "midi": 32,
          "name": "G#1",
          "ticks": 63168,
          "time": 51.9472905,
          "velocity": 0.07874015748031496
        },
        {
          "duration": 0.0789472499999988,
          "durationTicks": 96,
          "midi": 42,
          "name": "F#2",
          "ticks": 63168,
          "time": 51.9472905,
          "velocity": 0.07874015748031496
        },
        {
          "duration": 0.0789472499999988,
          "durationTicks": 96,
          "midi": 32,
          "name": "G#1",
          "ticks": 63360,
          "time": 52.105185,
          "velocity": 0.07874015748031496
        },
        {
          "duration": 0.0789472499999988,
          "durationTicks": 96,
          "midi": 40,
          "name": "E2",
          "ticks": 63360,
          "time": 52.105185,
          "velocity": 0.07874015748031496
        },
        {
          "duration": 0.0789472499999988,
          "durationTicks": 96,
          "midi": 28,
          "name": "E1",
          "ticks": 63360,
          "time": 52.105185,
          "velocity": 0.07874015748031496
        },
        {
          "duration": 0.0789472499999988,
          "durationTicks": 96,
          "midi": 42,
          "name": "F#2",
          "ticks": 63360,
          "time": 52.105185,
          "velocity": 0.07874015748031496
        },
        {
          "duration": 0.0789472499999988,
          "durationTicks": 96,
          "midi": 44,
          "name": "G#2",
          "ticks": 63360,
          "time": 52.105185,
          "velocity": 0.07874015748031496
        },
        {
          "duration": 0.0789472499999988,
          "durationTicks": 96,
          "midi": 32,
          "name": "G#1",
          "ticks": 63552,
          "time": 52.263079499999996,
          "velocity": 0.07874015748031496
        },
        {
          "duration": 0.0789472499999988,
          "durationTicks": 96,
          "midi": 42,
          "name": "F#2",
          "ticks": 63552,
          "time": 52.263079499999996,
          "velocity": 0.07874015748031496
        },
        {
          "duration": 0.0789472499999988,
          "durationTicks": 96,
          "midi": 42,
          "name": "F#2",
          "ticks": 63744,
          "time": 52.420974,
          "velocity": 0.07874015748031496
        },
        {
          "duration": 0.0789472499999988,
          "durationTicks": 96,
          "midi": 32,
          "name": "G#1",
          "ticks": 63744,
          "time": 52.420974,
          "velocity": 0.07874015748031496
        },
        {
          "duration": 0.0789472499999988,
          "durationTicks": 96,
          "midi": 40,
          "name": "E2",
          "ticks": 63936,
          "time": 52.5788685,
          "velocity": 0.07874015748031496
        },
        {
          "duration": 0.0789472499999988,
          "durationTicks": 96,
          "midi": 42,
          "name": "F#2",
          "ticks": 63936,
          "time": 52.5788685,
          "velocity": 0.07874015748031496
        },
        {
          "duration": 0.0789472499999988,
          "durationTicks": 96,
          "midi": 32,
          "name": "G#1",
          "ticks": 63936,
          "time": 52.5788685,
          "velocity": 0.07874015748031496
        },
        {
          "duration": 0.0789472499999988,
          "durationTicks": 96,
          "midi": 44,
          "name": "G#2",
          "ticks": 63936,
          "time": 52.5788685,
          "velocity": 0.07874015748031496
        },
        {
          "duration": 0.0789472499999988,
          "durationTicks": 96,
          "midi": 28,
          "name": "E1",
          "ticks": 63936,
          "time": 52.5788685,
          "velocity": 0.07874015748031496
        },
        {
          "duration": 0.0789472499999988,
          "durationTicks": 96,
          "midi": 32,
          "name": "G#1",
          "ticks": 64128,
          "time": 52.736762999999996,
          "velocity": 0.07874015748031496
        },
        {
          "duration": 0.0789472499999988,
          "durationTicks": 96,
          "midi": 42,
          "name": "F#2",
          "ticks": 64128,
          "time": 52.736762999999996,
          "velocity": 0.07874015748031496
        },
        {
          "duration": 0.0789472499999988,
          "durationTicks": 96,
          "midi": 44,
          "name": "G#2",
          "ticks": 64320,
          "time": 52.8946575,
          "velocity": 0.07874015748031496
        },
        {
          "duration": 0.0789472499999988,
          "durationTicks": 96,
          "midi": 42,
          "name": "F#2",
          "ticks": 64320,
          "time": 52.8946575,
          "velocity": 0.07874015748031496
        },
        {
          "duration": 0.0789472499999988,
          "durationTicks": 96,
          "midi": 28,
          "name": "E1",
          "ticks": 64320,
          "time": 52.8946575,
          "velocity": 0.07874015748031496
        },
        {
          "duration": 0.0789472499999988,
          "durationTicks": 96,
          "midi": 40,
          "name": "E2",
          "ticks": 64320,
          "time": 52.8946575,
          "velocity": 0.07874015748031496
        },
        {
          "duration": 0.0789472499999988,
          "durationTicks": 96,
          "midi": 32,
          "name": "G#1",
          "ticks": 64320,
          "time": 52.8946575,
          "velocity": 0.07874015748031496
        },
        {
          "duration": 0.0789472499999988,
          "durationTicks": 96,
          "midi": 42,
          "name": "F#2",
          "ticks": 64416,
          "time": 52.97360475,
          "velocity": 0.07874015748031496
        },
        {
          "duration": 0.0789472499999988,
          "durationTicks": 96,
          "midi": 32,
          "name": "G#1",
          "ticks": 64512,
          "time": 53.052552,
          "velocity": 0.07874015748031496
        },
        {
          "duration": 0.0789472499999988,
          "durationTicks": 96,
          "midi": 35,
          "name": "B1",
          "ticks": 64512,
          "time": 53.052552,
          "velocity": 0.05511811023622047
        },
        {
          "duration": 0.0789472499999988,
          "durationTicks": 96,
          "midi": 42,
          "name": "F#2",
          "ticks": 64512,
          "time": 53.052552,
          "velocity": 0.07874015748031496
        },
        {
          "duration": 0.0789472499999988,
          "durationTicks": 96,
          "midi": 42,
          "name": "F#2",
          "ticks": 64704,
          "time": 53.210446499999996,
          "velocity": 0.07874015748031496
        },
        {
          "duration": 0.0789472499999988,
          "durationTicks": 96,
          "midi": 32,
          "name": "G#1",
          "ticks": 64704,
          "time": 53.210446499999996,
          "velocity": 0.07874015748031496
        },
        {
          "duration": 0.0789472499999988,
          "durationTicks": 96,
          "midi": 40,
          "name": "E2",
          "ticks": 64896,
          "time": 53.368341,
          "velocity": 0.07874015748031496
        },
        {
          "duration": 0.0789472499999988,
          "durationTicks": 96,
          "midi": 42,
          "name": "F#2",
          "ticks": 64896,
          "time": 53.368341,
          "velocity": 0.07874015748031496
        },
        {
          "duration": 0.0789472499999988,
          "durationTicks": 96,
          "midi": 32,
          "name": "G#1",
          "ticks": 64896,
          "time": 53.368341,
          "velocity": 0.07874015748031496
        },
        {
          "duration": 0.0789472499999988,
          "durationTicks": 96,
          "midi": 28,
          "name": "E1",
          "ticks": 64896,
          "time": 53.368341,
          "velocity": 0.07874015748031496
        },
        {
          "duration": 0.0789472499999988,
          "durationTicks": 96,
          "midi": 44,
          "name": "G#2",
          "ticks": 64896,
          "time": 53.368341,
          "velocity": 0.07874015748031496
        },
        {
          "duration": 0.0789472499999988,
          "durationTicks": 96,
          "midi": 42,
          "name": "F#2",
          "ticks": 65088,
          "time": 53.5262355,
          "velocity": 0.07874015748031496
        },
        {
          "duration": 0.0789472499999988,
          "durationTicks": 96,
          "midi": 32,
          "name": "G#1",
          "ticks": 65088,
          "time": 53.5262355,
          "velocity": 0.07874015748031496
        },
        {
          "duration": 0.0789472499999988,
          "durationTicks": 96,
          "midi": 32,
          "name": "G#1",
          "ticks": 65280,
          "time": 53.684129999999996,
          "velocity": 0.07874015748031496
        },
        {
          "duration": 0.0789472499999988,
          "durationTicks": 96,
          "midi": 42,
          "name": "F#2",
          "ticks": 65280,
          "time": 53.684129999999996,
          "velocity": 0.07874015748031496
        },
        {
          "duration": 0.0789472499999988,
          "durationTicks": 96,
          "midi": 28,
          "name": "E1",
          "ticks": 65472,
          "time": 53.8420245,
          "velocity": 0.07874015748031496
        },
        {
          "duration": 0.0789472499999988,
          "durationTicks": 96,
          "midi": 32,
          "name": "G#1",
          "ticks": 65472,
          "time": 53.8420245,
          "velocity": 0.07874015748031496
        },
        {
          "duration": 0.0789472499999988,
          "durationTicks": 96,
          "midi": 40,
          "name": "E2",
          "ticks": 65472,
          "time": 53.8420245,
          "velocity": 0.07874015748031496
        },
        {
          "duration": 0.0789472499999988,
          "durationTicks": 96,
          "midi": 44,
          "name": "G#2",
          "ticks": 65472,
          "time": 53.8420245,
          "velocity": 0.07874015748031496
        },
        {
          "duration": 0.0789472499999988,
          "durationTicks": 96,
          "midi": 42,
          "name": "F#2",
          "ticks": 65472,
          "time": 53.8420245,
          "velocity": 0.07874015748031496
        },
        {
          "duration": 0.0789472499999988,
          "durationTicks": 96,
          "midi": 32,
          "name": "G#1",
          "ticks": 65664,
          "time": 53.999919,
          "velocity": 0.07874015748031496
        },
        {
          "duration": 0.0789472499999988,
          "durationTicks": 96,
          "midi": 42,
          "name": "F#2",
          "ticks": 65664,
          "time": 53.999919,
          "velocity": 0.07874015748031496
        },
        {
          "duration": 0.0789472499999988,
          "durationTicks": 96,
          "midi": 44,
          "name": "G#2",
          "ticks": 65856,
          "time": 54.157813499999996,
          "velocity": 0.07874015748031496
        },
        {
          "duration": 0.0789472499999988,
          "durationTicks": 96,
          "midi": 40,
          "name": "E2",
          "ticks": 65856,
          "time": 54.157813499999996,
          "velocity": 0.07874015748031496
        },
        {
          "duration": 0.0789472499999988,
          "durationTicks": 96,
          "midi": 28,
          "name": "E1",
          "ticks": 65856,
          "time": 54.157813499999996,
          "velocity": 0.07874015748031496
        },
        {
          "duration": 0.0789472499999988,
          "durationTicks": 96,
          "midi": 32,
          "name": "G#1",
          "ticks": 65856,
          "time": 54.157813499999996,
          "velocity": 0.07874015748031496
        },
        {
          "duration": 0.0789472499999988,
          "durationTicks": 96,
          "midi": 42,
          "name": "F#2",
          "ticks": 65856,
          "time": 54.157813499999996,
          "velocity": 0.07874015748031496
        },
        {
          "duration": 0.07894725000000591,
          "durationTicks": 96,
          "midi": 42,
          "name": "F#2",
          "ticks": 65952,
          "time": 54.236760749999995,
          "velocity": 0.07874015748031496
        },
        {
          "duration": 0.0789472499999988,
          "durationTicks": 96,
          "midi": 32,
          "name": "G#1",
          "ticks": 66048,
          "time": 54.315708,
          "velocity": 0.07874015748031496
        },
        {
          "duration": 0.0789472499999988,
          "durationTicks": 96,
          "midi": 42,
          "name": "F#2",
          "ticks": 66048,
          "time": 54.315708,
          "velocity": 0.07874015748031496
        },
        {
          "duration": 0.0789472499999988,
          "durationTicks": 96,
          "midi": 35,
          "name": "B1",
          "ticks": 66048,
          "time": 54.315708,
          "velocity": 0.05511811023622047
        },
        {
          "duration": 0.0789472499999988,
          "durationTicks": 96,
          "midi": 42,
          "name": "F#2",
          "ticks": 66240,
          "time": 54.4736025,
          "velocity": 0.07874015748031496
        },
        {
          "duration": 0.0789472499999988,
          "durationTicks": 96,
          "midi": 32,
          "name": "G#1",
          "ticks": 66240,
          "time": 54.4736025,
          "velocity": 0.07874015748031496
        },
        {
          "duration": 0.0789472499999988,
          "durationTicks": 96,
          "midi": 28,
          "name": "E1",
          "ticks": 66432,
          "time": 54.631496999999996,
          "velocity": 0.07874015748031496
        },
        {
          "duration": 0.0789472499999988,
          "durationTicks": 96,
          "midi": 32,
          "name": "G#1",
          "ticks": 66432,
          "time": 54.631496999999996,
          "velocity": 0.07874015748031496
        },
        {
          "duration": 0.0789472499999988,
          "durationTicks": 96,
          "midi": 40,
          "name": "E2",
          "ticks": 66432,
          "time": 54.631496999999996,
          "velocity": 0.07874015748031496
        },
        {
          "duration": 0.0789472499999988,
          "durationTicks": 96,
          "midi": 42,
          "name": "F#2",
          "ticks": 66432,
          "time": 54.631496999999996,
          "velocity": 0.07874015748031496
        },
        {
          "duration": 0.0789472499999988,
          "durationTicks": 96,
          "midi": 44,
          "name": "G#2",
          "ticks": 66432,
          "time": 54.631496999999996,
          "velocity": 0.07874015748031496
        },
        {
          "duration": 0.0789472499999988,
          "durationTicks": 96,
          "midi": 32,
          "name": "G#1",
          "ticks": 66624,
          "time": 54.7893915,
          "velocity": 0.07874015748031496
        },
        {
          "duration": 0.0789472499999988,
          "durationTicks": 96,
          "midi": 42,
          "name": "F#2",
          "ticks": 66624,
          "time": 54.7893915,
          "velocity": 0.07874015748031496
        },
        {
          "duration": 0.0789472499999988,
          "durationTicks": 96,
          "midi": 32,
          "name": "G#1",
          "ticks": 66816,
          "time": 54.947286,
          "velocity": 0.07874015748031496
        },
        {
          "duration": 0.0789472499999988,
          "durationTicks": 96,
          "midi": 42,
          "name": "F#2",
          "ticks": 66816,
          "time": 54.947286,
          "velocity": 0.07874015748031496
        },
        {
          "duration": 0.0789472499999988,
          "durationTicks": 96,
          "midi": 42,
          "name": "F#2",
          "ticks": 67008,
          "time": 55.105180499999996,
          "velocity": 0.07874015748031496
        },
        {
          "duration": 0.0789472499999988,
          "durationTicks": 96,
          "midi": 44,
          "name": "G#2",
          "ticks": 67008,
          "time": 55.105180499999996,
          "velocity": 0.07874015748031496
        },
        {
          "duration": 0.0789472499999988,
          "durationTicks": 96,
          "midi": 40,
          "name": "E2",
          "ticks": 67008,
          "time": 55.105180499999996,
          "velocity": 0.07874015748031496
        },
        {
          "duration": 0.0789472499999988,
          "durationTicks": 96,
          "midi": 28,
          "name": "E1",
          "ticks": 67008,
          "time": 55.105180499999996,
          "velocity": 0.07874015748031496
        },
        {
          "duration": 0.0789472499999988,
          "durationTicks": 96,
          "midi": 32,
          "name": "G#1",
          "ticks": 67008,
          "time": 55.105180499999996,
          "velocity": 0.07874015748031496
        },
        {
          "duration": 0.0789472499999988,
          "durationTicks": 96,
          "midi": 42,
          "name": "F#2",
          "ticks": 67200,
          "time": 55.263075,
          "velocity": 0.07874015748031496
        },
        {
          "duration": 0.0789472499999988,
          "durationTicks": 96,
          "midi": 32,
          "name": "G#1",
          "ticks": 67200,
          "time": 55.263075,
          "velocity": 0.07874015748031496
        },
        {
          "duration": 0.0789472499999988,
          "durationTicks": 96,
          "midi": 32,
          "name": "G#1",
          "ticks": 67392,
          "time": 55.4209695,
          "velocity": 0.07874015748031496
        },
        {
          "duration": 0.0789472499999988,
          "durationTicks": 96,
          "midi": 44,
          "name": "G#2",
          "ticks": 67392,
          "time": 55.4209695,
          "velocity": 0.07874015748031496
        },
        {
          "duration": 0.0789472499999988,
          "durationTicks": 96,
          "midi": 40,
          "name": "E2",
          "ticks": 67392,
          "time": 55.4209695,
          "velocity": 0.07874015748031496
        },
        {
          "duration": 0.0789472499999988,
          "durationTicks": 96,
          "midi": 28,
          "name": "E1",
          "ticks": 67392,
          "time": 55.4209695,
          "velocity": 0.07874015748031496
        },
        {
          "duration": 0.0789472499999988,
          "durationTicks": 96,
          "midi": 42,
          "name": "F#2",
          "ticks": 67392,
          "time": 55.4209695,
          "velocity": 0.07874015748031496
        },
        {
          "duration": 0.0789472499999988,
          "durationTicks": 96,
          "midi": 42,
          "name": "F#2",
          "ticks": 67488,
          "time": 55.49991675,
          "velocity": 0.07874015748031496
        },
        {
          "duration": 0.0789472499999988,
          "durationTicks": 96,
          "midi": 35,
          "name": "B1",
          "ticks": 67584,
          "time": 55.578863999999996,
          "velocity": 0.05511811023622047
        },
        {
          "duration": 0.0789472499999988,
          "durationTicks": 96,
          "midi": 42,
          "name": "F#2",
          "ticks": 67584,
          "time": 55.578863999999996,
          "velocity": 0.07874015748031496
        },
        {
          "duration": 0.0789472499999988,
          "durationTicks": 96,
          "midi": 32,
          "name": "G#1",
          "ticks": 67584,
          "time": 55.578863999999996,
          "velocity": 0.07874015748031496
        },
        {
          "duration": 0.0789472499999988,
          "durationTicks": 96,
          "midi": 42,
          "name": "F#2",
          "ticks": 67776,
          "time": 55.7367585,
          "velocity": 0.07874015748031496
        },
        {
          "duration": 0.0789472499999988,
          "durationTicks": 96,
          "midi": 32,
          "name": "G#1",
          "ticks": 67776,
          "time": 55.7367585,
          "velocity": 0.07874015748031496
        },
        {
          "duration": 0.0789472499999988,
          "durationTicks": 96,
          "midi": 40,
          "name": "E2",
          "ticks": 67968,
          "time": 55.894653,
          "velocity": 0.07874015748031496
        },
        {
          "duration": 0.0789472499999988,
          "durationTicks": 96,
          "midi": 42,
          "name": "F#2",
          "ticks": 67968,
          "time": 55.894653,
          "velocity": 0.07874015748031496
        },
        {
          "duration": 0.0789472499999988,
          "durationTicks": 96,
          "midi": 28,
          "name": "E1",
          "ticks": 67968,
          "time": 55.894653,
          "velocity": 0.07874015748031496
        },
        {
          "duration": 0.0789472499999988,
          "durationTicks": 96,
          "midi": 44,
          "name": "G#2",
          "ticks": 67968,
          "time": 55.894653,
          "velocity": 0.07874015748031496
        },
        {
          "duration": 0.0789472499999988,
          "durationTicks": 96,
          "midi": 32,
          "name": "G#1",
          "ticks": 67968,
          "time": 55.894653,
          "velocity": 0.07874015748031496
        },
        {
          "duration": 0.0789472499999988,
          "durationTicks": 96,
          "midi": 32,
          "name": "G#1",
          "ticks": 68160,
          "time": 56.052547499999996,
          "velocity": 0.07874015748031496
        },
        {
          "duration": 0.0789472499999988,
          "durationTicks": 96,
          "midi": 42,
          "name": "F#2",
          "ticks": 68160,
          "time": 56.052547499999996,
          "velocity": 0.07874015748031496
        },
        {
          "duration": 0.0789472499999988,
          "durationTicks": 96,
          "midi": 32,
          "name": "G#1",
          "ticks": 68352,
          "time": 56.210442,
          "velocity": 0.07874015748031496
        },
        {
          "duration": 0.0789472499999988,
          "durationTicks": 96,
          "midi": 42,
          "name": "F#2",
          "ticks": 68352,
          "time": 56.210442,
          "velocity": 0.07874015748031496
        },
        {
          "duration": 0.0789472499999988,
          "durationTicks": 96,
          "midi": 42,
          "name": "F#2",
          "ticks": 68544,
          "time": 56.3683365,
          "velocity": 0.07874015748031496
        },
        {
          "duration": 0.0789472499999988,
          "durationTicks": 96,
          "midi": 28,
          "name": "E1",
          "ticks": 68544,
          "time": 56.3683365,
          "velocity": 0.07874015748031496
        },
        {
          "duration": 0.0789472499999988,
          "durationTicks": 96,
          "midi": 44,
          "name": "G#2",
          "ticks": 68544,
          "time": 56.3683365,
          "velocity": 0.07874015748031496
        },
        {
          "duration": 0.0789472499999988,
          "durationTicks": 96,
          "midi": 40,
          "name": "E2",
          "ticks": 68544,
          "time": 56.3683365,
          "velocity": 0.07874015748031496
        },
        {
          "duration": 0.0789472499999988,
          "durationTicks": 96,
          "midi": 32,
          "name": "G#1",
          "ticks": 68544,
          "time": 56.3683365,
          "velocity": 0.07874015748031496
        },
        {
          "duration": 0.0789472499999988,
          "durationTicks": 96,
          "midi": 32,
          "name": "G#1",
          "ticks": 68736,
          "time": 56.526230999999996,
          "velocity": 0.07874015748031496
        },
        {
          "duration": 0.0789472499999988,
          "durationTicks": 96,
          "midi": 42,
          "name": "F#2",
          "ticks": 68736,
          "time": 56.526230999999996,
          "velocity": 0.07874015748031496
        },
        {
          "duration": 0.0789472499999988,
          "durationTicks": 96,
          "midi": 28,
          "name": "E1",
          "ticks": 68928,
          "time": 56.6841255,
          "velocity": 0.07874015748031496
        },
        {
          "duration": 0.0789472499999988,
          "durationTicks": 96,
          "midi": 44,
          "name": "G#2",
          "ticks": 68928,
          "time": 56.6841255,
          "velocity": 0.07874015748031496
        },
        {
          "duration": 0.0789472499999988,
          "durationTicks": 96,
          "midi": 40,
          "name": "E2",
          "ticks": 68928,
          "time": 56.6841255,
          "velocity": 0.07874015748031496
        },
        {
          "duration": 0.0789472499999988,
          "durationTicks": 96,
          "midi": 42,
          "name": "F#2",
          "ticks": 68928,
          "time": 56.6841255,
          "velocity": 0.07874015748031496
        },
        {
          "duration": 0.0789472499999988,
          "durationTicks": 96,
          "midi": 32,
          "name": "G#1",
          "ticks": 68928,
          "time": 56.6841255,
          "velocity": 0.07874015748031496
        },
        {
          "duration": 0.0789472499999988,
          "durationTicks": 96,
          "midi": 42,
          "name": "F#2",
          "ticks": 69024,
          "time": 56.76307275,
          "velocity": 0.07874015748031496
        },
        {
          "duration": 0.0789472499999988,
          "durationTicks": 96,
          "midi": 32,
          "name": "G#1",
          "ticks": 69120,
          "time": 56.84202,
          "velocity": 0.07874015748031496
        },
        {
          "duration": 0.0789472499999988,
          "durationTicks": 96,
          "midi": 35,
          "name": "B1",
          "ticks": 69120,
          "time": 56.84202,
          "velocity": 0.05511811023622047
        },
        {
          "duration": 0.0789472499999988,
          "durationTicks": 96,
          "midi": 42,
          "name": "F#2",
          "ticks": 69120,
          "time": 56.84202,
          "velocity": 0.07874015748031496
        },
        {
          "duration": 0.0789472499999988,
          "durationTicks": 96,
          "midi": 32,
          "name": "G#1",
          "ticks": 69312,
          "time": 56.999914499999996,
          "velocity": 0.07874015748031496
        },
        {
          "duration": 0.0789472499999988,
          "durationTicks": 96,
          "midi": 42,
          "name": "F#2",
          "ticks": 69312,
          "time": 56.999914499999996,
          "velocity": 0.07874015748031496
        },
        {
          "duration": 0.0789472499999988,
          "durationTicks": 96,
          "midi": 28,
          "name": "E1",
          "ticks": 69504,
          "time": 57.157809,
          "velocity": 0.07874015748031496
        },
        {
          "duration": 0.0789472499999988,
          "durationTicks": 96,
          "midi": 44,
          "name": "G#2",
          "ticks": 69504,
          "time": 57.157809,
          "velocity": 0.07874015748031496
        },
        {
          "duration": 0.0789472499999988,
          "durationTicks": 96,
          "midi": 32,
          "name": "G#1",
          "ticks": 69504,
          "time": 57.157809,
          "velocity": 0.07874015748031496
        },
        {
          "duration": 0.0789472499999988,
          "durationTicks": 96,
          "midi": 40,
          "name": "E2",
          "ticks": 69504,
          "time": 57.157809,
          "velocity": 0.07874015748031496
        },
        {
          "duration": 0.0789472499999988,
          "durationTicks": 96,
          "midi": 42,
          "name": "F#2",
          "ticks": 69504,
          "time": 57.157809,
          "velocity": 0.07874015748031496
        },
        {
          "duration": 0.0789472499999988,
          "durationTicks": 96,
          "midi": 32,
          "name": "G#1",
          "ticks": 69696,
          "time": 57.3157035,
          "velocity": 0.07874015748031496
        },
        {
          "duration": 0.0789472499999988,
          "durationTicks": 96,
          "midi": 42,
          "name": "F#2",
          "ticks": 69696,
          "time": 57.3157035,
          "velocity": 0.07874015748031496
        },
        {
          "duration": 0.0789472499999988,
          "durationTicks": 96,
          "midi": 32,
          "name": "G#1",
          "ticks": 69888,
          "time": 57.473597999999996,
          "velocity": 0.07874015748031496
        },
        {
          "duration": 0.0789472499999988,
          "durationTicks": 96,
          "midi": 42,
          "name": "F#2",
          "ticks": 69888,
          "time": 57.473597999999996,
          "velocity": 0.07874015748031496
        },
        {
          "duration": 0.0789472499999988,
          "durationTicks": 96,
          "midi": 44,
          "name": "G#2",
          "ticks": 70080,
          "time": 57.6314925,
          "velocity": 0.07874015748031496
        },
        {
          "duration": 0.0789472499999988,
          "durationTicks": 96,
          "midi": 42,
          "name": "F#2",
          "ticks": 70080,
          "time": 57.6314925,
          "velocity": 0.07874015748031496
        },
        {
          "duration": 0.0789472499999988,
          "durationTicks": 96,
          "midi": 32,
          "name": "G#1",
          "ticks": 70080,
          "time": 57.6314925,
          "velocity": 0.07874015748031496
        },
        {
          "duration": 0.0789472499999988,
          "durationTicks": 96,
          "midi": 40,
          "name": "E2",
          "ticks": 70080,
          "time": 57.6314925,
          "velocity": 0.07874015748031496
        },
        {
          "duration": 0.0789472499999988,
          "durationTicks": 96,
          "midi": 28,
          "name": "E1",
          "ticks": 70080,
          "time": 57.6314925,
          "velocity": 0.07874015748031496
        },
        {
          "duration": 0.0789472499999988,
          "durationTicks": 96,
          "midi": 32,
          "name": "G#1",
          "ticks": 70272,
          "time": 57.789387,
          "velocity": 0.07874015748031496
        },
        {
          "duration": 0.0789472499999988,
          "durationTicks": 96,
          "midi": 42,
          "name": "F#2",
          "ticks": 70272,
          "time": 57.789387,
          "velocity": 0.07874015748031496
        },
        {
          "duration": 0.0789472499999988,
          "durationTicks": 96,
          "midi": 32,
          "name": "G#1",
          "ticks": 70464,
          "time": 57.947281499999995,
          "velocity": 0.07874015748031496
        },
        {
          "duration": 0.0789472499999988,
          "durationTicks": 96,
          "midi": 42,
          "name": "F#2",
          "ticks": 70464,
          "time": 57.947281499999995,
          "velocity": 0.07874015748031496
        },
        {
          "duration": 0.0789472499999988,
          "durationTicks": 96,
          "midi": 44,
          "name": "G#2",
          "ticks": 70464,
          "time": 57.947281499999995,
          "velocity": 0.07874015748031496
        },
        {
          "duration": 0.0789472499999988,
          "durationTicks": 96,
          "midi": 40,
          "name": "E2",
          "ticks": 70464,
          "time": 57.947281499999995,
          "velocity": 0.07874015748031496
        },
        {
          "duration": 0.0789472499999988,
          "durationTicks": 96,
          "midi": 28,
          "name": "E1",
          "ticks": 70464,
          "time": 57.947281499999995,
          "velocity": 0.07874015748031496
        },
        {
          "duration": 0.07894725000000591,
          "durationTicks": 96,
          "midi": 42,
          "name": "F#2",
          "ticks": 70560,
          "time": 58.026228749999994,
          "velocity": 0.07874015748031496
        },
        {
          "duration": 0.0789472499999988,
          "durationTicks": 96,
          "midi": 42,
          "name": "F#2",
          "ticks": 73728,
          "time": 60.631488,
          "velocity": 0.10236220472440945
        },
        {
          "duration": 0.0789472499999988,
          "durationTicks": 96,
          "midi": 32,
          "name": "G#1",
          "ticks": 73728,
          "time": 60.631488,
          "velocity": 0.10236220472440945
        },
        {
          "duration": 0.0789472499999988,
          "durationTicks": 96,
          "midi": 35,
          "name": "B1",
          "ticks": 73728,
          "time": 60.631488,
          "velocity": 0.06299212598425197
        },
        {
          "duration": 0.07894725000000591,
          "durationTicks": 96,
          "midi": 32,
          "name": "G#1",
          "ticks": 73920,
          "time": 60.789382499999995,
          "velocity": 0.07874015748031496
        },
        {
          "duration": 0.07894725000000591,
          "durationTicks": 96,
          "midi": 42,
          "name": "F#2",
          "ticks": 73920,
          "time": 60.789382499999995,
          "velocity": 0.07874015748031496
        },
        {
          "duration": 0.0789472499999988,
          "durationTicks": 96,
          "midi": 42,
          "name": "F#2",
          "ticks": 74112,
          "time": 60.947277,
          "velocity": 0.07874015748031496
        },
        {
          "duration": 0.0789472499999988,
          "durationTicks": 96,
          "midi": 40,
          "name": "E2",
          "ticks": 74112,
          "time": 60.947277,
          "velocity": 0.07874015748031496
        },
        {
          "duration": 0.0789472499999988,
          "durationTicks": 96,
          "midi": 38,
          "name": "D2",
          "ticks": 74112,
          "time": 60.947277,
          "velocity": 0.03937007874015748
        },
        {
          "duration": 0.0789472499999988,
          "durationTicks": 96,
          "midi": 40,
          "name": "E2",
          "ticks": 74112,
          "time": 60.947277,
          "velocity": 0.03937007874015748
        },
        {
          "duration": 0.0789472499999988,
          "durationTicks": 96,
          "midi": 44,
          "name": "G#2",
          "ticks": 74112,
          "time": 60.947277,
          "velocity": 0.07874015748031496
        },
        {
          "duration": 0.0789472499999988,
          "durationTicks": 96,
          "midi": 28,
          "name": "E1",
          "ticks": 74112,
          "time": 60.947277,
          "velocity": 0.07874015748031496
        },
        {
          "duration": 0.0789472499999988,
          "durationTicks": 96,
          "midi": 32,
          "name": "G#1",
          "ticks": 74112,
          "time": 60.947277,
          "velocity": 0.07874015748031496
        },
        {
          "duration": 0.0789472499999988,
          "durationTicks": 96,
          "midi": 44,
          "name": "G#2",
          "ticks": 74304,
          "time": 61.1051715,
          "velocity": 0.07874015748031496
        },
        {
          "duration": 0.0789472499999988,
          "durationTicks": 96,
          "midi": 38,
          "name": "D2",
          "ticks": 74304,
          "time": 61.1051715,
          "velocity": 0.03937007874015748
        },
        {
          "duration": 0.0789472499999988,
          "durationTicks": 96,
          "midi": 40,
          "name": "E2",
          "ticks": 74304,
          "time": 61.1051715,
          "velocity": 0.03937007874015748
        },
        {
          "duration": 0.0789472499999988,
          "durationTicks": 96,
          "midi": 32,
          "name": "G#1",
          "ticks": 74304,
          "time": 61.1051715,
          "velocity": 0.07874015748031496
        },
        {
          "duration": 0.0789472499999988,
          "durationTicks": 96,
          "midi": 40,
          "name": "E2",
          "ticks": 74304,
          "time": 61.1051715,
          "velocity": 0.07874015748031496
        },
        {
          "duration": 0.0789472499999988,
          "durationTicks": 96,
          "midi": 42,
          "name": "F#2",
          "ticks": 74304,
          "time": 61.1051715,
          "velocity": 0.07874015748031496
        },
        {
          "duration": 0.0789472499999988,
          "durationTicks": 96,
          "midi": 28,
          "name": "E1",
          "ticks": 74304,
          "time": 61.1051715,
          "velocity": 0.07874015748031496
        },
        {
          "duration": 0.07894725000000591,
          "durationTicks": 96,
          "midi": 32,
          "name": "G#1",
          "ticks": 74496,
          "time": 61.263065999999995,
          "velocity": 0.07874015748031496
        },
        {
          "duration": 0.07894725000000591,
          "durationTicks": 96,
          "midi": 42,
          "name": "F#2",
          "ticks": 74496,
          "time": 61.263065999999995,
          "velocity": 0.07874015748031496
        },
        {
          "duration": 0.0789472499999988,
          "durationTicks": 96,
          "midi": 42,
          "name": "F#2",
          "ticks": 74688,
          "time": 61.4209605,
          "velocity": 0.07874015748031496
        },
        {
          "duration": 0.0789472499999988,
          "durationTicks": 96,
          "midi": 40,
          "name": "E2",
          "ticks": 74688,
          "time": 61.4209605,
          "velocity": 0.03937007874015748
        },
        {
          "duration": 0.0789472499999988,
          "durationTicks": 96,
          "midi": 38,
          "name": "D2",
          "ticks": 74688,
          "time": 61.4209605,
          "velocity": 0.03937007874015748
        },
        {
          "duration": 0.0789472499999988,
          "durationTicks": 96,
          "midi": 32,
          "name": "G#1",
          "ticks": 74688,
          "time": 61.4209605,
          "velocity": 0.07874015748031496
        },
        {
          "duration": 0.3157890000000023,
          "durationTicks": 384,
          "midi": 44,
          "name": "G#2",
          "ticks": 74880,
          "time": 61.578855,
          "velocity": 0.07874015748031496
        },
        {
          "duration": 0.23684175000000351,
          "durationTicks": 288,
          "midi": 32,
          "name": "G#1",
          "ticks": 74880,
          "time": 61.578855,
          "velocity": 0.07874015748031496
        },
        {
          "duration": 0.0789472499999988,
          "durationTicks": 96,
          "midi": 40,
          "name": "E2",
          "ticks": 74880,
          "time": 61.578855,
          "velocity": 0.07874015748031496
        },
        {
          "duration": 0.23684175000000351,
          "durationTicks": 288,
          "midi": 40,
          "name": "E2",
          "ticks": 74880,
          "time": 61.578855,
          "velocity": 0.03937007874015748
        },
        {
          "duration": 0.3157890000000023,
          "durationTicks": 384,
          "midi": 28,
          "name": "E1",
          "ticks": 74880,
          "time": 61.578855,
          "velocity": 0.07874015748031496
        },
        {
          "duration": 0.0789472499999988,
          "durationTicks": 96,
          "midi": 38,
          "name": "D2",
          "ticks": 74880,
          "time": 61.578855,
          "velocity": 0.03937007874015748
        },
        {
          "duration": 0.0789472499999988,
          "durationTicks": 96,
          "midi": 42,
          "name": "F#2",
          "ticks": 74880,
          "time": 61.578855,
          "velocity": 0.07874015748031496
        },
        {
          "duration": 0.07894725000000591,
          "durationTicks": 96,
          "midi": 38,
          "name": "D2",
          "ticks": 75072,
          "time": 61.736749499999995,
          "velocity": 0.03937007874015748
        },
        {
          "duration": 0.1578945000000047,
          "durationTicks": 192,
          "midi": 32,
          "name": "G#1",
          "ticks": 75072,
          "time": 61.736749499999995,
          "velocity": 0.07874015748031496
        },
        {
          "duration": 0.1578945000000047,
          "durationTicks": 192,
          "midi": 40,
          "name": "E2",
          "ticks": 75072,
          "time": 61.736749499999995,
          "velocity": 0.03937007874015748
        },
        {
          "duration": 0.07894725000000591,
          "durationTicks": 96,
          "midi": 42,
          "name": "F#2",
          "ticks": 75072,
          "time": 61.736749499999995,
          "velocity": 0.07874015748031496
        },
        {
          "duration": 0.0789472499999988,
          "durationTicks": 96,
          "midi": 42,
          "name": "F#2",
          "ticks": 75168,
          "time": 61.81569675,
          "velocity": 0.07874015748031496
        },
        {
          "duration": 0.0789472499999988,
          "durationTicks": 96,
          "midi": 32,
          "name": "G#1",
          "ticks": 75168,
          "time": 61.81569675,
          "velocity": 0.07874015748031496
        },
        {
          "duration": 0.0789472499999988,
          "durationTicks": 96,
          "midi": 42,
          "name": "F#2",
          "ticks": 75264,
          "time": 61.894644,
          "velocity": 0.07874015748031496
        },
        {
          "duration": 0.0789472499999988,
          "durationTicks": 96,
          "midi": 35,
          "name": "B1",
          "ticks": 75264,
          "time": 61.894644,
          "velocity": 0.03937007874015748
        },
        {
          "duration": 0.0789472499999988,
          "durationTicks": 96,
          "midi": 32,
          "name": "G#1",
          "ticks": 75264,
          "time": 61.894644,
          "velocity": 0.07874015748031496
        },
        {
          "duration": 0.0789472499999988,
          "durationTicks": 96,
          "midi": 32,
          "name": "G#1",
          "ticks": 75456,
          "time": 62.0525385,
          "velocity": 0.07874015748031496
        },
        {
          "duration": 0.0789472499999988,
          "durationTicks": 96,
          "midi": 42,
          "name": "F#2",
          "ticks": 75456,
          "time": 62.0525385,
          "velocity": 0.07874015748031496
        },
        {
          "duration": 0.07894725000000591,
          "durationTicks": 96,
          "midi": 28,
          "name": "E1",
          "ticks": 75648,
          "time": 62.210432999999995,
          "velocity": 0.07874015748031496
        },
        {
          "duration": 0.07894725000000591,
          "durationTicks": 96,
          "midi": 40,
          "name": "E2",
          "ticks": 75648,
          "time": 62.210432999999995,
          "velocity": 0.07874015748031496
        },
        {
          "duration": 0.07894725000000591,
          "durationTicks": 96,
          "midi": 32,
          "name": "G#1",
          "ticks": 75648,
          "time": 62.210432999999995,
          "velocity": 0.07874015748031496
        },
        {
          "duration": 0.07894725000000591,
          "durationTicks": 96,
          "midi": 44,
          "name": "G#2",
          "ticks": 75648,
          "time": 62.210432999999995,
          "velocity": 0.07874015748031496
        },
        {
          "duration": 0.07894725000000591,
          "durationTicks": 96,
          "midi": 38,
          "name": "D2",
          "ticks": 75648,
          "time": 62.210432999999995,
          "velocity": 0.03937007874015748
        },
        {
          "duration": 0.07894725000000591,
          "durationTicks": 96,
          "midi": 42,
          "name": "F#2",
          "ticks": 75648,
          "time": 62.210432999999995,
          "velocity": 0.07874015748031496
        },
        {
          "duration": 0.07894725000000591,
          "durationTicks": 96,
          "midi": 40,
          "name": "E2",
          "ticks": 75648,
          "time": 62.210432999999995,
          "velocity": 0.03937007874015748
        },
        {
          "duration": 0.0789472499999988,
          "durationTicks": 96,
          "midi": 38,
          "name": "D2",
          "ticks": 75840,
          "time": 62.3683275,
          "velocity": 0.03937007874015748
        },
        {
          "duration": 0.0789472499999988,
          "durationTicks": 96,
          "midi": 40,
          "name": "E2",
          "ticks": 75840,
          "time": 62.3683275,
          "velocity": 0.07874015748031496
        },
        {
          "duration": 0.0789472499999988,
          "durationTicks": 96,
          "midi": 40,
          "name": "E2",
          "ticks": 75840,
          "time": 62.3683275,
          "velocity": 0.03937007874015748
        },
        {
          "duration": 0.0789472499999988,
          "durationTicks": 96,
          "midi": 32,
          "name": "G#1",
          "ticks": 75840,
          "time": 62.3683275,
          "velocity": 0.07874015748031496
        },
        {
          "duration": 0.0789472499999988,
          "durationTicks": 96,
          "midi": 42,
          "name": "F#2",
          "ticks": 75840,
          "time": 62.3683275,
          "velocity": 0.07874015748031496
        },
        {
          "duration": 0.0789472499999988,
          "durationTicks": 96,
          "midi": 44,
          "name": "G#2",
          "ticks": 75840,
          "time": 62.3683275,
          "velocity": 0.07874015748031496
        },
        {
          "duration": 0.0789472499999988,
          "durationTicks": 96,
          "midi": 28,
          "name": "E1",
          "ticks": 75840,
          "time": 62.3683275,
          "velocity": 0.07874015748031496
        },
        {
          "duration": 0.0789472499999988,
          "durationTicks": 96,
          "midi": 32,
          "name": "G#1",
          "ticks": 76032,
          "time": 62.526222,
          "velocity": 0.07874015748031496
        },
        {
          "duration": 0.0789472499999988,
          "durationTicks": 96,
          "midi": 42,
          "name": "F#2",
          "ticks": 76032,
          "time": 62.526222,
          "velocity": 0.07874015748031496
        },
        {
          "duration": 0.07894725000000591,
          "durationTicks": 96,
          "midi": 32,
          "name": "G#1",
          "ticks": 76224,
          "time": 62.684116499999995,
          "velocity": 0.07874015748031496
        },
        {
          "duration": 0.07894725000000591,
          "durationTicks": 96,
          "midi": 42,
          "name": "F#2",
          "ticks": 76224,
          "time": 62.684116499999995,
          "velocity": 0.07874015748031496
        },
        {
          "duration": 0.07894725000000591,
          "durationTicks": 96,
          "midi": 38,
          "name": "D2",
          "ticks": 76224,
          "time": 62.684116499999995,
          "velocity": 0.03937007874015748
        },
        {
          "duration": 0.07894725000000591,
          "durationTicks": 96,
          "midi": 40,
          "name": "E2",
          "ticks": 76224,
          "time": 62.684116499999995,
          "velocity": 0.03937007874015748
        },
        {
          "duration": 0.0789472499999988,
          "durationTicks": 96,
          "midi": 42,
          "name": "F#2",
          "ticks": 76416,
          "time": 62.842011,
          "velocity": 0.07874015748031496
        },
        {
          "duration": 0.3157889999999952,
          "durationTicks": 384,
          "midi": 28,
          "name": "E1",
          "ticks": 76416,
          "time": 62.842011,
          "velocity": 0.07874015748031496
        },
        {
          "duration": 0.0789472499999988,
          "durationTicks": 96,
          "midi": 40,
          "name": "E2",
          "ticks": 76416,
          "time": 62.842011,
          "velocity": 0.03937007874015748
        },
        {
          "duration": 0.2368417499999964,
          "durationTicks": 288,
          "midi": 40,
          "name": "E2",
          "ticks": 76416,
          "time": 62.842011,
          "velocity": 0.07874015748031496
        },
        {
          "duration": 0.3157889999999952,
          "durationTicks": 384,
          "midi": 44,
          "name": "G#2",
          "ticks": 76416,
          "time": 62.842011,
          "velocity": 0.07874015748031496
        },
        {
          "duration": 0.2368417499999964,
          "durationTicks": 288,
          "midi": 32,
          "name": "G#1",
          "ticks": 76416,
          "time": 62.842011,
          "velocity": 0.07874015748031496
        },
        {
          "duration": 0.0789472499999988,
          "durationTicks": 96,
          "midi": 38,
          "name": "D2",
          "ticks": 76416,
          "time": 62.842011,
          "velocity": 0.03937007874015748
        },
        {
          "duration": 0.1578944999999976,
          "durationTicks": 192,
          "midi": 40,
          "name": "E2",
          "ticks": 76608,
          "time": 62.9999055,
          "velocity": 0.03937007874015748
        },
        {
          "duration": 0.0789472499999988,
          "durationTicks": 96,
          "midi": 38,
          "name": "D2",
          "ticks": 76608,
          "time": 62.9999055,
          "velocity": 0.03937007874015748
        },
        {
          "duration": 0.1578944999999976,
          "durationTicks": 192,
          "midi": 32,
          "name": "G#1",
          "ticks": 76608,
          "time": 62.9999055,
          "velocity": 0.07874015748031496
        },
        {
          "duration": 0.0789472499999988,
          "durationTicks": 96,
          "midi": 42,
          "name": "F#2",
          "ticks": 76608,
          "time": 62.9999055,
          "velocity": 0.07874015748031496
        },
        {
          "duration": 0.0789472499999988,
          "durationTicks": 96,
          "midi": 32,
          "name": "G#1",
          "ticks": 76704,
          "time": 63.078852749999996,
          "velocity": 0.07874015748031496
        },
        {
          "duration": 0.0789472499999988,
          "durationTicks": 96,
          "midi": 42,
          "name": "F#2",
          "ticks": 76704,
          "time": 63.078852749999996,
          "velocity": 0.07874015748031496
        },
        {
          "duration": 0.07894725000000591,
          "durationTicks": 96,
          "midi": 32,
          "name": "G#1",
          "ticks": 76800,
          "time": 63.157799999999995,
          "velocity": 0.07874015748031496
        },
        {
          "duration": 0.07894725000000591,
          "durationTicks": 96,
          "midi": 42,
          "name": "F#2",
          "ticks": 76800,
          "time": 63.157799999999995,
          "velocity": 0.07874015748031496
        },
        {
          "duration": 0.07894725000000591,
          "durationTicks": 96,
          "midi": 35,
          "name": "B1",
          "ticks": 76800,
          "time": 63.157799999999995,
          "velocity": 0.03937007874015748
        },
        {
          "duration": 0.0789472499999988,
          "durationTicks": 96,
          "midi": 42,
          "name": "F#2",
          "ticks": 76992,
          "time": 63.3156945,
          "velocity": 0.07874015748031496
        },
        {
          "duration": 0.0789472499999988,
          "durationTicks": 96,
          "midi": 32,
          "name": "G#1",
          "ticks": 76992,
          "time": 63.3156945,
          "velocity": 0.07874015748031496
        },
        {
          "duration": 0.0789472499999988,
          "durationTicks": 96,
          "midi": 44,
          "name": "G#2",
          "ticks": 77184,
          "time": 63.473589,
          "velocity": 0.07874015748031496
        },
        {
          "duration": 0.0789472499999988,
          "durationTicks": 96,
          "midi": 32,
          "name": "G#1",
          "ticks": 77184,
          "time": 63.473589,
          "velocity": 0.07874015748031496
        },
        {
          "duration": 0.0789472499999988,
          "durationTicks": 96,
          "midi": 42,
          "name": "F#2",
          "ticks": 77184,
          "time": 63.473589,
          "velocity": 0.07874015748031496
        },
        {
          "duration": 0.0789472499999988,
          "durationTicks": 96,
          "midi": 40,
          "name": "E2",
          "ticks": 77184,
          "time": 63.473589,
          "velocity": 0.07874015748031496
        },
        {
          "duration": 0.0789472499999988,
          "durationTicks": 96,
          "midi": 40,
          "name": "E2",
          "ticks": 77184,
          "time": 63.473589,
          "velocity": 0.03937007874015748
        },
        {
          "duration": 0.0789472499999988,
          "durationTicks": 96,
          "midi": 28,
          "name": "E1",
          "ticks": 77184,
          "time": 63.473589,
          "velocity": 0.07874015748031496
        },
        {
          "duration": 0.0789472499999988,
          "durationTicks": 96,
          "midi": 38,
          "name": "D2",
          "ticks": 77184,
          "time": 63.473589,
          "velocity": 0.03937007874015748
        },
        {
          "duration": 0.07894725000000591,
          "durationTicks": 96,
          "midi": 32,
          "name": "G#1",
          "ticks": 77376,
          "time": 63.631483499999995,
          "velocity": 0.07874015748031496
        },
        {
          "duration": 0.07894725000000591,
          "durationTicks": 96,
          "midi": 40,
          "name": "E2",
          "ticks": 77376,
          "time": 63.631483499999995,
          "velocity": 0.03937007874015748
        },
        {
          "duration": 0.07894725000000591,
          "durationTicks": 96,
          "midi": 40,
          "name": "E2",
          "ticks": 77376,
          "time": 63.631483499999995,
          "velocity": 0.07874015748031496
        },
        {
          "duration": 0.07894725000000591,
          "durationTicks": 96,
          "midi": 28,
          "name": "E1",
          "ticks": 77376,
          "time": 63.631483499999995,
          "velocity": 0.07874015748031496
        },
        {
          "duration": 0.07894725000000591,
          "durationTicks": 96,
          "midi": 38,
          "name": "D2",
          "ticks": 77376,
          "time": 63.631483499999995,
          "velocity": 0.03937007874015748
        },
        {
          "duration": 0.07894725000000591,
          "durationTicks": 96,
          "midi": 44,
          "name": "G#2",
          "ticks": 77376,
          "time": 63.631483499999995,
          "velocity": 0.07874015748031496
        },
        {
          "duration": 0.07894725000000591,
          "durationTicks": 96,
          "midi": 42,
          "name": "F#2",
          "ticks": 77376,
          "time": 63.631483499999995,
          "velocity": 0.07874015748031496
        },
        {
          "duration": 0.0789472499999988,
          "durationTicks": 96,
          "midi": 42,
          "name": "F#2",
          "ticks": 77568,
          "time": 63.789378,
          "velocity": 0.07874015748031496
        },
        {
          "duration": 0.0789472499999988,
          "durationTicks": 96,
          "midi": 32,
          "name": "G#1",
          "ticks": 77568,
          "time": 63.789378,
          "velocity": 0.07874015748031496
        },
        {
          "duration": 0.0789472499999988,
          "durationTicks": 96,
          "midi": 38,
          "name": "D2",
          "ticks": 77760,
          "time": 63.9472725,
          "velocity": 0.03937007874015748
        },
        {
          "duration": 0.0789472499999988,
          "durationTicks": 96,
          "midi": 40,
          "name": "E2",
          "ticks": 77760,
          "time": 63.9472725,
          "velocity": 0.03937007874015748
        },
        {
          "duration": 0.0789472499999988,
          "durationTicks": 96,
          "midi": 42,
          "name": "F#2",
          "ticks": 77760,
          "time": 63.9472725,
          "velocity": 0.07874015748031496
        },
        {
          "duration": 0.0789472499999988,
          "durationTicks": 96,
          "midi": 32,
          "name": "G#1",
          "ticks": 77760,
          "time": 63.9472725,
          "velocity": 0.07874015748031496
        },
        {
          "duration": 0.2368417499999964,
          "durationTicks": 288,
          "midi": 32,
          "name": "G#1",
          "ticks": 77952,
          "time": 64.105167,
          "velocity": 0.07874015748031496
        },
        {
          "duration": 0.0789472499999988,
          "durationTicks": 96,
          "midi": 42,
          "name": "F#2",
          "ticks": 77952,
          "time": 64.105167,
          "velocity": 0.07874015748031496
        },
        {
          "duration": 0.3157890000000094,
          "durationTicks": 384,
          "midi": 28,
          "name": "E1",
          "ticks": 77952,
          "time": 64.105167,
          "velocity": 0.07874015748031496
        },
        {
          "duration": 0.3157890000000094,
          "durationTicks": 384,
          "midi": 44,
          "name": "G#2",
          "ticks": 77952,
          "time": 64.105167,
          "velocity": 0.07874015748031496
        },
        {
          "duration": 0.0789472499999988,
          "durationTicks": 96,
          "midi": 40,
          "name": "E2",
          "ticks": 77952,
          "time": 64.105167,
          "velocity": 0.03937007874015748
        },
        {
          "duration": 0.2368417499999964,
          "durationTicks": 288,
          "midi": 40,
          "name": "E2",
          "ticks": 77952,
          "time": 64.105167,
          "velocity": 0.07874015748031496
        },
        {
          "duration": 0.0789472499999988,
          "durationTicks": 96,
          "midi": 38,
          "name": "D2",
          "ticks": 77952,
          "time": 64.105167,
          "velocity": 0.03937007874015748
        },
        {
          "duration": 0.0789472499999988,
          "durationTicks": 96,
          "midi": 42,
          "name": "F#2",
          "ticks": 78144,
          "time": 64.26306149999999,
          "velocity": 0.07874015748031496
        },
        {
          "duration": 0.0789472499999988,
          "durationTicks": 96,
          "midi": 38,
          "name": "D2",
          "ticks": 78144,
          "time": 64.26306149999999,
          "velocity": 0.03937007874015748
        },
        {
          "duration": 0.15789450000001182,
          "durationTicks": 192,
          "midi": 32,
          "name": "G#1",
          "ticks": 78144,
          "time": 64.26306149999999,
          "velocity": 0.07874015748031496
        },
        {
          "duration": 0.15789450000001182,
          "durationTicks": 192,
          "midi": 40,
          "name": "E2",
          "ticks": 78144,
          "time": 64.26306149999999,
          "velocity": 0.03937007874015748
        },
        {
          "duration": 0.07894725000001301,
          "durationTicks": 96,
          "midi": 32,
          "name": "G#1",
          "ticks": 78240,
          "time": 64.34200874999999,
          "velocity": 0.07874015748031496
        },
        {
          "duration": 0.07894725000001301,
          "durationTicks": 96,
          "midi": 42,
          "name": "F#2",
          "ticks": 78240,
          "time": 64.34200874999999,
          "velocity": 0.07874015748031496
        },
        {
          "duration": 0.0789472499999988,
          "durationTicks": 96,
          "midi": 32,
          "name": "G#1",
          "ticks": 78336,
          "time": 64.420956,
          "velocity": 0.07874015748031496
        },
        {
          "duration": 0.0789472499999988,
          "durationTicks": 96,
          "midi": 42,
          "name": "F#2",
          "ticks": 78336,
          "time": 64.420956,
          "velocity": 0.07874015748031496
        },
        {
          "duration": 0.0789472499999988,
          "durationTicks": 96,
          "midi": 35,
          "name": "B1",
          "ticks": 78336,
          "time": 64.420956,
          "velocity": 0.03937007874015748
        },
        {
          "duration": 0.0789472499999988,
          "durationTicks": 96,
          "midi": 42,
          "name": "F#2",
          "ticks": 78528,
          "time": 64.5788505,
          "velocity": 0.07874015748031496
        },
        {
          "duration": 0.0789472499999988,
          "durationTicks": 96,
          "midi": 32,
          "name": "G#1",
          "ticks": 78528,
          "time": 64.5788505,
          "velocity": 0.07874015748031496
        },
        {
          "duration": 0.0789472499999988,
          "durationTicks": 96,
          "midi": 40,
          "name": "E2",
          "ticks": 78720,
          "time": 64.736745,
          "velocity": 0.07874015748031496
        },
        {
          "duration": 0.0789472499999988,
          "durationTicks": 96,
          "midi": 38,
          "name": "D2",
          "ticks": 78720,
          "time": 64.736745,
          "velocity": 0.03937007874015748
        },
        {
          "duration": 0.0789472499999988,
          "durationTicks": 96,
          "midi": 42,
          "name": "F#2",
          "ticks": 78720,
          "time": 64.736745,
          "velocity": 0.07874015748031496
        },
        {
          "duration": 0.0789472499999988,
          "durationTicks": 96,
          "midi": 44,
          "name": "G#2",
          "ticks": 78720,
          "time": 64.736745,
          "velocity": 0.07874015748031496
        },
        {
          "duration": 0.0789472499999988,
          "durationTicks": 96,
          "midi": 28,
          "name": "E1",
          "ticks": 78720,
          "time": 64.736745,
          "velocity": 0.07874015748031496
        },
        {
          "duration": 0.0789472499999988,
          "durationTicks": 96,
          "midi": 40,
          "name": "E2",
          "ticks": 78720,
          "time": 64.736745,
          "velocity": 0.03937007874015748
        },
        {
          "duration": 0.0789472499999988,
          "durationTicks": 96,
          "midi": 32,
          "name": "G#1",
          "ticks": 78720,
          "time": 64.736745,
          "velocity": 0.07874015748031496
        },
        {
          "duration": 0.0789472499999988,
          "durationTicks": 96,
          "midi": 40,
          "name": "E2",
          "ticks": 78912,
          "time": 64.8946395,
          "velocity": 0.03937007874015748
        },
        {
          "duration": 0.0789472499999988,
          "durationTicks": 96,
          "midi": 40,
          "name": "E2",
          "ticks": 78912,
          "time": 64.8946395,
          "velocity": 0.07874015748031496
        },
        {
          "duration": 0.0789472499999988,
          "durationTicks": 96,
          "midi": 32,
          "name": "G#1",
          "ticks": 78912,
          "time": 64.8946395,
          "velocity": 0.07874015748031496
        },
        {
          "duration": 0.0789472499999988,
          "durationTicks": 96,
          "midi": 44,
          "name": "G#2",
          "ticks": 78912,
          "time": 64.8946395,
          "velocity": 0.07874015748031496
        },
        {
          "duration": 0.0789472499999988,
          "durationTicks": 96,
          "midi": 28,
          "name": "E1",
          "ticks": 78912,
          "time": 64.8946395,
          "velocity": 0.07874015748031496
        },
        {
          "duration": 0.0789472499999988,
          "durationTicks": 96,
          "midi": 38,
          "name": "D2",
          "ticks": 78912,
          "time": 64.8946395,
          "velocity": 0.03937007874015748
        },
        {
          "duration": 0.0789472499999988,
          "durationTicks": 96,
          "midi": 42,
          "name": "F#2",
          "ticks": 78912,
          "time": 64.8946395,
          "velocity": 0.07874015748031496
        },
        {
          "duration": 0.0789472499999988,
          "durationTicks": 96,
          "midi": 42,
          "name": "F#2",
          "ticks": 79104,
          "time": 65.052534,
          "velocity": 0.07874015748031496
        },
        {
          "duration": 0.0789472499999988,
          "durationTicks": 96,
          "midi": 32,
          "name": "G#1",
          "ticks": 79104,
          "time": 65.052534,
          "velocity": 0.07874015748031496
        },
        {
          "duration": 0.0789472499999988,
          "durationTicks": 96,
          "midi": 32,
          "name": "G#1",
          "ticks": 79296,
          "time": 65.21042849999999,
          "velocity": 0.07874015748031496
        },
        {
          "duration": 0.0789472499999988,
          "durationTicks": 96,
          "midi": 42,
          "name": "F#2",
          "ticks": 79296,
          "time": 65.21042849999999,
          "velocity": 0.07874015748031496
        },
        {
          "duration": 0.0789472499999988,
          "durationTicks": 96,
          "midi": 40,
          "name": "E2",
          "ticks": 79296,
          "time": 65.21042849999999,
          "velocity": 0.03937007874015748
        },
        {
          "duration": 0.0789472499999988,
          "durationTicks": 96,
          "midi": 38,
          "name": "D2",
          "ticks": 79296,
          "time": 65.21042849999999,
          "velocity": 0.03937007874015748
        },
        {
          "duration": 0.0789472499999988,
          "durationTicks": 96,
          "midi": 40,
          "name": "E2",
          "ticks": 79488,
          "time": 65.368323,
          "velocity": 0.07874015748031496
        },
        {
          "duration": 0.0789472499999988,
          "durationTicks": 96,
          "midi": 38,
          "name": "D2",
          "ticks": 79488,
          "time": 65.368323,
          "velocity": 0.03937007874015748
        },
        {
          "duration": 0.3157889999999952,
          "durationTicks": 384,
          "midi": 28,
          "name": "E1",
          "ticks": 79488,
          "time": 65.368323,
          "velocity": 0.07874015748031496
        },
        {
          "duration": 0.2368417499999964,
          "durationTicks": 288,
          "midi": 32,
          "name": "G#1",
          "ticks": 79488,
          "time": 65.368323,
          "velocity": 0.07874015748031496
        },
        {
          "duration": 0.0789472499999988,
          "durationTicks": 96,
          "midi": 42,
          "name": "F#2",
          "ticks": 79488,
          "time": 65.368323,
          "velocity": 0.07874015748031496
        },
        {
          "duration": 0.3157889999999952,
          "durationTicks": 384,
          "midi": 44,
          "name": "G#2",
          "ticks": 79488,
          "time": 65.368323,
          "velocity": 0.07874015748031496
        },
        {
          "duration": 0.2368417499999964,
          "durationTicks": 288,
          "midi": 40,
          "name": "E2",
          "ticks": 79488,
          "time": 65.368323,
          "velocity": 0.03937007874015748
        },
        {
          "duration": 0.1578944999999976,
          "durationTicks": 192,
          "midi": 32,
          "name": "G#1",
          "ticks": 79680,
          "time": 65.5262175,
          "velocity": 0.07874015748031496
        },
        {
          "duration": 0.0789472499999988,
          "durationTicks": 96,
          "midi": 42,
          "name": "F#2",
          "ticks": 79680,
          "time": 65.5262175,
          "velocity": 0.07874015748031496
        },
        {
          "duration": 0.0789472499999988,
          "durationTicks": 96,
          "midi": 38,
          "name": "D2",
          "ticks": 79680,
          "time": 65.5262175,
          "velocity": 0.03937007874015748
        },
        {
          "duration": 0.1578944999999976,
          "durationTicks": 192,
          "midi": 40,
          "name": "E2",
          "ticks": 79680,
          "time": 65.5262175,
          "velocity": 0.03937007874015748
        },
        {
          "duration": 0.0789472499999988,
          "durationTicks": 96,
          "midi": 42,
          "name": "F#2",
          "ticks": 79776,
          "time": 65.60516475,
          "velocity": 0.07874015748031496
        },
        {
          "duration": 0.0789472499999988,
          "durationTicks": 96,
          "midi": 32,
          "name": "G#1",
          "ticks": 79776,
          "time": 65.60516475,
          "velocity": 0.07874015748031496
        },
        {
          "duration": 0.0789472499999988,
          "durationTicks": 96,
          "midi": 42,
          "name": "F#2",
          "ticks": 79872,
          "time": 65.684112,
          "velocity": 0.07874015748031496
        },
        {
          "duration": 0.0789472499999988,
          "durationTicks": 96,
          "midi": 35,
          "name": "B1",
          "ticks": 79872,
          "time": 65.684112,
          "velocity": 0.03937007874015748
        },
        {
          "duration": 0.0789472499999988,
          "durationTicks": 96,
          "midi": 32,
          "name": "G#1",
          "ticks": 79872,
          "time": 65.684112,
          "velocity": 0.07874015748031496
        },
        {
          "duration": 0.0789472499999988,
          "durationTicks": 96,
          "midi": 32,
          "name": "G#1",
          "ticks": 80064,
          "time": 65.8420065,
          "velocity": 0.07874015748031496
        },
        {
          "duration": 0.0789472499999988,
          "durationTicks": 96,
          "midi": 42,
          "name": "F#2",
          "ticks": 80064,
          "time": 65.8420065,
          "velocity": 0.07874015748031496
        },
        {
          "duration": 0.0789472499999988,
          "durationTicks": 96,
          "midi": 40,
          "name": "E2",
          "ticks": 80256,
          "time": 65.999901,
          "velocity": 0.07874015748031496
        },
        {
          "duration": 0.0789472499999988,
          "durationTicks": 96,
          "midi": 44,
          "name": "G#2",
          "ticks": 80256,
          "time": 65.999901,
          "velocity": 0.07874015748031496
        },
        {
          "duration": 0.0789472499999988,
          "durationTicks": 96,
          "midi": 38,
          "name": "D2",
          "ticks": 80256,
          "time": 65.999901,
          "velocity": 0.03937007874015748
        },
        {
          "duration": 0.0789472499999988,
          "durationTicks": 96,
          "midi": 40,
          "name": "E2",
          "ticks": 80256,
          "time": 65.999901,
          "velocity": 0.03937007874015748
        },
        {
          "duration": 0.0789472499999988,
          "durationTicks": 96,
          "midi": 32,
          "name": "G#1",
          "ticks": 80256,
          "time": 65.999901,
          "velocity": 0.07874015748031496
        },
        {
          "duration": 0.0789472499999988,
          "durationTicks": 96,
          "midi": 42,
          "name": "F#2",
          "ticks": 80256,
          "time": 65.999901,
          "velocity": 0.07874015748031496
        },
        {
          "duration": 0.0789472499999988,
          "durationTicks": 96,
          "midi": 28,
          "name": "E1",
          "ticks": 80256,
          "time": 65.999901,
          "velocity": 0.07874015748031496
        },
        {
          "duration": 0.0789472499999988,
          "durationTicks": 96,
          "midi": 40,
          "name": "E2",
          "ticks": 80448,
          "time": 66.15779549999999,
          "velocity": 0.03937007874015748
        },
        {
          "duration": 0.0789472499999988,
          "durationTicks": 96,
          "midi": 44,
          "name": "G#2",
          "ticks": 80448,
          "time": 66.15779549999999,
          "velocity": 0.07874015748031496
        },
        {
          "duration": 0.0789472499999988,
          "durationTicks": 96,
          "midi": 32,
          "name": "G#1",
          "ticks": 80448,
          "time": 66.15779549999999,
          "velocity": 0.07874015748031496
        },
        {
          "duration": 0.0789472499999988,
          "durationTicks": 96,
          "midi": 28,
          "name": "E1",
          "ticks": 80448,
          "time": 66.15779549999999,
          "velocity": 0.07874015748031496
        },
        {
          "duration": 0.0789472499999988,
          "durationTicks": 96,
          "midi": 42,
          "name": "F#2",
          "ticks": 80448,
          "time": 66.15779549999999,
          "velocity": 0.07874015748031496
        },
        {
          "duration": 0.0789472499999988,
          "durationTicks": 96,
          "midi": 38,
          "name": "D2",
          "ticks": 80448,
          "time": 66.15779549999999,
          "velocity": 0.03937007874015748
        },
        {
          "duration": 0.0789472499999988,
          "durationTicks": 96,
          "midi": 40,
          "name": "E2",
          "ticks": 80448,
          "time": 66.15779549999999,
          "velocity": 0.07874015748031496
        },
        {
          "duration": 0.0789472499999988,
          "durationTicks": 96,
          "midi": 32,
          "name": "G#1",
          "ticks": 80640,
          "time": 66.31569,
          "velocity": 0.07874015748031496
        },
        {
          "duration": 0.0789472499999988,
          "durationTicks": 96,
          "midi": 42,
          "name": "F#2",
          "ticks": 80640,
          "time": 66.31569,
          "velocity": 0.07874015748031496
        },
        {
          "duration": 0.0789472499999988,
          "durationTicks": 96,
          "midi": 40,
          "name": "E2",
          "ticks": 80832,
          "time": 66.4735845,
          "velocity": 0.03937007874015748
        },
        {
          "duration": 0.0789472499999988,
          "durationTicks": 96,
          "midi": 38,
          "name": "D2",
          "ticks": 80832,
          "time": 66.4735845,
          "velocity": 0.03937007874015748
        },
        {
          "duration": 0.0789472499999988,
          "durationTicks": 96,
          "midi": 32,
          "name": "G#1",
          "ticks": 80832,
          "time": 66.4735845,
          "velocity": 0.07874015748031496
        },
        {
          "duration": 0.0789472499999988,
          "durationTicks": 96,
          "midi": 42,
          "name": "F#2",
          "ticks": 80832,
          "time": 66.4735845,
          "velocity": 0.07874015748031496
        },
        {
          "duration": 0.2368417499999964,
          "durationTicks": 288,
          "midi": 32,
          "name": "G#1",
          "ticks": 81024,
          "time": 66.631479,
          "velocity": 0.07874015748031496
        },
        {
          "duration": 0.0789472499999988,
          "durationTicks": 96,
          "midi": 40,
          "name": "E2",
          "ticks": 81024,
          "time": 66.631479,
          "velocity": 0.03937007874015748
        },
        {
          "duration": 0.2368417499999964,
          "durationTicks": 288,
          "midi": 40,
          "name": "E2",
          "ticks": 81024,
          "time": 66.631479,
          "velocity": 0.07874015748031496
        },
        {
          "duration": 0.3157889999999952,
          "durationTicks": 384,
          "midi": 28,
          "name": "E1",
          "ticks": 81024,
          "time": 66.631479,
          "velocity": 0.07874015748031496
        },
        {
          "duration": 0.0789472499999988,
          "durationTicks": 96,
          "midi": 42,
          "name": "F#2",
          "ticks": 81024,
          "time": 66.631479,
          "velocity": 0.07874015748031496
        },
        {
          "duration": 0.3157889999999952,
          "durationTicks": 384,
          "midi": 44,
          "name": "G#2",
          "ticks": 81024,
          "time": 66.631479,
          "velocity": 0.07874015748031496
        },
        {
          "duration": 0.0789472499999988,
          "durationTicks": 96,
          "midi": 38,
          "name": "D2",
          "ticks": 81024,
          "time": 66.631479,
          "velocity": 0.03937007874015748
        },
        {
          "duration": 0.0789472499999988,
          "durationTicks": 96,
          "midi": 42,
          "name": "F#2",
          "ticks": 81216,
          "time": 66.7893735,
          "velocity": 0.07874015748031496
        },
        {
          "duration": 0.0789472499999988,
          "durationTicks": 96,
          "midi": 38,
          "name": "D2",
          "ticks": 81216,
          "time": 66.7893735,
          "velocity": 0.03937007874015748
        },
        {
          "duration": 0.1578944999999976,
          "durationTicks": 192,
          "midi": 32,
          "name": "G#1",
          "ticks": 81216,
          "time": 66.7893735,
          "velocity": 0.07874015748031496
        },
        {
          "duration": 0.1578944999999976,
          "durationTicks": 192,
          "midi": 40,
          "name": "E2",
          "ticks": 81216,
          "time": 66.7893735,
          "velocity": 0.03937007874015748
        },
        {
          "duration": 0.0789472499999988,
          "durationTicks": 96,
          "midi": 32,
          "name": "G#1",
          "ticks": 81312,
          "time": 66.86832075,
          "velocity": 0.07874015748031496
        },
        {
          "duration": 0.0789472499999988,
          "durationTicks": 96,
          "midi": 42,
          "name": "F#2",
          "ticks": 81312,
          "time": 66.86832075,
          "velocity": 0.07874015748031496
        },
        {
          "duration": 0.0789472499999988,
          "durationTicks": 96,
          "midi": 42,
          "name": "F#2",
          "ticks": 81408,
          "time": 66.947268,
          "velocity": 0.07874015748031496
        },
        {
          "duration": 0.0789472499999988,
          "durationTicks": 96,
          "midi": 32,
          "name": "G#1",
          "ticks": 81408,
          "time": 66.947268,
          "velocity": 0.07874015748031496
        },
        {
          "duration": 0.0789472499999988,
          "durationTicks": 96,
          "midi": 35,
          "name": "B1",
          "ticks": 81408,
          "time": 66.947268,
          "velocity": 0.03937007874015748
        },
        {
          "duration": 0.0789472499999988,
          "durationTicks": 96,
          "midi": 32,
          "name": "G#1",
          "ticks": 81600,
          "time": 67.10516249999999,
          "velocity": 0.07874015748031496
        },
        {
          "duration": 0.0789472499999988,
          "durationTicks": 96,
          "midi": 42,
          "name": "F#2",
          "ticks": 81600,
          "time": 67.10516249999999,
          "velocity": 0.07874015748031496
        },
        {
          "duration": 0.0789472499999988,
          "durationTicks": 96,
          "midi": 38,
          "name": "D2",
          "ticks": 81792,
          "time": 67.263057,
          "velocity": 0.03937007874015748
        },
        {
          "duration": 0.0789472499999988,
          "durationTicks": 96,
          "midi": 28,
          "name": "E1",
          "ticks": 81792,
          "time": 67.263057,
          "velocity": 0.07874015748031496
        },
        {
          "duration": 0.0789472499999988,
          "durationTicks": 96,
          "midi": 40,
          "name": "E2",
          "ticks": 81792,
          "time": 67.263057,
          "velocity": 0.03937007874015748
        },
        {
          "duration": 0.0789472499999988,
          "durationTicks": 96,
          "midi": 44,
          "name": "G#2",
          "ticks": 81792,
          "time": 67.263057,
          "velocity": 0.07874015748031496
        },
        {
          "duration": 0.0789472499999988,
          "durationTicks": 96,
          "midi": 32,
          "name": "G#1",
          "ticks": 81792,
          "time": 67.263057,
          "velocity": 0.07874015748031496
        },
        {
          "duration": 0.0789472499999988,
          "durationTicks": 96,
          "midi": 40,
          "name": "E2",
          "ticks": 81792,
          "time": 67.263057,
          "velocity": 0.07874015748031496
        },
        {
          "duration": 0.0789472499999988,
          "durationTicks": 96,
          "midi": 42,
          "name": "F#2",
          "ticks": 81792,
          "time": 67.263057,
          "velocity": 0.07874015748031496
        },
        {
          "duration": 0.0789472499999988,
          "durationTicks": 96,
          "midi": 32,
          "name": "G#1",
          "ticks": 81984,
          "time": 67.4209515,
          "velocity": 0.07874015748031496
        },
        {
          "duration": 0.0789472499999988,
          "durationTicks": 96,
          "midi": 28,
          "name": "E1",
          "ticks": 81984,
          "time": 67.4209515,
          "velocity": 0.07874015748031496
        },
        {
          "duration": 0.0789472499999988,
          "durationTicks": 96,
          "midi": 44,
          "name": "G#2",
          "ticks": 81984,
          "time": 67.4209515,
          "velocity": 0.07874015748031496
        },
        {
          "duration": 0.0789472499999988,
          "durationTicks": 96,
          "midi": 40,
          "name": "E2",
          "ticks": 81984,
          "time": 67.4209515,
          "velocity": 0.07874015748031496
        },
        {
          "duration": 0.0789472499999988,
          "durationTicks": 96,
          "midi": 40,
          "name": "E2",
          "ticks": 81984,
          "time": 67.4209515,
          "velocity": 0.03937007874015748
        },
        {
          "duration": 0.0789472499999988,
          "durationTicks": 96,
          "midi": 38,
          "name": "D2",
          "ticks": 81984,
          "time": 67.4209515,
          "velocity": 0.03937007874015748
        },
        {
          "duration": 0.0789472499999988,
          "durationTicks": 96,
          "midi": 42,
          "name": "F#2",
          "ticks": 81984,
          "time": 67.4209515,
          "velocity": 0.07874015748031496
        },
        {
          "duration": 0.0789472499999988,
          "durationTicks": 96,
          "midi": 32,
          "name": "G#1",
          "ticks": 82176,
          "time": 67.578846,
          "velocity": 0.07874015748031496
        },
        {
          "duration": 0.0789472499999988,
          "durationTicks": 96,
          "midi": 42,
          "name": "F#2",
          "ticks": 82176,
          "time": 67.578846,
          "velocity": 0.07874015748031496
        },
        {
          "duration": 0.0789472499999988,
          "durationTicks": 96,
          "midi": 32,
          "name": "G#1",
          "ticks": 82368,
          "time": 67.7367405,
          "velocity": 0.07874015748031496
        },
        {
          "duration": 0.0789472499999988,
          "durationTicks": 96,
          "midi": 40,
          "name": "E2",
          "ticks": 82368,
          "time": 67.7367405,
          "velocity": 0.03937007874015748
        },
        {
          "duration": 0.0789472499999988,
          "durationTicks": 96,
          "midi": 42,
          "name": "F#2",
          "ticks": 82368,
          "time": 67.7367405,
          "velocity": 0.07874015748031496
        },
        {
          "duration": 0.0789472499999988,
          "durationTicks": 96,
          "midi": 38,
          "name": "D2",
          "ticks": 82368,
          "time": 67.7367405,
          "velocity": 0.03937007874015748
        },
        {
          "duration": 0.0789472499999988,
          "durationTicks": 96,
          "midi": 42,
          "name": "F#2",
          "ticks": 82560,
          "time": 67.894635,
          "velocity": 0.07874015748031496
        },
        {
          "duration": 0.3157890000000094,
          "durationTicks": 384,
          "midi": 28,
          "name": "E1",
          "ticks": 82560,
          "time": 67.894635,
          "velocity": 0.07874015748031496
        },
        {
          "duration": 0.3157890000000094,
          "durationTicks": 384,
          "midi": 44,
          "name": "G#2",
          "ticks": 82560,
          "time": 67.894635,
          "velocity": 0.07874015748031496
        },
        {
          "duration": 0.0789472499999988,
          "durationTicks": 96,
          "midi": 38,
          "name": "D2",
          "ticks": 82560,
          "time": 67.894635,
          "velocity": 0.03937007874015748
        },
        {
          "duration": 0.0789472499999988,
          "durationTicks": 96,
          "midi": 40,
          "name": "E2",
          "ticks": 82560,
          "time": 67.894635,
          "velocity": 0.03937007874015748
        },
        {
          "duration": 0.2368417499999964,
          "durationTicks": 288,
          "midi": 40,
          "name": "E2",
          "ticks": 82560,
          "time": 67.894635,
          "velocity": 0.07874015748031496
        },
        {
          "duration": 0.2368417499999964,
          "durationTicks": 288,
          "midi": 32,
          "name": "G#1",
          "ticks": 82560,
          "time": 67.894635,
          "velocity": 0.07874015748031496
        },
        {
          "duration": 0.0789472499999988,
          "durationTicks": 96,
          "midi": 38,
          "name": "D2",
          "ticks": 82752,
          "time": 68.05252949999999,
          "velocity": 0.03937007874015748
        },
        {
          "duration": 0.15789450000001182,
          "durationTicks": 192,
          "midi": 32,
          "name": "G#1",
          "ticks": 82752,
          "time": 68.05252949999999,
          "velocity": 0.07874015748031496
        },
        {
          "duration": 0.0789472499999988,
          "durationTicks": 96,
          "midi": 42,
          "name": "F#2",
          "ticks": 82752,
          "time": 68.05252949999999,
          "velocity": 0.07874015748031496
        },
        {
          "duration": 0.15789450000001182,
          "durationTicks": 192,
          "midi": 40,
          "name": "E2",
          "ticks": 82752,
          "time": 68.05252949999999,
          "velocity": 0.03937007874015748
        },
        {
          "duration": 0.07894725000001301,
          "durationTicks": 96,
          "midi": 42,
          "name": "F#2",
          "ticks": 82848,
          "time": 68.13147674999999,
          "velocity": 0.07874015748031496
        },
        {
          "duration": 0.07894725000001301,
          "durationTicks": 96,
          "midi": 32,
          "name": "G#1",
          "ticks": 82848,
          "time": 68.13147674999999,
          "velocity": 0.07874015748031496
        },
        {
          "duration": 0.0789472499999988,
          "durationTicks": 96,
          "midi": 32,
          "name": "G#1",
          "ticks": 82944,
          "time": 68.210424,
          "velocity": 0.07874015748031496
        },
        {
          "duration": 0.0789472499999988,
          "durationTicks": 96,
          "midi": 35,
          "name": "B1",
          "ticks": 82944,
          "time": 68.210424,
          "velocity": 0.03937007874015748
        },
        {
          "duration": 0.0789472499999988,
          "durationTicks": 96,
          "midi": 42,
          "name": "F#2",
          "ticks": 82944,
          "time": 68.210424,
          "velocity": 0.07874015748031496
        },
        {
          "duration": 0.0789472499999988,
          "durationTicks": 96,
          "midi": 42,
          "name": "F#2",
          "ticks": 83136,
          "time": 68.3683185,
          "velocity": 0.07874015748031496
        },
        {
          "duration": 0.0789472499999988,
          "durationTicks": 96,
          "midi": 32,
          "name": "G#1",
          "ticks": 83136,
          "time": 68.3683185,
          "velocity": 0.07874015748031496
        },
        {
          "duration": 0.0789472499999988,
          "durationTicks": 96,
          "midi": 44,
          "name": "G#2",
          "ticks": 83328,
          "time": 68.526213,
          "velocity": 0.07874015748031496
        },
        {
          "duration": 0.0789472499999988,
          "durationTicks": 96,
          "midi": 42,
          "name": "F#2",
          "ticks": 83328,
          "time": 68.526213,
          "velocity": 0.07874015748031496
        },
        {
          "duration": 0.0789472499999988,
          "durationTicks": 96,
          "midi": 40,
          "name": "E2",
          "ticks": 83328,
          "time": 68.526213,
          "velocity": 0.03937007874015748
        },
        {
          "duration": 0.0789472499999988,
          "durationTicks": 96,
          "midi": 38,
          "name": "D2",
          "ticks": 83328,
          "time": 68.526213,
          "velocity": 0.03937007874015748
        },
        {
          "duration": 0.0789472499999988,
          "durationTicks": 96,
          "midi": 32,
          "name": "G#1",
          "ticks": 83328,
          "time": 68.526213,
          "velocity": 0.07874015748031496
        },
        {
          "duration": 0.0789472499999988,
          "durationTicks": 96,
          "midi": 40,
          "name": "E2",
          "ticks": 83328,
          "time": 68.526213,
          "velocity": 0.07874015748031496
        },
        {
          "duration": 0.0789472499999988,
          "durationTicks": 96,
          "midi": 28,
          "name": "E1",
          "ticks": 83328,
          "time": 68.526213,
          "velocity": 0.07874015748031496
        },
        {
          "duration": 0.0789472499999988,
          "durationTicks": 96,
          "midi": 40,
          "name": "E2",
          "ticks": 83520,
          "time": 68.6841075,
          "velocity": 0.07874015748031496
        },
        {
          "duration": 0.0789472499999988,
          "durationTicks": 96,
          "midi": 44,
          "name": "G#2",
          "ticks": 83520,
          "time": 68.6841075,
          "velocity": 0.07874015748031496
        },
        {
          "duration": 0.0789472499999988,
          "durationTicks": 96,
          "midi": 28,
          "name": "E1",
          "ticks": 83520,
          "time": 68.6841075,
          "velocity": 0.07874015748031496
        },
        {
          "duration": 0.0789472499999988,
          "durationTicks": 96,
          "midi": 42,
          "name": "F#2",
          "ticks": 83520,
          "time": 68.6841075,
          "velocity": 0.07874015748031496
        },
        {
          "duration": 0.0789472499999988,
          "durationTicks": 96,
          "midi": 40,
          "name": "E2",
          "ticks": 83520,
          "time": 68.6841075,
          "velocity": 0.03937007874015748
        },
        {
          "duration": 0.0789472499999988,
          "durationTicks": 96,
          "midi": 38,
          "name": "D2",
          "ticks": 83520,
          "time": 68.6841075,
          "velocity": 0.03937007874015748
        },
        {
          "duration": 0.0789472499999988,
          "durationTicks": 96,
          "midi": 32,
          "name": "G#1",
          "ticks": 83520,
          "time": 68.6841075,
          "velocity": 0.07874015748031496
        },
        {
          "duration": 0.0789472499999988,
          "durationTicks": 96,
          "midi": 32,
          "name": "G#1",
          "ticks": 83712,
          "time": 68.842002,
          "velocity": 0.07874015748031496
        },
        {
          "duration": 0.0789472499999988,
          "durationTicks": 96,
          "midi": 42,
          "name": "F#2",
          "ticks": 83712,
          "time": 68.842002,
          "velocity": 0.07874015748031496
        },
        {
          "duration": 0.0789472499999988,
          "durationTicks": 96,
          "midi": 38,
          "name": "D2",
          "ticks": 83904,
          "time": 68.99989649999999,
          "velocity": 0.03937007874015748
        },
        {
          "duration": 0.0789472499999988,
          "durationTicks": 96,
          "midi": 40,
          "name": "E2",
          "ticks": 83904,
          "time": 68.99989649999999,
          "velocity": 0.03937007874015748
        },
        {
          "duration": 0.0789472499999988,
          "durationTicks": 96,
          "midi": 42,
          "name": "F#2",
          "ticks": 83904,
          "time": 68.99989649999999,
          "velocity": 0.07874015748031496
        },
        {
          "duration": 0.0789472499999988,
          "durationTicks": 96,
          "midi": 32,
          "name": "G#1",
          "ticks": 83904,
          "time": 68.99989649999999,
          "velocity": 0.07874015748031496
        },
        {
          "duration": 0.2368417499999964,
          "durationTicks": 288,
          "midi": 32,
          "name": "G#1",
          "ticks": 84096,
          "time": 69.157791,
          "velocity": 0.07874015748031496
        },
        {
          "duration": 0.0789472499999988,
          "durationTicks": 96,
          "midi": 40,
          "name": "E2",
          "ticks": 84096,
          "time": 69.157791,
          "velocity": 0.03937007874015748
        },
        {
          "duration": 0.3157889999999952,
          "durationTicks": 384,
          "midi": 44,
          "name": "G#2",
          "ticks": 84096,
          "time": 69.157791,
          "velocity": 0.07874015748031496
        },
        {
          "duration": 0.2368417499999964,
          "durationTicks": 288,
          "midi": 40,
          "name": "E2",
          "ticks": 84096,
          "time": 69.157791,
          "velocity": 0.07874015748031496
        },
        {
          "duration": 0.0789472499999988,
          "durationTicks": 96,
          "midi": 42,
          "name": "F#2",
          "ticks": 84096,
          "time": 69.157791,
          "velocity": 0.07874015748031496
        },
        {
          "duration": 0.3157889999999952,
          "durationTicks": 384,
          "midi": 28,
          "name": "E1",
          "ticks": 84096,
          "time": 69.157791,
          "velocity": 0.07874015748031496
        },
        {
          "duration": 0.0789472499999988,
          "durationTicks": 96,
          "midi": 38,
          "name": "D2",
          "ticks": 84096,
          "time": 69.157791,
          "velocity": 0.03937007874015748
        },
        {
          "duration": 0.0789472499999988,
          "durationTicks": 96,
          "midi": 42,
          "name": "F#2",
          "ticks": 84288,
          "time": 69.3156855,
          "velocity": 0.07874015748031496
        },
        {
          "duration": 0.0789472499999988,
          "durationTicks": 96,
          "midi": 38,
          "name": "D2",
          "ticks": 84288,
          "time": 69.3156855,
          "velocity": 0.03937007874015748
        },
        {
          "duration": 0.1578944999999976,
          "durationTicks": 192,
          "midi": 32,
          "name": "G#1",
          "ticks": 84288,
          "time": 69.3156855,
          "velocity": 0.07874015748031496
        },
        {
          "duration": 0.1578944999999976,
          "durationTicks": 192,
          "midi": 40,
          "name": "E2",
          "ticks": 84288,
          "time": 69.3156855,
          "velocity": 0.03937007874015748
        },
        {
          "duration": 0.0789472499999988,
          "durationTicks": 96,
          "midi": 32,
          "name": "G#1",
          "ticks": 84384,
          "time": 69.39463275,
          "velocity": 0.07874015748031496
        },
        {
          "duration": 0.0789472499999988,
          "durationTicks": 96,
          "midi": 42,
          "name": "F#2",
          "ticks": 84384,
          "time": 69.39463275,
          "velocity": 0.07874015748031496
        },
        {
          "duration": 0.0789472499999988,
          "durationTicks": 96,
          "midi": 35,
          "name": "B1",
          "ticks": 84480,
          "time": 69.47358,
          "velocity": 0.03937007874015748
        },
        {
          "duration": 0.0789472499999988,
          "durationTicks": 96,
          "midi": 32,
          "name": "G#1",
          "ticks": 84480,
          "time": 69.47358,
          "velocity": 0.07874015748031496
        },
        {
          "duration": 0.0789472499999988,
          "durationTicks": 96,
          "midi": 42,
          "name": "F#2",
          "ticks": 84480,
          "time": 69.47358,
          "velocity": 0.07874015748031496
        },
        {
          "duration": 0.0789472499999988,
          "durationTicks": 96,
          "midi": 42,
          "name": "F#2",
          "ticks": 84672,
          "time": 69.6314745,
          "velocity": 0.07874015748031496
        },
        {
          "duration": 0.0789472499999988,
          "durationTicks": 96,
          "midi": 32,
          "name": "G#1",
          "ticks": 84672,
          "time": 69.6314745,
          "velocity": 0.07874015748031496
        },
        {
          "duration": 0.0789472499999988,
          "durationTicks": 96,
          "midi": 40,
          "name": "E2",
          "ticks": 84864,
          "time": 69.789369,
          "velocity": 0.07874015748031496
        },
        {
          "duration": 0.0789472499999988,
          "durationTicks": 96,
          "midi": 44,
          "name": "G#2",
          "ticks": 84864,
          "time": 69.789369,
          "velocity": 0.07874015748031496
        },
        {
          "duration": 0.0789472499999988,
          "durationTicks": 96,
          "midi": 28,
          "name": "E1",
          "ticks": 84864,
          "time": 69.789369,
          "velocity": 0.07874015748031496
        },
        {
          "duration": 0.0789472499999988,
          "durationTicks": 96,
          "midi": 32,
          "name": "G#1",
          "ticks": 84864,
          "time": 69.789369,
          "velocity": 0.07874015748031496
        },
        {
          "duration": 0.0789472499999988,
          "durationTicks": 96,
          "midi": 42,
          "name": "F#2",
          "ticks": 84864,
          "time": 69.789369,
          "velocity": 0.07874015748031496
        },
        {
          "duration": 0.0789472499999988,
          "durationTicks": 96,
          "midi": 40,
          "name": "E2",
          "ticks": 84864,
          "time": 69.789369,
          "velocity": 0.03937007874015748
        },
        {
          "duration": 0.0789472499999988,
          "durationTicks": 96,
          "midi": 38,
          "name": "D2",
          "ticks": 84864,
          "time": 69.789369,
          "velocity": 0.03937007874015748
        },
        {
          "duration": 0.0789472499999988,
          "durationTicks": 96,
          "midi": 38,
          "name": "D2",
          "ticks": 85056,
          "time": 69.94726349999999,
          "velocity": 0.03937007874015748
        },
        {
          "duration": 0.0789472499999988,
          "durationTicks": 96,
          "midi": 32,
          "name": "G#1",
          "ticks": 85056,
          "time": 69.94726349999999,
          "velocity": 0.07874015748031496
        },
        {
          "duration": 0.0789472499999988,
          "durationTicks": 96,
          "midi": 42,
          "name": "F#2",
          "ticks": 85056,
          "time": 69.94726349999999,
          "velocity": 0.07874015748031496
        },
        {
          "duration": 0.0789472499999988,
          "durationTicks": 96,
          "midi": 40,
          "name": "E2",
          "ticks": 85056,
          "time": 69.94726349999999,
          "velocity": 0.03937007874015748
        },
        {
          "duration": 0.0789472499999988,
          "durationTicks": 96,
          "midi": 44,
          "name": "G#2",
          "ticks": 85056,
          "time": 69.94726349999999,
          "velocity": 0.07874015748031496
        },
        {
          "duration": 0.0789472499999988,
          "durationTicks": 96,
          "midi": 40,
          "name": "E2",
          "ticks": 85056,
          "time": 69.94726349999999,
          "velocity": 0.07874015748031496
        },
        {
          "duration": 0.0789472499999988,
          "durationTicks": 96,
          "midi": 28,
          "name": "E1",
          "ticks": 85056,
          "time": 69.94726349999999,
          "velocity": 0.07874015748031496
        },
        {
          "duration": 0.0789472499999988,
          "durationTicks": 96,
          "midi": 42,
          "name": "F#2",
          "ticks": 85248,
          "time": 70.105158,
          "velocity": 0.07874015748031496
        },
        {
          "duration": 0.0789472499999988,
          "durationTicks": 96,
          "midi": 32,
          "name": "G#1",
          "ticks": 85248,
          "time": 70.105158,
          "velocity": 0.07874015748031496
        },
        {
          "duration": 0.0789472499999988,
          "durationTicks": 96,
          "midi": 40,
          "name": "E2",
          "ticks": 85440,
          "time": 70.2630525,
          "velocity": 0.03937007874015748
        },
        {
          "duration": 0.0789472499999988,
          "durationTicks": 96,
          "midi": 38,
          "name": "D2",
          "ticks": 85440,
          "time": 70.2630525,
          "velocity": 0.03937007874015748
        },
        {
          "duration": 0.0789472499999988,
          "durationTicks": 96,
          "midi": 32,
          "name": "G#1",
          "ticks": 85440,
          "time": 70.2630525,
          "velocity": 0.07874015748031496
        },
        {
          "duration": 0.0789472499999988,
          "durationTicks": 96,
          "midi": 42,
          "name": "F#2",
          "ticks": 85440,
          "time": 70.2630525,
          "velocity": 0.07874015748031496
        },
        {
          "duration": 0.2368417499999964,
          "durationTicks": 288,
          "midi": 32,
          "name": "G#1",
          "ticks": 85632,
          "time": 70.420947,
          "velocity": 0.07874015748031496
        },
        {
          "duration": 0.0789472499999988,
          "durationTicks": 96,
          "midi": 42,
          "name": "F#2",
          "ticks": 85632,
          "time": 70.420947,
          "velocity": 0.07874015748031496
        },
        {
          "duration": 0.0789472499999988,
          "durationTicks": 96,
          "midi": 40,
          "name": "E2",
          "ticks": 85632,
          "time": 70.420947,
          "velocity": 0.07874015748031496
        },
        {
          "duration": 0.3157889999999952,
          "durationTicks": 384,
          "midi": 28,
          "name": "E1",
          "ticks": 85632,
          "time": 70.420947,
          "velocity": 0.07874015748031496
        },
        {
          "duration": 0.2368417499999964,
          "durationTicks": 288,
          "midi": 40,
          "name": "E2",
          "ticks": 85632,
          "time": 70.420947,
          "velocity": 0.03937007874015748
        },
        {
          "duration": 0.3157889999999952,
          "durationTicks": 384,
          "midi": 44,
          "name": "G#2",
          "ticks": 85632,
          "time": 70.420947,
          "velocity": 0.07874015748031496
        },
        {
          "duration": 0.0789472499999988,
          "durationTicks": 96,
          "midi": 38,
          "name": "D2",
          "ticks": 85632,
          "time": 70.420947,
          "velocity": 0.03937007874015748
        },
        {
          "duration": 0.1578944999999976,
          "durationTicks": 192,
          "midi": 32,
          "name": "G#1",
          "ticks": 85824,
          "time": 70.5788415,
          "velocity": 0.07874015748031496
        },
        {
          "duration": 0.0789472499999988,
          "durationTicks": 96,
          "midi": 38,
          "name": "D2",
          "ticks": 85824,
          "time": 70.5788415,
          "velocity": 0.03937007874015748
        },
        {
          "duration": 0.0789472499999988,
          "durationTicks": 96,
          "midi": 42,
          "name": "F#2",
          "ticks": 85824,
          "time": 70.5788415,
          "velocity": 0.07874015748031496
        },
        {
          "duration": 0.1578944999999976,
          "durationTicks": 192,
          "midi": 40,
          "name": "E2",
          "ticks": 85824,
          "time": 70.5788415,
          "velocity": 0.03937007874015748
        },
        {
          "duration": 0.0789472499999988,
          "durationTicks": 96,
          "midi": 42,
          "name": "F#2",
          "ticks": 85920,
          "time": 70.65778875,
          "velocity": 0.07874015748031496
        },
        {
          "duration": 0.0789472499999988,
          "durationTicks": 96,
          "midi": 32,
          "name": "G#1",
          "ticks": 85920,
          "time": 70.65778875,
          "velocity": 0.07874015748031496
        },
        {
          "duration": 0.0789472499999988,
          "durationTicks": 96,
          "midi": 42,
          "name": "F#2",
          "ticks": 86016,
          "time": 70.736736,
          "velocity": 0.07874015748031496
        },
        {
          "duration": 0.0789472499999988,
          "durationTicks": 96,
          "midi": 32,
          "name": "G#1",
          "ticks": 86016,
          "time": 70.736736,
          "velocity": 0.07874015748031496
        },
        {
          "duration": 0.0789472499999988,
          "durationTicks": 96,
          "midi": 35,
          "name": "B1",
          "ticks": 86016,
          "time": 70.736736,
          "velocity": 0.03937007874015748
        },
        {
          "duration": 0.07894725000001301,
          "durationTicks": 96,
          "midi": 42,
          "name": "F#2",
          "ticks": 86208,
          "time": 70.89463049999999,
          "velocity": 0.07874015748031496
        },
        {
          "duration": 0.07894725000001301,
          "durationTicks": 96,
          "midi": 32,
          "name": "G#1",
          "ticks": 86208,
          "time": 70.89463049999999,
          "velocity": 0.07874015748031496
        },
        {
          "duration": 0.0789472499999988,
          "durationTicks": 96,
          "midi": 28,
          "name": "E1",
          "ticks": 86400,
          "time": 71.052525,
          "velocity": 0.07874015748031496
        },
        {
          "duration": 0.0789472499999988,
          "durationTicks": 96,
          "midi": 32,
          "name": "G#1",
          "ticks": 86400,
          "time": 71.052525,
          "velocity": 0.07874015748031496
        },
        {
          "duration": 0.0789472499999988,
          "durationTicks": 96,
          "midi": 44,
          "name": "G#2",
          "ticks": 86400,
          "time": 71.052525,
          "velocity": 0.07874015748031496
        },
        {
          "duration": 0.0789472499999988,
          "durationTicks": 96,
          "midi": 38,
          "name": "D2",
          "ticks": 86400,
          "time": 71.052525,
          "velocity": 0.03937007874015748
        },
        {
          "duration": 0.0789472499999988,
          "durationTicks": 96,
          "midi": 40,
          "name": "E2",
          "ticks": 86400,
          "time": 71.052525,
          "velocity": 0.03937007874015748
        },
        {
          "duration": 0.0789472499999988,
          "durationTicks": 96,
          "midi": 40,
          "name": "E2",
          "ticks": 86400,
          "time": 71.052525,
          "velocity": 0.07874015748031496
        },
        {
          "duration": 0.0789472499999988,
          "durationTicks": 96,
          "midi": 42,
          "name": "F#2",
          "ticks": 86400,
          "time": 71.052525,
          "velocity": 0.07874015748031496
        },
        {
          "duration": 0.0789472499999988,
          "durationTicks": 96,
          "midi": 38,
          "name": "D2",
          "ticks": 86592,
          "time": 71.2104195,
          "velocity": 0.03937007874015748
        },
        {
          "duration": 0.0789472499999988,
          "durationTicks": 96,
          "midi": 28,
          "name": "E1",
          "ticks": 86592,
          "time": 71.2104195,
          "velocity": 0.07874015748031496
        },
        {
          "duration": 0.0789472499999988,
          "durationTicks": 96,
          "midi": 32,
          "name": "G#1",
          "ticks": 86592,
          "time": 71.2104195,
          "velocity": 0.07874015748031496
        },
        {
          "duration": 0.0789472499999988,
          "durationTicks": 96,
          "midi": 44,
          "name": "G#2",
          "ticks": 86592,
          "time": 71.2104195,
          "velocity": 0.07874015748031496
        },
        {
          "duration": 0.0789472499999988,
          "durationTicks": 96,
          "midi": 40,
          "name": "E2",
          "ticks": 86592,
          "time": 71.2104195,
          "velocity": 0.07874015748031496
        },
        {
          "duration": 0.0789472499999988,
          "durationTicks": 96,
          "midi": 42,
          "name": "F#2",
          "ticks": 86592,
          "time": 71.2104195,
          "velocity": 0.07874015748031496
        },
        {
          "duration": 0.0789472499999988,
          "durationTicks": 96,
          "midi": 40,
          "name": "E2",
          "ticks": 86592,
          "time": 71.2104195,
          "velocity": 0.03937007874015748
        },
        {
          "duration": 0.0789472499999988,
          "durationTicks": 96,
          "midi": 32,
          "name": "G#1",
          "ticks": 86784,
          "time": 71.368314,
          "velocity": 0.07874015748031496
        },
        {
          "duration": 0.0789472499999988,
          "durationTicks": 96,
          "midi": 42,
          "name": "F#2",
          "ticks": 86784,
          "time": 71.368314,
          "velocity": 0.07874015748031496
        },
        {
          "duration": 0.0789472499999988,
          "durationTicks": 96,
          "midi": 40,
          "name": "E2",
          "ticks": 86976,
          "time": 71.5262085,
          "velocity": 0.03937007874015748
        },
        {
          "duration": 0.0789472499999988,
          "durationTicks": 96,
          "midi": 32,
          "name": "G#1",
          "ticks": 86976,
          "time": 71.5262085,
          "velocity": 0.07874015748031496
        },
        {
          "duration": 0.0789472499999988,
          "durationTicks": 96,
          "midi": 42,
          "name": "F#2",
          "ticks": 86976,
          "time": 71.5262085,
          "velocity": 0.07874015748031496
        },
        {
          "duration": 0.0789472499999988,
          "durationTicks": 96,
          "midi": 38,
          "name": "D2",
          "ticks": 86976,
          "time": 71.5262085,
          "velocity": 0.03937007874015748
        },
        {
          "duration": 0.0789472499999988,
          "durationTicks": 96,
          "midi": 40,
          "name": "E2",
          "ticks": 87168,
          "time": 71.684103,
          "velocity": 0.03937007874015748
        },
        {
          "duration": 0.3157890000000094,
          "durationTicks": 384,
          "midi": 44,
          "name": "G#2",
          "ticks": 87168,
          "time": 71.684103,
          "velocity": 0.07874015748031496
        },
        {
          "duration": 0.23684175000001062,
          "durationTicks": 288,
          "midi": 32,
          "name": "G#1",
          "ticks": 87168,
          "time": 71.684103,
          "velocity": 0.07874015748031496
        },
        {
          "duration": 0.0789472499999988,
          "durationTicks": 96,
          "midi": 38,
          "name": "D2",
          "ticks": 87168,
          "time": 71.684103,
          "velocity": 0.03937007874015748
        },
        {
          "duration": 0.0789472499999988,
          "durationTicks": 96,
          "midi": 42,
          "name": "F#2",
          "ticks": 87168,
          "time": 71.684103,
          "velocity": 0.07874015748031496
        },
        {
          "duration": 0.3157890000000094,
          "durationTicks": 384,
          "midi": 28,
          "name": "E1",
          "ticks": 87168,
          "time": 71.684103,
          "velocity": 0.07874015748031496
        },
        {
          "duration": 0.23684175000001062,
          "durationTicks": 288,
          "midi": 40,
          "name": "E2",
          "ticks": 87168,
          "time": 71.684103,
          "velocity": 0.07874015748031496
        },
        {
          "duration": 0.15789450000001182,
          "durationTicks": 192,
          "midi": 32,
          "name": "G#1",
          "ticks": 87360,
          "time": 71.84199749999999,
          "velocity": 0.07874015748031496
        },
        {
          "duration": 0.15789450000001182,
          "durationTicks": 192,
          "midi": 40,
          "name": "E2",
          "ticks": 87360,
          "time": 71.84199749999999,
          "velocity": 0.03937007874015748
        },
        {
          "duration": 0.07894725000001301,
          "durationTicks": 96,
          "midi": 38,
          "name": "D2",
          "ticks": 87360,
          "time": 71.84199749999999,
          "velocity": 0.03937007874015748
        },
        {
          "duration": 0.07894725000001301,
          "durationTicks": 96,
          "midi": 42,
          "name": "F#2",
          "ticks": 87360,
          "time": 71.84199749999999,
          "velocity": 0.07874015748031496
        },
        {
          "duration": 0.0789472499999988,
          "durationTicks": 96,
          "midi": 42,
          "name": "F#2",
          "ticks": 87456,
          "time": 71.92094475,
          "velocity": 0.07874015748031496
        },
        {
          "duration": 0.0789472499999988,
          "durationTicks": 96,
          "midi": 32,
          "name": "G#1",
          "ticks": 87456,
          "time": 71.92094475,
          "velocity": 0.07874015748031496
        },
        {
          "duration": 0.0789472499999988,
          "durationTicks": 96,
          "midi": 32,
          "name": "G#1",
          "ticks": 87552,
          "time": 71.999892,
          "velocity": 0.07874015748031496
        },
        {
          "duration": 0.0789472499999988,
          "durationTicks": 96,
          "midi": 35,
          "name": "B1",
          "ticks": 87552,
          "time": 71.999892,
          "velocity": 0.03937007874015748
        },
        {
          "duration": 0.0789472499999988,
          "durationTicks": 96,
          "midi": 42,
          "name": "F#2",
          "ticks": 87552,
          "time": 71.999892,
          "velocity": 0.07874015748031496
        },
        {
          "duration": 0.0789472499999988,
          "durationTicks": 96,
          "midi": 42,
          "name": "F#2",
          "ticks": 87744,
          "time": 72.1577865,
          "velocity": 0.07874015748031496
        },
        {
          "duration": 0.0789472499999988,
          "durationTicks": 96,
          "midi": 32,
          "name": "G#1",
          "ticks": 87744,
          "time": 72.1577865,
          "velocity": 0.07874015748031496
        },
        {
          "duration": 0.0789472499999988,
          "durationTicks": 96,
          "midi": 40,
          "name": "E2",
          "ticks": 87936,
          "time": 72.315681,
          "velocity": 0.07874015748031496
        },
        {
          "duration": 0.0789472499999988,
          "durationTicks": 96,
          "midi": 28,
          "name": "E1",
          "ticks": 87936,
          "time": 72.315681,
          "velocity": 0.07874015748031496
        },
        {
          "duration": 0.0789472499999988,
          "durationTicks": 96,
          "midi": 44,
          "name": "G#2",
          "ticks": 87936,
          "time": 72.315681,
          "velocity": 0.07874015748031496
        },
        {
          "duration": 0.0789472499999988,
          "durationTicks": 96,
          "midi": 40,
          "name": "E2",
          "ticks": 87936,
          "time": 72.315681,
          "velocity": 0.03937007874015748
        },
        {
          "duration": 0.0789472499999988,
          "durationTicks": 96,
          "midi": 38,
          "name": "D2",
          "ticks": 87936,
          "time": 72.315681,
          "velocity": 0.03937007874015748
        },
        {
          "duration": 0.0789472499999988,
          "durationTicks": 96,
          "midi": 32,
          "name": "G#1",
          "ticks": 87936,
          "time": 72.315681,
          "velocity": 0.07874015748031496
        },
        {
          "duration": 0.0789472499999988,
          "durationTicks": 96,
          "midi": 42,
          "name": "F#2",
          "ticks": 87936,
          "time": 72.315681,
          "velocity": 0.07874015748031496
        },
        {
          "duration": 0.0789472499999988,
          "durationTicks": 96,
          "midi": 40,
          "name": "E2",
          "ticks": 88128,
          "time": 72.4735755,
          "velocity": 0.03937007874015748
        },
        {
          "duration": 0.0789472499999988,
          "durationTicks": 96,
          "midi": 38,
          "name": "D2",
          "ticks": 88128,
          "time": 72.4735755,
          "velocity": 0.03937007874015748
        },
        {
          "duration": 0.0789472499999988,
          "durationTicks": 96,
          "midi": 42,
          "name": "F#2",
          "ticks": 88128,
          "time": 72.4735755,
          "velocity": 0.07874015748031496
        },
        {
          "duration": 0.0789472499999988,
          "durationTicks": 96,
          "midi": 28,
          "name": "E1",
          "ticks": 88128,
          "time": 72.4735755,
          "velocity": 0.07874015748031496
        },
        {
          "duration": 0.0789472499999988,
          "durationTicks": 96,
          "midi": 40,
          "name": "E2",
          "ticks": 88128,
          "time": 72.4735755,
          "velocity": 0.07874015748031496
        },
        {
          "duration": 0.0789472499999988,
          "durationTicks": 96,
          "midi": 32,
          "name": "G#1",
          "ticks": 88128,
          "time": 72.4735755,
          "velocity": 0.07874015748031496
        },
        {
          "duration": 0.0789472499999988,
          "durationTicks": 96,
          "midi": 44,
          "name": "G#2",
          "ticks": 88128,
          "time": 72.4735755,
          "velocity": 0.07874015748031496
        },
        {
          "duration": 0.0789472499999988,
          "durationTicks": 96,
          "midi": 42,
          "name": "F#2",
          "ticks": 88320,
          "time": 72.63147,
          "velocity": 0.07874015748031496
        },
        {
          "duration": 0.0789472499999988,
          "durationTicks": 96,
          "midi": 32,
          "name": "G#1",
          "ticks": 88320,
          "time": 72.63147,
          "velocity": 0.07874015748031496
        },
        {
          "duration": 0.07894725000001301,
          "durationTicks": 96,
          "midi": 32,
          "name": "G#1",
          "ticks": 88512,
          "time": 72.78936449999999,
          "velocity": 0.07874015748031496
        },
        {
          "duration": 0.07894725000001301,
          "durationTicks": 96,
          "midi": 40,
          "name": "E2",
          "ticks": 88512,
          "time": 72.78936449999999,
          "velocity": 0.03937007874015748
        },
        {
          "duration": 0.07894725000001301,
          "durationTicks": 96,
          "midi": 38,
          "name": "D2",
          "ticks": 88512,
          "time": 72.78936449999999,
          "velocity": 0.03937007874015748
        },
        {
          "duration": 0.07894725000001301,
          "durationTicks": 96,
          "midi": 42,
          "name": "F#2",
          "ticks": 88512,
          "time": 72.78936449999999,
          "velocity": 0.07874015748031496
        },
        {
          "duration": 0.0789472499999988,
          "durationTicks": 96,
          "midi": 38,
          "name": "D2",
          "ticks": 88704,
          "time": 72.947259,
          "velocity": 0.03937007874015748
        },
        {
          "duration": 0.3157889999999952,
          "durationTicks": 384,
          "midi": 28,
          "name": "E1",
          "ticks": 88704,
          "time": 72.947259,
          "velocity": 0.07874015748031496
        },
        {
          "duration": 0.0789472499999988,
          "durationTicks": 96,
          "midi": 40,
          "name": "E2",
          "ticks": 88704,
          "time": 72.947259,
          "velocity": 0.07874015748031496
        },
        {
          "duration": 0.3157889999999952,
          "durationTicks": 384,
          "midi": 44,
          "name": "G#2",
          "ticks": 88704,
          "time": 72.947259,
          "velocity": 0.07874015748031496
        },
        {
          "duration": 0.2368417499999964,
          "durationTicks": 288,
          "midi": 40,
          "name": "E2",
          "ticks": 88704,
          "time": 72.947259,
          "velocity": 0.03937007874015748
        },
        {
          "duration": 0.2368417499999964,
          "durationTicks": 288,
          "midi": 32,
          "name": "G#1",
          "ticks": 88704,
          "time": 72.947259,
          "velocity": 0.07874015748031496
        },
        {
          "duration": 0.0789472499999988,
          "durationTicks": 96,
          "midi": 42,
          "name": "F#2",
          "ticks": 88704,
          "time": 72.947259,
          "velocity": 0.07874015748031496
        },
        {
          "duration": 0.1578944999999976,
          "durationTicks": 192,
          "midi": 40,
          "name": "E2",
          "ticks": 88896,
          "time": 73.1051535,
          "velocity": 0.03937007874015748
        },
        {
          "duration": 0.0789472499999988,
          "durationTicks": 96,
          "midi": 42,
          "name": "F#2",
          "ticks": 88896,
          "time": 73.1051535,
          "velocity": 0.07874015748031496
        },
        {
          "duration": 0.1578944999999976,
          "durationTicks": 192,
          "midi": 32,
          "name": "G#1",
          "ticks": 88896,
          "time": 73.1051535,
          "velocity": 0.07874015748031496
        },
        {
          "duration": 0.0789472499999988,
          "durationTicks": 96,
          "midi": 38,
          "name": "D2",
          "ticks": 88896,
          "time": 73.1051535,
          "velocity": 0.03937007874015748
        },
        {
          "duration": 0.0789472499999988,
          "durationTicks": 96,
          "midi": 32,
          "name": "G#1",
          "ticks": 88992,
          "time": 73.18410075,
          "velocity": 0.07874015748031496
        },
        {
          "duration": 0.0789472499999988,
          "durationTicks": 96,
          "midi": 42,
          "name": "F#2",
          "ticks": 88992,
          "time": 73.18410075,
          "velocity": 0.07874015748031496
        },
        {
          "duration": 0.0789472499999988,
          "durationTicks": 96,
          "midi": 42,
          "name": "F#2",
          "ticks": 89088,
          "time": 73.263048,
          "velocity": 0.07874015748031496
        },
        {
          "duration": 0.0789472499999988,
          "durationTicks": 96,
          "midi": 35,
          "name": "B1",
          "ticks": 89088,
          "time": 73.263048,
          "velocity": 0.03937007874015748
        },
        {
          "duration": 0.0789472499999988,
          "durationTicks": 96,
          "midi": 32,
          "name": "G#1",
          "ticks": 89088,
          "time": 73.263048,
          "velocity": 0.07874015748031496
        },
        {
          "duration": 0.0789472499999988,
          "durationTicks": 96,
          "midi": 32,
          "name": "G#1",
          "ticks": 89280,
          "time": 73.4209425,
          "velocity": 0.07874015748031496
        },
        {
          "duration": 0.0789472499999988,
          "durationTicks": 96,
          "midi": 42,
          "name": "F#2",
          "ticks": 89280,
          "time": 73.4209425,
          "velocity": 0.07874015748031496
        },
        {
          "duration": 0.0789472499999988,
          "durationTicks": 96,
          "midi": 38,
          "name": "D2",
          "ticks": 89472,
          "time": 73.578837,
          "velocity": 0.03937007874015748
        },
        {
          "duration": 0.0789472499999988,
          "durationTicks": 96,
          "midi": 40,
          "name": "E2",
          "ticks": 89472,
          "time": 73.578837,
          "velocity": 0.03937007874015748
        },
        {
          "duration": 0.0789472499999988,
          "durationTicks": 96,
          "midi": 28,
          "name": "E1",
          "ticks": 89472,
          "time": 73.578837,
          "velocity": 0.07874015748031496
        },
        {
          "duration": 0.0789472499999988,
          "durationTicks": 96,
          "midi": 32,
          "name": "G#1",
          "ticks": 89472,
          "time": 73.578837,
          "velocity": 0.07874015748031496
        },
        {
          "duration": 0.0789472499999988,
          "durationTicks": 96,
          "midi": 42,
          "name": "F#2",
          "ticks": 89472,
          "time": 73.578837,
          "velocity": 0.07874015748031496
        },
        {
          "duration": 0.0789472499999988,
          "durationTicks": 96,
          "midi": 44,
          "name": "G#2",
          "ticks": 89472,
          "time": 73.578837,
          "velocity": 0.07874015748031496
        },
        {
          "duration": 0.0789472499999988,
          "durationTicks": 96,
          "midi": 40,
          "name": "E2",
          "ticks": 89472,
          "time": 73.578837,
          "velocity": 0.07874015748031496
        },
        {
          "duration": 0.07894725000001301,
          "durationTicks": 96,
          "midi": 42,
          "name": "F#2",
          "ticks": 89664,
          "time": 73.73673149999999,
          "velocity": 0.07874015748031496
        },
        {
          "duration": 0.07894725000001301,
          "durationTicks": 96,
          "midi": 40,
          "name": "E2",
          "ticks": 89664,
          "time": 73.73673149999999,
          "velocity": 0.07874015748031496
        },
        {
          "duration": 0.07894725000001301,
          "durationTicks": 96,
          "midi": 40,
          "name": "E2",
          "ticks": 89664,
          "time": 73.73673149999999,
          "velocity": 0.03937007874015748
        },
        {
          "duration": 0.07894725000001301,
          "durationTicks": 96,
          "midi": 44,
          "name": "G#2",
          "ticks": 89664,
          "time": 73.73673149999999,
          "velocity": 0.07874015748031496
        },
        {
          "duration": 0.07894725000001301,
          "durationTicks": 96,
          "midi": 28,
          "name": "E1",
          "ticks": 89664,
          "time": 73.73673149999999,
          "velocity": 0.07874015748031496
        },
        {
          "duration": 0.07894725000001301,
          "durationTicks": 96,
          "midi": 38,
          "name": "D2",
          "ticks": 89664,
          "time": 73.73673149999999,
          "velocity": 0.03937007874015748
        },
        {
          "duration": 0.07894725000001301,
          "durationTicks": 96,
          "midi": 32,
          "name": "G#1",
          "ticks": 89664,
          "time": 73.73673149999999,
          "velocity": 0.07874015748031496
        },
        {
          "duration": 0.0789472499999988,
          "durationTicks": 96,
          "midi": 42,
          "name": "F#2",
          "ticks": 89856,
          "time": 73.894626,
          "velocity": 0.07874015748031496
        },
        {
          "duration": 0.0789472499999988,
          "durationTicks": 96,
          "midi": 32,
          "name": "G#1",
          "ticks": 89856,
          "time": 73.894626,
          "velocity": 0.07874015748031496
        },
        {
          "duration": 0.0789472499999988,
          "durationTicks": 96,
          "midi": 40,
          "name": "E2",
          "ticks": 90048,
          "time": 74.0525205,
          "velocity": 0.03937007874015748
        },
        {
          "duration": 0.0789472499999988,
          "durationTicks": 96,
          "midi": 32,
          "name": "G#1",
          "ticks": 90048,
          "time": 74.0525205,
          "velocity": 0.07874015748031496
        },
        {
          "duration": 0.0789472499999988,
          "durationTicks": 96,
          "midi": 38,
          "name": "D2",
          "ticks": 90048,
          "time": 74.0525205,
          "velocity": 0.03937007874015748
        },
        {
          "duration": 0.0789472499999988,
          "durationTicks": 96,
          "midi": 42,
          "name": "F#2",
          "ticks": 90048,
          "time": 74.0525205,
          "velocity": 0.07874015748031496
        },
        {
          "duration": 0.3157889999999952,
          "durationTicks": 384,
          "midi": 44,
          "name": "G#2",
          "ticks": 90240,
          "time": 74.210415,
          "velocity": 0.07874015748031496
        },
        {
          "duration": 0.0789472499999988,
          "durationTicks": 96,
          "midi": 40,
          "name": "E2",
          "ticks": 90240,
          "time": 74.210415,
          "velocity": 0.03937007874015748
        },
        {
          "duration": 0.0789472499999988,
          "durationTicks": 96,
          "midi": 38,
          "name": "D2",
          "ticks": 90240,
          "time": 74.210415,
          "velocity": 0.03937007874015748
        },
        {
          "duration": 0.2368417499999964,
          "durationTicks": 288,
          "midi": 40,
          "name": "E2",
          "ticks": 90240,
          "time": 74.210415,
          "velocity": 0.07874015748031496
        },
        {
          "duration": 0.3157889999999952,
          "durationTicks": 384,
          "midi": 28,
          "name": "E1",
          "ticks": 90240,
          "time": 74.210415,
          "velocity": 0.07874015748031496
        },
        {
          "duration": 0.2368417499999964,
          "durationTicks": 288,
          "midi": 32,
          "name": "G#1",
          "ticks": 90240,
          "time": 74.210415,
          "velocity": 0.07874015748031496
        },
        {
          "duration": 0.0789472499999988,
          "durationTicks": 96,
          "midi": 42,
          "name": "F#2",
          "ticks": 90240,
          "time": 74.210415,
          "velocity": 0.07874015748031496
        },
        {
          "duration": 0.1578944999999976,
          "durationTicks": 192,
          "midi": 40,
          "name": "E2",
          "ticks": 90432,
          "time": 74.3683095,
          "velocity": 0.03937007874015748
        },
        {
          "duration": 0.0789472499999988,
          "durationTicks": 96,
          "midi": 38,
          "name": "D2",
          "ticks": 90432,
          "time": 74.3683095,
          "velocity": 0.03937007874015748
        },
        {
          "duration": 0.0789472499999988,
          "durationTicks": 96,
          "midi": 42,
          "name": "F#2",
          "ticks": 90432,
          "time": 74.3683095,
          "velocity": 0.07874015748031496
        },
        {
          "duration": 0.1578944999999976,
          "durationTicks": 192,
          "midi": 32,
          "name": "G#1",
          "ticks": 90432,
          "time": 74.3683095,
          "velocity": 0.07874015748031496
        },
        {
          "duration": 0.0789472499999988,
          "durationTicks": 96,
          "midi": 42,
          "name": "F#2",
          "ticks": 90528,
          "time": 74.44725675,
          "velocity": 0.07874015748031496
        },
        {
          "duration": 0.0789472499999988,
          "durationTicks": 96,
          "midi": 32,
          "name": "G#1",
          "ticks": 90528,
          "time": 74.44725675,
          "velocity": 0.07874015748031496
        },
        {
          "duration": 0.0789472499999988,
          "durationTicks": 96,
          "midi": 35,
          "name": "B1",
          "ticks": 90624,
          "time": 74.52620399999999,
          "velocity": 0.03937007874015748
        },
        {
          "duration": 0.0789472499999988,
          "durationTicks": 96,
          "midi": 42,
          "name": "F#2",
          "ticks": 90624,
          "time": 74.52620399999999,
          "velocity": 0.07874015748031496
        },
        {
          "duration": 0.0789472499999988,
          "durationTicks": 96,
          "midi": 32,
          "name": "G#1",
          "ticks": 90624,
          "time": 74.52620399999999,
          "velocity": 0.07874015748031496
        },
        {
          "duration": 0.07894725000001301,
          "durationTicks": 96,
          "midi": 32,
          "name": "G#1",
          "ticks": 90816,
          "time": 74.68409849999999,
          "velocity": 0.07874015748031496
        },
        {
          "duration": 0.07894725000001301,
          "durationTicks": 96,
          "midi": 42,
          "name": "F#2",
          "ticks": 90816,
          "time": 74.68409849999999,
          "velocity": 0.07874015748031496
        },
        {
          "duration": 0.0789472499999988,
          "durationTicks": 96,
          "midi": 40,
          "name": "E2",
          "ticks": 91008,
          "time": 74.841993,
          "velocity": 0.03937007874015748
        },
        {
          "duration": 0.0789472499999988,
          "durationTicks": 96,
          "midi": 38,
          "name": "D2",
          "ticks": 91008,
          "time": 74.841993,
          "velocity": 0.03937007874015748
        },
        {
          "duration": 0.0789472499999988,
          "durationTicks": 96,
          "midi": 32,
          "name": "G#1",
          "ticks": 91008,
          "time": 74.841993,
          "velocity": 0.07874015748031496
        },
        {
          "duration": 0.0789472499999988,
          "durationTicks": 96,
          "midi": 42,
          "name": "F#2",
          "ticks": 91008,
          "time": 74.841993,
          "velocity": 0.07874015748031496
        },
        {
          "duration": 0.0789472499999988,
          "durationTicks": 96,
          "midi": 40,
          "name": "E2",
          "ticks": 91008,
          "time": 74.841993,
          "velocity": 0.07874015748031496
        },
        {
          "duration": 0.0789472499999988,
          "durationTicks": 96,
          "midi": 44,
          "name": "G#2",
          "ticks": 91008,
          "time": 74.841993,
          "velocity": 0.07874015748031496
        },
        {
          "duration": 0.0789472499999988,
          "durationTicks": 96,
          "midi": 28,
          "name": "E1",
          "ticks": 91008,
          "time": 74.841993,
          "velocity": 0.07874015748031496
        },
        {
          "duration": 0.0789472499999988,
          "durationTicks": 96,
          "midi": 40,
          "name": "E2",
          "ticks": 91200,
          "time": 74.9998875,
          "velocity": 0.03937007874015748
        },
        {
          "duration": 0.0789472499999988,
          "durationTicks": 96,
          "midi": 38,
          "name": "D2",
          "ticks": 91200,
          "time": 74.9998875,
          "velocity": 0.03937007874015748
        },
        {
          "duration": 0.0789472499999988,
          "durationTicks": 96,
          "midi": 32,
          "name": "G#1",
          "ticks": 91200,
          "time": 74.9998875,
          "velocity": 0.07874015748031496
        },
        {
          "duration": 0.0789472499999988,
          "durationTicks": 96,
          "midi": 42,
          "name": "F#2",
          "ticks": 91200,
          "time": 74.9998875,
          "velocity": 0.07874015748031496
        },
        {
          "duration": 0.0789472499999988,
          "durationTicks": 96,
          "midi": 44,
          "name": "G#2",
          "ticks": 91200,
          "time": 74.9998875,
          "velocity": 0.07874015748031496
        },
        {
          "duration": 0.0789472499999988,
          "durationTicks": 96,
          "midi": 28,
          "name": "E1",
          "ticks": 91200,
          "time": 74.9998875,
          "velocity": 0.07874015748031496
        },
        {
          "duration": 0.0789472499999988,
          "durationTicks": 96,
          "midi": 40,
          "name": "E2",
          "ticks": 91200,
          "time": 74.9998875,
          "velocity": 0.07874015748031496
        },
        {
          "duration": 0.0789472499999988,
          "durationTicks": 96,
          "midi": 42,
          "name": "F#2",
          "ticks": 91392,
          "time": 75.157782,
          "velocity": 0.07874015748031496
        },
        {
          "duration": 0.0789472499999988,
          "durationTicks": 96,
          "midi": 32,
          "name": "G#1",
          "ticks": 91392,
          "time": 75.157782,
          "velocity": 0.07874015748031496
        },
        {
          "duration": 0.0789472499999988,
          "durationTicks": 96,
          "midi": 32,
          "name": "G#1",
          "ticks": 91584,
          "time": 75.3156765,
          "velocity": 0.07874015748031496
        },
        {
          "duration": 0.0789472499999988,
          "durationTicks": 96,
          "midi": 38,
          "name": "D2",
          "ticks": 91584,
          "time": 75.3156765,
          "velocity": 0.03937007874015748
        },
        {
          "duration": 0.0789472499999988,
          "durationTicks": 96,
          "midi": 40,
          "name": "E2",
          "ticks": 91584,
          "time": 75.3156765,
          "velocity": 0.03937007874015748
        },
        {
          "duration": 0.0789472499999988,
          "durationTicks": 96,
          "midi": 42,
          "name": "F#2",
          "ticks": 91584,
          "time": 75.3156765,
          "velocity": 0.07874015748031496
        },
        {
          "duration": 0.0789472499999988,
          "durationTicks": 96,
          "midi": 40,
          "name": "E2",
          "ticks": 91776,
          "time": 75.47357099999999,
          "velocity": 0.03937007874015748
        },
        {
          "duration": 0.0789472499999988,
          "durationTicks": 96,
          "midi": 42,
          "name": "F#2",
          "ticks": 91776,
          "time": 75.47357099999999,
          "velocity": 0.07874015748031496
        },
        {
          "duration": 0.0789472499999988,
          "durationTicks": 96,
          "midi": 38,
          "name": "D2",
          "ticks": 91776,
          "time": 75.47357099999999,
          "velocity": 0.03937007874015748
        },
        {
          "duration": 0.3157890000000094,
          "durationTicks": 384,
          "midi": 28,
          "name": "E1",
          "ticks": 91776,
          "time": 75.47357099999999,
          "velocity": 0.07874015748031496
        },
        {
          "duration": 0.23684175000001062,
          "durationTicks": 288,
          "midi": 32,
          "name": "G#1",
          "ticks": 91776,
          "time": 75.47357099999999,
          "velocity": 0.07874015748031496
        },
        {
          "duration": 0.3157890000000094,
          "durationTicks": 384,
          "midi": 44,
          "name": "G#2",
          "ticks": 91776,
          "time": 75.47357099999999,
          "velocity": 0.07874015748031496
        },
        {
          "duration": 0.23684175000001062,
          "durationTicks": 288,
          "midi": 40,
          "name": "E2",
          "ticks": 91776,
          "time": 75.47357099999999,
          "velocity": 0.07874015748031496
        },
        {
          "duration": 0.07894725000001301,
          "durationTicks": 96,
          "midi": 42,
          "name": "F#2",
          "ticks": 91968,
          "time": 75.63146549999999,
          "velocity": 0.07874015748031496
        },
        {
          "duration": 0.07894725000001301,
          "durationTicks": 96,
          "midi": 38,
          "name": "D2",
          "ticks": 91968,
          "time": 75.63146549999999,
          "velocity": 0.03937007874015748
        },
        {
          "duration": 0.15789450000001182,
          "durationTicks": 192,
          "midi": 32,
          "name": "G#1",
          "ticks": 91968,
          "time": 75.63146549999999,
          "velocity": 0.07874015748031496
        },
        {
          "duration": 0.15789450000001182,
          "durationTicks": 192,
          "midi": 40,
          "name": "E2",
          "ticks": 91968,
          "time": 75.63146549999999,
          "velocity": 0.03937007874015748
        },
        {
          "duration": 0.0789472499999988,
          "durationTicks": 96,
          "midi": 32,
          "name": "G#1",
          "ticks": 92064,
          "time": 75.71041275,
          "velocity": 0.07874015748031496
        },
        {
          "duration": 0.0789472499999988,
          "durationTicks": 96,
          "midi": 42,
          "name": "F#2",
          "ticks": 92064,
          "time": 75.71041275,
          "velocity": 0.07874015748031496
        },
        {
          "duration": 0.0789472499999988,
          "durationTicks": 96,
          "midi": 42,
          "name": "F#2",
          "ticks": 92160,
          "time": 75.78936,
          "velocity": 0.07874015748031496
        },
        {
          "duration": 0.0789472499999988,
          "durationTicks": 96,
          "midi": 32,
          "name": "G#1",
          "ticks": 92160,
          "time": 75.78936,
          "velocity": 0.07874015748031496
        },
        {
          "duration": 0.0789472499999988,
          "durationTicks": 96,
          "midi": 35,
          "name": "B1",
          "ticks": 92160,
          "time": 75.78936,
          "velocity": 0.03937007874015748
        },
        {
          "duration": 0.0789472499999988,
          "durationTicks": 96,
          "midi": 42,
          "name": "F#2",
          "ticks": 92352,
          "time": 75.9472545,
          "velocity": 0.07874015748031496
        },
        {
          "duration": 0.0789472499999988,
          "durationTicks": 96,
          "midi": 32,
          "name": "G#1",
          "ticks": 92352,
          "time": 75.9472545,
          "velocity": 0.07874015748031496
        },
        {
          "duration": 0.0789472499999988,
          "durationTicks": 96,
          "midi": 40,
          "name": "E2",
          "ticks": 92544,
          "time": 76.105149,
          "velocity": 0.03937007874015748
        },
        {
          "duration": 0.0789472499999988,
          "durationTicks": 96,
          "midi": 38,
          "name": "D2",
          "ticks": 92544,
          "time": 76.105149,
          "velocity": 0.03937007874015748
        },
        {
          "duration": 0.0789472499999988,
          "durationTicks": 96,
          "midi": 40,
          "name": "E2",
          "ticks": 92544,
          "time": 76.105149,
          "velocity": 0.07874015748031496
        },
        {
          "duration": 0.0789472499999988,
          "durationTicks": 96,
          "midi": 44,
          "name": "G#2",
          "ticks": 92544,
          "time": 76.105149,
          "velocity": 0.07874015748031496
        },
        {
          "duration": 0.0789472499999988,
          "durationTicks": 96,
          "midi": 42,
          "name": "F#2",
          "ticks": 92544,
          "time": 76.105149,
          "velocity": 0.07874015748031496
        },
        {
          "duration": 0.0789472499999988,
          "durationTicks": 96,
          "midi": 28,
          "name": "E1",
          "ticks": 92544,
          "time": 76.105149,
          "velocity": 0.07874015748031496
        },
        {
          "duration": 0.0789472499999988,
          "durationTicks": 96,
          "midi": 32,
          "name": "G#1",
          "ticks": 92544,
          "time": 76.105149,
          "velocity": 0.07874015748031496
        },
        {
          "duration": 0.0789472499999988,
          "durationTicks": 96,
          "midi": 40,
          "name": "E2",
          "ticks": 92736,
          "time": 76.2630435,
          "velocity": 0.03937007874015748
        },
        {
          "duration": 0.0789472499999988,
          "durationTicks": 96,
          "midi": 44,
          "name": "G#2",
          "ticks": 92736,
          "time": 76.2630435,
          "velocity": 0.07874015748031496
        },
        {
          "duration": 0.0789472499999988,
          "durationTicks": 96,
          "midi": 42,
          "name": "F#2",
          "ticks": 92736,
          "time": 76.2630435,
          "velocity": 0.07874015748031496
        },
        {
          "duration": 0.0789472499999988,
          "durationTicks": 96,
          "midi": 32,
          "name": "G#1",
          "ticks": 92736,
          "time": 76.2630435,
          "velocity": 0.07874015748031496
        },
        {
          "duration": 0.0789472499999988,
          "durationTicks": 96,
          "midi": 40,
          "name": "E2",
          "ticks": 92736,
          "time": 76.2630435,
          "velocity": 0.07874015748031496
        },
        {
          "duration": 0.0789472499999988,
          "durationTicks": 96,
          "midi": 28,
          "name": "E1",
          "ticks": 92736,
          "time": 76.2630435,
          "velocity": 0.07874015748031496
        },
        {
          "duration": 0.0789472499999988,
          "durationTicks": 96,
          "midi": 38,
          "name": "D2",
          "ticks": 92736,
          "time": 76.2630435,
          "velocity": 0.03937007874015748
        },
        {
          "duration": 0.0789472499999988,
          "durationTicks": 96,
          "midi": 32,
          "name": "G#1",
          "ticks": 92928,
          "time": 76.42093799999999,
          "velocity": 0.07874015748031496
        },
        {
          "duration": 0.0789472499999988,
          "durationTicks": 96,
          "midi": 42,
          "name": "F#2",
          "ticks": 92928,
          "time": 76.42093799999999,
          "velocity": 0.07874015748031496
        },
        {
          "duration": 0.07894725000001301,
          "durationTicks": 96,
          "midi": 40,
          "name": "E2",
          "ticks": 93120,
          "time": 76.57883249999999,
          "velocity": 0.03937007874015748
        },
        {
          "duration": 0.07894725000001301,
          "durationTicks": 96,
          "midi": 38,
          "name": "D2",
          "ticks": 93120,
          "time": 76.57883249999999,
          "velocity": 0.03937007874015748
        },
        {
          "duration": 0.07894725000001301,
          "durationTicks": 96,
          "midi": 42,
          "name": "F#2",
          "ticks": 93120,
          "time": 76.57883249999999,
          "velocity": 0.07874015748031496
        },
        {
          "duration": 0.07894725000001301,
          "durationTicks": 96,
          "midi": 32,
          "name": "G#1",
          "ticks": 93120,
          "time": 76.57883249999999,
          "velocity": 0.07874015748031496
        },
        {
          "duration": 0.0789472499999988,
          "durationTicks": 96,
          "midi": 42,
          "name": "F#2",
          "ticks": 93312,
          "time": 76.736727,
          "velocity": 0.07874015748031496
        },
        {
          "duration": 0.2368417499999964,
          "durationTicks": 288,
          "midi": 32,
          "name": "G#1",
          "ticks": 93312,
          "time": 76.736727,
          "velocity": 0.07874015748031496
        },
        {
          "duration": 0.0789472499999988,
          "durationTicks": 96,
          "midi": 38,
          "name": "D2",
          "ticks": 93312,
          "time": 76.736727,
          "velocity": 0.03937007874015748
        },
        {
          "duration": 0.0789472499999988,
          "durationTicks": 96,
          "midi": 40,
          "name": "E2",
          "ticks": 93312,
          "time": 76.736727,
          "velocity": 0.07874015748031496
        },
        {
          "duration": 0.2368417499999964,
          "durationTicks": 288,
          "midi": 40,
          "name": "E2",
          "ticks": 93312,
          "time": 76.736727,
          "velocity": 0.03937007874015748
        },
        {
          "duration": 0.3157889999999952,
          "durationTicks": 384,
          "midi": 44,
          "name": "G#2",
          "ticks": 93312,
          "time": 76.736727,
          "velocity": 0.07874015748031496
        },
        {
          "duration": 0.3157889999999952,
          "durationTicks": 384,
          "midi": 28,
          "name": "E1",
          "ticks": 93312,
          "time": 76.736727,
          "velocity": 0.07874015748031496
        },
        {
          "duration": 0.1578944999999976,
          "durationTicks": 192,
          "midi": 32,
          "name": "G#1",
          "ticks": 93504,
          "time": 76.8946215,
          "velocity": 0.07874015748031496
        },
        {
          "duration": 0.0789472499999988,
          "durationTicks": 96,
          "midi": 42,
          "name": "F#2",
          "ticks": 93504,
          "time": 76.8946215,
          "velocity": 0.07874015748031496
        },
        {
          "duration": 0.0789472499999988,
          "durationTicks": 96,
          "midi": 38,
          "name": "D2",
          "ticks": 93504,
          "time": 76.8946215,
          "velocity": 0.03937007874015748
        },
        {
          "duration": 0.1578944999999976,
          "durationTicks": 192,
          "midi": 40,
          "name": "E2",
          "ticks": 93504,
          "time": 76.8946215,
          "velocity": 0.03937007874015748
        },
        {
          "duration": 0.0789472499999988,
          "durationTicks": 96,
          "midi": 32,
          "name": "G#1",
          "ticks": 93600,
          "time": 76.97356875,
          "velocity": 0.07874015748031496
        },
        {
          "duration": 0.0789472499999988,
          "durationTicks": 96,
          "midi": 42,
          "name": "F#2",
          "ticks": 93600,
          "time": 76.97356875,
          "velocity": 0.07874015748031496
        },
        {
          "duration": 0.0789472499999988,
          "durationTicks": 96,
          "midi": 42,
          "name": "F#2",
          "ticks": 93696,
          "time": 77.052516,
          "velocity": 0.07874015748031496
        },
        {
          "duration": 0.0789472499999988,
          "durationTicks": 96,
          "midi": 32,
          "name": "G#1",
          "ticks": 93696,
          "time": 77.052516,
          "velocity": 0.07874015748031496
        },
        {
          "duration": 0.0789472499999988,
          "durationTicks": 96,
          "midi": 35,
          "name": "B1",
          "ticks": 93696,
          "time": 77.052516,
          "velocity": 0.03937007874015748
        },
        {
          "duration": 0.0789472499999988,
          "durationTicks": 96,
          "midi": 42,
          "name": "F#2",
          "ticks": 93888,
          "time": 77.2104105,
          "velocity": 0.07874015748031496
        },
        {
          "duration": 0.0789472499999988,
          "durationTicks": 96,
          "midi": 32,
          "name": "G#1",
          "ticks": 93888,
          "time": 77.2104105,
          "velocity": 0.07874015748031496
        },
        {
          "duration": 0.0789472499999988,
          "durationTicks": 96,
          "midi": 32,
          "name": "G#1",
          "ticks": 94080,
          "time": 77.36830499999999,
          "velocity": 0.07874015748031496
        },
        {
          "duration": 0.0789472499999988,
          "durationTicks": 96,
          "midi": 38,
          "name": "D2",
          "ticks": 94080,
          "time": 77.36830499999999,
          "velocity": 0.03937007874015748
        },
        {
          "duration": 0.0789472499999988,
          "durationTicks": 96,
          "midi": 42,
          "name": "F#2",
          "ticks": 94080,
          "time": 77.36830499999999,
          "velocity": 0.07874015748031496
        },
        {
          "duration": 0.0789472499999988,
          "durationTicks": 96,
          "midi": 44,
          "name": "G#2",
          "ticks": 94080,
          "time": 77.36830499999999,
          "velocity": 0.07874015748031496
        },
        {
          "duration": 0.0789472499999988,
          "durationTicks": 96,
          "midi": 28,
          "name": "E1",
          "ticks": 94080,
          "time": 77.36830499999999,
          "velocity": 0.07874015748031496
        },
        {
          "duration": 0.0789472499999988,
          "durationTicks": 96,
          "midi": 40,
          "name": "E2",
          "ticks": 94080,
          "time": 77.36830499999999,
          "velocity": 0.07874015748031496
        },
        {
          "duration": 0.0789472499999988,
          "durationTicks": 96,
          "midi": 40,
          "name": "E2",
          "ticks": 94080,
          "time": 77.36830499999999,
          "velocity": 0.03937007874015748
        },
        {
          "duration": 0.07894725000001301,
          "durationTicks": 96,
          "midi": 42,
          "name": "F#2",
          "ticks": 94272,
          "time": 77.52619949999999,
          "velocity": 0.07874015748031496
        },
        {
          "duration": 0.07894725000001301,
          "durationTicks": 96,
          "midi": 44,
          "name": "G#2",
          "ticks": 94272,
          "time": 77.52619949999999,
          "velocity": 0.07874015748031496
        },
        {
          "duration": 0.07894725000001301,
          "durationTicks": 96,
          "midi": 40,
          "name": "E2",
          "ticks": 94272,
          "time": 77.52619949999999,
          "velocity": 0.07874015748031496
        },
        {
          "duration": 0.07894725000001301,
          "durationTicks": 96,
          "midi": 38,
          "name": "D2",
          "ticks": 94272,
          "time": 77.52619949999999,
          "velocity": 0.03937007874015748
        },
        {
          "duration": 0.07894725000001301,
          "durationTicks": 96,
          "midi": 32,
          "name": "G#1",
          "ticks": 94272,
          "time": 77.52619949999999,
          "velocity": 0.07874015748031496
        },
        {
          "duration": 0.07894725000001301,
          "durationTicks": 96,
          "midi": 40,
          "name": "E2",
          "ticks": 94272,
          "time": 77.52619949999999,
          "velocity": 0.03937007874015748
        },
        {
          "duration": 0.07894725000001301,
          "durationTicks": 96,
          "midi": 28,
          "name": "E1",
          "ticks": 94272,
          "time": 77.52619949999999,
          "velocity": 0.07874015748031496
        },
        {
          "duration": 0.0789472499999988,
          "durationTicks": 96,
          "midi": 32,
          "name": "G#1",
          "ticks": 94464,
          "time": 77.684094,
          "velocity": 0.07874015748031496
        },
        {
          "duration": 0.0789472499999988,
          "durationTicks": 96,
          "midi": 42,
          "name": "F#2",
          "ticks": 94464,
          "time": 77.684094,
          "velocity": 0.07874015748031496
        },
        {
          "duration": 0.0789472499999988,
          "durationTicks": 96,
          "midi": 42,
          "name": "F#2",
          "ticks": 94656,
          "time": 77.8419885,
          "velocity": 0.07874015748031496
        },
        {
          "duration": 0.0789472499999988,
          "durationTicks": 96,
          "midi": 40,
          "name": "E2",
          "ticks": 94656,
          "time": 77.8419885,
          "velocity": 0.03937007874015748
        },
        {
          "duration": 0.0789472499999988,
          "durationTicks": 96,
          "midi": 38,
          "name": "D2",
          "ticks": 94656,
          "time": 77.8419885,
          "velocity": 0.03937007874015748
        },
        {
          "duration": 0.0789472499999988,
          "durationTicks": 96,
          "midi": 32,
          "name": "G#1",
          "ticks": 94656,
          "time": 77.8419885,
          "velocity": 0.07874015748031496
        },
        {
          "duration": 0.0789472499999988,
          "durationTicks": 96,
          "midi": 38,
          "name": "D2",
          "ticks": 94848,
          "time": 77.999883,
          "velocity": 0.03937007874015748
        },
        {
          "duration": 0.2368417499999964,
          "durationTicks": 288,
          "midi": 32,
          "name": "G#1",
          "ticks": 94848,
          "time": 77.999883,
          "velocity": 0.07874015748031496
        },
        {
          "duration": 0.0789472499999988,
          "durationTicks": 96,
          "midi": 40,
          "name": "E2",
          "ticks": 94848,
          "time": 77.999883,
          "velocity": 0.03937007874015748
        },
        {
          "duration": 0.3157889999999952,
          "durationTicks": 384,
          "midi": 28,
          "name": "E1",
          "ticks": 94848,
          "time": 77.999883,
          "velocity": 0.07874015748031496
        },
        {
          "duration": 0.2368417499999964,
          "durationTicks": 288,
          "midi": 40,
          "name": "E2",
          "ticks": 94848,
          "time": 77.999883,
          "velocity": 0.07874015748031496
        },
        {
          "duration": 0.3157889999999952,
          "durationTicks": 384,
          "midi": 44,
          "name": "G#2",
          "ticks": 94848,
          "time": 77.999883,
          "velocity": 0.07874015748031496
        },
        {
          "duration": 0.0789472499999988,
          "durationTicks": 96,
          "midi": 42,
          "name": "F#2",
          "ticks": 94848,
          "time": 77.999883,
          "velocity": 0.07874015748031496
        },
        {
          "duration": 0.0789472499999988,
          "durationTicks": 96,
          "midi": 38,
          "name": "D2",
          "ticks": 95040,
          "time": 78.1577775,
          "velocity": 0.03937007874015748
        },
        {
          "duration": 0.1578944999999976,
          "durationTicks": 192,
          "midi": 40,
          "name": "E2",
          "ticks": 95040,
          "time": 78.1577775,
          "velocity": 0.03937007874015748
        },
        {
          "duration": 0.0789472499999988,
          "durationTicks": 96,
          "midi": 42,
          "name": "F#2",
          "ticks": 95040,
          "time": 78.1577775,
          "velocity": 0.07874015748031496
        },
        {
          "duration": 0.1578944999999976,
          "durationTicks": 192,
          "midi": 32,
          "name": "G#1",
          "ticks": 95040,
          "time": 78.1577775,
          "velocity": 0.07874015748031496
        },
        {
          "duration": 0.0789472499999988,
          "durationTicks": 96,
          "midi": 32,
          "name": "G#1",
          "ticks": 95136,
          "time": 78.23672475,
          "velocity": 0.07874015748031496
        },
        {
          "duration": 0.0789472499999988,
          "durationTicks": 96,
          "midi": 42,
          "name": "F#2",
          "ticks": 95136,
          "time": 78.23672475,
          "velocity": 0.07874015748031496
        },
        {
          "duration": 0.0789472499999988,
          "durationTicks": 96,
          "midi": 35,
          "name": "B1",
          "ticks": 95232,
          "time": 78.31567199999999,
          "velocity": 0.03937007874015748
        },
        {
          "duration": 0.0789472499999988,
          "durationTicks": 96,
          "midi": 42,
          "name": "F#2",
          "ticks": 95232,
          "time": 78.31567199999999,
          "velocity": 0.07874015748031496
        },
        {
          "duration": 0.0789472499999988,
          "durationTicks": 96,
          "midi": 32,
          "name": "G#1",
          "ticks": 95232,
          "time": 78.31567199999999,
          "velocity": 0.07874015748031496
        },
        {
          "duration": 0.07894725000001301,
          "durationTicks": 96,
          "midi": 32,
          "name": "G#1",
          "ticks": 95424,
          "time": 78.47356649999999,
          "velocity": 0.07874015748031496
        },
        {
          "duration": 0.07894725000001301,
          "durationTicks": 96,
          "midi": 42,
          "name": "F#2",
          "ticks": 95424,
          "time": 78.47356649999999,
          "velocity": 0.07874015748031496
        },
        {
          "duration": 0.0789472499999988,
          "durationTicks": 96,
          "midi": 40,
          "name": "E2",
          "ticks": 95616,
          "time": 78.631461,
          "velocity": 0.03937007874015748
        },
        {
          "duration": 0.0789472499999988,
          "durationTicks": 96,
          "midi": 44,
          "name": "G#2",
          "ticks": 95616,
          "time": 78.631461,
          "velocity": 0.07874015748031496
        },
        {
          "duration": 0.0789472499999988,
          "durationTicks": 96,
          "midi": 42,
          "name": "F#2",
          "ticks": 95616,
          "time": 78.631461,
          "velocity": 0.07874015748031496
        },
        {
          "duration": 0.0789472499999988,
          "durationTicks": 96,
          "midi": 40,
          "name": "E2",
          "ticks": 95616,
          "time": 78.631461,
          "velocity": 0.07874015748031496
        },
        {
          "duration": 0.0789472499999988,
          "durationTicks": 96,
          "midi": 38,
          "name": "D2",
          "ticks": 95616,
          "time": 78.631461,
          "velocity": 0.03937007874015748
        },
        {
          "duration": 0.0789472499999988,
          "durationTicks": 96,
          "midi": 28,
          "name": "E1",
          "ticks": 95616,
          "time": 78.631461,
          "velocity": 0.07874015748031496
        },
        {
          "duration": 0.0789472499999988,
          "durationTicks": 96,
          "midi": 32,
          "name": "G#1",
          "ticks": 95616,
          "time": 78.631461,
          "velocity": 0.07874015748031496
        },
        {
          "duration": 0.0789472499999988,
          "durationTicks": 96,
          "midi": 44,
          "name": "G#2",
          "ticks": 95808,
          "time": 78.7893555,
          "velocity": 0.07874015748031496
        },
        {
          "duration": 0.0789472499999988,
          "durationTicks": 96,
          "midi": 42,
          "name": "F#2",
          "ticks": 95808,
          "time": 78.7893555,
          "velocity": 0.07874015748031496
        },
        {
          "duration": 0.0789472499999988,
          "durationTicks": 96,
          "midi": 40,
          "name": "E2",
          "ticks": 95808,
          "time": 78.7893555,
          "velocity": 0.07874015748031496
        },
        {
          "duration": 0.0789472499999988,
          "durationTicks": 96,
          "midi": 40,
          "name": "E2",
          "ticks": 95808,
          "time": 78.7893555,
          "velocity": 0.03937007874015748
        },
        {
          "duration": 0.0789472499999988,
          "durationTicks": 96,
          "midi": 28,
          "name": "E1",
          "ticks": 95808,
          "time": 78.7893555,
          "velocity": 0.07874015748031496
        },
        {
          "duration": 0.0789472499999988,
          "durationTicks": 96,
          "midi": 38,
          "name": "D2",
          "ticks": 95808,
          "time": 78.7893555,
          "velocity": 0.03937007874015748
        },
        {
          "duration": 0.0789472499999988,
          "durationTicks": 96,
          "midi": 32,
          "name": "G#1",
          "ticks": 95808,
          "time": 78.7893555,
          "velocity": 0.07874015748031496
        },
        {
          "duration": 0.0789472499999988,
          "durationTicks": 96,
          "midi": 32,
          "name": "G#1",
          "ticks": 96000,
          "time": 78.94725,
          "velocity": 0.07874015748031496
        },
        {
          "duration": 0.0789472499999988,
          "durationTicks": 96,
          "midi": 42,
          "name": "F#2",
          "ticks": 96000,
          "time": 78.94725,
          "velocity": 0.07874015748031496
        },
        {
          "duration": 0.0789472499999988,
          "durationTicks": 96,
          "midi": 42,
          "name": "F#2",
          "ticks": 96192,
          "time": 79.1051445,
          "velocity": 0.07874015748031496
        },
        {
          "duration": 0.0789472499999988,
          "durationTicks": 96,
          "midi": 40,
          "name": "E2",
          "ticks": 96192,
          "time": 79.1051445,
          "velocity": 0.03937007874015748
        },
        {
          "duration": 0.0789472499999988,
          "durationTicks": 96,
          "midi": 38,
          "name": "D2",
          "ticks": 96192,
          "time": 79.1051445,
          "velocity": 0.03937007874015748
        },
        {
          "duration": 0.0789472499999988,
          "durationTicks": 96,
          "midi": 32,
          "name": "G#1",
          "ticks": 96192,
          "time": 79.1051445,
          "velocity": 0.07874015748031496
        },
        {
          "duration": 0.23684175000001062,
          "durationTicks": 288,
          "midi": 32,
          "name": "G#1",
          "ticks": 96384,
          "time": 79.26303899999999,
          "velocity": 0.07874015748031496
        },
        {
          "duration": 0.0789472499999988,
          "durationTicks": 96,
          "midi": 38,
          "name": "D2",
          "ticks": 96384,
          "time": 79.26303899999999,
          "velocity": 0.03937007874015748
        },
        {
          "duration": 0.0789472499999988,
          "durationTicks": 96,
          "midi": 40,
          "name": "E2",
          "ticks": 96384,
          "time": 79.26303899999999,
          "velocity": 0.03937007874015748
        },
        {
          "duration": 0.0789472499999988,
          "durationTicks": 96,
          "midi": 42,
          "name": "F#2",
          "ticks": 96384,
          "time": 79.26303899999999,
          "velocity": 0.07874015748031496
        },
        {
          "duration": 0.3157890000000094,
          "durationTicks": 384,
          "midi": 44,
          "name": "G#2",
          "ticks": 96384,
          "time": 79.26303899999999,
          "velocity": 0.07874015748031496
        },
        {
          "duration": 0.23684175000001062,
          "durationTicks": 288,
          "midi": 40,
          "name": "E2",
          "ticks": 96384,
          "time": 79.26303899999999,
          "velocity": 0.07874015748031496
        },
        {
          "duration": 0.3157890000000094,
          "durationTicks": 384,
          "midi": 28,
          "name": "E1",
          "ticks": 96384,
          "time": 79.26303899999999,
          "velocity": 0.07874015748031496
        },
        {
          "duration": 0.07894725000001301,
          "durationTicks": 96,
          "midi": 38,
          "name": "D2",
          "ticks": 96576,
          "time": 79.42093349999999,
          "velocity": 0.03937007874015748
        },
        {
          "duration": 0.15789450000001182,
          "durationTicks": 192,
          "midi": 32,
          "name": "G#1",
          "ticks": 96576,
          "time": 79.42093349999999,
          "velocity": 0.07874015748031496
        },
        {
          "duration": 0.07894725000001301,
          "durationTicks": 96,
          "midi": 42,
          "name": "F#2",
          "ticks": 96576,
          "time": 79.42093349999999,
          "velocity": 0.07874015748031496
        },
        {
          "duration": 0.15789450000001182,
          "durationTicks": 192,
          "midi": 40,
          "name": "E2",
          "ticks": 96576,
          "time": 79.42093349999999,
          "velocity": 0.03937007874015748
        },
        {
          "duration": 0.0789472499999988,
          "durationTicks": 96,
          "midi": 32,
          "name": "G#1",
          "ticks": 96672,
          "time": 79.49988075,
          "velocity": 0.07874015748031496
        },
        {
          "duration": 0.0789472499999988,
          "durationTicks": 96,
          "midi": 42,
          "name": "F#2",
          "ticks": 96672,
          "time": 79.49988075,
          "velocity": 0.07874015748031496
        },
        {
          "duration": 0.0789472499999988,
          "durationTicks": 96,
          "midi": 35,
          "name": "B1",
          "ticks": 96768,
          "time": 79.578828,
          "velocity": 0.03937007874015748
        },
        {
          "duration": 0.0789472499999988,
          "durationTicks": 96,
          "midi": 42,
          "name": "F#2",
          "ticks": 96768,
          "time": 79.578828,
          "velocity": 0.07874015748031496
        },
        {
          "duration": 0.0789472499999988,
          "durationTicks": 96,
          "midi": 32,
          "name": "G#1",
          "ticks": 96768,
          "time": 79.578828,
          "velocity": 0.07874015748031496
        },
        {
          "duration": 0.0789472499999988,
          "durationTicks": 96,
          "midi": 32,
          "name": "G#1",
          "ticks": 96960,
          "time": 79.7367225,
          "velocity": 0.07874015748031496
        },
        {
          "duration": 0.0789472499999988,
          "durationTicks": 96,
          "midi": 42,
          "name": "F#2",
          "ticks": 96960,
          "time": 79.7367225,
          "velocity": 0.07874015748031496
        },
        {
          "duration": 0.0789472499999988,
          "durationTicks": 96,
          "midi": 40,
          "name": "E2",
          "ticks": 97152,
          "time": 79.894617,
          "velocity": 0.07874015748031496
        },
        {
          "duration": 0.0789472499999988,
          "durationTicks": 96,
          "midi": 42,
          "name": "F#2",
          "ticks": 97152,
          "time": 79.894617,
          "velocity": 0.07874015748031496
        },
        {
          "duration": 0.0789472499999988,
          "durationTicks": 96,
          "midi": 44,
          "name": "G#2",
          "ticks": 97152,
          "time": 79.894617,
          "velocity": 0.07874015748031496
        },
        {
          "duration": 0.0789472499999988,
          "durationTicks": 96,
          "midi": 28,
          "name": "E1",
          "ticks": 97152,
          "time": 79.894617,
          "velocity": 0.07874015748031496
        },
        {
          "duration": 0.0789472499999988,
          "durationTicks": 96,
          "midi": 32,
          "name": "G#1",
          "ticks": 97152,
          "time": 79.894617,
          "velocity": 0.07874015748031496
        },
        {
          "duration": 0.0789472499999988,
          "durationTicks": 96,
          "midi": 40,
          "name": "E2",
          "ticks": 97152,
          "time": 79.894617,
          "velocity": 0.03937007874015748
        },
        {
          "duration": 0.0789472499999988,
          "durationTicks": 96,
          "midi": 38,
          "name": "D2",
          "ticks": 97152,
          "time": 79.894617,
          "velocity": 0.03937007874015748
        },
        {
          "duration": 0.0789472499999988,
          "durationTicks": 96,
          "midi": 42,
          "name": "F#2",
          "ticks": 97344,
          "time": 80.0525115,
          "velocity": 0.07874015748031496
        },
        {
          "duration": 0.0789472499999988,
          "durationTicks": 96,
          "midi": 28,
          "name": "E1",
          "ticks": 97344,
          "time": 80.0525115,
          "velocity": 0.07874015748031496
        },
        {
          "duration": 0.0789472499999988,
          "durationTicks": 96,
          "midi": 40,
          "name": "E2",
          "ticks": 97344,
          "time": 80.0525115,
          "velocity": 0.07874015748031496
        },
        {
          "duration": 0.0789472499999988,
          "durationTicks": 96,
          "midi": 40,
          "name": "E2",
          "ticks": 97344,
          "time": 80.0525115,
          "velocity": 0.03937007874015748
        },
        {
          "duration": 0.0789472499999988,
          "durationTicks": 96,
          "midi": 32,
          "name": "G#1",
          "ticks": 97344,
          "time": 80.0525115,
          "velocity": 0.07874015748031496
        },
        {
          "duration": 0.0789472499999988,
          "durationTicks": 96,
          "midi": 38,
          "name": "D2",
          "ticks": 97344,
          "time": 80.0525115,
          "velocity": 0.03937007874015748
        },
        {
          "duration": 0.0789472499999988,
          "durationTicks": 96,
          "midi": 44,
          "name": "G#2",
          "ticks": 97344,
          "time": 80.0525115,
          "velocity": 0.07874015748031496
        },
        {
          "duration": 0.0789472499999988,
          "durationTicks": 96,
          "midi": 32,
          "name": "G#1",
          "ticks": 97536,
          "time": 80.21040599999999,
          "velocity": 0.07874015748031496
        },
        {
          "duration": 0.0789472499999988,
          "durationTicks": 96,
          "midi": 42,
          "name": "F#2",
          "ticks": 97536,
          "time": 80.21040599999999,
          "velocity": 0.07874015748031496
        },
        {
          "duration": 0.07894725000001301,
          "durationTicks": 96,
          "midi": 42,
          "name": "F#2",
          "ticks": 97728,
          "time": 80.36830049999999,
          "velocity": 0.07874015748031496
        },
        {
          "duration": 0.07894725000001301,
          "durationTicks": 96,
          "midi": 38,
          "name": "D2",
          "ticks": 97728,
          "time": 80.36830049999999,
          "velocity": 0.03937007874015748
        },
        {
          "duration": 0.07894725000001301,
          "durationTicks": 96,
          "midi": 40,
          "name": "E2",
          "ticks": 97728,
          "time": 80.36830049999999,
          "velocity": 0.03937007874015748
        },
        {
          "duration": 0.07894725000001301,
          "durationTicks": 96,
          "midi": 32,
          "name": "G#1",
          "ticks": 97728,
          "time": 80.36830049999999,
          "velocity": 0.07874015748031496
        },
        {
          "duration": 0.3157889999999952,
          "durationTicks": 384,
          "midi": 44,
          "name": "G#2",
          "ticks": 97920,
          "time": 80.526195,
          "velocity": 0.07874015748031496
        },
        {
          "duration": 0.0789472499999988,
          "durationTicks": 96,
          "midi": 40,
          "name": "E2",
          "ticks": 97920,
          "time": 80.526195,
          "velocity": 0.03937007874015748
        },
        {
          "duration": 0.0789472499999988,
          "durationTicks": 96,
          "midi": 38,
          "name": "D2",
          "ticks": 97920,
          "time": 80.526195,
          "velocity": 0.03937007874015748
        },
        {
          "duration": 0.3157889999999952,
          "durationTicks": 384,
          "midi": 28,
          "name": "E1",
          "ticks": 97920,
          "time": 80.526195,
          "velocity": 0.07874015748031496
        },
        {
          "duration": 0.0789472499999988,
          "durationTicks": 96,
          "midi": 42,
          "name": "F#2",
          "ticks": 97920,
          "time": 80.526195,
          "velocity": 0.07874015748031496
        },
        {
          "duration": 0.2368417499999964,
          "durationTicks": 288,
          "midi": 32,
          "name": "G#1",
          "ticks": 97920,
          "time": 80.526195,
          "velocity": 0.07874015748031496
        },
        {
          "duration": 0.2368417499999964,
          "durationTicks": 288,
          "midi": 40,
          "name": "E2",
          "ticks": 97920,
          "time": 80.526195,
          "velocity": 0.07874015748031496
        },
        {
          "duration": 0.0789472499999988,
          "durationTicks": 96,
          "midi": 38,
          "name": "D2",
          "ticks": 98112,
          "time": 80.6840895,
          "velocity": 0.03937007874015748
        },
        {
          "duration": 0.1578944999999976,
          "durationTicks": 192,
          "midi": 32,
          "name": "G#1",
          "ticks": 98112,
          "time": 80.6840895,
          "velocity": 0.07874015748031496
        },
        {
          "duration": 0.1578944999999976,
          "durationTicks": 192,
          "midi": 40,
          "name": "E2",
          "ticks": 98112,
          "time": 80.6840895,
          "velocity": 0.03937007874015748
        },
        {
          "duration": 0.0789472499999988,
          "durationTicks": 96,
          "midi": 42,
          "name": "F#2",
          "ticks": 98112,
          "time": 80.6840895,
          "velocity": 0.07874015748031496
        },
        {
          "duration": 0.0789472499999988,
          "durationTicks": 96,
          "midi": 32,
          "name": "G#1",
          "ticks": 98208,
          "time": 80.76303675,
          "velocity": 0.07874015748031496
        },
        {
          "duration": 0.0789472499999988,
          "durationTicks": 96,
          "midi": 42,
          "name": "F#2",
          "ticks": 98208,
          "time": 80.76303675,
          "velocity": 0.07874015748031496
        },
        {
          "duration": 0.0789472499999988,
          "durationTicks": 96,
          "midi": 35,
          "name": "B1",
          "ticks": 98304,
          "time": 80.841984,
          "velocity": 0.03937007874015748
        },
        {
          "duration": 0.0789472499999988,
          "durationTicks": 96,
          "midi": 42,
          "name": "F#2",
          "ticks": 98304,
          "time": 80.841984,
          "velocity": 0.07874015748031496
        },
        {
          "duration": 0.0789472499999988,
          "durationTicks": 96,
          "midi": 32,
          "name": "G#1",
          "ticks": 98304,
          "time": 80.841984,
          "velocity": 0.07874015748031496
        },
        {
          "duration": 0.0789472499999988,
          "durationTicks": 96,
          "midi": 42,
          "name": "F#2",
          "ticks": 98496,
          "time": 80.9998785,
          "velocity": 0.07874015748031496
        },
        {
          "duration": 0.0789472499999988,
          "durationTicks": 96,
          "midi": 32,
          "name": "G#1",
          "ticks": 98496,
          "time": 80.9998785,
          "velocity": 0.07874015748031496
        },
        {
          "duration": 0.0789472499999988,
          "durationTicks": 96,
          "midi": 28,
          "name": "E1",
          "ticks": 98688,
          "time": 81.15777299999999,
          "velocity": 0.07874015748031496
        },
        {
          "duration": 0.0789472499999988,
          "durationTicks": 96,
          "midi": 40,
          "name": "E2",
          "ticks": 98688,
          "time": 81.15777299999999,
          "velocity": 0.07874015748031496
        },
        {
          "duration": 0.0789472499999988,
          "durationTicks": 96,
          "midi": 32,
          "name": "G#1",
          "ticks": 98688,
          "time": 81.15777299999999,
          "velocity": 0.07874015748031496
        },
        {
          "duration": 0.0789472499999988,
          "durationTicks": 96,
          "midi": 38,
          "name": "D2",
          "ticks": 98688,
          "time": 81.15777299999999,
          "velocity": 0.03937007874015748
        },
        {
          "duration": 0.0789472499999988,
          "durationTicks": 96,
          "midi": 40,
          "name": "E2",
          "ticks": 98688,
          "time": 81.15777299999999,
          "velocity": 0.03937007874015748
        },
        {
          "duration": 0.0789472499999988,
          "durationTicks": 96,
          "midi": 44,
          "name": "G#2",
          "ticks": 98688,
          "time": 81.15777299999999,
          "velocity": 0.07874015748031496
        },
        {
          "duration": 0.0789472499999988,
          "durationTicks": 96,
          "midi": 42,
          "name": "F#2",
          "ticks": 98688,
          "time": 81.15777299999999,
          "velocity": 0.07874015748031496
        },
        {
          "duration": 0.0789472499999988,
          "durationTicks": 96,
          "midi": 40,
          "name": "E2",
          "ticks": 98880,
          "time": 81.3156675,
          "velocity": 0.03937007874015748
        },
        {
          "duration": 0.0789472499999988,
          "durationTicks": 96,
          "midi": 42,
          "name": "F#2",
          "ticks": 98880,
          "time": 81.3156675,
          "velocity": 0.07874015748031496
        },
        {
          "duration": 0.0789472499999988,
          "durationTicks": 96,
          "midi": 28,
          "name": "E1",
          "ticks": 98880,
          "time": 81.3156675,
          "velocity": 0.07874015748031496
        },
        {
          "duration": 0.0789472499999988,
          "durationTicks": 96,
          "midi": 32,
          "name": "G#1",
          "ticks": 98880,
          "time": 81.3156675,
          "velocity": 0.07874015748031496
        },
        {
          "duration": 0.0789472499999988,
          "durationTicks": 96,
          "midi": 44,
          "name": "G#2",
          "ticks": 98880,
          "time": 81.3156675,
          "velocity": 0.07874015748031496
        },
        {
          "duration": 0.0789472499999988,
          "durationTicks": 96,
          "midi": 40,
          "name": "E2",
          "ticks": 98880,
          "time": 81.3156675,
          "velocity": 0.07874015748031496
        },
        {
          "duration": 0.0789472499999988,
          "durationTicks": 96,
          "midi": 38,
          "name": "D2",
          "ticks": 98880,
          "time": 81.3156675,
          "velocity": 0.03937007874015748
        },
        {
          "duration": 0.0789472499999988,
          "durationTicks": 96,
          "midi": 32,
          "name": "G#1",
          "ticks": 99072,
          "time": 81.473562,
          "velocity": 0.07874015748031496
        },
        {
          "duration": 0.0789472499999988,
          "durationTicks": 96,
          "midi": 42,
          "name": "F#2",
          "ticks": 99072,
          "time": 81.473562,
          "velocity": 0.07874015748031496
        },
        {
          "duration": 0.0789472499999988,
          "durationTicks": 96,
          "midi": 42,
          "name": "F#2",
          "ticks": 99264,
          "time": 81.6314565,
          "velocity": 0.07874015748031496
        },
        {
          "duration": 0.0789472499999988,
          "durationTicks": 96,
          "midi": 32,
          "name": "G#1",
          "ticks": 99264,
          "time": 81.6314565,
          "velocity": 0.07874015748031496
        },
        {
          "duration": 0.0789472499999988,
          "durationTicks": 96,
          "midi": 40,
          "name": "E2",
          "ticks": 99264,
          "time": 81.6314565,
          "velocity": 0.03937007874015748
        },
        {
          "duration": 0.0789472499999988,
          "durationTicks": 96,
          "midi": 38,
          "name": "D2",
          "ticks": 99264,
          "time": 81.6314565,
          "velocity": 0.03937007874015748
        },
        {
          "duration": 0.3157889999999952,
          "durationTicks": 384,
          "midi": 28,
          "name": "E1",
          "ticks": 99456,
          "time": 81.789351,
          "velocity": 0.07874015748031496
        },
        {
          "duration": 0.2368417499999964,
          "durationTicks": 288,
          "midi": 32,
          "name": "G#1",
          "ticks": 99456,
          "time": 81.789351,
          "velocity": 0.07874015748031496
        },
        {
          "duration": 0.0789472499999988,
          "durationTicks": 96,
          "midi": 40,
          "name": "E2",
          "ticks": 99456,
          "time": 81.789351,
          "velocity": 0.07874015748031496
        },
        {
          "duration": 0.0789472499999988,
          "durationTicks": 96,
          "midi": 38,
          "name": "D2",
          "ticks": 99456,
          "time": 81.789351,
          "velocity": 0.03937007874015748
        },
        {
          "duration": 0.0789472499999988,
          "durationTicks": 96,
          "midi": 42,
          "name": "F#2",
          "ticks": 99456,
          "time": 81.789351,
          "velocity": 0.07874015748031496
        },
        {
          "duration": 0.3157889999999952,
          "durationTicks": 384,
          "midi": 44,
          "name": "G#2",
          "ticks": 99456,
          "time": 81.789351,
          "velocity": 0.07874015748031496
        },
        {
          "duration": 0.2368417499999964,
          "durationTicks": 288,
          "midi": 40,
          "name": "E2",
          "ticks": 99456,
          "time": 81.789351,
          "velocity": 0.03937007874015748
        },
        {
          "duration": 0.0789472499999988,
          "durationTicks": 96,
          "midi": 38,
          "name": "D2",
          "ticks": 99648,
          "time": 81.9472455,
          "velocity": 0.03937007874015748
        },
        {
          "duration": 0.0789472499999988,
          "durationTicks": 96,
          "midi": 42,
          "name": "F#2",
          "ticks": 99648,
          "time": 81.9472455,
          "velocity": 0.07874015748031496
        },
        {
          "duration": 0.1578944999999976,
          "durationTicks": 192,
          "midi": 32,
          "name": "G#1",
          "ticks": 99648,
          "time": 81.9472455,
          "velocity": 0.07874015748031496
        },
        {
          "duration": 0.1578944999999976,
          "durationTicks": 192,
          "midi": 40,
          "name": "E2",
          "ticks": 99648,
          "time": 81.9472455,
          "velocity": 0.03937007874015748
        },
        {
          "duration": 0.0789472499999988,
          "durationTicks": 96,
          "midi": 32,
          "name": "G#1",
          "ticks": 99744,
          "time": 82.02619274999999,
          "velocity": 0.07874015748031496
        },
        {
          "duration": 0.0789472499999988,
          "durationTicks": 96,
          "midi": 42,
          "name": "F#2",
          "ticks": 99744,
          "time": 82.02619274999999,
          "velocity": 0.07874015748031496
        },
        {
          "duration": 0.0789472499999988,
          "durationTicks": 96,
          "midi": 35,
          "name": "B1",
          "ticks": 99840,
          "time": 82.10513999999999,
          "velocity": 0.03937007874015748
        },
        {
          "duration": 0.0789472499999988,
          "durationTicks": 96,
          "midi": 32,
          "name": "G#1",
          "ticks": 99840,
          "time": 82.10513999999999,
          "velocity": 0.07874015748031496
        },
        {
          "duration": 0.0789472499999988,
          "durationTicks": 96,
          "midi": 42,
          "name": "F#2",
          "ticks": 99840,
          "time": 82.10513999999999,
          "velocity": 0.07874015748031496
        },
        {
          "duration": 0.0789472499999988,
          "durationTicks": 96,
          "midi": 32,
          "name": "G#1",
          "ticks": 100032,
          "time": 82.2630345,
          "velocity": 0.07874015748031496
        },
        {
          "duration": 0.0789472499999988,
          "durationTicks": 96,
          "midi": 42,
          "name": "F#2",
          "ticks": 100032,
          "time": 82.2630345,
          "velocity": 0.07874015748031496
        },
        {
          "duration": 0.0789472499999988,
          "durationTicks": 96,
          "midi": 42,
          "name": "F#2",
          "ticks": 100224,
          "time": 82.420929,
          "velocity": 0.07874015748031496
        },
        {
          "duration": 0.0789472499999988,
          "durationTicks": 96,
          "midi": 32,
          "name": "G#1",
          "ticks": 100224,
          "time": 82.420929,
          "velocity": 0.07874015748031496
        },
        {
          "duration": 0.0789472499999988,
          "durationTicks": 96,
          "midi": 40,
          "name": "E2",
          "ticks": 100224,
          "time": 82.420929,
          "velocity": 0.03937007874015748
        },
        {
          "duration": 0.0789472499999988,
          "durationTicks": 96,
          "midi": 44,
          "name": "G#2",
          "ticks": 100224,
          "time": 82.420929,
          "velocity": 0.07874015748031496
        },
        {
          "duration": 0.0789472499999988,
          "durationTicks": 96,
          "midi": 38,
          "name": "D2",
          "ticks": 100224,
          "time": 82.420929,
          "velocity": 0.03937007874015748
        },
        {
          "duration": 0.0789472499999988,
          "durationTicks": 96,
          "midi": 40,
          "name": "E2",
          "ticks": 100224,
          "time": 82.420929,
          "velocity": 0.07874015748031496
        },
        {
          "duration": 0.0789472499999988,
          "durationTicks": 96,
          "midi": 28,
          "name": "E1",
          "ticks": 100224,
          "time": 82.420929,
          "velocity": 0.07874015748031496
        },
        {
          "duration": 0.0789472499999988,
          "durationTicks": 96,
          "midi": 44,
          "name": "G#2",
          "ticks": 100416,
          "time": 82.5788235,
          "velocity": 0.07874015748031496
        },
        {
          "duration": 0.0789472499999988,
          "durationTicks": 96,
          "midi": 28,
          "name": "E1",
          "ticks": 100416,
          "time": 82.5788235,
          "velocity": 0.07874015748031496
        },
        {
          "duration": 0.0789472499999988,
          "durationTicks": 96,
          "midi": 38,
          "name": "D2",
          "ticks": 100416,
          "time": 82.5788235,
          "velocity": 0.03937007874015748
        },
        {
          "duration": 0.0789472499999988,
          "durationTicks": 96,
          "midi": 40,
          "name": "E2",
          "ticks": 100416,
          "time": 82.5788235,
          "velocity": 0.07874015748031496
        },
        {
          "duration": 0.0789472499999988,
          "durationTicks": 96,
          "midi": 32,
          "name": "G#1",
          "ticks": 100416,
          "time": 82.5788235,
          "velocity": 0.07874015748031496
        },
        {
          "duration": 0.0789472499999988,
          "durationTicks": 96,
          "midi": 40,
          "name": "E2",
          "ticks": 100416,
          "time": 82.5788235,
          "velocity": 0.03937007874015748
        },
        {
          "duration": 0.0789472499999988,
          "durationTicks": 96,
          "midi": 42,
          "name": "F#2",
          "ticks": 100416,
          "time": 82.5788235,
          "velocity": 0.07874015748031496
        },
        {
          "duration": 0.0789472499999988,
          "durationTicks": 96,
          "midi": 42,
          "name": "F#2",
          "ticks": 100608,
          "time": 82.736718,
          "velocity": 0.07874015748031496
        },
        {
          "duration": 0.0789472499999988,
          "durationTicks": 96,
          "midi": 32,
          "name": "G#1",
          "ticks": 100608,
          "time": 82.736718,
          "velocity": 0.07874015748031496
        },
        {
          "duration": 0.0789472499999988,
          "durationTicks": 96,
          "midi": 40,
          "name": "E2",
          "ticks": 100800,
          "time": 82.8946125,
          "velocity": 0.03937007874015748
        },
        {
          "duration": 0.0789472499999988,
          "durationTicks": 96,
          "midi": 32,
          "name": "G#1",
          "ticks": 100800,
          "time": 82.8946125,
          "velocity": 0.07874015748031496
        },
        {
          "duration": 0.0789472499999988,
          "durationTicks": 96,
          "midi": 42,
          "name": "F#2",
          "ticks": 100800,
          "time": 82.8946125,
          "velocity": 0.07874015748031496
        },
        {
          "duration": 0.0789472499999988,
          "durationTicks": 96,
          "midi": 38,
          "name": "D2",
          "ticks": 100800,
          "time": 82.8946125,
          "velocity": 0.03937007874015748
        },
        {
          "duration": 0.0789472499999988,
          "durationTicks": 96,
          "midi": 40,
          "name": "E2",
          "ticks": 100992,
          "time": 83.05250699999999,
          "velocity": 0.07874015748031496
        },
        {
          "duration": 0.0789472499999988,
          "durationTicks": 96,
          "midi": 38,
          "name": "D2",
          "ticks": 100992,
          "time": 83.05250699999999,
          "velocity": 0.03937007874015748
        },
        {
          "duration": 0.3157890000000094,
          "durationTicks": 384,
          "midi": 44,
          "name": "G#2",
          "ticks": 100992,
          "time": 83.05250699999999,
          "velocity": 0.07874015748031496
        },
        {
          "duration": 0.3157890000000094,
          "durationTicks": 384,
          "midi": 28,
          "name": "E1",
          "ticks": 100992,
          "time": 83.05250699999999,
          "velocity": 0.07874015748031496
        },
        {
          "duration": 0.23684175000001062,
          "durationTicks": 288,
          "midi": 40,
          "name": "E2",
          "ticks": 100992,
          "time": 83.05250699999999,
          "velocity": 0.03937007874015748
        },
        {
          "duration": 0.0789472499999988,
          "durationTicks": 96,
          "midi": 42,
          "name": "F#2",
          "ticks": 100992,
          "time": 83.05250699999999,
          "velocity": 0.07874015748031496
        },
        {
          "duration": 0.23684175000001062,
          "durationTicks": 288,
          "midi": 32,
          "name": "G#1",
          "ticks": 100992,
          "time": 83.05250699999999,
          "velocity": 0.07874015748031496
        },
        {
          "duration": 0.1578944999999976,
          "durationTicks": 192,
          "midi": 40,
          "name": "E2",
          "ticks": 101184,
          "time": 83.2104015,
          "velocity": 0.03937007874015748
        },
        {
          "duration": 0.0789472499999988,
          "durationTicks": 96,
          "midi": 38,
          "name": "D2",
          "ticks": 101184,
          "time": 83.2104015,
          "velocity": 0.03937007874015748
        },
        {
          "duration": 0.0789472499999988,
          "durationTicks": 96,
          "midi": 42,
          "name": "F#2",
          "ticks": 101184,
          "time": 83.2104015,
          "velocity": 0.07874015748031496
        },
        {
          "duration": 0.1578944999999976,
          "durationTicks": 192,
          "midi": 32,
          "name": "G#1",
          "ticks": 101184,
          "time": 83.2104015,
          "velocity": 0.07874015748031496
        },
        {
          "duration": 0.0789472499999988,
          "durationTicks": 96,
          "midi": 42,
          "name": "F#2",
          "ticks": 101280,
          "time": 83.28934875,
          "velocity": 0.07874015748031496
        },
        {
          "duration": 0.0789472499999988,
          "durationTicks": 96,
          "midi": 32,
          "name": "G#1",
          "ticks": 101280,
          "time": 83.28934875,
          "velocity": 0.07874015748031496
        },
        {
          "duration": 0.0789472499999988,
          "durationTicks": 96,
          "midi": 42,
          "name": "F#2",
          "ticks": 101376,
          "time": 83.368296,
          "velocity": 0.07874015748031496
        },
        {
          "duration": 0.0789472499999988,
          "durationTicks": 96,
          "midi": 32,
          "name": "G#1",
          "ticks": 101376,
          "time": 83.368296,
          "velocity": 0.07874015748031496
        },
        {
          "duration": 0.0789472499999988,
          "durationTicks": 96,
          "midi": 35,
          "name": "B1",
          "ticks": 101376,
          "time": 83.368296,
          "velocity": 0.03937007874015748
        },
        {
          "duration": 0.0789472499999988,
          "durationTicks": 96,
          "midi": 42,
          "name": "F#2",
          "ticks": 101568,
          "time": 83.5261905,
          "velocity": 0.07874015748031496
        },
        {
          "duration": 0.0789472499999988,
          "durationTicks": 96,
          "midi": 32,
          "name": "G#1",
          "ticks": 101568,
          "time": 83.5261905,
          "velocity": 0.07874015748031496
        },
        {
          "duration": 0.0789472499999988,
          "durationTicks": 96,
          "midi": 28,
          "name": "E1",
          "ticks": 101760,
          "time": 83.684085,
          "velocity": 0.07874015748031496
        },
        {
          "duration": 0.0789472499999988,
          "durationTicks": 96,
          "midi": 40,
          "name": "E2",
          "ticks": 101760,
          "time": 83.684085,
          "velocity": 0.07874015748031496
        },
        {
          "duration": 0.0789472499999988,
          "durationTicks": 96,
          "midi": 32,
          "name": "G#1",
          "ticks": 101760,
          "time": 83.684085,
          "velocity": 0.07874015748031496
        },
        {
          "duration": 0.0789472499999988,
          "durationTicks": 96,
          "midi": 38,
          "name": "D2",
          "ticks": 101760,
          "time": 83.684085,
          "velocity": 0.03937007874015748
        },
        {
          "duration": 0.0789472499999988,
          "durationTicks": 96,
          "midi": 40,
          "name": "E2",
          "ticks": 101760,
          "time": 83.684085,
          "velocity": 0.03937007874015748
        },
        {
          "duration": 0.0789472499999988,
          "durationTicks": 96,
          "midi": 44,
          "name": "G#2",
          "ticks": 101760,
          "time": 83.684085,
          "velocity": 0.07874015748031496
        },
        {
          "duration": 0.0789472499999988,
          "durationTicks": 96,
          "midi": 42,
          "name": "F#2",
          "ticks": 101760,
          "time": 83.684085,
          "velocity": 0.07874015748031496
        },
        {
          "duration": 0.0789472499999988,
          "durationTicks": 96,
          "midi": 40,
          "name": "E2",
          "ticks": 101952,
          "time": 83.8419795,
          "velocity": 0.03937007874015748
        },
        {
          "duration": 0.0789472499999988,
          "durationTicks": 96,
          "midi": 44,
          "name": "G#2",
          "ticks": 101952,
          "time": 83.8419795,
          "velocity": 0.07874015748031496
        },
        {
          "duration": 0.0789472499999988,
          "durationTicks": 96,
          "midi": 28,
          "name": "E1",
          "ticks": 101952,
          "time": 83.8419795,
          "velocity": 0.07874015748031496
        },
        {
          "duration": 0.0789472499999988,
          "durationTicks": 96,
          "midi": 38,
          "name": "D2",
          "ticks": 101952,
          "time": 83.8419795,
          "velocity": 0.03937007874015748
        },
        {
          "duration": 0.0789472499999988,
          "durationTicks": 96,
          "midi": 40,
          "name": "E2",
          "ticks": 101952,
          "time": 83.8419795,
          "velocity": 0.07874015748031496
        },
        {
          "duration": 0.0789472499999988,
          "durationTicks": 96,
          "midi": 32,
          "name": "G#1",
          "ticks": 101952,
          "time": 83.8419795,
          "velocity": 0.07874015748031496
        },
        {
          "duration": 0.0789472499999988,
          "durationTicks": 96,
          "midi": 42,
          "name": "F#2",
          "ticks": 101952,
          "time": 83.8419795,
          "velocity": 0.07874015748031496
        },
        {
          "duration": 0.0789472499999988,
          "durationTicks": 96,
          "midi": 42,
          "name": "F#2",
          "ticks": 102144,
          "time": 83.99987399999999,
          "velocity": 0.07874015748031496
        },
        {
          "duration": 0.0789472499999988,
          "durationTicks": 96,
          "midi": 32,
          "name": "G#1",
          "ticks": 102144,
          "time": 83.99987399999999,
          "velocity": 0.07874015748031496
        },
        {
          "duration": 0.0789472499999988,
          "durationTicks": 96,
          "midi": 40,
          "name": "E2",
          "ticks": 102336,
          "time": 84.1577685,
          "velocity": 0.03937007874015748
        },
        {
          "duration": 0.0789472499999988,
          "durationTicks": 96,
          "midi": 42,
          "name": "F#2",
          "ticks": 102336,
          "time": 84.1577685,
          "velocity": 0.07874015748031496
        },
        {
          "duration": 0.0789472499999988,
          "durationTicks": 96,
          "midi": 32,
          "name": "G#1",
          "ticks": 102336,
          "time": 84.1577685,
          "velocity": 0.07874015748031496
        },
        {
          "duration": 0.0789472499999988,
          "durationTicks": 96,
          "midi": 38,
          "name": "D2",
          "ticks": 102336,
          "time": 84.1577685,
          "velocity": 0.03937007874015748
        },
        {
          "duration": 0.2368417499999964,
          "durationTicks": 288,
          "midi": 32,
          "name": "G#1",
          "ticks": 102528,
          "time": 84.315663,
          "velocity": 0.07874015748031496
        },
        {
          "duration": 0.0789472499999988,
          "durationTicks": 96,
          "midi": 40,
          "name": "E2",
          "ticks": 102528,
          "time": 84.315663,
          "velocity": 0.07874015748031496
        },
        {
          "duration": 0.3157889999999952,
          "durationTicks": 384,
          "midi": 28,
          "name": "E1",
          "ticks": 102528,
          "time": 84.315663,
          "velocity": 0.07874015748031496
        },
        {
          "duration": 0.0789472499999988,
          "durationTicks": 96,
          "midi": 42,
          "name": "F#2",
          "ticks": 102528,
          "time": 84.315663,
          "velocity": 0.07874015748031496
        },
        {
          "duration": 0.3157889999999952,
          "durationTicks": 384,
          "midi": 44,
          "name": "G#2",
          "ticks": 102528,
          "time": 84.315663,
          "velocity": 0.07874015748031496
        },
        {
          "duration": 0.0789472499999988,
          "durationTicks": 96,
          "midi": 38,
          "name": "D2",
          "ticks": 102528,
          "time": 84.315663,
          "velocity": 0.03937007874015748
        },
        {
          "duration": 0.2368417499999964,
          "durationTicks": 288,
          "midi": 40,
          "name": "E2",
          "ticks": 102528,
          "time": 84.315663,
          "velocity": 0.03937007874015748
        },
        {
          "duration": 0.0789472499999988,
          "durationTicks": 96,
          "midi": 38,
          "name": "D2",
          "ticks": 102720,
          "time": 84.4735575,
          "velocity": 0.03937007874015748
        },
        {
          "duration": 0.1578944999999976,
          "durationTicks": 192,
          "midi": 32,
          "name": "G#1",
          "ticks": 102720,
          "time": 84.4735575,
          "velocity": 0.07874015748031496
        },
        {
          "duration": 0.0789472499999988,
          "durationTicks": 96,
          "midi": 42,
          "name": "F#2",
          "ticks": 102720,
          "time": 84.4735575,
          "velocity": 0.07874015748031496
        },
        {
          "duration": 0.1578944999999976,
          "durationTicks": 192,
          "midi": 40,
          "name": "E2",
          "ticks": 102720,
          "time": 84.4735575,
          "velocity": 0.03937007874015748
        },
        {
          "duration": 0.0789472499999988,
          "durationTicks": 96,
          "midi": 42,
          "name": "F#2",
          "ticks": 102816,
          "time": 84.55250475,
          "velocity": 0.07874015748031496
        },
        {
          "duration": 0.0789472499999988,
          "durationTicks": 96,
          "midi": 32,
          "name": "G#1",
          "ticks": 102816,
          "time": 84.55250475,
          "velocity": 0.07874015748031496
        },
        {
          "duration": 0.0789472499999988,
          "durationTicks": 96,
          "midi": 35,
          "name": "B1",
          "ticks": 102912,
          "time": 84.631452,
          "velocity": 0.03937007874015748
        },
        {
          "duration": 0.0789472499999988,
          "durationTicks": 96,
          "midi": 42,
          "name": "F#2",
          "ticks": 102912,
          "time": 84.631452,
          "velocity": 0.07874015748031496
        },
        {
          "duration": 0.0789472499999988,
          "durationTicks": 96,
          "midi": 32,
          "name": "G#1",
          "ticks": 102912,
          "time": 84.631452,
          "velocity": 0.07874015748031496
        },
        {
          "duration": 0.0789472499999988,
          "durationTicks": 96,
          "midi": 32,
          "name": "G#1",
          "ticks": 103104,
          "time": 84.7893465,
          "velocity": 0.07874015748031496
        },
        {
          "duration": 0.0789472499999988,
          "durationTicks": 96,
          "midi": 42,
          "name": "F#2",
          "ticks": 103104,
          "time": 84.7893465,
          "velocity": 0.07874015748031496
        },
        {
          "duration": 0.0789472499999988,
          "durationTicks": 96,
          "midi": 28,
          "name": "E1",
          "ticks": 103296,
          "time": 84.94724099999999,
          "velocity": 0.07874015748031496
        },
        {
          "duration": 0.0789472499999988,
          "durationTicks": 96,
          "midi": 42,
          "name": "F#2",
          "ticks": 103296,
          "time": 84.94724099999999,
          "velocity": 0.07874015748031496
        },
        {
          "duration": 0.0789472499999988,
          "durationTicks": 96,
          "midi": 38,
          "name": "D2",
          "ticks": 103296,
          "time": 84.94724099999999,
          "velocity": 0.03937007874015748
        },
        {
          "duration": 0.0789472499999988,
          "durationTicks": 96,
          "midi": 40,
          "name": "E2",
          "ticks": 103296,
          "time": 84.94724099999999,
          "velocity": 0.07874015748031496
        },
        {
          "duration": 0.0789472499999988,
          "durationTicks": 96,
          "midi": 40,
          "name": "E2",
          "ticks": 103296,
          "time": 84.94724099999999,
          "velocity": 0.03937007874015748
        },
        {
          "duration": 0.0789472499999988,
          "durationTicks": 96,
          "midi": 32,
          "name": "G#1",
          "ticks": 103296,
          "time": 84.94724099999999,
          "velocity": 0.07874015748031496
        },
        {
          "duration": 0.0789472499999988,
          "durationTicks": 96,
          "midi": 44,
          "name": "G#2",
          "ticks": 103296,
          "time": 84.94724099999999,
          "velocity": 0.07874015748031496
        },
        {
          "duration": 0.0789472499999988,
          "durationTicks": 96,
          "midi": 40,
          "name": "E2",
          "ticks": 103488,
          "time": 85.1051355,
          "velocity": 0.07874015748031496
        },
        {
          "duration": 0.0789472499999988,
          "durationTicks": 96,
          "midi": 38,
          "name": "D2",
          "ticks": 103488,
          "time": 85.1051355,
          "velocity": 0.03937007874015748
        },
        {
          "duration": 0.0789472499999988,
          "durationTicks": 96,
          "midi": 40,
          "name": "E2",
          "ticks": 103488,
          "time": 85.1051355,
          "velocity": 0.03937007874015748
        },
        {
          "duration": 0.0789472499999988,
          "durationTicks": 96,
          "midi": 28,
          "name": "E1",
          "ticks": 103488,
          "time": 85.1051355,
          "velocity": 0.07874015748031496
        },
        {
          "duration": 0.0789472499999988,
          "durationTicks": 96,
          "midi": 32,
          "name": "G#1",
          "ticks": 103488,
          "time": 85.1051355,
          "velocity": 0.07874015748031496
        },
        {
          "duration": 0.0789472499999988,
          "durationTicks": 96,
          "midi": 42,
          "name": "F#2",
          "ticks": 103488,
          "time": 85.1051355,
          "velocity": 0.07874015748031496
        },
        {
          "duration": 0.0789472499999988,
          "durationTicks": 96,
          "midi": 44,
          "name": "G#2",
          "ticks": 103488,
          "time": 85.1051355,
          "velocity": 0.07874015748031496
        },
        {
          "duration": 0.0789472499999988,
          "durationTicks": 96,
          "midi": 42,
          "name": "F#2",
          "ticks": 103680,
          "time": 85.26303,
          "velocity": 0.07874015748031496
        },
        {
          "duration": 0.0789472499999988,
          "durationTicks": 96,
          "midi": 32,
          "name": "G#1",
          "ticks": 103680,
          "time": 85.26303,
          "velocity": 0.07874015748031496
        },
        {
          "duration": 0.0789472499999988,
          "durationTicks": 96,
          "midi": 42,
          "name": "F#2",
          "ticks": 103872,
          "time": 85.4209245,
          "velocity": 0.07874015748031496
        },
        {
          "duration": 0.0789472499999988,
          "durationTicks": 96,
          "midi": 38,
          "name": "D2",
          "ticks": 103872,
          "time": 85.4209245,
          "velocity": 0.03937007874015748
        },
        {
          "duration": 0.0789472499999988,
          "durationTicks": 96,
          "midi": 32,
          "name": "G#1",
          "ticks": 103872,
          "time": 85.4209245,
          "velocity": 0.07874015748031496
        },
        {
          "duration": 0.0789472499999988,
          "durationTicks": 96,
          "midi": 40,
          "name": "E2",
          "ticks": 103872,
          "time": 85.4209245,
          "velocity": 0.03937007874015748
        },
        {
          "duration": 0.0789472499999988,
          "durationTicks": 96,
          "midi": 38,
          "name": "D2",
          "ticks": 104064,
          "time": 85.578819,
          "velocity": 0.03937007874015748
        },
        {
          "duration": 0.0789472499999988,
          "durationTicks": 96,
          "midi": 40,
          "name": "E2",
          "ticks": 104064,
          "time": 85.578819,
          "velocity": 0.07874015748031496
        },
        {
          "duration": 0.2368417499999964,
          "durationTicks": 288,
          "midi": 40,
          "name": "E2",
          "ticks": 104064,
          "time": 85.578819,
          "velocity": 0.03937007874015748
        },
        {
          "duration": 0.3157889999999952,
          "durationTicks": 384,
          "midi": 44,
          "name": "G#2",
          "ticks": 104064,
          "time": 85.578819,
          "velocity": 0.07874015748031496
        },
        {
          "duration": 0.0789472499999988,
          "durationTicks": 96,
          "midi": 42,
          "name": "F#2",
          "ticks": 104064,
          "time": 85.578819,
          "velocity": 0.07874015748031496
        },
        {
          "duration": 0.2368417499999964,
          "durationTicks": 288,
          "midi": 32,
          "name": "G#1",
          "ticks": 104064,
          "time": 85.578819,
          "velocity": 0.07874015748031496
        },
        {
          "duration": 0.3157889999999952,
          "durationTicks": 384,
          "midi": 28,
          "name": "E1",
          "ticks": 104064,
          "time": 85.578819,
          "velocity": 0.07874015748031496
        },
        {
          "duration": 0.1578944999999976,
          "durationTicks": 192,
          "midi": 40,
          "name": "E2",
          "ticks": 104256,
          "time": 85.7367135,
          "velocity": 0.03937007874015748
        },
        {
          "duration": 0.1578944999999976,
          "durationTicks": 192,
          "midi": 32,
          "name": "G#1",
          "ticks": 104256,
          "time": 85.7367135,
          "velocity": 0.07874015748031496
        },
        {
          "duration": 0.0789472499999988,
          "durationTicks": 96,
          "midi": 42,
          "name": "F#2",
          "ticks": 104256,
          "time": 85.7367135,
          "velocity": 0.07874015748031496
        },
        {
          "duration": 0.0789472499999988,
          "durationTicks": 96,
          "midi": 38,
          "name": "D2",
          "ticks": 104256,
          "time": 85.7367135,
          "velocity": 0.03937007874015748
        },
        {
          "duration": 0.0789472499999988,
          "durationTicks": 96,
          "midi": 42,
          "name": "F#2",
          "ticks": 104352,
          "time": 85.81566074999999,
          "velocity": 0.07874015748031496
        },
        {
          "duration": 0.0789472499999988,
          "durationTicks": 96,
          "midi": 32,
          "name": "G#1",
          "ticks": 104352,
          "time": 85.81566074999999,
          "velocity": 0.07874015748031496
        },
        {
          "duration": 0.0789472499999988,
          "durationTicks": 96,
          "midi": 35,
          "name": "B1",
          "ticks": 104448,
          "time": 85.89460799999999,
          "velocity": 0.03937007874015748
        },
        {
          "duration": 0.0789472499999988,
          "durationTicks": 96,
          "midi": 32,
          "name": "G#1",
          "ticks": 104448,
          "time": 85.89460799999999,
          "velocity": 0.07874015748031496
        },
        {
          "duration": 0.0789472499999988,
          "durationTicks": 96,
          "midi": 42,
          "name": "F#2",
          "ticks": 104448,
          "time": 85.89460799999999,
          "velocity": 0.07874015748031496
        },
        {
          "duration": 0.0789472499999988,
          "durationTicks": 96,
          "midi": 32,
          "name": "G#1",
          "ticks": 104640,
          "time": 86.0525025,
          "velocity": 0.07874015748031496
        },
        {
          "duration": 0.0789472499999988,
          "durationTicks": 96,
          "midi": 42,
          "name": "F#2",
          "ticks": 104640,
          "time": 86.0525025,
          "velocity": 0.07874015748031496
        },
        {
          "duration": 0.0789472499999988,
          "durationTicks": 96,
          "midi": 42,
          "name": "F#2",
          "ticks": 104832,
          "time": 86.210397,
          "velocity": 0.07874015748031496
        },
        {
          "duration": 0.0789472499999988,
          "durationTicks": 96,
          "midi": 40,
          "name": "E2",
          "ticks": 104832,
          "time": 86.210397,
          "velocity": 0.07874015748031496
        },
        {
          "duration": 0.0789472499999988,
          "durationTicks": 96,
          "midi": 28,
          "name": "E1",
          "ticks": 104832,
          "time": 86.210397,
          "velocity": 0.07874015748031496
        },
        {
          "duration": 0.0789472499999988,
          "durationTicks": 96,
          "midi": 38,
          "name": "D2",
          "ticks": 104832,
          "time": 86.210397,
          "velocity": 0.03937007874015748
        },
        {
          "duration": 0.0789472499999988,
          "durationTicks": 96,
          "midi": 32,
          "name": "G#1",
          "ticks": 104832,
          "time": 86.210397,
          "velocity": 0.07874015748031496
        },
        {
          "duration": 0.0789472499999988,
          "durationTicks": 96,
          "midi": 40,
          "name": "E2",
          "ticks": 104832,
          "time": 86.210397,
          "velocity": 0.03937007874015748
        },
        {
          "duration": 0.0789472499999988,
          "durationTicks": 96,
          "midi": 44,
          "name": "G#2",
          "ticks": 104832,
          "time": 86.210397,
          "velocity": 0.07874015748031496
        },
        {
          "duration": 0.0789472499999988,
          "durationTicks": 96,
          "midi": 40,
          "name": "E2",
          "ticks": 105024,
          "time": 86.3682915,
          "velocity": 0.03937007874015748
        },
        {
          "duration": 0.0789472499999988,
          "durationTicks": 96,
          "midi": 40,
          "name": "E2",
          "ticks": 105024,
          "time": 86.3682915,
          "velocity": 0.07874015748031496
        },
        {
          "duration": 0.0789472499999988,
          "durationTicks": 96,
          "midi": 42,
          "name": "F#2",
          "ticks": 105024,
          "time": 86.3682915,
          "velocity": 0.07874015748031496
        },
        {
          "duration": 0.0789472499999988,
          "durationTicks": 96,
          "midi": 44,
          "name": "G#2",
          "ticks": 105024,
          "time": 86.3682915,
          "velocity": 0.07874015748031496
        },
        {
          "duration": 0.0789472499999988,
          "durationTicks": 96,
          "midi": 32,
          "name": "G#1",
          "ticks": 105024,
          "time": 86.3682915,
          "velocity": 0.07874015748031496
        },
        {
          "duration": 0.0789472499999988,
          "durationTicks": 96,
          "midi": 28,
          "name": "E1",
          "ticks": 105024,
          "time": 86.3682915,
          "velocity": 0.07874015748031496
        },
        {
          "duration": 0.0789472499999988,
          "durationTicks": 96,
          "midi": 38,
          "name": "D2",
          "ticks": 105024,
          "time": 86.3682915,
          "velocity": 0.03937007874015748
        },
        {
          "duration": 0.0789472499999988,
          "durationTicks": 96,
          "midi": 42,
          "name": "F#2",
          "ticks": 105216,
          "time": 86.526186,
          "velocity": 0.07874015748031496
        },
        {
          "duration": 0.0789472499999988,
          "durationTicks": 96,
          "midi": 32,
          "name": "G#1",
          "ticks": 105216,
          "time": 86.526186,
          "velocity": 0.07874015748031496
        },
        {
          "duration": 0.0789472499999988,
          "durationTicks": 96,
          "midi": 40,
          "name": "E2",
          "ticks": 105408,
          "time": 86.6840805,
          "velocity": 0.03937007874015748
        },
        {
          "duration": 0.0789472499999988,
          "durationTicks": 96,
          "midi": 42,
          "name": "F#2",
          "ticks": 105408,
          "time": 86.6840805,
          "velocity": 0.07874015748031496
        },
        {
          "duration": 0.0789472499999988,
          "durationTicks": 96,
          "midi": 38,
          "name": "D2",
          "ticks": 105408,
          "time": 86.6840805,
          "velocity": 0.03937007874015748
        },
        {
          "duration": 0.0789472499999988,
          "durationTicks": 96,
          "midi": 32,
          "name": "G#1",
          "ticks": 105408,
          "time": 86.6840805,
          "velocity": 0.07874015748031496
        },
        {
          "duration": 0.3157890000000094,
          "durationTicks": 384,
          "midi": 44,
          "name": "G#2",
          "ticks": 105600,
          "time": 86.84197499999999,
          "velocity": 0.07874015748031496
        },
        {
          "duration": 0.0789472499999988,
          "durationTicks": 96,
          "midi": 42,
          "name": "F#2",
          "ticks": 105600,
          "time": 86.84197499999999,
          "velocity": 0.07874015748031496
        },
        {
          "duration": 0.3157890000000094,
          "durationTicks": 384,
          "midi": 28,
          "name": "E1",
          "ticks": 105600,
          "time": 86.84197499999999,
          "velocity": 0.07874015748031496
        },
        {
          "duration": 0.0789472499999988,
          "durationTicks": 96,
          "midi": 38,
          "name": "D2",
          "ticks": 105600,
          "time": 86.84197499999999,
          "velocity": 0.03937007874015748
        },
        {
          "duration": 0.0789472499999988,
          "durationTicks": 96,
          "midi": 40,
          "name": "E2",
          "ticks": 105600,
          "time": 86.84197499999999,
          "velocity": 0.07874015748031496
        },
        {
          "duration": 0.23684175000001062,
          "durationTicks": 288,
          "midi": 40,
          "name": "E2",
          "ticks": 105600,
          "time": 86.84197499999999,
          "velocity": 0.03937007874015748
        },
        {
          "duration": 0.23684175000001062,
          "durationTicks": 288,
          "midi": 32,
          "name": "G#1",
          "ticks": 105600,
          "time": 86.84197499999999,
          "velocity": 0.07874015748031496
        },
        {
          "duration": 0.0789472499999988,
          "durationTicks": 96,
          "midi": 42,
          "name": "F#2",
          "ticks": 105792,
          "time": 86.9998695,
          "velocity": 0.07874015748031496
        },
        {
          "duration": 0.0789472499999988,
          "durationTicks": 96,
          "midi": 38,
          "name": "D2",
          "ticks": 105792,
          "time": 86.9998695,
          "velocity": 0.03937007874015748
        },
        {
          "duration": 0.1578944999999976,
          "durationTicks": 192,
          "midi": 40,
          "name": "E2",
          "ticks": 105792,
          "time": 86.9998695,
          "velocity": 0.03937007874015748
        },
        {
          "duration": 0.1578944999999976,
          "durationTicks": 192,
          "midi": 32,
          "name": "G#1",
          "ticks": 105792,
          "time": 86.9998695,
          "velocity": 0.07874015748031496
        },
        {
          "duration": 0.0789472499999988,
          "durationTicks": 96,
          "midi": 32,
          "name": "G#1",
          "ticks": 105888,
          "time": 87.07881675,
          "velocity": 0.07874015748031496
        },
        {
          "duration": 0.0789472499999988,
          "durationTicks": 96,
          "midi": 42,
          "name": "F#2",
          "ticks": 105888,
          "time": 87.07881675,
          "velocity": 0.07874015748031496
        },
        {
          "duration": 0.0789472499999988,
          "durationTicks": 96,
          "midi": 35,
          "name": "B1",
          "ticks": 105984,
          "time": 87.157764,
          "velocity": 0.03937007874015748
        },
        {
          "duration": 0.0789472499999988,
          "durationTicks": 96,
          "midi": 42,
          "name": "F#2",
          "ticks": 105984,
          "time": 87.157764,
          "velocity": 0.07874015748031496
        },
        {
          "duration": 0.0789472499999988,
          "durationTicks": 96,
          "midi": 32,
          "name": "G#1",
          "ticks": 105984,
          "time": 87.157764,
          "velocity": 0.07874015748031496
        },
        {
          "duration": 0.0789472499999988,
          "durationTicks": 96,
          "midi": 32,
          "name": "G#1",
          "ticks": 106176,
          "time": 87.3156585,
          "velocity": 0.07874015748031496
        },
        {
          "duration": 0.0789472499999988,
          "durationTicks": 96,
          "midi": 42,
          "name": "F#2",
          "ticks": 106176,
          "time": 87.3156585,
          "velocity": 0.07874015748031496
        },
        {
          "duration": 0.0789472499999988,
          "durationTicks": 96,
          "midi": 40,
          "name": "E2",
          "ticks": 106368,
          "time": 87.473553,
          "velocity": 0.03937007874015748
        },
        {
          "duration": 0.0789472499999988,
          "durationTicks": 96,
          "midi": 42,
          "name": "F#2",
          "ticks": 106368,
          "time": 87.473553,
          "velocity": 0.07874015748031496
        },
        {
          "duration": 0.0789472499999988,
          "durationTicks": 96,
          "midi": 38,
          "name": "D2",
          "ticks": 106368,
          "time": 87.473553,
          "velocity": 0.03937007874015748
        },
        {
          "duration": 0.0789472499999988,
          "durationTicks": 96,
          "midi": 32,
          "name": "G#1",
          "ticks": 106368,
          "time": 87.473553,
          "velocity": 0.07874015748031496
        },
        {
          "duration": 0.0789472499999988,
          "durationTicks": 96,
          "midi": 40,
          "name": "E2",
          "ticks": 106368,
          "time": 87.473553,
          "velocity": 0.07874015748031496
        },
        {
          "duration": 0.0789472499999988,
          "durationTicks": 96,
          "midi": 44,
          "name": "G#2",
          "ticks": 106368,
          "time": 87.473553,
          "velocity": 0.07874015748031496
        },
        {
          "duration": 0.0789472499999988,
          "durationTicks": 96,
          "midi": 28,
          "name": "E1",
          "ticks": 106368,
          "time": 87.473553,
          "velocity": 0.07874015748031496
        },
        {
          "duration": 0.0789472499999988,
          "durationTicks": 96,
          "midi": 32,
          "name": "G#1",
          "ticks": 106560,
          "time": 87.6314475,
          "velocity": 0.07874015748031496
        },
        {
          "duration": 0.0789472499999988,
          "durationTicks": 96,
          "midi": 40,
          "name": "E2",
          "ticks": 106560,
          "time": 87.6314475,
          "velocity": 0.03937007874015748
        },
        {
          "duration": 0.0789472499999988,
          "durationTicks": 96,
          "midi": 38,
          "name": "D2",
          "ticks": 106560,
          "time": 87.6314475,
          "velocity": 0.03937007874015748
        },
        {
          "duration": 0.0789472499999988,
          "durationTicks": 96,
          "midi": 42,
          "name": "F#2",
          "ticks": 106560,
          "time": 87.6314475,
          "velocity": 0.07874015748031496
        },
        {
          "duration": 0.0789472499999988,
          "durationTicks": 96,
          "midi": 40,
          "name": "E2",
          "ticks": 106560,
          "time": 87.6314475,
          "velocity": 0.07874015748031496
        },
        {
          "duration": 0.0789472499999988,
          "durationTicks": 96,
          "midi": 28,
          "name": "E1",
          "ticks": 106560,
          "time": 87.6314475,
          "velocity": 0.07874015748031496
        },
        {
          "duration": 0.0789472499999988,
          "durationTicks": 96,
          "midi": 44,
          "name": "G#2",
          "ticks": 106560,
          "time": 87.6314475,
          "velocity": 0.07874015748031496
        },
        {
          "duration": 0.0789472499999988,
          "durationTicks": 96,
          "midi": 32,
          "name": "G#1",
          "ticks": 106752,
          "time": 87.78934199999999,
          "velocity": 0.07874015748031496
        },
        {
          "duration": 0.0789472499999988,
          "durationTicks": 96,
          "midi": 42,
          "name": "F#2",
          "ticks": 106752,
          "time": 87.78934199999999,
          "velocity": 0.07874015748031496
        },
        {
          "duration": 0.0789472499999988,
          "durationTicks": 96,
          "midi": 42,
          "name": "F#2",
          "ticks": 106944,
          "time": 87.9472365,
          "velocity": 0.07874015748031496
        },
        {
          "duration": 0.0789472499999988,
          "durationTicks": 96,
          "midi": 40,
          "name": "E2",
          "ticks": 106944,
          "time": 87.9472365,
          "velocity": 0.03937007874015748
        },
        {
          "duration": 0.0789472499999988,
          "durationTicks": 96,
          "midi": 32,
          "name": "G#1",
          "ticks": 106944,
          "time": 87.9472365,
          "velocity": 0.07874015748031496
        },
        {
          "duration": 0.0789472499999988,
          "durationTicks": 96,
          "midi": 38,
          "name": "D2",
          "ticks": 106944,
          "time": 87.9472365,
          "velocity": 0.03937007874015748
        },
        {
          "duration": 0.0789472499999988,
          "durationTicks": 96,
          "midi": 40,
          "name": "E2",
          "ticks": 107136,
          "time": 88.105131,
          "velocity": 0.03937007874015748
        },
        {
          "duration": 0.0789472499999988,
          "durationTicks": 96,
          "midi": 38,
          "name": "D2",
          "ticks": 107136,
          "time": 88.105131,
          "velocity": 0.03937007874015748
        },
        {
          "duration": 0.2368417499999964,
          "durationTicks": 288,
          "midi": 32,
          "name": "G#1",
          "ticks": 107136,
          "time": 88.105131,
          "velocity": 0.07874015748031496
        },
        {
          "duration": 0.3157889999999952,
          "durationTicks": 384,
          "midi": 28,
          "name": "E1",
          "ticks": 107136,
          "time": 88.105131,
          "velocity": 0.07874015748031496
        },
        {
          "duration": 0.3157889999999952,
          "durationTicks": 384,
          "midi": 44,
          "name": "G#2",
          "ticks": 107136,
          "time": 88.105131,
          "velocity": 0.07874015748031496
        },
        {
          "duration": 0.0789472499999988,
          "durationTicks": 96,
          "midi": 42,
          "name": "F#2",
          "ticks": 107136,
          "time": 88.105131,
          "velocity": 0.07874015748031496
        },
        {
          "duration": 0.2368417499999964,
          "durationTicks": 288,
          "midi": 40,
          "name": "E2",
          "ticks": 107136,
          "time": 88.105131,
          "velocity": 0.07874015748031496
        },
        {
          "duration": 0.1578944999999976,
          "durationTicks": 192,
          "midi": 40,
          "name": "E2",
          "ticks": 107328,
          "time": 88.2630255,
          "velocity": 0.03937007874015748
        },
        {
          "duration": 0.0789472499999988,
          "durationTicks": 96,
          "midi": 38,
          "name": "D2",
          "ticks": 107328,
          "time": 88.2630255,
          "velocity": 0.03937007874015748
        },
        {
          "duration": 0.0789472499999988,
          "durationTicks": 96,
          "midi": 42,
          "name": "F#2",
          "ticks": 107328,
          "time": 88.2630255,
          "velocity": 0.07874015748031496
        },
        {
          "duration": 0.1578944999999976,
          "durationTicks": 192,
          "midi": 32,
          "name": "G#1",
          "ticks": 107328,
          "time": 88.2630255,
          "velocity": 0.07874015748031496
        },
        {
          "duration": 0.0789472499999988,
          "durationTicks": 96,
          "midi": 42,
          "name": "F#2",
          "ticks": 107424,
          "time": 88.34197275,
          "velocity": 0.07874015748031496
        },
        {
          "duration": 0.0789472499999988,
          "durationTicks": 96,
          "midi": 32,
          "name": "G#1",
          "ticks": 107424,
          "time": 88.34197275,
          "velocity": 0.07874015748031496
        },
        {
          "duration": 0.0789472499999988,
          "durationTicks": 96,
          "midi": 42,
          "name": "F#2",
          "ticks": 107520,
          "time": 88.42092,
          "velocity": 0.07874015748031496
        },
        {
          "duration": 0.0789472499999988,
          "durationTicks": 96,
          "midi": 32,
          "name": "G#1",
          "ticks": 107520,
          "time": 88.42092,
          "velocity": 0.07874015748031496
        },
        {
          "duration": 0.0789472499999988,
          "durationTicks": 96,
          "midi": 35,
          "name": "B1",
          "ticks": 107520,
          "time": 88.42092,
          "velocity": 0.03937007874015748
        },
        {
          "duration": 0.0789472499999988,
          "durationTicks": 96,
          "midi": 32,
          "name": "G#1",
          "ticks": 107712,
          "time": 88.5788145,
          "velocity": 0.07874015748031496
        },
        {
          "duration": 0.0789472499999988,
          "durationTicks": 96,
          "midi": 42,
          "name": "F#2",
          "ticks": 107712,
          "time": 88.5788145,
          "velocity": 0.07874015748031496
        },
        {
          "duration": 0.0789472499999988,
          "durationTicks": 96,
          "midi": 38,
          "name": "D2",
          "ticks": 107904,
          "time": 88.73670899999999,
          "velocity": 0.03937007874015748
        },
        {
          "duration": 0.0789472499999988,
          "durationTicks": 96,
          "midi": 28,
          "name": "E1",
          "ticks": 107904,
          "time": 88.73670899999999,
          "velocity": 0.07874015748031496
        },
        {
          "duration": 0.0789472499999988,
          "durationTicks": 96,
          "midi": 32,
          "name": "G#1",
          "ticks": 107904,
          "time": 88.73670899999999,
          "velocity": 0.07874015748031496
        },
        {
          "duration": 0.0789472499999988,
          "durationTicks": 96,
          "midi": 44,
          "name": "G#2",
          "ticks": 107904,
          "time": 88.73670899999999,
          "velocity": 0.07874015748031496
        },
        {
          "duration": 0.0789472499999988,
          "durationTicks": 96,
          "midi": 40,
          "name": "E2",
          "ticks": 107904,
          "time": 88.73670899999999,
          "velocity": 0.07874015748031496
        },
        {
          "duration": 0.0789472499999988,
          "durationTicks": 96,
          "midi": 40,
          "name": "E2",
          "ticks": 107904,
          "time": 88.73670899999999,
          "velocity": 0.03937007874015748
        },
        {
          "duration": 0.0789472499999988,
          "durationTicks": 96,
          "midi": 42,
          "name": "F#2",
          "ticks": 107904,
          "time": 88.73670899999999,
          "velocity": 0.07874015748031496
        },
        {
          "duration": 0.0789472499999988,
          "durationTicks": 96,
          "midi": 40,
          "name": "E2",
          "ticks": 108096,
          "time": 88.8946035,
          "velocity": 0.07874015748031496
        },
        {
          "duration": 0.0789472499999988,
          "durationTicks": 96,
          "midi": 38,
          "name": "D2",
          "ticks": 108096,
          "time": 88.8946035,
          "velocity": 0.03937007874015748
        },
        {
          "duration": 0.0789472499999988,
          "durationTicks": 96,
          "midi": 44,
          "name": "G#2",
          "ticks": 108096,
          "time": 88.8946035,
          "velocity": 0.07874015748031496
        },
        {
          "duration": 0.0789472499999988,
          "durationTicks": 96,
          "midi": 42,
          "name": "F#2",
          "ticks": 108096,
          "time": 88.8946035,
          "velocity": 0.07874015748031496
        },
        {
          "duration": 0.0789472499999988,
          "durationTicks": 96,
          "midi": 32,
          "name": "G#1",
          "ticks": 108096,
          "time": 88.8946035,
          "velocity": 0.07874015748031496
        },
        {
          "duration": 0.0789472499999988,
          "durationTicks": 96,
          "midi": 40,
          "name": "E2",
          "ticks": 108096,
          "time": 88.8946035,
          "velocity": 0.03937007874015748
        },
        {
          "duration": 0.0789472499999988,
          "durationTicks": 96,
          "midi": 28,
          "name": "E1",
          "ticks": 108096,
          "time": 88.8946035,
          "velocity": 0.07874015748031496
        },
        {
          "duration": 0.0789472499999988,
          "durationTicks": 96,
          "midi": 32,
          "name": "G#1",
          "ticks": 108288,
          "time": 89.052498,
          "velocity": 0.07874015748031496
        },
        {
          "duration": 0.0789472499999988,
          "durationTicks": 96,
          "midi": 42,
          "name": "F#2",
          "ticks": 108288,
          "time": 89.052498,
          "velocity": 0.07874015748031496
        },
        {
          "duration": 0.0789472499999988,
          "durationTicks": 96,
          "midi": 40,
          "name": "E2",
          "ticks": 108480,
          "time": 89.2103925,
          "velocity": 0.03937007874015748
        },
        {
          "duration": 0.0789472499999988,
          "durationTicks": 96,
          "midi": 38,
          "name": "D2",
          "ticks": 108480,
          "time": 89.2103925,
          "velocity": 0.03937007874015748
        },
        {
          "duration": 0.0789472499999988,
          "durationTicks": 96,
          "midi": 32,
          "name": "G#1",
          "ticks": 108480,
          "time": 89.2103925,
          "velocity": 0.07874015748031496
        },
        {
          "duration": 0.0789472499999988,
          "durationTicks": 96,
          "midi": 42,
          "name": "F#2",
          "ticks": 108480,
          "time": 89.2103925,
          "velocity": 0.07874015748031496
        },
        {
          "duration": 0.2368417499999964,
          "durationTicks": 288,
          "midi": 32,
          "name": "G#1",
          "ticks": 108672,
          "time": 89.368287,
          "velocity": 0.07874015748031496
        },
        {
          "duration": 0.0789472499999988,
          "durationTicks": 96,
          "midi": 40,
          "name": "E2",
          "ticks": 108672,
          "time": 89.368287,
          "velocity": 0.07874015748031496
        },
        {
          "duration": 0.0789472499999988,
          "durationTicks": 96,
          "midi": 42,
          "name": "F#2",
          "ticks": 108672,
          "time": 89.368287,
          "velocity": 0.07874015748031496
        },
        {
          "duration": 0.0789472499999988,
          "durationTicks": 96,
          "midi": 38,
          "name": "D2",
          "ticks": 108672,
          "time": 89.368287,
          "velocity": 0.03937007874015748
        },
        {
          "duration": 0.3157889999999952,
          "durationTicks": 384,
          "midi": 28,
          "name": "E1",
          "ticks": 108672,
          "time": 89.368287,
          "velocity": 0.07874015748031496
        },
        {
          "duration": 0.2368417499999964,
          "durationTicks": 288,
          "midi": 40,
          "name": "E2",
          "ticks": 108672,
          "time": 89.368287,
          "velocity": 0.03937007874015748
        },
        {
          "duration": 0.3157889999999952,
          "durationTicks": 384,
          "midi": 44,
          "name": "G#2",
          "ticks": 108672,
          "time": 89.368287,
          "velocity": 0.07874015748031496
        },
        {
          "duration": 0.1578944999999976,
          "durationTicks": 192,
          "midi": 32,
          "name": "G#1",
          "ticks": 108864,
          "time": 89.52618149999999,
          "velocity": 0.07874015748031496
        },
        {
          "duration": 0.1578944999999976,
          "durationTicks": 192,
          "midi": 40,
          "name": "E2",
          "ticks": 108864,
          "time": 89.52618149999999,
          "velocity": 0.03937007874015748
        },
        {
          "duration": 0.0789472499999988,
          "durationTicks": 96,
          "midi": 38,
          "name": "D2",
          "ticks": 108864,
          "time": 89.52618149999999,
          "velocity": 0.03937007874015748
        },
        {
          "duration": 0.0789472499999988,
          "durationTicks": 96,
          "midi": 42,
          "name": "F#2",
          "ticks": 108864,
          "time": 89.52618149999999,
          "velocity": 0.07874015748031496
        },
        {
          "duration": 0.0789472499999988,
          "durationTicks": 96,
          "midi": 42,
          "name": "F#2",
          "ticks": 108960,
          "time": 89.60512874999999,
          "velocity": 0.07874015748031496
        },
        {
          "duration": 0.0789472499999988,
          "durationTicks": 96,
          "midi": 32,
          "name": "G#1",
          "ticks": 108960,
          "time": 89.60512874999999,
          "velocity": 0.07874015748031496
        },
        {
          "duration": 0.0789472499999988,
          "durationTicks": 96,
          "midi": 42,
          "name": "F#2",
          "ticks": 109056,
          "time": 89.68407599999999,
          "velocity": 0.07874015748031496
        },
        {
          "duration": 0.0789472499999988,
          "durationTicks": 96,
          "midi": 32,
          "name": "G#1",
          "ticks": 109056,
          "time": 89.68407599999999,
          "velocity": 0.07874015748031496
        },
        {
          "duration": 0.0789472499999988,
          "durationTicks": 96,
          "midi": 35,
          "name": "B1",
          "ticks": 109056,
          "time": 89.68407599999999,
          "velocity": 0.03937007874015748
        },
        {
          "duration": 0.0789472499999988,
          "durationTicks": 96,
          "midi": 32,
          "name": "G#1",
          "ticks": 109248,
          "time": 89.8419705,
          "velocity": 0.07874015748031496
        },
        {
          "duration": 0.0789472499999988,
          "durationTicks": 96,
          "midi": 42,
          "name": "F#2",
          "ticks": 109248,
          "time": 89.8419705,
          "velocity": 0.07874015748031496
        },
        {
          "duration": 0.0789472499999988,
          "durationTicks": 96,
          "midi": 28,
          "name": "E1",
          "ticks": 109440,
          "time": 89.999865,
          "velocity": 0.07874015748031496
        },
        {
          "duration": 0.0789472499999988,
          "durationTicks": 96,
          "midi": 42,
          "name": "F#2",
          "ticks": 109440,
          "time": 89.999865,
          "velocity": 0.07874015748031496
        },
        {
          "duration": 0.0789472499999988,
          "durationTicks": 96,
          "midi": 32,
          "name": "G#1",
          "ticks": 109440,
          "time": 89.999865,
          "velocity": 0.07874015748031496
        },
        {
          "duration": 0.0789472499999988,
          "durationTicks": 96,
          "midi": 38,
          "name": "D2",
          "ticks": 109440,
          "time": 89.999865,
          "velocity": 0.03937007874015748
        },
        {
          "duration": 0.0789472499999988,
          "durationTicks": 96,
          "midi": 44,
          "name": "G#2",
          "ticks": 109440,
          "time": 89.999865,
          "velocity": 0.07874015748031496
        },
        {
          "duration": 0.0789472499999988,
          "durationTicks": 96,
          "midi": 40,
          "name": "E2",
          "ticks": 109440,
          "time": 89.999865,
          "velocity": 0.07874015748031496
        },
        {
          "duration": 0.0789472499999988,
          "durationTicks": 96,
          "midi": 40,
          "name": "E2",
          "ticks": 109440,
          "time": 89.999865,
          "velocity": 0.03937007874015748
        },
        {
          "duration": 0.0789472499999988,
          "durationTicks": 96,
          "midi": 40,
          "name": "E2",
          "ticks": 109632,
          "time": 90.1577595,
          "velocity": 0.03937007874015748
        },
        {
          "duration": 0.0789472499999988,
          "durationTicks": 96,
          "midi": 44,
          "name": "G#2",
          "ticks": 109632,
          "time": 90.1577595,
          "velocity": 0.07874015748031496
        },
        {
          "duration": 0.0789472499999988,
          "durationTicks": 96,
          "midi": 38,
          "name": "D2",
          "ticks": 109632,
          "time": 90.1577595,
          "velocity": 0.03937007874015748
        },
        {
          "duration": 0.0789472499999988,
          "durationTicks": 96,
          "midi": 42,
          "name": "F#2",
          "ticks": 109632,
          "time": 90.1577595,
          "velocity": 0.07874015748031496
        },
        {
          "duration": 0.0789472499999988,
          "durationTicks": 96,
          "midi": 40,
          "name": "E2",
          "ticks": 109632,
          "time": 90.1577595,
          "velocity": 0.07874015748031496
        },
        {
          "duration": 0.0789472499999988,
          "durationTicks": 96,
          "midi": 28,
          "name": "E1",
          "ticks": 109632,
          "time": 90.1577595,
          "velocity": 0.07874015748031496
        },
        {
          "duration": 0.0789472499999988,
          "durationTicks": 96,
          "midi": 32,
          "name": "G#1",
          "ticks": 109632,
          "time": 90.1577595,
          "velocity": 0.07874015748031496
        },
        {
          "duration": 0.0789472499999988,
          "durationTicks": 96,
          "midi": 42,
          "name": "F#2",
          "ticks": 109824,
          "time": 90.315654,
          "velocity": 0.07874015748031496
        },
        {
          "duration": 0.0789472499999988,
          "durationTicks": 96,
          "midi": 32,
          "name": "G#1",
          "ticks": 109824,
          "time": 90.315654,
          "velocity": 0.07874015748031496
        },
        {
          "duration": 0.0789472499999988,
          "durationTicks": 96,
          "midi": 32,
          "name": "G#1",
          "ticks": 110016,
          "time": 90.47354849999999,
          "velocity": 0.07874015748031496
        },
        {
          "duration": 0.0789472499999988,
          "durationTicks": 96,
          "midi": 42,
          "name": "F#2",
          "ticks": 110016,
          "time": 90.47354849999999,
          "velocity": 0.07874015748031496
        },
        {
          "duration": 0.0789472499999988,
          "durationTicks": 96,
          "midi": 40,
          "name": "E2",
          "ticks": 110016,
          "time": 90.47354849999999,
          "velocity": 0.03937007874015748
        },
        {
          "duration": 0.0789472499999988,
          "durationTicks": 96,
          "midi": 38,
          "name": "D2",
          "ticks": 110016,
          "time": 90.47354849999999,
          "velocity": 0.03937007874015748
        },
        {
          "duration": 0.23684175000001062,
          "durationTicks": 288,
          "midi": 32,
          "name": "G#1",
          "ticks": 110208,
          "time": 90.63144299999999,
          "velocity": 0.07874015748031496
        },
        {
          "duration": 0.0789472499999988,
          "durationTicks": 96,
          "midi": 40,
          "name": "E2",
          "ticks": 110208,
          "time": 90.63144299999999,
          "velocity": 0.03937007874015748
        },
        {
          "duration": 0.0789472499999988,
          "durationTicks": 96,
          "midi": 38,
          "name": "D2",
          "ticks": 110208,
          "time": 90.63144299999999,
          "velocity": 0.03937007874015748
        },
        {
          "duration": 0.23684175000001062,
          "durationTicks": 288,
          "midi": 40,
          "name": "E2",
          "ticks": 110208,
          "time": 90.63144299999999,
          "velocity": 0.07874015748031496
        },
        {
          "duration": 0.0789472499999988,
          "durationTicks": 96,
          "midi": 42,
          "name": "F#2",
          "ticks": 110208,
          "time": 90.63144299999999,
          "velocity": 0.07874015748031496
        },
        {
          "duration": 0.3157890000000094,
          "durationTicks": 384,
          "midi": 44,
          "name": "G#2",
          "ticks": 110208,
          "time": 90.63144299999999,
          "velocity": 0.07874015748031496
        },
        {
          "duration": 0.3157890000000094,
          "durationTicks": 384,
          "midi": 28,
          "name": "E1",
          "ticks": 110208,
          "time": 90.63144299999999,
          "velocity": 0.07874015748031496
        },
        {
          "duration": 0.1578944999999976,
          "durationTicks": 192,
          "midi": 32,
          "name": "G#1",
          "ticks": 110400,
          "time": 90.7893375,
          "velocity": 0.07874015748031496
        },
        {
          "duration": 0.0789472499999988,
          "durationTicks": 96,
          "midi": 42,
          "name": "F#2",
          "ticks": 110400,
          "time": 90.7893375,
          "velocity": 0.07874015748031496
        },
        {
          "duration": 0.1578944999999976,
          "durationTicks": 192,
          "midi": 40,
          "name": "E2",
          "ticks": 110400,
          "time": 90.7893375,
          "velocity": 0.03937007874015748
        },
        {
          "duration": 0.0789472499999988,
          "durationTicks": 96,
          "midi": 38,
          "name": "D2",
          "ticks": 110400,
          "time": 90.7893375,
          "velocity": 0.03937007874015748
        },
        {
          "duration": 0.0789472499999988,
          "durationTicks": 96,
          "midi": 42,
          "name": "F#2",
          "ticks": 110496,
          "time": 90.86828475,
          "velocity": 0.07874015748031496
        },
        {
          "duration": 0.0789472499999988,
          "durationTicks": 96,
          "midi": 32,
          "name": "G#1",
          "ticks": 110496,
          "time": 90.86828475,
          "velocity": 0.07874015748031496
        },
        {
          "duration": 0.0789472499999988,
          "durationTicks": 96,
          "midi": 32,
          "name": "G#1",
          "ticks": 110592,
          "time": 90.947232,
          "velocity": 0.07874015748031496
        },
        {
          "duration": 0.0789472499999988,
          "durationTicks": 96,
          "midi": 42,
          "name": "F#2",
          "ticks": 110592,
          "time": 90.947232,
          "velocity": 0.07874015748031496
        },
        {
          "duration": 0.0789472499999988,
          "durationTicks": 96,
          "midi": 35,
          "name": "B1",
          "ticks": 110592,
          "time": 90.947232,
          "velocity": 0.03937007874015748
        },
        {
          "duration": 0.0789472499999988,
          "durationTicks": 96,
          "midi": 32,
          "name": "G#1",
          "ticks": 110784,
          "time": 91.1051265,
          "velocity": 0.07874015748031496
        },
        {
          "duration": 0.0789472499999988,
          "durationTicks": 96,
          "midi": 42,
          "name": "F#2",
          "ticks": 110784,
          "time": 91.1051265,
          "velocity": 0.07874015748031496
        },
        {
          "duration": 0.0789472499999988,
          "durationTicks": 96,
          "midi": 40,
          "name": "E2",
          "ticks": 110976,
          "time": 91.263021,
          "velocity": 0.03937007874015748
        },
        {
          "duration": 0.0789472499999988,
          "durationTicks": 96,
          "midi": 44,
          "name": "G#2",
          "ticks": 110976,
          "time": 91.263021,
          "velocity": 0.07874015748031496
        },
        {
          "duration": 0.0789472499999988,
          "durationTicks": 96,
          "midi": 38,
          "name": "D2",
          "ticks": 110976,
          "time": 91.263021,
          "velocity": 0.03937007874015748
        },
        {
          "duration": 0.0789472499999988,
          "durationTicks": 96,
          "midi": 40,
          "name": "E2",
          "ticks": 110976,
          "time": 91.263021,
          "velocity": 0.07874015748031496
        },
        {
          "duration": 0.0789472499999988,
          "durationTicks": 96,
          "midi": 32,
          "name": "G#1",
          "ticks": 110976,
          "time": 91.263021,
          "velocity": 0.07874015748031496
        },
        {
          "duration": 0.0789472499999988,
          "durationTicks": 96,
          "midi": 28,
          "name": "E1",
          "ticks": 110976,
          "time": 91.263021,
          "velocity": 0.07874015748031496
        },
        {
          "duration": 0.0789472499999988,
          "durationTicks": 96,
          "midi": 42,
          "name": "F#2",
          "ticks": 110976,
          "time": 91.263021,
          "velocity": 0.07874015748031496
        },
        {
          "duration": 0.0789472499999988,
          "durationTicks": 96,
          "midi": 40,
          "name": "E2",
          "ticks": 111168,
          "time": 91.42091549999999,
          "velocity": 0.03937007874015748
        },
        {
          "duration": 0.0789472499999988,
          "durationTicks": 96,
          "midi": 38,
          "name": "D2",
          "ticks": 111168,
          "time": 91.42091549999999,
          "velocity": 0.03937007874015748
        },
        {
          "duration": 0.0789472499999988,
          "durationTicks": 96,
          "midi": 44,
          "name": "G#2",
          "ticks": 111168,
          "time": 91.42091549999999,
          "velocity": 0.07874015748031496
        },
        {
          "duration": 0.0789472499999988,
          "durationTicks": 96,
          "midi": 32,
          "name": "G#1",
          "ticks": 111168,
          "time": 91.42091549999999,
          "velocity": 0.07874015748031496
        },
        {
          "duration": 0.0789472499999988,
          "durationTicks": 96,
          "midi": 40,
          "name": "E2",
          "ticks": 111168,
          "time": 91.42091549999999,
          "velocity": 0.07874015748031496
        },
        {
          "duration": 0.0789472499999988,
          "durationTicks": 96,
          "midi": 28,
          "name": "E1",
          "ticks": 111168,
          "time": 91.42091549999999,
          "velocity": 0.07874015748031496
        },
        {
          "duration": 0.0789472499999988,
          "durationTicks": 96,
          "midi": 42,
          "name": "F#2",
          "ticks": 111168,
          "time": 91.42091549999999,
          "velocity": 0.07874015748031496
        },
        {
          "duration": 0.07894725000001301,
          "durationTicks": 96,
          "midi": 42,
          "name": "F#2",
          "ticks": 111360,
          "time": 91.57880999999999,
          "velocity": 0.07874015748031496
        },
        {
          "duration": 0.07894725000001301,
          "durationTicks": 96,
          "midi": 32,
          "name": "G#1",
          "ticks": 111360,
          "time": 91.57880999999999,
          "velocity": 0.07874015748031496
        },
        {
          "duration": 0.0789472499999988,
          "durationTicks": 96,
          "midi": 42,
          "name": "F#2",
          "ticks": 111552,
          "time": 91.7367045,
          "velocity": 0.07874015748031496
        },
        {
          "duration": 0.0789472499999988,
          "durationTicks": 96,
          "midi": 38,
          "name": "D2",
          "ticks": 111552,
          "time": 91.7367045,
          "velocity": 0.03937007874015748
        },
        {
          "duration": 0.0789472499999988,
          "durationTicks": 96,
          "midi": 40,
          "name": "E2",
          "ticks": 111552,
          "time": 91.7367045,
          "velocity": 0.03937007874015748
        },
        {
          "duration": 0.0789472499999988,
          "durationTicks": 96,
          "midi": 32,
          "name": "G#1",
          "ticks": 111552,
          "time": 91.7367045,
          "velocity": 0.07874015748031496
        },
        {
          "duration": 0.0789472499999988,
          "durationTicks": 96,
          "midi": 40,
          "name": "E2",
          "ticks": 111744,
          "time": 91.894599,
          "velocity": 0.03937007874015748
        },
        {
          "duration": 0.0789472499999988,
          "durationTicks": 96,
          "midi": 42,
          "name": "F#2",
          "ticks": 111744,
          "time": 91.894599,
          "velocity": 0.07874015748031496
        },
        {
          "duration": 0.3157889999999952,
          "durationTicks": 384,
          "midi": 28,
          "name": "E1",
          "ticks": 111744,
          "time": 91.894599,
          "velocity": 0.07874015748031496
        },
        {
          "duration": 0.3157889999999952,
          "durationTicks": 384,
          "midi": 44,
          "name": "G#2",
          "ticks": 111744,
          "time": 91.894599,
          "velocity": 0.07874015748031496
        },
        {
          "duration": 0.2368417499999964,
          "durationTicks": 288,
          "midi": 32,
          "name": "G#1",
          "ticks": 111744,
          "time": 91.894599,
          "velocity": 0.07874015748031496
        },
        {
          "duration": 0.2368417499999964,
          "durationTicks": 288,
          "midi": 40,
          "name": "E2",
          "ticks": 111744,
          "time": 91.894599,
          "velocity": 0.07874015748031496
        },
        {
          "duration": 0.0789472499999988,
          "durationTicks": 96,
          "midi": 38,
          "name": "D2",
          "ticks": 111744,
          "time": 91.894599,
          "velocity": 0.03937007874015748
        },
        {
          "duration": 0.0789472499999988,
          "durationTicks": 96,
          "midi": 38,
          "name": "D2",
          "ticks": 111936,
          "time": 92.0524935,
          "velocity": 0.03937007874015748
        },
        {
          "duration": 0.0789472499999988,
          "durationTicks": 96,
          "midi": 42,
          "name": "F#2",
          "ticks": 111936,
          "time": 92.0524935,
          "velocity": 0.07874015748031496
        },
        {
          "duration": 0.1578944999999976,
          "durationTicks": 192,
          "midi": 32,
          "name": "G#1",
          "ticks": 111936,
          "time": 92.0524935,
          "velocity": 0.07874015748031496
        },
        {
          "duration": 0.1578944999999976,
          "durationTicks": 192,
          "midi": 40,
          "name": "E2",
          "ticks": 111936,
          "time": 92.0524935,
          "velocity": 0.03937007874015748
        },
        {
          "duration": 0.0789472499999988,
          "durationTicks": 96,
          "midi": 32,
          "name": "G#1",
          "ticks": 112032,
          "time": 92.13144075,
          "velocity": 0.07874015748031496
        },
        {
          "duration": 0.0789472499999988,
          "durationTicks": 96,
          "midi": 42,
          "name": "F#2",
          "ticks": 112032,
          "time": 92.13144075,
          "velocity": 0.07874015748031496
        },
        {
          "duration": 0.0789472499999988,
          "durationTicks": 96,
          "midi": 32,
          "name": "G#1",
          "ticks": 112128,
          "time": 92.210388,
          "velocity": 0.07874015748031496
        },
        {
          "duration": 0.0789472499999988,
          "durationTicks": 96,
          "midi": 35,
          "name": "B1",
          "ticks": 112128,
          "time": 92.210388,
          "velocity": 0.03937007874015748
        },
        {
          "duration": 0.0789472499999988,
          "durationTicks": 96,
          "midi": 42,
          "name": "F#2",
          "ticks": 112128,
          "time": 92.210388,
          "velocity": 0.07874015748031496
        },
        {
          "duration": 0.0789472499999988,
          "durationTicks": 96,
          "midi": 42,
          "name": "F#2",
          "ticks": 112320,
          "time": 92.36828249999999,
          "velocity": 0.07874015748031496
        },
        {
          "duration": 0.0789472499999988,
          "durationTicks": 96,
          "midi": 32,
          "name": "G#1",
          "ticks": 112320,
          "time": 92.36828249999999,
          "velocity": 0.07874015748031496
        },
        {
          "duration": 0.07894725000001301,
          "durationTicks": 96,
          "midi": 38,
          "name": "D2",
          "ticks": 112512,
          "time": 92.52617699999999,
          "velocity": 0.03937007874015748
        },
        {
          "duration": 0.07894725000001301,
          "durationTicks": 96,
          "midi": 40,
          "name": "E2",
          "ticks": 112512,
          "time": 92.52617699999999,
          "velocity": 0.07874015748031496
        },
        {
          "duration": 0.07894725000001301,
          "durationTicks": 96,
          "midi": 40,
          "name": "E2",
          "ticks": 112512,
          "time": 92.52617699999999,
          "velocity": 0.03937007874015748
        },
        {
          "duration": 0.07894725000001301,
          "durationTicks": 96,
          "midi": 32,
          "name": "G#1",
          "ticks": 112512,
          "time": 92.52617699999999,
          "velocity": 0.07874015748031496
        },
        {
          "duration": 0.07894725000001301,
          "durationTicks": 96,
          "midi": 42,
          "name": "F#2",
          "ticks": 112512,
          "time": 92.52617699999999,
          "velocity": 0.07874015748031496
        },
        {
          "duration": 0.07894725000001301,
          "durationTicks": 96,
          "midi": 44,
          "name": "G#2",
          "ticks": 112512,
          "time": 92.52617699999999,
          "velocity": 0.07874015748031496
        },
        {
          "duration": 0.07894725000001301,
          "durationTicks": 96,
          "midi": 28,
          "name": "E1",
          "ticks": 112512,
          "time": 92.52617699999999,
          "velocity": 0.07874015748031496
        },
        {
          "duration": 0.0789472499999988,
          "durationTicks": 96,
          "midi": 40,
          "name": "E2",
          "ticks": 112704,
          "time": 92.6840715,
          "velocity": 0.03937007874015748
        },
        {
          "duration": 0.0789472499999988,
          "durationTicks": 96,
          "midi": 38,
          "name": "D2",
          "ticks": 112704,
          "time": 92.6840715,
          "velocity": 0.03937007874015748
        },
        {
          "duration": 0.0789472499999988,
          "durationTicks": 96,
          "midi": 42,
          "name": "F#2",
          "ticks": 112704,
          "time": 92.6840715,
          "velocity": 0.07874015748031496
        },
        {
          "duration": 0.0789472499999988,
          "durationTicks": 96,
          "midi": 32,
          "name": "G#1",
          "ticks": 112704,
          "time": 92.6840715,
          "velocity": 0.07874015748031496
        },
        {
          "duration": 0.0789472499999988,
          "durationTicks": 96,
          "midi": 40,
          "name": "E2",
          "ticks": 112704,
          "time": 92.6840715,
          "velocity": 0.07874015748031496
        },
        {
          "duration": 0.0789472499999988,
          "durationTicks": 96,
          "midi": 28,
          "name": "E1",
          "ticks": 112704,
          "time": 92.6840715,
          "velocity": 0.07874015748031496
        },
        {
          "duration": 0.0789472499999988,
          "durationTicks": 96,
          "midi": 44,
          "name": "G#2",
          "ticks": 112704,
          "time": 92.6840715,
          "velocity": 0.07874015748031496
        },
        {
          "duration": 0.0789472499999988,
          "durationTicks": 96,
          "midi": 42,
          "name": "F#2",
          "ticks": 112896,
          "time": 92.841966,
          "velocity": 0.07874015748031496
        },
        {
          "duration": 0.0789472499999988,
          "durationTicks": 96,
          "midi": 32,
          "name": "G#1",
          "ticks": 112896,
          "time": 92.841966,
          "velocity": 0.07874015748031496
        },
        {
          "duration": 0.0789472499999988,
          "durationTicks": 96,
          "midi": 40,
          "name": "E2",
          "ticks": 113088,
          "time": 92.9998605,
          "velocity": 0.03937007874015748
        },
        {
          "duration": 0.0789472499999988,
          "durationTicks": 96,
          "midi": 42,
          "name": "F#2",
          "ticks": 113088,
          "time": 92.9998605,
          "velocity": 0.07874015748031496
        },
        {
          "duration": 0.0789472499999988,
          "durationTicks": 96,
          "midi": 32,
          "name": "G#1",
          "ticks": 113088,
          "time": 92.9998605,
          "velocity": 0.07874015748031496
        },
        {
          "duration": 0.0789472499999988,
          "durationTicks": 96,
          "midi": 38,
          "name": "D2",
          "ticks": 113088,
          "time": 92.9998605,
          "velocity": 0.03937007874015748
        },
        {
          "duration": 0.0789472499999988,
          "durationTicks": 96,
          "midi": 40,
          "name": "E2",
          "ticks": 113280,
          "time": 93.157755,
          "velocity": 0.03937007874015748
        },
        {
          "duration": 0.2368417499999964,
          "durationTicks": 288,
          "midi": 40,
          "name": "E2",
          "ticks": 113280,
          "time": 93.157755,
          "velocity": 0.07874015748031496
        },
        {
          "duration": 0.3157889999999952,
          "durationTicks": 384,
          "midi": 28,
          "name": "E1",
          "ticks": 113280,
          "time": 93.157755,
          "velocity": 0.07874015748031496
        },
        {
          "duration": 0.0789472499999988,
          "durationTicks": 96,
          "midi": 38,
          "name": "D2",
          "ticks": 113280,
          "time": 93.157755,
          "velocity": 0.03937007874015748
        },
        {
          "duration": 0.3157889999999952,
          "durationTicks": 384,
          "midi": 44,
          "name": "G#2",
          "ticks": 113280,
          "time": 93.157755,
          "velocity": 0.07874015748031496
        },
        {
          "duration": 0.2368417499999964,
          "durationTicks": 288,
          "midi": 32,
          "name": "G#1",
          "ticks": 113280,
          "time": 93.157755,
          "velocity": 0.07874015748031496
        },
        {
          "duration": 0.0789472499999988,
          "durationTicks": 96,
          "midi": 42,
          "name": "F#2",
          "ticks": 113280,
          "time": 93.157755,
          "velocity": 0.07874015748031496
        },
        {
          "duration": 0.0789472499999988,
          "durationTicks": 96,
          "midi": 38,
          "name": "D2",
          "ticks": 113472,
          "time": 93.31564949999999,
          "velocity": 0.03937007874015748
        },
        {
          "duration": 0.1578944999999976,
          "durationTicks": 192,
          "midi": 40,
          "name": "E2",
          "ticks": 113472,
          "time": 93.31564949999999,
          "velocity": 0.03937007874015748
        },
        {
          "duration": 0.1578944999999976,
          "durationTicks": 192,
          "midi": 32,
          "name": "G#1",
          "ticks": 113472,
          "time": 93.31564949999999,
          "velocity": 0.07874015748031496
        },
        {
          "duration": 0.0789472499999988,
          "durationTicks": 96,
          "midi": 42,
          "name": "F#2",
          "ticks": 113472,
          "time": 93.31564949999999,
          "velocity": 0.07874015748031496
        },
        {
          "duration": 0.0789472499999988,
          "durationTicks": 96,
          "midi": 32,
          "name": "G#1",
          "ticks": 113568,
          "time": 93.39459674999999,
          "velocity": 0.07874015748031496
        },
        {
          "duration": 0.0789472499999988,
          "durationTicks": 96,
          "midi": 42,
          "name": "F#2",
          "ticks": 113568,
          "time": 93.39459674999999,
          "velocity": 0.07874015748031496
        },
        {
          "duration": 0.07894725000001301,
          "durationTicks": 96,
          "midi": 42,
          "name": "F#2",
          "ticks": 113664,
          "time": 93.47354399999999,
          "velocity": 0.07874015748031496
        },
        {
          "duration": 0.07894725000001301,
          "durationTicks": 96,
          "midi": 35,
          "name": "B1",
          "ticks": 113664,
          "time": 93.47354399999999,
          "velocity": 0.03937007874015748
        },
        {
          "duration": 0.07894725000001301,
          "durationTicks": 96,
          "midi": 32,
          "name": "G#1",
          "ticks": 113664,
          "time": 93.47354399999999,
          "velocity": 0.07874015748031496
        },
        {
          "duration": 0.0789472499999988,
          "durationTicks": 96,
          "midi": 32,
          "name": "G#1",
          "ticks": 113856,
          "time": 93.6314385,
          "velocity": 0.07874015748031496
        },
        {
          "duration": 0.0789472499999988,
          "durationTicks": 96,
          "midi": 42,
          "name": "F#2",
          "ticks": 113856,
          "time": 93.6314385,
          "velocity": 0.07874015748031496
        },
        {
          "duration": 0.0789472499999988,
          "durationTicks": 96,
          "midi": 44,
          "name": "G#2",
          "ticks": 114048,
          "time": 93.789333,
          "velocity": 0.07874015748031496
        },
        {
          "duration": 0.0789472499999988,
          "durationTicks": 96,
          "midi": 42,
          "name": "F#2",
          "ticks": 114048,
          "time": 93.789333,
          "velocity": 0.07874015748031496
        },
        {
          "duration": 0.0789472499999988,
          "durationTicks": 96,
          "midi": 28,
          "name": "E1",
          "ticks": 114048,
          "time": 93.789333,
          "velocity": 0.07874015748031496
        },
        {
          "duration": 0.0789472499999988,
          "durationTicks": 96,
          "midi": 40,
          "name": "E2",
          "ticks": 114048,
          "time": 93.789333,
          "velocity": 0.03937007874015748
        },
        {
          "duration": 0.0789472499999988,
          "durationTicks": 96,
          "midi": 40,
          "name": "E2",
          "ticks": 114048,
          "time": 93.789333,
          "velocity": 0.07874015748031496
        },
        {
          "duration": 0.0789472499999988,
          "durationTicks": 96,
          "midi": 32,
          "name": "G#1",
          "ticks": 114048,
          "time": 93.789333,
          "velocity": 0.07874015748031496
        },
        {
          "duration": 0.0789472499999988,
          "durationTicks": 96,
          "midi": 38,
          "name": "D2",
          "ticks": 114048,
          "time": 93.789333,
          "velocity": 0.03937007874015748
        },
        {
          "duration": 0.0789472499999988,
          "durationTicks": 96,
          "midi": 44,
          "name": "G#2",
          "ticks": 114240,
          "time": 93.9472275,
          "velocity": 0.07874015748031496
        },
        {
          "duration": 0.0789472499999988,
          "durationTicks": 96,
          "midi": 40,
          "name": "E2",
          "ticks": 114240,
          "time": 93.9472275,
          "velocity": 0.03937007874015748
        },
        {
          "duration": 0.0789472499999988,
          "durationTicks": 96,
          "midi": 28,
          "name": "E1",
          "ticks": 114240,
          "time": 93.9472275,
          "velocity": 0.07874015748031496
        },
        {
          "duration": 0.0789472499999988,
          "durationTicks": 96,
          "midi": 32,
          "name": "G#1",
          "ticks": 114240,
          "time": 93.9472275,
          "velocity": 0.07874015748031496
        },
        {
          "duration": 0.0789472499999988,
          "durationTicks": 96,
          "midi": 42,
          "name": "F#2",
          "ticks": 114240,
          "time": 93.9472275,
          "velocity": 0.07874015748031496
        },
        {
          "duration": 0.0789472499999988,
          "durationTicks": 96,
          "midi": 38,
          "name": "D2",
          "ticks": 114240,
          "time": 93.9472275,
          "velocity": 0.03937007874015748
        },
        {
          "duration": 0.0789472499999988,
          "durationTicks": 96,
          "midi": 40,
          "name": "E2",
          "ticks": 114240,
          "time": 93.9472275,
          "velocity": 0.07874015748031496
        },
        {
          "duration": 0.0789472499999988,
          "durationTicks": 96,
          "midi": 32,
          "name": "G#1",
          "ticks": 114432,
          "time": 94.105122,
          "velocity": 0.07874015748031496
        },
        {
          "duration": 0.0789472499999988,
          "durationTicks": 96,
          "midi": 42,
          "name": "F#2",
          "ticks": 114432,
          "time": 94.105122,
          "velocity": 0.07874015748031496
        },
        {
          "duration": 0.0789472499999988,
          "durationTicks": 96,
          "midi": 38,
          "name": "D2",
          "ticks": 114624,
          "time": 94.26301649999999,
          "velocity": 0.03937007874015748
        },
        {
          "duration": 0.0789472499999988,
          "durationTicks": 96,
          "midi": 42,
          "name": "F#2",
          "ticks": 114624,
          "time": 94.26301649999999,
          "velocity": 0.07874015748031496
        },
        {
          "duration": 0.0789472499999988,
          "durationTicks": 96,
          "midi": 32,
          "name": "G#1",
          "ticks": 114624,
          "time": 94.26301649999999,
          "velocity": 0.07874015748031496
        },
        {
          "duration": 0.0789472499999988,
          "durationTicks": 96,
          "midi": 40,
          "name": "E2",
          "ticks": 114624,
          "time": 94.26301649999999,
          "velocity": 0.03937007874015748
        },
        {
          "duration": 0.07894725000001301,
          "durationTicks": 96,
          "midi": 38,
          "name": "D2",
          "ticks": 114816,
          "time": 94.42091099999999,
          "velocity": 0.03937007874015748
        },
        {
          "duration": 0.23684175000001062,
          "durationTicks": 288,
          "midi": 32,
          "name": "G#1",
          "ticks": 114816,
          "time": 94.42091099999999,
          "velocity": 0.07874015748031496
        },
        {
          "duration": 0.07894725000001301,
          "durationTicks": 96,
          "midi": 40,
          "name": "E2",
          "ticks": 114816,
          "time": 94.42091099999999,
          "velocity": 0.07874015748031496
        },
        {
          "duration": 0.23684175000001062,
          "durationTicks": 288,
          "midi": 40,
          "name": "E2",
          "ticks": 114816,
          "time": 94.42091099999999,
          "velocity": 0.03937007874015748
        },
        {
          "duration": 0.07894725000001301,
          "durationTicks": 96,
          "midi": 42,
          "name": "F#2",
          "ticks": 114816,
          "time": 94.42091099999999,
          "velocity": 0.07874015748031496
        },
        {
          "duration": 0.3157890000000094,
          "durationTicks": 384,
          "midi": 44,
          "name": "G#2",
          "ticks": 114816,
          "time": 94.42091099999999,
          "velocity": 0.07874015748031496
        },
        {
          "duration": 0.3157890000000094,
          "durationTicks": 384,
          "midi": 28,
          "name": "E1",
          "ticks": 114816,
          "time": 94.42091099999999,
          "velocity": 0.07874015748031496
        },
        {
          "duration": 0.0789472499999988,
          "durationTicks": 96,
          "midi": 42,
          "name": "F#2",
          "ticks": 115008,
          "time": 94.5788055,
          "velocity": 0.07874015748031496
        },
        {
          "duration": 0.0789472499999988,
          "durationTicks": 96,
          "midi": 38,
          "name": "D2",
          "ticks": 115008,
          "time": 94.5788055,
          "velocity": 0.03937007874015748
        },
        {
          "duration": 0.1578944999999976,
          "durationTicks": 192,
          "midi": 32,
          "name": "G#1",
          "ticks": 115008,
          "time": 94.5788055,
          "velocity": 0.07874015748031496
        },
        {
          "duration": 0.1578944999999976,
          "durationTicks": 192,
          "midi": 40,
          "name": "E2",
          "ticks": 115008,
          "time": 94.5788055,
          "velocity": 0.03937007874015748
        },
        {
          "duration": 0.0789472499999988,
          "durationTicks": 96,
          "midi": 32,
          "name": "G#1",
          "ticks": 115104,
          "time": 94.65775275,
          "velocity": 0.07874015748031496
        },
        {
          "duration": 0.0789472499999988,
          "durationTicks": 96,
          "midi": 42,
          "name": "F#2",
          "ticks": 115104,
          "time": 94.65775275,
          "velocity": 0.07874015748031496
        },
        {
          "duration": 0.0789472499999988,
          "durationTicks": 96,
          "midi": 35,
          "name": "B1",
          "ticks": 115200,
          "time": 94.7367,
          "velocity": 0.03937007874015748
        },
        {
          "duration": 0.0789472499999988,
          "durationTicks": 96,
          "midi": 42,
          "name": "F#2",
          "ticks": 115200,
          "time": 94.7367,
          "velocity": 0.07874015748031496
        },
        {
          "duration": 0.0789472499999988,
          "durationTicks": 96,
          "midi": 32,
          "name": "G#1",
          "ticks": 115200,
          "time": 94.7367,
          "velocity": 0.07874015748031496
        },
        {
          "duration": 0.0789472499999988,
          "durationTicks": 96,
          "midi": 32,
          "name": "G#1",
          "ticks": 115392,
          "time": 94.8945945,
          "velocity": 0.07874015748031496
        },
        {
          "duration": 0.0789472499999988,
          "durationTicks": 96,
          "midi": 42,
          "name": "F#2",
          "ticks": 115392,
          "time": 94.8945945,
          "velocity": 0.07874015748031496
        },
        {
          "duration": 0.0789472499999988,
          "durationTicks": 96,
          "midi": 32,
          "name": "G#1",
          "ticks": 115584,
          "time": 95.052489,
          "velocity": 0.07874015748031496
        },
        {
          "duration": 0.0789472499999988,
          "durationTicks": 96,
          "midi": 42,
          "name": "F#2",
          "ticks": 115584,
          "time": 95.052489,
          "velocity": 0.07874015748031496
        },
        {
          "duration": 0.0789472499999988,
          "durationTicks": 96,
          "midi": 40,
          "name": "E2",
          "ticks": 115584,
          "time": 95.052489,
          "velocity": 0.03937007874015748
        },
        {
          "duration": 0.0789472499999988,
          "durationTicks": 96,
          "midi": 44,
          "name": "G#2",
          "ticks": 115584,
          "time": 95.052489,
          "velocity": 0.07874015748031496
        },
        {
          "duration": 0.0789472499999988,
          "durationTicks": 96,
          "midi": 28,
          "name": "E1",
          "ticks": 115584,
          "time": 95.052489,
          "velocity": 0.07874015748031496
        },
        {
          "duration": 0.0789472499999988,
          "durationTicks": 96,
          "midi": 40,
          "name": "E2",
          "ticks": 115584,
          "time": 95.052489,
          "velocity": 0.07874015748031496
        },
        {
          "duration": 0.0789472499999988,
          "durationTicks": 96,
          "midi": 38,
          "name": "D2",
          "ticks": 115584,
          "time": 95.052489,
          "velocity": 0.03937007874015748
        },
        {
          "duration": 0.0789472499999988,
          "durationTicks": 96,
          "midi": 40,
          "name": "E2",
          "ticks": 115776,
          "time": 95.21038349999999,
          "velocity": 0.07874015748031496
        },
        {
          "duration": 0.0789472499999988,
          "durationTicks": 96,
          "midi": 32,
          "name": "G#1",
          "ticks": 115776,
          "time": 95.21038349999999,
          "velocity": 0.07874015748031496
        },
        {
          "duration": 0.0789472499999988,
          "durationTicks": 96,
          "midi": 28,
          "name": "E1",
          "ticks": 115776,
          "time": 95.21038349999999,
          "velocity": 0.07874015748031496
        },
        {
          "duration": 0.0789472499999988,
          "durationTicks": 96,
          "midi": 44,
          "name": "G#2",
          "ticks": 115776,
          "time": 95.21038349999999,
          "velocity": 0.07874015748031496
        },
        {
          "duration": 0.0789472499999988,
          "durationTicks": 96,
          "midi": 40,
          "name": "E2",
          "ticks": 115776,
          "time": 95.21038349999999,
          "velocity": 0.03937007874015748
        },
        {
          "duration": 0.0789472499999988,
          "durationTicks": 96,
          "midi": 42,
          "name": "F#2",
          "ticks": 115776,
          "time": 95.21038349999999,
          "velocity": 0.07874015748031496
        },
        {
          "duration": 0.0789472499999988,
          "durationTicks": 96,
          "midi": 38,
          "name": "D2",
          "ticks": 115776,
          "time": 95.21038349999999,
          "velocity": 0.03937007874015748
        },
        {
          "duration": 0.07894725000001301,
          "durationTicks": 96,
          "midi": 42,
          "name": "F#2",
          "ticks": 115968,
          "time": 95.36827799999999,
          "velocity": 0.07874015748031496
        },
        {
          "duration": 0.07894725000001301,
          "durationTicks": 96,
          "midi": 32,
          "name": "G#1",
          "ticks": 115968,
          "time": 95.36827799999999,
          "velocity": 0.07874015748031496
        },
        {
          "duration": 0.0789472499999988,
          "durationTicks": 96,
          "midi": 40,
          "name": "E2",
          "ticks": 116160,
          "time": 95.5261725,
          "velocity": 0.03937007874015748
        },
        {
          "duration": 0.0789472499999988,
          "durationTicks": 96,
          "midi": 38,
          "name": "D2",
          "ticks": 116160,
          "time": 95.5261725,
          "velocity": 0.03937007874015748
        },
        {
          "duration": 0.0789472499999988,
          "durationTicks": 96,
          "midi": 32,
          "name": "G#1",
          "ticks": 116160,
          "time": 95.5261725,
          "velocity": 0.07874015748031496
        },
        {
          "duration": 0.0789472499999988,
          "durationTicks": 96,
          "midi": 42,
          "name": "F#2",
          "ticks": 116160,
          "time": 95.5261725,
          "velocity": 0.07874015748031496
        },
        {
          "duration": 0.0789472499999988,
          "durationTicks": 96,
          "midi": 40,
          "name": "E2",
          "ticks": 116352,
          "time": 95.684067,
          "velocity": 0.07874015748031496
        },
        {
          "duration": 0.2368417499999964,
          "durationTicks": 288,
          "midi": 40,
          "name": "E2",
          "ticks": 116352,
          "time": 95.684067,
          "velocity": 0.03937007874015748
        },
        {
          "duration": 0.0789472499999988,
          "durationTicks": 96,
          "midi": 38,
          "name": "D2",
          "ticks": 116352,
          "time": 95.684067,
          "velocity": 0.03937007874015748
        },
        {
          "duration": 0.2368417499999964,
          "durationTicks": 288,
          "midi": 32,
          "name": "G#1",
          "ticks": 116352,
          "time": 95.684067,
          "velocity": 0.07874015748031496
        },
        {
          "duration": 0.3157889999999952,
          "durationTicks": 384,
          "midi": 28,
          "name": "E1",
          "ticks": 116352,
          "time": 95.684067,
          "velocity": 0.07874015748031496
        },
        {
          "duration": 0.0789472499999988,
          "durationTicks": 96,
          "midi": 42,
          "name": "F#2",
          "ticks": 116352,
          "time": 95.684067,
          "velocity": 0.07874015748031496
        },
        {
          "duration": 0.3157889999999952,
          "durationTicks": 384,
          "midi": 44,
          "name": "G#2",
          "ticks": 116352,
          "time": 95.684067,
          "velocity": 0.07874015748031496
        },
        {
          "duration": 0.0789472499999988,
          "durationTicks": 96,
          "midi": 38,
          "name": "D2",
          "ticks": 116544,
          "time": 95.8419615,
          "velocity": 0.03937007874015748
        },
        {
          "duration": 0.0789472499999988,
          "durationTicks": 96,
          "midi": 42,
          "name": "F#2",
          "ticks": 116544,
          "time": 95.8419615,
          "velocity": 0.07874015748031496
        },
        {
          "duration": 0.1578944999999976,
          "durationTicks": 192,
          "midi": 32,
          "name": "G#1",
          "ticks": 116544,
          "time": 95.8419615,
          "velocity": 0.07874015748031496
        },
        {
          "duration": 0.1578944999999976,
          "durationTicks": 192,
          "midi": 40,
          "name": "E2",
          "ticks": 116544,
          "time": 95.8419615,
          "velocity": 0.03937007874015748
        },
        {
          "duration": 0.0789472499999988,
          "durationTicks": 96,
          "midi": 32,
          "name": "G#1",
          "ticks": 116640,
          "time": 95.92090875,
          "velocity": 0.07874015748031496
        },
        {
          "duration": 0.0789472499999988,
          "durationTicks": 96,
          "midi": 42,
          "name": "F#2",
          "ticks": 116640,
          "time": 95.92090875,
          "velocity": 0.07874015748031496
        },
        {
          "duration": 0.0789472499999988,
          "durationTicks": 96,
          "midi": 35,
          "name": "B1",
          "ticks": 116736,
          "time": 95.999856,
          "velocity": 0.03937007874015748
        },
        {
          "duration": 0.0789472499999988,
          "durationTicks": 96,
          "midi": 42,
          "name": "F#2",
          "ticks": 116736,
          "time": 95.999856,
          "velocity": 0.07874015748031496
        },
        {
          "duration": 0.0789472499999988,
          "durationTicks": 96,
          "midi": 32,
          "name": "G#1",
          "ticks": 116736,
          "time": 95.999856,
          "velocity": 0.07874015748031496
        },
        {
          "duration": 0.0789472499999988,
          "durationTicks": 96,
          "midi": 32,
          "name": "G#1",
          "ticks": 116928,
          "time": 96.15775049999999,
          "velocity": 0.07874015748031496
        },
        {
          "duration": 0.0789472499999988,
          "durationTicks": 96,
          "midi": 42,
          "name": "F#2",
          "ticks": 116928,
          "time": 96.15775049999999,
          "velocity": 0.07874015748031496
        },
        {
          "duration": 0.07894725000001301,
          "durationTicks": 96,
          "midi": 28,
          "name": "E1",
          "ticks": 117120,
          "time": 96.31564499999999,
          "velocity": 0.07874015748031496
        },
        {
          "duration": 0.07894725000001301,
          "durationTicks": 96,
          "midi": 42,
          "name": "F#2",
          "ticks": 117120,
          "time": 96.31564499999999,
          "velocity": 0.07874015748031496
        },
        {
          "duration": 0.07894725000001301,
          "durationTicks": 96,
          "midi": 38,
          "name": "D2",
          "ticks": 117120,
          "time": 96.31564499999999,
          "velocity": 0.03937007874015748
        },
        {
          "duration": 0.07894725000001301,
          "durationTicks": 96,
          "midi": 44,
          "name": "G#2",
          "ticks": 117120,
          "time": 96.31564499999999,
          "velocity": 0.07874015748031496
        },
        {
          "duration": 0.07894725000001301,
          "durationTicks": 96,
          "midi": 40,
          "name": "E2",
          "ticks": 117120,
          "time": 96.31564499999999,
          "velocity": 0.03937007874015748
        },
        {
          "duration": 0.07894725000001301,
          "durationTicks": 96,
          "midi": 40,
          "name": "E2",
          "ticks": 117120,
          "time": 96.31564499999999,
          "velocity": 0.07874015748031496
        },
        {
          "duration": 0.07894725000001301,
          "durationTicks": 96,
          "midi": 32,
          "name": "G#1",
          "ticks": 117120,
          "time": 96.31564499999999,
          "velocity": 0.07874015748031496
        },
        {
          "duration": 0.0789472499999988,
          "durationTicks": 96,
          "midi": 40,
          "name": "E2",
          "ticks": 117312,
          "time": 96.4735395,
          "velocity": 0.07874015748031496
        },
        {
          "duration": 0.0789472499999988,
          "durationTicks": 96,
          "midi": 28,
          "name": "E1",
          "ticks": 117312,
          "time": 96.4735395,
          "velocity": 0.07874015748031496
        },
        {
          "duration": 0.0789472499999988,
          "durationTicks": 96,
          "midi": 40,
          "name": "E2",
          "ticks": 117312,
          "time": 96.4735395,
          "velocity": 0.03937007874015748
        },
        {
          "duration": 0.0789472499999988,
          "durationTicks": 96,
          "midi": 44,
          "name": "G#2",
          "ticks": 117312,
          "time": 96.4735395,
          "velocity": 0.07874015748031496
        },
        {
          "duration": 0.0789472499999988,
          "durationTicks": 96,
          "midi": 42,
          "name": "F#2",
          "ticks": 117312,
          "time": 96.4735395,
          "velocity": 0.07874015748031496
        },
        {
          "duration": 0.0789472499999988,
          "durationTicks": 96,
          "midi": 32,
          "name": "G#1",
          "ticks": 117312,
          "time": 96.4735395,
          "velocity": 0.07874015748031496
        },
        {
          "duration": 0.0789472499999988,
          "durationTicks": 96,
          "midi": 38,
          "name": "D2",
          "ticks": 117312,
          "time": 96.4735395,
          "velocity": 0.03937007874015748
        },
        {
          "duration": 0.0789472499999988,
          "durationTicks": 96,
          "midi": 42,
          "name": "F#2",
          "ticks": 117504,
          "time": 96.631434,
          "velocity": 0.07874015748031496
        },
        {
          "duration": 0.0789472499999988,
          "durationTicks": 96,
          "midi": 32,
          "name": "G#1",
          "ticks": 117504,
          "time": 96.631434,
          "velocity": 0.07874015748031496
        },
        {
          "duration": 0.0789472499999988,
          "durationTicks": 96,
          "midi": 32,
          "name": "G#1",
          "ticks": 117696,
          "time": 96.7893285,
          "velocity": 0.07874015748031496
        },
        {
          "duration": 0.0789472499999988,
          "durationTicks": 96,
          "midi": 38,
          "name": "D2",
          "ticks": 117696,
          "time": 96.7893285,
          "velocity": 0.03937007874015748
        },
        {
          "duration": 0.0789472499999988,
          "durationTicks": 96,
          "midi": 42,
          "name": "F#2",
          "ticks": 117696,
          "time": 96.7893285,
          "velocity": 0.07874015748031496
        },
        {
          "duration": 0.0789472499999988,
          "durationTicks": 96,
          "midi": 40,
          "name": "E2",
          "ticks": 117696,
          "time": 96.7893285,
          "velocity": 0.03937007874015748
        },
        {
          "duration": 0.0789472499999988,
          "durationTicks": 96,
          "midi": 40,
          "name": "E2",
          "ticks": 117888,
          "time": 96.947223,
          "velocity": 0.03937007874015748
        },
        {
          "duration": 0.2368417499999964,
          "durationTicks": 288,
          "midi": 40,
          "name": "E2",
          "ticks": 117888,
          "time": 96.947223,
          "velocity": 0.07874015748031496
        },
        {
          "duration": 0.2368417499999964,
          "durationTicks": 288,
          "midi": 32,
          "name": "G#1",
          "ticks": 117888,
          "time": 96.947223,
          "velocity": 0.07874015748031496
        },
        {
          "duration": 0.0789472499999988,
          "durationTicks": 96,
          "midi": 42,
          "name": "F#2",
          "ticks": 117888,
          "time": 96.947223,
          "velocity": 0.07874015748031496
        },
        {
          "duration": 0.3157889999999952,
          "durationTicks": 384,
          "midi": 44,
          "name": "G#2",
          "ticks": 117888,
          "time": 96.947223,
          "velocity": 0.07874015748031496
        },
        {
          "duration": 0.3157889999999952,
          "durationTicks": 384,
          "midi": 28,
          "name": "E1",
          "ticks": 117888,
          "time": 96.947223,
          "velocity": 0.07874015748031496
        },
        {
          "duration": 0.0789472499999988,
          "durationTicks": 96,
          "midi": 38,
          "name": "D2",
          "ticks": 117888,
          "time": 96.947223,
          "velocity": 0.03937007874015748
        },
        {
          "duration": 0.1578944999999976,
          "durationTicks": 192,
          "midi": 40,
          "name": "E2",
          "ticks": 118080,
          "time": 97.10511749999999,
          "velocity": 0.03937007874015748
        },
        {
          "duration": 0.0789472499999988,
          "durationTicks": 96,
          "midi": 38,
          "name": "D2",
          "ticks": 118080,
          "time": 97.10511749999999,
          "velocity": 0.03937007874015748
        },
        {
          "duration": 0.0789472499999988,
          "durationTicks": 96,
          "midi": 42,
          "name": "F#2",
          "ticks": 118080,
          "time": 97.10511749999999,
          "velocity": 0.07874015748031496
        },
        {
          "duration": 0.1578944999999976,
          "durationTicks": 192,
          "midi": 32,
          "name": "G#1",
          "ticks": 118080,
          "time": 97.10511749999999,
          "velocity": 0.07874015748031496
        },
        {
          "duration": 0.0789472499999988,
          "durationTicks": 96,
          "midi": 32,
          "name": "G#1",
          "ticks": 118176,
          "time": 97.18406474999999,
          "velocity": 0.07874015748031496
        },
        {
          "duration": 0.0789472499999988,
          "durationTicks": 96,
          "midi": 42,
          "name": "F#2",
          "ticks": 118176,
          "time": 97.18406474999999,
          "velocity": 0.07874015748031496
        },
        {
          "duration": 0.07894725000001301,
          "durationTicks": 96,
          "midi": 42,
          "name": "F#2",
          "ticks": 118272,
          "time": 97.26301199999999,
          "velocity": 0.07874015748031496
        },
        {
          "duration": 0.07894725000001301,
          "durationTicks": 96,
          "midi": 35,
          "name": "B1",
          "ticks": 118272,
          "time": 97.26301199999999,
          "velocity": 0.03937007874015748
        },
        {
          "duration": 0.07894725000001301,
          "durationTicks": 96,
          "midi": 32,
          "name": "G#1",
          "ticks": 118272,
          "time": 97.26301199999999,
          "velocity": 0.07874015748031496
        },
        {
          "duration": 0.0789472499999988,
          "durationTicks": 96,
          "midi": 42,
          "name": "F#2",
          "ticks": 118464,
          "time": 97.4209065,
          "velocity": 0.07874015748031496
        },
        {
          "duration": 0.0789472499999988,
          "durationTicks": 96,
          "midi": 32,
          "name": "G#1",
          "ticks": 118464,
          "time": 97.4209065,
          "velocity": 0.07874015748031496
        },
        {
          "duration": 0.0789472499999988,
          "durationTicks": 96,
          "midi": 38,
          "name": "D2",
          "ticks": 118656,
          "time": 97.578801,
          "velocity": 0.03937007874015748
        },
        {
          "duration": 0.0789472499999988,
          "durationTicks": 96,
          "midi": 28,
          "name": "E1",
          "ticks": 118656,
          "time": 97.578801,
          "velocity": 0.07874015748031496
        },
        {
          "duration": 0.0789472499999988,
          "durationTicks": 96,
          "midi": 32,
          "name": "G#1",
          "ticks": 118656,
          "time": 97.578801,
          "velocity": 0.07874015748031496
        },
        {
          "duration": 0.0789472499999988,
          "durationTicks": 96,
          "midi": 40,
          "name": "E2",
          "ticks": 118656,
          "time": 97.578801,
          "velocity": 0.07874015748031496
        },
        {
          "duration": 0.0789472499999988,
          "durationTicks": 96,
          "midi": 44,
          "name": "G#2",
          "ticks": 118656,
          "time": 97.578801,
          "velocity": 0.07874015748031496
        },
        {
          "duration": 0.0789472499999988,
          "durationTicks": 96,
          "midi": 42,
          "name": "F#2",
          "ticks": 118656,
          "time": 97.578801,
          "velocity": 0.07874015748031496
        },
        {
          "duration": 0.0789472499999988,
          "durationTicks": 96,
          "midi": 40,
          "name": "E2",
          "ticks": 118656,
          "time": 97.578801,
          "velocity": 0.03937007874015748
        },
        {
          "duration": 0.0789472499999988,
          "durationTicks": 96,
          "midi": 40,
          "name": "E2",
          "ticks": 118848,
          "time": 97.7366955,
          "velocity": 0.03937007874015748
        },
        {
          "duration": 0.0789472499999988,
          "durationTicks": 96,
          "midi": 40,
          "name": "E2",
          "ticks": 118848,
          "time": 97.7366955,
          "velocity": 0.07874015748031496
        },
        {
          "duration": 0.0789472499999988,
          "durationTicks": 96,
          "midi": 32,
          "name": "G#1",
          "ticks": 118848,
          "time": 97.7366955,
          "velocity": 0.07874015748031496
        },
        {
          "duration": 0.0789472499999988,
          "durationTicks": 96,
          "midi": 42,
          "name": "F#2",
          "ticks": 118848,
          "time": 97.7366955,
          "velocity": 0.07874015748031496
        },
        {
          "duration": 0.0789472499999988,
          "durationTicks": 96,
          "midi": 44,
          "name": "G#2",
          "ticks": 118848,
          "time": 97.7366955,
          "velocity": 0.07874015748031496
        },
        {
          "duration": 0.0789472499999988,
          "durationTicks": 96,
          "midi": 28,
          "name": "E1",
          "ticks": 118848,
          "time": 97.7366955,
          "velocity": 0.07874015748031496
        },
        {
          "duration": 0.0789472499999988,
          "durationTicks": 96,
          "midi": 38,
          "name": "D2",
          "ticks": 118848,
          "time": 97.7366955,
          "velocity": 0.03937007874015748
        },
        {
          "duration": 0.0789472499999988,
          "durationTicks": 96,
          "midi": 42,
          "name": "F#2",
          "ticks": 119040,
          "time": 97.89459,
          "velocity": 0.07874015748031496
        },
        {
          "duration": 0.0789472499999988,
          "durationTicks": 96,
          "midi": 32,
          "name": "G#1",
          "ticks": 119040,
          "time": 97.89459,
          "velocity": 0.07874015748031496
        },
        {
          "duration": 0.0789472499999988,
          "durationTicks": 96,
          "midi": 40,
          "name": "E2",
          "ticks": 119232,
          "time": 98.05248449999999,
          "velocity": 0.03937007874015748
        },
        {
          "duration": 0.0789472499999988,
          "durationTicks": 96,
          "midi": 38,
          "name": "D2",
          "ticks": 119232,
          "time": 98.05248449999999,
          "velocity": 0.03937007874015748
        },
        {
          "duration": 0.0789472499999988,
          "durationTicks": 96,
          "midi": 42,
          "name": "F#2",
          "ticks": 119232,
          "time": 98.05248449999999,
          "velocity": 0.07874015748031496
        },
        {
          "duration": 0.0789472499999988,
          "durationTicks": 96,
          "midi": 32,
          "name": "G#1",
          "ticks": 119232,
          "time": 98.05248449999999,
          "velocity": 0.07874015748031496
        },
        {
          "duration": 0.07894725000001301,
          "durationTicks": 96,
          "midi": 40,
          "name": "E2",
          "ticks": 119424,
          "time": 98.21037899999999,
          "velocity": 0.03937007874015748
        },
        {
          "duration": 0.07894725000001301,
          "durationTicks": 96,
          "midi": 42,
          "name": "F#2",
          "ticks": 119424,
          "time": 98.21037899999999,
          "velocity": 0.07874015748031496
        },
        {
          "duration": 0.3157890000000094,
          "durationTicks": 384,
          "midi": 28,
          "name": "E1",
          "ticks": 119424,
          "time": 98.21037899999999,
          "velocity": 0.07874015748031496
        },
        {
          "duration": 0.3157890000000094,
          "durationTicks": 384,
          "midi": 44,
          "name": "G#2",
          "ticks": 119424,
          "time": 98.21037899999999,
          "velocity": 0.07874015748031496
        },
        {
          "duration": 0.07894725000001301,
          "durationTicks": 96,
          "midi": 38,
          "name": "D2",
          "ticks": 119424,
          "time": 98.21037899999999,
          "velocity": 0.03937007874015748
        },
        {
          "duration": 0.23684175000001062,
          "durationTicks": 288,
          "midi": 32,
          "name": "G#1",
          "ticks": 119424,
          "time": 98.21037899999999,
          "velocity": 0.07874015748031496
        },
        {
          "duration": 0.23684175000001062,
          "durationTicks": 288,
          "midi": 40,
          "name": "E2",
          "ticks": 119424,
          "time": 98.21037899999999,
          "velocity": 0.07874015748031496
        },
        {
          "duration": 0.0789472499999988,
          "durationTicks": 96,
          "midi": 38,
          "name": "D2",
          "ticks": 119616,
          "time": 98.3682735,
          "velocity": 0.03937007874015748
        },
        {
          "duration": 0.1578944999999976,
          "durationTicks": 192,
          "midi": 40,
          "name": "E2",
          "ticks": 119616,
          "time": 98.3682735,
          "velocity": 0.03937007874015748
        },
        {
          "duration": 0.1578944999999976,
          "durationTicks": 192,
          "midi": 32,
          "name": "G#1",
          "ticks": 119616,
          "time": 98.3682735,
          "velocity": 0.07874015748031496
        },
        {
          "duration": 0.0789472499999988,
          "durationTicks": 96,
          "midi": 42,
          "name": "F#2",
          "ticks": 119616,
          "time": 98.3682735,
          "velocity": 0.07874015748031496
        },
        {
          "duration": 0.0789472499999988,
          "durationTicks": 96,
          "midi": 32,
          "name": "G#1",
          "ticks": 119712,
          "time": 98.44722075,
          "velocity": 0.07874015748031496
        },
        {
          "duration": 0.0789472499999988,
          "durationTicks": 96,
          "midi": 42,
          "name": "F#2",
          "ticks": 119712,
          "time": 98.44722075,
          "velocity": 0.07874015748031496
        },
        {
          "duration": 0.0789472499999988,
          "durationTicks": 96,
          "midi": 35,
          "name": "B1",
          "ticks": 119808,
          "time": 98.526168,
          "velocity": 0.03937007874015748
        },
        {
          "duration": 0.0789472499999988,
          "durationTicks": 96,
          "midi": 42,
          "name": "F#2",
          "ticks": 119808,
          "time": 98.526168,
          "velocity": 0.07874015748031496
        },
        {
          "duration": 0.0789472499999988,
          "durationTicks": 96,
          "midi": 32,
          "name": "G#1",
          "ticks": 119808,
          "time": 98.526168,
          "velocity": 0.07874015748031496
        },
        {
          "duration": 0.0789472499999988,
          "durationTicks": 96,
          "midi": 32,
          "name": "G#1",
          "ticks": 120000,
          "time": 98.6840625,
          "velocity": 0.07874015748031496
        },
        {
          "duration": 0.0789472499999988,
          "durationTicks": 96,
          "midi": 42,
          "name": "F#2",
          "ticks": 120000,
          "time": 98.6840625,
          "velocity": 0.07874015748031496
        },
        {
          "duration": 0.0789472499999988,
          "durationTicks": 96,
          "midi": 32,
          "name": "G#1",
          "ticks": 120192,
          "time": 98.841957,
          "velocity": 0.07874015748031496
        },
        {
          "duration": 0.0789472499999988,
          "durationTicks": 96,
          "midi": 44,
          "name": "G#2",
          "ticks": 120192,
          "time": 98.841957,
          "velocity": 0.07874015748031496
        },
        {
          "duration": 0.0789472499999988,
          "durationTicks": 96,
          "midi": 28,
          "name": "E1",
          "ticks": 120192,
          "time": 98.841957,
          "velocity": 0.07874015748031496
        },
        {
          "duration": 0.0789472499999988,
          "durationTicks": 96,
          "midi": 42,
          "name": "F#2",
          "ticks": 120192,
          "time": 98.841957,
          "velocity": 0.07874015748031496
        },
        {
          "duration": 0.0789472499999988,
          "durationTicks": 96,
          "midi": 40,
          "name": "E2",
          "ticks": 120192,
          "time": 98.841957,
          "velocity": 0.03937007874015748
        },
        {
          "duration": 0.0789472499999988,
          "durationTicks": 96,
          "midi": 38,
          "name": "D2",
          "ticks": 120192,
          "time": 98.841957,
          "velocity": 0.03937007874015748
        },
        {
          "duration": 0.0789472499999988,
          "durationTicks": 96,
          "midi": 40,
          "name": "E2",
          "ticks": 120192,
          "time": 98.841957,
          "velocity": 0.07874015748031496
        },
        {
          "duration": 0.0789472499999988,
          "durationTicks": 96,
          "midi": 38,
          "name": "D2",
          "ticks": 120384,
          "time": 98.99985149999999,
          "velocity": 0.03937007874015748
        },
        {
          "duration": 0.0789472499999988,
          "durationTicks": 96,
          "midi": 40,
          "name": "E2",
          "ticks": 120384,
          "time": 98.99985149999999,
          "velocity": 0.03937007874015748
        },
        {
          "duration": 0.0789472499999988,
          "durationTicks": 96,
          "midi": 44,
          "name": "G#2",
          "ticks": 120384,
          "time": 98.99985149999999,
          "velocity": 0.07874015748031496
        },
        {
          "duration": 0.0789472499999988,
          "durationTicks": 96,
          "midi": 32,
          "name": "G#1",
          "ticks": 120384,
          "time": 98.99985149999999,
          "velocity": 0.07874015748031496
        },
        {
          "duration": 0.0789472499999988,
          "durationTicks": 96,
          "midi": 42,
          "name": "F#2",
          "ticks": 120384,
          "time": 98.99985149999999,
          "velocity": 0.07874015748031496
        },
        {
          "duration": 0.0789472499999988,
          "durationTicks": 96,
          "midi": 40,
          "name": "E2",
          "ticks": 120384,
          "time": 98.99985149999999,
          "velocity": 0.07874015748031496
        },
        {
          "duration": 0.0789472499999988,
          "durationTicks": 96,
          "midi": 28,
          "name": "E1",
          "ticks": 120384,
          "time": 98.99985149999999,
          "velocity": 0.07874015748031496
        },
        {
          "duration": 0.07894725000001301,
          "durationTicks": 96,
          "midi": 32,
          "name": "G#1",
          "ticks": 120576,
          "time": 99.15774599999999,
          "velocity": 0.07874015748031496
        },
        {
          "duration": 0.07894725000001301,
          "durationTicks": 96,
          "midi": 42,
          "name": "F#2",
          "ticks": 120576,
          "time": 99.15774599999999,
          "velocity": 0.07874015748031496
        },
        {
          "duration": 0.0789472499999988,
          "durationTicks": 96,
          "midi": 42,
          "name": "F#2",
          "ticks": 120768,
          "time": 99.3156405,
          "velocity": 0.07874015748031496
        },
        {
          "duration": 0.0789472499999988,
          "durationTicks": 96,
          "midi": 40,
          "name": "E2",
          "ticks": 120768,
          "time": 99.3156405,
          "velocity": 0.03937007874015748
        },
        {
          "duration": 0.0789472499999988,
          "durationTicks": 96,
          "midi": 32,
          "name": "G#1",
          "ticks": 120768,
          "time": 99.3156405,
          "velocity": 0.07874015748031496
        },
        {
          "duration": 0.0789472499999988,
          "durationTicks": 96,
          "midi": 38,
          "name": "D2",
          "ticks": 120768,
          "time": 99.3156405,
          "velocity": 0.03937007874015748
        },
        {
          "duration": 0.0789472499999988,
          "durationTicks": 96,
          "midi": 42,
          "name": "F#2",
          "ticks": 120960,
          "time": 99.473535,
          "velocity": 0.07874015748031496
        },
        {
          "duration": 0.3157889999999952,
          "durationTicks": 384,
          "midi": 44,
          "name": "G#2",
          "ticks": 120960,
          "time": 99.473535,
          "velocity": 0.07874015748031496
        },
        {
          "duration": 0.0789472499999988,
          "durationTicks": 96,
          "midi": 40,
          "name": "E2",
          "ticks": 120960,
          "time": 99.473535,
          "velocity": 0.07874015748031496
        },
        {
          "duration": 0.2368417499999964,
          "durationTicks": 288,
          "midi": 32,
          "name": "G#1",
          "ticks": 120960,
          "time": 99.473535,
          "velocity": 0.07874015748031496
        },
        {
          "duration": 0.2368417499999964,
          "durationTicks": 288,
          "midi": 40,
          "name": "E2",
          "ticks": 120960,
          "time": 99.473535,
          "velocity": 0.03937007874015748
        },
        {
          "duration": 0.0789472499999988,
          "durationTicks": 96,
          "midi": 38,
          "name": "D2",
          "ticks": 120960,
          "time": 99.473535,
          "velocity": 0.03937007874015748
        },
        {
          "duration": 0.3157889999999952,
          "durationTicks": 384,
          "midi": 28,
          "name": "E1",
          "ticks": 120960,
          "time": 99.473535,
          "velocity": 0.07874015748031496
        },
        {
          "duration": 0.0789472499999988,
          "durationTicks": 96,
          "midi": 38,
          "name": "D2",
          "ticks": 121152,
          "time": 99.6314295,
          "velocity": 0.03937007874015748
        },
        {
          "duration": 0.0789472499999988,
          "durationTicks": 96,
          "midi": 42,
          "name": "F#2",
          "ticks": 121152,
          "time": 99.6314295,
          "velocity": 0.07874015748031496
        },
        {
          "duration": 0.1578944999999976,
          "durationTicks": 192,
          "midi": 40,
          "name": "E2",
          "ticks": 121152,
          "time": 99.6314295,
          "velocity": 0.03937007874015748
        },
        {
          "duration": 0.1578944999999976,
          "durationTicks": 192,
          "midi": 32,
          "name": "G#1",
          "ticks": 121152,
          "time": 99.6314295,
          "velocity": 0.07874015748031496
        },
        {
          "duration": 0.0789472499999988,
          "durationTicks": 96,
          "midi": 42,
          "name": "F#2",
          "ticks": 121248,
          "time": 99.71037675,
          "velocity": 0.07874015748031496
        },
        {
          "duration": 0.0789472499999988,
          "durationTicks": 96,
          "midi": 32,
          "name": "G#1",
          "ticks": 121248,
          "time": 99.71037675,
          "velocity": 0.07874015748031496
        },
        {
          "duration": 0.0789472499999988,
          "durationTicks": 96,
          "midi": 42,
          "name": "F#2",
          "ticks": 121344,
          "time": 99.789324,
          "velocity": 0.07874015748031496
        },
        {
          "duration": 0.0789472499999988,
          "durationTicks": 96,
          "midi": 32,
          "name": "G#1",
          "ticks": 121344,
          "time": 99.789324,
          "velocity": 0.07874015748031496
        },
        {
          "duration": 0.0789472499999988,
          "durationTicks": 96,
          "midi": 35,
          "name": "B1",
          "ticks": 121344,
          "time": 99.789324,
          "velocity": 0.03937007874015748
        },
        {
          "duration": 0.0789472499999988,
          "durationTicks": 96,
          "midi": 42,
          "name": "F#2",
          "ticks": 121536,
          "time": 99.94721849999999,
          "velocity": 0.07874015748031496
        },
        {
          "duration": 0.0789472499999988,
          "durationTicks": 96,
          "midi": 32,
          "name": "G#1",
          "ticks": 121536,
          "time": 99.94721849999999,
          "velocity": 0.07874015748031496
        },
        {
          "duration": 0.07894725000001301,
          "durationTicks": 96,
          "midi": 32,
          "name": "G#1",
          "ticks": 121728,
          "time": 100.10511299999999,
          "velocity": 0.07874015748031496
        },
        {
          "duration": 0.07894725000001301,
          "durationTicks": 96,
          "midi": 40,
          "name": "E2",
          "ticks": 121728,
          "time": 100.10511299999999,
          "velocity": 0.07874015748031496
        },
        {
          "duration": 0.07894725000001301,
          "durationTicks": 96,
          "midi": 28,
          "name": "E1",
          "ticks": 121728,
          "time": 100.10511299999999,
          "velocity": 0.07874015748031496
        },
        {
          "duration": 0.07894725000001301,
          "durationTicks": 96,
          "midi": 40,
          "name": "E2",
          "ticks": 121728,
          "time": 100.10511299999999,
          "velocity": 0.03937007874015748
        },
        {
          "duration": 0.07894725000001301,
          "durationTicks": 96,
          "midi": 38,
          "name": "D2",
          "ticks": 121728,
          "time": 100.10511299999999,
          "velocity": 0.03937007874015748
        },
        {
          "duration": 0.07894725000001301,
          "durationTicks": 96,
          "midi": 42,
          "name": "F#2",
          "ticks": 121728,
          "time": 100.10511299999999,
          "velocity": 0.07874015748031496
        },
        {
          "duration": 0.07894725000001301,
          "durationTicks": 96,
          "midi": 44,
          "name": "G#2",
          "ticks": 121728,
          "time": 100.10511299999999,
          "velocity": 0.07874015748031496
        },
        {
          "duration": 0.0789472499999988,
          "durationTicks": 96,
          "midi": 28,
          "name": "E1",
          "ticks": 121920,
          "time": 100.2630075,
          "velocity": 0.07874015748031496
        },
        {
          "duration": 0.0789472499999988,
          "durationTicks": 96,
          "midi": 40,
          "name": "E2",
          "ticks": 121920,
          "time": 100.2630075,
          "velocity": 0.07874015748031496
        },
        {
          "duration": 0.0789472499999988,
          "durationTicks": 96,
          "midi": 38,
          "name": "D2",
          "ticks": 121920,
          "time": 100.2630075,
          "velocity": 0.03937007874015748
        },
        {
          "duration": 0.0789472499999988,
          "durationTicks": 96,
          "midi": 44,
          "name": "G#2",
          "ticks": 121920,
          "time": 100.2630075,
          "velocity": 0.07874015748031496
        },
        {
          "duration": 0.0789472499999988,
          "durationTicks": 96,
          "midi": 32,
          "name": "G#1",
          "ticks": 121920,
          "time": 100.2630075,
          "velocity": 0.07874015748031496
        },
        {
          "duration": 0.0789472499999988,
          "durationTicks": 96,
          "midi": 40,
          "name": "E2",
          "ticks": 121920,
          "time": 100.2630075,
          "velocity": 0.03937007874015748
        },
        {
          "duration": 0.0789472499999988,
          "durationTicks": 96,
          "midi": 42,
          "name": "F#2",
          "ticks": 121920,
          "time": 100.2630075,
          "velocity": 0.07874015748031496
        },
        {
          "duration": 0.0789472499999988,
          "durationTicks": 96,
          "midi": 32,
          "name": "G#1",
          "ticks": 122112,
          "time": 100.420902,
          "velocity": 0.07874015748031496
        },
        {
          "duration": 0.0789472499999988,
          "durationTicks": 96,
          "midi": 42,
          "name": "F#2",
          "ticks": 122112,
          "time": 100.420902,
          "velocity": 0.07874015748031496
        },
        {
          "duration": 0.0789472499999988,
          "durationTicks": 96,
          "midi": 38,
          "name": "D2",
          "ticks": 122304,
          "time": 100.5787965,
          "velocity": 0.03937007874015748
        },
        {
          "duration": 0.0789472499999988,
          "durationTicks": 96,
          "midi": 40,
          "name": "E2",
          "ticks": 122304,
          "time": 100.5787965,
          "velocity": 0.03937007874015748
        },
        {
          "duration": 0.0789472499999988,
          "durationTicks": 96,
          "midi": 42,
          "name": "F#2",
          "ticks": 122304,
          "time": 100.5787965,
          "velocity": 0.07874015748031496
        },
        {
          "duration": 0.0789472499999988,
          "durationTicks": 96,
          "midi": 32,
          "name": "G#1",
          "ticks": 122304,
          "time": 100.5787965,
          "velocity": 0.07874015748031496
        },
        {
          "duration": 0.0789472499999988,
          "durationTicks": 96,
          "midi": 42,
          "name": "F#2",
          "ticks": 122496,
          "time": 100.736691,
          "velocity": 0.07874015748031496
        },
        {
          "duration": 0.0789472499999988,
          "durationTicks": 96,
          "midi": 38,
          "name": "D2",
          "ticks": 122496,
          "time": 100.736691,
          "velocity": 0.03937007874015748
        },
        {
          "duration": 0.3157890000000094,
          "durationTicks": 384,
          "midi": 44,
          "name": "G#2",
          "ticks": 122496,
          "time": 100.736691,
          "velocity": 0.07874015748031496
        },
        {
          "duration": 0.3157890000000094,
          "durationTicks": 384,
          "midi": 28,
          "name": "E1",
          "ticks": 122496,
          "time": 100.736691,
          "velocity": 0.07874015748031496
        },
        {
          "duration": 0.2368417499999964,
          "durationTicks": 288,
          "midi": 32,
          "name": "G#1",
          "ticks": 122496,
          "time": 100.736691,
          "velocity": 0.07874015748031496
        },
        {
          "duration": 0.0789472499999988,
          "durationTicks": 96,
          "midi": 40,
          "name": "E2",
          "ticks": 122496,
          "time": 100.736691,
          "velocity": 0.07874015748031496
        },
        {
          "duration": 0.2368417499999964,
          "durationTicks": 288,
          "midi": 40,
          "name": "E2",
          "ticks": 122496,
          "time": 100.736691,
          "velocity": 0.03937007874015748
        },
        {
          "duration": 0.0789472499999988,
          "durationTicks": 96,
          "midi": 38,
          "name": "D2",
          "ticks": 122688,
          "time": 100.89458549999999,
          "velocity": 0.03937007874015748
        },
        {
          "duration": 0.0789472499999988,
          "durationTicks": 96,
          "midi": 42,
          "name": "F#2",
          "ticks": 122688,
          "time": 100.89458549999999,
          "velocity": 0.07874015748031496
        },
        {
          "duration": 0.15789450000001182,
          "durationTicks": 192,
          "midi": 32,
          "name": "G#1",
          "ticks": 122688,
          "time": 100.89458549999999,
          "velocity": 0.07874015748031496
        },
        {
          "duration": 0.15789450000001182,
          "durationTicks": 192,
          "midi": 40,
          "name": "E2",
          "ticks": 122688,
          "time": 100.89458549999999,
          "velocity": 0.03937007874015748
        },
        {
          "duration": 0.07894725000001301,
          "durationTicks": 96,
          "midi": 32,
          "name": "G#1",
          "ticks": 122784,
          "time": 100.97353274999999,
          "velocity": 0.07874015748031496
        },
        {
          "duration": 0.07894725000001301,
          "durationTicks": 96,
          "midi": 42,
          "name": "F#2",
          "ticks": 122784,
          "time": 100.97353274999999,
          "velocity": 0.07874015748031496
        },
        {
          "duration": 0.0789472499999988,
          "durationTicks": 96,
          "midi": 35,
          "name": "B1",
          "ticks": 122880,
          "time": 101.05248,
          "velocity": 0.03937007874015748
        },
        {
          "duration": 0.0789472499999988,
          "durationTicks": 96,
          "midi": 32,
          "name": "G#1",
          "ticks": 122880,
          "time": 101.05248,
          "velocity": 0.07874015748031496
        },
        {
          "duration": 0.0789472499999988,
          "durationTicks": 96,
          "midi": 42,
          "name": "F#2",
          "ticks": 122880,
          "time": 101.05248,
          "velocity": 0.07874015748031496
        },
        {
          "duration": 0.0789472499999988,
          "durationTicks": 96,
          "midi": 42,
          "name": "F#2",
          "ticks": 123072,
          "time": 101.2103745,
          "velocity": 0.07874015748031496
        },
        {
          "duration": 0.0789472499999988,
          "durationTicks": 96,
          "midi": 32,
          "name": "G#1",
          "ticks": 123072,
          "time": 101.2103745,
          "velocity": 0.07874015748031496
        },
        {
          "duration": 0.0789472499999988,
          "durationTicks": 96,
          "midi": 28,
          "name": "E1",
          "ticks": 123264,
          "time": 101.368269,
          "velocity": 0.07874015748031496
        },
        {
          "duration": 0.0789472499999988,
          "durationTicks": 96,
          "midi": 32,
          "name": "G#1",
          "ticks": 123264,
          "time": 101.368269,
          "velocity": 0.07874015748031496
        },
        {
          "duration": 0.0789472499999988,
          "durationTicks": 96,
          "midi": 40,
          "name": "E2",
          "ticks": 123264,
          "time": 101.368269,
          "velocity": 0.07874015748031496
        },
        {
          "duration": 0.0789472499999988,
          "durationTicks": 96,
          "midi": 38,
          "name": "D2",
          "ticks": 123264,
          "time": 101.368269,
          "velocity": 0.03937007874015748
        },
        {
          "duration": 0.0789472499999988,
          "durationTicks": 96,
          "midi": 42,
          "name": "F#2",
          "ticks": 123264,
          "time": 101.368269,
          "velocity": 0.07874015748031496
        },
        {
          "duration": 0.0789472499999988,
          "durationTicks": 96,
          "midi": 40,
          "name": "E2",
          "ticks": 123264,
          "time": 101.368269,
          "velocity": 0.03937007874015748
        },
        {
          "duration": 0.0789472499999988,
          "durationTicks": 96,
          "midi": 44,
          "name": "G#2",
          "ticks": 123264,
          "time": 101.368269,
          "velocity": 0.07874015748031496
        },
        {
          "duration": 0.0789472499999988,
          "durationTicks": 96,
          "midi": 42,
          "name": "F#2",
          "ticks": 123456,
          "time": 101.5261635,
          "velocity": 0.07874015748031496
        },
        {
          "duration": 0.0789472499999988,
          "durationTicks": 96,
          "midi": 44,
          "name": "G#2",
          "ticks": 123456,
          "time": 101.5261635,
          "velocity": 0.07874015748031496
        },
        {
          "duration": 0.0789472499999988,
          "durationTicks": 96,
          "midi": 38,
          "name": "D2",
          "ticks": 123456,
          "time": 101.5261635,
          "velocity": 0.03937007874015748
        },
        {
          "duration": 0.0789472499999988,
          "durationTicks": 96,
          "midi": 32,
          "name": "G#1",
          "ticks": 123456,
          "time": 101.5261635,
          "velocity": 0.07874015748031496
        },
        {
          "duration": 0.0789472499999988,
          "durationTicks": 96,
          "midi": 28,
          "name": "E1",
          "ticks": 123456,
          "time": 101.5261635,
          "velocity": 0.07874015748031496
        },
        {
          "duration": 0.0789472499999988,
          "durationTicks": 96,
          "midi": 40,
          "name": "E2",
          "ticks": 123456,
          "time": 101.5261635,
          "velocity": 0.07874015748031496
        },
        {
          "duration": 0.0789472499999988,
          "durationTicks": 96,
          "midi": 40,
          "name": "E2",
          "ticks": 123456,
          "time": 101.5261635,
          "velocity": 0.03937007874015748
        },
        {
          "duration": 0.0789472499999988,
          "durationTicks": 96,
          "midi": 32,
          "name": "G#1",
          "ticks": 123648,
          "time": 101.684058,
          "velocity": 0.07874015748031496
        },
        {
          "duration": 0.0789472499999988,
          "durationTicks": 96,
          "midi": 42,
          "name": "F#2",
          "ticks": 123648,
          "time": 101.684058,
          "velocity": 0.07874015748031496
        },
        {
          "duration": 0.0789472499999988,
          "durationTicks": 96,
          "midi": 32,
          "name": "G#1",
          "ticks": 123840,
          "time": 101.84195249999999,
          "velocity": 0.07874015748031496
        },
        {
          "duration": 0.0789472499999988,
          "durationTicks": 96,
          "midi": 38,
          "name": "D2",
          "ticks": 123840,
          "time": 101.84195249999999,
          "velocity": 0.03937007874015748
        },
        {
          "duration": 0.0789472499999988,
          "durationTicks": 96,
          "midi": 42,
          "name": "F#2",
          "ticks": 123840,
          "time": 101.84195249999999,
          "velocity": 0.07874015748031496
        },
        {
          "duration": 0.0789472499999988,
          "durationTicks": 96,
          "midi": 40,
          "name": "E2",
          "ticks": 123840,
          "time": 101.84195249999999,
          "velocity": 0.03937007874015748
        },
        {
          "duration": 0.0789472499999988,
          "durationTicks": 96,
          "midi": 40,
          "name": "E2",
          "ticks": 124032,
          "time": 101.999847,
          "velocity": 0.03937007874015748
        },
        {
          "duration": 0.0789472499999988,
          "durationTicks": 96,
          "midi": 42,
          "name": "F#2",
          "ticks": 124032,
          "time": 101.999847,
          "velocity": 0.07874015748031496
        },
        {
          "duration": 0.3157889999999952,
          "durationTicks": 384,
          "midi": 44,
          "name": "G#2",
          "ticks": 124032,
          "time": 101.999847,
          "velocity": 0.07874015748031496
        },
        {
          "duration": 0.0789472499999988,
          "durationTicks": 96,
          "midi": 38,
          "name": "D2",
          "ticks": 124032,
          "time": 101.999847,
          "velocity": 0.03937007874015748
        },
        {
          "duration": 0.3157889999999952,
          "durationTicks": 384,
          "midi": 28,
          "name": "E1",
          "ticks": 124032,
          "time": 101.999847,
          "velocity": 0.07874015748031496
        },
        {
          "duration": 0.2368417499999964,
          "durationTicks": 288,
          "midi": 40,
          "name": "E2",
          "ticks": 124032,
          "time": 101.999847,
          "velocity": 0.07874015748031496
        },
        {
          "duration": 0.2368417499999964,
          "durationTicks": 288,
          "midi": 32,
          "name": "G#1",
          "ticks": 124032,
          "time": 101.999847,
          "velocity": 0.07874015748031496
        },
        {
          "duration": 0.0789472499999988,
          "durationTicks": 96,
          "midi": 42,
          "name": "F#2",
          "ticks": 124224,
          "time": 102.1577415,
          "velocity": 0.07874015748031496
        },
        {
          "duration": 0.1578944999999976,
          "durationTicks": 192,
          "midi": 40,
          "name": "E2",
          "ticks": 124224,
          "time": 102.1577415,
          "velocity": 0.03937007874015748
        },
        {
          "duration": 0.0789472499999988,
          "durationTicks": 96,
          "midi": 38,
          "name": "D2",
          "ticks": 124224,
          "time": 102.1577415,
          "velocity": 0.03937007874015748
        },
        {
          "duration": 0.1578944999999976,
          "durationTicks": 192,
          "midi": 32,
          "name": "G#1",
          "ticks": 124224,
          "time": 102.1577415,
          "velocity": 0.07874015748031496
        },
        {
          "duration": 0.0789472499999988,
          "durationTicks": 96,
          "midi": 32,
          "name": "G#1",
          "ticks": 124320,
          "time": 102.23668875,
          "velocity": 0.07874015748031496
        },
        {
          "duration": 0.0789472499999988,
          "durationTicks": 96,
          "midi": 42,
          "name": "F#2",
          "ticks": 124320,
          "time": 102.23668875,
          "velocity": 0.07874015748031496
        },
        {
          "duration": 0.0789472499999988,
          "durationTicks": 96,
          "midi": 42,
          "name": "F#2",
          "ticks": 124416,
          "time": 102.315636,
          "velocity": 0.07874015748031496
        },
        {
          "duration": 0.0789472499999988,
          "durationTicks": 96,
          "midi": 32,
          "name": "G#1",
          "ticks": 124416,
          "time": 102.315636,
          "velocity": 0.07874015748031496
        },
        {
          "duration": 0.0789472499999988,
          "durationTicks": 96,
          "midi": 35,
          "name": "B1",
          "ticks": 124416,
          "time": 102.315636,
          "velocity": 0.03937007874015748
        },
        {
          "duration": 0.0789472499999988,
          "durationTicks": 96,
          "midi": 32,
          "name": "G#1",
          "ticks": 124608,
          "time": 102.4735305,
          "velocity": 0.07874015748031496
        },
        {
          "duration": 0.0789472499999988,
          "durationTicks": 96,
          "midi": 42,
          "name": "F#2",
          "ticks": 124608,
          "time": 102.4735305,
          "velocity": 0.07874015748031496
        },
        {
          "duration": 0.0789472499999988,
          "durationTicks": 96,
          "midi": 40,
          "name": "E2",
          "ticks": 124800,
          "time": 102.631425,
          "velocity": 0.07874015748031496
        },
        {
          "duration": 0.0789472499999988,
          "durationTicks": 96,
          "midi": 32,
          "name": "G#1",
          "ticks": 124800,
          "time": 102.631425,
          "velocity": 0.07874015748031496
        },
        {
          "duration": 0.0789472499999988,
          "durationTicks": 96,
          "midi": 44,
          "name": "G#2",
          "ticks": 124800,
          "time": 102.631425,
          "velocity": 0.07874015748031496
        },
        {
          "duration": 0.0789472499999988,
          "durationTicks": 96,
          "midi": 40,
          "name": "E2",
          "ticks": 124800,
          "time": 102.631425,
          "velocity": 0.03937007874015748
        },
        {
          "duration": 0.0789472499999988,
          "durationTicks": 96,
          "midi": 28,
          "name": "E1",
          "ticks": 124800,
          "time": 102.631425,
          "velocity": 0.07874015748031496
        },
        {
          "duration": 0.0789472499999988,
          "durationTicks": 96,
          "midi": 38,
          "name": "D2",
          "ticks": 124800,
          "time": 102.631425,
          "velocity": 0.03937007874015748
        },
        {
          "duration": 0.0789472499999988,
          "durationTicks": 96,
          "midi": 42,
          "name": "F#2",
          "ticks": 124800,
          "time": 102.631425,
          "velocity": 0.07874015748031496
        },
        {
          "duration": 0.0789472499999988,
          "durationTicks": 96,
          "midi": 38,
          "name": "D2",
          "ticks": 124992,
          "time": 102.78931949999999,
          "velocity": 0.03937007874015748
        },
        {
          "duration": 0.0789472499999988,
          "durationTicks": 96,
          "midi": 40,
          "name": "E2",
          "ticks": 124992,
          "time": 102.78931949999999,
          "velocity": 0.03937007874015748
        },
        {
          "duration": 0.0789472499999988,
          "durationTicks": 96,
          "midi": 44,
          "name": "G#2",
          "ticks": 124992,
          "time": 102.78931949999999,
          "velocity": 0.07874015748031496
        },
        {
          "duration": 0.0789472499999988,
          "durationTicks": 96,
          "midi": 32,
          "name": "G#1",
          "ticks": 124992,
          "time": 102.78931949999999,
          "velocity": 0.07874015748031496
        },
        {
          "duration": 0.0789472499999988,
          "durationTicks": 96,
          "midi": 28,
          "name": "E1",
          "ticks": 124992,
          "time": 102.78931949999999,
          "velocity": 0.07874015748031496
        },
        {
          "duration": 0.0789472499999988,
          "durationTicks": 96,
          "midi": 40,
          "name": "E2",
          "ticks": 124992,
          "time": 102.78931949999999,
          "velocity": 0.07874015748031496
        },
        {
          "duration": 0.0789472499999988,
          "durationTicks": 96,
          "midi": 42,
          "name": "F#2",
          "ticks": 124992,
          "time": 102.78931949999999,
          "velocity": 0.07874015748031496
        },
        {
          "duration": 0.0789472499999988,
          "durationTicks": 96,
          "midi": 32,
          "name": "G#1",
          "ticks": 125184,
          "time": 102.947214,
          "velocity": 0.07874015748031496
        },
        {
          "duration": 0.0789472499999988,
          "durationTicks": 96,
          "midi": 42,
          "name": "F#2",
          "ticks": 125184,
          "time": 102.947214,
          "velocity": 0.07874015748031496
        },
        {
          "duration": 0.0789472499999988,
          "durationTicks": 96,
          "midi": 32,
          "name": "G#1",
          "ticks": 125376,
          "time": 103.1051085,
          "velocity": 0.07874015748031496
        },
        {
          "duration": 0.0789472499999988,
          "durationTicks": 96,
          "midi": 40,
          "name": "E2",
          "ticks": 125376,
          "time": 103.1051085,
          "velocity": 0.03937007874015748
        },
        {
          "duration": 0.0789472499999988,
          "durationTicks": 96,
          "midi": 38,
          "name": "D2",
          "ticks": 125376,
          "time": 103.1051085,
          "velocity": 0.03937007874015748
        },
        {
          "duration": 0.0789472499999988,
          "durationTicks": 96,
          "midi": 42,
          "name": "F#2",
          "ticks": 125376,
          "time": 103.1051085,
          "velocity": 0.07874015748031496
        },
        {
          "duration": 0.0789472499999988,
          "durationTicks": 96,
          "midi": 42,
          "name": "F#2",
          "ticks": 125568,
          "time": 103.263003,
          "velocity": 0.07874015748031496
        },
        {
          "duration": 0.3157889999999952,
          "durationTicks": 384,
          "midi": 28,
          "name": "E1",
          "ticks": 125568,
          "time": 103.263003,
          "velocity": 0.07874015748031496
        },
        {
          "duration": 0.2368417499999964,
          "durationTicks": 288,
          "midi": 32,
          "name": "G#1",
          "ticks": 125568,
          "time": 103.263003,
          "velocity": 0.07874015748031496
        },
        {
          "duration": 0.3157889999999952,
          "durationTicks": 384,
          "midi": 44,
          "name": "G#2",
          "ticks": 125568,
          "time": 103.263003,
          "velocity": 0.07874015748031496
        },
        {
          "duration": 0.0789472499999988,
          "durationTicks": 96,
          "midi": 40,
          "name": "E2",
          "ticks": 125568,
          "time": 103.263003,
          "velocity": 0.03937007874015748
        },
        {
          "duration": 0.2368417499999964,
          "durationTicks": 288,
          "midi": 40,
          "name": "E2",
          "ticks": 125568,
          "time": 103.263003,
          "velocity": 0.07874015748031496
        },
        {
          "duration": 0.0789472499999988,
          "durationTicks": 96,
          "midi": 38,
          "name": "D2",
          "ticks": 125568,
          "time": 103.263003,
          "velocity": 0.03937007874015748
        },
        {
          "duration": 0.1578944999999976,
          "durationTicks": 192,
          "midi": 40,
          "name": "E2",
          "ticks": 125760,
          "time": 103.4208975,
          "velocity": 0.03937007874015748
        },
        {
          "duration": 0.1578944999999976,
          "durationTicks": 192,
          "midi": 32,
          "name": "G#1",
          "ticks": 125760,
          "time": 103.4208975,
          "velocity": 0.07874015748031496
        },
        {
          "duration": 0.0789472499999988,
          "durationTicks": 96,
          "midi": 38,
          "name": "D2",
          "ticks": 125760,
          "time": 103.4208975,
          "velocity": 0.03937007874015748
        },
        {
          "duration": 0.0789472499999988,
          "durationTicks": 96,
          "midi": 42,
          "name": "F#2",
          "ticks": 125760,
          "time": 103.4208975,
          "velocity": 0.07874015748031496
        },
        {
          "duration": 0.0789472499999988,
          "durationTicks": 96,
          "midi": 32,
          "name": "G#1",
          "ticks": 125856,
          "time": 103.49984475,
          "velocity": 0.07874015748031496
        },
        {
          "duration": 0.0789472499999988,
          "durationTicks": 96,
          "midi": 42,
          "name": "F#2",
          "ticks": 125856,
          "time": 103.49984475,
          "velocity": 0.07874015748031496
        },
        {
          "duration": 0.0789472499999988,
          "durationTicks": 96,
          "midi": 42,
          "name": "F#2",
          "ticks": 125952,
          "time": 103.57879199999999,
          "velocity": 0.07874015748031496
        },
        {
          "duration": 0.0789472499999988,
          "durationTicks": 96,
          "midi": 32,
          "name": "G#1",
          "ticks": 125952,
          "time": 103.57879199999999,
          "velocity": 0.07874015748031496
        },
        {
          "duration": 0.0789472499999988,
          "durationTicks": 96,
          "midi": 35,
          "name": "B1",
          "ticks": 125952,
          "time": 103.57879199999999,
          "velocity": 0.03937007874015748
        },
        {
          "duration": 0.0789472499999988,
          "durationTicks": 96,
          "midi": 32,
          "name": "G#1",
          "ticks": 126144,
          "time": 103.73668649999999,
          "velocity": 0.07874015748031496
        },
        {
          "duration": 0.0789472499999988,
          "durationTicks": 96,
          "midi": 42,
          "name": "F#2",
          "ticks": 126144,
          "time": 103.73668649999999,
          "velocity": 0.07874015748031496
        },
        {
          "duration": 0.0789472499999988,
          "durationTicks": 96,
          "midi": 32,
          "name": "G#1",
          "ticks": 126336,
          "time": 103.894581,
          "velocity": 0.07874015748031496
        },
        {
          "duration": 0.0789472499999988,
          "durationTicks": 96,
          "midi": 40,
          "name": "E2",
          "ticks": 126336,
          "time": 103.894581,
          "velocity": 0.07874015748031496
        },
        {
          "duration": 0.0789472499999988,
          "durationTicks": 96,
          "midi": 42,
          "name": "F#2",
          "ticks": 126336,
          "time": 103.894581,
          "velocity": 0.07874015748031496
        },
        {
          "duration": 0.0789472499999988,
          "durationTicks": 96,
          "midi": 44,
          "name": "G#2",
          "ticks": 126336,
          "time": 103.894581,
          "velocity": 0.07874015748031496
        },
        {
          "duration": 0.0789472499999988,
          "durationTicks": 96,
          "midi": 38,
          "name": "D2",
          "ticks": 126336,
          "time": 103.894581,
          "velocity": 0.03937007874015748
        },
        {
          "duration": 0.0789472499999988,
          "durationTicks": 96,
          "midi": 28,
          "name": "E1",
          "ticks": 126336,
          "time": 103.894581,
          "velocity": 0.07874015748031496
        },
        {
          "duration": 0.0789472499999988,
          "durationTicks": 96,
          "midi": 40,
          "name": "E2",
          "ticks": 126336,
          "time": 103.894581,
          "velocity": 0.03937007874015748
        },
        {
          "duration": 0.0789472499999988,
          "durationTicks": 96,
          "midi": 40,
          "name": "E2",
          "ticks": 126528,
          "time": 104.0524755,
          "velocity": 0.03937007874015748
        },
        {
          "duration": 0.0789472499999988,
          "durationTicks": 96,
          "midi": 32,
          "name": "G#1",
          "ticks": 126528,
          "time": 104.0524755,
          "velocity": 0.07874015748031496
        },
        {
          "duration": 0.0789472499999988,
          "durationTicks": 96,
          "midi": 28,
          "name": "E1",
          "ticks": 126528,
          "time": 104.0524755,
          "velocity": 0.07874015748031496
        },
        {
          "duration": 0.0789472499999988,
          "durationTicks": 96,
          "midi": 40,
          "name": "E2",
          "ticks": 126528,
          "time": 104.0524755,
          "velocity": 0.07874015748031496
        },
        {
          "duration": 0.0789472499999988,
          "durationTicks": 96,
          "midi": 44,
          "name": "G#2",
          "ticks": 126528,
          "time": 104.0524755,
          "velocity": 0.07874015748031496
        },
        {
          "duration": 0.0789472499999988,
          "durationTicks": 96,
          "midi": 42,
          "name": "F#2",
          "ticks": 126528,
          "time": 104.0524755,
          "velocity": 0.07874015748031496
        },
        {
          "duration": 0.0789472499999988,
          "durationTicks": 96,
          "midi": 38,
          "name": "D2",
          "ticks": 126528,
          "time": 104.0524755,
          "velocity": 0.03937007874015748
        },
        {
          "duration": 0.0789472499999988,
          "durationTicks": 96,
          "midi": 42,
          "name": "F#2",
          "ticks": 126720,
          "time": 104.21037,
          "velocity": 0.07874015748031496
        },
        {
          "duration": 0.0789472499999988,
          "durationTicks": 96,
          "midi": 32,
          "name": "G#1",
          "ticks": 126720,
          "time": 104.21037,
          "velocity": 0.07874015748031496
        },
        {
          "duration": 0.0789472499999988,
          "durationTicks": 96,
          "midi": 40,
          "name": "E2",
          "ticks": 126912,
          "time": 104.3682645,
          "velocity": 0.03937007874015748
        },
        {
          "duration": 0.0789472499999988,
          "durationTicks": 96,
          "midi": 38,
          "name": "D2",
          "ticks": 126912,
          "time": 104.3682645,
          "velocity": 0.03937007874015748
        },
        {
          "duration": 0.0789472499999988,
          "durationTicks": 96,
          "midi": 42,
          "name": "F#2",
          "ticks": 126912,
          "time": 104.3682645,
          "velocity": 0.07874015748031496
        },
        {
          "duration": 0.0789472499999988,
          "durationTicks": 96,
          "midi": 32,
          "name": "G#1",
          "ticks": 126912,
          "time": 104.3682645,
          "velocity": 0.07874015748031496
        },
        {
          "duration": 0.0789472499999988,
          "durationTicks": 96,
          "midi": 42,
          "name": "F#2",
          "ticks": 127104,
          "time": 104.52615899999999,
          "velocity": 0.07874015748031496
        },
        {
          "duration": 0.3157890000000094,
          "durationTicks": 384,
          "midi": 28,
          "name": "E1",
          "ticks": 127104,
          "time": 104.52615899999999,
          "velocity": 0.07874015748031496
        },
        {
          "duration": 0.0789472499999988,
          "durationTicks": 96,
          "midi": 38,
          "name": "D2",
          "ticks": 127104,
          "time": 104.52615899999999,
          "velocity": 0.03937007874015748
        },
        {
          "duration": 0.0789472499999988,
          "durationTicks": 96,
          "midi": 40,
          "name": "E2",
          "ticks": 127104,
          "time": 104.52615899999999,
          "velocity": 0.07874015748031496
        },
        {
          "duration": 0.3157890000000094,
          "durationTicks": 384,
          "midi": 44,
          "name": "G#2",
          "ticks": 127104,
          "time": 104.52615899999999,
          "velocity": 0.07874015748031496
        },
        {
          "duration": 0.2368417499999964,
          "durationTicks": 288,
          "midi": 32,
          "name": "G#1",
          "ticks": 127104,
          "time": 104.52615899999999,
          "velocity": 0.07874015748031496
        },
        {
          "duration": 0.2368417499999964,
          "durationTicks": 288,
          "midi": 40,
          "name": "E2",
          "ticks": 127104,
          "time": 104.52615899999999,
          "velocity": 0.03937007874015748
        },
        {
          "duration": 0.15789450000001182,
          "durationTicks": 192,
          "midi": 40,
          "name": "E2",
          "ticks": 127296,
          "time": 104.68405349999999,
          "velocity": 0.03937007874015748
        },
        {
          "duration": 0.0789472499999988,
          "durationTicks": 96,
          "midi": 42,
          "name": "F#2",
          "ticks": 127296,
          "time": 104.68405349999999,
          "velocity": 0.07874015748031496
        },
        {
          "duration": 0.0789472499999988,
          "durationTicks": 96,
          "midi": 38,
          "name": "D2",
          "ticks": 127296,
          "time": 104.68405349999999,
          "velocity": 0.03937007874015748
        },
        {
          "duration": 0.15789450000001182,
          "durationTicks": 192,
          "midi": 32,
          "name": "G#1",
          "ticks": 127296,
          "time": 104.68405349999999,
          "velocity": 0.07874015748031496
        },
        {
          "duration": 0.07894725000001301,
          "durationTicks": 96,
          "midi": 42,
          "name": "F#2",
          "ticks": 127392,
          "time": 104.76300074999999,
          "velocity": 0.07874015748031496
        },
        {
          "duration": 0.07894725000001301,
          "durationTicks": 96,
          "midi": 32,
          "name": "G#1",
          "ticks": 127392,
          "time": 104.76300074999999,
          "velocity": 0.07874015748031496
        },
        {
          "duration": 0.0789472499999988,
          "durationTicks": 96,
          "midi": 32,
          "name": "G#1",
          "ticks": 127488,
          "time": 104.841948,
          "velocity": 0.07874015748031496
        },
        {
          "duration": 0.0789472499999988,
          "durationTicks": 96,
          "midi": 35,
          "name": "B1",
          "ticks": 127488,
          "time": 104.841948,
          "velocity": 0.03937007874015748
        },
        {
          "duration": 0.0789472499999988,
          "durationTicks": 96,
          "midi": 42,
          "name": "F#2",
          "ticks": 127488,
          "time": 104.841948,
          "velocity": 0.07874015748031496
        },
        {
          "duration": 0.0789472499999988,
          "durationTicks": 96,
          "midi": 32,
          "name": "G#1",
          "ticks": 127680,
          "time": 104.9998425,
          "velocity": 0.07874015748031496
        },
        {
          "duration": 0.0789472499999988,
          "durationTicks": 96,
          "midi": 42,
          "name": "F#2",
          "ticks": 127680,
          "time": 104.9998425,
          "velocity": 0.07874015748031496
        },
        {
          "duration": 0.0789472499999988,
          "durationTicks": 96,
          "midi": 38,
          "name": "D2",
          "ticks": 127872,
          "time": 105.157737,
          "velocity": 0.03937007874015748
        },
        {
          "duration": 0.0789472499999988,
          "durationTicks": 96,
          "midi": 32,
          "name": "G#1",
          "ticks": 127872,
          "time": 105.157737,
          "velocity": 0.07874015748031496
        },
        {
          "duration": 0.0789472499999988,
          "durationTicks": 96,
          "midi": 40,
          "name": "E2",
          "ticks": 127872,
          "time": 105.157737,
          "velocity": 0.07874015748031496
        },
        {
          "duration": 0.0789472499999988,
          "durationTicks": 96,
          "midi": 28,
          "name": "E1",
          "ticks": 127872,
          "time": 105.157737,
          "velocity": 0.07874015748031496
        },
        {
          "duration": 0.0789472499999988,
          "durationTicks": 96,
          "midi": 40,
          "name": "E2",
          "ticks": 127872,
          "time": 105.157737,
          "velocity": 0.03937007874015748
        },
        {
          "duration": 0.0789472499999988,
          "durationTicks": 96,
          "midi": 44,
          "name": "G#2",
          "ticks": 127872,
          "time": 105.157737,
          "velocity": 0.07874015748031496
        },
        {
          "duration": 0.0789472499999988,
          "durationTicks": 96,
          "midi": 42,
          "name": "F#2",
          "ticks": 127872,
          "time": 105.157737,
          "velocity": 0.07874015748031496
        },
        {
          "duration": 0.0789472499999988,
          "durationTicks": 96,
          "midi": 42,
          "name": "F#2",
          "ticks": 128064,
          "time": 105.3156315,
          "velocity": 0.07874015748031496
        },
        {
          "duration": 0.0789472499999988,
          "durationTicks": 96,
          "midi": 40,
          "name": "E2",
          "ticks": 128064,
          "time": 105.3156315,
          "velocity": 0.07874015748031496
        },
        {
          "duration": 0.0789472499999988,
          "durationTicks": 96,
          "midi": 32,
          "name": "G#1",
          "ticks": 128064,
          "time": 105.3156315,
          "velocity": 0.07874015748031496
        },
        {
          "duration": 0.0789472499999988,
          "durationTicks": 96,
          "midi": 38,
          "name": "D2",
          "ticks": 128064,
          "time": 105.3156315,
          "velocity": 0.03937007874015748
        },
        {
          "duration": 0.0789472499999988,
          "durationTicks": 96,
          "midi": 28,
          "name": "E1",
          "ticks": 128064,
          "time": 105.3156315,
          "velocity": 0.07874015748031496
        },
        {
          "duration": 0.0789472499999988,
          "durationTicks": 96,
          "midi": 44,
          "name": "G#2",
          "ticks": 128064,
          "time": 105.3156315,
          "velocity": 0.07874015748031496
        },
        {
          "duration": 0.0789472499999988,
          "durationTicks": 96,
          "midi": 40,
          "name": "E2",
          "ticks": 128064,
          "time": 105.3156315,
          "velocity": 0.03937007874015748
        },
        {
          "duration": 0.0789472499999988,
          "durationTicks": 96,
          "midi": 32,
          "name": "G#1",
          "ticks": 128256,
          "time": 105.47352599999999,
          "velocity": 0.07874015748031496
        },
        {
          "duration": 0.0789472499999988,
          "durationTicks": 96,
          "midi": 42,
          "name": "F#2",
          "ticks": 128256,
          "time": 105.47352599999999,
          "velocity": 0.07874015748031496
        },
        {
          "duration": 0.0789472499999988,
          "durationTicks": 96,
          "midi": 38,
          "name": "D2",
          "ticks": 128448,
          "time": 105.63142049999999,
          "velocity": 0.03937007874015748
        },
        {
          "duration": 0.0789472499999988,
          "durationTicks": 96,
          "midi": 40,
          "name": "E2",
          "ticks": 128448,
          "time": 105.63142049999999,
          "velocity": 0.03937007874015748
        },
        {
          "duration": 0.0789472499999988,
          "durationTicks": 96,
          "midi": 42,
          "name": "F#2",
          "ticks": 128448,
          "time": 105.63142049999999,
          "velocity": 0.07874015748031496
        },
        {
          "duration": 0.0789472499999988,
          "durationTicks": 96,
          "midi": 32,
          "name": "G#1",
          "ticks": 128448,
          "time": 105.63142049999999,
          "velocity": 0.07874015748031496
        },
        {
          "duration": 0.0789472499999988,
          "durationTicks": 96,
          "midi": 38,
          "name": "D2",
          "ticks": 128640,
          "time": 105.789315,
          "velocity": 0.03937007874015748
        },
        {
          "duration": 0.0789472499999988,
          "durationTicks": 96,
          "midi": 40,
          "name": "E2",
          "ticks": 128640,
          "time": 105.789315,
          "velocity": 0.03937007874015748
        },
        {
          "duration": 0.3157889999999952,
          "durationTicks": 384,
          "midi": 28,
          "name": "E1",
          "ticks": 128640,
          "time": 105.789315,
          "velocity": 0.07874015748031496
        },
        {
          "duration": 0.2368417499999964,
          "durationTicks": 288,
          "midi": 32,
          "name": "G#1",
          "ticks": 128640,
          "time": 105.789315,
          "velocity": 0.07874015748031496
        },
        {
          "duration": 0.2368417499999964,
          "durationTicks": 288,
          "midi": 40,
          "name": "E2",
          "ticks": 128640,
          "time": 105.789315,
          "velocity": 0.07874015748031496
        },
        {
          "duration": 0.3157889999999952,
          "durationTicks": 384,
          "midi": 44,
          "name": "G#2",
          "ticks": 128640,
          "time": 105.789315,
          "velocity": 0.07874015748031496
        },
        {
          "duration": 0.0789472499999988,
          "durationTicks": 96,
          "midi": 42,
          "name": "F#2",
          "ticks": 128640,
          "time": 105.789315,
          "velocity": 0.07874015748031496
        },
        {
          "duration": 0.0789472499999988,
          "durationTicks": 96,
          "midi": 38,
          "name": "D2",
          "ticks": 128832,
          "time": 105.9472095,
          "velocity": 0.03937007874015748
        },
        {
          "duration": 0.1578944999999976,
          "durationTicks": 192,
          "midi": 40,
          "name": "E2",
          "ticks": 128832,
          "time": 105.9472095,
          "velocity": 0.03937007874015748
        },
        {
          "duration": 0.0789472499999988,
          "durationTicks": 96,
          "midi": 42,
          "name": "F#2",
          "ticks": 128832,
          "time": 105.9472095,
          "velocity": 0.07874015748031496
        },
        {
          "duration": 0.1578944999999976,
          "durationTicks": 192,
          "midi": 32,
          "name": "G#1",
          "ticks": 128832,
          "time": 105.9472095,
          "velocity": 0.07874015748031496
        },
        {
          "duration": 0.0789472499999988,
          "durationTicks": 96,
          "midi": 42,
          "name": "F#2",
          "ticks": 128928,
          "time": 106.02615675,
          "velocity": 0.07874015748031496
        },
        {
          "duration": 0.0789472499999988,
          "durationTicks": 96,
          "midi": 32,
          "name": "G#1",
          "ticks": 128928,
          "time": 106.02615675,
          "velocity": 0.07874015748031496
        },
        {
          "duration": 0.0789472499999988,
          "durationTicks": 96,
          "midi": 35,
          "name": "B1",
          "ticks": 129024,
          "time": 106.105104,
          "velocity": 0.03937007874015748
        },
        {
          "duration": 0.0789472499999988,
          "durationTicks": 96,
          "midi": 42,
          "name": "F#2",
          "ticks": 129024,
          "time": 106.105104,
          "velocity": 0.07874015748031496
        },
        {
          "duration": 0.0789472499999988,
          "durationTicks": 96,
          "midi": 32,
          "name": "G#1",
          "ticks": 129024,
          "time": 106.105104,
          "velocity": 0.07874015748031496
        },
        {
          "duration": 0.0789472499999988,
          "durationTicks": 96,
          "midi": 32,
          "name": "G#1",
          "ticks": 129216,
          "time": 106.2629985,
          "velocity": 0.07874015748031496
        },
        {
          "duration": 0.0789472499999988,
          "durationTicks": 96,
          "midi": 42,
          "name": "F#2",
          "ticks": 129216,
          "time": 106.2629985,
          "velocity": 0.07874015748031496
        },
        {
          "duration": 0.0789472499999988,
          "durationTicks": 96,
          "midi": 38,
          "name": "D2",
          "ticks": 129408,
          "time": 106.42089299999999,
          "velocity": 0.03937007874015748
        },
        {
          "duration": 0.0789472499999988,
          "durationTicks": 96,
          "midi": 42,
          "name": "F#2",
          "ticks": 129408,
          "time": 106.42089299999999,
          "velocity": 0.07874015748031496
        },
        {
          "duration": 0.0789472499999988,
          "durationTicks": 96,
          "midi": 32,
          "name": "G#1",
          "ticks": 129408,
          "time": 106.42089299999999,
          "velocity": 0.07874015748031496
        },
        {
          "duration": 0.0789472499999988,
          "durationTicks": 96,
          "midi": 40,
          "name": "E2",
          "ticks": 129408,
          "time": 106.42089299999999,
          "velocity": 0.07874015748031496
        },
        {
          "duration": 0.0789472499999988,
          "durationTicks": 96,
          "midi": 40,
          "name": "E2",
          "ticks": 129408,
          "time": 106.42089299999999,
          "velocity": 0.03937007874015748
        },
        {
          "duration": 0.0789472499999988,
          "durationTicks": 96,
          "midi": 44,
          "name": "G#2",
          "ticks": 129408,
          "time": 106.42089299999999,
          "velocity": 0.07874015748031496
        },
        {
          "duration": 0.0789472499999988,
          "durationTicks": 96,
          "midi": 28,
          "name": "E1",
          "ticks": 129408,
          "time": 106.42089299999999,
          "velocity": 0.07874015748031496
        },
        {
          "duration": 0.0789472499999988,
          "durationTicks": 96,
          "midi": 38,
          "name": "D2",
          "ticks": 129600,
          "time": 106.57878749999999,
          "velocity": 0.03937007874015748
        },
        {
          "duration": 0.0789472499999988,
          "durationTicks": 96,
          "midi": 32,
          "name": "G#1",
          "ticks": 129600,
          "time": 106.57878749999999,
          "velocity": 0.07874015748031496
        },
        {
          "duration": 0.0789472499999988,
          "durationTicks": 96,
          "midi": 28,
          "name": "E1",
          "ticks": 129600,
          "time": 106.57878749999999,
          "velocity": 0.07874015748031496
        },
        {
          "duration": 0.0789472499999988,
          "durationTicks": 96,
          "midi": 44,
          "name": "G#2",
          "ticks": 129600,
          "time": 106.57878749999999,
          "velocity": 0.07874015748031496
        },
        {
          "duration": 0.0789472499999988,
          "durationTicks": 96,
          "midi": 40,
          "name": "E2",
          "ticks": 129600,
          "time": 106.57878749999999,
          "velocity": 0.07874015748031496
        },
        {
          "duration": 0.0789472499999988,
          "durationTicks": 96,
          "midi": 40,
          "name": "E2",
          "ticks": 129600,
          "time": 106.57878749999999,
          "velocity": 0.03937007874015748
        },
        {
          "duration": 0.0789472499999988,
          "durationTicks": 96,
          "midi": 42,
          "name": "F#2",
          "ticks": 129600,
          "time": 106.57878749999999,
          "velocity": 0.07874015748031496
        },
        {
          "duration": 0.0789472499999988,
          "durationTicks": 96,
          "midi": 32,
          "name": "G#1",
          "ticks": 129792,
          "time": 106.736682,
          "velocity": 0.07874015748031496
        },
        {
          "duration": 0.0789472499999988,
          "durationTicks": 96,
          "midi": 42,
          "name": "F#2",
          "ticks": 129792,
          "time": 106.736682,
          "velocity": 0.07874015748031496
        },
        {
          "duration": 0.0789472499999988,
          "durationTicks": 96,
          "midi": 38,
          "name": "D2",
          "ticks": 129984,
          "time": 106.8945765,
          "velocity": 0.03937007874015748
        },
        {
          "duration": 0.0789472499999988,
          "durationTicks": 96,
          "midi": 32,
          "name": "G#1",
          "ticks": 129984,
          "time": 106.8945765,
          "velocity": 0.07874015748031496
        },
        {
          "duration": 0.0789472499999988,
          "durationTicks": 96,
          "midi": 42,
          "name": "F#2",
          "ticks": 129984,
          "time": 106.8945765,
          "velocity": 0.07874015748031496
        },
        {
          "duration": 0.0789472499999988,
          "durationTicks": 96,
          "midi": 40,
          "name": "E2",
          "ticks": 129984,
          "time": 106.8945765,
          "velocity": 0.03937007874015748
        },
        {
          "duration": 0.0789472499999988,
          "durationTicks": 96,
          "midi": 40,
          "name": "E2",
          "ticks": 130176,
          "time": 107.052471,
          "velocity": 0.03937007874015748
        },
        {
          "duration": 0.2368417499999964,
          "durationTicks": 288,
          "midi": 32,
          "name": "G#1",
          "ticks": 130176,
          "time": 107.052471,
          "velocity": 0.07874015748031496
        },
        {
          "duration": 0.0789472499999988,
          "durationTicks": 96,
          "midi": 42,
          "name": "F#2",
          "ticks": 130176,
          "time": 107.052471,
          "velocity": 0.07874015748031496
        },
        {
          "duration": 0.3157889999999952,
          "durationTicks": 384,
          "midi": 28,
          "name": "E1",
          "ticks": 130176,
          "time": 107.052471,
          "velocity": 0.07874015748031496
        },
        {
          "duration": 0.0789472499999988,
          "durationTicks": 96,
          "midi": 38,
          "name": "D2",
          "ticks": 130176,
          "time": 107.052471,
          "velocity": 0.03937007874015748
        },
        {
          "duration": 0.2368417499999964,
          "durationTicks": 288,
          "midi": 40,
          "name": "E2",
          "ticks": 130176,
          "time": 107.052471,
          "velocity": 0.07874015748031496
        },
        {
          "duration": 0.3157889999999952,
          "durationTicks": 384,
          "midi": 44,
          "name": "G#2",
          "ticks": 130176,
          "time": 107.052471,
          "velocity": 0.07874015748031496
        },
        {
          "duration": 0.0789472499999988,
          "durationTicks": 96,
          "midi": 38,
          "name": "D2",
          "ticks": 130368,
          "time": 107.2103655,
          "velocity": 0.03937007874015748
        },
        {
          "duration": 0.0789472499999988,
          "durationTicks": 96,
          "midi": 42,
          "name": "F#2",
          "ticks": 130368,
          "time": 107.2103655,
          "velocity": 0.07874015748031496
        },
        {
          "duration": 0.1578944999999976,
          "durationTicks": 192,
          "midi": 32,
          "name": "G#1",
          "ticks": 130368,
          "time": 107.2103655,
          "velocity": 0.07874015748031496
        },
        {
          "duration": 0.1578944999999976,
          "durationTicks": 192,
          "midi": 40,
          "name": "E2",
          "ticks": 130368,
          "time": 107.2103655,
          "velocity": 0.03937007874015748
        },
        {
          "duration": 0.0789472499999988,
          "durationTicks": 96,
          "midi": 42,
          "name": "F#2",
          "ticks": 130464,
          "time": 107.28931275,
          "velocity": 0.07874015748031496
        },
        {
          "duration": 0.0789472499999988,
          "durationTicks": 96,
          "midi": 32,
          "name": "G#1",
          "ticks": 130464,
          "time": 107.28931275,
          "velocity": 0.07874015748031496
        },
        {
          "duration": 0.0789472499999988,
          "durationTicks": 96,
          "midi": 35,
          "name": "B1",
          "ticks": 130560,
          "time": 107.36825999999999,
          "velocity": 0.03937007874015748
        },
        {
          "duration": 0.0789472499999988,
          "durationTicks": 96,
          "midi": 32,
          "name": "G#1",
          "ticks": 130560,
          "time": 107.36825999999999,
          "velocity": 0.07874015748031496
        },
        {
          "duration": 0.0789472499999988,
          "durationTicks": 96,
          "midi": 42,
          "name": "F#2",
          "ticks": 130560,
          "time": 107.36825999999999,
          "velocity": 0.07874015748031496
        },
        {
          "duration": 0.0789472499999988,
          "durationTicks": 96,
          "midi": 42,
          "name": "F#2",
          "ticks": 130752,
          "time": 107.52615449999999,
          "velocity": 0.07874015748031496
        },
        {
          "duration": 0.0789472499999988,
          "durationTicks": 96,
          "midi": 32,
          "name": "G#1",
          "ticks": 130752,
          "time": 107.52615449999999,
          "velocity": 0.07874015748031496
        },
        {
          "duration": 0.0789472499999988,
          "durationTicks": 96,
          "midi": 28,
          "name": "E1",
          "ticks": 130944,
          "time": 107.684049,
          "velocity": 0.07874015748031496
        },
        {
          "duration": 0.0789472499999988,
          "durationTicks": 96,
          "midi": 40,
          "name": "E2",
          "ticks": 130944,
          "time": 107.684049,
          "velocity": 0.07874015748031496
        },
        {
          "duration": 0.0789472499999988,
          "durationTicks": 96,
          "midi": 40,
          "name": "E2",
          "ticks": 130944,
          "time": 107.684049,
          "velocity": 0.03937007874015748
        },
        {
          "duration": 0.0789472499999988,
          "durationTicks": 96,
          "midi": 44,
          "name": "G#2",
          "ticks": 130944,
          "time": 107.684049,
          "velocity": 0.07874015748031496
        },
        {
          "duration": 0.0789472499999988,
          "durationTicks": 96,
          "midi": 38,
          "name": "D2",
          "ticks": 130944,
          "time": 107.684049,
          "velocity": 0.03937007874015748
        },
        {
          "duration": 0.0789472499999988,
          "durationTicks": 96,
          "midi": 32,
          "name": "G#1",
          "ticks": 130944,
          "time": 107.684049,
          "velocity": 0.07874015748031496
        },
        {
          "duration": 0.0789472499999988,
          "durationTicks": 96,
          "midi": 42,
          "name": "F#2",
          "ticks": 130944,
          "time": 107.684049,
          "velocity": 0.07874015748031496
        },
        {
          "duration": 0.0789472499999988,
          "durationTicks": 96,
          "midi": 40,
          "name": "E2",
          "ticks": 131136,
          "time": 107.8419435,
          "velocity": 0.07874015748031496
        },
        {
          "duration": 0.0789472499999988,
          "durationTicks": 96,
          "midi": 42,
          "name": "F#2",
          "ticks": 131136,
          "time": 107.8419435,
          "velocity": 0.07874015748031496
        },
        {
          "duration": 0.0789472499999988,
          "durationTicks": 96,
          "midi": 28,
          "name": "E1",
          "ticks": 131136,
          "time": 107.8419435,
          "velocity": 0.07874015748031496
        },
        {
          "duration": 0.0789472499999988,
          "durationTicks": 96,
          "midi": 40,
          "name": "E2",
          "ticks": 131136,
          "time": 107.8419435,
          "velocity": 0.03937007874015748
        },
        {
          "duration": 0.0789472499999988,
          "durationTicks": 96,
          "midi": 44,
          "name": "G#2",
          "ticks": 131136,
          "time": 107.8419435,
          "velocity": 0.07874015748031496
        },
        {
          "duration": 0.0789472499999988,
          "durationTicks": 96,
          "midi": 32,
          "name": "G#1",
          "ticks": 131136,
          "time": 107.8419435,
          "velocity": 0.07874015748031496
        },
        {
          "duration": 0.0789472499999988,
          "durationTicks": 96,
          "midi": 38,
          "name": "D2",
          "ticks": 131136,
          "time": 107.8419435,
          "velocity": 0.03937007874015748
        },
        {
          "duration": 0.0789472499999988,
          "durationTicks": 96,
          "midi": 32,
          "name": "G#1",
          "ticks": 131328,
          "time": 107.999838,
          "velocity": 0.07874015748031496
        },
        {
          "duration": 0.0789472499999988,
          "durationTicks": 96,
          "midi": 42,
          "name": "F#2",
          "ticks": 131328,
          "time": 107.999838,
          "velocity": 0.07874015748031496
        },
        {
          "duration": 0.0789472499999988,
          "durationTicks": 96,
          "midi": 42,
          "name": "F#2",
          "ticks": 131520,
          "time": 108.1577325,
          "velocity": 0.07874015748031496
        },
        {
          "duration": 0.0789472499999988,
          "durationTicks": 96,
          "midi": 38,
          "name": "D2",
          "ticks": 131520,
          "time": 108.1577325,
          "velocity": 0.03937007874015748
        },
        {
          "duration": 0.0789472499999988,
          "durationTicks": 96,
          "midi": 40,
          "name": "E2",
          "ticks": 131520,
          "time": 108.1577325,
          "velocity": 0.03937007874015748
        },
        {
          "duration": 0.0789472499999988,
          "durationTicks": 96,
          "midi": 32,
          "name": "G#1",
          "ticks": 131520,
          "time": 108.1577325,
          "velocity": 0.07874015748031496
        },
        {
          "duration": 0.3157890000000094,
          "durationTicks": 384,
          "midi": 44,
          "name": "G#2",
          "ticks": 131712,
          "time": 108.31562699999999,
          "velocity": 0.07874015748031496
        },
        {
          "duration": 0.3157890000000094,
          "durationTicks": 384,
          "midi": 28,
          "name": "E1",
          "ticks": 131712,
          "time": 108.31562699999999,
          "velocity": 0.07874015748031496
        },
        {
          "duration": 0.0789472499999988,
          "durationTicks": 96,
          "midi": 42,
          "name": "F#2",
          "ticks": 131712,
          "time": 108.31562699999999,
          "velocity": 0.07874015748031496
        },
        {
          "duration": 0.2368417499999964,
          "durationTicks": 288,
          "midi": 32,
          "name": "G#1",
          "ticks": 131712,
          "time": 108.31562699999999,
          "velocity": 0.07874015748031496
        },
        {
          "duration": 0.0789472499999988,
          "durationTicks": 96,
          "midi": 40,
          "name": "E2",
          "ticks": 131712,
          "time": 108.31562699999999,
          "velocity": 0.03937007874015748
        },
        {
          "duration": 0.2368417499999964,
          "durationTicks": 288,
          "midi": 40,
          "name": "E2",
          "ticks": 131712,
          "time": 108.31562699999999,
          "velocity": 0.07874015748031496
        },
        {
          "duration": 0.0789472499999988,
          "durationTicks": 96,
          "midi": 38,
          "name": "D2",
          "ticks": 131712,
          "time": 108.31562699999999,
          "velocity": 0.03937007874015748
        },
        {
          "duration": 0.0789472499999988,
          "durationTicks": 96,
          "midi": 38,
          "name": "D2",
          "ticks": 131904,
          "time": 108.47352149999999,
          "velocity": 0.03937007874015748
        },
        {
          "duration": 0.15789450000001182,
          "durationTicks": 192,
          "midi": 32,
          "name": "G#1",
          "ticks": 131904,
          "time": 108.47352149999999,
          "velocity": 0.07874015748031496
        },
        {
          "duration": 0.15789450000001182,
          "durationTicks": 192,
          "midi": 40,
          "name": "E2",
          "ticks": 131904,
          "time": 108.47352149999999,
          "velocity": 0.03937007874015748
        },
        {
          "duration": 0.0789472499999988,
          "durationTicks": 96,
          "midi": 42,
          "name": "F#2",
          "ticks": 131904,
          "time": 108.47352149999999,
          "velocity": 0.07874015748031496
        },
        {
          "duration": 0.07894725000001301,
          "durationTicks": 96,
          "midi": 32,
          "name": "G#1",
          "ticks": 132000,
          "time": 108.55246874999999,
          "velocity": 0.07874015748031496
        },
        {
          "duration": 0.07894725000001301,
          "durationTicks": 96,
          "midi": 42,
          "name": "F#2",
          "ticks": 132000,
          "time": 108.55246874999999,
          "velocity": 0.07874015748031496
        },
        {
          "duration": 0.0789472499999988,
          "durationTicks": 96,
          "midi": 32,
          "name": "G#1",
          "ticks": 132096,
          "time": 108.631416,
          "velocity": 0.07874015748031496
        },
        {
          "duration": 0.0789472499999988,
          "durationTicks": 96,
          "midi": 42,
          "name": "F#2",
          "ticks": 132096,
          "time": 108.631416,
          "velocity": 0.07874015748031496
        },
        {
          "duration": 0.0789472499999988,
          "durationTicks": 96,
          "midi": 35,
          "name": "B1",
          "ticks": 132096,
          "time": 108.631416,
          "velocity": 0.03937007874015748
        },
        {
          "duration": 0.0789472499999988,
          "durationTicks": 96,
          "midi": 42,
          "name": "F#2",
          "ticks": 132288,
          "time": 108.7893105,
          "velocity": 0.07874015748031496
        },
        {
          "duration": 0.0789472499999988,
          "durationTicks": 96,
          "midi": 32,
          "name": "G#1",
          "ticks": 132288,
          "time": 108.7893105,
          "velocity": 0.07874015748031496
        },
        {
          "duration": 0.0789472499999988,
          "durationTicks": 96,
          "midi": 32,
          "name": "G#1",
          "ticks": 132480,
          "time": 108.947205,
          "velocity": 0.07874015748031496
        },
        {
          "duration": 0.0789472499999988,
          "durationTicks": 96,
          "midi": 28,
          "name": "E1",
          "ticks": 132480,
          "time": 108.947205,
          "velocity": 0.07874015748031496
        },
        {
          "duration": 0.0789472499999988,
          "durationTicks": 96,
          "midi": 40,
          "name": "E2",
          "ticks": 132480,
          "time": 108.947205,
          "velocity": 0.03937007874015748
        },
        {
          "duration": 0.0789472499999988,
          "durationTicks": 96,
          "midi": 40,
          "name": "E2",
          "ticks": 132480,
          "time": 108.947205,
          "velocity": 0.07874015748031496
        },
        {
          "duration": 0.0789472499999988,
          "durationTicks": 96,
          "midi": 38,
          "name": "D2",
          "ticks": 132480,
          "time": 108.947205,
          "velocity": 0.03937007874015748
        },
        {
          "duration": 0.0789472499999988,
          "durationTicks": 96,
          "midi": 42,
          "name": "F#2",
          "ticks": 132480,
          "time": 108.947205,
          "velocity": 0.07874015748031496
        },
        {
          "duration": 0.0789472499999988,
          "durationTicks": 96,
          "midi": 44,
          "name": "G#2",
          "ticks": 132480,
          "time": 108.947205,
          "velocity": 0.07874015748031496
        },
        {
          "duration": 0.0789472499999988,
          "durationTicks": 96,
          "midi": 44,
          "name": "G#2",
          "ticks": 132672,
          "time": 109.1050995,
          "velocity": 0.07874015748031496
        },
        {
          "duration": 0.0789472499999988,
          "durationTicks": 96,
          "midi": 32,
          "name": "G#1",
          "ticks": 132672,
          "time": 109.1050995,
          "velocity": 0.07874015748031496
        },
        {
          "duration": 0.0789472499999988,
          "durationTicks": 96,
          "midi": 38,
          "name": "D2",
          "ticks": 132672,
          "time": 109.1050995,
          "velocity": 0.03937007874015748
        },
        {
          "duration": 0.0789472499999988,
          "durationTicks": 96,
          "midi": 28,
          "name": "E1",
          "ticks": 132672,
          "time": 109.1050995,
          "velocity": 0.07874015748031496
        },
        {
          "duration": 0.0789472499999988,
          "durationTicks": 96,
          "midi": 40,
          "name": "E2",
          "ticks": 132672,
          "time": 109.1050995,
          "velocity": 0.03937007874015748
        },
        {
          "duration": 0.0789472499999988,
          "durationTicks": 96,
          "midi": 40,
          "name": "E2",
          "ticks": 132672,
          "time": 109.1050995,
          "velocity": 0.07874015748031496
        },
        {
          "duration": 0.0789472499999988,
          "durationTicks": 96,
          "midi": 42,
          "name": "F#2",
          "ticks": 132672,
          "time": 109.1050995,
          "velocity": 0.07874015748031496
        },
        {
          "duration": 0.0789472499999988,
          "durationTicks": 96,
          "midi": 32,
          "name": "G#1",
          "ticks": 132864,
          "time": 109.26299399999999,
          "velocity": 0.07874015748031496
        },
        {
          "duration": 0.0789472499999988,
          "durationTicks": 96,
          "midi": 42,
          "name": "F#2",
          "ticks": 132864,
          "time": 109.26299399999999,
          "velocity": 0.07874015748031496
        },
        {
          "duration": 0.0789472499999988,
          "durationTicks": 96,
          "midi": 40,
          "name": "E2",
          "ticks": 133056,
          "time": 109.42088849999999,
          "velocity": 0.03937007874015748
        },
        {
          "duration": 0.0789472499999988,
          "durationTicks": 96,
          "midi": 32,
          "name": "G#1",
          "ticks": 133056,
          "time": 109.42088849999999,
          "velocity": 0.07874015748031496
        },
        {
          "duration": 0.0789472499999988,
          "durationTicks": 96,
          "midi": 42,
          "name": "F#2",
          "ticks": 133056,
          "time": 109.42088849999999,
          "velocity": 0.07874015748031496
        },
        {
          "duration": 0.0789472499999988,
          "durationTicks": 96,
          "midi": 38,
          "name": "D2",
          "ticks": 133056,
          "time": 109.42088849999999,
          "velocity": 0.03937007874015748
        },
        {
          "duration": 0.3157889999999952,
          "durationTicks": 384,
          "midi": 28,
          "name": "E1",
          "ticks": 133248,
          "time": 109.578783,
          "velocity": 0.07874015748031496
        },
        {
          "duration": 0.0789472499999988,
          "durationTicks": 96,
          "midi": 40,
          "name": "E2",
          "ticks": 133248,
          "time": 109.578783,
          "velocity": 0.03937007874015748
        },
        {
          "duration": 0.2368417499999964,
          "durationTicks": 288,
          "midi": 32,
          "name": "G#1",
          "ticks": 133248,
          "time": 109.578783,
          "velocity": 0.07874015748031496
        },
        {
          "duration": 0.0789472499999988,
          "durationTicks": 96,
          "midi": 38,
          "name": "D2",
          "ticks": 133248,
          "time": 109.578783,
          "velocity": 0.03937007874015748
        },
        {
          "duration": 0.0789472499999988,
          "durationTicks": 96,
          "midi": 42,
          "name": "F#2",
          "ticks": 133248,
          "time": 109.578783,
          "velocity": 0.07874015748031496
        },
        {
          "duration": 0.3157889999999952,
          "durationTicks": 384,
          "midi": 44,
          "name": "G#2",
          "ticks": 133248,
          "time": 109.578783,
          "velocity": 0.07874015748031496
        },
        {
          "duration": 0.2368417499999964,
          "durationTicks": 288,
          "midi": 40,
          "name": "E2",
          "ticks": 133248,
          "time": 109.578783,
          "velocity": 0.07874015748031496
        },
        {
          "duration": 0.0789472499999988,
          "durationTicks": 96,
          "midi": 38,
          "name": "D2",
          "ticks": 133440,
          "time": 109.7366775,
          "velocity": 0.03937007874015748
        },
        {
          "duration": 0.1578944999999976,
          "durationTicks": 192,
          "midi": 32,
          "name": "G#1",
          "ticks": 133440,
          "time": 109.7366775,
          "velocity": 0.07874015748031496
        },
        {
          "duration": 0.0789472499999988,
          "durationTicks": 96,
          "midi": 42,
          "name": "F#2",
          "ticks": 133440,
          "time": 109.7366775,
          "velocity": 0.07874015748031496
        },
        {
          "duration": 0.1578944999999976,
          "durationTicks": 192,
          "midi": 40,
          "name": "E2",
          "ticks": 133440,
          "time": 109.7366775,
          "velocity": 0.03937007874015748
        },
        {
          "duration": 0.0789472499999988,
          "durationTicks": 96,
          "midi": 42,
          "name": "F#2",
          "ticks": 133536,
          "time": 109.81562475,
          "velocity": 0.07874015748031496
        },
        {
          "duration": 0.0789472499999988,
          "durationTicks": 96,
          "midi": 32,
          "name": "G#1",
          "ticks": 133536,
          "time": 109.81562475,
          "velocity": 0.07874015748031496
        },
        {
          "duration": 0.0789472499999988,
          "durationTicks": 96,
          "midi": 32,
          "name": "G#1",
          "ticks": 133632,
          "time": 109.894572,
          "velocity": 0.07874015748031496
        },
        {
          "duration": 0.0789472499999988,
          "durationTicks": 96,
          "midi": 35,
          "name": "B1",
          "ticks": 133632,
          "time": 109.894572,
          "velocity": 0.03937007874015748
        },
        {
          "duration": 0.0789472499999988,
          "durationTicks": 96,
          "midi": 42,
          "name": "F#2",
          "ticks": 133632,
          "time": 109.894572,
          "velocity": 0.07874015748031496
        },
        {
          "duration": 0.0789472499999988,
          "durationTicks": 96,
          "midi": 42,
          "name": "F#2",
          "ticks": 133824,
          "time": 110.0524665,
          "velocity": 0.07874015748031496
        },
        {
          "duration": 0.0789472499999988,
          "durationTicks": 96,
          "midi": 32,
          "name": "G#1",
          "ticks": 133824,
          "time": 110.0524665,
          "velocity": 0.07874015748031496
        },
        {
          "duration": 0.0789472499999988,
          "durationTicks": 96,
          "midi": 32,
          "name": "G#1",
          "ticks": 134016,
          "time": 110.21036099999999,
          "velocity": 0.07874015748031496
        },
        {
          "duration": 0.0789472499999988,
          "durationTicks": 96,
          "midi": 44,
          "name": "G#2",
          "ticks": 134016,
          "time": 110.21036099999999,
          "velocity": 0.07874015748031496
        },
        {
          "duration": 0.0789472499999988,
          "durationTicks": 96,
          "midi": 42,
          "name": "F#2",
          "ticks": 134016,
          "time": 110.21036099999999,
          "velocity": 0.07874015748031496
        },
        {
          "duration": 0.0789472499999988,
          "durationTicks": 96,
          "midi": 40,
          "name": "E2",
          "ticks": 134016,
          "time": 110.21036099999999,
          "velocity": 0.07874015748031496
        },
        {
          "duration": 0.0789472499999988,
          "durationTicks": 96,
          "midi": 38,
          "name": "D2",
          "ticks": 134016,
          "time": 110.21036099999999,
          "velocity": 0.03937007874015748
        },
        {
          "duration": 0.0789472499999988,
          "durationTicks": 96,
          "midi": 40,
          "name": "E2",
          "ticks": 134016,
          "time": 110.21036099999999,
          "velocity": 0.03937007874015748
        },
        {
          "duration": 0.0789472499999988,
          "durationTicks": 96,
          "midi": 28,
          "name": "E1",
          "ticks": 134016,
          "time": 110.21036099999999,
          "velocity": 0.07874015748031496
        },
        {
          "duration": 0.0789472499999988,
          "durationTicks": 96,
          "midi": 40,
          "name": "E2",
          "ticks": 134208,
          "time": 110.36825549999999,
          "velocity": 0.03937007874015748
        },
        {
          "duration": 0.0789472499999988,
          "durationTicks": 96,
          "midi": 44,
          "name": "G#2",
          "ticks": 134208,
          "time": 110.36825549999999,
          "velocity": 0.07874015748031496
        },
        {
          "duration": 0.0789472499999988,
          "durationTicks": 96,
          "midi": 38,
          "name": "D2",
          "ticks": 134208,
          "time": 110.36825549999999,
          "velocity": 0.03937007874015748
        },
        {
          "duration": 0.0789472499999988,
          "durationTicks": 96,
          "midi": 40,
          "name": "E2",
          "ticks": 134208,
          "time": 110.36825549999999,
          "velocity": 0.07874015748031496
        },
        {
          "duration": 0.0789472499999988,
          "durationTicks": 96,
          "midi": 42,
          "name": "F#2",
          "ticks": 134208,
          "time": 110.36825549999999,
          "velocity": 0.07874015748031496
        },
        {
          "duration": 0.0789472499999988,
          "durationTicks": 96,
          "midi": 28,
          "name": "E1",
          "ticks": 134208,
          "time": 110.36825549999999,
          "velocity": 0.07874015748031496
        },
        {
          "duration": 0.0789472499999988,
          "durationTicks": 96,
          "midi": 32,
          "name": "G#1",
          "ticks": 134208,
          "time": 110.36825549999999,
          "velocity": 0.07874015748031496
        },
        {
          "duration": 0.0789472499999988,
          "durationTicks": 96,
          "midi": 42,
          "name": "F#2",
          "ticks": 134400,
          "time": 110.52615,
          "velocity": 0.07874015748031496
        },
        {
          "duration": 0.0789472499999988,
          "durationTicks": 96,
          "midi": 32,
          "name": "G#1",
          "ticks": 134400,
          "time": 110.52615,
          "velocity": 0.07874015748031496
        },
        {
          "duration": 0.0789472499999988,
          "durationTicks": 96,
          "midi": 38,
          "name": "D2",
          "ticks": 134592,
          "time": 110.6840445,
          "velocity": 0.03937007874015748
        },
        {
          "duration": 0.0789472499999988,
          "durationTicks": 96,
          "midi": 40,
          "name": "E2",
          "ticks": 134592,
          "time": 110.6840445,
          "velocity": 0.03937007874015748
        },
        {
          "duration": 0.0789472499999988,
          "durationTicks": 96,
          "midi": 32,
          "name": "G#1",
          "ticks": 134592,
          "time": 110.6840445,
          "velocity": 0.07874015748031496
        },
        {
          "duration": 0.0789472499999988,
          "durationTicks": 96,
          "midi": 42,
          "name": "F#2",
          "ticks": 134592,
          "time": 110.6840445,
          "velocity": 0.07874015748031496
        },
        {
          "duration": 0.3157889999999952,
          "durationTicks": 384,
          "midi": 44,
          "name": "G#2",
          "ticks": 134784,
          "time": 110.841939,
          "velocity": 0.07874015748031496
        },
        {
          "duration": 0.0789472499999988,
          "durationTicks": 96,
          "midi": 42,
          "name": "F#2",
          "ticks": 134784,
          "time": 110.841939,
          "velocity": 0.07874015748031496
        },
        {
          "duration": 0.0789472499999988,
          "durationTicks": 96,
          "midi": 38,
          "name": "D2",
          "ticks": 134784,
          "time": 110.841939,
          "velocity": 0.03937007874015748
        },
        {
          "duration": 0.0789472499999988,
          "durationTicks": 96,
          "midi": 40,
          "name": "E2",
          "ticks": 134784,
          "time": 110.841939,
          "velocity": 0.07874015748031496
        },
        {
          "duration": 0.2368417499999964,
          "durationTicks": 288,
          "midi": 40,
          "name": "E2",
          "ticks": 134784,
          "time": 110.841939,
          "velocity": 0.03937007874015748
        },
        {
          "duration": 0.2368417499999964,
          "durationTicks": 288,
          "midi": 32,
          "name": "G#1",
          "ticks": 134784,
          "time": 110.841939,
          "velocity": 0.07874015748031496
        },
        {
          "duration": 0.3157889999999952,
          "durationTicks": 384,
          "midi": 28,
          "name": "E1",
          "ticks": 134784,
          "time": 110.841939,
          "velocity": 0.07874015748031496
        },
        {
          "duration": 0.1578944999999976,
          "durationTicks": 192,
          "midi": 40,
          "name": "E2",
          "ticks": 134976,
          "time": 110.9998335,
          "velocity": 0.03937007874015748
        },
        {
          "duration": 0.1578944999999976,
          "durationTicks": 192,
          "midi": 32,
          "name": "G#1",
          "ticks": 134976,
          "time": 110.9998335,
          "velocity": 0.07874015748031496
        },
        {
          "duration": 0.0789472499999988,
          "durationTicks": 96,
          "midi": 42,
          "name": "F#2",
          "ticks": 134976,
          "time": 110.9998335,
          "velocity": 0.07874015748031496
        },
        {
          "duration": 0.0789472499999988,
          "durationTicks": 96,
          "midi": 38,
          "name": "D2",
          "ticks": 134976,
          "time": 110.9998335,
          "velocity": 0.03937007874015748
        },
        {
          "duration": 0.0789472499999988,
          "durationTicks": 96,
          "midi": 32,
          "name": "G#1",
          "ticks": 135072,
          "time": 111.07878074999999,
          "velocity": 0.07874015748031496
        },
        {
          "duration": 0.0789472499999988,
          "durationTicks": 96,
          "midi": 42,
          "name": "F#2",
          "ticks": 135072,
          "time": 111.07878074999999,
          "velocity": 0.07874015748031496
        }
      ],
      "endOfTrackTicks": 135168
    },
    {
      "channel": 12,
      "controlChanges": {},
      "pitchBends": [],
      "instrument": {
        "family": "chromatic percussion",
        "number": 11,
        "name": "vibraphone"
      },
      "name": "Vibraphone",
      "notes": [
        {
          "duration": 0.6315780000000046,
          "durationTicks": 768,
          "midi": 65,
          "name": "F4",
          "ticks": 49920,
          "time": 41.052569999999996,
          "velocity": 0.3937007874015748
        },
        {
          "duration": 0.6315779999999975,
          "durationTicks": 768,
          "midi": 68,
          "name": "G#4",
          "ticks": 50688,
          "time": 41.684148,
          "velocity": 0.3937007874015748
        },
        {
          "duration": 0.6315779999999975,
          "durationTicks": 768,
          "midi": 72,
          "name": "C5",
          "ticks": 51456,
          "time": 42.315726,
          "velocity": 0.3937007874015748
        },
        {
          "duration": 1.2631560000000022,
          "durationTicks": 1536,
          "midi": 70,
          "name": "A#4",
          "ticks": 52224,
          "time": 42.947303999999995,
          "velocity": 0.3937007874015748
        },
        {
          "duration": 0.6315779999999975,
          "durationTicks": 768,
          "midi": 67,
          "name": "G4",
          "ticks": 53760,
          "time": 44.21046,
          "velocity": 0.3937007874015748
        },
        {
          "duration": 0.6315780000000046,
          "durationTicks": 768,
          "midi": 63,
          "name": "D#4",
          "ticks": 54528,
          "time": 44.842037999999995,
          "velocity": 0.3937007874015748
        },
        {
          "duration": 2.5263119999999972,
          "durationTicks": 3072,
          "midi": 65,
          "name": "F4",
          "ticks": 55296,
          "time": 45.473616,
          "velocity": 0.3937007874015748
        },
        {
          "duration": 2.5263120000000043,
          "durationTicks": 3072,
          "midi": 69,
          "name": "A4",
          "ticks": 58368,
          "time": 47.999928,
          "velocity": 0.3937007874015748
        },
        {
          "duration": 0.6315779999999975,
          "durationTicks": 768,
          "midi": 65,
          "name": "F4",
          "ticks": 62208,
          "time": 51.157818,
          "velocity": 0.3937007874015748
        },
        {
          "duration": 0.6315780000000046,
          "durationTicks": 768,
          "midi": 68,
          "name": "G#4",
          "ticks": 62976,
          "time": 51.789395999999996,
          "velocity": 0.3937007874015748
        },
        {
          "duration": 0.6315779999999975,
          "durationTicks": 768,
          "midi": 72,
          "name": "C5",
          "ticks": 63744,
          "time": 52.420974,
          "velocity": 0.3937007874015748
        },
        {
          "duration": 1.2631560000000022,
          "durationTicks": 1536,
          "midi": 75,
          "name": "D#5",
          "ticks": 64512,
          "time": 53.052552,
          "velocity": 0.3937007874015748
        },
        {
          "duration": 0.6315779999999975,
          "durationTicks": 768,
          "midi": 70,
          "name": "A#4",
          "ticks": 66048,
          "time": 54.315708,
          "velocity": 0.3937007874015748
        },
        {
          "duration": 0.6315779999999975,
          "durationTicks": 768,
          "midi": 67,
          "name": "G4",
          "ticks": 66816,
          "time": 54.947286,
          "velocity": 0.3937007874015748
        },
        {
          "duration": 2.5263120000000043,
          "durationTicks": 3072,
          "midi": 68,
          "name": "G#4",
          "ticks": 67584,
          "time": 55.578863999999996,
          "velocity": 0.3937007874015748
        },
        {
          "duration": 2.5263119999999972,
          "durationTicks": 3072,
          "midi": 69,
          "name": "A4",
          "ticks": 70656,
          "time": 58.105176,
          "velocity": 0.3937007874015748
        },
        {
          "duration": 1.8947339999999997,
          "durationTicks": 2304,
          "midi": 60,
          "name": "C4",
          "ticks": 73728,
          "time": 60.631488,
          "velocity": 0.5039370078740157
        },
        {
          "duration": 1.8947339999999997,
          "durationTicks": 2304,
          "midi": 65,
          "name": "F4",
          "ticks": 73728,
          "time": 60.631488,
          "velocity": 0.5039370078740157
        },
        {
          "duration": 0.6315779999999975,
          "durationTicks": 768,
          "midi": 67,
          "name": "G4",
          "ticks": 76032,
          "time": 62.526222,
          "velocity": 0.3937007874015748
        },
        {
          "duration": 0.6315779999999975,
          "durationTicks": 768,
          "midi": 58,
          "name": "A#3",
          "ticks": 76032,
          "time": 62.526222,
          "velocity": 0.3937007874015748
        },
        {
          "duration": 1.2631560000000093,
          "durationTicks": 1536,
          "midi": 60,
          "name": "C4",
          "ticks": 76800,
          "time": 63.157799999999995,
          "velocity": 0.3937007874015748
        },
        {
          "duration": 1.2631560000000093,
          "durationTicks": 1536,
          "midi": 68,
          "name": "G#4",
          "ticks": 76800,
          "time": 63.157799999999995,
          "velocity": 0.3937007874015748
        },
        {
          "duration": 1.263155999999995,
          "durationTicks": 1536,
          "midi": 60,
          "name": "C4",
          "ticks": 78336,
          "time": 64.420956,
          "velocity": 0.3937007874015748
        },
        {
          "duration": 1.263155999999995,
          "durationTicks": 1536,
          "midi": 56,
          "name": "G#3",
          "ticks": 78336,
          "time": 64.420956,
          "velocity": 0.3937007874015748
        },
        {
          "duration": 1.8947339999999997,
          "durationTicks": 2304,
          "midi": 65,
          "name": "F4",
          "ticks": 79872,
          "time": 65.684112,
          "velocity": 0.3937007874015748
        },
        {
          "duration": 1.8947339999999997,
          "durationTicks": 2304,
          "midi": 61,
          "name": "C#4",
          "ticks": 79872,
          "time": 65.684112,
          "velocity": 0.3937007874015748
        },
        {
          "duration": 0.6315780000000046,
          "durationTicks": 768,
          "midi": 67,
          "name": "G4",
          "ticks": 82176,
          "time": 67.578846,
          "velocity": 0.3937007874015748
        },
        {
          "duration": 1.263155999999995,
          "durationTicks": 1536,
          "midi": 61,
          "name": "C#4",
          "ticks": 82944,
          "time": 68.210424,
          "velocity": 0.3937007874015748
        },
        {
          "duration": 1.263155999999995,
          "durationTicks": 1536,
          "midi": 65,
          "name": "F4",
          "ticks": 82944,
          "time": 68.210424,
          "velocity": 0.3937007874015748
        },
        {
          "duration": 0.6315780000000046,
          "durationTicks": 768,
          "midi": 60,
          "name": "C4",
          "ticks": 84480,
          "time": 69.47358,
          "velocity": 0.3937007874015748
        },
        {
          "duration": 0.6315780000000046,
          "durationTicks": 768,
          "midi": 64,
          "name": "E4",
          "ticks": 84480,
          "time": 69.47358,
          "velocity": 0.3937007874015748
        },
        {
          "duration": 0.6315779999999904,
          "durationTicks": 768,
          "midi": 67,
          "name": "G4",
          "ticks": 85248,
          "time": 70.105158,
          "velocity": 0.3937007874015748
        },
        {
          "duration": 1.8947339999999997,
          "durationTicks": 2304,
          "midi": 65,
          "name": "F4",
          "ticks": 86016,
          "time": 70.736736,
          "velocity": 0.3937007874015748
        },
        {
          "duration": 1.8947339999999997,
          "durationTicks": 2304,
          "midi": 60,
          "name": "C4",
          "ticks": 86016,
          "time": 70.736736,
          "velocity": 0.3937007874015748
        },
        {
          "duration": 0.6315780000000046,
          "durationTicks": 768,
          "midi": 58,
          "name": "A#3",
          "ticks": 88320,
          "time": 72.63147,
          "velocity": 0.3937007874015748
        },
        {
          "duration": 0.6315780000000046,
          "durationTicks": 768,
          "midi": 67,
          "name": "G4",
          "ticks": 88320,
          "time": 72.63147,
          "velocity": 0.3937007874015748
        },
        {
          "duration": 1.8947339999999997,
          "durationTicks": 2304,
          "midi": 68,
          "name": "G#4",
          "ticks": 89088,
          "time": 73.263048,
          "velocity": 0.3937007874015748
        },
        {
          "duration": 1.8947339999999997,
          "durationTicks": 2304,
          "midi": 60,
          "name": "C4",
          "ticks": 89088,
          "time": 73.263048,
          "velocity": 0.3937007874015748
        },
        {
          "duration": 0.6315780000000046,
          "durationTicks": 768,
          "midi": 75,
          "name": "D#5",
          "ticks": 91392,
          "time": 75.157782,
          "velocity": 0.3937007874015748
        },
        {
          "duration": 0.6315780000000046,
          "durationTicks": 768,
          "midi": 70,
          "name": "A#4",
          "ticks": 91392,
          "time": 75.157782,
          "velocity": 0.3937007874015748
        },
        {
          "duration": 1.8947339999999997,
          "durationTicks": 2304,
          "midi": 77,
          "name": "F5",
          "ticks": 92160,
          "time": 75.78936,
          "velocity": 0.3937007874015748
        },
        {
          "duration": 1.8947339999999997,
          "durationTicks": 2304,
          "midi": 73,
          "name": "C#5",
          "ticks": 92160,
          "time": 75.78936,
          "velocity": 0.3937007874015748
        },
        {
          "duration": 0.6315779999999904,
          "durationTicks": 768,
          "midi": 67,
          "name": "G4",
          "ticks": 94464,
          "time": 77.684094,
          "velocity": 0.3937007874015748
        },
        {
          "duration": 1.2631560000000093,
          "durationTicks": 1536,
          "midi": 65,
          "name": "F4",
          "ticks": 95232,
          "time": 78.31567199999999,
          "velocity": 0.3937007874015748
        },
        {
          "duration": 1.2631560000000093,
          "durationTicks": 1536,
          "midi": 61,
          "name": "C#4",
          "ticks": 95232,
          "time": 78.31567199999999,
          "velocity": 0.3937007874015748
        },
        {
          "duration": 0.6315779999999904,
          "durationTicks": 768,
          "midi": 64,
          "name": "E4",
          "ticks": 96768,
          "time": 79.578828,
          "velocity": 0.3937007874015748
        },
        {
          "duration": 0.6315779999999904,
          "durationTicks": 768,
          "midi": 60,
          "name": "C4",
          "ticks": 96768,
          "time": 79.578828,
          "velocity": 0.3937007874015748
        },
        {
          "duration": 0.6315780000000046,
          "durationTicks": 768,
          "midi": 67,
          "name": "G4",
          "ticks": 97536,
          "time": 80.21040599999999,
          "velocity": 0.3937007874015748
        },
        {
          "duration": 1.8947339999999997,
          "durationTicks": 2304,
          "midi": 65,
          "name": "F4",
          "ticks": 98304,
          "time": 80.841984,
          "velocity": 0.3937007874015748
        },
        {
          "duration": 1.8947339999999997,
          "durationTicks": 2304,
          "midi": 60,
          "name": "C4",
          "ticks": 98304,
          "time": 80.841984,
          "velocity": 0.3937007874015748
        },
        {
          "duration": 0.6315780000000046,
          "durationTicks": 768,
          "midi": 67,
          "name": "G4",
          "ticks": 100608,
          "time": 82.736718,
          "velocity": 0.3937007874015748
        },
        {
          "duration": 0.6315780000000046,
          "durationTicks": 768,
          "midi": 58,
          "name": "A#3",
          "ticks": 100608,
          "time": 82.736718,
          "velocity": 0.3937007874015748
        },
        {
          "duration": 1.8947339999999997,
          "durationTicks": 2304,
          "midi": 68,
          "name": "G#4",
          "ticks": 101376,
          "time": 83.368296,
          "velocity": 0.3937007874015748
        },
        {
          "duration": 1.8947339999999997,
          "durationTicks": 2304,
          "midi": 60,
          "name": "C4",
          "ticks": 101376,
          "time": 83.368296,
          "velocity": 0.3937007874015748
        },
        {
          "duration": 0.6315779999999904,
          "durationTicks": 768,
          "midi": 75,
          "name": "D#5",
          "ticks": 103680,
          "time": 85.26303,
          "velocity": 0.3937007874015748
        },
        {
          "duration": 0.6315779999999904,
          "durationTicks": 768,
          "midi": 70,
          "name": "A#4",
          "ticks": 103680,
          "time": 85.26303,
          "velocity": 0.3937007874015748
        },
        {
          "duration": 1.8947339999999997,
          "durationTicks": 2304,
          "midi": 73,
          "name": "C#5",
          "ticks": 104448,
          "time": 85.89460799999999,
          "velocity": 0.3937007874015748
        },
        {
          "duration": 1.8947339999999997,
          "durationTicks": 2304,
          "midi": 77,
          "name": "F5",
          "ticks": 104448,
          "time": 85.89460799999999,
          "velocity": 0.3937007874015748
        },
        {
          "duration": 0.6315780000000046,
          "durationTicks": 768,
          "midi": 67,
          "name": "G4",
          "ticks": 106752,
          "time": 87.78934199999999,
          "velocity": 0.3937007874015748
        },
        {
          "duration": 1.263155999999995,
          "durationTicks": 1536,
          "midi": 61,
          "name": "C#4",
          "ticks": 107520,
          "time": 88.42092,
          "velocity": 0.3937007874015748
        },
        {
          "duration": 1.263155999999995,
          "durationTicks": 1536,
          "midi": 65,
          "name": "F4",
          "ticks": 107520,
          "time": 88.42092,
          "velocity": 0.3937007874015748
        },
        {
          "duration": 0.6315780000000046,
          "durationTicks": 768,
          "midi": 60,
          "name": "C4",
          "ticks": 109056,
          "time": 89.68407599999999,
          "velocity": 0.3937007874015748
        },
        {
          "duration": 0.6315780000000046,
          "durationTicks": 768,
          "midi": 64,
          "name": "E4",
          "ticks": 109056,
          "time": 89.68407599999999,
          "velocity": 0.3937007874015748
        },
        {
          "duration": 0.6315780000000046,
          "durationTicks": 768,
          "midi": 67,
          "name": "G4",
          "ticks": 109824,
          "time": 90.315654,
          "velocity": 0.3937007874015748
        },
        {
          "duration": 1.8947339999999997,
          "durationTicks": 2304,
          "midi": 65,
          "name": "F4",
          "ticks": 110592,
          "time": 90.947232,
          "velocity": 0.3937007874015748
        },
        {
          "duration": 1.8947339999999997,
          "durationTicks": 2304,
          "midi": 60,
          "name": "C4",
          "ticks": 110592,
          "time": 90.947232,
          "velocity": 0.3937007874015748
        },
        {
          "duration": 0.6315779999999904,
          "durationTicks": 768,
          "midi": 67,
          "name": "G4",
          "ticks": 112896,
          "time": 92.841966,
          "velocity": 0.3937007874015748
        },
        {
          "duration": 0.6315779999999904,
          "durationTicks": 768,
          "midi": 58,
          "name": "A#3",
          "ticks": 112896,
          "time": 92.841966,
          "velocity": 0.3937007874015748
        },
        {
          "duration": 1.8947339999999997,
          "durationTicks": 2304,
          "midi": 60,
          "name": "C4",
          "ticks": 113664,
          "time": 93.47354399999999,
          "velocity": 0.3937007874015748
        },
        {
          "duration": 1.8947339999999997,
          "durationTicks": 2304,
          "midi": 68,
          "name": "G#4",
          "ticks": 113664,
          "time": 93.47354399999999,
          "velocity": 0.3937007874015748
        },
        {
          "duration": 0.6315780000000046,
          "durationTicks": 768,
          "midi": 70,
          "name": "A#4",
          "ticks": 115968,
          "time": 95.36827799999999,
          "velocity": 0.3937007874015748
        },
        {
          "duration": 0.6315780000000046,
          "durationTicks": 768,
          "midi": 75,
          "name": "D#5",
          "ticks": 115968,
          "time": 95.36827799999999,
          "velocity": 0.3937007874015748
        },
        {
          "duration": 1.8947339999999997,
          "durationTicks": 2304,
          "midi": 73,
          "name": "C#5",
          "ticks": 116736,
          "time": 95.999856,
          "velocity": 0.3937007874015748
        },
        {
          "duration": 1.8947339999999997,
          "durationTicks": 2304,
          "midi": 77,
          "name": "F5",
          "ticks": 116736,
          "time": 95.999856,
          "velocity": 0.3937007874015748
        },
        {
          "duration": 0.6315780000000046,
          "durationTicks": 768,
          "midi": 67,
          "name": "G4",
          "ticks": 119040,
          "time": 97.89459,
          "velocity": 0.3937007874015748
        },
        {
          "duration": 1.263155999999995,
          "durationTicks": 1536,
          "midi": 61,
          "name": "C#4",
          "ticks": 119808,
          "time": 98.526168,
          "velocity": 0.3937007874015748
        },
        {
          "duration": 1.263155999999995,
          "durationTicks": 1536,
          "midi": 65,
          "name": "F4",
          "ticks": 119808,
          "time": 98.526168,
          "velocity": 0.3937007874015748
        },
        {
          "duration": 0.6315780000000046,
          "durationTicks": 768,
          "midi": 64,
          "name": "E4",
          "ticks": 121344,
          "time": 99.789324,
          "velocity": 0.3937007874015748
        },
        {
          "duration": 0.6315780000000046,
          "durationTicks": 768,
          "midi": 60,
          "name": "C4",
          "ticks": 121344,
          "time": 99.789324,
          "velocity": 0.3937007874015748
        },
        {
          "duration": 0.6315780000000046,
          "durationTicks": 768,
          "midi": 67,
          "name": "G4",
          "ticks": 122112,
          "time": 100.420902,
          "velocity": 0.3937007874015748
        },
        {
          "duration": 1.8947339999999997,
          "durationTicks": 2304,
          "midi": 65,
          "name": "F4",
          "ticks": 122880,
          "time": 101.05248,
          "velocity": 0.3937007874015748
        },
        {
          "duration": 1.8947339999999997,
          "durationTicks": 2304,
          "midi": 60,
          "name": "C4",
          "ticks": 122880,
          "time": 101.05248,
          "velocity": 0.3937007874015748
        },
        {
          "duration": 0.6315779999999904,
          "durationTicks": 768,
          "midi": 67,
          "name": "G4",
          "ticks": 125184,
          "time": 102.947214,
          "velocity": 0.3937007874015748
        },
        {
          "duration": 0.6315779999999904,
          "durationTicks": 768,
          "midi": 58,
          "name": "A#3",
          "ticks": 125184,
          "time": 102.947214,
          "velocity": 0.3937007874015748
        },
        {
          "duration": 1.8947339999999997,
          "durationTicks": 2304,
          "midi": 60,
          "name": "C4",
          "ticks": 125952,
          "time": 103.57879199999999,
          "velocity": 0.3937007874015748
        },
        {
          "duration": 1.8947339999999997,
          "durationTicks": 2304,
          "midi": 68,
          "name": "G#4",
          "ticks": 125952,
          "time": 103.57879199999999,
          "velocity": 0.3937007874015748
        },
        {
          "duration": 0.6315780000000046,
          "durationTicks": 768,
          "midi": 75,
          "name": "D#5",
          "ticks": 128256,
          "time": 105.47352599999999,
          "velocity": 0.3937007874015748
        },
        {
          "duration": 0.6315780000000046,
          "durationTicks": 768,
          "midi": 70,
          "name": "A#4",
          "ticks": 128256,
          "time": 105.47352599999999,
          "velocity": 0.3937007874015748
        },
        {
          "duration": 1.8947339999999997,
          "durationTicks": 2304,
          "midi": 77,
          "name": "F5",
          "ticks": 129024,
          "time": 106.105104,
          "velocity": 0.3937007874015748
        },
        {
          "duration": 1.8947339999999997,
          "durationTicks": 2304,
          "midi": 73,
          "name": "C#5",
          "ticks": 129024,
          "time": 106.105104,
          "velocity": 0.3937007874015748
        },
        {
          "duration": 0.6315780000000046,
          "durationTicks": 768,
          "midi": 67,
          "name": "G4",
          "ticks": 131328,
          "time": 107.999838,
          "velocity": 0.3937007874015748
        },
        {
          "duration": 1.263155999999995,
          "durationTicks": 1536,
          "midi": 61,
          "name": "C#4",
          "ticks": 132096,
          "time": 108.631416,
          "velocity": 0.3937007874015748
        },
        {
          "duration": 1.263155999999995,
          "durationTicks": 1536,
          "midi": 65,
          "name": "F4",
          "ticks": 132096,
          "time": 108.631416,
          "velocity": 0.3937007874015748
        },
        {
          "duration": 1.1842087499999963,
          "durationTicks": 1440,
          "midi": 60,
          "name": "C4",
          "ticks": 133632,
          "time": 109.894572,
          "velocity": 0.3937007874015748
        },
        {
          "duration": 1.1842087499999963,
          "durationTicks": 1440,
          "midi": 64,
          "name": "E4",
          "ticks": 133632,
          "time": 109.894572,
          "velocity": 0.3937007874015748
        },
        {
          "duration": 0.5526307499999916,
          "durationTicks": 672,
          "midi": 67,
          "name": "G4",
          "ticks": 134400,
          "time": 110.52615,
          "velocity": 0.3937007874015748
        }
      ],
      "endOfTrackTicks": 135072
    },
    {
      "channel": 9,
      "controlChanges": {},
      "pitchBends": [],
      "instrument": {
        "family": "drums",
        "number": 255
      },
      "name": "2013 Drum Kit",
      "notes": [
        {
          "duration": 0.0789472499999988,
          "durationTicks": 96,
          "midi": 40,
          "name": "E2",
          "ticks": 24576,
          "time": 20.210496,
          "velocity": 0.4015748031496063
        },
        {
          "duration": 0.0789472499999988,
          "durationTicks": 96,
          "midi": 40,
          "name": "E2",
          "ticks": 24576,
          "time": 20.210496,
          "velocity": 0.4015748031496063
        },
        {
          "duration": 0.0789472499999988,
          "durationTicks": 96,
          "midi": 38,
          "name": "D2",
          "ticks": 24576,
          "time": 20.210496,
          "velocity": 0.4015748031496063
        },
        {
          "duration": 0.0789472499999988,
          "durationTicks": 96,
          "midi": 40,
          "name": "E2",
          "ticks": 24768,
          "time": 20.3683905,
          "velocity": 0.4015748031496063
        },
        {
          "duration": 0.07894725000000236,
          "durationTicks": 96,
          "midi": 38,
          "name": "D2",
          "ticks": 24960,
          "time": 20.526284999999998,
          "velocity": 0.4015748031496063
        },
        {
          "duration": 0.07894725000000236,
          "durationTicks": 96,
          "midi": 38,
          "name": "D2",
          "ticks": 24960,
          "time": 20.526284999999998,
          "velocity": 0.4015748031496063
        },
        {
          "duration": 0.0789472499999988,
          "durationTicks": 96,
          "midi": 40,
          "name": "E2",
          "ticks": 25152,
          "time": 20.6841795,
          "velocity": 0.4015748031496063
        },
        {
          "duration": 0.0789472499999988,
          "durationTicks": 96,
          "midi": 40,
          "name": "E2",
          "ticks": 25152,
          "time": 20.6841795,
          "velocity": 0.4015748031496063
        },
        {
          "duration": 0.0789472499999988,
          "durationTicks": 96,
          "midi": 40,
          "name": "E2",
          "ticks": 25344,
          "time": 20.842074,
          "velocity": 0.4015748031496063
        },
        {
          "duration": 0.0789472499999988,
          "durationTicks": 96,
          "midi": 38,
          "name": "D2",
          "ticks": 25344,
          "time": 20.842074,
          "velocity": 0.4015748031496063
        },
        {
          "duration": 0.0789472499999988,
          "durationTicks": 96,
          "midi": 40,
          "name": "E2",
          "ticks": 25344,
          "time": 20.842074,
          "velocity": 0.4015748031496063
        },
        {
          "duration": 0.07894725000000236,
          "durationTicks": 96,
          "midi": 38,
          "name": "D2",
          "ticks": 25536,
          "time": 20.999968499999998,
          "velocity": 0.4015748031496063
        },
        {
          "duration": 0.07894725000000236,
          "durationTicks": 96,
          "midi": 40,
          "name": "E2",
          "ticks": 25536,
          "time": 20.999968499999998,
          "velocity": 0.4015748031496063
        },
        {
          "duration": 0.0789472499999988,
          "durationTicks": 96,
          "midi": 38,
          "name": "D2",
          "ticks": 25728,
          "time": 21.157863,
          "velocity": 0.4015748031496063
        },
        {
          "duration": 0.0789472499999988,
          "durationTicks": 96,
          "midi": 40,
          "name": "E2",
          "ticks": 25728,
          "time": 21.157863,
          "velocity": 0.4015748031496063
        },
        {
          "duration": 0.0789472499999988,
          "durationTicks": 96,
          "midi": 38,
          "name": "D2",
          "ticks": 25920,
          "time": 21.3157575,
          "velocity": 0.4015748031496063
        },
        {
          "duration": 0.0789472499999988,
          "durationTicks": 96,
          "midi": 40,
          "name": "E2",
          "ticks": 25920,
          "time": 21.3157575,
          "velocity": 0.4015748031496063
        },
        {
          "duration": 0.07894725000000236,
          "durationTicks": 96,
          "midi": 40,
          "name": "E2",
          "ticks": 26112,
          "time": 21.473651999999998,
          "velocity": 0.4015748031496063
        },
        {
          "duration": 0.07894725000000236,
          "durationTicks": 96,
          "midi": 40,
          "name": "E2",
          "ticks": 26112,
          "time": 21.473651999999998,
          "velocity": 0.4015748031496063
        },
        {
          "duration": 0.07894725000000236,
          "durationTicks": 96,
          "midi": 38,
          "name": "D2",
          "ticks": 26112,
          "time": 21.473651999999998,
          "velocity": 0.4015748031496063
        },
        {
          "duration": 0.0789472499999988,
          "durationTicks": 96,
          "midi": 40,
          "name": "E2",
          "ticks": 26304,
          "time": 21.6315465,
          "velocity": 0.4015748031496063
        },
        {
          "duration": 0.0789472499999988,
          "durationTicks": 96,
          "midi": 38,
          "name": "D2",
          "ticks": 26496,
          "time": 21.789441,
          "velocity": 0.4015748031496063
        },
        {
          "duration": 0.0789472499999988,
          "durationTicks": 96,
          "midi": 38,
          "name": "D2",
          "ticks": 26496,
          "time": 21.789441,
          "velocity": 0.4015748031496063
        },
        {
          "duration": 0.07894725000000236,
          "durationTicks": 96,
          "midi": 40,
          "name": "E2",
          "ticks": 26688,
          "time": 21.947335499999998,
          "velocity": 0.4015748031496063
        },
        {
          "duration": 0.07894725000000236,
          "durationTicks": 96,
          "midi": 40,
          "name": "E2",
          "ticks": 26688,
          "time": 21.947335499999998,
          "velocity": 0.4015748031496063
        },
        {
          "duration": 0.0789472499999988,
          "durationTicks": 96,
          "midi": 38,
          "name": "D2",
          "ticks": 26880,
          "time": 22.10523,
          "velocity": 0.4015748031496063
        },
        {
          "duration": 0.0789472499999988,
          "durationTicks": 96,
          "midi": 40,
          "name": "E2",
          "ticks": 26880,
          "time": 22.10523,
          "velocity": 0.4015748031496063
        },
        {
          "duration": 0.0789472499999988,
          "durationTicks": 96,
          "midi": 40,
          "name": "E2",
          "ticks": 26880,
          "time": 22.10523,
          "velocity": 0.4015748031496063
        },
        {
          "duration": 0.0789472499999988,
          "durationTicks": 96,
          "midi": 38,
          "name": "D2",
          "ticks": 27072,
          "time": 22.2631245,
          "velocity": 0.4015748031496063
        },
        {
          "duration": 0.0789472499999988,
          "durationTicks": 96,
          "midi": 40,
          "name": "E2",
          "ticks": 27072,
          "time": 22.2631245,
          "velocity": 0.4015748031496063
        },
        {
          "duration": 0.07894725000000236,
          "durationTicks": 96,
          "midi": 40,
          "name": "E2",
          "ticks": 27264,
          "time": 22.421018999999998,
          "velocity": 0.4015748031496063
        },
        {
          "duration": 0.07894725000000236,
          "durationTicks": 96,
          "midi": 38,
          "name": "D2",
          "ticks": 27264,
          "time": 22.421018999999998,
          "velocity": 0.4015748031496063
        },
        {
          "duration": 0.0789472499999988,
          "durationTicks": 96,
          "midi": 38,
          "name": "D2",
          "ticks": 27456,
          "time": 22.5789135,
          "velocity": 0.4015748031496063
        },
        {
          "duration": 0.0789472499999988,
          "durationTicks": 96,
          "midi": 40,
          "name": "E2",
          "ticks": 27456,
          "time": 22.5789135,
          "velocity": 0.4015748031496063
        },
        {
          "duration": 0.0789472499999988,
          "durationTicks": 96,
          "midi": 40,
          "name": "E2",
          "ticks": 27648,
          "time": 22.736808,
          "velocity": 0.4015748031496063
        },
        {
          "duration": 0.0789472499999988,
          "durationTicks": 96,
          "midi": 40,
          "name": "E2",
          "ticks": 27648,
          "time": 22.736808,
          "velocity": 0.4015748031496063
        },
        {
          "duration": 0.0789472499999988,
          "durationTicks": 96,
          "midi": 38,
          "name": "D2",
          "ticks": 27648,
          "time": 22.736808,
          "velocity": 0.4015748031496063
        },
        {
          "duration": 0.07894725000000236,
          "durationTicks": 96,
          "midi": 40,
          "name": "E2",
          "ticks": 27840,
          "time": 22.894702499999998,
          "velocity": 0.4015748031496063
        },
        {
          "duration": 0.0789472499999988,
          "durationTicks": 96,
          "midi": 38,
          "name": "D2",
          "ticks": 28032,
          "time": 23.052597,
          "velocity": 0.4015748031496063
        },
        {
          "duration": 0.0789472499999988,
          "durationTicks": 96,
          "midi": 38,
          "name": "D2",
          "ticks": 28032,
          "time": 23.052597,
          "velocity": 0.4015748031496063
        },
        {
          "duration": 0.0789472499999988,
          "durationTicks": 96,
          "midi": 40,
          "name": "E2",
          "ticks": 28224,
          "time": 23.2104915,
          "velocity": 0.4015748031496063
        },
        {
          "duration": 0.0789472499999988,
          "durationTicks": 96,
          "midi": 40,
          "name": "E2",
          "ticks": 28224,
          "time": 23.2104915,
          "velocity": 0.4015748031496063
        },
        {
          "duration": 0.07894725000000236,
          "durationTicks": 96,
          "midi": 40,
          "name": "E2",
          "ticks": 28416,
          "time": 23.368385999999997,
          "velocity": 0.4015748031496063
        },
        {
          "duration": 0.07894725000000236,
          "durationTicks": 96,
          "midi": 40,
          "name": "E2",
          "ticks": 28416,
          "time": 23.368385999999997,
          "velocity": 0.4015748031496063
        },
        {
          "duration": 0.07894725000000236,
          "durationTicks": 96,
          "midi": 38,
          "name": "D2",
          "ticks": 28416,
          "time": 23.368385999999997,
          "velocity": 0.4015748031496063
        },
        {
          "duration": 0.0789472499999988,
          "durationTicks": 96,
          "midi": 40,
          "name": "E2",
          "ticks": 28608,
          "time": 23.5262805,
          "velocity": 0.4015748031496063
        },
        {
          "duration": 0.0789472499999988,
          "durationTicks": 96,
          "midi": 38,
          "name": "D2",
          "ticks": 28608,
          "time": 23.5262805,
          "velocity": 0.4015748031496063
        },
        {
          "duration": 0.0789472499999988,
          "durationTicks": 96,
          "midi": 40,
          "name": "E2",
          "ticks": 28800,
          "time": 23.684175,
          "velocity": 0.4015748031496063
        },
        {
          "duration": 0.0789472499999988,
          "durationTicks": 96,
          "midi": 38,
          "name": "D2",
          "ticks": 28800,
          "time": 23.684175,
          "velocity": 0.4015748031496063
        },
        {
          "duration": 0.07894725000000236,
          "durationTicks": 96,
          "midi": 40,
          "name": "E2",
          "ticks": 28992,
          "time": 23.842069499999997,
          "velocity": 0.4015748031496063
        },
        {
          "duration": 0.07894725000000236,
          "durationTicks": 96,
          "midi": 38,
          "name": "D2",
          "ticks": 28992,
          "time": 23.842069499999997,
          "velocity": 0.4015748031496063
        },
        {
          "duration": 0.0789472499999988,
          "durationTicks": 96,
          "midi": 38,
          "name": "D2",
          "ticks": 29184,
          "time": 23.999964,
          "velocity": 0.4015748031496063
        },
        {
          "duration": 0.0789472499999988,
          "durationTicks": 96,
          "midi": 40,
          "name": "E2",
          "ticks": 29184,
          "time": 23.999964,
          "velocity": 0.4015748031496063
        },
        {
          "duration": 0.0789472499999988,
          "durationTicks": 96,
          "midi": 40,
          "name": "E2",
          "ticks": 29184,
          "time": 23.999964,
          "velocity": 0.4015748031496063
        },
        {
          "duration": 0.0789472499999988,
          "durationTicks": 96,
          "midi": 40,
          "name": "E2",
          "ticks": 29376,
          "time": 24.1578585,
          "velocity": 0.4015748031496063
        },
        {
          "duration": 0.07894725000000236,
          "durationTicks": 96,
          "midi": 38,
          "name": "D2",
          "ticks": 29568,
          "time": 24.315752999999997,
          "velocity": 0.4015748031496063
        },
        {
          "duration": 0.07894725000000236,
          "durationTicks": 96,
          "midi": 38,
          "name": "D2",
          "ticks": 29568,
          "time": 24.315752999999997,
          "velocity": 0.4015748031496063
        },
        {
          "duration": 0.0789472499999988,
          "durationTicks": 96,
          "midi": 40,
          "name": "E2",
          "ticks": 29760,
          "time": 24.4736475,
          "velocity": 0.4015748031496063
        },
        {
          "duration": 0.0789472499999988,
          "durationTicks": 96,
          "midi": 40,
          "name": "E2",
          "ticks": 29760,
          "time": 24.4736475,
          "velocity": 0.4015748031496063
        },
        {
          "duration": 0.0789472499999988,
          "durationTicks": 96,
          "midi": 40,
          "name": "E2",
          "ticks": 29952,
          "time": 24.631542,
          "velocity": 0.4015748031496063
        },
        {
          "duration": 0.0789472499999988,
          "durationTicks": 96,
          "midi": 38,
          "name": "D2",
          "ticks": 29952,
          "time": 24.631542,
          "velocity": 0.4015748031496063
        },
        {
          "duration": 0.0789472499999988,
          "durationTicks": 96,
          "midi": 40,
          "name": "E2",
          "ticks": 29952,
          "time": 24.631542,
          "velocity": 0.4015748031496063
        },
        {
          "duration": 0.07894725000000236,
          "durationTicks": 96,
          "midi": 38,
          "name": "D2",
          "ticks": 30144,
          "time": 24.789436499999997,
          "velocity": 0.4015748031496063
        },
        {
          "duration": 0.07894725000000236,
          "durationTicks": 96,
          "midi": 40,
          "name": "E2",
          "ticks": 30144,
          "time": 24.789436499999997,
          "velocity": 0.4015748031496063
        },
        {
          "duration": 0.0789472499999988,
          "durationTicks": 96,
          "midi": 40,
          "name": "E2",
          "ticks": 30336,
          "time": 24.947331,
          "velocity": 0.4015748031496063
        },
        {
          "duration": 0.0789472499999988,
          "durationTicks": 96,
          "midi": 38,
          "name": "D2",
          "ticks": 30336,
          "time": 24.947331,
          "velocity": 0.4015748031496063
        },
        {
          "duration": 0.0789472499999988,
          "durationTicks": 96,
          "midi": 40,
          "name": "E2",
          "ticks": 30528,
          "time": 25.1052255,
          "velocity": 0.4015748031496063
        },
        {
          "duration": 0.0789472499999988,
          "durationTicks": 96,
          "midi": 38,
          "name": "D2",
          "ticks": 30528,
          "time": 25.1052255,
          "velocity": 0.4015748031496063
        },
        {
          "duration": 0.0789472499999988,
          "durationTicks": 96,
          "midi": 38,
          "name": "D2",
          "ticks": 30720,
          "time": 25.26312,
          "velocity": 0.4015748031496063
        },
        {
          "duration": 0.0789472499999988,
          "durationTicks": 96,
          "midi": 40,
          "name": "E2",
          "ticks": 30720,
          "time": 25.26312,
          "velocity": 0.4015748031496063
        },
        {
          "duration": 0.0789472499999988,
          "durationTicks": 96,
          "midi": 40,
          "name": "E2",
          "ticks": 30720,
          "time": 25.26312,
          "velocity": 0.4015748031496063
        },
        {
          "duration": 0.07894725000000236,
          "durationTicks": 96,
          "midi": 40,
          "name": "E2",
          "ticks": 30912,
          "time": 25.4210145,
          "velocity": 0.4015748031496063
        },
        {
          "duration": 0.0789472499999988,
          "durationTicks": 96,
          "midi": 38,
          "name": "D2",
          "ticks": 31104,
          "time": 25.578909,
          "velocity": 0.4015748031496063
        },
        {
          "duration": 0.0789472499999988,
          "durationTicks": 96,
          "midi": 38,
          "name": "D2",
          "ticks": 31104,
          "time": 25.578909,
          "velocity": 0.4015748031496063
        },
        {
          "duration": 0.0789472499999988,
          "durationTicks": 96,
          "midi": 40,
          "name": "E2",
          "ticks": 31296,
          "time": 25.7368035,
          "velocity": 0.4015748031496063
        },
        {
          "duration": 0.0789472499999988,
          "durationTicks": 96,
          "midi": 40,
          "name": "E2",
          "ticks": 31296,
          "time": 25.7368035,
          "velocity": 0.4015748031496063
        },
        {
          "duration": 0.07894725000000236,
          "durationTicks": 96,
          "midi": 40,
          "name": "E2",
          "ticks": 31488,
          "time": 25.894697999999998,
          "velocity": 0.4015748031496063
        },
        {
          "duration": 0.07894725000000236,
          "durationTicks": 96,
          "midi": 40,
          "name": "E2",
          "ticks": 31488,
          "time": 25.894697999999998,
          "velocity": 0.4015748031496063
        },
        {
          "duration": 0.07894725000000236,
          "durationTicks": 96,
          "midi": 38,
          "name": "D2",
          "ticks": 31488,
          "time": 25.894697999999998,
          "velocity": 0.4015748031496063
        },
        {
          "duration": 0.0789472499999988,
          "durationTicks": 96,
          "midi": 38,
          "name": "D2",
          "ticks": 31680,
          "time": 26.0525925,
          "velocity": 0.4015748031496063
        },
        {
          "duration": 0.0789472499999988,
          "durationTicks": 96,
          "midi": 40,
          "name": "E2",
          "ticks": 31680,
          "time": 26.0525925,
          "velocity": 0.4015748031496063
        },
        {
          "duration": 0.0789472499999988,
          "durationTicks": 96,
          "midi": 38,
          "name": "D2",
          "ticks": 31872,
          "time": 26.210487,
          "velocity": 0.4015748031496063
        },
        {
          "duration": 0.0789472499999988,
          "durationTicks": 96,
          "midi": 40,
          "name": "E2",
          "ticks": 31872,
          "time": 26.210487,
          "velocity": 0.4015748031496063
        },
        {
          "duration": 0.07894725000000236,
          "durationTicks": 96,
          "midi": 38,
          "name": "D2",
          "ticks": 32064,
          "time": 26.368381499999998,
          "velocity": 0.4015748031496063
        },
        {
          "duration": 0.07894725000000236,
          "durationTicks": 96,
          "midi": 40,
          "name": "E2",
          "ticks": 32064,
          "time": 26.368381499999998,
          "velocity": 0.4015748031496063
        },
        {
          "duration": 0.0789472499999988,
          "durationTicks": 96,
          "midi": 40,
          "name": "E2",
          "ticks": 32256,
          "time": 26.526276,
          "velocity": 0.4015748031496063
        },
        {
          "duration": 0.0789472499999988,
          "durationTicks": 96,
          "midi": 38,
          "name": "D2",
          "ticks": 32256,
          "time": 26.526276,
          "velocity": 0.4015748031496063
        },
        {
          "duration": 0.0789472499999988,
          "durationTicks": 96,
          "midi": 40,
          "name": "E2",
          "ticks": 32256,
          "time": 26.526276,
          "velocity": 0.4015748031496063
        },
        {
          "duration": 0.0789472499999988,
          "durationTicks": 96,
          "midi": 40,
          "name": "E2",
          "ticks": 32448,
          "time": 26.6841705,
          "velocity": 0.4015748031496063
        },
        {
          "duration": 0.07894725000000236,
          "durationTicks": 96,
          "midi": 38,
          "name": "D2",
          "ticks": 32640,
          "time": 26.842064999999998,
          "velocity": 0.4015748031496063
        },
        {
          "duration": 0.07894725000000236,
          "durationTicks": 96,
          "midi": 38,
          "name": "D2",
          "ticks": 32640,
          "time": 26.842064999999998,
          "velocity": 0.4015748031496063
        },
        {
          "duration": 0.0789472499999988,
          "durationTicks": 96,
          "midi": 40,
          "name": "E2",
          "ticks": 32832,
          "time": 26.9999595,
          "velocity": 0.4015748031496063
        },
        {
          "duration": 0.0789472499999988,
          "durationTicks": 96,
          "midi": 40,
          "name": "E2",
          "ticks": 32832,
          "time": 26.9999595,
          "velocity": 0.4015748031496063
        },
        {
          "duration": 0.0789472499999988,
          "durationTicks": 96,
          "midi": 40,
          "name": "E2",
          "ticks": 33024,
          "time": 27.157854,
          "velocity": 0.4015748031496063
        },
        {
          "duration": 0.0789472499999988,
          "durationTicks": 96,
          "midi": 38,
          "name": "D2",
          "ticks": 33024,
          "time": 27.157854,
          "velocity": 0.4015748031496063
        },
        {
          "duration": 0.0789472499999988,
          "durationTicks": 96,
          "midi": 40,
          "name": "E2",
          "ticks": 33024,
          "time": 27.157854,
          "velocity": 0.4015748031496063
        },
        {
          "duration": 0.07894725000000236,
          "durationTicks": 96,
          "midi": 38,
          "name": "D2",
          "ticks": 33216,
          "time": 27.315748499999998,
          "velocity": 0.4015748031496063
        },
        {
          "duration": 0.07894725000000236,
          "durationTicks": 96,
          "midi": 40,
          "name": "E2",
          "ticks": 33216,
          "time": 27.315748499999998,
          "velocity": 0.4015748031496063
        },
        {
          "duration": 0.0789472499999988,
          "durationTicks": 96,
          "midi": 38,
          "name": "D2",
          "ticks": 33408,
          "time": 27.473643,
          "velocity": 0.4015748031496063
        },
        {
          "duration": 0.0789472499999988,
          "durationTicks": 96,
          "midi": 40,
          "name": "E2",
          "ticks": 33408,
          "time": 27.473643,
          "velocity": 0.4015748031496063
        },
        {
          "duration": 0.0789472499999988,
          "durationTicks": 96,
          "midi": 38,
          "name": "D2",
          "ticks": 33600,
          "time": 27.6315375,
          "velocity": 0.4015748031496063
        },
        {
          "duration": 0.0789472499999988,
          "durationTicks": 96,
          "midi": 40,
          "name": "E2",
          "ticks": 33600,
          "time": 27.6315375,
          "velocity": 0.4015748031496063
        },
        {
          "duration": 0.07894725000000236,
          "durationTicks": 96,
          "midi": 38,
          "name": "D2",
          "ticks": 33792,
          "time": 27.789431999999998,
          "velocity": 0.4015748031496063
        },
        {
          "duration": 0.07894725000000236,
          "durationTicks": 96,
          "midi": 40,
          "name": "E2",
          "ticks": 33792,
          "time": 27.789431999999998,
          "velocity": 0.4015748031496063
        },
        {
          "duration": 0.07894725000000236,
          "durationTicks": 96,
          "midi": 40,
          "name": "E2",
          "ticks": 33792,
          "time": 27.789431999999998,
          "velocity": 0.4015748031496063
        },
        {
          "duration": 0.0789472499999988,
          "durationTicks": 96,
          "midi": 40,
          "name": "E2",
          "ticks": 33984,
          "time": 27.9473265,
          "velocity": 0.4015748031496063
        },
        {
          "duration": 0.0789472499999988,
          "durationTicks": 96,
          "midi": 38,
          "name": "D2",
          "ticks": 34176,
          "time": 28.105221,
          "velocity": 0.4015748031496063
        },
        {
          "duration": 0.0789472499999988,
          "durationTicks": 96,
          "midi": 38,
          "name": "D2",
          "ticks": 34176,
          "time": 28.105221,
          "velocity": 0.4015748031496063
        },
        {
          "duration": 0.07894725000000236,
          "durationTicks": 96,
          "midi": 40,
          "name": "E2",
          "ticks": 34368,
          "time": 28.263115499999998,
          "velocity": 0.4015748031496063
        },
        {
          "duration": 0.07894725000000236,
          "durationTicks": 96,
          "midi": 40,
          "name": "E2",
          "ticks": 34368,
          "time": 28.263115499999998,
          "velocity": 0.4015748031496063
        },
        {
          "duration": 0.0789472499999988,
          "durationTicks": 96,
          "midi": 38,
          "name": "D2",
          "ticks": 34560,
          "time": 28.42101,
          "velocity": 0.4015748031496063
        },
        {
          "duration": 0.0789472499999988,
          "durationTicks": 96,
          "midi": 40,
          "name": "E2",
          "ticks": 34560,
          "time": 28.42101,
          "velocity": 0.4015748031496063
        },
        {
          "duration": 0.0789472499999988,
          "durationTicks": 96,
          "midi": 40,
          "name": "E2",
          "ticks": 34560,
          "time": 28.42101,
          "velocity": 0.4015748031496063
        },
        {
          "duration": 0.0789472499999988,
          "durationTicks": 96,
          "midi": 38,
          "name": "D2",
          "ticks": 34752,
          "time": 28.5789045,
          "velocity": 0.4015748031496063
        },
        {
          "duration": 0.0789472499999988,
          "durationTicks": 96,
          "midi": 40,
          "name": "E2",
          "ticks": 34752,
          "time": 28.5789045,
          "velocity": 0.4015748031496063
        },
        {
          "duration": 0.07894725000000236,
          "durationTicks": 96,
          "midi": 40,
          "name": "E2",
          "ticks": 34944,
          "time": 28.736798999999998,
          "velocity": 0.4015748031496063
        },
        {
          "duration": 0.07894725000000236,
          "durationTicks": 96,
          "midi": 38,
          "name": "D2",
          "ticks": 34944,
          "time": 28.736798999999998,
          "velocity": 0.4015748031496063
        },
        {
          "duration": 0.0789472499999988,
          "durationTicks": 96,
          "midi": 40,
          "name": "E2",
          "ticks": 35136,
          "time": 28.8946935,
          "velocity": 0.4015748031496063
        },
        {
          "duration": 0.0789472499999988,
          "durationTicks": 96,
          "midi": 38,
          "name": "D2",
          "ticks": 35136,
          "time": 28.8946935,
          "velocity": 0.4015748031496063
        },
        {
          "duration": 0.0789472499999988,
          "durationTicks": 96,
          "midi": 40,
          "name": "E2",
          "ticks": 35328,
          "time": 29.052588,
          "velocity": 0.4015748031496063
        },
        {
          "duration": 0.0789472499999988,
          "durationTicks": 96,
          "midi": 40,
          "name": "E2",
          "ticks": 35328,
          "time": 29.052588,
          "velocity": 0.4015748031496063
        },
        {
          "duration": 0.0789472499999988,
          "durationTicks": 96,
          "midi": 38,
          "name": "D2",
          "ticks": 35328,
          "time": 29.052588,
          "velocity": 0.4015748031496063
        },
        {
          "duration": 0.07894725000000236,
          "durationTicks": 96,
          "midi": 40,
          "name": "E2",
          "ticks": 35520,
          "time": 29.210482499999998,
          "velocity": 0.4015748031496063
        },
        {
          "duration": 0.0789472499999988,
          "durationTicks": 96,
          "midi": 38,
          "name": "D2",
          "ticks": 35712,
          "time": 29.368377,
          "velocity": 0.4015748031496063
        },
        {
          "duration": 0.0789472499999988,
          "durationTicks": 96,
          "midi": 38,
          "name": "D2",
          "ticks": 35712,
          "time": 29.368377,
          "velocity": 0.4015748031496063
        },
        {
          "duration": 0.0789472499999988,
          "durationTicks": 96,
          "midi": 40,
          "name": "E2",
          "ticks": 35904,
          "time": 29.5262715,
          "velocity": 0.4015748031496063
        },
        {
          "duration": 0.0789472499999988,
          "durationTicks": 96,
          "midi": 40,
          "name": "E2",
          "ticks": 35904,
          "time": 29.5262715,
          "velocity": 0.4015748031496063
        },
        {
          "duration": 0.07894725000000236,
          "durationTicks": 96,
          "midi": 40,
          "name": "E2",
          "ticks": 36096,
          "time": 29.684165999999998,
          "velocity": 0.4015748031496063
        },
        {
          "duration": 0.07894725000000236,
          "durationTicks": 96,
          "midi": 38,
          "name": "D2",
          "ticks": 36096,
          "time": 29.684165999999998,
          "velocity": 0.4015748031496063
        },
        {
          "duration": 0.07894725000000236,
          "durationTicks": 96,
          "midi": 40,
          "name": "E2",
          "ticks": 36096,
          "time": 29.684165999999998,
          "velocity": 0.4015748031496063
        },
        {
          "duration": 0.0789472499999988,
          "durationTicks": 96,
          "midi": 38,
          "name": "D2",
          "ticks": 36288,
          "time": 29.8420605,
          "velocity": 0.4015748031496063
        },
        {
          "duration": 0.0789472499999988,
          "durationTicks": 96,
          "midi": 40,
          "name": "E2",
          "ticks": 36288,
          "time": 29.8420605,
          "velocity": 0.4015748031496063
        },
        {
          "duration": 0.0789472499999988,
          "durationTicks": 96,
          "midi": 38,
          "name": "D2",
          "ticks": 36480,
          "time": 29.999955,
          "velocity": 0.4015748031496063
        },
        {
          "duration": 0.0789472499999988,
          "durationTicks": 96,
          "midi": 40,
          "name": "E2",
          "ticks": 36480,
          "time": 29.999955,
          "velocity": 0.4015748031496063
        },
        {
          "duration": 0.07894725000000236,
          "durationTicks": 96,
          "midi": 38,
          "name": "D2",
          "ticks": 36672,
          "time": 30.157849499999998,
          "velocity": 0.4015748031496063
        },
        {
          "duration": 0.07894725000000236,
          "durationTicks": 96,
          "midi": 40,
          "name": "E2",
          "ticks": 36672,
          "time": 30.157849499999998,
          "velocity": 0.4015748031496063
        },
        {
          "duration": 0.0789472499999988,
          "durationTicks": 96,
          "midi": 40,
          "name": "E2",
          "ticks": 36864,
          "time": 30.315744,
          "velocity": 0.4015748031496063
        },
        {
          "duration": 0.0789472499999988,
          "durationTicks": 96,
          "midi": 38,
          "name": "D2",
          "ticks": 36864,
          "time": 30.315744,
          "velocity": 0.4015748031496063
        },
        {
          "duration": 0.0789472499999988,
          "durationTicks": 96,
          "midi": 40,
          "name": "E2",
          "ticks": 36864,
          "time": 30.315744,
          "velocity": 0.4015748031496063
        },
        {
          "duration": 0.0789472499999988,
          "durationTicks": 96,
          "midi": 40,
          "name": "E2",
          "ticks": 37056,
          "time": 30.4736385,
          "velocity": 0.4015748031496063
        },
        {
          "duration": 0.07894725000000236,
          "durationTicks": 96,
          "midi": 38,
          "name": "D2",
          "ticks": 37248,
          "time": 30.631532999999997,
          "velocity": 0.4015748031496063
        },
        {
          "duration": 0.07894725000000236,
          "durationTicks": 96,
          "midi": 38,
          "name": "D2",
          "ticks": 37248,
          "time": 30.631532999999997,
          "velocity": 0.4015748031496063
        },
        {
          "duration": 0.0789472499999988,
          "durationTicks": 96,
          "midi": 40,
          "name": "E2",
          "ticks": 37440,
          "time": 30.7894275,
          "velocity": 0.4015748031496063
        },
        {
          "duration": 0.0789472499999988,
          "durationTicks": 96,
          "midi": 40,
          "name": "E2",
          "ticks": 37440,
          "time": 30.7894275,
          "velocity": 0.4015748031496063
        },
        {
          "duration": 0.0789472499999988,
          "durationTicks": 96,
          "midi": 40,
          "name": "E2",
          "ticks": 37632,
          "time": 30.947322,
          "velocity": 0.4015748031496063
        },
        {
          "duration": 0.0789472499999988,
          "durationTicks": 96,
          "midi": 40,
          "name": "E2",
          "ticks": 37632,
          "time": 30.947322,
          "velocity": 0.4015748031496063
        },
        {
          "duration": 0.0789472499999988,
          "durationTicks": 96,
          "midi": 38,
          "name": "D2",
          "ticks": 37632,
          "time": 30.947322,
          "velocity": 0.4015748031496063
        },
        {
          "duration": 0.07894725000000236,
          "durationTicks": 96,
          "midi": 38,
          "name": "D2",
          "ticks": 37824,
          "time": 31.105216499999997,
          "velocity": 0.4015748031496063
        },
        {
          "duration": 0.07894725000000236,
          "durationTicks": 96,
          "midi": 40,
          "name": "E2",
          "ticks": 37824,
          "time": 31.105216499999997,
          "velocity": 0.4015748031496063
        },
        {
          "duration": 0.0789472499999988,
          "durationTicks": 96,
          "midi": 38,
          "name": "D2",
          "ticks": 38016,
          "time": 31.263111,
          "velocity": 0.4015748031496063
        },
        {
          "duration": 0.0789472499999988,
          "durationTicks": 96,
          "midi": 40,
          "name": "E2",
          "ticks": 38016,
          "time": 31.263111,
          "velocity": 0.4015748031496063
        },
        {
          "duration": 0.0789472499999988,
          "durationTicks": 96,
          "midi": 40,
          "name": "E2",
          "ticks": 38208,
          "time": 31.4210055,
          "velocity": 0.4015748031496063
        },
        {
          "duration": 0.0789472499999988,
          "durationTicks": 96,
          "midi": 38,
          "name": "D2",
          "ticks": 38208,
          "time": 31.4210055,
          "velocity": 0.4015748031496063
        },
        {
          "duration": 0.07894725000000236,
          "durationTicks": 96,
          "midi": 40,
          "name": "E2",
          "ticks": 38400,
          "time": 31.578899999999997,
          "velocity": 0.4015748031496063
        },
        {
          "duration": 0.07894725000000236,
          "durationTicks": 96,
          "midi": 40,
          "name": "E2",
          "ticks": 38400,
          "time": 31.578899999999997,
          "velocity": 0.4015748031496063
        },
        {
          "duration": 0.07894725000000236,
          "durationTicks": 96,
          "midi": 38,
          "name": "D2",
          "ticks": 38400,
          "time": 31.578899999999997,
          "velocity": 0.4015748031496063
        },
        {
          "duration": 0.0789472499999988,
          "durationTicks": 96,
          "midi": 40,
          "name": "E2",
          "ticks": 38592,
          "time": 31.7367945,
          "velocity": 0.4015748031496063
        },
        {
          "duration": 0.0789472499999988,
          "durationTicks": 96,
          "midi": 38,
          "name": "D2",
          "ticks": 38784,
          "time": 31.894689,
          "velocity": 0.4015748031496063
        },
        {
          "duration": 0.0789472499999988,
          "durationTicks": 96,
          "midi": 38,
          "name": "D2",
          "ticks": 38784,
          "time": 31.894689,
          "velocity": 0.4015748031496063
        },
        {
          "duration": 0.0789472499999988,
          "durationTicks": 96,
          "midi": 40,
          "name": "E2",
          "ticks": 38976,
          "time": 32.0525835,
          "velocity": 0.4015748031496063
        },
        {
          "duration": 0.0789472499999988,
          "durationTicks": 96,
          "midi": 40,
          "name": "E2",
          "ticks": 38976,
          "time": 32.0525835,
          "velocity": 0.4015748031496063
        },
        {
          "duration": 0.0789472499999988,
          "durationTicks": 96,
          "midi": 40,
          "name": "E2",
          "ticks": 39168,
          "time": 32.210478,
          "velocity": 0.4015748031496063
        },
        {
          "duration": 0.0789472499999988,
          "durationTicks": 96,
          "midi": 40,
          "name": "E2",
          "ticks": 39168,
          "time": 32.210478,
          "velocity": 0.4015748031496063
        },
        {
          "duration": 0.0789472499999988,
          "durationTicks": 96,
          "midi": 38,
          "name": "D2",
          "ticks": 39168,
          "time": 32.210478,
          "velocity": 0.4015748031496063
        },
        {
          "duration": 0.0789472499999988,
          "durationTicks": 96,
          "midi": 38,
          "name": "D2",
          "ticks": 39360,
          "time": 32.3683725,
          "velocity": 0.4015748031496063
        },
        {
          "duration": 0.0789472499999988,
          "durationTicks": 96,
          "midi": 40,
          "name": "E2",
          "ticks": 39360,
          "time": 32.3683725,
          "velocity": 0.4015748031496063
        },
        {
          "duration": 0.0789472499999988,
          "durationTicks": 96,
          "midi": 40,
          "name": "E2",
          "ticks": 39552,
          "time": 32.526267,
          "velocity": 0.4015748031496063
        },
        {
          "duration": 0.0789472499999988,
          "durationTicks": 96,
          "midi": 38,
          "name": "D2",
          "ticks": 39552,
          "time": 32.526267,
          "velocity": 0.4015748031496063
        },
        {
          "duration": 0.0789472499999988,
          "durationTicks": 96,
          "midi": 40,
          "name": "E2",
          "ticks": 39744,
          "time": 32.6841615,
          "velocity": 0.4015748031496063
        },
        {
          "duration": 0.0789472499999988,
          "durationTicks": 96,
          "midi": 38,
          "name": "D2",
          "ticks": 39744,
          "time": 32.6841615,
          "velocity": 0.4015748031496063
        },
        {
          "duration": 0.0789472499999988,
          "durationTicks": 96,
          "midi": 38,
          "name": "D2",
          "ticks": 39936,
          "time": 32.842056,
          "velocity": 0.4015748031496063
        },
        {
          "duration": 0.0789472499999988,
          "durationTicks": 96,
          "midi": 40,
          "name": "E2",
          "ticks": 39936,
          "time": 32.842056,
          "velocity": 0.4015748031496063
        },
        {
          "duration": 0.0789472499999988,
          "durationTicks": 96,
          "midi": 40,
          "name": "E2",
          "ticks": 39936,
          "time": 32.842056,
          "velocity": 0.4015748031496063
        },
        {
          "duration": 0.0789472499999988,
          "durationTicks": 96,
          "midi": 40,
          "name": "E2",
          "ticks": 40128,
          "time": 32.9999505,
          "velocity": 0.4015748031496063
        },
        {
          "duration": 0.0789472499999988,
          "durationTicks": 96,
          "midi": 38,
          "name": "D2",
          "ticks": 40320,
          "time": 33.157845,
          "velocity": 0.4015748031496063
        },
        {
          "duration": 0.0789472499999988,
          "durationTicks": 96,
          "midi": 38,
          "name": "D2",
          "ticks": 40320,
          "time": 33.157845,
          "velocity": 0.4015748031496063
        },
        {
          "duration": 0.0789472499999988,
          "durationTicks": 96,
          "midi": 40,
          "name": "E2",
          "ticks": 40512,
          "time": 33.3157395,
          "velocity": 0.4015748031496063
        },
        {
          "duration": 0.0789472499999988,
          "durationTicks": 96,
          "midi": 40,
          "name": "E2",
          "ticks": 40512,
          "time": 33.3157395,
          "velocity": 0.4015748031496063
        },
        {
          "duration": 0.0789472499999988,
          "durationTicks": 96,
          "midi": 38,
          "name": "D2",
          "ticks": 40704,
          "time": 33.473634,
          "velocity": 0.4015748031496063
        },
        {
          "duration": 0.0789472499999988,
          "durationTicks": 96,
          "midi": 40,
          "name": "E2",
          "ticks": 40704,
          "time": 33.473634,
          "velocity": 0.4015748031496063
        },
        {
          "duration": 0.0789472499999988,
          "durationTicks": 96,
          "midi": 40,
          "name": "E2",
          "ticks": 40704,
          "time": 33.473634,
          "velocity": 0.4015748031496063
        },
        {
          "duration": 0.0789472499999988,
          "durationTicks": 96,
          "midi": 38,
          "name": "D2",
          "ticks": 40896,
          "time": 33.6315285,
          "velocity": 0.4015748031496063
        },
        {
          "duration": 0.0789472499999988,
          "durationTicks": 96,
          "midi": 40,
          "name": "E2",
          "ticks": 40896,
          "time": 33.6315285,
          "velocity": 0.4015748031496063
        },
        {
          "duration": 0.0789472499999988,
          "durationTicks": 96,
          "midi": 38,
          "name": "D2",
          "ticks": 41088,
          "time": 33.789423,
          "velocity": 0.4015748031496063
        },
        {
          "duration": 0.0789472499999988,
          "durationTicks": 96,
          "midi": 40,
          "name": "E2",
          "ticks": 41088,
          "time": 33.789423,
          "velocity": 0.4015748031496063
        },
        {
          "duration": 0.0789472499999988,
          "durationTicks": 96,
          "midi": 40,
          "name": "E2",
          "ticks": 41280,
          "time": 33.9473175,
          "velocity": 0.4015748031496063
        },
        {
          "duration": 0.0789472499999988,
          "durationTicks": 96,
          "midi": 38,
          "name": "D2",
          "ticks": 41280,
          "time": 33.9473175,
          "velocity": 0.4015748031496063
        },
        {
          "duration": 0.0789472499999988,
          "durationTicks": 96,
          "midi": 40,
          "name": "E2",
          "ticks": 41472,
          "time": 34.105212,
          "velocity": 0.4015748031496063
        },
        {
          "duration": 0.0789472499999988,
          "durationTicks": 96,
          "midi": 38,
          "name": "D2",
          "ticks": 41472,
          "time": 34.105212,
          "velocity": 0.4015748031496063
        },
        {
          "duration": 0.0789472499999988,
          "durationTicks": 96,
          "midi": 40,
          "name": "E2",
          "ticks": 41472,
          "time": 34.105212,
          "velocity": 0.4015748031496063
        },
        {
          "duration": 0.0789472499999988,
          "durationTicks": 96,
          "midi": 40,
          "name": "E2",
          "ticks": 41664,
          "time": 34.2631065,
          "velocity": 0.4015748031496063
        },
        {
          "duration": 0.0789472499999988,
          "durationTicks": 96,
          "midi": 38,
          "name": "D2",
          "ticks": 41856,
          "time": 34.421001,
          "velocity": 0.4015748031496063
        },
        {
          "duration": 0.0789472499999988,
          "durationTicks": 96,
          "midi": 38,
          "name": "D2",
          "ticks": 41856,
          "time": 34.421001,
          "velocity": 0.4015748031496063
        },
        {
          "duration": 0.0789472499999988,
          "durationTicks": 96,
          "midi": 40,
          "name": "E2",
          "ticks": 42048,
          "time": 34.5788955,
          "velocity": 0.4015748031496063
        },
        {
          "duration": 0.0789472499999988,
          "durationTicks": 96,
          "midi": 40,
          "name": "E2",
          "ticks": 42048,
          "time": 34.5788955,
          "velocity": 0.4015748031496063
        },
        {
          "duration": 0.0789472499999988,
          "durationTicks": 96,
          "midi": 38,
          "name": "D2",
          "ticks": 42240,
          "time": 34.73679,
          "velocity": 0.4015748031496063
        },
        {
          "duration": 0.0789472499999988,
          "durationTicks": 96,
          "midi": 40,
          "name": "E2",
          "ticks": 42240,
          "time": 34.73679,
          "velocity": 0.4015748031496063
        },
        {
          "duration": 0.0789472499999988,
          "durationTicks": 96,
          "midi": 40,
          "name": "E2",
          "ticks": 42240,
          "time": 34.73679,
          "velocity": 0.4015748031496063
        },
        {
          "duration": 0.0789472499999988,
          "durationTicks": 96,
          "midi": 40,
          "name": "E2",
          "ticks": 42432,
          "time": 34.8946845,
          "velocity": 0.4015748031496063
        },
        {
          "duration": 0.0789472499999988,
          "durationTicks": 96,
          "midi": 38,
          "name": "D2",
          "ticks": 42432,
          "time": 34.8946845,
          "velocity": 0.4015748031496063
        },
        {
          "duration": 0.0789472499999988,
          "durationTicks": 96,
          "midi": 38,
          "name": "D2",
          "ticks": 42624,
          "time": 35.052579,
          "velocity": 0.4015748031496063
        },
        {
          "duration": 0.0789472499999988,
          "durationTicks": 96,
          "midi": 40,
          "name": "E2",
          "ticks": 42624,
          "time": 35.052579,
          "velocity": 0.4015748031496063
        },
        {
          "duration": 0.0789472499999988,
          "durationTicks": 96,
          "midi": 38,
          "name": "D2",
          "ticks": 42816,
          "time": 35.2104735,
          "velocity": 0.4015748031496063
        },
        {
          "duration": 0.0789472499999988,
          "durationTicks": 96,
          "midi": 40,
          "name": "E2",
          "ticks": 42816,
          "time": 35.2104735,
          "velocity": 0.4015748031496063
        },
        {
          "duration": 0.0789472499999988,
          "durationTicks": 96,
          "midi": 40,
          "name": "E2",
          "ticks": 43008,
          "time": 35.368368,
          "velocity": 0.4015748031496063
        },
        {
          "duration": 0.0789472499999988,
          "durationTicks": 96,
          "midi": 38,
          "name": "D2",
          "ticks": 43008,
          "time": 35.368368,
          "velocity": 0.4015748031496063
        },
        {
          "duration": 0.0789472499999988,
          "durationTicks": 96,
          "midi": 40,
          "name": "E2",
          "ticks": 43008,
          "time": 35.368368,
          "velocity": 0.4015748031496063
        },
        {
          "duration": 0.0789472499999988,
          "durationTicks": 96,
          "midi": 40,
          "name": "E2",
          "ticks": 43200,
          "time": 35.5262625,
          "velocity": 0.4015748031496063
        },
        {
          "duration": 0.0789472499999988,
          "durationTicks": 96,
          "midi": 38,
          "name": "D2",
          "ticks": 43392,
          "time": 35.684157,
          "velocity": 0.4015748031496063
        },
        {
          "duration": 0.0789472499999988,
          "durationTicks": 96,
          "midi": 38,
          "name": "D2",
          "ticks": 43392,
          "time": 35.684157,
          "velocity": 0.4015748031496063
        },
        {
          "duration": 0.0789472499999988,
          "durationTicks": 96,
          "midi": 40,
          "name": "E2",
          "ticks": 43584,
          "time": 35.8420515,
          "velocity": 0.4015748031496063
        },
        {
          "duration": 0.0789472499999988,
          "durationTicks": 96,
          "midi": 40,
          "name": "E2",
          "ticks": 43584,
          "time": 35.8420515,
          "velocity": 0.4015748031496063
        },
        {
          "duration": 0.0789472499999988,
          "durationTicks": 96,
          "midi": 40,
          "name": "E2",
          "ticks": 43776,
          "time": 35.999946,
          "velocity": 0.4015748031496063
        },
        {
          "duration": 0.0789472499999988,
          "durationTicks": 96,
          "midi": 40,
          "name": "E2",
          "ticks": 43776,
          "time": 35.999946,
          "velocity": 0.4015748031496063
        },
        {
          "duration": 0.0789472499999988,
          "durationTicks": 96,
          "midi": 38,
          "name": "D2",
          "ticks": 43776,
          "time": 35.999946,
          "velocity": 0.4015748031496063
        },
        {
          "duration": 0.0789472499999988,
          "durationTicks": 96,
          "midi": 38,
          "name": "D2",
          "ticks": 43968,
          "time": 36.1578405,
          "velocity": 0.4015748031496063
        },
        {
          "duration": 0.0789472499999988,
          "durationTicks": 96,
          "midi": 40,
          "name": "E2",
          "ticks": 43968,
          "time": 36.1578405,
          "velocity": 0.4015748031496063
        },
        {
          "duration": 0.0789472499999988,
          "durationTicks": 96,
          "midi": 38,
          "name": "D2",
          "ticks": 44160,
          "time": 36.315735,
          "velocity": 0.4015748031496063
        },
        {
          "duration": 0.0789472499999988,
          "durationTicks": 96,
          "midi": 40,
          "name": "E2",
          "ticks": 44160,
          "time": 36.315735,
          "velocity": 0.4015748031496063
        },
        {
          "duration": 0.0789472499999988,
          "durationTicks": 96,
          "midi": 40,
          "name": "E2",
          "ticks": 44352,
          "time": 36.4736295,
          "velocity": 0.4015748031496063
        },
        {
          "duration": 0.0789472499999988,
          "durationTicks": 96,
          "midi": 38,
          "name": "D2",
          "ticks": 44352,
          "time": 36.4736295,
          "velocity": 0.4015748031496063
        },
        {
          "duration": 0.0789472499999988,
          "durationTicks": 96,
          "midi": 40,
          "name": "E2",
          "ticks": 44544,
          "time": 36.631524,
          "velocity": 0.4015748031496063
        },
        {
          "duration": 0.0789472499999988,
          "durationTicks": 96,
          "midi": 40,
          "name": "E2",
          "ticks": 44544,
          "time": 36.631524,
          "velocity": 0.4015748031496063
        },
        {
          "duration": 0.0789472499999988,
          "durationTicks": 96,
          "midi": 38,
          "name": "D2",
          "ticks": 44544,
          "time": 36.631524,
          "velocity": 0.4015748031496063
        },
        {
          "duration": 0.0789472499999988,
          "durationTicks": 96,
          "midi": 40,
          "name": "E2",
          "ticks": 44736,
          "time": 36.7894185,
          "velocity": 0.4015748031496063
        },
        {
          "duration": 0.0789472499999988,
          "durationTicks": 96,
          "midi": 38,
          "name": "D2",
          "ticks": 44928,
          "time": 36.947313,
          "velocity": 0.4015748031496063
        },
        {
          "duration": 0.0789472499999988,
          "durationTicks": 96,
          "midi": 38,
          "name": "D2",
          "ticks": 44928,
          "time": 36.947313,
          "velocity": 0.4015748031496063
        },
        {
          "duration": 0.0789472499999988,
          "durationTicks": 96,
          "midi": 40,
          "name": "E2",
          "ticks": 45120,
          "time": 37.1052075,
          "velocity": 0.4015748031496063
        },
        {
          "duration": 0.0789472499999988,
          "durationTicks": 96,
          "midi": 40,
          "name": "E2",
          "ticks": 45120,
          "time": 37.1052075,
          "velocity": 0.4015748031496063
        },
        {
          "duration": 0.0789472499999988,
          "durationTicks": 96,
          "midi": 40,
          "name": "E2",
          "ticks": 45312,
          "time": 37.263101999999996,
          "velocity": 0.4015748031496063
        },
        {
          "duration": 0.0789472499999988,
          "durationTicks": 96,
          "midi": 40,
          "name": "E2",
          "ticks": 45312,
          "time": 37.263101999999996,
          "velocity": 0.4015748031496063
        },
        {
          "duration": 0.0789472499999988,
          "durationTicks": 96,
          "midi": 38,
          "name": "D2",
          "ticks": 45312,
          "time": 37.263101999999996,
          "velocity": 0.4015748031496063
        },
        {
          "duration": 0.0789472499999988,
          "durationTicks": 96,
          "midi": 40,
          "name": "E2",
          "ticks": 45504,
          "time": 37.4209965,
          "velocity": 0.4015748031496063
        },
        {
          "duration": 0.0789472499999988,
          "durationTicks": 96,
          "midi": 38,
          "name": "D2",
          "ticks": 45504,
          "time": 37.4209965,
          "velocity": 0.4015748031496063
        },
        {
          "duration": 0.0789472499999988,
          "durationTicks": 96,
          "midi": 40,
          "name": "E2",
          "ticks": 45696,
          "time": 37.578891,
          "velocity": 0.4015748031496063
        },
        {
          "duration": 0.0789472499999988,
          "durationTicks": 96,
          "midi": 38,
          "name": "D2",
          "ticks": 45696,
          "time": 37.578891,
          "velocity": 0.4015748031496063
        },
        {
          "duration": 0.0789472499999988,
          "durationTicks": 96,
          "midi": 38,
          "name": "D2",
          "ticks": 45888,
          "time": 37.736785499999996,
          "velocity": 0.4015748031496063
        },
        {
          "duration": 0.0789472499999988,
          "durationTicks": 96,
          "midi": 40,
          "name": "E2",
          "ticks": 45888,
          "time": 37.736785499999996,
          "velocity": 0.4015748031496063
        },
        {
          "duration": 0.0789472499999988,
          "durationTicks": 96,
          "midi": 40,
          "name": "E2",
          "ticks": 46080,
          "time": 37.89468,
          "velocity": 0.4015748031496063
        },
        {
          "duration": 0.0789472499999988,
          "durationTicks": 96,
          "midi": 40,
          "name": "E2",
          "ticks": 46080,
          "time": 37.89468,
          "velocity": 0.4015748031496063
        },
        {
          "duration": 0.0789472499999988,
          "durationTicks": 96,
          "midi": 38,
          "name": "D2",
          "ticks": 46080,
          "time": 37.89468,
          "velocity": 0.4015748031496063
        },
        {
          "duration": 0.0789472499999988,
          "durationTicks": 96,
          "midi": 40,
          "name": "E2",
          "ticks": 46272,
          "time": 38.0525745,
          "velocity": 0.4015748031496063
        },
        {
          "duration": 0.0789472499999988,
          "durationTicks": 96,
          "midi": 38,
          "name": "D2",
          "ticks": 46464,
          "time": 38.210468999999996,
          "velocity": 0.4015748031496063
        },
        {
          "duration": 0.0789472499999988,
          "durationTicks": 96,
          "midi": 38,
          "name": "D2",
          "ticks": 46464,
          "time": 38.210468999999996,
          "velocity": 0.4015748031496063
        },
        {
          "duration": 0.0789472499999988,
          "durationTicks": 96,
          "midi": 40,
          "name": "E2",
          "ticks": 46656,
          "time": 38.3683635,
          "velocity": 0.4015748031496063
        },
        {
          "duration": 0.0789472499999988,
          "durationTicks": 96,
          "midi": 40,
          "name": "E2",
          "ticks": 46656,
          "time": 38.3683635,
          "velocity": 0.4015748031496063
        },
        {
          "duration": 0.0789472499999988,
          "durationTicks": 96,
          "midi": 40,
          "name": "E2",
          "ticks": 46848,
          "time": 38.526258,
          "velocity": 0.4015748031496063
        },
        {
          "duration": 0.0789472499999988,
          "durationTicks": 96,
          "midi": 38,
          "name": "D2",
          "ticks": 46848,
          "time": 38.526258,
          "velocity": 0.4015748031496063
        },
        {
          "duration": 0.0789472499999988,
          "durationTicks": 96,
          "midi": 40,
          "name": "E2",
          "ticks": 46848,
          "time": 38.526258,
          "velocity": 0.4015748031496063
        },
        {
          "duration": 0.0789472499999988,
          "durationTicks": 96,
          "midi": 40,
          "name": "E2",
          "ticks": 47040,
          "time": 38.684152499999996,
          "velocity": 0.4015748031496063
        },
        {
          "duration": 0.0789472499999988,
          "durationTicks": 96,
          "midi": 38,
          "name": "D2",
          "ticks": 47040,
          "time": 38.684152499999996,
          "velocity": 0.4015748031496063
        },
        {
          "duration": 0.0789472499999988,
          "durationTicks": 96,
          "midi": 38,
          "name": "D2",
          "ticks": 47232,
          "time": 38.842047,
          "velocity": 0.4015748031496063
        },
        {
          "duration": 0.0789472499999988,
          "durationTicks": 96,
          "midi": 40,
          "name": "E2",
          "ticks": 47232,
          "time": 38.842047,
          "velocity": 0.4015748031496063
        },
        {
          "duration": 0.0789472499999988,
          "durationTicks": 96,
          "midi": 38,
          "name": "D2",
          "ticks": 47424,
          "time": 38.9999415,
          "velocity": 0.4015748031496063
        },
        {
          "duration": 0.0789472499999988,
          "durationTicks": 96,
          "midi": 40,
          "name": "E2",
          "ticks": 47424,
          "time": 38.9999415,
          "velocity": 0.4015748031496063
        },
        {
          "duration": 0.0789472499999988,
          "durationTicks": 96,
          "midi": 40,
          "name": "E2",
          "ticks": 47616,
          "time": 39.157835999999996,
          "velocity": 0.4015748031496063
        },
        {
          "duration": 0.0789472499999988,
          "durationTicks": 96,
          "midi": 40,
          "name": "E2",
          "ticks": 47616,
          "time": 39.157835999999996,
          "velocity": 0.4015748031496063
        },
        {
          "duration": 0.0789472499999988,
          "durationTicks": 96,
          "midi": 38,
          "name": "D2",
          "ticks": 47616,
          "time": 39.157835999999996,
          "velocity": 0.4015748031496063
        },
        {
          "duration": 0.0789472499999988,
          "durationTicks": 96,
          "midi": 40,
          "name": "E2",
          "ticks": 47808,
          "time": 39.3157305,
          "velocity": 0.4015748031496063
        },
        {
          "duration": 0.0789472499999988,
          "durationTicks": 96,
          "midi": 38,
          "name": "D2",
          "ticks": 48000,
          "time": 39.473625,
          "velocity": 0.4015748031496063
        },
        {
          "duration": 0.0789472499999988,
          "durationTicks": 96,
          "midi": 38,
          "name": "D2",
          "ticks": 48000,
          "time": 39.473625,
          "velocity": 0.4015748031496063
        },
        {
          "duration": 0.0789472499999988,
          "durationTicks": 96,
          "midi": 40,
          "name": "E2",
          "ticks": 48192,
          "time": 39.631519499999996,
          "velocity": 0.4015748031496063
        },
        {
          "duration": 0.0789472499999988,
          "durationTicks": 96,
          "midi": 40,
          "name": "E2",
          "ticks": 48192,
          "time": 39.631519499999996,
          "velocity": 0.4015748031496063
        },
        {
          "duration": 0.0789472499999988,
          "durationTicks": 96,
          "midi": 40,
          "name": "E2",
          "ticks": 48384,
          "time": 39.789414,
          "velocity": 0.4015748031496063
        },
        {
          "duration": 0.0789472499999988,
          "durationTicks": 96,
          "midi": 40,
          "name": "E2",
          "ticks": 48384,
          "time": 39.789414,
          "velocity": 0.4015748031496063
        },
        {
          "duration": 0.0789472499999988,
          "durationTicks": 96,
          "midi": 38,
          "name": "D2",
          "ticks": 48384,
          "time": 39.789414,
          "velocity": 0.4015748031496063
        },
        {
          "duration": 0.0789472499999988,
          "durationTicks": 96,
          "midi": 38,
          "name": "D2",
          "ticks": 48576,
          "time": 39.9473085,
          "velocity": 0.4015748031496063
        },
        {
          "duration": 0.0789472499999988,
          "durationTicks": 96,
          "midi": 40,
          "name": "E2",
          "ticks": 48576,
          "time": 39.9473085,
          "velocity": 0.4015748031496063
        },
        {
          "duration": 0.0789472499999988,
          "durationTicks": 96,
          "midi": 38,
          "name": "D2",
          "ticks": 48768,
          "time": 40.105202999999996,
          "velocity": 0.4015748031496063
        },
        {
          "duration": 0.0789472499999988,
          "durationTicks": 96,
          "midi": 40,
          "name": "E2",
          "ticks": 48768,
          "time": 40.105202999999996,
          "velocity": 0.4015748031496063
        },
        {
          "duration": 0.0789472499999988,
          "durationTicks": 96,
          "midi": 40,
          "name": "E2",
          "ticks": 48960,
          "time": 40.2630975,
          "velocity": 0.4015748031496063
        },
        {
          "duration": 0.0789472499999988,
          "durationTicks": 96,
          "midi": 38,
          "name": "D2",
          "ticks": 48960,
          "time": 40.2630975,
          "velocity": 0.4015748031496063
        },
        {
          "duration": 0.0789472499999988,
          "durationTicks": 96,
          "midi": 40,
          "name": "E2",
          "ticks": 49152,
          "time": 40.420992,
          "velocity": 0.4015748031496063
        },
        {
          "duration": 0.0789472499999988,
          "durationTicks": 96,
          "midi": 38,
          "name": "D2",
          "ticks": 49152,
          "time": 40.420992,
          "velocity": 0.4015748031496063
        },
        {
          "duration": 0.0789472499999988,
          "durationTicks": 96,
          "midi": 40,
          "name": "E2",
          "ticks": 49152,
          "time": 40.420992,
          "velocity": 0.4015748031496063
        },
        {
          "duration": 0.07894725000000591,
          "durationTicks": 96,
          "midi": 40,
          "name": "E2",
          "ticks": 49344,
          "time": 40.578886499999996,
          "velocity": 0.4015748031496063
        },
        {
          "duration": 0.0789472499999988,
          "durationTicks": 96,
          "midi": 38,
          "name": "D2",
          "ticks": 49536,
          "time": 40.736781,
          "velocity": 0.4015748031496063
        },
        {
          "duration": 0.0789472499999988,
          "durationTicks": 96,
          "midi": 38,
          "name": "D2",
          "ticks": 49536,
          "time": 40.736781,
          "velocity": 0.4015748031496063
        },
        {
          "duration": 0.0789472499999988,
          "durationTicks": 96,
          "midi": 40,
          "name": "E2",
          "ticks": 49728,
          "time": 40.8946755,
          "velocity": 0.4015748031496063
        },
        {
          "duration": 0.0789472499999988,
          "durationTicks": 96,
          "midi": 40,
          "name": "E2",
          "ticks": 49728,
          "time": 40.8946755,
          "velocity": 0.4015748031496063
        },
        {
          "duration": 0.07894725000000591,
          "durationTicks": 96,
          "midi": 40,
          "name": "E2",
          "ticks": 49920,
          "time": 41.052569999999996,
          "velocity": 0.4015748031496063
        },
        {
          "duration": 0.07894725000000591,
          "durationTicks": 96,
          "midi": 38,
          "name": "D2",
          "ticks": 49920,
          "time": 41.052569999999996,
          "velocity": 0.4015748031496063
        },
        {
          "duration": 0.07894725000000591,
          "durationTicks": 96,
          "midi": 40,
          "name": "E2",
          "ticks": 49920,
          "time": 41.052569999999996,
          "velocity": 0.4015748031496063
        },
        {
          "duration": 0.0789472499999988,
          "durationTicks": 96,
          "midi": 40,
          "name": "E2",
          "ticks": 50112,
          "time": 41.2104645,
          "velocity": 0.4015748031496063
        },
        {
          "duration": 0.0789472499999988,
          "durationTicks": 96,
          "midi": 38,
          "name": "D2",
          "ticks": 50112,
          "time": 41.2104645,
          "velocity": 0.4015748031496063
        },
        {
          "duration": 0.0789472499999988,
          "durationTicks": 96,
          "midi": 38,
          "name": "D2",
          "ticks": 50304,
          "time": 41.368359,
          "velocity": 0.4015748031496063
        },
        {
          "duration": 0.0789472499999988,
          "durationTicks": 96,
          "midi": 40,
          "name": "E2",
          "ticks": 50304,
          "time": 41.368359,
          "velocity": 0.4015748031496063
        },
        {
          "duration": 0.07894725000000591,
          "durationTicks": 96,
          "midi": 40,
          "name": "E2",
          "ticks": 50496,
          "time": 41.526253499999996,
          "velocity": 0.4015748031496063
        },
        {
          "duration": 0.07894725000000591,
          "durationTicks": 96,
          "midi": 38,
          "name": "D2",
          "ticks": 50496,
          "time": 41.526253499999996,
          "velocity": 0.4015748031496063
        },
        {
          "duration": 0.0789472499999988,
          "durationTicks": 96,
          "midi": 38,
          "name": "D2",
          "ticks": 50688,
          "time": 41.684148,
          "velocity": 0.4015748031496063
        },
        {
          "duration": 0.0789472499999988,
          "durationTicks": 96,
          "midi": 40,
          "name": "E2",
          "ticks": 50688,
          "time": 41.684148,
          "velocity": 0.4015748031496063
        },
        {
          "duration": 0.0789472499999988,
          "durationTicks": 96,
          "midi": 40,
          "name": "E2",
          "ticks": 50688,
          "time": 41.684148,
          "velocity": 0.4015748031496063
        },
        {
          "duration": 0.0789472499999988,
          "durationTicks": 96,
          "midi": 40,
          "name": "E2",
          "ticks": 50880,
          "time": 41.8420425,
          "velocity": 0.4015748031496063
        },
        {
          "duration": 0.07894725000000591,
          "durationTicks": 96,
          "midi": 38,
          "name": "D2",
          "ticks": 51072,
          "time": 41.999936999999996,
          "velocity": 0.4015748031496063
        },
        {
          "duration": 0.07894725000000591,
          "durationTicks": 96,
          "midi": 38,
          "name": "D2",
          "ticks": 51072,
          "time": 41.999936999999996,
          "velocity": 0.4015748031496063
        },
        {
          "duration": 0.0789472499999988,
          "durationTicks": 96,
          "midi": 40,
          "name": "E2",
          "ticks": 51264,
          "time": 42.1578315,
          "velocity": 0.4015748031496063
        },
        {
          "duration": 0.0789472499999988,
          "durationTicks": 96,
          "midi": 40,
          "name": "E2",
          "ticks": 51264,
          "time": 42.1578315,
          "velocity": 0.4015748031496063
        },
        {
          "duration": 0.0789472499999988,
          "durationTicks": 96,
          "midi": 40,
          "name": "E2",
          "ticks": 51456,
          "time": 42.315726,
          "velocity": 0.4015748031496063
        },
        {
          "duration": 0.0789472499999988,
          "durationTicks": 96,
          "midi": 40,
          "name": "E2",
          "ticks": 51456,
          "time": 42.315726,
          "velocity": 0.4015748031496063
        },
        {
          "duration": 0.0789472499999988,
          "durationTicks": 96,
          "midi": 38,
          "name": "D2",
          "ticks": 51456,
          "time": 42.315726,
          "velocity": 0.4015748031496063
        },
        {
          "duration": 0.07894725000000591,
          "durationTicks": 96,
          "midi": 38,
          "name": "D2",
          "ticks": 51648,
          "time": 42.473620499999996,
          "velocity": 0.4015748031496063
        },
        {
          "duration": 0.07894725000000591,
          "durationTicks": 96,
          "midi": 40,
          "name": "E2",
          "ticks": 51648,
          "time": 42.473620499999996,
          "velocity": 0.4015748031496063
        },
        {
          "duration": 0.0789472499999988,
          "durationTicks": 96,
          "midi": 40,
          "name": "E2",
          "ticks": 51840,
          "time": 42.631515,
          "velocity": 0.4015748031496063
        },
        {
          "duration": 0.0789472499999988,
          "durationTicks": 96,
          "midi": 38,
          "name": "D2",
          "ticks": 51840,
          "time": 42.631515,
          "velocity": 0.4015748031496063
        },
        {
          "duration": 0.0789472499999988,
          "durationTicks": 96,
          "midi": 40,
          "name": "E2",
          "ticks": 52032,
          "time": 42.7894095,
          "velocity": 0.4015748031496063
        },
        {
          "duration": 0.0789472499999988,
          "durationTicks": 96,
          "midi": 38,
          "name": "D2",
          "ticks": 52032,
          "time": 42.7894095,
          "velocity": 0.4015748031496063
        },
        {
          "duration": 0.07894725000000591,
          "durationTicks": 96,
          "midi": 38,
          "name": "D2",
          "ticks": 52224,
          "time": 42.947303999999995,
          "velocity": 0.4015748031496063
        },
        {
          "duration": 0.07894725000000591,
          "durationTicks": 96,
          "midi": 40,
          "name": "E2",
          "ticks": 52224,
          "time": 42.947303999999995,
          "velocity": 0.4015748031496063
        },
        {
          "duration": 0.07894725000000591,
          "durationTicks": 96,
          "midi": 40,
          "name": "E2",
          "ticks": 52224,
          "time": 42.947303999999995,
          "velocity": 0.4015748031496063
        },
        {
          "duration": 0.0789472499999988,
          "durationTicks": 96,
          "midi": 40,
          "name": "E2",
          "ticks": 52416,
          "time": 43.1051985,
          "velocity": 0.4015748031496063
        },
        {
          "duration": 0.0789472499999988,
          "durationTicks": 96,
          "midi": 38,
          "name": "D2",
          "ticks": 52608,
          "time": 43.263093,
          "velocity": 0.4015748031496063
        },
        {
          "duration": 0.0789472499999988,
          "durationTicks": 96,
          "midi": 38,
          "name": "D2",
          "ticks": 52608,
          "time": 43.263093,
          "velocity": 0.4015748031496063
        },
        {
          "duration": 0.07894725000000591,
          "durationTicks": 96,
          "midi": 40,
          "name": "E2",
          "ticks": 52800,
          "time": 43.420987499999995,
          "velocity": 0.4015748031496063
        },
        {
          "duration": 0.07894725000000591,
          "durationTicks": 96,
          "midi": 40,
          "name": "E2",
          "ticks": 52800,
          "time": 43.420987499999995,
          "velocity": 0.4015748031496063
        },
        {
          "duration": 0.0789472499999988,
          "durationTicks": 96,
          "midi": 38,
          "name": "D2",
          "ticks": 52992,
          "time": 43.578882,
          "velocity": 0.4015748031496063
        },
        {
          "duration": 0.0789472499999988,
          "durationTicks": 96,
          "midi": 40,
          "name": "E2",
          "ticks": 52992,
          "time": 43.578882,
          "velocity": 0.4015748031496063
        },
        {
          "duration": 0.0789472499999988,
          "durationTicks": 96,
          "midi": 40,
          "name": "E2",
          "ticks": 52992,
          "time": 43.578882,
          "velocity": 0.4015748031496063
        },
        {
          "duration": 0.0789472499999988,
          "durationTicks": 96,
          "midi": 40,
          "name": "E2",
          "ticks": 53184,
          "time": 43.7367765,
          "velocity": 0.4015748031496063
        },
        {
          "duration": 0.0789472499999988,
          "durationTicks": 96,
          "midi": 38,
          "name": "D2",
          "ticks": 53184,
          "time": 43.7367765,
          "velocity": 0.4015748031496063
        },
        {
          "duration": 0.07894725000000591,
          "durationTicks": 96,
          "midi": 40,
          "name": "E2",
          "ticks": 53376,
          "time": 43.894670999999995,
          "velocity": 0.4015748031496063
        },
        {
          "duration": 0.07894725000000591,
          "durationTicks": 96,
          "midi": 38,
          "name": "D2",
          "ticks": 53376,
          "time": 43.894670999999995,
          "velocity": 0.4015748031496063
        },
        {
          "duration": 0.0789472499999988,
          "durationTicks": 96,
          "midi": 38,
          "name": "D2",
          "ticks": 53568,
          "time": 44.0525655,
          "velocity": 0.4015748031496063
        },
        {
          "duration": 0.0789472499999988,
          "durationTicks": 96,
          "midi": 40,
          "name": "E2",
          "ticks": 53568,
          "time": 44.0525655,
          "velocity": 0.4015748031496063
        },
        {
          "duration": 0.0789472499999988,
          "durationTicks": 96,
          "midi": 40,
          "name": "E2",
          "ticks": 53760,
          "time": 44.21046,
          "velocity": 0.4015748031496063
        },
        {
          "duration": 0.0789472499999988,
          "durationTicks": 96,
          "midi": 40,
          "name": "E2",
          "ticks": 53760,
          "time": 44.21046,
          "velocity": 0.4015748031496063
        },
        {
          "duration": 0.0789472499999988,
          "durationTicks": 96,
          "midi": 38,
          "name": "D2",
          "ticks": 53760,
          "time": 44.21046,
          "velocity": 0.4015748031496063
        },
        {
          "duration": 0.07894725000000591,
          "durationTicks": 96,
          "midi": 40,
          "name": "E2",
          "ticks": 53952,
          "time": 44.368354499999995,
          "velocity": 0.4015748031496063
        },
        {
          "duration": 0.0789472499999988,
          "durationTicks": 96,
          "midi": 38,
          "name": "D2",
          "ticks": 54144,
          "time": 44.526249,
          "velocity": 0.4015748031496063
        },
        {
          "duration": 0.0789472499999988,
          "durationTicks": 96,
          "midi": 38,
          "name": "D2",
          "ticks": 54144,
          "time": 44.526249,
          "velocity": 0.4015748031496063
        },
        {
          "duration": 0.0789472499999988,
          "durationTicks": 96,
          "midi": 40,
          "name": "E2",
          "ticks": 54336,
          "time": 44.6841435,
          "velocity": 0.4015748031496063
        },
        {
          "duration": 0.0789472499999988,
          "durationTicks": 96,
          "midi": 40,
          "name": "E2",
          "ticks": 54336,
          "time": 44.6841435,
          "velocity": 0.4015748031496063
        },
        {
          "duration": 0.07894725000000591,
          "durationTicks": 96,
          "midi": 40,
          "name": "E2",
          "ticks": 54528,
          "time": 44.842037999999995,
          "velocity": 0.4015748031496063
        },
        {
          "duration": 0.07894725000000591,
          "durationTicks": 96,
          "midi": 40,
          "name": "E2",
          "ticks": 54528,
          "time": 44.842037999999995,
          "velocity": 0.4015748031496063
        },
        {
          "duration": 0.07894725000000591,
          "durationTicks": 96,
          "midi": 38,
          "name": "D2",
          "ticks": 54528,
          "time": 44.842037999999995,
          "velocity": 0.4015748031496063
        },
        {
          "duration": 0.0789472499999988,
          "durationTicks": 96,
          "midi": 38,
          "name": "D2",
          "ticks": 54720,
          "time": 44.9999325,
          "velocity": 0.4015748031496063
        },
        {
          "duration": 0.0789472499999988,
          "durationTicks": 96,
          "midi": 40,
          "name": "E2",
          "ticks": 54720,
          "time": 44.9999325,
          "velocity": 0.4015748031496063
        },
        {
          "duration": 0.0789472499999988,
          "durationTicks": 96,
          "midi": 38,
          "name": "D2",
          "ticks": 54912,
          "time": 45.157827,
          "velocity": 0.4015748031496063
        },
        {
          "duration": 0.0789472499999988,
          "durationTicks": 96,
          "midi": 40,
          "name": "E2",
          "ticks": 54912,
          "time": 45.157827,
          "velocity": 0.4015748031496063
        },
        {
          "duration": 0.07894725000000591,
          "durationTicks": 96,
          "midi": 40,
          "name": "E2",
          "ticks": 55104,
          "time": 45.315721499999995,
          "velocity": 0.4015748031496063
        },
        {
          "duration": 0.07894725000000591,
          "durationTicks": 96,
          "midi": 38,
          "name": "D2",
          "ticks": 55104,
          "time": 45.315721499999995,
          "velocity": 0.4015748031496063
        },
        {
          "duration": 0.0789472499999988,
          "durationTicks": 96,
          "midi": 40,
          "name": "E2",
          "ticks": 55296,
          "time": 45.473616,
          "velocity": 0.4015748031496063
        },
        {
          "duration": 0.0789472499999988,
          "durationTicks": 96,
          "midi": 38,
          "name": "D2",
          "ticks": 55296,
          "time": 45.473616,
          "velocity": 0.4015748031496063
        },
        {
          "duration": 0.0789472499999988,
          "durationTicks": 96,
          "midi": 40,
          "name": "E2",
          "ticks": 55296,
          "time": 45.473616,
          "velocity": 0.4015748031496063
        },
        {
          "duration": 0.0789472499999988,
          "durationTicks": 96,
          "midi": 40,
          "name": "E2",
          "ticks": 55488,
          "time": 45.6315105,
          "velocity": 0.4015748031496063
        },
        {
          "duration": 0.07894725000000591,
          "durationTicks": 96,
          "midi": 38,
          "name": "D2",
          "ticks": 55680,
          "time": 45.789404999999995,
          "velocity": 0.4015748031496063
        },
        {
          "duration": 0.07894725000000591,
          "durationTicks": 96,
          "midi": 38,
          "name": "D2",
          "ticks": 55680,
          "time": 45.789404999999995,
          "velocity": 0.4015748031496063
        },
        {
          "duration": 0.0789472499999988,
          "durationTicks": 96,
          "midi": 40,
          "name": "E2",
          "ticks": 55872,
          "time": 45.9472995,
          "velocity": 0.4015748031496063
        },
        {
          "duration": 0.0789472499999988,
          "durationTicks": 96,
          "midi": 40,
          "name": "E2",
          "ticks": 55872,
          "time": 45.9472995,
          "velocity": 0.4015748031496063
        },
        {
          "duration": 0.0789472499999988,
          "durationTicks": 96,
          "midi": 38,
          "name": "D2",
          "ticks": 56064,
          "time": 46.105194,
          "velocity": 0.4015748031496063
        },
        {
          "duration": 0.0789472499999988,
          "durationTicks": 96,
          "midi": 40,
          "name": "E2",
          "ticks": 56064,
          "time": 46.105194,
          "velocity": 0.4015748031496063
        },
        {
          "duration": 0.0789472499999988,
          "durationTicks": 96,
          "midi": 40,
          "name": "E2",
          "ticks": 56064,
          "time": 46.105194,
          "velocity": 0.4015748031496063
        },
        {
          "duration": 0.07894725000000591,
          "durationTicks": 96,
          "midi": 40,
          "name": "E2",
          "ticks": 56256,
          "time": 46.263088499999995,
          "velocity": 0.4015748031496063
        },
        {
          "duration": 0.07894725000000591,
          "durationTicks": 96,
          "midi": 38,
          "name": "D2",
          "ticks": 56256,
          "time": 46.263088499999995,
          "velocity": 0.4015748031496063
        },
        {
          "duration": 0.0789472499999988,
          "durationTicks": 96,
          "midi": 40,
          "name": "E2",
          "ticks": 56448,
          "time": 46.420983,
          "velocity": 0.4015748031496063
        },
        {
          "duration": 0.0789472499999988,
          "durationTicks": 96,
          "midi": 38,
          "name": "D2",
          "ticks": 56448,
          "time": 46.420983,
          "velocity": 0.4015748031496063
        },
        {
          "duration": 0.0789472499999988,
          "durationTicks": 96,
          "midi": 40,
          "name": "E2",
          "ticks": 56640,
          "time": 46.5788775,
          "velocity": 0.4015748031496063
        },
        {
          "duration": 0.0789472499999988,
          "durationTicks": 96,
          "midi": 38,
          "name": "D2",
          "ticks": 56640,
          "time": 46.5788775,
          "velocity": 0.4015748031496063
        },
        {
          "duration": 0.07894725000000591,
          "durationTicks": 96,
          "midi": 40,
          "name": "E2",
          "ticks": 56832,
          "time": 46.736771999999995,
          "velocity": 0.4015748031496063
        },
        {
          "duration": 0.07894725000000591,
          "durationTicks": 96,
          "midi": 38,
          "name": "D2",
          "ticks": 56832,
          "time": 46.736771999999995,
          "velocity": 0.4015748031496063
        },
        {
          "duration": 0.07894725000000591,
          "durationTicks": 96,
          "midi": 40,
          "name": "E2",
          "ticks": 56832,
          "time": 46.736771999999995,
          "velocity": 0.4015748031496063
        },
        {
          "duration": 0.0789472499999988,
          "durationTicks": 96,
          "midi": 40,
          "name": "E2",
          "ticks": 57024,
          "time": 46.8946665,
          "velocity": 0.4015748031496063
        },
        {
          "duration": 0.0789472499999988,
          "durationTicks": 96,
          "midi": 38,
          "name": "D2",
          "ticks": 57216,
          "time": 47.052561,
          "velocity": 0.4015748031496063
        },
        {
          "duration": 0.0789472499999988,
          "durationTicks": 96,
          "midi": 38,
          "name": "D2",
          "ticks": 57216,
          "time": 47.052561,
          "velocity": 0.4015748031496063
        },
        {
          "duration": 0.07894725000000591,
          "durationTicks": 96,
          "midi": 40,
          "name": "E2",
          "ticks": 57408,
          "time": 47.210455499999995,
          "velocity": 0.4015748031496063
        },
        {
          "duration": 0.07894725000000591,
          "durationTicks": 96,
          "midi": 40,
          "name": "E2",
          "ticks": 57408,
          "time": 47.210455499999995,
          "velocity": 0.4015748031496063
        },
        {
          "duration": 0.0789472499999988,
          "durationTicks": 96,
          "midi": 40,
          "name": "E2",
          "ticks": 57600,
          "time": 47.36835,
          "velocity": 0.4015748031496063
        },
        {
          "duration": 0.0789472499999988,
          "durationTicks": 96,
          "midi": 40,
          "name": "E2",
          "ticks": 57600,
          "time": 47.36835,
          "velocity": 0.4015748031496063
        },
        {
          "duration": 0.0789472499999988,
          "durationTicks": 96,
          "midi": 38,
          "name": "D2",
          "ticks": 57600,
          "time": 47.36835,
          "velocity": 0.4015748031496063
        },
        {
          "duration": 0.0789472499999988,
          "durationTicks": 96,
          "midi": 40,
          "name": "E2",
          "ticks": 57792,
          "time": 47.5262445,
          "velocity": 0.4015748031496063
        },
        {
          "duration": 0.0789472499999988,
          "durationTicks": 96,
          "midi": 38,
          "name": "D2",
          "ticks": 57792,
          "time": 47.5262445,
          "velocity": 0.4015748031496063
        },
        {
          "duration": 0.07894725000000591,
          "durationTicks": 96,
          "midi": 38,
          "name": "D2",
          "ticks": 57984,
          "time": 47.684138999999995,
          "velocity": 0.4015748031496063
        },
        {
          "duration": 0.07894725000000591,
          "durationTicks": 96,
          "midi": 40,
          "name": "E2",
          "ticks": 57984,
          "time": 47.684138999999995,
          "velocity": 0.4015748031496063
        },
        {
          "duration": 0.0789472499999988,
          "durationTicks": 96,
          "midi": 38,
          "name": "D2",
          "ticks": 58176,
          "time": 47.8420335,
          "velocity": 0.4015748031496063
        },
        {
          "duration": 0.0789472499999988,
          "durationTicks": 96,
          "midi": 40,
          "name": "E2",
          "ticks": 58176,
          "time": 47.8420335,
          "velocity": 0.4015748031496063
        },
        {
          "duration": 0.0789472499999988,
          "durationTicks": 96,
          "midi": 40,
          "name": "E2",
          "ticks": 58368,
          "time": 47.999928,
          "velocity": 0.4015748031496063
        },
        {
          "duration": 0.0789472499999988,
          "durationTicks": 96,
          "midi": 38,
          "name": "D2",
          "ticks": 58368,
          "time": 47.999928,
          "velocity": 0.4015748031496063
        },
        {
          "duration": 0.0789472499999988,
          "durationTicks": 96,
          "midi": 40,
          "name": "E2",
          "ticks": 58368,
          "time": 47.999928,
          "velocity": 0.4015748031496063
        },
        {
          "duration": 0.07894725000000591,
          "durationTicks": 96,
          "midi": 40,
          "name": "E2",
          "ticks": 58560,
          "time": 48.157822499999995,
          "velocity": 0.4015748031496063
        },
        {
          "duration": 0.0789472499999988,
          "durationTicks": 96,
          "midi": 38,
          "name": "D2",
          "ticks": 58752,
          "time": 48.315717,
          "velocity": 0.4015748031496063
        },
        {
          "duration": 0.0789472499999988,
          "durationTicks": 96,
          "midi": 38,
          "name": "D2",
          "ticks": 58752,
          "time": 48.315717,
          "velocity": 0.4015748031496063
        },
        {
          "duration": 0.0789472499999988,
          "durationTicks": 96,
          "midi": 40,
          "name": "E2",
          "ticks": 58944,
          "time": 48.4736115,
          "velocity": 0.4015748031496063
        },
        {
          "duration": 0.0789472499999988,
          "durationTicks": 96,
          "midi": 40,
          "name": "E2",
          "ticks": 58944,
          "time": 48.4736115,
          "velocity": 0.4015748031496063
        },
        {
          "duration": 0.07894725000000591,
          "durationTicks": 96,
          "midi": 40,
          "name": "E2",
          "ticks": 59136,
          "time": 48.631505999999995,
          "velocity": 0.4015748031496063
        },
        {
          "duration": 0.07894725000000591,
          "durationTicks": 96,
          "midi": 40,
          "name": "E2",
          "ticks": 59136,
          "time": 48.631505999999995,
          "velocity": 0.4015748031496063
        },
        {
          "duration": 0.07894725000000591,
          "durationTicks": 96,
          "midi": 38,
          "name": "D2",
          "ticks": 59136,
          "time": 48.631505999999995,
          "velocity": 0.4015748031496063
        },
        {
          "duration": 0.0789472499999988,
          "durationTicks": 96,
          "midi": 40,
          "name": "E2",
          "ticks": 59328,
          "time": 48.7894005,
          "velocity": 0.4015748031496063
        },
        {
          "duration": 0.0789472499999988,
          "durationTicks": 96,
          "midi": 38,
          "name": "D2",
          "ticks": 59328,
          "time": 48.7894005,
          "velocity": 0.4015748031496063
        },
        {
          "duration": 0.0789472499999988,
          "durationTicks": 96,
          "midi": 40,
          "name": "E2",
          "ticks": 59520,
          "time": 48.947295,
          "velocity": 0.4015748031496063
        },
        {
          "duration": 0.0789472499999988,
          "durationTicks": 96,
          "midi": 38,
          "name": "D2",
          "ticks": 59520,
          "time": 48.947295,
          "velocity": 0.4015748031496063
        },
        {
          "duration": 0.07894725000000591,
          "durationTicks": 96,
          "midi": 40,
          "name": "E2",
          "ticks": 59712,
          "time": 49.105189499999994,
          "velocity": 0.4015748031496063
        },
        {
          "duration": 0.07894725000000591,
          "durationTicks": 96,
          "midi": 38,
          "name": "D2",
          "ticks": 59712,
          "time": 49.105189499999994,
          "velocity": 0.4015748031496063
        },
        {
          "duration": 0.0789472499999988,
          "durationTicks": 96,
          "midi": 40,
          "name": "E2",
          "ticks": 59904,
          "time": 49.263084,
          "velocity": 0.4015748031496063
        },
        {
          "duration": 0.0789472499999988,
          "durationTicks": 96,
          "midi": 40,
          "name": "E2",
          "ticks": 59904,
          "time": 49.263084,
          "velocity": 0.4015748031496063
        },
        {
          "duration": 0.0789472499999988,
          "durationTicks": 96,
          "midi": 38,
          "name": "D2",
          "ticks": 59904,
          "time": 49.263084,
          "velocity": 0.4015748031496063
        },
        {
          "duration": 0.0789472499999988,
          "durationTicks": 96,
          "midi": 40,
          "name": "E2",
          "ticks": 60096,
          "time": 49.4209785,
          "velocity": 0.4015748031496063
        },
        {
          "duration": 0.07894725000000591,
          "durationTicks": 96,
          "midi": 38,
          "name": "D2",
          "ticks": 60288,
          "time": 49.578872999999994,
          "velocity": 0.4015748031496063
        },
        {
          "duration": 0.07894725000000591,
          "durationTicks": 96,
          "midi": 38,
          "name": "D2",
          "ticks": 60288,
          "time": 49.578872999999994,
          "velocity": 0.4015748031496063
        },
        {
          "duration": 0.0789472499999988,
          "durationTicks": 96,
          "midi": 40,
          "name": "E2",
          "ticks": 60480,
          "time": 49.7367675,
          "velocity": 0.4015748031496063
        },
        {
          "duration": 0.0789472499999988,
          "durationTicks": 96,
          "midi": 40,
          "name": "E2",
          "ticks": 60480,
          "time": 49.7367675,
          "velocity": 0.4015748031496063
        },
        {
          "duration": 0.0789472499999988,
          "durationTicks": 96,
          "midi": 40,
          "name": "E2",
          "ticks": 60672,
          "time": 49.894662,
          "velocity": 0.4015748031496063
        },
        {
          "duration": 0.0789472499999988,
          "durationTicks": 96,
          "midi": 40,
          "name": "E2",
          "ticks": 60672,
          "time": 49.894662,
          "velocity": 0.4015748031496063
        },
        {
          "duration": 0.0789472499999988,
          "durationTicks": 96,
          "midi": 38,
          "name": "D2",
          "ticks": 60672,
          "time": 49.894662,
          "velocity": 0.4015748031496063
        },
        {
          "duration": 0.07894725000000591,
          "durationTicks": 96,
          "midi": 38,
          "name": "D2",
          "ticks": 60864,
          "time": 50.052556499999994,
          "velocity": 0.4015748031496063
        },
        {
          "duration": 0.07894725000000591,
          "durationTicks": 96,
          "midi": 40,
          "name": "E2",
          "ticks": 60864,
          "time": 50.052556499999994,
          "velocity": 0.4015748031496063
        },
        {
          "duration": 0.0789472499999988,
          "durationTicks": 96,
          "midi": 38,
          "name": "D2",
          "ticks": 61056,
          "time": 50.210451,
          "velocity": 0.4015748031496063
        },
        {
          "duration": 0.0789472499999988,
          "durationTicks": 96,
          "midi": 40,
          "name": "E2",
          "ticks": 61056,
          "time": 50.210451,
          "velocity": 0.4015748031496063
        },
        {
          "duration": 0.0789472499999988,
          "durationTicks": 96,
          "midi": 40,
          "name": "E2",
          "ticks": 61248,
          "time": 50.3683455,
          "velocity": 0.4015748031496063
        },
        {
          "duration": 0.0789472499999988,
          "durationTicks": 96,
          "midi": 38,
          "name": "D2",
          "ticks": 61248,
          "time": 50.3683455,
          "velocity": 0.4015748031496063
        },
        {
          "duration": 0.0789472499999988,
          "durationTicks": 96,
          "midi": 38,
          "name": "D2",
          "ticks": 61440,
          "time": 50.52624,
          "velocity": 0.4015748031496063
        },
        {
          "duration": 0.0789472499999988,
          "durationTicks": 96,
          "midi": 40,
          "name": "E2",
          "ticks": 61440,
          "time": 50.52624,
          "velocity": 0.4015748031496063
        },
        {
          "duration": 0.0789472499999988,
          "durationTicks": 96,
          "midi": 40,
          "name": "E2",
          "ticks": 61440,
          "time": 50.52624,
          "velocity": 0.4015748031496063
        },
        {
          "duration": 0.0789472499999988,
          "durationTicks": 96,
          "midi": 40,
          "name": "E2",
          "ticks": 61632,
          "time": 50.6841345,
          "velocity": 0.4015748031496063
        },
        {
          "duration": 0.0789472499999988,
          "durationTicks": 96,
          "midi": 38,
          "name": "D2",
          "ticks": 61824,
          "time": 50.842029,
          "velocity": 0.4015748031496063
        },
        {
          "duration": 0.0789472499999988,
          "durationTicks": 96,
          "midi": 38,
          "name": "D2",
          "ticks": 61824,
          "time": 50.842029,
          "velocity": 0.4015748031496063
        },
        {
          "duration": 0.0789472499999988,
          "durationTicks": 96,
          "midi": 40,
          "name": "E2",
          "ticks": 62016,
          "time": 50.9999235,
          "velocity": 0.4015748031496063
        },
        {
          "duration": 0.0789472499999988,
          "durationTicks": 96,
          "midi": 40,
          "name": "E2",
          "ticks": 62016,
          "time": 50.9999235,
          "velocity": 0.4015748031496063
        },
        {
          "duration": 0.0789472499999988,
          "durationTicks": 96,
          "midi": 40,
          "name": "E2",
          "ticks": 62208,
          "time": 51.157818,
          "velocity": 0.4015748031496063
        },
        {
          "duration": 0.0789472499999988,
          "durationTicks": 96,
          "midi": 40,
          "name": "E2",
          "ticks": 62208,
          "time": 51.157818,
          "velocity": 0.4015748031496063
        },
        {
          "duration": 0.0789472499999988,
          "durationTicks": 96,
          "midi": 38,
          "name": "D2",
          "ticks": 62208,
          "time": 51.157818,
          "velocity": 0.4015748031496063
        },
        {
          "duration": 0.0789472499999988,
          "durationTicks": 96,
          "midi": 40,
          "name": "E2",
          "ticks": 62400,
          "time": 51.3157125,
          "velocity": 0.4015748031496063
        },
        {
          "duration": 0.0789472499999988,
          "durationTicks": 96,
          "midi": 38,
          "name": "D2",
          "ticks": 62400,
          "time": 51.3157125,
          "velocity": 0.4015748031496063
        },
        {
          "duration": 0.0789472499999988,
          "durationTicks": 96,
          "midi": 40,
          "name": "E2",
          "ticks": 62592,
          "time": 51.473607,
          "velocity": 0.4015748031496063
        },
        {
          "duration": 0.0789472499999988,
          "durationTicks": 96,
          "midi": 38,
          "name": "D2",
          "ticks": 62592,
          "time": 51.473607,
          "velocity": 0.4015748031496063
        },
        {
          "duration": 0.0789472499999988,
          "durationTicks": 96,
          "midi": 40,
          "name": "E2",
          "ticks": 62784,
          "time": 51.6315015,
          "velocity": 0.4015748031496063
        },
        {
          "duration": 0.0789472499999988,
          "durationTicks": 96,
          "midi": 38,
          "name": "D2",
          "ticks": 62784,
          "time": 51.6315015,
          "velocity": 0.4015748031496063
        },
        {
          "duration": 0.0789472499999988,
          "durationTicks": 96,
          "midi": 40,
          "name": "E2",
          "ticks": 62976,
          "time": 51.789395999999996,
          "velocity": 0.4015748031496063
        },
        {
          "duration": 0.0789472499999988,
          "durationTicks": 96,
          "midi": 40,
          "name": "E2",
          "ticks": 62976,
          "time": 51.789395999999996,
          "velocity": 0.4015748031496063
        },
        {
          "duration": 0.0789472499999988,
          "durationTicks": 96,
          "midi": 38,
          "name": "D2",
          "ticks": 62976,
          "time": 51.789395999999996,
          "velocity": 0.4015748031496063
        },
        {
          "duration": 0.0789472499999988,
          "durationTicks": 96,
          "midi": 40,
          "name": "E2",
          "ticks": 63168,
          "time": 51.9472905,
          "velocity": 0.4015748031496063
        },
        {
          "duration": 0.0789472499999988,
          "durationTicks": 96,
          "midi": 38,
          "name": "D2",
          "ticks": 63360,
          "time": 52.105185,
          "velocity": 0.4015748031496063
        },
        {
          "duration": 0.0789472499999988,
          "durationTicks": 96,
          "midi": 38,
          "name": "D2",
          "ticks": 63360,
          "time": 52.105185,
          "velocity": 0.4015748031496063
        },
        {
          "duration": 0.0789472499999988,
          "durationTicks": 96,
          "midi": 40,
          "name": "E2",
          "ticks": 63552,
          "time": 52.263079499999996,
          "velocity": 0.4015748031496063
        },
        {
          "duration": 0.0789472499999988,
          "durationTicks": 96,
          "midi": 40,
          "name": "E2",
          "ticks": 63552,
          "time": 52.263079499999996,
          "velocity": 0.4015748031496063
        },
        {
          "duration": 0.0789472499999988,
          "durationTicks": 96,
          "midi": 40,
          "name": "E2",
          "ticks": 63744,
          "time": 52.420974,
          "velocity": 0.4015748031496063
        },
        {
          "duration": 0.0789472499999988,
          "durationTicks": 96,
          "midi": 40,
          "name": "E2",
          "ticks": 63744,
          "time": 52.420974,
          "velocity": 0.4015748031496063
        },
        {
          "duration": 0.0789472499999988,
          "durationTicks": 96,
          "midi": 38,
          "name": "D2",
          "ticks": 63744,
          "time": 52.420974,
          "velocity": 0.4015748031496063
        },
        {
          "duration": 0.0789472499999988,
          "durationTicks": 96,
          "midi": 38,
          "name": "D2",
          "ticks": 63936,
          "time": 52.5788685,
          "velocity": 0.4015748031496063
        },
        {
          "duration": 0.0789472499999988,
          "durationTicks": 96,
          "midi": 40,
          "name": "E2",
          "ticks": 63936,
          "time": 52.5788685,
          "velocity": 0.4015748031496063
        },
        {
          "duration": 0.0789472499999988,
          "durationTicks": 96,
          "midi": 40,
          "name": "E2",
          "ticks": 64128,
          "time": 52.736762999999996,
          "velocity": 0.4015748031496063
        },
        {
          "duration": 0.0789472499999988,
          "durationTicks": 96,
          "midi": 38,
          "name": "D2",
          "ticks": 64128,
          "time": 52.736762999999996,
          "velocity": 0.4015748031496063
        },
        {
          "duration": 0.0789472499999988,
          "durationTicks": 96,
          "midi": 40,
          "name": "E2",
          "ticks": 64320,
          "time": 52.8946575,
          "velocity": 0.4015748031496063
        },
        {
          "duration": 0.0789472499999988,
          "durationTicks": 96,
          "midi": 38,
          "name": "D2",
          "ticks": 64320,
          "time": 52.8946575,
          "velocity": 0.4015748031496063
        },
        {
          "duration": 0.0789472499999988,
          "durationTicks": 96,
          "midi": 38,
          "name": "D2",
          "ticks": 64512,
          "time": 53.052552,
          "velocity": 0.4015748031496063
        },
        {
          "duration": 0.0789472499999988,
          "durationTicks": 96,
          "midi": 40,
          "name": "E2",
          "ticks": 64512,
          "time": 53.052552,
          "velocity": 0.4015748031496063
        },
        {
          "duration": 0.0789472499999988,
          "durationTicks": 96,
          "midi": 40,
          "name": "E2",
          "ticks": 64512,
          "time": 53.052552,
          "velocity": 0.4015748031496063
        },
        {
          "duration": 0.0789472499999988,
          "durationTicks": 96,
          "midi": 40,
          "name": "E2",
          "ticks": 64704,
          "time": 53.210446499999996,
          "velocity": 0.4015748031496063
        },
        {
          "duration": 0.0789472499999988,
          "durationTicks": 96,
          "midi": 38,
          "name": "D2",
          "ticks": 64896,
          "time": 53.368341,
          "velocity": 0.4015748031496063
        },
        {
          "duration": 0.0789472499999988,
          "durationTicks": 96,
          "midi": 38,
          "name": "D2",
          "ticks": 64896,
          "time": 53.368341,
          "velocity": 0.4015748031496063
        },
        {
          "duration": 0.0789472499999988,
          "durationTicks": 96,
          "midi": 40,
          "name": "E2",
          "ticks": 65088,
          "time": 53.5262355,
          "velocity": 0.4015748031496063
        },
        {
          "duration": 0.0789472499999988,
          "durationTicks": 96,
          "midi": 40,
          "name": "E2",
          "ticks": 65088,
          "time": 53.5262355,
          "velocity": 0.4015748031496063
        },
        {
          "duration": 0.0789472499999988,
          "durationTicks": 96,
          "midi": 38,
          "name": "D2",
          "ticks": 65280,
          "time": 53.684129999999996,
          "velocity": 0.4015748031496063
        },
        {
          "duration": 0.0789472499999988,
          "durationTicks": 96,
          "midi": 40,
          "name": "E2",
          "ticks": 65280,
          "time": 53.684129999999996,
          "velocity": 0.4015748031496063
        },
        {
          "duration": 0.0789472499999988,
          "durationTicks": 96,
          "midi": 40,
          "name": "E2",
          "ticks": 65280,
          "time": 53.684129999999996,
          "velocity": 0.4015748031496063
        },
        {
          "duration": 0.0789472499999988,
          "durationTicks": 96,
          "midi": 40,
          "name": "E2",
          "ticks": 65472,
          "time": 53.8420245,
          "velocity": 0.4015748031496063
        },
        {
          "duration": 0.0789472499999988,
          "durationTicks": 96,
          "midi": 38,
          "name": "D2",
          "ticks": 65472,
          "time": 53.8420245,
          "velocity": 0.4015748031496063
        },
        {
          "duration": 0.0789472499999988,
          "durationTicks": 96,
          "midi": 38,
          "name": "D2",
          "ticks": 65664,
          "time": 53.999919,
          "velocity": 0.4015748031496063
        },
        {
          "duration": 0.0789472499999988,
          "durationTicks": 96,
          "midi": 40,
          "name": "E2",
          "ticks": 65664,
          "time": 53.999919,
          "velocity": 0.4015748031496063
        },
        {
          "duration": 0.0789472499999988,
          "durationTicks": 96,
          "midi": 40,
          "name": "E2",
          "ticks": 65856,
          "time": 54.157813499999996,
          "velocity": 0.4015748031496063
        },
        {
          "duration": 0.0789472499999988,
          "durationTicks": 96,
          "midi": 38,
          "name": "D2",
          "ticks": 65856,
          "time": 54.157813499999996,
          "velocity": 0.4015748031496063
        },
        {
          "duration": 0.0789472499999988,
          "durationTicks": 96,
          "midi": 38,
          "name": "D2",
          "ticks": 66048,
          "time": 54.315708,
          "velocity": 0.4015748031496063
        },
        {
          "duration": 0.0789472499999988,
          "durationTicks": 96,
          "midi": 40,
          "name": "E2",
          "ticks": 66048,
          "time": 54.315708,
          "velocity": 0.4015748031496063
        },
        {
          "duration": 0.0789472499999988,
          "durationTicks": 96,
          "midi": 40,
          "name": "E2",
          "ticks": 66048,
          "time": 54.315708,
          "velocity": 0.4015748031496063
        },
        {
          "duration": 0.0789472499999988,
          "durationTicks": 96,
          "midi": 40,
          "name": "E2",
          "ticks": 66240,
          "time": 54.4736025,
          "velocity": 0.4015748031496063
        },
        {
          "duration": 0.0789472499999988,
          "durationTicks": 96,
          "midi": 38,
          "name": "D2",
          "ticks": 66432,
          "time": 54.631496999999996,
          "velocity": 0.4015748031496063
        },
        {
          "duration": 0.0789472499999988,
          "durationTicks": 96,
          "midi": 38,
          "name": "D2",
          "ticks": 66432,
          "time": 54.631496999999996,
          "velocity": 0.4015748031496063
        },
        {
          "duration": 0.0789472499999988,
          "durationTicks": 96,
          "midi": 40,
          "name": "E2",
          "ticks": 66624,
          "time": 54.7893915,
          "velocity": 0.4015748031496063
        },
        {
          "duration": 0.0789472499999988,
          "durationTicks": 96,
          "midi": 40,
          "name": "E2",
          "ticks": 66624,
          "time": 54.7893915,
          "velocity": 0.4015748031496063
        },
        {
          "duration": 0.0789472499999988,
          "durationTicks": 96,
          "midi": 38,
          "name": "D2",
          "ticks": 66816,
          "time": 54.947286,
          "velocity": 0.4015748031496063
        },
        {
          "duration": 0.0789472499999988,
          "durationTicks": 96,
          "midi": 40,
          "name": "E2",
          "ticks": 66816,
          "time": 54.947286,
          "velocity": 0.4015748031496063
        },
        {
          "duration": 0.0789472499999988,
          "durationTicks": 96,
          "midi": 40,
          "name": "E2",
          "ticks": 66816,
          "time": 54.947286,
          "velocity": 0.4015748031496063
        },
        {
          "duration": 0.0789472499999988,
          "durationTicks": 96,
          "midi": 38,
          "name": "D2",
          "ticks": 67008,
          "time": 55.105180499999996,
          "velocity": 0.4015748031496063
        },
        {
          "duration": 0.0789472499999988,
          "durationTicks": 96,
          "midi": 40,
          "name": "E2",
          "ticks": 67008,
          "time": 55.105180499999996,
          "velocity": 0.4015748031496063
        },
        {
          "duration": 0.0789472499999988,
          "durationTicks": 96,
          "midi": 38,
          "name": "D2",
          "ticks": 67200,
          "time": 55.263075,
          "velocity": 0.4015748031496063
        },
        {
          "duration": 0.0789472499999988,
          "durationTicks": 96,
          "midi": 40,
          "name": "E2",
          "ticks": 67200,
          "time": 55.263075,
          "velocity": 0.4015748031496063
        },
        {
          "duration": 0.0789472499999988,
          "durationTicks": 96,
          "midi": 40,
          "name": "E2",
          "ticks": 67392,
          "time": 55.4209695,
          "velocity": 0.4015748031496063
        },
        {
          "duration": 0.0789472499999988,
          "durationTicks": 96,
          "midi": 38,
          "name": "D2",
          "ticks": 67392,
          "time": 55.4209695,
          "velocity": 0.4015748031496063
        },
        {
          "duration": 0.0789472499999988,
          "durationTicks": 96,
          "midi": 40,
          "name": "E2",
          "ticks": 67584,
          "time": 55.578863999999996,
          "velocity": 0.4015748031496063
        },
        {
          "duration": 0.0789472499999988,
          "durationTicks": 96,
          "midi": 38,
          "name": "D2",
          "ticks": 67584,
          "time": 55.578863999999996,
          "velocity": 0.4015748031496063
        },
        {
          "duration": 0.0789472499999988,
          "durationTicks": 96,
          "midi": 40,
          "name": "E2",
          "ticks": 67584,
          "time": 55.578863999999996,
          "velocity": 0.4015748031496063
        },
        {
          "duration": 0.0789472499999988,
          "durationTicks": 96,
          "midi": 40,
          "name": "E2",
          "ticks": 67776,
          "time": 55.7367585,
          "velocity": 0.4015748031496063
        },
        {
          "duration": 0.0789472499999988,
          "durationTicks": 96,
          "midi": 38,
          "name": "D2",
          "ticks": 67968,
          "time": 55.894653,
          "velocity": 0.4015748031496063
        },
        {
          "duration": 0.0789472499999988,
          "durationTicks": 96,
          "midi": 38,
          "name": "D2",
          "ticks": 67968,
          "time": 55.894653,
          "velocity": 0.4015748031496063
        },
        {
          "duration": 0.0789472499999988,
          "durationTicks": 96,
          "midi": 40,
          "name": "E2",
          "ticks": 68160,
          "time": 56.052547499999996,
          "velocity": 0.4015748031496063
        },
        {
          "duration": 0.0789472499999988,
          "durationTicks": 96,
          "midi": 40,
          "name": "E2",
          "ticks": 68160,
          "time": 56.052547499999996,
          "velocity": 0.4015748031496063
        },
        {
          "duration": 0.0789472499999988,
          "durationTicks": 96,
          "midi": 40,
          "name": "E2",
          "ticks": 68352,
          "time": 56.210442,
          "velocity": 0.4015748031496063
        },
        {
          "duration": 0.0789472499999988,
          "durationTicks": 96,
          "midi": 40,
          "name": "E2",
          "ticks": 68352,
          "time": 56.210442,
          "velocity": 0.4015748031496063
        },
        {
          "duration": 0.0789472499999988,
          "durationTicks": 96,
          "midi": 38,
          "name": "D2",
          "ticks": 68352,
          "time": 56.210442,
          "velocity": 0.4015748031496063
        },
        {
          "duration": 0.0789472499999988,
          "durationTicks": 96,
          "midi": 40,
          "name": "E2",
          "ticks": 68544,
          "time": 56.3683365,
          "velocity": 0.4015748031496063
        },
        {
          "duration": 0.0789472499999988,
          "durationTicks": 96,
          "midi": 38,
          "name": "D2",
          "ticks": 68544,
          "time": 56.3683365,
          "velocity": 0.4015748031496063
        },
        {
          "duration": 0.0789472499999988,
          "durationTicks": 96,
          "midi": 38,
          "name": "D2",
          "ticks": 68736,
          "time": 56.526230999999996,
          "velocity": 0.4015748031496063
        },
        {
          "duration": 0.0789472499999988,
          "durationTicks": 96,
          "midi": 40,
          "name": "E2",
          "ticks": 68736,
          "time": 56.526230999999996,
          "velocity": 0.4015748031496063
        },
        {
          "duration": 0.0789472499999988,
          "durationTicks": 96,
          "midi": 40,
          "name": "E2",
          "ticks": 68928,
          "time": 56.6841255,
          "velocity": 0.4015748031496063
        },
        {
          "duration": 0.0789472499999988,
          "durationTicks": 96,
          "midi": 38,
          "name": "D2",
          "ticks": 68928,
          "time": 56.6841255,
          "velocity": 0.4015748031496063
        },
        {
          "duration": 0.0789472499999988,
          "durationTicks": 96,
          "midi": 38,
          "name": "D2",
          "ticks": 69120,
          "time": 56.84202,
          "velocity": 0.4015748031496063
        },
        {
          "duration": 0.0789472499999988,
          "durationTicks": 96,
          "midi": 40,
          "name": "E2",
          "ticks": 69120,
          "time": 56.84202,
          "velocity": 0.4015748031496063
        },
        {
          "duration": 0.0789472499999988,
          "durationTicks": 96,
          "midi": 40,
          "name": "E2",
          "ticks": 69120,
          "time": 56.84202,
          "velocity": 0.4015748031496063
        },
        {
          "duration": 0.0789472499999988,
          "durationTicks": 96,
          "midi": 40,
          "name": "E2",
          "ticks": 69312,
          "time": 56.999914499999996,
          "velocity": 0.4015748031496063
        },
        {
          "duration": 0.0789472499999988,
          "durationTicks": 96,
          "midi": 38,
          "name": "D2",
          "ticks": 69504,
          "time": 57.157809,
          "velocity": 0.4015748031496063
        },
        {
          "duration": 0.0789472499999988,
          "durationTicks": 96,
          "midi": 38,
          "name": "D2",
          "ticks": 69504,
          "time": 57.157809,
          "velocity": 0.4015748031496063
        },
        {
          "duration": 0.0789472499999988,
          "durationTicks": 96,
          "midi": 40,
          "name": "E2",
          "ticks": 69696,
          "time": 57.3157035,
          "velocity": 0.4015748031496063
        },
        {
          "duration": 0.0789472499999988,
          "durationTicks": 96,
          "midi": 40,
          "name": "E2",
          "ticks": 69696,
          "time": 57.3157035,
          "velocity": 0.4015748031496063
        },
        {
          "duration": 0.0789472499999988,
          "durationTicks": 96,
          "midi": 38,
          "name": "D2",
          "ticks": 69888,
          "time": 57.473597999999996,
          "velocity": 0.4015748031496063
        },
        {
          "duration": 0.0789472499999988,
          "durationTicks": 96,
          "midi": 40,
          "name": "E2",
          "ticks": 69888,
          "time": 57.473597999999996,
          "velocity": 0.4015748031496063
        },
        {
          "duration": 0.0789472499999988,
          "durationTicks": 96,
          "midi": 40,
          "name": "E2",
          "ticks": 69888,
          "time": 57.473597999999996,
          "velocity": 0.4015748031496063
        },
        {
          "duration": 0.0789472499999988,
          "durationTicks": 96,
          "midi": 38,
          "name": "D2",
          "ticks": 70080,
          "time": 57.6314925,
          "velocity": 0.4015748031496063
        },
        {
          "duration": 0.0789472499999988,
          "durationTicks": 96,
          "midi": 40,
          "name": "E2",
          "ticks": 70080,
          "time": 57.6314925,
          "velocity": 0.4015748031496063
        },
        {
          "duration": 0.0789472499999988,
          "durationTicks": 96,
          "midi": 40,
          "name": "E2",
          "ticks": 70272,
          "time": 57.789387,
          "velocity": 0.4015748031496063
        },
        {
          "duration": 0.0789472499999988,
          "durationTicks": 96,
          "midi": 38,
          "name": "D2",
          "ticks": 70272,
          "time": 57.789387,
          "velocity": 0.4015748031496063
        },
        {
          "duration": 0.0789472499999988,
          "durationTicks": 96,
          "midi": 38,
          "name": "D2",
          "ticks": 70464,
          "time": 57.947281499999995,
          "velocity": 0.4015748031496063
        },
        {
          "duration": 0.0789472499999988,
          "durationTicks": 96,
          "midi": 40,
          "name": "E2",
          "ticks": 70464,
          "time": 57.947281499999995,
          "velocity": 0.4015748031496063
        },
        {
          "duration": 0.0789472499999988,
          "durationTicks": 96,
          "midi": 40,
          "name": "E2",
          "ticks": 73728,
          "time": 60.631488,
          "velocity": 0.5275590551181102
        },
        {
          "duration": 0.0789472499999988,
          "durationTicks": 96,
          "midi": 38,
          "name": "D2",
          "ticks": 73728,
          "time": 60.631488,
          "velocity": 0.5275590551181102
        },
        {
          "duration": 0.0789472499999988,
          "durationTicks": 96,
          "midi": 40,
          "name": "E2",
          "ticks": 73728,
          "time": 60.631488,
          "velocity": 0.5275590551181102
        },
        {
          "duration": 0.07894725000000591,
          "durationTicks": 96,
          "midi": 40,
          "name": "E2",
          "ticks": 73920,
          "time": 60.789382499999995,
          "velocity": 0.4015748031496063
        },
        {
          "duration": 0.0789472499999988,
          "durationTicks": 96,
          "midi": 38,
          "name": "D2",
          "ticks": 74112,
          "time": 60.947277,
          "velocity": 0.4015748031496063
        },
        {
          "duration": 0.0789472499999988,
          "durationTicks": 96,
          "midi": 38,
          "name": "D2",
          "ticks": 74112,
          "time": 60.947277,
          "velocity": 0.4015748031496063
        },
        {
          "duration": 0.0789472499999988,
          "durationTicks": 96,
          "midi": 38,
          "name": "D2",
          "ticks": 74304,
          "time": 61.1051715,
          "velocity": 0.4015748031496063
        },
        {
          "duration": 0.0789472499999988,
          "durationTicks": 96,
          "midi": 38,
          "name": "D2",
          "ticks": 74304,
          "time": 61.1051715,
          "velocity": 0.4015748031496063
        },
        {
          "duration": 0.0789472499999988,
          "durationTicks": 96,
          "midi": 40,
          "name": "E2",
          "ticks": 74304,
          "time": 61.1051715,
          "velocity": 0.4015748031496063
        },
        {
          "duration": 0.0789472499999988,
          "durationTicks": 96,
          "midi": 40,
          "name": "E2",
          "ticks": 74304,
          "time": 61.1051715,
          "velocity": 0.4015748031496063
        },
        {
          "duration": 0.07894725000000591,
          "durationTicks": 96,
          "midi": 40,
          "name": "E2",
          "ticks": 74496,
          "time": 61.263065999999995,
          "velocity": 0.4015748031496063
        },
        {
          "duration": 0.07894725000000591,
          "durationTicks": 96,
          "midi": 40,
          "name": "E2",
          "ticks": 74496,
          "time": 61.263065999999995,
          "velocity": 0.4015748031496063
        },
        {
          "duration": 0.0789472499999988,
          "durationTicks": 96,
          "midi": 40,
          "name": "E2",
          "ticks": 74688,
          "time": 61.4209605,
          "velocity": 0.4015748031496063
        },
        {
          "duration": 0.0789472499999988,
          "durationTicks": 96,
          "midi": 38,
          "name": "D2",
          "ticks": 74688,
          "time": 61.4209605,
          "velocity": 0.4015748031496063
        },
        {
          "duration": 0.0789472499999988,
          "durationTicks": 96,
          "midi": 38,
          "name": "D2",
          "ticks": 74880,
          "time": 61.578855,
          "velocity": 0.4015748031496063
        },
        {
          "duration": 0.0789472499999988,
          "durationTicks": 96,
          "midi": 40,
          "name": "E2",
          "ticks": 74880,
          "time": 61.578855,
          "velocity": 0.4015748031496063
        },
        {
          "duration": 0.0789472499999988,
          "durationTicks": 96,
          "midi": 38,
          "name": "D2",
          "ticks": 74880,
          "time": 61.578855,
          "velocity": 0.4015748031496063
        },
        {
          "duration": 0.0789472499999988,
          "durationTicks": 96,
          "midi": 38,
          "name": "D2",
          "ticks": 74880,
          "time": 61.578855,
          "velocity": 0.4015748031496063
        },
        {
          "duration": 0.0789472499999988,
          "durationTicks": 96,
          "midi": 38,
          "name": "D2",
          "ticks": 74880,
          "time": 61.578855,
          "velocity": 0.4015748031496063
        },
        {
          "duration": 0.07894725000000591,
          "durationTicks": 96,
          "midi": 40,
          "name": "E2",
          "ticks": 75072,
          "time": 61.736749499999995,
          "velocity": 0.4015748031496063
        },
        {
          "duration": 0.07894725000000591,
          "durationTicks": 96,
          "midi": 38,
          "name": "D2",
          "ticks": 75072,
          "time": 61.736749499999995,
          "velocity": 0.4015748031496063
        },
        {
          "duration": 0.0789472499999988,
          "durationTicks": 96,
          "midi": 38,
          "name": "D2",
          "ticks": 75264,
          "time": 61.894644,
          "velocity": 0.4015748031496063
        },
        {
          "duration": 0.0789472499999988,
          "durationTicks": 96,
          "midi": 40,
          "name": "E2",
          "ticks": 75264,
          "time": 61.894644,
          "velocity": 0.4015748031496063
        },
        {
          "duration": 0.0789472499999988,
          "durationTicks": 96,
          "midi": 40,
          "name": "E2",
          "ticks": 75264,
          "time": 61.894644,
          "velocity": 0.4015748031496063
        },
        {
          "duration": 0.0789472499999988,
          "durationTicks": 96,
          "midi": 40,
          "name": "E2",
          "ticks": 75456,
          "time": 62.0525385,
          "velocity": 0.4015748031496063
        },
        {
          "duration": 0.07894725000000591,
          "durationTicks": 96,
          "midi": 38,
          "name": "D2",
          "ticks": 75648,
          "time": 62.210432999999995,
          "velocity": 0.4015748031496063
        },
        {
          "duration": 0.07894725000000591,
          "durationTicks": 96,
          "midi": 38,
          "name": "D2",
          "ticks": 75648,
          "time": 62.210432999999995,
          "velocity": 0.4015748031496063
        },
        {
          "duration": 0.0789472499999988,
          "durationTicks": 96,
          "midi": 38,
          "name": "D2",
          "ticks": 75840,
          "time": 62.3683275,
          "velocity": 0.4015748031496063
        },
        {
          "duration": 0.0789472499999988,
          "durationTicks": 96,
          "midi": 40,
          "name": "E2",
          "ticks": 75840,
          "time": 62.3683275,
          "velocity": 0.4015748031496063
        },
        {
          "duration": 0.0789472499999988,
          "durationTicks": 96,
          "midi": 40,
          "name": "E2",
          "ticks": 75840,
          "time": 62.3683275,
          "velocity": 0.4015748031496063
        },
        {
          "duration": 0.0789472499999988,
          "durationTicks": 96,
          "midi": 38,
          "name": "D2",
          "ticks": 75840,
          "time": 62.3683275,
          "velocity": 0.4015748031496063
        },
        {
          "duration": 0.0789472499999988,
          "durationTicks": 96,
          "midi": 40,
          "name": "E2",
          "ticks": 76032,
          "time": 62.526222,
          "velocity": 0.4015748031496063
        },
        {
          "duration": 0.0789472499999988,
          "durationTicks": 96,
          "midi": 40,
          "name": "E2",
          "ticks": 76032,
          "time": 62.526222,
          "velocity": 0.4015748031496063
        },
        {
          "duration": 0.07894725000000591,
          "durationTicks": 96,
          "midi": 40,
          "name": "E2",
          "ticks": 76224,
          "time": 62.684116499999995,
          "velocity": 0.4015748031496063
        },
        {
          "duration": 0.07894725000000591,
          "durationTicks": 96,
          "midi": 38,
          "name": "D2",
          "ticks": 76224,
          "time": 62.684116499999995,
          "velocity": 0.4015748031496063
        },
        {
          "duration": 0.0789472499999988,
          "durationTicks": 96,
          "midi": 38,
          "name": "D2",
          "ticks": 76416,
          "time": 62.842011,
          "velocity": 0.4015748031496063
        },
        {
          "duration": 0.0789472499999988,
          "durationTicks": 96,
          "midi": 38,
          "name": "D2",
          "ticks": 76416,
          "time": 62.842011,
          "velocity": 0.4015748031496063
        },
        {
          "duration": 0.0789472499999988,
          "durationTicks": 96,
          "midi": 38,
          "name": "D2",
          "ticks": 76416,
          "time": 62.842011,
          "velocity": 0.4015748031496063
        },
        {
          "duration": 0.0789472499999988,
          "durationTicks": 96,
          "midi": 40,
          "name": "E2",
          "ticks": 76416,
          "time": 62.842011,
          "velocity": 0.4015748031496063
        },
        {
          "duration": 0.0789472499999988,
          "durationTicks": 96,
          "midi": 38,
          "name": "D2",
          "ticks": 76416,
          "time": 62.842011,
          "velocity": 0.4015748031496063
        },
        {
          "duration": 0.0789472499999988,
          "durationTicks": 96,
          "midi": 40,
          "name": "E2",
          "ticks": 76608,
          "time": 62.9999055,
          "velocity": 0.4015748031496063
        },
        {
          "duration": 0.0789472499999988,
          "durationTicks": 96,
          "midi": 38,
          "name": "D2",
          "ticks": 76608,
          "time": 62.9999055,
          "velocity": 0.4015748031496063
        },
        {
          "duration": 0.07894725000000591,
          "durationTicks": 96,
          "midi": 40,
          "name": "E2",
          "ticks": 76800,
          "time": 63.157799999999995,
          "velocity": 0.4015748031496063
        },
        {
          "duration": 0.07894725000000591,
          "durationTicks": 96,
          "midi": 40,
          "name": "E2",
          "ticks": 76800,
          "time": 63.157799999999995,
          "velocity": 0.4015748031496063
        },
        {
          "duration": 0.07894725000000591,
          "durationTicks": 96,
          "midi": 38,
          "name": "D2",
          "ticks": 76800,
          "time": 63.157799999999995,
          "velocity": 0.4015748031496063
        },
        {
          "duration": 0.0789472499999988,
          "durationTicks": 96,
          "midi": 40,
          "name": "E2",
          "ticks": 76992,
          "time": 63.3156945,
          "velocity": 0.4015748031496063
        },
        {
          "duration": 0.0789472499999988,
          "durationTicks": 96,
          "midi": 38,
          "name": "D2",
          "ticks": 77184,
          "time": 63.473589,
          "velocity": 0.4015748031496063
        },
        {
          "duration": 0.0789472499999988,
          "durationTicks": 96,
          "midi": 38,
          "name": "D2",
          "ticks": 77184,
          "time": 63.473589,
          "velocity": 0.4015748031496063
        },
        {
          "duration": 0.07894725000000591,
          "durationTicks": 96,
          "midi": 38,
          "name": "D2",
          "ticks": 77376,
          "time": 63.631483499999995,
          "velocity": 0.4015748031496063
        },
        {
          "duration": 0.07894725000000591,
          "durationTicks": 96,
          "midi": 40,
          "name": "E2",
          "ticks": 77376,
          "time": 63.631483499999995,
          "velocity": 0.4015748031496063
        },
        {
          "duration": 0.07894725000000591,
          "durationTicks": 96,
          "midi": 40,
          "name": "E2",
          "ticks": 77376,
          "time": 63.631483499999995,
          "velocity": 0.4015748031496063
        },
        {
          "duration": 0.07894725000000591,
          "durationTicks": 96,
          "midi": 38,
          "name": "D2",
          "ticks": 77376,
          "time": 63.631483499999995,
          "velocity": 0.4015748031496063
        },
        {
          "duration": 0.0789472499999988,
          "durationTicks": 96,
          "midi": 40,
          "name": "E2",
          "ticks": 77568,
          "time": 63.789378,
          "velocity": 0.4015748031496063
        },
        {
          "duration": 0.0789472499999988,
          "durationTicks": 96,
          "midi": 40,
          "name": "E2",
          "ticks": 77568,
          "time": 63.789378,
          "velocity": 0.4015748031496063
        },
        {
          "duration": 0.0789472499999988,
          "durationTicks": 96,
          "midi": 38,
          "name": "D2",
          "ticks": 77760,
          "time": 63.9472725,
          "velocity": 0.4015748031496063
        },
        {
          "duration": 0.0789472499999988,
          "durationTicks": 96,
          "midi": 40,
          "name": "E2",
          "ticks": 77760,
          "time": 63.9472725,
          "velocity": 0.4015748031496063
        },
        {
          "duration": 0.0789472499999988,
          "durationTicks": 96,
          "midi": 38,
          "name": "D2",
          "ticks": 77952,
          "time": 64.105167,
          "velocity": 0.4015748031496063
        },
        {
          "duration": 0.0789472499999988,
          "durationTicks": 96,
          "midi": 38,
          "name": "D2",
          "ticks": 77952,
          "time": 64.105167,
          "velocity": 0.4015748031496063
        },
        {
          "duration": 0.0789472499999988,
          "durationTicks": 96,
          "midi": 38,
          "name": "D2",
          "ticks": 77952,
          "time": 64.105167,
          "velocity": 0.4015748031496063
        },
        {
          "duration": 0.0789472499999988,
          "durationTicks": 96,
          "midi": 40,
          "name": "E2",
          "ticks": 77952,
          "time": 64.105167,
          "velocity": 0.4015748031496063
        },
        {
          "duration": 0.0789472499999988,
          "durationTicks": 96,
          "midi": 38,
          "name": "D2",
          "ticks": 77952,
          "time": 64.105167,
          "velocity": 0.4015748031496063
        },
        {
          "duration": 0.0789472499999988,
          "durationTicks": 96,
          "midi": 40,
          "name": "E2",
          "ticks": 78144,
          "time": 64.26306149999999,
          "velocity": 0.4015748031496063
        },
        {
          "duration": 0.0789472499999988,
          "durationTicks": 96,
          "midi": 38,
          "name": "D2",
          "ticks": 78144,
          "time": 64.26306149999999,
          "velocity": 0.4015748031496063
        },
        {
          "duration": 0.0789472499999988,
          "durationTicks": 96,
          "midi": 40,
          "name": "E2",
          "ticks": 78336,
          "time": 64.420956,
          "velocity": 0.4015748031496063
        },
        {
          "duration": 0.0789472499999988,
          "durationTicks": 96,
          "midi": 40,
          "name": "E2",
          "ticks": 78336,
          "time": 64.420956,
          "velocity": 0.4015748031496063
        },
        {
          "duration": 0.0789472499999988,
          "durationTicks": 96,
          "midi": 38,
          "name": "D2",
          "ticks": 78336,
          "time": 64.420956,
          "velocity": 0.4015748031496063
        },
        {
          "duration": 0.0789472499999988,
          "durationTicks": 96,
          "midi": 40,
          "name": "E2",
          "ticks": 78528,
          "time": 64.5788505,
          "velocity": 0.4015748031496063
        },
        {
          "duration": 0.0789472499999988,
          "durationTicks": 96,
          "midi": 38,
          "name": "D2",
          "ticks": 78720,
          "time": 64.736745,
          "velocity": 0.4015748031496063
        },
        {
          "duration": 0.0789472499999988,
          "durationTicks": 96,
          "midi": 38,
          "name": "D2",
          "ticks": 78720,
          "time": 64.736745,
          "velocity": 0.4015748031496063
        },
        {
          "duration": 0.0789472499999988,
          "durationTicks": 96,
          "midi": 38,
          "name": "D2",
          "ticks": 78912,
          "time": 64.8946395,
          "velocity": 0.4015748031496063
        },
        {
          "duration": 0.0789472499999988,
          "durationTicks": 96,
          "midi": 40,
          "name": "E2",
          "ticks": 78912,
          "time": 64.8946395,
          "velocity": 0.4015748031496063
        },
        {
          "duration": 0.0789472499999988,
          "durationTicks": 96,
          "midi": 38,
          "name": "D2",
          "ticks": 78912,
          "time": 64.8946395,
          "velocity": 0.4015748031496063
        },
        {
          "duration": 0.0789472499999988,
          "durationTicks": 96,
          "midi": 40,
          "name": "E2",
          "ticks": 78912,
          "time": 64.8946395,
          "velocity": 0.4015748031496063
        },
        {
          "duration": 0.0789472499999988,
          "durationTicks": 96,
          "midi": 40,
          "name": "E2",
          "ticks": 79104,
          "time": 65.052534,
          "velocity": 0.4015748031496063
        },
        {
          "duration": 0.0789472499999988,
          "durationTicks": 96,
          "midi": 40,
          "name": "E2",
          "ticks": 79104,
          "time": 65.052534,
          "velocity": 0.4015748031496063
        },
        {
          "duration": 0.0789472499999988,
          "durationTicks": 96,
          "midi": 40,
          "name": "E2",
          "ticks": 79296,
          "time": 65.21042849999999,
          "velocity": 0.4015748031496063
        },
        {
          "duration": 0.0789472499999988,
          "durationTicks": 96,
          "midi": 38,
          "name": "D2",
          "ticks": 79296,
          "time": 65.21042849999999,
          "velocity": 0.4015748031496063
        },
        {
          "duration": 0.0789472499999988,
          "durationTicks": 96,
          "midi": 38,
          "name": "D2",
          "ticks": 79488,
          "time": 65.368323,
          "velocity": 0.4015748031496063
        },
        {
          "duration": 0.0789472499999988,
          "durationTicks": 96,
          "midi": 38,
          "name": "D2",
          "ticks": 79488,
          "time": 65.368323,
          "velocity": 0.4015748031496063
        },
        {
          "duration": 0.0789472499999988,
          "durationTicks": 96,
          "midi": 38,
          "name": "D2",
          "ticks": 79488,
          "time": 65.368323,
          "velocity": 0.4015748031496063
        },
        {
          "duration": 0.0789472499999988,
          "durationTicks": 96,
          "midi": 38,
          "name": "D2",
          "ticks": 79488,
          "time": 65.368323,
          "velocity": 0.4015748031496063
        },
        {
          "duration": 0.0789472499999988,
          "durationTicks": 96,
          "midi": 40,
          "name": "E2",
          "ticks": 79488,
          "time": 65.368323,
          "velocity": 0.4015748031496063
        },
        {
          "duration": 0.0789472499999988,
          "durationTicks": 96,
          "midi": 38,
          "name": "D2",
          "ticks": 79680,
          "time": 65.5262175,
          "velocity": 0.4015748031496063
        },
        {
          "duration": 0.0789472499999988,
          "durationTicks": 96,
          "midi": 40,
          "name": "E2",
          "ticks": 79680,
          "time": 65.5262175,
          "velocity": 0.4015748031496063
        },
        {
          "duration": 0.0789472499999988,
          "durationTicks": 96,
          "midi": 40,
          "name": "E2",
          "ticks": 79872,
          "time": 65.684112,
          "velocity": 0.4015748031496063
        },
        {
          "duration": 0.0789472499999988,
          "durationTicks": 96,
          "midi": 40,
          "name": "E2",
          "ticks": 79872,
          "time": 65.684112,
          "velocity": 0.4015748031496063
        },
        {
          "duration": 0.0789472499999988,
          "durationTicks": 96,
          "midi": 38,
          "name": "D2",
          "ticks": 79872,
          "time": 65.684112,
          "velocity": 0.4015748031496063
        },
        {
          "duration": 0.0789472499999988,
          "durationTicks": 96,
          "midi": 40,
          "name": "E2",
          "ticks": 80064,
          "time": 65.8420065,
          "velocity": 0.4015748031496063
        },
        {
          "duration": 0.0789472499999988,
          "durationTicks": 96,
          "midi": 38,
          "name": "D2",
          "ticks": 80256,
          "time": 65.999901,
          "velocity": 0.4015748031496063
        },
        {
          "duration": 0.0789472499999988,
          "durationTicks": 96,
          "midi": 38,
          "name": "D2",
          "ticks": 80256,
          "time": 65.999901,
          "velocity": 0.4015748031496063
        },
        {
          "duration": 0.0789472499999988,
          "durationTicks": 96,
          "midi": 38,
          "name": "D2",
          "ticks": 80448,
          "time": 66.15779549999999,
          "velocity": 0.4015748031496063
        },
        {
          "duration": 0.0789472499999988,
          "durationTicks": 96,
          "midi": 40,
          "name": "E2",
          "ticks": 80448,
          "time": 66.15779549999999,
          "velocity": 0.4015748031496063
        },
        {
          "duration": 0.0789472499999988,
          "durationTicks": 96,
          "midi": 40,
          "name": "E2",
          "ticks": 80448,
          "time": 66.15779549999999,
          "velocity": 0.4015748031496063
        },
        {
          "duration": 0.0789472499999988,
          "durationTicks": 96,
          "midi": 38,
          "name": "D2",
          "ticks": 80448,
          "time": 66.15779549999999,
          "velocity": 0.4015748031496063
        },
        {
          "duration": 0.0789472499999988,
          "durationTicks": 96,
          "midi": 40,
          "name": "E2",
          "ticks": 80640,
          "time": 66.31569,
          "velocity": 0.4015748031496063
        },
        {
          "duration": 0.0789472499999988,
          "durationTicks": 96,
          "midi": 40,
          "name": "E2",
          "ticks": 80640,
          "time": 66.31569,
          "velocity": 0.4015748031496063
        },
        {
          "duration": 0.0789472499999988,
          "durationTicks": 96,
          "midi": 40,
          "name": "E2",
          "ticks": 80832,
          "time": 66.4735845,
          "velocity": 0.4015748031496063
        },
        {
          "duration": 0.0789472499999988,
          "durationTicks": 96,
          "midi": 38,
          "name": "D2",
          "ticks": 80832,
          "time": 66.4735845,
          "velocity": 0.4015748031496063
        },
        {
          "duration": 0.0789472499999988,
          "durationTicks": 96,
          "midi": 38,
          "name": "D2",
          "ticks": 81024,
          "time": 66.631479,
          "velocity": 0.4015748031496063
        },
        {
          "duration": 0.0789472499999988,
          "durationTicks": 96,
          "midi": 38,
          "name": "D2",
          "ticks": 81024,
          "time": 66.631479,
          "velocity": 0.4015748031496063
        },
        {
          "duration": 0.0789472499999988,
          "durationTicks": 96,
          "midi": 38,
          "name": "D2",
          "ticks": 81024,
          "time": 66.631479,
          "velocity": 0.4015748031496063
        },
        {
          "duration": 0.0789472499999988,
          "durationTicks": 96,
          "midi": 40,
          "name": "E2",
          "ticks": 81024,
          "time": 66.631479,
          "velocity": 0.4015748031496063
        },
        {
          "duration": 0.0789472499999988,
          "durationTicks": 96,
          "midi": 38,
          "name": "D2",
          "ticks": 81024,
          "time": 66.631479,
          "velocity": 0.4015748031496063
        },
        {
          "duration": 0.0789472499999988,
          "durationTicks": 96,
          "midi": 40,
          "name": "E2",
          "ticks": 81216,
          "time": 66.7893735,
          "velocity": 0.4015748031496063
        },
        {
          "duration": 0.0789472499999988,
          "durationTicks": 96,
          "midi": 38,
          "name": "D2",
          "ticks": 81216,
          "time": 66.7893735,
          "velocity": 0.4015748031496063
        },
        {
          "duration": 0.0789472499999988,
          "durationTicks": 96,
          "midi": 38,
          "name": "D2",
          "ticks": 81408,
          "time": 66.947268,
          "velocity": 0.4015748031496063
        },
        {
          "duration": 0.0789472499999988,
          "durationTicks": 96,
          "midi": 40,
          "name": "E2",
          "ticks": 81408,
          "time": 66.947268,
          "velocity": 0.4015748031496063
        },
        {
          "duration": 0.0789472499999988,
          "durationTicks": 96,
          "midi": 40,
          "name": "E2",
          "ticks": 81408,
          "time": 66.947268,
          "velocity": 0.4015748031496063
        },
        {
          "duration": 0.0789472499999988,
          "durationTicks": 96,
          "midi": 40,
          "name": "E2",
          "ticks": 81600,
          "time": 67.10516249999999,
          "velocity": 0.4015748031496063
        },
        {
          "duration": 0.0789472499999988,
          "durationTicks": 96,
          "midi": 38,
          "name": "D2",
          "ticks": 81792,
          "time": 67.263057,
          "velocity": 0.4015748031496063
        },
        {
          "duration": 0.0789472499999988,
          "durationTicks": 96,
          "midi": 38,
          "name": "D2",
          "ticks": 81792,
          "time": 67.263057,
          "velocity": 0.4015748031496063
        },
        {
          "duration": 0.0789472499999988,
          "durationTicks": 96,
          "midi": 40,
          "name": "E2",
          "ticks": 81984,
          "time": 67.4209515,
          "velocity": 0.4015748031496063
        },
        {
          "duration": 0.0789472499999988,
          "durationTicks": 96,
          "midi": 38,
          "name": "D2",
          "ticks": 81984,
          "time": 67.4209515,
          "velocity": 0.4015748031496063
        },
        {
          "duration": 0.0789472499999988,
          "durationTicks": 96,
          "midi": 38,
          "name": "D2",
          "ticks": 81984,
          "time": 67.4209515,
          "velocity": 0.4015748031496063
        },
        {
          "duration": 0.0789472499999988,
          "durationTicks": 96,
          "midi": 40,
          "name": "E2",
          "ticks": 81984,
          "time": 67.4209515,
          "velocity": 0.4015748031496063
        },
        {
          "duration": 0.0789472499999988,
          "durationTicks": 96,
          "midi": 40,
          "name": "E2",
          "ticks": 82176,
          "time": 67.578846,
          "velocity": 0.4015748031496063
        },
        {
          "duration": 0.0789472499999988,
          "durationTicks": 96,
          "midi": 40,
          "name": "E2",
          "ticks": 82176,
          "time": 67.578846,
          "velocity": 0.4015748031496063
        },
        {
          "duration": 0.0789472499999988,
          "durationTicks": 96,
          "midi": 38,
          "name": "D2",
          "ticks": 82368,
          "time": 67.7367405,
          "velocity": 0.4015748031496063
        },
        {
          "duration": 0.0789472499999988,
          "durationTicks": 96,
          "midi": 40,
          "name": "E2",
          "ticks": 82368,
          "time": 67.7367405,
          "velocity": 0.4015748031496063
        },
        {
          "duration": 0.0789472499999988,
          "durationTicks": 96,
          "midi": 38,
          "name": "D2",
          "ticks": 82560,
          "time": 67.894635,
          "velocity": 0.4015748031496063
        },
        {
          "duration": 0.0789472499999988,
          "durationTicks": 96,
          "midi": 40,
          "name": "E2",
          "ticks": 82560,
          "time": 67.894635,
          "velocity": 0.4015748031496063
        },
        {
          "duration": 0.0789472499999988,
          "durationTicks": 96,
          "midi": 38,
          "name": "D2",
          "ticks": 82560,
          "time": 67.894635,
          "velocity": 0.4015748031496063
        },
        {
          "duration": 0.0789472499999988,
          "durationTicks": 96,
          "midi": 38,
          "name": "D2",
          "ticks": 82560,
          "time": 67.894635,
          "velocity": 0.4015748031496063
        },
        {
          "duration": 0.0789472499999988,
          "durationTicks": 96,
          "midi": 38,
          "name": "D2",
          "ticks": 82560,
          "time": 67.894635,
          "velocity": 0.4015748031496063
        },
        {
          "duration": 0.0789472499999988,
          "durationTicks": 96,
          "midi": 40,
          "name": "E2",
          "ticks": 82752,
          "time": 68.05252949999999,
          "velocity": 0.4015748031496063
        },
        {
          "duration": 0.0789472499999988,
          "durationTicks": 96,
          "midi": 38,
          "name": "D2",
          "ticks": 82752,
          "time": 68.05252949999999,
          "velocity": 0.4015748031496063
        },
        {
          "duration": 0.0789472499999988,
          "durationTicks": 96,
          "midi": 38,
          "name": "D2",
          "ticks": 82944,
          "time": 68.210424,
          "velocity": 0.4015748031496063
        },
        {
          "duration": 0.0789472499999988,
          "durationTicks": 96,
          "midi": 40,
          "name": "E2",
          "ticks": 82944,
          "time": 68.210424,
          "velocity": 0.4015748031496063
        },
        {
          "duration": 0.0789472499999988,
          "durationTicks": 96,
          "midi": 40,
          "name": "E2",
          "ticks": 82944,
          "time": 68.210424,
          "velocity": 0.4015748031496063
        },
        {
          "duration": 0.0789472499999988,
          "durationTicks": 96,
          "midi": 40,
          "name": "E2",
          "ticks": 83136,
          "time": 68.3683185,
          "velocity": 0.4015748031496063
        },
        {
          "duration": 0.0789472499999988,
          "durationTicks": 96,
          "midi": 38,
          "name": "D2",
          "ticks": 83328,
          "time": 68.526213,
          "velocity": 0.4015748031496063
        },
        {
          "duration": 0.0789472499999988,
          "durationTicks": 96,
          "midi": 38,
          "name": "D2",
          "ticks": 83328,
          "time": 68.526213,
          "velocity": 0.4015748031496063
        },
        {
          "duration": 0.0789472499999988,
          "durationTicks": 96,
          "midi": 40,
          "name": "E2",
          "ticks": 83520,
          "time": 68.6841075,
          "velocity": 0.4015748031496063
        },
        {
          "duration": 0.0789472499999988,
          "durationTicks": 96,
          "midi": 38,
          "name": "D2",
          "ticks": 83520,
          "time": 68.6841075,
          "velocity": 0.4015748031496063
        },
        {
          "duration": 0.0789472499999988,
          "durationTicks": 96,
          "midi": 40,
          "name": "E2",
          "ticks": 83520,
          "time": 68.6841075,
          "velocity": 0.4015748031496063
        },
        {
          "duration": 0.0789472499999988,
          "durationTicks": 96,
          "midi": 38,
          "name": "D2",
          "ticks": 83520,
          "time": 68.6841075,
          "velocity": 0.4015748031496063
        },
        {
          "duration": 0.0789472499999988,
          "durationTicks": 96,
          "midi": 40,
          "name": "E2",
          "ticks": 83712,
          "time": 68.842002,
          "velocity": 0.4015748031496063
        },
        {
          "duration": 0.0789472499999988,
          "durationTicks": 96,
          "midi": 40,
          "name": "E2",
          "ticks": 83712,
          "time": 68.842002,
          "velocity": 0.4015748031496063
        },
        {
          "duration": 0.0789472499999988,
          "durationTicks": 96,
          "midi": 40,
          "name": "E2",
          "ticks": 83904,
          "time": 68.99989649999999,
          "velocity": 0.4015748031496063
        },
        {
          "duration": 0.0789472499999988,
          "durationTicks": 96,
          "midi": 38,
          "name": "D2",
          "ticks": 83904,
          "time": 68.99989649999999,
          "velocity": 0.4015748031496063
        },
        {
          "duration": 0.0789472499999988,
          "durationTicks": 96,
          "midi": 38,
          "name": "D2",
          "ticks": 84096,
          "time": 69.157791,
          "velocity": 0.4015748031496063
        },
        {
          "duration": 0.0789472499999988,
          "durationTicks": 96,
          "midi": 38,
          "name": "D2",
          "ticks": 84096,
          "time": 69.157791,
          "velocity": 0.4015748031496063
        },
        {
          "duration": 0.0789472499999988,
          "durationTicks": 96,
          "midi": 38,
          "name": "D2",
          "ticks": 84096,
          "time": 69.157791,
          "velocity": 0.4015748031496063
        },
        {
          "duration": 0.0789472499999988,
          "durationTicks": 96,
          "midi": 40,
          "name": "E2",
          "ticks": 84096,
          "time": 69.157791,
          "velocity": 0.4015748031496063
        },
        {
          "duration": 0.0789472499999988,
          "durationTicks": 96,
          "midi": 38,
          "name": "D2",
          "ticks": 84096,
          "time": 69.157791,
          "velocity": 0.4015748031496063
        },
        {
          "duration": 0.0789472499999988,
          "durationTicks": 96,
          "midi": 40,
          "name": "E2",
          "ticks": 84288,
          "time": 69.3156855,
          "velocity": 0.4015748031496063
        },
        {
          "duration": 0.0789472499999988,
          "durationTicks": 96,
          "midi": 38,
          "name": "D2",
          "ticks": 84288,
          "time": 69.3156855,
          "velocity": 0.4015748031496063
        },
        {
          "duration": 0.0789472499999988,
          "durationTicks": 96,
          "midi": 38,
          "name": "D2",
          "ticks": 84480,
          "time": 69.47358,
          "velocity": 0.4015748031496063
        },
        {
          "duration": 0.0789472499999988,
          "durationTicks": 96,
          "midi": 40,
          "name": "E2",
          "ticks": 84480,
          "time": 69.47358,
          "velocity": 0.4015748031496063
        },
        {
          "duration": 0.0789472499999988,
          "durationTicks": 96,
          "midi": 40,
          "name": "E2",
          "ticks": 84480,
          "time": 69.47358,
          "velocity": 0.4015748031496063
        },
        {
          "duration": 0.0789472499999988,
          "durationTicks": 96,
          "midi": 40,
          "name": "E2",
          "ticks": 84672,
          "time": 69.6314745,
          "velocity": 0.4015748031496063
        },
        {
          "duration": 0.0789472499999988,
          "durationTicks": 96,
          "midi": 38,
          "name": "D2",
          "ticks": 84864,
          "time": 69.789369,
          "velocity": 0.4015748031496063
        },
        {
          "duration": 0.0789472499999988,
          "durationTicks": 96,
          "midi": 38,
          "name": "D2",
          "ticks": 84864,
          "time": 69.789369,
          "velocity": 0.4015748031496063
        },
        {
          "duration": 0.0789472499999988,
          "durationTicks": 96,
          "midi": 40,
          "name": "E2",
          "ticks": 85056,
          "time": 69.94726349999999,
          "velocity": 0.4015748031496063
        },
        {
          "duration": 0.0789472499999988,
          "durationTicks": 96,
          "midi": 40,
          "name": "E2",
          "ticks": 85056,
          "time": 69.94726349999999,
          "velocity": 0.4015748031496063
        },
        {
          "duration": 0.0789472499999988,
          "durationTicks": 96,
          "midi": 38,
          "name": "D2",
          "ticks": 85056,
          "time": 69.94726349999999,
          "velocity": 0.4015748031496063
        },
        {
          "duration": 0.0789472499999988,
          "durationTicks": 96,
          "midi": 38,
          "name": "D2",
          "ticks": 85056,
          "time": 69.94726349999999,
          "velocity": 0.4015748031496063
        },
        {
          "duration": 0.0789472499999988,
          "durationTicks": 96,
          "midi": 40,
          "name": "E2",
          "ticks": 85248,
          "time": 70.105158,
          "velocity": 0.4015748031496063
        },
        {
          "duration": 0.0789472499999988,
          "durationTicks": 96,
          "midi": 40,
          "name": "E2",
          "ticks": 85248,
          "time": 70.105158,
          "velocity": 0.4015748031496063
        },
        {
          "duration": 0.0789472499999988,
          "durationTicks": 96,
          "midi": 40,
          "name": "E2",
          "ticks": 85440,
          "time": 70.2630525,
          "velocity": 0.4015748031496063
        },
        {
          "duration": 0.0789472499999988,
          "durationTicks": 96,
          "midi": 38,
          "name": "D2",
          "ticks": 85440,
          "time": 70.2630525,
          "velocity": 0.4015748031496063
        },
        {
          "duration": 0.0789472499999988,
          "durationTicks": 96,
          "midi": 40,
          "name": "E2",
          "ticks": 85632,
          "time": 70.420947,
          "velocity": 0.4015748031496063
        },
        {
          "duration": 0.0789472499999988,
          "durationTicks": 96,
          "midi": 38,
          "name": "D2",
          "ticks": 85632,
          "time": 70.420947,
          "velocity": 0.4015748031496063
        },
        {
          "duration": 0.0789472499999988,
          "durationTicks": 96,
          "midi": 38,
          "name": "D2",
          "ticks": 85632,
          "time": 70.420947,
          "velocity": 0.4015748031496063
        },
        {
          "duration": 0.0789472499999988,
          "durationTicks": 96,
          "midi": 38,
          "name": "D2",
          "ticks": 85632,
          "time": 70.420947,
          "velocity": 0.4015748031496063
        },
        {
          "duration": 0.0789472499999988,
          "durationTicks": 96,
          "midi": 38,
          "name": "D2",
          "ticks": 85632,
          "time": 70.420947,
          "velocity": 0.4015748031496063
        },
        {
          "duration": 0.0789472499999988,
          "durationTicks": 96,
          "midi": 40,
          "name": "E2",
          "ticks": 85824,
          "time": 70.5788415,
          "velocity": 0.4015748031496063
        },
        {
          "duration": 0.0789472499999988,
          "durationTicks": 96,
          "midi": 38,
          "name": "D2",
          "ticks": 85824,
          "time": 70.5788415,
          "velocity": 0.4015748031496063
        },
        {
          "duration": 0.0789472499999988,
          "durationTicks": 96,
          "midi": 40,
          "name": "E2",
          "ticks": 86016,
          "time": 70.736736,
          "velocity": 0.4015748031496063
        },
        {
          "duration": 0.0789472499999988,
          "durationTicks": 96,
          "midi": 40,
          "name": "E2",
          "ticks": 86016,
          "time": 70.736736,
          "velocity": 0.4015748031496063
        },
        {
          "duration": 0.0789472499999988,
          "durationTicks": 96,
          "midi": 38,
          "name": "D2",
          "ticks": 86016,
          "time": 70.736736,
          "velocity": 0.4015748031496063
        },
        {
          "duration": 0.07894725000001301,
          "durationTicks": 96,
          "midi": 40,
          "name": "E2",
          "ticks": 86208,
          "time": 70.89463049999999,
          "velocity": 0.4015748031496063
        },
        {
          "duration": 0.0789472499999988,
          "durationTicks": 96,
          "midi": 38,
          "name": "D2",
          "ticks": 86400,
          "time": 71.052525,
          "velocity": 0.4015748031496063
        },
        {
          "duration": 0.0789472499999988,
          "durationTicks": 96,
          "midi": 38,
          "name": "D2",
          "ticks": 86400,
          "time": 71.052525,
          "velocity": 0.4015748031496063
        },
        {
          "duration": 0.0789472499999988,
          "durationTicks": 96,
          "midi": 38,
          "name": "D2",
          "ticks": 86592,
          "time": 71.2104195,
          "velocity": 0.4015748031496063
        },
        {
          "duration": 0.0789472499999988,
          "durationTicks": 96,
          "midi": 40,
          "name": "E2",
          "ticks": 86592,
          "time": 71.2104195,
          "velocity": 0.4015748031496063
        },
        {
          "duration": 0.0789472499999988,
          "durationTicks": 96,
          "midi": 40,
          "name": "E2",
          "ticks": 86592,
          "time": 71.2104195,
          "velocity": 0.4015748031496063
        },
        {
          "duration": 0.0789472499999988,
          "durationTicks": 96,
          "midi": 38,
          "name": "D2",
          "ticks": 86592,
          "time": 71.2104195,
          "velocity": 0.4015748031496063
        },
        {
          "duration": 0.0789472499999988,
          "durationTicks": 96,
          "midi": 40,
          "name": "E2",
          "ticks": 86784,
          "time": 71.368314,
          "velocity": 0.4015748031496063
        },
        {
          "duration": 0.0789472499999988,
          "durationTicks": 96,
          "midi": 40,
          "name": "E2",
          "ticks": 86784,
          "time": 71.368314,
          "velocity": 0.4015748031496063
        },
        {
          "duration": 0.0789472499999988,
          "durationTicks": 96,
          "midi": 40,
          "name": "E2",
          "ticks": 86976,
          "time": 71.5262085,
          "velocity": 0.4015748031496063
        },
        {
          "duration": 0.0789472499999988,
          "durationTicks": 96,
          "midi": 38,
          "name": "D2",
          "ticks": 86976,
          "time": 71.5262085,
          "velocity": 0.4015748031496063
        },
        {
          "duration": 0.0789472499999988,
          "durationTicks": 96,
          "midi": 40,
          "name": "E2",
          "ticks": 87168,
          "time": 71.684103,
          "velocity": 0.4015748031496063
        },
        {
          "duration": 0.0789472499999988,
          "durationTicks": 96,
          "midi": 38,
          "name": "D2",
          "ticks": 87168,
          "time": 71.684103,
          "velocity": 0.4015748031496063
        },
        {
          "duration": 0.0789472499999988,
          "durationTicks": 96,
          "midi": 38,
          "name": "D2",
          "ticks": 87168,
          "time": 71.684103,
          "velocity": 0.4015748031496063
        },
        {
          "duration": 0.0789472499999988,
          "durationTicks": 96,
          "midi": 38,
          "name": "D2",
          "ticks": 87168,
          "time": 71.684103,
          "velocity": 0.4015748031496063
        },
        {
          "duration": 0.0789472499999988,
          "durationTicks": 96,
          "midi": 38,
          "name": "D2",
          "ticks": 87168,
          "time": 71.684103,
          "velocity": 0.4015748031496063
        },
        {
          "duration": 0.07894725000001301,
          "durationTicks": 96,
          "midi": 38,
          "name": "D2",
          "ticks": 87360,
          "time": 71.84199749999999,
          "velocity": 0.4015748031496063
        },
        {
          "duration": 0.07894725000001301,
          "durationTicks": 96,
          "midi": 40,
          "name": "E2",
          "ticks": 87360,
          "time": 71.84199749999999,
          "velocity": 0.4015748031496063
        },
        {
          "duration": 0.0789472499999988,
          "durationTicks": 96,
          "midi": 38,
          "name": "D2",
          "ticks": 87552,
          "time": 71.999892,
          "velocity": 0.4015748031496063
        },
        {
          "duration": 0.0789472499999988,
          "durationTicks": 96,
          "midi": 40,
          "name": "E2",
          "ticks": 87552,
          "time": 71.999892,
          "velocity": 0.4015748031496063
        },
        {
          "duration": 0.0789472499999988,
          "durationTicks": 96,
          "midi": 40,
          "name": "E2",
          "ticks": 87552,
          "time": 71.999892,
          "velocity": 0.4015748031496063
        },
        {
          "duration": 0.0789472499999988,
          "durationTicks": 96,
          "midi": 40,
          "name": "E2",
          "ticks": 87744,
          "time": 72.1577865,
          "velocity": 0.4015748031496063
        },
        {
          "duration": 0.0789472499999988,
          "durationTicks": 96,
          "midi": 38,
          "name": "D2",
          "ticks": 87936,
          "time": 72.315681,
          "velocity": 0.4015748031496063
        },
        {
          "duration": 0.0789472499999988,
          "durationTicks": 96,
          "midi": 38,
          "name": "D2",
          "ticks": 87936,
          "time": 72.315681,
          "velocity": 0.4015748031496063
        },
        {
          "duration": 0.0789472499999988,
          "durationTicks": 96,
          "midi": 40,
          "name": "E2",
          "ticks": 88128,
          "time": 72.4735755,
          "velocity": 0.4015748031496063
        },
        {
          "duration": 0.0789472499999988,
          "durationTicks": 96,
          "midi": 38,
          "name": "D2",
          "ticks": 88128,
          "time": 72.4735755,
          "velocity": 0.4015748031496063
        },
        {
          "duration": 0.0789472499999988,
          "durationTicks": 96,
          "midi": 40,
          "name": "E2",
          "ticks": 88128,
          "time": 72.4735755,
          "velocity": 0.4015748031496063
        },
        {
          "duration": 0.0789472499999988,
          "durationTicks": 96,
          "midi": 38,
          "name": "D2",
          "ticks": 88128,
          "time": 72.4735755,
          "velocity": 0.4015748031496063
        },
        {
          "duration": 0.0789472499999988,
          "durationTicks": 96,
          "midi": 40,
          "name": "E2",
          "ticks": 88320,
          "time": 72.63147,
          "velocity": 0.4015748031496063
        },
        {
          "duration": 0.0789472499999988,
          "durationTicks": 96,
          "midi": 40,
          "name": "E2",
          "ticks": 88320,
          "time": 72.63147,
          "velocity": 0.4015748031496063
        },
        {
          "duration": 0.07894725000001301,
          "durationTicks": 96,
          "midi": 38,
          "name": "D2",
          "ticks": 88512,
          "time": 72.78936449999999,
          "velocity": 0.4015748031496063
        },
        {
          "duration": 0.07894725000001301,
          "durationTicks": 96,
          "midi": 40,
          "name": "E2",
          "ticks": 88512,
          "time": 72.78936449999999,
          "velocity": 0.4015748031496063
        },
        {
          "duration": 0.0789472499999988,
          "durationTicks": 96,
          "midi": 38,
          "name": "D2",
          "ticks": 88704,
          "time": 72.947259,
          "velocity": 0.4015748031496063
        },
        {
          "duration": 0.0789472499999988,
          "durationTicks": 96,
          "midi": 38,
          "name": "D2",
          "ticks": 88704,
          "time": 72.947259,
          "velocity": 0.4015748031496063
        },
        {
          "duration": 0.0789472499999988,
          "durationTicks": 96,
          "midi": 38,
          "name": "D2",
          "ticks": 88704,
          "time": 72.947259,
          "velocity": 0.4015748031496063
        },
        {
          "duration": 0.0789472499999988,
          "durationTicks": 96,
          "midi": 40,
          "name": "E2",
          "ticks": 88704,
          "time": 72.947259,
          "velocity": 0.4015748031496063
        },
        {
          "duration": 0.0789472499999988,
          "durationTicks": 96,
          "midi": 38,
          "name": "D2",
          "ticks": 88704,
          "time": 72.947259,
          "velocity": 0.4015748031496063
        },
        {
          "duration": 0.0789472499999988,
          "durationTicks": 96,
          "midi": 38,
          "name": "D2",
          "ticks": 88896,
          "time": 73.1051535,
          "velocity": 0.4015748031496063
        },
        {
          "duration": 0.0789472499999988,
          "durationTicks": 96,
          "midi": 40,
          "name": "E2",
          "ticks": 88896,
          "time": 73.1051535,
          "velocity": 0.4015748031496063
        },
        {
          "duration": 0.0789472499999988,
          "durationTicks": 96,
          "midi": 40,
          "name": "E2",
          "ticks": 89088,
          "time": 73.263048,
          "velocity": 0.4015748031496063
        },
        {
          "duration": 0.0789472499999988,
          "durationTicks": 96,
          "midi": 40,
          "name": "E2",
          "ticks": 89088,
          "time": 73.263048,
          "velocity": 0.4015748031496063
        },
        {
          "duration": 0.0789472499999988,
          "durationTicks": 96,
          "midi": 38,
          "name": "D2",
          "ticks": 89088,
          "time": 73.263048,
          "velocity": 0.4015748031496063
        },
        {
          "duration": 0.0789472499999988,
          "durationTicks": 96,
          "midi": 40,
          "name": "E2",
          "ticks": 89280,
          "time": 73.4209425,
          "velocity": 0.4015748031496063
        },
        {
          "duration": 0.0789472499999988,
          "durationTicks": 96,
          "midi": 38,
          "name": "D2",
          "ticks": 89472,
          "time": 73.578837,
          "velocity": 0.4015748031496063
        },
        {
          "duration": 0.0789472499999988,
          "durationTicks": 96,
          "midi": 38,
          "name": "D2",
          "ticks": 89472,
          "time": 73.578837,
          "velocity": 0.4015748031496063
        },
        {
          "duration": 0.07894725000001301,
          "durationTicks": 96,
          "midi": 40,
          "name": "E2",
          "ticks": 89664,
          "time": 73.73673149999999,
          "velocity": 0.4015748031496063
        },
        {
          "duration": 0.07894725000001301,
          "durationTicks": 96,
          "midi": 38,
          "name": "D2",
          "ticks": 89664,
          "time": 73.73673149999999,
          "velocity": 0.4015748031496063
        },
        {
          "duration": 0.07894725000001301,
          "durationTicks": 96,
          "midi": 38,
          "name": "D2",
          "ticks": 89664,
          "time": 73.73673149999999,
          "velocity": 0.4015748031496063
        },
        {
          "duration": 0.07894725000001301,
          "durationTicks": 96,
          "midi": 40,
          "name": "E2",
          "ticks": 89664,
          "time": 73.73673149999999,
          "velocity": 0.4015748031496063
        },
        {
          "duration": 0.0789472499999988,
          "durationTicks": 96,
          "midi": 40,
          "name": "E2",
          "ticks": 89856,
          "time": 73.894626,
          "velocity": 0.4015748031496063
        },
        {
          "duration": 0.0789472499999988,
          "durationTicks": 96,
          "midi": 40,
          "name": "E2",
          "ticks": 89856,
          "time": 73.894626,
          "velocity": 0.4015748031496063
        },
        {
          "duration": 0.0789472499999988,
          "durationTicks": 96,
          "midi": 38,
          "name": "D2",
          "ticks": 90048,
          "time": 74.0525205,
          "velocity": 0.4015748031496063
        },
        {
          "duration": 0.0789472499999988,
          "durationTicks": 96,
          "midi": 40,
          "name": "E2",
          "ticks": 90048,
          "time": 74.0525205,
          "velocity": 0.4015748031496063
        },
        {
          "duration": 0.0789472499999988,
          "durationTicks": 96,
          "midi": 38,
          "name": "D2",
          "ticks": 90240,
          "time": 74.210415,
          "velocity": 0.4015748031496063
        },
        {
          "duration": 0.0789472499999988,
          "durationTicks": 96,
          "midi": 38,
          "name": "D2",
          "ticks": 90240,
          "time": 74.210415,
          "velocity": 0.4015748031496063
        },
        {
          "duration": 0.0789472499999988,
          "durationTicks": 96,
          "midi": 40,
          "name": "E2",
          "ticks": 90240,
          "time": 74.210415,
          "velocity": 0.4015748031496063
        },
        {
          "duration": 0.0789472499999988,
          "durationTicks": 96,
          "midi": 38,
          "name": "D2",
          "ticks": 90240,
          "time": 74.210415,
          "velocity": 0.4015748031496063
        },
        {
          "duration": 0.0789472499999988,
          "durationTicks": 96,
          "midi": 38,
          "name": "D2",
          "ticks": 90240,
          "time": 74.210415,
          "velocity": 0.4015748031496063
        },
        {
          "duration": 0.0789472499999988,
          "durationTicks": 96,
          "midi": 38,
          "name": "D2",
          "ticks": 90432,
          "time": 74.3683095,
          "velocity": 0.4015748031496063
        },
        {
          "duration": 0.0789472499999988,
          "durationTicks": 96,
          "midi": 40,
          "name": "E2",
          "ticks": 90432,
          "time": 74.3683095,
          "velocity": 0.4015748031496063
        },
        {
          "duration": 0.0789472499999988,
          "durationTicks": 96,
          "midi": 38,
          "name": "D2",
          "ticks": 90624,
          "time": 74.52620399999999,
          "velocity": 0.4015748031496063
        },
        {
          "duration": 0.0789472499999988,
          "durationTicks": 96,
          "midi": 40,
          "name": "E2",
          "ticks": 90624,
          "time": 74.52620399999999,
          "velocity": 0.4015748031496063
        },
        {
          "duration": 0.0789472499999988,
          "durationTicks": 96,
          "midi": 40,
          "name": "E2",
          "ticks": 90624,
          "time": 74.52620399999999,
          "velocity": 0.4015748031496063
        },
        {
          "duration": 0.07894725000001301,
          "durationTicks": 96,
          "midi": 40,
          "name": "E2",
          "ticks": 90816,
          "time": 74.68409849999999,
          "velocity": 0.4015748031496063
        },
        {
          "duration": 0.0789472499999988,
          "durationTicks": 96,
          "midi": 38,
          "name": "D2",
          "ticks": 91008,
          "time": 74.841993,
          "velocity": 0.4015748031496063
        },
        {
          "duration": 0.0789472499999988,
          "durationTicks": 96,
          "midi": 38,
          "name": "D2",
          "ticks": 91008,
          "time": 74.841993,
          "velocity": 0.4015748031496063
        },
        {
          "duration": 0.0789472499999988,
          "durationTicks": 96,
          "midi": 40,
          "name": "E2",
          "ticks": 91200,
          "time": 74.9998875,
          "velocity": 0.4015748031496063
        },
        {
          "duration": 0.0789472499999988,
          "durationTicks": 96,
          "midi": 38,
          "name": "D2",
          "ticks": 91200,
          "time": 74.9998875,
          "velocity": 0.4015748031496063
        },
        {
          "duration": 0.0789472499999988,
          "durationTicks": 96,
          "midi": 40,
          "name": "E2",
          "ticks": 91200,
          "time": 74.9998875,
          "velocity": 0.4015748031496063
        },
        {
          "duration": 0.0789472499999988,
          "durationTicks": 96,
          "midi": 38,
          "name": "D2",
          "ticks": 91200,
          "time": 74.9998875,
          "velocity": 0.4015748031496063
        },
        {
          "duration": 0.0789472499999988,
          "durationTicks": 96,
          "midi": 40,
          "name": "E2",
          "ticks": 91392,
          "time": 75.157782,
          "velocity": 0.4015748031496063
        },
        {
          "duration": 0.0789472499999988,
          "durationTicks": 96,
          "midi": 40,
          "name": "E2",
          "ticks": 91392,
          "time": 75.157782,
          "velocity": 0.4015748031496063
        },
        {
          "duration": 0.0789472499999988,
          "durationTicks": 96,
          "midi": 38,
          "name": "D2",
          "ticks": 91584,
          "time": 75.3156765,
          "velocity": 0.4015748031496063
        },
        {
          "duration": 0.0789472499999988,
          "durationTicks": 96,
          "midi": 40,
          "name": "E2",
          "ticks": 91584,
          "time": 75.3156765,
          "velocity": 0.4015748031496063
        },
        {
          "duration": 0.0789472499999988,
          "durationTicks": 96,
          "midi": 38,
          "name": "D2",
          "ticks": 91776,
          "time": 75.47357099999999,
          "velocity": 0.4015748031496063
        },
        {
          "duration": 0.0789472499999988,
          "durationTicks": 96,
          "midi": 40,
          "name": "E2",
          "ticks": 91776,
          "time": 75.47357099999999,
          "velocity": 0.4015748031496063
        },
        {
          "duration": 0.0789472499999988,
          "durationTicks": 96,
          "midi": 38,
          "name": "D2",
          "ticks": 91776,
          "time": 75.47357099999999,
          "velocity": 0.4015748031496063
        },
        {
          "duration": 0.0789472499999988,
          "durationTicks": 96,
          "midi": 38,
          "name": "D2",
          "ticks": 91776,
          "time": 75.47357099999999,
          "velocity": 0.4015748031496063
        },
        {
          "duration": 0.0789472499999988,
          "durationTicks": 96,
          "midi": 38,
          "name": "D2",
          "ticks": 91776,
          "time": 75.47357099999999,
          "velocity": 0.4015748031496063
        },
        {
          "duration": 0.07894725000001301,
          "durationTicks": 96,
          "midi": 40,
          "name": "E2",
          "ticks": 91968,
          "time": 75.63146549999999,
          "velocity": 0.4015748031496063
        },
        {
          "duration": 0.07894725000001301,
          "durationTicks": 96,
          "midi": 38,
          "name": "D2",
          "ticks": 91968,
          "time": 75.63146549999999,
          "velocity": 0.4015748031496063
        },
        {
          "duration": 0.0789472499999988,
          "durationTicks": 96,
          "midi": 40,
          "name": "E2",
          "ticks": 92160,
          "time": 75.78936,
          "velocity": 0.4015748031496063
        },
        {
          "duration": 0.0789472499999988,
          "durationTicks": 96,
          "midi": 38,
          "name": "D2",
          "ticks": 92160,
          "time": 75.78936,
          "velocity": 0.4015748031496063
        },
        {
          "duration": 0.0789472499999988,
          "durationTicks": 96,
          "midi": 40,
          "name": "E2",
          "ticks": 92160,
          "time": 75.78936,
          "velocity": 0.4015748031496063
        },
        {
          "duration": 0.0789472499999988,
          "durationTicks": 96,
          "midi": 40,
          "name": "E2",
          "ticks": 92352,
          "time": 75.9472545,
          "velocity": 0.4015748031496063
        },
        {
          "duration": 0.0789472499999988,
          "durationTicks": 96,
          "midi": 38,
          "name": "D2",
          "ticks": 92544,
          "time": 76.105149,
          "velocity": 0.4015748031496063
        },
        {
          "duration": 0.0789472499999988,
          "durationTicks": 96,
          "midi": 38,
          "name": "D2",
          "ticks": 92544,
          "time": 76.105149,
          "velocity": 0.4015748031496063
        },
        {
          "duration": 0.0789472499999988,
          "durationTicks": 96,
          "midi": 38,
          "name": "D2",
          "ticks": 92736,
          "time": 76.2630435,
          "velocity": 0.4015748031496063
        },
        {
          "duration": 0.0789472499999988,
          "durationTicks": 96,
          "midi": 38,
          "name": "D2",
          "ticks": 92736,
          "time": 76.2630435,
          "velocity": 0.4015748031496063
        },
        {
          "duration": 0.0789472499999988,
          "durationTicks": 96,
          "midi": 40,
          "name": "E2",
          "ticks": 92736,
          "time": 76.2630435,
          "velocity": 0.4015748031496063
        },
        {
          "duration": 0.0789472499999988,
          "durationTicks": 96,
          "midi": 40,
          "name": "E2",
          "ticks": 92736,
          "time": 76.2630435,
          "velocity": 0.4015748031496063
        },
        {
          "duration": 0.0789472499999988,
          "durationTicks": 96,
          "midi": 40,
          "name": "E2",
          "ticks": 92928,
          "time": 76.42093799999999,
          "velocity": 0.4015748031496063
        },
        {
          "duration": 0.0789472499999988,
          "durationTicks": 96,
          "midi": 40,
          "name": "E2",
          "ticks": 92928,
          "time": 76.42093799999999,
          "velocity": 0.4015748031496063
        },
        {
          "duration": 0.07894725000001301,
          "durationTicks": 96,
          "midi": 38,
          "name": "D2",
          "ticks": 93120,
          "time": 76.57883249999999,
          "velocity": 0.4015748031496063
        },
        {
          "duration": 0.07894725000001301,
          "durationTicks": 96,
          "midi": 40,
          "name": "E2",
          "ticks": 93120,
          "time": 76.57883249999999,
          "velocity": 0.4015748031496063
        },
        {
          "duration": 0.0789472499999988,
          "durationTicks": 96,
          "midi": 38,
          "name": "D2",
          "ticks": 93312,
          "time": 76.736727,
          "velocity": 0.4015748031496063
        },
        {
          "duration": 0.0789472499999988,
          "durationTicks": 96,
          "midi": 38,
          "name": "D2",
          "ticks": 93312,
          "time": 76.736727,
          "velocity": 0.4015748031496063
        },
        {
          "duration": 0.0789472499999988,
          "durationTicks": 96,
          "midi": 38,
          "name": "D2",
          "ticks": 93312,
          "time": 76.736727,
          "velocity": 0.4015748031496063
        },
        {
          "duration": 0.0789472499999988,
          "durationTicks": 96,
          "midi": 40,
          "name": "E2",
          "ticks": 93312,
          "time": 76.736727,
          "velocity": 0.4015748031496063
        },
        {
          "duration": 0.0789472499999988,
          "durationTicks": 96,
          "midi": 38,
          "name": "D2",
          "ticks": 93312,
          "time": 76.736727,
          "velocity": 0.4015748031496063
        },
        {
          "duration": 0.0789472499999988,
          "durationTicks": 96,
          "midi": 40,
          "name": "E2",
          "ticks": 93504,
          "time": 76.8946215,
          "velocity": 0.4015748031496063
        },
        {
          "duration": 0.0789472499999988,
          "durationTicks": 96,
          "midi": 38,
          "name": "D2",
          "ticks": 93504,
          "time": 76.8946215,
          "velocity": 0.4015748031496063
        },
        {
          "duration": 0.0789472499999988,
          "durationTicks": 96,
          "midi": 40,
          "name": "E2",
          "ticks": 93696,
          "time": 77.052516,
          "velocity": 0.4015748031496063
        },
        {
          "duration": 0.0789472499999988,
          "durationTicks": 96,
          "midi": 38,
          "name": "D2",
          "ticks": 93696,
          "time": 77.052516,
          "velocity": 0.4015748031496063
        },
        {
          "duration": 0.0789472499999988,
          "durationTicks": 96,
          "midi": 40,
          "name": "E2",
          "ticks": 93696,
          "time": 77.052516,
          "velocity": 0.4015748031496063
        },
        {
          "duration": 0.0789472499999988,
          "durationTicks": 96,
          "midi": 40,
          "name": "E2",
          "ticks": 93888,
          "time": 77.2104105,
          "velocity": 0.4015748031496063
        },
        {
          "duration": 0.0789472499999988,
          "durationTicks": 96,
          "midi": 38,
          "name": "D2",
          "ticks": 94080,
          "time": 77.36830499999999,
          "velocity": 0.4015748031496063
        },
        {
          "duration": 0.0789472499999988,
          "durationTicks": 96,
          "midi": 38,
          "name": "D2",
          "ticks": 94080,
          "time": 77.36830499999999,
          "velocity": 0.4015748031496063
        },
        {
          "duration": 0.07894725000001301,
          "durationTicks": 96,
          "midi": 38,
          "name": "D2",
          "ticks": 94272,
          "time": 77.52619949999999,
          "velocity": 0.4015748031496063
        },
        {
          "duration": 0.07894725000001301,
          "durationTicks": 96,
          "midi": 40,
          "name": "E2",
          "ticks": 94272,
          "time": 77.52619949999999,
          "velocity": 0.4015748031496063
        },
        {
          "duration": 0.07894725000001301,
          "durationTicks": 96,
          "midi": 40,
          "name": "E2",
          "ticks": 94272,
          "time": 77.52619949999999,
          "velocity": 0.4015748031496063
        },
        {
          "duration": 0.07894725000001301,
          "durationTicks": 96,
          "midi": 38,
          "name": "D2",
          "ticks": 94272,
          "time": 77.52619949999999,
          "velocity": 0.4015748031496063
        },
        {
          "duration": 0.0789472499999988,
          "durationTicks": 96,
          "midi": 40,
          "name": "E2",
          "ticks": 94464,
          "time": 77.684094,
          "velocity": 0.4015748031496063
        },
        {
          "duration": 0.0789472499999988,
          "durationTicks": 96,
          "midi": 40,
          "name": "E2",
          "ticks": 94464,
          "time": 77.684094,
          "velocity": 0.4015748031496063
        },
        {
          "duration": 0.0789472499999988,
          "durationTicks": 96,
          "midi": 40,
          "name": "E2",
          "ticks": 94656,
          "time": 77.8419885,
          "velocity": 0.4015748031496063
        },
        {
          "duration": 0.0789472499999988,
          "durationTicks": 96,
          "midi": 38,
          "name": "D2",
          "ticks": 94656,
          "time": 77.8419885,
          "velocity": 0.4015748031496063
        },
        {
          "duration": 0.0789472499999988,
          "durationTicks": 96,
          "midi": 40,
          "name": "E2",
          "ticks": 94848,
          "time": 77.999883,
          "velocity": 0.4015748031496063
        },
        {
          "duration": 0.0789472499999988,
          "durationTicks": 96,
          "midi": 38,
          "name": "D2",
          "ticks": 94848,
          "time": 77.999883,
          "velocity": 0.4015748031496063
        },
        {
          "duration": 0.0789472499999988,
          "durationTicks": 96,
          "midi": 38,
          "name": "D2",
          "ticks": 94848,
          "time": 77.999883,
          "velocity": 0.4015748031496063
        },
        {
          "duration": 0.0789472499999988,
          "durationTicks": 96,
          "midi": 38,
          "name": "D2",
          "ticks": 94848,
          "time": 77.999883,
          "velocity": 0.4015748031496063
        },
        {
          "duration": 0.0789472499999988,
          "durationTicks": 96,
          "midi": 38,
          "name": "D2",
          "ticks": 94848,
          "time": 77.999883,
          "velocity": 0.4015748031496063
        },
        {
          "duration": 0.0789472499999988,
          "durationTicks": 96,
          "midi": 40,
          "name": "E2",
          "ticks": 95040,
          "time": 78.1577775,
          "velocity": 0.4015748031496063
        },
        {
          "duration": 0.0789472499999988,
          "durationTicks": 96,
          "midi": 38,
          "name": "D2",
          "ticks": 95040,
          "time": 78.1577775,
          "velocity": 0.4015748031496063
        },
        {
          "duration": 0.0789472499999988,
          "durationTicks": 96,
          "midi": 38,
          "name": "D2",
          "ticks": 95232,
          "time": 78.31567199999999,
          "velocity": 0.4015748031496063
        },
        {
          "duration": 0.0789472499999988,
          "durationTicks": 96,
          "midi": 40,
          "name": "E2",
          "ticks": 95232,
          "time": 78.31567199999999,
          "velocity": 0.4015748031496063
        },
        {
          "duration": 0.0789472499999988,
          "durationTicks": 96,
          "midi": 40,
          "name": "E2",
          "ticks": 95232,
          "time": 78.31567199999999,
          "velocity": 0.4015748031496063
        },
        {
          "duration": 0.07894725000001301,
          "durationTicks": 96,
          "midi": 40,
          "name": "E2",
          "ticks": 95424,
          "time": 78.47356649999999,
          "velocity": 0.4015748031496063
        },
        {
          "duration": 0.0789472499999988,
          "durationTicks": 96,
          "midi": 38,
          "name": "D2",
          "ticks": 95616,
          "time": 78.631461,
          "velocity": 0.4015748031496063
        },
        {
          "duration": 0.0789472499999988,
          "durationTicks": 96,
          "midi": 38,
          "name": "D2",
          "ticks": 95616,
          "time": 78.631461,
          "velocity": 0.4015748031496063
        },
        {
          "duration": 0.0789472499999988,
          "durationTicks": 96,
          "midi": 38,
          "name": "D2",
          "ticks": 95808,
          "time": 78.7893555,
          "velocity": 0.4015748031496063
        },
        {
          "duration": 0.0789472499999988,
          "durationTicks": 96,
          "midi": 38,
          "name": "D2",
          "ticks": 95808,
          "time": 78.7893555,
          "velocity": 0.4015748031496063
        },
        {
          "duration": 0.0789472499999988,
          "durationTicks": 96,
          "midi": 40,
          "name": "E2",
          "ticks": 95808,
          "time": 78.7893555,
          "velocity": 0.4015748031496063
        },
        {
          "duration": 0.0789472499999988,
          "durationTicks": 96,
          "midi": 40,
          "name": "E2",
          "ticks": 95808,
          "time": 78.7893555,
          "velocity": 0.4015748031496063
        },
        {
          "duration": 0.0789472499999988,
          "durationTicks": 96,
          "midi": 40,
          "name": "E2",
          "ticks": 96000,
          "time": 78.94725,
          "velocity": 0.4015748031496063
        },
        {
          "duration": 0.0789472499999988,
          "durationTicks": 96,
          "midi": 40,
          "name": "E2",
          "ticks": 96000,
          "time": 78.94725,
          "velocity": 0.4015748031496063
        },
        {
          "duration": 0.0789472499999988,
          "durationTicks": 96,
          "midi": 38,
          "name": "D2",
          "ticks": 96192,
          "time": 79.1051445,
          "velocity": 0.4015748031496063
        },
        {
          "duration": 0.0789472499999988,
          "durationTicks": 96,
          "midi": 40,
          "name": "E2",
          "ticks": 96192,
          "time": 79.1051445,
          "velocity": 0.4015748031496063
        },
        {
          "duration": 0.0789472499999988,
          "durationTicks": 96,
          "midi": 38,
          "name": "D2",
          "ticks": 96384,
          "time": 79.26303899999999,
          "velocity": 0.4015748031496063
        },
        {
          "duration": 0.0789472499999988,
          "durationTicks": 96,
          "midi": 38,
          "name": "D2",
          "ticks": 96384,
          "time": 79.26303899999999,
          "velocity": 0.4015748031496063
        },
        {
          "duration": 0.0789472499999988,
          "durationTicks": 96,
          "midi": 38,
          "name": "D2",
          "ticks": 96384,
          "time": 79.26303899999999,
          "velocity": 0.4015748031496063
        },
        {
          "duration": 0.0789472499999988,
          "durationTicks": 96,
          "midi": 38,
          "name": "D2",
          "ticks": 96384,
          "time": 79.26303899999999,
          "velocity": 0.4015748031496063
        },
        {
          "duration": 0.0789472499999988,
          "durationTicks": 96,
          "midi": 40,
          "name": "E2",
          "ticks": 96384,
          "time": 79.26303899999999,
          "velocity": 0.4015748031496063
        },
        {
          "duration": 0.07894725000001301,
          "durationTicks": 96,
          "midi": 38,
          "name": "D2",
          "ticks": 96576,
          "time": 79.42093349999999,
          "velocity": 0.4015748031496063
        },
        {
          "duration": 0.07894725000001301,
          "durationTicks": 96,
          "midi": 40,
          "name": "E2",
          "ticks": 96576,
          "time": 79.42093349999999,
          "velocity": 0.4015748031496063
        },
        {
          "duration": 0.0789472499999988,
          "durationTicks": 96,
          "midi": 40,
          "name": "E2",
          "ticks": 96768,
          "time": 79.578828,
          "velocity": 0.4015748031496063
        },
        {
          "duration": 0.0789472499999988,
          "durationTicks": 96,
          "midi": 38,
          "name": "D2",
          "ticks": 96768,
          "time": 79.578828,
          "velocity": 0.4015748031496063
        },
        {
          "duration": 0.0789472499999988,
          "durationTicks": 96,
          "midi": 40,
          "name": "E2",
          "ticks": 96768,
          "time": 79.578828,
          "velocity": 0.4015748031496063
        },
        {
          "duration": 0.0789472499999988,
          "durationTicks": 96,
          "midi": 40,
          "name": "E2",
          "ticks": 96960,
          "time": 79.7367225,
          "velocity": 0.4015748031496063
        },
        {
          "duration": 0.0789472499999988,
          "durationTicks": 96,
          "midi": 38,
          "name": "D2",
          "ticks": 97152,
          "time": 79.894617,
          "velocity": 0.4015748031496063
        },
        {
          "duration": 0.0789472499999988,
          "durationTicks": 96,
          "midi": 38,
          "name": "D2",
          "ticks": 97152,
          "time": 79.894617,
          "velocity": 0.4015748031496063
        },
        {
          "duration": 0.0789472499999988,
          "durationTicks": 96,
          "midi": 40,
          "name": "E2",
          "ticks": 97344,
          "time": 80.0525115,
          "velocity": 0.4015748031496063
        },
        {
          "duration": 0.0789472499999988,
          "durationTicks": 96,
          "midi": 38,
          "name": "D2",
          "ticks": 97344,
          "time": 80.0525115,
          "velocity": 0.4015748031496063
        },
        {
          "duration": 0.0789472499999988,
          "durationTicks": 96,
          "midi": 40,
          "name": "E2",
          "ticks": 97344,
          "time": 80.0525115,
          "velocity": 0.4015748031496063
        },
        {
          "duration": 0.0789472499999988,
          "durationTicks": 96,
          "midi": 38,
          "name": "D2",
          "ticks": 97344,
          "time": 80.0525115,
          "velocity": 0.4015748031496063
        },
        {
          "duration": 0.0789472499999988,
          "durationTicks": 96,
          "midi": 40,
          "name": "E2",
          "ticks": 97536,
          "time": 80.21040599999999,
          "velocity": 0.4015748031496063
        },
        {
          "duration": 0.0789472499999988,
          "durationTicks": 96,
          "midi": 40,
          "name": "E2",
          "ticks": 97536,
          "time": 80.21040599999999,
          "velocity": 0.4015748031496063
        },
        {
          "duration": 0.07894725000001301,
          "durationTicks": 96,
          "midi": 38,
          "name": "D2",
          "ticks": 97728,
          "time": 80.36830049999999,
          "velocity": 0.4015748031496063
        },
        {
          "duration": 0.07894725000001301,
          "durationTicks": 96,
          "midi": 40,
          "name": "E2",
          "ticks": 97728,
          "time": 80.36830049999999,
          "velocity": 0.4015748031496063
        },
        {
          "duration": 0.0789472499999988,
          "durationTicks": 96,
          "midi": 40,
          "name": "E2",
          "ticks": 97920,
          "time": 80.526195,
          "velocity": 0.4015748031496063
        },
        {
          "duration": 0.0789472499999988,
          "durationTicks": 96,
          "midi": 38,
          "name": "D2",
          "ticks": 97920,
          "time": 80.526195,
          "velocity": 0.4015748031496063
        },
        {
          "duration": 0.0789472499999988,
          "durationTicks": 96,
          "midi": 38,
          "name": "D2",
          "ticks": 97920,
          "time": 80.526195,
          "velocity": 0.4015748031496063
        },
        {
          "duration": 0.0789472499999988,
          "durationTicks": 96,
          "midi": 38,
          "name": "D2",
          "ticks": 97920,
          "time": 80.526195,
          "velocity": 0.4015748031496063
        },
        {
          "duration": 0.0789472499999988,
          "durationTicks": 96,
          "midi": 38,
          "name": "D2",
          "ticks": 97920,
          "time": 80.526195,
          "velocity": 0.4015748031496063
        },
        {
          "duration": 0.0789472499999988,
          "durationTicks": 96,
          "midi": 40,
          "name": "E2",
          "ticks": 98112,
          "time": 80.6840895,
          "velocity": 0.4015748031496063
        },
        {
          "duration": 0.0789472499999988,
          "durationTicks": 96,
          "midi": 38,
          "name": "D2",
          "ticks": 98112,
          "time": 80.6840895,
          "velocity": 0.4015748031496063
        },
        {
          "duration": 0.0789472499999988,
          "durationTicks": 96,
          "midi": 40,
          "name": "E2",
          "ticks": 98304,
          "time": 80.841984,
          "velocity": 0.4015748031496063
        },
        {
          "duration": 0.0789472499999988,
          "durationTicks": 96,
          "midi": 38,
          "name": "D2",
          "ticks": 98304,
          "time": 80.841984,
          "velocity": 0.4015748031496063
        },
        {
          "duration": 0.0789472499999988,
          "durationTicks": 96,
          "midi": 40,
          "name": "E2",
          "ticks": 98304,
          "time": 80.841984,
          "velocity": 0.4015748031496063
        },
        {
          "duration": 0.0789472499999988,
          "durationTicks": 96,
          "midi": 40,
          "name": "E2",
          "ticks": 98496,
          "time": 80.9998785,
          "velocity": 0.4015748031496063
        },
        {
          "duration": 0.0789472499999988,
          "durationTicks": 96,
          "midi": 38,
          "name": "D2",
          "ticks": 98688,
          "time": 81.15777299999999,
          "velocity": 0.4015748031496063
        },
        {
          "duration": 0.0789472499999988,
          "durationTicks": 96,
          "midi": 38,
          "name": "D2",
          "ticks": 98688,
          "time": 81.15777299999999,
          "velocity": 0.4015748031496063
        },
        {
          "duration": 0.0789472499999988,
          "durationTicks": 96,
          "midi": 38,
          "name": "D2",
          "ticks": 98880,
          "time": 81.3156675,
          "velocity": 0.4015748031496063
        },
        {
          "duration": 0.0789472499999988,
          "durationTicks": 96,
          "midi": 40,
          "name": "E2",
          "ticks": 98880,
          "time": 81.3156675,
          "velocity": 0.4015748031496063
        },
        {
          "duration": 0.0789472499999988,
          "durationTicks": 96,
          "midi": 38,
          "name": "D2",
          "ticks": 98880,
          "time": 81.3156675,
          "velocity": 0.4015748031496063
        },
        {
          "duration": 0.0789472499999988,
          "durationTicks": 96,
          "midi": 40,
          "name": "E2",
          "ticks": 98880,
          "time": 81.3156675,
          "velocity": 0.4015748031496063
        },
        {
          "duration": 0.0789472499999988,
          "durationTicks": 96,
          "midi": 40,
          "name": "E2",
          "ticks": 99072,
          "time": 81.473562,
          "velocity": 0.4015748031496063
        },
        {
          "duration": 0.0789472499999988,
          "durationTicks": 96,
          "midi": 40,
          "name": "E2",
          "ticks": 99072,
          "time": 81.473562,
          "velocity": 0.4015748031496063
        },
        {
          "duration": 0.0789472499999988,
          "durationTicks": 96,
          "midi": 40,
          "name": "E2",
          "ticks": 99264,
          "time": 81.6314565,
          "velocity": 0.4015748031496063
        },
        {
          "duration": 0.0789472499999988,
          "durationTicks": 96,
          "midi": 38,
          "name": "D2",
          "ticks": 99264,
          "time": 81.6314565,
          "velocity": 0.4015748031496063
        },
        {
          "duration": 0.0789472499999988,
          "durationTicks": 96,
          "midi": 40,
          "name": "E2",
          "ticks": 99456,
          "time": 81.789351,
          "velocity": 0.4015748031496063
        },
        {
          "duration": 0.0789472499999988,
          "durationTicks": 96,
          "midi": 38,
          "name": "D2",
          "ticks": 99456,
          "time": 81.789351,
          "velocity": 0.4015748031496063
        },
        {
          "duration": 0.0789472499999988,
          "durationTicks": 96,
          "midi": 38,
          "name": "D2",
          "ticks": 99456,
          "time": 81.789351,
          "velocity": 0.4015748031496063
        },
        {
          "duration": 0.0789472499999988,
          "durationTicks": 96,
          "midi": 38,
          "name": "D2",
          "ticks": 99456,
          "time": 81.789351,
          "velocity": 0.4015748031496063
        },
        {
          "duration": 0.0789472499999988,
          "durationTicks": 96,
          "midi": 38,
          "name": "D2",
          "ticks": 99456,
          "time": 81.789351,
          "velocity": 0.4015748031496063
        },
        {
          "duration": 0.0789472499999988,
          "durationTicks": 96,
          "midi": 40,
          "name": "E2",
          "ticks": 99648,
          "time": 81.9472455,
          "velocity": 0.4015748031496063
        },
        {
          "duration": 0.0789472499999988,
          "durationTicks": 96,
          "midi": 38,
          "name": "D2",
          "ticks": 99648,
          "time": 81.9472455,
          "velocity": 0.4015748031496063
        },
        {
          "duration": 0.0789472499999988,
          "durationTicks": 96,
          "midi": 40,
          "name": "E2",
          "ticks": 99840,
          "time": 82.10513999999999,
          "velocity": 0.4015748031496063
        },
        {
          "duration": 0.0789472499999988,
          "durationTicks": 96,
          "midi": 40,
          "name": "E2",
          "ticks": 99840,
          "time": 82.10513999999999,
          "velocity": 0.4015748031496063
        },
        {
          "duration": 0.0789472499999988,
          "durationTicks": 96,
          "midi": 38,
          "name": "D2",
          "ticks": 99840,
          "time": 82.10513999999999,
          "velocity": 0.4015748031496063
        },
        {
          "duration": 0.0789472499999988,
          "durationTicks": 96,
          "midi": 40,
          "name": "E2",
          "ticks": 100032,
          "time": 82.2630345,
          "velocity": 0.4015748031496063
        },
        {
          "duration": 0.0789472499999988,
          "durationTicks": 96,
          "midi": 38,
          "name": "D2",
          "ticks": 100224,
          "time": 82.420929,
          "velocity": 0.4015748031496063
        },
        {
          "duration": 0.0789472499999988,
          "durationTicks": 96,
          "midi": 38,
          "name": "D2",
          "ticks": 100224,
          "time": 82.420929,
          "velocity": 0.4015748031496063
        },
        {
          "duration": 0.0789472499999988,
          "durationTicks": 96,
          "midi": 38,
          "name": "D2",
          "ticks": 100416,
          "time": 82.5788235,
          "velocity": 0.4015748031496063
        },
        {
          "duration": 0.0789472499999988,
          "durationTicks": 96,
          "midi": 40,
          "name": "E2",
          "ticks": 100416,
          "time": 82.5788235,
          "velocity": 0.4015748031496063
        },
        {
          "duration": 0.0789472499999988,
          "durationTicks": 96,
          "midi": 40,
          "name": "E2",
          "ticks": 100416,
          "time": 82.5788235,
          "velocity": 0.4015748031496063
        },
        {
          "duration": 0.0789472499999988,
          "durationTicks": 96,
          "midi": 38,
          "name": "D2",
          "ticks": 100416,
          "time": 82.5788235,
          "velocity": 0.4015748031496063
        },
        {
          "duration": 0.0789472499999988,
          "durationTicks": 96,
          "midi": 40,
          "name": "E2",
          "ticks": 100608,
          "time": 82.736718,
          "velocity": 0.4015748031496063
        },
        {
          "duration": 0.0789472499999988,
          "durationTicks": 96,
          "midi": 40,
          "name": "E2",
          "ticks": 100608,
          "time": 82.736718,
          "velocity": 0.4015748031496063
        },
        {
          "duration": 0.0789472499999988,
          "durationTicks": 96,
          "midi": 40,
          "name": "E2",
          "ticks": 100800,
          "time": 82.8946125,
          "velocity": 0.4015748031496063
        },
        {
          "duration": 0.0789472499999988,
          "durationTicks": 96,
          "midi": 38,
          "name": "D2",
          "ticks": 100800,
          "time": 82.8946125,
          "velocity": 0.4015748031496063
        },
        {
          "duration": 0.0789472499999988,
          "durationTicks": 96,
          "midi": 40,
          "name": "E2",
          "ticks": 100992,
          "time": 83.05250699999999,
          "velocity": 0.4015748031496063
        },
        {
          "duration": 0.0789472499999988,
          "durationTicks": 96,
          "midi": 38,
          "name": "D2",
          "ticks": 100992,
          "time": 83.05250699999999,
          "velocity": 0.4015748031496063
        },
        {
          "duration": 0.0789472499999988,
          "durationTicks": 96,
          "midi": 38,
          "name": "D2",
          "ticks": 100992,
          "time": 83.05250699999999,
          "velocity": 0.4015748031496063
        },
        {
          "duration": 0.0789472499999988,
          "durationTicks": 96,
          "midi": 38,
          "name": "D2",
          "ticks": 100992,
          "time": 83.05250699999999,
          "velocity": 0.4015748031496063
        },
        {
          "duration": 0.0789472499999988,
          "durationTicks": 96,
          "midi": 38,
          "name": "D2",
          "ticks": 100992,
          "time": 83.05250699999999,
          "velocity": 0.4015748031496063
        },
        {
          "duration": 0.0789472499999988,
          "durationTicks": 96,
          "midi": 38,
          "name": "D2",
          "ticks": 101184,
          "time": 83.2104015,
          "velocity": 0.4015748031496063
        },
        {
          "duration": 0.0789472499999988,
          "durationTicks": 96,
          "midi": 40,
          "name": "E2",
          "ticks": 101184,
          "time": 83.2104015,
          "velocity": 0.4015748031496063
        },
        {
          "duration": 0.0789472499999988,
          "durationTicks": 96,
          "midi": 40,
          "name": "E2",
          "ticks": 101376,
          "time": 83.368296,
          "velocity": 0.4015748031496063
        },
        {
          "duration": 0.0789472499999988,
          "durationTicks": 96,
          "midi": 40,
          "name": "E2",
          "ticks": 101376,
          "time": 83.368296,
          "velocity": 0.4015748031496063
        },
        {
          "duration": 0.0789472499999988,
          "durationTicks": 96,
          "midi": 38,
          "name": "D2",
          "ticks": 101376,
          "time": 83.368296,
          "velocity": 0.4015748031496063
        },
        {
          "duration": 0.0789472499999988,
          "durationTicks": 96,
          "midi": 40,
          "name": "E2",
          "ticks": 101568,
          "time": 83.5261905,
          "velocity": 0.4015748031496063
        },
        {
          "duration": 0.0789472499999988,
          "durationTicks": 96,
          "midi": 38,
          "name": "D2",
          "ticks": 101760,
          "time": 83.684085,
          "velocity": 0.4015748031496063
        },
        {
          "duration": 0.0789472499999988,
          "durationTicks": 96,
          "midi": 38,
          "name": "D2",
          "ticks": 101760,
          "time": 83.684085,
          "velocity": 0.4015748031496063
        },
        {
          "duration": 0.0789472499999988,
          "durationTicks": 96,
          "midi": 38,
          "name": "D2",
          "ticks": 101952,
          "time": 83.8419795,
          "velocity": 0.4015748031496063
        },
        {
          "duration": 0.0789472499999988,
          "durationTicks": 96,
          "midi": 38,
          "name": "D2",
          "ticks": 101952,
          "time": 83.8419795,
          "velocity": 0.4015748031496063
        },
        {
          "duration": 0.0789472499999988,
          "durationTicks": 96,
          "midi": 40,
          "name": "E2",
          "ticks": 101952,
          "time": 83.8419795,
          "velocity": 0.4015748031496063
        },
        {
          "duration": 0.0789472499999988,
          "durationTicks": 96,
          "midi": 40,
          "name": "E2",
          "ticks": 101952,
          "time": 83.8419795,
          "velocity": 0.4015748031496063
        },
        {
          "duration": 0.0789472499999988,
          "durationTicks": 96,
          "midi": 40,
          "name": "E2",
          "ticks": 102144,
          "time": 83.99987399999999,
          "velocity": 0.4015748031496063
        },
        {
          "duration": 0.0789472499999988,
          "durationTicks": 96,
          "midi": 40,
          "name": "E2",
          "ticks": 102144,
          "time": 83.99987399999999,
          "velocity": 0.4015748031496063
        },
        {
          "duration": 0.0789472499999988,
          "durationTicks": 96,
          "midi": 40,
          "name": "E2",
          "ticks": 102336,
          "time": 84.1577685,
          "velocity": 0.4015748031496063
        },
        {
          "duration": 0.0789472499999988,
          "durationTicks": 96,
          "midi": 38,
          "name": "D2",
          "ticks": 102336,
          "time": 84.1577685,
          "velocity": 0.4015748031496063
        },
        {
          "duration": 0.0789472499999988,
          "durationTicks": 96,
          "midi": 38,
          "name": "D2",
          "ticks": 102528,
          "time": 84.315663,
          "velocity": 0.4015748031496063
        },
        {
          "duration": 0.0789472499999988,
          "durationTicks": 96,
          "midi": 40,
          "name": "E2",
          "ticks": 102528,
          "time": 84.315663,
          "velocity": 0.4015748031496063
        },
        {
          "duration": 0.0789472499999988,
          "durationTicks": 96,
          "midi": 38,
          "name": "D2",
          "ticks": 102528,
          "time": 84.315663,
          "velocity": 0.4015748031496063
        },
        {
          "duration": 0.0789472499999988,
          "durationTicks": 96,
          "midi": 38,
          "name": "D2",
          "ticks": 102528,
          "time": 84.315663,
          "velocity": 0.4015748031496063
        },
        {
          "duration": 0.0789472499999988,
          "durationTicks": 96,
          "midi": 38,
          "name": "D2",
          "ticks": 102528,
          "time": 84.315663,
          "velocity": 0.4015748031496063
        },
        {
          "duration": 0.0789472499999988,
          "durationTicks": 96,
          "midi": 38,
          "name": "D2",
          "ticks": 102720,
          "time": 84.4735575,
          "velocity": 0.4015748031496063
        },
        {
          "duration": 0.0789472499999988,
          "durationTicks": 96,
          "midi": 40,
          "name": "E2",
          "ticks": 102720,
          "time": 84.4735575,
          "velocity": 0.4015748031496063
        },
        {
          "duration": 0.0789472499999988,
          "durationTicks": 96,
          "midi": 38,
          "name": "D2",
          "ticks": 102912,
          "time": 84.631452,
          "velocity": 0.4015748031496063
        },
        {
          "duration": 0.0789472499999988,
          "durationTicks": 96,
          "midi": 40,
          "name": "E2",
          "ticks": 102912,
          "time": 84.631452,
          "velocity": 0.4015748031496063
        },
        {
          "duration": 0.0789472499999988,
          "durationTicks": 96,
          "midi": 40,
          "name": "E2",
          "ticks": 102912,
          "time": 84.631452,
          "velocity": 0.4015748031496063
        },
        {
          "duration": 0.0789472499999988,
          "durationTicks": 96,
          "midi": 40,
          "name": "E2",
          "ticks": 103104,
          "time": 84.7893465,
          "velocity": 0.4015748031496063
        },
        {
          "duration": 0.0789472499999988,
          "durationTicks": 96,
          "midi": 38,
          "name": "D2",
          "ticks": 103296,
          "time": 84.94724099999999,
          "velocity": 0.4015748031496063
        },
        {
          "duration": 0.0789472499999988,
          "durationTicks": 96,
          "midi": 38,
          "name": "D2",
          "ticks": 103296,
          "time": 84.94724099999999,
          "velocity": 0.4015748031496063
        },
        {
          "duration": 0.0789472499999988,
          "durationTicks": 96,
          "midi": 40,
          "name": "E2",
          "ticks": 103488,
          "time": 85.1051355,
          "velocity": 0.4015748031496063
        },
        {
          "duration": 0.0789472499999988,
          "durationTicks": 96,
          "midi": 38,
          "name": "D2",
          "ticks": 103488,
          "time": 85.1051355,
          "velocity": 0.4015748031496063
        },
        {
          "duration": 0.0789472499999988,
          "durationTicks": 96,
          "midi": 40,
          "name": "E2",
          "ticks": 103488,
          "time": 85.1051355,
          "velocity": 0.4015748031496063
        },
        {
          "duration": 0.0789472499999988,
          "durationTicks": 96,
          "midi": 38,
          "name": "D2",
          "ticks": 103488,
          "time": 85.1051355,
          "velocity": 0.4015748031496063
        },
        {
          "duration": 0.0789472499999988,
          "durationTicks": 96,
          "midi": 40,
          "name": "E2",
          "ticks": 103680,
          "time": 85.26303,
          "velocity": 0.4015748031496063
        },
        {
          "duration": 0.0789472499999988,
          "durationTicks": 96,
          "midi": 40,
          "name": "E2",
          "ticks": 103680,
          "time": 85.26303,
          "velocity": 0.4015748031496063
        },
        {
          "duration": 0.0789472499999988,
          "durationTicks": 96,
          "midi": 38,
          "name": "D2",
          "ticks": 103872,
          "time": 85.4209245,
          "velocity": 0.4015748031496063
        },
        {
          "duration": 0.0789472499999988,
          "durationTicks": 96,
          "midi": 40,
          "name": "E2",
          "ticks": 103872,
          "time": 85.4209245,
          "velocity": 0.4015748031496063
        },
        {
          "duration": 0.0789472499999988,
          "durationTicks": 96,
          "midi": 38,
          "name": "D2",
          "ticks": 104064,
          "time": 85.578819,
          "velocity": 0.4015748031496063
        },
        {
          "duration": 0.0789472499999988,
          "durationTicks": 96,
          "midi": 38,
          "name": "D2",
          "ticks": 104064,
          "time": 85.578819,
          "velocity": 0.4015748031496063
        },
        {
          "duration": 0.0789472499999988,
          "durationTicks": 96,
          "midi": 40,
          "name": "E2",
          "ticks": 104064,
          "time": 85.578819,
          "velocity": 0.4015748031496063
        },
        {
          "duration": 0.0789472499999988,
          "durationTicks": 96,
          "midi": 38,
          "name": "D2",
          "ticks": 104064,
          "time": 85.578819,
          "velocity": 0.4015748031496063
        },
        {
          "duration": 0.0789472499999988,
          "durationTicks": 96,
          "midi": 38,
          "name": "D2",
          "ticks": 104064,
          "time": 85.578819,
          "velocity": 0.4015748031496063
        },
        {
          "duration": 0.0789472499999988,
          "durationTicks": 96,
          "midi": 38,
          "name": "D2",
          "ticks": 104256,
          "time": 85.7367135,
          "velocity": 0.4015748031496063
        },
        {
          "duration": 0.0789472499999988,
          "durationTicks": 96,
          "midi": 40,
          "name": "E2",
          "ticks": 104256,
          "time": 85.7367135,
          "velocity": 0.4015748031496063
        },
        {
          "duration": 0.0789472499999988,
          "durationTicks": 96,
          "midi": 40,
          "name": "E2",
          "ticks": 104448,
          "time": 85.89460799999999,
          "velocity": 0.4015748031496063
        },
        {
          "duration": 0.0789472499999988,
          "durationTicks": 96,
          "midi": 40,
          "name": "E2",
          "ticks": 104448,
          "time": 85.89460799999999,
          "velocity": 0.4015748031496063
        },
        {
          "duration": 0.0789472499999988,
          "durationTicks": 96,
          "midi": 38,
          "name": "D2",
          "ticks": 104448,
          "time": 85.89460799999999,
          "velocity": 0.4015748031496063
        },
        {
          "duration": 0.0789472499999988,
          "durationTicks": 96,
          "midi": 40,
          "name": "E2",
          "ticks": 104640,
          "time": 86.0525025,
          "velocity": 0.4015748031496063
        },
        {
          "duration": 0.0789472499999988,
          "durationTicks": 96,
          "midi": 38,
          "name": "D2",
          "ticks": 104832,
          "time": 86.210397,
          "velocity": 0.4015748031496063
        },
        {
          "duration": 0.0789472499999988,
          "durationTicks": 96,
          "midi": 38,
          "name": "D2",
          "ticks": 104832,
          "time": 86.210397,
          "velocity": 0.4015748031496063
        },
        {
          "duration": 0.0789472499999988,
          "durationTicks": 96,
          "midi": 38,
          "name": "D2",
          "ticks": 105024,
          "time": 86.3682915,
          "velocity": 0.4015748031496063
        },
        {
          "duration": 0.0789472499999988,
          "durationTicks": 96,
          "midi": 40,
          "name": "E2",
          "ticks": 105024,
          "time": 86.3682915,
          "velocity": 0.4015748031496063
        },
        {
          "duration": 0.0789472499999988,
          "durationTicks": 96,
          "midi": 38,
          "name": "D2",
          "ticks": 105024,
          "time": 86.3682915,
          "velocity": 0.4015748031496063
        },
        {
          "duration": 0.0789472499999988,
          "durationTicks": 96,
          "midi": 40,
          "name": "E2",
          "ticks": 105024,
          "time": 86.3682915,
          "velocity": 0.4015748031496063
        },
        {
          "duration": 0.0789472499999988,
          "durationTicks": 96,
          "midi": 40,
          "name": "E2",
          "ticks": 105216,
          "time": 86.526186,
          "velocity": 0.4015748031496063
        },
        {
          "duration": 0.0789472499999988,
          "durationTicks": 96,
          "midi": 40,
          "name": "E2",
          "ticks": 105216,
          "time": 86.526186,
          "velocity": 0.4015748031496063
        },
        {
          "duration": 0.0789472499999988,
          "durationTicks": 96,
          "midi": 38,
          "name": "D2",
          "ticks": 105408,
          "time": 86.6840805,
          "velocity": 0.4015748031496063
        },
        {
          "duration": 0.0789472499999988,
          "durationTicks": 96,
          "midi": 40,
          "name": "E2",
          "ticks": 105408,
          "time": 86.6840805,
          "velocity": 0.4015748031496063
        },
        {
          "duration": 0.0789472499999988,
          "durationTicks": 96,
          "midi": 38,
          "name": "D2",
          "ticks": 105600,
          "time": 86.84197499999999,
          "velocity": 0.4015748031496063
        },
        {
          "duration": 0.0789472499999988,
          "durationTicks": 96,
          "midi": 38,
          "name": "D2",
          "ticks": 105600,
          "time": 86.84197499999999,
          "velocity": 0.4015748031496063
        },
        {
          "duration": 0.0789472499999988,
          "durationTicks": 96,
          "midi": 38,
          "name": "D2",
          "ticks": 105600,
          "time": 86.84197499999999,
          "velocity": 0.4015748031496063
        },
        {
          "duration": 0.0789472499999988,
          "durationTicks": 96,
          "midi": 40,
          "name": "E2",
          "ticks": 105600,
          "time": 86.84197499999999,
          "velocity": 0.4015748031496063
        },
        {
          "duration": 0.0789472499999988,
          "durationTicks": 96,
          "midi": 38,
          "name": "D2",
          "ticks": 105600,
          "time": 86.84197499999999,
          "velocity": 0.4015748031496063
        },
        {
          "duration": 0.0789472499999988,
          "durationTicks": 96,
          "midi": 38,
          "name": "D2",
          "ticks": 105792,
          "time": 86.9998695,
          "velocity": 0.4015748031496063
        },
        {
          "duration": 0.0789472499999988,
          "durationTicks": 96,
          "midi": 40,
          "name": "E2",
          "ticks": 105792,
          "time": 86.9998695,
          "velocity": 0.4015748031496063
        },
        {
          "duration": 0.0789472499999988,
          "durationTicks": 96,
          "midi": 40,
          "name": "E2",
          "ticks": 105984,
          "time": 87.157764,
          "velocity": 0.4015748031496063
        },
        {
          "duration": 0.0789472499999988,
          "durationTicks": 96,
          "midi": 40,
          "name": "E2",
          "ticks": 105984,
          "time": 87.157764,
          "velocity": 0.4015748031496063
        },
        {
          "duration": 0.0789472499999988,
          "durationTicks": 96,
          "midi": 38,
          "name": "D2",
          "ticks": 105984,
          "time": 87.157764,
          "velocity": 0.4015748031496063
        },
        {
          "duration": 0.0789472499999988,
          "durationTicks": 96,
          "midi": 40,
          "name": "E2",
          "ticks": 106176,
          "time": 87.3156585,
          "velocity": 0.4015748031496063
        },
        {
          "duration": 0.0789472499999988,
          "durationTicks": 96,
          "midi": 38,
          "name": "D2",
          "ticks": 106368,
          "time": 87.473553,
          "velocity": 0.4015748031496063
        },
        {
          "duration": 0.0789472499999988,
          "durationTicks": 96,
          "midi": 38,
          "name": "D2",
          "ticks": 106368,
          "time": 87.473553,
          "velocity": 0.4015748031496063
        },
        {
          "duration": 0.0789472499999988,
          "durationTicks": 96,
          "midi": 38,
          "name": "D2",
          "ticks": 106560,
          "time": 87.6314475,
          "velocity": 0.4015748031496063
        },
        {
          "duration": 0.0789472499999988,
          "durationTicks": 96,
          "midi": 38,
          "name": "D2",
          "ticks": 106560,
          "time": 87.6314475,
          "velocity": 0.4015748031496063
        },
        {
          "duration": 0.0789472499999988,
          "durationTicks": 96,
          "midi": 40,
          "name": "E2",
          "ticks": 106560,
          "time": 87.6314475,
          "velocity": 0.4015748031496063
        },
        {
          "duration": 0.0789472499999988,
          "durationTicks": 96,
          "midi": 40,
          "name": "E2",
          "ticks": 106560,
          "time": 87.6314475,
          "velocity": 0.4015748031496063
        },
        {
          "duration": 0.0789472499999988,
          "durationTicks": 96,
          "midi": 40,
          "name": "E2",
          "ticks": 106752,
          "time": 87.78934199999999,
          "velocity": 0.4015748031496063
        },
        {
          "duration": 0.0789472499999988,
          "durationTicks": 96,
          "midi": 40,
          "name": "E2",
          "ticks": 106752,
          "time": 87.78934199999999,
          "velocity": 0.4015748031496063
        },
        {
          "duration": 0.0789472499999988,
          "durationTicks": 96,
          "midi": 40,
          "name": "E2",
          "ticks": 106944,
          "time": 87.9472365,
          "velocity": 0.4015748031496063
        },
        {
          "duration": 0.0789472499999988,
          "durationTicks": 96,
          "midi": 38,
          "name": "D2",
          "ticks": 106944,
          "time": 87.9472365,
          "velocity": 0.4015748031496063
        },
        {
          "duration": 0.0789472499999988,
          "durationTicks": 96,
          "midi": 38,
          "name": "D2",
          "ticks": 107136,
          "time": 88.105131,
          "velocity": 0.4015748031496063
        },
        {
          "duration": 0.0789472499999988,
          "durationTicks": 96,
          "midi": 38,
          "name": "D2",
          "ticks": 107136,
          "time": 88.105131,
          "velocity": 0.4015748031496063
        },
        {
          "duration": 0.0789472499999988,
          "durationTicks": 96,
          "midi": 38,
          "name": "D2",
          "ticks": 107136,
          "time": 88.105131,
          "velocity": 0.4015748031496063
        },
        {
          "duration": 0.0789472499999988,
          "durationTicks": 96,
          "midi": 40,
          "name": "E2",
          "ticks": 107136,
          "time": 88.105131,
          "velocity": 0.4015748031496063
        },
        {
          "duration": 0.0789472499999988,
          "durationTicks": 96,
          "midi": 38,
          "name": "D2",
          "ticks": 107136,
          "time": 88.105131,
          "velocity": 0.4015748031496063
        },
        {
          "duration": 0.0789472499999988,
          "durationTicks": 96,
          "midi": 38,
          "name": "D2",
          "ticks": 107328,
          "time": 88.2630255,
          "velocity": 0.4015748031496063
        },
        {
          "duration": 0.0789472499999988,
          "durationTicks": 96,
          "midi": 40,
          "name": "E2",
          "ticks": 107328,
          "time": 88.2630255,
          "velocity": 0.4015748031496063
        },
        {
          "duration": 0.0789472499999988,
          "durationTicks": 96,
          "midi": 40,
          "name": "E2",
          "ticks": 107520,
          "time": 88.42092,
          "velocity": 0.4015748031496063
        },
        {
          "duration": 0.0789472499999988,
          "durationTicks": 96,
          "midi": 40,
          "name": "E2",
          "ticks": 107520,
          "time": 88.42092,
          "velocity": 0.4015748031496063
        },
        {
          "duration": 0.0789472499999988,
          "durationTicks": 96,
          "midi": 38,
          "name": "D2",
          "ticks": 107520,
          "time": 88.42092,
          "velocity": 0.4015748031496063
        },
        {
          "duration": 0.0789472499999988,
          "durationTicks": 96,
          "midi": 40,
          "name": "E2",
          "ticks": 107712,
          "time": 88.5788145,
          "velocity": 0.4015748031496063
        },
        {
          "duration": 0.0789472499999988,
          "durationTicks": 96,
          "midi": 38,
          "name": "D2",
          "ticks": 107904,
          "time": 88.73670899999999,
          "velocity": 0.4015748031496063
        },
        {
          "duration": 0.0789472499999988,
          "durationTicks": 96,
          "midi": 38,
          "name": "D2",
          "ticks": 107904,
          "time": 88.73670899999999,
          "velocity": 0.4015748031496063
        },
        {
          "duration": 0.0789472499999988,
          "durationTicks": 96,
          "midi": 40,
          "name": "E2",
          "ticks": 108096,
          "time": 88.8946035,
          "velocity": 0.4015748031496063
        },
        {
          "duration": 0.0789472499999988,
          "durationTicks": 96,
          "midi": 38,
          "name": "D2",
          "ticks": 108096,
          "time": 88.8946035,
          "velocity": 0.4015748031496063
        },
        {
          "duration": 0.0789472499999988,
          "durationTicks": 96,
          "midi": 38,
          "name": "D2",
          "ticks": 108096,
          "time": 88.8946035,
          "velocity": 0.4015748031496063
        },
        {
          "duration": 0.0789472499999988,
          "durationTicks": 96,
          "midi": 40,
          "name": "E2",
          "ticks": 108096,
          "time": 88.8946035,
          "velocity": 0.4015748031496063
        },
        {
          "duration": 0.0789472499999988,
          "durationTicks": 96,
          "midi": 40,
          "name": "E2",
          "ticks": 108288,
          "time": 89.052498,
          "velocity": 0.4015748031496063
        },
        {
          "duration": 0.0789472499999988,
          "durationTicks": 96,
          "midi": 40,
          "name": "E2",
          "ticks": 108288,
          "time": 89.052498,
          "velocity": 0.4015748031496063
        },
        {
          "duration": 0.0789472499999988,
          "durationTicks": 96,
          "midi": 38,
          "name": "D2",
          "ticks": 108480,
          "time": 89.2103925,
          "velocity": 0.4015748031496063
        },
        {
          "duration": 0.0789472499999988,
          "durationTicks": 96,
          "midi": 40,
          "name": "E2",
          "ticks": 108480,
          "time": 89.2103925,
          "velocity": 0.4015748031496063
        },
        {
          "duration": 0.0789472499999988,
          "durationTicks": 96,
          "midi": 38,
          "name": "D2",
          "ticks": 108672,
          "time": 89.368287,
          "velocity": 0.4015748031496063
        },
        {
          "duration": 0.0789472499999988,
          "durationTicks": 96,
          "midi": 38,
          "name": "D2",
          "ticks": 108672,
          "time": 89.368287,
          "velocity": 0.4015748031496063
        },
        {
          "duration": 0.0789472499999988,
          "durationTicks": 96,
          "midi": 38,
          "name": "D2",
          "ticks": 108672,
          "time": 89.368287,
          "velocity": 0.4015748031496063
        },
        {
          "duration": 0.0789472499999988,
          "durationTicks": 96,
          "midi": 40,
          "name": "E2",
          "ticks": 108672,
          "time": 89.368287,
          "velocity": 0.4015748031496063
        },
        {
          "duration": 0.0789472499999988,
          "durationTicks": 96,
          "midi": 38,
          "name": "D2",
          "ticks": 108672,
          "time": 89.368287,
          "velocity": 0.4015748031496063
        },
        {
          "duration": 0.0789472499999988,
          "durationTicks": 96,
          "midi": 40,
          "name": "E2",
          "ticks": 108864,
          "time": 89.52618149999999,
          "velocity": 0.4015748031496063
        },
        {
          "duration": 0.0789472499999988,
          "durationTicks": 96,
          "midi": 38,
          "name": "D2",
          "ticks": 108864,
          "time": 89.52618149999999,
          "velocity": 0.4015748031496063
        },
        {
          "duration": 0.0789472499999988,
          "durationTicks": 96,
          "midi": 40,
          "name": "E2",
          "ticks": 109056,
          "time": 89.68407599999999,
          "velocity": 0.4015748031496063
        },
        {
          "duration": 0.0789472499999988,
          "durationTicks": 96,
          "midi": 38,
          "name": "D2",
          "ticks": 109056,
          "time": 89.68407599999999,
          "velocity": 0.4015748031496063
        },
        {
          "duration": 0.0789472499999988,
          "durationTicks": 96,
          "midi": 40,
          "name": "E2",
          "ticks": 109056,
          "time": 89.68407599999999,
          "velocity": 0.4015748031496063
        },
        {
          "duration": 0.0789472499999988,
          "durationTicks": 96,
          "midi": 40,
          "name": "E2",
          "ticks": 109248,
          "time": 89.8419705,
          "velocity": 0.4015748031496063
        },
        {
          "duration": 0.0789472499999988,
          "durationTicks": 96,
          "midi": 38,
          "name": "D2",
          "ticks": 109440,
          "time": 89.999865,
          "velocity": 0.4015748031496063
        },
        {
          "duration": 0.0789472499999988,
          "durationTicks": 96,
          "midi": 38,
          "name": "D2",
          "ticks": 109440,
          "time": 89.999865,
          "velocity": 0.4015748031496063
        },
        {
          "duration": 0.0789472499999988,
          "durationTicks": 96,
          "midi": 40,
          "name": "E2",
          "ticks": 109632,
          "time": 90.1577595,
          "velocity": 0.4015748031496063
        },
        {
          "duration": 0.0789472499999988,
          "durationTicks": 96,
          "midi": 40,
          "name": "E2",
          "ticks": 109632,
          "time": 90.1577595,
          "velocity": 0.4015748031496063
        },
        {
          "duration": 0.0789472499999988,
          "durationTicks": 96,
          "midi": 38,
          "name": "D2",
          "ticks": 109632,
          "time": 90.1577595,
          "velocity": 0.4015748031496063
        },
        {
          "duration": 0.0789472499999988,
          "durationTicks": 96,
          "midi": 38,
          "name": "D2",
          "ticks": 109632,
          "time": 90.1577595,
          "velocity": 0.4015748031496063
        },
        {
          "duration": 0.0789472499999988,
          "durationTicks": 96,
          "midi": 40,
          "name": "E2",
          "ticks": 109824,
          "time": 90.315654,
          "velocity": 0.4015748031496063
        },
        {
          "duration": 0.0789472499999988,
          "durationTicks": 96,
          "midi": 40,
          "name": "E2",
          "ticks": 109824,
          "time": 90.315654,
          "velocity": 0.4015748031496063
        },
        {
          "duration": 0.0789472499999988,
          "durationTicks": 96,
          "midi": 40,
          "name": "E2",
          "ticks": 110016,
          "time": 90.47354849999999,
          "velocity": 0.4015748031496063
        },
        {
          "duration": 0.0789472499999988,
          "durationTicks": 96,
          "midi": 38,
          "name": "D2",
          "ticks": 110016,
          "time": 90.47354849999999,
          "velocity": 0.4015748031496063
        },
        {
          "duration": 0.0789472499999988,
          "durationTicks": 96,
          "midi": 38,
          "name": "D2",
          "ticks": 110208,
          "time": 90.63144299999999,
          "velocity": 0.4015748031496063
        },
        {
          "duration": 0.0789472499999988,
          "durationTicks": 96,
          "midi": 38,
          "name": "D2",
          "ticks": 110208,
          "time": 90.63144299999999,
          "velocity": 0.4015748031496063
        },
        {
          "duration": 0.0789472499999988,
          "durationTicks": 96,
          "midi": 38,
          "name": "D2",
          "ticks": 110208,
          "time": 90.63144299999999,
          "velocity": 0.4015748031496063
        },
        {
          "duration": 0.0789472499999988,
          "durationTicks": 96,
          "midi": 40,
          "name": "E2",
          "ticks": 110208,
          "time": 90.63144299999999,
          "velocity": 0.4015748031496063
        },
        {
          "duration": 0.0789472499999988,
          "durationTicks": 96,
          "midi": 38,
          "name": "D2",
          "ticks": 110208,
          "time": 90.63144299999999,
          "velocity": 0.4015748031496063
        },
        {
          "duration": 0.0789472499999988,
          "durationTicks": 96,
          "midi": 40,
          "name": "E2",
          "ticks": 110400,
          "time": 90.7893375,
          "velocity": 0.4015748031496063
        },
        {
          "duration": 0.0789472499999988,
          "durationTicks": 96,
          "midi": 38,
          "name": "D2",
          "ticks": 110400,
          "time": 90.7893375,
          "velocity": 0.4015748031496063
        },
        {
          "duration": 0.0789472499999988,
          "durationTicks": 96,
          "midi": 38,
          "name": "D2",
          "ticks": 110592,
          "time": 90.947232,
          "velocity": 0.4015748031496063
        },
        {
          "duration": 0.0789472499999988,
          "durationTicks": 96,
          "midi": 40,
          "name": "E2",
          "ticks": 110592,
          "time": 90.947232,
          "velocity": 0.4015748031496063
        },
        {
          "duration": 0.0789472499999988,
          "durationTicks": 96,
          "midi": 40,
          "name": "E2",
          "ticks": 110592,
          "time": 90.947232,
          "velocity": 0.4015748031496063
        },
        {
          "duration": 0.0789472499999988,
          "durationTicks": 96,
          "midi": 40,
          "name": "E2",
          "ticks": 110784,
          "time": 91.1051265,
          "velocity": 0.4015748031496063
        },
        {
          "duration": 0.0789472499999988,
          "durationTicks": 96,
          "midi": 38,
          "name": "D2",
          "ticks": 110976,
          "time": 91.263021,
          "velocity": 0.4015748031496063
        },
        {
          "duration": 0.0789472499999988,
          "durationTicks": 96,
          "midi": 38,
          "name": "D2",
          "ticks": 110976,
          "time": 91.263021,
          "velocity": 0.4015748031496063
        },
        {
          "duration": 0.0789472499999988,
          "durationTicks": 96,
          "midi": 40,
          "name": "E2",
          "ticks": 111168,
          "time": 91.42091549999999,
          "velocity": 0.4015748031496063
        },
        {
          "duration": 0.0789472499999988,
          "durationTicks": 96,
          "midi": 38,
          "name": "D2",
          "ticks": 111168,
          "time": 91.42091549999999,
          "velocity": 0.4015748031496063
        },
        {
          "duration": 0.0789472499999988,
          "durationTicks": 96,
          "midi": 38,
          "name": "D2",
          "ticks": 111168,
          "time": 91.42091549999999,
          "velocity": 0.4015748031496063
        },
        {
          "duration": 0.0789472499999988,
          "durationTicks": 96,
          "midi": 40,
          "name": "E2",
          "ticks": 111168,
          "time": 91.42091549999999,
          "velocity": 0.4015748031496063
        },
        {
          "duration": 0.07894725000001301,
          "durationTicks": 96,
          "midi": 40,
          "name": "E2",
          "ticks": 111360,
          "time": 91.57880999999999,
          "velocity": 0.4015748031496063
        },
        {
          "duration": 0.07894725000001301,
          "durationTicks": 96,
          "midi": 40,
          "name": "E2",
          "ticks": 111360,
          "time": 91.57880999999999,
          "velocity": 0.4015748031496063
        },
        {
          "duration": 0.0789472499999988,
          "durationTicks": 96,
          "midi": 40,
          "name": "E2",
          "ticks": 111552,
          "time": 91.7367045,
          "velocity": 0.4015748031496063
        },
        {
          "duration": 0.0789472499999988,
          "durationTicks": 96,
          "midi": 38,
          "name": "D2",
          "ticks": 111552,
          "time": 91.7367045,
          "velocity": 0.4015748031496063
        },
        {
          "duration": 0.0789472499999988,
          "durationTicks": 96,
          "midi": 38,
          "name": "D2",
          "ticks": 111744,
          "time": 91.894599,
          "velocity": 0.4015748031496063
        },
        {
          "duration": 0.0789472499999988,
          "durationTicks": 96,
          "midi": 38,
          "name": "D2",
          "ticks": 111744,
          "time": 91.894599,
          "velocity": 0.4015748031496063
        },
        {
          "duration": 0.0789472499999988,
          "durationTicks": 96,
          "midi": 40,
          "name": "E2",
          "ticks": 111744,
          "time": 91.894599,
          "velocity": 0.4015748031496063
        },
        {
          "duration": 0.0789472499999988,
          "durationTicks": 96,
          "midi": 38,
          "name": "D2",
          "ticks": 111744,
          "time": 91.894599,
          "velocity": 0.4015748031496063
        },
        {
          "duration": 0.0789472499999988,
          "durationTicks": 96,
          "midi": 38,
          "name": "D2",
          "ticks": 111744,
          "time": 91.894599,
          "velocity": 0.4015748031496063
        },
        {
          "duration": 0.0789472499999988,
          "durationTicks": 96,
          "midi": 40,
          "name": "E2",
          "ticks": 111936,
          "time": 92.0524935,
          "velocity": 0.4015748031496063
        },
        {
          "duration": 0.0789472499999988,
          "durationTicks": 96,
          "midi": 38,
          "name": "D2",
          "ticks": 111936,
          "time": 92.0524935,
          "velocity": 0.4015748031496063
        },
        {
          "duration": 0.0789472499999988,
          "durationTicks": 96,
          "midi": 40,
          "name": "E2",
          "ticks": 112128,
          "time": 92.210388,
          "velocity": 0.4015748031496063
        },
        {
          "duration": 0.0789472499999988,
          "durationTicks": 96,
          "midi": 40,
          "name": "E2",
          "ticks": 112128,
          "time": 92.210388,
          "velocity": 0.4015748031496063
        },
        {
          "duration": 0.0789472499999988,
          "durationTicks": 96,
          "midi": 38,
          "name": "D2",
          "ticks": 112128,
          "time": 92.210388,
          "velocity": 0.4015748031496063
        },
        {
          "duration": 0.0789472499999988,
          "durationTicks": 96,
          "midi": 40,
          "name": "E2",
          "ticks": 112320,
          "time": 92.36828249999999,
          "velocity": 0.4015748031496063
        },
        {
          "duration": 0.07894725000001301,
          "durationTicks": 96,
          "midi": 38,
          "name": "D2",
          "ticks": 112512,
          "time": 92.52617699999999,
          "velocity": 0.4015748031496063
        },
        {
          "duration": 0.07894725000001301,
          "durationTicks": 96,
          "midi": 38,
          "name": "D2",
          "ticks": 112512,
          "time": 92.52617699999999,
          "velocity": 0.4015748031496063
        },
        {
          "duration": 0.0789472499999988,
          "durationTicks": 96,
          "midi": 40,
          "name": "E2",
          "ticks": 112704,
          "time": 92.6840715,
          "velocity": 0.4015748031496063
        },
        {
          "duration": 0.0789472499999988,
          "durationTicks": 96,
          "midi": 40,
          "name": "E2",
          "ticks": 112704,
          "time": 92.6840715,
          "velocity": 0.4015748031496063
        },
        {
          "duration": 0.0789472499999988,
          "durationTicks": 96,
          "midi": 38,
          "name": "D2",
          "ticks": 112704,
          "time": 92.6840715,
          "velocity": 0.4015748031496063
        },
        {
          "duration": 0.0789472499999988,
          "durationTicks": 96,
          "midi": 38,
          "name": "D2",
          "ticks": 112704,
          "time": 92.6840715,
          "velocity": 0.4015748031496063
        },
        {
          "duration": 0.0789472499999988,
          "durationTicks": 96,
          "midi": 40,
          "name": "E2",
          "ticks": 112896,
          "time": 92.841966,
          "velocity": 0.4015748031496063
        },
        {
          "duration": 0.0789472499999988,
          "durationTicks": 96,
          "midi": 40,
          "name": "E2",
          "ticks": 112896,
          "time": 92.841966,
          "velocity": 0.4015748031496063
        },
        {
          "duration": 0.0789472499999988,
          "durationTicks": 96,
          "midi": 38,
          "name": "D2",
          "ticks": 113088,
          "time": 92.9998605,
          "velocity": 0.4015748031496063
        },
        {
          "duration": 0.0789472499999988,
          "durationTicks": 96,
          "midi": 40,
          "name": "E2",
          "ticks": 113088,
          "time": 92.9998605,
          "velocity": 0.4015748031496063
        },
        {
          "duration": 0.0789472499999988,
          "durationTicks": 96,
          "midi": 40,
          "name": "E2",
          "ticks": 113280,
          "time": 93.157755,
          "velocity": 0.4015748031496063
        },
        {
          "duration": 0.0789472499999988,
          "durationTicks": 96,
          "midi": 38,
          "name": "D2",
          "ticks": 113280,
          "time": 93.157755,
          "velocity": 0.4015748031496063
        },
        {
          "duration": 0.0789472499999988,
          "durationTicks": 96,
          "midi": 38,
          "name": "D2",
          "ticks": 113280,
          "time": 93.157755,
          "velocity": 0.4015748031496063
        },
        {
          "duration": 0.0789472499999988,
          "durationTicks": 96,
          "midi": 38,
          "name": "D2",
          "ticks": 113280,
          "time": 93.157755,
          "velocity": 0.4015748031496063
        },
        {
          "duration": 0.0789472499999988,
          "durationTicks": 96,
          "midi": 38,
          "name": "D2",
          "ticks": 113280,
          "time": 93.157755,
          "velocity": 0.4015748031496063
        },
        {
          "duration": 0.0789472499999988,
          "durationTicks": 96,
          "midi": 40,
          "name": "E2",
          "ticks": 113472,
          "time": 93.31564949999999,
          "velocity": 0.4015748031496063
        },
        {
          "duration": 0.0789472499999988,
          "durationTicks": 96,
          "midi": 38,
          "name": "D2",
          "ticks": 113472,
          "time": 93.31564949999999,
          "velocity": 0.4015748031496063
        },
        {
          "duration": 0.07894725000001301,
          "durationTicks": 96,
          "midi": 40,
          "name": "E2",
          "ticks": 113664,
          "time": 93.47354399999999,
          "velocity": 0.4015748031496063
        },
        {
          "duration": 0.07894725000001301,
          "durationTicks": 96,
          "midi": 40,
          "name": "E2",
          "ticks": 113664,
          "time": 93.47354399999999,
          "velocity": 0.4015748031496063
        },
        {
          "duration": 0.07894725000001301,
          "durationTicks": 96,
          "midi": 38,
          "name": "D2",
          "ticks": 113664,
          "time": 93.47354399999999,
          "velocity": 0.4015748031496063
        },
        {
          "duration": 0.0789472499999988,
          "durationTicks": 96,
          "midi": 40,
          "name": "E2",
          "ticks": 113856,
          "time": 93.6314385,
          "velocity": 0.4015748031496063
        },
        {
          "duration": 0.0789472499999988,
          "durationTicks": 96,
          "midi": 38,
          "name": "D2",
          "ticks": 114048,
          "time": 93.789333,
          "velocity": 0.4015748031496063
        },
        {
          "duration": 0.0789472499999988,
          "durationTicks": 96,
          "midi": 38,
          "name": "D2",
          "ticks": 114048,
          "time": 93.789333,
          "velocity": 0.4015748031496063
        },
        {
          "duration": 0.0789472499999988,
          "durationTicks": 96,
          "midi": 38,
          "name": "D2",
          "ticks": 114240,
          "time": 93.9472275,
          "velocity": 0.4015748031496063
        },
        {
          "duration": 0.0789472499999988,
          "durationTicks": 96,
          "midi": 38,
          "name": "D2",
          "ticks": 114240,
          "time": 93.9472275,
          "velocity": 0.4015748031496063
        },
        {
          "duration": 0.0789472499999988,
          "durationTicks": 96,
          "midi": 40,
          "name": "E2",
          "ticks": 114240,
          "time": 93.9472275,
          "velocity": 0.4015748031496063
        },
        {
          "duration": 0.0789472499999988,
          "durationTicks": 96,
          "midi": 40,
          "name": "E2",
          "ticks": 114240,
          "time": 93.9472275,
          "velocity": 0.4015748031496063
        },
        {
          "duration": 0.0789472499999988,
          "durationTicks": 96,
          "midi": 40,
          "name": "E2",
          "ticks": 114432,
          "time": 94.105122,
          "velocity": 0.4015748031496063
        },
        {
          "duration": 0.0789472499999988,
          "durationTicks": 96,
          "midi": 40,
          "name": "E2",
          "ticks": 114432,
          "time": 94.105122,
          "velocity": 0.4015748031496063
        },
        {
          "duration": 0.0789472499999988,
          "durationTicks": 96,
          "midi": 38,
          "name": "D2",
          "ticks": 114624,
          "time": 94.26301649999999,
          "velocity": 0.4015748031496063
        },
        {
          "duration": 0.0789472499999988,
          "durationTicks": 96,
          "midi": 40,
          "name": "E2",
          "ticks": 114624,
          "time": 94.26301649999999,
          "velocity": 0.4015748031496063
        },
        {
          "duration": 0.07894725000001301,
          "durationTicks": 96,
          "midi": 40,
          "name": "E2",
          "ticks": 114816,
          "time": 94.42091099999999,
          "velocity": 0.4015748031496063
        },
        {
          "duration": 0.07894725000001301,
          "durationTicks": 96,
          "midi": 38,
          "name": "D2",
          "ticks": 114816,
          "time": 94.42091099999999,
          "velocity": 0.4015748031496063
        },
        {
          "duration": 0.07894725000001301,
          "durationTicks": 96,
          "midi": 38,
          "name": "D2",
          "ticks": 114816,
          "time": 94.42091099999999,
          "velocity": 0.4015748031496063
        },
        {
          "duration": 0.07894725000001301,
          "durationTicks": 96,
          "midi": 38,
          "name": "D2",
          "ticks": 114816,
          "time": 94.42091099999999,
          "velocity": 0.4015748031496063
        },
        {
          "duration": 0.07894725000001301,
          "durationTicks": 96,
          "midi": 38,
          "name": "D2",
          "ticks": 114816,
          "time": 94.42091099999999,
          "velocity": 0.4015748031496063
        },
        {
          "duration": 0.0789472499999988,
          "durationTicks": 96,
          "midi": 40,
          "name": "E2",
          "ticks": 115008,
          "time": 94.5788055,
          "velocity": 0.4015748031496063
        },
        {
          "duration": 0.0789472499999988,
          "durationTicks": 96,
          "midi": 38,
          "name": "D2",
          "ticks": 115008,
          "time": 94.5788055,
          "velocity": 0.4015748031496063
        },
        {
          "duration": 0.0789472499999988,
          "durationTicks": 96,
          "midi": 40,
          "name": "E2",
          "ticks": 115200,
          "time": 94.7367,
          "velocity": 0.4015748031496063
        },
        {
          "duration": 0.0789472499999988,
          "durationTicks": 96,
          "midi": 38,
          "name": "D2",
          "ticks": 115200,
          "time": 94.7367,
          "velocity": 0.4015748031496063
        },
        {
          "duration": 0.0789472499999988,
          "durationTicks": 96,
          "midi": 40,
          "name": "E2",
          "ticks": 115200,
          "time": 94.7367,
          "velocity": 0.4015748031496063
        },
        {
          "duration": 0.0789472499999988,
          "durationTicks": 96,
          "midi": 40,
          "name": "E2",
          "ticks": 115392,
          "time": 94.8945945,
          "velocity": 0.4015748031496063
        },
        {
          "duration": 0.0789472499999988,
          "durationTicks": 96,
          "midi": 38,
          "name": "D2",
          "ticks": 115584,
          "time": 95.052489,
          "velocity": 0.4015748031496063
        },
        {
          "duration": 0.0789472499999988,
          "durationTicks": 96,
          "midi": 38,
          "name": "D2",
          "ticks": 115584,
          "time": 95.052489,
          "velocity": 0.4015748031496063
        },
        {
          "duration": 0.0789472499999988,
          "durationTicks": 96,
          "midi": 38,
          "name": "D2",
          "ticks": 115776,
          "time": 95.21038349999999,
          "velocity": 0.4015748031496063
        },
        {
          "duration": 0.0789472499999988,
          "durationTicks": 96,
          "midi": 40,
          "name": "E2",
          "ticks": 115776,
          "time": 95.21038349999999,
          "velocity": 0.4015748031496063
        },
        {
          "duration": 0.0789472499999988,
          "durationTicks": 96,
          "midi": 40,
          "name": "E2",
          "ticks": 115776,
          "time": 95.21038349999999,
          "velocity": 0.4015748031496063
        },
        {
          "duration": 0.0789472499999988,
          "durationTicks": 96,
          "midi": 38,
          "name": "D2",
          "ticks": 115776,
          "time": 95.21038349999999,
          "velocity": 0.4015748031496063
        },
        {
          "duration": 0.07894725000001301,
          "durationTicks": 96,
          "midi": 40,
          "name": "E2",
          "ticks": 115968,
          "time": 95.36827799999999,
          "velocity": 0.4015748031496063
        },
        {
          "duration": 0.07894725000001301,
          "durationTicks": 96,
          "midi": 40,
          "name": "E2",
          "ticks": 115968,
          "time": 95.36827799999999,
          "velocity": 0.4015748031496063
        },
        {
          "duration": 0.0789472499999988,
          "durationTicks": 96,
          "midi": 38,
          "name": "D2",
          "ticks": 116160,
          "time": 95.5261725,
          "velocity": 0.4015748031496063
        },
        {
          "duration": 0.0789472499999988,
          "durationTicks": 96,
          "midi": 40,
          "name": "E2",
          "ticks": 116160,
          "time": 95.5261725,
          "velocity": 0.4015748031496063
        },
        {
          "duration": 0.0789472499999988,
          "durationTicks": 96,
          "midi": 38,
          "name": "D2",
          "ticks": 116352,
          "time": 95.684067,
          "velocity": 0.4015748031496063
        },
        {
          "duration": 0.0789472499999988,
          "durationTicks": 96,
          "midi": 40,
          "name": "E2",
          "ticks": 116352,
          "time": 95.684067,
          "velocity": 0.4015748031496063
        },
        {
          "duration": 0.0789472499999988,
          "durationTicks": 96,
          "midi": 38,
          "name": "D2",
          "ticks": 116352,
          "time": 95.684067,
          "velocity": 0.4015748031496063
        },
        {
          "duration": 0.0789472499999988,
          "durationTicks": 96,
          "midi": 38,
          "name": "D2",
          "ticks": 116352,
          "time": 95.684067,
          "velocity": 0.4015748031496063
        },
        {
          "duration": 0.0789472499999988,
          "durationTicks": 96,
          "midi": 38,
          "name": "D2",
          "ticks": 116352,
          "time": 95.684067,
          "velocity": 0.4015748031496063
        },
        {
          "duration": 0.0789472499999988,
          "durationTicks": 96,
          "midi": 38,
          "name": "D2",
          "ticks": 116544,
          "time": 95.8419615,
          "velocity": 0.4015748031496063
        },
        {
          "duration": 0.0789472499999988,
          "durationTicks": 96,
          "midi": 40,
          "name": "E2",
          "ticks": 116544,
          "time": 95.8419615,
          "velocity": 0.4015748031496063
        },
        {
          "duration": 0.0789472499999988,
          "durationTicks": 96,
          "midi": 40,
          "name": "E2",
          "ticks": 116736,
          "time": 95.999856,
          "velocity": 0.4015748031496063
        },
        {
          "duration": 0.0789472499999988,
          "durationTicks": 96,
          "midi": 40,
          "name": "E2",
          "ticks": 116736,
          "time": 95.999856,
          "velocity": 0.4015748031496063
        },
        {
          "duration": 0.0789472499999988,
          "durationTicks": 96,
          "midi": 38,
          "name": "D2",
          "ticks": 116736,
          "time": 95.999856,
          "velocity": 0.4015748031496063
        },
        {
          "duration": 0.0789472499999988,
          "durationTicks": 96,
          "midi": 40,
          "name": "E2",
          "ticks": 116928,
          "time": 96.15775049999999,
          "velocity": 0.4015748031496063
        },
        {
          "duration": 0.07894725000001301,
          "durationTicks": 96,
          "midi": 38,
          "name": "D2",
          "ticks": 117120,
          "time": 96.31564499999999,
          "velocity": 0.4015748031496063
        },
        {
          "duration": 0.07894725000001301,
          "durationTicks": 96,
          "midi": 38,
          "name": "D2",
          "ticks": 117120,
          "time": 96.31564499999999,
          "velocity": 0.4015748031496063
        },
        {
          "duration": 0.0789472499999988,
          "durationTicks": 96,
          "midi": 40,
          "name": "E2",
          "ticks": 117312,
          "time": 96.4735395,
          "velocity": 0.4015748031496063
        },
        {
          "duration": 0.0789472499999988,
          "durationTicks": 96,
          "midi": 38,
          "name": "D2",
          "ticks": 117312,
          "time": 96.4735395,
          "velocity": 0.4015748031496063
        },
        {
          "duration": 0.0789472499999988,
          "durationTicks": 96,
          "midi": 40,
          "name": "E2",
          "ticks": 117312,
          "time": 96.4735395,
          "velocity": 0.4015748031496063
        },
        {
          "duration": 0.0789472499999988,
          "durationTicks": 96,
          "midi": 38,
          "name": "D2",
          "ticks": 117312,
          "time": 96.4735395,
          "velocity": 0.4015748031496063
        },
        {
          "duration": 0.0789472499999988,
          "durationTicks": 96,
          "midi": 40,
          "name": "E2",
          "ticks": 117504,
          "time": 96.631434,
          "velocity": 0.4015748031496063
        },
        {
          "duration": 0.0789472499999988,
          "durationTicks": 96,
          "midi": 40,
          "name": "E2",
          "ticks": 117504,
          "time": 96.631434,
          "velocity": 0.4015748031496063
        },
        {
          "duration": 0.0789472499999988,
          "durationTicks": 96,
          "midi": 40,
          "name": "E2",
          "ticks": 117696,
          "time": 96.7893285,
          "velocity": 0.4015748031496063
        },
        {
          "duration": 0.0789472499999988,
          "durationTicks": 96,
          "midi": 38,
          "name": "D2",
          "ticks": 117696,
          "time": 96.7893285,
          "velocity": 0.4015748031496063
        },
        {
          "duration": 0.0789472499999988,
          "durationTicks": 96,
          "midi": 40,
          "name": "E2",
          "ticks": 117888,
          "time": 96.947223,
          "velocity": 0.4015748031496063
        },
        {
          "duration": 0.0789472499999988,
          "durationTicks": 96,
          "midi": 38,
          "name": "D2",
          "ticks": 117888,
          "time": 96.947223,
          "velocity": 0.4015748031496063
        },
        {
          "duration": 0.0789472499999988,
          "durationTicks": 96,
          "midi": 38,
          "name": "D2",
          "ticks": 117888,
          "time": 96.947223,
          "velocity": 0.4015748031496063
        },
        {
          "duration": 0.0789472499999988,
          "durationTicks": 96,
          "midi": 38,
          "name": "D2",
          "ticks": 117888,
          "time": 96.947223,
          "velocity": 0.4015748031496063
        },
        {
          "duration": 0.0789472499999988,
          "durationTicks": 96,
          "midi": 38,
          "name": "D2",
          "ticks": 117888,
          "time": 96.947223,
          "velocity": 0.4015748031496063
        },
        {
          "duration": 0.0789472499999988,
          "durationTicks": 96,
          "midi": 38,
          "name": "D2",
          "ticks": 118080,
          "time": 97.10511749999999,
          "velocity": 0.4015748031496063
        },
        {
          "duration": 0.0789472499999988,
          "durationTicks": 96,
          "midi": 40,
          "name": "E2",
          "ticks": 118080,
          "time": 97.10511749999999,
          "velocity": 0.4015748031496063
        },
        {
          "duration": 0.07894725000001301,
          "durationTicks": 96,
          "midi": 40,
          "name": "E2",
          "ticks": 118272,
          "time": 97.26301199999999,
          "velocity": 0.4015748031496063
        },
        {
          "duration": 0.07894725000001301,
          "durationTicks": 96,
          "midi": 40,
          "name": "E2",
          "ticks": 118272,
          "time": 97.26301199999999,
          "velocity": 0.4015748031496063
        },
        {
          "duration": 0.07894725000001301,
          "durationTicks": 96,
          "midi": 38,
          "name": "D2",
          "ticks": 118272,
          "time": 97.26301199999999,
          "velocity": 0.4015748031496063
        },
        {
          "duration": 0.0789472499999988,
          "durationTicks": 96,
          "midi": 40,
          "name": "E2",
          "ticks": 118464,
          "time": 97.4209065,
          "velocity": 0.4015748031496063
        },
        {
          "duration": 0.0789472499999988,
          "durationTicks": 96,
          "midi": 38,
          "name": "D2",
          "ticks": 118656,
          "time": 97.578801,
          "velocity": 0.4015748031496063
        },
        {
          "duration": 0.0789472499999988,
          "durationTicks": 96,
          "midi": 38,
          "name": "D2",
          "ticks": 118656,
          "time": 97.578801,
          "velocity": 0.4015748031496063
        },
        {
          "duration": 0.0789472499999988,
          "durationTicks": 96,
          "midi": 38,
          "name": "D2",
          "ticks": 118848,
          "time": 97.7366955,
          "velocity": 0.4015748031496063
        },
        {
          "duration": 0.0789472499999988,
          "durationTicks": 96,
          "midi": 38,
          "name": "D2",
          "ticks": 118848,
          "time": 97.7366955,
          "velocity": 0.4015748031496063
        },
        {
          "duration": 0.0789472499999988,
          "durationTicks": 96,
          "midi": 40,
          "name": "E2",
          "ticks": 118848,
          "time": 97.7366955,
          "velocity": 0.4015748031496063
        },
        {
          "duration": 0.0789472499999988,
          "durationTicks": 96,
          "midi": 40,
          "name": "E2",
          "ticks": 118848,
          "time": 97.7366955,
          "velocity": 0.4015748031496063
        },
        {
          "duration": 0.0789472499999988,
          "durationTicks": 96,
          "midi": 40,
          "name": "E2",
          "ticks": 119040,
          "time": 97.89459,
          "velocity": 0.4015748031496063
        },
        {
          "duration": 0.0789472499999988,
          "durationTicks": 96,
          "midi": 40,
          "name": "E2",
          "ticks": 119040,
          "time": 97.89459,
          "velocity": 0.4015748031496063
        },
        {
          "duration": 0.0789472499999988,
          "durationTicks": 96,
          "midi": 40,
          "name": "E2",
          "ticks": 119232,
          "time": 98.05248449999999,
          "velocity": 0.4015748031496063
        },
        {
          "duration": 0.0789472499999988,
          "durationTicks": 96,
          "midi": 38,
          "name": "D2",
          "ticks": 119232,
          "time": 98.05248449999999,
          "velocity": 0.4015748031496063
        },
        {
          "duration": 0.07894725000001301,
          "durationTicks": 96,
          "midi": 40,
          "name": "E2",
          "ticks": 119424,
          "time": 98.21037899999999,
          "velocity": 0.4015748031496063
        },
        {
          "duration": 0.07894725000001301,
          "durationTicks": 96,
          "midi": 38,
          "name": "D2",
          "ticks": 119424,
          "time": 98.21037899999999,
          "velocity": 0.4015748031496063
        },
        {
          "duration": 0.07894725000001301,
          "durationTicks": 96,
          "midi": 38,
          "name": "D2",
          "ticks": 119424,
          "time": 98.21037899999999,
          "velocity": 0.4015748031496063
        },
        {
          "duration": 0.07894725000001301,
          "durationTicks": 96,
          "midi": 38,
          "name": "D2",
          "ticks": 119424,
          "time": 98.21037899999999,
          "velocity": 0.4015748031496063
        },
        {
          "duration": 0.07894725000001301,
          "durationTicks": 96,
          "midi": 38,
          "name": "D2",
          "ticks": 119424,
          "time": 98.21037899999999,
          "velocity": 0.4015748031496063
        },
        {
          "duration": 0.0789472499999988,
          "durationTicks": 96,
          "midi": 40,
          "name": "E2",
          "ticks": 119616,
          "time": 98.3682735,
          "velocity": 0.4015748031496063
        },
        {
          "duration": 0.0789472499999988,
          "durationTicks": 96,
          "midi": 38,
          "name": "D2",
          "ticks": 119616,
          "time": 98.3682735,
          "velocity": 0.4015748031496063
        },
        {
          "duration": 0.0789472499999988,
          "durationTicks": 96,
          "midi": 38,
          "name": "D2",
          "ticks": 119808,
          "time": 98.526168,
          "velocity": 0.4015748031496063
        },
        {
          "duration": 0.0789472499999988,
          "durationTicks": 96,
          "midi": 40,
          "name": "E2",
          "ticks": 119808,
          "time": 98.526168,
          "velocity": 0.4015748031496063
        },
        {
          "duration": 0.0789472499999988,
          "durationTicks": 96,
          "midi": 40,
          "name": "E2",
          "ticks": 119808,
          "time": 98.526168,
          "velocity": 0.4015748031496063
        },
        {
          "duration": 0.0789472499999988,
          "durationTicks": 96,
          "midi": 40,
          "name": "E2",
          "ticks": 120000,
          "time": 98.6840625,
          "velocity": 0.4015748031496063
        },
        {
          "duration": 0.0789472499999988,
          "durationTicks": 96,
          "midi": 38,
          "name": "D2",
          "ticks": 120192,
          "time": 98.841957,
          "velocity": 0.4015748031496063
        },
        {
          "duration": 0.0789472499999988,
          "durationTicks": 96,
          "midi": 38,
          "name": "D2",
          "ticks": 120192,
          "time": 98.841957,
          "velocity": 0.4015748031496063
        },
        {
          "duration": 0.0789472499999988,
          "durationTicks": 96,
          "midi": 38,
          "name": "D2",
          "ticks": 120384,
          "time": 98.99985149999999,
          "velocity": 0.4015748031496063
        },
        {
          "duration": 0.0789472499999988,
          "durationTicks": 96,
          "midi": 38,
          "name": "D2",
          "ticks": 120384,
          "time": 98.99985149999999,
          "velocity": 0.4015748031496063
        },
        {
          "duration": 0.0789472499999988,
          "durationTicks": 96,
          "midi": 40,
          "name": "E2",
          "ticks": 120384,
          "time": 98.99985149999999,
          "velocity": 0.4015748031496063
        },
        {
          "duration": 0.0789472499999988,
          "durationTicks": 96,
          "midi": 40,
          "name": "E2",
          "ticks": 120384,
          "time": 98.99985149999999,
          "velocity": 0.4015748031496063
        },
        {
          "duration": 0.07894725000001301,
          "durationTicks": 96,
          "midi": 40,
          "name": "E2",
          "ticks": 120576,
          "time": 99.15774599999999,
          "velocity": 0.4015748031496063
        },
        {
          "duration": 0.07894725000001301,
          "durationTicks": 96,
          "midi": 40,
          "name": "E2",
          "ticks": 120576,
          "time": 99.15774599999999,
          "velocity": 0.4015748031496063
        },
        {
          "duration": 0.0789472499999988,
          "durationTicks": 96,
          "midi": 40,
          "name": "E2",
          "ticks": 120768,
          "time": 99.3156405,
          "velocity": 0.4015748031496063
        },
        {
          "duration": 0.0789472499999988,
          "durationTicks": 96,
          "midi": 38,
          "name": "D2",
          "ticks": 120768,
          "time": 99.3156405,
          "velocity": 0.4015748031496063
        },
        {
          "duration": 0.0789472499999988,
          "durationTicks": 96,
          "midi": 38,
          "name": "D2",
          "ticks": 120960,
          "time": 99.473535,
          "velocity": 0.4015748031496063
        },
        {
          "duration": 0.0789472499999988,
          "durationTicks": 96,
          "midi": 38,
          "name": "D2",
          "ticks": 120960,
          "time": 99.473535,
          "velocity": 0.4015748031496063
        },
        {
          "duration": 0.0789472499999988,
          "durationTicks": 96,
          "midi": 38,
          "name": "D2",
          "ticks": 120960,
          "time": 99.473535,
          "velocity": 0.4015748031496063
        },
        {
          "duration": 0.0789472499999988,
          "durationTicks": 96,
          "midi": 40,
          "name": "E2",
          "ticks": 120960,
          "time": 99.473535,
          "velocity": 0.4015748031496063
        },
        {
          "duration": 0.0789472499999988,
          "durationTicks": 96,
          "midi": 38,
          "name": "D2",
          "ticks": 120960,
          "time": 99.473535,
          "velocity": 0.4015748031496063
        },
        {
          "duration": 0.0789472499999988,
          "durationTicks": 96,
          "midi": 38,
          "name": "D2",
          "ticks": 121152,
          "time": 99.6314295,
          "velocity": 0.4015748031496063
        },
        {
          "duration": 0.0789472499999988,
          "durationTicks": 96,
          "midi": 40,
          "name": "E2",
          "ticks": 121152,
          "time": 99.6314295,
          "velocity": 0.4015748031496063
        },
        {
          "duration": 0.0789472499999988,
          "durationTicks": 96,
          "midi": 38,
          "name": "D2",
          "ticks": 121344,
          "time": 99.789324,
          "velocity": 0.4015748031496063
        },
        {
          "duration": 0.0789472499999988,
          "durationTicks": 96,
          "midi": 40,
          "name": "E2",
          "ticks": 121344,
          "time": 99.789324,
          "velocity": 0.4015748031496063
        },
        {
          "duration": 0.0789472499999988,
          "durationTicks": 96,
          "midi": 40,
          "name": "E2",
          "ticks": 121344,
          "time": 99.789324,
          "velocity": 0.4015748031496063
        },
        {
          "duration": 0.0789472499999988,
          "durationTicks": 96,
          "midi": 40,
          "name": "E2",
          "ticks": 121536,
          "time": 99.94721849999999,
          "velocity": 0.4015748031496063
        },
        {
          "duration": 0.07894725000001301,
          "durationTicks": 96,
          "midi": 38,
          "name": "D2",
          "ticks": 121728,
          "time": 100.10511299999999,
          "velocity": 0.4015748031496063
        },
        {
          "duration": 0.07894725000001301,
          "durationTicks": 96,
          "midi": 38,
          "name": "D2",
          "ticks": 121728,
          "time": 100.10511299999999,
          "velocity": 0.4015748031496063
        },
        {
          "duration": 0.0789472499999988,
          "durationTicks": 96,
          "midi": 38,
          "name": "D2",
          "ticks": 121920,
          "time": 100.2630075,
          "velocity": 0.4015748031496063
        },
        {
          "duration": 0.0789472499999988,
          "durationTicks": 96,
          "midi": 38,
          "name": "D2",
          "ticks": 121920,
          "time": 100.2630075,
          "velocity": 0.4015748031496063
        },
        {
          "duration": 0.0789472499999988,
          "durationTicks": 96,
          "midi": 40,
          "name": "E2",
          "ticks": 121920,
          "time": 100.2630075,
          "velocity": 0.4015748031496063
        },
        {
          "duration": 0.0789472499999988,
          "durationTicks": 96,
          "midi": 40,
          "name": "E2",
          "ticks": 121920,
          "time": 100.2630075,
          "velocity": 0.4015748031496063
        },
        {
          "duration": 0.0789472499999988,
          "durationTicks": 96,
          "midi": 40,
          "name": "E2",
          "ticks": 122112,
          "time": 100.420902,
          "velocity": 0.4015748031496063
        },
        {
          "duration": 0.0789472499999988,
          "durationTicks": 96,
          "midi": 40,
          "name": "E2",
          "ticks": 122112,
          "time": 100.420902,
          "velocity": 0.4015748031496063
        },
        {
          "duration": 0.0789472499999988,
          "durationTicks": 96,
          "midi": 38,
          "name": "D2",
          "ticks": 122304,
          "time": 100.5787965,
          "velocity": 0.4015748031496063
        },
        {
          "duration": 0.0789472499999988,
          "durationTicks": 96,
          "midi": 40,
          "name": "E2",
          "ticks": 122304,
          "time": 100.5787965,
          "velocity": 0.4015748031496063
        },
        {
          "duration": 0.0789472499999988,
          "durationTicks": 96,
          "midi": 38,
          "name": "D2",
          "ticks": 122496,
          "time": 100.736691,
          "velocity": 0.4015748031496063
        },
        {
          "duration": 0.0789472499999988,
          "durationTicks": 96,
          "midi": 38,
          "name": "D2",
          "ticks": 122496,
          "time": 100.736691,
          "velocity": 0.4015748031496063
        },
        {
          "duration": 0.0789472499999988,
          "durationTicks": 96,
          "midi": 38,
          "name": "D2",
          "ticks": 122496,
          "time": 100.736691,
          "velocity": 0.4015748031496063
        },
        {
          "duration": 0.0789472499999988,
          "durationTicks": 96,
          "midi": 38,
          "name": "D2",
          "ticks": 122496,
          "time": 100.736691,
          "velocity": 0.4015748031496063
        },
        {
          "duration": 0.0789472499999988,
          "durationTicks": 96,
          "midi": 40,
          "name": "E2",
          "ticks": 122496,
          "time": 100.736691,
          "velocity": 0.4015748031496063
        },
        {
          "duration": 0.0789472499999988,
          "durationTicks": 96,
          "midi": 40,
          "name": "E2",
          "ticks": 122688,
          "time": 100.89458549999999,
          "velocity": 0.4015748031496063
        },
        {
          "duration": 0.0789472499999988,
          "durationTicks": 96,
          "midi": 38,
          "name": "D2",
          "ticks": 122688,
          "time": 100.89458549999999,
          "velocity": 0.4015748031496063
        },
        {
          "duration": 0.0789472499999988,
          "durationTicks": 96,
          "midi": 40,
          "name": "E2",
          "ticks": 122880,
          "time": 101.05248,
          "velocity": 0.4015748031496063
        },
        {
          "duration": 0.0789472499999988,
          "durationTicks": 96,
          "midi": 40,
          "name": "E2",
          "ticks": 122880,
          "time": 101.05248,
          "velocity": 0.4015748031496063
        },
        {
          "duration": 0.0789472499999988,
          "durationTicks": 96,
          "midi": 38,
          "name": "D2",
          "ticks": 122880,
          "time": 101.05248,
          "velocity": 0.4015748031496063
        },
        {
          "duration": 0.0789472499999988,
          "durationTicks": 96,
          "midi": 40,
          "name": "E2",
          "ticks": 123072,
          "time": 101.2103745,
          "velocity": 0.4015748031496063
        },
        {
          "duration": 0.0789472499999988,
          "durationTicks": 96,
          "midi": 38,
          "name": "D2",
          "ticks": 123264,
          "time": 101.368269,
          "velocity": 0.4015748031496063
        },
        {
          "duration": 0.0789472499999988,
          "durationTicks": 96,
          "midi": 38,
          "name": "D2",
          "ticks": 123264,
          "time": 101.368269,
          "velocity": 0.4015748031496063
        },
        {
          "duration": 0.0789472499999988,
          "durationTicks": 96,
          "midi": 38,
          "name": "D2",
          "ticks": 123456,
          "time": 101.5261635,
          "velocity": 0.4015748031496063
        },
        {
          "duration": 0.0789472499999988,
          "durationTicks": 96,
          "midi": 38,
          "name": "D2",
          "ticks": 123456,
          "time": 101.5261635,
          "velocity": 0.4015748031496063
        },
        {
          "duration": 0.0789472499999988,
          "durationTicks": 96,
          "midi": 40,
          "name": "E2",
          "ticks": 123456,
          "time": 101.5261635,
          "velocity": 0.4015748031496063
        },
        {
          "duration": 0.0789472499999988,
          "durationTicks": 96,
          "midi": 40,
          "name": "E2",
          "ticks": 123456,
          "time": 101.5261635,
          "velocity": 0.4015748031496063
        },
        {
          "duration": 0.0789472499999988,
          "durationTicks": 96,
          "midi": 40,
          "name": "E2",
          "ticks": 123648,
          "time": 101.684058,
          "velocity": 0.4015748031496063
        },
        {
          "duration": 0.0789472499999988,
          "durationTicks": 96,
          "midi": 40,
          "name": "E2",
          "ticks": 123648,
          "time": 101.684058,
          "velocity": 0.4015748031496063
        },
        {
          "duration": 0.0789472499999988,
          "durationTicks": 96,
          "midi": 40,
          "name": "E2",
          "ticks": 123840,
          "time": 101.84195249999999,
          "velocity": 0.4015748031496063
        },
        {
          "duration": 0.0789472499999988,
          "durationTicks": 96,
          "midi": 38,
          "name": "D2",
          "ticks": 123840,
          "time": 101.84195249999999,
          "velocity": 0.4015748031496063
        },
        {
          "duration": 0.0789472499999988,
          "durationTicks": 96,
          "midi": 38,
          "name": "D2",
          "ticks": 124032,
          "time": 101.999847,
          "velocity": 0.4015748031496063
        },
        {
          "duration": 0.0789472499999988,
          "durationTicks": 96,
          "midi": 40,
          "name": "E2",
          "ticks": 124032,
          "time": 101.999847,
          "velocity": 0.4015748031496063
        },
        {
          "duration": 0.0789472499999988,
          "durationTicks": 96,
          "midi": 38,
          "name": "D2",
          "ticks": 124032,
          "time": 101.999847,
          "velocity": 0.4015748031496063
        },
        {
          "duration": 0.0789472499999988,
          "durationTicks": 96,
          "midi": 38,
          "name": "D2",
          "ticks": 124032,
          "time": 101.999847,
          "velocity": 0.4015748031496063
        },
        {
          "duration": 0.0789472499999988,
          "durationTicks": 96,
          "midi": 38,
          "name": "D2",
          "ticks": 124032,
          "time": 101.999847,
          "velocity": 0.4015748031496063
        },
        {
          "duration": 0.0789472499999988,
          "durationTicks": 96,
          "midi": 40,
          "name": "E2",
          "ticks": 124224,
          "time": 102.1577415,
          "velocity": 0.4015748031496063
        },
        {
          "duration": 0.0789472499999988,
          "durationTicks": 96,
          "midi": 38,
          "name": "D2",
          "ticks": 124224,
          "time": 102.1577415,
          "velocity": 0.4015748031496063
        },
        {
          "duration": 0.0789472499999988,
          "durationTicks": 96,
          "midi": 38,
          "name": "D2",
          "ticks": 124416,
          "time": 102.315636,
          "velocity": 0.4015748031496063
        },
        {
          "duration": 0.0789472499999988,
          "durationTicks": 96,
          "midi": 40,
          "name": "E2",
          "ticks": 124416,
          "time": 102.315636,
          "velocity": 0.4015748031496063
        },
        {
          "duration": 0.0789472499999988,
          "durationTicks": 96,
          "midi": 40,
          "name": "E2",
          "ticks": 124416,
          "time": 102.315636,
          "velocity": 0.4015748031496063
        },
        {
          "duration": 0.0789472499999988,
          "durationTicks": 96,
          "midi": 40,
          "name": "E2",
          "ticks": 124608,
          "time": 102.4735305,
          "velocity": 0.4015748031496063
        },
        {
          "duration": 0.0789472499999988,
          "durationTicks": 96,
          "midi": 38,
          "name": "D2",
          "ticks": 124800,
          "time": 102.631425,
          "velocity": 0.4015748031496063
        },
        {
          "duration": 0.0789472499999988,
          "durationTicks": 96,
          "midi": 38,
          "name": "D2",
          "ticks": 124800,
          "time": 102.631425,
          "velocity": 0.4015748031496063
        },
        {
          "duration": 0.0789472499999988,
          "durationTicks": 96,
          "midi": 40,
          "name": "E2",
          "ticks": 124992,
          "time": 102.78931949999999,
          "velocity": 0.4015748031496063
        },
        {
          "duration": 0.0789472499999988,
          "durationTicks": 96,
          "midi": 40,
          "name": "E2",
          "ticks": 124992,
          "time": 102.78931949999999,
          "velocity": 0.4015748031496063
        },
        {
          "duration": 0.0789472499999988,
          "durationTicks": 96,
          "midi": 38,
          "name": "D2",
          "ticks": 124992,
          "time": 102.78931949999999,
          "velocity": 0.4015748031496063
        },
        {
          "duration": 0.0789472499999988,
          "durationTicks": 96,
          "midi": 38,
          "name": "D2",
          "ticks": 124992,
          "time": 102.78931949999999,
          "velocity": 0.4015748031496063
        },
        {
          "duration": 0.0789472499999988,
          "durationTicks": 96,
          "midi": 40,
          "name": "E2",
          "ticks": 125184,
          "time": 102.947214,
          "velocity": 0.4015748031496063
        },
        {
          "duration": 0.0789472499999988,
          "durationTicks": 96,
          "midi": 40,
          "name": "E2",
          "ticks": 125184,
          "time": 102.947214,
          "velocity": 0.4015748031496063
        },
        {
          "duration": 0.0789472499999988,
          "durationTicks": 96,
          "midi": 40,
          "name": "E2",
          "ticks": 125376,
          "time": 103.1051085,
          "velocity": 0.4015748031496063
        },
        {
          "duration": 0.0789472499999988,
          "durationTicks": 96,
          "midi": 38,
          "name": "D2",
          "ticks": 125376,
          "time": 103.1051085,
          "velocity": 0.4015748031496063
        },
        {
          "duration": 0.0789472499999988,
          "durationTicks": 96,
          "midi": 38,
          "name": "D2",
          "ticks": 125568,
          "time": 103.263003,
          "velocity": 0.4015748031496063
        },
        {
          "duration": 0.0789472499999988,
          "durationTicks": 96,
          "midi": 40,
          "name": "E2",
          "ticks": 125568,
          "time": 103.263003,
          "velocity": 0.4015748031496063
        },
        {
          "duration": 0.0789472499999988,
          "durationTicks": 96,
          "midi": 38,
          "name": "D2",
          "ticks": 125568,
          "time": 103.263003,
          "velocity": 0.4015748031496063
        },
        {
          "duration": 0.0789472499999988,
          "durationTicks": 96,
          "midi": 38,
          "name": "D2",
          "ticks": 125568,
          "time": 103.263003,
          "velocity": 0.4015748031496063
        },
        {
          "duration": 0.0789472499999988,
          "durationTicks": 96,
          "midi": 38,
          "name": "D2",
          "ticks": 125568,
          "time": 103.263003,
          "velocity": 0.4015748031496063
        },
        {
          "duration": 0.0789472499999988,
          "durationTicks": 96,
          "midi": 38,
          "name": "D2",
          "ticks": 125760,
          "time": 103.4208975,
          "velocity": 0.4015748031496063
        },
        {
          "duration": 0.0789472499999988,
          "durationTicks": 96,
          "midi": 40,
          "name": "E2",
          "ticks": 125760,
          "time": 103.4208975,
          "velocity": 0.4015748031496063
        },
        {
          "duration": 0.0789472499999988,
          "durationTicks": 96,
          "midi": 38,
          "name": "D2",
          "ticks": 125952,
          "time": 103.57879199999999,
          "velocity": 0.4015748031496063
        },
        {
          "duration": 0.0789472499999988,
          "durationTicks": 96,
          "midi": 40,
          "name": "E2",
          "ticks": 125952,
          "time": 103.57879199999999,
          "velocity": 0.4015748031496063
        },
        {
          "duration": 0.0789472499999988,
          "durationTicks": 96,
          "midi": 40,
          "name": "E2",
          "ticks": 125952,
          "time": 103.57879199999999,
          "velocity": 0.4015748031496063
        },
        {
          "duration": 0.0789472499999988,
          "durationTicks": 96,
          "midi": 40,
          "name": "E2",
          "ticks": 126144,
          "time": 103.73668649999999,
          "velocity": 0.4015748031496063
        },
        {
          "duration": 0.0789472499999988,
          "durationTicks": 96,
          "midi": 38,
          "name": "D2",
          "ticks": 126336,
          "time": 103.894581,
          "velocity": 0.4015748031496063
        },
        {
          "duration": 0.0789472499999988,
          "durationTicks": 96,
          "midi": 38,
          "name": "D2",
          "ticks": 126336,
          "time": 103.894581,
          "velocity": 0.4015748031496063
        },
        {
          "duration": 0.0789472499999988,
          "durationTicks": 96,
          "midi": 40,
          "name": "E2",
          "ticks": 126528,
          "time": 104.0524755,
          "velocity": 0.4015748031496063
        },
        {
          "duration": 0.0789472499999988,
          "durationTicks": 96,
          "midi": 38,
          "name": "D2",
          "ticks": 126528,
          "time": 104.0524755,
          "velocity": 0.4015748031496063
        },
        {
          "duration": 0.0789472499999988,
          "durationTicks": 96,
          "midi": 38,
          "name": "D2",
          "ticks": 126528,
          "time": 104.0524755,
          "velocity": 0.4015748031496063
        },
        {
          "duration": 0.0789472499999988,
          "durationTicks": 96,
          "midi": 40,
          "name": "E2",
          "ticks": 126528,
          "time": 104.0524755,
          "velocity": 0.4015748031496063
        },
        {
          "duration": 0.0789472499999988,
          "durationTicks": 96,
          "midi": 40,
          "name": "E2",
          "ticks": 126720,
          "time": 104.21037,
          "velocity": 0.4015748031496063
        },
        {
          "duration": 0.0789472499999988,
          "durationTicks": 96,
          "midi": 40,
          "name": "E2",
          "ticks": 126720,
          "time": 104.21037,
          "velocity": 0.4015748031496063
        },
        {
          "duration": 0.0789472499999988,
          "durationTicks": 96,
          "midi": 40,
          "name": "E2",
          "ticks": 126912,
          "time": 104.3682645,
          "velocity": 0.4015748031496063
        },
        {
          "duration": 0.0789472499999988,
          "durationTicks": 96,
          "midi": 38,
          "name": "D2",
          "ticks": 126912,
          "time": 104.3682645,
          "velocity": 0.4015748031496063
        },
        {
          "duration": 0.0789472499999988,
          "durationTicks": 96,
          "midi": 38,
          "name": "D2",
          "ticks": 127104,
          "time": 104.52615899999999,
          "velocity": 0.4015748031496063
        },
        {
          "duration": 0.0789472499999988,
          "durationTicks": 96,
          "midi": 40,
          "name": "E2",
          "ticks": 127104,
          "time": 104.52615899999999,
          "velocity": 0.4015748031496063
        },
        {
          "duration": 0.0789472499999988,
          "durationTicks": 96,
          "midi": 38,
          "name": "D2",
          "ticks": 127104,
          "time": 104.52615899999999,
          "velocity": 0.4015748031496063
        },
        {
          "duration": 0.0789472499999988,
          "durationTicks": 96,
          "midi": 38,
          "name": "D2",
          "ticks": 127104,
          "time": 104.52615899999999,
          "velocity": 0.4015748031496063
        },
        {
          "duration": 0.0789472499999988,
          "durationTicks": 96,
          "midi": 38,
          "name": "D2",
          "ticks": 127104,
          "time": 104.52615899999999,
          "velocity": 0.4015748031496063
        },
        {
          "duration": 0.0789472499999988,
          "durationTicks": 96,
          "midi": 38,
          "name": "D2",
          "ticks": 127296,
          "time": 104.68405349999999,
          "velocity": 0.4015748031496063
        },
        {
          "duration": 0.0789472499999988,
          "durationTicks": 96,
          "midi": 40,
          "name": "E2",
          "ticks": 127296,
          "time": 104.68405349999999,
          "velocity": 0.4015748031496063
        },
        {
          "duration": 0.0789472499999988,
          "durationTicks": 96,
          "midi": 40,
          "name": "E2",
          "ticks": 127488,
          "time": 104.841948,
          "velocity": 0.4015748031496063
        },
        {
          "duration": 0.0789472499999988,
          "durationTicks": 96,
          "midi": 38,
          "name": "D2",
          "ticks": 127488,
          "time": 104.841948,
          "velocity": 0.4015748031496063
        },
        {
          "duration": 0.0789472499999988,
          "durationTicks": 96,
          "midi": 40,
          "name": "E2",
          "ticks": 127488,
          "time": 104.841948,
          "velocity": 0.4015748031496063
        },
        {
          "duration": 0.0789472499999988,
          "durationTicks": 96,
          "midi": 40,
          "name": "E2",
          "ticks": 127680,
          "time": 104.9998425,
          "velocity": 0.4015748031496063
        },
        {
          "duration": 0.0789472499999988,
          "durationTicks": 96,
          "midi": 38,
          "name": "D2",
          "ticks": 127872,
          "time": 105.157737,
          "velocity": 0.4015748031496063
        },
        {
          "duration": 0.0789472499999988,
          "durationTicks": 96,
          "midi": 38,
          "name": "D2",
          "ticks": 127872,
          "time": 105.157737,
          "velocity": 0.4015748031496063
        },
        {
          "duration": 0.0789472499999988,
          "durationTicks": 96,
          "midi": 40,
          "name": "E2",
          "ticks": 128064,
          "time": 105.3156315,
          "velocity": 0.4015748031496063
        },
        {
          "duration": 0.0789472499999988,
          "durationTicks": 96,
          "midi": 38,
          "name": "D2",
          "ticks": 128064,
          "time": 105.3156315,
          "velocity": 0.4015748031496063
        },
        {
          "duration": 0.0789472499999988,
          "durationTicks": 96,
          "midi": 38,
          "name": "D2",
          "ticks": 128064,
          "time": 105.3156315,
          "velocity": 0.4015748031496063
        },
        {
          "duration": 0.0789472499999988,
          "durationTicks": 96,
          "midi": 40,
          "name": "E2",
          "ticks": 128064,
          "time": 105.3156315,
          "velocity": 0.4015748031496063
        },
        {
          "duration": 0.0789472499999988,
          "durationTicks": 96,
          "midi": 40,
          "name": "E2",
          "ticks": 128256,
          "time": 105.47352599999999,
          "velocity": 0.4015748031496063
        },
        {
          "duration": 0.0789472499999988,
          "durationTicks": 96,
          "midi": 40,
          "name": "E2",
          "ticks": 128256,
          "time": 105.47352599999999,
          "velocity": 0.4015748031496063
        },
        {
          "duration": 0.0789472499999988,
          "durationTicks": 96,
          "midi": 40,
          "name": "E2",
          "ticks": 128448,
          "time": 105.63142049999999,
          "velocity": 0.4015748031496063
        },
        {
          "duration": 0.0789472499999988,
          "durationTicks": 96,
          "midi": 38,
          "name": "D2",
          "ticks": 128448,
          "time": 105.63142049999999,
          "velocity": 0.4015748031496063
        },
        {
          "duration": 0.0789472499999988,
          "durationTicks": 96,
          "midi": 38,
          "name": "D2",
          "ticks": 128640,
          "time": 105.789315,
          "velocity": 0.4015748031496063
        },
        {
          "duration": 0.0789472499999988,
          "durationTicks": 96,
          "midi": 38,
          "name": "D2",
          "ticks": 128640,
          "time": 105.789315,
          "velocity": 0.4015748031496063
        },
        {
          "duration": 0.0789472499999988,
          "durationTicks": 96,
          "midi": 40,
          "name": "E2",
          "ticks": 128640,
          "time": 105.789315,
          "velocity": 0.4015748031496063
        },
        {
          "duration": 0.0789472499999988,
          "durationTicks": 96,
          "midi": 38,
          "name": "D2",
          "ticks": 128640,
          "time": 105.789315,
          "velocity": 0.4015748031496063
        },
        {
          "duration": 0.0789472499999988,
          "durationTicks": 96,
          "midi": 38,
          "name": "D2",
          "ticks": 128640,
          "time": 105.789315,
          "velocity": 0.4015748031496063
        },
        {
          "duration": 0.0789472499999988,
          "durationTicks": 96,
          "midi": 38,
          "name": "D2",
          "ticks": 128832,
          "time": 105.9472095,
          "velocity": 0.4015748031496063
        },
        {
          "duration": 0.0789472499999988,
          "durationTicks": 96,
          "midi": 40,
          "name": "E2",
          "ticks": 128832,
          "time": 105.9472095,
          "velocity": 0.4015748031496063
        },
        {
          "duration": 0.0789472499999988,
          "durationTicks": 96,
          "midi": 38,
          "name": "D2",
          "ticks": 129024,
          "time": 106.105104,
          "velocity": 0.4015748031496063
        },
        {
          "duration": 0.0789472499999988,
          "durationTicks": 96,
          "midi": 40,
          "name": "E2",
          "ticks": 129024,
          "time": 106.105104,
          "velocity": 0.4015748031496063
        },
        {
          "duration": 0.0789472499999988,
          "durationTicks": 96,
          "midi": 40,
          "name": "E2",
          "ticks": 129024,
          "time": 106.105104,
          "velocity": 0.4015748031496063
        },
        {
          "duration": 0.0789472499999988,
          "durationTicks": 96,
          "midi": 40,
          "name": "E2",
          "ticks": 129216,
          "time": 106.2629985,
          "velocity": 0.4015748031496063
        },
        {
          "duration": 0.0789472499999988,
          "durationTicks": 96,
          "midi": 38,
          "name": "D2",
          "ticks": 129408,
          "time": 106.42089299999999,
          "velocity": 0.4015748031496063
        },
        {
          "duration": 0.0789472499999988,
          "durationTicks": 96,
          "midi": 38,
          "name": "D2",
          "ticks": 129408,
          "time": 106.42089299999999,
          "velocity": 0.4015748031496063
        },
        {
          "duration": 0.0789472499999988,
          "durationTicks": 96,
          "midi": 38,
          "name": "D2",
          "ticks": 129600,
          "time": 106.57878749999999,
          "velocity": 0.4015748031496063
        },
        {
          "duration": 0.0789472499999988,
          "durationTicks": 96,
          "midi": 38,
          "name": "D2",
          "ticks": 129600,
          "time": 106.57878749999999,
          "velocity": 0.4015748031496063
        },
        {
          "duration": 0.0789472499999988,
          "durationTicks": 96,
          "midi": 40,
          "name": "E2",
          "ticks": 129600,
          "time": 106.57878749999999,
          "velocity": 0.4015748031496063
        },
        {
          "duration": 0.0789472499999988,
          "durationTicks": 96,
          "midi": 40,
          "name": "E2",
          "ticks": 129600,
          "time": 106.57878749999999,
          "velocity": 0.4015748031496063
        },
        {
          "duration": 0.0789472499999988,
          "durationTicks": 96,
          "midi": 40,
          "name": "E2",
          "ticks": 129792,
          "time": 106.736682,
          "velocity": 0.4015748031496063
        },
        {
          "duration": 0.0789472499999988,
          "durationTicks": 96,
          "midi": 40,
          "name": "E2",
          "ticks": 129792,
          "time": 106.736682,
          "velocity": 0.4015748031496063
        },
        {
          "duration": 0.0789472499999988,
          "durationTicks": 96,
          "midi": 40,
          "name": "E2",
          "ticks": 129984,
          "time": 106.8945765,
          "velocity": 0.4015748031496063
        },
        {
          "duration": 0.0789472499999988,
          "durationTicks": 96,
          "midi": 38,
          "name": "D2",
          "ticks": 129984,
          "time": 106.8945765,
          "velocity": 0.4015748031496063
        },
        {
          "duration": 0.0789472499999988,
          "durationTicks": 96,
          "midi": 38,
          "name": "D2",
          "ticks": 130176,
          "time": 107.052471,
          "velocity": 0.4015748031496063
        },
        {
          "duration": 0.0789472499999988,
          "durationTicks": 96,
          "midi": 38,
          "name": "D2",
          "ticks": 130176,
          "time": 107.052471,
          "velocity": 0.4015748031496063
        },
        {
          "duration": 0.0789472499999988,
          "durationTicks": 96,
          "midi": 38,
          "name": "D2",
          "ticks": 130176,
          "time": 107.052471,
          "velocity": 0.4015748031496063
        },
        {
          "duration": 0.0789472499999988,
          "durationTicks": 96,
          "midi": 40,
          "name": "E2",
          "ticks": 130176,
          "time": 107.052471,
          "velocity": 0.4015748031496063
        },
        {
          "duration": 0.0789472499999988,
          "durationTicks": 96,
          "midi": 38,
          "name": "D2",
          "ticks": 130176,
          "time": 107.052471,
          "velocity": 0.4015748031496063
        },
        {
          "duration": 0.0789472499999988,
          "durationTicks": 96,
          "midi": 40,
          "name": "E2",
          "ticks": 130368,
          "time": 107.2103655,
          "velocity": 0.4015748031496063
        },
        {
          "duration": 0.0789472499999988,
          "durationTicks": 96,
          "midi": 38,
          "name": "D2",
          "ticks": 130368,
          "time": 107.2103655,
          "velocity": 0.4015748031496063
        },
        {
          "duration": 0.0789472499999988,
          "durationTicks": 96,
          "midi": 38,
          "name": "D2",
          "ticks": 130560,
          "time": 107.36825999999999,
          "velocity": 0.4015748031496063
        },
        {
          "duration": 0.0789472499999988,
          "durationTicks": 96,
          "midi": 40,
          "name": "E2",
          "ticks": 130560,
          "time": 107.36825999999999,
          "velocity": 0.4015748031496063
        },
        {
          "duration": 0.0789472499999988,
          "durationTicks": 96,
          "midi": 40,
          "name": "E2",
          "ticks": 130560,
          "time": 107.36825999999999,
          "velocity": 0.4015748031496063
        },
        {
          "duration": 0.0789472499999988,
          "durationTicks": 96,
          "midi": 40,
          "name": "E2",
          "ticks": 130752,
          "time": 107.52615449999999,
          "velocity": 0.4015748031496063
        },
        {
          "duration": 0.0789472499999988,
          "durationTicks": 96,
          "midi": 38,
          "name": "D2",
          "ticks": 130944,
          "time": 107.684049,
          "velocity": 0.4015748031496063
        },
        {
          "duration": 0.0789472499999988,
          "durationTicks": 96,
          "midi": 38,
          "name": "D2",
          "ticks": 130944,
          "time": 107.684049,
          "velocity": 0.4015748031496063
        },
        {
          "duration": 0.0789472499999988,
          "durationTicks": 96,
          "midi": 40,
          "name": "E2",
          "ticks": 131136,
          "time": 107.8419435,
          "velocity": 0.4015748031496063
        },
        {
          "duration": 0.0789472499999988,
          "durationTicks": 96,
          "midi": 38,
          "name": "D2",
          "ticks": 131136,
          "time": 107.8419435,
          "velocity": 0.4015748031496063
        },
        {
          "duration": 0.0789472499999988,
          "durationTicks": 96,
          "midi": 38,
          "name": "D2",
          "ticks": 131136,
          "time": 107.8419435,
          "velocity": 0.4015748031496063
        },
        {
          "duration": 0.0789472499999988,
          "durationTicks": 96,
          "midi": 40,
          "name": "E2",
          "ticks": 131136,
          "time": 107.8419435,
          "velocity": 0.4015748031496063
        },
        {
          "duration": 0.0789472499999988,
          "durationTicks": 96,
          "midi": 40,
          "name": "E2",
          "ticks": 131328,
          "time": 107.999838,
          "velocity": 0.4015748031496063
        },
        {
          "duration": 0.0789472499999988,
          "durationTicks": 96,
          "midi": 40,
          "name": "E2",
          "ticks": 131328,
          "time": 107.999838,
          "velocity": 0.4015748031496063
        },
        {
          "duration": 0.0789472499999988,
          "durationTicks": 96,
          "midi": 38,
          "name": "D2",
          "ticks": 131520,
          "time": 108.1577325,
          "velocity": 0.4015748031496063
        },
        {
          "duration": 0.0789472499999988,
          "durationTicks": 96,
          "midi": 40,
          "name": "E2",
          "ticks": 131520,
          "time": 108.1577325,
          "velocity": 0.4015748031496063
        },
        {
          "duration": 0.0789472499999988,
          "durationTicks": 96,
          "midi": 38,
          "name": "D2",
          "ticks": 131712,
          "time": 108.31562699999999,
          "velocity": 0.4015748031496063
        },
        {
          "duration": 0.0789472499999988,
          "durationTicks": 96,
          "midi": 40,
          "name": "E2",
          "ticks": 131712,
          "time": 108.31562699999999,
          "velocity": 0.4015748031496063
        },
        {
          "duration": 0.0789472499999988,
          "durationTicks": 96,
          "midi": 38,
          "name": "D2",
          "ticks": 131712,
          "time": 108.31562699999999,
          "velocity": 0.4015748031496063
        },
        {
          "duration": 0.0789472499999988,
          "durationTicks": 96,
          "midi": 38,
          "name": "D2",
          "ticks": 131712,
          "time": 108.31562699999999,
          "velocity": 0.4015748031496063
        },
        {
          "duration": 0.0789472499999988,
          "durationTicks": 96,
          "midi": 38,
          "name": "D2",
          "ticks": 131712,
          "time": 108.31562699999999,
          "velocity": 0.4015748031496063
        },
        {
          "duration": 0.0789472499999988,
          "durationTicks": 96,
          "midi": 40,
          "name": "E2",
          "ticks": 131904,
          "time": 108.47352149999999,
          "velocity": 0.4015748031496063
        },
        {
          "duration": 0.0789472499999988,
          "durationTicks": 96,
          "midi": 38,
          "name": "D2",
          "ticks": 131904,
          "time": 108.47352149999999,
          "velocity": 0.4015748031496063
        },
        {
          "duration": 0.0789472499999988,
          "durationTicks": 96,
          "midi": 40,
          "name": "E2",
          "ticks": 132096,
          "time": 108.631416,
          "velocity": 0.4015748031496063
        },
        {
          "duration": 0.0789472499999988,
          "durationTicks": 96,
          "midi": 38,
          "name": "D2",
          "ticks": 132096,
          "time": 108.631416,
          "velocity": 0.4015748031496063
        },
        {
          "duration": 0.0789472499999988,
          "durationTicks": 96,
          "midi": 40,
          "name": "E2",
          "ticks": 132096,
          "time": 108.631416,
          "velocity": 0.4015748031496063
        },
        {
          "duration": 0.0789472499999988,
          "durationTicks": 96,
          "midi": 40,
          "name": "E2",
          "ticks": 132288,
          "time": 108.7893105,
          "velocity": 0.4015748031496063
        },
        {
          "duration": 0.0789472499999988,
          "durationTicks": 96,
          "midi": 38,
          "name": "D2",
          "ticks": 132480,
          "time": 108.947205,
          "velocity": 0.4015748031496063
        },
        {
          "duration": 0.0789472499999988,
          "durationTicks": 96,
          "midi": 38,
          "name": "D2",
          "ticks": 132480,
          "time": 108.947205,
          "velocity": 0.4015748031496063
        },
        {
          "duration": 0.0789472499999988,
          "durationTicks": 96,
          "midi": 40,
          "name": "E2",
          "ticks": 132672,
          "time": 109.1050995,
          "velocity": 0.4015748031496063
        },
        {
          "duration": 0.0789472499999988,
          "durationTicks": 96,
          "midi": 38,
          "name": "D2",
          "ticks": 132672,
          "time": 109.1050995,
          "velocity": 0.4015748031496063
        },
        {
          "duration": 0.0789472499999988,
          "durationTicks": 96,
          "midi": 38,
          "name": "D2",
          "ticks": 132672,
          "time": 109.1050995,
          "velocity": 0.4015748031496063
        },
        {
          "duration": 0.0789472499999988,
          "durationTicks": 96,
          "midi": 40,
          "name": "E2",
          "ticks": 132672,
          "time": 109.1050995,
          "velocity": 0.4015748031496063
        },
        {
          "duration": 0.0789472499999988,
          "durationTicks": 96,
          "midi": 40,
          "name": "E2",
          "ticks": 132864,
          "time": 109.26299399999999,
          "velocity": 0.4015748031496063
        },
        {
          "duration": 0.0789472499999988,
          "durationTicks": 96,
          "midi": 40,
          "name": "E2",
          "ticks": 132864,
          "time": 109.26299399999999,
          "velocity": 0.4015748031496063
        },
        {
          "duration": 0.0789472499999988,
          "durationTicks": 96,
          "midi": 40,
          "name": "E2",
          "ticks": 133056,
          "time": 109.42088849999999,
          "velocity": 0.4015748031496063
        },
        {
          "duration": 0.0789472499999988,
          "durationTicks": 96,
          "midi": 38,
          "name": "D2",
          "ticks": 133056,
          "time": 109.42088849999999,
          "velocity": 0.4015748031496063
        },
        {
          "duration": 0.0789472499999988,
          "durationTicks": 96,
          "midi": 40,
          "name": "E2",
          "ticks": 133248,
          "time": 109.578783,
          "velocity": 0.4015748031496063
        },
        {
          "duration": 0.0789472499999988,
          "durationTicks": 96,
          "midi": 38,
          "name": "D2",
          "ticks": 133248,
          "time": 109.578783,
          "velocity": 0.4015748031496063
        },
        {
          "duration": 0.0789472499999988,
          "durationTicks": 96,
          "midi": 38,
          "name": "D2",
          "ticks": 133248,
          "time": 109.578783,
          "velocity": 0.4015748031496063
        },
        {
          "duration": 0.0789472499999988,
          "durationTicks": 96,
          "midi": 38,
          "name": "D2",
          "ticks": 133248,
          "time": 109.578783,
          "velocity": 0.4015748031496063
        },
        {
          "duration": 0.0789472499999988,
          "durationTicks": 96,
          "midi": 38,
          "name": "D2",
          "ticks": 133248,
          "time": 109.578783,
          "velocity": 0.4015748031496063
        },
        {
          "duration": 0.0789472499999988,
          "durationTicks": 96,
          "midi": 40,
          "name": "E2",
          "ticks": 133440,
          "time": 109.7366775,
          "velocity": 0.4015748031496063
        },
        {
          "duration": 0.0789472499999988,
          "durationTicks": 96,
          "midi": 38,
          "name": "D2",
          "ticks": 133440,
          "time": 109.7366775,
          "velocity": 0.4015748031496063
        },
        {
          "duration": 0.0789472499999988,
          "durationTicks": 96,
          "midi": 40,
          "name": "E2",
          "ticks": 133632,
          "time": 109.894572,
          "velocity": 0.4015748031496063
        },
        {
          "duration": 0.0789472499999988,
          "durationTicks": 96,
          "midi": 38,
          "name": "D2",
          "ticks": 133632,
          "time": 109.894572,
          "velocity": 0.4015748031496063
        },
        {
          "duration": 0.0789472499999988,
          "durationTicks": 96,
          "midi": 40,
          "name": "E2",
          "ticks": 133632,
          "time": 109.894572,
          "velocity": 0.4015748031496063
        },
        {
          "duration": 0.0789472499999988,
          "durationTicks": 96,
          "midi": 40,
          "name": "E2",
          "ticks": 133824,
          "time": 110.0524665,
          "velocity": 0.4015748031496063
        },
        {
          "duration": 0.0789472499999988,
          "durationTicks": 96,
          "midi": 38,
          "name": "D2",
          "ticks": 134016,
          "time": 110.21036099999999,
          "velocity": 0.4015748031496063
        },
        {
          "duration": 0.0789472499999988,
          "durationTicks": 96,
          "midi": 38,
          "name": "D2",
          "ticks": 134016,
          "time": 110.21036099999999,
          "velocity": 0.4015748031496063
        },
        {
          "duration": 0.0789472499999988,
          "durationTicks": 96,
          "midi": 38,
          "name": "D2",
          "ticks": 134208,
          "time": 110.36825549999999,
          "velocity": 0.4015748031496063
        },
        {
          "duration": 0.0789472499999988,
          "durationTicks": 96,
          "midi": 40,
          "name": "E2",
          "ticks": 134208,
          "time": 110.36825549999999,
          "velocity": 0.4015748031496063
        },
        {
          "duration": 0.0789472499999988,
          "durationTicks": 96,
          "midi": 38,
          "name": "D2",
          "ticks": 134208,
          "time": 110.36825549999999,
          "velocity": 0.4015748031496063
        },
        {
          "duration": 0.0789472499999988,
          "durationTicks": 96,
          "midi": 40,
          "name": "E2",
          "ticks": 134208,
          "time": 110.36825549999999,
          "velocity": 0.4015748031496063
        },
        {
          "duration": 0.0789472499999988,
          "durationTicks": 96,
          "midi": 40,
          "name": "E2",
          "ticks": 134400,
          "time": 110.52615,
          "velocity": 0.4015748031496063
        },
        {
          "duration": 0.0789472499999988,
          "durationTicks": 96,
          "midi": 40,
          "name": "E2",
          "ticks": 134400,
          "time": 110.52615,
          "velocity": 0.4015748031496063
        },
        {
          "duration": 0.0789472499999988,
          "durationTicks": 96,
          "midi": 38,
          "name": "D2",
          "ticks": 134592,
          "time": 110.6840445,
          "velocity": 0.4015748031496063
        },
        {
          "duration": 0.0789472499999988,
          "durationTicks": 96,
          "midi": 40,
          "name": "E2",
          "ticks": 134592,
          "time": 110.6840445,
          "velocity": 0.4015748031496063
        },
        {
          "duration": 0.0789472499999988,
          "durationTicks": 96,
          "midi": 38,
          "name": "D2",
          "ticks": 134784,
          "time": 110.841939,
          "velocity": 0.4015748031496063
        },
        {
          "duration": 0.0789472499999988,
          "durationTicks": 96,
          "midi": 38,
          "name": "D2",
          "ticks": 134784,
          "time": 110.841939,
          "velocity": 0.4015748031496063
        },
        {
          "duration": 0.0789472499999988,
          "durationTicks": 96,
          "midi": 38,
          "name": "D2",
          "ticks": 134784,
          "time": 110.841939,
          "velocity": 0.4015748031496063
        },
        {
          "duration": 0.0789472499999988,
          "durationTicks": 96,
          "midi": 38,
          "name": "D2",
          "ticks": 134784,
          "time": 110.841939,
          "velocity": 0.4015748031496063
        },
        {
          "duration": 0.0789472499999988,
          "durationTicks": 96,
          "midi": 40,
          "name": "E2",
          "ticks": 134784,
          "time": 110.841939,
          "velocity": 0.4015748031496063
        },
        {
          "duration": 0.0789472499999988,
          "durationTicks": 96,
          "midi": 38,
          "name": "D2",
          "ticks": 134976,
          "time": 110.9998335,
          "velocity": 0.4015748031496063
        },
        {
          "duration": 0.0789472499999988,
          "durationTicks": 96,
          "midi": 40,
          "name": "E2",
          "ticks": 134976,
          "time": 110.9998335,
          "velocity": 0.4015748031496063
        }
      ],
      "endOfTrackTicks": 135072
    },
    {
      "channel": 13,
      "controlChanges": {},
      "pitchBends": [],
      "instrument": {
        "family": "piano",
        "number": 0,
        "name": "acoustic grand piano"
      },
      "name": "Grand Piano",
      "notes": [
        {
          "duration": 2.526312,
          "durationTicks": 3072,
          "midi": 53,
          "name": "F3",
          "ticks": 0,
          "time": 0,
          "velocity": 0.5826771653543307
        },
        {
          "duration": 0.1578945,
          "durationTicks": 192,
          "midi": 68,
          "name": "G#4",
          "ticks": 0,
          "time": 0,
          "velocity": 0.5826771653543307
        },
        {
          "duration": 2.526312,
          "durationTicks": 3072,
          "midi": 46,
          "name": "A#2",
          "ticks": 0,
          "time": 0,
          "velocity": 0.5826771653543307
        },
        {
          "duration": 0.1578945,
          "durationTicks": 192,
          "midi": 68,
          "name": "G#4",
          "ticks": 384,
          "time": 0.315789,
          "velocity": 0.5826771653543307
        },
        {
          "duration": 0.1578945,
          "durationTicks": 192,
          "midi": 70,
          "name": "A#4",
          "ticks": 576,
          "time": 0.4736835,
          "velocity": 0.5826771653543307
        },
        {
          "duration": 0.15789450000000005,
          "durationTicks": 192,
          "midi": 72,
          "name": "C5",
          "ticks": 768,
          "time": 0.631578,
          "velocity": 0.5826771653543307
        },
        {
          "duration": 0.15789449999999994,
          "durationTicks": 192,
          "midi": 68,
          "name": "G#4",
          "ticks": 1152,
          "time": 0.947367,
          "velocity": 0.5826771653543307
        },
        {
          "duration": 0.15789450000000005,
          "durationTicks": 192,
          "midi": 70,
          "name": "A#4",
          "ticks": 1536,
          "time": 1.263156,
          "velocity": 0.5826771653543307
        },
        {
          "duration": 0.15789449999999983,
          "durationTicks": 192,
          "midi": 70,
          "name": "A#4",
          "ticks": 1920,
          "time": 1.578945,
          "velocity": 0.5826771653543307
        },
        {
          "duration": 0.15789450000000005,
          "durationTicks": 192,
          "midi": 72,
          "name": "C5",
          "ticks": 2112,
          "time": 1.7368394999999999,
          "velocity": 0.5826771653543307
        },
        {
          "duration": 0.15789450000000005,
          "durationTicks": 192,
          "midi": 67,
          "name": "G4",
          "ticks": 2304,
          "time": 1.894734,
          "velocity": 0.5826771653543307
        },
        {
          "duration": 0.15789450000000027,
          "durationTicks": 192,
          "midi": 63,
          "name": "D#4",
          "ticks": 2688,
          "time": 2.210523,
          "velocity": 0.5826771653543307
        },
        {
          "duration": 0.15789449999999983,
          "durationTicks": 192,
          "midi": 68,
          "name": "G#4",
          "ticks": 3072,
          "time": 2.526312,
          "velocity": 0.5826771653543307
        },
        {
          "duration": 2.526312,
          "durationTicks": 3072,
          "midi": 48,
          "name": "C3",
          "ticks": 3072,
          "time": 2.526312,
          "velocity": 0.5826771653543307
        },
        {
          "duration": 1.263156,
          "durationTicks": 1536,
          "midi": 56,
          "name": "G#3",
          "ticks": 3072,
          "time": 2.526312,
          "velocity": 0.5826771653543307
        },
        {
          "duration": 0.15789449999999983,
          "durationTicks": 192,
          "midi": 68,
          "name": "G#4",
          "ticks": 3456,
          "time": 2.842101,
          "velocity": 0.5826771653543307
        },
        {
          "duration": 0.15789450000000027,
          "durationTicks": 192,
          "midi": 70,
          "name": "A#4",
          "ticks": 3648,
          "time": 2.9999955,
          "velocity": 0.5826771653543307
        },
        {
          "duration": 0.15789449999999983,
          "durationTicks": 192,
          "midi": 72,
          "name": "C5",
          "ticks": 3840,
          "time": 3.15789,
          "velocity": 0.5826771653543307
        },
        {
          "duration": 0.3157890000000001,
          "durationTicks": 384,
          "midi": 80,
          "name": "G#5",
          "ticks": 4224,
          "time": 3.4736789999999997,
          "velocity": 0.5826771653543307
        },
        {
          "duration": 0.3157890000000001,
          "durationTicks": 384,
          "midi": 79,
          "name": "G5",
          "ticks": 4608,
          "time": 3.789468,
          "velocity": 0.5826771653543307
        },
        {
          "duration": 1.263156,
          "durationTicks": 1536,
          "midi": 55,
          "name": "G3",
          "ticks": 4608,
          "time": 3.789468,
          "velocity": 0.5826771653543307
        },
        {
          "duration": 0.31578899999999965,
          "durationTicks": 384,
          "midi": 75,
          "name": "D#5",
          "ticks": 4992,
          "time": 4.105257,
          "velocity": 0.5826771653543307
        },
        {
          "duration": 0.31578900000000054,
          "durationTicks": 384,
          "midi": 70,
          "name": "A#4",
          "ticks": 5376,
          "time": 4.421046,
          "velocity": 0.5826771653543307
        },
        {
          "duration": 0.31578899999999965,
          "durationTicks": 384,
          "midi": 67,
          "name": "G4",
          "ticks": 5760,
          "time": 4.736835,
          "velocity": 0.5826771653543307
        },
        {
          "duration": 2.526312,
          "durationTicks": 3072,
          "midi": 56,
          "name": "G#3",
          "ticks": 6144,
          "time": 5.052624,
          "velocity": 0.5826771653543307
        },
        {
          "duration": 0.15789450000000027,
          "durationTicks": 192,
          "midi": 68,
          "name": "G#4",
          "ticks": 6144,
          "time": 5.052624,
          "velocity": 0.5826771653543307
        },
        {
          "duration": 2.526312,
          "durationTicks": 3072,
          "midi": 49,
          "name": "C#3",
          "ticks": 6144,
          "time": 5.052624,
          "velocity": 0.5826771653543307
        },
        {
          "duration": 0.15789450000000027,
          "durationTicks": 192,
          "midi": 68,
          "name": "G#4",
          "ticks": 6528,
          "time": 5.368412999999999,
          "velocity": 0.5826771653543307
        },
        {
          "duration": 0.15789450000000027,
          "durationTicks": 192,
          "midi": 70,
          "name": "A#4",
          "ticks": 6720,
          "time": 5.5263075,
          "velocity": 0.5826771653543307
        },
        {
          "duration": 0.15789449999999938,
          "durationTicks": 192,
          "midi": 72,
          "name": "C5",
          "ticks": 6912,
          "time": 5.684202,
          "velocity": 0.5826771653543307
        },
        {
          "duration": 0.15789450000000027,
          "durationTicks": 192,
          "midi": 68,
          "name": "G#4",
          "ticks": 7296,
          "time": 5.999991,
          "velocity": 0.5826771653543307
        },
        {
          "duration": 0.15789449999999938,
          "durationTicks": 192,
          "midi": 70,
          "name": "A#4",
          "ticks": 7680,
          "time": 6.31578,
          "velocity": 0.5826771653543307
        },
        {
          "duration": 0.15789450000000027,
          "durationTicks": 192,
          "midi": 70,
          "name": "A#4",
          "ticks": 8064,
          "time": 6.631569,
          "velocity": 0.5826771653543307
        },
        {
          "duration": 0.15789449999999938,
          "durationTicks": 192,
          "midi": 72,
          "name": "C5",
          "ticks": 8256,
          "time": 6.7894635,
          "velocity": 0.5826771653543307
        },
        {
          "duration": 0.15789450000000027,
          "durationTicks": 192,
          "midi": 67,
          "name": "G4",
          "ticks": 8448,
          "time": 6.9473579999999995,
          "velocity": 0.5826771653543307
        },
        {
          "duration": 0.15789449999999938,
          "durationTicks": 192,
          "midi": 63,
          "name": "D#4",
          "ticks": 8832,
          "time": 7.263147,
          "velocity": 0.5826771653543307
        },
        {
          "duration": 0.15789450000000027,
          "durationTicks": 192,
          "midi": 69,
          "name": "A4",
          "ticks": 9216,
          "time": 7.578936,
          "velocity": 0.5826771653543307
        },
        {
          "duration": 2.526312,
          "durationTicks": 3072,
          "midi": 57,
          "name": "A3",
          "ticks": 9216,
          "time": 7.578936,
          "velocity": 0.5826771653543307
        },
        {
          "duration": 2.526312,
          "durationTicks": 3072,
          "midi": 62,
          "name": "D4",
          "ticks": 9216,
          "time": 7.578936,
          "velocity": 0.5826771653543307
        },
        {
          "duration": 0.15789450000000116,
          "durationTicks": 192,
          "midi": 69,
          "name": "A4",
          "ticks": 9600,
          "time": 7.894724999999999,
          "velocity": 0.5826771653543307
        },
        {
          "duration": 0.15789449999999938,
          "durationTicks": 192,
          "midi": 70,
          "name": "A#4",
          "ticks": 9792,
          "time": 8.0526195,
          "velocity": 0.5826771653543307
        },
        {
          "duration": 0.15789449999999938,
          "durationTicks": 192,
          "midi": 72,
          "name": "C5",
          "ticks": 9984,
          "time": 8.210514,
          "velocity": 0.5826771653543307
        },
        {
          "duration": 0.31578899999999877,
          "durationTicks": 384,
          "midi": 77,
          "name": "F5",
          "ticks": 10368,
          "time": 8.526303,
          "velocity": 0.5826771653543307
        },
        {
          "duration": 0.31578900000000054,
          "durationTicks": 384,
          "midi": 76,
          "name": "E5",
          "ticks": 10752,
          "time": 8.842092,
          "velocity": 0.5826771653543307
        },
        {
          "duration": 0.31578900000000054,
          "durationTicks": 384,
          "midi": 69,
          "name": "A4",
          "ticks": 10752,
          "time": 8.842092,
          "velocity": 0.5826771653543307
        },
        {
          "duration": 0.31578900000000054,
          "durationTicks": 384,
          "midi": 79,
          "name": "G5",
          "ticks": 11136,
          "time": 9.157881,
          "velocity": 0.5826771653543307
        },
        {
          "duration": 0.31578900000000054,
          "durationTicks": 384,
          "midi": 74,
          "name": "D5",
          "ticks": 11136,
          "time": 9.157881,
          "velocity": 0.5826771653543307
        },
        {
          "duration": 0.31578899999999877,
          "durationTicks": 384,
          "midi": 72,
          "name": "C5",
          "ticks": 11520,
          "time": 9.47367,
          "velocity": 0.5826771653543307
        },
        {
          "duration": 0.31578899999999877,
          "durationTicks": 384,
          "midi": 77,
          "name": "F5",
          "ticks": 11520,
          "time": 9.47367,
          "velocity": 0.5826771653543307
        },
        {
          "duration": 2.526312000000001,
          "durationTicks": 3072,
          "midi": 53,
          "name": "F3",
          "ticks": 12288,
          "time": 10.105248,
          "velocity": 0.5826771653543307
        },
        {
          "duration": 0.15789449999999938,
          "durationTicks": 192,
          "midi": 68,
          "name": "G#4",
          "ticks": 12288,
          "time": 10.105248,
          "velocity": 0.5826771653543307
        },
        {
          "duration": 2.526312000000001,
          "durationTicks": 3072,
          "midi": 46,
          "name": "A#2",
          "ticks": 12288,
          "time": 10.105248,
          "velocity": 0.5826771653543307
        },
        {
          "duration": 0.15789449999999938,
          "durationTicks": 192,
          "midi": 68,
          "name": "G#4",
          "ticks": 12672,
          "time": 10.421037,
          "velocity": 0.5826771653543307
        },
        {
          "duration": 0.15789449999999938,
          "durationTicks": 192,
          "midi": 70,
          "name": "A#4",
          "ticks": 12864,
          "time": 10.5789315,
          "velocity": 0.5826771653543307
        },
        {
          "duration": 0.15789450000000116,
          "durationTicks": 192,
          "midi": 72,
          "name": "C5",
          "ticks": 13056,
          "time": 10.736825999999999,
          "velocity": 0.5826771653543307
        },
        {
          "duration": 0.15789449999999938,
          "durationTicks": 192,
          "midi": 68,
          "name": "G#4",
          "ticks": 13440,
          "time": 11.052615,
          "velocity": 0.5826771653543307
        },
        {
          "duration": 0.15789449999999938,
          "durationTicks": 192,
          "midi": 70,
          "name": "A#4",
          "ticks": 13824,
          "time": 11.368404,
          "velocity": 0.5826771653543307
        },
        {
          "duration": 0.15789450000000116,
          "durationTicks": 192,
          "midi": 70,
          "name": "A#4",
          "ticks": 14208,
          "time": 11.684192999999999,
          "velocity": 0.5826771653543307
        },
        {
          "duration": 0.15789449999999938,
          "durationTicks": 192,
          "midi": 72,
          "name": "C5",
          "ticks": 14400,
          "time": 11.8420875,
          "velocity": 0.5826771653543307
        },
        {
          "duration": 0.15789449999999938,
          "durationTicks": 192,
          "midi": 67,
          "name": "G4",
          "ticks": 14592,
          "time": 11.999982,
          "velocity": 0.5826771653543307
        },
        {
          "duration": 0.15789449999999938,
          "durationTicks": 192,
          "midi": 63,
          "name": "D#4",
          "ticks": 14976,
          "time": 12.315771,
          "velocity": 0.5826771653543307
        },
        {
          "duration": 2.526311999999999,
          "durationTicks": 3072,
          "midi": 48,
          "name": "C3",
          "ticks": 15360,
          "time": 12.63156,
          "velocity": 0.5826771653543307
        },
        {
          "duration": 1.2631559999999986,
          "durationTicks": 1536,
          "midi": 56,
          "name": "G#3",
          "ticks": 15360,
          "time": 12.63156,
          "velocity": 0.5826771653543307
        },
        {
          "duration": 0.15789449999999938,
          "durationTicks": 192,
          "midi": 68,
          "name": "G#4",
          "ticks": 15360,
          "time": 12.63156,
          "velocity": 0.5826771653543307
        },
        {
          "duration": 0.15789450000000116,
          "durationTicks": 192,
          "midi": 68,
          "name": "G#4",
          "ticks": 15744,
          "time": 12.947348999999999,
          "velocity": 0.5826771653543307
        },
        {
          "duration": 0.15789449999999938,
          "durationTicks": 192,
          "midi": 70,
          "name": "A#4",
          "ticks": 15936,
          "time": 13.1052435,
          "velocity": 0.5826771653543307
        },
        {
          "duration": 0.15789449999999938,
          "durationTicks": 192,
          "midi": 72,
          "name": "C5",
          "ticks": 16128,
          "time": 13.263138,
          "velocity": 0.5826771653543307
        },
        {
          "duration": 0.31578899999999877,
          "durationTicks": 384,
          "midi": 80,
          "name": "G#5",
          "ticks": 16512,
          "time": 13.578927,
          "velocity": 0.5826771653543307
        },
        {
          "duration": 1.2631560000000004,
          "durationTicks": 1536,
          "midi": 55,
          "name": "G3",
          "ticks": 16896,
          "time": 13.894715999999999,
          "velocity": 0.5826771653543307
        },
        {
          "duration": 0.31578900000000054,
          "durationTicks": 384,
          "midi": 79,
          "name": "G5",
          "ticks": 16896,
          "time": 13.894715999999999,
          "velocity": 0.5826771653543307
        },
        {
          "duration": 0.31578900000000054,
          "durationTicks": 384,
          "midi": 75,
          "name": "D#5",
          "ticks": 17280,
          "time": 14.210505,
          "velocity": 0.5826771653543307
        },
        {
          "duration": 0.31578899999999877,
          "durationTicks": 384,
          "midi": 70,
          "name": "A#4",
          "ticks": 17664,
          "time": 14.526294,
          "velocity": 0.5826771653543307
        },
        {
          "duration": 0.31578900000000054,
          "durationTicks": 384,
          "midi": 67,
          "name": "G4",
          "ticks": 18048,
          "time": 14.842082999999999,
          "velocity": 0.5826771653543307
        },
        {
          "duration": 0.15789449999999938,
          "durationTicks": 192,
          "midi": 68,
          "name": "G#4",
          "ticks": 18432,
          "time": 15.157872,
          "velocity": 0.5826771653543307
        },
        {
          "duration": 2.526311999999999,
          "durationTicks": 3072,
          "midi": 49,
          "name": "C#3",
          "ticks": 18432,
          "time": 15.157872,
          "velocity": 0.5826771653543307
        },
        {
          "duration": 2.526311999999999,
          "durationTicks": 3072,
          "midi": 56,
          "name": "G#3",
          "ticks": 18432,
          "time": 15.157872,
          "velocity": 0.5826771653543307
        },
        {
          "duration": 0.15789449999999938,
          "durationTicks": 192,
          "midi": 68,
          "name": "G#4",
          "ticks": 18816,
          "time": 15.473661,
          "velocity": 0.5826771653543307
        },
        {
          "duration": 0.15789449999999938,
          "durationTicks": 192,
          "midi": 70,
          "name": "A#4",
          "ticks": 19008,
          "time": 15.6315555,
          "velocity": 0.5826771653543307
        },
        {
          "duration": 0.15789450000000116,
          "durationTicks": 192,
          "midi": 72,
          "name": "C5",
          "ticks": 19200,
          "time": 15.789449999999999,
          "velocity": 0.5826771653543307
        },
        {
          "duration": 0.1578944999999976,
          "durationTicks": 192,
          "midi": 68,
          "name": "G#4",
          "ticks": 19584,
          "time": 16.105239,
          "velocity": 0.5826771653543307
        },
        {
          "duration": 0.15789450000000116,
          "durationTicks": 192,
          "midi": 70,
          "name": "A#4",
          "ticks": 19968,
          "time": 16.421028,
          "velocity": 0.5826771653543307
        },
        {
          "duration": 0.15789450000000116,
          "durationTicks": 192,
          "midi": 70,
          "name": "A#4",
          "ticks": 20352,
          "time": 16.736817,
          "velocity": 0.5826771653543307
        },
        {
          "duration": 0.15789450000000116,
          "durationTicks": 192,
          "midi": 72,
          "name": "C5",
          "ticks": 20544,
          "time": 16.8947115,
          "velocity": 0.5826771653543307
        },
        {
          "duration": 0.1578944999999976,
          "durationTicks": 192,
          "midi": 67,
          "name": "G4",
          "ticks": 20736,
          "time": 17.052606,
          "velocity": 0.5826771653543307
        },
        {
          "duration": 0.15789450000000116,
          "durationTicks": 192,
          "midi": 63,
          "name": "D#4",
          "ticks": 21120,
          "time": 17.368395,
          "velocity": 0.5826771653543307
        },
        {
          "duration": 2.526312000000001,
          "durationTicks": 3072,
          "midi": 62,
          "name": "D4",
          "ticks": 21504,
          "time": 17.684184,
          "velocity": 0.5826771653543307
        },
        {
          "duration": 0.15789450000000116,
          "durationTicks": 192,
          "midi": 69,
          "name": "A4",
          "ticks": 21504,
          "time": 17.684184,
          "velocity": 0.5826771653543307
        },
        {
          "duration": 2.526312000000001,
          "durationTicks": 3072,
          "midi": 57,
          "name": "A3",
          "ticks": 21504,
          "time": 17.684184,
          "velocity": 0.5826771653543307
        },
        {
          "duration": 0.1578944999999976,
          "durationTicks": 192,
          "midi": 69,
          "name": "A4",
          "ticks": 21888,
          "time": 17.999973,
          "velocity": 0.5826771653543307
        },
        {
          "duration": 0.15789450000000116,
          "durationTicks": 192,
          "midi": 70,
          "name": "A#4",
          "ticks": 22080,
          "time": 18.1578675,
          "velocity": 0.5826771653543307
        },
        {
          "duration": 0.15789450000000116,
          "durationTicks": 192,
          "midi": 72,
          "name": "C5",
          "ticks": 22272,
          "time": 18.315762,
          "velocity": 0.5826771653543307
        },
        {
          "duration": 0.3157890000000023,
          "durationTicks": 384,
          "midi": 77,
          "name": "F5",
          "ticks": 22656,
          "time": 18.631550999999998,
          "velocity": 0.5826771653543307
        },
        {
          "duration": 0.31578899999999877,
          "durationTicks": 384,
          "midi": 76,
          "name": "E5",
          "ticks": 23040,
          "time": 18.94734,
          "velocity": 0.5826771653543307
        },
        {
          "duration": 0.31578899999999877,
          "durationTicks": 384,
          "midi": 69,
          "name": "A4",
          "ticks": 23040,
          "time": 18.94734,
          "velocity": 0.5826771653543307
        },
        {
          "duration": 0.31578899999999877,
          "durationTicks": 384,
          "midi": 74,
          "name": "D5",
          "ticks": 23424,
          "time": 19.263129,
          "velocity": 0.5826771653543307
        },
        {
          "duration": 0.31578899999999877,
          "durationTicks": 384,
          "midi": 79,
          "name": "G5",
          "ticks": 23424,
          "time": 19.263129,
          "velocity": 0.5826771653543307
        },
        {
          "duration": 0.3157890000000023,
          "durationTicks": 384,
          "midi": 72,
          "name": "C5",
          "ticks": 23808,
          "time": 19.578917999999998,
          "velocity": 0.5826771653543307
        },
        {
          "duration": 0.3157890000000023,
          "durationTicks": 384,
          "midi": 77,
          "name": "F5",
          "ticks": 23808,
          "time": 19.578917999999998,
          "velocity": 0.5826771653543307
        },
        {
          "duration": 2.526312000000001,
          "durationTicks": 3072,
          "midi": 60,
          "name": "C4",
          "ticks": 24576,
          "time": 20.210496,
          "velocity": 0.5826771653543307
        },
        {
          "duration": 2.526312000000001,
          "durationTicks": 3072,
          "midi": 65,
          "name": "F4",
          "ticks": 24576,
          "time": 20.210496,
          "velocity": 0.5826771653543307
        },
        {
          "duration": 1.2631559999999986,
          "durationTicks": 1536,
          "midi": 63,
          "name": "D#4",
          "ticks": 27648,
          "time": 22.736808,
          "velocity": 0.5826771653543307
        },
        {
          "duration": 1.2631559999999986,
          "durationTicks": 1536,
          "midi": 60,
          "name": "C4",
          "ticks": 27648,
          "time": 22.736808,
          "velocity": 0.5826771653543307
        },
        {
          "duration": 1.2631560000000022,
          "durationTicks": 1536,
          "midi": 65,
          "name": "F4",
          "ticks": 29184,
          "time": 23.999964,
          "velocity": 0.5826771653543307
        },
        {
          "duration": 2.5263119999999972,
          "durationTicks": 3072,
          "midi": 63,
          "name": "D#4",
          "ticks": 30720,
          "time": 25.26312,
          "velocity": 0.5826771653543307
        },
        {
          "duration": 2.5263119999999972,
          "durationTicks": 3072,
          "midi": 61,
          "name": "C#4",
          "ticks": 30720,
          "time": 25.26312,
          "velocity": 0.5826771653543307
        },
        {
          "duration": 2.526312000000001,
          "durationTicks": 3072,
          "midi": 64,
          "name": "E4",
          "ticks": 33792,
          "time": 27.789431999999998,
          "velocity": 0.5826771653543307
        },
        {
          "duration": 2.526312000000001,
          "durationTicks": 3072,
          "midi": 60,
          "name": "C4",
          "ticks": 36864,
          "time": 30.315744,
          "velocity": 0.5826771653543307
        },
        {
          "duration": 2.526312000000001,
          "durationTicks": 3072,
          "midi": 65,
          "name": "F4",
          "ticks": 36864,
          "time": 30.315744,
          "velocity": 0.5826771653543307
        },
        {
          "duration": 1.2631560000000022,
          "durationTicks": 1536,
          "midi": 63,
          "name": "D#4",
          "ticks": 39936,
          "time": 32.842056,
          "velocity": 0.5826771653543307
        },
        {
          "duration": 1.2631560000000022,
          "durationTicks": 1536,
          "midi": 60,
          "name": "C4",
          "ticks": 39936,
          "time": 32.842056,
          "velocity": 0.5826771653543307
        },
        {
          "duration": 1.263155999999995,
          "durationTicks": 1536,
          "midi": 65,
          "name": "F4",
          "ticks": 41472,
          "time": 34.105212,
          "velocity": 0.5826771653543307
        },
        {
          "duration": 2.5263120000000043,
          "durationTicks": 3072,
          "midi": 63,
          "name": "D#4",
          "ticks": 43008,
          "time": 35.368368,
          "velocity": 0.5826771653543307
        },
        {
          "duration": 2.5263120000000043,
          "durationTicks": 3072,
          "midi": 61,
          "name": "C#4",
          "ticks": 43008,
          "time": 35.368368,
          "velocity": 0.5826771653543307
        },
        {
          "duration": 2.5263119999999972,
          "durationTicks": 3072,
          "midi": 64,
          "name": "E4",
          "ticks": 46080,
          "time": 37.89468,
          "velocity": 0.5826771653543307
        }
      ],
      "endOfTrackTicks": 49152
    },
    {
      "channel": 9,
      "controlChanges": {},
      "pitchBends": [],
      "instrument": {
        "family": "drums",
        "number": 0,
        "name": "standard kit"
      },
      "name": "909 Drum Kit",
      "notes": [
        {
          "duration": 1.2631560000000022,
          "durationTicks": 1536,
          "midi": 0,
          "name": "C-1",
          "ticks": 73728,
          "time": 60.631488,
          "velocity": 0.7952755905511811
        },
        {
          "duration": 1.2631560000000093,
          "durationTicks": 1536,
          "midi": 0,
          "name": "C-1",
          "ticks": 76800,
          "time": 63.157799999999995,
          "velocity": 0.6692913385826772
        },
        {
          "duration": 1.263155999999995,
          "durationTicks": 1536,
          "midi": 0,
          "name": "C-1",
          "ticks": 79872,
          "time": 65.684112,
          "velocity": 0.6692913385826772
        },
        {
          "duration": 1.263155999999995,
          "durationTicks": 1536,
          "midi": 0,
          "name": "C-1",
          "ticks": 82944,
          "time": 68.210424,
          "velocity": 0.6692913385826772
        },
        {
          "duration": 1.263155999999995,
          "durationTicks": 1536,
          "midi": 0,
          "name": "C-1",
          "ticks": 84480,
          "time": 69.47358,
          "velocity": 0.6692913385826772
        },
        {
          "duration": 1.2631560000000093,
          "durationTicks": 1536,
          "midi": 0,
          "name": "C-1",
          "ticks": 86016,
          "time": 70.736736,
          "velocity": 0.84251968503937
        },
        {
          "duration": 1.263155999999995,
          "durationTicks": 1536,
          "midi": 0,
          "name": "C-1",
          "ticks": 89088,
          "time": 73.263048,
          "velocity": 0.6692913385826772
        },
        {
          "duration": 1.263155999999995,
          "durationTicks": 1536,
          "midi": 0,
          "name": "C-1",
          "ticks": 92160,
          "time": 75.78936,
          "velocity": 0.6692913385826772
        },
        {
          "duration": 1.2631560000000093,
          "durationTicks": 1536,
          "midi": 0,
          "name": "C-1",
          "ticks": 95232,
          "time": 78.31567199999999,
          "velocity": 0.6692913385826772
        },
        {
          "duration": 1.263155999999995,
          "durationTicks": 1536,
          "midi": 0,
          "name": "C-1",
          "ticks": 96768,
          "time": 79.578828,
          "velocity": 0.6692913385826772
        },
        {
          "duration": 1.263155999999995,
          "durationTicks": 1536,
          "midi": 0,
          "name": "C-1",
          "ticks": 98304,
          "time": 80.841984,
          "velocity": 0.84251968503937
        },
        {
          "duration": 1.263155999999995,
          "durationTicks": 1536,
          "midi": 0,
          "name": "C-1",
          "ticks": 101376,
          "time": 83.368296,
          "velocity": 0.6692913385826772
        },
        {
          "duration": 1.2631560000000093,
          "durationTicks": 1536,
          "midi": 0,
          "name": "C-1",
          "ticks": 104448,
          "time": 85.89460799999999,
          "velocity": 0.6692913385826772
        },
        {
          "duration": 1.263155999999995,
          "durationTicks": 1536,
          "midi": 0,
          "name": "C-1",
          "ticks": 107520,
          "time": 88.42092,
          "velocity": 0.6692913385826772
        },
        {
          "duration": 1.2631560000000093,
          "durationTicks": 1536,
          "midi": 0,
          "name": "C-1",
          "ticks": 109056,
          "time": 89.68407599999999,
          "velocity": 0.6692913385826772
        },
        {
          "duration": 1.263155999999995,
          "durationTicks": 1536,
          "midi": 0,
          "name": "C-1",
          "ticks": 110592,
          "time": 90.947232,
          "velocity": 0.84251968503937
        },
        {
          "duration": 1.2631560000000093,
          "durationTicks": 1536,
          "midi": 0,
          "name": "C-1",
          "ticks": 113664,
          "time": 93.47354399999999,
          "velocity": 0.6692913385826772
        },
        {
          "duration": 1.263155999999995,
          "durationTicks": 1536,
          "midi": 0,
          "name": "C-1",
          "ticks": 116736,
          "time": 95.999856,
          "velocity": 0.6692913385826772
        },
        {
          "duration": 1.263155999999995,
          "durationTicks": 1536,
          "midi": 0,
          "name": "C-1",
          "ticks": 119808,
          "time": 98.526168,
          "velocity": 0.6692913385826772
        },
        {
          "duration": 1.2631560000000093,
          "durationTicks": 1536,
          "midi": 0,
          "name": "C-1",
          "ticks": 121344,
          "time": 99.789324,
          "velocity": 0.6692913385826772
        },
        {
          "duration": 1.263155999999995,
          "durationTicks": 1536,
          "midi": 0,
          "name": "C-1",
          "ticks": 122880,
          "time": 101.05248,
          "velocity": 0.84251968503937
        },
        {
          "duration": 1.2631560000000093,
          "durationTicks": 1536,
          "midi": 0,
          "name": "C-1",
          "ticks": 125952,
          "time": 103.57879199999999,
          "velocity": 0.6692913385826772
        },
        {
          "duration": 1.263155999999995,
          "durationTicks": 1536,
          "midi": 0,
          "name": "C-1",
          "ticks": 129024,
          "time": 106.105104,
          "velocity": 0.6692913385826772
        },
        {
          "duration": 1.263155999999995,
          "durationTicks": 1536,
          "midi": 0,
          "name": "C-1",
          "ticks": 132096,
          "time": 108.631416,
          "velocity": 0.6692913385826772
        },
        {
          "duration": 1.263155999999995,
          "durationTicks": 1536,
          "midi": 0,
          "name": "C-1",
          "ticks": 133632,
          "time": 109.894572,
          "velocity": 0.6692913385826772
        }
      ],
      "endOfTrackTicks": 135168
    }
  ]
}
