{
  "header": {
    "keySignatures": [
      {
        "key": "Bb",
        "scale": "major",
        "ticks": 0
      }
    ],
    "meta": [],
    "name": "",
    "ppq": 480,
    "tempos": [
      {
        "bpm": 143.99988480009216,
        "ticks": 0
      }
    ],
    "timeSignatures": [
      {
        "ticks": 0,
        "timeSignature": [
          1,
          4
        ],
        "measures": 0
      },
      {
        "ticks": 480,
        "timeSignature": [
          4,
          4
        ],
        "measures": 1
      }
    ]
  },
  "tracks": [
    {
      "channel": 0,
      "controlChanges": {
        "7": [
          {
            "number": 7,
            "ticks": 2,
            "time": 0.0017361125000000001,
            "value": 0.7874015748031497
          }
        ],
        "10": [
          {
            "number": 10,
            "ticks": 4,
            "time": 0.0034722250000000002,
            "value": 0.5039370078740157
          }
        ],
        "91": [
          {
            "number": 91,
            "ticks": 6,
            "time": 0.0052083375,
            "value": 0.23622047244094488
          }
        ],
        "93": [
          {
            "number": 93,
            "ticks": 8,
            "time": 0.0069444500000000004,
            "value": 0.23622047244094488
          }
        ]
      },
      "pitchBends": [],
      "instrument": {
        "family": "pipe",
        "number": 73,
        "name": "flute"
      },
      "name": "",
      "notes": [
        {
          "duration": 0.41579894375000004,
          "durationTicks": 479,
          "midi": 82,
          "name": "A#5",
          "ticks": 0,
          "time": 0,
          "velocity": 0.6299212598425197
        },
        {
          "duration": 0.4157989437499999,
          "durationTicks": 479,
          "midi": 84,
          "name": "C6",
          "ticks": 480,
          "time": 0.416667,
          "velocity": 0.6299212598425197
        },
        {
          "duration": 0.41579894375000004,
          "durationTicks": 479,
          "midi": 82,
          "name": "A#5",
          "ticks": 960,
          "time": 0.833334,
          "velocity": 0.6299212598425197
        },
        {
          "duration": 0.20746544374999987,
          "durationTicks": 239,
          "midi": 82,
          "name": "A#5",
          "ticks": 1440,
          "time": 1.2500010000000001,
          "velocity": 0.6299212598425197
        },
        {
          "duration": 0.2074654437500001,
          "durationTicks": 239,
          "midi": 79,
          "name": "G5",
          "ticks": 1680,
          "time": 1.4583345,
          "velocity": 0.6299212598425197
        },
        {
          "duration": 0.41579894375000026,
          "durationTicks": 479,
          "midi": 84,
          "name": "C6",
          "ticks": 2160,
          "time": 1.8750015,
          "velocity": 0.6299212598425197
        },
        {
          "duration": 0.41579894375000004,
          "durationTicks": 479,
          "midi": 82,
          "name": "A#5",
          "ticks": 2640,
          "time": 2.2916685,
          "velocity": 0.6299212598425197
        },
        {
          "duration": 0.41579894375000004,
          "durationTicks": 479,
          "midi": 81,
          "name": "A5",
          "ticks": 3120,
          "time": 2.7083355,
          "velocity": 0.6299212598425197
        },
        {
          "duration": 0.41579894375000004,
          "durationTicks": 479,
          "midi": 79,
          "name": "G5",
          "ticks": 3600,
          "time": 3.1250025,
          "velocity": 0.6299212598425197
        },
        {
          "duration": 0.20746544374999987,
          "durationTicks": 239,
          "midi": 79,
          "name": "G5",
          "ticks": 4080,
          "time": 3.5416695000000002,
          "velocity": 0.6299212598425197
        },
        {
          "duration": 0.2074654437500003,
          "durationTicks": 239,
          "midi": 77,
          "name": "F5",
          "ticks": 4320,
          "time": 3.750003,
          "velocity": 0.6299212598425197
        },
        {
          "duration": 0.2074654437500003,
          "durationTicks": 239,
          "midi": 77,
          "name": "F5",
          "ticks": 5040,
          "time": 4.3750035,
          "velocity": 0.6299212598425197
        },
        {
          "duration": 0.4157989437499996,
          "durationTicks": 479,
          "midi": 75,
          "name": "D#5",
          "ticks": 5280,
          "time": 4.583337,
          "velocity": 0.6299212598425197
        },
        {
          "duration": 0.20746544374999942,
          "durationTicks": 239,
          "midi": 77,
          "name": "F5",
          "ticks": 5760,
          "time": 5.000004000000001,
          "velocity": 0.6299212598425197
        },
        {
          "duration": 1.04079944375,
          "durationTicks": 1199,
          "midi": 74,
          "name": "D5",
          "ticks": 6000,
          "time": 5.2083375,
          "velocity": 0.6299212598425197
        },
        {
          "duration": 0.20746544374999942,
          "durationTicks": 239,
          "midi": 74,
          "name": "D5",
          "ticks": 7920,
          "time": 6.8750055,
          "velocity": 0.6299212598425197
        },
        {
          "duration": 0.4157989437499987,
          "durationTicks": 479,
          "midi": 74,
          "name": "D5",
          "ticks": 8160,
          "time": 7.0833390000000005,
          "velocity": 0.6299212598425197
        },
        {
          "duration": 0.20746544374999942,
          "durationTicks": 239,
          "midi": 74,
          "name": "D5",
          "ticks": 8640,
          "time": 7.500006,
          "velocity": 0.6299212598425197
        },
        {
          "duration": 0.4157989437499987,
          "durationTicks": 479,
          "midi": 74,
          "name": "D5",
          "ticks": 8880,
          "time": 7.7083395,
          "velocity": 0.6299212598425197
        },
        {
          "duration": 0.20746544374999942,
          "durationTicks": 239,
          "midi": 84,
          "name": "C6",
          "ticks": 9360,
          "time": 8.1250065,
          "velocity": 0.6299212598425197
        },
        {
          "duration": 0.4157989437499996,
          "durationTicks": 479,
          "midi": 84,
          "name": "C6",
          "ticks": 9600,
          "time": 8.33334,
          "velocity": 0.6299212598425197
        },
        {
          "duration": 0.20746544374999942,
          "durationTicks": 239,
          "midi": 82,
          "name": "A#5",
          "ticks": 11760,
          "time": 10.2083415,
          "velocity": 0.6299212598425197
        },
        {
          "duration": 0.4157989437499996,
          "durationTicks": 479,
          "midi": 81,
          "name": "A5",
          "ticks": 12000,
          "time": 10.416675,
          "velocity": 0.6299212598425197
        },
        {
          "duration": 0.20746544374999942,
          "durationTicks": 239,
          "midi": 81,
          "name": "A5",
          "ticks": 12480,
          "time": 10.833342,
          "velocity": 0.6299212598425197
        },
        {
          "duration": 0.4157989437499996,
          "durationTicks": 479,
          "midi": 81,
          "name": "A5",
          "ticks": 12720,
          "time": 11.0416755,
          "velocity": 0.6299212598425197
        },
        {
          "duration": 0.4157989437499996,
          "durationTicks": 479,
          "midi": 82,
          "name": "A#5",
          "ticks": 13200,
          "time": 11.4583425,
          "velocity": 0.6299212598425197
        },
        {
          "duration": 0.4157989437499996,
          "durationTicks": 479,
          "midi": 82,
          "name": "A#5",
          "ticks": 13680,
          "time": 11.8750095,
          "velocity": 0.6299212598425197
        },
        {
          "duration": 0.2074654437500012,
          "durationTicks": 239,
          "midi": 82,
          "name": "A#5",
          "ticks": 15600,
          "time": 13.5416775,
          "velocity": 0.6299212598425197
        },
        {
          "duration": 0.4157989437499996,
          "durationTicks": 479,
          "midi": 84,
          "name": "C6",
          "ticks": 15840,
          "time": 13.750011,
          "velocity": 0.6299212598425197
        },
        {
          "duration": 0.4157989437499996,
          "durationTicks": 479,
          "midi": 82,
          "name": "A#5",
          "ticks": 16320,
          "time": 14.166678000000001,
          "velocity": 0.6299212598425197
        },
        {
          "duration": 0.2074654437500012,
          "durationTicks": 239,
          "midi": 81,
          "name": "A5",
          "ticks": 16800,
          "time": 14.583345,
          "velocity": 0.6299212598425197
        },
        {
          "duration": 0.2074654437500012,
          "durationTicks": 239,
          "midi": 79,
          "name": "G5",
          "ticks": 17040,
          "time": 14.7916785,
          "velocity": 0.6299212598425197
        },
        {
          "duration": 0.41579894375000137,
          "durationTicks": 479,
          "midi": 84,
          "name": "C6",
          "ticks": 17520,
          "time": 15.2083455,
          "velocity": 0.6299212598425197
        },
        {
          "duration": 0.41579894375000137,
          "durationTicks": 479,
          "midi": 82,
          "name": "A#5",
          "ticks": 18000,
          "time": 15.6250125,
          "velocity": 0.6299212598425197
        },
        {
          "duration": 0.41579894375000137,
          "durationTicks": 479,
          "midi": 81,
          "name": "A5",
          "ticks": 18480,
          "time": 16.0416795,
          "velocity": 0.6299212598425197
        },
        {
          "duration": 0.41579894375000137,
          "durationTicks": 479,
          "midi": 79,
          "name": "G5",
          "ticks": 18960,
          "time": 16.4583465,
          "velocity": 0.6299212598425197
        },
        {
          "duration": 0.20746544374999942,
          "durationTicks": 239,
          "midi": 79,
          "name": "G5",
          "ticks": 19440,
          "time": 16.8750135,
          "velocity": 0.6299212598425197
        },
        {
          "duration": 0.41579894375000137,
          "durationTicks": 479,
          "midi": 77,
          "name": "F5",
          "ticks": 19680,
          "time": 17.083347,
          "velocity": 0.6299212598425197
        },
        {
          "duration": 0.20746544374999942,
          "durationTicks": 239,
          "midi": 77,
          "name": "F5",
          "ticks": 20400,
          "time": 17.708347500000002,
          "velocity": 0.6299212598425197
        },
        {
          "duration": 0.41579894375000137,
          "durationTicks": 479,
          "midi": 75,
          "name": "D#5",
          "ticks": 20640,
          "time": 17.916681,
          "velocity": 0.6299212598425197
        },
        {
          "duration": 0.20746544374999942,
          "durationTicks": 239,
          "midi": 77,
          "name": "F5",
          "ticks": 21120,
          "time": 18.333348,
          "velocity": 0.6299212598425197
        },
        {
          "duration": 0.8324659437500017,
          "durationTicks": 959,
          "midi": 74,
          "name": "D5",
          "ticks": 21360,
          "time": 18.5416815,
          "velocity": 0.6299212598425197
        },
        {
          "duration": 0.20746544374999942,
          "durationTicks": 239,
          "midi": 74,
          "name": "D5",
          "ticks": 23280,
          "time": 20.2083495,
          "velocity": 0.6299212598425197
        },
        {
          "duration": 0.41579894375000137,
          "durationTicks": 479,
          "midi": 74,
          "name": "D5",
          "ticks": 23520,
          "time": 20.416683,
          "velocity": 0.6299212598425197
        },
        {
          "duration": 0.20746544375000298,
          "durationTicks": 239,
          "midi": 74,
          "name": "D5",
          "ticks": 24000,
          "time": 20.83335,
          "velocity": 0.6299212598425197
        },
        {
          "duration": 0.41579894375000137,
          "durationTicks": 479,
          "midi": 74,
          "name": "D5",
          "ticks": 24240,
          "time": 21.0416835,
          "velocity": 0.6299212598425197
        },
        {
          "duration": 0.20746544374999942,
          "durationTicks": 239,
          "midi": 84,
          "name": "C6",
          "ticks": 24720,
          "time": 21.4583505,
          "velocity": 0.6299212598425197
        },
        {
          "duration": 0.41579894375000137,
          "durationTicks": 479,
          "midi": 84,
          "name": "C6",
          "ticks": 24960,
          "time": 21.666684,
          "velocity": 0.6299212598425197
        },
        {
          "duration": 0.20746544375000298,
          "durationTicks": 239,
          "midi": 82,
          "name": "A#5",
          "ticks": 27120,
          "time": 23.5416855,
          "velocity": 0.6299212598425197
        },
        {
          "duration": 0.4157989437499978,
          "durationTicks": 479,
          "midi": 81,
          "name": "A5",
          "ticks": 27360,
          "time": 23.750019,
          "velocity": 0.6299212598425197
        },
        {
          "duration": 0.20746544374999942,
          "durationTicks": 239,
          "midi": 81,
          "name": "A5",
          "ticks": 27840,
          "time": 24.166686000000002,
          "velocity": 0.6299212598425197
        },
        {
          "duration": 0.41579894375000137,
          "durationTicks": 479,
          "midi": 81,
          "name": "A5",
          "ticks": 28080,
          "time": 24.3750195,
          "velocity": 0.6299212598425197
        },
        {
          "duration": 0.41579894375000137,
          "durationTicks": 479,
          "midi": 82,
          "name": "A#5",
          "ticks": 28560,
          "time": 24.7916865,
          "velocity": 0.6299212598425197
        },
        {
          "duration": 0.20746544374999942,
          "durationTicks": 239,
          "midi": 82,
          "name": "A#5",
          "ticks": 29040,
          "time": 25.2083535,
          "velocity": 0.6299212598425197
        },
        {
          "duration": 0.103298693750002,
          "durationTicks": 119,
          "midi": 74,
          "name": "D5",
          "ticks": 29280,
          "time": 25.416687,
          "velocity": 0.6299212598425197
        },
        {
          "duration": 0.103298693750002,
          "durationTicks": 119,
          "midi": 74,
          "name": "D5",
          "ticks": 29400,
          "time": 25.52085375,
          "velocity": 0.6299212598425197
        },
        {
          "duration": 0.103298693750002,
          "durationTicks": 119,
          "midi": 74,
          "name": "D5",
          "ticks": 29640,
          "time": 25.72918725,
          "velocity": 0.6299212598425197
        },
        {
          "duration": 0.103298693750002,
          "durationTicks": 119,
          "midi": 74,
          "name": "D5",
          "ticks": 29880,
          "time": 25.93752075,
          "velocity": 0.6299212598425197
        },
        {
          "duration": 0.10329869374999845,
          "durationTicks": 119,
          "midi": 74,
          "name": "D5",
          "ticks": 30000,
          "time": 26.041687500000002,
          "velocity": 0.6299212598425197
        },
        {
          "duration": 0.103298693750002,
          "durationTicks": 119,
          "midi": 74,
          "name": "D5",
          "ticks": 30240,
          "time": 26.250021,
          "velocity": 0.6299212598425197
        },
        {
          "duration": 0.10329869374999845,
          "durationTicks": 119,
          "midi": 74,
          "name": "D5",
          "ticks": 30360,
          "time": 26.35418775,
          "velocity": 0.6299212598425197
        },
        {
          "duration": 0.103298693750002,
          "durationTicks": 119,
          "midi": 74,
          "name": "D5",
          "ticks": 30600,
          "time": 26.56252125,
          "velocity": 0.6299212598425197
        },
        {
          "duration": 0.10329869374999845,
          "durationTicks": 119,
          "midi": 74,
          "name": "D5",
          "ticks": 30840,
          "time": 26.77085475,
          "velocity": 0.6299212598425197
        },
        {
          "duration": 0.103298693750002,
          "durationTicks": 119,
          "midi": 74,
          "name": "D5",
          "ticks": 30960,
          "time": 26.8750215,
          "velocity": 0.6299212598425197
        },
        {
          "duration": 0.103298693750002,
          "durationTicks": 119,
          "midi": 74,
          "name": "D5",
          "ticks": 31200,
          "time": 27.083355,
          "velocity": 0.6299212598425197
        },
        {
          "duration": 0.10329869374999845,
          "durationTicks": 119,
          "midi": 67,
          "name": "G4",
          "ticks": 31320,
          "time": 27.187521750000002,
          "velocity": 0.6299212598425197
        },
        {
          "duration": 0.103298693750002,
          "durationTicks": 119,
          "midi": 67,
          "name": "G4",
          "ticks": 31440,
          "time": 27.2916885,
          "velocity": 0.6299212598425197
        },
        {
          "duration": 0.103298693750002,
          "durationTicks": 119,
          "midi": 69,
          "name": "A4",
          "ticks": 31560,
          "time": 27.39585525,
          "velocity": 0.6299212598425197
        },
        {
          "duration": 0.10329869374999845,
          "durationTicks": 119,
          "midi": 67,
          "name": "G4",
          "ticks": 31680,
          "time": 27.500022,
          "velocity": 0.6299212598425197
        },
        {
          "duration": 0.10329869374999845,
          "durationTicks": 119,
          "midi": 67,
          "name": "G4",
          "ticks": 31800,
          "time": 27.604188750000002,
          "velocity": 0.6299212598425197
        },
        {
          "duration": 0.103298693750002,
          "durationTicks": 119,
          "midi": 70,
          "name": "A#4",
          "ticks": 31920,
          "time": 27.7083555,
          "velocity": 0.6299212598425197
        },
        {
          "duration": 0.103298693750002,
          "durationTicks": 119,
          "midi": 69,
          "name": "A4",
          "ticks": 32040,
          "time": 27.81252225,
          "velocity": 0.6299212598425197
        },
        {
          "duration": 0.10329869374999845,
          "durationTicks": 119,
          "midi": 74,
          "name": "D5",
          "ticks": 32160,
          "time": 27.916689,
          "velocity": 0.6299212598425197
        },
        {
          "duration": 0.103298693750002,
          "durationTicks": 119,
          "midi": 67,
          "name": "G4",
          "ticks": 32280,
          "time": 28.02085575,
          "velocity": 0.6299212598425197
        },
        {
          "duration": 0.103298693750002,
          "durationTicks": 119,
          "midi": 67,
          "name": "G4",
          "ticks": 32400,
          "time": 28.1250225,
          "velocity": 0.6299212598425197
        },
        {
          "duration": 0.103298693750002,
          "durationTicks": 119,
          "midi": 69,
          "name": "A4",
          "ticks": 32520,
          "time": 28.22918925,
          "velocity": 0.6299212598425197
        },
        {
          "duration": 0.10329869374999845,
          "durationTicks": 119,
          "midi": 67,
          "name": "G4",
          "ticks": 32640,
          "time": 28.333356000000002,
          "velocity": 0.6299212598425197
        },
        {
          "duration": 0.103298693750002,
          "durationTicks": 119,
          "midi": 67,
          "name": "G4",
          "ticks": 32760,
          "time": 28.43752275,
          "velocity": 0.6299212598425197
        },
        {
          "duration": 0.103298693750002,
          "durationTicks": 119,
          "midi": 69,
          "name": "A4",
          "ticks": 32880,
          "time": 28.5416895,
          "velocity": 0.6299212598425197
        },
        {
          "duration": 0.10329869374999845,
          "durationTicks": 119,
          "midi": 67,
          "name": "G4",
          "ticks": 33000,
          "time": 28.64585625,
          "velocity": 0.6299212598425197
        },
        {
          "duration": 0.10329869374999845,
          "durationTicks": 119,
          "midi": 74,
          "name": "D5",
          "ticks": 33120,
          "time": 28.750023000000002,
          "velocity": 0.6299212598425197
        },
        {
          "duration": 0.103298693750002,
          "durationTicks": 119,
          "midi": 74,
          "name": "D5",
          "ticks": 33240,
          "time": 28.85418975,
          "velocity": 0.6299212598425197
        },
        {
          "duration": 0.10329869374999845,
          "durationTicks": 119,
          "midi": 74,
          "name": "D5",
          "ticks": 33480,
          "time": 29.06252325,
          "velocity": 0.6299212598425197
        },
        {
          "duration": 0.103298693750002,
          "durationTicks": 119,
          "midi": 74,
          "name": "D5",
          "ticks": 33720,
          "time": 29.27085675,
          "velocity": 0.6299212598425197
        },
        {
          "duration": 0.103298693750002,
          "durationTicks": 119,
          "midi": 74,
          "name": "D5",
          "ticks": 33840,
          "time": 29.3750235,
          "velocity": 0.6299212598425197
        },
        {
          "duration": 0.103298693750002,
          "durationTicks": 119,
          "midi": 74,
          "name": "D5",
          "ticks": 34080,
          "time": 29.583357,
          "velocity": 0.6299212598425197
        },
        {
          "duration": 0.103298693750002,
          "durationTicks": 119,
          "midi": 74,
          "name": "D5",
          "ticks": 34200,
          "time": 29.68752375,
          "velocity": 0.6299212598425197
        },
        {
          "duration": 0.10329869374999845,
          "durationTicks": 119,
          "midi": 74,
          "name": "D5",
          "ticks": 34440,
          "time": 29.895857250000002,
          "velocity": 0.6299212598425197
        },
        {
          "duration": 0.103298693750002,
          "durationTicks": 119,
          "midi": 74,
          "name": "D5",
          "ticks": 34680,
          "time": 30.10419075,
          "velocity": 0.6299212598425197
        },
        {
          "duration": 0.10329869374999845,
          "durationTicks": 119,
          "midi": 74,
          "name": "D5",
          "ticks": 34800,
          "time": 30.2083575,
          "velocity": 0.6299212598425197
        },
        {
          "duration": 0.103298693750002,
          "durationTicks": 119,
          "midi": 74,
          "name": "D5",
          "ticks": 35040,
          "time": 30.416691,
          "velocity": 0.6299212598425197
        },
        {
          "duration": 0.103298693750002,
          "durationTicks": 119,
          "midi": 82,
          "name": "A#5",
          "ticks": 35160,
          "time": 30.52085775,
          "velocity": 0.6299212598425197
        },
        {
          "duration": 0.103298693750002,
          "durationTicks": 119,
          "midi": 74,
          "name": "D5",
          "ticks": 35400,
          "time": 30.72919125,
          "velocity": 0.6299212598425197
        },
        {
          "duration": 0.20746544374999942,
          "durationTicks": 239,
          "midi": 79,
          "name": "G5",
          "ticks": 35520,
          "time": 30.833358,
          "velocity": 0.6299212598425197
        },
        {
          "duration": 0.10329869374999845,
          "durationTicks": 119,
          "midi": 70,
          "name": "A#4",
          "ticks": 35760,
          "time": 31.041691500000002,
          "velocity": 0.6299212598425197
        },
        {
          "duration": 0.103298693750002,
          "durationTicks": 119,
          "midi": 70,
          "name": "A#4",
          "ticks": 35880,
          "time": 31.14585825,
          "velocity": 0.6299212598425197
        },
        {
          "duration": 0.103298693750002,
          "durationTicks": 119,
          "midi": 72,
          "name": "C5",
          "ticks": 36000,
          "time": 31.250025,
          "velocity": 0.6299212598425197
        },
        {
          "duration": 0.10329869374999845,
          "durationTicks": 119,
          "midi": 70,
          "name": "A#4",
          "ticks": 36120,
          "time": 31.354191750000002,
          "velocity": 0.6299212598425197
        },
        {
          "duration": 0.103298693750002,
          "durationTicks": 119,
          "midi": 79,
          "name": "G5",
          "ticks": 36240,
          "time": 31.4583585,
          "velocity": 0.6299212598425197
        },
        {
          "duration": 0.103298693750002,
          "durationTicks": 119,
          "midi": 70,
          "name": "A#4",
          "ticks": 36360,
          "time": 31.56252525,
          "velocity": 0.6299212598425197
        },
        {
          "duration": 0.103298693750002,
          "durationTicks": 119,
          "midi": 70,
          "name": "A#4",
          "ticks": 36480,
          "time": 31.666692,
          "velocity": 0.6299212598425197
        },
        {
          "duration": 0.10329869374999845,
          "durationTicks": 119,
          "midi": 77,
          "name": "F5",
          "ticks": 36600,
          "time": 31.770858750000002,
          "velocity": 0.6299212598425197
        },
        {
          "duration": 0.20746544375000298,
          "durationTicks": 239,
          "midi": 70,
          "name": "A#4",
          "ticks": 36720,
          "time": 31.8750255,
          "velocity": 0.6299212598425197
        },
        {
          "duration": 0.10329869374999845,
          "durationTicks": 119,
          "midi": 70,
          "name": "A#4",
          "ticks": 36960,
          "time": 32.083359,
          "velocity": 0.6299212598425197
        },
        {
          "duration": 0.10329869375000555,
          "durationTicks": 119,
          "midi": 82,
          "name": "A#5",
          "ticks": 37080,
          "time": 32.18752575,
          "velocity": 0.6299212598425197
        },
        {
          "duration": 0.10329869374999845,
          "durationTicks": 119,
          "midi": 74,
          "name": "D5",
          "ticks": 37320,
          "time": 32.39585925,
          "velocity": 0.6299212598425197
        },
        {
          "duration": 0.20746544375000298,
          "durationTicks": 239,
          "midi": 79,
          "name": "G5",
          "ticks": 37440,
          "time": 32.500026,
          "velocity": 0.6299212598425197
        },
        {
          "duration": 0.10329869374999845,
          "durationTicks": 119,
          "midi": 70,
          "name": "A#4",
          "ticks": 37680,
          "time": 32.7083595,
          "velocity": 0.6299212598425197
        },
        {
          "duration": 0.10329869375000555,
          "durationTicks": 119,
          "midi": 70,
          "name": "A#4",
          "ticks": 37800,
          "time": 32.81252625,
          "velocity": 0.6299212598425197
        },
        {
          "duration": 0.10329869374999845,
          "durationTicks": 119,
          "midi": 72,
          "name": "C5",
          "ticks": 37920,
          "time": 32.916693,
          "velocity": 0.6299212598425197
        },
        {
          "duration": 0.10329869374999845,
          "durationTicks": 119,
          "midi": 70,
          "name": "A#4",
          "ticks": 38040,
          "time": 33.02085975,
          "velocity": 0.6299212598425197
        },
        {
          "duration": 0.10329869374999845,
          "durationTicks": 119,
          "midi": 79,
          "name": "G5",
          "ticks": 38160,
          "time": 33.125026500000004,
          "velocity": 0.6299212598425197
        },
        {
          "duration": 0.10329869374999845,
          "durationTicks": 119,
          "midi": 70,
          "name": "A#4",
          "ticks": 38280,
          "time": 33.22919325,
          "velocity": 0.6299212598425197
        },
        {
          "duration": 0.10329869375000555,
          "durationTicks": 119,
          "midi": 70,
          "name": "A#4",
          "ticks": 38400,
          "time": 33.33336,
          "velocity": 0.6299212598425197
        },
        {
          "duration": 0.10329869374999845,
          "durationTicks": 119,
          "midi": 79,
          "name": "G5",
          "ticks": 38520,
          "time": 33.43752675,
          "velocity": 0.6299212598425197
        },
        {
          "duration": 0.20746544375000298,
          "durationTicks": 239,
          "midi": 70,
          "name": "A#4",
          "ticks": 38640,
          "time": 33.5416935,
          "velocity": 0.6299212598425197
        },
        {
          "duration": 0.10329869374999845,
          "durationTicks": 119,
          "midi": 70,
          "name": "A#4",
          "ticks": 38880,
          "time": 33.750027,
          "velocity": 0.6299212598425197
        },
        {
          "duration": 0.10329869374999845,
          "durationTicks": 119,
          "midi": 82,
          "name": "A#5",
          "ticks": 39000,
          "time": 33.85419375,
          "velocity": 0.6299212598425197
        },
        {
          "duration": 0.10329869374999845,
          "durationTicks": 119,
          "midi": 74,
          "name": "D5",
          "ticks": 39240,
          "time": 34.06252725,
          "velocity": 0.6299212598425197
        },
        {
          "duration": 0.20746544375000298,
          "durationTicks": 239,
          "midi": 79,
          "name": "G5",
          "ticks": 39360,
          "time": 34.166694,
          "velocity": 0.6299212598425197
        },
        {
          "duration": 0.10329869374999845,
          "durationTicks": 119,
          "midi": 70,
          "name": "A#4",
          "ticks": 39600,
          "time": 34.3750275,
          "velocity": 0.6299212598425197
        },
        {
          "duration": 0.10329869375000555,
          "durationTicks": 119,
          "midi": 70,
          "name": "A#4",
          "ticks": 39720,
          "time": 34.47919425,
          "velocity": 0.6299212598425197
        },
        {
          "duration": 0.10329869374999845,
          "durationTicks": 119,
          "midi": 72,
          "name": "C5",
          "ticks": 39840,
          "time": 34.583361000000004,
          "velocity": 0.6299212598425197
        },
        {
          "duration": 0.10329869374999845,
          "durationTicks": 119,
          "midi": 70,
          "name": "A#4",
          "ticks": 39960,
          "time": 34.68752775,
          "velocity": 0.6299212598425197
        },
        {
          "duration": 0.10329869375000555,
          "durationTicks": 119,
          "midi": 79,
          "name": "G5",
          "ticks": 40080,
          "time": 34.7916945,
          "velocity": 0.6299212598425197
        },
        {
          "duration": 0.10329869374999845,
          "durationTicks": 119,
          "midi": 70,
          "name": "A#4",
          "ticks": 40200,
          "time": 34.89586125,
          "velocity": 0.6299212598425197
        },
        {
          "duration": 0.10329869374999845,
          "durationTicks": 119,
          "midi": 70,
          "name": "A#4",
          "ticks": 40320,
          "time": 35.000028,
          "velocity": 0.6299212598425197
        },
        {
          "duration": 0.10329869375000555,
          "durationTicks": 119,
          "midi": 79,
          "name": "G5",
          "ticks": 40440,
          "time": 35.10419475,
          "velocity": 0.6299212598425197
        },
        {
          "duration": 0.20746544374999587,
          "durationTicks": 239,
          "midi": 70,
          "name": "A#4",
          "ticks": 40560,
          "time": 35.2083615,
          "velocity": 0.6299212598425197
        },
        {
          "duration": 0.10329869374999845,
          "durationTicks": 119,
          "midi": 70,
          "name": "A#4",
          "ticks": 40800,
          "time": 35.416695000000004,
          "velocity": 0.6299212598425197
        },
        {
          "duration": 0.10329869374999845,
          "durationTicks": 119,
          "midi": 82,
          "name": "A#5",
          "ticks": 40920,
          "time": 35.52086175,
          "velocity": 0.6299212598425197
        },
        {
          "duration": 0.10329869374999845,
          "durationTicks": 119,
          "midi": 74,
          "name": "D5",
          "ticks": 41160,
          "time": 35.729195250000004,
          "velocity": 0.6299212598425197
        },
        {
          "duration": 0.20746544375000298,
          "durationTicks": 239,
          "midi": 79,
          "name": "G5",
          "ticks": 41280,
          "time": 35.833362,
          "velocity": 0.6299212598425197
        },
        {
          "duration": 0.10329869374999845,
          "durationTicks": 119,
          "midi": 70,
          "name": "A#4",
          "ticks": 41520,
          "time": 36.0416955,
          "velocity": 0.6299212598425197
        },
        {
          "duration": 0.10329869374999845,
          "durationTicks": 119,
          "midi": 70,
          "name": "A#4",
          "ticks": 41640,
          "time": 36.14586225,
          "velocity": 0.6299212598425197
        },
        {
          "duration": 0.10329869375000555,
          "durationTicks": 119,
          "midi": 72,
          "name": "C5",
          "ticks": 41760,
          "time": 36.250029,
          "velocity": 0.6299212598425197
        },
        {
          "duration": 0.10329869374999845,
          "durationTicks": 119,
          "midi": 70,
          "name": "A#4",
          "ticks": 41880,
          "time": 36.35419575,
          "velocity": 0.6299212598425197
        },
        {
          "duration": 0.10329869374999845,
          "durationTicks": 119,
          "midi": 79,
          "name": "G5",
          "ticks": 42000,
          "time": 36.4583625,
          "velocity": 0.6299212598425197
        },
        {
          "duration": 0.10329869374999845,
          "durationTicks": 119,
          "midi": 70,
          "name": "A#4",
          "ticks": 42120,
          "time": 36.562529250000004,
          "velocity": 0.6299212598425197
        },
        {
          "duration": 0.10329869374999845,
          "durationTicks": 119,
          "midi": 70,
          "name": "A#4",
          "ticks": 42240,
          "time": 36.666696,
          "velocity": 0.6299212598425197
        },
        {
          "duration": 0.10329869375000555,
          "durationTicks": 119,
          "midi": 79,
          "name": "G5",
          "ticks": 42360,
          "time": 36.77086275,
          "velocity": 0.6299212598425197
        },
        {
          "duration": 0.20746544374999587,
          "durationTicks": 239,
          "midi": 70,
          "name": "A#4",
          "ticks": 42480,
          "time": 36.875029500000004,
          "velocity": 0.6299212598425197
        },
        {
          "duration": 0.10329869375000555,
          "durationTicks": 119,
          "midi": 77,
          "name": "F5",
          "ticks": 42720,
          "time": 37.083363,
          "velocity": 0.6299212598425197
        },
        {
          "duration": 0.10329869374999845,
          "durationTicks": 119,
          "midi": 79,
          "name": "G5",
          "ticks": 42840,
          "time": 37.18752975,
          "velocity": 0.6299212598425197
        },
        {
          "duration": 0.10329869375000555,
          "durationTicks": 119,
          "midi": 75,
          "name": "D#5",
          "ticks": 43080,
          "time": 37.39586325,
          "velocity": 0.6299212598425197
        },
        {
          "duration": 0.10329869374999845,
          "durationTicks": 119,
          "midi": 81,
          "name": "A5",
          "ticks": 43440,
          "time": 37.708363500000004,
          "velocity": 0.6299212598425197
        },
        {
          "duration": 0.10329869375000555,
          "durationTicks": 119,
          "midi": 77,
          "name": "F5",
          "ticks": 43680,
          "time": 37.916697,
          "velocity": 0.6299212598425197
        },
        {
          "duration": 0.10329869374999845,
          "durationTicks": 119,
          "midi": 79,
          "name": "G5",
          "ticks": 43800,
          "time": 38.020863750000004,
          "velocity": 0.6299212598425197
        },
        {
          "duration": 0.10329869375000555,
          "durationTicks": 119,
          "midi": 75,
          "name": "D#5",
          "ticks": 44040,
          "time": 38.22919725,
          "velocity": 0.6299212598425197
        },
        {
          "duration": 0.20746544375000298,
          "durationTicks": 239,
          "midi": 81,
          "name": "A5",
          "ticks": 44400,
          "time": 38.5416975,
          "velocity": 0.6299212598425197
        },
        {
          "duration": 0.3116321937500004,
          "durationTicks": 359,
          "midi": 82,
          "name": "A#5",
          "ticks": 44640,
          "time": 38.750031,
          "velocity": 0.6299212598425197
        },
        {
          "duration": 0.3116321937500004,
          "durationTicks": 359,
          "midi": 82,
          "name": "A#5",
          "ticks": 45000,
          "time": 39.06253125,
          "velocity": 0.6299212598425197
        },
        {
          "duration": 0.20746544375000298,
          "durationTicks": 239,
          "midi": 82,
          "name": "A#5",
          "ticks": 45360,
          "time": 39.3750315,
          "velocity": 0.6299212598425197
        },
        {
          "duration": 0.20746544374999587,
          "durationTicks": 239,
          "midi": 82,
          "name": "A#5",
          "ticks": 46080,
          "time": 40.000032000000004,
          "velocity": 0.6299212598425197
        },
        {
          "duration": 0.20746544375000298,
          "durationTicks": 239,
          "midi": 86,
          "name": "D6",
          "ticks": 46320,
          "time": 40.2083655,
          "velocity": 0.6299212598425197
        },
        {
          "duration": 0.3116321937500004,
          "durationTicks": 359,
          "midi": 86,
          "name": "D6",
          "ticks": 46560,
          "time": 40.416699,
          "velocity": 0.6299212598425197
        },
        {
          "duration": 0.3116321937500004,
          "durationTicks": 359,
          "midi": 84,
          "name": "C6",
          "ticks": 46920,
          "time": 40.72919925,
          "velocity": 0.6299212598425197
        },
        {
          "duration": 0.20746544375000298,
          "durationTicks": 239,
          "midi": 84,
          "name": "C6",
          "ticks": 47280,
          "time": 41.0416995,
          "velocity": 0.6299212598425197
        },
        {
          "duration": 0.20746544375000298,
          "durationTicks": 239,
          "midi": 82,
          "name": "A#5",
          "ticks": 48240,
          "time": 41.8750335,
          "velocity": 0.6299212598425197
        },
        {
          "duration": 0.3116321937500004,
          "durationTicks": 359,
          "midi": 84,
          "name": "C6",
          "ticks": 48480,
          "time": 42.083367,
          "velocity": 0.6299212598425197
        },
        {
          "duration": 0.3116321937500004,
          "durationTicks": 359,
          "midi": 82,
          "name": "A#5",
          "ticks": 48840,
          "time": 42.39586725,
          "velocity": 0.6299212598425197
        },
        {
          "duration": 0.4157989437499978,
          "durationTicks": 479,
          "midi": 81,
          "name": "A5",
          "ticks": 49200,
          "time": 42.7083675,
          "velocity": 0.6299212598425197
        },
        {
          "duration": 0.4157989437500049,
          "durationTicks": 479,
          "midi": 77,
          "name": "F5",
          "ticks": 49680,
          "time": 43.1250345,
          "velocity": 0.6299212598425197
        },
        {
          "duration": 0.20746544375000298,
          "durationTicks": 239,
          "midi": 74,
          "name": "D5",
          "ticks": 50160,
          "time": 43.5417015,
          "velocity": 0.6299212598425197
        },
        {
          "duration": 0.20746544374999587,
          "durationTicks": 239,
          "midi": 81,
          "name": "A5",
          "ticks": 52080,
          "time": 45.2083695,
          "velocity": 0.6299212598425197
        },
        {
          "duration": 0.20746544375000298,
          "durationTicks": 239,
          "midi": 82,
          "name": "A#5",
          "ticks": 52320,
          "time": 45.416703,
          "velocity": 0.6299212598425197
        },
        {
          "duration": 0.10329869374999845,
          "durationTicks": 119,
          "midi": 82,
          "name": "A#5",
          "ticks": 52560,
          "time": 45.6250365,
          "velocity": 0.6299212598425197
        },
        {
          "duration": 0.4157989437500049,
          "durationTicks": 479,
          "midi": 82,
          "name": "A#5",
          "ticks": 52680,
          "time": 45.72920325,
          "velocity": 0.6299212598425197
        },
        {
          "duration": 0.20746544375000298,
          "durationTicks": 239,
          "midi": 82,
          "name": "A#5",
          "ticks": 53520,
          "time": 46.4583705,
          "velocity": 0.6299212598425197
        },
        {
          "duration": 0.20746544375000298,
          "durationTicks": 239,
          "midi": 86,
          "name": "D6",
          "ticks": 54000,
          "time": 46.8750375,
          "velocity": 0.6299212598425197
        },
        {
          "duration": 0.3116321937500004,
          "durationTicks": 359,
          "midi": 86,
          "name": "D6",
          "ticks": 54240,
          "time": 47.083371,
          "velocity": 0.6299212598425197
        },
        {
          "duration": 0.3116321937500004,
          "durationTicks": 359,
          "midi": 84,
          "name": "C6",
          "ticks": 54600,
          "time": 47.39587125,
          "velocity": 0.6299212598425197
        },
        {
          "duration": 0.4157989437500049,
          "durationTicks": 479,
          "midi": 84,
          "name": "C6",
          "ticks": 54960,
          "time": 47.7083715,
          "velocity": 0.6299212598425197
        },
        {
          "duration": 0.20746544375000298,
          "durationTicks": 239,
          "midi": 82,
          "name": "A#5",
          "ticks": 55440,
          "time": 48.1250385,
          "velocity": 0.6299212598425197
        },
        {
          "duration": 0.4157989437499978,
          "durationTicks": 479,
          "midi": 86,
          "name": "D6",
          "ticks": 56160,
          "time": 48.750039,
          "velocity": 0.6299212598425197
        },
        {
          "duration": 0.20746544375000298,
          "durationTicks": 239,
          "midi": 84,
          "name": "C6",
          "ticks": 56640,
          "time": 49.166706,
          "velocity": 0.6299212598425197
        },
        {
          "duration": 0.6241324437499998,
          "durationTicks": 719,
          "midi": 84,
          "name": "C6",
          "ticks": 56880,
          "time": 49.3750395,
          "velocity": 0.6299212598425197
        },
        {
          "duration": 0.20746544375000298,
          "durationTicks": 239,
          "midi": 81,
          "name": "A5",
          "ticks": 57600,
          "time": 50.00004,
          "velocity": 0.6299212598425197
        },
        {
          "duration": 0.20746544375000298,
          "durationTicks": 239,
          "midi": 82,
          "name": "A#5",
          "ticks": 57840,
          "time": 50.2083735,
          "velocity": 0.6299212598425197
        },
        {
          "duration": 0.20746544375000298,
          "durationTicks": 239,
          "midi": 89,
          "name": "F6",
          "ticks": 59760,
          "time": 51.8750415,
          "velocity": 0.6299212598425197
        },
        {
          "duration": 0.20746544374999587,
          "durationTicks": 239,
          "midi": 89,
          "name": "F6",
          "ticks": 60000,
          "time": 52.083375000000004,
          "velocity": 0.6299212598425197
        },
        {
          "duration": 0.10329869375000555,
          "durationTicks": 119,
          "midi": 86,
          "name": "D6",
          "ticks": 60240,
          "time": 52.2917085,
          "velocity": 0.6299212598425197
        },
        {
          "duration": 0.10329869374999845,
          "durationTicks": 119,
          "midi": 86,
          "name": "D6",
          "ticks": 60360,
          "time": 52.39587525,
          "velocity": 0.6299212598425197
        },
        {
          "duration": 0.20746544375000298,
          "durationTicks": 239,
          "midi": 86,
          "name": "D6",
          "ticks": 60720,
          "time": 52.7083755,
          "velocity": 0.6299212598425197
        },
        {
          "duration": 0.20746544374999587,
          "durationTicks": 239,
          "midi": 84,
          "name": "C6",
          "ticks": 60960,
          "time": 52.916709000000004,
          "velocity": 0.6299212598425197
        },
        {
          "duration": 0.10329869375000555,
          "durationTicks": 119,
          "midi": 86,
          "name": "D6",
          "ticks": 61200,
          "time": 53.1250425,
          "velocity": 0.6299212598425197
        },
        {
          "duration": 0.10329869374999845,
          "durationTicks": 119,
          "midi": 86,
          "name": "D6",
          "ticks": 61320,
          "time": 53.229209250000004,
          "velocity": 0.6299212598425197
        },
        {
          "duration": 0.20746544374999587,
          "durationTicks": 239,
          "midi": 89,
          "name": "F6",
          "ticks": 61680,
          "time": 53.5417095,
          "velocity": 0.6299212598425197
        },
        {
          "duration": 0.20746544375000298,
          "durationTicks": 239,
          "midi": 89,
          "name": "F6",
          "ticks": 61920,
          "time": 53.750043,
          "velocity": 0.6299212598425197
        },
        {
          "duration": 0.10329869375000555,
          "durationTicks": 119,
          "midi": 86,
          "name": "D6",
          "ticks": 62160,
          "time": 53.9583765,
          "velocity": 0.6299212598425197
        },
        {
          "duration": 0.10329869374999845,
          "durationTicks": 119,
          "midi": 86,
          "name": "D6",
          "ticks": 62280,
          "time": 54.062543250000004,
          "velocity": 0.6299212598425197
        },
        {
          "duration": 0.20746544374999587,
          "durationTicks": 239,
          "midi": 86,
          "name": "D6",
          "ticks": 62640,
          "time": 54.375043500000004,
          "velocity": 0.6299212598425197
        },
        {
          "duration": 0.20746544375000298,
          "durationTicks": 239,
          "midi": 84,
          "name": "C6",
          "ticks": 62880,
          "time": 54.583377,
          "velocity": 0.6299212598425197
        },
        {
          "duration": 0.10329869374999845,
          "durationTicks": 119,
          "midi": 86,
          "name": "D6",
          "ticks": 63120,
          "time": 54.7917105,
          "velocity": 0.6299212598425197
        },
        {
          "duration": 0.10329869375000555,
          "durationTicks": 119,
          "midi": 86,
          "name": "D6",
          "ticks": 63240,
          "time": 54.89587725,
          "velocity": 0.6299212598425197
        },
        {
          "duration": 0.20746544374999587,
          "durationTicks": 239,
          "midi": 89,
          "name": "F6",
          "ticks": 63600,
          "time": 55.208377500000005,
          "velocity": 0.6299212598425197
        },
        {
          "duration": 0.20746544375000298,
          "durationTicks": 239,
          "midi": 89,
          "name": "F6",
          "ticks": 63840,
          "time": 55.416711,
          "velocity": 0.6299212598425197
        },
        {
          "duration": 0.10329869374999845,
          "durationTicks": 119,
          "midi": 86,
          "name": "D6",
          "ticks": 64080,
          "time": 55.6250445,
          "velocity": 0.6299212598425197
        },
        {
          "duration": 0.10329869375000555,
          "durationTicks": 119,
          "midi": 86,
          "name": "D6",
          "ticks": 64200,
          "time": 55.72921125,
          "velocity": 0.6299212598425197
        },
        {
          "duration": 0.20746544375000298,
          "durationTicks": 239,
          "midi": 86,
          "name": "D6",
          "ticks": 64560,
          "time": 56.0417115,
          "velocity": 0.6299212598425197
        },
        {
          "duration": 0.3116321937500004,
          "durationTicks": 359,
          "midi": 84,
          "name": "C6",
          "ticks": 64800,
          "time": 56.250045,
          "velocity": 0.6299212598425197
        },
        {
          "duration": 0.3116321937500004,
          "durationTicks": 359,
          "midi": 84,
          "name": "C6",
          "ticks": 65160,
          "time": 56.56254525,
          "velocity": 0.6299212598425197
        },
        {
          "duration": 0.20746544375000298,
          "durationTicks": 239,
          "midi": 84,
          "name": "C6",
          "ticks": 65520,
          "time": 56.8750455,
          "velocity": 0.6299212598425197
        },
        {
          "duration": 0.6241324437499998,
          "durationTicks": 719,
          "midi": 86,
          "name": "D6",
          "ticks": 65760,
          "time": 57.083379,
          "velocity": 0.6299212598425197
        },
        {
          "duration": 0.20746544375000298,
          "durationTicks": 239,
          "midi": 86,
          "name": "D6",
          "ticks": 66480,
          "time": 57.7083795,
          "velocity": 0.6299212598425197
        },
        {
          "duration": 0.3116321937500004,
          "durationTicks": 359,
          "midi": 86,
          "name": "D6",
          "ticks": 66720,
          "time": 57.916713,
          "velocity": 0.6299212598425197
        },
        {
          "duration": 0.3116321937500004,
          "durationTicks": 359,
          "midi": 84,
          "name": "C6",
          "ticks": 67080,
          "time": 58.22921325,
          "velocity": 0.6299212598425197
        },
        {
          "duration": 0.20746544375000298,
          "durationTicks": 239,
          "midi": 84,
          "name": "C6",
          "ticks": 67440,
          "time": 58.5417135,
          "velocity": 0.6299212598425197
        },
        {
          "duration": 0.3116321937500004,
          "durationTicks": 359,
          "midi": 86,
          "name": "D6",
          "ticks": 67680,
          "time": 58.750047,
          "velocity": 0.6299212598425197
        },
        {
          "duration": 0.3116321937500004,
          "durationTicks": 359,
          "midi": 84,
          "name": "C6",
          "ticks": 68040,
          "time": 59.06254725,
          "velocity": 0.6299212598425197
        },
        {
          "duration": 0.20746544375000298,
          "durationTicks": 239,
          "midi": 84,
          "name": "C6",
          "ticks": 68400,
          "time": 59.3750475,
          "velocity": 0.6299212598425197
        },
        {
          "duration": 0.3116321937500004,
          "durationTicks": 359,
          "midi": 84,
          "name": "C6",
          "ticks": 68640,
          "time": 59.583381,
          "velocity": 0.6299212598425197
        },
        {
          "duration": 0.3116321937500004,
          "durationTicks": 359,
          "midi": 82,
          "name": "A#5",
          "ticks": 69000,
          "time": 59.89588125,
          "velocity": 0.6299212598425197
        },
        {
          "duration": 0.20746544375000298,
          "durationTicks": 239,
          "midi": 82,
          "name": "A#5",
          "ticks": 69360,
          "time": 60.2083815,
          "velocity": 0.6299212598425197
        },
        {
          "duration": 0.3116321937500004,
          "durationTicks": 359,
          "midi": 81,
          "name": "A5",
          "ticks": 69600,
          "time": 60.416715,
          "velocity": 0.6299212598425197
        },
        {
          "duration": 0.3116321937500004,
          "durationTicks": 359,
          "midi": 82,
          "name": "A#5",
          "ticks": 69960,
          "time": 60.72921525,
          "velocity": 0.6299212598425197
        },
        {
          "duration": 0.4157989437499978,
          "durationTicks": 479,
          "midi": 81,
          "name": "A5",
          "ticks": 70320,
          "time": 61.0417155,
          "velocity": 0.6299212598425197
        },
        {
          "duration": 0.4157989437500049,
          "durationTicks": 479,
          "midi": 77,
          "name": "F5",
          "ticks": 70800,
          "time": 61.4583825,
          "velocity": 0.6299212598425197
        },
        {
          "duration": 0.20746544374999587,
          "durationTicks": 239,
          "midi": 77,
          "name": "F5",
          "ticks": 71280,
          "time": 61.8750495,
          "velocity": 0.6299212598425197
        },
        {
          "duration": 0.3116321937500004,
          "durationTicks": 359,
          "midi": 86,
          "name": "D6",
          "ticks": 71520,
          "time": 62.083383000000005,
          "velocity": 0.6299212598425197
        },
        {
          "duration": 0.3116321937500004,
          "durationTicks": 359,
          "midi": 84,
          "name": "C6",
          "ticks": 71880,
          "time": 62.395883250000004,
          "velocity": 0.6299212598425197
        },
        {
          "duration": 0.20746544374999587,
          "durationTicks": 239,
          "midi": 84,
          "name": "C6",
          "ticks": 72240,
          "time": 62.708383500000004,
          "velocity": 0.6299212598425197
        },
        {
          "duration": 0.3116321937500004,
          "durationTicks": 359,
          "midi": 84,
          "name": "C6",
          "ticks": 72480,
          "time": 62.916717,
          "velocity": 0.6299212598425197
        },
        {
          "duration": 0.3116321937500004,
          "durationTicks": 359,
          "midi": 82,
          "name": "A#5",
          "ticks": 72840,
          "time": 63.229217250000005,
          "velocity": 0.6299212598425197
        },
        {
          "duration": 0.20746544374999587,
          "durationTicks": 239,
          "midi": 82,
          "name": "A#5",
          "ticks": 73200,
          "time": 63.541717500000004,
          "velocity": 0.6299212598425197
        },
        {
          "duration": 0.3116321937500004,
          "durationTicks": 359,
          "midi": 81,
          "name": "A5",
          "ticks": 73440,
          "time": 63.750051,
          "velocity": 0.6299212598425197
        },
        {
          "duration": 0.3116321937500004,
          "durationTicks": 359,
          "midi": 82,
          "name": "A#5",
          "ticks": 73800,
          "time": 64.06255125,
          "velocity": 0.6299212598425197
        },
        {
          "duration": 0.4157989437500049,
          "durationTicks": 479,
          "midi": 89,
          "name": "F6",
          "ticks": 74160,
          "time": 64.3750515,
          "velocity": 0.6299212598425197
        },
        {
          "duration": 0.4157989437500049,
          "durationTicks": 479,
          "midi": 81,
          "name": "A5",
          "ticks": 74640,
          "time": 64.7917185,
          "velocity": 0.6299212598425197
        },
        {
          "duration": 0.20746544374999587,
          "durationTicks": 239,
          "midi": 81,
          "name": "A5",
          "ticks": 75120,
          "time": 65.2083855,
          "velocity": 0.6299212598425197
        },
        {
          "duration": 0.3116321937500004,
          "durationTicks": 359,
          "midi": 91,
          "name": "G6",
          "ticks": 75360,
          "time": 65.416719,
          "velocity": 0.6299212598425197
        },
        {
          "duration": 0.3116321937500004,
          "durationTicks": 359,
          "midi": 89,
          "name": "F6",
          "ticks": 75720,
          "time": 65.72921925,
          "velocity": 0.6299212598425197
        },
        {
          "duration": 0.20746544375001008,
          "durationTicks": 239,
          "midi": 89,
          "name": "F6",
          "ticks": 76080,
          "time": 66.0417195,
          "velocity": 0.6299212598425197
        },
        {
          "duration": 0.3116321937500004,
          "durationTicks": 359,
          "midi": 89,
          "name": "F6",
          "ticks": 76320,
          "time": 66.25005300000001,
          "velocity": 0.6299212598425197
        },
        {
          "duration": 0.3116321937500004,
          "durationTicks": 359,
          "midi": 86,
          "name": "D6",
          "ticks": 76680,
          "time": 66.56255325000001,
          "velocity": 0.6299212598425197
        },
        {
          "duration": 0.20746544374999587,
          "durationTicks": 239,
          "midi": 82,
          "name": "A#5",
          "ticks": 77040,
          "time": 66.8750535,
          "velocity": 0.6299212598425197
        },
        {
          "duration": 0.3116321937500004,
          "durationTicks": 359,
          "midi": 82,
          "name": "A#5",
          "ticks": 77280,
          "time": 67.083387,
          "velocity": 0.6299212598425197
        },
        {
          "duration": 0.3116321937500004,
          "durationTicks": 359,
          "midi": 81,
          "name": "A5",
          "ticks": 77640,
          "time": 67.39588725,
          "velocity": 0.6299212598425197
        },
        {
          "duration": 0.4157989437500049,
          "durationTicks": 479,
          "midi": 79,
          "name": "G5",
          "ticks": 78000,
          "time": 67.7083875,
          "velocity": 0.6299212598425197
        },
        {
          "duration": 0.4157989437500049,
          "durationTicks": 479,
          "midi": 81,
          "name": "A5",
          "ticks": 78480,
          "time": 68.1250545,
          "velocity": 0.6299212598425197
        },
        {
          "duration": 0.8324659437499946,
          "durationTicks": 959,
          "midi": 82,
          "name": "A#5",
          "ticks": 78960,
          "time": 68.54172150000001,
          "velocity": 0.6299212598425197
        },
        {
          "duration": 0.20746544375001008,
          "durationTicks": 239,
          "midi": 82,
          "name": "A#5",
          "ticks": 80880,
          "time": 70.2083895,
          "velocity": 0.6299212598425197
        },
        {
          "duration": 0.3116321937500004,
          "durationTicks": 359,
          "midi": 81,
          "name": "A5",
          "ticks": 81120,
          "time": 70.416723,
          "velocity": 0.6299212598425197
        },
        {
          "duration": 0.3116321937500004,
          "durationTicks": 359,
          "midi": 82,
          "name": "A#5",
          "ticks": 81480,
          "time": 70.72922325,
          "velocity": 0.6299212598425197
        },
        {
          "duration": 0.4157989437500049,
          "durationTicks": 479,
          "midi": 81,
          "name": "A5",
          "ticks": 81840,
          "time": 71.0417235,
          "velocity": 0.6299212598425197
        },
        {
          "duration": 0.4157989437499907,
          "durationTicks": 479,
          "midi": 77,
          "name": "F5",
          "ticks": 82320,
          "time": 71.45839050000001,
          "velocity": 0.6299212598425197
        },
        {
          "duration": 0.3116321937500004,
          "durationTicks": 359,
          "midi": 86,
          "name": "D6",
          "ticks": 83040,
          "time": 72.083391,
          "velocity": 0.6299212598425197
        },
        {
          "duration": 0.3116321937500004,
          "durationTicks": 359,
          "midi": 84,
          "name": "C6",
          "ticks": 83400,
          "time": 72.39589125,
          "velocity": 0.6299212598425197
        },
        {
          "duration": 0.20746544374999587,
          "durationTicks": 239,
          "midi": 84,
          "name": "C6",
          "ticks": 83760,
          "time": 72.7083915,
          "velocity": 0.6299212598425197
        },
        {
          "duration": 0.3116321937500004,
          "durationTicks": 359,
          "midi": 84,
          "name": "C6",
          "ticks": 84000,
          "time": 72.916725,
          "velocity": 0.6299212598425197
        },
        {
          "duration": 0.3116321937500004,
          "durationTicks": 359,
          "midi": 82,
          "name": "A#5",
          "ticks": 84360,
          "time": 73.22922525,
          "velocity": 0.6299212598425197
        },
        {
          "duration": 0.20746544375001008,
          "durationTicks": 239,
          "midi": 82,
          "name": "A#5",
          "ticks": 84720,
          "time": 73.5417255,
          "velocity": 0.6299212598425197
        },
        {
          "duration": 0.3116321937500004,
          "durationTicks": 359,
          "midi": 81,
          "name": "A5",
          "ticks": 84960,
          "time": 73.75005900000001,
          "velocity": 0.6299212598425197
        },
        {
          "duration": 0.3116321937500004,
          "durationTicks": 359,
          "midi": 82,
          "name": "A#5",
          "ticks": 85320,
          "time": 74.06255925,
          "velocity": 0.6299212598425197
        },
        {
          "duration": 0.4157989437499907,
          "durationTicks": 479,
          "midi": 81,
          "name": "A5",
          "ticks": 85680,
          "time": 74.3750595,
          "velocity": 0.6299212598425197
        },
        {
          "duration": 0.4157989437500049,
          "durationTicks": 479,
          "midi": 77,
          "name": "F5",
          "ticks": 86160,
          "time": 74.7917265,
          "velocity": 0.6299212598425197
        },
        {
          "duration": 0.20746544374999587,
          "durationTicks": 239,
          "midi": 77,
          "name": "F5",
          "ticks": 86640,
          "time": 75.2083935,
          "velocity": 0.6299212598425197
        },
        {
          "duration": 0.3116321937500004,
          "durationTicks": 359,
          "midi": 86,
          "name": "D6",
          "ticks": 86880,
          "time": 75.41672700000001,
          "velocity": 0.6299212598425197
        },
        {
          "duration": 0.3116321937500004,
          "durationTicks": 359,
          "midi": 84,
          "name": "C6",
          "ticks": 87240,
          "time": 75.72922725000001,
          "velocity": 0.6299212598425197
        },
        {
          "duration": 0.20746544374999587,
          "durationTicks": 239,
          "midi": 84,
          "name": "C6",
          "ticks": 87600,
          "time": 76.04172750000001,
          "velocity": 0.6299212598425197
        },
        {
          "duration": 0.3116321937500004,
          "durationTicks": 359,
          "midi": 84,
          "name": "C6",
          "ticks": 87840,
          "time": 76.250061,
          "velocity": 0.6299212598425197
        },
        {
          "duration": 0.3116321937500004,
          "durationTicks": 359,
          "midi": 82,
          "name": "A#5",
          "ticks": 88200,
          "time": 76.56256125,
          "velocity": 0.6299212598425197
        },
        {
          "duration": 0.20746544374999587,
          "durationTicks": 239,
          "midi": 82,
          "name": "A#5",
          "ticks": 88560,
          "time": 76.8750615,
          "velocity": 0.6299212598425197
        },
        {
          "duration": 0.3116321937500004,
          "durationTicks": 359,
          "midi": 81,
          "name": "A5",
          "ticks": 88800,
          "time": 77.083395,
          "velocity": 0.6299212598425197
        },
        {
          "duration": 0.3116321937500004,
          "durationTicks": 359,
          "midi": 82,
          "name": "A#5",
          "ticks": 89160,
          "time": 77.39589525,
          "velocity": 0.6299212598425197
        },
        {
          "duration": 0.4157989437499907,
          "durationTicks": 479,
          "midi": 89,
          "name": "F6",
          "ticks": 89520,
          "time": 77.70839550000001,
          "velocity": 0.6299212598425197
        },
        {
          "duration": 0.4157989437500049,
          "durationTicks": 479,
          "midi": 81,
          "name": "A5",
          "ticks": 90000,
          "time": 78.1250625,
          "velocity": 0.6299212598425197
        },
        {
          "duration": 0.20746544374999587,
          "durationTicks": 239,
          "midi": 81,
          "name": "A5",
          "ticks": 90480,
          "time": 78.5417295,
          "velocity": 0.6299212598425197
        },
        {
          "duration": 0.3116321937500004,
          "durationTicks": 359,
          "midi": 91,
          "name": "G6",
          "ticks": 90720,
          "time": 78.750063,
          "velocity": 0.6299212598425197
        },
        {
          "duration": 0.3116321937500004,
          "durationTicks": 359,
          "midi": 89,
          "name": "F6",
          "ticks": 91080,
          "time": 79.06256325,
          "velocity": 0.6299212598425197
        },
        {
          "duration": 0.20746544375001008,
          "durationTicks": 239,
          "midi": 89,
          "name": "F6",
          "ticks": 91440,
          "time": 79.3750635,
          "velocity": 0.6299212598425197
        },
        {
          "duration": 0.3116321937500004,
          "durationTicks": 359,
          "midi": 89,
          "name": "F6",
          "ticks": 91680,
          "time": 79.583397,
          "velocity": 0.6299212598425197
        },
        {
          "duration": 0.3116321937500004,
          "durationTicks": 359,
          "midi": 86,
          "name": "D6",
          "ticks": 92040,
          "time": 79.89589725,
          "velocity": 0.6299212598425197
        },
        {
          "duration": 0.20746544374999587,
          "durationTicks": 239,
          "midi": 82,
          "name": "A#5",
          "ticks": 92400,
          "time": 80.2083975,
          "velocity": 0.6299212598425197
        },
        {
          "duration": 0.3116321937500004,
          "durationTicks": 359,
          "midi": 82,
          "name": "A#5",
          "ticks": 92640,
          "time": 80.416731,
          "velocity": 0.6299212598425197
        },
        {
          "duration": 0.3116321937500004,
          "durationTicks": 359,
          "midi": 81,
          "name": "A5",
          "ticks": 93000,
          "time": 80.72923125,
          "velocity": 0.6299212598425197
        },
        {
          "duration": 0.4157989437500049,
          "durationTicks": 479,
          "midi": 79,
          "name": "G5",
          "ticks": 93360,
          "time": 81.0417315,
          "velocity": 0.6299212598425197
        },
        {
          "duration": 0.4157989437500049,
          "durationTicks": 479,
          "midi": 81,
          "name": "A5",
          "ticks": 93840,
          "time": 81.4583985,
          "velocity": 0.6299212598425197
        },
        {
          "duration": 1.8741334437499972,
          "durationTicks": 2159,
          "midi": 82,
          "name": "A#5",
          "ticks": 94320,
          "time": 81.8750655,
          "velocity": 0.6299212598425197
        }
      ],
      "endOfTrackTicks": 96480
    }
  ]
}
